<?xml version="1.0" encoding="utf-8" standalone="no"?>
<!DOCTYPE svg PUBLIC "-//W3C//DTD SVG 1.1//EN"
  "http://www.w3.org/Graphics/SVG/1.1/DTD/svg11.dtd">
<!-- Created with matplotlib (http://matplotlib.org/) -->
<svg height="648pt" version="1.1" viewBox="0 0 864 648" width="864pt" xmlns="http://www.w3.org/2000/svg" xmlns:xlink="http://www.w3.org/1999/xlink">
 <defs>
  <style type="text/css">
*{stroke-linecap:butt;stroke-linejoin:round;}
  </style>
 </defs>
 <g id="figure_1">
  <g id="patch_1">
   <path d="
M0 648
L864 648
L864 0
L0 0
z
" style="fill:#ffffff;"/>
  </g>
  <g id="axes_1">
   <g id="patch_2">
    <path d="
M108 583.2
L777.6 583.2
L777.6 64.8
L108 64.8
z
" style="fill:#ffffff;"/>
   </g>
   <g id="line2d_1">
    <path clip-path="url(#p7ceb695115)" d="
M108 583.2
L139.471 583.2
L140.141 580.608
L140.81 581.904
L141.48 581.904
L142.15 580.608
L142.819 583.2
L144.158 580.608
L145.498 583.2
L146.167 580.608
L147.506 580.608
L148.176 581.904
L149.515 581.904
L150.185 580.608
L150.854 581.904
L151.524 580.608
L152.194 581.904
L153.533 579.312
L154.202 581.904
L155.542 579.312
L156.211 581.904
L156.881 579.312
L157.55 580.608
L158.22 578.016
L158.89 578.016
L159.559 576.72
L160.229 578.016
L160.898 583.2
L161.568 580.608
L162.238 580.608
L162.907 576.72
L163.577 578.016
L164.246 581.904
L164.916 583.2
L165.586 578.016
L166.255 576.72
L166.925 580.608
L167.594 583.2
L168.264 581.904
L168.934 583.2
L169.603 580.608
L170.273 581.904
L170.942 581.904
L171.612 578.016
L172.282 580.608
L172.951 580.608
L173.621 578.016
L174.29 576.72
L174.96 576.72
L175.63 580.608
L176.299 581.904
L176.969 579.312
L178.308 576.72
L178.978 576.72
L179.647 578.016
L180.317 575.424
L180.986 576.72
L181.656 574.128
L182.326 576.72
L182.995 578.016
L183.665 578.016
L184.334 576.72
L185.004 574.128
L185.674 574.128
L186.343 579.312
L187.013 580.608
L187.682 575.424
L188.352 578.016
L189.022 576.72
L189.691 578.016
L190.361 576.72
L191.03 576.72
L191.7 581.904
L192.37 579.312
L193.039 580.608
L193.709 579.312
L194.378 576.72
L195.718 576.72
L196.387 580.608
L197.057 575.424
L197.726 578.016
L198.396 574.128
L199.066 575.424
L199.735 580.608
L200.405 578.016
L201.744 583.2
L202.414 576.72
L203.083 580.608
L203.753 578.016
L204.422 578.016
L205.092 579.312
L205.762 579.312
L206.431 575.424
L207.77 575.424
L208.44 579.312
L209.11 579.312
L209.779 574.128
L210.449 572.832
L211.118 574.128
L211.788 572.832
L212.458 572.832
L213.127 574.128
L213.797 578.016
L214.466 572.832
L215.136 572.832
L215.806 571.536
L216.475 574.128
L217.145 570.24
L217.814 572.832
L218.484 571.536
L219.823 574.128
L220.493 572.832
L221.162 575.424
L221.832 575.424
L222.502 578.016
L223.171 571.536
L223.841 581.904
L225.18 574.128
L225.85 574.128
L226.519 572.832
L227.189 575.424
L227.858 574.128
L228.528 574.128
L229.198 576.72
L229.867 572.832
L230.537 570.24
L231.206 571.536
L231.876 576.72
L232.546 575.424
L233.885 570.24
L234.554 576.72
L235.224 575.424
L235.894 575.424
L236.563 572.832
L237.233 568.944
L237.902 574.128
L238.572 572.832
L239.242 578.016
L239.911 576.72
L240.581 578.016
L241.25 578.016
L241.92 576.72
L242.59 579.312
L243.259 579.312
L243.929 574.128
L244.598 575.424
L245.268 575.424
L245.938 576.72
L246.607 576.72
L247.277 580.608
L247.946 576.72
L248.616 575.424
L249.286 572.832
L249.955 576.72
L250.625 574.128
L251.294 575.424
L251.964 578.016
L252.634 575.424
L253.303 581.904
L253.973 575.424
L254.642 574.128
L255.312 578.016
L255.982 576.72
L256.651 572.832
L257.321 579.312
L257.99 575.424
L258.66 574.128
L259.33 576.72
L260.669 576.72
L261.338 574.128
L262.008 572.832
L262.678 570.24
L263.347 574.128
L264.017 579.312
L265.356 571.536
L266.026 571.536
L267.365 576.72
L268.034 575.424
L270.043 579.312
L270.713 578.016
L271.382 579.312
L272.052 572.832
L272.722 575.424
L273.391 576.72
L274.061 574.128
L274.73 578.016
L275.4 580.608
L276.07 578.016
L276.739 570.24
L277.409 574.128
L278.078 572.832
L278.748 575.424
L279.418 572.832
L280.087 571.536
L280.757 578.016
L282.766 578.016
L283.435 580.608
L284.105 579.312
L285.444 571.536
L286.114 574.128
L286.783 574.128
L287.453 578.016
L288.122 575.424
L288.792 578.016
L289.462 576.72
L290.131 579.312
L290.801 579.312
L291.47 572.832
L292.14 580.608
L292.81 576.72
L293.479 575.424
L294.149 576.72
L296.158 576.72
L296.827 578.016
L297.497 580.608
L298.166 580.608
L298.836 581.904
L299.506 575.424
L300.175 574.128
L300.845 576.72
L301.514 583.2
L302.184 580.608
L302.854 583.2
L303.523 579.312
L304.193 572.832
L304.862 576.72
L306.202 581.904
L307.541 579.312
L308.21 576.72
L308.88 575.424
L309.55 576.72
L310.219 581.904
L310.889 583.2
L311.558 576.72
L312.228 575.424
L312.898 576.72
L313.567 579.312
L314.237 578.016
L314.906 580.608
L315.576 580.608
L316.246 581.904
L316.915 579.312
L317.585 579.312
L318.254 578.016
L318.924 575.424
L319.594 579.312
L320.263 581.904
L320.933 579.312
L321.602 581.904
L322.272 579.312
L322.942 581.904
L323.611 578.016
L324.281 579.312
L325.62 574.128
L326.29 576.72
L326.959 578.016
L327.629 580.608
L328.298 579.312
L328.968 574.128
L329.638 571.536
L330.977 576.72
L331.646 580.608
L332.316 579.312
L332.986 576.72
L334.325 579.312
L334.994 572.832
L335.664 574.128
L336.334 578.016
L337.003 575.424
L338.342 578.016
L339.012 576.72
L339.682 572.832
L340.351 572.832
L341.021 576.72
L341.69 579.312
L342.36 575.424
L343.699 578.016
L344.369 583.2
L345.038 578.016
L345.708 581.904
L346.378 579.312
L347.047 580.608
L347.717 579.312
L348.386 574.128
L349.056 580.608
L349.726 580.608
L350.395 578.016
L351.065 578.016
L351.734 574.128
L352.404 580.608
L353.074 575.424
L353.743 571.536
L355.082 574.128
L355.752 570.24
L356.422 578.016
L357.091 580.608
L357.761 578.016
L358.43 574.128
L359.1 575.424
L359.77 574.128
L360.439 581.904
L361.109 575.424
L361.778 575.424
L363.118 578.016
L363.787 578.016
L364.457 576.72
L365.126 578.016
L365.796 575.424
L366.466 579.312
L367.135 580.608
L367.805 578.016
L368.474 576.72
L370.483 580.608
L371.153 576.72
L371.822 578.016
L372.492 576.72
L373.162 579.312
L373.831 572.832
L374.501 576.72
L375.17 575.424
L375.84 576.72
L376.51 579.312
L377.849 576.72
L379.188 576.72
L379.858 578.016
L380.527 578.016
L381.197 576.72
L381.866 578.016
L382.536 570.24
L383.206 570.24
L383.875 578.016
L384.545 580.608
L385.214 578.016
L385.884 576.72
L386.554 578.016
L387.893 575.424
L388.562 572.832
L389.232 578.016
L389.902 579.312
L391.241 579.312
L392.58 581.904
L393.25 579.312
L393.919 581.904
L395.258 579.312
L395.928 576.72
L396.598 580.608
L397.937 578.016
L398.606 579.312
L399.276 579.312
L399.946 574.128
L400.615 574.128
L401.285 576.72
L401.954 578.016
L402.624 576.72
L403.294 579.312
L403.963 579.312
L404.633 574.128
L405.302 576.72
L405.972 575.424
L406.642 575.424
L407.311 578.016
L407.981 574.128
L408.65 580.608
L409.32 575.424
L409.99 575.424
L410.659 570.24
L411.329 567.648
L411.998 563.76
L412.668 572.832
L413.338 579.312
L414.007 580.608
L414.677 575.424
L415.346 574.128
L416.016 580.608
L416.686 571.536
L417.355 574.128
L418.025 578.016
L418.694 578.016
L419.364 575.424
L420.034 580.608
L421.373 578.016
L422.042 581.904
L422.712 576.72
L423.382 579.312
L424.051 580.608
L424.721 578.016
L425.39 578.016
L426.06 580.608
L426.73 578.016
L427.399 579.312
L428.069 581.904
L428.738 578.016
L429.408 575.424
L430.078 580.608
L431.417 580.608
L432.086 581.904
L432.756 579.312
L433.426 575.424
L434.095 575.424
L434.765 580.608
L435.434 581.904
L436.104 579.312
L436.774 578.016
L437.443 579.312
L438.113 583.2
L439.452 578.016
L440.122 579.312
L440.791 579.312
L441.461 580.608
L442.8 580.608
L444.139 575.424
L446.148 575.424
L446.818 572.832
L447.487 572.832
L448.157 566.352
L448.826 563.76
L449.496 552.096
L450.166 550.8
L450.835 548.208
L451.505 537.84
L452.174 518.4
L452.844 493.776
L453.514 496.368
L454.183 475.632
L454.853 466.56
L455.522 492.48
L456.192 486
L456.862 476.928
L457.531 482.112
L458.201 495.072
L458.87 476.928
L459.54 474.336
L460.21 492.48
L460.879 479.52
L461.549 491.184
L462.218 483.408
L462.888 505.44
L463.558 478.224
L464.897 443.232
L465.566 454.896
L466.236 505.44
L466.906 466.56
L467.575 452.304
L468.245 488.592
L468.914 495.072
L469.584 466.56
L470.254 484.704
L470.923 488.592
L472.262 458.784
L472.932 465.264
L473.602 451.008
L474.271 440.64
L474.941 484.704
L475.61 466.56
L476.28 465.264
L476.95 451.008
L478.289 492.48
L478.958 493.776
L479.628 509.328
L480.298 462.672
L480.967 491.184
L481.637 486
L482.306 462.672
L482.976 457.488
L483.646 498.96
L484.315 461.376
L484.985 454.896
L485.654 493.776
L486.324 502.848
L486.994 480.816
L487.663 465.264
L488.333 478.224
L489.002 469.152
L489.672 484.704
L490.342 489.888
L491.011 469.152
L491.681 466.56
L492.35 488.592
L493.02 471.744
L493.69 483.408
L494.359 482.112
L495.029 473.04
L495.698 461.376
L496.368 501.552
L497.038 479.52
L497.707 498.96
L498.377 502.848
L499.046 489.888
L499.716 492.48
L500.386 478.224
L501.055 487.296
L501.725 508.032
L502.394 501.552
L503.064 498.96
L503.734 495.072
L505.073 470.448
L505.742 467.856
L506.412 502.848
L507.082 488.592
L507.751 489.888
L508.421 488.592
L509.09 483.408
L509.76 493.776
L510.43 474.336
L511.099 482.112
L511.769 466.56
L512.438 492.48
L513.108 479.52
L513.778 469.152
L514.447 498.96
L515.117 513.216
L515.786 489.888
L516.456 482.112
L517.126 510.624
L517.795 495.072
L518.465 483.408
L519.134 492.48
L519.804 488.592
L520.474 480.816
L521.143 513.216
L521.813 509.328
L522.482 469.152
L523.152 523.584
L523.822 508.032
L524.491 510.624
L525.161 488.592
L525.83 486
L526.5 479.52
L527.17 469.152
L527.839 487.296
L528.509 489.888
L529.178 489.888
L529.848 482.112
L530.518 484.704
L531.187 495.072
L531.857 497.664
L532.526 489.888
L533.196 509.328
L533.866 511.92
L534.535 480.816
L535.205 495.072
L535.874 495.072
L536.544 483.408
L537.214 491.184
L537.883 484.704
L538.553 501.552
L539.222 478.224
L539.892 458.784
L540.562 487.296
L541.231 479.52
L541.901 478.224
L542.57 517.104
L543.24 473.04
L543.91 496.368
L544.579 508.032
L545.249 487.296
L545.918 479.52
L546.588 480.816
L547.258 487.296
L547.927 500.256
L548.597 486
L549.266 522.288
L549.936 501.552
L550.606 498.96
L551.275 502.848
L551.945 505.44
L552.614 509.328
L553.284 500.256
L553.954 478.224
L554.623 498.96
L555.293 498.96
L555.962 491.184
L556.632 506.736
L557.302 500.256
L557.971 476.928
L558.641 508.032
L559.31 487.296
L559.98 500.256
L560.65 506.736
L561.319 495.072
L561.989 486
L562.658 505.44
L563.328 500.256
L563.998 487.296
L564.667 489.888
L565.337 497.664
L566.006 495.072
L566.676 488.592
L567.346 476.928
L568.015 469.152
L568.685 509.328
L569.354 495.072
L570.024 501.552
L570.694 489.888
L571.363 497.664
L572.033 479.52
L572.702 497.664
L573.372 488.592
L574.042 491.184
L574.711 509.328
L575.381 519.696
L576.05 522.288
L576.72 522.288
L577.39 491.184
L578.059 486
L578.729 484.704
L579.398 492.48
L580.068 491.184
L580.738 492.48
L581.407 491.184
L582.077 509.328
L582.746 497.664
L583.416 483.408
L584.086 510.624
L584.755 469.152
L585.425 504.144
L586.094 506.736
L586.764 497.664
L587.434 486
L588.103 493.776
L588.773 486
L589.442 504.144
L590.112 501.552
L591.451 498.96
L592.121 476.928
L592.79 500.256
L593.46 508.032
L594.13 497.664
L594.799 497.664
L595.469 496.368
L596.138 497.664
L596.808 489.888
L597.478 484.704
L598.147 505.44
L599.486 495.072
L600.156 479.52
L600.826 487.296
L601.495 483.408
L602.165 497.664
L602.834 509.328
L603.504 489.888
L604.174 486
L604.843 498.96
L605.513 517.104
L606.182 491.184
L606.852 488.592
L607.522 489.888
L608.191 520.992
L608.861 498.96
L609.53 486
L610.2 505.44
L610.87 508.032
L611.539 493.776
L612.209 498.96
L612.878 491.184
L613.548 482.112
L614.218 505.44
L614.887 504.144
L615.557 508.032
L616.226 500.256
L616.896 504.144
L617.566 498.96
L618.235 502.848
L618.905 497.664
L619.574 493.776
L620.244 511.92
L620.914 511.92
L621.583 502.848
L622.253 498.96
L622.922 502.848
L623.592 496.368
L624.262 509.328
L624.931 491.184
L625.601 509.328
L626.27 493.776
L626.94 522.288
L627.61 513.216
L628.279 509.328
L628.949 517.104
L629.618 502.848
L630.288 510.624
L630.958 504.144
L631.627 498.96
L632.297 524.88
L632.966 511.92
L633.636 484.704
L634.306 480.816
L634.975 518.4
L635.645 514.512
L636.314 497.664
L636.984 505.44
L637.654 514.512
L638.323 502.848
L638.993 498.96
L639.662 517.104
L640.332 500.256
L641.002 496.368
L641.671 505.44
L642.341 502.848
L643.01 482.112
L643.68 478.224
L644.35 504.144
L645.019 518.4
L645.689 496.368
L646.358 506.736
L647.028 495.072
L647.698 492.48
L648.367 517.104
L649.037 498.96
L649.706 522.288
L650.376 488.592
L651.046 496.368
L651.715 511.92
L652.385 517.104
L653.054 492.48
L653.724 488.592
L654.394 518.4
L655.063 502.848
L655.733 509.328
L656.402 501.552
L657.072 522.288
L657.742 495.072
L658.411 513.216
L659.081 495.072
L659.75 500.256
L660.42 511.92
L661.09 497.664
L661.759 508.032
L662.429 514.512
L663.098 489.888
L663.768 527.472
L664.438 498.96
L665.107 510.624
L665.777 497.664
L666.446 510.624
L667.116 535.248
L667.786 495.072
L668.455 501.552
L669.125 500.256
L669.794 520.992
L670.464 517.104
L671.134 501.552
L671.803 492.48
L672.473 519.696
L673.142 506.736
L673.812 511.92
L674.482 493.776
L675.151 500.256
L675.821 524.88
L676.49 504.144
L677.16 506.736
L677.83 495.072
L678.499 510.624
L679.169 513.216
L679.838 486
L680.508 533.952
L681.178 497.664
L681.847 527.472
L682.517 500.256
L683.186 489.888
L683.856 493.776
L684.526 506.736
L685.195 511.92
L685.865 526.176
L686.534 508.032
L687.204 519.696
L687.874 495.072
L688.543 504.144
L689.213 500.256
L689.882 524.88
L690.552 502.848
L691.222 528.768
L691.891 517.104
L692.561 514.512
L693.23 506.736
L693.9 492.48
L694.57 495.072
L695.239 508.032
L695.909 486
L696.578 504.144
L697.248 517.104
L697.918 514.512
L698.587 489.888
L699.257 498.96
L699.926 513.216
L700.596 482.112
L701.266 511.92
L701.935 506.736
L702.605 520.992
L703.274 517.104
L703.944 501.552
L704.614 495.072
L705.283 497.664
L705.953 479.52
L706.622 517.104
L707.292 513.216
L707.962 488.592
L708.631 514.512
L709.301 476.928
L709.97 536.544
L710.64 517.104
L711.31 523.584
L711.979 519.696
L712.649 501.552
L713.318 492.48
L713.988 514.512
L714.658 505.44
L715.327 491.184
L715.997 482.112
L716.666 517.104
L717.336 497.664
L718.006 509.328
L718.675 514.512
L719.345 505.44
L720.014 487.296
L720.684 504.144
L721.354 497.664
L722.023 504.144
L722.693 518.4
L723.362 502.848
L724.032 517.104
L724.702 498.96
L725.371 484.704
L726.041 497.664
L726.71 506.736
L727.38 502.848
L728.05 501.552
L728.719 474.336
L729.389 505.44
L730.058 509.328
L730.728 493.776
L731.398 508.032
L732.067 508.032
L732.737 486
L733.406 520.992
L734.076 498.96
L734.746 480.816
L735.415 486
L736.085 515.808
L736.754 509.328
L737.424 515.808
L738.094 508.032
L738.763 496.368
L739.433 501.552
L740.102 504.144
L740.772 482.112
L741.442 482.112
L742.111 509.328
L742.781 530.064
L743.45 502.848
L744.12 518.4
L744.79 504.144
L745.459 513.216
L746.129 505.44
L746.798 528.768
L747.468 502.848
L748.138 510.624
L748.807 526.176
L749.477 500.256
L750.146 515.808
L750.816 502.848
L751.486 515.808
L752.155 508.032
L752.825 496.368
L753.494 495.072
L754.164 518.4
L754.834 510.624
L755.503 543.024
L756.173 500.256
L756.842 504.144
L757.512 505.44
L758.182 502.848
L759.521 510.624
L760.19 524.88
L760.86 514.512
L761.53 510.624
L762.199 505.44
L762.869 484.704
L763.538 509.328
L764.208 510.624
L764.878 526.176
L765.547 505.44
L766.217 509.328
L766.886 504.144
L767.556 505.44
L768.226 513.216
L768.895 511.92
L769.565 522.288
L770.234 480.816
L770.904 510.624
L771.574 513.216
L772.243 493.776
L773.582 514.512
L774.252 519.696
L774.922 509.328
L775.591 519.696
L776.261 501.552
L776.93 511.92
L777.6 513.216
L777.6 513.216" style="fill:none;stroke:#ff0000;stroke-linecap:square;"/>
   </g>
   <g id="line2d_2">
    <path clip-path="url(#p7ceb695115)" d="
M108 583.2
L139.471 583.2
L140.81 580.608
L141.48 580.608
L142.15 581.904
L142.819 579.312
L143.489 579.312
L144.158 581.904
L144.828 579.312
L145.498 579.312
L146.167 581.904
L146.837 580.608
L147.506 581.904
L148.176 580.608
L148.846 576.72
L149.515 576.72
L150.185 579.312
L150.854 576.72
L151.524 576.72
L152.194 574.128
L152.863 574.128
L153.533 572.832
L154.202 572.832
L154.872 574.128
L155.542 574.128
L156.211 568.944
L156.881 576.72
L157.55 571.536
L158.22 572.832
L159.559 572.832
L160.229 571.536
L160.898 567.648
L162.238 572.832
L162.907 576.72
L163.577 576.72
L164.246 570.24
L164.916 565.056
L165.586 572.832
L166.925 572.832
L167.594 568.944
L168.264 568.944
L168.934 567.648
L169.603 565.056
L170.942 567.648
L171.612 567.648
L172.282 565.056
L172.951 563.76
L173.621 566.352
L174.29 565.056
L174.96 567.648
L175.63 566.352
L176.299 567.648
L176.969 572.832
L177.638 566.352
L178.308 567.648
L178.978 563.76
L179.647 561.168
L180.317 568.944
L180.986 562.464
L181.656 565.056
L182.326 568.944
L183.665 561.168
L184.334 565.056
L185.004 566.352
L185.674 566.352
L186.343 565.056
L187.013 559.872
L187.682 562.464
L188.352 559.872
L189.022 559.872
L189.691 561.168
L190.361 561.168
L191.7 555.984
L192.37 559.872
L193.039 557.28
L193.709 559.872
L194.378 565.056
L195.048 566.352
L195.718 558.576
L196.387 555.984
L197.057 559.872
L197.726 552.096
L198.396 559.872
L199.066 559.872
L199.735 555.984
L200.405 557.28
L201.074 559.872
L201.744 558.576
L202.414 561.168
L203.083 555.984
L203.753 555.984
L204.422 553.392
L205.092 553.392
L205.762 549.504
L206.431 553.392
L207.101 554.688
L207.77 554.688
L208.44 548.208
L209.11 548.208
L209.779 552.096
L211.118 552.096
L212.458 549.504
L213.127 546.912
L213.797 548.208
L214.466 553.392
L215.136 553.392
L215.806 555.984
L216.475 546.912
L217.145 546.912
L217.814 544.32
L218.484 546.912
L219.154 552.096
L219.823 546.912
L220.493 548.208
L221.162 540.432
L221.832 541.728
L222.502 548.208
L223.171 553.392
L223.841 543.024
L224.51 546.912
L225.18 552.096
L225.85 552.096
L226.519 540.432
L227.189 545.616
L227.858 541.728
L228.528 541.728
L229.198 540.432
L229.867 548.208
L230.537 543.024
L231.206 544.32
L231.876 543.024
L232.546 548.208
L233.215 541.728
L233.885 550.8
L234.554 544.32
L235.224 548.208
L235.894 546.912
L236.563 555.984
L237.233 559.872
L237.902 548.208
L238.572 558.576
L239.911 550.8
L240.581 544.32
L241.25 546.912
L241.92 553.392
L242.59 553.392
L243.259 550.8
L243.929 554.688
L244.598 555.984
L245.938 548.208
L246.607 549.504
L247.277 544.32
L249.286 559.872
L249.955 563.76
L250.625 559.872
L251.964 559.872
L252.634 563.76
L253.303 559.872
L253.973 559.872
L254.642 561.168
L255.312 552.096
L255.982 555.984
L256.651 565.056
L257.321 553.392
L258.66 558.576
L259.33 563.76
L259.999 559.872
L260.669 558.576
L261.338 555.984
L262.008 559.872
L262.678 559.872
L263.347 555.984
L264.017 549.504
L264.686 554.688
L265.356 558.576
L266.026 559.872
L266.695 554.688
L267.365 554.688
L268.034 555.984
L268.704 558.576
L269.374 557.28
L270.043 563.76
L270.713 565.056
L271.382 558.576
L272.052 563.76
L272.722 563.76
L273.391 554.688
L274.061 561.168
L274.73 553.392
L275.4 550.8
L276.07 554.688
L276.739 563.76
L278.078 553.392
L278.748 558.576
L279.418 559.872
L280.087 553.392
L280.757 553.392
L281.426 548.208
L282.096 555.984
L282.766 557.28
L284.105 554.688
L285.444 557.28
L286.114 557.28
L286.783 553.392
L287.453 550.8
L288.122 555.984
L288.792 550.8
L289.462 558.576
L290.131 558.576
L290.801 561.168
L291.47 565.056
L292.14 562.464
L292.81 561.168
L293.479 561.168
L294.149 559.872
L294.818 559.872
L295.488 561.168
L296.158 566.352
L296.827 563.76
L297.497 568.944
L298.166 565.056
L298.836 559.872
L299.506 572.832
L300.175 574.128
L300.845 574.128
L301.514 568.944
L302.184 572.832
L302.854 568.944
L303.523 570.24
L304.193 570.24
L304.862 566.352
L305.532 565.056
L306.202 561.168
L306.871 563.76
L307.541 565.056
L308.21 561.168
L308.88 568.944
L309.55 570.24
L310.219 563.76
L310.889 562.464
L311.558 568.944
L312.228 563.76
L312.898 568.944
L313.567 563.76
L314.237 563.76
L316.915 568.944
L317.585 565.056
L318.254 566.352
L318.924 563.76
L319.594 559.872
L320.263 553.392
L320.933 555.984
L321.602 562.464
L322.272 557.28
L322.942 555.984
L323.611 557.28
L324.281 554.688
L324.95 561.168
L326.29 561.168
L326.959 558.576
L327.629 561.168
L328.298 562.464
L328.968 565.056
L329.638 561.168
L330.307 561.168
L330.977 558.576
L331.646 557.28
L332.316 559.872
L332.986 561.168
L333.655 558.576
L334.325 559.872
L334.994 563.76
L335.664 561.168
L336.334 559.872
L337.003 565.056
L337.673 562.464
L338.342 558.576
L339.012 558.576
L339.682 567.648
L340.351 566.352
L341.021 554.688
L341.69 550.8
L342.36 553.392
L343.03 552.096
L343.699 554.688
L344.369 544.32
L345.038 550.8
L345.708 550.8
L346.378 558.576
L347.717 553.392
L348.386 559.872
L349.056 555.984
L349.726 558.576
L350.395 563.76
L351.065 563.76
L351.734 568.944
L352.404 567.648
L353.074 568.944
L353.743 571.536
L354.413 567.648
L355.752 572.832
L356.422 561.168
L357.091 555.984
L357.761 562.464
L358.43 566.352
L359.1 561.168
L359.77 566.352
L360.439 558.576
L361.109 565.056
L361.778 565.056
L362.448 561.168
L363.118 563.76
L363.787 565.056
L364.457 567.648
L365.126 563.76
L365.796 567.648
L366.466 566.352
L367.135 562.464
L367.805 565.056
L368.474 562.464
L369.144 562.464
L369.814 559.872
L370.483 563.76
L371.153 565.056
L371.822 563.76
L372.492 558.576
L373.162 559.872
L373.831 565.056
L374.501 561.168
L375.17 558.576
L375.84 558.576
L376.51 559.872
L377.179 559.872
L377.849 561.168
L378.518 563.76
L379.188 565.056
L379.858 563.76
L381.197 566.352
L381.866 565.056
L383.206 570.24
L383.875 555.984
L384.545 558.576
L385.214 562.464
L385.884 561.168
L386.554 558.576
L387.223 562.464
L387.893 561.168
L388.562 565.056
L389.902 559.872
L391.241 567.648
L391.91 568.944
L392.58 565.056
L393.25 566.352
L393.919 566.352
L394.589 567.648
L395.258 566.352
L395.928 563.76
L396.598 559.872
L397.267 563.76
L397.937 561.168
L399.946 561.168
L400.615 563.76
L401.285 558.576
L401.954 563.76
L402.624 562.464
L403.294 554.688
L403.963 549.504
L404.633 554.688
L405.302 557.28
L405.972 552.096
L406.642 552.096
L407.311 550.8
L407.981 554.688
L408.65 545.616
L409.32 554.688
L409.99 553.392
L410.659 557.28
L411.329 557.28
L411.998 555.984
L413.338 550.8
L414.007 557.28
L415.346 554.688
L416.016 549.504
L416.686 555.984
L417.355 557.28
L418.025 554.688
L418.694 558.576
L419.364 559.872
L420.034 552.096
L420.703 553.392
L421.373 562.464
L422.042 555.984
L422.712 558.576
L423.382 558.576
L424.721 555.984
L425.39 565.056
L426.06 557.28
L426.73 558.576
L427.399 561.168
L428.069 559.872
L428.738 563.76
L429.408 561.168
L430.078 555.984
L430.747 559.872
L431.417 562.464
L432.086 558.576
L432.756 565.056
L433.426 567.648
L434.765 562.464
L435.434 561.168
L436.104 566.352
L436.774 567.648
L437.443 570.24
L438.113 563.76
L438.782 559.872
L439.452 566.352
L440.122 563.76
L440.791 563.76
L441.461 561.168
L442.13 562.464
L442.8 565.056
L444.139 567.648
L444.809 570.24
L445.478 563.76
L446.148 566.352
L446.818 555.984
L447.487 552.096
L448.157 541.728
L448.826 533.952
L449.496 511.92
L450.166 500.256
L452.174 381.024
L452.844 335.664
L453.514 305.856
L454.183 290.304
L454.853 248.832
L455.522 217.728
L456.192 228.096
L456.862 222.912
L458.201 162
L458.87 186.624
L459.54 195.696
L460.21 178.848
L460.879 187.92
L461.549 162
L462.218 182.736
L462.888 145.152
L463.558 185.328
L464.227 185.328
L464.897 193.104
L465.566 177.552
L466.236 139.968
L466.906 186.624
L467.575 177.552
L468.245 171.072
L468.914 165.888
L469.584 154.224
L470.254 150.336
L470.923 158.112
L471.593 194.4
L472.262 181.44
L472.932 177.552
L473.602 187.92
L474.271 194.4
L474.941 163.296
L475.61 145.152
L476.28 142.56
L476.95 124.416
L477.619 142.56
L478.289 146.448
L478.958 142.56
L479.628 142.56
L480.298 178.848
L480.967 152.928
L481.637 160.704
L482.306 173.664
L482.976 180.144
L483.646 150.336
L484.985 194.4
L485.654 169.776
L486.324 156.816
L486.994 169.776
L487.663 196.992
L488.333 149.04
L489.002 158.112
L489.672 127.008
L491.011 191.808
L491.681 186.624
L492.35 154.224
L493.02 151.632
L493.69 162
L494.359 159.408
L495.029 169.776
L495.698 171.072
L496.368 160.704
L497.038 173.664
L497.707 176.256
L498.377 191.808
L499.046 195.696
L499.716 200.88
L500.386 208.656
L501.055 196.992
L501.725 181.44
L502.394 207.36
L503.064 213.84
L503.734 221.616
L504.403 261.792
L505.742 216.432
L506.412 217.728
L507.082 224.208
L507.751 207.36
L508.421 203.472
L509.09 207.36
L509.76 169.776
L510.43 187.92
L511.099 181.44
L511.769 203.472
L512.438 206.064
L513.108 195.696
L513.778 203.472
L514.447 190.512
L515.117 185.328
L515.786 202.176
L516.456 215.136
L517.126 189.216
L517.795 229.392
L518.465 235.872
L519.134 200.88
L519.804 209.952
L520.474 222.912
L521.143 226.8
L521.813 216.432
L522.482 212.544
L523.152 195.696
L523.822 217.728
L524.491 255.312
L525.161 256.608
L525.83 228.096
L526.5 226.8
L527.17 229.392
L527.839 224.208
L528.509 226.8
L529.178 237.168
L529.848 260.496
L530.518 224.208
L531.187 230.688
L532.526 251.424
L533.196 255.312
L533.866 234.576
L534.535 219.024
L535.205 224.208
L535.874 228.096
L536.544 238.464
L537.214 209.952
L537.883 202.176
L538.553 206.064
L539.892 241.056
L540.562 229.392
L541.231 211.248
L541.901 200.88
L542.57 216.432
L543.24 211.248
L543.91 195.696
L544.579 208.656
L545.249 219.024
L545.918 195.696
L546.588 191.808
L547.258 209.952
L547.927 212.544
L548.597 198.288
L549.266 191.808
L549.936 224.208
L550.606 226.8
L551.275 247.536
L551.945 234.576
L552.614 212.544
L553.284 231.984
L553.954 247.536
L554.623 233.28
L555.293 209.952
L555.962 228.096
L556.632 171.072
L557.302 187.92
L557.971 211.248
L558.641 180.144
L559.31 193.104
L559.98 237.168
L560.65 212.544
L561.319 216.432
L561.989 211.248
L562.658 233.28
L563.328 250.128
L563.998 229.392
L564.667 234.576
L565.337 257.904
L566.006 252.72
L566.676 242.352
L567.346 219.024
L568.015 242.352
L568.685 222.912
L569.354 237.168
L570.024 228.096
L570.694 239.76
L571.363 247.536
L572.033 235.872
L572.702 243.648
L573.372 243.648
L574.042 204.768
L574.711 220.32
L575.381 220.32
L576.05 217.728
L576.72 220.32
L577.39 209.952
L578.059 217.728
L578.729 222.912
L579.398 216.432
L580.068 225.504
L580.738 248.832
L581.407 278.64
L582.077 252.72
L582.746 259.2
L583.416 252.72
L584.755 209.952
L585.425 195.696
L586.094 212.544
L586.764 246.24
L587.434 241.056
L588.103 239.76
L588.773 237.168
L589.442 226.8
L590.112 229.392
L590.782 217.728
L591.451 228.096
L592.121 261.792
L592.79 265.68
L593.46 270.864
L594.13 268.272
L594.799 264.384
L595.469 257.904
L596.138 268.272
L596.808 243.648
L597.478 265.68
L598.147 250.128
L598.817 230.688
L599.486 239.76
L600.156 256.608
L600.826 263.088
L601.495 235.872
L602.165 215.136
L602.834 255.312
L603.504 264.384
L604.174 286.416
L605.513 273.456
L606.182 278.64
L606.852 281.232
L607.522 282.528
L608.191 254.016
L608.861 264.384
L609.53 257.904
L610.2 250.128
L610.87 257.904
L611.539 255.312
L612.209 278.64
L612.878 266.976
L613.548 260.496
L614.218 246.24
L614.887 241.056
L615.557 251.424
L616.226 270.864
L616.896 265.68
L617.566 243.648
L618.235 231.984
L618.905 254.016
L619.574 255.312
L620.244 281.232
L620.914 274.752
L621.583 282.528
L622.253 295.488
L622.922 287.712
L623.592 290.304
L624.262 269.568
L624.931 256.608
L625.601 220.32
L626.27 229.392
L626.94 222.912
L627.61 260.496
L628.279 250.128
L628.949 231.984
L629.618 230.688
L630.288 234.576
L630.958 241.056
L631.627 241.056
L632.297 233.28
L632.966 276.048
L633.636 237.168
L634.306 248.832
L634.975 230.688
L635.645 259.2
L636.314 238.464
L636.984 252.72
L637.654 239.76
L638.323 252.72
L638.993 244.944
L639.662 222.912
L640.332 207.36
L641.671 186.624
L642.341 196.992
L643.01 222.912
L644.35 261.792
L645.019 243.648
L645.689 261.792
L646.358 244.944
L647.698 273.456
L648.367 235.872
L649.037 251.424
L649.706 208.656
L650.376 266.976
L651.046 243.648
L651.715 244.944
L652.385 216.432
L653.054 228.096
L654.394 230.688
L655.733 277.344
L656.402 270.864
L657.072 285.12
L657.742 316.224
L658.411 299.376
L659.081 309.744
L659.75 281.232
L660.42 305.856
L661.09 265.68
L661.759 242.352
L662.429 242.352
L663.098 251.424
L663.768 251.424
L664.438 277.344
L665.107 273.456
L665.777 250.128
L666.446 279.936
L667.116 244.944
L667.786 251.424
L668.455 268.272
L669.125 260.496
L669.794 285.12
L670.464 264.384
L671.134 277.344
L671.803 273.456
L672.473 259.2
L673.812 235.872
L674.482 242.352
L675.151 259.2
L675.821 252.72
L676.49 247.536
L677.83 268.272
L678.499 273.456
L679.169 268.272
L679.838 282.528
L680.508 277.344
L681.178 295.488
L681.847 292.896
L682.517 312.336
L683.186 296.784
L683.856 303.264
L684.526 276.048
L685.195 279.936
L685.865 273.456
L686.534 290.304
L687.204 290.304
L687.874 301.968
L688.543 266.976
L689.213 248.832
L689.882 247.536
L690.552 263.088
L691.222 287.712
L691.891 298.08
L692.561 294.192
L693.23 314.928
L693.9 301.968
L694.57 264.384
L695.239 256.608
L695.909 255.312
L696.578 251.424
L697.248 255.312
L697.918 282.528
L698.587 277.344
L699.257 283.824
L699.926 251.424
L700.596 259.2
L701.266 270.864
L701.935 274.752
L702.605 289.008
L703.274 283.824
L703.944 277.344
L704.614 260.496
L705.283 268.272
L705.953 277.344
L706.622 274.752
L707.292 268.272
L707.962 264.384
L708.631 256.608
L709.301 273.456
L709.97 244.944
L710.64 276.048
L711.31 266.976
L711.979 273.456
L712.649 266.976
L713.318 254.016
L713.988 273.456
L714.658 281.232
L715.327 278.64
L715.997 286.416
L716.666 292.896
L718.006 257.904
L718.675 257.904
L719.345 304.56
L720.014 274.752
L720.684 239.76
L722.023 255.312
L722.693 247.536
L723.362 261.792
L724.032 263.088
L724.702 291.6
L725.371 279.936
L726.041 270.864
L726.71 272.16
L727.38 276.048
L728.05 282.528
L728.719 287.712
L729.389 273.456
L730.058 278.64
L730.728 277.344
L731.398 286.416
L732.067 287.712
L732.737 283.824
L733.406 251.424
L734.076 283.824
L734.746 268.272
L735.415 248.832
L736.085 251.424
L736.754 269.568
L737.424 276.048
L738.094 256.608
L738.763 250.128
L739.433 261.792
L740.102 257.904
L740.772 279.936
L741.442 283.824
L742.111 273.456
L742.781 274.752
L743.45 278.64
L744.12 278.64
L744.79 286.416
L745.459 285.12
L746.129 294.192
L746.798 276.048
L747.468 285.12
L748.138 255.312
L748.807 270.864
L749.477 304.56
L750.146 303.264
L750.816 279.936
L751.486 276.048
L752.155 276.048
L752.825 272.16
L754.164 305.856
L754.834 317.52
L755.503 309.744
L756.173 333.072
L756.842 272.16
L758.182 261.792
L758.851 269.568
L759.521 278.64
L760.19 274.752
L760.86 299.376
L761.53 282.528
L762.869 307.152
L763.538 277.344
L764.208 295.488
L764.878 282.528
L765.547 290.304
L766.217 276.048
L766.886 268.272
L767.556 254.016
L768.226 265.68
L768.895 291.6
L769.565 274.752
L770.234 291.6
L770.904 268.272
L771.574 274.752
L772.243 303.264
L772.913 318.816
L773.582 287.712
L774.252 276.048
L774.922 298.08
L775.591 305.856
L776.261 322.704
L776.93 318.816
L777.6 318.816
L777.6 318.816" style="fill:none;stroke:#008000;stroke-linecap:square;"/>
   </g>
   <g id="line2d_3">
    <path clip-path="url(#p7ceb695115)" d="
M108 583.2
L139.471 583.2
L140.141 581.904
L142.819 581.904
L143.489 583.2
L144.158 581.904
L144.828 583.2
L145.498 581.904
L146.167 581.904
L146.837 583.2
L147.506 581.904
L148.176 581.904
L148.846 583.2
L149.515 583.2
L150.185 581.904
L150.854 583.2
L152.194 580.608
L152.863 581.904
L154.202 576.72
L154.872 579.312
L155.542 580.608
L156.211 583.2
L156.881 578.016
L157.55 581.904
L158.22 583.2
L158.89 580.608
L159.559 581.904
L160.229 581.904
L160.898 583.2
L161.568 583.2
L162.907 578.016
L164.246 578.016
L164.916 581.904
L165.586 579.312
L166.255 580.608
L166.925 576.72
L167.594 579.312
L168.264 580.608
L168.934 575.424
L169.603 580.608
L170.942 578.016
L172.951 581.904
L173.621 579.312
L174.29 581.904
L176.969 571.536
L177.638 576.72
L178.308 576.72
L178.978 578.016
L179.647 580.608
L180.317 572.832
L180.986 578.016
L181.656 580.608
L182.326 574.128
L182.995 576.72
L183.665 580.608
L184.334 578.016
L185.674 580.608
L186.343 578.016
L187.013 579.312
L187.682 579.312
L188.352 576.72
L189.022 576.72
L189.691 574.128
L190.361 580.608
L191.03 580.608
L191.7 578.016
L192.37 576.72
L193.039 578.016
L193.709 576.72
L194.378 574.128
L195.048 572.832
L195.718 578.016
L196.387 576.72
L197.057 578.016
L197.726 583.2
L198.396 579.312
L199.066 581.904
L199.735 580.608
L200.405 581.904
L201.074 576.72
L203.083 572.832
L203.753 572.832
L204.422 578.016
L205.092 574.128
L205.762 578.016
L206.431 575.424
L207.101 571.536
L207.77 571.536
L208.44 574.128
L209.11 574.128
L209.779 575.424
L210.449 574.128
L211.118 574.128
L211.788 576.72
L212.458 575.424
L213.127 579.312
L213.797 576.72
L215.136 576.72
L215.806 575.424
L217.145 578.016
L217.814 578.016
L218.484 576.72
L219.154 570.24
L219.823 572.832
L220.493 570.24
L221.162 572.832
L221.832 574.128
L222.502 565.056
L223.171 572.832
L223.841 575.424
L224.51 574.128
L225.18 570.24
L225.85 570.24
L226.519 575.424
L227.189 567.648
L227.858 575.424
L228.528 576.72
L229.198 575.424
L229.867 571.536
L230.537 576.72
L231.206 571.536
L232.546 563.76
L233.215 574.128
L233.885 572.832
L234.554 574.128
L235.224 574.128
L235.894 578.016
L236.563 574.128
L237.233 571.536
L237.902 576.72
L238.572 567.648
L239.911 567.648
L240.581 572.832
L241.25 571.536
L242.59 571.536
L243.929 576.72
L244.598 574.128
L245.268 578.016
L245.938 580.608
L246.607 578.016
L247.277 581.904
L248.616 579.312
L249.286 579.312
L249.955 574.128
L250.625 578.016
L251.294 579.312
L251.964 576.72
L252.634 572.832
L253.303 571.536
L253.973 578.016
L254.642 578.016
L255.312 580.608
L255.982 575.424
L256.651 574.128
L257.321 576.72
L257.99 578.016
L258.66 581.904
L259.33 576.72
L260.669 579.312
L261.338 581.904
L262.008 579.312
L262.678 579.312
L263.347 578.016
L264.017 579.312
L264.686 575.424
L265.356 578.016
L266.026 576.72
L266.695 579.312
L267.365 576.72
L268.034 578.016
L268.704 576.72
L269.374 576.72
L270.043 568.944
L270.713 571.536
L271.382 579.312
L272.052 578.016
L272.722 575.424
L273.391 578.016
L274.061 571.536
L274.73 575.424
L275.4 578.016
L276.07 576.72
L276.739 572.832
L277.409 574.128
L278.078 580.608
L278.748 572.832
L279.418 574.128
L280.087 579.312
L280.757 575.424
L281.426 575.424
L282.096 570.24
L283.435 567.648
L284.105 570.24
L284.774 571.536
L285.444 575.424
L286.114 572.832
L287.453 580.608
L288.122 578.016
L288.792 581.904
L289.462 576.72
L290.131 579.312
L290.801 578.016
L291.47 578.016
L292.14 575.424
L292.81 578.016
L293.479 576.72
L294.149 580.608
L294.818 578.016
L295.488 576.72
L296.158 576.72
L296.827 578.016
L297.497 572.832
L298.166 579.312
L298.836 583.2
L299.506 576.72
L300.845 576.72
L302.184 574.128
L302.854 574.128
L303.523 576.72
L304.193 581.904
L304.862 579.312
L305.532 575.424
L306.202 576.72
L306.871 575.424
L307.541 575.424
L308.21 581.904
L308.88 578.016
L309.55 575.424
L310.219 579.312
L310.889 579.312
L311.558 578.016
L312.228 581.904
L312.898 575.424
L313.567 578.016
L314.237 579.312
L314.906 578.016
L315.576 578.016
L316.246 575.424
L316.915 574.128
L317.585 579.312
L318.254 579.312
L318.924 576.72
L319.594 576.72
L320.263 578.016
L320.933 578.016
L321.602 568.944
L322.272 572.832
L323.611 572.832
L324.281 576.72
L324.95 572.832
L325.62 575.424
L326.29 575.424
L326.959 580.608
L327.629 575.424
L328.298 576.72
L328.968 576.72
L329.638 581.904
L330.307 576.72
L331.646 576.72
L333.655 580.608
L334.994 580.608
L335.664 581.904
L337.003 576.72
L337.673 575.424
L339.012 580.608
L339.682 575.424
L340.351 574.128
L341.021 575.424
L341.69 571.536
L342.36 572.832
L343.03 572.832
L343.699 568.944
L344.369 574.128
L345.038 571.536
L345.708 570.24
L346.378 567.648
L347.047 574.128
L347.717 578.016
L349.056 580.608
L350.395 575.424
L351.065 578.016
L351.734 574.128
L352.404 574.128
L353.074 579.312
L353.743 578.016
L354.413 578.016
L355.752 575.424
L356.422 579.312
L357.091 579.312
L357.761 574.128
L358.43 576.72
L359.1 580.608
L359.77 576.72
L360.439 576.72
L361.109 578.016
L361.778 578.016
L362.448 580.608
L363.118 576.72
L363.787 578.016
L364.457 574.128
L365.126 579.312
L365.796 580.608
L366.466 575.424
L368.474 583.2
L369.144 580.608
L369.814 580.608
L370.483 578.016
L371.153 578.016
L371.822 575.424
L372.492 580.608
L373.162 576.72
L373.831 578.016
L374.501 575.424
L375.17 579.312
L376.51 576.72
L377.179 578.016
L377.849 578.016
L378.518 575.424
L379.188 579.312
L379.858 579.312
L380.527 575.424
L381.866 575.424
L382.536 578.016
L383.206 572.832
L383.875 576.72
L384.545 574.128
L385.214 575.424
L385.884 581.904
L386.554 583.2
L387.223 580.608
L387.893 580.608
L388.562 581.904
L389.232 579.312
L389.902 580.608
L390.571 579.312
L391.241 580.608
L391.91 576.72
L392.58 581.904
L393.25 578.016
L393.919 575.424
L394.589 579.312
L395.258 579.312
L395.928 581.904
L396.598 581.904
L397.267 576.72
L397.937 580.608
L398.606 579.312
L399.276 579.312
L399.946 581.904
L400.615 579.312
L401.285 581.904
L401.954 578.016
L402.624 575.424
L403.294 578.016
L404.633 578.016
L405.302 570.24
L405.972 575.424
L407.311 572.832
L407.981 572.832
L408.65 575.424
L409.32 574.128
L409.99 574.128
L411.329 576.72
L411.998 581.904
L413.338 574.128
L414.007 566.352
L414.677 576.72
L415.346 576.72
L416.016 575.424
L416.686 579.312
L417.355 575.424
L418.025 578.016
L418.694 576.72
L419.364 578.016
L420.703 578.016
L421.373 571.536
L422.042 571.536
L422.712 576.72
L424.051 576.72
L424.721 580.608
L425.39 574.128
L426.06 579.312
L426.73 578.016
L427.399 574.128
L428.069 572.832
L428.738 572.832
L429.408 578.016
L430.078 578.016
L430.747 579.312
L431.417 576.72
L432.086 579.312
L432.756 575.424
L433.426 576.72
L434.095 579.312
L434.765 576.72
L435.434 576.72
L436.104 574.128
L436.774 579.312
L437.443 575.424
L438.113 578.016
L438.782 581.904
L439.452 578.016
L440.122 579.312
L440.791 579.312
L441.461 580.608
L442.8 580.608
L444.139 583.2
L444.809 578.016
L445.478 581.904
L446.148 576.72
L446.818 579.312
L447.487 570.24
L448.157 574.128
L448.826 555.984
L449.496 543.024
L450.166 535.248
L450.835 522.288
L451.505 519.696
L452.174 515.808
L452.844 523.584
L453.514 492.48
L454.183 470.448
L454.853 505.44
L455.522 476.928
L456.192 483.408
L456.862 497.664
L458.201 487.296
L458.87 497.664
L460.21 473.04
L460.879 465.264
L461.549 465.264
L462.218 457.488
L462.888 493.776
L463.558 480.816
L464.227 505.44
L464.897 491.184
L465.566 462.672
L466.236 484.704
L466.906 473.04
L467.575 473.04
L468.245 498.96
L468.914 451.008
L469.584 488.592
L470.254 479.52
L470.923 482.112
L471.593 482.112
L472.262 475.632
L472.932 488.592
L473.602 461.376
L474.271 478.224
L474.941 483.408
L475.61 480.816
L476.28 479.52
L476.95 504.144
L477.619 465.264
L478.289 488.592
L478.958 492.48
L479.628 484.704
L480.298 484.704
L480.967 479.52
L481.637 469.152
L482.306 474.336
L482.976 480.816
L483.646 480.816
L484.315 454.896
L484.985 473.04
L485.654 471.744
L486.324 480.816
L486.994 482.112
L487.663 447.12
L488.333 470.448
L489.002 504.144
L489.672 483.408
L490.342 500.256
L491.011 462.672
L491.681 462.672
L492.35 448.416
L493.02 483.408
L493.69 492.48
L494.359 498.96
L495.029 482.112
L495.698 471.744
L496.368 471.744
L497.038 476.928
L497.707 491.184
L498.377 479.52
L499.046 457.488
L499.716 475.632
L500.386 458.784
L501.055 474.336
L501.725 478.224
L502.394 461.376
L503.064 454.896
L503.734 453.6
L504.403 482.112
L505.073 478.224
L505.742 492.48
L506.412 463.968
L507.082 478.224
L507.751 496.368
L508.421 480.816
L509.09 461.376
L509.76 460.08
L510.43 492.48
L511.099 509.328
L511.769 509.328
L513.108 479.52
L514.447 504.144
L515.117 484.704
L515.786 492.48
L516.456 484.704
L517.126 502.848
L517.795 504.144
L518.465 474.336
L519.134 458.784
L519.804 484.704
L520.474 484.704
L521.813 515.808
L522.482 514.512
L523.152 495.072
L523.822 501.552
L524.491 492.48
L525.161 497.664
L525.83 487.296
L526.5 486
L527.17 488.592
L527.839 496.368
L528.509 515.808
L529.178 520.992
L529.848 479.52
L530.518 508.032
L531.187 478.224
L531.857 498.96
L532.526 493.776
L533.196 505.44
L533.866 492.48
L534.535 508.032
L535.205 496.368
L535.874 510.624
L536.544 493.776
L537.214 493.776
L537.883 482.112
L538.553 478.224
L539.222 493.776
L539.892 487.296
L540.562 462.672
L541.231 496.368
L541.901 479.52
L542.57 508.032
L543.24 501.552
L543.91 509.328
L544.579 474.336
L545.249 495.072
L545.918 497.664
L546.588 471.744
L547.258 482.112
L547.927 474.336
L548.597 505.44
L549.266 506.736
L549.936 474.336
L550.606 479.52
L551.275 479.52
L551.945 487.296
L552.614 493.776
L553.284 480.816
L553.954 482.112
L554.623 504.144
L555.293 480.816
L555.962 452.304
L556.632 498.96
L557.302 501.552
L557.971 469.152
L558.641 496.368
L559.31 501.552
L559.98 480.816
L560.65 506.736
L561.319 502.848
L561.989 496.368
L562.658 467.856
L563.328 482.112
L563.998 479.52
L564.667 504.144
L565.337 488.592
L566.006 467.856
L566.676 501.552
L567.346 506.736
L568.015 486
L568.685 508.032
L569.354 479.52
L570.024 502.848
L570.694 493.776
L571.363 475.632
L572.033 497.664
L572.702 489.888
L573.372 478.224
L574.042 496.368
L574.711 483.408
L575.381 491.184
L576.05 478.224
L576.72 475.632
L577.39 495.072
L578.059 489.888
L578.729 480.816
L579.398 489.888
L580.068 505.44
L580.738 514.512
L581.407 489.888
L582.077 497.664
L582.746 501.552
L583.416 501.552
L584.086 497.664
L584.755 500.256
L585.425 497.664
L586.094 506.736
L586.764 524.88
L587.434 497.664
L588.103 504.144
L588.773 480.816
L589.442 491.184
L590.112 505.44
L590.782 509.328
L591.451 523.584
L592.121 517.104
L592.79 518.4
L593.46 513.216
L594.13 514.512
L594.799 517.104
L595.469 514.512
L596.138 515.808
L596.808 519.696
L597.478 476.928
L598.147 502.848
L598.817 504.144
L600.156 514.512
L600.826 515.808
L601.495 502.848
L602.165 514.512
L602.834 496.368
L603.504 527.472
L604.174 511.92
L604.843 475.632
L606.182 518.4
L606.852 510.624
L607.522 510.624
L608.191 518.4
L608.861 517.104
L609.53 476.928
L610.2 497.664
L610.87 526.176
L611.539 501.552
L612.209 491.184
L612.878 511.92
L613.548 500.256
L614.218 498.96
L614.887 511.92
L615.557 492.48
L616.226 496.368
L616.896 489.888
L618.235 513.216
L618.905 509.328
L619.574 514.512
L620.244 517.104
L620.914 508.032
L621.583 502.848
L622.253 498.96
L622.922 501.552
L623.592 508.032
L624.262 497.664
L624.931 505.44
L625.601 520.992
L626.27 511.92
L626.94 517.104
L627.61 514.512
L628.279 508.032
L628.949 508.032
L629.618 493.776
L630.958 509.328
L631.627 501.552
L632.297 524.88
L632.966 478.224
L633.636 510.624
L634.306 510.624
L634.975 497.664
L635.645 506.736
L636.314 511.92
L636.984 508.032
L637.654 498.96
L638.323 496.368
L638.993 484.704
L639.662 470.448
L641.002 501.552
L641.671 484.704
L642.341 497.664
L643.01 505.44
L643.68 498.96
L644.35 469.152
L645.019 509.328
L645.689 502.848
L647.028 508.032
L647.698 478.224
L648.367 496.368
L649.037 484.704
L649.706 504.144
L650.376 497.664
L651.046 508.032
L651.715 491.184
L652.385 504.144
L653.054 522.288
L653.724 519.696
L654.394 509.328
L655.063 505.44
L655.733 478.224
L656.402 487.296
L657.072 480.816
L657.742 508.032
L658.411 522.288
L659.081 493.776
L659.75 493.776
L660.42 496.368
L661.09 508.032
L661.759 500.256
L662.429 506.736
L663.768 522.288
L665.107 495.072
L665.777 515.808
L666.446 473.04
L667.116 506.736
L667.786 498.96
L668.455 498.96
L669.125 518.4
L669.794 491.184
L670.464 506.736
L671.134 504.144
L671.803 483.408
L672.473 496.368
L673.142 495.072
L673.812 501.552
L674.482 496.368
L675.151 488.592
L675.821 488.592
L676.49 522.288
L677.83 498.96
L678.499 495.072
L679.169 508.032
L679.838 502.848
L680.508 504.144
L681.178 504.144
L681.847 500.256
L682.517 480.816
L683.186 497.664
L683.856 487.296
L684.526 504.144
L685.195 495.072
L685.865 500.256
L686.534 496.368
L687.204 520.992
L687.874 513.216
L688.543 497.664
L689.213 506.736
L689.882 504.144
L690.552 493.776
L691.222 504.144
L691.891 502.848
L692.561 522.288
L693.23 483.408
L693.9 510.624
L694.57 504.144
L695.239 498.96
L695.909 491.184
L696.578 500.256
L697.248 537.84
L697.918 505.44
L698.587 500.256
L699.257 486
L699.926 514.512
L700.596 524.88
L701.266 510.624
L701.935 519.696
L702.605 515.808
L703.274 476.928
L703.944 511.92
L704.614 509.328
L705.283 511.92
L705.953 497.664
L706.622 465.264
L707.292 488.592
L707.962 504.144
L708.631 501.552
L709.301 491.184
L709.97 509.328
L710.64 518.4
L711.31 504.144
L711.979 515.808
L712.649 519.696
L713.318 504.144
L713.988 522.288
L714.658 495.072
L715.327 520.992
L715.997 501.552
L716.666 493.776
L717.336 526.176
L718.006 508.032
L718.675 518.4
L719.345 496.368
L720.014 502.848
L720.684 497.664
L721.354 502.848
L722.023 495.072
L722.693 511.92
L723.362 518.4
L724.032 508.032
L724.702 505.44
L725.371 515.808
L726.041 511.92
L726.71 506.736
L727.38 514.512
L728.05 509.328
L728.719 518.4
L729.389 470.448
L730.058 524.88
L730.728 540.432
L731.398 511.92
L732.067 508.032
L732.737 506.736
L733.406 513.216
L734.076 505.44
L734.746 501.552
L735.415 514.512
L736.085 505.44
L736.754 517.104
L737.424 504.144
L738.094 508.032
L738.763 526.176
L739.433 501.552
L740.102 511.92
L740.772 511.92
L741.442 515.808
L742.111 506.736
L742.781 518.4
L743.45 506.736
L744.12 522.288
L744.79 532.656
L745.459 504.144
L746.129 508.032
L746.798 492.48
L747.468 493.776
L748.807 523.584
L749.477 502.848
L750.146 496.368
L750.816 501.552
L751.486 518.4
L752.155 515.808
L752.825 501.552
L753.494 508.032
L754.164 506.736
L754.834 510.624
L755.503 513.216
L756.173 488.592
L756.842 511.92
L757.512 487.296
L758.182 518.4
L758.851 484.704
L759.521 508.032
L760.19 515.808
L760.86 522.288
L762.199 517.104
L762.869 528.768
L763.538 520.992
L764.208 524.88
L764.878 517.104
L765.547 497.664
L766.217 492.48
L766.886 502.848
L767.556 531.36
L768.226 514.512
L768.895 508.032
L769.565 518.4
L770.234 522.288
L770.904 482.112
L772.243 528.768
L772.913 510.624
L773.582 508.032
L774.252 535.248
L774.922 535.248
L775.591 533.952
L776.261 514.512
L776.93 522.288
L777.6 514.512
L777.6 514.512" style="fill:none;stroke:#0000ff;stroke-linecap:square;"/>
   </g>
   <g id="patch_3">
    <path d="
M108 64.8
L777.6 64.8" style="fill:none;stroke:#000000;stroke-linecap:square;stroke-linejoin:miter;"/>
   </g>
   <g id="patch_4">
    <path d="
M108 583.2
L777.6 583.2" style="fill:none;stroke:#000000;stroke-linecap:square;stroke-linejoin:miter;"/>
   </g>
   <g id="patch_5">
    <path d="
M108 583.2
L108 64.8" style="fill:none;stroke:#000000;stroke-linecap:square;stroke-linejoin:miter;"/>
   </g>
   <g id="patch_6">
    <path d="
M777.6 583.2
L777.6 64.8" style="fill:none;stroke:#000000;stroke-linecap:square;stroke-linejoin:miter;"/>
   </g>
   <g id="matplotlib.axis_1">
    <g id="xtick_1">
     <g id="line2d_4">
      <defs>
       <path d="
M0 0
L0 -4" id="mc7db9fdffb" style="stroke:#000000;stroke-width:0.5;"/>
      </defs>
      <g>
       <use style="stroke:#000000;stroke-width:0.5;" x="108.0" xlink:href="#mc7db9fdffb" y="583.2"/>
      </g>
     </g>
     <g id="line2d_5">
      <defs>
       <path d="
M0 0
L0 4" id="m5a7d422ac3" style="stroke:#000000;stroke-width:0.5;"/>
      </defs>
      <g>
       <use style="stroke:#000000;stroke-width:0.5;" x="108.0" xlink:href="#m5a7d422ac3" y="64.8"/>
      </g>
     </g>
     <g id="text_1">
      <!-- 0 -->
      <defs>
       <path d="
M31.7812 66.4062
Q24.1719 66.4062 20.3281 58.9062
Q16.5 51.4219 16.5 36.375
Q16.5 21.3906 20.3281 13.8906
Q24.1719 6.39062 31.7812 6.39062
Q39.4531 6.39062 43.2812 13.8906
Q47.125 21.3906 47.125 36.375
Q47.125 51.4219 43.2812 58.9062
Q39.4531 66.4062 31.7812 66.4062
M31.7812 74.2188
Q44.0469 74.2188 50.5156 64.5156
Q56.9844 54.8281 56.9844 36.375
Q56.9844 17.9688 50.5156 8.26562
Q44.0469 -1.42188 31.7812 -1.42188
Q19.5312 -1.42188 13.0625 8.26562
Q6.59375 17.9688 6.59375 36.375
Q6.59375 54.8281 13.0625 64.5156
Q19.5312 74.2188 31.7812 74.2188" id="BitstreamVeraSans-Roman-30"/>
      </defs>
      <g transform="translate(104.9765625 596.318125)scale(0.12 -0.12)">
       <use xlink:href="#BitstreamVeraSans-Roman-30"/>
      </g>
     </g>
    </g>
    <g id="xtick_2">
     <g id="line2d_6">
      <g>
       <use style="stroke:#000000;stroke-width:0.5;" x="275.4" xlink:href="#mc7db9fdffb" y="583.2"/>
      </g>
     </g>
     <g id="line2d_7">
      <g>
       <use style="stroke:#000000;stroke-width:0.5;" x="275.4" xlink:href="#m5a7d422ac3" y="64.8"/>
      </g>
     </g>
     <g id="text_2">
      <!-- 50000 -->
      <defs>
       <path d="
M10.7969 72.9062
L49.5156 72.9062
L49.5156 64.5938
L19.8281 64.5938
L19.8281 46.7344
Q21.9688 47.4688 24.1094 47.8281
Q26.2656 48.1875 28.4219 48.1875
Q40.625 48.1875 47.75 41.5
Q54.8906 34.8125 54.8906 23.3906
Q54.8906 11.625 47.5625 5.09375
Q40.2344 -1.42188 26.9062 -1.42188
Q22.3125 -1.42188 17.5469 -0.640625
Q12.7969 0.140625 7.71875 1.70312
L7.71875 11.625
Q12.1094 9.23438 16.7969 8.0625
Q21.4844 6.89062 26.7031 6.89062
Q35.1562 6.89062 40.0781 11.3281
Q45.0156 15.7656 45.0156 23.3906
Q45.0156 31 40.0781 35.4375
Q35.1562 39.8906 26.7031 39.8906
Q22.75 39.8906 18.8125 39.0156
Q14.8906 38.1406 10.7969 36.2812
z
" id="BitstreamVeraSans-Roman-35"/>
      </defs>
      <g transform="translate(257.1740625 596.318125)scale(0.12 -0.12)">
       <use xlink:href="#BitstreamVeraSans-Roman-35"/>
       <use x="63.623046875" xlink:href="#BitstreamVeraSans-Roman-30"/>
       <use x="127.24609375" xlink:href="#BitstreamVeraSans-Roman-30"/>
       <use x="190.869140625" xlink:href="#BitstreamVeraSans-Roman-30"/>
       <use x="254.4921875" xlink:href="#BitstreamVeraSans-Roman-30"/>
      </g>
     </g>
    </g>
    <g id="xtick_3">
     <g id="line2d_8">
      <g>
       <use style="stroke:#000000;stroke-width:0.5;" x="442.8" xlink:href="#mc7db9fdffb" y="583.2"/>
      </g>
     </g>
     <g id="line2d_9">
      <g>
       <use style="stroke:#000000;stroke-width:0.5;" x="442.8" xlink:href="#m5a7d422ac3" y="64.8"/>
      </g>
     </g>
     <g id="text_3">
      <!-- 100000 -->
      <defs>
       <path d="
M12.4062 8.29688
L28.5156 8.29688
L28.5156 63.9219
L10.9844 60.4062
L10.9844 69.3906
L28.4219 72.9062
L38.2812 72.9062
L38.2812 8.29688
L54.3906 8.29688
L54.3906 0
L12.4062 0
z
" id="BitstreamVeraSans-Roman-31"/>
      </defs>
      <g transform="translate(420.9525 596.318125)scale(0.12 -0.12)">
       <use xlink:href="#BitstreamVeraSans-Roman-31"/>
       <use x="63.623046875" xlink:href="#BitstreamVeraSans-Roman-30"/>
       <use x="127.24609375" xlink:href="#BitstreamVeraSans-Roman-30"/>
       <use x="190.869140625" xlink:href="#BitstreamVeraSans-Roman-30"/>
       <use x="254.4921875" xlink:href="#BitstreamVeraSans-Roman-30"/>
       <use x="318.115234375" xlink:href="#BitstreamVeraSans-Roman-30"/>
      </g>
     </g>
    </g>
    <g id="xtick_4">
     <g id="line2d_10">
      <g>
       <use style="stroke:#000000;stroke-width:0.5;" x="610.2" xlink:href="#mc7db9fdffb" y="583.2"/>
      </g>
     </g>
     <g id="line2d_11">
      <g>
       <use style="stroke:#000000;stroke-width:0.5;" x="610.2" xlink:href="#m5a7d422ac3" y="64.8"/>
      </g>
     </g>
     <g id="text_4">
      <!-- 150000 -->
      <g transform="translate(588.3525 596.318125)scale(0.12 -0.12)">
       <use xlink:href="#BitstreamVeraSans-Roman-31"/>
       <use x="63.623046875" xlink:href="#BitstreamVeraSans-Roman-35"/>
       <use x="127.24609375" xlink:href="#BitstreamVeraSans-Roman-30"/>
       <use x="190.869140625" xlink:href="#BitstreamVeraSans-Roman-30"/>
       <use x="254.4921875" xlink:href="#BitstreamVeraSans-Roman-30"/>
       <use x="318.115234375" xlink:href="#BitstreamVeraSans-Roman-30"/>
      </g>
     </g>
    </g>
    <g id="xtick_5">
     <g id="line2d_12">
      <g>
       <use style="stroke:#000000;stroke-width:0.5;" x="777.6" xlink:href="#mc7db9fdffb" y="583.2"/>
      </g>
     </g>
     <g id="line2d_13">
      <g>
       <use style="stroke:#000000;stroke-width:0.5;" x="777.6" xlink:href="#m5a7d422ac3" y="64.8"/>
      </g>
     </g>
     <g id="text_5">
      <!-- 200000 -->
      <defs>
       <path d="
M19.1875 8.29688
L53.6094 8.29688
L53.6094 0
L7.32812 0
L7.32812 8.29688
Q12.9375 14.1094 22.625 23.8906
Q32.3281 33.6875 34.8125 36.5312
Q39.5469 41.8438 41.4219 45.5312
Q43.3125 49.2188 43.3125 52.7812
Q43.3125 58.5938 39.2344 62.25
Q35.1562 65.9219 28.6094 65.9219
Q23.9688 65.9219 18.8125 64.3125
Q13.6719 62.7031 7.8125 59.4219
L7.8125 69.3906
Q13.7656 71.7812 18.9375 73
Q24.125 74.2188 28.4219 74.2188
Q39.75 74.2188 46.4844 68.5469
Q53.2188 62.8906 53.2188 53.4219
Q53.2188 48.9219 51.5312 44.8906
Q49.8594 40.875 45.4062 35.4062
Q44.1875 33.9844 37.6406 27.2188
Q31.1094 20.4531 19.1875 8.29688" id="BitstreamVeraSans-Roman-32"/>
      </defs>
      <g transform="translate(755.533125 596.318125)scale(0.12 -0.12)">
       <use xlink:href="#BitstreamVeraSans-Roman-32"/>
       <use x="63.623046875" xlink:href="#BitstreamVeraSans-Roman-30"/>
       <use x="127.24609375" xlink:href="#BitstreamVeraSans-Roman-30"/>
       <use x="190.869140625" xlink:href="#BitstreamVeraSans-Roman-30"/>
       <use x="254.4921875" xlink:href="#BitstreamVeraSans-Roman-30"/>
       <use x="318.115234375" xlink:href="#BitstreamVeraSans-Roman-30"/>
      </g>
     </g>
    </g>
    <g id="text_6">
     <!-- t / ms -->
     <defs>
      <path d="
M52 44.1875
Q55.375 50.25 60.0625 53.125
Q64.75 56 71.0938 56
Q79.6406 56 84.2812 50.0156
Q88.9219 44.0469 88.9219 33.0156
L88.9219 0
L79.8906 0
L79.8906 32.7188
Q79.8906 40.5781 77.0938 44.375
Q74.3125 48.1875 68.6094 48.1875
Q61.625 48.1875 57.5625 43.5469
Q53.5156 38.9219 53.5156 30.9062
L53.5156 0
L44.4844 0
L44.4844 32.7188
Q44.4844 40.625 41.7031 44.4062
Q38.9219 48.1875 33.1094 48.1875
Q26.2188 48.1875 22.1562 43.5312
Q18.1094 38.875 18.1094 30.9062
L18.1094 0
L9.07812 0
L9.07812 54.6875
L18.1094 54.6875
L18.1094 46.1875
Q21.1875 51.2188 25.4844 53.6094
Q29.7812 56 35.6875 56
Q41.6562 56 45.8281 52.9688
Q50 49.9531 52 44.1875" id="BitstreamVeraSans-Roman-6d"/>
      <path d="
M44.2812 53.0781
L44.2812 44.5781
Q40.4844 46.5312 36.375 47.5
Q32.2812 48.4844 27.875 48.4844
Q21.1875 48.4844 17.8438 46.4375
Q14.5 44.3906 14.5 40.2812
Q14.5 37.1562 16.8906 35.375
Q19.2812 33.5938 26.5156 31.9844
L29.5938 31.2969
Q39.1562 29.25 43.1875 25.5156
Q47.2188 21.7812 47.2188 15.0938
Q47.2188 7.46875 41.1875 3.01562
Q35.1562 -1.42188 24.6094 -1.42188
Q20.2188 -1.42188 15.4531 -0.5625
Q10.6875 0.296875 5.42188 2
L5.42188 11.2812
Q10.4062 8.6875 15.2344 7.39062
Q20.0625 6.10938 24.8125 6.10938
Q31.1562 6.10938 34.5625 8.28125
Q37.9844 10.4531 37.9844 14.4062
Q37.9844 18.0625 35.5156 20.0156
Q33.0625 21.9688 24.7031 23.7812
L21.5781 24.5156
Q13.2344 26.2656 9.51562 29.9062
Q5.8125 33.5469 5.8125 39.8906
Q5.8125 47.6094 11.2812 51.7969
Q16.75 56 26.8125 56
Q31.7812 56 36.1719 55.2656
Q40.5781 54.5469 44.2812 53.0781" id="BitstreamVeraSans-Roman-73"/>
      <path d="
M18.3125 70.2188
L18.3125 54.6875
L36.8125 54.6875
L36.8125 47.7031
L18.3125 47.7031
L18.3125 18.0156
Q18.3125 11.3281 20.1406 9.42188
Q21.9688 7.51562 27.5938 7.51562
L36.8125 7.51562
L36.8125 0
L27.5938 0
Q17.1875 0 13.2344 3.875
Q9.28125 7.76562 9.28125 18.0156
L9.28125 47.7031
L2.6875 47.7031
L2.6875 54.6875
L9.28125 54.6875
L9.28125 70.2188
z
" id="BitstreamVeraSans-Roman-74"/>
      <path d="
M25.3906 72.9062
L33.6875 72.9062
L8.29688 -9.28125
L0 -9.28125
z
" id="BitstreamVeraSans-Roman-2f"/>
      <path id="BitstreamVeraSans-Roman-20"/>
     </defs>
     <g transform="translate(425.9353125 612.931875)scale(0.12 -0.12)">
      <use xlink:href="#BitstreamVeraSans-Roman-74"/>
      <use x="39.208984375" xlink:href="#BitstreamVeraSans-Roman-20"/>
      <use x="70.99609375" xlink:href="#BitstreamVeraSans-Roman-2f"/>
      <use x="104.6875" xlink:href="#BitstreamVeraSans-Roman-20"/>
      <use x="136.474609375" xlink:href="#BitstreamVeraSans-Roman-6d"/>
      <use x="233.88671875" xlink:href="#BitstreamVeraSans-Roman-73"/>
     </g>
    </g>
   </g>
   <g id="matplotlib.axis_2">
    <g id="ytick_1">
     <g id="line2d_14">
      <defs>
       <path d="
M0 0
L4 0" id="md7965d1ba0" style="stroke:#000000;stroke-width:0.5;"/>
      </defs>
      <g>
       <use style="stroke:#000000;stroke-width:0.5;" x="108.0" xlink:href="#md7965d1ba0" y="583.2"/>
      </g>
     </g>
     <g id="line2d_15">
      <defs>
       <path d="
M0 0
L-4 0" id="md9a1c1a7cd" style="stroke:#000000;stroke-width:0.5;"/>
      </defs>
      <g>
       <use style="stroke:#000000;stroke-width:0.5;" x="777.6" xlink:href="#md9a1c1a7cd" y="583.2"/>
      </g>
     </g>
     <g id="text_7">
      <!-- 0 -->
      <g transform="translate(97.953125 586.51125)scale(0.12 -0.12)">
       <use xlink:href="#BitstreamVeraSans-Roman-30"/>
      </g>
     </g>
    </g>
    <g id="ytick_2">
     <g id="line2d_16">
      <g>
       <use style="stroke:#000000;stroke-width:0.5;" x="108.0" xlink:href="#md7965d1ba0" y="518.4"/>
      </g>
     </g>
     <g id="line2d_17">
      <g>
       <use style="stroke:#000000;stroke-width:0.5;" x="777.6" xlink:href="#md9a1c1a7cd" y="518.4"/>
      </g>
     </g>
     <g id="text_8">
      <!-- 50 -->
      <g transform="translate(90.453125 521.71125)scale(0.12 -0.12)">
       <use xlink:href="#BitstreamVeraSans-Roman-35"/>
       <use x="63.623046875" xlink:href="#BitstreamVeraSans-Roman-30"/>
      </g>
     </g>
    </g>
    <g id="ytick_3">
     <g id="line2d_18">
      <g>
       <use style="stroke:#000000;stroke-width:0.5;" x="108.0" xlink:href="#md7965d1ba0" y="453.6"/>
      </g>
     </g>
     <g id="line2d_19">
      <g>
       <use style="stroke:#000000;stroke-width:0.5;" x="777.6" xlink:href="#md9a1c1a7cd" y="453.6"/>
      </g>
     </g>
     <g id="text_9">
      <!-- 100 -->
      <g transform="translate(83.21 456.91125)scale(0.12 -0.12)">
       <use xlink:href="#BitstreamVeraSans-Roman-31"/>
       <use x="63.623046875" xlink:href="#BitstreamVeraSans-Roman-30"/>
       <use x="127.24609375" xlink:href="#BitstreamVeraSans-Roman-30"/>
      </g>
     </g>
    </g>
    <g id="ytick_4">
     <g id="line2d_20">
      <g>
       <use style="stroke:#000000;stroke-width:0.5;" x="108.0" xlink:href="#md7965d1ba0" y="388.8"/>
      </g>
     </g>
     <g id="line2d_21">
      <g>
       <use style="stroke:#000000;stroke-width:0.5;" x="777.6" xlink:href="#md9a1c1a7cd" y="388.8"/>
      </g>
     </g>
     <g id="text_10">
      <!-- 150 -->
      <g transform="translate(83.21 392.11125)scale(0.12 -0.12)">
       <use xlink:href="#BitstreamVeraSans-Roman-31"/>
       <use x="63.623046875" xlink:href="#BitstreamVeraSans-Roman-35"/>
       <use x="127.24609375" xlink:href="#BitstreamVeraSans-Roman-30"/>
      </g>
     </g>
    </g>
    <g id="ytick_5">
     <g id="line2d_22">
      <g>
       <use style="stroke:#000000;stroke-width:0.5;" x="108.0" xlink:href="#md7965d1ba0" y="324.0"/>
      </g>
     </g>
     <g id="line2d_23">
      <g>
       <use style="stroke:#000000;stroke-width:0.5;" x="777.6" xlink:href="#md9a1c1a7cd" y="324.0"/>
      </g>
     </g>
     <g id="text_11">
      <!-- 200 -->
      <g transform="translate(82.77125 327.31125)scale(0.12 -0.12)">
       <use xlink:href="#BitstreamVeraSans-Roman-32"/>
       <use x="63.623046875" xlink:href="#BitstreamVeraSans-Roman-30"/>
       <use x="127.24609375" xlink:href="#BitstreamVeraSans-Roman-30"/>
      </g>
     </g>
    </g>
    <g id="ytick_6">
     <g id="line2d_24">
      <g>
       <use style="stroke:#000000;stroke-width:0.5;" x="108.0" xlink:href="#md7965d1ba0" y="259.2"/>
      </g>
     </g>
     <g id="line2d_25">
      <g>
       <use style="stroke:#000000;stroke-width:0.5;" x="777.6" xlink:href="#md9a1c1a7cd" y="259.2"/>
      </g>
     </g>
     <g id="text_12">
      <!-- 250 -->
      <g transform="translate(82.77125 262.51125)scale(0.12 -0.12)">
       <use xlink:href="#BitstreamVeraSans-Roman-32"/>
       <use x="63.623046875" xlink:href="#BitstreamVeraSans-Roman-35"/>
       <use x="127.24609375" xlink:href="#BitstreamVeraSans-Roman-30"/>
      </g>
     </g>
    </g>
    <g id="ytick_7">
     <g id="line2d_26">
      <g>
       <use style="stroke:#000000;stroke-width:0.5;" x="108.0" xlink:href="#md7965d1ba0" y="194.4"/>
      </g>
     </g>
     <g id="line2d_27">
      <g>
       <use style="stroke:#000000;stroke-width:0.5;" x="777.6" xlink:href="#md9a1c1a7cd" y="194.4"/>
      </g>
     </g>
     <g id="text_13">
      <!-- 300 -->
      <defs>
       <path d="
M40.5781 39.3125
Q47.6562 37.7969 51.625 33
Q55.6094 28.2188 55.6094 21.1875
Q55.6094 10.4062 48.1875 4.48438
Q40.7656 -1.42188 27.0938 -1.42188
Q22.5156 -1.42188 17.6562 -0.515625
Q12.7969 0.390625 7.625 2.20312
L7.625 11.7188
Q11.7188 9.32812 16.5938 8.10938
Q21.4844 6.89062 26.8125 6.89062
Q36.0781 6.89062 40.9375 10.5469
Q45.7969 14.2031 45.7969 21.1875
Q45.7969 27.6406 41.2812 31.2656
Q36.7656 34.9062 28.7188 34.9062
L20.2188 34.9062
L20.2188 43.0156
L29.1094 43.0156
Q36.375 43.0156 40.2344 45.9219
Q44.0938 48.8281 44.0938 54.2969
Q44.0938 59.9062 40.1094 62.9062
Q36.1406 65.9219 28.7188 65.9219
Q24.6562 65.9219 20.0156 65.0312
Q15.375 64.1562 9.8125 62.3125
L9.8125 71.0938
Q15.4375 72.6562 20.3438 73.4375
Q25.25 74.2188 29.5938 74.2188
Q40.8281 74.2188 47.3594 69.1094
Q53.9062 64.0156 53.9062 55.3281
Q53.9062 49.2656 50.4375 45.0938
Q46.9688 40.9219 40.5781 39.3125" id="BitstreamVeraSans-Roman-33"/>
      </defs>
      <g transform="translate(82.806875 197.71125)scale(0.12 -0.12)">
       <use xlink:href="#BitstreamVeraSans-Roman-33"/>
       <use x="63.623046875" xlink:href="#BitstreamVeraSans-Roman-30"/>
       <use x="127.24609375" xlink:href="#BitstreamVeraSans-Roman-30"/>
      </g>
     </g>
    </g>
    <g id="ytick_8">
     <g id="line2d_28">
      <g>
       <use style="stroke:#000000;stroke-width:0.5;" x="108.0" xlink:href="#md7965d1ba0" y="129.6"/>
      </g>
     </g>
     <g id="line2d_29">
      <g>
       <use style="stroke:#000000;stroke-width:0.5;" x="777.6" xlink:href="#md9a1c1a7cd" y="129.6"/>
      </g>
     </g>
     <g id="text_14">
      <!-- 350 -->
      <g transform="translate(82.806875 132.91125)scale(0.12 -0.12)">
       <use xlink:href="#BitstreamVeraSans-Roman-33"/>
       <use x="63.623046875" xlink:href="#BitstreamVeraSans-Roman-35"/>
       <use x="127.24609375" xlink:href="#BitstreamVeraSans-Roman-30"/>
      </g>
     </g>
    </g>
    <g id="ytick_9">
     <g id="line2d_30">
      <g>
       <use style="stroke:#000000;stroke-width:0.5;" x="108.0" xlink:href="#md7965d1ba0" y="64.8"/>
      </g>
     </g>
     <g id="line2d_31">
      <g>
       <use style="stroke:#000000;stroke-width:0.5;" x="777.6" xlink:href="#md9a1c1a7cd" y="64.8"/>
      </g>
     </g>
     <g id="text_15">
      <!-- 400 -->
      <defs>
       <path d="
M37.7969 64.3125
L12.8906 25.3906
L37.7969 25.3906
z

M35.2031 72.9062
L47.6094 72.9062
L47.6094 25.3906
L58.0156 25.3906
L58.0156 17.1875
L47.6094 17.1875
L47.6094 0
L37.7969 0
L37.7969 17.1875
L4.89062 17.1875
L4.89062 26.7031
z
" id="BitstreamVeraSans-Roman-34"/>
      </defs>
      <g transform="translate(82.47875 68.11125)scale(0.12 -0.12)">
       <use xlink:href="#BitstreamVeraSans-Roman-34"/>
       <use x="63.623046875" xlink:href="#BitstreamVeraSans-Roman-30"/>
       <use x="127.24609375" xlink:href="#BitstreamVeraSans-Roman-30"/>
      </g>
     </g>
    </g>
    <g id="text_16">
     <!-- particle numbers -->
     <defs>
      <path d="
M56.2031 29.5938
L56.2031 25.2031
L14.8906 25.2031
Q15.4844 15.9219 20.4844 11.0625
Q25.4844 6.20312 34.4219 6.20312
Q39.5938 6.20312 44.4531 7.46875
Q49.3125 8.73438 54.1094 11.2812
L54.1094 2.78125
Q49.2656 0.734375 44.1875 -0.34375
Q39.1094 -1.42188 33.8906 -1.42188
Q20.7969 -1.42188 13.1562 6.1875
Q5.51562 13.8125 5.51562 26.8125
Q5.51562 40.2344 12.7656 48.1094
Q20.0156 56 32.3281 56
Q43.3594 56 49.7812 48.8906
Q56.2031 41.7969 56.2031 29.5938
M47.2188 32.2344
Q47.125 39.5938 43.0938 43.9844
Q39.0625 48.3906 32.4219 48.3906
Q24.9062 48.3906 20.3906 44.1406
Q15.875 39.8906 15.1875 32.1719
z
" id="BitstreamVeraSans-Roman-65"/>
      <path d="
M41.1094 46.2969
Q39.5938 47.1719 37.8125 47.5781
Q36.0312 48 33.8906 48
Q26.2656 48 22.1875 43.0469
Q18.1094 38.0938 18.1094 28.8125
L18.1094 0
L9.07812 0
L9.07812 54.6875
L18.1094 54.6875
L18.1094 46.1875
Q20.9531 51.1719 25.4844 53.5781
Q30.0312 56 36.5312 56
Q37.4531 56 38.5781 55.875
Q39.7031 55.7656 41.0625 55.5156
z
" id="BitstreamVeraSans-Roman-72"/>
      <path d="
M9.42188 54.6875
L18.4062 54.6875
L18.4062 0
L9.42188 0
z

M9.42188 75.9844
L18.4062 75.9844
L18.4062 64.5938
L9.42188 64.5938
z
" id="BitstreamVeraSans-Roman-69"/>
      <path d="
M9.42188 75.9844
L18.4062 75.9844
L18.4062 0
L9.42188 0
z
" id="BitstreamVeraSans-Roman-6c"/>
      <path d="
M48.7812 52.5938
L48.7812 44.1875
Q44.9688 46.2969 41.1406 47.3438
Q37.3125 48.3906 33.4062 48.3906
Q24.6562 48.3906 19.8125 42.8438
Q14.9844 37.3125 14.9844 27.2969
Q14.9844 17.2812 19.8125 11.7344
Q24.6562 6.20312 33.4062 6.20312
Q37.3125 6.20312 41.1406 7.25
Q44.9688 8.29688 48.7812 10.4062
L48.7812 2.09375
Q45.0156 0.34375 40.9844 -0.53125
Q36.9688 -1.42188 32.4219 -1.42188
Q20.0625 -1.42188 12.7812 6.34375
Q5.51562 14.1094 5.51562 27.2969
Q5.51562 40.6719 12.8594 48.3281
Q20.2188 56 33.0156 56
Q37.1562 56 41.1094 55.1406
Q45.0625 54.2969 48.7812 52.5938" id="BitstreamVeraSans-Roman-63"/>
      <path d="
M48.6875 27.2969
Q48.6875 37.2031 44.6094 42.8438
Q40.5312 48.4844 33.4062 48.4844
Q26.2656 48.4844 22.1875 42.8438
Q18.1094 37.2031 18.1094 27.2969
Q18.1094 17.3906 22.1875 11.75
Q26.2656 6.10938 33.4062 6.10938
Q40.5312 6.10938 44.6094 11.75
Q48.6875 17.3906 48.6875 27.2969
M18.1094 46.3906
Q20.9531 51.2656 25.2656 53.625
Q29.5938 56 35.5938 56
Q45.5625 56 51.7812 48.0938
Q58.0156 40.1875 58.0156 27.2969
Q58.0156 14.4062 51.7812 6.48438
Q45.5625 -1.42188 35.5938 -1.42188
Q29.5938 -1.42188 25.2656 0.953125
Q20.9531 3.32812 18.1094 8.20312
L18.1094 0
L9.07812 0
L9.07812 75.9844
L18.1094 75.9844
z
" id="BitstreamVeraSans-Roman-62"/>
      <path d="
M18.1094 8.20312
L18.1094 -20.7969
L9.07812 -20.7969
L9.07812 54.6875
L18.1094 54.6875
L18.1094 46.3906
Q20.9531 51.2656 25.2656 53.625
Q29.5938 56 35.5938 56
Q45.5625 56 51.7812 48.0938
Q58.0156 40.1875 58.0156 27.2969
Q58.0156 14.4062 51.7812 6.48438
Q45.5625 -1.42188 35.5938 -1.42188
Q29.5938 -1.42188 25.2656 0.953125
Q20.9531 3.32812 18.1094 8.20312
M48.6875 27.2969
Q48.6875 37.2031 44.6094 42.8438
Q40.5312 48.4844 33.4062 48.4844
Q26.2656 48.4844 22.1875 42.8438
Q18.1094 37.2031 18.1094 27.2969
Q18.1094 17.3906 22.1875 11.75
Q26.2656 6.10938 33.4062 6.10938
Q40.5312 6.10938 44.6094 11.75
Q48.6875 17.3906 48.6875 27.2969" id="BitstreamVeraSans-Roman-70"/>
      <path d="
M34.2812 27.4844
Q23.3906 27.4844 19.1875 25
Q14.9844 22.5156 14.9844 16.5
Q14.9844 11.7188 18.1406 8.90625
Q21.2969 6.10938 26.7031 6.10938
Q34.1875 6.10938 38.7031 11.4062
Q43.2188 16.7031 43.2188 25.4844
L43.2188 27.4844
z

M52.2031 31.2031
L52.2031 0
L43.2188 0
L43.2188 8.29688
Q40.1406 3.32812 35.5469 0.953125
Q30.9531 -1.42188 24.3125 -1.42188
Q15.9219 -1.42188 10.9531 3.29688
Q6 8.01562 6 15.9219
Q6 25.1406 12.1719 29.8281
Q18.3594 34.5156 30.6094 34.5156
L43.2188 34.5156
L43.2188 35.4062
Q43.2188 41.6094 39.1406 45
Q35.0625 48.3906 27.6875 48.3906
Q23 48.3906 18.5469 47.2656
Q14.1094 46.1406 10.0156 43.8906
L10.0156 52.2031
Q14.9375 54.1094 19.5781 55.0469
Q24.2188 56 28.6094 56
Q40.4844 56 46.3438 49.8438
Q52.2031 43.7031 52.2031 31.2031" id="BitstreamVeraSans-Roman-61"/>
      <path d="
M8.5 21.5781
L8.5 54.6875
L17.4844 54.6875
L17.4844 21.9219
Q17.4844 14.1562 20.5 10.2656
Q23.5312 6.39062 29.5938 6.39062
Q36.8594 6.39062 41.0781 11.0312
Q45.3125 15.6719 45.3125 23.6875
L45.3125 54.6875
L54.2969 54.6875
L54.2969 0
L45.3125 0
L45.3125 8.40625
Q42.0469 3.42188 37.7188 1
Q33.4062 -1.42188 27.6875 -1.42188
Q18.2656 -1.42188 13.375 4.4375
Q8.5 10.2969 8.5 21.5781" id="BitstreamVeraSans-Roman-75"/>
      <path d="
M54.8906 33.0156
L54.8906 0
L45.9062 0
L45.9062 32.7188
Q45.9062 40.4844 42.875 44.3281
Q39.8438 48.1875 33.7969 48.1875
Q26.5156 48.1875 22.3125 43.5469
Q18.1094 38.9219 18.1094 30.9062
L18.1094 0
L9.07812 0
L9.07812 54.6875
L18.1094 54.6875
L18.1094 46.1875
Q21.3438 51.125 25.7031 53.5625
Q30.0781 56 35.7969 56
Q45.2188 56 50.0469 50.1719
Q54.8906 44.3438 54.8906 33.0156" id="BitstreamVeraSans-Roman-6e"/>
     </defs>
     <g transform="translate(74.983125 374.78625)rotate(-90.0)scale(0.12 -0.12)">
      <use xlink:href="#BitstreamVeraSans-Roman-70"/>
      <use x="63.4765625" xlink:href="#BitstreamVeraSans-Roman-61"/>
      <use x="124.755859375" xlink:href="#BitstreamVeraSans-Roman-72"/>
      <use x="165.869140625" xlink:href="#BitstreamVeraSans-Roman-74"/>
      <use x="205.078125" xlink:href="#BitstreamVeraSans-Roman-69"/>
      <use x="232.861328125" xlink:href="#BitstreamVeraSans-Roman-63"/>
      <use x="287.841796875" xlink:href="#BitstreamVeraSans-Roman-6c"/>
      <use x="315.625" xlink:href="#BitstreamVeraSans-Roman-65"/>
      <use x="377.1484375" xlink:href="#BitstreamVeraSans-Roman-20"/>
      <use x="408.935546875" xlink:href="#BitstreamVeraSans-Roman-6e"/>
      <use x="472.314453125" xlink:href="#BitstreamVeraSans-Roman-75"/>
      <use x="535.693359375" xlink:href="#BitstreamVeraSans-Roman-6d"/>
      <use x="633.10546875" xlink:href="#BitstreamVeraSans-Roman-62"/>
      <use x="696.58203125" xlink:href="#BitstreamVeraSans-Roman-65"/>
      <use x="758.10546875" xlink:href="#BitstreamVeraSans-Roman-72"/>
      <use x="799.21875" xlink:href="#BitstreamVeraSans-Roman-73"/>
     </g>
    </g>
   </g>
   <g id="legend_1">
    <g id="patch_7">
     <path d="
M717.006 101.224
L774.1 101.224
L774.1 68.3
L717.006 68.3
z
" style="fill:#ffffff;stroke:#000000;stroke-linejoin:miter;"/>
    </g>
    <g id="line2d_32">
     <path d="
M721.906 73.9689
L731.706 73.9689" style="fill:none;stroke:#ff0000;stroke-linecap:square;"/>
    </g>
    <g id="line2d_33"/>
    <g id="text_17">
     <!-- PKAc el.0 -->
     <defs>
      <path d="
M19.6719 64.7969
L19.6719 37.4062
L32.0781 37.4062
Q38.9688 37.4062 42.7188 40.9688
Q46.4844 44.5312 46.4844 51.125
Q46.4844 57.6719 42.7188 61.2344
Q38.9688 64.7969 32.0781 64.7969
z

M9.8125 72.9062
L32.0781 72.9062
Q44.3438 72.9062 50.6094 67.3594
Q56.8906 61.8125 56.8906 51.125
Q56.8906 40.3281 50.6094 34.8125
Q44.3438 29.2969 32.0781 29.2969
L19.6719 29.2969
L19.6719 0
L9.8125 0
z
" id="BitstreamVeraSans-Roman-50"/>
      <path d="
M10.6875 12.4062
L21 12.4062
L21 0
L10.6875 0
z
" id="BitstreamVeraSans-Roman-2e"/>
      <path d="
M9.8125 72.9062
L19.6719 72.9062
L19.6719 42.0938
L52.3906 72.9062
L65.0938 72.9062
L28.9062 38.9219
L67.6719 0
L54.6875 0
L19.6719 35.1094
L19.6719 0
L9.8125 0
z
" id="BitstreamVeraSans-Roman-4b"/>
      <path d="
M34.1875 63.1875
L20.7969 26.9062
L47.6094 26.9062
z

M28.6094 72.9062
L39.7969 72.9062
L67.5781 0
L57.3281 0
L50.6875 18.7031
L17.8281 18.7031
L11.1875 0
L0.78125 0
z
" id="BitstreamVeraSans-Roman-41"/>
     </defs>
     <g transform="translate(739.40625 76.41890625)scale(0.07 -0.07)">
      <use xlink:href="#BitstreamVeraSans-Roman-50"/>
      <use x="60.302734375" xlink:href="#BitstreamVeraSans-Roman-4b"/>
      <use x="124.12890625" xlink:href="#BitstreamVeraSans-Roman-41"/>
      <use x="190.787109375" xlink:href="#BitstreamVeraSans-Roman-63"/>
      <use x="245.767578125" xlink:href="#BitstreamVeraSans-Roman-20"/>
      <use x="277.5546875" xlink:href="#BitstreamVeraSans-Roman-65"/>
      <use x="339.078125" xlink:href="#BitstreamVeraSans-Roman-6c"/>
      <use x="366.861328125" xlink:href="#BitstreamVeraSans-Roman-2e"/>
      <use x="398.6484375" xlink:href="#BitstreamVeraSans-Roman-30"/>
     </g>
    </g>
    <g id="line2d_34">
     <path d="
M721.906 84.2436
L731.706 84.2436" style="fill:none;stroke:#008000;stroke-linecap:square;"/>
    </g>
    <g id="line2d_35"/>
    <g id="text_18">
     <!-- PKAc el.1 -->
     <g transform="translate(739.40625 86.69359375)scale(0.07 -0.07)">
      <use xlink:href="#BitstreamVeraSans-Roman-50"/>
      <use x="60.302734375" xlink:href="#BitstreamVeraSans-Roman-4b"/>
      <use x="124.12890625" xlink:href="#BitstreamVeraSans-Roman-41"/>
      <use x="190.787109375" xlink:href="#BitstreamVeraSans-Roman-63"/>
      <use x="245.767578125" xlink:href="#BitstreamVeraSans-Roman-20"/>
      <use x="277.5546875" xlink:href="#BitstreamVeraSans-Roman-65"/>
      <use x="339.078125" xlink:href="#BitstreamVeraSans-Roman-6c"/>
      <use x="366.861328125" xlink:href="#BitstreamVeraSans-Roman-2e"/>
      <use x="398.6484375" xlink:href="#BitstreamVeraSans-Roman-31"/>
     </g>
    </g>
    <g id="line2d_36">
     <path d="
M721.906 94.5183
L731.706 94.5183" style="fill:none;stroke:#0000ff;stroke-linecap:square;"/>
    </g>
    <g id="line2d_37"/>
    <g id="text_19">
     <!-- PKAc el.2 -->
     <g transform="translate(739.40625 96.96828125)scale(0.07 -0.07)">
      <use xlink:href="#BitstreamVeraSans-Roman-50"/>
      <use x="60.302734375" xlink:href="#BitstreamVeraSans-Roman-4b"/>
      <use x="124.12890625" xlink:href="#BitstreamVeraSans-Roman-41"/>
      <use x="190.787109375" xlink:href="#BitstreamVeraSans-Roman-63"/>
      <use x="245.767578125" xlink:href="#BitstreamVeraSans-Roman-20"/>
      <use x="277.5546875" xlink:href="#BitstreamVeraSans-Roman-65"/>
      <use x="339.078125" xlink:href="#BitstreamVeraSans-Roman-6c"/>
      <use x="366.861328125" xlink:href="#BitstreamVeraSans-Roman-2e"/>
      <use x="398.6484375" xlink:href="#BitstreamVeraSans-Roman-32"/>
     </g>
    </g>
   </g>
  </g>
 </g>
 <defs>
  <clipPath id="p7ceb695115">
   <rect height="518.4" width="669.6" x="108.0" y="64.8"/>
  </clipPath>
 </defs>
</svg>
