<?xml version="1.0" encoding="utf-8" standalone="no"?>
<!DOCTYPE svg PUBLIC "-//W3C//DTD SVG 1.1//EN"
  "http://www.w3.org/Graphics/SVG/1.1/DTD/svg11.dtd">
<!-- Created with matplotlib (http://matplotlib.org/) -->
<svg height="648pt" version="1.1" viewBox="0 0 864 648" width="864pt" xmlns="http://www.w3.org/2000/svg" xmlns:xlink="http://www.w3.org/1999/xlink">
 <defs>
  <style type="text/css">
*{stroke-linecap:butt;stroke-linejoin:round;}
  </style>
 </defs>
 <g id="figure_1">
  <g id="patch_1">
   <path d="
M0 648
L864 648
L864 0
L0 0
z
" style="fill:#ffffff;"/>
  </g>
  <g id="axes_1">
   <g id="patch_2">
    <path d="
M108 583.2
L777.6 583.2
L777.6 64.8
L108 64.8
z
" style="fill:#ffffff;"/>
   </g>
   <g id="line2d_1">
    <path clip-path="url(#p7ceb695115)" d="
M108 583.2
L126.079 583.2
L126.749 580.32
L128.088 580.32
L128.758 583.2
L137.462 583.2
L138.132 580.32
L138.802 580.32
L139.471 583.2
L140.141 580.32
L144.828 580.32
L145.498 583.2
L159.559 583.2
L160.229 580.32
L162.907 580.32
L163.577 577.44
L166.255 577.44
L166.925 580.32
L168.934 580.32
L169.603 583.2
L171.612 583.2
L172.282 580.32
L177.638 580.32
L178.308 583.2
L180.986 583.2
L181.656 580.32
L189.022 580.32
L189.691 583.2
L205.092 583.2
L205.762 580.32
L211.118 580.32
L211.788 577.44
L218.484 577.44
L219.154 580.32
L223.841 580.32
L224.51 583.2
L356.422 583.2
L357.091 580.32
L360.439 580.32
L361.109 583.2
L444.139 583.2
L444.809 580.32
L445.478 580.32
L446.148 583.2
L446.818 577.44
L447.487 568.8
L448.157 574.56
L448.826 563.04
L449.496 565.92
L450.166 565.92
L450.835 574.56
L451.505 560.16
L452.174 560.16
L452.844 554.4
L453.514 554.4
L454.183 542.88
L454.853 554.4
L455.522 548.64
L456.192 540
L456.862 563.04
L457.531 531.36
L458.201 545.76
L458.87 551.52
L459.54 560.16
L460.21 534.24
L460.879 560.16
L461.549 548.64
L462.218 545.76
L462.888 514.08
L463.558 531.36
L464.227 540
L464.897 542.88
L465.566 542.88
L466.236 519.84
L466.906 534.24
L467.575 505.44
L468.245 540
L468.914 537.12
L469.584 522.72
L470.254 531.36
L470.923 511.2
L471.593 505.44
L472.262 525.6
L472.932 508.32
L473.602 525.6
L474.271 476.64
L474.941 473.76
L475.61 508.32
L476.28 473.76
L476.95 499.68
L477.619 470.88
L478.289 496.8
L478.958 528.48
L479.628 508.32
L480.298 519.84
L480.967 493.92
L481.637 473.76
L482.306 528.48
L482.976 493.92
L484.315 476.64
L484.985 465.12
L485.654 470.88
L486.324 479.52
L486.994 485.28
L487.663 479.52
L488.333 488.16
L489.002 468
L489.672 516.96
L490.342 476.64
L491.011 491.04
L491.681 482.4
L493.02 470.88
L493.69 488.16
L494.359 491.04
L495.029 482.4
L495.698 482.4
L496.368 473.76
L497.038 470.88
L497.707 482.4
L498.377 436.32
L499.046 453.6
L499.716 499.68
L500.386 502.56
L501.055 468
L501.725 476.64
L502.394 462.24
L503.064 476.64
L503.734 470.88
L504.403 485.28
L505.073 476.64
L505.742 482.4
L506.412 485.28
L507.082 476.64
L507.751 502.56
L508.421 488.16
L509.09 514.08
L509.76 534.24
L510.43 485.28
L511.099 479.52
L511.769 479.52
L512.438 482.4
L513.108 502.56
L513.778 485.28
L514.447 496.8
L515.117 482.4
L515.786 499.68
L516.456 499.68
L517.126 502.56
L517.795 502.56
L518.465 491.04
L519.134 488.16
L519.804 491.04
L520.474 502.56
L521.813 502.56
L522.482 496.8
L523.152 488.16
L523.822 499.68
L524.491 482.4
L525.161 514.08
L525.83 485.28
L526.5 485.28
L527.17 482.4
L527.839 499.68
L528.509 508.32
L529.178 511.2
L529.848 485.28
L530.518 473.76
L531.187 485.28
L531.857 465.12
L532.526 485.28
L533.196 496.8
L533.866 468
L534.535 473.76
L535.205 519.84
L535.874 499.68
L536.544 502.56
L537.214 493.92
L537.883 468
L538.553 482.4
L539.222 508.32
L539.892 499.68
L540.562 496.8
L541.231 502.56
L542.57 473.76
L543.24 485.28
L543.91 502.56
L544.579 491.04
L545.249 476.64
L545.918 485.28
L546.588 476.64
L547.258 485.28
L547.927 488.16
L548.597 482.4
L549.266 511.2
L549.936 511.2
L550.606 514.08
L551.275 514.08
L551.945 491.04
L552.614 491.04
L553.284 493.92
L553.954 499.68
L554.623 476.64
L555.293 502.56
L556.632 502.56
L557.302 493.92
L557.971 491.04
L558.641 499.68
L559.31 505.44
L559.98 485.28
L560.65 491.04
L561.319 519.84
L561.989 499.68
L562.658 511.2
L563.328 514.08
L563.998 531.36
L564.667 522.72
L565.337 511.2
L566.006 514.08
L566.676 519.84
L568.015 519.84
L568.685 493.92
L569.354 534.24
L570.024 505.44
L570.694 511.2
L571.363 502.56
L572.033 531.36
L572.702 519.84
L573.372 531.36
L574.042 511.2
L574.711 522.72
L575.381 505.44
L576.05 508.32
L576.72 514.08
L577.39 508.32
L578.059 511.2
L578.729 522.72
L579.398 514.08
L580.738 491.04
L581.407 516.96
L582.077 511.2
L582.746 508.32
L583.416 519.84
L584.086 491.04
L584.755 557.28
L585.425 511.2
L586.094 522.72
L586.764 502.56
L587.434 514.08
L588.103 537.12
L588.773 531.36
L589.442 511.2
L590.112 519.84
L590.782 505.44
L591.451 522.72
L592.121 502.56
L592.79 525.6
L593.46 525.6
L594.13 511.2
L594.799 522.72
L595.469 522.72
L596.138 525.6
L596.808 531.36
L597.478 531.36
L598.147 502.56
L598.817 499.68
L599.486 528.48
L600.156 525.6
L600.826 511.2
L601.495 522.72
L602.165 508.32
L602.834 516.96
L603.504 514.08
L604.174 516.96
L604.843 528.48
L605.513 525.6
L606.182 519.84
L606.852 537.12
L607.522 525.6
L608.191 537.12
L608.861 542.88
L609.53 537.12
L610.2 537.12
L610.87 528.48
L612.209 516.96
L613.548 540
L614.218 537.12
L614.887 545.76
L616.896 545.76
L617.566 534.24
L618.905 540
L620.244 534.24
L620.914 525.6
L621.583 528.48
L622.253 508.32
L622.922 511.2
L623.592 528.48
L624.262 525.6
L624.931 560.16
L625.601 531.36
L626.27 545.76
L626.94 493.92
L627.61 522.72
L629.618 531.36
L630.288 528.48
L630.958 542.88
L631.627 537.12
L632.297 528.48
L632.966 545.76
L633.636 542.88
L634.306 534.24
L634.975 534.24
L636.314 551.52
L637.654 540
L638.323 522.72
L638.993 534.24
L639.662 511.2
L640.332 551.52
L641.002 534.24
L641.671 525.6
L642.341 525.6
L643.01 540
L644.35 522.72
L645.019 528.48
L645.689 548.64
L646.358 519.84
L647.028 525.6
L647.698 540
L648.367 545.76
L649.037 531.36
L649.706 548.64
L651.046 537.12
L651.715 545.76
L652.385 542.88
L653.054 534.24
L653.724 560.16
L654.394 534.24
L655.063 548.64
L655.733 537.12
L656.402 537.12
L657.072 525.6
L657.742 534.24
L658.411 551.52
L659.081 557.28
L659.75 545.76
L660.42 554.4
L661.09 554.4
L661.759 548.64
L662.429 548.64
L663.098 557.28
L664.438 557.28
L665.107 554.4
L667.116 554.4
L667.786 548.64
L668.455 548.64
L669.125 551.52
L669.794 557.28
L670.464 554.4
L671.134 554.4
L671.803 545.76
L672.473 560.16
L673.142 545.76
L673.812 551.52
L674.482 571.68
L675.151 557.28
L675.821 554.4
L676.49 554.4
L677.16 560.16
L677.83 563.04
L678.499 557.28
L679.169 574.56
L679.838 560.16
L680.508 560.16
L681.178 554.4
L681.847 554.4
L682.517 571.68
L683.186 560.16
L683.856 560.16
L684.526 565.92
L685.195 551.52
L685.865 542.88
L686.534 554.4
L687.874 554.4
L688.543 551.52
L689.882 563.04
L690.552 560.16
L691.222 563.04
L691.891 568.8
L692.561 563.04
L693.23 563.04
L693.9 557.28
L694.57 568.8
L695.239 557.28
L695.909 568.8
L696.578 563.04
L697.248 565.92
L697.918 560.16
L698.587 565.92
L699.257 554.4
L699.926 568.8
L700.596 565.92
L701.266 557.28
L701.935 560.16
L702.605 557.28
L703.274 563.04
L704.614 568.8
L705.283 563.04
L705.953 571.68
L706.622 571.68
L707.292 574.56
L707.962 571.68
L709.301 571.68
L709.97 577.44
L711.31 577.44
L711.979 574.56
L712.649 574.56
L713.318 580.32
L713.988 580.32
L715.327 574.56
L715.997 574.56
L716.666 571.68
L718.675 580.32
L719.345 577.44
L720.014 580.32
L720.684 580.32
L722.023 574.56
L723.362 574.56
L724.032 571.68
L724.702 577.44
L725.371 571.68
L726.041 568.8
L727.38 568.8
L728.05 574.56
L728.719 574.56
L730.058 568.8
L730.728 574.56
L731.398 574.56
L733.406 565.92
L734.746 571.68
L735.415 568.8
L736.754 574.56
L737.424 568.8
L738.094 571.68
L738.763 571.68
L739.433 574.56
L740.102 560.16
L740.772 560.16
L742.111 571.68
L742.781 571.68
L743.45 574.56
L744.12 571.68
L744.79 574.56
L746.129 574.56
L746.798 577.44
L747.468 574.56
L748.138 574.56
L748.807 577.44
L750.146 577.44
L750.816 574.56
L752.155 574.56
L752.825 580.32
L753.494 574.56
L755.503 574.56
L756.173 571.68
L756.842 574.56
L757.512 574.56
L758.182 577.44
L758.851 571.68
L759.521 571.68
L760.86 577.44
L761.53 574.56
L762.199 580.32
L762.869 574.56
L763.538 577.44
L764.208 574.56
L764.878 580.32
L765.547 583.2
L766.217 580.32
L766.886 583.2
L768.226 577.44
L768.895 583.2
L769.565 580.32
L770.904 580.32
L771.574 577.44
L772.243 577.44
L772.913 580.32
L773.582 580.32
L774.252 577.44
L774.922 580.32
L776.93 580.32
L777.6 577.44
L777.6 577.44" style="fill:none;stroke:#ff0000;stroke-linecap:square;"/>
   </g>
   <g id="line2d_2">
    <path clip-path="url(#p7ceb695115)" d="
M108 583.2
L114.696 583.2
L115.366 577.44
L117.374 577.44
L118.044 580.32
L122.062 580.32
L122.731 577.44
L123.401 577.44
L124.07 580.32
L126.749 580.32
L127.418 583.2
L130.097 583.2
L130.766 580.32
L134.114 580.32
L135.454 574.56
L136.123 574.56
L136.793 583.2
L144.158 583.2
L145.498 577.44
L146.167 580.32
L146.837 577.44
L147.506 577.44
L148.176 580.32
L148.846 577.44
L153.533 577.44
L154.872 571.68
L155.542 574.56
L157.55 574.56
L158.22 580.32
L158.89 577.44
L159.559 580.32
L160.229 574.56
L161.568 580.32
L162.238 580.32
L162.907 577.44
L164.916 577.44
L165.586 574.56
L166.925 574.56
L168.264 568.8
L168.934 571.68
L170.942 571.68
L171.612 580.32
L172.282 583.2
L172.951 583.2
L173.621 580.32
L174.29 580.32
L174.96 577.44
L175.63 583.2
L178.978 583.2
L179.647 580.32
L182.326 580.32
L182.995 583.2
L188.352 583.2
L189.022 580.32
L192.37 580.32
L193.039 583.2
L193.709 580.32
L203.083 580.32
L203.753 577.44
L204.422 577.44
L205.092 580.32
L206.431 580.32
L207.101 577.44
L207.77 577.44
L208.44 580.32
L209.11 577.44
L210.449 577.44
L211.118 580.32
L213.127 580.32
L213.797 577.44
L215.136 577.44
L215.806 580.32
L218.484 580.32
L219.154 577.44
L221.162 577.44
L221.832 580.32
L223.171 580.32
L223.841 583.2
L226.519 583.2
L227.189 580.32
L227.858 580.32
L228.528 583.2
L229.198 580.32
L230.537 580.32
L231.206 583.2
L235.894 583.2
L236.563 580.32
L238.572 580.32
L239.242 577.44
L239.911 580.32
L241.25 580.32
L241.92 583.2
L244.598 583.2
L245.268 580.32
L246.607 580.32
L247.277 583.2
L247.946 580.32
L249.286 580.32
L249.955 583.2
L264.017 583.2
L264.686 580.32
L270.713 580.32
L271.382 583.2
L275.4 583.2
L276.07 580.32
L279.418 580.32
L280.087 583.2
L290.131 583.2
L290.801 580.32
L294.149 580.32
L294.818 583.2
L331.646 583.2
L332.316 580.32
L332.986 580.32
L333.655 583.2
L360.439 583.2
L361.109 580.32
L361.778 583.2
L365.796 583.2
L366.466 580.32
L373.162 580.32
L373.831 583.2
L393.25 583.2
L393.919 580.32
L396.598 580.32
L397.267 583.2
L397.937 583.2
L398.606 580.32
L405.302 580.32
L405.972 583.2
L406.642 580.32
L433.426 580.32
L434.095 577.44
L434.765 580.32
L435.434 580.32
L436.104 583.2
L443.47 583.2
L444.139 580.32
L444.809 580.32
L445.478 577.44
L446.818 565.92
L447.487 554.4
L448.157 540
L448.826 542.88
L449.496 525.6
L450.835 537.12
L451.505 511.2
L452.174 493.92
L453.514 476.64
L454.183 465.12
L454.853 485.28
L455.522 444.96
L456.192 462.24
L456.862 447.84
L458.201 436.32
L458.87 433.44
L459.54 410.4
L460.21 427.68
L460.879 424.8
L462.218 352.8
L462.888 398.88
L463.558 349.92
L464.227 361.44
L464.897 352.8
L465.566 347.04
L466.236 358.56
L466.906 352.8
L467.575 367.2
L468.245 407.52
L468.914 335.52
L469.584 324
L470.254 335.52
L470.923 315.36
L471.593 257.76
L472.262 272.16
L472.932 280.8
L473.602 191.52
L474.941 298.08
L475.61 295.2
L476.28 243.36
L476.95 220.32
L477.619 226.08
L478.289 220.32
L478.958 249.12
L479.628 231.84
L480.298 226.08
L480.967 228.96
L481.637 188.64
L482.306 223.2
L482.976 203.04
L483.646 194.4
L484.315 182.88
L484.985 156.96
L485.654 151.2
L486.324 182.88
L486.994 165.6
L487.663 125.28
L488.333 128.16
L489.002 136.8
L489.672 177.12
L490.342 174.24
L491.011 93.6
L491.681 119.52
L492.35 128.16
L493.02 122.4
L493.69 151.2
L494.359 154.08
L495.029 151.2
L495.698 165.6
L496.368 174.24
L497.038 139.68
L497.707 165.6
L498.377 182.88
L499.046 162.72
L499.716 185.76
L500.386 122.4
L501.055 174.24
L501.725 136.8
L502.394 145.44
L503.064 177.12
L503.734 154.08
L504.403 165.6
L505.073 139.68
L505.742 145.44
L506.412 188.64
L507.082 197.28
L507.751 200.16
L508.421 214.56
L509.09 191.52
L509.76 203.04
L510.43 263.52
L511.099 182.88
L511.769 191.52
L512.438 246.24
L513.108 205.92
L513.778 191.52
L514.447 200.16
L515.117 191.52
L515.786 237.6
L516.456 182.88
L517.126 240.48
L517.795 231.84
L518.465 237.6
L519.134 177.12
L519.804 211.68
L520.474 220.32
L521.143 159.84
L521.813 211.68
L522.482 211.68
L523.152 203.04
L523.822 185.76
L524.491 234.72
L525.161 263.52
L525.83 228.96
L526.5 214.56
L527.17 252
L527.839 243.36
L528.509 203.04
L529.848 231.84
L531.187 159.84
L531.857 240.48
L532.526 194.4
L533.196 188.64
L533.866 234.72
L534.535 217.44
L535.205 249.12
L535.874 231.84
L536.544 246.24
L537.214 217.44
L537.883 145.44
L538.553 231.84
L539.222 275.04
L539.892 214.56
L540.562 197.28
L541.231 231.84
L541.901 246.24
L542.57 180
L543.24 260.64
L543.91 266.4
L544.579 208.8
L545.249 272.16
L545.918 208.8
L546.588 243.36
L547.258 205.92
L547.927 223.2
L548.597 162.72
L549.266 211.68
L549.936 203.04
L550.606 197.28
L551.275 226.08
L551.945 275.04
L552.614 208.8
L553.284 246.24
L553.954 203.04
L554.623 240.48
L555.293 243.36
L555.962 243.36
L556.632 249.12
L557.302 257.76
L557.971 260.64
L558.641 234.72
L559.31 249.12
L559.98 266.4
L560.65 254.88
L561.319 300.96
L561.989 286.56
L562.658 246.24
L563.328 277.92
L563.998 289.44
L564.667 324
L565.337 269.28
L566.006 295.2
L566.676 275.04
L567.346 283.68
L568.015 275.04
L568.685 341.28
L569.354 275.04
L570.024 280.8
L570.694 277.92
L571.363 318.24
L572.033 260.64
L572.702 298.08
L573.372 280.8
L574.042 300.96
L574.711 390.24
L575.381 324
L576.05 280.8
L576.72 260.64
L577.39 312.48
L578.059 341.28
L578.729 352.8
L579.398 280.8
L580.068 318.24
L581.407 312.48
L582.077 312.48
L582.746 349.92
L583.416 300.96
L584.086 321.12
L584.755 324
L585.425 324
L586.094 332.64
L586.764 303.84
L587.434 263.52
L588.103 326.88
L588.773 246.24
L589.442 289.44
L590.112 249.12
L590.782 272.16
L591.451 321.12
L592.121 341.28
L592.79 306.72
L593.46 298.08
L594.13 298.08
L594.799 341.28
L595.469 289.44
L596.138 315.36
L596.808 318.24
L597.478 303.84
L598.147 312.48
L598.817 329.76
L599.486 318.24
L600.156 326.88
L600.826 315.36
L601.495 341.28
L602.165 324
L602.834 358.56
L603.504 352.8
L604.174 329.76
L604.843 349.92
L605.513 381.6
L606.182 335.52
L606.852 372.96
L607.522 324
L608.191 358.56
L608.861 349.92
L609.53 384.48
L610.2 335.52
L610.87 341.28
L611.539 332.64
L612.209 344.16
L612.878 292.32
L613.548 332.64
L614.218 358.56
L614.887 355.68
L615.557 358.56
L616.226 347.04
L616.896 378.72
L617.566 352.8
L618.905 375.84
L619.574 341.28
L620.244 404.64
L620.914 378.72
L621.583 393.12
L622.253 396
L622.922 361.44
L623.592 364.32
L624.262 381.6
L624.931 390.24
L625.601 381.6
L626.27 384.48
L626.94 390.24
L627.61 378.72
L628.279 390.24
L628.949 410.4
L629.618 355.68
L630.288 338.4
L630.958 390.24
L631.627 378.72
L632.297 372.96
L632.966 396
L633.636 396
L634.306 413.28
L634.975 390.24
L635.645 375.84
L636.314 416.16
L636.984 442.08
L637.654 416.16
L638.323 410.4
L638.993 416.16
L640.332 421.92
L641.002 401.76
L641.671 430.56
L642.341 401.76
L643.01 407.52
L643.68 398.88
L644.35 419.04
L645.019 433.44
L645.689 439.2
L646.358 413.28
L647.028 421.92
L647.698 419.04
L648.367 407.52
L649.037 419.04
L649.706 439.2
L651.046 450.72
L651.715 453.6
L652.385 401.76
L653.054 401.76
L653.724 398.88
L654.394 427.68
L655.063 439.2
L655.733 410.4
L656.402 439.2
L657.072 421.92
L657.742 459.36
L658.411 433.44
L659.081 453.6
L659.75 459.36
L660.42 444.96
L661.09 459.36
L661.759 439.2
L662.429 439.2
L663.098 436.32
L663.768 456.48
L664.438 453.6
L665.107 456.48
L665.777 465.12
L667.116 459.36
L667.786 465.12
L668.455 430.56
L669.125 447.84
L669.794 476.64
L670.464 450.72
L671.803 473.76
L672.473 479.52
L673.142 447.84
L673.812 479.52
L674.482 465.12
L675.151 442.08
L675.821 462.24
L676.49 470.88
L677.16 450.72
L677.83 476.64
L678.499 470.88
L679.169 488.16
L679.838 485.28
L680.508 479.52
L681.178 488.16
L681.847 499.68
L682.517 470.88
L683.186 473.76
L683.856 499.68
L684.526 485.28
L685.195 485.28
L685.865 479.52
L686.534 479.52
L687.874 485.28
L689.213 496.8
L689.882 514.08
L690.552 473.76
L691.222 496.8
L691.891 485.28
L692.561 499.68
L693.23 482.4
L693.9 502.56
L694.57 505.44
L695.239 511.2
L695.909 496.8
L696.578 508.32
L697.248 485.28
L697.918 514.08
L698.587 499.68
L699.926 505.44
L700.596 514.08
L701.266 488.16
L701.935 499.68
L702.605 514.08
L703.274 496.8
L703.944 508.32
L704.614 508.32
L705.283 531.36
L705.953 516.96
L706.622 525.6
L707.292 525.6
L707.962 505.44
L708.631 519.84
L709.97 519.84
L710.64 525.6
L711.31 522.72
L711.979 528.48
L712.649 511.2
L713.318 516.96
L713.988 525.6
L714.658 522.72
L715.327 537.12
L715.997 516.96
L717.336 528.48
L718.006 522.72
L718.675 522.72
L719.345 545.76
L720.014 542.88
L720.684 531.36
L721.354 531.36
L722.023 522.72
L722.693 540
L723.362 522.72
L724.032 522.72
L724.702 540
L725.371 534.24
L726.041 522.72
L726.71 534.24
L727.38 528.48
L728.05 542.88
L728.719 542.88
L729.389 537.12
L730.058 542.88
L730.728 537.12
L731.398 525.6
L732.067 540
L732.737 528.48
L733.406 537.12
L734.076 542.88
L734.746 540
L735.415 528.48
L736.085 511.2
L736.754 514.08
L737.424 528.48
L738.094 522.72
L738.763 522.72
L739.433 540
L740.102 542.88
L740.772 542.88
L741.442 545.76
L742.111 531.36
L742.781 540
L743.45 537.12
L744.12 545.76
L744.79 522.72
L745.459 540
L746.129 534.24
L747.468 545.76
L748.138 525.6
L748.807 537.12
L749.477 542.88
L750.146 545.76
L750.816 554.4
L751.486 554.4
L752.155 551.52
L752.825 557.28
L753.494 551.52
L754.164 548.64
L754.834 548.64
L755.503 542.88
L756.173 545.76
L756.842 551.52
L757.512 551.52
L758.182 554.4
L758.851 548.64
L759.521 537.12
L760.19 537.12
L760.86 522.72
L761.53 545.76
L762.199 545.76
L762.869 548.64
L763.538 548.64
L764.878 542.88
L765.547 545.76
L766.217 540
L766.886 551.52
L767.556 542.88
L768.226 565.92
L768.895 568.8
L769.565 563.04
L770.234 563.04
L770.904 560.16
L771.574 560.16
L772.243 563.04
L774.252 545.76
L774.922 551.52
L775.591 554.4
L776.93 554.4
L777.6 563.04
L777.6 563.04" style="fill:none;stroke:#008000;stroke-linecap:square;"/>
   </g>
   <g id="line2d_3">
    <path clip-path="url(#p7ceb695115)" d="
M108 583.2
L137.462 583.2
L138.132 580.32
L138.802 580.32
L139.471 583.2
L201.744 583.2
L202.414 580.32
L203.083 580.32
L203.753 583.2
L215.136 583.2
L215.806 580.32
L217.814 580.32
L218.484 577.44
L219.823 577.44
L220.493 583.2
L221.162 580.32
L225.85 580.32
L226.519 583.2
L255.982 583.2
L256.651 580.32
L259.33 580.32
L259.999 583.2
L331.646 583.2
L332.316 580.32
L332.986 580.32
L333.655 583.2
L444.809 583.2
L445.478 580.32
L446.148 580.32
L446.818 577.44
L447.487 580.32
L448.157 574.56
L448.826 574.56
L449.496 563.04
L450.166 565.92
L450.835 557.28
L451.505 563.04
L452.174 563.04
L452.844 540
L453.514 551.52
L454.183 565.92
L454.853 557.28
L455.522 563.04
L456.192 551.52
L456.862 557.28
L457.531 554.4
L458.201 540
L458.87 542.88
L459.54 548.64
L460.21 531.36
L460.879 537.12
L461.549 525.6
L462.218 516.96
L462.888 522.72
L463.558 516.96
L464.227 528.48
L464.897 514.08
L465.566 534.24
L466.236 525.6
L466.906 534.24
L467.575 511.2
L468.245 540
L468.914 505.44
L469.584 499.68
L470.254 531.36
L470.923 519.84
L471.593 522.72
L472.262 502.56
L472.932 528.48
L473.602 488.16
L474.271 491.04
L474.941 502.56
L475.61 488.16
L476.28 482.4
L476.95 499.68
L477.619 482.4
L478.289 499.68
L479.628 482.4
L480.298 482.4
L480.967 493.92
L481.637 488.16
L482.306 488.16
L482.976 482.4
L483.646 479.52
L484.315 485.28
L484.985 493.92
L485.654 439.2
L486.324 493.92
L486.994 465.12
L487.663 508.32
L488.333 459.36
L489.002 453.6
L489.672 453.6
L490.342 470.88
L491.011 468
L491.681 459.36
L492.35 444.96
L494.359 462.24
L495.029 479.52
L495.698 468
L496.368 462.24
L497.038 479.52
L497.707 476.64
L499.046 476.64
L499.716 473.76
L500.386 499.68
L501.055 444.96
L501.725 479.52
L502.394 442.08
L503.064 488.16
L503.734 499.68
L504.403 447.84
L505.073 465.12
L505.742 488.16
L506.412 476.64
L507.082 491.04
L507.751 462.24
L508.421 473.76
L509.09 522.72
L509.76 499.68
L510.43 485.28
L511.099 514.08
L511.769 499.68
L512.438 505.44
L513.108 499.68
L513.778 499.68
L514.447 508.32
L515.786 502.56
L516.456 496.8
L517.126 496.8
L517.795 482.4
L518.465 502.56
L519.134 502.56
L519.804 491.04
L520.474 493.92
L521.143 485.28
L521.813 502.56
L522.482 502.56
L523.152 493.92
L523.822 508.32
L524.491 496.8
L525.161 479.52
L525.83 491.04
L526.5 496.8
L527.839 496.8
L528.509 493.92
L529.178 502.56
L530.518 468
L531.187 473.76
L531.857 493.92
L532.526 505.44
L533.196 488.16
L533.866 511.2
L534.535 516.96
L535.205 502.56
L535.874 496.8
L536.544 511.2
L537.214 491.04
L537.883 493.92
L538.553 479.52
L539.222 508.32
L539.892 516.96
L540.562 505.44
L541.231 519.84
L541.901 499.68
L542.57 499.68
L543.24 485.28
L543.91 502.56
L544.579 499.68
L545.249 516.96
L545.918 508.32
L546.588 505.44
L547.258 505.44
L547.927 496.8
L548.597 511.2
L549.266 488.16
L549.936 502.56
L550.606 514.08
L551.275 508.32
L551.945 508.32
L552.614 493.92
L553.284 499.68
L553.954 511.2
L555.293 505.44
L555.962 516.96
L556.632 505.44
L557.302 479.52
L557.971 519.84
L558.641 505.44
L559.31 516.96
L559.98 522.72
L560.65 499.68
L561.319 514.08
L561.989 496.8
L562.658 534.24
L563.328 505.44
L563.998 505.44
L564.667 491.04
L566.006 531.36
L566.676 491.04
L567.346 531.36
L568.015 514.08
L568.685 508.32
L569.354 508.32
L570.024 514.08
L570.694 522.72
L571.363 528.48
L572.033 528.48
L573.372 516.96
L574.042 516.96
L574.711 519.84
L576.05 514.08
L576.72 493.92
L577.39 525.6
L578.059 514.08
L578.729 516.96
L579.398 525.6
L580.068 511.2
L580.738 531.36
L581.407 514.08
L582.077 516.96
L582.746 514.08
L583.416 508.32
L584.086 496.8
L584.755 508.32
L585.425 505.44
L586.094 488.16
L586.764 514.08
L587.434 502.56
L588.103 528.48
L588.773 525.6
L589.442 514.08
L590.112 534.24
L590.782 514.08
L591.451 508.32
L592.121 514.08
L592.79 502.56
L593.46 519.84
L594.13 499.68
L594.799 508.32
L595.469 508.32
L596.138 519.84
L596.808 511.2
L597.478 519.84
L598.147 511.2
L598.817 540
L599.486 493.92
L600.156 516.96
L600.826 531.36
L601.495 496.8
L602.165 502.56
L602.834 488.16
L603.504 516.96
L604.174 511.2
L604.843 528.48
L605.513 522.72
L606.182 514.08
L607.522 519.84
L608.191 528.48
L608.861 519.84
L609.53 531.36
L610.2 537.12
L610.87 519.84
L611.539 534.24
L612.209 525.6
L612.878 525.6
L613.548 534.24
L614.218 499.68
L614.887 528.48
L615.557 534.24
L616.226 548.64
L616.896 540
L617.566 548.64
L618.235 531.36
L618.905 519.84
L619.574 540
L620.244 534.24
L620.914 542.88
L621.583 522.72
L622.253 528.48
L622.922 542.88
L623.592 534.24
L624.262 528.48
L624.931 537.12
L625.601 528.48
L626.27 548.64
L626.94 528.48
L627.61 528.48
L628.279 537.12
L628.949 551.52
L629.618 540
L630.288 551.52
L630.958 528.48
L631.627 540
L632.966 545.76
L633.636 540
L634.306 531.36
L634.975 531.36
L635.645 522.72
L636.314 540
L637.654 534.24
L638.323 542.88
L638.993 554.4
L639.662 548.64
L640.332 528.48
L641.002 531.36
L641.671 551.52
L642.341 548.64
L643.01 528.48
L643.68 531.36
L644.35 548.64
L645.019 540
L645.689 542.88
L646.358 557.28
L647.028 540
L647.698 551.52
L648.367 540
L649.037 531.36
L649.706 531.36
L650.376 540
L651.046 537.12
L651.715 545.76
L652.385 545.76
L653.054 548.64
L653.724 545.76
L654.394 551.52
L655.063 545.76
L656.402 540
L657.072 557.28
L657.742 548.64
L658.411 548.64
L659.081 551.52
L659.75 551.52
L660.42 548.64
L661.09 528.48
L661.759 548.64
L662.429 542.88
L663.098 563.04
L663.768 551.52
L664.438 537.12
L665.107 554.4
L665.777 557.28
L666.446 540
L667.116 545.76
L667.786 548.64
L668.455 554.4
L669.794 554.4
L670.464 545.76
L671.134 542.88
L671.803 557.28
L672.473 563.04
L673.142 548.64
L673.812 554.4
L674.482 554.4
L675.151 545.76
L675.821 542.88
L676.49 557.28
L677.16 563.04
L677.83 545.76
L678.499 545.76
L679.169 551.52
L679.838 548.64
L680.508 548.64
L681.178 557.28
L681.847 557.28
L682.517 560.16
L683.186 551.52
L683.856 563.04
L684.526 548.64
L685.195 548.64
L686.534 554.4
L687.204 565.92
L687.874 554.4
L688.543 557.28
L690.552 548.64
L691.222 551.52
L691.891 545.76
L692.561 551.52
L693.23 551.52
L693.9 542.88
L694.57 560.16
L695.239 563.04
L695.909 563.04
L696.578 557.28
L697.248 557.28
L697.918 551.52
L698.587 551.52
L699.257 554.4
L699.926 560.16
L700.596 563.04
L701.266 557.28
L701.935 565.92
L702.605 563.04
L703.274 563.04
L703.944 557.28
L705.283 563.04
L705.953 560.16
L706.622 568.8
L707.962 574.56
L709.301 574.56
L709.97 571.68
L710.64 571.68
L711.31 574.56
L711.979 574.56
L712.649 577.44
L713.318 574.56
L715.327 574.56
L715.997 571.68
L716.666 577.44
L717.336 568.8
L718.006 563.04
L718.675 565.92
L719.345 565.92
L720.014 563.04
L720.684 563.04
L721.354 565.92
L722.023 560.16
L722.693 568.8
L723.362 571.68
L724.032 568.8
L724.702 563.04
L725.371 563.04
L726.041 557.28
L726.71 557.28
L727.38 563.04
L728.05 560.16
L728.719 565.92
L729.389 568.8
L730.058 565.92
L730.728 571.68
L731.398 563.04
L732.067 560.16
L732.737 568.8
L733.406 568.8
L734.076 577.44
L734.746 574.56
L735.415 577.44
L736.085 577.44
L736.754 571.68
L737.424 568.8
L738.094 568.8
L738.763 565.92
L739.433 571.68
L740.102 568.8
L741.442 574.56
L742.111 571.68
L743.45 577.44
L744.12 574.56
L745.459 574.56
L746.129 583.2
L746.798 577.44
L747.468 568.8
L748.138 568.8
L749.477 580.32
L750.146 580.32
L750.816 577.44
L751.486 583.2
L752.155 580.32
L752.825 574.56
L753.494 574.56
L754.164 577.44
L755.503 577.44
L756.173 580.32
L756.842 580.32
L758.182 574.56
L758.851 574.56
L759.521 577.44
L760.19 568.8
L760.86 565.92
L761.53 565.92
L762.199 571.68
L763.538 565.92
L764.208 560.16
L764.878 560.16
L765.547 563.04
L766.217 571.68
L766.886 565.92
L767.556 565.92
L768.895 571.68
L769.565 571.68
L770.904 577.44
L772.913 577.44
L773.582 574.56
L774.252 574.56
L774.922 577.44
L775.591 574.56
L777.6 574.56
L777.6 574.56" style="fill:none;stroke:#0000ff;stroke-linecap:square;"/>
   </g>
   <g id="patch_3">
    <path d="
M108 64.8
L777.6 64.8" style="fill:none;stroke:#000000;stroke-linecap:square;stroke-linejoin:miter;"/>
   </g>
   <g id="patch_4">
    <path d="
M108 583.2
L777.6 583.2" style="fill:none;stroke:#000000;stroke-linecap:square;stroke-linejoin:miter;"/>
   </g>
   <g id="patch_5">
    <path d="
M777.6 583.2
L777.6 64.8" style="fill:none;stroke:#000000;stroke-linecap:square;stroke-linejoin:miter;"/>
   </g>
   <g id="patch_6">
    <path d="
M108 583.2
L108 64.8" style="fill:none;stroke:#000000;stroke-linecap:square;stroke-linejoin:miter;"/>
   </g>
   <g id="matplotlib.axis_1">
    <g id="xtick_1">
     <g id="line2d_4">
      <defs>
       <path d="
M0 0
L0 -4" id="mc7db9fdffb" style="stroke:#000000;stroke-width:0.5;"/>
      </defs>
      <g>
       <use style="stroke:#000000;stroke-width:0.5;" x="108.0" xlink:href="#mc7db9fdffb" y="583.2"/>
      </g>
     </g>
     <g id="line2d_5">
      <defs>
       <path d="
M0 0
L0 4" id="m5a7d422ac3" style="stroke:#000000;stroke-width:0.5;"/>
      </defs>
      <g>
       <use style="stroke:#000000;stroke-width:0.5;" x="108.0" xlink:href="#m5a7d422ac3" y="64.8"/>
      </g>
     </g>
     <g id="text_1">
      <!-- 0 -->
      <defs>
       <path d="
M31.7812 66.4062
Q24.1719 66.4062 20.3281 58.9062
Q16.5 51.4219 16.5 36.375
Q16.5 21.3906 20.3281 13.8906
Q24.1719 6.39062 31.7812 6.39062
Q39.4531 6.39062 43.2812 13.8906
Q47.125 21.3906 47.125 36.375
Q47.125 51.4219 43.2812 58.9062
Q39.4531 66.4062 31.7812 66.4062
M31.7812 74.2188
Q44.0469 74.2188 50.5156 64.5156
Q56.9844 54.8281 56.9844 36.375
Q56.9844 17.9688 50.5156 8.26562
Q44.0469 -1.42188 31.7812 -1.42188
Q19.5312 -1.42188 13.0625 8.26562
Q6.59375 17.9688 6.59375 36.375
Q6.59375 54.8281 13.0625 64.5156
Q19.5312 74.2188 31.7812 74.2188" id="BitstreamVeraSans-Roman-30"/>
      </defs>
      <g transform="translate(104.9765625 596.318125)scale(0.12 -0.12)">
       <use xlink:href="#BitstreamVeraSans-Roman-30"/>
      </g>
     </g>
    </g>
    <g id="xtick_2">
     <g id="line2d_6">
      <g>
       <use style="stroke:#000000;stroke-width:0.5;" x="275.4" xlink:href="#mc7db9fdffb" y="583.2"/>
      </g>
     </g>
     <g id="line2d_7">
      <g>
       <use style="stroke:#000000;stroke-width:0.5;" x="275.4" xlink:href="#m5a7d422ac3" y="64.8"/>
      </g>
     </g>
     <g id="text_2">
      <!-- 50000 -->
      <defs>
       <path d="
M10.7969 72.9062
L49.5156 72.9062
L49.5156 64.5938
L19.8281 64.5938
L19.8281 46.7344
Q21.9688 47.4688 24.1094 47.8281
Q26.2656 48.1875 28.4219 48.1875
Q40.625 48.1875 47.75 41.5
Q54.8906 34.8125 54.8906 23.3906
Q54.8906 11.625 47.5625 5.09375
Q40.2344 -1.42188 26.9062 -1.42188
Q22.3125 -1.42188 17.5469 -0.640625
Q12.7969 0.140625 7.71875 1.70312
L7.71875 11.625
Q12.1094 9.23438 16.7969 8.0625
Q21.4844 6.89062 26.7031 6.89062
Q35.1562 6.89062 40.0781 11.3281
Q45.0156 15.7656 45.0156 23.3906
Q45.0156 31 40.0781 35.4375
Q35.1562 39.8906 26.7031 39.8906
Q22.75 39.8906 18.8125 39.0156
Q14.8906 38.1406 10.7969 36.2812
z
" id="BitstreamVeraSans-Roman-35"/>
      </defs>
      <g transform="translate(257.1740625 596.318125)scale(0.12 -0.12)">
       <use xlink:href="#BitstreamVeraSans-Roman-35"/>
       <use x="63.623046875" xlink:href="#BitstreamVeraSans-Roman-30"/>
       <use x="127.24609375" xlink:href="#BitstreamVeraSans-Roman-30"/>
       <use x="190.869140625" xlink:href="#BitstreamVeraSans-Roman-30"/>
       <use x="254.4921875" xlink:href="#BitstreamVeraSans-Roman-30"/>
      </g>
     </g>
    </g>
    <g id="xtick_3">
     <g id="line2d_8">
      <g>
       <use style="stroke:#000000;stroke-width:0.5;" x="442.8" xlink:href="#mc7db9fdffb" y="583.2"/>
      </g>
     </g>
     <g id="line2d_9">
      <g>
       <use style="stroke:#000000;stroke-width:0.5;" x="442.8" xlink:href="#m5a7d422ac3" y="64.8"/>
      </g>
     </g>
     <g id="text_3">
      <!-- 100000 -->
      <defs>
       <path d="
M12.4062 8.29688
L28.5156 8.29688
L28.5156 63.9219
L10.9844 60.4062
L10.9844 69.3906
L28.4219 72.9062
L38.2812 72.9062
L38.2812 8.29688
L54.3906 8.29688
L54.3906 0
L12.4062 0
z
" id="BitstreamVeraSans-Roman-31"/>
      </defs>
      <g transform="translate(420.9525 596.318125)scale(0.12 -0.12)">
       <use xlink:href="#BitstreamVeraSans-Roman-31"/>
       <use x="63.623046875" xlink:href="#BitstreamVeraSans-Roman-30"/>
       <use x="127.24609375" xlink:href="#BitstreamVeraSans-Roman-30"/>
       <use x="190.869140625" xlink:href="#BitstreamVeraSans-Roman-30"/>
       <use x="254.4921875" xlink:href="#BitstreamVeraSans-Roman-30"/>
       <use x="318.115234375" xlink:href="#BitstreamVeraSans-Roman-30"/>
      </g>
     </g>
    </g>
    <g id="xtick_4">
     <g id="line2d_10">
      <g>
       <use style="stroke:#000000;stroke-width:0.5;" x="610.2" xlink:href="#mc7db9fdffb" y="583.2"/>
      </g>
     </g>
     <g id="line2d_11">
      <g>
       <use style="stroke:#000000;stroke-width:0.5;" x="610.2" xlink:href="#m5a7d422ac3" y="64.8"/>
      </g>
     </g>
     <g id="text_4">
      <!-- 150000 -->
      <g transform="translate(588.3525 596.318125)scale(0.12 -0.12)">
       <use xlink:href="#BitstreamVeraSans-Roman-31"/>
       <use x="63.623046875" xlink:href="#BitstreamVeraSans-Roman-35"/>
       <use x="127.24609375" xlink:href="#BitstreamVeraSans-Roman-30"/>
       <use x="190.869140625" xlink:href="#BitstreamVeraSans-Roman-30"/>
       <use x="254.4921875" xlink:href="#BitstreamVeraSans-Roman-30"/>
       <use x="318.115234375" xlink:href="#BitstreamVeraSans-Roman-30"/>
      </g>
     </g>
    </g>
    <g id="xtick_5">
     <g id="line2d_12">
      <g>
       <use style="stroke:#000000;stroke-width:0.5;" x="777.6" xlink:href="#mc7db9fdffb" y="583.2"/>
      </g>
     </g>
     <g id="line2d_13">
      <g>
       <use style="stroke:#000000;stroke-width:0.5;" x="777.6" xlink:href="#m5a7d422ac3" y="64.8"/>
      </g>
     </g>
     <g id="text_5">
      <!-- 200000 -->
      <defs>
       <path d="
M19.1875 8.29688
L53.6094 8.29688
L53.6094 0
L7.32812 0
L7.32812 8.29688
Q12.9375 14.1094 22.625 23.8906
Q32.3281 33.6875 34.8125 36.5312
Q39.5469 41.8438 41.4219 45.5312
Q43.3125 49.2188 43.3125 52.7812
Q43.3125 58.5938 39.2344 62.25
Q35.1562 65.9219 28.6094 65.9219
Q23.9688 65.9219 18.8125 64.3125
Q13.6719 62.7031 7.8125 59.4219
L7.8125 69.3906
Q13.7656 71.7812 18.9375 73
Q24.125 74.2188 28.4219 74.2188
Q39.75 74.2188 46.4844 68.5469
Q53.2188 62.8906 53.2188 53.4219
Q53.2188 48.9219 51.5312 44.8906
Q49.8594 40.875 45.4062 35.4062
Q44.1875 33.9844 37.6406 27.2188
Q31.1094 20.4531 19.1875 8.29688" id="BitstreamVeraSans-Roman-32"/>
      </defs>
      <g transform="translate(755.533125 596.318125)scale(0.12 -0.12)">
       <use xlink:href="#BitstreamVeraSans-Roman-32"/>
       <use x="63.623046875" xlink:href="#BitstreamVeraSans-Roman-30"/>
       <use x="127.24609375" xlink:href="#BitstreamVeraSans-Roman-30"/>
       <use x="190.869140625" xlink:href="#BitstreamVeraSans-Roman-30"/>
       <use x="254.4921875" xlink:href="#BitstreamVeraSans-Roman-30"/>
       <use x="318.115234375" xlink:href="#BitstreamVeraSans-Roman-30"/>
      </g>
     </g>
    </g>
    <g id="text_6">
     <!-- t / ms -->
     <defs>
      <path d="
M18.3125 70.2188
L18.3125 54.6875
L36.8125 54.6875
L36.8125 47.7031
L18.3125 47.7031
L18.3125 18.0156
Q18.3125 11.3281 20.1406 9.42188
Q21.9688 7.51562 27.5938 7.51562
L36.8125 7.51562
L36.8125 0
L27.5938 0
Q17.1875 0 13.2344 3.875
Q9.28125 7.76562 9.28125 18.0156
L9.28125 47.7031
L2.6875 47.7031
L2.6875 54.6875
L9.28125 54.6875
L9.28125 70.2188
z
" id="BitstreamVeraSans-Roman-74"/>
      <path id="BitstreamVeraSans-Roman-20"/>
      <path d="
M25.3906 72.9062
L33.6875 72.9062
L8.29688 -9.28125
L0 -9.28125
z
" id="BitstreamVeraSans-Roman-2f"/>
      <path d="
M44.2812 53.0781
L44.2812 44.5781
Q40.4844 46.5312 36.375 47.5
Q32.2812 48.4844 27.875 48.4844
Q21.1875 48.4844 17.8438 46.4375
Q14.5 44.3906 14.5 40.2812
Q14.5 37.1562 16.8906 35.375
Q19.2812 33.5938 26.5156 31.9844
L29.5938 31.2969
Q39.1562 29.25 43.1875 25.5156
Q47.2188 21.7812 47.2188 15.0938
Q47.2188 7.46875 41.1875 3.01562
Q35.1562 -1.42188 24.6094 -1.42188
Q20.2188 -1.42188 15.4531 -0.5625
Q10.6875 0.296875 5.42188 2
L5.42188 11.2812
Q10.4062 8.6875 15.2344 7.39062
Q20.0625 6.10938 24.8125 6.10938
Q31.1562 6.10938 34.5625 8.28125
Q37.9844 10.4531 37.9844 14.4062
Q37.9844 18.0625 35.5156 20.0156
Q33.0625 21.9688 24.7031 23.7812
L21.5781 24.5156
Q13.2344 26.2656 9.51562 29.9062
Q5.8125 33.5469 5.8125 39.8906
Q5.8125 47.6094 11.2812 51.7969
Q16.75 56 26.8125 56
Q31.7812 56 36.1719 55.2656
Q40.5781 54.5469 44.2812 53.0781" id="BitstreamVeraSans-Roman-73"/>
      <path d="
M52 44.1875
Q55.375 50.25 60.0625 53.125
Q64.75 56 71.0938 56
Q79.6406 56 84.2812 50.0156
Q88.9219 44.0469 88.9219 33.0156
L88.9219 0
L79.8906 0
L79.8906 32.7188
Q79.8906 40.5781 77.0938 44.375
Q74.3125 48.1875 68.6094 48.1875
Q61.625 48.1875 57.5625 43.5469
Q53.5156 38.9219 53.5156 30.9062
L53.5156 0
L44.4844 0
L44.4844 32.7188
Q44.4844 40.625 41.7031 44.4062
Q38.9219 48.1875 33.1094 48.1875
Q26.2188 48.1875 22.1562 43.5312
Q18.1094 38.875 18.1094 30.9062
L18.1094 0
L9.07812 0
L9.07812 54.6875
L18.1094 54.6875
L18.1094 46.1875
Q21.1875 51.2188 25.4844 53.6094
Q29.7812 56 35.6875 56
Q41.6562 56 45.8281 52.9688
Q50 49.9531 52 44.1875" id="BitstreamVeraSans-Roman-6d"/>
     </defs>
     <g transform="translate(425.9353125 612.931875)scale(0.12 -0.12)">
      <use xlink:href="#BitstreamVeraSans-Roman-74"/>
      <use x="39.208984375" xlink:href="#BitstreamVeraSans-Roman-20"/>
      <use x="70.99609375" xlink:href="#BitstreamVeraSans-Roman-2f"/>
      <use x="104.6875" xlink:href="#BitstreamVeraSans-Roman-20"/>
      <use x="136.474609375" xlink:href="#BitstreamVeraSans-Roman-6d"/>
      <use x="233.88671875" xlink:href="#BitstreamVeraSans-Roman-73"/>
     </g>
    </g>
   </g>
   <g id="matplotlib.axis_2">
    <g id="ytick_1">
     <g id="line2d_14">
      <defs>
       <path d="
M0 0
L4 0" id="md7965d1ba0" style="stroke:#000000;stroke-width:0.5;"/>
      </defs>
      <g>
       <use style="stroke:#000000;stroke-width:0.5;" x="108.0" xlink:href="#md7965d1ba0" y="583.2"/>
      </g>
     </g>
     <g id="line2d_15">
      <defs>
       <path d="
M0 0
L-4 0" id="md9a1c1a7cd" style="stroke:#000000;stroke-width:0.5;"/>
      </defs>
      <g>
       <use style="stroke:#000000;stroke-width:0.5;" x="777.6" xlink:href="#md9a1c1a7cd" y="583.2"/>
      </g>
     </g>
     <g id="text_7">
      <!-- 0 -->
      <g transform="translate(97.953125 586.51125)scale(0.12 -0.12)">
       <use xlink:href="#BitstreamVeraSans-Roman-30"/>
      </g>
     </g>
    </g>
    <g id="ytick_2">
     <g id="line2d_16">
      <g>
       <use style="stroke:#000000;stroke-width:0.5;" x="108.0" xlink:href="#md7965d1ba0" y="525.6"/>
      </g>
     </g>
     <g id="line2d_17">
      <g>
       <use style="stroke:#000000;stroke-width:0.5;" x="777.6" xlink:href="#md9a1c1a7cd" y="525.6"/>
      </g>
     </g>
     <g id="text_8">
      <!-- 20 -->
      <g transform="translate(90.40625 528.91125)scale(0.12 -0.12)">
       <use xlink:href="#BitstreamVeraSans-Roman-32"/>
       <use x="63.623046875" xlink:href="#BitstreamVeraSans-Roman-30"/>
      </g>
     </g>
    </g>
    <g id="ytick_3">
     <g id="line2d_18">
      <g>
       <use style="stroke:#000000;stroke-width:0.5;" x="108.0" xlink:href="#md7965d1ba0" y="468.0"/>
      </g>
     </g>
     <g id="line2d_19">
      <g>
       <use style="stroke:#000000;stroke-width:0.5;" x="777.6" xlink:href="#md9a1c1a7cd" y="468.0"/>
      </g>
     </g>
     <g id="text_9">
      <!-- 40 -->
      <defs>
       <path d="
M37.7969 64.3125
L12.8906 25.3906
L37.7969 25.3906
z

M35.2031 72.9062
L47.6094 72.9062
L47.6094 25.3906
L58.0156 25.3906
L58.0156 17.1875
L47.6094 17.1875
L47.6094 0
L37.7969 0
L37.7969 17.1875
L4.89062 17.1875
L4.89062 26.7031
z
" id="BitstreamVeraSans-Roman-34"/>
      </defs>
      <g transform="translate(90.11375 471.31125)scale(0.12 -0.12)">
       <use xlink:href="#BitstreamVeraSans-Roman-34"/>
       <use x="63.623046875" xlink:href="#BitstreamVeraSans-Roman-30"/>
      </g>
     </g>
    </g>
    <g id="ytick_4">
     <g id="line2d_20">
      <g>
       <use style="stroke:#000000;stroke-width:0.5;" x="108.0" xlink:href="#md7965d1ba0" y="410.4"/>
      </g>
     </g>
     <g id="line2d_21">
      <g>
       <use style="stroke:#000000;stroke-width:0.5;" x="777.6" xlink:href="#md9a1c1a7cd" y="410.4"/>
      </g>
     </g>
     <g id="text_10">
      <!-- 60 -->
      <defs>
       <path d="
M33.0156 40.375
Q26.375 40.375 22.4844 35.8281
Q18.6094 31.2969 18.6094 23.3906
Q18.6094 15.5312 22.4844 10.9531
Q26.375 6.39062 33.0156 6.39062
Q39.6562 6.39062 43.5312 10.9531
Q47.4062 15.5312 47.4062 23.3906
Q47.4062 31.2969 43.5312 35.8281
Q39.6562 40.375 33.0156 40.375
M52.5938 71.2969
L52.5938 62.3125
Q48.875 64.0625 45.0938 64.9844
Q41.3125 65.9219 37.5938 65.9219
Q27.8281 65.9219 22.6719 59.3281
Q17.5312 52.7344 16.7969 39.4062
Q19.6719 43.6562 24.0156 45.9219
Q28.375 48.1875 33.5938 48.1875
Q44.5781 48.1875 50.9531 41.5156
Q57.3281 34.8594 57.3281 23.3906
Q57.3281 12.1562 50.6875 5.35938
Q44.0469 -1.42188 33.0156 -1.42188
Q20.3594 -1.42188 13.6719 8.26562
Q6.98438 17.9688 6.98438 36.375
Q6.98438 53.6562 15.1875 63.9375
Q23.3906 74.2188 37.2031 74.2188
Q40.9219 74.2188 44.7031 73.4844
Q48.4844 72.75 52.5938 71.2969" id="BitstreamVeraSans-Roman-36"/>
      </defs>
      <g transform="translate(90.365 413.71125)scale(0.12 -0.12)">
       <use xlink:href="#BitstreamVeraSans-Roman-36"/>
       <use x="63.623046875" xlink:href="#BitstreamVeraSans-Roman-30"/>
      </g>
     </g>
    </g>
    <g id="ytick_5">
     <g id="line2d_22">
      <g>
       <use style="stroke:#000000;stroke-width:0.5;" x="108.0" xlink:href="#md7965d1ba0" y="352.8"/>
      </g>
     </g>
     <g id="line2d_23">
      <g>
       <use style="stroke:#000000;stroke-width:0.5;" x="777.6" xlink:href="#md9a1c1a7cd" y="352.8"/>
      </g>
     </g>
     <g id="text_11">
      <!-- 80 -->
      <defs>
       <path d="
M31.7812 34.625
Q24.75 34.625 20.7188 30.8594
Q16.7031 27.0938 16.7031 20.5156
Q16.7031 13.9219 20.7188 10.1562
Q24.75 6.39062 31.7812 6.39062
Q38.8125 6.39062 42.8594 10.1719
Q46.9219 13.9688 46.9219 20.5156
Q46.9219 27.0938 42.8906 30.8594
Q38.875 34.625 31.7812 34.625
M21.9219 38.8125
Q15.5781 40.375 12.0312 44.7188
Q8.5 49.0781 8.5 55.3281
Q8.5 64.0625 14.7188 69.1406
Q20.9531 74.2188 31.7812 74.2188
Q42.6719 74.2188 48.875 69.1406
Q55.0781 64.0625 55.0781 55.3281
Q55.0781 49.0781 51.5312 44.7188
Q48 40.375 41.7031 38.8125
Q48.8281 37.1562 52.7969 32.3125
Q56.7812 27.4844 56.7812 20.5156
Q56.7812 9.90625 50.3125 4.23438
Q43.8438 -1.42188 31.7812 -1.42188
Q19.7344 -1.42188 13.25 4.23438
Q6.78125 9.90625 6.78125 20.5156
Q6.78125 27.4844 10.7812 32.3125
Q14.7969 37.1562 21.9219 38.8125
M18.3125 54.3906
Q18.3125 48.7344 21.8438 45.5625
Q25.3906 42.3906 31.7812 42.3906
Q38.1406 42.3906 41.7188 45.5625
Q45.3125 48.7344 45.3125 54.3906
Q45.3125 60.0625 41.7188 63.2344
Q38.1406 66.4062 31.7812 66.4062
Q25.3906 66.4062 21.8438 63.2344
Q18.3125 60.0625 18.3125 54.3906" id="BitstreamVeraSans-Roman-38"/>
      </defs>
      <g transform="translate(90.340625 356.11125)scale(0.12 -0.12)">
       <use xlink:href="#BitstreamVeraSans-Roman-38"/>
       <use x="63.623046875" xlink:href="#BitstreamVeraSans-Roman-30"/>
      </g>
     </g>
    </g>
    <g id="ytick_6">
     <g id="line2d_24">
      <g>
       <use style="stroke:#000000;stroke-width:0.5;" x="108.0" xlink:href="#md7965d1ba0" y="295.2"/>
      </g>
     </g>
     <g id="line2d_25">
      <g>
       <use style="stroke:#000000;stroke-width:0.5;" x="777.6" xlink:href="#md9a1c1a7cd" y="295.2"/>
      </g>
     </g>
     <g id="text_12">
      <!-- 100 -->
      <g transform="translate(83.21 298.51125)scale(0.12 -0.12)">
       <use xlink:href="#BitstreamVeraSans-Roman-31"/>
       <use x="63.623046875" xlink:href="#BitstreamVeraSans-Roman-30"/>
       <use x="127.24609375" xlink:href="#BitstreamVeraSans-Roman-30"/>
      </g>
     </g>
    </g>
    <g id="ytick_7">
     <g id="line2d_26">
      <g>
       <use style="stroke:#000000;stroke-width:0.5;" x="108.0" xlink:href="#md7965d1ba0" y="237.6"/>
      </g>
     </g>
     <g id="line2d_27">
      <g>
       <use style="stroke:#000000;stroke-width:0.5;" x="777.6" xlink:href="#md9a1c1a7cd" y="237.6"/>
      </g>
     </g>
     <g id="text_13">
      <!-- 120 -->
      <g transform="translate(83.21 240.91125)scale(0.12 -0.12)">
       <use xlink:href="#BitstreamVeraSans-Roman-31"/>
       <use x="63.623046875" xlink:href="#BitstreamVeraSans-Roman-32"/>
       <use x="127.24609375" xlink:href="#BitstreamVeraSans-Roman-30"/>
      </g>
     </g>
    </g>
    <g id="ytick_8">
     <g id="line2d_28">
      <g>
       <use style="stroke:#000000;stroke-width:0.5;" x="108.0" xlink:href="#md7965d1ba0" y="180.0"/>
      </g>
     </g>
     <g id="line2d_29">
      <g>
       <use style="stroke:#000000;stroke-width:0.5;" x="777.6" xlink:href="#md9a1c1a7cd" y="180.0"/>
      </g>
     </g>
     <g id="text_14">
      <!-- 140 -->
      <g transform="translate(83.21 183.31125)scale(0.12 -0.12)">
       <use xlink:href="#BitstreamVeraSans-Roman-31"/>
       <use x="63.623046875" xlink:href="#BitstreamVeraSans-Roman-34"/>
       <use x="127.24609375" xlink:href="#BitstreamVeraSans-Roman-30"/>
      </g>
     </g>
    </g>
    <g id="ytick_9">
     <g id="line2d_30">
      <g>
       <use style="stroke:#000000;stroke-width:0.5;" x="108.0" xlink:href="#md7965d1ba0" y="122.4"/>
      </g>
     </g>
     <g id="line2d_31">
      <g>
       <use style="stroke:#000000;stroke-width:0.5;" x="777.6" xlink:href="#md9a1c1a7cd" y="122.4"/>
      </g>
     </g>
     <g id="text_15">
      <!-- 160 -->
      <g transform="translate(83.21 125.71125)scale(0.12 -0.12)">
       <use xlink:href="#BitstreamVeraSans-Roman-31"/>
       <use x="63.623046875" xlink:href="#BitstreamVeraSans-Roman-36"/>
       <use x="127.24609375" xlink:href="#BitstreamVeraSans-Roman-30"/>
      </g>
     </g>
    </g>
    <g id="ytick_10">
     <g id="line2d_32">
      <g>
       <use style="stroke:#000000;stroke-width:0.5;" x="108.0" xlink:href="#md7965d1ba0" y="64.8"/>
      </g>
     </g>
     <g id="line2d_33">
      <g>
       <use style="stroke:#000000;stroke-width:0.5;" x="777.6" xlink:href="#md9a1c1a7cd" y="64.8"/>
      </g>
     </g>
     <g id="text_16">
      <!-- 180 -->
      <g transform="translate(83.21 68.11125)scale(0.12 -0.12)">
       <use xlink:href="#BitstreamVeraSans-Roman-31"/>
       <use x="63.623046875" xlink:href="#BitstreamVeraSans-Roman-38"/>
       <use x="127.24609375" xlink:href="#BitstreamVeraSans-Roman-30"/>
      </g>
     </g>
    </g>
    <g id="text_17">
     <!-- particle numbers -->
     <defs>
      <path d="
M48.7812 52.5938
L48.7812 44.1875
Q44.9688 46.2969 41.1406 47.3438
Q37.3125 48.3906 33.4062 48.3906
Q24.6562 48.3906 19.8125 42.8438
Q14.9844 37.3125 14.9844 27.2969
Q14.9844 17.2812 19.8125 11.7344
Q24.6562 6.20312 33.4062 6.20312
Q37.3125 6.20312 41.1406 7.25
Q44.9688 8.29688 48.7812 10.4062
L48.7812 2.09375
Q45.0156 0.34375 40.9844 -0.53125
Q36.9688 -1.42188 32.4219 -1.42188
Q20.0625 -1.42188 12.7812 6.34375
Q5.51562 14.1094 5.51562 27.2969
Q5.51562 40.6719 12.8594 48.3281
Q20.2188 56 33.0156 56
Q37.1562 56 41.1094 55.1406
Q45.0625 54.2969 48.7812 52.5938" id="BitstreamVeraSans-Roman-63"/>
      <path d="
M41.1094 46.2969
Q39.5938 47.1719 37.8125 47.5781
Q36.0312 48 33.8906 48
Q26.2656 48 22.1875 43.0469
Q18.1094 38.0938 18.1094 28.8125
L18.1094 0
L9.07812 0
L9.07812 54.6875
L18.1094 54.6875
L18.1094 46.1875
Q20.9531 51.1719 25.4844 53.5781
Q30.0312 56 36.5312 56
Q37.4531 56 38.5781 55.875
Q39.7031 55.7656 41.0625 55.5156
z
" id="BitstreamVeraSans-Roman-72"/>
      <path d="
M56.2031 29.5938
L56.2031 25.2031
L14.8906 25.2031
Q15.4844 15.9219 20.4844 11.0625
Q25.4844 6.20312 34.4219 6.20312
Q39.5938 6.20312 44.4531 7.46875
Q49.3125 8.73438 54.1094 11.2812
L54.1094 2.78125
Q49.2656 0.734375 44.1875 -0.34375
Q39.1094 -1.42188 33.8906 -1.42188
Q20.7969 -1.42188 13.1562 6.1875
Q5.51562 13.8125 5.51562 26.8125
Q5.51562 40.2344 12.7656 48.1094
Q20.0156 56 32.3281 56
Q43.3594 56 49.7812 48.8906
Q56.2031 41.7969 56.2031 29.5938
M47.2188 32.2344
Q47.125 39.5938 43.0938 43.9844
Q39.0625 48.3906 32.4219 48.3906
Q24.9062 48.3906 20.3906 44.1406
Q15.875 39.8906 15.1875 32.1719
z
" id="BitstreamVeraSans-Roman-65"/>
      <path d="
M9.42188 75.9844
L18.4062 75.9844
L18.4062 0
L9.42188 0
z
" id="BitstreamVeraSans-Roman-6c"/>
      <path d="
M8.5 21.5781
L8.5 54.6875
L17.4844 54.6875
L17.4844 21.9219
Q17.4844 14.1562 20.5 10.2656
Q23.5312 6.39062 29.5938 6.39062
Q36.8594 6.39062 41.0781 11.0312
Q45.3125 15.6719 45.3125 23.6875
L45.3125 54.6875
L54.2969 54.6875
L54.2969 0
L45.3125 0
L45.3125 8.40625
Q42.0469 3.42188 37.7188 1
Q33.4062 -1.42188 27.6875 -1.42188
Q18.2656 -1.42188 13.375 4.4375
Q8.5 10.2969 8.5 21.5781" id="BitstreamVeraSans-Roman-75"/>
      <path d="
M18.1094 8.20312
L18.1094 -20.7969
L9.07812 -20.7969
L9.07812 54.6875
L18.1094 54.6875
L18.1094 46.3906
Q20.9531 51.2656 25.2656 53.625
Q29.5938 56 35.5938 56
Q45.5625 56 51.7812 48.0938
Q58.0156 40.1875 58.0156 27.2969
Q58.0156 14.4062 51.7812 6.48438
Q45.5625 -1.42188 35.5938 -1.42188
Q29.5938 -1.42188 25.2656 0.953125
Q20.9531 3.32812 18.1094 8.20312
M48.6875 27.2969
Q48.6875 37.2031 44.6094 42.8438
Q40.5312 48.4844 33.4062 48.4844
Q26.2656 48.4844 22.1875 42.8438
Q18.1094 37.2031 18.1094 27.2969
Q18.1094 17.3906 22.1875 11.75
Q26.2656 6.10938 33.4062 6.10938
Q40.5312 6.10938 44.6094 11.75
Q48.6875 17.3906 48.6875 27.2969" id="BitstreamVeraSans-Roman-70"/>
      <path d="
M54.8906 33.0156
L54.8906 0
L45.9062 0
L45.9062 32.7188
Q45.9062 40.4844 42.875 44.3281
Q39.8438 48.1875 33.7969 48.1875
Q26.5156 48.1875 22.3125 43.5469
Q18.1094 38.9219 18.1094 30.9062
L18.1094 0
L9.07812 0
L9.07812 54.6875
L18.1094 54.6875
L18.1094 46.1875
Q21.3438 51.125 25.7031 53.5625
Q30.0781 56 35.7969 56
Q45.2188 56 50.0469 50.1719
Q54.8906 44.3438 54.8906 33.0156" id="BitstreamVeraSans-Roman-6e"/>
      <path d="
M34.2812 27.4844
Q23.3906 27.4844 19.1875 25
Q14.9844 22.5156 14.9844 16.5
Q14.9844 11.7188 18.1406 8.90625
Q21.2969 6.10938 26.7031 6.10938
Q34.1875 6.10938 38.7031 11.4062
Q43.2188 16.7031 43.2188 25.4844
L43.2188 27.4844
z

M52.2031 31.2031
L52.2031 0
L43.2188 0
L43.2188 8.29688
Q40.1406 3.32812 35.5469 0.953125
Q30.9531 -1.42188 24.3125 -1.42188
Q15.9219 -1.42188 10.9531 3.29688
Q6 8.01562 6 15.9219
Q6 25.1406 12.1719 29.8281
Q18.3594 34.5156 30.6094 34.5156
L43.2188 34.5156
L43.2188 35.4062
Q43.2188 41.6094 39.1406 45
Q35.0625 48.3906 27.6875 48.3906
Q23 48.3906 18.5469 47.2656
Q14.1094 46.1406 10.0156 43.8906
L10.0156 52.2031
Q14.9375 54.1094 19.5781 55.0469
Q24.2188 56 28.6094 56
Q40.4844 56 46.3438 49.8438
Q52.2031 43.7031 52.2031 31.2031" id="BitstreamVeraSans-Roman-61"/>
      <path d="
M48.6875 27.2969
Q48.6875 37.2031 44.6094 42.8438
Q40.5312 48.4844 33.4062 48.4844
Q26.2656 48.4844 22.1875 42.8438
Q18.1094 37.2031 18.1094 27.2969
Q18.1094 17.3906 22.1875 11.75
Q26.2656 6.10938 33.4062 6.10938
Q40.5312 6.10938 44.6094 11.75
Q48.6875 17.3906 48.6875 27.2969
M18.1094 46.3906
Q20.9531 51.2656 25.2656 53.625
Q29.5938 56 35.5938 56
Q45.5625 56 51.7812 48.0938
Q58.0156 40.1875 58.0156 27.2969
Q58.0156 14.4062 51.7812 6.48438
Q45.5625 -1.42188 35.5938 -1.42188
Q29.5938 -1.42188 25.2656 0.953125
Q20.9531 3.32812 18.1094 8.20312
L18.1094 0
L9.07812 0
L9.07812 75.9844
L18.1094 75.9844
z
" id="BitstreamVeraSans-Roman-62"/>
      <path d="
M9.42188 54.6875
L18.4062 54.6875
L18.4062 0
L9.42188 0
z

M9.42188 75.9844
L18.4062 75.9844
L18.4062 64.5938
L9.42188 64.5938
z
" id="BitstreamVeraSans-Roman-69"/>
     </defs>
     <g transform="translate(75.714375 374.78625)rotate(-90.0)scale(0.12 -0.12)">
      <use xlink:href="#BitstreamVeraSans-Roman-70"/>
      <use x="63.4765625" xlink:href="#BitstreamVeraSans-Roman-61"/>
      <use x="124.755859375" xlink:href="#BitstreamVeraSans-Roman-72"/>
      <use x="165.869140625" xlink:href="#BitstreamVeraSans-Roman-74"/>
      <use x="205.078125" xlink:href="#BitstreamVeraSans-Roman-69"/>
      <use x="232.861328125" xlink:href="#BitstreamVeraSans-Roman-63"/>
      <use x="287.841796875" xlink:href="#BitstreamVeraSans-Roman-6c"/>
      <use x="315.625" xlink:href="#BitstreamVeraSans-Roman-65"/>
      <use x="377.1484375" xlink:href="#BitstreamVeraSans-Roman-20"/>
      <use x="408.935546875" xlink:href="#BitstreamVeraSans-Roman-6e"/>
      <use x="472.314453125" xlink:href="#BitstreamVeraSans-Roman-75"/>
      <use x="535.693359375" xlink:href="#BitstreamVeraSans-Roman-6d"/>
      <use x="633.10546875" xlink:href="#BitstreamVeraSans-Roman-62"/>
      <use x="696.58203125" xlink:href="#BitstreamVeraSans-Roman-65"/>
      <use x="758.10546875" xlink:href="#BitstreamVeraSans-Roman-72"/>
      <use x="799.21875" xlink:href="#BitstreamVeraSans-Roman-73"/>
     </g>
    </g>
   </g>
   <g id="legend_1">
    <g id="patch_7">
     <path d="
M696.824 101.224
L774.1 101.224
L774.1 68.3
L696.824 68.3
z
" style="fill:#ffffff;stroke:#000000;stroke-linejoin:miter;"/>
    </g>
    <g id="line2d_34">
     <path d="
M701.724 73.9689
L711.524 73.9689" style="fill:none;stroke:#ff0000;stroke-linecap:square;"/>
    </g>
    <g id="line2d_35"/>
    <g id="text_18">
     <!-- PDE2cAMP el.0 -->
     <defs>
      <path d="
M34.1875 63.1875
L20.7969 26.9062
L47.6094 26.9062
z

M28.6094 72.9062
L39.7969 72.9062
L67.5781 0
L57.3281 0
L50.6875 18.7031
L17.8281 18.7031
L11.1875 0
L0.78125 0
z
" id="BitstreamVeraSans-Roman-41"/>
      <path d="
M19.6719 64.7969
L19.6719 37.4062
L32.0781 37.4062
Q38.9688 37.4062 42.7188 40.9688
Q46.4844 44.5312 46.4844 51.125
Q46.4844 57.6719 42.7188 61.2344
Q38.9688 64.7969 32.0781 64.7969
z

M9.8125 72.9062
L32.0781 72.9062
Q44.3438 72.9062 50.6094 67.3594
Q56.8906 61.8125 56.8906 51.125
Q56.8906 40.3281 50.6094 34.8125
Q44.3438 29.2969 32.0781 29.2969
L19.6719 29.2969
L19.6719 0
L9.8125 0
z
" id="BitstreamVeraSans-Roman-50"/>
      <path d="
M9.8125 72.9062
L55.9062 72.9062
L55.9062 64.5938
L19.6719 64.5938
L19.6719 43.0156
L54.3906 43.0156
L54.3906 34.7188
L19.6719 34.7188
L19.6719 8.29688
L56.7812 8.29688
L56.7812 0
L9.8125 0
z
" id="BitstreamVeraSans-Roman-45"/>
      <path d="
M9.8125 72.9062
L24.5156 72.9062
L43.1094 23.2969
L61.8125 72.9062
L76.5156 72.9062
L76.5156 0
L66.8906 0
L66.8906 64.0156
L48.0938 14.0156
L38.1875 14.0156
L19.3906 64.0156
L19.3906 0
L9.8125 0
z
" id="BitstreamVeraSans-Roman-4d"/>
      <path d="
M10.6875 12.4062
L21 12.4062
L21 0
L10.6875 0
z
" id="BitstreamVeraSans-Roman-2e"/>
      <path d="
M19.6719 64.7969
L19.6719 8.10938
L31.5938 8.10938
Q46.6875 8.10938 53.6875 14.9375
Q60.6875 21.7812 60.6875 36.5312
Q60.6875 51.1719 53.6875 57.9844
Q46.6875 64.7969 31.5938 64.7969
z

M9.8125 72.9062
L30.0781 72.9062
Q51.2656 72.9062 61.1719 64.0938
Q71.0938 55.2812 71.0938 36.5312
Q71.0938 17.6719 61.125 8.82812
Q51.1719 0 30.0781 0
L9.8125 0
z
" id="BitstreamVeraSans-Roman-44"/>
     </defs>
     <g transform="translate(719.224375 76.41890625)scale(0.07 -0.07)">
      <use xlink:href="#BitstreamVeraSans-Roman-50"/>
      <use x="60.302734375" xlink:href="#BitstreamVeraSans-Roman-44"/>
      <use x="137.3046875" xlink:href="#BitstreamVeraSans-Roman-45"/>
      <use x="200.48828125" xlink:href="#BitstreamVeraSans-Roman-32"/>
      <use x="264.111328125" xlink:href="#BitstreamVeraSans-Roman-63"/>
      <use x="319.091796875" xlink:href="#BitstreamVeraSans-Roman-41"/>
      <use x="387.5" xlink:href="#BitstreamVeraSans-Roman-4d"/>
      <use x="473.779296875" xlink:href="#BitstreamVeraSans-Roman-50"/>
      <use x="534.08203125" xlink:href="#BitstreamVeraSans-Roman-20"/>
      <use x="565.869140625" xlink:href="#BitstreamVeraSans-Roman-65"/>
      <use x="627.392578125" xlink:href="#BitstreamVeraSans-Roman-6c"/>
      <use x="655.17578125" xlink:href="#BitstreamVeraSans-Roman-2e"/>
      <use x="686.962890625" xlink:href="#BitstreamVeraSans-Roman-30"/>
     </g>
    </g>
    <g id="line2d_36">
     <path d="
M701.724 84.2436
L711.524 84.2436" style="fill:none;stroke:#008000;stroke-linecap:square;"/>
    </g>
    <g id="line2d_37"/>
    <g id="text_19">
     <!-- PDE2cAMP el.1 -->
     <g transform="translate(719.224375 86.69359375)scale(0.07 -0.07)">
      <use xlink:href="#BitstreamVeraSans-Roman-50"/>
      <use x="60.302734375" xlink:href="#BitstreamVeraSans-Roman-44"/>
      <use x="137.3046875" xlink:href="#BitstreamVeraSans-Roman-45"/>
      <use x="200.48828125" xlink:href="#BitstreamVeraSans-Roman-32"/>
      <use x="264.111328125" xlink:href="#BitstreamVeraSans-Roman-63"/>
      <use x="319.091796875" xlink:href="#BitstreamVeraSans-Roman-41"/>
      <use x="387.5" xlink:href="#BitstreamVeraSans-Roman-4d"/>
      <use x="473.779296875" xlink:href="#BitstreamVeraSans-Roman-50"/>
      <use x="534.08203125" xlink:href="#BitstreamVeraSans-Roman-20"/>
      <use x="565.869140625" xlink:href="#BitstreamVeraSans-Roman-65"/>
      <use x="627.392578125" xlink:href="#BitstreamVeraSans-Roman-6c"/>
      <use x="655.17578125" xlink:href="#BitstreamVeraSans-Roman-2e"/>
      <use x="686.962890625" xlink:href="#BitstreamVeraSans-Roman-31"/>
     </g>
    </g>
    <g id="line2d_38">
     <path d="
M701.724 94.5183
L711.524 94.5183" style="fill:none;stroke:#0000ff;stroke-linecap:square;"/>
    </g>
    <g id="line2d_39"/>
    <g id="text_20">
     <!-- PDE2cAMP el.2 -->
     <g transform="translate(719.224375 96.96828125)scale(0.07 -0.07)">
      <use xlink:href="#BitstreamVeraSans-Roman-50"/>
      <use x="60.302734375" xlink:href="#BitstreamVeraSans-Roman-44"/>
      <use x="137.3046875" xlink:href="#BitstreamVeraSans-Roman-45"/>
      <use x="200.48828125" xlink:href="#BitstreamVeraSans-Roman-32"/>
      <use x="264.111328125" xlink:href="#BitstreamVeraSans-Roman-63"/>
      <use x="319.091796875" xlink:href="#BitstreamVeraSans-Roman-41"/>
      <use x="387.5" xlink:href="#BitstreamVeraSans-Roman-4d"/>
      <use x="473.779296875" xlink:href="#BitstreamVeraSans-Roman-50"/>
      <use x="534.08203125" xlink:href="#BitstreamVeraSans-Roman-20"/>
      <use x="565.869140625" xlink:href="#BitstreamVeraSans-Roman-65"/>
      <use x="627.392578125" xlink:href="#BitstreamVeraSans-Roman-6c"/>
      <use x="655.17578125" xlink:href="#BitstreamVeraSans-Roman-2e"/>
      <use x="686.962890625" xlink:href="#BitstreamVeraSans-Roman-32"/>
     </g>
    </g>
   </g>
  </g>
 </g>
 <defs>
  <clipPath id="p7ceb695115">
   <rect height="518.4" width="669.6" x="108.0" y="64.8"/>
  </clipPath>
 </defs>
</svg>
