<?xml version="1.0" encoding="utf-8" standalone="no"?>
<!DOCTYPE svg PUBLIC "-//W3C//DTD SVG 1.1//EN"
  "http://www.w3.org/Graphics/SVG/1.1/DTD/svg11.dtd">
<!-- Created with matplotlib (http://matplotlib.org/) -->
<svg height="648pt" version="1.1" viewBox="0 0 864 648" width="864pt" xmlns="http://www.w3.org/2000/svg" xmlns:xlink="http://www.w3.org/1999/xlink">
 <defs>
  <style type="text/css">
*{stroke-linecap:butt;stroke-linejoin:round;}
  </style>
 </defs>
 <g id="figure_1">
  <g id="patch_1">
   <path d="
M0 648
L864 648
L864 0
L0 0
z
" style="fill:#ffffff;"/>
  </g>
  <g id="axes_1">
   <g id="patch_2">
    <path d="
M108 583.2
L777.6 583.2
L777.6 64.8
L108 64.8
z
" style="fill:#ffffff;"/>
   </g>
   <g id="line2d_1">
    <path clip-path="url(#p7ceb695115)" d="
M108 583.2
L145.498 583.2
L146.167 580.238
L147.506 580.238
L148.846 583.2
L149.515 583.2
L150.185 581.719
L153.533 581.719
L154.202 583.2
L155.542 583.2
L156.211 580.238
L156.881 580.238
L158.22 583.2
L160.898 577.275
L161.568 581.719
L162.238 581.719
L162.907 580.238
L163.577 580.238
L164.246 577.275
L164.916 578.757
L165.586 577.275
L166.925 583.2
L167.594 583.2
L168.264 580.238
L168.934 578.757
L169.603 580.238
L170.273 580.238
L170.942 581.719
L171.612 581.719
L173.621 577.275
L174.29 581.719
L174.96 583.2
L176.299 580.238
L176.969 583.2
L177.638 580.238
L178.978 580.238
L179.647 575.794
L180.317 575.794
L180.986 577.275
L181.656 577.275
L182.995 580.238
L183.665 580.238
L184.334 578.757
L185.004 578.757
L185.674 581.719
L186.343 578.757
L187.013 580.238
L189.022 580.238
L189.691 578.757
L191.03 581.719
L191.7 581.719
L193.039 578.757
L193.709 580.238
L194.378 575.794
L195.048 577.275
L195.718 580.238
L196.387 580.238
L197.057 581.719
L198.396 578.757
L199.066 578.757
L199.735 580.238
L200.405 578.757
L201.074 583.2
L202.414 580.238
L203.083 577.275
L203.753 578.757
L204.422 581.719
L205.762 581.719
L206.431 580.238
L207.101 580.238
L207.77 578.757
L209.11 581.719
L210.449 578.757
L211.118 578.757
L211.788 577.275
L212.458 581.719
L213.127 580.238
L213.797 583.2
L214.466 581.719
L215.136 583.2
L215.806 583.2
L216.475 580.238
L217.814 583.2
L218.484 581.719
L219.154 581.719
L219.823 580.238
L220.493 581.719
L221.162 578.757
L221.832 580.238
L223.841 580.238
L224.51 583.2
L225.18 580.238
L225.85 581.719
L226.519 580.238
L227.189 580.238
L227.858 581.719
L228.528 581.719
L229.198 580.238
L231.206 580.238
L231.876 581.719
L232.546 581.719
L233.215 583.2
L233.885 580.238
L234.554 581.719
L235.894 581.719
L236.563 583.2
L237.233 580.238
L238.572 583.2
L239.242 580.238
L239.911 581.719
L240.581 580.238
L241.25 580.238
L241.92 581.719
L243.259 581.719
L243.929 580.238
L245.268 580.238
L245.938 578.757
L246.607 578.757
L247.277 581.719
L249.955 581.719
L250.625 580.238
L252.634 580.238
L253.303 583.2
L253.973 583.2
L254.642 578.757
L255.312 581.719
L255.982 580.238
L257.321 580.238
L257.99 581.719
L258.66 578.757
L259.33 581.719
L259.999 578.757
L260.669 580.238
L261.338 578.757
L263.347 583.2
L264.686 580.238
L265.356 583.2
L266.026 583.2
L267.365 580.238
L268.034 581.719
L268.704 581.719
L269.374 580.238
L270.043 583.2
L270.713 580.238
L271.382 581.719
L272.052 580.238
L273.391 583.2
L274.061 581.719
L274.73 583.2
L280.087 583.2
L280.757 580.238
L281.426 581.719
L282.096 580.238
L282.766 581.719
L283.435 578.757
L284.105 583.2
L285.444 580.238
L286.114 583.2
L287.453 580.238
L288.122 580.238
L288.792 581.719
L289.462 580.238
L290.131 580.238
L291.47 583.2
L292.14 580.238
L292.81 580.238
L294.149 583.2
L294.818 580.238
L295.488 581.719
L296.158 581.719
L297.497 578.757
L298.166 578.757
L298.836 581.719
L299.506 583.2
L300.175 581.719
L300.845 583.2
L302.184 580.238
L302.854 581.719
L303.523 581.719
L304.193 583.2
L306.871 583.2
L307.541 580.238
L308.21 580.238
L308.88 581.719
L309.55 577.275
L310.219 580.238
L310.889 581.719
L312.898 581.719
L313.567 583.2
L314.237 581.719
L316.246 581.719
L316.915 583.2
L317.585 583.2
L318.254 581.719
L319.594 581.719
L320.263 583.2
L320.933 581.719
L321.602 581.719
L322.272 583.2
L322.942 583.2
L323.611 581.719
L324.95 581.719
L325.62 583.2
L326.29 580.238
L326.959 581.719
L327.629 581.719
L328.298 583.2
L328.968 580.238
L329.638 583.2
L330.307 583.2
L330.977 581.719
L331.646 581.719
L332.316 578.757
L332.986 581.719
L333.655 580.238
L334.325 583.2
L334.994 580.238
L335.664 581.719
L336.334 581.719
L337.003 583.2
L337.673 581.719
L339.012 581.719
L339.682 580.238
L340.351 580.238
L341.021 577.275
L341.69 578.757
L342.36 578.757
L343.699 581.719
L345.708 581.719
L346.378 583.2
L347.047 581.719
L347.717 581.719
L348.386 583.2
L349.056 583.2
L350.395 580.238
L351.065 581.719
L351.734 580.238
L352.404 581.719
L353.074 580.238
L353.743 581.719
L354.413 581.719
L355.082 583.2
L357.091 583.2
L357.761 581.719
L358.43 583.2
L359.1 583.2
L359.77 581.719
L361.109 581.719
L361.778 583.2
L362.448 581.719
L363.118 583.2
L363.787 581.719
L364.457 583.2
L365.126 580.238
L365.796 580.238
L366.466 583.2
L367.135 581.719
L367.805 581.719
L368.474 583.2
L369.144 583.2
L369.814 580.238
L370.483 581.719
L371.153 581.719
L371.822 583.2
L372.492 581.719
L373.162 583.2
L377.849 583.2
L378.518 581.719
L379.858 581.719
L380.527 580.238
L381.866 583.2
L387.223 583.2
L387.893 581.719
L388.562 583.2
L389.232 580.238
L389.902 583.2
L392.58 583.2
L393.25 580.238
L393.919 580.238
L394.589 583.2
L395.258 583.2
L395.928 581.719
L397.267 581.719
L397.937 583.2
L398.606 580.238
L399.276 583.2
L400.615 583.2
L401.285 581.719
L401.954 581.719
L402.624 583.2
L403.294 583.2
L404.633 580.238
L405.302 583.2
L406.642 583.2
L407.311 581.719
L407.981 581.719
L408.65 583.2
L409.32 581.719
L409.99 583.2
L418.025 583.2
L418.694 581.719
L419.364 581.719
L420.034 583.2
L420.703 581.719
L421.373 583.2
L422.042 583.2
L422.712 581.719
L424.051 581.719
L424.721 583.2
L425.39 581.719
L428.069 581.719
L428.738 583.2
L436.774 583.2
L437.443 581.719
L438.113 581.719
L438.782 583.2
L439.452 581.719
L440.122 583.2
L440.791 581.719
L441.461 583.2
L442.13 583.2
L442.8 581.719
L443.47 581.719
L444.139 583.2
L446.818 583.2
L447.487 580.238
L448.157 581.719
L448.826 574.313
L449.496 572.832
L450.166 572.832
L450.835 575.794
L452.174 549.134
L452.844 556.539
L453.514 553.577
L454.183 518.03
L454.853 516.549
L455.522 495.813
L456.192 520.992
L456.862 512.105
L457.531 482.482
L458.201 486.926
L458.87 483.963
L459.54 489.888
L460.21 491.369
L460.879 488.407
L461.549 479.52
L462.218 483.963
L462.888 494.331
L463.558 452.859
L464.227 472.114
L464.897 464.709
L465.566 478.039
L466.236 463.227
L466.906 473.595
L467.575 455.822
L468.245 476.558
L468.914 486.926
L469.584 485.445
L470.254 463.227
L470.923 483.963
L471.593 461.746
L472.262 488.407
L472.932 481.001
L473.602 467.671
L474.271 476.558
L474.941 494.331
L475.61 481.001
L476.28 478.039
L476.95 454.341
L477.619 464.709
L478.289 454.341
L478.958 454.341
L479.628 442.491
L480.298 460.265
L480.967 472.114
L481.637 491.369
L482.306 460.265
L482.976 478.039
L483.646 479.52
L484.315 463.227
L484.985 460.265
L485.654 473.595
L486.324 479.52
L486.994 489.888
L487.663 481.001
L488.333 481.001
L489.002 485.445
L489.672 485.445
L490.342 479.52
L491.011 467.671
L491.681 476.558
L492.35 473.595
L493.02 476.558
L493.69 482.482
L494.359 464.709
L495.029 475.077
L495.698 506.181
L496.368 466.19
L497.038 483.963
L497.707 486.926
L498.377 481.001
L499.046 479.52
L499.716 481.001
L500.386 485.445
L501.055 513.586
L501.725 470.633
L502.394 449.897
L503.064 486.926
L503.734 476.558
L504.403 481.001
L505.073 481.001
L505.742 498.775
L506.412 492.85
L507.082 470.633
L507.751 504.699
L509.09 481.001
L509.76 504.699
L510.43 486.926
L511.099 504.699
L511.769 506.181
L512.438 486.926
L513.108 500.256
L513.778 497.294
L514.447 506.181
L515.117 469.152
L515.786 464.709
L516.456 525.435
L517.126 501.737
L517.795 500.256
L518.465 516.549
L519.134 510.624
L519.804 492.85
L520.474 488.407
L521.143 506.181
L521.813 466.19
L522.482 483.963
L523.152 483.963
L523.822 488.407
L524.491 507.662
L525.161 492.85
L525.83 461.746
L526.5 469.152
L527.17 519.511
L527.839 472.114
L528.509 483.963
L529.178 512.105
L529.848 503.218
L530.518 497.294
L531.187 506.181
L531.857 498.775
L532.526 494.331
L533.196 509.143
L533.866 489.888
L535.205 520.992
L535.874 512.105
L536.544 512.105
L537.214 504.699
L538.553 498.775
L539.222 500.256
L539.892 516.549
L540.562 503.218
L541.231 495.813
L541.901 501.737
L542.57 479.52
L543.24 506.181
L543.91 498.775
L544.579 515.067
L545.249 523.954
L545.918 504.699
L546.588 509.143
L547.258 498.775
L547.927 506.181
L548.597 481.001
L549.266 507.662
L549.936 488.407
L550.606 486.926
L551.275 516.549
L551.945 504.699
L552.614 507.662
L553.284 512.105
L553.954 501.737
L554.623 512.105
L555.293 526.917
L555.962 501.737
L556.632 523.954
L557.302 537.285
L557.971 518.03
L558.641 520.992
L559.31 520.992
L559.98 498.775
L560.65 507.662
L561.319 507.662
L561.989 503.218
L562.658 507.662
L563.328 510.624
L563.998 478.039
L564.667 515.067
L565.337 538.766
L566.006 491.369
L566.676 486.926
L567.346 518.03
L568.015 503.218
L568.685 509.143
L569.354 497.294
L570.024 515.067
L570.694 492.85
L571.363 504.699
L572.033 495.813
L572.702 476.558
L573.372 491.369
L574.042 501.737
L574.711 497.294
L575.381 479.52
L576.05 503.218
L576.72 513.586
L577.39 503.218
L578.059 522.473
L578.729 504.699
L579.398 515.067
L580.068 504.699
L580.738 513.586
L581.407 518.03
L582.077 529.879
L582.746 509.143
L583.416 504.699
L584.086 515.067
L584.755 513.586
L586.094 522.473
L586.764 500.256
L587.434 523.954
L588.103 518.03
L588.773 506.181
L589.442 516.549
L590.112 523.954
L590.782 526.917
L591.451 522.473
L592.121 540.247
L592.79 513.586
L593.46 494.331
L594.13 519.511
L595.469 513.586
L596.138 523.954
L596.808 510.624
L597.478 529.879
L598.147 515.067
L598.817 515.067
L599.486 519.511
L600.156 540.247
L600.826 515.067
L601.495 518.03
L602.165 501.737
L602.834 516.549
L603.504 522.473
L604.174 523.954
L604.843 523.954
L605.513 525.435
L606.182 512.105
L606.852 523.954
L607.522 500.256
L608.191 520.992
L608.861 512.105
L609.53 512.105
L610.2 520.992
L610.87 522.473
L611.539 501.737
L612.209 525.435
L612.878 504.699
L613.548 531.36
L614.218 522.473
L614.887 538.766
L615.557 520.992
L616.226 506.181
L616.896 526.917
L617.566 516.549
L618.235 529.879
L618.905 519.511
L619.574 538.766
L620.244 531.36
L620.914 520.992
L621.583 531.36
L622.253 522.473
L622.922 512.105
L623.592 526.917
L624.262 526.917
L624.931 509.143
L625.601 520.992
L626.27 526.917
L626.94 535.803
L627.61 543.209
L628.279 523.954
L628.949 531.36
L629.618 528.398
L630.288 544.69
L630.958 541.728
L631.627 529.879
L632.297 531.36
L632.966 522.473
L633.636 518.03
L634.306 525.435
L634.975 520.992
L635.645 529.879
L636.314 525.435
L636.984 522.473
L637.654 510.624
L638.323 522.473
L638.993 497.294
L639.662 522.473
L640.332 513.586
L641.002 543.209
L641.671 525.435
L642.341 532.841
L643.01 516.549
L643.68 526.917
L644.35 540.247
L645.019 531.36
L645.689 519.511
L646.358 532.841
L647.028 531.36
L647.698 523.954
L648.367 526.917
L649.037 492.85
L649.706 519.511
L650.376 531.36
L651.046 531.36
L651.715 538.766
L652.385 535.803
L653.054 547.653
L653.724 534.322
L654.394 537.285
L655.063 528.398
L655.733 537.285
L656.402 522.473
L657.072 540.247
L658.411 528.398
L659.081 519.511
L659.75 541.728
L660.42 544.69
L661.09 552.096
L661.759 528.398
L662.429 525.435
L663.098 525.435
L663.768 546.171
L664.438 552.096
L665.107 543.209
L665.777 541.728
L666.446 535.803
L667.116 553.577
L667.786 547.653
L668.455 526.917
L669.125 535.803
L669.794 546.171
L670.464 509.143
L671.134 541.728
L671.803 540.247
L672.473 537.285
L673.142 544.69
L673.812 535.803
L674.482 540.247
L675.151 559.502
L675.821 534.322
L676.49 544.69
L677.16 558.021
L677.83 550.615
L678.499 550.615
L679.169 553.577
L679.838 552.096
L680.508 549.134
L681.178 549.134
L681.847 555.058
L682.517 550.615
L683.186 552.096
L683.856 549.134
L684.526 544.69
L685.195 552.096
L685.865 553.577
L686.534 544.69
L687.204 543.209
L687.874 547.653
L688.543 553.577
L689.213 543.209
L689.882 563.945
L690.552 550.615
L691.222 552.096
L691.891 537.285
L692.561 553.577
L693.23 543.209
L694.57 565.426
L695.239 556.539
L695.909 558.021
L696.578 556.539
L697.248 556.539
L697.918 549.134
L698.587 562.464
L699.257 549.134
L700.596 555.058
L701.266 552.096
L701.935 558.021
L702.605 547.653
L703.274 549.134
L703.944 544.69
L704.614 565.426
L705.283 558.021
L705.953 553.577
L706.622 556.539
L707.292 568.389
L707.962 566.907
L708.631 560.983
L709.301 558.021
L709.97 558.021
L710.64 565.426
L711.31 544.69
L711.979 547.653
L712.649 546.171
L713.988 558.021
L714.658 574.313
L715.327 560.983
L715.997 553.577
L716.666 560.983
L717.336 553.577
L718.006 560.983
L718.675 552.096
L719.345 566.907
L720.014 568.389
L720.684 565.426
L721.354 563.945
L722.023 565.426
L722.693 562.464
L724.702 544.69
L725.371 572.832
L726.041 558.021
L726.71 578.757
L727.38 566.907
L728.05 571.351
L728.719 559.502
L729.389 563.945
L730.058 569.87
L730.728 568.389
L731.398 563.945
L732.067 575.794
L732.737 562.464
L733.406 565.426
L734.076 562.464
L734.746 566.907
L736.085 560.983
L736.754 572.832
L737.424 563.945
L738.094 572.832
L738.763 571.351
L739.433 566.907
L740.102 572.832
L740.772 575.794
L741.442 577.275
L742.111 562.464
L742.781 569.87
L743.45 569.87
L744.12 575.794
L744.79 571.351
L745.459 569.87
L746.129 574.313
L746.798 562.464
L747.468 565.426
L748.138 562.464
L748.807 569.87
L749.477 562.464
L750.146 559.502
L750.816 569.87
L751.486 568.389
L752.155 555.058
L752.825 560.983
L753.494 563.945
L754.164 575.794
L754.834 568.389
L755.503 572.832
L756.173 569.87
L757.512 572.832
L758.182 566.907
L758.851 575.794
L759.521 571.351
L760.19 577.275
L760.86 574.313
L761.53 572.832
L762.199 574.313
L762.869 569.87
L763.538 568.389
L764.208 568.389
L764.878 571.351
L765.547 562.464
L766.217 569.87
L766.886 571.351
L767.556 574.313
L768.226 574.313
L768.895 571.351
L769.565 577.275
L770.234 575.794
L770.904 575.794
L771.574 572.832
L772.243 572.832
L772.913 568.389
L773.582 569.87
L774.252 580.238
L774.922 583.2
L775.591 565.426
L776.261 568.389
L776.93 569.87
L777.6 569.87
L777.6 569.87" style="fill:none;stroke:#ff0000;stroke-linecap:square;"/>
   </g>
   <g id="line2d_2">
    <path clip-path="url(#p7ceb695115)" d="
M108 583.2
L135.454 583.2
L136.123 580.238
L138.132 580.238
L139.471 583.2
L140.141 581.719
L142.819 581.719
L143.489 580.238
L144.828 580.238
L145.498 581.719
L146.167 581.719
L146.837 583.2
L148.176 580.238
L148.846 580.238
L149.515 578.757
L150.854 581.719
L151.524 580.238
L152.194 581.719
L152.863 580.238
L154.202 580.238
L154.872 581.719
L155.542 578.757
L156.211 581.719
L157.55 581.719
L158.22 578.757
L159.559 575.794
L160.229 575.794
L160.898 574.313
L161.568 569.87
L162.238 571.351
L163.577 571.351
L164.246 569.87
L164.916 572.832
L165.586 574.313
L166.925 568.389
L167.594 569.87
L168.264 566.907
L169.603 572.832
L171.612 568.389
L172.951 568.389
L173.621 572.832
L174.29 568.389
L174.96 565.426
L175.63 565.426
L176.299 566.907
L176.969 565.426
L177.638 569.87
L178.308 572.832
L178.978 571.351
L180.317 574.313
L180.986 569.87
L181.656 572.832
L182.995 563.945
L183.665 563.945
L184.334 571.351
L185.004 571.351
L185.674 566.907
L186.343 565.426
L187.013 565.426
L187.682 563.945
L188.352 568.389
L189.022 569.87
L191.03 560.983
L191.7 562.464
L192.37 562.464
L193.039 568.389
L193.709 566.907
L194.378 569.87
L195.048 569.87
L195.718 562.464
L196.387 566.907
L197.057 568.389
L197.726 568.389
L198.396 571.351
L199.066 569.87
L199.735 566.907
L200.405 568.389
L201.074 563.945
L201.744 566.907
L202.414 571.351
L203.083 569.87
L203.753 569.87
L204.422 566.907
L205.092 565.426
L205.762 565.426
L206.431 572.832
L207.101 572.832
L207.77 571.351
L208.44 568.389
L209.779 574.313
L210.449 574.313
L211.118 575.794
L211.788 578.757
L212.458 575.794
L213.127 575.794
L213.797 572.832
L214.466 574.313
L215.136 572.832
L215.806 577.275
L217.814 572.832
L218.484 575.794
L219.154 572.832
L219.823 572.832
L220.493 569.87
L221.162 572.832
L222.502 572.832
L223.171 574.313
L224.51 571.351
L225.18 577.275
L225.85 571.351
L226.519 574.313
L227.189 574.313
L227.858 572.832
L228.528 574.313
L229.198 572.832
L232.546 572.832
L233.215 569.87
L233.885 572.832
L234.554 574.313
L235.224 574.313
L235.894 572.832
L236.563 568.389
L237.233 572.832
L237.902 574.313
L238.572 568.389
L239.242 571.351
L239.911 568.389
L240.581 572.832
L241.25 574.313
L241.92 569.87
L242.59 569.87
L243.259 571.351
L243.929 574.313
L244.598 571.351
L245.268 574.313
L245.938 575.794
L246.607 572.832
L247.277 572.832
L247.946 571.351
L248.616 575.794
L249.286 578.757
L249.955 575.794
L251.294 578.757
L251.964 574.313
L252.634 574.313
L253.303 571.351
L253.973 571.351
L254.642 574.313
L255.312 571.351
L257.321 575.794
L257.99 574.313
L258.66 578.757
L259.33 572.832
L259.999 574.313
L260.669 572.832
L261.338 577.275
L262.008 578.757
L262.678 572.832
L263.347 574.313
L264.017 574.313
L264.686 577.275
L265.356 571.351
L266.026 569.87
L267.365 575.794
L268.034 571.351
L268.704 571.351
L269.374 572.832
L270.043 568.389
L270.713 575.794
L271.382 571.351
L273.391 571.351
L274.061 572.832
L274.73 572.832
L275.4 569.87
L276.07 571.351
L276.739 568.389
L277.409 572.832
L278.078 572.832
L278.748 569.87
L279.418 571.351
L280.087 569.87
L280.757 571.351
L281.426 571.351
L282.096 572.832
L282.766 572.832
L283.435 580.238
L284.105 572.832
L284.774 577.275
L286.114 571.351
L286.783 577.275
L287.453 574.313
L288.792 571.351
L289.462 574.313
L290.801 574.313
L291.47 571.351
L292.14 574.313
L292.81 574.313
L293.479 572.832
L294.149 572.832
L294.818 578.757
L295.488 572.832
L296.158 574.313
L296.827 577.275
L298.836 577.275
L299.506 572.832
L300.175 575.794
L300.845 572.832
L302.184 575.794
L302.854 575.794
L303.523 577.275
L304.193 575.794
L304.862 575.794
L305.532 577.275
L306.871 577.275
L308.21 580.238
L308.88 575.794
L309.55 580.238
L310.219 577.275
L310.889 575.794
L311.558 578.757
L312.228 578.757
L313.567 575.794
L314.237 577.275
L316.246 577.275
L316.915 574.313
L317.585 574.313
L318.924 577.275
L319.594 575.794
L320.933 575.794
L321.602 580.238
L322.272 580.238
L322.942 574.313
L323.611 575.794
L324.95 575.794
L325.62 574.313
L326.29 577.275
L326.959 574.313
L328.298 574.313
L328.968 578.757
L330.307 575.794
L330.977 577.275
L332.316 577.275
L332.986 575.794
L333.655 578.757
L334.325 575.794
L334.994 578.757
L335.664 575.794
L336.334 577.275
L337.003 575.794
L337.673 578.757
L338.342 575.794
L339.012 577.275
L340.351 577.275
L341.021 581.719
L341.69 578.757
L342.36 580.238
L343.03 580.238
L343.699 575.794
L344.369 575.794
L345.038 577.275
L346.378 574.313
L347.047 577.275
L347.717 577.275
L348.386 575.794
L349.726 575.794
L350.395 578.757
L351.065 578.757
L351.734 580.238
L352.404 578.757
L353.074 578.757
L354.413 575.794
L355.752 575.794
L356.422 578.757
L357.761 578.757
L358.43 577.275
L360.439 577.275
L361.109 578.757
L361.778 577.275
L362.448 580.238
L363.118 577.275
L363.787 577.275
L364.457 575.794
L365.126 580.238
L365.796 578.757
L366.466 575.794
L367.805 578.757
L369.144 578.757
L369.814 583.2
L371.822 583.2
L372.492 581.719
L373.162 583.2
L373.831 580.238
L375.84 580.238
L376.51 581.719
L377.179 580.238
L377.849 580.238
L378.518 581.719
L379.188 581.719
L379.858 583.2
L380.527 583.2
L381.197 581.719
L383.206 581.719
L383.875 580.238
L385.214 580.238
L385.884 581.719
L387.223 578.757
L387.893 580.238
L388.562 578.757
L389.232 583.2
L389.902 580.238
L390.571 580.238
L391.241 578.757
L391.91 580.238
L392.58 578.757
L393.25 583.2
L393.919 583.2
L394.589 580.238
L396.598 580.238
L397.267 583.2
L397.937 580.238
L398.606 583.2
L399.946 580.238
L400.615 581.719
L401.285 581.719
L402.624 578.757
L403.294 580.238
L403.963 580.238
L404.633 581.719
L405.302 580.238
L405.972 580.238
L406.642 578.757
L407.311 581.719
L407.981 581.719
L408.65 580.238
L409.32 580.238
L409.99 578.757
L410.659 581.719
L411.329 580.238
L411.998 583.2
L412.668 581.719
L414.677 581.719
L415.346 580.238
L416.016 581.719
L416.686 580.238
L418.025 580.238
L418.694 581.719
L419.364 581.719
L420.034 580.238
L421.373 580.238
L422.042 578.757
L423.382 581.719
L424.721 578.757
L425.39 581.719
L426.06 581.719
L426.73 580.238
L428.069 580.238
L428.738 578.757
L429.408 580.238
L430.078 580.238
L430.747 578.757
L431.417 578.757
L432.086 580.238
L432.756 578.757
L433.426 578.757
L434.095 581.719
L435.434 578.757
L436.104 581.719
L436.774 581.719
L437.443 583.2
L438.113 583.2
L438.782 581.719
L439.452 583.2
L440.122 581.719
L440.791 583.2
L441.461 581.719
L442.13 581.719
L442.8 583.2
L443.47 583.2
L444.139 580.238
L444.809 581.719
L445.478 580.238
L446.818 580.238
L447.487 583.2
L448.157 580.238
L448.826 578.757
L449.496 566.907
L450.166 550.615
L450.835 546.171
L451.505 520.992
L452.174 506.181
L452.844 473.595
L453.514 454.341
L454.853 387.689
L456.192 297.339
L456.862 295.858
L458.201 229.207
L458.87 174.405
L459.54 155.15
L460.21 171.442
L460.879 192.178
L461.549 177.367
L462.218 177.367
L462.888 168.48
L463.558 183.291
L464.227 150.706
L464.897 141.819
L465.566 152.187
L466.236 147.744
L466.906 121.083
L467.575 122.565
L468.245 113.678
L468.914 124.046
L469.584 127.008
L470.254 131.451
L470.923 125.527
L471.593 135.895
L472.262 118.121
L472.932 131.451
L473.602 149.225
L474.271 146.263
L474.941 158.112
L475.61 150.706
L476.28 146.263
L476.95 138.857
L477.619 115.159
L478.289 137.376
L478.958 112.197
L479.628 103.31
L480.298 89.9794
L480.967 97.3851
L481.637 119.602
L482.306 94.4229
L482.976 115.159
L483.646 101.829
L484.315 138.857
L484.985 158.112
L485.654 149.225
L486.324 153.669
L486.994 165.518
L487.663 184.773
L488.333 175.886
L489.002 162.555
L489.672 171.442
L490.342 159.593
L491.011 215.877
L491.681 196.622
L492.35 181.81
L493.02 134.414
L493.69 155.15
L494.359 149.225
L495.029 159.593
L495.698 94.4229
L496.368 144.782
L497.038 124.046
L497.707 152.187
L498.377 153.669
L499.046 134.414
L499.716 144.782
L500.386 168.48
L501.055 186.254
L501.725 184.773
L502.394 172.923
L503.064 184.773
L503.734 193.659
L504.403 214.395
L505.073 242.537
L505.742 198.103
L506.412 208.471
L507.082 212.914
L507.751 233.65
L508.421 227.726
L509.09 204.027
L509.76 217.358
L510.43 242.537
L511.099 224.763
L511.769 236.613
L512.438 232.169
L513.108 206.99
L513.778 246.981
L514.447 211.433
L515.786 235.131
L516.456 230.688
L517.126 233.65
L517.795 245.499
L518.465 204.027
L519.134 186.254
L519.804 183.291
L520.474 205.509
L521.143 189.216
L521.813 196.622
L522.482 223.282
L523.152 195.141
L523.822 208.471
L524.491 208.471
L525.161 252.905
L525.83 273.641
L526.5 263.273
L527.17 242.537
L527.839 230.688
L528.509 249.943
L529.178 227.726
L529.848 211.433
L530.518 258.83
L531.187 235.131
L531.857 251.424
L532.526 261.792
L533.196 245.499
L533.866 267.717
L534.535 275.122
L535.205 270.679
L535.874 235.131
L536.544 249.943
L537.214 270.679
L537.883 251.424
L538.553 242.537
L539.222 241.056
L539.892 224.763
L540.562 214.395
L541.231 249.943
L541.901 232.169
L542.57 249.943
L543.24 229.207
L543.91 229.207
L544.579 220.32
L545.249 235.131
L545.918 233.65
L546.588 204.027
L547.258 233.65
L547.927 245.499
L548.597 246.981
L549.266 199.584
L549.936 241.056
L550.606 236.613
L551.275 239.575
L551.945 244.018
L552.614 239.575
L553.284 251.424
L553.954 227.726
L554.623 224.763
L555.293 220.32
L555.962 251.424
L556.632 254.386
L557.302 258.83
L557.971 258.83
L558.641 272.16
L559.31 270.679
L559.98 289.934
L560.65 263.273
L561.319 267.717
L561.989 258.83
L562.658 267.717
L563.328 255.867
L563.998 266.235
L564.667 254.386
L565.337 249.943
L566.006 263.273
L566.676 257.349
L567.346 232.169
L568.015 252.905
L568.685 266.235
L569.354 257.349
L570.024 257.349
L570.694 230.688
L571.363 217.358
L572.033 255.867
L572.702 266.235
L573.372 246.981
L574.042 242.537
L574.711 198.103
L575.381 220.32
L576.05 235.131
L576.72 244.018
L577.39 230.688
L578.059 244.018
L578.729 266.235
L579.398 267.717
L580.068 263.273
L580.738 282.528
L581.407 312.151
L582.077 278.085
L582.746 294.377
L583.416 278.085
L584.086 272.16
L584.755 281.047
L585.425 284.009
L586.094 292.896
L586.764 294.377
L587.434 288.453
L588.103 285.49
L588.773 288.453
L589.442 313.632
L590.112 303.264
L590.782 318.075
L591.451 322.519
L592.121 316.594
L592.79 288.453
L593.46 286.971
L594.13 257.349
L595.469 285.49
L596.138 258.83
L596.808 315.113
L597.478 292.896
L598.147 329.925
L598.817 316.594
L600.156 304.745
L600.826 295.858
L601.495 307.707
L602.165 304.745
L602.834 326.962
L603.504 309.189
L604.174 284.009
L604.843 289.934
L605.513 334.368
L606.182 335.849
L606.852 326.962
L607.522 325.481
L608.191 328.443
L608.861 307.707
L609.53 322.519
L610.2 306.226
L610.87 315.113
L611.539 325.481
L612.209 316.594
L612.878 313.632
L613.548 301.783
L614.218 303.264
L614.887 301.783
L615.557 332.887
L616.226 347.698
L616.896 347.698
L617.566 359.547
L618.235 353.623
L618.905 365.472
L619.574 329.925
L620.244 326.962
L620.914 329.925
L621.583 319.557
L622.253 331.406
L622.922 361.029
L623.592 347.698
L624.262 361.029
L624.931 361.029
L625.601 338.811
L626.27 332.887
L626.94 362.51
L627.61 356.585
L628.279 368.434
L628.949 374.359
L629.618 366.953
L630.288 363.991
L630.958 353.623
L631.627 369.915
L632.297 355.104
L632.966 350.661
L633.636 378.802
L634.306 355.104
L634.975 362.51
L635.645 344.736
L636.314 362.51
L636.984 363.991
L637.654 340.293
L638.323 334.368
L638.993 365.472
L639.662 356.585
L640.332 377.321
L641.002 374.359
L641.671 366.953
L642.341 369.915
L643.01 355.104
L643.68 362.51
L644.35 375.84
L645.019 366.953
L645.689 386.208
L646.358 393.614
L647.028 383.246
L647.698 383.246
L648.367 365.472
L649.037 374.359
L649.706 372.878
L650.376 353.623
L651.046 359.547
L651.715 334.368
L652.385 341.774
L653.054 353.623
L653.724 368.434
L654.394 353.623
L655.063 350.661
L655.733 341.774
L656.402 362.51
L657.072 369.915
L657.742 365.472
L658.411 378.802
L659.081 387.689
L659.75 386.208
L660.42 386.208
L661.09 398.057
L661.759 412.869
L662.429 420.274
L663.098 409.906
L663.768 420.274
L664.438 415.831
L665.107 433.605
L665.777 432.123
L666.446 421.755
L667.116 406.944
L667.786 398.057
L668.455 396.576
L669.125 393.614
L670.464 414.35
L671.134 392.133
L671.803 381.765
L672.473 406.944
L673.142 403.982
L673.812 386.208
L674.482 401.019
L675.151 411.387
L675.821 430.642
L676.49 443.973
L677.16 435.086
L677.83 443.973
L678.499 424.718
L679.169 439.529
L679.838 435.086
L680.508 449.897
L681.178 427.68
L682.517 418.793
L683.186 423.237
L684.526 448.416
L685.195 432.123
L685.865 423.237
L686.534 430.642
L687.204 435.086
L687.874 442.491
L688.543 427.68
L689.213 436.567
L689.882 441.01
L690.552 458.784
L691.222 463.227
L691.891 460.265
L693.23 469.152
L693.9 455.822
L694.57 455.822
L695.239 461.746
L695.909 476.558
L696.578 476.558
L697.248 472.114
L697.918 485.445
L698.587 478.039
L699.257 479.52
L699.926 475.077
L700.596 481.001
L701.266 475.077
L701.935 473.595
L702.605 470.633
L703.274 469.152
L703.944 486.926
L704.614 498.775
L705.283 489.888
L705.953 488.407
L706.622 488.407
L707.292 485.445
L707.962 492.85
L708.631 497.294
L709.301 491.369
L709.97 495.813
L710.64 489.888
L711.31 495.813
L711.979 488.407
L712.649 497.294
L713.318 495.813
L713.988 501.737
L714.658 501.737
L715.327 504.699
L715.997 503.218
L716.666 492.85
L717.336 495.813
L718.006 501.737
L718.675 486.926
L719.345 492.85
L720.014 482.482
L720.684 485.445
L721.354 475.077
L722.023 476.558
L722.693 483.963
L723.362 483.963
L724.032 498.775
L725.371 476.558
L726.041 479.52
L726.71 473.595
L727.38 489.888
L728.05 492.85
L728.719 500.256
L729.389 506.181
L730.728 512.105
L731.398 509.143
L732.067 501.737
L732.737 512.105
L733.406 513.586
L734.076 512.105
L734.746 503.218
L735.415 498.775
L736.085 509.143
L736.754 503.218
L737.424 503.218
L738.094 500.256
L738.763 510.624
L739.433 512.105
L740.102 507.662
L740.772 520.992
L741.442 526.917
L742.111 529.879
L742.781 520.992
L743.45 522.473
L744.12 518.03
L744.79 510.624
L745.459 509.143
L746.129 509.143
L747.468 500.256
L748.138 504.699
L748.807 515.067
L749.477 506.181
L750.146 501.737
L750.816 506.181
L752.155 526.917
L752.825 519.511
L753.494 525.435
L754.164 522.473
L754.834 528.398
L755.503 525.435
L756.173 534.322
L756.842 544.69
L757.512 549.134
L758.182 552.096
L758.851 549.134
L759.521 540.247
L760.19 538.766
L760.86 535.803
L761.53 543.209
L762.199 541.728
L762.869 543.209
L763.538 543.209
L764.208 534.322
L764.878 538.766
L765.547 541.728
L766.217 538.766
L766.886 537.285
L767.556 538.766
L768.226 544.69
L768.895 546.171
L769.565 541.728
L770.234 541.728
L771.574 535.803
L772.243 534.322
L772.913 540.247
L773.582 538.766
L774.252 531.36
L774.922 538.766
L775.591 550.615
L776.261 552.096
L776.93 546.171
L777.6 546.171
L777.6 546.171" style="fill:none;stroke:#008000;stroke-linecap:square;"/>
   </g>
   <g id="line2d_3">
    <path clip-path="url(#p7ceb695115)" d="
M108 583.2
L138.132 583.2
L139.471 580.238
L140.141 581.719
L142.819 581.719
L143.489 583.2
L144.828 583.2
L145.498 581.719
L146.837 581.719
L147.506 583.2
L148.176 583.2
L148.846 581.719
L149.515 583.2
L150.185 583.2
L150.854 581.719
L151.524 583.2
L152.194 581.719
L152.863 583.2
L153.533 583.2
L154.872 580.238
L155.542 583.2
L156.881 583.2
L157.55 581.719
L158.22 583.2
L158.89 583.2
L159.559 580.238
L160.229 578.757
L160.898 581.719
L161.568 581.719
L162.238 580.238
L162.907 581.719
L163.577 581.719
L164.246 583.2
L164.916 578.757
L166.925 578.757
L167.594 577.275
L168.264 583.2
L168.934 581.719
L169.603 577.275
L170.273 578.757
L170.942 578.757
L171.612 577.275
L172.282 578.757
L172.951 581.719
L173.621 578.757
L174.29 578.757
L175.63 581.719
L176.299 581.719
L177.638 578.757
L178.308 575.794
L178.978 577.275
L179.647 580.238
L180.317 578.757
L180.986 581.719
L182.326 575.794
L182.995 578.757
L183.665 578.757
L184.334 572.832
L185.004 572.832
L185.674 574.313
L186.343 581.719
L187.013 580.238
L187.682 581.719
L188.352 577.275
L189.022 575.794
L189.691 580.238
L191.03 583.2
L191.7 581.719
L192.37 583.2
L193.039 578.757
L193.709 578.757
L194.378 580.238
L195.048 578.757
L195.718 580.238
L196.387 578.757
L197.057 575.794
L197.726 577.275
L198.396 577.275
L199.735 580.238
L201.074 580.238
L201.744 581.719
L202.414 578.757
L203.083 583.2
L203.753 581.719
L204.422 581.719
L205.092 583.2
L205.762 583.2
L206.431 577.275
L207.77 577.275
L209.11 580.238
L209.779 578.757
L210.449 583.2
L211.118 581.719
L211.788 581.719
L212.458 580.238
L213.127 581.719
L215.136 581.719
L215.806 577.275
L216.475 581.719
L217.814 581.719
L218.484 580.238
L219.154 583.2
L219.823 581.719
L220.493 583.2
L221.162 583.2
L221.832 581.719
L222.502 581.719
L223.171 580.238
L223.841 581.719
L224.51 580.238
L225.18 577.275
L225.85 581.719
L226.519 580.238
L227.858 580.238
L228.528 578.757
L229.198 581.719
L231.206 581.719
L231.876 580.238
L232.546 580.238
L233.215 581.719
L233.885 581.719
L234.554 578.757
L235.224 578.757
L235.894 580.238
L236.563 583.2
L237.233 581.719
L237.902 578.757
L238.572 583.2
L239.242 583.2
L239.911 581.719
L240.581 581.719
L241.25 580.238
L241.92 583.2
L242.59 583.2
L243.929 580.238
L244.598 583.2
L245.268 580.238
L245.938 580.238
L246.607 583.2
L247.277 580.238
L247.946 583.2
L248.616 581.719
L249.286 578.757
L249.955 581.719
L250.625 581.719
L251.294 577.275
L251.964 581.719
L253.973 581.719
L254.642 583.2
L255.982 583.2
L257.321 580.238
L257.99 580.238
L258.66 578.757
L259.33 581.719
L259.999 583.2
L260.669 583.2
L262.008 577.275
L262.678 581.719
L263.347 578.757
L264.017 580.238
L264.686 578.757
L266.026 581.719
L267.365 578.757
L268.034 581.719
L269.374 581.719
L270.043 583.2
L270.713 578.757
L271.382 581.719
L272.052 583.2
L273.391 580.238
L274.061 580.238
L274.73 578.757
L275.4 581.719
L276.07 580.238
L276.739 583.2
L277.409 578.757
L278.078 578.757
L278.748 581.719
L279.418 580.238
L280.757 583.2
L281.426 581.719
L282.096 581.719
L282.766 580.238
L283.435 575.794
L284.105 578.757
L284.774 577.275
L285.444 581.719
L286.114 581.719
L286.783 577.275
L287.453 581.719
L288.122 583.2
L288.792 583.2
L289.462 581.719
L290.131 583.2
L290.801 581.719
L291.47 583.2
L293.479 583.2
L294.149 581.719
L294.818 578.757
L295.488 583.2
L296.158 581.719
L296.827 581.719
L297.497 583.2
L298.166 583.2
L298.836 580.238
L299.506 583.2
L300.175 581.719
L300.845 583.2
L302.184 583.2
L303.523 580.238
L304.193 581.719
L304.862 581.719
L305.532 580.238
L306.871 580.238
L307.541 581.719
L308.21 580.238
L308.88 583.2
L310.889 583.2
L311.558 580.238
L312.228 580.238
L312.898 581.719
L316.246 581.719
L316.915 583.2
L318.254 583.2
L318.924 581.719
L319.594 583.2
L320.263 581.719
L320.933 583.2
L321.602 578.757
L322.272 577.275
L322.942 583.2
L324.281 583.2
L324.95 581.719
L326.29 581.719
L326.959 583.2
L327.629 583.2
L329.638 578.757
L330.307 580.238
L331.646 580.238
L332.316 583.2
L332.986 583.2
L333.655 581.719
L334.994 581.719
L335.664 583.2
L336.334 581.719
L337.003 581.719
L337.673 580.238
L338.342 583.2
L339.012 581.719
L339.682 583.2
L340.351 583.2
L341.021 581.719
L341.69 583.2
L343.03 580.238
L343.699 583.2
L344.369 583.2
L345.038 581.719
L345.708 583.2
L346.378 583.2
L347.047 581.719
L349.056 581.719
L349.726 583.2
L350.395 581.719
L352.404 581.719
L353.074 583.2
L354.413 583.2
L355.082 581.719
L355.752 583.2
L356.422 580.238
L357.091 580.238
L357.761 581.719
L359.1 581.719
L359.77 583.2
L360.439 583.2
L361.109 581.719
L361.778 581.719
L362.448 580.238
L363.787 583.2
L364.457 583.2
L365.126 581.719
L365.796 583.2
L367.135 583.2
L367.805 581.719
L368.474 583.2
L369.144 583.2
L370.483 580.238
L371.822 580.238
L372.492 583.2
L373.162 580.238
L373.831 583.2
L375.84 583.2
L376.51 581.719
L377.179 583.2
L379.188 583.2
L379.858 581.719
L380.527 583.2
L381.197 583.2
L381.866 581.719
L383.206 581.719
L383.875 583.2
L385.214 583.2
L385.884 581.719
L386.554 583.2
L388.562 583.2
L389.232 581.719
L390.571 581.719
L391.241 583.2
L391.91 581.719
L392.58 583.2
L396.598 583.2
L397.267 580.238
L397.937 581.719
L398.606 581.719
L399.276 580.238
L399.946 581.719
L400.615 580.238
L401.954 583.2
L402.624 583.2
L403.294 581.719
L403.963 583.2
L404.633 583.2
L405.302 581.719
L405.972 581.719
L406.642 583.2
L407.311 581.719
L408.65 581.719
L409.32 583.2
L409.99 583.2
L410.659 581.719
L411.329 583.2
L411.998 580.238
L412.668 581.719
L414.677 581.719
L415.346 583.2
L416.016 581.719
L416.686 583.2
L418.025 583.2
L418.694 581.719
L420.034 581.719
L420.703 583.2
L421.373 581.719
L422.042 583.2
L422.712 583.2
L423.382 581.719
L424.051 583.2
L424.721 583.2
L425.39 581.719
L426.06 581.719
L426.73 583.2
L428.738 583.2
L429.408 581.719
L430.078 581.719
L430.747 583.2
L431.417 583.2
L432.086 581.719
L432.756 583.2
L433.426 583.2
L434.095 580.238
L435.434 583.2
L442.8 583.2
L443.47 581.719
L444.139 583.2
L444.809 581.719
L445.478 583.2
L446.818 583.2
L447.487 580.238
L448.157 581.719
L448.826 575.794
L449.496 571.351
L450.166 572.832
L450.835 556.539
L451.505 562.464
L452.174 555.058
L452.844 550.615
L453.514 534.322
L454.183 540.247
L454.853 529.879
L455.522 512.105
L456.192 501.737
L456.862 473.595
L457.531 469.152
L458.201 482.482
L458.87 483.963
L459.54 492.85
L460.21 483.963
L460.879 460.265
L461.549 464.709
L462.218 451.378
L462.888 473.595
L463.558 455.822
L464.227 481.001
L464.897 488.407
L465.566 473.595
L466.236 449.897
L466.906 461.746
L467.575 455.822
L468.245 466.19
L468.914 457.303
L469.584 492.85
L470.254 458.784
L470.923 452.859
L471.593 472.114
L472.262 466.19
L472.932 475.077
L473.602 488.407
L474.271 475.077
L474.941 457.303
L475.61 469.152
L476.28 485.445
L476.95 473.595
L477.619 476.558
L478.289 491.369
L478.958 472.114
L479.628 475.077
L480.298 454.341
L480.967 467.671
L481.637 454.341
L482.306 485.445
L482.976 460.265
L483.646 495.813
L484.315 461.746
L484.985 486.926
L485.654 494.331
L486.324 486.926
L486.994 466.19
L487.663 463.227
L488.333 470.633
L489.002 452.859
L489.672 464.709
L490.342 497.294
L491.011 475.077
L491.681 506.181
L492.35 495.813
L493.02 492.85
L493.69 479.52
L494.359 489.888
L495.029 461.746
L495.698 489.888
L496.368 443.973
L497.038 489.888
L497.707 486.926
L498.377 473.595
L499.046 483.963
L499.716 473.595
L500.386 475.077
L501.055 472.114
L501.725 478.039
L502.394 489.888
L503.064 473.595
L503.734 482.482
L504.403 498.775
L505.073 483.963
L506.412 513.586
L507.082 495.813
L507.751 488.407
L508.421 489.888
L509.09 504.699
L509.76 501.737
L510.43 481.001
L511.099 472.114
L511.769 489.888
L512.438 467.671
L513.108 498.775
L513.778 489.888
L514.447 503.218
L515.117 506.181
L515.786 485.445
L516.456 510.624
L517.126 531.36
L517.795 495.813
L518.465 486.926
L519.134 489.888
L519.804 507.662
L520.474 489.888
L521.143 485.445
L521.813 519.511
L522.482 510.624
L523.152 491.369
L523.822 481.001
L524.491 516.549
L525.161 494.331
L525.83 503.218
L526.5 497.294
L527.17 506.181
L527.839 534.322
L528.509 525.435
L529.178 506.181
L529.848 504.699
L530.518 457.303
L531.187 497.294
L531.857 498.775
L532.526 494.331
L533.196 485.445
L533.866 510.624
L535.205 492.85
L535.874 522.473
L536.544 513.586
L537.883 482.482
L538.553 497.294
L539.222 507.662
L539.892 501.737
L540.562 497.294
L541.231 486.926
L541.901 498.775
L542.57 497.294
L543.24 507.662
L543.91 497.294
L544.579 506.181
L545.249 503.218
L545.918 495.813
L546.588 512.105
L547.258 519.511
L547.927 507.662
L548.597 489.888
L549.266 503.218
L549.936 501.737
L550.606 501.737
L551.275 492.85
L551.945 500.256
L552.614 520.992
L553.284 498.775
L553.954 506.181
L554.623 507.662
L555.293 488.407
L555.962 513.586
L556.632 509.143
L557.302 519.511
L557.971 512.105
L558.641 509.143
L559.31 503.218
L559.98 509.143
L560.65 503.218
L561.319 518.03
L561.989 503.218
L562.658 500.256
L563.328 510.624
L563.998 504.699
L564.667 513.586
L565.337 516.549
L566.006 497.294
L566.676 512.105
L567.346 503.218
L568.015 525.435
L568.685 495.813
L569.354 485.445
L570.024 483.963
L571.363 518.03
L572.033 498.775
L572.702 522.473
L573.372 504.699
L574.042 498.775
L574.711 506.181
L575.381 529.879
L576.05 507.662
L576.72 491.369
L577.39 522.473
L578.059 512.105
L578.729 518.03
L579.398 518.03
L580.068 532.841
L581.407 497.294
L582.077 501.737
L582.746 497.294
L583.416 523.954
L584.086 510.624
L584.755 513.586
L585.425 519.511
L586.094 507.662
L586.764 516.549
L587.434 500.256
L588.103 509.143
L588.773 525.435
L589.442 501.737
L590.112 503.218
L590.782 525.435
L592.121 494.331
L592.79 509.143
L593.46 520.992
L594.13 528.398
L594.799 522.473
L595.469 501.737
L596.138 532.841
L596.808 512.105
L597.478 507.662
L598.147 506.181
L598.817 515.067
L599.486 529.879
L600.156 519.511
L600.826 522.473
L601.495 534.322
L602.165 537.285
L603.504 503.218
L604.174 510.624
L604.843 529.879
L606.182 526.917
L606.852 518.03
L607.522 507.662
L608.191 513.586
L608.861 515.067
L609.53 506.181
L610.2 525.435
L610.87 498.775
L611.539 515.067
L612.209 513.586
L612.878 510.624
L613.548 494.331
L614.218 537.285
L614.887 516.549
L616.226 544.69
L616.896 544.69
L617.566 516.549
L618.235 523.954
L618.905 523.954
L619.574 513.586
L620.244 529.879
L620.914 531.36
L621.583 541.728
L622.253 535.803
L622.922 504.699
L623.592 532.841
L624.262 534.322
L624.931 532.841
L625.601 529.879
L626.27 541.728
L626.94 528.398
L627.61 534.322
L628.279 526.917
L628.949 540.247
L629.618 516.549
L630.288 543.209
L631.627 523.954
L632.297 546.171
L632.966 531.36
L633.636 534.322
L634.306 523.954
L634.975 520.992
L635.645 522.473
L636.314 532.841
L636.984 528.398
L638.323 537.285
L638.993 516.549
L639.662 541.728
L640.332 540.247
L641.002 534.322
L641.671 549.134
L642.341 529.879
L643.01 541.728
L643.68 520.992
L644.35 513.586
L645.019 534.322
L645.689 529.879
L646.358 534.322
L647.028 541.728
L647.698 537.285
L648.367 534.322
L649.037 534.322
L649.706 525.435
L650.376 535.803
L651.046 531.36
L651.715 544.69
L652.385 540.247
L653.054 518.03
L653.724 510.624
L654.394 537.285
L655.063 520.992
L655.733 538.766
L657.072 510.624
L657.742 532.841
L658.411 537.285
L659.75 537.285
L660.42 555.058
L661.09 540.247
L661.759 537.285
L662.429 538.766
L663.098 547.653
L663.768 552.096
L664.438 558.021
L665.107 534.322
L665.777 529.879
L666.446 538.766
L667.116 520.992
L667.786 540.247
L668.455 550.615
L669.125 538.766
L669.794 537.285
L670.464 546.171
L671.134 531.36
L671.803 552.096
L672.473 540.247
L673.142 540.247
L673.812 544.69
L674.482 535.803
L675.151 543.209
L675.821 555.058
L676.49 541.728
L677.16 550.615
L677.83 543.209
L678.499 541.728
L679.169 549.134
L679.838 547.653
L680.508 525.435
L681.178 555.058
L681.847 550.615
L682.517 540.247
L683.186 535.803
L683.856 547.653
L684.526 547.653
L685.195 534.322
L685.865 535.803
L686.534 531.36
L687.204 558.021
L687.874 532.841
L688.543 544.69
L689.213 550.615
L689.882 552.096
L690.552 560.983
L691.222 558.021
L691.891 568.389
L692.561 558.021
L693.23 556.539
L693.9 553.577
L694.57 549.134
L695.239 559.502
L695.909 555.058
L696.578 552.096
L697.248 558.021
L697.918 562.464
L698.587 558.021
L699.257 555.058
L699.926 559.502
L700.596 549.134
L701.266 562.464
L701.935 560.983
L702.605 563.945
L703.274 558.021
L703.944 566.907
L704.614 560.983
L705.283 560.983
L705.953 566.907
L706.622 568.389
L707.292 571.351
L707.962 556.539
L708.631 566.907
L709.301 569.87
L709.97 560.983
L710.64 559.502
L711.31 562.464
L711.979 559.502
L712.649 559.502
L713.318 550.615
L713.988 543.209
L714.658 558.021
L715.327 568.389
L715.997 556.539
L716.666 562.464
L717.336 559.502
L718.006 560.983
L718.675 572.832
L719.345 565.426
L720.014 559.502
L720.684 556.539
L721.354 558.021
L722.023 562.464
L722.693 562.464
L723.362 556.539
L724.032 556.539
L724.702 559.502
L725.371 553.577
L726.041 568.389
L726.71 566.907
L727.38 563.945
L728.05 559.502
L728.719 556.539
L729.389 560.983
L730.058 563.945
L730.728 563.945
L731.398 560.983
L732.067 568.389
L732.737 566.907
L733.406 550.615
L734.076 562.464
L734.746 565.426
L735.415 572.832
L736.085 556.539
L736.754 559.502
L738.094 574.313
L738.763 566.907
L739.433 566.907
L740.102 569.87
L740.772 565.426
L741.442 563.945
L742.111 566.907
L742.781 571.351
L743.45 569.87
L744.12 572.832
L744.79 572.832
L746.129 560.983
L746.798 559.502
L747.468 552.096
L748.138 572.832
L748.807 562.464
L749.477 575.794
L750.146 571.351
L750.816 571.351
L751.486 568.389
L752.155 568.389
L752.825 571.351
L753.494 565.426
L754.164 563.945
L754.834 566.907
L755.503 574.313
L756.173 574.313
L756.842 572.832
L757.512 572.832
L758.182 574.313
L758.851 571.351
L759.521 577.275
L760.19 569.87
L760.86 578.757
L761.53 571.351
L762.199 574.313
L762.869 574.313
L763.538 572.832
L764.208 578.757
L764.878 577.275
L765.547 574.313
L767.556 574.313
L768.226 575.794
L768.895 574.313
L769.565 580.238
L770.234 577.275
L770.904 577.275
L771.574 571.351
L772.243 571.351
L772.913 563.945
L773.582 577.275
L774.252 574.313
L774.922 578.757
L775.591 575.794
L776.261 571.351
L776.93 577.275
L777.6 577.275
L777.6 577.275" style="fill:none;stroke:#0000ff;stroke-linecap:square;"/>
   </g>
   <g id="patch_3">
    <path d="
M777.6 583.2
L777.6 64.8" style="fill:none;stroke:#000000;stroke-linecap:square;stroke-linejoin:miter;"/>
   </g>
   <g id="patch_4">
    <path d="
M108 64.8
L777.6 64.8" style="fill:none;stroke:#000000;stroke-linecap:square;stroke-linejoin:miter;"/>
   </g>
   <g id="patch_5">
    <path d="
M108 583.2
L777.6 583.2" style="fill:none;stroke:#000000;stroke-linecap:square;stroke-linejoin:miter;"/>
   </g>
   <g id="patch_6">
    <path d="
M108 583.2
L108 64.8" style="fill:none;stroke:#000000;stroke-linecap:square;stroke-linejoin:miter;"/>
   </g>
   <g id="matplotlib.axis_1">
    <g id="xtick_1">
     <g id="line2d_4">
      <defs>
       <path d="
M0 0
L0 -4" id="mc7db9fdffb" style="stroke:#000000;stroke-width:0.5;"/>
      </defs>
      <g>
       <use style="stroke:#000000;stroke-width:0.5;" x="108.0" xlink:href="#mc7db9fdffb" y="583.2"/>
      </g>
     </g>
     <g id="line2d_5">
      <defs>
       <path d="
M0 0
L0 4" id="m5a7d422ac3" style="stroke:#000000;stroke-width:0.5;"/>
      </defs>
      <g>
       <use style="stroke:#000000;stroke-width:0.5;" x="108.0" xlink:href="#m5a7d422ac3" y="64.8"/>
      </g>
     </g>
     <g id="text_1">
      <!-- 0 -->
      <defs>
       <path d="
M31.7812 66.4062
Q24.1719 66.4062 20.3281 58.9062
Q16.5 51.4219 16.5 36.375
Q16.5 21.3906 20.3281 13.8906
Q24.1719 6.39062 31.7812 6.39062
Q39.4531 6.39062 43.2812 13.8906
Q47.125 21.3906 47.125 36.375
Q47.125 51.4219 43.2812 58.9062
Q39.4531 66.4062 31.7812 66.4062
M31.7812 74.2188
Q44.0469 74.2188 50.5156 64.5156
Q56.9844 54.8281 56.9844 36.375
Q56.9844 17.9688 50.5156 8.26562
Q44.0469 -1.42188 31.7812 -1.42188
Q19.5312 -1.42188 13.0625 8.26562
Q6.59375 17.9688 6.59375 36.375
Q6.59375 54.8281 13.0625 64.5156
Q19.5312 74.2188 31.7812 74.2188" id="BitstreamVeraSans-Roman-30"/>
      </defs>
      <g transform="translate(104.9765625 596.318125)scale(0.12 -0.12)">
       <use xlink:href="#BitstreamVeraSans-Roman-30"/>
      </g>
     </g>
    </g>
    <g id="xtick_2">
     <g id="line2d_6">
      <g>
       <use style="stroke:#000000;stroke-width:0.5;" x="275.4" xlink:href="#mc7db9fdffb" y="583.2"/>
      </g>
     </g>
     <g id="line2d_7">
      <g>
       <use style="stroke:#000000;stroke-width:0.5;" x="275.4" xlink:href="#m5a7d422ac3" y="64.8"/>
      </g>
     </g>
     <g id="text_2">
      <!-- 50000 -->
      <defs>
       <path d="
M10.7969 72.9062
L49.5156 72.9062
L49.5156 64.5938
L19.8281 64.5938
L19.8281 46.7344
Q21.9688 47.4688 24.1094 47.8281
Q26.2656 48.1875 28.4219 48.1875
Q40.625 48.1875 47.75 41.5
Q54.8906 34.8125 54.8906 23.3906
Q54.8906 11.625 47.5625 5.09375
Q40.2344 -1.42188 26.9062 -1.42188
Q22.3125 -1.42188 17.5469 -0.640625
Q12.7969 0.140625 7.71875 1.70312
L7.71875 11.625
Q12.1094 9.23438 16.7969 8.0625
Q21.4844 6.89062 26.7031 6.89062
Q35.1562 6.89062 40.0781 11.3281
Q45.0156 15.7656 45.0156 23.3906
Q45.0156 31 40.0781 35.4375
Q35.1562 39.8906 26.7031 39.8906
Q22.75 39.8906 18.8125 39.0156
Q14.8906 38.1406 10.7969 36.2812
z
" id="BitstreamVeraSans-Roman-35"/>
      </defs>
      <g transform="translate(257.1740625 596.318125)scale(0.12 -0.12)">
       <use xlink:href="#BitstreamVeraSans-Roman-35"/>
       <use x="63.623046875" xlink:href="#BitstreamVeraSans-Roman-30"/>
       <use x="127.24609375" xlink:href="#BitstreamVeraSans-Roman-30"/>
       <use x="190.869140625" xlink:href="#BitstreamVeraSans-Roman-30"/>
       <use x="254.4921875" xlink:href="#BitstreamVeraSans-Roman-30"/>
      </g>
     </g>
    </g>
    <g id="xtick_3">
     <g id="line2d_8">
      <g>
       <use style="stroke:#000000;stroke-width:0.5;" x="442.8" xlink:href="#mc7db9fdffb" y="583.2"/>
      </g>
     </g>
     <g id="line2d_9">
      <g>
       <use style="stroke:#000000;stroke-width:0.5;" x="442.8" xlink:href="#m5a7d422ac3" y="64.8"/>
      </g>
     </g>
     <g id="text_3">
      <!-- 100000 -->
      <defs>
       <path d="
M12.4062 8.29688
L28.5156 8.29688
L28.5156 63.9219
L10.9844 60.4062
L10.9844 69.3906
L28.4219 72.9062
L38.2812 72.9062
L38.2812 8.29688
L54.3906 8.29688
L54.3906 0
L12.4062 0
z
" id="BitstreamVeraSans-Roman-31"/>
      </defs>
      <g transform="translate(420.9525 596.318125)scale(0.12 -0.12)">
       <use xlink:href="#BitstreamVeraSans-Roman-31"/>
       <use x="63.623046875" xlink:href="#BitstreamVeraSans-Roman-30"/>
       <use x="127.24609375" xlink:href="#BitstreamVeraSans-Roman-30"/>
       <use x="190.869140625" xlink:href="#BitstreamVeraSans-Roman-30"/>
       <use x="254.4921875" xlink:href="#BitstreamVeraSans-Roman-30"/>
       <use x="318.115234375" xlink:href="#BitstreamVeraSans-Roman-30"/>
      </g>
     </g>
    </g>
    <g id="xtick_4">
     <g id="line2d_10">
      <g>
       <use style="stroke:#000000;stroke-width:0.5;" x="610.2" xlink:href="#mc7db9fdffb" y="583.2"/>
      </g>
     </g>
     <g id="line2d_11">
      <g>
       <use style="stroke:#000000;stroke-width:0.5;" x="610.2" xlink:href="#m5a7d422ac3" y="64.8"/>
      </g>
     </g>
     <g id="text_4">
      <!-- 150000 -->
      <g transform="translate(588.3525 596.318125)scale(0.12 -0.12)">
       <use xlink:href="#BitstreamVeraSans-Roman-31"/>
       <use x="63.623046875" xlink:href="#BitstreamVeraSans-Roman-35"/>
       <use x="127.24609375" xlink:href="#BitstreamVeraSans-Roman-30"/>
       <use x="190.869140625" xlink:href="#BitstreamVeraSans-Roman-30"/>
       <use x="254.4921875" xlink:href="#BitstreamVeraSans-Roman-30"/>
       <use x="318.115234375" xlink:href="#BitstreamVeraSans-Roman-30"/>
      </g>
     </g>
    </g>
    <g id="xtick_5">
     <g id="line2d_12">
      <g>
       <use style="stroke:#000000;stroke-width:0.5;" x="777.6" xlink:href="#mc7db9fdffb" y="583.2"/>
      </g>
     </g>
     <g id="line2d_13">
      <g>
       <use style="stroke:#000000;stroke-width:0.5;" x="777.6" xlink:href="#m5a7d422ac3" y="64.8"/>
      </g>
     </g>
     <g id="text_5">
      <!-- 200000 -->
      <defs>
       <path d="
M19.1875 8.29688
L53.6094 8.29688
L53.6094 0
L7.32812 0
L7.32812 8.29688
Q12.9375 14.1094 22.625 23.8906
Q32.3281 33.6875 34.8125 36.5312
Q39.5469 41.8438 41.4219 45.5312
Q43.3125 49.2188 43.3125 52.7812
Q43.3125 58.5938 39.2344 62.25
Q35.1562 65.9219 28.6094 65.9219
Q23.9688 65.9219 18.8125 64.3125
Q13.6719 62.7031 7.8125 59.4219
L7.8125 69.3906
Q13.7656 71.7812 18.9375 73
Q24.125 74.2188 28.4219 74.2188
Q39.75 74.2188 46.4844 68.5469
Q53.2188 62.8906 53.2188 53.4219
Q53.2188 48.9219 51.5312 44.8906
Q49.8594 40.875 45.4062 35.4062
Q44.1875 33.9844 37.6406 27.2188
Q31.1094 20.4531 19.1875 8.29688" id="BitstreamVeraSans-Roman-32"/>
      </defs>
      <g transform="translate(755.533125 596.318125)scale(0.12 -0.12)">
       <use xlink:href="#BitstreamVeraSans-Roman-32"/>
       <use x="63.623046875" xlink:href="#BitstreamVeraSans-Roman-30"/>
       <use x="127.24609375" xlink:href="#BitstreamVeraSans-Roman-30"/>
       <use x="190.869140625" xlink:href="#BitstreamVeraSans-Roman-30"/>
       <use x="254.4921875" xlink:href="#BitstreamVeraSans-Roman-30"/>
       <use x="318.115234375" xlink:href="#BitstreamVeraSans-Roman-30"/>
      </g>
     </g>
    </g>
    <g id="text_6">
     <!-- t / ms -->
     <defs>
      <path d="
M18.3125 70.2188
L18.3125 54.6875
L36.8125 54.6875
L36.8125 47.7031
L18.3125 47.7031
L18.3125 18.0156
Q18.3125 11.3281 20.1406 9.42188
Q21.9688 7.51562 27.5938 7.51562
L36.8125 7.51562
L36.8125 0
L27.5938 0
Q17.1875 0 13.2344 3.875
Q9.28125 7.76562 9.28125 18.0156
L9.28125 47.7031
L2.6875 47.7031
L2.6875 54.6875
L9.28125 54.6875
L9.28125 70.2188
z
" id="BitstreamVeraSans-Roman-74"/>
      <path id="BitstreamVeraSans-Roman-20"/>
      <path d="
M25.3906 72.9062
L33.6875 72.9062
L8.29688 -9.28125
L0 -9.28125
z
" id="BitstreamVeraSans-Roman-2f"/>
      <path d="
M44.2812 53.0781
L44.2812 44.5781
Q40.4844 46.5312 36.375 47.5
Q32.2812 48.4844 27.875 48.4844
Q21.1875 48.4844 17.8438 46.4375
Q14.5 44.3906 14.5 40.2812
Q14.5 37.1562 16.8906 35.375
Q19.2812 33.5938 26.5156 31.9844
L29.5938 31.2969
Q39.1562 29.25 43.1875 25.5156
Q47.2188 21.7812 47.2188 15.0938
Q47.2188 7.46875 41.1875 3.01562
Q35.1562 -1.42188 24.6094 -1.42188
Q20.2188 -1.42188 15.4531 -0.5625
Q10.6875 0.296875 5.42188 2
L5.42188 11.2812
Q10.4062 8.6875 15.2344 7.39062
Q20.0625 6.10938 24.8125 6.10938
Q31.1562 6.10938 34.5625 8.28125
Q37.9844 10.4531 37.9844 14.4062
Q37.9844 18.0625 35.5156 20.0156
Q33.0625 21.9688 24.7031 23.7812
L21.5781 24.5156
Q13.2344 26.2656 9.51562 29.9062
Q5.8125 33.5469 5.8125 39.8906
Q5.8125 47.6094 11.2812 51.7969
Q16.75 56 26.8125 56
Q31.7812 56 36.1719 55.2656
Q40.5781 54.5469 44.2812 53.0781" id="BitstreamVeraSans-Roman-73"/>
      <path d="
M52 44.1875
Q55.375 50.25 60.0625 53.125
Q64.75 56 71.0938 56
Q79.6406 56 84.2812 50.0156
Q88.9219 44.0469 88.9219 33.0156
L88.9219 0
L79.8906 0
L79.8906 32.7188
Q79.8906 40.5781 77.0938 44.375
Q74.3125 48.1875 68.6094 48.1875
Q61.625 48.1875 57.5625 43.5469
Q53.5156 38.9219 53.5156 30.9062
L53.5156 0
L44.4844 0
L44.4844 32.7188
Q44.4844 40.625 41.7031 44.4062
Q38.9219 48.1875 33.1094 48.1875
Q26.2188 48.1875 22.1562 43.5312
Q18.1094 38.875 18.1094 30.9062
L18.1094 0
L9.07812 0
L9.07812 54.6875
L18.1094 54.6875
L18.1094 46.1875
Q21.1875 51.2188 25.4844 53.6094
Q29.7812 56 35.6875 56
Q41.6562 56 45.8281 52.9688
Q50 49.9531 52 44.1875" id="BitstreamVeraSans-Roman-6d"/>
     </defs>
     <g transform="translate(425.9353125 612.931875)scale(0.12 -0.12)">
      <use xlink:href="#BitstreamVeraSans-Roman-74"/>
      <use x="39.208984375" xlink:href="#BitstreamVeraSans-Roman-20"/>
      <use x="70.99609375" xlink:href="#BitstreamVeraSans-Roman-2f"/>
      <use x="104.6875" xlink:href="#BitstreamVeraSans-Roman-20"/>
      <use x="136.474609375" xlink:href="#BitstreamVeraSans-Roman-6d"/>
      <use x="233.88671875" xlink:href="#BitstreamVeraSans-Roman-73"/>
     </g>
    </g>
   </g>
   <g id="matplotlib.axis_2">
    <g id="ytick_1">
     <g id="line2d_14">
      <defs>
       <path d="
M0 0
L4 0" id="md7965d1ba0" style="stroke:#000000;stroke-width:0.5;"/>
      </defs>
      <g>
       <use style="stroke:#000000;stroke-width:0.5;" x="108.0" xlink:href="#md7965d1ba0" y="583.2"/>
      </g>
     </g>
     <g id="line2d_15">
      <defs>
       <path d="
M0 0
L-4 0" id="md9a1c1a7cd" style="stroke:#000000;stroke-width:0.5;"/>
      </defs>
      <g>
       <use style="stroke:#000000;stroke-width:0.5;" x="777.6" xlink:href="#md9a1c1a7cd" y="583.2"/>
      </g>
     </g>
     <g id="text_7">
      <!-- 0 -->
      <g transform="translate(97.953125 586.51125)scale(0.12 -0.12)">
       <use xlink:href="#BitstreamVeraSans-Roman-30"/>
      </g>
     </g>
    </g>
    <g id="ytick_2">
     <g id="line2d_16">
      <g>
       <use style="stroke:#000000;stroke-width:0.5;" x="108.0" xlink:href="#md7965d1ba0" y="509.142857143"/>
      </g>
     </g>
     <g id="line2d_17">
      <g>
       <use style="stroke:#000000;stroke-width:0.5;" x="777.6" xlink:href="#md9a1c1a7cd" y="509.142857143"/>
      </g>
     </g>
     <g id="text_8">
      <!-- 50 -->
      <g transform="translate(90.453125 512.454107143)scale(0.12 -0.12)">
       <use xlink:href="#BitstreamVeraSans-Roman-35"/>
       <use x="63.623046875" xlink:href="#BitstreamVeraSans-Roman-30"/>
      </g>
     </g>
    </g>
    <g id="ytick_3">
     <g id="line2d_18">
      <g>
       <use style="stroke:#000000;stroke-width:0.5;" x="108.0" xlink:href="#md7965d1ba0" y="435.085714286"/>
      </g>
     </g>
     <g id="line2d_19">
      <g>
       <use style="stroke:#000000;stroke-width:0.5;" x="777.6" xlink:href="#md9a1c1a7cd" y="435.085714286"/>
      </g>
     </g>
     <g id="text_9">
      <!-- 100 -->
      <g transform="translate(83.21 438.396964286)scale(0.12 -0.12)">
       <use xlink:href="#BitstreamVeraSans-Roman-31"/>
       <use x="63.623046875" xlink:href="#BitstreamVeraSans-Roman-30"/>
       <use x="127.24609375" xlink:href="#BitstreamVeraSans-Roman-30"/>
      </g>
     </g>
    </g>
    <g id="ytick_4">
     <g id="line2d_20">
      <g>
       <use style="stroke:#000000;stroke-width:0.5;" x="108.0" xlink:href="#md7965d1ba0" y="361.028571429"/>
      </g>
     </g>
     <g id="line2d_21">
      <g>
       <use style="stroke:#000000;stroke-width:0.5;" x="777.6" xlink:href="#md9a1c1a7cd" y="361.028571429"/>
      </g>
     </g>
     <g id="text_10">
      <!-- 150 -->
      <g transform="translate(83.21 364.339821429)scale(0.12 -0.12)">
       <use xlink:href="#BitstreamVeraSans-Roman-31"/>
       <use x="63.623046875" xlink:href="#BitstreamVeraSans-Roman-35"/>
       <use x="127.24609375" xlink:href="#BitstreamVeraSans-Roman-30"/>
      </g>
     </g>
    </g>
    <g id="ytick_5">
     <g id="line2d_22">
      <g>
       <use style="stroke:#000000;stroke-width:0.5;" x="108.0" xlink:href="#md7965d1ba0" y="286.971428571"/>
      </g>
     </g>
     <g id="line2d_23">
      <g>
       <use style="stroke:#000000;stroke-width:0.5;" x="777.6" xlink:href="#md9a1c1a7cd" y="286.971428571"/>
      </g>
     </g>
     <g id="text_11">
      <!-- 200 -->
      <g transform="translate(82.77125 290.282678571)scale(0.12 -0.12)">
       <use xlink:href="#BitstreamVeraSans-Roman-32"/>
       <use x="63.623046875" xlink:href="#BitstreamVeraSans-Roman-30"/>
       <use x="127.24609375" xlink:href="#BitstreamVeraSans-Roman-30"/>
      </g>
     </g>
    </g>
    <g id="ytick_6">
     <g id="line2d_24">
      <g>
       <use style="stroke:#000000;stroke-width:0.5;" x="108.0" xlink:href="#md7965d1ba0" y="212.914285714"/>
      </g>
     </g>
     <g id="line2d_25">
      <g>
       <use style="stroke:#000000;stroke-width:0.5;" x="777.6" xlink:href="#md9a1c1a7cd" y="212.914285714"/>
      </g>
     </g>
     <g id="text_12">
      <!-- 250 -->
      <g transform="translate(82.77125 216.225535714)scale(0.12 -0.12)">
       <use xlink:href="#BitstreamVeraSans-Roman-32"/>
       <use x="63.623046875" xlink:href="#BitstreamVeraSans-Roman-35"/>
       <use x="127.24609375" xlink:href="#BitstreamVeraSans-Roman-30"/>
      </g>
     </g>
    </g>
    <g id="ytick_7">
     <g id="line2d_26">
      <g>
       <use style="stroke:#000000;stroke-width:0.5;" x="108.0" xlink:href="#md7965d1ba0" y="138.857142857"/>
      </g>
     </g>
     <g id="line2d_27">
      <g>
       <use style="stroke:#000000;stroke-width:0.5;" x="777.6" xlink:href="#md9a1c1a7cd" y="138.857142857"/>
      </g>
     </g>
     <g id="text_13">
      <!-- 300 -->
      <defs>
       <path d="
M40.5781 39.3125
Q47.6562 37.7969 51.625 33
Q55.6094 28.2188 55.6094 21.1875
Q55.6094 10.4062 48.1875 4.48438
Q40.7656 -1.42188 27.0938 -1.42188
Q22.5156 -1.42188 17.6562 -0.515625
Q12.7969 0.390625 7.625 2.20312
L7.625 11.7188
Q11.7188 9.32812 16.5938 8.10938
Q21.4844 6.89062 26.8125 6.89062
Q36.0781 6.89062 40.9375 10.5469
Q45.7969 14.2031 45.7969 21.1875
Q45.7969 27.6406 41.2812 31.2656
Q36.7656 34.9062 28.7188 34.9062
L20.2188 34.9062
L20.2188 43.0156
L29.1094 43.0156
Q36.375 43.0156 40.2344 45.9219
Q44.0938 48.8281 44.0938 54.2969
Q44.0938 59.9062 40.1094 62.9062
Q36.1406 65.9219 28.7188 65.9219
Q24.6562 65.9219 20.0156 65.0312
Q15.375 64.1562 9.8125 62.3125
L9.8125 71.0938
Q15.4375 72.6562 20.3438 73.4375
Q25.25 74.2188 29.5938 74.2188
Q40.8281 74.2188 47.3594 69.1094
Q53.9062 64.0156 53.9062 55.3281
Q53.9062 49.2656 50.4375 45.0938
Q46.9688 40.9219 40.5781 39.3125" id="BitstreamVeraSans-Roman-33"/>
      </defs>
      <g transform="translate(82.806875 142.168392857)scale(0.12 -0.12)">
       <use xlink:href="#BitstreamVeraSans-Roman-33"/>
       <use x="63.623046875" xlink:href="#BitstreamVeraSans-Roman-30"/>
       <use x="127.24609375" xlink:href="#BitstreamVeraSans-Roman-30"/>
      </g>
     </g>
    </g>
    <g id="ytick_8">
     <g id="line2d_28">
      <g>
       <use style="stroke:#000000;stroke-width:0.5;" x="108.0" xlink:href="#md7965d1ba0" y="64.8"/>
      </g>
     </g>
     <g id="line2d_29">
      <g>
       <use style="stroke:#000000;stroke-width:0.5;" x="777.6" xlink:href="#md9a1c1a7cd" y="64.8"/>
      </g>
     </g>
     <g id="text_14">
      <!-- 350 -->
      <g transform="translate(82.806875 68.11125)scale(0.12 -0.12)">
       <use xlink:href="#BitstreamVeraSans-Roman-33"/>
       <use x="63.623046875" xlink:href="#BitstreamVeraSans-Roman-35"/>
       <use x="127.24609375" xlink:href="#BitstreamVeraSans-Roman-30"/>
      </g>
     </g>
    </g>
    <g id="text_15">
     <!-- particle numbers -->
     <defs>
      <path d="
M9.42188 75.9844
L18.4062 75.9844
L18.4062 0
L9.42188 0
z
" id="BitstreamVeraSans-Roman-6c"/>
      <path d="
M48.6875 27.2969
Q48.6875 37.2031 44.6094 42.8438
Q40.5312 48.4844 33.4062 48.4844
Q26.2656 48.4844 22.1875 42.8438
Q18.1094 37.2031 18.1094 27.2969
Q18.1094 17.3906 22.1875 11.75
Q26.2656 6.10938 33.4062 6.10938
Q40.5312 6.10938 44.6094 11.75
Q48.6875 17.3906 48.6875 27.2969
M18.1094 46.3906
Q20.9531 51.2656 25.2656 53.625
Q29.5938 56 35.5938 56
Q45.5625 56 51.7812 48.0938
Q58.0156 40.1875 58.0156 27.2969
Q58.0156 14.4062 51.7812 6.48438
Q45.5625 -1.42188 35.5938 -1.42188
Q29.5938 -1.42188 25.2656 0.953125
Q20.9531 3.32812 18.1094 8.20312
L18.1094 0
L9.07812 0
L9.07812 75.9844
L18.1094 75.9844
z
" id="BitstreamVeraSans-Roman-62"/>
      <path d="
M9.42188 54.6875
L18.4062 54.6875
L18.4062 0
L9.42188 0
z

M9.42188 75.9844
L18.4062 75.9844
L18.4062 64.5938
L9.42188 64.5938
z
" id="BitstreamVeraSans-Roman-69"/>
      <path d="
M54.8906 33.0156
L54.8906 0
L45.9062 0
L45.9062 32.7188
Q45.9062 40.4844 42.875 44.3281
Q39.8438 48.1875 33.7969 48.1875
Q26.5156 48.1875 22.3125 43.5469
Q18.1094 38.9219 18.1094 30.9062
L18.1094 0
L9.07812 0
L9.07812 54.6875
L18.1094 54.6875
L18.1094 46.1875
Q21.3438 51.125 25.7031 53.5625
Q30.0781 56 35.7969 56
Q45.2188 56 50.0469 50.1719
Q54.8906 44.3438 54.8906 33.0156" id="BitstreamVeraSans-Roman-6e"/>
      <path d="
M18.1094 8.20312
L18.1094 -20.7969
L9.07812 -20.7969
L9.07812 54.6875
L18.1094 54.6875
L18.1094 46.3906
Q20.9531 51.2656 25.2656 53.625
Q29.5938 56 35.5938 56
Q45.5625 56 51.7812 48.0938
Q58.0156 40.1875 58.0156 27.2969
Q58.0156 14.4062 51.7812 6.48438
Q45.5625 -1.42188 35.5938 -1.42188
Q29.5938 -1.42188 25.2656 0.953125
Q20.9531 3.32812 18.1094 8.20312
M48.6875 27.2969
Q48.6875 37.2031 44.6094 42.8438
Q40.5312 48.4844 33.4062 48.4844
Q26.2656 48.4844 22.1875 42.8438
Q18.1094 37.2031 18.1094 27.2969
Q18.1094 17.3906 22.1875 11.75
Q26.2656 6.10938 33.4062 6.10938
Q40.5312 6.10938 44.6094 11.75
Q48.6875 17.3906 48.6875 27.2969" id="BitstreamVeraSans-Roman-70"/>
      <path d="
M41.1094 46.2969
Q39.5938 47.1719 37.8125 47.5781
Q36.0312 48 33.8906 48
Q26.2656 48 22.1875 43.0469
Q18.1094 38.0938 18.1094 28.8125
L18.1094 0
L9.07812 0
L9.07812 54.6875
L18.1094 54.6875
L18.1094 46.1875
Q20.9531 51.1719 25.4844 53.5781
Q30.0312 56 36.5312 56
Q37.4531 56 38.5781 55.875
Q39.7031 55.7656 41.0625 55.5156
z
" id="BitstreamVeraSans-Roman-72"/>
      <path d="
M56.2031 29.5938
L56.2031 25.2031
L14.8906 25.2031
Q15.4844 15.9219 20.4844 11.0625
Q25.4844 6.20312 34.4219 6.20312
Q39.5938 6.20312 44.4531 7.46875
Q49.3125 8.73438 54.1094 11.2812
L54.1094 2.78125
Q49.2656 0.734375 44.1875 -0.34375
Q39.1094 -1.42188 33.8906 -1.42188
Q20.7969 -1.42188 13.1562 6.1875
Q5.51562 13.8125 5.51562 26.8125
Q5.51562 40.2344 12.7656 48.1094
Q20.0156 56 32.3281 56
Q43.3594 56 49.7812 48.8906
Q56.2031 41.7969 56.2031 29.5938
M47.2188 32.2344
Q47.125 39.5938 43.0938 43.9844
Q39.0625 48.3906 32.4219 48.3906
Q24.9062 48.3906 20.3906 44.1406
Q15.875 39.8906 15.1875 32.1719
z
" id="BitstreamVeraSans-Roman-65"/>
      <path d="
M34.2812 27.4844
Q23.3906 27.4844 19.1875 25
Q14.9844 22.5156 14.9844 16.5
Q14.9844 11.7188 18.1406 8.90625
Q21.2969 6.10938 26.7031 6.10938
Q34.1875 6.10938 38.7031 11.4062
Q43.2188 16.7031 43.2188 25.4844
L43.2188 27.4844
z

M52.2031 31.2031
L52.2031 0
L43.2188 0
L43.2188 8.29688
Q40.1406 3.32812 35.5469 0.953125
Q30.9531 -1.42188 24.3125 -1.42188
Q15.9219 -1.42188 10.9531 3.29688
Q6 8.01562 6 15.9219
Q6 25.1406 12.1719 29.8281
Q18.3594 34.5156 30.6094 34.5156
L43.2188 34.5156
L43.2188 35.4062
Q43.2188 41.6094 39.1406 45
Q35.0625 48.3906 27.6875 48.3906
Q23 48.3906 18.5469 47.2656
Q14.1094 46.1406 10.0156 43.8906
L10.0156 52.2031
Q14.9375 54.1094 19.5781 55.0469
Q24.2188 56 28.6094 56
Q40.4844 56 46.3438 49.8438
Q52.2031 43.7031 52.2031 31.2031" id="BitstreamVeraSans-Roman-61"/>
      <path d="
M48.7812 52.5938
L48.7812 44.1875
Q44.9688 46.2969 41.1406 47.3438
Q37.3125 48.3906 33.4062 48.3906
Q24.6562 48.3906 19.8125 42.8438
Q14.9844 37.3125 14.9844 27.2969
Q14.9844 17.2812 19.8125 11.7344
Q24.6562 6.20312 33.4062 6.20312
Q37.3125 6.20312 41.1406 7.25
Q44.9688 8.29688 48.7812 10.4062
L48.7812 2.09375
Q45.0156 0.34375 40.9844 -0.53125
Q36.9688 -1.42188 32.4219 -1.42188
Q20.0625 -1.42188 12.7812 6.34375
Q5.51562 14.1094 5.51562 27.2969
Q5.51562 40.6719 12.8594 48.3281
Q20.2188 56 33.0156 56
Q37.1562 56 41.1094 55.1406
Q45.0625 54.2969 48.7812 52.5938" id="BitstreamVeraSans-Roman-63"/>
      <path d="
M8.5 21.5781
L8.5 54.6875
L17.4844 54.6875
L17.4844 21.9219
Q17.4844 14.1562 20.5 10.2656
Q23.5312 6.39062 29.5938 6.39062
Q36.8594 6.39062 41.0781 11.0312
Q45.3125 15.6719 45.3125 23.6875
L45.3125 54.6875
L54.2969 54.6875
L54.2969 0
L45.3125 0
L45.3125 8.40625
Q42.0469 3.42188 37.7188 1
Q33.4062 -1.42188 27.6875 -1.42188
Q18.2656 -1.42188 13.375 4.4375
Q8.5 10.2969 8.5 21.5781" id="BitstreamVeraSans-Roman-75"/>
     </defs>
     <g transform="translate(75.275625 374.78625)rotate(-90.0)scale(0.12 -0.12)">
      <use xlink:href="#BitstreamVeraSans-Roman-70"/>
      <use x="63.4765625" xlink:href="#BitstreamVeraSans-Roman-61"/>
      <use x="124.755859375" xlink:href="#BitstreamVeraSans-Roman-72"/>
      <use x="165.869140625" xlink:href="#BitstreamVeraSans-Roman-74"/>
      <use x="205.078125" xlink:href="#BitstreamVeraSans-Roman-69"/>
      <use x="232.861328125" xlink:href="#BitstreamVeraSans-Roman-63"/>
      <use x="287.841796875" xlink:href="#BitstreamVeraSans-Roman-6c"/>
      <use x="315.625" xlink:href="#BitstreamVeraSans-Roman-65"/>
      <use x="377.1484375" xlink:href="#BitstreamVeraSans-Roman-20"/>
      <use x="408.935546875" xlink:href="#BitstreamVeraSans-Roman-6e"/>
      <use x="472.314453125" xlink:href="#BitstreamVeraSans-Roman-75"/>
      <use x="535.693359375" xlink:href="#BitstreamVeraSans-Roman-6d"/>
      <use x="633.10546875" xlink:href="#BitstreamVeraSans-Roman-62"/>
      <use x="696.58203125" xlink:href="#BitstreamVeraSans-Roman-65"/>
      <use x="758.10546875" xlink:href="#BitstreamVeraSans-Roman-72"/>
      <use x="799.21875" xlink:href="#BitstreamVeraSans-Roman-73"/>
     </g>
    </g>
   </g>
   <g id="legend_1">
    <g id="patch_7">
     <path d="
M717.006 101.224
L774.1 101.224
L774.1 68.3
L717.006 68.3
z
" style="fill:#ffffff;stroke:#000000;stroke-linejoin:miter;"/>
    </g>
    <g id="line2d_30">
     <path d="
M721.906 73.9689
L731.706 73.9689" style="fill:none;stroke:#ff0000;stroke-linecap:square;"/>
    </g>
    <g id="line2d_31"/>
    <g id="text_16">
     <!-- PKAc el.0 -->
     <defs>
      <path d="
M19.6719 64.7969
L19.6719 37.4062
L32.0781 37.4062
Q38.9688 37.4062 42.7188 40.9688
Q46.4844 44.5312 46.4844 51.125
Q46.4844 57.6719 42.7188 61.2344
Q38.9688 64.7969 32.0781 64.7969
z

M9.8125 72.9062
L32.0781 72.9062
Q44.3438 72.9062 50.6094 67.3594
Q56.8906 61.8125 56.8906 51.125
Q56.8906 40.3281 50.6094 34.8125
Q44.3438 29.2969 32.0781 29.2969
L19.6719 29.2969
L19.6719 0
L9.8125 0
z
" id="BitstreamVeraSans-Roman-50"/>
      <path d="
M10.6875 12.4062
L21 12.4062
L21 0
L10.6875 0
z
" id="BitstreamVeraSans-Roman-2e"/>
      <path d="
M9.8125 72.9062
L19.6719 72.9062
L19.6719 42.0938
L52.3906 72.9062
L65.0938 72.9062
L28.9062 38.9219
L67.6719 0
L54.6875 0
L19.6719 35.1094
L19.6719 0
L9.8125 0
z
" id="BitstreamVeraSans-Roman-4b"/>
      <path d="
M34.1875 63.1875
L20.7969 26.9062
L47.6094 26.9062
z

M28.6094 72.9062
L39.7969 72.9062
L67.5781 0
L57.3281 0
L50.6875 18.7031
L17.8281 18.7031
L11.1875 0
L0.78125 0
z
" id="BitstreamVeraSans-Roman-41"/>
     </defs>
     <g transform="translate(739.40625 76.41890625)scale(0.07 -0.07)">
      <use xlink:href="#BitstreamVeraSans-Roman-50"/>
      <use x="60.302734375" xlink:href="#BitstreamVeraSans-Roman-4b"/>
      <use x="124.12890625" xlink:href="#BitstreamVeraSans-Roman-41"/>
      <use x="190.787109375" xlink:href="#BitstreamVeraSans-Roman-63"/>
      <use x="245.767578125" xlink:href="#BitstreamVeraSans-Roman-20"/>
      <use x="277.5546875" xlink:href="#BitstreamVeraSans-Roman-65"/>
      <use x="339.078125" xlink:href="#BitstreamVeraSans-Roman-6c"/>
      <use x="366.861328125" xlink:href="#BitstreamVeraSans-Roman-2e"/>
      <use x="398.6484375" xlink:href="#BitstreamVeraSans-Roman-30"/>
     </g>
    </g>
    <g id="line2d_32">
     <path d="
M721.906 84.2436
L731.706 84.2436" style="fill:none;stroke:#008000;stroke-linecap:square;"/>
    </g>
    <g id="line2d_33"/>
    <g id="text_17">
     <!-- PKAc el.1 -->
     <g transform="translate(739.40625 86.69359375)scale(0.07 -0.07)">
      <use xlink:href="#BitstreamVeraSans-Roman-50"/>
      <use x="60.302734375" xlink:href="#BitstreamVeraSans-Roman-4b"/>
      <use x="124.12890625" xlink:href="#BitstreamVeraSans-Roman-41"/>
      <use x="190.787109375" xlink:href="#BitstreamVeraSans-Roman-63"/>
      <use x="245.767578125" xlink:href="#BitstreamVeraSans-Roman-20"/>
      <use x="277.5546875" xlink:href="#BitstreamVeraSans-Roman-65"/>
      <use x="339.078125" xlink:href="#BitstreamVeraSans-Roman-6c"/>
      <use x="366.861328125" xlink:href="#BitstreamVeraSans-Roman-2e"/>
      <use x="398.6484375" xlink:href="#BitstreamVeraSans-Roman-31"/>
     </g>
    </g>
    <g id="line2d_34">
     <path d="
M721.906 94.5183
L731.706 94.5183" style="fill:none;stroke:#0000ff;stroke-linecap:square;"/>
    </g>
    <g id="line2d_35"/>
    <g id="text_18">
     <!-- PKAc el.2 -->
     <g transform="translate(739.40625 96.96828125)scale(0.07 -0.07)">
      <use xlink:href="#BitstreamVeraSans-Roman-50"/>
      <use x="60.302734375" xlink:href="#BitstreamVeraSans-Roman-4b"/>
      <use x="124.12890625" xlink:href="#BitstreamVeraSans-Roman-41"/>
      <use x="190.787109375" xlink:href="#BitstreamVeraSans-Roman-63"/>
      <use x="245.767578125" xlink:href="#BitstreamVeraSans-Roman-20"/>
      <use x="277.5546875" xlink:href="#BitstreamVeraSans-Roman-65"/>
      <use x="339.078125" xlink:href="#BitstreamVeraSans-Roman-6c"/>
      <use x="366.861328125" xlink:href="#BitstreamVeraSans-Roman-2e"/>
      <use x="398.6484375" xlink:href="#BitstreamVeraSans-Roman-32"/>
     </g>
    </g>
   </g>
  </g>
 </g>
 <defs>
  <clipPath id="p7ceb695115">
   <rect height="518.4" width="669.6" x="108.0" y="64.8"/>
  </clipPath>
 </defs>
</svg>
