<?xml version="1.0" encoding="utf-8" standalone="no"?>
<!DOCTYPE svg PUBLIC "-//W3C//DTD SVG 1.1//EN"
  "http://www.w3.org/Graphics/SVG/1.1/DTD/svg11.dtd">
<!-- Created with matplotlib (http://matplotlib.org/) -->
<svg height="648pt" version="1.1" viewBox="0 0 864 648" width="864pt" xmlns="http://www.w3.org/2000/svg" xmlns:xlink="http://www.w3.org/1999/xlink">
 <defs>
  <style type="text/css">
*{stroke-linecap:butt;stroke-linejoin:round;}
  </style>
 </defs>
 <g id="figure_1">
  <g id="patch_1">
   <path d="
M0 648
L864 648
L864 0
L0 0
z
" style="fill:#ffffff;"/>
  </g>
  <g id="axes_1">
   <g id="patch_2">
    <path d="
M108 583.2
L777.6 583.2
L777.6 64.8
L108 64.8
z
" style="fill:#ffffff;"/>
   </g>
   <g id="line2d_1">
    <path clip-path="url(#p7ceb695115)" d="
M108 582.52
L108.67 583.006
L111.348 582.973
L112.018 582.714
L114.026 583.038
L114.696 582.811
L115.366 582.844
L116.035 582.649
L116.705 583.006
L117.374 582.746
L118.044 582.908
L118.714 582.941
L119.383 582.779
L120.053 582.779
L120.722 582.52
L121.392 582.746
L123.401 582.941
L124.07 582.682
L124.74 582.649
L125.41 582.746
L126.079 582.682
L126.749 582.844
L127.418 582.714
L128.088 582.779
L129.427 582.584
L132.106 582.844
L134.114 582.52
L134.784 582.811
L135.454 582.52
L136.123 582.584
L136.793 582.941
L137.462 582.714
L138.132 582.714
L138.802 582.552
L139.471 582.746
L140.81 582.52
L141.48 582.649
L142.15 582.52
L142.819 582.552
L143.489 582.714
L146.167 582.552
L147.506 582.52
L148.176 582.52
L148.846 582.844
L150.185 582.682
L150.854 582.682
L152.863 582.293
L153.533 582.682
L156.211 582.876
L156.881 582.682
L157.55 582.779
L158.22 582.714
L158.89 582.52
L159.559 582.779
L161.568 582.876
L162.238 582.649
L164.246 582.811
L164.916 582.682
L165.586 582.844
L166.925 582.487
L167.594 582.844
L168.264 582.617
L168.934 582.584
L170.273 582.941
L170.942 582.714
L172.951 582.941
L173.621 582.844
L174.29 582.973
L175.63 582.714
L177.638 582.617
L178.308 582.941
L178.978 582.746
L179.647 583.07
L180.986 582.714
L181.656 582.876
L182.326 582.779
L185.674 582.941
L187.682 582.39
L188.352 582.844
L189.691 582.876
L190.361 582.811
L191.03 582.973
L191.7 582.584
L193.039 582.908
L193.709 582.941
L194.378 582.844
L195.048 582.941
L195.718 582.714
L196.387 582.779
L197.057 582.973
L197.726 582.682
L198.396 582.908
L199.735 582.779
L200.405 582.941
L202.414 582.941
L203.753 582.746
L204.422 582.973
L207.101 582.811
L208.44 583.006
L209.11 582.941
L209.779 583.038
L211.118 582.779
L213.797 583.038
L215.136 582.876
L217.145 582.876
L217.814 582.844
L219.823 583.07
L220.493 583.006
L221.832 583.07
L223.171 582.876
L223.841 582.973
L224.51 582.876
L225.18 583.07
L226.519 582.876
L227.189 583.07
L228.528 583.038
L230.537 583.07
L231.206 582.811
L231.876 583.038
L232.546 582.908
L233.885 583.103
L234.554 582.908
L235.224 583.038
L236.563 583.006
L237.233 583.103
L237.902 582.941
L238.572 583.103
L239.911 583.07
L241.25 583.168
L243.259 582.973
L243.929 583.168
L245.268 583.038
L245.938 583.135
L247.277 583.103
L247.946 583.135
L248.616 583.038
L249.286 583.135
L249.955 583.006
L251.964 583.135
L253.303 582.973
L253.973 583.135
L256.651 583.038
L257.321 583.103
L257.99 583.038
L258.66 583.168
L260.669 583.07
L262.008 583.103
L264.017 583.103
L265.356 583.135
L266.695 583.2
L267.365 583.07
L268.704 583.103
L270.043 583.07
L272.052 583.2
L273.391 583.103
L274.061 583.038
L275.4 583.168
L277.409 583.103
L278.078 583.168
L278.748 583.006
L280.087 583.135
L281.426 583.07
L282.766 583.168
L285.444 583.135
L347.047 583.135
L347.717 583.006
L348.386 583.168
L353.743 583.168
L354.413 582.973
L355.752 583.168
L356.422 583.103
L357.761 583.168
L359.77 583.07
L360.439 583.2
L363.118 583.103
L363.787 583.07
L364.457 583.2
L368.474 583.135
L369.144 583.07
L369.814 583.168
L371.822 583.135
L373.162 583.168
L376.51 583.103
L377.849 583.2
L381.197 583.07
L381.866 583.168
L383.206 583.168
L384.545 583.2
L387.223 583.006
L388.562 583.103
L391.241 583.168
L391.91 583.07
L393.25 583.168
L394.589 583.103
L397.267 583.2
L397.937 583.103
L399.276 583.2
L400.615 583.103
L404.633 583.2
L405.302 583.07
L405.972 583.2
L409.32 583.103
L410.659 583.168
L413.338 583.103
L414.007 583.168
L414.677 583.103
L415.346 583.168
L416.016 583.103
L416.686 583.2
L419.364 583.168
L420.034 583.2
L421.373 583.103
L443.47 583.006
L444.139 582.39
L444.809 580.802
L446.148 574.128
L446.818 569.916
L447.487 563.987
L448.157 560.455
L448.826 557.604
L449.496 552.388
L450.166 549.569
L450.835 543.64
L451.505 543.251
L452.844 532.559
L453.514 529.06
L454.183 522.968
L454.853 519.631
L456.192 510.138
L456.862 505.991
L457.531 501.001
L458.201 494.424
L458.87 489.078
L459.54 486.972
L460.21 480.978
L460.879 481.982
L461.549 473.656
L462.218 471.776
L463.558 466.852
L464.897 460.048
L465.566 461.797
L466.236 457.844
L466.906 456.322
L467.575 456.192
L468.245 454.021
L468.914 458.428
L469.584 454.799
L470.254 458.849
L470.923 461.311
L471.593 457.52
L472.262 462.575
L472.932 456.257
L473.602 460.469
L474.271 461.83
L474.941 465.62
L475.61 467.5
L476.28 464.94
L477.619 473.299
L478.289 475.826
L478.958 473.623
L479.628 475.502
L480.298 476.507
L482.306 484.121
L482.976 484.38
L483.646 487.166
L484.315 486.518
L484.985 491.8
L485.654 495.396
L486.324 493.225
L486.994 497.372
L487.663 497.048
L489.672 503.302
L490.342 507.157
L491.011 507.157
L491.681 505.278
L492.35 507.773
L493.02 507.384
L493.69 508.907
L494.359 514.998
L495.029 514.48
L495.698 515.095
L496.368 516.942
L497.038 515.776
L497.707 513.572
L498.377 514.674
L499.716 517.655
L500.386 517.46
L501.055 518.918
L501.725 518.303
L502.394 519.178
L503.064 518.53
L503.734 518.562
L504.403 518.854
L505.073 520.603
L505.742 518.659
L506.412 521.51
L507.082 519.728
L507.751 520.927
L508.421 520.96
L509.09 522.936
L509.76 522.158
L510.43 523.746
L511.099 520.15
L511.769 522.774
L512.438 522.094
L513.108 523.325
L513.778 520.312
L514.447 521.737
L515.117 521.64
L515.786 522.677
L516.456 524.362
L517.126 521.737
L517.795 520.96
L518.465 521.024
L519.134 524.653
L519.804 519.89
L520.474 521.608
L521.143 519.502
L521.813 521.381
L522.482 522.223
L523.152 524.232
L523.822 521.932
L524.491 524.491
L525.161 523.422
L525.83 524.232
L526.5 523.552
L527.17 525.593
L527.839 523.714
L528.509 525.204
L529.178 524.588
L529.848 528.347
L530.518 526.597
L531.187 527.375
L532.526 531.652
L533.196 529.837
L533.866 529.124
L534.535 528.736
L535.205 529.87
L535.874 530.615
L536.544 528.768
L537.214 531.004
L537.883 530.064
L538.553 530.323
L539.222 534.082
L539.892 534.73
L540.562 532.915
L541.231 533.596
L541.901 534.924
L542.57 535.831
L543.24 535.216
L543.91 535.669
L544.579 535.928
L545.249 536.803
L545.918 535.604
L546.588 537.484
L547.258 538.423
L547.927 537.257
L548.597 539.557
L549.266 540.497
L549.936 539.168
L550.606 538.391
L551.275 540.076
L551.945 539.622
L552.614 540.626
L553.284 540.302
L553.954 542.473
L554.623 543.445
L555.293 542.894
L555.962 543.737
L556.632 542.635
L557.302 544.288
L557.971 541.76
L558.641 543.575
L559.31 543.834
L559.98 543.704
L560.65 545.033
L561.319 542.765
L561.989 544.45
L562.658 543.769
L563.328 542.732
L563.998 544.612
L564.667 544.061
L565.337 543.964
L566.006 543.283
L566.676 543.121
L567.346 545.713
L568.015 544.579
L568.685 545.227
L569.354 544.838
L570.024 545.519
L570.694 544.093
L571.363 546.394
L572.033 545.972
L572.702 543.575
L573.372 544.838
L574.042 544.806
L574.711 543.154
L575.381 545.26
L576.05 545.227
L576.72 545.746
L577.39 544.158
L578.059 545.098
L578.729 546.718
L579.398 547.106
L580.068 548.435
L580.738 546.458
L581.407 546.977
L582.077 545.94
L582.746 545.551
L583.416 545.908
L584.086 547.43
L584.755 547.398
L585.425 548.824
L586.094 547.787
L586.764 546.458
L587.434 548.597
L588.103 548.662
L588.773 548.5
L589.442 549.439
L590.112 549.601
L590.782 549.083
L591.451 548.986
L592.121 551.189
L592.79 550.67
L593.46 551.221
L594.13 549.698
L594.799 551.48
L595.469 552.323
L596.138 552.031
L596.808 552.841
L597.478 552.226
L598.147 552.55
L598.817 551.74
L599.486 553.878
L600.156 554.915
L600.826 555.401
L602.165 555.044
L602.834 553.36
L603.504 554.785
L604.174 555.53
L605.513 555.109
L606.182 556.405
L606.852 555.466
L607.522 554.882
L608.191 556.632
L608.861 554.396
L609.53 553.878
L610.2 555.563
L610.87 556.405
L611.539 556.988
L612.209 556.891
L612.878 557.215
L613.548 557.41
L614.218 556.114
L614.887 557.15
L615.557 555.692
L616.226 557.086
L616.896 556.567
L617.566 556.6
L618.235 555.984
L618.905 556.502
L619.574 558.868
L620.244 559.224
L620.914 558.868
L621.583 557.701
L622.253 557.896
L622.922 559.062
L623.592 559.71
L624.262 558.608
L624.931 559.548
L625.601 558.641
L626.94 560.326
L627.61 559.904
L628.279 561.233
L628.949 559.969
L629.618 559.872
L630.288 560.423
L630.958 561.136
L631.627 561.654
L632.297 560.326
L632.966 560.261
L633.636 559.483
L634.306 560.65
L634.975 559.807
L635.645 560.099
L636.314 561.038
L636.984 561.2
L637.654 560.52
L638.993 560.617
L639.662 561.784
L640.332 561.427
L641.002 563.015
L642.341 563.047
L643.01 563.177
L643.68 563.112
L644.35 563.987
L645.019 563.728
L646.358 562.043
L647.028 563.566
L647.698 563.89
L648.367 564.408
L649.037 565.218
L649.706 565.607
L651.715 566.093
L652.385 567.259
L653.054 566.352
L653.724 566.579
L654.394 567.81
L655.063 566.514
L655.733 567.842
L656.402 566.87
L657.072 568.523
L657.742 568.328
L658.411 569.074
L659.081 569.203
L659.75 568.004
L660.42 568.166
L661.09 567.94
L661.759 568.652
L662.429 567.389
L663.098 568.361
L664.438 568.75
L665.777 568.62
L666.446 569.689
L667.116 569.592
L667.786 569.365
L668.455 569.851
L669.125 569.527
L669.794 571.86
L670.464 570.694
L671.134 570.629
L671.803 570.758
L672.473 571.244
L673.142 570.791
L673.812 571.601
L674.482 571.374
L675.151 570.694
L675.821 571.892
L676.49 570.402
L677.16 571.633
L677.83 572.119
L678.499 570.888
L679.169 572.605
L679.838 572.281
L681.178 571.99
L681.847 571.601
L682.517 571.99
L683.186 573.253
L683.856 571.892
L684.526 572.767
L685.195 574.225
L685.865 572.864
L686.534 572.929
L687.204 572.411
L687.874 573.804
L688.543 572.054
L689.213 573.448
L689.882 573.318
L690.552 573.804
L691.222 574.063
L691.891 573.772
L692.561 574.711
L693.9 573.577
L695.239 574.128
L695.909 573.804
L696.578 574.128
L697.248 574.193
L697.918 574.776
L698.587 574.744
L699.926 575.132
L700.596 574.42
L701.266 574.938
L701.935 575.132
L702.605 576.299
L703.274 575.813
L703.944 575.586
L704.614 575.78
L705.283 576.526
L705.953 576.688
L706.622 575.716
L707.292 575.813
L707.962 575.651
L708.631 576.558
L709.301 575.813
L709.97 575.975
L710.64 574.938
L711.31 576.137
L711.979 575.683
L712.649 575.521
L713.318 575.942
L713.988 575.262
L714.658 576.137
L715.327 576.169
L715.997 575.942
L716.666 576.817
L717.336 576.428
L718.006 576.558
L718.675 577.206
L719.345 577.271
L720.684 576.364
L722.023 577.498
L723.362 577.465
L724.032 577.433
L725.371 576.947
L726.041 577.271
L726.71 577.238
L727.38 577.044
L728.05 577.627
L728.719 577.66
L729.389 578.21
L730.058 578.372
L730.728 578.081
L731.398 577.368
L732.067 578.534
L732.737 578.016
L733.406 577.141
L734.076 578.048
L734.746 577.789
L735.415 578.632
L736.085 578.146
L736.754 578.794
L737.424 578.146
L738.094 579.182
L738.763 578.632
L739.433 577.789
L740.102 578.47
L740.772 578.146
L741.442 578.923
L742.111 578.437
L742.781 578.599
L743.45 579.02
L744.12 578.567
L744.79 578.923
L745.459 578.21
L746.129 578.988
L746.798 578.696
L747.468 579.571
L748.138 579.247
L748.807 579.15
L749.477 578.729
L750.146 578.826
L750.816 579.15
L751.486 578.729
L752.155 579.377
L754.164 580.025
L754.834 579.895
L755.503 579.474
L756.173 578.794
L756.842 579.053
L758.182 579.118
L758.851 579.895
L759.521 580.187
L760.19 579.474
L760.86 579.571
L761.53 579.085
L762.199 579.571
L762.869 578.988
L763.538 580.154
L764.208 579.118
L764.878 580.187
L766.217 579.733
L766.886 578.696
L767.556 579.733
L768.226 579.668
L769.565 579.928
L770.234 579.701
L771.574 579.992
L772.243 579.798
L772.913 580.316
L773.582 579.344
L774.252 580.09
L774.922 579.474
L775.591 579.604
L776.261 579.539
L776.93 579.604
L777.6 580.187
L777.6 580.187" style="fill:none;stroke:#ff0000;stroke-linecap:square;"/>
   </g>
   <g id="line2d_2">
    <path clip-path="url(#p7ceb695115)" d="
M108 580.414
L108.67 582.358
L110.009 582.779
L110.678 582.649
L111.348 582.358
L113.357 582.163
L114.696 582.066
L115.366 581.58
L116.035 581.515
L117.374 581.872
L118.714 581.872
L119.383 581.904
L120.053 581.386
L120.722 581.612
L121.392 581.548
L122.062 581.321
L123.401 581.677
L124.07 581.677
L124.74 581.224
L126.079 581.483
L126.749 581.159
L127.418 581.483
L128.088 581.58
L128.758 581.191
L129.427 581.191
L130.097 581.029
L130.766 581.321
L131.436 581.256
L132.106 580.738
L132.775 581.159
L133.445 580.576
L134.114 581.062
L135.454 580.867
L136.123 581.224
L136.793 581.256
L137.462 580.932
L138.132 580.9
L138.802 581.288
L139.471 580.997
L142.15 580.673
L142.819 581.224
L143.489 580.9
L144.158 581.191
L144.828 580.802
L145.498 580.543
L146.167 580.576
L146.837 579.895
L147.506 580.705
L148.176 581.094
L148.846 581.321
L149.515 580.608
L150.854 580.64
L151.524 580.64
L152.194 580.252
L152.863 580.738
L153.533 580.9
L154.202 580.867
L154.872 580.511
L155.542 580.997
L156.211 580.964
L157.55 581.515
L158.22 580.802
L159.559 581.062
L160.229 580.705
L160.898 581.321
L162.238 581.191
L162.907 580.608
L164.246 581.548
L164.916 581.774
L165.586 581.548
L166.255 581.159
L168.264 581.159
L168.934 581.159
L169.603 581.288
L170.273 581.094
L170.942 581.645
L171.612 581.191
L172.282 581.58
L172.951 581.094
L173.621 581.126
L174.29 581.321
L174.96 581.904
L175.63 581.58
L176.969 581.58
L177.638 581.936
L178.308 581.872
L178.978 582.098
L179.647 581.807
L180.317 581.904
L180.986 581.645
L181.656 581.677
L182.326 581.839
L182.995 581.548
L183.665 582.001
L184.334 581.515
L185.004 581.872
L186.343 581.645
L187.013 581.548
L187.682 582.001
L189.022 582.358
L189.691 582.098
L190.361 582.066
L191.03 581.515
L192.37 581.742
L194.378 582.228
L195.048 581.904
L195.718 582.001
L196.387 581.418
L197.057 581.677
L197.726 582.131
L198.396 581.45
L199.735 581.839
L200.405 581.515
L201.074 581.71
L201.744 582.163
L203.083 581.839
L203.753 582.098
L205.762 581.807
L206.431 582.034
L207.101 582.034
L207.77 581.742
L208.44 581.774
L209.11 582.066
L209.779 582.034
L210.449 582.196
L211.118 582.034
L211.788 582.066
L213.797 581.548
L214.466 581.839
L215.136 582.325
L215.806 582.325
L217.145 582.066
L217.814 582.196
L219.154 581.936
L219.823 582.358
L223.171 582.455
L223.841 582.358
L224.51 582.131
L226.519 582.52
L227.189 582.325
L229.198 582.617
L229.867 582.455
L232.546 582.617
L233.885 582.746
L234.554 582.584
L235.224 582.714
L235.894 582.552
L236.563 582.682
L237.233 582.552
L239.242 582.617
L239.911 582.811
L240.581 582.714
L241.92 582.941
L243.259 582.649
L243.929 582.649
L244.598 582.422
L245.268 582.844
L248.616 582.811
L249.286 582.584
L249.955 582.844
L251.294 582.682
L251.964 582.293
L252.634 582.617
L253.303 582.552
L253.973 582.682
L254.642 582.552
L255.312 582.746
L255.982 582.779
L256.651 582.649
L257.321 582.649
L257.99 582.908
L258.66 582.714
L259.33 582.649
L260.669 583.006
L261.338 582.908
L262.008 582.584
L262.678 582.811
L264.017 582.876
L265.356 582.908
L266.026 582.908
L266.695 582.746
L268.704 582.779
L269.374 582.746
L271.382 583.006
L272.052 582.584
L273.391 582.811
L274.73 582.649
L275.4 582.908
L276.07 582.714
L276.739 582.682
L278.078 582.941
L278.748 582.876
L279.418 582.552
L280.087 582.552
L281.426 582.779
L283.435 582.779
L284.774 582.941
L286.783 582.714
L287.453 582.876
L288.122 582.811
L289.462 583.038
L290.801 583.038
L292.14 582.908
L292.81 583.103
L294.818 582.811
L296.158 582.876
L296.827 582.714
L297.497 582.973
L300.175 583.038
L302.184 582.844
L303.523 583.006
L304.193 582.844
L306.871 583.038
L307.541 582.941
L308.21 583.038
L308.88 582.811
L309.55 583.006
L310.219 583.038
L311.558 582.746
L312.228 583.006
L321.602 582.908
L322.272 582.876
L322.942 583.006
L324.281 582.844
L325.62 582.714
L326.29 583.006
L327.629 582.973
L328.298 583.038
L328.968 582.876
L331.646 583.135
L332.316 582.908
L332.986 582.908
L333.655 583.07
L334.994 582.908
L336.334 583.038
L337.673 583.006
L340.351 583.038
L341.69 582.844
L342.36 583.038
L343.03 582.908
L343.699 583.006
L344.369 582.908
L345.038 583.07
L345.708 582.876
L346.378 583.103
L347.717 582.973
L348.386 582.941
L349.726 583.07
L350.395 583.07
L351.065 582.941
L351.734 583.103
L353.743 582.876
L354.413 582.876
L355.082 583.006
L355.752 582.811
L356.422 582.973
L357.091 582.844
L361.778 583.07
L362.448 582.973
L363.118 583.135
L364.457 582.908
L365.126 583.07
L365.796 582.941
L366.466 582.973
L367.135 582.876
L368.474 583.07
L373.162 582.876
L373.831 583.006
L374.501 582.876
L375.17 583.103
L375.84 582.973
L376.51 583.006
L377.179 582.908
L378.518 583.006
L379.188 582.973
L379.858 583.07
L380.527 582.941
L383.206 583.006
L383.875 582.908
L384.545 583.07
L385.214 583.006
L385.884 582.779
L387.223 583.006
L394.589 582.908
L395.258 582.876
L395.928 583.07
L397.267 582.811
L397.937 583.07
L399.946 582.941
L400.615 583.07
L401.954 582.844
L402.624 583.038
L403.294 582.941
L403.963 583.07
L405.302 583.038
L405.972 583.07
L406.642 582.941
L407.311 583.006
L407.981 582.876
L408.65 583.038
L409.32 583.07
L409.99 582.973
L411.998 583.103
L412.668 582.941
L415.346 582.973
L416.016 582.973
L416.686 582.844
L417.355 583.135
L418.025 582.941
L418.694 583.038
L419.364 582.941
L420.034 583.006
L421.373 582.973
L422.712 583.07
L424.051 582.908
L425.39 583.07
L427.399 582.876
L428.738 583.103
L429.408 582.941
L430.078 582.973
L430.747 582.844
L432.756 583.135
L433.426 583.006
L434.765 582.973
L437.443 583.006
L438.113 582.811
L438.782 582.811
L439.452 583.006
L440.122 582.973
L440.791 583.103
L441.461 582.941
L442.13 582.941
L442.8 583.07
L443.47 582.422
L444.139 579.571
L444.809 572.411
L445.478 562.043
L446.148 546.134
L447.487 509.749
L448.157 494.068
L448.826 474.887
L450.166 445.079
L450.835 428.296
L451.505 416.178
L454.853 331.582
L456.862 274.914
L457.531 258.649
L460.21 178.2
L460.879 162.259
L461.549 155.228
L462.888 128.239
L463.558 115.15
L466.236 81.5184
L466.906 78.246
L467.575 76.6908
L468.245 73.4508
L468.914 71.5392
L469.584 68.364
L470.254 71.4744
L470.923 72.5112
L471.593 80.1576
L472.262 84.402
L472.932 97.2648
L473.602 99.2736
L474.941 112.363
L475.61 112.784
L476.28 123.995
L476.95 126.36
L477.619 132.192
L478.289 141.037
L478.958 147.517
L479.628 151.891
L480.967 170.716
L481.637 176.386
L482.306 183.87
L482.976 195.21
L484.315 210.179
L484.985 220.579
L486.324 237.848
L486.994 238.918
L487.663 249.998
L488.333 249.383
L489.002 256.802
L489.672 266.036
L490.342 270.054
L491.011 275.724
L491.681 279.839
L492.35 285.476
L493.02 289.818
L493.69 291.179
L494.359 298.404
L495.029 297.302
L495.698 301.709
L496.368 306.958
L497.038 310.1
L497.707 315.932
L498.377 316.84
L499.046 318.913
L499.716 324.162
L500.386 323.384
L501.055 323.514
L501.725 325.199
L502.394 328.05
L503.064 328.633
L503.734 331.193
L504.403 331.776
L505.073 331.517
L505.742 332.392
L506.412 334.238
L507.082 338.839
L507.751 337.77
L508.421 336.053
L509.09 340.33
L509.76 343.44
L510.43 339.52
L511.099 344.347
L511.769 336.118
L512.438 341.14
L513.108 341.658
L513.778 343.213
L514.447 342.274
L515.117 340.816
L515.786 338.677
L516.456 340.394
L517.126 338.645
L517.795 338.418
L518.465 337.025
L519.134 336.085
L519.804 338.256
L521.143 340.913
L521.813 337.446
L522.482 341.852
L523.152 339.811
L523.822 344.444
L524.491 342.338
L525.161 348.268
L525.83 344.056
L526.5 349.434
L527.17 349.564
L527.839 353.354
L528.509 346.453
L529.178 351.67
L529.848 352.642
L530.518 358.15
L531.187 358.182
L531.857 366.152
L532.526 365.828
L533.196 370.721
L533.866 372.762
L534.535 371.012
L535.205 370.494
L535.874 369.457
L536.544 376.618
L537.214 378.497
L537.883 379.793
L538.553 382.903
L539.222 381.672
L539.892 382.45
L540.562 387.731
L541.231 391.846
L541.901 394.859
L542.57 394.924
L543.24 392.202
L543.91 394.988
L544.579 396.155
L545.249 396.997
L545.918 399.816
L546.588 400.172
L547.258 401.695
L547.927 403.996
L548.597 404.449
L549.266 406.037
L549.936 410.022
L550.606 407.689
L551.275 413.294
L551.945 410.832
L552.614 416.405
L553.284 416.47
L553.954 414.882
L555.293 424.634
L555.962 424.148
L556.632 424.116
L557.302 424.375
L557.971 425.023
L558.641 426.514
L559.31 424.343
L559.98 426.708
L560.65 424.375
L561.319 425.898
L561.989 424.44
L562.658 426.546
L563.328 423.533
L563.998 425.995
L564.667 425.833
L565.337 428.328
L566.006 429.527
L566.676 432.346
L567.346 432.799
L568.015 432.994
L568.685 430.726
L569.354 432.281
L570.024 433.512
L570.694 437.659
L571.363 430.985
L572.033 430.402
L572.702 433.706
L573.372 432.799
L574.042 432.864
L574.711 433.901
L575.381 431.179
L576.05 433.868
L576.72 428.879
L577.39 431.147
L578.059 435.359
L578.729 433.739
L579.398 435.65
L580.068 432.832
L580.738 434.743
L581.407 437.432
L582.077 437.432
L582.746 439.538
L583.416 438.469
L584.086 437.886
L584.755 440.737
L585.425 440.316
L586.764 445.5
L587.434 445.889
L588.103 448.319
L588.773 448.189
L589.442 447.088
L590.112 445.306
L590.782 447.412
L591.451 447.671
L592.121 451.332
L592.79 451.721
L593.46 454.41
L594.13 456.322
L594.799 454.507
L595.469 458.201
L596.138 460.793
L597.478 463.093
L598.147 463.709
L598.817 467.046
L599.486 466.754
L600.156 465.653
L600.826 466.884
L601.495 465.167
L602.165 472.36
L602.834 474.044
L603.504 473.332
L604.174 471.161
L604.843 473.364
L605.513 472.489
L606.182 471.809
L606.852 473.234
L607.522 472.165
L608.191 470.61
L608.861 472.068
L609.53 474.012
L610.2 474.498
L610.87 476.442
L611.539 474.012
L612.209 476.831
L612.878 478.321
L613.548 475.405
L614.218 476.118
L614.887 476.312
L616.226 478.289
L616.896 480.978
L617.566 479.52
L618.235 480.2
L618.905 480.265
L619.574 483.959
L620.244 486.032
L620.914 485.158
L622.253 488.203
L622.922 488.009
L623.592 487.328
L624.262 487.069
L624.931 485.546
L625.601 490.277
L626.27 490.471
L626.94 489.564
L627.61 491.152
L628.279 488.819
L628.949 491.573
L629.618 492.221
L630.288 490.795
L630.958 491.735
L631.627 489.175
L632.297 491.54
L632.966 491.476
L633.636 491.119
L634.306 492.091
L634.975 496.206
L635.645 493.387
L636.314 493.29
L636.984 493.063
L637.654 496.336
L638.323 496.109
L638.993 496.984
L639.662 497.243
L640.332 497.988
L641.002 498.506
L641.671 500.839
L642.341 498.733
L643.01 503.269
L643.68 505.084
L644.35 505.926
L645.019 505.148
L645.689 507.708
L646.358 504.274
L647.028 506.509
L647.698 506.801
L648.367 511.888
L649.037 510.235
L649.706 512.471
L650.376 512.827
L651.046 514.804
L651.715 514.48
L652.385 516.715
L653.054 515.97
L653.724 516.942
L654.394 514.415
L655.063 517.849
L655.733 516.424
L656.402 518.173
L657.072 516.942
L657.742 519.372
L658.411 521.024
L659.081 519.826
L659.75 520.765
L660.42 521.122
L661.09 520.96
L661.759 522.029
L662.429 521.834
L663.098 521.478
L663.768 522.223
L664.438 521.899
L665.107 526.468
L666.446 528.314
L667.116 527.893
L667.786 529.805
L668.455 529.092
L669.125 530.096
L669.794 530.874
L670.464 532.462
L671.134 532.559
L671.803 533.142
L672.473 532.17
L673.142 532.818
L673.812 532.105
L674.482 533.272
L675.151 533.336
L675.821 535.378
L676.49 536.965
L677.16 536.317
L677.83 536.155
L678.499 538.294
L679.169 539.557
L679.838 537.613
L680.508 539.687
L681.178 539.395
L681.847 537.03
L682.517 539.266
L683.186 540.821
L683.856 540.529
L684.526 541.015
L685.195 541.015
L685.865 543.218
L686.534 542.927
L687.204 542.117
L687.874 540.918
L688.543 543.445
L689.213 544.223
L689.882 543.38
L690.552 544.288
L691.222 544.482
L691.891 547.301
L692.561 548.176
L693.23 547.787
L693.9 549.18
L695.239 546.361
L695.909 549.018
L696.578 547.171
L697.248 547.009
L697.918 549.828
L698.587 549.148
L699.257 548.921
L700.596 549.407
L701.266 549.083
L701.935 550.249
L702.605 549.99
L703.274 550.606
L703.944 554.137
L704.614 553.165
L705.283 553.554
L705.953 555.563
L706.622 554.008
L707.292 555.401
L707.962 555.498
L708.631 554.623
L709.301 554.818
L709.97 553.327
L710.64 553.1
L711.31 552.679
L711.979 554.234
L712.649 555.401
L713.318 554.364
L714.658 555.304
L715.327 556.535
L715.997 556.049
L716.666 556.114
L717.336 555.174
L718.006 557.798
L718.675 556.243
L719.345 556.924
L720.014 558.479
L720.684 557.96
L722.023 560.779
L722.693 559.742
L723.362 559.678
L724.032 560.617
L724.702 560.974
L725.371 559.645
L726.041 559.969
L726.71 561.492
L727.38 560.455
L728.05 562.01
L728.719 561.881
L729.389 560.844
L730.058 560.034
L731.398 562.464
L732.067 562.529
L732.737 563.63
L733.406 561.103
L734.076 562.626
L734.746 563.015
L735.415 563.728
L736.085 564.019
L736.754 563.663
L737.424 564.278
L738.094 564.635
L738.763 564.538
L739.433 564.635
L740.102 565.963
L740.772 564.959
L741.442 564.667
L742.111 563.371
L742.781 565.607
L743.45 564.732
L744.12 566.87
L744.79 565.834
L745.459 566.838
L746.129 565.866
L746.798 565.963
L747.468 566.773
L748.138 566.806
L748.807 566.287
L749.477 566.903
L750.146 566.644
L750.816 567.454
L751.486 567.907
L752.155 566.255
L752.825 567.227
L753.494 567.551
L754.164 568.264
L754.834 567.648
L755.503 567.778
L756.173 567.421
L756.842 566.903
L757.512 568.199
L758.182 567.356
L758.851 566.903
L759.521 567.259
L760.19 568.717
L760.86 569.138
L761.53 567.097
L762.199 567.81
L762.869 568.814
L763.538 569.106
L764.208 569.56
L764.878 568.847
L765.547 568.458
L766.217 569.171
L766.886 570.467
L767.556 568.976
L768.226 569.365
L768.895 570.856
L769.565 570.467
L770.234 570.888
L770.904 570.434
L771.574 570.37
L772.243 570.92
L772.913 570.758
L773.582 569.851
L774.252 569.43
L774.922 569.754
L775.591 569.171
L776.261 569.365
L776.93 570.337
L777.6 571.05
L777.6 571.05" style="fill:none;stroke:#008000;stroke-linecap:square;"/>
   </g>
   <g id="line2d_3">
    <path clip-path="url(#p7ceb695115)" d="
M108 582.52
L108.67 583.038
L109.339 583.135
L111.348 583.038
L113.357 582.844
L114.026 582.779
L115.366 583.038
L116.705 582.811
L119.383 582.714
L120.053 582.682
L120.722 582.908
L121.392 582.714
L122.062 582.811
L122.731 582.714
L123.401 582.876
L124.74 582.844
L125.41 582.876
L126.079 582.682
L126.749 582.746
L127.418 582.617
L128.088 582.682
L128.758 582.617
L129.427 582.844
L130.097 582.584
L130.766 582.779
L131.436 582.746
L132.106 582.584
L132.775 582.811
L133.445 582.682
L134.114 582.293
L134.784 582.52
L136.793 582.811
L138.802 582.682
L139.471 582.973
L140.81 582.52
L141.48 582.908
L142.819 582.584
L144.158 582.746
L144.828 582.649
L145.498 583.07
L146.167 582.52
L148.176 582.52
L148.846 582.876
L150.185 582.455
L150.854 582.746
L151.524 582.455
L154.202 582.779
L156.881 582.584
L158.22 582.779
L158.89 582.714
L159.559 582.52
L160.229 582.714
L161.568 582.682
L162.238 582.779
L162.907 582.552
L163.577 582.908
L164.246 582.584
L164.916 582.779
L165.586 582.52
L166.255 582.811
L168.264 582.649
L168.934 582.487
L169.603 582.811
L170.273 582.908
L170.942 582.714
L172.282 582.844
L172.951 582.649
L175.63 582.714
L176.299 582.908
L176.969 582.908
L177.638 582.714
L178.308 582.779
L178.978 582.617
L179.647 582.876
L180.317 583.006
L183.665 582.973
L184.334 582.811
L185.674 582.876
L187.013 582.811
L188.352 582.779
L193.039 582.876
L194.378 582.908
L195.048 582.746
L195.718 582.941
L196.387 582.714
L197.057 582.682
L197.726 583.006
L198.396 582.876
L199.066 583.006
L201.074 583.006
L201.744 582.649
L202.414 582.876
L203.083 582.973
L204.422 582.811
L205.762 582.973
L207.101 582.876
L207.77 582.682
L208.44 582.682
L209.11 582.941
L209.779 582.941
L210.449 582.779
L211.788 582.811
L212.458 583.038
L213.127 582.973
L213.797 583.103
L214.466 582.941
L217.814 582.973
L218.484 583.07
L219.823 582.941
L226.519 583.006
L227.189 583.103
L228.528 582.973
L229.198 583.103
L232.546 582.973
L233.215 583.2
L235.224 583.103
L237.233 583.038
L237.902 583.103
L238.572 583.006
L239.242 583.135
L242.59 583.038
L243.259 583.135
L246.607 583.038
L249.286 583.07
L249.955 582.973
L250.625 583.103
L251.964 583.006
L256.651 583.07
L257.321 583.168
L258.66 583.07
L262.678 583.2
L264.686 583.103
L265.356 583.135
L266.026 583.038
L266.695 583.2
L267.365 583.038
L268.034 583.135
L269.374 583.07
L272.052 583.2
L272.722 583.038
L275.4 583.135
L276.07 583.168
L277.409 582.973
L278.748 583.135
L279.418 583.038
L282.096 583.2
L282.766 583.07
L283.435 583.2
L284.105 583.07
L285.444 583.168
L286.783 583.103
L287.453 583.2
L288.122 583.103
L288.792 583.2
L292.81 583.103
L294.149 583.2
L298.166 583.103
L443.47 583.103
L444.139 582.066
L444.809 580.122
L446.148 574.258
L447.487 563.954
L448.157 561.168
L448.826 557.053
L449.496 550.67
L450.166 547.657
L450.835 545.778
L451.505 541.631
L452.174 540.043
L453.514 528.995
L454.183 522.191
L454.853 519.761
L455.522 514.933
L456.192 513.508
L456.862 505.634
L458.201 492.188
L458.87 490.504
L462.218 471.874
L462.888 469.735
L463.558 464.227
L464.227 462.542
L464.897 462.024
L465.566 460.21
L466.236 460.339
L466.906 458.104
L467.575 454.604
L468.245 457.553
L468.914 454.345
L469.584 457.585
L470.254 454.604
L470.923 454.021
L471.593 456.775
L472.262 458.071
L472.932 460.566
L473.602 461.279
L474.941 463.158
L475.61 466.625
L476.28 469.249
L476.95 471.226
L477.619 472.457
L478.289 471.323
L478.958 475.891
L479.628 476.215
L480.298 475.794
L480.967 479.876
L481.637 480.006
L482.976 486
L483.646 486.324
L484.985 490.73
L485.654 493.808
L486.324 495.04
L486.994 498.247
L487.663 497.47
L488.333 499.154
L489.002 502.686
L489.672 502.232
L490.342 502.718
L491.011 506.768
L491.681 507.254
L492.35 508.615
L493.02 508.648
L493.69 511.337
L494.359 508.939
L495.029 511.888
L495.698 513.248
L496.368 512.503
L497.038 515.484
L497.707 516.1
L498.377 515.776
L499.046 519.016
L499.716 517.039
L500.386 518.173
L501.055 520.765
L501.725 522.223
L502.394 519.955
L503.064 519.178
L503.734 517.72
L504.403 521.51
L505.073 519.988
L505.742 523.39
L506.412 521.478
L507.751 521.316
L508.421 522.936
L509.09 521.867
L509.76 522.612
L510.43 521.705
L511.099 524.135
L511.769 522.806
L512.438 520.571
L513.108 521.996
L513.778 524.07
L515.117 524.426
L516.456 521.219
L517.126 522.742
L517.795 525.398
L518.465 523.487
L519.134 521.122
L519.804 521.381
L520.474 522.126
L521.143 521.51
L521.813 524.491
L522.482 522.126
L523.152 521.478
L523.822 522.806
L524.491 521.802
L525.161 523.228
L525.83 525.949
L527.17 522.936
L527.839 523.714
L528.509 526.662
L529.178 524.88
L529.848 526.079
L530.518 525.431
L531.187 528.606
L531.857 527.731
L532.526 529.254
L533.196 531.457
L533.866 530.971
L534.535 531.911
L535.205 529.934
L535.874 532.138
L536.544 530.55
L537.214 533.174
L537.883 532.073
L538.553 531.716
L539.222 532.462
L539.892 534.017
L540.562 533.531
L541.231 533.434
L541.901 534.341
L542.57 533.207
L543.24 536.155
L543.91 536.576
L544.579 534.146
L545.249 535.151
L545.918 535.313
L546.588 534.535
L547.258 536.609
L548.597 537.516
L549.266 539.266
L549.936 539.784
L550.606 540.594
L551.275 538.974
L551.945 541.534
L552.614 540.626
L553.284 540.853
L553.954 540.367
L554.623 542.02
L555.293 542.894
L555.962 543.186
L556.632 542.441
L557.971 544.871
L558.641 544.417
L559.31 544.352
L559.98 544.871
L560.65 542.894
L561.319 543.089
L561.989 542.538
L562.658 543.769
L563.328 545.357
L563.998 543.704
L564.667 543.899
L565.337 543.802
L566.006 544.32
L566.676 544.093
L567.346 545.422
L568.685 546.458
L569.354 545.227
L570.024 545.616
L570.694 544.838
L571.363 544.806
L572.033 545.486
L572.702 544.644
L573.372 544.288
L574.042 544.838
L574.711 545.033
L575.381 546.912
L576.05 544.482
L576.72 545.324
L577.39 546.944
L578.059 544.288
L578.729 545.875
L580.738 546.782
L581.407 546.588
L582.077 546.556
L582.746 546.037
L583.416 548.24
L584.086 548.435
L584.755 546.005
L585.425 549.407
L586.094 548.662
L586.764 546.394
L587.434 548.111
L588.103 548.37
L588.773 548.273
L589.442 549.893
L590.112 549.601
L590.782 549.666
L591.451 551.934
L592.121 548.726
L592.79 550.703
L593.46 550.152
L594.13 552.031
L594.799 551.642
L595.469 550.768
L596.138 553.424
L596.808 551.027
L597.478 553.424
L598.147 553.586
L598.817 552.323
L600.156 554.234
L600.826 554.396
L601.495 553.975
L602.165 553.813
L602.834 554.072
L603.504 554.461
L604.174 554.494
L604.843 554.98
L605.513 556.34
L606.182 554.915
L606.852 555.044
L607.522 554.915
L608.191 557.053
L608.861 555.206
L610.2 557.183
L610.87 555.401
L611.539 556.373
L612.209 558.187
L612.878 555.919
L613.548 557.021
L614.218 556.114
L614.887 557.377
L615.557 556.924
L616.226 556.924
L616.896 556.276
L617.566 556.891
L618.235 556.34
L618.905 557.863
L619.574 557.539
L620.244 556.697
L620.914 557.053
L621.583 557.993
L622.253 558.608
L622.922 557.442
L623.592 558.511
L624.262 558.446
L624.931 560.39
L625.601 558.835
L626.27 559.418
L626.94 561.071
L627.61 559.742
L628.279 559.872
L629.618 559.192
L630.288 559.159
L630.958 560.034
L631.627 559.354
L632.297 559.451
L632.966 560.941
L633.636 559.904
L634.306 559.678
L634.975 560.39
L635.645 560.682
L636.984 562.075
L637.654 561.071
L638.323 560.974
L638.993 561.751
L639.662 561.233
L640.332 560.39
L641.002 562.885
L641.671 563.404
L642.341 564.116
L643.01 561.881
L643.68 563.015
L644.35 563.306
L645.019 564.181
L645.689 564.246
L646.358 564.473
L647.028 565.639
L647.698 565.51
L648.367 564.116
L649.037 566.838
L649.706 565.445
L650.376 566.093
L651.046 566.06
L651.715 566.158
L652.385 565.931
L653.054 567.065
L653.724 567.389
L654.394 566.611
L655.063 567.065
L655.733 566.708
L656.402 568.296
L657.072 567.032
L657.742 566.773
L658.411 568.069
L659.081 567.81
L659.75 568.814
L660.42 567.486
L661.09 570.046
L661.759 567.356
L663.098 568.166
L663.768 567.713
L664.438 569.3
L665.107 567.778
L666.446 569.981
L667.786 568.49
L668.455 569.722
L669.125 569.624
L669.794 570.532
L670.464 570.305
L671.134 570.564
L671.803 571.18
L672.473 570.305
L673.142 571.18
L673.812 570.985
L674.482 571.439
L675.151 571.73
L675.821 570.596
L676.49 571.244
L677.16 571.342
L677.83 572.216
L678.499 572.152
L679.169 571.925
L679.838 572.638
L680.508 571.698
L681.178 572.119
L681.847 572.8
L683.186 571.504
L683.856 573.156
L684.526 572.249
L685.195 572.638
L687.204 573.286
L687.874 572.962
L688.543 572.864
L689.213 572.994
L689.882 573.61
L690.552 573.415
L691.222 574.355
L691.891 573.156
L692.561 573.998
L693.9 574.484
L694.57 574.355
L695.239 574.776
L696.578 573.124
L697.248 574.16
L697.918 574.031
L699.257 574.096
L699.926 574.679
L700.596 574.906
L701.266 575.456
L701.935 575.618
L702.605 575.327
L703.274 574.549
L703.944 575.813
L704.614 576.299
L705.953 575.132
L706.622 576.266
L707.292 576.104
L707.962 576.137
L708.631 575.845
L709.301 575.748
L709.97 574.873
L711.31 576.493
L711.979 575.878
L712.649 575.813
L713.318 576.007
L713.988 575.813
L714.658 574.841
L715.327 576.364
L715.997 576.137
L716.666 576.655
L717.336 576.655
L718.006 575.91
L718.675 576.104
L720.014 576.914
L720.684 577.4
L721.354 577.141
L722.023 577.4
L722.693 577.498
L723.362 577.238
L724.032 577.854
L725.371 577.012
L726.041 577.044
L726.71 578.146
L728.05 577.433
L728.719 577.854
L729.389 577.886
L730.728 577.238
L731.398 577.595
L732.067 578.502
L732.737 577.757
L733.406 578.21
L734.076 578.146
L734.746 577.692
L735.415 578.632
L736.754 577.53
L737.424 578.081
L738.094 578.308
L738.763 578.729
L739.433 578.34
L740.102 577.498
L740.772 578.372
L741.442 578.47
L742.781 578.988
L743.45 578.664
L744.12 579.247
L744.79 578.47
L745.459 578.534
L746.129 579.15
L746.798 578.794
L747.468 579.182
L748.807 579.118
L749.477 579.539
L750.146 579.604
L751.486 578.956
L752.155 579.28
L752.825 579.02
L753.494 579.863
L754.164 578.858
L754.834 579.539
L755.503 579.409
L756.173 578.988
L757.512 578.761
L758.182 579.312
L758.851 579.344
L760.19 580.025
L760.86 579.28
L761.53 579.733
L762.199 579.474
L762.869 579.636
L763.538 579.928
L764.208 579.215
L766.217 579.539
L766.886 579.506
L767.556 579.15
L768.226 580.09
L768.895 579.766
L769.565 579.992
L770.234 579.733
L771.574 580.543
L772.243 580.284
L772.913 579.668
L774.252 579.83
L774.922 579.604
L775.591 580.349
L776.261 580.608
L776.93 580.122
L777.6 580.219
L777.6 580.219" style="fill:none;stroke:#0000ff;stroke-linecap:square;"/>
   </g>
   <g id="patch_3">
    <path d="
M777.6 583.2
L777.6 64.8" style="fill:none;stroke:#000000;stroke-linecap:square;stroke-linejoin:miter;"/>
   </g>
   <g id="patch_4">
    <path d="
M108 583.2
L777.6 583.2" style="fill:none;stroke:#000000;stroke-linecap:square;stroke-linejoin:miter;"/>
   </g>
   <g id="patch_5">
    <path d="
M108 583.2
L108 64.8" style="fill:none;stroke:#000000;stroke-linecap:square;stroke-linejoin:miter;"/>
   </g>
   <g id="patch_6">
    <path d="
M108 64.8
L777.6 64.8" style="fill:none;stroke:#000000;stroke-linecap:square;stroke-linejoin:miter;"/>
   </g>
   <g id="matplotlib.axis_1">
    <g id="xtick_1">
     <g id="line2d_4">
      <defs>
       <path d="
M0 0
L0 -4" id="mc7db9fdffb" style="stroke:#000000;stroke-width:0.5;"/>
      </defs>
      <g>
       <use style="stroke:#000000;stroke-width:0.5;" x="108.0" xlink:href="#mc7db9fdffb" y="583.2"/>
      </g>
     </g>
     <g id="line2d_5">
      <defs>
       <path d="
M0 0
L0 4" id="m5a7d422ac3" style="stroke:#000000;stroke-width:0.5;"/>
      </defs>
      <g>
       <use style="stroke:#000000;stroke-width:0.5;" x="108.0" xlink:href="#m5a7d422ac3" y="64.8"/>
      </g>
     </g>
     <g id="text_1">
      <!-- 0 -->
      <defs>
       <path d="
M31.7812 66.4062
Q24.1719 66.4062 20.3281 58.9062
Q16.5 51.4219 16.5 36.375
Q16.5 21.3906 20.3281 13.8906
Q24.1719 6.39062 31.7812 6.39062
Q39.4531 6.39062 43.2812 13.8906
Q47.125 21.3906 47.125 36.375
Q47.125 51.4219 43.2812 58.9062
Q39.4531 66.4062 31.7812 66.4062
M31.7812 74.2188
Q44.0469 74.2188 50.5156 64.5156
Q56.9844 54.8281 56.9844 36.375
Q56.9844 17.9688 50.5156 8.26562
Q44.0469 -1.42188 31.7812 -1.42188
Q19.5312 -1.42188 13.0625 8.26562
Q6.59375 17.9688 6.59375 36.375
Q6.59375 54.8281 13.0625 64.5156
Q19.5312 74.2188 31.7812 74.2188" id="BitstreamVeraSans-Roman-30"/>
      </defs>
      <g transform="translate(104.9765625 596.318125)scale(0.12 -0.12)">
       <use xlink:href="#BitstreamVeraSans-Roman-30"/>
      </g>
     </g>
    </g>
    <g id="xtick_2">
     <g id="line2d_6">
      <g>
       <use style="stroke:#000000;stroke-width:0.5;" x="275.4" xlink:href="#mc7db9fdffb" y="583.2"/>
      </g>
     </g>
     <g id="line2d_7">
      <g>
       <use style="stroke:#000000;stroke-width:0.5;" x="275.4" xlink:href="#m5a7d422ac3" y="64.8"/>
      </g>
     </g>
     <g id="text_2">
      <!-- 50000 -->
      <defs>
       <path d="
M10.7969 72.9062
L49.5156 72.9062
L49.5156 64.5938
L19.8281 64.5938
L19.8281 46.7344
Q21.9688 47.4688 24.1094 47.8281
Q26.2656 48.1875 28.4219 48.1875
Q40.625 48.1875 47.75 41.5
Q54.8906 34.8125 54.8906 23.3906
Q54.8906 11.625 47.5625 5.09375
Q40.2344 -1.42188 26.9062 -1.42188
Q22.3125 -1.42188 17.5469 -0.640625
Q12.7969 0.140625 7.71875 1.70312
L7.71875 11.625
Q12.1094 9.23438 16.7969 8.0625
Q21.4844 6.89062 26.7031 6.89062
Q35.1562 6.89062 40.0781 11.3281
Q45.0156 15.7656 45.0156 23.3906
Q45.0156 31 40.0781 35.4375
Q35.1562 39.8906 26.7031 39.8906
Q22.75 39.8906 18.8125 39.0156
Q14.8906 38.1406 10.7969 36.2812
z
" id="BitstreamVeraSans-Roman-35"/>
      </defs>
      <g transform="translate(257.1740625 596.318125)scale(0.12 -0.12)">
       <use xlink:href="#BitstreamVeraSans-Roman-35"/>
       <use x="63.623046875" xlink:href="#BitstreamVeraSans-Roman-30"/>
       <use x="127.24609375" xlink:href="#BitstreamVeraSans-Roman-30"/>
       <use x="190.869140625" xlink:href="#BitstreamVeraSans-Roman-30"/>
       <use x="254.4921875" xlink:href="#BitstreamVeraSans-Roman-30"/>
      </g>
     </g>
    </g>
    <g id="xtick_3">
     <g id="line2d_8">
      <g>
       <use style="stroke:#000000;stroke-width:0.5;" x="442.8" xlink:href="#mc7db9fdffb" y="583.2"/>
      </g>
     </g>
     <g id="line2d_9">
      <g>
       <use style="stroke:#000000;stroke-width:0.5;" x="442.8" xlink:href="#m5a7d422ac3" y="64.8"/>
      </g>
     </g>
     <g id="text_3">
      <!-- 100000 -->
      <defs>
       <path d="
M12.4062 8.29688
L28.5156 8.29688
L28.5156 63.9219
L10.9844 60.4062
L10.9844 69.3906
L28.4219 72.9062
L38.2812 72.9062
L38.2812 8.29688
L54.3906 8.29688
L54.3906 0
L12.4062 0
z
" id="BitstreamVeraSans-Roman-31"/>
      </defs>
      <g transform="translate(420.9525 596.318125)scale(0.12 -0.12)">
       <use xlink:href="#BitstreamVeraSans-Roman-31"/>
       <use x="63.623046875" xlink:href="#BitstreamVeraSans-Roman-30"/>
       <use x="127.24609375" xlink:href="#BitstreamVeraSans-Roman-30"/>
       <use x="190.869140625" xlink:href="#BitstreamVeraSans-Roman-30"/>
       <use x="254.4921875" xlink:href="#BitstreamVeraSans-Roman-30"/>
       <use x="318.115234375" xlink:href="#BitstreamVeraSans-Roman-30"/>
      </g>
     </g>
    </g>
    <g id="xtick_4">
     <g id="line2d_10">
      <g>
       <use style="stroke:#000000;stroke-width:0.5;" x="610.2" xlink:href="#mc7db9fdffb" y="583.2"/>
      </g>
     </g>
     <g id="line2d_11">
      <g>
       <use style="stroke:#000000;stroke-width:0.5;" x="610.2" xlink:href="#m5a7d422ac3" y="64.8"/>
      </g>
     </g>
     <g id="text_4">
      <!-- 150000 -->
      <g transform="translate(588.3525 596.318125)scale(0.12 -0.12)">
       <use xlink:href="#BitstreamVeraSans-Roman-31"/>
       <use x="63.623046875" xlink:href="#BitstreamVeraSans-Roman-35"/>
       <use x="127.24609375" xlink:href="#BitstreamVeraSans-Roman-30"/>
       <use x="190.869140625" xlink:href="#BitstreamVeraSans-Roman-30"/>
       <use x="254.4921875" xlink:href="#BitstreamVeraSans-Roman-30"/>
       <use x="318.115234375" xlink:href="#BitstreamVeraSans-Roman-30"/>
      </g>
     </g>
    </g>
    <g id="xtick_5">
     <g id="line2d_12">
      <g>
       <use style="stroke:#000000;stroke-width:0.5;" x="777.6" xlink:href="#mc7db9fdffb" y="583.2"/>
      </g>
     </g>
     <g id="line2d_13">
      <g>
       <use style="stroke:#000000;stroke-width:0.5;" x="777.6" xlink:href="#m5a7d422ac3" y="64.8"/>
      </g>
     </g>
     <g id="text_5">
      <!-- 200000 -->
      <defs>
       <path d="
M19.1875 8.29688
L53.6094 8.29688
L53.6094 0
L7.32812 0
L7.32812 8.29688
Q12.9375 14.1094 22.625 23.8906
Q32.3281 33.6875 34.8125 36.5312
Q39.5469 41.8438 41.4219 45.5312
Q43.3125 49.2188 43.3125 52.7812
Q43.3125 58.5938 39.2344 62.25
Q35.1562 65.9219 28.6094 65.9219
Q23.9688 65.9219 18.8125 64.3125
Q13.6719 62.7031 7.8125 59.4219
L7.8125 69.3906
Q13.7656 71.7812 18.9375 73
Q24.125 74.2188 28.4219 74.2188
Q39.75 74.2188 46.4844 68.5469
Q53.2188 62.8906 53.2188 53.4219
Q53.2188 48.9219 51.5312 44.8906
Q49.8594 40.875 45.4062 35.4062
Q44.1875 33.9844 37.6406 27.2188
Q31.1094 20.4531 19.1875 8.29688" id="BitstreamVeraSans-Roman-32"/>
      </defs>
      <g transform="translate(755.533125 596.318125)scale(0.12 -0.12)">
       <use xlink:href="#BitstreamVeraSans-Roman-32"/>
       <use x="63.623046875" xlink:href="#BitstreamVeraSans-Roman-30"/>
       <use x="127.24609375" xlink:href="#BitstreamVeraSans-Roman-30"/>
       <use x="190.869140625" xlink:href="#BitstreamVeraSans-Roman-30"/>
       <use x="254.4921875" xlink:href="#BitstreamVeraSans-Roman-30"/>
       <use x="318.115234375" xlink:href="#BitstreamVeraSans-Roman-30"/>
      </g>
     </g>
    </g>
    <g id="text_6">
     <!-- t / ms -->
     <defs>
      <path d="
M44.2812 53.0781
L44.2812 44.5781
Q40.4844 46.5312 36.375 47.5
Q32.2812 48.4844 27.875 48.4844
Q21.1875 48.4844 17.8438 46.4375
Q14.5 44.3906 14.5 40.2812
Q14.5 37.1562 16.8906 35.375
Q19.2812 33.5938 26.5156 31.9844
L29.5938 31.2969
Q39.1562 29.25 43.1875 25.5156
Q47.2188 21.7812 47.2188 15.0938
Q47.2188 7.46875 41.1875 3.01562
Q35.1562 -1.42188 24.6094 -1.42188
Q20.2188 -1.42188 15.4531 -0.5625
Q10.6875 0.296875 5.42188 2
L5.42188 11.2812
Q10.4062 8.6875 15.2344 7.39062
Q20.0625 6.10938 24.8125 6.10938
Q31.1562 6.10938 34.5625 8.28125
Q37.9844 10.4531 37.9844 14.4062
Q37.9844 18.0625 35.5156 20.0156
Q33.0625 21.9688 24.7031 23.7812
L21.5781 24.5156
Q13.2344 26.2656 9.51562 29.9062
Q5.8125 33.5469 5.8125 39.8906
Q5.8125 47.6094 11.2812 51.7969
Q16.75 56 26.8125 56
Q31.7812 56 36.1719 55.2656
Q40.5781 54.5469 44.2812 53.0781" id="BitstreamVeraSans-Roman-73"/>
      <path d="
M18.3125 70.2188
L18.3125 54.6875
L36.8125 54.6875
L36.8125 47.7031
L18.3125 47.7031
L18.3125 18.0156
Q18.3125 11.3281 20.1406 9.42188
Q21.9688 7.51562 27.5938 7.51562
L36.8125 7.51562
L36.8125 0
L27.5938 0
Q17.1875 0 13.2344 3.875
Q9.28125 7.76562 9.28125 18.0156
L9.28125 47.7031
L2.6875 47.7031
L2.6875 54.6875
L9.28125 54.6875
L9.28125 70.2188
z
" id="BitstreamVeraSans-Roman-74"/>
      <path id="BitstreamVeraSans-Roman-20"/>
      <path d="
M25.3906 72.9062
L33.6875 72.9062
L8.29688 -9.28125
L0 -9.28125
z
" id="BitstreamVeraSans-Roman-2f"/>
      <path d="
M52 44.1875
Q55.375 50.25 60.0625 53.125
Q64.75 56 71.0938 56
Q79.6406 56 84.2812 50.0156
Q88.9219 44.0469 88.9219 33.0156
L88.9219 0
L79.8906 0
L79.8906 32.7188
Q79.8906 40.5781 77.0938 44.375
Q74.3125 48.1875 68.6094 48.1875
Q61.625 48.1875 57.5625 43.5469
Q53.5156 38.9219 53.5156 30.9062
L53.5156 0
L44.4844 0
L44.4844 32.7188
Q44.4844 40.625 41.7031 44.4062
Q38.9219 48.1875 33.1094 48.1875
Q26.2188 48.1875 22.1562 43.5312
Q18.1094 38.875 18.1094 30.9062
L18.1094 0
L9.07812 0
L9.07812 54.6875
L18.1094 54.6875
L18.1094 46.1875
Q21.1875 51.2188 25.4844 53.6094
Q29.7812 56 35.6875 56
Q41.6562 56 45.8281 52.9688
Q50 49.9531 52 44.1875" id="BitstreamVeraSans-Roman-6d"/>
     </defs>
     <g transform="translate(425.9353125 612.931875)scale(0.12 -0.12)">
      <use xlink:href="#BitstreamVeraSans-Roman-74"/>
      <use x="39.208984375" xlink:href="#BitstreamVeraSans-Roman-20"/>
      <use x="70.99609375" xlink:href="#BitstreamVeraSans-Roman-2f"/>
      <use x="104.6875" xlink:href="#BitstreamVeraSans-Roman-20"/>
      <use x="136.474609375" xlink:href="#BitstreamVeraSans-Roman-6d"/>
      <use x="233.88671875" xlink:href="#BitstreamVeraSans-Roman-73"/>
     </g>
    </g>
   </g>
   <g id="matplotlib.axis_2">
    <g id="ytick_1">
     <g id="line2d_14">
      <defs>
       <path d="
M0 0
L4 0" id="md7965d1ba0" style="stroke:#000000;stroke-width:0.5;"/>
      </defs>
      <g>
       <use style="stroke:#000000;stroke-width:0.5;" x="108.0" xlink:href="#md7965d1ba0" y="583.2"/>
      </g>
     </g>
     <g id="line2d_15">
      <defs>
       <path d="
M0 0
L-4 0" id="md9a1c1a7cd" style="stroke:#000000;stroke-width:0.5;"/>
      </defs>
      <g>
       <use style="stroke:#000000;stroke-width:0.5;" x="777.6" xlink:href="#md9a1c1a7cd" y="583.2"/>
      </g>
     </g>
     <g id="text_7">
      <!-- 0 -->
      <g transform="translate(97.953125 586.51125)scale(0.12 -0.12)">
       <use xlink:href="#BitstreamVeraSans-Roman-30"/>
      </g>
     </g>
    </g>
    <g id="ytick_2">
     <g id="line2d_16">
      <g>
       <use style="stroke:#000000;stroke-width:0.5;" x="108.0" xlink:href="#md7965d1ba0" y="518.4"/>
      </g>
     </g>
     <g id="line2d_17">
      <g>
       <use style="stroke:#000000;stroke-width:0.5;" x="777.6" xlink:href="#md9a1c1a7cd" y="518.4"/>
      </g>
     </g>
     <g id="text_8">
      <!-- 2000 -->
      <g transform="translate(75.13625 521.71125)scale(0.12 -0.12)">
       <use xlink:href="#BitstreamVeraSans-Roman-32"/>
       <use x="63.623046875" xlink:href="#BitstreamVeraSans-Roman-30"/>
       <use x="127.24609375" xlink:href="#BitstreamVeraSans-Roman-30"/>
       <use x="190.869140625" xlink:href="#BitstreamVeraSans-Roman-30"/>
      </g>
     </g>
    </g>
    <g id="ytick_3">
     <g id="line2d_18">
      <g>
       <use style="stroke:#000000;stroke-width:0.5;" x="108.0" xlink:href="#md7965d1ba0" y="453.6"/>
      </g>
     </g>
     <g id="line2d_19">
      <g>
       <use style="stroke:#000000;stroke-width:0.5;" x="777.6" xlink:href="#md9a1c1a7cd" y="453.6"/>
      </g>
     </g>
     <g id="text_9">
      <!-- 4000 -->
      <defs>
       <path d="
M37.7969 64.3125
L12.8906 25.3906
L37.7969 25.3906
z

M35.2031 72.9062
L47.6094 72.9062
L47.6094 25.3906
L58.0156 25.3906
L58.0156 17.1875
L47.6094 17.1875
L47.6094 0
L37.7969 0
L37.7969 17.1875
L4.89062 17.1875
L4.89062 26.7031
z
" id="BitstreamVeraSans-Roman-34"/>
      </defs>
      <g transform="translate(74.84375 456.91125)scale(0.12 -0.12)">
       <use xlink:href="#BitstreamVeraSans-Roman-34"/>
       <use x="63.623046875" xlink:href="#BitstreamVeraSans-Roman-30"/>
       <use x="127.24609375" xlink:href="#BitstreamVeraSans-Roman-30"/>
       <use x="190.869140625" xlink:href="#BitstreamVeraSans-Roman-30"/>
      </g>
     </g>
    </g>
    <g id="ytick_4">
     <g id="line2d_20">
      <g>
       <use style="stroke:#000000;stroke-width:0.5;" x="108.0" xlink:href="#md7965d1ba0" y="388.8"/>
      </g>
     </g>
     <g id="line2d_21">
      <g>
       <use style="stroke:#000000;stroke-width:0.5;" x="777.6" xlink:href="#md9a1c1a7cd" y="388.8"/>
      </g>
     </g>
     <g id="text_10">
      <!-- 6000 -->
      <defs>
       <path d="
M33.0156 40.375
Q26.375 40.375 22.4844 35.8281
Q18.6094 31.2969 18.6094 23.3906
Q18.6094 15.5312 22.4844 10.9531
Q26.375 6.39062 33.0156 6.39062
Q39.6562 6.39062 43.5312 10.9531
Q47.4062 15.5312 47.4062 23.3906
Q47.4062 31.2969 43.5312 35.8281
Q39.6562 40.375 33.0156 40.375
M52.5938 71.2969
L52.5938 62.3125
Q48.875 64.0625 45.0938 64.9844
Q41.3125 65.9219 37.5938 65.9219
Q27.8281 65.9219 22.6719 59.3281
Q17.5312 52.7344 16.7969 39.4062
Q19.6719 43.6562 24.0156 45.9219
Q28.375 48.1875 33.5938 48.1875
Q44.5781 48.1875 50.9531 41.5156
Q57.3281 34.8594 57.3281 23.3906
Q57.3281 12.1562 50.6875 5.35938
Q44.0469 -1.42188 33.0156 -1.42188
Q20.3594 -1.42188 13.6719 8.26562
Q6.98438 17.9688 6.98438 36.375
Q6.98438 53.6562 15.1875 63.9375
Q23.3906 74.2188 37.2031 74.2188
Q40.9219 74.2188 44.7031 73.4844
Q48.4844 72.75 52.5938 71.2969" id="BitstreamVeraSans-Roman-36"/>
      </defs>
      <g transform="translate(75.095 392.11125)scale(0.12 -0.12)">
       <use xlink:href="#BitstreamVeraSans-Roman-36"/>
       <use x="63.623046875" xlink:href="#BitstreamVeraSans-Roman-30"/>
       <use x="127.24609375" xlink:href="#BitstreamVeraSans-Roman-30"/>
       <use x="190.869140625" xlink:href="#BitstreamVeraSans-Roman-30"/>
      </g>
     </g>
    </g>
    <g id="ytick_5">
     <g id="line2d_22">
      <g>
       <use style="stroke:#000000;stroke-width:0.5;" x="108.0" xlink:href="#md7965d1ba0" y="324.0"/>
      </g>
     </g>
     <g id="line2d_23">
      <g>
       <use style="stroke:#000000;stroke-width:0.5;" x="777.6" xlink:href="#md9a1c1a7cd" y="324.0"/>
      </g>
     </g>
     <g id="text_11">
      <!-- 8000 -->
      <defs>
       <path d="
M31.7812 34.625
Q24.75 34.625 20.7188 30.8594
Q16.7031 27.0938 16.7031 20.5156
Q16.7031 13.9219 20.7188 10.1562
Q24.75 6.39062 31.7812 6.39062
Q38.8125 6.39062 42.8594 10.1719
Q46.9219 13.9688 46.9219 20.5156
Q46.9219 27.0938 42.8906 30.8594
Q38.875 34.625 31.7812 34.625
M21.9219 38.8125
Q15.5781 40.375 12.0312 44.7188
Q8.5 49.0781 8.5 55.3281
Q8.5 64.0625 14.7188 69.1406
Q20.9531 74.2188 31.7812 74.2188
Q42.6719 74.2188 48.875 69.1406
Q55.0781 64.0625 55.0781 55.3281
Q55.0781 49.0781 51.5312 44.7188
Q48 40.375 41.7031 38.8125
Q48.8281 37.1562 52.7969 32.3125
Q56.7812 27.4844 56.7812 20.5156
Q56.7812 9.90625 50.3125 4.23438
Q43.8438 -1.42188 31.7812 -1.42188
Q19.7344 -1.42188 13.25 4.23438
Q6.78125 9.90625 6.78125 20.5156
Q6.78125 27.4844 10.7812 32.3125
Q14.7969 37.1562 21.9219 38.8125
M18.3125 54.3906
Q18.3125 48.7344 21.8438 45.5625
Q25.3906 42.3906 31.7812 42.3906
Q38.1406 42.3906 41.7188 45.5625
Q45.3125 48.7344 45.3125 54.3906
Q45.3125 60.0625 41.7188 63.2344
Q38.1406 66.4062 31.7812 66.4062
Q25.3906 66.4062 21.8438 63.2344
Q18.3125 60.0625 18.3125 54.3906" id="BitstreamVeraSans-Roman-38"/>
      </defs>
      <g transform="translate(75.070625 327.31125)scale(0.12 -0.12)">
       <use xlink:href="#BitstreamVeraSans-Roman-38"/>
       <use x="63.623046875" xlink:href="#BitstreamVeraSans-Roman-30"/>
       <use x="127.24609375" xlink:href="#BitstreamVeraSans-Roman-30"/>
       <use x="190.869140625" xlink:href="#BitstreamVeraSans-Roman-30"/>
      </g>
     </g>
    </g>
    <g id="ytick_6">
     <g id="line2d_24">
      <g>
       <use style="stroke:#000000;stroke-width:0.5;" x="108.0" xlink:href="#md7965d1ba0" y="259.2"/>
      </g>
     </g>
     <g id="line2d_25">
      <g>
       <use style="stroke:#000000;stroke-width:0.5;" x="777.6" xlink:href="#md9a1c1a7cd" y="259.2"/>
      </g>
     </g>
     <g id="text_12">
      <!-- 10000 -->
      <g transform="translate(67.94 262.51125)scale(0.12 -0.12)">
       <use xlink:href="#BitstreamVeraSans-Roman-31"/>
       <use x="63.623046875" xlink:href="#BitstreamVeraSans-Roman-30"/>
       <use x="127.24609375" xlink:href="#BitstreamVeraSans-Roman-30"/>
       <use x="190.869140625" xlink:href="#BitstreamVeraSans-Roman-30"/>
       <use x="254.4921875" xlink:href="#BitstreamVeraSans-Roman-30"/>
      </g>
     </g>
    </g>
    <g id="ytick_7">
     <g id="line2d_26">
      <g>
       <use style="stroke:#000000;stroke-width:0.5;" x="108.0" xlink:href="#md7965d1ba0" y="194.4"/>
      </g>
     </g>
     <g id="line2d_27">
      <g>
       <use style="stroke:#000000;stroke-width:0.5;" x="777.6" xlink:href="#md9a1c1a7cd" y="194.4"/>
      </g>
     </g>
     <g id="text_13">
      <!-- 12000 -->
      <g transform="translate(67.94 197.71125)scale(0.12 -0.12)">
       <use xlink:href="#BitstreamVeraSans-Roman-31"/>
       <use x="63.623046875" xlink:href="#BitstreamVeraSans-Roman-32"/>
       <use x="127.24609375" xlink:href="#BitstreamVeraSans-Roman-30"/>
       <use x="190.869140625" xlink:href="#BitstreamVeraSans-Roman-30"/>
       <use x="254.4921875" xlink:href="#BitstreamVeraSans-Roman-30"/>
      </g>
     </g>
    </g>
    <g id="ytick_8">
     <g id="line2d_28">
      <g>
       <use style="stroke:#000000;stroke-width:0.5;" x="108.0" xlink:href="#md7965d1ba0" y="129.6"/>
      </g>
     </g>
     <g id="line2d_29">
      <g>
       <use style="stroke:#000000;stroke-width:0.5;" x="777.6" xlink:href="#md9a1c1a7cd" y="129.6"/>
      </g>
     </g>
     <g id="text_14">
      <!-- 14000 -->
      <g transform="translate(67.94 132.91125)scale(0.12 -0.12)">
       <use xlink:href="#BitstreamVeraSans-Roman-31"/>
       <use x="63.623046875" xlink:href="#BitstreamVeraSans-Roman-34"/>
       <use x="127.24609375" xlink:href="#BitstreamVeraSans-Roman-30"/>
       <use x="190.869140625" xlink:href="#BitstreamVeraSans-Roman-30"/>
       <use x="254.4921875" xlink:href="#BitstreamVeraSans-Roman-30"/>
      </g>
     </g>
    </g>
    <g id="ytick_9">
     <g id="line2d_30">
      <g>
       <use style="stroke:#000000;stroke-width:0.5;" x="108.0" xlink:href="#md7965d1ba0" y="64.8"/>
      </g>
     </g>
     <g id="line2d_31">
      <g>
       <use style="stroke:#000000;stroke-width:0.5;" x="777.6" xlink:href="#md9a1c1a7cd" y="64.8"/>
      </g>
     </g>
     <g id="text_15">
      <!-- 16000 -->
      <g transform="translate(67.94 68.11125)scale(0.12 -0.12)">
       <use xlink:href="#BitstreamVeraSans-Roman-31"/>
       <use x="63.623046875" xlink:href="#BitstreamVeraSans-Roman-36"/>
       <use x="127.24609375" xlink:href="#BitstreamVeraSans-Roman-30"/>
       <use x="190.869140625" xlink:href="#BitstreamVeraSans-Roman-30"/>
       <use x="254.4921875" xlink:href="#BitstreamVeraSans-Roman-30"/>
      </g>
     </g>
    </g>
    <g id="text_16">
     <!-- particle numbers -->
     <defs>
      <path d="
M8.5 21.5781
L8.5 54.6875
L17.4844 54.6875
L17.4844 21.9219
Q17.4844 14.1562 20.5 10.2656
Q23.5312 6.39062 29.5938 6.39062
Q36.8594 6.39062 41.0781 11.0312
Q45.3125 15.6719 45.3125 23.6875
L45.3125 54.6875
L54.2969 54.6875
L54.2969 0
L45.3125 0
L45.3125 8.40625
Q42.0469 3.42188 37.7188 1
Q33.4062 -1.42188 27.6875 -1.42188
Q18.2656 -1.42188 13.375 4.4375
Q8.5 10.2969 8.5 21.5781" id="BitstreamVeraSans-Roman-75"/>
      <path d="
M48.7812 52.5938
L48.7812 44.1875
Q44.9688 46.2969 41.1406 47.3438
Q37.3125 48.3906 33.4062 48.3906
Q24.6562 48.3906 19.8125 42.8438
Q14.9844 37.3125 14.9844 27.2969
Q14.9844 17.2812 19.8125 11.7344
Q24.6562 6.20312 33.4062 6.20312
Q37.3125 6.20312 41.1406 7.25
Q44.9688 8.29688 48.7812 10.4062
L48.7812 2.09375
Q45.0156 0.34375 40.9844 -0.53125
Q36.9688 -1.42188 32.4219 -1.42188
Q20.0625 -1.42188 12.7812 6.34375
Q5.51562 14.1094 5.51562 27.2969
Q5.51562 40.6719 12.8594 48.3281
Q20.2188 56 33.0156 56
Q37.1562 56 41.1094 55.1406
Q45.0625 54.2969 48.7812 52.5938" id="BitstreamVeraSans-Roman-63"/>
      <path d="
M56.2031 29.5938
L56.2031 25.2031
L14.8906 25.2031
Q15.4844 15.9219 20.4844 11.0625
Q25.4844 6.20312 34.4219 6.20312
Q39.5938 6.20312 44.4531 7.46875
Q49.3125 8.73438 54.1094 11.2812
L54.1094 2.78125
Q49.2656 0.734375 44.1875 -0.34375
Q39.1094 -1.42188 33.8906 -1.42188
Q20.7969 -1.42188 13.1562 6.1875
Q5.51562 13.8125 5.51562 26.8125
Q5.51562 40.2344 12.7656 48.1094
Q20.0156 56 32.3281 56
Q43.3594 56 49.7812 48.8906
Q56.2031 41.7969 56.2031 29.5938
M47.2188 32.2344
Q47.125 39.5938 43.0938 43.9844
Q39.0625 48.3906 32.4219 48.3906
Q24.9062 48.3906 20.3906 44.1406
Q15.875 39.8906 15.1875 32.1719
z
" id="BitstreamVeraSans-Roman-65"/>
      <path d="
M34.2812 27.4844
Q23.3906 27.4844 19.1875 25
Q14.9844 22.5156 14.9844 16.5
Q14.9844 11.7188 18.1406 8.90625
Q21.2969 6.10938 26.7031 6.10938
Q34.1875 6.10938 38.7031 11.4062
Q43.2188 16.7031 43.2188 25.4844
L43.2188 27.4844
z

M52.2031 31.2031
L52.2031 0
L43.2188 0
L43.2188 8.29688
Q40.1406 3.32812 35.5469 0.953125
Q30.9531 -1.42188 24.3125 -1.42188
Q15.9219 -1.42188 10.9531 3.29688
Q6 8.01562 6 15.9219
Q6 25.1406 12.1719 29.8281
Q18.3594 34.5156 30.6094 34.5156
L43.2188 34.5156
L43.2188 35.4062
Q43.2188 41.6094 39.1406 45
Q35.0625 48.3906 27.6875 48.3906
Q23 48.3906 18.5469 47.2656
Q14.1094 46.1406 10.0156 43.8906
L10.0156 52.2031
Q14.9375 54.1094 19.5781 55.0469
Q24.2188 56 28.6094 56
Q40.4844 56 46.3438 49.8438
Q52.2031 43.7031 52.2031 31.2031" id="BitstreamVeraSans-Roman-61"/>
      <path d="
M18.1094 8.20312
L18.1094 -20.7969
L9.07812 -20.7969
L9.07812 54.6875
L18.1094 54.6875
L18.1094 46.3906
Q20.9531 51.2656 25.2656 53.625
Q29.5938 56 35.5938 56
Q45.5625 56 51.7812 48.0938
Q58.0156 40.1875 58.0156 27.2969
Q58.0156 14.4062 51.7812 6.48438
Q45.5625 -1.42188 35.5938 -1.42188
Q29.5938 -1.42188 25.2656 0.953125
Q20.9531 3.32812 18.1094 8.20312
M48.6875 27.2969
Q48.6875 37.2031 44.6094 42.8438
Q40.5312 48.4844 33.4062 48.4844
Q26.2656 48.4844 22.1875 42.8438
Q18.1094 37.2031 18.1094 27.2969
Q18.1094 17.3906 22.1875 11.75
Q26.2656 6.10938 33.4062 6.10938
Q40.5312 6.10938 44.6094 11.75
Q48.6875 17.3906 48.6875 27.2969" id="BitstreamVeraSans-Roman-70"/>
      <path d="
M48.6875 27.2969
Q48.6875 37.2031 44.6094 42.8438
Q40.5312 48.4844 33.4062 48.4844
Q26.2656 48.4844 22.1875 42.8438
Q18.1094 37.2031 18.1094 27.2969
Q18.1094 17.3906 22.1875 11.75
Q26.2656 6.10938 33.4062 6.10938
Q40.5312 6.10938 44.6094 11.75
Q48.6875 17.3906 48.6875 27.2969
M18.1094 46.3906
Q20.9531 51.2656 25.2656 53.625
Q29.5938 56 35.5938 56
Q45.5625 56 51.7812 48.0938
Q58.0156 40.1875 58.0156 27.2969
Q58.0156 14.4062 51.7812 6.48438
Q45.5625 -1.42188 35.5938 -1.42188
Q29.5938 -1.42188 25.2656 0.953125
Q20.9531 3.32812 18.1094 8.20312
L18.1094 0
L9.07812 0
L9.07812 75.9844
L18.1094 75.9844
z
" id="BitstreamVeraSans-Roman-62"/>
      <path d="
M54.8906 33.0156
L54.8906 0
L45.9062 0
L45.9062 32.7188
Q45.9062 40.4844 42.875 44.3281
Q39.8438 48.1875 33.7969 48.1875
Q26.5156 48.1875 22.3125 43.5469
Q18.1094 38.9219 18.1094 30.9062
L18.1094 0
L9.07812 0
L9.07812 54.6875
L18.1094 54.6875
L18.1094 46.1875
Q21.3438 51.125 25.7031 53.5625
Q30.0781 56 35.7969 56
Q45.2188 56 50.0469 50.1719
Q54.8906 44.3438 54.8906 33.0156" id="BitstreamVeraSans-Roman-6e"/>
      <path d="
M9.42188 54.6875
L18.4062 54.6875
L18.4062 0
L9.42188 0
z

M9.42188 75.9844
L18.4062 75.9844
L18.4062 64.5938
L9.42188 64.5938
z
" id="BitstreamVeraSans-Roman-69"/>
      <path d="
M9.42188 75.9844
L18.4062 75.9844
L18.4062 0
L9.42188 0
z
" id="BitstreamVeraSans-Roman-6c"/>
      <path d="
M41.1094 46.2969
Q39.5938 47.1719 37.8125 47.5781
Q36.0312 48 33.8906 48
Q26.2656 48 22.1875 43.0469
Q18.1094 38.0938 18.1094 28.8125
L18.1094 0
L9.07812 0
L9.07812 54.6875
L18.1094 54.6875
L18.1094 46.1875
Q20.9531 51.1719 25.4844 53.5781
Q30.0312 56 36.5312 56
Q37.4531 56 38.5781 55.875
Q39.7031 55.7656 41.0625 55.5156
z
" id="BitstreamVeraSans-Roman-72"/>
     </defs>
     <g transform="translate(60.444375 374.78625)rotate(-90.0)scale(0.12 -0.12)">
      <use xlink:href="#BitstreamVeraSans-Roman-70"/>
      <use x="63.4765625" xlink:href="#BitstreamVeraSans-Roman-61"/>
      <use x="124.755859375" xlink:href="#BitstreamVeraSans-Roman-72"/>
      <use x="165.869140625" xlink:href="#BitstreamVeraSans-Roman-74"/>
      <use x="205.078125" xlink:href="#BitstreamVeraSans-Roman-69"/>
      <use x="232.861328125" xlink:href="#BitstreamVeraSans-Roman-63"/>
      <use x="287.841796875" xlink:href="#BitstreamVeraSans-Roman-6c"/>
      <use x="315.625" xlink:href="#BitstreamVeraSans-Roman-65"/>
      <use x="377.1484375" xlink:href="#BitstreamVeraSans-Roman-20"/>
      <use x="408.935546875" xlink:href="#BitstreamVeraSans-Roman-6e"/>
      <use x="472.314453125" xlink:href="#BitstreamVeraSans-Roman-75"/>
      <use x="535.693359375" xlink:href="#BitstreamVeraSans-Roman-6d"/>
      <use x="633.10546875" xlink:href="#BitstreamVeraSans-Roman-62"/>
      <use x="696.58203125" xlink:href="#BitstreamVeraSans-Roman-65"/>
      <use x="758.10546875" xlink:href="#BitstreamVeraSans-Roman-72"/>
      <use x="799.21875" xlink:href="#BitstreamVeraSans-Roman-73"/>
     </g>
    </g>
   </g>
   <g id="legend_1">
    <g id="patch_7">
     <path d="
M715.312 101.224
L774.1 101.224
L774.1 68.3
L715.312 68.3
z
" style="fill:#ffffff;stroke:#000000;stroke-linejoin:miter;"/>
    </g>
    <g id="line2d_32">
     <path d="
M720.212 73.9689
L730.012 73.9689" style="fill:none;stroke:#ff0000;stroke-linecap:square;"/>
    </g>
    <g id="line2d_33"/>
    <g id="text_17">
     <!-- cAMP el.0 -->
     <defs>
      <path d="
M19.6719 64.7969
L19.6719 37.4062
L32.0781 37.4062
Q38.9688 37.4062 42.7188 40.9688
Q46.4844 44.5312 46.4844 51.125
Q46.4844 57.6719 42.7188 61.2344
Q38.9688 64.7969 32.0781 64.7969
z

M9.8125 72.9062
L32.0781 72.9062
Q44.3438 72.9062 50.6094 67.3594
Q56.8906 61.8125 56.8906 51.125
Q56.8906 40.3281 50.6094 34.8125
Q44.3438 29.2969 32.0781 29.2969
L19.6719 29.2969
L19.6719 0
L9.8125 0
z
" id="BitstreamVeraSans-Roman-50"/>
      <path d="
M9.8125 72.9062
L24.5156 72.9062
L43.1094 23.2969
L61.8125 72.9062
L76.5156 72.9062
L76.5156 0
L66.8906 0
L66.8906 64.0156
L48.0938 14.0156
L38.1875 14.0156
L19.3906 64.0156
L19.3906 0
L9.8125 0
z
" id="BitstreamVeraSans-Roman-4d"/>
      <path d="
M34.1875 63.1875
L20.7969 26.9062
L47.6094 26.9062
z

M28.6094 72.9062
L39.7969 72.9062
L67.5781 0
L57.3281 0
L50.6875 18.7031
L17.8281 18.7031
L11.1875 0
L0.78125 0
z
" id="BitstreamVeraSans-Roman-41"/>
      <path d="
M10.6875 12.4062
L21 12.4062
L21 0
L10.6875 0
z
" id="BitstreamVeraSans-Roman-2e"/>
     </defs>
     <g transform="translate(737.71203125 76.41890625)scale(0.07 -0.07)">
      <use xlink:href="#BitstreamVeraSans-Roman-63"/>
      <use x="54.98046875" xlink:href="#BitstreamVeraSans-Roman-41"/>
      <use x="123.388671875" xlink:href="#BitstreamVeraSans-Roman-4d"/>
      <use x="209.66796875" xlink:href="#BitstreamVeraSans-Roman-50"/>
      <use x="269.970703125" xlink:href="#BitstreamVeraSans-Roman-20"/>
      <use x="301.7578125" xlink:href="#BitstreamVeraSans-Roman-65"/>
      <use x="363.28125" xlink:href="#BitstreamVeraSans-Roman-6c"/>
      <use x="391.064453125" xlink:href="#BitstreamVeraSans-Roman-2e"/>
      <use x="422.8515625" xlink:href="#BitstreamVeraSans-Roman-30"/>
     </g>
    </g>
    <g id="line2d_34">
     <path d="
M720.212 84.2436
L730.012 84.2436" style="fill:none;stroke:#008000;stroke-linecap:square;"/>
    </g>
    <g id="line2d_35"/>
    <g id="text_18">
     <!-- cAMP el.1 -->
     <g transform="translate(737.71203125 86.69359375)scale(0.07 -0.07)">
      <use xlink:href="#BitstreamVeraSans-Roman-63"/>
      <use x="54.98046875" xlink:href="#BitstreamVeraSans-Roman-41"/>
      <use x="123.388671875" xlink:href="#BitstreamVeraSans-Roman-4d"/>
      <use x="209.66796875" xlink:href="#BitstreamVeraSans-Roman-50"/>
      <use x="269.970703125" xlink:href="#BitstreamVeraSans-Roman-20"/>
      <use x="301.7578125" xlink:href="#BitstreamVeraSans-Roman-65"/>
      <use x="363.28125" xlink:href="#BitstreamVeraSans-Roman-6c"/>
      <use x="391.064453125" xlink:href="#BitstreamVeraSans-Roman-2e"/>
      <use x="422.8515625" xlink:href="#BitstreamVeraSans-Roman-31"/>
     </g>
    </g>
    <g id="line2d_36">
     <path d="
M720.212 94.5183
L730.012 94.5183" style="fill:none;stroke:#0000ff;stroke-linecap:square;"/>
    </g>
    <g id="line2d_37"/>
    <g id="text_19">
     <!-- cAMP el.2 -->
     <g transform="translate(737.71203125 96.96828125)scale(0.07 -0.07)">
      <use xlink:href="#BitstreamVeraSans-Roman-63"/>
      <use x="54.98046875" xlink:href="#BitstreamVeraSans-Roman-41"/>
      <use x="123.388671875" xlink:href="#BitstreamVeraSans-Roman-4d"/>
      <use x="209.66796875" xlink:href="#BitstreamVeraSans-Roman-50"/>
      <use x="269.970703125" xlink:href="#BitstreamVeraSans-Roman-20"/>
      <use x="301.7578125" xlink:href="#BitstreamVeraSans-Roman-65"/>
      <use x="363.28125" xlink:href="#BitstreamVeraSans-Roman-6c"/>
      <use x="391.064453125" xlink:href="#BitstreamVeraSans-Roman-2e"/>
      <use x="422.8515625" xlink:href="#BitstreamVeraSans-Roman-32"/>
     </g>
    </g>
   </g>
  </g>
 </g>
 <defs>
  <clipPath id="p7ceb695115">
   <rect height="518.4" width="669.6" x="108.0" y="64.8"/>
  </clipPath>
 </defs>
</svg>
