<?xml version="1.0" encoding="utf-8" standalone="no"?>
<!DOCTYPE svg PUBLIC "-//W3C//DTD SVG 1.1//EN"
  "http://www.w3.org/Graphics/SVG/1.1/DTD/svg11.dtd">
<!-- Created with matplotlib (http://matplotlib.org/) -->
<svg height="648pt" version="1.1" viewBox="0 0 864 648" width="864pt" xmlns="http://www.w3.org/2000/svg" xmlns:xlink="http://www.w3.org/1999/xlink">
 <defs>
  <style type="text/css">
*{stroke-linecap:butt;stroke-linejoin:round;}
  </style>
 </defs>
 <g id="figure_1">
  <g id="patch_1">
   <path d="
M0 648
L864 648
L864 0
L0 0
z
" style="fill:#ffffff;"/>
  </g>
  <g id="axes_1">
   <g id="patch_2">
    <path d="
M108 583.2
L777.6 583.2
L777.6 64.8
L108 64.8
z
" style="fill:#ffffff;"/>
   </g>
   <g id="line2d_1">
    <path clip-path="url(#p7ceb695115)" d="
M108 583.2
L305.532 583.2
L306.202 557.28
L306.871 583.2
L314.237 583.2
L314.906 557.28
L315.576 583.2
L329.638 583.2
L330.307 557.28
L330.977 557.28
L331.646 583.2
L337.673 583.2
L338.342 557.28
L339.012 583.2
L343.03 583.2
L343.699 557.28
L344.369 583.2
L345.708 583.2
L346.378 557.28
L347.047 583.2
L351.734 583.2
L352.404 557.28
L353.074 583.2
L359.1 583.2
L359.77 557.28
L360.439 583.2
L363.118 583.2
L363.787 557.28
L364.457 583.2
L365.126 583.2
L365.796 557.28
L366.466 583.2
L371.153 583.2
L371.822 557.28
L372.492 583.2
L373.831 583.2
L374.501 557.28
L375.17 583.2
L381.197 583.2
L381.866 557.28
L382.536 583.2
L521.813 583.2
L522.482 557.28
L535.874 557.28
L536.544 583.2
L537.214 505.44
L538.553 505.44
L539.222 531.36
L539.892 479.52
L543.91 479.52
L544.579 505.44
L545.249 479.52
L549.266 479.52
L549.936 505.44
L550.606 479.52
L551.275 479.52
L552.614 427.68
L561.319 427.68
L561.989 453.6
L562.658 427.68
L566.676 427.68
L567.346 401.76
L568.015 401.76
L568.685 427.68
L569.354 401.76
L577.39 401.76
L578.059 427.68
L578.729 401.76
L579.398 401.76
L580.068 427.68
L581.407 375.84
L592.79 375.84
L593.46 427.68
L594.13 375.84
L594.799 401.76
L595.469 401.76
L596.138 375.84
L596.808 401.76
L597.478 375.84
L601.495 375.84
L602.165 401.76
L602.834 375.84
L603.504 375.84
L604.174 401.76
L604.843 401.76
L605.513 375.84
L606.852 375.84
L607.522 401.76
L608.191 401.76
L608.861 375.84
L609.53 375.84
L610.2 401.76
L610.87 401.76
L611.539 375.84
L612.209 401.76
L612.878 375.84
L614.218 375.84
L614.887 427.68
L615.557 375.84
L617.566 375.84
L618.235 401.76
L618.905 401.76
L619.574 375.84
L622.922 375.84
L624.262 427.68
L624.931 375.84
L625.601 375.84
L626.27 427.68
L626.94 375.84
L630.958 375.84
L631.627 401.76
L632.297 375.84
L632.966 401.76
L633.636 375.84
L642.341 375.84
L643.01 401.76
L643.68 401.76
L644.35 375.84
L645.019 375.84
L645.689 401.76
L646.358 375.84
L647.698 375.84
L648.367 401.76
L649.037 375.84
L649.706 401.76
L650.376 375.84
L651.046 401.76
L651.715 375.84
L652.385 375.84
L653.054 401.76
L653.724 375.84
L655.063 375.84
L655.733 401.76
L656.402 375.84
L657.072 401.76
L657.742 401.76
L658.411 375.84
L659.081 375.84
L659.75 401.76
L660.42 375.84
L661.09 401.76
L661.759 375.84
L670.464 375.84
L671.134 401.76
L671.803 375.84
L675.821 375.84
L676.49 401.76
L677.16 401.76
L677.83 375.84
L679.169 375.84
L679.838 427.68
L680.508 375.84
L681.178 375.84
L681.847 401.76
L682.517 375.84
L686.534 375.84
L687.204 401.76
L687.874 375.84
L688.543 375.84
L689.213 401.76
L689.882 375.84
L690.552 401.76
L691.891 401.76
L692.561 375.84
L695.239 375.84
L695.909 401.76
L696.578 375.84
L699.926 375.84
L700.596 401.76
L701.266 349.92
L702.605 349.92
L703.274 375.84
L703.944 349.92
L704.614 349.92
L705.283 375.84
L705.953 349.92
L706.622 349.92
L707.292 324
L707.962 349.92
L708.631 324
L709.301 349.92
L709.97 324
L712.649 324
L713.318 349.92
L714.658 349.92
L715.327 324
L717.336 324
L718.006 349.92
L718.675 324
L720.014 324
L720.684 375.84
L721.354 324
L722.023 349.92
L722.693 324
L728.05 324
L728.719 349.92
L729.389 324
L730.058 349.92
L730.728 349.92
L731.398 324
L732.737 324
L734.076 272.16
L735.415 272.16
L736.085 298.08
L736.754 272.16
L737.424 272.16
L738.094 349.92
L738.763 272.16
L739.433 272.16
L740.102 246.24
L740.772 272.16
L741.442 349.92
L742.111 272.16
L742.781 298.08
L743.45 246.24
L745.459 246.24
L746.129 272.16
L746.798 246.24
L747.468 298.08
L748.138 298.08
L748.807 272.16
L749.477 272.16
L750.146 298.08
L750.816 246.24
L752.155 246.24
L752.825 272.16
L753.494 272.16
L754.164 246.24
L754.834 272.16
L755.503 246.24
L756.173 298.08
L757.512 246.24
L758.851 298.08
L759.521 246.24
L760.19 246.24
L760.86 272.16
L761.53 246.24
L762.199 272.16
L763.538 272.16
L764.208 246.24
L764.878 298.08
L766.217 246.24
L766.886 272.16
L767.556 272.16
L768.226 246.24
L773.582 246.24
L774.252 272.16
L774.922 272.16
L775.591 246.24
L776.261 272.16
L776.93 246.24
L777.6 298.08
L777.6 298.08" style="fill:none;stroke:#ff0000;stroke-linecap:square;"/>
   </g>
   <g id="line2d_2">
    <path clip-path="url(#p7ceb695115)" d="
M108 583.2
L376.51 583.2
L377.179 557.28
L377.849 583.2
L398.606 583.2
L399.276 557.28
L399.946 557.28
L400.615 583.2
L401.285 583.2
L401.954 557.28
L402.624 583.2
L403.294 557.28
L403.963 583.2
L405.972 583.2
L406.642 557.28
L407.311 557.28
L407.981 583.2
L412.668 583.2
L413.338 557.28
L414.007 583.2
L416.686 583.2
L417.355 557.28
L418.025 583.2
L422.712 583.2
L423.382 557.28
L424.721 557.28
L425.39 583.2
L434.765 583.2
L435.434 557.28
L436.104 583.2
L437.443 583.2
L438.113 557.28
L438.782 583.2
L440.122 583.2
L440.791 557.28
L441.461 583.2
L444.139 583.2
L444.809 557.28
L445.478 583.2
L446.148 557.28
L446.818 583.2
L447.487 583.2
L448.157 557.28
L448.826 557.28
L449.496 583.2
L450.166 557.28
L501.055 557.28
L501.725 583.2
L502.394 557.28
L515.117 557.28
L515.786 531.36
L532.526 531.36
L533.196 505.44
L534.535 505.44
L535.205 531.36
L535.874 505.44
L536.544 505.44
L537.214 531.36
L537.883 505.44
L546.588 505.44
L547.258 531.36
L547.927 505.44
L548.597 505.44
L549.266 531.36
L549.936 505.44
L563.998 505.44
L564.667 479.52
L575.381 479.52
L576.05 453.6
L588.773 453.6
L589.442 479.52
L590.112 453.6
L597.478 453.6
L598.147 479.52
L598.817 453.6
L600.826 453.6
L601.495 479.52
L602.165 453.6
L602.834 479.52
L604.174 427.68
L608.861 427.68
L609.53 453.6
L610.2 427.68
L618.905 427.68
L619.574 453.6
L620.244 427.68
L620.914 453.6
L621.583 427.68
L628.279 427.68
L628.949 453.6
L630.288 401.76
L632.297 401.76
L632.966 375.84
L633.636 375.84
L634.306 401.76
L634.975 375.84
L635.645 427.68
L636.314 349.92
L643.68 349.92
L644.35 375.84
L645.019 349.92
L645.689 375.84
L646.358 349.92
L647.028 349.92
L647.698 375.84
L648.367 349.92
L649.706 349.92
L650.376 375.84
L651.046 349.92
L653.724 349.92
L654.394 375.84
L655.063 375.84
L655.733 349.92
L659.081 349.92
L659.75 375.84
L660.42 349.92
L662.429 349.92
L663.768 298.08
L665.107 349.92
L665.777 298.08
L666.446 324
L667.786 324
L669.125 272.16
L669.794 298.08
L670.464 272.16
L671.134 272.16
L672.473 324
L673.142 272.16
L673.812 246.24
L674.482 246.24
L675.151 272.16
L675.821 220.32
L676.49 246.24
L677.16 220.32
L677.83 246.24
L678.499 220.32
L679.169 246.24
L679.838 220.32
L680.508 246.24
L681.178 220.32
L681.847 220.32
L682.517 246.24
L683.856 194.4
L684.526 220.32
L685.865 220.32
L686.534 194.4
L687.204 194.4
L687.874 220.32
L689.882 220.32
L690.552 194.4
L691.222 220.32
L691.891 220.32
L692.561 194.4
L693.23 246.24
L693.9 194.4
L695.909 194.4
L696.578 220.32
L697.248 194.4
L697.918 220.32
L698.587 168.48
L699.257 168.48
L699.926 194.4
L700.596 168.48
L701.266 246.24
L701.935 168.48
L703.274 168.48
L703.944 194.4
L704.614 194.4
L705.283 168.48
L706.622 168.48
L707.292 142.56
L710.64 142.56
L711.31 168.48
L712.649 116.64
L713.318 116.64
L713.988 90.72
L714.658 220.32
L715.327 116.64
L715.997 142.56
L716.666 116.64
L717.336 116.64
L718.006 142.56
L719.345 90.72
L720.014 90.72
L721.354 142.56
L722.023 90.72
L722.693 142.56
L723.362 90.72
L724.032 142.56
L724.702 168.48
L725.371 168.48
L726.041 142.56
L728.05 142.56
L728.719 116.64
L729.389 194.4
L730.058 142.56
L730.728 116.64
L731.398 142.56
L732.067 142.56
L732.737 116.64
L733.406 142.56
L734.076 116.64
L734.746 142.56
L736.085 90.72
L736.754 90.72
L737.424 116.64
L738.094 90.72
L738.763 90.72
L739.433 116.64
L740.102 90.72
L741.442 90.72
L742.111 64.8
L742.781 116.64
L743.45 90.72
L744.12 142.56
L744.79 90.72
L745.459 64.8
L746.129 116.64
L748.138 116.64
L748.807 194.4
L749.477 116.64
L750.146 90.72
L750.816 142.56
L751.486 90.72
L752.155 116.64
L752.825 90.72
L753.494 116.64
L754.164 116.64
L754.834 90.72
L756.173 90.72
L756.842 116.64
L757.512 90.72
L758.182 116.64
L758.851 90.72
L759.521 116.64
L760.19 168.48
L760.86 168.48
L761.53 142.56
L762.199 90.72
L762.869 116.64
L764.208 116.64
L764.878 90.72
L765.547 116.64
L766.217 90.72
L767.556 90.72
L768.895 142.56
L769.565 116.64
L770.234 168.48
L772.243 90.72
L772.913 90.72
L773.582 116.64
L774.252 116.64
L774.922 90.72
L775.591 116.64
L776.261 90.72
L776.93 90.72
L777.6 116.64
L777.6 116.64" style="fill:none;stroke:#008000;stroke-linecap:square;"/>
   </g>
   <g id="line2d_3">
    <path clip-path="url(#p7ceb695115)" d="
M108 583.2
L266.695 583.2
L267.365 557.28
L268.034 557.28
L268.704 583.2
L269.374 583.2
L270.043 557.28
L270.713 583.2
L271.382 583.2
L272.052 557.28
L272.722 557.28
L273.391 583.2
L274.73 583.2
L275.4 557.28
L276.07 583.2
L279.418 583.2
L280.087 557.28
L280.757 583.2
L282.766 583.2
L283.435 557.28
L284.105 583.2
L286.783 583.2
L287.453 557.28
L288.122 557.28
L288.792 583.2
L300.175 583.2
L300.845 557.28
L301.514 557.28
L302.184 583.2
L302.854 557.28
L303.523 583.2
L304.862 583.2
L305.532 557.28
L306.202 583.2
L312.228 583.2
L312.898 557.28
L313.567 583.2
L315.576 583.2
L316.246 557.28
L316.915 583.2
L322.272 583.2
L322.942 557.28
L323.611 557.28
L324.281 583.2
L324.95 557.28
L325.62 557.28
L326.29 583.2
L326.959 557.28
L327.629 583.2
L328.968 583.2
L329.638 557.28
L330.307 583.2
L332.316 583.2
L332.986 557.28
L333.655 583.2
L334.994 583.2
L335.664 557.28
L336.334 557.28
L337.003 583.2
L337.673 557.28
L338.342 583.2
L340.351 583.2
L341.021 557.28
L341.69 557.28
L342.36 583.2
L343.699 583.2
L344.369 557.28
L345.038 557.28
L345.708 583.2
L346.378 557.28
L347.047 583.2
L349.726 583.2
L350.395 557.28
L351.065 557.28
L351.734 583.2
L352.404 583.2
L353.074 531.36
L353.743 583.2
L354.413 557.28
L355.082 583.2
L358.43 583.2
L359.1 557.28
L360.439 557.28
L361.109 583.2
L361.778 583.2
L362.448 531.36
L363.118 583.2
L363.787 557.28
L364.457 583.2
L365.126 583.2
L365.796 557.28
L366.466 583.2
L367.805 583.2
L368.474 557.28
L369.814 557.28
L370.483 583.2
L371.153 531.36
L372.492 583.2
L374.501 583.2
L375.17 557.28
L375.84 557.28
L376.51 583.2
L377.179 583.2
L377.849 531.36
L378.518 583.2
L381.197 583.2
L381.866 531.36
L383.206 583.2
L385.884 583.2
L386.554 557.28
L387.223 557.28
L387.893 583.2
L394.589 583.2
L395.258 557.28
L395.928 557.28
L396.598 583.2
L398.606 583.2
L399.276 557.28
L399.946 583.2
L400.615 557.28
L401.285 583.2
L402.624 583.2
L403.294 557.28
L403.963 583.2
L408.65 583.2
L409.32 557.28
L409.99 583.2
L410.659 557.28
L411.329 557.28
L411.998 583.2
L414.007 583.2
L415.346 531.36
L416.016 583.2
L416.686 583.2
L417.355 557.28
L418.025 583.2
L420.034 583.2
L420.703 557.28
L421.373 583.2
L422.042 557.28
L422.712 557.28
L423.382 583.2
L424.051 583.2
L424.721 557.28
L425.39 557.28
L426.06 583.2
L426.73 557.28
L427.399 583.2
L429.408 583.2
L430.078 557.28
L430.747 583.2
L431.417 557.28
L432.086 583.2
L433.426 583.2
L434.095 557.28
L434.765 583.2
L436.104 583.2
L436.774 557.28
L437.443 583.2
L440.122 583.2
L440.791 557.28
L441.461 583.2
L443.47 583.2
L444.139 557.28
L444.809 583.2
L445.478 557.28
L446.818 557.28
L447.487 583.2
L448.157 557.28
L449.496 557.28
L450.166 583.2
L450.835 557.28
L466.906 557.28
L467.575 531.36
L476.95 531.36
L477.619 557.28
L478.289 531.36
L493.02 531.36
L493.69 557.28
L494.359 531.36
L495.029 557.28
L495.698 531.36
L496.368 557.28
L497.038 531.36
L499.046 531.36
L499.716 557.28
L500.386 531.36
L517.126 531.36
L517.795 557.28
L518.465 531.36
L525.83 531.36
L526.5 505.44
L560.65 505.44
L561.319 479.52
L570.024 479.52
L570.694 453.6
L571.363 453.6
L572.033 479.52
L572.702 453.6
L582.077 453.6
L582.746 479.52
L584.086 427.68
L593.46 427.68
L594.13 401.76
L596.808 401.76
L597.478 427.68
L598.147 427.68
L598.817 401.76
L599.486 401.76
L600.156 375.84
L606.182 375.84
L606.852 401.76
L607.522 375.84
L609.53 375.84
L610.2 349.92
L610.87 375.84
L611.539 349.92
L612.209 349.92
L612.878 375.84
L613.548 375.84
L614.218 349.92
L615.557 349.92
L616.226 375.84
L616.896 349.92
L617.566 375.84
L618.235 349.92
L618.905 401.76
L619.574 349.92
L620.244 349.92
L620.914 375.84
L621.583 349.92
L623.592 349.92
L624.262 375.84
L624.931 349.92
L625.601 375.84
L626.27 349.92
L630.958 349.92
L631.627 375.84
L632.297 349.92
L634.306 349.92
L634.975 401.76
L635.645 401.76
L636.314 349.92
L637.654 349.92
L638.323 324
L645.689 324
L646.358 349.92
L647.028 324
L647.698 324
L648.367 349.92
L649.706 298.08
L651.046 298.08
L651.715 324
L652.385 298.08
L653.054 324
L653.724 298.08
L654.394 298.08
L655.063 272.16
L655.733 298.08
L656.402 272.16
L657.072 272.16
L657.742 298.08
L659.081 298.08
L659.75 272.16
L663.098 272.16
L663.768 298.08
L664.438 298.08
L665.107 324
L665.777 272.16
L667.786 272.16
L668.455 298.08
L669.125 272.16
L669.794 272.16
L670.464 298.08
L671.134 272.16
L673.142 272.16
L673.812 298.08
L674.482 272.16
L675.151 298.08
L676.49 298.08
L677.16 246.24
L681.178 246.24
L681.847 272.16
L682.517 220.32
L683.186 220.32
L683.856 298.08
L684.526 220.32
L685.865 220.32
L686.534 246.24
L687.204 220.32
L687.874 246.24
L688.543 246.24
L689.213 220.32
L689.882 246.24
L690.552 194.4
L691.891 194.4
L692.561 272.16
L693.23 194.4
L695.239 194.4
L695.909 272.16
L696.578 194.4
L697.248 220.32
L697.918 194.4
L698.587 220.32
L699.257 194.4
L699.926 220.32
L701.266 168.48
L701.935 194.4
L703.274 194.4
L703.944 168.48
L704.614 220.32
L705.283 168.48
L707.292 168.48
L707.962 220.32
L708.631 194.4
L709.301 194.4
L709.97 168.48
L710.64 194.4
L711.31 168.48
L711.979 194.4
L712.649 194.4
L713.318 168.48
L713.988 194.4
L714.658 168.48
L715.327 220.32
L715.997 220.32
L716.666 168.48
L720.014 168.48
L720.684 194.4
L721.354 168.48
L722.693 168.48
L723.362 220.32
L724.032 246.24
L724.702 168.48
L725.371 168.48
L726.71 220.32
L727.38 168.48
L728.05 168.48
L729.389 220.32
L731.398 142.56
L732.067 194.4
L733.406 142.56
L734.076 168.48
L734.746 142.56
L736.754 142.56
L737.424 194.4
L738.763 142.56
L739.433 168.48
L740.102 168.48
L740.772 220.32
L741.442 142.56
L742.111 142.56
L742.781 168.48
L743.45 220.32
L744.12 168.48
L744.79 142.56
L745.459 168.48
L746.129 142.56
L748.138 142.56
L748.807 194.4
L749.477 142.56
L750.146 168.48
L750.816 142.56
L751.486 168.48
L752.825 168.48
L753.494 142.56
L754.164 168.48
L754.834 168.48
L755.503 142.56
L756.842 142.56
L757.512 116.64
L760.19 116.64
L760.86 90.72
L761.53 168.48
L762.199 90.72
L762.869 116.64
L763.538 116.64
L764.208 90.72
L764.878 168.48
L765.547 116.64
L766.217 90.72
L766.886 116.64
L767.556 90.72
L768.226 90.72
L768.895 168.48
L769.565 64.8
L770.234 90.72
L770.904 90.72
L771.574 64.8
L772.913 116.64
L774.252 64.8
L774.922 116.64
L775.591 90.72
L776.261 168.48
L776.93 64.8
L777.6 64.8
L777.6 64.8" style="fill:none;stroke:#0000ff;stroke-linecap:square;"/>
   </g>
   <g id="patch_3">
    <path d="
M108 64.8
L777.6 64.8" style="fill:none;stroke:#000000;stroke-linecap:square;stroke-linejoin:miter;"/>
   </g>
   <g id="patch_4">
    <path d="
M108 583.2
L777.6 583.2" style="fill:none;stroke:#000000;stroke-linecap:square;stroke-linejoin:miter;"/>
   </g>
   <g id="patch_5">
    <path d="
M108 583.2
L108 64.8" style="fill:none;stroke:#000000;stroke-linecap:square;stroke-linejoin:miter;"/>
   </g>
   <g id="patch_6">
    <path d="
M777.6 583.2
L777.6 64.8" style="fill:none;stroke:#000000;stroke-linecap:square;stroke-linejoin:miter;"/>
   </g>
   <g id="matplotlib.axis_1">
    <g id="xtick_1">
     <g id="line2d_4">
      <defs>
       <path d="
M0 0
L0 -4" id="mc7db9fdffb" style="stroke:#000000;stroke-width:0.5;"/>
      </defs>
      <g>
       <use style="stroke:#000000;stroke-width:0.5;" x="108.0" xlink:href="#mc7db9fdffb" y="583.2"/>
      </g>
     </g>
     <g id="line2d_5">
      <defs>
       <path d="
M0 0
L0 4" id="m5a7d422ac3" style="stroke:#000000;stroke-width:0.5;"/>
      </defs>
      <g>
       <use style="stroke:#000000;stroke-width:0.5;" x="108.0" xlink:href="#m5a7d422ac3" y="64.8"/>
      </g>
     </g>
     <g id="text_1">
      <!-- 0 -->
      <defs>
       <path d="
M31.7812 66.4062
Q24.1719 66.4062 20.3281 58.9062
Q16.5 51.4219 16.5 36.375
Q16.5 21.3906 20.3281 13.8906
Q24.1719 6.39062 31.7812 6.39062
Q39.4531 6.39062 43.2812 13.8906
Q47.125 21.3906 47.125 36.375
Q47.125 51.4219 43.2812 58.9062
Q39.4531 66.4062 31.7812 66.4062
M31.7812 74.2188
Q44.0469 74.2188 50.5156 64.5156
Q56.9844 54.8281 56.9844 36.375
Q56.9844 17.9688 50.5156 8.26562
Q44.0469 -1.42188 31.7812 -1.42188
Q19.5312 -1.42188 13.0625 8.26562
Q6.59375 17.9688 6.59375 36.375
Q6.59375 54.8281 13.0625 64.5156
Q19.5312 74.2188 31.7812 74.2188" id="BitstreamVeraSans-Roman-30"/>
      </defs>
      <g transform="translate(104.9765625 596.318125)scale(0.12 -0.12)">
       <use xlink:href="#BitstreamVeraSans-Roman-30"/>
      </g>
     </g>
    </g>
    <g id="xtick_2">
     <g id="line2d_6">
      <g>
       <use style="stroke:#000000;stroke-width:0.5;" x="275.4" xlink:href="#mc7db9fdffb" y="583.2"/>
      </g>
     </g>
     <g id="line2d_7">
      <g>
       <use style="stroke:#000000;stroke-width:0.5;" x="275.4" xlink:href="#m5a7d422ac3" y="64.8"/>
      </g>
     </g>
     <g id="text_2">
      <!-- 50000 -->
      <defs>
       <path d="
M10.7969 72.9062
L49.5156 72.9062
L49.5156 64.5938
L19.8281 64.5938
L19.8281 46.7344
Q21.9688 47.4688 24.1094 47.8281
Q26.2656 48.1875 28.4219 48.1875
Q40.625 48.1875 47.75 41.5
Q54.8906 34.8125 54.8906 23.3906
Q54.8906 11.625 47.5625 5.09375
Q40.2344 -1.42188 26.9062 -1.42188
Q22.3125 -1.42188 17.5469 -0.640625
Q12.7969 0.140625 7.71875 1.70312
L7.71875 11.625
Q12.1094 9.23438 16.7969 8.0625
Q21.4844 6.89062 26.7031 6.89062
Q35.1562 6.89062 40.0781 11.3281
Q45.0156 15.7656 45.0156 23.3906
Q45.0156 31 40.0781 35.4375
Q35.1562 39.8906 26.7031 39.8906
Q22.75 39.8906 18.8125 39.0156
Q14.8906 38.1406 10.7969 36.2812
z
" id="BitstreamVeraSans-Roman-35"/>
      </defs>
      <g transform="translate(257.1740625 596.318125)scale(0.12 -0.12)">
       <use xlink:href="#BitstreamVeraSans-Roman-35"/>
       <use x="63.623046875" xlink:href="#BitstreamVeraSans-Roman-30"/>
       <use x="127.24609375" xlink:href="#BitstreamVeraSans-Roman-30"/>
       <use x="190.869140625" xlink:href="#BitstreamVeraSans-Roman-30"/>
       <use x="254.4921875" xlink:href="#BitstreamVeraSans-Roman-30"/>
      </g>
     </g>
    </g>
    <g id="xtick_3">
     <g id="line2d_8">
      <g>
       <use style="stroke:#000000;stroke-width:0.5;" x="442.8" xlink:href="#mc7db9fdffb" y="583.2"/>
      </g>
     </g>
     <g id="line2d_9">
      <g>
       <use style="stroke:#000000;stroke-width:0.5;" x="442.8" xlink:href="#m5a7d422ac3" y="64.8"/>
      </g>
     </g>
     <g id="text_3">
      <!-- 100000 -->
      <defs>
       <path d="
M12.4062 8.29688
L28.5156 8.29688
L28.5156 63.9219
L10.9844 60.4062
L10.9844 69.3906
L28.4219 72.9062
L38.2812 72.9062
L38.2812 8.29688
L54.3906 8.29688
L54.3906 0
L12.4062 0
z
" id="BitstreamVeraSans-Roman-31"/>
      </defs>
      <g transform="translate(420.9525 596.318125)scale(0.12 -0.12)">
       <use xlink:href="#BitstreamVeraSans-Roman-31"/>
       <use x="63.623046875" xlink:href="#BitstreamVeraSans-Roman-30"/>
       <use x="127.24609375" xlink:href="#BitstreamVeraSans-Roman-30"/>
       <use x="190.869140625" xlink:href="#BitstreamVeraSans-Roman-30"/>
       <use x="254.4921875" xlink:href="#BitstreamVeraSans-Roman-30"/>
       <use x="318.115234375" xlink:href="#BitstreamVeraSans-Roman-30"/>
      </g>
     </g>
    </g>
    <g id="xtick_4">
     <g id="line2d_10">
      <g>
       <use style="stroke:#000000;stroke-width:0.5;" x="610.2" xlink:href="#mc7db9fdffb" y="583.2"/>
      </g>
     </g>
     <g id="line2d_11">
      <g>
       <use style="stroke:#000000;stroke-width:0.5;" x="610.2" xlink:href="#m5a7d422ac3" y="64.8"/>
      </g>
     </g>
     <g id="text_4">
      <!-- 150000 -->
      <g transform="translate(588.3525 596.318125)scale(0.12 -0.12)">
       <use xlink:href="#BitstreamVeraSans-Roman-31"/>
       <use x="63.623046875" xlink:href="#BitstreamVeraSans-Roman-35"/>
       <use x="127.24609375" xlink:href="#BitstreamVeraSans-Roman-30"/>
       <use x="190.869140625" xlink:href="#BitstreamVeraSans-Roman-30"/>
       <use x="254.4921875" xlink:href="#BitstreamVeraSans-Roman-30"/>
       <use x="318.115234375" xlink:href="#BitstreamVeraSans-Roman-30"/>
      </g>
     </g>
    </g>
    <g id="xtick_5">
     <g id="line2d_12">
      <g>
       <use style="stroke:#000000;stroke-width:0.5;" x="777.6" xlink:href="#mc7db9fdffb" y="583.2"/>
      </g>
     </g>
     <g id="line2d_13">
      <g>
       <use style="stroke:#000000;stroke-width:0.5;" x="777.6" xlink:href="#m5a7d422ac3" y="64.8"/>
      </g>
     </g>
     <g id="text_5">
      <!-- 200000 -->
      <defs>
       <path d="
M19.1875 8.29688
L53.6094 8.29688
L53.6094 0
L7.32812 0
L7.32812 8.29688
Q12.9375 14.1094 22.625 23.8906
Q32.3281 33.6875 34.8125 36.5312
Q39.5469 41.8438 41.4219 45.5312
Q43.3125 49.2188 43.3125 52.7812
Q43.3125 58.5938 39.2344 62.25
Q35.1562 65.9219 28.6094 65.9219
Q23.9688 65.9219 18.8125 64.3125
Q13.6719 62.7031 7.8125 59.4219
L7.8125 69.3906
Q13.7656 71.7812 18.9375 73
Q24.125 74.2188 28.4219 74.2188
Q39.75 74.2188 46.4844 68.5469
Q53.2188 62.8906 53.2188 53.4219
Q53.2188 48.9219 51.5312 44.8906
Q49.8594 40.875 45.4062 35.4062
Q44.1875 33.9844 37.6406 27.2188
Q31.1094 20.4531 19.1875 8.29688" id="BitstreamVeraSans-Roman-32"/>
      </defs>
      <g transform="translate(755.533125 596.318125)scale(0.12 -0.12)">
       <use xlink:href="#BitstreamVeraSans-Roman-32"/>
       <use x="63.623046875" xlink:href="#BitstreamVeraSans-Roman-30"/>
       <use x="127.24609375" xlink:href="#BitstreamVeraSans-Roman-30"/>
       <use x="190.869140625" xlink:href="#BitstreamVeraSans-Roman-30"/>
       <use x="254.4921875" xlink:href="#BitstreamVeraSans-Roman-30"/>
       <use x="318.115234375" xlink:href="#BitstreamVeraSans-Roman-30"/>
      </g>
     </g>
    </g>
    <g id="text_6">
     <!-- t / ms -->
     <defs>
      <path d="
M52 44.1875
Q55.375 50.25 60.0625 53.125
Q64.75 56 71.0938 56
Q79.6406 56 84.2812 50.0156
Q88.9219 44.0469 88.9219 33.0156
L88.9219 0
L79.8906 0
L79.8906 32.7188
Q79.8906 40.5781 77.0938 44.375
Q74.3125 48.1875 68.6094 48.1875
Q61.625 48.1875 57.5625 43.5469
Q53.5156 38.9219 53.5156 30.9062
L53.5156 0
L44.4844 0
L44.4844 32.7188
Q44.4844 40.625 41.7031 44.4062
Q38.9219 48.1875 33.1094 48.1875
Q26.2188 48.1875 22.1562 43.5312
Q18.1094 38.875 18.1094 30.9062
L18.1094 0
L9.07812 0
L9.07812 54.6875
L18.1094 54.6875
L18.1094 46.1875
Q21.1875 51.2188 25.4844 53.6094
Q29.7812 56 35.6875 56
Q41.6562 56 45.8281 52.9688
Q50 49.9531 52 44.1875" id="BitstreamVeraSans-Roman-6d"/>
      <path d="
M25.3906 72.9062
L33.6875 72.9062
L8.29688 -9.28125
L0 -9.28125
z
" id="BitstreamVeraSans-Roman-2f"/>
      <path d="
M44.2812 53.0781
L44.2812 44.5781
Q40.4844 46.5312 36.375 47.5
Q32.2812 48.4844 27.875 48.4844
Q21.1875 48.4844 17.8438 46.4375
Q14.5 44.3906 14.5 40.2812
Q14.5 37.1562 16.8906 35.375
Q19.2812 33.5938 26.5156 31.9844
L29.5938 31.2969
Q39.1562 29.25 43.1875 25.5156
Q47.2188 21.7812 47.2188 15.0938
Q47.2188 7.46875 41.1875 3.01562
Q35.1562 -1.42188 24.6094 -1.42188
Q20.2188 -1.42188 15.4531 -0.5625
Q10.6875 0.296875 5.42188 2
L5.42188 11.2812
Q10.4062 8.6875 15.2344 7.39062
Q20.0625 6.10938 24.8125 6.10938
Q31.1562 6.10938 34.5625 8.28125
Q37.9844 10.4531 37.9844 14.4062
Q37.9844 18.0625 35.5156 20.0156
Q33.0625 21.9688 24.7031 23.7812
L21.5781 24.5156
Q13.2344 26.2656 9.51562 29.9062
Q5.8125 33.5469 5.8125 39.8906
Q5.8125 47.6094 11.2812 51.7969
Q16.75 56 26.8125 56
Q31.7812 56 36.1719 55.2656
Q40.5781 54.5469 44.2812 53.0781" id="BitstreamVeraSans-Roman-73"/>
      <path d="
M18.3125 70.2188
L18.3125 54.6875
L36.8125 54.6875
L36.8125 47.7031
L18.3125 47.7031
L18.3125 18.0156
Q18.3125 11.3281 20.1406 9.42188
Q21.9688 7.51562 27.5938 7.51562
L36.8125 7.51562
L36.8125 0
L27.5938 0
Q17.1875 0 13.2344 3.875
Q9.28125 7.76562 9.28125 18.0156
L9.28125 47.7031
L2.6875 47.7031
L2.6875 54.6875
L9.28125 54.6875
L9.28125 70.2188
z
" id="BitstreamVeraSans-Roman-74"/>
      <path id="BitstreamVeraSans-Roman-20"/>
     </defs>
     <g transform="translate(425.9353125 612.931875)scale(0.12 -0.12)">
      <use xlink:href="#BitstreamVeraSans-Roman-74"/>
      <use x="39.208984375" xlink:href="#BitstreamVeraSans-Roman-20"/>
      <use x="70.99609375" xlink:href="#BitstreamVeraSans-Roman-2f"/>
      <use x="104.6875" xlink:href="#BitstreamVeraSans-Roman-20"/>
      <use x="136.474609375" xlink:href="#BitstreamVeraSans-Roman-6d"/>
      <use x="233.88671875" xlink:href="#BitstreamVeraSans-Roman-73"/>
     </g>
    </g>
   </g>
   <g id="matplotlib.axis_2">
    <g id="ytick_1">
     <g id="line2d_14">
      <defs>
       <path d="
M0 0
L4 0" id="md7965d1ba0" style="stroke:#000000;stroke-width:0.5;"/>
      </defs>
      <g>
       <use style="stroke:#000000;stroke-width:0.5;" x="108.0" xlink:href="#md7965d1ba0" y="583.2"/>
      </g>
     </g>
     <g id="line2d_15">
      <defs>
       <path d="
M0 0
L-4 0" id="md9a1c1a7cd" style="stroke:#000000;stroke-width:0.5;"/>
      </defs>
      <g>
       <use style="stroke:#000000;stroke-width:0.5;" x="777.6" xlink:href="#md9a1c1a7cd" y="583.2"/>
      </g>
     </g>
     <g id="text_7">
      <!-- 0 -->
      <g transform="translate(97.953125 586.51125)scale(0.12 -0.12)">
       <use xlink:href="#BitstreamVeraSans-Roman-30"/>
      </g>
     </g>
    </g>
    <g id="ytick_2">
     <g id="line2d_16">
      <g>
       <use style="stroke:#000000;stroke-width:0.5;" x="108.0" xlink:href="#md7965d1ba0" y="453.6"/>
      </g>
     </g>
     <g id="line2d_17">
      <g>
       <use style="stroke:#000000;stroke-width:0.5;" x="777.6" xlink:href="#md9a1c1a7cd" y="453.6"/>
      </g>
     </g>
     <g id="text_8">
      <!-- 5 -->
      <g transform="translate(98.339375 456.91125)scale(0.12 -0.12)">
       <use xlink:href="#BitstreamVeraSans-Roman-35"/>
      </g>
     </g>
    </g>
    <g id="ytick_3">
     <g id="line2d_18">
      <g>
       <use style="stroke:#000000;stroke-width:0.5;" x="108.0" xlink:href="#md7965d1ba0" y="324.0"/>
      </g>
     </g>
     <g id="line2d_19">
      <g>
       <use style="stroke:#000000;stroke-width:0.5;" x="777.6" xlink:href="#md9a1c1a7cd" y="324.0"/>
      </g>
     </g>
     <g id="text_9">
      <!-- 10 -->
      <g transform="translate(90.845 327.31125)scale(0.12 -0.12)">
       <use xlink:href="#BitstreamVeraSans-Roman-31"/>
       <use x="63.623046875" xlink:href="#BitstreamVeraSans-Roman-30"/>
      </g>
     </g>
    </g>
    <g id="ytick_4">
     <g id="line2d_20">
      <g>
       <use style="stroke:#000000;stroke-width:0.5;" x="108.0" xlink:href="#md7965d1ba0" y="194.4"/>
      </g>
     </g>
     <g id="line2d_21">
      <g>
       <use style="stroke:#000000;stroke-width:0.5;" x="777.6" xlink:href="#md9a1c1a7cd" y="194.4"/>
      </g>
     </g>
     <g id="text_10">
      <!-- 15 -->
      <g transform="translate(91.09625 197.71125)scale(0.12 -0.12)">
       <use xlink:href="#BitstreamVeraSans-Roman-31"/>
       <use x="63.623046875" xlink:href="#BitstreamVeraSans-Roman-35"/>
      </g>
     </g>
    </g>
    <g id="ytick_5">
     <g id="line2d_22">
      <g>
       <use style="stroke:#000000;stroke-width:0.5;" x="108.0" xlink:href="#md7965d1ba0" y="64.8"/>
      </g>
     </g>
     <g id="line2d_23">
      <g>
       <use style="stroke:#000000;stroke-width:0.5;" x="777.6" xlink:href="#md9a1c1a7cd" y="64.8"/>
      </g>
     </g>
     <g id="text_11">
      <!-- 20 -->
      <g transform="translate(90.40625 68.11125)scale(0.12 -0.12)">
       <use xlink:href="#BitstreamVeraSans-Roman-32"/>
       <use x="63.623046875" xlink:href="#BitstreamVeraSans-Roman-30"/>
      </g>
     </g>
    </g>
    <g id="text_12">
     <!-- particle numbers -->
     <defs>
      <path d="
M56.2031 29.5938
L56.2031 25.2031
L14.8906 25.2031
Q15.4844 15.9219 20.4844 11.0625
Q25.4844 6.20312 34.4219 6.20312
Q39.5938 6.20312 44.4531 7.46875
Q49.3125 8.73438 54.1094 11.2812
L54.1094 2.78125
Q49.2656 0.734375 44.1875 -0.34375
Q39.1094 -1.42188 33.8906 -1.42188
Q20.7969 -1.42188 13.1562 6.1875
Q5.51562 13.8125 5.51562 26.8125
Q5.51562 40.2344 12.7656 48.1094
Q20.0156 56 32.3281 56
Q43.3594 56 49.7812 48.8906
Q56.2031 41.7969 56.2031 29.5938
M47.2188 32.2344
Q47.125 39.5938 43.0938 43.9844
Q39.0625 48.3906 32.4219 48.3906
Q24.9062 48.3906 20.3906 44.1406
Q15.875 39.8906 15.1875 32.1719
z
" id="BitstreamVeraSans-Roman-65"/>
      <path d="
M54.8906 33.0156
L54.8906 0
L45.9062 0
L45.9062 32.7188
Q45.9062 40.4844 42.875 44.3281
Q39.8438 48.1875 33.7969 48.1875
Q26.5156 48.1875 22.3125 43.5469
Q18.1094 38.9219 18.1094 30.9062
L18.1094 0
L9.07812 0
L9.07812 54.6875
L18.1094 54.6875
L18.1094 46.1875
Q21.3438 51.125 25.7031 53.5625
Q30.0781 56 35.7969 56
Q45.2188 56 50.0469 50.1719
Q54.8906 44.3438 54.8906 33.0156" id="BitstreamVeraSans-Roman-6e"/>
      <path d="
M9.42188 75.9844
L18.4062 75.9844
L18.4062 0
L9.42188 0
z
" id="BitstreamVeraSans-Roman-6c"/>
      <path d="
M48.6875 27.2969
Q48.6875 37.2031 44.6094 42.8438
Q40.5312 48.4844 33.4062 48.4844
Q26.2656 48.4844 22.1875 42.8438
Q18.1094 37.2031 18.1094 27.2969
Q18.1094 17.3906 22.1875 11.75
Q26.2656 6.10938 33.4062 6.10938
Q40.5312 6.10938 44.6094 11.75
Q48.6875 17.3906 48.6875 27.2969
M18.1094 46.3906
Q20.9531 51.2656 25.2656 53.625
Q29.5938 56 35.5938 56
Q45.5625 56 51.7812 48.0938
Q58.0156 40.1875 58.0156 27.2969
Q58.0156 14.4062 51.7812 6.48438
Q45.5625 -1.42188 35.5938 -1.42188
Q29.5938 -1.42188 25.2656 0.953125
Q20.9531 3.32812 18.1094 8.20312
L18.1094 0
L9.07812 0
L9.07812 75.9844
L18.1094 75.9844
z
" id="BitstreamVeraSans-Roman-62"/>
      <path d="
M34.2812 27.4844
Q23.3906 27.4844 19.1875 25
Q14.9844 22.5156 14.9844 16.5
Q14.9844 11.7188 18.1406 8.90625
Q21.2969 6.10938 26.7031 6.10938
Q34.1875 6.10938 38.7031 11.4062
Q43.2188 16.7031 43.2188 25.4844
L43.2188 27.4844
z

M52.2031 31.2031
L52.2031 0
L43.2188 0
L43.2188 8.29688
Q40.1406 3.32812 35.5469 0.953125
Q30.9531 -1.42188 24.3125 -1.42188
Q15.9219 -1.42188 10.9531 3.29688
Q6 8.01562 6 15.9219
Q6 25.1406 12.1719 29.8281
Q18.3594 34.5156 30.6094 34.5156
L43.2188 34.5156
L43.2188 35.4062
Q43.2188 41.6094 39.1406 45
Q35.0625 48.3906 27.6875 48.3906
Q23 48.3906 18.5469 47.2656
Q14.1094 46.1406 10.0156 43.8906
L10.0156 52.2031
Q14.9375 54.1094 19.5781 55.0469
Q24.2188 56 28.6094 56
Q40.4844 56 46.3438 49.8438
Q52.2031 43.7031 52.2031 31.2031" id="BitstreamVeraSans-Roman-61"/>
      <path d="
M48.7812 52.5938
L48.7812 44.1875
Q44.9688 46.2969 41.1406 47.3438
Q37.3125 48.3906 33.4062 48.3906
Q24.6562 48.3906 19.8125 42.8438
Q14.9844 37.3125 14.9844 27.2969
Q14.9844 17.2812 19.8125 11.7344
Q24.6562 6.20312 33.4062 6.20312
Q37.3125 6.20312 41.1406 7.25
Q44.9688 8.29688 48.7812 10.4062
L48.7812 2.09375
Q45.0156 0.34375 40.9844 -0.53125
Q36.9688 -1.42188 32.4219 -1.42188
Q20.0625 -1.42188 12.7812 6.34375
Q5.51562 14.1094 5.51562 27.2969
Q5.51562 40.6719 12.8594 48.3281
Q20.2188 56 33.0156 56
Q37.1562 56 41.1094 55.1406
Q45.0625 54.2969 48.7812 52.5938" id="BitstreamVeraSans-Roman-63"/>
      <path d="
M8.5 21.5781
L8.5 54.6875
L17.4844 54.6875
L17.4844 21.9219
Q17.4844 14.1562 20.5 10.2656
Q23.5312 6.39062 29.5938 6.39062
Q36.8594 6.39062 41.0781 11.0312
Q45.3125 15.6719 45.3125 23.6875
L45.3125 54.6875
L54.2969 54.6875
L54.2969 0
L45.3125 0
L45.3125 8.40625
Q42.0469 3.42188 37.7188 1
Q33.4062 -1.42188 27.6875 -1.42188
Q18.2656 -1.42188 13.375 4.4375
Q8.5 10.2969 8.5 21.5781" id="BitstreamVeraSans-Roman-75"/>
      <path d="
M18.1094 8.20312
L18.1094 -20.7969
L9.07812 -20.7969
L9.07812 54.6875
L18.1094 54.6875
L18.1094 46.3906
Q20.9531 51.2656 25.2656 53.625
Q29.5938 56 35.5938 56
Q45.5625 56 51.7812 48.0938
Q58.0156 40.1875 58.0156 27.2969
Q58.0156 14.4062 51.7812 6.48438
Q45.5625 -1.42188 35.5938 -1.42188
Q29.5938 -1.42188 25.2656 0.953125
Q20.9531 3.32812 18.1094 8.20312
M48.6875 27.2969
Q48.6875 37.2031 44.6094 42.8438
Q40.5312 48.4844 33.4062 48.4844
Q26.2656 48.4844 22.1875 42.8438
Q18.1094 37.2031 18.1094 27.2969
Q18.1094 17.3906 22.1875 11.75
Q26.2656 6.10938 33.4062 6.10938
Q40.5312 6.10938 44.6094 11.75
Q48.6875 17.3906 48.6875 27.2969" id="BitstreamVeraSans-Roman-70"/>
      <path d="
M9.42188 54.6875
L18.4062 54.6875
L18.4062 0
L9.42188 0
z

M9.42188 75.9844
L18.4062 75.9844
L18.4062 64.5938
L9.42188 64.5938
z
" id="BitstreamVeraSans-Roman-69"/>
      <path d="
M41.1094 46.2969
Q39.5938 47.1719 37.8125 47.5781
Q36.0312 48 33.8906 48
Q26.2656 48 22.1875 43.0469
Q18.1094 38.0938 18.1094 28.8125
L18.1094 0
L9.07812 0
L9.07812 54.6875
L18.1094 54.6875
L18.1094 46.1875
Q20.9531 51.1719 25.4844 53.5781
Q30.0312 56 36.5312 56
Q37.4531 56 38.5781 55.875
Q39.7031 55.7656 41.0625 55.5156
z
" id="BitstreamVeraSans-Roman-72"/>
     </defs>
     <g transform="translate(82.910625 374.78625)rotate(-90.0)scale(0.12 -0.12)">
      <use xlink:href="#BitstreamVeraSans-Roman-70"/>
      <use x="63.4765625" xlink:href="#BitstreamVeraSans-Roman-61"/>
      <use x="124.755859375" xlink:href="#BitstreamVeraSans-Roman-72"/>
      <use x="165.869140625" xlink:href="#BitstreamVeraSans-Roman-74"/>
      <use x="205.078125" xlink:href="#BitstreamVeraSans-Roman-69"/>
      <use x="232.861328125" xlink:href="#BitstreamVeraSans-Roman-63"/>
      <use x="287.841796875" xlink:href="#BitstreamVeraSans-Roman-6c"/>
      <use x="315.625" xlink:href="#BitstreamVeraSans-Roman-65"/>
      <use x="377.1484375" xlink:href="#BitstreamVeraSans-Roman-20"/>
      <use x="408.935546875" xlink:href="#BitstreamVeraSans-Roman-6e"/>
      <use x="472.314453125" xlink:href="#BitstreamVeraSans-Roman-75"/>
      <use x="535.693359375" xlink:href="#BitstreamVeraSans-Roman-6d"/>
      <use x="633.10546875" xlink:href="#BitstreamVeraSans-Roman-62"/>
      <use x="696.58203125" xlink:href="#BitstreamVeraSans-Roman-65"/>
      <use x="758.10546875" xlink:href="#BitstreamVeraSans-Roman-72"/>
      <use x="799.21875" xlink:href="#BitstreamVeraSans-Roman-73"/>
     </g>
    </g>
   </g>
   <g id="legend_1">
    <g id="patch_7">
     <path d="
M111.5 101.224
L197.673 101.224
L197.673 68.3
L111.5 68.3
z
" style="fill:#ffffff;stroke:#000000;stroke-linejoin:miter;"/>
    </g>
    <g id="line2d_24">
     <path d="
M116.4 73.9689
L126.2 73.9689" style="fill:none;stroke:#ff0000;stroke-linecap:square;"/>
    </g>
    <g id="line2d_25"/>
    <g id="text_13">
     <!-- pPDE10cAMP el.0 -->
     <defs>
      <path d="
M9.8125 72.9062
L24.5156 72.9062
L43.1094 23.2969
L61.8125 72.9062
L76.5156 72.9062
L76.5156 0
L66.8906 0
L66.8906 64.0156
L48.0938 14.0156
L38.1875 14.0156
L19.3906 64.0156
L19.3906 0
L9.8125 0
z
" id="BitstreamVeraSans-Roman-4d"/>
      <path d="
M9.8125 72.9062
L55.9062 72.9062
L55.9062 64.5938
L19.6719 64.5938
L19.6719 43.0156
L54.3906 43.0156
L54.3906 34.7188
L19.6719 34.7188
L19.6719 8.29688
L56.7812 8.29688
L56.7812 0
L9.8125 0
z
" id="BitstreamVeraSans-Roman-45"/>
      <path d="
M10.6875 12.4062
L21 12.4062
L21 0
L10.6875 0
z
" id="BitstreamVeraSans-Roman-2e"/>
      <path d="
M19.6719 64.7969
L19.6719 8.10938
L31.5938 8.10938
Q46.6875 8.10938 53.6875 14.9375
Q60.6875 21.7812 60.6875 36.5312
Q60.6875 51.1719 53.6875 57.9844
Q46.6875 64.7969 31.5938 64.7969
z

M9.8125 72.9062
L30.0781 72.9062
Q51.2656 72.9062 61.1719 64.0938
Q71.0938 55.2812 71.0938 36.5312
Q71.0938 17.6719 61.125 8.82812
Q51.1719 0 30.0781 0
L9.8125 0
z
" id="BitstreamVeraSans-Roman-44"/>
      <path d="
M19.6719 64.7969
L19.6719 37.4062
L32.0781 37.4062
Q38.9688 37.4062 42.7188 40.9688
Q46.4844 44.5312 46.4844 51.125
Q46.4844 57.6719 42.7188 61.2344
Q38.9688 64.7969 32.0781 64.7969
z

M9.8125 72.9062
L32.0781 72.9062
Q44.3438 72.9062 50.6094 67.3594
Q56.8906 61.8125 56.8906 51.125
Q56.8906 40.3281 50.6094 34.8125
Q44.3438 29.2969 32.0781 29.2969
L19.6719 29.2969
L19.6719 0
L9.8125 0
z
" id="BitstreamVeraSans-Roman-50"/>
      <path d="
M34.1875 63.1875
L20.7969 26.9062
L47.6094 26.9062
z

M28.6094 72.9062
L39.7969 72.9062
L67.5781 0
L57.3281 0
L50.6875 18.7031
L17.8281 18.7031
L11.1875 0
L0.78125 0
z
" id="BitstreamVeraSans-Roman-41"/>
     </defs>
     <g transform="translate(133.9 76.41890625)scale(0.07 -0.07)">
      <use xlink:href="#BitstreamVeraSans-Roman-70"/>
      <use x="63.4765625" xlink:href="#BitstreamVeraSans-Roman-50"/>
      <use x="123.779296875" xlink:href="#BitstreamVeraSans-Roman-44"/>
      <use x="200.78125" xlink:href="#BitstreamVeraSans-Roman-45"/>
      <use x="263.96484375" xlink:href="#BitstreamVeraSans-Roman-31"/>
      <use x="327.587890625" xlink:href="#BitstreamVeraSans-Roman-30"/>
      <use x="391.2109375" xlink:href="#BitstreamVeraSans-Roman-63"/>
      <use x="446.19140625" xlink:href="#BitstreamVeraSans-Roman-41"/>
      <use x="514.599609375" xlink:href="#BitstreamVeraSans-Roman-4d"/>
      <use x="600.87890625" xlink:href="#BitstreamVeraSans-Roman-50"/>
      <use x="661.181640625" xlink:href="#BitstreamVeraSans-Roman-20"/>
      <use x="692.96875" xlink:href="#BitstreamVeraSans-Roman-65"/>
      <use x="754.4921875" xlink:href="#BitstreamVeraSans-Roman-6c"/>
      <use x="782.275390625" xlink:href="#BitstreamVeraSans-Roman-2e"/>
      <use x="814.0625" xlink:href="#BitstreamVeraSans-Roman-30"/>
     </g>
    </g>
    <g id="line2d_26">
     <path d="
M116.4 84.2436
L126.2 84.2436" style="fill:none;stroke:#008000;stroke-linecap:square;"/>
    </g>
    <g id="line2d_27"/>
    <g id="text_14">
     <!-- pPDE10cAMP el.1 -->
     <g transform="translate(133.9 86.69359375)scale(0.07 -0.07)">
      <use xlink:href="#BitstreamVeraSans-Roman-70"/>
      <use x="63.4765625" xlink:href="#BitstreamVeraSans-Roman-50"/>
      <use x="123.779296875" xlink:href="#BitstreamVeraSans-Roman-44"/>
      <use x="200.78125" xlink:href="#BitstreamVeraSans-Roman-45"/>
      <use x="263.96484375" xlink:href="#BitstreamVeraSans-Roman-31"/>
      <use x="327.587890625" xlink:href="#BitstreamVeraSans-Roman-30"/>
      <use x="391.2109375" xlink:href="#BitstreamVeraSans-Roman-63"/>
      <use x="446.19140625" xlink:href="#BitstreamVeraSans-Roman-41"/>
      <use x="514.599609375" xlink:href="#BitstreamVeraSans-Roman-4d"/>
      <use x="600.87890625" xlink:href="#BitstreamVeraSans-Roman-50"/>
      <use x="661.181640625" xlink:href="#BitstreamVeraSans-Roman-20"/>
      <use x="692.96875" xlink:href="#BitstreamVeraSans-Roman-65"/>
      <use x="754.4921875" xlink:href="#BitstreamVeraSans-Roman-6c"/>
      <use x="782.275390625" xlink:href="#BitstreamVeraSans-Roman-2e"/>
      <use x="814.0625" xlink:href="#BitstreamVeraSans-Roman-31"/>
     </g>
    </g>
    <g id="line2d_28">
     <path d="
M116.4 94.5183
L126.2 94.5183" style="fill:none;stroke:#0000ff;stroke-linecap:square;"/>
    </g>
    <g id="line2d_29"/>
    <g id="text_15">
     <!-- pPDE10cAMP el.2 -->
     <g transform="translate(133.9 96.96828125)scale(0.07 -0.07)">
      <use xlink:href="#BitstreamVeraSans-Roman-70"/>
      <use x="63.4765625" xlink:href="#BitstreamVeraSans-Roman-50"/>
      <use x="123.779296875" xlink:href="#BitstreamVeraSans-Roman-44"/>
      <use x="200.78125" xlink:href="#BitstreamVeraSans-Roman-45"/>
      <use x="263.96484375" xlink:href="#BitstreamVeraSans-Roman-31"/>
      <use x="327.587890625" xlink:href="#BitstreamVeraSans-Roman-30"/>
      <use x="391.2109375" xlink:href="#BitstreamVeraSans-Roman-63"/>
      <use x="446.19140625" xlink:href="#BitstreamVeraSans-Roman-41"/>
      <use x="514.599609375" xlink:href="#BitstreamVeraSans-Roman-4d"/>
      <use x="600.87890625" xlink:href="#BitstreamVeraSans-Roman-50"/>
      <use x="661.181640625" xlink:href="#BitstreamVeraSans-Roman-20"/>
      <use x="692.96875" xlink:href="#BitstreamVeraSans-Roman-65"/>
      <use x="754.4921875" xlink:href="#BitstreamVeraSans-Roman-6c"/>
      <use x="782.275390625" xlink:href="#BitstreamVeraSans-Roman-2e"/>
      <use x="814.0625" xlink:href="#BitstreamVeraSans-Roman-32"/>
     </g>
    </g>
   </g>
  </g>
 </g>
 <defs>
  <clipPath id="p7ceb695115">
   <rect height="518.4" width="669.6" x="108.0" y="64.8"/>
  </clipPath>
 </defs>
</svg>
