<?xml version="1.0" encoding="utf-8" standalone="no"?>
<!DOCTYPE svg PUBLIC "-//W3C//DTD SVG 1.1//EN"
  "http://www.w3.org/Graphics/SVG/1.1/DTD/svg11.dtd">
<!-- Created with matplotlib (http://matplotlib.org/) -->
<svg height="648pt" version="1.1" viewBox="0 0 864 648" width="864pt" xmlns="http://www.w3.org/2000/svg" xmlns:xlink="http://www.w3.org/1999/xlink">
 <defs>
  <style type="text/css">
*{stroke-linecap:butt;stroke-linejoin:round;}
  </style>
 </defs>
 <g id="figure_1">
  <g id="patch_1">
   <path d="
M0 648
L864 648
L864 0
L0 0
z
" style="fill:#ffffff;"/>
  </g>
  <g id="axes_1">
   <g id="patch_2">
    <path d="
M108 583.2
L777.6 583.2
L777.6 64.8
L108 64.8
z
" style="fill:#ffffff;"/>
   </g>
   <g id="line2d_1">
    <path clip-path="url(#p7ceb695115)" d="
M108 583.2
L133.445 583.2
L134.784 578.016
L135.454 580.608
L136.123 580.608
L136.793 583.2
L137.462 580.608
L138.132 580.608
L138.802 578.016
L139.471 580.608
L146.167 580.608
L146.837 583.2
L152.194 583.2
L152.863 580.608
L160.229 580.608
L160.898 583.2
L166.925 583.2
L167.594 580.608
L168.264 580.608
L168.934 583.2
L169.603 580.608
L171.612 580.608
L172.282 583.2
L186.343 583.2
L187.013 580.608
L187.682 580.608
L188.352 583.2
L190.361 583.2
L191.03 580.608
L192.37 580.608
L193.039 583.2
L205.092 583.2
L205.762 580.608
L212.458 580.608
L213.127 583.2
L219.154 583.2
L219.823 580.608
L220.493 580.608
L221.162 583.2
L238.572 583.2
L239.242 580.608
L239.911 583.2
L253.973 583.2
L254.642 580.608
L255.312 580.608
L255.982 583.2
L259.999 583.2
L260.669 580.608
L263.347 580.608
L264.017 583.2
L270.043 583.2
L270.713 580.608
L276.07 580.608
L276.739 583.2
L277.409 583.2
L278.078 580.608
L278.748 580.608
L279.418 583.2
L289.462 583.2
L290.131 580.608
L292.14 580.608
L292.81 583.2
L308.88 583.2
L309.55 580.608
L311.558 580.608
L312.228 583.2
L364.457 583.2
L365.126 580.608
L365.796 583.2
L401.285 583.2
L401.954 580.608
L408.65 580.608
L409.32 583.2
L444.139 583.2
L445.478 578.016
L446.148 580.608
L447.487 575.424
L448.157 580.608
L449.496 575.424
L450.166 567.648
L450.835 570.24
L452.174 554.688
L452.844 552.096
L453.514 567.648
L454.183 552.096
L454.853 557.28
L455.522 541.728
L456.192 539.136
L456.862 541.728
L457.531 549.504
L458.201 536.544
L458.87 549.504
L459.54 536.544
L460.21 536.544
L460.879 520.992
L461.549 533.952
L462.218 526.176
L462.888 520.992
L463.558 546.912
L464.227 523.584
L465.566 533.952
L466.236 515.808
L466.906 528.768
L467.575 528.768
L468.245 523.584
L468.914 526.176
L469.584 552.096
L470.254 528.768
L470.923 528.768
L471.593 502.848
L472.262 482.112
L473.602 520.992
L474.271 508.032
L474.941 515.808
L475.61 487.296
L476.28 526.176
L476.95 492.48
L477.619 500.256
L478.289 510.624
L478.958 497.664
L479.628 508.032
L480.298 508.032
L480.967 497.664
L481.637 471.744
L482.306 474.336
L482.976 471.744
L483.646 495.072
L484.315 492.48
L484.985 484.704
L485.654 484.704
L486.324 495.072
L486.994 487.296
L487.663 505.44
L488.333 482.112
L489.002 489.888
L489.672 484.704
L490.342 487.296
L491.011 515.808
L491.681 489.888
L492.35 469.152
L493.02 476.928
L493.69 474.336
L494.359 476.928
L495.029 474.336
L495.698 484.704
L496.368 479.52
L497.038 502.848
L497.707 508.032
L498.377 482.112
L499.046 502.848
L499.716 443.232
L500.386 482.112
L501.055 484.704
L501.725 453.6
L502.394 487.296
L503.064 492.48
L503.734 474.336
L504.403 484.704
L505.073 487.296
L505.742 482.112
L506.412 505.44
L507.082 500.256
L507.751 482.112
L508.421 482.112
L509.09 476.928
L509.76 489.888
L510.43 508.032
L511.099 469.152
L511.769 484.704
L512.438 487.296
L513.108 487.296
L513.778 489.888
L514.447 479.52
L515.117 482.112
L515.786 448.416
L516.456 492.48
L517.126 513.216
L517.795 495.072
L519.134 505.44
L520.474 500.256
L521.143 500.256
L521.813 476.928
L522.482 502.848
L523.152 487.296
L523.822 500.256
L524.491 500.256
L525.161 492.48
L525.83 500.256
L526.5 495.072
L527.17 518.4
L527.839 508.032
L528.509 515.808
L529.178 500.256
L529.848 505.44
L530.518 513.216
L531.187 502.848
L531.857 523.584
L532.526 502.848
L533.196 489.888
L533.866 536.544
L534.535 523.584
L535.205 505.44
L535.874 515.808
L536.544 495.072
L537.214 497.664
L537.883 531.36
L538.553 520.992
L539.222 531.36
L539.892 515.808
L540.562 536.544
L541.231 541.728
L541.901 518.4
L542.57 513.216
L543.24 518.4
L543.91 528.768
L544.579 518.4
L545.249 539.136
L545.918 528.768
L546.588 515.808
L547.258 513.216
L547.927 489.888
L548.597 510.624
L549.266 495.072
L549.936 523.584
L550.606 508.032
L551.275 510.624
L551.945 510.624
L552.614 502.848
L553.284 541.728
L553.954 523.584
L554.623 497.664
L555.293 528.768
L555.962 520.992
L556.632 515.808
L557.302 508.032
L557.971 487.296
L558.641 502.848
L559.31 528.768
L559.98 495.072
L560.65 508.032
L561.319 497.664
L561.989 539.136
L562.658 513.216
L563.328 523.584
L563.998 510.624
L564.667 500.256
L565.337 497.664
L566.006 500.256
L566.676 505.44
L567.346 528.768
L568.015 508.032
L569.354 502.848
L570.024 520.992
L570.694 508.032
L571.363 502.848
L572.033 513.216
L572.702 500.256
L573.372 526.176
L574.042 513.216
L574.711 518.4
L575.381 539.136
L576.05 515.808
L576.72 523.584
L577.39 528.768
L578.729 554.688
L579.398 515.808
L580.068 546.912
L580.738 546.912
L581.407 541.728
L582.077 515.808
L582.746 526.176
L583.416 544.32
L584.086 523.584
L584.755 531.36
L585.425 523.584
L586.094 531.36
L586.764 536.544
L587.434 544.32
L588.103 528.768
L589.442 528.768
L590.112 518.4
L590.782 526.176
L591.451 520.992
L592.121 500.256
L592.79 520.992
L593.46 520.992
L594.13 523.584
L595.469 533.952
L596.138 533.952
L596.808 544.32
L597.478 546.912
L598.147 531.36
L598.817 544.32
L599.486 536.544
L600.156 546.912
L600.826 539.136
L601.495 539.136
L602.165 541.728
L602.834 528.768
L603.504 539.136
L604.174 546.912
L604.843 528.768
L605.513 539.136
L606.182 523.584
L606.852 539.136
L607.522 531.36
L608.191 539.136
L608.861 539.136
L609.53 541.728
L610.2 533.952
L610.87 533.952
L611.539 531.36
L612.209 554.688
L612.878 531.36
L613.548 539.136
L614.218 536.544
L614.887 546.912
L615.557 526.176
L616.226 546.912
L616.896 533.952
L618.235 539.136
L618.905 531.36
L619.574 541.728
L620.244 536.544
L620.914 539.136
L621.583 531.36
L622.253 546.912
L622.922 523.584
L623.592 531.36
L624.262 552.096
L624.931 528.768
L625.601 546.912
L626.27 549.504
L628.279 533.952
L628.949 539.136
L629.618 533.952
L630.288 546.912
L630.958 528.768
L631.627 531.36
L632.297 559.872
L632.966 539.136
L633.636 552.096
L634.975 541.728
L635.645 531.36
L636.314 546.912
L637.654 536.544
L638.323 554.688
L638.993 549.504
L639.662 546.912
L640.332 546.912
L641.002 544.32
L641.671 552.096
L642.341 549.504
L643.01 554.688
L643.68 533.952
L644.35 552.096
L645.019 557.28
L645.689 539.136
L646.358 552.096
L647.028 562.464
L647.698 549.504
L648.367 546.912
L649.037 562.464
L649.706 536.544
L650.376 549.504
L651.046 546.912
L651.715 536.544
L652.385 557.28
L653.054 541.728
L653.724 549.504
L654.394 549.504
L655.063 559.872
L656.402 549.504
L657.072 557.28
L657.742 536.544
L658.411 554.688
L659.081 546.912
L659.75 552.096
L660.42 554.688
L661.09 541.728
L661.759 554.688
L662.429 546.912
L663.098 554.688
L663.768 546.912
L664.438 552.096
L665.107 539.136
L665.777 549.504
L666.446 539.136
L667.116 533.952
L667.786 533.952
L668.455 549.504
L669.125 544.32
L669.794 554.688
L670.464 531.36
L671.134 554.688
L671.803 549.504
L672.473 557.28
L673.142 541.728
L673.812 557.28
L674.482 562.464
L675.151 549.504
L675.821 549.504
L676.49 554.688
L677.16 557.28
L677.83 554.688
L678.499 554.688
L679.169 552.096
L679.838 562.464
L680.508 559.872
L681.178 552.096
L681.847 549.504
L682.517 557.28
L683.186 562.464
L683.856 552.096
L684.526 559.872
L685.195 562.464
L685.865 562.464
L686.534 565.056
L687.204 562.464
L687.874 565.056
L688.543 557.28
L689.882 572.832
L690.552 567.648
L691.222 572.832
L691.891 565.056
L692.561 567.648
L693.23 559.872
L693.9 562.464
L694.57 554.688
L695.239 565.056
L695.909 567.648
L696.578 559.872
L697.248 565.056
L697.918 554.688
L698.587 554.688
L699.257 562.464
L699.926 559.872
L701.266 565.056
L701.935 559.872
L703.274 570.24
L703.944 572.832
L704.614 572.832
L705.283 567.648
L705.953 565.056
L706.622 570.24
L707.962 575.424
L708.631 575.424
L709.301 567.648
L709.97 562.464
L710.64 565.056
L711.979 565.056
L712.649 570.24
L713.318 570.24
L713.988 567.648
L714.658 570.24
L715.327 578.016
L715.997 572.832
L716.666 583.2
L717.336 578.016
L718.675 572.832
L719.345 572.832
L720.014 580.608
L720.684 578.016
L721.354 578.016
L722.023 580.608
L722.693 578.016
L723.362 578.016
L724.032 575.424
L724.702 580.608
L725.371 583.2
L726.041 580.608
L726.71 575.424
L727.38 580.608
L728.05 578.016
L728.719 580.608
L730.058 580.608
L731.398 575.424
L732.067 575.424
L732.737 567.648
L733.406 580.608
L734.076 575.424
L734.746 575.424
L735.415 572.832
L736.754 578.016
L737.424 578.016
L738.094 580.608
L738.763 578.016
L739.433 578.016
L740.102 580.608
L742.111 580.608
L742.781 583.2
L743.45 583.2
L744.12 580.608
L747.468 580.608
L748.138 583.2
L749.477 578.016
L750.146 578.016
L750.816 575.424
L751.486 578.016
L754.834 578.016
L756.173 583.2
L758.851 583.2
L760.19 578.016
L760.86 580.608
L761.53 575.424
L762.199 575.424
L762.869 578.016
L763.538 575.424
L764.878 580.608
L765.547 580.608
L766.217 578.016
L766.886 580.608
L767.556 580.608
L768.895 575.424
L769.565 578.016
L770.234 575.424
L770.904 578.016
L772.243 578.016
L772.913 572.832
L773.582 575.424
L774.252 572.832
L774.922 572.832
L775.591 575.424
L776.261 575.424
L776.93 580.608
L777.6 580.608
L777.6 580.608" style="fill:none;stroke:#ff0000;stroke-linecap:square;"/>
   </g>
   <g id="line2d_2">
    <path clip-path="url(#p7ceb695115)" d="
M108 583.2
L115.366 583.2
L116.035 580.608
L118.714 580.608
L119.383 583.2
L123.401 583.2
L124.07 580.608
L125.41 580.608
L126.079 578.016
L127.418 578.016
L128.088 580.608
L129.427 580.608
L130.097 583.2
L130.766 583.2
L131.436 580.608
L136.793 580.608
L137.462 578.016
L138.802 578.016
L139.471 575.424
L140.141 578.016
L140.81 575.424
L141.48 578.016
L142.15 575.424
L142.819 578.016
L146.167 578.016
L146.837 575.424
L148.176 580.608
L148.846 580.608
L150.185 575.424
L150.854 578.016
L153.533 578.016
L154.202 575.424
L154.872 578.016
L155.542 575.424
L156.211 575.424
L157.55 570.24
L158.22 572.832
L158.89 572.832
L159.559 578.016
L160.898 578.016
L161.568 580.608
L162.238 578.016
L162.907 578.016
L164.246 583.2
L174.29 583.2
L174.96 580.608
L175.63 583.2
L176.299 580.608
L176.969 580.608
L177.638 578.016
L178.308 578.016
L178.978 580.608
L179.647 580.608
L181.656 572.832
L182.326 580.608
L182.995 583.2
L186.343 583.2
L187.013 580.608
L189.691 580.608
L191.03 575.424
L191.7 575.424
L192.37 578.016
L193.709 578.016
L194.378 580.608
L195.048 575.424
L195.718 578.016
L196.387 578.016
L197.057 580.608
L200.405 580.608
L201.074 575.424
L203.753 575.424
L204.422 572.832
L205.092 575.424
L207.101 575.424
L208.44 580.608
L209.11 578.016
L209.779 580.608
L215.136 580.608
L215.806 578.016
L216.475 578.016
L217.145 580.608
L219.154 580.608
L219.823 583.2
L221.162 578.016
L222.502 578.016
L223.171 580.608
L223.841 578.016
L225.85 578.016
L226.519 575.424
L228.528 575.424
L229.198 580.608
L230.537 580.608
L231.206 578.016
L232.546 578.016
L233.215 580.608
L233.885 578.016
L235.224 578.016
L235.894 580.608
L246.607 580.608
L247.277 578.016
L249.286 578.016
L249.955 580.608
L268.034 580.608
L268.704 583.2
L276.07 583.2
L276.739 580.608
L280.757 580.608
L281.426 575.424
L282.096 572.832
L282.766 575.424
L283.435 575.424
L284.105 583.2
L290.801 583.2
L291.47 580.608
L293.479 580.608
L294.149 583.2
L296.827 583.2
L297.497 580.608
L298.166 583.2
L321.602 583.2
L322.272 578.016
L322.942 578.016
L323.611 580.608
L324.95 580.608
L325.62 583.2
L329.638 583.2
L330.307 580.608
L332.316 580.608
L332.986 583.2
L349.056 583.2
L349.726 580.608
L357.091 580.608
L358.43 575.424
L361.109 575.424
L362.448 580.608
L363.118 578.016
L363.787 583.2
L364.457 580.608
L365.126 583.2
L365.796 580.608
L366.466 583.2
L367.135 580.608
L369.144 580.608
L369.814 578.016
L371.153 578.016
L371.822 580.608
L377.849 580.608
L378.518 578.016
L379.188 580.608
L382.536 580.608
L383.206 583.2
L393.25 583.2
L393.919 580.608
L396.598 580.608
L397.267 583.2
L424.051 583.2
L424.721 580.608
L425.39 580.608
L426.06 583.2
L426.73 580.608
L427.399 580.608
L428.069 583.2
L434.095 583.2
L434.765 580.608
L436.104 580.608
L436.774 583.2
L443.47 583.2
L444.809 578.016
L445.478 580.608
L446.148 575.424
L446.818 572.832
L447.487 565.056
L448.157 562.464
L448.826 557.28
L449.496 544.32
L450.835 510.624
L451.505 536.544
L452.174 518.4
L452.844 505.44
L453.514 487.296
L454.183 484.704
L454.853 495.072
L455.522 443.232
L456.192 463.968
L456.862 476.928
L457.531 461.376
L458.201 438.048
L458.87 456.192
L459.54 448.416
L460.21 417.312
L460.879 443.232
L461.549 383.616
L462.218 396.576
L462.888 448.416
L463.558 399.168
L464.227 406.944
L464.897 370.656
L465.566 401.76
L466.236 357.696
L466.906 383.616
L467.575 355.104
L468.245 365.472
L468.914 357.696
L469.584 336.96
L470.254 352.512
L470.923 318.816
L471.593 352.512
L472.262 336.96
L472.932 329.184
L473.602 295.488
L474.271 329.184
L474.941 321.408
L475.61 321.408
L476.28 326.592
L476.95 287.712
L477.619 282.528
L478.289 295.488
L478.958 292.896
L479.628 189.216
L480.298 256.608
L480.967 209.952
L481.637 259.2
L482.306 274.752
L482.976 235.872
L483.646 256.608
L484.315 272.16
L484.985 272.16
L485.654 217.728
L486.324 103.68
L486.994 196.992
L487.663 199.584
L488.333 181.44
L489.002 259.2
L489.672 165.888
L490.342 235.872
L491.011 212.544
L491.681 202.176
L492.35 196.992
L493.02 220.32
L493.69 168.48
L494.359 209.952
L495.029 178.848
L495.698 165.888
L496.368 199.584
L497.038 220.32
L497.707 202.176
L498.377 233.28
L499.046 155.52
L500.386 228.096
L501.055 202.176
L501.725 196.992
L502.394 256.608
L503.064 220.32
L503.734 209.952
L504.403 186.624
L505.073 204.768
L505.742 207.36
L506.412 184.032
L507.082 199.584
L507.751 209.952
L508.421 238.464
L509.09 181.44
L509.76 279.936
L510.43 196.992
L511.099 228.096
L511.769 194.4
L512.438 228.096
L513.108 196.992
L513.778 196.992
L514.447 264.384
L515.117 225.504
L515.786 199.584
L516.456 243.648
L517.126 251.424
L517.795 246.24
L518.465 235.872
L519.134 241.056
L519.804 274.752
L520.474 264.384
L521.143 248.832
L521.813 251.424
L522.482 251.424
L523.152 287.712
L523.822 241.056
L524.491 259.2
L525.161 254.016
L525.83 251.424
L526.5 285.12
L527.17 238.464
L527.839 233.28
L528.509 279.936
L529.178 277.344
L529.848 228.096
L531.187 207.36
L531.857 261.792
L532.526 220.32
L533.196 269.568
L533.866 285.12
L534.535 233.28
L535.205 248.832
L535.874 256.608
L536.544 259.2
L537.214 269.568
L537.883 266.976
L538.553 274.752
L539.222 274.752
L539.892 269.568
L540.562 261.792
L541.231 209.952
L541.901 246.24
L542.57 298.08
L543.24 282.528
L543.91 295.488
L544.579 287.712
L545.249 251.424
L545.918 285.12
L546.588 282.528
L547.258 261.792
L547.927 277.344
L548.597 274.752
L549.266 228.096
L549.936 256.608
L550.606 303.264
L551.275 233.28
L551.945 274.752
L552.614 305.856
L553.284 285.12
L553.954 313.632
L554.623 274.752
L555.293 259.2
L556.632 259.2
L557.302 331.776
L557.971 269.568
L558.641 277.344
L559.31 300.672
L559.98 290.304
L560.65 313.632
L561.319 298.08
L561.989 305.856
L562.658 235.872
L563.328 336.96
L563.998 279.936
L564.667 324
L565.337 282.528
L566.006 331.776
L566.676 259.2
L567.346 261.792
L568.015 300.672
L568.685 269.568
L569.354 295.488
L570.024 329.184
L570.694 336.96
L571.363 355.104
L572.033 347.328
L572.702 311.04
L573.372 300.672
L574.042 347.328
L574.711 339.552
L575.381 342.144
L576.05 381.024
L576.72 344.736
L577.39 329.184
L578.059 365.472
L578.729 352.512
L579.398 336.96
L580.068 349.92
L580.738 344.736
L582.077 318.816
L582.746 375.84
L583.416 365.472
L584.086 362.88
L584.755 321.408
L585.425 360.288
L586.094 329.184
L586.764 383.616
L587.434 355.104
L588.103 349.92
L588.773 355.104
L589.442 331.776
L590.112 342.144
L590.782 334.368
L591.451 342.144
L592.121 365.472
L592.79 316.224
L593.46 331.776
L594.13 352.512
L594.799 336.96
L595.469 352.512
L596.138 357.696
L596.808 401.76
L597.478 362.88
L598.147 373.248
L598.817 339.552
L599.486 368.064
L600.156 378.432
L600.826 365.472
L601.495 347.328
L602.165 383.616
L603.504 342.144
L604.174 368.064
L604.843 349.92
L605.513 383.616
L606.182 391.392
L606.852 370.656
L607.522 373.248
L608.191 391.392
L608.861 432.864
L609.53 396.576
L610.2 399.168
L610.87 383.616
L611.539 381.024
L612.209 391.392
L612.878 432.864
L613.548 404.352
L614.218 388.8
L614.887 399.168
L615.557 417.312
L616.226 396.576
L616.896 435.456
L617.566 412.128
L618.235 422.496
L618.905 406.944
L619.574 422.496
L620.244 417.312
L620.914 414.72
L621.583 419.904
L622.253 391.392
L622.922 409.536
L623.592 435.456
L624.262 419.904
L624.931 396.576
L625.601 409.536
L626.94 370.656
L627.61 399.168
L628.279 396.576
L628.949 391.392
L629.618 419.904
L630.288 409.536
L630.958 409.536
L631.627 419.904
L632.297 427.68
L632.966 417.312
L633.636 422.496
L634.306 386.208
L634.975 432.864
L635.645 432.864
L636.984 401.76
L637.654 406.944
L638.323 396.576
L638.993 409.536
L639.662 414.72
L640.332 396.576
L641.002 419.904
L641.671 409.536
L642.341 438.048
L643.01 427.68
L643.68 438.048
L644.35 435.456
L645.019 435.456
L645.689 425.088
L646.358 419.904
L647.028 427.68
L647.698 456.192
L648.367 430.272
L649.037 440.64
L650.376 440.64
L651.046 443.232
L651.715 414.72
L652.385 440.64
L653.054 435.456
L653.724 453.6
L654.394 451.008
L655.063 484.704
L655.733 489.888
L656.402 482.112
L657.072 476.928
L657.742 487.296
L658.411 461.376
L659.081 466.56
L659.75 461.376
L660.42 479.52
L661.09 474.336
L661.759 463.968
L662.429 471.744
L663.098 474.336
L663.768 479.52
L664.438 497.664
L665.107 500.256
L665.777 484.704
L667.116 474.336
L667.786 487.296
L668.455 476.928
L669.125 500.256
L669.794 497.664
L670.464 479.52
L671.134 492.48
L672.473 482.112
L673.142 497.664
L673.812 505.44
L674.482 489.888
L675.151 495.072
L675.821 469.152
L676.49 484.704
L677.16 479.52
L677.83 476.928
L678.499 508.032
L679.169 482.112
L679.838 474.336
L680.508 482.112
L681.178 474.336
L681.847 489.888
L682.517 479.52
L683.186 466.56
L683.856 466.56
L684.526 471.744
L685.195 495.072
L685.865 482.112
L686.534 476.928
L687.204 453.6
L687.874 479.52
L688.543 487.296
L689.213 469.152
L689.882 484.704
L690.552 482.112
L691.222 474.336
L691.891 487.296
L693.23 497.664
L693.9 508.032
L694.57 492.48
L695.239 492.48
L695.909 471.744
L696.578 484.704
L697.248 484.704
L698.587 505.44
L699.257 489.888
L699.926 513.216
L700.596 502.848
L701.266 495.072
L701.935 500.256
L702.605 500.256
L703.274 505.44
L703.944 497.664
L704.614 515.808
L705.283 520.992
L705.953 513.216
L706.622 513.216
L707.292 528.768
L707.962 536.544
L708.631 533.952
L709.97 539.136
L710.64 531.36
L711.31 526.176
L711.979 523.584
L712.649 528.768
L713.318 536.544
L713.988 528.768
L714.658 528.768
L715.327 526.176
L715.997 513.216
L716.666 533.952
L717.336 533.952
L718.006 528.768
L718.675 536.544
L719.345 533.952
L720.014 533.952
L720.684 528.768
L721.354 533.952
L722.023 544.32
L722.693 539.136
L723.362 526.176
L724.702 515.808
L725.371 531.36
L726.041 531.36
L726.71 528.768
L727.38 546.912
L728.05 539.136
L728.719 526.176
L729.389 531.36
L730.058 541.728
L730.728 536.544
L731.398 541.728
L732.067 541.728
L732.737 549.504
L733.406 546.912
L734.076 533.952
L734.746 549.504
L735.415 539.136
L736.085 536.544
L736.754 536.544
L737.424 526.176
L738.094 528.768
L738.763 526.176
L739.433 520.992
L740.102 536.544
L740.772 526.176
L742.111 552.096
L742.781 549.504
L743.45 539.136
L744.12 544.32
L744.79 533.952
L745.459 536.544
L746.129 533.952
L746.798 528.768
L747.468 533.952
L748.138 528.768
L748.807 536.544
L749.477 539.136
L750.146 526.176
L750.816 523.584
L751.486 523.584
L752.155 520.992
L752.825 531.36
L753.494 536.544
L754.164 536.544
L754.834 533.952
L755.503 536.544
L756.173 541.728
L756.842 549.504
L757.512 549.504
L758.182 557.28
L760.19 557.28
L760.86 554.688
L762.199 559.872
L764.208 552.096
L764.878 554.688
L765.547 559.872
L766.886 559.872
L767.556 557.28
L770.234 567.648
L770.904 567.648
L771.574 562.464
L772.243 570.24
L772.913 572.832
L773.582 570.24
L774.252 565.056
L774.922 570.24
L775.591 570.24
L776.261 565.056
L776.93 565.056
L777.6 570.24
L777.6 570.24" style="fill:none;stroke:#008000;stroke-linecap:square;"/>
   </g>
   <g id="line2d_3">
    <path clip-path="url(#p7ceb695115)" d="
M108 583.2
L123.401 583.2
L124.07 580.608
L124.74 580.608
L125.41 583.2
L147.506 583.2
L148.176 580.608
L152.194 580.608
L152.863 583.2
L155.542 583.2
L156.211 580.608
L156.881 583.2
L169.603 583.2
L170.273 580.608
L170.942 580.608
L171.612 578.016
L172.282 580.608
L173.621 580.608
L174.29 583.2
L178.308 583.2
L178.978 580.608
L185.674 580.608
L186.343 583.2
L191.7 583.2
L192.37 580.608
L196.387 580.608
L197.057 578.016
L203.753 578.016
L205.092 583.2
L216.475 583.2
L217.145 580.608
L225.18 580.608
L225.85 583.2
L251.964 583.2
L252.634 580.608
L266.026 580.608
L266.695 578.016
L271.382 578.016
L272.722 583.2
L274.061 583.2
L274.73 580.608
L275.4 580.608
L276.07 583.2
L279.418 583.2
L280.087 578.016
L284.774 578.016
L285.444 583.2
L297.497 583.2
L298.166 580.608
L300.175 580.608
L300.845 583.2
L360.439 583.2
L361.109 580.608
L361.778 583.2
L446.148 583.2
L446.818 580.608
L447.487 575.424
L448.157 575.424
L448.826 572.832
L449.496 580.608
L450.166 572.832
L450.835 559.872
L451.505 559.872
L452.174 562.464
L452.844 549.504
L453.514 557.28
L454.183 549.504
L454.853 554.688
L455.522 546.912
L456.192 533.952
L456.862 539.136
L457.531 552.096
L458.201 536.544
L458.87 536.544
L459.54 546.912
L460.21 541.728
L460.879 533.952
L461.549 520.992
L462.218 541.728
L462.888 546.912
L463.558 523.584
L464.227 544.32
L464.897 536.544
L465.566 536.544
L466.236 523.584
L466.906 533.952
L467.575 554.688
L468.245 544.32
L468.914 536.544
L469.584 500.256
L470.254 513.216
L470.923 502.848
L471.593 518.4
L472.262 513.216
L472.932 495.072
L473.602 510.624
L474.271 508.032
L474.941 510.624
L475.61 502.848
L476.28 520.992
L476.95 476.928
L477.619 526.176
L478.289 515.808
L478.958 510.624
L479.628 520.992
L480.298 502.848
L480.967 500.256
L481.637 510.624
L482.306 497.664
L482.976 479.52
L483.646 495.072
L484.315 484.704
L484.985 471.744
L485.654 495.072
L486.324 476.928
L486.994 492.48
L487.663 513.216
L488.333 463.968
L489.002 479.52
L489.672 508.032
L490.342 461.376
L491.011 492.48
L491.681 479.52
L492.35 471.744
L493.02 505.44
L493.69 479.52
L494.359 487.296
L495.029 471.744
L495.698 479.52
L496.368 492.48
L497.038 474.336
L497.707 476.928
L498.377 495.072
L499.046 463.968
L499.716 495.072
L500.386 513.216
L501.055 495.072
L501.725 463.968
L502.394 476.928
L503.064 495.072
L503.734 482.112
L504.403 456.192
L505.073 508.032
L505.742 471.744
L506.412 466.56
L507.082 487.296
L507.751 513.216
L508.421 497.664
L509.09 479.52
L509.76 487.296
L510.43 500.256
L511.099 495.072
L511.769 495.072
L512.438 500.256
L513.108 482.112
L513.778 469.152
L514.447 500.256
L515.117 482.112
L515.786 492.48
L516.456 515.808
L517.126 508.032
L517.795 497.664
L518.465 505.44
L519.134 510.624
L519.804 518.4
L520.474 484.704
L521.143 487.296
L521.813 495.072
L522.482 474.336
L523.152 484.704
L523.822 497.664
L524.491 492.48
L525.161 492.48
L525.83 497.664
L526.5 495.072
L527.17 466.56
L527.839 466.56
L528.509 482.112
L529.178 479.52
L529.848 487.296
L530.518 505.44
L531.187 482.112
L531.857 502.848
L532.526 515.808
L533.196 497.664
L533.866 518.4
L534.535 526.176
L535.205 487.296
L535.874 471.744
L536.544 508.032
L537.214 502.848
L537.883 500.256
L538.553 489.888
L539.222 502.848
L539.892 495.072
L540.562 489.888
L541.231 476.928
L541.901 510.624
L542.57 489.888
L543.24 510.624
L543.91 497.664
L544.579 513.216
L545.249 508.032
L545.918 508.032
L546.588 523.584
L547.258 518.4
L547.927 502.848
L548.597 520.992
L549.266 495.072
L549.936 497.664
L550.606 523.584
L551.275 502.848
L551.945 515.808
L552.614 497.664
L553.284 528.768
L553.954 495.072
L555.293 520.992
L555.962 502.848
L556.632 513.216
L557.302 500.256
L557.971 518.4
L558.641 523.584
L559.31 502.848
L559.98 526.176
L560.65 505.44
L561.319 526.176
L561.989 520.992
L562.658 508.032
L563.328 510.624
L564.667 541.728
L565.337 526.176
L566.006 520.992
L566.676 508.032
L567.346 528.768
L568.015 515.808
L568.685 515.808
L569.354 505.44
L570.024 531.36
L570.694 539.136
L571.363 526.176
L572.033 541.728
L572.702 515.808
L573.372 497.664
L574.042 528.768
L574.711 510.624
L575.381 513.216
L576.05 500.256
L576.72 510.624
L577.39 510.624
L578.059 528.768
L578.729 523.584
L579.398 505.44
L580.068 495.072
L580.738 513.216
L581.407 523.584
L582.077 518.4
L582.746 531.36
L583.416 526.176
L584.086 508.032
L584.755 520.992
L585.425 526.176
L586.094 515.808
L586.764 536.544
L587.434 518.4
L588.103 541.728
L588.773 513.216
L589.442 500.256
L590.112 505.44
L590.782 520.992
L591.451 523.584
L592.121 528.768
L592.79 523.584
L593.46 520.992
L594.13 520.992
L594.799 518.4
L595.469 510.624
L596.138 505.44
L596.808 510.624
L597.478 533.952
L598.147 495.072
L598.817 500.256
L599.486 518.4
L600.156 489.888
L600.826 510.624
L601.495 515.808
L602.165 495.072
L602.834 502.848
L603.504 533.952
L604.174 526.176
L604.843 531.36
L605.513 520.992
L606.182 513.216
L606.852 528.768
L607.522 518.4
L608.191 510.624
L608.861 531.36
L609.53 526.176
L610.87 541.728
L611.539 539.136
L612.209 541.728
L612.878 520.992
L613.548 533.952
L614.218 544.32
L614.887 531.36
L615.557 552.096
L616.226 549.504
L616.896 541.728
L617.566 528.768
L618.235 546.912
L619.574 531.36
L620.244 541.728
L620.914 531.36
L621.583 536.544
L622.253 528.768
L622.922 541.728
L623.592 544.32
L624.262 531.36
L624.931 541.728
L625.601 549.504
L626.27 541.728
L626.94 552.096
L627.61 541.728
L628.279 549.504
L628.949 552.096
L629.618 552.096
L630.288 541.728
L630.958 557.28
L631.627 549.504
L632.297 544.32
L632.966 544.32
L633.636 549.504
L634.306 544.32
L634.975 559.872
L635.645 546.912
L636.314 546.912
L636.984 533.952
L637.654 539.136
L638.323 549.504
L638.993 552.096
L639.662 528.768
L640.332 552.096
L641.002 533.952
L641.671 544.32
L642.341 544.32
L643.01 541.728
L643.68 552.096
L644.35 554.688
L645.019 559.872
L645.689 554.688
L646.358 565.056
L647.028 570.24
L647.698 557.28
L648.367 552.096
L649.037 557.28
L649.706 549.504
L650.376 554.688
L651.046 546.912
L651.715 554.688
L653.054 549.504
L653.724 554.688
L654.394 554.688
L655.063 549.504
L655.733 552.096
L656.402 544.32
L657.072 539.136
L657.742 546.912
L658.411 544.32
L659.081 546.912
L659.75 552.096
L660.42 546.912
L661.09 544.32
L661.759 536.544
L662.429 552.096
L663.098 536.544
L663.768 526.176
L664.438 520.992
L665.107 539.136
L665.777 531.36
L666.446 544.32
L667.116 533.952
L667.786 539.136
L668.455 554.688
L669.125 539.136
L670.464 549.504
L671.134 557.28
L671.803 546.912
L672.473 559.872
L673.812 544.32
L674.482 559.872
L675.151 554.688
L675.821 546.912
L676.49 544.32
L677.16 559.872
L677.83 562.464
L678.499 552.096
L679.169 552.096
L679.838 557.28
L681.178 557.28
L681.847 544.32
L683.186 549.504
L683.856 557.28
L684.526 554.688
L685.195 554.688
L685.865 552.096
L686.534 541.728
L687.204 546.912
L687.874 559.872
L688.543 565.056
L689.213 562.464
L689.882 572.832
L690.552 554.688
L691.222 567.648
L691.891 559.872
L693.23 559.872
L693.9 562.464
L694.57 554.688
L695.239 572.832
L695.909 559.872
L696.578 554.688
L697.248 565.056
L697.918 562.464
L699.257 562.464
L699.926 570.24
L700.596 567.648
L701.266 572.832
L701.935 580.608
L702.605 572.832
L703.274 570.24
L703.944 570.24
L704.614 562.464
L705.283 570.24
L705.953 562.464
L706.622 565.056
L707.292 565.056
L707.962 567.648
L708.631 557.28
L709.301 567.648
L709.97 570.24
L710.64 567.648
L711.31 562.464
L711.979 562.464
L712.649 565.056
L713.318 562.464
L713.988 565.056
L714.658 565.056
L715.327 562.464
L715.997 570.24
L716.666 570.24
L717.336 578.016
L718.006 570.24
L718.675 580.608
L720.014 575.424
L720.684 570.24
L721.354 572.832
L722.023 570.24
L722.693 572.832
L723.362 567.648
L724.032 567.648
L724.702 570.24
L725.371 562.464
L726.041 565.056
L726.71 562.464
L728.05 562.464
L728.719 570.24
L729.389 575.424
L730.728 580.608
L731.398 575.424
L732.067 567.648
L732.737 572.832
L733.406 570.24
L734.076 570.24
L734.746 565.056
L735.415 567.648
L736.085 572.832
L736.754 567.648
L737.424 565.056
L738.094 565.056
L738.763 567.648
L739.433 565.056
L740.102 567.648
L740.772 567.648
L742.111 572.832
L742.781 578.016
L743.45 570.24
L744.12 575.424
L745.459 575.424
L746.798 580.608
L747.468 578.016
L748.138 578.016
L748.807 575.424
L749.477 575.424
L750.146 578.016
L750.816 575.424
L751.486 575.424
L752.155 570.24
L752.825 572.832
L753.494 578.016
L754.164 575.424
L754.834 575.424
L755.503 572.832
L756.173 575.424
L756.842 580.608
L757.512 580.608
L758.182 583.2
L758.851 583.2
L759.521 580.608
L760.19 580.608
L760.86 578.016
L761.53 580.608
L762.869 580.608
L763.538 578.016
L764.208 580.608
L764.878 575.424
L765.547 578.016
L766.217 572.832
L766.886 575.424
L768.895 575.424
L769.565 580.608
L771.574 580.608
L772.243 583.2
L777.6 583.2
L777.6 583.2" style="fill:none;stroke:#0000ff;stroke-linecap:square;"/>
   </g>
   <g id="patch_3">
    <path d="
M108 64.8
L777.6 64.8" style="fill:none;stroke:#000000;stroke-linecap:square;stroke-linejoin:miter;"/>
   </g>
   <g id="patch_4">
    <path d="
M108 583.2
L108 64.8" style="fill:none;stroke:#000000;stroke-linecap:square;stroke-linejoin:miter;"/>
   </g>
   <g id="patch_5">
    <path d="
M777.6 583.2
L777.6 64.8" style="fill:none;stroke:#000000;stroke-linecap:square;stroke-linejoin:miter;"/>
   </g>
   <g id="patch_6">
    <path d="
M108 583.2
L777.6 583.2" style="fill:none;stroke:#000000;stroke-linecap:square;stroke-linejoin:miter;"/>
   </g>
   <g id="matplotlib.axis_1">
    <g id="xtick_1">
     <g id="line2d_4">
      <defs>
       <path d="
M0 0
L0 -4" id="mc7db9fdffb" style="stroke:#000000;stroke-width:0.5;"/>
      </defs>
      <g>
       <use style="stroke:#000000;stroke-width:0.5;" x="108.0" xlink:href="#mc7db9fdffb" y="583.2"/>
      </g>
     </g>
     <g id="line2d_5">
      <defs>
       <path d="
M0 0
L0 4" id="m5a7d422ac3" style="stroke:#000000;stroke-width:0.5;"/>
      </defs>
      <g>
       <use style="stroke:#000000;stroke-width:0.5;" x="108.0" xlink:href="#m5a7d422ac3" y="64.8"/>
      </g>
     </g>
     <g id="text_1">
      <!-- 0 -->
      <defs>
       <path d="
M31.7812 66.4062
Q24.1719 66.4062 20.3281 58.9062
Q16.5 51.4219 16.5 36.375
Q16.5 21.3906 20.3281 13.8906
Q24.1719 6.39062 31.7812 6.39062
Q39.4531 6.39062 43.2812 13.8906
Q47.125 21.3906 47.125 36.375
Q47.125 51.4219 43.2812 58.9062
Q39.4531 66.4062 31.7812 66.4062
M31.7812 74.2188
Q44.0469 74.2188 50.5156 64.5156
Q56.9844 54.8281 56.9844 36.375
Q56.9844 17.9688 50.5156 8.26562
Q44.0469 -1.42188 31.7812 -1.42188
Q19.5312 -1.42188 13.0625 8.26562
Q6.59375 17.9688 6.59375 36.375
Q6.59375 54.8281 13.0625 64.5156
Q19.5312 74.2188 31.7812 74.2188" id="BitstreamVeraSans-Roman-30"/>
      </defs>
      <g transform="translate(104.9765625 596.318125)scale(0.12 -0.12)">
       <use xlink:href="#BitstreamVeraSans-Roman-30"/>
      </g>
     </g>
    </g>
    <g id="xtick_2">
     <g id="line2d_6">
      <g>
       <use style="stroke:#000000;stroke-width:0.5;" x="275.4" xlink:href="#mc7db9fdffb" y="583.2"/>
      </g>
     </g>
     <g id="line2d_7">
      <g>
       <use style="stroke:#000000;stroke-width:0.5;" x="275.4" xlink:href="#m5a7d422ac3" y="64.8"/>
      </g>
     </g>
     <g id="text_2">
      <!-- 50000 -->
      <defs>
       <path d="
M10.7969 72.9062
L49.5156 72.9062
L49.5156 64.5938
L19.8281 64.5938
L19.8281 46.7344
Q21.9688 47.4688 24.1094 47.8281
Q26.2656 48.1875 28.4219 48.1875
Q40.625 48.1875 47.75 41.5
Q54.8906 34.8125 54.8906 23.3906
Q54.8906 11.625 47.5625 5.09375
Q40.2344 -1.42188 26.9062 -1.42188
Q22.3125 -1.42188 17.5469 -0.640625
Q12.7969 0.140625 7.71875 1.70312
L7.71875 11.625
Q12.1094 9.23438 16.7969 8.0625
Q21.4844 6.89062 26.7031 6.89062
Q35.1562 6.89062 40.0781 11.3281
Q45.0156 15.7656 45.0156 23.3906
Q45.0156 31 40.0781 35.4375
Q35.1562 39.8906 26.7031 39.8906
Q22.75 39.8906 18.8125 39.0156
Q14.8906 38.1406 10.7969 36.2812
z
" id="BitstreamVeraSans-Roman-35"/>
      </defs>
      <g transform="translate(257.1740625 596.318125)scale(0.12 -0.12)">
       <use xlink:href="#BitstreamVeraSans-Roman-35"/>
       <use x="63.623046875" xlink:href="#BitstreamVeraSans-Roman-30"/>
       <use x="127.24609375" xlink:href="#BitstreamVeraSans-Roman-30"/>
       <use x="190.869140625" xlink:href="#BitstreamVeraSans-Roman-30"/>
       <use x="254.4921875" xlink:href="#BitstreamVeraSans-Roman-30"/>
      </g>
     </g>
    </g>
    <g id="xtick_3">
     <g id="line2d_8">
      <g>
       <use style="stroke:#000000;stroke-width:0.5;" x="442.8" xlink:href="#mc7db9fdffb" y="583.2"/>
      </g>
     </g>
     <g id="line2d_9">
      <g>
       <use style="stroke:#000000;stroke-width:0.5;" x="442.8" xlink:href="#m5a7d422ac3" y="64.8"/>
      </g>
     </g>
     <g id="text_3">
      <!-- 100000 -->
      <defs>
       <path d="
M12.4062 8.29688
L28.5156 8.29688
L28.5156 63.9219
L10.9844 60.4062
L10.9844 69.3906
L28.4219 72.9062
L38.2812 72.9062
L38.2812 8.29688
L54.3906 8.29688
L54.3906 0
L12.4062 0
z
" id="BitstreamVeraSans-Roman-31"/>
      </defs>
      <g transform="translate(420.9525 596.318125)scale(0.12 -0.12)">
       <use xlink:href="#BitstreamVeraSans-Roman-31"/>
       <use x="63.623046875" xlink:href="#BitstreamVeraSans-Roman-30"/>
       <use x="127.24609375" xlink:href="#BitstreamVeraSans-Roman-30"/>
       <use x="190.869140625" xlink:href="#BitstreamVeraSans-Roman-30"/>
       <use x="254.4921875" xlink:href="#BitstreamVeraSans-Roman-30"/>
       <use x="318.115234375" xlink:href="#BitstreamVeraSans-Roman-30"/>
      </g>
     </g>
    </g>
    <g id="xtick_4">
     <g id="line2d_10">
      <g>
       <use style="stroke:#000000;stroke-width:0.5;" x="610.2" xlink:href="#mc7db9fdffb" y="583.2"/>
      </g>
     </g>
     <g id="line2d_11">
      <g>
       <use style="stroke:#000000;stroke-width:0.5;" x="610.2" xlink:href="#m5a7d422ac3" y="64.8"/>
      </g>
     </g>
     <g id="text_4">
      <!-- 150000 -->
      <g transform="translate(588.3525 596.318125)scale(0.12 -0.12)">
       <use xlink:href="#BitstreamVeraSans-Roman-31"/>
       <use x="63.623046875" xlink:href="#BitstreamVeraSans-Roman-35"/>
       <use x="127.24609375" xlink:href="#BitstreamVeraSans-Roman-30"/>
       <use x="190.869140625" xlink:href="#BitstreamVeraSans-Roman-30"/>
       <use x="254.4921875" xlink:href="#BitstreamVeraSans-Roman-30"/>
       <use x="318.115234375" xlink:href="#BitstreamVeraSans-Roman-30"/>
      </g>
     </g>
    </g>
    <g id="xtick_5">
     <g id="line2d_12">
      <g>
       <use style="stroke:#000000;stroke-width:0.5;" x="777.6" xlink:href="#mc7db9fdffb" y="583.2"/>
      </g>
     </g>
     <g id="line2d_13">
      <g>
       <use style="stroke:#000000;stroke-width:0.5;" x="777.6" xlink:href="#m5a7d422ac3" y="64.8"/>
      </g>
     </g>
     <g id="text_5">
      <!-- 200000 -->
      <defs>
       <path d="
M19.1875 8.29688
L53.6094 8.29688
L53.6094 0
L7.32812 0
L7.32812 8.29688
Q12.9375 14.1094 22.625 23.8906
Q32.3281 33.6875 34.8125 36.5312
Q39.5469 41.8438 41.4219 45.5312
Q43.3125 49.2188 43.3125 52.7812
Q43.3125 58.5938 39.2344 62.25
Q35.1562 65.9219 28.6094 65.9219
Q23.9688 65.9219 18.8125 64.3125
Q13.6719 62.7031 7.8125 59.4219
L7.8125 69.3906
Q13.7656 71.7812 18.9375 73
Q24.125 74.2188 28.4219 74.2188
Q39.75 74.2188 46.4844 68.5469
Q53.2188 62.8906 53.2188 53.4219
Q53.2188 48.9219 51.5312 44.8906
Q49.8594 40.875 45.4062 35.4062
Q44.1875 33.9844 37.6406 27.2188
Q31.1094 20.4531 19.1875 8.29688" id="BitstreamVeraSans-Roman-32"/>
      </defs>
      <g transform="translate(755.533125 596.318125)scale(0.12 -0.12)">
       <use xlink:href="#BitstreamVeraSans-Roman-32"/>
       <use x="63.623046875" xlink:href="#BitstreamVeraSans-Roman-30"/>
       <use x="127.24609375" xlink:href="#BitstreamVeraSans-Roman-30"/>
       <use x="190.869140625" xlink:href="#BitstreamVeraSans-Roman-30"/>
       <use x="254.4921875" xlink:href="#BitstreamVeraSans-Roman-30"/>
       <use x="318.115234375" xlink:href="#BitstreamVeraSans-Roman-30"/>
      </g>
     </g>
    </g>
    <g id="text_6">
     <!-- t / ms -->
     <defs>
      <path id="BitstreamVeraSans-Roman-20"/>
      <path d="
M25.3906 72.9062
L33.6875 72.9062
L8.29688 -9.28125
L0 -9.28125
z
" id="BitstreamVeraSans-Roman-2f"/>
      <path d="
M52 44.1875
Q55.375 50.25 60.0625 53.125
Q64.75 56 71.0938 56
Q79.6406 56 84.2812 50.0156
Q88.9219 44.0469 88.9219 33.0156
L88.9219 0
L79.8906 0
L79.8906 32.7188
Q79.8906 40.5781 77.0938 44.375
Q74.3125 48.1875 68.6094 48.1875
Q61.625 48.1875 57.5625 43.5469
Q53.5156 38.9219 53.5156 30.9062
L53.5156 0
L44.4844 0
L44.4844 32.7188
Q44.4844 40.625 41.7031 44.4062
Q38.9219 48.1875 33.1094 48.1875
Q26.2188 48.1875 22.1562 43.5312
Q18.1094 38.875 18.1094 30.9062
L18.1094 0
L9.07812 0
L9.07812 54.6875
L18.1094 54.6875
L18.1094 46.1875
Q21.1875 51.2188 25.4844 53.6094
Q29.7812 56 35.6875 56
Q41.6562 56 45.8281 52.9688
Q50 49.9531 52 44.1875" id="BitstreamVeraSans-Roman-6d"/>
      <path d="
M18.3125 70.2188
L18.3125 54.6875
L36.8125 54.6875
L36.8125 47.7031
L18.3125 47.7031
L18.3125 18.0156
Q18.3125 11.3281 20.1406 9.42188
Q21.9688 7.51562 27.5938 7.51562
L36.8125 7.51562
L36.8125 0
L27.5938 0
Q17.1875 0 13.2344 3.875
Q9.28125 7.76562 9.28125 18.0156
L9.28125 47.7031
L2.6875 47.7031
L2.6875 54.6875
L9.28125 54.6875
L9.28125 70.2188
z
" id="BitstreamVeraSans-Roman-74"/>
      <path d="
M44.2812 53.0781
L44.2812 44.5781
Q40.4844 46.5312 36.375 47.5
Q32.2812 48.4844 27.875 48.4844
Q21.1875 48.4844 17.8438 46.4375
Q14.5 44.3906 14.5 40.2812
Q14.5 37.1562 16.8906 35.375
Q19.2812 33.5938 26.5156 31.9844
L29.5938 31.2969
Q39.1562 29.25 43.1875 25.5156
Q47.2188 21.7812 47.2188 15.0938
Q47.2188 7.46875 41.1875 3.01562
Q35.1562 -1.42188 24.6094 -1.42188
Q20.2188 -1.42188 15.4531 -0.5625
Q10.6875 0.296875 5.42188 2
L5.42188 11.2812
Q10.4062 8.6875 15.2344 7.39062
Q20.0625 6.10938 24.8125 6.10938
Q31.1562 6.10938 34.5625 8.28125
Q37.9844 10.4531 37.9844 14.4062
Q37.9844 18.0625 35.5156 20.0156
Q33.0625 21.9688 24.7031 23.7812
L21.5781 24.5156
Q13.2344 26.2656 9.51562 29.9062
Q5.8125 33.5469 5.8125 39.8906
Q5.8125 47.6094 11.2812 51.7969
Q16.75 56 26.8125 56
Q31.7812 56 36.1719 55.2656
Q40.5781 54.5469 44.2812 53.0781" id="BitstreamVeraSans-Roman-73"/>
     </defs>
     <g transform="translate(425.9353125 612.931875)scale(0.12 -0.12)">
      <use xlink:href="#BitstreamVeraSans-Roman-74"/>
      <use x="39.208984375" xlink:href="#BitstreamVeraSans-Roman-20"/>
      <use x="70.99609375" xlink:href="#BitstreamVeraSans-Roman-2f"/>
      <use x="104.6875" xlink:href="#BitstreamVeraSans-Roman-20"/>
      <use x="136.474609375" xlink:href="#BitstreamVeraSans-Roman-6d"/>
      <use x="233.88671875" xlink:href="#BitstreamVeraSans-Roman-73"/>
     </g>
    </g>
   </g>
   <g id="matplotlib.axis_2">
    <g id="ytick_1">
     <g id="line2d_14">
      <defs>
       <path d="
M0 0
L4 0" id="md7965d1ba0" style="stroke:#000000;stroke-width:0.5;"/>
      </defs>
      <g>
       <use style="stroke:#000000;stroke-width:0.5;" x="108.0" xlink:href="#md7965d1ba0" y="583.2"/>
      </g>
     </g>
     <g id="line2d_15">
      <defs>
       <path d="
M0 0
L-4 0" id="md9a1c1a7cd" style="stroke:#000000;stroke-width:0.5;"/>
      </defs>
      <g>
       <use style="stroke:#000000;stroke-width:0.5;" x="777.6" xlink:href="#md9a1c1a7cd" y="583.2"/>
      </g>
     </g>
     <g id="text_7">
      <!-- 0 -->
      <g transform="translate(97.953125 586.51125)scale(0.12 -0.12)">
       <use xlink:href="#BitstreamVeraSans-Roman-30"/>
      </g>
     </g>
    </g>
    <g id="ytick_2">
     <g id="line2d_16">
      <g>
       <use style="stroke:#000000;stroke-width:0.5;" x="108.0" xlink:href="#md7965d1ba0" y="453.6"/>
      </g>
     </g>
     <g id="line2d_17">
      <g>
       <use style="stroke:#000000;stroke-width:0.5;" x="777.6" xlink:href="#md9a1c1a7cd" y="453.6"/>
      </g>
     </g>
     <g id="text_8">
      <!-- 50 -->
      <g transform="translate(90.453125 456.91125)scale(0.12 -0.12)">
       <use xlink:href="#BitstreamVeraSans-Roman-35"/>
       <use x="63.623046875" xlink:href="#BitstreamVeraSans-Roman-30"/>
      </g>
     </g>
    </g>
    <g id="ytick_3">
     <g id="line2d_18">
      <g>
       <use style="stroke:#000000;stroke-width:0.5;" x="108.0" xlink:href="#md7965d1ba0" y="324.0"/>
      </g>
     </g>
     <g id="line2d_19">
      <g>
       <use style="stroke:#000000;stroke-width:0.5;" x="777.6" xlink:href="#md9a1c1a7cd" y="324.0"/>
      </g>
     </g>
     <g id="text_9">
      <!-- 100 -->
      <g transform="translate(83.21 327.31125)scale(0.12 -0.12)">
       <use xlink:href="#BitstreamVeraSans-Roman-31"/>
       <use x="63.623046875" xlink:href="#BitstreamVeraSans-Roman-30"/>
       <use x="127.24609375" xlink:href="#BitstreamVeraSans-Roman-30"/>
      </g>
     </g>
    </g>
    <g id="ytick_4">
     <g id="line2d_20">
      <g>
       <use style="stroke:#000000;stroke-width:0.5;" x="108.0" xlink:href="#md7965d1ba0" y="194.4"/>
      </g>
     </g>
     <g id="line2d_21">
      <g>
       <use style="stroke:#000000;stroke-width:0.5;" x="777.6" xlink:href="#md9a1c1a7cd" y="194.4"/>
      </g>
     </g>
     <g id="text_10">
      <!-- 150 -->
      <g transform="translate(83.21 197.71125)scale(0.12 -0.12)">
       <use xlink:href="#BitstreamVeraSans-Roman-31"/>
       <use x="63.623046875" xlink:href="#BitstreamVeraSans-Roman-35"/>
       <use x="127.24609375" xlink:href="#BitstreamVeraSans-Roman-30"/>
      </g>
     </g>
    </g>
    <g id="ytick_5">
     <g id="line2d_22">
      <g>
       <use style="stroke:#000000;stroke-width:0.5;" x="108.0" xlink:href="#md7965d1ba0" y="64.8"/>
      </g>
     </g>
     <g id="line2d_23">
      <g>
       <use style="stroke:#000000;stroke-width:0.5;" x="777.6" xlink:href="#md9a1c1a7cd" y="64.8"/>
      </g>
     </g>
     <g id="text_11">
      <!-- 200 -->
      <g transform="translate(82.77125 68.11125)scale(0.12 -0.12)">
       <use xlink:href="#BitstreamVeraSans-Roman-32"/>
       <use x="63.623046875" xlink:href="#BitstreamVeraSans-Roman-30"/>
       <use x="127.24609375" xlink:href="#BitstreamVeraSans-Roman-30"/>
      </g>
     </g>
    </g>
    <g id="text_12">
     <!-- particle numbers -->
     <defs>
      <path d="
M9.42188 54.6875
L18.4062 54.6875
L18.4062 0
L9.42188 0
z

M9.42188 75.9844
L18.4062 75.9844
L18.4062 64.5938
L9.42188 64.5938
z
" id="BitstreamVeraSans-Roman-69"/>
      <path d="
M48.6875 27.2969
Q48.6875 37.2031 44.6094 42.8438
Q40.5312 48.4844 33.4062 48.4844
Q26.2656 48.4844 22.1875 42.8438
Q18.1094 37.2031 18.1094 27.2969
Q18.1094 17.3906 22.1875 11.75
Q26.2656 6.10938 33.4062 6.10938
Q40.5312 6.10938 44.6094 11.75
Q48.6875 17.3906 48.6875 27.2969
M18.1094 46.3906
Q20.9531 51.2656 25.2656 53.625
Q29.5938 56 35.5938 56
Q45.5625 56 51.7812 48.0938
Q58.0156 40.1875 58.0156 27.2969
Q58.0156 14.4062 51.7812 6.48438
Q45.5625 -1.42188 35.5938 -1.42188
Q29.5938 -1.42188 25.2656 0.953125
Q20.9531 3.32812 18.1094 8.20312
L18.1094 0
L9.07812 0
L9.07812 75.9844
L18.1094 75.9844
z
" id="BitstreamVeraSans-Roman-62"/>
      <path d="
M9.42188 75.9844
L18.4062 75.9844
L18.4062 0
L9.42188 0
z
" id="BitstreamVeraSans-Roman-6c"/>
      <path d="
M56.2031 29.5938
L56.2031 25.2031
L14.8906 25.2031
Q15.4844 15.9219 20.4844 11.0625
Q25.4844 6.20312 34.4219 6.20312
Q39.5938 6.20312 44.4531 7.46875
Q49.3125 8.73438 54.1094 11.2812
L54.1094 2.78125
Q49.2656 0.734375 44.1875 -0.34375
Q39.1094 -1.42188 33.8906 -1.42188
Q20.7969 -1.42188 13.1562 6.1875
Q5.51562 13.8125 5.51562 26.8125
Q5.51562 40.2344 12.7656 48.1094
Q20.0156 56 32.3281 56
Q43.3594 56 49.7812 48.8906
Q56.2031 41.7969 56.2031 29.5938
M47.2188 32.2344
Q47.125 39.5938 43.0938 43.9844
Q39.0625 48.3906 32.4219 48.3906
Q24.9062 48.3906 20.3906 44.1406
Q15.875 39.8906 15.1875 32.1719
z
" id="BitstreamVeraSans-Roman-65"/>
      <path d="
M48.7812 52.5938
L48.7812 44.1875
Q44.9688 46.2969 41.1406 47.3438
Q37.3125 48.3906 33.4062 48.3906
Q24.6562 48.3906 19.8125 42.8438
Q14.9844 37.3125 14.9844 27.2969
Q14.9844 17.2812 19.8125 11.7344
Q24.6562 6.20312 33.4062 6.20312
Q37.3125 6.20312 41.1406 7.25
Q44.9688 8.29688 48.7812 10.4062
L48.7812 2.09375
Q45.0156 0.34375 40.9844 -0.53125
Q36.9688 -1.42188 32.4219 -1.42188
Q20.0625 -1.42188 12.7812 6.34375
Q5.51562 14.1094 5.51562 27.2969
Q5.51562 40.6719 12.8594 48.3281
Q20.2188 56 33.0156 56
Q37.1562 56 41.1094 55.1406
Q45.0625 54.2969 48.7812 52.5938" id="BitstreamVeraSans-Roman-63"/>
      <path d="
M54.8906 33.0156
L54.8906 0
L45.9062 0
L45.9062 32.7188
Q45.9062 40.4844 42.875 44.3281
Q39.8438 48.1875 33.7969 48.1875
Q26.5156 48.1875 22.3125 43.5469
Q18.1094 38.9219 18.1094 30.9062
L18.1094 0
L9.07812 0
L9.07812 54.6875
L18.1094 54.6875
L18.1094 46.1875
Q21.3438 51.125 25.7031 53.5625
Q30.0781 56 35.7969 56
Q45.2188 56 50.0469 50.1719
Q54.8906 44.3438 54.8906 33.0156" id="BitstreamVeraSans-Roman-6e"/>
      <path d="
M8.5 21.5781
L8.5 54.6875
L17.4844 54.6875
L17.4844 21.9219
Q17.4844 14.1562 20.5 10.2656
Q23.5312 6.39062 29.5938 6.39062
Q36.8594 6.39062 41.0781 11.0312
Q45.3125 15.6719 45.3125 23.6875
L45.3125 54.6875
L54.2969 54.6875
L54.2969 0
L45.3125 0
L45.3125 8.40625
Q42.0469 3.42188 37.7188 1
Q33.4062 -1.42188 27.6875 -1.42188
Q18.2656 -1.42188 13.375 4.4375
Q8.5 10.2969 8.5 21.5781" id="BitstreamVeraSans-Roman-75"/>
      <path d="
M34.2812 27.4844
Q23.3906 27.4844 19.1875 25
Q14.9844 22.5156 14.9844 16.5
Q14.9844 11.7188 18.1406 8.90625
Q21.2969 6.10938 26.7031 6.10938
Q34.1875 6.10938 38.7031 11.4062
Q43.2188 16.7031 43.2188 25.4844
L43.2188 27.4844
z

M52.2031 31.2031
L52.2031 0
L43.2188 0
L43.2188 8.29688
Q40.1406 3.32812 35.5469 0.953125
Q30.9531 -1.42188 24.3125 -1.42188
Q15.9219 -1.42188 10.9531 3.29688
Q6 8.01562 6 15.9219
Q6 25.1406 12.1719 29.8281
Q18.3594 34.5156 30.6094 34.5156
L43.2188 34.5156
L43.2188 35.4062
Q43.2188 41.6094 39.1406 45
Q35.0625 48.3906 27.6875 48.3906
Q23 48.3906 18.5469 47.2656
Q14.1094 46.1406 10.0156 43.8906
L10.0156 52.2031
Q14.9375 54.1094 19.5781 55.0469
Q24.2188 56 28.6094 56
Q40.4844 56 46.3438 49.8438
Q52.2031 43.7031 52.2031 31.2031" id="BitstreamVeraSans-Roman-61"/>
      <path d="
M18.1094 8.20312
L18.1094 -20.7969
L9.07812 -20.7969
L9.07812 54.6875
L18.1094 54.6875
L18.1094 46.3906
Q20.9531 51.2656 25.2656 53.625
Q29.5938 56 35.5938 56
Q45.5625 56 51.7812 48.0938
Q58.0156 40.1875 58.0156 27.2969
Q58.0156 14.4062 51.7812 6.48438
Q45.5625 -1.42188 35.5938 -1.42188
Q29.5938 -1.42188 25.2656 0.953125
Q20.9531 3.32812 18.1094 8.20312
M48.6875 27.2969
Q48.6875 37.2031 44.6094 42.8438
Q40.5312 48.4844 33.4062 48.4844
Q26.2656 48.4844 22.1875 42.8438
Q18.1094 37.2031 18.1094 27.2969
Q18.1094 17.3906 22.1875 11.75
Q26.2656 6.10938 33.4062 6.10938
Q40.5312 6.10938 44.6094 11.75
Q48.6875 17.3906 48.6875 27.2969" id="BitstreamVeraSans-Roman-70"/>
      <path d="
M41.1094 46.2969
Q39.5938 47.1719 37.8125 47.5781
Q36.0312 48 33.8906 48
Q26.2656 48 22.1875 43.0469
Q18.1094 38.0938 18.1094 28.8125
L18.1094 0
L9.07812 0
L9.07812 54.6875
L18.1094 54.6875
L18.1094 46.1875
Q20.9531 51.1719 25.4844 53.5781
Q30.0312 56 36.5312 56
Q37.4531 56 38.5781 55.875
Q39.7031 55.7656 41.0625 55.5156
z
" id="BitstreamVeraSans-Roman-72"/>
     </defs>
     <g transform="translate(75.275625 374.78625)rotate(-90.0)scale(0.12 -0.12)">
      <use xlink:href="#BitstreamVeraSans-Roman-70"/>
      <use x="63.4765625" xlink:href="#BitstreamVeraSans-Roman-61"/>
      <use x="124.755859375" xlink:href="#BitstreamVeraSans-Roman-72"/>
      <use x="165.869140625" xlink:href="#BitstreamVeraSans-Roman-74"/>
      <use x="205.078125" xlink:href="#BitstreamVeraSans-Roman-69"/>
      <use x="232.861328125" xlink:href="#BitstreamVeraSans-Roman-63"/>
      <use x="287.841796875" xlink:href="#BitstreamVeraSans-Roman-6c"/>
      <use x="315.625" xlink:href="#BitstreamVeraSans-Roman-65"/>
      <use x="377.1484375" xlink:href="#BitstreamVeraSans-Roman-20"/>
      <use x="408.935546875" xlink:href="#BitstreamVeraSans-Roman-6e"/>
      <use x="472.314453125" xlink:href="#BitstreamVeraSans-Roman-75"/>
      <use x="535.693359375" xlink:href="#BitstreamVeraSans-Roman-6d"/>
      <use x="633.10546875" xlink:href="#BitstreamVeraSans-Roman-62"/>
      <use x="696.58203125" xlink:href="#BitstreamVeraSans-Roman-65"/>
      <use x="758.10546875" xlink:href="#BitstreamVeraSans-Roman-72"/>
      <use x="799.21875" xlink:href="#BitstreamVeraSans-Roman-73"/>
     </g>
    </g>
   </g>
   <g id="legend_1">
    <g id="patch_7">
     <path d="
M696.824 101.224
L774.1 101.224
L774.1 68.3
L696.824 68.3
z
" style="fill:#ffffff;stroke:#000000;stroke-linejoin:miter;"/>
    </g>
    <g id="line2d_24">
     <path d="
M701.724 73.9689
L711.524 73.9689" style="fill:none;stroke:#ff0000;stroke-linecap:square;"/>
    </g>
    <g id="line2d_25"/>
    <g id="text_13">
     <!-- PDE2cAMP el.0 -->
     <defs>
      <path d="
M9.8125 72.9062
L24.5156 72.9062
L43.1094 23.2969
L61.8125 72.9062
L76.5156 72.9062
L76.5156 0
L66.8906 0
L66.8906 64.0156
L48.0938 14.0156
L38.1875 14.0156
L19.3906 64.0156
L19.3906 0
L9.8125 0
z
" id="BitstreamVeraSans-Roman-4d"/>
      <path d="
M19.6719 64.7969
L19.6719 37.4062
L32.0781 37.4062
Q38.9688 37.4062 42.7188 40.9688
Q46.4844 44.5312 46.4844 51.125
Q46.4844 57.6719 42.7188 61.2344
Q38.9688 64.7969 32.0781 64.7969
z

M9.8125 72.9062
L32.0781 72.9062
Q44.3438 72.9062 50.6094 67.3594
Q56.8906 61.8125 56.8906 51.125
Q56.8906 40.3281 50.6094 34.8125
Q44.3438 29.2969 32.0781 29.2969
L19.6719 29.2969
L19.6719 0
L9.8125 0
z
" id="BitstreamVeraSans-Roman-50"/>
      <path d="
M9.8125 72.9062
L55.9062 72.9062
L55.9062 64.5938
L19.6719 64.5938
L19.6719 43.0156
L54.3906 43.0156
L54.3906 34.7188
L19.6719 34.7188
L19.6719 8.29688
L56.7812 8.29688
L56.7812 0
L9.8125 0
z
" id="BitstreamVeraSans-Roman-45"/>
      <path d="
M10.6875 12.4062
L21 12.4062
L21 0
L10.6875 0
z
" id="BitstreamVeraSans-Roman-2e"/>
      <path d="
M19.6719 64.7969
L19.6719 8.10938
L31.5938 8.10938
Q46.6875 8.10938 53.6875 14.9375
Q60.6875 21.7812 60.6875 36.5312
Q60.6875 51.1719 53.6875 57.9844
Q46.6875 64.7969 31.5938 64.7969
z

M9.8125 72.9062
L30.0781 72.9062
Q51.2656 72.9062 61.1719 64.0938
Q71.0938 55.2812 71.0938 36.5312
Q71.0938 17.6719 61.125 8.82812
Q51.1719 0 30.0781 0
L9.8125 0
z
" id="BitstreamVeraSans-Roman-44"/>
      <path d="
M34.1875 63.1875
L20.7969 26.9062
L47.6094 26.9062
z

M28.6094 72.9062
L39.7969 72.9062
L67.5781 0
L57.3281 0
L50.6875 18.7031
L17.8281 18.7031
L11.1875 0
L0.78125 0
z
" id="BitstreamVeraSans-Roman-41"/>
     </defs>
     <g transform="translate(719.224375 76.41890625)scale(0.07 -0.07)">
      <use xlink:href="#BitstreamVeraSans-Roman-50"/>
      <use x="60.302734375" xlink:href="#BitstreamVeraSans-Roman-44"/>
      <use x="137.3046875" xlink:href="#BitstreamVeraSans-Roman-45"/>
      <use x="200.48828125" xlink:href="#BitstreamVeraSans-Roman-32"/>
      <use x="264.111328125" xlink:href="#BitstreamVeraSans-Roman-63"/>
      <use x="319.091796875" xlink:href="#BitstreamVeraSans-Roman-41"/>
      <use x="387.5" xlink:href="#BitstreamVeraSans-Roman-4d"/>
      <use x="473.779296875" xlink:href="#BitstreamVeraSans-Roman-50"/>
      <use x="534.08203125" xlink:href="#BitstreamVeraSans-Roman-20"/>
      <use x="565.869140625" xlink:href="#BitstreamVeraSans-Roman-65"/>
      <use x="627.392578125" xlink:href="#BitstreamVeraSans-Roman-6c"/>
      <use x="655.17578125" xlink:href="#BitstreamVeraSans-Roman-2e"/>
      <use x="686.962890625" xlink:href="#BitstreamVeraSans-Roman-30"/>
     </g>
    </g>
    <g id="line2d_26">
     <path d="
M701.724 84.2436
L711.524 84.2436" style="fill:none;stroke:#008000;stroke-linecap:square;"/>
    </g>
    <g id="line2d_27"/>
    <g id="text_14">
     <!-- PDE2cAMP el.1 -->
     <g transform="translate(719.224375 86.69359375)scale(0.07 -0.07)">
      <use xlink:href="#BitstreamVeraSans-Roman-50"/>
      <use x="60.302734375" xlink:href="#BitstreamVeraSans-Roman-44"/>
      <use x="137.3046875" xlink:href="#BitstreamVeraSans-Roman-45"/>
      <use x="200.48828125" xlink:href="#BitstreamVeraSans-Roman-32"/>
      <use x="264.111328125" xlink:href="#BitstreamVeraSans-Roman-63"/>
      <use x="319.091796875" xlink:href="#BitstreamVeraSans-Roman-41"/>
      <use x="387.5" xlink:href="#BitstreamVeraSans-Roman-4d"/>
      <use x="473.779296875" xlink:href="#BitstreamVeraSans-Roman-50"/>
      <use x="534.08203125" xlink:href="#BitstreamVeraSans-Roman-20"/>
      <use x="565.869140625" xlink:href="#BitstreamVeraSans-Roman-65"/>
      <use x="627.392578125" xlink:href="#BitstreamVeraSans-Roman-6c"/>
      <use x="655.17578125" xlink:href="#BitstreamVeraSans-Roman-2e"/>
      <use x="686.962890625" xlink:href="#BitstreamVeraSans-Roman-31"/>
     </g>
    </g>
    <g id="line2d_28">
     <path d="
M701.724 94.5183
L711.524 94.5183" style="fill:none;stroke:#0000ff;stroke-linecap:square;"/>
    </g>
    <g id="line2d_29"/>
    <g id="text_15">
     <!-- PDE2cAMP el.2 -->
     <g transform="translate(719.224375 96.96828125)scale(0.07 -0.07)">
      <use xlink:href="#BitstreamVeraSans-Roman-50"/>
      <use x="60.302734375" xlink:href="#BitstreamVeraSans-Roman-44"/>
      <use x="137.3046875" xlink:href="#BitstreamVeraSans-Roman-45"/>
      <use x="200.48828125" xlink:href="#BitstreamVeraSans-Roman-32"/>
      <use x="264.111328125" xlink:href="#BitstreamVeraSans-Roman-63"/>
      <use x="319.091796875" xlink:href="#BitstreamVeraSans-Roman-41"/>
      <use x="387.5" xlink:href="#BitstreamVeraSans-Roman-4d"/>
      <use x="473.779296875" xlink:href="#BitstreamVeraSans-Roman-50"/>
      <use x="534.08203125" xlink:href="#BitstreamVeraSans-Roman-20"/>
      <use x="565.869140625" xlink:href="#BitstreamVeraSans-Roman-65"/>
      <use x="627.392578125" xlink:href="#BitstreamVeraSans-Roman-6c"/>
      <use x="655.17578125" xlink:href="#BitstreamVeraSans-Roman-2e"/>
      <use x="686.962890625" xlink:href="#BitstreamVeraSans-Roman-32"/>
     </g>
    </g>
   </g>
  </g>
 </g>
 <defs>
  <clipPath id="p7ceb695115">
   <rect height="518.4" width="669.6" x="108.0" y="64.8"/>
  </clipPath>
 </defs>
</svg>
