<?xml version="1.0" encoding="utf-8" standalone="no"?>
<!DOCTYPE svg PUBLIC "-//W3C//DTD SVG 1.1//EN"
  "http://www.w3.org/Graphics/SVG/1.1/DTD/svg11.dtd">
<!-- Created with matplotlib (http://matplotlib.org/) -->
<svg height="648pt" version="1.1" viewBox="0 0 864 648" width="864pt" xmlns="http://www.w3.org/2000/svg" xmlns:xlink="http://www.w3.org/1999/xlink">
 <defs>
  <style type="text/css">
*{stroke-linecap:butt;stroke-linejoin:round;}
  </style>
 </defs>
 <g id="figure_1">
  <g id="patch_1">
   <path d="
M0 648
L864 648
L864 0
L0 0
z
" style="fill:#ffffff;"/>
  </g>
  <g id="axes_1">
   <g id="patch_2">
    <path d="
M108 583.2
L777.6 583.2
L777.6 64.8
L108 64.8
z
" style="fill:#ffffff;"/>
   </g>
   <g id="line2d_1">
    <path clip-path="url(#p7ceb695115)" d="
M108 583.2
L118.044 583.2
L120.053 573.48
L120.722 573.48
L121.392 576.72
L122.062 576.72
L122.731 579.96
L124.07 579.96
L124.74 576.72
L125.41 579.96
L128.088 579.96
L128.758 583.2
L130.766 583.2
L131.436 579.96
L133.445 579.96
L134.114 583.2
L150.854 583.2
L151.524 579.96
L152.863 579.96
L153.533 576.72
L156.211 576.72
L156.881 579.96
L158.22 579.96
L158.89 576.72
L159.559 576.72
L160.229 583.2
L160.898 583.2
L162.238 576.72
L162.907 579.96
L164.246 573.48
L167.594 573.48
L168.934 567
L169.603 576.72
L170.942 576.72
L171.612 573.48
L172.282 579.96
L172.951 583.2
L173.621 579.96
L174.29 579.96
L174.96 583.2
L181.656 583.2
L182.995 576.72
L183.665 576.72
L184.334 583.2
L185.004 579.96
L187.013 579.96
L187.682 583.2
L192.37 583.2
L193.709 576.72
L194.378 576.72
L195.048 579.96
L197.726 579.96
L198.396 583.2
L202.414 583.2
L203.083 579.96
L204.422 579.96
L205.092 583.2
L208.44 583.2
L210.449 573.48
L212.458 573.48
L213.127 579.96
L217.814 579.96
L218.484 583.2
L221.162 583.2
L221.832 579.96
L225.18 579.96
L225.85 576.72
L227.189 576.72
L228.528 583.2
L231.876 583.2
L232.546 579.96
L234.554 579.96
L235.224 576.72
L236.563 576.72
L237.233 573.48
L237.902 576.72
L240.581 576.72
L241.25 579.96
L241.92 576.72
L242.59 579.96
L247.277 579.96
L247.946 583.2
L248.616 579.96
L251.294 579.96
L251.964 576.72
L252.634 579.96
L253.973 573.48
L254.642 573.48
L255.312 579.96
L258.66 579.96
L259.33 583.2
L272.722 583.2
L273.391 579.96
L274.061 583.2
L294.149 583.2
L294.818 579.96
L295.488 579.96
L296.158 576.72
L296.827 579.96
L297.497 576.72
L298.166 576.72
L298.836 573.48
L300.175 573.48
L300.845 570.24
L301.514 573.48
L302.184 573.48
L302.854 576.72
L305.532 576.72
L306.202 579.96
L307.541 579.96
L308.21 576.72
L308.88 576.72
L309.55 579.96
L310.889 579.96
L311.558 583.2
L312.228 579.96
L321.602 579.96
L322.272 583.2
L326.29 583.2
L326.959 579.96
L328.968 579.96
L329.638 583.2
L341.021 583.2
L341.69 579.96
L343.03 579.96
L343.699 576.72
L344.369 576.72
L345.038 579.96
L345.708 576.72
L347.047 576.72
L347.717 579.96
L350.395 579.96
L351.065 583.2
L353.743 583.2
L354.413 579.96
L362.448 579.96
L363.118 583.2
L389.232 583.2
L390.571 576.72
L392.58 576.72
L393.25 579.96
L393.919 579.96
L394.589 576.72
L395.928 576.72
L396.598 579.96
L399.946 579.96
L400.615 576.72
L401.285 579.96
L401.954 576.72
L403.294 576.72
L403.963 579.96
L404.633 576.72
L406.642 576.72
L407.311 579.96
L407.981 579.96
L408.65 576.72
L409.32 579.96
L411.998 579.96
L412.668 583.2
L422.042 583.2
L422.712 579.96
L428.738 579.96
L429.408 576.72
L430.078 576.72
L430.747 579.96
L432.086 579.96
L432.756 583.2
L441.461 583.2
L442.13 579.96
L442.8 579.96
L443.47 583.2
L444.139 579.96
L444.809 579.96
L445.478 573.48
L446.148 576.72
L446.818 576.72
L448.157 563.76
L448.826 563.76
L449.496 557.28
L450.166 560.52
L450.835 550.8
L451.505 547.56
L452.174 547.56
L452.844 563.76
L453.514 554.04
L454.183 547.56
L454.853 554.04
L455.522 547.56
L456.192 560.52
L456.862 557.28
L457.531 547.56
L458.201 528.12
L458.87 537.84
L459.54 537.84
L460.21 508.68
L460.879 537.84
L461.549 550.8
L462.218 541.08
L462.888 544.32
L463.558 511.92
L464.227 557.28
L465.566 515.16
L466.236 531.36
L466.906 534.6
L467.575 541.08
L469.584 531.36
L470.254 521.64
L470.923 521.64
L471.593 547.56
L472.262 524.88
L472.932 537.84
L473.602 537.84
L474.271 511.92
L474.941 524.88
L475.61 528.12
L476.28 534.6
L476.95 528.12
L477.619 528.12
L478.289 557.28
L478.958 547.56
L480.298 508.68
L480.967 544.32
L481.637 495.72
L482.306 531.36
L482.976 505.44
L483.646 486
L484.315 498.96
L484.985 537.84
L485.654 534.6
L486.324 524.88
L486.994 518.4
L487.663 524.88
L488.333 502.2
L489.002 528.12
L489.672 524.88
L490.342 469.8
L491.011 528.12
L491.681 521.64
L492.35 534.6
L493.02 528.12
L493.69 508.68
L494.359 528.12
L495.029 521.64
L495.698 518.4
L496.368 508.68
L497.038 502.2
L497.707 531.36
L498.377 502.2
L499.046 537.84
L499.716 537.84
L500.386 544.32
L501.055 534.6
L501.725 531.36
L502.394 541.08
L503.064 502.2
L503.734 534.6
L504.403 521.64
L505.073 518.4
L505.742 531.36
L506.412 524.88
L507.082 508.68
L507.751 518.4
L508.421 476.28
L509.09 528.12
L509.76 502.2
L510.43 502.2
L511.099 518.4
L511.769 521.64
L512.438 502.2
L513.108 521.64
L513.778 524.88
L514.447 505.44
L515.117 518.4
L515.786 492.48
L516.456 511.92
L517.126 528.12
L517.795 498.96
L518.465 482.76
L519.804 528.12
L520.474 521.64
L521.143 489.24
L522.482 531.36
L523.152 505.44
L523.822 537.84
L524.491 489.24
L525.161 534.6
L525.83 541.08
L527.17 521.64
L527.839 515.16
L528.509 473.04
L529.178 502.2
L529.848 521.64
L530.518 511.92
L531.187 534.6
L531.857 528.12
L532.526 495.72
L533.196 495.72
L533.866 524.88
L534.535 534.6
L535.205 489.24
L535.874 534.6
L536.544 489.24
L537.214 479.52
L537.883 505.44
L538.553 495.72
L539.222 498.96
L539.892 518.4
L540.562 505.44
L541.231 524.88
L541.901 502.2
L542.57 492.48
L543.24 518.4
L544.579 479.52
L545.249 508.68
L545.918 511.92
L546.588 508.68
L547.258 511.92
L547.927 495.72
L548.597 511.92
L549.266 482.76
L549.936 511.92
L550.606 492.48
L551.275 476.28
L551.945 495.72
L552.614 476.28
L553.284 502.2
L553.954 505.44
L554.623 518.4
L555.293 518.4
L555.962 489.24
L556.632 492.48
L557.302 498.96
L557.971 511.92
L558.641 498.96
L559.31 495.72
L559.98 482.76
L560.65 515.16
L561.319 476.28
L561.989 498.96
L562.658 479.52
L563.328 453.6
L563.998 492.48
L564.667 508.68
L565.337 498.96
L566.006 498.96
L566.676 495.72
L567.346 498.96
L568.015 486
L568.685 511.92
L569.354 482.76
L570.024 505.44
L570.694 508.68
L571.363 502.2
L572.033 502.2
L572.702 486
L573.372 502.2
L574.042 521.64
L574.711 476.28
L575.381 518.4
L576.05 502.2
L576.72 456.84
L577.39 511.92
L578.059 469.8
L578.729 498.96
L579.398 489.24
L580.068 505.44
L580.738 469.8
L581.407 466.56
L582.077 476.28
L582.746 476.28
L583.416 495.72
L584.755 463.32
L585.425 482.76
L586.094 486
L586.764 486
L587.434 492.48
L588.103 469.8
L588.773 492.48
L589.442 505.44
L590.112 502.2
L590.782 502.2
L591.451 460.08
L592.121 456.84
L592.79 521.64
L593.46 482.76
L594.13 495.72
L595.469 495.72
L596.138 498.96
L596.808 469.8
L597.478 486
L598.147 498.96
L598.817 492.48
L599.486 466.56
L600.156 502.2
L600.826 524.88
L601.495 505.44
L602.165 489.24
L602.834 482.76
L603.504 495.72
L604.174 489.24
L604.843 453.6
L605.513 505.44
L606.182 447.12
L606.852 479.52
L608.191 505.44
L608.861 502.2
L609.53 476.28
L610.2 440.64
L610.87 524.88
L611.539 479.52
L612.209 450.36
L612.878 476.28
L613.548 473.04
L614.218 492.48
L614.887 502.2
L615.557 473.04
L616.226 489.24
L616.896 466.56
L617.566 492.48
L618.235 443.88
L618.905 479.52
L619.574 486
L620.244 473.04
L620.914 482.76
L621.583 495.72
L622.253 479.52
L622.922 489.24
L623.592 456.84
L624.262 502.2
L624.931 486
L626.27 440.64
L626.94 482.76
L627.61 476.28
L628.279 473.04
L628.949 440.64
L629.618 466.56
L630.288 482.76
L630.958 463.32
L631.627 466.56
L632.297 511.92
L632.966 463.32
L634.306 495.72
L634.975 469.8
L635.645 479.52
L636.314 498.96
L636.984 492.48
L637.654 466.56
L638.323 476.28
L638.993 476.28
L639.662 456.84
L640.332 482.76
L641.002 486
L641.671 469.8
L642.341 460.08
L643.01 469.8
L643.68 476.28
L644.35 476.28
L645.019 453.6
L645.689 469.8
L646.358 502.2
L647.028 476.28
L647.698 430.92
L648.367 495.72
L649.037 469.8
L650.376 508.68
L651.046 508.68
L651.715 466.56
L652.385 489.24
L653.054 466.56
L653.724 489.24
L654.394 495.72
L655.063 482.76
L655.733 473.04
L656.402 482.76
L657.072 456.84
L657.742 466.56
L658.411 463.32
L659.081 456.84
L659.75 479.52
L660.42 476.28
L661.09 456.84
L661.759 460.08
L662.429 460.08
L663.098 492.48
L663.768 463.32
L664.438 479.52
L665.107 482.76
L665.777 508.68
L666.446 479.52
L667.116 469.8
L667.786 489.24
L668.455 498.96
L669.125 502.2
L669.794 466.56
L670.464 479.52
L671.134 511.92
L671.803 508.68
L672.473 492.48
L673.142 508.68
L673.812 463.32
L674.482 479.52
L675.151 515.16
L676.49 469.8
L677.16 482.76
L677.83 453.6
L678.499 476.28
L679.169 486
L679.838 466.56
L680.508 486
L681.178 492.48
L681.847 495.72
L682.517 463.32
L683.186 450.36
L683.856 489.24
L684.526 482.76
L685.195 492.48
L685.865 469.8
L686.534 473.04
L687.204 466.56
L688.543 473.04
L689.213 450.36
L689.882 492.48
L690.552 476.28
L691.222 495.72
L691.891 482.76
L692.561 440.64
L693.23 440.64
L693.9 466.56
L694.57 505.44
L695.239 466.56
L695.909 453.6
L696.578 460.08
L697.248 476.28
L697.918 460.08
L698.587 473.04
L699.257 466.56
L699.926 453.6
L700.596 492.48
L701.266 453.6
L701.935 476.28
L702.605 479.52
L703.274 469.8
L703.944 508.68
L704.614 482.76
L705.283 476.28
L705.953 489.24
L706.622 450.36
L707.292 489.24
L707.962 482.76
L708.631 486
L709.301 469.8
L709.97 463.32
L710.64 511.92
L711.31 498.96
L711.979 489.24
L712.649 486
L713.318 460.08
L713.988 489.24
L714.658 466.56
L715.327 479.52
L715.997 482.76
L716.666 476.28
L717.336 466.56
L718.006 463.32
L718.675 489.24
L719.345 476.28
L720.014 456.84
L720.684 482.76
L721.354 479.52
L722.023 469.8
L722.693 495.72
L723.362 482.76
L724.032 466.56
L724.702 460.08
L725.371 427.68
L726.041 456.84
L726.71 456.84
L727.38 453.6
L728.05 463.32
L728.719 486
L729.389 463.32
L730.058 473.04
L730.728 460.08
L731.398 479.52
L732.067 466.56
L732.737 460.08
L733.406 434.16
L734.076 466.56
L734.746 453.6
L735.415 476.28
L736.085 450.36
L736.754 443.88
L737.424 482.76
L738.094 492.48
L738.763 492.48
L739.433 466.56
L740.102 450.36
L740.772 492.48
L741.442 450.36
L742.111 469.8
L742.781 463.32
L743.45 495.72
L744.12 463.32
L744.79 489.24
L745.459 434.16
L746.129 473.04
L746.798 469.8
L747.468 450.36
L748.138 479.52
L748.807 463.32
L749.477 456.84
L750.146 453.6
L750.816 469.8
L751.486 437.4
L752.155 450.36
L752.825 473.04
L753.494 466.56
L754.164 479.52
L754.834 466.56
L755.503 473.04
L756.173 437.4
L756.842 440.64
L757.512 486
L758.182 450.36
L758.851 460.08
L759.521 453.6
L760.19 469.8
L760.86 460.08
L762.199 460.08
L762.869 486
L763.538 469.8
L764.208 492.48
L764.878 479.52
L765.547 456.84
L766.217 469.8
L766.886 469.8
L767.556 473.04
L768.226 489.24
L768.895 489.24
L769.565 495.72
L770.234 489.24
L770.904 486
L771.574 492.48
L772.243 469.8
L772.913 466.56
L773.582 469.8
L774.252 466.56
L774.922 466.56
L775.591 486
L776.261 453.6
L776.93 450.36
L777.6 469.8
L777.6 469.8" style="fill:none;stroke:#ff0000;stroke-linecap:square;"/>
   </g>
   <g id="line2d_2">
    <path clip-path="url(#p7ceb695115)" d="
M108 583.2
L113.357 583.2
L114.026 576.72
L114.696 579.96
L115.366 576.72
L116.035 579.96
L116.705 576.72
L117.374 576.72
L118.044 579.96
L122.731 579.96
L123.401 573.48
L124.07 576.72
L124.74 570.24
L125.41 570.24
L126.079 573.48
L126.749 570.24
L127.418 573.48
L128.088 570.24
L129.427 576.72
L130.097 576.72
L130.766 579.96
L131.436 576.72
L132.106 576.72
L132.775 579.96
L133.445 576.72
L134.114 579.96
L136.123 579.96
L136.793 576.72
L138.132 576.72
L138.802 583.2
L139.471 579.96
L141.48 579.96
L142.15 576.72
L142.819 576.72
L143.489 579.96
L144.828 573.48
L145.498 576.72
L146.167 573.48
L147.506 573.48
L148.176 570.24
L148.846 570.24
L149.515 573.48
L150.854 567
L151.524 570.24
L152.194 570.24
L152.863 576.72
L153.533 576.72
L154.202 570.24
L154.872 570.24
L155.542 573.48
L157.55 573.48
L158.89 567
L159.559 576.72
L160.229 563.76
L160.898 570.24
L162.238 570.24
L162.907 567
L164.246 567
L164.916 557.28
L166.255 570.24
L166.925 573.48
L168.264 573.48
L170.273 563.76
L170.942 570.24
L171.612 573.48
L172.282 567
L172.951 570.24
L174.29 570.24
L174.96 573.48
L176.299 560.52
L177.638 554.04
L178.308 563.76
L178.978 560.52
L179.647 570.24
L180.317 567
L180.986 570.24
L181.656 576.72
L182.326 573.48
L182.995 567
L183.665 567
L184.334 573.48
L185.004 570.24
L185.674 570.24
L186.343 573.48
L187.013 570.24
L189.022 579.96
L189.691 579.96
L190.361 576.72
L191.03 576.72
L191.7 583.2
L192.37 579.96
L193.039 583.2
L193.709 579.96
L194.378 579.96
L195.048 576.72
L196.387 576.72
L197.057 573.48
L199.066 573.48
L199.735 570.24
L200.405 570.24
L201.074 573.48
L201.744 573.48
L202.414 570.24
L203.083 573.48
L203.753 573.48
L204.422 567
L205.092 570.24
L206.431 563.76
L207.101 567
L207.77 573.48
L208.44 570.24
L209.11 570.24
L209.779 567
L211.118 573.48
L213.127 563.76
L213.797 563.76
L215.136 570.24
L215.806 576.72
L216.475 576.72
L217.145 579.96
L217.814 579.96
L218.484 576.72
L219.154 576.72
L219.823 579.96
L220.493 576.72
L221.162 576.72
L221.832 573.48
L227.858 573.48
L228.528 576.72
L229.198 570.24
L229.867 573.48
L230.537 573.48
L231.876 567
L232.546 557.28
L233.215 557.28
L233.885 563.76
L234.554 563.76
L235.224 570.24
L235.894 567
L236.563 567
L237.233 563.76
L237.902 567
L239.242 567
L239.911 570.24
L240.581 567
L241.25 567
L243.259 576.72
L243.929 576.72
L245.268 570.24
L245.938 573.48
L247.277 573.48
L247.946 570.24
L248.616 573.48
L249.286 573.48
L249.955 576.72
L250.625 573.48
L251.294 573.48
L251.964 570.24
L252.634 573.48
L253.303 573.48
L253.973 576.72
L254.642 573.48
L255.312 576.72
L255.982 576.72
L256.651 579.96
L257.321 573.48
L258.66 573.48
L259.33 576.72
L259.999 576.72
L260.669 579.96
L261.338 579.96
L262.008 567
L262.678 570.24
L265.356 570.24
L266.026 576.72
L266.695 573.48
L268.034 573.48
L268.704 576.72
L269.374 573.48
L270.713 573.48
L272.722 563.76
L273.391 563.76
L274.061 560.52
L275.4 567
L276.07 576.72
L276.739 573.48
L277.409 576.72
L278.078 570.24
L278.748 567
L279.418 567
L280.087 573.48
L280.757 576.72
L281.426 576.72
L282.096 573.48
L284.105 573.48
L284.774 579.96
L285.444 579.96
L286.114 576.72
L289.462 576.72
L290.131 579.96
L291.47 579.96
L292.14 583.2
L297.497 583.2
L298.166 579.96
L298.836 579.96
L299.506 576.72
L300.175 576.72
L300.845 579.96
L302.854 579.96
L303.523 583.2
L304.193 579.96
L306.202 579.96
L306.871 573.48
L307.541 573.48
L308.21 576.72
L308.88 583.2
L310.219 576.72
L311.558 576.72
L312.228 579.96
L313.567 573.48
L314.237 576.72
L314.906 570.24
L315.576 570.24
L316.246 573.48
L316.915 573.48
L318.254 579.96
L318.924 576.72
L322.942 576.72
L323.611 573.48
L324.95 579.96
L325.62 573.48
L326.29 576.72
L329.638 576.72
L330.977 583.2
L331.646 579.96
L333.655 579.96
L334.325 573.48
L334.994 570.24
L335.664 573.48
L336.334 573.48
L337.003 583.2
L340.351 583.2
L341.021 579.96
L342.36 579.96
L343.03 583.2
L347.717 583.2
L349.726 573.48
L350.395 573.48
L351.065 570.24
L351.734 570.24
L352.404 563.76
L353.074 567
L354.413 567
L355.752 573.48
L356.422 573.48
L357.091 570.24
L357.761 573.48
L359.1 573.48
L359.77 570.24
L361.109 576.72
L362.448 576.72
L363.118 570.24
L364.457 570.24
L365.126 573.48
L365.796 579.96
L366.466 576.72
L367.135 570.24
L368.474 576.72
L371.822 576.72
L372.492 579.96
L375.17 579.96
L375.84 583.2
L376.51 579.96
L377.179 583.2
L380.527 583.2
L381.197 579.96
L381.866 579.96
L382.536 576.72
L383.206 576.72
L383.875 579.96
L385.884 579.96
L387.223 573.48
L389.232 573.48
L389.902 576.72
L390.571 576.72
L391.241 579.96
L396.598 579.96
L397.267 576.72
L397.937 576.72
L398.606 579.96
L402.624 579.96
L403.294 573.48
L403.963 573.48
L405.302 579.96
L408.65 579.96
L409.32 583.2
L411.329 583.2
L413.338 573.48
L414.677 573.48
L416.686 583.2
L417.355 583.2
L418.025 576.72
L418.694 579.96
L419.364 576.72
L420.703 576.72
L421.373 579.96
L422.042 579.96
L422.712 583.2
L424.721 583.2
L425.39 579.96
L426.06 579.96
L426.73 576.72
L428.069 576.72
L428.738 573.48
L430.078 573.48
L430.747 576.72
L432.756 576.72
L434.095 570.24
L436.104 570.24
L436.774 567
L437.443 567
L438.782 573.48
L440.122 573.48
L440.791 570.24
L441.461 570.24
L442.13 573.48
L442.8 570.24
L443.47 570.24
L444.139 573.48
L444.809 567
L445.478 570.24
L446.148 563.76
L446.818 544.32
L447.487 541.08
L448.157 547.56
L448.826 511.92
L449.496 505.44
L450.166 505.44
L450.835 486
L452.174 430.92
L452.844 450.36
L453.514 456.84
L454.183 482.76
L454.853 430.92
L455.522 430.92
L456.192 437.4
L456.862 440.64
L457.531 414.72
L458.201 414.72
L458.87 362.88
L459.54 353.16
L460.21 421.2
L460.879 388.8
L461.549 375.84
L462.218 346.68
L462.888 405
L463.558 343.44
L464.227 369.36
L464.897 333.72
L465.566 285.12
L466.236 379.08
L466.906 343.44
L467.575 301.32
L468.245 356.4
L468.914 366.12
L469.584 372.6
L470.254 398.52
L470.923 327.24
L471.593 346.68
L472.262 324
L472.932 288.36
L473.602 327.24
L474.271 333.72
L474.941 285.12
L475.61 340.2
L476.28 349.92
L476.95 320.76
L477.619 314.28
L478.289 298.08
L478.958 324
L479.628 430.92
L480.298 327.24
L480.967 288.36
L481.637 301.32
L482.306 330.48
L483.646 369.36
L484.315 340.2
L484.985 356.4
L485.654 343.44
L486.324 317.52
L486.994 314.28
L487.663 304.56
L488.333 385.56
L489.002 346.68
L489.672 320.76
L490.342 324
L491.011 336.96
L491.681 327.24
L492.35 288.36
L493.02 324
L493.69 307.8
L494.359 353.16
L495.029 320.76
L495.698 353.16
L496.368 281.88
L497.038 356.4
L497.707 317.52
L498.377 304.56
L499.046 262.44
L499.716 268.92
L500.386 246.24
L501.055 343.44
L501.725 298.08
L502.394 294.84
L503.064 304.56
L503.734 307.8
L504.403 285.12
L505.073 298.08
L505.742 298.08
L506.412 346.68
L507.082 314.28
L507.751 330.48
L508.421 259.2
L509.09 353.16
L509.76 272.16
L510.43 278.64
L511.099 311.04
L511.769 379.08
L512.438 288.36
L513.108 301.32
L514.447 314.28
L515.117 262.44
L515.786 314.28
L516.456 304.56
L517.126 298.08
L517.795 327.24
L518.465 272.16
L519.134 243
L519.804 333.72
L520.474 311.04
L521.143 307.8
L521.813 236.52
L522.482 246.24
L523.152 307.8
L524.491 259.2
L525.161 285.12
L525.83 304.56
L526.5 298.08
L527.17 272.16
L527.839 278.64
L528.509 288.36
L529.178 317.52
L529.848 272.16
L530.518 317.52
L531.187 278.64
L531.857 262.44
L532.526 311.04
L533.196 281.88
L533.866 304.56
L534.535 288.36
L535.205 265.68
L535.874 278.64
L536.544 262.44
L537.214 249.48
L537.883 304.56
L538.553 298.08
L539.222 327.24
L539.892 262.44
L540.562 217.08
L541.231 311.04
L541.901 285.12
L542.57 291.6
L543.24 268.92
L543.91 301.32
L544.579 301.32
L545.249 288.36
L545.918 294.84
L546.588 262.44
L547.258 265.68
L547.927 246.24
L548.597 236.52
L549.266 268.92
L549.936 252.72
L550.606 255.96
L551.275 217.08
L551.945 301.32
L552.614 307.8
L553.284 226.8
L553.954 272.16
L554.623 285.12
L555.293 236.52
L555.962 272.16
L556.632 249.48
L557.302 236.52
L557.971 194.4
L558.641 259.2
L559.31 220.32
L559.98 265.68
L560.65 294.84
L561.319 265.68
L561.989 200.88
L562.658 272.16
L563.328 223.56
L563.998 281.88
L564.667 236.52
L565.337 210.6
L566.006 213.84
L566.676 236.52
L567.346 275.4
L568.015 262.44
L568.685 223.56
L569.354 226.8
L570.024 184.68
L570.694 220.32
L571.363 220.32
L572.033 213.84
L572.702 223.56
L573.372 226.8
L574.042 236.52
L574.711 194.4
L575.381 304.56
L576.05 249.48
L576.72 210.6
L577.39 243
L578.059 204.12
L578.729 184.68
L579.398 197.64
L580.068 239.76
L580.738 207.36
L581.407 191.16
L582.077 162
L582.746 223.56
L583.416 178.2
L584.086 181.44
L584.755 239.76
L585.425 213.84
L586.094 230.04
L586.764 204.12
L587.434 207.36
L588.103 162
L588.773 210.6
L589.442 217.08
L590.112 168.48
L590.782 233.28
L591.451 187.92
L592.121 213.84
L592.79 255.96
L593.46 272.16
L594.13 223.56
L594.799 129.6
L595.469 194.4
L596.138 123.12
L596.808 194.4
L597.478 223.56
L598.147 220.32
L598.817 142.56
L599.486 200.88
L600.156 200.88
L600.826 184.68
L601.495 149.04
L602.165 213.84
L602.834 152.28
L603.504 168.48
L604.174 220.32
L604.843 187.92
L605.513 210.6
L606.182 187.92
L606.852 184.68
L607.522 136.08
L608.191 204.12
L608.861 233.28
L609.53 197.64
L610.2 149.04
L610.87 207.36
L611.539 194.4
L612.209 178.2
L612.878 152.28
L613.548 93.96
L614.218 187.92
L614.887 187.92
L615.557 139.32
L616.226 158.76
L616.896 158.76
L617.566 187.92
L618.235 123.12
L618.905 194.4
L619.574 152.28
L620.244 139.32
L620.914 178.2
L621.583 165.24
L622.253 142.56
L622.922 132.84
L623.592 93.96
L624.262 158.76
L624.931 142.56
L625.601 149.04
L626.27 139.32
L626.94 187.92
L627.61 139.32
L628.279 152.28
L628.949 123.12
L629.618 119.88
L630.288 184.68
L630.958 123.12
L631.627 132.84
L632.297 126.36
L632.966 158.76
L633.636 168.48
L634.306 200.88
L634.975 106.92
L635.645 184.68
L636.314 119.88
L636.984 106.92
L637.654 155.52
L638.323 249.48
L639.662 110.16
L640.332 145.8
L641.002 145.8
L641.671 174.96
L642.341 165.24
L643.01 162
L643.68 181.44
L644.35 145.8
L645.019 119.88
L645.689 145.8
L646.358 165.24
L647.028 136.08
L647.698 171.72
L648.367 178.2
L649.037 168.48
L649.706 155.52
L650.376 126.36
L651.046 155.52
L651.715 155.52
L652.385 149.04
L653.054 220.32
L653.724 210.6
L654.394 132.84
L655.063 171.72
L655.733 158.76
L656.402 168.48
L657.072 155.52
L657.742 184.68
L658.411 152.28
L659.081 168.48
L659.75 165.24
L660.42 233.28
L661.09 152.28
L661.759 149.04
L662.429 149.04
L663.098 106.92
L663.768 168.48
L664.438 152.28
L665.107 200.88
L665.777 158.76
L666.446 165.24
L667.116 207.36
L667.786 200.88
L668.455 142.56
L669.125 207.36
L669.794 168.48
L670.464 178.2
L671.134 162
L671.803 81
L672.473 129.6
L673.142 165.24
L673.812 171.72
L674.482 187.92
L675.151 178.2
L675.821 103.68
L676.49 145.8
L677.16 123.12
L677.83 142.56
L678.499 136.08
L679.169 158.76
L679.838 155.52
L680.508 136.08
L681.178 168.48
L681.847 226.8
L682.517 184.68
L683.186 90.72
L683.856 165.24
L684.526 126.36
L685.195 165.24
L685.865 165.24
L686.534 187.92
L687.204 174.96
L687.874 217.08
L688.543 171.72
L689.213 158.76
L689.882 123.12
L690.552 136.08
L691.222 162
L691.891 162
L692.561 136.08
L693.23 165.24
L693.9 168.48
L695.239 230.04
L695.909 194.4
L696.578 187.92
L697.248 152.28
L697.918 139.32
L698.587 100.44
L699.257 84.24
L699.926 142.56
L700.596 132.84
L701.266 155.52
L701.935 152.28
L702.605 103.68
L703.274 126.36
L703.944 106.92
L704.614 103.68
L705.283 97.2
L706.622 174.96
L707.292 187.92
L707.962 181.44
L708.631 136.08
L709.301 187.92
L709.97 168.48
L710.64 168.48
L711.31 110.16
L711.979 168.48
L712.649 126.36
L713.318 178.2
L713.988 213.84
L714.658 162
L715.327 207.36
L716.666 181.44
L717.336 123.12
L718.006 158.76
L718.675 77.76
L719.345 178.2
L720.014 152.28
L720.684 136.08
L721.354 181.44
L722.023 136.08
L722.693 149.04
L723.362 136.08
L724.032 194.4
L724.702 132.84
L725.371 119.88
L726.041 165.24
L726.71 149.04
L727.38 174.96
L728.05 191.16
L728.719 142.56
L729.389 168.48
L730.058 97.2
L730.728 152.28
L731.398 139.32
L732.067 174.96
L732.737 155.52
L734.076 113.4
L734.746 100.44
L735.415 197.64
L736.085 174.96
L736.754 184.68
L737.424 158.76
L738.763 139.32
L739.433 74.52
L740.102 178.2
L740.772 126.36
L741.442 239.76
L742.111 136.08
L742.781 142.56
L743.45 168.48
L744.12 129.6
L744.79 132.84
L745.459 158.76
L746.129 106.92
L746.798 123.12
L747.468 123.12
L748.807 168.48
L749.477 119.88
L750.146 165.24
L750.816 168.48
L751.486 139.32
L752.155 129.6
L752.825 132.84
L753.494 171.72
L754.834 145.8
L755.503 152.28
L756.173 194.4
L756.842 149.04
L757.512 171.72
L758.182 129.6
L758.851 168.48
L759.521 165.24
L760.19 145.8
L760.86 113.4
L761.53 123.12
L762.199 178.2
L762.869 139.32
L763.538 142.56
L764.208 149.04
L764.878 174.96
L765.547 162
L766.217 139.32
L766.886 93.96
L767.556 217.08
L768.226 152.28
L768.895 178.2
L769.565 132.84
L770.234 145.8
L770.904 191.16
L771.574 136.08
L772.243 158.76
L772.913 200.88
L773.582 152.28
L774.922 119.88
L775.591 187.92
L776.261 171.72
L776.93 194.4
L777.6 194.4
L777.6 194.4" style="fill:none;stroke:#008000;stroke-linecap:square;"/>
   </g>
   <g id="line2d_3">
    <path clip-path="url(#p7ceb695115)" d="
M108 583.2
L140.141 583.2
L140.81 579.96
L141.48 583.2
L168.264 583.2
L168.934 579.96
L171.612 579.96
L172.282 583.2
L172.951 579.96
L173.621 579.96
L174.29 583.2
L175.63 583.2
L176.299 579.96
L177.638 579.96
L178.308 583.2
L178.978 576.72
L180.986 576.72
L182.326 583.2
L200.405 583.2
L201.074 579.96
L207.101 579.96
L207.77 583.2
L209.11 583.2
L209.779 576.72
L210.449 583.2
L211.118 583.2
L211.788 579.96
L212.458 579.96
L213.127 583.2
L219.154 583.2
L219.823 579.96
L221.162 579.96
L221.832 583.2
L222.502 573.48
L223.171 576.72
L224.51 576.72
L225.85 583.2
L227.189 583.2
L227.858 579.96
L229.198 579.96
L229.867 576.72
L230.537 576.72
L231.206 583.2
L231.876 583.2
L232.546 579.96
L235.894 579.96
L236.563 576.72
L237.233 583.2
L237.902 583.2
L238.572 579.96
L240.581 579.96
L241.25 583.2
L248.616 583.2
L249.286 579.96
L250.625 579.96
L251.294 583.2
L259.999 583.2
L260.669 579.96
L261.338 583.2
L262.678 576.72
L264.686 576.72
L265.356 579.96
L268.704 579.96
L269.374 583.2
L270.043 579.96
L270.713 583.2
L280.757 583.2
L281.426 579.96
L282.096 583.2
L282.766 579.96
L283.435 583.2
L286.783 583.2
L287.453 579.96
L294.149 579.96
L294.818 576.72
L295.488 576.72
L296.158 579.96
L296.827 579.96
L297.497 576.72
L298.166 576.72
L299.506 583.2
L301.514 583.2
L302.184 579.96
L302.854 583.2
L303.523 579.96
L307.541 579.96
L308.21 583.2
L319.594 583.2
L320.263 579.96
L320.933 579.96
L321.602 583.2
L328.298 583.2
L328.968 579.96
L329.638 583.2
L377.179 583.2
L377.849 579.96
L378.518 583.2
L381.866 583.2
L382.536 579.96
L383.206 579.96
L383.875 583.2
L384.545 579.96
L385.214 579.96
L385.884 583.2
L391.241 583.2
L391.91 576.72
L392.58 576.72
L393.919 583.2
L397.267 583.2
L397.937 579.96
L398.606 579.96
L399.276 583.2
L403.963 583.2
L404.633 579.96
L410.659 579.96
L411.329 583.2
L422.042 583.2
L422.712 579.96
L427.399 579.96
L428.069 583.2
L437.443 583.2
L438.113 579.96
L444.139 579.96
L444.809 576.72
L445.478 576.72
L446.148 579.96
L446.818 576.72
L447.487 576.72
L448.157 573.48
L448.826 579.96
L449.496 576.72
L450.835 576.72
L451.505 563.76
L452.174 554.04
L452.844 554.04
L453.514 544.32
L454.183 544.32
L454.853 550.8
L455.522 541.08
L456.192 550.8
L457.531 537.84
L458.201 528.12
L458.87 557.28
L459.54 515.16
L460.21 521.64
L460.879 557.28
L461.549 534.6
L462.218 550.8
L462.888 534.6
L463.558 547.56
L464.227 505.44
L464.897 515.16
L466.236 515.16
L466.906 521.64
L467.575 515.16
L468.245 515.16
L469.584 534.6
L470.254 518.4
L470.923 518.4
L471.593 531.36
L472.262 521.64
L472.932 547.56
L473.602 534.6
L474.271 541.08
L474.941 521.64
L475.61 531.36
L476.28 528.12
L476.95 528.12
L477.619 531.36
L478.289 528.12
L478.958 505.44
L479.628 495.72
L480.298 515.16
L480.967 518.4
L481.637 511.92
L482.306 518.4
L482.976 534.6
L483.646 537.84
L484.315 521.64
L484.985 521.64
L485.654 541.08
L486.324 511.92
L486.994 547.56
L487.663 511.92
L488.333 518.4
L489.002 534.6
L489.672 524.88
L490.342 534.6
L491.011 518.4
L492.35 498.96
L493.02 502.2
L493.69 521.64
L494.359 492.48
L495.029 531.36
L495.698 521.64
L496.368 505.44
L497.038 515.16
L497.707 528.12
L498.377 521.64
L499.046 505.44
L499.716 521.64
L500.386 511.92
L501.055 524.88
L501.725 502.2
L502.394 502.2
L503.064 508.68
L503.734 518.4
L504.403 524.88
L505.073 524.88
L505.742 518.4
L506.412 505.44
L507.082 524.88
L507.751 511.92
L508.421 515.16
L509.09 515.16
L509.76 511.92
L510.43 482.76
L511.099 537.84
L511.769 521.64
L512.438 521.64
L513.108 515.16
L513.778 498.96
L514.447 511.92
L515.117 531.36
L516.456 511.92
L517.126 518.4
L517.795 508.68
L518.465 537.84
L519.134 528.12
L519.804 495.72
L520.474 498.96
L521.143 505.44
L521.813 528.12
L522.482 498.96
L523.152 498.96
L523.822 515.16
L524.491 498.96
L525.161 511.92
L525.83 534.6
L526.5 511.92
L527.17 508.68
L527.839 521.64
L528.509 498.96
L529.178 534.6
L529.848 515.16
L530.518 479.52
L531.187 521.64
L531.857 511.92
L532.526 511.92
L533.866 492.48
L534.535 541.08
L535.874 486
L536.544 521.64
L537.214 508.68
L537.883 492.48
L538.553 492.48
L539.222 498.96
L539.892 515.16
L540.562 524.88
L541.231 515.16
L541.901 495.72
L542.57 492.48
L543.24 502.2
L543.91 492.48
L544.579 492.48
L545.249 502.2
L545.918 508.68
L546.588 531.36
L547.258 492.48
L547.927 518.4
L548.597 515.16
L549.266 531.36
L550.606 482.76
L551.275 508.68
L551.945 521.64
L552.614 479.52
L553.284 515.16
L553.954 508.68
L554.623 511.92
L555.293 486
L555.962 518.4
L556.632 515.16
L557.302 498.96
L557.971 511.92
L558.641 473.04
L559.31 511.92
L559.98 463.32
L560.65 531.36
L561.319 492.48
L561.989 469.8
L562.658 476.28
L563.328 541.08
L564.667 489.24
L565.337 473.04
L566.006 489.24
L566.676 476.28
L567.346 515.16
L568.015 498.96
L568.685 495.72
L569.354 482.76
L570.024 486
L570.694 486
L571.363 482.76
L572.702 524.88
L573.372 511.92
L574.042 508.68
L574.711 463.32
L575.381 511.92
L576.05 479.52
L576.72 466.56
L577.39 469.8
L578.059 502.2
L578.729 463.32
L579.398 456.84
L580.068 495.72
L580.738 502.2
L581.407 466.56
L582.746 518.4
L583.416 466.56
L584.086 508.68
L584.755 486
L585.425 528.12
L586.094 508.68
L586.764 492.48
L587.434 489.24
L588.103 473.04
L588.773 489.24
L589.442 450.36
L590.112 447.12
L590.782 492.48
L591.451 479.52
L592.121 473.04
L592.79 492.48
L593.46 495.72
L594.13 508.68
L594.799 466.56
L595.469 460.08
L596.138 502.2
L596.808 492.48
L597.478 476.28
L598.147 482.76
L598.817 469.8
L599.486 473.04
L600.156 502.2
L600.826 456.84
L601.495 482.76
L602.165 479.52
L602.834 466.56
L603.504 479.52
L604.174 521.64
L604.843 492.48
L605.513 437.4
L606.182 456.84
L606.852 498.96
L607.522 505.44
L608.191 469.8
L608.861 460.08
L609.53 486
L610.2 479.52
L610.87 463.32
L611.539 466.56
L612.209 498.96
L612.878 515.16
L613.548 515.16
L614.218 492.48
L614.887 486
L615.557 492.48
L616.226 460.08
L617.566 508.68
L618.235 492.48
L618.905 521.64
L619.574 460.08
L620.244 450.36
L620.914 476.28
L621.583 453.6
L622.253 495.72
L622.922 482.76
L623.592 486
L624.262 473.04
L624.931 498.96
L625.601 492.48
L626.27 492.48
L626.94 502.2
L627.61 473.04
L628.279 502.2
L628.949 469.8
L629.618 443.88
L630.288 456.84
L630.958 443.88
L631.627 479.52
L632.297 482.76
L632.966 518.4
L633.636 511.92
L634.306 479.52
L634.975 479.52
L635.645 473.04
L636.314 473.04
L636.984 482.76
L637.654 498.96
L638.323 460.08
L638.993 502.2
L639.662 476.28
L640.332 476.28
L641.002 473.04
L641.671 473.04
L642.341 495.72
L643.01 424.44
L643.68 502.2
L644.35 479.52
L645.019 479.52
L645.689 424.44
L646.358 492.48
L647.028 447.12
L647.698 486
L648.367 466.56
L649.037 495.72
L649.706 466.56
L650.376 460.08
L651.046 460.08
L651.715 489.24
L652.385 466.56
L653.054 476.28
L653.724 440.64
L654.394 476.28
L655.063 437.4
L655.733 482.76
L656.402 463.32
L657.072 486
L657.742 440.64
L658.411 479.52
L659.081 473.04
L659.75 511.92
L660.42 476.28
L661.09 460.08
L661.759 486
L662.429 489.24
L663.098 473.04
L663.768 495.72
L664.438 473.04
L665.107 456.84
L665.777 489.24
L666.446 473.04
L667.116 443.88
L667.786 511.92
L668.455 495.72
L669.125 495.72
L669.794 476.28
L670.464 482.76
L671.134 450.36
L671.803 495.72
L672.473 450.36
L673.142 492.48
L673.812 505.44
L674.482 486
L675.151 476.28
L675.821 476.28
L676.49 463.32
L677.16 473.04
L677.83 460.08
L678.499 482.76
L679.169 463.32
L679.838 498.96
L680.508 473.04
L681.178 473.04
L681.847 486
L682.517 469.8
L683.186 466.56
L683.856 515.16
L684.526 502.2
L685.195 486
L685.865 456.84
L687.204 456.84
L687.874 450.36
L688.543 479.52
L689.213 482.76
L689.882 453.6
L690.552 450.36
L691.222 489.24
L691.891 476.28
L692.561 447.12
L693.23 437.4
L693.9 463.32
L694.57 466.56
L695.239 450.36
L695.909 417.96
L696.578 466.56
L697.248 492.48
L697.918 498.96
L698.587 440.64
L699.257 473.04
L699.926 447.12
L700.596 473.04
L701.266 447.12
L701.935 450.36
L702.605 450.36
L703.274 443.88
L703.944 479.52
L704.614 505.44
L705.283 456.84
L705.953 492.48
L706.622 447.12
L707.292 450.36
L707.962 460.08
L708.631 473.04
L709.301 479.52
L709.97 456.84
L710.64 482.76
L711.31 460.08
L711.979 447.12
L712.649 460.08
L713.318 469.8
L713.988 486
L714.658 453.6
L715.327 466.56
L715.997 489.24
L716.666 479.52
L717.336 476.28
L718.006 469.8
L718.675 486
L719.345 466.56
L720.014 492.48
L720.684 456.84
L721.354 492.48
L722.023 450.36
L722.693 495.72
L723.362 482.76
L724.032 489.24
L724.702 456.84
L725.371 489.24
L726.041 450.36
L726.71 489.24
L727.38 489.24
L728.05 502.2
L730.058 463.32
L730.728 463.32
L731.398 495.72
L732.067 469.8
L732.737 466.56
L733.406 505.44
L734.076 460.08
L736.085 489.24
L736.754 463.32
L737.424 476.28
L738.094 479.52
L738.763 502.2
L739.433 473.04
L740.102 511.92
L740.772 453.6
L741.442 453.6
L742.111 456.84
L742.781 469.8
L743.45 447.12
L744.79 466.56
L745.459 489.24
L746.129 463.32
L746.798 460.08
L747.468 486
L748.138 479.52
L748.807 489.24
L749.477 482.76
L750.146 447.12
L750.816 434.16
L751.486 440.64
L752.155 460.08
L752.825 482.76
L753.494 463.32
L754.164 463.32
L754.834 489.24
L755.503 456.84
L756.173 469.8
L756.842 476.28
L757.512 460.08
L758.182 417.96
L758.851 469.8
L759.521 437.4
L760.19 469.8
L760.86 476.28
L761.53 443.88
L762.199 427.68
L763.538 482.76
L764.208 498.96
L764.878 453.6
L765.547 476.28
L766.217 456.84
L766.886 482.76
L767.556 479.52
L768.226 495.72
L768.895 463.32
L769.565 453.6
L770.234 434.16
L770.904 450.36
L771.574 486
L772.243 476.28
L772.913 489.24
L773.582 453.6
L774.252 482.76
L774.922 466.56
L775.591 482.76
L776.261 447.12
L776.93 489.24
L777.6 482.76
L777.6 482.76" style="fill:none;stroke:#0000ff;stroke-linecap:square;"/>
   </g>
   <g id="patch_3">
    <path d="
M108 583.2
L777.6 583.2" style="fill:none;stroke:#000000;stroke-linecap:square;stroke-linejoin:miter;"/>
   </g>
   <g id="patch_4">
    <path d="
M108 64.8
L777.6 64.8" style="fill:none;stroke:#000000;stroke-linecap:square;stroke-linejoin:miter;"/>
   </g>
   <g id="patch_5">
    <path d="
M777.6 583.2
L777.6 64.8" style="fill:none;stroke:#000000;stroke-linecap:square;stroke-linejoin:miter;"/>
   </g>
   <g id="patch_6">
    <path d="
M108 583.2
L108 64.8" style="fill:none;stroke:#000000;stroke-linecap:square;stroke-linejoin:miter;"/>
   </g>
   <g id="matplotlib.axis_1">
    <g id="xtick_1">
     <g id="line2d_4">
      <defs>
       <path d="
M0 0
L0 -4" id="mc7db9fdffb" style="stroke:#000000;stroke-width:0.5;"/>
      </defs>
      <g>
       <use style="stroke:#000000;stroke-width:0.5;" x="108.0" xlink:href="#mc7db9fdffb" y="583.2"/>
      </g>
     </g>
     <g id="line2d_5">
      <defs>
       <path d="
M0 0
L0 4" id="m5a7d422ac3" style="stroke:#000000;stroke-width:0.5;"/>
      </defs>
      <g>
       <use style="stroke:#000000;stroke-width:0.5;" x="108.0" xlink:href="#m5a7d422ac3" y="64.8"/>
      </g>
     </g>
     <g id="text_1">
      <!-- 0 -->
      <defs>
       <path d="
M31.7812 66.4062
Q24.1719 66.4062 20.3281 58.9062
Q16.5 51.4219 16.5 36.375
Q16.5 21.3906 20.3281 13.8906
Q24.1719 6.39062 31.7812 6.39062
Q39.4531 6.39062 43.2812 13.8906
Q47.125 21.3906 47.125 36.375
Q47.125 51.4219 43.2812 58.9062
Q39.4531 66.4062 31.7812 66.4062
M31.7812 74.2188
Q44.0469 74.2188 50.5156 64.5156
Q56.9844 54.8281 56.9844 36.375
Q56.9844 17.9688 50.5156 8.26562
Q44.0469 -1.42188 31.7812 -1.42188
Q19.5312 -1.42188 13.0625 8.26562
Q6.59375 17.9688 6.59375 36.375
Q6.59375 54.8281 13.0625 64.5156
Q19.5312 74.2188 31.7812 74.2188" id="BitstreamVeraSans-Roman-30"/>
      </defs>
      <g transform="translate(104.9765625 596.318125)scale(0.12 -0.12)">
       <use xlink:href="#BitstreamVeraSans-Roman-30"/>
      </g>
     </g>
    </g>
    <g id="xtick_2">
     <g id="line2d_6">
      <g>
       <use style="stroke:#000000;stroke-width:0.5;" x="275.4" xlink:href="#mc7db9fdffb" y="583.2"/>
      </g>
     </g>
     <g id="line2d_7">
      <g>
       <use style="stroke:#000000;stroke-width:0.5;" x="275.4" xlink:href="#m5a7d422ac3" y="64.8"/>
      </g>
     </g>
     <g id="text_2">
      <!-- 50000 -->
      <defs>
       <path d="
M10.7969 72.9062
L49.5156 72.9062
L49.5156 64.5938
L19.8281 64.5938
L19.8281 46.7344
Q21.9688 47.4688 24.1094 47.8281
Q26.2656 48.1875 28.4219 48.1875
Q40.625 48.1875 47.75 41.5
Q54.8906 34.8125 54.8906 23.3906
Q54.8906 11.625 47.5625 5.09375
Q40.2344 -1.42188 26.9062 -1.42188
Q22.3125 -1.42188 17.5469 -0.640625
Q12.7969 0.140625 7.71875 1.70312
L7.71875 11.625
Q12.1094 9.23438 16.7969 8.0625
Q21.4844 6.89062 26.7031 6.89062
Q35.1562 6.89062 40.0781 11.3281
Q45.0156 15.7656 45.0156 23.3906
Q45.0156 31 40.0781 35.4375
Q35.1562 39.8906 26.7031 39.8906
Q22.75 39.8906 18.8125 39.0156
Q14.8906 38.1406 10.7969 36.2812
z
" id="BitstreamVeraSans-Roman-35"/>
      </defs>
      <g transform="translate(257.1740625 596.318125)scale(0.12 -0.12)">
       <use xlink:href="#BitstreamVeraSans-Roman-35"/>
       <use x="63.623046875" xlink:href="#BitstreamVeraSans-Roman-30"/>
       <use x="127.24609375" xlink:href="#BitstreamVeraSans-Roman-30"/>
       <use x="190.869140625" xlink:href="#BitstreamVeraSans-Roman-30"/>
       <use x="254.4921875" xlink:href="#BitstreamVeraSans-Roman-30"/>
      </g>
     </g>
    </g>
    <g id="xtick_3">
     <g id="line2d_8">
      <g>
       <use style="stroke:#000000;stroke-width:0.5;" x="442.8" xlink:href="#mc7db9fdffb" y="583.2"/>
      </g>
     </g>
     <g id="line2d_9">
      <g>
       <use style="stroke:#000000;stroke-width:0.5;" x="442.8" xlink:href="#m5a7d422ac3" y="64.8"/>
      </g>
     </g>
     <g id="text_3">
      <!-- 100000 -->
      <defs>
       <path d="
M12.4062 8.29688
L28.5156 8.29688
L28.5156 63.9219
L10.9844 60.4062
L10.9844 69.3906
L28.4219 72.9062
L38.2812 72.9062
L38.2812 8.29688
L54.3906 8.29688
L54.3906 0
L12.4062 0
z
" id="BitstreamVeraSans-Roman-31"/>
      </defs>
      <g transform="translate(420.9525 596.318125)scale(0.12 -0.12)">
       <use xlink:href="#BitstreamVeraSans-Roman-31"/>
       <use x="63.623046875" xlink:href="#BitstreamVeraSans-Roman-30"/>
       <use x="127.24609375" xlink:href="#BitstreamVeraSans-Roman-30"/>
       <use x="190.869140625" xlink:href="#BitstreamVeraSans-Roman-30"/>
       <use x="254.4921875" xlink:href="#BitstreamVeraSans-Roman-30"/>
       <use x="318.115234375" xlink:href="#BitstreamVeraSans-Roman-30"/>
      </g>
     </g>
    </g>
    <g id="xtick_4">
     <g id="line2d_10">
      <g>
       <use style="stroke:#000000;stroke-width:0.5;" x="610.2" xlink:href="#mc7db9fdffb" y="583.2"/>
      </g>
     </g>
     <g id="line2d_11">
      <g>
       <use style="stroke:#000000;stroke-width:0.5;" x="610.2" xlink:href="#m5a7d422ac3" y="64.8"/>
      </g>
     </g>
     <g id="text_4">
      <!-- 150000 -->
      <g transform="translate(588.3525 596.318125)scale(0.12 -0.12)">
       <use xlink:href="#BitstreamVeraSans-Roman-31"/>
       <use x="63.623046875" xlink:href="#BitstreamVeraSans-Roman-35"/>
       <use x="127.24609375" xlink:href="#BitstreamVeraSans-Roman-30"/>
       <use x="190.869140625" xlink:href="#BitstreamVeraSans-Roman-30"/>
       <use x="254.4921875" xlink:href="#BitstreamVeraSans-Roman-30"/>
       <use x="318.115234375" xlink:href="#BitstreamVeraSans-Roman-30"/>
      </g>
     </g>
    </g>
    <g id="xtick_5">
     <g id="line2d_12">
      <g>
       <use style="stroke:#000000;stroke-width:0.5;" x="777.6" xlink:href="#mc7db9fdffb" y="583.2"/>
      </g>
     </g>
     <g id="line2d_13">
      <g>
       <use style="stroke:#000000;stroke-width:0.5;" x="777.6" xlink:href="#m5a7d422ac3" y="64.8"/>
      </g>
     </g>
     <g id="text_5">
      <!-- 200000 -->
      <defs>
       <path d="
M19.1875 8.29688
L53.6094 8.29688
L53.6094 0
L7.32812 0
L7.32812 8.29688
Q12.9375 14.1094 22.625 23.8906
Q32.3281 33.6875 34.8125 36.5312
Q39.5469 41.8438 41.4219 45.5312
Q43.3125 49.2188 43.3125 52.7812
Q43.3125 58.5938 39.2344 62.25
Q35.1562 65.9219 28.6094 65.9219
Q23.9688 65.9219 18.8125 64.3125
Q13.6719 62.7031 7.8125 59.4219
L7.8125 69.3906
Q13.7656 71.7812 18.9375 73
Q24.125 74.2188 28.4219 74.2188
Q39.75 74.2188 46.4844 68.5469
Q53.2188 62.8906 53.2188 53.4219
Q53.2188 48.9219 51.5312 44.8906
Q49.8594 40.875 45.4062 35.4062
Q44.1875 33.9844 37.6406 27.2188
Q31.1094 20.4531 19.1875 8.29688" id="BitstreamVeraSans-Roman-32"/>
      </defs>
      <g transform="translate(755.533125 596.318125)scale(0.12 -0.12)">
       <use xlink:href="#BitstreamVeraSans-Roman-32"/>
       <use x="63.623046875" xlink:href="#BitstreamVeraSans-Roman-30"/>
       <use x="127.24609375" xlink:href="#BitstreamVeraSans-Roman-30"/>
       <use x="190.869140625" xlink:href="#BitstreamVeraSans-Roman-30"/>
       <use x="254.4921875" xlink:href="#BitstreamVeraSans-Roman-30"/>
       <use x="318.115234375" xlink:href="#BitstreamVeraSans-Roman-30"/>
      </g>
     </g>
    </g>
    <g id="text_6">
     <!-- t / ms -->
     <defs>
      <path d="
M25.3906 72.9062
L33.6875 72.9062
L8.29688 -9.28125
L0 -9.28125
z
" id="BitstreamVeraSans-Roman-2f"/>
      <path d="
M18.3125 70.2188
L18.3125 54.6875
L36.8125 54.6875
L36.8125 47.7031
L18.3125 47.7031
L18.3125 18.0156
Q18.3125 11.3281 20.1406 9.42188
Q21.9688 7.51562 27.5938 7.51562
L36.8125 7.51562
L36.8125 0
L27.5938 0
Q17.1875 0 13.2344 3.875
Q9.28125 7.76562 9.28125 18.0156
L9.28125 47.7031
L2.6875 47.7031
L2.6875 54.6875
L9.28125 54.6875
L9.28125 70.2188
z
" id="BitstreamVeraSans-Roman-74"/>
      <path d="
M44.2812 53.0781
L44.2812 44.5781
Q40.4844 46.5312 36.375 47.5
Q32.2812 48.4844 27.875 48.4844
Q21.1875 48.4844 17.8438 46.4375
Q14.5 44.3906 14.5 40.2812
Q14.5 37.1562 16.8906 35.375
Q19.2812 33.5938 26.5156 31.9844
L29.5938 31.2969
Q39.1562 29.25 43.1875 25.5156
Q47.2188 21.7812 47.2188 15.0938
Q47.2188 7.46875 41.1875 3.01562
Q35.1562 -1.42188 24.6094 -1.42188
Q20.2188 -1.42188 15.4531 -0.5625
Q10.6875 0.296875 5.42188 2
L5.42188 11.2812
Q10.4062 8.6875 15.2344 7.39062
Q20.0625 6.10938 24.8125 6.10938
Q31.1562 6.10938 34.5625 8.28125
Q37.9844 10.4531 37.9844 14.4062
Q37.9844 18.0625 35.5156 20.0156
Q33.0625 21.9688 24.7031 23.7812
L21.5781 24.5156
Q13.2344 26.2656 9.51562 29.9062
Q5.8125 33.5469 5.8125 39.8906
Q5.8125 47.6094 11.2812 51.7969
Q16.75 56 26.8125 56
Q31.7812 56 36.1719 55.2656
Q40.5781 54.5469 44.2812 53.0781" id="BitstreamVeraSans-Roman-73"/>
      <path d="
M52 44.1875
Q55.375 50.25 60.0625 53.125
Q64.75 56 71.0938 56
Q79.6406 56 84.2812 50.0156
Q88.9219 44.0469 88.9219 33.0156
L88.9219 0
L79.8906 0
L79.8906 32.7188
Q79.8906 40.5781 77.0938 44.375
Q74.3125 48.1875 68.6094 48.1875
Q61.625 48.1875 57.5625 43.5469
Q53.5156 38.9219 53.5156 30.9062
L53.5156 0
L44.4844 0
L44.4844 32.7188
Q44.4844 40.625 41.7031 44.4062
Q38.9219 48.1875 33.1094 48.1875
Q26.2188 48.1875 22.1562 43.5312
Q18.1094 38.875 18.1094 30.9062
L18.1094 0
L9.07812 0
L9.07812 54.6875
L18.1094 54.6875
L18.1094 46.1875
Q21.1875 51.2188 25.4844 53.6094
Q29.7812 56 35.6875 56
Q41.6562 56 45.8281 52.9688
Q50 49.9531 52 44.1875" id="BitstreamVeraSans-Roman-6d"/>
      <path id="BitstreamVeraSans-Roman-20"/>
     </defs>
     <g transform="translate(425.9353125 612.931875)scale(0.12 -0.12)">
      <use xlink:href="#BitstreamVeraSans-Roman-74"/>
      <use x="39.208984375" xlink:href="#BitstreamVeraSans-Roman-20"/>
      <use x="70.99609375" xlink:href="#BitstreamVeraSans-Roman-2f"/>
      <use x="104.6875" xlink:href="#BitstreamVeraSans-Roman-20"/>
      <use x="136.474609375" xlink:href="#BitstreamVeraSans-Roman-6d"/>
      <use x="233.88671875" xlink:href="#BitstreamVeraSans-Roman-73"/>
     </g>
    </g>
   </g>
   <g id="matplotlib.axis_2">
    <g id="ytick_1">
     <g id="line2d_14">
      <defs>
       <path d="
M0 0
L4 0" id="md7965d1ba0" style="stroke:#000000;stroke-width:0.5;"/>
      </defs>
      <g>
       <use style="stroke:#000000;stroke-width:0.5;" x="108.0" xlink:href="#md7965d1ba0" y="583.2"/>
      </g>
     </g>
     <g id="line2d_15">
      <defs>
       <path d="
M0 0
L-4 0" id="md9a1c1a7cd" style="stroke:#000000;stroke-width:0.5;"/>
      </defs>
      <g>
       <use style="stroke:#000000;stroke-width:0.5;" x="777.6" xlink:href="#md9a1c1a7cd" y="583.2"/>
      </g>
     </g>
     <g id="text_7">
      <!-- 0 -->
      <g transform="translate(97.953125 586.51125)scale(0.12 -0.12)">
       <use xlink:href="#BitstreamVeraSans-Roman-30"/>
      </g>
     </g>
    </g>
    <g id="ytick_2">
     <g id="line2d_16">
      <g>
       <use style="stroke:#000000;stroke-width:0.5;" x="108.0" xlink:href="#md7965d1ba0" y="518.4"/>
      </g>
     </g>
     <g id="line2d_17">
      <g>
       <use style="stroke:#000000;stroke-width:0.5;" x="777.6" xlink:href="#md9a1c1a7cd" y="518.4"/>
      </g>
     </g>
     <g id="text_8">
      <!-- 20 -->
      <g transform="translate(90.40625 521.71125)scale(0.12 -0.12)">
       <use xlink:href="#BitstreamVeraSans-Roman-32"/>
       <use x="63.623046875" xlink:href="#BitstreamVeraSans-Roman-30"/>
      </g>
     </g>
    </g>
    <g id="ytick_3">
     <g id="line2d_18">
      <g>
       <use style="stroke:#000000;stroke-width:0.5;" x="108.0" xlink:href="#md7965d1ba0" y="453.6"/>
      </g>
     </g>
     <g id="line2d_19">
      <g>
       <use style="stroke:#000000;stroke-width:0.5;" x="777.6" xlink:href="#md9a1c1a7cd" y="453.6"/>
      </g>
     </g>
     <g id="text_9">
      <!-- 40 -->
      <defs>
       <path d="
M37.7969 64.3125
L12.8906 25.3906
L37.7969 25.3906
z

M35.2031 72.9062
L47.6094 72.9062
L47.6094 25.3906
L58.0156 25.3906
L58.0156 17.1875
L47.6094 17.1875
L47.6094 0
L37.7969 0
L37.7969 17.1875
L4.89062 17.1875
L4.89062 26.7031
z
" id="BitstreamVeraSans-Roman-34"/>
      </defs>
      <g transform="translate(90.11375 456.91125)scale(0.12 -0.12)">
       <use xlink:href="#BitstreamVeraSans-Roman-34"/>
       <use x="63.623046875" xlink:href="#BitstreamVeraSans-Roman-30"/>
      </g>
     </g>
    </g>
    <g id="ytick_4">
     <g id="line2d_20">
      <g>
       <use style="stroke:#000000;stroke-width:0.5;" x="108.0" xlink:href="#md7965d1ba0" y="388.8"/>
      </g>
     </g>
     <g id="line2d_21">
      <g>
       <use style="stroke:#000000;stroke-width:0.5;" x="777.6" xlink:href="#md9a1c1a7cd" y="388.8"/>
      </g>
     </g>
     <g id="text_10">
      <!-- 60 -->
      <defs>
       <path d="
M33.0156 40.375
Q26.375 40.375 22.4844 35.8281
Q18.6094 31.2969 18.6094 23.3906
Q18.6094 15.5312 22.4844 10.9531
Q26.375 6.39062 33.0156 6.39062
Q39.6562 6.39062 43.5312 10.9531
Q47.4062 15.5312 47.4062 23.3906
Q47.4062 31.2969 43.5312 35.8281
Q39.6562 40.375 33.0156 40.375
M52.5938 71.2969
L52.5938 62.3125
Q48.875 64.0625 45.0938 64.9844
Q41.3125 65.9219 37.5938 65.9219
Q27.8281 65.9219 22.6719 59.3281
Q17.5312 52.7344 16.7969 39.4062
Q19.6719 43.6562 24.0156 45.9219
Q28.375 48.1875 33.5938 48.1875
Q44.5781 48.1875 50.9531 41.5156
Q57.3281 34.8594 57.3281 23.3906
Q57.3281 12.1562 50.6875 5.35938
Q44.0469 -1.42188 33.0156 -1.42188
Q20.3594 -1.42188 13.6719 8.26562
Q6.98438 17.9688 6.98438 36.375
Q6.98438 53.6562 15.1875 63.9375
Q23.3906 74.2188 37.2031 74.2188
Q40.9219 74.2188 44.7031 73.4844
Q48.4844 72.75 52.5938 71.2969" id="BitstreamVeraSans-Roman-36"/>
      </defs>
      <g transform="translate(90.365 392.11125)scale(0.12 -0.12)">
       <use xlink:href="#BitstreamVeraSans-Roman-36"/>
       <use x="63.623046875" xlink:href="#BitstreamVeraSans-Roman-30"/>
      </g>
     </g>
    </g>
    <g id="ytick_5">
     <g id="line2d_22">
      <g>
       <use style="stroke:#000000;stroke-width:0.5;" x="108.0" xlink:href="#md7965d1ba0" y="324.0"/>
      </g>
     </g>
     <g id="line2d_23">
      <g>
       <use style="stroke:#000000;stroke-width:0.5;" x="777.6" xlink:href="#md9a1c1a7cd" y="324.0"/>
      </g>
     </g>
     <g id="text_11">
      <!-- 80 -->
      <defs>
       <path d="
M31.7812 34.625
Q24.75 34.625 20.7188 30.8594
Q16.7031 27.0938 16.7031 20.5156
Q16.7031 13.9219 20.7188 10.1562
Q24.75 6.39062 31.7812 6.39062
Q38.8125 6.39062 42.8594 10.1719
Q46.9219 13.9688 46.9219 20.5156
Q46.9219 27.0938 42.8906 30.8594
Q38.875 34.625 31.7812 34.625
M21.9219 38.8125
Q15.5781 40.375 12.0312 44.7188
Q8.5 49.0781 8.5 55.3281
Q8.5 64.0625 14.7188 69.1406
Q20.9531 74.2188 31.7812 74.2188
Q42.6719 74.2188 48.875 69.1406
Q55.0781 64.0625 55.0781 55.3281
Q55.0781 49.0781 51.5312 44.7188
Q48 40.375 41.7031 38.8125
Q48.8281 37.1562 52.7969 32.3125
Q56.7812 27.4844 56.7812 20.5156
Q56.7812 9.90625 50.3125 4.23438
Q43.8438 -1.42188 31.7812 -1.42188
Q19.7344 -1.42188 13.25 4.23438
Q6.78125 9.90625 6.78125 20.5156
Q6.78125 27.4844 10.7812 32.3125
Q14.7969 37.1562 21.9219 38.8125
M18.3125 54.3906
Q18.3125 48.7344 21.8438 45.5625
Q25.3906 42.3906 31.7812 42.3906
Q38.1406 42.3906 41.7188 45.5625
Q45.3125 48.7344 45.3125 54.3906
Q45.3125 60.0625 41.7188 63.2344
Q38.1406 66.4062 31.7812 66.4062
Q25.3906 66.4062 21.8438 63.2344
Q18.3125 60.0625 18.3125 54.3906" id="BitstreamVeraSans-Roman-38"/>
      </defs>
      <g transform="translate(90.340625 327.31125)scale(0.12 -0.12)">
       <use xlink:href="#BitstreamVeraSans-Roman-38"/>
       <use x="63.623046875" xlink:href="#BitstreamVeraSans-Roman-30"/>
      </g>
     </g>
    </g>
    <g id="ytick_6">
     <g id="line2d_24">
      <g>
       <use style="stroke:#000000;stroke-width:0.5;" x="108.0" xlink:href="#md7965d1ba0" y="259.2"/>
      </g>
     </g>
     <g id="line2d_25">
      <g>
       <use style="stroke:#000000;stroke-width:0.5;" x="777.6" xlink:href="#md9a1c1a7cd" y="259.2"/>
      </g>
     </g>
     <g id="text_12">
      <!-- 100 -->
      <g transform="translate(83.21 262.51125)scale(0.12 -0.12)">
       <use xlink:href="#BitstreamVeraSans-Roman-31"/>
       <use x="63.623046875" xlink:href="#BitstreamVeraSans-Roman-30"/>
       <use x="127.24609375" xlink:href="#BitstreamVeraSans-Roman-30"/>
      </g>
     </g>
    </g>
    <g id="ytick_7">
     <g id="line2d_26">
      <g>
       <use style="stroke:#000000;stroke-width:0.5;" x="108.0" xlink:href="#md7965d1ba0" y="194.4"/>
      </g>
     </g>
     <g id="line2d_27">
      <g>
       <use style="stroke:#000000;stroke-width:0.5;" x="777.6" xlink:href="#md9a1c1a7cd" y="194.4"/>
      </g>
     </g>
     <g id="text_13">
      <!-- 120 -->
      <g transform="translate(83.21 197.71125)scale(0.12 -0.12)">
       <use xlink:href="#BitstreamVeraSans-Roman-31"/>
       <use x="63.623046875" xlink:href="#BitstreamVeraSans-Roman-32"/>
       <use x="127.24609375" xlink:href="#BitstreamVeraSans-Roman-30"/>
      </g>
     </g>
    </g>
    <g id="ytick_8">
     <g id="line2d_28">
      <g>
       <use style="stroke:#000000;stroke-width:0.5;" x="108.0" xlink:href="#md7965d1ba0" y="129.6"/>
      </g>
     </g>
     <g id="line2d_29">
      <g>
       <use style="stroke:#000000;stroke-width:0.5;" x="777.6" xlink:href="#md9a1c1a7cd" y="129.6"/>
      </g>
     </g>
     <g id="text_14">
      <!-- 140 -->
      <g transform="translate(83.21 132.91125)scale(0.12 -0.12)">
       <use xlink:href="#BitstreamVeraSans-Roman-31"/>
       <use x="63.623046875" xlink:href="#BitstreamVeraSans-Roman-34"/>
       <use x="127.24609375" xlink:href="#BitstreamVeraSans-Roman-30"/>
      </g>
     </g>
    </g>
    <g id="ytick_9">
     <g id="line2d_30">
      <g>
       <use style="stroke:#000000;stroke-width:0.5;" x="108.0" xlink:href="#md7965d1ba0" y="64.8"/>
      </g>
     </g>
     <g id="line2d_31">
      <g>
       <use style="stroke:#000000;stroke-width:0.5;" x="777.6" xlink:href="#md9a1c1a7cd" y="64.8"/>
      </g>
     </g>
     <g id="text_15">
      <!-- 160 -->
      <g transform="translate(83.21 68.11125)scale(0.12 -0.12)">
       <use xlink:href="#BitstreamVeraSans-Roman-31"/>
       <use x="63.623046875" xlink:href="#BitstreamVeraSans-Roman-36"/>
       <use x="127.24609375" xlink:href="#BitstreamVeraSans-Roman-30"/>
      </g>
     </g>
    </g>
    <g id="text_16">
     <!-- particle numbers -->
     <defs>
      <path d="
M34.2812 27.4844
Q23.3906 27.4844 19.1875 25
Q14.9844 22.5156 14.9844 16.5
Q14.9844 11.7188 18.1406 8.90625
Q21.2969 6.10938 26.7031 6.10938
Q34.1875 6.10938 38.7031 11.4062
Q43.2188 16.7031 43.2188 25.4844
L43.2188 27.4844
z

M52.2031 31.2031
L52.2031 0
L43.2188 0
L43.2188 8.29688
Q40.1406 3.32812 35.5469 0.953125
Q30.9531 -1.42188 24.3125 -1.42188
Q15.9219 -1.42188 10.9531 3.29688
Q6 8.01562 6 15.9219
Q6 25.1406 12.1719 29.8281
Q18.3594 34.5156 30.6094 34.5156
L43.2188 34.5156
L43.2188 35.4062
Q43.2188 41.6094 39.1406 45
Q35.0625 48.3906 27.6875 48.3906
Q23 48.3906 18.5469 47.2656
Q14.1094 46.1406 10.0156 43.8906
L10.0156 52.2031
Q14.9375 54.1094 19.5781 55.0469
Q24.2188 56 28.6094 56
Q40.4844 56 46.3438 49.8438
Q52.2031 43.7031 52.2031 31.2031" id="BitstreamVeraSans-Roman-61"/>
      <path d="
M9.42188 75.9844
L18.4062 75.9844
L18.4062 0
L9.42188 0
z
" id="BitstreamVeraSans-Roman-6c"/>
      <path d="
M48.6875 27.2969
Q48.6875 37.2031 44.6094 42.8438
Q40.5312 48.4844 33.4062 48.4844
Q26.2656 48.4844 22.1875 42.8438
Q18.1094 37.2031 18.1094 27.2969
Q18.1094 17.3906 22.1875 11.75
Q26.2656 6.10938 33.4062 6.10938
Q40.5312 6.10938 44.6094 11.75
Q48.6875 17.3906 48.6875 27.2969
M18.1094 46.3906
Q20.9531 51.2656 25.2656 53.625
Q29.5938 56 35.5938 56
Q45.5625 56 51.7812 48.0938
Q58.0156 40.1875 58.0156 27.2969
Q58.0156 14.4062 51.7812 6.48438
Q45.5625 -1.42188 35.5938 -1.42188
Q29.5938 -1.42188 25.2656 0.953125
Q20.9531 3.32812 18.1094 8.20312
L18.1094 0
L9.07812 0
L9.07812 75.9844
L18.1094 75.9844
z
" id="BitstreamVeraSans-Roman-62"/>
      <path d="
M54.8906 33.0156
L54.8906 0
L45.9062 0
L45.9062 32.7188
Q45.9062 40.4844 42.875 44.3281
Q39.8438 48.1875 33.7969 48.1875
Q26.5156 48.1875 22.3125 43.5469
Q18.1094 38.9219 18.1094 30.9062
L18.1094 0
L9.07812 0
L9.07812 54.6875
L18.1094 54.6875
L18.1094 46.1875
Q21.3438 51.125 25.7031 53.5625
Q30.0781 56 35.7969 56
Q45.2188 56 50.0469 50.1719
Q54.8906 44.3438 54.8906 33.0156" id="BitstreamVeraSans-Roman-6e"/>
      <path d="
M8.5 21.5781
L8.5 54.6875
L17.4844 54.6875
L17.4844 21.9219
Q17.4844 14.1562 20.5 10.2656
Q23.5312 6.39062 29.5938 6.39062
Q36.8594 6.39062 41.0781 11.0312
Q45.3125 15.6719 45.3125 23.6875
L45.3125 54.6875
L54.2969 54.6875
L54.2969 0
L45.3125 0
L45.3125 8.40625
Q42.0469 3.42188 37.7188 1
Q33.4062 -1.42188 27.6875 -1.42188
Q18.2656 -1.42188 13.375 4.4375
Q8.5 10.2969 8.5 21.5781" id="BitstreamVeraSans-Roman-75"/>
      <path d="
M48.7812 52.5938
L48.7812 44.1875
Q44.9688 46.2969 41.1406 47.3438
Q37.3125 48.3906 33.4062 48.3906
Q24.6562 48.3906 19.8125 42.8438
Q14.9844 37.3125 14.9844 27.2969
Q14.9844 17.2812 19.8125 11.7344
Q24.6562 6.20312 33.4062 6.20312
Q37.3125 6.20312 41.1406 7.25
Q44.9688 8.29688 48.7812 10.4062
L48.7812 2.09375
Q45.0156 0.34375 40.9844 -0.53125
Q36.9688 -1.42188 32.4219 -1.42188
Q20.0625 -1.42188 12.7812 6.34375
Q5.51562 14.1094 5.51562 27.2969
Q5.51562 40.6719 12.8594 48.3281
Q20.2188 56 33.0156 56
Q37.1562 56 41.1094 55.1406
Q45.0625 54.2969 48.7812 52.5938" id="BitstreamVeraSans-Roman-63"/>
      <path d="
M56.2031 29.5938
L56.2031 25.2031
L14.8906 25.2031
Q15.4844 15.9219 20.4844 11.0625
Q25.4844 6.20312 34.4219 6.20312
Q39.5938 6.20312 44.4531 7.46875
Q49.3125 8.73438 54.1094 11.2812
L54.1094 2.78125
Q49.2656 0.734375 44.1875 -0.34375
Q39.1094 -1.42188 33.8906 -1.42188
Q20.7969 -1.42188 13.1562 6.1875
Q5.51562 13.8125 5.51562 26.8125
Q5.51562 40.2344 12.7656 48.1094
Q20.0156 56 32.3281 56
Q43.3594 56 49.7812 48.8906
Q56.2031 41.7969 56.2031 29.5938
M47.2188 32.2344
Q47.125 39.5938 43.0938 43.9844
Q39.0625 48.3906 32.4219 48.3906
Q24.9062 48.3906 20.3906 44.1406
Q15.875 39.8906 15.1875 32.1719
z
" id="BitstreamVeraSans-Roman-65"/>
      <path d="
M18.1094 8.20312
L18.1094 -20.7969
L9.07812 -20.7969
L9.07812 54.6875
L18.1094 54.6875
L18.1094 46.3906
Q20.9531 51.2656 25.2656 53.625
Q29.5938 56 35.5938 56
Q45.5625 56 51.7812 48.0938
Q58.0156 40.1875 58.0156 27.2969
Q58.0156 14.4062 51.7812 6.48438
Q45.5625 -1.42188 35.5938 -1.42188
Q29.5938 -1.42188 25.2656 0.953125
Q20.9531 3.32812 18.1094 8.20312
M48.6875 27.2969
Q48.6875 37.2031 44.6094 42.8438
Q40.5312 48.4844 33.4062 48.4844
Q26.2656 48.4844 22.1875 42.8438
Q18.1094 37.2031 18.1094 27.2969
Q18.1094 17.3906 22.1875 11.75
Q26.2656 6.10938 33.4062 6.10938
Q40.5312 6.10938 44.6094 11.75
Q48.6875 17.3906 48.6875 27.2969" id="BitstreamVeraSans-Roman-70"/>
      <path d="
M41.1094 46.2969
Q39.5938 47.1719 37.8125 47.5781
Q36.0312 48 33.8906 48
Q26.2656 48 22.1875 43.0469
Q18.1094 38.0938 18.1094 28.8125
L18.1094 0
L9.07812 0
L9.07812 54.6875
L18.1094 54.6875
L18.1094 46.1875
Q20.9531 51.1719 25.4844 53.5781
Q30.0312 56 36.5312 56
Q37.4531 56 38.5781 55.875
Q39.7031 55.7656 41.0625 55.5156
z
" id="BitstreamVeraSans-Roman-72"/>
      <path d="
M9.42188 54.6875
L18.4062 54.6875
L18.4062 0
L9.42188 0
z

M9.42188 75.9844
L18.4062 75.9844
L18.4062 64.5938
L9.42188 64.5938
z
" id="BitstreamVeraSans-Roman-69"/>
     </defs>
     <g transform="translate(75.714375 374.78625)rotate(-90.0)scale(0.12 -0.12)">
      <use xlink:href="#BitstreamVeraSans-Roman-70"/>
      <use x="63.4765625" xlink:href="#BitstreamVeraSans-Roman-61"/>
      <use x="124.755859375" xlink:href="#BitstreamVeraSans-Roman-72"/>
      <use x="165.869140625" xlink:href="#BitstreamVeraSans-Roman-74"/>
      <use x="205.078125" xlink:href="#BitstreamVeraSans-Roman-69"/>
      <use x="232.861328125" xlink:href="#BitstreamVeraSans-Roman-63"/>
      <use x="287.841796875" xlink:href="#BitstreamVeraSans-Roman-6c"/>
      <use x="315.625" xlink:href="#BitstreamVeraSans-Roman-65"/>
      <use x="377.1484375" xlink:href="#BitstreamVeraSans-Roman-20"/>
      <use x="408.935546875" xlink:href="#BitstreamVeraSans-Roman-6e"/>
      <use x="472.314453125" xlink:href="#BitstreamVeraSans-Roman-75"/>
      <use x="535.693359375" xlink:href="#BitstreamVeraSans-Roman-6d"/>
      <use x="633.10546875" xlink:href="#BitstreamVeraSans-Roman-62"/>
      <use x="696.58203125" xlink:href="#BitstreamVeraSans-Roman-65"/>
      <use x="758.10546875" xlink:href="#BitstreamVeraSans-Roman-72"/>
      <use x="799.21875" xlink:href="#BitstreamVeraSans-Roman-73"/>
     </g>
    </g>
   </g>
   <g id="legend_1">
    <g id="patch_7">
     <path d="
M111.5 101.224
L188.776 101.224
L188.776 68.3
L111.5 68.3
z
" style="fill:#ffffff;stroke:#000000;stroke-linejoin:miter;"/>
    </g>
    <g id="line2d_32">
     <path d="
M116.4 73.9689
L126.2 73.9689" style="fill:none;stroke:#ff0000;stroke-linecap:square;"/>
    </g>
    <g id="line2d_33"/>
    <g id="text_17">
     <!-- PDE2cAMP el.0 -->
     <defs>
      <path d="
M9.8125 72.9062
L55.9062 72.9062
L55.9062 64.5938
L19.6719 64.5938
L19.6719 43.0156
L54.3906 43.0156
L54.3906 34.7188
L19.6719 34.7188
L19.6719 8.29688
L56.7812 8.29688
L56.7812 0
L9.8125 0
z
" id="BitstreamVeraSans-Roman-45"/>
      <path d="
M9.8125 72.9062
L24.5156 72.9062
L43.1094 23.2969
L61.8125 72.9062
L76.5156 72.9062
L76.5156 0
L66.8906 0
L66.8906 64.0156
L48.0938 14.0156
L38.1875 14.0156
L19.3906 64.0156
L19.3906 0
L9.8125 0
z
" id="BitstreamVeraSans-Roman-4d"/>
      <path d="
M34.1875 63.1875
L20.7969 26.9062
L47.6094 26.9062
z

M28.6094 72.9062
L39.7969 72.9062
L67.5781 0
L57.3281 0
L50.6875 18.7031
L17.8281 18.7031
L11.1875 0
L0.78125 0
z
" id="BitstreamVeraSans-Roman-41"/>
      <path d="
M19.6719 64.7969
L19.6719 37.4062
L32.0781 37.4062
Q38.9688 37.4062 42.7188 40.9688
Q46.4844 44.5312 46.4844 51.125
Q46.4844 57.6719 42.7188 61.2344
Q38.9688 64.7969 32.0781 64.7969
z

M9.8125 72.9062
L32.0781 72.9062
Q44.3438 72.9062 50.6094 67.3594
Q56.8906 61.8125 56.8906 51.125
Q56.8906 40.3281 50.6094 34.8125
Q44.3438 29.2969 32.0781 29.2969
L19.6719 29.2969
L19.6719 0
L9.8125 0
z
" id="BitstreamVeraSans-Roman-50"/>
      <path d="
M19.6719 64.7969
L19.6719 8.10938
L31.5938 8.10938
Q46.6875 8.10938 53.6875 14.9375
Q60.6875 21.7812 60.6875 36.5312
Q60.6875 51.1719 53.6875 57.9844
Q46.6875 64.7969 31.5938 64.7969
z

M9.8125 72.9062
L30.0781 72.9062
Q51.2656 72.9062 61.1719 64.0938
Q71.0938 55.2812 71.0938 36.5312
Q71.0938 17.6719 61.125 8.82812
Q51.1719 0 30.0781 0
L9.8125 0
z
" id="BitstreamVeraSans-Roman-44"/>
      <path d="
M10.6875 12.4062
L21 12.4062
L21 0
L10.6875 0
z
" id="BitstreamVeraSans-Roman-2e"/>
     </defs>
     <g transform="translate(133.9 76.41890625)scale(0.07 -0.07)">
      <use xlink:href="#BitstreamVeraSans-Roman-50"/>
      <use x="60.302734375" xlink:href="#BitstreamVeraSans-Roman-44"/>
      <use x="137.3046875" xlink:href="#BitstreamVeraSans-Roman-45"/>
      <use x="200.48828125" xlink:href="#BitstreamVeraSans-Roman-32"/>
      <use x="264.111328125" xlink:href="#BitstreamVeraSans-Roman-63"/>
      <use x="319.091796875" xlink:href="#BitstreamVeraSans-Roman-41"/>
      <use x="387.5" xlink:href="#BitstreamVeraSans-Roman-4d"/>
      <use x="473.779296875" xlink:href="#BitstreamVeraSans-Roman-50"/>
      <use x="534.08203125" xlink:href="#BitstreamVeraSans-Roman-20"/>
      <use x="565.869140625" xlink:href="#BitstreamVeraSans-Roman-65"/>
      <use x="627.392578125" xlink:href="#BitstreamVeraSans-Roman-6c"/>
      <use x="655.17578125" xlink:href="#BitstreamVeraSans-Roman-2e"/>
      <use x="686.962890625" xlink:href="#BitstreamVeraSans-Roman-30"/>
     </g>
    </g>
    <g id="line2d_34">
     <path d="
M116.4 84.2436
L126.2 84.2436" style="fill:none;stroke:#008000;stroke-linecap:square;"/>
    </g>
    <g id="line2d_35"/>
    <g id="text_18">
     <!-- PDE2cAMP el.1 -->
     <g transform="translate(133.9 86.69359375)scale(0.07 -0.07)">
      <use xlink:href="#BitstreamVeraSans-Roman-50"/>
      <use x="60.302734375" xlink:href="#BitstreamVeraSans-Roman-44"/>
      <use x="137.3046875" xlink:href="#BitstreamVeraSans-Roman-45"/>
      <use x="200.48828125" xlink:href="#BitstreamVeraSans-Roman-32"/>
      <use x="264.111328125" xlink:href="#BitstreamVeraSans-Roman-63"/>
      <use x="319.091796875" xlink:href="#BitstreamVeraSans-Roman-41"/>
      <use x="387.5" xlink:href="#BitstreamVeraSans-Roman-4d"/>
      <use x="473.779296875" xlink:href="#BitstreamVeraSans-Roman-50"/>
      <use x="534.08203125" xlink:href="#BitstreamVeraSans-Roman-20"/>
      <use x="565.869140625" xlink:href="#BitstreamVeraSans-Roman-65"/>
      <use x="627.392578125" xlink:href="#BitstreamVeraSans-Roman-6c"/>
      <use x="655.17578125" xlink:href="#BitstreamVeraSans-Roman-2e"/>
      <use x="686.962890625" xlink:href="#BitstreamVeraSans-Roman-31"/>
     </g>
    </g>
    <g id="line2d_36">
     <path d="
M116.4 94.5183
L126.2 94.5183" style="fill:none;stroke:#0000ff;stroke-linecap:square;"/>
    </g>
    <g id="line2d_37"/>
    <g id="text_19">
     <!-- PDE2cAMP el.2 -->
     <g transform="translate(133.9 96.96828125)scale(0.07 -0.07)">
      <use xlink:href="#BitstreamVeraSans-Roman-50"/>
      <use x="60.302734375" xlink:href="#BitstreamVeraSans-Roman-44"/>
      <use x="137.3046875" xlink:href="#BitstreamVeraSans-Roman-45"/>
      <use x="200.48828125" xlink:href="#BitstreamVeraSans-Roman-32"/>
      <use x="264.111328125" xlink:href="#BitstreamVeraSans-Roman-63"/>
      <use x="319.091796875" xlink:href="#BitstreamVeraSans-Roman-41"/>
      <use x="387.5" xlink:href="#BitstreamVeraSans-Roman-4d"/>
      <use x="473.779296875" xlink:href="#BitstreamVeraSans-Roman-50"/>
      <use x="534.08203125" xlink:href="#BitstreamVeraSans-Roman-20"/>
      <use x="565.869140625" xlink:href="#BitstreamVeraSans-Roman-65"/>
      <use x="627.392578125" xlink:href="#BitstreamVeraSans-Roman-6c"/>
      <use x="655.17578125" xlink:href="#BitstreamVeraSans-Roman-2e"/>
      <use x="686.962890625" xlink:href="#BitstreamVeraSans-Roman-32"/>
     </g>
    </g>
   </g>
  </g>
 </g>
 <defs>
  <clipPath id="p7ceb695115">
   <rect height="518.4" width="669.6" x="108.0" y="64.8"/>
  </clipPath>
 </defs>
</svg>
