<?xml version="1.0" encoding="utf-8" standalone="no"?>
<!DOCTYPE svg PUBLIC "-//W3C//DTD SVG 1.1//EN"
  "http://www.w3.org/Graphics/SVG/1.1/DTD/svg11.dtd">
<!-- Created with matplotlib (http://matplotlib.org/) -->
<svg height="648pt" version="1.1" viewBox="0 0 864 648" width="864pt" xmlns="http://www.w3.org/2000/svg" xmlns:xlink="http://www.w3.org/1999/xlink">
 <defs>
  <style type="text/css">
*{stroke-linecap:butt;stroke-linejoin:round;}
  </style>
 </defs>
 <g id="figure_1">
  <g id="patch_1">
   <path d="
M0 648
L864 648
L864 0
L0 0
z
" style="fill:#ffffff;"/>
  </g>
  <g id="axes_1">
   <g id="patch_2">
    <path d="
M108 583.2
L777.6 583.2
L777.6 64.8
L108 64.8
z
" style="fill:#ffffff;"/>
   </g>
   <g id="line2d_1">
    <path clip-path="url(#p7ceb695115)" d="
M108 583.2
L170.273 583.2
L170.942 581.719
L171.612 583.2
L172.282 583.2
L173.621 580.238
L174.29 583.2
L175.63 583.2
L176.299 581.719
L178.978 581.719
L179.647 580.238
L180.317 583.2
L180.986 581.719
L181.656 583.2
L185.004 583.2
L185.674 581.719
L186.343 581.719
L187.013 583.2
L187.682 581.719
L188.352 583.2
L189.022 581.719
L189.691 583.2
L193.039 583.2
L194.378 580.238
L195.048 580.238
L196.387 583.2
L197.057 581.719
L198.396 581.719
L199.066 578.757
L200.405 581.719
L201.074 580.238
L202.414 580.238
L203.753 583.2
L204.422 583.2
L205.092 580.238
L205.762 580.238
L206.431 578.757
L207.101 583.2
L207.77 581.719
L208.44 583.2
L209.11 583.2
L209.779 580.238
L211.118 583.2
L211.788 580.238
L212.458 580.238
L213.127 581.719
L213.797 580.238
L214.466 581.719
L215.136 581.719
L215.806 580.238
L216.475 580.238
L217.145 581.719
L217.814 581.719
L218.484 583.2
L220.493 583.2
L221.162 580.238
L221.832 580.238
L222.502 583.2
L223.171 580.238
L223.841 581.719
L224.51 580.238
L225.85 583.2
L227.189 580.238
L227.858 581.719
L228.528 580.238
L229.198 580.238
L229.867 583.2
L231.876 578.757
L232.546 581.719
L233.215 580.238
L234.554 583.2
L235.894 580.238
L236.563 575.794
L237.902 581.719
L238.572 578.757
L239.242 580.238
L239.911 578.757
L240.581 580.238
L241.25 580.238
L241.92 578.757
L242.59 580.238
L243.259 578.757
L243.929 578.757
L244.598 581.719
L245.268 581.719
L245.938 578.757
L246.607 580.238
L247.277 580.238
L247.946 581.719
L248.616 580.238
L249.955 580.238
L250.625 578.757
L251.294 583.2
L251.964 581.719
L252.634 581.719
L253.303 583.2
L253.973 583.2
L255.312 580.238
L255.982 583.2
L257.321 580.238
L257.99 581.719
L259.33 581.719
L259.999 583.2
L261.338 583.2
L262.008 580.238
L262.678 583.2
L265.356 583.2
L266.026 578.757
L266.695 581.719
L268.034 578.757
L269.374 581.719
L270.713 581.719
L271.382 578.757
L272.052 583.2
L274.061 583.2
L274.73 580.238
L276.07 583.2
L276.739 581.719
L278.078 581.719
L278.748 583.2
L279.418 580.238
L280.087 578.757
L280.757 580.238
L282.096 577.275
L282.766 583.2
L283.435 581.719
L284.774 581.719
L285.444 583.2
L286.783 583.2
L287.453 581.719
L288.122 577.275
L288.792 581.719
L289.462 583.2
L290.131 581.719
L291.47 581.719
L292.14 580.238
L292.81 580.238
L293.479 581.719
L294.818 578.757
L295.488 580.238
L296.158 580.238
L296.827 577.275
L297.497 581.719
L298.166 581.719
L298.836 583.2
L299.506 578.757
L300.845 578.757
L301.514 583.2
L302.184 583.2
L302.854 581.719
L303.523 578.757
L304.193 577.275
L304.862 578.757
L305.532 578.757
L306.202 583.2
L308.21 583.2
L308.88 580.238
L309.55 578.757
L310.219 583.2
L310.889 578.757
L311.558 581.719
L312.228 580.238
L312.898 581.719
L313.567 581.719
L314.237 580.238
L314.906 583.2
L315.576 580.238
L316.246 580.238
L316.915 583.2
L319.594 583.2
L320.263 577.275
L320.933 580.238
L322.272 583.2
L322.942 581.719
L323.611 583.2
L326.959 583.2
L328.298 580.238
L328.968 580.238
L329.638 581.719
L330.307 580.238
L330.977 581.719
L331.646 581.719
L332.316 580.238
L334.325 580.238
L334.994 583.2
L335.664 580.238
L336.334 583.2
L338.342 583.2
L339.012 581.719
L339.682 581.719
L340.351 578.757
L341.021 578.757
L341.69 581.719
L342.36 581.719
L343.03 580.238
L345.708 580.238
L346.378 583.2
L347.047 580.238
L347.717 578.757
L349.056 581.719
L349.726 581.719
L350.395 580.238
L351.065 580.238
L351.734 583.2
L352.404 583.2
L353.074 580.238
L353.743 581.719
L354.413 581.719
L355.082 583.2
L355.752 581.719
L356.422 583.2
L357.091 581.719
L357.761 583.2
L358.43 581.719
L360.439 581.719
L361.109 580.238
L361.778 580.238
L362.448 581.719
L363.118 581.719
L363.787 583.2
L364.457 583.2
L365.126 580.238
L367.135 580.238
L367.805 583.2
L368.474 583.2
L369.144 581.719
L369.814 583.2
L370.483 581.719
L371.822 581.719
L372.492 583.2
L373.162 583.2
L374.501 580.238
L375.17 583.2
L376.51 583.2
L377.179 581.719
L377.849 581.719
L378.518 583.2
L379.188 581.719
L379.858 581.719
L380.527 583.2
L382.536 578.757
L383.875 581.719
L385.884 581.719
L386.554 580.238
L387.223 577.275
L387.893 581.719
L388.562 583.2
L389.902 583.2
L390.571 580.238
L391.241 580.238
L392.58 583.2
L394.589 583.2
L395.258 581.719
L395.928 583.2
L396.598 581.719
L397.937 581.719
L398.606 580.238
L399.276 580.238
L399.946 583.2
L400.615 581.719
L401.285 581.719
L401.954 583.2
L402.624 581.719
L403.963 581.719
L404.633 578.757
L405.302 580.238
L405.972 583.2
L406.642 583.2
L407.311 581.719
L407.981 581.719
L408.65 580.238
L409.99 583.2
L410.659 581.719
L411.998 581.719
L412.668 583.2
L413.338 581.719
L414.677 581.719
L415.346 583.2
L416.016 580.238
L416.686 583.2
L418.025 580.238
L418.694 583.2
L420.034 583.2
L420.703 581.719
L421.373 581.719
L422.042 580.238
L422.712 581.719
L423.382 581.719
L424.051 583.2
L425.39 583.2
L426.06 581.719
L426.73 583.2
L427.399 580.238
L428.069 581.719
L428.738 581.719
L429.408 583.2
L430.747 580.238
L431.417 581.719
L432.086 581.719
L432.756 583.2
L433.426 583.2
L434.095 581.719
L434.765 583.2
L435.434 581.719
L436.104 583.2
L439.452 583.2
L440.122 581.719
L440.791 583.2
L441.461 583.2
L442.13 581.719
L443.47 581.719
L444.139 583.2
L444.809 581.719
L445.478 583.2
L446.818 583.2
L447.487 578.757
L448.157 578.757
L448.826 575.794
L449.496 568.389
L450.166 572.832
L450.835 565.426
L451.505 566.907
L452.174 546.171
L453.514 526.917
L454.183 507.662
L454.853 512.105
L455.522 513.586
L456.192 513.586
L456.862 497.294
L457.531 503.218
L458.201 500.256
L458.87 501.737
L460.21 454.341
L460.879 475.077
L462.218 489.888
L462.888 457.303
L463.558 445.454
L464.227 473.595
L464.897 488.407
L465.566 500.256
L466.236 452.859
L466.906 458.784
L467.575 482.482
L468.245 463.227
L468.914 495.813
L469.584 488.407
L470.254 454.341
L470.923 464.709
L471.593 458.784
L472.262 460.265
L472.932 445.454
L473.602 469.152
L474.271 464.709
L474.941 479.52
L475.61 460.265
L476.28 479.52
L476.95 436.567
L477.619 486.926
L478.289 470.633
L478.958 469.152
L479.628 473.595
L480.298 473.595
L480.967 481.001
L481.637 478.039
L482.306 433.605
L482.976 463.227
L483.646 467.671
L484.315 467.671
L484.985 469.152
L485.654 486.926
L486.324 458.784
L486.994 473.595
L487.663 472.114
L488.333 492.85
L489.002 472.114
L489.672 476.558
L490.342 485.445
L491.011 479.52
L491.681 475.077
L492.35 485.445
L493.02 473.595
L493.69 486.926
L494.359 494.331
L495.029 472.114
L495.698 485.445
L496.368 458.784
L497.038 475.077
L497.707 488.407
L498.377 482.482
L499.046 485.445
L499.716 500.256
L500.386 489.888
L501.055 516.549
L501.725 482.482
L502.394 475.077
L503.064 466.19
L503.734 485.445
L504.403 491.369
L505.073 473.595
L505.742 481.001
L506.412 494.331
L507.082 476.558
L507.751 483.963
L508.421 488.407
L509.09 498.775
L509.76 488.407
L510.43 489.888
L511.099 479.52
L511.769 479.52
L512.438 494.331
L513.108 449.897
L513.778 472.114
L515.117 489.888
L515.786 492.85
L516.456 486.926
L517.126 489.888
L517.795 504.699
L519.134 483.963
L520.474 495.813
L521.143 497.294
L521.813 488.407
L522.482 492.85
L523.152 486.926
L523.822 469.152
L525.161 478.039
L525.83 488.407
L526.5 486.926
L527.17 492.85
L527.839 466.19
L529.178 491.369
L529.848 501.737
L530.518 504.699
L531.187 506.181
L531.857 503.218
L532.526 486.926
L533.196 497.294
L533.866 512.105
L534.535 497.294
L535.205 510.624
L535.874 504.699
L536.544 485.445
L537.214 504.699
L537.883 495.813
L538.553 495.813
L539.222 500.256
L539.892 489.888
L540.562 494.331
L541.231 512.105
L541.901 513.586
L543.24 495.813
L543.91 501.737
L544.579 512.105
L545.249 486.926
L545.918 483.963
L546.588 515.067
L547.927 472.114
L548.597 507.662
L549.266 473.595
L549.936 492.85
L550.606 503.218
L551.275 503.218
L551.945 491.369
L552.614 489.888
L553.284 519.511
L553.954 507.662
L554.623 473.595
L555.293 519.511
L555.962 498.775
L556.632 472.114
L557.302 500.256
L557.971 482.482
L559.31 479.52
L559.98 495.813
L560.65 520.992
L561.319 489.888
L561.989 516.549
L562.658 466.19
L563.328 488.407
L563.998 485.445
L564.667 501.737
L565.337 515.067
L566.006 506.181
L566.676 482.482
L567.346 500.256
L568.015 494.331
L568.685 503.218
L569.354 500.256
L570.024 510.624
L570.694 509.143
L571.363 497.294
L572.033 507.662
L572.702 507.662
L573.372 498.775
L574.042 529.879
L574.711 507.662
L575.381 504.699
L576.05 492.85
L576.72 503.218
L577.39 495.813
L578.059 494.331
L578.729 494.331
L580.068 525.435
L580.738 495.813
L581.407 495.813
L582.077 504.699
L582.746 489.888
L583.416 491.369
L584.086 522.473
L585.425 481.001
L586.094 479.52
L586.764 494.331
L587.434 503.218
L588.103 520.992
L588.773 497.294
L589.442 516.549
L590.112 516.549
L590.782 515.067
L591.451 531.36
L592.121 503.218
L592.79 507.662
L593.46 510.624
L594.13 525.435
L595.469 500.256
L596.138 510.624
L596.808 509.143
L597.478 526.917
L598.147 503.218
L598.817 494.331
L599.486 486.926
L600.156 510.624
L600.826 501.737
L601.495 509.143
L602.165 504.699
L602.834 488.407
L603.504 523.954
L604.174 515.067
L604.843 523.954
L605.513 501.737
L606.182 503.218
L606.852 513.586
L607.522 501.737
L608.191 492.85
L608.861 518.03
L609.53 525.435
L610.2 522.473
L610.87 506.181
L611.539 513.586
L612.209 509.143
L612.878 498.775
L613.548 503.218
L614.218 488.407
L614.887 513.586
L615.557 504.699
L616.226 512.105
L616.896 512.105
L617.566 497.294
L618.905 522.473
L619.574 486.926
L620.244 519.511
L620.914 513.586
L621.583 526.917
L622.253 518.03
L622.922 523.954
L623.592 492.85
L624.262 512.105
L624.931 523.954
L625.601 519.511
L626.27 526.917
L626.94 529.879
L627.61 528.398
L628.279 503.218
L628.949 520.992
L629.618 513.586
L630.288 526.917
L630.958 522.473
L631.627 523.954
L632.297 516.549
L632.966 522.473
L633.636 520.992
L634.306 532.841
L634.975 532.841
L635.645 543.209
L636.314 535.803
L636.984 532.841
L637.654 532.841
L638.323 537.285
L638.993 532.841
L639.662 525.435
L640.332 516.549
L641.002 537.285
L641.671 541.728
L642.341 532.841
L643.01 522.473
L643.68 507.662
L644.35 507.662
L645.019 509.143
L645.689 513.586
L646.358 522.473
L647.028 515.067
L647.698 526.917
L648.367 523.954
L649.037 523.954
L649.706 528.398
L650.376 531.36
L651.046 523.954
L651.715 532.841
L652.385 531.36
L653.054 535.803
L653.724 537.285
L654.394 537.285
L655.063 525.435
L655.733 537.285
L656.402 523.954
L657.072 535.803
L657.742 534.322
L658.411 506.181
L659.081 528.398
L659.75 529.879
L660.42 518.03
L661.09 525.435
L661.759 525.435
L662.429 529.879
L663.098 522.473
L663.768 510.624
L664.438 503.218
L665.107 498.775
L665.777 500.256
L666.446 528.398
L667.116 526.917
L667.786 516.549
L668.455 534.322
L669.125 529.879
L669.794 526.917
L670.464 519.511
L671.134 538.766
L671.803 529.879
L672.473 535.803
L673.142 537.285
L673.812 522.473
L674.482 525.435
L675.151 509.143
L675.821 518.03
L676.49 522.473
L677.16 531.36
L677.83 528.398
L678.499 531.36
L679.169 535.803
L679.838 537.285
L680.508 543.209
L681.178 528.398
L681.847 534.322
L682.517 544.69
L683.186 549.134
L683.856 541.728
L684.526 531.36
L685.195 540.247
L685.865 537.285
L686.534 538.766
L687.204 544.69
L687.874 528.398
L688.543 541.728
L689.213 537.285
L689.882 541.728
L690.552 559.502
L691.222 532.841
L691.891 537.285
L692.561 544.69
L693.23 532.841
L693.9 543.209
L694.57 529.879
L695.239 547.653
L695.909 529.879
L696.578 528.398
L697.248 540.247
L697.918 543.209
L698.587 553.577
L699.257 559.502
L699.926 549.134
L700.596 549.134
L701.266 546.171
L701.935 544.69
L702.605 538.766
L703.274 549.134
L703.944 540.247
L704.614 549.134
L705.283 550.615
L705.953 541.728
L706.622 550.615
L707.292 556.539
L707.962 534.322
L708.631 523.954
L709.301 538.766
L709.97 549.134
L710.64 540.247
L711.31 547.653
L711.979 540.247
L712.649 565.426
L713.318 540.247
L713.988 541.728
L714.658 549.134
L715.327 552.096
L715.997 546.171
L716.666 552.096
L717.336 546.171
L718.006 558.021
L718.675 543.209
L719.345 556.539
L720.014 560.983
L720.684 555.058
L721.354 547.653
L722.023 526.917
L722.693 563.945
L723.362 553.577
L724.032 532.841
L724.702 544.69
L725.371 544.69
L726.041 547.653
L726.71 535.803
L727.38 540.247
L728.05 546.171
L728.719 550.615
L729.389 566.907
L730.058 535.803
L730.728 550.615
L731.398 544.69
L732.067 550.615
L732.737 543.209
L733.406 549.134
L734.076 552.096
L734.746 552.096
L735.415 550.615
L736.085 546.171
L736.754 552.096
L737.424 550.615
L738.094 550.615
L738.763 552.096
L739.433 565.426
L740.102 563.945
L740.772 543.209
L741.442 544.69
L742.111 552.096
L742.781 541.728
L744.12 566.907
L744.79 558.021
L745.459 550.615
L746.798 559.502
L747.468 555.058
L748.138 556.539
L748.807 555.058
L749.477 565.426
L750.146 552.096
L750.816 558.021
L751.486 555.058
L752.155 549.134
L753.494 566.907
L754.164 558.021
L754.834 562.464
L755.503 565.426
L756.173 559.502
L756.842 562.464
L758.182 562.464
L758.851 560.983
L759.521 553.577
L760.86 571.351
L761.53 559.502
L762.199 558.021
L762.869 563.945
L763.538 560.983
L764.208 566.907
L765.547 558.021
L766.217 558.021
L766.886 550.615
L768.226 572.832
L768.895 566.907
L769.565 556.539
L770.234 562.464
L770.904 566.907
L771.574 572.832
L772.243 562.464
L772.913 571.351
L773.582 566.907
L774.252 558.021
L775.591 566.907
L776.261 563.945
L776.93 569.87
L777.6 560.983
L777.6 560.983" style="fill:none;stroke:#ff0000;stroke-linecap:square;"/>
   </g>
   <g id="line2d_2">
    <path clip-path="url(#p7ceb695115)" d="
M108 583.2
L166.255 583.2
L167.594 580.238
L169.603 580.238
L170.942 583.2
L171.612 580.238
L172.282 580.238
L172.951 581.719
L173.621 580.238
L174.29 577.275
L174.96 577.275
L175.63 578.757
L178.978 578.757
L179.647 580.238
L180.317 577.275
L180.986 580.238
L181.656 578.757
L182.995 578.757
L183.665 577.275
L184.334 578.757
L185.004 577.275
L185.674 578.757
L186.343 578.757
L187.013 577.275
L187.682 578.757
L188.352 577.275
L189.022 578.757
L189.691 577.275
L190.361 577.275
L191.03 578.757
L191.7 578.757
L192.37 580.238
L193.039 577.275
L194.378 580.238
L195.048 580.238
L196.387 577.275
L197.057 578.757
L198.396 578.757
L199.066 581.719
L200.405 578.757
L201.074 580.238
L203.083 580.238
L203.753 577.275
L205.092 580.238
L205.762 578.757
L206.431 580.238
L207.101 575.794
L207.77 577.275
L208.44 574.313
L209.11 574.313
L210.449 580.238
L211.118 575.794
L212.458 581.719
L213.127 577.275
L213.797 578.757
L214.466 575.794
L215.136 577.275
L216.475 577.275
L217.145 575.794
L217.814 578.757
L218.484 578.757
L219.154 575.794
L220.493 575.794
L221.162 580.238
L221.832 580.238
L222.502 575.794
L223.171 577.275
L223.841 575.794
L224.51 571.351
L225.18 574.313
L225.85 571.351
L226.519 569.87
L227.189 569.87
L227.858 568.389
L228.528 574.313
L229.198 575.794
L230.537 575.794
L231.206 574.313
L231.876 575.794
L232.546 572.832
L233.885 572.832
L235.224 569.87
L236.563 575.794
L237.233 574.313
L237.902 574.313
L238.572 578.757
L239.242 574.313
L240.581 577.275
L241.25 574.313
L241.92 574.313
L243.259 577.275
L243.929 577.275
L245.268 571.351
L245.938 574.313
L246.607 574.313
L247.277 572.832
L247.946 574.313
L249.286 574.313
L250.625 577.275
L251.294 574.313
L251.964 574.313
L252.634 578.757
L253.973 575.794
L254.642 575.794
L255.312 577.275
L255.982 574.313
L256.651 577.275
L258.66 577.275
L259.33 575.794
L261.338 575.794
L262.008 580.238
L263.347 574.313
L264.017 577.275
L264.686 575.794
L265.356 575.794
L266.026 580.238
L266.695 575.794
L267.365 577.275
L268.034 581.719
L268.704 577.275
L269.374 575.794
L270.043 575.794
L270.713 578.757
L271.382 578.757
L272.052 577.275
L272.722 578.757
L273.391 574.313
L274.061 575.794
L274.73 578.757
L275.4 577.275
L276.07 574.313
L276.739 575.794
L277.409 575.794
L278.748 578.757
L279.418 581.719
L280.087 583.2
L280.757 577.275
L282.096 577.275
L282.766 572.832
L283.435 575.794
L284.105 575.794
L285.444 572.832
L287.453 572.832
L288.122 578.757
L288.792 574.313
L290.131 574.313
L290.801 572.832
L292.14 575.794
L293.479 575.794
L294.149 577.275
L296.158 572.832
L296.827 575.794
L297.497 572.832
L298.166 572.832
L298.836 569.87
L299.506 577.275
L302.184 571.351
L302.854 571.351
L303.523 577.275
L304.193 578.757
L304.862 575.794
L306.202 572.832
L306.871 575.794
L307.541 577.275
L308.21 572.832
L309.55 578.757
L310.219 574.313
L310.889 577.275
L311.558 574.313
L312.228 577.275
L312.898 575.794
L313.567 575.794
L314.237 577.275
L314.906 575.794
L315.576 578.757
L316.246 578.757
L316.915 577.275
L318.254 577.275
L318.924 574.313
L319.594 572.832
L320.263 580.238
L321.602 577.275
L322.272 572.832
L322.942 575.794
L323.611 574.313
L324.281 575.794
L324.95 572.832
L325.62 571.351
L326.29 572.832
L326.959 575.794
L327.629 574.313
L328.298 577.275
L328.968 578.757
L329.638 575.794
L330.307 575.794
L331.646 572.832
L332.316 575.794
L332.986 577.275
L333.655 575.794
L334.325 575.794
L334.994 572.832
L335.664 578.757
L336.334 574.313
L337.003 574.313
L337.673 575.794
L338.342 571.351
L339.012 575.794
L339.682 575.794
L340.351 580.238
L341.69 574.313
L342.36 578.757
L343.03 577.275
L343.699 577.275
L344.369 578.757
L345.708 578.757
L346.378 577.275
L347.047 580.238
L347.717 581.719
L348.386 580.238
L349.056 577.275
L349.726 577.275
L351.065 580.238
L352.404 577.275
L353.074 578.757
L355.082 574.313
L355.752 577.275
L356.422 574.313
L359.1 580.238
L361.109 580.238
L361.778 583.2
L362.448 580.238
L363.118 580.238
L363.787 577.275
L364.457 575.794
L365.126 578.757
L366.466 578.757
L367.135 580.238
L367.805 575.794
L368.474 577.275
L369.144 575.794
L369.814 577.275
L371.153 577.275
L371.822 578.757
L372.492 577.275
L373.162 577.275
L373.831 578.757
L374.501 577.275
L375.17 574.313
L375.84 575.794
L376.51 578.757
L377.179 575.794
L377.849 580.238
L378.518 577.275
L379.188 578.757
L379.858 578.757
L380.527 577.275
L381.197 577.275
L382.536 580.238
L383.875 577.275
L386.554 577.275
L387.223 580.238
L388.562 574.313
L389.232 577.275
L389.902 575.794
L390.571 578.757
L391.241 580.238
L391.91 575.794
L393.25 575.794
L394.589 578.757
L395.258 578.757
L395.928 575.794
L396.598 577.275
L397.267 575.794
L397.937 578.757
L399.276 578.757
L399.946 575.794
L400.615 580.238
L401.285 578.757
L401.954 575.794
L402.624 577.275
L403.294 577.275
L403.963 575.794
L404.633 578.757
L405.302 577.275
L405.972 574.313
L406.642 574.313
L407.311 575.794
L407.981 575.794
L408.65 577.275
L409.32 577.275
L409.99 578.757
L410.659 577.275
L411.329 578.757
L411.998 577.275
L412.668 577.275
L413.338 580.238
L414.007 577.275
L414.677 577.275
L415.346 574.313
L416.016 577.275
L416.686 577.275
L417.355 578.757
L418.025 577.275
L418.694 574.313
L419.364 578.757
L420.034 581.719
L420.703 583.2
L421.373 580.238
L422.042 581.719
L422.712 580.238
L423.382 580.238
L424.051 578.757
L424.721 580.238
L425.39 580.238
L426.73 577.275
L427.399 580.238
L428.069 580.238
L428.738 581.719
L429.408 577.275
L430.747 580.238
L431.417 578.757
L432.756 578.757
L433.426 580.238
L434.095 580.238
L434.765 578.757
L435.434 581.719
L436.104 578.757
L436.774 577.275
L437.443 580.238
L438.782 577.275
L439.452 577.275
L440.122 578.757
L440.791 577.275
L442.13 580.238
L444.139 580.238
L444.809 581.719
L445.478 577.275
L446.818 577.275
L448.157 574.313
L448.826 565.426
L449.496 559.502
L450.166 540.247
L450.835 528.398
L452.174 478.039
L452.844 442.491
L454.183 398.057
L454.853 356.585
L455.522 340.293
L456.192 286.971
L456.862 267.717
L457.531 226.245
L458.201 217.358
L458.87 206.99
L459.54 172.923
L460.21 190.697
L460.879 153.669
L461.549 184.773
L462.218 184.773
L462.888 158.112
L463.558 149.225
L464.227 116.64
L464.897 131.451
L465.566 134.414
L466.236 149.225
L466.906 137.376
L467.575 153.669
L468.245 128.489
L468.914 131.451
L469.584 127.008
L470.254 129.97
L470.923 109.234
L471.593 135.895
L472.262 135.895
L472.932 161.074
L473.602 156.631
L474.271 137.376
L474.941 129.97
L475.61 141.819
L476.28 125.527
L476.95 119.602
L477.619 115.159
L478.289 155.15
L478.958 144.782
L479.628 137.376
L480.298 147.744
L480.967 149.225
L481.637 132.933
L482.306 143.301
L482.976 159.593
L483.646 162.555
L484.315 171.442
L484.985 177.367
L485.654 184.773
L486.324 201.065
L486.994 227.726
L487.663 212.914
L488.333 189.216
L489.002 193.659
L489.672 184.773
L490.342 166.999
L491.011 155.15
L491.681 178.848
L492.35 187.735
L493.02 204.027
L493.69 175.886
L494.359 192.178
L495.029 192.178
L495.698 174.405
L496.368 171.442
L497.038 172.923
L497.707 161.074
L498.377 166.999
L500.386 217.358
L501.055 205.509
L501.725 235.131
L502.394 193.659
L503.064 204.027
L503.734 204.027
L504.403 190.697
L505.073 205.509
L505.742 208.471
L506.412 187.735
L507.082 171.442
L507.751 169.961
L508.421 217.358
L509.09 186.254
L509.76 204.027
L510.43 209.952
L511.099 226.245
L511.769 212.914
L512.438 202.546
L513.108 226.245
L513.778 211.433
L514.447 189.216
L515.117 204.027
L515.786 204.027
L516.456 198.103
L517.126 211.433
L517.795 162.555
L518.465 202.546
L519.134 217.358
L519.804 223.282
L520.474 206.99
L521.143 212.914
L521.813 199.584
L522.482 198.103
L523.152 158.112
L523.822 208.471
L524.491 233.65
L525.161 161.074
L525.83 165.518
L526.5 141.819
L527.17 143.301
L527.839 199.584
L528.509 193.659
L529.178 199.584
L529.848 208.471
L530.518 215.877
L531.187 236.613
L531.857 202.546
L532.526 224.763
L533.196 227.726
L533.866 232.169
L534.535 223.282
L535.205 236.613
L535.874 242.537
L536.544 257.349
L537.214 252.905
L537.883 258.83
L538.553 260.311
L539.222 257.349
L539.892 239.575
L540.562 248.462
L541.231 246.981
L541.901 270.679
L542.57 286.971
L543.24 292.896
L543.91 267.717
L544.579 276.603
L545.249 294.377
L545.918 233.65
L546.588 233.65
L547.258 202.546
L547.927 193.659
L549.266 246.981
L549.936 245.499
L550.606 263.273
L551.275 220.32
L551.945 218.839
L552.614 236.613
L553.284 226.245
L553.954 261.792
L555.293 218.839
L555.962 249.943
L556.632 226.245
L557.302 206.99
L557.971 249.943
L558.641 254.386
L559.31 263.273
L560.65 220.32
L561.319 249.943
L561.989 241.056
L562.658 288.453
L563.328 251.424
L563.998 263.273
L565.337 238.094
L566.006 263.273
L566.676 260.311
L567.346 261.792
L569.354 229.207
L570.024 212.914
L570.694 252.905
L571.363 264.754
L572.033 263.273
L573.372 272.16
L574.042 281.047
L575.381 306.226
L576.05 292.896
L576.72 257.349
L577.39 261.792
L578.059 261.792
L578.729 226.245
L579.398 260.311
L580.068 285.49
L580.738 304.745
L581.407 298.821
L582.077 266.235
L582.746 267.717
L583.416 242.537
L584.086 211.433
L584.755 260.311
L585.425 260.311
L586.094 275.122
L586.764 270.679
L587.434 260.311
L588.103 254.386
L588.773 266.235
L589.442 261.792
L590.112 260.311
L590.782 260.311
L591.451 270.679
L592.121 298.821
L592.79 279.566
L593.46 294.377
L594.13 285.49
L594.799 313.632
L595.469 322.519
L596.138 297.339
L596.808 298.821
L597.478 294.377
L598.147 303.264
L598.817 298.821
L599.486 307.707
L600.156 324
L600.826 319.557
L601.495 328.443
L602.165 310.67
L602.834 322.519
L603.504 303.264
L604.174 325.481
L604.843 334.368
L605.513 297.339
L606.182 312.151
L606.852 286.971
L607.522 282.528
L608.191 315.113
L608.861 288.453
L609.53 303.264
L610.2 301.783
L610.87 298.821
L611.539 307.707
L612.209 309.189
L612.878 304.745
L613.548 291.415
L614.218 304.745
L614.887 310.67
L615.557 318.075
L616.226 310.67
L616.896 324
L617.566 346.217
L618.235 340.293
L618.905 325.481
L619.574 319.557
L620.244 295.858
L620.914 332.887
L621.583 292.896
L622.253 309.189
L622.922 319.557
L623.592 353.623
L624.262 325.481
L624.931 332.887
L625.601 335.849
L626.27 329.925
L626.94 365.472
L627.61 344.736
L628.279 349.179
L628.949 335.849
L629.618 328.443
L630.288 340.293
L630.958 361.029
L631.627 346.217
L632.297 355.104
L632.966 362.51
L633.636 372.878
L634.975 366.953
L635.645 384.727
L636.314 369.915
L636.984 362.51
L637.654 347.698
L638.323 337.33
L638.993 331.406
L639.662 346.217
L640.332 365.472
L641.002 365.472
L641.671 350.661
L642.341 347.698
L643.01 355.104
L643.68 353.623
L644.35 387.689
L645.019 383.246
L646.358 338.811
L647.028 328.443
L647.698 331.406
L648.367 316.594
L649.037 321.038
L649.706 282.528
L651.046 324
L651.715 316.594
L652.385 349.179
L653.724 375.84
L654.394 356.585
L655.733 380.283
L656.402 380.283
L657.072 386.208
L657.742 371.397
L658.411 396.576
L659.081 358.066
L659.75 335.849
L660.42 356.585
L661.09 369.915
L663.098 361.029
L663.768 356.585
L664.438 332.887
L665.107 343.255
L665.777 349.179
L666.446 368.434
L667.116 346.217
L667.786 359.547
L668.455 337.33
L669.125 352.142
L669.794 347.698
L670.464 365.472
L671.134 374.359
L671.803 366.953
L672.473 363.991
L673.142 363.991
L673.812 371.397
L674.482 349.179
L675.151 353.623
L675.821 350.661
L676.49 356.585
L677.16 353.623
L677.83 377.321
L678.499 377.321
L679.169 374.359
L679.838 386.208
L680.508 378.802
L681.178 392.133
L681.847 390.651
L682.517 383.246
L683.186 359.547
L683.856 396.576
L684.526 392.133
L685.195 403.982
L685.865 426.199
L686.534 414.35
L687.204 408.425
L688.543 432.123
L689.213 421.755
L689.882 418.793
L690.552 402.501
L691.222 411.387
L691.891 421.755
L692.561 421.755
L693.23 433.605
L693.9 426.199
L694.57 441.01
L695.239 414.35
L695.909 430.642
L696.578 405.463
L697.248 415.831
L697.918 420.274
L698.587 406.944
L699.257 398.057
L699.926 414.35
L701.266 426.199
L701.935 415.831
L702.605 418.793
L703.274 418.793
L703.944 424.718
L704.614 439.529
L705.283 435.086
L705.953 451.378
L706.622 429.161
L707.292 433.605
L707.962 412.869
L708.631 414.35
L709.301 406.944
L709.97 427.68
L710.64 439.529
L711.31 441.01
L711.979 441.01
L712.649 426.199
L713.318 420.274
L713.988 409.906
L714.658 412.869
L715.327 420.274
L715.997 418.793
L716.666 436.567
L717.336 451.378
L718.006 435.086
L718.675 460.265
L719.345 442.491
L720.014 446.935
L720.684 442.491
L721.354 441.01
L722.023 448.416
L722.693 432.123
L723.362 461.746
L724.032 472.114
L724.702 464.709
L725.371 455.822
L726.041 458.784
L726.71 443.973
L727.38 455.822
L728.05 445.454
L728.719 443.973
L729.389 436.567
L730.728 472.114
L731.398 472.114
L732.067 466.19
L732.737 448.416
L733.406 443.973
L734.076 433.605
L734.746 439.529
L735.415 457.303
L736.085 460.265
L736.754 448.416
L737.424 467.671
L738.094 461.746
L738.763 461.746
L739.433 458.784
L740.102 441.01
L740.772 452.859
L741.442 455.822
L742.111 457.303
L742.781 467.671
L743.45 464.709
L744.12 466.19
L744.79 463.227
L745.459 455.822
L746.129 475.077
L746.798 472.114
L748.138 486.926
L748.807 483.963
L749.477 478.039
L750.146 501.737
L750.816 483.963
L751.486 483.963
L752.155 489.888
L752.825 486.926
L753.494 479.52
L754.164 491.369
L754.834 489.888
L755.503 486.926
L756.173 488.407
L756.842 486.926
L757.512 498.775
L758.182 491.369
L758.851 485.445
L759.521 486.926
L760.19 482.482
L760.86 485.445
L761.53 491.369
L762.199 485.445
L762.869 501.737
L763.538 492.85
L764.208 485.445
L764.878 494.331
L765.547 491.369
L766.217 492.85
L766.886 491.369
L767.556 492.85
L768.226 489.888
L768.895 494.331
L769.565 504.699
L770.234 500.256
L770.904 507.662
L771.574 506.181
L772.243 515.067
L772.913 515.067
L773.582 506.181
L774.252 509.143
L774.922 518.03
L775.591 504.699
L776.261 506.181
L776.93 500.256
L777.6 510.624
L777.6 510.624" style="fill:none;stroke:#008000;stroke-linecap:square;"/>
   </g>
   <g id="line2d_3">
    <path clip-path="url(#p7ceb695115)" d="
M108 583.2
L166.255 583.2
L166.925 581.719
L167.594 583.2
L169.603 583.2
L170.273 581.719
L170.942 581.719
L171.612 583.2
L174.96 583.2
L175.63 581.719
L176.299 583.2
L180.317 583.2
L180.986 581.719
L182.995 581.719
L183.665 583.2
L184.334 581.719
L185.004 583.2
L190.361 583.2
L191.03 581.719
L191.7 581.719
L192.37 580.238
L193.039 583.2
L202.414 583.2
L203.083 581.719
L203.753 583.2
L205.092 580.238
L205.762 581.719
L207.77 581.719
L208.44 583.2
L209.779 583.2
L210.449 578.757
L211.118 581.719
L211.788 581.719
L212.458 578.757
L213.127 581.719
L213.797 581.719
L214.466 583.2
L215.136 581.719
L215.806 583.2
L217.145 583.2
L217.814 580.238
L218.484 578.757
L219.154 581.719
L220.493 581.719
L221.162 580.238
L221.832 580.238
L223.171 583.2
L223.841 583.2
L224.51 580.238
L225.18 575.794
L225.85 577.275
L226.519 580.238
L227.189 581.719
L227.858 581.719
L229.198 578.757
L229.867 575.794
L230.537 577.275
L231.206 580.238
L232.546 580.238
L233.215 581.719
L233.885 580.238
L234.554 580.238
L235.224 583.2
L235.894 581.719
L236.563 583.2
L237.233 581.719
L237.902 578.757
L238.572 577.275
L239.242 580.238
L239.911 581.719
L240.581 578.757
L241.25 581.719
L241.92 583.2
L242.59 580.238
L244.598 580.238
L245.268 583.2
L245.938 583.2
L246.607 581.719
L247.277 583.2
L247.946 580.238
L248.616 581.719
L250.625 581.719
L251.294 580.238
L251.964 581.719
L252.634 578.757
L253.303 578.757
L254.642 581.719
L255.982 581.719
L256.651 580.238
L257.321 581.719
L257.99 580.238
L258.66 580.238
L259.33 583.2
L259.999 581.719
L261.338 581.719
L262.008 580.238
L262.678 580.238
L263.347 583.2
L264.017 580.238
L264.686 581.719
L266.026 581.719
L266.695 583.2
L267.365 583.2
L268.034 580.238
L268.704 583.2
L270.043 583.2
L270.713 580.238
L271.382 583.2
L272.052 580.238
L272.722 578.757
L273.391 583.2
L274.061 581.719
L275.4 581.719
L276.07 583.2
L277.409 583.2
L278.748 580.238
L279.418 580.238
L280.087 578.757
L280.757 583.2
L281.426 581.719
L282.096 583.2
L283.435 580.238
L284.105 580.238
L284.774 581.719
L285.444 580.238
L286.783 580.238
L287.453 581.719
L288.122 580.238
L289.462 580.238
L290.801 583.2
L291.47 581.719
L292.81 581.719
L293.479 580.238
L295.488 580.238
L296.158 581.719
L298.166 581.719
L298.836 583.2
L299.506 580.238
L300.845 583.2
L301.514 580.238
L302.854 583.2
L303.523 580.238
L304.193 580.238
L305.532 583.2
L306.202 583.2
L306.871 580.238
L307.541 578.757
L308.21 583.2
L308.88 583.2
L309.55 581.719
L310.219 581.719
L310.889 583.2
L311.558 583.2
L312.228 581.719
L314.237 581.719
L314.906 580.238
L316.246 580.238
L316.915 578.757
L318.254 578.757
L318.924 581.719
L319.594 583.2
L320.933 580.238
L321.602 580.238
L322.272 583.2
L322.942 581.719
L323.611 581.719
L324.281 580.238
L324.95 580.238
L325.62 581.719
L326.29 580.238
L326.959 577.275
L327.629 580.238
L328.298 578.757
L328.968 578.757
L330.307 581.719
L330.977 581.719
L331.646 583.2
L332.986 580.238
L333.655 581.719
L334.994 581.719
L335.664 578.757
L336.334 580.238
L337.003 580.238
L337.673 578.757
L338.342 583.2
L339.012 580.238
L339.682 580.238
L340.351 578.757
L341.021 581.719
L341.69 581.719
L342.36 580.238
L343.03 583.2
L343.699 583.2
L344.369 581.719
L345.708 581.719
L346.378 580.238
L348.386 580.238
L349.056 581.719
L350.395 581.719
L351.734 578.757
L353.074 581.719
L353.743 581.719
L354.413 583.2
L355.082 583.2
L355.752 581.719
L356.422 583.2
L358.43 583.2
L359.1 581.719
L360.439 581.719
L361.109 583.2
L361.778 580.238
L362.448 581.719
L363.118 581.719
L363.787 583.2
L366.466 583.2
L367.135 581.719
L367.805 581.719
L368.474 580.238
L369.144 583.2
L369.814 580.238
L370.483 581.719
L371.153 581.719
L371.822 580.238
L373.831 580.238
L374.501 583.2
L375.17 583.2
L375.84 581.719
L376.51 578.757
L377.179 583.2
L377.849 578.757
L378.518 580.238
L380.527 580.238
L381.197 581.719
L385.884 581.719
L386.554 583.2
L387.223 583.2
L387.893 581.719
L388.562 583.2
L389.232 580.238
L389.902 581.719
L390.571 581.719
L391.241 580.238
L391.91 583.2
L392.58 581.719
L393.25 581.719
L394.589 578.757
L395.928 581.719
L396.598 581.719
L397.267 583.2
L397.937 580.238
L398.606 581.719
L399.946 581.719
L400.615 578.757
L401.954 581.719
L403.294 581.719
L403.963 583.2
L408.65 583.2
L409.32 581.719
L409.99 578.757
L410.659 581.719
L411.329 580.238
L411.998 581.719
L413.338 578.757
L414.007 581.719
L414.677 581.719
L415.346 583.2
L416.016 583.2
L416.686 580.238
L417.355 580.238
L418.025 583.2
L418.694 583.2
L420.034 577.275
L421.373 583.2
L424.051 583.2
L424.721 581.719
L425.39 581.719
L426.06 583.2
L427.399 583.2
L428.738 580.238
L429.408 583.2
L432.086 583.2
L433.426 580.238
L434.095 581.719
L434.765 581.719
L435.434 580.238
L436.774 583.2
L437.443 580.238
L438.782 583.2
L440.791 583.2
L441.461 581.719
L443.47 581.719
L444.139 580.238
L444.809 580.238
L445.478 583.2
L446.818 583.2
L447.487 580.238
L448.157 581.719
L448.826 572.832
L449.496 574.313
L450.166 568.389
L450.835 555.058
L451.505 547.653
L452.174 535.803
L452.844 540.247
L453.514 528.398
L454.183 500.256
L454.853 491.369
L455.522 501.737
L456.192 491.369
L457.531 491.369
L458.201 488.407
L458.87 481.001
L459.54 494.331
L460.879 470.633
L461.549 472.114
L462.218 489.888
L462.888 472.114
L463.558 486.926
L464.227 449.897
L464.897 452.859
L465.566 466.19
L466.236 455.822
L466.906 479.52
L467.575 469.152
L468.245 489.888
L468.914 470.633
L469.584 483.963
L470.254 486.926
L470.923 482.482
L471.593 461.746
L472.262 475.077
L472.932 473.595
L473.602 464.709
L474.271 463.227
L474.941 492.85
L475.61 486.926
L476.28 467.671
L476.95 481.001
L477.619 467.671
L478.289 479.52
L478.958 472.114
L479.628 467.671
L480.298 458.784
L480.967 464.709
L481.637 475.077
L482.306 475.077
L482.976 483.963
L483.646 473.595
L484.315 503.218
L484.985 473.595
L485.654 489.888
L486.324 482.482
L486.994 473.595
L487.663 498.775
L488.333 500.256
L489.002 491.369
L489.672 458.784
L490.342 473.595
L491.011 513.586
L491.681 486.926
L492.35 509.143
L493.02 488.407
L493.69 486.926
L494.359 479.52
L495.029 478.039
L495.698 469.152
L496.368 494.331
L497.038 494.331
L497.707 507.662
L498.377 506.181
L499.046 500.256
L499.716 498.775
L500.386 504.699
L501.725 460.265
L502.394 479.52
L503.064 479.52
L503.734 500.256
L504.403 507.662
L505.073 488.407
L505.742 473.595
L506.412 495.813
L507.082 463.227
L507.751 489.888
L508.421 504.699
L509.09 491.369
L510.43 479.52
L511.099 491.369
L511.769 485.445
L512.438 506.181
L513.108 503.218
L513.778 495.813
L514.447 501.737
L515.117 466.19
L515.786 494.331
L516.456 478.039
L517.126 478.039
L517.795 509.143
L519.134 494.331
L519.804 498.775
L520.474 467.671
L521.143 467.671
L521.813 481.001
L522.482 497.294
L523.152 492.85
L523.822 486.926
L524.491 483.963
L525.161 492.85
L525.83 476.558
L526.5 486.926
L527.17 501.737
L527.839 500.256
L528.509 476.558
L529.178 476.558
L529.848 495.813
L530.518 501.737
L531.187 506.181
L531.857 500.256
L532.526 466.19
L533.196 498.775
L533.866 488.407
L534.535 504.699
L535.205 513.586
L535.874 501.737
L536.544 492.85
L537.883 483.963
L538.553 515.067
L539.222 520.992
L539.892 494.331
L541.231 485.445
L541.901 498.775
L542.57 479.52
L543.24 483.963
L543.91 492.85
L544.579 495.813
L545.249 507.662
L545.918 523.954
L546.588 470.633
L547.258 528.398
L547.927 498.775
L548.597 516.549
L549.266 503.218
L549.936 501.737
L550.606 482.482
L551.275 501.737
L551.945 485.445
L552.614 476.558
L553.284 513.586
L554.623 489.888
L555.293 488.407
L555.962 478.039
L556.632 494.331
L557.302 503.218
L557.971 513.586
L558.641 497.294
L559.31 495.813
L559.98 489.888
L560.65 516.549
L561.319 512.105
L561.989 515.067
L562.658 512.105
L563.328 531.36
L564.667 470.633
L565.337 498.775
L566.006 520.992
L566.676 498.775
L567.346 500.256
L568.015 504.699
L568.685 506.181
L569.354 515.067
L570.024 495.813
L570.694 512.105
L571.363 513.586
L572.033 504.699
L572.702 486.926
L573.372 519.511
L574.042 518.03
L574.711 506.181
L575.381 510.624
L576.05 494.331
L576.72 500.256
L577.39 495.813
L578.059 492.85
L578.729 513.586
L579.398 501.737
L580.068 501.737
L580.738 510.624
L581.407 522.473
L582.746 494.331
L583.416 525.435
L584.086 504.699
L584.755 489.888
L585.425 510.624
L586.094 510.624
L586.764 513.586
L587.434 507.662
L588.103 513.586
L588.773 504.699
L589.442 498.775
L590.112 478.039
L590.782 498.775
L592.121 507.662
L592.79 529.879
L593.46 489.888
L594.13 519.511
L594.799 509.143
L595.469 501.737
L596.138 532.841
L596.808 532.841
L597.478 528.398
L598.147 504.699
L598.817 491.369
L599.486 507.662
L600.156 516.549
L600.826 510.624
L601.495 506.181
L602.165 498.775
L602.834 506.181
L603.504 516.549
L604.174 509.143
L604.843 515.067
L605.513 541.728
L606.182 518.03
L606.852 518.03
L607.522 519.511
L608.191 492.85
L608.861 515.067
L609.53 507.662
L610.2 494.331
L610.87 503.218
L611.539 518.03
L612.209 509.143
L612.878 518.03
L613.548 516.549
L614.218 497.294
L614.887 509.143
L615.557 525.435
L616.226 520.992
L616.896 523.954
L617.566 532.841
L618.235 506.181
L618.905 535.803
L619.574 515.067
L620.244 520.992
L620.914 495.813
L621.583 518.03
L622.922 523.954
L623.592 523.954
L624.262 546.171
L625.601 523.954
L626.27 535.803
L626.94 526.917
L627.61 525.435
L628.279 525.435
L628.949 513.586
L629.618 541.728
L630.288 510.624
L630.958 526.917
L631.627 529.879
L632.297 523.954
L632.966 519.511
L633.636 534.322
L634.306 529.879
L634.975 518.03
L635.645 520.992
L636.314 519.511
L636.984 513.586
L637.654 520.992
L638.993 526.917
L639.662 534.322
L640.332 523.954
L641.002 509.143
L641.671 537.285
L642.341 532.841
L643.01 520.992
L643.68 537.285
L644.35 523.954
L645.019 528.398
L645.689 535.803
L646.358 531.36
L647.028 534.322
L647.698 513.586
L648.367 510.624
L649.037 522.473
L649.706 512.105
L650.376 531.36
L651.046 522.473
L651.715 538.766
L652.385 531.36
L653.054 537.285
L653.724 497.294
L654.394 528.398
L655.063 544.69
L655.733 541.728
L656.402 535.803
L657.072 525.435
L657.742 540.247
L658.411 525.435
L659.081 528.398
L659.75 528.398
L660.42 519.511
L661.09 522.473
L661.759 529.879
L662.429 513.586
L663.098 510.624
L663.768 515.067
L664.438 535.803
L665.107 529.879
L665.777 528.398
L666.446 519.511
L667.116 532.841
L667.786 531.36
L668.455 556.539
L669.125 528.398
L669.794 525.435
L670.464 501.737
L671.134 526.917
L671.803 540.247
L672.473 538.766
L673.142 525.435
L673.812 523.954
L674.482 549.134
L675.151 540.247
L675.821 518.03
L676.49 532.841
L677.16 525.435
L677.83 525.435
L678.499 534.322
L679.169 519.511
L679.838 537.285
L680.508 526.917
L681.178 540.247
L681.847 541.728
L682.517 529.879
L683.186 535.803
L683.856 550.615
L684.526 544.69
L685.195 553.577
L685.865 529.879
L686.534 535.803
L687.204 534.322
L687.874 544.69
L688.543 546.171
L689.213 549.134
L689.882 546.171
L690.552 546.171
L691.222 562.464
L691.891 526.917
L692.561 540.247
L693.23 556.539
L693.9 562.464
L694.57 552.096
L695.239 549.134
L695.909 552.096
L696.578 547.653
L697.248 540.247
L697.918 550.615
L698.587 546.171
L699.257 553.577
L699.926 550.615
L700.596 538.766
L701.266 522.473
L701.935 540.247
L702.605 538.766
L703.274 546.171
L703.944 549.134
L704.614 537.285
L705.283 541.728
L705.953 531.36
L706.622 537.285
L707.292 550.615
L707.962 552.096
L708.631 544.69
L709.301 553.577
L709.97 538.766
L710.64 535.803
L711.31 550.615
L711.979 549.134
L713.318 520.992
L713.988 547.653
L714.658 550.615
L715.327 534.322
L715.997 546.171
L716.666 552.096
L717.336 556.539
L718.675 541.728
L719.345 550.615
L720.014 546.171
L720.684 537.285
L721.354 555.058
L722.023 563.945
L722.693 559.502
L723.362 543.209
L724.032 541.728
L724.702 544.69
L725.371 544.69
L726.041 550.615
L726.71 562.464
L727.38 549.134
L728.05 555.058
L728.719 553.577
L729.389 563.945
L730.058 555.058
L730.728 553.577
L731.398 560.983
L732.067 552.096
L732.737 553.577
L733.406 552.096
L734.076 555.058
L736.085 550.615
L736.754 568.389
L737.424 556.539
L738.094 559.502
L738.763 547.653
L739.433 532.841
L740.102 555.058
L740.772 556.539
L741.442 552.096
L742.111 558.021
L742.781 550.615
L743.45 550.615
L744.12 547.653
L744.79 550.615
L745.459 559.502
L746.129 546.171
L746.798 559.502
L747.468 560.983
L748.138 544.69
L749.477 565.426
L750.146 553.577
L750.816 549.134
L751.486 568.389
L752.155 565.426
L752.825 559.502
L753.494 560.983
L754.164 560.983
L754.834 562.464
L755.503 562.464
L756.173 555.058
L756.842 556.539
L758.182 547.653
L758.851 549.134
L759.521 563.945
L760.19 553.577
L760.86 556.539
L761.53 563.945
L762.199 566.907
L762.869 552.096
L763.538 555.058
L764.208 568.389
L764.878 556.539
L765.547 559.502
L766.217 559.502
L766.886 565.426
L767.556 565.426
L768.226 571.351
L768.895 563.945
L769.565 569.87
L770.234 560.983
L770.904 569.87
L771.574 568.389
L772.243 556.539
L772.913 553.577
L773.582 562.464
L774.252 569.87
L774.922 556.539
L775.591 572.832
L776.261 568.389
L776.93 568.389
L777.6 559.502
L777.6 559.502" style="fill:none;stroke:#0000ff;stroke-linecap:square;"/>
   </g>
   <g id="patch_3">
    <path d="
M108 64.8
L777.6 64.8" style="fill:none;stroke:#000000;stroke-linecap:square;stroke-linejoin:miter;"/>
   </g>
   <g id="patch_4">
    <path d="
M777.6 583.2
L777.6 64.8" style="fill:none;stroke:#000000;stroke-linecap:square;stroke-linejoin:miter;"/>
   </g>
   <g id="patch_5">
    <path d="
M108 583.2
L777.6 583.2" style="fill:none;stroke:#000000;stroke-linecap:square;stroke-linejoin:miter;"/>
   </g>
   <g id="patch_6">
    <path d="
M108 583.2
L108 64.8" style="fill:none;stroke:#000000;stroke-linecap:square;stroke-linejoin:miter;"/>
   </g>
   <g id="matplotlib.axis_1">
    <g id="xtick_1">
     <g id="line2d_4">
      <defs>
       <path d="
M0 0
L0 -4" id="mc7db9fdffb" style="stroke:#000000;stroke-width:0.5;"/>
      </defs>
      <g>
       <use style="stroke:#000000;stroke-width:0.5;" x="108.0" xlink:href="#mc7db9fdffb" y="583.2"/>
      </g>
     </g>
     <g id="line2d_5">
      <defs>
       <path d="
M0 0
L0 4" id="m5a7d422ac3" style="stroke:#000000;stroke-width:0.5;"/>
      </defs>
      <g>
       <use style="stroke:#000000;stroke-width:0.5;" x="108.0" xlink:href="#m5a7d422ac3" y="64.8"/>
      </g>
     </g>
     <g id="text_1">
      <!-- 0 -->
      <defs>
       <path d="
M31.7812 66.4062
Q24.1719 66.4062 20.3281 58.9062
Q16.5 51.4219 16.5 36.375
Q16.5 21.3906 20.3281 13.8906
Q24.1719 6.39062 31.7812 6.39062
Q39.4531 6.39062 43.2812 13.8906
Q47.125 21.3906 47.125 36.375
Q47.125 51.4219 43.2812 58.9062
Q39.4531 66.4062 31.7812 66.4062
M31.7812 74.2188
Q44.0469 74.2188 50.5156 64.5156
Q56.9844 54.8281 56.9844 36.375
Q56.9844 17.9688 50.5156 8.26562
Q44.0469 -1.42188 31.7812 -1.42188
Q19.5312 -1.42188 13.0625 8.26562
Q6.59375 17.9688 6.59375 36.375
Q6.59375 54.8281 13.0625 64.5156
Q19.5312 74.2188 31.7812 74.2188" id="BitstreamVeraSans-Roman-30"/>
      </defs>
      <g transform="translate(104.9765625 596.318125)scale(0.12 -0.12)">
       <use xlink:href="#BitstreamVeraSans-Roman-30"/>
      </g>
     </g>
    </g>
    <g id="xtick_2">
     <g id="line2d_6">
      <g>
       <use style="stroke:#000000;stroke-width:0.5;" x="275.4" xlink:href="#mc7db9fdffb" y="583.2"/>
      </g>
     </g>
     <g id="line2d_7">
      <g>
       <use style="stroke:#000000;stroke-width:0.5;" x="275.4" xlink:href="#m5a7d422ac3" y="64.8"/>
      </g>
     </g>
     <g id="text_2">
      <!-- 50000 -->
      <defs>
       <path d="
M10.7969 72.9062
L49.5156 72.9062
L49.5156 64.5938
L19.8281 64.5938
L19.8281 46.7344
Q21.9688 47.4688 24.1094 47.8281
Q26.2656 48.1875 28.4219 48.1875
Q40.625 48.1875 47.75 41.5
Q54.8906 34.8125 54.8906 23.3906
Q54.8906 11.625 47.5625 5.09375
Q40.2344 -1.42188 26.9062 -1.42188
Q22.3125 -1.42188 17.5469 -0.640625
Q12.7969 0.140625 7.71875 1.70312
L7.71875 11.625
Q12.1094 9.23438 16.7969 8.0625
Q21.4844 6.89062 26.7031 6.89062
Q35.1562 6.89062 40.0781 11.3281
Q45.0156 15.7656 45.0156 23.3906
Q45.0156 31 40.0781 35.4375
Q35.1562 39.8906 26.7031 39.8906
Q22.75 39.8906 18.8125 39.0156
Q14.8906 38.1406 10.7969 36.2812
z
" id="BitstreamVeraSans-Roman-35"/>
      </defs>
      <g transform="translate(257.1740625 596.318125)scale(0.12 -0.12)">
       <use xlink:href="#BitstreamVeraSans-Roman-35"/>
       <use x="63.623046875" xlink:href="#BitstreamVeraSans-Roman-30"/>
       <use x="127.24609375" xlink:href="#BitstreamVeraSans-Roman-30"/>
       <use x="190.869140625" xlink:href="#BitstreamVeraSans-Roman-30"/>
       <use x="254.4921875" xlink:href="#BitstreamVeraSans-Roman-30"/>
      </g>
     </g>
    </g>
    <g id="xtick_3">
     <g id="line2d_8">
      <g>
       <use style="stroke:#000000;stroke-width:0.5;" x="442.8" xlink:href="#mc7db9fdffb" y="583.2"/>
      </g>
     </g>
     <g id="line2d_9">
      <g>
       <use style="stroke:#000000;stroke-width:0.5;" x="442.8" xlink:href="#m5a7d422ac3" y="64.8"/>
      </g>
     </g>
     <g id="text_3">
      <!-- 100000 -->
      <defs>
       <path d="
M12.4062 8.29688
L28.5156 8.29688
L28.5156 63.9219
L10.9844 60.4062
L10.9844 69.3906
L28.4219 72.9062
L38.2812 72.9062
L38.2812 8.29688
L54.3906 8.29688
L54.3906 0
L12.4062 0
z
" id="BitstreamVeraSans-Roman-31"/>
      </defs>
      <g transform="translate(420.9525 596.318125)scale(0.12 -0.12)">
       <use xlink:href="#BitstreamVeraSans-Roman-31"/>
       <use x="63.623046875" xlink:href="#BitstreamVeraSans-Roman-30"/>
       <use x="127.24609375" xlink:href="#BitstreamVeraSans-Roman-30"/>
       <use x="190.869140625" xlink:href="#BitstreamVeraSans-Roman-30"/>
       <use x="254.4921875" xlink:href="#BitstreamVeraSans-Roman-30"/>
       <use x="318.115234375" xlink:href="#BitstreamVeraSans-Roman-30"/>
      </g>
     </g>
    </g>
    <g id="xtick_4">
     <g id="line2d_10">
      <g>
       <use style="stroke:#000000;stroke-width:0.5;" x="610.2" xlink:href="#mc7db9fdffb" y="583.2"/>
      </g>
     </g>
     <g id="line2d_11">
      <g>
       <use style="stroke:#000000;stroke-width:0.5;" x="610.2" xlink:href="#m5a7d422ac3" y="64.8"/>
      </g>
     </g>
     <g id="text_4">
      <!-- 150000 -->
      <g transform="translate(588.3525 596.318125)scale(0.12 -0.12)">
       <use xlink:href="#BitstreamVeraSans-Roman-31"/>
       <use x="63.623046875" xlink:href="#BitstreamVeraSans-Roman-35"/>
       <use x="127.24609375" xlink:href="#BitstreamVeraSans-Roman-30"/>
       <use x="190.869140625" xlink:href="#BitstreamVeraSans-Roman-30"/>
       <use x="254.4921875" xlink:href="#BitstreamVeraSans-Roman-30"/>
       <use x="318.115234375" xlink:href="#BitstreamVeraSans-Roman-30"/>
      </g>
     </g>
    </g>
    <g id="xtick_5">
     <g id="line2d_12">
      <g>
       <use style="stroke:#000000;stroke-width:0.5;" x="777.6" xlink:href="#mc7db9fdffb" y="583.2"/>
      </g>
     </g>
     <g id="line2d_13">
      <g>
       <use style="stroke:#000000;stroke-width:0.5;" x="777.6" xlink:href="#m5a7d422ac3" y="64.8"/>
      </g>
     </g>
     <g id="text_5">
      <!-- 200000 -->
      <defs>
       <path d="
M19.1875 8.29688
L53.6094 8.29688
L53.6094 0
L7.32812 0
L7.32812 8.29688
Q12.9375 14.1094 22.625 23.8906
Q32.3281 33.6875 34.8125 36.5312
Q39.5469 41.8438 41.4219 45.5312
Q43.3125 49.2188 43.3125 52.7812
Q43.3125 58.5938 39.2344 62.25
Q35.1562 65.9219 28.6094 65.9219
Q23.9688 65.9219 18.8125 64.3125
Q13.6719 62.7031 7.8125 59.4219
L7.8125 69.3906
Q13.7656 71.7812 18.9375 73
Q24.125 74.2188 28.4219 74.2188
Q39.75 74.2188 46.4844 68.5469
Q53.2188 62.8906 53.2188 53.4219
Q53.2188 48.9219 51.5312 44.8906
Q49.8594 40.875 45.4062 35.4062
Q44.1875 33.9844 37.6406 27.2188
Q31.1094 20.4531 19.1875 8.29688" id="BitstreamVeraSans-Roman-32"/>
      </defs>
      <g transform="translate(755.533125 596.318125)scale(0.12 -0.12)">
       <use xlink:href="#BitstreamVeraSans-Roman-32"/>
       <use x="63.623046875" xlink:href="#BitstreamVeraSans-Roman-30"/>
       <use x="127.24609375" xlink:href="#BitstreamVeraSans-Roman-30"/>
       <use x="190.869140625" xlink:href="#BitstreamVeraSans-Roman-30"/>
       <use x="254.4921875" xlink:href="#BitstreamVeraSans-Roman-30"/>
       <use x="318.115234375" xlink:href="#BitstreamVeraSans-Roman-30"/>
      </g>
     </g>
    </g>
    <g id="text_6">
     <!-- t / ms -->
     <defs>
      <path d="
M25.3906 72.9062
L33.6875 72.9062
L8.29688 -9.28125
L0 -9.28125
z
" id="BitstreamVeraSans-Roman-2f"/>
      <path d="
M18.3125 70.2188
L18.3125 54.6875
L36.8125 54.6875
L36.8125 47.7031
L18.3125 47.7031
L18.3125 18.0156
Q18.3125 11.3281 20.1406 9.42188
Q21.9688 7.51562 27.5938 7.51562
L36.8125 7.51562
L36.8125 0
L27.5938 0
Q17.1875 0 13.2344 3.875
Q9.28125 7.76562 9.28125 18.0156
L9.28125 47.7031
L2.6875 47.7031
L2.6875 54.6875
L9.28125 54.6875
L9.28125 70.2188
z
" id="BitstreamVeraSans-Roman-74"/>
      <path d="
M52 44.1875
Q55.375 50.25 60.0625 53.125
Q64.75 56 71.0938 56
Q79.6406 56 84.2812 50.0156
Q88.9219 44.0469 88.9219 33.0156
L88.9219 0
L79.8906 0
L79.8906 32.7188
Q79.8906 40.5781 77.0938 44.375
Q74.3125 48.1875 68.6094 48.1875
Q61.625 48.1875 57.5625 43.5469
Q53.5156 38.9219 53.5156 30.9062
L53.5156 0
L44.4844 0
L44.4844 32.7188
Q44.4844 40.625 41.7031 44.4062
Q38.9219 48.1875 33.1094 48.1875
Q26.2188 48.1875 22.1562 43.5312
Q18.1094 38.875 18.1094 30.9062
L18.1094 0
L9.07812 0
L9.07812 54.6875
L18.1094 54.6875
L18.1094 46.1875
Q21.1875 51.2188 25.4844 53.6094
Q29.7812 56 35.6875 56
Q41.6562 56 45.8281 52.9688
Q50 49.9531 52 44.1875" id="BitstreamVeraSans-Roman-6d"/>
      <path d="
M44.2812 53.0781
L44.2812 44.5781
Q40.4844 46.5312 36.375 47.5
Q32.2812 48.4844 27.875 48.4844
Q21.1875 48.4844 17.8438 46.4375
Q14.5 44.3906 14.5 40.2812
Q14.5 37.1562 16.8906 35.375
Q19.2812 33.5938 26.5156 31.9844
L29.5938 31.2969
Q39.1562 29.25 43.1875 25.5156
Q47.2188 21.7812 47.2188 15.0938
Q47.2188 7.46875 41.1875 3.01562
Q35.1562 -1.42188 24.6094 -1.42188
Q20.2188 -1.42188 15.4531 -0.5625
Q10.6875 0.296875 5.42188 2
L5.42188 11.2812
Q10.4062 8.6875 15.2344 7.39062
Q20.0625 6.10938 24.8125 6.10938
Q31.1562 6.10938 34.5625 8.28125
Q37.9844 10.4531 37.9844 14.4062
Q37.9844 18.0625 35.5156 20.0156
Q33.0625 21.9688 24.7031 23.7812
L21.5781 24.5156
Q13.2344 26.2656 9.51562 29.9062
Q5.8125 33.5469 5.8125 39.8906
Q5.8125 47.6094 11.2812 51.7969
Q16.75 56 26.8125 56
Q31.7812 56 36.1719 55.2656
Q40.5781 54.5469 44.2812 53.0781" id="BitstreamVeraSans-Roman-73"/>
      <path id="BitstreamVeraSans-Roman-20"/>
     </defs>
     <g transform="translate(425.9353125 612.931875)scale(0.12 -0.12)">
      <use xlink:href="#BitstreamVeraSans-Roman-74"/>
      <use x="39.208984375" xlink:href="#BitstreamVeraSans-Roman-20"/>
      <use x="70.99609375" xlink:href="#BitstreamVeraSans-Roman-2f"/>
      <use x="104.6875" xlink:href="#BitstreamVeraSans-Roman-20"/>
      <use x="136.474609375" xlink:href="#BitstreamVeraSans-Roman-6d"/>
      <use x="233.88671875" xlink:href="#BitstreamVeraSans-Roman-73"/>
     </g>
    </g>
   </g>
   <g id="matplotlib.axis_2">
    <g id="ytick_1">
     <g id="line2d_14">
      <defs>
       <path d="
M0 0
L4 0" id="md7965d1ba0" style="stroke:#000000;stroke-width:0.5;"/>
      </defs>
      <g>
       <use style="stroke:#000000;stroke-width:0.5;" x="108.0" xlink:href="#md7965d1ba0" y="583.2"/>
      </g>
     </g>
     <g id="line2d_15">
      <defs>
       <path d="
M0 0
L-4 0" id="md9a1c1a7cd" style="stroke:#000000;stroke-width:0.5;"/>
      </defs>
      <g>
       <use style="stroke:#000000;stroke-width:0.5;" x="777.6" xlink:href="#md9a1c1a7cd" y="583.2"/>
      </g>
     </g>
     <g id="text_7">
      <!-- 0 -->
      <g transform="translate(97.953125 586.51125)scale(0.12 -0.12)">
       <use xlink:href="#BitstreamVeraSans-Roman-30"/>
      </g>
     </g>
    </g>
    <g id="ytick_2">
     <g id="line2d_16">
      <g>
       <use style="stroke:#000000;stroke-width:0.5;" x="108.0" xlink:href="#md7965d1ba0" y="509.142857143"/>
      </g>
     </g>
     <g id="line2d_17">
      <g>
       <use style="stroke:#000000;stroke-width:0.5;" x="777.6" xlink:href="#md9a1c1a7cd" y="509.142857143"/>
      </g>
     </g>
     <g id="text_8">
      <!-- 50 -->
      <g transform="translate(90.453125 512.454107143)scale(0.12 -0.12)">
       <use xlink:href="#BitstreamVeraSans-Roman-35"/>
       <use x="63.623046875" xlink:href="#BitstreamVeraSans-Roman-30"/>
      </g>
     </g>
    </g>
    <g id="ytick_3">
     <g id="line2d_18">
      <g>
       <use style="stroke:#000000;stroke-width:0.5;" x="108.0" xlink:href="#md7965d1ba0" y="435.085714286"/>
      </g>
     </g>
     <g id="line2d_19">
      <g>
       <use style="stroke:#000000;stroke-width:0.5;" x="777.6" xlink:href="#md9a1c1a7cd" y="435.085714286"/>
      </g>
     </g>
     <g id="text_9">
      <!-- 100 -->
      <g transform="translate(83.21 438.396964286)scale(0.12 -0.12)">
       <use xlink:href="#BitstreamVeraSans-Roman-31"/>
       <use x="63.623046875" xlink:href="#BitstreamVeraSans-Roman-30"/>
       <use x="127.24609375" xlink:href="#BitstreamVeraSans-Roman-30"/>
      </g>
     </g>
    </g>
    <g id="ytick_4">
     <g id="line2d_20">
      <g>
       <use style="stroke:#000000;stroke-width:0.5;" x="108.0" xlink:href="#md7965d1ba0" y="361.028571429"/>
      </g>
     </g>
     <g id="line2d_21">
      <g>
       <use style="stroke:#000000;stroke-width:0.5;" x="777.6" xlink:href="#md9a1c1a7cd" y="361.028571429"/>
      </g>
     </g>
     <g id="text_10">
      <!-- 150 -->
      <g transform="translate(83.21 364.339821429)scale(0.12 -0.12)">
       <use xlink:href="#BitstreamVeraSans-Roman-31"/>
       <use x="63.623046875" xlink:href="#BitstreamVeraSans-Roman-35"/>
       <use x="127.24609375" xlink:href="#BitstreamVeraSans-Roman-30"/>
      </g>
     </g>
    </g>
    <g id="ytick_5">
     <g id="line2d_22">
      <g>
       <use style="stroke:#000000;stroke-width:0.5;" x="108.0" xlink:href="#md7965d1ba0" y="286.971428571"/>
      </g>
     </g>
     <g id="line2d_23">
      <g>
       <use style="stroke:#000000;stroke-width:0.5;" x="777.6" xlink:href="#md9a1c1a7cd" y="286.971428571"/>
      </g>
     </g>
     <g id="text_11">
      <!-- 200 -->
      <g transform="translate(82.77125 290.282678571)scale(0.12 -0.12)">
       <use xlink:href="#BitstreamVeraSans-Roman-32"/>
       <use x="63.623046875" xlink:href="#BitstreamVeraSans-Roman-30"/>
       <use x="127.24609375" xlink:href="#BitstreamVeraSans-Roman-30"/>
      </g>
     </g>
    </g>
    <g id="ytick_6">
     <g id="line2d_24">
      <g>
       <use style="stroke:#000000;stroke-width:0.5;" x="108.0" xlink:href="#md7965d1ba0" y="212.914285714"/>
      </g>
     </g>
     <g id="line2d_25">
      <g>
       <use style="stroke:#000000;stroke-width:0.5;" x="777.6" xlink:href="#md9a1c1a7cd" y="212.914285714"/>
      </g>
     </g>
     <g id="text_12">
      <!-- 250 -->
      <g transform="translate(82.77125 216.225535714)scale(0.12 -0.12)">
       <use xlink:href="#BitstreamVeraSans-Roman-32"/>
       <use x="63.623046875" xlink:href="#BitstreamVeraSans-Roman-35"/>
       <use x="127.24609375" xlink:href="#BitstreamVeraSans-Roman-30"/>
      </g>
     </g>
    </g>
    <g id="ytick_7">
     <g id="line2d_26">
      <g>
       <use style="stroke:#000000;stroke-width:0.5;" x="108.0" xlink:href="#md7965d1ba0" y="138.857142857"/>
      </g>
     </g>
     <g id="line2d_27">
      <g>
       <use style="stroke:#000000;stroke-width:0.5;" x="777.6" xlink:href="#md9a1c1a7cd" y="138.857142857"/>
      </g>
     </g>
     <g id="text_13">
      <!-- 300 -->
      <defs>
       <path d="
M40.5781 39.3125
Q47.6562 37.7969 51.625 33
Q55.6094 28.2188 55.6094 21.1875
Q55.6094 10.4062 48.1875 4.48438
Q40.7656 -1.42188 27.0938 -1.42188
Q22.5156 -1.42188 17.6562 -0.515625
Q12.7969 0.390625 7.625 2.20312
L7.625 11.7188
Q11.7188 9.32812 16.5938 8.10938
Q21.4844 6.89062 26.8125 6.89062
Q36.0781 6.89062 40.9375 10.5469
Q45.7969 14.2031 45.7969 21.1875
Q45.7969 27.6406 41.2812 31.2656
Q36.7656 34.9062 28.7188 34.9062
L20.2188 34.9062
L20.2188 43.0156
L29.1094 43.0156
Q36.375 43.0156 40.2344 45.9219
Q44.0938 48.8281 44.0938 54.2969
Q44.0938 59.9062 40.1094 62.9062
Q36.1406 65.9219 28.7188 65.9219
Q24.6562 65.9219 20.0156 65.0312
Q15.375 64.1562 9.8125 62.3125
L9.8125 71.0938
Q15.4375 72.6562 20.3438 73.4375
Q25.25 74.2188 29.5938 74.2188
Q40.8281 74.2188 47.3594 69.1094
Q53.9062 64.0156 53.9062 55.3281
Q53.9062 49.2656 50.4375 45.0938
Q46.9688 40.9219 40.5781 39.3125" id="BitstreamVeraSans-Roman-33"/>
      </defs>
      <g transform="translate(82.806875 142.168392857)scale(0.12 -0.12)">
       <use xlink:href="#BitstreamVeraSans-Roman-33"/>
       <use x="63.623046875" xlink:href="#BitstreamVeraSans-Roman-30"/>
       <use x="127.24609375" xlink:href="#BitstreamVeraSans-Roman-30"/>
      </g>
     </g>
    </g>
    <g id="ytick_8">
     <g id="line2d_28">
      <g>
       <use style="stroke:#000000;stroke-width:0.5;" x="108.0" xlink:href="#md7965d1ba0" y="64.8"/>
      </g>
     </g>
     <g id="line2d_29">
      <g>
       <use style="stroke:#000000;stroke-width:0.5;" x="777.6" xlink:href="#md9a1c1a7cd" y="64.8"/>
      </g>
     </g>
     <g id="text_14">
      <!-- 350 -->
      <g transform="translate(82.806875 68.11125)scale(0.12 -0.12)">
       <use xlink:href="#BitstreamVeraSans-Roman-33"/>
       <use x="63.623046875" xlink:href="#BitstreamVeraSans-Roman-35"/>
       <use x="127.24609375" xlink:href="#BitstreamVeraSans-Roman-30"/>
      </g>
     </g>
    </g>
    <g id="text_15">
     <!-- particle numbers -->
     <defs>
      <path d="
M8.5 21.5781
L8.5 54.6875
L17.4844 54.6875
L17.4844 21.9219
Q17.4844 14.1562 20.5 10.2656
Q23.5312 6.39062 29.5938 6.39062
Q36.8594 6.39062 41.0781 11.0312
Q45.3125 15.6719 45.3125 23.6875
L45.3125 54.6875
L54.2969 54.6875
L54.2969 0
L45.3125 0
L45.3125 8.40625
Q42.0469 3.42188 37.7188 1
Q33.4062 -1.42188 27.6875 -1.42188
Q18.2656 -1.42188 13.375 4.4375
Q8.5 10.2969 8.5 21.5781" id="BitstreamVeraSans-Roman-75"/>
      <path d="
M41.1094 46.2969
Q39.5938 47.1719 37.8125 47.5781
Q36.0312 48 33.8906 48
Q26.2656 48 22.1875 43.0469
Q18.1094 38.0938 18.1094 28.8125
L18.1094 0
L9.07812 0
L9.07812 54.6875
L18.1094 54.6875
L18.1094 46.1875
Q20.9531 51.1719 25.4844 53.5781
Q30.0312 56 36.5312 56
Q37.4531 56 38.5781 55.875
Q39.7031 55.7656 41.0625 55.5156
z
" id="BitstreamVeraSans-Roman-72"/>
      <path d="
M48.6875 27.2969
Q48.6875 37.2031 44.6094 42.8438
Q40.5312 48.4844 33.4062 48.4844
Q26.2656 48.4844 22.1875 42.8438
Q18.1094 37.2031 18.1094 27.2969
Q18.1094 17.3906 22.1875 11.75
Q26.2656 6.10938 33.4062 6.10938
Q40.5312 6.10938 44.6094 11.75
Q48.6875 17.3906 48.6875 27.2969
M18.1094 46.3906
Q20.9531 51.2656 25.2656 53.625
Q29.5938 56 35.5938 56
Q45.5625 56 51.7812 48.0938
Q58.0156 40.1875 58.0156 27.2969
Q58.0156 14.4062 51.7812 6.48438
Q45.5625 -1.42188 35.5938 -1.42188
Q29.5938 -1.42188 25.2656 0.953125
Q20.9531 3.32812 18.1094 8.20312
L18.1094 0
L9.07812 0
L9.07812 75.9844
L18.1094 75.9844
z
" id="BitstreamVeraSans-Roman-62"/>
      <path d="
M9.42188 75.9844
L18.4062 75.9844
L18.4062 0
L9.42188 0
z
" id="BitstreamVeraSans-Roman-6c"/>
      <path d="
M9.42188 54.6875
L18.4062 54.6875
L18.4062 0
L9.42188 0
z

M9.42188 75.9844
L18.4062 75.9844
L18.4062 64.5938
L9.42188 64.5938
z
" id="BitstreamVeraSans-Roman-69"/>
      <path d="
M56.2031 29.5938
L56.2031 25.2031
L14.8906 25.2031
Q15.4844 15.9219 20.4844 11.0625
Q25.4844 6.20312 34.4219 6.20312
Q39.5938 6.20312 44.4531 7.46875
Q49.3125 8.73438 54.1094 11.2812
L54.1094 2.78125
Q49.2656 0.734375 44.1875 -0.34375
Q39.1094 -1.42188 33.8906 -1.42188
Q20.7969 -1.42188 13.1562 6.1875
Q5.51562 13.8125 5.51562 26.8125
Q5.51562 40.2344 12.7656 48.1094
Q20.0156 56 32.3281 56
Q43.3594 56 49.7812 48.8906
Q56.2031 41.7969 56.2031 29.5938
M47.2188 32.2344
Q47.125 39.5938 43.0938 43.9844
Q39.0625 48.3906 32.4219 48.3906
Q24.9062 48.3906 20.3906 44.1406
Q15.875 39.8906 15.1875 32.1719
z
" id="BitstreamVeraSans-Roman-65"/>
      <path d="
M54.8906 33.0156
L54.8906 0
L45.9062 0
L45.9062 32.7188
Q45.9062 40.4844 42.875 44.3281
Q39.8438 48.1875 33.7969 48.1875
Q26.5156 48.1875 22.3125 43.5469
Q18.1094 38.9219 18.1094 30.9062
L18.1094 0
L9.07812 0
L9.07812 54.6875
L18.1094 54.6875
L18.1094 46.1875
Q21.3438 51.125 25.7031 53.5625
Q30.0781 56 35.7969 56
Q45.2188 56 50.0469 50.1719
Q54.8906 44.3438 54.8906 33.0156" id="BitstreamVeraSans-Roman-6e"/>
      <path d="
M18.1094 8.20312
L18.1094 -20.7969
L9.07812 -20.7969
L9.07812 54.6875
L18.1094 54.6875
L18.1094 46.3906
Q20.9531 51.2656 25.2656 53.625
Q29.5938 56 35.5938 56
Q45.5625 56 51.7812 48.0938
Q58.0156 40.1875 58.0156 27.2969
Q58.0156 14.4062 51.7812 6.48438
Q45.5625 -1.42188 35.5938 -1.42188
Q29.5938 -1.42188 25.2656 0.953125
Q20.9531 3.32812 18.1094 8.20312
M48.6875 27.2969
Q48.6875 37.2031 44.6094 42.8438
Q40.5312 48.4844 33.4062 48.4844
Q26.2656 48.4844 22.1875 42.8438
Q18.1094 37.2031 18.1094 27.2969
Q18.1094 17.3906 22.1875 11.75
Q26.2656 6.10938 33.4062 6.10938
Q40.5312 6.10938 44.6094 11.75
Q48.6875 17.3906 48.6875 27.2969" id="BitstreamVeraSans-Roman-70"/>
      <path d="
M48.7812 52.5938
L48.7812 44.1875
Q44.9688 46.2969 41.1406 47.3438
Q37.3125 48.3906 33.4062 48.3906
Q24.6562 48.3906 19.8125 42.8438
Q14.9844 37.3125 14.9844 27.2969
Q14.9844 17.2812 19.8125 11.7344
Q24.6562 6.20312 33.4062 6.20312
Q37.3125 6.20312 41.1406 7.25
Q44.9688 8.29688 48.7812 10.4062
L48.7812 2.09375
Q45.0156 0.34375 40.9844 -0.53125
Q36.9688 -1.42188 32.4219 -1.42188
Q20.0625 -1.42188 12.7812 6.34375
Q5.51562 14.1094 5.51562 27.2969
Q5.51562 40.6719 12.8594 48.3281
Q20.2188 56 33.0156 56
Q37.1562 56 41.1094 55.1406
Q45.0625 54.2969 48.7812 52.5938" id="BitstreamVeraSans-Roman-63"/>
      <path d="
M34.2812 27.4844
Q23.3906 27.4844 19.1875 25
Q14.9844 22.5156 14.9844 16.5
Q14.9844 11.7188 18.1406 8.90625
Q21.2969 6.10938 26.7031 6.10938
Q34.1875 6.10938 38.7031 11.4062
Q43.2188 16.7031 43.2188 25.4844
L43.2188 27.4844
z

M52.2031 31.2031
L52.2031 0
L43.2188 0
L43.2188 8.29688
Q40.1406 3.32812 35.5469 0.953125
Q30.9531 -1.42188 24.3125 -1.42188
Q15.9219 -1.42188 10.9531 3.29688
Q6 8.01562 6 15.9219
Q6 25.1406 12.1719 29.8281
Q18.3594 34.5156 30.6094 34.5156
L43.2188 34.5156
L43.2188 35.4062
Q43.2188 41.6094 39.1406 45
Q35.0625 48.3906 27.6875 48.3906
Q23 48.3906 18.5469 47.2656
Q14.1094 46.1406 10.0156 43.8906
L10.0156 52.2031
Q14.9375 54.1094 19.5781 55.0469
Q24.2188 56 28.6094 56
Q40.4844 56 46.3438 49.8438
Q52.2031 43.7031 52.2031 31.2031" id="BitstreamVeraSans-Roman-61"/>
     </defs>
     <g transform="translate(75.275625 374.78625)rotate(-90.0)scale(0.12 -0.12)">
      <use xlink:href="#BitstreamVeraSans-Roman-70"/>
      <use x="63.4765625" xlink:href="#BitstreamVeraSans-Roman-61"/>
      <use x="124.755859375" xlink:href="#BitstreamVeraSans-Roman-72"/>
      <use x="165.869140625" xlink:href="#BitstreamVeraSans-Roman-74"/>
      <use x="205.078125" xlink:href="#BitstreamVeraSans-Roman-69"/>
      <use x="232.861328125" xlink:href="#BitstreamVeraSans-Roman-63"/>
      <use x="287.841796875" xlink:href="#BitstreamVeraSans-Roman-6c"/>
      <use x="315.625" xlink:href="#BitstreamVeraSans-Roman-65"/>
      <use x="377.1484375" xlink:href="#BitstreamVeraSans-Roman-20"/>
      <use x="408.935546875" xlink:href="#BitstreamVeraSans-Roman-6e"/>
      <use x="472.314453125" xlink:href="#BitstreamVeraSans-Roman-75"/>
      <use x="535.693359375" xlink:href="#BitstreamVeraSans-Roman-6d"/>
      <use x="633.10546875" xlink:href="#BitstreamVeraSans-Roman-62"/>
      <use x="696.58203125" xlink:href="#BitstreamVeraSans-Roman-65"/>
      <use x="758.10546875" xlink:href="#BitstreamVeraSans-Roman-72"/>
      <use x="799.21875" xlink:href="#BitstreamVeraSans-Roman-73"/>
     </g>
    </g>
   </g>
   <g id="legend_1">
    <g id="patch_7">
     <path d="
M717.006 101.224
L774.1 101.224
L774.1 68.3
L717.006 68.3
z
" style="fill:#ffffff;stroke:#000000;stroke-linejoin:miter;"/>
    </g>
    <g id="line2d_30">
     <path d="
M721.906 73.9689
L731.706 73.9689" style="fill:none;stroke:#ff0000;stroke-linecap:square;"/>
    </g>
    <g id="line2d_31"/>
    <g id="text_16">
     <!-- PKAc el.0 -->
     <defs>
      <path d="
M10.6875 12.4062
L21 12.4062
L21 0
L10.6875 0
z
" id="BitstreamVeraSans-Roman-2e"/>
      <path d="
M9.8125 72.9062
L19.6719 72.9062
L19.6719 42.0938
L52.3906 72.9062
L65.0938 72.9062
L28.9062 38.9219
L67.6719 0
L54.6875 0
L19.6719 35.1094
L19.6719 0
L9.8125 0
z
" id="BitstreamVeraSans-Roman-4b"/>
      <path d="
M19.6719 64.7969
L19.6719 37.4062
L32.0781 37.4062
Q38.9688 37.4062 42.7188 40.9688
Q46.4844 44.5312 46.4844 51.125
Q46.4844 57.6719 42.7188 61.2344
Q38.9688 64.7969 32.0781 64.7969
z

M9.8125 72.9062
L32.0781 72.9062
Q44.3438 72.9062 50.6094 67.3594
Q56.8906 61.8125 56.8906 51.125
Q56.8906 40.3281 50.6094 34.8125
Q44.3438 29.2969 32.0781 29.2969
L19.6719 29.2969
L19.6719 0
L9.8125 0
z
" id="BitstreamVeraSans-Roman-50"/>
      <path d="
M34.1875 63.1875
L20.7969 26.9062
L47.6094 26.9062
z

M28.6094 72.9062
L39.7969 72.9062
L67.5781 0
L57.3281 0
L50.6875 18.7031
L17.8281 18.7031
L11.1875 0
L0.78125 0
z
" id="BitstreamVeraSans-Roman-41"/>
     </defs>
     <g transform="translate(739.40625 76.41890625)scale(0.07 -0.07)">
      <use xlink:href="#BitstreamVeraSans-Roman-50"/>
      <use x="60.302734375" xlink:href="#BitstreamVeraSans-Roman-4b"/>
      <use x="124.12890625" xlink:href="#BitstreamVeraSans-Roman-41"/>
      <use x="190.787109375" xlink:href="#BitstreamVeraSans-Roman-63"/>
      <use x="245.767578125" xlink:href="#BitstreamVeraSans-Roman-20"/>
      <use x="277.5546875" xlink:href="#BitstreamVeraSans-Roman-65"/>
      <use x="339.078125" xlink:href="#BitstreamVeraSans-Roman-6c"/>
      <use x="366.861328125" xlink:href="#BitstreamVeraSans-Roman-2e"/>
      <use x="398.6484375" xlink:href="#BitstreamVeraSans-Roman-30"/>
     </g>
    </g>
    <g id="line2d_32">
     <path d="
M721.906 84.2436
L731.706 84.2436" style="fill:none;stroke:#008000;stroke-linecap:square;"/>
    </g>
    <g id="line2d_33"/>
    <g id="text_17">
     <!-- PKAc el.1 -->
     <g transform="translate(739.40625 86.69359375)scale(0.07 -0.07)">
      <use xlink:href="#BitstreamVeraSans-Roman-50"/>
      <use x="60.302734375" xlink:href="#BitstreamVeraSans-Roman-4b"/>
      <use x="124.12890625" xlink:href="#BitstreamVeraSans-Roman-41"/>
      <use x="190.787109375" xlink:href="#BitstreamVeraSans-Roman-63"/>
      <use x="245.767578125" xlink:href="#BitstreamVeraSans-Roman-20"/>
      <use x="277.5546875" xlink:href="#BitstreamVeraSans-Roman-65"/>
      <use x="339.078125" xlink:href="#BitstreamVeraSans-Roman-6c"/>
      <use x="366.861328125" xlink:href="#BitstreamVeraSans-Roman-2e"/>
      <use x="398.6484375" xlink:href="#BitstreamVeraSans-Roman-31"/>
     </g>
    </g>
    <g id="line2d_34">
     <path d="
M721.906 94.5183
L731.706 94.5183" style="fill:none;stroke:#0000ff;stroke-linecap:square;"/>
    </g>
    <g id="line2d_35"/>
    <g id="text_18">
     <!-- PKAc el.2 -->
     <g transform="translate(739.40625 96.96828125)scale(0.07 -0.07)">
      <use xlink:href="#BitstreamVeraSans-Roman-50"/>
      <use x="60.302734375" xlink:href="#BitstreamVeraSans-Roman-4b"/>
      <use x="124.12890625" xlink:href="#BitstreamVeraSans-Roman-41"/>
      <use x="190.787109375" xlink:href="#BitstreamVeraSans-Roman-63"/>
      <use x="245.767578125" xlink:href="#BitstreamVeraSans-Roman-20"/>
      <use x="277.5546875" xlink:href="#BitstreamVeraSans-Roman-65"/>
      <use x="339.078125" xlink:href="#BitstreamVeraSans-Roman-6c"/>
      <use x="366.861328125" xlink:href="#BitstreamVeraSans-Roman-2e"/>
      <use x="398.6484375" xlink:href="#BitstreamVeraSans-Roman-32"/>
     </g>
    </g>
   </g>
  </g>
 </g>
 <defs>
  <clipPath id="p7ceb695115">
   <rect height="518.4" width="669.6" x="108.0" y="64.8"/>
  </clipPath>
 </defs>
</svg>
