<?xml version="1.0" encoding="utf-8" standalone="no"?>
<!DOCTYPE svg PUBLIC "-//W3C//DTD SVG 1.1//EN"
  "http://www.w3.org/Graphics/SVG/1.1/DTD/svg11.dtd">
<!-- Created with matplotlib (http://matplotlib.org/) -->
<svg height="648pt" version="1.1" viewBox="0 0 864 648" width="864pt" xmlns="http://www.w3.org/2000/svg" xmlns:xlink="http://www.w3.org/1999/xlink">
 <defs>
  <style type="text/css">
*{stroke-linecap:butt;stroke-linejoin:round;}
  </style>
 </defs>
 <g id="figure_1">
  <g id="patch_1">
   <path d="
M0 648
L864 648
L864 0
L0 0
z
" style="fill:#ffffff;"/>
  </g>
  <g id="axes_1">
   <g id="patch_2">
    <path d="
M108 583.2
L777.6 583.2
L777.6 64.8
L108 64.8
z
" style="fill:#ffffff;"/>
   </g>
   <g id="line2d_1">
    <path clip-path="url(#p7ceb695115)" d="
M108 583.2
L122.731 583.2
L123.401 580.32
L128.088 580.32
L128.758 583.2
L129.427 580.32
L130.097 583.2
L134.114 583.2
L134.784 580.32
L135.454 580.32
L136.123 577.44
L139.471 577.44
L140.141 574.56
L141.48 580.32
L143.489 580.32
L144.158 577.44
L144.828 580.32
L145.498 577.44
L146.837 577.44
L147.506 574.56
L148.176 574.56
L148.846 577.44
L152.194 577.44
L153.533 583.2
L158.89 583.2
L159.559 580.32
L160.229 580.32
L160.898 583.2
L170.273 583.2
L171.612 577.44
L175.63 577.44
L176.299 580.32
L178.308 580.32
L178.978 583.2
L179.647 583.2
L180.317 580.32
L182.995 580.32
L183.665 583.2
L250.625 583.2
L251.294 580.32
L262.678 580.32
L263.347 583.2
L264.017 580.32
L266.695 580.32
L267.365 583.2
L271.382 583.2
L272.052 580.32
L274.73 580.32
L275.4 583.2
L278.748 583.2
L279.418 580.32
L280.757 580.32
L281.426 583.2
L282.096 580.32
L286.114 580.32
L286.783 577.44
L287.453 577.44
L288.122 574.56
L289.462 574.56
L290.131 580.32
L293.479 580.32
L294.149 583.2
L294.818 580.32
L295.488 580.32
L296.158 583.2
L302.184 583.2
L302.854 580.32
L303.523 580.32
L304.193 583.2
L324.281 583.2
L324.95 580.32
L330.307 580.32
L330.977 583.2
L339.682 583.2
L340.351 580.32
L344.369 580.32
L345.038 583.2
L353.074 583.2
L353.743 580.32
L354.413 583.2
L365.126 583.2
L365.796 580.32
L366.466 583.2
L389.232 583.2
L389.902 580.32
L390.571 580.32
L391.241 577.44
L393.25 577.44
L393.919 580.32
L394.589 580.32
L395.258 577.44
L395.928 577.44
L396.598 580.32
L398.606 580.32
L399.276 583.2
L406.642 583.2
L407.311 580.32
L408.65 580.32
L409.32 583.2
L424.721 583.2
L425.39 580.32
L426.06 583.2
L442.13 583.2
L442.8 580.32
L444.139 580.32
L444.809 583.2
L446.148 583.2
L446.818 580.32
L447.487 568.8
L448.157 574.56
L449.496 568.8
L450.835 568.8
L451.505 557.28
L452.174 551.52
L452.844 568.8
L453.514 557.28
L454.183 540
L454.853 545.76
L455.522 560.16
L456.192 551.52
L456.862 537.12
L457.531 534.24
L458.201 519.84
L458.87 531.36
L459.54 534.24
L460.21 540
L460.879 525.6
L461.549 551.52
L462.888 534.24
L463.558 522.72
L464.227 519.84
L464.897 528.48
L465.566 528.48
L466.236 522.72
L466.906 548.64
L467.575 514.08
L468.245 537.12
L468.914 528.48
L469.584 548.64
L470.254 525.6
L470.923 537.12
L471.593 551.52
L472.262 534.24
L472.932 531.36
L473.602 548.64
L474.271 545.76
L474.941 525.6
L475.61 525.6
L476.28 516.96
L476.95 534.24
L477.619 519.84
L478.289 528.48
L478.958 531.36
L479.628 542.88
L480.967 548.64
L481.637 534.24
L482.306 540
L482.976 540
L483.646 528.48
L484.315 502.56
L484.985 522.72
L485.654 519.84
L486.324 525.6
L486.994 522.72
L487.663 511.2
L488.333 545.76
L489.002 525.6
L489.672 534.24
L491.681 551.52
L492.35 537.12
L493.02 537.12
L493.69 531.36
L494.359 519.84
L495.029 528.48
L495.698 540
L496.368 519.84
L497.038 537.12
L498.377 542.88
L499.046 508.32
L499.716 514.08
L501.055 537.12
L501.725 528.48
L502.394 531.36
L503.064 542.88
L503.734 531.36
L504.403 522.72
L505.742 534.24
L506.412 534.24
L507.082 545.76
L507.751 531.36
L508.421 514.08
L509.09 511.2
L509.76 525.6
L510.43 525.6
L511.099 516.96
L511.769 516.96
L512.438 519.84
L513.108 551.52
L513.778 542.88
L514.447 537.12
L515.117 537.12
L515.786 542.88
L516.456 505.44
L517.126 528.48
L517.795 531.36
L518.465 522.72
L519.804 540
L520.474 516.96
L521.143 528.48
L521.813 502.56
L522.482 522.72
L523.152 502.56
L523.822 519.84
L524.491 551.52
L525.161 519.84
L525.83 522.72
L526.5 531.36
L527.17 514.08
L527.839 511.2
L529.178 511.2
L529.848 493.92
L531.187 537.12
L531.857 522.72
L532.526 531.36
L533.196 519.84
L533.866 516.96
L534.535 508.32
L535.205 522.72
L535.874 491.04
L536.544 540
L537.214 514.08
L537.883 505.44
L538.553 514.08
L539.222 519.84
L539.892 531.36
L540.562 516.96
L541.231 516.96
L541.901 514.08
L542.57 531.36
L543.24 491.04
L543.91 508.32
L544.579 514.08
L545.249 522.72
L545.918 502.56
L547.258 514.08
L547.927 499.68
L548.597 511.2
L549.266 482.4
L549.936 482.4
L550.606 499.68
L551.275 496.8
L551.945 525.6
L552.614 525.6
L553.284 499.68
L553.954 491.04
L554.623 525.6
L555.293 488.16
L555.962 482.4
L557.302 505.44
L557.971 531.36
L558.641 525.6
L559.31 505.44
L559.98 511.2
L560.65 488.16
L561.319 505.44
L561.989 528.48
L562.658 508.32
L563.328 525.6
L563.998 502.56
L564.667 499.68
L565.337 476.64
L566.006 522.72
L566.676 502.56
L567.346 508.32
L568.685 502.56
L569.354 488.16
L570.024 496.8
L570.694 502.56
L571.363 485.28
L572.033 528.48
L572.702 522.72
L573.372 491.04
L574.042 488.16
L574.711 516.96
L575.381 511.2
L576.05 496.8
L576.72 485.28
L577.39 525.6
L578.059 502.56
L578.729 519.84
L579.398 514.08
L580.068 514.08
L580.738 499.68
L581.407 493.92
L582.077 502.56
L582.746 522.72
L583.416 514.08
L584.086 496.8
L584.755 502.56
L585.425 511.2
L586.094 496.8
L586.764 496.8
L587.434 488.16
L588.103 514.08
L588.773 468
L589.442 514.08
L590.112 491.04
L590.782 485.28
L591.451 496.8
L592.121 519.84
L592.79 488.16
L593.46 499.68
L594.13 525.6
L594.799 485.28
L595.469 508.32
L596.138 482.4
L596.808 522.72
L597.478 502.56
L598.147 499.68
L598.817 476.64
L599.486 485.28
L600.156 499.68
L600.826 485.28
L601.495 508.32
L602.165 505.44
L602.834 488.16
L603.504 496.8
L604.174 462.24
L604.843 496.8
L605.513 496.8
L606.182 493.92
L606.852 476.64
L607.522 511.2
L608.191 491.04
L608.861 479.52
L609.53 473.76
L610.2 522.72
L610.87 496.8
L611.539 488.16
L612.209 499.68
L612.878 502.56
L613.548 491.04
L614.218 473.76
L614.887 493.92
L615.557 505.44
L616.226 499.68
L616.896 488.16
L617.566 496.8
L618.235 488.16
L618.905 502.56
L619.574 465.12
L620.914 519.84
L621.583 493.92
L622.253 499.68
L623.592 488.16
L624.262 468
L624.931 488.16
L625.601 493.92
L626.27 485.28
L626.94 493.92
L627.61 493.92
L628.279 488.16
L628.949 508.32
L629.618 511.2
L630.288 499.68
L630.958 499.68
L631.627 482.4
L632.297 514.08
L632.966 502.56
L633.636 496.8
L634.306 516.96
L634.975 519.84
L635.645 511.2
L636.984 488.16
L637.654 488.16
L638.323 485.28
L638.993 499.68
L639.662 496.8
L640.332 502.56
L641.002 516.96
L641.671 485.28
L642.341 485.28
L643.01 496.8
L643.68 514.08
L644.35 502.56
L645.019 488.16
L645.689 482.4
L646.358 488.16
L647.028 459.36
L647.698 479.52
L648.367 493.92
L649.037 482.4
L649.706 505.44
L650.376 468
L651.046 491.04
L651.715 482.4
L652.385 488.16
L653.054 476.64
L653.724 473.76
L654.394 465.12
L655.063 496.8
L655.733 482.4
L656.402 482.4
L657.072 470.88
L657.742 505.44
L658.411 488.16
L659.081 473.76
L659.75 473.76
L660.42 482.4
L661.09 502.56
L661.759 493.92
L662.429 468
L663.098 516.96
L664.438 473.76
L665.107 496.8
L665.777 473.76
L666.446 502.56
L667.116 468
L667.786 479.52
L668.455 499.68
L669.125 493.92
L669.794 505.44
L670.464 479.52
L671.134 473.76
L671.803 476.64
L672.473 488.16
L673.142 473.76
L673.812 465.12
L674.482 470.88
L675.151 491.04
L675.821 479.52
L676.49 505.44
L677.16 493.92
L677.83 485.28
L678.499 493.92
L679.169 491.04
L679.838 468
L680.508 482.4
L681.178 465.12
L681.847 499.68
L682.517 473.76
L683.186 502.56
L683.856 479.52
L684.526 470.88
L685.195 511.2
L685.865 476.64
L686.534 493.92
L687.204 468
L687.874 502.56
L688.543 476.64
L689.213 485.28
L689.882 485.28
L690.552 519.84
L691.222 482.4
L691.891 482.4
L692.561 476.64
L693.23 499.68
L693.9 505.44
L694.57 505.44
L695.239 473.76
L695.909 479.52
L696.578 462.24
L697.248 514.08
L697.918 499.68
L698.587 493.92
L699.257 476.64
L699.926 482.4
L700.596 505.44
L701.266 476.64
L701.935 462.24
L702.605 488.16
L703.274 496.8
L703.944 444.96
L704.614 514.08
L705.283 491.04
L705.953 476.64
L706.622 519.84
L707.292 482.4
L707.962 479.52
L708.631 468
L709.301 502.56
L710.64 479.52
L711.31 473.76
L711.979 482.4
L712.649 456.48
L713.988 485.28
L714.658 488.16
L715.327 473.76
L715.997 505.44
L716.666 493.92
L717.336 488.16
L718.006 496.8
L718.675 496.8
L719.345 493.92
L720.014 499.68
L720.684 459.36
L721.354 493.92
L722.023 482.4
L722.693 511.2
L723.362 502.56
L724.032 502.56
L724.702 496.8
L725.371 514.08
L726.041 491.04
L726.71 473.76
L727.38 470.88
L728.05 482.4
L728.719 485.28
L729.389 473.76
L730.058 491.04
L732.067 499.68
L732.737 508.32
L733.406 468
L734.076 499.68
L734.746 488.16
L735.415 499.68
L736.085 479.52
L736.754 514.08
L737.424 493.92
L738.094 479.52
L738.763 496.8
L739.433 511.2
L740.102 476.64
L740.772 505.44
L741.442 499.68
L742.111 488.16
L742.781 485.28
L743.45 476.64
L744.12 516.96
L744.79 508.32
L745.459 468
L746.129 482.4
L746.798 491.04
L747.468 491.04
L748.138 482.4
L748.807 493.92
L749.477 508.32
L750.146 511.2
L750.816 505.44
L751.486 502.56
L752.155 508.32
L752.825 479.52
L753.494 496.8
L754.164 465.12
L754.834 476.64
L755.503 491.04
L756.173 493.92
L756.842 499.68
L757.512 488.16
L758.182 482.4
L758.851 491.04
L759.521 479.52
L760.19 482.4
L760.86 493.92
L761.53 459.36
L762.199 470.88
L762.869 491.04
L764.208 444.96
L764.878 479.52
L766.217 479.52
L766.886 473.76
L767.556 502.56
L768.226 482.4
L768.895 482.4
L769.565 493.92
L770.234 479.52
L770.904 508.32
L771.574 465.12
L772.243 491.04
L772.913 470.88
L773.582 485.28
L774.252 488.16
L774.922 496.8
L775.591 488.16
L776.261 499.68
L776.93 493.92
L777.6 476.64
L777.6 476.64" style="fill:none;stroke:#ff0000;stroke-linecap:square;"/>
   </g>
   <g id="line2d_2">
    <path clip-path="url(#p7ceb695115)" d="
M108 583.2
L108.67 580.32
L110.678 580.32
L111.348 577.44
L114.026 577.44
L114.696 580.32
L120.722 580.32
L121.392 577.44
L122.062 577.44
L122.731 574.56
L126.079 574.56
L126.749 577.44
L128.088 577.44
L129.427 571.68
L130.097 571.68
L130.766 574.56
L131.436 574.56
L132.106 580.32
L133.445 574.56
L134.114 577.44
L134.784 577.44
L135.454 580.32
L137.462 580.32
L138.132 577.44
L140.141 577.44
L140.81 580.32
L142.15 580.32
L142.819 577.44
L143.489 580.32
L146.167 580.32
L146.837 583.2
L148.846 583.2
L149.515 580.32
L150.185 580.32
L150.854 583.2
L151.524 580.32
L152.194 583.2
L156.211 583.2
L156.881 580.32
L157.55 583.2
L158.22 583.2
L158.89 580.32
L159.559 583.2
L160.229 580.32
L160.898 583.2
L161.568 580.32
L162.238 580.32
L163.577 574.56
L168.934 574.56
L169.603 580.32
L172.282 580.32
L172.951 583.2
L176.969 583.2
L177.638 577.44
L178.978 577.44
L179.647 580.32
L180.317 577.44
L180.986 580.32
L182.326 580.32
L182.995 577.44
L183.665 571.68
L184.334 571.68
L185.674 577.44
L186.343 574.56
L187.682 574.56
L188.352 577.44
L189.691 577.44
L190.361 583.2
L191.03 580.32
L192.37 580.32
L193.039 577.44
L193.709 577.44
L195.048 583.2
L199.066 583.2
L199.735 580.32
L200.405 583.2
L205.762 583.2
L207.101 577.44
L207.77 577.44
L208.44 580.32
L213.127 580.32
L213.797 583.2
L214.466 580.32
L216.475 580.32
L217.145 577.44
L218.484 577.44
L219.154 580.32
L219.823 580.32
L220.493 583.2
L221.162 583.2
L221.832 580.32
L222.502 580.32
L223.171 583.2
L223.841 580.32
L227.189 580.32
L228.528 574.56
L229.198 577.44
L229.867 574.56
L231.876 574.56
L232.546 577.44
L236.563 577.44
L237.233 574.56
L237.902 577.44
L239.242 577.44
L239.911 574.56
L240.581 574.56
L241.25 571.68
L241.92 574.56
L242.59 574.56
L243.259 571.68
L243.929 571.68
L244.598 568.8
L245.268 568.8
L245.938 574.56
L247.277 580.32
L250.625 580.32
L251.294 574.56
L251.964 574.56
L252.634 571.68
L253.303 580.32
L254.642 580.32
L255.312 583.2
L255.982 580.32
L256.651 580.32
L257.321 577.44
L257.99 577.44
L258.66 580.32
L262.008 580.32
L262.678 577.44
L263.347 580.32
L264.686 580.32
L265.356 577.44
L267.365 577.44
L268.034 580.32
L268.704 580.32
L269.374 577.44
L275.4 577.44
L276.07 574.56
L276.739 577.44
L278.748 577.44
L279.418 580.32
L280.087 577.44
L282.766 577.44
L283.435 571.68
L284.105 571.68
L285.444 577.44
L286.114 577.44
L286.783 574.56
L288.122 574.56
L290.131 583.2
L293.479 583.2
L294.149 577.44
L294.818 577.44
L295.488 574.56
L296.158 574.56
L296.827 577.44
L297.497 577.44
L298.166 580.32
L302.854 580.32
L303.523 583.2
L305.532 583.2
L306.202 580.32
L308.88 580.32
L309.55 577.44
L311.558 577.44
L312.898 583.2
L323.611 583.2
L324.281 580.32
L324.95 583.2
L327.629 583.2
L328.298 577.44
L328.968 580.32
L331.646 580.32
L332.316 583.2
L332.986 580.32
L333.655 583.2
L337.003 583.2
L337.673 580.32
L338.342 580.32
L339.012 583.2
L347.047 583.2
L347.717 580.32
L350.395 580.32
L351.065 574.56
L351.734 577.44
L353.743 577.44
L354.413 580.32
L355.752 580.32
L356.422 577.44
L357.091 577.44
L357.761 580.32
L358.43 577.44
L361.109 577.44
L361.778 580.32
L370.483 580.32
L371.153 577.44
L371.822 577.44
L372.492 580.32
L373.831 574.56
L374.501 574.56
L375.17 577.44
L375.84 577.44
L376.51 574.56
L377.849 574.56
L378.518 577.44
L379.858 577.44
L380.527 574.56
L381.197 574.56
L382.536 568.8
L383.206 568.8
L385.214 577.44
L385.884 574.56
L386.554 577.44
L387.893 577.44
L388.562 583.2
L399.276 583.2
L399.946 580.32
L401.285 580.32
L401.954 583.2
L407.981 583.2
L408.65 580.32
L409.32 583.2
L409.99 583.2
L410.659 580.32
L412.668 580.32
L413.338 577.44
L414.007 580.32
L415.346 580.32
L416.016 583.2
L420.034 583.2
L420.703 580.32
L421.373 583.2
L422.042 580.32
L424.721 580.32
L425.39 583.2
L426.06 580.32
L426.73 580.32
L427.399 577.44
L428.069 580.32
L431.417 580.32
L432.086 583.2
L433.426 583.2
L434.095 580.32
L434.765 580.32
L435.434 583.2
L436.104 583.2
L436.774 580.32
L441.461 580.32
L442.13 583.2
L444.139 583.2
L444.809 577.44
L445.478 568.8
L446.148 557.28
L446.818 560.16
L447.487 540
L448.157 531.36
L448.826 508.32
L449.496 516.96
L450.166 519.84
L450.835 476.64
L451.505 482.4
L452.174 473.76
L452.844 468
L453.514 468
L454.183 439.2
L454.853 453.6
L455.522 462.24
L456.192 442.08
L456.862 465.12
L457.531 398.88
L458.201 433.44
L458.87 421.92
L459.54 421.92
L460.21 444.96
L460.879 407.52
L461.549 416.16
L462.218 387.36
L462.888 396
L463.558 381.6
L464.227 387.36
L464.897 424.8
L465.566 375.84
L466.236 378.72
L466.906 378.72
L467.575 410.4
L468.245 387.36
L468.914 384.48
L469.584 390.24
L470.254 421.92
L470.923 300.96
L471.593 349.92
L472.262 381.6
L472.932 401.76
L473.602 378.72
L474.271 398.88
L474.941 352.8
L475.61 372.96
L476.28 335.52
L476.95 367.2
L477.619 341.28
L478.289 424.8
L478.958 367.2
L479.628 352.8
L480.298 378.72
L480.967 393.12
L481.637 352.8
L482.306 372.96
L482.976 332.64
L483.646 361.44
L484.315 347.04
L484.985 370.08
L485.654 378.72
L486.324 384.48
L486.994 370.08
L487.663 364.32
L488.333 329.76
L489.002 341.28
L489.672 378.72
L490.342 315.36
L491.011 364.32
L491.681 349.92
L492.35 387.36
L493.02 358.56
L493.69 387.36
L494.359 344.16
L495.029 347.04
L495.698 347.04
L496.368 396
L497.038 306.72
L497.707 370.08
L498.377 335.52
L499.046 326.88
L499.716 338.4
L500.386 387.36
L501.055 324
L501.725 381.6
L502.394 347.04
L503.064 324
L503.734 332.64
L504.403 372.96
L505.073 361.44
L505.742 306.72
L506.412 378.72
L507.082 364.32
L507.751 312.48
L508.421 384.48
L509.09 384.48
L509.76 326.88
L510.43 352.8
L511.099 358.56
L511.769 318.24
L512.438 396
L513.108 341.28
L513.778 335.52
L514.447 390.24
L515.117 341.28
L515.786 315.36
L516.456 352.8
L517.126 306.72
L517.795 349.92
L518.465 341.28
L519.134 349.92
L519.804 292.32
L520.474 315.36
L521.143 303.84
L521.813 349.92
L522.482 286.56
L523.152 283.68
L523.822 364.32
L524.491 318.24
L525.161 344.16
L525.83 315.36
L526.5 318.24
L527.17 349.92
L527.839 393.12
L528.509 358.56
L529.178 338.4
L529.848 329.76
L530.518 312.48
L531.187 303.84
L532.526 381.6
L533.196 298.08
L533.866 387.36
L534.535 300.96
L535.205 358.56
L535.874 286.56
L536.544 370.08
L537.214 341.28
L537.883 372.96
L538.553 306.72
L539.222 309.6
L539.892 266.4
L540.562 292.32
L541.231 312.48
L541.901 318.24
L542.57 372.96
L543.24 355.68
L543.91 318.24
L544.579 335.52
L545.249 306.72
L545.918 358.56
L546.588 315.36
L547.258 347.04
L547.927 312.48
L548.597 300.96
L549.266 329.76
L549.936 280.8
L550.606 254.88
L551.275 295.2
L551.945 372.96
L552.614 277.92
L553.284 315.36
L553.954 269.28
L554.623 349.92
L555.293 277.92
L555.962 289.44
L556.632 295.2
L557.302 358.56
L557.971 352.8
L558.641 292.32
L559.31 277.92
L559.98 300.96
L560.65 275.04
L561.319 286.56
L561.989 283.68
L562.658 277.92
L563.328 226.08
L563.998 292.32
L564.667 257.76
L565.337 263.52
L566.006 318.24
L566.676 324
L567.346 280.8
L568.015 312.48
L568.685 309.6
L569.354 254.88
L570.024 280.8
L570.694 260.64
L571.363 231.84
L572.033 312.48
L572.702 280.8
L573.372 223.2
L574.042 286.56
L574.711 300.96
L575.381 292.32
L576.72 269.28
L577.39 260.64
L578.059 266.4
L578.729 324
L579.398 266.4
L580.068 252
L580.738 197.28
L581.407 228.96
L582.077 306.72
L582.746 254.88
L583.416 246.24
L584.086 298.08
L584.755 286.56
L585.425 252
L586.094 318.24
L586.764 295.2
L587.434 234.72
L588.103 272.16
L588.773 269.28
L589.442 203.04
L590.112 280.8
L590.782 228.96
L591.451 237.6
L592.121 182.88
L592.79 208.8
L593.46 309.6
L594.13 234.72
L594.799 220.32
L595.469 269.28
L596.138 214.56
L596.808 246.24
L597.478 217.44
L598.147 240.48
L598.817 252
L599.486 185.76
L600.826 234.72
L601.495 246.24
L602.165 254.88
L602.834 266.4
L603.504 203.04
L604.174 234.72
L604.843 240.48
L605.513 231.84
L606.182 263.52
L606.852 211.68
L607.522 191.52
L608.191 220.32
L608.861 234.72
L609.53 252
L610.2 263.52
L610.87 269.28
L611.539 200.16
L612.209 269.28
L612.878 226.08
L613.548 280.8
L614.218 254.88
L614.887 252
L615.557 226.08
L616.226 214.56
L616.896 197.28
L617.566 243.36
L618.235 214.56
L618.905 257.76
L619.574 194.4
L620.244 208.8
L620.914 226.08
L621.583 254.88
L622.922 243.36
L623.592 228.96
L624.262 197.28
L624.931 208.8
L625.601 205.92
L626.27 228.96
L626.94 165.6
L627.61 188.64
L628.279 185.76
L628.949 240.48
L629.618 185.76
L630.288 237.6
L630.958 231.84
L631.627 214.56
L632.297 237.6
L632.966 211.68
L633.636 180
L634.306 226.08
L634.975 180
L635.645 234.72
L636.314 220.32
L636.984 240.48
L637.654 203.04
L638.323 211.68
L638.993 217.44
L639.662 226.08
L640.332 159.84
L641.002 240.48
L641.671 185.76
L642.341 177.12
L643.01 159.84
L643.68 188.64
L644.35 266.4
L645.019 237.6
L645.689 283.68
L647.028 194.4
L647.698 237.6
L648.367 208.8
L649.037 266.4
L649.706 185.76
L650.376 182.88
L651.046 139.68
L651.715 203.04
L652.385 200.16
L653.054 182.88
L653.724 217.44
L654.394 200.16
L655.063 252
L655.733 185.76
L656.402 254.88
L657.072 182.88
L657.742 185.76
L658.411 185.76
L659.081 180
L659.75 211.68
L660.42 228.96
L661.09 180
L661.759 203.04
L662.429 188.64
L663.098 252
L663.768 220.32
L664.438 162.72
L665.107 237.6
L665.777 165.6
L666.446 197.28
L667.116 211.68
L667.786 197.28
L668.455 254.88
L669.794 185.76
L670.464 171.36
L671.134 208.8
L671.803 174.24
L672.473 208.8
L673.142 211.68
L673.812 148.32
L674.482 223.2
L675.151 269.28
L675.821 145.44
L676.49 260.64
L677.16 191.52
L677.83 191.52
L678.499 177.12
L679.169 148.32
L679.838 168.48
L680.508 205.92
L681.178 228.96
L681.847 145.44
L682.517 154.08
L683.186 226.08
L683.856 211.68
L684.526 154.08
L685.195 205.92
L685.865 185.76
L686.534 214.56
L687.204 185.76
L687.874 185.76
L688.543 223.2
L689.213 217.44
L689.882 182.88
L690.552 226.08
L691.222 217.44
L691.891 240.48
L692.561 200.16
L693.23 252
L693.9 252
L694.57 159.84
L695.239 188.64
L695.909 154.08
L696.578 217.44
L697.248 133.92
L697.918 159.84
L698.587 200.16
L699.257 200.16
L699.926 168.48
L700.596 217.44
L701.266 208.8
L701.935 159.84
L702.605 159.84
L703.274 151.2
L703.944 171.36
L704.614 214.56
L705.283 162.72
L705.953 246.24
L706.622 217.44
L707.292 226.08
L707.962 168.48
L708.631 174.24
L709.301 194.4
L709.97 205.92
L710.64 168.48
L711.31 211.68
L711.979 217.44
L712.649 148.32
L713.318 136.8
L714.658 226.08
L715.327 188.64
L716.666 226.08
L717.336 165.6
L718.006 191.52
L718.675 289.44
L719.345 211.68
L720.014 188.64
L720.684 154.08
L721.354 180
L722.023 243.36
L722.693 159.84
L723.362 240.48
L724.032 203.04
L724.702 226.08
L725.371 203.04
L726.041 217.44
L726.71 211.68
L727.38 203.04
L728.05 220.32
L728.719 191.52
L729.389 234.72
L730.728 182.88
L731.398 188.64
L732.067 228.96
L732.737 220.32
L733.406 228.96
L734.076 260.64
L734.746 139.68
L735.415 171.36
L736.085 96.48
L736.754 177.12
L737.424 116.64
L738.094 214.56
L738.763 217.44
L739.433 177.12
L740.102 168.48
L740.772 174.24
L741.442 139.68
L742.111 174.24
L742.781 145.44
L743.45 240.48
L744.12 228.96
L744.79 180
L745.459 182.88
L746.129 139.68
L746.798 226.08
L747.468 142.56
L748.138 208.8
L748.807 185.76
L749.477 240.48
L750.146 208.8
L750.816 205.92
L751.486 194.4
L752.155 180
L752.825 171.36
L753.494 188.64
L754.164 211.68
L754.834 182.88
L755.503 220.32
L756.173 171.36
L756.842 188.64
L757.512 246.24
L758.182 226.08
L758.851 171.36
L759.521 159.84
L760.19 217.44
L760.86 240.48
L761.53 142.56
L762.199 217.44
L762.869 208.8
L763.538 252
L764.208 188.64
L764.878 203.04
L765.547 208.8
L766.217 142.56
L766.886 168.48
L767.556 254.88
L768.226 177.12
L768.895 234.72
L769.565 200.16
L770.234 257.76
L770.904 214.56
L771.574 243.36
L772.243 234.72
L772.913 145.44
L773.582 168.48
L774.252 142.56
L774.922 171.36
L775.591 289.44
L776.261 185.76
L776.93 203.04
L777.6 165.6
L777.6 165.6" style="fill:none;stroke:#008000;stroke-linecap:square;"/>
   </g>
   <g id="line2d_3">
    <path clip-path="url(#p7ceb695115)" d="
M108 583.2
L115.366 583.2
L116.035 580.32
L116.705 580.32
L117.374 577.44
L118.044 577.44
L119.383 583.2
L128.758 583.2
L129.427 580.32
L130.097 580.32
L130.766 583.2
L138.132 583.2
L138.802 580.32
L140.81 580.32
L141.48 583.2
L144.828 583.2
L145.498 580.32
L146.837 580.32
L147.506 583.2
L151.524 583.2
L152.194 580.32
L152.863 580.32
L153.533 583.2
L164.246 583.2
L164.916 577.44
L166.255 577.44
L166.925 583.2
L167.594 580.32
L168.264 580.32
L168.934 583.2
L172.951 583.2
L173.621 580.32
L174.96 580.32
L175.63 583.2
L185.004 583.2
L186.343 577.44
L193.709 577.44
L195.048 583.2
L201.074 583.2
L201.744 580.32
L202.414 583.2
L267.365 583.2
L268.034 580.32
L270.713 580.32
L271.382 583.2
L274.061 583.2
L274.73 580.32
L275.4 580.32
L276.07 583.2
L284.105 583.2
L284.774 580.32
L286.114 580.32
L286.783 583.2
L287.453 583.2
L288.122 580.32
L288.792 583.2
L292.14 583.2
L292.81 580.32
L293.479 583.2
L296.158 583.2
L296.827 580.32
L300.175 580.32
L300.845 583.2
L302.184 583.2
L302.854 580.32
L304.193 580.32
L304.862 583.2
L318.254 583.2
L318.924 580.32
L319.594 583.2
L326.959 583.2
L327.629 580.32
L331.646 580.32
L332.316 577.44
L332.986 580.32
L334.325 580.32
L334.994 577.44
L336.334 583.2
L337.673 583.2
L338.342 580.32
L343.03 580.32
L343.699 577.44
L345.708 577.44
L347.047 583.2
L361.109 583.2
L361.778 580.32
L367.135 580.32
L367.805 583.2
L379.858 583.2
L380.527 580.32
L381.197 583.2
L409.99 583.2
L410.659 580.32
L414.007 580.32
L414.677 583.2
L415.346 583.2
L416.016 580.32
L424.721 580.32
L425.39 583.2
L444.139 583.2
L445.478 577.44
L446.148 577.44
L446.818 580.32
L447.487 577.44
L448.157 577.44
L448.826 563.04
L449.496 574.56
L450.835 563.04
L451.505 565.92
L452.174 551.52
L452.844 534.24
L453.514 565.92
L454.183 545.76
L454.853 545.76
L456.192 563.04
L456.862 545.76
L457.531 542.88
L458.201 542.88
L459.54 548.64
L460.21 528.48
L460.879 560.16
L461.549 537.12
L462.218 548.64
L462.888 534.24
L463.558 534.24
L464.897 551.52
L465.566 540
L466.236 540
L466.906 514.08
L467.575 519.84
L468.245 528.48
L468.914 516.96
L469.584 537.12
L470.254 528.48
L470.923 537.12
L471.593 537.12
L472.262 534.24
L472.932 540
L473.602 534.24
L474.271 499.68
L474.941 554.4
L475.61 528.48
L476.28 514.08
L476.95 522.72
L477.619 522.72
L478.289 537.12
L478.958 528.48
L479.628 525.6
L480.298 542.88
L480.967 522.72
L482.306 534.24
L482.976 499.68
L483.646 534.24
L484.315 514.08
L484.985 531.36
L485.654 525.6
L486.324 540
L487.663 511.2
L488.333 525.6
L489.002 551.52
L489.672 528.48
L490.342 540
L491.011 522.72
L492.35 516.96
L493.02 528.48
L493.69 531.36
L494.359 545.76
L495.029 528.48
L495.698 545.76
L496.368 528.48
L497.038 514.08
L497.707 528.48
L499.046 545.76
L499.716 545.76
L500.386 542.88
L501.055 525.6
L501.725 525.6
L502.394 542.88
L503.064 508.32
L503.734 514.08
L504.403 537.12
L505.073 522.72
L505.742 519.84
L506.412 522.72
L507.082 528.48
L507.751 537.12
L508.421 508.32
L509.09 534.24
L509.76 522.72
L510.43 534.24
L511.099 502.56
L511.769 537.12
L512.438 514.08
L513.108 516.96
L513.778 502.56
L514.447 540
L515.117 508.32
L516.456 542.88
L517.126 528.48
L517.795 508.32
L518.465 525.6
L519.134 522.72
L519.804 534.24
L520.474 534.24
L521.143 528.48
L521.813 534.24
L523.152 522.72
L523.822 522.72
L524.491 525.6
L525.161 519.84
L525.83 508.32
L526.5 540
L527.17 525.6
L527.839 528.48
L528.509 514.08
L529.178 505.44
L530.518 511.2
L531.187 493.92
L531.857 502.56
L532.526 528.48
L533.196 516.96
L533.866 488.16
L534.535 522.72
L535.205 522.72
L535.874 525.6
L537.214 537.12
L537.883 516.96
L538.553 522.72
L539.222 514.08
L539.892 502.56
L540.562 511.2
L541.231 528.48
L541.901 528.48
L542.57 505.44
L543.24 508.32
L543.91 522.72
L544.579 514.08
L545.918 531.36
L546.588 508.32
L547.258 493.92
L547.927 522.72
L548.597 496.8
L549.266 537.12
L549.936 531.36
L550.606 499.68
L551.275 522.72
L552.614 511.2
L553.284 514.08
L553.954 493.92
L554.623 525.6
L555.962 496.8
L556.632 525.6
L557.302 540
L557.971 508.32
L558.641 508.32
L559.98 525.6
L560.65 511.2
L561.319 505.44
L561.989 519.84
L562.658 491.04
L563.328 534.24
L563.998 499.68
L564.667 528.48
L565.337 508.32
L566.006 496.8
L566.676 514.08
L567.346 511.2
L568.015 514.08
L568.685 511.2
L569.354 522.72
L570.024 511.2
L570.694 525.6
L571.363 493.92
L572.033 519.84
L572.702 493.92
L573.372 462.24
L574.042 496.8
L574.711 499.68
L575.381 505.44
L576.05 519.84
L576.72 525.6
L577.39 505.44
L578.059 499.68
L578.729 528.48
L579.398 502.56
L580.068 491.04
L580.738 508.32
L581.407 502.56
L582.077 505.44
L582.746 514.08
L583.416 511.2
L584.086 511.2
L584.755 528.48
L585.425 508.32
L586.094 505.44
L586.764 522.72
L587.434 499.68
L588.103 511.2
L588.773 508.32
L589.442 473.76
L590.112 491.04
L590.782 468
L591.451 496.8
L592.121 531.36
L592.79 493.92
L593.46 531.36
L594.13 499.68
L595.469 522.72
L596.138 508.32
L596.808 505.44
L597.478 493.92
L598.147 491.04
L598.817 519.84
L599.486 496.8
L600.156 502.56
L600.826 456.48
L601.495 516.96
L602.165 485.28
L602.834 468
L603.504 514.08
L604.174 493.92
L604.843 491.04
L605.513 496.8
L606.182 491.04
L606.852 462.24
L607.522 488.16
L608.191 488.16
L608.861 473.76
L609.53 468
L610.2 496.8
L610.87 482.4
L611.539 502.56
L612.209 505.44
L612.878 499.68
L613.548 511.2
L614.218 511.2
L614.887 491.04
L615.557 482.4
L616.226 499.68
L616.896 499.68
L617.566 470.88
L618.235 499.68
L618.905 485.28
L620.244 514.08
L620.914 482.4
L621.583 508.32
L622.253 496.8
L622.922 473.76
L623.592 508.32
L624.262 482.4
L624.931 493.92
L626.27 470.88
L626.94 502.56
L627.61 491.04
L628.279 525.6
L628.949 493.92
L629.618 514.08
L630.288 522.72
L631.627 505.44
L632.297 482.4
L632.966 505.44
L633.636 508.32
L634.306 491.04
L634.975 493.92
L635.645 493.92
L636.314 511.2
L636.984 514.08
L637.654 508.32
L638.323 508.32
L638.993 488.16
L639.662 493.92
L640.332 514.08
L641.002 505.44
L641.671 499.68
L643.01 493.92
L643.68 485.28
L644.35 493.92
L645.019 482.4
L645.689 508.32
L646.358 473.76
L647.028 508.32
L647.698 482.4
L649.037 499.68
L649.706 465.12
L650.376 459.36
L651.046 499.68
L651.715 499.68
L652.385 485.28
L653.054 502.56
L653.724 450.72
L654.394 502.56
L655.063 499.68
L655.733 491.04
L656.402 470.88
L657.072 465.12
L657.742 531.36
L658.411 511.2
L659.081 496.8
L659.75 491.04
L660.42 470.88
L661.09 508.32
L662.429 462.24
L663.098 508.32
L663.768 485.28
L664.438 476.64
L665.107 482.4
L665.777 514.08
L666.446 493.92
L667.116 502.56
L667.786 491.04
L668.455 496.8
L669.125 459.36
L670.464 508.32
L671.134 470.88
L671.803 462.24
L672.473 473.76
L673.142 502.56
L673.812 479.52
L674.482 468
L675.151 493.92
L675.821 505.44
L676.49 491.04
L677.16 488.16
L677.83 444.96
L678.499 485.28
L679.169 462.24
L679.838 482.4
L680.508 491.04
L681.178 511.2
L681.847 491.04
L682.517 499.68
L683.186 488.16
L683.856 473.76
L684.526 485.28
L685.195 491.04
L685.865 459.36
L686.534 499.68
L687.204 502.56
L687.874 488.16
L688.543 508.32
L689.213 465.12
L689.882 485.28
L690.552 476.64
L691.222 516.96
L691.891 485.28
L692.561 499.68
L693.23 479.52
L693.9 485.28
L694.57 496.8
L695.239 496.8
L695.909 479.52
L696.578 491.04
L697.918 485.28
L698.587 502.56
L699.257 456.48
L699.926 450.72
L700.596 491.04
L701.266 491.04
L701.935 476.64
L702.605 468
L703.274 511.2
L703.944 502.56
L704.614 511.2
L705.953 488.16
L706.622 465.12
L707.292 488.16
L707.962 465.12
L708.631 525.6
L709.301 488.16
L709.97 519.84
L710.64 502.56
L711.31 499.68
L711.979 493.92
L712.649 508.32
L713.318 491.04
L713.988 482.4
L714.658 525.6
L715.327 479.52
L715.997 485.28
L716.666 493.92
L717.336 468
L718.006 462.24
L718.675 499.68
L719.345 514.08
L720.014 488.16
L720.684 511.2
L721.354 470.88
L722.023 496.8
L722.693 488.16
L723.362 511.2
L724.032 482.4
L724.702 496.8
L725.371 508.32
L726.041 479.52
L726.71 473.76
L727.38 488.16
L728.05 508.32
L728.719 473.76
L729.389 476.64
L730.058 496.8
L730.728 508.32
L731.398 496.8
L732.067 479.52
L732.737 488.16
L733.406 493.92
L734.076 485.28
L734.746 465.12
L735.415 502.56
L736.085 493.92
L736.754 499.68
L738.094 488.16
L738.763 508.32
L739.433 465.12
L740.102 468
L740.772 505.44
L741.442 496.8
L742.111 493.92
L742.781 479.52
L743.45 479.52
L744.12 488.16
L744.79 470.88
L745.459 514.08
L746.129 473.76
L746.798 491.04
L747.468 468
L748.138 502.56
L748.807 522.72
L749.477 462.24
L750.146 485.28
L750.816 482.4
L751.486 488.16
L752.155 516.96
L752.825 508.32
L753.494 479.52
L754.164 499.68
L754.834 479.52
L755.503 482.4
L756.173 488.16
L756.842 491.04
L757.512 462.24
L758.182 516.96
L758.851 508.32
L759.521 522.72
L760.19 499.68
L760.86 514.08
L761.53 496.8
L762.199 482.4
L762.869 491.04
L763.538 516.96
L764.208 491.04
L764.878 493.92
L765.547 482.4
L766.217 465.12
L766.886 476.64
L767.556 505.44
L768.226 479.52
L768.895 496.8
L769.565 519.84
L770.234 493.92
L770.904 499.68
L771.574 499.68
L772.243 479.52
L772.913 491.04
L773.582 465.12
L774.252 479.52
L774.922 514.08
L775.591 491.04
L776.261 519.84
L776.93 488.16
L777.6 468
L777.6 468" style="fill:none;stroke:#0000ff;stroke-linecap:square;"/>
   </g>
   <g id="patch_3">
    <path d="
M108 583.2
L777.6 583.2" style="fill:none;stroke:#000000;stroke-linecap:square;stroke-linejoin:miter;"/>
   </g>
   <g id="patch_4">
    <path d="
M108 64.8
L777.6 64.8" style="fill:none;stroke:#000000;stroke-linecap:square;stroke-linejoin:miter;"/>
   </g>
   <g id="patch_5">
    <path d="
M108 583.2
L108 64.8" style="fill:none;stroke:#000000;stroke-linecap:square;stroke-linejoin:miter;"/>
   </g>
   <g id="patch_6">
    <path d="
M777.6 583.2
L777.6 64.8" style="fill:none;stroke:#000000;stroke-linecap:square;stroke-linejoin:miter;"/>
   </g>
   <g id="matplotlib.axis_1">
    <g id="xtick_1">
     <g id="line2d_4">
      <defs>
       <path d="
M0 0
L0 -4" id="mc7db9fdffb" style="stroke:#000000;stroke-width:0.5;"/>
      </defs>
      <g>
       <use style="stroke:#000000;stroke-width:0.5;" x="108.0" xlink:href="#mc7db9fdffb" y="583.2"/>
      </g>
     </g>
     <g id="line2d_5">
      <defs>
       <path d="
M0 0
L0 4" id="m5a7d422ac3" style="stroke:#000000;stroke-width:0.5;"/>
      </defs>
      <g>
       <use style="stroke:#000000;stroke-width:0.5;" x="108.0" xlink:href="#m5a7d422ac3" y="64.8"/>
      </g>
     </g>
     <g id="text_1">
      <!-- 0 -->
      <defs>
       <path d="
M31.7812 66.4062
Q24.1719 66.4062 20.3281 58.9062
Q16.5 51.4219 16.5 36.375
Q16.5 21.3906 20.3281 13.8906
Q24.1719 6.39062 31.7812 6.39062
Q39.4531 6.39062 43.2812 13.8906
Q47.125 21.3906 47.125 36.375
Q47.125 51.4219 43.2812 58.9062
Q39.4531 66.4062 31.7812 66.4062
M31.7812 74.2188
Q44.0469 74.2188 50.5156 64.5156
Q56.9844 54.8281 56.9844 36.375
Q56.9844 17.9688 50.5156 8.26562
Q44.0469 -1.42188 31.7812 -1.42188
Q19.5312 -1.42188 13.0625 8.26562
Q6.59375 17.9688 6.59375 36.375
Q6.59375 54.8281 13.0625 64.5156
Q19.5312 74.2188 31.7812 74.2188" id="BitstreamVeraSans-Roman-30"/>
      </defs>
      <g transform="translate(104.9765625 596.318125)scale(0.12 -0.12)">
       <use xlink:href="#BitstreamVeraSans-Roman-30"/>
      </g>
     </g>
    </g>
    <g id="xtick_2">
     <g id="line2d_6">
      <g>
       <use style="stroke:#000000;stroke-width:0.5;" x="275.4" xlink:href="#mc7db9fdffb" y="583.2"/>
      </g>
     </g>
     <g id="line2d_7">
      <g>
       <use style="stroke:#000000;stroke-width:0.5;" x="275.4" xlink:href="#m5a7d422ac3" y="64.8"/>
      </g>
     </g>
     <g id="text_2">
      <!-- 50000 -->
      <defs>
       <path d="
M10.7969 72.9062
L49.5156 72.9062
L49.5156 64.5938
L19.8281 64.5938
L19.8281 46.7344
Q21.9688 47.4688 24.1094 47.8281
Q26.2656 48.1875 28.4219 48.1875
Q40.625 48.1875 47.75 41.5
Q54.8906 34.8125 54.8906 23.3906
Q54.8906 11.625 47.5625 5.09375
Q40.2344 -1.42188 26.9062 -1.42188
Q22.3125 -1.42188 17.5469 -0.640625
Q12.7969 0.140625 7.71875 1.70312
L7.71875 11.625
Q12.1094 9.23438 16.7969 8.0625
Q21.4844 6.89062 26.7031 6.89062
Q35.1562 6.89062 40.0781 11.3281
Q45.0156 15.7656 45.0156 23.3906
Q45.0156 31 40.0781 35.4375
Q35.1562 39.8906 26.7031 39.8906
Q22.75 39.8906 18.8125 39.0156
Q14.8906 38.1406 10.7969 36.2812
z
" id="BitstreamVeraSans-Roman-35"/>
      </defs>
      <g transform="translate(257.1740625 596.318125)scale(0.12 -0.12)">
       <use xlink:href="#BitstreamVeraSans-Roman-35"/>
       <use x="63.623046875" xlink:href="#BitstreamVeraSans-Roman-30"/>
       <use x="127.24609375" xlink:href="#BitstreamVeraSans-Roman-30"/>
       <use x="190.869140625" xlink:href="#BitstreamVeraSans-Roman-30"/>
       <use x="254.4921875" xlink:href="#BitstreamVeraSans-Roman-30"/>
      </g>
     </g>
    </g>
    <g id="xtick_3">
     <g id="line2d_8">
      <g>
       <use style="stroke:#000000;stroke-width:0.5;" x="442.8" xlink:href="#mc7db9fdffb" y="583.2"/>
      </g>
     </g>
     <g id="line2d_9">
      <g>
       <use style="stroke:#000000;stroke-width:0.5;" x="442.8" xlink:href="#m5a7d422ac3" y="64.8"/>
      </g>
     </g>
     <g id="text_3">
      <!-- 100000 -->
      <defs>
       <path d="
M12.4062 8.29688
L28.5156 8.29688
L28.5156 63.9219
L10.9844 60.4062
L10.9844 69.3906
L28.4219 72.9062
L38.2812 72.9062
L38.2812 8.29688
L54.3906 8.29688
L54.3906 0
L12.4062 0
z
" id="BitstreamVeraSans-Roman-31"/>
      </defs>
      <g transform="translate(420.9525 596.318125)scale(0.12 -0.12)">
       <use xlink:href="#BitstreamVeraSans-Roman-31"/>
       <use x="63.623046875" xlink:href="#BitstreamVeraSans-Roman-30"/>
       <use x="127.24609375" xlink:href="#BitstreamVeraSans-Roman-30"/>
       <use x="190.869140625" xlink:href="#BitstreamVeraSans-Roman-30"/>
       <use x="254.4921875" xlink:href="#BitstreamVeraSans-Roman-30"/>
       <use x="318.115234375" xlink:href="#BitstreamVeraSans-Roman-30"/>
      </g>
     </g>
    </g>
    <g id="xtick_4">
     <g id="line2d_10">
      <g>
       <use style="stroke:#000000;stroke-width:0.5;" x="610.2" xlink:href="#mc7db9fdffb" y="583.2"/>
      </g>
     </g>
     <g id="line2d_11">
      <g>
       <use style="stroke:#000000;stroke-width:0.5;" x="610.2" xlink:href="#m5a7d422ac3" y="64.8"/>
      </g>
     </g>
     <g id="text_4">
      <!-- 150000 -->
      <g transform="translate(588.3525 596.318125)scale(0.12 -0.12)">
       <use xlink:href="#BitstreamVeraSans-Roman-31"/>
       <use x="63.623046875" xlink:href="#BitstreamVeraSans-Roman-35"/>
       <use x="127.24609375" xlink:href="#BitstreamVeraSans-Roman-30"/>
       <use x="190.869140625" xlink:href="#BitstreamVeraSans-Roman-30"/>
       <use x="254.4921875" xlink:href="#BitstreamVeraSans-Roman-30"/>
       <use x="318.115234375" xlink:href="#BitstreamVeraSans-Roman-30"/>
      </g>
     </g>
    </g>
    <g id="xtick_5">
     <g id="line2d_12">
      <g>
       <use style="stroke:#000000;stroke-width:0.5;" x="777.6" xlink:href="#mc7db9fdffb" y="583.2"/>
      </g>
     </g>
     <g id="line2d_13">
      <g>
       <use style="stroke:#000000;stroke-width:0.5;" x="777.6" xlink:href="#m5a7d422ac3" y="64.8"/>
      </g>
     </g>
     <g id="text_5">
      <!-- 200000 -->
      <defs>
       <path d="
M19.1875 8.29688
L53.6094 8.29688
L53.6094 0
L7.32812 0
L7.32812 8.29688
Q12.9375 14.1094 22.625 23.8906
Q32.3281 33.6875 34.8125 36.5312
Q39.5469 41.8438 41.4219 45.5312
Q43.3125 49.2188 43.3125 52.7812
Q43.3125 58.5938 39.2344 62.25
Q35.1562 65.9219 28.6094 65.9219
Q23.9688 65.9219 18.8125 64.3125
Q13.6719 62.7031 7.8125 59.4219
L7.8125 69.3906
Q13.7656 71.7812 18.9375 73
Q24.125 74.2188 28.4219 74.2188
Q39.75 74.2188 46.4844 68.5469
Q53.2188 62.8906 53.2188 53.4219
Q53.2188 48.9219 51.5312 44.8906
Q49.8594 40.875 45.4062 35.4062
Q44.1875 33.9844 37.6406 27.2188
Q31.1094 20.4531 19.1875 8.29688" id="BitstreamVeraSans-Roman-32"/>
      </defs>
      <g transform="translate(755.533125 596.318125)scale(0.12 -0.12)">
       <use xlink:href="#BitstreamVeraSans-Roman-32"/>
       <use x="63.623046875" xlink:href="#BitstreamVeraSans-Roman-30"/>
       <use x="127.24609375" xlink:href="#BitstreamVeraSans-Roman-30"/>
       <use x="190.869140625" xlink:href="#BitstreamVeraSans-Roman-30"/>
       <use x="254.4921875" xlink:href="#BitstreamVeraSans-Roman-30"/>
       <use x="318.115234375" xlink:href="#BitstreamVeraSans-Roman-30"/>
      </g>
     </g>
    </g>
    <g id="text_6">
     <!-- t / ms -->
     <defs>
      <path id="BitstreamVeraSans-Roman-20"/>
      <path d="
M18.3125 70.2188
L18.3125 54.6875
L36.8125 54.6875
L36.8125 47.7031
L18.3125 47.7031
L18.3125 18.0156
Q18.3125 11.3281 20.1406 9.42188
Q21.9688 7.51562 27.5938 7.51562
L36.8125 7.51562
L36.8125 0
L27.5938 0
Q17.1875 0 13.2344 3.875
Q9.28125 7.76562 9.28125 18.0156
L9.28125 47.7031
L2.6875 47.7031
L2.6875 54.6875
L9.28125 54.6875
L9.28125 70.2188
z
" id="BitstreamVeraSans-Roman-74"/>
      <path d="
M44.2812 53.0781
L44.2812 44.5781
Q40.4844 46.5312 36.375 47.5
Q32.2812 48.4844 27.875 48.4844
Q21.1875 48.4844 17.8438 46.4375
Q14.5 44.3906 14.5 40.2812
Q14.5 37.1562 16.8906 35.375
Q19.2812 33.5938 26.5156 31.9844
L29.5938 31.2969
Q39.1562 29.25 43.1875 25.5156
Q47.2188 21.7812 47.2188 15.0938
Q47.2188 7.46875 41.1875 3.01562
Q35.1562 -1.42188 24.6094 -1.42188
Q20.2188 -1.42188 15.4531 -0.5625
Q10.6875 0.296875 5.42188 2
L5.42188 11.2812
Q10.4062 8.6875 15.2344 7.39062
Q20.0625 6.10938 24.8125 6.10938
Q31.1562 6.10938 34.5625 8.28125
Q37.9844 10.4531 37.9844 14.4062
Q37.9844 18.0625 35.5156 20.0156
Q33.0625 21.9688 24.7031 23.7812
L21.5781 24.5156
Q13.2344 26.2656 9.51562 29.9062
Q5.8125 33.5469 5.8125 39.8906
Q5.8125 47.6094 11.2812 51.7969
Q16.75 56 26.8125 56
Q31.7812 56 36.1719 55.2656
Q40.5781 54.5469 44.2812 53.0781" id="BitstreamVeraSans-Roman-73"/>
      <path d="
M25.3906 72.9062
L33.6875 72.9062
L8.29688 -9.28125
L0 -9.28125
z
" id="BitstreamVeraSans-Roman-2f"/>
      <path d="
M52 44.1875
Q55.375 50.25 60.0625 53.125
Q64.75 56 71.0938 56
Q79.6406 56 84.2812 50.0156
Q88.9219 44.0469 88.9219 33.0156
L88.9219 0
L79.8906 0
L79.8906 32.7188
Q79.8906 40.5781 77.0938 44.375
Q74.3125 48.1875 68.6094 48.1875
Q61.625 48.1875 57.5625 43.5469
Q53.5156 38.9219 53.5156 30.9062
L53.5156 0
L44.4844 0
L44.4844 32.7188
Q44.4844 40.625 41.7031 44.4062
Q38.9219 48.1875 33.1094 48.1875
Q26.2188 48.1875 22.1562 43.5312
Q18.1094 38.875 18.1094 30.9062
L18.1094 0
L9.07812 0
L9.07812 54.6875
L18.1094 54.6875
L18.1094 46.1875
Q21.1875 51.2188 25.4844 53.6094
Q29.7812 56 35.6875 56
Q41.6562 56 45.8281 52.9688
Q50 49.9531 52 44.1875" id="BitstreamVeraSans-Roman-6d"/>
     </defs>
     <g transform="translate(425.9353125 612.931875)scale(0.12 -0.12)">
      <use xlink:href="#BitstreamVeraSans-Roman-74"/>
      <use x="39.208984375" xlink:href="#BitstreamVeraSans-Roman-20"/>
      <use x="70.99609375" xlink:href="#BitstreamVeraSans-Roman-2f"/>
      <use x="104.6875" xlink:href="#BitstreamVeraSans-Roman-20"/>
      <use x="136.474609375" xlink:href="#BitstreamVeraSans-Roman-6d"/>
      <use x="233.88671875" xlink:href="#BitstreamVeraSans-Roman-73"/>
     </g>
    </g>
   </g>
   <g id="matplotlib.axis_2">
    <g id="ytick_1">
     <g id="line2d_14">
      <defs>
       <path d="
M0 0
L4 0" id="md7965d1ba0" style="stroke:#000000;stroke-width:0.5;"/>
      </defs>
      <g>
       <use style="stroke:#000000;stroke-width:0.5;" x="108.0" xlink:href="#md7965d1ba0" y="583.2"/>
      </g>
     </g>
     <g id="line2d_15">
      <defs>
       <path d="
M0 0
L-4 0" id="md9a1c1a7cd" style="stroke:#000000;stroke-width:0.5;"/>
      </defs>
      <g>
       <use style="stroke:#000000;stroke-width:0.5;" x="777.6" xlink:href="#md9a1c1a7cd" y="583.2"/>
      </g>
     </g>
     <g id="text_7">
      <!-- 0 -->
      <g transform="translate(97.953125 586.51125)scale(0.12 -0.12)">
       <use xlink:href="#BitstreamVeraSans-Roman-30"/>
      </g>
     </g>
    </g>
    <g id="ytick_2">
     <g id="line2d_16">
      <g>
       <use style="stroke:#000000;stroke-width:0.5;" x="108.0" xlink:href="#md7965d1ba0" y="525.6"/>
      </g>
     </g>
     <g id="line2d_17">
      <g>
       <use style="stroke:#000000;stroke-width:0.5;" x="777.6" xlink:href="#md9a1c1a7cd" y="525.6"/>
      </g>
     </g>
     <g id="text_8">
      <!-- 20 -->
      <g transform="translate(90.40625 528.91125)scale(0.12 -0.12)">
       <use xlink:href="#BitstreamVeraSans-Roman-32"/>
       <use x="63.623046875" xlink:href="#BitstreamVeraSans-Roman-30"/>
      </g>
     </g>
    </g>
    <g id="ytick_3">
     <g id="line2d_18">
      <g>
       <use style="stroke:#000000;stroke-width:0.5;" x="108.0" xlink:href="#md7965d1ba0" y="468.0"/>
      </g>
     </g>
     <g id="line2d_19">
      <g>
       <use style="stroke:#000000;stroke-width:0.5;" x="777.6" xlink:href="#md9a1c1a7cd" y="468.0"/>
      </g>
     </g>
     <g id="text_9">
      <!-- 40 -->
      <defs>
       <path d="
M37.7969 64.3125
L12.8906 25.3906
L37.7969 25.3906
z

M35.2031 72.9062
L47.6094 72.9062
L47.6094 25.3906
L58.0156 25.3906
L58.0156 17.1875
L47.6094 17.1875
L47.6094 0
L37.7969 0
L37.7969 17.1875
L4.89062 17.1875
L4.89062 26.7031
z
" id="BitstreamVeraSans-Roman-34"/>
      </defs>
      <g transform="translate(90.11375 471.31125)scale(0.12 -0.12)">
       <use xlink:href="#BitstreamVeraSans-Roman-34"/>
       <use x="63.623046875" xlink:href="#BitstreamVeraSans-Roman-30"/>
      </g>
     </g>
    </g>
    <g id="ytick_4">
     <g id="line2d_20">
      <g>
       <use style="stroke:#000000;stroke-width:0.5;" x="108.0" xlink:href="#md7965d1ba0" y="410.4"/>
      </g>
     </g>
     <g id="line2d_21">
      <g>
       <use style="stroke:#000000;stroke-width:0.5;" x="777.6" xlink:href="#md9a1c1a7cd" y="410.4"/>
      </g>
     </g>
     <g id="text_10">
      <!-- 60 -->
      <defs>
       <path d="
M33.0156 40.375
Q26.375 40.375 22.4844 35.8281
Q18.6094 31.2969 18.6094 23.3906
Q18.6094 15.5312 22.4844 10.9531
Q26.375 6.39062 33.0156 6.39062
Q39.6562 6.39062 43.5312 10.9531
Q47.4062 15.5312 47.4062 23.3906
Q47.4062 31.2969 43.5312 35.8281
Q39.6562 40.375 33.0156 40.375
M52.5938 71.2969
L52.5938 62.3125
Q48.875 64.0625 45.0938 64.9844
Q41.3125 65.9219 37.5938 65.9219
Q27.8281 65.9219 22.6719 59.3281
Q17.5312 52.7344 16.7969 39.4062
Q19.6719 43.6562 24.0156 45.9219
Q28.375 48.1875 33.5938 48.1875
Q44.5781 48.1875 50.9531 41.5156
Q57.3281 34.8594 57.3281 23.3906
Q57.3281 12.1562 50.6875 5.35938
Q44.0469 -1.42188 33.0156 -1.42188
Q20.3594 -1.42188 13.6719 8.26562
Q6.98438 17.9688 6.98438 36.375
Q6.98438 53.6562 15.1875 63.9375
Q23.3906 74.2188 37.2031 74.2188
Q40.9219 74.2188 44.7031 73.4844
Q48.4844 72.75 52.5938 71.2969" id="BitstreamVeraSans-Roman-36"/>
      </defs>
      <g transform="translate(90.365 413.71125)scale(0.12 -0.12)">
       <use xlink:href="#BitstreamVeraSans-Roman-36"/>
       <use x="63.623046875" xlink:href="#BitstreamVeraSans-Roman-30"/>
      </g>
     </g>
    </g>
    <g id="ytick_5">
     <g id="line2d_22">
      <g>
       <use style="stroke:#000000;stroke-width:0.5;" x="108.0" xlink:href="#md7965d1ba0" y="352.8"/>
      </g>
     </g>
     <g id="line2d_23">
      <g>
       <use style="stroke:#000000;stroke-width:0.5;" x="777.6" xlink:href="#md9a1c1a7cd" y="352.8"/>
      </g>
     </g>
     <g id="text_11">
      <!-- 80 -->
      <defs>
       <path d="
M31.7812 34.625
Q24.75 34.625 20.7188 30.8594
Q16.7031 27.0938 16.7031 20.5156
Q16.7031 13.9219 20.7188 10.1562
Q24.75 6.39062 31.7812 6.39062
Q38.8125 6.39062 42.8594 10.1719
Q46.9219 13.9688 46.9219 20.5156
Q46.9219 27.0938 42.8906 30.8594
Q38.875 34.625 31.7812 34.625
M21.9219 38.8125
Q15.5781 40.375 12.0312 44.7188
Q8.5 49.0781 8.5 55.3281
Q8.5 64.0625 14.7188 69.1406
Q20.9531 74.2188 31.7812 74.2188
Q42.6719 74.2188 48.875 69.1406
Q55.0781 64.0625 55.0781 55.3281
Q55.0781 49.0781 51.5312 44.7188
Q48 40.375 41.7031 38.8125
Q48.8281 37.1562 52.7969 32.3125
Q56.7812 27.4844 56.7812 20.5156
Q56.7812 9.90625 50.3125 4.23438
Q43.8438 -1.42188 31.7812 -1.42188
Q19.7344 -1.42188 13.25 4.23438
Q6.78125 9.90625 6.78125 20.5156
Q6.78125 27.4844 10.7812 32.3125
Q14.7969 37.1562 21.9219 38.8125
M18.3125 54.3906
Q18.3125 48.7344 21.8438 45.5625
Q25.3906 42.3906 31.7812 42.3906
Q38.1406 42.3906 41.7188 45.5625
Q45.3125 48.7344 45.3125 54.3906
Q45.3125 60.0625 41.7188 63.2344
Q38.1406 66.4062 31.7812 66.4062
Q25.3906 66.4062 21.8438 63.2344
Q18.3125 60.0625 18.3125 54.3906" id="BitstreamVeraSans-Roman-38"/>
      </defs>
      <g transform="translate(90.340625 356.11125)scale(0.12 -0.12)">
       <use xlink:href="#BitstreamVeraSans-Roman-38"/>
       <use x="63.623046875" xlink:href="#BitstreamVeraSans-Roman-30"/>
      </g>
     </g>
    </g>
    <g id="ytick_6">
     <g id="line2d_24">
      <g>
       <use style="stroke:#000000;stroke-width:0.5;" x="108.0" xlink:href="#md7965d1ba0" y="295.2"/>
      </g>
     </g>
     <g id="line2d_25">
      <g>
       <use style="stroke:#000000;stroke-width:0.5;" x="777.6" xlink:href="#md9a1c1a7cd" y="295.2"/>
      </g>
     </g>
     <g id="text_12">
      <!-- 100 -->
      <g transform="translate(83.21 298.51125)scale(0.12 -0.12)">
       <use xlink:href="#BitstreamVeraSans-Roman-31"/>
       <use x="63.623046875" xlink:href="#BitstreamVeraSans-Roman-30"/>
       <use x="127.24609375" xlink:href="#BitstreamVeraSans-Roman-30"/>
      </g>
     </g>
    </g>
    <g id="ytick_7">
     <g id="line2d_26">
      <g>
       <use style="stroke:#000000;stroke-width:0.5;" x="108.0" xlink:href="#md7965d1ba0" y="237.6"/>
      </g>
     </g>
     <g id="line2d_27">
      <g>
       <use style="stroke:#000000;stroke-width:0.5;" x="777.6" xlink:href="#md9a1c1a7cd" y="237.6"/>
      </g>
     </g>
     <g id="text_13">
      <!-- 120 -->
      <g transform="translate(83.21 240.91125)scale(0.12 -0.12)">
       <use xlink:href="#BitstreamVeraSans-Roman-31"/>
       <use x="63.623046875" xlink:href="#BitstreamVeraSans-Roman-32"/>
       <use x="127.24609375" xlink:href="#BitstreamVeraSans-Roman-30"/>
      </g>
     </g>
    </g>
    <g id="ytick_8">
     <g id="line2d_28">
      <g>
       <use style="stroke:#000000;stroke-width:0.5;" x="108.0" xlink:href="#md7965d1ba0" y="180.0"/>
      </g>
     </g>
     <g id="line2d_29">
      <g>
       <use style="stroke:#000000;stroke-width:0.5;" x="777.6" xlink:href="#md9a1c1a7cd" y="180.0"/>
      </g>
     </g>
     <g id="text_14">
      <!-- 140 -->
      <g transform="translate(83.21 183.31125)scale(0.12 -0.12)">
       <use xlink:href="#BitstreamVeraSans-Roman-31"/>
       <use x="63.623046875" xlink:href="#BitstreamVeraSans-Roman-34"/>
       <use x="127.24609375" xlink:href="#BitstreamVeraSans-Roman-30"/>
      </g>
     </g>
    </g>
    <g id="ytick_9">
     <g id="line2d_30">
      <g>
       <use style="stroke:#000000;stroke-width:0.5;" x="108.0" xlink:href="#md7965d1ba0" y="122.4"/>
      </g>
     </g>
     <g id="line2d_31">
      <g>
       <use style="stroke:#000000;stroke-width:0.5;" x="777.6" xlink:href="#md9a1c1a7cd" y="122.4"/>
      </g>
     </g>
     <g id="text_15">
      <!-- 160 -->
      <g transform="translate(83.21 125.71125)scale(0.12 -0.12)">
       <use xlink:href="#BitstreamVeraSans-Roman-31"/>
       <use x="63.623046875" xlink:href="#BitstreamVeraSans-Roman-36"/>
       <use x="127.24609375" xlink:href="#BitstreamVeraSans-Roman-30"/>
      </g>
     </g>
    </g>
    <g id="ytick_10">
     <g id="line2d_32">
      <g>
       <use style="stroke:#000000;stroke-width:0.5;" x="108.0" xlink:href="#md7965d1ba0" y="64.8"/>
      </g>
     </g>
     <g id="line2d_33">
      <g>
       <use style="stroke:#000000;stroke-width:0.5;" x="777.6" xlink:href="#md9a1c1a7cd" y="64.8"/>
      </g>
     </g>
     <g id="text_16">
      <!-- 180 -->
      <g transform="translate(83.21 68.11125)scale(0.12 -0.12)">
       <use xlink:href="#BitstreamVeraSans-Roman-31"/>
       <use x="63.623046875" xlink:href="#BitstreamVeraSans-Roman-38"/>
       <use x="127.24609375" xlink:href="#BitstreamVeraSans-Roman-30"/>
      </g>
     </g>
    </g>
    <g id="text_17">
     <!-- particle numbers -->
     <defs>
      <path d="
M54.8906 33.0156
L54.8906 0
L45.9062 0
L45.9062 32.7188
Q45.9062 40.4844 42.875 44.3281
Q39.8438 48.1875 33.7969 48.1875
Q26.5156 48.1875 22.3125 43.5469
Q18.1094 38.9219 18.1094 30.9062
L18.1094 0
L9.07812 0
L9.07812 54.6875
L18.1094 54.6875
L18.1094 46.1875
Q21.3438 51.125 25.7031 53.5625
Q30.0781 56 35.7969 56
Q45.2188 56 50.0469 50.1719
Q54.8906 44.3438 54.8906 33.0156" id="BitstreamVeraSans-Roman-6e"/>
      <path d="
M18.1094 8.20312
L18.1094 -20.7969
L9.07812 -20.7969
L9.07812 54.6875
L18.1094 54.6875
L18.1094 46.3906
Q20.9531 51.2656 25.2656 53.625
Q29.5938 56 35.5938 56
Q45.5625 56 51.7812 48.0938
Q58.0156 40.1875 58.0156 27.2969
Q58.0156 14.4062 51.7812 6.48438
Q45.5625 -1.42188 35.5938 -1.42188
Q29.5938 -1.42188 25.2656 0.953125
Q20.9531 3.32812 18.1094 8.20312
M48.6875 27.2969
Q48.6875 37.2031 44.6094 42.8438
Q40.5312 48.4844 33.4062 48.4844
Q26.2656 48.4844 22.1875 42.8438
Q18.1094 37.2031 18.1094 27.2969
Q18.1094 17.3906 22.1875 11.75
Q26.2656 6.10938 33.4062 6.10938
Q40.5312 6.10938 44.6094 11.75
Q48.6875 17.3906 48.6875 27.2969" id="BitstreamVeraSans-Roman-70"/>
      <path d="
M48.7812 52.5938
L48.7812 44.1875
Q44.9688 46.2969 41.1406 47.3438
Q37.3125 48.3906 33.4062 48.3906
Q24.6562 48.3906 19.8125 42.8438
Q14.9844 37.3125 14.9844 27.2969
Q14.9844 17.2812 19.8125 11.7344
Q24.6562 6.20312 33.4062 6.20312
Q37.3125 6.20312 41.1406 7.25
Q44.9688 8.29688 48.7812 10.4062
L48.7812 2.09375
Q45.0156 0.34375 40.9844 -0.53125
Q36.9688 -1.42188 32.4219 -1.42188
Q20.0625 -1.42188 12.7812 6.34375
Q5.51562 14.1094 5.51562 27.2969
Q5.51562 40.6719 12.8594 48.3281
Q20.2188 56 33.0156 56
Q37.1562 56 41.1094 55.1406
Q45.0625 54.2969 48.7812 52.5938" id="BitstreamVeraSans-Roman-63"/>
      <path d="
M34.2812 27.4844
Q23.3906 27.4844 19.1875 25
Q14.9844 22.5156 14.9844 16.5
Q14.9844 11.7188 18.1406 8.90625
Q21.2969 6.10938 26.7031 6.10938
Q34.1875 6.10938 38.7031 11.4062
Q43.2188 16.7031 43.2188 25.4844
L43.2188 27.4844
z

M52.2031 31.2031
L52.2031 0
L43.2188 0
L43.2188 8.29688
Q40.1406 3.32812 35.5469 0.953125
Q30.9531 -1.42188 24.3125 -1.42188
Q15.9219 -1.42188 10.9531 3.29688
Q6 8.01562 6 15.9219
Q6 25.1406 12.1719 29.8281
Q18.3594 34.5156 30.6094 34.5156
L43.2188 34.5156
L43.2188 35.4062
Q43.2188 41.6094 39.1406 45
Q35.0625 48.3906 27.6875 48.3906
Q23 48.3906 18.5469 47.2656
Q14.1094 46.1406 10.0156 43.8906
L10.0156 52.2031
Q14.9375 54.1094 19.5781 55.0469
Q24.2188 56 28.6094 56
Q40.4844 56 46.3438 49.8438
Q52.2031 43.7031 52.2031 31.2031" id="BitstreamVeraSans-Roman-61"/>
      <path d="
M56.2031 29.5938
L56.2031 25.2031
L14.8906 25.2031
Q15.4844 15.9219 20.4844 11.0625
Q25.4844 6.20312 34.4219 6.20312
Q39.5938 6.20312 44.4531 7.46875
Q49.3125 8.73438 54.1094 11.2812
L54.1094 2.78125
Q49.2656 0.734375 44.1875 -0.34375
Q39.1094 -1.42188 33.8906 -1.42188
Q20.7969 -1.42188 13.1562 6.1875
Q5.51562 13.8125 5.51562 26.8125
Q5.51562 40.2344 12.7656 48.1094
Q20.0156 56 32.3281 56
Q43.3594 56 49.7812 48.8906
Q56.2031 41.7969 56.2031 29.5938
M47.2188 32.2344
Q47.125 39.5938 43.0938 43.9844
Q39.0625 48.3906 32.4219 48.3906
Q24.9062 48.3906 20.3906 44.1406
Q15.875 39.8906 15.1875 32.1719
z
" id="BitstreamVeraSans-Roman-65"/>
      <path d="
M41.1094 46.2969
Q39.5938 47.1719 37.8125 47.5781
Q36.0312 48 33.8906 48
Q26.2656 48 22.1875 43.0469
Q18.1094 38.0938 18.1094 28.8125
L18.1094 0
L9.07812 0
L9.07812 54.6875
L18.1094 54.6875
L18.1094 46.1875
Q20.9531 51.1719 25.4844 53.5781
Q30.0312 56 36.5312 56
Q37.4531 56 38.5781 55.875
Q39.7031 55.7656 41.0625 55.5156
z
" id="BitstreamVeraSans-Roman-72"/>
      <path d="
M9.42188 54.6875
L18.4062 54.6875
L18.4062 0
L9.42188 0
z

M9.42188 75.9844
L18.4062 75.9844
L18.4062 64.5938
L9.42188 64.5938
z
" id="BitstreamVeraSans-Roman-69"/>
      <path d="
M8.5 21.5781
L8.5 54.6875
L17.4844 54.6875
L17.4844 21.9219
Q17.4844 14.1562 20.5 10.2656
Q23.5312 6.39062 29.5938 6.39062
Q36.8594 6.39062 41.0781 11.0312
Q45.3125 15.6719 45.3125 23.6875
L45.3125 54.6875
L54.2969 54.6875
L54.2969 0
L45.3125 0
L45.3125 8.40625
Q42.0469 3.42188 37.7188 1
Q33.4062 -1.42188 27.6875 -1.42188
Q18.2656 -1.42188 13.375 4.4375
Q8.5 10.2969 8.5 21.5781" id="BitstreamVeraSans-Roman-75"/>
      <path d="
M48.6875 27.2969
Q48.6875 37.2031 44.6094 42.8438
Q40.5312 48.4844 33.4062 48.4844
Q26.2656 48.4844 22.1875 42.8438
Q18.1094 37.2031 18.1094 27.2969
Q18.1094 17.3906 22.1875 11.75
Q26.2656 6.10938 33.4062 6.10938
Q40.5312 6.10938 44.6094 11.75
Q48.6875 17.3906 48.6875 27.2969
M18.1094 46.3906
Q20.9531 51.2656 25.2656 53.625
Q29.5938 56 35.5938 56
Q45.5625 56 51.7812 48.0938
Q58.0156 40.1875 58.0156 27.2969
Q58.0156 14.4062 51.7812 6.48438
Q45.5625 -1.42188 35.5938 -1.42188
Q29.5938 -1.42188 25.2656 0.953125
Q20.9531 3.32812 18.1094 8.20312
L18.1094 0
L9.07812 0
L9.07812 75.9844
L18.1094 75.9844
z
" id="BitstreamVeraSans-Roman-62"/>
      <path d="
M9.42188 75.9844
L18.4062 75.9844
L18.4062 0
L9.42188 0
z
" id="BitstreamVeraSans-Roman-6c"/>
     </defs>
     <g transform="translate(75.714375 374.78625)rotate(-90.0)scale(0.12 -0.12)">
      <use xlink:href="#BitstreamVeraSans-Roman-70"/>
      <use x="63.4765625" xlink:href="#BitstreamVeraSans-Roman-61"/>
      <use x="124.755859375" xlink:href="#BitstreamVeraSans-Roman-72"/>
      <use x="165.869140625" xlink:href="#BitstreamVeraSans-Roman-74"/>
      <use x="205.078125" xlink:href="#BitstreamVeraSans-Roman-69"/>
      <use x="232.861328125" xlink:href="#BitstreamVeraSans-Roman-63"/>
      <use x="287.841796875" xlink:href="#BitstreamVeraSans-Roman-6c"/>
      <use x="315.625" xlink:href="#BitstreamVeraSans-Roman-65"/>
      <use x="377.1484375" xlink:href="#BitstreamVeraSans-Roman-20"/>
      <use x="408.935546875" xlink:href="#BitstreamVeraSans-Roman-6e"/>
      <use x="472.314453125" xlink:href="#BitstreamVeraSans-Roman-75"/>
      <use x="535.693359375" xlink:href="#BitstreamVeraSans-Roman-6d"/>
      <use x="633.10546875" xlink:href="#BitstreamVeraSans-Roman-62"/>
      <use x="696.58203125" xlink:href="#BitstreamVeraSans-Roman-65"/>
      <use x="758.10546875" xlink:href="#BitstreamVeraSans-Roman-72"/>
      <use x="799.21875" xlink:href="#BitstreamVeraSans-Roman-73"/>
     </g>
    </g>
   </g>
   <g id="legend_1">
    <g id="patch_7">
     <path d="
M111.5 101.224
L188.776 101.224
L188.776 68.3
L111.5 68.3
z
" style="fill:#ffffff;stroke:#000000;stroke-linejoin:miter;"/>
    </g>
    <g id="line2d_34">
     <path d="
M116.4 73.9689
L126.2 73.9689" style="fill:none;stroke:#ff0000;stroke-linecap:square;"/>
    </g>
    <g id="line2d_35"/>
    <g id="text_18">
     <!-- PDE2cAMP el.0 -->
     <defs>
      <path d="
M19.6719 64.7969
L19.6719 37.4062
L32.0781 37.4062
Q38.9688 37.4062 42.7188 40.9688
Q46.4844 44.5312 46.4844 51.125
Q46.4844 57.6719 42.7188 61.2344
Q38.9688 64.7969 32.0781 64.7969
z

M9.8125 72.9062
L32.0781 72.9062
Q44.3438 72.9062 50.6094 67.3594
Q56.8906 61.8125 56.8906 51.125
Q56.8906 40.3281 50.6094 34.8125
Q44.3438 29.2969 32.0781 29.2969
L19.6719 29.2969
L19.6719 0
L9.8125 0
z
" id="BitstreamVeraSans-Roman-50"/>
      <path d="
M9.8125 72.9062
L24.5156 72.9062
L43.1094 23.2969
L61.8125 72.9062
L76.5156 72.9062
L76.5156 0
L66.8906 0
L66.8906 64.0156
L48.0938 14.0156
L38.1875 14.0156
L19.3906 64.0156
L19.3906 0
L9.8125 0
z
" id="BitstreamVeraSans-Roman-4d"/>
      <path d="
M34.1875 63.1875
L20.7969 26.9062
L47.6094 26.9062
z

M28.6094 72.9062
L39.7969 72.9062
L67.5781 0
L57.3281 0
L50.6875 18.7031
L17.8281 18.7031
L11.1875 0
L0.78125 0
z
" id="BitstreamVeraSans-Roman-41"/>
      <path d="
M19.6719 64.7969
L19.6719 8.10938
L31.5938 8.10938
Q46.6875 8.10938 53.6875 14.9375
Q60.6875 21.7812 60.6875 36.5312
Q60.6875 51.1719 53.6875 57.9844
Q46.6875 64.7969 31.5938 64.7969
z

M9.8125 72.9062
L30.0781 72.9062
Q51.2656 72.9062 61.1719 64.0938
Q71.0938 55.2812 71.0938 36.5312
Q71.0938 17.6719 61.125 8.82812
Q51.1719 0 30.0781 0
L9.8125 0
z
" id="BitstreamVeraSans-Roman-44"/>
      <path d="
M9.8125 72.9062
L55.9062 72.9062
L55.9062 64.5938
L19.6719 64.5938
L19.6719 43.0156
L54.3906 43.0156
L54.3906 34.7188
L19.6719 34.7188
L19.6719 8.29688
L56.7812 8.29688
L56.7812 0
L9.8125 0
z
" id="BitstreamVeraSans-Roman-45"/>
      <path d="
M10.6875 12.4062
L21 12.4062
L21 0
L10.6875 0
z
" id="BitstreamVeraSans-Roman-2e"/>
     </defs>
     <g transform="translate(133.9 76.41890625)scale(0.07 -0.07)">
      <use xlink:href="#BitstreamVeraSans-Roman-50"/>
      <use x="60.302734375" xlink:href="#BitstreamVeraSans-Roman-44"/>
      <use x="137.3046875" xlink:href="#BitstreamVeraSans-Roman-45"/>
      <use x="200.48828125" xlink:href="#BitstreamVeraSans-Roman-32"/>
      <use x="264.111328125" xlink:href="#BitstreamVeraSans-Roman-63"/>
      <use x="319.091796875" xlink:href="#BitstreamVeraSans-Roman-41"/>
      <use x="387.5" xlink:href="#BitstreamVeraSans-Roman-4d"/>
      <use x="473.779296875" xlink:href="#BitstreamVeraSans-Roman-50"/>
      <use x="534.08203125" xlink:href="#BitstreamVeraSans-Roman-20"/>
      <use x="565.869140625" xlink:href="#BitstreamVeraSans-Roman-65"/>
      <use x="627.392578125" xlink:href="#BitstreamVeraSans-Roman-6c"/>
      <use x="655.17578125" xlink:href="#BitstreamVeraSans-Roman-2e"/>
      <use x="686.962890625" xlink:href="#BitstreamVeraSans-Roman-30"/>
     </g>
    </g>
    <g id="line2d_36">
     <path d="
M116.4 84.2436
L126.2 84.2436" style="fill:none;stroke:#008000;stroke-linecap:square;"/>
    </g>
    <g id="line2d_37"/>
    <g id="text_19">
     <!-- PDE2cAMP el.1 -->
     <g transform="translate(133.9 86.69359375)scale(0.07 -0.07)">
      <use xlink:href="#BitstreamVeraSans-Roman-50"/>
      <use x="60.302734375" xlink:href="#BitstreamVeraSans-Roman-44"/>
      <use x="137.3046875" xlink:href="#BitstreamVeraSans-Roman-45"/>
      <use x="200.48828125" xlink:href="#BitstreamVeraSans-Roman-32"/>
      <use x="264.111328125" xlink:href="#BitstreamVeraSans-Roman-63"/>
      <use x="319.091796875" xlink:href="#BitstreamVeraSans-Roman-41"/>
      <use x="387.5" xlink:href="#BitstreamVeraSans-Roman-4d"/>
      <use x="473.779296875" xlink:href="#BitstreamVeraSans-Roman-50"/>
      <use x="534.08203125" xlink:href="#BitstreamVeraSans-Roman-20"/>
      <use x="565.869140625" xlink:href="#BitstreamVeraSans-Roman-65"/>
      <use x="627.392578125" xlink:href="#BitstreamVeraSans-Roman-6c"/>
      <use x="655.17578125" xlink:href="#BitstreamVeraSans-Roman-2e"/>
      <use x="686.962890625" xlink:href="#BitstreamVeraSans-Roman-31"/>
     </g>
    </g>
    <g id="line2d_38">
     <path d="
M116.4 94.5183
L126.2 94.5183" style="fill:none;stroke:#0000ff;stroke-linecap:square;"/>
    </g>
    <g id="line2d_39"/>
    <g id="text_20">
     <!-- PDE2cAMP el.2 -->
     <g transform="translate(133.9 96.96828125)scale(0.07 -0.07)">
      <use xlink:href="#BitstreamVeraSans-Roman-50"/>
      <use x="60.302734375" xlink:href="#BitstreamVeraSans-Roman-44"/>
      <use x="137.3046875" xlink:href="#BitstreamVeraSans-Roman-45"/>
      <use x="200.48828125" xlink:href="#BitstreamVeraSans-Roman-32"/>
      <use x="264.111328125" xlink:href="#BitstreamVeraSans-Roman-63"/>
      <use x="319.091796875" xlink:href="#BitstreamVeraSans-Roman-41"/>
      <use x="387.5" xlink:href="#BitstreamVeraSans-Roman-4d"/>
      <use x="473.779296875" xlink:href="#BitstreamVeraSans-Roman-50"/>
      <use x="534.08203125" xlink:href="#BitstreamVeraSans-Roman-20"/>
      <use x="565.869140625" xlink:href="#BitstreamVeraSans-Roman-65"/>
      <use x="627.392578125" xlink:href="#BitstreamVeraSans-Roman-6c"/>
      <use x="655.17578125" xlink:href="#BitstreamVeraSans-Roman-2e"/>
      <use x="686.962890625" xlink:href="#BitstreamVeraSans-Roman-32"/>
     </g>
    </g>
   </g>
  </g>
 </g>
 <defs>
  <clipPath id="p7ceb695115">
   <rect height="518.4" width="669.6" x="108.0" y="64.8"/>
  </clipPath>
 </defs>
</svg>
