<?xml version="1.0" encoding="utf-8" standalone="no"?>
<!DOCTYPE svg PUBLIC "-//W3C//DTD SVG 1.1//EN"
  "http://www.w3.org/Graphics/SVG/1.1/DTD/svg11.dtd">
<!-- Created with matplotlib (http://matplotlib.org/) -->
<svg height="648pt" version="1.1" viewBox="0 0 864 648" width="864pt" xmlns="http://www.w3.org/2000/svg" xmlns:xlink="http://www.w3.org/1999/xlink">
 <defs>
  <style type="text/css">
*{stroke-linecap:butt;stroke-linejoin:round;}
  </style>
 </defs>
 <g id="figure_1">
  <g id="patch_1">
   <path d="
M0 648
L864 648
L864 0
L0 0
z
" style="fill:#ffffff;"/>
  </g>
  <g id="axes_1">
   <g id="patch_2">
    <path d="
M108 583.2
L777.6 583.2
L777.6 64.8
L108 64.8
z
" style="fill:#ffffff;"/>
   </g>
   <g id="line2d_1">
    <path clip-path="url(#p7ceb695115)" d="
M108 583.2
L158.22 583.2
L158.89 581.719
L159.559 583.2
L160.229 583.2
L160.898 581.719
L161.568 583.2
L163.577 583.2
L164.246 581.719
L164.916 581.719
L165.586 583.2
L166.255 581.719
L166.925 581.719
L167.594 583.2
L170.942 583.2
L171.612 581.719
L172.282 583.2
L174.96 583.2
L175.63 581.719
L176.299 583.2
L187.682 583.2
L188.352 580.238
L189.022 581.719
L191.03 581.719
L191.7 583.2
L193.039 583.2
L193.709 581.719
L195.048 581.719
L195.718 580.238
L197.057 583.2
L197.726 583.2
L198.396 580.238
L199.066 580.238
L200.405 583.2
L201.074 581.719
L202.414 581.719
L203.083 583.2
L203.753 581.719
L204.422 581.719
L205.092 583.2
L205.762 581.719
L206.431 583.2
L207.101 583.2
L207.77 581.719
L208.44 583.2
L209.11 581.719
L209.779 578.757
L210.449 581.719
L211.118 583.2
L211.788 581.719
L212.458 583.2
L213.127 581.719
L213.797 583.2
L214.466 583.2
L215.136 581.719
L217.145 581.719
L217.814 577.275
L218.484 581.719
L219.154 581.719
L219.823 580.238
L221.162 583.2
L221.832 577.275
L222.502 580.238
L223.171 580.238
L223.841 578.757
L224.51 581.719
L225.18 580.238
L225.85 581.719
L227.189 578.757
L227.858 580.238
L228.528 580.238
L229.198 583.2
L229.867 583.2
L230.537 581.719
L231.206 581.719
L231.876 578.757
L232.546 583.2
L233.215 581.719
L233.885 578.757
L234.554 580.238
L237.902 580.238
L238.572 581.719
L241.25 581.719
L241.92 583.2
L243.259 580.238
L244.598 580.238
L245.268 581.719
L245.938 581.719
L246.607 583.2
L247.277 578.757
L247.946 578.757
L248.616 581.719
L249.286 581.719
L249.955 578.757
L250.625 580.238
L251.294 580.238
L251.964 583.2
L253.973 583.2
L254.642 581.719
L255.312 583.2
L255.982 583.2
L256.651 580.238
L257.321 578.757
L257.99 578.757
L258.66 581.719
L260.669 581.719
L261.338 578.757
L262.008 577.275
L262.678 578.757
L263.347 581.719
L264.017 581.719
L264.686 583.2
L265.356 581.719
L266.695 581.719
L267.365 580.238
L268.034 583.2
L268.704 583.2
L269.374 581.719
L270.043 583.2
L270.713 581.719
L271.382 583.2
L272.052 581.719
L272.722 583.2
L274.73 583.2
L275.4 580.238
L276.07 583.2
L276.739 583.2
L277.409 581.719
L278.078 583.2
L280.087 578.757
L280.757 583.2
L281.426 580.238
L282.096 580.238
L282.766 583.2
L284.105 583.2
L285.444 580.238
L286.783 583.2
L287.453 581.719
L288.122 581.719
L288.792 580.238
L289.462 580.238
L290.131 581.719
L290.801 581.719
L291.47 580.238
L292.14 583.2
L292.81 583.2
L293.479 581.719
L294.149 583.2
L295.488 583.2
L296.158 581.719
L297.497 581.719
L298.166 578.757
L298.836 581.719
L299.506 580.238
L300.175 583.2
L301.514 583.2
L302.184 581.719
L302.854 581.719
L303.523 583.2
L306.202 583.2
L307.541 580.238
L308.21 581.719
L308.88 581.719
L309.55 580.238
L310.219 581.719
L310.889 581.719
L311.558 580.238
L313.567 580.238
L314.237 578.757
L314.906 581.719
L315.576 583.2
L316.246 583.2
L317.585 580.238
L318.254 581.719
L318.924 580.238
L319.594 581.719
L320.933 581.719
L321.602 580.238
L322.942 583.2
L323.611 583.2
L324.281 578.757
L324.95 578.757
L325.62 580.238
L326.29 583.2
L326.959 580.238
L327.629 583.2
L328.298 580.238
L328.968 581.719
L330.307 581.719
L330.977 583.2
L331.646 581.719
L333.655 581.719
L334.325 583.2
L335.664 583.2
L336.334 581.719
L337.673 581.719
L338.342 583.2
L339.682 583.2
L340.351 581.719
L341.021 578.757
L341.69 581.719
L342.36 583.2
L348.386 583.2
L349.056 581.719
L349.726 583.2
L350.395 581.719
L351.734 581.719
L352.404 583.2
L353.074 583.2
L353.743 581.719
L354.413 583.2
L355.082 581.719
L355.752 581.719
L356.422 583.2
L357.091 583.2
L357.761 581.719
L358.43 583.2
L359.1 581.719
L359.77 583.2
L362.448 583.2
L363.118 581.719
L363.787 583.2
L365.126 583.2
L365.796 580.238
L366.466 581.719
L367.805 581.719
L368.474 580.238
L369.144 583.2
L369.814 583.2
L370.483 580.238
L371.153 583.2
L372.492 580.238
L373.162 583.2
L374.501 583.2
L375.17 578.757
L376.51 581.719
L379.858 581.719
L380.527 580.238
L381.197 583.2
L381.866 581.719
L382.536 581.719
L383.206 583.2
L383.875 583.2
L384.545 581.719
L385.214 583.2
L386.554 583.2
L387.223 581.719
L387.893 581.719
L388.562 583.2
L389.232 581.719
L390.571 581.719
L391.241 583.2
L392.58 583.2
L393.25 581.719
L394.589 581.719
L395.258 583.2
L396.598 583.2
L397.267 580.238
L397.937 581.719
L399.276 581.719
L399.946 583.2
L400.615 583.2
L401.285 581.719
L401.954 583.2
L404.633 583.2
L405.302 580.238
L405.972 583.2
L410.659 583.2
L411.329 581.719
L411.998 583.2
L412.668 580.238
L413.338 580.238
L414.007 578.757
L415.346 581.719
L416.686 581.719
L417.355 583.2
L418.025 581.719
L418.694 583.2
L420.034 583.2
L420.703 581.719
L421.373 581.719
L422.042 583.2
L423.382 583.2
L424.051 580.238
L424.721 583.2
L426.06 583.2
L426.73 581.719
L427.399 583.2
L428.069 581.719
L428.738 581.719
L429.408 583.2
L430.078 580.238
L431.417 583.2
L432.086 583.2
L432.756 581.719
L433.426 583.2
L434.765 583.2
L435.434 581.719
L436.104 583.2
L436.774 581.719
L437.443 583.2
L438.113 581.719
L438.782 583.2
L440.122 583.2
L440.791 581.719
L441.461 583.2
L442.8 583.2
L443.47 581.719
L444.139 583.2
L444.809 583.2
L445.478 581.719
L446.148 583.2
L446.818 580.238
L447.487 575.794
L448.157 577.275
L448.826 575.794
L449.496 563.945
L450.166 563.945
L450.835 558.021
L451.505 541.728
L452.174 531.36
L454.183 513.586
L454.853 491.369
L455.522 488.407
L456.192 512.105
L456.862 488.407
L457.531 485.445
L458.201 483.963
L458.87 467.671
L459.54 470.633
L460.21 469.152
L460.879 489.888
L461.549 478.039
L462.218 479.52
L463.558 464.709
L464.227 469.152
L464.897 446.935
L465.566 479.52
L466.236 466.19
L466.906 438.048
L467.575 485.445
L468.245 458.784
L468.914 470.633
L469.584 451.378
L470.254 455.822
L470.923 478.039
L471.593 478.039
L472.262 430.642
L472.932 463.227
L473.602 470.633
L474.271 470.633
L474.941 476.558
L475.61 469.152
L476.28 472.114
L476.95 485.445
L477.619 476.558
L478.289 491.369
L478.958 475.077
L479.628 483.963
L480.298 479.52
L480.967 470.633
L481.637 455.822
L482.306 470.633
L483.646 452.859
L484.315 476.558
L484.985 473.595
L485.654 461.746
L486.324 472.114
L486.994 469.152
L487.663 473.595
L488.333 486.926
L489.002 479.52
L489.672 503.218
L490.342 495.813
L491.011 489.888
L491.681 461.746
L492.35 486.926
L493.02 501.737
L493.69 463.227
L494.359 476.558
L495.029 476.558
L495.698 495.813
L496.368 483.963
L497.038 492.85
L497.707 491.369
L498.377 479.52
L499.046 481.001
L499.716 494.331
L500.386 482.482
L501.055 482.482
L501.725 483.963
L502.394 472.114
L503.064 483.963
L503.734 501.737
L504.403 486.926
L505.073 491.369
L505.742 482.482
L506.412 475.077
L507.082 506.181
L507.751 509.143
L508.421 478.039
L509.09 483.963
L509.76 473.595
L510.43 489.888
L511.099 475.077
L511.769 481.001
L512.438 470.633
L513.108 483.963
L513.778 507.662
L514.447 485.445
L515.117 498.775
L515.786 515.067
L516.456 500.256
L517.126 506.181
L517.795 507.662
L518.465 488.407
L519.134 463.227
L521.143 495.813
L521.813 463.227
L522.482 464.709
L523.152 512.105
L523.822 494.331
L524.491 489.888
L525.161 483.963
L525.83 500.256
L526.5 479.52
L527.17 469.152
L527.839 483.963
L528.509 489.888
L529.178 492.85
L529.848 532.841
L530.518 492.85
L531.187 482.482
L531.857 506.181
L532.526 503.218
L533.196 482.482
L533.866 475.077
L535.205 512.105
L535.874 488.407
L536.544 494.331
L537.214 485.445
L537.883 494.331
L538.553 483.963
L539.222 494.331
L539.892 523.954
L540.562 507.662
L541.231 476.558
L541.901 497.294
L542.57 526.917
L543.24 516.549
L543.91 497.294
L544.579 504.699
L545.249 509.143
L545.918 507.662
L546.588 507.662
L547.258 489.888
L547.927 482.482
L548.597 497.294
L549.266 509.143
L549.936 513.586
L550.606 510.624
L551.275 492.85
L551.945 507.662
L552.614 509.143
L553.284 495.813
L553.954 513.586
L554.623 503.218
L555.293 504.699
L555.962 510.624
L556.632 506.181
L557.302 518.03
L557.971 498.775
L558.641 492.85
L559.31 495.813
L559.98 478.039
L560.65 520.992
L561.319 516.549
L561.989 506.181
L562.658 504.699
L563.328 488.407
L563.998 501.737
L564.667 486.926
L565.337 509.143
L566.006 525.435
L566.676 519.511
L567.346 512.105
L568.015 494.331
L568.685 526.917
L569.354 509.143
L570.024 503.218
L570.694 501.737
L571.363 523.954
L572.033 532.841
L572.702 523.954
L573.372 507.662
L574.042 488.407
L574.711 520.992
L576.05 506.181
L576.72 509.143
L577.39 501.737
L578.059 518.03
L578.729 498.775
L579.398 495.813
L580.068 500.256
L580.738 481.001
L581.407 498.775
L582.746 526.917
L583.416 515.067
L584.086 518.03
L584.755 513.586
L585.425 523.954
L586.094 525.435
L586.764 537.285
L587.434 526.917
L588.103 501.737
L588.773 525.435
L589.442 518.03
L590.112 492.85
L590.782 515.067
L591.451 522.473
L592.121 526.917
L592.79 534.322
L593.46 523.954
L594.799 526.917
L595.469 513.586
L596.138 529.879
L596.808 510.624
L597.478 510.624
L598.147 526.917
L598.817 512.105
L599.486 518.03
L600.156 504.699
L600.826 506.181
L601.495 516.549
L602.165 519.511
L602.834 498.775
L603.504 503.218
L604.174 515.067
L604.843 513.586
L605.513 529.879
L606.182 516.549
L606.852 513.586
L607.522 512.105
L608.191 532.841
L608.861 519.511
L609.53 512.105
L610.2 516.549
L610.87 518.03
L611.539 494.331
L612.209 500.256
L612.878 518.03
L613.548 512.105
L614.218 512.105
L614.887 531.36
L615.557 525.435
L616.226 520.992
L616.896 520.992
L618.235 512.105
L618.905 519.511
L619.574 525.435
L620.244 504.699
L620.914 520.992
L621.583 510.624
L622.253 516.549
L622.922 526.917
L623.592 515.067
L624.262 531.36
L624.931 541.728
L625.601 532.841
L626.27 528.398
L626.94 531.36
L627.61 518.03
L628.279 516.549
L628.949 522.473
L629.618 541.728
L630.288 519.511
L631.627 538.766
L632.297 513.586
L632.966 518.03
L633.636 504.699
L634.306 522.473
L634.975 516.549
L635.645 503.218
L636.314 528.398
L636.984 532.841
L637.654 540.247
L638.993 528.398
L639.662 515.067
L640.332 526.917
L641.002 531.36
L641.671 516.549
L642.341 534.322
L643.01 507.662
L643.68 522.473
L644.35 531.36
L645.019 531.36
L645.689 515.067
L646.358 534.322
L647.028 534.322
L647.698 522.473
L648.367 526.917
L649.037 509.143
L649.706 523.954
L650.376 532.841
L651.046 537.285
L651.715 532.841
L652.385 546.171
L653.054 541.728
L653.724 528.398
L654.394 535.803
L655.063 534.322
L655.733 559.502
L656.402 535.803
L657.072 534.322
L657.742 544.69
L658.411 537.285
L659.081 540.247
L659.75 532.841
L660.42 540.247
L661.09 535.803
L661.759 538.766
L662.429 546.171
L663.098 532.841
L663.768 540.247
L664.438 537.285
L665.107 537.285
L665.777 550.615
L666.446 550.615
L667.116 537.285
L667.786 550.615
L668.455 541.728
L669.125 544.69
L669.794 553.577
L670.464 531.36
L671.134 515.067
L671.803 541.728
L672.473 543.209
L673.142 534.322
L673.812 556.539
L674.482 549.134
L675.151 555.058
L675.821 558.021
L676.49 538.766
L677.16 534.322
L677.83 535.803
L678.499 543.209
L679.169 537.285
L679.838 546.171
L680.508 531.36
L681.178 535.803
L681.847 546.171
L682.517 549.134
L683.186 547.653
L683.856 531.36
L684.526 526.917
L685.195 529.879
L685.865 526.917
L686.534 529.879
L687.204 525.435
L687.874 544.69
L688.543 543.209
L689.213 568.389
L689.882 541.728
L690.552 538.766
L691.222 543.209
L691.891 534.322
L693.23 559.502
L693.9 558.021
L694.57 547.653
L695.239 541.728
L695.909 546.171
L696.578 541.728
L697.248 552.096
L697.918 543.209
L698.587 538.766
L699.257 543.209
L699.926 534.322
L700.596 552.096
L701.266 544.69
L701.935 541.728
L702.605 546.171
L703.274 546.171
L703.944 547.653
L704.614 565.426
L705.283 543.209
L705.953 543.209
L706.622 552.096
L707.292 540.247
L707.962 556.539
L708.631 547.653
L709.301 552.096
L709.97 555.058
L710.64 552.096
L711.31 550.615
L711.979 541.728
L712.649 540.247
L713.318 541.728
L713.988 544.69
L714.658 529.879
L715.327 549.134
L716.666 552.096
L717.336 549.134
L718.006 558.021
L718.675 552.096
L719.345 547.653
L720.014 560.983
L720.684 552.096
L721.354 552.096
L722.023 546.171
L722.693 558.021
L723.362 555.058
L724.032 553.577
L724.702 541.728
L725.371 541.728
L726.041 549.134
L726.71 549.134
L727.38 547.653
L728.05 549.134
L728.719 560.983
L729.389 553.577
L730.058 555.058
L730.728 547.653
L731.398 550.615
L732.067 565.426
L732.737 562.464
L733.406 544.69
L734.076 562.464
L734.746 553.577
L735.415 560.983
L736.085 571.351
L736.754 563.945
L737.424 559.502
L738.094 565.426
L738.763 562.464
L739.433 569.87
L740.102 540.247
L740.772 558.021
L741.442 569.87
L742.111 553.577
L742.781 555.058
L743.45 565.426
L744.12 556.539
L744.79 553.577
L745.459 553.577
L746.129 560.983
L746.798 571.351
L747.468 565.426
L748.138 574.313
L748.807 565.426
L749.477 569.87
L750.146 569.87
L750.816 552.096
L751.486 555.058
L752.155 563.945
L752.825 558.021
L753.494 571.351
L754.164 565.426
L754.834 565.426
L755.503 550.615
L756.173 559.502
L756.842 563.945
L757.512 565.426
L758.182 568.389
L758.851 565.426
L759.521 568.389
L760.19 575.794
L760.86 560.983
L761.53 563.945
L762.199 574.313
L762.869 566.907
L763.538 563.945
L764.208 566.907
L764.878 568.389
L765.547 568.389
L766.217 571.351
L766.886 569.87
L767.556 575.794
L768.226 559.502
L768.895 572.832
L769.565 571.351
L770.234 565.426
L770.904 558.021
L771.574 566.907
L772.243 560.983
L772.913 566.907
L773.582 566.907
L774.252 577.275
L774.922 574.313
L775.591 566.907
L776.261 565.426
L776.93 575.794
L777.6 572.832
L777.6 572.832" style="fill:none;stroke:#ff0000;stroke-linecap:square;"/>
   </g>
   <g id="line2d_2">
    <path clip-path="url(#p7ceb695115)" d="
M108 583.2
L152.194 583.2
L152.863 581.719
L153.533 581.719
L154.202 580.238
L156.881 580.238
L157.55 581.719
L158.22 580.238
L158.89 583.2
L159.559 580.238
L160.229 580.238
L160.898 581.719
L161.568 580.238
L162.907 580.238
L164.246 583.2
L164.916 583.2
L165.586 580.238
L166.255 583.2
L166.925 583.2
L167.594 580.238
L169.603 580.238
L170.273 581.719
L171.612 581.719
L172.282 580.238
L174.96 580.238
L175.63 583.2
L176.299 581.719
L177.638 581.719
L178.308 583.2
L188.352 583.2
L189.022 581.719
L191.7 581.719
L192.37 580.238
L193.039 580.238
L193.709 583.2
L194.378 580.238
L195.048 580.238
L195.718 578.757
L196.387 578.757
L197.057 575.794
L197.726 578.757
L198.396 577.275
L199.066 577.275
L199.735 580.238
L200.405 577.275
L201.074 578.757
L201.744 577.275
L202.414 578.757
L203.083 578.757
L203.753 580.238
L204.422 575.794
L205.092 578.757
L205.762 578.757
L206.431 575.794
L207.77 575.794
L208.44 574.313
L209.11 575.794
L209.779 581.719
L210.449 578.757
L211.118 577.275
L211.788 580.238
L212.458 577.275
L213.127 577.275
L213.797 575.794
L214.466 577.275
L216.475 577.275
L217.145 574.313
L217.814 575.794
L218.484 571.351
L219.154 574.313
L219.823 572.832
L220.493 574.313
L221.162 568.389
L221.832 577.275
L222.502 572.832
L223.171 574.313
L223.841 572.832
L224.51 569.87
L225.18 575.794
L225.85 574.313
L226.519 575.794
L227.189 575.794
L227.858 571.351
L228.528 574.313
L229.198 571.351
L229.867 572.832
L230.537 571.351
L231.876 574.313
L232.546 571.351
L233.215 574.313
L233.885 575.794
L234.554 574.313
L235.894 577.275
L236.563 577.275
L237.233 578.757
L237.902 578.757
L238.572 577.275
L239.242 577.275
L239.911 575.794
L240.581 578.757
L241.25 575.794
L242.59 575.794
L243.929 578.757
L244.598 578.757
L245.268 577.275
L245.938 578.757
L246.607 577.275
L247.277 578.757
L248.616 575.794
L249.286 578.757
L251.294 574.313
L251.964 571.351
L252.634 575.794
L253.303 575.794
L253.973 572.832
L254.642 575.794
L255.312 575.794
L255.982 574.313
L256.651 578.757
L257.99 578.757
L258.66 574.313
L259.999 574.313
L260.669 575.794
L261.338 575.794
L262.678 578.757
L263.347 574.313
L264.017 572.832
L264.686 577.275
L265.356 577.275
L266.026 575.794
L266.695 575.794
L267.365 578.757
L268.034 574.313
L268.704 572.832
L269.374 577.275
L270.043 574.313
L270.713 578.757
L271.382 575.794
L272.052 578.757
L272.722 578.757
L274.73 574.313
L275.4 578.757
L276.07 575.794
L276.739 574.313
L277.409 575.794
L278.078 574.313
L278.748 575.794
L279.418 578.757
L280.087 578.757
L280.757 574.313
L281.426 578.757
L282.766 578.757
L283.435 580.238
L284.105 577.275
L284.774 577.275
L285.444 578.757
L286.114 578.757
L286.783 577.275
L288.122 577.275
L288.792 580.238
L289.462 578.757
L290.131 578.757
L290.801 580.238
L291.47 578.757
L292.14 574.313
L293.479 577.275
L294.149 577.275
L294.818 575.794
L295.488 575.794
L296.158 580.238
L296.827 577.275
L298.166 580.238
L298.836 577.275
L299.506 578.757
L300.175 575.794
L300.845 578.757
L301.514 578.757
L302.184 577.275
L302.854 578.757
L303.523 577.275
L304.193 577.275
L304.862 575.794
L306.202 575.794
L306.871 577.275
L307.541 580.238
L308.21 577.275
L308.88 578.757
L310.219 578.757
L310.889 580.238
L312.228 580.238
L312.898 577.275
L313.567 577.275
L314.237 578.757
L314.906 575.794
L315.576 574.313
L317.585 578.757
L318.254 577.275
L318.924 578.757
L319.594 575.794
L320.933 575.794
L321.602 577.275
L322.272 577.275
L322.942 574.313
L323.611 572.832
L324.281 578.757
L325.62 575.794
L326.29 572.832
L326.959 575.794
L327.629 575.794
L328.298 580.238
L328.968 575.794
L330.977 575.794
L331.646 578.757
L332.316 577.275
L332.986 577.275
L334.325 574.313
L335.664 577.275
L336.334 575.794
L337.003 578.757
L337.673 578.757
L338.342 575.794
L339.012 575.794
L339.682 574.313
L340.351 575.794
L341.021 581.719
L341.69 578.757
L343.03 581.719
L345.038 581.719
L345.708 578.757
L346.378 580.238
L347.047 578.757
L347.717 581.719
L348.386 580.238
L349.056 581.719
L349.726 580.238
L350.395 581.719
L351.065 581.719
L352.404 578.757
L353.074 578.757
L353.743 580.238
L354.413 578.757
L355.752 581.719
L356.422 578.757
L357.761 578.757
L358.43 577.275
L359.1 578.757
L359.77 578.757
L360.439 577.275
L361.109 578.757
L362.448 578.757
L363.118 581.719
L363.787 580.238
L364.457 580.238
L365.126 578.757
L365.796 581.719
L366.466 580.238
L367.805 580.238
L368.474 583.2
L369.144 578.757
L369.814 578.757
L370.483 581.719
L371.153 581.719
L371.822 580.238
L372.492 580.238
L373.831 577.275
L374.501 577.275
L375.17 581.719
L376.51 578.757
L377.849 581.719
L378.518 577.275
L379.858 574.313
L380.527 578.757
L381.866 575.794
L382.536 577.275
L383.875 577.275
L384.545 578.757
L385.214 578.757
L385.884 577.275
L386.554 577.275
L387.223 578.757
L387.893 578.757
L388.562 577.275
L389.902 580.238
L390.571 578.757
L391.241 580.238
L391.91 578.757
L392.58 578.757
L393.25 580.238
L393.919 580.238
L394.589 583.2
L395.258 578.757
L396.598 578.757
L397.267 581.719
L397.937 581.719
L398.606 580.238
L399.276 581.719
L399.946 580.238
L401.285 580.238
L401.954 578.757
L402.624 581.719
L403.294 580.238
L404.633 580.238
L405.302 581.719
L405.972 578.757
L406.642 578.757
L407.311 580.238
L407.981 578.757
L408.65 580.238
L409.32 580.238
L409.99 578.757
L410.659 578.757
L411.329 580.238
L411.998 578.757
L412.668 580.238
L413.338 580.238
L414.007 581.719
L414.677 580.238
L415.346 580.238
L416.016 578.757
L416.686 578.757
L417.355 577.275
L418.025 578.757
L418.694 578.757
L419.364 577.275
L420.034 577.275
L420.703 580.238
L422.042 577.275
L422.712 578.757
L423.382 578.757
L424.051 581.719
L425.39 578.757
L426.73 578.757
L427.399 577.275
L428.069 580.238
L429.408 577.275
L430.078 581.719
L430.747 578.757
L431.417 577.275
L432.086 577.275
L432.756 578.757
L433.426 577.275
L434.095 578.757
L434.765 577.275
L435.434 580.238
L436.104 580.238
L436.774 581.719
L437.443 578.757
L438.113 581.719
L438.782 578.757
L440.122 581.719
L440.791 581.719
L442.13 578.757
L443.47 581.719
L444.139 578.757
L444.809 578.757
L445.478 580.238
L446.148 578.757
L446.818 578.757
L447.487 575.794
L448.157 565.426
L448.826 552.096
L449.496 550.615
L450.166 519.511
L450.835 515.067
L451.505 520.992
L452.174 481.001
L452.844 455.822
L453.514 415.831
L454.183 396.576
L454.853 366.953
L455.522 324
L456.192 291.415
L456.862 282.528
L458.87 181.81
L459.54 135.895
L460.21 144.782
L460.879 127.008
L461.549 113.678
L462.218 118.121
L462.888 129.97
L463.558 135.895
L464.227 119.602
L464.897 144.782
L465.566 118.121
L466.236 122.565
L466.906 147.744
L467.575 112.197
L468.245 128.489
L468.914 92.9417
L469.584 118.121
L470.254 118.121
L470.923 141.819
L471.593 113.678
L472.262 147.744
L472.932 165.518
L473.602 132.933
L474.271 119.602
L474.941 121.083
L475.61 147.744
L476.28 138.857
L477.619 166.999
L478.289 171.442
L478.958 171.442
L479.628 141.819
L480.298 147.744
L480.967 143.301
L481.637 135.895
L482.306 135.895
L482.976 141.819
L483.646 181.81
L484.315 155.15
L484.985 159.593
L485.654 162.555
L486.324 175.886
L486.994 164.037
L487.663 129.97
L488.333 159.593
L489.002 155.15
L489.672 138.857
L490.342 171.442
L491.011 137.376
L491.681 150.706
L492.35 149.225
L493.02 161.074
L493.69 180.329
L494.359 168.48
L495.029 172.923
L495.698 195.141
L496.368 211.433
L497.038 208.471
L497.707 223.282
L498.377 212.914
L499.046 223.282
L499.716 204.027
L500.386 193.659
L501.055 204.027
L501.725 230.688
L502.394 212.914
L503.064 206.99
L503.734 215.877
L504.403 206.99
L505.073 183.291
L505.742 166.999
L506.412 212.914
L507.082 183.291
L507.751 180.329
L508.421 206.99
L509.09 208.471
L509.76 208.471
L510.43 192.178
L511.099 199.584
L511.769 230.688
L512.438 249.943
L513.108 223.282
L513.778 232.169
L514.447 221.801
L515.117 215.877
L515.786 245.499
L516.456 227.726
L517.126 223.282
L517.795 245.499
L518.465 221.801
L519.134 226.245
L519.804 187.735
L520.474 181.81
L521.143 192.178
L521.813 230.688
L522.482 257.349
L523.152 195.141
L523.822 202.546
L524.491 208.471
L525.161 244.018
L526.5 181.81
L527.17 201.065
L527.839 202.546
L528.509 198.103
L529.178 217.358
L529.848 257.349
L530.518 279.566
L531.187 258.83
L531.857 261.792
L532.526 244.018
L533.196 242.537
L533.866 255.867
L534.535 245.499
L535.205 209.952
L535.874 199.584
L536.544 241.056
L537.214 233.65
L537.883 239.575
L538.553 220.32
L539.222 218.839
L539.892 233.65
L540.562 214.395
L541.231 238.094
L541.901 226.245
L542.57 227.726
L543.24 258.83
L543.91 261.792
L544.579 235.131
L545.249 224.763
L545.918 239.575
L546.588 217.358
L547.258 215.877
L547.927 224.763
L548.597 236.613
L549.266 236.613
L550.606 270.679
L551.275 261.792
L551.945 267.717
L552.614 244.018
L553.284 251.424
L553.954 249.943
L554.623 233.65
L555.293 248.462
L555.962 233.65
L556.632 221.801
L557.302 212.914
L557.971 244.018
L558.641 245.499
L559.31 211.433
L559.98 252.905
L560.65 224.763
L561.319 245.499
L561.989 270.679
L562.658 263.273
L563.328 272.16
L563.998 278.085
L564.667 263.273
L565.337 261.792
L566.006 263.273
L566.676 267.717
L567.346 298.821
L568.015 294.377
L568.685 304.745
L569.354 286.971
L570.024 273.641
L570.694 295.858
L571.363 285.49
L572.033 255.867
L572.702 270.679
L573.372 288.453
L574.042 279.566
L574.711 282.528
L575.381 297.339
L576.05 281.047
L576.72 291.415
L577.39 295.858
L578.059 284.009
L578.729 279.566
L579.398 245.499
L580.068 239.575
L580.738 276.603
L582.077 244.018
L582.746 255.867
L583.416 251.424
L584.086 252.905
L584.755 292.896
L585.425 292.896
L586.094 303.264
L586.764 284.009
L587.434 273.641
L588.103 286.971
L588.773 309.189
L589.442 309.189
L590.112 316.594
L590.782 315.113
L591.451 331.406
L592.121 334.368
L592.79 326.962
L593.46 371.397
L594.13 349.179
L594.799 315.113
L595.469 312.151
L596.138 319.557
L596.808 309.189
L597.478 309.189
L598.817 306.226
L599.486 295.858
L600.156 303.264
L600.826 318.075
L601.495 325.481
L602.165 297.339
L602.834 298.821
L603.504 285.49
L604.843 310.67
L606.182 313.632
L606.852 291.415
L607.522 291.415
L608.191 295.858
L608.861 301.783
L609.53 337.33
L610.2 322.519
L611.539 325.481
L612.209 318.075
L612.878 273.641
L613.548 313.632
L614.218 316.594
L614.887 306.226
L615.557 321.038
L616.226 346.217
L616.896 322.519
L617.566 313.632
L618.235 309.189
L618.905 303.264
L619.574 319.557
L620.244 313.632
L620.914 298.821
L621.583 335.849
L622.253 353.623
L622.922 341.774
L623.592 350.661
L624.262 332.887
L624.931 352.142
L625.601 359.547
L626.27 359.547
L626.94 331.406
L627.61 337.33
L628.279 337.33
L628.949 343.255
L629.618 340.293
L630.288 359.547
L630.958 341.774
L631.627 334.368
L632.297 346.217
L632.966 353.623
L633.636 358.066
L634.306 346.217
L634.975 352.142
L635.645 346.217
L636.314 352.142
L636.984 355.104
L637.654 374.359
L638.323 369.915
L638.993 390.651
L639.662 368.434
L640.332 363.991
L641.002 352.142
L641.671 390.651
L642.341 362.51
L643.01 374.359
L644.35 356.585
L645.019 356.585
L645.689 365.472
L646.358 355.104
L647.028 375.84
L647.698 408.425
L648.367 398.057
L649.037 398.057
L649.706 386.208
L650.376 380.283
L651.046 371.397
L651.715 365.472
L652.385 389.17
L653.054 381.765
L653.724 387.689
L654.394 371.397
L655.063 387.689
L655.733 362.51
L656.402 377.321
L657.072 386.208
L657.742 371.397
L658.411 375.84
L659.081 386.208
L659.75 386.208
L661.09 411.387
L661.759 408.425
L662.429 411.387
L663.098 415.831
L663.768 408.425
L664.438 409.906
L665.107 399.538
L665.777 406.944
L666.446 399.538
L667.116 399.538
L667.786 396.576
L668.455 392.133
L669.125 392.133
L669.794 386.208
L670.464 393.614
L671.134 393.614
L671.803 401.019
L672.473 406.944
L673.142 406.944
L673.812 414.35
L674.482 423.237
L675.151 420.274
L675.821 393.614
L676.49 418.793
L677.16 427.68
L677.83 429.161
L678.499 408.425
L679.169 411.387
L679.838 411.387
L680.508 412.869
L681.178 399.538
L681.847 423.237
L682.517 406.944
L683.186 402.501
L683.856 414.35
L684.526 423.237
L685.195 402.501
L685.865 401.019
L686.534 406.944
L687.204 403.982
L687.874 399.538
L688.543 412.869
L689.213 405.463
L689.882 432.123
L690.552 435.086
L691.222 430.642
L691.891 442.491
L692.561 433.605
L693.23 432.123
L693.9 448.416
L694.57 443.973
L695.239 441.01
L695.909 441.01
L696.578 426.199
L697.248 420.274
L697.918 433.605
L698.587 441.01
L699.257 438.048
L699.926 449.897
L700.596 427.68
L701.266 426.199
L701.935 432.123
L702.605 433.605
L703.944 415.831
L704.614 414.35
L705.283 427.68
L706.622 445.454
L707.292 451.378
L707.962 452.859
L708.631 446.935
L709.301 454.341
L709.97 445.454
L710.64 442.491
L711.31 443.973
L711.979 448.416
L712.649 442.491
L713.318 429.161
L713.988 426.199
L714.658 446.935
L715.327 446.935
L715.997 443.973
L716.666 445.454
L717.336 438.048
L718.006 439.529
L719.345 448.416
L720.014 435.086
L720.684 448.416
L721.354 443.973
L722.023 457.303
L722.693 451.378
L723.362 426.199
L724.032 446.935
L724.702 442.491
L725.371 451.378
L726.041 461.746
L726.71 475.077
L727.38 478.039
L728.05 469.152
L728.719 463.227
L729.389 467.671
L730.058 461.746
L730.728 461.746
L731.398 470.633
L732.067 482.482
L732.737 481.001
L733.406 498.775
L734.076 482.482
L734.746 494.331
L735.415 486.926
L736.085 492.85
L736.754 507.662
L737.424 503.218
L738.094 500.256
L738.763 503.218
L739.433 503.218
L740.102 515.067
L740.772 491.369
L741.442 491.369
L742.111 498.775
L742.781 503.218
L743.45 485.445
L744.12 497.294
L744.79 501.737
L745.459 498.775
L746.129 507.662
L746.798 503.218
L748.138 491.369
L748.807 497.294
L749.477 483.963
L750.146 488.407
L750.816 497.294
L751.486 501.737
L752.155 498.775
L752.825 504.699
L753.494 500.256
L754.834 500.256
L755.503 504.699
L756.173 501.737
L756.842 509.143
L757.512 513.586
L758.182 497.294
L758.851 513.586
L760.19 522.473
L760.86 522.473
L761.53 518.03
L762.199 515.067
L762.869 513.586
L763.538 515.067
L764.208 523.954
L764.878 522.473
L765.547 519.511
L766.217 515.067
L766.886 518.03
L767.556 512.105
L768.226 519.511
L768.895 516.549
L769.565 518.03
L770.234 516.549
L770.904 513.586
L771.574 515.067
L772.243 519.511
L772.913 516.549
L773.582 516.549
L774.252 513.586
L774.922 519.511
L775.591 518.03
L776.261 529.879
L776.93 528.398
L777.6 523.954
L777.6 523.954" style="fill:none;stroke:#008000;stroke-linecap:square;"/>
   </g>
   <g id="line2d_3">
    <path clip-path="url(#p7ceb695115)" d="
M108 583.2
L126.749 583.2
L127.418 580.238
L128.088 583.2
L150.854 583.2
L151.524 580.238
L152.194 580.238
L152.863 581.719
L153.533 581.719
L154.202 583.2
L156.881 583.2
L157.55 581.719
L158.22 583.2
L158.89 581.719
L159.559 583.2
L162.907 583.2
L163.577 581.719
L164.916 581.719
L165.586 583.2
L166.255 581.719
L166.925 581.719
L167.594 583.2
L169.603 583.2
L170.273 581.719
L170.942 581.719
L171.612 583.2
L177.638 583.2
L178.308 581.719
L178.978 583.2
L191.03 583.2
L191.7 581.719
L192.37 583.2
L193.039 583.2
L193.709 581.719
L196.387 581.719
L197.057 583.2
L197.726 580.238
L198.396 581.719
L199.066 581.719
L199.735 580.238
L200.405 581.719
L201.074 581.719
L201.744 583.2
L203.083 580.238
L203.753 580.238
L204.422 583.2
L205.092 578.757
L206.431 581.719
L207.101 581.719
L207.77 583.2
L209.11 583.2
L209.779 581.719
L211.118 581.719
L211.788 580.238
L213.127 583.2
L213.797 583.2
L214.466 581.719
L215.136 583.2
L216.475 577.275
L217.145 580.238
L218.484 580.238
L219.154 577.275
L219.823 580.238
L220.493 577.275
L221.162 581.719
L221.832 578.757
L222.502 580.238
L223.171 578.757
L223.841 581.719
L224.51 581.719
L225.18 577.275
L225.85 578.757
L226.519 578.757
L227.189 580.238
L227.858 583.2
L228.528 580.238
L229.198 580.238
L229.867 578.757
L230.537 581.719
L231.206 580.238
L231.876 581.719
L232.546 580.238
L233.885 583.2
L234.554 583.2
L235.894 580.238
L236.563 581.719
L237.233 580.238
L239.242 580.238
L239.911 581.719
L240.581 578.757
L241.25 581.719
L241.92 580.238
L242.59 581.719
L243.259 581.719
L243.929 580.238
L245.268 580.238
L245.938 578.757
L246.607 578.757
L247.277 581.719
L247.946 581.719
L248.616 580.238
L249.286 577.275
L249.955 581.719
L250.625 581.719
L251.294 583.2
L251.964 583.2
L252.634 578.757
L253.303 578.757
L253.973 581.719
L255.312 578.757
L255.982 580.238
L256.651 578.757
L257.321 580.238
L257.99 580.238
L258.66 581.719
L259.999 581.719
L260.669 580.238
L261.338 583.2
L262.008 583.2
L262.678 580.238
L264.017 583.2
L264.686 578.757
L266.026 581.719
L266.695 581.719
L267.365 580.238
L268.704 583.2
L269.374 580.238
L270.043 581.719
L270.713 580.238
L271.382 581.719
L272.722 578.757
L274.73 583.2
L275.4 581.719
L276.07 581.719
L276.739 583.2
L278.748 583.2
L279.418 581.719
L280.087 583.2
L282.096 583.2
L282.766 580.238
L283.435 578.757
L284.105 581.719
L284.774 583.2
L285.444 583.2
L286.114 581.719
L286.783 581.719
L287.453 583.2
L288.122 583.2
L288.792 581.719
L289.462 583.2
L290.131 580.238
L290.801 578.757
L291.47 581.719
L292.14 583.2
L292.81 581.719
L293.479 581.719
L294.149 580.238
L294.818 581.719
L295.488 581.719
L296.158 578.757
L296.827 581.719
L297.497 580.238
L298.166 581.719
L299.506 581.719
L300.175 583.2
L300.845 580.238
L301.514 580.238
L302.184 583.2
L302.854 581.719
L304.193 581.719
L304.862 583.2
L306.871 583.2
L307.541 581.719
L308.21 583.2
L308.88 581.719
L309.55 583.2
L310.889 580.238
L311.558 581.719
L312.228 580.238
L312.898 583.2
L315.576 583.2
L316.246 581.719
L318.924 581.719
L319.594 583.2
L321.602 583.2
L322.942 580.238
L323.611 581.719
L324.281 581.719
L324.95 583.2
L326.959 583.2
L328.298 580.238
L328.968 583.2
L330.307 583.2
L331.646 580.238
L332.316 581.719
L332.986 581.719
L333.655 583.2
L334.325 583.2
L335.664 580.238
L336.334 583.2
L337.003 580.238
L337.673 580.238
L338.342 581.719
L339.012 581.719
L339.682 583.2
L341.69 583.2
L343.03 580.238
L345.038 580.238
L345.708 583.2
L346.378 581.719
L347.047 583.2
L347.717 580.238
L348.386 581.719
L351.065 581.719
L351.734 583.2
L354.413 583.2
L355.752 580.238
L356.422 581.719
L357.091 581.719
L357.761 583.2
L359.1 583.2
L359.77 581.719
L360.439 583.2
L361.109 581.719
L361.778 581.719
L362.448 583.2
L363.118 581.719
L364.457 581.719
L365.126 583.2
L367.805 583.2
L368.474 581.719
L369.144 583.2
L370.483 583.2
L371.153 580.238
L371.822 583.2
L372.492 583.2
L373.162 581.719
L373.831 583.2
L376.51 583.2
L377.849 580.238
L378.518 580.238
L379.858 583.2
L380.527 580.238
L381.197 578.757
L381.866 583.2
L383.206 580.238
L384.545 580.238
L385.884 583.2
L389.232 583.2
L389.902 581.719
L390.571 583.2
L391.241 580.238
L391.91 581.719
L393.25 581.719
L393.919 583.2
L394.589 580.238
L395.258 583.2
L397.267 583.2
L397.937 581.719
L398.606 583.2
L399.276 581.719
L400.615 581.719
L401.285 583.2
L401.954 583.2
L402.624 580.238
L403.294 581.719
L404.633 581.719
L405.302 583.2
L406.642 583.2
L407.311 581.719
L407.981 583.2
L408.65 581.719
L409.32 581.719
L409.99 583.2
L414.677 583.2
L415.346 581.719
L416.016 583.2
L418.025 583.2
L418.694 581.719
L419.364 583.2
L420.034 583.2
L420.703 581.719
L421.373 583.2
L422.042 583.2
L422.712 581.719
L424.051 581.719
L424.721 580.238
L425.39 581.719
L426.06 581.719
L426.73 583.2
L427.399 583.2
L428.069 581.719
L428.738 583.2
L429.408 583.2
L430.078 581.719
L430.747 583.2
L433.426 583.2
L434.095 581.719
L434.765 583.2
L435.434 581.719
L436.774 581.719
L437.443 583.2
L438.113 581.719
L438.782 583.2
L440.122 580.238
L440.791 581.719
L441.461 581.719
L442.13 583.2
L442.8 581.719
L443.47 581.719
L444.139 583.2
L446.818 583.2
L447.487 575.794
L448.157 572.832
L448.826 581.719
L449.496 568.389
L450.166 566.907
L450.835 558.021
L451.505 538.766
L452.174 550.615
L452.844 525.435
L453.514 531.36
L454.183 519.511
L454.853 515.067
L455.522 515.067
L456.862 479.52
L457.531 495.813
L458.201 486.926
L458.87 457.303
L459.54 488.407
L460.21 483.963
L460.879 461.746
L461.549 489.888
L462.218 481.001
L462.888 492.85
L463.558 473.595
L464.227 473.595
L464.897 463.227
L465.566 455.822
L466.236 452.859
L466.906 438.048
L467.575 473.595
L468.245 464.709
L468.914 479.52
L469.584 479.52
L470.254 483.963
L470.923 441.01
L471.593 488.407
L472.262 473.595
L472.932 454.341
L473.602 464.709
L474.271 467.671
L474.941 485.445
L475.61 500.256
L476.28 475.077
L476.95 472.114
L477.619 448.416
L478.289 475.077
L478.958 476.558
L479.628 430.642
L480.298 452.859
L480.967 481.001
L481.637 485.445
L482.306 476.558
L482.976 504.699
L483.646 492.85
L484.315 495.813
L484.985 482.482
L485.654 476.558
L486.324 494.331
L486.994 485.445
L487.663 491.369
L488.333 464.709
L489.002 470.633
L489.672 483.963
L490.342 449.897
L491.011 466.19
L491.681 461.746
L492.35 489.888
L493.02 498.775
L493.69 486.926
L494.359 497.294
L495.029 486.926
L495.698 497.294
L496.368 476.558
L497.038 491.369
L497.707 497.294
L498.377 486.926
L499.046 497.294
L499.716 476.558
L500.386 482.482
L501.055 451.378
L501.725 488.407
L502.394 509.143
L503.064 482.482
L503.734 460.265
L504.403 464.709
L505.073 485.445
L505.742 495.813
L506.412 457.303
L507.751 498.775
L508.421 488.407
L509.09 483.963
L509.76 470.633
L511.099 495.813
L511.769 494.331
L512.438 486.926
L513.108 482.482
L513.778 513.586
L514.447 482.482
L515.117 495.813
L515.786 494.331
L516.456 507.662
L517.126 488.407
L517.795 449.897
L518.465 491.369
L519.134 483.963
L519.804 489.888
L520.474 510.624
L521.143 500.256
L521.813 522.473
L522.482 488.407
L523.152 500.256
L523.822 483.963
L524.491 494.331
L525.161 509.143
L525.83 512.105
L526.5 504.699
L527.839 482.482
L528.509 492.85
L529.178 512.105
L529.848 481.001
L530.518 485.445
L531.187 485.445
L531.857 495.813
L532.526 500.256
L533.196 501.737
L533.866 483.963
L534.535 483.963
L535.205 504.699
L535.874 519.511
L536.544 520.992
L537.214 485.445
L537.883 476.558
L538.553 503.218
L539.222 515.067
L539.892 509.143
L540.562 510.624
L541.231 500.256
L542.57 485.445
L543.91 485.445
L544.579 503.218
L545.249 506.181
L545.918 483.963
L546.588 482.482
L547.258 495.813
L547.927 495.813
L548.597 488.407
L549.266 504.699
L549.936 494.331
L550.606 488.407
L551.275 526.917
L551.945 483.963
L552.614 503.218
L553.284 509.143
L553.954 492.85
L554.623 523.954
L555.293 516.549
L555.962 513.586
L556.632 515.067
L557.302 513.586
L557.971 504.699
L558.641 491.369
L559.31 516.549
L559.98 512.105
L560.65 500.256
L561.319 503.218
L561.989 500.256
L562.658 516.549
L563.328 519.511
L563.998 518.03
L564.667 507.662
L565.337 488.407
L566.006 500.256
L566.676 501.737
L567.346 486.926
L568.015 512.105
L568.685 504.699
L569.354 492.85
L570.024 512.105
L570.694 491.369
L571.363 500.256
L572.033 518.03
L572.702 469.152
L573.372 482.482
L574.042 492.85
L574.711 515.067
L575.381 523.954
L576.05 516.549
L576.72 507.662
L577.39 516.549
L578.059 504.699
L578.729 503.218
L579.398 510.624
L580.068 515.067
L580.738 509.143
L581.407 513.586
L582.077 515.067
L582.746 495.813
L583.416 509.143
L584.086 515.067
L584.755 525.435
L585.425 509.143
L586.094 506.181
L586.764 516.549
L587.434 515.067
L588.103 525.435
L588.773 501.737
L589.442 510.624
L590.112 515.067
L590.782 513.586
L591.451 501.737
L592.121 509.143
L592.79 520.992
L593.46 503.218
L594.13 507.662
L594.799 525.435
L595.469 526.917
L596.138 529.879
L596.808 535.803
L597.478 513.586
L598.147 503.218
L598.817 495.813
L599.486 513.586
L600.156 515.067
L600.826 498.775
L601.495 507.662
L602.165 507.662
L602.834 525.435
L604.174 503.218
L604.843 516.549
L605.513 501.737
L606.852 531.36
L607.522 528.398
L608.191 541.728
L608.861 537.285
L609.53 510.624
L610.2 519.511
L610.87 512.105
L611.539 526.917
L612.209 516.549
L612.878 520.992
L613.548 534.322
L614.218 503.218
L614.887 523.954
L615.557 522.473
L616.226 497.294
L616.896 525.435
L617.566 528.398
L618.235 522.473
L618.905 513.586
L619.574 497.294
L620.244 510.624
L620.914 549.134
L621.583 522.473
L622.922 516.549
L623.592 518.03
L624.262 523.954
L624.931 516.549
L625.601 520.992
L626.27 516.549
L626.94 519.511
L627.61 504.699
L628.279 513.586
L629.618 537.285
L630.288 532.841
L630.958 515.067
L631.627 519.511
L632.966 522.473
L633.636 518.03
L634.306 531.36
L634.975 512.105
L635.645 529.879
L636.314 525.435
L636.984 513.586
L637.654 515.067
L638.323 531.36
L638.993 512.105
L639.662 523.954
L640.332 510.624
L641.002 529.879
L641.671 531.36
L642.341 541.728
L643.01 538.766
L643.68 540.247
L644.35 522.473
L645.019 540.247
L645.689 535.803
L646.358 550.615
L647.028 532.841
L647.698 528.398
L648.367 553.577
L649.037 547.653
L649.706 535.803
L650.376 528.398
L651.046 525.435
L651.715 529.879
L652.385 513.586
L653.054 534.322
L653.724 538.766
L654.394 526.917
L655.063 519.511
L655.733 541.728
L656.402 532.841
L657.072 532.841
L657.742 543.209
L658.411 531.36
L659.75 540.247
L660.42 540.247
L661.09 549.134
L661.759 559.502
L662.429 543.209
L663.098 544.69
L663.768 544.69
L664.438 537.285
L665.107 547.653
L665.777 540.247
L666.446 544.69
L667.116 535.803
L667.786 534.322
L668.455 531.36
L669.125 534.322
L669.794 531.36
L670.464 543.209
L671.134 547.653
L671.803 535.803
L672.473 550.615
L673.142 549.134
L673.812 543.209
L674.482 546.171
L675.151 541.728
L675.821 553.577
L676.49 546.171
L677.16 546.171
L678.499 540.247
L679.169 553.577
L679.838 550.615
L680.508 549.134
L681.178 546.171
L681.847 528.398
L682.517 543.209
L683.186 543.209
L683.856 528.398
L684.526 538.766
L685.865 526.917
L686.534 540.247
L687.204 534.322
L687.874 523.954
L688.543 529.879
L689.213 544.69
L689.882 550.615
L690.552 547.653
L691.222 528.398
L691.891 552.096
L692.561 543.209
L693.23 549.134
L693.9 534.322
L694.57 546.171
L695.239 546.171
L695.909 544.69
L696.578 540.247
L697.248 537.285
L697.918 544.69
L698.587 544.69
L699.257 547.653
L699.926 535.803
L700.596 558.021
L701.266 550.615
L702.605 541.728
L703.274 556.539
L703.944 547.653
L704.614 526.917
L705.283 555.058
L705.953 556.539
L706.622 544.69
L707.292 547.653
L707.962 549.134
L708.631 544.69
L709.301 544.69
L709.97 553.577
L710.64 543.209
L711.31 546.171
L711.979 543.209
L712.649 547.653
L713.318 553.577
L713.988 547.653
L714.658 552.096
L715.327 544.69
L715.997 552.096
L716.666 562.464
L717.336 562.464
L718.006 560.983
L718.675 556.539
L719.345 549.134
L720.014 540.247
L720.684 535.803
L721.354 549.134
L722.023 546.171
L722.693 534.322
L723.362 547.653
L724.032 543.209
L724.702 565.426
L725.371 562.464
L726.041 552.096
L726.71 552.096
L727.38 534.322
L728.05 562.464
L728.719 550.615
L729.389 562.464
L730.058 560.983
L730.728 560.983
L731.398 565.426
L732.067 550.615
L732.737 552.096
L733.406 547.653
L734.076 556.539
L734.746 562.464
L735.415 562.464
L736.085 568.389
L736.754 553.577
L737.424 569.87
L738.094 566.907
L738.763 547.653
L739.433 555.058
L740.102 569.87
L740.772 566.907
L742.111 566.907
L742.781 559.502
L743.45 558.021
L744.12 559.502
L744.79 552.096
L745.459 565.426
L746.129 559.502
L746.798 562.464
L747.468 563.945
L748.138 571.351
L748.807 558.021
L749.477 558.021
L750.146 566.907
L750.816 578.757
L751.486 568.389
L752.825 556.539
L753.494 563.945
L754.164 560.983
L754.834 562.464
L755.503 572.832
L756.173 575.794
L756.842 563.945
L757.512 562.464
L758.182 563.945
L758.851 563.945
L759.521 565.426
L760.19 565.426
L760.86 566.907
L761.53 565.426
L762.199 569.87
L762.869 569.87
L763.538 565.426
L764.208 568.389
L764.878 555.058
L765.547 569.87
L766.217 566.907
L766.886 558.021
L767.556 568.389
L768.895 571.351
L769.565 562.464
L770.234 568.389
L771.574 568.389
L772.243 571.351
L772.913 568.389
L773.582 562.464
L774.252 563.945
L774.922 560.983
L775.591 569.87
L776.261 568.389
L776.93 556.539
L777.6 572.832
L777.6 572.832" style="fill:none;stroke:#0000ff;stroke-linecap:square;"/>
   </g>
   <g id="patch_3">
    <path d="
M108 583.2
L777.6 583.2" style="fill:none;stroke:#000000;stroke-linecap:square;stroke-linejoin:miter;"/>
   </g>
   <g id="patch_4">
    <path d="
M108 583.2
L108 64.8" style="fill:none;stroke:#000000;stroke-linecap:square;stroke-linejoin:miter;"/>
   </g>
   <g id="patch_5">
    <path d="
M108 64.8
L777.6 64.8" style="fill:none;stroke:#000000;stroke-linecap:square;stroke-linejoin:miter;"/>
   </g>
   <g id="patch_6">
    <path d="
M777.6 583.2
L777.6 64.8" style="fill:none;stroke:#000000;stroke-linecap:square;stroke-linejoin:miter;"/>
   </g>
   <g id="matplotlib.axis_1">
    <g id="xtick_1">
     <g id="line2d_4">
      <defs>
       <path d="
M0 0
L0 -4" id="mc7db9fdffb" style="stroke:#000000;stroke-width:0.5;"/>
      </defs>
      <g>
       <use style="stroke:#000000;stroke-width:0.5;" x="108.0" xlink:href="#mc7db9fdffb" y="583.2"/>
      </g>
     </g>
     <g id="line2d_5">
      <defs>
       <path d="
M0 0
L0 4" id="m5a7d422ac3" style="stroke:#000000;stroke-width:0.5;"/>
      </defs>
      <g>
       <use style="stroke:#000000;stroke-width:0.5;" x="108.0" xlink:href="#m5a7d422ac3" y="64.8"/>
      </g>
     </g>
     <g id="text_1">
      <!-- 0 -->
      <defs>
       <path d="
M31.7812 66.4062
Q24.1719 66.4062 20.3281 58.9062
Q16.5 51.4219 16.5 36.375
Q16.5 21.3906 20.3281 13.8906
Q24.1719 6.39062 31.7812 6.39062
Q39.4531 6.39062 43.2812 13.8906
Q47.125 21.3906 47.125 36.375
Q47.125 51.4219 43.2812 58.9062
Q39.4531 66.4062 31.7812 66.4062
M31.7812 74.2188
Q44.0469 74.2188 50.5156 64.5156
Q56.9844 54.8281 56.9844 36.375
Q56.9844 17.9688 50.5156 8.26562
Q44.0469 -1.42188 31.7812 -1.42188
Q19.5312 -1.42188 13.0625 8.26562
Q6.59375 17.9688 6.59375 36.375
Q6.59375 54.8281 13.0625 64.5156
Q19.5312 74.2188 31.7812 74.2188" id="BitstreamVeraSans-Roman-30"/>
      </defs>
      <g transform="translate(104.9765625 596.318125)scale(0.12 -0.12)">
       <use xlink:href="#BitstreamVeraSans-Roman-30"/>
      </g>
     </g>
    </g>
    <g id="xtick_2">
     <g id="line2d_6">
      <g>
       <use style="stroke:#000000;stroke-width:0.5;" x="275.4" xlink:href="#mc7db9fdffb" y="583.2"/>
      </g>
     </g>
     <g id="line2d_7">
      <g>
       <use style="stroke:#000000;stroke-width:0.5;" x="275.4" xlink:href="#m5a7d422ac3" y="64.8"/>
      </g>
     </g>
     <g id="text_2">
      <!-- 50000 -->
      <defs>
       <path d="
M10.7969 72.9062
L49.5156 72.9062
L49.5156 64.5938
L19.8281 64.5938
L19.8281 46.7344
Q21.9688 47.4688 24.1094 47.8281
Q26.2656 48.1875 28.4219 48.1875
Q40.625 48.1875 47.75 41.5
Q54.8906 34.8125 54.8906 23.3906
Q54.8906 11.625 47.5625 5.09375
Q40.2344 -1.42188 26.9062 -1.42188
Q22.3125 -1.42188 17.5469 -0.640625
Q12.7969 0.140625 7.71875 1.70312
L7.71875 11.625
Q12.1094 9.23438 16.7969 8.0625
Q21.4844 6.89062 26.7031 6.89062
Q35.1562 6.89062 40.0781 11.3281
Q45.0156 15.7656 45.0156 23.3906
Q45.0156 31 40.0781 35.4375
Q35.1562 39.8906 26.7031 39.8906
Q22.75 39.8906 18.8125 39.0156
Q14.8906 38.1406 10.7969 36.2812
z
" id="BitstreamVeraSans-Roman-35"/>
      </defs>
      <g transform="translate(257.1740625 596.318125)scale(0.12 -0.12)">
       <use xlink:href="#BitstreamVeraSans-Roman-35"/>
       <use x="63.623046875" xlink:href="#BitstreamVeraSans-Roman-30"/>
       <use x="127.24609375" xlink:href="#BitstreamVeraSans-Roman-30"/>
       <use x="190.869140625" xlink:href="#BitstreamVeraSans-Roman-30"/>
       <use x="254.4921875" xlink:href="#BitstreamVeraSans-Roman-30"/>
      </g>
     </g>
    </g>
    <g id="xtick_3">
     <g id="line2d_8">
      <g>
       <use style="stroke:#000000;stroke-width:0.5;" x="442.8" xlink:href="#mc7db9fdffb" y="583.2"/>
      </g>
     </g>
     <g id="line2d_9">
      <g>
       <use style="stroke:#000000;stroke-width:0.5;" x="442.8" xlink:href="#m5a7d422ac3" y="64.8"/>
      </g>
     </g>
     <g id="text_3">
      <!-- 100000 -->
      <defs>
       <path d="
M12.4062 8.29688
L28.5156 8.29688
L28.5156 63.9219
L10.9844 60.4062
L10.9844 69.3906
L28.4219 72.9062
L38.2812 72.9062
L38.2812 8.29688
L54.3906 8.29688
L54.3906 0
L12.4062 0
z
" id="BitstreamVeraSans-Roman-31"/>
      </defs>
      <g transform="translate(420.9525 596.318125)scale(0.12 -0.12)">
       <use xlink:href="#BitstreamVeraSans-Roman-31"/>
       <use x="63.623046875" xlink:href="#BitstreamVeraSans-Roman-30"/>
       <use x="127.24609375" xlink:href="#BitstreamVeraSans-Roman-30"/>
       <use x="190.869140625" xlink:href="#BitstreamVeraSans-Roman-30"/>
       <use x="254.4921875" xlink:href="#BitstreamVeraSans-Roman-30"/>
       <use x="318.115234375" xlink:href="#BitstreamVeraSans-Roman-30"/>
      </g>
     </g>
    </g>
    <g id="xtick_4">
     <g id="line2d_10">
      <g>
       <use style="stroke:#000000;stroke-width:0.5;" x="610.2" xlink:href="#mc7db9fdffb" y="583.2"/>
      </g>
     </g>
     <g id="line2d_11">
      <g>
       <use style="stroke:#000000;stroke-width:0.5;" x="610.2" xlink:href="#m5a7d422ac3" y="64.8"/>
      </g>
     </g>
     <g id="text_4">
      <!-- 150000 -->
      <g transform="translate(588.3525 596.318125)scale(0.12 -0.12)">
       <use xlink:href="#BitstreamVeraSans-Roman-31"/>
       <use x="63.623046875" xlink:href="#BitstreamVeraSans-Roman-35"/>
       <use x="127.24609375" xlink:href="#BitstreamVeraSans-Roman-30"/>
       <use x="190.869140625" xlink:href="#BitstreamVeraSans-Roman-30"/>
       <use x="254.4921875" xlink:href="#BitstreamVeraSans-Roman-30"/>
       <use x="318.115234375" xlink:href="#BitstreamVeraSans-Roman-30"/>
      </g>
     </g>
    </g>
    <g id="xtick_5">
     <g id="line2d_12">
      <g>
       <use style="stroke:#000000;stroke-width:0.5;" x="777.6" xlink:href="#mc7db9fdffb" y="583.2"/>
      </g>
     </g>
     <g id="line2d_13">
      <g>
       <use style="stroke:#000000;stroke-width:0.5;" x="777.6" xlink:href="#m5a7d422ac3" y="64.8"/>
      </g>
     </g>
     <g id="text_5">
      <!-- 200000 -->
      <defs>
       <path d="
M19.1875 8.29688
L53.6094 8.29688
L53.6094 0
L7.32812 0
L7.32812 8.29688
Q12.9375 14.1094 22.625 23.8906
Q32.3281 33.6875 34.8125 36.5312
Q39.5469 41.8438 41.4219 45.5312
Q43.3125 49.2188 43.3125 52.7812
Q43.3125 58.5938 39.2344 62.25
Q35.1562 65.9219 28.6094 65.9219
Q23.9688 65.9219 18.8125 64.3125
Q13.6719 62.7031 7.8125 59.4219
L7.8125 69.3906
Q13.7656 71.7812 18.9375 73
Q24.125 74.2188 28.4219 74.2188
Q39.75 74.2188 46.4844 68.5469
Q53.2188 62.8906 53.2188 53.4219
Q53.2188 48.9219 51.5312 44.8906
Q49.8594 40.875 45.4062 35.4062
Q44.1875 33.9844 37.6406 27.2188
Q31.1094 20.4531 19.1875 8.29688" id="BitstreamVeraSans-Roman-32"/>
      </defs>
      <g transform="translate(755.533125 596.318125)scale(0.12 -0.12)">
       <use xlink:href="#BitstreamVeraSans-Roman-32"/>
       <use x="63.623046875" xlink:href="#BitstreamVeraSans-Roman-30"/>
       <use x="127.24609375" xlink:href="#BitstreamVeraSans-Roman-30"/>
       <use x="190.869140625" xlink:href="#BitstreamVeraSans-Roman-30"/>
       <use x="254.4921875" xlink:href="#BitstreamVeraSans-Roman-30"/>
       <use x="318.115234375" xlink:href="#BitstreamVeraSans-Roman-30"/>
      </g>
     </g>
    </g>
    <g id="text_6">
     <!-- t / ms -->
     <defs>
      <path id="BitstreamVeraSans-Roman-20"/>
      <path d="
M25.3906 72.9062
L33.6875 72.9062
L8.29688 -9.28125
L0 -9.28125
z
" id="BitstreamVeraSans-Roman-2f"/>
      <path d="
M18.3125 70.2188
L18.3125 54.6875
L36.8125 54.6875
L36.8125 47.7031
L18.3125 47.7031
L18.3125 18.0156
Q18.3125 11.3281 20.1406 9.42188
Q21.9688 7.51562 27.5938 7.51562
L36.8125 7.51562
L36.8125 0
L27.5938 0
Q17.1875 0 13.2344 3.875
Q9.28125 7.76562 9.28125 18.0156
L9.28125 47.7031
L2.6875 47.7031
L2.6875 54.6875
L9.28125 54.6875
L9.28125 70.2188
z
" id="BitstreamVeraSans-Roman-74"/>
      <path d="
M52 44.1875
Q55.375 50.25 60.0625 53.125
Q64.75 56 71.0938 56
Q79.6406 56 84.2812 50.0156
Q88.9219 44.0469 88.9219 33.0156
L88.9219 0
L79.8906 0
L79.8906 32.7188
Q79.8906 40.5781 77.0938 44.375
Q74.3125 48.1875 68.6094 48.1875
Q61.625 48.1875 57.5625 43.5469
Q53.5156 38.9219 53.5156 30.9062
L53.5156 0
L44.4844 0
L44.4844 32.7188
Q44.4844 40.625 41.7031 44.4062
Q38.9219 48.1875 33.1094 48.1875
Q26.2188 48.1875 22.1562 43.5312
Q18.1094 38.875 18.1094 30.9062
L18.1094 0
L9.07812 0
L9.07812 54.6875
L18.1094 54.6875
L18.1094 46.1875
Q21.1875 51.2188 25.4844 53.6094
Q29.7812 56 35.6875 56
Q41.6562 56 45.8281 52.9688
Q50 49.9531 52 44.1875" id="BitstreamVeraSans-Roman-6d"/>
      <path d="
M44.2812 53.0781
L44.2812 44.5781
Q40.4844 46.5312 36.375 47.5
Q32.2812 48.4844 27.875 48.4844
Q21.1875 48.4844 17.8438 46.4375
Q14.5 44.3906 14.5 40.2812
Q14.5 37.1562 16.8906 35.375
Q19.2812 33.5938 26.5156 31.9844
L29.5938 31.2969
Q39.1562 29.25 43.1875 25.5156
Q47.2188 21.7812 47.2188 15.0938
Q47.2188 7.46875 41.1875 3.01562
Q35.1562 -1.42188 24.6094 -1.42188
Q20.2188 -1.42188 15.4531 -0.5625
Q10.6875 0.296875 5.42188 2
L5.42188 11.2812
Q10.4062 8.6875 15.2344 7.39062
Q20.0625 6.10938 24.8125 6.10938
Q31.1562 6.10938 34.5625 8.28125
Q37.9844 10.4531 37.9844 14.4062
Q37.9844 18.0625 35.5156 20.0156
Q33.0625 21.9688 24.7031 23.7812
L21.5781 24.5156
Q13.2344 26.2656 9.51562 29.9062
Q5.8125 33.5469 5.8125 39.8906
Q5.8125 47.6094 11.2812 51.7969
Q16.75 56 26.8125 56
Q31.7812 56 36.1719 55.2656
Q40.5781 54.5469 44.2812 53.0781" id="BitstreamVeraSans-Roman-73"/>
     </defs>
     <g transform="translate(425.9353125 612.931875)scale(0.12 -0.12)">
      <use xlink:href="#BitstreamVeraSans-Roman-74"/>
      <use x="39.208984375" xlink:href="#BitstreamVeraSans-Roman-20"/>
      <use x="70.99609375" xlink:href="#BitstreamVeraSans-Roman-2f"/>
      <use x="104.6875" xlink:href="#BitstreamVeraSans-Roman-20"/>
      <use x="136.474609375" xlink:href="#BitstreamVeraSans-Roman-6d"/>
      <use x="233.88671875" xlink:href="#BitstreamVeraSans-Roman-73"/>
     </g>
    </g>
   </g>
   <g id="matplotlib.axis_2">
    <g id="ytick_1">
     <g id="line2d_14">
      <defs>
       <path d="
M0 0
L4 0" id="md7965d1ba0" style="stroke:#000000;stroke-width:0.5;"/>
      </defs>
      <g>
       <use style="stroke:#000000;stroke-width:0.5;" x="108.0" xlink:href="#md7965d1ba0" y="583.2"/>
      </g>
     </g>
     <g id="line2d_15">
      <defs>
       <path d="
M0 0
L-4 0" id="md9a1c1a7cd" style="stroke:#000000;stroke-width:0.5;"/>
      </defs>
      <g>
       <use style="stroke:#000000;stroke-width:0.5;" x="777.6" xlink:href="#md9a1c1a7cd" y="583.2"/>
      </g>
     </g>
     <g id="text_7">
      <!-- 0 -->
      <g transform="translate(97.953125 586.51125)scale(0.12 -0.12)">
       <use xlink:href="#BitstreamVeraSans-Roman-30"/>
      </g>
     </g>
    </g>
    <g id="ytick_2">
     <g id="line2d_16">
      <g>
       <use style="stroke:#000000;stroke-width:0.5;" x="108.0" xlink:href="#md7965d1ba0" y="509.142857143"/>
      </g>
     </g>
     <g id="line2d_17">
      <g>
       <use style="stroke:#000000;stroke-width:0.5;" x="777.6" xlink:href="#md9a1c1a7cd" y="509.142857143"/>
      </g>
     </g>
     <g id="text_8">
      <!-- 50 -->
      <g transform="translate(90.453125 512.454107143)scale(0.12 -0.12)">
       <use xlink:href="#BitstreamVeraSans-Roman-35"/>
       <use x="63.623046875" xlink:href="#BitstreamVeraSans-Roman-30"/>
      </g>
     </g>
    </g>
    <g id="ytick_3">
     <g id="line2d_18">
      <g>
       <use style="stroke:#000000;stroke-width:0.5;" x="108.0" xlink:href="#md7965d1ba0" y="435.085714286"/>
      </g>
     </g>
     <g id="line2d_19">
      <g>
       <use style="stroke:#000000;stroke-width:0.5;" x="777.6" xlink:href="#md9a1c1a7cd" y="435.085714286"/>
      </g>
     </g>
     <g id="text_9">
      <!-- 100 -->
      <g transform="translate(83.21 438.396964286)scale(0.12 -0.12)">
       <use xlink:href="#BitstreamVeraSans-Roman-31"/>
       <use x="63.623046875" xlink:href="#BitstreamVeraSans-Roman-30"/>
       <use x="127.24609375" xlink:href="#BitstreamVeraSans-Roman-30"/>
      </g>
     </g>
    </g>
    <g id="ytick_4">
     <g id="line2d_20">
      <g>
       <use style="stroke:#000000;stroke-width:0.5;" x="108.0" xlink:href="#md7965d1ba0" y="361.028571429"/>
      </g>
     </g>
     <g id="line2d_21">
      <g>
       <use style="stroke:#000000;stroke-width:0.5;" x="777.6" xlink:href="#md9a1c1a7cd" y="361.028571429"/>
      </g>
     </g>
     <g id="text_10">
      <!-- 150 -->
      <g transform="translate(83.21 364.339821429)scale(0.12 -0.12)">
       <use xlink:href="#BitstreamVeraSans-Roman-31"/>
       <use x="63.623046875" xlink:href="#BitstreamVeraSans-Roman-35"/>
       <use x="127.24609375" xlink:href="#BitstreamVeraSans-Roman-30"/>
      </g>
     </g>
    </g>
    <g id="ytick_5">
     <g id="line2d_22">
      <g>
       <use style="stroke:#000000;stroke-width:0.5;" x="108.0" xlink:href="#md7965d1ba0" y="286.971428571"/>
      </g>
     </g>
     <g id="line2d_23">
      <g>
       <use style="stroke:#000000;stroke-width:0.5;" x="777.6" xlink:href="#md9a1c1a7cd" y="286.971428571"/>
      </g>
     </g>
     <g id="text_11">
      <!-- 200 -->
      <g transform="translate(82.77125 290.282678571)scale(0.12 -0.12)">
       <use xlink:href="#BitstreamVeraSans-Roman-32"/>
       <use x="63.623046875" xlink:href="#BitstreamVeraSans-Roman-30"/>
       <use x="127.24609375" xlink:href="#BitstreamVeraSans-Roman-30"/>
      </g>
     </g>
    </g>
    <g id="ytick_6">
     <g id="line2d_24">
      <g>
       <use style="stroke:#000000;stroke-width:0.5;" x="108.0" xlink:href="#md7965d1ba0" y="212.914285714"/>
      </g>
     </g>
     <g id="line2d_25">
      <g>
       <use style="stroke:#000000;stroke-width:0.5;" x="777.6" xlink:href="#md9a1c1a7cd" y="212.914285714"/>
      </g>
     </g>
     <g id="text_12">
      <!-- 250 -->
      <g transform="translate(82.77125 216.225535714)scale(0.12 -0.12)">
       <use xlink:href="#BitstreamVeraSans-Roman-32"/>
       <use x="63.623046875" xlink:href="#BitstreamVeraSans-Roman-35"/>
       <use x="127.24609375" xlink:href="#BitstreamVeraSans-Roman-30"/>
      </g>
     </g>
    </g>
    <g id="ytick_7">
     <g id="line2d_26">
      <g>
       <use style="stroke:#000000;stroke-width:0.5;" x="108.0" xlink:href="#md7965d1ba0" y="138.857142857"/>
      </g>
     </g>
     <g id="line2d_27">
      <g>
       <use style="stroke:#000000;stroke-width:0.5;" x="777.6" xlink:href="#md9a1c1a7cd" y="138.857142857"/>
      </g>
     </g>
     <g id="text_13">
      <!-- 300 -->
      <defs>
       <path d="
M40.5781 39.3125
Q47.6562 37.7969 51.625 33
Q55.6094 28.2188 55.6094 21.1875
Q55.6094 10.4062 48.1875 4.48438
Q40.7656 -1.42188 27.0938 -1.42188
Q22.5156 -1.42188 17.6562 -0.515625
Q12.7969 0.390625 7.625 2.20312
L7.625 11.7188
Q11.7188 9.32812 16.5938 8.10938
Q21.4844 6.89062 26.8125 6.89062
Q36.0781 6.89062 40.9375 10.5469
Q45.7969 14.2031 45.7969 21.1875
Q45.7969 27.6406 41.2812 31.2656
Q36.7656 34.9062 28.7188 34.9062
L20.2188 34.9062
L20.2188 43.0156
L29.1094 43.0156
Q36.375 43.0156 40.2344 45.9219
Q44.0938 48.8281 44.0938 54.2969
Q44.0938 59.9062 40.1094 62.9062
Q36.1406 65.9219 28.7188 65.9219
Q24.6562 65.9219 20.0156 65.0312
Q15.375 64.1562 9.8125 62.3125
L9.8125 71.0938
Q15.4375 72.6562 20.3438 73.4375
Q25.25 74.2188 29.5938 74.2188
Q40.8281 74.2188 47.3594 69.1094
Q53.9062 64.0156 53.9062 55.3281
Q53.9062 49.2656 50.4375 45.0938
Q46.9688 40.9219 40.5781 39.3125" id="BitstreamVeraSans-Roman-33"/>
      </defs>
      <g transform="translate(82.806875 142.168392857)scale(0.12 -0.12)">
       <use xlink:href="#BitstreamVeraSans-Roman-33"/>
       <use x="63.623046875" xlink:href="#BitstreamVeraSans-Roman-30"/>
       <use x="127.24609375" xlink:href="#BitstreamVeraSans-Roman-30"/>
      </g>
     </g>
    </g>
    <g id="ytick_8">
     <g id="line2d_28">
      <g>
       <use style="stroke:#000000;stroke-width:0.5;" x="108.0" xlink:href="#md7965d1ba0" y="64.8"/>
      </g>
     </g>
     <g id="line2d_29">
      <g>
       <use style="stroke:#000000;stroke-width:0.5;" x="777.6" xlink:href="#md9a1c1a7cd" y="64.8"/>
      </g>
     </g>
     <g id="text_14">
      <!-- 350 -->
      <g transform="translate(82.806875 68.11125)scale(0.12 -0.12)">
       <use xlink:href="#BitstreamVeraSans-Roman-33"/>
       <use x="63.623046875" xlink:href="#BitstreamVeraSans-Roman-35"/>
       <use x="127.24609375" xlink:href="#BitstreamVeraSans-Roman-30"/>
      </g>
     </g>
    </g>
    <g id="text_15">
     <!-- particle numbers -->
     <defs>
      <path d="
M8.5 21.5781
L8.5 54.6875
L17.4844 54.6875
L17.4844 21.9219
Q17.4844 14.1562 20.5 10.2656
Q23.5312 6.39062 29.5938 6.39062
Q36.8594 6.39062 41.0781 11.0312
Q45.3125 15.6719 45.3125 23.6875
L45.3125 54.6875
L54.2969 54.6875
L54.2969 0
L45.3125 0
L45.3125 8.40625
Q42.0469 3.42188 37.7188 1
Q33.4062 -1.42188 27.6875 -1.42188
Q18.2656 -1.42188 13.375 4.4375
Q8.5 10.2969 8.5 21.5781" id="BitstreamVeraSans-Roman-75"/>
      <path d="
M56.2031 29.5938
L56.2031 25.2031
L14.8906 25.2031
Q15.4844 15.9219 20.4844 11.0625
Q25.4844 6.20312 34.4219 6.20312
Q39.5938 6.20312 44.4531 7.46875
Q49.3125 8.73438 54.1094 11.2812
L54.1094 2.78125
Q49.2656 0.734375 44.1875 -0.34375
Q39.1094 -1.42188 33.8906 -1.42188
Q20.7969 -1.42188 13.1562 6.1875
Q5.51562 13.8125 5.51562 26.8125
Q5.51562 40.2344 12.7656 48.1094
Q20.0156 56 32.3281 56
Q43.3594 56 49.7812 48.8906
Q56.2031 41.7969 56.2031 29.5938
M47.2188 32.2344
Q47.125 39.5938 43.0938 43.9844
Q39.0625 48.3906 32.4219 48.3906
Q24.9062 48.3906 20.3906 44.1406
Q15.875 39.8906 15.1875 32.1719
z
" id="BitstreamVeraSans-Roman-65"/>
      <path d="
M41.1094 46.2969
Q39.5938 47.1719 37.8125 47.5781
Q36.0312 48 33.8906 48
Q26.2656 48 22.1875 43.0469
Q18.1094 38.0938 18.1094 28.8125
L18.1094 0
L9.07812 0
L9.07812 54.6875
L18.1094 54.6875
L18.1094 46.1875
Q20.9531 51.1719 25.4844 53.5781
Q30.0312 56 36.5312 56
Q37.4531 56 38.5781 55.875
Q39.7031 55.7656 41.0625 55.5156
z
" id="BitstreamVeraSans-Roman-72"/>
      <path d="
M34.2812 27.4844
Q23.3906 27.4844 19.1875 25
Q14.9844 22.5156 14.9844 16.5
Q14.9844 11.7188 18.1406 8.90625
Q21.2969 6.10938 26.7031 6.10938
Q34.1875 6.10938 38.7031 11.4062
Q43.2188 16.7031 43.2188 25.4844
L43.2188 27.4844
z

M52.2031 31.2031
L52.2031 0
L43.2188 0
L43.2188 8.29688
Q40.1406 3.32812 35.5469 0.953125
Q30.9531 -1.42188 24.3125 -1.42188
Q15.9219 -1.42188 10.9531 3.29688
Q6 8.01562 6 15.9219
Q6 25.1406 12.1719 29.8281
Q18.3594 34.5156 30.6094 34.5156
L43.2188 34.5156
L43.2188 35.4062
Q43.2188 41.6094 39.1406 45
Q35.0625 48.3906 27.6875 48.3906
Q23 48.3906 18.5469 47.2656
Q14.1094 46.1406 10.0156 43.8906
L10.0156 52.2031
Q14.9375 54.1094 19.5781 55.0469
Q24.2188 56 28.6094 56
Q40.4844 56 46.3438 49.8438
Q52.2031 43.7031 52.2031 31.2031" id="BitstreamVeraSans-Roman-61"/>
      <path d="
M9.42188 75.9844
L18.4062 75.9844
L18.4062 0
L9.42188 0
z
" id="BitstreamVeraSans-Roman-6c"/>
      <path d="
M48.7812 52.5938
L48.7812 44.1875
Q44.9688 46.2969 41.1406 47.3438
Q37.3125 48.3906 33.4062 48.3906
Q24.6562 48.3906 19.8125 42.8438
Q14.9844 37.3125 14.9844 27.2969
Q14.9844 17.2812 19.8125 11.7344
Q24.6562 6.20312 33.4062 6.20312
Q37.3125 6.20312 41.1406 7.25
Q44.9688 8.29688 48.7812 10.4062
L48.7812 2.09375
Q45.0156 0.34375 40.9844 -0.53125
Q36.9688 -1.42188 32.4219 -1.42188
Q20.0625 -1.42188 12.7812 6.34375
Q5.51562 14.1094 5.51562 27.2969
Q5.51562 40.6719 12.8594 48.3281
Q20.2188 56 33.0156 56
Q37.1562 56 41.1094 55.1406
Q45.0625 54.2969 48.7812 52.5938" id="BitstreamVeraSans-Roman-63"/>
      <path d="
M9.42188 54.6875
L18.4062 54.6875
L18.4062 0
L9.42188 0
z

M9.42188 75.9844
L18.4062 75.9844
L18.4062 64.5938
L9.42188 64.5938
z
" id="BitstreamVeraSans-Roman-69"/>
      <path d="
M18.1094 8.20312
L18.1094 -20.7969
L9.07812 -20.7969
L9.07812 54.6875
L18.1094 54.6875
L18.1094 46.3906
Q20.9531 51.2656 25.2656 53.625
Q29.5938 56 35.5938 56
Q45.5625 56 51.7812 48.0938
Q58.0156 40.1875 58.0156 27.2969
Q58.0156 14.4062 51.7812 6.48438
Q45.5625 -1.42188 35.5938 -1.42188
Q29.5938 -1.42188 25.2656 0.953125
Q20.9531 3.32812 18.1094 8.20312
M48.6875 27.2969
Q48.6875 37.2031 44.6094 42.8438
Q40.5312 48.4844 33.4062 48.4844
Q26.2656 48.4844 22.1875 42.8438
Q18.1094 37.2031 18.1094 27.2969
Q18.1094 17.3906 22.1875 11.75
Q26.2656 6.10938 33.4062 6.10938
Q40.5312 6.10938 44.6094 11.75
Q48.6875 17.3906 48.6875 27.2969" id="BitstreamVeraSans-Roman-70"/>
      <path d="
M54.8906 33.0156
L54.8906 0
L45.9062 0
L45.9062 32.7188
Q45.9062 40.4844 42.875 44.3281
Q39.8438 48.1875 33.7969 48.1875
Q26.5156 48.1875 22.3125 43.5469
Q18.1094 38.9219 18.1094 30.9062
L18.1094 0
L9.07812 0
L9.07812 54.6875
L18.1094 54.6875
L18.1094 46.1875
Q21.3438 51.125 25.7031 53.5625
Q30.0781 56 35.7969 56
Q45.2188 56 50.0469 50.1719
Q54.8906 44.3438 54.8906 33.0156" id="BitstreamVeraSans-Roman-6e"/>
      <path d="
M48.6875 27.2969
Q48.6875 37.2031 44.6094 42.8438
Q40.5312 48.4844 33.4062 48.4844
Q26.2656 48.4844 22.1875 42.8438
Q18.1094 37.2031 18.1094 27.2969
Q18.1094 17.3906 22.1875 11.75
Q26.2656 6.10938 33.4062 6.10938
Q40.5312 6.10938 44.6094 11.75
Q48.6875 17.3906 48.6875 27.2969
M18.1094 46.3906
Q20.9531 51.2656 25.2656 53.625
Q29.5938 56 35.5938 56
Q45.5625 56 51.7812 48.0938
Q58.0156 40.1875 58.0156 27.2969
Q58.0156 14.4062 51.7812 6.48438
Q45.5625 -1.42188 35.5938 -1.42188
Q29.5938 -1.42188 25.2656 0.953125
Q20.9531 3.32812 18.1094 8.20312
L18.1094 0
L9.07812 0
L9.07812 75.9844
L18.1094 75.9844
z
" id="BitstreamVeraSans-Roman-62"/>
     </defs>
     <g transform="translate(75.275625 374.78625)rotate(-90.0)scale(0.12 -0.12)">
      <use xlink:href="#BitstreamVeraSans-Roman-70"/>
      <use x="63.4765625" xlink:href="#BitstreamVeraSans-Roman-61"/>
      <use x="124.755859375" xlink:href="#BitstreamVeraSans-Roman-72"/>
      <use x="165.869140625" xlink:href="#BitstreamVeraSans-Roman-74"/>
      <use x="205.078125" xlink:href="#BitstreamVeraSans-Roman-69"/>
      <use x="232.861328125" xlink:href="#BitstreamVeraSans-Roman-63"/>
      <use x="287.841796875" xlink:href="#BitstreamVeraSans-Roman-6c"/>
      <use x="315.625" xlink:href="#BitstreamVeraSans-Roman-65"/>
      <use x="377.1484375" xlink:href="#BitstreamVeraSans-Roman-20"/>
      <use x="408.935546875" xlink:href="#BitstreamVeraSans-Roman-6e"/>
      <use x="472.314453125" xlink:href="#BitstreamVeraSans-Roman-75"/>
      <use x="535.693359375" xlink:href="#BitstreamVeraSans-Roman-6d"/>
      <use x="633.10546875" xlink:href="#BitstreamVeraSans-Roman-62"/>
      <use x="696.58203125" xlink:href="#BitstreamVeraSans-Roman-65"/>
      <use x="758.10546875" xlink:href="#BitstreamVeraSans-Roman-72"/>
      <use x="799.21875" xlink:href="#BitstreamVeraSans-Roman-73"/>
     </g>
    </g>
   </g>
   <g id="legend_1">
    <g id="patch_7">
     <path d="
M717.006 101.224
L774.1 101.224
L774.1 68.3
L717.006 68.3
z
" style="fill:#ffffff;stroke:#000000;stroke-linejoin:miter;"/>
    </g>
    <g id="line2d_30">
     <path d="
M721.906 73.9689
L731.706 73.9689" style="fill:none;stroke:#ff0000;stroke-linecap:square;"/>
    </g>
    <g id="line2d_31"/>
    <g id="text_16">
     <!-- PKAc el.0 -->
     <defs>
      <path d="
M34.1875 63.1875
L20.7969 26.9062
L47.6094 26.9062
z

M28.6094 72.9062
L39.7969 72.9062
L67.5781 0
L57.3281 0
L50.6875 18.7031
L17.8281 18.7031
L11.1875 0
L0.78125 0
z
" id="BitstreamVeraSans-Roman-41"/>
      <path d="
M10.6875 12.4062
L21 12.4062
L21 0
L10.6875 0
z
" id="BitstreamVeraSans-Roman-2e"/>
      <path d="
M19.6719 64.7969
L19.6719 37.4062
L32.0781 37.4062
Q38.9688 37.4062 42.7188 40.9688
Q46.4844 44.5312 46.4844 51.125
Q46.4844 57.6719 42.7188 61.2344
Q38.9688 64.7969 32.0781 64.7969
z

M9.8125 72.9062
L32.0781 72.9062
Q44.3438 72.9062 50.6094 67.3594
Q56.8906 61.8125 56.8906 51.125
Q56.8906 40.3281 50.6094 34.8125
Q44.3438 29.2969 32.0781 29.2969
L19.6719 29.2969
L19.6719 0
L9.8125 0
z
" id="BitstreamVeraSans-Roman-50"/>
      <path d="
M9.8125 72.9062
L19.6719 72.9062
L19.6719 42.0938
L52.3906 72.9062
L65.0938 72.9062
L28.9062 38.9219
L67.6719 0
L54.6875 0
L19.6719 35.1094
L19.6719 0
L9.8125 0
z
" id="BitstreamVeraSans-Roman-4b"/>
     </defs>
     <g transform="translate(739.40625 76.41890625)scale(0.07 -0.07)">
      <use xlink:href="#BitstreamVeraSans-Roman-50"/>
      <use x="60.302734375" xlink:href="#BitstreamVeraSans-Roman-4b"/>
      <use x="124.12890625" xlink:href="#BitstreamVeraSans-Roman-41"/>
      <use x="190.787109375" xlink:href="#BitstreamVeraSans-Roman-63"/>
      <use x="245.767578125" xlink:href="#BitstreamVeraSans-Roman-20"/>
      <use x="277.5546875" xlink:href="#BitstreamVeraSans-Roman-65"/>
      <use x="339.078125" xlink:href="#BitstreamVeraSans-Roman-6c"/>
      <use x="366.861328125" xlink:href="#BitstreamVeraSans-Roman-2e"/>
      <use x="398.6484375" xlink:href="#BitstreamVeraSans-Roman-30"/>
     </g>
    </g>
    <g id="line2d_32">
     <path d="
M721.906 84.2436
L731.706 84.2436" style="fill:none;stroke:#008000;stroke-linecap:square;"/>
    </g>
    <g id="line2d_33"/>
    <g id="text_17">
     <!-- PKAc el.1 -->
     <g transform="translate(739.40625 86.69359375)scale(0.07 -0.07)">
      <use xlink:href="#BitstreamVeraSans-Roman-50"/>
      <use x="60.302734375" xlink:href="#BitstreamVeraSans-Roman-4b"/>
      <use x="124.12890625" xlink:href="#BitstreamVeraSans-Roman-41"/>
      <use x="190.787109375" xlink:href="#BitstreamVeraSans-Roman-63"/>
      <use x="245.767578125" xlink:href="#BitstreamVeraSans-Roman-20"/>
      <use x="277.5546875" xlink:href="#BitstreamVeraSans-Roman-65"/>
      <use x="339.078125" xlink:href="#BitstreamVeraSans-Roman-6c"/>
      <use x="366.861328125" xlink:href="#BitstreamVeraSans-Roman-2e"/>
      <use x="398.6484375" xlink:href="#BitstreamVeraSans-Roman-31"/>
     </g>
    </g>
    <g id="line2d_34">
     <path d="
M721.906 94.5183
L731.706 94.5183" style="fill:none;stroke:#0000ff;stroke-linecap:square;"/>
    </g>
    <g id="line2d_35"/>
    <g id="text_18">
     <!-- PKAc el.2 -->
     <g transform="translate(739.40625 96.96828125)scale(0.07 -0.07)">
      <use xlink:href="#BitstreamVeraSans-Roman-50"/>
      <use x="60.302734375" xlink:href="#BitstreamVeraSans-Roman-4b"/>
      <use x="124.12890625" xlink:href="#BitstreamVeraSans-Roman-41"/>
      <use x="190.787109375" xlink:href="#BitstreamVeraSans-Roman-63"/>
      <use x="245.767578125" xlink:href="#BitstreamVeraSans-Roman-20"/>
      <use x="277.5546875" xlink:href="#BitstreamVeraSans-Roman-65"/>
      <use x="339.078125" xlink:href="#BitstreamVeraSans-Roman-6c"/>
      <use x="366.861328125" xlink:href="#BitstreamVeraSans-Roman-2e"/>
      <use x="398.6484375" xlink:href="#BitstreamVeraSans-Roman-32"/>
     </g>
    </g>
   </g>
  </g>
 </g>
 <defs>
  <clipPath id="p7ceb695115">
   <rect height="518.4" width="669.6" x="108.0" y="64.8"/>
  </clipPath>
 </defs>
</svg>
