<?xml version="1.0" encoding="utf-8" standalone="no"?>
<!DOCTYPE svg PUBLIC "-//W3C//DTD SVG 1.1//EN"
  "http://www.w3.org/Graphics/SVG/1.1/DTD/svg11.dtd">
<!-- Created with matplotlib (http://matplotlib.org/) -->
<svg height="648pt" version="1.1" viewBox="0 0 864 648" width="864pt" xmlns="http://www.w3.org/2000/svg" xmlns:xlink="http://www.w3.org/1999/xlink">
 <defs>
  <style type="text/css">
*{stroke-linecap:butt;stroke-linejoin:round;}
  </style>
 </defs>
 <g id="figure_1">
  <g id="patch_1">
   <path d="
M0 648
L864 648
L864 0
L0 0
z
" style="fill:#ffffff;"/>
  </g>
  <g id="axes_1">
   <g id="patch_2">
    <path d="
M108 583.2
L777.6 583.2
L777.6 64.8
L108 64.8
z
" style="fill:#ffffff;"/>
   </g>
   <g id="line2d_1">
    <path clip-path="url(#p7ceb695115)" d="
M108 583.2
L118.714 583.2
L119.383 579.96
L134.784 579.96
L135.454 583.2
L157.55 583.2
L158.22 579.96
L158.89 579.96
L159.559 583.2
L160.229 579.96
L160.898 579.96
L161.568 583.2
L164.246 583.2
L164.916 579.96
L166.255 579.96
L166.925 583.2
L201.074 583.2
L201.744 579.96
L202.414 579.96
L203.083 576.72
L203.753 579.96
L204.422 579.96
L205.092 576.72
L206.431 576.72
L207.101 579.96
L209.779 579.96
L210.449 583.2
L259.33 583.2
L259.999 579.96
L260.669 579.96
L261.338 583.2
L331.646 583.2
L332.316 579.96
L336.334 579.96
L337.003 583.2
L405.302 583.2
L405.972 579.96
L407.311 579.96
L407.981 583.2
L445.478 583.2
L446.148 576.72
L446.818 576.72
L447.487 570.24
L448.157 579.96
L448.826 567
L449.496 563.76
L450.166 554.04
L450.835 557.28
L451.505 554.04
L452.174 557.28
L452.844 547.56
L453.514 541.08
L454.183 541.08
L454.853 567
L455.522 537.84
L456.192 521.64
L456.862 528.12
L457.531 541.08
L458.201 528.12
L458.87 518.4
L459.54 537.84
L460.21 502.2
L460.879 531.36
L461.549 518.4
L462.218 537.84
L462.888 508.68
L463.558 518.4
L464.227 486
L464.897 537.84
L465.566 518.4
L466.236 518.4
L466.906 534.6
L467.575 534.6
L468.245 528.12
L468.914 502.2
L469.584 511.92
L470.254 518.4
L470.923 528.12
L471.593 492.48
L472.262 508.68
L472.932 463.32
L473.602 498.96
L474.271 492.48
L474.941 473.04
L475.61 495.72
L476.28 486
L476.95 508.68
L477.619 508.68
L478.289 479.52
L478.958 473.04
L479.628 511.92
L480.298 489.24
L480.967 476.28
L481.637 498.96
L482.306 460.08
L482.976 502.2
L483.646 486
L484.315 456.84
L484.985 466.56
L485.654 486
L486.324 466.56
L486.994 466.56
L487.663 476.28
L488.333 460.08
L489.002 460.08
L489.672 476.28
L490.342 443.88
L491.011 460.08
L491.681 450.36
L492.35 466.56
L493.02 479.52
L493.69 486
L494.359 417.96
L495.029 434.16
L495.698 440.64
L496.368 476.28
L497.038 479.52
L497.707 473.04
L498.377 502.2
L499.046 469.8
L499.716 463.32
L500.386 466.56
L501.055 473.04
L501.725 511.92
L502.394 456.84
L503.064 486
L503.734 508.68
L504.403 469.8
L505.073 486
L505.742 508.68
L506.412 482.76
L507.751 476.28
L508.421 524.88
L509.09 489.24
L509.76 466.56
L510.43 463.32
L511.099 486
L511.769 456.84
L512.438 502.2
L513.108 450.36
L513.778 473.04
L514.447 469.8
L515.117 463.32
L515.786 447.12
L516.456 443.88
L517.126 430.92
L517.795 430.92
L518.465 479.52
L519.134 502.2
L519.804 424.44
L520.474 489.24
L521.143 430.92
L521.813 466.56
L522.482 486
L523.152 476.28
L523.822 492.48
L524.491 479.52
L525.161 453.6
L525.83 443.88
L526.5 486
L527.17 479.52
L527.839 482.76
L528.509 489.24
L529.178 489.24
L529.848 479.52
L530.518 511.92
L531.187 482.76
L531.857 498.96
L532.526 460.08
L533.196 489.24
L533.866 473.04
L534.535 489.24
L535.205 479.52
L535.874 502.2
L536.544 495.72
L537.214 495.72
L537.883 511.92
L538.553 489.24
L539.222 524.88
L539.892 489.24
L540.562 489.24
L541.231 463.32
L541.901 489.24
L542.57 463.32
L543.24 482.76
L543.91 469.8
L544.579 479.52
L545.249 476.28
L545.918 437.4
L546.588 450.36
L547.258 473.04
L547.927 466.56
L549.266 479.52
L549.936 482.76
L551.945 463.32
L552.614 489.24
L553.284 460.08
L553.954 486
L554.623 486
L555.293 489.24
L555.962 489.24
L556.632 460.08
L557.302 476.28
L557.971 495.72
L558.641 492.48
L559.31 473.04
L559.98 473.04
L561.319 486
L562.658 479.52
L563.328 521.64
L563.998 518.4
L564.667 486
L565.337 469.8
L566.006 495.72
L566.676 505.44
L567.346 502.2
L568.015 521.64
L568.685 482.76
L569.354 505.44
L570.024 518.4
L570.694 511.92
L571.363 537.84
L572.702 469.8
L573.372 489.24
L574.042 482.76
L574.711 482.76
L575.381 476.28
L576.05 498.96
L577.39 492.48
L578.059 505.44
L578.729 508.68
L579.398 508.68
L580.068 505.44
L580.738 508.68
L581.407 498.96
L582.077 518.4
L582.746 495.72
L583.416 495.72
L584.086 518.4
L584.755 511.92
L585.425 486
L586.094 505.44
L586.764 518.4
L587.434 502.2
L588.103 521.64
L588.773 508.68
L589.442 518.4
L590.112 498.96
L590.782 524.88
L591.451 495.72
L592.121 492.48
L592.79 486
L593.46 511.92
L594.13 505.44
L594.799 511.92
L595.469 495.72
L596.138 505.44
L596.808 511.92
L597.478 515.16
L598.147 515.16
L598.817 502.2
L599.486 511.92
L600.156 518.4
L600.826 521.64
L601.495 508.68
L602.165 511.92
L602.834 524.88
L603.504 528.12
L604.174 547.56
L604.843 515.16
L605.513 521.64
L606.182 524.88
L606.852 518.4
L607.522 544.32
L608.191 508.68
L608.861 518.4
L609.53 515.16
L610.2 528.12
L610.87 511.92
L611.539 524.88
L612.209 508.68
L612.878 495.72
L613.548 502.2
L614.218 521.64
L614.887 502.2
L615.557 518.4
L616.226 505.44
L616.896 495.72
L617.566 508.68
L618.905 508.68
L619.574 518.4
L620.244 498.96
L620.914 511.92
L621.583 495.72
L622.253 518.4
L622.922 524.88
L623.592 502.2
L624.262 534.6
L624.931 495.72
L625.601 505.44
L626.27 498.96
L627.61 524.88
L628.279 502.2
L628.949 505.44
L629.618 518.4
L630.288 515.16
L630.958 502.2
L631.627 505.44
L632.966 531.36
L633.636 521.64
L634.306 537.84
L635.645 518.4
L636.314 521.64
L636.984 534.6
L637.654 524.88
L638.323 521.64
L638.993 528.12
L639.662 518.4
L640.332 518.4
L641.671 524.88
L642.341 524.88
L643.01 528.12
L643.68 528.12
L644.35 541.08
L645.019 544.32
L645.689 554.04
L646.358 547.56
L647.028 550.8
L647.698 557.28
L648.367 560.52
L649.037 550.8
L649.706 537.84
L650.376 547.56
L651.046 554.04
L651.715 544.32
L652.385 563.76
L653.054 541.08
L653.724 534.6
L654.394 557.28
L655.063 541.08
L655.733 550.8
L656.402 563.76
L657.072 554.04
L657.742 550.8
L658.411 544.32
L659.081 554.04
L659.75 557.28
L661.09 537.84
L661.759 547.56
L662.429 544.32
L663.098 557.28
L663.768 537.84
L664.438 557.28
L665.107 534.6
L665.777 547.56
L667.116 547.56
L667.786 550.8
L668.455 541.08
L669.125 550.8
L669.794 521.64
L670.464 541.08
L671.134 541.08
L671.803 554.04
L672.473 557.28
L673.142 547.56
L673.812 554.04
L674.482 554.04
L675.151 550.8
L675.821 554.04
L677.16 547.56
L677.83 554.04
L678.499 544.32
L679.169 547.56
L679.838 544.32
L680.508 550.8
L681.178 550.8
L681.847 554.04
L682.517 560.52
L683.856 554.04
L684.526 554.04
L685.195 560.52
L685.865 560.52
L686.534 557.28
L687.204 557.28
L687.874 563.76
L688.543 560.52
L689.213 560.52
L689.882 563.76
L690.552 560.52
L691.222 550.8
L691.891 560.52
L692.561 563.76
L693.23 554.04
L693.9 563.76
L694.57 560.52
L695.239 560.52
L695.909 554.04
L697.248 560.52
L697.918 554.04
L698.587 563.76
L699.257 554.04
L699.926 557.28
L700.596 563.76
L701.266 563.76
L701.935 573.48
L702.605 560.52
L703.274 554.04
L703.944 563.76
L704.614 567
L705.283 563.76
L705.953 563.76
L706.622 567
L707.962 560.52
L708.631 570.24
L710.64 560.52
L711.979 560.52
L712.649 573.48
L713.318 570.24
L713.988 557.28
L715.327 570.24
L715.997 563.76
L716.666 563.76
L717.336 573.48
L718.675 573.48
L719.345 576.72
L720.014 576.72
L720.684 570.24
L721.354 573.48
L722.023 573.48
L722.693 570.24
L723.362 576.72
L724.032 576.72
L724.702 570.24
L725.371 576.72
L726.041 573.48
L726.71 563.76
L727.38 570.24
L728.05 560.52
L728.719 560.52
L729.389 563.76
L730.058 557.28
L730.728 557.28
L731.398 547.56
L732.067 560.52
L733.406 567
L735.415 567
L736.085 570.24
L736.754 567
L737.424 567
L738.094 570.24
L739.433 570.24
L740.102 576.72
L740.772 579.96
L741.442 573.48
L742.781 579.96
L743.45 576.72
L744.79 576.72
L745.459 573.48
L746.129 573.48
L746.798 576.72
L747.468 573.48
L748.138 579.96
L748.807 583.2
L750.146 570.24
L751.486 576.72
L752.155 583.2
L752.825 579.96
L753.494 579.96
L754.164 583.2
L754.834 579.96
L755.503 583.2
L756.173 579.96
L756.842 579.96
L757.512 576.72
L758.182 579.96
L758.851 576.72
L759.521 576.72
L760.19 579.96
L760.86 579.96
L761.53 576.72
L762.199 576.72
L762.869 573.48
L764.208 579.96
L764.878 576.72
L765.547 579.96
L766.217 576.72
L766.886 576.72
L767.556 567
L768.226 567
L769.565 573.48
L770.904 567
L771.574 570.24
L774.252 570.24
L774.922 579.96
L775.591 573.48
L776.261 576.72
L777.6 576.72
L777.6 576.72" style="fill:none;stroke:#ff0000;stroke-linecap:square;"/>
   </g>
   <g id="line2d_2">
    <path clip-path="url(#p7ceb695115)" d="
M108 583.2
L115.366 583.2
L116.035 579.96
L118.714 579.96
L119.383 576.72
L120.053 579.96
L122.731 579.96
L123.401 583.2
L127.418 583.2
L128.088 579.96
L128.758 579.96
L130.097 573.48
L131.436 579.96
L132.775 579.96
L133.445 576.72
L134.114 579.96
L135.454 579.96
L136.123 576.72
L136.793 576.72
L137.462 579.96
L138.132 579.96
L138.802 583.2
L140.141 583.2
L140.81 579.96
L142.15 579.96
L142.819 583.2
L143.489 579.96
L144.158 583.2
L150.854 583.2
L151.524 579.96
L154.872 579.96
L155.542 583.2
L156.881 583.2
L157.55 576.72
L160.898 576.72
L161.568 573.48
L164.916 573.48
L166.255 579.96
L168.264 579.96
L168.934 573.48
L169.603 573.48
L170.273 576.72
L172.951 576.72
L173.621 573.48
L174.29 573.48
L175.63 579.96
L177.638 579.96
L178.308 576.72
L179.647 576.72
L180.317 573.48
L180.986 583.2
L186.343 583.2
L187.682 576.72
L188.352 579.96
L189.691 579.96
L190.361 576.72
L192.37 576.72
L193.039 579.96
L193.709 579.96
L194.378 576.72
L195.048 579.96
L202.414 579.96
L203.083 583.2
L204.422 583.2
L205.092 579.96
L214.466 579.96
L215.136 576.72
L215.806 579.96
L218.484 579.96
L219.154 583.2
L223.171 583.2
L223.841 579.96
L224.51 579.96
L225.18 576.72
L225.85 579.96
L228.528 579.96
L229.198 583.2
L231.206 583.2
L231.876 579.96
L236.563 579.96
L237.233 576.72
L238.572 576.72
L239.242 579.96
L241.92 579.96
L242.59 583.2
L259.33 583.2
L259.999 579.96
L261.338 579.96
L262.008 583.2
L262.678 579.96
L265.356 579.96
L266.026 583.2
L282.096 583.2
L282.766 579.96
L285.444 579.96
L286.114 583.2
L293.479 583.2
L294.149 579.96
L296.827 579.96
L297.497 576.72
L298.166 579.96
L300.175 579.96
L300.845 583.2
L307.541 583.2
L308.21 579.96
L321.602 579.96
L322.272 583.2
L323.611 583.2
L324.281 579.96
L332.316 579.96
L332.986 583.2
L353.743 583.2
L354.413 579.96
L362.448 579.96
L363.118 583.2
L407.311 583.2
L407.981 579.96
L409.99 579.96
L410.659 583.2
L431.417 583.2
L432.086 579.96
L440.791 579.96
L441.461 583.2
L444.809 583.2
L446.148 570.24
L446.818 560.52
L447.487 537.84
L448.157 528.12
L448.826 531.36
L449.496 521.64
L450.166 515.16
L450.835 498.96
L451.505 476.28
L452.174 486
L452.844 460.08
L453.514 460.08
L454.183 440.64
L454.853 473.04
L455.522 424.44
L456.862 424.44
L457.531 437.4
L458.201 417.96
L458.87 385.56
L459.54 398.52
L460.21 375.84
L460.879 398.52
L461.549 340.2
L462.218 343.44
L462.888 392.04
L463.558 298.08
L464.227 366.12
L464.897 366.12
L465.566 379.08
L466.236 343.44
L466.906 362.88
L467.575 336.96
L468.245 330.48
L468.914 281.88
L469.584 291.6
L470.254 265.68
L470.923 298.08
L471.593 268.92
L472.262 255.96
L472.932 213.84
L473.602 246.24
L474.271 255.96
L474.941 230.04
L475.61 252.72
L476.28 187.92
L476.95 249.48
L477.619 194.4
L478.289 220.32
L478.958 178.2
L479.628 178.2
L480.298 165.24
L480.967 207.36
L481.637 74.52
L482.306 142.56
L482.976 165.24
L483.646 149.04
L484.315 162
L484.985 187.92
L485.654 187.92
L486.324 84.24
L486.994 149.04
L487.663 87.48
L488.333 139.32
L489.002 139.32
L489.672 181.44
L490.342 155.52
L491.011 84.24
L492.35 139.32
L493.02 84.24
L493.69 123.12
L494.359 97.2
L495.029 126.36
L495.698 103.68
L496.368 152.28
L497.038 110.16
L497.707 110.16
L498.377 84.24
L499.046 129.6
L499.716 129.6
L500.386 165.24
L501.055 116.64
L501.725 145.8
L502.394 110.16
L503.064 136.08
L503.734 174.96
L504.403 123.12
L505.073 145.8
L505.742 149.04
L506.412 168.48
L507.082 158.76
L507.751 113.4
L508.421 204.12
L509.09 126.36
L509.76 171.72
L510.43 97.2
L511.099 168.48
L512.438 113.4
L513.108 116.64
L513.778 139.32
L514.447 217.08
L515.117 197.64
L515.786 268.92
L516.456 194.4
L517.126 162
L517.795 233.28
L518.465 136.08
L519.134 220.32
L519.804 181.44
L520.474 158.76
L521.143 217.08
L521.813 252.72
L522.482 226.8
L523.152 191.16
L523.822 184.68
L524.491 155.52
L525.161 184.68
L525.83 233.28
L526.5 181.44
L527.17 226.8
L527.839 174.96
L528.509 194.4
L529.178 181.44
L529.848 162
L530.518 239.76
L531.187 145.8
L531.857 204.12
L532.526 204.12
L533.196 194.4
L533.866 187.92
L534.535 184.68
L535.205 268.92
L535.874 272.16
L536.544 210.6
L537.214 226.8
L537.883 223.56
L539.222 210.6
L539.892 187.92
L540.562 181.44
L541.231 171.72
L541.901 187.92
L542.57 236.52
L543.24 262.44
L544.579 178.2
L545.249 174.96
L545.918 223.56
L546.588 187.92
L547.258 204.12
L547.927 200.88
L548.597 255.96
L549.266 246.24
L549.936 178.2
L551.275 226.8
L551.945 200.88
L552.614 255.96
L553.954 230.04
L554.623 246.24
L555.293 223.56
L555.962 294.84
L556.632 262.44
L557.302 285.12
L557.971 226.8
L558.641 285.12
L559.31 220.32
L559.98 252.72
L560.65 226.8
L561.319 252.72
L561.989 200.88
L562.658 207.36
L563.328 220.32
L563.998 255.96
L564.667 191.16
L565.337 168.48
L566.006 236.52
L566.676 252.72
L567.346 213.84
L568.015 191.16
L568.685 233.28
L569.354 217.08
L570.024 220.32
L570.694 255.96
L571.363 213.84
L572.033 239.76
L572.702 213.84
L573.372 220.32
L574.042 262.44
L574.711 191.16
L575.381 217.08
L576.05 226.8
L576.72 255.96
L577.39 249.48
L578.059 311.04
L579.398 197.64
L580.068 278.64
L580.738 255.96
L581.407 239.76
L582.077 304.56
L582.746 178.2
L583.416 288.36
L584.086 252.72
L584.755 278.64
L585.425 281.88
L586.094 213.84
L586.764 213.84
L587.434 275.4
L588.103 243
L588.773 304.56
L589.442 233.28
L590.112 252.72
L590.782 255.96
L591.451 252.72
L592.121 236.52
L592.79 223.56
L593.46 268.92
L594.13 288.36
L594.799 294.84
L595.469 304.56
L596.138 291.6
L596.808 268.92
L597.478 230.04
L598.147 272.16
L598.817 304.56
L599.486 291.6
L600.156 327.24
L600.826 288.36
L601.495 226.8
L602.165 307.8
L602.834 311.04
L604.174 278.64
L604.843 255.96
L605.513 294.84
L606.182 346.68
L606.852 272.16
L607.522 324
L608.191 272.16
L608.861 294.84
L609.53 330.48
L610.2 343.44
L610.87 327.24
L611.539 366.12
L612.209 330.48
L612.878 311.04
L613.548 343.44
L614.218 291.6
L614.887 301.32
L615.557 372.6
L616.226 336.96
L616.896 369.36
L617.566 392.04
L618.235 388.8
L618.905 375.84
L619.574 324
L620.244 392.04
L620.914 330.48
L621.583 375.84
L622.253 336.96
L622.922 353.16
L623.592 392.04
L624.262 379.08
L624.931 353.16
L625.601 401.76
L626.27 388.8
L626.94 392.04
L627.61 414.72
L628.949 388.8
L629.618 405
L630.288 385.56
L630.958 430.92
L631.627 392.04
L632.297 421.2
L632.966 408.24
L633.636 427.68
L634.975 382.32
L635.645 411.48
L636.314 398.52
L636.984 382.32
L637.654 411.48
L638.323 398.52
L638.993 388.8
L639.662 392.04
L640.332 392.04
L641.002 440.64
L641.671 388.8
L642.341 408.24
L643.01 430.92
L643.68 430.92
L644.35 437.4
L645.019 421.2
L645.689 447.12
L646.358 421.2
L647.028 447.12
L647.698 421.2
L648.367 411.48
L649.037 443.88
L649.706 456.84
L650.376 440.64
L651.046 427.68
L652.385 440.64
L653.054 453.6
L653.724 427.68
L654.394 447.12
L655.733 414.72
L656.402 427.68
L657.072 424.44
L657.742 427.68
L658.411 434.16
L659.081 417.96
L659.75 434.16
L660.42 430.92
L661.09 443.88
L661.759 479.52
L662.429 466.56
L663.098 450.36
L663.768 450.36
L664.438 460.08
L665.107 463.32
L665.777 447.12
L666.446 443.88
L667.116 437.4
L667.786 450.36
L668.455 434.16
L669.125 476.28
L669.794 437.4
L670.464 460.08
L671.134 443.88
L671.803 443.88
L672.473 450.36
L673.142 443.88
L673.812 453.6
L674.482 430.92
L675.821 476.28
L676.49 443.88
L677.16 453.6
L677.83 453.6
L678.499 440.64
L679.169 463.32
L679.838 437.4
L680.508 469.8
L681.178 443.88
L681.847 450.36
L682.517 443.88
L683.186 450.36
L683.856 463.32
L684.526 453.6
L685.195 476.28
L685.865 469.8
L686.534 482.76
L687.204 473.04
L687.874 450.36
L688.543 460.08
L689.213 463.32
L689.882 502.2
L690.552 489.24
L691.222 511.92
L691.891 463.32
L692.561 443.88
L693.23 473.04
L693.9 460.08
L695.239 486
L695.909 456.84
L696.578 466.56
L697.248 437.4
L697.918 486
L698.587 473.04
L699.257 469.8
L699.926 476.28
L700.596 492.48
L701.266 469.8
L701.935 508.68
L702.605 515.16
L703.274 502.2
L703.944 486
L704.614 482.76
L705.283 502.2
L705.953 469.8
L706.622 469.8
L707.292 489.24
L707.962 486
L708.631 486
L709.301 511.92
L709.97 492.48
L710.64 515.16
L711.979 495.72
L712.649 515.16
L713.318 505.44
L713.988 505.44
L714.658 508.68
L715.327 515.16
L715.997 502.2
L716.666 537.84
L717.336 528.12
L718.006 537.84
L718.675 524.88
L719.345 528.12
L720.014 524.88
L720.684 531.36
L721.354 544.32
L722.023 531.36
L722.693 534.6
L723.362 534.6
L724.032 521.64
L724.702 521.64
L725.371 528.12
L726.041 521.64
L726.71 534.6
L727.38 541.08
L728.05 518.4
L728.719 528.12
L729.389 531.36
L730.058 508.68
L730.728 524.88
L731.398 518.4
L732.067 508.68
L732.737 505.44
L733.406 531.36
L734.076 518.4
L734.746 541.08
L735.415 531.36
L736.085 528.12
L736.754 515.16
L737.424 537.84
L738.094 531.36
L738.763 528.12
L739.433 518.4
L740.102 524.88
L740.772 515.16
L741.442 537.84
L742.111 528.12
L742.781 541.08
L743.45 534.6
L744.12 544.32
L744.79 547.56
L745.459 563.76
L746.129 537.84
L746.798 528.12
L747.468 537.84
L750.146 524.88
L750.816 531.36
L751.486 521.64
L752.155 521.64
L752.825 544.32
L753.494 541.08
L754.164 550.8
L754.834 557.28
L756.173 563.76
L756.842 563.76
L757.512 570.24
L758.182 563.76
L758.851 570.24
L759.521 567
L760.19 560.52
L760.86 567
L761.53 563.76
L762.199 563.76
L762.869 550.8
L763.538 560.52
L764.208 547.56
L764.878 554.04
L765.547 554.04
L766.217 550.8
L766.886 550.8
L768.226 557.28
L768.895 563.76
L769.565 560.52
L770.234 563.76
L770.904 557.28
L771.574 544.32
L772.913 557.28
L773.582 560.52
L774.252 560.52
L775.591 547.56
L776.261 544.32
L776.93 547.56
L777.6 557.28
L777.6 557.28" style="fill:none;stroke:#008000;stroke-linecap:square;"/>
   </g>
   <g id="line2d_3">
    <path clip-path="url(#p7ceb695115)" d="
M108 583.2
L130.097 583.2
L130.766 579.96
L138.132 579.96
L138.802 583.2
L150.854 583.2
L151.524 579.96
L156.881 579.96
L157.55 583.2
L160.898 583.2
L161.568 579.96
L166.255 579.96
L166.925 583.2
L167.594 579.96
L169.603 579.96
L170.273 583.2
L220.493 583.2
L221.162 579.96
L224.51 579.96
L225.18 583.2
L233.215 583.2
L233.885 579.96
L235.894 579.96
L236.563 583.2
L248.616 583.2
L249.286 579.96
L252.634 579.96
L253.303 583.2
L339.012 583.2
L339.682 579.96
L343.699 579.96
L344.369 583.2
L445.478 583.2
L446.148 576.72
L446.818 573.48
L447.487 560.52
L448.157 563.76
L448.826 560.52
L449.496 567
L450.166 554.04
L450.835 557.28
L451.505 554.04
L452.174 537.84
L452.844 563.76
L453.514 547.56
L454.183 560.52
L454.853 541.08
L455.522 550.8
L456.192 554.04
L456.862 537.84
L457.531 547.56
L458.87 547.56
L459.54 550.8
L460.21 537.84
L460.879 547.56
L462.218 505.44
L462.888 531.36
L463.558 515.16
L464.897 521.64
L465.566 518.4
L466.236 518.4
L466.906 492.48
L467.575 511.92
L468.245 505.44
L468.914 511.92
L469.584 479.52
L470.254 521.64
L470.923 505.44
L471.593 498.96
L472.262 508.68
L472.932 505.44
L473.602 479.52
L474.271 515.16
L475.61 476.28
L476.28 492.48
L476.95 489.24
L477.619 498.96
L478.289 463.32
L478.958 456.84
L479.628 502.2
L480.298 498.96
L480.967 508.68
L481.637 486
L482.306 476.28
L482.976 476.28
L483.646 469.8
L484.315 473.04
L484.985 437.4
L485.654 460.08
L486.324 440.64
L486.994 492.48
L487.663 495.72
L488.333 473.04
L489.002 460.08
L489.672 466.56
L490.342 469.8
L491.011 456.84
L491.681 437.4
L492.35 440.64
L493.02 476.28
L493.69 473.04
L494.359 466.56
L495.029 469.8
L495.698 479.52
L496.368 460.08
L497.707 479.52
L498.377 466.56
L499.046 437.4
L499.716 460.08
L500.386 447.12
L501.055 440.64
L501.725 473.04
L502.394 476.28
L503.064 473.04
L503.734 463.32
L504.403 476.28
L505.073 469.8
L505.742 479.52
L506.412 469.8
L507.082 450.36
L507.751 450.36
L508.421 443.88
L509.09 476.28
L509.76 482.76
L510.43 482.76
L511.099 479.52
L512.438 498.96
L513.108 427.68
L513.778 476.28
L514.447 437.4
L515.117 466.56
L515.786 473.04
L516.456 466.56
L517.126 492.48
L517.795 492.48
L518.465 473.04
L519.134 466.56
L519.804 469.8
L520.474 469.8
L521.143 486
L521.813 489.24
L522.482 456.84
L523.152 469.8
L523.822 495.72
L524.491 473.04
L525.161 482.76
L525.83 456.84
L526.5 486
L527.17 460.08
L527.839 460.08
L528.509 486
L529.178 473.04
L529.848 473.04
L530.518 492.48
L531.187 508.68
L531.857 482.76
L532.526 505.44
L533.196 476.28
L533.866 476.28
L534.535 498.96
L535.205 447.12
L535.874 476.28
L536.544 495.72
L537.214 460.08
L537.883 489.24
L538.553 502.2
L539.222 502.2
L539.892 466.56
L540.562 524.88
L541.231 511.92
L541.901 511.92
L542.57 505.44
L543.24 495.72
L543.91 508.68
L544.579 495.72
L545.249 508.68
L545.918 505.44
L546.588 515.16
L547.258 515.16
L547.927 505.44
L548.597 524.88
L549.266 495.72
L549.936 498.96
L550.606 508.68
L551.275 495.72
L551.945 492.48
L552.614 495.72
L553.284 489.24
L553.954 479.52
L554.623 476.28
L555.293 502.2
L555.962 492.48
L556.632 486
L557.302 498.96
L557.971 486
L558.641 508.68
L559.31 469.8
L559.98 515.16
L560.65 473.04
L561.319 482.76
L561.989 495.72
L562.658 505.44
L563.328 469.8
L563.998 524.88
L564.667 460.08
L566.006 521.64
L566.676 486
L567.346 479.52
L568.015 492.48
L568.685 521.64
L569.354 502.2
L570.024 511.92
L570.694 492.48
L571.363 466.56
L572.033 495.72
L572.702 492.48
L573.372 476.28
L574.042 492.48
L574.711 521.64
L575.381 492.48
L576.05 502.2
L576.72 489.24
L577.39 489.24
L578.059 524.88
L579.398 492.48
L580.068 521.64
L580.738 489.24
L581.407 511.92
L582.077 511.92
L582.746 502.2
L583.416 505.44
L584.086 492.48
L584.755 515.16
L586.094 495.72
L586.764 511.92
L587.434 515.16
L588.103 498.96
L588.773 498.96
L589.442 508.68
L590.112 511.92
L590.782 502.2
L591.451 502.2
L592.121 492.48
L592.79 524.88
L593.46 515.16
L594.13 528.12
L594.799 515.16
L595.469 511.92
L596.138 498.96
L596.808 524.88
L597.478 508.68
L598.147 531.36
L598.817 508.68
L600.156 534.6
L600.826 511.92
L601.495 528.12
L602.165 508.68
L602.834 531.36
L603.504 498.96
L604.174 518.4
L604.843 515.16
L605.513 515.16
L606.182 528.12
L606.852 534.6
L607.522 521.64
L608.191 524.88
L608.861 531.36
L609.53 531.36
L610.2 528.12
L610.87 541.08
L611.539 544.32
L612.209 515.16
L612.878 547.56
L613.548 528.12
L614.887 534.6
L615.557 531.36
L616.226 534.6
L616.896 544.32
L617.566 550.8
L618.235 537.84
L618.905 544.32
L619.574 524.88
L620.244 534.6
L620.914 534.6
L621.583 498.96
L622.253 515.16
L622.922 537.84
L623.592 544.32
L624.262 528.12
L624.931 541.08
L625.601 531.36
L626.27 515.16
L626.94 537.84
L628.949 537.84
L629.618 531.36
L630.288 531.36
L630.958 521.64
L631.627 528.12
L632.297 515.16
L632.966 528.12
L633.636 524.88
L634.306 524.88
L634.975 531.36
L635.645 505.44
L636.314 511.92
L636.984 537.84
L637.654 531.36
L638.323 544.32
L638.993 534.6
L639.662 541.08
L640.332 528.12
L641.002 528.12
L641.671 524.88
L642.341 537.84
L643.01 528.12
L643.68 544.32
L644.35 534.6
L645.019 554.04
L645.689 544.32
L646.358 537.84
L647.028 521.64
L648.367 534.6
L649.037 534.6
L649.706 554.04
L650.376 534.6
L651.046 537.84
L651.715 531.36
L652.385 531.36
L653.054 534.6
L653.724 554.04
L654.394 541.08
L655.063 544.32
L655.733 554.04
L656.402 541.08
L657.072 550.8
L657.742 567
L658.411 550.8
L659.081 560.52
L659.75 544.32
L661.09 563.76
L661.759 550.8
L662.429 557.28
L663.098 560.52
L664.438 554.04
L665.107 560.52
L665.777 563.76
L666.446 554.04
L667.116 550.8
L668.455 563.76
L669.125 573.48
L669.794 560.52
L670.464 563.76
L671.134 570.24
L671.803 547.56
L672.473 560.52
L673.142 537.84
L673.812 544.32
L674.482 537.84
L675.151 544.32
L675.821 544.32
L676.49 563.76
L677.16 528.12
L677.83 541.08
L678.499 544.32
L679.169 554.04
L680.508 541.08
L681.847 547.56
L682.517 541.08
L683.186 554.04
L683.856 547.56
L684.526 544.32
L685.195 557.28
L685.865 554.04
L686.534 563.76
L687.204 563.76
L687.874 567
L688.543 563.76
L689.213 554.04
L689.882 560.52
L691.222 560.52
L691.891 557.28
L692.561 563.76
L693.9 570.24
L694.57 567
L695.239 570.24
L695.909 570.24
L696.578 563.76
L697.248 570.24
L697.918 567
L698.587 576.72
L699.257 573.48
L699.926 573.48
L700.596 570.24
L701.935 570.24
L702.605 573.48
L703.274 570.24
L704.614 570.24
L705.283 554.04
L705.953 557.28
L706.622 557.28
L707.292 567
L707.962 560.52
L708.631 537.84
L709.301 544.32
L709.97 534.6
L710.64 554.04
L712.649 563.76
L713.318 573.48
L713.988 567
L714.658 570.24
L715.327 570.24
L715.997 567
L716.666 567
L717.336 570.24
L718.006 560.52
L718.675 570.24
L720.014 576.72
L721.354 576.72
L722.023 579.96
L723.362 573.48
L724.032 579.96
L724.702 576.72
L725.371 570.24
L726.041 573.48
L726.71 573.48
L727.38 563.76
L728.05 567
L728.719 563.76
L729.389 576.72
L730.058 570.24
L730.728 570.24
L731.398 563.76
L732.067 570.24
L733.406 570.24
L734.076 573.48
L734.746 573.48
L735.415 567
L736.085 563.76
L736.754 570.24
L737.424 567
L738.094 573.48
L738.763 563.76
L739.433 567
L740.102 576.72
L740.772 570.24
L742.111 576.72
L742.781 570.24
L743.45 576.72
L744.12 573.48
L744.79 576.72
L745.459 573.48
L746.129 567
L746.798 576.72
L747.468 579.96
L748.138 573.48
L748.807 570.24
L749.477 570.24
L750.146 573.48
L750.816 573.48
L751.486 576.72
L752.155 576.72
L753.494 570.24
L754.164 573.48
L754.834 570.24
L755.503 563.76
L756.173 563.76
L756.842 557.28
L757.512 563.76
L758.182 567
L758.851 573.48
L759.521 576.72
L760.19 570.24
L761.53 570.24
L762.199 567
L762.869 570.24
L763.538 570.24
L764.208 567
L764.878 573.48
L765.547 573.48
L766.886 579.96
L767.556 573.48
L768.226 576.72
L768.895 563.76
L769.565 567
L770.234 567
L770.904 570.24
L771.574 570.24
L772.243 563.76
L772.913 570.24
L775.591 570.24
L776.261 576.72
L776.93 573.48
L777.6 576.72
L777.6 576.72" style="fill:none;stroke:#0000ff;stroke-linecap:square;"/>
   </g>
   <g id="patch_3">
    <path d="
M777.6 583.2
L777.6 64.8" style="fill:none;stroke:#000000;stroke-linecap:square;stroke-linejoin:miter;"/>
   </g>
   <g id="patch_4">
    <path d="
M108 64.8
L777.6 64.8" style="fill:none;stroke:#000000;stroke-linecap:square;stroke-linejoin:miter;"/>
   </g>
   <g id="patch_5">
    <path d="
M108 583.2
L108 64.8" style="fill:none;stroke:#000000;stroke-linecap:square;stroke-linejoin:miter;"/>
   </g>
   <g id="patch_6">
    <path d="
M108 583.2
L777.6 583.2" style="fill:none;stroke:#000000;stroke-linecap:square;stroke-linejoin:miter;"/>
   </g>
   <g id="matplotlib.axis_1">
    <g id="xtick_1">
     <g id="line2d_4">
      <defs>
       <path d="
M0 0
L0 -4" id="mc7db9fdffb" style="stroke:#000000;stroke-width:0.5;"/>
      </defs>
      <g>
       <use style="stroke:#000000;stroke-width:0.5;" x="108.0" xlink:href="#mc7db9fdffb" y="583.2"/>
      </g>
     </g>
     <g id="line2d_5">
      <defs>
       <path d="
M0 0
L0 4" id="m5a7d422ac3" style="stroke:#000000;stroke-width:0.5;"/>
      </defs>
      <g>
       <use style="stroke:#000000;stroke-width:0.5;" x="108.0" xlink:href="#m5a7d422ac3" y="64.8"/>
      </g>
     </g>
     <g id="text_1">
      <!-- 0 -->
      <defs>
       <path d="
M31.7812 66.4062
Q24.1719 66.4062 20.3281 58.9062
Q16.5 51.4219 16.5 36.375
Q16.5 21.3906 20.3281 13.8906
Q24.1719 6.39062 31.7812 6.39062
Q39.4531 6.39062 43.2812 13.8906
Q47.125 21.3906 47.125 36.375
Q47.125 51.4219 43.2812 58.9062
Q39.4531 66.4062 31.7812 66.4062
M31.7812 74.2188
Q44.0469 74.2188 50.5156 64.5156
Q56.9844 54.8281 56.9844 36.375
Q56.9844 17.9688 50.5156 8.26562
Q44.0469 -1.42188 31.7812 -1.42188
Q19.5312 -1.42188 13.0625 8.26562
Q6.59375 17.9688 6.59375 36.375
Q6.59375 54.8281 13.0625 64.5156
Q19.5312 74.2188 31.7812 74.2188" id="BitstreamVeraSans-Roman-30"/>
      </defs>
      <g transform="translate(104.9765625 596.318125)scale(0.12 -0.12)">
       <use xlink:href="#BitstreamVeraSans-Roman-30"/>
      </g>
     </g>
    </g>
    <g id="xtick_2">
     <g id="line2d_6">
      <g>
       <use style="stroke:#000000;stroke-width:0.5;" x="275.4" xlink:href="#mc7db9fdffb" y="583.2"/>
      </g>
     </g>
     <g id="line2d_7">
      <g>
       <use style="stroke:#000000;stroke-width:0.5;" x="275.4" xlink:href="#m5a7d422ac3" y="64.8"/>
      </g>
     </g>
     <g id="text_2">
      <!-- 50000 -->
      <defs>
       <path d="
M10.7969 72.9062
L49.5156 72.9062
L49.5156 64.5938
L19.8281 64.5938
L19.8281 46.7344
Q21.9688 47.4688 24.1094 47.8281
Q26.2656 48.1875 28.4219 48.1875
Q40.625 48.1875 47.75 41.5
Q54.8906 34.8125 54.8906 23.3906
Q54.8906 11.625 47.5625 5.09375
Q40.2344 -1.42188 26.9062 -1.42188
Q22.3125 -1.42188 17.5469 -0.640625
Q12.7969 0.140625 7.71875 1.70312
L7.71875 11.625
Q12.1094 9.23438 16.7969 8.0625
Q21.4844 6.89062 26.7031 6.89062
Q35.1562 6.89062 40.0781 11.3281
Q45.0156 15.7656 45.0156 23.3906
Q45.0156 31 40.0781 35.4375
Q35.1562 39.8906 26.7031 39.8906
Q22.75 39.8906 18.8125 39.0156
Q14.8906 38.1406 10.7969 36.2812
z
" id="BitstreamVeraSans-Roman-35"/>
      </defs>
      <g transform="translate(257.1740625 596.318125)scale(0.12 -0.12)">
       <use xlink:href="#BitstreamVeraSans-Roman-35"/>
       <use x="63.623046875" xlink:href="#BitstreamVeraSans-Roman-30"/>
       <use x="127.24609375" xlink:href="#BitstreamVeraSans-Roman-30"/>
       <use x="190.869140625" xlink:href="#BitstreamVeraSans-Roman-30"/>
       <use x="254.4921875" xlink:href="#BitstreamVeraSans-Roman-30"/>
      </g>
     </g>
    </g>
    <g id="xtick_3">
     <g id="line2d_8">
      <g>
       <use style="stroke:#000000;stroke-width:0.5;" x="442.8" xlink:href="#mc7db9fdffb" y="583.2"/>
      </g>
     </g>
     <g id="line2d_9">
      <g>
       <use style="stroke:#000000;stroke-width:0.5;" x="442.8" xlink:href="#m5a7d422ac3" y="64.8"/>
      </g>
     </g>
     <g id="text_3">
      <!-- 100000 -->
      <defs>
       <path d="
M12.4062 8.29688
L28.5156 8.29688
L28.5156 63.9219
L10.9844 60.4062
L10.9844 69.3906
L28.4219 72.9062
L38.2812 72.9062
L38.2812 8.29688
L54.3906 8.29688
L54.3906 0
L12.4062 0
z
" id="BitstreamVeraSans-Roman-31"/>
      </defs>
      <g transform="translate(420.9525 596.318125)scale(0.12 -0.12)">
       <use xlink:href="#BitstreamVeraSans-Roman-31"/>
       <use x="63.623046875" xlink:href="#BitstreamVeraSans-Roman-30"/>
       <use x="127.24609375" xlink:href="#BitstreamVeraSans-Roman-30"/>
       <use x="190.869140625" xlink:href="#BitstreamVeraSans-Roman-30"/>
       <use x="254.4921875" xlink:href="#BitstreamVeraSans-Roman-30"/>
       <use x="318.115234375" xlink:href="#BitstreamVeraSans-Roman-30"/>
      </g>
     </g>
    </g>
    <g id="xtick_4">
     <g id="line2d_10">
      <g>
       <use style="stroke:#000000;stroke-width:0.5;" x="610.2" xlink:href="#mc7db9fdffb" y="583.2"/>
      </g>
     </g>
     <g id="line2d_11">
      <g>
       <use style="stroke:#000000;stroke-width:0.5;" x="610.2" xlink:href="#m5a7d422ac3" y="64.8"/>
      </g>
     </g>
     <g id="text_4">
      <!-- 150000 -->
      <g transform="translate(588.3525 596.318125)scale(0.12 -0.12)">
       <use xlink:href="#BitstreamVeraSans-Roman-31"/>
       <use x="63.623046875" xlink:href="#BitstreamVeraSans-Roman-35"/>
       <use x="127.24609375" xlink:href="#BitstreamVeraSans-Roman-30"/>
       <use x="190.869140625" xlink:href="#BitstreamVeraSans-Roman-30"/>
       <use x="254.4921875" xlink:href="#BitstreamVeraSans-Roman-30"/>
       <use x="318.115234375" xlink:href="#BitstreamVeraSans-Roman-30"/>
      </g>
     </g>
    </g>
    <g id="xtick_5">
     <g id="line2d_12">
      <g>
       <use style="stroke:#000000;stroke-width:0.5;" x="777.6" xlink:href="#mc7db9fdffb" y="583.2"/>
      </g>
     </g>
     <g id="line2d_13">
      <g>
       <use style="stroke:#000000;stroke-width:0.5;" x="777.6" xlink:href="#m5a7d422ac3" y="64.8"/>
      </g>
     </g>
     <g id="text_5">
      <!-- 200000 -->
      <defs>
       <path d="
M19.1875 8.29688
L53.6094 8.29688
L53.6094 0
L7.32812 0
L7.32812 8.29688
Q12.9375 14.1094 22.625 23.8906
Q32.3281 33.6875 34.8125 36.5312
Q39.5469 41.8438 41.4219 45.5312
Q43.3125 49.2188 43.3125 52.7812
Q43.3125 58.5938 39.2344 62.25
Q35.1562 65.9219 28.6094 65.9219
Q23.9688 65.9219 18.8125 64.3125
Q13.6719 62.7031 7.8125 59.4219
L7.8125 69.3906
Q13.7656 71.7812 18.9375 73
Q24.125 74.2188 28.4219 74.2188
Q39.75 74.2188 46.4844 68.5469
Q53.2188 62.8906 53.2188 53.4219
Q53.2188 48.9219 51.5312 44.8906
Q49.8594 40.875 45.4062 35.4062
Q44.1875 33.9844 37.6406 27.2188
Q31.1094 20.4531 19.1875 8.29688" id="BitstreamVeraSans-Roman-32"/>
      </defs>
      <g transform="translate(755.533125 596.318125)scale(0.12 -0.12)">
       <use xlink:href="#BitstreamVeraSans-Roman-32"/>
       <use x="63.623046875" xlink:href="#BitstreamVeraSans-Roman-30"/>
       <use x="127.24609375" xlink:href="#BitstreamVeraSans-Roman-30"/>
       <use x="190.869140625" xlink:href="#BitstreamVeraSans-Roman-30"/>
       <use x="254.4921875" xlink:href="#BitstreamVeraSans-Roman-30"/>
       <use x="318.115234375" xlink:href="#BitstreamVeraSans-Roman-30"/>
      </g>
     </g>
    </g>
    <g id="text_6">
     <!-- t / ms -->
     <defs>
      <path d="
M52 44.1875
Q55.375 50.25 60.0625 53.125
Q64.75 56 71.0938 56
Q79.6406 56 84.2812 50.0156
Q88.9219 44.0469 88.9219 33.0156
L88.9219 0
L79.8906 0
L79.8906 32.7188
Q79.8906 40.5781 77.0938 44.375
Q74.3125 48.1875 68.6094 48.1875
Q61.625 48.1875 57.5625 43.5469
Q53.5156 38.9219 53.5156 30.9062
L53.5156 0
L44.4844 0
L44.4844 32.7188
Q44.4844 40.625 41.7031 44.4062
Q38.9219 48.1875 33.1094 48.1875
Q26.2188 48.1875 22.1562 43.5312
Q18.1094 38.875 18.1094 30.9062
L18.1094 0
L9.07812 0
L9.07812 54.6875
L18.1094 54.6875
L18.1094 46.1875
Q21.1875 51.2188 25.4844 53.6094
Q29.7812 56 35.6875 56
Q41.6562 56 45.8281 52.9688
Q50 49.9531 52 44.1875" id="BitstreamVeraSans-Roman-6d"/>
      <path id="BitstreamVeraSans-Roman-20"/>
      <path d="
M18.3125 70.2188
L18.3125 54.6875
L36.8125 54.6875
L36.8125 47.7031
L18.3125 47.7031
L18.3125 18.0156
Q18.3125 11.3281 20.1406 9.42188
Q21.9688 7.51562 27.5938 7.51562
L36.8125 7.51562
L36.8125 0
L27.5938 0
Q17.1875 0 13.2344 3.875
Q9.28125 7.76562 9.28125 18.0156
L9.28125 47.7031
L2.6875 47.7031
L2.6875 54.6875
L9.28125 54.6875
L9.28125 70.2188
z
" id="BitstreamVeraSans-Roman-74"/>
      <path d="
M44.2812 53.0781
L44.2812 44.5781
Q40.4844 46.5312 36.375 47.5
Q32.2812 48.4844 27.875 48.4844
Q21.1875 48.4844 17.8438 46.4375
Q14.5 44.3906 14.5 40.2812
Q14.5 37.1562 16.8906 35.375
Q19.2812 33.5938 26.5156 31.9844
L29.5938 31.2969
Q39.1562 29.25 43.1875 25.5156
Q47.2188 21.7812 47.2188 15.0938
Q47.2188 7.46875 41.1875 3.01562
Q35.1562 -1.42188 24.6094 -1.42188
Q20.2188 -1.42188 15.4531 -0.5625
Q10.6875 0.296875 5.42188 2
L5.42188 11.2812
Q10.4062 8.6875 15.2344 7.39062
Q20.0625 6.10938 24.8125 6.10938
Q31.1562 6.10938 34.5625 8.28125
Q37.9844 10.4531 37.9844 14.4062
Q37.9844 18.0625 35.5156 20.0156
Q33.0625 21.9688 24.7031 23.7812
L21.5781 24.5156
Q13.2344 26.2656 9.51562 29.9062
Q5.8125 33.5469 5.8125 39.8906
Q5.8125 47.6094 11.2812 51.7969
Q16.75 56 26.8125 56
Q31.7812 56 36.1719 55.2656
Q40.5781 54.5469 44.2812 53.0781" id="BitstreamVeraSans-Roman-73"/>
      <path d="
M25.3906 72.9062
L33.6875 72.9062
L8.29688 -9.28125
L0 -9.28125
z
" id="BitstreamVeraSans-Roman-2f"/>
     </defs>
     <g transform="translate(425.9353125 612.931875)scale(0.12 -0.12)">
      <use xlink:href="#BitstreamVeraSans-Roman-74"/>
      <use x="39.208984375" xlink:href="#BitstreamVeraSans-Roman-20"/>
      <use x="70.99609375" xlink:href="#BitstreamVeraSans-Roman-2f"/>
      <use x="104.6875" xlink:href="#BitstreamVeraSans-Roman-20"/>
      <use x="136.474609375" xlink:href="#BitstreamVeraSans-Roman-6d"/>
      <use x="233.88671875" xlink:href="#BitstreamVeraSans-Roman-73"/>
     </g>
    </g>
   </g>
   <g id="matplotlib.axis_2">
    <g id="ytick_1">
     <g id="line2d_14">
      <defs>
       <path d="
M0 0
L4 0" id="md7965d1ba0" style="stroke:#000000;stroke-width:0.5;"/>
      </defs>
      <g>
       <use style="stroke:#000000;stroke-width:0.5;" x="108.0" xlink:href="#md7965d1ba0" y="583.2"/>
      </g>
     </g>
     <g id="line2d_15">
      <defs>
       <path d="
M0 0
L-4 0" id="md9a1c1a7cd" style="stroke:#000000;stroke-width:0.5;"/>
      </defs>
      <g>
       <use style="stroke:#000000;stroke-width:0.5;" x="777.6" xlink:href="#md9a1c1a7cd" y="583.2"/>
      </g>
     </g>
     <g id="text_7">
      <!-- 0 -->
      <g transform="translate(97.953125 586.51125)scale(0.12 -0.12)">
       <use xlink:href="#BitstreamVeraSans-Roman-30"/>
      </g>
     </g>
    </g>
    <g id="ytick_2">
     <g id="line2d_16">
      <g>
       <use style="stroke:#000000;stroke-width:0.5;" x="108.0" xlink:href="#md7965d1ba0" y="518.4"/>
      </g>
     </g>
     <g id="line2d_17">
      <g>
       <use style="stroke:#000000;stroke-width:0.5;" x="777.6" xlink:href="#md9a1c1a7cd" y="518.4"/>
      </g>
     </g>
     <g id="text_8">
      <!-- 20 -->
      <g transform="translate(90.40625 521.71125)scale(0.12 -0.12)">
       <use xlink:href="#BitstreamVeraSans-Roman-32"/>
       <use x="63.623046875" xlink:href="#BitstreamVeraSans-Roman-30"/>
      </g>
     </g>
    </g>
    <g id="ytick_3">
     <g id="line2d_18">
      <g>
       <use style="stroke:#000000;stroke-width:0.5;" x="108.0" xlink:href="#md7965d1ba0" y="453.6"/>
      </g>
     </g>
     <g id="line2d_19">
      <g>
       <use style="stroke:#000000;stroke-width:0.5;" x="777.6" xlink:href="#md9a1c1a7cd" y="453.6"/>
      </g>
     </g>
     <g id="text_9">
      <!-- 40 -->
      <defs>
       <path d="
M37.7969 64.3125
L12.8906 25.3906
L37.7969 25.3906
z

M35.2031 72.9062
L47.6094 72.9062
L47.6094 25.3906
L58.0156 25.3906
L58.0156 17.1875
L47.6094 17.1875
L47.6094 0
L37.7969 0
L37.7969 17.1875
L4.89062 17.1875
L4.89062 26.7031
z
" id="BitstreamVeraSans-Roman-34"/>
      </defs>
      <g transform="translate(90.11375 456.91125)scale(0.12 -0.12)">
       <use xlink:href="#BitstreamVeraSans-Roman-34"/>
       <use x="63.623046875" xlink:href="#BitstreamVeraSans-Roman-30"/>
      </g>
     </g>
    </g>
    <g id="ytick_4">
     <g id="line2d_20">
      <g>
       <use style="stroke:#000000;stroke-width:0.5;" x="108.0" xlink:href="#md7965d1ba0" y="388.8"/>
      </g>
     </g>
     <g id="line2d_21">
      <g>
       <use style="stroke:#000000;stroke-width:0.5;" x="777.6" xlink:href="#md9a1c1a7cd" y="388.8"/>
      </g>
     </g>
     <g id="text_10">
      <!-- 60 -->
      <defs>
       <path d="
M33.0156 40.375
Q26.375 40.375 22.4844 35.8281
Q18.6094 31.2969 18.6094 23.3906
Q18.6094 15.5312 22.4844 10.9531
Q26.375 6.39062 33.0156 6.39062
Q39.6562 6.39062 43.5312 10.9531
Q47.4062 15.5312 47.4062 23.3906
Q47.4062 31.2969 43.5312 35.8281
Q39.6562 40.375 33.0156 40.375
M52.5938 71.2969
L52.5938 62.3125
Q48.875 64.0625 45.0938 64.9844
Q41.3125 65.9219 37.5938 65.9219
Q27.8281 65.9219 22.6719 59.3281
Q17.5312 52.7344 16.7969 39.4062
Q19.6719 43.6562 24.0156 45.9219
Q28.375 48.1875 33.5938 48.1875
Q44.5781 48.1875 50.9531 41.5156
Q57.3281 34.8594 57.3281 23.3906
Q57.3281 12.1562 50.6875 5.35938
Q44.0469 -1.42188 33.0156 -1.42188
Q20.3594 -1.42188 13.6719 8.26562
Q6.98438 17.9688 6.98438 36.375
Q6.98438 53.6562 15.1875 63.9375
Q23.3906 74.2188 37.2031 74.2188
Q40.9219 74.2188 44.7031 73.4844
Q48.4844 72.75 52.5938 71.2969" id="BitstreamVeraSans-Roman-36"/>
      </defs>
      <g transform="translate(90.365 392.11125)scale(0.12 -0.12)">
       <use xlink:href="#BitstreamVeraSans-Roman-36"/>
       <use x="63.623046875" xlink:href="#BitstreamVeraSans-Roman-30"/>
      </g>
     </g>
    </g>
    <g id="ytick_5">
     <g id="line2d_22">
      <g>
       <use style="stroke:#000000;stroke-width:0.5;" x="108.0" xlink:href="#md7965d1ba0" y="324.0"/>
      </g>
     </g>
     <g id="line2d_23">
      <g>
       <use style="stroke:#000000;stroke-width:0.5;" x="777.6" xlink:href="#md9a1c1a7cd" y="324.0"/>
      </g>
     </g>
     <g id="text_11">
      <!-- 80 -->
      <defs>
       <path d="
M31.7812 34.625
Q24.75 34.625 20.7188 30.8594
Q16.7031 27.0938 16.7031 20.5156
Q16.7031 13.9219 20.7188 10.1562
Q24.75 6.39062 31.7812 6.39062
Q38.8125 6.39062 42.8594 10.1719
Q46.9219 13.9688 46.9219 20.5156
Q46.9219 27.0938 42.8906 30.8594
Q38.875 34.625 31.7812 34.625
M21.9219 38.8125
Q15.5781 40.375 12.0312 44.7188
Q8.5 49.0781 8.5 55.3281
Q8.5 64.0625 14.7188 69.1406
Q20.9531 74.2188 31.7812 74.2188
Q42.6719 74.2188 48.875 69.1406
Q55.0781 64.0625 55.0781 55.3281
Q55.0781 49.0781 51.5312 44.7188
Q48 40.375 41.7031 38.8125
Q48.8281 37.1562 52.7969 32.3125
Q56.7812 27.4844 56.7812 20.5156
Q56.7812 9.90625 50.3125 4.23438
Q43.8438 -1.42188 31.7812 -1.42188
Q19.7344 -1.42188 13.25 4.23438
Q6.78125 9.90625 6.78125 20.5156
Q6.78125 27.4844 10.7812 32.3125
Q14.7969 37.1562 21.9219 38.8125
M18.3125 54.3906
Q18.3125 48.7344 21.8438 45.5625
Q25.3906 42.3906 31.7812 42.3906
Q38.1406 42.3906 41.7188 45.5625
Q45.3125 48.7344 45.3125 54.3906
Q45.3125 60.0625 41.7188 63.2344
Q38.1406 66.4062 31.7812 66.4062
Q25.3906 66.4062 21.8438 63.2344
Q18.3125 60.0625 18.3125 54.3906" id="BitstreamVeraSans-Roman-38"/>
      </defs>
      <g transform="translate(90.340625 327.31125)scale(0.12 -0.12)">
       <use xlink:href="#BitstreamVeraSans-Roman-38"/>
       <use x="63.623046875" xlink:href="#BitstreamVeraSans-Roman-30"/>
      </g>
     </g>
    </g>
    <g id="ytick_6">
     <g id="line2d_24">
      <g>
       <use style="stroke:#000000;stroke-width:0.5;" x="108.0" xlink:href="#md7965d1ba0" y="259.2"/>
      </g>
     </g>
     <g id="line2d_25">
      <g>
       <use style="stroke:#000000;stroke-width:0.5;" x="777.6" xlink:href="#md9a1c1a7cd" y="259.2"/>
      </g>
     </g>
     <g id="text_12">
      <!-- 100 -->
      <g transform="translate(83.21 262.51125)scale(0.12 -0.12)">
       <use xlink:href="#BitstreamVeraSans-Roman-31"/>
       <use x="63.623046875" xlink:href="#BitstreamVeraSans-Roman-30"/>
       <use x="127.24609375" xlink:href="#BitstreamVeraSans-Roman-30"/>
      </g>
     </g>
    </g>
    <g id="ytick_7">
     <g id="line2d_26">
      <g>
       <use style="stroke:#000000;stroke-width:0.5;" x="108.0" xlink:href="#md7965d1ba0" y="194.4"/>
      </g>
     </g>
     <g id="line2d_27">
      <g>
       <use style="stroke:#000000;stroke-width:0.5;" x="777.6" xlink:href="#md9a1c1a7cd" y="194.4"/>
      </g>
     </g>
     <g id="text_13">
      <!-- 120 -->
      <g transform="translate(83.21 197.71125)scale(0.12 -0.12)">
       <use xlink:href="#BitstreamVeraSans-Roman-31"/>
       <use x="63.623046875" xlink:href="#BitstreamVeraSans-Roman-32"/>
       <use x="127.24609375" xlink:href="#BitstreamVeraSans-Roman-30"/>
      </g>
     </g>
    </g>
    <g id="ytick_8">
     <g id="line2d_28">
      <g>
       <use style="stroke:#000000;stroke-width:0.5;" x="108.0" xlink:href="#md7965d1ba0" y="129.6"/>
      </g>
     </g>
     <g id="line2d_29">
      <g>
       <use style="stroke:#000000;stroke-width:0.5;" x="777.6" xlink:href="#md9a1c1a7cd" y="129.6"/>
      </g>
     </g>
     <g id="text_14">
      <!-- 140 -->
      <g transform="translate(83.21 132.91125)scale(0.12 -0.12)">
       <use xlink:href="#BitstreamVeraSans-Roman-31"/>
       <use x="63.623046875" xlink:href="#BitstreamVeraSans-Roman-34"/>
       <use x="127.24609375" xlink:href="#BitstreamVeraSans-Roman-30"/>
      </g>
     </g>
    </g>
    <g id="ytick_9">
     <g id="line2d_30">
      <g>
       <use style="stroke:#000000;stroke-width:0.5;" x="108.0" xlink:href="#md7965d1ba0" y="64.8"/>
      </g>
     </g>
     <g id="line2d_31">
      <g>
       <use style="stroke:#000000;stroke-width:0.5;" x="777.6" xlink:href="#md9a1c1a7cd" y="64.8"/>
      </g>
     </g>
     <g id="text_15">
      <!-- 160 -->
      <g transform="translate(83.21 68.11125)scale(0.12 -0.12)">
       <use xlink:href="#BitstreamVeraSans-Roman-31"/>
       <use x="63.623046875" xlink:href="#BitstreamVeraSans-Roman-36"/>
       <use x="127.24609375" xlink:href="#BitstreamVeraSans-Roman-30"/>
      </g>
     </g>
    </g>
    <g id="text_16">
     <!-- particle numbers -->
     <defs>
      <path d="
M56.2031 29.5938
L56.2031 25.2031
L14.8906 25.2031
Q15.4844 15.9219 20.4844 11.0625
Q25.4844 6.20312 34.4219 6.20312
Q39.5938 6.20312 44.4531 7.46875
Q49.3125 8.73438 54.1094 11.2812
L54.1094 2.78125
Q49.2656 0.734375 44.1875 -0.34375
Q39.1094 -1.42188 33.8906 -1.42188
Q20.7969 -1.42188 13.1562 6.1875
Q5.51562 13.8125 5.51562 26.8125
Q5.51562 40.2344 12.7656 48.1094
Q20.0156 56 32.3281 56
Q43.3594 56 49.7812 48.8906
Q56.2031 41.7969 56.2031 29.5938
M47.2188 32.2344
Q47.125 39.5938 43.0938 43.9844
Q39.0625 48.3906 32.4219 48.3906
Q24.9062 48.3906 20.3906 44.1406
Q15.875 39.8906 15.1875 32.1719
z
" id="BitstreamVeraSans-Roman-65"/>
      <path d="
M48.6875 27.2969
Q48.6875 37.2031 44.6094 42.8438
Q40.5312 48.4844 33.4062 48.4844
Q26.2656 48.4844 22.1875 42.8438
Q18.1094 37.2031 18.1094 27.2969
Q18.1094 17.3906 22.1875 11.75
Q26.2656 6.10938 33.4062 6.10938
Q40.5312 6.10938 44.6094 11.75
Q48.6875 17.3906 48.6875 27.2969
M18.1094 46.3906
Q20.9531 51.2656 25.2656 53.625
Q29.5938 56 35.5938 56
Q45.5625 56 51.7812 48.0938
Q58.0156 40.1875 58.0156 27.2969
Q58.0156 14.4062 51.7812 6.48438
Q45.5625 -1.42188 35.5938 -1.42188
Q29.5938 -1.42188 25.2656 0.953125
Q20.9531 3.32812 18.1094 8.20312
L18.1094 0
L9.07812 0
L9.07812 75.9844
L18.1094 75.9844
z
" id="BitstreamVeraSans-Roman-62"/>
      <path d="
M41.1094 46.2969
Q39.5938 47.1719 37.8125 47.5781
Q36.0312 48 33.8906 48
Q26.2656 48 22.1875 43.0469
Q18.1094 38.0938 18.1094 28.8125
L18.1094 0
L9.07812 0
L9.07812 54.6875
L18.1094 54.6875
L18.1094 46.1875
Q20.9531 51.1719 25.4844 53.5781
Q30.0312 56 36.5312 56
Q37.4531 56 38.5781 55.875
Q39.7031 55.7656 41.0625 55.5156
z
" id="BitstreamVeraSans-Roman-72"/>
      <path d="
M34.2812 27.4844
Q23.3906 27.4844 19.1875 25
Q14.9844 22.5156 14.9844 16.5
Q14.9844 11.7188 18.1406 8.90625
Q21.2969 6.10938 26.7031 6.10938
Q34.1875 6.10938 38.7031 11.4062
Q43.2188 16.7031 43.2188 25.4844
L43.2188 27.4844
z

M52.2031 31.2031
L52.2031 0
L43.2188 0
L43.2188 8.29688
Q40.1406 3.32812 35.5469 0.953125
Q30.9531 -1.42188 24.3125 -1.42188
Q15.9219 -1.42188 10.9531 3.29688
Q6 8.01562 6 15.9219
Q6 25.1406 12.1719 29.8281
Q18.3594 34.5156 30.6094 34.5156
L43.2188 34.5156
L43.2188 35.4062
Q43.2188 41.6094 39.1406 45
Q35.0625 48.3906 27.6875 48.3906
Q23 48.3906 18.5469 47.2656
Q14.1094 46.1406 10.0156 43.8906
L10.0156 52.2031
Q14.9375 54.1094 19.5781 55.0469
Q24.2188 56 28.6094 56
Q40.4844 56 46.3438 49.8438
Q52.2031 43.7031 52.2031 31.2031" id="BitstreamVeraSans-Roman-61"/>
      <path d="
M9.42188 54.6875
L18.4062 54.6875
L18.4062 0
L9.42188 0
z

M9.42188 75.9844
L18.4062 75.9844
L18.4062 64.5938
L9.42188 64.5938
z
" id="BitstreamVeraSans-Roman-69"/>
      <path d="
M54.8906 33.0156
L54.8906 0
L45.9062 0
L45.9062 32.7188
Q45.9062 40.4844 42.875 44.3281
Q39.8438 48.1875 33.7969 48.1875
Q26.5156 48.1875 22.3125 43.5469
Q18.1094 38.9219 18.1094 30.9062
L18.1094 0
L9.07812 0
L9.07812 54.6875
L18.1094 54.6875
L18.1094 46.1875
Q21.3438 51.125 25.7031 53.5625
Q30.0781 56 35.7969 56
Q45.2188 56 50.0469 50.1719
Q54.8906 44.3438 54.8906 33.0156" id="BitstreamVeraSans-Roman-6e"/>
      <path d="
M18.1094 8.20312
L18.1094 -20.7969
L9.07812 -20.7969
L9.07812 54.6875
L18.1094 54.6875
L18.1094 46.3906
Q20.9531 51.2656 25.2656 53.625
Q29.5938 56 35.5938 56
Q45.5625 56 51.7812 48.0938
Q58.0156 40.1875 58.0156 27.2969
Q58.0156 14.4062 51.7812 6.48438
Q45.5625 -1.42188 35.5938 -1.42188
Q29.5938 -1.42188 25.2656 0.953125
Q20.9531 3.32812 18.1094 8.20312
M48.6875 27.2969
Q48.6875 37.2031 44.6094 42.8438
Q40.5312 48.4844 33.4062 48.4844
Q26.2656 48.4844 22.1875 42.8438
Q18.1094 37.2031 18.1094 27.2969
Q18.1094 17.3906 22.1875 11.75
Q26.2656 6.10938 33.4062 6.10938
Q40.5312 6.10938 44.6094 11.75
Q48.6875 17.3906 48.6875 27.2969" id="BitstreamVeraSans-Roman-70"/>
      <path d="
M8.5 21.5781
L8.5 54.6875
L17.4844 54.6875
L17.4844 21.9219
Q17.4844 14.1562 20.5 10.2656
Q23.5312 6.39062 29.5938 6.39062
Q36.8594 6.39062 41.0781 11.0312
Q45.3125 15.6719 45.3125 23.6875
L45.3125 54.6875
L54.2969 54.6875
L54.2969 0
L45.3125 0
L45.3125 8.40625
Q42.0469 3.42188 37.7188 1
Q33.4062 -1.42188 27.6875 -1.42188
Q18.2656 -1.42188 13.375 4.4375
Q8.5 10.2969 8.5 21.5781" id="BitstreamVeraSans-Roman-75"/>
      <path d="
M9.42188 75.9844
L18.4062 75.9844
L18.4062 0
L9.42188 0
z
" id="BitstreamVeraSans-Roman-6c"/>
      <path d="
M48.7812 52.5938
L48.7812 44.1875
Q44.9688 46.2969 41.1406 47.3438
Q37.3125 48.3906 33.4062 48.3906
Q24.6562 48.3906 19.8125 42.8438
Q14.9844 37.3125 14.9844 27.2969
Q14.9844 17.2812 19.8125 11.7344
Q24.6562 6.20312 33.4062 6.20312
Q37.3125 6.20312 41.1406 7.25
Q44.9688 8.29688 48.7812 10.4062
L48.7812 2.09375
Q45.0156 0.34375 40.9844 -0.53125
Q36.9688 -1.42188 32.4219 -1.42188
Q20.0625 -1.42188 12.7812 6.34375
Q5.51562 14.1094 5.51562 27.2969
Q5.51562 40.6719 12.8594 48.3281
Q20.2188 56 33.0156 56
Q37.1562 56 41.1094 55.1406
Q45.0625 54.2969 48.7812 52.5938" id="BitstreamVeraSans-Roman-63"/>
     </defs>
     <g transform="translate(75.714375 374.78625)rotate(-90.0)scale(0.12 -0.12)">
      <use xlink:href="#BitstreamVeraSans-Roman-70"/>
      <use x="63.4765625" xlink:href="#BitstreamVeraSans-Roman-61"/>
      <use x="124.755859375" xlink:href="#BitstreamVeraSans-Roman-72"/>
      <use x="165.869140625" xlink:href="#BitstreamVeraSans-Roman-74"/>
      <use x="205.078125" xlink:href="#BitstreamVeraSans-Roman-69"/>
      <use x="232.861328125" xlink:href="#BitstreamVeraSans-Roman-63"/>
      <use x="287.841796875" xlink:href="#BitstreamVeraSans-Roman-6c"/>
      <use x="315.625" xlink:href="#BitstreamVeraSans-Roman-65"/>
      <use x="377.1484375" xlink:href="#BitstreamVeraSans-Roman-20"/>
      <use x="408.935546875" xlink:href="#BitstreamVeraSans-Roman-6e"/>
      <use x="472.314453125" xlink:href="#BitstreamVeraSans-Roman-75"/>
      <use x="535.693359375" xlink:href="#BitstreamVeraSans-Roman-6d"/>
      <use x="633.10546875" xlink:href="#BitstreamVeraSans-Roman-62"/>
      <use x="696.58203125" xlink:href="#BitstreamVeraSans-Roman-65"/>
      <use x="758.10546875" xlink:href="#BitstreamVeraSans-Roman-72"/>
      <use x="799.21875" xlink:href="#BitstreamVeraSans-Roman-73"/>
     </g>
    </g>
   </g>
   <g id="legend_1">
    <g id="patch_7">
     <path d="
M696.824 101.224
L774.1 101.224
L774.1 68.3
L696.824 68.3
z
" style="fill:#ffffff;stroke:#000000;stroke-linejoin:miter;"/>
    </g>
    <g id="line2d_32">
     <path d="
M701.724 73.9689
L711.524 73.9689" style="fill:none;stroke:#ff0000;stroke-linecap:square;"/>
    </g>
    <g id="line2d_33"/>
    <g id="text_17">
     <!-- PDE2cAMP el.0 -->
     <defs>
      <path d="
M9.8125 72.9062
L24.5156 72.9062
L43.1094 23.2969
L61.8125 72.9062
L76.5156 72.9062
L76.5156 0
L66.8906 0
L66.8906 64.0156
L48.0938 14.0156
L38.1875 14.0156
L19.3906 64.0156
L19.3906 0
L9.8125 0
z
" id="BitstreamVeraSans-Roman-4d"/>
      <path d="
M10.6875 12.4062
L21 12.4062
L21 0
L10.6875 0
z
" id="BitstreamVeraSans-Roman-2e"/>
      <path d="
M19.6719 64.7969
L19.6719 8.10938
L31.5938 8.10938
Q46.6875 8.10938 53.6875 14.9375
Q60.6875 21.7812 60.6875 36.5312
Q60.6875 51.1719 53.6875 57.9844
Q46.6875 64.7969 31.5938 64.7969
z

M9.8125 72.9062
L30.0781 72.9062
Q51.2656 72.9062 61.1719 64.0938
Q71.0938 55.2812 71.0938 36.5312
Q71.0938 17.6719 61.125 8.82812
Q51.1719 0 30.0781 0
L9.8125 0
z
" id="BitstreamVeraSans-Roman-44"/>
      <path d="
M19.6719 64.7969
L19.6719 37.4062
L32.0781 37.4062
Q38.9688 37.4062 42.7188 40.9688
Q46.4844 44.5312 46.4844 51.125
Q46.4844 57.6719 42.7188 61.2344
Q38.9688 64.7969 32.0781 64.7969
z

M9.8125 72.9062
L32.0781 72.9062
Q44.3438 72.9062 50.6094 67.3594
Q56.8906 61.8125 56.8906 51.125
Q56.8906 40.3281 50.6094 34.8125
Q44.3438 29.2969 32.0781 29.2969
L19.6719 29.2969
L19.6719 0
L9.8125 0
z
" id="BitstreamVeraSans-Roman-50"/>
      <path d="
M34.1875 63.1875
L20.7969 26.9062
L47.6094 26.9062
z

M28.6094 72.9062
L39.7969 72.9062
L67.5781 0
L57.3281 0
L50.6875 18.7031
L17.8281 18.7031
L11.1875 0
L0.78125 0
z
" id="BitstreamVeraSans-Roman-41"/>
      <path d="
M9.8125 72.9062
L55.9062 72.9062
L55.9062 64.5938
L19.6719 64.5938
L19.6719 43.0156
L54.3906 43.0156
L54.3906 34.7188
L19.6719 34.7188
L19.6719 8.29688
L56.7812 8.29688
L56.7812 0
L9.8125 0
z
" id="BitstreamVeraSans-Roman-45"/>
     </defs>
     <g transform="translate(719.224375 76.41890625)scale(0.07 -0.07)">
      <use xlink:href="#BitstreamVeraSans-Roman-50"/>
      <use x="60.302734375" xlink:href="#BitstreamVeraSans-Roman-44"/>
      <use x="137.3046875" xlink:href="#BitstreamVeraSans-Roman-45"/>
      <use x="200.48828125" xlink:href="#BitstreamVeraSans-Roman-32"/>
      <use x="264.111328125" xlink:href="#BitstreamVeraSans-Roman-63"/>
      <use x="319.091796875" xlink:href="#BitstreamVeraSans-Roman-41"/>
      <use x="387.5" xlink:href="#BitstreamVeraSans-Roman-4d"/>
      <use x="473.779296875" xlink:href="#BitstreamVeraSans-Roman-50"/>
      <use x="534.08203125" xlink:href="#BitstreamVeraSans-Roman-20"/>
      <use x="565.869140625" xlink:href="#BitstreamVeraSans-Roman-65"/>
      <use x="627.392578125" xlink:href="#BitstreamVeraSans-Roman-6c"/>
      <use x="655.17578125" xlink:href="#BitstreamVeraSans-Roman-2e"/>
      <use x="686.962890625" xlink:href="#BitstreamVeraSans-Roman-30"/>
     </g>
    </g>
    <g id="line2d_34">
     <path d="
M701.724 84.2436
L711.524 84.2436" style="fill:none;stroke:#008000;stroke-linecap:square;"/>
    </g>
    <g id="line2d_35"/>
    <g id="text_18">
     <!-- PDE2cAMP el.1 -->
     <g transform="translate(719.224375 86.69359375)scale(0.07 -0.07)">
      <use xlink:href="#BitstreamVeraSans-Roman-50"/>
      <use x="60.302734375" xlink:href="#BitstreamVeraSans-Roman-44"/>
      <use x="137.3046875" xlink:href="#BitstreamVeraSans-Roman-45"/>
      <use x="200.48828125" xlink:href="#BitstreamVeraSans-Roman-32"/>
      <use x="264.111328125" xlink:href="#BitstreamVeraSans-Roman-63"/>
      <use x="319.091796875" xlink:href="#BitstreamVeraSans-Roman-41"/>
      <use x="387.5" xlink:href="#BitstreamVeraSans-Roman-4d"/>
      <use x="473.779296875" xlink:href="#BitstreamVeraSans-Roman-50"/>
      <use x="534.08203125" xlink:href="#BitstreamVeraSans-Roman-20"/>
      <use x="565.869140625" xlink:href="#BitstreamVeraSans-Roman-65"/>
      <use x="627.392578125" xlink:href="#BitstreamVeraSans-Roman-6c"/>
      <use x="655.17578125" xlink:href="#BitstreamVeraSans-Roman-2e"/>
      <use x="686.962890625" xlink:href="#BitstreamVeraSans-Roman-31"/>
     </g>
    </g>
    <g id="line2d_36">
     <path d="
M701.724 94.5183
L711.524 94.5183" style="fill:none;stroke:#0000ff;stroke-linecap:square;"/>
    </g>
    <g id="line2d_37"/>
    <g id="text_19">
     <!-- PDE2cAMP el.2 -->
     <g transform="translate(719.224375 96.96828125)scale(0.07 -0.07)">
      <use xlink:href="#BitstreamVeraSans-Roman-50"/>
      <use x="60.302734375" xlink:href="#BitstreamVeraSans-Roman-44"/>
      <use x="137.3046875" xlink:href="#BitstreamVeraSans-Roman-45"/>
      <use x="200.48828125" xlink:href="#BitstreamVeraSans-Roman-32"/>
      <use x="264.111328125" xlink:href="#BitstreamVeraSans-Roman-63"/>
      <use x="319.091796875" xlink:href="#BitstreamVeraSans-Roman-41"/>
      <use x="387.5" xlink:href="#BitstreamVeraSans-Roman-4d"/>
      <use x="473.779296875" xlink:href="#BitstreamVeraSans-Roman-50"/>
      <use x="534.08203125" xlink:href="#BitstreamVeraSans-Roman-20"/>
      <use x="565.869140625" xlink:href="#BitstreamVeraSans-Roman-65"/>
      <use x="627.392578125" xlink:href="#BitstreamVeraSans-Roman-6c"/>
      <use x="655.17578125" xlink:href="#BitstreamVeraSans-Roman-2e"/>
      <use x="686.962890625" xlink:href="#BitstreamVeraSans-Roman-32"/>
     </g>
    </g>
   </g>
  </g>
 </g>
 <defs>
  <clipPath id="p7ceb695115">
   <rect height="518.4" width="669.6" x="108.0" y="64.8"/>
  </clipPath>
 </defs>
</svg>
