<?xml version="1.0" encoding="utf-8" standalone="no"?>
<!DOCTYPE svg PUBLIC "-//W3C//DTD SVG 1.1//EN"
  "http://www.w3.org/Graphics/SVG/1.1/DTD/svg11.dtd">
<!-- Created with matplotlib (http://matplotlib.org/) -->
<svg height="648pt" version="1.1" viewBox="0 0 864 648" width="864pt" xmlns="http://www.w3.org/2000/svg" xmlns:xlink="http://www.w3.org/1999/xlink">
 <defs>
  <style type="text/css">
*{stroke-linecap:butt;stroke-linejoin:round;}
  </style>
 </defs>
 <g id="figure_1">
  <g id="patch_1">
   <path d="
M0 648
L864 648
L864 0
L0 0
z
" style="fill:#ffffff;"/>
  </g>
  <g id="axes_1">
   <g id="patch_2">
    <path d="
M108 583.2
L777.6 583.2
L777.6 64.8
L108 64.8
z
" style="fill:#ffffff;"/>
   </g>
   <g id="line2d_1">
    <path clip-path="url(#p7ceb695115)" d="
M108 582.595
L108.67 583.085
L110.009 583.171
L111.348 583.142
L112.018 583.027
L113.357 583.056
L114.696 582.941
L116.035 582.998
L117.374 582.97
L122.062 582.998
L122.731 582.826
L124.07 582.998
L124.74 582.768
L125.41 582.97
L126.749 582.941
L127.418 582.768
L128.758 582.941
L130.097 582.883
L131.436 582.97
L132.106 582.826
L134.784 582.97
L135.454 582.883
L136.123 583.056
L136.793 582.854
L138.132 582.998
L138.802 583.056
L139.471 582.768
L140.81 583.056
L141.48 582.97
L142.15 583.085
L142.819 582.71
L143.489 583.085
L144.158 582.797
L144.828 582.883
L145.498 582.797
L146.167 582.826
L146.837 582.97
L147.506 582.768
L148.846 582.97
L151.524 583.027
L152.194 582.826
L152.863 582.998
L153.533 582.854
L154.202 582.97
L154.872 582.883
L155.542 582.97
L156.211 582.883
L156.881 583.056
L157.55 582.682
L158.22 582.941
L162.238 582.883
L162.907 582.768
L163.577 582.797
L164.916 582.71
L166.255 582.998
L166.925 582.883
L167.594 583.027
L168.264 582.883
L168.934 582.912
L169.603 583.056
L170.273 583.027
L171.612 582.797
L172.282 582.883
L173.621 582.854
L174.96 582.768
L175.63 582.998
L176.299 582.97
L176.969 582.768
L177.638 583.056
L178.308 582.998
L179.647 582.739
L180.317 582.998
L182.326 582.826
L182.995 583.056
L183.665 582.797
L186.343 583.027
L187.013 582.941
L187.682 582.97
L188.352 582.826
L189.691 582.941
L190.361 582.71
L191.03 582.883
L192.37 582.97
L193.039 583.085
L193.709 582.854
L194.378 582.998
L195.048 583.027
L196.387 582.826
L197.057 583.027
L200.405 583.027
L201.074 582.854
L202.414 583.114
L203.083 582.883
L206.431 582.97
L207.77 583.056
L208.44 582.854
L209.11 582.883
L209.779 583.085
L210.449 583.085
L211.118 582.941
L213.797 582.998
L214.466 582.854
L215.136 582.97
L217.145 583.056
L217.814 582.826
L218.484 582.941
L221.832 582.883
L222.502 582.826
L223.171 582.97
L223.841 582.912
L225.18 583.085
L225.85 582.998
L226.519 583.085
L227.858 582.941
L228.528 583.085
L229.198 582.941
L229.867 582.912
L230.537 583.056
L233.885 582.998
L237.233 583.027
L237.902 583.171
L238.572 582.854
L240.581 583.056
L241.92 582.883
L242.59 583.056
L245.268 582.883
L245.938 583.027
L247.946 582.97
L248.616 582.912
L249.286 583.114
L249.955 583.085
L250.625 582.941
L252.634 583.114
L254.642 582.941
L255.312 582.998
L255.982 582.912
L256.651 583.027
L257.321 582.941
L258.66 583.027
L260.669 582.97
L261.338 582.912
L262.678 583.056
L263.347 582.797
L264.017 583.056
L266.695 583.056
L267.365 582.854
L268.034 583.056
L268.704 582.998
L270.043 583.085
L270.713 582.854
L272.052 583.114
L272.722 582.941
L273.391 582.912
L274.061 583.056
L277.409 582.97
L278.078 583.114
L279.418 582.941
L280.087 583.114
L281.426 582.97
L282.096 583.171
L283.435 583.027
L284.105 583.142
L284.774 583.027
L294.818 583.056
L296.158 583.2
L296.827 583.114
L297.497 583.142
L298.836 582.912
L299.506 583.142
L300.175 582.797
L301.514 583.114
L302.854 583.027
L312.228 582.998
L312.898 583.2
L313.567 583.056
L314.237 583.114
L314.906 582.97
L315.576 583.056
L316.915 583.027
L317.585 583.142
L318.254 583.027
L319.594 583.085
L320.263 582.826
L321.602 583.114
L323.611 582.97
L327.629 583.056
L329.638 583.056
L342.36 582.998
L343.03 582.912
L344.369 582.998
L349.056 583.027
L349.726 583.142
L351.065 582.998
L353.074 583.142
L353.743 582.998
L354.413 583.142
L357.761 582.912
L358.43 583.085
L359.1 583.085
L359.77 582.941
L360.439 583.056
L363.787 583.114
L364.457 583.171
L365.796 582.97
L367.135 582.998
L369.144 583.056
L369.814 582.998
L371.153 583.171
L371.822 582.912
L372.492 583.171
L373.162 582.941
L373.831 583.085
L380.527 583.056
L381.197 582.97
L382.536 583.171
L386.554 583.085
L387.893 583.114
L399.276 583.056
L399.946 582.97
L400.615 583.114
L412.668 583.085
L413.338 582.941
L414.007 583.085
L422.042 583.171
L422.712 582.97
L423.382 583.171
L426.06 583.027
L426.73 583.114
L427.399 583.056
L429.408 583.142
L431.417 583.142
L432.086 583.027
L432.756 583.114
L434.765 583.114
L436.774 583.171
L437.443 583.056
L438.782 583.142
L439.452 583.027
L440.791 583.171
L441.461 583.114
L442.8 583.171
L443.47 583.027
L444.139 582.077
L445.478 577.67
L446.148 574.186
L446.818 571.68
L450.166 552.528
L450.835 551.923
L451.505 546.048
L452.174 542.765
L452.844 538.502
L453.514 536.314
L455.522 522.23
L456.192 518.746
L456.862 512.87
L457.531 508.781
L458.201 502.272
L458.87 499.968
L459.54 498.096
L460.21 492.307
L460.879 488.218
L461.549 480.874
L462.218 483.754
L462.888 478.253
L463.558 474.71
L464.227 470.189
L465.566 467.51
L466.236 470.563
L466.906 463.018
L467.575 465.408
L468.245 462.672
L468.914 462.528
L469.584 463.997
L470.254 468.058
L470.923 465.293
L471.593 467.395
L472.262 466.963
L472.932 472.003
L473.602 470.88
L474.271 470.909
L474.941 472.147
L475.61 475.69
L476.28 475.2
L476.95 479.952
L477.619 480.355
L478.958 483.84
L479.628 485.194
L480.298 486
L480.967 489.542
L481.637 489.485
L482.306 491.126
L482.976 493.891
L483.646 493.661
L484.315 495.216
L484.985 500.688
L485.654 497.837
L486.324 502.33
L486.994 502.387
L487.663 501.149
L488.333 506.592
L489.002 504.778
L489.672 510.941
L490.342 508.723
L491.011 510.106
L491.681 511.2
L492.35 509.386
L493.02 510.595
L493.69 510.509
L494.359 512.381
L495.029 513.85
L495.698 513.648
L496.368 512.294
L497.038 514.944
L497.707 514.022
L498.377 516.413
L499.046 514.368
L499.716 515.261
L501.725 519.782
L502.394 522.288
L503.064 518.832
L503.734 518.918
L504.403 522
L505.073 523.613
L505.742 523.066
L506.412 521.136
L507.082 524.621
L507.751 524.189
L508.421 524.995
L509.09 521.654
L509.76 525.514
L510.43 523.152
L511.099 526.234
L511.769 525.485
L512.438 527.962
L513.108 526.435
L513.778 527.558
L514.447 527.933
L515.117 528.624
L515.786 529.603
L516.456 528.365
L517.126 528.278
L517.795 528.538
L518.465 532.627
L519.134 530.813
L520.474 530.352
L521.143 531.475
L521.813 529.92
L522.482 533.117
L523.152 534.24
L523.822 533.002
L524.491 530.842
L525.161 531.475
L525.83 533.405
L526.5 531.475
L527.17 533.981
L527.839 531.274
L528.509 532.166
L529.178 534.701
L529.848 535.882
L530.518 531.85
L531.187 534.01
L531.857 534.125
L532.526 534.038
L533.866 532.886
L534.535 534.557
L535.205 534.845
L535.874 533.203
L536.544 534.96
L537.214 534.24
L537.883 534.326
L538.553 532.973
L539.222 533.606
L539.892 534.038
L540.562 533.837
L541.231 535.104
L541.901 532.8
L542.57 533.232
L543.24 535.018
L543.91 535.392
L544.579 534.586
L545.249 535.133
L545.918 536.083
L546.588 534.298
L547.258 533.549
L547.927 534.182
L548.597 533.261
L549.266 534.47
L549.936 534.298
L550.606 535.248
L551.275 534.182
L551.945 533.635
L552.614 536.256
L553.284 534.355
L553.954 538.042
L554.623 536.054
L555.293 537.696
L555.962 536.371
L556.632 536.486
L557.302 538.531
L557.971 537.12
L558.641 537.955
L559.31 537.581
L559.98 537.379
L560.65 540.49
L561.319 538.675
L561.989 540.058
L562.658 539.626
L563.328 538.934
L563.998 539.683
L564.667 538.301
L565.337 538.963
L566.006 539.05
L566.676 540.634
L567.346 540.806
L568.015 540.634
L568.685 540.691
L569.354 541.066
L570.024 539.741
L570.694 544.608
L571.363 542.563
L572.033 542.822
L572.702 544.234
L573.372 545.299
L574.042 545.443
L574.711 544.234
L575.381 544.723
L576.05 544.349
L577.39 543.773
L578.059 545.702
L578.729 545.04
L579.398 546.048
L580.068 548.669
L580.738 548.208
L581.407 547.373
L582.077 547.92
L582.746 549.965
L583.416 549.302
L584.086 550.973
L585.425 551.002
L586.094 549.101
L587.434 550.454
L588.103 550.051
L588.773 551.606
L589.442 552.211
L590.112 552.413
L590.782 552.989
L592.121 551.146
L592.79 552.038
L594.13 552.816
L594.799 552.038
L595.469 551.75
L596.138 553.536
L596.808 552.442
L597.478 552.614
L598.147 551.693
L598.817 552.931
L599.486 553.219
L600.156 552.816
L600.826 552.787
L602.165 555.782
L602.834 554.227
L603.504 554.515
L604.174 554.083
L604.843 555.696
L605.513 555.725
L606.182 557.222
L606.852 555.264
L607.522 556.128
L608.191 556.704
L608.861 556.013
L609.53 555.61
L610.2 557.856
L610.87 556.733
L611.539 558.288
L612.209 557.568
L612.878 558.634
L613.548 560.563
L614.218 559.958
L614.887 559.814
L615.557 559.354
L616.226 558.634
L617.566 559.555
L618.235 560.88
L618.905 559.987
L619.574 560.938
L620.244 560.736
L620.914 559.555
L621.583 558.864
L622.253 559.354
L622.922 561.197
L623.592 560.678
L624.262 560.851
L624.931 561.715
L625.601 560.65
L626.27 562.349
L626.94 560.938
L627.61 561.456
L628.279 560.736
L628.949 561.744
L629.618 561.917
L630.288 561.686
L630.958 562.781
L631.627 562.32
L632.297 561.427
L632.966 563.04
L634.306 562.435
L634.975 563.126
L635.645 563.242
L636.314 561.974
L636.984 563.011
L637.654 565.114
L638.323 562.925
L638.993 562.579
L639.662 564.394
L640.332 563.645
L641.002 564.221
L641.671 562.954
L642.341 564.25
L643.01 563.443
L643.68 563.069
L645.019 564.134
L645.689 563.069
L646.358 563.558
L647.028 563.213
L647.698 565.027
L648.367 564.106
L649.037 565.574
L649.706 564.566
L650.376 564.048
L651.046 564.106
L651.715 564.451
L652.385 565.344
L653.054 565.344
L653.724 564.566
L654.394 564.854
L655.733 563.76
L656.402 565.286
L657.072 566.237
L657.742 565.286
L658.411 565.603
L659.081 564.624
L659.75 565.114
L660.42 566.698
L661.09 564.97
L661.759 565.286
L662.429 566.698
L663.098 566.611
L663.768 565.661
L664.438 567.389
L665.777 565.978
L666.446 565.459
L667.116 567.994
L667.786 567.274
L668.455 566.15
L669.125 567.706
L669.794 567.763
L670.464 568.454
L671.134 567.101
L671.803 567.85
L672.473 568.109
L673.142 569.03
L673.812 568.022
L674.482 568.397
L675.151 568.454
L675.821 569.606
L676.49 568.8
L677.16 569.405
L677.83 569.376
L679.169 569.635
L679.838 569.549
L680.508 569.318
L681.178 570.787
L681.847 570.298
L682.517 569.434
L683.186 571.421
L683.856 570.125
L684.526 570.499
L685.195 570.298
L685.865 569.923
L686.534 571.219
L687.204 571.853
L687.874 571.075
L688.543 570.874
L689.213 572.256
L689.882 571.651
L690.552 572.083
L691.222 572.89
L691.891 572.89
L692.561 572.026
L693.9 572.141
L694.57 571.997
L695.239 572.63
L695.909 572.458
L696.578 572.4
L697.248 573.178
L697.918 572.861
L699.257 573.523
L699.926 573.696
L700.596 572.89
L701.266 573.408
L702.605 573.206
L703.274 573.293
L703.944 572.602
L704.614 573.84
L705.283 572.63
L705.953 573.696
L706.622 574.301
L707.292 573.984
L707.962 574.128
L708.631 573.638
L709.301 573.35
L709.97 574.416
L710.64 574.646
L711.31 575.107
L711.979 573.61
L712.649 574.963
L713.318 574.502
L713.988 575.222
L714.658 575.222
L715.997 574.675
L716.666 575.683
L717.336 573.955
L718.675 575.482
L719.345 575.366
L720.014 576.518
L720.684 575.683
L721.354 575.626
L722.023 576.058
L722.693 576.691
L723.362 576.806
L724.702 576.346
L725.371 576.461
L726.041 576.835
L726.71 576.518
L727.38 577.613
L728.719 576.576
L729.389 577.843
L730.058 576.893
L730.728 577.037
L731.398 577.354
L732.067 577.498
L732.737 577.267
L733.406 576.634
L734.746 577.786
L735.415 577.152
L736.085 577.728
L736.754 577.44
L737.424 578.131
L738.094 577.67
L738.763 577.843
L739.433 577.613
L740.102 578.333
L740.772 577.037
L741.442 577.094
L742.111 577.872
L742.781 578.333
L743.45 578.563
L744.12 578.16
L744.79 578.131
L745.459 578.218
L746.129 577.958
L746.798 579.024
L747.468 578.65
L748.138 578.794
L748.807 578.016
L749.477 578.362
L750.146 579.053
L750.816 578.938
L751.486 578.218
L752.155 578.736
L752.825 578.333
L754.164 578.794
L754.834 578.88
L755.503 579.629
L756.173 579.456
L756.842 578.938
L757.512 579.226
L758.182 579.11
L758.851 578.621
L759.521 579.082
L760.19 578.102
L760.86 578.966
L761.53 578.563
L762.199 579.658
L762.869 579.917
L764.208 579.139
L764.878 579.427
L765.547 579.514
L766.217 579.398
L766.886 579.802
L767.556 579.312
L768.226 579.802
L768.895 579.514
L769.565 579.917
L770.234 580.118
L770.904 579.427
L771.574 579.485
L772.243 579.917
L772.913 579.715
L773.582 579.888
L774.252 579.859
L774.922 579.514
L775.591 579.658
L776.261 580.061
L776.93 579.283
L777.6 580.032
L777.6 580.032" style="fill:none;stroke:#ff0000;stroke-linecap:square;"/>
   </g>
   <g id="line2d_2">
    <path clip-path="url(#p7ceb695115)" d="
M108 580.723
L108.67 582.595
L109.339 582.941
L110.678 583.085
L111.348 583.056
L112.018 582.826
L113.357 582.566
L114.026 582.394
L114.696 582.71
L116.035 582.163
L116.705 582.48
L117.374 582.106
L118.044 582.048
L118.714 582.163
L119.383 581.904
L120.053 581.962
L120.722 581.789
L121.392 581.875
L122.731 582.394
L123.401 581.962
L124.07 582.163
L124.74 582.221
L125.41 581.501
L126.079 581.875
L126.749 581.99
L127.418 582.278
L128.088 581.76
L128.758 581.962
L130.097 581.875
L130.766 582.048
L131.436 581.731
L132.775 582.307
L133.445 581.587
L134.114 581.933
L134.784 581.731
L135.454 582.019
L136.793 582.019
L137.462 582.077
L138.132 582.019
L138.802 582.307
L139.471 582.192
L140.141 581.846
L141.48 582.221
L143.489 581.904
L145.498 582.278
L146.837 582.077
L147.506 582.422
L148.176 582.192
L148.846 582.336
L150.854 582.077
L152.194 582.163
L152.863 581.702
L153.533 582.134
L154.202 581.99
L154.872 582.192
L155.542 581.789
L156.211 581.674
L156.881 582.134
L157.55 582.134
L158.22 582.25
L158.89 581.933
L159.559 581.818
L160.229 581.443
L160.898 582.278
L161.568 582.221
L162.238 581.76
L162.907 581.933
L163.577 581.846
L164.246 581.933
L164.916 582.192
L165.586 582.192
L166.255 582.077
L166.925 582.106
L168.264 582.422
L168.934 582.106
L169.603 581.99
L170.273 582.365
L171.612 582.077
L172.951 582.307
L173.621 581.99
L174.29 582.25
L174.96 582.106
L175.63 582.192
L176.299 582.134
L177.638 582.509
L178.308 582.077
L178.978 582.163
L179.647 582.019
L180.317 582.394
L180.986 582.134
L181.656 582.163
L182.326 582.653
L182.995 582.048
L183.665 582.221
L184.334 582.595
L185.004 582.307
L185.674 582.221
L186.343 582.278
L187.013 582.509
L187.682 582.221
L188.352 582.192
L189.022 582.394
L189.691 581.818
L190.361 581.702
L191.03 582.077
L191.7 582.25
L193.039 582.077
L194.378 582.221
L195.048 582.106
L195.718 582.134
L196.387 582.278
L197.057 581.99
L197.726 582.048
L198.396 582.278
L199.066 581.933
L199.735 582.365
L200.405 582.422
L202.414 581.875
L203.083 582.221
L203.753 582.221
L204.422 582.048
L205.092 582.019
L206.431 582.422
L207.101 582.106
L208.44 582.451
L209.11 582.422
L209.779 582.134
L210.449 582.336
L211.788 582.365
L212.458 582.192
L213.127 582.509
L213.797 582.48
L215.136 582.192
L215.806 581.875
L217.145 582.336
L217.814 581.99
L218.484 582.221
L220.493 582.365
L221.162 582.019
L221.832 582.278
L223.171 582.365
L223.841 582.566
L224.51 582.365
L225.85 582.451
L226.519 582.192
L227.189 582.077
L227.858 582.307
L228.528 582.106
L229.198 582.163
L229.867 582.538
L230.537 582.653
L231.876 582.682
L232.546 582.48
L233.885 582.595
L235.224 582.25
L235.894 582.538
L236.563 582.365
L237.233 582.71
L237.902 582.394
L238.572 582.71
L239.911 582.365
L240.581 582.307
L241.25 582.71
L241.92 582.278
L242.59 582.221
L243.259 582.538
L243.929 582.394
L244.598 582.394
L245.268 582.509
L245.938 582.365
L246.607 582.566
L247.946 582.422
L248.616 582.019
L249.286 582.509
L251.294 582.422
L251.964 582.365
L252.634 582.163
L253.303 582.278
L254.642 582.739
L255.312 582.538
L255.982 582.566
L256.651 582.394
L257.99 582.509
L258.66 582.192
L259.33 582.566
L259.999 582.566
L260.669 582.394
L262.008 582.48
L263.347 582.538
L264.017 582.163
L264.686 582.25
L265.356 582.221
L266.695 582.48
L267.365 582.365
L268.704 582.624
L269.374 582.422
L270.043 582.394
L271.382 582.653
L272.052 582.653
L272.722 582.307
L273.391 582.25
L274.061 582.394
L275.4 582.48
L276.07 582.336
L276.739 582.451
L277.409 582.394
L278.078 582.566
L278.748 582.163
L280.087 582.394
L280.757 582.422
L281.426 582.595
L282.096 582.624
L282.766 582.307
L283.435 582.595
L284.105 582.48
L284.774 582.682
L285.444 582.278
L286.114 582.566
L287.453 582.48
L288.792 582.653
L289.462 582.48
L290.131 582.595
L290.801 582.422
L291.47 582.422
L292.14 582.653
L293.479 582.653
L294.149 582.48
L294.818 582.451
L295.488 582.71
L296.158 582.653
L296.827 582.394
L298.166 582.595
L298.836 582.566
L299.506 582.422
L300.845 582.538
L301.514 582.422
L304.862 582.48
L305.532 582.278
L306.202 582.739
L306.871 582.71
L307.541 582.48
L309.55 582.71
L310.889 582.538
L311.558 582.797
L312.228 582.566
L312.898 582.595
L313.567 582.768
L314.237 582.566
L315.576 582.71
L316.246 582.624
L316.915 582.71
L317.585 582.624
L318.254 582.394
L318.924 582.538
L320.933 582.394
L321.602 582.653
L322.272 582.71
L324.95 582.509
L326.29 582.883
L327.629 582.595
L328.298 582.71
L328.968 582.682
L329.638 582.538
L330.977 582.739
L332.986 582.48
L333.655 582.653
L334.325 582.451
L334.994 582.826
L335.664 582.566
L336.334 582.682
L337.003 582.538
L337.673 582.797
L338.342 582.422
L339.012 582.653
L339.682 582.653
L340.351 582.509
L341.021 582.682
L341.69 582.71
L343.699 582.538
L344.369 582.624
L345.038 582.538
L346.378 582.739
L347.047 582.595
L347.717 582.797
L348.386 582.566
L349.056 582.768
L349.726 582.451
L350.395 582.653
L351.065 582.509
L351.734 582.509
L352.404 582.739
L355.082 582.25
L355.752 582.71
L356.422 582.566
L357.091 582.883
L357.761 582.509
L359.1 582.682
L359.77 582.653
L360.439 582.768
L361.778 582.566
L363.787 582.566
L364.457 582.739
L365.126 582.739
L365.796 582.394
L367.805 582.566
L369.144 582.595
L369.814 582.624
L370.483 582.797
L371.822 582.682
L372.492 582.509
L373.162 582.624
L373.831 582.883
L374.501 582.566
L375.17 582.566
L375.84 582.71
L376.51 582.566
L377.179 582.768
L377.849 582.566
L378.518 582.71
L379.188 582.624
L380.527 582.883
L381.866 582.883
L382.536 582.739
L385.884 582.826
L386.554 582.797
L387.223 582.912
L387.893 582.739
L389.232 582.912
L391.241 582.912
L391.91 582.998
L392.58 582.768
L393.25 582.883
L394.589 582.883
L395.258 582.538
L395.928 582.826
L396.598 582.71
L397.267 582.71
L397.937 582.595
L398.606 582.595
L399.276 582.797
L399.946 582.797
L400.615 582.566
L401.285 582.739
L401.954 582.768
L402.624 582.566
L403.294 582.739
L404.633 582.71
L405.302 582.912
L405.972 582.653
L407.311 582.912
L411.998 582.97
L412.668 582.682
L413.338 582.883
L414.677 582.912
L416.016 583.085
L416.686 582.941
L417.355 582.97
L418.025 582.883
L420.703 583.027
L421.373 582.883
L422.042 582.854
L422.712 582.998
L423.382 582.797
L424.051 582.941
L425.39 582.797
L426.73 583.085
L428.069 582.739
L429.408 582.97
L430.078 582.883
L430.747 582.998
L431.417 582.768
L432.756 582.739
L433.426 582.826
L434.095 582.797
L434.765 582.883
L435.434 582.768
L437.443 582.912
L438.113 583.027
L438.782 582.854
L439.452 583.114
L440.791 582.883
L442.13 582.941
L443.47 582.595
L444.139 579.686
L444.809 571.622
L446.148 549.072
L448.826 492.134
L451.505 436.925
L454.853 361.814
L455.522 339.811
L456.192 324.893
L457.531 286.214
L462.218 175.997
L464.897 138.557
L465.566 132.941
L466.236 120.413
L466.906 120.355
L467.575 114.97
L468.245 112.406
L468.914 111.629
L469.584 107.683
L470.254 105.034
L470.923 111.341
L471.593 116.093
L472.262 117.446
L472.932 117.763
L474.271 134.669
L474.941 142.589
L475.61 145.872
L476.28 155.779
L476.95 163.958
L477.619 168.941
L478.958 185.674
L479.628 189.994
L480.298 198.778
L480.967 197.597
L481.637 212.054
L482.306 212.112
L482.976 223.315
L484.315 238.925
L484.985 242.986
L485.654 252.374
L486.324 256.579
L486.994 263.952
L487.663 265.162
L489.002 280.397
L489.672 279.475
L490.342 284.17
L491.011 283.536
L492.35 293.702
L493.02 293.501
L493.69 297.504
L495.029 301.651
L497.038 309.946
L497.707 310.435
L498.377 313.142
L499.046 314.957
L499.716 324.864
L500.386 319.334
L501.055 323.453
L501.725 325.613
L502.394 326.909
L503.064 331.2
L503.734 333.533
L504.403 335.434
L505.073 333.302
L505.742 336.125
L506.412 345.802
L507.082 345.773
L507.751 343.152
L508.421 346.723
L509.09 346.291
L509.76 350.064
L510.43 352.397
L511.099 350.87
L511.769 353.606
L512.438 355.622
L513.108 360.317
L513.778 360.778
L514.447 362.707
L515.117 360.403
L515.786 365.242
L516.456 363.542
L517.126 366.307
L517.795 371.002
L518.465 368.813
L519.134 370.109
L519.804 371.722
L520.474 375.149
L521.143 374.918
L521.813 376.531
L522.482 374.486
L523.152 374.746
L523.822 378.317
L524.491 376.762
L525.161 381.139
L525.83 376.387
L526.5 381.024
L527.17 382.493
L527.839 382.781
L528.509 382.694
L529.178 384.394
L529.848 383.53
L530.518 388.483
L531.187 383.414
L531.857 383.731
L532.526 386.611
L533.196 384.739
L533.866 390.499
L534.535 388.598
L535.205 388.742
L535.874 387.965
L536.544 384.192
L537.214 385.114
L537.883 385.373
L538.553 388.598
L539.222 388.598
L539.892 389.318
L540.562 388.512
L541.231 387.389
L541.901 390.326
L542.57 384.422
L543.24 386.093
L543.91 386.726
L544.579 386.582
L545.249 390.96
L545.918 384.883
L546.588 386.208
L547.258 390.24
L547.927 385.459
L548.597 388.138
L549.266 388.771
L549.936 389.779
L550.606 389.981
L551.275 387.878
L551.945 393.264
L552.614 391.882
L553.284 397.498
L553.954 396.662
L554.623 397.469
L555.293 400.406
L555.962 401.789
L557.302 398.189
L557.971 402.826
L558.641 403.574
L559.98 405.936
L561.319 407.29
L561.989 406.512
L562.658 405.504
L563.998 411.034
L564.667 410.89
L565.337 410.515
L566.006 411.955
L566.676 412.531
L567.346 411.552
L568.015 415.93
L568.685 418.32
L569.354 417.514
L570.024 423.158
L570.694 421.402
L571.363 423.677
L572.033 423.216
L572.702 423.821
L573.372 430.013
L574.042 429.581
L574.711 428.688
L575.381 429.149
L576.05 429.437
L576.72 433.181
L577.39 435.37
L578.059 432.058
L579.398 438.682
L580.068 441.101
L580.738 441.648
L581.407 441.59
L582.077 445.68
L582.746 442.656
L583.416 444.24
L584.086 444.24
L584.755 448.618
L585.425 449.021
L586.094 453.226
L586.764 452.16
L587.434 450.23
L588.103 450.691
L588.773 452.765
L590.112 458.496
L590.782 462.586
L591.451 465.12
L592.121 464.861
L592.79 460.598
L593.46 462.067
L594.13 461.606
L594.799 463.594
L595.469 463.738
L596.138 461.491
L596.808 462.154
L597.478 463.046
L598.147 461.434
L598.817 461.52
L599.486 461.491
L600.156 464.688
L600.826 463.622
L601.495 464.659
L602.165 466.819
L602.834 471.542
L603.504 469.123
L604.174 468.518
L604.843 469.987
L605.513 472.666
L606.182 474.163
L606.852 473.53
L607.522 476.698
L608.191 474.566
L608.861 480.787
L609.53 477.274
L610.2 480.47
L610.87 481.104
L611.539 480.614
L612.209 485.51
L612.878 485.107
L613.548 488.707
L614.887 487.44
L615.557 488.246
L616.226 485.251
L616.896 488.189
L617.566 489.226
L618.235 490.723
L619.574 489.658
L620.244 492.019
L620.914 491.414
L621.583 491.674
L622.253 491.472
L622.922 492.077
L623.592 490.234
L624.262 490.061
L624.931 493.69
L625.601 494.813
L626.27 492.883
L626.94 493.229
L628.279 494.957
L628.949 496.138
L629.618 496.829
L630.288 499.594
L630.958 500.054
L631.627 501.754
L632.297 501.149
L632.966 498.989
L634.306 501.293
L634.975 500.918
L635.645 501.754
L636.314 504.576
L636.984 505.094
L637.654 504.403
L638.323 504.893
L638.993 506.448
L639.662 504.029
L640.332 504.95
L641.002 505.613
L641.671 505.555
L642.341 506.246
L643.01 504.374
L643.68 504.518
L645.689 507.254
L647.028 507.715
L647.698 506.995
L648.367 506.88
L649.037 505.987
L649.706 506.736
L650.376 508.205
L651.046 506.189
L651.715 508.954
L652.385 508.349
L653.054 509.184
L653.724 509.299
L654.394 508.522
L655.063 510.739
L655.733 510.307
L656.402 511.978
L657.072 511.171
L657.742 512.41
L658.411 512.554
L659.081 510.509
L659.75 512.467
L660.42 513.36
L661.09 512.41
L661.759 512.438
L663.098 515.318
L663.768 516.182
L664.438 513.158
L665.107 514.541
L665.777 517.536
L666.446 518.746
L667.116 517.478
L667.786 518.314
L668.455 520.762
L669.125 520.07
L669.794 519.955
L670.464 522.749
L671.134 522.058
L671.803 520.733
L672.473 522.403
L673.142 523.267
L673.812 524.448
L674.482 524.88
L675.821 527.011
L676.49 528.97
L677.16 526.838
L677.83 527.846
L679.169 528.998
L679.838 530.179
L680.508 528.624
L681.178 529.229
L681.847 530.208
L682.517 530.381
L683.186 531.216
L683.856 531.677
L684.526 531.36
L685.865 533.837
L686.534 532.714
L687.204 533.75
L688.543 537.61
L689.213 537.12
L689.882 536.054
L690.552 538.416
L691.222 538.099
L691.891 539.222
L692.561 539.885
L693.23 539.107
L693.9 539.222
L694.57 538.128
L695.239 538.042
L695.909 540.403
L696.578 542.074
L697.248 542.362
L697.918 540.835
L698.587 542.592
L699.257 543.197
L699.926 541.469
L700.596 543.802
L701.266 542.851
L701.935 543.456
L702.605 542.938
L703.274 542.707
L703.944 545.098
L704.614 543.658
L705.283 544.896
L705.953 544.608
L706.622 546.854
L707.292 545.558
L707.962 545.702
L709.301 548.323
L709.97 547.258
L710.64 549.043
L711.31 547.344
L711.979 549.59
L712.649 548.928
L713.988 550.195
L714.658 549.648
L715.327 549.821
L715.997 551.059
L716.666 550.512
L717.336 550.512
L718.006 550.627
L718.675 551.405
L720.014 553.939
L720.684 553.594
L721.354 553.766
L722.023 555.437
L722.693 554.803
L723.362 555.696
L724.032 556.992
L724.702 557.222
L725.371 557.914
L726.71 556.906
L727.38 557.28
L728.719 559.382
L730.058 556.589
L730.728 557.194
L731.398 558.778
L732.737 556.992
L733.406 558.605
L734.076 559.843
L734.746 560.39
L735.415 560.074
L736.085 558.634
L736.754 561.082
L737.424 559.987
L738.094 560.275
L738.763 560.39
L739.433 561.859
L740.102 561.542
L740.772 560.736
L741.442 562.003
L742.781 563.386
L743.45 563.27
L744.12 562.752
L744.79 563.04
L745.459 564.278
L746.129 564.71
L746.798 564.106
L747.468 564.912
L748.807 563.04
L749.477 564.768
L750.816 565.718
L751.486 565.027
L752.155 566.122
L752.825 564.48
L753.494 566.15
L754.164 565.805
L754.834 565.891
L755.503 565.459
L756.173 566.64
L756.842 566.237
L757.512 566.237
L758.182 565.747
L758.851 565.747
L759.521 566.381
L760.19 567.734
L760.86 566.813
L761.53 567.821
L762.199 568.368
L762.869 567.446
L764.208 568.397
L764.878 568.31
L765.547 567.36
L766.217 567.504
L766.886 568.627
L767.556 567.734
L768.226 569.059
L768.895 569.03
L769.565 569.578
L770.234 568.944
L770.904 569.866
L771.574 568.483
L772.243 567.821
L772.913 569.03
L773.582 570.499
L774.252 570.73
L774.922 569.866
L775.591 569.52
L776.261 569.981
L776.93 569.808
L777.6 569.29
L777.6 569.29" style="fill:none;stroke:#008000;stroke-linecap:square;"/>
   </g>
   <g id="line2d_3">
    <path clip-path="url(#p7ceb695115)" d="
M108 582.595
L108.67 583.056
L111.348 583.171
L113.357 582.998
L114.026 582.941
L115.366 583.027
L116.705 582.941
L117.374 583.056
L119.383 582.797
L120.053 582.97
L120.722 582.797
L121.392 582.941
L122.062 582.97
L122.731 582.854
L124.07 582.826
L125.41 582.682
L126.749 582.998
L127.418 582.797
L128.088 582.941
L130.097 582.768
L130.766 582.912
L131.436 582.912
L132.106 583.056
L132.775 582.768
L133.445 582.941
L134.784 582.883
L135.454 582.768
L136.123 582.97
L136.793 582.97
L137.462 582.653
L138.132 582.998
L138.802 582.854
L139.471 582.941
L140.81 582.854
L141.48 583.056
L142.819 582.595
L144.158 582.912
L144.828 582.739
L145.498 582.883
L151.524 582.941
L152.194 582.739
L152.863 582.941
L156.881 582.682
L157.55 582.941
L158.22 582.854
L158.89 583.056
L160.229 582.854
L160.898 582.854
L161.568 583.027
L162.907 582.768
L164.246 582.883
L164.916 582.682
L165.586 582.941
L166.255 582.768
L168.934 582.998
L170.273 582.854
L170.942 582.768
L171.612 582.97
L172.282 582.854
L174.96 582.912
L175.63 582.883
L176.299 582.998
L176.969 582.854
L178.308 582.826
L178.978 582.941
L184.334 583.027
L185.004 583.114
L186.343 582.883
L187.682 582.97
L188.352 583.027
L189.691 582.797
L190.361 582.998
L191.7 582.826
L192.37 583.027
L193.039 582.854
L194.378 583.056
L197.057 582.912
L197.726 583.114
L198.396 582.854
L200.405 582.797
L201.074 583.085
L202.414 582.998
L205.092 582.941
L206.431 582.97
L208.44 582.883
L209.779 583.056
L210.449 582.912
L212.458 583.056
L213.127 582.998
L214.466 583.114
L215.136 582.912
L216.475 583.114
L217.814 582.883
L219.154 583.142
L219.823 582.941
L221.832 582.941
L222.502 582.768
L223.171 583.085
L225.18 583.085
L225.85 582.854
L227.189 583.056
L227.858 582.826
L228.528 582.998
L229.198 582.912
L229.867 583.027
L230.537 582.912
L231.206 583.085
L231.876 582.97
L234.554 583.056
L235.224 582.97
L236.563 583.085
L237.233 582.941
L238.572 583.142
L239.242 583.027
L241.92 583.056
L242.59 582.97
L243.259 582.998
L243.929 582.912
L244.598 583.056
L245.268 582.883
L247.277 582.998
L247.946 582.912
L248.616 583.142
L249.286 582.97
L250.625 583.114
L251.294 583.027
L251.964 583.056
L252.634 582.854
L253.303 582.854
L253.973 582.998
L255.312 583.027
L255.982 583.142
L256.651 582.912
L257.321 582.998
L257.99 582.912
L258.66 583.085
L259.33 582.854
L259.999 582.854
L261.338 583.142
L262.678 583.027
L263.347 582.912
L264.686 583.056
L265.356 583.114
L266.026 583.027
L266.695 583.085
L268.034 582.998
L269.374 583.142
L270.043 582.883
L270.713 583.142
L271.382 582.998
L272.052 583.085
L273.391 582.998
L274.73 583.085
L275.4 583.027
L276.07 583.085
L278.748 582.941
L279.418 583.085
L280.087 582.941
L280.757 583.142
L281.426 582.97
L284.774 583.056
L288.122 582.998
L292.14 583.027
L293.479 583.114
L294.818 582.97
L295.488 583.027
L296.158 582.97
L296.827 583.085
L300.175 583.027
L300.845 582.97
L301.514 583.027
L302.184 582.912
L302.854 583.114
L306.202 582.941
L306.871 583.142
L308.21 583.027
L308.88 582.998
L309.55 583.114
L313.567 583.027
L314.237 583.114
L315.576 583.027
L317.585 583.142
L318.254 582.998
L318.924 582.97
L320.263 583.085
L320.933 583.114
L321.602 582.998
L323.611 583.085
L324.281 582.912
L324.95 583.114
L326.959 582.97
L327.629 583.171
L328.968 583.056
L332.316 583.056
L332.986 582.912
L333.655 583.085
L334.325 582.912
L334.994 583.056
L335.664 583.085
L337.003 582.97
L338.342 583.027
L345.038 583.056
L345.708 583.142
L346.378 583.027
L347.047 583.085
L348.386 583.056
L350.395 583.056
L351.065 582.941
L351.734 583.142
L353.074 583.056
L355.752 583.142
L357.091 583.056
L357.761 583.114
L359.1 582.826
L359.77 583.142
L360.439 582.941
L361.109 583.085
L362.448 582.854
L363.118 583.027
L376.51 583.056
L377.179 583.142
L377.849 582.998
L379.858 583.085
L380.527 583.027
L381.866 583.2
L382.536 583.085
L383.875 583.056
L384.545 583.2
L385.884 582.998
L386.554 582.97
L387.223 583.114
L387.893 583.056
L389.232 583.114
L389.902 582.998
L390.571 583.142
L397.267 583.085
L398.606 582.912
L399.946 583.056
L400.615 583.114
L401.285 582.97
L407.311 583.142
L408.65 583.114
L412.668 583.171
L413.338 582.998
L414.007 583.142
L418.025 583.056
L420.034 583.171
L420.703 583.056
L424.721 583.142
L425.39 583.056
L426.73 583.142
L427.399 583.085
L428.738 583.142
L430.747 583.142
L443.47 583.085
L444.139 582.134
L444.809 580.752
L446.148 575.194
L447.487 566.928
L448.157 564.077
L448.826 558.979
L449.496 555.955
L450.166 553.709
L450.835 549.994
L451.505 547.632
L452.174 543.629
L452.844 538.416
L454.183 531.043
L454.853 526.061
L455.522 524.448
L456.192 516.384
L456.862 514.541
L457.531 507.11
L458.201 505.814
L459.54 494.064
L460.21 494.438
L460.879 488.678
L461.549 485.597
L462.218 480.931
L462.888 478.858
L463.558 475.344
L464.227 473.155
L464.897 468.835
L465.566 466.733
L466.236 466.358
L466.906 461.779
L467.575 463.709
L468.245 466.301
L468.914 466.013
L469.584 464.198
L470.254 467.482
L470.923 468.086
L471.593 465.379
L472.932 469.613
L473.602 468.403
L474.271 471.37
L474.941 472.003
L476.28 477.619
L476.95 478.022
L478.289 482.054
L478.958 481.536
L479.628 484.56
L480.298 484.474
L480.967 490.435
L481.637 489.254
L482.306 492.797
L482.976 490.09
L483.646 493.344
L484.315 495.562
L484.985 498.96
L485.654 499.018
L486.324 499.91
L486.994 502.214
L487.663 504.95
L488.333 502.992
L489.002 504.403
L489.672 508.925
L490.342 508.09
L491.011 508.867
L491.681 510.883
L492.35 508.925
L493.02 510.048
L493.69 511.517
L494.359 510.278
L495.029 515.002
L495.698 514.224
L496.368 514.57
L497.038 515.981
L498.377 517.45
L499.046 516.787
L499.716 513.907
L500.386 521.482
L501.055 521.021
L501.725 520.387
L502.394 519.264
L503.064 517.104
L503.734 520.848
L504.403 519.638
L505.073 523.296
L506.412 522.518
L507.082 522.374
L507.751 524.39
L508.421 522.461
L509.09 525.715
L509.76 525.11
L510.43 525.571
L511.099 527.933
L511.769 525.456
L512.438 526.406
L513.108 528.163
L513.778 527.789
L514.447 524.851
L515.117 528.394
L515.786 526.349
L516.456 529.056
L517.126 529.603
L517.795 530.755
L518.465 527.558
L519.134 531.59
L519.804 530.755
L520.474 531.187
L521.143 530.381
L521.813 530.928
L522.482 530.928
L523.152 530.698
L523.822 532.253
L524.491 532.598
L525.161 531.562
L525.83 533.462
L526.5 533.146
L527.17 531.302
L527.839 532.512
L528.509 533.29
L529.178 531.59
L529.848 534.01
L530.518 533.146
L531.857 536.573
L532.526 533.808
L533.196 532.829
L533.866 532.253
L534.535 534.125
L535.205 534.154
L535.874 532.886
L536.544 534.067
L537.214 533.434
L537.883 535.795
L538.553 535.363
L539.222 534.154
L539.892 534.326
L540.562 533.549
L541.231 535.594
L541.901 533.462
L542.57 535.162
L543.24 533.664
L543.91 534.442
L544.579 534.413
L545.249 531.965
L545.918 534.211
L546.588 535.219
L547.258 532.253
L547.927 535.104
L548.597 534.989
L549.936 532.886
L550.606 533.894
L551.275 533.606
L551.945 535.19
L552.614 535.104
L553.284 535.651
L553.954 534.931
L554.623 537.35
L555.962 535.766
L556.632 535.594
L557.302 536.63
L557.971 535.91
L558.641 537.984
L559.31 538.56
L559.98 536.746
L560.65 538.128
L561.319 541.44
L561.989 539.885
L562.658 539.366
L563.328 537.811
L563.998 537.984
L564.667 538.474
L565.337 539.654
L566.006 538.819
L566.676 538.618
L567.346 541.354
L568.015 541.094
L568.685 541.901
L569.354 544.118
L570.024 542.102
L570.694 542.448
L571.363 543.053
L572.033 544.81
L572.702 545.616
L573.372 543.341
L574.042 544.579
L574.711 544.349
L575.381 545.875
L576.05 544.838
L576.72 541.008
L577.39 545.818
L578.059 547.258
L578.729 548.035
L579.398 546.941
L580.068 547.056
L580.738 546.451
L581.407 547.056
L582.077 546.595
L582.746 549.158
L583.416 549.158
L584.086 550.224
L584.755 550.138
L585.425 550.166
L586.094 551.722
L586.764 550.166
L587.434 549.821
L588.103 550.886
L588.773 550.944
L589.442 551.549
L590.112 552.326
L591.451 553.334
L592.121 553.046
L592.79 551.981
L593.46 552.269
L594.13 553.363
L594.799 551.146
L595.469 553.45
L596.808 553.45
L597.478 552.902
L598.147 553.018
L598.817 553.45
L599.486 552.701
L600.156 551.232
L600.826 553.853
L601.495 554.429
L602.165 553.219
L602.834 553.046
L603.504 552.672
L604.174 555.466
L604.843 555.293
L605.513 554.89
L606.182 555.984
L606.852 556.445
L607.522 555.494
L608.191 558.202
L608.861 555.667
L609.53 557.827
L610.2 556.56
L610.87 559.498
L611.539 558.461
L612.209 557.77
L612.878 558.778
L613.548 558.518
L614.887 559.584
L615.557 558.806
L616.226 559.987
L616.896 560.822
L617.566 560.131
L618.235 558.893
L618.905 561.283
L619.574 559.238
L620.244 562.406
L621.583 560.16
L622.253 561.197
L622.922 561.456
L623.592 560.419
L624.262 560.794
L624.931 560.794
L625.601 560.333
L626.27 561.053
L626.94 561.082
L627.61 559.987
L628.279 560.707
L628.949 560.419
L630.288 562.32
L630.958 562.32
L631.627 561.83
L632.297 562.694
L632.966 562.666
L633.636 561.082
L634.306 561.514
L635.645 563.674
L636.314 563.472
L636.984 562.522
L637.654 561.341
L638.323 564.048
L638.993 563.386
L639.662 563.818
L640.332 563.328
L641.002 563.443
L641.671 562.694
L642.341 563.242
L643.01 563.155
L643.68 564.595
L644.35 564.192
L645.019 562.982
L645.689 563.904
L646.358 564.163
L647.028 563.558
L647.698 563.99
L648.367 564.826
L649.037 562.406
L649.706 564.826
L650.376 563.501
L651.046 564.048
L651.715 564.451
L652.385 563.53
L653.054 563.933
L653.724 563.587
L654.394 565.402
L655.063 566.237
L655.733 565.574
L656.402 565.69
L657.072 565.978
L657.742 563.962
L659.081 566.611
L659.75 565.114
L660.42 564.336
L661.09 565.171
L661.759 566.208
L662.429 565.056
L663.098 567.014
L663.768 565.142
L665.107 567.043
L665.777 566.467
L666.446 566.611
L667.116 566.208
L667.786 566.986
L668.455 567.101
L669.125 566.41
L669.794 567.475
L670.464 567.792
L671.134 568.598
L672.473 567.418
L673.142 568.483
L673.812 569.29
L674.482 569.088
L675.151 569.894
L675.821 569.117
L676.49 569.376
L677.16 570.067
L677.83 569.664
L678.499 568.8
L679.169 570.182
L679.838 569.664
L680.508 570.355
L681.178 569.462
L681.847 569.952
L683.856 570.24
L684.526 571.478
L685.195 570.586
L685.865 570.211
L686.534 571.334
L687.204 571.277
L687.874 571.968
L688.543 571.277
L689.213 570.874
L689.882 572.861
L690.552 572.515
L691.222 571.363
L691.891 571.277
L692.561 571.622
L693.23 572.256
L693.9 571.939
L694.57 572.285
L695.239 573.062
L695.909 572.602
L696.578 573.206
L697.248 573.264
L697.918 572.918
L698.587 573.811
L699.257 572.832
L699.926 573.61
L700.596 571.968
L701.935 573.725
L702.605 573.84
L703.274 571.997
L703.944 573.494
L704.614 572.774
L705.283 573.062
L705.953 573.869
L706.622 573.379
L707.292 572.602
L707.962 573.84
L708.631 574.704
L709.301 575.05
L709.97 575.741
L710.64 574.214
L711.31 575.309
L711.979 574.301
L712.649 574.186
L713.318 574.733
L713.988 574.243
L715.327 575.05
L715.997 575.827
L716.666 575.165
L718.006 574.906
L718.675 574.963
L719.345 575.338
L720.014 575.078
L720.684 575.338
L722.023 576.259
L722.693 576.115
L723.362 576.403
L724.032 576.49
L724.702 576.806
L725.371 576.461
L726.041 576.662
L726.71 576.288
L727.38 577.411
L728.05 576.576
L728.719 576.72
L729.389 576.374
L730.058 576.461
L730.728 576.288
L732.067 577.411
L732.737 576.72
L733.406 576.634
L734.076 577.037
L734.746 576.432
L735.415 577.21
L736.085 577.354
L736.754 577.325
L737.424 577.526
L738.763 578.275
L739.433 577.901
L740.102 577.699
L742.111 578.045
L743.45 577.613
L744.12 577.642
L744.79 578.39
L745.459 578.016
L746.129 577.987
L746.798 578.39
L747.468 578.074
L748.138 578.246
L749.477 578.419
L750.146 578.275
L751.486 578.678
L752.155 578.563
L752.825 579.456
L753.494 578.333
L754.834 579.312
L755.503 579.6
L756.173 578.65
L756.842 578.851
L757.512 578.074
L758.182 578.563
L758.851 578.074
L759.521 578.736
L760.19 579.139
L761.53 579.226
L762.199 579.427
L762.869 579.168
L763.538 579.312
L764.208 580.205
L764.878 579.082
L766.217 579.514
L766.886 579.11
L767.556 580.09
L768.226 579.341
L768.895 579.629
L769.565 579.168
L770.234 580.147
L770.904 579.283
L772.243 579.888
L772.913 580.147
L773.582 580.147
L774.252 579.802
L774.922 579.686
L775.591 579.83
L776.261 579.456
L776.93 579.83
L777.6 579.341
L777.6 579.341" style="fill:none;stroke:#0000ff;stroke-linecap:square;"/>
   </g>
   <g id="patch_3">
    <path d="
M108 583.2
L108 64.8" style="fill:none;stroke:#000000;stroke-linecap:square;stroke-linejoin:miter;"/>
   </g>
   <g id="patch_4">
    <path d="
M108 583.2
L777.6 583.2" style="fill:none;stroke:#000000;stroke-linecap:square;stroke-linejoin:miter;"/>
   </g>
   <g id="patch_5">
    <path d="
M108 64.8
L777.6 64.8" style="fill:none;stroke:#000000;stroke-linecap:square;stroke-linejoin:miter;"/>
   </g>
   <g id="patch_6">
    <path d="
M777.6 583.2
L777.6 64.8" style="fill:none;stroke:#000000;stroke-linecap:square;stroke-linejoin:miter;"/>
   </g>
   <g id="matplotlib.axis_1">
    <g id="xtick_1">
     <g id="line2d_4">
      <defs>
       <path d="
M0 0
L0 -4" id="mc7db9fdffb" style="stroke:#000000;stroke-width:0.5;"/>
      </defs>
      <g>
       <use style="stroke:#000000;stroke-width:0.5;" x="108.0" xlink:href="#mc7db9fdffb" y="583.2"/>
      </g>
     </g>
     <g id="line2d_5">
      <defs>
       <path d="
M0 0
L0 4" id="m5a7d422ac3" style="stroke:#000000;stroke-width:0.5;"/>
      </defs>
      <g>
       <use style="stroke:#000000;stroke-width:0.5;" x="108.0" xlink:href="#m5a7d422ac3" y="64.8"/>
      </g>
     </g>
     <g id="text_1">
      <!-- 0 -->
      <defs>
       <path d="
M31.7812 66.4062
Q24.1719 66.4062 20.3281 58.9062
Q16.5 51.4219 16.5 36.375
Q16.5 21.3906 20.3281 13.8906
Q24.1719 6.39062 31.7812 6.39062
Q39.4531 6.39062 43.2812 13.8906
Q47.125 21.3906 47.125 36.375
Q47.125 51.4219 43.2812 58.9062
Q39.4531 66.4062 31.7812 66.4062
M31.7812 74.2188
Q44.0469 74.2188 50.5156 64.5156
Q56.9844 54.8281 56.9844 36.375
Q56.9844 17.9688 50.5156 8.26562
Q44.0469 -1.42188 31.7812 -1.42188
Q19.5312 -1.42188 13.0625 8.26562
Q6.59375 17.9688 6.59375 36.375
Q6.59375 54.8281 13.0625 64.5156
Q19.5312 74.2188 31.7812 74.2188" id="BitstreamVeraSans-Roman-30"/>
      </defs>
      <g transform="translate(104.9765625 596.318125)scale(0.12 -0.12)">
       <use xlink:href="#BitstreamVeraSans-Roman-30"/>
      </g>
     </g>
    </g>
    <g id="xtick_2">
     <g id="line2d_6">
      <g>
       <use style="stroke:#000000;stroke-width:0.5;" x="275.4" xlink:href="#mc7db9fdffb" y="583.2"/>
      </g>
     </g>
     <g id="line2d_7">
      <g>
       <use style="stroke:#000000;stroke-width:0.5;" x="275.4" xlink:href="#m5a7d422ac3" y="64.8"/>
      </g>
     </g>
     <g id="text_2">
      <!-- 50000 -->
      <defs>
       <path d="
M10.7969 72.9062
L49.5156 72.9062
L49.5156 64.5938
L19.8281 64.5938
L19.8281 46.7344
Q21.9688 47.4688 24.1094 47.8281
Q26.2656 48.1875 28.4219 48.1875
Q40.625 48.1875 47.75 41.5
Q54.8906 34.8125 54.8906 23.3906
Q54.8906 11.625 47.5625 5.09375
Q40.2344 -1.42188 26.9062 -1.42188
Q22.3125 -1.42188 17.5469 -0.640625
Q12.7969 0.140625 7.71875 1.70312
L7.71875 11.625
Q12.1094 9.23438 16.7969 8.0625
Q21.4844 6.89062 26.7031 6.89062
Q35.1562 6.89062 40.0781 11.3281
Q45.0156 15.7656 45.0156 23.3906
Q45.0156 31 40.0781 35.4375
Q35.1562 39.8906 26.7031 39.8906
Q22.75 39.8906 18.8125 39.0156
Q14.8906 38.1406 10.7969 36.2812
z
" id="BitstreamVeraSans-Roman-35"/>
      </defs>
      <g transform="translate(257.1740625 596.318125)scale(0.12 -0.12)">
       <use xlink:href="#BitstreamVeraSans-Roman-35"/>
       <use x="63.623046875" xlink:href="#BitstreamVeraSans-Roman-30"/>
       <use x="127.24609375" xlink:href="#BitstreamVeraSans-Roman-30"/>
       <use x="190.869140625" xlink:href="#BitstreamVeraSans-Roman-30"/>
       <use x="254.4921875" xlink:href="#BitstreamVeraSans-Roman-30"/>
      </g>
     </g>
    </g>
    <g id="xtick_3">
     <g id="line2d_8">
      <g>
       <use style="stroke:#000000;stroke-width:0.5;" x="442.8" xlink:href="#mc7db9fdffb" y="583.2"/>
      </g>
     </g>
     <g id="line2d_9">
      <g>
       <use style="stroke:#000000;stroke-width:0.5;" x="442.8" xlink:href="#m5a7d422ac3" y="64.8"/>
      </g>
     </g>
     <g id="text_3">
      <!-- 100000 -->
      <defs>
       <path d="
M12.4062 8.29688
L28.5156 8.29688
L28.5156 63.9219
L10.9844 60.4062
L10.9844 69.3906
L28.4219 72.9062
L38.2812 72.9062
L38.2812 8.29688
L54.3906 8.29688
L54.3906 0
L12.4062 0
z
" id="BitstreamVeraSans-Roman-31"/>
      </defs>
      <g transform="translate(420.9525 596.318125)scale(0.12 -0.12)">
       <use xlink:href="#BitstreamVeraSans-Roman-31"/>
       <use x="63.623046875" xlink:href="#BitstreamVeraSans-Roman-30"/>
       <use x="127.24609375" xlink:href="#BitstreamVeraSans-Roman-30"/>
       <use x="190.869140625" xlink:href="#BitstreamVeraSans-Roman-30"/>
       <use x="254.4921875" xlink:href="#BitstreamVeraSans-Roman-30"/>
       <use x="318.115234375" xlink:href="#BitstreamVeraSans-Roman-30"/>
      </g>
     </g>
    </g>
    <g id="xtick_4">
     <g id="line2d_10">
      <g>
       <use style="stroke:#000000;stroke-width:0.5;" x="610.2" xlink:href="#mc7db9fdffb" y="583.2"/>
      </g>
     </g>
     <g id="line2d_11">
      <g>
       <use style="stroke:#000000;stroke-width:0.5;" x="610.2" xlink:href="#m5a7d422ac3" y="64.8"/>
      </g>
     </g>
     <g id="text_4">
      <!-- 150000 -->
      <g transform="translate(588.3525 596.318125)scale(0.12 -0.12)">
       <use xlink:href="#BitstreamVeraSans-Roman-31"/>
       <use x="63.623046875" xlink:href="#BitstreamVeraSans-Roman-35"/>
       <use x="127.24609375" xlink:href="#BitstreamVeraSans-Roman-30"/>
       <use x="190.869140625" xlink:href="#BitstreamVeraSans-Roman-30"/>
       <use x="254.4921875" xlink:href="#BitstreamVeraSans-Roman-30"/>
       <use x="318.115234375" xlink:href="#BitstreamVeraSans-Roman-30"/>
      </g>
     </g>
    </g>
    <g id="xtick_5">
     <g id="line2d_12">
      <g>
       <use style="stroke:#000000;stroke-width:0.5;" x="777.6" xlink:href="#mc7db9fdffb" y="583.2"/>
      </g>
     </g>
     <g id="line2d_13">
      <g>
       <use style="stroke:#000000;stroke-width:0.5;" x="777.6" xlink:href="#m5a7d422ac3" y="64.8"/>
      </g>
     </g>
     <g id="text_5">
      <!-- 200000 -->
      <defs>
       <path d="
M19.1875 8.29688
L53.6094 8.29688
L53.6094 0
L7.32812 0
L7.32812 8.29688
Q12.9375 14.1094 22.625 23.8906
Q32.3281 33.6875 34.8125 36.5312
Q39.5469 41.8438 41.4219 45.5312
Q43.3125 49.2188 43.3125 52.7812
Q43.3125 58.5938 39.2344 62.25
Q35.1562 65.9219 28.6094 65.9219
Q23.9688 65.9219 18.8125 64.3125
Q13.6719 62.7031 7.8125 59.4219
L7.8125 69.3906
Q13.7656 71.7812 18.9375 73
Q24.125 74.2188 28.4219 74.2188
Q39.75 74.2188 46.4844 68.5469
Q53.2188 62.8906 53.2188 53.4219
Q53.2188 48.9219 51.5312 44.8906
Q49.8594 40.875 45.4062 35.4062
Q44.1875 33.9844 37.6406 27.2188
Q31.1094 20.4531 19.1875 8.29688" id="BitstreamVeraSans-Roman-32"/>
      </defs>
      <g transform="translate(755.533125 596.318125)scale(0.12 -0.12)">
       <use xlink:href="#BitstreamVeraSans-Roman-32"/>
       <use x="63.623046875" xlink:href="#BitstreamVeraSans-Roman-30"/>
       <use x="127.24609375" xlink:href="#BitstreamVeraSans-Roman-30"/>
       <use x="190.869140625" xlink:href="#BitstreamVeraSans-Roman-30"/>
       <use x="254.4921875" xlink:href="#BitstreamVeraSans-Roman-30"/>
       <use x="318.115234375" xlink:href="#BitstreamVeraSans-Roman-30"/>
      </g>
     </g>
    </g>
    <g id="text_6">
     <!-- t / ms -->
     <defs>
      <path d="
M25.3906 72.9062
L33.6875 72.9062
L8.29688 -9.28125
L0 -9.28125
z
" id="BitstreamVeraSans-Roman-2f"/>
      <path d="
M44.2812 53.0781
L44.2812 44.5781
Q40.4844 46.5312 36.375 47.5
Q32.2812 48.4844 27.875 48.4844
Q21.1875 48.4844 17.8438 46.4375
Q14.5 44.3906 14.5 40.2812
Q14.5 37.1562 16.8906 35.375
Q19.2812 33.5938 26.5156 31.9844
L29.5938 31.2969
Q39.1562 29.25 43.1875 25.5156
Q47.2188 21.7812 47.2188 15.0938
Q47.2188 7.46875 41.1875 3.01562
Q35.1562 -1.42188 24.6094 -1.42188
Q20.2188 -1.42188 15.4531 -0.5625
Q10.6875 0.296875 5.42188 2
L5.42188 11.2812
Q10.4062 8.6875 15.2344 7.39062
Q20.0625 6.10938 24.8125 6.10938
Q31.1562 6.10938 34.5625 8.28125
Q37.9844 10.4531 37.9844 14.4062
Q37.9844 18.0625 35.5156 20.0156
Q33.0625 21.9688 24.7031 23.7812
L21.5781 24.5156
Q13.2344 26.2656 9.51562 29.9062
Q5.8125 33.5469 5.8125 39.8906
Q5.8125 47.6094 11.2812 51.7969
Q16.75 56 26.8125 56
Q31.7812 56 36.1719 55.2656
Q40.5781 54.5469 44.2812 53.0781" id="BitstreamVeraSans-Roman-73"/>
      <path id="BitstreamVeraSans-Roman-20"/>
      <path d="
M52 44.1875
Q55.375 50.25 60.0625 53.125
Q64.75 56 71.0938 56
Q79.6406 56 84.2812 50.0156
Q88.9219 44.0469 88.9219 33.0156
L88.9219 0
L79.8906 0
L79.8906 32.7188
Q79.8906 40.5781 77.0938 44.375
Q74.3125 48.1875 68.6094 48.1875
Q61.625 48.1875 57.5625 43.5469
Q53.5156 38.9219 53.5156 30.9062
L53.5156 0
L44.4844 0
L44.4844 32.7188
Q44.4844 40.625 41.7031 44.4062
Q38.9219 48.1875 33.1094 48.1875
Q26.2188 48.1875 22.1562 43.5312
Q18.1094 38.875 18.1094 30.9062
L18.1094 0
L9.07812 0
L9.07812 54.6875
L18.1094 54.6875
L18.1094 46.1875
Q21.1875 51.2188 25.4844 53.6094
Q29.7812 56 35.6875 56
Q41.6562 56 45.8281 52.9688
Q50 49.9531 52 44.1875" id="BitstreamVeraSans-Roman-6d"/>
      <path d="
M18.3125 70.2188
L18.3125 54.6875
L36.8125 54.6875
L36.8125 47.7031
L18.3125 47.7031
L18.3125 18.0156
Q18.3125 11.3281 20.1406 9.42188
Q21.9688 7.51562 27.5938 7.51562
L36.8125 7.51562
L36.8125 0
L27.5938 0
Q17.1875 0 13.2344 3.875
Q9.28125 7.76562 9.28125 18.0156
L9.28125 47.7031
L2.6875 47.7031
L2.6875 54.6875
L9.28125 54.6875
L9.28125 70.2188
z
" id="BitstreamVeraSans-Roman-74"/>
     </defs>
     <g transform="translate(425.9353125 612.931875)scale(0.12 -0.12)">
      <use xlink:href="#BitstreamVeraSans-Roman-74"/>
      <use x="39.208984375" xlink:href="#BitstreamVeraSans-Roman-20"/>
      <use x="70.99609375" xlink:href="#BitstreamVeraSans-Roman-2f"/>
      <use x="104.6875" xlink:href="#BitstreamVeraSans-Roman-20"/>
      <use x="136.474609375" xlink:href="#BitstreamVeraSans-Roman-6d"/>
      <use x="233.88671875" xlink:href="#BitstreamVeraSans-Roman-73"/>
     </g>
    </g>
   </g>
   <g id="matplotlib.axis_2">
    <g id="ytick_1">
     <g id="line2d_14">
      <defs>
       <path d="
M0 0
L4 0" id="md7965d1ba0" style="stroke:#000000;stroke-width:0.5;"/>
      </defs>
      <g>
       <use style="stroke:#000000;stroke-width:0.5;" x="108.0" xlink:href="#md7965d1ba0" y="583.2"/>
      </g>
     </g>
     <g id="line2d_15">
      <defs>
       <path d="
M0 0
L-4 0" id="md9a1c1a7cd" style="stroke:#000000;stroke-width:0.5;"/>
      </defs>
      <g>
       <use style="stroke:#000000;stroke-width:0.5;" x="777.6" xlink:href="#md9a1c1a7cd" y="583.2"/>
      </g>
     </g>
     <g id="text_7">
      <!-- 0 -->
      <g transform="translate(97.953125 586.51125)scale(0.12 -0.12)">
       <use xlink:href="#BitstreamVeraSans-Roman-30"/>
      </g>
     </g>
    </g>
    <g id="ytick_2">
     <g id="line2d_16">
      <g>
       <use style="stroke:#000000;stroke-width:0.5;" x="108.0" xlink:href="#md7965d1ba0" y="525.6"/>
      </g>
     </g>
     <g id="line2d_17">
      <g>
       <use style="stroke:#000000;stroke-width:0.5;" x="777.6" xlink:href="#md9a1c1a7cd" y="525.6"/>
      </g>
     </g>
     <g id="text_8">
      <!-- 2000 -->
      <g transform="translate(75.13625 528.91125)scale(0.12 -0.12)">
       <use xlink:href="#BitstreamVeraSans-Roman-32"/>
       <use x="63.623046875" xlink:href="#BitstreamVeraSans-Roman-30"/>
       <use x="127.24609375" xlink:href="#BitstreamVeraSans-Roman-30"/>
       <use x="190.869140625" xlink:href="#BitstreamVeraSans-Roman-30"/>
      </g>
     </g>
    </g>
    <g id="ytick_3">
     <g id="line2d_18">
      <g>
       <use style="stroke:#000000;stroke-width:0.5;" x="108.0" xlink:href="#md7965d1ba0" y="468.0"/>
      </g>
     </g>
     <g id="line2d_19">
      <g>
       <use style="stroke:#000000;stroke-width:0.5;" x="777.6" xlink:href="#md9a1c1a7cd" y="468.0"/>
      </g>
     </g>
     <g id="text_9">
      <!-- 4000 -->
      <defs>
       <path d="
M37.7969 64.3125
L12.8906 25.3906
L37.7969 25.3906
z

M35.2031 72.9062
L47.6094 72.9062
L47.6094 25.3906
L58.0156 25.3906
L58.0156 17.1875
L47.6094 17.1875
L47.6094 0
L37.7969 0
L37.7969 17.1875
L4.89062 17.1875
L4.89062 26.7031
z
" id="BitstreamVeraSans-Roman-34"/>
      </defs>
      <g transform="translate(74.84375 471.31125)scale(0.12 -0.12)">
       <use xlink:href="#BitstreamVeraSans-Roman-34"/>
       <use x="63.623046875" xlink:href="#BitstreamVeraSans-Roman-30"/>
       <use x="127.24609375" xlink:href="#BitstreamVeraSans-Roman-30"/>
       <use x="190.869140625" xlink:href="#BitstreamVeraSans-Roman-30"/>
      </g>
     </g>
    </g>
    <g id="ytick_4">
     <g id="line2d_20">
      <g>
       <use style="stroke:#000000;stroke-width:0.5;" x="108.0" xlink:href="#md7965d1ba0" y="410.4"/>
      </g>
     </g>
     <g id="line2d_21">
      <g>
       <use style="stroke:#000000;stroke-width:0.5;" x="777.6" xlink:href="#md9a1c1a7cd" y="410.4"/>
      </g>
     </g>
     <g id="text_10">
      <!-- 6000 -->
      <defs>
       <path d="
M33.0156 40.375
Q26.375 40.375 22.4844 35.8281
Q18.6094 31.2969 18.6094 23.3906
Q18.6094 15.5312 22.4844 10.9531
Q26.375 6.39062 33.0156 6.39062
Q39.6562 6.39062 43.5312 10.9531
Q47.4062 15.5312 47.4062 23.3906
Q47.4062 31.2969 43.5312 35.8281
Q39.6562 40.375 33.0156 40.375
M52.5938 71.2969
L52.5938 62.3125
Q48.875 64.0625 45.0938 64.9844
Q41.3125 65.9219 37.5938 65.9219
Q27.8281 65.9219 22.6719 59.3281
Q17.5312 52.7344 16.7969 39.4062
Q19.6719 43.6562 24.0156 45.9219
Q28.375 48.1875 33.5938 48.1875
Q44.5781 48.1875 50.9531 41.5156
Q57.3281 34.8594 57.3281 23.3906
Q57.3281 12.1562 50.6875 5.35938
Q44.0469 -1.42188 33.0156 -1.42188
Q20.3594 -1.42188 13.6719 8.26562
Q6.98438 17.9688 6.98438 36.375
Q6.98438 53.6562 15.1875 63.9375
Q23.3906 74.2188 37.2031 74.2188
Q40.9219 74.2188 44.7031 73.4844
Q48.4844 72.75 52.5938 71.2969" id="BitstreamVeraSans-Roman-36"/>
      </defs>
      <g transform="translate(75.095 413.71125)scale(0.12 -0.12)">
       <use xlink:href="#BitstreamVeraSans-Roman-36"/>
       <use x="63.623046875" xlink:href="#BitstreamVeraSans-Roman-30"/>
       <use x="127.24609375" xlink:href="#BitstreamVeraSans-Roman-30"/>
       <use x="190.869140625" xlink:href="#BitstreamVeraSans-Roman-30"/>
      </g>
     </g>
    </g>
    <g id="ytick_5">
     <g id="line2d_22">
      <g>
       <use style="stroke:#000000;stroke-width:0.5;" x="108.0" xlink:href="#md7965d1ba0" y="352.8"/>
      </g>
     </g>
     <g id="line2d_23">
      <g>
       <use style="stroke:#000000;stroke-width:0.5;" x="777.6" xlink:href="#md9a1c1a7cd" y="352.8"/>
      </g>
     </g>
     <g id="text_11">
      <!-- 8000 -->
      <defs>
       <path d="
M31.7812 34.625
Q24.75 34.625 20.7188 30.8594
Q16.7031 27.0938 16.7031 20.5156
Q16.7031 13.9219 20.7188 10.1562
Q24.75 6.39062 31.7812 6.39062
Q38.8125 6.39062 42.8594 10.1719
Q46.9219 13.9688 46.9219 20.5156
Q46.9219 27.0938 42.8906 30.8594
Q38.875 34.625 31.7812 34.625
M21.9219 38.8125
Q15.5781 40.375 12.0312 44.7188
Q8.5 49.0781 8.5 55.3281
Q8.5 64.0625 14.7188 69.1406
Q20.9531 74.2188 31.7812 74.2188
Q42.6719 74.2188 48.875 69.1406
Q55.0781 64.0625 55.0781 55.3281
Q55.0781 49.0781 51.5312 44.7188
Q48 40.375 41.7031 38.8125
Q48.8281 37.1562 52.7969 32.3125
Q56.7812 27.4844 56.7812 20.5156
Q56.7812 9.90625 50.3125 4.23438
Q43.8438 -1.42188 31.7812 -1.42188
Q19.7344 -1.42188 13.25 4.23438
Q6.78125 9.90625 6.78125 20.5156
Q6.78125 27.4844 10.7812 32.3125
Q14.7969 37.1562 21.9219 38.8125
M18.3125 54.3906
Q18.3125 48.7344 21.8438 45.5625
Q25.3906 42.3906 31.7812 42.3906
Q38.1406 42.3906 41.7188 45.5625
Q45.3125 48.7344 45.3125 54.3906
Q45.3125 60.0625 41.7188 63.2344
Q38.1406 66.4062 31.7812 66.4062
Q25.3906 66.4062 21.8438 63.2344
Q18.3125 60.0625 18.3125 54.3906" id="BitstreamVeraSans-Roman-38"/>
      </defs>
      <g transform="translate(75.070625 356.11125)scale(0.12 -0.12)">
       <use xlink:href="#BitstreamVeraSans-Roman-38"/>
       <use x="63.623046875" xlink:href="#BitstreamVeraSans-Roman-30"/>
       <use x="127.24609375" xlink:href="#BitstreamVeraSans-Roman-30"/>
       <use x="190.869140625" xlink:href="#BitstreamVeraSans-Roman-30"/>
      </g>
     </g>
    </g>
    <g id="ytick_6">
     <g id="line2d_24">
      <g>
       <use style="stroke:#000000;stroke-width:0.5;" x="108.0" xlink:href="#md7965d1ba0" y="295.2"/>
      </g>
     </g>
     <g id="line2d_25">
      <g>
       <use style="stroke:#000000;stroke-width:0.5;" x="777.6" xlink:href="#md9a1c1a7cd" y="295.2"/>
      </g>
     </g>
     <g id="text_12">
      <!-- 10000 -->
      <g transform="translate(67.94 298.51125)scale(0.12 -0.12)">
       <use xlink:href="#BitstreamVeraSans-Roman-31"/>
       <use x="63.623046875" xlink:href="#BitstreamVeraSans-Roman-30"/>
       <use x="127.24609375" xlink:href="#BitstreamVeraSans-Roman-30"/>
       <use x="190.869140625" xlink:href="#BitstreamVeraSans-Roman-30"/>
       <use x="254.4921875" xlink:href="#BitstreamVeraSans-Roman-30"/>
      </g>
     </g>
    </g>
    <g id="ytick_7">
     <g id="line2d_26">
      <g>
       <use style="stroke:#000000;stroke-width:0.5;" x="108.0" xlink:href="#md7965d1ba0" y="237.6"/>
      </g>
     </g>
     <g id="line2d_27">
      <g>
       <use style="stroke:#000000;stroke-width:0.5;" x="777.6" xlink:href="#md9a1c1a7cd" y="237.6"/>
      </g>
     </g>
     <g id="text_13">
      <!-- 12000 -->
      <g transform="translate(67.94 240.91125)scale(0.12 -0.12)">
       <use xlink:href="#BitstreamVeraSans-Roman-31"/>
       <use x="63.623046875" xlink:href="#BitstreamVeraSans-Roman-32"/>
       <use x="127.24609375" xlink:href="#BitstreamVeraSans-Roman-30"/>
       <use x="190.869140625" xlink:href="#BitstreamVeraSans-Roman-30"/>
       <use x="254.4921875" xlink:href="#BitstreamVeraSans-Roman-30"/>
      </g>
     </g>
    </g>
    <g id="ytick_8">
     <g id="line2d_28">
      <g>
       <use style="stroke:#000000;stroke-width:0.5;" x="108.0" xlink:href="#md7965d1ba0" y="180.0"/>
      </g>
     </g>
     <g id="line2d_29">
      <g>
       <use style="stroke:#000000;stroke-width:0.5;" x="777.6" xlink:href="#md9a1c1a7cd" y="180.0"/>
      </g>
     </g>
     <g id="text_14">
      <!-- 14000 -->
      <g transform="translate(67.94 183.31125)scale(0.12 -0.12)">
       <use xlink:href="#BitstreamVeraSans-Roman-31"/>
       <use x="63.623046875" xlink:href="#BitstreamVeraSans-Roman-34"/>
       <use x="127.24609375" xlink:href="#BitstreamVeraSans-Roman-30"/>
       <use x="190.869140625" xlink:href="#BitstreamVeraSans-Roman-30"/>
       <use x="254.4921875" xlink:href="#BitstreamVeraSans-Roman-30"/>
      </g>
     </g>
    </g>
    <g id="ytick_9">
     <g id="line2d_30">
      <g>
       <use style="stroke:#000000;stroke-width:0.5;" x="108.0" xlink:href="#md7965d1ba0" y="122.4"/>
      </g>
     </g>
     <g id="line2d_31">
      <g>
       <use style="stroke:#000000;stroke-width:0.5;" x="777.6" xlink:href="#md9a1c1a7cd" y="122.4"/>
      </g>
     </g>
     <g id="text_15">
      <!-- 16000 -->
      <g transform="translate(67.94 125.71125)scale(0.12 -0.12)">
       <use xlink:href="#BitstreamVeraSans-Roman-31"/>
       <use x="63.623046875" xlink:href="#BitstreamVeraSans-Roman-36"/>
       <use x="127.24609375" xlink:href="#BitstreamVeraSans-Roman-30"/>
       <use x="190.869140625" xlink:href="#BitstreamVeraSans-Roman-30"/>
       <use x="254.4921875" xlink:href="#BitstreamVeraSans-Roman-30"/>
      </g>
     </g>
    </g>
    <g id="ytick_10">
     <g id="line2d_32">
      <g>
       <use style="stroke:#000000;stroke-width:0.5;" x="108.0" xlink:href="#md7965d1ba0" y="64.8"/>
      </g>
     </g>
     <g id="line2d_33">
      <g>
       <use style="stroke:#000000;stroke-width:0.5;" x="777.6" xlink:href="#md9a1c1a7cd" y="64.8"/>
      </g>
     </g>
     <g id="text_16">
      <!-- 18000 -->
      <g transform="translate(67.94 68.11125)scale(0.12 -0.12)">
       <use xlink:href="#BitstreamVeraSans-Roman-31"/>
       <use x="63.623046875" xlink:href="#BitstreamVeraSans-Roman-38"/>
       <use x="127.24609375" xlink:href="#BitstreamVeraSans-Roman-30"/>
       <use x="190.869140625" xlink:href="#BitstreamVeraSans-Roman-30"/>
       <use x="254.4921875" xlink:href="#BitstreamVeraSans-Roman-30"/>
      </g>
     </g>
    </g>
    <g id="text_17">
     <!-- particle numbers -->
     <defs>
      <path d="
M48.6875 27.2969
Q48.6875 37.2031 44.6094 42.8438
Q40.5312 48.4844 33.4062 48.4844
Q26.2656 48.4844 22.1875 42.8438
Q18.1094 37.2031 18.1094 27.2969
Q18.1094 17.3906 22.1875 11.75
Q26.2656 6.10938 33.4062 6.10938
Q40.5312 6.10938 44.6094 11.75
Q48.6875 17.3906 48.6875 27.2969
M18.1094 46.3906
Q20.9531 51.2656 25.2656 53.625
Q29.5938 56 35.5938 56
Q45.5625 56 51.7812 48.0938
Q58.0156 40.1875 58.0156 27.2969
Q58.0156 14.4062 51.7812 6.48438
Q45.5625 -1.42188 35.5938 -1.42188
Q29.5938 -1.42188 25.2656 0.953125
Q20.9531 3.32812 18.1094 8.20312
L18.1094 0
L9.07812 0
L9.07812 75.9844
L18.1094 75.9844
z
" id="BitstreamVeraSans-Roman-62"/>
      <path d="
M48.7812 52.5938
L48.7812 44.1875
Q44.9688 46.2969 41.1406 47.3438
Q37.3125 48.3906 33.4062 48.3906
Q24.6562 48.3906 19.8125 42.8438
Q14.9844 37.3125 14.9844 27.2969
Q14.9844 17.2812 19.8125 11.7344
Q24.6562 6.20312 33.4062 6.20312
Q37.3125 6.20312 41.1406 7.25
Q44.9688 8.29688 48.7812 10.4062
L48.7812 2.09375
Q45.0156 0.34375 40.9844 -0.53125
Q36.9688 -1.42188 32.4219 -1.42188
Q20.0625 -1.42188 12.7812 6.34375
Q5.51562 14.1094 5.51562 27.2969
Q5.51562 40.6719 12.8594 48.3281
Q20.2188 56 33.0156 56
Q37.1562 56 41.1094 55.1406
Q45.0625 54.2969 48.7812 52.5938" id="BitstreamVeraSans-Roman-63"/>
      <path d="
M34.2812 27.4844
Q23.3906 27.4844 19.1875 25
Q14.9844 22.5156 14.9844 16.5
Q14.9844 11.7188 18.1406 8.90625
Q21.2969 6.10938 26.7031 6.10938
Q34.1875 6.10938 38.7031 11.4062
Q43.2188 16.7031 43.2188 25.4844
L43.2188 27.4844
z

M52.2031 31.2031
L52.2031 0
L43.2188 0
L43.2188 8.29688
Q40.1406 3.32812 35.5469 0.953125
Q30.9531 -1.42188 24.3125 -1.42188
Q15.9219 -1.42188 10.9531 3.29688
Q6 8.01562 6 15.9219
Q6 25.1406 12.1719 29.8281
Q18.3594 34.5156 30.6094 34.5156
L43.2188 34.5156
L43.2188 35.4062
Q43.2188 41.6094 39.1406 45
Q35.0625 48.3906 27.6875 48.3906
Q23 48.3906 18.5469 47.2656
Q14.1094 46.1406 10.0156 43.8906
L10.0156 52.2031
Q14.9375 54.1094 19.5781 55.0469
Q24.2188 56 28.6094 56
Q40.4844 56 46.3438 49.8438
Q52.2031 43.7031 52.2031 31.2031" id="BitstreamVeraSans-Roman-61"/>
      <path d="
M9.42188 75.9844
L18.4062 75.9844
L18.4062 0
L9.42188 0
z
" id="BitstreamVeraSans-Roman-6c"/>
      <path d="
M9.42188 54.6875
L18.4062 54.6875
L18.4062 0
L9.42188 0
z

M9.42188 75.9844
L18.4062 75.9844
L18.4062 64.5938
L9.42188 64.5938
z
" id="BitstreamVeraSans-Roman-69"/>
      <path d="
M54.8906 33.0156
L54.8906 0
L45.9062 0
L45.9062 32.7188
Q45.9062 40.4844 42.875 44.3281
Q39.8438 48.1875 33.7969 48.1875
Q26.5156 48.1875 22.3125 43.5469
Q18.1094 38.9219 18.1094 30.9062
L18.1094 0
L9.07812 0
L9.07812 54.6875
L18.1094 54.6875
L18.1094 46.1875
Q21.3438 51.125 25.7031 53.5625
Q30.0781 56 35.7969 56
Q45.2188 56 50.0469 50.1719
Q54.8906 44.3438 54.8906 33.0156" id="BitstreamVeraSans-Roman-6e"/>
      <path d="
M41.1094 46.2969
Q39.5938 47.1719 37.8125 47.5781
Q36.0312 48 33.8906 48
Q26.2656 48 22.1875 43.0469
Q18.1094 38.0938 18.1094 28.8125
L18.1094 0
L9.07812 0
L9.07812 54.6875
L18.1094 54.6875
L18.1094 46.1875
Q20.9531 51.1719 25.4844 53.5781
Q30.0312 56 36.5312 56
Q37.4531 56 38.5781 55.875
Q39.7031 55.7656 41.0625 55.5156
z
" id="BitstreamVeraSans-Roman-72"/>
      <path d="
M18.1094 8.20312
L18.1094 -20.7969
L9.07812 -20.7969
L9.07812 54.6875
L18.1094 54.6875
L18.1094 46.3906
Q20.9531 51.2656 25.2656 53.625
Q29.5938 56 35.5938 56
Q45.5625 56 51.7812 48.0938
Q58.0156 40.1875 58.0156 27.2969
Q58.0156 14.4062 51.7812 6.48438
Q45.5625 -1.42188 35.5938 -1.42188
Q29.5938 -1.42188 25.2656 0.953125
Q20.9531 3.32812 18.1094 8.20312
M48.6875 27.2969
Q48.6875 37.2031 44.6094 42.8438
Q40.5312 48.4844 33.4062 48.4844
Q26.2656 48.4844 22.1875 42.8438
Q18.1094 37.2031 18.1094 27.2969
Q18.1094 17.3906 22.1875 11.75
Q26.2656 6.10938 33.4062 6.10938
Q40.5312 6.10938 44.6094 11.75
Q48.6875 17.3906 48.6875 27.2969" id="BitstreamVeraSans-Roman-70"/>
      <path d="
M56.2031 29.5938
L56.2031 25.2031
L14.8906 25.2031
Q15.4844 15.9219 20.4844 11.0625
Q25.4844 6.20312 34.4219 6.20312
Q39.5938 6.20312 44.4531 7.46875
Q49.3125 8.73438 54.1094 11.2812
L54.1094 2.78125
Q49.2656 0.734375 44.1875 -0.34375
Q39.1094 -1.42188 33.8906 -1.42188
Q20.7969 -1.42188 13.1562 6.1875
Q5.51562 13.8125 5.51562 26.8125
Q5.51562 40.2344 12.7656 48.1094
Q20.0156 56 32.3281 56
Q43.3594 56 49.7812 48.8906
Q56.2031 41.7969 56.2031 29.5938
M47.2188 32.2344
Q47.125 39.5938 43.0938 43.9844
Q39.0625 48.3906 32.4219 48.3906
Q24.9062 48.3906 20.3906 44.1406
Q15.875 39.8906 15.1875 32.1719
z
" id="BitstreamVeraSans-Roman-65"/>
      <path d="
M8.5 21.5781
L8.5 54.6875
L17.4844 54.6875
L17.4844 21.9219
Q17.4844 14.1562 20.5 10.2656
Q23.5312 6.39062 29.5938 6.39062
Q36.8594 6.39062 41.0781 11.0312
Q45.3125 15.6719 45.3125 23.6875
L45.3125 54.6875
L54.2969 54.6875
L54.2969 0
L45.3125 0
L45.3125 8.40625
Q42.0469 3.42188 37.7188 1
Q33.4062 -1.42188 27.6875 -1.42188
Q18.2656 -1.42188 13.375 4.4375
Q8.5 10.2969 8.5 21.5781" id="BitstreamVeraSans-Roman-75"/>
     </defs>
     <g transform="translate(60.444375 374.78625)rotate(-90.0)scale(0.12 -0.12)">
      <use xlink:href="#BitstreamVeraSans-Roman-70"/>
      <use x="63.4765625" xlink:href="#BitstreamVeraSans-Roman-61"/>
      <use x="124.755859375" xlink:href="#BitstreamVeraSans-Roman-72"/>
      <use x="165.869140625" xlink:href="#BitstreamVeraSans-Roman-74"/>
      <use x="205.078125" xlink:href="#BitstreamVeraSans-Roman-69"/>
      <use x="232.861328125" xlink:href="#BitstreamVeraSans-Roman-63"/>
      <use x="287.841796875" xlink:href="#BitstreamVeraSans-Roman-6c"/>
      <use x="315.625" xlink:href="#BitstreamVeraSans-Roman-65"/>
      <use x="377.1484375" xlink:href="#BitstreamVeraSans-Roman-20"/>
      <use x="408.935546875" xlink:href="#BitstreamVeraSans-Roman-6e"/>
      <use x="472.314453125" xlink:href="#BitstreamVeraSans-Roman-75"/>
      <use x="535.693359375" xlink:href="#BitstreamVeraSans-Roman-6d"/>
      <use x="633.10546875" xlink:href="#BitstreamVeraSans-Roman-62"/>
      <use x="696.58203125" xlink:href="#BitstreamVeraSans-Roman-65"/>
      <use x="758.10546875" xlink:href="#BitstreamVeraSans-Roman-72"/>
      <use x="799.21875" xlink:href="#BitstreamVeraSans-Roman-73"/>
     </g>
    </g>
   </g>
   <g id="legend_1">
    <g id="patch_7">
     <path d="
M715.312 101.224
L774.1 101.224
L774.1 68.3
L715.312 68.3
z
" style="fill:#ffffff;stroke:#000000;stroke-linejoin:miter;"/>
    </g>
    <g id="line2d_34">
     <path d="
M720.212 73.9689
L730.012 73.9689" style="fill:none;stroke:#ff0000;stroke-linecap:square;"/>
    </g>
    <g id="line2d_35"/>
    <g id="text_18">
     <!-- cAMP el.0 -->
     <defs>
      <path d="
M19.6719 64.7969
L19.6719 37.4062
L32.0781 37.4062
Q38.9688 37.4062 42.7188 40.9688
Q46.4844 44.5312 46.4844 51.125
Q46.4844 57.6719 42.7188 61.2344
Q38.9688 64.7969 32.0781 64.7969
z

M9.8125 72.9062
L32.0781 72.9062
Q44.3438 72.9062 50.6094 67.3594
Q56.8906 61.8125 56.8906 51.125
Q56.8906 40.3281 50.6094 34.8125
Q44.3438 29.2969 32.0781 29.2969
L19.6719 29.2969
L19.6719 0
L9.8125 0
z
" id="BitstreamVeraSans-Roman-50"/>
      <path d="
M34.1875 63.1875
L20.7969 26.9062
L47.6094 26.9062
z

M28.6094 72.9062
L39.7969 72.9062
L67.5781 0
L57.3281 0
L50.6875 18.7031
L17.8281 18.7031
L11.1875 0
L0.78125 0
z
" id="BitstreamVeraSans-Roman-41"/>
      <path d="
M9.8125 72.9062
L24.5156 72.9062
L43.1094 23.2969
L61.8125 72.9062
L76.5156 72.9062
L76.5156 0
L66.8906 0
L66.8906 64.0156
L48.0938 14.0156
L38.1875 14.0156
L19.3906 64.0156
L19.3906 0
L9.8125 0
z
" id="BitstreamVeraSans-Roman-4d"/>
      <path d="
M10.6875 12.4062
L21 12.4062
L21 0
L10.6875 0
z
" id="BitstreamVeraSans-Roman-2e"/>
     </defs>
     <g transform="translate(737.71203125 76.41890625)scale(0.07 -0.07)">
      <use xlink:href="#BitstreamVeraSans-Roman-63"/>
      <use x="54.98046875" xlink:href="#BitstreamVeraSans-Roman-41"/>
      <use x="123.388671875" xlink:href="#BitstreamVeraSans-Roman-4d"/>
      <use x="209.66796875" xlink:href="#BitstreamVeraSans-Roman-50"/>
      <use x="269.970703125" xlink:href="#BitstreamVeraSans-Roman-20"/>
      <use x="301.7578125" xlink:href="#BitstreamVeraSans-Roman-65"/>
      <use x="363.28125" xlink:href="#BitstreamVeraSans-Roman-6c"/>
      <use x="391.064453125" xlink:href="#BitstreamVeraSans-Roman-2e"/>
      <use x="422.8515625" xlink:href="#BitstreamVeraSans-Roman-30"/>
     </g>
    </g>
    <g id="line2d_36">
     <path d="
M720.212 84.2436
L730.012 84.2436" style="fill:none;stroke:#008000;stroke-linecap:square;"/>
    </g>
    <g id="line2d_37"/>
    <g id="text_19">
     <!-- cAMP el.1 -->
     <g transform="translate(737.71203125 86.69359375)scale(0.07 -0.07)">
      <use xlink:href="#BitstreamVeraSans-Roman-63"/>
      <use x="54.98046875" xlink:href="#BitstreamVeraSans-Roman-41"/>
      <use x="123.388671875" xlink:href="#BitstreamVeraSans-Roman-4d"/>
      <use x="209.66796875" xlink:href="#BitstreamVeraSans-Roman-50"/>
      <use x="269.970703125" xlink:href="#BitstreamVeraSans-Roman-20"/>
      <use x="301.7578125" xlink:href="#BitstreamVeraSans-Roman-65"/>
      <use x="363.28125" xlink:href="#BitstreamVeraSans-Roman-6c"/>
      <use x="391.064453125" xlink:href="#BitstreamVeraSans-Roman-2e"/>
      <use x="422.8515625" xlink:href="#BitstreamVeraSans-Roman-31"/>
     </g>
    </g>
    <g id="line2d_38">
     <path d="
M720.212 94.5183
L730.012 94.5183" style="fill:none;stroke:#0000ff;stroke-linecap:square;"/>
    </g>
    <g id="line2d_39"/>
    <g id="text_20">
     <!-- cAMP el.2 -->
     <g transform="translate(737.71203125 96.96828125)scale(0.07 -0.07)">
      <use xlink:href="#BitstreamVeraSans-Roman-63"/>
      <use x="54.98046875" xlink:href="#BitstreamVeraSans-Roman-41"/>
      <use x="123.388671875" xlink:href="#BitstreamVeraSans-Roman-4d"/>
      <use x="209.66796875" xlink:href="#BitstreamVeraSans-Roman-50"/>
      <use x="269.970703125" xlink:href="#BitstreamVeraSans-Roman-20"/>
      <use x="301.7578125" xlink:href="#BitstreamVeraSans-Roman-65"/>
      <use x="363.28125" xlink:href="#BitstreamVeraSans-Roman-6c"/>
      <use x="391.064453125" xlink:href="#BitstreamVeraSans-Roman-2e"/>
      <use x="422.8515625" xlink:href="#BitstreamVeraSans-Roman-32"/>
     </g>
    </g>
   </g>
  </g>
 </g>
 <defs>
  <clipPath id="p7ceb695115">
   <rect height="518.4" width="669.6" x="108.0" y="64.8"/>
  </clipPath>
 </defs>
</svg>
