<?xml version="1.0" encoding="utf-8" standalone="no"?>
<!DOCTYPE svg PUBLIC "-//W3C//DTD SVG 1.1//EN"
  "http://www.w3.org/Graphics/SVG/1.1/DTD/svg11.dtd">
<!-- Created with matplotlib (http://matplotlib.org/) -->
<svg height="648pt" version="1.1" viewBox="0 0 864 648" width="864pt" xmlns="http://www.w3.org/2000/svg" xmlns:xlink="http://www.w3.org/1999/xlink">
 <defs>
  <style type="text/css">
*{stroke-linecap:butt;stroke-linejoin:round;}
  </style>
 </defs>
 <g id="figure_1">
  <g id="patch_1">
   <path d="
M0 648
L864 648
L864 0
L0 0
z
" style="fill:#ffffff;"/>
  </g>
  <g id="axes_1">
   <g id="patch_2">
    <path d="
M108 583.2
L777.6 583.2
L777.6 64.8
L108 64.8
z
" style="fill:#ffffff;"/>
   </g>
   <g id="line2d_1">
    <path clip-path="url(#p7ceb695115)" d="
M108 583.2
L109.339 581.126
L110.678 581.126
L112.018 579.053
L112.687 576.979
L113.357 575.424
L114.026 574.387
L115.366 573.35
L116.035 573.35
L116.705 572.832
L118.044 567.648
L118.714 564.538
L119.383 559.872
L120.053 557.798
L120.722 556.243
L121.392 557.28
L122.062 556.243
L122.731 553.651
L125.41 541.21
L126.079 539.136
L126.749 536.544
L127.418 536.026
L128.758 530.323
L129.427 529.805
L130.097 525.658
L130.766 524.102
L131.436 521.51
L132.106 515.808
L132.775 514.771
L133.445 515.29
L134.114 512.179
L134.784 511.661
L135.454 504.922
L136.123 503.885
L136.793 499.738
L137.462 498.182
L138.132 494.554
L139.471 490.406
L140.141 489.37
L140.81 490.406
L141.48 490.406
L142.15 490.925
L142.819 490.406
L143.489 487.296
L144.158 487.814
L145.498 483.667
L146.167 480.557
L146.837 479.52
L147.506 477.446
L148.176 477.965
L148.846 475.373
L149.515 476.928
L150.185 474.854
L150.854 472.262
L151.524 468.115
L152.194 467.078
L152.863 465.523
L153.533 462.931
L154.202 460.858
L154.872 463.968
L155.542 462.413
L156.211 460.339
L156.881 460.339
L157.55 461.376
L158.22 459.821
L158.89 458.784
L159.559 459.302
L160.229 456.71
L160.898 459.302
L161.568 458.266
L162.238 456.71
L162.907 457.747
L163.577 457.747
L164.246 458.266
L164.916 456.71
L165.586 456.71
L166.255 461.894
L166.925 460.339
L167.594 462.413
L168.264 460.339
L169.603 460.339
L170.273 459.302
L170.942 460.339
L171.612 461.894
L172.282 462.931
L172.951 462.931
L174.29 461.894
L174.96 462.413
L175.63 460.858
L176.299 462.931
L176.969 463.45
L177.638 463.45
L178.308 463.968
L178.978 463.968
L179.647 459.821
L180.317 453.6
L180.986 455.674
L181.656 455.674
L182.326 455.155
L183.665 459.302
L184.334 460.339
L185.004 459.821
L185.674 459.821
L186.343 459.302
L187.013 460.339
L187.682 458.266
L188.352 458.784
L189.022 460.339
L189.691 458.266
L191.03 457.229
L191.7 456.192
L192.37 454.118
L193.039 454.637
L193.709 453.082
L194.378 453.082
L195.048 451.008
L195.718 452.563
L196.387 456.71
L197.726 462.931
L198.396 461.894
L199.066 460.339
L199.735 461.376
L200.405 457.747
L201.074 458.784
L201.744 460.339
L202.414 460.858
L203.083 463.45
L203.753 466.56
L205.092 466.56
L205.762 465.523
L206.431 461.894
L207.101 460.858
L207.77 460.339
L208.44 461.894
L209.11 463.968
L209.779 465.523
L210.449 468.115
L211.118 469.67
L211.788 470.707
L212.458 469.152
L213.127 468.115
L214.466 467.078
L215.136 466.042
L215.806 466.042
L216.475 467.078
L217.145 467.078
L217.814 469.152
L218.484 469.152
L219.154 470.189
L219.823 470.707
L220.493 472.262
L221.162 473.299
L221.832 472.781
L222.502 470.707
L223.171 471.226
L223.841 475.373
L225.18 474.336
L225.85 471.226
L226.519 474.336
L227.189 472.781
L227.858 473.299
L228.528 474.336
L229.198 473.299
L229.867 475.891
L230.537 472.262
L231.206 470.707
L231.876 470.707
L232.546 470.189
L233.215 470.707
L233.885 470.707
L234.554 472.262
L235.224 471.744
L235.894 473.299
L236.563 473.299
L237.902 474.336
L238.572 472.262
L239.242 472.262
L239.911 468.634
L240.581 471.744
L241.25 472.781
L241.92 470.189
L242.59 468.634
L243.259 471.744
L243.929 469.152
L244.598 469.152
L245.268 468.634
L245.938 470.189
L247.277 469.152
L247.946 467.078
L248.616 467.078
L249.286 468.634
L249.955 467.597
L250.625 470.189
L251.294 468.634
L251.964 469.152
L252.634 468.115
L253.303 468.634
L253.973 468.115
L254.642 466.56
L255.312 467.597
L255.982 466.56
L256.651 463.45
L257.321 462.931
L257.99 463.45
L258.66 460.339
L259.33 460.339
L259.999 459.302
L260.669 461.894
L261.338 459.821
L262.008 460.858
L262.678 460.339
L263.347 458.266
L264.686 456.192
L265.356 458.784
L266.026 458.784
L266.695 459.302
L267.365 461.894
L268.034 460.858
L268.704 460.339
L269.374 461.894
L270.043 459.821
L270.713 459.821
L271.382 457.747
L272.052 458.784
L272.722 459.302
L273.391 460.858
L274.061 462.931
L274.73 465.523
L275.4 465.005
L276.07 467.597
L276.739 467.597
L277.409 462.931
L278.078 461.894
L278.748 466.042
L279.418 466.042
L280.087 465.523
L280.757 466.042
L281.426 467.597
L282.096 466.56
L282.766 468.634
L283.435 469.152
L284.105 466.56
L284.774 463.45
L285.444 461.376
L286.114 462.931
L286.783 463.45
L287.453 462.931
L288.792 462.931
L290.801 466.042
L291.47 463.45
L292.14 460.339
L292.81 463.45
L293.479 463.45
L294.149 463.968
L294.818 465.005
L295.488 465.005
L296.158 465.523
L296.827 468.115
L297.497 468.634
L298.166 468.634
L298.836 468.115
L299.506 466.042
L300.175 467.597
L301.514 469.67
L302.184 469.152
L302.854 471.226
L304.193 471.226
L304.862 471.744
L306.202 469.67
L306.871 470.189
L307.541 468.634
L308.21 469.152
L308.88 469.152
L310.219 470.189
L310.889 471.744
L311.558 472.781
L312.228 475.373
L312.898 474.336
L313.567 474.854
L314.237 473.818
L314.906 474.854
L315.576 473.818
L316.246 475.891
L316.915 476.928
L317.585 478.483
L318.254 477.965
L318.924 477.965
L319.594 481.075
L320.263 479.52
L320.933 479.002
L321.602 479.002
L322.272 481.594
L322.942 481.594
L323.611 479.52
L324.281 477.965
L324.95 476.928
L325.62 479.52
L326.29 479.002
L326.959 480.038
L327.629 479.52
L328.298 481.075
L328.968 481.594
L329.638 484.704
L330.977 485.741
L331.646 483.667
L332.316 482.63
L332.986 483.149
L335.664 483.149
L336.334 484.704
L337.003 483.667
L337.673 483.149
L338.342 483.667
L339.682 482.63
L340.351 479.52
L341.021 477.446
L341.69 478.483
L343.03 479.52
L343.699 479.52
L344.369 480.557
L345.038 483.149
L345.708 480.557
L346.378 480.038
L347.047 480.038
L348.386 481.075
L349.056 479.002
L349.726 478.483
L350.395 479.002
L351.065 478.483
L351.734 480.557
L353.074 480.557
L353.743 476.41
L354.413 475.891
L355.082 475.891
L355.752 476.41
L356.422 475.373
L357.091 473.299
L357.761 472.781
L358.43 474.854
L359.1 475.891
L359.77 475.891
L360.439 476.41
L361.109 477.446
L361.778 477.965
L362.448 477.965
L363.118 479.002
L363.787 480.557
L365.126 478.483
L365.796 479.52
L367.135 477.446
L367.805 477.446
L368.474 477.965
L369.144 477.965
L369.814 479.52
L370.483 478.483
L371.153 480.557
L371.822 480.557
L372.492 483.667
L373.162 483.149
L373.831 484.186
L374.501 484.704
L375.17 482.63
L375.84 483.149
L376.51 485.222
L377.179 484.704
L377.849 484.704
L378.518 483.667
L379.188 483.667
L379.858 486.778
L380.527 487.296
L381.197 484.704
L381.866 483.667
L382.536 482.112
L383.206 481.075
L383.875 480.557
L384.545 481.594
L385.214 479.52
L385.884 481.075
L386.554 481.075
L387.223 479.002
L387.893 478.483
L388.562 479.002
L389.232 479.002
L389.902 480.038
L390.571 478.483
L391.241 479.002
L391.91 480.038
L392.58 480.038
L393.25 482.112
L393.919 480.038
L394.589 480.038
L395.258 479.002
L395.928 476.928
L396.598 473.299
L397.267 474.336
L397.937 476.41
L398.606 475.891
L399.276 479.002
L399.946 479.52
L400.615 481.594
L401.285 477.965
L401.954 480.038
L402.624 480.038
L403.294 481.075
L403.963 481.075
L404.633 481.594
L405.302 481.594
L405.972 483.149
L406.642 483.149
L407.311 482.63
L407.981 481.594
L408.65 482.63
L409.32 483.149
L409.99 482.63
L410.659 481.075
L411.329 481.075
L411.998 481.594
L412.668 481.594
L414.007 482.63
L414.677 480.557
L416.686 479.002
L417.355 480.038
L418.025 477.965
L418.694 476.41
L419.364 476.928
L420.034 477.965
L420.703 479.52
L422.712 481.075
L423.382 480.038
L424.721 482.112
L425.39 482.63
L426.06 485.222
L426.73 486.259
L427.399 485.741
L428.069 484.186
L428.738 483.667
L429.408 480.557
L430.078 480.557
L430.747 479.002
L431.417 476.928
L432.086 476.928
L432.756 477.965
L433.426 479.52
L434.095 480.038
L434.765 481.594
L435.434 483.667
L436.104 481.075
L437.443 481.075
L438.113 479.52
L438.782 480.557
L439.452 482.63
L440.791 480.557
L441.461 481.594
L442.13 483.149
L442.8 485.222
L443.47 486.778
L444.139 484.186
L444.809 472.262
L445.478 435.456
L447.487 283.565
L448.826 148.262
L449.496 108.346
L450.166 113.53
L450.835 108.864
L451.505 155.52
L452.174 159.149
L452.844 186.624
L453.514 236.39
L454.183 268.013
L454.853 321.408
L456.192 355.104
L456.862 370.656
L457.531 378.95
L458.201 410.054
L458.87 416.275
L459.54 414.72
L460.21 414.72
L460.879 418.349
L461.549 432.346
L462.218 452.045
L462.888 436.493
L463.558 445.824
L464.227 449.971
L464.897 461.894
L465.566 462.931
L466.236 451.008
L466.906 455.674
L467.575 459.302
L468.245 474.336
L468.914 460.339
L469.584 464.486
L470.254 456.192
L470.923 469.152
L471.593 462.413
L472.262 458.266
L472.932 470.707
L473.602 476.41
L474.271 477.965
L474.941 464.486
L475.61 462.931
L476.28 470.189
L476.95 462.931
L477.619 471.744
L478.289 472.262
L478.958 464.486
L479.628 480.038
L480.298 469.152
L480.967 471.744
L481.637 471.226
L482.306 472.262
L482.976 472.262
L483.646 465.005
L484.315 452.045
L484.985 462.413
L485.654 466.042
L486.324 466.042
L486.994 464.486
L487.663 469.152
L488.333 476.928
L489.002 475.373
L489.672 475.373
L490.342 471.744
L491.011 479.52
L491.681 472.781
L492.35 468.115
L493.02 480.557
L493.69 471.744
L494.359 470.707
L495.029 485.741
L495.698 470.707
L496.368 473.299
L497.038 477.446
L498.377 463.968
L499.046 483.149
L499.716 461.894
L500.386 476.928
L501.055 472.262
L501.725 473.299
L502.394 472.262
L503.064 468.115
L503.734 469.67
L504.403 465.523
L505.073 468.115
L506.412 475.891
L507.082 462.413
L507.751 476.41
L508.421 453.6
L509.09 471.744
L509.76 475.891
L510.43 466.042
L511.099 466.042
L511.769 475.373
L512.438 480.038
L513.108 475.891
L513.778 469.152
L514.447 467.078
L515.117 481.075
L515.786 474.854
L516.456 459.302
L517.126 476.41
L517.795 467.078
L518.465 460.339
L519.134 472.781
L519.804 472.781
L520.474 477.446
L521.143 473.299
L521.813 472.262
L522.482 452.563
L523.152 468.115
L523.822 472.262
L524.491 448.934
L525.161 463.968
L525.83 461.376
L526.5 459.302
L527.17 473.299
L527.839 468.634
L528.509 465.005
L529.178 476.928
L529.848 470.707
L530.518 459.821
L531.187 464.486
L531.857 485.741
L532.526 480.038
L533.196 467.597
L533.866 463.968
L534.535 451.526
L535.205 453.6
L535.874 472.781
L536.544 457.747
L537.214 461.894
L537.883 449.971
L538.553 468.115
L539.222 461.376
L539.892 472.781
L540.562 466.56
L541.231 457.229
L541.901 454.637
L542.57 459.302
L543.24 459.302
L543.91 460.858
L544.579 450.49
L545.249 472.781
L545.918 462.931
L546.588 460.858
L547.258 457.229
L547.927 455.674
L548.597 459.302
L549.266 449.971
L549.936 452.563
L550.606 461.894
L551.275 447.379
L551.945 445.306
L552.614 471.226
L554.623 451.526
L555.293 457.229
L555.962 440.122
L556.632 441.677
L557.302 439.603
L557.971 444.269
L558.641 472.262
L559.31 462.413
L559.98 449.971
L561.319 439.603
L562.658 461.376
L563.328 449.453
L563.998 454.118
L564.667 475.373
L565.337 455.674
L566.006 453.6
L566.676 434.938
L567.346 442.714
L568.015 447.898
L568.685 436.493
L569.354 437.53
L570.024 432.864
L570.694 454.637
L571.363 434.938
L572.033 435.974
L572.702 439.085
L573.372 448.934
L574.042 444.269
L574.711 458.266
L575.381 443.232
L576.05 431.309
L576.72 441.677
L577.39 439.085
L578.059 441.677
L578.729 433.901
L579.398 432.864
L580.068 430.272
L580.738 438.566
L581.407 426.125
L582.077 430.79
L582.746 450.49
L583.416 445.306
L584.086 452.045
L584.755 450.49
L585.425 434.938
L586.094 440.64
L586.764 426.643
L587.434 442.195
L588.103 440.122
L588.773 431.309
L589.442 432.864
L590.112 437.011
L590.782 425.606
L591.451 445.306
L592.121 431.827
L592.79 456.192
L593.46 434.419
L594.13 437.011
L594.799 432.346
L595.469 438.048
L596.138 438.566
L596.808 433.901
L597.478 425.088
L598.147 429.754
L598.817 439.085
L599.486 423.533
L600.156 424.57
L600.826 419.904
L601.495 421.978
L602.165 420.941
L602.834 415.757
L603.504 418.349
L604.174 417.312
L604.843 421.978
L605.513 411.61
L606.182 434.419
L606.852 439.085
L607.522 429.235
L608.191 427.162
L608.861 434.419
L609.53 415.238
L610.2 418.349
L610.87 415.757
L611.539 426.643
L612.209 424.051
L612.878 395.021
L613.548 398.65
L614.218 415.238
L614.887 401.242
L615.557 410.573
L616.226 401.242
L616.896 410.054
L617.566 420.941
L618.905 406.426
L619.574 417.83
L620.244 406.944
L620.914 414.202
L621.583 414.72
L622.253 403.315
L622.922 416.275
L623.592 409.536
L624.262 406.426
L624.931 409.536
L626.27 392.429
L626.94 414.202
L627.61 396.576
L628.279 394.502
L628.949 402.278
L629.618 387.763
L630.288 393.466
L630.958 392.429
L631.627 390.874
L632.297 387.245
L632.966 380.506
L633.636 384.653
L634.306 393.466
L634.975 387.245
L635.645 394.502
L636.314 385.171
L636.984 386.208
L637.654 389.318
L638.323 395.021
L638.993 382.061
L639.662 386.208
L640.332 383.616
L641.002 388.8
L641.671 382.579
L642.341 394.502
L643.01 385.171
L643.68 382.061
L644.35 372.211
L645.019 390.355
L645.689 385.171
L646.358 385.171
L647.028 382.579
L647.698 392.429
L648.367 392.947
L649.037 371.174
L649.706 377.914
L650.376 380.506
L651.046 379.469
L651.715 384.134
L652.385 387.763
L653.054 388.8
L653.724 376.877
L654.394 379.987
L655.063 370.656
L655.733 371.174
L656.402 370.138
L657.072 377.395
L657.742 389.318
L658.411 375.84
L659.081 373.248
L659.75 375.322
L660.42 387.763
L661.09 387.245
L661.759 368.064
L662.429 374.803
L663.098 376.358
L663.768 374.285
L664.438 372.73
L665.107 368.582
L665.777 372.73
L666.446 369.619
L667.116 364.435
L667.786 382.061
L668.455 369.101
L669.125 368.582
L669.794 373.248
L670.464 357.178
L671.134 366.509
L671.803 367.027
L672.473 371.174
L673.142 361.843
L673.812 378.432
L674.482 360.288
L675.151 369.619
L675.821 373.248
L676.49 369.619
L677.16 357.696
L677.83 355.622
L679.169 378.95
L680.508 360.806
L681.178 358.214
L681.847 364.435
L682.517 362.362
L683.856 365.472
L684.526 353.549
L685.195 351.994
L685.865 359.77
L686.534 361.843
L687.874 354.586
L688.543 361.325
L689.213 355.104
L689.882 343.699
L690.552 342.662
L691.222 355.104
L691.891 357.178
L692.561 361.325
L693.23 362.362
L693.9 372.211
L694.57 350.957
L695.239 345.773
L695.909 336.96
L696.578 359.251
L697.248 365.99
L697.918 344.736
L698.587 336.442
L699.257 332.813
L700.596 365.99
L701.266 347.846
L701.935 354.586
L702.605 349.92
L703.274 371.693
L703.944 362.88
L704.614 358.733
L705.283 358.733
L706.622 354.586
L707.292 344.218
L707.962 356.141
L708.631 348.883
L709.301 336.442
L709.97 340.07
L710.64 340.07
L711.31 335.405
L711.979 333.85
L713.318 362.88
L713.988 351.994
L714.658 344.736
L715.327 347.846
L715.997 357.696
L716.666 352.512
L717.336 348.365
L718.006 354.586
L718.675 353.549
L719.345 353.03
L720.014 345.773
L720.684 340.07
L721.354 345.773
L722.023 347.846
L722.693 350.438
L723.362 324
L724.032 342.144
L724.702 342.144
L725.371 322.445
L726.041 335.923
L726.71 346.81
L727.38 345.773
L728.05 339.552
L728.719 345.254
L729.389 344.218
L730.058 339.034
L730.728 360.806
L731.398 342.662
L732.067 339.552
L732.737 330.221
L733.406 337.478
L734.076 338.515
L734.746 336.442
L735.415 342.662
L736.085 335.923
L736.754 333.85
L737.424 339.552
L738.094 330.739
L738.763 339.034
L739.433 335.405
L740.102 337.997
L740.772 335.405
L741.442 322.963
L742.111 319.853
L742.781 331.776
L743.45 334.368
L744.79 308.966
L745.459 319.334
L746.129 316.742
L746.798 321.926
L747.468 321.408
L748.138 315.706
L748.807 305.856
L749.477 314.669
L750.146 320.371
L750.816 320.89
L751.486 315.187
L752.155 317.261
L752.825 318.298
L753.494 336.442
L754.164 316.224
L755.503 306.374
L756.173 307.411
L756.842 302.746
L757.512 302.746
L758.182 305.856
L758.851 300.672
L759.521 300.672
L760.19 326.074
L760.86 305.856
L761.53 316.224
L762.199 292.896
L762.869 291.341
L763.538 300.154
L764.208 305.856
L764.878 303.782
L765.547 309.485
L766.217 312.077
L766.886 305.856
L767.556 297.043
L768.226 297.043
L768.895 325.555
L769.565 321.926
L770.234 305.856
L770.904 316.224
L772.243 296.525
L772.913 310.522
L773.582 298.08
L774.922 278.381
L775.591 297.043
L776.261 304.301
L776.93 298.598
L777.6 294.97
L777.6 294.97" style="fill:none;stroke:#ff0000;stroke-linecap:square;"/>
   </g>
   <g id="line2d_2">
    <path clip-path="url(#p7ceb695115)" d="
M108 583.2
L777.6 583.2
L777.6 583.2" style="fill:none;stroke:#008000;stroke-linecap:square;"/>
   </g>
   <g id="line2d_3">
    <path clip-path="url(#p7ceb695115)" d="
M108 583.2
L108.67 578.534
L109.339 577.498
L110.009 577.498
L111.348 576.461
L112.687 576.461
L114.026 575.424
L114.696 575.424
L115.366 573.35
L116.035 571.795
L116.705 568.685
L117.374 566.611
L118.044 566.611
L118.714 565.056
L119.383 561.946
L120.053 559.872
L120.722 556.762
L121.392 554.688
L122.062 555.725
L122.731 553.133
L124.07 547.43
L124.74 544.838
L126.079 538.618
L126.749 537.062
L127.418 534.989
L128.088 535.507
L128.758 533.434
L129.427 534.989
L130.097 533.434
L130.766 529.286
L131.436 526.176
L132.106 526.176
L132.775 523.584
L133.445 522.547
L134.114 520.474
L134.784 520.474
L135.454 516.845
L136.123 517.363
L136.793 515.29
L137.462 513.734
L138.132 510.106
L138.802 508.032
L139.471 506.477
L140.141 503.885
L140.81 504.403
L141.48 503.885
L143.489 499.219
L144.158 499.219
L144.828 497.146
L145.498 495.59
L146.167 496.109
L146.837 494.035
L147.506 494.035
L148.176 491.962
L148.846 493.517
L149.515 491.443
L150.185 491.962
L150.854 491.443
L151.524 489.888
L152.194 486.259
L152.863 486.778
L153.533 485.741
L154.202 485.222
L154.872 485.222
L156.211 486.259
L156.881 483.149
L157.55 481.594
L158.22 482.63
L158.89 480.038
L160.229 479.002
L160.898 476.928
L161.568 480.038
L162.238 480.038
L163.577 477.965
L164.246 475.373
L164.916 473.818
L165.586 471.744
L166.255 469.152
L166.925 470.707
L167.594 468.115
L168.264 467.078
L168.934 466.56
L169.603 468.115
L170.273 467.078
L170.942 463.45
L171.612 463.45
L172.282 466.042
L172.951 466.56
L173.621 464.486
L174.29 464.486
L174.96 465.005
L175.63 463.968
L176.299 464.486
L176.969 462.931
L178.308 462.931
L178.978 466.56
L179.647 468.634
L180.317 470.189
L180.986 469.152
L181.656 466.042
L182.326 466.042
L182.995 463.968
L183.665 464.486
L184.334 462.413
L185.004 462.931
L185.674 462.413
L186.343 462.413
L187.013 460.339
L187.682 461.894
L188.352 460.339
L189.022 458.266
L189.691 459.302
L190.361 459.302
L191.03 460.339
L191.7 460.339
L192.37 458.266
L193.039 458.784
L193.709 460.339
L194.378 457.229
L195.048 458.266
L196.387 456.192
L197.057 453.6
L197.726 454.637
L198.396 451.008
L199.066 452.045
L199.735 451.008
L200.405 451.008
L201.074 449.971
L201.744 452.045
L202.414 452.045
L203.083 450.49
L203.753 449.453
L204.422 450.49
L205.092 449.971
L205.762 448.416
L206.431 447.898
L207.101 448.934
L207.77 448.416
L208.44 448.416
L209.11 452.045
L209.779 451.008
L211.118 454.118
L211.788 454.637
L212.458 452.563
L213.127 452.563
L213.797 452.045
L214.466 457.747
L215.136 456.71
L215.806 457.747
L216.475 455.674
L217.145 454.637
L218.484 454.637
L219.154 455.155
L219.823 453.082
L221.162 457.229
L221.832 458.266
L222.502 458.784
L223.171 458.784
L223.841 457.747
L224.51 457.747
L225.18 457.229
L225.85 459.302
L226.519 457.229
L227.189 457.229
L227.858 458.266
L228.528 459.821
L229.198 462.931
L229.867 462.413
L230.537 460.858
L231.876 461.894
L232.546 461.894
L233.215 461.376
L233.885 461.376
L234.554 460.858
L235.224 460.858
L235.894 461.894
L236.563 460.339
L237.233 459.302
L237.902 463.45
L239.242 461.376
L240.581 457.229
L241.25 458.266
L241.92 457.229
L243.259 457.229
L243.929 457.747
L244.598 459.821
L245.268 460.858
L245.938 460.339
L247.946 463.45
L248.616 463.968
L249.286 463.968
L249.955 462.931
L250.625 465.005
L251.294 464.486
L251.964 461.376
L252.634 463.968
L253.303 462.931
L253.973 463.968
L254.642 463.45
L255.312 463.968
L255.982 463.45
L256.651 465.523
L257.321 463.968
L257.99 463.968
L258.66 466.042
L259.33 465.005
L259.999 461.894
L260.669 463.968
L261.338 463.45
L262.008 464.486
L262.678 461.376
L264.017 465.523
L264.686 465.523
L265.356 464.486
L266.026 463.968
L266.695 465.523
L267.365 465.005
L268.034 467.597
L268.704 469.152
L269.374 469.152
L270.713 471.226
L271.382 471.226
L272.052 472.262
L272.722 471.744
L273.391 472.262
L274.061 470.189
L274.73 468.634
L275.4 468.634
L276.07 469.67
L276.739 468.634
L277.409 469.152
L278.078 466.56
L278.748 465.523
L279.418 466.56
L280.087 466.56
L282.096 463.45
L282.766 462.931
L283.435 466.042
L284.105 465.523
L284.774 466.56
L285.444 469.67
L286.114 469.67
L286.783 468.115
L287.453 470.707
L288.122 472.262
L288.792 472.262
L289.462 473.299
L290.131 472.781
L290.801 471.226
L291.47 471.226
L292.14 470.189
L292.81 470.707
L294.149 469.67
L294.818 474.336
L295.488 476.41
L296.158 474.854
L296.827 476.928
L297.497 475.891
L298.166 475.373
L298.836 476.928
L299.506 475.891
L300.845 477.965
L301.514 477.446
L302.184 476.41
L302.854 476.41
L303.523 475.891
L304.193 477.965
L305.532 479.002
L306.871 479.002
L307.541 481.594
L308.21 481.594
L309.55 480.557
L310.219 483.149
L310.889 480.557
L311.558 479.52
L312.228 480.038
L312.898 482.63
L314.237 481.594
L314.906 484.186
L316.246 486.259
L316.915 486.259
L317.585 488.333
L318.254 488.851
L318.924 489.888
L319.594 490.406
L320.263 492.998
L320.933 491.443
L321.602 491.443
L322.272 492.998
L322.942 490.406
L324.281 490.406
L324.95 491.443
L326.29 489.37
L326.959 489.37
L327.629 491.443
L328.968 489.37
L329.638 488.851
L330.307 488.851
L330.977 486.259
L331.646 488.333
L332.316 488.851
L332.986 486.778
L333.655 486.259
L334.325 484.186
L334.994 485.222
L336.334 488.333
L337.003 486.778
L337.673 486.778
L339.682 491.443
L341.021 489.37
L341.69 489.888
L342.36 488.333
L343.03 485.222
L343.699 485.222
L344.369 487.296
L345.038 485.222
L346.378 485.222
L347.047 483.149
L347.717 482.63
L348.386 483.149
L349.056 484.704
L349.726 484.704
L350.395 483.667
L351.065 482.112
L351.734 481.075
L352.404 481.075
L353.074 481.594
L353.743 482.63
L354.413 479.52
L355.082 482.112
L355.752 482.63
L356.422 482.112
L357.091 481.075
L357.761 481.594
L358.43 480.557
L359.1 480.038
L359.77 480.557
L360.439 478.483
L361.778 480.557
L362.448 479.002
L363.118 475.891
L363.787 477.446
L364.457 479.52
L365.126 477.446
L365.796 478.483
L366.466 479.002
L367.135 478.483
L367.805 480.038
L368.474 477.965
L369.144 481.075
L369.814 482.112
L370.483 481.594
L371.153 480.038
L371.822 479.52
L372.492 479.52
L373.162 480.038
L373.831 478.483
L374.501 480.557
L375.84 480.557
L376.51 481.075
L377.179 480.557
L377.849 479.52
L378.518 480.557
L379.188 481.075
L379.858 482.112
L380.527 484.704
L381.197 485.222
L381.866 484.186
L382.536 486.778
L383.206 485.222
L383.875 485.222
L384.545 484.704
L385.214 483.667
L385.884 485.222
L386.554 487.296
L387.223 488.333
L387.893 486.259
L388.562 487.296
L389.232 485.741
L389.902 488.333
L390.571 489.888
L391.241 487.814
L391.91 489.888
L392.58 490.925
L393.25 488.851
L393.919 487.296
L394.589 487.814
L395.928 485.741
L397.267 485.741
L397.937 486.259
L398.606 486.259
L399.276 485.222
L399.946 484.704
L400.615 483.149
L401.285 484.186
L402.624 483.149
L403.294 486.259
L403.963 487.814
L404.633 488.333
L405.302 489.888
L405.972 490.406
L406.642 490.406
L407.311 487.814
L407.981 486.778
L408.65 486.259
L410.659 486.259
L411.329 483.667
L412.668 485.741
L413.338 482.112
L414.007 484.704
L414.677 485.222
L415.346 487.814
L416.016 488.333
L416.686 487.296
L417.355 489.37
L418.025 489.37
L418.694 489.888
L419.364 489.37
L420.034 490.406
L421.373 490.406
L422.042 488.333
L422.712 489.888
L423.382 487.814
L424.051 487.296
L424.721 483.667
L425.39 482.112
L426.06 479.002
L426.73 477.446
L427.399 476.928
L428.069 476.928
L428.738 477.965
L429.408 476.41
L430.078 475.373
L430.747 480.557
L431.417 481.075
L432.086 484.186
L432.756 486.259
L433.426 485.222
L434.095 486.259
L434.765 483.667
L435.434 484.186
L436.104 481.594
L436.774 484.186
L437.443 483.667
L438.113 484.704
L438.782 484.704
L439.452 483.667
L440.791 483.667
L441.461 486.259
L442.13 483.667
L442.8 483.149
L443.47 484.704
L444.139 481.594
L444.809 461.376
L445.478 429.235
L446.148 389.837
L446.818 333.85
L447.487 258.163
L448.826 146.707
L450.166 103.68
L450.835 114.048
L451.505 134.784
L452.844 196.474
L453.514 247.277
L454.853 293.414
L456.862 374.285
L458.201 398.131
L458.87 402.278
L459.54 414.72
L460.21 415.757
L460.879 423.533
L461.549 420.422
L462.218 450.49
L462.888 436.493
L463.558 446.342
L464.227 440.122
L464.897 448.934
L465.566 447.898
L466.236 457.229
L466.906 452.045
L467.575 452.045
L468.245 453.082
L468.914 451.008
L469.584 451.526
L470.254 463.45
L470.923 449.971
L471.593 468.634
L472.262 453.6
L472.932 462.413
L473.602 457.229
L474.271 468.634
L474.941 472.781
L475.61 467.078
L476.28 466.042
L476.95 467.078
L477.619 465.005
L478.289 461.894
L478.958 475.373
L479.628 462.931
L480.298 476.41
L480.967 463.968
L481.637 473.299
L482.306 479.002
L482.976 481.594
L483.646 477.446
L484.315 448.934
L484.985 471.226
L485.654 465.523
L486.324 478.483
L486.994 480.557
L487.663 474.854
L488.333 467.078
L489.002 463.968
L489.672 469.67
L490.342 474.336
L491.011 469.152
L491.681 467.078
L492.35 460.339
L493.02 472.262
L493.69 465.005
L494.359 473.299
L495.029 474.854
L495.698 454.118
L496.368 467.078
L497.038 466.042
L497.707 473.818
L498.377 473.299
L499.046 465.523
L499.716 479.52
L500.386 488.333
L501.055 473.818
L501.725 473.299
L502.394 455.155
L503.064 460.858
L503.734 463.45
L504.403 477.965
L505.073 484.704
L505.742 462.931
L506.412 462.931
L507.082 466.042
L507.751 467.597
L508.421 463.968
L509.09 481.594
L509.76 457.229
L510.43 470.189
L511.099 468.115
L512.438 473.299
L513.778 459.302
L514.447 467.078
L515.117 468.115
L515.786 476.41
L516.456 471.744
L517.126 457.747
L517.795 469.67
L518.465 459.302
L519.134 458.784
L519.804 461.894
L520.474 469.67
L521.143 468.115
L521.813 460.858
L523.152 471.744
L523.822 469.67
L524.491 476.928
L525.161 461.376
L525.83 462.413
L526.5 468.634
L527.17 468.115
L527.839 454.118
L528.509 473.299
L529.178 466.56
L529.848 464.486
L530.518 457.747
L531.187 454.637
L531.857 480.038
L532.526 479.52
L533.196 465.523
L533.866 470.707
L534.535 484.186
L535.205 468.115
L535.874 456.192
L536.544 457.229
L537.214 470.189
L537.883 465.005
L538.553 451.526
L539.222 467.597
L539.892 447.379
L540.562 470.707
L541.231 475.373
L541.901 460.339
L542.57 453.6
L543.24 454.118
L543.91 461.376
L544.579 458.266
L545.918 469.67
L546.588 465.523
L547.258 449.453
L547.927 458.266
L548.597 457.747
L549.266 459.821
L549.936 460.339
L550.606 441.677
L551.275 452.563
L551.945 457.747
L552.614 454.118
L553.284 462.931
L553.954 460.858
L554.623 437.53
L555.293 456.71
L555.962 457.229
L556.632 442.195
L557.302 450.49
L557.971 443.232
L558.641 453.6
L559.31 447.898
L559.98 460.858
L560.65 454.637
L561.319 444.787
L562.658 454.637
L563.328 452.563
L563.998 452.563
L564.667 435.974
L565.337 449.453
L566.676 439.603
L567.346 445.824
L568.015 449.453
L568.685 461.894
L569.354 442.195
L570.024 447.379
L570.694 430.272
L572.033 442.195
L572.702 454.118
L574.042 440.122
L574.711 456.192
L575.381 431.309
L576.05 448.416
L576.72 443.75
L577.39 452.563
L578.059 440.122
L578.729 433.382
L579.398 428.198
L580.068 442.195
L580.738 436.493
L581.407 449.971
L582.077 444.787
L582.746 432.346
L583.416 432.864
L584.086 444.787
L584.755 442.195
L585.425 430.79
L586.094 434.938
L586.764 419.386
L587.434 419.386
L588.103 425.088
L588.773 434.419
L589.442 421.978
L590.112 424.051
L590.782 418.867
L591.451 437.53
L592.121 439.603
L592.79 447.379
L593.46 429.235
L594.13 422.496
L594.799 445.306
L595.469 426.643
L596.138 440.64
L596.808 441.677
L597.478 445.306
L598.147 442.714
L598.817 416.794
L599.486 423.533
L600.156 423.533
L600.826 429.235
L601.495 429.235
L602.165 422.496
L602.834 410.054
L603.504 409.536
L604.174 425.606
L604.843 419.904
L605.513 416.794
L606.182 427.68
L606.852 428.198
L607.522 432.346
L608.191 407.981
L608.861 423.533
L609.53 417.83
L610.2 436.493
L610.87 424.051
L611.539 433.382
L612.209 411.61
L612.878 419.386
L613.548 434.938
L614.218 419.904
L614.887 414.72
L615.557 421.978
L616.226 411.61
L616.896 385.69
L617.566 403.315
L618.235 413.165
L618.905 407.981
L619.574 407.981
L621.583 376.877
L622.253 398.131
L622.922 385.171
L623.592 395.539
L624.262 409.536
L624.931 395.021
L625.601 377.395
L626.27 396.058
L626.94 397.613
L627.61 402.797
L628.279 409.018
L628.949 403.834
L629.618 388.282
L630.288 391.91
L630.958 390.874
L631.627 390.355
L632.297 395.539
L632.966 402.278
L633.636 401.242
L634.975 378.95
L635.645 384.134
L636.314 380.506
L636.984 383.616
L637.654 382.061
L638.323 389.837
L638.993 395.539
L639.662 395.021
L640.332 392.947
L641.002 381.542
L641.671 384.134
L642.341 391.91
L643.01 379.987
L643.68 382.061
L644.35 383.616
L645.019 391.392
L645.689 400.723
L646.358 377.395
L647.028 379.987
L647.698 380.506
L648.367 378.95
L649.037 387.245
L649.706 393.984
L650.376 393.466
L651.046 384.134
L651.715 388.282
L652.385 377.395
L653.054 381.024
L653.724 373.766
L654.394 371.693
L655.063 383.616
L655.733 383.098
L656.402 385.69
L657.072 368.064
L657.742 374.285
L658.411 362.88
L659.081 379.469
L659.75 374.285
L660.42 378.432
L661.09 379.987
L661.759 357.696
L662.429 360.288
L663.098 368.064
L663.768 379.987
L664.438 359.251
L665.107 365.99
L665.777 343.699
L666.446 374.803
L667.116 365.99
L667.786 366.509
L668.455 363.917
L669.125 373.766
L669.794 385.69
L670.464 362.88
L671.134 364.435
L671.803 386.208
L673.142 367.027
L673.812 355.622
L674.482 364.954
L675.151 366.509
L675.821 371.693
L676.49 369.619
L677.16 371.174
L677.83 362.88
L678.499 356.141
L679.169 359.251
L679.838 369.619
L680.508 369.101
L681.178 361.843
L681.847 361.843
L682.517 358.733
L683.186 377.914
L683.856 367.027
L684.526 365.99
L685.195 361.843
L685.865 347.846
L686.534 362.362
L687.204 342.144
L687.874 355.104
L688.543 362.362
L689.213 354.067
L689.882 357.696
L690.552 358.733
L691.222 345.254
L691.891 359.77
L692.561 365.99
L693.23 354.067
L693.9 345.773
L694.57 361.843
L695.239 352.512
L695.909 361.843
L696.578 347.846
L697.248 360.288
L698.587 339.552
L699.257 349.402
L699.926 351.475
L700.596 337.478
L701.266 350.438
L701.935 343.181
L702.605 338.515
L703.274 345.254
L703.944 350.438
L704.614 347.846
L705.283 332.294
L707.292 353.549
L707.962 356.659
L708.631 340.589
L709.301 334.886
L709.97 347.846
L710.64 353.03
L711.31 336.96
L711.979 351.475
L712.649 340.589
L713.318 342.662
L713.988 359.251
L715.327 370.656
L715.997 348.365
L716.666 338.515
L717.336 343.699
L718.006 362.88
L718.675 351.475
L719.345 355.104
L720.014 354.067
L720.684 347.328
L721.354 319.334
L722.023 316.742
L723.362 341.626
L724.032 336.96
L724.702 328.666
L725.371 330.739
L726.041 321.408
L726.71 333.331
L727.38 337.478
L728.05 345.773
L728.719 340.589
L729.389 320.371
L730.058 324.518
L730.728 334.886
L731.398 340.589
L732.067 328.147
L732.737 350.438
L733.406 325.555
L734.076 329.184
L734.746 329.184
L735.415 332.294
L736.085 325.037
L736.754 306.374
L737.424 318.298
L738.094 318.298
L738.763 319.853
L739.433 326.074
L740.102 320.371
L741.442 326.074
L742.111 310.003
L742.781 313.632
L743.45 325.555
L744.12 327.629
L744.79 314.669
L745.459 314.669
L746.129 325.555
L746.798 316.224
L747.468 320.371
L748.138 316.742
L748.807 316.224
L749.477 319.853
L750.146 317.261
L750.816 321.926
L751.486 331.258
L752.155 344.218
L752.825 343.699
L754.164 322.963
L754.834 321.408
L755.503 328.666
L756.173 305.338
L756.842 310.522
L757.512 298.598
L758.182 307.93
L758.851 321.408
L759.521 326.592
L760.19 297.562
L760.86 294.97
L761.53 285.638
L762.199 295.488
L762.869 298.598
L763.538 304.819
L764.208 295.488
L764.878 301.19
L765.547 310.003
L766.217 333.331
L766.886 305.338
L767.556 320.371
L768.226 318.816
L768.895 318.816
L770.234 295.488
L770.904 303.782
L771.574 303.264
L772.243 319.334
L772.913 300.154
L773.582 315.187
L774.252 294.97
L774.922 303.782
L775.591 318.298
L776.261 310.522
L776.93 308.966
L777.6 312.077
L777.6 312.077" style="fill:none;stroke:#0000ff;stroke-linecap:square;"/>
   </g>
   <g id="patch_3">
    <path d="
M108 583.2
L777.6 583.2" style="fill:none;stroke:#000000;stroke-linecap:square;stroke-linejoin:miter;"/>
   </g>
   <g id="patch_4">
    <path d="
M777.6 583.2
L777.6 64.8" style="fill:none;stroke:#000000;stroke-linecap:square;stroke-linejoin:miter;"/>
   </g>
   <g id="patch_5">
    <path d="
M108 583.2
L108 64.8" style="fill:none;stroke:#000000;stroke-linecap:square;stroke-linejoin:miter;"/>
   </g>
   <g id="patch_6">
    <path d="
M108 64.8
L777.6 64.8" style="fill:none;stroke:#000000;stroke-linecap:square;stroke-linejoin:miter;"/>
   </g>
   <g id="matplotlib.axis_1">
    <g id="xtick_1">
     <g id="line2d_4">
      <defs>
       <path d="
M0 0
L0 -4" id="mc7db9fdffb" style="stroke:#000000;stroke-width:0.5;"/>
      </defs>
      <g>
       <use style="stroke:#000000;stroke-width:0.5;" x="108.0" xlink:href="#mc7db9fdffb" y="583.2"/>
      </g>
     </g>
     <g id="line2d_5">
      <defs>
       <path d="
M0 0
L0 4" id="m5a7d422ac3" style="stroke:#000000;stroke-width:0.5;"/>
      </defs>
      <g>
       <use style="stroke:#000000;stroke-width:0.5;" x="108.0" xlink:href="#m5a7d422ac3" y="64.8"/>
      </g>
     </g>
     <g id="text_1">
      <!-- 0 -->
      <defs>
       <path d="
M31.7812 66.4062
Q24.1719 66.4062 20.3281 58.9062
Q16.5 51.4219 16.5 36.375
Q16.5 21.3906 20.3281 13.8906
Q24.1719 6.39062 31.7812 6.39062
Q39.4531 6.39062 43.2812 13.8906
Q47.125 21.3906 47.125 36.375
Q47.125 51.4219 43.2812 58.9062
Q39.4531 66.4062 31.7812 66.4062
M31.7812 74.2188
Q44.0469 74.2188 50.5156 64.5156
Q56.9844 54.8281 56.9844 36.375
Q56.9844 17.9688 50.5156 8.26562
Q44.0469 -1.42188 31.7812 -1.42188
Q19.5312 -1.42188 13.0625 8.26562
Q6.59375 17.9688 6.59375 36.375
Q6.59375 54.8281 13.0625 64.5156
Q19.5312 74.2188 31.7812 74.2188" id="BitstreamVeraSans-Roman-30"/>
      </defs>
      <g transform="translate(104.9765625 596.318125)scale(0.12 -0.12)">
       <use xlink:href="#BitstreamVeraSans-Roman-30"/>
      </g>
     </g>
    </g>
    <g id="xtick_2">
     <g id="line2d_6">
      <g>
       <use style="stroke:#000000;stroke-width:0.5;" x="275.4" xlink:href="#mc7db9fdffb" y="583.2"/>
      </g>
     </g>
     <g id="line2d_7">
      <g>
       <use style="stroke:#000000;stroke-width:0.5;" x="275.4" xlink:href="#m5a7d422ac3" y="64.8"/>
      </g>
     </g>
     <g id="text_2">
      <!-- 50000 -->
      <defs>
       <path d="
M10.7969 72.9062
L49.5156 72.9062
L49.5156 64.5938
L19.8281 64.5938
L19.8281 46.7344
Q21.9688 47.4688 24.1094 47.8281
Q26.2656 48.1875 28.4219 48.1875
Q40.625 48.1875 47.75 41.5
Q54.8906 34.8125 54.8906 23.3906
Q54.8906 11.625 47.5625 5.09375
Q40.2344 -1.42188 26.9062 -1.42188
Q22.3125 -1.42188 17.5469 -0.640625
Q12.7969 0.140625 7.71875 1.70312
L7.71875 11.625
Q12.1094 9.23438 16.7969 8.0625
Q21.4844 6.89062 26.7031 6.89062
Q35.1562 6.89062 40.0781 11.3281
Q45.0156 15.7656 45.0156 23.3906
Q45.0156 31 40.0781 35.4375
Q35.1562 39.8906 26.7031 39.8906
Q22.75 39.8906 18.8125 39.0156
Q14.8906 38.1406 10.7969 36.2812
z
" id="BitstreamVeraSans-Roman-35"/>
      </defs>
      <g transform="translate(257.1740625 596.318125)scale(0.12 -0.12)">
       <use xlink:href="#BitstreamVeraSans-Roman-35"/>
       <use x="63.623046875" xlink:href="#BitstreamVeraSans-Roman-30"/>
       <use x="127.24609375" xlink:href="#BitstreamVeraSans-Roman-30"/>
       <use x="190.869140625" xlink:href="#BitstreamVeraSans-Roman-30"/>
       <use x="254.4921875" xlink:href="#BitstreamVeraSans-Roman-30"/>
      </g>
     </g>
    </g>
    <g id="xtick_3">
     <g id="line2d_8">
      <g>
       <use style="stroke:#000000;stroke-width:0.5;" x="442.8" xlink:href="#mc7db9fdffb" y="583.2"/>
      </g>
     </g>
     <g id="line2d_9">
      <g>
       <use style="stroke:#000000;stroke-width:0.5;" x="442.8" xlink:href="#m5a7d422ac3" y="64.8"/>
      </g>
     </g>
     <g id="text_3">
      <!-- 100000 -->
      <defs>
       <path d="
M12.4062 8.29688
L28.5156 8.29688
L28.5156 63.9219
L10.9844 60.4062
L10.9844 69.3906
L28.4219 72.9062
L38.2812 72.9062
L38.2812 8.29688
L54.3906 8.29688
L54.3906 0
L12.4062 0
z
" id="BitstreamVeraSans-Roman-31"/>
      </defs>
      <g transform="translate(420.9525 596.318125)scale(0.12 -0.12)">
       <use xlink:href="#BitstreamVeraSans-Roman-31"/>
       <use x="63.623046875" xlink:href="#BitstreamVeraSans-Roman-30"/>
       <use x="127.24609375" xlink:href="#BitstreamVeraSans-Roman-30"/>
       <use x="190.869140625" xlink:href="#BitstreamVeraSans-Roman-30"/>
       <use x="254.4921875" xlink:href="#BitstreamVeraSans-Roman-30"/>
       <use x="318.115234375" xlink:href="#BitstreamVeraSans-Roman-30"/>
      </g>
     </g>
    </g>
    <g id="xtick_4">
     <g id="line2d_10">
      <g>
       <use style="stroke:#000000;stroke-width:0.5;" x="610.2" xlink:href="#mc7db9fdffb" y="583.2"/>
      </g>
     </g>
     <g id="line2d_11">
      <g>
       <use style="stroke:#000000;stroke-width:0.5;" x="610.2" xlink:href="#m5a7d422ac3" y="64.8"/>
      </g>
     </g>
     <g id="text_4">
      <!-- 150000 -->
      <g transform="translate(588.3525 596.318125)scale(0.12 -0.12)">
       <use xlink:href="#BitstreamVeraSans-Roman-31"/>
       <use x="63.623046875" xlink:href="#BitstreamVeraSans-Roman-35"/>
       <use x="127.24609375" xlink:href="#BitstreamVeraSans-Roman-30"/>
       <use x="190.869140625" xlink:href="#BitstreamVeraSans-Roman-30"/>
       <use x="254.4921875" xlink:href="#BitstreamVeraSans-Roman-30"/>
       <use x="318.115234375" xlink:href="#BitstreamVeraSans-Roman-30"/>
      </g>
     </g>
    </g>
    <g id="xtick_5">
     <g id="line2d_12">
      <g>
       <use style="stroke:#000000;stroke-width:0.5;" x="777.6" xlink:href="#mc7db9fdffb" y="583.2"/>
      </g>
     </g>
     <g id="line2d_13">
      <g>
       <use style="stroke:#000000;stroke-width:0.5;" x="777.6" xlink:href="#m5a7d422ac3" y="64.8"/>
      </g>
     </g>
     <g id="text_5">
      <!-- 200000 -->
      <defs>
       <path d="
M19.1875 8.29688
L53.6094 8.29688
L53.6094 0
L7.32812 0
L7.32812 8.29688
Q12.9375 14.1094 22.625 23.8906
Q32.3281 33.6875 34.8125 36.5312
Q39.5469 41.8438 41.4219 45.5312
Q43.3125 49.2188 43.3125 52.7812
Q43.3125 58.5938 39.2344 62.25
Q35.1562 65.9219 28.6094 65.9219
Q23.9688 65.9219 18.8125 64.3125
Q13.6719 62.7031 7.8125 59.4219
L7.8125 69.3906
Q13.7656 71.7812 18.9375 73
Q24.125 74.2188 28.4219 74.2188
Q39.75 74.2188 46.4844 68.5469
Q53.2188 62.8906 53.2188 53.4219
Q53.2188 48.9219 51.5312 44.8906
Q49.8594 40.875 45.4062 35.4062
Q44.1875 33.9844 37.6406 27.2188
Q31.1094 20.4531 19.1875 8.29688" id="BitstreamVeraSans-Roman-32"/>
      </defs>
      <g transform="translate(755.533125 596.318125)scale(0.12 -0.12)">
       <use xlink:href="#BitstreamVeraSans-Roman-32"/>
       <use x="63.623046875" xlink:href="#BitstreamVeraSans-Roman-30"/>
       <use x="127.24609375" xlink:href="#BitstreamVeraSans-Roman-30"/>
       <use x="190.869140625" xlink:href="#BitstreamVeraSans-Roman-30"/>
       <use x="254.4921875" xlink:href="#BitstreamVeraSans-Roman-30"/>
       <use x="318.115234375" xlink:href="#BitstreamVeraSans-Roman-30"/>
      </g>
     </g>
    </g>
    <g id="text_6">
     <!-- t / ms -->
     <defs>
      <path d="
M44.2812 53.0781
L44.2812 44.5781
Q40.4844 46.5312 36.375 47.5
Q32.2812 48.4844 27.875 48.4844
Q21.1875 48.4844 17.8438 46.4375
Q14.5 44.3906 14.5 40.2812
Q14.5 37.1562 16.8906 35.375
Q19.2812 33.5938 26.5156 31.9844
L29.5938 31.2969
Q39.1562 29.25 43.1875 25.5156
Q47.2188 21.7812 47.2188 15.0938
Q47.2188 7.46875 41.1875 3.01562
Q35.1562 -1.42188 24.6094 -1.42188
Q20.2188 -1.42188 15.4531 -0.5625
Q10.6875 0.296875 5.42188 2
L5.42188 11.2812
Q10.4062 8.6875 15.2344 7.39062
Q20.0625 6.10938 24.8125 6.10938
Q31.1562 6.10938 34.5625 8.28125
Q37.9844 10.4531 37.9844 14.4062
Q37.9844 18.0625 35.5156 20.0156
Q33.0625 21.9688 24.7031 23.7812
L21.5781 24.5156
Q13.2344 26.2656 9.51562 29.9062
Q5.8125 33.5469 5.8125 39.8906
Q5.8125 47.6094 11.2812 51.7969
Q16.75 56 26.8125 56
Q31.7812 56 36.1719 55.2656
Q40.5781 54.5469 44.2812 53.0781" id="BitstreamVeraSans-Roman-73"/>
      <path d="
M25.3906 72.9062
L33.6875 72.9062
L8.29688 -9.28125
L0 -9.28125
z
" id="BitstreamVeraSans-Roman-2f"/>
      <path d="
M52 44.1875
Q55.375 50.25 60.0625 53.125
Q64.75 56 71.0938 56
Q79.6406 56 84.2812 50.0156
Q88.9219 44.0469 88.9219 33.0156
L88.9219 0
L79.8906 0
L79.8906 32.7188
Q79.8906 40.5781 77.0938 44.375
Q74.3125 48.1875 68.6094 48.1875
Q61.625 48.1875 57.5625 43.5469
Q53.5156 38.9219 53.5156 30.9062
L53.5156 0
L44.4844 0
L44.4844 32.7188
Q44.4844 40.625 41.7031 44.4062
Q38.9219 48.1875 33.1094 48.1875
Q26.2188 48.1875 22.1562 43.5312
Q18.1094 38.875 18.1094 30.9062
L18.1094 0
L9.07812 0
L9.07812 54.6875
L18.1094 54.6875
L18.1094 46.1875
Q21.1875 51.2188 25.4844 53.6094
Q29.7812 56 35.6875 56
Q41.6562 56 45.8281 52.9688
Q50 49.9531 52 44.1875" id="BitstreamVeraSans-Roman-6d"/>
      <path d="
M18.3125 70.2188
L18.3125 54.6875
L36.8125 54.6875
L36.8125 47.7031
L18.3125 47.7031
L18.3125 18.0156
Q18.3125 11.3281 20.1406 9.42188
Q21.9688 7.51562 27.5938 7.51562
L36.8125 7.51562
L36.8125 0
L27.5938 0
Q17.1875 0 13.2344 3.875
Q9.28125 7.76562 9.28125 18.0156
L9.28125 47.7031
L2.6875 47.7031
L2.6875 54.6875
L9.28125 54.6875
L9.28125 70.2188
z
" id="BitstreamVeraSans-Roman-74"/>
      <path id="BitstreamVeraSans-Roman-20"/>
     </defs>
     <g transform="translate(425.9353125 612.931875)scale(0.12 -0.12)">
      <use xlink:href="#BitstreamVeraSans-Roman-74"/>
      <use x="39.208984375" xlink:href="#BitstreamVeraSans-Roman-20"/>
      <use x="70.99609375" xlink:href="#BitstreamVeraSans-Roman-2f"/>
      <use x="104.6875" xlink:href="#BitstreamVeraSans-Roman-20"/>
      <use x="136.474609375" xlink:href="#BitstreamVeraSans-Roman-6d"/>
      <use x="233.88671875" xlink:href="#BitstreamVeraSans-Roman-73"/>
     </g>
    </g>
   </g>
   <g id="matplotlib.axis_2">
    <g id="ytick_1">
     <g id="line2d_14">
      <defs>
       <path d="
M0 0
L4 0" id="md7965d1ba0" style="stroke:#000000;stroke-width:0.5;"/>
      </defs>
      <g>
       <use style="stroke:#000000;stroke-width:0.5;" x="108.0" xlink:href="#md7965d1ba0" y="583.2"/>
      </g>
     </g>
     <g id="line2d_15">
      <defs>
       <path d="
M0 0
L-4 0" id="md9a1c1a7cd" style="stroke:#000000;stroke-width:0.5;"/>
      </defs>
      <g>
       <use style="stroke:#000000;stroke-width:0.5;" x="777.6" xlink:href="#md9a1c1a7cd" y="583.2"/>
      </g>
     </g>
     <g id="text_7">
      <!-- 0 -->
      <g transform="translate(97.953125 586.51125)scale(0.12 -0.12)">
       <use xlink:href="#BitstreamVeraSans-Roman-30"/>
      </g>
     </g>
    </g>
    <g id="ytick_2">
     <g id="line2d_16">
      <g>
       <use style="stroke:#000000;stroke-width:0.5;" x="108.0" xlink:href="#md7965d1ba0" y="479.52"/>
      </g>
     </g>
     <g id="line2d_17">
      <g>
       <use style="stroke:#000000;stroke-width:0.5;" x="777.6" xlink:href="#md9a1c1a7cd" y="479.52"/>
      </g>
     </g>
     <g id="text_8">
      <!-- 200 -->
      <g transform="translate(82.77125 482.83125)scale(0.12 -0.12)">
       <use xlink:href="#BitstreamVeraSans-Roman-32"/>
       <use x="63.623046875" xlink:href="#BitstreamVeraSans-Roman-30"/>
       <use x="127.24609375" xlink:href="#BitstreamVeraSans-Roman-30"/>
      </g>
     </g>
    </g>
    <g id="ytick_3">
     <g id="line2d_18">
      <g>
       <use style="stroke:#000000;stroke-width:0.5;" x="108.0" xlink:href="#md7965d1ba0" y="375.84"/>
      </g>
     </g>
     <g id="line2d_19">
      <g>
       <use style="stroke:#000000;stroke-width:0.5;" x="777.6" xlink:href="#md9a1c1a7cd" y="375.84"/>
      </g>
     </g>
     <g id="text_9">
      <!-- 400 -->
      <defs>
       <path d="
M37.7969 64.3125
L12.8906 25.3906
L37.7969 25.3906
z

M35.2031 72.9062
L47.6094 72.9062
L47.6094 25.3906
L58.0156 25.3906
L58.0156 17.1875
L47.6094 17.1875
L47.6094 0
L37.7969 0
L37.7969 17.1875
L4.89062 17.1875
L4.89062 26.7031
z
" id="BitstreamVeraSans-Roman-34"/>
      </defs>
      <g transform="translate(82.47875 379.15125)scale(0.12 -0.12)">
       <use xlink:href="#BitstreamVeraSans-Roman-34"/>
       <use x="63.623046875" xlink:href="#BitstreamVeraSans-Roman-30"/>
       <use x="127.24609375" xlink:href="#BitstreamVeraSans-Roman-30"/>
      </g>
     </g>
    </g>
    <g id="ytick_4">
     <g id="line2d_20">
      <g>
       <use style="stroke:#000000;stroke-width:0.5;" x="108.0" xlink:href="#md7965d1ba0" y="272.16"/>
      </g>
     </g>
     <g id="line2d_21">
      <g>
       <use style="stroke:#000000;stroke-width:0.5;" x="777.6" xlink:href="#md9a1c1a7cd" y="272.16"/>
      </g>
     </g>
     <g id="text_10">
      <!-- 600 -->
      <defs>
       <path d="
M33.0156 40.375
Q26.375 40.375 22.4844 35.8281
Q18.6094 31.2969 18.6094 23.3906
Q18.6094 15.5312 22.4844 10.9531
Q26.375 6.39062 33.0156 6.39062
Q39.6562 6.39062 43.5312 10.9531
Q47.4062 15.5312 47.4062 23.3906
Q47.4062 31.2969 43.5312 35.8281
Q39.6562 40.375 33.0156 40.375
M52.5938 71.2969
L52.5938 62.3125
Q48.875 64.0625 45.0938 64.9844
Q41.3125 65.9219 37.5938 65.9219
Q27.8281 65.9219 22.6719 59.3281
Q17.5312 52.7344 16.7969 39.4062
Q19.6719 43.6562 24.0156 45.9219
Q28.375 48.1875 33.5938 48.1875
Q44.5781 48.1875 50.9531 41.5156
Q57.3281 34.8594 57.3281 23.3906
Q57.3281 12.1562 50.6875 5.35938
Q44.0469 -1.42188 33.0156 -1.42188
Q20.3594 -1.42188 13.6719 8.26562
Q6.98438 17.9688 6.98438 36.375
Q6.98438 53.6562 15.1875 63.9375
Q23.3906 74.2188 37.2031 74.2188
Q40.9219 74.2188 44.7031 73.4844
Q48.4844 72.75 52.5938 71.2969" id="BitstreamVeraSans-Roman-36"/>
      </defs>
      <g transform="translate(82.73 275.47125)scale(0.12 -0.12)">
       <use xlink:href="#BitstreamVeraSans-Roman-36"/>
       <use x="63.623046875" xlink:href="#BitstreamVeraSans-Roman-30"/>
       <use x="127.24609375" xlink:href="#BitstreamVeraSans-Roman-30"/>
      </g>
     </g>
    </g>
    <g id="ytick_5">
     <g id="line2d_22">
      <g>
       <use style="stroke:#000000;stroke-width:0.5;" x="108.0" xlink:href="#md7965d1ba0" y="168.48"/>
      </g>
     </g>
     <g id="line2d_23">
      <g>
       <use style="stroke:#000000;stroke-width:0.5;" x="777.6" xlink:href="#md9a1c1a7cd" y="168.48"/>
      </g>
     </g>
     <g id="text_11">
      <!-- 800 -->
      <defs>
       <path d="
M31.7812 34.625
Q24.75 34.625 20.7188 30.8594
Q16.7031 27.0938 16.7031 20.5156
Q16.7031 13.9219 20.7188 10.1562
Q24.75 6.39062 31.7812 6.39062
Q38.8125 6.39062 42.8594 10.1719
Q46.9219 13.9688 46.9219 20.5156
Q46.9219 27.0938 42.8906 30.8594
Q38.875 34.625 31.7812 34.625
M21.9219 38.8125
Q15.5781 40.375 12.0312 44.7188
Q8.5 49.0781 8.5 55.3281
Q8.5 64.0625 14.7188 69.1406
Q20.9531 74.2188 31.7812 74.2188
Q42.6719 74.2188 48.875 69.1406
Q55.0781 64.0625 55.0781 55.3281
Q55.0781 49.0781 51.5312 44.7188
Q48 40.375 41.7031 38.8125
Q48.8281 37.1562 52.7969 32.3125
Q56.7812 27.4844 56.7812 20.5156
Q56.7812 9.90625 50.3125 4.23438
Q43.8438 -1.42188 31.7812 -1.42188
Q19.7344 -1.42188 13.25 4.23438
Q6.78125 9.90625 6.78125 20.5156
Q6.78125 27.4844 10.7812 32.3125
Q14.7969 37.1562 21.9219 38.8125
M18.3125 54.3906
Q18.3125 48.7344 21.8438 45.5625
Q25.3906 42.3906 31.7812 42.3906
Q38.1406 42.3906 41.7188 45.5625
Q45.3125 48.7344 45.3125 54.3906
Q45.3125 60.0625 41.7188 63.2344
Q38.1406 66.4062 31.7812 66.4062
Q25.3906 66.4062 21.8438 63.2344
Q18.3125 60.0625 18.3125 54.3906" id="BitstreamVeraSans-Roman-38"/>
      </defs>
      <g transform="translate(82.705625 171.79125)scale(0.12 -0.12)">
       <use xlink:href="#BitstreamVeraSans-Roman-38"/>
       <use x="63.623046875" xlink:href="#BitstreamVeraSans-Roman-30"/>
       <use x="127.24609375" xlink:href="#BitstreamVeraSans-Roman-30"/>
      </g>
     </g>
    </g>
    <g id="ytick_6">
     <g id="line2d_24">
      <g>
       <use style="stroke:#000000;stroke-width:0.5;" x="108.0" xlink:href="#md7965d1ba0" y="64.8"/>
      </g>
     </g>
     <g id="line2d_25">
      <g>
       <use style="stroke:#000000;stroke-width:0.5;" x="777.6" xlink:href="#md9a1c1a7cd" y="64.8"/>
      </g>
     </g>
     <g id="text_12">
      <!-- 1000 -->
      <g transform="translate(75.575 68.11125)scale(0.12 -0.12)">
       <use xlink:href="#BitstreamVeraSans-Roman-31"/>
       <use x="63.623046875" xlink:href="#BitstreamVeraSans-Roman-30"/>
       <use x="127.24609375" xlink:href="#BitstreamVeraSans-Roman-30"/>
       <use x="190.869140625" xlink:href="#BitstreamVeraSans-Roman-30"/>
      </g>
     </g>
    </g>
    <g id="text_13">
     <!-- particle numbers -->
     <defs>
      <path d="
M54.8906 33.0156
L54.8906 0
L45.9062 0
L45.9062 32.7188
Q45.9062 40.4844 42.875 44.3281
Q39.8438 48.1875 33.7969 48.1875
Q26.5156 48.1875 22.3125 43.5469
Q18.1094 38.9219 18.1094 30.9062
L18.1094 0
L9.07812 0
L9.07812 54.6875
L18.1094 54.6875
L18.1094 46.1875
Q21.3438 51.125 25.7031 53.5625
Q30.0781 56 35.7969 56
Q45.2188 56 50.0469 50.1719
Q54.8906 44.3438 54.8906 33.0156" id="BitstreamVeraSans-Roman-6e"/>
      <path d="
M56.2031 29.5938
L56.2031 25.2031
L14.8906 25.2031
Q15.4844 15.9219 20.4844 11.0625
Q25.4844 6.20312 34.4219 6.20312
Q39.5938 6.20312 44.4531 7.46875
Q49.3125 8.73438 54.1094 11.2812
L54.1094 2.78125
Q49.2656 0.734375 44.1875 -0.34375
Q39.1094 -1.42188 33.8906 -1.42188
Q20.7969 -1.42188 13.1562 6.1875
Q5.51562 13.8125 5.51562 26.8125
Q5.51562 40.2344 12.7656 48.1094
Q20.0156 56 32.3281 56
Q43.3594 56 49.7812 48.8906
Q56.2031 41.7969 56.2031 29.5938
M47.2188 32.2344
Q47.125 39.5938 43.0938 43.9844
Q39.0625 48.3906 32.4219 48.3906
Q24.9062 48.3906 20.3906 44.1406
Q15.875 39.8906 15.1875 32.1719
z
" id="BitstreamVeraSans-Roman-65"/>
      <path d="
M18.1094 8.20312
L18.1094 -20.7969
L9.07812 -20.7969
L9.07812 54.6875
L18.1094 54.6875
L18.1094 46.3906
Q20.9531 51.2656 25.2656 53.625
Q29.5938 56 35.5938 56
Q45.5625 56 51.7812 48.0938
Q58.0156 40.1875 58.0156 27.2969
Q58.0156 14.4062 51.7812 6.48438
Q45.5625 -1.42188 35.5938 -1.42188
Q29.5938 -1.42188 25.2656 0.953125
Q20.9531 3.32812 18.1094 8.20312
M48.6875 27.2969
Q48.6875 37.2031 44.6094 42.8438
Q40.5312 48.4844 33.4062 48.4844
Q26.2656 48.4844 22.1875 42.8438
Q18.1094 37.2031 18.1094 27.2969
Q18.1094 17.3906 22.1875 11.75
Q26.2656 6.10938 33.4062 6.10938
Q40.5312 6.10938 44.6094 11.75
Q48.6875 17.3906 48.6875 27.2969" id="BitstreamVeraSans-Roman-70"/>
      <path d="
M48.7812 52.5938
L48.7812 44.1875
Q44.9688 46.2969 41.1406 47.3438
Q37.3125 48.3906 33.4062 48.3906
Q24.6562 48.3906 19.8125 42.8438
Q14.9844 37.3125 14.9844 27.2969
Q14.9844 17.2812 19.8125 11.7344
Q24.6562 6.20312 33.4062 6.20312
Q37.3125 6.20312 41.1406 7.25
Q44.9688 8.29688 48.7812 10.4062
L48.7812 2.09375
Q45.0156 0.34375 40.9844 -0.53125
Q36.9688 -1.42188 32.4219 -1.42188
Q20.0625 -1.42188 12.7812 6.34375
Q5.51562 14.1094 5.51562 27.2969
Q5.51562 40.6719 12.8594 48.3281
Q20.2188 56 33.0156 56
Q37.1562 56 41.1094 55.1406
Q45.0625 54.2969 48.7812 52.5938" id="BitstreamVeraSans-Roman-63"/>
      <path d="
M34.2812 27.4844
Q23.3906 27.4844 19.1875 25
Q14.9844 22.5156 14.9844 16.5
Q14.9844 11.7188 18.1406 8.90625
Q21.2969 6.10938 26.7031 6.10938
Q34.1875 6.10938 38.7031 11.4062
Q43.2188 16.7031 43.2188 25.4844
L43.2188 27.4844
z

M52.2031 31.2031
L52.2031 0
L43.2188 0
L43.2188 8.29688
Q40.1406 3.32812 35.5469 0.953125
Q30.9531 -1.42188 24.3125 -1.42188
Q15.9219 -1.42188 10.9531 3.29688
Q6 8.01562 6 15.9219
Q6 25.1406 12.1719 29.8281
Q18.3594 34.5156 30.6094 34.5156
L43.2188 34.5156
L43.2188 35.4062
Q43.2188 41.6094 39.1406 45
Q35.0625 48.3906 27.6875 48.3906
Q23 48.3906 18.5469 47.2656
Q14.1094 46.1406 10.0156 43.8906
L10.0156 52.2031
Q14.9375 54.1094 19.5781 55.0469
Q24.2188 56 28.6094 56
Q40.4844 56 46.3438 49.8438
Q52.2031 43.7031 52.2031 31.2031" id="BitstreamVeraSans-Roman-61"/>
      <path d="
M9.42188 54.6875
L18.4062 54.6875
L18.4062 0
L9.42188 0
z

M9.42188 75.9844
L18.4062 75.9844
L18.4062 64.5938
L9.42188 64.5938
z
" id="BitstreamVeraSans-Roman-69"/>
      <path d="
M48.6875 27.2969
Q48.6875 37.2031 44.6094 42.8438
Q40.5312 48.4844 33.4062 48.4844
Q26.2656 48.4844 22.1875 42.8438
Q18.1094 37.2031 18.1094 27.2969
Q18.1094 17.3906 22.1875 11.75
Q26.2656 6.10938 33.4062 6.10938
Q40.5312 6.10938 44.6094 11.75
Q48.6875 17.3906 48.6875 27.2969
M18.1094 46.3906
Q20.9531 51.2656 25.2656 53.625
Q29.5938 56 35.5938 56
Q45.5625 56 51.7812 48.0938
Q58.0156 40.1875 58.0156 27.2969
Q58.0156 14.4062 51.7812 6.48438
Q45.5625 -1.42188 35.5938 -1.42188
Q29.5938 -1.42188 25.2656 0.953125
Q20.9531 3.32812 18.1094 8.20312
L18.1094 0
L9.07812 0
L9.07812 75.9844
L18.1094 75.9844
z
" id="BitstreamVeraSans-Roman-62"/>
      <path d="
M41.1094 46.2969
Q39.5938 47.1719 37.8125 47.5781
Q36.0312 48 33.8906 48
Q26.2656 48 22.1875 43.0469
Q18.1094 38.0938 18.1094 28.8125
L18.1094 0
L9.07812 0
L9.07812 54.6875
L18.1094 54.6875
L18.1094 46.1875
Q20.9531 51.1719 25.4844 53.5781
Q30.0312 56 36.5312 56
Q37.4531 56 38.5781 55.875
Q39.7031 55.7656 41.0625 55.5156
z
" id="BitstreamVeraSans-Roman-72"/>
      <path d="
M9.42188 75.9844
L18.4062 75.9844
L18.4062 0
L9.42188 0
z
" id="BitstreamVeraSans-Roman-6c"/>
      <path d="
M8.5 21.5781
L8.5 54.6875
L17.4844 54.6875
L17.4844 21.9219
Q17.4844 14.1562 20.5 10.2656
Q23.5312 6.39062 29.5938 6.39062
Q36.8594 6.39062 41.0781 11.0312
Q45.3125 15.6719 45.3125 23.6875
L45.3125 54.6875
L54.2969 54.6875
L54.2969 0
L45.3125 0
L45.3125 8.40625
Q42.0469 3.42188 37.7188 1
Q33.4062 -1.42188 27.6875 -1.42188
Q18.2656 -1.42188 13.375 4.4375
Q8.5 10.2969 8.5 21.5781" id="BitstreamVeraSans-Roman-75"/>
     </defs>
     <g transform="translate(68.079375 374.78625)rotate(-90.0)scale(0.12 -0.12)">
      <use xlink:href="#BitstreamVeraSans-Roman-70"/>
      <use x="63.4765625" xlink:href="#BitstreamVeraSans-Roman-61"/>
      <use x="124.755859375" xlink:href="#BitstreamVeraSans-Roman-72"/>
      <use x="165.869140625" xlink:href="#BitstreamVeraSans-Roman-74"/>
      <use x="205.078125" xlink:href="#BitstreamVeraSans-Roman-69"/>
      <use x="232.861328125" xlink:href="#BitstreamVeraSans-Roman-63"/>
      <use x="287.841796875" xlink:href="#BitstreamVeraSans-Roman-6c"/>
      <use x="315.625" xlink:href="#BitstreamVeraSans-Roman-65"/>
      <use x="377.1484375" xlink:href="#BitstreamVeraSans-Roman-20"/>
      <use x="408.935546875" xlink:href="#BitstreamVeraSans-Roman-6e"/>
      <use x="472.314453125" xlink:href="#BitstreamVeraSans-Roman-75"/>
      <use x="535.693359375" xlink:href="#BitstreamVeraSans-Roman-6d"/>
      <use x="633.10546875" xlink:href="#BitstreamVeraSans-Roman-62"/>
      <use x="696.58203125" xlink:href="#BitstreamVeraSans-Roman-65"/>
      <use x="758.10546875" xlink:href="#BitstreamVeraSans-Roman-72"/>
      <use x="799.21875" xlink:href="#BitstreamVeraSans-Roman-73"/>
     </g>
    </g>
   </g>
   <g id="legend_1">
    <g id="patch_7">
     <path d="
M697.504 101.224
L774.1 101.224
L774.1 68.3
L697.504 68.3
z
" style="fill:#ffffff;stroke:#000000;stroke-linejoin:miter;"/>
    </g>
    <g id="line2d_26">
     <path d="
M702.404 73.9689
L712.204 73.9689" style="fill:none;stroke:#ff0000;stroke-linecap:square;"/>
    </g>
    <g id="line2d_27"/>
    <g id="text_14">
     <!-- PKAcAMP2 el.0 -->
     <defs>
      <path d="
M34.1875 63.1875
L20.7969 26.9062
L47.6094 26.9062
z

M28.6094 72.9062
L39.7969 72.9062
L67.5781 0
L57.3281 0
L50.6875 18.7031
L17.8281 18.7031
L11.1875 0
L0.78125 0
z
" id="BitstreamVeraSans-Roman-41"/>
      <path d="
M10.6875 12.4062
L21 12.4062
L21 0
L10.6875 0
z
" id="BitstreamVeraSans-Roman-2e"/>
      <path d="
M19.6719 64.7969
L19.6719 37.4062
L32.0781 37.4062
Q38.9688 37.4062 42.7188 40.9688
Q46.4844 44.5312 46.4844 51.125
Q46.4844 57.6719 42.7188 61.2344
Q38.9688 64.7969 32.0781 64.7969
z

M9.8125 72.9062
L32.0781 72.9062
Q44.3438 72.9062 50.6094 67.3594
Q56.8906 61.8125 56.8906 51.125
Q56.8906 40.3281 50.6094 34.8125
Q44.3438 29.2969 32.0781 29.2969
L19.6719 29.2969
L19.6719 0
L9.8125 0
z
" id="BitstreamVeraSans-Roman-50"/>
      <path d="
M9.8125 72.9062
L19.6719 72.9062
L19.6719 42.0938
L52.3906 72.9062
L65.0938 72.9062
L28.9062 38.9219
L67.6719 0
L54.6875 0
L19.6719 35.1094
L19.6719 0
L9.8125 0
z
" id="BitstreamVeraSans-Roman-4b"/>
      <path d="
M9.8125 72.9062
L24.5156 72.9062
L43.1094 23.2969
L61.8125 72.9062
L76.5156 72.9062
L76.5156 0
L66.8906 0
L66.8906 64.0156
L48.0938 14.0156
L38.1875 14.0156
L19.3906 64.0156
L19.3906 0
L9.8125 0
z
" id="BitstreamVeraSans-Roman-4d"/>
     </defs>
     <g transform="translate(719.90359375 76.41890625)scale(0.07 -0.07)">
      <use xlink:href="#BitstreamVeraSans-Roman-50"/>
      <use x="60.302734375" xlink:href="#BitstreamVeraSans-Roman-4b"/>
      <use x="124.12890625" xlink:href="#BitstreamVeraSans-Roman-41"/>
      <use x="190.787109375" xlink:href="#BitstreamVeraSans-Roman-63"/>
      <use x="245.767578125" xlink:href="#BitstreamVeraSans-Roman-41"/>
      <use x="314.17578125" xlink:href="#BitstreamVeraSans-Roman-4d"/>
      <use x="400.455078125" xlink:href="#BitstreamVeraSans-Roman-50"/>
      <use x="460.7578125" xlink:href="#BitstreamVeraSans-Roman-32"/>
      <use x="524.380859375" xlink:href="#BitstreamVeraSans-Roman-20"/>
      <use x="556.16796875" xlink:href="#BitstreamVeraSans-Roman-65"/>
      <use x="617.69140625" xlink:href="#BitstreamVeraSans-Roman-6c"/>
      <use x="645.474609375" xlink:href="#BitstreamVeraSans-Roman-2e"/>
      <use x="677.26171875" xlink:href="#BitstreamVeraSans-Roman-30"/>
     </g>
    </g>
    <g id="line2d_28">
     <path d="
M702.404 84.2436
L712.204 84.2436" style="fill:none;stroke:#008000;stroke-linecap:square;"/>
    </g>
    <g id="line2d_29"/>
    <g id="text_15">
     <!-- PKAcAMP2 el.1 -->
     <g transform="translate(719.90359375 86.69359375)scale(0.07 -0.07)">
      <use xlink:href="#BitstreamVeraSans-Roman-50"/>
      <use x="60.302734375" xlink:href="#BitstreamVeraSans-Roman-4b"/>
      <use x="124.12890625" xlink:href="#BitstreamVeraSans-Roman-41"/>
      <use x="190.787109375" xlink:href="#BitstreamVeraSans-Roman-63"/>
      <use x="245.767578125" xlink:href="#BitstreamVeraSans-Roman-41"/>
      <use x="314.17578125" xlink:href="#BitstreamVeraSans-Roman-4d"/>
      <use x="400.455078125" xlink:href="#BitstreamVeraSans-Roman-50"/>
      <use x="460.7578125" xlink:href="#BitstreamVeraSans-Roman-32"/>
      <use x="524.380859375" xlink:href="#BitstreamVeraSans-Roman-20"/>
      <use x="556.16796875" xlink:href="#BitstreamVeraSans-Roman-65"/>
      <use x="617.69140625" xlink:href="#BitstreamVeraSans-Roman-6c"/>
      <use x="645.474609375" xlink:href="#BitstreamVeraSans-Roman-2e"/>
      <use x="677.26171875" xlink:href="#BitstreamVeraSans-Roman-31"/>
     </g>
    </g>
    <g id="line2d_30">
     <path d="
M702.404 94.5183
L712.204 94.5183" style="fill:none;stroke:#0000ff;stroke-linecap:square;"/>
    </g>
    <g id="line2d_31"/>
    <g id="text_16">
     <!-- PKAcAMP2 el.2 -->
     <g transform="translate(719.90359375 96.96828125)scale(0.07 -0.07)">
      <use xlink:href="#BitstreamVeraSans-Roman-50"/>
      <use x="60.302734375" xlink:href="#BitstreamVeraSans-Roman-4b"/>
      <use x="124.12890625" xlink:href="#BitstreamVeraSans-Roman-41"/>
      <use x="190.787109375" xlink:href="#BitstreamVeraSans-Roman-63"/>
      <use x="245.767578125" xlink:href="#BitstreamVeraSans-Roman-41"/>
      <use x="314.17578125" xlink:href="#BitstreamVeraSans-Roman-4d"/>
      <use x="400.455078125" xlink:href="#BitstreamVeraSans-Roman-50"/>
      <use x="460.7578125" xlink:href="#BitstreamVeraSans-Roman-32"/>
      <use x="524.380859375" xlink:href="#BitstreamVeraSans-Roman-20"/>
      <use x="556.16796875" xlink:href="#BitstreamVeraSans-Roman-65"/>
      <use x="617.69140625" xlink:href="#BitstreamVeraSans-Roman-6c"/>
      <use x="645.474609375" xlink:href="#BitstreamVeraSans-Roman-2e"/>
      <use x="677.26171875" xlink:href="#BitstreamVeraSans-Roman-32"/>
     </g>
    </g>
   </g>
  </g>
 </g>
 <defs>
  <clipPath id="p7ceb695115">
   <rect height="518.4" width="669.6" x="108.0" y="64.8"/>
  </clipPath>
 </defs>
</svg>
