<?xml version="1.0" encoding="utf-8" standalone="no"?>
<!DOCTYPE svg PUBLIC "-//W3C//DTD SVG 1.1//EN"
  "http://www.w3.org/Graphics/SVG/1.1/DTD/svg11.dtd">
<!-- Created with matplotlib (http://matplotlib.org/) -->
<svg height="648pt" version="1.1" viewBox="0 0 864 648" width="864pt" xmlns="http://www.w3.org/2000/svg" xmlns:xlink="http://www.w3.org/1999/xlink">
 <defs>
  <style type="text/css">
*{stroke-linecap:butt;stroke-linejoin:round;}
  </style>
 </defs>
 <g id="figure_1">
  <g id="patch_1">
   <path d="
M0 648
L864 648
L864 0
L0 0
z
" style="fill:#ffffff;"/>
  </g>
  <g id="axes_1">
   <g id="patch_2">
    <path d="
M108 583.2
L777.6 583.2
L777.6 64.8
L108 64.8
z
" style="fill:#ffffff;"/>
   </g>
   <g id="line2d_1">
    <path clip-path="url(#p7ceb695115)" d="
M108 583.2
L121.392 583.2
L122.062 581.719
L122.731 581.719
L123.401 580.238
L124.07 583.2
L126.749 583.2
L127.418 581.719
L128.088 581.719
L128.758 583.2
L129.427 580.238
L130.766 583.2
L132.775 583.2
L133.445 581.719
L134.114 581.719
L134.784 583.2
L136.793 583.2
L137.462 581.719
L139.471 581.719
L140.141 583.2
L140.81 583.2
L141.48 581.719
L142.15 581.719
L142.819 583.2
L152.194 583.2
L152.863 580.238
L153.533 583.2
L154.202 583.2
L154.872 581.719
L155.542 581.719
L156.211 583.2
L157.55 583.2
L158.22 581.719
L162.907 581.719
L163.577 583.2
L168.264 583.2
L168.934 578.757
L169.603 581.719
L170.273 583.2
L172.951 583.2
L173.621 581.719
L174.29 581.719
L174.96 583.2
L182.326 583.2
L182.995 581.719
L183.665 583.2
L184.334 581.719
L185.004 583.2
L187.013 583.2
L187.682 580.238
L189.022 580.238
L190.361 583.2
L191.03 583.2
L191.7 580.238
L192.37 583.2
L193.039 581.719
L193.709 574.313
L194.378 580.238
L195.718 583.2
L196.387 581.719
L197.057 581.719
L197.726 578.757
L198.396 583.2
L199.066 581.719
L200.405 581.719
L201.074 583.2
L202.414 583.2
L203.083 580.238
L203.753 581.719
L205.092 581.719
L205.762 583.2
L206.431 581.719
L207.101 583.2
L207.77 583.2
L209.779 578.757
L211.118 581.719
L211.788 580.238
L212.458 580.238
L213.797 583.2
L214.466 580.238
L215.806 580.238
L216.475 581.719
L218.484 581.719
L219.154 580.238
L219.823 581.719
L221.162 581.719
L221.832 577.275
L222.502 581.719
L223.171 580.238
L223.841 577.275
L224.51 581.719
L225.18 581.719
L225.85 583.2
L226.519 578.757
L227.189 577.275
L227.858 580.238
L228.528 577.275
L229.198 581.719
L229.867 583.2
L230.537 578.757
L231.206 583.2
L231.876 581.719
L233.215 581.719
L233.885 583.2
L234.554 580.238
L235.224 581.719
L235.894 580.238
L236.563 583.2
L237.233 578.757
L237.902 581.719
L238.572 580.238
L239.242 583.2
L239.911 583.2
L240.581 581.719
L241.25 583.2
L241.92 583.2
L242.59 581.719
L243.259 583.2
L244.598 583.2
L245.268 578.757
L246.607 581.719
L249.955 581.719
L250.625 580.238
L251.294 577.275
L251.964 581.719
L253.303 581.719
L253.973 580.238
L254.642 581.719
L255.312 581.719
L255.982 583.2
L256.651 577.275
L257.321 583.2
L257.99 580.238
L259.33 583.2
L261.338 583.2
L262.008 578.757
L262.678 581.719
L263.347 581.719
L264.017 578.757
L265.356 581.719
L266.026 580.238
L266.695 583.2
L267.365 583.2
L268.034 581.719
L268.704 578.757
L269.374 581.719
L270.043 583.2
L271.382 583.2
L272.052 580.238
L274.73 580.238
L275.4 581.719
L276.07 580.238
L276.739 583.2
L277.409 581.719
L278.078 583.2
L278.748 583.2
L279.418 581.719
L280.087 583.2
L280.757 581.719
L281.426 583.2
L282.096 581.719
L284.105 581.719
L284.774 583.2
L285.444 581.719
L289.462 581.719
L290.131 583.2
L290.801 581.719
L291.47 581.719
L292.14 580.238
L292.81 581.719
L293.479 580.238
L294.149 581.719
L295.488 581.719
L296.158 583.2
L296.827 583.2
L297.497 580.238
L298.836 583.2
L300.175 583.2
L300.845 581.719
L301.514 581.719
L302.184 583.2
L302.854 581.719
L303.523 583.2
L304.193 580.238
L304.862 581.719
L305.532 580.238
L306.202 583.2
L306.871 583.2
L307.541 581.719
L309.55 581.719
L310.219 580.238
L310.889 581.719
L312.898 581.719
L313.567 583.2
L314.237 581.719
L314.906 581.719
L315.576 583.2
L316.246 583.2
L316.915 581.719
L317.585 583.2
L318.254 580.238
L318.924 583.2
L319.594 580.238
L320.263 580.238
L320.933 581.719
L321.602 581.719
L322.272 583.2
L322.942 583.2
L324.281 580.238
L326.959 580.238
L327.629 581.719
L328.298 580.238
L328.968 583.2
L331.646 583.2
L332.316 581.719
L334.994 581.719
L335.664 583.2
L336.334 580.238
L337.003 580.238
L337.673 578.757
L338.342 583.2
L339.012 581.719
L339.682 581.719
L340.351 580.238
L341.021 583.2
L343.699 583.2
L344.369 580.238
L345.038 583.2
L345.708 578.757
L346.378 578.757
L347.047 580.238
L347.717 583.2
L348.386 581.719
L349.056 583.2
L349.726 580.238
L350.395 578.757
L351.065 578.757
L351.734 583.2
L352.404 581.719
L353.074 583.2
L354.413 580.238
L355.752 583.2
L356.422 583.2
L357.091 580.238
L358.43 583.2
L361.778 583.2
L362.448 581.719
L363.787 581.719
L364.457 580.238
L365.126 581.719
L365.796 578.757
L366.466 581.719
L367.135 583.2
L367.805 581.719
L368.474 583.2
L369.144 580.238
L369.814 583.2
L370.483 581.719
L371.153 583.2
L371.822 583.2
L372.492 581.719
L373.162 583.2
L373.831 583.2
L374.501 581.719
L375.17 581.719
L375.84 583.2
L376.51 583.2
L377.179 580.238
L377.849 583.2
L378.518 580.238
L379.188 580.238
L380.527 583.2
L381.197 580.238
L381.866 580.238
L382.536 578.757
L383.206 583.2
L384.545 583.2
L385.214 580.238
L386.554 580.238
L387.223 581.719
L388.562 581.719
L389.232 583.2
L389.902 583.2
L390.571 581.719
L391.241 581.719
L391.91 578.757
L392.58 581.719
L393.25 583.2
L393.919 583.2
L395.258 580.238
L395.928 583.2
L397.267 580.238
L398.606 580.238
L399.276 581.719
L399.946 578.757
L400.615 583.2
L401.285 581.719
L401.954 583.2
L404.633 583.2
L405.302 580.238
L406.642 580.238
L407.981 583.2
L409.32 580.238
L410.659 583.2
L411.329 580.238
L411.998 578.757
L413.338 581.719
L414.007 578.757
L414.677 581.719
L415.346 580.238
L416.016 581.719
L416.686 578.757
L417.355 581.719
L418.025 580.238
L418.694 580.238
L419.364 581.719
L420.034 580.238
L421.373 580.238
L422.042 581.719
L422.712 578.757
L424.051 578.757
L424.721 581.719
L425.39 583.2
L426.06 583.2
L426.73 580.238
L427.399 580.238
L428.069 577.275
L428.738 581.719
L429.408 583.2
L430.078 583.2
L430.747 578.757
L431.417 577.275
L432.086 583.2
L432.756 583.2
L433.426 581.719
L434.095 581.719
L434.765 580.238
L435.434 577.275
L436.104 580.238
L437.443 583.2
L438.113 581.719
L438.782 581.719
L439.452 578.757
L440.122 581.719
L440.791 580.238
L441.461 583.2
L442.13 580.238
L442.8 583.2
L444.809 583.2
L445.478 580.238
L446.148 578.757
L446.818 581.719
L447.487 578.757
L448.157 580.238
L448.826 578.757
L449.496 565.426
L450.166 559.502
L450.835 560.983
L451.505 549.134
L452.174 534.322
L452.844 526.917
L453.514 506.181
L454.183 507.662
L454.853 506.181
L455.522 520.992
L456.192 495.813
L456.862 512.105
L457.531 494.331
L458.201 497.294
L458.87 479.52
L459.54 489.888
L460.21 454.341
L460.879 479.52
L461.549 482.482
L462.218 461.746
L463.558 449.897
L464.227 461.746
L464.897 486.926
L465.566 481.001
L466.236 478.039
L466.906 457.303
L467.575 463.227
L468.245 464.709
L468.914 454.341
L469.584 439.529
L470.254 478.039
L470.923 466.19
L471.593 509.143
L472.262 457.303
L472.932 463.227
L473.602 481.001
L474.271 472.114
L474.941 481.001
L475.61 461.746
L476.28 460.265
L476.95 469.152
L477.619 463.227
L478.289 485.445
L478.958 449.897
L479.628 448.416
L480.298 439.529
L480.967 448.416
L481.637 452.859
L482.306 445.454
L482.976 497.294
L483.646 482.482
L484.315 448.416
L485.654 473.595
L486.324 492.85
L486.994 503.218
L487.663 466.19
L488.333 495.813
L489.002 483.963
L489.672 488.407
L490.342 460.265
L491.011 482.482
L491.681 475.077
L492.35 483.963
L493.02 478.039
L493.69 467.671
L494.359 488.407
L495.029 489.888
L495.698 495.813
L497.038 489.888
L497.707 472.114
L498.377 438.048
L499.046 483.963
L499.716 473.595
L501.055 501.737
L501.725 467.671
L502.394 458.784
L503.064 481.001
L503.734 466.19
L504.403 481.001
L505.742 516.549
L506.412 482.482
L507.082 498.775
L507.751 463.227
L508.421 485.445
L509.09 491.369
L509.76 498.775
L510.43 501.737
L511.099 506.181
L511.769 489.888
L512.438 489.888
L513.108 478.039
L513.778 501.737
L514.447 486.926
L515.117 501.737
L515.786 495.813
L516.456 507.662
L517.126 495.813
L517.795 510.624
L518.465 482.482
L519.134 473.595
L519.804 476.558
L520.474 512.105
L521.143 489.888
L521.813 510.624
L522.482 489.888
L523.152 482.482
L523.822 482.482
L524.491 476.558
L525.161 482.482
L525.83 489.888
L526.5 507.662
L527.839 466.19
L528.509 494.331
L529.178 491.369
L529.848 479.52
L530.518 519.511
L531.187 510.624
L532.526 481.001
L533.196 498.775
L535.205 460.265
L535.874 500.256
L536.544 481.001
L537.214 475.077
L537.883 503.218
L538.553 491.369
L539.222 506.181
L539.892 497.294
L540.562 504.699
L541.231 513.586
L541.901 500.256
L542.57 523.954
L543.24 500.256
L543.91 498.775
L544.579 495.813
L545.249 491.369
L545.918 463.227
L546.588 464.709
L547.258 506.181
L547.927 492.85
L548.597 494.331
L549.266 494.331
L549.936 500.256
L550.606 492.85
L551.275 504.699
L551.945 489.888
L552.614 491.369
L553.284 507.662
L553.954 483.963
L554.623 498.775
L555.293 481.001
L555.962 488.407
L556.632 489.888
L557.302 512.105
L557.971 506.181
L558.641 497.294
L559.31 485.445
L559.98 520.992
L560.65 526.917
L561.319 512.105
L561.989 516.549
L562.658 498.775
L563.328 500.256
L563.998 520.992
L564.667 492.85
L565.337 525.435
L566.006 515.067
L566.676 495.813
L567.346 491.369
L568.015 509.143
L568.685 497.294
L569.354 526.917
L570.024 501.737
L570.694 506.181
L571.363 495.813
L572.702 510.624
L573.372 504.699
L574.042 515.067
L574.711 504.699
L575.381 500.256
L576.05 509.143
L576.72 495.813
L577.39 519.511
L578.059 519.511
L578.729 492.85
L579.398 510.624
L580.068 501.737
L580.738 475.077
L581.407 495.813
L582.077 504.699
L582.746 504.699
L583.416 519.511
L584.086 515.067
L584.755 507.662
L585.425 504.699
L586.094 519.511
L586.764 519.511
L587.434 504.699
L588.103 510.624
L588.773 504.699
L589.442 516.549
L590.112 509.143
L590.782 504.699
L591.451 525.435
L592.121 485.445
L592.79 501.737
L593.46 504.699
L594.13 495.813
L594.799 519.511
L595.469 506.181
L596.138 510.624
L596.808 495.813
L597.478 513.586
L598.147 523.954
L598.817 522.473
L599.486 494.331
L600.156 489.888
L600.826 492.85
L601.495 525.435
L602.165 512.105
L602.834 512.105
L603.504 529.879
L604.174 506.181
L604.843 515.067
L605.513 509.143
L606.182 513.586
L606.852 516.549
L607.522 526.917
L608.191 523.954
L608.861 541.728
L609.53 515.067
L610.2 525.435
L610.87 497.294
L611.539 504.699
L612.209 519.511
L612.878 510.624
L613.548 519.511
L614.218 515.067
L614.887 532.841
L615.557 529.879
L616.226 534.322
L616.896 546.171
L617.566 515.067
L618.235 529.879
L618.905 518.03
L619.574 525.435
L620.244 515.067
L620.914 523.954
L621.583 515.067
L622.253 520.992
L622.922 540.247
L623.592 528.398
L624.262 491.369
L624.931 518.03
L625.601 523.954
L626.27 503.218
L626.94 523.954
L627.61 519.511
L628.279 520.992
L628.949 519.511
L629.618 516.549
L630.288 512.105
L630.958 506.181
L631.627 516.549
L632.297 535.803
L632.966 510.624
L633.636 510.624
L634.306 531.36
L634.975 538.766
L635.645 532.841
L636.314 555.058
L636.984 538.766
L637.654 512.105
L638.323 549.134
L638.993 531.36
L639.662 531.36
L640.332 515.067
L641.002 523.954
L641.671 516.549
L642.341 523.954
L643.01 540.247
L643.68 538.766
L644.35 547.653
L645.019 538.766
L645.689 559.502
L646.358 535.803
L647.028 537.285
L647.698 529.879
L648.367 544.69
L649.037 528.398
L649.706 532.841
L651.046 529.879
L651.715 540.247
L652.385 522.473
L653.054 523.954
L653.724 540.247
L654.394 528.398
L655.063 537.285
L655.733 523.954
L656.402 532.841
L657.072 544.69
L657.742 507.662
L659.081 538.766
L659.75 529.879
L660.42 523.954
L661.09 532.841
L661.759 535.803
L662.429 535.803
L663.098 538.766
L663.768 543.209
L664.438 526.917
L665.107 538.766
L665.777 529.879
L666.446 534.322
L667.116 537.285
L667.786 518.03
L668.455 506.181
L669.125 549.134
L669.794 526.917
L670.464 546.171
L671.134 537.285
L671.803 522.473
L672.473 535.803
L673.142 544.69
L673.812 544.69
L674.482 531.36
L675.151 534.322
L675.821 532.841
L676.49 523.954
L677.16 526.917
L677.83 543.209
L678.499 553.577
L679.169 535.803
L679.838 540.247
L680.508 540.247
L681.178 556.539
L681.847 538.766
L682.517 546.171
L683.186 555.058
L683.856 550.615
L684.526 553.577
L685.195 535.803
L685.865 525.435
L686.534 540.247
L687.204 531.36
L687.874 529.879
L688.543 549.134
L689.213 535.803
L689.882 534.322
L690.552 529.879
L691.222 555.058
L691.891 552.096
L692.561 555.058
L693.23 543.209
L693.9 547.653
L694.57 541.728
L695.239 532.841
L695.909 537.285
L696.578 538.766
L697.248 534.322
L697.918 559.502
L698.587 558.021
L699.257 553.577
L699.926 540.247
L700.596 553.577
L701.266 544.69
L701.935 559.502
L702.605 547.653
L703.274 552.096
L703.944 555.058
L704.614 559.502
L705.953 544.69
L706.622 552.096
L707.292 552.096
L707.962 556.539
L708.631 562.464
L709.301 555.058
L709.97 552.096
L710.64 543.209
L711.31 558.021
L711.979 544.69
L712.649 546.171
L713.318 553.577
L713.988 556.539
L714.658 549.134
L715.327 540.247
L715.997 546.171
L716.666 556.539
L717.336 558.021
L718.006 566.907
L718.675 565.426
L719.345 555.058
L720.014 556.539
L720.684 538.766
L721.354 559.502
L722.023 556.539
L722.693 560.983
L723.362 566.907
L724.032 560.983
L724.702 558.021
L725.371 558.021
L726.041 563.945
L726.71 555.058
L727.38 553.577
L728.05 555.058
L728.719 543.209
L729.389 552.096
L730.058 544.69
L731.398 562.464
L732.067 560.983
L732.737 563.945
L733.406 558.021
L734.076 565.426
L734.746 559.502
L735.415 556.539
L736.085 547.653
L736.754 556.539
L737.424 552.096
L738.094 560.983
L738.763 560.983
L739.433 563.945
L740.102 553.577
L740.772 565.426
L741.442 558.021
L742.111 555.058
L742.781 563.945
L743.45 552.096
L744.12 555.058
L744.79 555.058
L745.459 568.389
L746.129 566.907
L746.798 568.389
L747.468 546.171
L748.138 541.728
L748.807 559.502
L749.477 559.502
L750.146 569.87
L750.816 568.389
L752.155 559.502
L752.825 543.209
L753.494 556.539
L754.164 566.907
L754.834 569.87
L755.503 558.021
L756.842 566.907
L757.512 560.983
L758.182 563.945
L758.851 569.87
L759.521 568.389
L760.19 575.794
L760.86 572.832
L761.53 574.313
L762.199 569.87
L762.869 572.832
L763.538 569.87
L764.208 565.426
L764.878 563.945
L765.547 568.389
L766.217 560.983
L766.886 565.426
L767.556 563.945
L768.895 563.945
L769.565 562.464
L770.234 559.502
L770.904 563.945
L771.574 560.983
L772.243 571.351
L772.913 558.021
L773.582 563.945
L774.252 563.945
L774.922 572.832
L775.591 569.87
L776.261 565.426
L776.93 568.389
L777.6 574.313
L777.6 574.313" style="fill:none;stroke:#ff0000;stroke-linecap:square;"/>
   </g>
   <g id="line2d_2">
    <path clip-path="url(#p7ceb695115)" d="
M108 583.2
L120.722 583.2
L121.392 580.238
L122.062 581.719
L122.731 581.719
L123.401 583.2
L124.07 580.238
L126.749 580.238
L127.418 581.719
L128.758 581.719
L129.427 583.2
L130.766 580.238
L132.775 580.238
L133.445 581.719
L134.784 581.719
L135.454 580.238
L136.793 580.238
L137.462 581.719
L139.471 581.719
L140.141 580.238
L140.81 580.238
L141.48 581.719
L142.15 581.719
L142.819 580.238
L144.828 580.238
L145.498 581.719
L148.846 581.719
L149.515 580.238
L150.185 581.719
L150.854 581.719
L151.524 580.238
L152.194 580.238
L152.863 583.2
L153.533 580.238
L154.202 580.238
L154.872 581.719
L155.542 581.719
L156.211 580.238
L157.55 583.2
L158.22 581.719
L158.89 581.719
L159.559 583.2
L160.229 581.719
L162.238 581.719
L162.907 583.2
L164.246 580.238
L164.916 580.238
L165.586 581.719
L166.255 580.238
L166.925 580.238
L167.594 581.719
L168.264 581.719
L168.934 583.2
L169.603 580.238
L172.951 580.238
L173.621 581.719
L174.29 581.719
L174.96 583.2
L175.63 580.238
L180.986 580.238
L181.656 581.719
L182.326 580.238
L182.995 581.719
L183.665 580.238
L184.334 581.719
L185.004 580.238
L185.674 580.238
L186.343 581.719
L187.013 581.719
L187.682 583.2
L189.022 583.2
L189.691 581.719
L191.7 581.719
L192.37 578.757
L193.039 578.757
L193.709 580.238
L194.378 575.794
L195.048 575.794
L195.718 572.832
L196.387 574.313
L197.057 572.832
L197.726 577.275
L198.396 572.832
L199.066 572.832
L199.735 574.313
L200.405 572.832
L201.074 572.832
L201.744 574.313
L202.414 574.313
L203.083 575.794
L203.753 574.313
L204.422 575.794
L205.092 571.351
L205.762 572.832
L206.431 572.832
L207.101 571.351
L208.44 571.351
L209.11 572.832
L209.779 575.794
L210.449 575.794
L211.788 572.832
L212.458 575.794
L213.127 571.351
L213.797 572.832
L214.466 577.275
L215.806 574.313
L216.475 574.313
L217.145 575.794
L218.484 572.832
L219.154 574.313
L219.823 571.351
L220.493 571.351
L221.162 574.313
L221.832 572.832
L222.502 572.832
L223.171 571.351
L223.841 575.794
L224.51 571.351
L225.18 571.351
L225.85 569.87
L226.519 574.313
L227.189 575.794
L227.858 571.351
L228.528 578.757
L229.198 574.313
L229.867 571.351
L230.537 577.275
L231.206 571.351
L231.876 571.351
L232.546 572.832
L233.215 572.832
L233.885 571.351
L234.554 572.832
L235.224 569.87
L235.894 574.313
L236.563 571.351
L238.572 580.238
L239.242 572.832
L239.911 572.832
L240.581 574.313
L241.25 577.275
L243.259 577.275
L243.929 574.313
L244.598 574.313
L245.268 580.238
L245.938 577.275
L246.607 575.794
L247.277 575.794
L247.946 577.275
L248.616 574.313
L249.286 574.313
L249.955 577.275
L251.294 577.275
L251.964 574.313
L253.303 574.313
L253.973 575.794
L255.312 572.832
L255.982 572.832
L256.651 580.238
L257.321 575.794
L257.99 578.757
L259.33 575.794
L260.669 578.757
L262.008 578.757
L262.678 575.794
L263.347 575.794
L264.017 580.238
L264.686 578.757
L265.356 575.794
L266.026 575.794
L266.695 572.832
L268.034 578.757
L268.704 577.275
L269.374 574.313
L270.043 574.313
L270.713 575.794
L271.382 575.794
L272.722 578.757
L274.061 575.794
L274.73 575.794
L275.4 574.313
L276.07 577.275
L278.078 572.832
L280.757 578.757
L282.096 575.794
L282.766 577.275
L283.435 577.275
L284.105 578.757
L284.774 577.275
L285.444 577.275
L286.114 578.757
L286.783 575.794
L289.462 575.794
L290.131 574.313
L290.801 575.794
L291.47 575.794
L292.14 577.275
L292.81 577.275
L293.479 578.757
L294.149 575.794
L295.488 575.794
L296.158 577.275
L296.827 575.794
L297.497 577.275
L298.166 577.275
L298.836 574.313
L299.506 574.313
L300.175 577.275
L300.845 577.275
L301.514 575.794
L302.184 575.794
L302.854 577.275
L303.523 574.313
L304.193 578.757
L304.862 575.794
L305.532 580.238
L306.202 577.275
L306.871 575.794
L307.541 578.757
L308.21 575.794
L309.55 575.794
L310.219 578.757
L310.889 575.794
L312.228 578.757
L313.567 575.794
L314.237 577.275
L314.906 575.794
L316.915 575.794
L317.585 574.313
L318.254 580.238
L318.924 574.313
L319.594 577.275
L320.263 578.757
L321.602 578.757
L322.272 575.794
L322.942 578.757
L323.611 577.275
L327.629 577.275
L328.298 578.757
L328.968 574.313
L329.638 578.757
L330.307 580.238
L330.977 578.757
L331.646 578.757
L332.986 575.794
L333.655 577.275
L334.994 577.275
L335.664 574.313
L336.334 578.757
L337.003 577.275
L337.673 580.238
L338.342 574.313
L339.012 575.794
L339.682 575.794
L340.351 577.275
L341.69 574.313
L342.36 575.794
L343.03 575.794
L343.699 574.313
L344.369 580.238
L345.038 574.313
L345.708 577.275
L346.378 577.275
L347.047 580.238
L347.717 574.313
L349.056 574.313
L349.726 577.275
L350.395 577.275
L351.065 578.757
L351.734 574.313
L352.404 577.275
L353.074 575.794
L353.743 575.794
L354.413 578.757
L355.082 574.313
L355.752 572.832
L356.422 572.832
L357.091 578.757
L359.1 574.313
L359.77 575.794
L360.439 574.313
L361.109 575.794
L361.778 574.313
L362.448 577.275
L363.118 575.794
L363.787 575.794
L365.126 578.757
L365.796 578.757
L366.466 575.794
L367.135 574.313
L367.805 577.275
L368.474 577.275
L369.144 578.757
L369.814 575.794
L370.483 577.275
L372.492 577.275
L373.162 575.794
L375.17 580.238
L375.84 575.794
L376.51 575.794
L377.179 578.757
L377.849 575.794
L378.518 580.238
L379.188 578.757
L379.858 578.757
L380.527 575.794
L381.197 577.275
L382.536 577.275
L383.206 574.313
L384.545 574.313
L385.884 577.275
L386.554 577.275
L387.223 575.794
L387.893 575.794
L388.562 577.275
L389.232 575.794
L389.902 572.832
L390.571 575.794
L391.241 574.313
L391.91 577.275
L393.25 574.313
L393.919 574.313
L394.589 577.275
L395.258 577.275
L395.928 571.351
L396.598 574.313
L397.937 574.313
L398.606 575.794
L399.276 575.794
L399.946 574.313
L400.615 569.87
L401.285 575.794
L401.954 575.794
L402.624 574.313
L403.294 574.313
L403.963 572.832
L404.633 572.832
L405.302 578.757
L406.642 572.832
L407.311 571.351
L407.981 572.832
L408.65 571.351
L409.32 572.832
L409.99 571.351
L411.329 577.275
L412.668 577.275
L413.338 572.832
L414.007 574.313
L414.677 571.351
L415.346 572.832
L416.016 572.832
L416.686 575.794
L417.355 571.351
L418.694 574.313
L419.364 572.832
L420.703 572.832
L421.373 575.794
L422.712 578.757
L423.382 575.794
L424.051 574.313
L424.721 574.313
L425.39 572.832
L426.06 574.313
L426.73 578.757
L427.399 574.313
L428.069 577.275
L428.738 574.313
L429.408 574.313
L430.078 571.351
L430.747 578.757
L431.417 577.275
L432.086 571.351
L432.756 569.87
L433.426 574.313
L434.095 572.832
L434.765 574.313
L435.434 577.275
L436.104 574.313
L436.774 574.313
L437.443 572.832
L438.113 572.832
L438.782 574.313
L439.452 577.275
L440.122 574.313
L440.791 575.794
L441.461 571.351
L442.8 574.313
L443.47 572.832
L444.139 574.313
L444.809 574.313
L445.478 572.832
L446.148 574.313
L446.818 569.87
L447.487 571.351
L448.157 563.945
L448.826 562.464
L449.496 555.058
L450.166 538.766
L450.835 519.511
L451.505 488.407
L452.174 473.595
L453.514 430.642
L454.853 334.368
L455.522 300.302
L456.192 292.896
L456.862 260.311
L457.531 285.49
L458.87 202.546
L460.21 161.074
L461.549 138.857
L462.218 169.961
L462.888 172.923
L463.558 181.81
L464.897 115.159
L465.566 128.489
L466.236 137.376
L466.906 124.046
L468.245 138.857
L468.914 89.9794
L469.584 98.8663
L470.254 104.791
L470.923 122.565
L471.593 115.159
L472.262 168.48
L472.932 141.819
L473.602 103.31
L474.271 92.9417
L474.941 91.4606
L475.61 125.527
L476.28 140.338
L476.95 135.895
L477.619 128.489
L478.289 103.31
L478.958 106.272
L479.628 70.7246
L480.298 87.0171
L480.967 107.753
L481.637 97.3851
L482.306 137.376
L482.976 125.527
L483.646 121.083
L484.315 137.376
L484.985 137.376
L485.654 140.338
L486.324 147.744
L486.994 169.961
L487.663 178.848
L488.333 149.225
L489.002 180.329
L489.672 171.442
L490.342 177.367
L491.011 177.367
L491.681 156.631
L492.35 168.48
L493.02 186.254
L493.69 181.81
L494.359 175.886
L495.029 158.112
L495.698 201.065
L496.368 189.216
L497.038 187.735
L497.707 162.555
L498.377 161.074
L499.046 140.338
L499.716 156.631
L500.386 153.669
L501.055 131.451
L501.725 158.112
L502.394 150.706
L503.064 127.008
L503.734 128.489
L504.403 158.112
L505.073 129.97
L505.742 146.263
L506.412 177.367
L507.082 165.518
L507.751 193.659
L509.09 169.961
L509.76 187.735
L510.43 181.81
L511.099 206.99
L511.769 212.914
L512.438 206.99
L513.108 193.659
L513.778 208.471
L515.117 252.905
L516.456 206.99
L517.126 248.462
L517.795 238.094
L518.465 233.65
L519.134 215.877
L519.804 205.509
L520.474 217.358
L521.143 251.424
L521.813 245.499
L522.482 244.018
L523.152 239.575
L523.822 212.914
L524.491 205.509
L525.161 235.131
L525.83 248.462
L527.17 223.282
L527.839 221.801
L528.509 232.169
L529.178 239.575
L529.848 233.65
L530.518 201.065
L531.187 218.839
L531.857 198.103
L532.526 215.877
L533.196 199.584
L533.866 230.688
L534.535 223.282
L535.205 223.282
L535.874 209.952
L537.214 249.943
L537.883 244.018
L538.553 260.311
L539.222 235.131
L539.892 245.499
L540.562 242.537
L541.231 273.641
L541.901 264.754
L542.57 246.981
L543.24 246.981
L543.91 233.65
L544.579 260.311
L545.249 254.386
L545.918 241.056
L546.588 260.311
L547.258 251.424
L547.927 258.83
L548.597 254.386
L549.266 230.688
L549.936 248.462
L550.606 236.613
L551.275 257.349
L551.945 232.169
L552.614 245.499
L553.954 239.575
L554.623 212.914
L555.293 236.613
L555.962 235.131
L556.632 244.018
L557.302 236.613
L557.971 239.575
L558.641 252.905
L559.31 242.537
L559.98 261.792
L560.65 275.122
L561.319 263.273
L561.989 266.235
L562.658 270.679
L563.328 255.867
L563.998 244.018
L564.667 275.122
L565.337 239.575
L566.006 269.198
L566.676 278.085
L567.346 282.528
L568.015 291.415
L568.685 289.934
L569.354 260.311
L570.024 294.377
L570.694 278.085
L571.363 294.377
L572.033 298.821
L572.702 273.641
L573.372 300.302
L574.042 263.273
L574.711 255.867
L575.381 252.905
L576.05 263.273
L576.72 263.273
L577.39 248.462
L578.059 260.311
L578.729 300.302
L579.398 285.49
L580.068 273.641
L580.738 285.49
L581.407 269.198
L582.077 270.679
L582.746 286.971
L583.416 309.189
L584.086 289.934
L584.755 291.415
L585.425 304.745
L586.094 310.67
L587.434 304.745
L588.103 318.075
L588.773 312.151
L589.442 275.122
L590.112 266.235
L590.782 273.641
L591.451 257.349
L592.121 278.085
L592.79 270.679
L593.46 275.122
L594.13 281.047
L594.799 273.641
L595.469 272.16
L596.138 284.009
L596.808 312.151
L597.478 282.528
L598.147 297.339
L598.817 281.047
L599.486 270.679
L600.156 273.641
L600.826 284.009
L601.495 269.198
L602.165 281.047
L602.834 279.566
L603.504 291.415
L604.174 281.047
L604.843 282.528
L605.513 294.377
L606.182 270.679
L606.852 273.641
L607.522 292.896
L608.191 275.122
L608.861 267.717
L609.53 281.047
L610.2 288.453
L610.87 289.934
L611.539 267.717
L612.209 269.198
L613.548 306.226
L614.218 298.821
L614.887 304.745
L615.557 291.415
L616.226 306.226
L616.896 313.632
L617.566 303.264
L618.235 319.557
L618.905 344.736
L619.574 334.368
L620.244 343.255
L621.583 319.557
L622.253 318.075
L622.922 315.113
L623.592 329.925
L624.262 309.189
L624.931 309.189
L625.601 325.481
L626.27 331.406
L627.61 337.33
L628.279 312.151
L629.618 349.179
L630.288 326.962
L630.958 337.33
L631.627 352.142
L632.297 347.698
L632.966 363.991
L633.636 331.406
L634.306 326.962
L634.975 331.406
L635.645 355.104
L636.314 335.849
L636.984 349.179
L637.654 381.765
L638.323 368.434
L638.993 372.878
L639.662 358.066
L640.332 369.915
L641.002 363.991
L641.671 384.727
L642.341 380.283
L643.01 365.472
L643.68 359.547
L644.35 359.547
L645.019 353.623
L645.689 371.397
L646.358 361.029
L647.028 375.84
L647.698 380.283
L648.367 377.321
L649.037 358.066
L649.706 347.698
L650.376 353.623
L651.046 355.104
L651.715 358.066
L652.385 369.915
L653.054 369.915
L653.724 355.104
L654.394 380.283
L655.063 365.472
L655.733 355.104
L656.402 365.472
L657.072 347.698
L657.742 362.51
L658.411 355.104
L659.081 362.51
L659.75 365.472
L660.42 358.066
L661.09 356.585
L661.759 365.472
L662.429 369.915
L663.098 369.915
L663.768 399.538
L664.438 399.538
L665.107 398.057
L666.446 398.057
L667.116 402.501
L667.786 412.869
L668.455 356.585
L669.125 355.104
L669.794 387.689
L670.464 372.878
L671.134 398.057
L671.803 386.208
L672.473 392.133
L673.142 390.651
L673.812 380.283
L674.482 372.878
L675.821 411.387
L676.49 396.576
L677.16 392.133
L677.83 401.019
L678.499 398.057
L679.169 390.651
L679.838 375.84
L680.508 395.095
L681.178 395.095
L681.847 401.019
L682.517 403.982
L683.186 405.463
L683.856 403.982
L684.526 390.651
L685.195 408.425
L685.865 418.793
L686.534 424.718
L687.204 439.529
L687.874 446.935
L688.543 430.642
L689.882 461.746
L690.552 433.605
L691.222 426.199
L691.891 442.491
L692.561 432.123
L693.23 430.642
L693.9 417.312
L694.57 421.755
L695.239 411.387
L695.909 433.605
L696.578 439.529
L697.248 430.642
L697.918 424.718
L698.587 427.68
L699.257 441.01
L699.926 433.605
L700.596 438.048
L701.266 443.973
L701.935 445.454
L702.605 454.341
L703.944 469.152
L705.283 469.152
L705.953 466.19
L706.622 464.709
L707.292 464.709
L707.962 449.897
L708.631 454.341
L709.301 452.859
L709.97 454.341
L710.64 454.341
L711.31 441.01
L711.979 469.152
L712.649 466.19
L713.318 457.303
L713.988 452.859
L714.658 458.784
L715.327 472.114
L715.997 463.227
L716.666 455.822
L717.336 476.558
L718.006 469.152
L718.675 466.19
L719.345 478.039
L720.014 483.963
L720.684 472.114
L721.354 452.859
L722.023 467.671
L722.693 463.227
L723.362 461.746
L724.032 472.114
L724.702 467.671
L725.371 472.114
L726.041 469.152
L726.71 463.227
L727.38 472.114
L728.05 455.822
L729.389 464.709
L730.058 472.114
L730.728 473.595
L731.398 464.709
L732.737 452.859
L733.406 463.227
L734.076 457.303
L734.746 469.152
L735.415 472.114
L736.085 478.039
L736.754 485.445
L737.424 481.001
L738.094 489.888
L738.763 482.482
L739.433 483.963
L740.102 486.926
L740.772 464.709
L741.442 475.077
L742.111 478.039
L742.781 483.963
L743.45 485.445
L744.12 478.039
L744.79 486.926
L745.459 489.888
L746.129 491.369
L746.798 479.52
L747.468 506.181
L748.807 494.331
L749.477 489.888
L750.146 488.407
L750.816 492.85
L751.486 488.407
L752.155 498.775
L752.825 494.331
L753.494 478.039
L754.164 483.963
L754.834 481.001
L755.503 501.737
L756.173 504.699
L756.842 506.181
L757.512 504.699
L758.851 513.586
L759.521 528.398
L760.19 518.03
L760.86 518.03
L761.53 515.067
L762.199 519.511
L762.869 525.435
L764.208 513.586
L764.878 516.549
L765.547 503.218
L766.217 503.218
L766.886 509.143
L767.556 507.662
L768.226 507.662
L768.895 506.181
L769.565 497.294
L770.234 500.256
L770.904 500.256
L771.574 504.699
L772.243 512.105
L772.913 507.662
L773.582 497.294
L774.252 498.775
L774.922 491.369
L775.591 482.482
L776.261 507.662
L776.93 509.143
L777.6 513.586
L777.6 513.586" style="fill:none;stroke:#008000;stroke-linecap:square;"/>
   </g>
   <g id="line2d_3">
    <path clip-path="url(#p7ceb695115)" d="
M108 583.2
L128.088 583.2
L128.758 581.719
L129.427 583.2
L134.114 583.2
L134.784 581.719
L135.454 583.2
L144.828 583.2
L145.498 581.719
L148.846 581.719
L149.515 583.2
L150.185 581.719
L150.854 581.719
L151.524 583.2
L156.211 583.2
L157.55 580.238
L158.22 583.2
L158.89 583.2
L159.559 581.719
L160.229 583.2
L162.238 583.2
L162.907 581.719
L163.577 581.719
L164.246 583.2
L164.916 583.2
L165.586 581.719
L166.255 583.2
L174.29 583.2
L174.96 580.238
L175.63 583.2
L180.986 583.2
L181.656 581.719
L182.326 583.2
L185.674 583.2
L186.343 581.719
L187.013 581.719
L187.682 583.2
L189.691 583.2
L190.361 581.719
L192.37 581.719
L193.039 583.2
L194.378 583.2
L195.048 581.719
L195.718 583.2
L196.387 583.2
L197.726 580.238
L198.396 580.238
L199.066 581.719
L199.735 580.238
L200.405 581.719
L201.744 578.757
L202.414 578.757
L203.083 580.238
L203.753 580.238
L204.422 578.757
L205.092 583.2
L205.762 580.238
L207.77 580.238
L208.44 581.719
L209.11 581.719
L210.449 578.757
L211.118 578.757
L211.788 581.719
L212.458 578.757
L213.127 583.2
L213.797 580.238
L214.466 578.757
L215.136 580.238
L215.806 580.238
L217.145 577.275
L218.484 580.238
L219.154 578.757
L219.823 580.238
L220.493 580.238
L221.162 577.275
L221.832 581.719
L222.502 577.275
L223.171 580.238
L223.841 578.757
L224.51 580.238
L225.85 580.238
L226.519 581.719
L227.189 581.719
L227.858 583.2
L228.528 578.757
L229.198 578.757
L229.867 580.238
L230.537 578.757
L231.876 581.719
L232.546 580.238
L233.885 580.238
L235.224 583.2
L235.894 581.719
L236.563 581.719
L237.233 583.2
L237.902 580.238
L238.572 578.757
L239.242 583.2
L240.581 583.2
L241.25 578.757
L241.92 578.757
L242.59 580.238
L243.259 578.757
L243.929 581.719
L244.598 581.719
L245.268 580.238
L245.938 581.719
L247.277 581.719
L247.946 578.757
L248.616 581.719
L249.286 581.719
L249.955 578.757
L250.625 580.238
L251.294 583.2
L251.964 581.719
L253.973 581.719
L254.642 580.238
L255.982 583.2
L257.321 580.238
L259.33 580.238
L260.669 577.275
L261.338 577.275
L262.008 581.719
L263.347 581.719
L264.017 580.238
L264.686 580.238
L266.026 583.2
L266.695 583.2
L267.365 580.238
L268.034 578.757
L268.704 583.2
L269.374 583.2
L270.713 580.238
L271.382 580.238
L272.052 581.719
L272.722 580.238
L274.061 583.2
L275.4 583.2
L276.739 580.238
L277.409 583.2
L278.078 583.2
L278.748 581.719
L279.418 581.719
L280.087 578.757
L281.426 578.757
L282.096 581.719
L282.766 580.238
L283.435 580.238
L284.105 578.757
L284.774 578.757
L285.444 580.238
L286.114 578.757
L286.783 581.719
L290.801 581.719
L291.47 583.2
L292.14 583.2
L292.81 581.719
L293.479 581.719
L294.149 583.2
L295.488 583.2
L296.158 580.238
L297.497 583.2
L298.166 581.719
L298.836 583.2
L299.506 583.2
L300.175 580.238
L301.514 583.2
L302.184 581.719
L302.854 581.719
L303.523 583.2
L304.193 581.719
L304.862 583.2
L305.532 580.238
L306.202 580.238
L306.871 581.719
L307.541 580.238
L308.21 583.2
L309.55 583.2
L310.219 581.719
L310.889 581.719
L312.228 578.757
L313.567 581.719
L314.237 581.719
L314.906 583.2
L315.576 581.719
L316.246 581.719
L316.915 583.2
L317.585 583.2
L318.254 580.238
L318.924 583.2
L319.594 583.2
L320.933 580.238
L321.602 580.238
L322.272 581.719
L322.942 578.757
L323.611 581.719
L324.281 583.2
L326.959 583.2
L327.629 581.719
L328.298 581.719
L328.968 583.2
L329.638 578.757
L330.307 577.275
L330.977 578.757
L331.646 578.757
L332.316 581.719
L332.986 583.2
L333.655 581.719
L334.994 581.719
L335.664 583.2
L336.334 581.719
L337.003 583.2
L337.673 581.719
L338.342 583.2
L340.351 583.2
L341.021 581.719
L341.69 583.2
L342.36 581.719
L343.699 581.719
L344.369 578.757
L345.038 581.719
L345.708 583.2
L346.378 583.2
L347.047 578.757
L347.717 581.719
L348.386 583.2
L349.056 581.719
L349.726 581.719
L350.395 583.2
L351.065 581.719
L351.734 581.719
L352.404 580.238
L353.074 580.238
L353.743 581.719
L354.413 580.238
L355.082 583.2
L356.422 583.2
L357.091 581.719
L358.43 581.719
L359.1 583.2
L359.77 581.719
L360.439 583.2
L361.109 581.719
L361.778 583.2
L362.448 581.719
L363.118 583.2
L364.457 583.2
L365.126 580.238
L365.796 583.2
L367.135 583.2
L368.474 580.238
L369.144 581.719
L370.483 581.719
L371.153 580.238
L372.492 583.2
L373.162 583.2
L373.831 581.719
L374.501 581.719
L375.17 580.238
L375.84 583.2
L377.849 583.2
L378.518 581.719
L379.188 583.2
L380.527 580.238
L381.197 581.719
L381.866 581.719
L382.536 583.2
L383.206 581.719
L384.545 581.719
L385.214 583.2
L385.884 581.719
L387.893 581.719
L388.562 580.238
L389.232 580.238
L389.902 583.2
L390.571 581.719
L391.241 583.2
L391.91 583.2
L392.58 581.719
L393.919 581.719
L395.258 578.757
L395.928 581.719
L396.598 580.238
L397.267 581.719
L397.937 581.719
L399.276 578.757
L399.946 583.2
L400.615 583.2
L401.285 578.757
L401.954 577.275
L402.624 578.757
L403.294 578.757
L403.963 580.238
L404.633 580.238
L405.302 577.275
L406.642 583.2
L407.311 583.2
L407.981 580.238
L408.65 583.2
L409.99 583.2
L410.659 578.757
L411.329 578.757
L411.998 580.238
L412.668 578.757
L413.338 581.719
L414.007 583.2
L415.346 583.2
L416.016 581.719
L416.686 581.719
L417.355 583.2
L418.025 583.2
L418.694 581.719
L419.364 581.719
L420.034 583.2
L420.703 583.2
L422.042 577.275
L424.051 581.719
L424.721 578.757
L425.39 578.757
L426.73 575.794
L427.399 581.719
L428.069 581.719
L429.408 578.757
L430.078 581.719
L430.747 578.757
L431.417 581.719
L432.086 581.719
L432.756 583.2
L433.426 580.238
L434.095 581.719
L436.104 581.719
L436.774 580.238
L437.443 580.238
L438.113 581.719
L438.782 580.238
L440.791 580.238
L442.13 583.2
L442.8 578.757
L443.47 580.238
L444.139 578.757
L444.809 578.757
L445.478 583.2
L446.148 583.2
L446.818 581.719
L447.487 578.757
L448.157 578.757
L448.826 569.87
L449.496 563.945
L450.166 556.539
L450.835 553.577
L451.505 555.058
L452.844 529.879
L453.514 509.143
L454.183 519.511
L454.853 516.549
L455.522 522.473
L456.192 509.143
L456.862 516.549
L457.531 492.85
L458.201 483.963
L458.87 486.926
L459.54 469.152
L460.21 470.633
L460.879 475.077
L461.549 507.662
L462.218 494.331
L462.888 498.775
L463.558 467.671
L464.227 483.963
L464.897 489.888
L465.566 473.595
L466.236 475.077
L466.906 467.671
L467.575 439.529
L468.245 467.671
L468.914 479.52
L469.584 473.595
L470.254 485.445
L470.923 476.558
L471.593 464.709
L472.262 466.19
L472.932 472.114
L473.602 475.077
L474.271 458.784
L474.941 458.784
L475.61 494.331
L476.28 472.114
L476.95 472.114
L477.619 443.973
L478.289 457.303
L478.958 433.605
L479.628 492.85
L480.298 451.378
L480.967 454.341
L481.637 478.039
L482.306 439.529
L482.976 442.491
L483.646 479.52
L484.315 503.218
L484.985 486.926
L485.654 488.407
L486.324 457.303
L486.994 466.19
L487.663 464.709
L488.333 485.445
L489.002 481.001
L489.672 485.445
L491.011 488.407
L491.681 503.218
L492.35 486.926
L493.02 460.265
L493.69 467.671
L494.359 470.633
L495.029 507.662
L495.698 495.813
L496.368 455.822
L497.038 469.152
L497.707 488.407
L498.377 500.256
L499.046 483.963
L499.716 488.407
L500.386 467.671
L501.725 492.85
L502.394 478.039
L503.064 494.331
L503.734 475.077
L504.403 475.077
L505.073 481.001
L505.742 472.114
L506.412 478.039
L507.082 494.331
L507.751 473.595
L508.421 486.926
L509.09 510.624
L509.76 458.784
L510.43 523.954
L511.099 497.294
L511.769 478.039
L512.438 481.001
L513.108 515.067
L513.778 500.256
L515.117 463.227
L515.786 501.737
L516.456 509.143
L517.126 485.445
L518.465 504.699
L519.134 501.737
L519.804 513.586
L520.474 495.813
L521.143 492.85
L522.482 495.813
L523.152 486.926
L523.822 503.218
L524.491 516.549
L525.161 488.407
L525.83 497.294
L526.5 504.699
L527.17 479.52
L527.839 488.407
L528.509 464.709
L529.178 469.152
L529.848 483.963
L530.518 506.181
L531.187 485.445
L531.857 497.294
L532.526 491.369
L533.196 501.737
L533.866 501.737
L534.535 518.03
L535.205 495.813
L535.874 488.407
L536.544 515.067
L537.214 476.558
L537.883 501.737
L538.553 498.775
L539.222 506.181
L539.892 478.039
L541.901 500.256
L542.57 506.181
L543.24 494.331
L543.91 504.699
L544.579 489.888
L545.249 506.181
L545.918 518.03
L546.588 526.917
L547.258 491.369
L548.597 497.294
L549.266 485.445
L549.936 461.746
L550.606 475.077
L551.275 475.077
L551.945 535.803
L552.614 519.511
L553.284 486.926
L553.954 489.888
L554.623 495.813
L555.293 507.662
L555.962 503.218
L556.632 531.36
L557.302 495.813
L557.971 501.737
L558.641 506.181
L559.31 492.85
L559.98 501.737
L560.65 485.445
L561.319 513.586
L561.989 497.294
L562.658 504.699
L563.328 529.879
L563.998 500.256
L564.667 523.954
L565.337 518.03
L566.676 485.445
L567.346 513.586
L568.015 495.813
L568.685 497.294
L569.354 512.105
L570.024 495.813
L570.694 531.36
L571.363 510.624
L572.033 510.624
L572.702 513.586
L573.372 504.699
L574.042 501.737
L574.711 531.36
L575.381 523.954
L576.05 495.813
L576.72 507.662
L577.39 507.662
L578.059 498.775
L578.729 498.775
L579.398 522.473
L580.068 510.624
L580.738 501.737
L581.407 512.105
L582.077 483.963
L582.746 503.218
L583.416 510.624
L584.086 492.85
L584.755 504.699
L585.425 497.294
L586.094 486.926
L586.764 513.586
L587.434 513.586
L588.103 519.511
L588.773 507.662
L589.442 503.218
L590.112 513.586
L590.782 504.699
L591.451 500.256
L592.121 519.511
L592.79 522.473
L593.46 526.917
L594.13 529.879
L594.799 515.067
L595.469 504.699
L596.138 515.067
L596.808 509.143
L597.478 532.841
L598.147 500.256
L598.817 518.03
L599.486 506.181
L600.156 510.624
L600.826 520.992
L601.495 512.105
L602.165 498.775
L602.834 503.218
L603.504 506.181
L604.174 528.398
L604.843 526.917
L605.513 500.256
L606.182 528.398
L606.852 507.662
L607.522 504.699
L608.191 523.954
L608.861 516.549
L609.53 513.586
L610.2 516.549
L610.87 506.181
L611.539 515.067
L612.209 531.36
L612.878 537.285
L613.548 479.52
L614.218 504.699
L614.887 507.662
L615.557 519.511
L616.226 523.954
L616.896 519.511
L617.566 546.171
L618.235 525.435
L618.905 492.85
L619.574 522.473
L620.244 531.36
L620.914 537.285
L621.583 538.766
L622.253 531.36
L623.592 489.888
L624.931 531.36
L625.601 547.653
L626.27 506.181
L626.94 510.624
L627.61 525.435
L628.279 528.398
L628.949 520.992
L629.618 516.549
L630.288 526.917
L630.958 518.03
L631.627 518.03
L632.297 547.653
L632.966 538.766
L633.636 523.954
L634.306 520.992
L634.975 515.067
L635.645 537.285
L636.314 546.171
L636.984 543.209
L637.654 522.473
L638.323 546.171
L638.993 532.841
L639.662 526.917
L640.332 529.879
L641.002 506.181
L641.671 513.586
L642.341 509.143
L643.01 541.728
L643.68 531.36
L645.019 537.285
L645.689 525.435
L646.358 538.766
L647.028 540.247
L647.698 519.511
L648.367 528.398
L649.037 532.841
L649.706 540.247
L650.376 523.954
L651.046 550.615
L651.715 538.766
L652.385 550.615
L653.054 543.209
L653.724 543.209
L654.394 523.954
L655.063 535.803
L655.733 532.841
L656.402 510.624
L657.072 531.36
L657.742 543.209
L658.411 523.954
L659.081 540.247
L659.75 529.879
L661.09 520.992
L661.759 535.803
L662.429 523.954
L663.098 540.247
L663.768 526.917
L664.438 546.171
L665.107 538.766
L665.777 518.03
L666.446 532.841
L667.786 515.067
L668.455 540.247
L669.125 534.322
L669.794 535.803
L670.464 544.69
L671.134 537.285
L671.803 560.983
L672.473 544.69
L673.142 547.653
L673.812 546.171
L674.482 535.803
L675.151 546.171
L675.821 531.36
L676.49 538.766
L677.16 532.841
L677.83 531.36
L678.499 523.954
L679.169 529.879
L679.838 541.728
L680.508 528.398
L681.178 523.954
L681.847 550.615
L682.517 560.983
L683.186 538.766
L683.856 544.69
L684.526 544.69
L685.195 547.653
L685.865 544.69
L686.534 544.69
L687.204 547.653
L687.874 540.247
L688.543 543.209
L689.213 534.322
L689.882 541.728
L690.552 562.464
L691.222 544.69
L692.561 535.803
L693.9 555.058
L694.57 547.653
L695.239 555.058
L696.578 540.247
L697.248 553.577
L697.918 555.058
L698.587 547.653
L699.257 556.539
L700.596 562.464
L701.266 550.615
L701.935 549.134
L702.605 550.615
L703.274 562.464
L703.944 558.021
L704.614 547.653
L705.953 550.615
L706.622 541.728
L707.292 540.247
L707.962 550.615
L708.631 535.803
L709.301 559.502
L710.64 544.69
L711.31 558.021
L711.979 525.435
L712.649 544.69
L713.318 541.728
L713.988 541.728
L714.658 560.983
L715.327 553.577
L715.997 565.426
L716.666 566.907
L717.336 553.577
L718.006 556.539
L718.675 568.389
L719.345 565.426
L720.014 556.539
L720.684 559.502
L721.354 555.058
L722.023 560.983
L722.693 546.171
L723.362 550.615
L724.032 553.577
L724.702 560.983
L725.371 555.058
L726.041 556.539
L726.71 556.539
L727.38 549.134
L728.05 550.615
L728.719 560.983
L729.389 553.577
L730.058 556.539
L730.728 550.615
L731.398 538.766
L732.067 555.058
L732.737 555.058
L733.406 552.096
L734.076 559.502
L734.746 544.69
L735.415 562.464
L736.085 563.945
L736.754 552.096
L737.424 560.983
L738.094 553.577
L738.763 552.096
L739.433 547.653
L740.102 555.058
L740.772 556.539
L741.442 550.615
L742.111 555.058
L742.781 549.134
L744.12 563.945
L744.79 558.021
L745.459 566.907
L746.129 558.021
L746.798 556.539
L747.468 566.907
L748.807 560.983
L749.477 566.907
L750.146 569.87
L750.816 553.577
L751.486 562.464
L752.155 565.426
L752.825 577.275
L753.494 556.539
L754.164 553.577
L754.834 563.945
L755.503 565.426
L756.173 558.021
L756.842 560.983
L757.512 568.389
L758.182 569.87
L758.851 574.313
L759.521 560.983
L760.19 569.87
L760.86 560.983
L761.53 568.389
L762.199 572.832
L762.869 566.907
L763.538 572.832
L764.208 574.313
L764.878 560.983
L765.547 565.426
L766.217 565.426
L766.886 558.021
L767.556 563.945
L768.226 555.058
L768.895 556.539
L769.565 550.615
L770.234 553.577
L770.904 566.907
L771.574 571.351
L772.243 556.539
L772.913 558.021
L773.582 563.945
L774.252 550.615
L774.922 558.021
L775.591 574.313
L776.261 566.907
L776.93 572.832
L777.6 563.945
L777.6 563.945" style="fill:none;stroke:#0000ff;stroke-linecap:square;"/>
   </g>
   <g id="patch_3">
    <path d="
M777.6 583.2
L777.6 64.8" style="fill:none;stroke:#000000;stroke-linecap:square;stroke-linejoin:miter;"/>
   </g>
   <g id="patch_4">
    <path d="
M108 64.8
L777.6 64.8" style="fill:none;stroke:#000000;stroke-linecap:square;stroke-linejoin:miter;"/>
   </g>
   <g id="patch_5">
    <path d="
M108 583.2
L108 64.8" style="fill:none;stroke:#000000;stroke-linecap:square;stroke-linejoin:miter;"/>
   </g>
   <g id="patch_6">
    <path d="
M108 583.2
L777.6 583.2" style="fill:none;stroke:#000000;stroke-linecap:square;stroke-linejoin:miter;"/>
   </g>
   <g id="matplotlib.axis_1">
    <g id="xtick_1">
     <g id="line2d_4">
      <defs>
       <path d="
M0 0
L0 -4" id="mc7db9fdffb" style="stroke:#000000;stroke-width:0.5;"/>
      </defs>
      <g>
       <use style="stroke:#000000;stroke-width:0.5;" x="108.0" xlink:href="#mc7db9fdffb" y="583.2"/>
      </g>
     </g>
     <g id="line2d_5">
      <defs>
       <path d="
M0 0
L0 4" id="m5a7d422ac3" style="stroke:#000000;stroke-width:0.5;"/>
      </defs>
      <g>
       <use style="stroke:#000000;stroke-width:0.5;" x="108.0" xlink:href="#m5a7d422ac3" y="64.8"/>
      </g>
     </g>
     <g id="text_1">
      <!-- 0 -->
      <defs>
       <path d="
M31.7812 66.4062
Q24.1719 66.4062 20.3281 58.9062
Q16.5 51.4219 16.5 36.375
Q16.5 21.3906 20.3281 13.8906
Q24.1719 6.39062 31.7812 6.39062
Q39.4531 6.39062 43.2812 13.8906
Q47.125 21.3906 47.125 36.375
Q47.125 51.4219 43.2812 58.9062
Q39.4531 66.4062 31.7812 66.4062
M31.7812 74.2188
Q44.0469 74.2188 50.5156 64.5156
Q56.9844 54.8281 56.9844 36.375
Q56.9844 17.9688 50.5156 8.26562
Q44.0469 -1.42188 31.7812 -1.42188
Q19.5312 -1.42188 13.0625 8.26562
Q6.59375 17.9688 6.59375 36.375
Q6.59375 54.8281 13.0625 64.5156
Q19.5312 74.2188 31.7812 74.2188" id="BitstreamVeraSans-Roman-30"/>
      </defs>
      <g transform="translate(104.9765625 596.318125)scale(0.12 -0.12)">
       <use xlink:href="#BitstreamVeraSans-Roman-30"/>
      </g>
     </g>
    </g>
    <g id="xtick_2">
     <g id="line2d_6">
      <g>
       <use style="stroke:#000000;stroke-width:0.5;" x="275.4" xlink:href="#mc7db9fdffb" y="583.2"/>
      </g>
     </g>
     <g id="line2d_7">
      <g>
       <use style="stroke:#000000;stroke-width:0.5;" x="275.4" xlink:href="#m5a7d422ac3" y="64.8"/>
      </g>
     </g>
     <g id="text_2">
      <!-- 50000 -->
      <defs>
       <path d="
M10.7969 72.9062
L49.5156 72.9062
L49.5156 64.5938
L19.8281 64.5938
L19.8281 46.7344
Q21.9688 47.4688 24.1094 47.8281
Q26.2656 48.1875 28.4219 48.1875
Q40.625 48.1875 47.75 41.5
Q54.8906 34.8125 54.8906 23.3906
Q54.8906 11.625 47.5625 5.09375
Q40.2344 -1.42188 26.9062 -1.42188
Q22.3125 -1.42188 17.5469 -0.640625
Q12.7969 0.140625 7.71875 1.70312
L7.71875 11.625
Q12.1094 9.23438 16.7969 8.0625
Q21.4844 6.89062 26.7031 6.89062
Q35.1562 6.89062 40.0781 11.3281
Q45.0156 15.7656 45.0156 23.3906
Q45.0156 31 40.0781 35.4375
Q35.1562 39.8906 26.7031 39.8906
Q22.75 39.8906 18.8125 39.0156
Q14.8906 38.1406 10.7969 36.2812
z
" id="BitstreamVeraSans-Roman-35"/>
      </defs>
      <g transform="translate(257.1740625 596.318125)scale(0.12 -0.12)">
       <use xlink:href="#BitstreamVeraSans-Roman-35"/>
       <use x="63.623046875" xlink:href="#BitstreamVeraSans-Roman-30"/>
       <use x="127.24609375" xlink:href="#BitstreamVeraSans-Roman-30"/>
       <use x="190.869140625" xlink:href="#BitstreamVeraSans-Roman-30"/>
       <use x="254.4921875" xlink:href="#BitstreamVeraSans-Roman-30"/>
      </g>
     </g>
    </g>
    <g id="xtick_3">
     <g id="line2d_8">
      <g>
       <use style="stroke:#000000;stroke-width:0.5;" x="442.8" xlink:href="#mc7db9fdffb" y="583.2"/>
      </g>
     </g>
     <g id="line2d_9">
      <g>
       <use style="stroke:#000000;stroke-width:0.5;" x="442.8" xlink:href="#m5a7d422ac3" y="64.8"/>
      </g>
     </g>
     <g id="text_3">
      <!-- 100000 -->
      <defs>
       <path d="
M12.4062 8.29688
L28.5156 8.29688
L28.5156 63.9219
L10.9844 60.4062
L10.9844 69.3906
L28.4219 72.9062
L38.2812 72.9062
L38.2812 8.29688
L54.3906 8.29688
L54.3906 0
L12.4062 0
z
" id="BitstreamVeraSans-Roman-31"/>
      </defs>
      <g transform="translate(420.9525 596.318125)scale(0.12 -0.12)">
       <use xlink:href="#BitstreamVeraSans-Roman-31"/>
       <use x="63.623046875" xlink:href="#BitstreamVeraSans-Roman-30"/>
       <use x="127.24609375" xlink:href="#BitstreamVeraSans-Roman-30"/>
       <use x="190.869140625" xlink:href="#BitstreamVeraSans-Roman-30"/>
       <use x="254.4921875" xlink:href="#BitstreamVeraSans-Roman-30"/>
       <use x="318.115234375" xlink:href="#BitstreamVeraSans-Roman-30"/>
      </g>
     </g>
    </g>
    <g id="xtick_4">
     <g id="line2d_10">
      <g>
       <use style="stroke:#000000;stroke-width:0.5;" x="610.2" xlink:href="#mc7db9fdffb" y="583.2"/>
      </g>
     </g>
     <g id="line2d_11">
      <g>
       <use style="stroke:#000000;stroke-width:0.5;" x="610.2" xlink:href="#m5a7d422ac3" y="64.8"/>
      </g>
     </g>
     <g id="text_4">
      <!-- 150000 -->
      <g transform="translate(588.3525 596.318125)scale(0.12 -0.12)">
       <use xlink:href="#BitstreamVeraSans-Roman-31"/>
       <use x="63.623046875" xlink:href="#BitstreamVeraSans-Roman-35"/>
       <use x="127.24609375" xlink:href="#BitstreamVeraSans-Roman-30"/>
       <use x="190.869140625" xlink:href="#BitstreamVeraSans-Roman-30"/>
       <use x="254.4921875" xlink:href="#BitstreamVeraSans-Roman-30"/>
       <use x="318.115234375" xlink:href="#BitstreamVeraSans-Roman-30"/>
      </g>
     </g>
    </g>
    <g id="xtick_5">
     <g id="line2d_12">
      <g>
       <use style="stroke:#000000;stroke-width:0.5;" x="777.6" xlink:href="#mc7db9fdffb" y="583.2"/>
      </g>
     </g>
     <g id="line2d_13">
      <g>
       <use style="stroke:#000000;stroke-width:0.5;" x="777.6" xlink:href="#m5a7d422ac3" y="64.8"/>
      </g>
     </g>
     <g id="text_5">
      <!-- 200000 -->
      <defs>
       <path d="
M19.1875 8.29688
L53.6094 8.29688
L53.6094 0
L7.32812 0
L7.32812 8.29688
Q12.9375 14.1094 22.625 23.8906
Q32.3281 33.6875 34.8125 36.5312
Q39.5469 41.8438 41.4219 45.5312
Q43.3125 49.2188 43.3125 52.7812
Q43.3125 58.5938 39.2344 62.25
Q35.1562 65.9219 28.6094 65.9219
Q23.9688 65.9219 18.8125 64.3125
Q13.6719 62.7031 7.8125 59.4219
L7.8125 69.3906
Q13.7656 71.7812 18.9375 73
Q24.125 74.2188 28.4219 74.2188
Q39.75 74.2188 46.4844 68.5469
Q53.2188 62.8906 53.2188 53.4219
Q53.2188 48.9219 51.5312 44.8906
Q49.8594 40.875 45.4062 35.4062
Q44.1875 33.9844 37.6406 27.2188
Q31.1094 20.4531 19.1875 8.29688" id="BitstreamVeraSans-Roman-32"/>
      </defs>
      <g transform="translate(755.533125 596.318125)scale(0.12 -0.12)">
       <use xlink:href="#BitstreamVeraSans-Roman-32"/>
       <use x="63.623046875" xlink:href="#BitstreamVeraSans-Roman-30"/>
       <use x="127.24609375" xlink:href="#BitstreamVeraSans-Roman-30"/>
       <use x="190.869140625" xlink:href="#BitstreamVeraSans-Roman-30"/>
       <use x="254.4921875" xlink:href="#BitstreamVeraSans-Roman-30"/>
       <use x="318.115234375" xlink:href="#BitstreamVeraSans-Roman-30"/>
      </g>
     </g>
    </g>
    <g id="text_6">
     <!-- t / ms -->
     <defs>
      <path d="
M52 44.1875
Q55.375 50.25 60.0625 53.125
Q64.75 56 71.0938 56
Q79.6406 56 84.2812 50.0156
Q88.9219 44.0469 88.9219 33.0156
L88.9219 0
L79.8906 0
L79.8906 32.7188
Q79.8906 40.5781 77.0938 44.375
Q74.3125 48.1875 68.6094 48.1875
Q61.625 48.1875 57.5625 43.5469
Q53.5156 38.9219 53.5156 30.9062
L53.5156 0
L44.4844 0
L44.4844 32.7188
Q44.4844 40.625 41.7031 44.4062
Q38.9219 48.1875 33.1094 48.1875
Q26.2188 48.1875 22.1562 43.5312
Q18.1094 38.875 18.1094 30.9062
L18.1094 0
L9.07812 0
L9.07812 54.6875
L18.1094 54.6875
L18.1094 46.1875
Q21.1875 51.2188 25.4844 53.6094
Q29.7812 56 35.6875 56
Q41.6562 56 45.8281 52.9688
Q50 49.9531 52 44.1875" id="BitstreamVeraSans-Roman-6d"/>
      <path d="
M25.3906 72.9062
L33.6875 72.9062
L8.29688 -9.28125
L0 -9.28125
z
" id="BitstreamVeraSans-Roman-2f"/>
      <path d="
M18.3125 70.2188
L18.3125 54.6875
L36.8125 54.6875
L36.8125 47.7031
L18.3125 47.7031
L18.3125 18.0156
Q18.3125 11.3281 20.1406 9.42188
Q21.9688 7.51562 27.5938 7.51562
L36.8125 7.51562
L36.8125 0
L27.5938 0
Q17.1875 0 13.2344 3.875
Q9.28125 7.76562 9.28125 18.0156
L9.28125 47.7031
L2.6875 47.7031
L2.6875 54.6875
L9.28125 54.6875
L9.28125 70.2188
z
" id="BitstreamVeraSans-Roman-74"/>
      <path id="BitstreamVeraSans-Roman-20"/>
      <path d="
M44.2812 53.0781
L44.2812 44.5781
Q40.4844 46.5312 36.375 47.5
Q32.2812 48.4844 27.875 48.4844
Q21.1875 48.4844 17.8438 46.4375
Q14.5 44.3906 14.5 40.2812
Q14.5 37.1562 16.8906 35.375
Q19.2812 33.5938 26.5156 31.9844
L29.5938 31.2969
Q39.1562 29.25 43.1875 25.5156
Q47.2188 21.7812 47.2188 15.0938
Q47.2188 7.46875 41.1875 3.01562
Q35.1562 -1.42188 24.6094 -1.42188
Q20.2188 -1.42188 15.4531 -0.5625
Q10.6875 0.296875 5.42188 2
L5.42188 11.2812
Q10.4062 8.6875 15.2344 7.39062
Q20.0625 6.10938 24.8125 6.10938
Q31.1562 6.10938 34.5625 8.28125
Q37.9844 10.4531 37.9844 14.4062
Q37.9844 18.0625 35.5156 20.0156
Q33.0625 21.9688 24.7031 23.7812
L21.5781 24.5156
Q13.2344 26.2656 9.51562 29.9062
Q5.8125 33.5469 5.8125 39.8906
Q5.8125 47.6094 11.2812 51.7969
Q16.75 56 26.8125 56
Q31.7812 56 36.1719 55.2656
Q40.5781 54.5469 44.2812 53.0781" id="BitstreamVeraSans-Roman-73"/>
     </defs>
     <g transform="translate(425.9353125 612.931875)scale(0.12 -0.12)">
      <use xlink:href="#BitstreamVeraSans-Roman-74"/>
      <use x="39.208984375" xlink:href="#BitstreamVeraSans-Roman-20"/>
      <use x="70.99609375" xlink:href="#BitstreamVeraSans-Roman-2f"/>
      <use x="104.6875" xlink:href="#BitstreamVeraSans-Roman-20"/>
      <use x="136.474609375" xlink:href="#BitstreamVeraSans-Roman-6d"/>
      <use x="233.88671875" xlink:href="#BitstreamVeraSans-Roman-73"/>
     </g>
    </g>
   </g>
   <g id="matplotlib.axis_2">
    <g id="ytick_1">
     <g id="line2d_14">
      <defs>
       <path d="
M0 0
L4 0" id="md7965d1ba0" style="stroke:#000000;stroke-width:0.5;"/>
      </defs>
      <g>
       <use style="stroke:#000000;stroke-width:0.5;" x="108.0" xlink:href="#md7965d1ba0" y="583.2"/>
      </g>
     </g>
     <g id="line2d_15">
      <defs>
       <path d="
M0 0
L-4 0" id="md9a1c1a7cd" style="stroke:#000000;stroke-width:0.5;"/>
      </defs>
      <g>
       <use style="stroke:#000000;stroke-width:0.5;" x="777.6" xlink:href="#md9a1c1a7cd" y="583.2"/>
      </g>
     </g>
     <g id="text_7">
      <!-- 0 -->
      <g transform="translate(97.953125 586.51125)scale(0.12 -0.12)">
       <use xlink:href="#BitstreamVeraSans-Roman-30"/>
      </g>
     </g>
    </g>
    <g id="ytick_2">
     <g id="line2d_16">
      <g>
       <use style="stroke:#000000;stroke-width:0.5;" x="108.0" xlink:href="#md7965d1ba0" y="509.142857143"/>
      </g>
     </g>
     <g id="line2d_17">
      <g>
       <use style="stroke:#000000;stroke-width:0.5;" x="777.6" xlink:href="#md9a1c1a7cd" y="509.142857143"/>
      </g>
     </g>
     <g id="text_8">
      <!-- 50 -->
      <g transform="translate(90.453125 512.454107143)scale(0.12 -0.12)">
       <use xlink:href="#BitstreamVeraSans-Roman-35"/>
       <use x="63.623046875" xlink:href="#BitstreamVeraSans-Roman-30"/>
      </g>
     </g>
    </g>
    <g id="ytick_3">
     <g id="line2d_18">
      <g>
       <use style="stroke:#000000;stroke-width:0.5;" x="108.0" xlink:href="#md7965d1ba0" y="435.085714286"/>
      </g>
     </g>
     <g id="line2d_19">
      <g>
       <use style="stroke:#000000;stroke-width:0.5;" x="777.6" xlink:href="#md9a1c1a7cd" y="435.085714286"/>
      </g>
     </g>
     <g id="text_9">
      <!-- 100 -->
      <g transform="translate(83.21 438.396964286)scale(0.12 -0.12)">
       <use xlink:href="#BitstreamVeraSans-Roman-31"/>
       <use x="63.623046875" xlink:href="#BitstreamVeraSans-Roman-30"/>
       <use x="127.24609375" xlink:href="#BitstreamVeraSans-Roman-30"/>
      </g>
     </g>
    </g>
    <g id="ytick_4">
     <g id="line2d_20">
      <g>
       <use style="stroke:#000000;stroke-width:0.5;" x="108.0" xlink:href="#md7965d1ba0" y="361.028571429"/>
      </g>
     </g>
     <g id="line2d_21">
      <g>
       <use style="stroke:#000000;stroke-width:0.5;" x="777.6" xlink:href="#md9a1c1a7cd" y="361.028571429"/>
      </g>
     </g>
     <g id="text_10">
      <!-- 150 -->
      <g transform="translate(83.21 364.339821429)scale(0.12 -0.12)">
       <use xlink:href="#BitstreamVeraSans-Roman-31"/>
       <use x="63.623046875" xlink:href="#BitstreamVeraSans-Roman-35"/>
       <use x="127.24609375" xlink:href="#BitstreamVeraSans-Roman-30"/>
      </g>
     </g>
    </g>
    <g id="ytick_5">
     <g id="line2d_22">
      <g>
       <use style="stroke:#000000;stroke-width:0.5;" x="108.0" xlink:href="#md7965d1ba0" y="286.971428571"/>
      </g>
     </g>
     <g id="line2d_23">
      <g>
       <use style="stroke:#000000;stroke-width:0.5;" x="777.6" xlink:href="#md9a1c1a7cd" y="286.971428571"/>
      </g>
     </g>
     <g id="text_11">
      <!-- 200 -->
      <g transform="translate(82.77125 290.282678571)scale(0.12 -0.12)">
       <use xlink:href="#BitstreamVeraSans-Roman-32"/>
       <use x="63.623046875" xlink:href="#BitstreamVeraSans-Roman-30"/>
       <use x="127.24609375" xlink:href="#BitstreamVeraSans-Roman-30"/>
      </g>
     </g>
    </g>
    <g id="ytick_6">
     <g id="line2d_24">
      <g>
       <use style="stroke:#000000;stroke-width:0.5;" x="108.0" xlink:href="#md7965d1ba0" y="212.914285714"/>
      </g>
     </g>
     <g id="line2d_25">
      <g>
       <use style="stroke:#000000;stroke-width:0.5;" x="777.6" xlink:href="#md9a1c1a7cd" y="212.914285714"/>
      </g>
     </g>
     <g id="text_12">
      <!-- 250 -->
      <g transform="translate(82.77125 216.225535714)scale(0.12 -0.12)">
       <use xlink:href="#BitstreamVeraSans-Roman-32"/>
       <use x="63.623046875" xlink:href="#BitstreamVeraSans-Roman-35"/>
       <use x="127.24609375" xlink:href="#BitstreamVeraSans-Roman-30"/>
      </g>
     </g>
    </g>
    <g id="ytick_7">
     <g id="line2d_26">
      <g>
       <use style="stroke:#000000;stroke-width:0.5;" x="108.0" xlink:href="#md7965d1ba0" y="138.857142857"/>
      </g>
     </g>
     <g id="line2d_27">
      <g>
       <use style="stroke:#000000;stroke-width:0.5;" x="777.6" xlink:href="#md9a1c1a7cd" y="138.857142857"/>
      </g>
     </g>
     <g id="text_13">
      <!-- 300 -->
      <defs>
       <path d="
M40.5781 39.3125
Q47.6562 37.7969 51.625 33
Q55.6094 28.2188 55.6094 21.1875
Q55.6094 10.4062 48.1875 4.48438
Q40.7656 -1.42188 27.0938 -1.42188
Q22.5156 -1.42188 17.6562 -0.515625
Q12.7969 0.390625 7.625 2.20312
L7.625 11.7188
Q11.7188 9.32812 16.5938 8.10938
Q21.4844 6.89062 26.8125 6.89062
Q36.0781 6.89062 40.9375 10.5469
Q45.7969 14.2031 45.7969 21.1875
Q45.7969 27.6406 41.2812 31.2656
Q36.7656 34.9062 28.7188 34.9062
L20.2188 34.9062
L20.2188 43.0156
L29.1094 43.0156
Q36.375 43.0156 40.2344 45.9219
Q44.0938 48.8281 44.0938 54.2969
Q44.0938 59.9062 40.1094 62.9062
Q36.1406 65.9219 28.7188 65.9219
Q24.6562 65.9219 20.0156 65.0312
Q15.375 64.1562 9.8125 62.3125
L9.8125 71.0938
Q15.4375 72.6562 20.3438 73.4375
Q25.25 74.2188 29.5938 74.2188
Q40.8281 74.2188 47.3594 69.1094
Q53.9062 64.0156 53.9062 55.3281
Q53.9062 49.2656 50.4375 45.0938
Q46.9688 40.9219 40.5781 39.3125" id="BitstreamVeraSans-Roman-33"/>
      </defs>
      <g transform="translate(82.806875 142.168392857)scale(0.12 -0.12)">
       <use xlink:href="#BitstreamVeraSans-Roman-33"/>
       <use x="63.623046875" xlink:href="#BitstreamVeraSans-Roman-30"/>
       <use x="127.24609375" xlink:href="#BitstreamVeraSans-Roman-30"/>
      </g>
     </g>
    </g>
    <g id="ytick_8">
     <g id="line2d_28">
      <g>
       <use style="stroke:#000000;stroke-width:0.5;" x="108.0" xlink:href="#md7965d1ba0" y="64.8"/>
      </g>
     </g>
     <g id="line2d_29">
      <g>
       <use style="stroke:#000000;stroke-width:0.5;" x="777.6" xlink:href="#md9a1c1a7cd" y="64.8"/>
      </g>
     </g>
     <g id="text_14">
      <!-- 350 -->
      <g transform="translate(82.806875 68.11125)scale(0.12 -0.12)">
       <use xlink:href="#BitstreamVeraSans-Roman-33"/>
       <use x="63.623046875" xlink:href="#BitstreamVeraSans-Roman-35"/>
       <use x="127.24609375" xlink:href="#BitstreamVeraSans-Roman-30"/>
      </g>
     </g>
    </g>
    <g id="text_15">
     <!-- particle numbers -->
     <defs>
      <path d="
M54.8906 33.0156
L54.8906 0
L45.9062 0
L45.9062 32.7188
Q45.9062 40.4844 42.875 44.3281
Q39.8438 48.1875 33.7969 48.1875
Q26.5156 48.1875 22.3125 43.5469
Q18.1094 38.9219 18.1094 30.9062
L18.1094 0
L9.07812 0
L9.07812 54.6875
L18.1094 54.6875
L18.1094 46.1875
Q21.3438 51.125 25.7031 53.5625
Q30.0781 56 35.7969 56
Q45.2188 56 50.0469 50.1719
Q54.8906 44.3438 54.8906 33.0156" id="BitstreamVeraSans-Roman-6e"/>
      <path d="
M9.42188 54.6875
L18.4062 54.6875
L18.4062 0
L9.42188 0
z

M9.42188 75.9844
L18.4062 75.9844
L18.4062 64.5938
L9.42188 64.5938
z
" id="BitstreamVeraSans-Roman-69"/>
      <path d="
M8.5 21.5781
L8.5 54.6875
L17.4844 54.6875
L17.4844 21.9219
Q17.4844 14.1562 20.5 10.2656
Q23.5312 6.39062 29.5938 6.39062
Q36.8594 6.39062 41.0781 11.0312
Q45.3125 15.6719 45.3125 23.6875
L45.3125 54.6875
L54.2969 54.6875
L54.2969 0
L45.3125 0
L45.3125 8.40625
Q42.0469 3.42188 37.7188 1
Q33.4062 -1.42188 27.6875 -1.42188
Q18.2656 -1.42188 13.375 4.4375
Q8.5 10.2969 8.5 21.5781" id="BitstreamVeraSans-Roman-75"/>
      <path d="
M9.42188 75.9844
L18.4062 75.9844
L18.4062 0
L9.42188 0
z
" id="BitstreamVeraSans-Roman-6c"/>
      <path d="
M48.7812 52.5938
L48.7812 44.1875
Q44.9688 46.2969 41.1406 47.3438
Q37.3125 48.3906 33.4062 48.3906
Q24.6562 48.3906 19.8125 42.8438
Q14.9844 37.3125 14.9844 27.2969
Q14.9844 17.2812 19.8125 11.7344
Q24.6562 6.20312 33.4062 6.20312
Q37.3125 6.20312 41.1406 7.25
Q44.9688 8.29688 48.7812 10.4062
L48.7812 2.09375
Q45.0156 0.34375 40.9844 -0.53125
Q36.9688 -1.42188 32.4219 -1.42188
Q20.0625 -1.42188 12.7812 6.34375
Q5.51562 14.1094 5.51562 27.2969
Q5.51562 40.6719 12.8594 48.3281
Q20.2188 56 33.0156 56
Q37.1562 56 41.1094 55.1406
Q45.0625 54.2969 48.7812 52.5938" id="BitstreamVeraSans-Roman-63"/>
      <path d="
M56.2031 29.5938
L56.2031 25.2031
L14.8906 25.2031
Q15.4844 15.9219 20.4844 11.0625
Q25.4844 6.20312 34.4219 6.20312
Q39.5938 6.20312 44.4531 7.46875
Q49.3125 8.73438 54.1094 11.2812
L54.1094 2.78125
Q49.2656 0.734375 44.1875 -0.34375
Q39.1094 -1.42188 33.8906 -1.42188
Q20.7969 -1.42188 13.1562 6.1875
Q5.51562 13.8125 5.51562 26.8125
Q5.51562 40.2344 12.7656 48.1094
Q20.0156 56 32.3281 56
Q43.3594 56 49.7812 48.8906
Q56.2031 41.7969 56.2031 29.5938
M47.2188 32.2344
Q47.125 39.5938 43.0938 43.9844
Q39.0625 48.3906 32.4219 48.3906
Q24.9062 48.3906 20.3906 44.1406
Q15.875 39.8906 15.1875 32.1719
z
" id="BitstreamVeraSans-Roman-65"/>
      <path d="
M34.2812 27.4844
Q23.3906 27.4844 19.1875 25
Q14.9844 22.5156 14.9844 16.5
Q14.9844 11.7188 18.1406 8.90625
Q21.2969 6.10938 26.7031 6.10938
Q34.1875 6.10938 38.7031 11.4062
Q43.2188 16.7031 43.2188 25.4844
L43.2188 27.4844
z

M52.2031 31.2031
L52.2031 0
L43.2188 0
L43.2188 8.29688
Q40.1406 3.32812 35.5469 0.953125
Q30.9531 -1.42188 24.3125 -1.42188
Q15.9219 -1.42188 10.9531 3.29688
Q6 8.01562 6 15.9219
Q6 25.1406 12.1719 29.8281
Q18.3594 34.5156 30.6094 34.5156
L43.2188 34.5156
L43.2188 35.4062
Q43.2188 41.6094 39.1406 45
Q35.0625 48.3906 27.6875 48.3906
Q23 48.3906 18.5469 47.2656
Q14.1094 46.1406 10.0156 43.8906
L10.0156 52.2031
Q14.9375 54.1094 19.5781 55.0469
Q24.2188 56 28.6094 56
Q40.4844 56 46.3438 49.8438
Q52.2031 43.7031 52.2031 31.2031" id="BitstreamVeraSans-Roman-61"/>
      <path d="
M41.1094 46.2969
Q39.5938 47.1719 37.8125 47.5781
Q36.0312 48 33.8906 48
Q26.2656 48 22.1875 43.0469
Q18.1094 38.0938 18.1094 28.8125
L18.1094 0
L9.07812 0
L9.07812 54.6875
L18.1094 54.6875
L18.1094 46.1875
Q20.9531 51.1719 25.4844 53.5781
Q30.0312 56 36.5312 56
Q37.4531 56 38.5781 55.875
Q39.7031 55.7656 41.0625 55.5156
z
" id="BitstreamVeraSans-Roman-72"/>
      <path d="
M18.1094 8.20312
L18.1094 -20.7969
L9.07812 -20.7969
L9.07812 54.6875
L18.1094 54.6875
L18.1094 46.3906
Q20.9531 51.2656 25.2656 53.625
Q29.5938 56 35.5938 56
Q45.5625 56 51.7812 48.0938
Q58.0156 40.1875 58.0156 27.2969
Q58.0156 14.4062 51.7812 6.48438
Q45.5625 -1.42188 35.5938 -1.42188
Q29.5938 -1.42188 25.2656 0.953125
Q20.9531 3.32812 18.1094 8.20312
M48.6875 27.2969
Q48.6875 37.2031 44.6094 42.8438
Q40.5312 48.4844 33.4062 48.4844
Q26.2656 48.4844 22.1875 42.8438
Q18.1094 37.2031 18.1094 27.2969
Q18.1094 17.3906 22.1875 11.75
Q26.2656 6.10938 33.4062 6.10938
Q40.5312 6.10938 44.6094 11.75
Q48.6875 17.3906 48.6875 27.2969" id="BitstreamVeraSans-Roman-70"/>
      <path d="
M48.6875 27.2969
Q48.6875 37.2031 44.6094 42.8438
Q40.5312 48.4844 33.4062 48.4844
Q26.2656 48.4844 22.1875 42.8438
Q18.1094 37.2031 18.1094 27.2969
Q18.1094 17.3906 22.1875 11.75
Q26.2656 6.10938 33.4062 6.10938
Q40.5312 6.10938 44.6094 11.75
Q48.6875 17.3906 48.6875 27.2969
M18.1094 46.3906
Q20.9531 51.2656 25.2656 53.625
Q29.5938 56 35.5938 56
Q45.5625 56 51.7812 48.0938
Q58.0156 40.1875 58.0156 27.2969
Q58.0156 14.4062 51.7812 6.48438
Q45.5625 -1.42188 35.5938 -1.42188
Q29.5938 -1.42188 25.2656 0.953125
Q20.9531 3.32812 18.1094 8.20312
L18.1094 0
L9.07812 0
L9.07812 75.9844
L18.1094 75.9844
z
" id="BitstreamVeraSans-Roman-62"/>
     </defs>
     <g transform="translate(75.275625 374.78625)rotate(-90.0)scale(0.12 -0.12)">
      <use xlink:href="#BitstreamVeraSans-Roman-70"/>
      <use x="63.4765625" xlink:href="#BitstreamVeraSans-Roman-61"/>
      <use x="124.755859375" xlink:href="#BitstreamVeraSans-Roman-72"/>
      <use x="165.869140625" xlink:href="#BitstreamVeraSans-Roman-74"/>
      <use x="205.078125" xlink:href="#BitstreamVeraSans-Roman-69"/>
      <use x="232.861328125" xlink:href="#BitstreamVeraSans-Roman-63"/>
      <use x="287.841796875" xlink:href="#BitstreamVeraSans-Roman-6c"/>
      <use x="315.625" xlink:href="#BitstreamVeraSans-Roman-65"/>
      <use x="377.1484375" xlink:href="#BitstreamVeraSans-Roman-20"/>
      <use x="408.935546875" xlink:href="#BitstreamVeraSans-Roman-6e"/>
      <use x="472.314453125" xlink:href="#BitstreamVeraSans-Roman-75"/>
      <use x="535.693359375" xlink:href="#BitstreamVeraSans-Roman-6d"/>
      <use x="633.10546875" xlink:href="#BitstreamVeraSans-Roman-62"/>
      <use x="696.58203125" xlink:href="#BitstreamVeraSans-Roman-65"/>
      <use x="758.10546875" xlink:href="#BitstreamVeraSans-Roman-72"/>
      <use x="799.21875" xlink:href="#BitstreamVeraSans-Roman-73"/>
     </g>
    </g>
   </g>
   <g id="legend_1">
    <g id="patch_7">
     <path d="
M717.006 101.224
L774.1 101.224
L774.1 68.3
L717.006 68.3
z
" style="fill:#ffffff;stroke:#000000;stroke-linejoin:miter;"/>
    </g>
    <g id="line2d_30">
     <path d="
M721.906 73.9689
L731.706 73.9689" style="fill:none;stroke:#ff0000;stroke-linecap:square;"/>
    </g>
    <g id="line2d_31"/>
    <g id="text_16">
     <!-- PKAc el.0 -->
     <defs>
      <path d="
M19.6719 64.7969
L19.6719 37.4062
L32.0781 37.4062
Q38.9688 37.4062 42.7188 40.9688
Q46.4844 44.5312 46.4844 51.125
Q46.4844 57.6719 42.7188 61.2344
Q38.9688 64.7969 32.0781 64.7969
z

M9.8125 72.9062
L32.0781 72.9062
Q44.3438 72.9062 50.6094 67.3594
Q56.8906 61.8125 56.8906 51.125
Q56.8906 40.3281 50.6094 34.8125
Q44.3438 29.2969 32.0781 29.2969
L19.6719 29.2969
L19.6719 0
L9.8125 0
z
" id="BitstreamVeraSans-Roman-50"/>
      <path d="
M34.1875 63.1875
L20.7969 26.9062
L47.6094 26.9062
z

M28.6094 72.9062
L39.7969 72.9062
L67.5781 0
L57.3281 0
L50.6875 18.7031
L17.8281 18.7031
L11.1875 0
L0.78125 0
z
" id="BitstreamVeraSans-Roman-41"/>
      <path d="
M9.8125 72.9062
L19.6719 72.9062
L19.6719 42.0938
L52.3906 72.9062
L65.0938 72.9062
L28.9062 38.9219
L67.6719 0
L54.6875 0
L19.6719 35.1094
L19.6719 0
L9.8125 0
z
" id="BitstreamVeraSans-Roman-4b"/>
      <path d="
M10.6875 12.4062
L21 12.4062
L21 0
L10.6875 0
z
" id="BitstreamVeraSans-Roman-2e"/>
     </defs>
     <g transform="translate(739.40625 76.41890625)scale(0.07 -0.07)">
      <use xlink:href="#BitstreamVeraSans-Roman-50"/>
      <use x="60.302734375" xlink:href="#BitstreamVeraSans-Roman-4b"/>
      <use x="124.12890625" xlink:href="#BitstreamVeraSans-Roman-41"/>
      <use x="190.787109375" xlink:href="#BitstreamVeraSans-Roman-63"/>
      <use x="245.767578125" xlink:href="#BitstreamVeraSans-Roman-20"/>
      <use x="277.5546875" xlink:href="#BitstreamVeraSans-Roman-65"/>
      <use x="339.078125" xlink:href="#BitstreamVeraSans-Roman-6c"/>
      <use x="366.861328125" xlink:href="#BitstreamVeraSans-Roman-2e"/>
      <use x="398.6484375" xlink:href="#BitstreamVeraSans-Roman-30"/>
     </g>
    </g>
    <g id="line2d_32">
     <path d="
M721.906 84.2436
L731.706 84.2436" style="fill:none;stroke:#008000;stroke-linecap:square;"/>
    </g>
    <g id="line2d_33"/>
    <g id="text_17">
     <!-- PKAc el.1 -->
     <g transform="translate(739.40625 86.69359375)scale(0.07 -0.07)">
      <use xlink:href="#BitstreamVeraSans-Roman-50"/>
      <use x="60.302734375" xlink:href="#BitstreamVeraSans-Roman-4b"/>
      <use x="124.12890625" xlink:href="#BitstreamVeraSans-Roman-41"/>
      <use x="190.787109375" xlink:href="#BitstreamVeraSans-Roman-63"/>
      <use x="245.767578125" xlink:href="#BitstreamVeraSans-Roman-20"/>
      <use x="277.5546875" xlink:href="#BitstreamVeraSans-Roman-65"/>
      <use x="339.078125" xlink:href="#BitstreamVeraSans-Roman-6c"/>
      <use x="366.861328125" xlink:href="#BitstreamVeraSans-Roman-2e"/>
      <use x="398.6484375" xlink:href="#BitstreamVeraSans-Roman-31"/>
     </g>
    </g>
    <g id="line2d_34">
     <path d="
M721.906 94.5183
L731.706 94.5183" style="fill:none;stroke:#0000ff;stroke-linecap:square;"/>
    </g>
    <g id="line2d_35"/>
    <g id="text_18">
     <!-- PKAc el.2 -->
     <g transform="translate(739.40625 96.96828125)scale(0.07 -0.07)">
      <use xlink:href="#BitstreamVeraSans-Roman-50"/>
      <use x="60.302734375" xlink:href="#BitstreamVeraSans-Roman-4b"/>
      <use x="124.12890625" xlink:href="#BitstreamVeraSans-Roman-41"/>
      <use x="190.787109375" xlink:href="#BitstreamVeraSans-Roman-63"/>
      <use x="245.767578125" xlink:href="#BitstreamVeraSans-Roman-20"/>
      <use x="277.5546875" xlink:href="#BitstreamVeraSans-Roman-65"/>
      <use x="339.078125" xlink:href="#BitstreamVeraSans-Roman-6c"/>
      <use x="366.861328125" xlink:href="#BitstreamVeraSans-Roman-2e"/>
      <use x="398.6484375" xlink:href="#BitstreamVeraSans-Roman-32"/>
     </g>
    </g>
   </g>
  </g>
 </g>
 <defs>
  <clipPath id="p7ceb695115">
   <rect height="518.4" width="669.6" x="108.0" y="64.8"/>
  </clipPath>
 </defs>
</svg>
