<?xml version="1.0" encoding="utf-8" standalone="no"?>
<!DOCTYPE svg PUBLIC "-//W3C//DTD SVG 1.1//EN"
  "http://www.w3.org/Graphics/SVG/1.1/DTD/svg11.dtd">
<!-- Created with matplotlib (http://matplotlib.org/) -->
<svg height="648pt" version="1.1" viewBox="0 0 864 648" width="864pt" xmlns="http://www.w3.org/2000/svg" xmlns:xlink="http://www.w3.org/1999/xlink">
 <defs>
  <style type="text/css">
*{stroke-linecap:butt;stroke-linejoin:round;}
  </style>
 </defs>
 <g id="figure_1">
  <g id="patch_1">
   <path d="
M0 648
L864 648
L864 0
L0 0
z
" style="fill:#ffffff;"/>
  </g>
  <g id="axes_1">
   <g id="patch_2">
    <path d="
M108 583.2
L777.6 583.2
L777.6 64.8
L108 64.8
z
" style="fill:#ffffff;"/>
   </g>
   <g id="line2d_1">
    <path clip-path="url(#p7ceb695115)" d="
M108 583.2
L108.67 581.645
L109.339 580.09
L110.009 580.09
L112.018 578.534
L112.687 574.387
L113.357 573.869
L114.026 571.277
L114.696 569.722
L116.035 562.982
L117.374 554.17
L118.044 553.133
L118.714 552.614
L119.383 546.912
L120.053 542.246
L120.722 539.136
L121.392 533.434
L122.062 529.286
L123.401 523.584
L124.07 517.882
L124.74 515.808
L125.41 512.179
L126.079 503.366
L126.749 498.182
L129.427 482.112
L130.097 481.594
L130.766 479.002
L132.106 472.262
L132.775 472.262
L133.445 468.634
L134.114 468.634
L134.784 466.56
L136.123 464.486
L136.793 461.894
L137.462 456.71
L138.132 453.082
L138.802 454.118
L140.141 447.379
L140.81 439.085
L141.48 438.048
L142.15 434.419
L144.158 429.754
L144.828 423.533
L145.498 423.014
L146.167 423.014
L146.837 421.978
L147.506 421.459
L148.176 419.904
L148.846 420.941
L150.185 415.757
L150.854 412.646
L151.524 411.61
L152.194 409.018
L152.863 403.834
L153.533 404.352
L154.202 401.76
L154.872 402.797
L155.542 403.315
L156.211 404.87
L156.881 403.315
L157.55 403.834
L158.22 400.205
L158.89 398.65
L159.559 399.168
L160.229 400.723
L160.898 398.65
L162.238 397.613
L162.907 399.686
L163.577 397.094
L164.246 395.021
L164.916 396.058
L165.586 388.282
L166.255 388.8
L166.925 386.726
L167.594 387.763
L168.264 385.69
L168.934 388.8
L169.603 388.282
L170.273 385.69
L170.942 382.579
L172.282 380.506
L172.951 374.285
L173.621 374.803
L174.29 375.84
L174.96 374.285
L175.63 378.432
L176.299 377.395
L176.969 376.877
L177.638 376.877
L178.978 371.174
L179.647 368.582
L180.317 370.138
L180.986 368.064
L181.656 363.917
L182.326 362.88
L182.995 367.546
L183.665 365.99
L184.334 368.064
L185.004 368.064
L185.674 368.582
L186.343 367.546
L187.013 369.101
L187.682 369.619
L188.352 368.064
L189.022 365.472
L189.691 364.435
L190.361 365.99
L191.03 369.101
L191.7 368.064
L192.37 364.435
L193.039 362.88
L193.709 359.251
L194.378 357.696
L195.048 357.696
L195.718 359.251
L196.387 354.586
L197.057 354.067
L198.396 357.178
L199.066 352.512
L199.735 349.402
L200.405 349.92
L201.074 347.846
L201.744 347.328
L202.414 347.328
L203.083 343.181
L203.753 346.291
L204.422 345.254
L205.092 341.626
L205.762 340.07
L206.431 344.218
L207.101 342.662
L207.77 342.144
L208.44 340.07
L209.11 339.552
L209.779 339.552
L210.449 342.662
L211.118 340.589
L211.788 339.034
L212.458 342.144
L213.127 343.181
L213.797 343.181
L214.466 346.291
L215.806 347.328
L216.475 343.699
L217.145 343.181
L217.814 343.181
L218.484 341.107
L219.154 341.626
L219.823 339.034
L220.493 338.515
L221.162 340.589
L222.502 345.773
L223.171 351.994
L223.841 349.402
L224.51 347.846
L225.18 348.365
L225.85 348.365
L226.519 344.218
L227.189 342.144
L227.858 343.181
L228.528 343.699
L229.198 345.254
L229.867 342.662
L230.537 339.034
L231.206 333.331
L231.876 337.997
L232.546 339.034
L233.215 337.997
L233.885 336.442
L234.554 342.144
L235.224 341.626
L235.894 340.07
L236.563 344.218
L237.233 345.773
L237.902 349.92
L238.572 350.957
L239.242 347.328
L239.911 346.291
L240.581 348.365
L241.25 344.218
L241.92 341.626
L242.59 341.107
L243.259 341.626
L243.929 345.254
L244.598 344.736
L245.268 345.773
L245.938 350.438
L246.607 350.957
L247.277 355.104
L247.946 354.067
L248.616 354.586
L249.286 353.549
L249.955 351.994
L250.625 351.994
L251.294 353.03
L251.964 351.994
L252.634 348.883
L253.303 347.328
L253.973 349.402
L254.642 347.846
L255.312 354.067
L255.982 356.141
L257.321 357.178
L257.99 358.733
L258.66 357.178
L259.33 354.586
L259.999 355.104
L260.669 356.141
L261.338 357.696
L262.008 355.104
L262.678 354.586
L263.347 356.141
L264.017 354.586
L264.686 352.512
L266.026 353.549
L266.695 351.994
L267.365 355.104
L268.034 357.178
L268.704 351.475
L269.374 355.622
L270.713 361.843
L271.382 363.398
L272.052 370.138
L272.722 371.174
L273.391 374.803
L274.061 371.693
L274.73 372.211
L275.4 374.285
L276.739 381.542
L277.409 381.542
L278.078 379.469
L278.748 380.506
L279.418 381.024
L280.087 381.024
L280.757 377.914
L281.426 376.877
L282.096 375.322
L282.766 371.693
L283.435 373.766
L284.105 370.656
L284.774 370.138
L285.444 370.656
L286.114 372.211
L286.783 374.803
L287.453 372.73
L288.122 373.248
L289.462 372.211
L290.131 370.656
L290.801 371.693
L291.47 375.84
L292.14 377.914
L292.81 377.395
L293.479 379.469
L294.149 380.506
L294.818 380.506
L295.488 378.95
L296.158 381.542
L296.827 381.024
L297.497 378.95
L298.166 374.285
L299.506 378.432
L300.175 378.432
L300.845 377.914
L301.514 377.914
L302.184 376.358
L302.854 375.322
L304.862 379.987
L305.532 381.024
L306.202 379.469
L306.871 381.024
L307.541 379.469
L308.21 381.542
L308.88 379.469
L309.55 381.542
L311.558 383.098
L312.228 382.061
L312.898 380.506
L313.567 384.653
L314.237 384.653
L314.906 388.282
L315.576 388.8
L316.246 390.355
L316.915 388.8
L317.585 388.282
L318.924 390.355
L319.594 390.355
L320.263 391.392
L320.933 389.837
L321.602 389.837
L322.272 388.8
L322.942 392.947
L323.611 391.392
L324.281 391.91
L324.95 390.874
L325.62 391.91
L326.29 393.466
L326.959 391.392
L327.629 387.763
L328.298 387.245
L328.968 387.245
L329.638 387.763
L330.307 387.245
L330.977 383.616
L331.646 382.061
L332.316 384.653
L332.986 380.506
L333.655 381.024
L334.325 385.171
L334.994 384.653
L335.664 385.69
L336.334 389.318
L337.003 386.208
L337.673 387.763
L338.342 388.282
L339.012 387.245
L339.682 387.763
L340.351 385.69
L341.021 387.763
L341.69 387.763
L343.03 391.91
L343.699 388.282
L344.369 387.245
L345.038 386.726
L345.708 391.392
L346.378 390.355
L347.047 393.466
L348.386 384.653
L349.726 388.8
L350.395 391.91
L351.065 391.91
L351.734 392.429
L352.404 396.576
L353.074 395.539
L353.743 393.984
L354.413 393.466
L355.082 396.058
L355.752 395.539
L356.422 395.539
L357.091 396.058
L357.761 398.65
L358.43 396.576
L359.1 399.686
L359.77 399.168
L360.439 397.613
L361.109 395.539
L362.448 396.576
L363.118 396.058
L363.787 395.021
L364.457 395.539
L365.126 395.539
L365.796 396.576
L366.466 399.168
L367.805 401.242
L368.474 401.242
L369.814 402.278
L370.483 402.278
L371.153 403.315
L371.822 405.907
L372.492 402.797
L373.162 403.834
L373.831 400.205
L374.501 403.834
L375.17 403.315
L375.84 403.315
L376.51 402.278
L377.179 405.389
L377.849 406.944
L378.518 404.87
L379.188 404.352
L379.858 407.981
L380.527 407.462
L381.197 406.426
L381.866 407.981
L382.536 407.981
L383.206 409.018
L383.875 409.536
L384.545 407.981
L385.214 411.091
L385.884 413.165
L386.554 418.867
L387.223 419.386
L387.893 418.349
L388.562 416.794
L389.232 416.794
L389.902 414.72
L390.571 412.128
L391.241 413.165
L391.91 415.238
L392.58 417.83
L393.25 419.386
L393.919 418.349
L394.589 419.904
L395.258 418.867
L395.928 416.275
L396.598 417.312
L397.267 420.941
L397.937 420.422
L398.606 421.978
L399.276 415.238
L400.615 419.386
L401.285 414.72
L401.954 412.646
L402.624 414.72
L403.294 414.202
L403.963 414.72
L404.633 412.128
L405.302 414.202
L405.972 413.165
L406.642 414.202
L407.311 413.165
L407.981 416.794
L408.65 415.238
L409.32 418.349
L409.99 419.904
L410.659 419.904
L411.329 417.83
L411.998 417.83
L412.668 414.202
L413.338 416.794
L414.007 415.757
L414.677 415.757
L415.346 416.794
L416.016 417.312
L416.686 416.275
L417.355 416.794
L418.025 417.83
L418.694 420.422
L419.364 417.83
L420.034 418.867
L420.703 418.349
L421.373 417.312
L422.042 414.72
L422.712 413.165
L423.382 413.683
L424.051 414.72
L424.721 410.054
L425.39 409.536
L426.06 407.981
L426.73 410.054
L427.399 409.536
L428.069 412.646
L428.738 413.683
L429.408 415.757
L430.747 416.794
L431.417 417.83
L432.756 420.941
L433.426 420.941
L434.095 417.83
L434.765 420.422
L435.434 420.422
L436.104 416.275
L436.774 416.794
L437.443 415.238
L438.113 417.312
L438.782 417.83
L439.452 416.794
L440.791 417.83
L441.461 414.72
L442.13 414.202
L442.8 415.757
L443.47 419.904
L444.139 418.349
L445.478 383.616
L446.148 345.254
L446.818 296.525
L448.157 173.664
L448.826 138.413
L449.496 116.64
L450.166 114.048
L450.835 129.082
L451.505 147.744
L452.174 161.741
L452.844 202.176
L453.514 251.942
L454.183 268.531
L454.853 296.525
L455.522 307.93
L456.192 343.181
L456.862 365.472
L457.531 377.395
L458.201 382.579
L458.87 395.539
L459.54 402.278
L460.21 417.83
L460.879 412.128
L461.549 426.643
L462.218 432.864
L462.888 423.014
L463.558 430.79
L465.566 459.302
L466.236 455.674
L466.906 453.082
L467.575 454.118
L468.914 438.566
L469.584 458.784
L470.254 466.56
L470.923 460.339
L472.262 460.339
L472.932 468.115
L473.602 470.707
L474.941 462.931
L475.61 474.336
L476.28 461.376
L476.95 480.038
L478.289 460.339
L478.958 475.373
L479.628 469.152
L480.298 460.339
L480.967 472.262
L481.637 477.446
L482.976 448.934
L483.646 463.968
L484.315 458.266
L484.985 473.299
L485.654 471.744
L486.324 471.744
L486.994 469.152
L487.663 467.078
L488.333 467.597
L489.002 471.226
L489.672 481.075
L491.011 463.45
L491.681 473.818
L492.35 476.41
L493.02 471.226
L493.69 456.192
L494.359 465.005
L495.029 467.078
L495.698 461.894
L496.368 470.189
L497.038 461.894
L497.707 470.707
L498.377 471.226
L499.046 471.226
L499.716 470.707
L500.386 467.078
L501.055 468.115
L501.725 454.118
L502.394 465.005
L503.064 463.45
L503.734 455.674
L505.073 456.71
L505.742 462.931
L506.412 463.45
L507.082 458.784
L507.751 470.707
L508.421 448.934
L509.09 463.45
L510.43 453.6
L511.099 456.71
L511.769 449.971
L512.438 451.526
L513.108 449.971
L513.778 459.821
L514.447 453.6
L515.117 445.824
L515.786 445.824
L516.456 458.266
L517.126 447.898
L517.795 462.931
L518.465 450.49
L519.134 458.784
L519.804 454.637
L520.474 454.637
L521.143 445.824
L521.813 465.005
L522.482 453.082
L523.152 463.45
L524.491 448.934
L525.161 451.008
L525.83 435.974
L526.5 447.898
L527.17 452.045
L527.839 437.011
L528.509 451.008
L529.178 430.272
L529.848 440.122
L530.518 459.302
L531.187 445.306
L531.857 454.118
L532.526 437.53
L533.196 443.232
L533.866 433.901
L534.535 441.158
L535.205 429.235
L536.544 450.49
L537.214 448.934
L537.883 438.048
L538.553 442.714
L539.222 453.082
L539.892 435.974
L540.562 437.53
L541.231 427.162
L541.901 445.824
L542.57 442.714
L543.24 435.974
L543.91 438.566
L544.579 435.974
L545.249 449.453
L545.918 430.79
L546.588 437.53
L547.258 421.978
L547.927 419.386
L548.597 428.717
L549.266 435.456
L549.936 435.974
L550.606 428.717
L551.275 440.122
L551.945 441.158
L553.284 421.978
L553.954 434.938
L554.623 429.754
L555.293 426.643
L555.962 435.456
L556.632 419.904
L557.302 429.754
L557.971 427.68
L558.641 434.938
L559.31 417.83
L559.98 431.309
L560.65 424.57
L561.319 438.566
L562.658 418.867
L563.328 426.643
L563.998 430.272
L564.667 439.603
L565.337 417.83
L566.006 426.125
L566.676 419.386
L567.346 414.72
L568.015 406.426
L568.685 419.386
L569.354 424.57
L570.024 413.683
L570.694 423.533
L571.363 412.646
L572.033 406.944
L572.702 412.646
L573.372 424.051
L574.042 430.272
L575.381 406.944
L576.05 407.981
L576.72 411.091
L577.39 403.834
L578.059 404.87
L579.398 421.459
L580.738 397.094
L581.407 393.984
L582.077 402.278
L582.746 402.278
L583.416 395.021
L584.086 408.499
L584.755 389.837
L585.425 400.205
L586.094 395.021
L586.764 396.576
L587.434 398.65
L588.103 388.282
L588.773 392.947
L589.442 400.205
L590.112 392.429
L590.782 411.61
L591.451 407.462
L592.121 392.947
L592.79 386.726
L593.46 397.613
L594.13 388.282
L594.799 382.579
L595.469 382.579
L596.138 382.061
L596.808 395.021
L597.478 401.76
L598.147 378.432
L598.817 395.539
L599.486 392.947
L600.156 384.653
L600.826 374.285
L601.495 386.208
L602.165 383.098
L602.834 378.95
L603.504 383.616
L604.174 384.653
L604.843 376.877
L605.513 374.285
L606.182 353.03
L606.852 367.546
L607.522 370.656
L608.191 361.325
L608.861 368.064
L609.53 385.69
L610.2 386.208
L610.87 381.542
L611.539 375.322
L612.209 373.766
L612.878 369.619
L613.548 371.174
L614.218 354.586
L614.887 364.954
L615.557 367.027
L616.226 372.73
L616.896 370.656
L617.566 360.806
L618.235 365.99
L618.905 363.398
L619.574 372.73
L620.244 356.659
L620.914 360.288
L621.583 347.846
L622.253 359.77
L622.922 348.883
L623.592 353.03
L624.262 363.398
L624.931 357.178
L625.601 371.174
L626.27 364.954
L626.94 353.549
L627.61 355.104
L628.279 350.438
L629.618 365.472
L630.288 365.472
L631.627 354.586
L632.297 371.174
L632.966 345.773
L633.636 336.96
L634.306 342.662
L634.975 343.699
L635.645 340.07
L636.314 340.07
L636.984 341.626
L637.654 334.886
L638.323 330.221
L638.993 332.294
L639.662 335.923
L640.332 335.923
L641.002 343.699
L641.671 332.294
L642.341 333.331
L643.01 343.699
L643.68 342.144
L645.019 328.147
L645.689 319.334
L646.358 343.699
L647.028 354.067
L647.698 352.512
L648.367 345.773
L649.037 334.886
L649.706 351.475
L650.376 358.733
L651.046 346.81
L651.715 345.773
L652.385 331.776
L653.054 340.589
L653.724 328.147
L654.394 336.96
L655.063 333.85
L655.733 343.699
L656.402 344.218
L657.072 345.254
L659.081 325.555
L659.75 339.552
L660.42 318.816
L661.09 314.669
L661.759 317.779
L662.429 325.555
L663.098 326.592
L663.768 332.294
L664.438 332.294
L665.107 342.144
L665.777 335.923
L666.446 332.294
L667.116 336.96
L667.786 331.776
L668.455 341.626
L669.125 341.626
L669.794 336.442
L670.464 337.478
L671.134 337.478
L671.803 341.626
L672.473 330.221
L673.142 330.739
L673.812 320.89
L674.482 329.702
L675.151 316.742
L675.821 338.515
L676.49 334.368
L677.16 343.181
L677.83 339.552
L678.499 343.699
L679.169 329.184
L679.838 333.85
L680.508 334.368
L681.178 322.445
L681.847 332.813
L682.517 321.408
L683.186 317.779
L683.856 322.445
L684.526 314.669
L685.195 312.595
L685.865 308.448
L686.534 316.742
L687.204 309.485
L687.874 338.515
L688.543 330.221
L689.213 316.224
L689.882 317.779
L690.552 337.478
L691.222 332.813
L691.891 323.482
L692.561 327.11
L693.23 317.261
L693.9 312.595
L694.57 297.043
L695.239 305.338
L695.909 304.301
L696.578 315.706
L697.248 308.966
L697.918 321.926
L698.587 324.518
L699.257 317.779
L699.926 312.595
L700.596 291.859
L701.266 312.595
L701.935 319.334
L702.605 300.672
L703.944 282.528
L704.614 289.267
L705.283 301.19
L705.953 296.006
L706.622 296.525
L707.292 292.378
L707.962 296.525
L708.631 282.528
L709.301 292.378
L709.97 299.117
L710.64 286.157
L711.31 300.672
L712.649 279.936
L713.318 280.973
L713.988 296.006
L714.658 304.301
L715.327 297.043
L715.997 307.411
L716.666 310.522
L717.336 322.963
L718.006 312.595
L718.675 292.896
L719.345 321.926
L720.014 299.635
L720.684 291.341
L721.354 291.859
L722.023 297.043
L722.693 303.264
L723.362 302.746
L724.032 279.936
L724.702 280.973
L725.371 274.752
L726.041 270.605
L726.71 285.638
L727.38 293.414
L728.05 286.157
L728.719 304.819
L729.389 299.117
L730.058 310.003
L730.728 301.19
L732.067 270.086
L732.737 287.712
L733.406 293.933
L734.076 293.414
L734.746 282.528
L735.415 278.381
L736.085 283.565
L736.754 291.341
L737.424 296.006
L738.094 281.491
L738.763 259.2
L739.433 282.01
L740.102 296.006
L740.772 300.154
L741.442 292.896
L742.111 281.491
L742.781 287.194
L743.45 266.976
L744.12 281.491
L744.79 282.01
L745.459 275.27
L746.129 272.16
L746.798 250.387
L747.468 262.31
L748.138 263.866
L748.807 269.05
L749.477 268.531
L750.146 269.05
L750.816 265.939
L751.486 264.384
L752.155 260.237
L752.825 254.016
L753.494 282.01
L754.164 283.046
L754.834 277.344
L755.503 273.715
L756.173 277.862
L756.842 255.571
L757.512 264.902
L758.182 263.347
L758.851 279.418
L759.521 273.197
L760.19 276.826
L760.86 275.27
L761.53 259.2
L762.199 260.237
L762.869 254.016
L763.538 257.645
L764.208 254.534
L764.878 252.461
L765.547 249.35
L766.217 243.13
L766.886 251.424
L767.556 244.166
L768.226 258.163
L768.895 248.314
L769.565 244.166
L770.234 252.979
L770.904 243.13
L771.574 248.314
L772.243 234.835
L772.913 252.461
L773.582 245.722
L774.252 250.906
L774.922 262.31
L775.591 250.906
L776.261 252.979
L776.93 256.09
L777.6 242.611
L777.6 242.611" style="fill:none;stroke:#ff0000;stroke-linecap:square;"/>
   </g>
   <g id="line2d_2">
    <path clip-path="url(#p7ceb695115)" d="
M108 583.2
L777.6 583.2
L777.6 583.2" style="fill:none;stroke:#008000;stroke-linecap:square;"/>
   </g>
   <g id="line2d_3">
    <path clip-path="url(#p7ceb695115)" d="
M108 583.2
L108.67 582.682
L109.339 582.163
L110.678 582.163
L111.348 580.09
L112.687 573.35
L113.357 571.277
L114.026 567.13
L114.696 564.538
L115.366 562.464
L116.035 560.909
L116.705 559.872
L117.374 555.206
L118.044 553.133
L118.714 546.394
L119.383 542.765
L120.053 540.173
L120.722 534.989
L121.392 533.434
L122.062 529.805
L123.401 520.992
L124.07 518.4
L124.74 514.253
L125.41 512.179
L126.079 503.885
L128.088 491.443
L128.758 488.851
L129.427 480.557
L130.097 476.928
L130.766 476.928
L131.436 472.781
L132.106 467.597
L132.775 467.078
L133.445 464.486
L134.114 456.192
L134.784 456.192
L135.454 453.082
L136.123 452.563
L136.793 449.453
L137.462 444.787
L138.132 441.158
L139.471 438.048
L140.141 435.974
L140.81 430.272
L141.48 432.346
L142.15 432.346
L142.819 429.754
L143.489 425.606
L144.158 424.57
L144.828 418.867
L145.498 418.349
L146.167 422.496
L146.837 421.459
L148.176 416.275
L148.846 417.83
L149.515 415.757
L150.185 415.757
L150.854 413.683
L151.524 412.128
L152.194 407.981
L152.863 404.87
L153.533 405.907
L154.202 402.278
L154.872 402.797
L155.542 406.426
L156.211 404.352
L156.881 397.613
L157.55 396.058
L158.22 395.021
L158.89 388.282
L159.559 391.392
L160.229 388.282
L160.898 389.318
L161.568 386.726
L162.238 386.726
L162.907 384.134
L163.577 383.616
L164.246 383.616
L164.916 377.914
L165.586 377.914
L166.255 376.877
L166.925 377.395
L167.594 377.395
L168.264 376.877
L168.934 379.469
L169.603 383.098
L170.273 382.061
L170.942 381.542
L171.612 374.803
L172.282 371.693
L172.951 370.138
L173.621 370.138
L174.29 368.064
L175.63 365.99
L176.299 364.435
L176.969 361.325
L177.638 363.398
L178.978 358.214
L179.647 356.659
L180.317 360.806
L180.986 359.77
L181.656 362.362
L182.326 361.325
L182.995 358.214
L183.665 356.141
L184.334 355.622
L185.004 357.178
L185.674 356.659
L187.013 350.438
L187.682 352.512
L188.352 351.994
L189.022 353.03
L190.361 348.883
L191.03 353.03
L191.7 353.549
L192.37 353.549
L193.039 356.141
L193.709 357.696
L194.378 361.843
L195.048 363.398
L195.718 362.88
L196.387 366.509
L197.057 364.954
L198.396 362.88
L199.066 361.325
L199.735 361.843
L201.074 360.806
L201.744 360.806
L202.414 358.214
L203.083 358.214
L203.753 357.696
L204.422 360.806
L205.092 362.88
L205.762 365.472
L206.431 362.88
L207.101 362.362
L207.77 359.251
L208.44 359.251
L209.11 358.733
L209.779 360.288
L210.449 365.99
L211.118 362.88
L211.788 365.472
L212.458 361.843
L213.127 359.77
L213.797 353.03
L214.466 351.994
L215.136 352.512
L215.806 351.475
L216.475 350.957
L217.145 350.957
L217.814 347.328
L219.154 346.291
L220.493 352.512
L221.162 349.92
L221.832 349.92
L222.502 347.846
L223.171 346.291
L223.841 346.81
L224.51 345.254
L225.18 341.107
L225.85 343.181
L226.519 343.181
L227.858 347.328
L228.528 346.291
L229.198 342.662
L229.867 345.773
L230.537 347.846
L231.206 351.475
L231.876 348.365
L232.546 349.402
L233.885 355.622
L234.554 355.104
L235.224 351.994
L235.894 352.512
L236.563 353.549
L237.233 360.288
L237.902 362.362
L238.572 361.325
L239.242 361.325
L239.911 357.696
L240.581 357.178
L241.25 357.696
L241.92 361.325
L242.59 360.806
L243.259 355.104
L243.929 361.325
L244.598 362.362
L245.268 357.696
L245.938 359.77
L246.607 360.806
L247.277 356.141
L247.946 355.622
L248.616 356.141
L249.286 356.141
L249.955 359.251
L250.625 358.733
L251.964 359.77
L252.634 361.325
L253.303 360.806
L253.973 361.325
L254.642 367.027
L255.312 361.843
L255.982 364.435
L256.651 361.843
L257.321 363.917
L257.99 365.472
L258.66 364.954
L259.33 368.064
L259.999 365.99
L260.669 369.101
L262.008 367.027
L262.678 372.211
L263.347 371.693
L264.017 370.656
L264.686 371.174
L265.356 372.73
L266.026 373.248
L266.695 378.432
L267.365 377.914
L268.034 374.803
L268.704 373.248
L269.374 369.101
L270.043 369.101
L270.713 371.693
L271.382 368.582
L272.052 366.509
L272.722 365.99
L273.391 363.917
L274.061 365.472
L274.73 363.398
L275.4 360.806
L276.07 360.806
L276.739 360.288
L277.409 358.733
L278.078 359.77
L278.748 358.214
L279.418 360.288
L280.087 359.251
L280.757 361.843
L281.426 363.398
L282.766 360.288
L283.435 362.362
L284.105 361.325
L284.774 359.251
L285.444 359.251
L286.114 361.843
L286.783 362.362
L287.453 363.398
L288.122 363.398
L288.792 367.546
L289.462 364.435
L290.131 364.954
L290.801 366.509
L291.47 366.509
L292.14 367.546
L292.81 372.211
L293.479 373.766
L294.149 371.174
L294.818 375.322
L295.488 372.73
L296.158 372.73
L296.827 372.211
L298.166 383.616
L298.836 387.763
L300.175 382.579
L300.845 384.653
L301.514 379.469
L302.184 382.061
L302.854 381.542
L303.523 381.542
L304.193 378.95
L304.862 378.432
L305.532 381.024
L306.202 381.542
L306.871 384.134
L307.541 385.171
L308.88 383.098
L309.55 386.726
L310.219 385.69
L310.889 384.134
L311.558 384.134
L312.898 388.282
L313.567 387.245
L314.237 392.429
L314.906 393.984
L315.576 393.466
L316.246 392.429
L316.915 390.355
L317.585 390.874
L318.254 392.947
L318.924 393.984
L319.594 393.984
L320.263 398.131
L320.933 398.65
L321.602 399.686
L322.272 397.094
L322.942 397.613
L323.611 396.576
L324.281 397.613
L324.95 399.168
L325.62 398.65
L326.29 398.65
L326.959 397.094
L327.629 397.613
L328.298 398.65
L328.968 401.242
L329.638 399.686
L330.307 399.168
L330.977 400.205
L331.646 402.278
L332.316 398.131
L332.986 399.686
L333.655 399.168
L334.994 392.947
L335.664 393.466
L336.334 397.613
L337.003 396.576
L337.673 395.021
L338.342 396.576
L339.012 396.058
L339.682 396.058
L340.351 393.466
L341.021 395.539
L341.69 394.502
L342.36 396.058
L343.03 398.65
L343.699 398.65
L344.369 395.021
L345.038 396.058
L345.708 396.058
L346.378 398.131
L347.047 395.021
L347.717 395.539
L348.386 394.502
L350.395 396.058
L351.065 395.539
L351.734 397.613
L352.404 397.613
L353.074 399.686
L353.743 397.613
L354.413 398.131
L355.082 397.094
L355.752 399.168
L356.422 400.205
L357.091 402.797
L357.761 404.352
L358.43 403.834
L359.1 397.094
L359.77 397.094
L361.109 393.984
L361.778 395.539
L362.448 396.576
L363.118 399.168
L363.787 399.686
L364.457 401.242
L365.126 399.168
L365.796 401.76
L366.466 401.242
L367.135 402.278
L367.805 405.907
L368.474 408.499
L369.144 409.536
L369.814 409.018
L370.483 410.054
L371.822 410.054
L372.492 411.61
L373.162 409.018
L373.831 411.091
L374.501 410.573
L375.17 410.573
L375.84 411.61
L376.51 410.054
L377.179 409.018
L377.849 409.536
L378.518 409.018
L379.188 409.536
L379.858 411.61
L381.197 414.72
L381.866 415.238
L382.536 411.091
L383.206 413.683
L383.875 413.683
L384.545 416.794
L385.214 416.275
L386.554 416.275
L387.223 423.014
L387.893 424.051
L388.562 424.051
L389.232 419.904
L389.902 417.83
L390.571 419.904
L391.241 419.386
L391.91 420.422
L392.58 419.904
L393.25 420.941
L393.919 420.941
L394.589 419.904
L395.928 419.904
L396.598 420.422
L397.267 419.904
L398.606 423.014
L399.276 423.533
L399.946 420.941
L401.285 415.238
L401.954 414.72
L402.624 412.646
L403.294 413.165
L403.963 414.72
L404.633 418.349
L405.302 420.422
L405.972 420.422
L407.311 422.496
L408.65 413.683
L409.32 412.128
L409.99 416.275
L410.659 416.275
L411.329 417.83
L411.998 419.904
L413.338 420.941
L414.007 420.941
L414.677 418.867
L415.346 421.459
L416.016 423.533
L416.686 423.533
L417.355 420.941
L418.025 423.014
L419.364 424.051
L420.034 423.533
L420.703 423.533
L421.373 422.496
L422.042 420.941
L422.712 418.867
L423.382 419.386
L424.051 421.459
L424.721 424.051
L425.39 421.459
L426.06 420.941
L426.73 421.459
L427.399 424.051
L428.069 424.051
L428.738 425.088
L429.408 425.088
L430.078 423.533
L430.747 425.606
L431.417 427.162
L432.086 427.162
L432.756 426.125
L434.095 427.162
L434.765 427.162
L435.434 426.643
L436.104 428.717
L436.774 428.198
L437.443 429.235
L438.113 426.643
L438.782 424.57
L439.452 426.643
L440.122 428.198
L440.791 430.272
L441.461 431.827
L442.13 430.79
L442.8 433.901
L443.47 432.346
L444.139 426.643
L444.809 413.165
L445.478 391.392
L446.818 305.338
L447.487 249.869
L448.157 178.848
L448.826 146.707
L449.496 106.79
L450.166 104.717
L450.835 110.419
L451.505 138.931
L452.174 161.222
L452.844 200.621
L453.514 226.022
L454.183 275.789
L456.192 358.214
L456.862 371.693
L457.531 402.797
L458.201 391.392
L458.87 419.386
L459.54 413.165
L460.21 432.864
L460.879 434.419
L461.549 439.603
L462.218 433.382
L462.888 434.419
L463.558 452.563
L464.227 443.232
L464.897 439.085
L465.566 439.085
L466.236 442.195
L466.906 447.379
L467.575 447.898
L468.245 444.269
L468.914 453.6
L469.584 457.229
L470.254 459.302
L470.923 459.821
L471.593 459.821
L472.262 468.634
L472.932 469.67
L473.602 468.634
L474.271 483.149
L474.941 458.266
L475.61 465.005
L476.28 459.302
L476.95 460.858
L477.619 464.486
L478.289 475.891
L478.958 479.52
L479.628 467.078
L480.298 473.299
L480.967 467.597
L481.637 463.45
L482.306 468.115
L482.976 452.045
L483.646 471.744
L484.315 471.744
L484.985 476.928
L485.654 471.226
L486.324 463.45
L486.994 476.41
L487.663 466.042
L488.333 473.818
L489.002 465.005
L489.672 461.894
L490.342 467.597
L491.011 459.302
L491.681 462.931
L492.35 470.189
L493.02 466.042
L493.69 464.486
L494.359 481.594
L495.029 479.002
L495.698 475.891
L496.368 476.928
L497.038 460.858
L497.707 460.339
L498.377 454.637
L499.046 459.302
L499.716 475.373
L500.386 461.894
L501.055 467.078
L501.725 473.299
L503.064 462.413
L503.734 462.413
L504.403 452.563
L505.073 457.747
L505.742 470.189
L506.412 469.152
L507.082 473.299
L507.751 468.634
L508.421 446.861
L509.09 472.781
L509.76 456.71
L510.43 454.637
L511.099 451.008
L511.769 451.526
L512.438 449.971
L513.108 469.67
L513.778 457.747
L514.447 457.747
L515.117 454.637
L515.786 458.784
L516.456 461.376
L517.126 446.861
L517.795 472.262
L518.465 465.005
L519.134 449.453
L519.804 449.453
L520.474 456.71
L521.143 446.861
L521.813 462.413
L522.482 465.005
L523.152 454.118
L523.822 450.49
L524.491 456.71
L525.161 442.195
L525.83 445.824
L526.5 465.005
L527.17 449.453
L527.839 451.008
L528.509 447.379
L529.178 436.493
L529.848 446.861
L530.518 448.416
L531.187 453.6
L531.857 442.714
L532.526 449.971
L533.196 451.526
L533.866 443.75
L534.535 451.008
L535.205 449.971
L535.874 446.861
L536.544 432.864
L537.214 427.68
L537.883 429.754
L539.222 446.861
L539.892 447.379
L540.562 439.085
L541.231 434.938
L541.901 436.493
L542.57 435.974
L543.24 423.533
L543.91 434.419
L544.579 437.53
L545.249 431.827
L545.918 442.195
L546.588 435.456
L547.258 434.938
L547.927 442.714
L548.597 428.198
L549.266 432.346
L549.936 430.79
L550.606 428.198
L551.275 437.53
L551.945 433.901
L552.614 436.493
L553.284 413.165
L553.954 428.717
L554.623 416.794
L555.293 430.272
L555.962 427.68
L556.632 426.643
L557.302 409.018
L557.971 432.864
L558.641 431.827
L559.31 410.573
L559.98 410.573
L560.65 431.827
L561.319 428.717
L561.989 424.57
L562.658 421.459
L563.328 430.272
L563.998 425.606
L564.667 427.162
L565.337 424.051
L566.006 419.904
L566.676 431.827
L567.346 421.459
L568.015 405.907
L568.685 414.72
L569.354 412.128
L570.024 400.205
L570.694 407.981
L571.363 410.573
L572.033 416.794
L572.702 404.87
L573.372 412.128
L574.042 406.426
L575.381 421.459
L576.05 410.054
L576.72 410.054
L577.39 406.426
L578.059 407.462
L578.729 417.83
L579.398 403.315
L580.068 404.352
L580.738 411.091
L581.407 393.984
L582.077 390.355
L582.746 396.058
L583.416 390.874
L584.086 398.131
L584.755 411.091
L585.425 403.834
L586.094 402.797
L587.434 407.981
L588.103 416.794
L588.773 404.352
L589.442 397.094
L590.112 396.058
L590.782 393.984
L591.451 383.098
L592.121 392.429
L592.79 390.874
L593.46 384.653
L594.13 373.248
L594.799 378.432
L595.469 385.171
L596.138 386.726
L596.808 399.686
L597.478 382.061
L598.147 373.766
L598.817 372.211
L599.486 374.803
L600.156 379.987
L600.826 384.134
L601.495 378.95
L602.165 397.094
L602.834 373.248
L603.504 370.138
L604.174 385.171
L604.843 394.502
L605.513 379.469
L606.852 380.506
L607.522 355.622
L608.191 360.806
L608.861 364.954
L609.53 366.509
L610.2 387.245
L610.87 373.766
L611.539 373.766
L612.209 372.211
L612.878 363.398
L613.548 376.358
L614.218 374.803
L614.887 380.506
L615.557 371.693
L616.226 360.806
L616.896 358.214
L617.566 342.662
L618.235 364.435
L618.905 338.515
L619.574 357.696
L620.244 353.549
L620.914 341.107
L621.583 353.03
L622.253 359.251
L622.922 358.214
L623.592 361.843
L624.262 343.181
L624.931 354.586
L625.601 354.067
L626.27 377.914
L626.94 358.214
L627.61 367.027
L628.279 359.77
L628.949 344.736
L630.288 356.659
L630.958 350.438
L631.627 339.552
L632.297 336.442
L632.966 349.92
L633.636 349.92
L634.306 340.589
L634.975 333.85
L635.645 347.328
L636.314 342.662
L636.984 336.96
L637.654 334.368
L638.323 335.923
L638.993 336.442
L639.662 341.107
L640.332 322.445
L641.002 336.96
L641.671 335.405
L642.341 346.291
L643.01 319.853
L643.68 327.629
L644.35 328.147
L645.019 345.254
L645.689 345.773
L646.358 332.813
L647.028 333.331
L647.698 337.478
L648.367 330.739
L649.037 344.736
L649.706 331.776
L650.376 336.96
L651.046 338.515
L651.715 337.997
L652.385 346.81
L653.054 343.181
L653.724 342.662
L654.394 353.549
L655.063 342.144
L655.733 347.846
L656.402 325.555
L657.072 331.258
L657.742 341.626
L658.411 335.923
L659.75 347.328
L660.42 334.368
L661.09 342.662
L661.759 332.813
L662.429 336.442
L663.098 337.997
L663.768 335.923
L664.438 345.773
L665.107 337.478
L665.777 334.886
L666.446 335.405
L667.116 324.518
L667.786 320.371
L668.455 327.629
L669.125 325.555
L669.794 316.224
L670.464 326.074
L671.134 317.261
L671.803 334.368
L672.473 323.482
L673.142 324.518
L673.812 342.144
L674.482 344.736
L675.151 317.779
L675.821 305.338
L676.49 318.298
L677.16 318.298
L677.83 326.592
L678.499 325.037
L679.169 325.555
L679.838 322.445
L680.508 316.742
L681.178 322.445
L681.847 316.224
L682.517 318.298
L683.186 329.184
L683.856 331.258
L684.526 310.522
L685.195 312.077
L685.865 312.077
L686.534 319.334
L687.204 328.147
L687.874 330.221
L688.543 312.595
L689.213 324
L689.882 327.11
L690.552 334.368
L691.222 329.702
L691.891 321.926
L692.561 318.816
L693.23 300.672
L693.9 302.746
L694.57 315.187
L695.239 313.114
L695.909 302.746
L696.578 303.264
L697.248 306.374
L697.918 297.043
L698.587 299.117
L699.257 279.418
L699.926 299.635
L701.266 287.712
L701.935 288.23
L702.605 287.712
L703.274 304.819
L703.944 307.411
L704.614 308.966
L705.953 290.822
L706.622 282.528
L707.292 285.638
L707.962 290.822
L708.631 292.378
L709.301 300.154
L709.97 300.154
L710.64 309.485
L711.31 286.675
L711.979 289.267
L712.649 294.97
L713.318 291.859
L713.988 298.08
L714.658 318.298
L715.327 318.298
L715.997 310.522
L716.666 286.675
L717.336 293.933
L718.006 295.488
L718.675 290.822
L719.345 309.485
L720.014 298.08
L720.684 311.558
L721.354 286.157
L722.023 296.006
L722.693 292.896
L723.362 291.341
L724.702 305.338
L725.371 313.632
L726.041 301.19
L726.71 303.264
L727.38 308.966
L728.719 287.194
L729.389 310.003
L730.058 283.565
L730.728 270.605
L731.398 281.491
L732.067 265.939
L732.737 258.682
L733.406 267.494
L734.076 278.381
L734.746 277.862
L735.415 275.789
L736.085 292.378
L736.754 276.826
L737.424 291.341
L738.094 283.565
L738.763 283.565
L739.433 288.23
L740.102 295.488
L740.772 283.565
L741.442 297.562
L742.111 273.715
L742.781 258.682
L743.45 264.384
L744.12 281.491
L744.79 275.789
L745.459 268.013
L746.129 255.053
L746.798 265.939
L747.468 280.454
L748.138 259.2
L749.477 269.568
L750.146 268.531
L750.816 263.866
L751.486 268.531
L752.155 275.27
L752.825 274.752
L753.494 275.27
L754.164 257.126
L754.834 271.123
L755.503 271.642
L756.173 266.458
L756.842 273.715
L757.512 259.718
L758.182 262.829
L758.851 252.979
L759.521 254.016
L760.19 278.899
L760.86 247.795
L761.53 237.946
L762.199 252.461
L762.869 262.829
L763.538 262.829
L764.208 271.642
L764.878 251.942
L765.547 262.31
L766.217 257.126
L766.886 244.685
L767.556 237.427
L768.895 242.611
L769.565 243.13
L770.234 252.461
L770.904 226.022
L771.574 245.722
L772.243 255.053
L772.913 253.498
L773.582 254.016
L774.252 248.314
L774.922 233.798
L776.261 258.682
L776.93 264.384
L777.6 260.755
L777.6 260.755" style="fill:none;stroke:#0000ff;stroke-linecap:square;"/>
   </g>
   <g id="patch_3">
    <path d="
M108 583.2
L777.6 583.2" style="fill:none;stroke:#000000;stroke-linecap:square;stroke-linejoin:miter;"/>
   </g>
   <g id="patch_4">
    <path d="
M777.6 583.2
L777.6 64.8" style="fill:none;stroke:#000000;stroke-linecap:square;stroke-linejoin:miter;"/>
   </g>
   <g id="patch_5">
    <path d="
M108 583.2
L108 64.8" style="fill:none;stroke:#000000;stroke-linecap:square;stroke-linejoin:miter;"/>
   </g>
   <g id="patch_6">
    <path d="
M108 64.8
L777.6 64.8" style="fill:none;stroke:#000000;stroke-linecap:square;stroke-linejoin:miter;"/>
   </g>
   <g id="matplotlib.axis_1">
    <g id="xtick_1">
     <g id="line2d_4">
      <defs>
       <path d="
M0 0
L0 -4" id="mc7db9fdffb" style="stroke:#000000;stroke-width:0.5;"/>
      </defs>
      <g>
       <use style="stroke:#000000;stroke-width:0.5;" x="108.0" xlink:href="#mc7db9fdffb" y="583.2"/>
      </g>
     </g>
     <g id="line2d_5">
      <defs>
       <path d="
M0 0
L0 4" id="m5a7d422ac3" style="stroke:#000000;stroke-width:0.5;"/>
      </defs>
      <g>
       <use style="stroke:#000000;stroke-width:0.5;" x="108.0" xlink:href="#m5a7d422ac3" y="64.8"/>
      </g>
     </g>
     <g id="text_1">
      <!-- 0 -->
      <defs>
       <path d="
M31.7812 66.4062
Q24.1719 66.4062 20.3281 58.9062
Q16.5 51.4219 16.5 36.375
Q16.5 21.3906 20.3281 13.8906
Q24.1719 6.39062 31.7812 6.39062
Q39.4531 6.39062 43.2812 13.8906
Q47.125 21.3906 47.125 36.375
Q47.125 51.4219 43.2812 58.9062
Q39.4531 66.4062 31.7812 66.4062
M31.7812 74.2188
Q44.0469 74.2188 50.5156 64.5156
Q56.9844 54.8281 56.9844 36.375
Q56.9844 17.9688 50.5156 8.26562
Q44.0469 -1.42188 31.7812 -1.42188
Q19.5312 -1.42188 13.0625 8.26562
Q6.59375 17.9688 6.59375 36.375
Q6.59375 54.8281 13.0625 64.5156
Q19.5312 74.2188 31.7812 74.2188" id="BitstreamVeraSans-Roman-30"/>
      </defs>
      <g transform="translate(104.9765625 596.318125)scale(0.12 -0.12)">
       <use xlink:href="#BitstreamVeraSans-Roman-30"/>
      </g>
     </g>
    </g>
    <g id="xtick_2">
     <g id="line2d_6">
      <g>
       <use style="stroke:#000000;stroke-width:0.5;" x="275.4" xlink:href="#mc7db9fdffb" y="583.2"/>
      </g>
     </g>
     <g id="line2d_7">
      <g>
       <use style="stroke:#000000;stroke-width:0.5;" x="275.4" xlink:href="#m5a7d422ac3" y="64.8"/>
      </g>
     </g>
     <g id="text_2">
      <!-- 50000 -->
      <defs>
       <path d="
M10.7969 72.9062
L49.5156 72.9062
L49.5156 64.5938
L19.8281 64.5938
L19.8281 46.7344
Q21.9688 47.4688 24.1094 47.8281
Q26.2656 48.1875 28.4219 48.1875
Q40.625 48.1875 47.75 41.5
Q54.8906 34.8125 54.8906 23.3906
Q54.8906 11.625 47.5625 5.09375
Q40.2344 -1.42188 26.9062 -1.42188
Q22.3125 -1.42188 17.5469 -0.640625
Q12.7969 0.140625 7.71875 1.70312
L7.71875 11.625
Q12.1094 9.23438 16.7969 8.0625
Q21.4844 6.89062 26.7031 6.89062
Q35.1562 6.89062 40.0781 11.3281
Q45.0156 15.7656 45.0156 23.3906
Q45.0156 31 40.0781 35.4375
Q35.1562 39.8906 26.7031 39.8906
Q22.75 39.8906 18.8125 39.0156
Q14.8906 38.1406 10.7969 36.2812
z
" id="BitstreamVeraSans-Roman-35"/>
      </defs>
      <g transform="translate(257.1740625 596.318125)scale(0.12 -0.12)">
       <use xlink:href="#BitstreamVeraSans-Roman-35"/>
       <use x="63.623046875" xlink:href="#BitstreamVeraSans-Roman-30"/>
       <use x="127.24609375" xlink:href="#BitstreamVeraSans-Roman-30"/>
       <use x="190.869140625" xlink:href="#BitstreamVeraSans-Roman-30"/>
       <use x="254.4921875" xlink:href="#BitstreamVeraSans-Roman-30"/>
      </g>
     </g>
    </g>
    <g id="xtick_3">
     <g id="line2d_8">
      <g>
       <use style="stroke:#000000;stroke-width:0.5;" x="442.8" xlink:href="#mc7db9fdffb" y="583.2"/>
      </g>
     </g>
     <g id="line2d_9">
      <g>
       <use style="stroke:#000000;stroke-width:0.5;" x="442.8" xlink:href="#m5a7d422ac3" y="64.8"/>
      </g>
     </g>
     <g id="text_3">
      <!-- 100000 -->
      <defs>
       <path d="
M12.4062 8.29688
L28.5156 8.29688
L28.5156 63.9219
L10.9844 60.4062
L10.9844 69.3906
L28.4219 72.9062
L38.2812 72.9062
L38.2812 8.29688
L54.3906 8.29688
L54.3906 0
L12.4062 0
z
" id="BitstreamVeraSans-Roman-31"/>
      </defs>
      <g transform="translate(420.9525 596.318125)scale(0.12 -0.12)">
       <use xlink:href="#BitstreamVeraSans-Roman-31"/>
       <use x="63.623046875" xlink:href="#BitstreamVeraSans-Roman-30"/>
       <use x="127.24609375" xlink:href="#BitstreamVeraSans-Roman-30"/>
       <use x="190.869140625" xlink:href="#BitstreamVeraSans-Roman-30"/>
       <use x="254.4921875" xlink:href="#BitstreamVeraSans-Roman-30"/>
       <use x="318.115234375" xlink:href="#BitstreamVeraSans-Roman-30"/>
      </g>
     </g>
    </g>
    <g id="xtick_4">
     <g id="line2d_10">
      <g>
       <use style="stroke:#000000;stroke-width:0.5;" x="610.2" xlink:href="#mc7db9fdffb" y="583.2"/>
      </g>
     </g>
     <g id="line2d_11">
      <g>
       <use style="stroke:#000000;stroke-width:0.5;" x="610.2" xlink:href="#m5a7d422ac3" y="64.8"/>
      </g>
     </g>
     <g id="text_4">
      <!-- 150000 -->
      <g transform="translate(588.3525 596.318125)scale(0.12 -0.12)">
       <use xlink:href="#BitstreamVeraSans-Roman-31"/>
       <use x="63.623046875" xlink:href="#BitstreamVeraSans-Roman-35"/>
       <use x="127.24609375" xlink:href="#BitstreamVeraSans-Roman-30"/>
       <use x="190.869140625" xlink:href="#BitstreamVeraSans-Roman-30"/>
       <use x="254.4921875" xlink:href="#BitstreamVeraSans-Roman-30"/>
       <use x="318.115234375" xlink:href="#BitstreamVeraSans-Roman-30"/>
      </g>
     </g>
    </g>
    <g id="xtick_5">
     <g id="line2d_12">
      <g>
       <use style="stroke:#000000;stroke-width:0.5;" x="777.6" xlink:href="#mc7db9fdffb" y="583.2"/>
      </g>
     </g>
     <g id="line2d_13">
      <g>
       <use style="stroke:#000000;stroke-width:0.5;" x="777.6" xlink:href="#m5a7d422ac3" y="64.8"/>
      </g>
     </g>
     <g id="text_5">
      <!-- 200000 -->
      <defs>
       <path d="
M19.1875 8.29688
L53.6094 8.29688
L53.6094 0
L7.32812 0
L7.32812 8.29688
Q12.9375 14.1094 22.625 23.8906
Q32.3281 33.6875 34.8125 36.5312
Q39.5469 41.8438 41.4219 45.5312
Q43.3125 49.2188 43.3125 52.7812
Q43.3125 58.5938 39.2344 62.25
Q35.1562 65.9219 28.6094 65.9219
Q23.9688 65.9219 18.8125 64.3125
Q13.6719 62.7031 7.8125 59.4219
L7.8125 69.3906
Q13.7656 71.7812 18.9375 73
Q24.125 74.2188 28.4219 74.2188
Q39.75 74.2188 46.4844 68.5469
Q53.2188 62.8906 53.2188 53.4219
Q53.2188 48.9219 51.5312 44.8906
Q49.8594 40.875 45.4062 35.4062
Q44.1875 33.9844 37.6406 27.2188
Q31.1094 20.4531 19.1875 8.29688" id="BitstreamVeraSans-Roman-32"/>
      </defs>
      <g transform="translate(755.533125 596.318125)scale(0.12 -0.12)">
       <use xlink:href="#BitstreamVeraSans-Roman-32"/>
       <use x="63.623046875" xlink:href="#BitstreamVeraSans-Roman-30"/>
       <use x="127.24609375" xlink:href="#BitstreamVeraSans-Roman-30"/>
       <use x="190.869140625" xlink:href="#BitstreamVeraSans-Roman-30"/>
       <use x="254.4921875" xlink:href="#BitstreamVeraSans-Roman-30"/>
       <use x="318.115234375" xlink:href="#BitstreamVeraSans-Roman-30"/>
      </g>
     </g>
    </g>
    <g id="text_6">
     <!-- t / ms -->
     <defs>
      <path d="
M25.3906 72.9062
L33.6875 72.9062
L8.29688 -9.28125
L0 -9.28125
z
" id="BitstreamVeraSans-Roman-2f"/>
      <path id="BitstreamVeraSans-Roman-20"/>
      <path d="
M44.2812 53.0781
L44.2812 44.5781
Q40.4844 46.5312 36.375 47.5
Q32.2812 48.4844 27.875 48.4844
Q21.1875 48.4844 17.8438 46.4375
Q14.5 44.3906 14.5 40.2812
Q14.5 37.1562 16.8906 35.375
Q19.2812 33.5938 26.5156 31.9844
L29.5938 31.2969
Q39.1562 29.25 43.1875 25.5156
Q47.2188 21.7812 47.2188 15.0938
Q47.2188 7.46875 41.1875 3.01562
Q35.1562 -1.42188 24.6094 -1.42188
Q20.2188 -1.42188 15.4531 -0.5625
Q10.6875 0.296875 5.42188 2
L5.42188 11.2812
Q10.4062 8.6875 15.2344 7.39062
Q20.0625 6.10938 24.8125 6.10938
Q31.1562 6.10938 34.5625 8.28125
Q37.9844 10.4531 37.9844 14.4062
Q37.9844 18.0625 35.5156 20.0156
Q33.0625 21.9688 24.7031 23.7812
L21.5781 24.5156
Q13.2344 26.2656 9.51562 29.9062
Q5.8125 33.5469 5.8125 39.8906
Q5.8125 47.6094 11.2812 51.7969
Q16.75 56 26.8125 56
Q31.7812 56 36.1719 55.2656
Q40.5781 54.5469 44.2812 53.0781" id="BitstreamVeraSans-Roman-73"/>
      <path d="
M18.3125 70.2188
L18.3125 54.6875
L36.8125 54.6875
L36.8125 47.7031
L18.3125 47.7031
L18.3125 18.0156
Q18.3125 11.3281 20.1406 9.42188
Q21.9688 7.51562 27.5938 7.51562
L36.8125 7.51562
L36.8125 0
L27.5938 0
Q17.1875 0 13.2344 3.875
Q9.28125 7.76562 9.28125 18.0156
L9.28125 47.7031
L2.6875 47.7031
L2.6875 54.6875
L9.28125 54.6875
L9.28125 70.2188
z
" id="BitstreamVeraSans-Roman-74"/>
      <path d="
M52 44.1875
Q55.375 50.25 60.0625 53.125
Q64.75 56 71.0938 56
Q79.6406 56 84.2812 50.0156
Q88.9219 44.0469 88.9219 33.0156
L88.9219 0
L79.8906 0
L79.8906 32.7188
Q79.8906 40.5781 77.0938 44.375
Q74.3125 48.1875 68.6094 48.1875
Q61.625 48.1875 57.5625 43.5469
Q53.5156 38.9219 53.5156 30.9062
L53.5156 0
L44.4844 0
L44.4844 32.7188
Q44.4844 40.625 41.7031 44.4062
Q38.9219 48.1875 33.1094 48.1875
Q26.2188 48.1875 22.1562 43.5312
Q18.1094 38.875 18.1094 30.9062
L18.1094 0
L9.07812 0
L9.07812 54.6875
L18.1094 54.6875
L18.1094 46.1875
Q21.1875 51.2188 25.4844 53.6094
Q29.7812 56 35.6875 56
Q41.6562 56 45.8281 52.9688
Q50 49.9531 52 44.1875" id="BitstreamVeraSans-Roman-6d"/>
     </defs>
     <g transform="translate(425.9353125 612.931875)scale(0.12 -0.12)">
      <use xlink:href="#BitstreamVeraSans-Roman-74"/>
      <use x="39.208984375" xlink:href="#BitstreamVeraSans-Roman-20"/>
      <use x="70.99609375" xlink:href="#BitstreamVeraSans-Roman-2f"/>
      <use x="104.6875" xlink:href="#BitstreamVeraSans-Roman-20"/>
      <use x="136.474609375" xlink:href="#BitstreamVeraSans-Roman-6d"/>
      <use x="233.88671875" xlink:href="#BitstreamVeraSans-Roman-73"/>
     </g>
    </g>
   </g>
   <g id="matplotlib.axis_2">
    <g id="ytick_1">
     <g id="line2d_14">
      <defs>
       <path d="
M0 0
L4 0" id="md7965d1ba0" style="stroke:#000000;stroke-width:0.5;"/>
      </defs>
      <g>
       <use style="stroke:#000000;stroke-width:0.5;" x="108.0" xlink:href="#md7965d1ba0" y="583.2"/>
      </g>
     </g>
     <g id="line2d_15">
      <defs>
       <path d="
M0 0
L-4 0" id="md9a1c1a7cd" style="stroke:#000000;stroke-width:0.5;"/>
      </defs>
      <g>
       <use style="stroke:#000000;stroke-width:0.5;" x="777.6" xlink:href="#md9a1c1a7cd" y="583.2"/>
      </g>
     </g>
     <g id="text_7">
      <!-- 0 -->
      <g transform="translate(97.953125 586.51125)scale(0.12 -0.12)">
       <use xlink:href="#BitstreamVeraSans-Roman-30"/>
      </g>
     </g>
    </g>
    <g id="ytick_2">
     <g id="line2d_16">
      <g>
       <use style="stroke:#000000;stroke-width:0.5;" x="108.0" xlink:href="#md7965d1ba0" y="479.52"/>
      </g>
     </g>
     <g id="line2d_17">
      <g>
       <use style="stroke:#000000;stroke-width:0.5;" x="777.6" xlink:href="#md9a1c1a7cd" y="479.52"/>
      </g>
     </g>
     <g id="text_8">
      <!-- 200 -->
      <g transform="translate(82.77125 482.83125)scale(0.12 -0.12)">
       <use xlink:href="#BitstreamVeraSans-Roman-32"/>
       <use x="63.623046875" xlink:href="#BitstreamVeraSans-Roman-30"/>
       <use x="127.24609375" xlink:href="#BitstreamVeraSans-Roman-30"/>
      </g>
     </g>
    </g>
    <g id="ytick_3">
     <g id="line2d_18">
      <g>
       <use style="stroke:#000000;stroke-width:0.5;" x="108.0" xlink:href="#md7965d1ba0" y="375.84"/>
      </g>
     </g>
     <g id="line2d_19">
      <g>
       <use style="stroke:#000000;stroke-width:0.5;" x="777.6" xlink:href="#md9a1c1a7cd" y="375.84"/>
      </g>
     </g>
     <g id="text_9">
      <!-- 400 -->
      <defs>
       <path d="
M37.7969 64.3125
L12.8906 25.3906
L37.7969 25.3906
z

M35.2031 72.9062
L47.6094 72.9062
L47.6094 25.3906
L58.0156 25.3906
L58.0156 17.1875
L47.6094 17.1875
L47.6094 0
L37.7969 0
L37.7969 17.1875
L4.89062 17.1875
L4.89062 26.7031
z
" id="BitstreamVeraSans-Roman-34"/>
      </defs>
      <g transform="translate(82.47875 379.15125)scale(0.12 -0.12)">
       <use xlink:href="#BitstreamVeraSans-Roman-34"/>
       <use x="63.623046875" xlink:href="#BitstreamVeraSans-Roman-30"/>
       <use x="127.24609375" xlink:href="#BitstreamVeraSans-Roman-30"/>
      </g>
     </g>
    </g>
    <g id="ytick_4">
     <g id="line2d_20">
      <g>
       <use style="stroke:#000000;stroke-width:0.5;" x="108.0" xlink:href="#md7965d1ba0" y="272.16"/>
      </g>
     </g>
     <g id="line2d_21">
      <g>
       <use style="stroke:#000000;stroke-width:0.5;" x="777.6" xlink:href="#md9a1c1a7cd" y="272.16"/>
      </g>
     </g>
     <g id="text_10">
      <!-- 600 -->
      <defs>
       <path d="
M33.0156 40.375
Q26.375 40.375 22.4844 35.8281
Q18.6094 31.2969 18.6094 23.3906
Q18.6094 15.5312 22.4844 10.9531
Q26.375 6.39062 33.0156 6.39062
Q39.6562 6.39062 43.5312 10.9531
Q47.4062 15.5312 47.4062 23.3906
Q47.4062 31.2969 43.5312 35.8281
Q39.6562 40.375 33.0156 40.375
M52.5938 71.2969
L52.5938 62.3125
Q48.875 64.0625 45.0938 64.9844
Q41.3125 65.9219 37.5938 65.9219
Q27.8281 65.9219 22.6719 59.3281
Q17.5312 52.7344 16.7969 39.4062
Q19.6719 43.6562 24.0156 45.9219
Q28.375 48.1875 33.5938 48.1875
Q44.5781 48.1875 50.9531 41.5156
Q57.3281 34.8594 57.3281 23.3906
Q57.3281 12.1562 50.6875 5.35938
Q44.0469 -1.42188 33.0156 -1.42188
Q20.3594 -1.42188 13.6719 8.26562
Q6.98438 17.9688 6.98438 36.375
Q6.98438 53.6562 15.1875 63.9375
Q23.3906 74.2188 37.2031 74.2188
Q40.9219 74.2188 44.7031 73.4844
Q48.4844 72.75 52.5938 71.2969" id="BitstreamVeraSans-Roman-36"/>
      </defs>
      <g transform="translate(82.73 275.47125)scale(0.12 -0.12)">
       <use xlink:href="#BitstreamVeraSans-Roman-36"/>
       <use x="63.623046875" xlink:href="#BitstreamVeraSans-Roman-30"/>
       <use x="127.24609375" xlink:href="#BitstreamVeraSans-Roman-30"/>
      </g>
     </g>
    </g>
    <g id="ytick_5">
     <g id="line2d_22">
      <g>
       <use style="stroke:#000000;stroke-width:0.5;" x="108.0" xlink:href="#md7965d1ba0" y="168.48"/>
      </g>
     </g>
     <g id="line2d_23">
      <g>
       <use style="stroke:#000000;stroke-width:0.5;" x="777.6" xlink:href="#md9a1c1a7cd" y="168.48"/>
      </g>
     </g>
     <g id="text_11">
      <!-- 800 -->
      <defs>
       <path d="
M31.7812 34.625
Q24.75 34.625 20.7188 30.8594
Q16.7031 27.0938 16.7031 20.5156
Q16.7031 13.9219 20.7188 10.1562
Q24.75 6.39062 31.7812 6.39062
Q38.8125 6.39062 42.8594 10.1719
Q46.9219 13.9688 46.9219 20.5156
Q46.9219 27.0938 42.8906 30.8594
Q38.875 34.625 31.7812 34.625
M21.9219 38.8125
Q15.5781 40.375 12.0312 44.7188
Q8.5 49.0781 8.5 55.3281
Q8.5 64.0625 14.7188 69.1406
Q20.9531 74.2188 31.7812 74.2188
Q42.6719 74.2188 48.875 69.1406
Q55.0781 64.0625 55.0781 55.3281
Q55.0781 49.0781 51.5312 44.7188
Q48 40.375 41.7031 38.8125
Q48.8281 37.1562 52.7969 32.3125
Q56.7812 27.4844 56.7812 20.5156
Q56.7812 9.90625 50.3125 4.23438
Q43.8438 -1.42188 31.7812 -1.42188
Q19.7344 -1.42188 13.25 4.23438
Q6.78125 9.90625 6.78125 20.5156
Q6.78125 27.4844 10.7812 32.3125
Q14.7969 37.1562 21.9219 38.8125
M18.3125 54.3906
Q18.3125 48.7344 21.8438 45.5625
Q25.3906 42.3906 31.7812 42.3906
Q38.1406 42.3906 41.7188 45.5625
Q45.3125 48.7344 45.3125 54.3906
Q45.3125 60.0625 41.7188 63.2344
Q38.1406 66.4062 31.7812 66.4062
Q25.3906 66.4062 21.8438 63.2344
Q18.3125 60.0625 18.3125 54.3906" id="BitstreamVeraSans-Roman-38"/>
      </defs>
      <g transform="translate(82.705625 171.79125)scale(0.12 -0.12)">
       <use xlink:href="#BitstreamVeraSans-Roman-38"/>
       <use x="63.623046875" xlink:href="#BitstreamVeraSans-Roman-30"/>
       <use x="127.24609375" xlink:href="#BitstreamVeraSans-Roman-30"/>
      </g>
     </g>
    </g>
    <g id="ytick_6">
     <g id="line2d_24">
      <g>
       <use style="stroke:#000000;stroke-width:0.5;" x="108.0" xlink:href="#md7965d1ba0" y="64.8"/>
      </g>
     </g>
     <g id="line2d_25">
      <g>
       <use style="stroke:#000000;stroke-width:0.5;" x="777.6" xlink:href="#md9a1c1a7cd" y="64.8"/>
      </g>
     </g>
     <g id="text_12">
      <!-- 1000 -->
      <g transform="translate(75.575 68.11125)scale(0.12 -0.12)">
       <use xlink:href="#BitstreamVeraSans-Roman-31"/>
       <use x="63.623046875" xlink:href="#BitstreamVeraSans-Roman-30"/>
       <use x="127.24609375" xlink:href="#BitstreamVeraSans-Roman-30"/>
       <use x="190.869140625" xlink:href="#BitstreamVeraSans-Roman-30"/>
      </g>
     </g>
    </g>
    <g id="text_13">
     <!-- particle numbers -->
     <defs>
      <path d="
M54.8906 33.0156
L54.8906 0
L45.9062 0
L45.9062 32.7188
Q45.9062 40.4844 42.875 44.3281
Q39.8438 48.1875 33.7969 48.1875
Q26.5156 48.1875 22.3125 43.5469
Q18.1094 38.9219 18.1094 30.9062
L18.1094 0
L9.07812 0
L9.07812 54.6875
L18.1094 54.6875
L18.1094 46.1875
Q21.3438 51.125 25.7031 53.5625
Q30.0781 56 35.7969 56
Q45.2188 56 50.0469 50.1719
Q54.8906 44.3438 54.8906 33.0156" id="BitstreamVeraSans-Roman-6e"/>
      <path d="
M9.42188 54.6875
L18.4062 54.6875
L18.4062 0
L9.42188 0
z

M9.42188 75.9844
L18.4062 75.9844
L18.4062 64.5938
L9.42188 64.5938
z
" id="BitstreamVeraSans-Roman-69"/>
      <path d="
M8.5 21.5781
L8.5 54.6875
L17.4844 54.6875
L17.4844 21.9219
Q17.4844 14.1562 20.5 10.2656
Q23.5312 6.39062 29.5938 6.39062
Q36.8594 6.39062 41.0781 11.0312
Q45.3125 15.6719 45.3125 23.6875
L45.3125 54.6875
L54.2969 54.6875
L54.2969 0
L45.3125 0
L45.3125 8.40625
Q42.0469 3.42188 37.7188 1
Q33.4062 -1.42188 27.6875 -1.42188
Q18.2656 -1.42188 13.375 4.4375
Q8.5 10.2969 8.5 21.5781" id="BitstreamVeraSans-Roman-75"/>
      <path d="
M48.7812 52.5938
L48.7812 44.1875
Q44.9688 46.2969 41.1406 47.3438
Q37.3125 48.3906 33.4062 48.3906
Q24.6562 48.3906 19.8125 42.8438
Q14.9844 37.3125 14.9844 27.2969
Q14.9844 17.2812 19.8125 11.7344
Q24.6562 6.20312 33.4062 6.20312
Q37.3125 6.20312 41.1406 7.25
Q44.9688 8.29688 48.7812 10.4062
L48.7812 2.09375
Q45.0156 0.34375 40.9844 -0.53125
Q36.9688 -1.42188 32.4219 -1.42188
Q20.0625 -1.42188 12.7812 6.34375
Q5.51562 14.1094 5.51562 27.2969
Q5.51562 40.6719 12.8594 48.3281
Q20.2188 56 33.0156 56
Q37.1562 56 41.1094 55.1406
Q45.0625 54.2969 48.7812 52.5938" id="BitstreamVeraSans-Roman-63"/>
      <path d="
M56.2031 29.5938
L56.2031 25.2031
L14.8906 25.2031
Q15.4844 15.9219 20.4844 11.0625
Q25.4844 6.20312 34.4219 6.20312
Q39.5938 6.20312 44.4531 7.46875
Q49.3125 8.73438 54.1094 11.2812
L54.1094 2.78125
Q49.2656 0.734375 44.1875 -0.34375
Q39.1094 -1.42188 33.8906 -1.42188
Q20.7969 -1.42188 13.1562 6.1875
Q5.51562 13.8125 5.51562 26.8125
Q5.51562 40.2344 12.7656 48.1094
Q20.0156 56 32.3281 56
Q43.3594 56 49.7812 48.8906
Q56.2031 41.7969 56.2031 29.5938
M47.2188 32.2344
Q47.125 39.5938 43.0938 43.9844
Q39.0625 48.3906 32.4219 48.3906
Q24.9062 48.3906 20.3906 44.1406
Q15.875 39.8906 15.1875 32.1719
z
" id="BitstreamVeraSans-Roman-65"/>
      <path d="
M9.42188 75.9844
L18.4062 75.9844
L18.4062 0
L9.42188 0
z
" id="BitstreamVeraSans-Roman-6c"/>
      <path d="
M18.1094 8.20312
L18.1094 -20.7969
L9.07812 -20.7969
L9.07812 54.6875
L18.1094 54.6875
L18.1094 46.3906
Q20.9531 51.2656 25.2656 53.625
Q29.5938 56 35.5938 56
Q45.5625 56 51.7812 48.0938
Q58.0156 40.1875 58.0156 27.2969
Q58.0156 14.4062 51.7812 6.48438
Q45.5625 -1.42188 35.5938 -1.42188
Q29.5938 -1.42188 25.2656 0.953125
Q20.9531 3.32812 18.1094 8.20312
M48.6875 27.2969
Q48.6875 37.2031 44.6094 42.8438
Q40.5312 48.4844 33.4062 48.4844
Q26.2656 48.4844 22.1875 42.8438
Q18.1094 37.2031 18.1094 27.2969
Q18.1094 17.3906 22.1875 11.75
Q26.2656 6.10938 33.4062 6.10938
Q40.5312 6.10938 44.6094 11.75
Q48.6875 17.3906 48.6875 27.2969" id="BitstreamVeraSans-Roman-70"/>
      <path d="
M48.6875 27.2969
Q48.6875 37.2031 44.6094 42.8438
Q40.5312 48.4844 33.4062 48.4844
Q26.2656 48.4844 22.1875 42.8438
Q18.1094 37.2031 18.1094 27.2969
Q18.1094 17.3906 22.1875 11.75
Q26.2656 6.10938 33.4062 6.10938
Q40.5312 6.10938 44.6094 11.75
Q48.6875 17.3906 48.6875 27.2969
M18.1094 46.3906
Q20.9531 51.2656 25.2656 53.625
Q29.5938 56 35.5938 56
Q45.5625 56 51.7812 48.0938
Q58.0156 40.1875 58.0156 27.2969
Q58.0156 14.4062 51.7812 6.48438
Q45.5625 -1.42188 35.5938 -1.42188
Q29.5938 -1.42188 25.2656 0.953125
Q20.9531 3.32812 18.1094 8.20312
L18.1094 0
L9.07812 0
L9.07812 75.9844
L18.1094 75.9844
z
" id="BitstreamVeraSans-Roman-62"/>
      <path d="
M34.2812 27.4844
Q23.3906 27.4844 19.1875 25
Q14.9844 22.5156 14.9844 16.5
Q14.9844 11.7188 18.1406 8.90625
Q21.2969 6.10938 26.7031 6.10938
Q34.1875 6.10938 38.7031 11.4062
Q43.2188 16.7031 43.2188 25.4844
L43.2188 27.4844
z

M52.2031 31.2031
L52.2031 0
L43.2188 0
L43.2188 8.29688
Q40.1406 3.32812 35.5469 0.953125
Q30.9531 -1.42188 24.3125 -1.42188
Q15.9219 -1.42188 10.9531 3.29688
Q6 8.01562 6 15.9219
Q6 25.1406 12.1719 29.8281
Q18.3594 34.5156 30.6094 34.5156
L43.2188 34.5156
L43.2188 35.4062
Q43.2188 41.6094 39.1406 45
Q35.0625 48.3906 27.6875 48.3906
Q23 48.3906 18.5469 47.2656
Q14.1094 46.1406 10.0156 43.8906
L10.0156 52.2031
Q14.9375 54.1094 19.5781 55.0469
Q24.2188 56 28.6094 56
Q40.4844 56 46.3438 49.8438
Q52.2031 43.7031 52.2031 31.2031" id="BitstreamVeraSans-Roman-61"/>
      <path d="
M41.1094 46.2969
Q39.5938 47.1719 37.8125 47.5781
Q36.0312 48 33.8906 48
Q26.2656 48 22.1875 43.0469
Q18.1094 38.0938 18.1094 28.8125
L18.1094 0
L9.07812 0
L9.07812 54.6875
L18.1094 54.6875
L18.1094 46.1875
Q20.9531 51.1719 25.4844 53.5781
Q30.0312 56 36.5312 56
Q37.4531 56 38.5781 55.875
Q39.7031 55.7656 41.0625 55.5156
z
" id="BitstreamVeraSans-Roman-72"/>
     </defs>
     <g transform="translate(68.079375 374.78625)rotate(-90.0)scale(0.12 -0.12)">
      <use xlink:href="#BitstreamVeraSans-Roman-70"/>
      <use x="63.4765625" xlink:href="#BitstreamVeraSans-Roman-61"/>
      <use x="124.755859375" xlink:href="#BitstreamVeraSans-Roman-72"/>
      <use x="165.869140625" xlink:href="#BitstreamVeraSans-Roman-74"/>
      <use x="205.078125" xlink:href="#BitstreamVeraSans-Roman-69"/>
      <use x="232.861328125" xlink:href="#BitstreamVeraSans-Roman-63"/>
      <use x="287.841796875" xlink:href="#BitstreamVeraSans-Roman-6c"/>
      <use x="315.625" xlink:href="#BitstreamVeraSans-Roman-65"/>
      <use x="377.1484375" xlink:href="#BitstreamVeraSans-Roman-20"/>
      <use x="408.935546875" xlink:href="#BitstreamVeraSans-Roman-6e"/>
      <use x="472.314453125" xlink:href="#BitstreamVeraSans-Roman-75"/>
      <use x="535.693359375" xlink:href="#BitstreamVeraSans-Roman-6d"/>
      <use x="633.10546875" xlink:href="#BitstreamVeraSans-Roman-62"/>
      <use x="696.58203125" xlink:href="#BitstreamVeraSans-Roman-65"/>
      <use x="758.10546875" xlink:href="#BitstreamVeraSans-Roman-72"/>
      <use x="799.21875" xlink:href="#BitstreamVeraSans-Roman-73"/>
     </g>
    </g>
   </g>
   <g id="legend_1">
    <g id="patch_7">
     <path d="
M697.504 101.224
L774.1 101.224
L774.1 68.3
L697.504 68.3
z
" style="fill:#ffffff;stroke:#000000;stroke-linejoin:miter;"/>
    </g>
    <g id="line2d_26">
     <path d="
M702.404 73.9689
L712.204 73.9689" style="fill:none;stroke:#ff0000;stroke-linecap:square;"/>
    </g>
    <g id="line2d_27"/>
    <g id="text_14">
     <!-- PKAcAMP2 el.0 -->
     <defs>
      <path d="
M9.8125 72.9062
L24.5156 72.9062
L43.1094 23.2969
L61.8125 72.9062
L76.5156 72.9062
L76.5156 0
L66.8906 0
L66.8906 64.0156
L48.0938 14.0156
L38.1875 14.0156
L19.3906 64.0156
L19.3906 0
L9.8125 0
z
" id="BitstreamVeraSans-Roman-4d"/>
      <path d="
M19.6719 64.7969
L19.6719 37.4062
L32.0781 37.4062
Q38.9688 37.4062 42.7188 40.9688
Q46.4844 44.5312 46.4844 51.125
Q46.4844 57.6719 42.7188 61.2344
Q38.9688 64.7969 32.0781 64.7969
z

M9.8125 72.9062
L32.0781 72.9062
Q44.3438 72.9062 50.6094 67.3594
Q56.8906 61.8125 56.8906 51.125
Q56.8906 40.3281 50.6094 34.8125
Q44.3438 29.2969 32.0781 29.2969
L19.6719 29.2969
L19.6719 0
L9.8125 0
z
" id="BitstreamVeraSans-Roman-50"/>
      <path d="
M9.8125 72.9062
L19.6719 72.9062
L19.6719 42.0938
L52.3906 72.9062
L65.0938 72.9062
L28.9062 38.9219
L67.6719 0
L54.6875 0
L19.6719 35.1094
L19.6719 0
L9.8125 0
z
" id="BitstreamVeraSans-Roman-4b"/>
      <path d="
M10.6875 12.4062
L21 12.4062
L21 0
L10.6875 0
z
" id="BitstreamVeraSans-Roman-2e"/>
      <path d="
M34.1875 63.1875
L20.7969 26.9062
L47.6094 26.9062
z

M28.6094 72.9062
L39.7969 72.9062
L67.5781 0
L57.3281 0
L50.6875 18.7031
L17.8281 18.7031
L11.1875 0
L0.78125 0
z
" id="BitstreamVeraSans-Roman-41"/>
     </defs>
     <g transform="translate(719.90359375 76.41890625)scale(0.07 -0.07)">
      <use xlink:href="#BitstreamVeraSans-Roman-50"/>
      <use x="60.302734375" xlink:href="#BitstreamVeraSans-Roman-4b"/>
      <use x="124.12890625" xlink:href="#BitstreamVeraSans-Roman-41"/>
      <use x="190.787109375" xlink:href="#BitstreamVeraSans-Roman-63"/>
      <use x="245.767578125" xlink:href="#BitstreamVeraSans-Roman-41"/>
      <use x="314.17578125" xlink:href="#BitstreamVeraSans-Roman-4d"/>
      <use x="400.455078125" xlink:href="#BitstreamVeraSans-Roman-50"/>
      <use x="460.7578125" xlink:href="#BitstreamVeraSans-Roman-32"/>
      <use x="524.380859375" xlink:href="#BitstreamVeraSans-Roman-20"/>
      <use x="556.16796875" xlink:href="#BitstreamVeraSans-Roman-65"/>
      <use x="617.69140625" xlink:href="#BitstreamVeraSans-Roman-6c"/>
      <use x="645.474609375" xlink:href="#BitstreamVeraSans-Roman-2e"/>
      <use x="677.26171875" xlink:href="#BitstreamVeraSans-Roman-30"/>
     </g>
    </g>
    <g id="line2d_28">
     <path d="
M702.404 84.2436
L712.204 84.2436" style="fill:none;stroke:#008000;stroke-linecap:square;"/>
    </g>
    <g id="line2d_29"/>
    <g id="text_15">
     <!-- PKAcAMP2 el.1 -->
     <g transform="translate(719.90359375 86.69359375)scale(0.07 -0.07)">
      <use xlink:href="#BitstreamVeraSans-Roman-50"/>
      <use x="60.302734375" xlink:href="#BitstreamVeraSans-Roman-4b"/>
      <use x="124.12890625" xlink:href="#BitstreamVeraSans-Roman-41"/>
      <use x="190.787109375" xlink:href="#BitstreamVeraSans-Roman-63"/>
      <use x="245.767578125" xlink:href="#BitstreamVeraSans-Roman-41"/>
      <use x="314.17578125" xlink:href="#BitstreamVeraSans-Roman-4d"/>
      <use x="400.455078125" xlink:href="#BitstreamVeraSans-Roman-50"/>
      <use x="460.7578125" xlink:href="#BitstreamVeraSans-Roman-32"/>
      <use x="524.380859375" xlink:href="#BitstreamVeraSans-Roman-20"/>
      <use x="556.16796875" xlink:href="#BitstreamVeraSans-Roman-65"/>
      <use x="617.69140625" xlink:href="#BitstreamVeraSans-Roman-6c"/>
      <use x="645.474609375" xlink:href="#BitstreamVeraSans-Roman-2e"/>
      <use x="677.26171875" xlink:href="#BitstreamVeraSans-Roman-31"/>
     </g>
    </g>
    <g id="line2d_30">
     <path d="
M702.404 94.5183
L712.204 94.5183" style="fill:none;stroke:#0000ff;stroke-linecap:square;"/>
    </g>
    <g id="line2d_31"/>
    <g id="text_16">
     <!-- PKAcAMP2 el.2 -->
     <g transform="translate(719.90359375 96.96828125)scale(0.07 -0.07)">
      <use xlink:href="#BitstreamVeraSans-Roman-50"/>
      <use x="60.302734375" xlink:href="#BitstreamVeraSans-Roman-4b"/>
      <use x="124.12890625" xlink:href="#BitstreamVeraSans-Roman-41"/>
      <use x="190.787109375" xlink:href="#BitstreamVeraSans-Roman-63"/>
      <use x="245.767578125" xlink:href="#BitstreamVeraSans-Roman-41"/>
      <use x="314.17578125" xlink:href="#BitstreamVeraSans-Roman-4d"/>
      <use x="400.455078125" xlink:href="#BitstreamVeraSans-Roman-50"/>
      <use x="460.7578125" xlink:href="#BitstreamVeraSans-Roman-32"/>
      <use x="524.380859375" xlink:href="#BitstreamVeraSans-Roman-20"/>
      <use x="556.16796875" xlink:href="#BitstreamVeraSans-Roman-65"/>
      <use x="617.69140625" xlink:href="#BitstreamVeraSans-Roman-6c"/>
      <use x="645.474609375" xlink:href="#BitstreamVeraSans-Roman-2e"/>
      <use x="677.26171875" xlink:href="#BitstreamVeraSans-Roman-32"/>
     </g>
    </g>
   </g>
  </g>
 </g>
 <defs>
  <clipPath id="p7ceb695115">
   <rect height="518.4" width="669.6" x="108.0" y="64.8"/>
  </clipPath>
 </defs>
</svg>
