<?xml version="1.0" encoding="utf-8" standalone="no"?>
<!DOCTYPE svg PUBLIC "-//W3C//DTD SVG 1.1//EN"
  "http://www.w3.org/Graphics/SVG/1.1/DTD/svg11.dtd">
<!-- Created with matplotlib (http://matplotlib.org/) -->
<svg height="648pt" version="1.1" viewBox="0 0 864 648" width="864pt" xmlns="http://www.w3.org/2000/svg" xmlns:xlink="http://www.w3.org/1999/xlink">
 <defs>
  <style type="text/css">
*{stroke-linecap:butt;stroke-linejoin:round;}
  </style>
 </defs>
 <g id="figure_1">
  <g id="patch_1">
   <path d="
M0 648
L864 648
L864 0
L0 0
z
" style="fill:#ffffff;"/>
  </g>
  <g id="axes_1">
   <g id="patch_2">
    <path d="
M108 583.2
L777.6 583.2
L777.6 64.8
L108 64.8
z
" style="fill:#ffffff;"/>
   </g>
   <g id="line2d_1">
    <path clip-path="url(#p7ceb695115)" d="
M108 583.2
L136.123 583.2
L136.793 581.904
L137.462 583.2
L138.132 583.2
L138.802 581.904
L139.471 581.904
L140.141 583.2
L140.81 583.2
L141.48 581.904
L142.15 581.904
L142.819 583.2
L143.489 583.2
L144.158 581.904
L144.828 583.2
L146.837 583.2
L147.506 579.312
L148.176 578.016
L148.846 580.608
L149.515 581.904
L150.854 581.904
L151.524 580.608
L152.194 583.2
L152.863 581.904
L156.211 581.904
L156.881 580.608
L157.55 583.2
L158.89 583.2
L159.559 580.608
L160.898 583.2
L161.568 583.2
L162.238 581.904
L162.907 583.2
L164.246 580.608
L164.916 583.2
L165.586 580.608
L166.925 578.016
L167.594 581.904
L168.264 583.2
L168.934 583.2
L169.603 580.608
L170.273 581.904
L170.942 579.312
L171.612 579.312
L172.282 580.608
L172.951 583.2
L173.621 581.904
L174.96 581.904
L175.63 578.016
L176.299 581.904
L176.969 580.608
L177.638 581.904
L178.308 581.904
L178.978 583.2
L179.647 581.904
L180.317 583.2
L180.986 581.904
L181.656 579.312
L182.326 581.904
L182.995 576.72
L183.665 580.608
L185.004 580.608
L186.343 578.016
L187.013 580.608
L187.682 578.016
L188.352 579.312
L189.022 578.016
L190.361 580.608
L191.03 580.608
L191.7 578.016
L192.37 581.904
L193.039 579.312
L193.709 580.608
L194.378 579.312
L195.048 575.424
L195.718 576.72
L196.387 579.312
L197.057 579.312
L197.726 576.72
L198.396 580.608
L199.066 581.904
L199.735 579.312
L200.405 579.312
L201.074 580.608
L201.744 578.016
L202.414 581.904
L203.083 579.312
L203.753 580.608
L204.422 579.312
L205.092 579.312
L206.431 574.128
L207.101 578.016
L207.77 574.128
L208.44 575.424
L209.11 578.016
L209.779 579.312
L210.449 576.72
L211.118 580.608
L211.788 581.904
L212.458 579.312
L213.127 578.016
L213.797 578.016
L214.466 576.72
L215.136 579.312
L215.806 578.016
L216.475 578.016
L217.145 576.72
L217.814 579.312
L218.484 576.72
L219.154 576.72
L219.823 574.128
L220.493 576.72
L221.162 575.424
L221.832 579.312
L222.502 576.72
L223.171 579.312
L223.841 576.72
L224.51 580.608
L225.18 574.128
L225.85 574.128
L226.519 578.016
L227.189 579.312
L227.858 574.128
L228.528 575.424
L229.198 578.016
L229.867 579.312
L230.537 574.128
L231.206 575.424
L231.876 579.312
L232.546 575.424
L233.215 578.016
L233.885 578.016
L234.554 575.424
L235.224 574.128
L235.894 570.24
L236.563 575.424
L237.233 575.424
L237.902 580.608
L238.572 579.312
L239.242 580.608
L239.911 579.312
L240.581 581.904
L241.25 574.128
L241.92 579.312
L242.59 578.016
L243.259 580.608
L243.929 579.312
L244.598 580.608
L245.268 578.016
L245.938 580.608
L247.277 580.608
L247.946 583.2
L248.616 578.016
L249.286 580.608
L249.955 576.72
L250.625 581.904
L251.294 580.608
L251.964 576.72
L252.634 580.608
L253.303 579.312
L253.973 576.72
L254.642 579.312
L255.312 580.608
L255.982 580.608
L256.651 575.424
L257.321 581.904
L258.66 579.312
L259.33 580.608
L259.999 580.608
L260.669 579.312
L261.338 576.72
L262.008 578.016
L262.678 576.72
L263.347 580.608
L264.017 578.016
L264.686 576.72
L265.356 579.312
L266.026 576.72
L266.695 576.72
L267.365 580.608
L268.034 575.424
L268.704 578.016
L270.713 574.128
L271.382 578.016
L272.052 579.312
L272.722 578.016
L273.391 578.016
L274.061 575.424
L274.73 576.72
L275.4 576.72
L276.07 581.904
L276.739 576.72
L277.409 578.016
L278.078 575.424
L278.748 576.72
L279.418 574.128
L280.087 575.424
L280.757 578.016
L281.426 575.424
L282.096 575.424
L282.766 579.312
L283.435 576.72
L284.105 576.72
L285.444 579.312
L286.114 578.016
L286.783 574.128
L287.453 576.72
L288.122 576.72
L288.792 575.424
L289.462 578.016
L290.131 574.128
L290.801 574.128
L291.47 580.608
L292.14 574.128
L292.81 571.536
L293.479 576.72
L294.149 574.128
L294.818 574.128
L295.488 579.312
L296.158 578.016
L296.827 574.128
L297.497 581.904
L298.166 581.904
L298.836 571.536
L299.506 575.424
L300.175 570.24
L301.514 578.016
L302.184 572.832
L302.854 578.016
L303.523 579.312
L304.193 579.312
L304.862 578.016
L305.532 572.832
L306.202 571.536
L306.871 575.424
L307.541 574.128
L308.88 576.72
L309.55 572.832
L310.219 578.016
L310.889 576.72
L311.558 578.016
L312.228 580.608
L312.898 580.608
L313.567 578.016
L314.237 574.128
L314.906 579.312
L315.576 579.312
L316.246 576.72
L317.585 576.72
L318.254 575.424
L318.924 575.424
L319.594 571.536
L320.263 568.944
L320.933 574.128
L321.602 575.424
L322.272 575.424
L322.942 578.016
L323.611 581.904
L324.95 576.72
L325.62 578.016
L326.29 580.608
L326.959 578.016
L327.629 579.312
L328.298 575.424
L328.968 576.72
L329.638 579.312
L330.307 575.424
L330.977 579.312
L332.316 581.904
L332.986 581.904
L333.655 576.72
L334.994 579.312
L335.664 576.72
L336.334 580.608
L337.003 580.608
L337.673 578.016
L338.342 580.608
L339.012 579.312
L339.682 580.608
L340.351 576.72
L341.021 581.904
L341.69 581.904
L342.36 580.608
L343.03 583.2
L344.369 578.016
L345.038 580.608
L345.708 579.312
L346.378 583.2
L347.047 581.904
L347.717 578.016
L348.386 581.904
L349.056 580.608
L349.726 578.016
L350.395 580.608
L351.065 580.608
L351.734 579.312
L352.404 579.312
L354.413 583.2
L355.082 583.2
L355.752 578.016
L356.422 580.608
L357.091 575.424
L357.761 576.72
L358.43 579.312
L359.1 580.608
L359.77 576.72
L360.439 580.608
L361.109 578.016
L361.778 571.536
L362.448 574.128
L363.118 579.312
L363.787 579.312
L364.457 576.72
L365.126 579.312
L365.796 578.016
L366.466 571.536
L367.135 572.832
L367.805 576.72
L368.474 574.128
L369.144 579.312
L369.814 575.424
L370.483 579.312
L371.153 576.72
L371.822 575.424
L372.492 578.016
L373.162 579.312
L373.831 581.904
L374.501 575.424
L375.17 580.608
L375.84 578.016
L376.51 576.72
L377.179 580.608
L377.849 578.016
L378.518 574.128
L379.188 574.128
L379.858 578.016
L380.527 579.312
L381.197 581.904
L381.866 580.608
L382.536 580.608
L383.206 575.424
L383.875 578.016
L384.545 581.904
L385.214 578.016
L385.884 576.72
L386.554 580.608
L387.223 578.016
L387.893 580.608
L388.562 580.608
L389.232 578.016
L390.571 583.2
L391.241 579.312
L392.58 581.904
L393.919 576.72
L394.589 579.312
L395.258 580.608
L397.937 580.608
L398.606 579.312
L399.276 574.128
L399.946 580.608
L400.615 579.312
L401.285 579.312
L401.954 580.608
L404.633 580.608
L405.302 579.312
L405.972 579.312
L407.311 581.904
L407.981 580.608
L409.32 583.2
L411.998 583.2
L413.338 580.608
L414.007 581.904
L414.677 580.608
L416.016 580.608
L416.686 579.312
L417.355 579.312
L418.025 578.016
L418.694 578.016
L419.364 579.312
L420.034 579.312
L420.703 580.608
L421.373 578.016
L422.042 579.312
L422.712 579.312
L423.382 580.608
L424.051 579.312
L424.721 581.904
L425.39 580.608
L426.06 580.608
L426.73 581.904
L427.399 581.904
L429.408 578.016
L430.747 583.2
L431.417 581.904
L432.086 581.904
L434.095 578.016
L434.765 578.016
L436.104 580.608
L436.774 579.312
L437.443 579.312
L438.113 576.72
L438.782 580.608
L439.452 581.904
L440.122 578.016
L440.791 580.608
L441.461 581.904
L442.13 581.904
L442.8 580.608
L443.47 580.608
L444.139 579.312
L444.809 580.608
L445.478 579.312
L446.148 580.608
L446.818 583.2
L447.487 575.424
L448.157 571.536
L448.826 575.424
L449.496 559.872
L450.166 555.984
L450.835 541.728
L451.505 541.728
L452.174 527.472
L453.514 505.44
L454.183 501.552
L454.853 515.808
L455.522 492.48
L456.192 496.368
L456.862 501.552
L457.531 498.96
L458.201 486
L458.87 487.296
L459.54 487.296
L460.21 482.112
L460.879 467.856
L461.549 483.408
L462.218 482.112
L462.888 458.784
L463.558 480.816
L464.227 486
L464.897 474.336
L465.566 454.896
L466.236 482.112
L466.906 486
L467.575 488.592
L468.245 487.296
L468.914 500.256
L469.584 480.816
L470.254 474.336
L470.923 500.256
L471.593 457.488
L472.262 504.144
L472.932 483.408
L473.602 470.448
L474.271 486
L474.941 486
L476.28 493.776
L476.95 460.08
L477.619 473.04
L478.289 469.152
L478.958 451.008
L479.628 463.968
L480.298 460.08
L480.967 466.56
L481.637 457.488
L482.306 460.08
L482.976 492.48
L483.646 453.6
L484.315 461.376
L484.985 496.368
L485.654 475.632
L486.324 482.112
L486.994 492.48
L487.663 508.032
L488.333 486
L489.002 482.112
L489.672 488.592
L490.342 487.296
L491.011 480.816
L491.681 508.032
L492.35 480.816
L493.02 480.816
L493.69 483.408
L494.359 465.264
L495.029 480.816
L496.368 456.192
L497.038 460.08
L498.377 492.48
L499.046 444.528
L499.716 505.44
L500.386 493.776
L501.055 500.256
L501.725 482.112
L502.394 505.44
L503.064 484.704
L503.734 498.96
L504.403 508.032
L505.073 483.408
L505.742 500.256
L506.412 492.48
L507.082 488.592
L507.751 476.928
L508.421 471.744
L509.09 458.784
L509.76 484.704
L510.43 496.368
L511.099 486
L511.769 483.408
L512.438 479.52
L513.108 495.072
L513.778 495.072
L514.447 504.144
L515.117 486
L515.786 496.368
L516.456 489.888
L517.126 506.736
L517.795 492.48
L518.465 500.256
L519.134 487.296
L519.804 465.264
L520.474 492.48
L521.143 474.336
L521.813 475.632
L522.482 467.856
L523.152 463.968
L523.822 495.072
L524.491 469.152
L525.161 496.368
L525.83 496.368
L526.5 500.256
L527.17 493.776
L527.839 510.624
L528.509 493.776
L529.178 500.256
L529.848 495.072
L530.518 484.704
L531.187 488.592
L531.857 469.152
L532.526 462.672
L533.196 478.224
L533.866 475.632
L534.535 508.032
L535.205 491.184
L535.874 520.992
L536.544 496.368
L537.214 510.624
L537.883 504.144
L538.553 501.552
L539.222 486
L539.892 506.736
L540.562 505.44
L541.231 510.624
L541.901 508.032
L542.57 493.776
L543.24 520.992
L543.91 479.52
L544.579 493.776
L545.249 497.664
L545.918 491.184
L546.588 510.624
L547.258 498.96
L547.927 492.48
L548.597 501.552
L549.266 470.448
L549.936 496.368
L550.606 482.112
L551.275 504.144
L551.945 501.552
L552.614 480.816
L553.284 509.328
L553.954 479.52
L554.623 520.992
L555.962 492.48
L556.632 483.408
L557.302 492.48
L557.971 484.704
L558.641 504.144
L559.31 489.888
L559.98 502.848
L560.65 491.184
L561.319 515.808
L561.989 496.368
L563.998 492.48
L564.667 476.928
L565.337 510.624
L566.006 522.288
L566.676 493.776
L567.346 506.736
L568.015 508.032
L568.685 492.48
L569.354 495.072
L570.024 487.296
L570.694 505.44
L571.363 496.368
L572.033 506.736
L572.702 502.848
L573.372 495.072
L574.042 501.552
L574.711 479.52
L575.381 500.256
L576.05 493.776
L576.72 509.328
L577.39 505.44
L578.059 502.848
L578.729 504.144
L579.398 500.256
L580.068 502.848
L580.738 495.072
L581.407 513.216
L582.077 520.992
L582.746 520.992
L583.416 513.216
L584.086 486
L584.755 509.328
L585.425 483.408
L586.094 469.152
L586.764 496.368
L587.434 501.552
L588.103 492.48
L588.773 517.104
L589.442 508.032
L590.112 493.776
L590.782 487.296
L591.451 502.848
L592.121 498.96
L592.79 517.104
L593.46 508.032
L594.13 544.32
L594.799 520.992
L595.469 528.768
L596.138 518.4
L596.808 496.368
L597.478 518.4
L598.147 497.664
L598.817 487.296
L599.486 510.624
L600.826 480.816
L601.495 518.4
L602.165 509.328
L602.834 508.032
L603.504 519.696
L604.174 505.44
L604.843 486
L606.182 504.144
L606.852 497.664
L607.522 508.032
L608.191 528.768
L608.861 504.144
L609.53 487.296
L610.2 495.072
L610.87 504.144
L611.539 486
L612.209 511.92
L612.878 506.736
L613.548 504.144
L614.218 470.448
L614.887 480.816
L615.557 506.736
L616.226 493.776
L616.896 500.256
L617.566 514.512
L618.235 517.104
L618.905 505.44
L619.574 488.592
L620.244 478.224
L620.914 505.44
L621.583 498.96
L622.253 511.92
L622.922 484.704
L623.592 515.808
L624.262 502.848
L624.931 495.072
L625.601 488.592
L626.27 504.144
L626.94 480.816
L627.61 492.48
L628.279 498.96
L628.949 482.112
L629.618 489.888
L630.288 488.592
L630.958 526.176
L631.627 506.736
L632.297 518.4
L632.966 511.92
L633.636 501.552
L634.306 519.696
L634.975 496.368
L635.645 496.368
L636.314 498.96
L636.984 488.592
L637.654 495.072
L638.323 498.96
L638.993 498.96
L639.662 501.552
L640.332 528.768
L641.002 527.472
L641.671 501.552
L642.341 501.552
L643.68 511.92
L644.35 496.368
L645.019 506.736
L645.689 501.552
L646.358 506.736
L647.028 506.736
L647.698 497.664
L648.367 483.408
L649.037 484.704
L649.706 508.032
L650.376 519.696
L651.046 504.144
L651.715 495.072
L652.385 496.368
L653.054 484.704
L653.724 467.856
L654.394 519.696
L655.063 511.92
L655.733 487.296
L656.402 509.328
L657.072 509.328
L657.742 502.848
L658.411 505.44
L659.081 496.368
L659.75 483.408
L660.42 487.296
L661.09 487.296
L661.759 508.032
L662.429 504.144
L663.098 495.072
L663.768 515.808
L664.438 492.48
L665.107 509.328
L665.777 500.256
L666.446 515.808
L667.116 513.216
L667.786 508.032
L668.455 518.4
L669.125 518.4
L669.794 500.256
L670.464 492.48
L671.134 508.032
L671.803 502.848
L672.473 487.296
L673.812 511.92
L674.482 504.144
L675.151 541.728
L675.821 513.216
L676.49 501.552
L677.16 511.92
L677.83 514.512
L678.499 535.248
L679.169 520.992
L679.838 492.48
L680.508 487.296
L681.178 519.696
L681.847 530.064
L682.517 506.736
L683.186 533.952
L683.856 531.36
L685.865 498.96
L686.534 522.288
L687.204 530.064
L687.874 502.848
L688.543 513.216
L689.213 511.92
L689.882 497.664
L690.552 504.144
L691.222 488.592
L691.891 513.216
L692.561 483.408
L693.23 508.032
L693.9 495.072
L694.57 505.44
L695.239 498.96
L695.909 486
L696.578 511.92
L697.248 523.584
L697.918 508.032
L698.587 505.44
L699.257 505.44
L699.926 511.92
L700.596 510.624
L701.266 520.992
L701.935 492.48
L702.605 518.4
L703.274 511.92
L703.944 517.104
L704.614 517.104
L705.283 500.256
L705.953 518.4
L706.622 498.96
L707.292 501.552
L707.962 518.4
L708.631 504.144
L709.301 502.848
L709.97 519.696
L711.31 500.256
L711.979 522.288
L712.649 519.696
L713.318 518.4
L713.988 509.328
L714.658 509.328
L715.327 497.664
L715.997 522.288
L716.666 513.216
L717.336 513.216
L718.006 505.44
L718.675 495.072
L719.345 515.808
L720.014 510.624
L720.684 510.624
L721.354 508.032
L722.023 511.92
L722.693 501.552
L723.362 504.144
L724.032 505.44
L724.702 491.184
L725.371 462.672
L726.041 492.48
L726.71 492.48
L727.38 510.624
L728.05 511.92
L728.719 506.736
L729.389 515.808
L730.058 500.256
L730.728 497.664
L731.398 524.88
L732.067 502.848
L732.737 530.064
L733.406 522.288
L734.746 491.184
L736.085 517.104
L737.424 506.736
L738.094 517.104
L738.763 513.216
L739.433 524.88
L740.102 517.104
L740.772 505.44
L741.442 504.144
L742.111 514.512
L742.781 531.36
L743.45 515.808
L744.12 527.472
L744.79 519.696
L745.459 513.216
L746.129 518.4
L746.798 493.776
L747.468 523.584
L748.138 504.144
L748.807 513.216
L749.477 530.064
L750.816 496.368
L751.486 502.848
L752.155 496.368
L752.825 515.808
L753.494 498.96
L754.164 513.216
L754.834 531.36
L755.503 527.472
L756.173 518.4
L756.842 517.104
L757.512 519.696
L758.182 514.512
L758.851 523.584
L759.521 523.584
L760.19 509.328
L760.86 508.032
L761.53 505.44
L762.199 515.808
L762.869 488.592
L763.538 519.696
L764.878 492.48
L765.547 515.808
L766.217 510.624
L766.886 520.992
L767.556 498.96
L768.226 502.848
L768.895 504.144
L769.565 508.032
L770.234 502.848
L770.904 519.696
L771.574 501.552
L772.243 522.288
L772.913 508.032
L773.582 523.584
L774.252 502.848
L774.922 502.848
L775.591 520.992
L776.261 492.48
L776.93 515.808
L777.6 502.848
L777.6 502.848" style="fill:none;stroke:#ff0000;stroke-linecap:square;"/>
   </g>
   <g id="line2d_2">
    <path clip-path="url(#p7ceb695115)" d="
M108 583.2
L132.106 583.2
L132.775 580.608
L134.784 580.608
L136.123 583.2
L137.462 580.608
L138.132 580.608
L138.802 581.904
L139.471 581.904
L140.141 580.608
L140.81 580.608
L141.48 583.2
L142.819 580.608
L144.158 580.608
L144.828 578.016
L145.498 579.312
L146.167 579.312
L146.837 576.72
L147.506 579.312
L148.176 580.608
L148.846 579.312
L149.515 579.312
L150.854 576.72
L151.524 578.016
L152.194 576.72
L152.863 581.904
L153.533 579.312
L154.202 579.312
L154.872 581.904
L155.542 579.312
L156.211 578.016
L156.881 580.608
L157.55 575.424
L158.22 576.72
L158.89 576.72
L159.559 579.312
L160.229 579.312
L161.568 576.72
L162.238 580.608
L162.907 579.312
L163.577 579.312
L164.246 578.016
L165.586 578.016
L166.255 576.72
L166.925 579.312
L167.594 579.312
L168.264 575.424
L168.934 575.424
L169.603 578.016
L170.273 575.424
L170.942 579.312
L171.612 579.312
L172.282 578.016
L172.951 575.424
L173.621 578.016
L174.29 575.424
L174.96 575.424
L175.63 578.016
L176.299 574.128
L176.969 576.72
L177.638 574.128
L178.308 575.424
L178.978 572.832
L179.647 578.016
L180.317 572.832
L180.986 574.128
L181.656 578.016
L182.326 575.424
L182.995 575.424
L183.665 568.944
L184.334 571.536
L185.004 571.536
L186.343 574.128
L187.013 568.944
L188.352 571.536
L189.022 571.536
L189.691 567.648
L190.361 570.24
L191.03 570.24
L191.7 571.536
L192.37 566.352
L193.039 567.648
L193.709 567.648
L194.378 566.352
L195.048 574.128
L195.718 568.944
L196.387 566.352
L197.057 568.944
L197.726 572.832
L198.396 563.76
L199.066 561.168
L199.735 565.056
L200.405 566.352
L201.074 562.464
L201.744 568.944
L202.414 565.056
L203.083 562.464
L204.422 565.056
L205.092 562.464
L205.762 561.168
L206.431 563.76
L207.101 565.056
L207.77 565.056
L208.44 558.576
L209.11 559.872
L209.779 558.576
L210.449 562.464
L211.118 561.168
L211.788 558.576
L212.458 562.464
L213.127 555.984
L214.466 563.76
L215.136 561.168
L216.475 561.168
L217.145 557.28
L217.814 558.576
L218.484 558.576
L219.154 555.984
L219.823 557.28
L220.493 555.984
L221.162 557.28
L221.832 557.28
L222.502 558.576
L223.171 554.688
L223.841 559.872
L224.51 559.872
L225.18 562.464
L225.85 562.464
L226.519 558.576
L227.189 553.392
L227.858 558.576
L228.528 562.464
L229.198 554.688
L229.867 553.392
L230.537 557.28
L231.206 552.096
L231.876 550.8
L232.546 553.392
L233.885 550.8
L234.554 552.096
L235.224 557.28
L235.894 550.8
L236.563 550.8
L237.233 554.688
L237.902 548.208
L238.572 544.32
L239.242 546.912
L239.911 550.8
L240.581 550.8
L241.25 554.688
L241.92 550.8
L242.59 557.28
L243.259 552.096
L243.929 554.688
L244.598 552.096
L245.268 558.576
L245.938 561.168
L246.607 562.464
L247.277 565.056
L247.946 561.168
L248.616 566.352
L249.286 561.168
L249.955 568.944
L250.625 559.872
L251.294 559.872
L251.964 558.576
L252.634 553.392
L253.303 555.984
L253.973 557.28
L254.642 557.28
L255.312 555.984
L255.982 555.984
L256.651 559.872
L257.321 553.392
L257.99 558.576
L258.66 562.464
L259.33 561.168
L259.999 563.76
L260.669 561.168
L261.338 562.464
L262.008 566.352
L262.678 565.056
L263.347 558.576
L264.017 559.872
L264.686 563.76
L265.356 559.872
L266.026 561.168
L266.695 561.168
L267.365 557.28
L268.034 563.76
L268.704 561.168
L269.374 561.168
L270.043 566.352
L270.713 562.464
L272.052 557.28
L273.391 565.056
L274.061 557.28
L274.73 562.464
L275.4 562.464
L276.07 553.392
L276.739 559.872
L277.409 553.392
L278.078 553.392
L278.748 549.504
L279.418 555.984
L280.087 552.096
L280.757 550.8
L281.426 554.688
L282.096 557.28
L282.766 548.208
L284.105 548.208
L284.774 552.096
L286.114 549.504
L286.783 555.984
L287.453 558.576
L288.122 553.392
L288.792 561.168
L289.462 553.392
L290.131 555.984
L290.801 555.984
L291.47 550.8
L292.14 557.28
L292.81 558.576
L293.479 561.168
L294.149 557.28
L294.818 557.28
L295.488 549.504
L296.158 554.688
L296.827 565.056
L297.497 555.984
L298.836 553.392
L299.506 549.504
L300.175 552.096
L300.845 545.616
L301.514 540.432
L302.184 544.32
L302.854 540.432
L303.523 543.024
L304.193 543.024
L304.862 544.32
L305.532 552.096
L306.202 553.392
L306.871 549.504
L307.541 552.096
L308.21 559.872
L308.88 553.392
L309.55 553.392
L310.219 544.32
L310.889 544.32
L311.558 550.8
L312.228 544.32
L312.898 557.28
L313.567 552.096
L314.237 561.168
L314.906 553.392
L315.576 552.096
L316.246 559.872
L316.915 557.28
L317.585 555.984
L318.254 553.392
L318.924 552.096
L319.594 557.28
L320.263 559.872
L321.602 554.688
L322.942 559.872
L323.611 555.984
L324.95 558.576
L325.62 562.464
L326.29 561.168
L326.959 565.056
L327.629 563.76
L328.298 563.76
L328.968 558.576
L329.638 558.576
L330.307 565.056
L330.977 557.28
L331.646 561.168
L332.316 563.76
L332.986 559.872
L333.655 566.352
L334.325 563.76
L336.334 567.648
L337.003 566.352
L337.673 567.648
L338.342 565.056
L339.012 563.76
L339.682 567.648
L340.351 570.24
L341.021 565.056
L341.69 565.056
L342.36 567.648
L343.03 566.352
L343.699 570.24
L344.369 570.24
L345.038 568.944
L345.708 568.944
L346.378 563.76
L347.047 563.76
L347.717 571.536
L348.386 568.944
L349.056 570.24
L349.726 563.76
L350.395 566.352
L351.065 565.056
L351.734 571.536
L352.404 570.24
L353.074 565.056
L353.743 563.76
L354.413 565.056
L355.082 563.76
L355.752 565.056
L356.422 565.056
L357.091 570.24
L357.761 565.056
L358.43 562.464
L359.1 558.576
L359.77 562.464
L360.439 558.576
L361.109 563.76
L361.778 562.464
L362.448 562.464
L363.787 557.28
L364.457 561.168
L365.126 553.392
L365.796 550.8
L366.466 562.464
L367.135 558.576
L367.805 557.28
L368.474 561.168
L369.144 558.576
L369.814 559.872
L370.483 558.576
L371.822 566.352
L373.162 561.168
L373.831 561.168
L374.501 565.056
L375.17 558.576
L375.84 558.576
L376.51 557.28
L377.179 558.576
L377.849 558.576
L378.518 562.464
L379.188 562.464
L379.858 561.168
L380.527 557.28
L381.197 558.576
L382.536 558.576
L383.206 566.352
L383.875 562.464
L384.545 562.464
L385.884 567.648
L386.554 563.76
L387.223 572.832
L387.893 572.832
L388.562 567.648
L389.232 570.24
L389.902 566.352
L390.571 565.056
L391.241 571.536
L391.91 571.536
L392.58 566.352
L393.919 571.536
L394.589 568.944
L395.258 570.24
L397.267 566.352
L397.937 568.944
L398.606 570.24
L399.276 574.128
L399.946 565.056
L400.615 567.648
L402.624 571.536
L403.294 568.944
L403.963 567.648
L404.633 563.76
L405.302 565.056
L405.972 570.24
L406.642 570.24
L407.311 572.832
L407.981 570.24
L408.65 571.536
L409.32 571.536
L409.99 570.24
L410.659 571.536
L411.329 576.72
L411.998 575.424
L412.668 576.72
L413.338 576.72
L414.007 572.832
L416.016 572.832
L416.686 574.128
L418.694 574.128
L419.364 575.424
L420.034 572.832
L420.703 572.832
L421.373 575.424
L422.042 572.832
L422.712 571.536
L423.382 571.536
L424.051 572.832
L424.721 570.24
L425.39 572.832
L426.06 572.832
L426.73 571.536
L427.399 572.832
L428.069 572.832
L429.408 578.016
L430.078 575.424
L430.747 574.128
L431.417 570.24
L432.086 570.24
L432.756 572.832
L433.426 570.24
L434.095 572.832
L434.765 570.24
L436.104 567.648
L436.774 567.648
L437.443 571.536
L438.113 572.832
L438.782 571.536
L440.122 576.72
L440.791 574.128
L441.461 568.944
L442.13 574.128
L442.8 571.536
L443.47 570.24
L444.139 574.128
L444.809 571.536
L445.478 574.128
L446.148 571.536
L446.818 567.648
L447.487 565.056
L448.826 535.248
L449.496 530.064
L450.835 496.368
L451.505 458.784
L452.174 438.048
L452.844 391.392
L453.514 362.88
L454.183 314.928
L454.853 303.264
L455.522 281.232
L456.192 263.088
L457.531 206.064
L458.201 200.88
L458.87 212.544
L459.54 186.624
L460.21 178.848
L460.879 190.512
L461.549 184.032
L462.218 203.472
L462.888 212.544
L463.558 199.584
L464.227 216.432
L464.897 207.36
L465.566 173.664
L466.236 178.848
L466.906 177.552
L467.575 199.584
L468.245 176.256
L468.914 181.44
L469.584 137.376
L470.254 180.144
L470.923 181.44
L471.593 212.544
L472.262 163.296
L473.602 203.472
L474.271 184.032
L474.941 185.328
L475.61 178.848
L476.28 191.808
L476.95 185.328
L477.619 186.624
L478.289 190.512
L478.958 169.776
L479.628 165.888
L480.298 151.632
L480.967 145.152
L481.637 127.008
L482.306 125.712
L482.976 119.232
L483.646 150.336
L484.315 163.296
L485.654 168.48
L486.324 182.736
L486.994 178.848
L487.663 199.584
L488.333 206.064
L489.002 187.92
L489.672 199.584
L490.342 186.624
L491.011 184.032
L491.681 163.296
L492.35 149.04
L493.02 162
L493.69 177.552
L494.359 196.992
L495.029 160.704
L495.698 151.632
L496.368 176.256
L497.038 176.256
L497.707 211.248
L499.046 224.208
L500.386 174.96
L501.055 200.88
L501.725 195.696
L502.394 206.064
L503.064 222.912
L503.734 213.84
L504.403 207.36
L505.073 225.504
L505.742 212.544
L506.412 194.4
L507.082 211.248
L507.751 193.104
L508.421 181.44
L509.09 203.472
L509.76 200.88
L510.43 219.024
L511.099 221.616
L511.769 226.8
L512.438 221.616
L513.108 219.024
L513.778 229.392
L515.117 216.432
L515.786 221.616
L516.456 187.92
L517.126 209.952
L517.795 225.504
L518.465 217.728
L519.134 211.248
L519.804 225.504
L520.474 178.848
L521.143 207.36
L521.813 211.248
L522.482 204.768
L523.152 221.616
L523.822 198.288
L524.491 209.952
L525.161 225.504
L525.83 195.696
L526.5 203.472
L527.17 206.064
L527.839 222.912
L528.509 202.176
L529.178 200.88
L529.848 181.44
L530.518 206.064
L531.187 184.032
L531.857 207.36
L532.526 237.168
L533.196 219.024
L533.866 195.696
L534.535 193.104
L535.205 194.4
L535.874 163.296
L536.544 189.216
L537.214 220.32
L537.883 208.656
L538.553 212.544
L539.222 239.76
L539.892 230.688
L540.562 230.688
L541.231 221.616
L542.57 266.976
L543.24 233.28
L543.91 265.68
L545.249 229.392
L545.918 220.32
L546.588 242.352
L547.258 216.432
L547.927 204.768
L548.597 206.064
L549.266 198.288
L549.936 203.472
L550.606 200.88
L551.275 164.592
L551.945 172.368
L552.614 200.88
L553.284 219.024
L553.954 242.352
L554.623 228.096
L555.962 261.792
L556.632 270.864
L557.302 254.016
L557.971 216.432
L558.641 247.536
L559.31 238.464
L559.98 217.728
L560.65 242.352
L561.319 239.76
L561.989 259.2
L562.658 252.72
L563.328 252.72
L563.998 263.088
L564.667 255.312
L565.337 224.208
L566.006 215.136
L566.676 246.24
L567.346 247.536
L568.015 252.72
L568.685 274.752
L570.024 259.2
L570.694 248.832
L571.363 269.568
L572.033 265.68
L572.702 256.608
L573.372 241.056
L574.042 238.464
L574.711 230.688
L575.381 237.168
L576.72 269.568
L577.39 252.72
L578.059 243.648
L578.729 238.464
L579.398 251.424
L580.068 234.576
L580.738 235.872
L581.407 225.504
L582.077 225.504
L582.746 230.688
L583.416 237.168
L584.086 261.792
L584.755 250.128
L585.425 283.824
L586.094 290.304
L586.764 265.68
L587.434 269.568
L588.103 261.792
L588.773 237.168
L589.442 228.096
L590.112 238.464
L590.782 242.352
L591.451 264.384
L592.121 252.72
L592.79 268.272
L593.46 272.16
L594.13 230.688
L594.799 295.488
L595.469 289.008
L596.138 274.752
L597.478 261.792
L598.147 244.944
L598.817 252.72
L599.486 261.792
L600.156 276.048
L600.826 276.048
L601.495 273.456
L602.165 285.12
L602.834 290.304
L604.174 279.936
L604.843 257.904
L605.513 252.72
L606.182 222.912
L607.522 247.536
L608.861 250.128
L609.53 263.088
L610.2 269.568
L610.87 250.128
L611.539 226.8
L612.209 234.576
L612.878 250.128
L613.548 234.576
L614.887 239.76
L615.557 241.056
L616.226 257.904
L616.896 247.536
L617.566 273.456
L618.235 242.352
L618.905 230.688
L619.574 228.096
L620.244 231.984
L620.914 209.952
L621.583 257.904
L622.253 233.28
L622.922 289.008
L623.592 261.792
L624.262 252.72
L624.931 250.128
L625.601 250.128
L626.27 226.8
L626.94 243.648
L627.61 243.648
L628.279 233.28
L628.949 230.688
L629.618 230.688
L630.288 225.504
L630.958 233.28
L632.297 268.272
L632.966 296.784
L633.636 270.864
L634.306 257.904
L634.975 266.976
L635.645 273.456
L636.314 265.68
L636.984 266.976
L637.654 256.608
L638.323 257.904
L638.993 276.048
L639.662 286.416
L640.332 273.456
L641.002 272.16
L641.671 278.64
L642.341 272.16
L643.01 282.528
L643.68 286.416
L644.35 298.08
L645.019 270.864
L645.689 260.496
L646.358 246.24
L647.028 226.8
L647.698 241.056
L648.367 274.752
L649.037 266.976
L649.706 247.536
L650.376 219.024
L651.046 235.872
L651.715 231.984
L652.385 238.464
L653.054 224.208
L653.724 255.312
L654.394 238.464
L655.063 235.872
L655.733 243.648
L656.402 239.76
L657.072 259.2
L657.742 259.2
L658.411 260.496
L659.081 276.048
L659.75 266.976
L660.42 286.416
L661.09 266.976
L661.759 251.424
L662.429 273.456
L663.098 239.76
L663.768 263.088
L664.438 276.048
L665.107 257.904
L665.777 265.68
L666.446 235.872
L667.116 243.648
L667.786 243.648
L668.455 238.464
L669.125 230.688
L669.794 231.984
L670.464 248.832
L671.134 221.616
L671.803 234.576
L673.142 281.232
L673.812 281.232
L674.482 298.08
L675.151 307.152
L675.821 313.632
L676.49 289.008
L677.83 299.376
L678.499 276.048
L679.169 296.784
L679.838 287.712
L680.508 309.744
L681.178 287.712
L681.847 299.376
L682.517 342.144
L683.186 326.592
L683.856 303.264
L684.526 311.04
L685.195 295.488
L685.865 313.632
L686.534 278.64
L687.204 281.232
L687.874 295.488
L688.543 286.416
L689.213 307.152
L689.882 309.744
L690.552 286.416
L691.222 312.336
L691.891 290.304
L692.561 304.56
L693.23 299.376
L693.9 311.04
L694.57 291.6
L695.239 294.192
L695.909 274.752
L696.578 285.12
L697.248 276.048
L697.918 295.488
L698.587 287.712
L699.926 292.896
L700.596 272.16
L701.266 286.416
L701.935 304.56
L702.605 300.672
L703.274 295.488
L703.944 281.232
L704.614 270.864
L705.283 270.864
L705.953 254.016
L706.622 309.744
L707.292 307.152
L707.962 281.232
L708.631 294.192
L709.301 276.048
L709.97 274.752
L710.64 287.712
L711.31 296.784
L711.979 285.12
L713.318 301.968
L713.988 295.488
L714.658 299.376
L715.327 301.968
L715.997 287.712
L716.666 299.376
L717.336 287.712
L718.006 265.68
L718.675 281.232
L719.345 263.088
L720.014 278.64
L720.684 270.864
L721.354 268.272
L722.023 272.16
L722.693 278.64
L723.362 278.64
L724.032 291.6
L724.702 309.744
L725.371 314.928
L726.041 314.928
L727.38 298.08
L728.05 266.976
L728.719 261.792
L729.389 266.976
L730.058 291.6
L730.728 291.6
L731.398 261.792
L732.067 266.976
L732.737 261.792
L733.406 278.64
L734.076 285.12
L734.746 260.496
L735.415 250.128
L736.085 272.16
L736.754 277.344
L737.424 263.088
L738.763 278.64
L739.433 292.896
L740.102 299.376
L740.772 312.336
L741.442 290.304
L742.111 289.008
L742.781 292.896
L743.45 292.896
L744.12 299.376
L744.79 320.112
L745.459 321.408
L746.129 317.52
L746.798 330.48
L747.468 299.376
L748.138 296.784
L748.807 299.376
L749.477 285.12
L750.146 285.12
L750.816 266.976
L751.486 289.008
L752.155 286.416
L752.825 292.896
L753.494 312.336
L754.164 300.672
L754.834 272.16
L755.503 273.456
L756.173 277.344
L756.842 286.416
L757.512 285.12
L758.182 289.008
L758.851 282.528
L759.521 287.712
L760.19 307.152
L760.86 299.376
L761.53 299.376
L762.199 291.6
L762.869 307.152
L763.538 274.752
L764.208 279.936
L764.878 299.376
L765.547 300.672
L766.217 292.896
L766.886 278.64
L767.556 290.304
L768.226 257.904
L768.895 252.72
L769.565 257.904
L770.234 269.568
L770.904 255.312
L771.574 259.2
L772.243 295.488
L772.913 289.008
L773.582 307.152
L774.922 314.928
L775.591 294.192
L776.93 313.632
L777.6 273.456
L777.6 273.456" style="fill:none;stroke:#008000;stroke-linecap:square;"/>
   </g>
   <g id="line2d_3">
    <path clip-path="url(#p7ceb695115)" d="
M108 583.2
L130.766 583.2
L131.436 580.608
L132.106 580.608
L132.775 583.2
L134.784 583.2
L136.123 580.608
L136.793 583.2
L140.81 583.2
L141.48 581.904
L142.15 583.2
L142.819 583.2
L143.489 580.608
L144.828 583.2
L145.498 581.904
L146.837 581.904
L147.506 583.2
L148.176 583.2
L149.515 580.608
L150.854 583.2
L151.524 583.2
L152.863 580.608
L153.533 583.2
L154.202 583.2
L154.872 580.608
L155.542 583.2
L156.881 580.608
L157.55 583.2
L158.22 581.904
L159.559 581.904
L160.229 580.608
L160.898 580.608
L161.568 581.904
L162.238 580.608
L162.907 580.608
L163.577 579.312
L164.246 581.904
L164.916 579.312
L165.586 581.904
L166.255 581.904
L166.925 580.608
L167.594 576.72
L168.264 580.608
L169.603 580.608
L170.273 581.904
L170.942 580.608
L172.951 580.608
L173.621 579.312
L174.29 581.904
L174.96 581.904
L175.63 583.2
L176.299 583.2
L176.969 581.904
L177.638 583.2
L178.308 581.904
L178.978 583.2
L179.647 579.312
L180.317 578.016
L180.986 579.312
L181.656 578.016
L182.326 575.424
L182.995 578.016
L183.665 581.904
L184.334 579.312
L185.004 579.312
L185.674 580.608
L186.343 580.608
L187.013 583.2
L187.682 581.904
L188.352 579.312
L189.022 580.608
L189.691 583.2
L190.361 579.312
L191.03 579.312
L191.7 580.608
L192.37 579.312
L193.039 580.608
L193.709 579.312
L194.378 581.904
L195.048 578.016
L195.718 581.904
L196.387 581.904
L197.057 579.312
L197.726 578.016
L198.396 580.608
L199.066 581.904
L200.405 579.312
L201.074 581.904
L201.744 578.016
L202.414 578.016
L203.083 580.608
L204.422 575.424
L205.092 578.016
L205.762 581.904
L206.431 581.904
L207.101 576.72
L207.77 578.016
L208.44 580.608
L209.11 576.72
L210.449 576.72
L211.118 574.128
L212.458 571.536
L213.127 581.904
L213.797 578.016
L214.466 575.424
L215.136 575.424
L215.806 576.72
L216.475 576.72
L217.145 579.312
L217.814 575.424
L218.484 572.832
L220.493 580.608
L221.162 580.608
L221.832 576.72
L223.171 579.312
L223.841 578.016
L224.51 574.128
L225.18 576.72
L226.519 576.72
L227.189 580.608
L227.858 580.608
L228.528 578.016
L229.198 580.608
L229.867 578.016
L231.206 580.608
L231.876 578.016
L232.546 578.016
L233.215 579.312
L233.885 578.016
L234.554 579.312
L235.224 576.72
L235.894 579.312
L236.563 576.72
L237.233 570.24
L237.902 571.536
L238.572 579.312
L239.242 578.016
L239.911 578.016
L240.581 579.312
L241.25 581.904
L241.92 580.608
L242.59 575.424
L243.259 578.016
L243.929 576.72
L244.598 580.608
L245.268 579.312
L245.938 576.72
L246.607 576.72
L247.277 574.128
L247.946 575.424
L248.616 575.424
L249.286 578.016
L249.955 571.536
L251.294 574.128
L251.964 576.72
L252.634 578.016
L253.303 576.72
L253.973 579.312
L254.642 576.72
L255.982 576.72
L256.651 572.832
L257.321 575.424
L257.99 571.536
L258.66 568.944
L259.33 571.536
L259.999 571.536
L260.669 575.424
L261.338 576.72
L262.008 572.832
L262.678 572.832
L263.347 574.128
L264.017 578.016
L264.686 575.424
L266.695 579.312
L267.365 579.312
L268.034 580.608
L268.704 583.2
L269.374 581.904
L270.043 578.016
L270.713 579.312
L271.382 578.016
L272.052 579.312
L272.722 574.128
L273.391 570.24
L274.061 578.016
L274.73 571.536
L275.4 571.536
L276.07 575.424
L276.739 574.128
L277.409 579.312
L278.078 579.312
L278.748 578.016
L279.418 574.128
L280.087 576.72
L280.757 572.832
L281.426 571.536
L282.096 572.832
L283.435 578.016
L284.105 578.016
L284.774 572.832
L286.114 578.016
L286.783 572.832
L287.453 572.832
L288.122 578.016
L288.792 571.536
L289.462 576.72
L290.131 578.016
L292.14 578.016
L292.81 579.312
L293.479 571.536
L294.149 578.016
L295.488 583.2
L296.158 579.312
L296.827 572.832
L297.497 574.128
L298.166 572.832
L298.836 579.312
L299.506 579.312
L300.175 576.72
L300.845 576.72
L301.514 575.424
L302.854 578.016
L303.523 574.128
L304.193 574.128
L304.862 576.72
L305.532 574.128
L306.202 575.424
L306.871 575.424
L307.541 574.128
L308.21 566.352
L308.88 571.536
L309.55 578.016
L310.219 581.904
L310.889 583.2
L311.558 575.424
L312.228 579.312
L312.898 571.536
L313.567 579.312
L314.237 574.128
L314.906 576.72
L315.576 578.016
L316.246 572.832
L316.915 578.016
L317.585 576.72
L318.924 579.312
L320.263 579.312
L320.933 576.72
L321.602 575.424
L322.272 575.424
L322.942 572.832
L323.611 575.424
L324.281 579.312
L324.95 580.608
L325.62 576.72
L326.29 575.424
L326.959 571.536
L327.629 571.536
L328.298 578.016
L328.968 581.904
L329.638 576.72
L330.307 576.72
L330.977 579.312
L331.646 576.72
L332.316 572.832
L332.986 576.72
L333.655 576.72
L334.325 578.016
L334.994 578.016
L335.664 579.312
L336.334 576.72
L337.003 578.016
L337.673 581.904
L339.012 581.904
L339.682 580.608
L340.351 581.904
L341.69 576.72
L342.36 575.424
L343.699 575.424
L344.369 580.608
L345.038 579.312
L347.047 583.2
L347.717 580.608
L348.386 579.312
L349.056 579.312
L349.726 583.2
L350.395 580.608
L351.065 581.904
L351.734 576.72
L352.404 578.016
L353.074 581.904
L353.743 581.904
L354.413 579.312
L355.082 575.424
L355.752 579.312
L357.091 579.312
L357.761 583.2
L358.43 580.608
L359.1 580.608
L359.77 579.312
L360.439 579.312
L361.109 576.72
L361.778 581.904
L363.118 576.72
L363.787 576.72
L364.457 572.832
L365.126 580.608
L365.796 581.904
L366.466 576.72
L367.135 579.312
L367.805 576.72
L368.474 575.424
L369.144 575.424
L369.814 578.016
L370.483 578.016
L371.153 576.72
L371.822 576.72
L372.492 579.312
L373.162 578.016
L374.501 578.016
L375.17 579.312
L376.51 579.312
L377.179 571.536
L377.849 574.128
L378.518 578.016
L379.188 579.312
L379.858 576.72
L380.527 579.312
L381.197 575.424
L381.866 579.312
L382.536 579.312
L383.206 576.72
L383.875 578.016
L384.545 578.016
L385.884 580.608
L386.554 583.2
L387.223 576.72
L387.893 574.128
L388.562 579.312
L389.232 581.904
L389.902 583.2
L390.571 581.904
L391.91 576.72
L392.58 581.904
L394.589 581.904
L395.258 579.312
L395.928 580.608
L396.598 579.312
L397.267 580.608
L397.937 578.016
L398.606 578.016
L399.276 579.312
L399.946 581.904
L401.285 579.312
L401.954 576.72
L402.624 576.72
L403.294 579.312
L404.633 581.904
L405.302 581.904
L405.972 579.312
L406.642 580.608
L407.311 576.72
L407.981 580.608
L408.65 580.608
L409.32 579.312
L409.99 580.608
L410.659 579.312
L411.329 574.128
L412.668 576.72
L413.338 580.608
L414.007 580.608
L414.677 581.904
L416.686 581.904
L417.355 580.608
L418.025 581.904
L418.694 581.904
L419.364 579.312
L420.034 581.904
L420.703 580.608
L421.373 580.608
L422.712 583.2
L423.382 581.904
L424.721 581.904
L425.39 580.608
L426.73 580.608
L427.399 581.904
L428.069 581.904
L429.408 579.312
L430.078 579.312
L430.747 578.016
L432.086 578.016
L432.756 576.72
L433.426 580.608
L434.095 578.016
L434.765 580.608
L436.104 580.608
L436.774 581.904
L437.443 579.312
L438.113 580.608
L438.782 578.016
L440.122 580.608
L440.791 580.608
L441.461 581.904
L442.13 576.72
L442.8 581.904
L443.47 583.2
L444.139 580.608
L444.809 581.904
L446.148 579.312
L446.818 580.608
L447.487 572.832
L448.157 572.832
L448.826 571.536
L449.496 563.76
L450.166 562.464
L452.174 527.472
L452.844 509.328
L453.514 517.104
L454.183 518.4
L454.853 526.176
L455.522 473.04
L456.192 491.184
L456.862 491.184
L457.531 467.856
L458.201 479.52
L458.87 474.336
L459.54 476.928
L460.21 488.592
L460.879 496.368
L461.549 471.744
L462.218 486
L462.888 489.888
L463.558 491.184
L464.897 465.264
L465.566 479.52
L466.236 469.152
L466.906 482.112
L467.575 479.52
L468.245 483.408
L468.914 470.448
L469.584 501.552
L470.254 448.416
L470.923 469.152
L471.593 475.632
L472.262 476.928
L472.932 487.296
L473.602 484.704
L474.271 463.968
L474.941 463.968
L475.61 478.224
L476.28 463.968
L476.95 478.224
L477.619 476.928
L478.289 467.856
L478.958 475.632
L479.628 476.928
L480.298 487.296
L480.967 478.224
L481.637 479.52
L482.306 463.968
L483.646 502.848
L484.315 505.44
L484.985 496.368
L485.654 492.48
L486.324 478.224
L486.994 466.56
L487.663 470.448
L488.333 466.56
L489.002 504.144
L489.672 470.448
L490.342 476.928
L491.011 467.856
L491.681 474.336
L493.69 470.448
L494.359 487.296
L495.029 484.704
L495.698 478.224
L497.038 470.448
L497.707 473.04
L498.377 500.256
L499.046 471.744
L499.716 470.448
L500.386 500.256
L501.055 482.112
L501.725 498.96
L502.394 488.592
L503.064 491.184
L503.734 489.888
L504.403 511.92
L505.073 476.928
L506.412 492.48
L507.082 496.368
L507.751 511.92
L508.421 515.808
L509.09 495.072
L509.76 493.776
L510.43 493.776
L511.099 479.52
L511.769 476.928
L512.438 501.552
L513.108 486
L513.778 451.008
L514.447 479.52
L515.117 496.368
L515.786 488.592
L516.456 493.776
L517.126 497.664
L517.795 478.224
L518.465 487.296
L519.134 504.144
L519.804 495.072
L520.474 492.48
L521.143 484.704
L521.813 486
L522.482 496.368
L523.152 476.928
L523.822 474.336
L524.491 487.296
L525.161 467.856
L525.83 479.52
L526.5 463.968
L527.17 488.592
L527.839 496.368
L529.178 483.408
L529.848 488.592
L530.518 504.144
L531.187 504.144
L531.857 509.328
L532.526 487.296
L533.196 491.184
L533.866 470.448
L534.535 489.888
L535.205 495.072
L535.874 505.44
L536.544 504.144
L537.214 488.592
L537.883 475.632
L538.553 486
L539.222 501.552
L539.892 493.776
L540.562 482.112
L541.231 492.48
L541.901 487.296
L542.57 488.592
L543.24 498.96
L543.91 497.664
L544.579 495.072
L545.249 480.816
L545.918 504.144
L546.588 486
L547.258 492.48
L547.927 493.776
L548.597 483.408
L549.266 509.328
L549.936 476.928
L550.606 500.256
L551.275 505.44
L551.945 493.776
L552.614 489.888
L553.284 492.48
L553.954 501.552
L554.623 505.44
L555.293 511.92
L555.962 504.144
L556.632 514.512
L557.302 502.848
L557.971 496.368
L558.641 483.408
L559.31 475.632
L559.98 497.664
L560.65 496.368
L561.319 496.368
L561.989 489.888
L562.658 502.848
L563.328 488.592
L563.998 510.624
L564.667 489.888
L565.337 463.968
L566.006 505.44
L566.676 488.592
L567.346 513.216
L568.015 505.44
L568.685 510.624
L569.354 518.4
L570.024 491.184
L570.694 491.184
L571.363 505.44
L572.033 502.848
L573.372 505.44
L574.042 498.96
L574.711 515.808
L575.381 491.184
L576.05 496.368
L576.72 491.184
L577.39 483.408
L578.059 510.624
L578.729 514.512
L579.398 478.224
L580.068 495.072
L580.738 504.144
L581.407 489.888
L582.077 486
L582.746 495.072
L583.416 493.776
L584.086 482.112
L584.755 524.88
L585.425 513.216
L586.094 498.96
L586.764 500.256
L587.434 504.144
L588.103 532.656
L588.773 497.664
L589.442 506.736
L590.112 533.952
L590.782 511.92
L591.451 497.664
L592.121 496.368
L592.79 479.52
L593.46 469.152
L594.13 509.328
L594.799 466.56
L595.469 498.96
L596.138 501.552
L596.808 505.44
L597.478 474.336
L598.147 486
L598.817 500.256
L599.486 505.44
L600.156 498.96
L600.826 493.776
L601.495 504.144
L602.165 497.664
L602.834 517.104
L603.504 500.256
L604.174 509.328
L604.843 480.816
L605.513 493.776
L606.852 506.736
L607.522 488.592
L608.191 497.664
L608.861 515.808
L610.2 484.704
L610.87 484.704
L611.539 510.624
L612.209 491.184
L612.878 483.408
L613.548 492.48
L614.218 495.072
L614.887 504.144
L615.557 504.144
L616.226 493.776
L616.896 509.328
L617.566 510.624
L618.235 502.848
L618.905 513.216
L619.574 484.704
L620.244 479.52
L620.914 528.768
L621.583 496.368
L622.253 502.848
L622.922 470.448
L623.592 504.144
L624.262 523.584
L625.601 487.296
L626.27 506.736
L626.94 514.512
L627.61 502.848
L628.279 518.4
L628.949 500.256
L629.618 498.96
L630.288 508.032
L630.958 520.992
L631.627 524.88
L632.297 502.848
L632.966 501.552
L633.636 502.848
L634.306 509.328
L634.975 506.736
L635.645 496.368
L636.314 505.44
L636.984 498.96
L637.654 513.216
L638.323 502.848
L638.993 522.288
L639.662 497.664
L640.332 486
L641.002 517.104
L641.671 508.032
L642.341 510.624
L643.01 502.848
L643.68 497.664
L644.35 513.216
L645.019 517.104
L645.689 519.696
L646.358 508.032
L647.028 510.624
L647.698 524.88
L648.367 504.144
L649.037 495.072
L649.706 498.96
L650.376 506.736
L651.046 500.256
L651.715 491.184
L652.385 488.592
L653.054 501.552
L653.724 498.96
L654.394 504.144
L655.063 519.696
L655.733 508.032
L656.402 498.96
L657.072 497.664
L657.742 479.52
L658.411 505.44
L659.081 517.104
L660.42 487.296
L661.09 510.624
L661.759 513.216
L662.429 488.592
L663.098 513.216
L663.768 505.44
L664.438 495.072
L665.107 527.472
L665.777 497.664
L666.446 522.288
L667.116 517.104
L667.786 500.256
L668.455 487.296
L669.125 497.664
L669.794 514.512
L670.464 510.624
L671.134 519.696
L671.803 526.176
L672.473 519.696
L673.142 496.368
L673.812 493.776
L674.482 487.296
L675.151 491.184
L675.821 482.112
L676.49 504.144
L677.16 519.696
L677.83 511.92
L678.499 517.104
L679.169 496.368
L679.838 508.032
L680.508 510.624
L681.178 500.256
L681.847 527.472
L682.517 511.92
L683.186 535.248
L683.856 493.776
L684.526 522.288
L685.195 515.808
L685.865 486
L687.204 508.032
L687.874 505.44
L688.543 511.92
L689.213 500.256
L689.882 518.4
L690.552 511.92
L691.222 518.4
L691.891 522.288
L692.561 501.552
L693.23 517.104
L693.9 523.584
L694.57 520.992
L695.239 502.848
L695.909 498.96
L696.578 498.96
L697.248 511.92
L697.918 504.144
L698.587 517.104
L699.257 501.552
L699.926 502.848
L700.596 511.92
L701.266 526.176
L701.935 517.104
L702.605 526.176
L703.274 498.96
L703.944 509.328
L704.614 502.848
L705.283 488.592
L705.953 517.104
L706.622 492.48
L707.962 524.88
L708.631 510.624
L709.301 531.36
L709.97 492.48
L710.64 504.144
L711.31 520.992
L711.979 511.92
L712.649 493.776
L713.318 510.624
L713.988 496.368
L714.658 508.032
L715.327 497.664
L715.997 501.552
L716.666 519.696
L717.336 524.88
L718.006 502.848
L718.675 495.072
L719.345 504.144
L720.014 508.032
L720.684 524.88
L722.693 497.664
L723.362 498.96
L724.032 522.288
L724.702 522.288
L725.371 505.44
L726.041 511.92
L727.38 491.184
L728.05 504.144
L728.719 514.512
L729.389 506.736
L730.058 515.808
L730.728 514.512
L731.398 502.848
L732.067 511.92
L732.737 523.584
L733.406 505.44
L734.076 517.104
L734.746 505.44
L735.415 523.584
L736.085 508.032
L736.754 495.072
L737.424 493.776
L738.094 509.328
L738.763 518.4
L739.433 505.44
L740.102 495.072
L740.772 528.768
L741.442 504.144
L742.111 510.624
L742.781 497.664
L743.45 509.328
L744.12 504.144
L744.79 505.44
L745.459 504.144
L746.129 523.584
L746.798 523.584
L747.468 532.656
L748.138 505.44
L748.807 496.368
L749.477 519.696
L750.146 510.624
L750.816 520.992
L751.486 522.288
L752.155 522.288
L752.825 509.328
L753.494 492.48
L754.164 519.696
L754.834 527.472
L755.503 513.216
L756.173 504.144
L756.842 513.216
L757.512 491.184
L758.182 515.808
L758.851 514.512
L759.521 496.368
L760.19 522.288
L760.86 510.624
L761.53 511.92
L762.199 523.584
L763.538 496.368
L764.208 518.4
L764.878 522.288
L765.547 502.848
L766.217 510.624
L767.556 467.856
L768.226 500.256
L768.895 517.104
L769.565 515.808
L770.234 495.072
L770.904 506.736
L771.574 502.848
L772.243 495.072
L772.913 515.808
L773.582 496.368
L774.252 505.44
L774.922 497.664
L776.261 543.024
L776.93 524.88
L777.6 514.512
L777.6 514.512" style="fill:none;stroke:#0000ff;stroke-linecap:square;"/>
   </g>
   <g id="patch_3">
    <path d="
M777.6 583.2
L777.6 64.8" style="fill:none;stroke:#000000;stroke-linecap:square;stroke-linejoin:miter;"/>
   </g>
   <g id="patch_4">
    <path d="
M108 583.2
L108 64.8" style="fill:none;stroke:#000000;stroke-linecap:square;stroke-linejoin:miter;"/>
   </g>
   <g id="patch_5">
    <path d="
M108 583.2
L777.6 583.2" style="fill:none;stroke:#000000;stroke-linecap:square;stroke-linejoin:miter;"/>
   </g>
   <g id="patch_6">
    <path d="
M108 64.8
L777.6 64.8" style="fill:none;stroke:#000000;stroke-linecap:square;stroke-linejoin:miter;"/>
   </g>
   <g id="matplotlib.axis_1">
    <g id="xtick_1">
     <g id="line2d_4">
      <defs>
       <path d="
M0 0
L0 -4" id="mc7db9fdffb" style="stroke:#000000;stroke-width:0.5;"/>
      </defs>
      <g>
       <use style="stroke:#000000;stroke-width:0.5;" x="108.0" xlink:href="#mc7db9fdffb" y="583.2"/>
      </g>
     </g>
     <g id="line2d_5">
      <defs>
       <path d="
M0 0
L0 4" id="m5a7d422ac3" style="stroke:#000000;stroke-width:0.5;"/>
      </defs>
      <g>
       <use style="stroke:#000000;stroke-width:0.5;" x="108.0" xlink:href="#m5a7d422ac3" y="64.8"/>
      </g>
     </g>
     <g id="text_1">
      <!-- 0 -->
      <defs>
       <path d="
M31.7812 66.4062
Q24.1719 66.4062 20.3281 58.9062
Q16.5 51.4219 16.5 36.375
Q16.5 21.3906 20.3281 13.8906
Q24.1719 6.39062 31.7812 6.39062
Q39.4531 6.39062 43.2812 13.8906
Q47.125 21.3906 47.125 36.375
Q47.125 51.4219 43.2812 58.9062
Q39.4531 66.4062 31.7812 66.4062
M31.7812 74.2188
Q44.0469 74.2188 50.5156 64.5156
Q56.9844 54.8281 56.9844 36.375
Q56.9844 17.9688 50.5156 8.26562
Q44.0469 -1.42188 31.7812 -1.42188
Q19.5312 -1.42188 13.0625 8.26562
Q6.59375 17.9688 6.59375 36.375
Q6.59375 54.8281 13.0625 64.5156
Q19.5312 74.2188 31.7812 74.2188" id="BitstreamVeraSans-Roman-30"/>
      </defs>
      <g transform="translate(104.9765625 596.318125)scale(0.12 -0.12)">
       <use xlink:href="#BitstreamVeraSans-Roman-30"/>
      </g>
     </g>
    </g>
    <g id="xtick_2">
     <g id="line2d_6">
      <g>
       <use style="stroke:#000000;stroke-width:0.5;" x="275.4" xlink:href="#mc7db9fdffb" y="583.2"/>
      </g>
     </g>
     <g id="line2d_7">
      <g>
       <use style="stroke:#000000;stroke-width:0.5;" x="275.4" xlink:href="#m5a7d422ac3" y="64.8"/>
      </g>
     </g>
     <g id="text_2">
      <!-- 50000 -->
      <defs>
       <path d="
M10.7969 72.9062
L49.5156 72.9062
L49.5156 64.5938
L19.8281 64.5938
L19.8281 46.7344
Q21.9688 47.4688 24.1094 47.8281
Q26.2656 48.1875 28.4219 48.1875
Q40.625 48.1875 47.75 41.5
Q54.8906 34.8125 54.8906 23.3906
Q54.8906 11.625 47.5625 5.09375
Q40.2344 -1.42188 26.9062 -1.42188
Q22.3125 -1.42188 17.5469 -0.640625
Q12.7969 0.140625 7.71875 1.70312
L7.71875 11.625
Q12.1094 9.23438 16.7969 8.0625
Q21.4844 6.89062 26.7031 6.89062
Q35.1562 6.89062 40.0781 11.3281
Q45.0156 15.7656 45.0156 23.3906
Q45.0156 31 40.0781 35.4375
Q35.1562 39.8906 26.7031 39.8906
Q22.75 39.8906 18.8125 39.0156
Q14.8906 38.1406 10.7969 36.2812
z
" id="BitstreamVeraSans-Roman-35"/>
      </defs>
      <g transform="translate(257.1740625 596.318125)scale(0.12 -0.12)">
       <use xlink:href="#BitstreamVeraSans-Roman-35"/>
       <use x="63.623046875" xlink:href="#BitstreamVeraSans-Roman-30"/>
       <use x="127.24609375" xlink:href="#BitstreamVeraSans-Roman-30"/>
       <use x="190.869140625" xlink:href="#BitstreamVeraSans-Roman-30"/>
       <use x="254.4921875" xlink:href="#BitstreamVeraSans-Roman-30"/>
      </g>
     </g>
    </g>
    <g id="xtick_3">
     <g id="line2d_8">
      <g>
       <use style="stroke:#000000;stroke-width:0.5;" x="442.8" xlink:href="#mc7db9fdffb" y="583.2"/>
      </g>
     </g>
     <g id="line2d_9">
      <g>
       <use style="stroke:#000000;stroke-width:0.5;" x="442.8" xlink:href="#m5a7d422ac3" y="64.8"/>
      </g>
     </g>
     <g id="text_3">
      <!-- 100000 -->
      <defs>
       <path d="
M12.4062 8.29688
L28.5156 8.29688
L28.5156 63.9219
L10.9844 60.4062
L10.9844 69.3906
L28.4219 72.9062
L38.2812 72.9062
L38.2812 8.29688
L54.3906 8.29688
L54.3906 0
L12.4062 0
z
" id="BitstreamVeraSans-Roman-31"/>
      </defs>
      <g transform="translate(420.9525 596.318125)scale(0.12 -0.12)">
       <use xlink:href="#BitstreamVeraSans-Roman-31"/>
       <use x="63.623046875" xlink:href="#BitstreamVeraSans-Roman-30"/>
       <use x="127.24609375" xlink:href="#BitstreamVeraSans-Roman-30"/>
       <use x="190.869140625" xlink:href="#BitstreamVeraSans-Roman-30"/>
       <use x="254.4921875" xlink:href="#BitstreamVeraSans-Roman-30"/>
       <use x="318.115234375" xlink:href="#BitstreamVeraSans-Roman-30"/>
      </g>
     </g>
    </g>
    <g id="xtick_4">
     <g id="line2d_10">
      <g>
       <use style="stroke:#000000;stroke-width:0.5;" x="610.2" xlink:href="#mc7db9fdffb" y="583.2"/>
      </g>
     </g>
     <g id="line2d_11">
      <g>
       <use style="stroke:#000000;stroke-width:0.5;" x="610.2" xlink:href="#m5a7d422ac3" y="64.8"/>
      </g>
     </g>
     <g id="text_4">
      <!-- 150000 -->
      <g transform="translate(588.3525 596.318125)scale(0.12 -0.12)">
       <use xlink:href="#BitstreamVeraSans-Roman-31"/>
       <use x="63.623046875" xlink:href="#BitstreamVeraSans-Roman-35"/>
       <use x="127.24609375" xlink:href="#BitstreamVeraSans-Roman-30"/>
       <use x="190.869140625" xlink:href="#BitstreamVeraSans-Roman-30"/>
       <use x="254.4921875" xlink:href="#BitstreamVeraSans-Roman-30"/>
       <use x="318.115234375" xlink:href="#BitstreamVeraSans-Roman-30"/>
      </g>
     </g>
    </g>
    <g id="xtick_5">
     <g id="line2d_12">
      <g>
       <use style="stroke:#000000;stroke-width:0.5;" x="777.6" xlink:href="#mc7db9fdffb" y="583.2"/>
      </g>
     </g>
     <g id="line2d_13">
      <g>
       <use style="stroke:#000000;stroke-width:0.5;" x="777.6" xlink:href="#m5a7d422ac3" y="64.8"/>
      </g>
     </g>
     <g id="text_5">
      <!-- 200000 -->
      <defs>
       <path d="
M19.1875 8.29688
L53.6094 8.29688
L53.6094 0
L7.32812 0
L7.32812 8.29688
Q12.9375 14.1094 22.625 23.8906
Q32.3281 33.6875 34.8125 36.5312
Q39.5469 41.8438 41.4219 45.5312
Q43.3125 49.2188 43.3125 52.7812
Q43.3125 58.5938 39.2344 62.25
Q35.1562 65.9219 28.6094 65.9219
Q23.9688 65.9219 18.8125 64.3125
Q13.6719 62.7031 7.8125 59.4219
L7.8125 69.3906
Q13.7656 71.7812 18.9375 73
Q24.125 74.2188 28.4219 74.2188
Q39.75 74.2188 46.4844 68.5469
Q53.2188 62.8906 53.2188 53.4219
Q53.2188 48.9219 51.5312 44.8906
Q49.8594 40.875 45.4062 35.4062
Q44.1875 33.9844 37.6406 27.2188
Q31.1094 20.4531 19.1875 8.29688" id="BitstreamVeraSans-Roman-32"/>
      </defs>
      <g transform="translate(755.533125 596.318125)scale(0.12 -0.12)">
       <use xlink:href="#BitstreamVeraSans-Roman-32"/>
       <use x="63.623046875" xlink:href="#BitstreamVeraSans-Roman-30"/>
       <use x="127.24609375" xlink:href="#BitstreamVeraSans-Roman-30"/>
       <use x="190.869140625" xlink:href="#BitstreamVeraSans-Roman-30"/>
       <use x="254.4921875" xlink:href="#BitstreamVeraSans-Roman-30"/>
       <use x="318.115234375" xlink:href="#BitstreamVeraSans-Roman-30"/>
      </g>
     </g>
    </g>
    <g id="text_6">
     <!-- t / ms -->
     <defs>
      <path d="
M44.2812 53.0781
L44.2812 44.5781
Q40.4844 46.5312 36.375 47.5
Q32.2812 48.4844 27.875 48.4844
Q21.1875 48.4844 17.8438 46.4375
Q14.5 44.3906 14.5 40.2812
Q14.5 37.1562 16.8906 35.375
Q19.2812 33.5938 26.5156 31.9844
L29.5938 31.2969
Q39.1562 29.25 43.1875 25.5156
Q47.2188 21.7812 47.2188 15.0938
Q47.2188 7.46875 41.1875 3.01562
Q35.1562 -1.42188 24.6094 -1.42188
Q20.2188 -1.42188 15.4531 -0.5625
Q10.6875 0.296875 5.42188 2
L5.42188 11.2812
Q10.4062 8.6875 15.2344 7.39062
Q20.0625 6.10938 24.8125 6.10938
Q31.1562 6.10938 34.5625 8.28125
Q37.9844 10.4531 37.9844 14.4062
Q37.9844 18.0625 35.5156 20.0156
Q33.0625 21.9688 24.7031 23.7812
L21.5781 24.5156
Q13.2344 26.2656 9.51562 29.9062
Q5.8125 33.5469 5.8125 39.8906
Q5.8125 47.6094 11.2812 51.7969
Q16.75 56 26.8125 56
Q31.7812 56 36.1719 55.2656
Q40.5781 54.5469 44.2812 53.0781" id="BitstreamVeraSans-Roman-73"/>
      <path d="
M18.3125 70.2188
L18.3125 54.6875
L36.8125 54.6875
L36.8125 47.7031
L18.3125 47.7031
L18.3125 18.0156
Q18.3125 11.3281 20.1406 9.42188
Q21.9688 7.51562 27.5938 7.51562
L36.8125 7.51562
L36.8125 0
L27.5938 0
Q17.1875 0 13.2344 3.875
Q9.28125 7.76562 9.28125 18.0156
L9.28125 47.7031
L2.6875 47.7031
L2.6875 54.6875
L9.28125 54.6875
L9.28125 70.2188
z
" id="BitstreamVeraSans-Roman-74"/>
      <path id="BitstreamVeraSans-Roman-20"/>
      <path d="
M25.3906 72.9062
L33.6875 72.9062
L8.29688 -9.28125
L0 -9.28125
z
" id="BitstreamVeraSans-Roman-2f"/>
      <path d="
M52 44.1875
Q55.375 50.25 60.0625 53.125
Q64.75 56 71.0938 56
Q79.6406 56 84.2812 50.0156
Q88.9219 44.0469 88.9219 33.0156
L88.9219 0
L79.8906 0
L79.8906 32.7188
Q79.8906 40.5781 77.0938 44.375
Q74.3125 48.1875 68.6094 48.1875
Q61.625 48.1875 57.5625 43.5469
Q53.5156 38.9219 53.5156 30.9062
L53.5156 0
L44.4844 0
L44.4844 32.7188
Q44.4844 40.625 41.7031 44.4062
Q38.9219 48.1875 33.1094 48.1875
Q26.2188 48.1875 22.1562 43.5312
Q18.1094 38.875 18.1094 30.9062
L18.1094 0
L9.07812 0
L9.07812 54.6875
L18.1094 54.6875
L18.1094 46.1875
Q21.1875 51.2188 25.4844 53.6094
Q29.7812 56 35.6875 56
Q41.6562 56 45.8281 52.9688
Q50 49.9531 52 44.1875" id="BitstreamVeraSans-Roman-6d"/>
     </defs>
     <g transform="translate(425.9353125 612.931875)scale(0.12 -0.12)">
      <use xlink:href="#BitstreamVeraSans-Roman-74"/>
      <use x="39.208984375" xlink:href="#BitstreamVeraSans-Roman-20"/>
      <use x="70.99609375" xlink:href="#BitstreamVeraSans-Roman-2f"/>
      <use x="104.6875" xlink:href="#BitstreamVeraSans-Roman-20"/>
      <use x="136.474609375" xlink:href="#BitstreamVeraSans-Roman-6d"/>
      <use x="233.88671875" xlink:href="#BitstreamVeraSans-Roman-73"/>
     </g>
    </g>
   </g>
   <g id="matplotlib.axis_2">
    <g id="ytick_1">
     <g id="line2d_14">
      <defs>
       <path d="
M0 0
L4 0" id="md7965d1ba0" style="stroke:#000000;stroke-width:0.5;"/>
      </defs>
      <g>
       <use style="stroke:#000000;stroke-width:0.5;" x="108.0" xlink:href="#md7965d1ba0" y="583.2"/>
      </g>
     </g>
     <g id="line2d_15">
      <defs>
       <path d="
M0 0
L-4 0" id="md9a1c1a7cd" style="stroke:#000000;stroke-width:0.5;"/>
      </defs>
      <g>
       <use style="stroke:#000000;stroke-width:0.5;" x="777.6" xlink:href="#md9a1c1a7cd" y="583.2"/>
      </g>
     </g>
     <g id="text_7">
      <!-- 0 -->
      <g transform="translate(97.953125 586.51125)scale(0.12 -0.12)">
       <use xlink:href="#BitstreamVeraSans-Roman-30"/>
      </g>
     </g>
    </g>
    <g id="ytick_2">
     <g id="line2d_16">
      <g>
       <use style="stroke:#000000;stroke-width:0.5;" x="108.0" xlink:href="#md7965d1ba0" y="518.4"/>
      </g>
     </g>
     <g id="line2d_17">
      <g>
       <use style="stroke:#000000;stroke-width:0.5;" x="777.6" xlink:href="#md9a1c1a7cd" y="518.4"/>
      </g>
     </g>
     <g id="text_8">
      <!-- 50 -->
      <g transform="translate(90.453125 521.71125)scale(0.12 -0.12)">
       <use xlink:href="#BitstreamVeraSans-Roman-35"/>
       <use x="63.623046875" xlink:href="#BitstreamVeraSans-Roman-30"/>
      </g>
     </g>
    </g>
    <g id="ytick_3">
     <g id="line2d_18">
      <g>
       <use style="stroke:#000000;stroke-width:0.5;" x="108.0" xlink:href="#md7965d1ba0" y="453.6"/>
      </g>
     </g>
     <g id="line2d_19">
      <g>
       <use style="stroke:#000000;stroke-width:0.5;" x="777.6" xlink:href="#md9a1c1a7cd" y="453.6"/>
      </g>
     </g>
     <g id="text_9">
      <!-- 100 -->
      <g transform="translate(83.21 456.91125)scale(0.12 -0.12)">
       <use xlink:href="#BitstreamVeraSans-Roman-31"/>
       <use x="63.623046875" xlink:href="#BitstreamVeraSans-Roman-30"/>
       <use x="127.24609375" xlink:href="#BitstreamVeraSans-Roman-30"/>
      </g>
     </g>
    </g>
    <g id="ytick_4">
     <g id="line2d_20">
      <g>
       <use style="stroke:#000000;stroke-width:0.5;" x="108.0" xlink:href="#md7965d1ba0" y="388.8"/>
      </g>
     </g>
     <g id="line2d_21">
      <g>
       <use style="stroke:#000000;stroke-width:0.5;" x="777.6" xlink:href="#md9a1c1a7cd" y="388.8"/>
      </g>
     </g>
     <g id="text_10">
      <!-- 150 -->
      <g transform="translate(83.21 392.11125)scale(0.12 -0.12)">
       <use xlink:href="#BitstreamVeraSans-Roman-31"/>
       <use x="63.623046875" xlink:href="#BitstreamVeraSans-Roman-35"/>
       <use x="127.24609375" xlink:href="#BitstreamVeraSans-Roman-30"/>
      </g>
     </g>
    </g>
    <g id="ytick_5">
     <g id="line2d_22">
      <g>
       <use style="stroke:#000000;stroke-width:0.5;" x="108.0" xlink:href="#md7965d1ba0" y="324.0"/>
      </g>
     </g>
     <g id="line2d_23">
      <g>
       <use style="stroke:#000000;stroke-width:0.5;" x="777.6" xlink:href="#md9a1c1a7cd" y="324.0"/>
      </g>
     </g>
     <g id="text_11">
      <!-- 200 -->
      <g transform="translate(82.77125 327.31125)scale(0.12 -0.12)">
       <use xlink:href="#BitstreamVeraSans-Roman-32"/>
       <use x="63.623046875" xlink:href="#BitstreamVeraSans-Roman-30"/>
       <use x="127.24609375" xlink:href="#BitstreamVeraSans-Roman-30"/>
      </g>
     </g>
    </g>
    <g id="ytick_6">
     <g id="line2d_24">
      <g>
       <use style="stroke:#000000;stroke-width:0.5;" x="108.0" xlink:href="#md7965d1ba0" y="259.2"/>
      </g>
     </g>
     <g id="line2d_25">
      <g>
       <use style="stroke:#000000;stroke-width:0.5;" x="777.6" xlink:href="#md9a1c1a7cd" y="259.2"/>
      </g>
     </g>
     <g id="text_12">
      <!-- 250 -->
      <g transform="translate(82.77125 262.51125)scale(0.12 -0.12)">
       <use xlink:href="#BitstreamVeraSans-Roman-32"/>
       <use x="63.623046875" xlink:href="#BitstreamVeraSans-Roman-35"/>
       <use x="127.24609375" xlink:href="#BitstreamVeraSans-Roman-30"/>
      </g>
     </g>
    </g>
    <g id="ytick_7">
     <g id="line2d_26">
      <g>
       <use style="stroke:#000000;stroke-width:0.5;" x="108.0" xlink:href="#md7965d1ba0" y="194.4"/>
      </g>
     </g>
     <g id="line2d_27">
      <g>
       <use style="stroke:#000000;stroke-width:0.5;" x="777.6" xlink:href="#md9a1c1a7cd" y="194.4"/>
      </g>
     </g>
     <g id="text_13">
      <!-- 300 -->
      <defs>
       <path d="
M40.5781 39.3125
Q47.6562 37.7969 51.625 33
Q55.6094 28.2188 55.6094 21.1875
Q55.6094 10.4062 48.1875 4.48438
Q40.7656 -1.42188 27.0938 -1.42188
Q22.5156 -1.42188 17.6562 -0.515625
Q12.7969 0.390625 7.625 2.20312
L7.625 11.7188
Q11.7188 9.32812 16.5938 8.10938
Q21.4844 6.89062 26.8125 6.89062
Q36.0781 6.89062 40.9375 10.5469
Q45.7969 14.2031 45.7969 21.1875
Q45.7969 27.6406 41.2812 31.2656
Q36.7656 34.9062 28.7188 34.9062
L20.2188 34.9062
L20.2188 43.0156
L29.1094 43.0156
Q36.375 43.0156 40.2344 45.9219
Q44.0938 48.8281 44.0938 54.2969
Q44.0938 59.9062 40.1094 62.9062
Q36.1406 65.9219 28.7188 65.9219
Q24.6562 65.9219 20.0156 65.0312
Q15.375 64.1562 9.8125 62.3125
L9.8125 71.0938
Q15.4375 72.6562 20.3438 73.4375
Q25.25 74.2188 29.5938 74.2188
Q40.8281 74.2188 47.3594 69.1094
Q53.9062 64.0156 53.9062 55.3281
Q53.9062 49.2656 50.4375 45.0938
Q46.9688 40.9219 40.5781 39.3125" id="BitstreamVeraSans-Roman-33"/>
      </defs>
      <g transform="translate(82.806875 197.71125)scale(0.12 -0.12)">
       <use xlink:href="#BitstreamVeraSans-Roman-33"/>
       <use x="63.623046875" xlink:href="#BitstreamVeraSans-Roman-30"/>
       <use x="127.24609375" xlink:href="#BitstreamVeraSans-Roman-30"/>
      </g>
     </g>
    </g>
    <g id="ytick_8">
     <g id="line2d_28">
      <g>
       <use style="stroke:#000000;stroke-width:0.5;" x="108.0" xlink:href="#md7965d1ba0" y="129.6"/>
      </g>
     </g>
     <g id="line2d_29">
      <g>
       <use style="stroke:#000000;stroke-width:0.5;" x="777.6" xlink:href="#md9a1c1a7cd" y="129.6"/>
      </g>
     </g>
     <g id="text_14">
      <!-- 350 -->
      <g transform="translate(82.806875 132.91125)scale(0.12 -0.12)">
       <use xlink:href="#BitstreamVeraSans-Roman-33"/>
       <use x="63.623046875" xlink:href="#BitstreamVeraSans-Roman-35"/>
       <use x="127.24609375" xlink:href="#BitstreamVeraSans-Roman-30"/>
      </g>
     </g>
    </g>
    <g id="ytick_9">
     <g id="line2d_30">
      <g>
       <use style="stroke:#000000;stroke-width:0.5;" x="108.0" xlink:href="#md7965d1ba0" y="64.8"/>
      </g>
     </g>
     <g id="line2d_31">
      <g>
       <use style="stroke:#000000;stroke-width:0.5;" x="777.6" xlink:href="#md9a1c1a7cd" y="64.8"/>
      </g>
     </g>
     <g id="text_15">
      <!-- 400 -->
      <defs>
       <path d="
M37.7969 64.3125
L12.8906 25.3906
L37.7969 25.3906
z

M35.2031 72.9062
L47.6094 72.9062
L47.6094 25.3906
L58.0156 25.3906
L58.0156 17.1875
L47.6094 17.1875
L47.6094 0
L37.7969 0
L37.7969 17.1875
L4.89062 17.1875
L4.89062 26.7031
z
" id="BitstreamVeraSans-Roman-34"/>
      </defs>
      <g transform="translate(82.47875 68.11125)scale(0.12 -0.12)">
       <use xlink:href="#BitstreamVeraSans-Roman-34"/>
       <use x="63.623046875" xlink:href="#BitstreamVeraSans-Roman-30"/>
       <use x="127.24609375" xlink:href="#BitstreamVeraSans-Roman-30"/>
      </g>
     </g>
    </g>
    <g id="text_16">
     <!-- particle numbers -->
     <defs>
      <path d="
M8.5 21.5781
L8.5 54.6875
L17.4844 54.6875
L17.4844 21.9219
Q17.4844 14.1562 20.5 10.2656
Q23.5312 6.39062 29.5938 6.39062
Q36.8594 6.39062 41.0781 11.0312
Q45.3125 15.6719 45.3125 23.6875
L45.3125 54.6875
L54.2969 54.6875
L54.2969 0
L45.3125 0
L45.3125 8.40625
Q42.0469 3.42188 37.7188 1
Q33.4062 -1.42188 27.6875 -1.42188
Q18.2656 -1.42188 13.375 4.4375
Q8.5 10.2969 8.5 21.5781" id="BitstreamVeraSans-Roman-75"/>
      <path d="
M9.42188 75.9844
L18.4062 75.9844
L18.4062 0
L9.42188 0
z
" id="BitstreamVeraSans-Roman-6c"/>
      <path d="
M9.42188 54.6875
L18.4062 54.6875
L18.4062 0
L9.42188 0
z

M9.42188 75.9844
L18.4062 75.9844
L18.4062 64.5938
L9.42188 64.5938
z
" id="BitstreamVeraSans-Roman-69"/>
      <path d="
M41.1094 46.2969
Q39.5938 47.1719 37.8125 47.5781
Q36.0312 48 33.8906 48
Q26.2656 48 22.1875 43.0469
Q18.1094 38.0938 18.1094 28.8125
L18.1094 0
L9.07812 0
L9.07812 54.6875
L18.1094 54.6875
L18.1094 46.1875
Q20.9531 51.1719 25.4844 53.5781
Q30.0312 56 36.5312 56
Q37.4531 56 38.5781 55.875
Q39.7031 55.7656 41.0625 55.5156
z
" id="BitstreamVeraSans-Roman-72"/>
      <path d="
M34.2812 27.4844
Q23.3906 27.4844 19.1875 25
Q14.9844 22.5156 14.9844 16.5
Q14.9844 11.7188 18.1406 8.90625
Q21.2969 6.10938 26.7031 6.10938
Q34.1875 6.10938 38.7031 11.4062
Q43.2188 16.7031 43.2188 25.4844
L43.2188 27.4844
z

M52.2031 31.2031
L52.2031 0
L43.2188 0
L43.2188 8.29688
Q40.1406 3.32812 35.5469 0.953125
Q30.9531 -1.42188 24.3125 -1.42188
Q15.9219 -1.42188 10.9531 3.29688
Q6 8.01562 6 15.9219
Q6 25.1406 12.1719 29.8281
Q18.3594 34.5156 30.6094 34.5156
L43.2188 34.5156
L43.2188 35.4062
Q43.2188 41.6094 39.1406 45
Q35.0625 48.3906 27.6875 48.3906
Q23 48.3906 18.5469 47.2656
Q14.1094 46.1406 10.0156 43.8906
L10.0156 52.2031
Q14.9375 54.1094 19.5781 55.0469
Q24.2188 56 28.6094 56
Q40.4844 56 46.3438 49.8438
Q52.2031 43.7031 52.2031 31.2031" id="BitstreamVeraSans-Roman-61"/>
      <path d="
M48.6875 27.2969
Q48.6875 37.2031 44.6094 42.8438
Q40.5312 48.4844 33.4062 48.4844
Q26.2656 48.4844 22.1875 42.8438
Q18.1094 37.2031 18.1094 27.2969
Q18.1094 17.3906 22.1875 11.75
Q26.2656 6.10938 33.4062 6.10938
Q40.5312 6.10938 44.6094 11.75
Q48.6875 17.3906 48.6875 27.2969
M18.1094 46.3906
Q20.9531 51.2656 25.2656 53.625
Q29.5938 56 35.5938 56
Q45.5625 56 51.7812 48.0938
Q58.0156 40.1875 58.0156 27.2969
Q58.0156 14.4062 51.7812 6.48438
Q45.5625 -1.42188 35.5938 -1.42188
Q29.5938 -1.42188 25.2656 0.953125
Q20.9531 3.32812 18.1094 8.20312
L18.1094 0
L9.07812 0
L9.07812 75.9844
L18.1094 75.9844
z
" id="BitstreamVeraSans-Roman-62"/>
      <path d="
M18.1094 8.20312
L18.1094 -20.7969
L9.07812 -20.7969
L9.07812 54.6875
L18.1094 54.6875
L18.1094 46.3906
Q20.9531 51.2656 25.2656 53.625
Q29.5938 56 35.5938 56
Q45.5625 56 51.7812 48.0938
Q58.0156 40.1875 58.0156 27.2969
Q58.0156 14.4062 51.7812 6.48438
Q45.5625 -1.42188 35.5938 -1.42188
Q29.5938 -1.42188 25.2656 0.953125
Q20.9531 3.32812 18.1094 8.20312
M48.6875 27.2969
Q48.6875 37.2031 44.6094 42.8438
Q40.5312 48.4844 33.4062 48.4844
Q26.2656 48.4844 22.1875 42.8438
Q18.1094 37.2031 18.1094 27.2969
Q18.1094 17.3906 22.1875 11.75
Q26.2656 6.10938 33.4062 6.10938
Q40.5312 6.10938 44.6094 11.75
Q48.6875 17.3906 48.6875 27.2969" id="BitstreamVeraSans-Roman-70"/>
      <path d="
M48.7812 52.5938
L48.7812 44.1875
Q44.9688 46.2969 41.1406 47.3438
Q37.3125 48.3906 33.4062 48.3906
Q24.6562 48.3906 19.8125 42.8438
Q14.9844 37.3125 14.9844 27.2969
Q14.9844 17.2812 19.8125 11.7344
Q24.6562 6.20312 33.4062 6.20312
Q37.3125 6.20312 41.1406 7.25
Q44.9688 8.29688 48.7812 10.4062
L48.7812 2.09375
Q45.0156 0.34375 40.9844 -0.53125
Q36.9688 -1.42188 32.4219 -1.42188
Q20.0625 -1.42188 12.7812 6.34375
Q5.51562 14.1094 5.51562 27.2969
Q5.51562 40.6719 12.8594 48.3281
Q20.2188 56 33.0156 56
Q37.1562 56 41.1094 55.1406
Q45.0625 54.2969 48.7812 52.5938" id="BitstreamVeraSans-Roman-63"/>
      <path d="
M56.2031 29.5938
L56.2031 25.2031
L14.8906 25.2031
Q15.4844 15.9219 20.4844 11.0625
Q25.4844 6.20312 34.4219 6.20312
Q39.5938 6.20312 44.4531 7.46875
Q49.3125 8.73438 54.1094 11.2812
L54.1094 2.78125
Q49.2656 0.734375 44.1875 -0.34375
Q39.1094 -1.42188 33.8906 -1.42188
Q20.7969 -1.42188 13.1562 6.1875
Q5.51562 13.8125 5.51562 26.8125
Q5.51562 40.2344 12.7656 48.1094
Q20.0156 56 32.3281 56
Q43.3594 56 49.7812 48.8906
Q56.2031 41.7969 56.2031 29.5938
M47.2188 32.2344
Q47.125 39.5938 43.0938 43.9844
Q39.0625 48.3906 32.4219 48.3906
Q24.9062 48.3906 20.3906 44.1406
Q15.875 39.8906 15.1875 32.1719
z
" id="BitstreamVeraSans-Roman-65"/>
      <path d="
M54.8906 33.0156
L54.8906 0
L45.9062 0
L45.9062 32.7188
Q45.9062 40.4844 42.875 44.3281
Q39.8438 48.1875 33.7969 48.1875
Q26.5156 48.1875 22.3125 43.5469
Q18.1094 38.9219 18.1094 30.9062
L18.1094 0
L9.07812 0
L9.07812 54.6875
L18.1094 54.6875
L18.1094 46.1875
Q21.3438 51.125 25.7031 53.5625
Q30.0781 56 35.7969 56
Q45.2188 56 50.0469 50.1719
Q54.8906 44.3438 54.8906 33.0156" id="BitstreamVeraSans-Roman-6e"/>
     </defs>
     <g transform="translate(74.983125 374.78625)rotate(-90.0)scale(0.12 -0.12)">
      <use xlink:href="#BitstreamVeraSans-Roman-70"/>
      <use x="63.4765625" xlink:href="#BitstreamVeraSans-Roman-61"/>
      <use x="124.755859375" xlink:href="#BitstreamVeraSans-Roman-72"/>
      <use x="165.869140625" xlink:href="#BitstreamVeraSans-Roman-74"/>
      <use x="205.078125" xlink:href="#BitstreamVeraSans-Roman-69"/>
      <use x="232.861328125" xlink:href="#BitstreamVeraSans-Roman-63"/>
      <use x="287.841796875" xlink:href="#BitstreamVeraSans-Roman-6c"/>
      <use x="315.625" xlink:href="#BitstreamVeraSans-Roman-65"/>
      <use x="377.1484375" xlink:href="#BitstreamVeraSans-Roman-20"/>
      <use x="408.935546875" xlink:href="#BitstreamVeraSans-Roman-6e"/>
      <use x="472.314453125" xlink:href="#BitstreamVeraSans-Roman-75"/>
      <use x="535.693359375" xlink:href="#BitstreamVeraSans-Roman-6d"/>
      <use x="633.10546875" xlink:href="#BitstreamVeraSans-Roman-62"/>
      <use x="696.58203125" xlink:href="#BitstreamVeraSans-Roman-65"/>
      <use x="758.10546875" xlink:href="#BitstreamVeraSans-Roman-72"/>
      <use x="799.21875" xlink:href="#BitstreamVeraSans-Roman-73"/>
     </g>
    </g>
   </g>
   <g id="legend_1">
    <g id="patch_7">
     <path d="
M717.006 101.224
L774.1 101.224
L774.1 68.3
L717.006 68.3
z
" style="fill:#ffffff;stroke:#000000;stroke-linejoin:miter;"/>
    </g>
    <g id="line2d_32">
     <path d="
M721.906 73.9689
L731.706 73.9689" style="fill:none;stroke:#ff0000;stroke-linecap:square;"/>
    </g>
    <g id="line2d_33"/>
    <g id="text_17">
     <!-- PKAc el.0 -->
     <defs>
      <path d="
M34.1875 63.1875
L20.7969 26.9062
L47.6094 26.9062
z

M28.6094 72.9062
L39.7969 72.9062
L67.5781 0
L57.3281 0
L50.6875 18.7031
L17.8281 18.7031
L11.1875 0
L0.78125 0
z
" id="BitstreamVeraSans-Roman-41"/>
      <path d="
M9.8125 72.9062
L19.6719 72.9062
L19.6719 42.0938
L52.3906 72.9062
L65.0938 72.9062
L28.9062 38.9219
L67.6719 0
L54.6875 0
L19.6719 35.1094
L19.6719 0
L9.8125 0
z
" id="BitstreamVeraSans-Roman-4b"/>
      <path d="
M19.6719 64.7969
L19.6719 37.4062
L32.0781 37.4062
Q38.9688 37.4062 42.7188 40.9688
Q46.4844 44.5312 46.4844 51.125
Q46.4844 57.6719 42.7188 61.2344
Q38.9688 64.7969 32.0781 64.7969
z

M9.8125 72.9062
L32.0781 72.9062
Q44.3438 72.9062 50.6094 67.3594
Q56.8906 61.8125 56.8906 51.125
Q56.8906 40.3281 50.6094 34.8125
Q44.3438 29.2969 32.0781 29.2969
L19.6719 29.2969
L19.6719 0
L9.8125 0
z
" id="BitstreamVeraSans-Roman-50"/>
      <path d="
M10.6875 12.4062
L21 12.4062
L21 0
L10.6875 0
z
" id="BitstreamVeraSans-Roman-2e"/>
     </defs>
     <g transform="translate(739.40625 76.41890625)scale(0.07 -0.07)">
      <use xlink:href="#BitstreamVeraSans-Roman-50"/>
      <use x="60.302734375" xlink:href="#BitstreamVeraSans-Roman-4b"/>
      <use x="124.12890625" xlink:href="#BitstreamVeraSans-Roman-41"/>
      <use x="190.787109375" xlink:href="#BitstreamVeraSans-Roman-63"/>
      <use x="245.767578125" xlink:href="#BitstreamVeraSans-Roman-20"/>
      <use x="277.5546875" xlink:href="#BitstreamVeraSans-Roman-65"/>
      <use x="339.078125" xlink:href="#BitstreamVeraSans-Roman-6c"/>
      <use x="366.861328125" xlink:href="#BitstreamVeraSans-Roman-2e"/>
      <use x="398.6484375" xlink:href="#BitstreamVeraSans-Roman-30"/>
     </g>
    </g>
    <g id="line2d_34">
     <path d="
M721.906 84.2436
L731.706 84.2436" style="fill:none;stroke:#008000;stroke-linecap:square;"/>
    </g>
    <g id="line2d_35"/>
    <g id="text_18">
     <!-- PKAc el.1 -->
     <g transform="translate(739.40625 86.69359375)scale(0.07 -0.07)">
      <use xlink:href="#BitstreamVeraSans-Roman-50"/>
      <use x="60.302734375" xlink:href="#BitstreamVeraSans-Roman-4b"/>
      <use x="124.12890625" xlink:href="#BitstreamVeraSans-Roman-41"/>
      <use x="190.787109375" xlink:href="#BitstreamVeraSans-Roman-63"/>
      <use x="245.767578125" xlink:href="#BitstreamVeraSans-Roman-20"/>
      <use x="277.5546875" xlink:href="#BitstreamVeraSans-Roman-65"/>
      <use x="339.078125" xlink:href="#BitstreamVeraSans-Roman-6c"/>
      <use x="366.861328125" xlink:href="#BitstreamVeraSans-Roman-2e"/>
      <use x="398.6484375" xlink:href="#BitstreamVeraSans-Roman-31"/>
     </g>
    </g>
    <g id="line2d_36">
     <path d="
M721.906 94.5183
L731.706 94.5183" style="fill:none;stroke:#0000ff;stroke-linecap:square;"/>
    </g>
    <g id="line2d_37"/>
    <g id="text_19">
     <!-- PKAc el.2 -->
     <g transform="translate(739.40625 96.96828125)scale(0.07 -0.07)">
      <use xlink:href="#BitstreamVeraSans-Roman-50"/>
      <use x="60.302734375" xlink:href="#BitstreamVeraSans-Roman-4b"/>
      <use x="124.12890625" xlink:href="#BitstreamVeraSans-Roman-41"/>
      <use x="190.787109375" xlink:href="#BitstreamVeraSans-Roman-63"/>
      <use x="245.767578125" xlink:href="#BitstreamVeraSans-Roman-20"/>
      <use x="277.5546875" xlink:href="#BitstreamVeraSans-Roman-65"/>
      <use x="339.078125" xlink:href="#BitstreamVeraSans-Roman-6c"/>
      <use x="366.861328125" xlink:href="#BitstreamVeraSans-Roman-2e"/>
      <use x="398.6484375" xlink:href="#BitstreamVeraSans-Roman-32"/>
     </g>
    </g>
   </g>
  </g>
 </g>
 <defs>
  <clipPath id="p7ceb695115">
   <rect height="518.4" width="669.6" x="108.0" y="64.8"/>
  </clipPath>
 </defs>
</svg>
