<?xml version="1.0" encoding="utf-8" standalone="no"?>
<!DOCTYPE svg PUBLIC "-//W3C//DTD SVG 1.1//EN"
  "http://www.w3.org/Graphics/SVG/1.1/DTD/svg11.dtd">
<!-- Created with matplotlib (http://matplotlib.org/) -->
<svg height="648pt" version="1.1" viewBox="0 0 864 648" width="864pt" xmlns="http://www.w3.org/2000/svg" xmlns:xlink="http://www.w3.org/1999/xlink">
 <defs>
  <style type="text/css">
*{stroke-linecap:butt;stroke-linejoin:round;}
  </style>
 </defs>
 <g id="figure_1">
  <g id="patch_1">
   <path d="
M0 648
L864 648
L864 0
L0 0
z
" style="fill:#ffffff;"/>
  </g>
  <g id="axes_1">
   <g id="patch_2">
    <path d="
M108 583.2
L777.6 583.2
L777.6 64.8
L108 64.8
z
" style="fill:#ffffff;"/>
   </g>
   <g id="line2d_1">
    <path clip-path="url(#p7ceb695115)" d="
M108 583.2
L108.67 582.552
L109.339 582.228
L110.009 581.58
L111.348 581.58
L112.018 580.932
L112.687 579.312
L113.357 578.988
L114.026 578.016
L114.696 577.692
L115.366 576.72
L116.035 575.424
L116.705 573.804
L117.374 572.508
L118.044 571.536
L118.714 570.24
L119.383 567.972
L120.053 567
L120.722 564.732
L121.392 563.76
L122.062 563.112
L122.731 562.14
L123.401 560.52
L124.07 559.872
L124.74 557.928
L125.41 557.928
L126.079 555.66
L126.749 555.012
L127.418 553.716
L128.088 551.124
L128.758 549.828
L129.427 548.856
L130.097 546.912
L130.766 544.32
L131.436 543.348
L132.106 541.404
L132.775 540.756
L134.114 538.812
L134.784 538.164
L135.454 536.22
L136.123 535.572
L136.793 535.572
L137.462 534.276
L138.132 533.304
L138.802 533.628
L140.81 530.712
L141.48 530.388
L142.15 528.768
L142.819 526.824
L143.489 526.5
L144.158 524.556
L144.828 523.908
L145.498 523.908
L146.167 525.852
L146.837 525.528
L147.506 522.612
L148.176 522.288
L148.846 520.992
L149.515 517.752
L150.185 518.076
L150.854 518.076
L151.524 517.752
L152.194 519.372
L153.533 520.02
L154.202 519.372
L154.872 520.344
L155.542 519.048
L156.211 518.4
L156.881 517.428
L157.55 515.808
L158.22 516.132
L158.89 516.78
L160.229 515.484
L160.898 516.132
L161.568 516.132
L162.238 515.808
L162.907 517.104
L163.577 517.428
L164.246 517.428
L164.916 516.78
L165.586 518.724
L166.255 518.724
L166.925 520.02
L168.264 519.372
L168.934 520.992
L169.603 519.372
L170.273 519.048
L171.612 519.696
L173.621 518.724
L174.29 519.372
L175.63 519.372
L176.299 519.696
L176.969 518.724
L177.638 519.372
L178.308 520.344
L178.978 519.048
L179.647 519.048
L180.317 517.752
L180.986 517.104
L181.656 518.076
L182.326 518.076
L183.665 519.372
L184.334 521.964
L185.004 521.964
L185.674 522.288
L186.343 522.936
L187.013 522.612
L187.682 521.316
L188.352 522.288
L189.691 520.992
L190.361 520.668
L191.03 522.612
L191.7 522.288
L192.37 522.936
L193.039 522.612
L193.709 521.964
L194.378 522.612
L195.048 522.936
L195.718 524.88
L196.387 525.204
L197.057 526.176
L197.726 526.824
L198.396 528.12
L199.066 527.796
L199.735 527.148
L200.405 527.472
L201.074 527.472
L203.083 526.5
L203.753 526.824
L204.422 526.5
L205.092 528.444
L205.762 529.416
L206.431 529.092
L207.101 529.416
L207.77 529.416
L208.44 531.036
L209.11 530.712
L209.779 531.036
L210.449 530.388
L211.118 531.036
L214.466 532.656
L215.136 532.332
L215.806 532.98
L216.475 532.656
L217.145 532.656
L217.814 532.008
L218.484 531.684
L219.154 531.684
L219.823 532.008
L220.493 532.656
L221.162 532.332
L221.832 533.304
L222.502 533.628
L223.171 534.276
L223.841 535.896
L224.51 537.192
L225.18 537.516
L226.519 536.868
L227.189 537.192
L227.858 537.192
L229.198 537.84
L229.867 537.516
L230.537 537.84
L231.206 539.136
L231.876 539.784
L232.546 540.108
L233.215 539.136
L233.885 539.136
L234.554 539.46
L235.224 539.136
L235.894 540.432
L236.563 540.756
L237.233 541.728
L237.902 542.052
L238.572 541.08
L239.242 540.756
L239.911 541.728
L241.25 541.08
L241.92 541.404
L242.59 541.404
L243.259 542.7
L245.268 542.7
L245.938 543.672
L246.607 544.968
L247.277 544.968
L247.946 545.616
L248.616 547.884
L249.286 547.56
L249.955 547.884
L250.625 547.56
L251.294 547.56
L252.634 550.8
L253.973 552.096
L254.642 554.04
L255.312 555.012
L255.982 554.688
L256.651 556.308
L257.321 556.632
L257.99 556.632
L258.66 556.308
L259.33 556.956
L260.669 557.604
L261.338 558.576
L262.678 558.576
L263.347 558.9
L264.017 558.576
L264.686 558.576
L265.356 557.604
L266.026 557.928
L266.695 559.224
L267.365 559.872
L268.034 560.196
L268.704 559.872
L269.374 559.872
L270.043 560.196
L270.713 560.196
L271.382 560.52
L272.052 559.872
L272.722 560.844
L273.391 561.168
L274.73 560.52
L275.4 560.52
L276.07 560.844
L278.078 560.844
L278.748 561.492
L279.418 562.464
L280.087 562.464
L281.426 563.112
L282.096 563.76
L283.435 564.408
L284.105 564.408
L284.774 564.084
L286.114 564.084
L286.783 563.76
L287.453 563.76
L288.122 563.112
L288.792 562.788
L289.462 562.788
L290.131 562.464
L290.801 562.788
L291.47 563.436
L292.14 563.436
L292.81 562.788
L293.479 561.816
L294.149 561.816
L294.818 562.788
L295.488 562.788
L296.827 564.084
L297.497 564.408
L298.166 564.084
L298.836 564.408
L299.506 564.084
L300.175 564.408
L300.845 565.38
L301.514 565.056
L302.184 565.056
L304.193 566.028
L304.862 565.704
L305.532 566.352
L307.541 566.352
L308.21 566.028
L308.88 566.676
L309.55 566.676
L310.219 567
L310.889 567
L311.558 566.676
L312.228 566.676
L312.898 567
L314.237 567
L314.906 567.648
L315.576 567.972
L316.915 567.972
L317.585 568.62
L318.254 568.296
L318.924 568.296
L319.594 567.648
L320.263 567.972
L323.611 567.972
L324.281 568.296
L324.95 569.268
L326.29 569.268
L326.959 569.592
L328.298 569.592
L328.968 569.916
L331.646 569.916
L332.316 570.24
L332.986 570.24
L333.655 569.916
L334.325 569.916
L334.994 570.564
L335.664 570.888
L336.334 570.564
L337.003 570.564
L337.673 570.888
L339.012 570.24
L340.351 570.24
L341.69 570.888
L343.699 570.888
L344.369 570.564
L345.038 570.888
L345.708 571.536
L346.378 571.536
L347.047 571.212
L347.717 571.212
L348.386 570.888
L349.056 570.888
L349.726 570.564
L352.404 570.564
L353.074 570.888
L353.743 570.564
L354.413 571.212
L355.082 570.888
L355.752 571.212
L357.091 571.212
L357.761 571.536
L361.778 571.536
L362.448 571.86
L363.118 571.212
L363.787 571.536
L364.457 571.536
L365.126 571.212
L365.796 572.184
L366.466 572.508
L368.474 572.508
L369.144 573.156
L369.814 572.832
L370.483 573.48
L371.822 573.48
L372.492 573.804
L373.831 573.156
L374.501 573.156
L375.17 572.832
L375.84 573.156
L376.51 573.156
L377.179 572.832
L377.849 572.832
L378.518 571.86
L379.188 572.184
L379.858 572.184
L381.197 572.832
L381.866 573.48
L382.536 573.48
L383.206 573.804
L383.875 573.804
L384.545 573.156
L385.884 573.804
L386.554 573.48
L387.223 573.48
L388.562 574.128
L389.232 573.804
L389.902 574.128
L390.571 574.776
L391.241 575.1
L391.91 575.748
L392.58 575.748
L393.25 576.72
L393.919 576.72
L394.589 577.044
L395.928 576.396
L396.598 576.396
L397.267 577.044
L397.937 576.396
L398.606 576.072
L399.946 576.072
L400.615 575.748
L401.954 575.748
L402.624 575.1
L404.633 575.1
L405.302 575.424
L406.642 575.424
L407.311 575.1
L408.65 575.1
L409.32 575.424
L409.99 575.424
L410.659 575.1
L411.329 575.748
L411.998 576.072
L413.338 576.072
L415.346 577.044
L416.016 577.044
L416.686 577.692
L417.355 577.044
L418.025 577.692
L419.364 577.692
L420.034 577.368
L422.042 577.368
L422.712 577.044
L423.382 577.368
L426.06 577.368
L427.399 578.016
L428.738 578.016
L429.408 578.34
L430.747 578.34
L431.417 578.016
L432.756 578.016
L433.426 577.692
L436.774 577.692
L437.443 578.016
L438.113 578.016
L438.782 578.34
L439.452 578.34
L440.122 577.692
L440.791 577.692
L442.13 577.044
L442.8 576.396
L443.47 576.072
L444.139 574.776
L444.809 566.676
L445.478 553.716
L446.148 532.656
L447.487 472.392
L448.826 387.18
L449.496 353.16
L450.835 300.996
L451.505 287.388
L452.174 268.92
L452.844 275.4
L453.514 280.26
L454.853 292.896
L455.522 300.672
L456.192 316.548
L456.862 319.788
L457.531 339.552
L458.201 339.876
L458.87 356.4
L459.54 369.036
L460.879 401.76
L461.549 406.62
L462.888 421.848
L463.558 413.424
L464.227 411.48
L464.897 419.904
L465.566 426.708
L466.236 428.328
L466.906 422.496
L467.575 427.68
L468.245 429.948
L468.914 445.176
L469.584 430.92
L470.254 436.104
L470.923 423.144
L471.593 424.116
L472.262 437.724
L472.932 425.736
L473.602 424.116
L474.271 419.256
L474.941 419.904
L475.61 416.016
L476.28 418.932
L476.95 418.284
L477.619 404.676
L478.289 414.396
L478.958 414.072
L480.298 392.364
L480.967 413.1
L481.637 406.944
L482.306 392.688
L482.976 403.38
L483.646 392.04
L484.315 388.476
L484.985 403.056
L485.654 407.592
L486.324 396.9
L486.994 396.576
L488.333 376.488
L489.002 378.756
L489.672 369.036
L490.342 371.304
L491.011 362.232
L491.681 359.316
L492.35 359.964
L493.02 363.528
L493.69 360.936
L494.359 354.456
L495.029 344.412
L495.698 349.596
L496.368 343.764
L497.038 353.16
L497.707 348.948
L498.377 336.96
L499.046 339.552
L499.716 334.368
L501.055 338.904
L501.725 335.988
L502.394 340.848
L503.064 332.1
L503.734 319.788
L504.403 329.184
L505.073 319.464
L505.742 320.112
L506.412 324.324
L507.082 325.62
L507.751 328.86
L508.421 329.508
L509.09 337.284
L509.76 337.608
L510.43 333.072
L511.099 326.268
L511.769 315.9
L512.438 325.944
L513.108 322.704
L513.778 326.916
L514.447 332.748
L515.117 337.284
L515.786 330.804
L516.456 339.876
L517.126 342.144
L517.795 333.72
L518.465 338.58
L519.134 341.172
L519.804 324.648
L520.474 326.916
L521.143 336.636
L521.813 332.748
L522.482 332.424
L523.152 337.608
L523.822 335.988
L524.491 321.732
L525.161 320.436
L525.83 317.196
L526.5 323.352
L527.17 321.732
L527.839 327.564
L528.509 311.688
L529.178 316.548
L529.848 325.296
L530.518 314.928
L531.187 311.04
L531.857 308.448
L532.526 312.984
L533.196 313.632
L533.866 310.392
L534.535 308.448
L535.205 296.136
L535.874 301.968
L536.544 300.996
L537.214 307.476
L537.883 298.404
L538.553 299.376
L539.222 304.56
L539.892 308.772
L540.562 306.828
L541.231 306.18
L541.901 308.124
L542.57 301.32
L543.24 300.996
L543.91 305.208
L544.579 297.756
L545.249 304.884
L545.918 302.292
L546.588 287.388
L547.258 285.12
L547.927 280.26
L548.597 283.824
L549.266 283.5
L549.936 279.612
L550.606 282.528
L551.275 281.556
L551.945 267.948
L552.614 272.808
L553.284 271.512
L553.954 272.16
L555.293 280.584
L555.962 274.752
L556.632 263.736
L557.302 261.144
L557.971 256.932
L558.641 254.016
L559.31 260.82
L559.98 261.468
L560.65 252.396
L561.319 251.1
L561.989 251.1
L562.658 251.424
L563.328 246.888
L563.998 259.524
L564.667 252.396
L565.337 253.044
L566.006 262.44
L566.676 254.34
L567.346 261.792
L568.015 257.58
L568.685 254.988
L569.354 249.804
L570.694 259.2
L571.363 253.368
L572.033 251.1
L572.702 258.552
L573.372 260.496
L574.042 265.032
L574.711 261.792
L575.381 264.384
L576.05 253.368
L576.72 248.832
L577.39 257.256
L578.059 251.424
L578.729 249.804
L579.398 248.508
L580.068 239.436
L580.738 241.38
L581.407 242.352
L582.077 234.576
L582.746 246.888
L583.416 241.056
L584.086 248.508
L584.755 244.296
L585.425 250.128
L586.094 248.832
L586.764 245.916
L587.434 247.86
L588.103 244.944
L588.773 250.128
L589.442 249.48
L590.112 238.788
L590.782 242.352
L591.451 242.352
L592.121 246.888
L592.79 234.576
L593.46 234.576
L594.13 239.76
L594.799 236.52
L595.469 231.984
L596.138 233.28
L597.478 224.532
L598.147 226.152
L598.817 214.488
L599.486 220.32
L600.156 217.728
L600.826 214.164
L601.495 203.472
L602.165 209.304
L602.834 208.008
L603.504 211.896
L604.174 201.528
L604.843 212.22
L605.513 219.672
L606.182 208.656
L606.852 190.836
L607.522 197.964
L608.191 200.232
L608.861 199.908
L609.53 205.092
L610.2 206.712
L610.87 198.936
L611.539 203.796
L612.209 207.36
L612.878 209.952
L613.548 210.276
L614.218 209.952
L614.887 208.98
L615.557 216.756
L616.226 221.292
L616.896 220.644
L617.566 212.22
L618.235 200.556
L618.905 195.696
L619.574 199.908
L620.244 200.232
L620.914 193.428
L621.583 178.524
L622.253 188.568
L622.922 188.892
L623.592 188.244
L624.262 193.752
L624.931 178.848
L625.601 187.92
L626.27 189.864
L626.94 194.076
L628.279 190.188
L628.949 192.456
L629.618 186.624
L630.288 179.172
L630.958 183.384
L631.627 185.328
L632.297 185.976
L632.966 183.06
L633.636 182.736
L634.306 178.848
L634.975 180.792
L635.645 170.1
L636.314 171.396
L636.984 179.496
L637.654 182.736
L638.323 175.932
L638.993 174.96
L639.662 174.96
L640.332 168.804
L641.002 176.58
L641.671 179.82
L642.341 168.804
L643.01 168.804
L643.68 170.748
L644.35 170.424
L645.019 172.368
L645.689 169.128
L646.358 160.704
L647.028 170.1
L647.698 171.396
L649.037 165.24
L649.706 163.296
L650.376 158.112
L651.046 157.464
L651.715 138.672
L652.385 147.42
L653.054 137.052
L653.724 130.248
L654.394 136.728
L655.063 137.052
L655.733 138.996
L656.402 147.096
L657.072 150.984
L657.742 152.604
L658.411 159.084
L659.081 161.676
L660.42 159.732
L661.09 150.336
L661.759 153.252
L662.429 148.716
L663.098 155.52
L663.768 151.308
L664.438 141.588
L665.107 147.744
L665.777 149.04
L666.446 143.532
L667.116 141.588
L667.786 143.208
L669.125 151.308
L669.794 146.448
L670.464 149.04
L671.134 143.208
L671.803 134.46
L672.473 129.924
L673.142 128.628
L673.812 132.516
L674.482 137.376
L675.151 133.812
L675.821 133.164
L676.49 131.544
L677.16 138.996
L677.83 142.56
L678.499 144.18
L679.169 146.448
L679.838 146.448
L680.508 158.436
L681.178 154.548
L681.847 148.716
L682.517 145.8
L683.186 149.688
L683.856 145.8
L685.195 139.644
L685.865 140.94
L686.534 145.476
L687.204 138.996
L687.874 145.152
L688.543 139.968
L689.213 148.068
L689.882 141.912
L690.552 141.264
L691.222 142.56
L691.891 139.644
L692.561 143.208
L693.23 145.476
L693.9 144.828
L694.57 145.476
L695.239 149.04
L695.909 140.94
L696.578 140.616
L697.248 144.18
L697.918 145.476
L698.587 147.096
L699.257 148.392
L699.926 140.94
L700.596 138.672
L701.266 133.488
L701.935 129.924
L702.605 129.924
L703.274 132.192
L703.944 136.404
L704.614 137.376
L706.622 144.504
L707.292 139.968
L707.962 141.264
L708.631 140.292
L709.301 142.56
L709.97 137.376
L710.64 140.94
L711.31 143.532
L711.979 147.744
L712.649 155.196
L713.318 156.168
L713.988 149.04
L714.658 149.364
L715.327 154.224
L715.997 151.956
L716.666 151.632
L717.336 149.04
L718.006 148.392
L718.675 155.196
L719.345 164.268
L720.014 166.86
L720.684 163.62
L722.023 155.844
L722.693 155.844
L723.362 163.296
L724.032 163.296
L724.702 164.268
L725.371 166.536
L726.041 164.592
L726.71 164.916
L727.38 164.592
L728.05 166.86
L728.719 168.156
L729.389 172.368
L730.058 169.128
L730.728 171.72
L731.398 175.932
L732.067 179.172
L732.737 183.06
L733.406 178.524
L734.076 180.468
L734.746 175.932
L735.415 180.468
L736.085 181.764
L736.754 178.2
L737.424 179.82
L738.094 177.228
L738.763 179.496
L739.433 180.144
L740.102 183.06
L740.772 182.412
L741.442 177.552
L742.111 183.708
L742.781 183.708
L743.45 185.976
L744.12 186.3
L744.79 188.244
L745.459 194.724
L746.129 193.428
L746.798 189.864
L747.468 189.864
L748.807 196.02
L749.477 196.02
L750.146 197.64
L750.816 202.5
L751.486 196.992
L752.155 197.316
L752.825 204.768
L753.494 203.472
L754.164 206.064
L754.834 208.008
L755.503 209.304
L756.842 206.712
L757.512 207.684
L758.182 208.98
L758.851 211.896
L759.521 211.896
L760.19 212.22
L760.86 210.6
L761.53 213.516
L762.199 212.22
L764.208 232.308
L764.878 230.688
L765.547 231.984
L766.217 234.9
L766.886 233.28
L767.556 235.872
L768.226 235.872
L768.895 228.744
L769.565 232.632
L770.234 232.632
L770.904 232.308
L771.574 237.168
L772.243 240.084
L773.582 244.944
L774.922 244.944
L775.591 250.452
L776.261 254.34
L776.93 254.34
L777.6 255.636
L777.6 255.636" style="fill:none;stroke:#ff0000;stroke-linecap:square;"/>
   </g>
   <g id="line2d_2">
    <path clip-path="url(#p7ceb695115)" d="
M108 583.2
L777.6 583.2
L777.6 583.2" style="fill:none;stroke:#008000;stroke-linecap:square;"/>
   </g>
   <g id="line2d_3">
    <path clip-path="url(#p7ceb695115)" d="
M108 583.2
L110.009 581.256
L110.678 580.932
L112.018 580.932
L112.687 579.636
L113.357 578.016
L114.026 577.368
L115.366 573.48
L116.035 572.832
L116.705 571.212
L117.374 571.212
L118.044 570.24
L118.714 569.592
L119.383 569.592
L120.722 567.648
L121.392 567
L122.062 565.38
L122.731 564.084
L123.401 562.14
L125.41 560.196
L126.079 558.9
L127.418 556.956
L128.758 553.392
L129.427 553.068
L130.097 552.42
L130.766 551.448
L131.436 550.152
L132.106 549.828
L132.775 548.208
L133.445 547.236
L134.114 547.56
L134.784 545.616
L135.454 545.616
L136.123 543.996
L136.793 543.024
L137.462 541.404
L138.802 540.108
L139.471 537.516
L140.141 537.516
L140.81 535.572
L141.48 536.544
L142.15 536.868
L142.819 535.896
L144.158 534.6
L144.828 534.276
L145.498 534.924
L146.167 533.304
L146.837 533.628
L147.506 531.036
L148.846 529.092
L149.515 528.444
L150.854 525.204
L151.524 524.88
L152.194 524.88
L153.533 523.584
L154.202 524.232
L154.872 523.26
L155.542 522.936
L156.211 522.936
L156.881 523.26
L157.55 522.612
L158.22 522.936
L158.89 522.288
L159.559 523.26
L160.229 522.288
L160.898 523.908
L161.568 522.288
L162.238 521.64
L162.907 521.964
L163.577 520.668
L164.246 520.992
L165.586 522.288
L166.255 523.584
L166.925 524.232
L167.594 524.556
L168.264 525.528
L169.603 524.88
L170.273 524.88
L170.942 523.26
L171.612 523.584
L172.282 523.26
L172.951 524.556
L173.621 524.88
L174.29 526.824
L174.96 526.5
L175.63 527.148
L176.299 525.528
L176.969 526.824
L177.638 527.148
L179.647 526.176
L180.317 524.88
L180.986 526.5
L181.656 527.472
L182.995 526.176
L183.665 526.824
L184.334 526.824
L185.674 526.176
L186.343 525.528
L187.013 525.852
L187.682 526.5
L188.352 526.176
L189.022 527.148
L189.691 527.796
L190.361 527.148
L191.03 527.472
L191.7 526.5
L192.37 526.176
L193.039 525.528
L193.709 525.204
L195.048 525.852
L195.718 525.528
L196.387 526.824
L197.057 525.852
L197.726 526.824
L198.396 526.824
L199.066 526.5
L199.735 525.528
L200.405 525.852
L201.074 523.584
L201.744 524.232
L202.414 524.232
L203.083 526.5
L203.753 526.5
L204.422 526.176
L205.092 525.528
L205.762 526.824
L206.431 526.176
L207.101 524.556
L207.77 525.852
L208.44 526.824
L209.11 525.852
L209.779 525.204
L210.449 526.5
L211.118 527.472
L211.788 527.796
L212.458 528.444
L213.127 527.796
L213.797 528.444
L215.136 525.852
L216.475 525.852
L217.145 527.148
L217.814 528.768
L218.484 528.768
L219.154 529.74
L219.823 529.74
L220.493 530.064
L221.162 529.74
L221.832 530.064
L222.502 530.712
L223.171 531.036
L224.51 531.036
L225.18 530.388
L225.85 530.388
L226.519 531.036
L227.189 530.712
L227.858 530.064
L228.528 530.064
L229.198 529.092
L229.867 529.092
L230.537 529.416
L231.206 529.416
L231.876 528.444
L232.546 528.444
L233.215 528.768
L233.885 528.444
L234.554 529.092
L235.894 529.74
L236.563 530.388
L237.233 530.712
L237.902 531.36
L238.572 530.712
L239.242 531.684
L239.911 530.712
L240.581 531.36
L241.25 531.684
L241.92 532.332
L242.59 533.628
L243.259 533.952
L244.598 536.544
L245.268 536.544
L245.938 537.192
L246.607 537.192
L247.277 538.164
L247.946 537.192
L248.616 536.868
L249.955 539.46
L250.625 540.432
L251.294 541.08
L251.964 542.7
L253.303 542.7
L253.973 542.052
L254.642 543.024
L255.312 542.7
L255.982 543.024
L256.651 544.32
L257.321 544.32
L257.99 544.644
L258.66 545.616
L259.33 547.236
L259.999 547.56
L260.669 547.236
L262.008 547.236
L262.678 546.912
L263.347 546.912
L264.017 547.884
L264.686 547.884
L265.356 548.208
L266.026 547.884
L267.365 548.532
L268.704 550.476
L269.374 550.8
L270.043 550.8
L271.382 551.448
L272.052 552.096
L272.722 552.42
L273.391 552.42
L274.061 553.068
L274.73 553.392
L275.4 553.392
L276.07 553.716
L276.739 553.716
L277.409 554.688
L278.078 555.336
L279.418 555.336
L280.087 555.66
L280.757 556.956
L281.426 557.28
L282.096 556.308
L282.766 556.956
L283.435 556.956
L284.105 556.632
L285.444 556.632
L286.114 557.604
L286.783 557.928
L287.453 557.604
L289.462 559.548
L290.131 559.224
L290.801 559.224
L291.47 559.548
L292.81 560.844
L293.479 561.816
L294.149 562.14
L294.818 561.492
L295.488 561.816
L296.158 562.788
L296.827 562.464
L297.497 561.816
L298.166 562.788
L298.836 562.788
L300.845 563.76
L301.514 565.056
L302.184 565.056
L302.854 564.732
L303.523 564.084
L304.193 564.732
L304.862 564.084
L306.202 564.732
L306.871 564.732
L307.541 565.056
L308.21 565.056
L308.88 565.38
L309.55 565.056
L310.219 565.38
L310.889 565.38
L312.228 566.676
L312.898 566.352
L314.237 566.352
L314.906 566.028
L316.246 566.676
L316.915 566.352
L317.585 566.676
L318.254 567.324
L318.924 567.324
L319.594 567
L320.263 567
L321.602 568.296
L322.272 568.296
L322.942 568.62
L324.281 568.62
L325.62 567.972
L326.959 567.972
L328.298 569.268
L328.968 568.62
L329.638 569.592
L330.977 569.592
L332.316 570.24
L333.655 569.592
L334.994 570.24
L335.664 570.888
L337.673 570.888
L338.342 571.536
L339.012 571.536
L339.682 571.212
L340.351 571.212
L341.021 571.86
L342.36 571.86
L343.03 572.184
L343.699 571.86
L344.369 572.508
L345.038 571.86
L346.378 572.508
L347.047 572.508
L347.717 572.832
L348.386 572.508
L349.056 572.508
L349.726 572.184
L350.395 572.832
L352.404 572.832
L353.074 573.156
L354.413 573.156
L355.082 573.48
L355.752 573.156
L357.761 574.128
L361.778 574.128
L363.118 573.48
L363.787 573.804
L364.457 573.48
L365.126 572.832
L366.466 572.832
L367.135 572.508
L367.805 572.508
L369.814 571.536
L373.162 571.536
L373.831 571.212
L374.501 571.212
L375.17 571.86
L376.51 571.86
L377.179 572.184
L377.849 572.184
L378.518 571.536
L379.188 571.212
L380.527 571.212
L381.197 570.888
L381.866 571.212
L382.536 570.564
L383.206 570.564
L383.875 571.536
L385.214 571.536
L387.223 573.48
L387.893 573.48
L388.562 573.156
L389.232 573.804
L389.902 573.48
L390.571 573.48
L391.241 573.156
L391.91 572.184
L392.58 571.536
L393.919 571.536
L395.928 572.508
L396.598 571.86
L397.267 571.86
L397.937 571.536
L399.946 571.536
L400.615 570.888
L401.285 570.564
L401.954 570.888
L402.624 571.86
L403.294 572.508
L403.963 572.184
L404.633 572.184
L405.302 571.212
L405.972 571.536
L406.642 571.536
L407.311 571.212
L407.981 571.212
L408.65 571.536
L409.99 571.536
L410.659 571.86
L411.329 571.86
L412.668 572.508
L414.007 572.508
L414.677 572.832
L416.016 572.832
L416.686 573.48
L417.355 573.48
L418.694 572.832
L419.364 572.832
L420.034 572.508
L420.703 572.832
L421.373 572.832
L422.042 572.508
L422.712 572.832
L424.051 574.128
L424.721 574.452
L425.39 573.804
L427.399 573.804
L428.069 574.128
L428.738 573.804
L429.408 574.128
L431.417 574.128
L432.756 573.48
L434.095 573.48
L434.765 573.804
L435.434 573.48
L436.104 573.48
L436.774 573.156
L438.113 573.156
L438.782 572.832
L439.452 573.156
L440.122 573.156
L440.791 572.508
L441.461 572.832
L442.13 572.832
L442.8 572.508
L443.47 572.508
L444.139 570.564
L444.809 562.14
L446.148 524.232
L446.818 503.496
L448.826 377.784
L450.166 318.168
L450.835 303.264
L451.505 284.796
L452.174 271.836
L452.844 274.104
L453.514 294.192
L454.183 292.248
L454.853 295.164
L455.522 310.716
L456.192 317.196
L456.862 331.452
L457.531 351.864
L458.201 364.5
L458.87 365.148
L459.54 380.7
L460.21 379.404
L460.879 392.364
L461.549 402.408
L462.218 396.9
L462.888 411.804
L463.558 411.804
L464.227 412.776
L464.897 418.608
L465.566 420.552
L466.236 431.244
L466.906 434.808
L467.575 435.132
L468.245 431.244
L468.914 423.468
L469.584 435.78
L470.254 437.076
L470.923 439.668
L471.593 431.568
L472.262 429.624
L472.932 423.468
L473.602 423.792
L474.271 429.3
L474.941 432.54
L475.61 425.088
L476.28 424.764
L476.95 412.776
L477.619 424.44
L478.289 422.172
L478.958 410.832
L479.628 401.76
L480.298 398.844
L481.637 394.956
L482.306 397.872
L482.976 406.296
L483.646 402.732
L484.315 387.828
L484.985 395.28
L485.654 391.392
L486.324 391.068
L486.994 383.292
L487.663 377.784
L488.333 374.22
L489.002 377.784
L489.672 379.728
L490.342 370.656
L491.011 369.36
L491.681 362.88
L492.35 373.572
L493.02 355.104
L493.69 348.624
L494.359 361.26
L495.029 360.288
L495.698 350.244
L496.368 360.288
L497.038 344.412
L497.707 354.456
L498.377 341.496
L499.046 344.736
L499.716 347.328
L500.386 348.3
L501.055 340.524
L501.725 343.44
L502.394 341.496
L503.064 330.804
L503.734 331.452
L504.403 329.832
L505.073 330.804
L505.742 324.648
L506.412 325.296
L507.082 324
L507.751 328.536
L508.421 317.844
L509.09 330.48
L509.76 328.86
L510.43 323.352
L511.099 332.748
L511.769 315.576
L512.438 321.084
L513.108 330.156
L513.778 331.776
L515.117 324.648
L515.786 315.9
L516.456 326.268
L517.126 324.972
L517.795 333.396
L518.465 328.86
L519.804 314.604
L520.474 329.832
L521.143 318.168
L521.813 316.224
L522.482 325.944
L523.152 324.972
L523.822 322.38
L524.491 322.38
L525.161 333.396
L525.83 322.056
L526.5 325.296
L527.17 321.084
L527.839 320.76
L528.509 321.084
L529.178 320.436
L529.848 331.452
L530.518 323.676
L531.187 324
L531.857 322.38
L532.526 320.112
L533.196 309.744
L533.866 310.068
L534.535 310.068
L535.205 308.124
L535.874 306.828
L536.544 318.168
L537.214 318.492
L537.883 304.56
L538.553 294.192
L539.222 292.896
L539.892 295.488
L540.562 293.22
L541.231 300.672
L541.901 302.292
L543.24 289.332
L543.91 288.036
L544.579 289.332
L545.249 282.204
L545.918 284.796
L546.588 282.528
L547.258 288.036
L547.927 289.332
L548.597 286.416
L549.266 288.684
L549.936 280.908
L550.606 275.724
L551.275 277.344
L551.945 276.696
L552.614 281.88
L553.284 276.372
L553.954 256.608
L554.623 265.032
L555.293 262.44
L555.962 266.004
L556.632 266.976
L557.302 266.652
L557.971 255.96
L558.641 265.68
L559.31 253.368
L559.98 256.284
L561.319 249.804
L561.989 253.044
L562.658 251.424
L563.328 258.552
L563.998 257.58
L564.667 256.932
L565.337 257.256
L566.006 252.72
L566.676 266.004
L567.346 264.384
L568.015 264.06
L568.685 255.96
L569.354 239.112
L570.694 260.172
L571.363 253.692
L572.033 266.328
L572.702 268.92
L573.372 266.004
L574.042 269.892
L574.711 277.668
L575.381 273.456
L576.05 271.836
L576.72 261.792
L577.39 264.708
L578.059 263.088
L578.729 257.904
L579.398 259.524
L580.068 264.708
L580.738 261.792
L581.407 260.496
L582.077 251.424
L582.746 252.396
L583.416 251.424
L584.086 245.916
L584.755 244.944
L585.425 234.9
L586.094 244.944
L586.764 235.872
L587.434 237.492
L588.103 237.168
L588.773 230.688
L589.442 228.42
L590.112 224.856
L590.782 226.8
L591.451 224.856
L592.121 221.616
L592.79 228.744
L593.46 227.448
L594.13 232.632
L594.799 224.856
L595.469 233.928
L596.138 231.012
L596.808 219.996
L597.478 226.152
L598.147 222.264
L598.817 225.504
L599.486 222.912
L600.156 223.884
L600.826 222.264
L601.495 211.896
L602.165 227.124
L602.834 221.292
L603.504 224.208
L604.174 212.22
L604.843 205.092
L605.513 209.304
L606.182 202.824
L606.852 205.092
L607.522 194.076
L608.191 203.148
L608.861 195.696
L609.53 190.836
L610.2 198.288
L610.87 202.5
L611.539 195.372
L612.209 201.852
L612.878 210.924
L613.548 200.556
L614.218 197.316
L614.887 199.908
L615.557 195.048
L616.226 206.388
L616.896 195.048
L618.235 190.836
L618.905 191.484
L619.574 200.556
L620.244 197.64
L620.914 190.836
L621.583 195.048
L622.253 195.696
L622.922 193.428
L623.592 197.316
L624.262 192.456
L624.931 195.372
L625.601 193.428
L626.27 199.26
L626.94 191.16
L627.61 195.696
L628.279 192.456
L628.949 193.752
L629.618 189.864
L630.288 187.92
L630.958 192.456
L632.297 182.088
L632.966 180.144
L633.636 180.792
L634.306 184.68
L634.975 195.048
L635.645 195.696
L636.314 194.4
L636.984 189.216
L637.654 191.484
L638.323 187.596
L638.993 186.948
L639.662 183.06
L640.332 183.384
L641.002 180.468
L641.671 181.44
L642.341 177.228
L643.01 183.384
L643.68 182.412
L644.35 184.68
L645.689 167.184
L646.358 151.308
L647.028 159.732
L647.698 158.436
L648.367 170.748
L649.037 173.34
L649.706 173.988
L650.376 156.168
L651.046 160.056
L651.715 165.564
L652.385 168.804
L653.054 164.916
L653.724 171.072
L654.394 164.916
L655.063 161.352
L655.733 160.704
L656.402 152.604
L657.072 146.448
L657.742 147.744
L658.411 141.588
L659.081 150.66
L659.75 156.492
L660.42 152.928
L661.09 151.956
L661.759 152.28
L662.429 149.364
L663.098 148.068
L663.768 146.124
L664.438 152.28
L665.107 145.8
L665.777 137.052
L666.446 146.772
L667.116 142.236
L667.786 140.616
L668.455 143.208
L669.125 142.236
L669.794 139.32
L670.464 143.208
L671.134 139.968
L671.803 146.124
L672.473 149.364
L673.142 156.492
L673.812 147.096
L674.482 150.66
L675.151 147.744
L675.821 139.644
L676.49 145.476
L677.16 146.772
L677.83 143.532
L678.499 146.124
L679.169 144.504
L679.838 135.108
L680.508 132.192
L681.178 139.644
L681.847 145.476
L682.517 144.504
L683.186 142.884
L683.856 142.236
L684.526 144.18
L685.195 142.884
L685.865 145.152
L686.534 137.7
L687.204 143.208
L687.874 137.376
L688.543 143.532
L689.882 144.828
L690.552 137.7
L691.222 135.756
L691.891 132.516
L692.561 133.488
L693.23 130.896
L693.9 137.376
L694.57 136.08
L695.239 138.672
L695.909 135.432
L696.578 126.36
L697.248 129.276
L697.918 138.348
L698.587 141.264
L699.257 140.616
L699.926 141.912
L700.596 138.024
L701.266 146.124
L701.935 145.476
L702.605 145.476
L703.274 149.688
L703.944 157.14
L704.614 152.28
L705.283 146.124
L705.953 148.392
L706.622 150.012
L707.292 155.844
L707.962 157.788
L708.631 164.268
L709.301 159.408
L709.97 158.76
L710.64 157.14
L711.31 158.436
L711.979 159.084
L712.649 160.38
L713.318 159.408
L713.988 169.128
L714.658 166.536
L715.327 172.692
L715.997 160.704
L716.666 157.464
L717.336 155.52
L718.006 158.436
L718.675 156.816
L719.345 158.436
L720.014 158.76
L720.684 156.816
L721.354 157.464
L722.023 163.62
L722.693 166.212
L723.362 164.592
L724.032 166.212
L724.702 163.944
L725.371 165.24
L726.041 166.212
L726.71 162
L727.38 162
L728.05 162.324
L728.719 169.452
L729.389 171.72
L730.058 172.044
L730.728 176.904
L731.398 178.524
L732.067 172.692
L732.737 175.284
L733.406 174.96
L734.076 173.988
L734.746 179.82
L735.415 182.088
L736.754 181.44
L737.424 179.496
L738.763 185.004
L739.433 184.032
L740.102 188.892
L740.772 186.624
L741.442 185.004
L742.111 188.244
L742.781 190.188
L743.45 187.596
L744.12 188.244
L744.79 188.244
L745.459 189.216
L746.129 189.864
L746.798 193.104
L748.138 182.412
L748.807 184.356
L749.477 181.764
L750.146 185.652
L750.816 186.948
L751.486 190.512
L752.155 193.104
L752.825 190.512
L753.494 192.456
L754.164 191.16
L754.834 195.696
L755.503 202.824
L756.173 201.204
L756.842 204.444
L757.512 202.176
L758.182 202.176
L758.851 203.472
L759.521 205.74
L760.19 201.852
L760.86 200.556
L761.53 203.148
L762.199 207.36
L762.869 208.008
L763.538 208.332
L764.208 206.712
L765.547 209.952
L766.217 211.896
L766.886 215.136
L767.556 215.136
L768.226 218.376
L768.895 215.784
L769.565 217.404
L770.234 215.46
L770.904 221.292
L771.574 223.56
L772.243 217.728
L772.913 216.756
L773.582 213.516
L774.252 217.404
L774.922 218.376
L775.591 220.32
L776.261 218.052
L776.93 220.644
L777.6 219.672
L777.6 219.672" style="fill:none;stroke:#0000ff;stroke-linecap:square;"/>
   </g>
   <g id="patch_3">
    <path d="
M777.6 583.2
L777.6 64.8" style="fill:none;stroke:#000000;stroke-linecap:square;stroke-linejoin:miter;"/>
   </g>
   <g id="patch_4">
    <path d="
M108 583.2
L777.6 583.2" style="fill:none;stroke:#000000;stroke-linecap:square;stroke-linejoin:miter;"/>
   </g>
   <g id="patch_5">
    <path d="
M108 583.2
L108 64.8" style="fill:none;stroke:#000000;stroke-linecap:square;stroke-linejoin:miter;"/>
   </g>
   <g id="patch_6">
    <path d="
M108 64.8
L777.6 64.8" style="fill:none;stroke:#000000;stroke-linecap:square;stroke-linejoin:miter;"/>
   </g>
   <g id="matplotlib.axis_1">
    <g id="xtick_1">
     <g id="line2d_4">
      <defs>
       <path d="
M0 0
L0 -4" id="mc7db9fdffb" style="stroke:#000000;stroke-width:0.5;"/>
      </defs>
      <g>
       <use style="stroke:#000000;stroke-width:0.5;" x="108.0" xlink:href="#mc7db9fdffb" y="583.2"/>
      </g>
     </g>
     <g id="line2d_5">
      <defs>
       <path d="
M0 0
L0 4" id="m5a7d422ac3" style="stroke:#000000;stroke-width:0.5;"/>
      </defs>
      <g>
       <use style="stroke:#000000;stroke-width:0.5;" x="108.0" xlink:href="#m5a7d422ac3" y="64.8"/>
      </g>
     </g>
     <g id="text_1">
      <!-- 0 -->
      <defs>
       <path d="
M31.7812 66.4062
Q24.1719 66.4062 20.3281 58.9062
Q16.5 51.4219 16.5 36.375
Q16.5 21.3906 20.3281 13.8906
Q24.1719 6.39062 31.7812 6.39062
Q39.4531 6.39062 43.2812 13.8906
Q47.125 21.3906 47.125 36.375
Q47.125 51.4219 43.2812 58.9062
Q39.4531 66.4062 31.7812 66.4062
M31.7812 74.2188
Q44.0469 74.2188 50.5156 64.5156
Q56.9844 54.8281 56.9844 36.375
Q56.9844 17.9688 50.5156 8.26562
Q44.0469 -1.42188 31.7812 -1.42188
Q19.5312 -1.42188 13.0625 8.26562
Q6.59375 17.9688 6.59375 36.375
Q6.59375 54.8281 13.0625 64.5156
Q19.5312 74.2188 31.7812 74.2188" id="BitstreamVeraSans-Roman-30"/>
      </defs>
      <g transform="translate(104.9765625 596.318125)scale(0.12 -0.12)">
       <use xlink:href="#BitstreamVeraSans-Roman-30"/>
      </g>
     </g>
    </g>
    <g id="xtick_2">
     <g id="line2d_6">
      <g>
       <use style="stroke:#000000;stroke-width:0.5;" x="275.4" xlink:href="#mc7db9fdffb" y="583.2"/>
      </g>
     </g>
     <g id="line2d_7">
      <g>
       <use style="stroke:#000000;stroke-width:0.5;" x="275.4" xlink:href="#m5a7d422ac3" y="64.8"/>
      </g>
     </g>
     <g id="text_2">
      <!-- 50000 -->
      <defs>
       <path d="
M10.7969 72.9062
L49.5156 72.9062
L49.5156 64.5938
L19.8281 64.5938
L19.8281 46.7344
Q21.9688 47.4688 24.1094 47.8281
Q26.2656 48.1875 28.4219 48.1875
Q40.625 48.1875 47.75 41.5
Q54.8906 34.8125 54.8906 23.3906
Q54.8906 11.625 47.5625 5.09375
Q40.2344 -1.42188 26.9062 -1.42188
Q22.3125 -1.42188 17.5469 -0.640625
Q12.7969 0.140625 7.71875 1.70312
L7.71875 11.625
Q12.1094 9.23438 16.7969 8.0625
Q21.4844 6.89062 26.7031 6.89062
Q35.1562 6.89062 40.0781 11.3281
Q45.0156 15.7656 45.0156 23.3906
Q45.0156 31 40.0781 35.4375
Q35.1562 39.8906 26.7031 39.8906
Q22.75 39.8906 18.8125 39.0156
Q14.8906 38.1406 10.7969 36.2812
z
" id="BitstreamVeraSans-Roman-35"/>
      </defs>
      <g transform="translate(257.1740625 596.318125)scale(0.12 -0.12)">
       <use xlink:href="#BitstreamVeraSans-Roman-35"/>
       <use x="63.623046875" xlink:href="#BitstreamVeraSans-Roman-30"/>
       <use x="127.24609375" xlink:href="#BitstreamVeraSans-Roman-30"/>
       <use x="190.869140625" xlink:href="#BitstreamVeraSans-Roman-30"/>
       <use x="254.4921875" xlink:href="#BitstreamVeraSans-Roman-30"/>
      </g>
     </g>
    </g>
    <g id="xtick_3">
     <g id="line2d_8">
      <g>
       <use style="stroke:#000000;stroke-width:0.5;" x="442.8" xlink:href="#mc7db9fdffb" y="583.2"/>
      </g>
     </g>
     <g id="line2d_9">
      <g>
       <use style="stroke:#000000;stroke-width:0.5;" x="442.8" xlink:href="#m5a7d422ac3" y="64.8"/>
      </g>
     </g>
     <g id="text_3">
      <!-- 100000 -->
      <defs>
       <path d="
M12.4062 8.29688
L28.5156 8.29688
L28.5156 63.9219
L10.9844 60.4062
L10.9844 69.3906
L28.4219 72.9062
L38.2812 72.9062
L38.2812 8.29688
L54.3906 8.29688
L54.3906 0
L12.4062 0
z
" id="BitstreamVeraSans-Roman-31"/>
      </defs>
      <g transform="translate(420.9525 596.318125)scale(0.12 -0.12)">
       <use xlink:href="#BitstreamVeraSans-Roman-31"/>
       <use x="63.623046875" xlink:href="#BitstreamVeraSans-Roman-30"/>
       <use x="127.24609375" xlink:href="#BitstreamVeraSans-Roman-30"/>
       <use x="190.869140625" xlink:href="#BitstreamVeraSans-Roman-30"/>
       <use x="254.4921875" xlink:href="#BitstreamVeraSans-Roman-30"/>
       <use x="318.115234375" xlink:href="#BitstreamVeraSans-Roman-30"/>
      </g>
     </g>
    </g>
    <g id="xtick_4">
     <g id="line2d_10">
      <g>
       <use style="stroke:#000000;stroke-width:0.5;" x="610.2" xlink:href="#mc7db9fdffb" y="583.2"/>
      </g>
     </g>
     <g id="line2d_11">
      <g>
       <use style="stroke:#000000;stroke-width:0.5;" x="610.2" xlink:href="#m5a7d422ac3" y="64.8"/>
      </g>
     </g>
     <g id="text_4">
      <!-- 150000 -->
      <g transform="translate(588.3525 596.318125)scale(0.12 -0.12)">
       <use xlink:href="#BitstreamVeraSans-Roman-31"/>
       <use x="63.623046875" xlink:href="#BitstreamVeraSans-Roman-35"/>
       <use x="127.24609375" xlink:href="#BitstreamVeraSans-Roman-30"/>
       <use x="190.869140625" xlink:href="#BitstreamVeraSans-Roman-30"/>
       <use x="254.4921875" xlink:href="#BitstreamVeraSans-Roman-30"/>
       <use x="318.115234375" xlink:href="#BitstreamVeraSans-Roman-30"/>
      </g>
     </g>
    </g>
    <g id="xtick_5">
     <g id="line2d_12">
      <g>
       <use style="stroke:#000000;stroke-width:0.5;" x="777.6" xlink:href="#mc7db9fdffb" y="583.2"/>
      </g>
     </g>
     <g id="line2d_13">
      <g>
       <use style="stroke:#000000;stroke-width:0.5;" x="777.6" xlink:href="#m5a7d422ac3" y="64.8"/>
      </g>
     </g>
     <g id="text_5">
      <!-- 200000 -->
      <defs>
       <path d="
M19.1875 8.29688
L53.6094 8.29688
L53.6094 0
L7.32812 0
L7.32812 8.29688
Q12.9375 14.1094 22.625 23.8906
Q32.3281 33.6875 34.8125 36.5312
Q39.5469 41.8438 41.4219 45.5312
Q43.3125 49.2188 43.3125 52.7812
Q43.3125 58.5938 39.2344 62.25
Q35.1562 65.9219 28.6094 65.9219
Q23.9688 65.9219 18.8125 64.3125
Q13.6719 62.7031 7.8125 59.4219
L7.8125 69.3906
Q13.7656 71.7812 18.9375 73
Q24.125 74.2188 28.4219 74.2188
Q39.75 74.2188 46.4844 68.5469
Q53.2188 62.8906 53.2188 53.4219
Q53.2188 48.9219 51.5312 44.8906
Q49.8594 40.875 45.4062 35.4062
Q44.1875 33.9844 37.6406 27.2188
Q31.1094 20.4531 19.1875 8.29688" id="BitstreamVeraSans-Roman-32"/>
      </defs>
      <g transform="translate(755.533125 596.318125)scale(0.12 -0.12)">
       <use xlink:href="#BitstreamVeraSans-Roman-32"/>
       <use x="63.623046875" xlink:href="#BitstreamVeraSans-Roman-30"/>
       <use x="127.24609375" xlink:href="#BitstreamVeraSans-Roman-30"/>
       <use x="190.869140625" xlink:href="#BitstreamVeraSans-Roman-30"/>
       <use x="254.4921875" xlink:href="#BitstreamVeraSans-Roman-30"/>
       <use x="318.115234375" xlink:href="#BitstreamVeraSans-Roman-30"/>
      </g>
     </g>
    </g>
    <g id="text_6">
     <!-- t / ms -->
     <defs>
      <path d="
M25.3906 72.9062
L33.6875 72.9062
L8.29688 -9.28125
L0 -9.28125
z
" id="BitstreamVeraSans-Roman-2f"/>
      <path id="BitstreamVeraSans-Roman-20"/>
      <path d="
M44.2812 53.0781
L44.2812 44.5781
Q40.4844 46.5312 36.375 47.5
Q32.2812 48.4844 27.875 48.4844
Q21.1875 48.4844 17.8438 46.4375
Q14.5 44.3906 14.5 40.2812
Q14.5 37.1562 16.8906 35.375
Q19.2812 33.5938 26.5156 31.9844
L29.5938 31.2969
Q39.1562 29.25 43.1875 25.5156
Q47.2188 21.7812 47.2188 15.0938
Q47.2188 7.46875 41.1875 3.01562
Q35.1562 -1.42188 24.6094 -1.42188
Q20.2188 -1.42188 15.4531 -0.5625
Q10.6875 0.296875 5.42188 2
L5.42188 11.2812
Q10.4062 8.6875 15.2344 7.39062
Q20.0625 6.10938 24.8125 6.10938
Q31.1562 6.10938 34.5625 8.28125
Q37.9844 10.4531 37.9844 14.4062
Q37.9844 18.0625 35.5156 20.0156
Q33.0625 21.9688 24.7031 23.7812
L21.5781 24.5156
Q13.2344 26.2656 9.51562 29.9062
Q5.8125 33.5469 5.8125 39.8906
Q5.8125 47.6094 11.2812 51.7969
Q16.75 56 26.8125 56
Q31.7812 56 36.1719 55.2656
Q40.5781 54.5469 44.2812 53.0781" id="BitstreamVeraSans-Roman-73"/>
      <path d="
M18.3125 70.2188
L18.3125 54.6875
L36.8125 54.6875
L36.8125 47.7031
L18.3125 47.7031
L18.3125 18.0156
Q18.3125 11.3281 20.1406 9.42188
Q21.9688 7.51562 27.5938 7.51562
L36.8125 7.51562
L36.8125 0
L27.5938 0
Q17.1875 0 13.2344 3.875
Q9.28125 7.76562 9.28125 18.0156
L9.28125 47.7031
L2.6875 47.7031
L2.6875 54.6875
L9.28125 54.6875
L9.28125 70.2188
z
" id="BitstreamVeraSans-Roman-74"/>
      <path d="
M52 44.1875
Q55.375 50.25 60.0625 53.125
Q64.75 56 71.0938 56
Q79.6406 56 84.2812 50.0156
Q88.9219 44.0469 88.9219 33.0156
L88.9219 0
L79.8906 0
L79.8906 32.7188
Q79.8906 40.5781 77.0938 44.375
Q74.3125 48.1875 68.6094 48.1875
Q61.625 48.1875 57.5625 43.5469
Q53.5156 38.9219 53.5156 30.9062
L53.5156 0
L44.4844 0
L44.4844 32.7188
Q44.4844 40.625 41.7031 44.4062
Q38.9219 48.1875 33.1094 48.1875
Q26.2188 48.1875 22.1562 43.5312
Q18.1094 38.875 18.1094 30.9062
L18.1094 0
L9.07812 0
L9.07812 54.6875
L18.1094 54.6875
L18.1094 46.1875
Q21.1875 51.2188 25.4844 53.6094
Q29.7812 56 35.6875 56
Q41.6562 56 45.8281 52.9688
Q50 49.9531 52 44.1875" id="BitstreamVeraSans-Roman-6d"/>
     </defs>
     <g transform="translate(425.9353125 612.931875)scale(0.12 -0.12)">
      <use xlink:href="#BitstreamVeraSans-Roman-74"/>
      <use x="39.208984375" xlink:href="#BitstreamVeraSans-Roman-20"/>
      <use x="70.99609375" xlink:href="#BitstreamVeraSans-Roman-2f"/>
      <use x="104.6875" xlink:href="#BitstreamVeraSans-Roman-20"/>
      <use x="136.474609375" xlink:href="#BitstreamVeraSans-Roman-6d"/>
      <use x="233.88671875" xlink:href="#BitstreamVeraSans-Roman-73"/>
     </g>
    </g>
   </g>
   <g id="matplotlib.axis_2">
    <g id="ytick_1">
     <g id="line2d_14">
      <defs>
       <path d="
M0 0
L4 0" id="md7965d1ba0" style="stroke:#000000;stroke-width:0.5;"/>
      </defs>
      <g>
       <use style="stroke:#000000;stroke-width:0.5;" x="108.0" xlink:href="#md7965d1ba0" y="583.2"/>
      </g>
     </g>
     <g id="line2d_15">
      <defs>
       <path d="
M0 0
L-4 0" id="md9a1c1a7cd" style="stroke:#000000;stroke-width:0.5;"/>
      </defs>
      <g>
       <use style="stroke:#000000;stroke-width:0.5;" x="777.6" xlink:href="#md9a1c1a7cd" y="583.2"/>
      </g>
     </g>
     <g id="text_7">
      <!-- 0 -->
      <g transform="translate(97.953125 586.51125)scale(0.12 -0.12)">
       <use xlink:href="#BitstreamVeraSans-Roman-30"/>
      </g>
     </g>
    </g>
    <g id="ytick_2">
     <g id="line2d_16">
      <g>
       <use style="stroke:#000000;stroke-width:0.5;" x="108.0" xlink:href="#md7965d1ba0" y="518.4"/>
      </g>
     </g>
     <g id="line2d_17">
      <g>
       <use style="stroke:#000000;stroke-width:0.5;" x="777.6" xlink:href="#md9a1c1a7cd" y="518.4"/>
      </g>
     </g>
     <g id="text_8">
      <!-- 200 -->
      <g transform="translate(82.77125 521.71125)scale(0.12 -0.12)">
       <use xlink:href="#BitstreamVeraSans-Roman-32"/>
       <use x="63.623046875" xlink:href="#BitstreamVeraSans-Roman-30"/>
       <use x="127.24609375" xlink:href="#BitstreamVeraSans-Roman-30"/>
      </g>
     </g>
    </g>
    <g id="ytick_3">
     <g id="line2d_18">
      <g>
       <use style="stroke:#000000;stroke-width:0.5;" x="108.0" xlink:href="#md7965d1ba0" y="453.6"/>
      </g>
     </g>
     <g id="line2d_19">
      <g>
       <use style="stroke:#000000;stroke-width:0.5;" x="777.6" xlink:href="#md9a1c1a7cd" y="453.6"/>
      </g>
     </g>
     <g id="text_9">
      <!-- 400 -->
      <defs>
       <path d="
M37.7969 64.3125
L12.8906 25.3906
L37.7969 25.3906
z

M35.2031 72.9062
L47.6094 72.9062
L47.6094 25.3906
L58.0156 25.3906
L58.0156 17.1875
L47.6094 17.1875
L47.6094 0
L37.7969 0
L37.7969 17.1875
L4.89062 17.1875
L4.89062 26.7031
z
" id="BitstreamVeraSans-Roman-34"/>
      </defs>
      <g transform="translate(82.47875 456.91125)scale(0.12 -0.12)">
       <use xlink:href="#BitstreamVeraSans-Roman-34"/>
       <use x="63.623046875" xlink:href="#BitstreamVeraSans-Roman-30"/>
       <use x="127.24609375" xlink:href="#BitstreamVeraSans-Roman-30"/>
      </g>
     </g>
    </g>
    <g id="ytick_4">
     <g id="line2d_20">
      <g>
       <use style="stroke:#000000;stroke-width:0.5;" x="108.0" xlink:href="#md7965d1ba0" y="388.8"/>
      </g>
     </g>
     <g id="line2d_21">
      <g>
       <use style="stroke:#000000;stroke-width:0.5;" x="777.6" xlink:href="#md9a1c1a7cd" y="388.8"/>
      </g>
     </g>
     <g id="text_10">
      <!-- 600 -->
      <defs>
       <path d="
M33.0156 40.375
Q26.375 40.375 22.4844 35.8281
Q18.6094 31.2969 18.6094 23.3906
Q18.6094 15.5312 22.4844 10.9531
Q26.375 6.39062 33.0156 6.39062
Q39.6562 6.39062 43.5312 10.9531
Q47.4062 15.5312 47.4062 23.3906
Q47.4062 31.2969 43.5312 35.8281
Q39.6562 40.375 33.0156 40.375
M52.5938 71.2969
L52.5938 62.3125
Q48.875 64.0625 45.0938 64.9844
Q41.3125 65.9219 37.5938 65.9219
Q27.8281 65.9219 22.6719 59.3281
Q17.5312 52.7344 16.7969 39.4062
Q19.6719 43.6562 24.0156 45.9219
Q28.375 48.1875 33.5938 48.1875
Q44.5781 48.1875 50.9531 41.5156
Q57.3281 34.8594 57.3281 23.3906
Q57.3281 12.1562 50.6875 5.35938
Q44.0469 -1.42188 33.0156 -1.42188
Q20.3594 -1.42188 13.6719 8.26562
Q6.98438 17.9688 6.98438 36.375
Q6.98438 53.6562 15.1875 63.9375
Q23.3906 74.2188 37.2031 74.2188
Q40.9219 74.2188 44.7031 73.4844
Q48.4844 72.75 52.5938 71.2969" id="BitstreamVeraSans-Roman-36"/>
      </defs>
      <g transform="translate(82.73 392.11125)scale(0.12 -0.12)">
       <use xlink:href="#BitstreamVeraSans-Roman-36"/>
       <use x="63.623046875" xlink:href="#BitstreamVeraSans-Roman-30"/>
       <use x="127.24609375" xlink:href="#BitstreamVeraSans-Roman-30"/>
      </g>
     </g>
    </g>
    <g id="ytick_5">
     <g id="line2d_22">
      <g>
       <use style="stroke:#000000;stroke-width:0.5;" x="108.0" xlink:href="#md7965d1ba0" y="324.0"/>
      </g>
     </g>
     <g id="line2d_23">
      <g>
       <use style="stroke:#000000;stroke-width:0.5;" x="777.6" xlink:href="#md9a1c1a7cd" y="324.0"/>
      </g>
     </g>
     <g id="text_11">
      <!-- 800 -->
      <defs>
       <path d="
M31.7812 34.625
Q24.75 34.625 20.7188 30.8594
Q16.7031 27.0938 16.7031 20.5156
Q16.7031 13.9219 20.7188 10.1562
Q24.75 6.39062 31.7812 6.39062
Q38.8125 6.39062 42.8594 10.1719
Q46.9219 13.9688 46.9219 20.5156
Q46.9219 27.0938 42.8906 30.8594
Q38.875 34.625 31.7812 34.625
M21.9219 38.8125
Q15.5781 40.375 12.0312 44.7188
Q8.5 49.0781 8.5 55.3281
Q8.5 64.0625 14.7188 69.1406
Q20.9531 74.2188 31.7812 74.2188
Q42.6719 74.2188 48.875 69.1406
Q55.0781 64.0625 55.0781 55.3281
Q55.0781 49.0781 51.5312 44.7188
Q48 40.375 41.7031 38.8125
Q48.8281 37.1562 52.7969 32.3125
Q56.7812 27.4844 56.7812 20.5156
Q56.7812 9.90625 50.3125 4.23438
Q43.8438 -1.42188 31.7812 -1.42188
Q19.7344 -1.42188 13.25 4.23438
Q6.78125 9.90625 6.78125 20.5156
Q6.78125 27.4844 10.7812 32.3125
Q14.7969 37.1562 21.9219 38.8125
M18.3125 54.3906
Q18.3125 48.7344 21.8438 45.5625
Q25.3906 42.3906 31.7812 42.3906
Q38.1406 42.3906 41.7188 45.5625
Q45.3125 48.7344 45.3125 54.3906
Q45.3125 60.0625 41.7188 63.2344
Q38.1406 66.4062 31.7812 66.4062
Q25.3906 66.4062 21.8438 63.2344
Q18.3125 60.0625 18.3125 54.3906" id="BitstreamVeraSans-Roman-38"/>
      </defs>
      <g transform="translate(82.705625 327.31125)scale(0.12 -0.12)">
       <use xlink:href="#BitstreamVeraSans-Roman-38"/>
       <use x="63.623046875" xlink:href="#BitstreamVeraSans-Roman-30"/>
       <use x="127.24609375" xlink:href="#BitstreamVeraSans-Roman-30"/>
      </g>
     </g>
    </g>
    <g id="ytick_6">
     <g id="line2d_24">
      <g>
       <use style="stroke:#000000;stroke-width:0.5;" x="108.0" xlink:href="#md7965d1ba0" y="259.2"/>
      </g>
     </g>
     <g id="line2d_25">
      <g>
       <use style="stroke:#000000;stroke-width:0.5;" x="777.6" xlink:href="#md9a1c1a7cd" y="259.2"/>
      </g>
     </g>
     <g id="text_12">
      <!-- 1000 -->
      <g transform="translate(75.575 262.51125)scale(0.12 -0.12)">
       <use xlink:href="#BitstreamVeraSans-Roman-31"/>
       <use x="63.623046875" xlink:href="#BitstreamVeraSans-Roman-30"/>
       <use x="127.24609375" xlink:href="#BitstreamVeraSans-Roman-30"/>
       <use x="190.869140625" xlink:href="#BitstreamVeraSans-Roman-30"/>
      </g>
     </g>
    </g>
    <g id="ytick_7">
     <g id="line2d_26">
      <g>
       <use style="stroke:#000000;stroke-width:0.5;" x="108.0" xlink:href="#md7965d1ba0" y="194.4"/>
      </g>
     </g>
     <g id="line2d_27">
      <g>
       <use style="stroke:#000000;stroke-width:0.5;" x="777.6" xlink:href="#md9a1c1a7cd" y="194.4"/>
      </g>
     </g>
     <g id="text_13">
      <!-- 1200 -->
      <g transform="translate(75.575 197.71125)scale(0.12 -0.12)">
       <use xlink:href="#BitstreamVeraSans-Roman-31"/>
       <use x="63.623046875" xlink:href="#BitstreamVeraSans-Roman-32"/>
       <use x="127.24609375" xlink:href="#BitstreamVeraSans-Roman-30"/>
       <use x="190.869140625" xlink:href="#BitstreamVeraSans-Roman-30"/>
      </g>
     </g>
    </g>
    <g id="ytick_8">
     <g id="line2d_28">
      <g>
       <use style="stroke:#000000;stroke-width:0.5;" x="108.0" xlink:href="#md7965d1ba0" y="129.6"/>
      </g>
     </g>
     <g id="line2d_29">
      <g>
       <use style="stroke:#000000;stroke-width:0.5;" x="777.6" xlink:href="#md9a1c1a7cd" y="129.6"/>
      </g>
     </g>
     <g id="text_14">
      <!-- 1400 -->
      <g transform="translate(75.575 132.91125)scale(0.12 -0.12)">
       <use xlink:href="#BitstreamVeraSans-Roman-31"/>
       <use x="63.623046875" xlink:href="#BitstreamVeraSans-Roman-34"/>
       <use x="127.24609375" xlink:href="#BitstreamVeraSans-Roman-30"/>
       <use x="190.869140625" xlink:href="#BitstreamVeraSans-Roman-30"/>
      </g>
     </g>
    </g>
    <g id="ytick_9">
     <g id="line2d_30">
      <g>
       <use style="stroke:#000000;stroke-width:0.5;" x="108.0" xlink:href="#md7965d1ba0" y="64.8"/>
      </g>
     </g>
     <g id="line2d_31">
      <g>
       <use style="stroke:#000000;stroke-width:0.5;" x="777.6" xlink:href="#md9a1c1a7cd" y="64.8"/>
      </g>
     </g>
     <g id="text_15">
      <!-- 1600 -->
      <g transform="translate(75.575 68.11125)scale(0.12 -0.12)">
       <use xlink:href="#BitstreamVeraSans-Roman-31"/>
       <use x="63.623046875" xlink:href="#BitstreamVeraSans-Roman-36"/>
       <use x="127.24609375" xlink:href="#BitstreamVeraSans-Roman-30"/>
       <use x="190.869140625" xlink:href="#BitstreamVeraSans-Roman-30"/>
      </g>
     </g>
    </g>
    <g id="text_16">
     <!-- particle numbers -->
     <defs>
      <path d="
M48.6875 27.2969
Q48.6875 37.2031 44.6094 42.8438
Q40.5312 48.4844 33.4062 48.4844
Q26.2656 48.4844 22.1875 42.8438
Q18.1094 37.2031 18.1094 27.2969
Q18.1094 17.3906 22.1875 11.75
Q26.2656 6.10938 33.4062 6.10938
Q40.5312 6.10938 44.6094 11.75
Q48.6875 17.3906 48.6875 27.2969
M18.1094 46.3906
Q20.9531 51.2656 25.2656 53.625
Q29.5938 56 35.5938 56
Q45.5625 56 51.7812 48.0938
Q58.0156 40.1875 58.0156 27.2969
Q58.0156 14.4062 51.7812 6.48438
Q45.5625 -1.42188 35.5938 -1.42188
Q29.5938 -1.42188 25.2656 0.953125
Q20.9531 3.32812 18.1094 8.20312
L18.1094 0
L9.07812 0
L9.07812 75.9844
L18.1094 75.9844
z
" id="BitstreamVeraSans-Roman-62"/>
      <path d="
M9.42188 54.6875
L18.4062 54.6875
L18.4062 0
L9.42188 0
z

M9.42188 75.9844
L18.4062 75.9844
L18.4062 64.5938
L9.42188 64.5938
z
" id="BitstreamVeraSans-Roman-69"/>
      <path d="
M41.1094 46.2969
Q39.5938 47.1719 37.8125 47.5781
Q36.0312 48 33.8906 48
Q26.2656 48 22.1875 43.0469
Q18.1094 38.0938 18.1094 28.8125
L18.1094 0
L9.07812 0
L9.07812 54.6875
L18.1094 54.6875
L18.1094 46.1875
Q20.9531 51.1719 25.4844 53.5781
Q30.0312 56 36.5312 56
Q37.4531 56 38.5781 55.875
Q39.7031 55.7656 41.0625 55.5156
z
" id="BitstreamVeraSans-Roman-72"/>
      <path d="
M8.5 21.5781
L8.5 54.6875
L17.4844 54.6875
L17.4844 21.9219
Q17.4844 14.1562 20.5 10.2656
Q23.5312 6.39062 29.5938 6.39062
Q36.8594 6.39062 41.0781 11.0312
Q45.3125 15.6719 45.3125 23.6875
L45.3125 54.6875
L54.2969 54.6875
L54.2969 0
L45.3125 0
L45.3125 8.40625
Q42.0469 3.42188 37.7188 1
Q33.4062 -1.42188 27.6875 -1.42188
Q18.2656 -1.42188 13.375 4.4375
Q8.5 10.2969 8.5 21.5781" id="BitstreamVeraSans-Roman-75"/>
      <path d="
M9.42188 75.9844
L18.4062 75.9844
L18.4062 0
L9.42188 0
z
" id="BitstreamVeraSans-Roman-6c"/>
      <path d="
M56.2031 29.5938
L56.2031 25.2031
L14.8906 25.2031
Q15.4844 15.9219 20.4844 11.0625
Q25.4844 6.20312 34.4219 6.20312
Q39.5938 6.20312 44.4531 7.46875
Q49.3125 8.73438 54.1094 11.2812
L54.1094 2.78125
Q49.2656 0.734375 44.1875 -0.34375
Q39.1094 -1.42188 33.8906 -1.42188
Q20.7969 -1.42188 13.1562 6.1875
Q5.51562 13.8125 5.51562 26.8125
Q5.51562 40.2344 12.7656 48.1094
Q20.0156 56 32.3281 56
Q43.3594 56 49.7812 48.8906
Q56.2031 41.7969 56.2031 29.5938
M47.2188 32.2344
Q47.125 39.5938 43.0938 43.9844
Q39.0625 48.3906 32.4219 48.3906
Q24.9062 48.3906 20.3906 44.1406
Q15.875 39.8906 15.1875 32.1719
z
" id="BitstreamVeraSans-Roman-65"/>
      <path d="
M18.1094 8.20312
L18.1094 -20.7969
L9.07812 -20.7969
L9.07812 54.6875
L18.1094 54.6875
L18.1094 46.3906
Q20.9531 51.2656 25.2656 53.625
Q29.5938 56 35.5938 56
Q45.5625 56 51.7812 48.0938
Q58.0156 40.1875 58.0156 27.2969
Q58.0156 14.4062 51.7812 6.48438
Q45.5625 -1.42188 35.5938 -1.42188
Q29.5938 -1.42188 25.2656 0.953125
Q20.9531 3.32812 18.1094 8.20312
M48.6875 27.2969
Q48.6875 37.2031 44.6094 42.8438
Q40.5312 48.4844 33.4062 48.4844
Q26.2656 48.4844 22.1875 42.8438
Q18.1094 37.2031 18.1094 27.2969
Q18.1094 17.3906 22.1875 11.75
Q26.2656 6.10938 33.4062 6.10938
Q40.5312 6.10938 44.6094 11.75
Q48.6875 17.3906 48.6875 27.2969" id="BitstreamVeraSans-Roman-70"/>
      <path d="
M48.7812 52.5938
L48.7812 44.1875
Q44.9688 46.2969 41.1406 47.3438
Q37.3125 48.3906 33.4062 48.3906
Q24.6562 48.3906 19.8125 42.8438
Q14.9844 37.3125 14.9844 27.2969
Q14.9844 17.2812 19.8125 11.7344
Q24.6562 6.20312 33.4062 6.20312
Q37.3125 6.20312 41.1406 7.25
Q44.9688 8.29688 48.7812 10.4062
L48.7812 2.09375
Q45.0156 0.34375 40.9844 -0.53125
Q36.9688 -1.42188 32.4219 -1.42188
Q20.0625 -1.42188 12.7812 6.34375
Q5.51562 14.1094 5.51562 27.2969
Q5.51562 40.6719 12.8594 48.3281
Q20.2188 56 33.0156 56
Q37.1562 56 41.1094 55.1406
Q45.0625 54.2969 48.7812 52.5938" id="BitstreamVeraSans-Roman-63"/>
      <path d="
M54.8906 33.0156
L54.8906 0
L45.9062 0
L45.9062 32.7188
Q45.9062 40.4844 42.875 44.3281
Q39.8438 48.1875 33.7969 48.1875
Q26.5156 48.1875 22.3125 43.5469
Q18.1094 38.9219 18.1094 30.9062
L18.1094 0
L9.07812 0
L9.07812 54.6875
L18.1094 54.6875
L18.1094 46.1875
Q21.3438 51.125 25.7031 53.5625
Q30.0781 56 35.7969 56
Q45.2188 56 50.0469 50.1719
Q54.8906 44.3438 54.8906 33.0156" id="BitstreamVeraSans-Roman-6e"/>
      <path d="
M34.2812 27.4844
Q23.3906 27.4844 19.1875 25
Q14.9844 22.5156 14.9844 16.5
Q14.9844 11.7188 18.1406 8.90625
Q21.2969 6.10938 26.7031 6.10938
Q34.1875 6.10938 38.7031 11.4062
Q43.2188 16.7031 43.2188 25.4844
L43.2188 27.4844
z

M52.2031 31.2031
L52.2031 0
L43.2188 0
L43.2188 8.29688
Q40.1406 3.32812 35.5469 0.953125
Q30.9531 -1.42188 24.3125 -1.42188
Q15.9219 -1.42188 10.9531 3.29688
Q6 8.01562 6 15.9219
Q6 25.1406 12.1719 29.8281
Q18.3594 34.5156 30.6094 34.5156
L43.2188 34.5156
L43.2188 35.4062
Q43.2188 41.6094 39.1406 45
Q35.0625 48.3906 27.6875 48.3906
Q23 48.3906 18.5469 47.2656
Q14.1094 46.1406 10.0156 43.8906
L10.0156 52.2031
Q14.9375 54.1094 19.5781 55.0469
Q24.2188 56 28.6094 56
Q40.4844 56 46.3438 49.8438
Q52.2031 43.7031 52.2031 31.2031" id="BitstreamVeraSans-Roman-61"/>
     </defs>
     <g transform="translate(68.079375 374.78625)rotate(-90.0)scale(0.12 -0.12)">
      <use xlink:href="#BitstreamVeraSans-Roman-70"/>
      <use x="63.4765625" xlink:href="#BitstreamVeraSans-Roman-61"/>
      <use x="124.755859375" xlink:href="#BitstreamVeraSans-Roman-72"/>
      <use x="165.869140625" xlink:href="#BitstreamVeraSans-Roman-74"/>
      <use x="205.078125" xlink:href="#BitstreamVeraSans-Roman-69"/>
      <use x="232.861328125" xlink:href="#BitstreamVeraSans-Roman-63"/>
      <use x="287.841796875" xlink:href="#BitstreamVeraSans-Roman-6c"/>
      <use x="315.625" xlink:href="#BitstreamVeraSans-Roman-65"/>
      <use x="377.1484375" xlink:href="#BitstreamVeraSans-Roman-20"/>
      <use x="408.935546875" xlink:href="#BitstreamVeraSans-Roman-6e"/>
      <use x="472.314453125" xlink:href="#BitstreamVeraSans-Roman-75"/>
      <use x="535.693359375" xlink:href="#BitstreamVeraSans-Roman-6d"/>
      <use x="633.10546875" xlink:href="#BitstreamVeraSans-Roman-62"/>
      <use x="696.58203125" xlink:href="#BitstreamVeraSans-Roman-65"/>
      <use x="758.10546875" xlink:href="#BitstreamVeraSans-Roman-72"/>
      <use x="799.21875" xlink:href="#BitstreamVeraSans-Roman-73"/>
     </g>
    </g>
   </g>
   <g id="legend_1">
    <g id="patch_7">
     <path d="
M697.504 101.224
L774.1 101.224
L774.1 68.3
L697.504 68.3
z
" style="fill:#ffffff;stroke:#000000;stroke-linejoin:miter;"/>
    </g>
    <g id="line2d_32">
     <path d="
M702.404 73.9689
L712.204 73.9689" style="fill:none;stroke:#ff0000;stroke-linecap:square;"/>
    </g>
    <g id="line2d_33"/>
    <g id="text_17">
     <!-- PKAcAMP2 el.0 -->
     <defs>
      <path d="
M9.8125 72.9062
L19.6719 72.9062
L19.6719 42.0938
L52.3906 72.9062
L65.0938 72.9062
L28.9062 38.9219
L67.6719 0
L54.6875 0
L19.6719 35.1094
L19.6719 0
L9.8125 0
z
" id="BitstreamVeraSans-Roman-4b"/>
      <path d="
M34.1875 63.1875
L20.7969 26.9062
L47.6094 26.9062
z

M28.6094 72.9062
L39.7969 72.9062
L67.5781 0
L57.3281 0
L50.6875 18.7031
L17.8281 18.7031
L11.1875 0
L0.78125 0
z
" id="BitstreamVeraSans-Roman-41"/>
      <path d="
M9.8125 72.9062
L24.5156 72.9062
L43.1094 23.2969
L61.8125 72.9062
L76.5156 72.9062
L76.5156 0
L66.8906 0
L66.8906 64.0156
L48.0938 14.0156
L38.1875 14.0156
L19.3906 64.0156
L19.3906 0
L9.8125 0
z
" id="BitstreamVeraSans-Roman-4d"/>
      <path d="
M19.6719 64.7969
L19.6719 37.4062
L32.0781 37.4062
Q38.9688 37.4062 42.7188 40.9688
Q46.4844 44.5312 46.4844 51.125
Q46.4844 57.6719 42.7188 61.2344
Q38.9688 64.7969 32.0781 64.7969
z

M9.8125 72.9062
L32.0781 72.9062
Q44.3438 72.9062 50.6094 67.3594
Q56.8906 61.8125 56.8906 51.125
Q56.8906 40.3281 50.6094 34.8125
Q44.3438 29.2969 32.0781 29.2969
L19.6719 29.2969
L19.6719 0
L9.8125 0
z
" id="BitstreamVeraSans-Roman-50"/>
      <path d="
M10.6875 12.4062
L21 12.4062
L21 0
L10.6875 0
z
" id="BitstreamVeraSans-Roman-2e"/>
     </defs>
     <g transform="translate(719.90359375 76.41890625)scale(0.07 -0.07)">
      <use xlink:href="#BitstreamVeraSans-Roman-50"/>
      <use x="60.302734375" xlink:href="#BitstreamVeraSans-Roman-4b"/>
      <use x="124.12890625" xlink:href="#BitstreamVeraSans-Roman-41"/>
      <use x="190.787109375" xlink:href="#BitstreamVeraSans-Roman-63"/>
      <use x="245.767578125" xlink:href="#BitstreamVeraSans-Roman-41"/>
      <use x="314.17578125" xlink:href="#BitstreamVeraSans-Roman-4d"/>
      <use x="400.455078125" xlink:href="#BitstreamVeraSans-Roman-50"/>
      <use x="460.7578125" xlink:href="#BitstreamVeraSans-Roman-32"/>
      <use x="524.380859375" xlink:href="#BitstreamVeraSans-Roman-20"/>
      <use x="556.16796875" xlink:href="#BitstreamVeraSans-Roman-65"/>
      <use x="617.69140625" xlink:href="#BitstreamVeraSans-Roman-6c"/>
      <use x="645.474609375" xlink:href="#BitstreamVeraSans-Roman-2e"/>
      <use x="677.26171875" xlink:href="#BitstreamVeraSans-Roman-30"/>
     </g>
    </g>
    <g id="line2d_34">
     <path d="
M702.404 84.2436
L712.204 84.2436" style="fill:none;stroke:#008000;stroke-linecap:square;"/>
    </g>
    <g id="line2d_35"/>
    <g id="text_18">
     <!-- PKAcAMP2 el.1 -->
     <g transform="translate(719.90359375 86.69359375)scale(0.07 -0.07)">
      <use xlink:href="#BitstreamVeraSans-Roman-50"/>
      <use x="60.302734375" xlink:href="#BitstreamVeraSans-Roman-4b"/>
      <use x="124.12890625" xlink:href="#BitstreamVeraSans-Roman-41"/>
      <use x="190.787109375" xlink:href="#BitstreamVeraSans-Roman-63"/>
      <use x="245.767578125" xlink:href="#BitstreamVeraSans-Roman-41"/>
      <use x="314.17578125" xlink:href="#BitstreamVeraSans-Roman-4d"/>
      <use x="400.455078125" xlink:href="#BitstreamVeraSans-Roman-50"/>
      <use x="460.7578125" xlink:href="#BitstreamVeraSans-Roman-32"/>
      <use x="524.380859375" xlink:href="#BitstreamVeraSans-Roman-20"/>
      <use x="556.16796875" xlink:href="#BitstreamVeraSans-Roman-65"/>
      <use x="617.69140625" xlink:href="#BitstreamVeraSans-Roman-6c"/>
      <use x="645.474609375" xlink:href="#BitstreamVeraSans-Roman-2e"/>
      <use x="677.26171875" xlink:href="#BitstreamVeraSans-Roman-31"/>
     </g>
    </g>
    <g id="line2d_36">
     <path d="
M702.404 94.5183
L712.204 94.5183" style="fill:none;stroke:#0000ff;stroke-linecap:square;"/>
    </g>
    <g id="line2d_37"/>
    <g id="text_19">
     <!-- PKAcAMP2 el.2 -->
     <g transform="translate(719.90359375 96.96828125)scale(0.07 -0.07)">
      <use xlink:href="#BitstreamVeraSans-Roman-50"/>
      <use x="60.302734375" xlink:href="#BitstreamVeraSans-Roman-4b"/>
      <use x="124.12890625" xlink:href="#BitstreamVeraSans-Roman-41"/>
      <use x="190.787109375" xlink:href="#BitstreamVeraSans-Roman-63"/>
      <use x="245.767578125" xlink:href="#BitstreamVeraSans-Roman-41"/>
      <use x="314.17578125" xlink:href="#BitstreamVeraSans-Roman-4d"/>
      <use x="400.455078125" xlink:href="#BitstreamVeraSans-Roman-50"/>
      <use x="460.7578125" xlink:href="#BitstreamVeraSans-Roman-32"/>
      <use x="524.380859375" xlink:href="#BitstreamVeraSans-Roman-20"/>
      <use x="556.16796875" xlink:href="#BitstreamVeraSans-Roman-65"/>
      <use x="617.69140625" xlink:href="#BitstreamVeraSans-Roman-6c"/>
      <use x="645.474609375" xlink:href="#BitstreamVeraSans-Roman-2e"/>
      <use x="677.26171875" xlink:href="#BitstreamVeraSans-Roman-32"/>
     </g>
    </g>
   </g>
  </g>
 </g>
 <defs>
  <clipPath id="p7ceb695115">
   <rect height="518.4" width="669.6" x="108.0" y="64.8"/>
  </clipPath>
 </defs>
</svg>
