<?xml version="1.0" encoding="utf-8" standalone="no"?>
<!DOCTYPE svg PUBLIC "-//W3C//DTD SVG 1.1//EN"
  "http://www.w3.org/Graphics/SVG/1.1/DTD/svg11.dtd">
<!-- Created with matplotlib (http://matplotlib.org/) -->
<svg height="648pt" version="1.1" viewBox="0 0 864 648" width="864pt" xmlns="http://www.w3.org/2000/svg" xmlns:xlink="http://www.w3.org/1999/xlink">
 <defs>
  <style type="text/css">
*{stroke-linecap:butt;stroke-linejoin:round;}
  </style>
 </defs>
 <g id="figure_1">
  <g id="patch_1">
   <path d="
M0 648
L864 648
L864 0
L0 0
z
" style="fill:#ffffff;"/>
  </g>
  <g id="axes_1">
   <g id="patch_2">
    <path d="
M108 583.2
L777.6 583.2
L777.6 64.8
L108 64.8
z
" style="fill:#ffffff;"/>
   </g>
   <g id="line2d_1">
    <path clip-path="url(#p7ceb695115)" d="
M108 556.706
L108.67 556.662
L109.339 556.803
L110.009 556.637
L110.678 556.909
L112.018 556.56
L112.687 556.717
L113.357 556.552
L114.026 556.675
L114.696 556.617
L115.366 557.004
L116.035 556.689
L116.705 556.733
L117.374 556.953
L118.044 556.556
L118.714 556.504
L120.053 556.766
L120.722 556.548
L121.392 556.893
L122.731 556.711
L123.401 556.762
L124.07 556.52
L124.74 556.542
L125.41 556.837
L128.088 556.734
L128.758 556.859
L129.427 557.096
L130.097 556.632
L130.766 556.4
L132.106 556.556
L132.775 556.508
L133.445 556.863
L134.114 556.631
L134.784 556.878
L136.793 556.625
L137.462 557.006
L138.132 556.797
L138.802 556.93
L139.471 556.584
L140.141 556.718
L140.81 556.672
L142.15 556.9
L142.819 556.691
L144.158 556.83
L144.828 556.612
L145.498 556.643
L146.167 556.8
L147.506 556.663
L148.176 556.851
L148.846 556.735
L149.515 556.763
L150.185 556.626
L150.854 556.777
L151.524 556.591
L152.194 556.821
L152.863 556.73
L154.202 556.865
L154.872 556.657
L156.211 556.592
L156.881 557.028
L158.89 556.758
L159.559 556.72
L160.229 556.833
L160.898 556.681
L161.568 556.842
L162.238 556.623
L162.907 556.693
L164.246 556.674
L164.916 556.649
L165.586 556.919
L166.255 556.618
L166.925 556.609
L167.594 556.8
L168.264 556.682
L168.934 556.953
L169.603 556.607
L170.942 556.726
L171.612 556.636
L172.282 556.693
L172.951 556.514
L173.621 556.793
L174.29 556.619
L176.299 556.81
L177.638 556.844
L178.308 556.9
L180.317 556.553
L181.656 556.934
L182.326 556.56
L182.995 556.764
L183.665 556.733
L184.334 556.585
L185.674 556.571
L186.343 556.185
L187.013 556.689
L189.022 556.832
L189.691 556.612
L191.03 556.688
L191.7 556.855
L192.37 556.734
L193.039 556.853
L193.709 556.819
L194.378 556.526
L195.718 556.795
L196.387 556.622
L197.057 556.884
L197.726 556.624
L198.396 556.837
L199.066 556.905
L199.735 556.68
L200.405 556.625
L201.074 556.756
L201.744 556.67
L202.414 556.808
L203.083 556.526
L204.422 556.988
L205.092 556.866
L205.762 556.864
L206.431 556.638
L208.44 556.762
L211.118 556.915
L211.788 556.594
L212.458 556.797
L213.127 556.862
L213.797 556.702
L216.475 556.729
L217.814 556.793
L219.154 556.452
L219.823 556.787
L220.493 556.793
L221.162 557.027
L221.832 556.655
L223.841 556.842
L227.858 556.668
L229.198 556.778
L231.206 556.602
L231.876 556.983
L232.546 556.378
L233.215 556.692
L238.572 556.671
L239.911 556.798
L240.581 556.726
L241.25 556.451
L241.92 556.675
L243.929 556.694
L244.598 556.922
L245.268 556.746
L245.938 556.69
L247.277 556.975
L247.946 556.677
L248.616 556.67
L249.286 556.777
L250.625 556.482
L251.294 556.687
L251.964 556.647
L252.634 556.813
L253.303 556.725
L253.973 556.492
L254.642 556.809
L255.982 556.848
L256.651 556.668
L257.99 556.751
L258.66 556.871
L259.33 556.685
L259.999 556.868
L260.669 556.847
L262.008 556.527
L262.678 556.78
L263.347 556.872
L264.017 556.735
L264.686 556.904
L266.026 556.64
L267.365 556.888
L268.704 556.563
L270.043 556.609
L270.713 556.973
L271.382 556.657
L272.052 556.781
L273.391 556.752
L274.061 556.535
L274.73 556.557
L275.4 556.951
L276.07 556.806
L278.078 556.75
L278.748 556.696
L279.418 556.977
L280.087 556.706
L281.426 556.561
L282.096 556.876
L282.766 556.957
L283.435 556.783
L284.105 556.748
L284.774 556.945
L285.444 556.612
L286.114 556.828
L286.783 556.701
L287.453 556.915
L288.122 556.657
L288.792 556.884
L289.462 556.789
L290.131 556.95
L290.801 556.777
L291.47 556.906
L292.81 556.601
L293.479 556.736
L294.818 556.522
L296.158 556.823
L297.497 556.707
L298.166 556.436
L298.836 556.71
L299.506 556.685
L300.175 556.773
L301.514 556.72
L302.184 556.745
L302.854 556.575
L303.523 556.769
L304.193 556.748
L304.862 556.841
L305.532 556.722
L308.21 556.859
L308.88 556.681
L309.55 556.643
L310.219 556.726
L310.889 556.681
L311.558 556.809
L312.228 556.681
L312.898 556.876
L313.567 556.736
L314.237 556.737
L314.906 557.078
L315.576 556.733
L316.246 556.708
L316.915 556.824
L317.585 556.755
L318.254 556.805
L319.594 556.633
L320.263 556.686
L320.933 556.899
L322.272 556.768
L322.942 556.956
L323.611 556.879
L324.281 556.516
L325.62 556.736
L326.29 556.677
L326.959 556.832
L327.629 556.864
L328.298 556.675
L328.968 556.771
L329.638 556.608
L330.307 556.836
L330.977 556.598
L332.986 556.892
L334.325 556.631
L334.994 556.815
L337.003 556.588
L337.673 556.723
L339.682 556.678
L340.351 557.067
L341.021 556.674
L341.69 556.796
L343.699 556.638
L344.369 556.795
L345.038 556.592
L345.708 556.785
L346.378 556.56
L347.047 556.78
L347.717 556.645
L348.386 556.844
L349.726 556.669
L350.395 556.565
L351.065 556.817
L351.734 556.464
L353.074 556.679
L353.743 556.666
L354.413 556.785
L355.082 556.642
L356.422 556.837
L357.091 556.488
L357.761 556.839
L359.1 556.73
L360.439 556.834
L362.448 556.886
L363.787 556.668
L364.457 556.892
L365.796 556.524
L366.466 556.884
L367.135 556.49
L367.805 556.783
L368.474 556.564
L369.144 556.734
L369.814 556.722
L370.483 556.591
L372.492 556.837
L373.162 556.53
L373.831 556.756
L375.17 556.616
L375.84 556.815
L377.179 556.698
L378.518 556.82
L379.188 556.463
L379.858 556.899
L381.197 556.653
L382.536 556.638
L383.875 556.915
L384.545 556.747
L385.214 556.714
L385.884 556.511
L386.554 556.694
L387.223 556.665
L387.893 556.811
L388.562 556.714
L390.571 556.805
L391.241 556.725
L392.58 556.758
L393.919 556.745
L395.258 556.842
L396.598 556.543
L398.606 556.959
L399.276 556.685
L399.946 556.75
L400.615 556.953
L401.285 556.847
L401.954 556.606
L403.294 556.83
L404.633 556.635
L405.302 556.637
L405.972 556.87
L406.642 556.696
L407.981 556.567
L408.65 556.8
L410.659 556.927
L411.998 556.727
L413.338 556.693
L414.007 556.576
L415.346 556.717
L416.016 557.007
L416.686 556.585
L417.355 556.763
L418.694 556.785
L419.364 556.625
L420.034 556.673
L420.703 556.571
L421.373 556.836
L422.042 556.642
L422.712 556.714
L423.382 556.9
L424.051 556.871
L424.721 556.711
L425.39 556.822
L428.738 556.899
L429.408 556.655
L430.078 556.84
L432.086 556.765
L432.756 556.678
L433.426 557.082
L434.095 556.654
L434.765 556.879
L436.104 556.745
L436.774 556.79
L438.113 556.59
L438.782 556.752
L441.461 556.571
L442.13 556.893
L442.8 556.844
L443.47 556.605
L444.139 556.597
L444.809 556.891
L445.478 556.989
L446.148 556.658
L446.818 557.129
L448.157 556.956
L448.826 557.247
L449.496 556.992
L450.166 557.18
L450.835 557.564
L451.505 557.324
L452.174 557.338
L452.844 557.667
L453.514 557.693
L454.183 557.542
L454.853 557.651
L456.192 558.045
L456.862 557.698
L457.531 557.901
L458.201 558.23
L458.87 558.276
L460.21 558.181
L460.879 558.251
L461.549 558.089
L462.218 558.502
L462.888 558.307
L463.558 558.478
L464.227 558.368
L464.897 558.41
L465.566 558.253
L466.236 558.405
L466.906 558.744
L467.575 558.604
L468.245 558.703
L468.914 558.379
L469.584 558.676
L470.923 558.782
L471.593 558.465
L472.932 558.83
L474.271 558.872
L474.941 558.589
L475.61 558.777
L476.28 558.687
L476.95 558.801
L478.958 558.529
L480.298 558.671
L480.967 559.039
L481.637 558.683
L482.976 558.921
L483.646 558.69
L484.315 558.633
L484.985 558.939
L485.654 558.775
L487.663 558.782
L488.333 558.53
L489.002 558.843
L489.672 558.668
L490.342 558.831
L491.011 558.707
L491.681 558.758
L492.35 558.595
L493.02 558.613
L493.69 558.792
L494.359 558.457
L495.029 558.726
L495.698 558.595
L497.038 558.877
L497.707 558.771
L498.377 558.797
L499.046 558.648
L501.055 558.638
L501.725 558.873
L502.394 558.419
L503.064 558.597
L505.073 558.729
L505.742 558.621
L506.412 558.697
L507.082 558.598
L507.751 558.709
L508.421 558.673
L509.09 558.955
L509.76 558.635
L510.43 558.787
L511.099 558.594
L511.769 558.582
L513.108 558.961
L513.778 558.616
L515.117 558.684
L515.786 559.01
L516.456 558.459
L517.126 558.744
L517.795 558.504
L518.465 558.705
L520.474 558.568
L522.482 558.491
L523.152 558.419
L523.822 558.898
L524.491 558.626
L525.161 558.562
L525.83 558.825
L526.5 558.517
L527.17 558.801
L527.839 558.522
L528.509 558.567
L529.178 558.351
L529.848 558.504
L531.857 558.426
L532.526 558.737
L533.196 558.37
L533.866 558.595
L535.205 558.578
L535.874 558.606
L536.544 558.384
L538.553 558.399
L539.222 558.608
L539.892 558.506
L540.562 558.594
L541.231 558.434
L541.901 558.482
L542.57 558.307
L543.24 558.421
L543.91 558.398
L545.249 558.508
L545.918 558.258
L546.588 558.392
L547.258 558.158
L547.927 558.17
L548.597 558.377
L549.936 558.399
L550.606 558.239
L551.275 558.462
L551.945 558.231
L552.614 558.431
L553.284 558.234
L553.954 558.389
L554.623 558.308
L555.962 558.442
L556.632 558.312
L557.302 558.457
L557.971 558.315
L558.641 558.609
L559.31 558.219
L559.98 558.325
L560.65 558.592
L561.319 558.342
L561.989 558.222
L562.658 558.357
L563.328 558.17
L564.667 558.322
L565.337 558.21
L566.006 558.226
L566.676 558.357
L568.015 558.394
L568.685 558.175
L570.694 558.123
L571.363 558.339
L572.033 558.173
L572.702 558.155
L573.372 557.824
L574.042 558.219
L575.381 558.175
L576.05 558.043
L576.72 558.358
L578.059 558.072
L578.729 558.284
L580.068 558.213
L580.738 557.806
L581.407 558.128
L582.077 558.212
L582.746 558.075
L583.416 558.338
L584.755 558.103
L585.425 558.192
L586.094 558.011
L586.764 558.152
L588.103 558.133
L588.773 558.305
L589.442 557.917
L590.112 557.908
L590.782 558.468
L591.451 558.069
L595.469 558.025
L596.138 557.912
L596.808 558.043
L597.478 557.936
L599.486 558.084
L600.156 557.976
L600.826 558.081
L602.165 557.992
L602.834 558.265
L603.504 557.954
L604.174 558.176
L605.513 557.829
L608.191 557.898
L608.861 558.196
L609.53 557.959
L610.2 558.181
L610.87 558.189
L611.539 558.036
L612.878 558.046
L613.548 558.11
L614.218 557.935
L615.557 558.236
L616.896 557.761
L617.566 558.157
L618.905 558.009
L619.574 557.939
L620.244 558.112
L620.914 558.038
L621.583 557.828
L622.253 557.985
L624.262 557.9
L624.931 558.03
L625.601 557.927
L626.27 557.662
L626.94 557.989
L627.61 557.835
L628.279 557.993
L628.949 557.742
L630.288 557.698
L630.958 557.662
L631.627 558.009
L633.636 557.956
L634.306 557.737
L634.975 557.781
L635.645 558.032
L636.314 557.882
L636.984 557.999
L637.654 557.766
L638.323 558.333
L638.993 558.013
L639.662 557.935
L640.332 558.06
L641.671 557.825
L643.01 558.076
L643.68 557.92
L644.35 558.033
L645.019 558.015
L645.689 558.192
L646.358 557.961
L647.028 558.001
L649.037 557.824
L651.715 557.895
L652.385 557.694
L653.054 557.874
L653.724 557.725
L654.394 557.885
L655.063 557.817
L655.733 558.066
L658.411 557.931
L659.081 557.679
L659.75 557.821
L664.438 557.827
L665.107 557.64
L665.777 557.757
L667.116 557.624
L667.786 557.907
L669.125 557.969
L671.803 557.821
L672.473 557.711
L673.142 557.787
L675.151 557.56
L675.821 557.681
L676.49 557.67
L677.16 557.846
L678.499 557.552
L680.508 557.864
L681.178 557.819
L681.847 557.924
L682.517 557.698
L683.186 557.747
L683.856 557.482
L684.526 557.848
L685.195 557.921
L685.865 557.865
L686.534 557.679
L687.874 557.963
L688.543 557.811
L689.213 557.805
L689.882 557.666
L690.552 557.975
L691.222 557.734
L693.23 557.679
L693.9 557.968
L695.239 557.634
L695.909 557.796
L697.248 557.833
L701.266 557.623
L701.935 557.524
L703.274 557.807
L703.944 557.813
L704.614 557.607
L705.953 557.802
L706.622 557.638
L708.631 557.919
L709.301 557.615
L709.97 557.638
L710.64 557.882
L711.31 557.701
L711.979 557.694
L712.649 557.871
L713.318 557.518
L713.988 557.963
L714.658 557.748
L715.997 557.886
L716.666 557.719
L717.336 557.723
L718.006 557.561
L718.675 557.874
L720.684 557.856
L721.354 557.499
L722.023 557.587
L722.693 557.813
L723.362 557.495
L724.032 557.78
L724.702 557.766
L725.371 557.634
L726.041 557.968
L726.71 557.701
L727.38 557.621
L728.05 557.835
L728.719 557.74
L729.389 557.959
L730.728 557.623
L731.398 557.71
L732.067 557.552
L732.737 557.905
L733.406 557.732
L734.076 557.69
L734.746 557.959
L736.754 557.687
L737.424 557.577
L738.094 557.757
L738.763 557.471
L740.102 557.772
L742.111 557.686
L742.781 557.628
L743.45 557.849
L744.12 557.793
L744.79 557.573
L745.459 557.844
L746.129 557.645
L746.798 557.622
L747.468 557.738
L748.807 557.549
L749.477 557.592
L750.146 557.789
L750.816 557.865
L751.486 557.689
L754.164 557.612
L754.834 557.742
L755.503 557.566
L756.173 557.657
L756.842 557.869
L758.182 557.607
L758.851 557.839
L760.19 557.625
L760.86 557.734
L761.53 557.606
L762.199 557.889
L762.869 557.649
L764.878 557.489
L765.547 557.76
L766.217 557.609
L766.886 557.796
L767.556 557.673
L768.226 557.419
L768.895 557.62
L769.565 557.449
L770.234 557.683
L774.922 557.627
L775.591 557.57
L776.261 557.719
L776.93 557.623
L777.6 557.802
L777.6 557.802" style="fill:none;stroke:#ff0000;stroke-linecap:square;"/>
   </g>
   <g id="line2d_2">
    <path clip-path="url(#p7ceb695115)" d="
M108 88.4244
L108.67 88.5136
L109.339 88.3565
L110.009 88.5933
L110.678 88.3035
L111.348 88.3115
L112.018 88.5887
L112.687 88.4683
L113.357 88.5754
L114.026 88.3885
L114.696 88.766
L115.366 88.4053
L116.035 88.5413
L117.374 88.2843
L120.722 88.6886
L121.392 88.3232
L122.062 88.6333
L122.731 88.3399
L123.401 88.3783
L124.07 88.6754
L124.74 88.3974
L125.41 88.2704
L126.079 88.5878
L127.418 88.6209
L128.088 88.7472
L128.758 88.3906
L129.427 88.174
L130.766 88.7563
L131.436 88.6075
L132.775 88.8798
L133.445 88.4823
L134.114 88.6617
L134.784 88.5714
L135.454 88.6912
L136.123 88.3667
L136.793 88.7379
L137.462 88.4328
L138.132 88.6299
L138.802 88.242
L139.471 88.4162
L140.141 88.7516
L141.48 88.3867
L142.819 88.7984
L143.489 88.3974
L144.158 88.5325
L144.828 88.5202
L145.498 88.7258
L146.167 88.5311
L146.837 88.815
L147.506 88.4638
L151.524 88.6201
L152.194 88.4271
L152.863 88.6271
L153.533 88.3216
L154.202 88.3754
L155.542 88.9282
L156.881 88.2402
L157.55 88.4665
L158.22 88.3758
L158.89 88.4625
L159.559 88.7352
L160.229 88.4127
L160.898 88.4138
L161.568 88.5347
L162.238 88.7903
L163.577 88.5228
L164.246 88.6311
L164.916 88.6019
L165.586 88.3193
L166.255 88.9017
L166.925 88.6587
L167.594 88.5903
L168.934 88.6184
L169.603 88.9516
L170.273 88.696
L170.942 88.8194
L171.612 88.6542
L172.282 88.7787
L173.621 88.6087
L174.29 88.4983
L174.96 88.7323
L175.63 88.4852
L176.969 88.8667
L177.638 88.6205
L178.308 88.5024
L178.978 88.6301
L179.647 88.9292
L180.317 88.7931
L180.986 88.4428
L181.656 88.6049
L182.326 88.932
L182.995 88.6735
L183.665 88.7747
L184.334 88.6634
L185.004 88.8138
L185.674 88.8252
L186.343 89.1642
L188.352 88.4981
L189.691 88.7365
L191.03 88.5449
L191.7 88.7896
L192.37 88.5926
L193.039 88.7628
L193.709 88.5465
L195.048 88.8573
L195.718 88.566
L196.387 88.7547
L197.057 88.2697
L197.726 88.853
L198.396 88.5834
L199.066 88.4551
L200.405 88.9083
L201.744 88.4607
L203.083 88.622
L203.753 88.4126
L204.422 88.5723
L205.092 88.357
L205.762 88.6007
L207.101 88.6175
L207.77 88.7643
L208.44 88.5449
L210.449 88.6467
L211.118 88.5296
L212.458 88.7002
L213.127 88.4949
L213.797 88.7737
L215.136 88.4585
L215.806 88.818
L217.814 88.4867
L218.484 88.6548
L219.823 88.5191
L220.493 88.5641
L221.162 88.3995
L221.832 88.7082
L222.502 88.5084
L223.171 88.7662
L224.51 88.4937
L225.18 88.7861
L225.85 88.3596
L226.519 88.6454
L228.528 88.5482
L229.198 88.7696
L229.867 88.6144
L231.206 88.75
L231.876 88.2154
L232.546 88.9247
L233.215 88.5106
L234.554 88.5856
L235.894 88.7207
L236.563 88.5456
L237.233 88.7043
L240.581 88.4227
L241.25 88.8109
L241.92 88.5299
L243.259 88.6376
L244.598 88.2646
L245.268 88.4769
L245.938 88.8815
L246.607 88.4704
L247.277 88.3665
L247.946 88.4184
L248.616 88.6113
L249.286 88.4389
L249.955 88.4572
L250.625 88.8205
L251.294 88.7706
L251.964 88.4935
L252.634 88.4454
L253.973 88.8637
L255.312 88.3513
L256.651 88.6369
L257.99 88.4926
L259.33 88.7203
L259.999 88.3369
L261.338 88.2947
L262.008 88.867
L262.678 88.5066
L263.347 88.4208
L264.686 88.596
L265.356 88.2849
L266.026 88.7081
L266.695 88.4038
L267.365 88.6791
L268.034 88.4152
L268.704 88.6415
L270.043 88.8683
L270.713 88.3933
L271.382 88.7735
L272.052 88.4596
L273.391 88.5629
L274.061 88.8455
L274.73 88.7032
L275.4 88.4362
L276.07 88.7658
L278.748 88.4669
L279.418 88.1179
L280.087 88.9122
L280.757 88.7064
L281.426 88.6693
L282.096 88.3544
L282.766 88.4778
L283.435 88.4162
L284.105 88.481
L284.774 88.6822
L285.444 88.5361
L286.114 88.6981
L287.453 88.2402
L288.122 88.5134
L288.792 88.4298
L289.462 88.4822
L290.131 88.3631
L291.47 88.5902
L292.81 88.706
L293.479 88.5222
L294.149 88.8446
L295.488 88.7947
L296.158 88.3774
L296.827 88.7437
L297.497 88.9423
L298.166 88.9726
L298.836 88.7253
L299.506 88.7974
L300.845 88.4283
L302.184 88.8847
L303.523 88.4722
L304.193 88.5983
L305.532 88.5047
L306.871 88.4088
L308.21 88.5565
L308.88 88.5388
L309.55 88.2704
L310.219 88.7177
L310.889 88.8163
L312.228 88.4545
L312.898 88.607
L313.567 88.2957
L314.237 88.4749
L314.906 88.1893
L315.576 88.6787
L316.246 88.4865
L316.915 88.6042
L322.272 88.4317
L322.942 88.2209
L323.611 88.648
L324.281 88.7182
L327.629 88.445
L328.298 88.6121
L328.968 88.487
L329.638 88.7818
L330.307 88.3061
L330.977 88.6126
L331.646 88.492
L332.316 88.7731
L332.986 88.5178
L333.655 88.5234
L334.325 88.7518
L334.994 88.4488
L337.003 88.8206
L337.673 88.6058
L339.012 88.5742
L339.682 88.435
L340.351 88.0543
L341.021 88.7725
L341.69 88.4744
L342.36 88.5232
L343.03 88.3216
L343.699 88.5588
L344.369 88.4576
L345.038 88.6636
L346.378 88.6204
L347.047 88.706
L348.386 88.6108
L349.056 88.4626
L349.726 88.7612
L351.065 88.6408
L351.734 88.9415
L352.404 88.6065
L353.074 88.6014
L353.743 88.4519
L355.082 88.7372
L355.752 88.3705
L356.422 88.6546
L357.091 88.6262
L357.761 88.4716
L358.43 88.5346
L359.1 88.7339
L359.77 88.5505
L361.778 88.6238
L362.448 88.413
L363.787 88.7133
L364.457 88.5307
L365.126 88.7043
L366.466 88.4165
L367.135 88.7284
L367.805 88.5119
L368.474 88.572
L369.814 88.3372
L370.483 88.7025
L371.153 88.3735
L371.822 88.5728
L373.162 88.7242
L373.831 88.4591
L375.17 88.7856
L375.84 88.4416
L377.179 88.794
L377.849 88.4384
L378.518 88.5579
L379.188 88.946
L379.858 88.4302
L380.527 88.9228
L382.536 88.7825
L383.206 88.4166
L383.875 88.516
L385.214 88.4626
L385.884 88.8158
L387.893 88.3316
L388.562 88.6192
L389.232 88.7226
L391.241 88.6368
L391.91 88.2853
L393.25 88.5368
L393.919 88.6018
L394.589 88.4377
L397.267 88.6146
L398.606 88.4709
L399.276 88.4843
L399.946 88.3328
L401.285 88.3574
L403.294 88.5636
L403.963 88.36
L404.633 88.7164
L406.642 88.4542
L407.311 88.7493
L410.659 88.2905
L411.329 88.6591
L411.998 88.4083
L415.346 88.5685
L416.016 88.4046
L416.686 88.7188
L417.355 88.5527
L418.025 88.6169
L418.694 88.435
L419.364 88.5837
L420.703 88.6016
L421.373 88.3632
L422.042 88.8903
L422.712 88.5317
L423.382 88.4276
L424.051 88.5764
L424.721 88.5038
L425.39 88.6447
L426.06 88.4543
L427.399 88.5036
L428.069 88.2006
L428.738 88.3332
L429.408 88.664
L430.078 88.3766
L431.417 88.636
L432.756 88.5509
L433.426 88.2684
L434.095 88.8245
L434.765 88.3505
L435.434 88.4856
L436.104 88.297
L436.774 88.6075
L437.443 88.4635
L438.113 88.7998
L438.782 88.5754
L441.461 88.6503
L442.13 88.2783
L442.8 88.3242
L443.47 88.5948
L445.478 88.5694
L446.148 88.9696
L446.818 88.8805
L447.487 89.495
L448.826 89.783
L450.166 90.6413
L450.835 90.6332
L451.505 91.2353
L452.844 91.4329
L453.514 91.8394
L454.183 92.4509
L454.853 92.4901
L456.192 92.8526
L456.862 93.429
L457.531 93.6794
L458.201 93.6299
L458.87 93.7491
L459.54 94.2395
L460.21 94.3755
L460.879 94.2241
L461.549 94.7363
L462.218 94.3736
L462.888 94.9411
L464.227 95.2655
L464.897 95.1263
L465.566 95.7008
L466.906 95.2078
L467.575 95.6018
L468.245 95.6465
L468.914 95.8708
L469.584 95.8493
L470.254 96.0681
L470.923 95.8694
L471.593 96.4145
L473.602 95.9228
L474.271 96.2433
L474.941 96.4141
L475.61 96.354
L476.28 96.5533
L476.95 96.1898
L478.289 96.6054
L478.958 96.5402
L480.298 96.693
L480.967 96.1023
L481.637 96.609
L482.306 96.4812
L482.976 96.2077
L483.646 96.516
L484.315 96.5696
L485.654 96.2504
L486.324 96.4649
L486.994 96.2259
L488.333 96.789
L489.002 96.5305
L489.672 96.5074
L490.342 96.3435
L491.011 96.4936
L491.681 96.4442
L492.35 96.5695
L493.69 96.3995
L494.359 96.802
L495.698 96.3593
L500.386 96.4199
L501.055 96.6638
L501.725 96.2127
L502.394 96.5245
L503.064 96.38
L503.734 96.5795
L505.073 96.4757
L505.742 96.4529
L506.412 96.3043
L507.082 96.5945
L507.751 96.2644
L508.421 96.4186
L509.09 96.0818
L509.76 96.2702
L510.43 96.0569
L511.099 96.3739
L512.438 96.423
L513.108 96.1032
L513.778 96.4097
L515.117 96.1938
L515.786 95.7134
L516.456 96.3297
L517.126 96.0507
L517.795 96.1962
L518.465 95.9
L519.804 95.9457
L520.474 96.1453
L521.813 95.9888
L522.482 96.0431
L523.152 95.7986
L523.822 95.8034
L524.491 96.0931
L525.161 95.7744
L526.5 95.6092
L527.839 96.1219
L528.509 95.716
L529.178 95.9662
L529.848 95.6708
L530.518 95.5782
L531.187 95.8833
L532.526 95.6204
L533.196 95.4102
L534.535 95.348
L535.205 95.6343
L535.874 95.3218
L536.544 95.4626
L537.883 95.4503
L538.553 95.5667
L539.222 95.4492
L539.892 95.1925
L540.562 95.3237
L541.901 95.329
L542.57 95.4543
L543.24 95.2544
L543.91 95.5515
L545.249 94.9359
L545.918 95.203
L546.588 95.0179
L547.927 95.3904
L548.597 95.0431
L549.936 94.9129
L550.606 95.1671
L551.275 94.8402
L551.945 95.1374
L552.614 94.9457
L553.284 95.1826
L553.954 94.7333
L555.293 94.9568
L557.302 94.8029
L557.971 94.8873
L558.641 94.5438
L559.31 94.9314
L560.65 94.5052
L561.989 94.8379
L562.658 94.6066
L563.328 94.8874
L563.998 94.7141
L566.006 94.822
L566.676 94.674
L567.346 94.385
L568.015 94.2806
L568.685 94.7767
L569.354 94.6385
L570.024 94.2472
L570.694 94.5922
L572.033 94.454
L572.702 94.6873
L573.372 94.798
L574.711 94.3592
L576.05 94.4972
L576.72 94.1331
L577.39 94.2554
L578.729 94.114
L579.398 94.2639
L580.068 94.0796
L580.738 94.5542
L582.077 94.1527
L582.746 94.4844
L583.416 94.2101
L584.086 94.104
L584.755 94.2603
L585.425 94.2351
L586.094 94.3466
L586.764 94.0085
L587.434 94.2128
L588.103 94.1926
L588.773 93.9205
L589.442 94.2348
L590.112 94.1955
L590.782 93.7731
L591.451 93.9714
L592.79 93.7847
L593.46 94.0065
L594.13 93.8669
L594.799 94.1175
L595.469 93.9013
L596.138 94.0267
L596.808 93.7373
L597.478 94.1386
L598.147 93.5938
L598.817 93.966
L600.156 93.6943
L602.165 93.7262
L602.834 93.1389
L603.504 93.9215
L604.174 93.4316
L604.843 93.5033
L605.513 93.7687
L606.852 93.7262
L607.522 93.4966
L608.191 93.5831
L608.861 93.4745
L609.53 93.8647
L610.2 93.309
L610.87 93.3067
L611.539 93.5359
L613.548 93.4264
L614.887 93.6211
L615.557 93.3751
L616.226 93.7068
L616.896 93.635
L617.566 93.4276
L618.235 93.5623
L618.905 93.2731
L619.574 93.3482
L620.244 93.1027
L620.914 93.5485
L621.583 93.6142
L622.253 93.179
L622.922 93.5245
L623.592 93.2546
L624.262 93.5817
L624.931 93.2914
L625.601 93.3463
L626.27 93.649
L626.94 93.3651
L628.279 93.3707
L630.958 93.7052
L631.627 93.2716
L632.297 93.4332
L632.966 93.1868
L633.636 93.2362
L634.306 93.6243
L634.975 93.6128
L635.645 93.394
L636.314 93.5227
L636.984 93.2398
L637.654 93.5104
L638.323 92.9152
L639.662 93.2147
L640.332 93.1601
L642.341 93.5388
L643.01 93.1328
L643.68 93.2206
L644.35 93.0582
L645.019 93.157
L645.689 92.9464
L646.358 93.0283
L647.028 93.2379
L647.698 93.0935
L649.037 93.1142
L649.706 93.2293
L650.376 93.1501
L651.046 93.4054
L652.385 93.3067
L653.054 92.9749
L653.724 93.2104
L654.394 93.0142
L655.063 93.2653
L655.733 93.0378
L656.402 92.9914
L657.072 93.1219
L657.742 92.9653
L658.411 93.0654
L659.081 93.4041
L659.75 92.896
L660.42 92.8312
L661.09 93.0165
L661.759 92.9266
L662.429 93.0242
L663.768 92.9708
L664.438 92.705
L665.107 93.0008
L665.777 92.939
L666.446 92.7127
L667.116 92.8655
L667.786 92.707
L669.794 92.6886
L670.464 92.8414
L671.803 92.7158
L672.473 92.9233
L673.142 92.716
L673.812 92.7743
L674.482 92.9603
L677.83 92.6855
L678.499 92.8536
L679.169 92.5903
L679.838 92.4854
L680.508 92.7534
L681.847 92.6621
L682.517 93.2581
L683.186 92.6654
L683.856 93.1202
L684.526 92.5156
L685.195 92.7381
L685.865 92.5055
L687.204 92.9189
L687.874 92.6604
L688.543 92.5691
L689.213 92.6558
L689.882 92.5739
L690.552 92.3587
L691.222 92.7701
L691.891 92.5441
L692.561 92.8391
L693.23 92.8112
L693.9 92.5961
L694.57 92.5715
L695.909 92.6646
L696.578 92.4131
L697.248 92.6211
L697.918 92.4658
L699.257 92.6781
L700.596 92.6263
L701.935 92.7869
L702.605 92.8313
L703.274 92.3111
L703.944 92.3581
L704.614 92.5662
L706.622 92.6492
L707.292 92.7361
L707.962 92.3343
L708.631 92.449
L709.301 92.8195
L709.97 92.6777
L710.64 92.3689
L711.31 92.4251
L711.979 92.6544
L712.649 92.5974
L713.318 92.7752
L713.988 92.3471
L714.658 92.4293
L715.997 92.4373
L716.666 92.5195
L717.336 92.3939
L718.006 92.6368
L718.675 92.3267
L722.023 92.8493
L722.693 92.5068
L723.362 92.8441
L724.032 92.4042
L725.371 92.5625
L726.041 92.4025
L727.38 92.6731
L728.05 92.4401
L728.719 92.4434
L729.389 92.3032
L730.058 92.3365
L730.728 92.5268
L731.398 92.4543
L732.067 92.8081
L732.737 92.2065
L734.076 92.3913
L734.746 92.2621
L735.415 92.4222
L736.085 92.4048
L736.754 92.1917
L737.424 92.4984
L738.094 92.4788
L738.763 92.6868
L739.433 92.4401
L741.442 92.3603
L742.111 92.5043
L744.79 92.0747
L746.798 92.5472
L747.468 92.0919
L748.138 92.4065
L748.807 92.2354
L749.477 92.3331
L750.146 92.1276
L750.816 92.118
L752.155 92.3136
L752.825 92.126
L754.164 92.4027
L754.834 92.2631
L756.173 92.3162
L756.842 92.0949
L757.512 92.2792
L758.851 92.1911
L759.521 92.0134
L760.19 92.3142
L760.86 92.2223
L764.208 92.3441
L764.878 92.5204
L765.547 92.1912
L766.217 92.5015
L766.886 92.207
L767.556 92.0931
L768.226 92.3137
L768.895 92.362
L770.234 91.9752
L770.904 91.9752
L771.574 92.288
L774.252 92.2381
L774.922 92.5702
L775.591 92.0126
L776.261 92.2542
L776.93 92.2462
L777.6 91.9811
L777.6 91.9811" style="fill:none;stroke:#008000;stroke-linecap:square;"/>
   </g>
   <g id="line2d_3">
    <path clip-path="url(#p7ceb695115)" d="
M108 556.706
L110.678 556.62
L111.348 556.774
L112.687 556.655
L114.026 556.79
L114.696 556.478
L115.366 556.458
L116.035 556.642
L117.374 556.65
L118.044 556.959
L120.053 556.541
L120.722 556.696
L121.392 556.723
L122.062 556.554
L122.731 556.9
L124.07 556.767
L124.74 557.024
L126.749 556.613
L127.418 556.676
L128.088 556.506
L128.758 556.74
L129.427 556.722
L130.097 556.84
L131.436 556.913
L132.106 556.677
L133.445 556.668
L134.114 556.722
L134.784 556.566
L135.454 556.545
L136.123 556.965
L136.793 556.657
L138.132 556.595
L139.471 557.029
L140.141 556.564
L140.81 556.849
L141.48 556.819
L142.15 556.573
L142.819 556.549
L143.489 556.869
L144.158 556.686
L144.828 556.919
L145.498 556.682
L146.167 556.723
L146.837 556.53
L147.506 556.933
L148.176 556.734
L149.515 556.828
L152.194 556.825
L152.863 556.718
L153.533 556.967
L155.542 556.547
L156.211 556.912
L157.55 556.708
L158.22 557.027
L159.559 556.629
L160.898 556.992
L161.568 556.712
L162.907 556.711
L163.577 556.92
L164.246 556.777
L165.586 556.846
L166.255 556.572
L166.925 556.827
L167.594 556.705
L168.264 556.761
L168.934 556.523
L169.603 556.533
L170.273 556.718
L170.942 556.543
L171.612 556.801
L172.282 556.619
L172.951 556.854
L173.621 556.693
L174.29 556.979
L174.96 556.657
L175.63 556.83
L176.969 556.427
L177.638 556.627
L178.978 556.714
L179.647 556.587
L180.986 556.872
L181.656 556.55
L182.995 556.653
L183.665 556.586
L184.334 556.838
L185.004 556.68
L186.343 556.735
L187.013 556.476
L187.682 556.727
L189.022 556.63
L191.03 556.849
L191.7 556.435
L192.37 556.755
L193.039 556.46
L193.709 556.71
L194.378 556.801
L195.048 556.499
L195.718 556.713
L196.387 556.699
L197.057 556.922
L197.726 556.599
L199.735 556.687
L200.405 556.548
L201.074 556.667
L201.744 556.943
L202.414 556.775
L203.083 556.926
L203.753 556.908
L204.422 556.517
L205.092 556.855
L205.762 556.613
L206.431 556.846
L207.77 556.608
L208.44 556.768
L209.11 556.696
L209.779 556.771
L211.118 556.632
L211.788 556.83
L212.458 556.574
L213.127 556.713
L213.797 556.595
L214.466 556.819
L215.136 556.824
L215.806 556.551
L218.484 556.817
L219.154 557.078
L219.823 556.772
L221.832 556.709
L222.502 556.833
L223.171 556.543
L224.51 556.778
L225.18 556.527
L225.85 556.899
L228.528 556.791
L229.198 556.521
L229.867 556.721
L230.537 556.621
L231.876 556.871
L232.546 556.767
L233.215 556.87
L233.885 556.786
L235.224 556.827
L235.894 556.603
L236.563 556.818
L237.233 556.648
L239.242 556.803
L239.911 556.711
L240.581 556.915
L241.25 556.804
L241.92 556.86
L242.59 556.764
L244.598 556.877
L245.268 556.842
L245.938 556.497
L246.607 556.722
L247.277 556.727
L247.946 556.974
L248.616 556.786
L249.955 556.929
L251.294 556.614
L251.964 556.93
L253.303 556.669
L253.973 556.718
L254.642 556.605
L255.312 556.856
L256.651 556.763
L257.321 556.858
L257.99 556.824
L258.66 556.586
L259.33 556.659
L259.999 556.863
L260.669 556.916
L261.338 557.108
L262.008 556.669
L262.678 556.776
L264.017 556.832
L264.686 556.56
L265.356 557.001
L266.026 556.707
L266.695 556.874
L267.365 556.487
L268.034 556.936
L270.713 556.689
L271.382 556.622
L272.052 556.814
L274.061 556.675
L274.73 556.797
L276.07 556.478
L276.739 556.562
L277.409 556.796
L278.078 556.737
L279.418 556.956
L280.087 556.432
L280.757 556.736
L282.096 556.824
L282.766 556.616
L283.435 556.851
L284.105 556.819
L284.774 556.418
L285.444 556.898
L286.114 556.519
L286.783 556.825
L288.122 556.87
L288.792 556.727
L290.801 556.85
L291.47 556.553
L293.479 556.787
L294.149 556.618
L294.818 556.759
L295.488 556.611
L296.158 556.847
L297.497 556.4
L298.166 556.639
L300.175 556.661
L300.845 556.9
L301.514 556.714
L302.184 556.408
L302.854 556.762
L303.523 556.796
L304.862 556.603
L305.532 556.807
L306.871 556.976
L308.21 556.615
L309.55 557.114
L310.219 556.586
L311.558 556.586
L312.228 556.891
L312.898 556.542
L313.567 556.993
L314.237 556.814
L315.576 556.615
L316.246 556.835
L316.915 556.6
L318.924 556.849
L320.263 556.981
L320.933 556.664
L322.272 556.821
L322.942 556.843
L323.611 556.492
L324.281 556.786
L326.29 556.716
L326.959 556.778
L328.298 556.725
L328.968 556.756
L329.638 556.623
L330.307 556.871
L330.977 556.802
L331.646 556.86
L332.316 556.485
L333.655 556.759
L334.325 556.636
L334.994 556.755
L337.673 556.686
L340.351 556.891
L341.021 556.564
L341.69 556.746
L342.36 556.73
L343.03 556.92
L344.369 556.763
L345.038 556.761
L345.708 556.595
L346.378 556.834
L347.047 556.529
L347.717 556.703
L348.386 556.558
L349.056 556.748
L349.726 556.584
L350.395 556.787
L351.065 556.559
L351.734 556.611
L352.404 556.821
L353.074 556.736
L353.743 556.901
L354.413 556.633
L355.082 556.638
L355.752 556.92
L356.422 556.527
L357.091 556.905
L357.761 556.71
L358.43 556.735
L359.1 556.551
L360.439 556.631
L361.109 556.649
L361.778 556.554
L362.448 556.717
L364.457 556.595
L365.126 556.567
L365.796 556.979
L366.466 556.716
L367.135 556.798
L367.805 556.72
L368.474 556.878
L369.144 556.79
L369.814 556.953
L370.483 556.716
L371.153 556.997
L371.822 556.69
L372.492 556.563
L373.162 556.754
L373.831 556.792
L375.17 556.602
L375.84 556.747
L377.179 556.512
L377.849 556.786
L378.518 556.626
L379.858 556.675
L380.527 556.328
L381.866 556.63
L382.536 556.577
L383.206 556.843
L383.875 556.565
L384.545 556.814
L385.214 556.821
L386.554 556.622
L387.893 556.851
L389.232 556.518
L391.241 556.63
L391.91 556.941
L393.25 556.744
L393.919 556.646
L394.589 556.712
L395.258 556.662
L395.928 556.839
L396.598 556.844
L397.267 556.673
L398.606 556.565
L399.276 556.825
L399.946 556.911
L400.615 556.719
L401.954 556.94
L402.624 556.691
L403.294 556.6
L403.963 556.909
L404.633 556.644
L405.302 556.742
L405.972 556.594
L406.642 556.843
L407.311 556.559
L407.981 556.78
L409.99 556.672
L410.659 556.774
L411.329 556.521
L411.998 556.855
L413.338 556.838
L414.007 556.942
L416.686 556.686
L418.025 556.604
L418.694 556.772
L421.373 556.792
L422.042 556.457
L422.712 556.742
L424.051 556.541
L424.721 556.775
L425.39 556.522
L426.06 556.72
L426.73 556.77
L427.399 556.614
L428.069 557.001
L428.738 556.756
L429.408 556.667
L430.078 556.769
L430.747 556.614
L432.086 556.584
L432.756 556.758
L434.095 556.506
L434.765 556.755
L435.434 556.732
L436.104 556.94
L436.774 556.585
L437.443 556.799
L438.113 556.595
L440.122 556.682
L440.791 556.666
L442.13 556.811
L445.478 556.849
L446.148 557.057
L447.487 556.812
L448.157 557.076
L448.826 557.08
L449.496 557.252
L450.166 557.116
L451.505 557.238
L452.174 557.584
L454.183 557.468
L454.853 557.707
L458.201 557.802
L458.87 557.967
L459.54 557.859
L460.21 558.013
L460.879 558.362
L461.549 558.255
L462.218 558.45
L463.558 558.137
L464.227 558.303
L464.897 558.59
L465.566 558.334
L466.906 558.648
L468.245 558.505
L468.914 558.716
L470.254 558.318
L470.923 558.612
L471.593 558.449
L472.932 558.55
L473.602 558.753
L474.271 558.449
L474.941 558.608
L476.28 558.462
L476.95 558.73
L478.289 558.594
L478.958 558.776
L480.298 558.495
L480.967 558.728
L481.637 558.569
L482.306 558.559
L482.976 558.759
L484.985 558.565
L485.654 558.904
L486.324 558.683
L486.994 558.828
L488.333 558.615
L489.002 558.551
L489.672 558.743
L493.69 558.729
L495.029 558.592
L495.698 558.957
L497.038 558.711
L497.707 558.772
L498.377 558.675
L499.046 558.974
L499.716 558.809
L500.386 558.828
L501.055 558.585
L502.394 558.921
L503.064 558.879
L503.734 558.607
L506.412 558.778
L507.082 558.563
L507.751 558.755
L508.421 558.593
L511.769 558.642
L512.438 558.367
L513.778 558.488
L514.447 558.426
L515.786 558.709
L517.126 558.598
L519.804 558.775
L520.474 558.529
L521.143 558.63
L522.482 558.633
L523.152 558.934
L523.822 558.416
L524.491 558.358
L525.161 558.708
L525.83 558.444
L526.5 558.845
L527.17 558.273
L527.839 558.242
L528.509 558.575
L529.178 558.496
L530.518 558.687
L531.187 558.391
L531.857 558.473
L532.526 558.29
L533.196 558.851
L533.866 558.646
L534.535 558.635
L535.205 558.303
L535.874 558.546
L537.214 558.54
L539.222 558.248
L539.892 558.563
L540.562 558.321
L541.231 558.439
L542.57 558.383
L543.24 558.434
L543.91 558.127
L545.918 558.52
L547.258 558.526
L547.927 558.335
L548.597 558.433
L553.284 558.197
L553.954 558.472
L554.623 558.41
L555.293 558.201
L555.962 558.198
L556.632 558.514
L557.302 558.213
L561.319 558.314
L563.998 558.261
L564.667 558.152
L565.337 558.205
L566.676 558.128
L567.346 558.372
L568.015 558.411
L568.685 558.115
L569.354 558.262
L570.024 558.584
L571.363 558.064
L572.033 558.307
L572.702 558.064
L573.372 558.272
L574.042 558.033
L574.711 558.228
L577.39 558.214
L578.059 558.443
L579.398 558.178
L580.068 558.382
L581.407 558.141
L582.077 558.235
L582.746 558.023
L583.416 558.006
L584.086 558.217
L586.094 558.086
L586.764 558.257
L587.434 558.069
L588.773 558.108
L590.112 558.172
L590.782 558.004
L592.121 558.276
L592.79 558.292
L593.46 557.991
L594.13 558.213
L594.799 557.875
L595.469 558.101
L596.138 558.068
L596.808 558.212
L597.478 557.905
L598.147 558.363
L598.817 557.912
L599.486 557.957
L600.156 558.172
L600.826 557.999
L601.495 558.094
L602.165 558.04
L602.834 558.332
L603.504 557.848
L604.174 558.087
L604.843 558.191
L606.182 558.011
L606.852 558.007
L607.522 558.116
L608.191 558.097
L609.53 557.727
L610.2 558.056
L614.218 558.007
L614.887 557.785
L615.557 557.847
L616.226 557.715
L616.896 558.052
L617.566 557.85
L618.235 557.81
L618.905 558.106
L620.244 558.159
L620.914 557.774
L621.583 557.913
L622.253 558.187
L622.922 557.843
L623.592 558.101
L624.262 557.79
L624.931 557.948
L626.27 557.925
L626.94 557.872
L627.61 558.014
L628.279 557.852
L629.618 558.089
L630.288 557.871
L630.958 557.814
L631.627 557.902
L632.297 557.759
L632.966 557.959
L633.636 558.013
L634.306 557.844
L636.314 557.779
L636.984 557.944
L638.323 557.904
L638.993 558.039
L641.002 557.937
L641.671 558.026
L642.341 557.605
L643.01 557.908
L644.35 558.001
L645.019 557.901
L646.358 558.053
L647.028 557.785
L647.698 558.006
L649.037 558.041
L649.706 557.883
L651.715 557.69
L653.054 558.021
L653.724 557.898
L654.394 557.915
L655.063 557.723
L656.402 557.745
L657.072 557.758
L657.742 557.928
L659.081 557.604
L659.75 557.95
L660.42 557.995
L661.09 557.869
L661.759 557.951
L663.768 557.628
L664.438 558.01
L665.777 557.807
L666.446 558.085
L669.125 557.73
L669.794 557.794
L670.464 557.676
L671.134 557.673
L671.803 557.852
L672.473 557.739
L673.812 557.885
L674.482 557.696
L675.151 557.835
L675.821 557.737
L676.49 557.774
L677.16 557.597
L677.83 557.839
L679.838 557.916
L680.508 557.653
L681.847 557.689
L682.517 557.303
L683.186 557.85
L683.856 557.651
L684.526 557.885
L685.195 557.592
L685.865 557.876
L686.534 557.908
L687.204 557.539
L687.874 557.608
L688.543 557.842
L689.213 557.756
L689.882 557.978
L691.222 557.71
L691.891 557.911
L692.561 557.583
L693.23 557.703
L693.9 557.607
L695.239 557.871
L695.909 557.712
L696.578 557.911
L697.248 557.703
L697.918 557.867
L700.596 557.666
L701.935 557.773
L702.605 557.597
L703.274 557.964
L705.283 557.803
L706.622 557.789
L707.292 557.633
L707.962 557.895
L708.631 557.689
L709.301 557.615
L711.31 557.941
L712.649 557.604
L713.318 557.789
L713.988 557.771
L714.658 557.903
L715.327 557.881
L715.997 557.736
L717.336 557.938
L719.345 557.774
L720.014 557.792
L720.684 557.446
L721.354 557.699
L722.023 557.568
L722.693 557.681
L723.362 557.663
L724.032 557.816
L724.702 557.695
L725.371 557.791
L726.041 557.616
L726.71 557.721
L728.05 557.696
L728.719 557.784
L729.389 557.696
L730.058 557.861
L731.398 557.796
L732.067 557.577
L732.737 557.807
L734.076 557.818
L735.415 557.623
L736.085 557.631
L736.754 557.95
L738.094 557.578
L739.433 557.701
L740.772 557.602
L744.12 557.788
L744.79 558.089
L745.459 557.698
L746.129 557.766
L746.798 557.566
L747.468 557.898
L748.138 557.693
L748.807 557.927
L749.477 557.783
L752.155 557.696
L752.825 558
L753.494 557.722
L754.834 557.65
L755.503 557.833
L756.173 557.668
L758.851 557.628
L759.521 557.883
L760.19 557.701
L760.86 557.667
L761.53 557.769
L762.199 557.468
L763.538 557.626
L766.886 557.554
L767.556 557.779
L768.226 557.815
L768.895 557.551
L769.565 557.909
L770.904 557.851
L771.574 557.485
L772.913 557.679
L773.582 557.755
L774.252 557.655
L774.922 557.325
L775.591 557.947
L776.261 557.557
L777.6 557.752
L777.6 557.752" style="fill:none;stroke:#0000ff;stroke-linecap:square;"/>
   </g>
   <g id="patch_3">
    <path d="
M108 583.2
L777.6 583.2" style="fill:none;stroke:#000000;stroke-linecap:square;stroke-linejoin:miter;"/>
   </g>
   <g id="patch_4">
    <path d="
M108 64.8
L777.6 64.8" style="fill:none;stroke:#000000;stroke-linecap:square;stroke-linejoin:miter;"/>
   </g>
   <g id="patch_5">
    <path d="
M108 583.2
L108 64.8" style="fill:none;stroke:#000000;stroke-linecap:square;stroke-linejoin:miter;"/>
   </g>
   <g id="patch_6">
    <path d="
M777.6 583.2
L777.6 64.8" style="fill:none;stroke:#000000;stroke-linecap:square;stroke-linejoin:miter;"/>
   </g>
   <g id="matplotlib.axis_1">
    <g id="xtick_1">
     <g id="line2d_4">
      <defs>
       <path d="
M0 0
L0 -4" id="mc7db9fdffb" style="stroke:#000000;stroke-width:0.5;"/>
      </defs>
      <g>
       <use style="stroke:#000000;stroke-width:0.5;" x="108.0" xlink:href="#mc7db9fdffb" y="583.2"/>
      </g>
     </g>
     <g id="line2d_5">
      <defs>
       <path d="
M0 0
L0 4" id="m5a7d422ac3" style="stroke:#000000;stroke-width:0.5;"/>
      </defs>
      <g>
       <use style="stroke:#000000;stroke-width:0.5;" x="108.0" xlink:href="#m5a7d422ac3" y="64.8"/>
      </g>
     </g>
     <g id="text_1">
      <!-- 0 -->
      <defs>
       <path d="
M31.7812 66.4062
Q24.1719 66.4062 20.3281 58.9062
Q16.5 51.4219 16.5 36.375
Q16.5 21.3906 20.3281 13.8906
Q24.1719 6.39062 31.7812 6.39062
Q39.4531 6.39062 43.2812 13.8906
Q47.125 21.3906 47.125 36.375
Q47.125 51.4219 43.2812 58.9062
Q39.4531 66.4062 31.7812 66.4062
M31.7812 74.2188
Q44.0469 74.2188 50.5156 64.5156
Q56.9844 54.8281 56.9844 36.375
Q56.9844 17.9688 50.5156 8.26562
Q44.0469 -1.42188 31.7812 -1.42188
Q19.5312 -1.42188 13.0625 8.26562
Q6.59375 17.9688 6.59375 36.375
Q6.59375 54.8281 13.0625 64.5156
Q19.5312 74.2188 31.7812 74.2188" id="BitstreamVeraSans-Roman-30"/>
      </defs>
      <g transform="translate(104.9765625 596.318125)scale(0.12 -0.12)">
       <use xlink:href="#BitstreamVeraSans-Roman-30"/>
      </g>
     </g>
    </g>
    <g id="xtick_2">
     <g id="line2d_6">
      <g>
       <use style="stroke:#000000;stroke-width:0.5;" x="275.4" xlink:href="#mc7db9fdffb" y="583.2"/>
      </g>
     </g>
     <g id="line2d_7">
      <g>
       <use style="stroke:#000000;stroke-width:0.5;" x="275.4" xlink:href="#m5a7d422ac3" y="64.8"/>
      </g>
     </g>
     <g id="text_2">
      <!-- 50000 -->
      <defs>
       <path d="
M10.7969 72.9062
L49.5156 72.9062
L49.5156 64.5938
L19.8281 64.5938
L19.8281 46.7344
Q21.9688 47.4688 24.1094 47.8281
Q26.2656 48.1875 28.4219 48.1875
Q40.625 48.1875 47.75 41.5
Q54.8906 34.8125 54.8906 23.3906
Q54.8906 11.625 47.5625 5.09375
Q40.2344 -1.42188 26.9062 -1.42188
Q22.3125 -1.42188 17.5469 -0.640625
Q12.7969 0.140625 7.71875 1.70312
L7.71875 11.625
Q12.1094 9.23438 16.7969 8.0625
Q21.4844 6.89062 26.7031 6.89062
Q35.1562 6.89062 40.0781 11.3281
Q45.0156 15.7656 45.0156 23.3906
Q45.0156 31 40.0781 35.4375
Q35.1562 39.8906 26.7031 39.8906
Q22.75 39.8906 18.8125 39.0156
Q14.8906 38.1406 10.7969 36.2812
z
" id="BitstreamVeraSans-Roman-35"/>
      </defs>
      <g transform="translate(257.1740625 596.318125)scale(0.12 -0.12)">
       <use xlink:href="#BitstreamVeraSans-Roman-35"/>
       <use x="63.623046875" xlink:href="#BitstreamVeraSans-Roman-30"/>
       <use x="127.24609375" xlink:href="#BitstreamVeraSans-Roman-30"/>
       <use x="190.869140625" xlink:href="#BitstreamVeraSans-Roman-30"/>
       <use x="254.4921875" xlink:href="#BitstreamVeraSans-Roman-30"/>
      </g>
     </g>
    </g>
    <g id="xtick_3">
     <g id="line2d_8">
      <g>
       <use style="stroke:#000000;stroke-width:0.5;" x="442.8" xlink:href="#mc7db9fdffb" y="583.2"/>
      </g>
     </g>
     <g id="line2d_9">
      <g>
       <use style="stroke:#000000;stroke-width:0.5;" x="442.8" xlink:href="#m5a7d422ac3" y="64.8"/>
      </g>
     </g>
     <g id="text_3">
      <!-- 100000 -->
      <defs>
       <path d="
M12.4062 8.29688
L28.5156 8.29688
L28.5156 63.9219
L10.9844 60.4062
L10.9844 69.3906
L28.4219 72.9062
L38.2812 72.9062
L38.2812 8.29688
L54.3906 8.29688
L54.3906 0
L12.4062 0
z
" id="BitstreamVeraSans-Roman-31"/>
      </defs>
      <g transform="translate(420.9525 596.318125)scale(0.12 -0.12)">
       <use xlink:href="#BitstreamVeraSans-Roman-31"/>
       <use x="63.623046875" xlink:href="#BitstreamVeraSans-Roman-30"/>
       <use x="127.24609375" xlink:href="#BitstreamVeraSans-Roman-30"/>
       <use x="190.869140625" xlink:href="#BitstreamVeraSans-Roman-30"/>
       <use x="254.4921875" xlink:href="#BitstreamVeraSans-Roman-30"/>
       <use x="318.115234375" xlink:href="#BitstreamVeraSans-Roman-30"/>
      </g>
     </g>
    </g>
    <g id="xtick_4">
     <g id="line2d_10">
      <g>
       <use style="stroke:#000000;stroke-width:0.5;" x="610.2" xlink:href="#mc7db9fdffb" y="583.2"/>
      </g>
     </g>
     <g id="line2d_11">
      <g>
       <use style="stroke:#000000;stroke-width:0.5;" x="610.2" xlink:href="#m5a7d422ac3" y="64.8"/>
      </g>
     </g>
     <g id="text_4">
      <!-- 150000 -->
      <g transform="translate(588.3525 596.318125)scale(0.12 -0.12)">
       <use xlink:href="#BitstreamVeraSans-Roman-31"/>
       <use x="63.623046875" xlink:href="#BitstreamVeraSans-Roman-35"/>
       <use x="127.24609375" xlink:href="#BitstreamVeraSans-Roman-30"/>
       <use x="190.869140625" xlink:href="#BitstreamVeraSans-Roman-30"/>
       <use x="254.4921875" xlink:href="#BitstreamVeraSans-Roman-30"/>
       <use x="318.115234375" xlink:href="#BitstreamVeraSans-Roman-30"/>
      </g>
     </g>
    </g>
    <g id="xtick_5">
     <g id="line2d_12">
      <g>
       <use style="stroke:#000000;stroke-width:0.5;" x="777.6" xlink:href="#mc7db9fdffb" y="583.2"/>
      </g>
     </g>
     <g id="line2d_13">
      <g>
       <use style="stroke:#000000;stroke-width:0.5;" x="777.6" xlink:href="#m5a7d422ac3" y="64.8"/>
      </g>
     </g>
     <g id="text_5">
      <!-- 200000 -->
      <defs>
       <path d="
M19.1875 8.29688
L53.6094 8.29688
L53.6094 0
L7.32812 0
L7.32812 8.29688
Q12.9375 14.1094 22.625 23.8906
Q32.3281 33.6875 34.8125 36.5312
Q39.5469 41.8438 41.4219 45.5312
Q43.3125 49.2188 43.3125 52.7812
Q43.3125 58.5938 39.2344 62.25
Q35.1562 65.9219 28.6094 65.9219
Q23.9688 65.9219 18.8125 64.3125
Q13.6719 62.7031 7.8125 59.4219
L7.8125 69.3906
Q13.7656 71.7812 18.9375 73
Q24.125 74.2188 28.4219 74.2188
Q39.75 74.2188 46.4844 68.5469
Q53.2188 62.8906 53.2188 53.4219
Q53.2188 48.9219 51.5312 44.8906
Q49.8594 40.875 45.4062 35.4062
Q44.1875 33.9844 37.6406 27.2188
Q31.1094 20.4531 19.1875 8.29688" id="BitstreamVeraSans-Roman-32"/>
      </defs>
      <g transform="translate(755.533125 596.318125)scale(0.12 -0.12)">
       <use xlink:href="#BitstreamVeraSans-Roman-32"/>
       <use x="63.623046875" xlink:href="#BitstreamVeraSans-Roman-30"/>
       <use x="127.24609375" xlink:href="#BitstreamVeraSans-Roman-30"/>
       <use x="190.869140625" xlink:href="#BitstreamVeraSans-Roman-30"/>
       <use x="254.4921875" xlink:href="#BitstreamVeraSans-Roman-30"/>
       <use x="318.115234375" xlink:href="#BitstreamVeraSans-Roman-30"/>
      </g>
     </g>
    </g>
    <g id="text_6">
     <!-- t / ms -->
     <defs>
      <path d="
M18.3125 70.2188
L18.3125 54.6875
L36.8125 54.6875
L36.8125 47.7031
L18.3125 47.7031
L18.3125 18.0156
Q18.3125 11.3281 20.1406 9.42188
Q21.9688 7.51562 27.5938 7.51562
L36.8125 7.51562
L36.8125 0
L27.5938 0
Q17.1875 0 13.2344 3.875
Q9.28125 7.76562 9.28125 18.0156
L9.28125 47.7031
L2.6875 47.7031
L2.6875 54.6875
L9.28125 54.6875
L9.28125 70.2188
z
" id="BitstreamVeraSans-Roman-74"/>
      <path d="
M25.3906 72.9062
L33.6875 72.9062
L8.29688 -9.28125
L0 -9.28125
z
" id="BitstreamVeraSans-Roman-2f"/>
      <path id="BitstreamVeraSans-Roman-20"/>
      <path d="
M44.2812 53.0781
L44.2812 44.5781
Q40.4844 46.5312 36.375 47.5
Q32.2812 48.4844 27.875 48.4844
Q21.1875 48.4844 17.8438 46.4375
Q14.5 44.3906 14.5 40.2812
Q14.5 37.1562 16.8906 35.375
Q19.2812 33.5938 26.5156 31.9844
L29.5938 31.2969
Q39.1562 29.25 43.1875 25.5156
Q47.2188 21.7812 47.2188 15.0938
Q47.2188 7.46875 41.1875 3.01562
Q35.1562 -1.42188 24.6094 -1.42188
Q20.2188 -1.42188 15.4531 -0.5625
Q10.6875 0.296875 5.42188 2
L5.42188 11.2812
Q10.4062 8.6875 15.2344 7.39062
Q20.0625 6.10938 24.8125 6.10938
Q31.1562 6.10938 34.5625 8.28125
Q37.9844 10.4531 37.9844 14.4062
Q37.9844 18.0625 35.5156 20.0156
Q33.0625 21.9688 24.7031 23.7812
L21.5781 24.5156
Q13.2344 26.2656 9.51562 29.9062
Q5.8125 33.5469 5.8125 39.8906
Q5.8125 47.6094 11.2812 51.7969
Q16.75 56 26.8125 56
Q31.7812 56 36.1719 55.2656
Q40.5781 54.5469 44.2812 53.0781" id="BitstreamVeraSans-Roman-73"/>
      <path d="
M52 44.1875
Q55.375 50.25 60.0625 53.125
Q64.75 56 71.0938 56
Q79.6406 56 84.2812 50.0156
Q88.9219 44.0469 88.9219 33.0156
L88.9219 0
L79.8906 0
L79.8906 32.7188
Q79.8906 40.5781 77.0938 44.375
Q74.3125 48.1875 68.6094 48.1875
Q61.625 48.1875 57.5625 43.5469
Q53.5156 38.9219 53.5156 30.9062
L53.5156 0
L44.4844 0
L44.4844 32.7188
Q44.4844 40.625 41.7031 44.4062
Q38.9219 48.1875 33.1094 48.1875
Q26.2188 48.1875 22.1562 43.5312
Q18.1094 38.875 18.1094 30.9062
L18.1094 0
L9.07812 0
L9.07812 54.6875
L18.1094 54.6875
L18.1094 46.1875
Q21.1875 51.2188 25.4844 53.6094
Q29.7812 56 35.6875 56
Q41.6562 56 45.8281 52.9688
Q50 49.9531 52 44.1875" id="BitstreamVeraSans-Roman-6d"/>
     </defs>
     <g transform="translate(425.9353125 612.931875)scale(0.12 -0.12)">
      <use xlink:href="#BitstreamVeraSans-Roman-74"/>
      <use x="39.208984375" xlink:href="#BitstreamVeraSans-Roman-20"/>
      <use x="70.99609375" xlink:href="#BitstreamVeraSans-Roman-2f"/>
      <use x="104.6875" xlink:href="#BitstreamVeraSans-Roman-20"/>
      <use x="136.474609375" xlink:href="#BitstreamVeraSans-Roman-6d"/>
      <use x="233.88671875" xlink:href="#BitstreamVeraSans-Roman-73"/>
     </g>
    </g>
   </g>
   <g id="matplotlib.axis_2">
    <g id="ytick_1">
     <g id="line2d_14">
      <defs>
       <path d="
M0 0
L4 0" id="md7965d1ba0" style="stroke:#000000;stroke-width:0.5;"/>
      </defs>
      <g>
       <use style="stroke:#000000;stroke-width:0.5;" x="108.0" xlink:href="#md7965d1ba0" y="583.2"/>
      </g>
     </g>
     <g id="line2d_15">
      <defs>
       <path d="
M0 0
L-4 0" id="md9a1c1a7cd" style="stroke:#000000;stroke-width:0.5;"/>
      </defs>
      <g>
       <use style="stroke:#000000;stroke-width:0.5;" x="777.6" xlink:href="#md9a1c1a7cd" y="583.2"/>
      </g>
     </g>
     <g id="text_7">
      <!-- 1000000 -->
      <g transform="translate(52.67 586.51125)scale(0.12 -0.12)">
       <use xlink:href="#BitstreamVeraSans-Roman-31"/>
       <use x="63.623046875" xlink:href="#BitstreamVeraSans-Roman-30"/>
       <use x="127.24609375" xlink:href="#BitstreamVeraSans-Roman-30"/>
       <use x="190.869140625" xlink:href="#BitstreamVeraSans-Roman-30"/>
       <use x="254.4921875" xlink:href="#BitstreamVeraSans-Roman-30"/>
       <use x="318.115234375" xlink:href="#BitstreamVeraSans-Roman-30"/>
       <use x="381.73828125" xlink:href="#BitstreamVeraSans-Roman-30"/>
      </g>
     </g>
    </g>
    <g id="ytick_2">
     <g id="line2d_16">
      <g>
       <use style="stroke:#000000;stroke-width:0.5;" x="108.0" xlink:href="#md7965d1ba0" y="518.4"/>
      </g>
     </g>
     <g id="line2d_17">
      <g>
       <use style="stroke:#000000;stroke-width:0.5;" x="777.6" xlink:href="#md9a1c1a7cd" y="518.4"/>
      </g>
     </g>
     <g id="text_8">
      <!-- 1500000 -->
      <g transform="translate(52.67 521.71125)scale(0.12 -0.12)">
       <use xlink:href="#BitstreamVeraSans-Roman-31"/>
       <use x="63.623046875" xlink:href="#BitstreamVeraSans-Roman-35"/>
       <use x="127.24609375" xlink:href="#BitstreamVeraSans-Roman-30"/>
       <use x="190.869140625" xlink:href="#BitstreamVeraSans-Roman-30"/>
       <use x="254.4921875" xlink:href="#BitstreamVeraSans-Roman-30"/>
       <use x="318.115234375" xlink:href="#BitstreamVeraSans-Roman-30"/>
       <use x="381.73828125" xlink:href="#BitstreamVeraSans-Roman-30"/>
      </g>
     </g>
    </g>
    <g id="ytick_3">
     <g id="line2d_18">
      <g>
       <use style="stroke:#000000;stroke-width:0.5;" x="108.0" xlink:href="#md7965d1ba0" y="453.6"/>
      </g>
     </g>
     <g id="line2d_19">
      <g>
       <use style="stroke:#000000;stroke-width:0.5;" x="777.6" xlink:href="#md9a1c1a7cd" y="453.6"/>
      </g>
     </g>
     <g id="text_9">
      <!-- 2000000 -->
      <g transform="translate(52.23125 456.91125)scale(0.12 -0.12)">
       <use xlink:href="#BitstreamVeraSans-Roman-32"/>
       <use x="63.623046875" xlink:href="#BitstreamVeraSans-Roman-30"/>
       <use x="127.24609375" xlink:href="#BitstreamVeraSans-Roman-30"/>
       <use x="190.869140625" xlink:href="#BitstreamVeraSans-Roman-30"/>
       <use x="254.4921875" xlink:href="#BitstreamVeraSans-Roman-30"/>
       <use x="318.115234375" xlink:href="#BitstreamVeraSans-Roman-30"/>
       <use x="381.73828125" xlink:href="#BitstreamVeraSans-Roman-30"/>
      </g>
     </g>
    </g>
    <g id="ytick_4">
     <g id="line2d_20">
      <g>
       <use style="stroke:#000000;stroke-width:0.5;" x="108.0" xlink:href="#md7965d1ba0" y="388.8"/>
      </g>
     </g>
     <g id="line2d_21">
      <g>
       <use style="stroke:#000000;stroke-width:0.5;" x="777.6" xlink:href="#md9a1c1a7cd" y="388.8"/>
      </g>
     </g>
     <g id="text_10">
      <!-- 2500000 -->
      <g transform="translate(52.23125 392.11125)scale(0.12 -0.12)">
       <use xlink:href="#BitstreamVeraSans-Roman-32"/>
       <use x="63.623046875" xlink:href="#BitstreamVeraSans-Roman-35"/>
       <use x="127.24609375" xlink:href="#BitstreamVeraSans-Roman-30"/>
       <use x="190.869140625" xlink:href="#BitstreamVeraSans-Roman-30"/>
       <use x="254.4921875" xlink:href="#BitstreamVeraSans-Roman-30"/>
       <use x="318.115234375" xlink:href="#BitstreamVeraSans-Roman-30"/>
       <use x="381.73828125" xlink:href="#BitstreamVeraSans-Roman-30"/>
      </g>
     </g>
    </g>
    <g id="ytick_5">
     <g id="line2d_22">
      <g>
       <use style="stroke:#000000;stroke-width:0.5;" x="108.0" xlink:href="#md7965d1ba0" y="324.0"/>
      </g>
     </g>
     <g id="line2d_23">
      <g>
       <use style="stroke:#000000;stroke-width:0.5;" x="777.6" xlink:href="#md9a1c1a7cd" y="324.0"/>
      </g>
     </g>
     <g id="text_11">
      <!-- 3000000 -->
      <defs>
       <path d="
M40.5781 39.3125
Q47.6562 37.7969 51.625 33
Q55.6094 28.2188 55.6094 21.1875
Q55.6094 10.4062 48.1875 4.48438
Q40.7656 -1.42188 27.0938 -1.42188
Q22.5156 -1.42188 17.6562 -0.515625
Q12.7969 0.390625 7.625 2.20312
L7.625 11.7188
Q11.7188 9.32812 16.5938 8.10938
Q21.4844 6.89062 26.8125 6.89062
Q36.0781 6.89062 40.9375 10.5469
Q45.7969 14.2031 45.7969 21.1875
Q45.7969 27.6406 41.2812 31.2656
Q36.7656 34.9062 28.7188 34.9062
L20.2188 34.9062
L20.2188 43.0156
L29.1094 43.0156
Q36.375 43.0156 40.2344 45.9219
Q44.0938 48.8281 44.0938 54.2969
Q44.0938 59.9062 40.1094 62.9062
Q36.1406 65.9219 28.7188 65.9219
Q24.6562 65.9219 20.0156 65.0312
Q15.375 64.1562 9.8125 62.3125
L9.8125 71.0938
Q15.4375 72.6562 20.3438 73.4375
Q25.25 74.2188 29.5938 74.2188
Q40.8281 74.2188 47.3594 69.1094
Q53.9062 64.0156 53.9062 55.3281
Q53.9062 49.2656 50.4375 45.0938
Q46.9688 40.9219 40.5781 39.3125" id="BitstreamVeraSans-Roman-33"/>
      </defs>
      <g transform="translate(52.266875 327.31125)scale(0.12 -0.12)">
       <use xlink:href="#BitstreamVeraSans-Roman-33"/>
       <use x="63.623046875" xlink:href="#BitstreamVeraSans-Roman-30"/>
       <use x="127.24609375" xlink:href="#BitstreamVeraSans-Roman-30"/>
       <use x="190.869140625" xlink:href="#BitstreamVeraSans-Roman-30"/>
       <use x="254.4921875" xlink:href="#BitstreamVeraSans-Roman-30"/>
       <use x="318.115234375" xlink:href="#BitstreamVeraSans-Roman-30"/>
       <use x="381.73828125" xlink:href="#BitstreamVeraSans-Roman-30"/>
      </g>
     </g>
    </g>
    <g id="ytick_6">
     <g id="line2d_24">
      <g>
       <use style="stroke:#000000;stroke-width:0.5;" x="108.0" xlink:href="#md7965d1ba0" y="259.2"/>
      </g>
     </g>
     <g id="line2d_25">
      <g>
       <use style="stroke:#000000;stroke-width:0.5;" x="777.6" xlink:href="#md9a1c1a7cd" y="259.2"/>
      </g>
     </g>
     <g id="text_12">
      <!-- 3500000 -->
      <g transform="translate(52.266875 262.51125)scale(0.12 -0.12)">
       <use xlink:href="#BitstreamVeraSans-Roman-33"/>
       <use x="63.623046875" xlink:href="#BitstreamVeraSans-Roman-35"/>
       <use x="127.24609375" xlink:href="#BitstreamVeraSans-Roman-30"/>
       <use x="190.869140625" xlink:href="#BitstreamVeraSans-Roman-30"/>
       <use x="254.4921875" xlink:href="#BitstreamVeraSans-Roman-30"/>
       <use x="318.115234375" xlink:href="#BitstreamVeraSans-Roman-30"/>
       <use x="381.73828125" xlink:href="#BitstreamVeraSans-Roman-30"/>
      </g>
     </g>
    </g>
    <g id="ytick_7">
     <g id="line2d_26">
      <g>
       <use style="stroke:#000000;stroke-width:0.5;" x="108.0" xlink:href="#md7965d1ba0" y="194.4"/>
      </g>
     </g>
     <g id="line2d_27">
      <g>
       <use style="stroke:#000000;stroke-width:0.5;" x="777.6" xlink:href="#md9a1c1a7cd" y="194.4"/>
      </g>
     </g>
     <g id="text_13">
      <!-- 4000000 -->
      <defs>
       <path d="
M37.7969 64.3125
L12.8906 25.3906
L37.7969 25.3906
z

M35.2031 72.9062
L47.6094 72.9062
L47.6094 25.3906
L58.0156 25.3906
L58.0156 17.1875
L47.6094 17.1875
L47.6094 0
L37.7969 0
L37.7969 17.1875
L4.89062 17.1875
L4.89062 26.7031
z
" id="BitstreamVeraSans-Roman-34"/>
      </defs>
      <g transform="translate(51.93875 197.71125)scale(0.12 -0.12)">
       <use xlink:href="#BitstreamVeraSans-Roman-34"/>
       <use x="63.623046875" xlink:href="#BitstreamVeraSans-Roman-30"/>
       <use x="127.24609375" xlink:href="#BitstreamVeraSans-Roman-30"/>
       <use x="190.869140625" xlink:href="#BitstreamVeraSans-Roman-30"/>
       <use x="254.4921875" xlink:href="#BitstreamVeraSans-Roman-30"/>
       <use x="318.115234375" xlink:href="#BitstreamVeraSans-Roman-30"/>
       <use x="381.73828125" xlink:href="#BitstreamVeraSans-Roman-30"/>
      </g>
     </g>
    </g>
    <g id="ytick_8">
     <g id="line2d_28">
      <g>
       <use style="stroke:#000000;stroke-width:0.5;" x="108.0" xlink:href="#md7965d1ba0" y="129.6"/>
      </g>
     </g>
     <g id="line2d_29">
      <g>
       <use style="stroke:#000000;stroke-width:0.5;" x="777.6" xlink:href="#md9a1c1a7cd" y="129.6"/>
      </g>
     </g>
     <g id="text_14">
      <!-- 4500000 -->
      <g transform="translate(51.93875 132.91125)scale(0.12 -0.12)">
       <use xlink:href="#BitstreamVeraSans-Roman-34"/>
       <use x="63.623046875" xlink:href="#BitstreamVeraSans-Roman-35"/>
       <use x="127.24609375" xlink:href="#BitstreamVeraSans-Roman-30"/>
       <use x="190.869140625" xlink:href="#BitstreamVeraSans-Roman-30"/>
       <use x="254.4921875" xlink:href="#BitstreamVeraSans-Roman-30"/>
       <use x="318.115234375" xlink:href="#BitstreamVeraSans-Roman-30"/>
       <use x="381.73828125" xlink:href="#BitstreamVeraSans-Roman-30"/>
      </g>
     </g>
    </g>
    <g id="ytick_9">
     <g id="line2d_30">
      <g>
       <use style="stroke:#000000;stroke-width:0.5;" x="108.0" xlink:href="#md7965d1ba0" y="64.8"/>
      </g>
     </g>
     <g id="line2d_31">
      <g>
       <use style="stroke:#000000;stroke-width:0.5;" x="777.6" xlink:href="#md9a1c1a7cd" y="64.8"/>
      </g>
     </g>
     <g id="text_15">
      <!-- 5000000 -->
      <g transform="translate(52.278125 68.11125)scale(0.12 -0.12)">
       <use xlink:href="#BitstreamVeraSans-Roman-35"/>
       <use x="63.623046875" xlink:href="#BitstreamVeraSans-Roman-30"/>
       <use x="127.24609375" xlink:href="#BitstreamVeraSans-Roman-30"/>
       <use x="190.869140625" xlink:href="#BitstreamVeraSans-Roman-30"/>
       <use x="254.4921875" xlink:href="#BitstreamVeraSans-Roman-30"/>
       <use x="318.115234375" xlink:href="#BitstreamVeraSans-Roman-30"/>
       <use x="381.73828125" xlink:href="#BitstreamVeraSans-Roman-30"/>
      </g>
     </g>
    </g>
    <g id="text_16">
     <!-- particle numbers -->
     <defs>
      <path d="
M9.42188 54.6875
L18.4062 54.6875
L18.4062 0
L9.42188 0
z

M9.42188 75.9844
L18.4062 75.9844
L18.4062 64.5938
L9.42188 64.5938
z
" id="BitstreamVeraSans-Roman-69"/>
      <path d="
M9.42188 75.9844
L18.4062 75.9844
L18.4062 0
L9.42188 0
z
" id="BitstreamVeraSans-Roman-6c"/>
      <path d="
M54.8906 33.0156
L54.8906 0
L45.9062 0
L45.9062 32.7188
Q45.9062 40.4844 42.875 44.3281
Q39.8438 48.1875 33.7969 48.1875
Q26.5156 48.1875 22.3125 43.5469
Q18.1094 38.9219 18.1094 30.9062
L18.1094 0
L9.07812 0
L9.07812 54.6875
L18.1094 54.6875
L18.1094 46.1875
Q21.3438 51.125 25.7031 53.5625
Q30.0781 56 35.7969 56
Q45.2188 56 50.0469 50.1719
Q54.8906 44.3438 54.8906 33.0156" id="BitstreamVeraSans-Roman-6e"/>
      <path d="
M48.6875 27.2969
Q48.6875 37.2031 44.6094 42.8438
Q40.5312 48.4844 33.4062 48.4844
Q26.2656 48.4844 22.1875 42.8438
Q18.1094 37.2031 18.1094 27.2969
Q18.1094 17.3906 22.1875 11.75
Q26.2656 6.10938 33.4062 6.10938
Q40.5312 6.10938 44.6094 11.75
Q48.6875 17.3906 48.6875 27.2969
M18.1094 46.3906
Q20.9531 51.2656 25.2656 53.625
Q29.5938 56 35.5938 56
Q45.5625 56 51.7812 48.0938
Q58.0156 40.1875 58.0156 27.2969
Q58.0156 14.4062 51.7812 6.48438
Q45.5625 -1.42188 35.5938 -1.42188
Q29.5938 -1.42188 25.2656 0.953125
Q20.9531 3.32812 18.1094 8.20312
L18.1094 0
L9.07812 0
L9.07812 75.9844
L18.1094 75.9844
z
" id="BitstreamVeraSans-Roman-62"/>
      <path d="
M48.7812 52.5938
L48.7812 44.1875
Q44.9688 46.2969 41.1406 47.3438
Q37.3125 48.3906 33.4062 48.3906
Q24.6562 48.3906 19.8125 42.8438
Q14.9844 37.3125 14.9844 27.2969
Q14.9844 17.2812 19.8125 11.7344
Q24.6562 6.20312 33.4062 6.20312
Q37.3125 6.20312 41.1406 7.25
Q44.9688 8.29688 48.7812 10.4062
L48.7812 2.09375
Q45.0156 0.34375 40.9844 -0.53125
Q36.9688 -1.42188 32.4219 -1.42188
Q20.0625 -1.42188 12.7812 6.34375
Q5.51562 14.1094 5.51562 27.2969
Q5.51562 40.6719 12.8594 48.3281
Q20.2188 56 33.0156 56
Q37.1562 56 41.1094 55.1406
Q45.0625 54.2969 48.7812 52.5938" id="BitstreamVeraSans-Roman-63"/>
      <path d="
M8.5 21.5781
L8.5 54.6875
L17.4844 54.6875
L17.4844 21.9219
Q17.4844 14.1562 20.5 10.2656
Q23.5312 6.39062 29.5938 6.39062
Q36.8594 6.39062 41.0781 11.0312
Q45.3125 15.6719 45.3125 23.6875
L45.3125 54.6875
L54.2969 54.6875
L54.2969 0
L45.3125 0
L45.3125 8.40625
Q42.0469 3.42188 37.7188 1
Q33.4062 -1.42188 27.6875 -1.42188
Q18.2656 -1.42188 13.375 4.4375
Q8.5 10.2969 8.5 21.5781" id="BitstreamVeraSans-Roman-75"/>
      <path d="
M34.2812 27.4844
Q23.3906 27.4844 19.1875 25
Q14.9844 22.5156 14.9844 16.5
Q14.9844 11.7188 18.1406 8.90625
Q21.2969 6.10938 26.7031 6.10938
Q34.1875 6.10938 38.7031 11.4062
Q43.2188 16.7031 43.2188 25.4844
L43.2188 27.4844
z

M52.2031 31.2031
L52.2031 0
L43.2188 0
L43.2188 8.29688
Q40.1406 3.32812 35.5469 0.953125
Q30.9531 -1.42188 24.3125 -1.42188
Q15.9219 -1.42188 10.9531 3.29688
Q6 8.01562 6 15.9219
Q6 25.1406 12.1719 29.8281
Q18.3594 34.5156 30.6094 34.5156
L43.2188 34.5156
L43.2188 35.4062
Q43.2188 41.6094 39.1406 45
Q35.0625 48.3906 27.6875 48.3906
Q23 48.3906 18.5469 47.2656
Q14.1094 46.1406 10.0156 43.8906
L10.0156 52.2031
Q14.9375 54.1094 19.5781 55.0469
Q24.2188 56 28.6094 56
Q40.4844 56 46.3438 49.8438
Q52.2031 43.7031 52.2031 31.2031" id="BitstreamVeraSans-Roman-61"/>
      <path d="
M56.2031 29.5938
L56.2031 25.2031
L14.8906 25.2031
Q15.4844 15.9219 20.4844 11.0625
Q25.4844 6.20312 34.4219 6.20312
Q39.5938 6.20312 44.4531 7.46875
Q49.3125 8.73438 54.1094 11.2812
L54.1094 2.78125
Q49.2656 0.734375 44.1875 -0.34375
Q39.1094 -1.42188 33.8906 -1.42188
Q20.7969 -1.42188 13.1562 6.1875
Q5.51562 13.8125 5.51562 26.8125
Q5.51562 40.2344 12.7656 48.1094
Q20.0156 56 32.3281 56
Q43.3594 56 49.7812 48.8906
Q56.2031 41.7969 56.2031 29.5938
M47.2188 32.2344
Q47.125 39.5938 43.0938 43.9844
Q39.0625 48.3906 32.4219 48.3906
Q24.9062 48.3906 20.3906 44.1406
Q15.875 39.8906 15.1875 32.1719
z
" id="BitstreamVeraSans-Roman-65"/>
      <path d="
M41.1094 46.2969
Q39.5938 47.1719 37.8125 47.5781
Q36.0312 48 33.8906 48
Q26.2656 48 22.1875 43.0469
Q18.1094 38.0938 18.1094 28.8125
L18.1094 0
L9.07812 0
L9.07812 54.6875
L18.1094 54.6875
L18.1094 46.1875
Q20.9531 51.1719 25.4844 53.5781
Q30.0312 56 36.5312 56
Q37.4531 56 38.5781 55.875
Q39.7031 55.7656 41.0625 55.5156
z
" id="BitstreamVeraSans-Roman-72"/>
      <path d="
M18.1094 8.20312
L18.1094 -20.7969
L9.07812 -20.7969
L9.07812 54.6875
L18.1094 54.6875
L18.1094 46.3906
Q20.9531 51.2656 25.2656 53.625
Q29.5938 56 35.5938 56
Q45.5625 56 51.7812 48.0938
Q58.0156 40.1875 58.0156 27.2969
Q58.0156 14.4062 51.7812 6.48438
Q45.5625 -1.42188 35.5938 -1.42188
Q29.5938 -1.42188 25.2656 0.953125
Q20.9531 3.32812 18.1094 8.20312
M48.6875 27.2969
Q48.6875 37.2031 44.6094 42.8438
Q40.5312 48.4844 33.4062 48.4844
Q26.2656 48.4844 22.1875 42.8438
Q18.1094 37.2031 18.1094 27.2969
Q18.1094 17.3906 22.1875 11.75
Q26.2656 6.10938 33.4062 6.10938
Q40.5312 6.10938 44.6094 11.75
Q48.6875 17.3906 48.6875 27.2969" id="BitstreamVeraSans-Roman-70"/>
     </defs>
     <g transform="translate(44.443125 374.78625)rotate(-90.0)scale(0.12 -0.12)">
      <use xlink:href="#BitstreamVeraSans-Roman-70"/>
      <use x="63.4765625" xlink:href="#BitstreamVeraSans-Roman-61"/>
      <use x="124.755859375" xlink:href="#BitstreamVeraSans-Roman-72"/>
      <use x="165.869140625" xlink:href="#BitstreamVeraSans-Roman-74"/>
      <use x="205.078125" xlink:href="#BitstreamVeraSans-Roman-69"/>
      <use x="232.861328125" xlink:href="#BitstreamVeraSans-Roman-63"/>
      <use x="287.841796875" xlink:href="#BitstreamVeraSans-Roman-6c"/>
      <use x="315.625" xlink:href="#BitstreamVeraSans-Roman-65"/>
      <use x="377.1484375" xlink:href="#BitstreamVeraSans-Roman-20"/>
      <use x="408.935546875" xlink:href="#BitstreamVeraSans-Roman-6e"/>
      <use x="472.314453125" xlink:href="#BitstreamVeraSans-Roman-75"/>
      <use x="535.693359375" xlink:href="#BitstreamVeraSans-Roman-6d"/>
      <use x="633.10546875" xlink:href="#BitstreamVeraSans-Roman-62"/>
      <use x="696.58203125" xlink:href="#BitstreamVeraSans-Roman-65"/>
      <use x="758.10546875" xlink:href="#BitstreamVeraSans-Roman-72"/>
      <use x="799.21875" xlink:href="#BitstreamVeraSans-Roman-73"/>
     </g>
    </g>
   </g>
   <g id="legend_1">
    <g id="patch_7">
     <path d="
M721.468 340.462
L774.1 340.462
L774.1 307.538
L721.468 307.538
z
" style="fill:#ffffff;stroke:#000000;stroke-linejoin:miter;"/>
    </g>
    <g id="line2d_32">
     <path d="
M726.368 313.207
L736.168 313.207" style="fill:none;stroke:#ff0000;stroke-linecap:square;"/>
    </g>
    <g id="line2d_33"/>
    <g id="text_17">
     <!-- ATP el.0 -->
     <defs>
      <path d="
M19.6719 64.7969
L19.6719 37.4062
L32.0781 37.4062
Q38.9688 37.4062 42.7188 40.9688
Q46.4844 44.5312 46.4844 51.125
Q46.4844 57.6719 42.7188 61.2344
Q38.9688 64.7969 32.0781 64.7969
z

M9.8125 72.9062
L32.0781 72.9062
Q44.3438 72.9062 50.6094 67.3594
Q56.8906 61.8125 56.8906 51.125
Q56.8906 40.3281 50.6094 34.8125
Q44.3438 29.2969 32.0781 29.2969
L19.6719 29.2969
L19.6719 0
L9.8125 0
z
" id="BitstreamVeraSans-Roman-50"/>
      <path d="
M10.6875 12.4062
L21 12.4062
L21 0
L10.6875 0
z
" id="BitstreamVeraSans-Roman-2e"/>
      <path d="
M34.1875 63.1875
L20.7969 26.9062
L47.6094 26.9062
z

M28.6094 72.9062
L39.7969 72.9062
L67.5781 0
L57.3281 0
L50.6875 18.7031
L17.8281 18.7031
L11.1875 0
L0.78125 0
z
" id="BitstreamVeraSans-Roman-41"/>
      <path d="
M-0.296875 72.9062
L61.375 72.9062
L61.375 64.5938
L35.5 64.5938
L35.5 0
L25.5938 0
L25.5938 64.5938
L-0.296875 64.5938
z
" id="BitstreamVeraSans-Roman-54"/>
     </defs>
     <g transform="translate(743.86765625 315.656875)scale(0.07 -0.07)">
      <use xlink:href="#BitstreamVeraSans-Roman-41"/>
      <use x="60.658203125" xlink:href="#BitstreamVeraSans-Roman-54"/>
      <use x="121.7421875" xlink:href="#BitstreamVeraSans-Roman-50"/>
      <use x="182.044921875" xlink:href="#BitstreamVeraSans-Roman-20"/>
      <use x="213.83203125" xlink:href="#BitstreamVeraSans-Roman-65"/>
      <use x="275.35546875" xlink:href="#BitstreamVeraSans-Roman-6c"/>
      <use x="303.138671875" xlink:href="#BitstreamVeraSans-Roman-2e"/>
      <use x="334.92578125" xlink:href="#BitstreamVeraSans-Roman-30"/>
     </g>
    </g>
    <g id="line2d_34">
     <path d="
M726.368 323.482
L736.168 323.482" style="fill:none;stroke:#008000;stroke-linecap:square;"/>
    </g>
    <g id="line2d_35"/>
    <g id="text_18">
     <!-- ATP el.1 -->
     <g transform="translate(743.86765625 325.9315625)scale(0.07 -0.07)">
      <use xlink:href="#BitstreamVeraSans-Roman-41"/>
      <use x="60.658203125" xlink:href="#BitstreamVeraSans-Roman-54"/>
      <use x="121.7421875" xlink:href="#BitstreamVeraSans-Roman-50"/>
      <use x="182.044921875" xlink:href="#BitstreamVeraSans-Roman-20"/>
      <use x="213.83203125" xlink:href="#BitstreamVeraSans-Roman-65"/>
      <use x="275.35546875" xlink:href="#BitstreamVeraSans-Roman-6c"/>
      <use x="303.138671875" xlink:href="#BitstreamVeraSans-Roman-2e"/>
      <use x="334.92578125" xlink:href="#BitstreamVeraSans-Roman-31"/>
     </g>
    </g>
    <g id="line2d_36">
     <path d="
M726.368 333.756
L736.168 333.756" style="fill:none;stroke:#0000ff;stroke-linecap:square;"/>
    </g>
    <g id="line2d_37"/>
    <g id="text_19">
     <!-- ATP el.2 -->
     <g transform="translate(743.86765625 336.20625)scale(0.07 -0.07)">
      <use xlink:href="#BitstreamVeraSans-Roman-41"/>
      <use x="60.658203125" xlink:href="#BitstreamVeraSans-Roman-54"/>
      <use x="121.7421875" xlink:href="#BitstreamVeraSans-Roman-50"/>
      <use x="182.044921875" xlink:href="#BitstreamVeraSans-Roman-20"/>
      <use x="213.83203125" xlink:href="#BitstreamVeraSans-Roman-65"/>
      <use x="275.35546875" xlink:href="#BitstreamVeraSans-Roman-6c"/>
      <use x="303.138671875" xlink:href="#BitstreamVeraSans-Roman-2e"/>
      <use x="334.92578125" xlink:href="#BitstreamVeraSans-Roman-32"/>
     </g>
    </g>
   </g>
  </g>
 </g>
 <defs>
  <clipPath id="p7ceb695115">
   <rect height="518.4" width="669.6" x="108.0" y="64.8"/>
  </clipPath>
 </defs>
</svg>
