<?xml version="1.0" encoding="utf-8" standalone="no"?>
<!DOCTYPE svg PUBLIC "-//W3C//DTD SVG 1.1//EN"
  "http://www.w3.org/Graphics/SVG/1.1/DTD/svg11.dtd">
<!-- Created with matplotlib (http://matplotlib.org/) -->
<svg height="648pt" version="1.1" viewBox="0 0 864 648" width="864pt" xmlns="http://www.w3.org/2000/svg" xmlns:xlink="http://www.w3.org/1999/xlink">
 <defs>
  <style type="text/css">
*{stroke-linecap:butt;stroke-linejoin:round;}
  </style>
 </defs>
 <g id="figure_1">
  <g id="patch_1">
   <path d="
M0 648
L864 648
L864 0
L0 0
z
" style="fill:#ffffff;"/>
  </g>
  <g id="axes_1">
   <g id="patch_2">
    <path d="
M108 583.2
L777.6 583.2
L777.6 64.8
L108 64.8
z
" style="fill:#ffffff;"/>
   </g>
   <g id="line2d_1">
    <path clip-path="url(#p7ceb695115)" d="
M108 583.2
L108.67 580.09
L109.339 579.571
L110.009 579.571
L110.678 579.053
L111.348 577.498
L112.687 571.795
L113.357 569.722
L114.696 566.611
L115.366 563.501
L116.035 559.354
L116.705 558.317
L117.374 556.243
L118.044 553.133
L118.714 551.578
L119.383 549.504
L122.062 537.581
L122.731 537.062
L124.07 527.213
L124.74 524.621
L125.41 523.584
L126.079 522.029
L126.749 519.437
L127.418 516.326
L128.088 515.29
L128.758 512.179
L130.097 500.256
L131.436 497.146
L132.106 493.517
L133.445 483.667
L134.114 480.557
L134.784 479.002
L135.454 478.483
L136.123 476.928
L136.793 476.41
L137.462 476.41
L138.132 475.891
L138.802 477.965
L140.141 470.189
L141.48 468.115
L142.819 460.339
L143.489 461.376
L144.158 458.266
L146.167 453.6
L146.837 453.082
L147.506 451.008
L148.176 448.416
L148.846 445.306
L149.515 443.75
L150.185 441.158
L150.854 440.122
L151.524 438.566
L152.194 434.938
L152.863 435.974
L153.533 437.53
L154.202 437.011
L154.872 437.011
L156.211 435.974
L156.881 431.309
L157.55 428.198
L158.22 427.162
L158.89 423.014
L159.559 423.533
L160.229 422.496
L160.898 420.422
L161.568 421.459
L162.238 419.904
L162.907 417.312
L163.577 418.867
L164.246 416.275
L164.916 414.202
L165.586 414.72
L166.255 417.312
L166.925 412.646
L168.934 403.315
L169.603 401.76
L170.273 402.797
L171.612 406.944
L172.282 409.536
L172.951 407.462
L173.621 409.536
L174.29 410.054
L174.96 407.462
L175.63 409.536
L176.299 406.944
L177.638 399.168
L178.308 395.021
L178.978 393.984
L179.647 395.021
L180.317 397.613
L180.986 393.984
L181.656 393.984
L182.326 391.91
L182.995 390.874
L183.665 390.874
L184.334 385.69
L185.004 387.763
L185.674 388.282
L186.343 387.245
L187.013 387.763
L187.682 386.726
L188.352 387.763
L189.022 387.763
L190.361 384.653
L191.03 384.134
L191.7 384.134
L192.37 385.171
L193.039 387.245
L193.709 386.726
L194.378 387.763
L195.048 388.282
L195.718 389.318
L196.387 394.502
L197.057 390.874
L197.726 390.355
L198.396 392.429
L199.066 393.984
L199.735 397.094
L200.405 393.984
L201.074 394.502
L201.744 392.947
L202.414 395.021
L203.083 394.502
L203.753 391.392
L204.422 392.947
L205.092 393.466
L205.762 395.539
L206.431 395.539
L207.101 395.021
L207.77 391.91
L208.44 395.539
L209.11 392.947
L209.779 392.429
L210.449 395.021
L211.118 392.429
L211.788 392.429
L212.458 391.392
L213.127 390.874
L213.797 391.91
L214.466 391.91
L215.136 392.429
L217.145 398.65
L217.814 396.576
L218.484 398.131
L219.154 396.058
L219.823 394.502
L220.493 391.91
L221.162 392.429
L221.832 391.392
L222.502 392.947
L223.171 389.318
L223.841 386.726
L224.51 383.616
L225.18 384.653
L225.85 382.579
L226.519 382.061
L227.189 383.616
L227.858 380.506
L228.528 378.95
L229.198 382.061
L229.867 382.579
L230.537 382.061
L231.206 373.766
L231.876 377.395
L232.546 379.469
L233.215 379.987
L233.885 377.395
L234.554 379.987
L235.224 383.098
L235.894 381.542
L236.563 380.506
L237.233 378.432
L237.902 379.469
L238.572 381.542
L239.242 385.171
L239.911 384.653
L240.581 383.616
L241.25 382.061
L241.92 382.579
L242.59 384.653
L243.259 383.098
L243.929 383.616
L244.598 379.469
L245.268 377.395
L245.938 377.395
L246.607 380.506
L247.277 378.95
L247.946 378.432
L248.616 379.469
L249.286 377.914
L250.625 373.766
L251.294 372.211
L251.964 370.138
L252.634 370.656
L253.303 370.138
L253.973 367.546
L254.642 368.064
L255.312 369.101
L255.982 368.582
L256.651 372.211
L257.321 369.619
L257.99 372.211
L258.66 377.395
L259.33 377.395
L259.999 378.95
L260.669 375.322
L261.338 376.358
L262.008 378.432
L262.678 379.469
L263.347 378.432
L264.017 378.432
L264.686 375.84
L265.356 376.877
L266.695 376.877
L267.365 382.061
L268.034 381.542
L269.374 381.542
L270.043 377.395
L270.713 381.542
L271.382 382.061
L272.052 384.134
L272.722 382.579
L273.391 385.69
L274.061 383.098
L274.73 386.208
L275.4 386.726
L276.07 386.726
L276.739 392.429
L277.409 391.392
L278.078 391.91
L278.748 394.502
L279.418 395.539
L280.087 393.466
L281.426 387.763
L282.766 390.874
L283.435 391.392
L284.774 388.282
L286.114 390.355
L286.783 390.355
L287.453 391.392
L288.792 392.429
L289.462 393.984
L290.131 393.466
L290.801 397.094
L291.47 397.094
L292.14 399.686
L292.81 400.205
L293.479 403.315
L294.818 402.278
L295.488 403.834
L296.158 404.87
L296.827 405.389
L297.497 406.426
L298.166 411.091
L298.836 409.018
L299.506 410.573
L300.175 410.573
L300.845 406.944
L301.514 410.054
L302.184 409.018
L302.854 409.018
L303.523 411.61
L304.193 409.536
L304.862 409.536
L306.202 415.238
L306.871 415.757
L307.541 415.238
L308.21 416.275
L308.88 415.238
L309.55 414.72
L310.219 415.238
L310.889 418.867
L312.228 414.72
L312.898 414.72
L313.567 418.349
L314.237 416.794
L314.906 417.83
L315.576 417.83
L316.246 412.646
L316.915 412.646
L317.585 412.128
L318.254 412.646
L318.924 411.61
L319.594 409.536
L320.933 412.646
L321.602 410.054
L322.272 410.573
L322.942 411.61
L323.611 411.091
L324.281 407.981
L324.95 412.646
L325.62 413.165
L326.29 411.61
L327.629 409.536
L328.298 409.536
L328.968 410.054
L329.638 409.018
L330.307 409.018
L330.977 410.054
L331.646 410.573
L332.316 412.128
L332.986 417.312
L333.655 418.349
L334.325 416.275
L334.994 419.904
L335.664 421.459
L336.334 422.496
L337.673 416.794
L338.342 418.867
L339.682 421.978
L340.351 421.978
L341.021 425.088
L341.69 425.606
L342.36 425.606
L343.03 427.162
L343.699 425.088
L344.369 422.496
L345.038 424.051
L345.708 421.459
L347.047 421.459
L347.717 424.051
L348.386 424.051
L349.056 425.088
L349.726 422.496
L350.395 423.533
L351.065 423.533
L351.734 422.496
L352.404 424.57
L353.743 425.606
L354.413 419.386
L355.082 420.941
L355.752 418.349
L356.422 415.238
L357.091 414.202
L358.43 413.165
L359.1 414.72
L359.77 414.72
L360.439 418.867
L361.109 418.349
L361.778 417.312
L362.448 417.312
L363.118 414.72
L363.787 416.275
L364.457 413.683
L365.126 412.128
L365.796 412.646
L367.135 410.573
L367.805 411.091
L368.474 412.128
L369.144 412.646
L369.814 414.72
L370.483 417.312
L371.153 417.312
L371.822 420.941
L372.492 422.496
L373.162 425.606
L373.831 422.496
L374.501 421.459
L375.84 427.162
L376.51 425.606
L378.518 422.496
L379.188 423.533
L379.858 426.125
L380.527 427.68
L381.197 427.162
L381.866 426.125
L382.536 426.125
L383.206 425.606
L383.875 426.125
L385.214 424.051
L385.884 424.57
L386.554 424.57
L387.223 425.088
L387.893 428.717
L388.562 427.68
L389.232 428.198
L389.902 428.198
L390.571 429.754
L391.241 426.125
L391.91 427.68
L392.58 428.198
L393.25 427.68
L393.919 428.198
L394.589 429.235
L395.258 426.125
L395.928 425.088
L396.598 426.125
L397.267 428.717
L397.937 427.68
L398.606 429.754
L399.276 428.198
L399.946 428.717
L400.615 424.57
L401.285 425.088
L401.954 424.57
L402.624 428.198
L403.294 429.235
L403.963 427.68
L404.633 427.68
L405.302 428.717
L405.972 429.235
L407.981 424.57
L408.65 422.496
L409.32 423.014
L409.99 423.014
L410.659 425.088
L411.329 426.643
L413.338 436.493
L414.007 438.048
L414.677 439.085
L415.346 440.64
L416.016 438.566
L416.686 438.048
L417.355 435.974
L418.025 437.011
L418.694 437.53
L419.364 440.64
L420.034 439.603
L421.373 441.677
L422.712 440.64
L423.382 442.714
L424.051 441.677
L424.721 442.195
L425.39 443.75
L426.06 443.75
L426.73 444.787
L427.399 446.342
L428.069 446.861
L428.738 444.787
L429.408 443.75
L430.078 441.677
L430.747 440.64
L431.417 442.195
L432.086 442.714
L432.756 440.64
L433.426 441.677
L434.095 443.232
L434.765 443.232
L435.434 439.603
L436.104 440.64
L436.774 438.566
L438.782 433.901
L439.452 436.493
L440.122 437.53
L440.791 434.419
L441.461 436.493
L442.13 439.085
L442.8 442.195
L443.47 442.195
L444.809 432.346
L445.478 409.536
L446.148 360.806
L446.818 301.709
L448.157 200.621
L449.496 138.413
L450.166 107.827
L450.835 110.938
L451.505 128.045
L452.174 159.667
L452.844 178.33
L454.183 255.571
L455.522 328.147
L456.862 359.77
L457.531 365.472
L458.201 376.358
L458.87 390.355
L459.54 393.984
L460.21 405.907
L460.879 429.235
L461.549 435.974
L462.218 433.382
L462.888 423.014
L464.227 443.75
L464.897 447.898
L465.566 443.232
L466.236 441.677
L466.906 448.416
L467.575 452.045
L468.245 446.342
L468.914 450.49
L469.584 447.898
L470.254 457.229
L470.923 441.677
L471.593 461.376
L472.262 460.858
L472.932 451.526
L473.602 446.342
L474.271 449.453
L474.941 451.008
L476.28 457.747
L476.95 455.155
L477.619 466.56
L478.289 464.486
L478.958 474.854
L479.628 466.56
L480.298 464.486
L480.967 460.858
L481.637 458.266
L482.306 460.339
L482.976 453.6
L483.646 451.008
L484.315 463.968
L485.654 441.677
L486.324 461.894
L486.994 474.854
L487.663 466.042
L488.333 449.453
L489.002 455.674
L489.672 472.262
L490.342 450.49
L491.011 466.56
L491.681 453.082
L492.35 449.971
L493.02 458.266
L493.69 456.192
L494.359 467.078
L495.029 465.523
L495.698 460.858
L496.368 454.637
L497.038 452.563
L497.707 463.968
L498.377 467.078
L499.046 450.49
L499.716 454.118
L500.386 444.787
L501.725 453.6
L502.394 462.931
L503.064 448.934
L503.734 439.603
L504.403 451.008
L505.073 448.934
L505.742 445.306
L506.412 445.306
L507.082 446.342
L507.751 457.747
L508.421 454.118
L509.09 446.342
L509.76 456.192
L510.43 440.122
L511.099 447.379
L511.769 452.563
L512.438 453.6
L513.108 455.674
L513.778 440.122
L514.447 439.603
L515.117 444.269
L515.786 446.861
L516.456 439.603
L517.126 448.416
L517.795 437.011
L518.465 439.603
L519.134 444.269
L519.804 432.346
L521.143 443.232
L521.813 434.419
L522.482 444.787
L523.152 440.64
L523.822 439.085
L524.491 434.419
L525.161 437.53
L525.83 442.195
L526.5 440.122
L527.839 429.754
L528.509 430.79
L529.178 427.68
L529.848 452.563
L530.518 428.198
L531.187 438.566
L531.857 427.162
L532.526 420.941
L533.196 439.085
L533.866 419.386
L534.535 414.202
L535.874 428.717
L536.544 416.275
L537.214 430.79
L537.883 427.68
L538.553 423.014
L539.222 424.051
L539.892 429.235
L540.562 427.162
L541.231 418.349
L541.901 421.978
L542.57 423.014
L543.24 426.125
L543.91 422.496
L544.579 431.827
L545.249 436.493
L545.918 423.533
L546.588 423.533
L547.258 425.606
L547.927 427.162
L548.597 420.422
L549.266 409.018
L549.936 415.238
L550.606 415.757
L551.275 429.754
L551.945 400.723
L552.614 418.867
L553.954 406.944
L554.623 412.646
L555.293 417.312
L555.962 410.054
L556.632 408.499
L557.302 420.422
L557.971 404.352
L558.641 413.165
L559.31 406.426
L559.98 409.536
L560.65 402.278
L561.319 424.57
L561.989 402.797
L562.658 410.054
L563.328 397.094
L563.998 399.686
L564.667 403.315
L565.337 407.981
L566.006 423.533
L566.676 402.797
L567.346 392.947
L568.015 386.208
L568.685 389.837
L569.354 402.797
L570.024 401.242
L570.694 395.539
L571.363 401.76
L572.033 416.794
L572.702 379.469
L573.372 404.352
L574.042 395.021
L574.711 383.616
L575.381 407.462
L576.05 404.87
L576.72 393.984
L577.39 391.91
L578.059 388.282
L578.729 389.837
L579.398 387.763
L580.068 394.502
L580.738 396.058
L581.407 393.466
L582.077 389.837
L582.746 393.466
L583.416 371.174
L584.086 373.766
L584.755 382.061
L586.764 392.429
L587.434 391.392
L588.103 380.506
L588.773 390.355
L589.442 395.021
L590.112 397.613
L590.782 384.653
L591.451 392.947
L592.121 384.134
L592.79 361.325
L593.46 383.098
L594.13 376.877
L594.799 374.285
L595.469 381.024
L596.138 362.362
L596.808 378.95
L597.478 361.843
L598.147 373.248
L598.817 388.282
L599.486 392.947
L600.156 376.877
L600.826 391.392
L601.495 380.506
L602.165 375.84
L602.834 396.576
L603.504 378.432
L604.174 382.061
L604.843 376.877
L605.513 386.726
L606.182 379.469
L606.852 378.95
L607.522 391.392
L608.191 375.84
L608.861 389.318
L609.53 370.656
L610.2 385.171
L610.87 389.318
L611.539 386.726
L612.209 359.77
L612.878 374.803
L613.548 361.325
L614.218 367.546
L615.557 374.803
L616.226 355.104
L616.896 353.549
L617.566 367.546
L618.235 375.322
L618.905 392.429
L620.244 363.398
L620.914 372.73
L621.583 375.84
L622.253 372.211
L622.922 361.325
L623.592 373.766
L624.262 356.659
L624.931 356.141
L625.601 357.696
L626.27 363.917
L626.94 354.067
L627.61 350.438
L628.279 340.07
L628.949 339.034
L629.618 357.696
L630.288 372.211
L630.958 347.846
L631.627 357.696
L632.297 348.365
L632.966 347.328
L633.636 358.214
L634.306 363.917
L634.975 364.435
L635.645 366.509
L636.314 367.546
L636.984 374.803
L637.654 358.214
L638.323 374.803
L638.993 350.438
L639.662 353.549
L640.332 364.435
L641.002 365.99
L641.671 359.77
L642.341 358.214
L643.01 365.472
L643.68 364.435
L644.35 357.696
L645.019 353.03
L645.689 352.512
L646.358 340.07
L647.028 357.696
L647.698 331.776
L649.037 346.81
L649.706 345.773
L650.376 336.442
L651.046 358.733
L651.715 352.512
L652.385 356.659
L653.054 348.883
L653.724 348.365
L654.394 341.626
L655.063 357.178
L655.733 339.552
L656.402 352.512
L657.072 342.662
L657.742 336.96
L658.411 338.515
L659.081 334.886
L659.75 342.662
L660.42 359.251
L661.09 350.957
L661.759 363.917
L662.429 354.067
L663.098 339.552
L663.768 336.96
L664.438 339.552
L665.107 343.699
L665.777 334.886
L666.446 330.221
L667.116 346.291
L667.786 332.294
L668.455 357.696
L669.125 345.773
L669.794 342.144
L670.464 347.328
L671.134 345.254
L671.803 335.923
L672.473 335.923
L673.142 334.368
L673.812 335.405
L674.482 329.184
L675.151 324.518
L675.821 307.93
L676.49 332.294
L677.16 342.144
L677.83 325.037
L678.499 315.187
L679.169 336.96
L679.838 324.518
L680.508 325.555
L681.178 330.739
L681.847 325.037
L682.517 325.037
L683.186 318.298
L683.856 317.261
L684.526 315.187
L685.195 327.629
L685.865 342.662
L686.534 324
L687.204 309.485
L687.874 324.518
L688.543 328.147
L689.213 351.994
L689.882 332.813
L690.552 355.104
L691.222 335.923
L691.891 330.739
L692.561 335.923
L693.23 329.184
L693.9 337.478
L694.57 326.074
L695.239 328.666
L695.909 319.334
L696.578 321.926
L697.248 333.85
L697.918 334.368
L698.587 331.776
L699.257 320.89
L699.926 323.482
L700.596 324.518
L701.266 326.592
L701.935 326.074
L702.605 311.558
L703.274 311.558
L703.944 332.813
L704.614 313.114
L705.283 314.15
L705.953 329.184
L706.622 316.224
L707.292 315.187
L707.962 310.522
L708.631 313.632
L709.301 320.371
L710.64 319.334
L711.31 330.221
L711.979 331.258
L712.649 320.371
L713.318 315.187
L713.988 305.338
L714.658 300.154
L715.327 310.003
L715.997 306.374
L716.666 319.853
L717.336 319.853
L718.675 343.699
L719.345 329.184
L720.684 322.963
L721.354 326.074
L722.023 328.147
L722.693 318.298
L723.362 316.224
L724.032 334.886
L724.702 311.558
L725.371 304.819
L726.041 321.408
L726.71 316.224
L728.05 312.077
L728.719 318.816
L729.389 299.117
L730.058 307.411
L730.728 298.598
L731.398 308.448
L732.067 295.488
L732.737 314.15
L733.406 302.746
L734.076 288.23
L734.746 279.418
L735.415 297.562
L736.085 309.485
L736.754 318.298
L737.424 315.187
L738.094 307.411
L738.763 296.525
L739.433 301.709
L740.102 310.003
L740.772 299.117
L741.442 293.414
L742.111 300.672
L742.781 276.826
L743.45 288.749
L744.12 311.558
L744.79 288.749
L745.459 282.01
L746.129 289.267
L746.798 278.381
L747.468 281.491
L748.138 273.715
L748.807 281.491
L749.477 278.899
L750.146 276.826
L751.486 285.638
L752.155 273.197
L752.825 244.166
L753.494 289.786
L754.164 289.786
L754.834 280.973
L755.503 266.976
L756.173 265.939
L756.842 276.826
L757.512 268.013
L758.182 274.752
L758.851 259.2
L759.521 275.789
L760.19 272.16
L760.86 272.16
L761.53 265.421
L762.199 268.013
L762.869 276.307
L763.538 262.829
L764.208 252.979
L764.878 266.458
L765.547 252.979
L766.217 251.942
L766.886 251.942
L767.556 255.053
L768.226 259.2
L768.895 252.461
L769.565 252.979
L770.234 244.685
L770.904 273.197
L771.574 279.418
L772.913 257.645
L773.582 258.682
L774.252 253.498
L774.922 243.13
L775.591 263.866
L776.261 265.421
L776.93 269.05
L777.6 244.166
L777.6 244.166" style="fill:none;stroke:#ff0000;stroke-linecap:square;"/>
   </g>
   <g id="line2d_2">
    <path clip-path="url(#p7ceb695115)" d="
M108 583.2
L777.6 583.2
L777.6 583.2" style="fill:none;stroke:#008000;stroke-linecap:square;"/>
   </g>
   <g id="line2d_3">
    <path clip-path="url(#p7ceb695115)" d="
M108 583.2
L109.339 581.126
L110.009 581.126
L110.678 580.09
L111.348 579.571
L112.018 578.534
L112.687 573.869
L113.357 572.832
L114.696 564.019
L115.366 561.427
L116.705 555.206
L118.044 546.394
L118.714 543.802
L120.053 537.062
L120.722 534.47
L121.392 532.915
L122.062 530.842
L122.731 524.621
L123.401 523.584
L124.07 520.992
L124.74 518.918
L125.41 518.4
L126.079 515.29
L126.749 510.624
L128.758 500.774
L129.427 496.627
L130.097 494.554
L130.766 489.888
L132.106 489.888
L132.775 485.222
L133.445 486.259
L134.114 484.186
L134.784 479.002
L135.454 477.965
L136.793 473.818
L137.462 471.226
L138.802 469.152
L139.471 470.707
L140.141 468.634
L140.81 466.042
L141.48 464.486
L142.15 462.413
L142.819 459.821
L143.489 458.784
L144.158 460.858
L144.828 460.339
L145.498 457.229
L146.837 456.192
L148.176 452.045
L148.846 452.563
L149.515 449.453
L150.185 449.453
L150.854 445.824
L151.524 446.861
L152.194 442.714
L152.863 441.677
L153.533 441.677
L154.202 438.566
L154.872 437.011
L155.542 432.864
L156.211 431.827
L156.881 432.346
L157.55 433.382
L158.22 432.864
L158.89 431.309
L159.559 428.717
L160.229 425.088
L161.568 423.014
L162.238 420.422
L162.907 418.867
L163.577 421.459
L164.246 421.978
L164.916 424.051
L165.586 423.014
L166.255 423.014
L166.925 421.978
L167.594 418.867
L168.264 417.83
L168.934 417.83
L169.603 417.312
L170.273 414.202
L170.942 415.238
L171.612 416.794
L172.282 411.61
L172.951 408.499
L173.621 407.462
L174.29 404.352
L174.96 403.834
L175.63 406.944
L176.299 404.87
L176.969 406.426
L178.978 403.315
L179.647 400.723
L180.986 397.613
L181.656 395.539
L182.326 396.058
L182.995 395.021
L183.665 392.947
L184.334 391.91
L185.004 391.392
L185.674 390.355
L187.013 386.208
L187.682 389.837
L188.352 391.392
L189.022 393.466
L189.691 393.984
L190.361 392.947
L191.03 394.502
L191.7 389.837
L192.37 391.91
L193.039 390.874
L193.709 390.355
L195.048 388.282
L196.387 389.318
L197.057 385.69
L197.726 385.171
L198.396 387.763
L199.066 384.134
L199.735 382.579
L200.405 384.653
L201.074 382.579
L201.744 382.579
L202.414 381.542
L203.083 385.69
L203.753 385.69
L204.422 382.579
L205.092 384.653
L206.431 383.616
L207.101 385.171
L207.77 387.763
L208.44 387.245
L209.11 387.763
L209.779 389.318
L210.449 386.208
L211.118 386.208
L211.788 388.8
L212.458 387.763
L213.127 388.8
L213.797 389.318
L214.466 390.355
L215.136 391.91
L215.806 388.282
L216.475 390.355
L217.145 389.837
L217.814 395.021
L218.484 393.466
L219.154 395.539
L219.823 395.539
L220.493 392.429
L221.162 390.874
L221.832 391.91
L222.502 388.8
L223.171 389.318
L223.841 386.726
L224.51 386.726
L225.18 389.318
L225.85 386.208
L226.519 387.245
L227.189 383.616
L227.858 383.098
L228.528 379.469
L229.198 382.579
L229.867 382.061
L230.537 382.579
L231.206 387.245
L231.876 386.726
L232.546 388.8
L233.215 390.355
L233.885 391.392
L235.224 387.245
L235.894 386.726
L236.563 390.355
L237.233 391.91
L237.902 392.429
L238.572 389.837
L239.242 388.8
L239.911 390.355
L240.581 392.947
L241.25 393.984
L241.92 393.466
L242.59 393.984
L243.259 396.576
L243.929 393.466
L244.598 399.168
L245.268 398.65
L245.938 397.613
L246.607 399.686
L247.277 399.686
L247.946 400.723
L249.286 400.723
L249.955 402.797
L250.625 403.315
L251.294 399.686
L251.964 399.168
L252.634 395.539
L253.303 395.539
L253.973 396.576
L254.642 394.502
L255.312 398.65
L256.651 401.76
L257.321 402.797
L257.99 404.87
L258.66 403.315
L259.33 404.352
L259.999 399.168
L260.669 395.021
L261.338 395.539
L262.008 396.576
L262.678 396.576
L263.347 394.502
L264.017 392.947
L264.686 393.466
L265.356 389.318
L266.026 386.726
L266.695 387.763
L267.365 386.726
L268.034 385.171
L268.704 385.171
L269.374 384.653
L270.713 385.69
L271.382 388.8
L272.052 390.874
L272.722 392.429
L273.391 391.91
L274.061 392.429
L274.73 390.355
L275.4 391.392
L276.07 391.91
L276.739 391.91
L277.409 395.539
L278.078 395.021
L278.748 395.539
L279.418 395.539
L280.087 393.466
L280.757 395.021
L281.426 395.539
L282.766 402.278
L283.435 402.797
L284.105 405.907
L284.774 406.426
L285.444 405.907
L286.114 404.352
L286.783 400.723
L287.453 401.242
L288.122 403.315
L288.792 400.723
L289.462 400.205
L290.131 404.352
L290.801 401.76
L291.47 403.315
L292.14 404.352
L292.81 405.907
L293.479 405.389
L294.149 402.278
L294.818 404.352
L295.488 405.907
L296.158 405.907
L296.827 409.536
L298.166 413.683
L298.836 411.091
L299.506 407.462
L300.175 409.536
L301.514 414.72
L302.184 414.202
L302.854 412.646
L303.523 417.83
L304.193 417.83
L304.862 417.312
L306.202 417.312
L306.871 418.349
L308.21 411.61
L308.88 411.61
L309.55 415.757
L310.889 418.867
L311.558 418.349
L312.898 418.349
L313.567 419.386
L314.237 416.275
L314.906 415.757
L315.576 415.757
L318.254 428.717
L318.924 426.125
L319.594 427.162
L320.263 426.125
L320.933 425.606
L321.602 428.198
L322.272 428.198
L322.942 428.717
L323.611 430.272
L324.281 428.717
L324.95 430.79
L325.62 433.382
L326.29 430.79
L326.959 432.864
L328.298 431.827
L328.968 430.79
L329.638 429.235
L330.307 428.198
L330.977 431.309
L331.646 430.272
L332.316 430.272
L332.986 429.754
L334.325 430.79
L334.994 432.864
L335.664 429.235
L336.334 427.68
L337.003 428.198
L337.673 428.198
L338.342 428.717
L339.682 426.643
L340.351 426.125
L341.021 425.088
L341.69 423.533
L342.36 423.014
L343.03 420.941
L343.699 420.941
L344.369 418.867
L345.038 420.941
L345.708 421.978
L346.378 420.941
L347.047 422.496
L347.717 420.941
L348.386 419.904
L349.056 420.941
L349.726 424.57
L351.065 424.57
L351.734 425.606
L352.404 423.533
L353.074 422.496
L353.743 424.051
L354.413 420.941
L355.082 421.459
L355.752 420.422
L356.422 422.496
L357.091 421.459
L357.761 420.941
L358.43 420.941
L359.1 421.459
L359.77 423.014
L360.439 425.606
L361.109 425.606
L361.778 428.717
L362.448 427.68
L363.118 429.235
L363.787 429.235
L364.457 429.754
L365.126 428.717
L365.796 428.198
L366.466 432.346
L367.135 433.901
L367.805 433.901
L368.474 434.938
L369.144 436.493
L369.814 437.011
L370.483 435.456
L371.153 435.456
L371.822 438.566
L372.492 438.566
L373.162 437.53
L373.831 438.566
L374.501 439.085
L375.17 439.085
L375.84 438.566
L376.51 439.085
L377.179 437.53
L377.849 437.53
L378.518 434.938
L379.188 432.864
L379.858 432.346
L380.527 429.754
L381.866 429.754
L382.536 429.235
L383.206 428.198
L383.875 426.125
L384.545 423.533
L385.214 420.422
L385.884 418.867
L386.554 419.904
L387.223 418.867
L387.893 417.312
L388.562 417.312
L389.232 415.757
L389.902 420.941
L391.241 419.904
L391.91 421.459
L393.25 420.422
L393.919 419.386
L394.589 419.904
L395.258 419.386
L395.928 424.051
L396.598 424.051
L397.937 419.904
L398.606 419.386
L399.276 419.904
L399.946 419.386
L400.615 418.349
L401.285 416.794
L403.294 423.014
L403.963 425.606
L404.633 427.68
L405.302 428.198
L405.972 427.162
L406.642 430.272
L407.311 427.162
L407.981 426.125
L408.65 424.051
L409.32 429.754
L409.99 427.162
L410.659 426.125
L411.998 425.088
L412.668 425.606
L413.338 419.386
L414.007 419.386
L414.677 416.794
L417.355 410.573
L418.025 412.646
L418.694 413.683
L419.364 412.646
L420.034 411.091
L420.703 416.794
L421.373 419.904
L422.042 419.386
L423.382 421.459
L424.051 423.533
L424.721 421.459
L425.39 419.904
L426.06 420.422
L426.73 419.386
L427.399 419.904
L428.069 419.386
L428.738 419.904
L429.408 417.312
L430.078 418.867
L430.747 420.941
L431.417 420.422
L432.086 420.422
L432.756 423.014
L434.095 420.941
L434.765 417.83
L435.434 417.312
L436.104 420.941
L436.774 418.867
L437.443 418.867
L438.113 416.794
L438.782 416.275
L439.452 416.794
L440.122 418.349
L440.791 421.459
L441.461 419.386
L442.13 420.422
L442.8 417.312
L443.47 416.794
L444.139 413.683
L445.478 382.061
L446.148 342.662
L446.818 290.822
L447.487 251.424
L448.157 189.734
L448.826 138.413
L449.496 127.526
L450.166 105.235
L450.835 108.346
L451.505 120.787
L452.174 163.296
L454.183 264.384
L454.853 279.418
L455.522 315.187
L457.531 374.285
L458.201 391.392
L458.87 401.242
L459.54 404.87
L460.21 407.462
L460.879 404.352
L461.549 427.162
L462.218 425.606
L462.888 432.864
L463.558 438.048
L464.227 428.198
L464.897 443.232
L465.566 430.272
L466.236 452.563
L466.906 451.008
L467.575 454.118
L468.245 438.566
L468.914 443.75
L469.584 452.045
L470.254 449.453
L470.923 451.526
L471.593 445.306
L472.262 451.008
L472.932 463.45
L473.602 445.824
L474.271 467.078
L474.941 454.118
L475.61 453.6
L476.28 456.71
L476.95 455.155
L477.619 447.898
L478.289 451.526
L478.958 441.677
L479.628 461.376
L480.298 454.118
L480.967 471.744
L481.637 469.152
L482.306 456.192
L482.976 454.118
L483.646 460.339
L484.315 458.784
L484.985 445.824
L485.654 455.674
L486.324 455.674
L486.994 460.339
L487.663 452.045
L488.333 449.453
L489.002 467.597
L490.342 459.821
L491.011 449.971
L491.681 465.005
L492.35 452.563
L493.69 470.189
L494.359 459.821
L495.029 445.824
L495.698 437.011
L496.368 446.342
L497.038 462.931
L497.707 456.71
L498.377 454.118
L499.046 452.563
L499.716 454.118
L500.386 452.563
L501.055 455.155
L501.725 448.416
L502.394 447.898
L503.064 451.008
L503.734 451.008
L504.403 452.045
L505.073 448.934
L505.742 449.971
L506.412 454.118
L507.082 444.787
L507.751 446.342
L508.421 465.523
L509.09 439.603
L509.76 447.379
L510.43 437.53
L511.099 447.898
L511.769 443.75
L512.438 444.787
L513.108 453.6
L513.778 436.493
L514.447 428.198
L515.117 441.677
L515.786 438.048
L516.456 439.603
L517.126 439.603
L517.795 422.496
L518.465 431.309
L519.134 444.269
L519.804 437.011
L520.474 438.566
L521.143 439.603
L521.813 442.714
L522.482 442.195
L523.152 452.563
L523.822 438.048
L524.491 431.827
L525.161 431.827
L525.83 433.382
L526.5 439.603
L527.17 433.901
L527.839 434.419
L528.509 428.198
L529.178 432.346
L529.848 426.125
L530.518 426.643
L531.187 425.088
L531.857 432.864
L532.526 433.901
L533.196 435.456
L533.866 435.974
L534.535 424.57
L535.205 410.054
L535.874 434.419
L536.544 414.202
L537.214 419.386
L537.883 406.944
L538.553 409.018
L539.222 414.202
L539.892 413.165
L540.562 415.238
L541.231 432.346
L541.901 430.79
L542.57 421.459
L543.91 415.757
L544.579 421.459
L545.249 416.794
L545.918 414.72
L546.588 416.275
L547.258 437.011
L547.927 406.426
L548.597 415.238
L549.266 416.794
L549.936 404.352
L550.606 425.088
L551.275 435.456
L551.945 425.088
L552.614 409.018
L553.284 413.165
L553.954 406.944
L554.623 403.315
L555.293 390.355
L555.962 400.723
L556.632 406.944
L557.302 416.275
L557.971 417.312
L558.641 404.87
L559.31 428.198
L559.98 402.278
L560.65 393.984
L561.319 421.459
L561.989 405.907
L562.658 407.981
L563.328 402.278
L563.998 387.763
L564.667 403.834
L565.337 404.352
L566.006 382.579
L566.676 399.686
L567.346 410.054
L568.015 403.315
L568.685 387.245
L569.354 392.429
L570.024 387.763
L570.694 384.653
L571.363 400.723
L572.033 407.981
L572.702 395.539
L573.372 396.576
L574.042 380.506
L574.711 395.021
L575.381 392.429
L576.05 382.579
L576.72 370.656
L577.39 386.208
L578.059 387.763
L578.729 391.392
L579.398 398.131
L580.068 400.205
L580.738 386.208
L581.407 394.502
L582.077 392.429
L582.746 403.315
L583.416 388.282
L584.086 388.8
L584.755 387.763
L585.425 391.392
L586.094 385.69
L586.764 389.318
L587.434 401.76
L588.103 404.352
L588.773 394.502
L589.442 378.432
L590.112 381.542
L590.782 401.76
L591.451 373.248
L592.121 381.542
L592.79 379.987
L593.46 382.061
L594.13 391.392
L594.799 388.282
L595.469 389.837
L596.138 380.506
L596.808 376.358
L597.478 365.472
L598.147 390.874
L598.817 382.579
L599.486 370.138
L600.156 366.509
L600.826 353.549
L601.495 383.098
L602.165 383.616
L602.834 392.429
L603.504 372.211
L604.174 372.73
L605.513 357.696
L606.182 375.84
L606.852 357.178
L607.522 369.101
L608.191 372.73
L608.861 382.579
L609.53 384.653
L610.2 372.211
L610.87 365.472
L611.539 378.95
L612.209 382.061
L612.878 383.616
L613.548 377.395
L614.218 383.616
L614.887 382.579
L615.557 360.806
L616.896 378.95
L617.566 361.325
L618.235 361.843
L618.905 354.067
L619.574 364.435
L620.244 358.733
L620.914 357.178
L621.583 361.325
L622.253 360.806
L622.922 362.88
L623.592 351.994
L624.262 357.696
L624.931 353.549
L625.601 361.325
L626.27 348.883
L626.94 351.994
L627.61 347.328
L628.279 367.546
L628.949 354.067
L629.618 344.736
L630.288 356.659
L630.958 346.291
L631.627 342.144
L632.297 345.254
L632.966 349.92
L633.636 357.178
L634.306 356.659
L634.975 349.92
L635.645 356.141
L636.314 377.395
L636.984 360.806
L637.654 363.917
L638.993 359.77
L639.662 360.806
L641.002 354.067
L641.671 351.475
L642.341 352.512
L643.01 347.328
L643.68 366.509
L644.35 345.773
L645.019 363.398
L645.689 350.438
L646.358 360.288
L647.028 357.696
L647.698 364.435
L648.367 348.883
L649.037 340.07
L649.706 348.365
L650.376 353.549
L651.715 341.107
L652.385 353.03
L653.054 346.291
L653.724 349.402
L654.394 336.442
L655.063 350.438
L655.733 350.957
L656.402 334.368
L657.072 350.957
L657.742 344.218
L658.411 353.03
L659.081 343.699
L659.75 337.997
L660.42 346.291
L661.09 347.328
L661.759 347.846
L662.429 359.251
L663.098 335.405
L663.768 345.254
L664.438 328.666
L665.107 342.662
L665.777 342.144
L666.446 350.438
L667.116 338.515
L667.786 341.107
L668.455 324.518
L669.125 330.221
L669.794 341.107
L670.464 337.478
L671.134 328.147
L671.803 323.482
L672.473 344.736
L673.142 322.445
L673.812 332.294
L674.482 333.85
L675.151 329.184
L675.821 330.221
L676.49 314.15
L677.16 332.294
L677.83 329.702
L678.499 326.074
L679.169 325.555
L679.838 322.445
L680.508 348.883
L681.178 351.994
L681.847 353.549
L682.517 332.294
L683.186 328.666
L683.856 347.846
L684.526 302.746
L685.195 330.221
L685.865 314.669
L686.534 311.558
L687.204 312.595
L687.874 314.669
L688.543 307.411
L689.213 319.853
L689.882 315.706
L690.552 326.074
L691.222 326.592
L691.891 334.886
L692.561 349.402
L693.23 343.699
L693.9 346.81
L694.57 332.294
L695.239 329.702
L695.909 333.85
L696.578 328.666
L697.248 329.702
L697.918 328.147
L698.587 314.669
L699.257 325.555
L699.926 326.074
L700.596 332.813
L701.266 327.629
L701.935 333.331
L702.605 332.813
L703.274 347.328
L703.944 318.298
L704.614 318.298
L705.283 315.706
L705.953 332.813
L706.622 328.147
L707.292 325.037
L707.962 325.555
L708.631 318.298
L709.301 321.408
L709.97 336.96
L710.64 342.662
L711.31 324.518
L711.979 312.077
L712.649 302.227
L713.318 333.331
L714.658 302.227
L715.327 310.522
L715.997 317.261
L716.666 318.298
L717.336 316.742
L718.006 320.89
L718.675 316.224
L719.345 315.706
L720.014 329.184
L720.684 315.706
L721.354 325.555
L722.023 327.11
L723.362 314.669
L724.032 302.746
L724.702 313.632
L725.371 320.89
L726.041 308.448
L726.71 310.522
L727.38 310.003
L728.05 311.04
L728.719 321.408
L730.058 312.595
L730.728 306.374
L731.398 309.485
L732.067 317.779
L732.737 308.966
L733.406 298.08
L734.076 311.558
L734.746 307.93
L735.415 289.786
L736.085 319.334
L736.754 329.702
L737.424 324.518
L738.094 297.043
L738.763 311.04
L739.433 306.374
L740.102 319.334
L740.772 288.749
L741.442 287.712
L742.111 302.746
L742.781 298.08
L743.45 296.006
L744.12 311.558
L744.79 292.378
L745.459 290.304
L746.129 281.491
L746.798 285.638
L747.468 283.565
L748.138 270.086
L748.807 282.01
L749.477 287.712
L750.146 283.046
L750.816 286.675
L752.155 278.899
L752.825 272.16
L753.494 292.896
L754.164 293.414
L754.834 290.304
L755.503 266.458
L756.173 271.642
L756.842 268.531
L757.512 275.789
L758.182 271.642
L758.851 283.046
L759.521 268.013
L760.19 277.862
L760.86 268.013
L761.53 272.678
L762.199 256.608
L762.869 260.237
L763.538 255.571
L764.878 242.611
L765.547 262.31
L766.217 271.642
L766.886 261.792
L767.556 259.718
L768.226 262.31
L768.895 256.09
L769.565 257.126
L770.234 249.35
L770.904 250.387
L771.574 256.09
L772.243 276.307
L772.913 269.568
L773.582 257.645
L774.252 240.019
L774.922 234.317
L775.591 253.498
L776.261 244.166
L776.93 247.795
L777.6 266.458
L777.6 266.458" style="fill:none;stroke:#0000ff;stroke-linecap:square;"/>
   </g>
   <g id="patch_3">
    <path d="
M108 583.2
L108 64.8" style="fill:none;stroke:#000000;stroke-linecap:square;stroke-linejoin:miter;"/>
   </g>
   <g id="patch_4">
    <path d="
M777.6 583.2
L777.6 64.8" style="fill:none;stroke:#000000;stroke-linecap:square;stroke-linejoin:miter;"/>
   </g>
   <g id="patch_5">
    <path d="
M108 64.8
L777.6 64.8" style="fill:none;stroke:#000000;stroke-linecap:square;stroke-linejoin:miter;"/>
   </g>
   <g id="patch_6">
    <path d="
M108 583.2
L777.6 583.2" style="fill:none;stroke:#000000;stroke-linecap:square;stroke-linejoin:miter;"/>
   </g>
   <g id="matplotlib.axis_1">
    <g id="xtick_1">
     <g id="line2d_4">
      <defs>
       <path d="
M0 0
L0 -4" id="mc7db9fdffb" style="stroke:#000000;stroke-width:0.5;"/>
      </defs>
      <g>
       <use style="stroke:#000000;stroke-width:0.5;" x="108.0" xlink:href="#mc7db9fdffb" y="583.2"/>
      </g>
     </g>
     <g id="line2d_5">
      <defs>
       <path d="
M0 0
L0 4" id="m5a7d422ac3" style="stroke:#000000;stroke-width:0.5;"/>
      </defs>
      <g>
       <use style="stroke:#000000;stroke-width:0.5;" x="108.0" xlink:href="#m5a7d422ac3" y="64.8"/>
      </g>
     </g>
     <g id="text_1">
      <!-- 0 -->
      <defs>
       <path d="
M31.7812 66.4062
Q24.1719 66.4062 20.3281 58.9062
Q16.5 51.4219 16.5 36.375
Q16.5 21.3906 20.3281 13.8906
Q24.1719 6.39062 31.7812 6.39062
Q39.4531 6.39062 43.2812 13.8906
Q47.125 21.3906 47.125 36.375
Q47.125 51.4219 43.2812 58.9062
Q39.4531 66.4062 31.7812 66.4062
M31.7812 74.2188
Q44.0469 74.2188 50.5156 64.5156
Q56.9844 54.8281 56.9844 36.375
Q56.9844 17.9688 50.5156 8.26562
Q44.0469 -1.42188 31.7812 -1.42188
Q19.5312 -1.42188 13.0625 8.26562
Q6.59375 17.9688 6.59375 36.375
Q6.59375 54.8281 13.0625 64.5156
Q19.5312 74.2188 31.7812 74.2188" id="BitstreamVeraSans-Roman-30"/>
      </defs>
      <g transform="translate(104.9765625 596.318125)scale(0.12 -0.12)">
       <use xlink:href="#BitstreamVeraSans-Roman-30"/>
      </g>
     </g>
    </g>
    <g id="xtick_2">
     <g id="line2d_6">
      <g>
       <use style="stroke:#000000;stroke-width:0.5;" x="275.4" xlink:href="#mc7db9fdffb" y="583.2"/>
      </g>
     </g>
     <g id="line2d_7">
      <g>
       <use style="stroke:#000000;stroke-width:0.5;" x="275.4" xlink:href="#m5a7d422ac3" y="64.8"/>
      </g>
     </g>
     <g id="text_2">
      <!-- 50000 -->
      <defs>
       <path d="
M10.7969 72.9062
L49.5156 72.9062
L49.5156 64.5938
L19.8281 64.5938
L19.8281 46.7344
Q21.9688 47.4688 24.1094 47.8281
Q26.2656 48.1875 28.4219 48.1875
Q40.625 48.1875 47.75 41.5
Q54.8906 34.8125 54.8906 23.3906
Q54.8906 11.625 47.5625 5.09375
Q40.2344 -1.42188 26.9062 -1.42188
Q22.3125 -1.42188 17.5469 -0.640625
Q12.7969 0.140625 7.71875 1.70312
L7.71875 11.625
Q12.1094 9.23438 16.7969 8.0625
Q21.4844 6.89062 26.7031 6.89062
Q35.1562 6.89062 40.0781 11.3281
Q45.0156 15.7656 45.0156 23.3906
Q45.0156 31 40.0781 35.4375
Q35.1562 39.8906 26.7031 39.8906
Q22.75 39.8906 18.8125 39.0156
Q14.8906 38.1406 10.7969 36.2812
z
" id="BitstreamVeraSans-Roman-35"/>
      </defs>
      <g transform="translate(257.1740625 596.318125)scale(0.12 -0.12)">
       <use xlink:href="#BitstreamVeraSans-Roman-35"/>
       <use x="63.623046875" xlink:href="#BitstreamVeraSans-Roman-30"/>
       <use x="127.24609375" xlink:href="#BitstreamVeraSans-Roman-30"/>
       <use x="190.869140625" xlink:href="#BitstreamVeraSans-Roman-30"/>
       <use x="254.4921875" xlink:href="#BitstreamVeraSans-Roman-30"/>
      </g>
     </g>
    </g>
    <g id="xtick_3">
     <g id="line2d_8">
      <g>
       <use style="stroke:#000000;stroke-width:0.5;" x="442.8" xlink:href="#mc7db9fdffb" y="583.2"/>
      </g>
     </g>
     <g id="line2d_9">
      <g>
       <use style="stroke:#000000;stroke-width:0.5;" x="442.8" xlink:href="#m5a7d422ac3" y="64.8"/>
      </g>
     </g>
     <g id="text_3">
      <!-- 100000 -->
      <defs>
       <path d="
M12.4062 8.29688
L28.5156 8.29688
L28.5156 63.9219
L10.9844 60.4062
L10.9844 69.3906
L28.4219 72.9062
L38.2812 72.9062
L38.2812 8.29688
L54.3906 8.29688
L54.3906 0
L12.4062 0
z
" id="BitstreamVeraSans-Roman-31"/>
      </defs>
      <g transform="translate(420.9525 596.318125)scale(0.12 -0.12)">
       <use xlink:href="#BitstreamVeraSans-Roman-31"/>
       <use x="63.623046875" xlink:href="#BitstreamVeraSans-Roman-30"/>
       <use x="127.24609375" xlink:href="#BitstreamVeraSans-Roman-30"/>
       <use x="190.869140625" xlink:href="#BitstreamVeraSans-Roman-30"/>
       <use x="254.4921875" xlink:href="#BitstreamVeraSans-Roman-30"/>
       <use x="318.115234375" xlink:href="#BitstreamVeraSans-Roman-30"/>
      </g>
     </g>
    </g>
    <g id="xtick_4">
     <g id="line2d_10">
      <g>
       <use style="stroke:#000000;stroke-width:0.5;" x="610.2" xlink:href="#mc7db9fdffb" y="583.2"/>
      </g>
     </g>
     <g id="line2d_11">
      <g>
       <use style="stroke:#000000;stroke-width:0.5;" x="610.2" xlink:href="#m5a7d422ac3" y="64.8"/>
      </g>
     </g>
     <g id="text_4">
      <!-- 150000 -->
      <g transform="translate(588.3525 596.318125)scale(0.12 -0.12)">
       <use xlink:href="#BitstreamVeraSans-Roman-31"/>
       <use x="63.623046875" xlink:href="#BitstreamVeraSans-Roman-35"/>
       <use x="127.24609375" xlink:href="#BitstreamVeraSans-Roman-30"/>
       <use x="190.869140625" xlink:href="#BitstreamVeraSans-Roman-30"/>
       <use x="254.4921875" xlink:href="#BitstreamVeraSans-Roman-30"/>
       <use x="318.115234375" xlink:href="#BitstreamVeraSans-Roman-30"/>
      </g>
     </g>
    </g>
    <g id="xtick_5">
     <g id="line2d_12">
      <g>
       <use style="stroke:#000000;stroke-width:0.5;" x="777.6" xlink:href="#mc7db9fdffb" y="583.2"/>
      </g>
     </g>
     <g id="line2d_13">
      <g>
       <use style="stroke:#000000;stroke-width:0.5;" x="777.6" xlink:href="#m5a7d422ac3" y="64.8"/>
      </g>
     </g>
     <g id="text_5">
      <!-- 200000 -->
      <defs>
       <path d="
M19.1875 8.29688
L53.6094 8.29688
L53.6094 0
L7.32812 0
L7.32812 8.29688
Q12.9375 14.1094 22.625 23.8906
Q32.3281 33.6875 34.8125 36.5312
Q39.5469 41.8438 41.4219 45.5312
Q43.3125 49.2188 43.3125 52.7812
Q43.3125 58.5938 39.2344 62.25
Q35.1562 65.9219 28.6094 65.9219
Q23.9688 65.9219 18.8125 64.3125
Q13.6719 62.7031 7.8125 59.4219
L7.8125 69.3906
Q13.7656 71.7812 18.9375 73
Q24.125 74.2188 28.4219 74.2188
Q39.75 74.2188 46.4844 68.5469
Q53.2188 62.8906 53.2188 53.4219
Q53.2188 48.9219 51.5312 44.8906
Q49.8594 40.875 45.4062 35.4062
Q44.1875 33.9844 37.6406 27.2188
Q31.1094 20.4531 19.1875 8.29688" id="BitstreamVeraSans-Roman-32"/>
      </defs>
      <g transform="translate(755.533125 596.318125)scale(0.12 -0.12)">
       <use xlink:href="#BitstreamVeraSans-Roman-32"/>
       <use x="63.623046875" xlink:href="#BitstreamVeraSans-Roman-30"/>
       <use x="127.24609375" xlink:href="#BitstreamVeraSans-Roman-30"/>
       <use x="190.869140625" xlink:href="#BitstreamVeraSans-Roman-30"/>
       <use x="254.4921875" xlink:href="#BitstreamVeraSans-Roman-30"/>
       <use x="318.115234375" xlink:href="#BitstreamVeraSans-Roman-30"/>
      </g>
     </g>
    </g>
    <g id="text_6">
     <!-- t / ms -->
     <defs>
      <path d="
M18.3125 70.2188
L18.3125 54.6875
L36.8125 54.6875
L36.8125 47.7031
L18.3125 47.7031
L18.3125 18.0156
Q18.3125 11.3281 20.1406 9.42188
Q21.9688 7.51562 27.5938 7.51562
L36.8125 7.51562
L36.8125 0
L27.5938 0
Q17.1875 0 13.2344 3.875
Q9.28125 7.76562 9.28125 18.0156
L9.28125 47.7031
L2.6875 47.7031
L2.6875 54.6875
L9.28125 54.6875
L9.28125 70.2188
z
" id="BitstreamVeraSans-Roman-74"/>
      <path d="
M44.2812 53.0781
L44.2812 44.5781
Q40.4844 46.5312 36.375 47.5
Q32.2812 48.4844 27.875 48.4844
Q21.1875 48.4844 17.8438 46.4375
Q14.5 44.3906 14.5 40.2812
Q14.5 37.1562 16.8906 35.375
Q19.2812 33.5938 26.5156 31.9844
L29.5938 31.2969
Q39.1562 29.25 43.1875 25.5156
Q47.2188 21.7812 47.2188 15.0938
Q47.2188 7.46875 41.1875 3.01562
Q35.1562 -1.42188 24.6094 -1.42188
Q20.2188 -1.42188 15.4531 -0.5625
Q10.6875 0.296875 5.42188 2
L5.42188 11.2812
Q10.4062 8.6875 15.2344 7.39062
Q20.0625 6.10938 24.8125 6.10938
Q31.1562 6.10938 34.5625 8.28125
Q37.9844 10.4531 37.9844 14.4062
Q37.9844 18.0625 35.5156 20.0156
Q33.0625 21.9688 24.7031 23.7812
L21.5781 24.5156
Q13.2344 26.2656 9.51562 29.9062
Q5.8125 33.5469 5.8125 39.8906
Q5.8125 47.6094 11.2812 51.7969
Q16.75 56 26.8125 56
Q31.7812 56 36.1719 55.2656
Q40.5781 54.5469 44.2812 53.0781" id="BitstreamVeraSans-Roman-73"/>
      <path d="
M25.3906 72.9062
L33.6875 72.9062
L8.29688 -9.28125
L0 -9.28125
z
" id="BitstreamVeraSans-Roman-2f"/>
      <path d="
M52 44.1875
Q55.375 50.25 60.0625 53.125
Q64.75 56 71.0938 56
Q79.6406 56 84.2812 50.0156
Q88.9219 44.0469 88.9219 33.0156
L88.9219 0
L79.8906 0
L79.8906 32.7188
Q79.8906 40.5781 77.0938 44.375
Q74.3125 48.1875 68.6094 48.1875
Q61.625 48.1875 57.5625 43.5469
Q53.5156 38.9219 53.5156 30.9062
L53.5156 0
L44.4844 0
L44.4844 32.7188
Q44.4844 40.625 41.7031 44.4062
Q38.9219 48.1875 33.1094 48.1875
Q26.2188 48.1875 22.1562 43.5312
Q18.1094 38.875 18.1094 30.9062
L18.1094 0
L9.07812 0
L9.07812 54.6875
L18.1094 54.6875
L18.1094 46.1875
Q21.1875 51.2188 25.4844 53.6094
Q29.7812 56 35.6875 56
Q41.6562 56 45.8281 52.9688
Q50 49.9531 52 44.1875" id="BitstreamVeraSans-Roman-6d"/>
      <path id="BitstreamVeraSans-Roman-20"/>
     </defs>
     <g transform="translate(425.9353125 612.931875)scale(0.12 -0.12)">
      <use xlink:href="#BitstreamVeraSans-Roman-74"/>
      <use x="39.208984375" xlink:href="#BitstreamVeraSans-Roman-20"/>
      <use x="70.99609375" xlink:href="#BitstreamVeraSans-Roman-2f"/>
      <use x="104.6875" xlink:href="#BitstreamVeraSans-Roman-20"/>
      <use x="136.474609375" xlink:href="#BitstreamVeraSans-Roman-6d"/>
      <use x="233.88671875" xlink:href="#BitstreamVeraSans-Roman-73"/>
     </g>
    </g>
   </g>
   <g id="matplotlib.axis_2">
    <g id="ytick_1">
     <g id="line2d_14">
      <defs>
       <path d="
M0 0
L4 0" id="md7965d1ba0" style="stroke:#000000;stroke-width:0.5;"/>
      </defs>
      <g>
       <use style="stroke:#000000;stroke-width:0.5;" x="108.0" xlink:href="#md7965d1ba0" y="583.2"/>
      </g>
     </g>
     <g id="line2d_15">
      <defs>
       <path d="
M0 0
L-4 0" id="md9a1c1a7cd" style="stroke:#000000;stroke-width:0.5;"/>
      </defs>
      <g>
       <use style="stroke:#000000;stroke-width:0.5;" x="777.6" xlink:href="#md9a1c1a7cd" y="583.2"/>
      </g>
     </g>
     <g id="text_7">
      <!-- 0 -->
      <g transform="translate(97.953125 586.51125)scale(0.12 -0.12)">
       <use xlink:href="#BitstreamVeraSans-Roman-30"/>
      </g>
     </g>
    </g>
    <g id="ytick_2">
     <g id="line2d_16">
      <g>
       <use style="stroke:#000000;stroke-width:0.5;" x="108.0" xlink:href="#md7965d1ba0" y="479.52"/>
      </g>
     </g>
     <g id="line2d_17">
      <g>
       <use style="stroke:#000000;stroke-width:0.5;" x="777.6" xlink:href="#md9a1c1a7cd" y="479.52"/>
      </g>
     </g>
     <g id="text_8">
      <!-- 200 -->
      <g transform="translate(82.77125 482.83125)scale(0.12 -0.12)">
       <use xlink:href="#BitstreamVeraSans-Roman-32"/>
       <use x="63.623046875" xlink:href="#BitstreamVeraSans-Roman-30"/>
       <use x="127.24609375" xlink:href="#BitstreamVeraSans-Roman-30"/>
      </g>
     </g>
    </g>
    <g id="ytick_3">
     <g id="line2d_18">
      <g>
       <use style="stroke:#000000;stroke-width:0.5;" x="108.0" xlink:href="#md7965d1ba0" y="375.84"/>
      </g>
     </g>
     <g id="line2d_19">
      <g>
       <use style="stroke:#000000;stroke-width:0.5;" x="777.6" xlink:href="#md9a1c1a7cd" y="375.84"/>
      </g>
     </g>
     <g id="text_9">
      <!-- 400 -->
      <defs>
       <path d="
M37.7969 64.3125
L12.8906 25.3906
L37.7969 25.3906
z

M35.2031 72.9062
L47.6094 72.9062
L47.6094 25.3906
L58.0156 25.3906
L58.0156 17.1875
L47.6094 17.1875
L47.6094 0
L37.7969 0
L37.7969 17.1875
L4.89062 17.1875
L4.89062 26.7031
z
" id="BitstreamVeraSans-Roman-34"/>
      </defs>
      <g transform="translate(82.47875 379.15125)scale(0.12 -0.12)">
       <use xlink:href="#BitstreamVeraSans-Roman-34"/>
       <use x="63.623046875" xlink:href="#BitstreamVeraSans-Roman-30"/>
       <use x="127.24609375" xlink:href="#BitstreamVeraSans-Roman-30"/>
      </g>
     </g>
    </g>
    <g id="ytick_4">
     <g id="line2d_20">
      <g>
       <use style="stroke:#000000;stroke-width:0.5;" x="108.0" xlink:href="#md7965d1ba0" y="272.16"/>
      </g>
     </g>
     <g id="line2d_21">
      <g>
       <use style="stroke:#000000;stroke-width:0.5;" x="777.6" xlink:href="#md9a1c1a7cd" y="272.16"/>
      </g>
     </g>
     <g id="text_10">
      <!-- 600 -->
      <defs>
       <path d="
M33.0156 40.375
Q26.375 40.375 22.4844 35.8281
Q18.6094 31.2969 18.6094 23.3906
Q18.6094 15.5312 22.4844 10.9531
Q26.375 6.39062 33.0156 6.39062
Q39.6562 6.39062 43.5312 10.9531
Q47.4062 15.5312 47.4062 23.3906
Q47.4062 31.2969 43.5312 35.8281
Q39.6562 40.375 33.0156 40.375
M52.5938 71.2969
L52.5938 62.3125
Q48.875 64.0625 45.0938 64.9844
Q41.3125 65.9219 37.5938 65.9219
Q27.8281 65.9219 22.6719 59.3281
Q17.5312 52.7344 16.7969 39.4062
Q19.6719 43.6562 24.0156 45.9219
Q28.375 48.1875 33.5938 48.1875
Q44.5781 48.1875 50.9531 41.5156
Q57.3281 34.8594 57.3281 23.3906
Q57.3281 12.1562 50.6875 5.35938
Q44.0469 -1.42188 33.0156 -1.42188
Q20.3594 -1.42188 13.6719 8.26562
Q6.98438 17.9688 6.98438 36.375
Q6.98438 53.6562 15.1875 63.9375
Q23.3906 74.2188 37.2031 74.2188
Q40.9219 74.2188 44.7031 73.4844
Q48.4844 72.75 52.5938 71.2969" id="BitstreamVeraSans-Roman-36"/>
      </defs>
      <g transform="translate(82.73 275.47125)scale(0.12 -0.12)">
       <use xlink:href="#BitstreamVeraSans-Roman-36"/>
       <use x="63.623046875" xlink:href="#BitstreamVeraSans-Roman-30"/>
       <use x="127.24609375" xlink:href="#BitstreamVeraSans-Roman-30"/>
      </g>
     </g>
    </g>
    <g id="ytick_5">
     <g id="line2d_22">
      <g>
       <use style="stroke:#000000;stroke-width:0.5;" x="108.0" xlink:href="#md7965d1ba0" y="168.48"/>
      </g>
     </g>
     <g id="line2d_23">
      <g>
       <use style="stroke:#000000;stroke-width:0.5;" x="777.6" xlink:href="#md9a1c1a7cd" y="168.48"/>
      </g>
     </g>
     <g id="text_11">
      <!-- 800 -->
      <defs>
       <path d="
M31.7812 34.625
Q24.75 34.625 20.7188 30.8594
Q16.7031 27.0938 16.7031 20.5156
Q16.7031 13.9219 20.7188 10.1562
Q24.75 6.39062 31.7812 6.39062
Q38.8125 6.39062 42.8594 10.1719
Q46.9219 13.9688 46.9219 20.5156
Q46.9219 27.0938 42.8906 30.8594
Q38.875 34.625 31.7812 34.625
M21.9219 38.8125
Q15.5781 40.375 12.0312 44.7188
Q8.5 49.0781 8.5 55.3281
Q8.5 64.0625 14.7188 69.1406
Q20.9531 74.2188 31.7812 74.2188
Q42.6719 74.2188 48.875 69.1406
Q55.0781 64.0625 55.0781 55.3281
Q55.0781 49.0781 51.5312 44.7188
Q48 40.375 41.7031 38.8125
Q48.8281 37.1562 52.7969 32.3125
Q56.7812 27.4844 56.7812 20.5156
Q56.7812 9.90625 50.3125 4.23438
Q43.8438 -1.42188 31.7812 -1.42188
Q19.7344 -1.42188 13.25 4.23438
Q6.78125 9.90625 6.78125 20.5156
Q6.78125 27.4844 10.7812 32.3125
Q14.7969 37.1562 21.9219 38.8125
M18.3125 54.3906
Q18.3125 48.7344 21.8438 45.5625
Q25.3906 42.3906 31.7812 42.3906
Q38.1406 42.3906 41.7188 45.5625
Q45.3125 48.7344 45.3125 54.3906
Q45.3125 60.0625 41.7188 63.2344
Q38.1406 66.4062 31.7812 66.4062
Q25.3906 66.4062 21.8438 63.2344
Q18.3125 60.0625 18.3125 54.3906" id="BitstreamVeraSans-Roman-38"/>
      </defs>
      <g transform="translate(82.705625 171.79125)scale(0.12 -0.12)">
       <use xlink:href="#BitstreamVeraSans-Roman-38"/>
       <use x="63.623046875" xlink:href="#BitstreamVeraSans-Roman-30"/>
       <use x="127.24609375" xlink:href="#BitstreamVeraSans-Roman-30"/>
      </g>
     </g>
    </g>
    <g id="ytick_6">
     <g id="line2d_24">
      <g>
       <use style="stroke:#000000;stroke-width:0.5;" x="108.0" xlink:href="#md7965d1ba0" y="64.8"/>
      </g>
     </g>
     <g id="line2d_25">
      <g>
       <use style="stroke:#000000;stroke-width:0.5;" x="777.6" xlink:href="#md9a1c1a7cd" y="64.8"/>
      </g>
     </g>
     <g id="text_12">
      <!-- 1000 -->
      <g transform="translate(75.575 68.11125)scale(0.12 -0.12)">
       <use xlink:href="#BitstreamVeraSans-Roman-31"/>
       <use x="63.623046875" xlink:href="#BitstreamVeraSans-Roman-30"/>
       <use x="127.24609375" xlink:href="#BitstreamVeraSans-Roman-30"/>
       <use x="190.869140625" xlink:href="#BitstreamVeraSans-Roman-30"/>
      </g>
     </g>
    </g>
    <g id="text_13">
     <!-- particle numbers -->
     <defs>
      <path d="
M41.1094 46.2969
Q39.5938 47.1719 37.8125 47.5781
Q36.0312 48 33.8906 48
Q26.2656 48 22.1875 43.0469
Q18.1094 38.0938 18.1094 28.8125
L18.1094 0
L9.07812 0
L9.07812 54.6875
L18.1094 54.6875
L18.1094 46.1875
Q20.9531 51.1719 25.4844 53.5781
Q30.0312 56 36.5312 56
Q37.4531 56 38.5781 55.875
Q39.7031 55.7656 41.0625 55.5156
z
" id="BitstreamVeraSans-Roman-72"/>
      <path d="
M9.42188 54.6875
L18.4062 54.6875
L18.4062 0
L9.42188 0
z

M9.42188 75.9844
L18.4062 75.9844
L18.4062 64.5938
L9.42188 64.5938
z
" id="BitstreamVeraSans-Roman-69"/>
      <path d="
M56.2031 29.5938
L56.2031 25.2031
L14.8906 25.2031
Q15.4844 15.9219 20.4844 11.0625
Q25.4844 6.20312 34.4219 6.20312
Q39.5938 6.20312 44.4531 7.46875
Q49.3125 8.73438 54.1094 11.2812
L54.1094 2.78125
Q49.2656 0.734375 44.1875 -0.34375
Q39.1094 -1.42188 33.8906 -1.42188
Q20.7969 -1.42188 13.1562 6.1875
Q5.51562 13.8125 5.51562 26.8125
Q5.51562 40.2344 12.7656 48.1094
Q20.0156 56 32.3281 56
Q43.3594 56 49.7812 48.8906
Q56.2031 41.7969 56.2031 29.5938
M47.2188 32.2344
Q47.125 39.5938 43.0938 43.9844
Q39.0625 48.3906 32.4219 48.3906
Q24.9062 48.3906 20.3906 44.1406
Q15.875 39.8906 15.1875 32.1719
z
" id="BitstreamVeraSans-Roman-65"/>
      <path d="
M48.7812 52.5938
L48.7812 44.1875
Q44.9688 46.2969 41.1406 47.3438
Q37.3125 48.3906 33.4062 48.3906
Q24.6562 48.3906 19.8125 42.8438
Q14.9844 37.3125 14.9844 27.2969
Q14.9844 17.2812 19.8125 11.7344
Q24.6562 6.20312 33.4062 6.20312
Q37.3125 6.20312 41.1406 7.25
Q44.9688 8.29688 48.7812 10.4062
L48.7812 2.09375
Q45.0156 0.34375 40.9844 -0.53125
Q36.9688 -1.42188 32.4219 -1.42188
Q20.0625 -1.42188 12.7812 6.34375
Q5.51562 14.1094 5.51562 27.2969
Q5.51562 40.6719 12.8594 48.3281
Q20.2188 56 33.0156 56
Q37.1562 56 41.1094 55.1406
Q45.0625 54.2969 48.7812 52.5938" id="BitstreamVeraSans-Roman-63"/>
      <path d="
M8.5 21.5781
L8.5 54.6875
L17.4844 54.6875
L17.4844 21.9219
Q17.4844 14.1562 20.5 10.2656
Q23.5312 6.39062 29.5938 6.39062
Q36.8594 6.39062 41.0781 11.0312
Q45.3125 15.6719 45.3125 23.6875
L45.3125 54.6875
L54.2969 54.6875
L54.2969 0
L45.3125 0
L45.3125 8.40625
Q42.0469 3.42188 37.7188 1
Q33.4062 -1.42188 27.6875 -1.42188
Q18.2656 -1.42188 13.375 4.4375
Q8.5 10.2969 8.5 21.5781" id="BitstreamVeraSans-Roman-75"/>
      <path d="
M34.2812 27.4844
Q23.3906 27.4844 19.1875 25
Q14.9844 22.5156 14.9844 16.5
Q14.9844 11.7188 18.1406 8.90625
Q21.2969 6.10938 26.7031 6.10938
Q34.1875 6.10938 38.7031 11.4062
Q43.2188 16.7031 43.2188 25.4844
L43.2188 27.4844
z

M52.2031 31.2031
L52.2031 0
L43.2188 0
L43.2188 8.29688
Q40.1406 3.32812 35.5469 0.953125
Q30.9531 -1.42188 24.3125 -1.42188
Q15.9219 -1.42188 10.9531 3.29688
Q6 8.01562 6 15.9219
Q6 25.1406 12.1719 29.8281
Q18.3594 34.5156 30.6094 34.5156
L43.2188 34.5156
L43.2188 35.4062
Q43.2188 41.6094 39.1406 45
Q35.0625 48.3906 27.6875 48.3906
Q23 48.3906 18.5469 47.2656
Q14.1094 46.1406 10.0156 43.8906
L10.0156 52.2031
Q14.9375 54.1094 19.5781 55.0469
Q24.2188 56 28.6094 56
Q40.4844 56 46.3438 49.8438
Q52.2031 43.7031 52.2031 31.2031" id="BitstreamVeraSans-Roman-61"/>
      <path d="
M54.8906 33.0156
L54.8906 0
L45.9062 0
L45.9062 32.7188
Q45.9062 40.4844 42.875 44.3281
Q39.8438 48.1875 33.7969 48.1875
Q26.5156 48.1875 22.3125 43.5469
Q18.1094 38.9219 18.1094 30.9062
L18.1094 0
L9.07812 0
L9.07812 54.6875
L18.1094 54.6875
L18.1094 46.1875
Q21.3438 51.125 25.7031 53.5625
Q30.0781 56 35.7969 56
Q45.2188 56 50.0469 50.1719
Q54.8906 44.3438 54.8906 33.0156" id="BitstreamVeraSans-Roman-6e"/>
      <path d="
M9.42188 75.9844
L18.4062 75.9844
L18.4062 0
L9.42188 0
z
" id="BitstreamVeraSans-Roman-6c"/>
      <path d="
M18.1094 8.20312
L18.1094 -20.7969
L9.07812 -20.7969
L9.07812 54.6875
L18.1094 54.6875
L18.1094 46.3906
Q20.9531 51.2656 25.2656 53.625
Q29.5938 56 35.5938 56
Q45.5625 56 51.7812 48.0938
Q58.0156 40.1875 58.0156 27.2969
Q58.0156 14.4062 51.7812 6.48438
Q45.5625 -1.42188 35.5938 -1.42188
Q29.5938 -1.42188 25.2656 0.953125
Q20.9531 3.32812 18.1094 8.20312
M48.6875 27.2969
Q48.6875 37.2031 44.6094 42.8438
Q40.5312 48.4844 33.4062 48.4844
Q26.2656 48.4844 22.1875 42.8438
Q18.1094 37.2031 18.1094 27.2969
Q18.1094 17.3906 22.1875 11.75
Q26.2656 6.10938 33.4062 6.10938
Q40.5312 6.10938 44.6094 11.75
Q48.6875 17.3906 48.6875 27.2969" id="BitstreamVeraSans-Roman-70"/>
      <path d="
M48.6875 27.2969
Q48.6875 37.2031 44.6094 42.8438
Q40.5312 48.4844 33.4062 48.4844
Q26.2656 48.4844 22.1875 42.8438
Q18.1094 37.2031 18.1094 27.2969
Q18.1094 17.3906 22.1875 11.75
Q26.2656 6.10938 33.4062 6.10938
Q40.5312 6.10938 44.6094 11.75
Q48.6875 17.3906 48.6875 27.2969
M18.1094 46.3906
Q20.9531 51.2656 25.2656 53.625
Q29.5938 56 35.5938 56
Q45.5625 56 51.7812 48.0938
Q58.0156 40.1875 58.0156 27.2969
Q58.0156 14.4062 51.7812 6.48438
Q45.5625 -1.42188 35.5938 -1.42188
Q29.5938 -1.42188 25.2656 0.953125
Q20.9531 3.32812 18.1094 8.20312
L18.1094 0
L9.07812 0
L9.07812 75.9844
L18.1094 75.9844
z
" id="BitstreamVeraSans-Roman-62"/>
     </defs>
     <g transform="translate(68.079375 374.78625)rotate(-90.0)scale(0.12 -0.12)">
      <use xlink:href="#BitstreamVeraSans-Roman-70"/>
      <use x="63.4765625" xlink:href="#BitstreamVeraSans-Roman-61"/>
      <use x="124.755859375" xlink:href="#BitstreamVeraSans-Roman-72"/>
      <use x="165.869140625" xlink:href="#BitstreamVeraSans-Roman-74"/>
      <use x="205.078125" xlink:href="#BitstreamVeraSans-Roman-69"/>
      <use x="232.861328125" xlink:href="#BitstreamVeraSans-Roman-63"/>
      <use x="287.841796875" xlink:href="#BitstreamVeraSans-Roman-6c"/>
      <use x="315.625" xlink:href="#BitstreamVeraSans-Roman-65"/>
      <use x="377.1484375" xlink:href="#BitstreamVeraSans-Roman-20"/>
      <use x="408.935546875" xlink:href="#BitstreamVeraSans-Roman-6e"/>
      <use x="472.314453125" xlink:href="#BitstreamVeraSans-Roman-75"/>
      <use x="535.693359375" xlink:href="#BitstreamVeraSans-Roman-6d"/>
      <use x="633.10546875" xlink:href="#BitstreamVeraSans-Roman-62"/>
      <use x="696.58203125" xlink:href="#BitstreamVeraSans-Roman-65"/>
      <use x="758.10546875" xlink:href="#BitstreamVeraSans-Roman-72"/>
      <use x="799.21875" xlink:href="#BitstreamVeraSans-Roman-73"/>
     </g>
    </g>
   </g>
   <g id="legend_1">
    <g id="patch_7">
     <path d="
M697.504 101.224
L774.1 101.224
L774.1 68.3
L697.504 68.3
z
" style="fill:#ffffff;stroke:#000000;stroke-linejoin:miter;"/>
    </g>
    <g id="line2d_26">
     <path d="
M702.404 73.9689
L712.204 73.9689" style="fill:none;stroke:#ff0000;stroke-linecap:square;"/>
    </g>
    <g id="line2d_27"/>
    <g id="text_14">
     <!-- PKAcAMP2 el.0 -->
     <defs>
      <path d="
M34.1875 63.1875
L20.7969 26.9062
L47.6094 26.9062
z

M28.6094 72.9062
L39.7969 72.9062
L67.5781 0
L57.3281 0
L50.6875 18.7031
L17.8281 18.7031
L11.1875 0
L0.78125 0
z
" id="BitstreamVeraSans-Roman-41"/>
      <path d="
M9.8125 72.9062
L24.5156 72.9062
L43.1094 23.2969
L61.8125 72.9062
L76.5156 72.9062
L76.5156 0
L66.8906 0
L66.8906 64.0156
L48.0938 14.0156
L38.1875 14.0156
L19.3906 64.0156
L19.3906 0
L9.8125 0
z
" id="BitstreamVeraSans-Roman-4d"/>
      <path d="
M9.8125 72.9062
L19.6719 72.9062
L19.6719 42.0938
L52.3906 72.9062
L65.0938 72.9062
L28.9062 38.9219
L67.6719 0
L54.6875 0
L19.6719 35.1094
L19.6719 0
L9.8125 0
z
" id="BitstreamVeraSans-Roman-4b"/>
      <path d="
M19.6719 64.7969
L19.6719 37.4062
L32.0781 37.4062
Q38.9688 37.4062 42.7188 40.9688
Q46.4844 44.5312 46.4844 51.125
Q46.4844 57.6719 42.7188 61.2344
Q38.9688 64.7969 32.0781 64.7969
z

M9.8125 72.9062
L32.0781 72.9062
Q44.3438 72.9062 50.6094 67.3594
Q56.8906 61.8125 56.8906 51.125
Q56.8906 40.3281 50.6094 34.8125
Q44.3438 29.2969 32.0781 29.2969
L19.6719 29.2969
L19.6719 0
L9.8125 0
z
" id="BitstreamVeraSans-Roman-50"/>
      <path d="
M10.6875 12.4062
L21 12.4062
L21 0
L10.6875 0
z
" id="BitstreamVeraSans-Roman-2e"/>
     </defs>
     <g transform="translate(719.90359375 76.41890625)scale(0.07 -0.07)">
      <use xlink:href="#BitstreamVeraSans-Roman-50"/>
      <use x="60.302734375" xlink:href="#BitstreamVeraSans-Roman-4b"/>
      <use x="124.12890625" xlink:href="#BitstreamVeraSans-Roman-41"/>
      <use x="190.787109375" xlink:href="#BitstreamVeraSans-Roman-63"/>
      <use x="245.767578125" xlink:href="#BitstreamVeraSans-Roman-41"/>
      <use x="314.17578125" xlink:href="#BitstreamVeraSans-Roman-4d"/>
      <use x="400.455078125" xlink:href="#BitstreamVeraSans-Roman-50"/>
      <use x="460.7578125" xlink:href="#BitstreamVeraSans-Roman-32"/>
      <use x="524.380859375" xlink:href="#BitstreamVeraSans-Roman-20"/>
      <use x="556.16796875" xlink:href="#BitstreamVeraSans-Roman-65"/>
      <use x="617.69140625" xlink:href="#BitstreamVeraSans-Roman-6c"/>
      <use x="645.474609375" xlink:href="#BitstreamVeraSans-Roman-2e"/>
      <use x="677.26171875" xlink:href="#BitstreamVeraSans-Roman-30"/>
     </g>
    </g>
    <g id="line2d_28">
     <path d="
M702.404 84.2436
L712.204 84.2436" style="fill:none;stroke:#008000;stroke-linecap:square;"/>
    </g>
    <g id="line2d_29"/>
    <g id="text_15">
     <!-- PKAcAMP2 el.1 -->
     <g transform="translate(719.90359375 86.69359375)scale(0.07 -0.07)">
      <use xlink:href="#BitstreamVeraSans-Roman-50"/>
      <use x="60.302734375" xlink:href="#BitstreamVeraSans-Roman-4b"/>
      <use x="124.12890625" xlink:href="#BitstreamVeraSans-Roman-41"/>
      <use x="190.787109375" xlink:href="#BitstreamVeraSans-Roman-63"/>
      <use x="245.767578125" xlink:href="#BitstreamVeraSans-Roman-41"/>
      <use x="314.17578125" xlink:href="#BitstreamVeraSans-Roman-4d"/>
      <use x="400.455078125" xlink:href="#BitstreamVeraSans-Roman-50"/>
      <use x="460.7578125" xlink:href="#BitstreamVeraSans-Roman-32"/>
      <use x="524.380859375" xlink:href="#BitstreamVeraSans-Roman-20"/>
      <use x="556.16796875" xlink:href="#BitstreamVeraSans-Roman-65"/>
      <use x="617.69140625" xlink:href="#BitstreamVeraSans-Roman-6c"/>
      <use x="645.474609375" xlink:href="#BitstreamVeraSans-Roman-2e"/>
      <use x="677.26171875" xlink:href="#BitstreamVeraSans-Roman-31"/>
     </g>
    </g>
    <g id="line2d_30">
     <path d="
M702.404 94.5183
L712.204 94.5183" style="fill:none;stroke:#0000ff;stroke-linecap:square;"/>
    </g>
    <g id="line2d_31"/>
    <g id="text_16">
     <!-- PKAcAMP2 el.2 -->
     <g transform="translate(719.90359375 96.96828125)scale(0.07 -0.07)">
      <use xlink:href="#BitstreamVeraSans-Roman-50"/>
      <use x="60.302734375" xlink:href="#BitstreamVeraSans-Roman-4b"/>
      <use x="124.12890625" xlink:href="#BitstreamVeraSans-Roman-41"/>
      <use x="190.787109375" xlink:href="#BitstreamVeraSans-Roman-63"/>
      <use x="245.767578125" xlink:href="#BitstreamVeraSans-Roman-41"/>
      <use x="314.17578125" xlink:href="#BitstreamVeraSans-Roman-4d"/>
      <use x="400.455078125" xlink:href="#BitstreamVeraSans-Roman-50"/>
      <use x="460.7578125" xlink:href="#BitstreamVeraSans-Roman-32"/>
      <use x="524.380859375" xlink:href="#BitstreamVeraSans-Roman-20"/>
      <use x="556.16796875" xlink:href="#BitstreamVeraSans-Roman-65"/>
      <use x="617.69140625" xlink:href="#BitstreamVeraSans-Roman-6c"/>
      <use x="645.474609375" xlink:href="#BitstreamVeraSans-Roman-2e"/>
      <use x="677.26171875" xlink:href="#BitstreamVeraSans-Roman-32"/>
     </g>
    </g>
   </g>
  </g>
 </g>
 <defs>
  <clipPath id="p7ceb695115">
   <rect height="518.4" width="669.6" x="108.0" y="64.8"/>
  </clipPath>
 </defs>
</svg>
