<?xml version="1.0" encoding="utf-8" standalone="no"?>
<!DOCTYPE svg PUBLIC "-//W3C//DTD SVG 1.1//EN"
  "http://www.w3.org/Graphics/SVG/1.1/DTD/svg11.dtd">
<!-- Created with matplotlib (http://matplotlib.org/) -->
<svg height="648pt" version="1.1" viewBox="0 0 864 648" width="864pt" xmlns="http://www.w3.org/2000/svg" xmlns:xlink="http://www.w3.org/1999/xlink">
 <defs>
  <style type="text/css">
*{stroke-linecap:butt;stroke-linejoin:round;}
  </style>
 </defs>
 <g id="figure_1">
  <g id="patch_1">
   <path d="
M0 648
L864 648
L864 0
L0 0
z
" style="fill:#ffffff;"/>
  </g>
  <g id="axes_1">
   <g id="patch_2">
    <path d="
M108 583.2
L777.6 583.2
L777.6 64.8
L108 64.8
z
" style="fill:#ffffff;"/>
   </g>
   <g id="line2d_1">
    <path clip-path="url(#p7ceb695115)" d="
M108 581.956
L108.67 582.785
L109.339 582.785
L110.009 581.334
L110.678 582.163
L111.348 582.371
L112.018 582.993
L112.687 582.578
L114.026 582.993
L114.696 582.578
L115.366 582.578
L116.035 582.993
L118.714 582.993
L119.383 582.578
L120.053 582.993
L120.722 582.785
L121.392 583.2
L124.07 583.2
L124.74 582.993
L125.41 583.2
L130.097 583.2
L130.766 582.993
L131.436 583.2
L442.8 583.2
L443.47 476.617
L444.139 478.691
L444.809 474.336
L445.478 487.192
L446.148 484.704
L446.818 491.547
L447.487 488.436
L448.157 490.303
L448.826 482.216
L449.496 485.948
L450.166 498.804
L450.835 487.4
L451.505 490.51
L452.174 482.008
L452.844 491.34
L453.514 483.667
L454.183 491.962
L454.853 491.754
L455.522 496.938
L456.192 486.363
L456.862 485.948
L457.531 489.681
L458.201 487.607
L458.87 495.279
L459.54 490.717
L460.21 489.266
L460.879 482.838
L461.549 481.801
L462.218 491.962
L462.888 489.888
L463.558 486.778
L464.227 490.303
L464.897 490.717
L465.566 483.667
L466.236 499.012
L466.906 488.851
L467.575 496.731
L468.245 485.119
L468.914 486.363
L469.584 492.791
L470.923 495.279
L471.593 495.072
L472.262 485.326
L472.932 492.791
L473.602 485.948
L474.271 494.243
L474.941 497.56
L475.61 493.828
L476.28 488.022
L477.619 491.754
L478.289 489.888
L478.958 493.62
L479.628 483.667
L480.298 485.948
L480.967 491.962
L481.637 484.289
L482.306 488.644
L482.976 487.192
L483.646 496.316
L484.315 494.45
L484.985 486.985
L485.654 492.169
L486.324 492.169
L486.994 491.132
L487.663 489.266
L488.333 490.095
L489.002 492.791
L489.672 483.46
L490.342 494.243
L491.011 499.427
L491.681 488.229
L492.35 488.022
L493.02 483.045
L493.69 497.768
L494.359 486.363
L495.698 491.547
L496.368 492.791
L497.038 492.791
L497.707 491.132
L498.377 494.657
L499.046 490.095
L499.716 492.169
L500.386 490.51
L501.055 488.022
L501.725 488.229
L502.394 496.316
L503.064 485.948
L503.734 485.533
L504.403 491.34
L505.073 494.865
L505.742 488.851
L506.412 490.303
L507.082 488.022
L507.751 493.828
L508.421 492.584
L509.76 487.607
L510.43 485.948
L511.769 493.62
L512.438 494.865
L513.108 494.243
L513.778 486.363
L514.447 493.62
L515.117 487.607
L515.786 489.059
L516.456 486.57
L517.126 495.901
L517.795 489.473
L518.465 494.865
L519.134 490.303
L519.804 493.206
L520.474 489.888
L521.143 499.634
L521.813 490.717
L522.482 491.132
L523.152 489.266
L523.822 489.681
L525.161 494.035
L525.83 490.925
L527.17 486.985
L527.839 492.169
L528.509 489.681
L529.178 485.533
L529.848 492.791
L530.518 488.022
L531.187 488.851
L531.857 487.192
L532.526 483.045
L533.196 487.607
L534.535 489.266
L535.205 489.681
L535.874 487.814
L536.544 493.828
L537.214 487.607
L537.883 493.206
L538.553 489.473
L539.222 488.436
L539.892 491.132
L540.562 494.657
L541.231 495.487
L541.901 499.841
L542.57 488.022
L543.24 496.316
L543.91 491.754
L544.579 491.132
L545.249 487.814
L545.918 489.059
L546.588 493.828
L547.258 492.376
L547.927 494.035
L548.597 487.814
L549.266 489.266
L549.936 487.607
L550.606 489.266
L551.275 486.57
L551.945 492.376
L552.614 488.644
L553.284 490.095
L553.954 488.851
L554.623 490.303
L555.293 484.082
L555.962 484.289
L556.632 488.851
L557.302 481.179
L557.971 492.791
L558.641 488.644
L559.31 492.791
L559.98 487.4
L560.65 494.45
L561.319 487.607
L561.989 492.376
L562.658 488.436
L563.328 494.243
L563.998 497.768
L564.667 490.925
L565.337 487.814
L566.006 488.229
L566.676 489.473
L567.346 486.156
L568.015 489.681
L568.685 491.547
L569.354 496.524
L570.024 486.985
L570.694 496.524
L571.363 488.851
L572.033 492.998
L572.702 489.266
L573.372 490.303
L574.042 489.681
L574.711 497.975
L575.381 491.547
L576.05 491.962
L576.72 493.413
L577.39 498.182
L578.059 484.497
L578.729 485.119
L579.398 486.57
L580.068 493.206
L580.738 491.34
L581.407 490.717
L582.746 482.838
L583.416 493.828
L584.086 492.376
L584.755 487.814
L585.425 497.353
L586.094 483.46
L586.764 490.925
L587.434 488.229
L588.103 482.63
L588.773 494.243
L589.442 488.022
L590.112 483.252
L590.782 491.754
L591.451 493.206
L592.121 495.487
L592.79 491.547
L593.46 490.51
L594.13 490.51
L594.799 491.754
L595.469 491.754
L596.138 482.838
L596.808 495.694
L598.147 494.035
L598.817 489.059
L599.486 493.413
L600.156 491.547
L600.826 488.851
L601.495 487.192
L602.165 489.888
L602.834 487.4
L603.504 492.376
L604.174 490.095
L604.843 492.169
L605.513 488.851
L606.182 489.888
L606.852 495.072
L607.522 489.059
L608.191 485.741
L608.861 490.925
L609.53 486.363
L610.2 489.266
L610.87 488.644
L611.539 492.584
L612.209 488.229
L612.878 489.888
L613.548 490.095
L614.218 495.694
L614.887 489.473
L615.557 490.303
L616.226 489.681
L616.896 494.657
L617.566 494.45
L618.235 491.754
L618.905 492.584
L619.574 490.717
L620.244 497.146
L620.914 489.266
L621.583 496.316
L622.253 495.279
L622.922 484.497
L623.592 490.303
L624.262 486.363
L624.931 490.717
L625.601 496.109
L626.27 491.962
L626.94 490.51
L627.61 491.34
L628.279 488.644
L628.949 490.095
L629.618 490.717
L630.958 484.911
L631.627 486.985
L632.297 489.473
L632.966 485.948
L633.636 491.754
L634.306 489.888
L634.975 489.681
L635.645 489.059
L636.314 484.704
L636.984 488.851
L637.654 487.4
L638.323 492.169
L638.993 486.778
L639.662 485.533
L640.332 489.059
L641.002 489.681
L641.671 488.851
L642.341 487.4
L643.01 489.059
L643.68 492.169
L644.35 483.667
L645.019 486.156
L645.689 494.865
L646.358 485.326
L647.028 490.095
L647.698 491.132
L648.367 494.657
L649.037 490.925
L649.706 498.39
L650.376 490.095
L651.046 498.597
L651.715 498.182
L652.385 489.266
L653.054 494.657
L653.724 494.865
L654.394 496.109
L655.063 492.791
L655.733 493.206
L656.402 490.303
L657.072 494.035
L657.742 485.741
L658.411 490.095
L659.081 491.34
L659.75 491.962
L660.42 489.266
L661.09 488.851
L661.759 495.072
L663.098 485.119
L663.768 486.363
L664.438 491.754
L665.107 488.229
L665.777 493.413
L666.446 487.4
L667.116 486.778
L667.786 493.413
L668.455 492.791
L669.125 490.095
L669.794 492.376
L670.464 488.436
L671.134 488.229
L671.803 490.717
L672.473 489.681
L673.142 490.303
L673.812 491.34
L674.482 497.975
L675.151 485.948
L675.821 485.326
L676.49 492.376
L677.16 495.279
L677.83 488.436
L678.499 490.925
L679.838 486.778
L680.508 485.326
L681.178 492.169
L681.847 486.778
L682.517 489.266
L683.186 497.146
L683.856 491.132
L684.526 490.303
L685.195 491.754
L685.865 489.473
L686.534 490.51
L687.204 495.487
L687.874 489.059
L688.543 488.644
L689.213 487.607
L689.882 486.985
L690.552 482.423
L691.222 494.657
L692.561 489.888
L693.23 491.962
L693.9 490.095
L694.57 493.206
L695.239 489.888
L695.909 483.045
L696.578 483.875
L697.248 490.095
L697.918 494.865
L698.587 492.584
L699.257 491.132
L699.926 492.584
L700.596 496.316
L701.266 487.607
L701.935 485.741
L702.605 491.547
L703.274 489.266
L703.944 493.62
L704.614 480.764
L705.283 483.875
L705.953 486.363
L706.622 492.998
L707.292 488.851
L707.962 489.266
L708.631 487.4
L709.301 496.524
L709.97 483.46
L710.64 493.828
L711.31 487.607
L711.979 501.085
L712.649 485.948
L713.318 487.192
L713.988 487.192
L714.658 488.644
L715.327 492.584
L715.997 487.607
L716.666 492.584
L717.336 495.279
L718.006 490.51
L718.675 492.584
L719.345 495.487
L720.014 483.252
L720.684 497.146
L721.354 486.985
L722.023 489.059
L722.693 493.413
L723.362 485.533
L724.032 491.754
L724.702 486.985
L725.371 495.487
L726.041 494.865
L726.71 489.888
L728.05 493.62
L728.719 486.57
L729.389 491.547
L730.058 491.754
L730.728 488.229
L731.398 494.657
L732.067 484.082
L732.737 493.413
L733.406 498.804
L734.076 489.473
L734.746 495.072
L735.415 484.704
L736.085 491.132
L736.754 491.34
L737.424 492.376
L738.094 483.667
L738.763 494.243
L739.433 497.56
L740.102 488.436
L740.772 495.072
L741.442 484.289
L742.111 489.473
L742.781 497.146
L743.45 494.45
L744.12 490.717
L744.79 489.681
L745.459 486.156
L746.129 491.754
L746.798 492.998
L748.138 482.008
L748.807 490.303
L749.477 486.363
L750.146 492.376
L750.816 490.303
L751.486 485.741
L752.155 492.376
L752.825 494.243
L753.494 491.754
L754.164 494.657
L754.834 486.57
L755.503 485.741
L756.173 493.206
L756.842 498.182
L757.512 488.229
L758.182 495.694
L758.851 495.072
L759.521 493.206
L760.19 491.754
L760.86 487.814
L761.53 487.814
L762.199 488.436
L762.869 489.473
L763.538 494.657
L764.208 489.059
L764.878 490.095
L765.547 489.888
L766.217 496.316
L766.886 489.888
L767.556 491.132
L768.226 490.303
L768.895 489.059
L769.565 486.57
L770.234 494.657
L770.904 489.266
L771.574 491.132
L772.243 490.51
L772.913 496.109
L773.582 484.911
L774.252 492.376
L774.922 492.791
L775.591 490.51
L776.261 494.243
L776.93 492.584
L777.6 488.644
L777.6 488.644" style="fill:none;stroke:#ff0000;stroke-linecap:square;"/>
   </g>
   <g id="line2d_2">
    <path clip-path="url(#p7ceb695115)" d="
M108 578.223
L108.67 578.223
L109.339 578.223
L110.009 580.297
L110.678 580.504
L111.348 580.919
L112.018 579.882
L112.687 581.334
L113.357 580.712
L114.026 581.126
L114.696 581.126
L115.366 581.541
L116.035 581.748
L116.705 581.748
L117.374 582.371
L118.044 582.163
L118.714 582.371
L119.383 582.785
L120.053 582.578
L120.722 582.993
L121.392 582.785
L122.062 582.993
L122.731 582.993
L123.401 583.2
L124.74 583.2
L125.41 582.993
L126.079 582.993
L126.749 583.2
L127.418 582.993
L130.097 582.993
L130.766 583.2
L131.436 582.993
L132.106 582.993
L132.775 583.2
L133.445 582.993
L135.454 582.993
L136.123 583.2
L136.793 582.993
L137.462 583.2
L138.132 582.993
L139.471 582.993
L140.141 583.2
L442.8 583.2
L443.47 136.547
L444.139 157.283
L444.809 171.798
L445.478 180.3
L446.148 191.497
L446.818 191.704
L447.487 193.778
L448.157 206.634
L448.826 201.243
L449.496 211.196
L450.166 203.524
L450.835 209.537
L452.174 214.721
L452.844 213.27
L453.514 220.527
L454.183 213.477
L454.853 209.745
L455.522 197.718
L456.192 214.514
L456.862 209.745
L457.531 213.27
L458.201 209.123
L458.87 210.574
L459.54 211.196
L460.21 217.417
L460.879 220.735
L461.549 218.868
L462.218 214.721
L462.888 211.611
L463.558 204.561
L464.227 212.648
L464.897 207.464
L465.566 219.905
L466.236 210.367
L466.906 211.404
L467.575 201.865
L468.245 213.892
L468.914 214.721
L469.584 206.22
L470.254 206.012
L470.923 203.109
L472.262 213.27
L472.932 207.878
L473.602 210.781
L474.271 210.367
L474.941 210.159
L475.61 211.818
L476.28 213.062
L476.95 209.952
L477.619 214.721
L478.289 208.708
L478.958 205.183
L479.628 214.721
L480.298 215.343
L480.967 202.487
L481.637 214.721
L482.306 214.929
L482.976 212.648
L483.646 204.975
L484.315 199.584
L484.985 224.675
L485.654 212.233
L486.324 214.929
L486.994 204.975
L487.663 214.514
L488.333 210.781
L489.002 211.196
L489.672 219.491
L490.342 209.33
L491.011 207.878
L491.681 217.832
L492.35 208.915
L493.02 216.795
L493.69 201.036
L494.359 219.905
L495.029 212.233
L495.698 209.123
L496.368 202.28
L497.038 215.136
L497.707 212.026
L498.377 206.634
L499.046 211.404
L499.716 209.123
L501.055 220.527
L501.725 212.648
L502.394 208.708
L503.064 216.38
L503.734 216.795
L504.403 214.514
L505.073 200.206
L505.742 218.868
L506.412 214.099
L507.082 213.892
L507.751 210.989
L508.421 210.781
L509.09 210.989
L509.76 214.307
L510.43 222.808
L511.099 215.758
L512.438 206.634
L513.778 216.173
L514.447 215.343
L515.117 214.721
L515.786 213.27
L516.456 213.477
L517.795 205.39
L518.465 208.915
L519.134 215.343
L519.804 210.574
L520.474 206.634
L521.143 205.597
L521.813 215.136
L522.482 214.099
L523.152 213.27
L523.822 214.099
L524.491 206.012
L525.161 204.353
L527.17 219.283
L527.839 213.477
L528.509 214.929
L529.178 217.417
L529.848 212.648
L530.518 215.551
L531.187 208.5
L531.857 210.159
L532.526 217.624
L533.866 209.537
L534.535 207.256
L535.205 212.648
L535.874 215.965
L536.544 205.183
L537.214 215.758
L537.883 211.818
L538.553 214.929
L539.222 211.611
L539.892 212.855
L540.562 207.878
L541.231 204.975
L541.901 205.39
L542.57 217.417
L543.24 206.634
L543.91 213.892
L545.249 207.256
L545.918 215.965
L546.588 214.307
L547.258 210.781
L547.927 209.123
L548.597 213.062
L549.266 206.427
L549.936 210.781
L550.606 217.002
L551.275 214.721
L551.945 205.805
L552.614 210.781
L553.284 217.002
L553.954 215.758
L554.623 206.842
L555.293 226.748
L555.962 217.002
L556.632 211.818
L557.302 227.163
L557.971 213.27
L558.641 209.537
L559.31 214.514
L559.98 221.979
L560.65 208.293
L561.319 212.233
L561.989 209.952
L562.658 206.634
L563.328 212.44
L563.998 206.22
L565.337 208.5
L566.006 215.343
L566.676 213.477
L567.346 216.38
L568.015 211.818
L568.685 213.062
L569.354 206.842
L570.024 213.477
L570.694 201.036
L571.363 215.758
L572.702 204.353
L573.372 207.878
L574.042 212.855
L574.711 209.952
L575.381 213.477
L576.05 209.123
L576.72 214.099
L577.39 207.878
L578.059 216.173
L578.729 214.514
L579.398 213.27
L580.068 211.404
L580.738 215.343
L581.407 206.842
L582.077 221.149
L582.746 217.417
L583.416 215.136
L584.086 209.952
L584.755 206.012
L585.425 208.293
L586.094 217.21
L586.764 209.123
L587.434 217.832
L588.103 216.173
L588.773 207.256
L589.442 213.892
L590.112 216.795
L590.782 210.159
L591.451 211.404
L592.121 209.952
L592.79 214.929
L593.46 206.842
L594.13 214.307
L594.799 212.648
L595.469 212.44
L596.138 220.32
L596.808 199.584
L597.478 195.437
L598.147 207.256
L598.817 211.818
L599.486 213.892
L600.156 212.648
L600.826 210.781
L601.495 213.684
L602.165 210.574
L602.834 213.27
L603.504 209.33
L604.174 212.026
L604.843 206.634
L605.513 218.454
L606.182 213.062
L606.852 205.183
L607.522 210.159
L608.191 223.43
L608.861 209.33
L609.53 221.149
L610.2 217.002
L610.87 226.333
L611.539 201.45
L612.209 215.551
L612.878 211.611
L613.548 208.708
L614.218 206.842
L614.887 212.026
L615.557 211.611
L616.226 210.989
L616.896 208.086
L617.566 210.574
L618.235 211.611
L618.905 212.026
L619.574 215.551
L620.244 211.818
L620.914 209.745
L621.583 211.818
L622.253 206.842
L622.922 214.721
L623.592 209.123
L624.262 212.44
L624.931 209.123
L625.601 202.28
L626.27 214.721
L626.94 207.878
L627.61 211.404
L628.279 217.624
L628.949 216.795
L629.618 213.477
L630.288 211.818
L630.958 223.223
L631.627 216.38
L632.297 217.002
L632.966 218.454
L633.636 209.745
L634.306 213.684
L634.975 204.353
L635.645 211.818
L636.314 215.136
L636.984 204.561
L637.654 219.076
L638.323 205.805
L639.662 227.785
L640.332 216.588
L641.671 211.196
L642.341 216.173
L643.01 215.136
L643.68 204.975
L644.35 212.026
L645.019 216.38
L645.689 208.293
L646.358 212.855
L647.028 210.574
L647.698 210.367
L648.367 213.062
L649.037 209.123
L649.706 202.487
L650.376 211.196
L651.046 210.574
L651.715 210.781
L652.385 207.049
L653.054 211.196
L653.724 218.039
L654.394 204.146
L655.063 215.136
L655.733 208.915
L656.402 211.196
L657.072 206.634
L657.742 218.039
L658.411 212.44
L659.081 211.611
L659.75 220.32
L660.42 218.039
L661.09 212.233
L661.759 209.33
L662.429 214.099
L663.098 216.795
L663.768 216.795
L664.438 209.952
L665.107 220.32
L665.777 211.196
L666.446 220.32
L667.116 211.196
L667.786 204.561
L668.455 209.745
L669.125 219.283
L669.794 204.768
L670.464 217.21
L671.134 216.38
L671.803 209.123
L672.473 212.855
L673.142 219.905
L673.812 218.246
L674.482 198.547
L675.151 213.477
L675.821 218.039
L676.49 212.648
L677.16 205.39
L677.83 207.671
L678.499 212.648
L679.169 215.758
L679.838 211.818
L680.508 223.43
L681.178 207.671
L681.847 223.845
L682.517 209.123
L683.186 208.086
L683.856 206.22
L684.526 208.915
L685.195 218.454
L685.865 211.818
L686.534 210.159
L687.204 203.731
L687.874 208.293
L688.543 215.136
L689.213 209.952
L689.882 210.367
L690.552 212.44
L691.222 201.45
L691.891 214.099
L692.561 213.477
L693.23 207.256
L693.9 211.404
L694.57 212.026
L695.239 205.183
L695.909 222.186
L696.578 214.514
L697.248 208.708
L697.918 208.293
L698.587 200.621
L699.257 215.343
L699.926 207.256
L700.596 205.597
L701.266 207.049
L701.935 217.417
L702.605 204.146
L703.274 208.5
L703.944 208.086
L704.614 224.26
L705.283 224.467
L705.953 218.868
L706.622 218.246
L707.292 214.514
L707.962 209.745
L708.631 213.892
L709.301 207.878
L709.97 223.43
L710.64 206.634
L711.31 210.989
L711.979 200.413
L712.649 216.588
L713.318 223.223
L715.327 205.39
L715.997 215.136
L716.666 212.026
L717.336 206.427
L718.006 213.684
L718.675 212.233
L719.345 208.5
L720.014 219.283
L720.684 210.781
L721.354 218.039
L722.023 212.233
L722.693 204.561
L723.362 219.283
L724.032 211.404
L724.702 217.21
L725.371 208.5
L726.041 211.404
L726.71 212.026
L727.38 216.588
L728.05 213.477
L728.719 212.233
L729.389 210.367
L730.058 214.307
L731.398 205.39
L732.067 215.758
L732.737 210.159
L733.406 208.5
L734.076 214.307
L734.746 206.012
L735.415 219.491
L736.085 212.233
L736.754 216.173
L737.424 209.745
L738.094 218.661
L738.763 206.634
L739.433 206.012
L740.102 212.648
L740.772 214.099
L741.442 217.832
L742.111 210.989
L742.781 208.915
L743.45 208.5
L744.12 216.38
L744.79 209.33
L745.459 211.818
L746.129 217.832
L746.798 213.27
L747.468 214.307
L748.138 214.514
L748.807 209.952
L749.477 216.38
L750.146 215.136
L750.816 212.026
L751.486 214.929
L752.155 213.27
L752.825 208.293
L753.494 213.062
L754.164 205.183
L754.834 215.136
L755.503 208.708
L756.173 205.805
L756.842 208.5
L757.512 217.417
L758.182 208.5
L758.851 218.661
L760.19 202.072
L760.86 213.892
L761.53 208.915
L762.199 217.417
L762.869 217.832
L763.538 212.233
L764.208 212.44
L764.878 208.915
L765.547 218.454
L766.217 208.293
L766.886 212.026
L767.556 207.878
L768.226 209.33
L768.895 219.283
L769.565 216.38
L770.234 209.537
L770.904 212.648
L771.574 212.233
L772.243 216.173
L772.913 207.878
L773.582 209.537
L774.252 200.621
L774.922 204.353
L775.591 213.27
L776.261 204.561
L776.93 213.062
L777.6 219.491
L777.6 219.491" style="fill:none;stroke:#008000;stroke-linecap:square;"/>
   </g>
   <g id="line2d_3">
    <path clip-path="url(#p7ceb695115)" d="
M108 581.956
L108.67 582.163
L109.339 582.578
L110.678 582.578
L111.348 582.371
L112.018 582.785
L112.687 582.578
L113.357 582.993
L114.026 582.993
L114.696 583.2
L115.366 582.993
L116.705 582.993
L117.374 582.578
L118.044 583.2
L118.714 582.785
L120.053 583.2
L120.722 582.993
L121.392 583.2
L126.079 583.2
L126.749 582.993
L127.418 583.2
L132.106 583.2
L132.775 582.993
L133.445 583.2
L135.454 583.2
L136.123 582.993
L136.793 583.2
L137.462 582.993
L138.132 583.2
L442.8 583.2
L443.47 478.691
L444.139 480.764
L444.809 484.497
L445.478 480.972
L446.148 480.142
L446.818 480.142
L447.487 487.607
L448.157 478.898
L448.826 494.865
L449.496 483.46
L450.166 481.179
L450.835 489.266
L451.505 485.119
L452.174 490.717
L452.844 484.704
L453.514 486.778
L454.183 485.741
L454.853 490.303
L455.522 496.731
L456.192 490.303
L456.862 496.109
L457.531 489.266
L458.201 495.694
L458.87 486.57
L459.54 490.51
L460.21 485.741
L461.549 491.962
L462.218 485.948
L462.888 491.34
L463.558 501.5
L464.227 489.888
L464.897 494.657
L466.236 483.46
L466.906 492.584
L467.575 494.243
L468.245 493.828
L468.914 491.754
L469.584 493.828
L470.254 492.791
L470.923 494.45
L471.593 489.266
L472.262 494.243
L472.932 492.169
L473.602 496.109
L474.271 488.229
L474.941 485.119
L475.61 487.192
L476.28 491.754
L476.95 492.998
L477.619 486.363
L478.289 494.243
L478.958 494.035
L479.628 494.45
L480.298 491.547
L480.967 498.39
L482.306 489.266
L482.976 492.998
L483.646 491.547
L484.315 498.804
L484.985 481.179
L485.654 488.436
L486.324 485.741
L486.994 496.731
L487.663 489.059
L488.333 491.962
L489.002 488.851
L489.672 489.888
L490.342 489.266
L491.011 485.533
L491.681 486.778
L492.35 495.901
L493.02 492.998
L493.69 494.035
L494.359 486.57
L495.029 491.754
L495.698 492.169
L496.368 497.768
L497.038 484.911
L497.707 489.681
L498.377 491.547
L499.046 491.34
L499.716 491.547
L500.386 487.4
L501.055 484.289
L501.725 491.962
L502.394 487.814
L503.064 490.51
L503.734 490.51
L504.403 486.985
L505.073 497.768
L505.742 485.119
L506.412 488.436
L507.082 490.925
L507.751 488.022
L508.421 489.473
L509.09 491.962
L509.76 490.925
L510.43 484.082
L511.099 486.985
L511.769 488.022
L512.438 491.34
L513.108 487.4
L513.778 490.303
L514.447 483.875
L515.117 490.51
L515.786 490.51
L516.456 492.791
L517.126 487.607
L517.795 497.975
L518.465 489.059
L519.134 487.192
L519.804 489.059
L520.474 496.316
L521.143 487.607
L521.813 486.985
L522.482 487.607
L523.152 490.303
L523.822 489.059
L524.491 495.072
L525.161 494.45
L526.5 490.51
L527.17 486.57
L527.839 487.192
L528.509 488.229
L529.178 489.888
L529.848 487.4
L530.518 489.266
L531.187 495.487
L531.857 495.487
L532.526 492.169
L533.196 491.962
L533.866 494.865
L534.535 496.316
L535.205 490.51
L535.874 489.059
L536.544 493.828
L537.214 489.473
L537.883 487.814
L538.553 488.436
L539.222 492.791
L539.892 488.851
L540.562 490.303
L541.231 492.376
L541.901 487.607
L542.57 487.4
L543.24 489.888
L543.91 487.192
L544.579 491.132
L545.249 497.768
L545.918 487.814
L546.588 484.704
L547.258 489.681
L547.927 489.681
L548.597 491.962
L549.266 497.146
L549.936 494.45
L550.606 486.57
L551.275 491.547
L551.945 494.657
L552.614 493.413
L553.284 485.741
L553.954 488.229
L554.623 495.694
L555.293 482.008
L555.962 491.547
L556.632 492.169
L557.302 484.497
L557.971 486.778
L558.641 494.657
L559.31 485.533
L559.98 483.46
L560.65 490.095
L561.319 492.998
L561.989 490.51
L562.658 497.768
L563.328 486.156
L563.998 488.851
L564.667 494.45
L565.337 496.524
L566.006 489.266
L566.676 489.888
L567.346 490.303
L568.015 491.34
L568.685 488.229
L569.354 489.473
L570.694 495.279
L571.363 488.229
L572.033 489.473
L572.702 499.219
L574.711 484.911
L575.381 487.814
L576.05 491.754
L576.72 485.326
L577.39 486.778
L578.059 492.169
L578.729 493.206
L579.398 492.998
L580.068 488.229
L580.738 486.156
L581.407 495.279
L582.077 484.911
L582.746 492.584
L583.416 483.875
L584.086 490.51
L584.755 499.012
L585.425 487.192
L586.094 492.169
L586.764 492.791
L587.434 486.778
L588.103 494.035
L588.773 491.34
L589.442 490.925
L590.112 492.791
L590.782 490.925
L591.451 488.229
L592.121 487.4
L592.79 486.363
L593.46 495.487
L594.13 488.022
L594.799 488.436
L595.469 488.644
L596.138 489.681
L596.808 497.56
L597.478 502.537
L598.147 491.547
L598.817 491.962
L599.486 485.533
L600.156 488.644
L600.826 493.206
L601.495 491.962
L602.165 492.376
L602.834 492.169
L603.504 491.132
L604.174 490.717
L604.843 494.035
L605.513 485.533
L606.182 489.888
L606.852 492.584
L607.522 493.62
L608.191 483.667
L608.861 492.584
L609.53 485.326
L610.2 486.57
L610.87 477.861
L611.539 498.804
L612.209 489.059
L612.878 491.34
L613.548 494.035
L614.218 490.303
L614.887 491.34
L615.557 490.925
L616.226 492.169
L617.566 487.814
L618.235 489.473
L618.905 488.229
L619.574 486.57
L620.244 483.875
L620.914 493.828
L621.583 484.704
L622.253 490.717
L622.922 493.62
L623.592 493.413
L624.262 494.035
L624.931 492.998
L625.601 494.45
L626.27 486.156
L626.94 494.45
L627.61 490.095
L628.279 486.57
L628.949 485.948
L629.618 488.644
L630.288 493.413
L630.958 484.704
L631.627 489.473
L632.297 486.363
L632.966 488.436
L633.636 491.34
L634.306 489.266
L634.975 498.804
L635.645 491.962
L636.314 492.998
L636.984 499.427
L637.654 486.363
L638.323 494.865
L638.993 490.095
L639.662 479.52
L640.332 487.192
L641.002 489.059
L641.671 492.791
L642.341 489.266
L643.01 488.644
L643.68 495.694
L644.35 497.146
L645.019 490.303
L645.689 489.681
L646.358 494.657
L647.028 492.169
L647.698 491.34
L648.367 485.119
L649.037 492.791
L649.706 491.962
L650.376 491.547
L651.046 483.667
L651.715 483.875
L652.385 496.524
L653.054 486.985
L653.724 479.935
L654.394 492.584
L655.063 484.911
L655.733 490.717
L656.402 491.34
L657.072 492.169
L657.742 489.059
L658.411 490.303
L659.081 489.888
L659.75 480.557
L660.42 485.533
L661.09 491.754
L661.759 488.436
L662.429 488.436
L663.098 490.925
L663.768 489.681
L664.438 491.132
L665.107 484.289
L665.777 488.229
L666.446 485.119
L667.116 494.865
L667.786 494.865
L668.455 490.303
L669.125 483.46
L669.794 495.694
L670.464 487.192
L671.134 488.229
L671.803 492.998
L672.473 490.303
L673.142 482.63
L673.812 483.252
L674.482 496.316
L675.151 493.413
L675.821 489.473
L676.49 487.814
L677.83 496.731
L678.499 489.266
L679.169 488.229
L679.838 494.243
L680.508 484.082
L681.178 492.998
L681.847 482.216
L682.517 494.45
L683.186 487.607
L683.856 495.487
L684.526 493.62
L685.195 482.63
L685.865 491.547
L686.534 492.169
L687.204 493.62
L687.874 495.487
L688.543 489.059
L689.213 495.279
L689.882 495.487
L690.552 497.975
L691.222 496.731
L691.891 486.363
L692.561 489.473
L693.23 493.62
L693.9 491.34
L694.57 487.607
L695.239 497.768
L695.909 487.607
L696.578 494.45
L697.248 494.035
L697.918 489.681
L698.587 499.634
L699.257 486.363
L699.926 492.998
L700.596 490.925
L701.266 498.182
L701.935 489.681
L702.605 497.146
L703.274 495.072
L704.614 487.814
L705.283 484.497
L705.953 487.607
L706.622 481.594
L707.292 489.473
L707.962 493.828
L708.631 491.547
L709.301 488.436
L709.97 485.948
L710.64 492.376
L711.31 494.243
L711.979 491.34
L712.649 490.303
L713.318 482.423
L713.988 488.436
L714.658 492.584
L715.327 494.865
L715.997 490.095
L716.666 488.229
L717.336 491.132
L718.006 488.644
L718.675 488.022
L719.345 488.851
L720.014 490.303
L720.684 484.911
L721.354 487.814
L722.693 494.865
L723.362 488.022
L724.032 489.681
L724.702 488.644
L725.371 488.851
L726.041 486.57
L726.71 490.925
L727.38 484.497
L728.05 485.741
L728.719 494.035
L729.389 490.925
L730.058 486.778
L730.728 494.45
L731.398 492.791
L732.067 492.998
L733.406 485.533
L734.076 489.059
L734.746 491.754
L735.415 488.644
L736.085 489.473
L736.754 485.326
L737.424 490.717
L738.094 490.51
L738.763 491.962
L739.433 489.266
L740.102 491.754
L740.772 483.667
L741.442 490.717
L742.111 492.376
L742.781 486.778
L743.45 489.888
L744.12 485.741
L744.79 493.828
L745.459 494.865
L746.129 483.252
L746.798 486.57
L747.468 490.925
L748.138 496.316
L748.807 492.584
L749.477 490.095
L750.146 485.326
L750.816 490.51
L751.486 492.169
L752.155 487.192
L752.825 490.303
L753.494 488.022
L754.164 492.998
L754.834 491.132
L755.503 498.39
L756.173 493.828
L756.842 486.156
L757.512 487.192
L758.182 488.644
L758.851 479.105
L760.19 499.012
L760.86 491.132
L761.53 496.109
L762.199 486.985
L762.869 485.533
L763.538 485.948
L764.208 491.34
L764.878 493.828
L765.547 484.497
L766.217 488.229
L767.556 493.828
L768.226 493.206
L768.895 484.497
L769.565 489.888
L770.234 488.644
L770.904 490.925
L771.574 489.473
L772.243 486.156
L772.913 488.851
L773.582 498.39
L774.252 499.841
L774.922 495.694
L775.591 489.059
L776.261 494.035
L776.93 487.192
L777.6 484.704
L777.6 484.704" style="fill:none;stroke:#0000ff;stroke-linecap:square;"/>
   </g>
   <g id="patch_3">
    <path d="
M108 583.2
L777.6 583.2" style="fill:none;stroke:#000000;stroke-linecap:square;stroke-linejoin:miter;"/>
   </g>
   <g id="patch_4">
    <path d="
M108 64.8
L777.6 64.8" style="fill:none;stroke:#000000;stroke-linecap:square;stroke-linejoin:miter;"/>
   </g>
   <g id="patch_5">
    <path d="
M108 583.2
L108 64.8" style="fill:none;stroke:#000000;stroke-linecap:square;stroke-linejoin:miter;"/>
   </g>
   <g id="patch_6">
    <path d="
M777.6 583.2
L777.6 64.8" style="fill:none;stroke:#000000;stroke-linecap:square;stroke-linejoin:miter;"/>
   </g>
   <g id="matplotlib.axis_1">
    <g id="xtick_1">
     <g id="line2d_4">
      <defs>
       <path d="
M0 0
L0 -4" id="mc7db9fdffb" style="stroke:#000000;stroke-width:0.5;"/>
      </defs>
      <g>
       <use style="stroke:#000000;stroke-width:0.5;" x="108.0" xlink:href="#mc7db9fdffb" y="583.2"/>
      </g>
     </g>
     <g id="line2d_5">
      <defs>
       <path d="
M0 0
L0 4" id="m5a7d422ac3" style="stroke:#000000;stroke-width:0.5;"/>
      </defs>
      <g>
       <use style="stroke:#000000;stroke-width:0.5;" x="108.0" xlink:href="#m5a7d422ac3" y="64.8"/>
      </g>
     </g>
     <g id="text_1">
      <!-- 0 -->
      <defs>
       <path d="
M31.7812 66.4062
Q24.1719 66.4062 20.3281 58.9062
Q16.5 51.4219 16.5 36.375
Q16.5 21.3906 20.3281 13.8906
Q24.1719 6.39062 31.7812 6.39062
Q39.4531 6.39062 43.2812 13.8906
Q47.125 21.3906 47.125 36.375
Q47.125 51.4219 43.2812 58.9062
Q39.4531 66.4062 31.7812 66.4062
M31.7812 74.2188
Q44.0469 74.2188 50.5156 64.5156
Q56.9844 54.8281 56.9844 36.375
Q56.9844 17.9688 50.5156 8.26562
Q44.0469 -1.42188 31.7812 -1.42188
Q19.5312 -1.42188 13.0625 8.26562
Q6.59375 17.9688 6.59375 36.375
Q6.59375 54.8281 13.0625 64.5156
Q19.5312 74.2188 31.7812 74.2188" id="BitstreamVeraSans-Roman-30"/>
      </defs>
      <g transform="translate(104.9765625 596.318125)scale(0.12 -0.12)">
       <use xlink:href="#BitstreamVeraSans-Roman-30"/>
      </g>
     </g>
    </g>
    <g id="xtick_2">
     <g id="line2d_6">
      <g>
       <use style="stroke:#000000;stroke-width:0.5;" x="275.4" xlink:href="#mc7db9fdffb" y="583.2"/>
      </g>
     </g>
     <g id="line2d_7">
      <g>
       <use style="stroke:#000000;stroke-width:0.5;" x="275.4" xlink:href="#m5a7d422ac3" y="64.8"/>
      </g>
     </g>
     <g id="text_2">
      <!-- 50000 -->
      <defs>
       <path d="
M10.7969 72.9062
L49.5156 72.9062
L49.5156 64.5938
L19.8281 64.5938
L19.8281 46.7344
Q21.9688 47.4688 24.1094 47.8281
Q26.2656 48.1875 28.4219 48.1875
Q40.625 48.1875 47.75 41.5
Q54.8906 34.8125 54.8906 23.3906
Q54.8906 11.625 47.5625 5.09375
Q40.2344 -1.42188 26.9062 -1.42188
Q22.3125 -1.42188 17.5469 -0.640625
Q12.7969 0.140625 7.71875 1.70312
L7.71875 11.625
Q12.1094 9.23438 16.7969 8.0625
Q21.4844 6.89062 26.7031 6.89062
Q35.1562 6.89062 40.0781 11.3281
Q45.0156 15.7656 45.0156 23.3906
Q45.0156 31 40.0781 35.4375
Q35.1562 39.8906 26.7031 39.8906
Q22.75 39.8906 18.8125 39.0156
Q14.8906 38.1406 10.7969 36.2812
z
" id="BitstreamVeraSans-Roman-35"/>
      </defs>
      <g transform="translate(257.1740625 596.318125)scale(0.12 -0.12)">
       <use xlink:href="#BitstreamVeraSans-Roman-35"/>
       <use x="63.623046875" xlink:href="#BitstreamVeraSans-Roman-30"/>
       <use x="127.24609375" xlink:href="#BitstreamVeraSans-Roman-30"/>
       <use x="190.869140625" xlink:href="#BitstreamVeraSans-Roman-30"/>
       <use x="254.4921875" xlink:href="#BitstreamVeraSans-Roman-30"/>
      </g>
     </g>
    </g>
    <g id="xtick_3">
     <g id="line2d_8">
      <g>
       <use style="stroke:#000000;stroke-width:0.5;" x="442.8" xlink:href="#mc7db9fdffb" y="583.2"/>
      </g>
     </g>
     <g id="line2d_9">
      <g>
       <use style="stroke:#000000;stroke-width:0.5;" x="442.8" xlink:href="#m5a7d422ac3" y="64.8"/>
      </g>
     </g>
     <g id="text_3">
      <!-- 100000 -->
      <defs>
       <path d="
M12.4062 8.29688
L28.5156 8.29688
L28.5156 63.9219
L10.9844 60.4062
L10.9844 69.3906
L28.4219 72.9062
L38.2812 72.9062
L38.2812 8.29688
L54.3906 8.29688
L54.3906 0
L12.4062 0
z
" id="BitstreamVeraSans-Roman-31"/>
      </defs>
      <g transform="translate(420.9525 596.318125)scale(0.12 -0.12)">
       <use xlink:href="#BitstreamVeraSans-Roman-31"/>
       <use x="63.623046875" xlink:href="#BitstreamVeraSans-Roman-30"/>
       <use x="127.24609375" xlink:href="#BitstreamVeraSans-Roman-30"/>
       <use x="190.869140625" xlink:href="#BitstreamVeraSans-Roman-30"/>
       <use x="254.4921875" xlink:href="#BitstreamVeraSans-Roman-30"/>
       <use x="318.115234375" xlink:href="#BitstreamVeraSans-Roman-30"/>
      </g>
     </g>
    </g>
    <g id="xtick_4">
     <g id="line2d_10">
      <g>
       <use style="stroke:#000000;stroke-width:0.5;" x="610.2" xlink:href="#mc7db9fdffb" y="583.2"/>
      </g>
     </g>
     <g id="line2d_11">
      <g>
       <use style="stroke:#000000;stroke-width:0.5;" x="610.2" xlink:href="#m5a7d422ac3" y="64.8"/>
      </g>
     </g>
     <g id="text_4">
      <!-- 150000 -->
      <g transform="translate(588.3525 596.318125)scale(0.12 -0.12)">
       <use xlink:href="#BitstreamVeraSans-Roman-31"/>
       <use x="63.623046875" xlink:href="#BitstreamVeraSans-Roman-35"/>
       <use x="127.24609375" xlink:href="#BitstreamVeraSans-Roman-30"/>
       <use x="190.869140625" xlink:href="#BitstreamVeraSans-Roman-30"/>
       <use x="254.4921875" xlink:href="#BitstreamVeraSans-Roman-30"/>
       <use x="318.115234375" xlink:href="#BitstreamVeraSans-Roman-30"/>
      </g>
     </g>
    </g>
    <g id="xtick_5">
     <g id="line2d_12">
      <g>
       <use style="stroke:#000000;stroke-width:0.5;" x="777.6" xlink:href="#mc7db9fdffb" y="583.2"/>
      </g>
     </g>
     <g id="line2d_13">
      <g>
       <use style="stroke:#000000;stroke-width:0.5;" x="777.6" xlink:href="#m5a7d422ac3" y="64.8"/>
      </g>
     </g>
     <g id="text_5">
      <!-- 200000 -->
      <defs>
       <path d="
M19.1875 8.29688
L53.6094 8.29688
L53.6094 0
L7.32812 0
L7.32812 8.29688
Q12.9375 14.1094 22.625 23.8906
Q32.3281 33.6875 34.8125 36.5312
Q39.5469 41.8438 41.4219 45.5312
Q43.3125 49.2188 43.3125 52.7812
Q43.3125 58.5938 39.2344 62.25
Q35.1562 65.9219 28.6094 65.9219
Q23.9688 65.9219 18.8125 64.3125
Q13.6719 62.7031 7.8125 59.4219
L7.8125 69.3906
Q13.7656 71.7812 18.9375 73
Q24.125 74.2188 28.4219 74.2188
Q39.75 74.2188 46.4844 68.5469
Q53.2188 62.8906 53.2188 53.4219
Q53.2188 48.9219 51.5312 44.8906
Q49.8594 40.875 45.4062 35.4062
Q44.1875 33.9844 37.6406 27.2188
Q31.1094 20.4531 19.1875 8.29688" id="BitstreamVeraSans-Roman-32"/>
      </defs>
      <g transform="translate(755.533125 596.318125)scale(0.12 -0.12)">
       <use xlink:href="#BitstreamVeraSans-Roman-32"/>
       <use x="63.623046875" xlink:href="#BitstreamVeraSans-Roman-30"/>
       <use x="127.24609375" xlink:href="#BitstreamVeraSans-Roman-30"/>
       <use x="190.869140625" xlink:href="#BitstreamVeraSans-Roman-30"/>
       <use x="254.4921875" xlink:href="#BitstreamVeraSans-Roman-30"/>
       <use x="318.115234375" xlink:href="#BitstreamVeraSans-Roman-30"/>
      </g>
     </g>
    </g>
    <g id="text_6">
     <!-- t / ms -->
     <defs>
      <path d="
M18.3125 70.2188
L18.3125 54.6875
L36.8125 54.6875
L36.8125 47.7031
L18.3125 47.7031
L18.3125 18.0156
Q18.3125 11.3281 20.1406 9.42188
Q21.9688 7.51562 27.5938 7.51562
L36.8125 7.51562
L36.8125 0
L27.5938 0
Q17.1875 0 13.2344 3.875
Q9.28125 7.76562 9.28125 18.0156
L9.28125 47.7031
L2.6875 47.7031
L2.6875 54.6875
L9.28125 54.6875
L9.28125 70.2188
z
" id="BitstreamVeraSans-Roman-74"/>
      <path id="BitstreamVeraSans-Roman-20"/>
      <path d="
M44.2812 53.0781
L44.2812 44.5781
Q40.4844 46.5312 36.375 47.5
Q32.2812 48.4844 27.875 48.4844
Q21.1875 48.4844 17.8438 46.4375
Q14.5 44.3906 14.5 40.2812
Q14.5 37.1562 16.8906 35.375
Q19.2812 33.5938 26.5156 31.9844
L29.5938 31.2969
Q39.1562 29.25 43.1875 25.5156
Q47.2188 21.7812 47.2188 15.0938
Q47.2188 7.46875 41.1875 3.01562
Q35.1562 -1.42188 24.6094 -1.42188
Q20.2188 -1.42188 15.4531 -0.5625
Q10.6875 0.296875 5.42188 2
L5.42188 11.2812
Q10.4062 8.6875 15.2344 7.39062
Q20.0625 6.10938 24.8125 6.10938
Q31.1562 6.10938 34.5625 8.28125
Q37.9844 10.4531 37.9844 14.4062
Q37.9844 18.0625 35.5156 20.0156
Q33.0625 21.9688 24.7031 23.7812
L21.5781 24.5156
Q13.2344 26.2656 9.51562 29.9062
Q5.8125 33.5469 5.8125 39.8906
Q5.8125 47.6094 11.2812 51.7969
Q16.75 56 26.8125 56
Q31.7812 56 36.1719 55.2656
Q40.5781 54.5469 44.2812 53.0781" id="BitstreamVeraSans-Roman-73"/>
      <path d="
M25.3906 72.9062
L33.6875 72.9062
L8.29688 -9.28125
L0 -9.28125
z
" id="BitstreamVeraSans-Roman-2f"/>
      <path d="
M52 44.1875
Q55.375 50.25 60.0625 53.125
Q64.75 56 71.0938 56
Q79.6406 56 84.2812 50.0156
Q88.9219 44.0469 88.9219 33.0156
L88.9219 0
L79.8906 0
L79.8906 32.7188
Q79.8906 40.5781 77.0938 44.375
Q74.3125 48.1875 68.6094 48.1875
Q61.625 48.1875 57.5625 43.5469
Q53.5156 38.9219 53.5156 30.9062
L53.5156 0
L44.4844 0
L44.4844 32.7188
Q44.4844 40.625 41.7031 44.4062
Q38.9219 48.1875 33.1094 48.1875
Q26.2188 48.1875 22.1562 43.5312
Q18.1094 38.875 18.1094 30.9062
L18.1094 0
L9.07812 0
L9.07812 54.6875
L18.1094 54.6875
L18.1094 46.1875
Q21.1875 51.2188 25.4844 53.6094
Q29.7812 56 35.6875 56
Q41.6562 56 45.8281 52.9688
Q50 49.9531 52 44.1875" id="BitstreamVeraSans-Roman-6d"/>
     </defs>
     <g transform="translate(425.9353125 612.931875)scale(0.12 -0.12)">
      <use xlink:href="#BitstreamVeraSans-Roman-74"/>
      <use x="39.208984375" xlink:href="#BitstreamVeraSans-Roman-20"/>
      <use x="70.99609375" xlink:href="#BitstreamVeraSans-Roman-2f"/>
      <use x="104.6875" xlink:href="#BitstreamVeraSans-Roman-20"/>
      <use x="136.474609375" xlink:href="#BitstreamVeraSans-Roman-6d"/>
      <use x="233.88671875" xlink:href="#BitstreamVeraSans-Roman-73"/>
     </g>
    </g>
   </g>
   <g id="matplotlib.axis_2">
    <g id="ytick_1">
     <g id="line2d_14">
      <defs>
       <path d="
M0 0
L4 0" id="md7965d1ba0" style="stroke:#000000;stroke-width:0.5;"/>
      </defs>
      <g>
       <use style="stroke:#000000;stroke-width:0.5;" x="108.0" xlink:href="#md7965d1ba0" y="583.2"/>
      </g>
     </g>
     <g id="line2d_15">
      <defs>
       <path d="
M0 0
L-4 0" id="md9a1c1a7cd" style="stroke:#000000;stroke-width:0.5;"/>
      </defs>
      <g>
       <use style="stroke:#000000;stroke-width:0.5;" x="777.6" xlink:href="#md9a1c1a7cd" y="583.2"/>
      </g>
     </g>
     <g id="text_7">
      <!-- 0 -->
      <g transform="translate(97.953125 586.51125)scale(0.12 -0.12)">
       <use xlink:href="#BitstreamVeraSans-Roman-30"/>
      </g>
     </g>
    </g>
    <g id="ytick_2">
     <g id="line2d_16">
      <g>
       <use style="stroke:#000000;stroke-width:0.5;" x="108.0" xlink:href="#md7965d1ba0" y="479.52"/>
      </g>
     </g>
     <g id="line2d_17">
      <g>
       <use style="stroke:#000000;stroke-width:0.5;" x="777.6" xlink:href="#md9a1c1a7cd" y="479.52"/>
      </g>
     </g>
     <g id="text_8">
      <!-- 500 -->
      <g transform="translate(82.818125 482.83125)scale(0.12 -0.12)">
       <use xlink:href="#BitstreamVeraSans-Roman-35"/>
       <use x="63.623046875" xlink:href="#BitstreamVeraSans-Roman-30"/>
       <use x="127.24609375" xlink:href="#BitstreamVeraSans-Roman-30"/>
      </g>
     </g>
    </g>
    <g id="ytick_3">
     <g id="line2d_18">
      <g>
       <use style="stroke:#000000;stroke-width:0.5;" x="108.0" xlink:href="#md7965d1ba0" y="375.84"/>
      </g>
     </g>
     <g id="line2d_19">
      <g>
       <use style="stroke:#000000;stroke-width:0.5;" x="777.6" xlink:href="#md9a1c1a7cd" y="375.84"/>
      </g>
     </g>
     <g id="text_9">
      <!-- 1000 -->
      <g transform="translate(75.575 379.15125)scale(0.12 -0.12)">
       <use xlink:href="#BitstreamVeraSans-Roman-31"/>
       <use x="63.623046875" xlink:href="#BitstreamVeraSans-Roman-30"/>
       <use x="127.24609375" xlink:href="#BitstreamVeraSans-Roman-30"/>
       <use x="190.869140625" xlink:href="#BitstreamVeraSans-Roman-30"/>
      </g>
     </g>
    </g>
    <g id="ytick_4">
     <g id="line2d_20">
      <g>
       <use style="stroke:#000000;stroke-width:0.5;" x="108.0" xlink:href="#md7965d1ba0" y="272.16"/>
      </g>
     </g>
     <g id="line2d_21">
      <g>
       <use style="stroke:#000000;stroke-width:0.5;" x="777.6" xlink:href="#md9a1c1a7cd" y="272.16"/>
      </g>
     </g>
     <g id="text_10">
      <!-- 1500 -->
      <g transform="translate(75.575 275.47125)scale(0.12 -0.12)">
       <use xlink:href="#BitstreamVeraSans-Roman-31"/>
       <use x="63.623046875" xlink:href="#BitstreamVeraSans-Roman-35"/>
       <use x="127.24609375" xlink:href="#BitstreamVeraSans-Roman-30"/>
       <use x="190.869140625" xlink:href="#BitstreamVeraSans-Roman-30"/>
      </g>
     </g>
    </g>
    <g id="ytick_5">
     <g id="line2d_22">
      <g>
       <use style="stroke:#000000;stroke-width:0.5;" x="108.0" xlink:href="#md7965d1ba0" y="168.48"/>
      </g>
     </g>
     <g id="line2d_23">
      <g>
       <use style="stroke:#000000;stroke-width:0.5;" x="777.6" xlink:href="#md9a1c1a7cd" y="168.48"/>
      </g>
     </g>
     <g id="text_11">
      <!-- 2000 -->
      <g transform="translate(75.13625 171.79125)scale(0.12 -0.12)">
       <use xlink:href="#BitstreamVeraSans-Roman-32"/>
       <use x="63.623046875" xlink:href="#BitstreamVeraSans-Roman-30"/>
       <use x="127.24609375" xlink:href="#BitstreamVeraSans-Roman-30"/>
       <use x="190.869140625" xlink:href="#BitstreamVeraSans-Roman-30"/>
      </g>
     </g>
    </g>
    <g id="ytick_6">
     <g id="line2d_24">
      <g>
       <use style="stroke:#000000;stroke-width:0.5;" x="108.0" xlink:href="#md7965d1ba0" y="64.8"/>
      </g>
     </g>
     <g id="line2d_25">
      <g>
       <use style="stroke:#000000;stroke-width:0.5;" x="777.6" xlink:href="#md9a1c1a7cd" y="64.8"/>
      </g>
     </g>
     <g id="text_12">
      <!-- 2500 -->
      <g transform="translate(75.13625 68.11125)scale(0.12 -0.12)">
       <use xlink:href="#BitstreamVeraSans-Roman-32"/>
       <use x="63.623046875" xlink:href="#BitstreamVeraSans-Roman-35"/>
       <use x="127.24609375" xlink:href="#BitstreamVeraSans-Roman-30"/>
       <use x="190.869140625" xlink:href="#BitstreamVeraSans-Roman-30"/>
      </g>
     </g>
    </g>
    <g id="text_13">
     <!-- particle numbers -->
     <defs>
      <path d="
M41.1094 46.2969
Q39.5938 47.1719 37.8125 47.5781
Q36.0312 48 33.8906 48
Q26.2656 48 22.1875 43.0469
Q18.1094 38.0938 18.1094 28.8125
L18.1094 0
L9.07812 0
L9.07812 54.6875
L18.1094 54.6875
L18.1094 46.1875
Q20.9531 51.1719 25.4844 53.5781
Q30.0312 56 36.5312 56
Q37.4531 56 38.5781 55.875
Q39.7031 55.7656 41.0625 55.5156
z
" id="BitstreamVeraSans-Roman-72"/>
      <path d="
M48.7812 52.5938
L48.7812 44.1875
Q44.9688 46.2969 41.1406 47.3438
Q37.3125 48.3906 33.4062 48.3906
Q24.6562 48.3906 19.8125 42.8438
Q14.9844 37.3125 14.9844 27.2969
Q14.9844 17.2812 19.8125 11.7344
Q24.6562 6.20312 33.4062 6.20312
Q37.3125 6.20312 41.1406 7.25
Q44.9688 8.29688 48.7812 10.4062
L48.7812 2.09375
Q45.0156 0.34375 40.9844 -0.53125
Q36.9688 -1.42188 32.4219 -1.42188
Q20.0625 -1.42188 12.7812 6.34375
Q5.51562 14.1094 5.51562 27.2969
Q5.51562 40.6719 12.8594 48.3281
Q20.2188 56 33.0156 56
Q37.1562 56 41.1094 55.1406
Q45.0625 54.2969 48.7812 52.5938" id="BitstreamVeraSans-Roman-63"/>
      <path d="
M56.2031 29.5938
L56.2031 25.2031
L14.8906 25.2031
Q15.4844 15.9219 20.4844 11.0625
Q25.4844 6.20312 34.4219 6.20312
Q39.5938 6.20312 44.4531 7.46875
Q49.3125 8.73438 54.1094 11.2812
L54.1094 2.78125
Q49.2656 0.734375 44.1875 -0.34375
Q39.1094 -1.42188 33.8906 -1.42188
Q20.7969 -1.42188 13.1562 6.1875
Q5.51562 13.8125 5.51562 26.8125
Q5.51562 40.2344 12.7656 48.1094
Q20.0156 56 32.3281 56
Q43.3594 56 49.7812 48.8906
Q56.2031 41.7969 56.2031 29.5938
M47.2188 32.2344
Q47.125 39.5938 43.0938 43.9844
Q39.0625 48.3906 32.4219 48.3906
Q24.9062 48.3906 20.3906 44.1406
Q15.875 39.8906 15.1875 32.1719
z
" id="BitstreamVeraSans-Roman-65"/>
      <path d="
M8.5 21.5781
L8.5 54.6875
L17.4844 54.6875
L17.4844 21.9219
Q17.4844 14.1562 20.5 10.2656
Q23.5312 6.39062 29.5938 6.39062
Q36.8594 6.39062 41.0781 11.0312
Q45.3125 15.6719 45.3125 23.6875
L45.3125 54.6875
L54.2969 54.6875
L54.2969 0
L45.3125 0
L45.3125 8.40625
Q42.0469 3.42188 37.7188 1
Q33.4062 -1.42188 27.6875 -1.42188
Q18.2656 -1.42188 13.375 4.4375
Q8.5 10.2969 8.5 21.5781" id="BitstreamVeraSans-Roman-75"/>
      <path d="
M48.6875 27.2969
Q48.6875 37.2031 44.6094 42.8438
Q40.5312 48.4844 33.4062 48.4844
Q26.2656 48.4844 22.1875 42.8438
Q18.1094 37.2031 18.1094 27.2969
Q18.1094 17.3906 22.1875 11.75
Q26.2656 6.10938 33.4062 6.10938
Q40.5312 6.10938 44.6094 11.75
Q48.6875 17.3906 48.6875 27.2969
M18.1094 46.3906
Q20.9531 51.2656 25.2656 53.625
Q29.5938 56 35.5938 56
Q45.5625 56 51.7812 48.0938
Q58.0156 40.1875 58.0156 27.2969
Q58.0156 14.4062 51.7812 6.48438
Q45.5625 -1.42188 35.5938 -1.42188
Q29.5938 -1.42188 25.2656 0.953125
Q20.9531 3.32812 18.1094 8.20312
L18.1094 0
L9.07812 0
L9.07812 75.9844
L18.1094 75.9844
z
" id="BitstreamVeraSans-Roman-62"/>
      <path d="
M54.8906 33.0156
L54.8906 0
L45.9062 0
L45.9062 32.7188
Q45.9062 40.4844 42.875 44.3281
Q39.8438 48.1875 33.7969 48.1875
Q26.5156 48.1875 22.3125 43.5469
Q18.1094 38.9219 18.1094 30.9062
L18.1094 0
L9.07812 0
L9.07812 54.6875
L18.1094 54.6875
L18.1094 46.1875
Q21.3438 51.125 25.7031 53.5625
Q30.0781 56 35.7969 56
Q45.2188 56 50.0469 50.1719
Q54.8906 44.3438 54.8906 33.0156" id="BitstreamVeraSans-Roman-6e"/>
      <path d="
M9.42188 75.9844
L18.4062 75.9844
L18.4062 0
L9.42188 0
z
" id="BitstreamVeraSans-Roman-6c"/>
      <path d="
M34.2812 27.4844
Q23.3906 27.4844 19.1875 25
Q14.9844 22.5156 14.9844 16.5
Q14.9844 11.7188 18.1406 8.90625
Q21.2969 6.10938 26.7031 6.10938
Q34.1875 6.10938 38.7031 11.4062
Q43.2188 16.7031 43.2188 25.4844
L43.2188 27.4844
z

M52.2031 31.2031
L52.2031 0
L43.2188 0
L43.2188 8.29688
Q40.1406 3.32812 35.5469 0.953125
Q30.9531 -1.42188 24.3125 -1.42188
Q15.9219 -1.42188 10.9531 3.29688
Q6 8.01562 6 15.9219
Q6 25.1406 12.1719 29.8281
Q18.3594 34.5156 30.6094 34.5156
L43.2188 34.5156
L43.2188 35.4062
Q43.2188 41.6094 39.1406 45
Q35.0625 48.3906 27.6875 48.3906
Q23 48.3906 18.5469 47.2656
Q14.1094 46.1406 10.0156 43.8906
L10.0156 52.2031
Q14.9375 54.1094 19.5781 55.0469
Q24.2188 56 28.6094 56
Q40.4844 56 46.3438 49.8438
Q52.2031 43.7031 52.2031 31.2031" id="BitstreamVeraSans-Roman-61"/>
      <path d="
M9.42188 54.6875
L18.4062 54.6875
L18.4062 0
L9.42188 0
z

M9.42188 75.9844
L18.4062 75.9844
L18.4062 64.5938
L9.42188 64.5938
z
" id="BitstreamVeraSans-Roman-69"/>
      <path d="
M18.1094 8.20312
L18.1094 -20.7969
L9.07812 -20.7969
L9.07812 54.6875
L18.1094 54.6875
L18.1094 46.3906
Q20.9531 51.2656 25.2656 53.625
Q29.5938 56 35.5938 56
Q45.5625 56 51.7812 48.0938
Q58.0156 40.1875 58.0156 27.2969
Q58.0156 14.4062 51.7812 6.48438
Q45.5625 -1.42188 35.5938 -1.42188
Q29.5938 -1.42188 25.2656 0.953125
Q20.9531 3.32812 18.1094 8.20312
M48.6875 27.2969
Q48.6875 37.2031 44.6094 42.8438
Q40.5312 48.4844 33.4062 48.4844
Q26.2656 48.4844 22.1875 42.8438
Q18.1094 37.2031 18.1094 27.2969
Q18.1094 17.3906 22.1875 11.75
Q26.2656 6.10938 33.4062 6.10938
Q40.5312 6.10938 44.6094 11.75
Q48.6875 17.3906 48.6875 27.2969" id="BitstreamVeraSans-Roman-70"/>
     </defs>
     <g transform="translate(67.640625 374.78625)rotate(-90.0)scale(0.12 -0.12)">
      <use xlink:href="#BitstreamVeraSans-Roman-70"/>
      <use x="63.4765625" xlink:href="#BitstreamVeraSans-Roman-61"/>
      <use x="124.755859375" xlink:href="#BitstreamVeraSans-Roman-72"/>
      <use x="165.869140625" xlink:href="#BitstreamVeraSans-Roman-74"/>
      <use x="205.078125" xlink:href="#BitstreamVeraSans-Roman-69"/>
      <use x="232.861328125" xlink:href="#BitstreamVeraSans-Roman-63"/>
      <use x="287.841796875" xlink:href="#BitstreamVeraSans-Roman-6c"/>
      <use x="315.625" xlink:href="#BitstreamVeraSans-Roman-65"/>
      <use x="377.1484375" xlink:href="#BitstreamVeraSans-Roman-20"/>
      <use x="408.935546875" xlink:href="#BitstreamVeraSans-Roman-6e"/>
      <use x="472.314453125" xlink:href="#BitstreamVeraSans-Roman-75"/>
      <use x="535.693359375" xlink:href="#BitstreamVeraSans-Roman-6d"/>
      <use x="633.10546875" xlink:href="#BitstreamVeraSans-Roman-62"/>
      <use x="696.58203125" xlink:href="#BitstreamVeraSans-Roman-65"/>
      <use x="758.10546875" xlink:href="#BitstreamVeraSans-Roman-72"/>
      <use x="799.21875" xlink:href="#BitstreamVeraSans-Roman-73"/>
     </g>
    </g>
   </g>
   <g id="legend_1">
    <g id="patch_7">
     <path d="
M724.53 101.224
L774.1 101.224
L774.1 68.3
L724.53 68.3
z
" style="fill:#ffffff;stroke:#000000;stroke-linejoin:miter;"/>
    </g>
    <g id="line2d_26">
     <path d="
M729.43 73.9689
L739.23 73.9689" style="fill:none;stroke:#ff0000;stroke-linecap:square;"/>
    </g>
    <g id="line2d_27"/>
    <g id="text_14">
     <!-- Da el.0 -->
     <defs>
      <path d="
M10.6875 12.4062
L21 12.4062
L21 0
L10.6875 0
z
" id="BitstreamVeraSans-Roman-2e"/>
      <path d="
M19.6719 64.7969
L19.6719 8.10938
L31.5938 8.10938
Q46.6875 8.10938 53.6875 14.9375
Q60.6875 21.7812 60.6875 36.5312
Q60.6875 51.1719 53.6875 57.9844
Q46.6875 64.7969 31.5938 64.7969
z

M9.8125 72.9062
L30.0781 72.9062
Q51.2656 72.9062 61.1719 64.0938
Q71.0938 55.2812 71.0938 36.5312
Q71.0938 17.6719 61.125 8.82812
Q51.1719 0 30.0781 0
L9.8125 0
z
" id="BitstreamVeraSans-Roman-44"/>
     </defs>
     <g transform="translate(746.93015625 76.41890625)scale(0.07 -0.07)">
      <use xlink:href="#BitstreamVeraSans-Roman-44"/>
      <use x="77.001953125" xlink:href="#BitstreamVeraSans-Roman-61"/>
      <use x="138.28125" xlink:href="#BitstreamVeraSans-Roman-20"/>
      <use x="170.068359375" xlink:href="#BitstreamVeraSans-Roman-65"/>
      <use x="231.591796875" xlink:href="#BitstreamVeraSans-Roman-6c"/>
      <use x="259.375" xlink:href="#BitstreamVeraSans-Roman-2e"/>
      <use x="291.162109375" xlink:href="#BitstreamVeraSans-Roman-30"/>
     </g>
    </g>
    <g id="line2d_28">
     <path d="
M729.43 84.2436
L739.23 84.2436" style="fill:none;stroke:#008000;stroke-linecap:square;"/>
    </g>
    <g id="line2d_29"/>
    <g id="text_15">
     <!-- Da el.1 -->
     <g transform="translate(746.93015625 86.69359375)scale(0.07 -0.07)">
      <use xlink:href="#BitstreamVeraSans-Roman-44"/>
      <use x="77.001953125" xlink:href="#BitstreamVeraSans-Roman-61"/>
      <use x="138.28125" xlink:href="#BitstreamVeraSans-Roman-20"/>
      <use x="170.068359375" xlink:href="#BitstreamVeraSans-Roman-65"/>
      <use x="231.591796875" xlink:href="#BitstreamVeraSans-Roman-6c"/>
      <use x="259.375" xlink:href="#BitstreamVeraSans-Roman-2e"/>
      <use x="291.162109375" xlink:href="#BitstreamVeraSans-Roman-31"/>
     </g>
    </g>
    <g id="line2d_30">
     <path d="
M729.43 94.5183
L739.23 94.5183" style="fill:none;stroke:#0000ff;stroke-linecap:square;"/>
    </g>
    <g id="line2d_31"/>
    <g id="text_16">
     <!-- Da el.2 -->
     <g transform="translate(746.93015625 96.96828125)scale(0.07 -0.07)">
      <use xlink:href="#BitstreamVeraSans-Roman-44"/>
      <use x="77.001953125" xlink:href="#BitstreamVeraSans-Roman-61"/>
      <use x="138.28125" xlink:href="#BitstreamVeraSans-Roman-20"/>
      <use x="170.068359375" xlink:href="#BitstreamVeraSans-Roman-65"/>
      <use x="231.591796875" xlink:href="#BitstreamVeraSans-Roman-6c"/>
      <use x="259.375" xlink:href="#BitstreamVeraSans-Roman-2e"/>
      <use x="291.162109375" xlink:href="#BitstreamVeraSans-Roman-32"/>
     </g>
    </g>
   </g>
  </g>
 </g>
 <defs>
  <clipPath id="p7ceb695115">
   <rect height="518.4" width="669.6" x="108.0" y="64.8"/>
  </clipPath>
 </defs>
</svg>
