<?xml version="1.0" encoding="utf-8" standalone="no"?>
<!DOCTYPE svg PUBLIC "-//W3C//DTD SVG 1.1//EN"
  "http://www.w3.org/Graphics/SVG/1.1/DTD/svg11.dtd">
<!-- Created with matplotlib (http://matplotlib.org/) -->
<svg height="648pt" version="1.1" viewBox="0 0 864 648" width="864pt" xmlns="http://www.w3.org/2000/svg" xmlns:xlink="http://www.w3.org/1999/xlink">
 <defs>
  <style type="text/css">
*{stroke-linecap:butt;stroke-linejoin:round;}
  </style>
 </defs>
 <g id="figure_1">
  <g id="patch_1">
   <path d="
M0 648
L864 648
L864 0
L0 0
z
" style="fill:#ffffff;"/>
  </g>
  <g id="axes_1">
   <g id="patch_2">
    <path d="
M108 583.2
L777.6 583.2
L777.6 64.8
L108 64.8
z
" style="fill:#ffffff;"/>
   </g>
   <g id="line2d_1">
    <path clip-path="url(#p7ceb695115)" d="
M108 582.928
L108.67 583.161
L110.678 583.161
L113.357 583.083
L117.374 583.07
L118.714 582.954
L120.053 583.032
L120.722 583.044
L121.392 582.902
L122.062 583.044
L123.401 582.954
L124.74 582.967
L126.079 582.824
L126.749 582.928
L128.088 582.98
L128.758 583.032
L130.097 582.954
L130.766 582.928
L131.436 583.019
L132.106 582.98
L132.775 583.057
L133.445 582.824
L134.114 582.993
L135.454 583.006
L136.123 582.876
L136.793 582.967
L137.462 582.889
L138.132 582.928
L138.802 582.85
L140.81 583.019
L142.15 583.019
L145.498 583.044
L147.506 582.902
L148.846 582.941
L149.515 582.967
L150.185 583.122
L150.854 582.967
L152.194 582.954
L153.533 582.98
L156.881 582.928
L157.55 583.032
L158.89 582.915
L160.229 583.032
L161.568 583.032
L162.238 582.889
L162.907 582.889
L164.246 583.044
L166.925 582.889
L168.264 583.07
L169.603 582.967
L170.273 583.096
L172.282 583.006
L172.951 583.057
L173.621 582.993
L174.29 583.057
L174.96 582.954
L175.63 583.032
L178.308 582.837
L178.978 583.019
L179.647 582.915
L180.317 583.019
L182.995 582.993
L185.004 582.954
L185.674 582.876
L187.013 583.044
L187.682 582.967
L189.022 583.083
L191.03 582.967
L191.7 583.096
L192.37 582.98
L194.378 583.044
L195.048 582.967
L196.387 582.993
L199.066 582.889
L199.735 583.083
L201.074 582.993
L205.092 583.057
L205.762 582.967
L209.779 583.019
L212.458 582.824
L213.127 582.993
L217.814 583.006
L219.823 582.928
L220.493 583.07
L223.171 582.98
L223.841 583.083
L226.519 582.993
L227.189 583.122
L227.858 582.98
L229.198 582.967
L229.867 582.915
L230.537 583.083
L231.206 582.928
L231.876 583.07
L237.233 583.07
L237.902 582.928
L238.572 583.044
L239.911 582.993
L240.581 583.083
L241.25 582.954
L241.92 583.07
L245.268 582.98
L245.938 583.057
L248.616 583.006
L249.955 583.032
L253.303 582.954
L254.642 583.057
L256.651 583.019
L294.818 583.032
L295.488 583.148
L296.827 583.044
L299.506 583.122
L300.845 582.98
L302.854 583.07
L304.193 583.032
L305.532 583.044
L320.933 583.006
L321.602 582.915
L322.272 583.032
L326.29 583.032
L328.968 583.135
L329.638 583.044
L330.977 583.109
L334.994 583.044
L335.664 583.109
L336.334 582.954
L337.003 583.083
L339.682 582.98
L340.351 583.109
L341.69 583.057
L342.36 582.98
L343.03 583.083
L345.708 583.032
L347.047 583.161
L348.386 583.07
L351.065 583.07
L360.439 583.109
L361.109 582.915
L362.448 583.096
L363.118 583.019
L364.457 583.057
L371.822 582.967
L372.492 583.122
L373.831 583.019
L375.84 582.993
L376.51 583.083
L377.849 583.044
L416.016 583.07
L416.686 583.161
L417.355 583.083
L418.694 583.096
L421.373 583.006
L422.042 583.083
L422.712 582.954
L423.382 583.07
L430.747 582.928
L431.417 583.07
L432.086 582.967
L432.756 583.057
L433.426 582.954
L435.434 583.044
L437.443 583.032
L438.113 583.096
L438.782 582.993
L440.122 583.07
L442.13 583.057
L442.8 583.135
L443.47 582.876
L444.139 582.461
L444.809 581.295
L445.478 579.584
L446.148 576.863
L446.818 573.519
L447.487 571.393
L448.826 563.721
L449.496 562.023
L450.166 559.12
L450.835 554.805
L451.505 552.537
L452.844 544.333
L453.514 538.929
L454.183 536.79
L454.853 530.453
L455.522 525.463
L456.192 523.364
L457.531 511.92
L458.201 507.267
L458.87 504.494
L460.21 497.016
L460.879 493.659
L461.549 489.421
L462.888 484.25
L463.558 480.298
L464.897 476.967
L465.566 477.446
L466.236 473.61
L466.906 472.548
L467.575 472.366
L468.914 467.389
L469.584 467.221
L470.923 461.687
L471.593 462.944
L472.262 459.976
L472.932 460.028
L473.602 462.711
L474.271 461.687
L474.941 458.797
L475.61 458.978
L476.28 458.952
L476.95 456.931
L477.619 455.751
L478.289 456.97
L478.958 456.257
L479.628 456.762
L480.298 457.838
L480.967 456.179
L481.637 457.268
L482.306 456.814
L482.976 455.544
L483.646 457.047
L484.315 455.285
L484.985 457.993
L485.654 454.65
L486.324 455.687
L486.994 454.209
L487.663 455.285
L488.333 453.678
L489.002 456.179
L489.672 455.09
L490.342 454.494
L491.011 452.784
L491.681 455.194
L492.35 455.298
L493.02 455.116
L493.69 455.738
L494.359 455.194
L495.029 456.957
L495.698 456.373
L496.368 457.32
L497.038 456.244
L497.707 456.27
L498.377 455.246
L499.046 457.656
L499.716 458.084
L500.386 456.399
L501.055 456.931
L501.725 455.531
L502.394 455.622
L503.064 458.46
L503.734 455.557
L505.073 457.89
L505.742 455.168
L506.412 454.844
L507.082 457.799
L507.751 458.123
L508.421 456.957
L509.09 459.536
L509.76 458.538
L510.43 461.285
L511.099 458.628
L511.769 458.797
L512.438 459.562
L513.108 456.762
L513.778 458.616
L514.447 458.292
L515.117 460.793
L515.786 462.037
L516.456 461.985
L517.126 461.091
L517.795 460.508
L518.465 458.473
L519.134 461.182
L519.804 461.078
L520.474 461.544
L521.143 460.585
L521.813 458.032
L522.482 461.415
L523.152 459.6
L523.822 459.121
L524.491 460.987
L525.161 460.819
L525.83 460.767
L526.5 461.065
L527.17 461.946
L527.839 460.909
L528.509 461.933
L529.178 463.411
L529.848 461.881
L530.518 463.229
L531.187 462.283
L531.857 463.566
L532.526 463.592
L533.866 464.681
L534.535 464.746
L535.205 462.983
L535.874 465.199
L536.544 465.744
L537.214 463.009
L537.883 464.733
L538.553 465.264
L539.222 464.46
L539.892 464.551
L540.562 466.016
L541.231 464.888
L541.901 467.778
L542.57 466.482
L543.24 469.644
L543.91 468.711
L544.579 467.325
L545.249 468.996
L545.918 468.348
L546.588 468.336
L547.258 470.94
L547.927 470.396
L548.597 469.372
L549.266 473.597
L549.936 471.226
L550.606 472.509
L551.275 474.155
L551.945 472.262
L552.614 473.312
L553.284 475.334
L553.954 473.779
L554.623 475.619
L555.293 475.114
L555.962 475.502
L556.632 473.338
L557.302 475.386
L559.31 476.448
L559.98 478.665
L560.65 477.511
L561.319 480.233
L561.989 479.002
L562.658 479.092
L563.328 478.82
L563.998 481.814
L564.667 478.976
L565.337 480.764
L566.006 480.609
L567.346 482.436
L568.015 482.086
L568.685 482.864
L569.354 482.332
L570.024 480.557
L570.694 482.332
L571.363 482.967
L572.033 482.773
L572.702 480.881
L573.372 483.486
L574.042 484.652
L574.711 484.224
L575.381 485.417
L576.05 483.836
L576.72 485.702
L577.39 486.726
L578.059 486.194
L578.729 486.324
L579.398 485.637
L580.738 487.737
L581.407 486.791
L582.077 489.992
L582.746 489.214
L583.416 489.862
L584.086 489.849
L584.755 490.316
L585.425 489.979
L586.094 490.886
L586.764 490.795
L587.434 492.985
L588.103 490.886
L588.773 490.005
L589.442 489.616
L590.112 490.64
L591.451 493.076
L592.121 493.063
L592.79 494.281
L593.46 491.897
L594.13 493.569
L594.799 494.592
L595.469 493.724
L596.138 493.944
L596.808 494.644
L597.478 497.314
L598.147 496.536
L598.817 496.99
L599.486 498.001
L600.156 497.457
L601.495 495.629
L602.165 498.468
L602.834 498.234
L603.504 497.055
L604.174 497.249
L604.843 499.388
L605.513 499.193
L606.182 498.869
L607.522 499.388
L608.191 500.878
L608.861 500.943
L609.53 500.23
L610.87 502.213
L611.539 504.235
L612.209 504.014
L612.878 501.876
L613.548 502.718
L614.218 503.95
L614.887 503.911
L615.557 505.932
L616.226 503.094
L616.896 506.412
L618.235 506.075
L618.905 504.999
L619.574 508.486
L620.244 506.36
L620.914 506.256
L621.583 508.512
L622.253 509.95
L622.922 508.693
L623.592 508.965
L624.262 510.676
L624.931 510.818
L625.601 510.598
L626.27 512.529
L626.94 510.041
L627.61 511.998
L628.949 512.905
L629.618 513.877
L630.288 513.268
L630.958 514.344
L631.627 513.708
L632.297 514.084
L633.636 514.525
L634.306 516.378
L634.975 515.406
L635.645 517.039
L636.314 515.575
L636.984 517.026
L637.654 515.821
L638.323 515.964
L638.993 517.117
L639.662 516.456
L640.332 517.584
L641.002 517.402
L641.671 518.737
L642.341 518.102
L643.01 517.92
L643.68 519.502
L644.35 518.88
L645.019 518.491
L645.689 519.178
L646.358 520.37
L647.028 519.489
L647.698 519.994
L648.367 521.549
L649.037 519.968
L649.706 518.776
L650.376 519.372
L651.715 521.42
L652.385 520.24
L653.054 520.681
L653.724 520.642
L654.394 519.489
L655.733 521.342
L656.402 519.735
L657.072 522.651
L657.742 521.186
L658.411 521.42
L659.081 523.467
L659.75 521.938
L660.42 522.508
L661.09 523.882
L662.429 521.899
L663.098 522.612
L663.768 524.193
L664.438 522.677
L665.107 522.664
L665.777 523.117
L666.446 524.219
L667.116 523.817
L667.786 524.439
L668.455 523.752
L669.125 524.038
L669.794 526.202
L670.464 524.232
L671.134 524.064
L671.803 524.115
L672.473 524.362
L673.142 523.701
L673.812 524.815
L674.482 526.241
L675.151 524.323
L675.821 526.098
L676.49 525.139
L677.16 524.673
L677.83 525.722
L678.499 524.737
L679.169 525.658
L679.838 524.504
L680.508 524.076
L681.178 525.787
L681.847 526.15
L682.517 527.355
L683.186 526.643
L683.856 527.018
L684.526 527.122
L685.195 527.848
L685.865 526.332
L686.534 526.254
L687.204 528.548
L687.874 526.254
L688.543 528.483
L689.213 527.329
L689.882 526.694
L690.552 529.26
L691.222 529.87
L691.891 529.649
L692.561 530.168
L693.23 529.04
L693.9 528.159
L694.57 528.25
L695.239 528.911
L695.909 530.984
L696.578 529.584
L697.248 530.323
L697.918 530.362
L698.587 529.312
L699.257 530.038
L699.926 531.684
L700.596 529.286
L701.266 530.582
L701.935 530.932
L702.605 529.818
L703.274 530.388
L703.944 531.399
L704.614 530.22
L705.283 531.852
L705.953 530.09
L706.622 529.26
L707.292 530.88
L707.962 530.129
L708.631 530.764
L709.301 530.595
L709.97 529.416
L711.31 529.442
L712.649 531.153
L713.988 530.038
L714.658 529.947
L715.327 530.608
L715.997 531.567
L717.336 530.829
L718.006 530.647
L718.675 531.969
L719.345 529.144
L720.014 531.425
L720.684 530.738
L721.354 530.712
L722.023 532.436
L722.693 531.399
L723.362 532.449
L724.702 531.995
L725.371 532.656
L726.041 532.967
L726.71 532.695
L727.38 533.848
L728.05 532.526
L728.719 532.254
L729.389 533.239
L730.058 531.217
L730.728 533.33
L731.398 532.76
L732.067 532.747
L732.737 534.25
L733.406 534.367
L734.076 535.222
L734.746 532.63
L735.415 534.561
L736.085 535.896
L736.754 534.315
L737.424 534.743
L738.094 534.781
L738.763 536.622
L739.433 535.598
L740.102 536.44
L740.772 536.427
L741.442 537.516
L742.781 536.168
L743.45 538.449
L744.79 536.557
L745.459 537.477
L746.129 537.659
L746.798 536.492
L747.468 536.79
L748.138 537.84
L748.807 537.49
L749.477 537.425
L750.146 537.127
L750.816 537.983
L752.155 537.309
L752.825 539.045
L753.494 539.706
L754.164 538.851
L754.834 540.082
L756.173 538.449
L756.842 539.292
L758.182 539.045
L758.851 540.03
L759.521 540.51
L760.19 539.408
L760.86 541.041
L761.53 539.667
L762.199 540.899
L762.869 541.248
L763.538 540.937
L764.208 541.236
L764.878 540.289
L765.547 541.754
L766.217 541.819
L766.886 540.276
L767.556 542.285
L768.226 541.676
L768.895 542.804
L770.234 541.054
L770.904 542.272
L771.574 542.752
L772.243 541.871
L772.913 541.896
L773.582 543.439
L774.252 541.728
L774.922 542.441
L775.591 543.815
L776.261 543.685
L776.93 543.711
L777.6 542.868
L777.6 542.868" style="fill:none;stroke:#ff0000;stroke-linecap:square;"/>
   </g>
   <g id="line2d_2">
    <path clip-path="url(#p7ceb695115)" d="
M108 582.085
L108.67 582.941
L110.009 583.083
L111.348 583.096
L112.018 582.837
L112.687 582.928
L114.696 582.798
L116.035 582.708
L118.714 582.293
L119.383 582.474
L120.722 582.409
L121.392 582.539
L122.062 582.306
L123.401 582.345
L124.07 582.163
L126.749 582.28
L127.418 582.163
L128.758 582.293
L129.427 582.072
L130.097 582.215
L131.436 582.137
L133.445 582.422
L134.114 582.021
L134.784 582.176
L135.454 582.202
L136.793 581.956
L138.802 582.306
L139.471 582.28
L140.141 582.409
L140.81 582.345
L141.48 582.474
L144.158 582.28
L146.837 582.319
L147.506 582.358
L148.176 582.137
L148.846 582.189
L150.854 581.982
L152.194 582.345
L152.863 582.228
L153.533 582.319
L154.872 582.163
L156.211 582.163
L156.881 582.345
L158.22 582.241
L158.89 582.371
L160.229 582.28
L160.898 582.409
L161.568 582.189
L164.246 582.202
L164.916 582.396
L166.255 582.254
L166.925 582.28
L167.594 582.163
L168.264 582.384
L168.934 582.267
L169.603 582.384
L172.951 582.384
L173.621 582.072
L174.29 582.435
L174.96 582.189
L175.63 582.111
L176.299 582.422
L176.969 582.072
L177.638 582.384
L179.647 582.384
L180.317 582.15
L180.986 582.345
L182.326 582.461
L182.995 582.267
L183.665 582.332
L184.334 582.28
L185.004 582.409
L186.343 582.332
L187.682 582.332
L188.352 582.539
L189.022 582.396
L189.691 582.578
L190.361 582.435
L192.37 582.448
L194.378 582.371
L195.048 582.552
L195.718 582.384
L196.387 582.5
L197.057 582.487
L197.726 582.215
L198.396 582.384
L199.735 582.409
L200.405 582.604
L201.074 582.409
L201.744 582.371
L202.414 582.539
L203.083 582.319
L203.753 582.345
L204.422 582.228
L205.092 582.241
L205.762 582.474
L207.101 582.435
L207.77 582.28
L208.44 582.461
L209.779 582.474
L210.449 582.306
L211.118 582.358
L211.788 582.552
L213.127 582.409
L213.797 582.526
L214.466 582.306
L215.136 582.358
L215.806 582.526
L216.475 582.358
L219.154 582.345
L219.823 582.526
L221.162 582.228
L221.832 582.526
L222.502 582.28
L223.171 582.526
L223.841 582.306
L224.51 582.487
L225.85 582.695
L226.519 582.474
L227.189 582.591
L228.528 582.526
L229.867 582.267
L231.206 582.643
L232.546 582.513
L233.215 582.617
L233.885 582.604
L234.554 582.422
L235.224 582.604
L235.894 582.474
L237.233 582.565
L237.902 582.358
L238.572 582.591
L239.242 582.396
L239.911 582.578
L240.581 582.591
L241.25 582.409
L241.92 582.384
L243.259 582.565
L244.598 582.474
L245.268 582.591
L245.938 582.409
L246.607 582.604
L247.277 582.487
L248.616 582.526
L249.286 582.358
L249.955 582.396
L250.625 582.28
L251.294 582.422
L251.964 582.215
L252.634 582.435
L255.982 582.591
L256.651 582.371
L258.66 582.422
L259.999 582.513
L260.669 582.254
L262.678 582.487
L264.017 582.371
L264.686 582.578
L266.026 582.215
L268.034 582.448
L270.713 582.358
L274.061 582.552
L274.73 582.319
L275.4 582.28
L276.07 582.448
L276.739 582.293
L278.078 582.513
L278.748 582.254
L280.087 582.539
L280.757 582.435
L281.426 582.526
L282.096 582.306
L283.435 582.461
L284.105 582.371
L284.774 582.617
L286.114 582.332
L286.783 582.306
L287.453 582.422
L288.122 582.371
L289.462 582.5
L290.801 582.552
L291.47 582.5
L292.14 582.643
L292.81 582.656
L293.479 582.448
L294.149 582.565
L294.818 582.513
L295.488 582.617
L296.158 582.435
L296.827 582.63
L297.497 582.539
L300.845 582.643
L301.514 582.474
L302.854 582.617
L304.193 582.474
L304.862 582.604
L305.532 582.526
L306.202 582.682
L306.871 582.552
L308.21 582.552
L308.88 582.422
L309.55 582.578
L310.219 582.578
L310.889 582.461
L312.228 582.63
L312.898 582.565
L313.567 582.656
L314.237 582.513
L314.906 582.695
L316.915 582.72
L318.924 582.461
L321.602 582.539
L322.272 582.474
L324.281 582.695
L326.29 582.643
L328.298 582.772
L328.968 582.513
L330.307 582.5
L331.646 582.656
L332.316 582.643
L332.986 582.513
L333.655 582.682
L334.325 582.552
L335.664 582.746
L336.334 582.656
L337.673 582.72
L338.342 582.656
L341.021 582.837
L341.69 582.759
L342.36 582.85
L343.03 582.591
L343.699 582.759
L345.038 582.578
L347.047 582.695
L347.717 582.539
L348.386 582.526
L349.726 582.643
L350.395 582.474
L351.065 582.422
L352.404 582.656
L353.743 582.63
L354.413 582.695
L355.082 582.526
L355.752 582.669
L362.448 582.487
L363.118 582.669
L363.787 582.539
L370.483 582.591
L371.153 582.526
L371.822 582.643
L372.492 582.5
L373.162 582.643
L373.831 582.474
L375.17 582.5
L375.84 582.591
L376.51 582.552
L377.849 582.643
L378.518 582.539
L379.858 582.733
L381.197 582.526
L383.875 582.72
L384.545 582.591
L387.893 582.63
L388.562 582.772
L389.232 582.552
L389.902 582.63
L390.571 582.435
L391.91 582.708
L393.25 582.578
L395.258 582.487
L396.598 582.669
L397.937 582.539
L398.606 582.656
L399.276 582.513
L400.615 582.733
L401.285 582.682
L401.954 582.5
L402.624 582.72
L403.294 582.565
L403.963 582.539
L404.633 582.682
L405.972 582.5
L407.311 582.695
L407.981 582.552
L408.65 582.72
L409.32 582.5
L409.99 582.617
L410.659 582.461
L411.329 582.591
L415.346 582.539
L416.016 582.422
L417.355 582.591
L418.694 582.733
L419.364 582.513
L420.703 582.435
L421.373 582.358
L422.042 582.591
L422.712 582.578
L423.382 582.759
L424.051 582.513
L426.06 582.604
L426.73 582.487
L428.738 582.591
L429.408 582.772
L430.078 582.539
L431.417 582.604
L432.086 582.435
L432.756 582.487
L433.426 582.409
L434.765 582.552
L435.434 582.435
L436.774 582.487
L438.113 582.578
L438.782 582.604
L439.452 582.409
L440.122 582.733
L440.791 582.513
L441.461 582.708
L442.13 582.552
L442.8 582.656
L443.47 582.332
L444.139 580.271
L444.809 575.541
L445.478 568.4
L446.148 558.952
L447.487 534.211
L448.157 520.616
L448.826 510.196
L450.166 484.315
L451.505 460.676
L454.183 391.664
L456.192 335.055
L457.531 297.95
L458.87 266.458
L459.54 248.923
L462.888 186.365
L464.227 168.415
L464.897 156.712
L466.236 140.486
L466.906 131.738
L467.575 125.388
L468.245 122.122
L469.584 113.711
L470.254 111.197
L470.923 109.68
L471.593 104.561
L472.262 104.328
L472.932 98.5219
L474.271 91.8994
L474.941 89.9294
L475.61 89.6962
L476.28 85.0176
L476.95 85.1213
L477.619 84.5899
L478.289 82.1405
L478.958 79.056
L479.628 82.9181
L480.298 79.3152
L480.967 80.9741
L481.637 78.7579
L482.306 73.548
L482.976 75.6346
L483.646 74.2608
L485.654 71.1374
L486.324 72.252
L486.994 74.6107
L487.663 72.6019
L488.333 73.9627
L489.002 71.2022
L489.672 70.1006
L490.342 71.941
L491.011 72.5112
L491.681 70.6838
L492.35 73.3277
L493.02 73.6906
L493.69 72.3557
L494.359 75.4142
L495.029 75.0254
L495.698 74.0275
L496.368 74.0275
L497.038 74.857
L497.707 74.0275
L498.377 75.479
L499.046 75.6605
L499.716 76.4899
L500.386 81.013
L501.055 78.2654
L501.725 80.8963
L502.394 77.2546
L503.064 78.6542
L503.734 81.4795
L504.403 77.8118
L505.073 77.6304
L505.742 81.1814
L506.412 82.931
L507.082 81.7646
L507.751 84.6547
L509.09 78.8098
L509.76 84.1493
L510.43 81.4406
L511.769 88.128
L512.438 86.7931
L513.108 90.1886
L513.778 88.4261
L514.447 88.2576
L515.117 89.2555
L515.786 87.169
L516.456 88.7501
L517.126 90.6682
L517.795 91.679
L518.465 94.3099
L519.134 92.1715
L519.804 91.6013
L520.474 93.1306
L521.143 93.8434
L521.813 95.4504
L522.482 91.9123
L523.822 96.3965
L524.491 93.9211
L525.161 94.3618
L525.83 93.325
L527.17 95.3208
L527.839 98.0813
L528.509 96.5261
L529.178 100.025
L529.848 100.984
L530.518 98.0294
L531.187 99.3384
L531.857 103.563
L532.526 103.848
L533.196 104.924
L533.866 104.25
L534.535 101.723
L535.205 106.479
L535.874 104.911
L536.544 104.056
L537.214 110.069
L537.883 106.505
L538.553 109.836
L539.222 110.614
L539.892 112.83
L541.231 118.26
L541.901 117.379
L542.57 120.023
L543.24 117.716
L543.91 123.651
L544.579 125.012
L545.249 127.941
L545.918 129.082
L547.258 132.192
L547.927 132.762
L548.597 137.324
L549.266 137.726
L549.936 137.907
L550.606 139.644
L551.275 140.136
L551.945 144.647
L552.614 146.992
L553.284 145.308
L553.954 147.964
L554.623 147.692
L555.293 151.826
L555.962 151.101
L556.632 153.563
L557.302 152.993
L557.971 155.287
L558.641 156.79
L559.31 161.158
L559.98 159.875
L560.65 161.65
L561.319 162.052
L561.989 166.212
L562.658 167.314
L563.328 166.562
L563.998 167.236
L564.667 171.189
L566.006 172.588
L566.676 173.029
L567.346 175.206
L568.015 175.232
L568.685 179.25
L569.354 175.53
L570.024 182.127
L570.694 183.682
L571.363 183.669
L572.033 184.265
L573.372 187.35
L574.042 187.376
L574.711 189.294
L575.381 187.091
L576.72 191.147
L577.39 193.972
L578.059 194.918
L578.729 196.746
L579.398 197.808
L580.068 202.176
L580.738 200.647
L581.407 203.446
L582.077 204.677
L582.746 207.775
L584.086 210.898
L584.755 212.687
L585.425 208.863
L586.094 211.909
L586.764 210.432
L587.434 210.146
L588.103 213.062
L588.773 213.581
L590.112 219.141
L590.782 216.639
L591.451 217.884
L592.121 220.32
L592.79 224.376
L593.46 224.26
L594.13 224.001
L594.799 225.945
L596.138 230.649
L596.808 231.997
L597.478 232.036
L598.147 233.034
L598.817 234.239
L599.486 234.796
L600.156 235.691
L600.826 238.866
L601.495 239.073
L602.165 238.788
L602.834 237.933
L603.504 241.795
L604.174 244.542
L604.843 244.49
L605.513 243.246
L606.182 246.849
L606.852 245.268
L607.522 248.391
L608.191 248.975
L608.861 254.807
L609.53 255.403
L610.2 257.787
L610.87 258.863
L611.539 256.336
L612.209 259.835
L612.878 262.531
L613.548 262.777
L614.218 265.654
L614.887 266.198
L615.557 268.544
L616.226 271.499
L616.896 269.529
L618.235 273.482
L618.905 277.862
L620.244 279.171
L620.914 282.036
L621.583 282.23
L622.253 282.217
L622.922 289.151
L623.592 288.477
L624.262 291.211
L624.931 293.155
L625.601 293.116
L626.27 295.216
L626.94 300.167
L627.61 300.439
L628.279 300.426
L628.949 303.394
L629.618 301.631
L630.288 305.532
L630.958 307.696
L631.627 306.958
L632.297 308.357
L632.966 310.185
L633.636 311.118
L634.306 310.638
L634.975 312.414
L635.645 312.777
L636.314 314.876
L636.984 313.982
L637.654 317.598
L638.323 318.051
L638.993 316.716
L640.332 320.242
L641.002 319.632
L642.341 321.862
L643.01 324.635
L643.68 324.104
L644.35 324.544
L645.019 327.901
L645.689 330.61
L646.358 328.99
L647.028 329.871
L647.698 330.545
L648.367 330.584
L649.037 330.454
L649.706 331.284
L650.376 330.934
L651.046 330.013
L651.715 331.141
L652.385 331.439
L653.054 331.932
L653.724 333.228
L654.394 336.247
L655.063 334.796
L655.733 335.159
L656.402 337.738
L657.072 334.329
L657.742 338.697
L658.411 339.034
L659.081 337.401
L659.75 339.785
L660.42 340.524
L661.09 340.511
L661.759 339.021
L662.429 341.172
L663.098 342.675
L663.768 343.673
L664.438 345.954
L665.107 345.902
L665.777 346.097
L666.446 344.503
L667.116 346.823
L667.786 349.557
L668.455 346.654
L669.125 347.056
L669.794 348.805
L670.464 349.674
L671.134 348.028
L671.803 349.129
L672.473 351.825
L673.142 350.49
L674.482 349.713
L675.151 351.112
L675.821 350.011
L676.49 352.797
L677.16 351.475
L677.83 351.242
L678.499 351.359
L679.169 355.013
L679.838 354.041
L681.178 354.806
L681.847 356.685
L682.517 355.545
L683.186 356.685
L683.856 357.45
L684.526 359.433
L685.195 358.979
L686.534 361.079
L687.204 357.242
L687.874 362.556
L688.543 361.377
L689.213 362.543
L689.882 361.843
L690.552 362.336
L691.222 362.128
L691.891 365.226
L692.561 365.187
L693.23 364.656
L693.9 365.394
L694.57 368.09
L695.239 369.917
L695.909 367.831
L696.578 371.032
L697.248 373.339
L697.918 370.708
L698.587 371.317
L699.257 369.166
L699.926 371.589
L700.596 373.429
L701.266 371.784
L701.935 371.304
L702.605 370.332
L703.274 372.043
L703.944 372.146
L704.614 372.937
L705.283 371.861
L705.953 372.289
L706.622 374.531
L707.292 372.717
L707.962 372.898
L709.301 367.831
L709.97 368.919
L710.64 369.632
L711.31 370.812
L711.979 371.693
L712.649 370.513
L713.318 373.144
L713.988 373.507
L714.658 371.628
L715.327 371.317
L715.997 372.743
L716.666 372.341
L717.336 374.039
L718.006 374.194
L718.675 373.105
L719.345 377.032
L720.014 375.049
L720.684 376.307
L721.354 377.136
L722.023 376.786
L722.693 378.432
L723.362 377.693
L724.032 377.888
L724.702 377.512
L725.371 379.352
L726.041 379.287
L726.71 382.864
L727.38 380.156
L728.05 381.205
L728.719 383.162
L729.389 381.84
L730.058 385.897
L730.728 385.275
L731.398 384.925
L732.067 386.428
L732.737 385.456
L734.076 386.338
L734.746 389.163
L735.415 391.081
L736.085 390.731
L738.094 395.086
L738.763 395.617
L739.433 397.755
L740.102 397.652
L740.772 399.038
L741.442 398.637
L742.111 398.429
L742.781 399.414
L743.45 397.704
L744.79 400.995
L745.459 400.386
L746.129 401.501
L746.798 402.058
L747.468 402.965
L748.138 403.108
L748.807 403.924
L749.477 403.691
L750.146 403.691
L750.816 403.406
L751.486 405.972
L752.155 406.84
L752.825 405.739
L754.164 402.823
L754.834 404.961
L755.503 406.413
L756.173 404.87
L756.842 406.581
L757.512 405.998
L758.182 407.683
L758.851 409.795
L759.521 410.547
L760.19 412.154
L760.86 412.815
L761.53 412.724
L762.199 411.934
L762.869 412.232
L763.538 411.83
L764.878 414.746
L765.547 414.733
L766.217 417.299
L767.556 418.452
L768.226 417.843
L768.895 419.01
L770.234 418.336
L770.904 419.904
L771.574 416.923
L772.243 418.388
L772.913 418.232
L773.582 418.712
L774.252 419.386
L774.922 419.619
L775.591 421.278
L776.261 420.345
L776.93 421.161
L777.6 423.274
L777.6 423.274" style="fill:none;stroke:#008000;stroke-linecap:square;"/>
   </g>
   <g id="line2d_3">
    <path clip-path="url(#p7ceb695115)" d="
M108 582.928
L108.67 583.109
L110.678 583.2
L116.705 582.993
L117.374 583.096
L118.714 583.006
L124.07 583.044
L126.079 582.941
L126.749 583.044
L127.418 582.915
L132.775 582.98
L133.445 582.824
L134.114 582.967
L134.784 582.85
L135.454 583.006
L136.123 582.85
L136.793 583.044
L137.462 582.928
L140.141 583.019
L140.81 582.876
L141.48 583.07
L142.819 582.889
L143.489 583.006
L144.828 582.889
L146.837 582.941
L148.176 582.902
L148.846 583.032
L149.515 582.889
L151.524 582.967
L152.863 582.98
L154.202 582.954
L157.55 583.006
L158.89 582.876
L159.559 582.98
L162.238 583.032
L163.577 582.954
L164.916 582.902
L165.586 583.032
L172.282 583.044
L172.951 582.902
L173.621 583.032
L174.29 582.928
L175.63 582.98
L176.299 582.889
L176.969 583.057
L177.638 583.07
L178.978 582.941
L179.647 583.019
L182.326 582.941
L182.995 583.032
L185.004 583.019
L185.674 583.07
L186.343 582.902
L187.682 583.006
L191.7 583.006
L193.709 583.019
L194.378 582.876
L195.048 583.044
L199.735 583.044
L201.074 583.019
L202.414 582.928
L203.753 583.032
L208.44 582.941
L211.788 582.993
L212.458 582.98
L213.127 583.083
L213.797 582.967
L214.466 583.057
L215.806 582.876
L216.475 583.032
L218.484 582.967
L221.162 582.967
L222.502 582.85
L223.171 583.057
L225.18 583.006
L227.189 582.993
L227.858 582.889
L229.198 583.083
L229.867 582.941
L230.537 582.993
L231.206 582.928
L231.876 583.07
L234.554 582.954
L235.224 583.109
L235.894 582.967
L237.233 583.032
L237.902 582.941
L240.581 583.006
L272.722 583.032
L273.391 582.863
L274.73 582.993
L275.4 582.902
L276.07 583.019
L278.748 583.006
L279.418 583.07
L280.757 582.954
L286.783 583.044
L287.453 582.941
L289.462 582.967
L290.131 582.915
L291.47 583.135
L292.81 582.941
L294.149 583.019
L296.158 583.083
L297.497 583.122
L298.166 583.006
L300.845 583.083
L301.514 582.941
L302.184 583.032
L304.862 582.941
L305.532 583.057
L306.202 582.967
L310.219 583.044
L310.889 583.019
L311.558 583.122
L319.594 582.98
L320.933 583.07
L322.272 582.98
L328.298 583.019
L328.968 583.096
L331.646 582.993
L332.986 583.044
L355.082 583.07
L355.752 582.915
L357.091 583.07
L359.1 582.98
L359.77 583.07
L361.109 583.032
L361.778 583.109
L363.787 582.928
L364.457 583.083
L371.822 583.044
L372.492 583.135
L373.162 583.006
L377.179 583.07
L379.188 583.057
L381.197 583.096
L382.536 583.019
L383.206 583.083
L383.875 582.954
L385.214 583.07
L386.554 583.019
L387.223 583.096
L388.562 583.057
L433.426 583.019
L434.095 582.928
L434.765 583.07
L436.774 582.98
L437.443 583.057
L438.782 583.032
L440.122 583.019
L443.47 583.057
L444.139 582.319
L445.478 579.804
L448.157 568.296
L448.826 563.682
L450.166 558.343
L452.844 544.488
L453.514 539.836
L454.183 533.472
L455.522 526.293
L456.192 519.1
L456.862 515.989
L457.531 511.35
L458.87 503.133
L459.54 500.736
L460.21 495.526
L460.879 491.702
L461.549 489.836
L462.888 484.432
L463.558 483.019
L464.227 478.574
L464.897 478.094
L465.566 473.532
L466.906 472.249
L467.575 468.711
L468.245 467.247
L468.914 466.055
L469.584 465.199
L470.254 465.005
L470.923 464.94
L471.593 463.709
L472.262 460.974
L472.932 462.789
L473.602 460.274
L474.271 459.717
L474.941 460.806
L475.61 457.644
L476.28 458.071
L476.95 456.672
L477.619 458.071
L478.289 457.955
L478.958 460.417
L479.628 456.36
L480.298 456.788
L480.967 454.274
L481.637 454.455
L482.306 458.214
L482.976 454.572
L483.646 454.248
L484.315 454.404
L484.985 452.913
L485.654 456.581
L486.324 456.451
L486.994 454.637
L487.663 454.961
L488.333 454.74
L489.002 453.963
L489.672 455.129
L490.342 455.103
L491.011 456.127
L491.681 456.322
L492.35 452.55
L493.02 453.989
L494.359 455.531
L495.698 455.855
L496.368 455.635
L497.038 455.246
L497.707 457.216
L498.377 456.024
L499.716 455.09
L500.386 455.544
L501.055 456.283
L501.725 454.792
L502.394 457.255
L503.064 454.52
L503.734 457.864
L504.403 459.471
L505.073 458.084
L505.742 457.54
L506.412 457.294
L507.082 456.801
L507.751 454.131
L508.421 457.164
L509.09 458.875
L509.76 456.412
L510.43 458.123
L511.099 457.812
L511.769 458.395
L512.438 460.495
L513.108 460.572
L513.778 459.225
L514.447 461.013
L515.117 459.847
L515.786 460.65
L516.456 457.592
L517.126 459.51
L517.795 460.43
L518.465 459.16
L519.134 458.395
L519.804 459.924
L520.474 460.896
L521.143 460.806
L521.813 461
L522.482 460.793
L523.152 461.246
L523.822 460.663
L524.491 460.909
L525.161 461.467
L525.83 461.285
L527.17 459.665
L527.839 460.663
L528.509 462.607
L529.178 460.443
L530.518 463.696
L531.187 464.318
L531.857 462.594
L532.526 463.333
L533.196 462.581
L533.866 461.557
L534.535 464.707
L535.205 462.581
L535.874 463.631
L536.544 463.787
L537.214 462.711
L537.883 464.759
L538.553 463.994
L539.222 466.482
L539.892 464.784
L540.562 464.733
L541.231 465.951
L541.901 466.145
L542.57 464.875
L543.24 467.675
L543.91 467.48
L545.249 469.787
L545.918 471.057
L546.588 470.409
L547.258 470.72
L547.927 471.9
L548.597 471.031
L549.266 468.75
L549.936 473.183
L550.606 473.17
L551.275 471.744
L551.945 471.679
L552.614 472.988
L553.284 475.023
L553.954 474.077
L554.623 474.375
L555.293 473.39
L556.632 476.85
L557.302 476.954
L557.971 474.919
L558.641 477.304
L559.31 476.721
L559.98 477.032
L560.65 478.302
L561.319 478.263
L561.989 477.822
L562.658 478.872
L563.328 480.142
L563.998 478.95
L564.667 480.66
L565.337 478.989
L566.676 481.607
L567.346 480.777
L568.015 482.332
L568.685 480.972
L569.354 484.86
L570.024 483.006
L570.694 481.892
L572.033 483.706
L572.702 485.132
L573.372 484.484
L574.042 483.447
L574.711 484.263
L575.381 483.576
L576.05 485.663
L576.72 486.039
L577.39 485.339
L578.059 486.233
L578.729 485.741
L579.398 487.205
L580.068 487.257
L580.738 488.735
L581.407 489.059
L582.077 488.929
L582.746 488.346
L583.416 488.54
L584.086 490.614
L584.755 489.396
L585.425 490.847
L586.094 488.864
L586.764 491.041
L587.434 491.962
L588.103 491.301
L588.773 491.21
L589.442 490.368
L590.112 489.72
L590.782 491.586
L591.451 492.985
L592.121 492.156
L592.79 490.717
L593.46 492.415
L594.13 492.765
L594.799 493.322
L595.469 492.998
L596.138 492.972
L597.478 493.724
L598.147 496.161
L598.817 496.161
L599.486 495.189
L600.156 496.99
L600.826 497.21
L601.495 498.182
L602.165 497.12
L603.504 498.804
L604.174 496.822
L604.843 497.055
L605.513 498.364
L606.182 497.21
L606.852 499.751
L607.522 499.841
L608.191 500.93
L608.861 498.792
L609.53 501.772
L610.2 501.876
L610.87 501.072
L611.539 502.848
L612.209 502.641
L612.878 502.796
L613.548 504.805
L614.218 501.72
L614.887 504.403
L615.557 504.092
L616.226 505.181
L616.896 504.17
L617.566 505.958
L618.235 505.803
L618.905 505.064
L619.574 505.492
L620.244 508.317
L620.914 508.304
L621.583 507.345
L622.253 509.678
L622.922 507.552
L623.592 511.311
L624.262 510.274
L625.601 510.792
L626.27 511.104
L626.94 511.972
L627.61 511.92
L628.279 513.812
L628.949 513.125
L630.958 511.596
L631.627 513.475
L632.297 514.058
L632.966 513.307
L633.636 514.486
L634.975 515.989
L635.645 515.86
L636.314 515.497
L636.984 515.769
L637.654 514.369
L638.323 516.495
L638.993 516.858
L639.662 516.573
L640.332 516.676
L641.002 518.296
L641.671 516.495
L642.341 519.515
L643.01 517.143
L643.68 517.804
L644.35 519.424
L645.019 520.525
L645.689 519.657
L646.358 519.281
L647.698 520.577
L648.367 519.774
L649.037 519.968
L649.706 519.592
L650.376 519.981
L651.715 518.089
L652.385 520.15
L653.054 519.761
L653.724 520.746
L654.394 520.538
L655.063 521.575
L655.733 520.279
L656.402 521.251
L657.072 521.018
L657.742 520.966
L658.411 520.759
L659.081 521.796
L659.75 522.236
L660.42 521.731
L661.09 521.718
L661.759 522.236
L662.429 522.573
L663.098 523.752
L663.768 523.48
L664.438 522.923
L665.107 524.4
L665.777 523.325
L666.446 524.271
L667.116 522.936
L667.786 522.055
L668.455 525.243
L669.125 525.126
L669.794 523.636
L670.464 522.806
L671.134 523.791
L671.803 524.543
L672.473 523.079
L673.142 525.45
L674.482 523.921
L675.151 525.865
L675.821 525.489
L676.49 524.362
L677.16 525.995
L677.83 524.673
L678.499 525.554
L679.169 523.921
L679.838 525.865
L681.178 525.722
L681.847 525.256
L682.517 527.018
L683.186 528.431
L684.526 526.422
L685.195 526.008
L685.865 527.252
L686.534 527.939
L687.204 528.962
L687.874 526.798
L688.543 527.381
L689.213 527.459
L689.882 529.001
L690.552 528.12
L691.222 527.9
L691.891 528.379
L692.561 527.511
L693.23 529.338
L693.9 529.792
L694.57 528.535
L695.239 528.172
L695.909 529.844
L696.578 530.582
L697.248 529.403
L697.918 531.438
L698.587 530.155
L699.257 531.671
L699.926 529.26
L700.596 530.88
L701.266 530.194
L701.935 529.325
L702.605 530.712
L703.274 530.88
L703.944 530.103
L705.283 530.453
L705.953 531.865
L706.622 530.842
L707.962 530.88
L708.631 530.595
L709.301 530.116
L709.97 531.166
L710.64 530.764
L711.31 530.531
L711.979 529.299
L712.649 529.52
L713.318 528.237
L713.988 529.584
L714.658 531.282
L715.327 532.643
L715.997 529.688
L716.666 531.088
L717.336 530.064
L718.006 530.893
L719.345 531.464
L720.014 531.101
L720.684 531.425
L721.354 532.578
L722.023 531.062
L722.693 531.736
L723.362 531.567
L724.032 531.956
L724.702 533.239
L725.371 531.956
L726.041 532.034
L726.71 531.308
L727.38 533.55
L728.05 533.835
L728.719 532.189
L729.389 533.369
L730.058 531.697
L730.728 532.565
L731.398 533.161
L732.067 532.824
L732.737 534.367
L733.406 533.55
L734.076 533.965
L734.746 534.963
L735.415 534.237
L736.085 535.468
L736.754 535.235
L737.424 535.429
L738.094 535.896
L738.763 536.129
L739.433 536.518
L740.102 537.49
L740.772 536.22
L741.442 537.049
L742.111 536.855
L742.781 536.337
L743.45 537.179
L744.79 536.129
L745.459 538.462
L746.129 537.062
L746.798 537.412
L747.468 538.695
L748.138 538.449
L748.807 537.672
L750.146 539.097
L750.816 538.773
L751.486 537.827
L752.155 538.553
L753.494 537.827
L754.164 539.771
L754.834 538.008
L755.503 536.985
L756.173 539.81
L756.842 538.786
L757.512 539.032
L758.182 538.423
L758.851 538.151
L759.521 539.279
L760.19 540.73
L760.86 539.875
L761.53 540.756
L762.199 540.549
L762.869 540.665
L763.538 541.339
L764.208 540.549
L764.878 540.808
L766.217 542.272
L766.886 541.093
L767.556 540.613
L768.226 542.324
L768.895 542.026
L769.565 541.922
L770.234 542.648
L770.904 541.041
L771.574 542.687
L772.243 542.557
L772.913 542.946
L774.252 541.598
L774.922 542.415
L775.591 541.922
L776.261 543.063
L776.93 542.946
L777.6 541.78
L777.6 541.78" style="fill:none;stroke:#0000ff;stroke-linecap:square;"/>
   </g>
   <g id="patch_3">
    <path d="
M108 583.2
L777.6 583.2" style="fill:none;stroke:#000000;stroke-linecap:square;stroke-linejoin:miter;"/>
   </g>
   <g id="patch_4">
    <path d="
M777.6 583.2
L777.6 64.8" style="fill:none;stroke:#000000;stroke-linecap:square;stroke-linejoin:miter;"/>
   </g>
   <g id="patch_5">
    <path d="
M108 64.8
L777.6 64.8" style="fill:none;stroke:#000000;stroke-linecap:square;stroke-linejoin:miter;"/>
   </g>
   <g id="patch_6">
    <path d="
M108 583.2
L108 64.8" style="fill:none;stroke:#000000;stroke-linecap:square;stroke-linejoin:miter;"/>
   </g>
   <g id="matplotlib.axis_1">
    <g id="xtick_1">
     <g id="line2d_4">
      <defs>
       <path d="
M0 0
L0 -4" id="mc7db9fdffb" style="stroke:#000000;stroke-width:0.5;"/>
      </defs>
      <g>
       <use style="stroke:#000000;stroke-width:0.5;" x="108.0" xlink:href="#mc7db9fdffb" y="583.2"/>
      </g>
     </g>
     <g id="line2d_5">
      <defs>
       <path d="
M0 0
L0 4" id="m5a7d422ac3" style="stroke:#000000;stroke-width:0.5;"/>
      </defs>
      <g>
       <use style="stroke:#000000;stroke-width:0.5;" x="108.0" xlink:href="#m5a7d422ac3" y="64.8"/>
      </g>
     </g>
     <g id="text_1">
      <!-- 0 -->
      <defs>
       <path d="
M31.7812 66.4062
Q24.1719 66.4062 20.3281 58.9062
Q16.5 51.4219 16.5 36.375
Q16.5 21.3906 20.3281 13.8906
Q24.1719 6.39062 31.7812 6.39062
Q39.4531 6.39062 43.2812 13.8906
Q47.125 21.3906 47.125 36.375
Q47.125 51.4219 43.2812 58.9062
Q39.4531 66.4062 31.7812 66.4062
M31.7812 74.2188
Q44.0469 74.2188 50.5156 64.5156
Q56.9844 54.8281 56.9844 36.375
Q56.9844 17.9688 50.5156 8.26562
Q44.0469 -1.42188 31.7812 -1.42188
Q19.5312 -1.42188 13.0625 8.26562
Q6.59375 17.9688 6.59375 36.375
Q6.59375 54.8281 13.0625 64.5156
Q19.5312 74.2188 31.7812 74.2188" id="BitstreamVeraSans-Roman-30"/>
      </defs>
      <g transform="translate(104.9765625 596.318125)scale(0.12 -0.12)">
       <use xlink:href="#BitstreamVeraSans-Roman-30"/>
      </g>
     </g>
    </g>
    <g id="xtick_2">
     <g id="line2d_6">
      <g>
       <use style="stroke:#000000;stroke-width:0.5;" x="275.4" xlink:href="#mc7db9fdffb" y="583.2"/>
      </g>
     </g>
     <g id="line2d_7">
      <g>
       <use style="stroke:#000000;stroke-width:0.5;" x="275.4" xlink:href="#m5a7d422ac3" y="64.8"/>
      </g>
     </g>
     <g id="text_2">
      <!-- 50000 -->
      <defs>
       <path d="
M10.7969 72.9062
L49.5156 72.9062
L49.5156 64.5938
L19.8281 64.5938
L19.8281 46.7344
Q21.9688 47.4688 24.1094 47.8281
Q26.2656 48.1875 28.4219 48.1875
Q40.625 48.1875 47.75 41.5
Q54.8906 34.8125 54.8906 23.3906
Q54.8906 11.625 47.5625 5.09375
Q40.2344 -1.42188 26.9062 -1.42188
Q22.3125 -1.42188 17.5469 -0.640625
Q12.7969 0.140625 7.71875 1.70312
L7.71875 11.625
Q12.1094 9.23438 16.7969 8.0625
Q21.4844 6.89062 26.7031 6.89062
Q35.1562 6.89062 40.0781 11.3281
Q45.0156 15.7656 45.0156 23.3906
Q45.0156 31 40.0781 35.4375
Q35.1562 39.8906 26.7031 39.8906
Q22.75 39.8906 18.8125 39.0156
Q14.8906 38.1406 10.7969 36.2812
z
" id="BitstreamVeraSans-Roman-35"/>
      </defs>
      <g transform="translate(257.1740625 596.318125)scale(0.12 -0.12)">
       <use xlink:href="#BitstreamVeraSans-Roman-35"/>
       <use x="63.623046875" xlink:href="#BitstreamVeraSans-Roman-30"/>
       <use x="127.24609375" xlink:href="#BitstreamVeraSans-Roman-30"/>
       <use x="190.869140625" xlink:href="#BitstreamVeraSans-Roman-30"/>
       <use x="254.4921875" xlink:href="#BitstreamVeraSans-Roman-30"/>
      </g>
     </g>
    </g>
    <g id="xtick_3">
     <g id="line2d_8">
      <g>
       <use style="stroke:#000000;stroke-width:0.5;" x="442.8" xlink:href="#mc7db9fdffb" y="583.2"/>
      </g>
     </g>
     <g id="line2d_9">
      <g>
       <use style="stroke:#000000;stroke-width:0.5;" x="442.8" xlink:href="#m5a7d422ac3" y="64.8"/>
      </g>
     </g>
     <g id="text_3">
      <!-- 100000 -->
      <defs>
       <path d="
M12.4062 8.29688
L28.5156 8.29688
L28.5156 63.9219
L10.9844 60.4062
L10.9844 69.3906
L28.4219 72.9062
L38.2812 72.9062
L38.2812 8.29688
L54.3906 8.29688
L54.3906 0
L12.4062 0
z
" id="BitstreamVeraSans-Roman-31"/>
      </defs>
      <g transform="translate(420.9525 596.318125)scale(0.12 -0.12)">
       <use xlink:href="#BitstreamVeraSans-Roman-31"/>
       <use x="63.623046875" xlink:href="#BitstreamVeraSans-Roman-30"/>
       <use x="127.24609375" xlink:href="#BitstreamVeraSans-Roman-30"/>
       <use x="190.869140625" xlink:href="#BitstreamVeraSans-Roman-30"/>
       <use x="254.4921875" xlink:href="#BitstreamVeraSans-Roman-30"/>
       <use x="318.115234375" xlink:href="#BitstreamVeraSans-Roman-30"/>
      </g>
     </g>
    </g>
    <g id="xtick_4">
     <g id="line2d_10">
      <g>
       <use style="stroke:#000000;stroke-width:0.5;" x="610.2" xlink:href="#mc7db9fdffb" y="583.2"/>
      </g>
     </g>
     <g id="line2d_11">
      <g>
       <use style="stroke:#000000;stroke-width:0.5;" x="610.2" xlink:href="#m5a7d422ac3" y="64.8"/>
      </g>
     </g>
     <g id="text_4">
      <!-- 150000 -->
      <g transform="translate(588.3525 596.318125)scale(0.12 -0.12)">
       <use xlink:href="#BitstreamVeraSans-Roman-31"/>
       <use x="63.623046875" xlink:href="#BitstreamVeraSans-Roman-35"/>
       <use x="127.24609375" xlink:href="#BitstreamVeraSans-Roman-30"/>
       <use x="190.869140625" xlink:href="#BitstreamVeraSans-Roman-30"/>
       <use x="254.4921875" xlink:href="#BitstreamVeraSans-Roman-30"/>
       <use x="318.115234375" xlink:href="#BitstreamVeraSans-Roman-30"/>
      </g>
     </g>
    </g>
    <g id="xtick_5">
     <g id="line2d_12">
      <g>
       <use style="stroke:#000000;stroke-width:0.5;" x="777.6" xlink:href="#mc7db9fdffb" y="583.2"/>
      </g>
     </g>
     <g id="line2d_13">
      <g>
       <use style="stroke:#000000;stroke-width:0.5;" x="777.6" xlink:href="#m5a7d422ac3" y="64.8"/>
      </g>
     </g>
     <g id="text_5">
      <!-- 200000 -->
      <defs>
       <path d="
M19.1875 8.29688
L53.6094 8.29688
L53.6094 0
L7.32812 0
L7.32812 8.29688
Q12.9375 14.1094 22.625 23.8906
Q32.3281 33.6875 34.8125 36.5312
Q39.5469 41.8438 41.4219 45.5312
Q43.3125 49.2188 43.3125 52.7812
Q43.3125 58.5938 39.2344 62.25
Q35.1562 65.9219 28.6094 65.9219
Q23.9688 65.9219 18.8125 64.3125
Q13.6719 62.7031 7.8125 59.4219
L7.8125 69.3906
Q13.7656 71.7812 18.9375 73
Q24.125 74.2188 28.4219 74.2188
Q39.75 74.2188 46.4844 68.5469
Q53.2188 62.8906 53.2188 53.4219
Q53.2188 48.9219 51.5312 44.8906
Q49.8594 40.875 45.4062 35.4062
Q44.1875 33.9844 37.6406 27.2188
Q31.1094 20.4531 19.1875 8.29688" id="BitstreamVeraSans-Roman-32"/>
      </defs>
      <g transform="translate(755.533125 596.318125)scale(0.12 -0.12)">
       <use xlink:href="#BitstreamVeraSans-Roman-32"/>
       <use x="63.623046875" xlink:href="#BitstreamVeraSans-Roman-30"/>
       <use x="127.24609375" xlink:href="#BitstreamVeraSans-Roman-30"/>
       <use x="190.869140625" xlink:href="#BitstreamVeraSans-Roman-30"/>
       <use x="254.4921875" xlink:href="#BitstreamVeraSans-Roman-30"/>
       <use x="318.115234375" xlink:href="#BitstreamVeraSans-Roman-30"/>
      </g>
     </g>
    </g>
    <g id="text_6">
     <!-- t / ms -->
     <defs>
      <path d="
M25.3906 72.9062
L33.6875 72.9062
L8.29688 -9.28125
L0 -9.28125
z
" id="BitstreamVeraSans-Roman-2f"/>
      <path id="BitstreamVeraSans-Roman-20"/>
      <path d="
M44.2812 53.0781
L44.2812 44.5781
Q40.4844 46.5312 36.375 47.5
Q32.2812 48.4844 27.875 48.4844
Q21.1875 48.4844 17.8438 46.4375
Q14.5 44.3906 14.5 40.2812
Q14.5 37.1562 16.8906 35.375
Q19.2812 33.5938 26.5156 31.9844
L29.5938 31.2969
Q39.1562 29.25 43.1875 25.5156
Q47.2188 21.7812 47.2188 15.0938
Q47.2188 7.46875 41.1875 3.01562
Q35.1562 -1.42188 24.6094 -1.42188
Q20.2188 -1.42188 15.4531 -0.5625
Q10.6875 0.296875 5.42188 2
L5.42188 11.2812
Q10.4062 8.6875 15.2344 7.39062
Q20.0625 6.10938 24.8125 6.10938
Q31.1562 6.10938 34.5625 8.28125
Q37.9844 10.4531 37.9844 14.4062
Q37.9844 18.0625 35.5156 20.0156
Q33.0625 21.9688 24.7031 23.7812
L21.5781 24.5156
Q13.2344 26.2656 9.51562 29.9062
Q5.8125 33.5469 5.8125 39.8906
Q5.8125 47.6094 11.2812 51.7969
Q16.75 56 26.8125 56
Q31.7812 56 36.1719 55.2656
Q40.5781 54.5469 44.2812 53.0781" id="BitstreamVeraSans-Roman-73"/>
      <path d="
M18.3125 70.2188
L18.3125 54.6875
L36.8125 54.6875
L36.8125 47.7031
L18.3125 47.7031
L18.3125 18.0156
Q18.3125 11.3281 20.1406 9.42188
Q21.9688 7.51562 27.5938 7.51562
L36.8125 7.51562
L36.8125 0
L27.5938 0
Q17.1875 0 13.2344 3.875
Q9.28125 7.76562 9.28125 18.0156
L9.28125 47.7031
L2.6875 47.7031
L2.6875 54.6875
L9.28125 54.6875
L9.28125 70.2188
z
" id="BitstreamVeraSans-Roman-74"/>
      <path d="
M52 44.1875
Q55.375 50.25 60.0625 53.125
Q64.75 56 71.0938 56
Q79.6406 56 84.2812 50.0156
Q88.9219 44.0469 88.9219 33.0156
L88.9219 0
L79.8906 0
L79.8906 32.7188
Q79.8906 40.5781 77.0938 44.375
Q74.3125 48.1875 68.6094 48.1875
Q61.625 48.1875 57.5625 43.5469
Q53.5156 38.9219 53.5156 30.9062
L53.5156 0
L44.4844 0
L44.4844 32.7188
Q44.4844 40.625 41.7031 44.4062
Q38.9219 48.1875 33.1094 48.1875
Q26.2188 48.1875 22.1562 43.5312
Q18.1094 38.875 18.1094 30.9062
L18.1094 0
L9.07812 0
L9.07812 54.6875
L18.1094 54.6875
L18.1094 46.1875
Q21.1875 51.2188 25.4844 53.6094
Q29.7812 56 35.6875 56
Q41.6562 56 45.8281 52.9688
Q50 49.9531 52 44.1875" id="BitstreamVeraSans-Roman-6d"/>
     </defs>
     <g transform="translate(425.9353125 612.931875)scale(0.12 -0.12)">
      <use xlink:href="#BitstreamVeraSans-Roman-74"/>
      <use x="39.208984375" xlink:href="#BitstreamVeraSans-Roman-20"/>
      <use x="70.99609375" xlink:href="#BitstreamVeraSans-Roman-2f"/>
      <use x="104.6875" xlink:href="#BitstreamVeraSans-Roman-20"/>
      <use x="136.474609375" xlink:href="#BitstreamVeraSans-Roman-6d"/>
      <use x="233.88671875" xlink:href="#BitstreamVeraSans-Roman-73"/>
     </g>
    </g>
   </g>
   <g id="matplotlib.axis_2">
    <g id="ytick_1">
     <g id="line2d_14">
      <defs>
       <path d="
M0 0
L4 0" id="md7965d1ba0" style="stroke:#000000;stroke-width:0.5;"/>
      </defs>
      <g>
       <use style="stroke:#000000;stroke-width:0.5;" x="108.0" xlink:href="#md7965d1ba0" y="583.2"/>
      </g>
     </g>
     <g id="line2d_15">
      <defs>
       <path d="
M0 0
L-4 0" id="md9a1c1a7cd" style="stroke:#000000;stroke-width:0.5;"/>
      </defs>
      <g>
       <use style="stroke:#000000;stroke-width:0.5;" x="777.6" xlink:href="#md9a1c1a7cd" y="583.2"/>
      </g>
     </g>
     <g id="text_7">
      <!-- 0 -->
      <g transform="translate(97.953125 586.51125)scale(0.12 -0.12)">
       <use xlink:href="#BitstreamVeraSans-Roman-30"/>
      </g>
     </g>
    </g>
    <g id="ytick_2">
     <g id="line2d_16">
      <g>
       <use style="stroke:#000000;stroke-width:0.5;" x="108.0" xlink:href="#md7965d1ba0" y="518.4"/>
      </g>
     </g>
     <g id="line2d_17">
      <g>
       <use style="stroke:#000000;stroke-width:0.5;" x="777.6" xlink:href="#md9a1c1a7cd" y="518.4"/>
      </g>
     </g>
     <g id="text_8">
      <!-- 5000 -->
      <g transform="translate(75.183125 521.71125)scale(0.12 -0.12)">
       <use xlink:href="#BitstreamVeraSans-Roman-35"/>
       <use x="63.623046875" xlink:href="#BitstreamVeraSans-Roman-30"/>
       <use x="127.24609375" xlink:href="#BitstreamVeraSans-Roman-30"/>
       <use x="190.869140625" xlink:href="#BitstreamVeraSans-Roman-30"/>
      </g>
     </g>
    </g>
    <g id="ytick_3">
     <g id="line2d_18">
      <g>
       <use style="stroke:#000000;stroke-width:0.5;" x="108.0" xlink:href="#md7965d1ba0" y="453.6"/>
      </g>
     </g>
     <g id="line2d_19">
      <g>
       <use style="stroke:#000000;stroke-width:0.5;" x="777.6" xlink:href="#md9a1c1a7cd" y="453.6"/>
      </g>
     </g>
     <g id="text_9">
      <!-- 10000 -->
      <g transform="translate(67.94 456.91125)scale(0.12 -0.12)">
       <use xlink:href="#BitstreamVeraSans-Roman-31"/>
       <use x="63.623046875" xlink:href="#BitstreamVeraSans-Roman-30"/>
       <use x="127.24609375" xlink:href="#BitstreamVeraSans-Roman-30"/>
       <use x="190.869140625" xlink:href="#BitstreamVeraSans-Roman-30"/>
       <use x="254.4921875" xlink:href="#BitstreamVeraSans-Roman-30"/>
      </g>
     </g>
    </g>
    <g id="ytick_4">
     <g id="line2d_20">
      <g>
       <use style="stroke:#000000;stroke-width:0.5;" x="108.0" xlink:href="#md7965d1ba0" y="388.8"/>
      </g>
     </g>
     <g id="line2d_21">
      <g>
       <use style="stroke:#000000;stroke-width:0.5;" x="777.6" xlink:href="#md9a1c1a7cd" y="388.8"/>
      </g>
     </g>
     <g id="text_10">
      <!-- 15000 -->
      <g transform="translate(67.94 392.11125)scale(0.12 -0.12)">
       <use xlink:href="#BitstreamVeraSans-Roman-31"/>
       <use x="63.623046875" xlink:href="#BitstreamVeraSans-Roman-35"/>
       <use x="127.24609375" xlink:href="#BitstreamVeraSans-Roman-30"/>
       <use x="190.869140625" xlink:href="#BitstreamVeraSans-Roman-30"/>
       <use x="254.4921875" xlink:href="#BitstreamVeraSans-Roman-30"/>
      </g>
     </g>
    </g>
    <g id="ytick_5">
     <g id="line2d_22">
      <g>
       <use style="stroke:#000000;stroke-width:0.5;" x="108.0" xlink:href="#md7965d1ba0" y="324.0"/>
      </g>
     </g>
     <g id="line2d_23">
      <g>
       <use style="stroke:#000000;stroke-width:0.5;" x="777.6" xlink:href="#md9a1c1a7cd" y="324.0"/>
      </g>
     </g>
     <g id="text_11">
      <!-- 20000 -->
      <g transform="translate(67.50125 327.31125)scale(0.12 -0.12)">
       <use xlink:href="#BitstreamVeraSans-Roman-32"/>
       <use x="63.623046875" xlink:href="#BitstreamVeraSans-Roman-30"/>
       <use x="127.24609375" xlink:href="#BitstreamVeraSans-Roman-30"/>
       <use x="190.869140625" xlink:href="#BitstreamVeraSans-Roman-30"/>
       <use x="254.4921875" xlink:href="#BitstreamVeraSans-Roman-30"/>
      </g>
     </g>
    </g>
    <g id="ytick_6">
     <g id="line2d_24">
      <g>
       <use style="stroke:#000000;stroke-width:0.5;" x="108.0" xlink:href="#md7965d1ba0" y="259.2"/>
      </g>
     </g>
     <g id="line2d_25">
      <g>
       <use style="stroke:#000000;stroke-width:0.5;" x="777.6" xlink:href="#md9a1c1a7cd" y="259.2"/>
      </g>
     </g>
     <g id="text_12">
      <!-- 25000 -->
      <g transform="translate(67.50125 262.51125)scale(0.12 -0.12)">
       <use xlink:href="#BitstreamVeraSans-Roman-32"/>
       <use x="63.623046875" xlink:href="#BitstreamVeraSans-Roman-35"/>
       <use x="127.24609375" xlink:href="#BitstreamVeraSans-Roman-30"/>
       <use x="190.869140625" xlink:href="#BitstreamVeraSans-Roman-30"/>
       <use x="254.4921875" xlink:href="#BitstreamVeraSans-Roman-30"/>
      </g>
     </g>
    </g>
    <g id="ytick_7">
     <g id="line2d_26">
      <g>
       <use style="stroke:#000000;stroke-width:0.5;" x="108.0" xlink:href="#md7965d1ba0" y="194.4"/>
      </g>
     </g>
     <g id="line2d_27">
      <g>
       <use style="stroke:#000000;stroke-width:0.5;" x="777.6" xlink:href="#md9a1c1a7cd" y="194.4"/>
      </g>
     </g>
     <g id="text_13">
      <!-- 30000 -->
      <defs>
       <path d="
M40.5781 39.3125
Q47.6562 37.7969 51.625 33
Q55.6094 28.2188 55.6094 21.1875
Q55.6094 10.4062 48.1875 4.48438
Q40.7656 -1.42188 27.0938 -1.42188
Q22.5156 -1.42188 17.6562 -0.515625
Q12.7969 0.390625 7.625 2.20312
L7.625 11.7188
Q11.7188 9.32812 16.5938 8.10938
Q21.4844 6.89062 26.8125 6.89062
Q36.0781 6.89062 40.9375 10.5469
Q45.7969 14.2031 45.7969 21.1875
Q45.7969 27.6406 41.2812 31.2656
Q36.7656 34.9062 28.7188 34.9062
L20.2188 34.9062
L20.2188 43.0156
L29.1094 43.0156
Q36.375 43.0156 40.2344 45.9219
Q44.0938 48.8281 44.0938 54.2969
Q44.0938 59.9062 40.1094 62.9062
Q36.1406 65.9219 28.7188 65.9219
Q24.6562 65.9219 20.0156 65.0312
Q15.375 64.1562 9.8125 62.3125
L9.8125 71.0938
Q15.4375 72.6562 20.3438 73.4375
Q25.25 74.2188 29.5938 74.2188
Q40.8281 74.2188 47.3594 69.1094
Q53.9062 64.0156 53.9062 55.3281
Q53.9062 49.2656 50.4375 45.0938
Q46.9688 40.9219 40.5781 39.3125" id="BitstreamVeraSans-Roman-33"/>
      </defs>
      <g transform="translate(67.536875 197.71125)scale(0.12 -0.12)">
       <use xlink:href="#BitstreamVeraSans-Roman-33"/>
       <use x="63.623046875" xlink:href="#BitstreamVeraSans-Roman-30"/>
       <use x="127.24609375" xlink:href="#BitstreamVeraSans-Roman-30"/>
       <use x="190.869140625" xlink:href="#BitstreamVeraSans-Roman-30"/>
       <use x="254.4921875" xlink:href="#BitstreamVeraSans-Roman-30"/>
      </g>
     </g>
    </g>
    <g id="ytick_8">
     <g id="line2d_28">
      <g>
       <use style="stroke:#000000;stroke-width:0.5;" x="108.0" xlink:href="#md7965d1ba0" y="129.6"/>
      </g>
     </g>
     <g id="line2d_29">
      <g>
       <use style="stroke:#000000;stroke-width:0.5;" x="777.6" xlink:href="#md9a1c1a7cd" y="129.6"/>
      </g>
     </g>
     <g id="text_14">
      <!-- 35000 -->
      <g transform="translate(67.536875 132.91125)scale(0.12 -0.12)">
       <use xlink:href="#BitstreamVeraSans-Roman-33"/>
       <use x="63.623046875" xlink:href="#BitstreamVeraSans-Roman-35"/>
       <use x="127.24609375" xlink:href="#BitstreamVeraSans-Roman-30"/>
       <use x="190.869140625" xlink:href="#BitstreamVeraSans-Roman-30"/>
       <use x="254.4921875" xlink:href="#BitstreamVeraSans-Roman-30"/>
      </g>
     </g>
    </g>
    <g id="ytick_9">
     <g id="line2d_30">
      <g>
       <use style="stroke:#000000;stroke-width:0.5;" x="108.0" xlink:href="#md7965d1ba0" y="64.8"/>
      </g>
     </g>
     <g id="line2d_31">
      <g>
       <use style="stroke:#000000;stroke-width:0.5;" x="777.6" xlink:href="#md9a1c1a7cd" y="64.8"/>
      </g>
     </g>
     <g id="text_15">
      <!-- 40000 -->
      <defs>
       <path d="
M37.7969 64.3125
L12.8906 25.3906
L37.7969 25.3906
z

M35.2031 72.9062
L47.6094 72.9062
L47.6094 25.3906
L58.0156 25.3906
L58.0156 17.1875
L47.6094 17.1875
L47.6094 0
L37.7969 0
L37.7969 17.1875
L4.89062 17.1875
L4.89062 26.7031
z
" id="BitstreamVeraSans-Roman-34"/>
      </defs>
      <g transform="translate(67.20875 68.11125)scale(0.12 -0.12)">
       <use xlink:href="#BitstreamVeraSans-Roman-34"/>
       <use x="63.623046875" xlink:href="#BitstreamVeraSans-Roman-30"/>
       <use x="127.24609375" xlink:href="#BitstreamVeraSans-Roman-30"/>
       <use x="190.869140625" xlink:href="#BitstreamVeraSans-Roman-30"/>
       <use x="254.4921875" xlink:href="#BitstreamVeraSans-Roman-30"/>
      </g>
     </g>
    </g>
    <g id="text_16">
     <!-- particle numbers -->
     <defs>
      <path d="
M54.8906 33.0156
L54.8906 0
L45.9062 0
L45.9062 32.7188
Q45.9062 40.4844 42.875 44.3281
Q39.8438 48.1875 33.7969 48.1875
Q26.5156 48.1875 22.3125 43.5469
Q18.1094 38.9219 18.1094 30.9062
L18.1094 0
L9.07812 0
L9.07812 54.6875
L18.1094 54.6875
L18.1094 46.1875
Q21.3438 51.125 25.7031 53.5625
Q30.0781 56 35.7969 56
Q45.2188 56 50.0469 50.1719
Q54.8906 44.3438 54.8906 33.0156" id="BitstreamVeraSans-Roman-6e"/>
      <path d="
M8.5 21.5781
L8.5 54.6875
L17.4844 54.6875
L17.4844 21.9219
Q17.4844 14.1562 20.5 10.2656
Q23.5312 6.39062 29.5938 6.39062
Q36.8594 6.39062 41.0781 11.0312
Q45.3125 15.6719 45.3125 23.6875
L45.3125 54.6875
L54.2969 54.6875
L54.2969 0
L45.3125 0
L45.3125 8.40625
Q42.0469 3.42188 37.7188 1
Q33.4062 -1.42188 27.6875 -1.42188
Q18.2656 -1.42188 13.375 4.4375
Q8.5 10.2969 8.5 21.5781" id="BitstreamVeraSans-Roman-75"/>
      <path d="
M18.1094 8.20312
L18.1094 -20.7969
L9.07812 -20.7969
L9.07812 54.6875
L18.1094 54.6875
L18.1094 46.3906
Q20.9531 51.2656 25.2656 53.625
Q29.5938 56 35.5938 56
Q45.5625 56 51.7812 48.0938
Q58.0156 40.1875 58.0156 27.2969
Q58.0156 14.4062 51.7812 6.48438
Q45.5625 -1.42188 35.5938 -1.42188
Q29.5938 -1.42188 25.2656 0.953125
Q20.9531 3.32812 18.1094 8.20312
M48.6875 27.2969
Q48.6875 37.2031 44.6094 42.8438
Q40.5312 48.4844 33.4062 48.4844
Q26.2656 48.4844 22.1875 42.8438
Q18.1094 37.2031 18.1094 27.2969
Q18.1094 17.3906 22.1875 11.75
Q26.2656 6.10938 33.4062 6.10938
Q40.5312 6.10938 44.6094 11.75
Q48.6875 17.3906 48.6875 27.2969" id="BitstreamVeraSans-Roman-70"/>
      <path d="
M9.42188 75.9844
L18.4062 75.9844
L18.4062 0
L9.42188 0
z
" id="BitstreamVeraSans-Roman-6c"/>
      <path d="
M56.2031 29.5938
L56.2031 25.2031
L14.8906 25.2031
Q15.4844 15.9219 20.4844 11.0625
Q25.4844 6.20312 34.4219 6.20312
Q39.5938 6.20312 44.4531 7.46875
Q49.3125 8.73438 54.1094 11.2812
L54.1094 2.78125
Q49.2656 0.734375 44.1875 -0.34375
Q39.1094 -1.42188 33.8906 -1.42188
Q20.7969 -1.42188 13.1562 6.1875
Q5.51562 13.8125 5.51562 26.8125
Q5.51562 40.2344 12.7656 48.1094
Q20.0156 56 32.3281 56
Q43.3594 56 49.7812 48.8906
Q56.2031 41.7969 56.2031 29.5938
M47.2188 32.2344
Q47.125 39.5938 43.0938 43.9844
Q39.0625 48.3906 32.4219 48.3906
Q24.9062 48.3906 20.3906 44.1406
Q15.875 39.8906 15.1875 32.1719
z
" id="BitstreamVeraSans-Roman-65"/>
      <path d="
M48.7812 52.5938
L48.7812 44.1875
Q44.9688 46.2969 41.1406 47.3438
Q37.3125 48.3906 33.4062 48.3906
Q24.6562 48.3906 19.8125 42.8438
Q14.9844 37.3125 14.9844 27.2969
Q14.9844 17.2812 19.8125 11.7344
Q24.6562 6.20312 33.4062 6.20312
Q37.3125 6.20312 41.1406 7.25
Q44.9688 8.29688 48.7812 10.4062
L48.7812 2.09375
Q45.0156 0.34375 40.9844 -0.53125
Q36.9688 -1.42188 32.4219 -1.42188
Q20.0625 -1.42188 12.7812 6.34375
Q5.51562 14.1094 5.51562 27.2969
Q5.51562 40.6719 12.8594 48.3281
Q20.2188 56 33.0156 56
Q37.1562 56 41.1094 55.1406
Q45.0625 54.2969 48.7812 52.5938" id="BitstreamVeraSans-Roman-63"/>
      <path d="
M41.1094 46.2969
Q39.5938 47.1719 37.8125 47.5781
Q36.0312 48 33.8906 48
Q26.2656 48 22.1875 43.0469
Q18.1094 38.0938 18.1094 28.8125
L18.1094 0
L9.07812 0
L9.07812 54.6875
L18.1094 54.6875
L18.1094 46.1875
Q20.9531 51.1719 25.4844 53.5781
Q30.0312 56 36.5312 56
Q37.4531 56 38.5781 55.875
Q39.7031 55.7656 41.0625 55.5156
z
" id="BitstreamVeraSans-Roman-72"/>
      <path d="
M48.6875 27.2969
Q48.6875 37.2031 44.6094 42.8438
Q40.5312 48.4844 33.4062 48.4844
Q26.2656 48.4844 22.1875 42.8438
Q18.1094 37.2031 18.1094 27.2969
Q18.1094 17.3906 22.1875 11.75
Q26.2656 6.10938 33.4062 6.10938
Q40.5312 6.10938 44.6094 11.75
Q48.6875 17.3906 48.6875 27.2969
M18.1094 46.3906
Q20.9531 51.2656 25.2656 53.625
Q29.5938 56 35.5938 56
Q45.5625 56 51.7812 48.0938
Q58.0156 40.1875 58.0156 27.2969
Q58.0156 14.4062 51.7812 6.48438
Q45.5625 -1.42188 35.5938 -1.42188
Q29.5938 -1.42188 25.2656 0.953125
Q20.9531 3.32812 18.1094 8.20312
L18.1094 0
L9.07812 0
L9.07812 75.9844
L18.1094 75.9844
z
" id="BitstreamVeraSans-Roman-62"/>
      <path d="
M34.2812 27.4844
Q23.3906 27.4844 19.1875 25
Q14.9844 22.5156 14.9844 16.5
Q14.9844 11.7188 18.1406 8.90625
Q21.2969 6.10938 26.7031 6.10938
Q34.1875 6.10938 38.7031 11.4062
Q43.2188 16.7031 43.2188 25.4844
L43.2188 27.4844
z

M52.2031 31.2031
L52.2031 0
L43.2188 0
L43.2188 8.29688
Q40.1406 3.32812 35.5469 0.953125
Q30.9531 -1.42188 24.3125 -1.42188
Q15.9219 -1.42188 10.9531 3.29688
Q6 8.01562 6 15.9219
Q6 25.1406 12.1719 29.8281
Q18.3594 34.5156 30.6094 34.5156
L43.2188 34.5156
L43.2188 35.4062
Q43.2188 41.6094 39.1406 45
Q35.0625 48.3906 27.6875 48.3906
Q23 48.3906 18.5469 47.2656
Q14.1094 46.1406 10.0156 43.8906
L10.0156 52.2031
Q14.9375 54.1094 19.5781 55.0469
Q24.2188 56 28.6094 56
Q40.4844 56 46.3438 49.8438
Q52.2031 43.7031 52.2031 31.2031" id="BitstreamVeraSans-Roman-61"/>
      <path d="
M9.42188 54.6875
L18.4062 54.6875
L18.4062 0
L9.42188 0
z

M9.42188 75.9844
L18.4062 75.9844
L18.4062 64.5938
L9.42188 64.5938
z
" id="BitstreamVeraSans-Roman-69"/>
     </defs>
     <g transform="translate(59.713125 374.78625)rotate(-90.0)scale(0.12 -0.12)">
      <use xlink:href="#BitstreamVeraSans-Roman-70"/>
      <use x="63.4765625" xlink:href="#BitstreamVeraSans-Roman-61"/>
      <use x="124.755859375" xlink:href="#BitstreamVeraSans-Roman-72"/>
      <use x="165.869140625" xlink:href="#BitstreamVeraSans-Roman-74"/>
      <use x="205.078125" xlink:href="#BitstreamVeraSans-Roman-69"/>
      <use x="232.861328125" xlink:href="#BitstreamVeraSans-Roman-63"/>
      <use x="287.841796875" xlink:href="#BitstreamVeraSans-Roman-6c"/>
      <use x="315.625" xlink:href="#BitstreamVeraSans-Roman-65"/>
      <use x="377.1484375" xlink:href="#BitstreamVeraSans-Roman-20"/>
      <use x="408.935546875" xlink:href="#BitstreamVeraSans-Roman-6e"/>
      <use x="472.314453125" xlink:href="#BitstreamVeraSans-Roman-75"/>
      <use x="535.693359375" xlink:href="#BitstreamVeraSans-Roman-6d"/>
      <use x="633.10546875" xlink:href="#BitstreamVeraSans-Roman-62"/>
      <use x="696.58203125" xlink:href="#BitstreamVeraSans-Roman-65"/>
      <use x="758.10546875" xlink:href="#BitstreamVeraSans-Roman-72"/>
      <use x="799.21875" xlink:href="#BitstreamVeraSans-Roman-73"/>
     </g>
    </g>
   </g>
   <g id="legend_1">
    <g id="patch_7">
     <path d="
M715.312 101.224
L774.1 101.224
L774.1 68.3
L715.312 68.3
z
" style="fill:#ffffff;stroke:#000000;stroke-linejoin:miter;"/>
    </g>
    <g id="line2d_32">
     <path d="
M720.212 73.9689
L730.012 73.9689" style="fill:none;stroke:#ff0000;stroke-linecap:square;"/>
    </g>
    <g id="line2d_33"/>
    <g id="text_17">
     <!-- cAMP el.0 -->
     <defs>
      <path d="
M10.6875 12.4062
L21 12.4062
L21 0
L10.6875 0
z
" id="BitstreamVeraSans-Roman-2e"/>
      <path d="
M19.6719 64.7969
L19.6719 37.4062
L32.0781 37.4062
Q38.9688 37.4062 42.7188 40.9688
Q46.4844 44.5312 46.4844 51.125
Q46.4844 57.6719 42.7188 61.2344
Q38.9688 64.7969 32.0781 64.7969
z

M9.8125 72.9062
L32.0781 72.9062
Q44.3438 72.9062 50.6094 67.3594
Q56.8906 61.8125 56.8906 51.125
Q56.8906 40.3281 50.6094 34.8125
Q44.3438 29.2969 32.0781 29.2969
L19.6719 29.2969
L19.6719 0
L9.8125 0
z
" id="BitstreamVeraSans-Roman-50"/>
      <path d="
M34.1875 63.1875
L20.7969 26.9062
L47.6094 26.9062
z

M28.6094 72.9062
L39.7969 72.9062
L67.5781 0
L57.3281 0
L50.6875 18.7031
L17.8281 18.7031
L11.1875 0
L0.78125 0
z
" id="BitstreamVeraSans-Roman-41"/>
      <path d="
M9.8125 72.9062
L24.5156 72.9062
L43.1094 23.2969
L61.8125 72.9062
L76.5156 72.9062
L76.5156 0
L66.8906 0
L66.8906 64.0156
L48.0938 14.0156
L38.1875 14.0156
L19.3906 64.0156
L19.3906 0
L9.8125 0
z
" id="BitstreamVeraSans-Roman-4d"/>
     </defs>
     <g transform="translate(737.71203125 76.41890625)scale(0.07 -0.07)">
      <use xlink:href="#BitstreamVeraSans-Roman-63"/>
      <use x="54.98046875" xlink:href="#BitstreamVeraSans-Roman-41"/>
      <use x="123.388671875" xlink:href="#BitstreamVeraSans-Roman-4d"/>
      <use x="209.66796875" xlink:href="#BitstreamVeraSans-Roman-50"/>
      <use x="269.970703125" xlink:href="#BitstreamVeraSans-Roman-20"/>
      <use x="301.7578125" xlink:href="#BitstreamVeraSans-Roman-65"/>
      <use x="363.28125" xlink:href="#BitstreamVeraSans-Roman-6c"/>
      <use x="391.064453125" xlink:href="#BitstreamVeraSans-Roman-2e"/>
      <use x="422.8515625" xlink:href="#BitstreamVeraSans-Roman-30"/>
     </g>
    </g>
    <g id="line2d_34">
     <path d="
M720.212 84.2436
L730.012 84.2436" style="fill:none;stroke:#008000;stroke-linecap:square;"/>
    </g>
    <g id="line2d_35"/>
    <g id="text_18">
     <!-- cAMP el.1 -->
     <g transform="translate(737.71203125 86.69359375)scale(0.07 -0.07)">
      <use xlink:href="#BitstreamVeraSans-Roman-63"/>
      <use x="54.98046875" xlink:href="#BitstreamVeraSans-Roman-41"/>
      <use x="123.388671875" xlink:href="#BitstreamVeraSans-Roman-4d"/>
      <use x="209.66796875" xlink:href="#BitstreamVeraSans-Roman-50"/>
      <use x="269.970703125" xlink:href="#BitstreamVeraSans-Roman-20"/>
      <use x="301.7578125" xlink:href="#BitstreamVeraSans-Roman-65"/>
      <use x="363.28125" xlink:href="#BitstreamVeraSans-Roman-6c"/>
      <use x="391.064453125" xlink:href="#BitstreamVeraSans-Roman-2e"/>
      <use x="422.8515625" xlink:href="#BitstreamVeraSans-Roman-31"/>
     </g>
    </g>
    <g id="line2d_36">
     <path d="
M720.212 94.5183
L730.012 94.5183" style="fill:none;stroke:#0000ff;stroke-linecap:square;"/>
    </g>
    <g id="line2d_37"/>
    <g id="text_19">
     <!-- cAMP el.2 -->
     <g transform="translate(737.71203125 96.96828125)scale(0.07 -0.07)">
      <use xlink:href="#BitstreamVeraSans-Roman-63"/>
      <use x="54.98046875" xlink:href="#BitstreamVeraSans-Roman-41"/>
      <use x="123.388671875" xlink:href="#BitstreamVeraSans-Roman-4d"/>
      <use x="209.66796875" xlink:href="#BitstreamVeraSans-Roman-50"/>
      <use x="269.970703125" xlink:href="#BitstreamVeraSans-Roman-20"/>
      <use x="301.7578125" xlink:href="#BitstreamVeraSans-Roman-65"/>
      <use x="363.28125" xlink:href="#BitstreamVeraSans-Roman-6c"/>
      <use x="391.064453125" xlink:href="#BitstreamVeraSans-Roman-2e"/>
      <use x="422.8515625" xlink:href="#BitstreamVeraSans-Roman-32"/>
     </g>
    </g>
   </g>
  </g>
 </g>
 <defs>
  <clipPath id="p7ceb695115">
   <rect height="518.4" width="669.6" x="108.0" y="64.8"/>
  </clipPath>
 </defs>
</svg>
