<?xml version="1.0" encoding="utf-8" standalone="no"?>
<!DOCTYPE svg PUBLIC "-//W3C//DTD SVG 1.1//EN"
  "http://www.w3.org/Graphics/SVG/1.1/DTD/svg11.dtd">
<!-- Created with matplotlib (http://matplotlib.org/) -->
<svg height="648pt" version="1.1" viewBox="0 0 864 648" width="864pt" xmlns="http://www.w3.org/2000/svg" xmlns:xlink="http://www.w3.org/1999/xlink">
 <defs>
  <style type="text/css">
*{stroke-linecap:butt;stroke-linejoin:round;}
  </style>
 </defs>
 <g id="figure_1">
  <g id="patch_1">
   <path d="
M0 648
L864 648
L864 0
L0 0
z
" style="fill:#ffffff;"/>
  </g>
  <g id="axes_1">
   <g id="patch_2">
    <path d="
M108 583.2
L777.6 583.2
L777.6 64.8
L108 64.8
z
" style="fill:#ffffff;"/>
   </g>
   <g id="line2d_1">
    <path clip-path="url(#p7ceb695115)" d="
M108 556.706
L108.67 556.618
L109.339 556.596
L110.009 556.707
L110.678 556.474
L112.687 556.365
L114.026 556.78
L115.366 556.948
L116.035 556.759
L117.374 556.824
L118.044 556.949
L118.714 556.784
L119.383 556.834
L120.053 556.682
L120.722 556.653
L121.392 556.993
L122.062 556.864
L124.07 557.053
L124.74 556.855
L126.079 557.063
L126.749 557.022
L127.418 557.328
L128.088 557.49
L129.427 557.152
L130.766 557.392
L132.775 557.262
L133.445 556.929
L134.114 556.784
L137.462 556.629
L138.132 556.946
L140.141 557.014
L140.81 557.174
L141.48 556.994
L142.15 557.117
L142.819 557.018
L143.489 557.138
L145.498 556.789
L146.167 556.962
L149.515 556.967
L150.185 557.124
L151.524 556.963
L152.194 557.123
L153.533 556.901
L154.872 557.18
L156.211 557.045
L157.55 556.793
L160.229 556.592
L160.898 556.549
L162.907 556.899
L163.577 556.936
L164.916 557.213
L165.586 557.191
L166.255 557.355
L166.925 557.183
L168.934 557.475
L172.951 557.047
L173.621 557.267
L174.96 557.407
L176.299 557.038
L176.969 557.003
L177.638 557.141
L179.647 556.841
L180.317 556.799
L180.986 556.613
L181.656 556.719
L182.995 556.781
L183.665 556.829
L184.334 557.015
L185.004 556.954
L185.674 557.161
L186.343 556.92
L187.682 556.789
L189.022 556.653
L190.361 556.817
L191.03 556.857
L191.7 556.735
L193.039 556.851
L193.709 556.747
L194.378 556.913
L195.718 556.981
L196.387 557.071
L197.057 556.962
L197.726 557.158
L200.405 557.066
L203.083 556.783
L203.753 557.041
L204.422 557.021
L205.092 557.169
L205.762 557.163
L206.431 556.889
L207.77 556.755
L208.44 556.609
L209.11 556.307
L209.779 556.255
L210.449 556.316
L211.118 556.132
L211.788 556.372
L213.797 556.523
L214.466 556.857
L215.806 557.088
L217.814 556.944
L219.154 557.187
L219.823 557.202
L220.493 557.64
L226.519 557.254
L227.189 557.369
L229.198 557.169
L229.867 557.011
L230.537 557.124
L231.206 556.999
L232.546 557.149
L233.885 556.922
L234.554 557.074
L235.894 557.045
L236.563 557.172
L237.902 556.829
L241.92 557.427
L242.59 557.181
L243.259 557.272
L244.598 557.02
L245.268 556.971
L247.946 557.336
L248.616 557.138
L249.286 557.163
L250.625 556.946
L251.964 557.093
L253.303 556.634
L253.973 556.998
L255.312 557.214
L257.99 557.384
L259.999 557.028
L262.008 556.764
L262.678 556.675
L264.017 556.757
L265.356 556.714
L266.026 556.784
L266.695 556.528
L267.365 556.613
L268.034 556.461
L270.043 557.087
L270.713 556.935
L271.382 557.035
L272.722 556.692
L273.391 556.792
L274.73 556.688
L275.4 556.764
L276.739 556.649
L277.409 556.599
L278.078 556.361
L280.087 556.405
L281.426 556.528
L282.096 556.314
L284.105 556.43
L284.774 556.774
L285.444 556.491
L286.114 556.506
L286.783 556.808
L288.122 556.581
L288.792 556.612
L290.131 556.51
L292.14 556.414
L294.149 556.684
L294.818 556.492
L295.488 556.639
L296.158 556.49
L296.827 556.684
L299.506 556.688
L300.845 557.051
L302.184 556.705
L302.854 556.679
L303.523 556.842
L304.193 556.685
L304.862 556.929
L307.541 556.313
L308.21 556.552
L308.88 556.447
L309.55 556.724
L310.219 556.585
L310.889 556.579
L311.558 556.733
L312.898 556.64
L313.567 556.9
L314.906 556.701
L315.576 556.555
L317.585 556.71
L318.924 556.515
L319.594 556.607
L320.263 556.581
L320.933 556.405
L323.611 556.588
L324.95 556.346
L325.62 556.61
L326.959 556.322
L327.629 556.007
L328.298 556.007
L330.977 556.645
L331.646 556.59
L332.986 557.019
L333.655 556.851
L334.325 557.018
L334.994 557.067
L335.664 556.899
L336.334 556.95
L337.673 556.511
L338.342 556.878
L339.682 557.133
L340.351 556.913
L341.021 556.854
L341.69 556.975
L343.03 556.696
L344.369 556.806
L345.708 556.658
L346.378 556.78
L347.047 556.749
L348.386 556.87
L349.056 556.869
L349.726 557.096
L351.065 557.084
L352.404 557.075
L353.743 557.635
L355.082 557.653
L355.752 557.515
L356.422 557.71
L357.761 557.635
L358.43 557.474
L359.1 557.68
L359.77 557.649
L363.118 556.851
L365.126 557.13
L365.796 557.082
L366.466 557.294
L367.135 557.038
L367.805 556.951
L368.474 557.093
L372.492 556.908
L373.831 556.637
L374.501 556.729
L375.17 556.613
L375.84 556.965
L376.51 556.639
L377.849 556.577
L378.518 556.794
L379.188 556.564
L381.197 556.828
L382.536 556.63
L383.875 556.811
L384.545 556.549
L385.214 556.609
L385.884 556.39
L386.554 556.491
L389.232 556.364
L389.902 556.57
L395.258 556.248
L395.928 555.961
L396.598 555.959
L397.267 556.162
L397.937 556.051
L400.615 556.226
L401.954 555.646
L402.624 556.024
L403.294 556.207
L403.963 556.059
L404.633 556.189
L406.642 556.207
L408.65 556.451
L409.99 556.351
L411.329 556.53
L414.007 556.579
L415.346 556.682
L416.016 556.926
L416.686 556.594
L417.355 556.521
L418.694 556.758
L419.364 556.81
L420.703 556.661
L425.39 557.106
L426.73 556.74
L428.069 556.824
L428.738 557.016
L429.408 556.734
L431.417 556.644
L433.426 556.456
L434.765 556.821
L435.434 556.813
L436.774 556.486
L437.443 556.588
L438.782 556.505
L439.452 556.638
L440.122 556.578
L441.461 556.739
L442.8 556.704
L443.47 556.767
L444.139 556.71
L444.809 557.222
L445.478 557.294
L447.487 558.87
L448.157 559.131
L448.826 559.7
L449.496 560.019
L450.835 560.977
L451.505 561.263
L452.174 561.42
L453.514 562.231
L454.183 562.628
L454.853 562.839
L455.522 563.192
L456.862 564.175
L458.201 564.274
L458.87 564.685
L459.54 564.819
L460.21 564.828
L462.888 565.432
L464.227 565.87
L464.897 566.007
L466.236 565.964
L466.906 566.11
L467.575 565.96
L468.245 566.027
L469.584 566.412
L470.254 566.392
L470.923 566.134
L471.593 566.104
L472.262 566.2
L472.932 566.464
L473.602 566.293
L474.271 566.261
L474.941 566.11
L478.289 565.92
L478.958 565.806
L479.628 565.504
L480.298 565.489
L480.967 565.31
L482.976 565.137
L483.646 565.458
L484.315 565.127
L484.985 565.429
L485.654 565.208
L486.994 565.304
L488.333 565.036
L489.002 564.724
L490.342 564.688
L491.011 564.453
L492.35 564.672
L494.359 564.584
L495.698 564.746
L498.377 564.125
L499.716 563.929
L502.394 563.526
L503.064 563.369
L505.073 563.573
L505.742 563.485
L506.412 563.717
L507.751 563.502
L508.421 563.67
L509.76 563.352
L511.099 563.33
L512.438 563.352
L513.108 563.205
L513.778 563.269
L514.447 563.063
L515.117 563.162
L515.786 563.061
L517.126 563.179
L517.795 563.418
L518.465 563.292
L519.804 563.42
L522.482 563.058
L523.152 563.074
L523.822 562.864
L525.161 563.147
L526.5 563.089
L527.17 563.236
L528.509 563.133
L529.178 562.955
L529.848 562.924
L530.518 563.041
L531.857 563.085
L533.196 562.804
L533.866 563.024
L534.535 563.098
L535.874 562.771
L536.544 562.878
L537.883 562.886
L539.222 563.139
L539.892 563.021
L541.231 563.161
L545.249 562.329
L546.588 562.212
L547.258 561.881
L547.927 561.688
L550.606 562.176
L551.275 562.144
L551.945 561.951
L552.614 561.874
L556.632 562.299
L557.971 562.435
L558.641 562.175
L559.31 562.165
L559.98 562.268
L560.65 562.229
L561.989 562.308
L563.328 562.141
L563.998 561.867
L566.006 561.85
L566.676 561.955
L568.015 561.942
L570.024 562.059
L570.694 561.789
L571.363 561.76
L572.033 561.848
L573.372 561.802
L576.05 562.141
L576.72 561.973
L577.39 562.018
L578.729 561.699
L579.398 561.414
L581.407 561.784
L582.077 561.41
L582.746 561.574
L583.416 561.422
L584.086 561.557
L586.764 561.419
L587.434 561.535
L588.103 561.505
L590.112 560.961
L590.782 561.127
L591.451 560.735
L592.79 561.011
L594.13 560.694
L596.138 561.209
L596.808 560.895
L597.478 561.089
L598.147 561.128
L598.817 561.01
L600.156 561.185
L601.495 560.883
L602.834 560.899
L608.191 560.812
L608.861 560.873
L610.2 560.764
L612.209 560.817
L613.548 560.782
L614.218 560.826
L615.557 561.096
L616.226 561.227
L616.896 561.096
L618.905 561.143
L621.583 560.676
L622.253 560.514
L624.931 560.574
L625.601 560.45
L630.958 560.337
L632.297 560.18
L635.645 559.943
L636.314 560.145
L637.654 559.94
L638.323 560.346
L638.993 560.175
L639.662 560.231
L640.332 560.133
L641.671 560.32
L646.358 560.022
L647.028 559.87
L648.367 559.939
L649.037 559.674
L650.376 559.868
L651.046 559.787
L653.054 559.164
L656.402 559.731
L657.072 559.725
L657.742 560.024
L658.411 559.846
L659.081 559.806
L659.75 559.525
L660.42 559.581
L661.09 559.501
L661.759 559.841
L663.098 559.462
L664.438 559.799
L665.107 559.824
L665.777 559.606
L669.794 559.216
L670.464 559.273
L671.134 559.033
L675.151 559.285
L676.49 559.246
L677.16 559.305
L677.83 559.092
L678.499 559.258
L679.838 559.037
L680.508 558.881
L681.178 558.969
L681.847 558.911
L683.186 559.066
L683.856 558.894
L685.195 559.034
L685.865 559.063
L687.204 558.782
L687.874 558.822
L689.213 558.688
L690.552 558.43
L691.222 558.611
L692.561 558.687
L693.23 558.905
L693.9 558.599
L694.57 558.899
L695.909 558.601
L696.578 558.595
L697.918 558.348
L698.587 558.492
L699.926 558.328
L700.596 558.501
L703.274 558.583
L703.944 558.405
L704.614 558.343
L705.953 558.591
L706.622 558.639
L709.97 558.261
L711.31 558.401
L713.318 558.42
L713.988 558.282
L714.658 558.258
L715.997 558.552
L718.675 558.378
L720.684 558.396
L721.354 558.341
L722.023 558.617
L727.38 558.756
L728.05 558.692
L728.719 558.485
L729.389 558.432
L730.728 557.924
L733.406 558.295
L734.076 558.069
L734.746 558.054
L735.415 558.205
L736.085 558.158
L737.424 557.851
L738.094 558.111
L739.433 558.044
L740.102 558.266
L740.772 558.011
L741.442 558.119
L742.781 558.051
L744.12 558.063
L744.79 558.088
L745.459 557.928
L746.129 557.905
L746.798 558.155
L749.477 558.336
L751.486 558.033
L752.155 558.127
L756.842 557.736
L757.512 557.909
L758.851 557.649
L760.19 557.655
L760.86 557.877
L761.53 557.949
L762.869 557.431
L763.538 557.653
L764.208 557.661
L764.878 557.872
L765.547 557.817
L766.217 557.502
L767.556 558.064
L768.895 558.31
L770.234 558.087
L770.904 558.13
L771.574 557.809
L772.243 558.038
L773.582 557.848
L774.252 558.047
L777.6 558.005
L777.6 558.005" style="fill:none;stroke:#ff0000;stroke-linecap:square;"/>
   </g>
   <g id="line2d_2">
    <path clip-path="url(#p7ceb695115)" d="
M108 88.4241
L108.67 88.7423
L109.339 88.8628
L110.009 88.7579
L110.678 88.9529
L111.348 88.938
L114.026 88.2855
L114.696 87.9654
L115.366 87.8772
L116.035 88.1831
L117.374 88.4053
L118.044 88.2239
L120.722 89.146
L121.392 88.8382
L122.062 89.0371
L122.731 89.0384
L123.401 88.7177
L124.07 88.6425
L124.74 88.6911
L125.41 88.579
L126.079 88.706
L126.749 88.6976
L128.088 88.3276
L128.758 88.5576
L129.427 88.601
L130.766 88.441
L131.436 88.5375
L132.106 88.5136
L134.114 88.8129
L134.784 88.6477
L136.123 88.87
L136.793 88.7501
L137.462 88.8389
L138.802 88.5576
L140.81 88.4889
L141.48 88.7417
L142.819 88.682
L143.489 88.4909
L144.828 88.7948
L148.176 88.5751
L148.846 88.4429
L149.515 88.5213
L152.194 87.9044
L152.863 88.1176
L153.533 88.1902
L154.202 87.8792
L155.542 87.9854
L158.89 88.6574
L159.559 88.6192
L160.229 88.7041
L161.568 88.4274
L162.238 88.3691
L162.907 88.1507
L163.577 88.3263
L164.916 88.1889
L165.586 88.2557
L168.934 87.9336
L169.603 88.1513
L170.273 88.0237
L174.29 88.2174
L174.96 88.0308
L175.63 88.2064
L176.299 88.5349
L176.969 88.5725
L177.638 88.3179
L180.317 88.8129
L180.986 88.8726
L181.656 88.5615
L182.995 88.7877
L185.004 89.0119
L185.674 88.787
L187.682 88.7598
L189.691 88.7851
L190.361 89.0067
L191.03 88.9341
L191.7 89.3255
L192.37 89.0702
L193.039 89.0235
L193.709 89.3138
L194.378 89.2102
L195.048 88.9769
L195.718 89.0462
L196.387 88.8635
L197.057 88.8058
L197.726 88.6069
L198.396 88.6794
L199.066 88.5349
L199.735 88.6613
L200.405 88.5861
L203.083 89.078
L203.753 88.9866
L205.762 88.3995
L206.431 88.5978
L207.101 88.5311
L208.44 88.649
L209.11 89.0741
L209.779 89.0559
L211.118 89.435
L211.788 89.1881
L212.458 89.1123
L213.797 89.3002
L214.466 89.0099
L216.475 88.6419
L217.145 88.7604
L218.484 88.5181
L219.823 88.3535
L220.493 87.8176
L221.162 87.7379
L221.832 87.9161
L222.502 87.8202
L223.841 88.0373
L225.18 88.2414
L225.85 88.0101
L227.858 88.0645
L229.198 88.3418
L229.867 88.4773
L230.537 88.2667
L231.206 88.4274
L231.876 88.2732
L232.546 88.3464
L233.885 88.8129
L234.554 88.4313
L236.563 88.5589
L237.233 88.8894
L237.902 88.9354
L239.911 88.3503
L241.92 88.3529
L242.59 88.4377
L243.259 88.2395
L244.598 88.5213
L245.268 88.4092
L246.607 87.8954
L247.277 87.747
L247.946 87.9511
L248.616 88.3146
L250.625 88.6749
L251.964 88.2595
L252.634 88.6749
L253.303 88.8823
L253.973 88.6483
L255.982 88.4151
L256.651 88.2284
L260.669 88.568
L261.338 88.5648
L262.008 88.8168
L265.356 88.7391
L266.026 88.3704
L266.695 88.4831
L267.365 88.3995
L268.034 88.5738
L269.374 88.5298
L270.043 88.0813
L270.713 88.1371
L271.382 87.8837
L272.052 88.1293
L274.061 88.3224
L275.4 88.3276
L276.07 88.4578
L277.409 88.9011
L278.078 89.0546
L278.748 88.8706
L280.087 88.8227
L283.435 88.8998
L284.105 88.6574
L284.774 88.2881
L285.444 88.5045
L286.114 88.4805
L286.783 88.3347
L288.122 88.5622
L288.792 88.257
L289.462 88.4358
L290.131 88.4222
L290.801 88.811
L292.14 88.7903
L292.81 88.7831
L293.479 88.6419
L294.149 88.6296
L294.818 88.9192
L295.488 88.7015
L296.158 88.8492
L296.827 88.4183
L297.497 88.3898
L298.836 88.6931
L299.506 88.8084
L300.175 88.7371
L300.845 88.5531
L302.854 88.9153
L303.523 88.5939
L304.193 88.7948
L304.862 88.6062
L305.532 88.8738
L306.202 88.8518
L306.871 88.984
L307.541 88.9743
L308.21 88.627
L308.88 88.8557
L309.55 88.7352
L310.219 88.835
L310.889 88.8019
L311.558 88.5304
L312.228 88.4844
L312.898 88.5557
L313.567 88.2531
L315.576 88.8311
L316.246 88.7928
L316.915 88.5648
L317.585 88.6451
L318.254 88.995
L320.263 88.8713
L320.933 88.9438
L322.272 88.8602
L324.281 89.1227
L324.95 88.9095
L325.62 88.4215
L326.29 88.8103
L326.959 88.9963
L327.629 89.3274
L328.298 89.3922
L328.968 89.3339
L329.638 89.0553
L331.646 89.0294
L332.316 88.682
L332.986 88.1073
L333.655 88.3503
L336.334 88.2582
L337.003 88.4915
L337.673 88.4377
L339.682 87.7204
L340.351 88.3043
L341.021 88.4429
L341.69 88.303
L342.36 88.4909
L343.03 88.5226
L344.369 88.3535
L345.708 88.8298
L346.378 88.4384
L347.047 88.6522
L347.717 88.6658
L348.386 88.5291
L350.395 88.6088
L351.065 88.4352
L351.734 88.6794
L352.404 88.7248
L353.074 88.0813
L353.743 88.014
L354.413 87.7049
L355.082 87.6388
L355.752 87.9744
L356.422 87.9064
L357.761 88.0023
L359.77 87.675
L362.448 87.9511
L363.118 88.2109
L363.787 87.9582
L364.457 87.9887
L365.126 87.6783
L365.796 87.9654
L366.466 87.7988
L367.135 88.0088
L367.805 88.1021
L368.474 87.9731
L369.144 88.0684
L369.814 87.9751
L372.492 88.2984
L373.831 88.7378
L374.501 88.5972
L375.17 88.6237
L375.84 88.1513
L376.51 88.6386
L377.179 88.5725
L377.849 88.8875
L378.518 88.7715
L379.188 88.9477
L379.858 88.6918
L381.866 88.5544
L382.536 88.6989
L383.875 88.3827
L384.545 88.6146
L385.214 88.485
L385.884 88.8615
L386.554 88.7034
L387.223 88.7786
L387.893 88.6995
L389.232 88.8421
L389.902 88.6866
L391.241 88.6036
L391.91 88.4838
L392.58 88.8959
L393.25 88.9672
L393.919 88.8129
L395.258 88.9853
L395.928 89.0734
L397.267 88.8278
L398.606 88.9335
L399.276 88.7838
L399.946 88.9101
L400.615 88.914
L401.954 89.5737
L402.624 89.1052
L403.294 89.0423
L403.963 89.2445
L404.633 89.3281
L405.302 89.0657
L405.972 88.9905
L406.642 89.2017
L407.981 89.0728
L409.99 89.3138
L410.659 89.0948
L411.329 89.0942
L412.668 88.7974
L413.338 88.5706
L415.346 88.4306
L416.016 88.1274
L416.686 88.5965
L417.355 88.8058
L419.364 88.244
L420.034 88.5239
L420.703 88.5939
L421.373 88.395
L422.042 88.6257
L422.712 88.4967
L423.382 88.5842
L425.39 88.1604
L426.06 88.5583
L426.73 88.8045
L428.069 88.4805
L428.738 88.4552
L429.408 88.6172
L430.078 88.3859
L430.747 88.3159
L431.417 88.5382
L432.086 88.6211
L432.756 88.4922
L433.426 88.8013
L434.765 88.3613
L435.434 88.2401
L436.104 88.465
L438.782 88.5537
L439.452 88.3827
L440.122 88.6613
L440.791 88.6671
L441.461 88.301
L442.13 88.4799
L442.8 88.323
L444.809 88.4669
L445.478 89.0242
L446.148 89.1207
L446.818 88.9471
L447.487 88.986
L448.826 89.7804
L449.496 90.2742
L450.835 90.8373
L452.174 91.7335
L454.183 93.0068
L454.853 93.6807
L455.522 94.1194
L456.862 94.77
L458.201 96.309
L458.87 96.6414
L460.879 98.7241
L461.549 99.1531
L462.218 99.3203
L463.558 100.007
L464.227 100.635
L465.566 101.279
L466.236 101.575
L466.906 101.458
L467.575 101.753
L468.914 101.989
L470.254 102.148
L470.923 102.624
L472.262 102.669
L472.932 102.428
L474.271 102.598
L475.61 102.702
L476.28 102.448
L477.619 102.317
L479.628 102.503
L480.298 102.174
L482.306 101.835
L484.315 101.385
L484.985 100.959
L485.654 101.137
L486.324 100.677
L486.994 100.44
L487.663 100.476
L488.333 100.385
L489.002 100.438
L489.672 100.375
L490.342 100.04
L491.011 99.897
L491.681 99.9676
L492.35 99.6916
L493.02 99.6475
L495.029 99.1848
L495.698 98.8705
L496.368 98.7669
L497.038 98.8667
L497.707 98.6956
L499.046 98.7902
L499.716 98.7442
L500.386 98.5096
L501.055 98.4306
L503.734 98.6211
L504.403 98.3379
L505.073 98.2407
L505.742 98.3457
L506.412 97.905
L507.082 98.0729
L507.751 97.9938
L508.421 97.6575
L509.09 97.6679
L509.76 97.8026
L510.43 98.1351
L511.769 97.9536
L513.108 98.1279
L513.778 97.9407
L515.117 97.9497
L516.456 98.0871
L517.126 97.8798
L517.795 97.5363
L518.465 97.6368
L519.804 97.5681
L521.143 97.916
L521.813 97.9944
L523.152 97.6646
L523.822 97.7119
L527.839 97.281
L528.509 97.373
L529.178 97.5784
L529.848 97.4877
L530.518 97.2168
L531.187 97.2512
L531.857 96.9343
L533.196 96.9531
L533.866 96.5799
L535.205 96.7412
L535.874 96.8054
L536.544 96.5838
L537.214 96.6155
L537.883 96.8514
L538.553 96.5857
L539.222 96.6635
L541.231 96.5086
L541.901 96.7684
L542.57 96.8287
L543.24 96.7276
L544.579 97.0237
L545.249 97.0866
L545.918 96.8313
L546.588 96.8572
L547.258 97.0406
L550.606 96.7944
L551.275 96.5799
L551.945 96.6641
L553.954 96.3654
L555.293 95.9312
L556.632 95.5418
L557.302 95.6863
L557.971 95.6215
L558.641 95.8729
L559.31 95.9364
L559.98 96.1412
L560.65 96.2254
L561.319 95.9273
L561.989 96.099
L562.658 96.0679
L563.328 96.1548
L563.998 96.6116
L566.676 96.5015
L567.346 96.6324
L568.015 96.4548
L568.685 96.6174
L570.024 96.2436
L570.694 96.4768
L571.363 96.5591
L572.033 96.3582
L573.372 96.6589
L574.711 96.0809
L575.381 96.2351
L576.05 95.9694
L579.398 96.4542
L580.068 96.3446
L580.738 96.4224
L581.407 96.1399
L582.077 96.4049
L582.746 96.0142
L583.416 96.134
L584.755 95.6986
L586.764 95.7258
L587.434 95.3888
L588.103 95.3098
L588.773 95.3707
L589.442 95.5683
L590.782 95.4485
L591.451 95.7219
L592.121 95.7537
L592.79 95.4984
L593.46 95.4737
L594.13 95.5936
L594.799 95.3117
L595.469 95.4102
L596.138 94.9054
L596.808 95.2074
L599.486 95.1219
L600.156 95.0169
L601.495 95.4971
L602.834 95.4212
L604.174 95.5657
L604.843 95.4426
L605.513 95.5541
L606.182 95.3785
L606.852 95.3739
L607.522 95.637
L608.861 95.4647
L610.87 95.396
L611.539 95.694
L613.548 95.5295
L614.887 95.1413
L616.226 94.4382
L616.896 94.641
L617.566 94.2561
L620.244 94.5004
L620.914 94.271
L621.583 94.6767
L622.922 94.5335
L624.262 94.7752
L626.94 94.4428
L627.61 94.4778
L628.279 94.6423
L628.949 94.6436
L630.288 94.9035
L630.958 94.7447
L632.297 94.9229
L632.966 95.1504
L634.306 94.7305
L634.975 94.8847
L635.645 94.8685
L636.314 94.551
L636.984 94.4965
L637.654 94.827
L638.323 94.3371
L638.993 94.6015
L639.662 94.5607
L641.002 94.2587
L641.671 94.1278
L642.341 93.8395
L643.68 93.7999
L644.35 93.6023
L645.019 93.7611
L648.367 93.7844
L649.037 94.2574
L650.376 93.8492
L651.046 94.0922
L651.715 93.914
L653.054 94.0915
L653.724 93.9308
L654.394 93.4312
L655.063 93.6807
L655.733 93.6833
L657.072 93.2802
L657.742 93.2407
L659.75 93.855
L660.42 93.7604
L661.09 93.8453
L661.759 93.4001
L662.429 93.6179
L663.098 93.568
L663.768 93.3463
L665.107 93.2284
L665.777 93.5595
L666.446 93.5258
L667.116 93.3749
L669.125 93.5693
L669.794 93.6315
L670.464 93.3638
L672.473 93.207
L673.142 93.371
L673.812 93.2738
L674.482 92.9796
L677.16 92.5642
L677.83 92.8299
L678.499 92.6329
L679.169 92.6575
L679.838 92.9057
L680.508 93.0178
L681.847 92.8007
L682.517 93.0476
L683.856 92.8565
L684.526 92.5623
L685.865 92.3173
L686.534 92.6361
L689.213 93.0748
L689.882 92.8636
L690.552 93.0625
L691.222 92.7482
L693.23 92.6627
L693.9 93.012
L694.57 92.4625
L695.909 92.953
L697.918 92.9096
L698.587 92.7683
L699.257 92.7819
L700.596 92.4216
L701.266 92.4404
L701.935 92.2162
L704.614 92.2279
L705.283 91.7711
L705.953 91.5728
L706.622 91.5916
L707.292 91.8579
L709.301 92.2486
L709.97 92.2843
L711.31 91.8922
L711.979 91.9298
L712.649 92.0834
L713.988 91.9525
L714.658 92.0277
L715.327 91.6829
L715.997 91.5598
L717.336 91.5643
L718.006 91.8922
L721.354 91.7918
L722.023 91.3777
L723.362 91.2611
L724.032 91.438
L725.371 91.0077
L727.38 90.8626
L728.719 91.0388
L730.058 91.6045
L730.728 91.6823
L731.398 91.6317
L732.737 91.2838
L733.406 91.0945
L734.746 91.2462
L736.085 91.0596
L736.754 91.1924
L737.424 91.1691
L738.094 90.6811
L738.763 90.5217
L739.433 90.8801
L740.102 90.6915
L740.772 91.1347
L742.111 91.1762
L742.781 91.3136
L744.79 90.9591
L745.459 91.0809
L746.129 91.0608
L746.798 90.6474
L747.468 90.5509
L748.138 90.8042
L749.477 90.4919
L750.816 90.5859
L751.486 90.6973
L752.155 90.6662
L752.825 90.9701
L754.164 91.1289
L754.834 90.9675
L756.842 91.2378
L757.512 90.9798
L758.851 91.0783
L759.521 91.0907
L760.19 90.7634
L761.53 90.4692
L762.869 90.8768
L763.538 90.7232
L764.208 90.9546
L764.878 90.4122
L766.217 90.9837
L767.556 90.4271
L768.226 90.3545
L768.895 90.1621
L770.234 90.6209
L770.904 90.4653
L771.574 90.5535
L772.913 90.3675
L773.582 90.3785
L774.252 89.7519
L775.591 89.9865
L777.6 90.0299
L777.6 90.0299" style="fill:none;stroke:#008000;stroke-linecap:square;"/>
   </g>
   <g id="line2d_3">
    <path clip-path="url(#p7ceb695115)" d="
M108 556.707
L108.67 556.471
L110.009 556.357
L111.348 556.446
L112.018 556.583
L112.687 556.856
L114.026 556.832
L114.696 557.047
L115.366 557.13
L117.374 556.792
L118.714 556.867
L121.392 556.337
L122.731 556.224
L124.74 556.667
L125.41 556.641
L126.079 556.462
L126.749 556.532
L128.088 556.475
L128.758 556.453
L129.427 556.583
L131.436 556.478
L132.106 556.693
L132.775 556.519
L133.445 556.872
L134.114 556.837
L134.784 557.045
L135.454 557.062
L136.123 556.95
L137.462 557.014
L138.132 556.865
L139.471 557.09
L140.141 556.91
L142.15 556.697
L143.489 556.902
L146.167 556.918
L146.837 556.778
L148.846 557.133
L150.185 557.096
L150.854 557.36
L151.524 557.425
L152.194 557.605
L152.863 557.479
L154.872 557.581
L157.55 557.415
L160.229 557.34
L160.898 557.564
L162.907 557.588
L163.577 557.379
L166.255 557.142
L166.925 557.365
L168.264 557.384
L169.603 557.094
L170.273 557.292
L170.942 557.249
L171.612 557.39
L172.282 557.343
L172.951 557.409
L173.621 557.078
L176.299 557.087
L176.969 557.091
L177.638 557.207
L178.308 557.191
L179.647 557.035
L180.317 557.038
L181.656 557.378
L185.004 556.703
L185.674 556.714
L186.343 556.991
L189.022 557.168
L189.691 557.096
L190.361 556.828
L191.03 556.841
L191.7 556.569
L192.37 556.746
L193.039 556.728
L193.709 556.53
L194.378 556.453
L195.048 556.694
L195.718 556.541
L197.726 556.792
L198.396 556.721
L199.066 556.924
L199.735 556.796
L200.405 556.896
L203.083 556.668
L203.753 556.506
L204.422 556.764
L208.44 557.27
L209.11 557.145
L209.779 557.211
L210.449 556.979
L213.127 556.836
L214.466 556.653
L215.806 556.661
L216.475 556.835
L217.145 556.828
L217.814 556.953
L218.484 556.872
L223.171 557.148
L223.841 556.945
L225.18 556.896
L225.85 557.128
L226.519 557.191
L227.189 557.016
L228.528 557.032
L229.198 556.915
L231.876 557.074
L233.885 556.656
L234.554 556.868
L235.224 556.904
L237.233 556.523
L239.911 556.796
L241.92 556.549
L243.259 556.817
L243.929 556.865
L244.598 556.791
L246.607 557.189
L247.277 557.196
L249.286 556.754
L249.955 556.858
L250.625 556.689
L251.964 556.954
L252.634 556.769
L253.303 556.775
L254.642 556.56
L255.982 556.602
L256.651 556.741
L257.99 556.485
L261.338 556.845
L262.008 556.681
L262.678 556.791
L264.686 556.727
L265.356 556.799
L266.026 557.101
L266.695 557.247
L268.034 557.204
L269.374 556.972
L271.382 557.324
L272.052 557.228
L272.722 557.358
L274.061 557.174
L274.73 557.272
L277.409 556.726
L280.087 556.993
L280.757 556.9
L281.426 556.95
L282.096 557.147
L283.435 556.881
L284.105 557.12
L286.114 557.211
L286.783 557.058
L288.122 557.056
L288.792 557.326
L289.462 557.241
L290.131 557.27
L290.801 556.935
L294.149 556.869
L294.818 556.772
L297.497 557.092
L298.166 556.813
L298.836 556.677
L299.506 556.682
L300.175 556.515
L302.184 556.731
L302.854 556.599
L303.523 556.753
L306.202 556.667
L306.871 556.702
L308.21 556.999
L309.55 556.718
L311.558 556.9
L312.228 557.039
L315.576 556.778
L316.246 556.74
L316.915 556.968
L318.254 556.576
L319.594 556.752
L320.263 556.706
L321.602 556.844
L324.281 556.594
L325.62 557.108
L326.29 556.825
L327.629 556.804
L330.977 556.456
L331.646 556.477
L332.316 556.623
L332.986 556.981
L335.664 556.77
L337.673 557.126
L338.342 556.981
L339.012 557.193
L339.682 557.202
L340.351 556.832
L342.36 556.691
L343.03 556.807
L345.038 556.738
L345.708 556.524
L346.378 556.788
L347.717 556.497
L348.386 556.6
L349.056 556.547
L350.395 556.239
L351.065 556.458
L351.734 556.218
L352.404 556.175
L353.074 556.532
L353.743 556.319
L354.413 556.561
L355.082 556.67
L356.422 556.336
L357.091 556.252
L357.761 556.308
L358.43 556.574
L359.1 556.519
L362.448 556.895
L363.118 556.873
L363.787 556.996
L364.457 556.929
L365.126 557.121
L365.796 556.879
L367.135 556.876
L371.153 556.856
L372.492 556.704
L373.831 556.536
L375.17 556.673
L375.84 556.793
L376.51 556.631
L377.179 556.704
L377.849 556.441
L378.518 556.339
L385.214 556.794
L385.884 556.635
L387.893 556.705
L390.571 556.685
L391.91 556.858
L392.58 556.602
L393.25 556.579
L393.919 556.72
L395.258 556.633
L396.598 556.978
L397.267 556.873
L399.276 556.903
L401.954 556.632
L402.624 556.721
L404.633 556.331
L405.302 556.605
L405.972 556.635
L406.642 556.44
L407.981 556.37
L408.65 556.252
L411.998 556.342
L412.668 556.598
L414.007 556.724
L415.346 556.725
L416.016 556.786
L417.355 556.513
L418.025 556.524
L419.364 556.787
L420.034 556.601
L420.703 556.585
L421.373 556.713
L422.042 556.423
L422.712 556.45
L423.382 556.286
L424.721 556.485
L425.39 556.577
L426.06 556.339
L426.73 556.296
L428.069 556.533
L428.738 556.369
L430.747 556.765
L432.086 556.635
L432.756 556.756
L433.426 556.577
L434.765 556.651
L435.434 556.778
L439.452 556.806
L440.122 556.585
L440.791 556.484
L441.461 556.789
L442.13 556.678
L442.8 556.805
L443.47 556.7
L444.139 556.958
L445.478 557.215
L446.148 557.569
L448.157 559.375
L449.496 559.999
L453.514 563.143
L455.522 563.978
L456.862 564.557
L458.201 564.929
L458.87 565.147
L460.879 565.379
L462.218 565.964
L463.558 566
L464.227 565.769
L466.236 566.052
L466.906 566.345
L467.575 566.458
L468.914 566.342
L470.254 566.495
L470.923 566.364
L471.593 566.411
L472.262 566.28
L477.619 566.22
L478.958 565.758
L479.628 565.794
L480.967 566.003
L481.637 565.876
L482.976 565.953
L483.646 565.633
L484.315 565.686
L485.654 565.405
L486.994 565.481
L487.663 565.313
L489.672 565.137
L491.011 565.376
L491.681 564.923
L497.707 564.63
L498.377 564.652
L499.716 564.385
L501.055 564.571
L502.394 564.352
L503.064 564.382
L503.734 564.238
L504.403 564.356
L505.742 564.092
L506.412 564.159
L507.082 564.019
L509.09 564.316
L509.76 564.175
L510.43 563.728
L511.769 563.717
L512.438 563.584
L514.447 563.801
L515.117 563.588
L516.456 563.414
L518.465 563.65
L519.134 563.5
L519.804 563.492
L521.813 563.176
L522.482 563.348
L523.822 563.443
L525.161 563.128
L525.83 563.294
L529.178 562.793
L530.518 562.852
L531.187 562.769
L531.857 562.978
L533.866 563.098
L534.535 562.92
L535.874 562.928
L537.214 562.841
L537.883 562.53
L538.553 562.538
L539.222 562.299
L539.892 562.392
L540.562 562.259
L541.231 562.285
L541.901 562.124
L542.57 562.148
L543.24 562.305
L544.579 562.041
L545.249 562.075
L545.918 562.279
L547.258 562.373
L547.927 562.516
L548.597 562.46
L549.936 562.119
L550.606 562.187
L551.275 562.388
L556.632 562.751
L557.302 562.447
L558.641 562.443
L559.31 562.378
L559.98 562.059
L560.65 561.97
L561.319 562.123
L561.989 561.866
L563.328 561.91
L563.998 561.723
L566.006 561.7
L566.676 561.446
L567.346 561.318
L568.015 561.386
L568.685 561.13
L570.694 561.182
L571.363 561.034
L572.033 561.046
L573.372 560.599
L574.711 560.907
L575.381 560.65
L577.39 560.678
L582.077 560.362
L582.746 560.595
L584.086 560.659
L584.755 560.8
L586.094 560.679
L586.764 560.67
L588.103 560.942
L590.112 561.097
L590.782 560.965
L591.451 561.079
L592.121 560.856
L594.799 561.173
L595.469 560.853
L596.138 561.216
L596.808 561.208
L598.147 560.84
L598.817 560.966
L600.156 560.85
L604.174 560.322
L604.843 560.376
L605.513 560.271
L606.852 560.359
L607.522 560.103
L609.53 560.127
L610.2 560.214
L611.539 559.674
L614.887 559.656
L616.226 559.979
L616.896 559.864
L617.566 560.127
L620.244 559.741
L620.914 559.948
L621.583 559.797
L622.253 559.981
L623.592 559.812
L624.262 559.648
L624.931 559.61
L626.27 559.8
L626.94 559.629
L627.61 559.612
L628.949 559.414
L632.297 559.251
L632.966 558.989
L633.636 559.033
L634.306 559.331
L635.645 559.274
L636.984 559.558
L637.654 559.236
L638.323 559.253
L638.993 559.1
L639.662 559.077
L640.332 559.32
L641.002 559.215
L641.671 559.26
L642.341 559.542
L643.68 559.523
L644.35 559.772
L645.689 559.68
L646.358 559.529
L647.028 559.722
L648.367 559.554
L649.037 559.311
L650.376 559.459
L651.046 559.258
L651.715 559.617
L652.385 559.772
L653.724 559.72
L654.394 559.913
L655.063 559.532
L655.733 559.423
L657.072 559.63
L657.742 559.335
L659.75 559.024
L662.429 558.952
L663.098 559.16
L663.768 559.135
L664.438 558.934
L665.107 558.943
L665.777 558.775
L667.786 558.784
L668.455 558.698
L670.464 558.881
L671.134 559.166
L672.473 559.088
L673.142 558.814
L677.83 558.991
L679.169 558.933
L679.838 558.767
L681.178 558.708
L681.847 558.837
L682.517 558.458
L683.186 558.423
L684.526 558.743
L685.865 558.853
L686.534 558.675
L687.874 558.477
L688.543 558.297
L689.213 558.254
L689.882 558.534
L690.552 558.443
L691.222 558.525
L691.891 558.477
L693.23 558.178
L693.9 558.092
L694.57 558.287
L695.239 558.071
L696.578 557.948
L700.596 558.333
L701.266 558.236
L701.935 558.463
L703.274 558.287
L703.944 558.468
L704.614 558.439
L705.283 558.689
L705.953 558.755
L706.622 558.652
L707.292 558.426
L708.631 558.3
L711.979 558.295
L712.649 558.08
L717.336 558.451
L718.006 558.187
L719.345 558.101
L720.014 558.058
L720.684 558.13
L721.354 558.065
L722.023 558.189
L724.702 558.221
L725.371 558.415
L726.71 558.466
L727.38 558.332
L728.719 558.403
L729.389 558.14
L732.737 558.325
L734.746 558.382
L735.415 558.271
L738.763 558.878
L739.433 558.479
L740.102 558.434
L741.442 558.072
L742.111 558.035
L742.781 557.851
L743.45 557.877
L744.12 558.05
L746.129 558.068
L747.468 558.232
L748.138 557.961
L748.807 558.116
L749.477 558.076
L750.146 558.163
L752.155 557.959
L752.825 557.677
L754.164 557.51
L754.834 557.675
L755.503 557.717
L756.842 557.589
L759.521 557.762
L760.19 558.069
L761.53 558.004
L763.538 557.962
L764.208 557.682
L764.878 557.98
L765.547 557.75
L770.904 557.388
L771.574 557.592
L772.243 557.433
L773.582 557.602
L774.252 557.995
L775.591 557.692
L776.93 557.708
L777.6 557.645
L777.6 557.645" style="fill:none;stroke:#0000ff;stroke-linecap:square;"/>
   </g>
   <g id="patch_3">
    <path d="
M108 583.2
L108 64.8" style="fill:none;stroke:#000000;stroke-linecap:square;stroke-linejoin:miter;"/>
   </g>
   <g id="patch_4">
    <path d="
M777.6 583.2
L777.6 64.8" style="fill:none;stroke:#000000;stroke-linecap:square;stroke-linejoin:miter;"/>
   </g>
   <g id="patch_5">
    <path d="
M108 64.8
L777.6 64.8" style="fill:none;stroke:#000000;stroke-linecap:square;stroke-linejoin:miter;"/>
   </g>
   <g id="patch_6">
    <path d="
M108 583.2
L777.6 583.2" style="fill:none;stroke:#000000;stroke-linecap:square;stroke-linejoin:miter;"/>
   </g>
   <g id="matplotlib.axis_1">
    <g id="xtick_1">
     <g id="line2d_4">
      <defs>
       <path d="
M0 0
L0 -4" id="mc7db9fdffb" style="stroke:#000000;stroke-width:0.5;"/>
      </defs>
      <g>
       <use style="stroke:#000000;stroke-width:0.5;" x="108.0" xlink:href="#mc7db9fdffb" y="583.2"/>
      </g>
     </g>
     <g id="line2d_5">
      <defs>
       <path d="
M0 0
L0 4" id="m5a7d422ac3" style="stroke:#000000;stroke-width:0.5;"/>
      </defs>
      <g>
       <use style="stroke:#000000;stroke-width:0.5;" x="108.0" xlink:href="#m5a7d422ac3" y="64.8"/>
      </g>
     </g>
     <g id="text_1">
      <!-- 0 -->
      <defs>
       <path d="
M31.7812 66.4062
Q24.1719 66.4062 20.3281 58.9062
Q16.5 51.4219 16.5 36.375
Q16.5 21.3906 20.3281 13.8906
Q24.1719 6.39062 31.7812 6.39062
Q39.4531 6.39062 43.2812 13.8906
Q47.125 21.3906 47.125 36.375
Q47.125 51.4219 43.2812 58.9062
Q39.4531 66.4062 31.7812 66.4062
M31.7812 74.2188
Q44.0469 74.2188 50.5156 64.5156
Q56.9844 54.8281 56.9844 36.375
Q56.9844 17.9688 50.5156 8.26562
Q44.0469 -1.42188 31.7812 -1.42188
Q19.5312 -1.42188 13.0625 8.26562
Q6.59375 17.9688 6.59375 36.375
Q6.59375 54.8281 13.0625 64.5156
Q19.5312 74.2188 31.7812 74.2188" id="BitstreamVeraSans-Roman-30"/>
      </defs>
      <g transform="translate(104.9765625 596.318125)scale(0.12 -0.12)">
       <use xlink:href="#BitstreamVeraSans-Roman-30"/>
      </g>
     </g>
    </g>
    <g id="xtick_2">
     <g id="line2d_6">
      <g>
       <use style="stroke:#000000;stroke-width:0.5;" x="275.4" xlink:href="#mc7db9fdffb" y="583.2"/>
      </g>
     </g>
     <g id="line2d_7">
      <g>
       <use style="stroke:#000000;stroke-width:0.5;" x="275.4" xlink:href="#m5a7d422ac3" y="64.8"/>
      </g>
     </g>
     <g id="text_2">
      <!-- 50000 -->
      <defs>
       <path d="
M10.7969 72.9062
L49.5156 72.9062
L49.5156 64.5938
L19.8281 64.5938
L19.8281 46.7344
Q21.9688 47.4688 24.1094 47.8281
Q26.2656 48.1875 28.4219 48.1875
Q40.625 48.1875 47.75 41.5
Q54.8906 34.8125 54.8906 23.3906
Q54.8906 11.625 47.5625 5.09375
Q40.2344 -1.42188 26.9062 -1.42188
Q22.3125 -1.42188 17.5469 -0.640625
Q12.7969 0.140625 7.71875 1.70312
L7.71875 11.625
Q12.1094 9.23438 16.7969 8.0625
Q21.4844 6.89062 26.7031 6.89062
Q35.1562 6.89062 40.0781 11.3281
Q45.0156 15.7656 45.0156 23.3906
Q45.0156 31 40.0781 35.4375
Q35.1562 39.8906 26.7031 39.8906
Q22.75 39.8906 18.8125 39.0156
Q14.8906 38.1406 10.7969 36.2812
z
" id="BitstreamVeraSans-Roman-35"/>
      </defs>
      <g transform="translate(257.1740625 596.318125)scale(0.12 -0.12)">
       <use xlink:href="#BitstreamVeraSans-Roman-35"/>
       <use x="63.623046875" xlink:href="#BitstreamVeraSans-Roman-30"/>
       <use x="127.24609375" xlink:href="#BitstreamVeraSans-Roman-30"/>
       <use x="190.869140625" xlink:href="#BitstreamVeraSans-Roman-30"/>
       <use x="254.4921875" xlink:href="#BitstreamVeraSans-Roman-30"/>
      </g>
     </g>
    </g>
    <g id="xtick_3">
     <g id="line2d_8">
      <g>
       <use style="stroke:#000000;stroke-width:0.5;" x="442.8" xlink:href="#mc7db9fdffb" y="583.2"/>
      </g>
     </g>
     <g id="line2d_9">
      <g>
       <use style="stroke:#000000;stroke-width:0.5;" x="442.8" xlink:href="#m5a7d422ac3" y="64.8"/>
      </g>
     </g>
     <g id="text_3">
      <!-- 100000 -->
      <defs>
       <path d="
M12.4062 8.29688
L28.5156 8.29688
L28.5156 63.9219
L10.9844 60.4062
L10.9844 69.3906
L28.4219 72.9062
L38.2812 72.9062
L38.2812 8.29688
L54.3906 8.29688
L54.3906 0
L12.4062 0
z
" id="BitstreamVeraSans-Roman-31"/>
      </defs>
      <g transform="translate(420.9525 596.318125)scale(0.12 -0.12)">
       <use xlink:href="#BitstreamVeraSans-Roman-31"/>
       <use x="63.623046875" xlink:href="#BitstreamVeraSans-Roman-30"/>
       <use x="127.24609375" xlink:href="#BitstreamVeraSans-Roman-30"/>
       <use x="190.869140625" xlink:href="#BitstreamVeraSans-Roman-30"/>
       <use x="254.4921875" xlink:href="#BitstreamVeraSans-Roman-30"/>
       <use x="318.115234375" xlink:href="#BitstreamVeraSans-Roman-30"/>
      </g>
     </g>
    </g>
    <g id="xtick_4">
     <g id="line2d_10">
      <g>
       <use style="stroke:#000000;stroke-width:0.5;" x="610.2" xlink:href="#mc7db9fdffb" y="583.2"/>
      </g>
     </g>
     <g id="line2d_11">
      <g>
       <use style="stroke:#000000;stroke-width:0.5;" x="610.2" xlink:href="#m5a7d422ac3" y="64.8"/>
      </g>
     </g>
     <g id="text_4">
      <!-- 150000 -->
      <g transform="translate(588.3525 596.318125)scale(0.12 -0.12)">
       <use xlink:href="#BitstreamVeraSans-Roman-31"/>
       <use x="63.623046875" xlink:href="#BitstreamVeraSans-Roman-35"/>
       <use x="127.24609375" xlink:href="#BitstreamVeraSans-Roman-30"/>
       <use x="190.869140625" xlink:href="#BitstreamVeraSans-Roman-30"/>
       <use x="254.4921875" xlink:href="#BitstreamVeraSans-Roman-30"/>
       <use x="318.115234375" xlink:href="#BitstreamVeraSans-Roman-30"/>
      </g>
     </g>
    </g>
    <g id="xtick_5">
     <g id="line2d_12">
      <g>
       <use style="stroke:#000000;stroke-width:0.5;" x="777.6" xlink:href="#mc7db9fdffb" y="583.2"/>
      </g>
     </g>
     <g id="line2d_13">
      <g>
       <use style="stroke:#000000;stroke-width:0.5;" x="777.6" xlink:href="#m5a7d422ac3" y="64.8"/>
      </g>
     </g>
     <g id="text_5">
      <!-- 200000 -->
      <defs>
       <path d="
M19.1875 8.29688
L53.6094 8.29688
L53.6094 0
L7.32812 0
L7.32812 8.29688
Q12.9375 14.1094 22.625 23.8906
Q32.3281 33.6875 34.8125 36.5312
Q39.5469 41.8438 41.4219 45.5312
Q43.3125 49.2188 43.3125 52.7812
Q43.3125 58.5938 39.2344 62.25
Q35.1562 65.9219 28.6094 65.9219
Q23.9688 65.9219 18.8125 64.3125
Q13.6719 62.7031 7.8125 59.4219
L7.8125 69.3906
Q13.7656 71.7812 18.9375 73
Q24.125 74.2188 28.4219 74.2188
Q39.75 74.2188 46.4844 68.5469
Q53.2188 62.8906 53.2188 53.4219
Q53.2188 48.9219 51.5312 44.8906
Q49.8594 40.875 45.4062 35.4062
Q44.1875 33.9844 37.6406 27.2188
Q31.1094 20.4531 19.1875 8.29688" id="BitstreamVeraSans-Roman-32"/>
      </defs>
      <g transform="translate(755.533125 596.318125)scale(0.12 -0.12)">
       <use xlink:href="#BitstreamVeraSans-Roman-32"/>
       <use x="63.623046875" xlink:href="#BitstreamVeraSans-Roman-30"/>
       <use x="127.24609375" xlink:href="#BitstreamVeraSans-Roman-30"/>
       <use x="190.869140625" xlink:href="#BitstreamVeraSans-Roman-30"/>
       <use x="254.4921875" xlink:href="#BitstreamVeraSans-Roman-30"/>
       <use x="318.115234375" xlink:href="#BitstreamVeraSans-Roman-30"/>
      </g>
     </g>
    </g>
    <g id="text_6">
     <!-- t / ms -->
     <defs>
      <path d="
M52 44.1875
Q55.375 50.25 60.0625 53.125
Q64.75 56 71.0938 56
Q79.6406 56 84.2812 50.0156
Q88.9219 44.0469 88.9219 33.0156
L88.9219 0
L79.8906 0
L79.8906 32.7188
Q79.8906 40.5781 77.0938 44.375
Q74.3125 48.1875 68.6094 48.1875
Q61.625 48.1875 57.5625 43.5469
Q53.5156 38.9219 53.5156 30.9062
L53.5156 0
L44.4844 0
L44.4844 32.7188
Q44.4844 40.625 41.7031 44.4062
Q38.9219 48.1875 33.1094 48.1875
Q26.2188 48.1875 22.1562 43.5312
Q18.1094 38.875 18.1094 30.9062
L18.1094 0
L9.07812 0
L9.07812 54.6875
L18.1094 54.6875
L18.1094 46.1875
Q21.1875 51.2188 25.4844 53.6094
Q29.7812 56 35.6875 56
Q41.6562 56 45.8281 52.9688
Q50 49.9531 52 44.1875" id="BitstreamVeraSans-Roman-6d"/>
      <path id="BitstreamVeraSans-Roman-20"/>
      <path d="
M25.3906 72.9062
L33.6875 72.9062
L8.29688 -9.28125
L0 -9.28125
z
" id="BitstreamVeraSans-Roman-2f"/>
      <path d="
M44.2812 53.0781
L44.2812 44.5781
Q40.4844 46.5312 36.375 47.5
Q32.2812 48.4844 27.875 48.4844
Q21.1875 48.4844 17.8438 46.4375
Q14.5 44.3906 14.5 40.2812
Q14.5 37.1562 16.8906 35.375
Q19.2812 33.5938 26.5156 31.9844
L29.5938 31.2969
Q39.1562 29.25 43.1875 25.5156
Q47.2188 21.7812 47.2188 15.0938
Q47.2188 7.46875 41.1875 3.01562
Q35.1562 -1.42188 24.6094 -1.42188
Q20.2188 -1.42188 15.4531 -0.5625
Q10.6875 0.296875 5.42188 2
L5.42188 11.2812
Q10.4062 8.6875 15.2344 7.39062
Q20.0625 6.10938 24.8125 6.10938
Q31.1562 6.10938 34.5625 8.28125
Q37.9844 10.4531 37.9844 14.4062
Q37.9844 18.0625 35.5156 20.0156
Q33.0625 21.9688 24.7031 23.7812
L21.5781 24.5156
Q13.2344 26.2656 9.51562 29.9062
Q5.8125 33.5469 5.8125 39.8906
Q5.8125 47.6094 11.2812 51.7969
Q16.75 56 26.8125 56
Q31.7812 56 36.1719 55.2656
Q40.5781 54.5469 44.2812 53.0781" id="BitstreamVeraSans-Roman-73"/>
      <path d="
M18.3125 70.2188
L18.3125 54.6875
L36.8125 54.6875
L36.8125 47.7031
L18.3125 47.7031
L18.3125 18.0156
Q18.3125 11.3281 20.1406 9.42188
Q21.9688 7.51562 27.5938 7.51562
L36.8125 7.51562
L36.8125 0
L27.5938 0
Q17.1875 0 13.2344 3.875
Q9.28125 7.76562 9.28125 18.0156
L9.28125 47.7031
L2.6875 47.7031
L2.6875 54.6875
L9.28125 54.6875
L9.28125 70.2188
z
" id="BitstreamVeraSans-Roman-74"/>
     </defs>
     <g transform="translate(425.9353125 612.931875)scale(0.12 -0.12)">
      <use xlink:href="#BitstreamVeraSans-Roman-74"/>
      <use x="39.208984375" xlink:href="#BitstreamVeraSans-Roman-20"/>
      <use x="70.99609375" xlink:href="#BitstreamVeraSans-Roman-2f"/>
      <use x="104.6875" xlink:href="#BitstreamVeraSans-Roman-20"/>
      <use x="136.474609375" xlink:href="#BitstreamVeraSans-Roman-6d"/>
      <use x="233.88671875" xlink:href="#BitstreamVeraSans-Roman-73"/>
     </g>
    </g>
   </g>
   <g id="matplotlib.axis_2">
    <g id="ytick_1">
     <g id="line2d_14">
      <defs>
       <path d="
M0 0
L4 0" id="md7965d1ba0" style="stroke:#000000;stroke-width:0.5;"/>
      </defs>
      <g>
       <use style="stroke:#000000;stroke-width:0.5;" x="108.0" xlink:href="#md7965d1ba0" y="583.2"/>
      </g>
     </g>
     <g id="line2d_15">
      <defs>
       <path d="
M0 0
L-4 0" id="md9a1c1a7cd" style="stroke:#000000;stroke-width:0.5;"/>
      </defs>
      <g>
       <use style="stroke:#000000;stroke-width:0.5;" x="777.6" xlink:href="#md9a1c1a7cd" y="583.2"/>
      </g>
     </g>
     <g id="text_7">
      <!-- 200000 -->
      <g transform="translate(59.86625 586.51125)scale(0.12 -0.12)">
       <use xlink:href="#BitstreamVeraSans-Roman-32"/>
       <use x="63.623046875" xlink:href="#BitstreamVeraSans-Roman-30"/>
       <use x="127.24609375" xlink:href="#BitstreamVeraSans-Roman-30"/>
       <use x="190.869140625" xlink:href="#BitstreamVeraSans-Roman-30"/>
       <use x="254.4921875" xlink:href="#BitstreamVeraSans-Roman-30"/>
       <use x="318.115234375" xlink:href="#BitstreamVeraSans-Roman-30"/>
      </g>
     </g>
    </g>
    <g id="ytick_2">
     <g id="line2d_16">
      <g>
       <use style="stroke:#000000;stroke-width:0.5;" x="108.0" xlink:href="#md7965d1ba0" y="518.4"/>
      </g>
     </g>
     <g id="line2d_17">
      <g>
       <use style="stroke:#000000;stroke-width:0.5;" x="777.6" xlink:href="#md9a1c1a7cd" y="518.4"/>
      </g>
     </g>
     <g id="text_8">
      <!-- 300000 -->
      <defs>
       <path d="
M40.5781 39.3125
Q47.6562 37.7969 51.625 33
Q55.6094 28.2188 55.6094 21.1875
Q55.6094 10.4062 48.1875 4.48438
Q40.7656 -1.42188 27.0938 -1.42188
Q22.5156 -1.42188 17.6562 -0.515625
Q12.7969 0.390625 7.625 2.20312
L7.625 11.7188
Q11.7188 9.32812 16.5938 8.10938
Q21.4844 6.89062 26.8125 6.89062
Q36.0781 6.89062 40.9375 10.5469
Q45.7969 14.2031 45.7969 21.1875
Q45.7969 27.6406 41.2812 31.2656
Q36.7656 34.9062 28.7188 34.9062
L20.2188 34.9062
L20.2188 43.0156
L29.1094 43.0156
Q36.375 43.0156 40.2344 45.9219
Q44.0938 48.8281 44.0938 54.2969
Q44.0938 59.9062 40.1094 62.9062
Q36.1406 65.9219 28.7188 65.9219
Q24.6562 65.9219 20.0156 65.0312
Q15.375 64.1562 9.8125 62.3125
L9.8125 71.0938
Q15.4375 72.6562 20.3438 73.4375
Q25.25 74.2188 29.5938 74.2188
Q40.8281 74.2188 47.3594 69.1094
Q53.9062 64.0156 53.9062 55.3281
Q53.9062 49.2656 50.4375 45.0938
Q46.9688 40.9219 40.5781 39.3125" id="BitstreamVeraSans-Roman-33"/>
      </defs>
      <g transform="translate(59.901875 521.71125)scale(0.12 -0.12)">
       <use xlink:href="#BitstreamVeraSans-Roman-33"/>
       <use x="63.623046875" xlink:href="#BitstreamVeraSans-Roman-30"/>
       <use x="127.24609375" xlink:href="#BitstreamVeraSans-Roman-30"/>
       <use x="190.869140625" xlink:href="#BitstreamVeraSans-Roman-30"/>
       <use x="254.4921875" xlink:href="#BitstreamVeraSans-Roman-30"/>
       <use x="318.115234375" xlink:href="#BitstreamVeraSans-Roman-30"/>
      </g>
     </g>
    </g>
    <g id="ytick_3">
     <g id="line2d_18">
      <g>
       <use style="stroke:#000000;stroke-width:0.5;" x="108.0" xlink:href="#md7965d1ba0" y="453.6"/>
      </g>
     </g>
     <g id="line2d_19">
      <g>
       <use style="stroke:#000000;stroke-width:0.5;" x="777.6" xlink:href="#md9a1c1a7cd" y="453.6"/>
      </g>
     </g>
     <g id="text_9">
      <!-- 400000 -->
      <defs>
       <path d="
M37.7969 64.3125
L12.8906 25.3906
L37.7969 25.3906
z

M35.2031 72.9062
L47.6094 72.9062
L47.6094 25.3906
L58.0156 25.3906
L58.0156 17.1875
L47.6094 17.1875
L47.6094 0
L37.7969 0
L37.7969 17.1875
L4.89062 17.1875
L4.89062 26.7031
z
" id="BitstreamVeraSans-Roman-34"/>
      </defs>
      <g transform="translate(59.57375 456.91125)scale(0.12 -0.12)">
       <use xlink:href="#BitstreamVeraSans-Roman-34"/>
       <use x="63.623046875" xlink:href="#BitstreamVeraSans-Roman-30"/>
       <use x="127.24609375" xlink:href="#BitstreamVeraSans-Roman-30"/>
       <use x="190.869140625" xlink:href="#BitstreamVeraSans-Roman-30"/>
       <use x="254.4921875" xlink:href="#BitstreamVeraSans-Roman-30"/>
       <use x="318.115234375" xlink:href="#BitstreamVeraSans-Roman-30"/>
      </g>
     </g>
    </g>
    <g id="ytick_4">
     <g id="line2d_20">
      <g>
       <use style="stroke:#000000;stroke-width:0.5;" x="108.0" xlink:href="#md7965d1ba0" y="388.8"/>
      </g>
     </g>
     <g id="line2d_21">
      <g>
       <use style="stroke:#000000;stroke-width:0.5;" x="777.6" xlink:href="#md9a1c1a7cd" y="388.8"/>
      </g>
     </g>
     <g id="text_10">
      <!-- 500000 -->
      <g transform="translate(59.913125 392.11125)scale(0.12 -0.12)">
       <use xlink:href="#BitstreamVeraSans-Roman-35"/>
       <use x="63.623046875" xlink:href="#BitstreamVeraSans-Roman-30"/>
       <use x="127.24609375" xlink:href="#BitstreamVeraSans-Roman-30"/>
       <use x="190.869140625" xlink:href="#BitstreamVeraSans-Roman-30"/>
       <use x="254.4921875" xlink:href="#BitstreamVeraSans-Roman-30"/>
       <use x="318.115234375" xlink:href="#BitstreamVeraSans-Roman-30"/>
      </g>
     </g>
    </g>
    <g id="ytick_5">
     <g id="line2d_22">
      <g>
       <use style="stroke:#000000;stroke-width:0.5;" x="108.0" xlink:href="#md7965d1ba0" y="324.0"/>
      </g>
     </g>
     <g id="line2d_23">
      <g>
       <use style="stroke:#000000;stroke-width:0.5;" x="777.6" xlink:href="#md9a1c1a7cd" y="324.0"/>
      </g>
     </g>
     <g id="text_11">
      <!-- 600000 -->
      <defs>
       <path d="
M33.0156 40.375
Q26.375 40.375 22.4844 35.8281
Q18.6094 31.2969 18.6094 23.3906
Q18.6094 15.5312 22.4844 10.9531
Q26.375 6.39062 33.0156 6.39062
Q39.6562 6.39062 43.5312 10.9531
Q47.4062 15.5312 47.4062 23.3906
Q47.4062 31.2969 43.5312 35.8281
Q39.6562 40.375 33.0156 40.375
M52.5938 71.2969
L52.5938 62.3125
Q48.875 64.0625 45.0938 64.9844
Q41.3125 65.9219 37.5938 65.9219
Q27.8281 65.9219 22.6719 59.3281
Q17.5312 52.7344 16.7969 39.4062
Q19.6719 43.6562 24.0156 45.9219
Q28.375 48.1875 33.5938 48.1875
Q44.5781 48.1875 50.9531 41.5156
Q57.3281 34.8594 57.3281 23.3906
Q57.3281 12.1562 50.6875 5.35938
Q44.0469 -1.42188 33.0156 -1.42188
Q20.3594 -1.42188 13.6719 8.26562
Q6.98438 17.9688 6.98438 36.375
Q6.98438 53.6562 15.1875 63.9375
Q23.3906 74.2188 37.2031 74.2188
Q40.9219 74.2188 44.7031 73.4844
Q48.4844 72.75 52.5938 71.2969" id="BitstreamVeraSans-Roman-36"/>
      </defs>
      <g transform="translate(59.825 327.31125)scale(0.12 -0.12)">
       <use xlink:href="#BitstreamVeraSans-Roman-36"/>
       <use x="63.623046875" xlink:href="#BitstreamVeraSans-Roman-30"/>
       <use x="127.24609375" xlink:href="#BitstreamVeraSans-Roman-30"/>
       <use x="190.869140625" xlink:href="#BitstreamVeraSans-Roman-30"/>
       <use x="254.4921875" xlink:href="#BitstreamVeraSans-Roman-30"/>
       <use x="318.115234375" xlink:href="#BitstreamVeraSans-Roman-30"/>
      </g>
     </g>
    </g>
    <g id="ytick_6">
     <g id="line2d_24">
      <g>
       <use style="stroke:#000000;stroke-width:0.5;" x="108.0" xlink:href="#md7965d1ba0" y="259.2"/>
      </g>
     </g>
     <g id="line2d_25">
      <g>
       <use style="stroke:#000000;stroke-width:0.5;" x="777.6" xlink:href="#md9a1c1a7cd" y="259.2"/>
      </g>
     </g>
     <g id="text_12">
      <!-- 700000 -->
      <defs>
       <path d="
M8.20312 72.9062
L55.0781 72.9062
L55.0781 68.7031
L28.6094 0
L18.3125 0
L43.2188 64.5938
L8.20312 64.5938
z
" id="BitstreamVeraSans-Roman-37"/>
      </defs>
      <g transform="translate(59.97125 262.51125)scale(0.12 -0.12)">
       <use xlink:href="#BitstreamVeraSans-Roman-37"/>
       <use x="63.623046875" xlink:href="#BitstreamVeraSans-Roman-30"/>
       <use x="127.24609375" xlink:href="#BitstreamVeraSans-Roman-30"/>
       <use x="190.869140625" xlink:href="#BitstreamVeraSans-Roman-30"/>
       <use x="254.4921875" xlink:href="#BitstreamVeraSans-Roman-30"/>
       <use x="318.115234375" xlink:href="#BitstreamVeraSans-Roman-30"/>
      </g>
     </g>
    </g>
    <g id="ytick_7">
     <g id="line2d_26">
      <g>
       <use style="stroke:#000000;stroke-width:0.5;" x="108.0" xlink:href="#md7965d1ba0" y="194.4"/>
      </g>
     </g>
     <g id="line2d_27">
      <g>
       <use style="stroke:#000000;stroke-width:0.5;" x="777.6" xlink:href="#md9a1c1a7cd" y="194.4"/>
      </g>
     </g>
     <g id="text_13">
      <!-- 800000 -->
      <defs>
       <path d="
M31.7812 34.625
Q24.75 34.625 20.7188 30.8594
Q16.7031 27.0938 16.7031 20.5156
Q16.7031 13.9219 20.7188 10.1562
Q24.75 6.39062 31.7812 6.39062
Q38.8125 6.39062 42.8594 10.1719
Q46.9219 13.9688 46.9219 20.5156
Q46.9219 27.0938 42.8906 30.8594
Q38.875 34.625 31.7812 34.625
M21.9219 38.8125
Q15.5781 40.375 12.0312 44.7188
Q8.5 49.0781 8.5 55.3281
Q8.5 64.0625 14.7188 69.1406
Q20.9531 74.2188 31.7812 74.2188
Q42.6719 74.2188 48.875 69.1406
Q55.0781 64.0625 55.0781 55.3281
Q55.0781 49.0781 51.5312 44.7188
Q48 40.375 41.7031 38.8125
Q48.8281 37.1562 52.7969 32.3125
Q56.7812 27.4844 56.7812 20.5156
Q56.7812 9.90625 50.3125 4.23438
Q43.8438 -1.42188 31.7812 -1.42188
Q19.7344 -1.42188 13.25 4.23438
Q6.78125 9.90625 6.78125 20.5156
Q6.78125 27.4844 10.7812 32.3125
Q14.7969 37.1562 21.9219 38.8125
M18.3125 54.3906
Q18.3125 48.7344 21.8438 45.5625
Q25.3906 42.3906 31.7812 42.3906
Q38.1406 42.3906 41.7188 45.5625
Q45.3125 48.7344 45.3125 54.3906
Q45.3125 60.0625 41.7188 63.2344
Q38.1406 66.4062 31.7812 66.4062
Q25.3906 66.4062 21.8438 63.2344
Q18.3125 60.0625 18.3125 54.3906" id="BitstreamVeraSans-Roman-38"/>
      </defs>
      <g transform="translate(59.800625 197.71125)scale(0.12 -0.12)">
       <use xlink:href="#BitstreamVeraSans-Roman-38"/>
       <use x="63.623046875" xlink:href="#BitstreamVeraSans-Roman-30"/>
       <use x="127.24609375" xlink:href="#BitstreamVeraSans-Roman-30"/>
       <use x="190.869140625" xlink:href="#BitstreamVeraSans-Roman-30"/>
       <use x="254.4921875" xlink:href="#BitstreamVeraSans-Roman-30"/>
       <use x="318.115234375" xlink:href="#BitstreamVeraSans-Roman-30"/>
      </g>
     </g>
    </g>
    <g id="ytick_8">
     <g id="line2d_28">
      <g>
       <use style="stroke:#000000;stroke-width:0.5;" x="108.0" xlink:href="#md7965d1ba0" y="129.6"/>
      </g>
     </g>
     <g id="line2d_29">
      <g>
       <use style="stroke:#000000;stroke-width:0.5;" x="777.6" xlink:href="#md9a1c1a7cd" y="129.6"/>
      </g>
     </g>
     <g id="text_14">
      <!-- 900000 -->
      <defs>
       <path d="
M10.9844 1.51562
L10.9844 10.5
Q14.7031 8.73438 18.5 7.8125
Q22.3125 6.89062 25.9844 6.89062
Q35.75 6.89062 40.8906 13.4531
Q46.0469 20.0156 46.7812 33.4062
Q43.9531 29.2031 39.5938 26.9531
Q35.25 24.7031 29.9844 24.7031
Q19.0469 24.7031 12.6719 31.3125
Q6.29688 37.9375 6.29688 49.4219
Q6.29688 60.6406 12.9375 67.4219
Q19.5781 74.2188 30.6094 74.2188
Q43.2656 74.2188 49.9219 64.5156
Q56.5938 54.8281 56.5938 36.375
Q56.5938 19.1406 48.4062 8.85938
Q40.2344 -1.42188 26.4219 -1.42188
Q22.7031 -1.42188 18.8906 -0.6875
Q15.0938 0.046875 10.9844 1.51562
M30.6094 32.4219
Q37.25 32.4219 41.125 36.9531
Q45.0156 41.5 45.0156 49.4219
Q45.0156 57.2812 41.125 61.8438
Q37.25 66.4062 30.6094 66.4062
Q23.9688 66.4062 20.0938 61.8438
Q16.2188 57.2812 16.2188 49.4219
Q16.2188 41.5 20.0938 36.9531
Q23.9688 32.4219 30.6094 32.4219" id="BitstreamVeraSans-Roman-39"/>
      </defs>
      <g transform="translate(59.7425 132.91125)scale(0.12 -0.12)">
       <use xlink:href="#BitstreamVeraSans-Roman-39"/>
       <use x="63.623046875" xlink:href="#BitstreamVeraSans-Roman-30"/>
       <use x="127.24609375" xlink:href="#BitstreamVeraSans-Roman-30"/>
       <use x="190.869140625" xlink:href="#BitstreamVeraSans-Roman-30"/>
       <use x="254.4921875" xlink:href="#BitstreamVeraSans-Roman-30"/>
       <use x="318.115234375" xlink:href="#BitstreamVeraSans-Roman-30"/>
      </g>
     </g>
    </g>
    <g id="ytick_9">
     <g id="line2d_30">
      <g>
       <use style="stroke:#000000;stroke-width:0.5;" x="108.0" xlink:href="#md7965d1ba0" y="64.8"/>
      </g>
     </g>
     <g id="line2d_31">
      <g>
       <use style="stroke:#000000;stroke-width:0.5;" x="777.6" xlink:href="#md9a1c1a7cd" y="64.8"/>
      </g>
     </g>
     <g id="text_15">
      <!-- 1000000 -->
      <g transform="translate(52.67 68.11125)scale(0.12 -0.12)">
       <use xlink:href="#BitstreamVeraSans-Roman-31"/>
       <use x="63.623046875" xlink:href="#BitstreamVeraSans-Roman-30"/>
       <use x="127.24609375" xlink:href="#BitstreamVeraSans-Roman-30"/>
       <use x="190.869140625" xlink:href="#BitstreamVeraSans-Roman-30"/>
       <use x="254.4921875" xlink:href="#BitstreamVeraSans-Roman-30"/>
       <use x="318.115234375" xlink:href="#BitstreamVeraSans-Roman-30"/>
       <use x="381.73828125" xlink:href="#BitstreamVeraSans-Roman-30"/>
      </g>
     </g>
    </g>
    <g id="text_16">
     <!-- particle numbers -->
     <defs>
      <path d="
M34.2812 27.4844
Q23.3906 27.4844 19.1875 25
Q14.9844 22.5156 14.9844 16.5
Q14.9844 11.7188 18.1406 8.90625
Q21.2969 6.10938 26.7031 6.10938
Q34.1875 6.10938 38.7031 11.4062
Q43.2188 16.7031 43.2188 25.4844
L43.2188 27.4844
z

M52.2031 31.2031
L52.2031 0
L43.2188 0
L43.2188 8.29688
Q40.1406 3.32812 35.5469 0.953125
Q30.9531 -1.42188 24.3125 -1.42188
Q15.9219 -1.42188 10.9531 3.29688
Q6 8.01562 6 15.9219
Q6 25.1406 12.1719 29.8281
Q18.3594 34.5156 30.6094 34.5156
L43.2188 34.5156
L43.2188 35.4062
Q43.2188 41.6094 39.1406 45
Q35.0625 48.3906 27.6875 48.3906
Q23 48.3906 18.5469 47.2656
Q14.1094 46.1406 10.0156 43.8906
L10.0156 52.2031
Q14.9375 54.1094 19.5781 55.0469
Q24.2188 56 28.6094 56
Q40.4844 56 46.3438 49.8438
Q52.2031 43.7031 52.2031 31.2031" id="BitstreamVeraSans-Roman-61"/>
      <path d="
M56.2031 29.5938
L56.2031 25.2031
L14.8906 25.2031
Q15.4844 15.9219 20.4844 11.0625
Q25.4844 6.20312 34.4219 6.20312
Q39.5938 6.20312 44.4531 7.46875
Q49.3125 8.73438 54.1094 11.2812
L54.1094 2.78125
Q49.2656 0.734375 44.1875 -0.34375
Q39.1094 -1.42188 33.8906 -1.42188
Q20.7969 -1.42188 13.1562 6.1875
Q5.51562 13.8125 5.51562 26.8125
Q5.51562 40.2344 12.7656 48.1094
Q20.0156 56 32.3281 56
Q43.3594 56 49.7812 48.8906
Q56.2031 41.7969 56.2031 29.5938
M47.2188 32.2344
Q47.125 39.5938 43.0938 43.9844
Q39.0625 48.3906 32.4219 48.3906
Q24.9062 48.3906 20.3906 44.1406
Q15.875 39.8906 15.1875 32.1719
z
" id="BitstreamVeraSans-Roman-65"/>
      <path d="
M54.8906 33.0156
L54.8906 0
L45.9062 0
L45.9062 32.7188
Q45.9062 40.4844 42.875 44.3281
Q39.8438 48.1875 33.7969 48.1875
Q26.5156 48.1875 22.3125 43.5469
Q18.1094 38.9219 18.1094 30.9062
L18.1094 0
L9.07812 0
L9.07812 54.6875
L18.1094 54.6875
L18.1094 46.1875
Q21.3438 51.125 25.7031 53.5625
Q30.0781 56 35.7969 56
Q45.2188 56 50.0469 50.1719
Q54.8906 44.3438 54.8906 33.0156" id="BitstreamVeraSans-Roman-6e"/>
      <path d="
M48.6875 27.2969
Q48.6875 37.2031 44.6094 42.8438
Q40.5312 48.4844 33.4062 48.4844
Q26.2656 48.4844 22.1875 42.8438
Q18.1094 37.2031 18.1094 27.2969
Q18.1094 17.3906 22.1875 11.75
Q26.2656 6.10938 33.4062 6.10938
Q40.5312 6.10938 44.6094 11.75
Q48.6875 17.3906 48.6875 27.2969
M18.1094 46.3906
Q20.9531 51.2656 25.2656 53.625
Q29.5938 56 35.5938 56
Q45.5625 56 51.7812 48.0938
Q58.0156 40.1875 58.0156 27.2969
Q58.0156 14.4062 51.7812 6.48438
Q45.5625 -1.42188 35.5938 -1.42188
Q29.5938 -1.42188 25.2656 0.953125
Q20.9531 3.32812 18.1094 8.20312
L18.1094 0
L9.07812 0
L9.07812 75.9844
L18.1094 75.9844
z
" id="BitstreamVeraSans-Roman-62"/>
      <path d="
M18.1094 8.20312
L18.1094 -20.7969
L9.07812 -20.7969
L9.07812 54.6875
L18.1094 54.6875
L18.1094 46.3906
Q20.9531 51.2656 25.2656 53.625
Q29.5938 56 35.5938 56
Q45.5625 56 51.7812 48.0938
Q58.0156 40.1875 58.0156 27.2969
Q58.0156 14.4062 51.7812 6.48438
Q45.5625 -1.42188 35.5938 -1.42188
Q29.5938 -1.42188 25.2656 0.953125
Q20.9531 3.32812 18.1094 8.20312
M48.6875 27.2969
Q48.6875 37.2031 44.6094 42.8438
Q40.5312 48.4844 33.4062 48.4844
Q26.2656 48.4844 22.1875 42.8438
Q18.1094 37.2031 18.1094 27.2969
Q18.1094 17.3906 22.1875 11.75
Q26.2656 6.10938 33.4062 6.10938
Q40.5312 6.10938 44.6094 11.75
Q48.6875 17.3906 48.6875 27.2969" id="BitstreamVeraSans-Roman-70"/>
      <path d="
M48.7812 52.5938
L48.7812 44.1875
Q44.9688 46.2969 41.1406 47.3438
Q37.3125 48.3906 33.4062 48.3906
Q24.6562 48.3906 19.8125 42.8438
Q14.9844 37.3125 14.9844 27.2969
Q14.9844 17.2812 19.8125 11.7344
Q24.6562 6.20312 33.4062 6.20312
Q37.3125 6.20312 41.1406 7.25
Q44.9688 8.29688 48.7812 10.4062
L48.7812 2.09375
Q45.0156 0.34375 40.9844 -0.53125
Q36.9688 -1.42188 32.4219 -1.42188
Q20.0625 -1.42188 12.7812 6.34375
Q5.51562 14.1094 5.51562 27.2969
Q5.51562 40.6719 12.8594 48.3281
Q20.2188 56 33.0156 56
Q37.1562 56 41.1094 55.1406
Q45.0625 54.2969 48.7812 52.5938" id="BitstreamVeraSans-Roman-63"/>
      <path d="
M9.42188 54.6875
L18.4062 54.6875
L18.4062 0
L9.42188 0
z

M9.42188 75.9844
L18.4062 75.9844
L18.4062 64.5938
L9.42188 64.5938
z
" id="BitstreamVeraSans-Roman-69"/>
      <path d="
M9.42188 75.9844
L18.4062 75.9844
L18.4062 0
L9.42188 0
z
" id="BitstreamVeraSans-Roman-6c"/>
      <path d="
M8.5 21.5781
L8.5 54.6875
L17.4844 54.6875
L17.4844 21.9219
Q17.4844 14.1562 20.5 10.2656
Q23.5312 6.39062 29.5938 6.39062
Q36.8594 6.39062 41.0781 11.0312
Q45.3125 15.6719 45.3125 23.6875
L45.3125 54.6875
L54.2969 54.6875
L54.2969 0
L45.3125 0
L45.3125 8.40625
Q42.0469 3.42188 37.7188 1
Q33.4062 -1.42188 27.6875 -1.42188
Q18.2656 -1.42188 13.375 4.4375
Q8.5 10.2969 8.5 21.5781" id="BitstreamVeraSans-Roman-75"/>
      <path d="
M41.1094 46.2969
Q39.5938 47.1719 37.8125 47.5781
Q36.0312 48 33.8906 48
Q26.2656 48 22.1875 43.0469
Q18.1094 38.0938 18.1094 28.8125
L18.1094 0
L9.07812 0
L9.07812 54.6875
L18.1094 54.6875
L18.1094 46.1875
Q20.9531 51.1719 25.4844 53.5781
Q30.0312 56 36.5312 56
Q37.4531 56 38.5781 55.875
Q39.7031 55.7656 41.0625 55.5156
z
" id="BitstreamVeraSans-Roman-72"/>
     </defs>
     <g transform="translate(45.174375 374.78625)rotate(-90.0)scale(0.12 -0.12)">
      <use xlink:href="#BitstreamVeraSans-Roman-70"/>
      <use x="63.4765625" xlink:href="#BitstreamVeraSans-Roman-61"/>
      <use x="124.755859375" xlink:href="#BitstreamVeraSans-Roman-72"/>
      <use x="165.869140625" xlink:href="#BitstreamVeraSans-Roman-74"/>
      <use x="205.078125" xlink:href="#BitstreamVeraSans-Roman-69"/>
      <use x="232.861328125" xlink:href="#BitstreamVeraSans-Roman-63"/>
      <use x="287.841796875" xlink:href="#BitstreamVeraSans-Roman-6c"/>
      <use x="315.625" xlink:href="#BitstreamVeraSans-Roman-65"/>
      <use x="377.1484375" xlink:href="#BitstreamVeraSans-Roman-20"/>
      <use x="408.935546875" xlink:href="#BitstreamVeraSans-Roman-6e"/>
      <use x="472.314453125" xlink:href="#BitstreamVeraSans-Roman-75"/>
      <use x="535.693359375" xlink:href="#BitstreamVeraSans-Roman-6d"/>
      <use x="633.10546875" xlink:href="#BitstreamVeraSans-Roman-62"/>
      <use x="696.58203125" xlink:href="#BitstreamVeraSans-Roman-65"/>
      <use x="758.10546875" xlink:href="#BitstreamVeraSans-Roman-72"/>
      <use x="799.21875" xlink:href="#BitstreamVeraSans-Roman-73"/>
     </g>
    </g>
   </g>
   <g id="legend_1">
    <g id="patch_7">
     <path d="
M721.468 340.462
L774.1 340.462
L774.1 307.538
L721.468 307.538
z
" style="fill:#ffffff;stroke:#000000;stroke-linejoin:miter;"/>
    </g>
    <g id="line2d_32">
     <path d="
M726.368 313.207
L736.168 313.207" style="fill:none;stroke:#ff0000;stroke-linecap:square;"/>
    </g>
    <g id="line2d_33"/>
    <g id="text_17">
     <!-- ATP el.0 -->
     <defs>
      <path d="
M-0.296875 72.9062
L61.375 72.9062
L61.375 64.5938
L35.5 64.5938
L35.5 0
L25.5938 0
L25.5938 64.5938
L-0.296875 64.5938
z
" id="BitstreamVeraSans-Roman-54"/>
      <path d="
M10.6875 12.4062
L21 12.4062
L21 0
L10.6875 0
z
" id="BitstreamVeraSans-Roman-2e"/>
      <path d="
M19.6719 64.7969
L19.6719 37.4062
L32.0781 37.4062
Q38.9688 37.4062 42.7188 40.9688
Q46.4844 44.5312 46.4844 51.125
Q46.4844 57.6719 42.7188 61.2344
Q38.9688 64.7969 32.0781 64.7969
z

M9.8125 72.9062
L32.0781 72.9062
Q44.3438 72.9062 50.6094 67.3594
Q56.8906 61.8125 56.8906 51.125
Q56.8906 40.3281 50.6094 34.8125
Q44.3438 29.2969 32.0781 29.2969
L19.6719 29.2969
L19.6719 0
L9.8125 0
z
" id="BitstreamVeraSans-Roman-50"/>
      <path d="
M34.1875 63.1875
L20.7969 26.9062
L47.6094 26.9062
z

M28.6094 72.9062
L39.7969 72.9062
L67.5781 0
L57.3281 0
L50.6875 18.7031
L17.8281 18.7031
L11.1875 0
L0.78125 0
z
" id="BitstreamVeraSans-Roman-41"/>
     </defs>
     <g transform="translate(743.86765625 315.656875)scale(0.07 -0.07)">
      <use xlink:href="#BitstreamVeraSans-Roman-41"/>
      <use x="60.658203125" xlink:href="#BitstreamVeraSans-Roman-54"/>
      <use x="121.7421875" xlink:href="#BitstreamVeraSans-Roman-50"/>
      <use x="182.044921875" xlink:href="#BitstreamVeraSans-Roman-20"/>
      <use x="213.83203125" xlink:href="#BitstreamVeraSans-Roman-65"/>
      <use x="275.35546875" xlink:href="#BitstreamVeraSans-Roman-6c"/>
      <use x="303.138671875" xlink:href="#BitstreamVeraSans-Roman-2e"/>
      <use x="334.92578125" xlink:href="#BitstreamVeraSans-Roman-30"/>
     </g>
    </g>
    <g id="line2d_34">
     <path d="
M726.368 323.482
L736.168 323.482" style="fill:none;stroke:#008000;stroke-linecap:square;"/>
    </g>
    <g id="line2d_35"/>
    <g id="text_18">
     <!-- ATP el.1 -->
     <g transform="translate(743.86765625 325.9315625)scale(0.07 -0.07)">
      <use xlink:href="#BitstreamVeraSans-Roman-41"/>
      <use x="60.658203125" xlink:href="#BitstreamVeraSans-Roman-54"/>
      <use x="121.7421875" xlink:href="#BitstreamVeraSans-Roman-50"/>
      <use x="182.044921875" xlink:href="#BitstreamVeraSans-Roman-20"/>
      <use x="213.83203125" xlink:href="#BitstreamVeraSans-Roman-65"/>
      <use x="275.35546875" xlink:href="#BitstreamVeraSans-Roman-6c"/>
      <use x="303.138671875" xlink:href="#BitstreamVeraSans-Roman-2e"/>
      <use x="334.92578125" xlink:href="#BitstreamVeraSans-Roman-31"/>
     </g>
    </g>
    <g id="line2d_36">
     <path d="
M726.368 333.756
L736.168 333.756" style="fill:none;stroke:#0000ff;stroke-linecap:square;"/>
    </g>
    <g id="line2d_37"/>
    <g id="text_19">
     <!-- ATP el.2 -->
     <g transform="translate(743.86765625 336.20625)scale(0.07 -0.07)">
      <use xlink:href="#BitstreamVeraSans-Roman-41"/>
      <use x="60.658203125" xlink:href="#BitstreamVeraSans-Roman-54"/>
      <use x="121.7421875" xlink:href="#BitstreamVeraSans-Roman-50"/>
      <use x="182.044921875" xlink:href="#BitstreamVeraSans-Roman-20"/>
      <use x="213.83203125" xlink:href="#BitstreamVeraSans-Roman-65"/>
      <use x="275.35546875" xlink:href="#BitstreamVeraSans-Roman-6c"/>
      <use x="303.138671875" xlink:href="#BitstreamVeraSans-Roman-2e"/>
      <use x="334.92578125" xlink:href="#BitstreamVeraSans-Roman-32"/>
     </g>
    </g>
   </g>
  </g>
 </g>
 <defs>
  <clipPath id="p7ceb695115">
   <rect height="518.4" width="669.6" x="108.0" y="64.8"/>
  </clipPath>
 </defs>
</svg>
