<?xml version="1.0" encoding="utf-8" standalone="no"?>
<!DOCTYPE svg PUBLIC "-//W3C//DTD SVG 1.1//EN"
  "http://www.w3.org/Graphics/SVG/1.1/DTD/svg11.dtd">
<!-- Created with matplotlib (http://matplotlib.org/) -->
<svg height="648pt" version="1.1" viewBox="0 0 864 648" width="864pt" xmlns="http://www.w3.org/2000/svg" xmlns:xlink="http://www.w3.org/1999/xlink">
 <defs>
  <style type="text/css">
*{stroke-linecap:butt;stroke-linejoin:round;}
  </style>
 </defs>
 <g id="figure_1">
  <g id="patch_1">
   <path d="
M0 648
L864 648
L864 0
L0 0
z
" style="fill:#ffffff;"/>
  </g>
  <g id="axes_1">
   <g id="patch_2">
    <path d="
M108 583.2
L777.6 583.2
L777.6 64.8
L108 64.8
z
" style="fill:#ffffff;"/>
   </g>
   <g id="line2d_1">
    <path clip-path="url(#p7ceb695115)" d="
M108 556.706
L108.67 556.76
L109.339 556.576
L111.348 556.525
L112.018 556.356
L113.357 556.297
L115.366 556.605
L116.705 556.294
L117.374 556.397
L119.383 556.446
L120.053 556.71
L120.722 556.817
L121.392 556.663
L122.062 556.792
L122.731 556.627
L123.401 556.92
L124.74 556.949
L126.749 556.621
L128.758 556.705
L129.427 556.643
L134.784 557.04
L136.793 556.654
L137.462 556.67
L138.132 556.37
L138.802 556.401
L139.471 556.574
L140.81 556.558
L141.48 556.857
L142.15 556.726
L143.489 556.285
L144.828 556.325
L147.506 556.241
L148.176 556.521
L148.846 556.4
L149.515 556.626
L150.854 556.741
L151.524 556.933
L152.194 556.661
L153.533 556.629
L154.872 556.471
L155.542 556.539
L156.211 556.396
L156.881 556.081
L158.89 556.49
L160.898 556.633
L161.568 556.53
L162.238 556.599
L162.907 556.524
L163.577 556.714
L164.246 556.599
L164.916 556.772
L165.586 557.073
L166.255 556.979
L166.925 556.702
L168.264 557.233
L168.934 557.268
L170.942 557.05
L171.612 557.294
L172.951 557.255
L173.621 557.458
L175.63 557.082
L176.969 557.073
L178.308 557.281
L178.978 557.158
L181.656 557.296
L182.995 556.994
L184.334 557.067
L185.674 557.036
L186.343 557.226
L187.682 557.135
L188.352 556.881
L189.022 556.936
L189.691 556.75
L191.03 556.826
L193.709 556.929
L194.378 557.177
L195.048 557.301
L196.387 557.134
L200.405 556.85
L207.101 556.876
L207.77 557.066
L208.44 556.985
L209.779 557.17
L210.449 556.99
L211.118 557.316
L211.788 556.919
L213.127 557.264
L213.797 557.378
L214.466 557.297
L215.136 557.029
L216.475 557.235
L217.145 557.068
L218.484 557.233
L219.823 557.089
L220.493 557.109
L221.162 557.014
L221.832 557.175
L223.841 557.08
L224.51 556.97
L225.18 557.329
L226.519 557.12
L228.528 557.358
L229.198 557.164
L229.867 557.397
L231.206 557.384
L231.876 557.344
L234.554 556.476
L236.563 556.876
L237.902 556.765
L239.242 557.116
L241.25 557.398
L241.92 557.299
L242.59 556.963
L243.929 557.288
L244.598 557.291
L245.268 557.497
L245.938 557.304
L246.607 557.491
L247.277 557.116
L247.946 557.224
L249.286 557.14
L249.955 556.85
L251.294 556.927
L251.964 556.835
L255.982 557.041
L257.321 557.342
L258.66 557.24
L259.33 557.036
L260.669 557.205
L262.008 557.163
L262.678 557.377
L263.347 557.246
L268.034 557.434
L268.704 557.472
L269.374 557.25
L272.052 557.447
L274.73 557.345
L275.4 557.15
L276.07 557.419
L278.748 557.586
L279.418 557.616
L280.087 557.425
L282.096 557.387
L283.435 557.215
L284.105 557.387
L284.774 557.317
L285.444 557.364
L286.114 557.231
L286.783 557.388
L287.453 557.112
L289.462 556.872
L290.801 556.807
L291.47 556.87
L292.81 556.638
L294.149 556.729
L294.818 556.661
L295.488 556.793
L296.827 556.567
L297.497 556.791
L298.166 556.797
L298.836 556.957
L299.506 556.874
L300.175 557.024
L302.184 556.898
L303.523 556.748
L304.193 556.514
L305.532 556.489
L308.88 556.858
L309.55 557.126
L311.558 557.185
L312.228 556.998
L312.898 557.084
L314.237 556.97
L315.576 556.867
L316.246 557.035
L317.585 556.677
L318.254 556.658
L318.924 556.441
L319.594 556.608
L320.933 556.723
L321.602 557.093
L322.272 557.099
L322.942 556.924
L323.611 556.977
L324.281 557.236
L326.29 557.329
L328.298 557.098
L330.307 557.177
L330.977 556.906
L331.646 556.782
L332.986 556.84
L333.655 556.502
L334.325 556.552
L334.994 556.907
L335.664 556.983
L336.334 556.906
L337.673 557.035
L338.342 557.204
L339.012 557.025
L339.682 557.305
L341.021 557.235
L341.69 557.534
L342.36 557.459
L345.038 557.565
L345.708 557.361
L346.378 557.362
L347.047 557.223
L347.717 557.361
L349.056 557.275
L350.395 557.054
L351.065 556.856
L351.734 557.095
L352.404 556.936
L353.074 557.331
L353.743 557.191
L354.413 557.221
L355.082 557.094
L355.752 557.204
L356.422 557.101
L357.091 556.827
L357.761 556.778
L358.43 556.996
L359.1 557.033
L360.439 556.718
L361.109 557.052
L361.778 556.945
L362.448 556.634
L363.118 556.748
L366.466 556.725
L367.135 556.781
L368.474 556.398
L369.144 556.069
L369.814 556.05
L370.483 555.814
L371.153 555.816
L371.822 555.978
L372.492 555.984
L373.162 555.832
L376.51 556.318
L377.179 556.144
L378.518 556.162
L379.858 556.526
L380.527 556.447
L381.866 556.563
L383.206 556.985
L384.545 556.764
L385.884 556.819
L386.554 556.981
L387.223 556.917
L387.893 556.668
L389.232 556.537
L389.902 556.578
L390.571 556.273
L391.241 556.408
L393.25 556.352
L395.258 556.538
L395.928 556.315
L396.598 556.291
L398.606 556.664
L399.276 556.708
L399.946 556.637
L400.615 556.698
L401.954 556.641
L402.624 556.967
L404.633 556.92
L405.302 556.74
L405.972 556.721
L406.642 556.57
L409.32 556.607
L410.659 556.382
L411.998 556.55
L412.668 556.567
L413.338 556.724
L415.346 556.302
L416.686 556.576
L417.355 556.74
L418.025 556.708
L419.364 556.919
L420.703 556.839
L421.373 557.071
L422.042 556.934
L423.382 557.189
L424.051 556.923
L424.721 556.841
L425.39 556.531
L428.069 556.31
L428.738 556.482
L429.408 556.488
L430.078 556.618
L433.426 556.279
L434.095 556.468
L434.765 556.51
L435.434 556.44
L436.104 556.716
L437.443 556.702
L438.782 556.758
L441.461 556.762
L442.13 556.606
L444.809 556.795
L445.478 557.243
L446.818 558.443
L447.487 558.8
L450.166 560.882
L450.835 561.318
L451.505 562.005
L452.174 562.139
L453.514 563.106
L456.192 564.343
L456.862 564.445
L458.201 564.986
L459.54 565.456
L460.21 565.499
L460.879 565.92
L462.218 566.156
L462.888 566.073
L465.566 566.782
L466.236 566.914
L466.906 567.172
L469.584 566.925
L470.254 566.885
L470.923 567.052
L471.593 567.06
L472.262 566.84
L472.932 566.89
L473.602 566.507
L474.941 566.15
L475.61 566.145
L476.28 566.323
L476.95 566.045
L478.958 565.989
L481.637 565.9
L482.306 566.105
L483.646 565.791
L484.985 565.432
L487.663 565.139
L488.333 565.045
L489.672 565.261
L491.011 565.315
L492.35 565.339
L493.02 564.956
L493.69 564.75
L495.698 564.783
L496.368 564.721
L497.038 564.792
L497.707 564.512
L498.377 564.395
L499.046 564.586
L500.386 564.348
L501.055 564.306
L501.725 564.043
L503.064 563.958
L503.734 563.799
L505.742 563.713
L506.412 563.598
L507.751 563.569
L509.09 563.291
L509.76 563.355
L511.099 563.026
L511.769 563.055
L513.108 562.907
L514.447 562.861
L515.786 562.467
L516.456 562.363
L517.795 562.443
L518.465 562.598
L519.134 562.481
L519.804 562.61
L520.474 562.388
L523.152 562.69
L523.822 563.041
L524.491 563.223
L525.83 563.192
L526.5 562.95
L527.17 562.916
L528.509 562.547
L529.178 562.251
L533.196 562.839
L534.535 562.564
L535.205 562.29
L535.874 562.237
L536.544 562.026
L539.222 562.73
L539.892 562.491
L541.901 562.503
L543.91 561.837
L544.579 562.145
L545.918 562.169
L547.258 562.122
L547.927 562.074
L549.266 561.671
L550.606 561.784
L552.614 561.462
L553.284 561.616
L553.954 561.624
L554.623 561.375
L555.293 561.487
L555.962 561.292
L556.632 561.434
L557.971 561.235
L558.641 561.368
L560.65 561.364
L564.667 560.957
L566.676 561.638
L567.346 561.536
L568.015 561.553
L568.685 561.408
L569.354 561.379
L570.024 561.738
L570.694 561.583
L572.033 561.552
L572.702 561.093
L574.711 560.788
L576.05 560.859
L578.059 560.902
L578.729 560.775
L580.738 561.173
L581.407 561.395
L582.077 561.357
L582.746 561.103
L584.086 560.952
L584.755 561.137
L586.094 561.139
L586.764 561.12
L587.434 560.952
L592.121 560.964
L594.799 560.509
L595.469 560.507
L596.138 560.84
L598.147 560.471
L598.817 560.645
L599.486 560.516
L600.826 560.646
L601.495 560.584
L603.504 560.792
L604.843 560.594
L605.513 560.74
L606.182 560.508
L606.852 560.623
L608.191 560.571
L608.861 560.725
L610.2 560.267
L611.539 560.376
L613.548 560.457
L614.218 560.317
L616.896 560.563
L618.235 560.515
L619.574 560.896
L621.583 560.753
L623.592 560.896
L624.931 560.352
L626.94 560.454
L627.61 560.26
L628.949 560.49
L630.288 560.357
L630.958 560.112
L631.627 560.037
L632.966 560.172
L633.636 560.013
L636.984 560.659
L637.654 560.208
L638.993 560.028
L641.671 559.564
L642.341 559.804
L643.01 559.786
L644.35 559.937
L645.019 559.845
L645.689 559.925
L646.358 559.715
L647.698 559.595
L648.367 559.737
L649.037 559.7
L649.706 559.497
L651.715 559.842
L653.724 559.582
L654.394 559.442
L655.733 559.874
L656.402 559.786
L657.072 559.527
L657.742 559.626
L658.411 559.522
L659.081 559.599
L659.75 559.482
L661.09 559.57
L663.098 558.991
L663.768 559.153
L664.438 559.525
L665.107 559.491
L665.777 559.283
L667.786 559.159
L668.455 558.908
L669.125 559.09
L671.134 559.114
L672.473 559.177
L673.142 559.015
L674.482 559.131
L675.151 558.951
L675.821 559.254
L677.16 559.354
L679.169 559.232
L680.508 559.634
L681.178 559.51
L681.847 559.532
L682.517 559.729
L683.186 559.779
L683.856 559.608
L684.526 559.557
L685.195 559.708
L685.865 559.553
L686.534 559.661
L687.204 559.648
L687.874 559.427
L689.213 559.341
L689.882 559.553
L697.248 559.142
L697.918 558.966
L699.257 559.092
L699.926 558.978
L700.596 558.991
L701.935 558.803
L702.605 559.035
L703.944 558.997
L704.614 558.844
L705.953 559.105
L706.622 558.775
L707.292 558.676
L707.962 558.772
L709.97 558.779
L711.31 558.771
L712.649 558.499
L713.318 558.717
L713.988 558.597
L716.666 558.866
L717.336 558.862
L718.006 558.724
L718.675 558.822
L723.362 558.223
L724.702 558.212
L725.371 557.955
L726.041 558.284
L727.38 558.414
L730.728 557.944
L731.398 557.814
L732.067 557.877
L733.406 557.717
L734.746 558.252
L736.085 558.22
L738.094 558.674
L739.433 558.301
L740.102 558.579
L740.772 558.516
L741.442 558.252
L744.12 558.209
L744.79 558.38
L745.459 558.258
L746.129 558.271
L746.798 558.509
L747.468 558.382
L748.138 558.623
L748.807 558.437
L752.155 558.252
L752.825 558.356
L753.494 558.235
L754.164 558.273
L754.834 558.133
L755.503 558.233
L756.842 558.004
L758.182 558.381
L759.521 558.047
L761.53 558.108
L762.869 557.767
L763.538 557.898
L764.878 557.918
L766.217 558.25
L767.556 557.923
L770.234 558.172
L770.904 558.022
L771.574 558.119
L772.913 557.783
L774.252 557.911
L776.261 558.085
L776.93 557.889
L777.6 557.851
L777.6 557.851" style="fill:none;stroke:#ff0000;stroke-linecap:square;"/>
   </g>
   <g id="line2d_2">
    <path clip-path="url(#p7ceb695115)" d="
M108 88.4241
L108.67 88.2777
L109.339 88.6237
L111.348 88.6503
L112.018 88.6956
L112.687 88.9542
L113.357 88.9361
L115.366 88.3321
L116.705 88.9736
L117.374 88.7838
L118.044 88.9302
L118.714 88.8136
L119.383 88.8402
L120.053 88.5978
L120.722 88.4844
L121.392 88.5946
L122.062 88.3205
L122.731 88.6296
L123.401 88.2278
L124.07 87.999
L125.41 88.1909
L127.418 88.6153
L128.758 88.3989
L129.427 88.5984
L130.097 88.581
L130.766 88.3613
L132.106 88.2453
L132.775 88.1967
L133.445 88.5673
L134.784 88.5369
L135.454 88.8868
L136.123 88.789
L137.462 88.7812
L138.132 89.122
L140.141 89.1855
L140.81 89.343
L141.48 89.0268
L142.15 89.0482
L142.819 89.3242
L144.828 89.5646
L146.167 89.3229
L146.837 89.437
L148.176 89.1292
L148.846 89.3786
L149.515 88.9678
L150.854 88.7702
L151.524 88.6697
L152.194 88.9561
L153.533 88.6697
L154.202 88.9108
L156.211 88.9017
L156.881 89.159
L158.22 88.9775
L160.229 89.2251
L160.898 89.0054
L162.907 89.1188
L163.577 88.9691
L164.246 89.1622
L164.916 89.0255
L165.586 88.6503
L166.255 88.708
L166.925 88.9464
L167.594 88.8116
L168.264 88.4364
L168.934 88.2965
L169.603 88.4118
L170.942 88.3211
L171.612 88.0269
L172.282 88.1779
L173.621 87.8377
L174.29 88.0775
L174.96 88.4844
L175.63 88.4825
L176.299 88.6594
L176.969 88.5492
L177.638 88.6626
L178.308 88.4138
L178.978 88.5291
L180.986 88.2161
L182.995 88.4889
L183.665 88.6386
L184.334 88.6626
L185.004 88.8291
L185.674 89.2581
L187.013 89.0009
L187.682 89.0371
L189.022 88.5861
L191.7 88.5077
L192.37 88.8596
L195.048 88.3159
L196.387 88.5213
L197.057 88.8337
L197.726 88.8376
L198.396 88.9814
L200.405 89.1609
L201.074 88.949
L201.744 88.879
L202.414 88.6069
L203.083 88.8116
L203.753 88.6762
L204.422 88.7864
L205.092 88.7455
L205.762 88.5699
L206.431 88.7015
L207.77 88.2835
L208.44 88.546
L209.11 88.347
L210.449 88.6354
L211.118 88.1896
L211.788 88.625
L212.458 88.2395
L213.797 87.9317
L214.466 87.9673
L215.136 88.4261
L215.806 88.1112
L217.145 88.3386
L217.814 88.1915
L219.154 88.6911
L219.823 88.5686
L221.162 88.8395
L222.502 88.7481
L223.171 88.8816
L223.841 88.7585
L224.51 89.1091
L225.18 88.6276
L225.85 88.5531
L227.189 88.7572
L228.528 88.3354
L229.198 88.5207
L229.867 88.0554
L230.537 87.9543
L231.876 88.209
L232.546 88.1196
L233.215 88.4008
L233.885 89.067
L234.554 89.3177
L235.894 88.8201
L237.902 88.89
L238.572 88.96
L239.242 88.6522
L239.911 88.4701
L240.581 88.6075
L241.25 88.2615
L241.92 88.3347
L242.59 88.754
L243.259 88.4468
L243.929 88.4863
L245.268 88.0094
L245.938 88.1947
L246.607 88.023
L247.277 88.4825
L247.946 88.5097
L248.616 88.7462
L249.286 88.5505
L249.955 88.8551
L251.294 88.6794
L252.634 88.5162
L253.303 88.3652
L253.973 88.3347
L255.312 88.0431
L255.982 88.0327
L257.321 87.6828
L258.66 87.8507
L259.33 88.3412
L260.669 88.0522
L261.338 87.9232
L262.008 88.0995
L262.678 87.8831
L263.347 87.9867
L264.017 88.2848
L264.686 88.231
L265.356 88.0016
L266.026 87.9537
L266.695 87.7301
L267.365 87.8286
L270.713 87.7016
L271.382 87.9304
L274.061 88.1293
L275.4 88.3827
L276.07 88.0567
L278.078 88.4747
L279.418 88.209
L280.087 88.29
L280.757 87.9414
L281.426 88.0321
L282.096 87.9608
L283.435 88.2116
L284.105 87.7003
L285.444 87.5442
L286.114 87.6932
L286.783 87.5357
L287.453 87.896
L290.131 88.2816
L290.801 88.5259
L291.47 88.557
L292.14 88.7326
L292.81 88.708
L294.149 88.4481
L294.818 88.6924
L295.488 88.3989
L296.158 88.266
L296.827 88.5738
L297.497 88.4099
L298.166 88.4838
L298.836 88.0334
L299.506 88.2647
L302.854 88.404
L303.523 88.465
L305.532 89.0242
L306.202 89.1279
L306.871 89.0598
L307.541 88.8019
L308.88 88.6172
L310.219 88.1377
L311.558 88.1099
L312.228 88.4883
L312.898 88.4138
L313.567 88.6354
L314.906 88.5388
L315.576 88.649
L316.915 88.4559
L318.924 88.7611
L319.594 88.5213
L320.263 88.5537
L320.933 88.4254
L321.602 88.0924
L322.272 88.2375
L322.942 88.7494
L323.611 88.8045
L326.959 88.4313
L327.629 88.6574
L328.968 88.5978
L329.638 88.4015
L330.307 88.3885
L330.977 88.6134
L332.316 88.4442
L332.986 88.4215
L333.655 88.938
L334.325 88.9296
L334.994 88.5777
L335.664 88.4701
L337.673 88.6658
L338.342 88.439
L339.012 88.7008
L339.682 88.52
L340.351 88.6969
L341.021 88.7112
L341.69 88.3179
L343.03 88.3723
L343.699 87.9148
L344.369 88.198
L345.038 88.2369
L345.708 88.4228
L346.378 88.1131
L347.047 88.2213
L347.717 88.1436
L348.386 88.2712
L349.056 88.1734
L350.395 88.3794
L351.065 88.6522
L351.734 88.2738
L352.404 88.3561
L353.074 87.9861
L353.743 88.3179
L355.082 88.4053
L357.091 88.1228
L357.761 88.2181
L359.1 88.0684
L359.77 88.336
L360.439 88.4552
L361.109 88.0956
L362.448 88.4164
L363.118 88.117
L363.787 88.1209
L365.126 88.2874
L365.796 88.36
L366.466 88.2634
L367.135 88.3088
L369.144 88.9302
L369.814 88.7624
L370.483 89.1181
L371.153 89.0073
L372.492 89.1544
L373.162 89.2095
L373.831 89.054
L374.501 89.0229
L375.17 88.7741
L375.84 88.8129
L376.51 89.1933
L378.518 89.146
L379.188 88.8713
L380.527 88.7358
L381.197 88.7715
L381.866 88.9263
L383.206 88.5933
L385.214 88.649
L387.893 88.7481
L388.562 88.8946
L389.902 88.6801
L390.571 88.8576
L391.241 88.7261
L393.25 88.7054
L393.919 88.5259
L395.258 88.4753
L395.928 88.5952
L396.598 88.59
L397.267 88.384
L399.946 88.141
L400.615 88.1507
L401.954 88.4319
L402.624 87.9997
L403.294 87.9666
L405.302 88.279
L405.972 88.0975
L406.642 88.511
L407.311 88.5395
L407.981 88.3736
L408.65 88.4578
L409.32 88.277
L409.99 88.5524
L411.329 88.4202
L412.668 88.1261
L413.338 87.7891
L414.677 88.1189
L415.346 88.5926
L416.686 88.4034
L418.694 88.314
L420.034 88.2427
L421.373 87.9939
L422.042 88.1844
L423.382 88.2006
L424.051 88.5524
L425.39 88.4352
L426.06 88.4274
L427.399 88.5991
L428.738 88.2887
L429.408 88.4591
L430.078 88.2116
L432.086 88.257
L432.756 88.5693
L434.765 88.3068
L436.774 88.3166
L437.443 88.6017
L439.452 88.6146
L440.122 88.7468
L440.791 88.382
L441.461 88.706
L442.13 88.8913
L442.8 88.7967
L443.47 88.5097
L444.139 88.5038
L444.809 88.8499
L445.478 88.8583
L446.818 88.5693
L447.487 88.9834
L448.157 89.1117
L448.826 89.1136
L449.496 89.4246
L450.166 89.5815
L450.835 89.9528
L451.505 89.8899
L452.174 90.5509
L452.844 90.9902
L455.522 93.3561
L456.192 94.3216
L456.862 95.0409
L457.531 95.532
L458.201 96.2325
L460.879 98.1914
L461.549 99.0954
L462.218 99.4602
L462.888 100.261
L464.897 101.236
L465.566 101.18
L466.236 101.408
L467.575 101.389
L468.914 102.28
L469.584 102.375
L470.923 102.689
L471.593 102.545
L472.262 102.764
L472.932 102.799
L473.602 103.026
L474.941 103.156
L475.61 103.088
L476.28 102.862
L476.95 102.862
L477.619 102.997
L478.289 102.991
L478.958 102.817
L479.628 102.506
L480.298 102.422
L480.967 102.137
L481.637 102.062
L482.306 101.675
L483.646 102.063
L484.315 101.967
L485.654 101.442
L486.324 101.415
L487.663 101.103
L488.333 100.956
L489.002 100.344
L489.672 100.069
L491.011 99.8374
L491.681 99.8931
L492.35 99.5023
L493.02 99.6339
L495.029 99.2496
L495.698 99.273
L497.038 99.1058
L497.707 99.05
L498.377 99.1673
L499.046 98.6502
L500.386 98.7513
L501.055 98.5874
L501.725 98.6152
L502.394 98.391
L504.403 98.8518
L505.073 98.4798
L505.742 98.3534
L506.412 98.4869
L507.082 98.1331
L507.751 98.0476
L509.09 98.3463
L510.43 98.0586
L511.099 98.1169
L511.769 97.9212
L512.438 98.1104
L513.108 98.0968
L513.778 97.8279
L516.456 98.704
L517.795 98.3334
L518.465 98.2031
L519.134 98.2938
L519.804 97.9802
L520.474 98.0411
L521.813 97.8253
L522.482 97.4864
L525.161 96.8501
L525.83 96.944
L526.5 97.2752
L527.17 97.1346
L528.509 97.0801
L529.178 97.4229
L529.848 97.454
L530.518 97.3477
L531.187 97.3886
L531.857 97.0069
L532.526 97.0503
L533.196 96.8423
L533.866 96.8643
L535.205 97.1955
L535.874 97.1358
L536.544 97.2654
L537.214 97.1611
L538.553 96.4269
L539.222 96.4004
L539.892 96.6531
L540.562 96.7522
L541.901 96.6855
L543.24 97.3439
L543.91 97.5007
L544.579 97.2674
L546.588 96.9823
L547.927 97.1235
L548.597 97.5156
L549.266 97.4404
L549.936 97.2279
L551.275 97.1268
L552.614 97.0529
L553.284 96.8728
L553.954 96.8157
L554.623 97.0788
L555.293 97.049
L555.962 97.2486
L556.632 96.8242
L557.302 96.7892
L557.971 96.9875
L558.641 96.6524
L559.31 96.4593
L561.319 96.2254
L563.998 96.46
L565.337 96.0168
L566.006 95.7498
L566.676 95.2787
L567.346 95.4381
L568.015 95.3415
L569.354 95.5696
L570.024 95.1808
L570.694 95.2884
L571.363 95.2709
L572.033 95.4504
L572.702 95.7971
L575.381 96.3997
L577.39 96.2753
L578.059 96.4218
L580.738 95.939
L581.407 95.6299
L582.077 95.79
L582.746 96.0978
L583.416 96.2008
L584.086 96.6285
L584.755 96.1302
L585.425 96.1962
L586.094 96.1256
L586.764 96.1969
L587.434 96.4386
L588.773 96.2876
L590.782 95.6623
L592.121 95.6331
L593.46 95.2826
L594.13 95.5806
L595.469 95.6072
L596.138 95.1731
L597.478 95.6778
L598.147 95.709
L599.486 95.5975
L600.156 95.5463
L601.495 95.2113
L602.165 95.2923
L603.504 95.3007
L605.513 95.2968
L606.182 95.5165
L608.191 95.5243
L608.861 95.2774
L609.53 95.4264
L610.2 95.7738
L612.209 95.5599
L616.226 95.3603
L617.566 95.4595
L618.235 95.5022
L619.574 95.1251
L620.244 95.1089
L620.914 95.221
L621.583 95.0564
L622.253 94.6793
L622.922 94.7169
L623.592 94.4713
L624.931 94.8925
L627.61 94.805
L628.279 94.3274
L628.949 94.2691
L629.618 94.0851
L630.958 94.4136
L632.297 94.4978
L632.966 94.7583
L634.306 94.5445
L634.975 94.3358
L636.314 94.3488
L636.984 94.0566
L637.654 94.4078
L639.662 94.7097
L640.332 94.6255
L641.671 94.9482
L642.341 94.689
L643.01 94.7726
L643.68 94.6916
L644.35 94.4499
L645.019 94.5477
L645.689 94.1764
L647.698 94.2697
L648.367 94.052
L653.054 93.912
L653.724 93.6276
L654.394 93.7637
L655.063 93.7086
L655.733 93.439
L656.402 93.4766
L657.072 93.9244
L657.742 93.7863
L658.411 94.0332
L659.081 93.9399
L659.75 94.0857
L660.42 93.9185
L661.09 93.6185
L661.759 93.8745
L662.429 93.9367
L663.098 94.1803
L663.768 94.0877
L664.438 93.4928
L665.107 93.4746
L665.777 93.7196
L666.446 93.4435
L667.116 93.4364
L667.786 93.288
L668.455 93.4073
L669.125 93.0573
L671.803 93.2705
L673.142 93.102
L674.482 93.1617
L675.151 93.5369
L675.821 93.0573
L678.499 92.6958
L679.169 92.6653
L679.838 92.8208
L681.847 92.8377
L683.186 92.5603
L685.865 93.0703
L686.534 92.7366
L687.204 92.5623
L687.874 92.7975
L688.543 92.734
L689.213 92.9064
L690.552 92.8506
L691.222 92.5603
L691.891 92.397
L692.561 92.5759
L694.57 92.6847
L695.239 92.6258
L695.909 92.7586
L697.918 92.7631
L699.257 92.1346
L699.926 92.4605
L700.596 92.3782
L701.266 92.5584
L701.935 92.5525
L702.605 92.2551
L703.274 92.11
L704.614 92.3024
L705.283 92.1132
L705.953 91.7672
L706.622 92.2823
L707.292 92.373
L707.962 92.1644
L708.631 92.2298
L709.301 91.9603
L709.97 91.9415
L710.64 92.0406
L711.31 91.8514
L711.979 92.0938
L712.649 92.0918
L713.318 91.7322
L714.658 91.7639
L715.997 91.4775
L716.666 91.1574
L717.336 91.2105
L718.006 91.4179
L718.675 91.2552
L719.345 91.3855
L720.014 91.1412
L720.684 91.1269
L722.693 91.6162
L723.362 91.9415
L724.032 92.04
L724.702 91.7672
L725.371 91.9331
L726.041 91.6311
L727.38 91.5002
L728.05 91.6343
L729.389 91.7037
L731.398 92.2791
L732.067 92.2344
L733.406 92.7191
L734.076 92.7003
L734.746 92.189
L736.085 92.0043
L738.094 91.2228
L738.763 91.3
L739.433 91.5605
L740.102 91.3278
L740.772 91.2157
L741.442 91.5546
L742.781 91.3693
L744.79 91.1101
L746.129 91.3317
L746.798 91.1023
L747.468 91.1218
L748.138 90.9241
L749.477 91.2896
L752.825 91.0103
L753.494 91.1704
L754.164 91.0524
L754.834 91.0557
L755.503 90.9338
L756.842 91.0686
L757.512 90.7407
L758.182 90.5528
L759.521 90.8937
L761.53 90.4647
L762.869 90.7556
L764.208 90.5807
L765.547 90.4077
L766.217 90.571
L767.556 91.1652
L768.226 90.9332
L769.565 90.9092
L770.904 91.1879
L771.574 91.1606
L772.913 91.6155
L774.252 91.414
L774.922 91.1535
L776.261 91.1516
L776.93 91.3116
L777.6 91.1866
L777.6 91.1866" style="fill:none;stroke:#008000;stroke-linecap:square;"/>
   </g>
   <g id="line2d_3">
    <path clip-path="url(#p7ceb695115)" d="
M108 556.707
L108.67 556.791
L109.339 556.618
L112.018 556.786
L112.687 556.594
L114.026 556.811
L115.366 556.999
L116.705 556.705
L117.374 556.815
L118.044 556.697
L118.714 556.81
L120.722 556.797
L122.062 557.05
L122.731 556.928
L124.07 557.268
L124.74 557.155
L126.749 557.345
L127.418 557.063
L128.088 557.22
L128.758 557.255
L130.097 557.078
L131.436 557.216
L132.106 557.258
L132.775 557.168
L133.445 556.905
L134.784 556.878
L135.454 556.679
L136.123 556.944
L137.462 557.064
L139.471 556.928
L140.81 556.655
L142.819 556.774
L143.489 556.87
L144.828 556.714
L146.167 556.983
L148.176 557.024
L148.846 556.899
L149.515 557.078
L151.524 557.086
L152.863 557.15
L153.533 557.406
L154.202 557.279
L156.211 557.422
L157.55 557.441
L160.229 556.916
L160.898 557.135
L162.907 557.125
L166.255 557.09
L166.925 557.121
L167.594 556.959
L168.934 557.216
L169.603 557.179
L170.273 557.393
L174.29 557.371
L174.96 557.177
L175.63 557.182
L176.299 557.033
L176.969 557.135
L177.638 556.955
L178.308 557.083
L179.647 557.169
L180.986 557.36
L181.656 557.232
L182.326 557.344
L182.995 557.331
L183.665 557.104
L185.004 556.956
L185.674 556.51
L186.343 556.461
L187.013 556.637
L187.682 556.643
L188.352 557.108
L190.361 557.557
L191.03 557.457
L191.7 557.485
L192.37 557.227
L194.378 557.229
L196.387 557.194
L197.057 556.919
L198.396 556.885
L199.066 556.955
L200.405 556.81
L201.074 557.019
L201.744 557.058
L202.414 557.233
L203.083 557.137
L203.753 557.25
L205.092 557.077
L205.762 557.288
L206.431 557.132
L207.101 557.414
L207.77 557.414
L208.44 557.236
L209.11 557.312
L209.779 557.162
L210.449 557.148
L211.118 557.262
L211.788 557.233
L212.458 557.415
L214.466 557.506
L215.136 557.312
L215.806 557.511
L216.475 557.321
L217.814 557.423
L218.484 557.092
L219.154 556.923
L219.823 557.086
L221.162 556.883
L221.832 556.772
L222.502 556.808
L223.171 556.725
L223.841 556.883
L224.51 556.654
L226.519 556.959
L227.189 556.795
L229.198 557.023
L229.867 557.237
L230.537 557.296
L231.876 557.134
L232.546 557.417
L233.215 557.249
L233.885 556.871
L235.224 557.028
L235.894 557.172
L236.563 556.997
L237.902 557.025
L238.572 556.746
L239.911 556.951
L240.581 556.736
L241.25 556.975
L241.92 557.003
L242.59 556.916
L243.259 557.068
L243.929 556.865
L245.268 557.1
L246.607 557.092
L247.946 556.874
L248.616 556.683
L249.286 556.921
L250.625 556.981
L251.294 556.992
L254.642 557.516
L255.982 557.505
L256.651 557.464
L257.321 557.555
L258.66 557.477
L259.33 557.199
L261.338 557.476
L262.008 557.303
L263.347 557.34
L264.017 557.027
L266.026 557.293
L266.695 557.471
L268.034 557.311
L268.704 557.313
L269.374 557.452
L270.713 557.467
L271.382 557.196
L272.722 557.033
L273.391 557.095
L274.73 556.936
L276.739 556.853
L277.409 556.615
L278.748 556.526
L280.087 556.718
L280.757 557.04
L283.435 556.984
L284.105 557.318
L284.774 557.469
L286.783 557.477
L288.122 557.344
L288.792 557.439
L289.462 557.234
L290.131 557.318
L290.801 557.063
L292.14 556.936
L294.149 557.199
L294.818 557.012
L296.158 557.371
L297.497 557.129
L298.166 557.037
L298.836 557.316
L300.175 556.991
L304.193 557.095
L306.202 556.592
L307.541 556.738
L308.21 556.913
L309.55 556.754
L310.219 556.928
L311.558 556.944
L312.228 556.749
L316.246 556.677
L316.915 556.953
L319.594 557.062
L320.263 556.988
L321.602 557.018
L322.272 556.862
L322.942 556.526
L324.95 556.175
L326.959 556.539
L328.298 556.452
L330.977 556.668
L331.646 556.892
L332.986 556.925
L333.655 556.744
L334.994 556.699
L336.334 556.73
L337.003 556.668
L337.673 556.49
L338.342 556.548
L339.682 556.353
L340.351 556.186
L343.03 556.311
L343.699 556.635
L344.369 556.386
L345.708 556.403
L346.378 556.71
L347.717 556.672
L348.386 556.552
L349.056 556.721
L353.074 556.84
L354.413 556.547
L355.082 556.654
L355.752 556.637
L356.422 556.821
L357.091 557.203
L359.1 557.066
L359.77 556.904
L361.109 557.012
L361.778 556.97
L363.787 557.307
L367.805 557.019
L369.144 557.13
L369.814 557.31
L370.483 557.183
L371.153 557.294
L372.492 556.981
L373.831 557.099
L374.501 557.02
L375.84 557.01
L376.51 556.589
L377.179 556.781
L377.849 556.672
L379.188 556.874
L379.858 556.781
L380.527 556.917
L383.206 556.52
L385.214 556.695
L387.223 556.478
L387.893 556.654
L388.562 556.618
L389.902 556.799
L390.571 556.927
L391.91 556.927
L392.58 557.053
L393.25 556.995
L393.919 557.083
L395.258 557.024
L396.598 557.166
L397.267 557.213
L398.606 557.152
L400.615 557.178
L402.624 557.058
L403.294 557.09
L404.633 556.986
L405.302 556.987
L405.972 557.186
L406.642 556.921
L407.311 556.892
L407.981 557.038
L408.65 557.018
L409.32 557.121
L409.99 556.988
L414.007 557.393
L417.355 556.815
L418.025 556.888
L419.364 556.762
L421.373 556.895
L422.712 556.732
L424.051 556.487
L424.721 556.66
L425.39 556.996
L426.73 557.042
L427.399 556.986
L428.069 557.193
L428.738 557.179
L429.408 556.999
L430.747 557.218
L432.086 557.216
L432.756 557.02
L433.426 557.201
L434.095 557.108
L435.434 557.189
L436.104 556.951
L436.774 556.945
L437.443 556.62
L438.782 556.652
L440.122 556.471
L440.791 556.723
L441.461 556.444
L442.8 556.448
L443.47 556.722
L444.809 557.073
L445.478 557.373
L446.148 557.849
L446.818 558.474
L447.487 558.846
L452.174 562.962
L453.514 563.545
L454.853 564.067
L455.522 564.399
L456.192 564.326
L458.201 565.049
L460.21 565.714
L460.879 565.668
L461.549 565.363
L462.218 565.578
L462.888 565.49
L464.227 565.677
L464.897 565.702
L465.566 565.979
L466.236 565.964
L466.906 566.12
L467.575 566.477
L468.245 566.285
L470.254 566.181
L470.923 565.942
L472.262 566.141
L472.932 566.051
L473.602 566.127
L476.28 565.999
L476.95 566.085
L477.619 565.807
L478.958 565.591
L479.628 565.667
L482.306 565.323
L483.646 564.653
L484.315 564.6
L484.985 564.761
L487.663 564.466
L488.333 564.457
L489.002 564.646
L490.342 564.448
L491.011 564.319
L491.681 563.976
L494.359 564.107
L497.038 563.704
L497.707 563.856
L498.377 563.671
L499.046 563.79
L500.386 563.628
L501.725 563.791
L502.394 563.916
L503.734 563.491
L504.403 563.409
L505.073 563.706
L505.742 563.801
L506.412 563.604
L507.082 563.863
L508.421 563.741
L509.76 563.722
L510.43 563.912
L511.769 563.948
L513.108 563.746
L513.778 563.913
L517.126 563.28
L517.795 563.303
L519.134 563.13
L521.143 563.363
L521.813 563.268
L522.482 563.52
L523.152 563.558
L523.822 563.254
L524.491 563.375
L525.83 563.202
L526.5 563.037
L527.839 563.196
L528.509 563.323
L530.518 562.97
L531.187 562.853
L531.857 563.028
L533.196 562.828
L533.866 562.845
L534.535 562.729
L536.544 562.905
L537.214 562.81
L538.553 563.059
L539.892 562.839
L541.231 562.61
L541.901 562.587
L543.24 562.176
L543.91 562.219
L544.579 562.09
L547.258 562.034
L547.927 561.982
L548.597 561.669
L549.936 561.902
L551.275 561.904
L552.614 562.048
L553.954 562.073
L555.962 561.807
L556.632 562.01
L557.302 562.073
L557.971 561.931
L559.31 562.216
L559.98 562.165
L560.65 562.305
L563.328 562.301
L563.998 562.104
L564.667 562.348
L565.337 562.204
L568.685 562.297
L569.354 562.127
L571.363 562.117
L572.033 561.926
L573.372 561.863
L574.042 561.594
L575.381 561.493
L578.059 561.143
L578.729 561.32
L582.077 560.917
L583.416 560.687
L584.086 560.226
L584.755 560.482
L588.103 560.105
L590.782 560.531
L592.121 560.619
L593.46 560.935
L594.13 560.731
L596.138 560.701
L597.478 560.261
L598.147 560.291
L598.817 560.191
L599.486 560.31
L600.156 560.242
L601.495 560.519
L602.165 560.282
L603.504 560.09
L604.843 560.123
L608.861 559.856
L609.53 559.908
L610.2 559.715
L610.87 559.744
L611.539 559.645
L612.209 559.693
L613.548 559.667
L614.887 559.691
L615.557 559.711
L616.896 559.461
L618.235 559.442
L620.914 559.372
L621.583 559.485
L622.253 559.802
L623.592 559.838
L624.931 559.851
L625.601 559.774
L626.27 559.843
L626.94 559.718
L627.61 559.786
L628.279 560.019
L628.949 559.917
L629.618 560.113
L630.288 559.989
L631.627 560.052
L632.966 559.598
L633.636 559.798
L636.314 559.558
L637.654 559.787
L638.323 559.652
L645.019 559.472
L646.358 559.823
L647.028 559.877
L648.367 559.82
L649.037 559.805
L649.706 559.991
L651.046 559.592
L653.054 559.63
L653.724 559.923
L654.394 559.897
L655.733 559.686
L656.402 559.696
L657.072 559.468
L657.742 559.447
L658.411 559.289
L660.42 559.194
L661.09 559.488
L661.759 559.385
L663.098 559.39
L663.768 559.286
L664.438 559.456
L665.777 559.349
L666.446 559.637
L667.116 559.534
L668.455 559.884
L669.125 559.991
L672.473 559.564
L673.142 559.76
L673.812 559.686
L675.151 559.281
L676.49 559.429
L677.16 559.383
L677.83 559.568
L679.169 559.648
L680.508 559.009
L681.847 559.038
L682.517 558.947
L683.856 558.977
L684.526 558.878
L685.195 558.619
L685.865 558.518
L687.204 558.877
L689.213 558.746
L689.882 558.555
L690.552 558.592
L691.891 558.986
L693.23 558.623
L695.239 558.692
L695.909 558.457
L697.248 558.634
L697.918 558.646
L698.587 558.787
L699.257 559.047
L699.926 558.789
L700.596 558.812
L701.935 558.726
L703.274 558.866
L703.944 558.73
L705.953 558.952
L706.622 558.695
L708.631 558.606
L709.301 558.838
L709.97 558.8
L710.64 558.647
L711.31 558.816
L711.979 558.676
L713.988 558.92
L715.327 558.717
L715.997 558.758
L716.666 559.071
L718.006 558.881
L721.354 559.113
L724.032 558.352
L724.702 558.647
L725.371 558.727
L730.058 558.284
L731.398 558.157
L732.067 558.112
L734.076 557.508
L734.746 557.659
L736.085 557.811
L738.094 558.054
L738.763 558.113
L740.102 557.953
L740.772 558.091
L741.442 557.985
L743.45 558.223
L744.12 558.42
L744.79 558.19
L750.146 557.831
L751.486 558.115
L753.494 557.922
L758.851 558.244
L760.19 558.325
L760.86 558.462
L764.208 558.439
L764.878 558.49
L765.547 558.422
L766.217 558.016
L767.556 557.715
L768.226 557.841
L772.913 557.23
L773.582 557.18
L775.591 557.321
L776.93 557.246
L777.6 557.359
L777.6 557.359" style="fill:none;stroke:#0000ff;stroke-linecap:square;"/>
   </g>
   <g id="patch_3">
    <path d="
M108 64.8
L777.6 64.8" style="fill:none;stroke:#000000;stroke-linecap:square;stroke-linejoin:miter;"/>
   </g>
   <g id="patch_4">
    <path d="
M108 583.2
L777.6 583.2" style="fill:none;stroke:#000000;stroke-linecap:square;stroke-linejoin:miter;"/>
   </g>
   <g id="patch_5">
    <path d="
M108 583.2
L108 64.8" style="fill:none;stroke:#000000;stroke-linecap:square;stroke-linejoin:miter;"/>
   </g>
   <g id="patch_6">
    <path d="
M777.6 583.2
L777.6 64.8" style="fill:none;stroke:#000000;stroke-linecap:square;stroke-linejoin:miter;"/>
   </g>
   <g id="matplotlib.axis_1">
    <g id="xtick_1">
     <g id="line2d_4">
      <defs>
       <path d="
M0 0
L0 -4" id="mc7db9fdffb" style="stroke:#000000;stroke-width:0.5;"/>
      </defs>
      <g>
       <use style="stroke:#000000;stroke-width:0.5;" x="108.0" xlink:href="#mc7db9fdffb" y="583.2"/>
      </g>
     </g>
     <g id="line2d_5">
      <defs>
       <path d="
M0 0
L0 4" id="m5a7d422ac3" style="stroke:#000000;stroke-width:0.5;"/>
      </defs>
      <g>
       <use style="stroke:#000000;stroke-width:0.5;" x="108.0" xlink:href="#m5a7d422ac3" y="64.8"/>
      </g>
     </g>
     <g id="text_1">
      <!-- 0 -->
      <defs>
       <path d="
M31.7812 66.4062
Q24.1719 66.4062 20.3281 58.9062
Q16.5 51.4219 16.5 36.375
Q16.5 21.3906 20.3281 13.8906
Q24.1719 6.39062 31.7812 6.39062
Q39.4531 6.39062 43.2812 13.8906
Q47.125 21.3906 47.125 36.375
Q47.125 51.4219 43.2812 58.9062
Q39.4531 66.4062 31.7812 66.4062
M31.7812 74.2188
Q44.0469 74.2188 50.5156 64.5156
Q56.9844 54.8281 56.9844 36.375
Q56.9844 17.9688 50.5156 8.26562
Q44.0469 -1.42188 31.7812 -1.42188
Q19.5312 -1.42188 13.0625 8.26562
Q6.59375 17.9688 6.59375 36.375
Q6.59375 54.8281 13.0625 64.5156
Q19.5312 74.2188 31.7812 74.2188" id="BitstreamVeraSans-Roman-30"/>
      </defs>
      <g transform="translate(104.9765625 596.318125)scale(0.12 -0.12)">
       <use xlink:href="#BitstreamVeraSans-Roman-30"/>
      </g>
     </g>
    </g>
    <g id="xtick_2">
     <g id="line2d_6">
      <g>
       <use style="stroke:#000000;stroke-width:0.5;" x="275.4" xlink:href="#mc7db9fdffb" y="583.2"/>
      </g>
     </g>
     <g id="line2d_7">
      <g>
       <use style="stroke:#000000;stroke-width:0.5;" x="275.4" xlink:href="#m5a7d422ac3" y="64.8"/>
      </g>
     </g>
     <g id="text_2">
      <!-- 50000 -->
      <defs>
       <path d="
M10.7969 72.9062
L49.5156 72.9062
L49.5156 64.5938
L19.8281 64.5938
L19.8281 46.7344
Q21.9688 47.4688 24.1094 47.8281
Q26.2656 48.1875 28.4219 48.1875
Q40.625 48.1875 47.75 41.5
Q54.8906 34.8125 54.8906 23.3906
Q54.8906 11.625 47.5625 5.09375
Q40.2344 -1.42188 26.9062 -1.42188
Q22.3125 -1.42188 17.5469 -0.640625
Q12.7969 0.140625 7.71875 1.70312
L7.71875 11.625
Q12.1094 9.23438 16.7969 8.0625
Q21.4844 6.89062 26.7031 6.89062
Q35.1562 6.89062 40.0781 11.3281
Q45.0156 15.7656 45.0156 23.3906
Q45.0156 31 40.0781 35.4375
Q35.1562 39.8906 26.7031 39.8906
Q22.75 39.8906 18.8125 39.0156
Q14.8906 38.1406 10.7969 36.2812
z
" id="BitstreamVeraSans-Roman-35"/>
      </defs>
      <g transform="translate(257.1740625 596.318125)scale(0.12 -0.12)">
       <use xlink:href="#BitstreamVeraSans-Roman-35"/>
       <use x="63.623046875" xlink:href="#BitstreamVeraSans-Roman-30"/>
       <use x="127.24609375" xlink:href="#BitstreamVeraSans-Roman-30"/>
       <use x="190.869140625" xlink:href="#BitstreamVeraSans-Roman-30"/>
       <use x="254.4921875" xlink:href="#BitstreamVeraSans-Roman-30"/>
      </g>
     </g>
    </g>
    <g id="xtick_3">
     <g id="line2d_8">
      <g>
       <use style="stroke:#000000;stroke-width:0.5;" x="442.8" xlink:href="#mc7db9fdffb" y="583.2"/>
      </g>
     </g>
     <g id="line2d_9">
      <g>
       <use style="stroke:#000000;stroke-width:0.5;" x="442.8" xlink:href="#m5a7d422ac3" y="64.8"/>
      </g>
     </g>
     <g id="text_3">
      <!-- 100000 -->
      <defs>
       <path d="
M12.4062 8.29688
L28.5156 8.29688
L28.5156 63.9219
L10.9844 60.4062
L10.9844 69.3906
L28.4219 72.9062
L38.2812 72.9062
L38.2812 8.29688
L54.3906 8.29688
L54.3906 0
L12.4062 0
z
" id="BitstreamVeraSans-Roman-31"/>
      </defs>
      <g transform="translate(420.9525 596.318125)scale(0.12 -0.12)">
       <use xlink:href="#BitstreamVeraSans-Roman-31"/>
       <use x="63.623046875" xlink:href="#BitstreamVeraSans-Roman-30"/>
       <use x="127.24609375" xlink:href="#BitstreamVeraSans-Roman-30"/>
       <use x="190.869140625" xlink:href="#BitstreamVeraSans-Roman-30"/>
       <use x="254.4921875" xlink:href="#BitstreamVeraSans-Roman-30"/>
       <use x="318.115234375" xlink:href="#BitstreamVeraSans-Roman-30"/>
      </g>
     </g>
    </g>
    <g id="xtick_4">
     <g id="line2d_10">
      <g>
       <use style="stroke:#000000;stroke-width:0.5;" x="610.2" xlink:href="#mc7db9fdffb" y="583.2"/>
      </g>
     </g>
     <g id="line2d_11">
      <g>
       <use style="stroke:#000000;stroke-width:0.5;" x="610.2" xlink:href="#m5a7d422ac3" y="64.8"/>
      </g>
     </g>
     <g id="text_4">
      <!-- 150000 -->
      <g transform="translate(588.3525 596.318125)scale(0.12 -0.12)">
       <use xlink:href="#BitstreamVeraSans-Roman-31"/>
       <use x="63.623046875" xlink:href="#BitstreamVeraSans-Roman-35"/>
       <use x="127.24609375" xlink:href="#BitstreamVeraSans-Roman-30"/>
       <use x="190.869140625" xlink:href="#BitstreamVeraSans-Roman-30"/>
       <use x="254.4921875" xlink:href="#BitstreamVeraSans-Roman-30"/>
       <use x="318.115234375" xlink:href="#BitstreamVeraSans-Roman-30"/>
      </g>
     </g>
    </g>
    <g id="xtick_5">
     <g id="line2d_12">
      <g>
       <use style="stroke:#000000;stroke-width:0.5;" x="777.6" xlink:href="#mc7db9fdffb" y="583.2"/>
      </g>
     </g>
     <g id="line2d_13">
      <g>
       <use style="stroke:#000000;stroke-width:0.5;" x="777.6" xlink:href="#m5a7d422ac3" y="64.8"/>
      </g>
     </g>
     <g id="text_5">
      <!-- 200000 -->
      <defs>
       <path d="
M19.1875 8.29688
L53.6094 8.29688
L53.6094 0
L7.32812 0
L7.32812 8.29688
Q12.9375 14.1094 22.625 23.8906
Q32.3281 33.6875 34.8125 36.5312
Q39.5469 41.8438 41.4219 45.5312
Q43.3125 49.2188 43.3125 52.7812
Q43.3125 58.5938 39.2344 62.25
Q35.1562 65.9219 28.6094 65.9219
Q23.9688 65.9219 18.8125 64.3125
Q13.6719 62.7031 7.8125 59.4219
L7.8125 69.3906
Q13.7656 71.7812 18.9375 73
Q24.125 74.2188 28.4219 74.2188
Q39.75 74.2188 46.4844 68.5469
Q53.2188 62.8906 53.2188 53.4219
Q53.2188 48.9219 51.5312 44.8906
Q49.8594 40.875 45.4062 35.4062
Q44.1875 33.9844 37.6406 27.2188
Q31.1094 20.4531 19.1875 8.29688" id="BitstreamVeraSans-Roman-32"/>
      </defs>
      <g transform="translate(755.533125 596.318125)scale(0.12 -0.12)">
       <use xlink:href="#BitstreamVeraSans-Roman-32"/>
       <use x="63.623046875" xlink:href="#BitstreamVeraSans-Roman-30"/>
       <use x="127.24609375" xlink:href="#BitstreamVeraSans-Roman-30"/>
       <use x="190.869140625" xlink:href="#BitstreamVeraSans-Roman-30"/>
       <use x="254.4921875" xlink:href="#BitstreamVeraSans-Roman-30"/>
       <use x="318.115234375" xlink:href="#BitstreamVeraSans-Roman-30"/>
      </g>
     </g>
    </g>
    <g id="text_6">
     <!-- t / ms -->
     <defs>
      <path d="
M52 44.1875
Q55.375 50.25 60.0625 53.125
Q64.75 56 71.0938 56
Q79.6406 56 84.2812 50.0156
Q88.9219 44.0469 88.9219 33.0156
L88.9219 0
L79.8906 0
L79.8906 32.7188
Q79.8906 40.5781 77.0938 44.375
Q74.3125 48.1875 68.6094 48.1875
Q61.625 48.1875 57.5625 43.5469
Q53.5156 38.9219 53.5156 30.9062
L53.5156 0
L44.4844 0
L44.4844 32.7188
Q44.4844 40.625 41.7031 44.4062
Q38.9219 48.1875 33.1094 48.1875
Q26.2188 48.1875 22.1562 43.5312
Q18.1094 38.875 18.1094 30.9062
L18.1094 0
L9.07812 0
L9.07812 54.6875
L18.1094 54.6875
L18.1094 46.1875
Q21.1875 51.2188 25.4844 53.6094
Q29.7812 56 35.6875 56
Q41.6562 56 45.8281 52.9688
Q50 49.9531 52 44.1875" id="BitstreamVeraSans-Roman-6d"/>
      <path d="
M18.3125 70.2188
L18.3125 54.6875
L36.8125 54.6875
L36.8125 47.7031
L18.3125 47.7031
L18.3125 18.0156
Q18.3125 11.3281 20.1406 9.42188
Q21.9688 7.51562 27.5938 7.51562
L36.8125 7.51562
L36.8125 0
L27.5938 0
Q17.1875 0 13.2344 3.875
Q9.28125 7.76562 9.28125 18.0156
L9.28125 47.7031
L2.6875 47.7031
L2.6875 54.6875
L9.28125 54.6875
L9.28125 70.2188
z
" id="BitstreamVeraSans-Roman-74"/>
      <path d="
M44.2812 53.0781
L44.2812 44.5781
Q40.4844 46.5312 36.375 47.5
Q32.2812 48.4844 27.875 48.4844
Q21.1875 48.4844 17.8438 46.4375
Q14.5 44.3906 14.5 40.2812
Q14.5 37.1562 16.8906 35.375
Q19.2812 33.5938 26.5156 31.9844
L29.5938 31.2969
Q39.1562 29.25 43.1875 25.5156
Q47.2188 21.7812 47.2188 15.0938
Q47.2188 7.46875 41.1875 3.01562
Q35.1562 -1.42188 24.6094 -1.42188
Q20.2188 -1.42188 15.4531 -0.5625
Q10.6875 0.296875 5.42188 2
L5.42188 11.2812
Q10.4062 8.6875 15.2344 7.39062
Q20.0625 6.10938 24.8125 6.10938
Q31.1562 6.10938 34.5625 8.28125
Q37.9844 10.4531 37.9844 14.4062
Q37.9844 18.0625 35.5156 20.0156
Q33.0625 21.9688 24.7031 23.7812
L21.5781 24.5156
Q13.2344 26.2656 9.51562 29.9062
Q5.8125 33.5469 5.8125 39.8906
Q5.8125 47.6094 11.2812 51.7969
Q16.75 56 26.8125 56
Q31.7812 56 36.1719 55.2656
Q40.5781 54.5469 44.2812 53.0781" id="BitstreamVeraSans-Roman-73"/>
      <path id="BitstreamVeraSans-Roman-20"/>
      <path d="
M25.3906 72.9062
L33.6875 72.9062
L8.29688 -9.28125
L0 -9.28125
z
" id="BitstreamVeraSans-Roman-2f"/>
     </defs>
     <g transform="translate(425.9353125 612.931875)scale(0.12 -0.12)">
      <use xlink:href="#BitstreamVeraSans-Roman-74"/>
      <use x="39.208984375" xlink:href="#BitstreamVeraSans-Roman-20"/>
      <use x="70.99609375" xlink:href="#BitstreamVeraSans-Roman-2f"/>
      <use x="104.6875" xlink:href="#BitstreamVeraSans-Roman-20"/>
      <use x="136.474609375" xlink:href="#BitstreamVeraSans-Roman-6d"/>
      <use x="233.88671875" xlink:href="#BitstreamVeraSans-Roman-73"/>
     </g>
    </g>
   </g>
   <g id="matplotlib.axis_2">
    <g id="ytick_1">
     <g id="line2d_14">
      <defs>
       <path d="
M0 0
L4 0" id="md7965d1ba0" style="stroke:#000000;stroke-width:0.5;"/>
      </defs>
      <g>
       <use style="stroke:#000000;stroke-width:0.5;" x="108.0" xlink:href="#md7965d1ba0" y="583.2"/>
      </g>
     </g>
     <g id="line2d_15">
      <defs>
       <path d="
M0 0
L-4 0" id="md9a1c1a7cd" style="stroke:#000000;stroke-width:0.5;"/>
      </defs>
      <g>
       <use style="stroke:#000000;stroke-width:0.5;" x="777.6" xlink:href="#md9a1c1a7cd" y="583.2"/>
      </g>
     </g>
     <g id="text_7">
      <!-- 200000 -->
      <g transform="translate(59.86625 586.51125)scale(0.12 -0.12)">
       <use xlink:href="#BitstreamVeraSans-Roman-32"/>
       <use x="63.623046875" xlink:href="#BitstreamVeraSans-Roman-30"/>
       <use x="127.24609375" xlink:href="#BitstreamVeraSans-Roman-30"/>
       <use x="190.869140625" xlink:href="#BitstreamVeraSans-Roman-30"/>
       <use x="254.4921875" xlink:href="#BitstreamVeraSans-Roman-30"/>
       <use x="318.115234375" xlink:href="#BitstreamVeraSans-Roman-30"/>
      </g>
     </g>
    </g>
    <g id="ytick_2">
     <g id="line2d_16">
      <g>
       <use style="stroke:#000000;stroke-width:0.5;" x="108.0" xlink:href="#md7965d1ba0" y="518.4"/>
      </g>
     </g>
     <g id="line2d_17">
      <g>
       <use style="stroke:#000000;stroke-width:0.5;" x="777.6" xlink:href="#md9a1c1a7cd" y="518.4"/>
      </g>
     </g>
     <g id="text_8">
      <!-- 300000 -->
      <defs>
       <path d="
M40.5781 39.3125
Q47.6562 37.7969 51.625 33
Q55.6094 28.2188 55.6094 21.1875
Q55.6094 10.4062 48.1875 4.48438
Q40.7656 -1.42188 27.0938 -1.42188
Q22.5156 -1.42188 17.6562 -0.515625
Q12.7969 0.390625 7.625 2.20312
L7.625 11.7188
Q11.7188 9.32812 16.5938 8.10938
Q21.4844 6.89062 26.8125 6.89062
Q36.0781 6.89062 40.9375 10.5469
Q45.7969 14.2031 45.7969 21.1875
Q45.7969 27.6406 41.2812 31.2656
Q36.7656 34.9062 28.7188 34.9062
L20.2188 34.9062
L20.2188 43.0156
L29.1094 43.0156
Q36.375 43.0156 40.2344 45.9219
Q44.0938 48.8281 44.0938 54.2969
Q44.0938 59.9062 40.1094 62.9062
Q36.1406 65.9219 28.7188 65.9219
Q24.6562 65.9219 20.0156 65.0312
Q15.375 64.1562 9.8125 62.3125
L9.8125 71.0938
Q15.4375 72.6562 20.3438 73.4375
Q25.25 74.2188 29.5938 74.2188
Q40.8281 74.2188 47.3594 69.1094
Q53.9062 64.0156 53.9062 55.3281
Q53.9062 49.2656 50.4375 45.0938
Q46.9688 40.9219 40.5781 39.3125" id="BitstreamVeraSans-Roman-33"/>
      </defs>
      <g transform="translate(59.901875 521.71125)scale(0.12 -0.12)">
       <use xlink:href="#BitstreamVeraSans-Roman-33"/>
       <use x="63.623046875" xlink:href="#BitstreamVeraSans-Roman-30"/>
       <use x="127.24609375" xlink:href="#BitstreamVeraSans-Roman-30"/>
       <use x="190.869140625" xlink:href="#BitstreamVeraSans-Roman-30"/>
       <use x="254.4921875" xlink:href="#BitstreamVeraSans-Roman-30"/>
       <use x="318.115234375" xlink:href="#BitstreamVeraSans-Roman-30"/>
      </g>
     </g>
    </g>
    <g id="ytick_3">
     <g id="line2d_18">
      <g>
       <use style="stroke:#000000;stroke-width:0.5;" x="108.0" xlink:href="#md7965d1ba0" y="453.6"/>
      </g>
     </g>
     <g id="line2d_19">
      <g>
       <use style="stroke:#000000;stroke-width:0.5;" x="777.6" xlink:href="#md9a1c1a7cd" y="453.6"/>
      </g>
     </g>
     <g id="text_9">
      <!-- 400000 -->
      <defs>
       <path d="
M37.7969 64.3125
L12.8906 25.3906
L37.7969 25.3906
z

M35.2031 72.9062
L47.6094 72.9062
L47.6094 25.3906
L58.0156 25.3906
L58.0156 17.1875
L47.6094 17.1875
L47.6094 0
L37.7969 0
L37.7969 17.1875
L4.89062 17.1875
L4.89062 26.7031
z
" id="BitstreamVeraSans-Roman-34"/>
      </defs>
      <g transform="translate(59.57375 456.91125)scale(0.12 -0.12)">
       <use xlink:href="#BitstreamVeraSans-Roman-34"/>
       <use x="63.623046875" xlink:href="#BitstreamVeraSans-Roman-30"/>
       <use x="127.24609375" xlink:href="#BitstreamVeraSans-Roman-30"/>
       <use x="190.869140625" xlink:href="#BitstreamVeraSans-Roman-30"/>
       <use x="254.4921875" xlink:href="#BitstreamVeraSans-Roman-30"/>
       <use x="318.115234375" xlink:href="#BitstreamVeraSans-Roman-30"/>
      </g>
     </g>
    </g>
    <g id="ytick_4">
     <g id="line2d_20">
      <g>
       <use style="stroke:#000000;stroke-width:0.5;" x="108.0" xlink:href="#md7965d1ba0" y="388.8"/>
      </g>
     </g>
     <g id="line2d_21">
      <g>
       <use style="stroke:#000000;stroke-width:0.5;" x="777.6" xlink:href="#md9a1c1a7cd" y="388.8"/>
      </g>
     </g>
     <g id="text_10">
      <!-- 500000 -->
      <g transform="translate(59.913125 392.11125)scale(0.12 -0.12)">
       <use xlink:href="#BitstreamVeraSans-Roman-35"/>
       <use x="63.623046875" xlink:href="#BitstreamVeraSans-Roman-30"/>
       <use x="127.24609375" xlink:href="#BitstreamVeraSans-Roman-30"/>
       <use x="190.869140625" xlink:href="#BitstreamVeraSans-Roman-30"/>
       <use x="254.4921875" xlink:href="#BitstreamVeraSans-Roman-30"/>
       <use x="318.115234375" xlink:href="#BitstreamVeraSans-Roman-30"/>
      </g>
     </g>
    </g>
    <g id="ytick_5">
     <g id="line2d_22">
      <g>
       <use style="stroke:#000000;stroke-width:0.5;" x="108.0" xlink:href="#md7965d1ba0" y="324.0"/>
      </g>
     </g>
     <g id="line2d_23">
      <g>
       <use style="stroke:#000000;stroke-width:0.5;" x="777.6" xlink:href="#md9a1c1a7cd" y="324.0"/>
      </g>
     </g>
     <g id="text_11">
      <!-- 600000 -->
      <defs>
       <path d="
M33.0156 40.375
Q26.375 40.375 22.4844 35.8281
Q18.6094 31.2969 18.6094 23.3906
Q18.6094 15.5312 22.4844 10.9531
Q26.375 6.39062 33.0156 6.39062
Q39.6562 6.39062 43.5312 10.9531
Q47.4062 15.5312 47.4062 23.3906
Q47.4062 31.2969 43.5312 35.8281
Q39.6562 40.375 33.0156 40.375
M52.5938 71.2969
L52.5938 62.3125
Q48.875 64.0625 45.0938 64.9844
Q41.3125 65.9219 37.5938 65.9219
Q27.8281 65.9219 22.6719 59.3281
Q17.5312 52.7344 16.7969 39.4062
Q19.6719 43.6562 24.0156 45.9219
Q28.375 48.1875 33.5938 48.1875
Q44.5781 48.1875 50.9531 41.5156
Q57.3281 34.8594 57.3281 23.3906
Q57.3281 12.1562 50.6875 5.35938
Q44.0469 -1.42188 33.0156 -1.42188
Q20.3594 -1.42188 13.6719 8.26562
Q6.98438 17.9688 6.98438 36.375
Q6.98438 53.6562 15.1875 63.9375
Q23.3906 74.2188 37.2031 74.2188
Q40.9219 74.2188 44.7031 73.4844
Q48.4844 72.75 52.5938 71.2969" id="BitstreamVeraSans-Roman-36"/>
      </defs>
      <g transform="translate(59.825 327.31125)scale(0.12 -0.12)">
       <use xlink:href="#BitstreamVeraSans-Roman-36"/>
       <use x="63.623046875" xlink:href="#BitstreamVeraSans-Roman-30"/>
       <use x="127.24609375" xlink:href="#BitstreamVeraSans-Roman-30"/>
       <use x="190.869140625" xlink:href="#BitstreamVeraSans-Roman-30"/>
       <use x="254.4921875" xlink:href="#BitstreamVeraSans-Roman-30"/>
       <use x="318.115234375" xlink:href="#BitstreamVeraSans-Roman-30"/>
      </g>
     </g>
    </g>
    <g id="ytick_6">
     <g id="line2d_24">
      <g>
       <use style="stroke:#000000;stroke-width:0.5;" x="108.0" xlink:href="#md7965d1ba0" y="259.2"/>
      </g>
     </g>
     <g id="line2d_25">
      <g>
       <use style="stroke:#000000;stroke-width:0.5;" x="777.6" xlink:href="#md9a1c1a7cd" y="259.2"/>
      </g>
     </g>
     <g id="text_12">
      <!-- 700000 -->
      <defs>
       <path d="
M8.20312 72.9062
L55.0781 72.9062
L55.0781 68.7031
L28.6094 0
L18.3125 0
L43.2188 64.5938
L8.20312 64.5938
z
" id="BitstreamVeraSans-Roman-37"/>
      </defs>
      <g transform="translate(59.97125 262.51125)scale(0.12 -0.12)">
       <use xlink:href="#BitstreamVeraSans-Roman-37"/>
       <use x="63.623046875" xlink:href="#BitstreamVeraSans-Roman-30"/>
       <use x="127.24609375" xlink:href="#BitstreamVeraSans-Roman-30"/>
       <use x="190.869140625" xlink:href="#BitstreamVeraSans-Roman-30"/>
       <use x="254.4921875" xlink:href="#BitstreamVeraSans-Roman-30"/>
       <use x="318.115234375" xlink:href="#BitstreamVeraSans-Roman-30"/>
      </g>
     </g>
    </g>
    <g id="ytick_7">
     <g id="line2d_26">
      <g>
       <use style="stroke:#000000;stroke-width:0.5;" x="108.0" xlink:href="#md7965d1ba0" y="194.4"/>
      </g>
     </g>
     <g id="line2d_27">
      <g>
       <use style="stroke:#000000;stroke-width:0.5;" x="777.6" xlink:href="#md9a1c1a7cd" y="194.4"/>
      </g>
     </g>
     <g id="text_13">
      <!-- 800000 -->
      <defs>
       <path d="
M31.7812 34.625
Q24.75 34.625 20.7188 30.8594
Q16.7031 27.0938 16.7031 20.5156
Q16.7031 13.9219 20.7188 10.1562
Q24.75 6.39062 31.7812 6.39062
Q38.8125 6.39062 42.8594 10.1719
Q46.9219 13.9688 46.9219 20.5156
Q46.9219 27.0938 42.8906 30.8594
Q38.875 34.625 31.7812 34.625
M21.9219 38.8125
Q15.5781 40.375 12.0312 44.7188
Q8.5 49.0781 8.5 55.3281
Q8.5 64.0625 14.7188 69.1406
Q20.9531 74.2188 31.7812 74.2188
Q42.6719 74.2188 48.875 69.1406
Q55.0781 64.0625 55.0781 55.3281
Q55.0781 49.0781 51.5312 44.7188
Q48 40.375 41.7031 38.8125
Q48.8281 37.1562 52.7969 32.3125
Q56.7812 27.4844 56.7812 20.5156
Q56.7812 9.90625 50.3125 4.23438
Q43.8438 -1.42188 31.7812 -1.42188
Q19.7344 -1.42188 13.25 4.23438
Q6.78125 9.90625 6.78125 20.5156
Q6.78125 27.4844 10.7812 32.3125
Q14.7969 37.1562 21.9219 38.8125
M18.3125 54.3906
Q18.3125 48.7344 21.8438 45.5625
Q25.3906 42.3906 31.7812 42.3906
Q38.1406 42.3906 41.7188 45.5625
Q45.3125 48.7344 45.3125 54.3906
Q45.3125 60.0625 41.7188 63.2344
Q38.1406 66.4062 31.7812 66.4062
Q25.3906 66.4062 21.8438 63.2344
Q18.3125 60.0625 18.3125 54.3906" id="BitstreamVeraSans-Roman-38"/>
      </defs>
      <g transform="translate(59.800625 197.71125)scale(0.12 -0.12)">
       <use xlink:href="#BitstreamVeraSans-Roman-38"/>
       <use x="63.623046875" xlink:href="#BitstreamVeraSans-Roman-30"/>
       <use x="127.24609375" xlink:href="#BitstreamVeraSans-Roman-30"/>
       <use x="190.869140625" xlink:href="#BitstreamVeraSans-Roman-30"/>
       <use x="254.4921875" xlink:href="#BitstreamVeraSans-Roman-30"/>
       <use x="318.115234375" xlink:href="#BitstreamVeraSans-Roman-30"/>
      </g>
     </g>
    </g>
    <g id="ytick_8">
     <g id="line2d_28">
      <g>
       <use style="stroke:#000000;stroke-width:0.5;" x="108.0" xlink:href="#md7965d1ba0" y="129.6"/>
      </g>
     </g>
     <g id="line2d_29">
      <g>
       <use style="stroke:#000000;stroke-width:0.5;" x="777.6" xlink:href="#md9a1c1a7cd" y="129.6"/>
      </g>
     </g>
     <g id="text_14">
      <!-- 900000 -->
      <defs>
       <path d="
M10.9844 1.51562
L10.9844 10.5
Q14.7031 8.73438 18.5 7.8125
Q22.3125 6.89062 25.9844 6.89062
Q35.75 6.89062 40.8906 13.4531
Q46.0469 20.0156 46.7812 33.4062
Q43.9531 29.2031 39.5938 26.9531
Q35.25 24.7031 29.9844 24.7031
Q19.0469 24.7031 12.6719 31.3125
Q6.29688 37.9375 6.29688 49.4219
Q6.29688 60.6406 12.9375 67.4219
Q19.5781 74.2188 30.6094 74.2188
Q43.2656 74.2188 49.9219 64.5156
Q56.5938 54.8281 56.5938 36.375
Q56.5938 19.1406 48.4062 8.85938
Q40.2344 -1.42188 26.4219 -1.42188
Q22.7031 -1.42188 18.8906 -0.6875
Q15.0938 0.046875 10.9844 1.51562
M30.6094 32.4219
Q37.25 32.4219 41.125 36.9531
Q45.0156 41.5 45.0156 49.4219
Q45.0156 57.2812 41.125 61.8438
Q37.25 66.4062 30.6094 66.4062
Q23.9688 66.4062 20.0938 61.8438
Q16.2188 57.2812 16.2188 49.4219
Q16.2188 41.5 20.0938 36.9531
Q23.9688 32.4219 30.6094 32.4219" id="BitstreamVeraSans-Roman-39"/>
      </defs>
      <g transform="translate(59.7425 132.91125)scale(0.12 -0.12)">
       <use xlink:href="#BitstreamVeraSans-Roman-39"/>
       <use x="63.623046875" xlink:href="#BitstreamVeraSans-Roman-30"/>
       <use x="127.24609375" xlink:href="#BitstreamVeraSans-Roman-30"/>
       <use x="190.869140625" xlink:href="#BitstreamVeraSans-Roman-30"/>
       <use x="254.4921875" xlink:href="#BitstreamVeraSans-Roman-30"/>
       <use x="318.115234375" xlink:href="#BitstreamVeraSans-Roman-30"/>
      </g>
     </g>
    </g>
    <g id="ytick_9">
     <g id="line2d_30">
      <g>
       <use style="stroke:#000000;stroke-width:0.5;" x="108.0" xlink:href="#md7965d1ba0" y="64.8"/>
      </g>
     </g>
     <g id="line2d_31">
      <g>
       <use style="stroke:#000000;stroke-width:0.5;" x="777.6" xlink:href="#md9a1c1a7cd" y="64.8"/>
      </g>
     </g>
     <g id="text_15">
      <!-- 1000000 -->
      <g transform="translate(52.67 68.11125)scale(0.12 -0.12)">
       <use xlink:href="#BitstreamVeraSans-Roman-31"/>
       <use x="63.623046875" xlink:href="#BitstreamVeraSans-Roman-30"/>
       <use x="127.24609375" xlink:href="#BitstreamVeraSans-Roman-30"/>
       <use x="190.869140625" xlink:href="#BitstreamVeraSans-Roman-30"/>
       <use x="254.4921875" xlink:href="#BitstreamVeraSans-Roman-30"/>
       <use x="318.115234375" xlink:href="#BitstreamVeraSans-Roman-30"/>
       <use x="381.73828125" xlink:href="#BitstreamVeraSans-Roman-30"/>
      </g>
     </g>
    </g>
    <g id="text_16">
     <!-- particle numbers -->
     <defs>
      <path d="
M8.5 21.5781
L8.5 54.6875
L17.4844 54.6875
L17.4844 21.9219
Q17.4844 14.1562 20.5 10.2656
Q23.5312 6.39062 29.5938 6.39062
Q36.8594 6.39062 41.0781 11.0312
Q45.3125 15.6719 45.3125 23.6875
L45.3125 54.6875
L54.2969 54.6875
L54.2969 0
L45.3125 0
L45.3125 8.40625
Q42.0469 3.42188 37.7188 1
Q33.4062 -1.42188 27.6875 -1.42188
Q18.2656 -1.42188 13.375 4.4375
Q8.5 10.2969 8.5 21.5781" id="BitstreamVeraSans-Roman-75"/>
      <path d="
M34.2812 27.4844
Q23.3906 27.4844 19.1875 25
Q14.9844 22.5156 14.9844 16.5
Q14.9844 11.7188 18.1406 8.90625
Q21.2969 6.10938 26.7031 6.10938
Q34.1875 6.10938 38.7031 11.4062
Q43.2188 16.7031 43.2188 25.4844
L43.2188 27.4844
z

M52.2031 31.2031
L52.2031 0
L43.2188 0
L43.2188 8.29688
Q40.1406 3.32812 35.5469 0.953125
Q30.9531 -1.42188 24.3125 -1.42188
Q15.9219 -1.42188 10.9531 3.29688
Q6 8.01562 6 15.9219
Q6 25.1406 12.1719 29.8281
Q18.3594 34.5156 30.6094 34.5156
L43.2188 34.5156
L43.2188 35.4062
Q43.2188 41.6094 39.1406 45
Q35.0625 48.3906 27.6875 48.3906
Q23 48.3906 18.5469 47.2656
Q14.1094 46.1406 10.0156 43.8906
L10.0156 52.2031
Q14.9375 54.1094 19.5781 55.0469
Q24.2188 56 28.6094 56
Q40.4844 56 46.3438 49.8438
Q52.2031 43.7031 52.2031 31.2031" id="BitstreamVeraSans-Roman-61"/>
      <path d="
M9.42188 75.9844
L18.4062 75.9844
L18.4062 0
L9.42188 0
z
" id="BitstreamVeraSans-Roman-6c"/>
      <path d="
M54.8906 33.0156
L54.8906 0
L45.9062 0
L45.9062 32.7188
Q45.9062 40.4844 42.875 44.3281
Q39.8438 48.1875 33.7969 48.1875
Q26.5156 48.1875 22.3125 43.5469
Q18.1094 38.9219 18.1094 30.9062
L18.1094 0
L9.07812 0
L9.07812 54.6875
L18.1094 54.6875
L18.1094 46.1875
Q21.3438 51.125 25.7031 53.5625
Q30.0781 56 35.7969 56
Q45.2188 56 50.0469 50.1719
Q54.8906 44.3438 54.8906 33.0156" id="BitstreamVeraSans-Roman-6e"/>
      <path d="
M9.42188 54.6875
L18.4062 54.6875
L18.4062 0
L9.42188 0
z

M9.42188 75.9844
L18.4062 75.9844
L18.4062 64.5938
L9.42188 64.5938
z
" id="BitstreamVeraSans-Roman-69"/>
      <path d="
M48.7812 52.5938
L48.7812 44.1875
Q44.9688 46.2969 41.1406 47.3438
Q37.3125 48.3906 33.4062 48.3906
Q24.6562 48.3906 19.8125 42.8438
Q14.9844 37.3125 14.9844 27.2969
Q14.9844 17.2812 19.8125 11.7344
Q24.6562 6.20312 33.4062 6.20312
Q37.3125 6.20312 41.1406 7.25
Q44.9688 8.29688 48.7812 10.4062
L48.7812 2.09375
Q45.0156 0.34375 40.9844 -0.53125
Q36.9688 -1.42188 32.4219 -1.42188
Q20.0625 -1.42188 12.7812 6.34375
Q5.51562 14.1094 5.51562 27.2969
Q5.51562 40.6719 12.8594 48.3281
Q20.2188 56 33.0156 56
Q37.1562 56 41.1094 55.1406
Q45.0625 54.2969 48.7812 52.5938" id="BitstreamVeraSans-Roman-63"/>
      <path d="
M18.1094 8.20312
L18.1094 -20.7969
L9.07812 -20.7969
L9.07812 54.6875
L18.1094 54.6875
L18.1094 46.3906
Q20.9531 51.2656 25.2656 53.625
Q29.5938 56 35.5938 56
Q45.5625 56 51.7812 48.0938
Q58.0156 40.1875 58.0156 27.2969
Q58.0156 14.4062 51.7812 6.48438
Q45.5625 -1.42188 35.5938 -1.42188
Q29.5938 -1.42188 25.2656 0.953125
Q20.9531 3.32812 18.1094 8.20312
M48.6875 27.2969
Q48.6875 37.2031 44.6094 42.8438
Q40.5312 48.4844 33.4062 48.4844
Q26.2656 48.4844 22.1875 42.8438
Q18.1094 37.2031 18.1094 27.2969
Q18.1094 17.3906 22.1875 11.75
Q26.2656 6.10938 33.4062 6.10938
Q40.5312 6.10938 44.6094 11.75
Q48.6875 17.3906 48.6875 27.2969" id="BitstreamVeraSans-Roman-70"/>
      <path d="
M56.2031 29.5938
L56.2031 25.2031
L14.8906 25.2031
Q15.4844 15.9219 20.4844 11.0625
Q25.4844 6.20312 34.4219 6.20312
Q39.5938 6.20312 44.4531 7.46875
Q49.3125 8.73438 54.1094 11.2812
L54.1094 2.78125
Q49.2656 0.734375 44.1875 -0.34375
Q39.1094 -1.42188 33.8906 -1.42188
Q20.7969 -1.42188 13.1562 6.1875
Q5.51562 13.8125 5.51562 26.8125
Q5.51562 40.2344 12.7656 48.1094
Q20.0156 56 32.3281 56
Q43.3594 56 49.7812 48.8906
Q56.2031 41.7969 56.2031 29.5938
M47.2188 32.2344
Q47.125 39.5938 43.0938 43.9844
Q39.0625 48.3906 32.4219 48.3906
Q24.9062 48.3906 20.3906 44.1406
Q15.875 39.8906 15.1875 32.1719
z
" id="BitstreamVeraSans-Roman-65"/>
      <path d="
M41.1094 46.2969
Q39.5938 47.1719 37.8125 47.5781
Q36.0312 48 33.8906 48
Q26.2656 48 22.1875 43.0469
Q18.1094 38.0938 18.1094 28.8125
L18.1094 0
L9.07812 0
L9.07812 54.6875
L18.1094 54.6875
L18.1094 46.1875
Q20.9531 51.1719 25.4844 53.5781
Q30.0312 56 36.5312 56
Q37.4531 56 38.5781 55.875
Q39.7031 55.7656 41.0625 55.5156
z
" id="BitstreamVeraSans-Roman-72"/>
      <path d="
M48.6875 27.2969
Q48.6875 37.2031 44.6094 42.8438
Q40.5312 48.4844 33.4062 48.4844
Q26.2656 48.4844 22.1875 42.8438
Q18.1094 37.2031 18.1094 27.2969
Q18.1094 17.3906 22.1875 11.75
Q26.2656 6.10938 33.4062 6.10938
Q40.5312 6.10938 44.6094 11.75
Q48.6875 17.3906 48.6875 27.2969
M18.1094 46.3906
Q20.9531 51.2656 25.2656 53.625
Q29.5938 56 35.5938 56
Q45.5625 56 51.7812 48.0938
Q58.0156 40.1875 58.0156 27.2969
Q58.0156 14.4062 51.7812 6.48438
Q45.5625 -1.42188 35.5938 -1.42188
Q29.5938 -1.42188 25.2656 0.953125
Q20.9531 3.32812 18.1094 8.20312
L18.1094 0
L9.07812 0
L9.07812 75.9844
L18.1094 75.9844
z
" id="BitstreamVeraSans-Roman-62"/>
     </defs>
     <g transform="translate(45.174375 374.78625)rotate(-90.0)scale(0.12 -0.12)">
      <use xlink:href="#BitstreamVeraSans-Roman-70"/>
      <use x="63.4765625" xlink:href="#BitstreamVeraSans-Roman-61"/>
      <use x="124.755859375" xlink:href="#BitstreamVeraSans-Roman-72"/>
      <use x="165.869140625" xlink:href="#BitstreamVeraSans-Roman-74"/>
      <use x="205.078125" xlink:href="#BitstreamVeraSans-Roman-69"/>
      <use x="232.861328125" xlink:href="#BitstreamVeraSans-Roman-63"/>
      <use x="287.841796875" xlink:href="#BitstreamVeraSans-Roman-6c"/>
      <use x="315.625" xlink:href="#BitstreamVeraSans-Roman-65"/>
      <use x="377.1484375" xlink:href="#BitstreamVeraSans-Roman-20"/>
      <use x="408.935546875" xlink:href="#BitstreamVeraSans-Roman-6e"/>
      <use x="472.314453125" xlink:href="#BitstreamVeraSans-Roman-75"/>
      <use x="535.693359375" xlink:href="#BitstreamVeraSans-Roman-6d"/>
      <use x="633.10546875" xlink:href="#BitstreamVeraSans-Roman-62"/>
      <use x="696.58203125" xlink:href="#BitstreamVeraSans-Roman-65"/>
      <use x="758.10546875" xlink:href="#BitstreamVeraSans-Roman-72"/>
      <use x="799.21875" xlink:href="#BitstreamVeraSans-Roman-73"/>
     </g>
    </g>
   </g>
   <g id="legend_1">
    <g id="patch_7">
     <path d="
M721.468 340.462
L774.1 340.462
L774.1 307.538
L721.468 307.538
z
" style="fill:#ffffff;stroke:#000000;stroke-linejoin:miter;"/>
    </g>
    <g id="line2d_32">
     <path d="
M726.368 313.207
L736.168 313.207" style="fill:none;stroke:#ff0000;stroke-linecap:square;"/>
    </g>
    <g id="line2d_33"/>
    <g id="text_17">
     <!-- ATP el.0 -->
     <defs>
      <path d="
M34.1875 63.1875
L20.7969 26.9062
L47.6094 26.9062
z

M28.6094 72.9062
L39.7969 72.9062
L67.5781 0
L57.3281 0
L50.6875 18.7031
L17.8281 18.7031
L11.1875 0
L0.78125 0
z
" id="BitstreamVeraSans-Roman-41"/>
      <path d="
M-0.296875 72.9062
L61.375 72.9062
L61.375 64.5938
L35.5 64.5938
L35.5 0
L25.5938 0
L25.5938 64.5938
L-0.296875 64.5938
z
" id="BitstreamVeraSans-Roman-54"/>
      <path d="
M10.6875 12.4062
L21 12.4062
L21 0
L10.6875 0
z
" id="BitstreamVeraSans-Roman-2e"/>
      <path d="
M19.6719 64.7969
L19.6719 37.4062
L32.0781 37.4062
Q38.9688 37.4062 42.7188 40.9688
Q46.4844 44.5312 46.4844 51.125
Q46.4844 57.6719 42.7188 61.2344
Q38.9688 64.7969 32.0781 64.7969
z

M9.8125 72.9062
L32.0781 72.9062
Q44.3438 72.9062 50.6094 67.3594
Q56.8906 61.8125 56.8906 51.125
Q56.8906 40.3281 50.6094 34.8125
Q44.3438 29.2969 32.0781 29.2969
L19.6719 29.2969
L19.6719 0
L9.8125 0
z
" id="BitstreamVeraSans-Roman-50"/>
     </defs>
     <g transform="translate(743.86765625 315.656875)scale(0.07 -0.07)">
      <use xlink:href="#BitstreamVeraSans-Roman-41"/>
      <use x="60.658203125" xlink:href="#BitstreamVeraSans-Roman-54"/>
      <use x="121.7421875" xlink:href="#BitstreamVeraSans-Roman-50"/>
      <use x="182.044921875" xlink:href="#BitstreamVeraSans-Roman-20"/>
      <use x="213.83203125" xlink:href="#BitstreamVeraSans-Roman-65"/>
      <use x="275.35546875" xlink:href="#BitstreamVeraSans-Roman-6c"/>
      <use x="303.138671875" xlink:href="#BitstreamVeraSans-Roman-2e"/>
      <use x="334.92578125" xlink:href="#BitstreamVeraSans-Roman-30"/>
     </g>
    </g>
    <g id="line2d_34">
     <path d="
M726.368 323.482
L736.168 323.482" style="fill:none;stroke:#008000;stroke-linecap:square;"/>
    </g>
    <g id="line2d_35"/>
    <g id="text_18">
     <!-- ATP el.1 -->
     <g transform="translate(743.86765625 325.9315625)scale(0.07 -0.07)">
      <use xlink:href="#BitstreamVeraSans-Roman-41"/>
      <use x="60.658203125" xlink:href="#BitstreamVeraSans-Roman-54"/>
      <use x="121.7421875" xlink:href="#BitstreamVeraSans-Roman-50"/>
      <use x="182.044921875" xlink:href="#BitstreamVeraSans-Roman-20"/>
      <use x="213.83203125" xlink:href="#BitstreamVeraSans-Roman-65"/>
      <use x="275.35546875" xlink:href="#BitstreamVeraSans-Roman-6c"/>
      <use x="303.138671875" xlink:href="#BitstreamVeraSans-Roman-2e"/>
      <use x="334.92578125" xlink:href="#BitstreamVeraSans-Roman-31"/>
     </g>
    </g>
    <g id="line2d_36">
     <path d="
M726.368 333.756
L736.168 333.756" style="fill:none;stroke:#0000ff;stroke-linecap:square;"/>
    </g>
    <g id="line2d_37"/>
    <g id="text_19">
     <!-- ATP el.2 -->
     <g transform="translate(743.86765625 336.20625)scale(0.07 -0.07)">
      <use xlink:href="#BitstreamVeraSans-Roman-41"/>
      <use x="60.658203125" xlink:href="#BitstreamVeraSans-Roman-54"/>
      <use x="121.7421875" xlink:href="#BitstreamVeraSans-Roman-50"/>
      <use x="182.044921875" xlink:href="#BitstreamVeraSans-Roman-20"/>
      <use x="213.83203125" xlink:href="#BitstreamVeraSans-Roman-65"/>
      <use x="275.35546875" xlink:href="#BitstreamVeraSans-Roman-6c"/>
      <use x="303.138671875" xlink:href="#BitstreamVeraSans-Roman-2e"/>
      <use x="334.92578125" xlink:href="#BitstreamVeraSans-Roman-32"/>
     </g>
    </g>
   </g>
  </g>
 </g>
 <defs>
  <clipPath id="p7ceb695115">
   <rect height="518.4" width="669.6" x="108.0" y="64.8"/>
  </clipPath>
 </defs>
</svg>
