<?xml version="1.0" encoding="utf-8" standalone="no"?>
<!DOCTYPE svg PUBLIC "-//W3C//DTD SVG 1.1//EN"
  "http://www.w3.org/Graphics/SVG/1.1/DTD/svg11.dtd">
<!-- Created with matplotlib (http://matplotlib.org/) -->
<svg height="648pt" version="1.1" viewBox="0 0 864 648" width="864pt" xmlns="http://www.w3.org/2000/svg" xmlns:xlink="http://www.w3.org/1999/xlink">
 <defs>
  <style type="text/css">
*{stroke-linecap:butt;stroke-linejoin:round;}
  </style>
 </defs>
 <g id="figure_1">
  <g id="patch_1">
   <path d="
M0 648
L864 648
L864 0
L0 0
z
" style="fill:#ffffff;"/>
  </g>
  <g id="axes_1">
   <g id="patch_2">
    <path d="
M108 583.2
L777.6 583.2
L777.6 64.8
L108 64.8
z
" style="fill:#ffffff;"/>
   </g>
   <g id="line2d_1">
    <path clip-path="url(#p7ceb695115)" d="
M108 581.956
L108.67 582.163
L109.339 582.993
L110.009 582.578
L110.678 582.785
L111.348 582.578
L112.018 582.785
L112.687 582.785
L113.357 582.371
L114.026 583.2
L114.696 582.785
L116.035 583.2
L116.705 582.993
L117.374 583.2
L118.044 582.785
L118.714 583.2
L119.383 582.785
L120.722 583.2
L121.392 582.785
L122.731 583.2
L123.401 583.2
L124.07 582.993
L124.74 583.2
L125.41 582.785
L126.079 583.2
L127.418 582.785
L128.088 583.2
L130.766 583.2
L131.436 582.993
L132.775 582.993
L133.445 582.785
L134.114 583.2
L135.454 583.2
L136.123 582.785
L136.793 583.2
L141.48 583.2
L142.15 582.993
L142.819 582.993
L143.489 583.2
L146.167 583.2
L146.837 582.993
L147.506 583.2
L442.8 583.2
L443.47 475.58
L444.139 473.299
L444.809 486.156
L445.478 478.068
L446.148 480.764
L446.818 481.801
L447.487 489.888
L448.157 484.911
L448.826 480.972
L449.496 491.547
L450.166 491.34
L450.835 493.828
L451.505 494.657
L452.174 484.497
L452.844 491.132
L453.514 494.865
L454.183 486.156
L454.853 484.082
L455.522 483.667
L456.192 488.229
L456.862 488.229
L457.531 485.741
L458.201 484.704
L458.87 485.741
L459.54 488.851
L460.21 490.925
L460.879 487.814
L461.549 488.644
L462.218 482.008
L462.888 486.985
L463.558 486.985
L464.227 486.778
L464.897 486.156
L465.566 491.547
L466.236 485.948
L466.906 485.326
L467.575 490.925
L468.245 482.838
L468.914 487.607
L469.584 487.607
L470.254 489.266
L470.923 485.326
L471.593 483.667
L472.262 491.132
L472.932 500.256
L473.602 482.216
L474.271 486.156
L474.941 493.206
L475.61 495.279
L476.28 485.533
L476.95 485.741
L477.619 493.413
L478.289 489.473
L478.958 489.266
L479.628 494.657
L480.298 492.169
L480.967 488.851
L481.637 492.584
L482.306 487.4
L482.976 490.303
L483.646 491.547
L484.315 484.497
L484.985 493.413
L485.654 487.607
L486.324 493.206
L486.994 486.778
L487.663 490.303
L488.333 484.704
L489.002 488.022
L489.672 489.266
L490.342 490.095
L491.011 492.584
L491.681 491.962
L492.35 483.045
L493.02 485.326
L493.69 488.644
L494.359 490.095
L495.029 490.095
L495.698 477.861
L496.368 492.998
L497.038 490.303
L497.707 493.206
L498.377 484.497
L499.046 481.386
L499.716 483.875
L500.386 487.814
L501.055 489.681
L501.725 490.925
L502.394 493.62
L503.064 487.4
L503.734 485.948
L504.403 486.363
L505.073 484.497
L505.742 493.413
L506.412 491.547
L507.082 492.376
L507.751 490.095
L508.421 486.363
L509.09 484.289
L509.76 490.51
L510.43 485.741
L511.099 486.57
L511.769 491.34
L512.438 484.082
L513.108 489.888
L513.778 482.838
L514.447 484.497
L515.117 485.326
L515.786 486.985
L516.456 490.095
L517.126 492.584
L517.795 490.095
L518.465 485.948
L519.134 487.4
L519.804 486.985
L520.474 485.741
L521.143 495.279
L521.813 486.778
L522.482 485.119
L523.152 495.694
L523.822 488.436
L524.491 491.547
L525.161 491.754
L525.83 492.376
L526.5 490.717
L527.17 484.497
L527.839 494.865
L528.509 485.119
L529.178 492.791
L529.848 488.229
L530.518 487.4
L531.187 494.657
L531.857 490.925
L532.526 490.925
L533.196 491.34
L533.866 493.206
L534.535 491.132
L535.205 486.363
L535.874 486.57
L536.544 486.363
L537.214 492.584
L537.883 489.059
L539.222 486.778
L539.892 484.911
L540.562 488.644
L541.231 483.252
L541.901 484.911
L542.57 493.206
L543.24 494.035
L543.91 490.51
L544.579 484.289
L545.249 495.279
L545.918 487.814
L546.588 491.547
L547.258 489.473
L547.927 489.266
L548.597 497.56
L549.266 491.547
L549.936 497.768
L550.606 485.741
L551.275 491.962
L551.945 485.119
L552.614 485.326
L553.284 489.681
L553.954 485.119
L554.623 495.694
L555.293 486.985
L555.962 486.778
L556.632 487.4
L557.302 494.45
L557.971 493.413
L558.641 491.132
L559.31 484.289
L559.98 490.925
L560.65 484.497
L561.319 493.206
L561.989 488.644
L562.658 492.584
L563.328 487.607
L563.998 498.804
L564.667 491.34
L565.337 489.888
L566.006 491.547
L566.676 484.497
L568.015 493.62
L568.685 495.694
L569.354 481.594
L570.024 490.717
L570.694 486.778
L571.363 481.801
L572.033 485.948
L572.702 492.169
L573.372 488.022
L574.042 479.727
L574.711 489.681
L575.381 486.363
L576.05 483.875
L576.72 487.192
L577.39 487.4
L578.059 490.925
L578.729 489.266
L579.398 491.132
L580.068 494.243
L580.738 494.657
L581.407 495.694
L582.077 490.303
L582.746 492.376
L583.416 488.436
L584.086 488.022
L584.755 490.51
L585.425 499.012
L586.094 494.865
L586.764 488.436
L587.434 488.022
L588.103 489.059
L588.773 492.376
L589.442 486.363
L590.112 490.51
L591.451 493.413
L592.121 491.754
L592.79 489.266
L593.46 484.704
L594.13 489.681
L594.799 487.4
L595.469 489.681
L596.138 490.303
L596.808 483.045
L597.478 485.533
L598.147 492.169
L598.817 493.828
L599.486 493.413
L600.156 482.216
L600.826 489.059
L601.495 490.303
L602.165 485.948
L602.834 487.4
L603.504 494.243
L604.174 489.059
L604.843 490.095
L605.513 494.243
L606.182 492.376
L606.852 493.62
L607.522 488.229
L608.191 485.741
L608.861 494.243
L609.53 485.326
L610.2 490.095
L610.87 498.182
L611.539 484.082
L612.209 486.57
L612.878 487.4
L613.548 486.985
L614.218 480.142
L614.887 487.814
L615.557 488.644
L616.226 486.363
L616.896 482.423
L617.566 486.363
L618.235 489.473
L618.905 486.363
L619.574 488.229
L620.244 488.436
L620.914 486.363
L622.253 486.363
L622.922 498.804
L623.592 488.644
L624.262 489.059
L624.931 491.547
L625.601 494.657
L626.27 485.326
L626.94 491.962
L627.61 480.972
L628.279 489.473
L628.949 488.644
L629.618 484.704
L630.288 486.363
L630.958 491.547
L631.627 486.778
L632.966 490.51
L633.636 489.681
L634.306 487.192
L634.975 489.059
L635.645 492.169
L636.314 487.814
L636.984 486.57
L637.654 486.363
L638.323 485.533
L638.993 495.694
L639.662 483.045
L641.002 494.45
L641.671 486.363
L642.341 487.192
L643.01 494.243
L643.68 485.533
L644.35 489.681
L645.019 482.838
L645.689 489.059
L646.358 485.119
L647.028 496.731
L647.698 492.584
L648.367 493.828
L649.037 488.022
L649.706 484.082
L650.376 492.169
L651.046 490.303
L651.715 491.34
L652.385 497.56
L653.054 491.547
L653.724 491.132
L654.394 485.119
L655.063 492.169
L655.733 497.56
L656.402 494.657
L657.072 488.851
L657.742 486.363
L658.411 482.008
L659.081 484.289
L660.42 492.376
L661.09 485.119
L661.759 484.497
L662.429 489.681
L663.098 486.57
L663.768 493.413
L664.438 488.644
L665.107 486.363
L665.777 479.313
L666.446 485.119
L667.116 485.948
L667.786 491.34
L668.455 483.875
L669.125 495.072
L669.794 488.229
L670.464 495.072
L671.134 483.045
L671.803 486.57
L672.473 484.082
L673.142 488.644
L673.812 480.349
L674.482 489.888
L675.151 493.828
L675.821 488.022
L676.49 479.313
L677.16 488.229
L677.83 489.888
L678.499 488.851
L679.169 485.741
L679.838 481.386
L680.508 489.266
L681.178 489.888
L681.847 490.095
L682.517 492.376
L683.186 483.875
L683.856 482.216
L684.526 488.851
L685.195 486.778
L685.865 483.667
L686.534 489.888
L687.204 483.252
L687.874 494.035
L688.543 479.727
L689.213 489.888
L689.882 483.46
L690.552 493.413
L691.222 487.814
L691.891 485.119
L692.561 485.948
L693.23 484.289
L693.9 492.376
L694.57 491.132
L695.239 492.584
L695.909 492.584
L696.578 493.206
L697.248 480.972
L697.918 489.681
L698.587 485.326
L699.257 482.63
L699.926 491.547
L700.596 491.132
L701.935 489.888
L702.605 488.229
L703.274 481.179
L703.944 491.547
L704.614 491.132
L705.283 481.801
L705.953 482.63
L706.622 490.303
L707.292 488.229
L707.962 478.276
L708.631 490.303
L709.301 490.095
L709.97 492.376
L710.64 494.243
L711.31 484.289
L711.979 492.998
L712.649 483.667
L713.318 490.925
L713.988 494.657
L714.658 494.657
L715.327 495.279
L715.997 495.072
L717.336 481.179
L718.006 484.911
L718.675 484.082
L719.345 482.63
L720.014 491.962
L720.684 492.376
L722.023 484.497
L722.693 491.34
L723.362 492.584
L724.032 484.704
L724.702 491.962
L725.371 495.279
L726.041 495.694
L726.71 490.095
L727.38 490.303
L728.05 492.998
L728.719 492.791
L730.728 484.704
L731.398 495.279
L732.067 483.46
L732.737 492.376
L733.406 491.754
L734.076 490.095
L734.746 482.008
L735.415 490.717
L736.085 485.533
L736.754 490.303
L737.424 491.132
L738.094 492.169
L738.763 486.57
L739.433 489.473
L740.102 491.547
L740.772 487.192
L741.442 490.925
L742.111 490.51
L742.781 483.252
L743.45 496.316
L744.12 484.082
L744.79 492.376
L745.459 487.192
L746.129 489.888
L746.798 490.925
L747.468 486.778
L748.138 485.533
L748.807 493.62
L749.477 489.888
L750.146 493.413
L750.816 478.276
L751.486 496.524
L752.155 488.436
L752.825 486.57
L753.494 483.875
L754.164 485.533
L754.834 484.082
L755.503 488.644
L756.173 489.888
L756.842 489.473
L757.512 492.584
L758.182 488.022
L758.851 481.179
L759.521 492.584
L760.19 489.266
L760.86 490.095
L761.53 486.363
L762.199 485.741
L762.869 484.082
L763.538 490.303
L764.208 486.985
L764.878 493.206
L765.547 485.119
L766.217 491.34
L766.886 487.4
L767.556 485.326
L768.226 493.206
L768.895 486.778
L769.565 492.584
L770.234 488.229
L770.904 493.62
L771.574 495.901
L772.243 487.192
L772.913 491.754
L773.582 486.57
L774.252 485.948
L774.922 493.206
L775.591 485.948
L776.261 496.524
L776.93 490.51
L777.6 497.768
L777.6 497.768" style="fill:none;stroke:#ff0000;stroke-linecap:square;"/>
   </g>
   <g id="line2d_2">
    <path clip-path="url(#p7ceb695115)" d="
M108 578.223
L108.67 579.468
L109.339 578.845
L110.009 579.882
L110.678 579.26
L111.348 579.882
L112.018 579.882
L112.687 581.126
L113.357 581.126
L114.026 580.712
L114.696 581.334
L115.366 581.126
L116.035 581.541
L116.705 581.748
L117.374 581.748
L118.044 582.578
L118.714 581.956
L119.383 582.371
L120.053 582.163
L120.722 582.163
L121.392 582.785
L122.062 582.785
L122.731 582.578
L123.401 582.578
L124.07 582.993
L124.74 582.785
L125.41 582.785
L126.079 582.371
L127.418 582.785
L128.088 582.578
L128.758 582.785
L129.427 582.785
L130.097 582.578
L130.766 582.785
L132.106 582.785
L132.775 582.993
L133.445 582.993
L134.114 582.578
L134.784 582.993
L135.454 582.578
L136.123 582.993
L136.793 583.2
L137.462 582.785
L138.132 583.2
L138.802 583.2
L139.471 582.993
L140.141 583.2
L140.81 582.993
L141.48 582.993
L142.15 583.2
L142.819 583.2
L143.489 582.993
L144.158 583.2
L144.828 582.993
L145.498 583.2
L146.167 582.993
L146.837 583.2
L147.506 582.993
L148.176 583.2
L442.8 583.2
L443.47 144.634
L444.139 154.38
L444.809 155.002
L445.478 175.738
L446.818 193.778
L447.487 184.654
L448.826 204.561
L449.496 197.303
L450.166 197.925
L450.835 205.597
L451.505 205.597
L452.174 212.44
L452.844 199.999
L453.514 195.852
L454.853 211.404
L456.192 205.183
L456.862 211.196
L457.531 208.5
L458.201 219.491
L458.87 206.012
L459.54 211.818
L460.21 205.183
L460.879 201.865
L461.549 207.049
L462.218 222.808
L462.888 204.768
L463.558 210.159
L464.227 203.731
L464.897 215.136
L465.566 201.865
L466.236 214.307
L466.906 210.574
L467.575 208.293
L468.245 210.159
L468.914 216.795
L469.584 217.624
L470.254 205.39
L470.923 208.915
L471.593 218.246
L472.932 197.303
L473.602 210.781
L474.271 213.477
L474.941 198.962
L475.61 201.45
L476.28 208.915
L476.95 209.123
L477.619 211.818
L478.289 198.132
L478.958 214.514
L479.628 202.902
L480.298 207.256
L480.967 208.708
L481.637 200.413
L482.306 212.026
L482.976 207.049
L483.646 206.842
L484.315 214.099
L484.985 200.413
L485.654 205.183
L486.324 200.828
L486.994 212.648
L487.663 204.561
L488.333 207.671
L489.002 209.33
L489.672 209.537
L490.342 210.989
L491.011 204.561
L491.681 206.842
L492.35 209.952
L493.02 204.975
L493.69 207.049
L494.359 201.243
L495.029 213.27
L495.698 222.601
L496.368 199.377
L497.038 206.427
L497.707 204.975
L498.377 210.159
L499.046 217.624
L499.716 208.086
L500.386 208.293
L501.055 207.464
L501.725 210.781
L502.394 206.427
L503.064 207.049
L503.734 210.367
L504.403 209.123
L505.073 215.551
L505.742 201.243
L506.412 212.233
L507.082 205.597
L507.751 212.855
L508.421 209.537
L509.09 210.989
L509.76 205.183
L510.43 209.745
L511.099 206.012
L511.769 203.731
L512.438 214.929
L513.108 207.878
L513.778 209.123
L514.447 205.39
L515.117 208.708
L515.786 207.464
L516.456 202.694
L517.126 210.367
L517.795 205.183
L518.465 215.551
L519.134 203.109
L519.804 208.293
L520.474 207.671
L521.143 204.146
L521.813 210.367
L522.482 219.076
L523.152 203.109
L523.822 212.648
L524.491 203.316
L525.161 203.731
L525.83 208.708
L526.5 199.584
L527.17 209.123
L527.839 200.828
L528.509 206.012
L529.178 199.791
L529.848 213.892
L530.518 208.086
L531.187 206.427
L531.857 206.22
L532.526 203.524
L533.196 207.049
L533.866 208.293
L534.535 206.427
L535.205 209.33
L535.874 208.086
L536.544 209.537
L537.214 203.731
L537.883 205.183
L538.553 211.196
L539.222 210.781
L539.892 207.256
L540.562 201.243
L541.231 213.27
L541.901 210.367
L542.57 195.229
L543.24 205.39
L543.91 204.975
L544.579 204.146
L545.249 205.39
L545.918 210.159
L546.588 208.086
L547.258 200.206
L547.927 206.842
L548.597 201.865
L549.266 214.929
L549.936 204.561
L550.606 206.842
L551.275 207.671
L551.945 209.33
L552.614 207.464
L553.284 208.086
L553.954 211.611
L554.623 197.718
L555.293 210.781
L555.962 203.316
L556.632 207.464
L557.302 199.999
L557.971 203.109
L558.641 201.036
L559.31 208.5
L559.98 198.547
L560.65 214.099
L561.319 198.755
L561.989 207.256
L562.658 200.621
L563.328 212.026
L563.998 207.256
L564.667 206.427
L565.337 208.915
L566.006 203.731
L566.676 205.597
L567.346 199.791
L568.015 202.28
L568.685 206.427
L569.354 218.454
L570.024 201.036
L570.694 220.527
L571.363 217.832
L572.033 211.196
L572.702 213.062
L573.372 209.123
L574.042 211.611
L574.711 211.611
L575.381 207.878
L576.05 206.634
L576.72 206.22
L577.39 214.514
L578.059 210.781
L578.729 205.39
L579.398 202.487
L580.068 205.805
L580.738 203.316
L581.407 201.658
L582.077 210.159
L582.746 201.036
L583.416 207.464
L584.086 208.708
L584.755 207.464
L585.425 204.146
L586.094 192.326
L586.764 205.39
L587.434 204.146
L588.103 210.781
L588.773 207.464
L589.442 203.316
L590.112 206.22
L590.782 212.44
L591.451 203.109
L592.79 213.892
L593.46 204.146
L594.13 208.5
L594.799 201.865
L596.138 209.952
L596.808 209.123
L598.147 204.768
L598.817 201.036
L599.486 205.183
L600.156 212.648
L600.826 205.39
L601.495 200.621
L602.165 213.27
L602.834 220.32
L603.504 204.561
L604.174 210.781
L604.843 209.745
L605.513 205.597
L606.182 206.012
L606.852 207.878
L607.522 209.33
L608.191 212.026
L608.861 203.316
L609.53 208.5
L610.2 204.353
L610.87 202.694
L611.539 207.049
L612.209 202.072
L612.878 210.989
L614.218 217.417
L614.887 204.561
L615.557 211.196
L616.226 210.574
L616.896 219.076
L617.566 204.561
L618.235 197.925
L619.574 217.002
L620.244 202.902
L620.914 217.21
L621.583 205.39
L622.253 210.989
L622.922 202.072
L623.592 209.745
L624.262 209.123
L624.931 201.658
L625.601 199.999
L626.27 206.634
L626.94 203.524
L627.61 218.246
L628.279 202.072
L628.949 214.721
L629.618 213.062
L630.288 206.634
L630.958 207.049
L631.627 210.574
L632.297 208.708
L632.966 207.671
L633.636 208.5
L634.306 212.026
L634.975 202.28
L635.645 205.597
L636.314 209.745
L636.984 204.353
L637.654 209.952
L638.323 212.855
L638.993 206.22
L639.662 216.588
L640.332 203.109
L641.002 200.621
L641.671 205.183
L642.341 206.427
L643.01 205.39
L643.68 208.293
L644.35 202.902
L645.019 218.454
L645.689 204.975
L646.358 209.33
L647.028 209.537
L647.698 206.22
L648.367 205.805
L649.037 209.745
L649.706 212.44
L650.376 196.059
L651.046 208.5
L651.715 207.049
L652.385 204.146
L653.054 212.648
L653.724 203.524
L654.394 205.597
L655.063 205.597
L655.733 207.464
L656.402 196.474
L657.072 214.099
L657.742 201.865
L658.411 213.892
L659.081 208.293
L659.75 209.537
L660.42 206.012
L661.759 212.855
L662.429 201.243
L663.098 210.989
L663.768 203.731
L664.438 205.805
L665.107 209.952
L665.777 209.123
L666.446 205.597
L667.116 200.828
L667.786 204.561
L668.455 211.611
L669.125 195.644
L669.794 209.952
L670.464 199.377
L671.134 216.173
L671.803 205.805
L672.473 212.648
L673.142 207.256
L673.812 217.417
L674.482 208.915
L675.151 203.316
L675.821 200.413
L676.49 218.661
L677.16 208.5
L677.83 204.561
L678.499 211.818
L679.169 208.708
L679.838 211.404
L680.508 200.621
L681.178 216.795
L681.847 199.169
L682.517 207.464
L683.186 213.27
L683.856 208.915
L684.526 205.39
L685.195 216.173
L685.865 213.062
L686.534 204.353
L687.204 207.671
L687.874 195.437
L688.543 221.149
L689.213 207.256
L689.882 215.136
L690.552 203.939
L691.222 209.123
L691.891 216.38
L692.561 213.27
L693.23 201.036
L693.9 209.123
L694.57 211.611
L695.239 198.755
L695.909 206.634
L696.578 203.731
L697.248 219.283
L697.918 204.975
L698.587 212.44
L699.257 205.597
L699.926 207.671
L700.596 199.999
L701.266 202.902
L701.935 207.671
L702.605 208.915
L703.274 218.039
L703.944 198.962
L704.614 202.694
L705.283 218.661
L705.953 216.173
L706.622 206.842
L707.292 206.22
L707.962 213.27
L708.631 209.123
L709.301 206.427
L709.97 207.464
L710.64 206.22
L711.31 211.611
L711.979 200.206
L712.649 210.781
L713.318 205.805
L713.988 203.524
L714.658 205.805
L715.327 202.28
L715.997 201.45
L716.666 217.417
L717.336 210.989
L718.006 214.307
L718.675 219.283
L719.345 210.159
L720.014 199.377
L720.684 196.059
L721.354 214.307
L722.023 206.427
L722.693 204.768
L723.362 206.842
L724.032 209.33
L724.702 210.367
L725.371 202.902
L726.041 201.036
L726.71 206.012
L727.38 207.464
L728.05 199.791
L728.719 202.694
L729.389 209.952
L730.058 211.196
L730.728 203.316
L731.398 200.828
L732.067 212.026
L732.737 201.865
L734.076 199.791
L734.746 209.537
L735.415 203.731
L736.085 210.781
L736.754 203.109
L737.424 200.621
L738.763 212.648
L739.433 201.865
L740.102 203.316
L740.772 205.805
L741.442 209.33
L742.111 210.574
L742.781 215.136
L743.45 203.731
L744.12 209.537
L744.79 202.902
L745.459 211.196
L746.129 206.012
L747.468 210.367
L748.138 207.256
L748.807 209.745
L749.477 201.658
L750.146 207.049
L750.816 215.136
L751.486 200.413
L752.155 209.537
L752.825 209.33
L753.494 209.33
L754.164 214.514
L754.834 208.708
L755.503 205.597
L756.173 207.878
L756.842 213.062
L757.512 204.768
L758.182 202.694
L758.851 218.246
L759.521 203.316
L760.19 201.658
L760.86 209.33
L761.53 213.892
L762.199 209.123
L762.869 211.196
L763.538 203.316
L764.208 206.634
L764.878 206.012
L765.547 212.44
L766.217 203.316
L766.886 212.233
L767.556 214.307
L768.226 208.5
L768.895 209.33
L769.565 194.193
L770.234 204.975
L770.904 203.316
L771.574 208.915
L772.243 216.173
L772.913 204.561
L773.582 210.159
L774.252 213.27
L774.922 207.878
L775.591 222.186
L776.261 200.206
L776.93 206.427
L777.6 198.962
L777.6 198.962" style="fill:none;stroke:#008000;stroke-linecap:square;"/>
   </g>
   <g id="line2d_3">
    <path clip-path="url(#p7ceb695115)" d="
M108 581.956
L108.67 582.371
L110.009 581.956
L110.678 582.578
L111.348 582.785
L112.018 582.371
L112.687 582.163
L113.357 582.578
L114.026 582.371
L114.696 582.578
L116.035 582.578
L116.705 582.993
L117.374 583.2
L118.714 582.785
L119.383 582.993
L120.053 582.785
L120.722 583.2
L121.392 582.993
L122.062 582.993
L122.731 583.2
L123.401 583.2
L124.07 582.785
L125.41 583.2
L128.088 583.2
L128.758 582.993
L129.427 582.993
L130.097 583.2
L132.106 583.2
L132.775 582.993
L133.445 583.2
L134.114 583.2
L134.784 582.785
L135.454 583.2
L136.123 583.2
L136.793 582.785
L137.462 583.2
L138.132 582.993
L138.802 583.2
L139.471 583.2
L140.141 582.993
L140.81 583.2
L144.828 583.2
L145.498 582.993
L146.167 583.2
L442.8 583.2
L443.47 472.677
L444.809 488.022
L445.478 485.326
L446.148 485.948
L446.818 483.875
L447.487 489.681
L448.157 488.851
L448.826 484.704
L449.496 488.436
L450.166 488.436
L450.835 480.764
L451.505 479.727
L452.174 484.911
L452.844 491.962
L453.514 492.584
L454.183 494.035
L454.853 489.473
L455.522 493.206
L456.192 491.547
L456.862 486.363
L457.531 491.34
L458.201 481.386
L458.87 493.62
L459.54 485.119
L460.21 489.681
L460.879 496.316
L461.549 490.303
L462.218 481.179
L462.888 494.243
L463.558 488.851
L464.227 495.487
L464.897 484.704
L465.566 492.584
L466.236 485.741
L466.906 490.095
L467.575 486.778
L468.245 492.998
L468.914 481.594
L469.584 480.764
L470.254 491.34
L470.923 491.754
L471.593 484.082
L472.262 486.57
L472.932 488.436
L473.602 492.998
L474.271 486.363
L474.941 493.828
L475.61 489.266
L476.28 491.547
L476.95 491.132
L477.619 480.764
L478.289 498.39
L478.958 482.216
L479.628 488.436
L480.298 486.57
L480.967 488.436
L481.637 492.998
L482.306 486.57
L482.976 488.644
L483.646 487.607
L484.315 487.4
L484.985 492.169
L485.654 493.206
L486.324 491.962
L486.994 486.57
L487.663 491.132
L488.333 493.62
L489.002 488.644
L489.672 487.192
L490.342 484.911
L491.011 488.851
L491.681 487.192
L492.35 492.998
L493.02 495.694
L493.69 490.303
L494.359 494.657
L495.029 482.63
L495.698 485.533
L496.368 493.62
L497.038 489.266
L497.707 487.814
L498.377 491.34
L499.046 486.985
L499.716 494.035
L500.386 489.888
L501.055 488.851
L501.725 484.289
L502.394 485.948
L503.064 491.547
L503.734 489.681
L504.403 490.51
L505.073 485.948
L505.742 491.34
L506.412 482.216
L507.082 488.022
L507.751 483.045
L508.421 490.095
L509.09 490.717
L509.76 490.303
L510.43 490.51
L511.099 493.413
L511.769 490.925
L512.438 486.985
L513.108 488.229
L513.778 494.035
L514.447 496.109
L515.117 491.962
L515.786 491.547
L516.456 493.206
L517.126 483.045
L517.795 490.717
L518.465 484.497
L519.134 495.487
L519.804 490.717
L520.474 492.584
L521.143 486.57
L521.813 488.851
L522.482 481.801
L523.152 487.192
L523.822 484.911
L524.491 491.132
L525.161 490.51
L525.83 484.911
L526.5 495.694
L527.17 492.376
L527.839 490.303
L528.509 494.865
L529.178 493.413
L529.848 483.875
L530.518 490.51
L531.187 484.911
L531.857 488.851
L532.526 491.547
L533.196 487.607
L533.866 484.497
L534.535 488.436
L535.205 490.303
L535.874 491.34
L536.544 490.095
L537.214 489.681
L537.883 491.754
L538.553 486.985
L539.222 488.436
L539.892 493.828
L540.562 496.109
L541.231 489.473
L541.901 490.717
L542.57 497.56
L543.24 486.57
L543.91 490.51
L544.579 497.56
L545.249 485.326
L545.918 488.022
L546.588 486.363
L547.258 496.316
L547.927 489.888
L548.597 486.57
L549.266 479.52
L549.936 483.667
L550.606 493.413
L551.275 486.363
L551.945 491.547
L552.614 493.206
L553.284 488.229
L553.954 489.266
L554.623 492.584
L555.293 488.229
L555.962 495.901
L556.632 491.132
L557.302 491.547
L557.971 489.473
L558.641 493.828
L559.31 493.206
L559.98 496.524
L560.65 487.4
L561.319 494.035
L561.989 490.095
L562.658 492.791
L563.998 479.935
L564.667 488.229
L565.337 487.192
L566.006 490.717
L566.676 495.901
L567.346 496.731
L568.685 483.875
L569.354 485.948
L570.024 494.243
L570.694 478.691
L571.363 486.363
L572.033 488.851
L572.702 480.764
L573.372 488.851
L574.042 494.657
L574.711 484.704
L575.381 491.754
L576.05 495.487
L576.72 492.584
L577.39 484.082
L578.059 484.289
L578.729 491.34
L579.398 492.376
L580.068 485.948
L580.738 488.022
L581.407 488.644
L582.077 485.533
L582.746 492.584
L583.416 490.095
L584.086 489.266
L584.755 488.022
L585.425 482.838
L586.094 498.804
L586.764 492.169
L587.434 493.828
L588.103 486.156
L588.773 486.156
L589.442 496.316
L590.782 481.594
L591.451 489.473
L592.121 485.533
L592.79 482.838
L593.46 497.146
L594.13 487.814
L594.799 496.731
L595.469 490.717
L596.138 485.741
L596.808 493.828
L597.478 493.62
L598.147 489.059
L598.817 491.132
L599.486 487.4
L600.156 491.132
L600.826 491.547
L601.495 495.072
L602.834 478.276
L603.504 487.192
L604.174 486.156
L605.513 486.156
L606.182 487.607
L606.852 484.497
L607.522 488.436
L608.191 488.229
L608.861 488.436
L609.53 492.169
L610.2 491.547
L610.87 485.119
L611.539 494.865
L612.209 497.353
L612.878 487.607
L613.548 484.704
L614.218 488.436
L614.887 493.62
L615.557 486.156
L616.226 489.059
L616.896 484.497
L617.566 495.072
L618.235 498.597
L618.905 492.169
L619.574 480.764
L620.244 494.657
L620.914 482.423
L621.583 494.243
L622.253 488.644
L622.922 485.119
L623.592 487.607
L624.262 487.814
L624.931 492.791
L625.601 491.34
L626.27 494.035
L627.61 486.778
L628.279 494.45
L628.949 482.63
L630.288 492.998
L630.958 487.4
L631.627 488.644
L632.297 488.644
L632.966 487.814
L633.636 487.814
L634.306 486.778
L634.975 494.657
L635.645 488.229
L636.314 488.436
L636.984 495.072
L637.654 489.681
L638.323 487.607
L638.993 484.082
L639.662 486.363
L640.332 494.45
L641.002 490.925
L641.671 494.45
L642.341 492.376
L643.01 486.363
L643.68 492.169
L644.35 493.413
L645.019 484.704
L645.689 491.962
L646.358 491.547
L647.028 479.727
L647.698 487.192
L648.367 486.363
L649.037 488.229
L649.706 489.473
L650.376 497.768
L651.046 487.192
L651.715 487.607
L652.385 484.289
L653.054 481.801
L653.724 491.34
L654.394 495.279
L655.733 480.972
L656.402 494.865
L657.072 483.045
L657.742 497.768
L658.411 490.095
L659.081 493.413
L659.75 487.814
L660.42 487.607
L661.09 491.34
L661.759 488.644
L662.429 495.072
L663.098 488.436
L663.768 488.851
L664.438 491.547
L665.107 489.681
L665.777 497.56
L666.446 495.279
L667.116 499.219
L667.786 490.095
L668.455 490.51
L669.125 495.279
L669.794 487.814
L670.464 491.547
L671.134 486.778
L671.803 493.62
L672.473 489.266
L673.142 490.095
L673.812 488.229
L674.482 487.192
L675.151 488.851
L675.821 497.56
L676.49 488.022
L677.16 489.266
L677.83 491.547
L678.499 485.326
L679.169 491.547
L679.838 493.206
L680.508 496.109
L681.178 479.313
L681.847 496.731
L682.517 486.156
L683.186 488.851
L683.856 494.865
L684.526 491.754
L685.195 483.045
L685.865 489.266
L686.534 491.754
L687.204 495.072
L687.874 496.524
L688.543 485.119
L689.213 488.851
L689.882 487.4
L690.552 488.644
L691.222 489.059
L691.891 484.497
L692.561 486.778
L693.23 500.671
L693.9 484.497
L694.57 483.252
L695.239 494.657
L695.909 486.778
L696.578 489.059
L697.248 485.741
L697.918 491.34
L698.587 488.229
L699.257 497.768
L699.926 486.778
L700.596 494.865
L701.266 492.584
L701.935 488.436
L702.605 488.851
L703.274 486.778
L703.944 495.487
L704.614 492.169
L705.283 485.533
L706.622 488.851
L707.962 494.45
L708.631 486.57
L709.301 489.473
L709.97 486.156
L710.64 485.533
L711.31 490.095
L711.979 492.791
L712.649 491.547
L713.318 489.266
L713.988 487.814
L714.658 485.533
L715.327 488.436
L715.997 489.473
L716.666 480.972
L717.336 493.828
L718.006 486.778
L718.675 482.63
L719.345 493.206
L720.014 494.657
L720.684 497.56
L721.354 483.252
L722.023 495.072
L722.693 489.888
L723.362 486.57
L724.032 491.962
L724.702 483.667
L725.371 487.814
L726.041 489.266
L726.71 489.888
L727.38 488.229
L728.05 493.206
L728.719 490.51
L729.389 485.948
L730.058 487.607
L730.728 497.975
L731.398 489.888
L732.067 490.51
L732.737 491.754
L733.406 493.413
L734.076 496.109
L734.746 494.45
L735.415 491.547
L736.085 489.681
L736.754 492.584
L737.424 494.243
L738.094 486.985
L738.763 486.778
L739.433 494.657
L740.102 491.132
L740.772 492.998
L741.442 485.741
L742.111 484.911
L742.781 487.607
L743.45 485.948
L744.12 492.376
L744.79 490.717
L745.459 487.607
L746.129 490.095
L746.798 486.778
L747.468 488.851
L748.138 493.206
L748.807 482.63
L749.477 494.45
L750.146 485.533
L750.816 492.584
L751.486 489.059
L752.155 488.022
L752.825 490.095
L753.494 492.791
L754.164 485.948
L754.834 493.206
L755.503 491.754
L756.173 488.229
L756.842 483.46
L757.512 488.644
L758.182 495.279
L758.851 486.57
L759.521 490.095
L760.19 495.072
L760.86 486.57
L761.53 485.741
L762.199 491.132
L762.869 490.717
L763.538 492.376
L764.208 492.376
L764.878 486.778
L765.547 488.436
L766.217 491.34
L766.886 486.363
L767.556 486.363
L768.226 484.289
L768.895 489.888
L769.565 499.219
L770.234 492.791
L770.904 489.059
L771.574 481.179
L772.243 482.63
L772.913 489.681
L773.582 489.266
L774.252 486.778
L774.922 484.911
L775.591 477.861
L776.261 489.266
L776.93 489.059
L777.6 489.266
L777.6 489.266" style="fill:none;stroke:#0000ff;stroke-linecap:square;"/>
   </g>
   <g id="patch_3">
    <path d="
M777.6 583.2
L777.6 64.8" style="fill:none;stroke:#000000;stroke-linecap:square;stroke-linejoin:miter;"/>
   </g>
   <g id="patch_4">
    <path d="
M108 64.8
L777.6 64.8" style="fill:none;stroke:#000000;stroke-linecap:square;stroke-linejoin:miter;"/>
   </g>
   <g id="patch_5">
    <path d="
M108 583.2
L108 64.8" style="fill:none;stroke:#000000;stroke-linecap:square;stroke-linejoin:miter;"/>
   </g>
   <g id="patch_6">
    <path d="
M108 583.2
L777.6 583.2" style="fill:none;stroke:#000000;stroke-linecap:square;stroke-linejoin:miter;"/>
   </g>
   <g id="matplotlib.axis_1">
    <g id="xtick_1">
     <g id="line2d_4">
      <defs>
       <path d="
M0 0
L0 -4" id="mc7db9fdffb" style="stroke:#000000;stroke-width:0.5;"/>
      </defs>
      <g>
       <use style="stroke:#000000;stroke-width:0.5;" x="108.0" xlink:href="#mc7db9fdffb" y="583.2"/>
      </g>
     </g>
     <g id="line2d_5">
      <defs>
       <path d="
M0 0
L0 4" id="m5a7d422ac3" style="stroke:#000000;stroke-width:0.5;"/>
      </defs>
      <g>
       <use style="stroke:#000000;stroke-width:0.5;" x="108.0" xlink:href="#m5a7d422ac3" y="64.8"/>
      </g>
     </g>
     <g id="text_1">
      <!-- 0 -->
      <defs>
       <path d="
M31.7812 66.4062
Q24.1719 66.4062 20.3281 58.9062
Q16.5 51.4219 16.5 36.375
Q16.5 21.3906 20.3281 13.8906
Q24.1719 6.39062 31.7812 6.39062
Q39.4531 6.39062 43.2812 13.8906
Q47.125 21.3906 47.125 36.375
Q47.125 51.4219 43.2812 58.9062
Q39.4531 66.4062 31.7812 66.4062
M31.7812 74.2188
Q44.0469 74.2188 50.5156 64.5156
Q56.9844 54.8281 56.9844 36.375
Q56.9844 17.9688 50.5156 8.26562
Q44.0469 -1.42188 31.7812 -1.42188
Q19.5312 -1.42188 13.0625 8.26562
Q6.59375 17.9688 6.59375 36.375
Q6.59375 54.8281 13.0625 64.5156
Q19.5312 74.2188 31.7812 74.2188" id="BitstreamVeraSans-Roman-30"/>
      </defs>
      <g transform="translate(104.9765625 596.318125)scale(0.12 -0.12)">
       <use xlink:href="#BitstreamVeraSans-Roman-30"/>
      </g>
     </g>
    </g>
    <g id="xtick_2">
     <g id="line2d_6">
      <g>
       <use style="stroke:#000000;stroke-width:0.5;" x="275.4" xlink:href="#mc7db9fdffb" y="583.2"/>
      </g>
     </g>
     <g id="line2d_7">
      <g>
       <use style="stroke:#000000;stroke-width:0.5;" x="275.4" xlink:href="#m5a7d422ac3" y="64.8"/>
      </g>
     </g>
     <g id="text_2">
      <!-- 50000 -->
      <defs>
       <path d="
M10.7969 72.9062
L49.5156 72.9062
L49.5156 64.5938
L19.8281 64.5938
L19.8281 46.7344
Q21.9688 47.4688 24.1094 47.8281
Q26.2656 48.1875 28.4219 48.1875
Q40.625 48.1875 47.75 41.5
Q54.8906 34.8125 54.8906 23.3906
Q54.8906 11.625 47.5625 5.09375
Q40.2344 -1.42188 26.9062 -1.42188
Q22.3125 -1.42188 17.5469 -0.640625
Q12.7969 0.140625 7.71875 1.70312
L7.71875 11.625
Q12.1094 9.23438 16.7969 8.0625
Q21.4844 6.89062 26.7031 6.89062
Q35.1562 6.89062 40.0781 11.3281
Q45.0156 15.7656 45.0156 23.3906
Q45.0156 31 40.0781 35.4375
Q35.1562 39.8906 26.7031 39.8906
Q22.75 39.8906 18.8125 39.0156
Q14.8906 38.1406 10.7969 36.2812
z
" id="BitstreamVeraSans-Roman-35"/>
      </defs>
      <g transform="translate(257.1740625 596.318125)scale(0.12 -0.12)">
       <use xlink:href="#BitstreamVeraSans-Roman-35"/>
       <use x="63.623046875" xlink:href="#BitstreamVeraSans-Roman-30"/>
       <use x="127.24609375" xlink:href="#BitstreamVeraSans-Roman-30"/>
       <use x="190.869140625" xlink:href="#BitstreamVeraSans-Roman-30"/>
       <use x="254.4921875" xlink:href="#BitstreamVeraSans-Roman-30"/>
      </g>
     </g>
    </g>
    <g id="xtick_3">
     <g id="line2d_8">
      <g>
       <use style="stroke:#000000;stroke-width:0.5;" x="442.8" xlink:href="#mc7db9fdffb" y="583.2"/>
      </g>
     </g>
     <g id="line2d_9">
      <g>
       <use style="stroke:#000000;stroke-width:0.5;" x="442.8" xlink:href="#m5a7d422ac3" y="64.8"/>
      </g>
     </g>
     <g id="text_3">
      <!-- 100000 -->
      <defs>
       <path d="
M12.4062 8.29688
L28.5156 8.29688
L28.5156 63.9219
L10.9844 60.4062
L10.9844 69.3906
L28.4219 72.9062
L38.2812 72.9062
L38.2812 8.29688
L54.3906 8.29688
L54.3906 0
L12.4062 0
z
" id="BitstreamVeraSans-Roman-31"/>
      </defs>
      <g transform="translate(420.9525 596.318125)scale(0.12 -0.12)">
       <use xlink:href="#BitstreamVeraSans-Roman-31"/>
       <use x="63.623046875" xlink:href="#BitstreamVeraSans-Roman-30"/>
       <use x="127.24609375" xlink:href="#BitstreamVeraSans-Roman-30"/>
       <use x="190.869140625" xlink:href="#BitstreamVeraSans-Roman-30"/>
       <use x="254.4921875" xlink:href="#BitstreamVeraSans-Roman-30"/>
       <use x="318.115234375" xlink:href="#BitstreamVeraSans-Roman-30"/>
      </g>
     </g>
    </g>
    <g id="xtick_4">
     <g id="line2d_10">
      <g>
       <use style="stroke:#000000;stroke-width:0.5;" x="610.2" xlink:href="#mc7db9fdffb" y="583.2"/>
      </g>
     </g>
     <g id="line2d_11">
      <g>
       <use style="stroke:#000000;stroke-width:0.5;" x="610.2" xlink:href="#m5a7d422ac3" y="64.8"/>
      </g>
     </g>
     <g id="text_4">
      <!-- 150000 -->
      <g transform="translate(588.3525 596.318125)scale(0.12 -0.12)">
       <use xlink:href="#BitstreamVeraSans-Roman-31"/>
       <use x="63.623046875" xlink:href="#BitstreamVeraSans-Roman-35"/>
       <use x="127.24609375" xlink:href="#BitstreamVeraSans-Roman-30"/>
       <use x="190.869140625" xlink:href="#BitstreamVeraSans-Roman-30"/>
       <use x="254.4921875" xlink:href="#BitstreamVeraSans-Roman-30"/>
       <use x="318.115234375" xlink:href="#BitstreamVeraSans-Roman-30"/>
      </g>
     </g>
    </g>
    <g id="xtick_5">
     <g id="line2d_12">
      <g>
       <use style="stroke:#000000;stroke-width:0.5;" x="777.6" xlink:href="#mc7db9fdffb" y="583.2"/>
      </g>
     </g>
     <g id="line2d_13">
      <g>
       <use style="stroke:#000000;stroke-width:0.5;" x="777.6" xlink:href="#m5a7d422ac3" y="64.8"/>
      </g>
     </g>
     <g id="text_5">
      <!-- 200000 -->
      <defs>
       <path d="
M19.1875 8.29688
L53.6094 8.29688
L53.6094 0
L7.32812 0
L7.32812 8.29688
Q12.9375 14.1094 22.625 23.8906
Q32.3281 33.6875 34.8125 36.5312
Q39.5469 41.8438 41.4219 45.5312
Q43.3125 49.2188 43.3125 52.7812
Q43.3125 58.5938 39.2344 62.25
Q35.1562 65.9219 28.6094 65.9219
Q23.9688 65.9219 18.8125 64.3125
Q13.6719 62.7031 7.8125 59.4219
L7.8125 69.3906
Q13.7656 71.7812 18.9375 73
Q24.125 74.2188 28.4219 74.2188
Q39.75 74.2188 46.4844 68.5469
Q53.2188 62.8906 53.2188 53.4219
Q53.2188 48.9219 51.5312 44.8906
Q49.8594 40.875 45.4062 35.4062
Q44.1875 33.9844 37.6406 27.2188
Q31.1094 20.4531 19.1875 8.29688" id="BitstreamVeraSans-Roman-32"/>
      </defs>
      <g transform="translate(755.533125 596.318125)scale(0.12 -0.12)">
       <use xlink:href="#BitstreamVeraSans-Roman-32"/>
       <use x="63.623046875" xlink:href="#BitstreamVeraSans-Roman-30"/>
       <use x="127.24609375" xlink:href="#BitstreamVeraSans-Roman-30"/>
       <use x="190.869140625" xlink:href="#BitstreamVeraSans-Roman-30"/>
       <use x="254.4921875" xlink:href="#BitstreamVeraSans-Roman-30"/>
       <use x="318.115234375" xlink:href="#BitstreamVeraSans-Roman-30"/>
      </g>
     </g>
    </g>
    <g id="text_6">
     <!-- t / ms -->
     <defs>
      <path d="
M25.3906 72.9062
L33.6875 72.9062
L8.29688 -9.28125
L0 -9.28125
z
" id="BitstreamVeraSans-Roman-2f"/>
      <path id="BitstreamVeraSans-Roman-20"/>
      <path d="
M18.3125 70.2188
L18.3125 54.6875
L36.8125 54.6875
L36.8125 47.7031
L18.3125 47.7031
L18.3125 18.0156
Q18.3125 11.3281 20.1406 9.42188
Q21.9688 7.51562 27.5938 7.51562
L36.8125 7.51562
L36.8125 0
L27.5938 0
Q17.1875 0 13.2344 3.875
Q9.28125 7.76562 9.28125 18.0156
L9.28125 47.7031
L2.6875 47.7031
L2.6875 54.6875
L9.28125 54.6875
L9.28125 70.2188
z
" id="BitstreamVeraSans-Roman-74"/>
      <path d="
M44.2812 53.0781
L44.2812 44.5781
Q40.4844 46.5312 36.375 47.5
Q32.2812 48.4844 27.875 48.4844
Q21.1875 48.4844 17.8438 46.4375
Q14.5 44.3906 14.5 40.2812
Q14.5 37.1562 16.8906 35.375
Q19.2812 33.5938 26.5156 31.9844
L29.5938 31.2969
Q39.1562 29.25 43.1875 25.5156
Q47.2188 21.7812 47.2188 15.0938
Q47.2188 7.46875 41.1875 3.01562
Q35.1562 -1.42188 24.6094 -1.42188
Q20.2188 -1.42188 15.4531 -0.5625
Q10.6875 0.296875 5.42188 2
L5.42188 11.2812
Q10.4062 8.6875 15.2344 7.39062
Q20.0625 6.10938 24.8125 6.10938
Q31.1562 6.10938 34.5625 8.28125
Q37.9844 10.4531 37.9844 14.4062
Q37.9844 18.0625 35.5156 20.0156
Q33.0625 21.9688 24.7031 23.7812
L21.5781 24.5156
Q13.2344 26.2656 9.51562 29.9062
Q5.8125 33.5469 5.8125 39.8906
Q5.8125 47.6094 11.2812 51.7969
Q16.75 56 26.8125 56
Q31.7812 56 36.1719 55.2656
Q40.5781 54.5469 44.2812 53.0781" id="BitstreamVeraSans-Roman-73"/>
      <path d="
M52 44.1875
Q55.375 50.25 60.0625 53.125
Q64.75 56 71.0938 56
Q79.6406 56 84.2812 50.0156
Q88.9219 44.0469 88.9219 33.0156
L88.9219 0
L79.8906 0
L79.8906 32.7188
Q79.8906 40.5781 77.0938 44.375
Q74.3125 48.1875 68.6094 48.1875
Q61.625 48.1875 57.5625 43.5469
Q53.5156 38.9219 53.5156 30.9062
L53.5156 0
L44.4844 0
L44.4844 32.7188
Q44.4844 40.625 41.7031 44.4062
Q38.9219 48.1875 33.1094 48.1875
Q26.2188 48.1875 22.1562 43.5312
Q18.1094 38.875 18.1094 30.9062
L18.1094 0
L9.07812 0
L9.07812 54.6875
L18.1094 54.6875
L18.1094 46.1875
Q21.1875 51.2188 25.4844 53.6094
Q29.7812 56 35.6875 56
Q41.6562 56 45.8281 52.9688
Q50 49.9531 52 44.1875" id="BitstreamVeraSans-Roman-6d"/>
     </defs>
     <g transform="translate(425.9353125 612.931875)scale(0.12 -0.12)">
      <use xlink:href="#BitstreamVeraSans-Roman-74"/>
      <use x="39.208984375" xlink:href="#BitstreamVeraSans-Roman-20"/>
      <use x="70.99609375" xlink:href="#BitstreamVeraSans-Roman-2f"/>
      <use x="104.6875" xlink:href="#BitstreamVeraSans-Roman-20"/>
      <use x="136.474609375" xlink:href="#BitstreamVeraSans-Roman-6d"/>
      <use x="233.88671875" xlink:href="#BitstreamVeraSans-Roman-73"/>
     </g>
    </g>
   </g>
   <g id="matplotlib.axis_2">
    <g id="ytick_1">
     <g id="line2d_14">
      <defs>
       <path d="
M0 0
L4 0" id="md7965d1ba0" style="stroke:#000000;stroke-width:0.5;"/>
      </defs>
      <g>
       <use style="stroke:#000000;stroke-width:0.5;" x="108.0" xlink:href="#md7965d1ba0" y="583.2"/>
      </g>
     </g>
     <g id="line2d_15">
      <defs>
       <path d="
M0 0
L-4 0" id="md9a1c1a7cd" style="stroke:#000000;stroke-width:0.5;"/>
      </defs>
      <g>
       <use style="stroke:#000000;stroke-width:0.5;" x="777.6" xlink:href="#md9a1c1a7cd" y="583.2"/>
      </g>
     </g>
     <g id="text_7">
      <!-- 0 -->
      <g transform="translate(97.953125 586.51125)scale(0.12 -0.12)">
       <use xlink:href="#BitstreamVeraSans-Roman-30"/>
      </g>
     </g>
    </g>
    <g id="ytick_2">
     <g id="line2d_16">
      <g>
       <use style="stroke:#000000;stroke-width:0.5;" x="108.0" xlink:href="#md7965d1ba0" y="479.52"/>
      </g>
     </g>
     <g id="line2d_17">
      <g>
       <use style="stroke:#000000;stroke-width:0.5;" x="777.6" xlink:href="#md9a1c1a7cd" y="479.52"/>
      </g>
     </g>
     <g id="text_8">
      <!-- 500 -->
      <g transform="translate(82.818125 482.83125)scale(0.12 -0.12)">
       <use xlink:href="#BitstreamVeraSans-Roman-35"/>
       <use x="63.623046875" xlink:href="#BitstreamVeraSans-Roman-30"/>
       <use x="127.24609375" xlink:href="#BitstreamVeraSans-Roman-30"/>
      </g>
     </g>
    </g>
    <g id="ytick_3">
     <g id="line2d_18">
      <g>
       <use style="stroke:#000000;stroke-width:0.5;" x="108.0" xlink:href="#md7965d1ba0" y="375.84"/>
      </g>
     </g>
     <g id="line2d_19">
      <g>
       <use style="stroke:#000000;stroke-width:0.5;" x="777.6" xlink:href="#md9a1c1a7cd" y="375.84"/>
      </g>
     </g>
     <g id="text_9">
      <!-- 1000 -->
      <g transform="translate(75.575 379.15125)scale(0.12 -0.12)">
       <use xlink:href="#BitstreamVeraSans-Roman-31"/>
       <use x="63.623046875" xlink:href="#BitstreamVeraSans-Roman-30"/>
       <use x="127.24609375" xlink:href="#BitstreamVeraSans-Roman-30"/>
       <use x="190.869140625" xlink:href="#BitstreamVeraSans-Roman-30"/>
      </g>
     </g>
    </g>
    <g id="ytick_4">
     <g id="line2d_20">
      <g>
       <use style="stroke:#000000;stroke-width:0.5;" x="108.0" xlink:href="#md7965d1ba0" y="272.16"/>
      </g>
     </g>
     <g id="line2d_21">
      <g>
       <use style="stroke:#000000;stroke-width:0.5;" x="777.6" xlink:href="#md9a1c1a7cd" y="272.16"/>
      </g>
     </g>
     <g id="text_10">
      <!-- 1500 -->
      <g transform="translate(75.575 275.47125)scale(0.12 -0.12)">
       <use xlink:href="#BitstreamVeraSans-Roman-31"/>
       <use x="63.623046875" xlink:href="#BitstreamVeraSans-Roman-35"/>
       <use x="127.24609375" xlink:href="#BitstreamVeraSans-Roman-30"/>
       <use x="190.869140625" xlink:href="#BitstreamVeraSans-Roman-30"/>
      </g>
     </g>
    </g>
    <g id="ytick_5">
     <g id="line2d_22">
      <g>
       <use style="stroke:#000000;stroke-width:0.5;" x="108.0" xlink:href="#md7965d1ba0" y="168.48"/>
      </g>
     </g>
     <g id="line2d_23">
      <g>
       <use style="stroke:#000000;stroke-width:0.5;" x="777.6" xlink:href="#md9a1c1a7cd" y="168.48"/>
      </g>
     </g>
     <g id="text_11">
      <!-- 2000 -->
      <g transform="translate(75.13625 171.79125)scale(0.12 -0.12)">
       <use xlink:href="#BitstreamVeraSans-Roman-32"/>
       <use x="63.623046875" xlink:href="#BitstreamVeraSans-Roman-30"/>
       <use x="127.24609375" xlink:href="#BitstreamVeraSans-Roman-30"/>
       <use x="190.869140625" xlink:href="#BitstreamVeraSans-Roman-30"/>
      </g>
     </g>
    </g>
    <g id="ytick_6">
     <g id="line2d_24">
      <g>
       <use style="stroke:#000000;stroke-width:0.5;" x="108.0" xlink:href="#md7965d1ba0" y="64.8"/>
      </g>
     </g>
     <g id="line2d_25">
      <g>
       <use style="stroke:#000000;stroke-width:0.5;" x="777.6" xlink:href="#md9a1c1a7cd" y="64.8"/>
      </g>
     </g>
     <g id="text_12">
      <!-- 2500 -->
      <g transform="translate(75.13625 68.11125)scale(0.12 -0.12)">
       <use xlink:href="#BitstreamVeraSans-Roman-32"/>
       <use x="63.623046875" xlink:href="#BitstreamVeraSans-Roman-35"/>
       <use x="127.24609375" xlink:href="#BitstreamVeraSans-Roman-30"/>
       <use x="190.869140625" xlink:href="#BitstreamVeraSans-Roman-30"/>
      </g>
     </g>
    </g>
    <g id="text_13">
     <!-- particle numbers -->
     <defs>
      <path d="
M48.6875 27.2969
Q48.6875 37.2031 44.6094 42.8438
Q40.5312 48.4844 33.4062 48.4844
Q26.2656 48.4844 22.1875 42.8438
Q18.1094 37.2031 18.1094 27.2969
Q18.1094 17.3906 22.1875 11.75
Q26.2656 6.10938 33.4062 6.10938
Q40.5312 6.10938 44.6094 11.75
Q48.6875 17.3906 48.6875 27.2969
M18.1094 46.3906
Q20.9531 51.2656 25.2656 53.625
Q29.5938 56 35.5938 56
Q45.5625 56 51.7812 48.0938
Q58.0156 40.1875 58.0156 27.2969
Q58.0156 14.4062 51.7812 6.48438
Q45.5625 -1.42188 35.5938 -1.42188
Q29.5938 -1.42188 25.2656 0.953125
Q20.9531 3.32812 18.1094 8.20312
L18.1094 0
L9.07812 0
L9.07812 75.9844
L18.1094 75.9844
z
" id="BitstreamVeraSans-Roman-62"/>
      <path d="
M34.2812 27.4844
Q23.3906 27.4844 19.1875 25
Q14.9844 22.5156 14.9844 16.5
Q14.9844 11.7188 18.1406 8.90625
Q21.2969 6.10938 26.7031 6.10938
Q34.1875 6.10938 38.7031 11.4062
Q43.2188 16.7031 43.2188 25.4844
L43.2188 27.4844
z

M52.2031 31.2031
L52.2031 0
L43.2188 0
L43.2188 8.29688
Q40.1406 3.32812 35.5469 0.953125
Q30.9531 -1.42188 24.3125 -1.42188
Q15.9219 -1.42188 10.9531 3.29688
Q6 8.01562 6 15.9219
Q6 25.1406 12.1719 29.8281
Q18.3594 34.5156 30.6094 34.5156
L43.2188 34.5156
L43.2188 35.4062
Q43.2188 41.6094 39.1406 45
Q35.0625 48.3906 27.6875 48.3906
Q23 48.3906 18.5469 47.2656
Q14.1094 46.1406 10.0156 43.8906
L10.0156 52.2031
Q14.9375 54.1094 19.5781 55.0469
Q24.2188 56 28.6094 56
Q40.4844 56 46.3438 49.8438
Q52.2031 43.7031 52.2031 31.2031" id="BitstreamVeraSans-Roman-61"/>
      <path d="
M41.1094 46.2969
Q39.5938 47.1719 37.8125 47.5781
Q36.0312 48 33.8906 48
Q26.2656 48 22.1875 43.0469
Q18.1094 38.0938 18.1094 28.8125
L18.1094 0
L9.07812 0
L9.07812 54.6875
L18.1094 54.6875
L18.1094 46.1875
Q20.9531 51.1719 25.4844 53.5781
Q30.0312 56 36.5312 56
Q37.4531 56 38.5781 55.875
Q39.7031 55.7656 41.0625 55.5156
z
" id="BitstreamVeraSans-Roman-72"/>
      <path d="
M56.2031 29.5938
L56.2031 25.2031
L14.8906 25.2031
Q15.4844 15.9219 20.4844 11.0625
Q25.4844 6.20312 34.4219 6.20312
Q39.5938 6.20312 44.4531 7.46875
Q49.3125 8.73438 54.1094 11.2812
L54.1094 2.78125
Q49.2656 0.734375 44.1875 -0.34375
Q39.1094 -1.42188 33.8906 -1.42188
Q20.7969 -1.42188 13.1562 6.1875
Q5.51562 13.8125 5.51562 26.8125
Q5.51562 40.2344 12.7656 48.1094
Q20.0156 56 32.3281 56
Q43.3594 56 49.7812 48.8906
Q56.2031 41.7969 56.2031 29.5938
M47.2188 32.2344
Q47.125 39.5938 43.0938 43.9844
Q39.0625 48.3906 32.4219 48.3906
Q24.9062 48.3906 20.3906 44.1406
Q15.875 39.8906 15.1875 32.1719
z
" id="BitstreamVeraSans-Roman-65"/>
      <path d="
M8.5 21.5781
L8.5 54.6875
L17.4844 54.6875
L17.4844 21.9219
Q17.4844 14.1562 20.5 10.2656
Q23.5312 6.39062 29.5938 6.39062
Q36.8594 6.39062 41.0781 11.0312
Q45.3125 15.6719 45.3125 23.6875
L45.3125 54.6875
L54.2969 54.6875
L54.2969 0
L45.3125 0
L45.3125 8.40625
Q42.0469 3.42188 37.7188 1
Q33.4062 -1.42188 27.6875 -1.42188
Q18.2656 -1.42188 13.375 4.4375
Q8.5 10.2969 8.5 21.5781" id="BitstreamVeraSans-Roman-75"/>
      <path d="
M9.42188 54.6875
L18.4062 54.6875
L18.4062 0
L9.42188 0
z

M9.42188 75.9844
L18.4062 75.9844
L18.4062 64.5938
L9.42188 64.5938
z
" id="BitstreamVeraSans-Roman-69"/>
      <path d="
M9.42188 75.9844
L18.4062 75.9844
L18.4062 0
L9.42188 0
z
" id="BitstreamVeraSans-Roman-6c"/>
      <path d="
M48.7812 52.5938
L48.7812 44.1875
Q44.9688 46.2969 41.1406 47.3438
Q37.3125 48.3906 33.4062 48.3906
Q24.6562 48.3906 19.8125 42.8438
Q14.9844 37.3125 14.9844 27.2969
Q14.9844 17.2812 19.8125 11.7344
Q24.6562 6.20312 33.4062 6.20312
Q37.3125 6.20312 41.1406 7.25
Q44.9688 8.29688 48.7812 10.4062
L48.7812 2.09375
Q45.0156 0.34375 40.9844 -0.53125
Q36.9688 -1.42188 32.4219 -1.42188
Q20.0625 -1.42188 12.7812 6.34375
Q5.51562 14.1094 5.51562 27.2969
Q5.51562 40.6719 12.8594 48.3281
Q20.2188 56 33.0156 56
Q37.1562 56 41.1094 55.1406
Q45.0625 54.2969 48.7812 52.5938" id="BitstreamVeraSans-Roman-63"/>
      <path d="
M18.1094 8.20312
L18.1094 -20.7969
L9.07812 -20.7969
L9.07812 54.6875
L18.1094 54.6875
L18.1094 46.3906
Q20.9531 51.2656 25.2656 53.625
Q29.5938 56 35.5938 56
Q45.5625 56 51.7812 48.0938
Q58.0156 40.1875 58.0156 27.2969
Q58.0156 14.4062 51.7812 6.48438
Q45.5625 -1.42188 35.5938 -1.42188
Q29.5938 -1.42188 25.2656 0.953125
Q20.9531 3.32812 18.1094 8.20312
M48.6875 27.2969
Q48.6875 37.2031 44.6094 42.8438
Q40.5312 48.4844 33.4062 48.4844
Q26.2656 48.4844 22.1875 42.8438
Q18.1094 37.2031 18.1094 27.2969
Q18.1094 17.3906 22.1875 11.75
Q26.2656 6.10938 33.4062 6.10938
Q40.5312 6.10938 44.6094 11.75
Q48.6875 17.3906 48.6875 27.2969" id="BitstreamVeraSans-Roman-70"/>
      <path d="
M54.8906 33.0156
L54.8906 0
L45.9062 0
L45.9062 32.7188
Q45.9062 40.4844 42.875 44.3281
Q39.8438 48.1875 33.7969 48.1875
Q26.5156 48.1875 22.3125 43.5469
Q18.1094 38.9219 18.1094 30.9062
L18.1094 0
L9.07812 0
L9.07812 54.6875
L18.1094 54.6875
L18.1094 46.1875
Q21.3438 51.125 25.7031 53.5625
Q30.0781 56 35.7969 56
Q45.2188 56 50.0469 50.1719
Q54.8906 44.3438 54.8906 33.0156" id="BitstreamVeraSans-Roman-6e"/>
     </defs>
     <g transform="translate(67.640625 374.78625)rotate(-90.0)scale(0.12 -0.12)">
      <use xlink:href="#BitstreamVeraSans-Roman-70"/>
      <use x="63.4765625" xlink:href="#BitstreamVeraSans-Roman-61"/>
      <use x="124.755859375" xlink:href="#BitstreamVeraSans-Roman-72"/>
      <use x="165.869140625" xlink:href="#BitstreamVeraSans-Roman-74"/>
      <use x="205.078125" xlink:href="#BitstreamVeraSans-Roman-69"/>
      <use x="232.861328125" xlink:href="#BitstreamVeraSans-Roman-63"/>
      <use x="287.841796875" xlink:href="#BitstreamVeraSans-Roman-6c"/>
      <use x="315.625" xlink:href="#BitstreamVeraSans-Roman-65"/>
      <use x="377.1484375" xlink:href="#BitstreamVeraSans-Roman-20"/>
      <use x="408.935546875" xlink:href="#BitstreamVeraSans-Roman-6e"/>
      <use x="472.314453125" xlink:href="#BitstreamVeraSans-Roman-75"/>
      <use x="535.693359375" xlink:href="#BitstreamVeraSans-Roman-6d"/>
      <use x="633.10546875" xlink:href="#BitstreamVeraSans-Roman-62"/>
      <use x="696.58203125" xlink:href="#BitstreamVeraSans-Roman-65"/>
      <use x="758.10546875" xlink:href="#BitstreamVeraSans-Roman-72"/>
      <use x="799.21875" xlink:href="#BitstreamVeraSans-Roman-73"/>
     </g>
    </g>
   </g>
   <g id="legend_1">
    <g id="patch_7">
     <path d="
M724.53 101.224
L774.1 101.224
L774.1 68.3
L724.53 68.3
z
" style="fill:#ffffff;stroke:#000000;stroke-linejoin:miter;"/>
    </g>
    <g id="line2d_26">
     <path d="
M729.43 73.9689
L739.23 73.9689" style="fill:none;stroke:#ff0000;stroke-linecap:square;"/>
    </g>
    <g id="line2d_27"/>
    <g id="text_14">
     <!-- Da el.0 -->
     <defs>
      <path d="
M19.6719 64.7969
L19.6719 8.10938
L31.5938 8.10938
Q46.6875 8.10938 53.6875 14.9375
Q60.6875 21.7812 60.6875 36.5312
Q60.6875 51.1719 53.6875 57.9844
Q46.6875 64.7969 31.5938 64.7969
z

M9.8125 72.9062
L30.0781 72.9062
Q51.2656 72.9062 61.1719 64.0938
Q71.0938 55.2812 71.0938 36.5312
Q71.0938 17.6719 61.125 8.82812
Q51.1719 0 30.0781 0
L9.8125 0
z
" id="BitstreamVeraSans-Roman-44"/>
      <path d="
M10.6875 12.4062
L21 12.4062
L21 0
L10.6875 0
z
" id="BitstreamVeraSans-Roman-2e"/>
     </defs>
     <g transform="translate(746.93015625 76.41890625)scale(0.07 -0.07)">
      <use xlink:href="#BitstreamVeraSans-Roman-44"/>
      <use x="77.001953125" xlink:href="#BitstreamVeraSans-Roman-61"/>
      <use x="138.28125" xlink:href="#BitstreamVeraSans-Roman-20"/>
      <use x="170.068359375" xlink:href="#BitstreamVeraSans-Roman-65"/>
      <use x="231.591796875" xlink:href="#BitstreamVeraSans-Roman-6c"/>
      <use x="259.375" xlink:href="#BitstreamVeraSans-Roman-2e"/>
      <use x="291.162109375" xlink:href="#BitstreamVeraSans-Roman-30"/>
     </g>
    </g>
    <g id="line2d_28">
     <path d="
M729.43 84.2436
L739.23 84.2436" style="fill:none;stroke:#008000;stroke-linecap:square;"/>
    </g>
    <g id="line2d_29"/>
    <g id="text_15">
     <!-- Da el.1 -->
     <g transform="translate(746.93015625 86.69359375)scale(0.07 -0.07)">
      <use xlink:href="#BitstreamVeraSans-Roman-44"/>
      <use x="77.001953125" xlink:href="#BitstreamVeraSans-Roman-61"/>
      <use x="138.28125" xlink:href="#BitstreamVeraSans-Roman-20"/>
      <use x="170.068359375" xlink:href="#BitstreamVeraSans-Roman-65"/>
      <use x="231.591796875" xlink:href="#BitstreamVeraSans-Roman-6c"/>
      <use x="259.375" xlink:href="#BitstreamVeraSans-Roman-2e"/>
      <use x="291.162109375" xlink:href="#BitstreamVeraSans-Roman-31"/>
     </g>
    </g>
    <g id="line2d_30">
     <path d="
M729.43 94.5183
L739.23 94.5183" style="fill:none;stroke:#0000ff;stroke-linecap:square;"/>
    </g>
    <g id="line2d_31"/>
    <g id="text_16">
     <!-- Da el.2 -->
     <g transform="translate(746.93015625 96.96828125)scale(0.07 -0.07)">
      <use xlink:href="#BitstreamVeraSans-Roman-44"/>
      <use x="77.001953125" xlink:href="#BitstreamVeraSans-Roman-61"/>
      <use x="138.28125" xlink:href="#BitstreamVeraSans-Roman-20"/>
      <use x="170.068359375" xlink:href="#BitstreamVeraSans-Roman-65"/>
      <use x="231.591796875" xlink:href="#BitstreamVeraSans-Roman-6c"/>
      <use x="259.375" xlink:href="#BitstreamVeraSans-Roman-2e"/>
      <use x="291.162109375" xlink:href="#BitstreamVeraSans-Roman-32"/>
     </g>
    </g>
   </g>
  </g>
 </g>
 <defs>
  <clipPath id="p7ceb695115">
   <rect height="518.4" width="669.6" x="108.0" y="64.8"/>
  </clipPath>
 </defs>
</svg>
