<?xml version="1.0" encoding="utf-8" standalone="no"?>
<!DOCTYPE svg PUBLIC "-//W3C//DTD SVG 1.1//EN"
  "http://www.w3.org/Graphics/SVG/1.1/DTD/svg11.dtd">
<!-- Created with matplotlib (http://matplotlib.org/) -->
<svg height="648pt" version="1.1" viewBox="0 0 864 648" width="864pt" xmlns="http://www.w3.org/2000/svg" xmlns:xlink="http://www.w3.org/1999/xlink">
 <defs>
  <style type="text/css">
*{stroke-linecap:butt;stroke-linejoin:round;}
  </style>
 </defs>
 <g id="figure_1">
  <g id="patch_1">
   <path d="
M0 648
L864 648
L864 0
L0 0
z
" style="fill:#ffffff;"/>
  </g>
  <g id="axes_1">
   <g id="patch_2">
    <path d="
M108 583.2
L777.6 583.2
L777.6 64.8
L108 64.8
z
" style="fill:#ffffff;"/>
   </g>
   <g id="line2d_1">
    <path clip-path="url(#p7ceb695115)" d="
M108 582.928
L108.67 583.135
L111.348 583.161
L112.018 583.019
L112.687 583.044
L113.357 582.915
L114.026 583.006
L114.696 582.967
L115.366 582.811
L116.035 582.928
L119.383 582.811
L120.053 582.824
L120.722 582.98
L123.401 582.759
L124.07 582.863
L126.079 582.72
L126.749 582.915
L127.418 582.759
L128.088 582.824
L128.758 582.746
L130.097 582.759
L130.766 582.669
L132.106 582.889
L132.775 582.708
L134.784 582.798
L135.454 582.604
L136.123 582.772
L136.793 582.656
L139.471 582.785
L140.141 582.669
L142.15 582.928
L142.819 582.759
L144.158 582.669
L144.828 582.837
L146.167 582.682
L146.837 582.824
L148.846 582.708
L149.515 582.785
L150.185 582.552
L150.854 582.785
L152.194 582.63
L152.863 582.85
L153.533 582.759
L154.872 582.85
L155.542 582.695
L157.55 582.811
L159.559 582.733
L160.229 582.733
L160.898 582.617
L161.568 582.785
L166.255 582.695
L166.925 582.902
L168.264 582.669
L168.934 582.733
L170.273 582.669
L172.282 582.759
L172.951 582.656
L173.621 582.772
L174.29 582.63
L176.299 582.915
L176.969 582.772
L182.995 582.759
L183.665 582.889
L184.334 582.746
L185.004 582.85
L186.343 582.746
L187.013 582.902
L188.352 582.772
L189.022 582.785
L189.691 582.941
L190.361 582.85
L191.03 582.967
L191.7 582.733
L192.37 582.85
L193.709 582.798
L194.378 582.746
L195.048 582.837
L196.387 582.72
L197.726 582.941
L198.396 582.837
L199.066 582.863
L199.735 582.695
L201.074 582.85
L202.414 582.824
L203.083 582.682
L204.422 582.63
L205.762 582.928
L206.431 582.63
L207.77 582.902
L211.118 582.682
L211.788 582.785
L213.127 582.72
L215.806 582.772
L216.475 582.695
L217.145 582.85
L217.814 582.682
L218.484 582.682
L219.154 582.85
L219.823 582.785
L221.162 582.941
L223.841 582.708
L225.18 582.811
L226.519 582.772
L227.189 582.824
L227.858 582.708
L231.206 582.824
L231.876 582.759
L233.885 582.863
L241.92 582.798
L243.259 582.837
L243.929 582.669
L244.598 582.85
L245.938 582.876
L246.607 582.656
L247.277 582.682
L247.946 582.889
L251.294 582.772
L251.964 582.772
L252.634 582.928
L254.642 582.656
L255.312 582.889
L255.982 582.669
L256.651 582.915
L259.999 582.759
L261.338 582.941
L262.008 582.954
L262.678 582.759
L264.017 582.772
L265.356 582.941
L266.026 582.733
L268.034 582.824
L268.704 582.915
L270.043 582.798
L271.382 582.824
L279.418 582.785
L280.087 582.954
L280.757 582.746
L281.426 582.876
L282.096 582.863
L282.766 582.993
L283.435 582.811
L284.105 582.746
L284.774 582.954
L286.114 582.824
L286.783 582.941
L293.479 582.772
L294.149 582.915
L294.818 582.785
L295.488 582.928
L296.827 582.811
L306.202 582.941
L307.541 582.902
L310.219 582.928
L312.898 582.98
L314.906 582.876
L316.246 582.785
L317.585 582.954
L319.594 582.876
L320.263 582.967
L320.933 582.85
L322.942 582.902
L324.281 582.798
L325.62 582.928
L351.734 582.902
L352.404 582.811
L353.074 583.006
L353.743 582.98
L354.413 582.824
L355.082 582.863
L355.752 583.019
L357.761 582.889
L359.1 582.863
L359.77 582.837
L360.439 582.993
L361.109 582.863
L364.457 582.902
L371.822 582.915
L373.162 583.083
L374.501 582.941
L403.294 583.006
L403.963 582.824
L404.633 582.98
L405.302 582.889
L405.972 582.941
L406.642 582.837
L408.65 583.032
L409.32 582.915
L409.99 582.993
L410.659 582.889
L414.007 582.954
L416.686 582.837
L418.025 582.889
L418.694 582.759
L420.034 582.915
L420.703 582.863
L421.373 583.019
L422.042 582.915
L423.382 583.019
L424.051 583.032
L424.721 582.928
L426.06 582.954
L432.086 582.928
L432.756 582.811
L433.426 583.057
L436.104 582.967
L436.774 583.006
L437.443 582.889
L438.113 582.993
L439.452 582.954
L441.461 582.941
L442.8 582.915
L443.47 582.772
L444.139 582.267
L444.809 580.66
L445.478 579.506
L446.818 574.426
L447.487 571.134
L448.157 569.1
L448.826 565.691
L449.496 561.596
L450.166 558.498
L450.835 554.183
L452.844 544.994
L454.853 530.232
L455.522 527.07
L456.192 522.988
L456.862 517.635
L458.201 509.626
L458.87 504.3
L459.54 502.109
L460.21 497.016
L460.879 495.409
L462.218 488.1
L462.888 487.335
L463.558 482.669
L464.227 480.207
L464.897 481.296
L465.566 479.74
L466.236 477.446
L466.906 473.649
L467.575 471.64
L468.245 472.405
L468.914 468.945
L469.584 468.582
L470.254 468.789
L470.923 468.802
L471.593 466.21
L472.262 465.523
L472.932 466.223
L473.602 463.553
L474.271 464.473
L474.941 462.75
L475.61 466.534
L476.28 463.618
L476.95 461.894
L478.289 459.588
L479.628 459.03
L480.298 459.912
L480.967 461.117
L481.637 458.447
L482.976 459.341
L483.646 460.119
L484.315 458.486
L484.985 460.495
L485.654 458.266
L486.324 460.845
L486.994 459.16
L487.663 460.909
L488.333 460.676
L489.002 459.678
L489.672 459.86
L490.342 459.199
L491.011 458.914
L491.681 459.795
L492.35 459.976
L493.02 461.052
L493.69 460.391
L494.359 462.037
L495.029 462.089
L495.698 461.156
L496.368 464.214
L497.038 463.411
L497.707 460.585
L498.377 461
L499.046 463.838
L499.716 461.026
L500.386 462.905
L501.055 465.199
L501.725 464.512
L503.064 465.342
L503.734 466.016
L504.403 464.564
L505.073 468.763
L505.742 467.999
L506.412 466.832
L507.082 469.333
L507.751 468.608
L508.421 468.958
L509.09 472.34
L509.76 468.854
L510.43 468.737
L511.099 470.85
L511.769 469.657
L512.438 470.578
L513.108 469.528
L513.778 470.616
L514.447 471.925
L515.117 472.327
L515.786 473.208
L516.456 472.884
L517.126 473.714
L517.795 473.208
L518.465 474.038
L519.134 474.582
L519.804 474.867
L520.474 474.569
L521.143 474.012
L521.813 477.252
L522.482 476.578
L523.152 477.161
L523.822 474.44
L524.491 476.241
L525.161 477.382
L525.83 475.956
L526.5 477.135
L527.17 478.704
L527.839 478.561
L528.509 479.092
L529.178 479.17
L529.848 477.576
L530.518 479.002
L531.187 480.842
L531.857 480.479
L532.526 482.967
L533.196 482.358
L533.866 485.987
L534.535 482.773
L535.205 483.123
L535.874 483.032
L536.544 484.613
L537.214 485.676
L537.883 484.587
L538.553 486.92
L539.222 486.389
L539.892 486.428
L540.562 488.436
L541.231 489.383
L541.901 488.436
L542.57 489.784
L543.91 489.525
L544.579 490.769
L545.249 489.901
L545.918 489.849
L546.588 491.34
L547.927 490.484
L548.597 492.493
L549.266 492.972
L549.936 492.195
L550.606 492.752
L551.275 492.363
L551.945 492.195
L553.284 493.867
L553.954 493.711
L555.293 494.852
L555.962 494.696
L556.632 494.826
L557.302 496.562
L557.971 495.824
L558.641 497.197
L559.31 497.055
L559.98 497.962
L560.65 498.61
L561.319 499.621
L561.989 499.491
L562.658 497.133
L563.328 499.699
L563.998 501.733
L564.667 500.593
L565.337 498.921
L566.006 502.485
L566.676 501.435
L567.346 500.748
L568.015 501.306
L569.354 503.392
L570.024 503.885
L570.694 504.183
L571.363 504.87
L572.702 505.064
L573.372 504.662
L574.042 505.336
L574.711 506.179
L576.05 506.308
L576.72 507.164
L577.39 506.814
L578.059 505.816
L578.729 508.473
L579.398 510.43
L580.068 510.157
L580.738 510.041
L581.407 509.795
L582.077 511.635
L582.746 510.572
L583.416 511.168
L584.086 513.644
L584.755 512.918
L586.094 511.959
L586.764 514.616
L587.434 513.372
L588.103 515.173
L588.773 514.771
L590.112 515.795
L590.782 514.655
L591.451 515.601
L592.121 514.668
L592.79 515.536
L593.46 515.64
L594.13 516.806
L594.799 516.054
L595.469 518.491
L596.138 517.402
L596.808 517.415
L597.478 518.27
L598.147 518.452
L598.817 517.376
L599.486 518.594
L600.156 518.543
L600.826 518.193
L601.495 518.089
L602.165 518.387
L602.834 520.435
L603.504 521.16
L604.174 520.124
L604.843 521.122
L605.513 520.824
L606.182 521.899
L606.852 522.262
L607.522 519.761
L608.191 521.186
L608.861 520.681
L609.53 521.238
L610.2 522.768
L610.87 521.264
L611.539 522.988
L612.878 523.856
L613.548 525.904
L614.218 525.036
L614.887 525.061
L615.557 525.748
L616.226 525.217
L616.896 524.867
L617.566 526.643
L618.235 525.852
L618.905 526.85
L619.574 525.295
L620.244 525.502
L621.583 527.666
L622.253 528.82
L622.922 526.915
L623.592 527.239
L624.262 527.304
L624.931 528.47
L625.601 528.003
L626.27 528.366
L626.94 529.636
L627.61 528.457
L628.279 530.582
L629.618 529.014
L630.288 529.805
L630.958 529.403
L631.627 529.312
L632.297 530.518
L632.966 530.375
L633.636 529.572
L634.306 527.809
L634.975 529.377
L635.645 529.235
L636.314 529.39
L636.984 530.751
L637.654 530.686
L638.323 530.427
L638.993 531.23
L639.662 532.319
L640.332 531.84
L641.002 530.232
L641.671 532.112
L642.341 533.537
L643.01 532.021
L643.68 531.904
L645.019 533.2
L645.689 532.837
L646.358 534.419
L647.028 532.306
L647.698 533.939
L648.367 532.669
L649.037 533.796
L649.706 533.097
L650.376 533.732
L651.046 533.706
L651.715 534.95
L652.385 533.991
L653.054 532.358
L653.724 534.082
L654.394 534.12
L655.063 533.382
L655.733 534.561
L657.072 533.771
L657.742 535.442
L658.411 534.846
L659.081 534.082
L659.75 533.563
L660.42 534.457
L661.09 534.963
L661.759 533.874
L662.429 534.056
L663.098 535.144
L663.768 535.222
L664.438 534.794
L665.107 535.313
L665.777 536.583
L666.446 534.12
L667.116 537.192
L667.786 535.494
L668.455 535.935
L669.125 535.702
L669.794 536.181
L670.464 536.168
L671.134 535.468
L671.803 535.948
L672.473 535.87
L673.142 536.635
L673.812 536.712
L674.482 536.492
L675.151 536.414
L675.821 538.242
L676.49 536.22
L677.16 536.376
L677.83 536.881
L678.499 536.207
L679.169 536.466
L679.838 537.231
L681.178 535.87
L681.847 536.635
L682.517 537.827
L683.186 537.36
L683.856 537.309
L685.195 538.112
L685.865 536.933
L686.534 537.257
L687.204 537.736
L687.874 537.749
L688.543 538.255
L689.213 539.227
L689.882 539.292
L690.552 538.942
L691.891 539.667
L692.561 540.315
L693.23 541.534
L693.9 540.769
L694.57 540.613
L695.239 540.873
L695.909 540.367
L696.578 540.86
L697.248 540.445
L697.918 540.445
L698.587 539.356
L699.257 540.782
L699.926 541.145
L700.596 539.823
L701.266 542.13
L701.935 541.961
L702.605 541.585
L703.944 542.337
L704.614 541.909
L705.283 542.985
L705.953 543.283
L706.622 542.363
L707.292 542.687
L707.962 543.62
L709.301 541.884
L709.97 544.527
L710.64 542.22
L711.31 543.089
L711.979 541.391
L712.649 542.843
L713.318 542.856
L713.988 541.547
L714.658 541.598
L715.327 542.065
L716.666 541.352
L717.336 543.646
L718.006 543.594
L718.675 542.972
L719.345 543.607
L720.014 541.482
L720.684 542.83
L721.354 543.646
L722.023 542.92
L722.693 543.231
L723.362 543.05
L724.032 543.542
L724.702 542.596
L725.371 543.426
L726.041 543.892
L726.71 543.361
L727.38 542.48
L728.05 542.415
L728.719 541.974
L729.389 543.348
L730.058 543.361
L730.728 542.985
L731.398 543.465
L732.067 543.231
L732.737 541.598
L733.406 544.812
L734.076 542.544
L734.746 544.216
L735.415 544.087
L736.085 544.501
L736.754 544.605
L737.424 545.201
L738.094 545.357
L738.763 545.162
L739.433 545.927
L740.772 545.551
L741.442 545.746
L742.111 545.007
L742.781 545.098
L743.45 544.851
L744.12 544.463
L744.79 546.251
L745.459 546.484
L746.129 545.901
L746.798 546.225
L747.468 547.547
L748.138 546.705
L749.477 546.277
L750.146 547.754
L750.816 546.277
L751.486 546.756
L752.155 546.847
L752.825 546.601
L753.494 547.093
L754.164 546.769
L754.834 546.99
L756.173 548.26
L756.842 548.713
L757.512 548.467
L758.182 547.728
L758.851 548.713
L760.19 549.711
L760.86 548.364
L761.53 548.078
L762.199 548.532
L762.869 548.143
L763.538 548.402
L764.208 549.037
L764.878 548.856
L765.547 549.828
L766.217 550.308
L766.886 550.217
L767.556 549.102
L768.226 549.141
L768.895 550.606
L769.565 550.45
L770.904 548.856
L771.574 549.193
L772.243 550.787
L772.913 550.683
L773.582 549.737
L774.252 550.8
L774.922 550.035
L775.591 549.815
L776.261 549.063
L776.93 549.906
L777.6 550.126
L777.6 550.126" style="fill:none;stroke:#ff0000;stroke-linecap:square;"/>
   </g>
   <g id="line2d_2">
    <path clip-path="url(#p7ceb695115)" d="
M108 582.085
L108.67 582.915
L110.678 583.032
L111.348 582.785
L112.018 582.682
L112.687 582.461
L113.357 582.591
L114.026 582.267
L114.696 582.293
L116.035 581.995
L116.705 581.787
L117.374 581.969
L118.714 581.761
L119.383 581.8
L120.053 582.085
L120.722 581.761
L121.392 581.671
L123.401 581.839
L124.07 581.476
L125.41 581.373
L126.079 581.528
L126.749 581.463
L128.088 581.554
L128.758 581.476
L129.427 581.684
L130.766 581.399
L131.436 581.684
L132.106 581.658
L132.775 581.774
L133.445 581.373
L134.114 581.554
L134.784 581.139
L135.454 581.36
L136.793 581.463
L137.462 581.282
L138.802 581.697
L139.471 581.736
L140.141 581.58
L143.489 581.554
L144.158 581.36
L144.828 581.515
L145.498 581.217
L146.167 581.489
L146.837 581.45
L147.506 581.295
L148.176 581.36
L149.515 581.191
L150.185 581.243
L150.854 581.088
L151.524 581.45
L152.863 581.399
L153.533 581.217
L154.202 581.308
L154.872 581.554
L155.542 581.308
L156.881 581.152
L157.55 581.412
L158.89 581.463
L159.559 581.256
L160.229 581.165
L160.898 581.412
L161.568 581.204
L162.238 581.165
L162.907 581.36
L163.577 581.243
L164.246 581.295
L164.916 581.645
L165.586 581.437
L166.255 581.347
L167.594 581.554
L170.273 581.554
L170.942 581.71
L172.951 581.347
L173.621 581.567
L174.96 581.567
L176.299 581.386
L176.969 581.308
L177.638 581.645
L178.308 581.515
L178.978 581.697
L179.647 581.515
L180.317 581.567
L180.986 581.139
L181.656 581.593
L182.326 581.852
L183.665 581.347
L184.334 581.619
L185.004 581.58
L185.674 581.8
L186.343 581.489
L187.013 581.736
L188.352 581.567
L189.022 581.956
L189.691 581.554
L190.361 581.723
L191.03 581.334
L191.7 581.774
L192.37 581.684
L193.039 581.736
L193.709 581.463
L194.378 581.489
L195.048 581.645
L195.718 581.204
L197.057 581.645
L199.066 581.567
L199.735 581.748
L201.074 581.45
L201.744 581.71
L203.083 581.217
L203.753 581.424
L204.422 581.839
L205.092 581.437
L205.762 581.567
L206.431 581.515
L207.101 581.787
L208.44 581.567
L209.11 581.787
L210.449 581.567
L211.118 581.8
L211.788 581.424
L212.458 581.645
L213.797 581.645
L214.466 581.476
L215.136 581.554
L215.806 581.839
L216.475 581.515
L217.145 581.528
L218.484 581.774
L219.154 581.8
L219.823 581.71
L220.493 581.748
L221.832 581.619
L223.171 581.684
L223.841 581.736
L224.51 581.619
L225.18 581.723
L225.85 581.463
L227.189 581.308
L227.858 581.515
L228.528 581.204
L229.198 581.58
L229.867 581.761
L230.537 581.723
L231.206 581.502
L232.546 581.839
L233.215 581.645
L233.885 581.58
L235.224 581.748
L235.894 581.761
L236.563 581.969
L237.233 581.619
L237.902 581.619
L238.572 581.476
L239.242 581.736
L239.911 581.684
L240.581 581.424
L241.25 581.476
L241.92 581.684
L242.59 581.567
L243.259 581.658
L243.929 581.865
L245.938 581.541
L246.607 581.736
L247.946 581.502
L251.964 581.58
L252.634 581.463
L253.303 581.697
L253.973 581.593
L254.642 581.813
L255.982 581.528
L256.651 581.839
L257.321 581.943
L257.99 581.463
L258.66 581.554
L259.33 581.826
L259.999 581.761
L260.669 581.852
L261.338 581.736
L262.008 581.865
L263.347 581.774
L264.686 581.632
L266.026 581.865
L268.034 581.658
L268.704 581.8
L269.374 581.697
L272.052 581.761
L272.722 581.58
L273.391 581.528
L274.061 581.774
L275.4 581.982
L276.07 581.697
L277.409 582.047
L278.078 581.878
L278.748 581.593
L279.418 581.787
L280.087 581.826
L280.757 581.645
L281.426 582.047
L282.096 581.917
L282.766 581.93
L283.435 582.111
L284.105 581.943
L285.444 582.098
L286.114 582.047
L286.783 581.852
L287.453 582.047
L288.122 582.072
L290.131 581.761
L292.14 581.982
L292.81 581.839
L293.479 581.969
L294.149 581.684
L294.818 581.671
L296.158 581.891
L297.497 581.8
L302.184 582.098
L302.854 581.684
L304.193 582.072
L304.862 581.943
L305.532 582.215
L307.541 581.995
L308.21 582.189
L308.88 582.241
L312.228 581.956
L312.898 582.241
L313.567 581.904
L314.237 581.995
L314.906 581.891
L316.915 582.085
L317.585 582.163
L318.924 581.969
L319.594 582.098
L320.263 581.723
L321.602 581.878
L322.272 582.202
L323.611 581.71
L324.281 581.787
L325.62 582.163
L326.959 582.085
L327.629 582.293
L328.298 582.021
L328.968 582.267
L329.638 582.189
L330.307 581.943
L330.977 581.839
L331.646 582.072
L332.986 582.137
L334.325 581.891
L335.664 582.06
L338.342 582.034
L339.012 582.111
L339.682 582.072
L340.351 582.228
L342.36 581.8
L343.03 582.072
L344.369 582.137
L345.708 581.93
L346.378 582.124
L351.734 582.163
L352.404 582.293
L353.074 581.969
L353.743 582.137
L354.413 582.189
L355.082 582.047
L357.761 582.008
L358.43 582.332
L359.1 582.319
L359.77 582.176
L360.439 582.345
L361.109 582.047
L361.778 582.176
L362.448 582.085
L363.118 582.15
L364.457 582.072
L365.126 582.267
L366.466 582.034
L367.135 582.254
L368.474 582.085
L369.144 582.254
L371.153 582.163
L374.501 582.241
L375.17 582.098
L375.84 582.215
L377.849 581.956
L378.518 582.111
L379.188 582.384
L379.858 581.878
L381.197 582.28
L382.536 582.098
L383.206 582.189
L385.884 582.085
L386.554 582.306
L387.223 582.384
L387.893 582.008
L388.562 582.215
L389.232 582.111
L391.241 582.396
L391.91 582.215
L392.58 582.189
L393.25 582.008
L393.919 582.189
L394.589 582.15
L395.928 582.28
L396.598 582.15
L398.606 582.202
L399.276 582.072
L399.946 582.15
L400.615 582.06
L402.624 582.267
L403.294 582.111
L404.633 582.319
L405.302 582.021
L405.972 582.15
L408.65 582.111
L409.32 581.865
L409.99 581.891
L411.329 582.228
L411.998 582.241
L412.668 582.396
L414.007 581.995
L415.346 582.098
L416.016 581.917
L416.686 582.047
L417.355 581.93
L418.025 582.319
L418.694 582.137
L420.703 582.254
L421.373 582.072
L422.042 582.241
L424.051 582.267
L424.721 582.435
L425.39 582.461
L427.399 582.137
L428.069 582.254
L428.738 582.163
L429.408 582.371
L430.747 582.189
L431.417 582.28
L432.086 582.072
L433.426 582.215
L434.095 582.358
L434.765 582.215
L435.434 582.293
L436.104 582.098
L436.774 582.28
L437.443 582.085
L438.782 582.176
L439.452 582.021
L440.122 582.215
L442.8 582.189
L443.47 582.085
L444.139 579.558
L444.809 574.452
L445.478 566.948
L446.818 548.104
L448.826 510.754
L450.166 487.322
L452.844 428.898
L453.514 410.21
L454.183 394.788
L458.201 284.083
L459.54 252.681
L460.21 243.635
L460.879 230.157
L461.549 213.373
L462.218 205.066
L462.888 191.964
L464.227 178.965
L464.897 169.439
L466.906 151.632
L468.245 136.806
L468.914 135.536
L469.584 128.926
L470.923 117.547
L471.593 116.433
L472.932 111.262
L473.602 110.497
L474.271 110.069
L474.941 108.112
L475.61 100.984
L476.28 97.8998
L476.95 99.8568
L477.619 96.2539
L478.289 94.7506
L478.958 94.5302
L479.628 88.9574
L480.298 89.5277
L480.967 88.5557
L481.637 89.9035
L482.306 88.6853
L482.976 86.4821
L483.646 87.8299
L484.315 91.4846
L484.985 89.748
L485.654 89.1
L486.324 88.8926
L486.994 91.2125
L487.663 90.3442
L488.333 90.9922
L489.002 90.4219
L489.672 88.9704
L490.342 90.0331
L491.011 92.5214
L491.681 92.1197
L492.35 92.2882
L493.02 93.8822
L493.69 92.3659
L494.359 95.3078
L495.029 97.0574
L495.698 97.7832
L496.368 96.6686
L497.038 94.5562
L497.707 98.7682
L498.377 100.479
L499.046 99.5458
L499.716 102.565
L500.386 103.356
L501.055 105.546
L501.725 106.92
L502.394 111.806
L503.064 111.689
L503.734 112.26
L504.403 117.379
L505.073 114.385
L505.742 117.962
L506.412 120.593
L507.082 121.733
L507.751 126.347
L508.421 126.541
L509.09 126.619
L509.76 131.207
L510.43 132.36
L511.099 132.529
L511.769 131.376
L512.438 132.529
L513.108 136.637
L514.447 138.27
L515.117 137.868
L515.786 141.484
L516.456 140.292
L517.126 141.795
L517.795 146.707
L518.465 146.591
L519.134 147.368
L520.474 152.461
L521.143 152.772
L521.813 152.578
L522.482 156.66
L523.152 158.812
L523.822 160.276
L524.491 159.343
L525.161 159.602
L525.83 163.192
L526.5 164.087
L527.17 164.32
L527.839 167.845
L528.509 167.91
L529.178 172.122
L529.848 174.04
L530.518 176.347
L531.187 177.759
L531.857 178.472
L532.526 179.392
L533.196 183.06
L533.866 179.6
L534.535 183.889
L535.874 190.68
L536.544 191.51
L537.214 190.499
L537.883 194.348
L538.553 193.467
L539.222 197.964
L540.562 201.385
L541.231 204.081
L541.901 207.282
L542.57 205.973
L543.24 208.436
L543.91 208.202
L545.249 211.248
L545.918 213.309
L546.588 214.294
L547.258 215.978
L547.927 216.795
L548.597 215.616
L549.266 215.641
L549.936 217.43
L550.606 220.89
L551.275 220.877
L552.614 226.891
L553.284 227.254
L553.954 229.262
L554.623 229.781
L555.293 231.621
L555.962 235.768
L556.632 236.002
L557.302 234.991
L557.971 237.298
L558.641 240.602
L559.31 242.235
L559.98 243.039
L560.65 242.844
L561.319 246.668
L561.989 246.162
L562.658 249.843
L563.328 250.633
L563.998 252.137
L564.667 256.764
L565.337 256.725
L566.006 257.489
L566.676 260.483
L567.346 261.611
L568.015 261.429
L568.685 265.213
L569.354 264.228
L570.024 264.449
L570.694 267.313
L571.363 268.622
L572.033 269.49
L572.702 268.22
L573.372 268.816
L574.042 270.112
L574.711 273.249
L575.381 272.989
L576.05 275.413
L576.72 278.29
L577.39 278.627
L578.059 284.77
L578.729 283.5
L579.398 284.9
L580.068 287.531
L580.738 289.112
L581.407 291.717
L582.077 292.935
L582.746 295.605
L583.416 297.536
L584.086 298.521
L584.755 301.54
L585.425 302.603
L586.094 302.772
L586.764 305.117
L587.434 306.582
L588.103 308.876
L588.773 308.694
L589.442 309.485
L590.112 311.234
L590.782 313.904
L591.451 311.351
L592.121 314.371
L592.79 313.464
L593.46 315.524
L594.13 315.174
L594.799 317.442
L595.469 315.693
L596.808 321.058
L597.478 322.354
L598.147 321.797
L598.817 324.272
L599.486 324.622
L600.156 327.214
L600.826 327.02
L602.165 328.471
L602.834 330.143
L603.504 328.834
L604.174 331.983
L604.843 331.776
L605.513 333.02
L606.182 331.75
L606.852 333.785
L607.522 336.83
L608.191 335.599
L608.861 338.969
L609.53 341.159
L610.2 342.014
L610.87 342.287
L611.539 343.207
L612.209 345.462
L612.878 345.578
L613.548 345.28
L614.218 348.43
L614.887 350.801
L615.557 350.503
L616.226 350.749
L616.896 353.108
L617.566 349.57
L618.235 353.406
L618.905 351.229
L619.574 355.895
L620.244 356.465
L620.914 356.504
L621.583 358.344
L622.253 360.534
L623.592 362.465
L624.262 361.325
L624.931 362.621
L625.601 363.528
L626.27 366.548
L626.94 362.932
L627.61 364.487
L628.279 365.096
L628.949 367.04
L629.618 366.807
L630.288 367.17
L630.958 366.975
L631.627 367.714
L632.297 367.351
L632.966 368.505
L633.636 368.725
L634.306 369.904
L634.975 369.982
L635.645 370.734
L636.314 370.708
L636.984 370.41
L637.654 373.222
L638.993 376.06
L639.662 374.09
L640.332 375.918
L641.002 378.613
L641.671 378.199
L642.341 378.173
L643.01 379.365
L643.68 381.802
L644.35 380.557
L645.019 381.05
L645.689 381.387
L646.358 380.48
L647.028 384.614
L647.698 384.134
L648.367 384.342
L649.037 385.56
L649.706 384.42
L650.376 384.782
L651.046 384.601
L651.715 383.383
L652.385 384.679
L653.054 387.569
L653.724 386.182
L654.394 386.454
L655.063 387.31
L655.733 386.752
L656.402 387.932
L657.072 388.515
L657.742 388.632
L658.411 388.087
L659.081 391.638
L659.75 391.236
L660.42 388.061
L661.09 386.454
L661.759 386.921
L662.429 388.657
L663.768 388.994
L664.438 388.333
L665.107 391.211
L665.777 390.433
L666.446 391.224
L667.116 388.489
L667.786 390.9
L668.455 391.859
L669.125 391.327
L669.794 392.325
L670.464 392.688
L671.134 394.593
L671.803 397.263
L672.473 395.15
L673.142 394.334
L673.812 394.93
L674.482 397.639
L675.151 395.954
L675.821 394.762
L677.16 397.159
L677.83 396.058
L678.499 396.693
L679.838 398.766
L680.508 400.542
L681.178 399.829
L681.847 399.648
L682.517 398.468
L683.186 400.308
L683.856 401.047
L684.526 401.125
L685.195 403.341
L685.865 402.758
L686.534 403.652
L687.204 403.134
L687.874 405.454
L688.543 403.937
L689.213 404.015
L689.882 407.294
L690.552 409.147
L691.222 408.447
L691.891 409.005
L692.561 409.912
L693.23 408.732
L693.9 409.419
L694.57 411.493
L695.239 411.208
L695.909 412.232
L696.578 411.597
L697.248 413.256
L697.918 413.437
L698.587 414.94
L699.257 414.733
L699.926 414.215
L700.596 415.783
L701.266 417.001
L701.935 417.869
L702.605 418.09
L703.274 419.774
L703.944 420.124
L704.614 420.643
L705.283 420.474
L705.953 421.044
L706.622 420.863
L707.292 421.757
L707.962 423.183
L708.631 422.042
L709.301 422.055
L709.97 423.092
L710.64 422.69
L711.31 420.669
L711.979 421.407
L712.649 420.552
L713.318 419.036
L713.988 420.461
L714.658 420.85
L715.327 419.075
L715.997 420.241
L716.666 419.463
L717.336 418.893
L719.345 423.96
L720.014 424.349
L721.354 419.256
L722.023 419.282
L723.362 421.654
L724.032 421.174
L724.702 422.677
L725.371 421.044
L726.041 420.695
L728.05 422.535
L728.719 423.014
L729.389 423.986
L730.058 423.986
L730.728 424.699
L731.398 423.222
L732.067 422.833
L732.737 425.762
L733.406 423.118
L734.076 427.071
L735.415 426.747
L736.085 429.17
L736.754 428.095
L737.424 430.259
L738.094 428.587
L738.763 429.702
L739.433 428.587
L740.102 431.529
L740.772 431.788
L741.442 432.449
L742.111 432.242
L742.781 431.749
L743.45 433.81
L744.12 434.704
L744.79 435.974
L745.459 435.456
L746.129 436.415
L746.798 435.845
L747.468 437.763
L748.138 437.426
L748.807 438.761
L749.477 438.566
L750.146 434.938
L750.816 437.568
L751.486 437.206
L752.155 438.903
L752.825 438.955
L754.164 440.796
L754.834 440.186
L755.503 440.342
L756.173 441.729
L756.842 443.763
L757.512 442.636
L758.182 444.541
L758.851 444.852
L759.521 444.606
L760.19 444.722
L760.86 444.709
L761.53 443.4
L762.199 445.63
L762.869 446.407
L763.538 446.589
L764.208 448.753
L764.878 448.196
L765.547 450.114
L766.217 451.241
L766.886 448.455
L767.556 450.114
L768.226 451.06
L768.895 448.649
L770.234 451.475
L770.904 449.829
L771.574 449.401
L772.243 449.777
L772.913 452.071
L773.582 453.885
L774.252 452.434
L775.591 452.148
L776.261 452.641
L776.93 451.034
L777.6 450.995
L777.6 450.995" style="fill:none;stroke:#008000;stroke-linecap:square;"/>
   </g>
   <g id="line2d_3">
    <path clip-path="url(#p7ceb695115)" d="
M108 582.928
L108.67 583.109
L109.339 583.187
L111.348 583.044
L113.357 583.122
L115.366 582.941
L116.035 583.006
L116.705 582.863
L118.044 582.863
L118.714 582.733
L119.383 582.902
L123.401 582.863
L124.74 582.708
L126.749 582.85
L127.418 582.695
L130.766 582.785
L131.436 582.85
L133.445 582.682
L134.784 582.772
L136.123 582.578
L138.802 582.759
L140.141 582.591
L141.48 583.006
L144.158 582.604
L144.828 582.798
L145.498 582.798
L146.167 582.643
L148.846 582.876
L149.515 582.759
L150.854 582.798
L151.524 582.604
L152.863 582.837
L153.533 582.656
L154.872 582.759
L155.542 582.63
L156.211 582.63
L156.881 582.915
L158.22 582.772
L158.89 582.928
L159.559 582.682
L160.229 582.785
L160.898 582.669
L163.577 582.733
L164.246 582.682
L164.916 582.811
L165.586 582.72
L166.925 582.772
L167.594 582.682
L168.264 582.785
L169.603 582.733
L170.273 582.915
L171.612 582.591
L172.282 582.759
L173.621 582.643
L174.29 582.772
L178.308 582.785
L178.978 582.72
L179.647 582.785
L180.317 582.695
L180.986 582.811
L181.656 582.5
L182.995 582.772
L186.343 582.85
L187.013 582.708
L188.352 583.006
L189.022 582.708
L191.03 582.863
L191.7 582.798
L192.37 582.928
L193.709 582.759
L195.718 582.863
L196.387 582.733
L197.726 582.824
L198.396 582.772
L199.735 582.876
L201.074 582.708
L201.744 582.708
L202.414 582.863
L203.083 582.902
L203.753 582.733
L204.422 582.798
L205.092 582.733
L205.762 582.798
L207.101 582.63
L207.77 582.863
L210.449 582.863
L211.118 582.759
L211.788 582.785
L212.458 582.63
L213.797 582.643
L214.466 582.798
L215.806 582.798
L216.475 582.643
L217.145 582.785
L217.814 582.708
L218.484 582.746
L219.154 582.915
L222.502 582.798
L224.51 582.876
L225.85 582.733
L227.189 582.798
L227.858 582.604
L228.528 582.837
L229.198 582.772
L230.537 582.863
L237.233 582.837
L237.902 582.746
L238.572 582.85
L239.242 582.708
L240.581 582.837
L242.59 582.759
L243.929 582.824
L246.607 582.798
L247.277 582.578
L247.946 582.798
L248.616 582.863
L249.286 582.708
L250.625 582.811
L251.294 582.759
L251.964 582.954
L253.973 582.941
L254.642 582.72
L259.999 582.954
L260.669 582.785
L264.017 582.811
L264.686 582.902
L265.356 582.72
L266.026 582.889
L266.695 582.656
L268.034 582.889
L270.713 582.941
L271.382 582.733
L272.722 582.928
L274.73 582.772
L275.4 582.98
L278.078 582.85
L280.757 582.863
L281.426 582.811
L282.766 582.941
L284.774 582.915
L288.122 582.902
L289.462 582.824
L290.801 582.863
L295.488 582.85
L296.158 582.733
L296.827 582.928
L298.166 582.85
L300.175 582.889
L300.845 582.798
L301.514 582.928
L302.854 582.889
L303.523 582.967
L304.193 582.876
L305.532 582.928
L306.202 582.72
L306.871 582.941
L312.228 582.889
L312.898 583.019
L313.567 582.837
L314.237 582.967
L318.254 582.902
L318.924 582.824
L319.594 582.889
L320.263 582.772
L321.602 582.902
L322.272 582.837
L323.611 582.902
L324.281 582.837
L326.29 582.915
L329.638 582.954
L330.977 582.876
L332.316 582.863
L332.986 582.798
L333.655 582.863
L334.325 582.772
L336.334 582.98
L337.003 582.798
L337.673 582.824
L338.342 582.967
L347.047 582.863
L349.056 582.954
L350.395 582.824
L351.065 582.967
L353.074 582.915
L354.413 582.98
L355.082 582.863
L356.422 582.902
L358.43 582.876
L359.77 582.98
L361.778 582.876
L363.118 582.954
L365.126 582.915
L368.474 582.993
L369.144 582.85
L370.483 582.954
L376.51 582.876
L377.179 582.967
L377.849 582.863
L378.518 582.98
L379.188 582.902
L380.527 582.967
L382.536 583.032
L383.206 583.057
L385.214 582.785
L385.884 582.941
L386.554 582.967
L387.223 582.876
L390.571 583.006
L391.241 582.915
L391.91 583.006
L393.919 582.941
L407.311 582.915
L407.981 582.785
L408.65 582.954
L409.32 582.967
L409.99 582.85
L413.338 582.811
L414.007 583.006
L415.346 582.811
L416.016 582.798
L416.686 582.928
L417.355 582.876
L418.694 583.019
L420.034 582.967
L420.703 582.98
L421.373 582.837
L422.712 582.954
L425.39 583.006
L426.06 583.032
L426.73 582.863
L427.399 582.941
L428.738 582.915
L429.408 582.98
L430.078 582.863
L430.747 583.032
L432.086 582.695
L432.756 582.98
L433.426 582.824
L435.434 582.954
L436.774 583.032
L438.113 583.006
L438.782 582.85
L439.452 583.07
L440.791 582.876
L442.8 582.967
L443.47 582.785
L444.139 582.345
L444.809 581.023
L445.478 579.247
L447.487 571.536
L450.166 558.641
L450.835 556.373
L451.505 552.744
L452.174 547.793
L452.844 545.098
L453.514 540.769
L454.183 535.468
L454.853 531.943
L455.522 525.956
L456.862 517.143
L457.531 514.097
L458.201 507.838
L458.87 505.725
L459.54 501.954
L460.879 492.791
L461.549 493.219
L462.218 488.229
L462.888 486.389
L463.558 485.196
L464.897 479.157
L465.566 477.537
L466.236 474.919
L466.906 475.101
L467.575 473.753
L468.245 473.507
L468.914 470.694
L469.584 470.28
L470.254 467.96
L470.923 468.18
L471.593 467.96
L472.932 463.696
L473.602 465.432
L474.271 462.283
L474.941 461.998
L475.61 463.592
L476.28 464.564
L476.95 460.715
L477.619 463.061
L478.289 461.246
L478.958 460.067
L479.628 460.611
L480.298 457.514
L480.967 458.719
L481.637 458.81
L482.306 459.328
L482.976 459.341
L483.646 460.741
L484.315 459.847
L484.985 460.884
L485.654 460.884
L486.324 458.227
L486.994 460.365
L487.663 459.212
L488.333 458.356
L489.002 459.937
L489.672 459.626
L490.342 460.417
L491.011 459.212
L491.681 461.104
L492.35 461.726
L493.02 459.406
L493.69 461.298
L494.359 460.028
L495.029 460.78
L496.368 461.622
L497.038 463.333
L497.707 462.905
L498.377 461.506
L499.046 463.1
L499.716 464.124
L501.055 461.946
L501.725 463.994
L502.394 462.141
L503.064 465.938
L503.734 466.988
L504.403 465.782
L505.073 466.612
L505.742 466.417
L506.412 468.219
L507.082 467.675
L507.751 468.141
L508.421 470.007
L509.09 470.15
L509.76 469.333
L510.43 469.346
L511.099 469.58
L511.769 473.312
L512.438 471.277
L513.108 470.616
L513.778 470.305
L514.447 471.718
L515.786 472.573
L516.456 474.401
L517.126 472.353
L517.795 473.662
L518.465 474.168
L519.134 475.93
L519.804 474.258
L520.474 474.867
L521.143 474.803
L521.813 476.358
L522.482 475.554
L523.152 475.878
L523.822 477.382
L524.491 476.163
L525.161 475.671
L525.83 476.384
L526.5 478.768
L527.17 478.859
L527.839 478.613
L528.509 480.324
L529.178 477.472
L529.848 480.181
L530.518 480.583
L531.187 479.559
L531.857 482.371
L533.196 481.425
L533.866 482.838
L534.535 484.691
L535.205 483.602
L535.874 485.158
L536.544 483.926
L537.214 486.467
L537.883 484.652
L538.553 485.793
L539.222 485.948
L539.892 486.48
L540.562 484.872
L541.231 485.495
L542.57 488.877
L543.24 487.97
L543.91 490.99
L544.579 490.355
L545.249 490.056
L545.918 491.223
L546.588 490.458
L547.258 491.054
L547.927 491.197
L548.597 491.715
L549.266 492.065
L549.936 492.571
L550.606 491.586
L551.275 495.383
L551.945 495.033
L552.614 493.62
L553.284 493.089
L553.954 494.528
L554.623 495.474
L555.293 495.94
L555.962 496.018
L556.632 495.824
L557.302 496.225
L557.971 498.195
L558.641 499.219
L559.31 497.949
L560.65 499.997
L561.319 498.131
L561.989 500.1
L562.658 499.673
L563.328 499.789
L563.998 498.792
L564.667 499.491
L565.337 502.511
L566.006 501.072
L566.676 502.044
L567.346 504.209
L568.685 502.174
L569.354 503.457
L570.024 503.198
L571.363 501.837
L572.033 502.796
L572.702 504.87
L573.372 505.57
L574.042 505.401
L574.711 504.222
L575.381 507.241
L576.05 507.164
L576.72 505.673
L577.39 508.887
L578.059 507.06
L578.729 507.928
L579.398 508.291
L580.068 509.082
L580.738 509.341
L581.407 509.795
L582.077 509.302
L582.746 512.477
L583.416 511.894
L584.086 511.726
L584.755 512.736
L585.425 512.944
L586.094 514.162
L586.764 512.257
L587.434 515.73
L588.103 514.266
L588.773 515.769
L589.442 514.875
L590.112 515.341
L590.782 515.536
L591.451 517.272
L592.121 515.964
L592.79 517.104
L593.46 515.406
L594.13 515.601
L594.799 515.406
L595.469 515.665
L596.138 518.063
L596.808 516.702
L597.478 517.26
L598.147 517.428
L598.817 518.659
L599.486 520.383
L600.156 518.594
L600.826 519.022
L601.495 520.253
L602.165 521.186
L602.834 518.581
L603.504 520.746
L604.174 519.774
L604.843 520.098
L605.513 519.826
L606.182 521.083
L606.852 520.435
L608.191 521.86
L608.861 521.251
L609.53 521.51
L610.2 522.275
L610.87 523.714
L611.539 522.495
L612.209 523.364
L612.878 523.48
L613.548 524.634
L614.218 524.88
L614.887 524.828
L615.557 523.778
L616.226 525.852
L616.896 525.619
L617.566 527.109
L618.235 525.152
L618.905 526.902
L619.574 526.189
L620.244 526.072
L620.914 527.031
L621.583 527.122
L622.253 526.915
L622.922 528.327
L624.262 529.26
L624.931 527.018
L625.601 528.314
L626.27 527.122
L626.94 528.846
L627.61 528.82
L628.279 527.42
L628.949 526.967
L629.618 529.001
L630.288 528.768
L630.958 529.39
L631.627 529.131
L632.297 529.26
L632.966 529.999
L633.636 529.092
L634.306 529.468
L634.975 529.649
L635.645 530.012
L636.314 529.74
L636.984 530.323
L637.654 529.338
L638.323 530.621
L638.993 530.051
L639.662 531.956
L640.332 530.88
L641.002 531.943
L641.671 532.28
L642.341 532.189
L643.01 532.254
L643.68 531.619
L644.35 533.511
L645.019 533.965
L645.689 534.043
L646.358 533.084
L647.028 533.239
L647.698 532.876
L648.367 534.768
L649.037 532.954
L649.706 534.522
L651.046 533.654
L651.715 534.82
L653.054 534.289
L653.724 533.382
L654.394 534.12
L655.063 532.993
L655.733 535.002
L656.402 534.496
L657.742 534.6
L658.411 534.911
L659.081 532.747
L659.75 534.963
L660.42 533.55
L661.09 533.226
L661.759 533.537
L663.098 534.639
L663.768 534.133
L664.438 535.74
L665.107 534.768
L665.777 534.198
L666.446 535.766
L667.116 535.248
L667.786 535.144
L668.455 535.572
L669.125 536.959
L669.794 535.598
L671.134 536.881
L671.803 535.041
L672.473 536.233
L673.142 535.844
L673.812 535.585
L674.482 536.233
L675.151 536.687
L675.821 536.324
L676.49 536.751
L677.16 536
L677.83 536.7
L678.499 538.553
L679.169 536.816
L679.838 536.687
L680.508 535.974
L681.178 536.661
L681.847 536.842
L682.517 536.842
L683.186 535.766
L683.856 538.203
L684.526 537.983
L685.195 536.583
L685.865 538.695
L686.534 538.384
L687.204 538.618
L687.874 538.527
L688.543 538.086
L689.213 538.89
L689.882 538.32
L690.552 538.618
L691.222 539.81
L691.891 540.289
L692.561 539.408
L693.23 539.006
L693.9 540.523
L694.57 540.212
L695.239 539.68
L695.909 540.678
L696.578 541.158
L697.248 539.888
L697.918 540.847
L698.587 542.48
L699.257 541.093
L699.926 542.609
L700.596 542.233
L701.266 540.458
L701.935 541.754
L702.605 541.067
L703.274 540.821
L703.944 541.223
L704.614 543.763
L705.283 543.555
L705.953 542.609
L706.622 544.074
L707.292 542.83
L707.962 541.922
L708.631 542.583
L709.301 543.672
L709.97 541.443
L710.64 542.894
L711.31 542.104
L711.979 543.62
L712.649 541.922
L713.318 541.508
L713.988 542.907
L714.658 541.961
L715.327 541.884
L715.997 541.948
L716.666 543.192
L718.006 542.246
L718.675 541.974
L719.345 543.244
L720.014 541.767
L720.684 542.311
L721.354 541.974
L722.023 542.907
L722.693 541.78
L723.362 542.544
L724.032 542.92
L724.702 542.013
L725.371 543.244
L726.041 542.609
L726.71 542.441
L727.38 542.959
L728.05 542.013
L728.719 543.115
L729.389 543.05
L730.058 544.113
L730.728 542.739
L731.398 542.998
L732.067 542.169
L732.737 543.18
L733.406 544.709
L734.076 544.385
L734.746 543.348
L735.415 544.644
L736.754 544.981
L737.424 543.75
L738.094 544.514
L738.763 543.387
L739.433 544.89
L740.102 545.059
L740.772 544.825
L741.442 546.083
L742.111 545.111
L742.781 546.316
L743.45 545.227
L744.12 546.692
L744.79 545.499
L745.459 546.523
L746.129 546.277
L747.468 545.383
L748.138 546.601
L748.807 546.121
L749.477 546.005
L750.146 547.871
L750.816 546.977
L751.486 548.26
L752.155 547.677
L752.825 547.923
L753.494 547.78
L754.164 547.482
L754.834 548.376
L755.503 547.716
L756.173 548.571
L756.842 546.134
L757.512 548.83
L758.182 548.532
L758.851 547.767
L759.521 547.677
L760.19 548.688
L760.86 548.882
L761.53 549.608
L762.869 548.986
L763.538 549.867
L764.208 548.804
L764.878 550.217
L765.547 549.595
L766.217 547.975
L766.886 549.828
L767.556 549.776
L768.226 550.372
L768.895 550.657
L769.565 549.595
L770.234 549.958
L770.904 549.297
L771.574 550.826
L772.243 551.033
L772.913 550.58
L773.582 550.722
L775.591 550.204
L776.261 549.647
L776.93 550.295
L777.6 549.478
L777.6 549.478" style="fill:none;stroke:#0000ff;stroke-linecap:square;"/>
   </g>
   <g id="patch_3">
    <path d="
M108 583.2
L108 64.8" style="fill:none;stroke:#000000;stroke-linecap:square;stroke-linejoin:miter;"/>
   </g>
   <g id="patch_4">
    <path d="
M108 64.8
L777.6 64.8" style="fill:none;stroke:#000000;stroke-linecap:square;stroke-linejoin:miter;"/>
   </g>
   <g id="patch_5">
    <path d="
M108 583.2
L777.6 583.2" style="fill:none;stroke:#000000;stroke-linecap:square;stroke-linejoin:miter;"/>
   </g>
   <g id="patch_6">
    <path d="
M777.6 583.2
L777.6 64.8" style="fill:none;stroke:#000000;stroke-linecap:square;stroke-linejoin:miter;"/>
   </g>
   <g id="matplotlib.axis_1">
    <g id="xtick_1">
     <g id="line2d_4">
      <defs>
       <path d="
M0 0
L0 -4" id="mc7db9fdffb" style="stroke:#000000;stroke-width:0.5;"/>
      </defs>
      <g>
       <use style="stroke:#000000;stroke-width:0.5;" x="108.0" xlink:href="#mc7db9fdffb" y="583.2"/>
      </g>
     </g>
     <g id="line2d_5">
      <defs>
       <path d="
M0 0
L0 4" id="m5a7d422ac3" style="stroke:#000000;stroke-width:0.5;"/>
      </defs>
      <g>
       <use style="stroke:#000000;stroke-width:0.5;" x="108.0" xlink:href="#m5a7d422ac3" y="64.8"/>
      </g>
     </g>
     <g id="text_1">
      <!-- 0 -->
      <defs>
       <path d="
M31.7812 66.4062
Q24.1719 66.4062 20.3281 58.9062
Q16.5 51.4219 16.5 36.375
Q16.5 21.3906 20.3281 13.8906
Q24.1719 6.39062 31.7812 6.39062
Q39.4531 6.39062 43.2812 13.8906
Q47.125 21.3906 47.125 36.375
Q47.125 51.4219 43.2812 58.9062
Q39.4531 66.4062 31.7812 66.4062
M31.7812 74.2188
Q44.0469 74.2188 50.5156 64.5156
Q56.9844 54.8281 56.9844 36.375
Q56.9844 17.9688 50.5156 8.26562
Q44.0469 -1.42188 31.7812 -1.42188
Q19.5312 -1.42188 13.0625 8.26562
Q6.59375 17.9688 6.59375 36.375
Q6.59375 54.8281 13.0625 64.5156
Q19.5312 74.2188 31.7812 74.2188" id="BitstreamVeraSans-Roman-30"/>
      </defs>
      <g transform="translate(104.9765625 596.318125)scale(0.12 -0.12)">
       <use xlink:href="#BitstreamVeraSans-Roman-30"/>
      </g>
     </g>
    </g>
    <g id="xtick_2">
     <g id="line2d_6">
      <g>
       <use style="stroke:#000000;stroke-width:0.5;" x="275.4" xlink:href="#mc7db9fdffb" y="583.2"/>
      </g>
     </g>
     <g id="line2d_7">
      <g>
       <use style="stroke:#000000;stroke-width:0.5;" x="275.4" xlink:href="#m5a7d422ac3" y="64.8"/>
      </g>
     </g>
     <g id="text_2">
      <!-- 50000 -->
      <defs>
       <path d="
M10.7969 72.9062
L49.5156 72.9062
L49.5156 64.5938
L19.8281 64.5938
L19.8281 46.7344
Q21.9688 47.4688 24.1094 47.8281
Q26.2656 48.1875 28.4219 48.1875
Q40.625 48.1875 47.75 41.5
Q54.8906 34.8125 54.8906 23.3906
Q54.8906 11.625 47.5625 5.09375
Q40.2344 -1.42188 26.9062 -1.42188
Q22.3125 -1.42188 17.5469 -0.640625
Q12.7969 0.140625 7.71875 1.70312
L7.71875 11.625
Q12.1094 9.23438 16.7969 8.0625
Q21.4844 6.89062 26.7031 6.89062
Q35.1562 6.89062 40.0781 11.3281
Q45.0156 15.7656 45.0156 23.3906
Q45.0156 31 40.0781 35.4375
Q35.1562 39.8906 26.7031 39.8906
Q22.75 39.8906 18.8125 39.0156
Q14.8906 38.1406 10.7969 36.2812
z
" id="BitstreamVeraSans-Roman-35"/>
      </defs>
      <g transform="translate(257.1740625 596.318125)scale(0.12 -0.12)">
       <use xlink:href="#BitstreamVeraSans-Roman-35"/>
       <use x="63.623046875" xlink:href="#BitstreamVeraSans-Roman-30"/>
       <use x="127.24609375" xlink:href="#BitstreamVeraSans-Roman-30"/>
       <use x="190.869140625" xlink:href="#BitstreamVeraSans-Roman-30"/>
       <use x="254.4921875" xlink:href="#BitstreamVeraSans-Roman-30"/>
      </g>
     </g>
    </g>
    <g id="xtick_3">
     <g id="line2d_8">
      <g>
       <use style="stroke:#000000;stroke-width:0.5;" x="442.8" xlink:href="#mc7db9fdffb" y="583.2"/>
      </g>
     </g>
     <g id="line2d_9">
      <g>
       <use style="stroke:#000000;stroke-width:0.5;" x="442.8" xlink:href="#m5a7d422ac3" y="64.8"/>
      </g>
     </g>
     <g id="text_3">
      <!-- 100000 -->
      <defs>
       <path d="
M12.4062 8.29688
L28.5156 8.29688
L28.5156 63.9219
L10.9844 60.4062
L10.9844 69.3906
L28.4219 72.9062
L38.2812 72.9062
L38.2812 8.29688
L54.3906 8.29688
L54.3906 0
L12.4062 0
z
" id="BitstreamVeraSans-Roman-31"/>
      </defs>
      <g transform="translate(420.9525 596.318125)scale(0.12 -0.12)">
       <use xlink:href="#BitstreamVeraSans-Roman-31"/>
       <use x="63.623046875" xlink:href="#BitstreamVeraSans-Roman-30"/>
       <use x="127.24609375" xlink:href="#BitstreamVeraSans-Roman-30"/>
       <use x="190.869140625" xlink:href="#BitstreamVeraSans-Roman-30"/>
       <use x="254.4921875" xlink:href="#BitstreamVeraSans-Roman-30"/>
       <use x="318.115234375" xlink:href="#BitstreamVeraSans-Roman-30"/>
      </g>
     </g>
    </g>
    <g id="xtick_4">
     <g id="line2d_10">
      <g>
       <use style="stroke:#000000;stroke-width:0.5;" x="610.2" xlink:href="#mc7db9fdffb" y="583.2"/>
      </g>
     </g>
     <g id="line2d_11">
      <g>
       <use style="stroke:#000000;stroke-width:0.5;" x="610.2" xlink:href="#m5a7d422ac3" y="64.8"/>
      </g>
     </g>
     <g id="text_4">
      <!-- 150000 -->
      <g transform="translate(588.3525 596.318125)scale(0.12 -0.12)">
       <use xlink:href="#BitstreamVeraSans-Roman-31"/>
       <use x="63.623046875" xlink:href="#BitstreamVeraSans-Roman-35"/>
       <use x="127.24609375" xlink:href="#BitstreamVeraSans-Roman-30"/>
       <use x="190.869140625" xlink:href="#BitstreamVeraSans-Roman-30"/>
       <use x="254.4921875" xlink:href="#BitstreamVeraSans-Roman-30"/>
       <use x="318.115234375" xlink:href="#BitstreamVeraSans-Roman-30"/>
      </g>
     </g>
    </g>
    <g id="xtick_5">
     <g id="line2d_12">
      <g>
       <use style="stroke:#000000;stroke-width:0.5;" x="777.6" xlink:href="#mc7db9fdffb" y="583.2"/>
      </g>
     </g>
     <g id="line2d_13">
      <g>
       <use style="stroke:#000000;stroke-width:0.5;" x="777.6" xlink:href="#m5a7d422ac3" y="64.8"/>
      </g>
     </g>
     <g id="text_5">
      <!-- 200000 -->
      <defs>
       <path d="
M19.1875 8.29688
L53.6094 8.29688
L53.6094 0
L7.32812 0
L7.32812 8.29688
Q12.9375 14.1094 22.625 23.8906
Q32.3281 33.6875 34.8125 36.5312
Q39.5469 41.8438 41.4219 45.5312
Q43.3125 49.2188 43.3125 52.7812
Q43.3125 58.5938 39.2344 62.25
Q35.1562 65.9219 28.6094 65.9219
Q23.9688 65.9219 18.8125 64.3125
Q13.6719 62.7031 7.8125 59.4219
L7.8125 69.3906
Q13.7656 71.7812 18.9375 73
Q24.125 74.2188 28.4219 74.2188
Q39.75 74.2188 46.4844 68.5469
Q53.2188 62.8906 53.2188 53.4219
Q53.2188 48.9219 51.5312 44.8906
Q49.8594 40.875 45.4062 35.4062
Q44.1875 33.9844 37.6406 27.2188
Q31.1094 20.4531 19.1875 8.29688" id="BitstreamVeraSans-Roman-32"/>
      </defs>
      <g transform="translate(755.533125 596.318125)scale(0.12 -0.12)">
       <use xlink:href="#BitstreamVeraSans-Roman-32"/>
       <use x="63.623046875" xlink:href="#BitstreamVeraSans-Roman-30"/>
       <use x="127.24609375" xlink:href="#BitstreamVeraSans-Roman-30"/>
       <use x="190.869140625" xlink:href="#BitstreamVeraSans-Roman-30"/>
       <use x="254.4921875" xlink:href="#BitstreamVeraSans-Roman-30"/>
       <use x="318.115234375" xlink:href="#BitstreamVeraSans-Roman-30"/>
      </g>
     </g>
    </g>
    <g id="text_6">
     <!-- t / ms -->
     <defs>
      <path d="
M44.2812 53.0781
L44.2812 44.5781
Q40.4844 46.5312 36.375 47.5
Q32.2812 48.4844 27.875 48.4844
Q21.1875 48.4844 17.8438 46.4375
Q14.5 44.3906 14.5 40.2812
Q14.5 37.1562 16.8906 35.375
Q19.2812 33.5938 26.5156 31.9844
L29.5938 31.2969
Q39.1562 29.25 43.1875 25.5156
Q47.2188 21.7812 47.2188 15.0938
Q47.2188 7.46875 41.1875 3.01562
Q35.1562 -1.42188 24.6094 -1.42188
Q20.2188 -1.42188 15.4531 -0.5625
Q10.6875 0.296875 5.42188 2
L5.42188 11.2812
Q10.4062 8.6875 15.2344 7.39062
Q20.0625 6.10938 24.8125 6.10938
Q31.1562 6.10938 34.5625 8.28125
Q37.9844 10.4531 37.9844 14.4062
Q37.9844 18.0625 35.5156 20.0156
Q33.0625 21.9688 24.7031 23.7812
L21.5781 24.5156
Q13.2344 26.2656 9.51562 29.9062
Q5.8125 33.5469 5.8125 39.8906
Q5.8125 47.6094 11.2812 51.7969
Q16.75 56 26.8125 56
Q31.7812 56 36.1719 55.2656
Q40.5781 54.5469 44.2812 53.0781" id="BitstreamVeraSans-Roman-73"/>
      <path d="
M25.3906 72.9062
L33.6875 72.9062
L8.29688 -9.28125
L0 -9.28125
z
" id="BitstreamVeraSans-Roman-2f"/>
      <path d="
M18.3125 70.2188
L18.3125 54.6875
L36.8125 54.6875
L36.8125 47.7031
L18.3125 47.7031
L18.3125 18.0156
Q18.3125 11.3281 20.1406 9.42188
Q21.9688 7.51562 27.5938 7.51562
L36.8125 7.51562
L36.8125 0
L27.5938 0
Q17.1875 0 13.2344 3.875
Q9.28125 7.76562 9.28125 18.0156
L9.28125 47.7031
L2.6875 47.7031
L2.6875 54.6875
L9.28125 54.6875
L9.28125 70.2188
z
" id="BitstreamVeraSans-Roman-74"/>
      <path id="BitstreamVeraSans-Roman-20"/>
      <path d="
M52 44.1875
Q55.375 50.25 60.0625 53.125
Q64.75 56 71.0938 56
Q79.6406 56 84.2812 50.0156
Q88.9219 44.0469 88.9219 33.0156
L88.9219 0
L79.8906 0
L79.8906 32.7188
Q79.8906 40.5781 77.0938 44.375
Q74.3125 48.1875 68.6094 48.1875
Q61.625 48.1875 57.5625 43.5469
Q53.5156 38.9219 53.5156 30.9062
L53.5156 0
L44.4844 0
L44.4844 32.7188
Q44.4844 40.625 41.7031 44.4062
Q38.9219 48.1875 33.1094 48.1875
Q26.2188 48.1875 22.1562 43.5312
Q18.1094 38.875 18.1094 30.9062
L18.1094 0
L9.07812 0
L9.07812 54.6875
L18.1094 54.6875
L18.1094 46.1875
Q21.1875 51.2188 25.4844 53.6094
Q29.7812 56 35.6875 56
Q41.6562 56 45.8281 52.9688
Q50 49.9531 52 44.1875" id="BitstreamVeraSans-Roman-6d"/>
     </defs>
     <g transform="translate(425.9353125 612.931875)scale(0.12 -0.12)">
      <use xlink:href="#BitstreamVeraSans-Roman-74"/>
      <use x="39.208984375" xlink:href="#BitstreamVeraSans-Roman-20"/>
      <use x="70.99609375" xlink:href="#BitstreamVeraSans-Roman-2f"/>
      <use x="104.6875" xlink:href="#BitstreamVeraSans-Roman-20"/>
      <use x="136.474609375" xlink:href="#BitstreamVeraSans-Roman-6d"/>
      <use x="233.88671875" xlink:href="#BitstreamVeraSans-Roman-73"/>
     </g>
    </g>
   </g>
   <g id="matplotlib.axis_2">
    <g id="ytick_1">
     <g id="line2d_14">
      <defs>
       <path d="
M0 0
L4 0" id="md7965d1ba0" style="stroke:#000000;stroke-width:0.5;"/>
      </defs>
      <g>
       <use style="stroke:#000000;stroke-width:0.5;" x="108.0" xlink:href="#md7965d1ba0" y="583.2"/>
      </g>
     </g>
     <g id="line2d_15">
      <defs>
       <path d="
M0 0
L-4 0" id="md9a1c1a7cd" style="stroke:#000000;stroke-width:0.5;"/>
      </defs>
      <g>
       <use style="stroke:#000000;stroke-width:0.5;" x="777.6" xlink:href="#md9a1c1a7cd" y="583.2"/>
      </g>
     </g>
     <g id="text_7">
      <!-- 0 -->
      <g transform="translate(97.953125 586.51125)scale(0.12 -0.12)">
       <use xlink:href="#BitstreamVeraSans-Roman-30"/>
      </g>
     </g>
    </g>
    <g id="ytick_2">
     <g id="line2d_16">
      <g>
       <use style="stroke:#000000;stroke-width:0.5;" x="108.0" xlink:href="#md7965d1ba0" y="518.4"/>
      </g>
     </g>
     <g id="line2d_17">
      <g>
       <use style="stroke:#000000;stroke-width:0.5;" x="777.6" xlink:href="#md9a1c1a7cd" y="518.4"/>
      </g>
     </g>
     <g id="text_8">
      <!-- 5000 -->
      <g transform="translate(75.183125 521.71125)scale(0.12 -0.12)">
       <use xlink:href="#BitstreamVeraSans-Roman-35"/>
       <use x="63.623046875" xlink:href="#BitstreamVeraSans-Roman-30"/>
       <use x="127.24609375" xlink:href="#BitstreamVeraSans-Roman-30"/>
       <use x="190.869140625" xlink:href="#BitstreamVeraSans-Roman-30"/>
      </g>
     </g>
    </g>
    <g id="ytick_3">
     <g id="line2d_18">
      <g>
       <use style="stroke:#000000;stroke-width:0.5;" x="108.0" xlink:href="#md7965d1ba0" y="453.6"/>
      </g>
     </g>
     <g id="line2d_19">
      <g>
       <use style="stroke:#000000;stroke-width:0.5;" x="777.6" xlink:href="#md9a1c1a7cd" y="453.6"/>
      </g>
     </g>
     <g id="text_9">
      <!-- 10000 -->
      <g transform="translate(67.94 456.91125)scale(0.12 -0.12)">
       <use xlink:href="#BitstreamVeraSans-Roman-31"/>
       <use x="63.623046875" xlink:href="#BitstreamVeraSans-Roman-30"/>
       <use x="127.24609375" xlink:href="#BitstreamVeraSans-Roman-30"/>
       <use x="190.869140625" xlink:href="#BitstreamVeraSans-Roman-30"/>
       <use x="254.4921875" xlink:href="#BitstreamVeraSans-Roman-30"/>
      </g>
     </g>
    </g>
    <g id="ytick_4">
     <g id="line2d_20">
      <g>
       <use style="stroke:#000000;stroke-width:0.5;" x="108.0" xlink:href="#md7965d1ba0" y="388.8"/>
      </g>
     </g>
     <g id="line2d_21">
      <g>
       <use style="stroke:#000000;stroke-width:0.5;" x="777.6" xlink:href="#md9a1c1a7cd" y="388.8"/>
      </g>
     </g>
     <g id="text_10">
      <!-- 15000 -->
      <g transform="translate(67.94 392.11125)scale(0.12 -0.12)">
       <use xlink:href="#BitstreamVeraSans-Roman-31"/>
       <use x="63.623046875" xlink:href="#BitstreamVeraSans-Roman-35"/>
       <use x="127.24609375" xlink:href="#BitstreamVeraSans-Roman-30"/>
       <use x="190.869140625" xlink:href="#BitstreamVeraSans-Roman-30"/>
       <use x="254.4921875" xlink:href="#BitstreamVeraSans-Roman-30"/>
      </g>
     </g>
    </g>
    <g id="ytick_5">
     <g id="line2d_22">
      <g>
       <use style="stroke:#000000;stroke-width:0.5;" x="108.0" xlink:href="#md7965d1ba0" y="324.0"/>
      </g>
     </g>
     <g id="line2d_23">
      <g>
       <use style="stroke:#000000;stroke-width:0.5;" x="777.6" xlink:href="#md9a1c1a7cd" y="324.0"/>
      </g>
     </g>
     <g id="text_11">
      <!-- 20000 -->
      <g transform="translate(67.50125 327.31125)scale(0.12 -0.12)">
       <use xlink:href="#BitstreamVeraSans-Roman-32"/>
       <use x="63.623046875" xlink:href="#BitstreamVeraSans-Roman-30"/>
       <use x="127.24609375" xlink:href="#BitstreamVeraSans-Roman-30"/>
       <use x="190.869140625" xlink:href="#BitstreamVeraSans-Roman-30"/>
       <use x="254.4921875" xlink:href="#BitstreamVeraSans-Roman-30"/>
      </g>
     </g>
    </g>
    <g id="ytick_6">
     <g id="line2d_24">
      <g>
       <use style="stroke:#000000;stroke-width:0.5;" x="108.0" xlink:href="#md7965d1ba0" y="259.2"/>
      </g>
     </g>
     <g id="line2d_25">
      <g>
       <use style="stroke:#000000;stroke-width:0.5;" x="777.6" xlink:href="#md9a1c1a7cd" y="259.2"/>
      </g>
     </g>
     <g id="text_12">
      <!-- 25000 -->
      <g transform="translate(67.50125 262.51125)scale(0.12 -0.12)">
       <use xlink:href="#BitstreamVeraSans-Roman-32"/>
       <use x="63.623046875" xlink:href="#BitstreamVeraSans-Roman-35"/>
       <use x="127.24609375" xlink:href="#BitstreamVeraSans-Roman-30"/>
       <use x="190.869140625" xlink:href="#BitstreamVeraSans-Roman-30"/>
       <use x="254.4921875" xlink:href="#BitstreamVeraSans-Roman-30"/>
      </g>
     </g>
    </g>
    <g id="ytick_7">
     <g id="line2d_26">
      <g>
       <use style="stroke:#000000;stroke-width:0.5;" x="108.0" xlink:href="#md7965d1ba0" y="194.4"/>
      </g>
     </g>
     <g id="line2d_27">
      <g>
       <use style="stroke:#000000;stroke-width:0.5;" x="777.6" xlink:href="#md9a1c1a7cd" y="194.4"/>
      </g>
     </g>
     <g id="text_13">
      <!-- 30000 -->
      <defs>
       <path d="
M40.5781 39.3125
Q47.6562 37.7969 51.625 33
Q55.6094 28.2188 55.6094 21.1875
Q55.6094 10.4062 48.1875 4.48438
Q40.7656 -1.42188 27.0938 -1.42188
Q22.5156 -1.42188 17.6562 -0.515625
Q12.7969 0.390625 7.625 2.20312
L7.625 11.7188
Q11.7188 9.32812 16.5938 8.10938
Q21.4844 6.89062 26.8125 6.89062
Q36.0781 6.89062 40.9375 10.5469
Q45.7969 14.2031 45.7969 21.1875
Q45.7969 27.6406 41.2812 31.2656
Q36.7656 34.9062 28.7188 34.9062
L20.2188 34.9062
L20.2188 43.0156
L29.1094 43.0156
Q36.375 43.0156 40.2344 45.9219
Q44.0938 48.8281 44.0938 54.2969
Q44.0938 59.9062 40.1094 62.9062
Q36.1406 65.9219 28.7188 65.9219
Q24.6562 65.9219 20.0156 65.0312
Q15.375 64.1562 9.8125 62.3125
L9.8125 71.0938
Q15.4375 72.6562 20.3438 73.4375
Q25.25 74.2188 29.5938 74.2188
Q40.8281 74.2188 47.3594 69.1094
Q53.9062 64.0156 53.9062 55.3281
Q53.9062 49.2656 50.4375 45.0938
Q46.9688 40.9219 40.5781 39.3125" id="BitstreamVeraSans-Roman-33"/>
      </defs>
      <g transform="translate(67.536875 197.71125)scale(0.12 -0.12)">
       <use xlink:href="#BitstreamVeraSans-Roman-33"/>
       <use x="63.623046875" xlink:href="#BitstreamVeraSans-Roman-30"/>
       <use x="127.24609375" xlink:href="#BitstreamVeraSans-Roman-30"/>
       <use x="190.869140625" xlink:href="#BitstreamVeraSans-Roman-30"/>
       <use x="254.4921875" xlink:href="#BitstreamVeraSans-Roman-30"/>
      </g>
     </g>
    </g>
    <g id="ytick_8">
     <g id="line2d_28">
      <g>
       <use style="stroke:#000000;stroke-width:0.5;" x="108.0" xlink:href="#md7965d1ba0" y="129.6"/>
      </g>
     </g>
     <g id="line2d_29">
      <g>
       <use style="stroke:#000000;stroke-width:0.5;" x="777.6" xlink:href="#md9a1c1a7cd" y="129.6"/>
      </g>
     </g>
     <g id="text_14">
      <!-- 35000 -->
      <g transform="translate(67.536875 132.91125)scale(0.12 -0.12)">
       <use xlink:href="#BitstreamVeraSans-Roman-33"/>
       <use x="63.623046875" xlink:href="#BitstreamVeraSans-Roman-35"/>
       <use x="127.24609375" xlink:href="#BitstreamVeraSans-Roman-30"/>
       <use x="190.869140625" xlink:href="#BitstreamVeraSans-Roman-30"/>
       <use x="254.4921875" xlink:href="#BitstreamVeraSans-Roman-30"/>
      </g>
     </g>
    </g>
    <g id="ytick_9">
     <g id="line2d_30">
      <g>
       <use style="stroke:#000000;stroke-width:0.5;" x="108.0" xlink:href="#md7965d1ba0" y="64.8"/>
      </g>
     </g>
     <g id="line2d_31">
      <g>
       <use style="stroke:#000000;stroke-width:0.5;" x="777.6" xlink:href="#md9a1c1a7cd" y="64.8"/>
      </g>
     </g>
     <g id="text_15">
      <!-- 40000 -->
      <defs>
       <path d="
M37.7969 64.3125
L12.8906 25.3906
L37.7969 25.3906
z

M35.2031 72.9062
L47.6094 72.9062
L47.6094 25.3906
L58.0156 25.3906
L58.0156 17.1875
L47.6094 17.1875
L47.6094 0
L37.7969 0
L37.7969 17.1875
L4.89062 17.1875
L4.89062 26.7031
z
" id="BitstreamVeraSans-Roman-34"/>
      </defs>
      <g transform="translate(67.20875 68.11125)scale(0.12 -0.12)">
       <use xlink:href="#BitstreamVeraSans-Roman-34"/>
       <use x="63.623046875" xlink:href="#BitstreamVeraSans-Roman-30"/>
       <use x="127.24609375" xlink:href="#BitstreamVeraSans-Roman-30"/>
       <use x="190.869140625" xlink:href="#BitstreamVeraSans-Roman-30"/>
       <use x="254.4921875" xlink:href="#BitstreamVeraSans-Roman-30"/>
      </g>
     </g>
    </g>
    <g id="text_16">
     <!-- particle numbers -->
     <defs>
      <path d="
M48.7812 52.5938
L48.7812 44.1875
Q44.9688 46.2969 41.1406 47.3438
Q37.3125 48.3906 33.4062 48.3906
Q24.6562 48.3906 19.8125 42.8438
Q14.9844 37.3125 14.9844 27.2969
Q14.9844 17.2812 19.8125 11.7344
Q24.6562 6.20312 33.4062 6.20312
Q37.3125 6.20312 41.1406 7.25
Q44.9688 8.29688 48.7812 10.4062
L48.7812 2.09375
Q45.0156 0.34375 40.9844 -0.53125
Q36.9688 -1.42188 32.4219 -1.42188
Q20.0625 -1.42188 12.7812 6.34375
Q5.51562 14.1094 5.51562 27.2969
Q5.51562 40.6719 12.8594 48.3281
Q20.2188 56 33.0156 56
Q37.1562 56 41.1094 55.1406
Q45.0625 54.2969 48.7812 52.5938" id="BitstreamVeraSans-Roman-63"/>
      <path d="
M54.8906 33.0156
L54.8906 0
L45.9062 0
L45.9062 32.7188
Q45.9062 40.4844 42.875 44.3281
Q39.8438 48.1875 33.7969 48.1875
Q26.5156 48.1875 22.3125 43.5469
Q18.1094 38.9219 18.1094 30.9062
L18.1094 0
L9.07812 0
L9.07812 54.6875
L18.1094 54.6875
L18.1094 46.1875
Q21.3438 51.125 25.7031 53.5625
Q30.0781 56 35.7969 56
Q45.2188 56 50.0469 50.1719
Q54.8906 44.3438 54.8906 33.0156" id="BitstreamVeraSans-Roman-6e"/>
      <path d="
M8.5 21.5781
L8.5 54.6875
L17.4844 54.6875
L17.4844 21.9219
Q17.4844 14.1562 20.5 10.2656
Q23.5312 6.39062 29.5938 6.39062
Q36.8594 6.39062 41.0781 11.0312
Q45.3125 15.6719 45.3125 23.6875
L45.3125 54.6875
L54.2969 54.6875
L54.2969 0
L45.3125 0
L45.3125 8.40625
Q42.0469 3.42188 37.7188 1
Q33.4062 -1.42188 27.6875 -1.42188
Q18.2656 -1.42188 13.375 4.4375
Q8.5 10.2969 8.5 21.5781" id="BitstreamVeraSans-Roman-75"/>
      <path d="
M41.1094 46.2969
Q39.5938 47.1719 37.8125 47.5781
Q36.0312 48 33.8906 48
Q26.2656 48 22.1875 43.0469
Q18.1094 38.0938 18.1094 28.8125
L18.1094 0
L9.07812 0
L9.07812 54.6875
L18.1094 54.6875
L18.1094 46.1875
Q20.9531 51.1719 25.4844 53.5781
Q30.0312 56 36.5312 56
Q37.4531 56 38.5781 55.875
Q39.7031 55.7656 41.0625 55.5156
z
" id="BitstreamVeraSans-Roman-72"/>
      <path d="
M9.42188 75.9844
L18.4062 75.9844
L18.4062 0
L9.42188 0
z
" id="BitstreamVeraSans-Roman-6c"/>
      <path d="
M48.6875 27.2969
Q48.6875 37.2031 44.6094 42.8438
Q40.5312 48.4844 33.4062 48.4844
Q26.2656 48.4844 22.1875 42.8438
Q18.1094 37.2031 18.1094 27.2969
Q18.1094 17.3906 22.1875 11.75
Q26.2656 6.10938 33.4062 6.10938
Q40.5312 6.10938 44.6094 11.75
Q48.6875 17.3906 48.6875 27.2969
M18.1094 46.3906
Q20.9531 51.2656 25.2656 53.625
Q29.5938 56 35.5938 56
Q45.5625 56 51.7812 48.0938
Q58.0156 40.1875 58.0156 27.2969
Q58.0156 14.4062 51.7812 6.48438
Q45.5625 -1.42188 35.5938 -1.42188
Q29.5938 -1.42188 25.2656 0.953125
Q20.9531 3.32812 18.1094 8.20312
L18.1094 0
L9.07812 0
L9.07812 75.9844
L18.1094 75.9844
z
" id="BitstreamVeraSans-Roman-62"/>
      <path d="
M18.1094 8.20312
L18.1094 -20.7969
L9.07812 -20.7969
L9.07812 54.6875
L18.1094 54.6875
L18.1094 46.3906
Q20.9531 51.2656 25.2656 53.625
Q29.5938 56 35.5938 56
Q45.5625 56 51.7812 48.0938
Q58.0156 40.1875 58.0156 27.2969
Q58.0156 14.4062 51.7812 6.48438
Q45.5625 -1.42188 35.5938 -1.42188
Q29.5938 -1.42188 25.2656 0.953125
Q20.9531 3.32812 18.1094 8.20312
M48.6875 27.2969
Q48.6875 37.2031 44.6094 42.8438
Q40.5312 48.4844 33.4062 48.4844
Q26.2656 48.4844 22.1875 42.8438
Q18.1094 37.2031 18.1094 27.2969
Q18.1094 17.3906 22.1875 11.75
Q26.2656 6.10938 33.4062 6.10938
Q40.5312 6.10938 44.6094 11.75
Q48.6875 17.3906 48.6875 27.2969" id="BitstreamVeraSans-Roman-70"/>
      <path d="
M34.2812 27.4844
Q23.3906 27.4844 19.1875 25
Q14.9844 22.5156 14.9844 16.5
Q14.9844 11.7188 18.1406 8.90625
Q21.2969 6.10938 26.7031 6.10938
Q34.1875 6.10938 38.7031 11.4062
Q43.2188 16.7031 43.2188 25.4844
L43.2188 27.4844
z

M52.2031 31.2031
L52.2031 0
L43.2188 0
L43.2188 8.29688
Q40.1406 3.32812 35.5469 0.953125
Q30.9531 -1.42188 24.3125 -1.42188
Q15.9219 -1.42188 10.9531 3.29688
Q6 8.01562 6 15.9219
Q6 25.1406 12.1719 29.8281
Q18.3594 34.5156 30.6094 34.5156
L43.2188 34.5156
L43.2188 35.4062
Q43.2188 41.6094 39.1406 45
Q35.0625 48.3906 27.6875 48.3906
Q23 48.3906 18.5469 47.2656
Q14.1094 46.1406 10.0156 43.8906
L10.0156 52.2031
Q14.9375 54.1094 19.5781 55.0469
Q24.2188 56 28.6094 56
Q40.4844 56 46.3438 49.8438
Q52.2031 43.7031 52.2031 31.2031" id="BitstreamVeraSans-Roman-61"/>
      <path d="
M9.42188 54.6875
L18.4062 54.6875
L18.4062 0
L9.42188 0
z

M9.42188 75.9844
L18.4062 75.9844
L18.4062 64.5938
L9.42188 64.5938
z
" id="BitstreamVeraSans-Roman-69"/>
      <path d="
M56.2031 29.5938
L56.2031 25.2031
L14.8906 25.2031
Q15.4844 15.9219 20.4844 11.0625
Q25.4844 6.20312 34.4219 6.20312
Q39.5938 6.20312 44.4531 7.46875
Q49.3125 8.73438 54.1094 11.2812
L54.1094 2.78125
Q49.2656 0.734375 44.1875 -0.34375
Q39.1094 -1.42188 33.8906 -1.42188
Q20.7969 -1.42188 13.1562 6.1875
Q5.51562 13.8125 5.51562 26.8125
Q5.51562 40.2344 12.7656 48.1094
Q20.0156 56 32.3281 56
Q43.3594 56 49.7812 48.8906
Q56.2031 41.7969 56.2031 29.5938
M47.2188 32.2344
Q47.125 39.5938 43.0938 43.9844
Q39.0625 48.3906 32.4219 48.3906
Q24.9062 48.3906 20.3906 44.1406
Q15.875 39.8906 15.1875 32.1719
z
" id="BitstreamVeraSans-Roman-65"/>
     </defs>
     <g transform="translate(59.713125 374.78625)rotate(-90.0)scale(0.12 -0.12)">
      <use xlink:href="#BitstreamVeraSans-Roman-70"/>
      <use x="63.4765625" xlink:href="#BitstreamVeraSans-Roman-61"/>
      <use x="124.755859375" xlink:href="#BitstreamVeraSans-Roman-72"/>
      <use x="165.869140625" xlink:href="#BitstreamVeraSans-Roman-74"/>
      <use x="205.078125" xlink:href="#BitstreamVeraSans-Roman-69"/>
      <use x="232.861328125" xlink:href="#BitstreamVeraSans-Roman-63"/>
      <use x="287.841796875" xlink:href="#BitstreamVeraSans-Roman-6c"/>
      <use x="315.625" xlink:href="#BitstreamVeraSans-Roman-65"/>
      <use x="377.1484375" xlink:href="#BitstreamVeraSans-Roman-20"/>
      <use x="408.935546875" xlink:href="#BitstreamVeraSans-Roman-6e"/>
      <use x="472.314453125" xlink:href="#BitstreamVeraSans-Roman-75"/>
      <use x="535.693359375" xlink:href="#BitstreamVeraSans-Roman-6d"/>
      <use x="633.10546875" xlink:href="#BitstreamVeraSans-Roman-62"/>
      <use x="696.58203125" xlink:href="#BitstreamVeraSans-Roman-65"/>
      <use x="758.10546875" xlink:href="#BitstreamVeraSans-Roman-72"/>
      <use x="799.21875" xlink:href="#BitstreamVeraSans-Roman-73"/>
     </g>
    </g>
   </g>
   <g id="legend_1">
    <g id="patch_7">
     <path d="
M715.312 101.224
L774.1 101.224
L774.1 68.3
L715.312 68.3
z
" style="fill:#ffffff;stroke:#000000;stroke-linejoin:miter;"/>
    </g>
    <g id="line2d_32">
     <path d="
M720.212 73.9689
L730.012 73.9689" style="fill:none;stroke:#ff0000;stroke-linecap:square;"/>
    </g>
    <g id="line2d_33"/>
    <g id="text_17">
     <!-- cAMP el.0 -->
     <defs>
      <path d="
M34.1875 63.1875
L20.7969 26.9062
L47.6094 26.9062
z

M28.6094 72.9062
L39.7969 72.9062
L67.5781 0
L57.3281 0
L50.6875 18.7031
L17.8281 18.7031
L11.1875 0
L0.78125 0
z
" id="BitstreamVeraSans-Roman-41"/>
      <path d="
M19.6719 64.7969
L19.6719 37.4062
L32.0781 37.4062
Q38.9688 37.4062 42.7188 40.9688
Q46.4844 44.5312 46.4844 51.125
Q46.4844 57.6719 42.7188 61.2344
Q38.9688 64.7969 32.0781 64.7969
z

M9.8125 72.9062
L32.0781 72.9062
Q44.3438 72.9062 50.6094 67.3594
Q56.8906 61.8125 56.8906 51.125
Q56.8906 40.3281 50.6094 34.8125
Q44.3438 29.2969 32.0781 29.2969
L19.6719 29.2969
L19.6719 0
L9.8125 0
z
" id="BitstreamVeraSans-Roman-50"/>
      <path d="
M9.8125 72.9062
L24.5156 72.9062
L43.1094 23.2969
L61.8125 72.9062
L76.5156 72.9062
L76.5156 0
L66.8906 0
L66.8906 64.0156
L48.0938 14.0156
L38.1875 14.0156
L19.3906 64.0156
L19.3906 0
L9.8125 0
z
" id="BitstreamVeraSans-Roman-4d"/>
      <path d="
M10.6875 12.4062
L21 12.4062
L21 0
L10.6875 0
z
" id="BitstreamVeraSans-Roman-2e"/>
     </defs>
     <g transform="translate(737.71203125 76.41890625)scale(0.07 -0.07)">
      <use xlink:href="#BitstreamVeraSans-Roman-63"/>
      <use x="54.98046875" xlink:href="#BitstreamVeraSans-Roman-41"/>
      <use x="123.388671875" xlink:href="#BitstreamVeraSans-Roman-4d"/>
      <use x="209.66796875" xlink:href="#BitstreamVeraSans-Roman-50"/>
      <use x="269.970703125" xlink:href="#BitstreamVeraSans-Roman-20"/>
      <use x="301.7578125" xlink:href="#BitstreamVeraSans-Roman-65"/>
      <use x="363.28125" xlink:href="#BitstreamVeraSans-Roman-6c"/>
      <use x="391.064453125" xlink:href="#BitstreamVeraSans-Roman-2e"/>
      <use x="422.8515625" xlink:href="#BitstreamVeraSans-Roman-30"/>
     </g>
    </g>
    <g id="line2d_34">
     <path d="
M720.212 84.2436
L730.012 84.2436" style="fill:none;stroke:#008000;stroke-linecap:square;"/>
    </g>
    <g id="line2d_35"/>
    <g id="text_18">
     <!-- cAMP el.1 -->
     <g transform="translate(737.71203125 86.69359375)scale(0.07 -0.07)">
      <use xlink:href="#BitstreamVeraSans-Roman-63"/>
      <use x="54.98046875" xlink:href="#BitstreamVeraSans-Roman-41"/>
      <use x="123.388671875" xlink:href="#BitstreamVeraSans-Roman-4d"/>
      <use x="209.66796875" xlink:href="#BitstreamVeraSans-Roman-50"/>
      <use x="269.970703125" xlink:href="#BitstreamVeraSans-Roman-20"/>
      <use x="301.7578125" xlink:href="#BitstreamVeraSans-Roman-65"/>
      <use x="363.28125" xlink:href="#BitstreamVeraSans-Roman-6c"/>
      <use x="391.064453125" xlink:href="#BitstreamVeraSans-Roman-2e"/>
      <use x="422.8515625" xlink:href="#BitstreamVeraSans-Roman-31"/>
     </g>
    </g>
    <g id="line2d_36">
     <path d="
M720.212 94.5183
L730.012 94.5183" style="fill:none;stroke:#0000ff;stroke-linecap:square;"/>
    </g>
    <g id="line2d_37"/>
    <g id="text_19">
     <!-- cAMP el.2 -->
     <g transform="translate(737.71203125 96.96828125)scale(0.07 -0.07)">
      <use xlink:href="#BitstreamVeraSans-Roman-63"/>
      <use x="54.98046875" xlink:href="#BitstreamVeraSans-Roman-41"/>
      <use x="123.388671875" xlink:href="#BitstreamVeraSans-Roman-4d"/>
      <use x="209.66796875" xlink:href="#BitstreamVeraSans-Roman-50"/>
      <use x="269.970703125" xlink:href="#BitstreamVeraSans-Roman-20"/>
      <use x="301.7578125" xlink:href="#BitstreamVeraSans-Roman-65"/>
      <use x="363.28125" xlink:href="#BitstreamVeraSans-Roman-6c"/>
      <use x="391.064453125" xlink:href="#BitstreamVeraSans-Roman-2e"/>
      <use x="422.8515625" xlink:href="#BitstreamVeraSans-Roman-32"/>
     </g>
    </g>
   </g>
  </g>
 </g>
 <defs>
  <clipPath id="p7ceb695115">
   <rect height="518.4" width="669.6" x="108.0" y="64.8"/>
  </clipPath>
 </defs>
</svg>
