<?xml version="1.0" encoding="utf-8" standalone="no"?>
<!DOCTYPE svg PUBLIC "-//W3C//DTD SVG 1.1//EN"
  "http://www.w3.org/Graphics/SVG/1.1/DTD/svg11.dtd">
<!-- Created with matplotlib (http://matplotlib.org/) -->
<svg height="648pt" version="1.1" viewBox="0 0 864 648" width="864pt" xmlns="http://www.w3.org/2000/svg" xmlns:xlink="http://www.w3.org/1999/xlink">
 <defs>
  <style type="text/css">
*{stroke-linecap:butt;stroke-linejoin:round;}
  </style>
 </defs>
 <g id="figure_1">
  <g id="patch_1">
   <path d="
M0 648
L864 648
L864 0
L0 0
z
" style="fill:#ffffff;"/>
  </g>
  <g id="axes_1">
   <g id="patch_2">
    <path d="
M108 583.2
L777.6 583.2
L777.6 64.8
L108 64.8
z
" style="fill:#ffffff;"/>
   </g>
   <g id="line2d_1">
    <path clip-path="url(#p7ceb695115)" d="
M108 581.956
L108.67 582.993
L110.009 582.578
L110.678 582.578
L111.348 582.785
L112.018 582.785
L112.687 582.993
L113.357 582.785
L114.026 582.163
L114.696 582.578
L115.366 583.2
L116.705 582.785
L117.374 582.993
L118.044 582.993
L118.714 583.2
L119.383 583.2
L120.053 582.993
L120.722 582.993
L121.392 583.2
L122.062 583.2
L122.731 582.993
L124.74 582.993
L125.41 583.2
L126.079 583.2
L126.749 582.993
L127.418 583.2
L442.8 583.2
L443.47 473.092
L444.139 484.289
L444.809 481.594
L445.478 481.386
L446.148 480.557
L446.818 487.4
L447.487 476.617
L448.157 488.851
L448.826 490.303
L449.496 488.229
L450.166 491.547
L450.835 486.363
L451.505 490.51
L452.174 487.814
L452.844 487.814
L454.183 500.671
L454.853 486.985
L455.522 490.095
L456.192 494.45
L456.862 492.791
L457.531 491.547
L458.201 492.998
L458.87 494.865
L459.54 496.109
L460.21 488.436
L461.549 481.594
L462.218 483.045
L462.888 487.607
L463.558 493.413
L464.227 491.34
L464.897 490.51
L465.566 483.875
L466.236 494.035
L466.906 492.791
L467.575 487.192
L468.245 489.473
L468.914 494.035
L469.584 485.326
L470.254 492.998
L470.923 492.584
L471.593 490.303
L472.262 493.62
L472.932 499.634
L473.602 485.741
L474.941 492.376
L475.61 491.962
L476.28 491.132
L476.95 492.376
L477.619 489.888
L478.289 497.975
L478.958 485.741
L479.628 487.607
L480.298 491.34
L480.967 489.888
L481.637 492.169
L482.306 491.754
L482.976 488.022
L483.646 486.363
L484.315 487.814
L484.985 486.985
L485.654 490.925
L486.324 497.768
L486.994 492.169
L487.663 490.303
L488.333 486.985
L489.002 492.169
L489.672 494.243
L491.011 493.413
L491.681 487.607
L492.35 484.911
L493.02 491.962
L493.69 489.473
L494.359 493.828
L495.029 490.303
L495.698 492.169
L496.368 490.095
L497.038 499.219
L497.707 486.156
L498.377 496.316
L499.046 492.376
L499.716 494.243
L501.055 491.34
L501.725 488.229
L502.394 494.243
L503.064 488.436
L503.734 489.888
L504.403 496.938
L505.073 486.156
L505.742 497.146
L506.412 485.948
L507.082 494.657
L507.751 485.326
L508.421 486.363
L509.09 489.473
L509.76 477.861
L510.43 492.376
L511.099 489.266
L511.769 491.962
L512.438 495.279
L513.108 492.998
L513.778 496.109
L514.447 494.035
L515.117 489.266
L515.786 485.326
L516.456 490.095
L517.126 500.256
L518.465 489.681
L519.134 494.657
L519.804 489.681
L520.474 492.376
L521.143 492.376
L521.813 493.413
L522.482 492.791
L523.152 498.182
L523.822 495.072
L524.491 493.62
L525.161 494.45
L525.83 491.547
L526.5 495.279
L527.17 490.925
L527.839 496.109
L528.509 494.035
L529.178 488.229
L529.848 492.584
L530.518 493.62
L531.187 491.132
L531.857 492.998
L532.526 490.095
L533.196 488.022
L533.866 492.169
L534.535 491.34
L535.205 482.63
L535.874 500.256
L536.544 491.132
L537.214 486.156
L537.883 492.584
L538.553 483.46
L539.222 489.059
L540.562 494.035
L541.231 487.4
L541.901 488.851
L542.57 497.56
L543.24 484.497
L543.91 489.888
L544.579 490.51
L545.249 487.607
L545.918 492.791
L546.588 493.206
L547.258 494.035
L547.927 488.436
L548.597 485.948
L549.266 499.427
L549.936 494.865
L550.606 487.192
L551.275 492.584
L551.945 495.694
L552.614 493.206
L553.284 492.791
L553.954 491.132
L554.623 497.56
L555.293 495.901
L555.962 485.741
L556.632 485.326
L557.302 493.413
L557.971 492.584
L558.641 489.681
L559.31 488.229
L559.98 491.754
L560.65 497.146
L561.319 497.353
L561.989 490.925
L562.658 490.303
L563.328 494.657
L563.998 490.925
L564.667 493.62
L565.337 489.888
L566.006 494.657
L566.676 486.985
L567.346 490.717
L568.015 491.34
L568.685 488.022
L569.354 496.731
L570.024 487.814
L571.363 494.035
L572.033 500.256
L572.702 492.584
L573.372 487.192
L574.042 492.791
L574.711 490.095
L575.381 481.179
L576.05 494.865
L576.72 495.072
L577.39 488.851
L578.059 490.717
L578.729 482.423
L579.398 489.266
L580.068 497.768
L580.738 493.413
L581.407 493.413
L582.077 496.316
L582.746 490.51
L583.416 490.303
L584.086 496.938
L584.755 486.985
L585.425 489.266
L586.094 492.376
L586.764 489.681
L587.434 497.56
L588.103 496.109
L588.773 486.778
L589.442 482.008
L590.112 484.497
L590.782 492.169
L591.451 491.754
L592.121 489.059
L592.79 493.62
L593.46 485.119
L594.13 500.671
L594.799 489.888
L595.469 486.985
L596.138 484.704
L596.808 489.059
L597.478 492.169
L598.147 500.256
L598.817 484.082
L599.486 486.363
L600.156 483.46
L600.826 489.059
L601.495 489.059
L602.165 492.998
L602.834 492.998
L603.504 487.607
L604.174 493.62
L604.843 494.45
L605.513 495.487
L606.182 488.436
L606.852 498.597
L607.522 495.487
L608.191 490.717
L608.861 483.667
L609.53 488.022
L610.2 493.413
L610.87 484.911
L611.539 490.717
L612.209 492.376
L612.878 495.487
L613.548 488.436
L614.218 495.487
L614.887 491.132
L615.557 491.962
L616.226 488.436
L616.896 497.56
L617.566 484.911
L618.235 490.925
L618.905 487.4
L619.574 488.022
L620.244 489.888
L620.914 492.791
L621.583 492.584
L622.253 481.386
L622.922 494.035
L623.592 492.998
L624.262 496.109
L624.931 491.962
L625.601 497.56
L626.27 490.095
L626.94 491.547
L627.61 488.644
L628.279 487.192
L629.618 496.938
L630.288 485.533
L630.958 488.436
L631.627 488.851
L632.297 487.814
L632.966 490.51
L633.636 495.279
L634.306 493.413
L634.975 489.681
L635.645 495.901
L636.314 490.095
L636.984 497.975
L637.654 487.607
L638.323 492.169
L638.993 487.192
L639.662 493.206
L640.332 490.717
L641.002 494.657
L641.671 487.607
L642.341 483.46
L643.01 489.473
L643.68 487.814
L645.019 495.487
L645.689 494.035
L646.358 491.754
L647.028 485.741
L647.698 491.547
L648.367 492.376
L649.037 487.192
L649.706 491.962
L650.376 489.473
L651.046 490.303
L651.715 501.708
L652.385 494.865
L653.724 487.607
L654.394 485.119
L655.063 490.717
L655.733 495.072
L656.402 502.122
L657.072 490.51
L657.742 491.132
L658.411 485.948
L659.081 484.704
L659.75 487.4
L660.42 492.169
L661.09 493.206
L661.759 490.303
L662.429 489.888
L663.098 487.192
L663.768 488.851
L664.438 494.243
L665.107 492.998
L665.777 498.39
L666.446 490.303
L667.116 486.985
L667.786 491.547
L668.455 488.851
L669.125 496.524
L669.794 491.962
L670.464 490.925
L671.134 488.229
L671.803 493.413
L672.473 490.303
L673.142 491.754
L673.812 497.146
L674.482 486.985
L675.151 487.814
L675.821 488.229
L676.49 495.901
L677.16 497.975
L677.83 499.427
L678.499 496.938
L679.169 485.741
L679.838 486.778
L680.508 495.487
L681.178 497.353
L681.847 489.266
L682.517 495.279
L683.186 484.082
L684.526 489.681
L685.195 487.4
L685.865 488.436
L686.534 487.607
L687.204 499.841
L687.874 497.56
L688.543 493.206
L689.213 492.584
L689.882 492.376
L690.552 497.146
L691.222 491.962
L691.891 489.266
L692.561 489.681
L693.23 491.132
L694.57 484.704
L695.239 499.634
L695.909 501.085
L696.578 487.814
L697.248 487.4
L697.918 497.353
L698.587 496.316
L699.257 497.146
L699.926 481.386
L700.596 490.095
L701.266 482.008
L701.935 489.681
L702.605 489.888
L703.274 490.303
L703.944 495.279
L704.614 487.4
L705.283 494.657
L705.953 494.035
L706.622 494.035
L707.292 498.804
L707.962 490.303
L708.631 487.192
L709.301 488.644
L709.97 496.109
L710.64 494.657
L711.31 492.169
L711.979 495.487
L712.649 490.51
L713.318 491.962
L713.988 487.607
L714.658 491.547
L715.327 481.386
L715.997 489.681
L716.666 485.326
L717.336 490.303
L718.006 492.169
L718.675 498.804
L719.345 488.436
L720.014 485.948
L720.684 490.51
L721.354 499.841
L722.023 491.132
L722.693 491.132
L723.362 498.804
L724.032 489.681
L724.702 496.731
L725.371 486.156
L726.041 488.644
L726.71 503.159
L727.38 486.156
L728.05 492.376
L728.719 489.059
L729.389 498.182
L730.058 487.4
L730.728 497.353
L731.398 490.717
L732.067 492.791
L732.737 485.326
L733.406 497.768
L734.076 499.012
L734.746 492.169
L735.415 490.925
L736.085 484.497
L736.754 490.095
L737.424 488.644
L738.094 490.925
L738.763 489.473
L739.433 492.376
L740.102 488.229
L740.772 488.851
L741.442 489.266
L742.111 489.473
L742.781 496.938
L743.45 490.51
L744.12 492.998
L744.79 485.119
L745.459 484.082
L746.798 494.865
L747.468 492.584
L748.138 496.316
L748.807 493.206
L749.477 496.316
L750.146 491.754
L750.816 491.962
L751.486 492.998
L752.155 493.62
L752.825 497.975
L753.494 492.791
L754.164 493.62
L755.503 486.57
L756.842 498.182
L757.512 493.62
L758.182 487.607
L758.851 497.146
L759.521 489.473
L760.19 496.109
L760.86 489.681
L761.53 489.059
L762.199 488.644
L762.869 498.804
L763.538 488.229
L764.208 491.132
L764.878 494.657
L765.547 491.754
L766.217 490.303
L766.886 490.303
L767.556 488.229
L768.226 496.316
L768.895 485.741
L769.565 488.229
L770.234 497.975
L770.904 493.62
L771.574 491.754
L772.243 484.497
L772.913 484.497
L773.582 489.681
L774.252 491.754
L774.922 490.095
L775.591 492.584
L776.261 487.814
L777.6 499.219
L777.6 499.219" style="fill:none;stroke:#ff0000;stroke-linecap:square;"/>
   </g>
   <g id="line2d_2">
    <path clip-path="url(#p7ceb695115)" d="
M108 578.223
L108.67 578.845
L109.339 579.468
L110.678 581.126
L111.348 580.712
L112.018 581.541
L112.687 580.919
L114.026 582.578
L114.696 582.163
L115.366 581.956
L116.035 581.956
L116.705 582.578
L117.374 582.578
L118.044 582.163
L118.714 581.956
L119.383 582.163
L120.053 582.163
L120.722 582.578
L121.392 582.578
L122.062 582.371
L122.731 582.785
L123.401 582.578
L124.74 582.578
L126.749 583.2
L127.418 582.993
L129.427 582.993
L130.097 583.2
L442.8 583.2
L443.47 150.025
L444.139 163.296
L444.809 164.54
L445.478 186.52
L446.148 194.607
L446.818 195.022
L447.487 216.173
L448.157 203.109
L448.826 200.206
L449.496 204.561
L450.166 200.413
L450.835 214.514
L451.505 215.758
L452.174 217.624
L452.844 215.758
L453.514 213.477
L454.183 208.293
L454.853 217.417
L455.522 217.002
L456.192 209.123
L456.862 214.514
L457.531 214.721
L458.201 211.196
L458.87 210.989
L459.54 214.929
L460.21 211.611
L460.879 225.504
L461.549 224.882
L462.218 222.601
L462.888 211.611
L463.558 211.196
L464.227 214.721
L464.897 212.233
L465.566 223.016
L466.236 205.183
L466.906 202.487
L467.575 219.076
L468.245 220.527
L468.914 213.27
L469.584 215.343
L470.254 214.307
L470.923 208.5
L471.593 216.795
L472.262 212.855
L472.932 204.353
L473.602 215.551
L474.271 216.795
L474.941 216.795
L475.61 218.661
L476.28 211.611
L476.95 206.634
L477.619 210.159
L478.289 212.44
L478.958 217.21
L479.628 214.307
L480.298 217.417
L480.967 221.772
L481.637 211.404
L482.306 210.989
L482.976 212.855
L483.646 219.491
L484.315 219.491
L484.985 213.892
L485.654 212.44
L486.324 211.818
L486.994 214.721
L487.663 216.38
L488.333 224.26
L489.002 215.343
L489.672 211.818
L490.342 206.634
L491.681 220.32
L492.35 217.21
L493.02 213.062
L493.69 218.454
L494.359 208.915
L495.029 210.989
L495.698 210.367
L496.368 212.233
L497.038 211.818
L497.707 226.956
L498.377 207.878
L499.046 213.684
L499.716 213.062
L500.386 219.698
L501.055 205.39
L501.725 214.307
L502.394 209.745
L503.064 214.514
L503.734 223.223
L504.403 212.233
L505.073 215.965
L505.742 206.634
L506.412 217.21
L507.082 208.086
L507.751 214.929
L508.421 225.089
L509.09 210.989
L509.76 227.992
L510.43 212.855
L511.099 218.039
L511.769 214.307
L512.438 213.062
L513.108 212.233
L513.778 205.39
L514.447 208.915
L515.117 211.611
L515.786 223.845
L516.456 215.551
L517.126 205.39
L517.795 212.44
L519.134 216.38
L519.804 211.818
L520.474 210.159
L521.143 216.588
L521.813 207.464
L522.482 213.27
L523.152 210.574
L523.822 212.026
L524.491 215.136
L525.161 219.076
L525.83 221.979
L526.5 209.537
L527.17 222.601
L527.839 211.818
L528.509 208.708
L529.178 223.223
L529.848 206.634
L530.518 212.233
L531.187 216.795
L531.857 213.477
L532.526 216.38
L533.196 211.611
L533.866 216.38
L534.535 209.952
L535.205 230.273
L535.874 210.781
L536.544 216.38
L537.214 220.735
L537.883 217.002
L538.553 223.638
L539.222 217.832
L539.892 213.892
L540.562 218.039
L541.231 217.832
L541.901 213.27
L542.57 212.233
L543.24 222.186
L543.91 217.417
L544.579 223.638
L545.249 221.564
L545.918 220.735
L546.588 215.343
L547.258 208.5
L547.927 218.039
L548.597 221.564
L549.266 205.597
L549.936 207.464
L550.606 213.892
L551.275 217.417
L551.945 206.427
L553.284 215.551
L553.954 214.929
L554.623 216.588
L555.293 217.002
L555.962 216.173
L556.632 226.126
L557.302 213.062
L557.971 210.574
L558.641 215.758
L559.31 214.721
L559.98 215.965
L560.65 207.671
L561.319 208.293
L561.989 212.026
L562.658 218.868
L563.328 208.293
L563.998 212.44
L564.667 209.123
L565.337 207.256
L566.006 211.404
L566.676 216.588
L567.346 210.574
L568.015 222.394
L568.685 214.929
L569.354 209.33
L570.024 214.721
L570.694 214.929
L571.363 209.33
L572.033 205.597
L572.702 215.758
L573.372 207.671
L574.042 213.892
L574.711 215.136
L575.381 219.905
L576.05 202.072
L576.72 209.745
L577.39 219.698
L578.059 221.772
L578.729 219.076
L580.068 208.086
L580.738 215.758
L581.407 213.684
L582.077 217.417
L582.746 209.745
L583.416 220.113
L584.086 205.805
L584.755 213.062
L585.425 217.002
L586.094 209.745
L586.764 217.417
L587.434 219.283
L588.103 211.611
L588.773 225.089
L589.442 215.758
L590.112 224.26
L590.782 214.929
L591.451 214.099
L592.121 207.878
L592.79 211.611
L593.46 216.173
L594.13 209.537
L594.799 220.527
L595.469 219.491
L596.138 219.283
L596.808 216.588
L597.478 220.32
L598.147 209.123
L598.817 220.113
L599.486 217.417
L600.156 211.196
L600.826 211.404
L601.495 223.638
L602.165 215.965
L602.834 213.684
L603.504 215.758
L604.174 210.989
L605.513 220.735
L606.182 225.089
L606.852 212.648
L607.522 214.721
L608.191 219.491
L608.861 219.491
L609.53 215.965
L610.2 206.842
L610.87 217.832
L611.539 218.039
L612.209 220.942
L613.548 205.597
L614.218 211.196
L614.887 221.149
L615.557 205.805
L616.226 217.624
L616.896 214.721
L617.566 219.905
L618.235 222.394
L618.905 215.965
L619.574 212.026
L620.244 218.661
L620.914 209.123
L621.583 213.062
L622.253 220.32
L622.922 208.915
L623.592 221.357
L624.262 212.44
L624.931 221.979
L625.601 212.855
L626.27 210.574
L626.94 220.735
L627.61 212.855
L628.279 215.343
L628.949 210.367
L629.618 209.745
L630.288 219.491
L630.958 215.136
L631.627 216.173
L632.297 223.43
L632.966 219.905
L633.636 209.537
L634.306 216.173
L635.645 208.915
L636.314 218.868
L636.984 209.745
L637.654 219.698
L638.323 215.758
L638.993 212.855
L639.662 219.283
L641.002 212.44
L641.671 217.21
L642.341 230.895
L643.01 220.113
L643.68 211.196
L644.35 214.307
L645.019 205.183
L645.689 207.049
L646.358 210.367
L647.028 221.149
L647.698 213.062
L648.367 209.537
L649.037 217.832
L649.706 210.367
L650.376 210.781
L651.046 218.868
L651.715 206.012
L652.385 209.952
L653.054 208.915
L653.724 224.26
L654.394 218.039
L655.063 216.38
L655.733 217.002
L656.402 205.597
L657.072 217.002
L658.411 214.929
L659.75 222.186
L660.42 209.745
L661.09 211.404
L661.759 210.159
L662.429 213.684
L663.098 212.855
L663.768 212.855
L664.438 208.086
L665.107 215.965
L665.777 207.049
L666.446 214.929
L667.116 218.661
L667.786 212.648
L668.455 213.684
L669.125 212.233
L669.794 208.915
L670.464 223.43
L671.134 217.832
L671.803 215.343
L672.473 209.537
L673.142 214.721
L673.812 210.781
L674.482 218.661
L675.151 217.417
L675.821 218.246
L676.49 202.694
L677.16 211.611
L677.83 211.404
L678.499 210.367
L679.169 219.283
L679.838 224.26
L680.508 212.233
L681.178 208.5
L681.847 216.795
L682.517 215.136
L683.186 219.491
L683.856 210.989
L684.526 219.698
L685.195 218.454
L686.534 221.979
L687.204 196.888
L688.543 214.099
L689.213 217.832
L689.882 217.624
L690.552 198.132
L691.222 216.38
L691.891 221.357
L692.561 220.32
L693.23 214.307
L693.9 217.21
L694.57 219.283
L695.239 205.39
L695.909 208.708
L696.578 216.588
L697.248 221.149
L697.918 207.671
L698.587 211.196
L699.257 207.671
L699.926 229.029
L700.596 219.491
L701.266 221.979
L701.935 218.246
L702.605 209.123
L703.274 218.246
L703.944 207.256
L704.614 213.477
L705.283 215.343
L705.953 211.404
L706.622 212.233
L707.292 211.611
L707.962 216.173
L708.631 216.795
L709.301 214.721
L709.97 217.002
L710.64 214.929
L711.31 209.952
L712.649 215.965
L713.318 209.33
L713.988 220.113
L714.658 215.136
L715.997 225.504
L716.666 227.785
L717.336 215.758
L718.006 210.367
L718.675 202.694
L719.345 209.952
L720.014 220.735
L720.684 217.21
L721.354 209.123
L722.023 216.795
L722.693 220.942
L723.362 210.989
L724.032 225.919
L724.702 205.39
L725.371 226.541
L726.041 214.307
L726.71 204.146
L727.38 219.905
L728.05 214.929
L728.719 208.086
L729.389 212.026
L730.058 219.698
L731.398 207.256
L732.067 209.952
L732.737 220.942
L733.406 210.989
L734.076 208.915
L734.746 212.026
L735.415 217.417
L736.085 226.126
L736.754 214.514
L737.424 217.002
L738.094 215.551
L738.763 213.27
L739.433 208.293
L740.102 218.868
L740.772 217.832
L741.442 210.159
L742.111 220.735
L742.781 211.404
L743.45 213.27
L744.12 212.648
L744.79 217.21
L745.459 219.491
L746.129 214.514
L746.798 211.404
L747.468 207.049
L748.138 209.745
L748.807 216.38
L749.477 214.929
L750.146 214.307
L750.816 217.624
L751.486 218.039
L752.155 209.537
L752.825 207.878
L754.164 211.818
L754.834 213.892
L755.503 219.491
L756.173 210.159
L756.842 206.634
L757.512 211.196
L758.182 218.454
L758.851 215.343
L759.521 217.417
L760.19 215.551
L760.86 215.136
L761.53 218.661
L762.199 214.307
L762.869 208.915
L763.538 215.758
L764.208 214.514
L764.878 211.196
L765.547 224.882
L766.217 220.942
L766.886 209.33
L767.556 221.979
L768.226 213.684
L768.895 215.343
L769.565 213.27
L770.234 209.537
L770.904 209.952
L771.574 212.648
L772.243 220.32
L772.913 218.661
L773.582 221.149
L774.252 209.537
L774.922 215.343
L775.591 202.694
L776.261 218.661
L777.6 203.316
L777.6 203.316" style="fill:none;stroke:#008000;stroke-linecap:square;"/>
   </g>
   <g id="line2d_3">
    <path clip-path="url(#p7ceb695115)" d="
M108 581.956
L108.67 582.163
L109.339 582.578
L110.009 582.785
L110.678 582.578
L111.348 582.578
L112.018 582.371
L112.687 583.2
L113.357 582.578
L114.026 582.993
L114.696 582.993
L115.366 582.785
L116.035 583.2
L116.705 582.785
L117.374 582.785
L118.044 583.2
L118.714 582.993
L119.383 583.2
L120.053 583.2
L120.722 582.993
L121.392 582.993
L122.062 583.2
L122.731 582.993
L123.401 583.2
L124.07 582.993
L124.74 582.993
L125.41 583.2
L442.8 583.2
L443.47 473.299
L444.139 474.129
L444.809 491.754
L445.478 484.082
L446.148 486.363
L446.818 486.778
L447.487 483.875
L448.157 488.644
L448.826 495.279
L449.496 495.279
L450.166 497.353
L450.835 490.51
L451.505 486.985
L452.844 490.925
L453.514 488.644
L454.183 486.778
L454.853 491.962
L455.522 489.473
L456.192 492.998
L456.862 489.473
L457.531 490.51
L458.201 492.791
L458.87 491.132
L459.54 486.156
L460.21 497.146
L460.879 486.57
L461.549 490.717
L462.218 491.547
L462.888 497.975
L463.558 492.584
L464.227 491.132
L464.897 494.45
L465.566 490.303
L466.236 497.975
L466.906 501.915
L467.575 490.925
L468.245 487.192
L468.914 489.888
L469.584 496.524
L470.254 489.888
L470.923 496.109
L471.593 490.095
L472.262 490.717
L473.602 495.901
L474.271 491.547
L474.941 488.022
L475.61 486.57
L476.28 494.45
L476.95 498.182
L477.619 497.146
L478.289 486.778
L478.958 494.243
L479.628 495.279
L480.298 488.436
L480.967 485.533
L481.637 493.62
L482.306 494.45
L482.976 496.316
L483.646 491.34
L484.315 489.888
L484.985 496.316
L485.654 493.828
L486.324 487.607
L486.994 490.303
L487.663 490.51
L488.333 485.948
L489.002 489.681
L489.672 491.132
L490.342 496.731
L491.011 490.095
L491.681 489.266
L492.35 495.072
L493.69 489.266
L494.359 494.45
L495.029 495.901
L495.698 494.657
L496.368 494.865
L497.038 486.156
L497.707 484.082
L498.377 492.998
L499.046 491.132
L499.716 489.888
L500.386 484.704
L501.055 500.463
L501.725 494.657
L502.394 493.206
L503.064 494.243
L503.734 484.082
L504.403 488.022
L505.073 495.072
L505.742 493.413
L506.412 494.035
L507.082 494.45
L507.751 496.938
L508.421 485.741
L509.09 496.731
L509.76 491.34
L510.43 491.962
L511.099 489.888
L511.769 490.925
L512.438 488.851
L513.108 491.962
L513.778 495.694
L514.447 494.243
L515.117 496.316
L515.786 488.022
L516.456 491.547
L517.126 491.547
L517.795 489.888
L518.465 492.998
L519.134 486.156
L519.804 495.694
L520.474 494.657
L521.143 488.229
L521.813 496.316
L522.482 491.132
L523.152 488.436
L523.822 490.095
L524.491 488.436
L525.161 483.667
L525.83 483.667
L526.5 492.376
L527.17 483.667
L528.509 494.45
L529.178 485.741
L529.848 497.975
L530.518 491.34
L531.187 489.266
L531.857 490.717
L532.526 490.717
L533.196 497.56
L533.866 488.644
L534.535 495.901
L535.205 484.289
L535.874 486.156
L536.544 489.681
L537.214 490.303
L537.883 487.607
L538.553 490.095
L539.222 490.303
L539.892 491.754
L540.562 485.119
L541.231 491.962
L541.901 495.072
L542.57 487.4
L543.24 490.51
L543.91 489.888
L544.579 483.045
L545.249 488.022
L545.918 483.667
L546.588 488.644
L547.258 494.657
L547.927 490.717
L548.597 489.681
L549.936 494.865
L550.606 496.109
L551.275 487.192
L551.945 495.072
L552.614 492.998
L553.284 488.851
L553.954 491.132
L554.623 483.045
L555.293 484.289
L555.962 495.279
L556.632 485.741
L557.302 490.717
L557.971 494.035
L558.641 491.754
L559.31 494.243
L559.98 489.473
L560.65 492.376
L561.319 491.547
L561.989 494.243
L562.658 488.022
L563.328 494.243
L563.998 493.828
L564.667 494.45
L565.337 500.049
L566.006 491.132
L567.346 495.901
L568.015 483.46
L568.685 494.243
L569.354 491.132
L570.024 494.657
L570.694 491.132
L571.363 493.828
L572.702 488.851
L573.372 502.33
L574.042 490.51
L574.711 491.962
L576.05 500.256
L576.72 492.376
L578.059 484.704
L578.729 495.694
L579.398 494.45
L580.738 488.022
L581.407 490.095
L582.077 483.46
L582.746 496.938
L583.416 486.778
L584.086 494.45
L584.755 497.146
L585.425 490.925
L586.094 495.072
L586.764 490.095
L587.434 480.349
L588.103 489.473
L588.773 485.326
L589.442 499.427
L590.112 488.436
L590.782 490.095
L591.451 491.34
L592.121 500.256
L592.79 491.962
L593.46 495.901
L594.13 486.985
L594.799 486.778
L595.469 490.717
L596.138 493.206
L596.808 491.547
L597.478 484.704
L598.147 487.814
L598.817 492.998
L599.486 493.413
L600.156 502.537
L600.826 496.731
L601.495 484.497
L602.165 488.229
L602.834 490.51
L603.504 493.828
L604.174 492.584
L605.513 480.972
L606.852 485.948
L607.522 486.985
L608.191 486.985
L608.861 494.035
L609.53 493.206
L610.2 496.938
L610.87 494.45
L611.539 488.436
L612.209 483.875
L612.878 489.059
L613.548 503.159
L614.218 490.51
L614.887 484.911
L615.557 499.427
L616.226 491.132
L616.896 484.911
L617.566 492.376
L618.235 483.875
L618.905 493.828
L619.574 497.146
L620.244 488.644
L620.914 495.279
L621.583 491.547
L622.253 495.487
L622.922 494.243
L623.592 482.838
L624.262 488.644
L624.931 483.252
L625.601 486.778
L626.27 496.524
L626.94 484.911
L627.61 495.694
L628.279 494.657
L628.949 494.45
L629.618 490.51
L630.958 493.62
L631.627 492.169
L632.297 485.948
L632.966 486.778
L633.636 492.376
L634.306 487.607
L634.975 495.279
L635.645 492.376
L636.314 488.229
L636.984 489.473
L637.654 489.888
L638.323 489.266
L638.993 497.146
L639.662 484.704
L640.332 490.925
L641.002 490.095
L641.671 492.376
L642.341 482.838
L643.01 487.607
L643.68 498.182
L644.35 490.925
L645.019 496.524
L645.689 496.109
L646.358 495.072
L647.028 490.303
L647.698 492.584
L648.367 495.279
L649.037 492.169
L649.706 494.865
L650.376 496.938
L651.046 488.022
L651.715 489.473
L652.385 492.376
L653.054 497.353
L653.724 485.326
L654.394 494.035
L655.063 490.095
L655.733 485.119
L656.402 489.473
L657.072 489.681
L657.742 490.095
L658.411 496.316
L659.081 493.62
L659.75 487.607
L660.42 495.279
L661.09 492.584
L661.759 496.731
L662.429 493.62
L663.098 497.146
L663.768 495.487
L664.438 494.865
L665.107 488.229
L665.777 491.754
L666.446 491.962
L667.116 491.547
L668.455 494.657
L669.125 488.436
L669.794 496.316
L670.464 482.838
L671.134 491.132
L671.803 488.436
L672.473 497.353
L673.142 490.717
L673.812 489.266
L674.482 491.547
L675.151 491.962
L675.821 490.717
L676.49 498.597
L677.16 487.607
L677.83 486.363
L678.499 489.888
L679.169 492.169
L679.838 486.156
L680.508 489.473
L681.178 491.34
L681.847 491.132
L682.517 486.778
L683.186 493.62
L683.856 499.219
L684.526 487.814
L685.195 491.34
L685.865 488.644
L686.534 487.607
L687.204 500.463
L687.874 494.657
L688.543 489.888
L689.213 486.778
L689.882 487.192
L690.552 501.915
L691.222 488.851
L691.891 486.57
L692.561 487.192
L693.23 491.754
L693.9 492.169
L694.57 493.206
L695.239 492.169
L695.909 487.4
L696.578 492.791
L697.248 488.644
L697.918 492.169
L698.587 489.681
L699.257 492.376
L699.926 486.778
L700.596 487.607
L701.266 493.206
L701.935 489.266
L702.605 498.182
L703.274 488.644
L703.944 494.657
L704.614 496.316
L705.283 487.192
L705.953 491.754
L706.622 490.925
L707.292 486.778
L707.962 490.717
L708.631 493.206
L709.301 493.828
L709.97 484.082
L710.64 487.607
L711.31 495.072
L711.979 488.644
L712.649 490.717
L713.318 495.901
L713.988 489.473
L714.658 490.51
L715.327 495.072
L715.997 482.008
L716.666 484.082
L717.336 491.132
L718.006 494.657
L718.675 495.694
L719.345 498.804
L720.014 490.51
L720.684 489.473
L721.354 488.229
L722.023 489.266
L722.693 485.119
L723.362 487.4
L724.032 481.594
L724.702 495.072
L725.371 484.497
L726.041 494.243
L726.71 489.888
L727.38 491.132
L728.05 489.888
L728.719 500.049
L729.389 486.985
L730.058 490.095
L730.728 486.156
L731.398 499.219
L732.067 494.45
L732.737 490.925
L733.406 488.436
L734.076 489.266
L734.746 492.998
L735.415 488.851
L736.085 486.57
L736.754 492.584
L737.424 491.547
L738.094 490.717
L738.763 494.45
L739.433 496.524
L740.102 490.095
L740.772 490.51
L741.442 497.768
L742.111 486.985
L742.781 488.851
L743.45 493.413
L744.12 491.547
L744.79 494.865
L745.459 493.62
L746.129 493.62
L746.798 490.925
L747.468 497.56
L748.138 491.132
L748.807 487.607
L749.477 485.948
L750.146 491.132
L750.816 487.607
L751.486 486.156
L752.155 494.035
L752.825 491.34
L753.494 494.657
L754.164 491.754
L754.834 493.206
L755.503 491.132
L756.173 494.657
L756.842 492.376
L757.512 492.376
L758.182 491.132
L758.851 484.704
L759.521 490.303
L760.19 485.533
L760.86 492.376
L761.53 489.473
L762.199 494.243
L762.869 489.473
L763.538 493.206
L764.208 491.547
L764.878 491.34
L765.547 480.557
L766.217 485.948
L766.886 497.56
L767.556 486.985
L768.226 487.192
L768.895 496.109
L769.565 495.694
L770.234 489.681
L770.904 493.62
L771.574 492.791
L772.243 492.376
L772.913 494.035
L773.582 486.363
L774.252 495.901
L774.922 491.754
L775.591 501.915
L776.261 490.717
L777.6 494.657
L777.6 494.657" style="fill:none;stroke:#0000ff;stroke-linecap:square;"/>
   </g>
   <g id="patch_3">
    <path d="
M777.6 583.2
L777.6 64.8" style="fill:none;stroke:#000000;stroke-linecap:square;stroke-linejoin:miter;"/>
   </g>
   <g id="patch_4">
    <path d="
M108 64.8
L777.6 64.8" style="fill:none;stroke:#000000;stroke-linecap:square;stroke-linejoin:miter;"/>
   </g>
   <g id="patch_5">
    <path d="
M108 583.2
L777.6 583.2" style="fill:none;stroke:#000000;stroke-linecap:square;stroke-linejoin:miter;"/>
   </g>
   <g id="patch_6">
    <path d="
M108 583.2
L108 64.8" style="fill:none;stroke:#000000;stroke-linecap:square;stroke-linejoin:miter;"/>
   </g>
   <g id="matplotlib.axis_1">
    <g id="xtick_1">
     <g id="line2d_4">
      <defs>
       <path d="
M0 0
L0 -4" id="mc7db9fdffb" style="stroke:#000000;stroke-width:0.5;"/>
      </defs>
      <g>
       <use style="stroke:#000000;stroke-width:0.5;" x="108.0" xlink:href="#mc7db9fdffb" y="583.2"/>
      </g>
     </g>
     <g id="line2d_5">
      <defs>
       <path d="
M0 0
L0 4" id="m5a7d422ac3" style="stroke:#000000;stroke-width:0.5;"/>
      </defs>
      <g>
       <use style="stroke:#000000;stroke-width:0.5;" x="108.0" xlink:href="#m5a7d422ac3" y="64.8"/>
      </g>
     </g>
     <g id="text_1">
      <!-- 0 -->
      <defs>
       <path d="
M31.7812 66.4062
Q24.1719 66.4062 20.3281 58.9062
Q16.5 51.4219 16.5 36.375
Q16.5 21.3906 20.3281 13.8906
Q24.1719 6.39062 31.7812 6.39062
Q39.4531 6.39062 43.2812 13.8906
Q47.125 21.3906 47.125 36.375
Q47.125 51.4219 43.2812 58.9062
Q39.4531 66.4062 31.7812 66.4062
M31.7812 74.2188
Q44.0469 74.2188 50.5156 64.5156
Q56.9844 54.8281 56.9844 36.375
Q56.9844 17.9688 50.5156 8.26562
Q44.0469 -1.42188 31.7812 -1.42188
Q19.5312 -1.42188 13.0625 8.26562
Q6.59375 17.9688 6.59375 36.375
Q6.59375 54.8281 13.0625 64.5156
Q19.5312 74.2188 31.7812 74.2188" id="BitstreamVeraSans-Roman-30"/>
      </defs>
      <g transform="translate(104.9765625 596.318125)scale(0.12 -0.12)">
       <use xlink:href="#BitstreamVeraSans-Roman-30"/>
      </g>
     </g>
    </g>
    <g id="xtick_2">
     <g id="line2d_6">
      <g>
       <use style="stroke:#000000;stroke-width:0.5;" x="275.4" xlink:href="#mc7db9fdffb" y="583.2"/>
      </g>
     </g>
     <g id="line2d_7">
      <g>
       <use style="stroke:#000000;stroke-width:0.5;" x="275.4" xlink:href="#m5a7d422ac3" y="64.8"/>
      </g>
     </g>
     <g id="text_2">
      <!-- 50000 -->
      <defs>
       <path d="
M10.7969 72.9062
L49.5156 72.9062
L49.5156 64.5938
L19.8281 64.5938
L19.8281 46.7344
Q21.9688 47.4688 24.1094 47.8281
Q26.2656 48.1875 28.4219 48.1875
Q40.625 48.1875 47.75 41.5
Q54.8906 34.8125 54.8906 23.3906
Q54.8906 11.625 47.5625 5.09375
Q40.2344 -1.42188 26.9062 -1.42188
Q22.3125 -1.42188 17.5469 -0.640625
Q12.7969 0.140625 7.71875 1.70312
L7.71875 11.625
Q12.1094 9.23438 16.7969 8.0625
Q21.4844 6.89062 26.7031 6.89062
Q35.1562 6.89062 40.0781 11.3281
Q45.0156 15.7656 45.0156 23.3906
Q45.0156 31 40.0781 35.4375
Q35.1562 39.8906 26.7031 39.8906
Q22.75 39.8906 18.8125 39.0156
Q14.8906 38.1406 10.7969 36.2812
z
" id="BitstreamVeraSans-Roman-35"/>
      </defs>
      <g transform="translate(257.1740625 596.318125)scale(0.12 -0.12)">
       <use xlink:href="#BitstreamVeraSans-Roman-35"/>
       <use x="63.623046875" xlink:href="#BitstreamVeraSans-Roman-30"/>
       <use x="127.24609375" xlink:href="#BitstreamVeraSans-Roman-30"/>
       <use x="190.869140625" xlink:href="#BitstreamVeraSans-Roman-30"/>
       <use x="254.4921875" xlink:href="#BitstreamVeraSans-Roman-30"/>
      </g>
     </g>
    </g>
    <g id="xtick_3">
     <g id="line2d_8">
      <g>
       <use style="stroke:#000000;stroke-width:0.5;" x="442.8" xlink:href="#mc7db9fdffb" y="583.2"/>
      </g>
     </g>
     <g id="line2d_9">
      <g>
       <use style="stroke:#000000;stroke-width:0.5;" x="442.8" xlink:href="#m5a7d422ac3" y="64.8"/>
      </g>
     </g>
     <g id="text_3">
      <!-- 100000 -->
      <defs>
       <path d="
M12.4062 8.29688
L28.5156 8.29688
L28.5156 63.9219
L10.9844 60.4062
L10.9844 69.3906
L28.4219 72.9062
L38.2812 72.9062
L38.2812 8.29688
L54.3906 8.29688
L54.3906 0
L12.4062 0
z
" id="BitstreamVeraSans-Roman-31"/>
      </defs>
      <g transform="translate(420.9525 596.318125)scale(0.12 -0.12)">
       <use xlink:href="#BitstreamVeraSans-Roman-31"/>
       <use x="63.623046875" xlink:href="#BitstreamVeraSans-Roman-30"/>
       <use x="127.24609375" xlink:href="#BitstreamVeraSans-Roman-30"/>
       <use x="190.869140625" xlink:href="#BitstreamVeraSans-Roman-30"/>
       <use x="254.4921875" xlink:href="#BitstreamVeraSans-Roman-30"/>
       <use x="318.115234375" xlink:href="#BitstreamVeraSans-Roman-30"/>
      </g>
     </g>
    </g>
    <g id="xtick_4">
     <g id="line2d_10">
      <g>
       <use style="stroke:#000000;stroke-width:0.5;" x="610.2" xlink:href="#mc7db9fdffb" y="583.2"/>
      </g>
     </g>
     <g id="line2d_11">
      <g>
       <use style="stroke:#000000;stroke-width:0.5;" x="610.2" xlink:href="#m5a7d422ac3" y="64.8"/>
      </g>
     </g>
     <g id="text_4">
      <!-- 150000 -->
      <g transform="translate(588.3525 596.318125)scale(0.12 -0.12)">
       <use xlink:href="#BitstreamVeraSans-Roman-31"/>
       <use x="63.623046875" xlink:href="#BitstreamVeraSans-Roman-35"/>
       <use x="127.24609375" xlink:href="#BitstreamVeraSans-Roman-30"/>
       <use x="190.869140625" xlink:href="#BitstreamVeraSans-Roman-30"/>
       <use x="254.4921875" xlink:href="#BitstreamVeraSans-Roman-30"/>
       <use x="318.115234375" xlink:href="#BitstreamVeraSans-Roman-30"/>
      </g>
     </g>
    </g>
    <g id="xtick_5">
     <g id="line2d_12">
      <g>
       <use style="stroke:#000000;stroke-width:0.5;" x="777.6" xlink:href="#mc7db9fdffb" y="583.2"/>
      </g>
     </g>
     <g id="line2d_13">
      <g>
       <use style="stroke:#000000;stroke-width:0.5;" x="777.6" xlink:href="#m5a7d422ac3" y="64.8"/>
      </g>
     </g>
     <g id="text_5">
      <!-- 200000 -->
      <defs>
       <path d="
M19.1875 8.29688
L53.6094 8.29688
L53.6094 0
L7.32812 0
L7.32812 8.29688
Q12.9375 14.1094 22.625 23.8906
Q32.3281 33.6875 34.8125 36.5312
Q39.5469 41.8438 41.4219 45.5312
Q43.3125 49.2188 43.3125 52.7812
Q43.3125 58.5938 39.2344 62.25
Q35.1562 65.9219 28.6094 65.9219
Q23.9688 65.9219 18.8125 64.3125
Q13.6719 62.7031 7.8125 59.4219
L7.8125 69.3906
Q13.7656 71.7812 18.9375 73
Q24.125 74.2188 28.4219 74.2188
Q39.75 74.2188 46.4844 68.5469
Q53.2188 62.8906 53.2188 53.4219
Q53.2188 48.9219 51.5312 44.8906
Q49.8594 40.875 45.4062 35.4062
Q44.1875 33.9844 37.6406 27.2188
Q31.1094 20.4531 19.1875 8.29688" id="BitstreamVeraSans-Roman-32"/>
      </defs>
      <g transform="translate(755.533125 596.318125)scale(0.12 -0.12)">
       <use xlink:href="#BitstreamVeraSans-Roman-32"/>
       <use x="63.623046875" xlink:href="#BitstreamVeraSans-Roman-30"/>
       <use x="127.24609375" xlink:href="#BitstreamVeraSans-Roman-30"/>
       <use x="190.869140625" xlink:href="#BitstreamVeraSans-Roman-30"/>
       <use x="254.4921875" xlink:href="#BitstreamVeraSans-Roman-30"/>
       <use x="318.115234375" xlink:href="#BitstreamVeraSans-Roman-30"/>
      </g>
     </g>
    </g>
    <g id="text_6">
     <!-- t / ms -->
     <defs>
      <path d="
M44.2812 53.0781
L44.2812 44.5781
Q40.4844 46.5312 36.375 47.5
Q32.2812 48.4844 27.875 48.4844
Q21.1875 48.4844 17.8438 46.4375
Q14.5 44.3906 14.5 40.2812
Q14.5 37.1562 16.8906 35.375
Q19.2812 33.5938 26.5156 31.9844
L29.5938 31.2969
Q39.1562 29.25 43.1875 25.5156
Q47.2188 21.7812 47.2188 15.0938
Q47.2188 7.46875 41.1875 3.01562
Q35.1562 -1.42188 24.6094 -1.42188
Q20.2188 -1.42188 15.4531 -0.5625
Q10.6875 0.296875 5.42188 2
L5.42188 11.2812
Q10.4062 8.6875 15.2344 7.39062
Q20.0625 6.10938 24.8125 6.10938
Q31.1562 6.10938 34.5625 8.28125
Q37.9844 10.4531 37.9844 14.4062
Q37.9844 18.0625 35.5156 20.0156
Q33.0625 21.9688 24.7031 23.7812
L21.5781 24.5156
Q13.2344 26.2656 9.51562 29.9062
Q5.8125 33.5469 5.8125 39.8906
Q5.8125 47.6094 11.2812 51.7969
Q16.75 56 26.8125 56
Q31.7812 56 36.1719 55.2656
Q40.5781 54.5469 44.2812 53.0781" id="BitstreamVeraSans-Roman-73"/>
      <path d="
M18.3125 70.2188
L18.3125 54.6875
L36.8125 54.6875
L36.8125 47.7031
L18.3125 47.7031
L18.3125 18.0156
Q18.3125 11.3281 20.1406 9.42188
Q21.9688 7.51562 27.5938 7.51562
L36.8125 7.51562
L36.8125 0
L27.5938 0
Q17.1875 0 13.2344 3.875
Q9.28125 7.76562 9.28125 18.0156
L9.28125 47.7031
L2.6875 47.7031
L2.6875 54.6875
L9.28125 54.6875
L9.28125 70.2188
z
" id="BitstreamVeraSans-Roman-74"/>
      <path d="
M52 44.1875
Q55.375 50.25 60.0625 53.125
Q64.75 56 71.0938 56
Q79.6406 56 84.2812 50.0156
Q88.9219 44.0469 88.9219 33.0156
L88.9219 0
L79.8906 0
L79.8906 32.7188
Q79.8906 40.5781 77.0938 44.375
Q74.3125 48.1875 68.6094 48.1875
Q61.625 48.1875 57.5625 43.5469
Q53.5156 38.9219 53.5156 30.9062
L53.5156 0
L44.4844 0
L44.4844 32.7188
Q44.4844 40.625 41.7031 44.4062
Q38.9219 48.1875 33.1094 48.1875
Q26.2188 48.1875 22.1562 43.5312
Q18.1094 38.875 18.1094 30.9062
L18.1094 0
L9.07812 0
L9.07812 54.6875
L18.1094 54.6875
L18.1094 46.1875
Q21.1875 51.2188 25.4844 53.6094
Q29.7812 56 35.6875 56
Q41.6562 56 45.8281 52.9688
Q50 49.9531 52 44.1875" id="BitstreamVeraSans-Roman-6d"/>
      <path d="
M25.3906 72.9062
L33.6875 72.9062
L8.29688 -9.28125
L0 -9.28125
z
" id="BitstreamVeraSans-Roman-2f"/>
      <path id="BitstreamVeraSans-Roman-20"/>
     </defs>
     <g transform="translate(425.9353125 612.931875)scale(0.12 -0.12)">
      <use xlink:href="#BitstreamVeraSans-Roman-74"/>
      <use x="39.208984375" xlink:href="#BitstreamVeraSans-Roman-20"/>
      <use x="70.99609375" xlink:href="#BitstreamVeraSans-Roman-2f"/>
      <use x="104.6875" xlink:href="#BitstreamVeraSans-Roman-20"/>
      <use x="136.474609375" xlink:href="#BitstreamVeraSans-Roman-6d"/>
      <use x="233.88671875" xlink:href="#BitstreamVeraSans-Roman-73"/>
     </g>
    </g>
   </g>
   <g id="matplotlib.axis_2">
    <g id="ytick_1">
     <g id="line2d_14">
      <defs>
       <path d="
M0 0
L4 0" id="md7965d1ba0" style="stroke:#000000;stroke-width:0.5;"/>
      </defs>
      <g>
       <use style="stroke:#000000;stroke-width:0.5;" x="108.0" xlink:href="#md7965d1ba0" y="583.2"/>
      </g>
     </g>
     <g id="line2d_15">
      <defs>
       <path d="
M0 0
L-4 0" id="md9a1c1a7cd" style="stroke:#000000;stroke-width:0.5;"/>
      </defs>
      <g>
       <use style="stroke:#000000;stroke-width:0.5;" x="777.6" xlink:href="#md9a1c1a7cd" y="583.2"/>
      </g>
     </g>
     <g id="text_7">
      <!-- 0 -->
      <g transform="translate(97.953125 586.51125)scale(0.12 -0.12)">
       <use xlink:href="#BitstreamVeraSans-Roman-30"/>
      </g>
     </g>
    </g>
    <g id="ytick_2">
     <g id="line2d_16">
      <g>
       <use style="stroke:#000000;stroke-width:0.5;" x="108.0" xlink:href="#md7965d1ba0" y="479.52"/>
      </g>
     </g>
     <g id="line2d_17">
      <g>
       <use style="stroke:#000000;stroke-width:0.5;" x="777.6" xlink:href="#md9a1c1a7cd" y="479.52"/>
      </g>
     </g>
     <g id="text_8">
      <!-- 500 -->
      <g transform="translate(82.818125 482.83125)scale(0.12 -0.12)">
       <use xlink:href="#BitstreamVeraSans-Roman-35"/>
       <use x="63.623046875" xlink:href="#BitstreamVeraSans-Roman-30"/>
       <use x="127.24609375" xlink:href="#BitstreamVeraSans-Roman-30"/>
      </g>
     </g>
    </g>
    <g id="ytick_3">
     <g id="line2d_18">
      <g>
       <use style="stroke:#000000;stroke-width:0.5;" x="108.0" xlink:href="#md7965d1ba0" y="375.84"/>
      </g>
     </g>
     <g id="line2d_19">
      <g>
       <use style="stroke:#000000;stroke-width:0.5;" x="777.6" xlink:href="#md9a1c1a7cd" y="375.84"/>
      </g>
     </g>
     <g id="text_9">
      <!-- 1000 -->
      <g transform="translate(75.575 379.15125)scale(0.12 -0.12)">
       <use xlink:href="#BitstreamVeraSans-Roman-31"/>
       <use x="63.623046875" xlink:href="#BitstreamVeraSans-Roman-30"/>
       <use x="127.24609375" xlink:href="#BitstreamVeraSans-Roman-30"/>
       <use x="190.869140625" xlink:href="#BitstreamVeraSans-Roman-30"/>
      </g>
     </g>
    </g>
    <g id="ytick_4">
     <g id="line2d_20">
      <g>
       <use style="stroke:#000000;stroke-width:0.5;" x="108.0" xlink:href="#md7965d1ba0" y="272.16"/>
      </g>
     </g>
     <g id="line2d_21">
      <g>
       <use style="stroke:#000000;stroke-width:0.5;" x="777.6" xlink:href="#md9a1c1a7cd" y="272.16"/>
      </g>
     </g>
     <g id="text_10">
      <!-- 1500 -->
      <g transform="translate(75.575 275.47125)scale(0.12 -0.12)">
       <use xlink:href="#BitstreamVeraSans-Roman-31"/>
       <use x="63.623046875" xlink:href="#BitstreamVeraSans-Roman-35"/>
       <use x="127.24609375" xlink:href="#BitstreamVeraSans-Roman-30"/>
       <use x="190.869140625" xlink:href="#BitstreamVeraSans-Roman-30"/>
      </g>
     </g>
    </g>
    <g id="ytick_5">
     <g id="line2d_22">
      <g>
       <use style="stroke:#000000;stroke-width:0.5;" x="108.0" xlink:href="#md7965d1ba0" y="168.48"/>
      </g>
     </g>
     <g id="line2d_23">
      <g>
       <use style="stroke:#000000;stroke-width:0.5;" x="777.6" xlink:href="#md9a1c1a7cd" y="168.48"/>
      </g>
     </g>
     <g id="text_11">
      <!-- 2000 -->
      <g transform="translate(75.13625 171.79125)scale(0.12 -0.12)">
       <use xlink:href="#BitstreamVeraSans-Roman-32"/>
       <use x="63.623046875" xlink:href="#BitstreamVeraSans-Roman-30"/>
       <use x="127.24609375" xlink:href="#BitstreamVeraSans-Roman-30"/>
       <use x="190.869140625" xlink:href="#BitstreamVeraSans-Roman-30"/>
      </g>
     </g>
    </g>
    <g id="ytick_6">
     <g id="line2d_24">
      <g>
       <use style="stroke:#000000;stroke-width:0.5;" x="108.0" xlink:href="#md7965d1ba0" y="64.8"/>
      </g>
     </g>
     <g id="line2d_25">
      <g>
       <use style="stroke:#000000;stroke-width:0.5;" x="777.6" xlink:href="#md9a1c1a7cd" y="64.8"/>
      </g>
     </g>
     <g id="text_12">
      <!-- 2500 -->
      <g transform="translate(75.13625 68.11125)scale(0.12 -0.12)">
       <use xlink:href="#BitstreamVeraSans-Roman-32"/>
       <use x="63.623046875" xlink:href="#BitstreamVeraSans-Roman-35"/>
       <use x="127.24609375" xlink:href="#BitstreamVeraSans-Roman-30"/>
       <use x="190.869140625" xlink:href="#BitstreamVeraSans-Roman-30"/>
      </g>
     </g>
    </g>
    <g id="text_13">
     <!-- particle numbers -->
     <defs>
      <path d="
M56.2031 29.5938
L56.2031 25.2031
L14.8906 25.2031
Q15.4844 15.9219 20.4844 11.0625
Q25.4844 6.20312 34.4219 6.20312
Q39.5938 6.20312 44.4531 7.46875
Q49.3125 8.73438 54.1094 11.2812
L54.1094 2.78125
Q49.2656 0.734375 44.1875 -0.34375
Q39.1094 -1.42188 33.8906 -1.42188
Q20.7969 -1.42188 13.1562 6.1875
Q5.51562 13.8125 5.51562 26.8125
Q5.51562 40.2344 12.7656 48.1094
Q20.0156 56 32.3281 56
Q43.3594 56 49.7812 48.8906
Q56.2031 41.7969 56.2031 29.5938
M47.2188 32.2344
Q47.125 39.5938 43.0938 43.9844
Q39.0625 48.3906 32.4219 48.3906
Q24.9062 48.3906 20.3906 44.1406
Q15.875 39.8906 15.1875 32.1719
z
" id="BitstreamVeraSans-Roman-65"/>
      <path d="
M54.8906 33.0156
L54.8906 0
L45.9062 0
L45.9062 32.7188
Q45.9062 40.4844 42.875 44.3281
Q39.8438 48.1875 33.7969 48.1875
Q26.5156 48.1875 22.3125 43.5469
Q18.1094 38.9219 18.1094 30.9062
L18.1094 0
L9.07812 0
L9.07812 54.6875
L18.1094 54.6875
L18.1094 46.1875
Q21.3438 51.125 25.7031 53.5625
Q30.0781 56 35.7969 56
Q45.2188 56 50.0469 50.1719
Q54.8906 44.3438 54.8906 33.0156" id="BitstreamVeraSans-Roman-6e"/>
      <path d="
M8.5 21.5781
L8.5 54.6875
L17.4844 54.6875
L17.4844 21.9219
Q17.4844 14.1562 20.5 10.2656
Q23.5312 6.39062 29.5938 6.39062
Q36.8594 6.39062 41.0781 11.0312
Q45.3125 15.6719 45.3125 23.6875
L45.3125 54.6875
L54.2969 54.6875
L54.2969 0
L45.3125 0
L45.3125 8.40625
Q42.0469 3.42188 37.7188 1
Q33.4062 -1.42188 27.6875 -1.42188
Q18.2656 -1.42188 13.375 4.4375
Q8.5 10.2969 8.5 21.5781" id="BitstreamVeraSans-Roman-75"/>
      <path d="
M48.6875 27.2969
Q48.6875 37.2031 44.6094 42.8438
Q40.5312 48.4844 33.4062 48.4844
Q26.2656 48.4844 22.1875 42.8438
Q18.1094 37.2031 18.1094 27.2969
Q18.1094 17.3906 22.1875 11.75
Q26.2656 6.10938 33.4062 6.10938
Q40.5312 6.10938 44.6094 11.75
Q48.6875 17.3906 48.6875 27.2969
M18.1094 46.3906
Q20.9531 51.2656 25.2656 53.625
Q29.5938 56 35.5938 56
Q45.5625 56 51.7812 48.0938
Q58.0156 40.1875 58.0156 27.2969
Q58.0156 14.4062 51.7812 6.48438
Q45.5625 -1.42188 35.5938 -1.42188
Q29.5938 -1.42188 25.2656 0.953125
Q20.9531 3.32812 18.1094 8.20312
L18.1094 0
L9.07812 0
L9.07812 75.9844
L18.1094 75.9844
z
" id="BitstreamVeraSans-Roman-62"/>
      <path d="
M9.42188 54.6875
L18.4062 54.6875
L18.4062 0
L9.42188 0
z

M9.42188 75.9844
L18.4062 75.9844
L18.4062 64.5938
L9.42188 64.5938
z
" id="BitstreamVeraSans-Roman-69"/>
      <path d="
M41.1094 46.2969
Q39.5938 47.1719 37.8125 47.5781
Q36.0312 48 33.8906 48
Q26.2656 48 22.1875 43.0469
Q18.1094 38.0938 18.1094 28.8125
L18.1094 0
L9.07812 0
L9.07812 54.6875
L18.1094 54.6875
L18.1094 46.1875
Q20.9531 51.1719 25.4844 53.5781
Q30.0312 56 36.5312 56
Q37.4531 56 38.5781 55.875
Q39.7031 55.7656 41.0625 55.5156
z
" id="BitstreamVeraSans-Roman-72"/>
      <path d="
M9.42188 75.9844
L18.4062 75.9844
L18.4062 0
L9.42188 0
z
" id="BitstreamVeraSans-Roman-6c"/>
      <path d="
M34.2812 27.4844
Q23.3906 27.4844 19.1875 25
Q14.9844 22.5156 14.9844 16.5
Q14.9844 11.7188 18.1406 8.90625
Q21.2969 6.10938 26.7031 6.10938
Q34.1875 6.10938 38.7031 11.4062
Q43.2188 16.7031 43.2188 25.4844
L43.2188 27.4844
z

M52.2031 31.2031
L52.2031 0
L43.2188 0
L43.2188 8.29688
Q40.1406 3.32812 35.5469 0.953125
Q30.9531 -1.42188 24.3125 -1.42188
Q15.9219 -1.42188 10.9531 3.29688
Q6 8.01562 6 15.9219
Q6 25.1406 12.1719 29.8281
Q18.3594 34.5156 30.6094 34.5156
L43.2188 34.5156
L43.2188 35.4062
Q43.2188 41.6094 39.1406 45
Q35.0625 48.3906 27.6875 48.3906
Q23 48.3906 18.5469 47.2656
Q14.1094 46.1406 10.0156 43.8906
L10.0156 52.2031
Q14.9375 54.1094 19.5781 55.0469
Q24.2188 56 28.6094 56
Q40.4844 56 46.3438 49.8438
Q52.2031 43.7031 52.2031 31.2031" id="BitstreamVeraSans-Roman-61"/>
      <path d="
M18.1094 8.20312
L18.1094 -20.7969
L9.07812 -20.7969
L9.07812 54.6875
L18.1094 54.6875
L18.1094 46.3906
Q20.9531 51.2656 25.2656 53.625
Q29.5938 56 35.5938 56
Q45.5625 56 51.7812 48.0938
Q58.0156 40.1875 58.0156 27.2969
Q58.0156 14.4062 51.7812 6.48438
Q45.5625 -1.42188 35.5938 -1.42188
Q29.5938 -1.42188 25.2656 0.953125
Q20.9531 3.32812 18.1094 8.20312
M48.6875 27.2969
Q48.6875 37.2031 44.6094 42.8438
Q40.5312 48.4844 33.4062 48.4844
Q26.2656 48.4844 22.1875 42.8438
Q18.1094 37.2031 18.1094 27.2969
Q18.1094 17.3906 22.1875 11.75
Q26.2656 6.10938 33.4062 6.10938
Q40.5312 6.10938 44.6094 11.75
Q48.6875 17.3906 48.6875 27.2969" id="BitstreamVeraSans-Roman-70"/>
      <path d="
M48.7812 52.5938
L48.7812 44.1875
Q44.9688 46.2969 41.1406 47.3438
Q37.3125 48.3906 33.4062 48.3906
Q24.6562 48.3906 19.8125 42.8438
Q14.9844 37.3125 14.9844 27.2969
Q14.9844 17.2812 19.8125 11.7344
Q24.6562 6.20312 33.4062 6.20312
Q37.3125 6.20312 41.1406 7.25
Q44.9688 8.29688 48.7812 10.4062
L48.7812 2.09375
Q45.0156 0.34375 40.9844 -0.53125
Q36.9688 -1.42188 32.4219 -1.42188
Q20.0625 -1.42188 12.7812 6.34375
Q5.51562 14.1094 5.51562 27.2969
Q5.51562 40.6719 12.8594 48.3281
Q20.2188 56 33.0156 56
Q37.1562 56 41.1094 55.1406
Q45.0625 54.2969 48.7812 52.5938" id="BitstreamVeraSans-Roman-63"/>
     </defs>
     <g transform="translate(67.640625 374.78625)rotate(-90.0)scale(0.12 -0.12)">
      <use xlink:href="#BitstreamVeraSans-Roman-70"/>
      <use x="63.4765625" xlink:href="#BitstreamVeraSans-Roman-61"/>
      <use x="124.755859375" xlink:href="#BitstreamVeraSans-Roman-72"/>
      <use x="165.869140625" xlink:href="#BitstreamVeraSans-Roman-74"/>
      <use x="205.078125" xlink:href="#BitstreamVeraSans-Roman-69"/>
      <use x="232.861328125" xlink:href="#BitstreamVeraSans-Roman-63"/>
      <use x="287.841796875" xlink:href="#BitstreamVeraSans-Roman-6c"/>
      <use x="315.625" xlink:href="#BitstreamVeraSans-Roman-65"/>
      <use x="377.1484375" xlink:href="#BitstreamVeraSans-Roman-20"/>
      <use x="408.935546875" xlink:href="#BitstreamVeraSans-Roman-6e"/>
      <use x="472.314453125" xlink:href="#BitstreamVeraSans-Roman-75"/>
      <use x="535.693359375" xlink:href="#BitstreamVeraSans-Roman-6d"/>
      <use x="633.10546875" xlink:href="#BitstreamVeraSans-Roman-62"/>
      <use x="696.58203125" xlink:href="#BitstreamVeraSans-Roman-65"/>
      <use x="758.10546875" xlink:href="#BitstreamVeraSans-Roman-72"/>
      <use x="799.21875" xlink:href="#BitstreamVeraSans-Roman-73"/>
     </g>
    </g>
   </g>
   <g id="legend_1">
    <g id="patch_7">
     <path d="
M724.53 101.224
L774.1 101.224
L774.1 68.3
L724.53 68.3
z
" style="fill:#ffffff;stroke:#000000;stroke-linejoin:miter;"/>
    </g>
    <g id="line2d_26">
     <path d="
M729.43 73.9689
L739.23 73.9689" style="fill:none;stroke:#ff0000;stroke-linecap:square;"/>
    </g>
    <g id="line2d_27"/>
    <g id="text_14">
     <!-- Da el.0 -->
     <defs>
      <path d="
M10.6875 12.4062
L21 12.4062
L21 0
L10.6875 0
z
" id="BitstreamVeraSans-Roman-2e"/>
      <path d="
M19.6719 64.7969
L19.6719 8.10938
L31.5938 8.10938
Q46.6875 8.10938 53.6875 14.9375
Q60.6875 21.7812 60.6875 36.5312
Q60.6875 51.1719 53.6875 57.9844
Q46.6875 64.7969 31.5938 64.7969
z

M9.8125 72.9062
L30.0781 72.9062
Q51.2656 72.9062 61.1719 64.0938
Q71.0938 55.2812 71.0938 36.5312
Q71.0938 17.6719 61.125 8.82812
Q51.1719 0 30.0781 0
L9.8125 0
z
" id="BitstreamVeraSans-Roman-44"/>
     </defs>
     <g transform="translate(746.93015625 76.41890625)scale(0.07 -0.07)">
      <use xlink:href="#BitstreamVeraSans-Roman-44"/>
      <use x="77.001953125" xlink:href="#BitstreamVeraSans-Roman-61"/>
      <use x="138.28125" xlink:href="#BitstreamVeraSans-Roman-20"/>
      <use x="170.068359375" xlink:href="#BitstreamVeraSans-Roman-65"/>
      <use x="231.591796875" xlink:href="#BitstreamVeraSans-Roman-6c"/>
      <use x="259.375" xlink:href="#BitstreamVeraSans-Roman-2e"/>
      <use x="291.162109375" xlink:href="#BitstreamVeraSans-Roman-30"/>
     </g>
    </g>
    <g id="line2d_28">
     <path d="
M729.43 84.2436
L739.23 84.2436" style="fill:none;stroke:#008000;stroke-linecap:square;"/>
    </g>
    <g id="line2d_29"/>
    <g id="text_15">
     <!-- Da el.1 -->
     <g transform="translate(746.93015625 86.69359375)scale(0.07 -0.07)">
      <use xlink:href="#BitstreamVeraSans-Roman-44"/>
      <use x="77.001953125" xlink:href="#BitstreamVeraSans-Roman-61"/>
      <use x="138.28125" xlink:href="#BitstreamVeraSans-Roman-20"/>
      <use x="170.068359375" xlink:href="#BitstreamVeraSans-Roman-65"/>
      <use x="231.591796875" xlink:href="#BitstreamVeraSans-Roman-6c"/>
      <use x="259.375" xlink:href="#BitstreamVeraSans-Roman-2e"/>
      <use x="291.162109375" xlink:href="#BitstreamVeraSans-Roman-31"/>
     </g>
    </g>
    <g id="line2d_30">
     <path d="
M729.43 94.5183
L739.23 94.5183" style="fill:none;stroke:#0000ff;stroke-linecap:square;"/>
    </g>
    <g id="line2d_31"/>
    <g id="text_16">
     <!-- Da el.2 -->
     <g transform="translate(746.93015625 96.96828125)scale(0.07 -0.07)">
      <use xlink:href="#BitstreamVeraSans-Roman-44"/>
      <use x="77.001953125" xlink:href="#BitstreamVeraSans-Roman-61"/>
      <use x="138.28125" xlink:href="#BitstreamVeraSans-Roman-20"/>
      <use x="170.068359375" xlink:href="#BitstreamVeraSans-Roman-65"/>
      <use x="231.591796875" xlink:href="#BitstreamVeraSans-Roman-6c"/>
      <use x="259.375" xlink:href="#BitstreamVeraSans-Roman-2e"/>
      <use x="291.162109375" xlink:href="#BitstreamVeraSans-Roman-32"/>
     </g>
    </g>
   </g>
  </g>
 </g>
 <defs>
  <clipPath id="p7ceb695115">
   <rect height="518.4" width="669.6" x="108.0" y="64.8"/>
  </clipPath>
 </defs>
</svg>
