<?xml version="1.0" encoding="utf-8" standalone="no"?>
<!DOCTYPE svg PUBLIC "-//W3C//DTD SVG 1.1//EN"
  "http://www.w3.org/Graphics/SVG/1.1/DTD/svg11.dtd">
<!-- Created with matplotlib (http://matplotlib.org/) -->
<svg height="648pt" version="1.1" viewBox="0 0 864 648" width="864pt" xmlns="http://www.w3.org/2000/svg" xmlns:xlink="http://www.w3.org/1999/xlink">
 <defs>
  <style type="text/css">
*{stroke-linecap:butt;stroke-linejoin:round;}
  </style>
 </defs>
 <g id="figure_1">
  <g id="patch_1">
   <path d="
M0 648
L864 648
L864 0
L0 0
z
" style="fill:#ffffff;"/>
  </g>
  <g id="axes_1">
   <g id="patch_2">
    <path d="
M108 583.2
L777.6 583.2
L777.6 64.8
L108 64.8
z
" style="fill:#ffffff;"/>
   </g>
   <g id="line2d_1">
    <path clip-path="url(#p7ceb695115)" d="
M108 583.2
L108.67 581.904
L109.339 581.58
L110.009 580.932
L110.678 580.608
L111.348 580.608
L112.018 580.284
L112.687 579.636
L113.357 579.312
L114.696 577.368
L115.366 577.044
L116.035 576.072
L116.705 574.452
L118.714 574.452
L119.383 572.832
L120.053 571.536
L121.392 566.676
L122.731 565.38
L123.401 564.084
L124.07 561.492
L124.74 562.14
L125.41 559.548
L126.079 559.224
L126.749 557.928
L128.088 556.632
L128.758 556.308
L129.427 555.336
L130.766 554.688
L131.436 555.66
L132.106 555.984
L132.775 554.688
L133.445 554.04
L134.114 552.744
L134.784 551.772
L135.454 549.18
L136.123 549.504
L136.793 549.504
L138.132 547.56
L138.802 546.912
L139.471 547.236
L140.141 545.94
L140.81 544.968
L141.48 545.616
L142.15 543.996
L142.819 543.996
L143.489 543.672
L144.158 544.644
L144.828 544.644
L145.498 544.968
L146.167 543.348
L146.837 542.376
L148.176 541.728
L148.846 539.46
L149.515 538.812
L150.185 538.488
L150.854 537.516
L151.524 536.868
L152.194 534.6
L152.863 533.628
L153.533 533.304
L154.202 534.276
L154.872 533.304
L155.542 532.98
L156.211 533.952
L156.881 535.248
L157.55 535.572
L158.89 534.924
L159.559 534.924
L160.229 532.332
L160.898 531.684
L161.568 530.712
L162.238 530.388
L162.907 530.712
L163.577 530.388
L164.916 530.388
L165.586 529.092
L166.255 528.768
L166.925 528.768
L167.594 528.444
L168.264 528.768
L168.934 528.768
L169.603 526.824
L170.273 527.796
L170.942 527.148
L171.612 526.824
L172.282 526.176
L172.951 526.176
L173.621 525.528
L174.29 525.852
L174.96 525.528
L175.63 523.584
L176.299 523.26
L176.969 524.556
L177.638 525.204
L178.308 527.148
L178.978 527.796
L179.647 527.796
L180.317 526.5
L180.986 528.768
L181.656 529.092
L182.326 527.148
L182.995 527.472
L184.334 527.472
L185.004 527.148
L185.674 526.176
L186.343 525.528
L187.013 525.528
L187.682 524.556
L188.352 524.88
L189.022 523.26
L189.691 523.584
L190.361 524.88
L191.03 525.852
L191.7 524.88
L192.37 525.852
L193.039 526.5
L193.709 524.88
L194.378 525.204
L195.048 525.852
L195.718 525.204
L196.387 525.204
L197.057 525.528
L197.726 524.88
L199.735 524.88
L200.405 523.26
L201.074 523.908
L201.744 523.908
L202.414 524.232
L203.753 523.584
L204.422 523.584
L205.092 524.556
L206.431 524.556
L207.101 525.528
L207.77 525.852
L208.44 527.796
L209.779 526.5
L210.449 527.796
L211.118 529.416
L211.788 528.444
L212.458 529.092
L213.127 528.12
L213.797 528.444
L214.466 529.092
L215.136 529.416
L215.806 528.768
L217.145 529.416
L217.814 530.388
L218.484 529.416
L219.154 530.388
L219.823 529.092
L220.493 528.12
L221.162 528.12
L221.832 528.444
L222.502 526.824
L223.841 527.472
L224.51 528.444
L225.18 527.472
L225.85 527.148
L226.519 527.148
L227.189 526.5
L227.858 526.5
L228.528 527.148
L229.198 528.444
L229.867 528.12
L230.537 528.444
L231.206 529.416
L233.215 531.36
L233.885 532.332
L234.554 532.008
L235.224 531.36
L236.563 532.656
L237.233 532.008
L237.902 532.008
L238.572 532.332
L239.242 533.304
L239.911 533.628
L240.581 533.304
L241.25 534.6
L242.59 534.6
L243.259 535.572
L243.929 537.516
L244.598 537.192
L245.268 536.22
L245.938 536.22
L246.607 536.868
L247.277 536.544
L247.946 536.544
L248.616 536.868
L249.955 536.868
L250.625 537.192
L251.294 536.868
L252.634 540.108
L253.303 540.756
L253.973 541.08
L255.312 541.08
L255.982 542.052
L257.99 543.024
L258.66 544.32
L259.33 543.348
L259.999 543.672
L260.669 543.672
L261.338 544.32
L262.008 544.644
L262.678 544.644
L263.347 544.968
L264.017 544.32
L266.695 545.616
L267.365 545.292
L268.034 544.644
L269.374 543.996
L270.713 546.588
L271.382 546.264
L272.052 546.588
L274.061 546.588
L274.73 545.292
L275.4 545.616
L276.07 546.264
L276.739 546.588
L277.409 547.56
L278.078 547.236
L279.418 545.94
L280.087 545.94
L280.757 546.264
L281.426 546.264
L282.096 546.588
L282.766 546.588
L283.435 547.236
L284.774 545.292
L287.453 545.292
L288.122 545.616
L288.792 546.588
L289.462 546.912
L291.47 546.912
L292.14 545.616
L292.81 545.292
L293.479 546.264
L294.149 545.292
L294.818 544.968
L295.488 545.616
L296.158 545.616
L297.497 543.672
L298.836 543.672
L299.506 543.996
L300.175 543.672
L300.845 543.672
L301.514 543.348
L302.184 543.348
L302.854 542.7
L303.523 542.7
L304.193 542.052
L304.862 541.08
L306.871 543.024
L307.541 543.348
L308.21 544.32
L308.88 546.264
L309.55 545.616
L310.219 545.292
L310.889 545.292
L311.558 545.94
L312.228 547.884
L312.898 549.18
L313.567 548.856
L314.237 548.208
L314.906 547.236
L315.576 547.236
L316.246 546.264
L316.915 547.236
L317.585 547.56
L318.254 547.56
L318.924 548.532
L319.594 548.856
L320.933 548.856
L321.602 549.504
L322.272 548.856
L322.942 549.504
L324.281 548.856
L324.95 549.504
L325.62 550.8
L326.29 550.476
L326.959 552.42
L327.629 552.744
L328.968 552.744
L329.638 552.42
L330.307 554.04
L330.977 554.688
L331.646 555.012
L333.655 554.04
L334.325 554.364
L334.994 554.364
L335.664 553.716
L336.334 552.744
L337.003 552.744
L337.673 553.716
L338.342 554.04
L339.012 555.012
L339.682 554.688
L340.351 555.012
L341.021 555.012
L341.69 554.364
L342.36 555.66
L343.03 556.632
L343.699 556.632
L345.038 555.984
L346.378 555.984
L347.047 555.66
L347.717 555.012
L348.386 554.04
L349.056 553.392
L349.726 553.716
L350.395 553.716
L351.065 552.744
L351.734 553.068
L352.404 551.448
L353.074 551.448
L353.743 552.096
L354.413 553.392
L355.082 553.068
L355.752 553.392
L356.422 555.012
L357.091 554.04
L357.761 554.688
L358.43 554.04
L359.1 554.04
L360.439 554.688
L361.778 554.688
L362.448 554.04
L363.118 553.716
L363.787 552.744
L365.126 554.04
L365.796 554.04
L366.466 554.688
L367.135 554.688
L367.805 553.716
L368.474 554.04
L369.144 554.688
L369.814 554.688
L370.483 554.364
L371.153 553.716
L371.822 554.04
L372.492 553.716
L373.162 554.364
L373.831 554.364
L374.501 554.04
L375.84 555.984
L377.849 555.984
L378.518 556.632
L379.188 556.956
L379.858 556.956
L380.527 557.28
L381.197 556.956
L381.866 556.308
L382.536 556.308
L384.545 558.252
L385.214 557.604
L385.884 557.604
L386.554 556.632
L387.223 557.28
L387.893 556.956
L388.562 556.956
L389.232 557.928
L391.241 558.9
L391.91 558.9
L392.58 559.548
L393.25 558.576
L393.919 559.224
L394.589 559.224
L395.928 559.872
L396.598 560.52
L397.937 559.872
L398.606 560.196
L399.276 559.872
L399.946 560.196
L400.615 560.844
L401.285 561.816
L401.954 561.816
L402.624 562.464
L403.963 562.464
L404.633 562.14
L405.302 561.492
L405.972 561.816
L406.642 562.464
L408.65 562.464
L409.32 563.436
L409.99 562.464
L410.659 562.464
L411.329 562.788
L411.998 562.464
L413.338 562.464
L414.007 562.14
L414.677 562.788
L416.686 561.816
L417.355 561.168
L418.025 561.168
L419.364 561.816
L420.034 561.168
L420.703 561.492
L421.373 561.492
L422.042 560.844
L423.382 562.14
L424.051 561.816
L424.721 561.816
L425.39 561.492
L426.06 560.52
L426.73 560.844
L427.399 559.872
L428.069 559.548
L428.738 561.168
L430.078 561.168
L432.086 562.14
L432.756 561.816
L433.426 562.14
L434.765 563.436
L435.434 563.112
L436.774 563.112
L437.443 563.436
L438.113 562.788
L438.782 563.436
L439.452 563.76
L440.122 564.408
L440.791 564.732
L441.461 564.732
L442.13 565.056
L442.8 565.056
L443.47 565.704
L444.139 563.76
L444.809 559.224
L445.478 547.236
L446.148 526.5
L447.487 459.432
L449.496 348.624
L450.835 297.432
L451.505 281.556
L452.174 278.964
L452.844 277.344
L453.514 273.78
L454.183 276.696
L454.853 275.724
L455.522 295.488
L456.192 320.436
L456.862 328.212
L457.531 339.876
L458.87 369.36
L459.54 369.684
L460.21 374.544
L460.879 382.32
L462.218 404.028
L462.888 415.044
L463.558 422.496
L464.227 426.06
L464.897 422.82
L465.566 436.428
L466.236 438.372
L466.906 435.78
L467.575 444.852
L468.245 446.472
L468.914 443.556
L469.584 450.036
L470.254 437.724
L470.923 442.584
L471.593 438.372
L472.262 432.54
L472.932 447.768
L473.602 430.596
L474.271 445.176
L474.941 440.964
L476.28 437.724
L476.95 427.356
L477.619 431.244
L478.289 425.412
L478.958 424.44
L479.628 424.44
L480.298 428.328
L480.967 430.596
L481.637 419.256
L482.306 417.312
L482.976 417.96
L483.646 415.368
L484.315 414.072
L484.985 415.044
L485.654 403.38
L486.324 403.704
L486.994 409.212
L487.663 397.548
L488.333 393.66
L489.002 386.856
L489.672 384.912
L490.342 380.052
L491.011 392.688
L491.681 383.292
L492.35 388.152
L493.02 367.092
L493.69 369.684
L494.359 370.332
L495.029 372.924
L495.698 365.148
L497.038 344.412
L497.707 355.104
L498.377 353.16
L499.046 346.356
L499.716 347.004
L500.386 344.412
L501.055 339.552
L501.725 347.004
L502.394 355.752
L503.064 354.456
L503.734 342.792
L504.403 343.116
L505.073 341.82
L506.412 333.072
L507.082 337.284
L507.751 334.044
L508.421 332.424
L509.09 341.496
L509.76 340.848
L511.099 324.648
L511.769 327.24
L512.438 333.072
L513.108 344.736
L513.778 325.62
L514.447 323.352
L515.117 315.9
L515.786 313.632
L516.456 316.872
L517.126 311.364
L517.795 316.224
L518.465 310.392
L519.804 318.168
L520.474 329.832
L521.143 332.424
L521.813 339.552
L522.482 333.396
L523.152 336.312
L523.822 340.524
L524.491 330.156
L525.161 324.648
L525.83 329.184
L526.5 328.86
L527.17 330.156
L527.839 335.016
L528.509 327.24
L529.178 321.084
L529.848 324.324
L530.518 323.028
L531.187 318.168
L531.857 325.62
L532.526 324.324
L533.196 331.776
L533.866 327.888
L534.535 319.14
L535.205 320.112
L535.874 321.732
L536.544 314.28
L537.214 319.788
L537.883 323.676
L538.553 312.984
L539.222 307.8
L539.892 300.672
L540.562 297.432
L541.231 300.996
L541.901 302.94
L542.57 311.04
L543.24 309.744
L543.91 296.784
L544.579 292.248
L545.249 300.024
L545.918 299.376
L547.258 295.488
L547.927 304.884
L548.597 307.152
L549.266 297.756
L549.936 298.08
L550.606 295.812
L551.275 302.616
L551.945 300.348
L552.614 300.348
L553.284 294.84
L553.954 281.232
L554.623 278.964
L555.293 290.628
L555.962 294.516
L556.632 281.556
L557.302 273.78
L557.971 276.372
L558.641 282.852
L559.31 277.668
L559.98 284.796
L560.65 283.824
L561.319 275.724
L561.989 273.456
L562.658 266.004
L563.328 275.724
L563.998 272.808
L564.667 271.512
L565.337 279.288
L566.006 275.076
L566.676 272.16
L567.346 271.836
L568.015 268.596
L568.685 274.104
L569.354 273.456
L570.024 272.16
L570.694 264.06
L571.363 266.652
L572.033 268.596
L572.702 265.032
L573.372 253.044
L574.042 261.144
L574.711 257.58
L576.05 269.244
L576.72 261.144
L577.39 251.424
L578.059 254.34
L578.729 258.552
L579.398 250.776
L580.068 255.636
L580.738 264.384
L581.407 266.652
L582.077 259.524
L582.746 258.552
L583.416 261.468
L584.086 261.144
L584.755 251.424
L585.425 263.412
L586.094 272.16
L586.764 255.312
L587.434 250.776
L588.103 259.2
L589.442 263.736
L590.112 253.692
L590.782 250.776
L591.451 239.76
L592.121 233.28
L592.79 239.76
L593.46 238.464
L594.13 226.8
L594.799 230.364
L595.469 229.716
L596.138 235.548
L596.808 232.308
L597.478 245.268
L598.147 244.296
L598.817 232.632
L599.486 227.124
L600.156 228.42
L600.826 240.084
L601.495 237.492
L602.165 227.124
L603.504 222.912
L604.174 217.08
L604.843 229.068
L605.513 222.264
L606.182 225.18
L606.852 237.816
L607.522 224.208
L608.191 219.672
L608.861 227.448
L609.53 214.488
L610.2 213.516
L610.87 219.996
L611.539 210.276
L612.209 209.952
L612.878 201.528
L613.548 202.176
L614.218 198.612
L614.887 192.456
L615.557 198.936
L616.226 193.428
L616.896 189.54
L618.235 199.26
L618.905 190.188
L619.574 187.92
L620.244 195.048
L620.914 184.032
L621.583 182.736
L622.253 186.948
L622.922 188.244
L623.592 191.484
L624.262 192.456
L624.931 200.88
L625.601 185.976
L626.27 185.328
L626.94 178.524
L627.61 188.892
L628.279 190.188
L628.949 188.892
L629.618 184.032
L630.288 183.708
L630.958 175.284
L631.627 177.552
L632.297 184.356
L632.966 183.708
L633.636 184.356
L634.306 176.58
L634.975 176.256
L635.645 173.664
L636.314 178.2
L636.984 185.004
L637.654 184.68
L638.323 173.34
L638.993 159.084
L639.662 160.056
L640.332 169.128
L641.002 164.592
L641.671 166.212
L642.341 177.876
L643.01 170.1
L643.68 165.564
L644.35 166.212
L645.019 164.268
L645.689 169.452
L646.358 172.692
L647.028 169.776
L647.698 170.424
L648.367 170.1
L649.037 171.72
L649.706 169.452
L650.376 171.396
L651.046 160.38
L651.715 161.676
L652.385 167.508
L653.054 177.552
L653.724 179.496
L654.394 178.848
L655.063 171.72
L655.733 171.72
L656.402 172.368
L657.072 164.916
L657.742 164.916
L658.411 157.788
L659.081 162.648
L661.09 149.364
L661.759 158.76
L662.429 156.492
L663.098 151.632
L663.768 157.14
L664.438 156.168
L665.107 151.956
L666.446 159.084
L667.116 152.28
L667.786 160.38
L668.455 156.816
L669.125 156.168
L669.794 146.124
L670.464 148.068
L671.134 147.096
L671.803 150.66
L672.473 150.984
L673.142 150.336
L673.812 151.308
L674.482 158.112
L675.821 150.984
L676.49 149.04
L677.16 147.744
L677.83 146.124
L678.499 146.124
L679.169 146.448
L679.838 144.504
L681.178 138.348
L681.847 137.7
L683.186 128.628
L683.856 129.6
L684.526 137.376
L685.195 147.42
L685.865 138.996
L686.534 135.108
L687.204 140.616
L687.874 137.7
L688.543 133.488
L689.213 138.672
L689.882 136.08
L690.552 143.208
L691.222 144.18
L691.891 132.192
L692.561 133.812
L693.23 132.516
L693.9 131.544
L694.57 125.388
L695.239 133.812
L695.909 136.728
L696.578 136.08
L697.248 138.024
L697.918 131.22
L698.587 126.36
L699.257 135.108
L699.926 126.036
L700.596 127.98
L701.266 120.528
L701.935 128.952
L703.274 124.092
L703.944 123.768
L704.614 125.064
L705.953 129.924
L706.622 134.136
L707.292 133.488
L707.962 134.136
L708.631 133.812
L709.97 145.476
L710.64 140.94
L711.31 131.22
L711.979 136.728
L712.649 133.164
L713.318 131.544
L713.988 128.952
L714.658 137.052
L715.327 132.516
L715.997 127.008
L716.666 125.388
L717.336 124.416
L718.006 131.544
L718.675 131.544
L719.345 130.572
L720.014 127.008
L720.684 127.656
L721.354 127.008
L722.023 133.812
L723.362 135.756
L724.032 141.588
L724.702 150.012
L725.371 143.856
L726.041 139.644
L726.71 140.616
L727.38 136.404
L728.05 142.56
L728.719 142.236
L729.389 148.392
L730.058 153.252
L730.728 156.816
L731.398 156.492
L732.067 154.872
L732.737 162
L733.406 160.704
L734.076 166.86
L735.415 159.732
L736.085 159.732
L736.754 165.24
L737.424 159.084
L738.094 163.944
L738.763 161.028
L739.433 164.268
L740.102 158.112
L740.772 165.24
L741.442 166.212
L742.111 169.128
L742.781 168.156
L743.45 163.296
L744.12 164.916
L744.79 166.212
L745.459 167.184
L746.129 167.832
L747.468 171.072
L748.138 174.312
L748.807 175.932
L750.146 171.72
L750.816 173.664
L751.486 179.496
L752.155 182.088
L752.825 182.736
L754.164 189.216
L754.834 187.596
L755.503 187.596
L756.173 185.652
L756.842 189.216
L757.512 191.808
L758.182 188.892
L758.851 188.244
L759.521 186.948
L760.19 187.596
L761.53 182.736
L762.199 185.328
L762.869 189.54
L763.538 191.16
L764.208 198.288
L764.878 194.724
L765.547 197.964
L766.217 196.992
L766.886 205.74
L767.556 210.276
L768.226 209.628
L768.895 211.248
L769.565 216.108
L770.234 213.516
L770.904 214.812
L771.574 212.868
L772.243 214.488
L772.913 212.22
L773.582 216.432
L774.252 212.544
L774.922 211.896
L775.591 210.924
L776.261 215.46
L776.93 217.728
L777.6 214.164
L777.6 214.164" style="fill:none;stroke:#ff0000;stroke-linecap:square;"/>
   </g>
   <g id="line2d_2">
    <path clip-path="url(#p7ceb695115)" d="
M108 583.2
L777.6 583.2
L777.6 583.2" style="fill:none;stroke:#008000;stroke-linecap:square;"/>
   </g>
   <g id="line2d_3">
    <path clip-path="url(#p7ceb695115)" d="
M108 583.2
L108.67 582.876
L109.339 581.58
L110.678 580.932
L111.348 579.96
L112.018 579.636
L113.357 577.044
L114.026 576.396
L114.696 574.776
L115.366 575.1
L116.035 573.804
L116.705 573.48
L117.374 572.508
L118.044 572.184
L119.383 570.24
L120.053 568.296
L120.722 567
L121.392 567.324
L122.062 567
L122.731 565.38
L123.401 564.408
L124.74 563.76
L125.41 562.788
L126.749 559.548
L127.418 558.576
L128.088 557.28
L128.758 557.928
L130.097 556.632
L130.766 554.364
L131.436 554.04
L132.106 552.744
L132.775 552.096
L133.445 550.152
L134.114 550.476
L134.784 550.476
L135.454 549.18
L136.793 547.884
L137.462 546.588
L138.132 545.94
L138.802 546.264
L139.471 544.644
L140.141 542.052
L141.48 540.756
L142.15 541.404
L142.819 541.08
L143.489 540.108
L144.158 539.784
L144.828 539.136
L145.498 537.516
L146.167 537.516
L146.837 537.84
L147.506 536.544
L148.176 534.924
L148.846 534.924
L149.515 532.98
L150.185 532.98
L150.854 533.628
L151.524 533.628
L152.194 532.98
L152.863 532.656
L153.533 532.656
L155.542 531.684
L156.211 531.684
L156.881 530.712
L157.55 530.388
L158.22 531.36
L158.89 531.036
L160.229 532.332
L160.898 532.008
L162.238 530.712
L162.907 530.388
L163.577 529.74
L164.246 529.416
L164.916 530.064
L165.586 529.74
L166.255 530.064
L166.925 529.092
L167.594 526.824
L168.264 525.852
L168.934 526.176
L169.603 525.852
L170.942 525.852
L171.612 525.528
L172.282 525.528
L172.951 526.176
L173.621 525.852
L174.29 527.796
L174.96 528.12
L175.63 527.148
L176.299 527.148
L176.969 526.176
L177.638 525.852
L178.978 524.556
L179.647 524.232
L180.317 524.88
L180.986 525.852
L181.656 525.852
L182.326 526.5
L182.995 526.5
L184.334 527.148
L185.004 526.5
L185.674 526.5
L186.343 526.824
L187.013 528.12
L187.682 527.796
L188.352 526.824
L189.022 528.12
L189.691 527.148
L190.361 526.5
L191.03 526.824
L193.039 525.852
L193.709 526.176
L194.378 526.824
L195.048 526.824
L195.718 527.796
L196.387 529.416
L197.057 529.416
L197.726 527.472
L198.396 526.5
L199.066 526.176
L199.735 526.176
L200.405 526.5
L201.074 525.852
L201.744 525.528
L202.414 526.176
L203.083 525.852
L203.753 526.824
L205.092 526.824
L205.762 526.176
L206.431 526.824
L207.101 527.796
L207.77 528.12
L208.44 528.768
L209.11 528.768
L209.779 529.74
L210.449 528.12
L211.118 528.12
L211.788 527.472
L213.797 527.472
L214.466 525.852
L215.136 527.472
L216.475 528.12
L217.145 527.472
L217.814 528.12
L219.154 527.472
L219.823 527.472
L220.493 527.796
L221.162 528.444
L221.832 529.416
L222.502 530.712
L223.841 530.712
L224.51 531.684
L225.18 531.36
L225.85 530.712
L226.519 531.36
L227.189 531.36
L227.858 530.064
L228.528 530.064
L229.198 529.416
L229.867 530.064
L230.537 530.064
L231.876 531.36
L232.546 530.712
L233.215 529.092
L234.554 528.444
L235.224 528.444
L235.894 529.74
L236.563 529.092
L237.233 531.036
L237.902 530.388
L238.572 530.388
L239.242 530.064
L239.911 528.768
L240.581 529.092
L241.25 529.74
L241.92 530.064
L242.59 531.036
L243.259 530.712
L243.929 531.036
L244.598 530.712
L245.268 529.416
L245.938 528.768
L246.607 529.74
L247.277 530.388
L247.946 529.416
L248.616 529.092
L249.286 528.12
L249.955 527.472
L250.625 527.472
L251.294 527.148
L251.964 528.444
L252.634 528.12
L253.303 529.416
L253.973 530.388
L254.642 530.712
L255.312 530.064
L255.982 530.388
L256.651 532.656
L257.321 532.008
L257.99 532.656
L258.66 532.98
L259.33 532.332
L259.999 532.008
L260.669 532.332
L261.338 532.98
L262.008 533.304
L262.678 533.304
L264.017 534.6
L264.686 534.276
L265.356 534.924
L266.695 535.572
L267.365 535.248
L268.034 535.248
L268.704 534.276
L269.374 534.276
L270.043 532.98
L270.713 532.008
L271.382 532.008
L272.052 531.684
L272.722 532.656
L273.391 531.684
L274.061 531.036
L274.73 531.036
L275.4 532.332
L276.07 531.036
L276.739 531.36
L277.409 532.332
L278.078 530.712
L278.748 530.712
L279.418 531.684
L280.087 532.332
L280.757 532.656
L281.426 532.332
L282.096 533.952
L282.766 532.98
L283.435 532.98
L284.105 532.008
L284.774 532.98
L285.444 532.332
L286.783 532.332
L287.453 532.008
L288.122 532.656
L288.792 532.656
L290.131 532.008
L290.801 531.036
L291.47 531.036
L292.14 531.684
L292.81 531.684
L293.479 532.656
L294.149 534.6
L294.818 534.924
L295.488 535.896
L296.158 535.896
L296.827 536.22
L297.497 536.868
L298.166 537.192
L298.836 538.488
L300.175 538.488
L300.845 537.84
L301.514 538.164
L302.184 539.46
L303.523 540.756
L304.193 540.108
L304.862 541.08
L305.532 541.728
L306.202 540.432
L308.21 540.432
L310.889 541.728
L311.558 542.376
L312.228 542.052
L312.898 543.024
L313.567 542.7
L314.906 542.7
L315.576 543.348
L316.246 543.348
L316.915 544.644
L317.585 544.644
L318.254 545.292
L318.924 546.588
L319.594 545.94
L320.263 545.616
L320.933 545.94
L321.602 545.616
L322.272 545.616
L322.942 544.968
L323.611 545.292
L324.95 545.292
L325.62 546.264
L326.29 545.616
L326.959 545.292
L327.629 544.644
L328.298 544.644
L328.968 544.32
L329.638 542.7
L330.307 542.376
L330.977 543.024
L331.646 543.024
L332.316 543.672
L332.986 543.672
L333.655 543.024
L334.325 543.996
L334.994 544.644
L336.334 545.292
L337.003 546.588
L337.673 546.912
L338.342 546.912
L339.012 547.884
L339.682 547.56
L340.351 548.532
L341.69 549.18
L343.03 549.18
L343.699 547.884
L344.369 547.56
L345.038 548.208
L345.708 549.504
L346.378 550.476
L347.717 551.124
L348.386 551.124
L349.056 552.096
L349.726 552.42
L350.395 551.448
L351.065 551.772
L351.734 552.42
L353.074 549.828
L354.413 551.124
L355.082 550.8
L355.752 549.828
L356.422 550.476
L357.091 549.504
L357.761 550.476
L358.43 550.152
L359.1 551.124
L359.77 551.448
L360.439 552.096
L361.109 550.8
L361.778 550.152
L362.448 549.828
L365.126 549.828
L365.796 550.476
L366.466 551.772
L367.135 551.448
L367.805 551.772
L368.474 551.448
L369.144 551.448
L371.822 552.744
L372.492 552.42
L373.162 552.744
L374.501 552.744
L375.17 552.42
L375.84 551.772
L376.51 551.772
L377.179 552.096
L377.849 552.096
L378.518 553.392
L379.188 553.392
L379.858 554.04
L380.527 554.364
L381.197 554.04
L382.536 555.984
L383.206 555.984
L383.875 555.66
L385.214 556.308
L385.884 557.28
L386.554 556.632
L387.893 557.928
L388.562 557.928
L389.232 558.252
L389.902 558.252
L390.571 558.9
L391.241 559.224
L392.58 560.52
L393.919 560.52
L394.589 561.492
L395.258 561.816
L395.928 563.112
L396.598 563.436
L397.267 563.112
L397.937 563.436
L398.606 562.788
L399.276 563.112
L400.615 562.464
L401.285 562.788
L401.954 562.464
L403.294 563.76
L404.633 563.112
L405.302 564.084
L405.972 564.084
L406.642 564.408
L407.311 564.408
L407.981 564.732
L408.65 564.408
L410.659 565.38
L411.329 564.732
L411.998 565.704
L412.668 565.056
L413.338 565.056
L414.007 565.704
L414.677 566.028
L416.016 566.028
L416.686 566.352
L417.355 566.028
L418.025 566.676
L420.703 564.084
L421.373 564.084
L422.042 564.732
L422.712 564.732
L423.382 565.38
L424.051 565.056
L424.721 565.056
L425.39 564.408
L426.06 564.408
L427.399 563.76
L428.738 563.76
L430.078 564.408
L430.747 565.056
L431.417 566.028
L432.086 565.056
L432.756 565.38
L433.426 565.056
L434.095 565.056
L434.765 565.38
L436.774 565.38
L437.443 564.732
L438.782 565.38
L439.452 564.732
L441.461 564.732
L442.13 565.056
L443.47 565.056
L444.139 564.408
L444.809 562.788
L445.478 549.828
L446.148 530.388
L447.487 463.644
L448.157 417.636
L448.826 380.376
L450.166 330.804
L451.505 280.908
L452.174 277.02
L452.844 289.332
L453.514 276.048
L454.183 289.656
L454.853 290.952
L455.522 287.064
L456.192 323.352
L456.862 330.804
L458.201 375.84
L458.87 373.572
L459.54 382.32
L460.21 396.252
L460.879 396.252
L461.549 416.664
L462.218 420.228
L462.888 420.552
L463.558 416.664
L464.227 432.54
L464.897 439.668
L465.566 434.16
L466.236 427.032
L466.906 428.004
L468.245 446.796
L468.914 435.456
L469.584 442.26
L470.254 452.952
L470.923 439.992
L471.593 429.624
L472.262 438.372
L472.932 439.02
L474.271 429.948
L475.61 420.228
L476.28 422.496
L476.95 426.06
L478.289 421.848
L478.958 422.496
L479.628 431.244
L480.298 422.82
L480.967 428.652
L481.637 424.764
L482.306 415.368
L482.976 424.116
L483.646 422.172
L484.315 412.128
L484.985 405
L485.654 410.184
L486.324 407.916
L486.994 388.152
L488.333 388.8
L489.002 384.588
L489.672 387.18
L490.342 387.828
L491.011 387.504
L491.681 383.616
L492.35 378.108
L493.02 379.08
L493.69 367.092
L494.359 362.88
L495.029 366.768
L495.698 359.64
L496.368 361.908
L497.038 358.668
L497.707 356.076
L498.377 361.908
L499.046 363.204
L500.386 353.484
L501.055 344.736
L501.725 341.82
L502.394 344.412
L503.064 337.608
L503.734 345.708
L504.403 331.776
L505.073 330.156
L505.742 337.284
L506.412 337.608
L507.082 332.748
L508.421 339.876
L509.09 351.216
L509.76 346.68
L510.43 325.944
L511.099 324.324
L511.769 321.732
L512.438 324.648
L513.108 329.508
L513.778 335.988
L514.447 331.128
L515.786 326.268
L516.456 324.972
L517.126 330.804
L518.465 334.368
L519.134 332.748
L519.804 328.212
L520.474 331.128
L521.143 340.848
L522.482 330.156
L523.152 335.988
L523.822 330.804
L524.491 323.352
L525.161 329.508
L525.83 317.196
L526.5 318.816
L527.17 319.788
L527.839 324.648
L528.509 333.072
L529.178 332.424
L529.848 323.676
L530.518 316.548
L531.187 312.66
L531.857 321.084
L533.196 330.156
L533.866 314.28
L534.535 324.972
L535.205 323.352
L537.214 308.448
L537.883 308.124
L538.553 328.536
L539.222 316.872
L539.892 321.732
L540.562 318.816
L541.901 308.448
L542.57 308.772
L543.24 308.772
L543.91 308.124
L544.579 312.012
L545.249 312.336
L545.918 311.688
L546.588 310.716
L547.258 316.548
L547.927 306.828
L548.597 295.164
L549.266 280.26
L549.936 286.416
L550.606 277.668
L551.275 275.4
L551.945 281.232
L552.614 278.964
L553.284 283.824
L553.954 281.556
L554.623 280.584
L555.293 279.288
L555.962 282.852
L556.632 280.584
L557.302 276.372
L557.971 267.3
L558.641 269.244
L559.98 279.612
L561.319 281.556
L561.989 271.512
L562.658 264.708
L563.328 279.936
L563.998 283.824
L564.667 281.88
L565.337 277.668
L566.006 269.892
L566.676 268.92
L567.346 268.596
L568.015 266.976
L568.685 274.752
L569.354 278.64
L570.024 281.232
L570.694 266.976
L571.363 273.132
L572.033 276.696
L572.702 261.792
L573.372 267.3
L574.042 267.948
L574.711 275.4
L575.381 267.624
L576.05 271.512
L576.72 266.652
L577.39 271.836
L578.059 281.556
L578.729 268.596
L580.068 257.256
L580.738 257.904
L581.407 266.652
L582.077 272.808
L582.746 270.216
L583.416 261.144
L584.086 264.384
L585.425 256.608
L586.094 258.228
L586.764 259.524
L587.434 257.58
L588.103 258.876
L588.773 246.888
L589.442 244.944
L590.112 249.48
L590.782 243.648
L591.451 243.324
L592.121 236.196
L592.79 250.776
L593.46 256.608
L594.13 253.692
L594.799 253.692
L595.469 248.184
L596.138 254.664
L596.808 240.084
L597.478 240.084
L598.817 239.436
L599.486 239.76
L600.156 238.464
L600.826 240.732
L601.495 240.408
L602.165 235.224
L602.834 233.928
L603.504 236.52
L604.174 236.52
L604.843 224.856
L605.513 219.996
L606.182 225.504
L606.852 221.94
L607.522 226.8
L608.191 226.476
L608.861 218.376
L609.53 220.644
L610.2 210.924
L611.539 200.556
L612.209 209.628
L612.878 205.74
L613.548 208.98
L614.887 212.544
L615.557 211.248
L616.226 210.276
L616.896 204.768
L617.566 205.416
L618.235 208.98
L618.905 209.628
L620.914 191.808
L621.583 196.02
L622.922 189.54
L623.592 183.06
L624.262 184.356
L624.931 180.144
L625.601 185.328
L626.27 187.596
L626.94 180.144
L627.61 175.284
L628.279 165.564
L628.949 175.932
L629.618 163.944
L630.288 171.396
L630.958 171.396
L631.627 169.128
L632.297 181.764
L632.966 185.328
L633.636 185.004
L634.306 191.808
L634.975 177.876
L635.645 171.396
L636.314 170.748
L636.984 170.424
L637.654 177.552
L638.323 182.736
L638.993 184.032
L639.662 186.624
L640.332 186.624
L641.002 189.54
L641.671 183.06
L642.341 179.82
L643.01 169.452
L643.68 171.72
L644.35 173.34
L645.019 165.564
L645.689 172.692
L646.358 170.424
L647.698 169.128
L648.367 164.268
L649.037 164.268
L650.376 155.52
L651.046 159.084
L651.715 156.492
L652.385 162.972
L653.054 158.436
L653.724 158.112
L654.394 160.38
L655.063 163.296
L655.733 171.072
L656.402 161.352
L657.072 162.324
L657.742 162.648
L658.411 158.112
L659.081 159.084
L659.75 167.184
L660.42 172.044
L661.09 168.804
L661.759 172.692
L662.429 171.396
L663.098 165.888
L663.768 154.872
L664.438 152.604
L665.107 156.492
L665.777 162.324
L666.446 159.408
L667.116 165.564
L667.786 164.916
L668.455 166.86
L669.125 166.536
L669.794 175.932
L670.464 165.24
L671.134 158.436
L671.803 159.408
L672.473 167.508
L673.142 164.592
L673.812 170.1
L674.482 162.648
L675.151 162.324
L675.821 156.168
L676.49 159.084
L677.16 163.62
L677.83 167.184
L679.169 162.324
L679.838 161.352
L680.508 157.464
L681.178 155.52
L681.847 154.548
L682.517 154.872
L683.186 156.492
L683.856 155.196
L684.526 157.464
L685.195 154.224
L685.865 157.464
L687.204 147.42
L687.874 146.448
L688.543 146.448
L689.213 140.616
L689.882 140.292
L690.552 136.404
L691.222 139.32
L691.891 131.22
L692.561 138.672
L693.23 138.672
L693.9 136.404
L694.57 135.432
L695.239 135.108
L695.909 131.868
L696.578 133.164
L697.248 135.108
L697.918 133.164
L698.587 135.756
L699.257 137.376
L699.926 130.248
L700.596 135.756
L701.266 134.136
L701.935 141.912
L702.605 141.264
L703.274 145.152
L703.944 144.828
L704.614 135.756
L705.283 143.208
L705.953 141.264
L706.622 147.744
L707.292 146.448
L707.962 148.392
L708.631 148.392
L709.301 142.884
L709.97 135.432
L710.64 137.376
L711.31 129.276
L712.649 140.94
L713.318 141.264
L713.988 136.08
L714.658 134.46
L715.327 134.46
L715.997 138.024
L716.666 137.052
L717.336 135.756
L718.006 138.348
L718.675 138.672
L719.345 133.812
L720.014 138.996
L720.684 139.32
L721.354 143.532
L722.023 144.828
L722.693 146.448
L723.362 147.096
L724.032 146.772
L724.702 149.364
L725.371 140.94
L726.041 143.208
L726.71 139.968
L728.05 148.392
L728.719 141.588
L729.389 144.504
L730.058 142.884
L730.728 138.024
L732.067 151.632
L732.737 144.504
L733.406 144.828
L734.076 149.04
L734.746 151.956
L735.415 154.224
L736.085 157.464
L736.754 161.352
L737.424 160.056
L738.094 167.832
L738.763 168.156
L739.433 166.212
L740.102 166.212
L740.772 168.156
L742.111 170.748
L742.781 171.72
L743.45 175.932
L744.12 173.664
L744.79 176.256
L745.459 174.96
L746.129 183.384
L746.798 180.144
L747.468 183.384
L748.138 183.384
L748.807 187.272
L749.477 182.736
L750.146 184.356
L750.816 181.116
L751.486 183.06
L752.155 182.088
L752.825 183.384
L753.494 185.004
L754.164 185.652
L754.834 186.624
L755.503 184.356
L756.173 181.116
L757.512 189.54
L758.182 192.78
L758.851 187.92
L759.521 194.076
L760.19 193.104
L760.86 198.612
L761.53 196.344
L762.199 196.344
L762.869 198.288
L763.538 202.5
L764.208 202.176
L764.878 203.796
L765.547 205.74
L766.217 211.248
L766.886 209.628
L767.556 210.6
L768.226 210.6
L768.895 209.952
L769.565 210.276
L770.234 210.924
L770.904 214.488
L771.574 216.756
L772.243 215.46
L772.913 218.052
L773.582 215.784
L774.252 217.08
L774.922 214.164
L775.591 213.192
L776.261 215.136
L776.93 215.784
L777.6 217.08
L777.6 217.08" style="fill:none;stroke:#0000ff;stroke-linecap:square;"/>
   </g>
   <g id="patch_3">
    <path d="
M777.6 583.2
L777.6 64.8" style="fill:none;stroke:#000000;stroke-linecap:square;stroke-linejoin:miter;"/>
   </g>
   <g id="patch_4">
    <path d="
M108 583.2
L777.6 583.2" style="fill:none;stroke:#000000;stroke-linecap:square;stroke-linejoin:miter;"/>
   </g>
   <g id="patch_5">
    <path d="
M108 583.2
L108 64.8" style="fill:none;stroke:#000000;stroke-linecap:square;stroke-linejoin:miter;"/>
   </g>
   <g id="patch_6">
    <path d="
M108 64.8
L777.6 64.8" style="fill:none;stroke:#000000;stroke-linecap:square;stroke-linejoin:miter;"/>
   </g>
   <g id="matplotlib.axis_1">
    <g id="xtick_1">
     <g id="line2d_4">
      <defs>
       <path d="
M0 0
L0 -4" id="mc7db9fdffb" style="stroke:#000000;stroke-width:0.5;"/>
      </defs>
      <g>
       <use style="stroke:#000000;stroke-width:0.5;" x="108.0" xlink:href="#mc7db9fdffb" y="583.2"/>
      </g>
     </g>
     <g id="line2d_5">
      <defs>
       <path d="
M0 0
L0 4" id="m5a7d422ac3" style="stroke:#000000;stroke-width:0.5;"/>
      </defs>
      <g>
       <use style="stroke:#000000;stroke-width:0.5;" x="108.0" xlink:href="#m5a7d422ac3" y="64.8"/>
      </g>
     </g>
     <g id="text_1">
      <!-- 0 -->
      <defs>
       <path d="
M31.7812 66.4062
Q24.1719 66.4062 20.3281 58.9062
Q16.5 51.4219 16.5 36.375
Q16.5 21.3906 20.3281 13.8906
Q24.1719 6.39062 31.7812 6.39062
Q39.4531 6.39062 43.2812 13.8906
Q47.125 21.3906 47.125 36.375
Q47.125 51.4219 43.2812 58.9062
Q39.4531 66.4062 31.7812 66.4062
M31.7812 74.2188
Q44.0469 74.2188 50.5156 64.5156
Q56.9844 54.8281 56.9844 36.375
Q56.9844 17.9688 50.5156 8.26562
Q44.0469 -1.42188 31.7812 -1.42188
Q19.5312 -1.42188 13.0625 8.26562
Q6.59375 17.9688 6.59375 36.375
Q6.59375 54.8281 13.0625 64.5156
Q19.5312 74.2188 31.7812 74.2188" id="BitstreamVeraSans-Roman-30"/>
      </defs>
      <g transform="translate(104.9765625 596.318125)scale(0.12 -0.12)">
       <use xlink:href="#BitstreamVeraSans-Roman-30"/>
      </g>
     </g>
    </g>
    <g id="xtick_2">
     <g id="line2d_6">
      <g>
       <use style="stroke:#000000;stroke-width:0.5;" x="275.4" xlink:href="#mc7db9fdffb" y="583.2"/>
      </g>
     </g>
     <g id="line2d_7">
      <g>
       <use style="stroke:#000000;stroke-width:0.5;" x="275.4" xlink:href="#m5a7d422ac3" y="64.8"/>
      </g>
     </g>
     <g id="text_2">
      <!-- 50000 -->
      <defs>
       <path d="
M10.7969 72.9062
L49.5156 72.9062
L49.5156 64.5938
L19.8281 64.5938
L19.8281 46.7344
Q21.9688 47.4688 24.1094 47.8281
Q26.2656 48.1875 28.4219 48.1875
Q40.625 48.1875 47.75 41.5
Q54.8906 34.8125 54.8906 23.3906
Q54.8906 11.625 47.5625 5.09375
Q40.2344 -1.42188 26.9062 -1.42188
Q22.3125 -1.42188 17.5469 -0.640625
Q12.7969 0.140625 7.71875 1.70312
L7.71875 11.625
Q12.1094 9.23438 16.7969 8.0625
Q21.4844 6.89062 26.7031 6.89062
Q35.1562 6.89062 40.0781 11.3281
Q45.0156 15.7656 45.0156 23.3906
Q45.0156 31 40.0781 35.4375
Q35.1562 39.8906 26.7031 39.8906
Q22.75 39.8906 18.8125 39.0156
Q14.8906 38.1406 10.7969 36.2812
z
" id="BitstreamVeraSans-Roman-35"/>
      </defs>
      <g transform="translate(257.1740625 596.318125)scale(0.12 -0.12)">
       <use xlink:href="#BitstreamVeraSans-Roman-35"/>
       <use x="63.623046875" xlink:href="#BitstreamVeraSans-Roman-30"/>
       <use x="127.24609375" xlink:href="#BitstreamVeraSans-Roman-30"/>
       <use x="190.869140625" xlink:href="#BitstreamVeraSans-Roman-30"/>
       <use x="254.4921875" xlink:href="#BitstreamVeraSans-Roman-30"/>
      </g>
     </g>
    </g>
    <g id="xtick_3">
     <g id="line2d_8">
      <g>
       <use style="stroke:#000000;stroke-width:0.5;" x="442.8" xlink:href="#mc7db9fdffb" y="583.2"/>
      </g>
     </g>
     <g id="line2d_9">
      <g>
       <use style="stroke:#000000;stroke-width:0.5;" x="442.8" xlink:href="#m5a7d422ac3" y="64.8"/>
      </g>
     </g>
     <g id="text_3">
      <!-- 100000 -->
      <defs>
       <path d="
M12.4062 8.29688
L28.5156 8.29688
L28.5156 63.9219
L10.9844 60.4062
L10.9844 69.3906
L28.4219 72.9062
L38.2812 72.9062
L38.2812 8.29688
L54.3906 8.29688
L54.3906 0
L12.4062 0
z
" id="BitstreamVeraSans-Roman-31"/>
      </defs>
      <g transform="translate(420.9525 596.318125)scale(0.12 -0.12)">
       <use xlink:href="#BitstreamVeraSans-Roman-31"/>
       <use x="63.623046875" xlink:href="#BitstreamVeraSans-Roman-30"/>
       <use x="127.24609375" xlink:href="#BitstreamVeraSans-Roman-30"/>
       <use x="190.869140625" xlink:href="#BitstreamVeraSans-Roman-30"/>
       <use x="254.4921875" xlink:href="#BitstreamVeraSans-Roman-30"/>
       <use x="318.115234375" xlink:href="#BitstreamVeraSans-Roman-30"/>
      </g>
     </g>
    </g>
    <g id="xtick_4">
     <g id="line2d_10">
      <g>
       <use style="stroke:#000000;stroke-width:0.5;" x="610.2" xlink:href="#mc7db9fdffb" y="583.2"/>
      </g>
     </g>
     <g id="line2d_11">
      <g>
       <use style="stroke:#000000;stroke-width:0.5;" x="610.2" xlink:href="#m5a7d422ac3" y="64.8"/>
      </g>
     </g>
     <g id="text_4">
      <!-- 150000 -->
      <g transform="translate(588.3525 596.318125)scale(0.12 -0.12)">
       <use xlink:href="#BitstreamVeraSans-Roman-31"/>
       <use x="63.623046875" xlink:href="#BitstreamVeraSans-Roman-35"/>
       <use x="127.24609375" xlink:href="#BitstreamVeraSans-Roman-30"/>
       <use x="190.869140625" xlink:href="#BitstreamVeraSans-Roman-30"/>
       <use x="254.4921875" xlink:href="#BitstreamVeraSans-Roman-30"/>
       <use x="318.115234375" xlink:href="#BitstreamVeraSans-Roman-30"/>
      </g>
     </g>
    </g>
    <g id="xtick_5">
     <g id="line2d_12">
      <g>
       <use style="stroke:#000000;stroke-width:0.5;" x="777.6" xlink:href="#mc7db9fdffb" y="583.2"/>
      </g>
     </g>
     <g id="line2d_13">
      <g>
       <use style="stroke:#000000;stroke-width:0.5;" x="777.6" xlink:href="#m5a7d422ac3" y="64.8"/>
      </g>
     </g>
     <g id="text_5">
      <!-- 200000 -->
      <defs>
       <path d="
M19.1875 8.29688
L53.6094 8.29688
L53.6094 0
L7.32812 0
L7.32812 8.29688
Q12.9375 14.1094 22.625 23.8906
Q32.3281 33.6875 34.8125 36.5312
Q39.5469 41.8438 41.4219 45.5312
Q43.3125 49.2188 43.3125 52.7812
Q43.3125 58.5938 39.2344 62.25
Q35.1562 65.9219 28.6094 65.9219
Q23.9688 65.9219 18.8125 64.3125
Q13.6719 62.7031 7.8125 59.4219
L7.8125 69.3906
Q13.7656 71.7812 18.9375 73
Q24.125 74.2188 28.4219 74.2188
Q39.75 74.2188 46.4844 68.5469
Q53.2188 62.8906 53.2188 53.4219
Q53.2188 48.9219 51.5312 44.8906
Q49.8594 40.875 45.4062 35.4062
Q44.1875 33.9844 37.6406 27.2188
Q31.1094 20.4531 19.1875 8.29688" id="BitstreamVeraSans-Roman-32"/>
      </defs>
      <g transform="translate(755.533125 596.318125)scale(0.12 -0.12)">
       <use xlink:href="#BitstreamVeraSans-Roman-32"/>
       <use x="63.623046875" xlink:href="#BitstreamVeraSans-Roman-30"/>
       <use x="127.24609375" xlink:href="#BitstreamVeraSans-Roman-30"/>
       <use x="190.869140625" xlink:href="#BitstreamVeraSans-Roman-30"/>
       <use x="254.4921875" xlink:href="#BitstreamVeraSans-Roman-30"/>
       <use x="318.115234375" xlink:href="#BitstreamVeraSans-Roman-30"/>
      </g>
     </g>
    </g>
    <g id="text_6">
     <!-- t / ms -->
     <defs>
      <path d="
M25.3906 72.9062
L33.6875 72.9062
L8.29688 -9.28125
L0 -9.28125
z
" id="BitstreamVeraSans-Roman-2f"/>
      <path d="
M52 44.1875
Q55.375 50.25 60.0625 53.125
Q64.75 56 71.0938 56
Q79.6406 56 84.2812 50.0156
Q88.9219 44.0469 88.9219 33.0156
L88.9219 0
L79.8906 0
L79.8906 32.7188
Q79.8906 40.5781 77.0938 44.375
Q74.3125 48.1875 68.6094 48.1875
Q61.625 48.1875 57.5625 43.5469
Q53.5156 38.9219 53.5156 30.9062
L53.5156 0
L44.4844 0
L44.4844 32.7188
Q44.4844 40.625 41.7031 44.4062
Q38.9219 48.1875 33.1094 48.1875
Q26.2188 48.1875 22.1562 43.5312
Q18.1094 38.875 18.1094 30.9062
L18.1094 0
L9.07812 0
L9.07812 54.6875
L18.1094 54.6875
L18.1094 46.1875
Q21.1875 51.2188 25.4844 53.6094
Q29.7812 56 35.6875 56
Q41.6562 56 45.8281 52.9688
Q50 49.9531 52 44.1875" id="BitstreamVeraSans-Roman-6d"/>
      <path d="
M44.2812 53.0781
L44.2812 44.5781
Q40.4844 46.5312 36.375 47.5
Q32.2812 48.4844 27.875 48.4844
Q21.1875 48.4844 17.8438 46.4375
Q14.5 44.3906 14.5 40.2812
Q14.5 37.1562 16.8906 35.375
Q19.2812 33.5938 26.5156 31.9844
L29.5938 31.2969
Q39.1562 29.25 43.1875 25.5156
Q47.2188 21.7812 47.2188 15.0938
Q47.2188 7.46875 41.1875 3.01562
Q35.1562 -1.42188 24.6094 -1.42188
Q20.2188 -1.42188 15.4531 -0.5625
Q10.6875 0.296875 5.42188 2
L5.42188 11.2812
Q10.4062 8.6875 15.2344 7.39062
Q20.0625 6.10938 24.8125 6.10938
Q31.1562 6.10938 34.5625 8.28125
Q37.9844 10.4531 37.9844 14.4062
Q37.9844 18.0625 35.5156 20.0156
Q33.0625 21.9688 24.7031 23.7812
L21.5781 24.5156
Q13.2344 26.2656 9.51562 29.9062
Q5.8125 33.5469 5.8125 39.8906
Q5.8125 47.6094 11.2812 51.7969
Q16.75 56 26.8125 56
Q31.7812 56 36.1719 55.2656
Q40.5781 54.5469 44.2812 53.0781" id="BitstreamVeraSans-Roman-73"/>
      <path id="BitstreamVeraSans-Roman-20"/>
      <path d="
M18.3125 70.2188
L18.3125 54.6875
L36.8125 54.6875
L36.8125 47.7031
L18.3125 47.7031
L18.3125 18.0156
Q18.3125 11.3281 20.1406 9.42188
Q21.9688 7.51562 27.5938 7.51562
L36.8125 7.51562
L36.8125 0
L27.5938 0
Q17.1875 0 13.2344 3.875
Q9.28125 7.76562 9.28125 18.0156
L9.28125 47.7031
L2.6875 47.7031
L2.6875 54.6875
L9.28125 54.6875
L9.28125 70.2188
z
" id="BitstreamVeraSans-Roman-74"/>
     </defs>
     <g transform="translate(425.9353125 612.931875)scale(0.12 -0.12)">
      <use xlink:href="#BitstreamVeraSans-Roman-74"/>
      <use x="39.208984375" xlink:href="#BitstreamVeraSans-Roman-20"/>
      <use x="70.99609375" xlink:href="#BitstreamVeraSans-Roman-2f"/>
      <use x="104.6875" xlink:href="#BitstreamVeraSans-Roman-20"/>
      <use x="136.474609375" xlink:href="#BitstreamVeraSans-Roman-6d"/>
      <use x="233.88671875" xlink:href="#BitstreamVeraSans-Roman-73"/>
     </g>
    </g>
   </g>
   <g id="matplotlib.axis_2">
    <g id="ytick_1">
     <g id="line2d_14">
      <defs>
       <path d="
M0 0
L4 0" id="md7965d1ba0" style="stroke:#000000;stroke-width:0.5;"/>
      </defs>
      <g>
       <use style="stroke:#000000;stroke-width:0.5;" x="108.0" xlink:href="#md7965d1ba0" y="583.2"/>
      </g>
     </g>
     <g id="line2d_15">
      <defs>
       <path d="
M0 0
L-4 0" id="md9a1c1a7cd" style="stroke:#000000;stroke-width:0.5;"/>
      </defs>
      <g>
       <use style="stroke:#000000;stroke-width:0.5;" x="777.6" xlink:href="#md9a1c1a7cd" y="583.2"/>
      </g>
     </g>
     <g id="text_7">
      <!-- 0 -->
      <g transform="translate(97.953125 586.51125)scale(0.12 -0.12)">
       <use xlink:href="#BitstreamVeraSans-Roman-30"/>
      </g>
     </g>
    </g>
    <g id="ytick_2">
     <g id="line2d_16">
      <g>
       <use style="stroke:#000000;stroke-width:0.5;" x="108.0" xlink:href="#md7965d1ba0" y="518.4"/>
      </g>
     </g>
     <g id="line2d_17">
      <g>
       <use style="stroke:#000000;stroke-width:0.5;" x="777.6" xlink:href="#md9a1c1a7cd" y="518.4"/>
      </g>
     </g>
     <g id="text_8">
      <!-- 200 -->
      <g transform="translate(82.77125 521.71125)scale(0.12 -0.12)">
       <use xlink:href="#BitstreamVeraSans-Roman-32"/>
       <use x="63.623046875" xlink:href="#BitstreamVeraSans-Roman-30"/>
       <use x="127.24609375" xlink:href="#BitstreamVeraSans-Roman-30"/>
      </g>
     </g>
    </g>
    <g id="ytick_3">
     <g id="line2d_18">
      <g>
       <use style="stroke:#000000;stroke-width:0.5;" x="108.0" xlink:href="#md7965d1ba0" y="453.6"/>
      </g>
     </g>
     <g id="line2d_19">
      <g>
       <use style="stroke:#000000;stroke-width:0.5;" x="777.6" xlink:href="#md9a1c1a7cd" y="453.6"/>
      </g>
     </g>
     <g id="text_9">
      <!-- 400 -->
      <defs>
       <path d="
M37.7969 64.3125
L12.8906 25.3906
L37.7969 25.3906
z

M35.2031 72.9062
L47.6094 72.9062
L47.6094 25.3906
L58.0156 25.3906
L58.0156 17.1875
L47.6094 17.1875
L47.6094 0
L37.7969 0
L37.7969 17.1875
L4.89062 17.1875
L4.89062 26.7031
z
" id="BitstreamVeraSans-Roman-34"/>
      </defs>
      <g transform="translate(82.47875 456.91125)scale(0.12 -0.12)">
       <use xlink:href="#BitstreamVeraSans-Roman-34"/>
       <use x="63.623046875" xlink:href="#BitstreamVeraSans-Roman-30"/>
       <use x="127.24609375" xlink:href="#BitstreamVeraSans-Roman-30"/>
      </g>
     </g>
    </g>
    <g id="ytick_4">
     <g id="line2d_20">
      <g>
       <use style="stroke:#000000;stroke-width:0.5;" x="108.0" xlink:href="#md7965d1ba0" y="388.8"/>
      </g>
     </g>
     <g id="line2d_21">
      <g>
       <use style="stroke:#000000;stroke-width:0.5;" x="777.6" xlink:href="#md9a1c1a7cd" y="388.8"/>
      </g>
     </g>
     <g id="text_10">
      <!-- 600 -->
      <defs>
       <path d="
M33.0156 40.375
Q26.375 40.375 22.4844 35.8281
Q18.6094 31.2969 18.6094 23.3906
Q18.6094 15.5312 22.4844 10.9531
Q26.375 6.39062 33.0156 6.39062
Q39.6562 6.39062 43.5312 10.9531
Q47.4062 15.5312 47.4062 23.3906
Q47.4062 31.2969 43.5312 35.8281
Q39.6562 40.375 33.0156 40.375
M52.5938 71.2969
L52.5938 62.3125
Q48.875 64.0625 45.0938 64.9844
Q41.3125 65.9219 37.5938 65.9219
Q27.8281 65.9219 22.6719 59.3281
Q17.5312 52.7344 16.7969 39.4062
Q19.6719 43.6562 24.0156 45.9219
Q28.375 48.1875 33.5938 48.1875
Q44.5781 48.1875 50.9531 41.5156
Q57.3281 34.8594 57.3281 23.3906
Q57.3281 12.1562 50.6875 5.35938
Q44.0469 -1.42188 33.0156 -1.42188
Q20.3594 -1.42188 13.6719 8.26562
Q6.98438 17.9688 6.98438 36.375
Q6.98438 53.6562 15.1875 63.9375
Q23.3906 74.2188 37.2031 74.2188
Q40.9219 74.2188 44.7031 73.4844
Q48.4844 72.75 52.5938 71.2969" id="BitstreamVeraSans-Roman-36"/>
      </defs>
      <g transform="translate(82.73 392.11125)scale(0.12 -0.12)">
       <use xlink:href="#BitstreamVeraSans-Roman-36"/>
       <use x="63.623046875" xlink:href="#BitstreamVeraSans-Roman-30"/>
       <use x="127.24609375" xlink:href="#BitstreamVeraSans-Roman-30"/>
      </g>
     </g>
    </g>
    <g id="ytick_5">
     <g id="line2d_22">
      <g>
       <use style="stroke:#000000;stroke-width:0.5;" x="108.0" xlink:href="#md7965d1ba0" y="324.0"/>
      </g>
     </g>
     <g id="line2d_23">
      <g>
       <use style="stroke:#000000;stroke-width:0.5;" x="777.6" xlink:href="#md9a1c1a7cd" y="324.0"/>
      </g>
     </g>
     <g id="text_11">
      <!-- 800 -->
      <defs>
       <path d="
M31.7812 34.625
Q24.75 34.625 20.7188 30.8594
Q16.7031 27.0938 16.7031 20.5156
Q16.7031 13.9219 20.7188 10.1562
Q24.75 6.39062 31.7812 6.39062
Q38.8125 6.39062 42.8594 10.1719
Q46.9219 13.9688 46.9219 20.5156
Q46.9219 27.0938 42.8906 30.8594
Q38.875 34.625 31.7812 34.625
M21.9219 38.8125
Q15.5781 40.375 12.0312 44.7188
Q8.5 49.0781 8.5 55.3281
Q8.5 64.0625 14.7188 69.1406
Q20.9531 74.2188 31.7812 74.2188
Q42.6719 74.2188 48.875 69.1406
Q55.0781 64.0625 55.0781 55.3281
Q55.0781 49.0781 51.5312 44.7188
Q48 40.375 41.7031 38.8125
Q48.8281 37.1562 52.7969 32.3125
Q56.7812 27.4844 56.7812 20.5156
Q56.7812 9.90625 50.3125 4.23438
Q43.8438 -1.42188 31.7812 -1.42188
Q19.7344 -1.42188 13.25 4.23438
Q6.78125 9.90625 6.78125 20.5156
Q6.78125 27.4844 10.7812 32.3125
Q14.7969 37.1562 21.9219 38.8125
M18.3125 54.3906
Q18.3125 48.7344 21.8438 45.5625
Q25.3906 42.3906 31.7812 42.3906
Q38.1406 42.3906 41.7188 45.5625
Q45.3125 48.7344 45.3125 54.3906
Q45.3125 60.0625 41.7188 63.2344
Q38.1406 66.4062 31.7812 66.4062
Q25.3906 66.4062 21.8438 63.2344
Q18.3125 60.0625 18.3125 54.3906" id="BitstreamVeraSans-Roman-38"/>
      </defs>
      <g transform="translate(82.705625 327.31125)scale(0.12 -0.12)">
       <use xlink:href="#BitstreamVeraSans-Roman-38"/>
       <use x="63.623046875" xlink:href="#BitstreamVeraSans-Roman-30"/>
       <use x="127.24609375" xlink:href="#BitstreamVeraSans-Roman-30"/>
      </g>
     </g>
    </g>
    <g id="ytick_6">
     <g id="line2d_24">
      <g>
       <use style="stroke:#000000;stroke-width:0.5;" x="108.0" xlink:href="#md7965d1ba0" y="259.2"/>
      </g>
     </g>
     <g id="line2d_25">
      <g>
       <use style="stroke:#000000;stroke-width:0.5;" x="777.6" xlink:href="#md9a1c1a7cd" y="259.2"/>
      </g>
     </g>
     <g id="text_12">
      <!-- 1000 -->
      <g transform="translate(75.575 262.51125)scale(0.12 -0.12)">
       <use xlink:href="#BitstreamVeraSans-Roman-31"/>
       <use x="63.623046875" xlink:href="#BitstreamVeraSans-Roman-30"/>
       <use x="127.24609375" xlink:href="#BitstreamVeraSans-Roman-30"/>
       <use x="190.869140625" xlink:href="#BitstreamVeraSans-Roman-30"/>
      </g>
     </g>
    </g>
    <g id="ytick_7">
     <g id="line2d_26">
      <g>
       <use style="stroke:#000000;stroke-width:0.5;" x="108.0" xlink:href="#md7965d1ba0" y="194.4"/>
      </g>
     </g>
     <g id="line2d_27">
      <g>
       <use style="stroke:#000000;stroke-width:0.5;" x="777.6" xlink:href="#md9a1c1a7cd" y="194.4"/>
      </g>
     </g>
     <g id="text_13">
      <!-- 1200 -->
      <g transform="translate(75.575 197.71125)scale(0.12 -0.12)">
       <use xlink:href="#BitstreamVeraSans-Roman-31"/>
       <use x="63.623046875" xlink:href="#BitstreamVeraSans-Roman-32"/>
       <use x="127.24609375" xlink:href="#BitstreamVeraSans-Roman-30"/>
       <use x="190.869140625" xlink:href="#BitstreamVeraSans-Roman-30"/>
      </g>
     </g>
    </g>
    <g id="ytick_8">
     <g id="line2d_28">
      <g>
       <use style="stroke:#000000;stroke-width:0.5;" x="108.0" xlink:href="#md7965d1ba0" y="129.6"/>
      </g>
     </g>
     <g id="line2d_29">
      <g>
       <use style="stroke:#000000;stroke-width:0.5;" x="777.6" xlink:href="#md9a1c1a7cd" y="129.6"/>
      </g>
     </g>
     <g id="text_14">
      <!-- 1400 -->
      <g transform="translate(75.575 132.91125)scale(0.12 -0.12)">
       <use xlink:href="#BitstreamVeraSans-Roman-31"/>
       <use x="63.623046875" xlink:href="#BitstreamVeraSans-Roman-34"/>
       <use x="127.24609375" xlink:href="#BitstreamVeraSans-Roman-30"/>
       <use x="190.869140625" xlink:href="#BitstreamVeraSans-Roman-30"/>
      </g>
     </g>
    </g>
    <g id="ytick_9">
     <g id="line2d_30">
      <g>
       <use style="stroke:#000000;stroke-width:0.5;" x="108.0" xlink:href="#md7965d1ba0" y="64.8"/>
      </g>
     </g>
     <g id="line2d_31">
      <g>
       <use style="stroke:#000000;stroke-width:0.5;" x="777.6" xlink:href="#md9a1c1a7cd" y="64.8"/>
      </g>
     </g>
     <g id="text_15">
      <!-- 1600 -->
      <g transform="translate(75.575 68.11125)scale(0.12 -0.12)">
       <use xlink:href="#BitstreamVeraSans-Roman-31"/>
       <use x="63.623046875" xlink:href="#BitstreamVeraSans-Roman-36"/>
       <use x="127.24609375" xlink:href="#BitstreamVeraSans-Roman-30"/>
       <use x="190.869140625" xlink:href="#BitstreamVeraSans-Roman-30"/>
      </g>
     </g>
    </g>
    <g id="text_16">
     <!-- particle numbers -->
     <defs>
      <path d="
M48.6875 27.2969
Q48.6875 37.2031 44.6094 42.8438
Q40.5312 48.4844 33.4062 48.4844
Q26.2656 48.4844 22.1875 42.8438
Q18.1094 37.2031 18.1094 27.2969
Q18.1094 17.3906 22.1875 11.75
Q26.2656 6.10938 33.4062 6.10938
Q40.5312 6.10938 44.6094 11.75
Q48.6875 17.3906 48.6875 27.2969
M18.1094 46.3906
Q20.9531 51.2656 25.2656 53.625
Q29.5938 56 35.5938 56
Q45.5625 56 51.7812 48.0938
Q58.0156 40.1875 58.0156 27.2969
Q58.0156 14.4062 51.7812 6.48438
Q45.5625 -1.42188 35.5938 -1.42188
Q29.5938 -1.42188 25.2656 0.953125
Q20.9531 3.32812 18.1094 8.20312
L18.1094 0
L9.07812 0
L9.07812 75.9844
L18.1094 75.9844
z
" id="BitstreamVeraSans-Roman-62"/>
      <path d="
M48.7812 52.5938
L48.7812 44.1875
Q44.9688 46.2969 41.1406 47.3438
Q37.3125 48.3906 33.4062 48.3906
Q24.6562 48.3906 19.8125 42.8438
Q14.9844 37.3125 14.9844 27.2969
Q14.9844 17.2812 19.8125 11.7344
Q24.6562 6.20312 33.4062 6.20312
Q37.3125 6.20312 41.1406 7.25
Q44.9688 8.29688 48.7812 10.4062
L48.7812 2.09375
Q45.0156 0.34375 40.9844 -0.53125
Q36.9688 -1.42188 32.4219 -1.42188
Q20.0625 -1.42188 12.7812 6.34375
Q5.51562 14.1094 5.51562 27.2969
Q5.51562 40.6719 12.8594 48.3281
Q20.2188 56 33.0156 56
Q37.1562 56 41.1094 55.1406
Q45.0625 54.2969 48.7812 52.5938" id="BitstreamVeraSans-Roman-63"/>
      <path d="
M41.1094 46.2969
Q39.5938 47.1719 37.8125 47.5781
Q36.0312 48 33.8906 48
Q26.2656 48 22.1875 43.0469
Q18.1094 38.0938 18.1094 28.8125
L18.1094 0
L9.07812 0
L9.07812 54.6875
L18.1094 54.6875
L18.1094 46.1875
Q20.9531 51.1719 25.4844 53.5781
Q30.0312 56 36.5312 56
Q37.4531 56 38.5781 55.875
Q39.7031 55.7656 41.0625 55.5156
z
" id="BitstreamVeraSans-Roman-72"/>
      <path d="
M9.42188 54.6875
L18.4062 54.6875
L18.4062 0
L9.42188 0
z

M9.42188 75.9844
L18.4062 75.9844
L18.4062 64.5938
L9.42188 64.5938
z
" id="BitstreamVeraSans-Roman-69"/>
      <path d="
M54.8906 33.0156
L54.8906 0
L45.9062 0
L45.9062 32.7188
Q45.9062 40.4844 42.875 44.3281
Q39.8438 48.1875 33.7969 48.1875
Q26.5156 48.1875 22.3125 43.5469
Q18.1094 38.9219 18.1094 30.9062
L18.1094 0
L9.07812 0
L9.07812 54.6875
L18.1094 54.6875
L18.1094 46.1875
Q21.3438 51.125 25.7031 53.5625
Q30.0781 56 35.7969 56
Q45.2188 56 50.0469 50.1719
Q54.8906 44.3438 54.8906 33.0156" id="BitstreamVeraSans-Roman-6e"/>
      <path d="
M56.2031 29.5938
L56.2031 25.2031
L14.8906 25.2031
Q15.4844 15.9219 20.4844 11.0625
Q25.4844 6.20312 34.4219 6.20312
Q39.5938 6.20312 44.4531 7.46875
Q49.3125 8.73438 54.1094 11.2812
L54.1094 2.78125
Q49.2656 0.734375 44.1875 -0.34375
Q39.1094 -1.42188 33.8906 -1.42188
Q20.7969 -1.42188 13.1562 6.1875
Q5.51562 13.8125 5.51562 26.8125
Q5.51562 40.2344 12.7656 48.1094
Q20.0156 56 32.3281 56
Q43.3594 56 49.7812 48.8906
Q56.2031 41.7969 56.2031 29.5938
M47.2188 32.2344
Q47.125 39.5938 43.0938 43.9844
Q39.0625 48.3906 32.4219 48.3906
Q24.9062 48.3906 20.3906 44.1406
Q15.875 39.8906 15.1875 32.1719
z
" id="BitstreamVeraSans-Roman-65"/>
      <path d="
M18.1094 8.20312
L18.1094 -20.7969
L9.07812 -20.7969
L9.07812 54.6875
L18.1094 54.6875
L18.1094 46.3906
Q20.9531 51.2656 25.2656 53.625
Q29.5938 56 35.5938 56
Q45.5625 56 51.7812 48.0938
Q58.0156 40.1875 58.0156 27.2969
Q58.0156 14.4062 51.7812 6.48438
Q45.5625 -1.42188 35.5938 -1.42188
Q29.5938 -1.42188 25.2656 0.953125
Q20.9531 3.32812 18.1094 8.20312
M48.6875 27.2969
Q48.6875 37.2031 44.6094 42.8438
Q40.5312 48.4844 33.4062 48.4844
Q26.2656 48.4844 22.1875 42.8438
Q18.1094 37.2031 18.1094 27.2969
Q18.1094 17.3906 22.1875 11.75
Q26.2656 6.10938 33.4062 6.10938
Q40.5312 6.10938 44.6094 11.75
Q48.6875 17.3906 48.6875 27.2969" id="BitstreamVeraSans-Roman-70"/>
      <path d="
M8.5 21.5781
L8.5 54.6875
L17.4844 54.6875
L17.4844 21.9219
Q17.4844 14.1562 20.5 10.2656
Q23.5312 6.39062 29.5938 6.39062
Q36.8594 6.39062 41.0781 11.0312
Q45.3125 15.6719 45.3125 23.6875
L45.3125 54.6875
L54.2969 54.6875
L54.2969 0
L45.3125 0
L45.3125 8.40625
Q42.0469 3.42188 37.7188 1
Q33.4062 -1.42188 27.6875 -1.42188
Q18.2656 -1.42188 13.375 4.4375
Q8.5 10.2969 8.5 21.5781" id="BitstreamVeraSans-Roman-75"/>
      <path d="
M9.42188 75.9844
L18.4062 75.9844
L18.4062 0
L9.42188 0
z
" id="BitstreamVeraSans-Roman-6c"/>
      <path d="
M34.2812 27.4844
Q23.3906 27.4844 19.1875 25
Q14.9844 22.5156 14.9844 16.5
Q14.9844 11.7188 18.1406 8.90625
Q21.2969 6.10938 26.7031 6.10938
Q34.1875 6.10938 38.7031 11.4062
Q43.2188 16.7031 43.2188 25.4844
L43.2188 27.4844
z

M52.2031 31.2031
L52.2031 0
L43.2188 0
L43.2188 8.29688
Q40.1406 3.32812 35.5469 0.953125
Q30.9531 -1.42188 24.3125 -1.42188
Q15.9219 -1.42188 10.9531 3.29688
Q6 8.01562 6 15.9219
Q6 25.1406 12.1719 29.8281
Q18.3594 34.5156 30.6094 34.5156
L43.2188 34.5156
L43.2188 35.4062
Q43.2188 41.6094 39.1406 45
Q35.0625 48.3906 27.6875 48.3906
Q23 48.3906 18.5469 47.2656
Q14.1094 46.1406 10.0156 43.8906
L10.0156 52.2031
Q14.9375 54.1094 19.5781 55.0469
Q24.2188 56 28.6094 56
Q40.4844 56 46.3438 49.8438
Q52.2031 43.7031 52.2031 31.2031" id="BitstreamVeraSans-Roman-61"/>
     </defs>
     <g transform="translate(68.079375 374.78625)rotate(-90.0)scale(0.12 -0.12)">
      <use xlink:href="#BitstreamVeraSans-Roman-70"/>
      <use x="63.4765625" xlink:href="#BitstreamVeraSans-Roman-61"/>
      <use x="124.755859375" xlink:href="#BitstreamVeraSans-Roman-72"/>
      <use x="165.869140625" xlink:href="#BitstreamVeraSans-Roman-74"/>
      <use x="205.078125" xlink:href="#BitstreamVeraSans-Roman-69"/>
      <use x="232.861328125" xlink:href="#BitstreamVeraSans-Roman-63"/>
      <use x="287.841796875" xlink:href="#BitstreamVeraSans-Roman-6c"/>
      <use x="315.625" xlink:href="#BitstreamVeraSans-Roman-65"/>
      <use x="377.1484375" xlink:href="#BitstreamVeraSans-Roman-20"/>
      <use x="408.935546875" xlink:href="#BitstreamVeraSans-Roman-6e"/>
      <use x="472.314453125" xlink:href="#BitstreamVeraSans-Roman-75"/>
      <use x="535.693359375" xlink:href="#BitstreamVeraSans-Roman-6d"/>
      <use x="633.10546875" xlink:href="#BitstreamVeraSans-Roman-62"/>
      <use x="696.58203125" xlink:href="#BitstreamVeraSans-Roman-65"/>
      <use x="758.10546875" xlink:href="#BitstreamVeraSans-Roman-72"/>
      <use x="799.21875" xlink:href="#BitstreamVeraSans-Roman-73"/>
     </g>
    </g>
   </g>
   <g id="legend_1">
    <g id="patch_7">
     <path d="
M697.504 101.224
L774.1 101.224
L774.1 68.3
L697.504 68.3
z
" style="fill:#ffffff;stroke:#000000;stroke-linejoin:miter;"/>
    </g>
    <g id="line2d_32">
     <path d="
M702.404 73.9689
L712.204 73.9689" style="fill:none;stroke:#ff0000;stroke-linecap:square;"/>
    </g>
    <g id="line2d_33"/>
    <g id="text_17">
     <!-- PKAcAMP2 el.0 -->
     <defs>
      <path d="
M10.6875 12.4062
L21 12.4062
L21 0
L10.6875 0
z
" id="BitstreamVeraSans-Roman-2e"/>
      <path d="
M34.1875 63.1875
L20.7969 26.9062
L47.6094 26.9062
z

M28.6094 72.9062
L39.7969 72.9062
L67.5781 0
L57.3281 0
L50.6875 18.7031
L17.8281 18.7031
L11.1875 0
L0.78125 0
z
" id="BitstreamVeraSans-Roman-41"/>
      <path d="
M9.8125 72.9062
L24.5156 72.9062
L43.1094 23.2969
L61.8125 72.9062
L76.5156 72.9062
L76.5156 0
L66.8906 0
L66.8906 64.0156
L48.0938 14.0156
L38.1875 14.0156
L19.3906 64.0156
L19.3906 0
L9.8125 0
z
" id="BitstreamVeraSans-Roman-4d"/>
      <path d="
M19.6719 64.7969
L19.6719 37.4062
L32.0781 37.4062
Q38.9688 37.4062 42.7188 40.9688
Q46.4844 44.5312 46.4844 51.125
Q46.4844 57.6719 42.7188 61.2344
Q38.9688 64.7969 32.0781 64.7969
z

M9.8125 72.9062
L32.0781 72.9062
Q44.3438 72.9062 50.6094 67.3594
Q56.8906 61.8125 56.8906 51.125
Q56.8906 40.3281 50.6094 34.8125
Q44.3438 29.2969 32.0781 29.2969
L19.6719 29.2969
L19.6719 0
L9.8125 0
z
" id="BitstreamVeraSans-Roman-50"/>
      <path d="
M9.8125 72.9062
L19.6719 72.9062
L19.6719 42.0938
L52.3906 72.9062
L65.0938 72.9062
L28.9062 38.9219
L67.6719 0
L54.6875 0
L19.6719 35.1094
L19.6719 0
L9.8125 0
z
" id="BitstreamVeraSans-Roman-4b"/>
     </defs>
     <g transform="translate(719.90359375 76.41890625)scale(0.07 -0.07)">
      <use xlink:href="#BitstreamVeraSans-Roman-50"/>
      <use x="60.302734375" xlink:href="#BitstreamVeraSans-Roman-4b"/>
      <use x="124.12890625" xlink:href="#BitstreamVeraSans-Roman-41"/>
      <use x="190.787109375" xlink:href="#BitstreamVeraSans-Roman-63"/>
      <use x="245.767578125" xlink:href="#BitstreamVeraSans-Roman-41"/>
      <use x="314.17578125" xlink:href="#BitstreamVeraSans-Roman-4d"/>
      <use x="400.455078125" xlink:href="#BitstreamVeraSans-Roman-50"/>
      <use x="460.7578125" xlink:href="#BitstreamVeraSans-Roman-32"/>
      <use x="524.380859375" xlink:href="#BitstreamVeraSans-Roman-20"/>
      <use x="556.16796875" xlink:href="#BitstreamVeraSans-Roman-65"/>
      <use x="617.69140625" xlink:href="#BitstreamVeraSans-Roman-6c"/>
      <use x="645.474609375" xlink:href="#BitstreamVeraSans-Roman-2e"/>
      <use x="677.26171875" xlink:href="#BitstreamVeraSans-Roman-30"/>
     </g>
    </g>
    <g id="line2d_34">
     <path d="
M702.404 84.2436
L712.204 84.2436" style="fill:none;stroke:#008000;stroke-linecap:square;"/>
    </g>
    <g id="line2d_35"/>
    <g id="text_18">
     <!-- PKAcAMP2 el.1 -->
     <g transform="translate(719.90359375 86.69359375)scale(0.07 -0.07)">
      <use xlink:href="#BitstreamVeraSans-Roman-50"/>
      <use x="60.302734375" xlink:href="#BitstreamVeraSans-Roman-4b"/>
      <use x="124.12890625" xlink:href="#BitstreamVeraSans-Roman-41"/>
      <use x="190.787109375" xlink:href="#BitstreamVeraSans-Roman-63"/>
      <use x="245.767578125" xlink:href="#BitstreamVeraSans-Roman-41"/>
      <use x="314.17578125" xlink:href="#BitstreamVeraSans-Roman-4d"/>
      <use x="400.455078125" xlink:href="#BitstreamVeraSans-Roman-50"/>
      <use x="460.7578125" xlink:href="#BitstreamVeraSans-Roman-32"/>
      <use x="524.380859375" xlink:href="#BitstreamVeraSans-Roman-20"/>
      <use x="556.16796875" xlink:href="#BitstreamVeraSans-Roman-65"/>
      <use x="617.69140625" xlink:href="#BitstreamVeraSans-Roman-6c"/>
      <use x="645.474609375" xlink:href="#BitstreamVeraSans-Roman-2e"/>
      <use x="677.26171875" xlink:href="#BitstreamVeraSans-Roman-31"/>
     </g>
    </g>
    <g id="line2d_36">
     <path d="
M702.404 94.5183
L712.204 94.5183" style="fill:none;stroke:#0000ff;stroke-linecap:square;"/>
    </g>
    <g id="line2d_37"/>
    <g id="text_19">
     <!-- PKAcAMP2 el.2 -->
     <g transform="translate(719.90359375 96.96828125)scale(0.07 -0.07)">
      <use xlink:href="#BitstreamVeraSans-Roman-50"/>
      <use x="60.302734375" xlink:href="#BitstreamVeraSans-Roman-4b"/>
      <use x="124.12890625" xlink:href="#BitstreamVeraSans-Roman-41"/>
      <use x="190.787109375" xlink:href="#BitstreamVeraSans-Roman-63"/>
      <use x="245.767578125" xlink:href="#BitstreamVeraSans-Roman-41"/>
      <use x="314.17578125" xlink:href="#BitstreamVeraSans-Roman-4d"/>
      <use x="400.455078125" xlink:href="#BitstreamVeraSans-Roman-50"/>
      <use x="460.7578125" xlink:href="#BitstreamVeraSans-Roman-32"/>
      <use x="524.380859375" xlink:href="#BitstreamVeraSans-Roman-20"/>
      <use x="556.16796875" xlink:href="#BitstreamVeraSans-Roman-65"/>
      <use x="617.69140625" xlink:href="#BitstreamVeraSans-Roman-6c"/>
      <use x="645.474609375" xlink:href="#BitstreamVeraSans-Roman-2e"/>
      <use x="677.26171875" xlink:href="#BitstreamVeraSans-Roman-32"/>
     </g>
    </g>
   </g>
  </g>
 </g>
 <defs>
  <clipPath id="p7ceb695115">
   <rect height="518.4" width="669.6" x="108.0" y="64.8"/>
  </clipPath>
 </defs>
</svg>
