<?xml version="1.0" encoding="utf-8" standalone="no"?>
<!DOCTYPE svg PUBLIC "-//W3C//DTD SVG 1.1//EN"
  "http://www.w3.org/Graphics/SVG/1.1/DTD/svg11.dtd">
<!-- Created with matplotlib (http://matplotlib.org/) -->
<svg height="648pt" version="1.1" viewBox="0 0 864 648" width="864pt" xmlns="http://www.w3.org/2000/svg" xmlns:xlink="http://www.w3.org/1999/xlink">
 <defs>
  <style type="text/css">
*{stroke-linecap:butt;stroke-linejoin:round;}
  </style>
 </defs>
 <g id="figure_1">
  <g id="patch_1">
   <path d="
M0 648
L864 648
L864 0
L0 0
z
" style="fill:#ffffff;"/>
  </g>
  <g id="axes_1">
   <g id="patch_2">
    <path d="
M108 583.2
L777.6 583.2
L777.6 64.8
L108 64.8
z
" style="fill:#ffffff;"/>
   </g>
   <g id="line2d_1">
    <path clip-path="url(#p7ceb695115)" d="
M108 581.956
L108.67 581.748
L109.339 582.785
L110.009 582.993
L110.678 582.993
L111.348 583.2
L112.018 582.993
L112.687 582.993
L113.357 582.785
L114.026 583.2
L114.696 582.993
L115.366 583.2
L116.705 583.2
L117.374 582.785
L118.714 583.2
L119.383 582.578
L120.053 582.993
L120.722 583.2
L121.392 582.993
L123.401 582.993
L124.07 583.2
L126.749 583.2
L127.418 582.993
L128.088 583.2
L442.8 583.2
L443.47 483.252
L444.139 478.483
L444.809 489.059
L445.478 491.547
L446.148 478.483
L446.818 481.801
L447.487 489.266
L448.157 487.4
L448.826 493.62
L449.496 488.436
L450.166 494.035
L450.835 489.059
L451.505 493.62
L452.174 489.473
L452.844 489.681
L453.514 491.754
L454.183 489.473
L454.853 492.376
L455.522 494.035
L456.192 490.095
L456.862 488.436
L457.531 496.109
L458.201 496.731
L458.87 490.925
L459.54 490.925
L460.21 489.681
L460.879 490.51
L461.549 498.39
L462.218 488.644
L462.888 495.072
L463.558 491.34
L464.227 489.888
L464.897 490.717
L465.566 492.791
L466.236 493.413
L466.906 495.901
L467.575 494.035
L468.245 491.34
L468.914 491.962
L469.584 486.985
L470.254 484.497
L470.923 497.353
L471.593 493.206
L472.262 492.791
L472.932 497.975
L473.602 495.901
L474.271 489.681
L474.941 488.229
L475.61 494.243
L476.28 486.156
L476.95 492.169
L477.619 494.243
L478.289 492.791
L478.958 494.865
L479.628 493.413
L480.298 493.828
L480.967 495.901
L481.637 483.252
L482.306 489.266
L482.976 491.34
L483.646 490.51
L484.315 490.095
L484.985 494.45
L485.654 492.584
L486.324 495.279
L486.994 492.169
L487.663 493.413
L488.333 483.252
L489.002 492.169
L489.672 492.169
L490.342 488.436
L491.681 492.376
L493.02 486.778
L493.69 488.229
L494.359 491.754
L495.029 486.985
L495.698 496.938
L496.368 482.63
L497.038 481.179
L498.377 492.584
L499.046 492.791
L499.716 493.206
L500.386 489.473
L501.055 490.095
L501.725 485.741
L502.394 497.768
L503.064 492.376
L503.734 494.035
L504.403 490.095
L505.073 490.095
L505.742 488.229
L506.412 488.851
L507.082 487.192
L507.751 489.888
L508.421 490.925
L509.09 490.717
L509.76 486.156
L510.43 493.62
L511.099 487.607
L511.769 492.998
L512.438 493.206
L513.108 486.985
L513.778 489.266
L514.447 492.376
L515.117 490.51
L515.786 487.192
L516.456 493.206
L517.126 494.035
L517.795 490.51
L518.465 481.386
L519.134 485.948
L519.804 492.791
L520.474 498.39
L521.143 493.828
L521.813 486.778
L522.482 491.754
L523.152 490.095
L523.822 497.768
L524.491 491.132
L525.161 494.243
L525.83 485.948
L526.5 493.62
L527.17 488.851
L527.839 487.607
L528.509 489.059
L529.178 493.206
L529.848 483.667
L530.518 495.694
L531.187 484.497
L531.857 489.059
L532.526 490.717
L533.196 488.644
L533.866 491.132
L534.535 497.56
L535.205 494.865
L535.874 489.681
L536.544 492.998
L537.214 486.57
L537.883 483.46
L538.553 487.192
L539.222 488.644
L539.892 499.219
L540.562 492.169
L541.231 494.035
L541.901 494.865
L542.57 490.303
L543.24 496.524
L543.91 485.533
L544.579 485.119
L545.249 489.888
L545.918 491.754
L546.588 492.169
L547.258 489.266
L547.927 496.109
L548.597 484.082
L549.266 492.584
L549.936 487.607
L550.606 485.533
L551.275 490.303
L551.945 496.938
L552.614 489.473
L553.284 487.4
L553.954 497.768
L555.293 485.533
L555.962 495.279
L556.632 487.814
L557.302 498.597
L557.971 489.888
L558.641 490.51
L559.31 492.791
L559.98 494.657
L560.65 479.935
L561.319 491.547
L561.989 484.082
L562.658 496.524
L563.328 493.62
L563.998 488.644
L564.667 493.828
L565.337 488.436
L566.006 494.45
L566.676 495.072
L567.346 486.156
L568.685 494.243
L569.354 488.229
L570.024 504.196
L570.694 490.925
L571.363 482.216
L572.033 486.778
L572.702 493.206
L573.372 493.828
L574.042 495.901
L574.711 491.754
L575.381 485.533
L576.05 495.279
L576.72 488.644
L577.39 499.841
L578.059 499.012
L578.729 487.607
L579.398 496.109
L580.068 490.095
L580.738 492.584
L581.407 488.229
L582.077 497.975
L583.416 485.119
L584.086 491.962
L584.755 491.547
L585.425 491.754
L586.094 488.436
L586.764 485.948
L587.434 485.119
L588.103 490.51
L588.773 487.192
L589.442 490.925
L590.112 490.717
L590.782 491.754
L591.451 496.731
L592.121 490.303
L592.79 496.109
L593.46 491.754
L594.13 492.376
L594.799 492.169
L595.469 485.326
L596.138 492.376
L596.808 495.072
L597.478 488.436
L598.147 494.45
L598.817 487.814
L599.486 493.413
L600.156 495.901
L600.826 491.547
L601.495 485.533
L602.165 493.828
L603.504 489.888
L604.174 497.146
L604.843 491.132
L606.182 495.072
L606.852 501.085
L607.522 491.547
L608.861 496.316
L609.53 492.584
L610.2 492.998
L610.87 486.363
L611.539 491.132
L612.209 487.192
L612.878 496.524
L613.548 488.022
L614.218 484.911
L614.887 489.473
L615.557 488.229
L616.226 485.533
L616.896 491.34
L617.566 490.095
L618.235 492.998
L618.905 490.095
L619.574 481.386
L620.244 493.413
L620.914 494.45
L621.583 484.911
L622.253 489.473
L622.922 489.059
L623.592 489.681
L624.262 499.427
L624.931 489.681
L625.601 493.206
L626.27 495.487
L626.94 488.022
L627.61 489.059
L628.949 494.243
L629.618 491.962
L630.288 490.51
L630.958 494.657
L631.627 487.607
L632.297 494.657
L632.966 494.657
L633.636 487.814
L634.306 488.022
L634.975 491.547
L635.645 487.814
L636.314 486.985
L636.984 491.754
L637.654 491.34
L638.323 497.353
L638.993 494.865
L639.662 486.57
L640.332 486.778
L641.002 495.279
L641.671 490.51
L642.341 499.012
L643.01 496.938
L643.68 488.436
L644.35 486.985
L645.019 493.62
L646.358 496.109
L647.028 490.925
L647.698 492.998
L648.367 484.911
L649.037 493.62
L649.706 489.473
L650.376 493.413
L651.046 488.851
L651.715 494.243
L652.385 493.62
L653.054 493.206
L653.724 488.851
L654.394 493.206
L655.063 488.229
L655.733 490.303
L656.402 496.731
L657.072 488.851
L657.742 492.584
L658.411 492.169
L659.081 492.791
L659.75 490.095
L660.42 483.667
L661.09 485.741
L661.759 487.4
L662.429 491.547
L663.098 497.56
L663.768 495.694
L664.438 489.473
L665.107 493.206
L665.777 491.962
L666.446 490.095
L667.116 493.413
L667.786 489.473
L668.455 492.376
L669.125 489.681
L669.794 492.169
L670.464 485.741
L671.134 492.169
L671.803 486.778
L672.473 492.791
L673.142 487.607
L673.812 493.206
L674.482 488.022
L675.151 494.45
L675.821 496.109
L676.49 495.279
L677.16 491.34
L677.83 492.376
L678.499 499.219
L679.169 490.095
L679.838 491.34
L680.508 490.303
L681.178 494.035
L681.847 489.681
L682.517 490.303
L683.186 490.717
L683.856 494.45
L684.526 489.473
L685.195 495.072
L685.865 492.791
L686.534 486.156
L687.874 492.584
L688.543 490.095
L689.213 500.256
L689.882 494.243
L690.552 489.681
L691.222 496.524
L691.891 492.791
L692.561 491.962
L693.23 484.704
L693.9 484.497
L694.57 488.229
L695.909 490.925
L696.578 486.985
L697.248 495.694
L697.918 493.206
L698.587 494.657
L699.257 488.436
L699.926 493.62
L701.266 485.533
L701.935 490.717
L702.605 492.376
L703.274 492.791
L703.944 494.45
L704.614 494.035
L705.283 492.169
L705.953 494.243
L706.622 495.694
L707.292 490.717
L708.631 492.791
L709.301 490.303
L709.97 495.694
L710.64 496.109
L711.31 495.279
L711.979 492.376
L712.649 491.34
L713.318 491.132
L713.988 484.704
L714.658 488.436
L715.327 489.473
L715.997 496.731
L716.666 489.059
L717.336 487.192
L718.006 497.768
L718.675 490.925
L719.345 490.095
L720.014 496.316
L720.684 488.851
L721.354 486.156
L722.023 488.436
L722.693 488.229
L723.362 490.717
L724.032 480.142
L724.702 491.34
L725.371 486.778
L726.041 487.4
L727.38 494.865
L728.05 487.607
L728.719 493.62
L729.389 495.072
L730.058 486.57
L730.728 482.838
L731.398 489.266
L732.067 490.303
L732.737 494.035
L733.406 490.51
L734.076 497.768
L734.746 491.547
L735.415 490.925
L736.085 500.049
L736.754 487.814
L737.424 482.216
L738.094 490.925
L738.763 479.935
L739.433 486.778
L740.102 490.925
L740.772 490.303
L741.442 494.243
L742.111 491.754
L742.781 486.363
L743.45 491.962
L744.12 489.888
L744.79 495.072
L745.459 489.681
L746.129 489.059
L746.798 490.717
L747.468 494.035
L748.138 488.851
L748.807 497.146
L749.477 500.671
L750.146 491.754
L750.816 493.413
L751.486 489.681
L752.155 490.925
L752.825 495.487
L753.494 494.657
L754.164 489.266
L754.834 498.597
L756.173 488.229
L756.842 495.901
L757.512 485.533
L758.182 490.717
L758.851 490.095
L759.521 499.012
L760.19 487.607
L760.86 495.901
L761.53 494.657
L762.199 488.436
L762.869 494.243
L763.538 491.962
L764.208 485.326
L764.878 490.925
L765.547 493.413
L766.217 487.607
L766.886 491.962
L767.556 487.814
L768.226 480.764
L768.895 492.376
L769.565 487.607
L770.234 488.436
L770.904 492.169
L771.574 494.035
L772.243 496.524
L772.913 490.925
L773.582 487.4
L774.252 486.778
L774.922 494.243
L775.591 494.243
L776.261 494.45
L776.93 493.413
L777.6 489.473
L777.6 489.473" style="fill:none;stroke:#ff0000;stroke-linecap:square;"/>
   </g>
   <g id="line2d_2">
    <path clip-path="url(#p7ceb695115)" d="
M108 578.223
L108.67 579.675
L109.339 580.09
L110.009 579.468
L110.678 580.297
L111.348 580.919
L112.018 581.334
L112.687 581.126
L113.357 582.371
L114.026 581.541
L114.696 581.956
L115.366 581.748
L116.035 581.956
L116.705 582.993
L117.374 582.371
L118.044 582.578
L118.714 581.956
L119.383 582.785
L120.053 582.785
L120.722 582.371
L121.392 582.785
L122.062 582.578
L122.731 582.578
L123.401 582.785
L126.079 582.785
L126.749 583.2
L442.8 583.2
L443.47 146.5
L444.139 170.139
L444.809 170.346
L445.478 180.092
L446.148 199.169
L446.818 203.939
L447.487 202.072
L448.157 196.888
L448.826 209.952
L449.496 208.708
L450.166 203.109
L450.835 212.026
L451.505 213.27
L452.174 208.915
L452.844 210.159
L453.514 215.551
L454.183 217.624
L454.853 214.929
L455.522 221.149
L456.192 215.551
L456.862 218.246
L457.531 213.477
L458.201 215.551
L458.87 224.26
L459.54 218.246
L460.21 215.758
L460.879 219.076
L461.549 204.146
L462.218 219.076
L462.888 217.21
L463.558 219.283
L464.227 224.467
L464.897 222.394
L465.566 212.648
L466.236 208.293
L466.906 210.989
L467.575 207.049
L468.245 208.708
L468.914 215.136
L469.584 219.283
L470.254 221.357
L470.923 216.588
L471.593 208.5
L472.262 213.477
L472.932 204.146
L473.602 210.574
L474.271 220.113
L474.941 219.905
L475.61 209.33
L476.28 224.675
L476.95 206.634
L478.289 212.855
L478.958 208.708
L479.628 211.196
L480.298 218.454
L480.967 217.21
L481.637 221.979
L482.306 214.929
L482.976 210.159
L483.646 219.076
L484.315 223.43
L484.985 211.611
L485.654 216.795
L486.324 208.915
L486.994 215.551
L487.663 214.721
L488.333 217.624
L489.002 217.21
L489.672 212.648
L490.342 218.868
L491.011 226.333
L491.681 212.855
L492.35 216.173
L493.02 217.002
L493.69 226.541
L495.029 218.868
L495.698 213.892
L497.038 222.186
L497.707 217.417
L498.377 208.708
L499.046 215.551
L499.716 213.062
L500.386 216.38
L501.055 214.929
L501.725 223.638
L502.394 210.989
L503.064 209.33
L503.734 213.27
L504.403 221.772
L505.073 217.002
L505.742 215.965
L506.412 213.892
L507.082 217.21
L507.751 217.417
L508.421 215.551
L509.09 215.965
L509.76 222.808
L510.43 209.537
L511.099 220.527
L511.769 218.246
L512.438 206.842
L513.108 218.454
L513.778 214.929
L514.447 216.173
L515.117 216.588
L515.786 224.052
L517.126 206.427
L517.795 217.624
L518.465 220.113
L519.134 220.113
L519.804 213.062
L520.474 203.316
L521.143 210.989
L521.813 215.343
L522.482 215.551
L523.152 215.965
L523.822 211.196
L524.491 216.38
L525.161 216.588
L525.83 221.772
L526.5 215.551
L527.17 214.099
L527.839 217.21
L528.509 219.076
L529.178 214.099
L529.848 218.868
L530.518 207.049
L531.187 219.076
L531.857 217.624
L532.526 216.795
L533.196 217.417
L533.866 214.099
L535.205 211.404
L535.874 215.965
L536.544 215.343
L537.214 229.651
L537.883 221.564
L538.553 209.537
L539.222 219.283
L539.892 206.012
L540.562 215.136
L541.231 213.684
L541.901 208.708
L542.57 218.246
L543.24 206.842
L543.91 215.343
L544.579 216.38
L545.249 218.246
L545.918 216.173
L546.588 211.611
L547.258 216.795
L547.927 205.39
L548.597 220.113
L549.266 209.952
L549.936 214.929
L550.606 222.186
L551.275 215.136
L551.945 213.062
L552.614 213.892
L553.284 217.832
L553.954 206.012
L554.623 218.039
L555.293 218.661
L555.962 213.477
L556.632 220.942
L557.302 206.012
L557.971 225.504
L558.641 216.588
L559.31 214.307
L559.98 212.648
L560.65 220.942
L561.319 214.307
L561.989 226.541
L562.658 221.772
L563.328 213.892
L563.998 218.661
L564.667 205.805
L565.337 217.624
L566.006 212.648
L566.676 211.404
L567.346 222.808
L568.015 214.099
L568.685 208.293
L569.354 208.5
L570.024 213.892
L570.694 218.246
L571.363 220.942
L572.033 222.601
L572.702 216.38
L573.372 211.611
L574.042 211.818
L574.711 215.136
L575.381 215.965
L576.05 216.588
L576.72 219.698
L577.39 212.44
L578.059 213.892
L578.729 214.099
L579.398 208.086
L580.068 218.868
L580.738 213.27
L581.407 213.892
L582.077 212.648
L582.746 218.246
L583.416 222.808
L584.086 213.062
L584.755 215.965
L585.425 207.049
L586.094 222.394
L586.764 217.002
L587.434 217.832
L588.103 220.942
L588.773 219.491
L589.442 219.283
L590.112 211.818
L590.782 218.868
L591.451 213.062
L592.79 211.818
L593.46 212.026
L594.13 209.952
L594.799 212.233
L595.469 219.491
L596.138 217.21
L596.808 214.099
L597.478 205.39
L598.147 214.514
L598.817 219.905
L599.486 210.159
L600.156 215.136
L600.826 215.551
L601.495 221.357
L602.165 214.721
L602.834 212.855
L603.504 214.721
L604.174 207.671
L604.843 218.868
L605.513 217.832
L606.182 207.878
L606.852 204.353
L607.522 211.611
L608.191 217.002
L608.861 209.745
L609.53 221.772
L610.2 216.795
L610.87 223.845
L611.539 213.062
L612.209 215.758
L612.878 216.588
L613.548 220.527
L614.218 226.126
L614.887 216.173
L615.557 212.648
L616.226 223.223
L616.896 215.136
L617.566 217.21
L618.905 211.818
L619.574 219.283
L620.244 215.343
L620.914 210.367
L621.583 218.454
L622.253 210.781
L622.922 210.574
L623.592 217.624
L624.262 213.27
L624.931 213.062
L625.601 214.099
L626.27 203.109
L626.94 215.343
L627.61 213.062
L628.279 217.624
L628.949 211.196
L629.618 214.514
L630.288 217.002
L630.958 217.417
L631.627 219.283
L632.297 211.818
L632.966 216.38
L633.636 215.343
L634.306 222.186
L634.975 214.514
L635.645 218.661
L636.314 225.919
L636.984 217.624
L637.654 220.942
L638.323 213.062
L638.993 214.099
L639.662 218.246
L640.332 226.333
L641.002 216.795
L641.671 212.026
L642.341 205.183
L643.01 209.952
L643.68 213.477
L644.35 217.832
L645.019 218.454
L645.689 206.427
L646.358 209.33
L647.028 212.855
L647.698 213.684
L648.367 219.491
L649.037 216.38
L649.706 219.283
L650.376 215.965
L651.046 215.758
L651.715 213.684
L652.385 210.367
L653.054 209.952
L653.724 210.989
L654.394 214.514
L655.063 208.708
L655.733 218.661
L656.402 212.233
L657.072 217.21
L657.742 217.417
L658.411 208.5
L659.081 218.039
L659.75 215.343
L660.42 216.795
L661.09 215.343
L661.759 223.223
L662.429 216.588
L663.098 205.805
L663.768 214.514
L664.438 210.989
L665.107 213.27
L665.777 216.795
L666.446 214.514
L667.116 214.099
L667.786 214.514
L668.455 217.002
L669.125 215.136
L669.794 207.671
L670.464 218.661
L671.134 215.551
L671.803 215.136
L672.473 211.818
L673.142 222.186
L673.812 218.868
L674.482 218.246
L675.151 219.076
L675.821 206.427
L676.49 210.367
L677.16 210.367
L677.83 212.855
L678.499 211.196
L679.169 222.186
L679.838 213.684
L680.508 218.454
L681.178 209.537
L681.847 220.32
L682.517 215.136
L683.186 214.099
L683.856 211.196
L684.526 216.173
L685.195 215.758
L685.865 214.307
L686.534 217.21
L687.204 213.892
L687.874 216.38
L688.543 215.343
L689.213 201.45
L689.882 213.684
L690.552 212.233
L691.222 213.477
L691.891 221.979
L692.561 213.27
L693.23 221.979
L693.9 219.698
L694.57 226.126
L695.239 215.758
L695.909 217.002
L696.578 217.417
L697.248 209.33
L697.918 210.367
L698.587 211.196
L699.257 212.233
L699.926 213.892
L700.596 211.404
L701.266 220.113
L701.935 212.026
L702.605 207.671
L703.274 221.772
L704.614 210.574
L705.283 215.758
L705.953 210.989
L706.622 215.758
L707.292 215.551
L707.962 217.624
L708.631 223.638
L709.301 217.624
L709.97 207.256
L710.64 206.427
L711.31 215.965
L711.979 207.049
L712.649 217.417
L713.318 214.721
L713.988 215.758
L714.658 216.173
L715.327 218.454
L715.997 209.537
L716.666 215.343
L717.336 214.929
L718.006 214.307
L719.345 220.527
L720.014 215.136
L720.684 225.089
L722.023 218.454
L722.693 215.965
L723.362 212.648
L724.032 221.149
L724.702 211.404
L725.371 224.675
L726.041 224.26
L726.71 212.648
L727.38 225.297
L728.05 221.149
L728.719 209.745
L729.389 211.818
L730.058 217.417
L730.728 224.467
L732.067 207.878
L732.737 214.307
L733.406 217.624
L734.076 207.671
L734.746 219.698
L735.415 219.491
L736.085 212.026
L736.754 214.929
L737.424 228.822
L738.094 205.183
L738.763 226.126
L739.433 222.394
L740.102 212.026
L740.772 220.527
L741.442 224.26
L742.111 217.624
L742.781 223.223
L743.45 220.735
L744.12 214.307
L744.79 209.537
L745.459 214.514
L746.129 216.38
L746.798 211.611
L747.468 210.781
L748.138 215.551
L748.807 208.915
L749.477 216.795
L750.146 209.123
L750.816 218.868
L751.486 217.832
L752.155 218.246
L752.825 209.745
L753.494 207.256
L754.164 223.845
L754.834 215.965
L755.503 211.611
L756.173 214.929
L756.842 215.136
L757.512 217.002
L758.182 208.5
L758.851 207.671
L759.521 206.427
L760.19 222.601
L761.53 214.099
L762.199 223.845
L762.869 216.38
L763.538 210.367
L764.208 218.661
L764.878 211.818
L765.547 215.343
L766.217 220.735
L766.886 221.979
L767.556 211.196
L768.226 225.089
L768.895 206.012
L769.565 215.965
L770.234 219.698
L770.904 213.892
L771.574 213.27
L772.243 207.671
L772.913 217.624
L773.582 220.32
L774.252 220.735
L774.922 211.611
L775.591 212.233
L776.261 210.574
L776.93 219.491
L777.6 223.016
L777.6 223.016" style="fill:none;stroke:#008000;stroke-linecap:square;"/>
   </g>
   <g id="line2d_3">
    <path clip-path="url(#p7ceb695115)" d="
M108 581.956
L108.67 582.163
L109.339 581.126
L110.009 582.578
L110.678 582.371
L112.018 582.785
L113.357 582.371
L114.026 582.993
L114.696 583.2
L116.035 583.2
L116.705 582.371
L117.374 583.2
L118.044 582.785
L118.714 582.993
L120.053 582.993
L120.722 583.2
L121.392 582.993
L122.062 583.2
L122.731 583.2
L123.401 582.993
L124.07 582.993
L124.74 583.2
L126.079 583.2
L126.749 582.993
L127.418 583.2
L442.8 583.2
L443.47 475.165
L444.139 475.788
L444.809 481.386
L445.478 480.764
L446.148 485.948
L446.818 484.911
L447.487 486.985
L448.157 498.804
L448.826 482.63
L449.496 492.998
L450.166 494.657
L450.835 491.962
L451.505 485.326
L452.174 494.865
L452.844 494.243
L453.514 486.985
L454.183 489.059
L454.853 489.473
L455.522 481.386
L456.192 491.132
L456.862 490.51
L458.87 482.008
L459.54 488.022
L460.21 491.754
L460.879 487.814
L461.549 494.865
L462.888 485.119
L463.558 486.778
L464.227 483.045
L464.897 484.289
L465.566 491.962
L466.236 495.694
L466.906 490.51
L467.575 496.316
L468.245 497.353
L468.914 490.303
L469.584 491.132
L470.254 491.547
L470.923 483.46
L471.593 495.694
L472.262 491.132
L472.932 495.279
L473.602 490.925
L474.271 487.607
L474.941 489.266
L475.61 493.828
L476.28 486.57
L476.95 498.597
L477.619 493.206
L478.289 491.754
L478.958 493.828
L479.628 492.791
L480.298 485.119
L480.967 484.289
L481.637 492.169
L482.306 493.206
L482.976 495.901
L483.646 487.814
L484.315 483.875
L484.985 491.34
L485.654 488.022
L486.324 493.206
L486.994 489.681
L487.663 489.266
L488.333 496.524
L489.002 488.022
L489.672 492.584
L490.342 490.095
L491.011 480.557
L491.681 492.169
L492.35 491.754
L493.02 493.62
L493.69 482.63
L494.359 482.838
L495.029 491.547
L495.698 486.57
L496.368 496.524
L497.038 494.035
L497.707 492.791
L498.377 496.109
L499.046 489.059
L499.716 491.132
L500.386 491.547
L501.055 492.376
L501.725 488.022
L502.394 488.644
L503.064 495.694
L503.734 490.095
L504.403 485.533
L505.073 490.303
L505.742 493.206
L506.412 494.657
L507.082 492.998
L507.751 490.095
L508.421 490.925
L509.09 490.717
L509.76 488.436
L510.43 494.243
L511.099 489.266
L511.769 486.156
L512.438 497.353
L513.108 491.962
L513.778 493.206
L514.447 488.851
L515.117 490.303
L515.786 486.156
L516.456 489.266
L517.126 496.938
L517.795 489.266
L518.465 495.901
L519.134 491.34
L519.804 491.547
L520.474 495.694
L521.143 492.584
L521.813 495.279
L522.482 490.095
L523.152 491.34
L523.822 488.436
L524.491 489.888
L525.161 486.57
L525.83 489.681
L526.5 488.229
L527.17 494.45
L527.839 492.584
L528.509 489.266
L529.178 490.095
L529.848 494.865
L530.518 494.657
L531.187 493.828
L531.857 490.717
L532.526 489.888
L533.196 491.34
L533.866 492.169
L534.535 487.192
L535.205 491.132
L535.874 491.754
L536.544 489.059
L537.214 481.179
L537.883 492.376
L538.553 500.671
L539.222 489.473
L539.892 492.169
L540.562 490.095
L541.231 489.681
L541.901 493.828
L542.57 488.851
L543.24 494.035
L543.91 496.524
L544.579 495.901
L545.249 489.266
L545.918 489.473
L546.588 493.62
L547.258 491.34
L547.927 495.901
L548.597 493.206
L549.266 494.865
L549.936 494.865
L550.606 489.681
L551.275 491.962
L551.945 487.4
L552.614 494.035
L553.284 492.169
L553.954 493.62
L554.623 487.607
L555.293 493.206
L555.962 488.644
L556.632 488.644
L557.302 492.791
L557.971 482.008
L558.641 490.303
L559.31 490.303
L559.98 490.095
L560.65 496.524
L561.989 486.778
L562.658 479.105
L563.328 489.888
L563.998 490.095
L564.667 497.768
L565.337 491.34
L566.006 490.303
L566.676 490.925
L567.346 488.436
L568.015 493.413
L568.685 494.865
L569.354 500.671
L570.024 479.313
L570.694 488.229
L571.363 494.243
L572.033 488.022
L572.702 487.814
L573.372 491.962
L574.042 489.681
L574.711 490.51
L575.381 495.901
L576.05 485.533
L576.72 489.059
L577.39 485.119
L578.059 484.497
L578.729 495.694
L579.398 493.206
L580.068 488.436
L580.738 491.547
L581.407 495.279
L582.077 486.778
L582.746 487.814
L583.416 489.473
L584.086 492.376
L584.755 489.888
L585.425 498.597
L586.094 486.57
L586.764 494.45
L587.434 494.45
L588.103 485.948
L588.773 490.717
L589.442 487.192
L590.112 494.865
L590.782 486.778
L591.451 487.607
L592.121 494.657
L592.79 489.473
L593.46 493.62
L594.13 495.072
L594.799 492.998
L595.469 492.584
L596.138 487.814
L596.808 488.229
L597.478 503.574
L598.147 488.436
L598.817 489.681
L599.486 493.828
L600.156 486.363
L600.826 490.303
L601.495 490.51
L602.165 488.851
L602.834 492.791
L603.504 492.791
L604.174 492.584
L604.843 487.4
L605.513 486.57
L606.182 494.45
L606.852 491.962
L607.522 494.243
L608.191 486.57
L608.861 491.34
L609.53 483.045
L610.2 487.607
L610.87 487.192
L611.539 493.206
L612.209 494.45
L612.878 484.289
L613.548 488.851
L614.218 486.363
L615.557 496.524
L616.226 488.644
L616.896 490.925
L617.566 490.095
L618.235 489.681
L618.905 495.487
L619.574 496.731
L620.244 488.644
L620.914 492.584
L621.583 494.035
L622.253 497.146
L622.922 497.768
L623.592 490.095
L624.262 484.704
L624.931 494.657
L625.601 490.095
L626.27 498.804
L626.94 494.035
L627.61 495.279
L628.279 488.022
L628.949 491.962
L630.288 489.888
L630.958 485.326
L631.627 490.51
L632.297 490.925
L632.966 486.363
L633.636 494.243
L634.306 487.192
L634.975 491.34
L635.645 490.925
L636.314 484.497
L636.984 488.022
L637.654 485.119
L638.323 486.985
L638.993 488.436
L639.662 492.584
L640.332 484.289
L641.002 485.326
L641.671 494.865
L642.341 493.206
L643.01 490.51
L643.68 495.487
L644.35 492.584
L645.019 485.326
L645.689 496.109
L646.358 491.962
L647.028 493.62
L647.698 490.717
L648.367 492.998
L649.037 487.4
L649.706 488.644
L650.376 488.022
L651.046 492.791
L651.715 489.473
L652.385 493.413
L653.054 494.243
L653.724 497.56
L654.394 489.681
L655.063 500.463
L655.733 488.436
L656.402 488.436
L657.072 491.34
L657.742 487.4
L658.411 496.731
L659.081 486.57
L660.42 496.938
L661.09 496.316
L661.759 486.778
L662.429 489.266
L663.098 494.035
L663.768 487.192
L664.438 496.938
L665.107 490.925
L665.777 488.644
L666.446 492.791
L667.116 489.888
L667.786 493.413
L668.455 488.022
L669.794 497.56
L670.464 492.998
L671.134 489.681
L671.803 495.487
L672.473 492.791
L673.142 487.607
L673.812 485.326
L674.482 491.132
L675.151 483.875
L675.821 494.865
L676.49 491.754
L677.16 495.694
L677.83 492.169
L678.499 486.985
L679.169 485.119
L679.838 492.376
L680.508 488.644
L681.178 493.828
L681.847 487.4
L682.517 491.962
L683.186 492.584
L683.856 491.754
L684.526 491.754
L685.195 486.57
L686.534 494.035
L687.204 494.035
L687.874 488.436
L689.213 495.694
L689.882 489.473
L690.552 495.487
L691.222 487.4
L691.891 482.63
L692.561 492.169
L693.23 490.717
L693.9 493.206
L694.57 483.045
L695.239 491.962
L695.909 489.473
L696.578 492.998
L697.248 492.376
L697.918 493.828
L698.587 491.547
L699.257 496.731
L699.926 489.888
L700.596 496.109
L701.266 491.754
L702.605 497.353
L703.274 482.838
L703.944 486.57
L704.614 492.791
L705.283 489.473
L705.953 492.169
L706.622 485.948
L707.292 491.132
L707.962 488.022
L708.631 480.972
L709.301 489.473
L709.97 494.45
L710.64 494.865
L711.31 486.156
L711.979 497.975
L712.649 488.644
L713.318 491.547
L713.988 496.938
L714.658 492.791
L715.327 489.473
L716.666 492.998
L717.336 495.279
L718.006 485.326
L718.675 489.266
L719.345 486.778
L720.014 485.948
L720.684 483.46
L721.354 489.681
L722.023 490.51
L722.693 493.206
L723.362 494.035
L724.032 496.109
L724.702 494.657
L725.371 485.948
L726.041 485.741
L726.71 493.413
L727.38 477.239
L728.05 488.644
L728.719 494.035
L729.389 490.51
L730.058 493.413
L730.728 490.095
L731.398 491.962
L732.067 499.219
L732.737 489.059
L733.406 489.266
L734.076 491.962
L734.746 486.156
L735.415 486.985
L736.085 485.326
L736.754 494.657
L737.424 486.363
L738.094 501.293
L738.763 491.34
L739.433 488.229
L740.102 494.45
L741.442 478.898
L742.111 488.022
L742.781 487.814
L743.45 484.704
L744.12 493.206
L744.79 492.791
L745.459 493.206
L746.129 491.962
L746.798 495.072
L747.468 492.584
L748.138 492.998
L748.807 491.34
L749.477 479.935
L750.146 496.524
L750.816 485.119
L751.486 489.888
L752.155 488.229
L753.494 495.487
L754.164 484.289
L754.834 482.838
L755.503 492.169
L756.173 494.243
L756.842 486.363
L757.512 494.865
L758.182 498.182
L758.851 499.634
L759.521 491.962
L760.19 487.192
L760.86 483.46
L761.53 488.644
L762.199 485.119
L762.869 486.778
L763.538 495.072
L764.208 493.413
L764.878 494.657
L765.547 488.644
L766.217 489.059
L766.886 483.46
L767.556 498.39
L768.226 491.547
L768.895 499.012
L770.234 489.266
L770.904 491.34
L771.574 490.095
L772.243 493.206
L772.913 488.851
L773.582 489.681
L774.252 489.888
L774.922 491.547
L775.591 490.925
L776.261 492.376
L776.93 484.497
L777.6 484.911
L777.6 484.911" style="fill:none;stroke:#0000ff;stroke-linecap:square;"/>
   </g>
   <g id="patch_3">
    <path d="
M108 583.2
L777.6 583.2" style="fill:none;stroke:#000000;stroke-linecap:square;stroke-linejoin:miter;"/>
   </g>
   <g id="patch_4">
    <path d="
M777.6 583.2
L777.6 64.8" style="fill:none;stroke:#000000;stroke-linecap:square;stroke-linejoin:miter;"/>
   </g>
   <g id="patch_5">
    <path d="
M108 64.8
L777.6 64.8" style="fill:none;stroke:#000000;stroke-linecap:square;stroke-linejoin:miter;"/>
   </g>
   <g id="patch_6">
    <path d="
M108 583.2
L108 64.8" style="fill:none;stroke:#000000;stroke-linecap:square;stroke-linejoin:miter;"/>
   </g>
   <g id="matplotlib.axis_1">
    <g id="xtick_1">
     <g id="line2d_4">
      <defs>
       <path d="
M0 0
L0 -4" id="mc7db9fdffb" style="stroke:#000000;stroke-width:0.5;"/>
      </defs>
      <g>
       <use style="stroke:#000000;stroke-width:0.5;" x="108.0" xlink:href="#mc7db9fdffb" y="583.2"/>
      </g>
     </g>
     <g id="line2d_5">
      <defs>
       <path d="
M0 0
L0 4" id="m5a7d422ac3" style="stroke:#000000;stroke-width:0.5;"/>
      </defs>
      <g>
       <use style="stroke:#000000;stroke-width:0.5;" x="108.0" xlink:href="#m5a7d422ac3" y="64.8"/>
      </g>
     </g>
     <g id="text_1">
      <!-- 0 -->
      <defs>
       <path d="
M31.7812 66.4062
Q24.1719 66.4062 20.3281 58.9062
Q16.5 51.4219 16.5 36.375
Q16.5 21.3906 20.3281 13.8906
Q24.1719 6.39062 31.7812 6.39062
Q39.4531 6.39062 43.2812 13.8906
Q47.125 21.3906 47.125 36.375
Q47.125 51.4219 43.2812 58.9062
Q39.4531 66.4062 31.7812 66.4062
M31.7812 74.2188
Q44.0469 74.2188 50.5156 64.5156
Q56.9844 54.8281 56.9844 36.375
Q56.9844 17.9688 50.5156 8.26562
Q44.0469 -1.42188 31.7812 -1.42188
Q19.5312 -1.42188 13.0625 8.26562
Q6.59375 17.9688 6.59375 36.375
Q6.59375 54.8281 13.0625 64.5156
Q19.5312 74.2188 31.7812 74.2188" id="BitstreamVeraSans-Roman-30"/>
      </defs>
      <g transform="translate(104.9765625 596.318125)scale(0.12 -0.12)">
       <use xlink:href="#BitstreamVeraSans-Roman-30"/>
      </g>
     </g>
    </g>
    <g id="xtick_2">
     <g id="line2d_6">
      <g>
       <use style="stroke:#000000;stroke-width:0.5;" x="275.4" xlink:href="#mc7db9fdffb" y="583.2"/>
      </g>
     </g>
     <g id="line2d_7">
      <g>
       <use style="stroke:#000000;stroke-width:0.5;" x="275.4" xlink:href="#m5a7d422ac3" y="64.8"/>
      </g>
     </g>
     <g id="text_2">
      <!-- 50000 -->
      <defs>
       <path d="
M10.7969 72.9062
L49.5156 72.9062
L49.5156 64.5938
L19.8281 64.5938
L19.8281 46.7344
Q21.9688 47.4688 24.1094 47.8281
Q26.2656 48.1875 28.4219 48.1875
Q40.625 48.1875 47.75 41.5
Q54.8906 34.8125 54.8906 23.3906
Q54.8906 11.625 47.5625 5.09375
Q40.2344 -1.42188 26.9062 -1.42188
Q22.3125 -1.42188 17.5469 -0.640625
Q12.7969 0.140625 7.71875 1.70312
L7.71875 11.625
Q12.1094 9.23438 16.7969 8.0625
Q21.4844 6.89062 26.7031 6.89062
Q35.1562 6.89062 40.0781 11.3281
Q45.0156 15.7656 45.0156 23.3906
Q45.0156 31 40.0781 35.4375
Q35.1562 39.8906 26.7031 39.8906
Q22.75 39.8906 18.8125 39.0156
Q14.8906 38.1406 10.7969 36.2812
z
" id="BitstreamVeraSans-Roman-35"/>
      </defs>
      <g transform="translate(257.1740625 596.318125)scale(0.12 -0.12)">
       <use xlink:href="#BitstreamVeraSans-Roman-35"/>
       <use x="63.623046875" xlink:href="#BitstreamVeraSans-Roman-30"/>
       <use x="127.24609375" xlink:href="#BitstreamVeraSans-Roman-30"/>
       <use x="190.869140625" xlink:href="#BitstreamVeraSans-Roman-30"/>
       <use x="254.4921875" xlink:href="#BitstreamVeraSans-Roman-30"/>
      </g>
     </g>
    </g>
    <g id="xtick_3">
     <g id="line2d_8">
      <g>
       <use style="stroke:#000000;stroke-width:0.5;" x="442.8" xlink:href="#mc7db9fdffb" y="583.2"/>
      </g>
     </g>
     <g id="line2d_9">
      <g>
       <use style="stroke:#000000;stroke-width:0.5;" x="442.8" xlink:href="#m5a7d422ac3" y="64.8"/>
      </g>
     </g>
     <g id="text_3">
      <!-- 100000 -->
      <defs>
       <path d="
M12.4062 8.29688
L28.5156 8.29688
L28.5156 63.9219
L10.9844 60.4062
L10.9844 69.3906
L28.4219 72.9062
L38.2812 72.9062
L38.2812 8.29688
L54.3906 8.29688
L54.3906 0
L12.4062 0
z
" id="BitstreamVeraSans-Roman-31"/>
      </defs>
      <g transform="translate(420.9525 596.318125)scale(0.12 -0.12)">
       <use xlink:href="#BitstreamVeraSans-Roman-31"/>
       <use x="63.623046875" xlink:href="#BitstreamVeraSans-Roman-30"/>
       <use x="127.24609375" xlink:href="#BitstreamVeraSans-Roman-30"/>
       <use x="190.869140625" xlink:href="#BitstreamVeraSans-Roman-30"/>
       <use x="254.4921875" xlink:href="#BitstreamVeraSans-Roman-30"/>
       <use x="318.115234375" xlink:href="#BitstreamVeraSans-Roman-30"/>
      </g>
     </g>
    </g>
    <g id="xtick_4">
     <g id="line2d_10">
      <g>
       <use style="stroke:#000000;stroke-width:0.5;" x="610.2" xlink:href="#mc7db9fdffb" y="583.2"/>
      </g>
     </g>
     <g id="line2d_11">
      <g>
       <use style="stroke:#000000;stroke-width:0.5;" x="610.2" xlink:href="#m5a7d422ac3" y="64.8"/>
      </g>
     </g>
     <g id="text_4">
      <!-- 150000 -->
      <g transform="translate(588.3525 596.318125)scale(0.12 -0.12)">
       <use xlink:href="#BitstreamVeraSans-Roman-31"/>
       <use x="63.623046875" xlink:href="#BitstreamVeraSans-Roman-35"/>
       <use x="127.24609375" xlink:href="#BitstreamVeraSans-Roman-30"/>
       <use x="190.869140625" xlink:href="#BitstreamVeraSans-Roman-30"/>
       <use x="254.4921875" xlink:href="#BitstreamVeraSans-Roman-30"/>
       <use x="318.115234375" xlink:href="#BitstreamVeraSans-Roman-30"/>
      </g>
     </g>
    </g>
    <g id="xtick_5">
     <g id="line2d_12">
      <g>
       <use style="stroke:#000000;stroke-width:0.5;" x="777.6" xlink:href="#mc7db9fdffb" y="583.2"/>
      </g>
     </g>
     <g id="line2d_13">
      <g>
       <use style="stroke:#000000;stroke-width:0.5;" x="777.6" xlink:href="#m5a7d422ac3" y="64.8"/>
      </g>
     </g>
     <g id="text_5">
      <!-- 200000 -->
      <defs>
       <path d="
M19.1875 8.29688
L53.6094 8.29688
L53.6094 0
L7.32812 0
L7.32812 8.29688
Q12.9375 14.1094 22.625 23.8906
Q32.3281 33.6875 34.8125 36.5312
Q39.5469 41.8438 41.4219 45.5312
Q43.3125 49.2188 43.3125 52.7812
Q43.3125 58.5938 39.2344 62.25
Q35.1562 65.9219 28.6094 65.9219
Q23.9688 65.9219 18.8125 64.3125
Q13.6719 62.7031 7.8125 59.4219
L7.8125 69.3906
Q13.7656 71.7812 18.9375 73
Q24.125 74.2188 28.4219 74.2188
Q39.75 74.2188 46.4844 68.5469
Q53.2188 62.8906 53.2188 53.4219
Q53.2188 48.9219 51.5312 44.8906
Q49.8594 40.875 45.4062 35.4062
Q44.1875 33.9844 37.6406 27.2188
Q31.1094 20.4531 19.1875 8.29688" id="BitstreamVeraSans-Roman-32"/>
      </defs>
      <g transform="translate(755.533125 596.318125)scale(0.12 -0.12)">
       <use xlink:href="#BitstreamVeraSans-Roman-32"/>
       <use x="63.623046875" xlink:href="#BitstreamVeraSans-Roman-30"/>
       <use x="127.24609375" xlink:href="#BitstreamVeraSans-Roman-30"/>
       <use x="190.869140625" xlink:href="#BitstreamVeraSans-Roman-30"/>
       <use x="254.4921875" xlink:href="#BitstreamVeraSans-Roman-30"/>
       <use x="318.115234375" xlink:href="#BitstreamVeraSans-Roman-30"/>
      </g>
     </g>
    </g>
    <g id="text_6">
     <!-- t / ms -->
     <defs>
      <path d="
M18.3125 70.2188
L18.3125 54.6875
L36.8125 54.6875
L36.8125 47.7031
L18.3125 47.7031
L18.3125 18.0156
Q18.3125 11.3281 20.1406 9.42188
Q21.9688 7.51562 27.5938 7.51562
L36.8125 7.51562
L36.8125 0
L27.5938 0
Q17.1875 0 13.2344 3.875
Q9.28125 7.76562 9.28125 18.0156
L9.28125 47.7031
L2.6875 47.7031
L2.6875 54.6875
L9.28125 54.6875
L9.28125 70.2188
z
" id="BitstreamVeraSans-Roman-74"/>
      <path d="
M25.3906 72.9062
L33.6875 72.9062
L8.29688 -9.28125
L0 -9.28125
z
" id="BitstreamVeraSans-Roman-2f"/>
      <path id="BitstreamVeraSans-Roman-20"/>
      <path d="
M44.2812 53.0781
L44.2812 44.5781
Q40.4844 46.5312 36.375 47.5
Q32.2812 48.4844 27.875 48.4844
Q21.1875 48.4844 17.8438 46.4375
Q14.5 44.3906 14.5 40.2812
Q14.5 37.1562 16.8906 35.375
Q19.2812 33.5938 26.5156 31.9844
L29.5938 31.2969
Q39.1562 29.25 43.1875 25.5156
Q47.2188 21.7812 47.2188 15.0938
Q47.2188 7.46875 41.1875 3.01562
Q35.1562 -1.42188 24.6094 -1.42188
Q20.2188 -1.42188 15.4531 -0.5625
Q10.6875 0.296875 5.42188 2
L5.42188 11.2812
Q10.4062 8.6875 15.2344 7.39062
Q20.0625 6.10938 24.8125 6.10938
Q31.1562 6.10938 34.5625 8.28125
Q37.9844 10.4531 37.9844 14.4062
Q37.9844 18.0625 35.5156 20.0156
Q33.0625 21.9688 24.7031 23.7812
L21.5781 24.5156
Q13.2344 26.2656 9.51562 29.9062
Q5.8125 33.5469 5.8125 39.8906
Q5.8125 47.6094 11.2812 51.7969
Q16.75 56 26.8125 56
Q31.7812 56 36.1719 55.2656
Q40.5781 54.5469 44.2812 53.0781" id="BitstreamVeraSans-Roman-73"/>
      <path d="
M52 44.1875
Q55.375 50.25 60.0625 53.125
Q64.75 56 71.0938 56
Q79.6406 56 84.2812 50.0156
Q88.9219 44.0469 88.9219 33.0156
L88.9219 0
L79.8906 0
L79.8906 32.7188
Q79.8906 40.5781 77.0938 44.375
Q74.3125 48.1875 68.6094 48.1875
Q61.625 48.1875 57.5625 43.5469
Q53.5156 38.9219 53.5156 30.9062
L53.5156 0
L44.4844 0
L44.4844 32.7188
Q44.4844 40.625 41.7031 44.4062
Q38.9219 48.1875 33.1094 48.1875
Q26.2188 48.1875 22.1562 43.5312
Q18.1094 38.875 18.1094 30.9062
L18.1094 0
L9.07812 0
L9.07812 54.6875
L18.1094 54.6875
L18.1094 46.1875
Q21.1875 51.2188 25.4844 53.6094
Q29.7812 56 35.6875 56
Q41.6562 56 45.8281 52.9688
Q50 49.9531 52 44.1875" id="BitstreamVeraSans-Roman-6d"/>
     </defs>
     <g transform="translate(425.9353125 612.931875)scale(0.12 -0.12)">
      <use xlink:href="#BitstreamVeraSans-Roman-74"/>
      <use x="39.208984375" xlink:href="#BitstreamVeraSans-Roman-20"/>
      <use x="70.99609375" xlink:href="#BitstreamVeraSans-Roman-2f"/>
      <use x="104.6875" xlink:href="#BitstreamVeraSans-Roman-20"/>
      <use x="136.474609375" xlink:href="#BitstreamVeraSans-Roman-6d"/>
      <use x="233.88671875" xlink:href="#BitstreamVeraSans-Roman-73"/>
     </g>
    </g>
   </g>
   <g id="matplotlib.axis_2">
    <g id="ytick_1">
     <g id="line2d_14">
      <defs>
       <path d="
M0 0
L4 0" id="md7965d1ba0" style="stroke:#000000;stroke-width:0.5;"/>
      </defs>
      <g>
       <use style="stroke:#000000;stroke-width:0.5;" x="108.0" xlink:href="#md7965d1ba0" y="583.2"/>
      </g>
     </g>
     <g id="line2d_15">
      <defs>
       <path d="
M0 0
L-4 0" id="md9a1c1a7cd" style="stroke:#000000;stroke-width:0.5;"/>
      </defs>
      <g>
       <use style="stroke:#000000;stroke-width:0.5;" x="777.6" xlink:href="#md9a1c1a7cd" y="583.2"/>
      </g>
     </g>
     <g id="text_7">
      <!-- 0 -->
      <g transform="translate(97.953125 586.51125)scale(0.12 -0.12)">
       <use xlink:href="#BitstreamVeraSans-Roman-30"/>
      </g>
     </g>
    </g>
    <g id="ytick_2">
     <g id="line2d_16">
      <g>
       <use style="stroke:#000000;stroke-width:0.5;" x="108.0" xlink:href="#md7965d1ba0" y="479.52"/>
      </g>
     </g>
     <g id="line2d_17">
      <g>
       <use style="stroke:#000000;stroke-width:0.5;" x="777.6" xlink:href="#md9a1c1a7cd" y="479.52"/>
      </g>
     </g>
     <g id="text_8">
      <!-- 500 -->
      <g transform="translate(82.818125 482.83125)scale(0.12 -0.12)">
       <use xlink:href="#BitstreamVeraSans-Roman-35"/>
       <use x="63.623046875" xlink:href="#BitstreamVeraSans-Roman-30"/>
       <use x="127.24609375" xlink:href="#BitstreamVeraSans-Roman-30"/>
      </g>
     </g>
    </g>
    <g id="ytick_3">
     <g id="line2d_18">
      <g>
       <use style="stroke:#000000;stroke-width:0.5;" x="108.0" xlink:href="#md7965d1ba0" y="375.84"/>
      </g>
     </g>
     <g id="line2d_19">
      <g>
       <use style="stroke:#000000;stroke-width:0.5;" x="777.6" xlink:href="#md9a1c1a7cd" y="375.84"/>
      </g>
     </g>
     <g id="text_9">
      <!-- 1000 -->
      <g transform="translate(75.575 379.15125)scale(0.12 -0.12)">
       <use xlink:href="#BitstreamVeraSans-Roman-31"/>
       <use x="63.623046875" xlink:href="#BitstreamVeraSans-Roman-30"/>
       <use x="127.24609375" xlink:href="#BitstreamVeraSans-Roman-30"/>
       <use x="190.869140625" xlink:href="#BitstreamVeraSans-Roman-30"/>
      </g>
     </g>
    </g>
    <g id="ytick_4">
     <g id="line2d_20">
      <g>
       <use style="stroke:#000000;stroke-width:0.5;" x="108.0" xlink:href="#md7965d1ba0" y="272.16"/>
      </g>
     </g>
     <g id="line2d_21">
      <g>
       <use style="stroke:#000000;stroke-width:0.5;" x="777.6" xlink:href="#md9a1c1a7cd" y="272.16"/>
      </g>
     </g>
     <g id="text_10">
      <!-- 1500 -->
      <g transform="translate(75.575 275.47125)scale(0.12 -0.12)">
       <use xlink:href="#BitstreamVeraSans-Roman-31"/>
       <use x="63.623046875" xlink:href="#BitstreamVeraSans-Roman-35"/>
       <use x="127.24609375" xlink:href="#BitstreamVeraSans-Roman-30"/>
       <use x="190.869140625" xlink:href="#BitstreamVeraSans-Roman-30"/>
      </g>
     </g>
    </g>
    <g id="ytick_5">
     <g id="line2d_22">
      <g>
       <use style="stroke:#000000;stroke-width:0.5;" x="108.0" xlink:href="#md7965d1ba0" y="168.48"/>
      </g>
     </g>
     <g id="line2d_23">
      <g>
       <use style="stroke:#000000;stroke-width:0.5;" x="777.6" xlink:href="#md9a1c1a7cd" y="168.48"/>
      </g>
     </g>
     <g id="text_11">
      <!-- 2000 -->
      <g transform="translate(75.13625 171.79125)scale(0.12 -0.12)">
       <use xlink:href="#BitstreamVeraSans-Roman-32"/>
       <use x="63.623046875" xlink:href="#BitstreamVeraSans-Roman-30"/>
       <use x="127.24609375" xlink:href="#BitstreamVeraSans-Roman-30"/>
       <use x="190.869140625" xlink:href="#BitstreamVeraSans-Roman-30"/>
      </g>
     </g>
    </g>
    <g id="ytick_6">
     <g id="line2d_24">
      <g>
       <use style="stroke:#000000;stroke-width:0.5;" x="108.0" xlink:href="#md7965d1ba0" y="64.8"/>
      </g>
     </g>
     <g id="line2d_25">
      <g>
       <use style="stroke:#000000;stroke-width:0.5;" x="777.6" xlink:href="#md9a1c1a7cd" y="64.8"/>
      </g>
     </g>
     <g id="text_12">
      <!-- 2500 -->
      <g transform="translate(75.13625 68.11125)scale(0.12 -0.12)">
       <use xlink:href="#BitstreamVeraSans-Roman-32"/>
       <use x="63.623046875" xlink:href="#BitstreamVeraSans-Roman-35"/>
       <use x="127.24609375" xlink:href="#BitstreamVeraSans-Roman-30"/>
       <use x="190.869140625" xlink:href="#BitstreamVeraSans-Roman-30"/>
      </g>
     </g>
    </g>
    <g id="text_13">
     <!-- particle numbers -->
     <defs>
      <path d="
M9.42188 54.6875
L18.4062 54.6875
L18.4062 0
L9.42188 0
z

M9.42188 75.9844
L18.4062 75.9844
L18.4062 64.5938
L9.42188 64.5938
z
" id="BitstreamVeraSans-Roman-69"/>
      <path d="
M48.7812 52.5938
L48.7812 44.1875
Q44.9688 46.2969 41.1406 47.3438
Q37.3125 48.3906 33.4062 48.3906
Q24.6562 48.3906 19.8125 42.8438
Q14.9844 37.3125 14.9844 27.2969
Q14.9844 17.2812 19.8125 11.7344
Q24.6562 6.20312 33.4062 6.20312
Q37.3125 6.20312 41.1406 7.25
Q44.9688 8.29688 48.7812 10.4062
L48.7812 2.09375
Q45.0156 0.34375 40.9844 -0.53125
Q36.9688 -1.42188 32.4219 -1.42188
Q20.0625 -1.42188 12.7812 6.34375
Q5.51562 14.1094 5.51562 27.2969
Q5.51562 40.6719 12.8594 48.3281
Q20.2188 56 33.0156 56
Q37.1562 56 41.1094 55.1406
Q45.0625 54.2969 48.7812 52.5938" id="BitstreamVeraSans-Roman-63"/>
      <path d="
M48.6875 27.2969
Q48.6875 37.2031 44.6094 42.8438
Q40.5312 48.4844 33.4062 48.4844
Q26.2656 48.4844 22.1875 42.8438
Q18.1094 37.2031 18.1094 27.2969
Q18.1094 17.3906 22.1875 11.75
Q26.2656 6.10938 33.4062 6.10938
Q40.5312 6.10938 44.6094 11.75
Q48.6875 17.3906 48.6875 27.2969
M18.1094 46.3906
Q20.9531 51.2656 25.2656 53.625
Q29.5938 56 35.5938 56
Q45.5625 56 51.7812 48.0938
Q58.0156 40.1875 58.0156 27.2969
Q58.0156 14.4062 51.7812 6.48438
Q45.5625 -1.42188 35.5938 -1.42188
Q29.5938 -1.42188 25.2656 0.953125
Q20.9531 3.32812 18.1094 8.20312
L18.1094 0
L9.07812 0
L9.07812 75.9844
L18.1094 75.9844
z
" id="BitstreamVeraSans-Roman-62"/>
      <path d="
M56.2031 29.5938
L56.2031 25.2031
L14.8906 25.2031
Q15.4844 15.9219 20.4844 11.0625
Q25.4844 6.20312 34.4219 6.20312
Q39.5938 6.20312 44.4531 7.46875
Q49.3125 8.73438 54.1094 11.2812
L54.1094 2.78125
Q49.2656 0.734375 44.1875 -0.34375
Q39.1094 -1.42188 33.8906 -1.42188
Q20.7969 -1.42188 13.1562 6.1875
Q5.51562 13.8125 5.51562 26.8125
Q5.51562 40.2344 12.7656 48.1094
Q20.0156 56 32.3281 56
Q43.3594 56 49.7812 48.8906
Q56.2031 41.7969 56.2031 29.5938
M47.2188 32.2344
Q47.125 39.5938 43.0938 43.9844
Q39.0625 48.3906 32.4219 48.3906
Q24.9062 48.3906 20.3906 44.1406
Q15.875 39.8906 15.1875 32.1719
z
" id="BitstreamVeraSans-Roman-65"/>
      <path d="
M54.8906 33.0156
L54.8906 0
L45.9062 0
L45.9062 32.7188
Q45.9062 40.4844 42.875 44.3281
Q39.8438 48.1875 33.7969 48.1875
Q26.5156 48.1875 22.3125 43.5469
Q18.1094 38.9219 18.1094 30.9062
L18.1094 0
L9.07812 0
L9.07812 54.6875
L18.1094 54.6875
L18.1094 46.1875
Q21.3438 51.125 25.7031 53.5625
Q30.0781 56 35.7969 56
Q45.2188 56 50.0469 50.1719
Q54.8906 44.3438 54.8906 33.0156" id="BitstreamVeraSans-Roman-6e"/>
      <path d="
M41.1094 46.2969
Q39.5938 47.1719 37.8125 47.5781
Q36.0312 48 33.8906 48
Q26.2656 48 22.1875 43.0469
Q18.1094 38.0938 18.1094 28.8125
L18.1094 0
L9.07812 0
L9.07812 54.6875
L18.1094 54.6875
L18.1094 46.1875
Q20.9531 51.1719 25.4844 53.5781
Q30.0312 56 36.5312 56
Q37.4531 56 38.5781 55.875
Q39.7031 55.7656 41.0625 55.5156
z
" id="BitstreamVeraSans-Roman-72"/>
      <path d="
M18.1094 8.20312
L18.1094 -20.7969
L9.07812 -20.7969
L9.07812 54.6875
L18.1094 54.6875
L18.1094 46.3906
Q20.9531 51.2656 25.2656 53.625
Q29.5938 56 35.5938 56
Q45.5625 56 51.7812 48.0938
Q58.0156 40.1875 58.0156 27.2969
Q58.0156 14.4062 51.7812 6.48438
Q45.5625 -1.42188 35.5938 -1.42188
Q29.5938 -1.42188 25.2656 0.953125
Q20.9531 3.32812 18.1094 8.20312
M48.6875 27.2969
Q48.6875 37.2031 44.6094 42.8438
Q40.5312 48.4844 33.4062 48.4844
Q26.2656 48.4844 22.1875 42.8438
Q18.1094 37.2031 18.1094 27.2969
Q18.1094 17.3906 22.1875 11.75
Q26.2656 6.10938 33.4062 6.10938
Q40.5312 6.10938 44.6094 11.75
Q48.6875 17.3906 48.6875 27.2969" id="BitstreamVeraSans-Roman-70"/>
      <path d="
M8.5 21.5781
L8.5 54.6875
L17.4844 54.6875
L17.4844 21.9219
Q17.4844 14.1562 20.5 10.2656
Q23.5312 6.39062 29.5938 6.39062
Q36.8594 6.39062 41.0781 11.0312
Q45.3125 15.6719 45.3125 23.6875
L45.3125 54.6875
L54.2969 54.6875
L54.2969 0
L45.3125 0
L45.3125 8.40625
Q42.0469 3.42188 37.7188 1
Q33.4062 -1.42188 27.6875 -1.42188
Q18.2656 -1.42188 13.375 4.4375
Q8.5 10.2969 8.5 21.5781" id="BitstreamVeraSans-Roman-75"/>
      <path d="
M9.42188 75.9844
L18.4062 75.9844
L18.4062 0
L9.42188 0
z
" id="BitstreamVeraSans-Roman-6c"/>
      <path d="
M34.2812 27.4844
Q23.3906 27.4844 19.1875 25
Q14.9844 22.5156 14.9844 16.5
Q14.9844 11.7188 18.1406 8.90625
Q21.2969 6.10938 26.7031 6.10938
Q34.1875 6.10938 38.7031 11.4062
Q43.2188 16.7031 43.2188 25.4844
L43.2188 27.4844
z

M52.2031 31.2031
L52.2031 0
L43.2188 0
L43.2188 8.29688
Q40.1406 3.32812 35.5469 0.953125
Q30.9531 -1.42188 24.3125 -1.42188
Q15.9219 -1.42188 10.9531 3.29688
Q6 8.01562 6 15.9219
Q6 25.1406 12.1719 29.8281
Q18.3594 34.5156 30.6094 34.5156
L43.2188 34.5156
L43.2188 35.4062
Q43.2188 41.6094 39.1406 45
Q35.0625 48.3906 27.6875 48.3906
Q23 48.3906 18.5469 47.2656
Q14.1094 46.1406 10.0156 43.8906
L10.0156 52.2031
Q14.9375 54.1094 19.5781 55.0469
Q24.2188 56 28.6094 56
Q40.4844 56 46.3438 49.8438
Q52.2031 43.7031 52.2031 31.2031" id="BitstreamVeraSans-Roman-61"/>
     </defs>
     <g transform="translate(67.640625 374.78625)rotate(-90.0)scale(0.12 -0.12)">
      <use xlink:href="#BitstreamVeraSans-Roman-70"/>
      <use x="63.4765625" xlink:href="#BitstreamVeraSans-Roman-61"/>
      <use x="124.755859375" xlink:href="#BitstreamVeraSans-Roman-72"/>
      <use x="165.869140625" xlink:href="#BitstreamVeraSans-Roman-74"/>
      <use x="205.078125" xlink:href="#BitstreamVeraSans-Roman-69"/>
      <use x="232.861328125" xlink:href="#BitstreamVeraSans-Roman-63"/>
      <use x="287.841796875" xlink:href="#BitstreamVeraSans-Roman-6c"/>
      <use x="315.625" xlink:href="#BitstreamVeraSans-Roman-65"/>
      <use x="377.1484375" xlink:href="#BitstreamVeraSans-Roman-20"/>
      <use x="408.935546875" xlink:href="#BitstreamVeraSans-Roman-6e"/>
      <use x="472.314453125" xlink:href="#BitstreamVeraSans-Roman-75"/>
      <use x="535.693359375" xlink:href="#BitstreamVeraSans-Roman-6d"/>
      <use x="633.10546875" xlink:href="#BitstreamVeraSans-Roman-62"/>
      <use x="696.58203125" xlink:href="#BitstreamVeraSans-Roman-65"/>
      <use x="758.10546875" xlink:href="#BitstreamVeraSans-Roman-72"/>
      <use x="799.21875" xlink:href="#BitstreamVeraSans-Roman-73"/>
     </g>
    </g>
   </g>
   <g id="legend_1">
    <g id="patch_7">
     <path d="
M724.53 101.224
L774.1 101.224
L774.1 68.3
L724.53 68.3
z
" style="fill:#ffffff;stroke:#000000;stroke-linejoin:miter;"/>
    </g>
    <g id="line2d_26">
     <path d="
M729.43 73.9689
L739.23 73.9689" style="fill:none;stroke:#ff0000;stroke-linecap:square;"/>
    </g>
    <g id="line2d_27"/>
    <g id="text_14">
     <!-- Da el.0 -->
     <defs>
      <path d="
M10.6875 12.4062
L21 12.4062
L21 0
L10.6875 0
z
" id="BitstreamVeraSans-Roman-2e"/>
      <path d="
M19.6719 64.7969
L19.6719 8.10938
L31.5938 8.10938
Q46.6875 8.10938 53.6875 14.9375
Q60.6875 21.7812 60.6875 36.5312
Q60.6875 51.1719 53.6875 57.9844
Q46.6875 64.7969 31.5938 64.7969
z

M9.8125 72.9062
L30.0781 72.9062
Q51.2656 72.9062 61.1719 64.0938
Q71.0938 55.2812 71.0938 36.5312
Q71.0938 17.6719 61.125 8.82812
Q51.1719 0 30.0781 0
L9.8125 0
z
" id="BitstreamVeraSans-Roman-44"/>
     </defs>
     <g transform="translate(746.93015625 76.41890625)scale(0.07 -0.07)">
      <use xlink:href="#BitstreamVeraSans-Roman-44"/>
      <use x="77.001953125" xlink:href="#BitstreamVeraSans-Roman-61"/>
      <use x="138.28125" xlink:href="#BitstreamVeraSans-Roman-20"/>
      <use x="170.068359375" xlink:href="#BitstreamVeraSans-Roman-65"/>
      <use x="231.591796875" xlink:href="#BitstreamVeraSans-Roman-6c"/>
      <use x="259.375" xlink:href="#BitstreamVeraSans-Roman-2e"/>
      <use x="291.162109375" xlink:href="#BitstreamVeraSans-Roman-30"/>
     </g>
    </g>
    <g id="line2d_28">
     <path d="
M729.43 84.2436
L739.23 84.2436" style="fill:none;stroke:#008000;stroke-linecap:square;"/>
    </g>
    <g id="line2d_29"/>
    <g id="text_15">
     <!-- Da el.1 -->
     <g transform="translate(746.93015625 86.69359375)scale(0.07 -0.07)">
      <use xlink:href="#BitstreamVeraSans-Roman-44"/>
      <use x="77.001953125" xlink:href="#BitstreamVeraSans-Roman-61"/>
      <use x="138.28125" xlink:href="#BitstreamVeraSans-Roman-20"/>
      <use x="170.068359375" xlink:href="#BitstreamVeraSans-Roman-65"/>
      <use x="231.591796875" xlink:href="#BitstreamVeraSans-Roman-6c"/>
      <use x="259.375" xlink:href="#BitstreamVeraSans-Roman-2e"/>
      <use x="291.162109375" xlink:href="#BitstreamVeraSans-Roman-31"/>
     </g>
    </g>
    <g id="line2d_30">
     <path d="
M729.43 94.5183
L739.23 94.5183" style="fill:none;stroke:#0000ff;stroke-linecap:square;"/>
    </g>
    <g id="line2d_31"/>
    <g id="text_16">
     <!-- Da el.2 -->
     <g transform="translate(746.93015625 96.96828125)scale(0.07 -0.07)">
      <use xlink:href="#BitstreamVeraSans-Roman-44"/>
      <use x="77.001953125" xlink:href="#BitstreamVeraSans-Roman-61"/>
      <use x="138.28125" xlink:href="#BitstreamVeraSans-Roman-20"/>
      <use x="170.068359375" xlink:href="#BitstreamVeraSans-Roman-65"/>
      <use x="231.591796875" xlink:href="#BitstreamVeraSans-Roman-6c"/>
      <use x="259.375" xlink:href="#BitstreamVeraSans-Roman-2e"/>
      <use x="291.162109375" xlink:href="#BitstreamVeraSans-Roman-32"/>
     </g>
    </g>
   </g>
  </g>
 </g>
 <defs>
  <clipPath id="p7ceb695115">
   <rect height="518.4" width="669.6" x="108.0" y="64.8"/>
  </clipPath>
 </defs>
</svg>
