<?xml version="1.0" encoding="utf-8" standalone="no"?>
<!DOCTYPE svg PUBLIC "-//W3C//DTD SVG 1.1//EN"
  "http://www.w3.org/Graphics/SVG/1.1/DTD/svg11.dtd">
<!-- Created with matplotlib (http://matplotlib.org/) -->
<svg height="648pt" version="1.1" viewBox="0 0 864 648" width="864pt" xmlns="http://www.w3.org/2000/svg" xmlns:xlink="http://www.w3.org/1999/xlink">
 <defs>
  <style type="text/css">
*{stroke-linecap:butt;stroke-linejoin:round;}
  </style>
 </defs>
 <g id="figure_1">
  <g id="patch_1">
   <path d="
M0 648
L864 648
L864 0
L0 0
z
" style="fill:#ffffff;"/>
  </g>
  <g id="axes_1">
   <g id="patch_2">
    <path d="
M108 583.2
L777.6 583.2
L777.6 64.8
L108 64.8
z
" style="fill:#ffffff;"/>
   </g>
   <g id="line2d_1">
    <path clip-path="url(#p7ceb695115)" d="
M108 583.2
L108.67 580.608
L109.339 580.09
L110.009 580.608
L110.678 580.09
L111.348 578.534
L112.018 577.498
L112.687 575.942
L113.357 574.906
L114.026 573.35
L114.696 572.314
L115.366 570.24
L116.035 566.611
L116.705 561.946
L118.044 554.688
L118.714 550.022
L119.383 546.912
L120.053 545.357
L120.722 543.283
L121.392 540.173
L122.062 539.136
L122.731 537.062
L123.401 535.507
L125.41 523.584
L126.079 520.992
L126.749 520.474
L127.418 514.253
L128.088 509.587
L128.758 509.587
L129.427 506.477
L130.097 504.922
L134.114 483.667
L134.784 485.222
L135.454 484.186
L136.123 483.667
L136.793 478.483
L137.462 477.965
L138.132 476.928
L138.802 473.818
L139.471 472.262
L140.141 471.744
L140.81 468.634
L142.819 462.413
L143.489 462.931
L144.158 462.413
L144.828 460.858
L146.167 455.674
L146.837 457.229
L147.506 456.192
L148.176 454.118
L148.846 452.563
L149.515 452.563
L150.185 453.6
L150.854 451.526
L151.524 452.045
L152.194 451.008
L152.863 450.49
L153.533 450.49
L154.202 448.934
L154.872 446.342
L155.542 446.342
L156.211 445.306
L157.55 449.453
L158.22 448.416
L158.89 447.898
L159.559 446.861
L160.229 446.342
L160.898 444.787
L161.568 443.75
L162.238 444.269
L162.907 443.232
L163.577 441.677
L164.246 441.677
L164.916 440.64
L165.586 438.048
L166.255 442.195
L166.925 440.64
L167.594 441.677
L168.264 441.677
L168.934 441.158
L169.603 437.011
L170.942 437.011
L171.612 440.64
L172.282 441.677
L174.29 438.566
L174.96 438.566
L175.63 442.714
L176.299 444.269
L176.969 442.195
L177.638 444.269
L178.308 441.677
L178.978 438.048
L179.647 437.011
L180.317 438.566
L180.986 437.53
L181.656 438.048
L182.326 438.048
L182.995 438.566
L183.665 438.566
L184.334 440.122
L185.004 439.085
L185.674 439.603
L186.343 438.566
L187.013 438.048
L187.682 434.938
L188.352 439.085
L189.022 441.158
L189.691 439.085
L190.361 438.048
L191.03 437.53
L191.7 438.566
L192.37 436.493
L193.039 433.382
L193.709 435.974
L194.378 437.011
L195.048 437.011
L195.718 437.53
L197.057 436.493
L197.726 439.085
L198.396 437.011
L199.066 438.566
L199.735 435.974
L200.405 433.901
L201.074 433.382
L201.744 431.827
L202.414 436.493
L203.083 437.53
L203.753 435.456
L204.422 433.901
L205.092 433.901
L205.762 432.864
L206.431 430.272
L207.101 430.79
L208.44 427.68
L209.11 428.198
L209.779 428.198
L210.449 429.235
L211.118 429.754
L211.788 429.235
L212.458 428.198
L213.127 429.754
L213.797 429.754
L214.466 428.198
L215.136 429.235
L215.806 428.717
L216.475 431.827
L217.145 435.974
L217.814 434.419
L218.484 435.456
L219.154 432.864
L219.823 433.901
L220.493 432.346
L221.162 432.346
L221.832 431.827
L222.502 433.382
L223.171 429.235
L223.841 429.754
L224.51 429.754
L225.18 431.309
L225.85 429.754
L226.519 429.754
L227.189 430.272
L227.858 429.235
L228.528 428.717
L229.198 428.717
L229.867 426.643
L230.537 425.088
L231.206 428.717
L231.876 431.309
L232.546 429.235
L233.215 429.754
L233.885 432.864
L234.554 432.864
L235.224 434.419
L235.894 430.79
L236.563 429.754
L237.902 431.827
L238.572 429.754
L239.242 430.79
L239.911 430.79
L240.581 427.68
L241.25 429.754
L241.92 427.162
L242.59 426.643
L243.259 426.643
L243.929 429.754
L244.598 431.827
L245.268 429.235
L245.938 429.754
L246.607 428.198
L247.277 429.754
L247.946 428.717
L249.286 423.533
L249.955 422.496
L250.625 421.978
L251.294 422.496
L251.964 420.941
L252.634 425.088
L253.303 422.496
L253.973 420.941
L254.642 418.867
L255.312 418.867
L255.982 415.757
L256.651 418.349
L257.321 420.422
L257.99 423.533
L259.33 424.57
L259.999 423.014
L261.338 429.235
L262.008 425.606
L262.678 424.051
L263.347 426.125
L264.017 427.68
L264.686 426.643
L265.356 427.68
L266.026 429.235
L266.695 429.754
L267.365 423.014
L268.034 423.533
L269.374 427.68
L270.043 428.198
L270.713 429.754
L271.382 428.717
L272.052 429.754
L272.722 430.272
L273.391 428.198
L274.061 429.235
L274.73 431.309
L275.4 435.456
L276.07 435.456
L276.739 432.346
L277.409 432.346
L278.078 430.272
L278.748 427.162
L279.418 425.088
L280.087 426.125
L280.757 427.68
L281.426 427.162
L282.096 424.051
L282.766 428.717
L283.435 427.68
L284.105 429.754
L284.774 430.79
L285.444 429.235
L286.114 429.235
L286.783 428.198
L287.453 428.717
L288.122 426.643
L288.792 425.606
L289.462 424.051
L290.131 423.014
L290.801 423.014
L291.47 421.978
L292.14 419.386
L292.81 421.459
L293.479 422.496
L294.149 426.125
L294.818 428.198
L295.488 426.125
L296.158 428.717
L296.827 426.643
L297.497 425.088
L298.836 425.088
L299.506 427.68
L300.845 424.57
L302.184 420.422
L302.854 419.386
L303.523 418.867
L304.193 417.312
L304.862 419.386
L305.532 419.904
L306.202 417.312
L306.871 417.312
L307.541 419.904
L308.21 417.83
L309.55 419.904
L310.219 418.349
L310.889 415.757
L311.558 417.312
L312.228 418.349
L312.898 418.867
L313.567 421.978
L314.237 422.496
L314.906 421.978
L315.576 423.014
L316.246 421.978
L316.915 423.533
L317.585 421.978
L318.254 420.941
L318.924 420.941
L319.594 419.904
L320.263 417.312
L320.933 418.867
L321.602 418.867
L322.272 419.904
L322.942 419.904
L323.611 421.978
L324.281 419.904
L324.95 419.904
L325.62 420.422
L326.29 419.904
L326.959 418.349
L328.298 418.349
L329.638 415.238
L330.307 418.349
L330.977 416.794
L331.646 417.312
L332.316 414.202
L332.986 414.72
L333.655 411.091
L334.325 411.091
L334.994 409.536
L335.664 409.536
L336.334 411.091
L337.003 410.573
L337.673 408.499
L338.342 408.499
L339.682 404.352
L340.351 405.389
L341.021 405.907
L341.69 407.981
L342.36 409.536
L343.03 410.573
L343.699 412.646
L344.369 412.128
L345.708 415.238
L346.378 414.202
L347.717 416.275
L348.386 414.202
L349.056 411.61
L349.726 410.054
L350.395 409.536
L351.065 408.499
L351.734 404.352
L352.404 405.389
L353.074 404.87
L353.743 402.278
L355.082 399.168
L355.752 401.76
L356.422 402.278
L357.091 400.723
L357.761 399.686
L358.43 401.76
L359.1 401.242
L359.77 401.242
L360.439 396.576
L361.109 397.613
L361.778 395.021
L362.448 398.131
L363.118 402.797
L363.787 403.834
L364.457 405.389
L365.126 411.091
L365.796 409.536
L367.135 413.683
L367.805 415.238
L368.474 411.61
L371.153 409.536
L371.822 408.499
L372.492 412.646
L373.162 411.61
L373.831 410.054
L374.501 409.018
L375.17 410.573
L375.84 410.573
L376.51 411.091
L377.179 409.018
L377.849 413.165
L378.518 414.72
L379.188 414.202
L379.858 414.72
L380.527 416.275
L381.197 418.349
L381.866 419.904
L382.536 423.533
L383.206 420.422
L383.875 424.051
L385.214 426.125
L385.884 426.643
L386.554 429.235
L387.223 429.235
L387.893 430.272
L388.562 432.864
L389.232 435.974
L389.902 437.011
L390.571 436.493
L391.241 436.493
L391.91 437.011
L392.58 436.493
L393.25 433.901
L393.919 435.456
L394.589 433.901
L395.928 433.901
L396.598 435.974
L397.267 441.158
L397.937 442.714
L398.606 440.64
L399.276 439.603
L399.946 441.158
L400.615 437.53
L401.285 435.974
L401.954 438.048
L403.294 437.011
L403.963 438.566
L404.633 440.64
L405.302 439.603
L405.972 439.085
L406.642 439.603
L407.311 439.603
L407.981 441.677
L408.65 442.195
L409.32 443.232
L409.99 446.342
L410.659 444.787
L411.329 445.306
L411.998 445.306
L412.668 447.379
L413.338 448.934
L414.007 449.453
L414.677 447.379
L415.346 446.342
L416.016 446.342
L416.686 445.824
L418.025 451.008
L418.694 449.453
L419.364 449.971
L420.034 451.008
L420.703 451.008
L421.373 452.045
L422.042 450.49
L423.382 448.416
L424.721 449.453
L425.39 449.453
L426.06 448.934
L426.73 450.49
L427.399 449.453
L428.069 450.49
L428.738 453.082
L429.408 453.6
L430.078 452.563
L430.747 449.971
L431.417 450.49
L432.086 450.49
L432.756 448.934
L433.426 449.971
L434.095 452.563
L435.434 452.563
L436.104 451.526
L436.774 449.971
L438.113 451.008
L438.782 451.008
L439.452 449.453
L440.122 447.379
L440.791 445.824
L442.13 446.861
L442.8 449.971
L443.47 450.49
L444.139 449.453
L444.809 435.974
L445.478 407.981
L446.148 371.693
L447.487 234.835
L448.826 125.453
L449.496 110.938
L450.166 111.974
L450.835 119.232
L452.174 184.032
L453.514 257.126
L454.183 276.307
L454.853 316.742
L455.522 350.438
L456.192 360.288
L456.862 359.251
L457.531 391.392
L458.201 400.723
L458.87 417.83
L459.54 414.72
L460.21 431.309
L461.549 446.861
L462.888 426.643
L463.558 445.824
L464.227 460.858
L464.897 467.078
L466.236 448.416
L466.906 452.563
L467.575 467.078
L468.245 457.747
L468.914 457.229
L469.584 475.373
L470.254 462.931
L470.923 488.333
L471.593 455.674
L472.262 472.781
L472.932 479.52
L473.602 474.336
L474.271 478.483
L474.941 468.115
L475.61 468.634
L476.95 473.818
L477.619 490.925
L478.289 471.226
L478.958 470.189
L479.628 475.373
L480.298 483.149
L480.967 486.778
L481.637 484.704
L482.306 486.778
L482.976 481.594
L483.646 495.072
L484.315 472.262
L484.985 480.557
L485.654 485.222
L486.324 486.259
L486.994 487.814
L487.663 471.744
L488.333 492.998
L489.002 476.41
L489.672 479.52
L490.342 484.704
L491.011 479.002
L491.681 476.41
L492.35 476.928
L493.02 481.594
L493.69 482.112
L494.359 480.557
L495.029 489.37
L495.698 476.41
L496.368 490.406
L497.038 485.741
L497.707 469.67
L498.377 477.446
L499.046 463.968
L499.716 463.968
L500.386 484.186
L501.055 479.002
L501.725 469.152
L502.394 472.781
L503.064 483.149
L504.403 495.072
L505.073 473.818
L505.742 471.744
L506.412 476.41
L507.082 477.965
L507.751 495.072
L508.421 483.667
L509.09 488.333
L510.43 482.112
L511.099 485.222
L511.769 484.186
L512.438 477.446
L513.108 486.778
L513.778 480.038
L514.447 468.634
L515.117 474.854
L515.786 468.115
L516.456 479.52
L517.126 472.262
L517.795 473.299
L518.465 476.41
L519.134 476.928
L519.804 488.333
L520.474 476.928
L521.143 468.115
L521.813 480.038
L523.152 474.854
L523.822 479.52
L524.491 497.664
L525.161 486.259
L525.83 483.667
L526.5 484.186
L527.17 482.112
L527.839 490.925
L528.509 490.406
L529.178 482.63
L529.848 468.115
L530.518 480.557
L531.187 486.259
L532.526 476.41
L533.196 486.259
L533.866 463.968
L534.535 486.778
L535.205 467.597
L535.874 476.928
L536.544 482.63
L537.214 481.594
L538.553 470.707
L539.222 464.486
L539.892 486.778
L540.562 474.336
L541.231 469.152
L541.901 480.557
L542.57 484.704
L543.24 470.189
L543.91 471.226
L544.579 483.667
L545.249 468.634
L545.918 468.115
L546.588 457.747
L547.258 455.674
L547.927 479.002
L548.597 471.744
L549.266 462.413
L549.936 468.115
L550.606 474.854
L551.275 472.781
L551.945 469.67
L552.614 457.747
L553.284 468.115
L553.954 454.118
L554.623 474.854
L555.293 469.152
L555.962 460.858
L556.632 462.413
L557.302 467.597
L557.971 453.6
L558.641 458.266
L559.31 470.707
L559.98 460.858
L560.65 456.192
L561.319 469.152
L561.989 465.005
L562.658 459.821
L563.328 455.674
L564.667 461.894
L565.337 473.299
L566.006 453.6
L566.676 457.229
L567.346 475.891
L568.015 459.821
L568.685 452.045
L569.354 456.71
L570.024 468.634
L570.694 456.192
L571.363 459.821
L572.033 458.266
L573.372 451.526
L574.042 458.266
L574.711 462.931
L575.381 442.195
L576.05 446.342
L576.72 443.75
L577.39 448.416
L578.059 456.71
L578.729 461.376
L579.398 459.302
L580.068 441.158
L580.738 433.382
L581.407 443.75
L582.077 439.603
L582.746 433.901
L583.416 442.714
L584.086 444.269
L584.755 443.232
L585.425 434.938
L586.094 441.158
L586.764 455.155
L587.434 438.048
L588.103 453.6
L588.773 449.453
L589.442 454.118
L590.112 453.6
L590.782 448.934
L591.451 442.195
L592.121 445.824
L592.79 444.787
L593.46 426.643
L594.13 436.493
L594.799 441.677
L595.469 430.79
L596.138 431.309
L596.808 432.864
L597.478 451.008
L598.147 425.088
L598.817 420.941
L599.486 436.493
L600.156 430.79
L600.826 429.754
L601.495 435.456
L602.165 435.974
L602.834 435.456
L603.504 429.235
L604.174 437.53
L604.843 426.643
L605.513 430.272
L606.182 420.941
L606.852 414.202
L607.522 420.422
L608.191 431.309
L608.861 418.349
L609.53 413.165
L610.2 424.57
L610.87 401.76
L611.539 404.352
L612.209 420.422
L612.878 411.091
L613.548 397.094
L614.218 402.797
L615.557 427.68
L616.226 416.794
L616.896 417.312
L617.566 399.686
L618.235 413.165
L618.905 390.874
L619.574 410.573
L620.244 415.238
L620.914 405.907
L621.583 406.426
L622.253 415.238
L622.922 427.162
L623.592 405.389
L624.262 412.646
L624.931 404.87
L625.601 407.462
L626.27 424.051
L626.94 403.834
L627.61 403.315
L628.279 410.054
L628.949 399.168
L629.618 402.278
L630.288 410.573
L630.958 399.686
L631.627 392.429
L632.297 395.539
L632.966 403.315
L633.636 400.205
L634.306 411.091
L634.975 394.502
L635.645 398.65
L636.314 393.466
L636.984 401.242
L637.654 401.242
L638.323 389.837
L638.993 375.84
L639.662 387.763
L640.332 382.579
L641.002 397.613
L641.671 369.619
L642.341 358.733
L643.01 382.061
L643.68 387.763
L644.35 378.95
L645.019 400.205
L645.689 382.579
L646.358 381.024
L647.028 389.837
L647.698 407.981
L648.367 385.69
L649.037 388.8
L649.706 392.947
L650.376 390.874
L651.046 400.723
L651.715 382.061
L652.385 379.469
L653.054 396.576
L653.724 373.766
L654.394 362.88
L655.063 365.99
L655.733 366.509
L656.402 384.653
L657.072 370.656
L657.742 373.248
L658.411 357.696
L659.081 371.693
L659.75 371.693
L660.42 364.435
L661.09 342.144
L661.759 357.178
L662.429 362.362
L663.098 355.104
L663.768 357.696
L664.438 350.957
L665.107 370.656
L665.777 361.325
L666.446 364.954
L667.116 365.99
L667.786 368.582
L668.455 367.546
L669.125 348.883
L669.794 370.656
L670.464 353.549
L671.134 368.582
L671.803 357.178
L672.473 367.027
L673.142 358.214
L673.812 350.957
L674.482 348.365
L675.151 369.101
L675.821 351.475
L676.49 358.733
L677.16 369.101
L677.83 347.328
L678.499 365.472
L679.169 349.92
L679.838 353.03
L680.508 361.325
L681.178 336.96
L681.847 327.629
L682.517 340.589
L683.186 332.294
L683.856 337.997
L684.526 339.552
L685.195 341.626
L685.865 342.144
L686.534 345.254
L687.204 345.254
L687.874 345.773
L688.543 343.699
L689.213 334.368
L689.882 338.515
L690.552 333.85
L691.222 341.626
L691.891 351.475
L692.561 357.696
L693.23 345.773
L693.9 327.629
L694.57 321.926
L695.239 328.666
L695.909 336.96
L696.578 337.997
L697.248 335.923
L697.918 328.147
L698.587 330.739
L699.257 321.926
L699.926 317.261
L700.596 328.666
L701.266 322.963
L701.935 315.187
L702.605 330.221
L703.274 337.997
L703.944 328.147
L704.614 346.291
L705.283 325.555
L705.953 311.558
L706.622 327.11
L707.292 323.482
L707.962 331.258
L708.631 321.408
L709.301 331.258
L709.97 319.334
L710.64 318.816
L711.31 318.816
L711.979 304.301
L712.649 310.003
L713.318 324.518
L713.988 334.368
L714.658 308.966
L715.327 314.669
L715.997 324.518
L716.666 330.739
L717.336 331.258
L718.006 334.368
L718.675 345.773
L719.345 334.886
L720.014 328.666
L720.684 324.518
L721.354 325.037
L722.023 315.706
L722.693 320.89
L723.362 307.411
L724.032 297.562
L724.702 317.261
L725.371 301.19
L726.041 311.558
L726.71 324
L727.38 314.15
L728.05 307.93
L728.719 314.669
L729.389 316.224
L730.058 314.669
L730.728 319.853
L731.398 317.779
L732.067 327.629
L732.737 311.04
L733.406 314.669
L734.076 309.485
L734.746 327.11
L735.415 311.558
L736.085 312.595
L736.754 313.114
L738.094 292.896
L738.763 309.485
L739.433 304.301
L740.102 293.933
L741.442 291.859
L742.111 290.304
L742.781 302.227
L743.45 281.491
L744.79 312.595
L745.459 315.706
L746.129 301.709
L747.468 293.414
L748.138 292.896
L748.807 299.117
L749.477 294.451
L750.146 277.862
L750.816 300.154
L751.486 301.709
L752.155 312.595
L752.825 307.411
L753.494 281.491
L754.834 285.638
L755.503 297.043
L756.173 291.341
L756.842 302.227
L757.512 298.08
L758.182 308.966
L758.851 317.261
L759.521 315.706
L760.19 288.749
L760.86 284.602
L761.53 301.709
L762.199 298.598
L762.869 282.01
L764.208 318.298
L765.547 268.531
L766.217 285.638
L766.886 284.602
L767.556 295.488
L768.226 290.822
L768.895 295.488
L769.565 273.715
L770.234 283.046
L770.904 289.267
L771.574 270.086
L772.243 297.562
L772.913 289.267
L773.582 287.712
L774.252 280.973
L774.922 293.933
L775.591 295.488
L776.261 285.12
L776.93 294.97
L777.6 292.896
L777.6 292.896" style="fill:none;stroke:#ff0000;stroke-linecap:square;"/>
   </g>
   <g id="line2d_2">
    <path clip-path="url(#p7ceb695115)" d="
M108 583.2
L777.6 583.2
L777.6 583.2" style="fill:none;stroke:#008000;stroke-linecap:square;"/>
   </g>
   <g id="line2d_3">
    <path clip-path="url(#p7ceb695115)" d="
M108 583.2
L108.67 582.682
L109.339 582.163
L111.348 579.053
L112.018 578.534
L112.687 575.942
L113.357 573.869
L114.026 572.314
L114.696 569.722
L115.366 564.538
L116.035 561.427
L116.705 560.39
L117.374 556.243
L118.714 550.022
L119.383 548.467
L120.053 545.357
L121.392 535.507
L122.062 532.397
L122.731 530.323
L123.401 526.694
L124.74 516.845
L125.41 516.326
L126.079 515.29
L127.418 508.55
L128.758 501.293
L129.427 503.366
L130.097 500.774
L130.766 497.664
L131.436 495.59
L132.106 492.998
L132.775 491.962
L133.445 489.888
L134.114 488.851
L134.784 487.296
L135.454 483.667
L136.123 481.594
L136.793 480.038
L137.462 477.965
L138.132 476.41
L138.802 476.41
L139.471 474.336
L140.141 472.781
L140.81 470.707
L141.48 472.262
L142.15 472.781
L142.819 469.152
L143.489 464.486
L144.158 467.597
L144.828 465.005
L145.498 465.523
L146.167 464.486
L146.837 465.005
L147.506 465.005
L148.176 460.858
L148.846 460.339
L149.515 456.192
L150.185 455.674
L150.854 452.045
L151.524 453.6
L152.194 450.49
L152.863 449.971
L153.533 448.934
L154.202 446.861
L154.872 446.861
L155.542 447.379
L156.211 445.306
L156.881 445.824
L157.55 446.861
L158.89 446.861
L159.559 448.934
L160.229 445.824
L160.898 445.306
L161.568 444.269
L162.238 439.085
L162.907 441.158
L163.577 442.714
L164.246 438.566
L164.916 435.974
L166.255 437.011
L166.925 440.122
L167.594 438.048
L168.264 438.566
L168.934 440.122
L169.603 439.603
L170.273 440.122
L170.942 436.493
L171.612 433.901
L172.282 431.827
L172.951 430.79
L173.621 432.346
L174.29 429.754
L174.96 429.235
L175.63 429.235
L176.969 428.198
L177.638 430.79
L178.308 427.162
L178.978 431.827
L179.647 430.79
L180.317 430.272
L180.986 430.79
L181.656 429.235
L182.326 426.643
L182.995 425.088
L183.665 425.606
L184.334 424.57
L185.004 424.57
L185.674 424.051
L186.343 425.088
L187.013 424.051
L188.352 424.051
L189.022 427.162
L189.691 428.717
L191.03 425.606
L191.7 425.088
L192.37 422.496
L193.039 422.496
L193.709 421.459
L194.378 420.941
L195.048 423.533
L195.718 421.459
L197.057 419.386
L197.726 419.386
L198.396 420.941
L199.066 418.349
L199.735 421.459
L200.405 420.422
L201.074 420.422
L201.744 419.386
L202.414 423.533
L203.083 423.533
L203.753 421.459
L204.422 420.941
L205.092 418.867
L205.762 419.386
L206.431 421.459
L207.101 422.496
L207.77 420.941
L208.44 422.496
L209.11 420.422
L209.779 422.496
L210.449 423.533
L211.118 423.533
L211.788 422.496
L212.458 424.57
L213.127 423.014
L213.797 423.014
L214.466 424.57
L215.136 424.051
L215.806 422.496
L217.145 421.459
L217.814 421.978
L218.484 418.349
L219.154 418.867
L219.823 418.867
L220.493 417.83
L221.162 419.386
L221.832 419.904
L222.502 418.867
L223.841 414.72
L224.51 413.683
L225.18 415.238
L226.519 408.499
L227.189 410.573
L227.858 408.499
L228.528 406.944
L229.198 406.944
L229.867 404.87
L230.537 405.907
L231.206 405.389
L231.876 407.462
L232.546 411.091
L233.215 408.499
L233.885 409.536
L234.554 408.499
L235.224 409.536
L235.894 409.536
L236.563 406.426
L237.233 404.87
L237.902 405.907
L238.572 407.981
L239.242 410.573
L239.911 406.944
L240.581 411.091
L241.25 411.091
L241.92 409.018
L242.59 410.054
L243.259 407.981
L244.598 406.944
L245.268 407.981
L246.607 411.091
L247.277 414.202
L247.946 411.61
L248.616 411.091
L249.286 409.536
L249.955 411.091
L250.625 410.573
L251.294 412.646
L251.964 412.128
L252.634 415.757
L253.303 416.794
L253.973 417.312
L254.642 416.794
L255.312 417.312
L255.982 416.275
L256.651 416.794
L257.321 416.794
L257.99 415.757
L258.66 413.165
L259.33 410.054
L259.999 408.499
L260.669 402.278
L262.678 402.278
L264.017 400.205
L264.686 400.205
L265.356 401.242
L266.026 403.315
L266.695 403.315
L267.365 405.907
L268.034 406.426
L268.704 403.834
L269.374 402.278
L270.043 399.686
L270.713 399.168
L271.382 399.686
L272.052 401.76
L272.722 404.87
L273.391 404.87
L274.73 402.797
L275.4 400.723
L276.07 400.723
L276.739 400.205
L277.409 399.168
L278.078 397.613
L278.748 400.205
L280.087 404.352
L280.757 402.797
L281.426 404.352
L282.096 403.315
L282.766 404.352
L283.435 405.907
L284.105 408.499
L284.774 405.389
L285.444 404.352
L286.114 401.76
L286.783 403.315
L287.453 404.352
L288.122 402.278
L288.792 403.315
L289.462 404.87
L290.131 403.315
L290.801 402.797
L291.47 399.686
L292.14 398.65
L292.81 399.168
L293.479 398.131
L294.149 395.021
L294.818 395.539
L295.488 398.65
L296.158 397.613
L296.827 392.947
L297.497 392.947
L298.166 390.355
L298.836 389.837
L299.506 390.355
L300.175 388.282
L301.514 391.392
L302.184 391.392
L302.854 393.984
L303.523 391.392
L304.193 396.058
L304.862 393.984
L305.532 397.094
L306.202 399.168
L306.871 400.205
L307.541 402.797
L308.21 402.797
L308.88 403.834
L309.55 404.352
L310.219 403.834
L310.889 405.389
L311.558 404.87
L312.228 404.87
L312.898 405.907
L313.567 404.352
L314.237 404.87
L314.906 404.352
L315.576 408.499
L316.246 409.536
L316.915 411.61
L317.585 409.536
L318.254 409.018
L318.924 411.091
L319.594 407.981
L320.263 410.573
L320.933 412.646
L321.602 411.61
L322.272 413.165
L322.942 414.202
L323.611 413.165
L324.281 414.202
L324.95 412.128
L325.62 410.573
L326.29 412.128
L326.959 409.536
L327.629 411.091
L328.298 411.61
L328.968 411.61
L329.638 413.165
L330.307 411.091
L331.646 409.018
L332.316 408.499
L332.986 408.499
L333.655 411.091
L334.325 414.202
L334.994 412.646
L335.664 414.72
L336.334 409.536
L337.003 410.573
L337.673 408.499
L338.342 405.389
L339.012 401.242
L339.682 402.797
L340.351 406.426
L341.021 403.315
L341.69 405.389
L342.36 409.018
L343.699 410.054
L344.369 408.499
L346.378 408.499
L347.047 409.018
L347.717 407.462
L348.386 408.499
L349.056 407.462
L349.726 409.536
L350.395 405.389
L351.065 405.907
L351.734 406.944
L352.404 405.907
L353.074 406.426
L354.413 408.499
L355.082 408.499
L355.752 411.091
L356.422 412.646
L357.091 411.091
L357.761 410.054
L358.43 412.128
L359.1 411.61
L359.77 407.981
L360.439 408.499
L361.109 410.054
L361.778 407.462
L362.448 406.426
L363.118 412.646
L363.787 412.128
L364.457 412.646
L365.126 415.757
L365.796 417.312
L366.466 417.312
L367.135 420.422
L367.805 417.312
L369.144 419.386
L369.814 418.867
L371.153 421.978
L371.822 420.941
L372.492 420.422
L373.162 419.386
L373.831 418.867
L375.17 418.867
L375.84 420.422
L376.51 424.57
L377.179 426.125
L377.849 426.125
L378.518 424.051
L379.188 428.717
L379.858 428.717
L380.527 431.309
L381.197 430.79
L381.866 430.79
L382.536 428.198
L383.206 427.162
L383.875 424.051
L385.884 427.162
L386.554 427.68
L387.223 428.717
L387.893 430.79
L388.562 428.198
L389.232 430.79
L389.902 432.346
L390.571 430.79
L391.241 432.346
L391.91 431.309
L392.58 434.419
L393.25 431.309
L393.919 433.901
L394.589 432.346
L395.258 431.309
L395.928 432.864
L396.598 432.346
L397.267 433.382
L398.606 432.346
L399.276 433.382
L399.946 435.456
L400.615 434.938
L401.285 434.938
L401.954 433.901
L403.294 433.901
L403.963 430.272
L404.633 427.68
L406.642 430.79
L407.981 439.085
L408.65 440.122
L409.32 438.566
L409.99 440.122
L410.659 441.158
L411.329 441.158
L411.998 437.011
L412.668 439.085
L413.338 437.53
L414.007 434.938
L414.677 438.566
L415.346 435.974
L416.016 437.011
L417.355 435.974
L418.025 436.493
L418.694 436.493
L419.364 434.419
L420.034 438.566
L420.703 439.603
L421.373 442.195
L422.042 439.085
L422.712 438.566
L423.382 439.603
L424.051 437.53
L424.721 437.011
L425.39 441.677
L426.06 443.75
L426.73 444.269
L427.399 442.714
L428.069 445.824
L428.738 444.787
L429.408 442.195
L430.078 442.714
L430.747 441.677
L431.417 445.306
L432.086 446.861
L432.756 449.971
L433.426 451.526
L434.095 454.118
L434.765 451.526
L435.434 452.045
L436.104 451.008
L436.774 448.416
L438.113 450.49
L438.782 452.045
L439.452 452.563
L440.122 456.192
L440.791 455.155
L441.461 456.71
L442.13 458.784
L442.8 458.784
L443.47 458.266
L444.139 450.49
L444.809 434.938
L445.478 405.907
L446.148 361.843
L447.487 203.213
L448.157 155.002
L449.496 119.75
L450.166 119.232
L450.835 128.563
L451.505 150.336
L452.174 147.744
L452.844 199.584
L453.514 268.531
L454.183 303.782
L454.853 329.184
L455.522 343.181
L456.192 360.288
L456.862 373.248
L458.201 406.426
L458.87 413.683
L459.54 405.907
L460.879 442.714
L461.549 457.229
L462.218 447.379
L462.888 449.453
L463.558 437.53
L464.227 440.122
L464.897 452.563
L466.236 468.634
L466.906 462.413
L467.575 461.894
L468.245 468.115
L468.914 460.339
L469.584 460.858
L470.923 471.226
L471.593 470.189
L472.262 466.042
L472.932 475.373
L473.602 488.333
L474.271 486.778
L474.941 469.67
L475.61 466.56
L476.28 459.302
L476.95 473.818
L477.619 481.075
L478.289 468.634
L478.958 487.296
L479.628 475.891
L480.298 474.854
L480.967 470.707
L481.637 473.818
L482.306 490.406
L482.976 477.446
L483.646 478.483
L484.315 476.928
L484.985 486.778
L485.654 479.52
L486.324 491.962
L486.994 479.002
L487.663 463.45
L488.333 472.262
L489.002 484.704
L489.672 471.744
L490.342 491.962
L491.011 487.814
L491.681 476.41
L492.35 478.483
L493.02 483.667
L493.69 463.45
L494.359 476.928
L495.029 470.707
L496.368 479.52
L497.038 491.962
L497.707 484.186
L498.377 481.075
L499.046 476.928
L499.716 474.336
L500.386 474.854
L501.055 489.888
L501.725 492.998
L502.394 478.483
L503.064 484.704
L503.734 484.186
L504.403 489.888
L505.073 484.704
L505.742 480.557
L506.412 488.333
L507.082 475.891
L507.751 469.67
L508.421 479.002
L509.09 480.557
L509.76 474.336
L510.43 477.446
L511.099 489.37
L511.769 498.701
L512.438 486.259
L513.108 486.259
L513.778 485.222
L514.447 471.744
L515.117 474.854
L515.786 481.075
L516.456 496.627
L517.126 488.851
L517.795 479.002
L518.465 491.962
L519.134 470.707
L519.804 480.557
L520.474 473.299
L521.143 461.894
L521.813 485.741
L522.482 484.186
L523.152 487.814
L523.822 473.299
L524.491 486.259
L525.161 483.149
L525.83 484.704
L526.5 488.851
L527.17 479.52
L527.839 481.075
L528.509 481.075
L529.178 489.37
L529.848 474.336
L530.518 482.63
L531.187 484.704
L531.857 476.928
L532.526 466.042
L533.196 471.744
L533.866 483.149
L534.535 466.042
L535.205 480.557
L535.874 459.302
L536.544 475.373
L537.214 474.854
L537.883 469.67
L538.553 461.894
L539.222 482.63
L539.892 483.149
L540.562 473.299
L541.231 472.781
L541.901 466.56
L542.57 466.042
L543.24 472.262
L543.91 484.704
L544.579 480.557
L545.249 460.339
L545.918 468.634
L546.588 458.784
L547.258 479.002
L547.927 453.082
L548.597 475.891
L549.266 471.226
L549.936 470.189
L550.606 464.486
L551.275 475.373
L551.945 443.232
L552.614 476.928
L553.284 475.891
L553.954 467.597
L554.623 472.781
L555.293 463.45
L555.962 468.634
L556.632 455.155
L557.302 458.784
L557.971 469.152
L558.641 463.968
L559.31 466.042
L559.98 454.637
L560.65 459.302
L561.319 467.597
L561.989 453.6
L562.658 457.747
L563.328 468.634
L563.998 460.858
L564.667 459.821
L565.337 466.042
L566.006 462.931
L566.676 462.931
L567.346 464.486
L568.015 459.821
L568.685 467.078
L569.354 451.008
L570.024 465.523
L570.694 456.192
L571.363 455.155
L572.033 457.747
L572.702 456.71
L573.372 463.45
L574.711 446.342
L575.381 448.934
L576.05 452.563
L576.72 460.858
L577.39 461.376
L578.059 453.6
L578.729 449.453
L579.398 452.563
L580.068 458.784
L580.738 454.118
L581.407 445.306
L582.077 440.64
L582.746 446.861
L583.416 451.526
L584.086 452.563
L584.755 434.419
L585.425 437.53
L586.094 438.566
L586.764 453.6
L587.434 439.085
L588.103 443.232
L588.773 440.122
L590.112 432.346
L590.782 433.901
L591.451 438.048
L592.121 445.306
L592.79 437.011
L593.46 433.901
L594.13 441.158
L594.799 431.309
L595.469 426.125
L596.138 430.272
L596.808 426.643
L597.478 442.714
L598.147 444.269
L598.817 440.64
L599.486 428.717
L600.156 434.938
L600.826 428.198
L601.495 417.312
L602.165 418.867
L602.834 419.904
L603.504 434.938
L604.174 436.493
L604.843 434.938
L605.513 427.162
L606.182 439.085
L607.522 424.57
L608.191 430.79
L608.861 415.238
L609.53 435.974
L610.2 420.422
L610.87 440.64
L611.539 431.827
L612.209 407.981
L612.878 407.981
L613.548 433.901
L614.218 423.014
L614.887 409.018
L615.557 406.944
L616.226 400.723
L616.896 409.018
L617.566 413.165
L618.235 411.61
L618.905 419.386
L620.244 424.57
L620.914 410.573
L621.583 415.238
L622.253 415.238
L622.922 409.018
L623.592 400.205
L624.262 410.573
L624.931 416.794
L625.601 395.021
L626.27 402.797
L627.61 405.907
L628.279 406.944
L628.949 419.386
L629.618 406.944
L630.288 402.278
L630.958 391.392
L631.627 401.242
L632.297 399.686
L632.966 391.392
L633.636 381.024
L634.306 388.8
L634.975 386.726
L635.645 403.834
L636.314 394.502
L636.984 387.245
L637.654 385.69
L638.323 395.539
L638.993 388.8
L639.662 375.322
L641.002 380.506
L641.671 386.208
L642.341 383.098
L643.01 384.653
L643.68 367.546
L644.35 368.064
L645.019 378.432
L645.689 378.432
L646.358 381.542
L647.028 374.285
L647.698 396.576
L648.367 400.205
L649.037 381.024
L649.706 372.211
L650.376 367.027
L651.046 374.285
L651.715 359.251
L652.385 370.656
L653.054 349.92
L653.724 370.656
L654.394 385.69
L655.063 381.542
L655.733 386.208
L656.402 384.653
L657.072 385.171
L658.411 373.248
L659.081 375.322
L659.75 370.138
L660.42 382.579
L661.09 374.285
L661.759 345.773
L662.429 361.843
L663.098 368.582
L663.768 367.546
L664.438 361.843
L665.777 355.622
L666.446 351.475
L667.116 373.248
L668.455 366.509
L669.125 343.181
L669.794 362.362
L670.464 359.77
L671.134 332.813
L671.803 353.549
L672.473 370.656
L673.142 356.141
L673.812 362.88
L674.482 371.693
L675.151 365.99
L675.821 334.368
L676.49 341.107
L677.16 351.475
L677.83 352.512
L678.499 343.181
L679.169 357.178
L679.838 345.773
L680.508 349.402
L681.178 357.178
L681.847 354.067
L682.517 332.813
L683.186 343.181
L683.856 340.589
L684.526 341.107
L685.195 347.328
L685.865 330.221
L686.534 349.402
L687.204 347.328
L687.874 334.368
L688.543 344.218
L689.213 349.92
L689.882 342.662
L690.552 341.626
L691.222 322.445
L691.891 324
L692.561 342.144
L693.23 312.595
L693.9 331.776
L694.57 346.291
L695.239 327.11
L695.909 318.298
L696.578 320.89
L697.248 331.776
L697.918 325.555
L698.587 338.515
L699.257 328.147
L699.926 312.077
L700.596 332.813
L701.266 322.963
L701.935 353.03
L703.274 341.626
L703.944 330.739
L704.614 337.478
L705.283 334.886
L705.953 325.555
L706.622 332.813
L707.292 330.221
L707.962 303.782
L708.631 325.037
L709.301 324.518
L709.97 326.074
L710.64 336.442
L711.31 337.997
L711.979 322.445
L712.649 322.445
L713.318 330.739
L713.988 318.298
L714.658 328.147
L715.327 317.261
L715.997 325.555
L716.666 322.963
L717.336 314.669
L718.006 336.442
L718.675 336.442
L719.345 307.411
L720.684 301.709
L721.354 306.374
L722.023 321.408
L722.693 326.592
L723.362 314.15
L724.032 325.037
L724.702 317.779
L725.371 312.077
L726.041 297.562
L726.71 297.043
L727.38 326.592
L728.05 319.334
L728.719 319.853
L729.389 318.298
L730.058 333.331
L730.728 305.856
L731.398 304.819
L732.067 303.264
L732.737 299.635
L733.406 303.264
L734.076 302.227
L734.746 297.043
L735.415 297.043
L736.085 284.083
L737.424 297.043
L738.094 297.043
L738.763 315.706
L739.433 311.04
L740.102 296.525
L740.772 293.414
L741.442 291.859
L742.111 285.638
L742.781 296.525
L743.45 304.819
L744.12 300.154
L744.79 283.046
L745.459 306.893
L746.129 294.97
L746.798 297.043
L747.468 302.746
L748.138 291.341
L748.807 285.12
L749.477 297.562
L750.146 294.451
L750.816 300.672
L751.486 291.341
L752.155 288.23
L752.825 278.381
L753.494 301.709
L754.164 316.224
L754.834 328.147
L755.503 317.261
L756.173 293.414
L756.842 285.12
L757.512 283.046
L758.182 285.12
L758.851 300.154
L759.521 285.12
L760.19 286.675
L760.86 289.267
L762.199 301.19
L762.869 303.782
L763.538 293.933
L764.208 273.715
L764.878 287.712
L765.547 307.411
L766.886 272.678
L767.556 278.381
L768.226 278.381
L768.895 291.341
L769.565 299.635
L770.234 305.856
L770.904 277.344
L771.574 282.528
L772.243 297.043
L772.913 298.598
L773.582 286.675
L774.252 292.896
L774.922 284.602
L775.591 292.378
L776.261 309.485
L776.93 297.043
L777.6 293.414
L777.6 293.414" style="fill:none;stroke:#0000ff;stroke-linecap:square;"/>
   </g>
   <g id="patch_3">
    <path d="
M777.6 583.2
L777.6 64.8" style="fill:none;stroke:#000000;stroke-linecap:square;stroke-linejoin:miter;"/>
   </g>
   <g id="patch_4">
    <path d="
M108 583.2
L777.6 583.2" style="fill:none;stroke:#000000;stroke-linecap:square;stroke-linejoin:miter;"/>
   </g>
   <g id="patch_5">
    <path d="
M108 64.8
L777.6 64.8" style="fill:none;stroke:#000000;stroke-linecap:square;stroke-linejoin:miter;"/>
   </g>
   <g id="patch_6">
    <path d="
M108 583.2
L108 64.8" style="fill:none;stroke:#000000;stroke-linecap:square;stroke-linejoin:miter;"/>
   </g>
   <g id="matplotlib.axis_1">
    <g id="xtick_1">
     <g id="line2d_4">
      <defs>
       <path d="
M0 0
L0 -4" id="mc7db9fdffb" style="stroke:#000000;stroke-width:0.5;"/>
      </defs>
      <g>
       <use style="stroke:#000000;stroke-width:0.5;" x="108.0" xlink:href="#mc7db9fdffb" y="583.2"/>
      </g>
     </g>
     <g id="line2d_5">
      <defs>
       <path d="
M0 0
L0 4" id="m5a7d422ac3" style="stroke:#000000;stroke-width:0.5;"/>
      </defs>
      <g>
       <use style="stroke:#000000;stroke-width:0.5;" x="108.0" xlink:href="#m5a7d422ac3" y="64.8"/>
      </g>
     </g>
     <g id="text_1">
      <!-- 0 -->
      <defs>
       <path d="
M31.7812 66.4062
Q24.1719 66.4062 20.3281 58.9062
Q16.5 51.4219 16.5 36.375
Q16.5 21.3906 20.3281 13.8906
Q24.1719 6.39062 31.7812 6.39062
Q39.4531 6.39062 43.2812 13.8906
Q47.125 21.3906 47.125 36.375
Q47.125 51.4219 43.2812 58.9062
Q39.4531 66.4062 31.7812 66.4062
M31.7812 74.2188
Q44.0469 74.2188 50.5156 64.5156
Q56.9844 54.8281 56.9844 36.375
Q56.9844 17.9688 50.5156 8.26562
Q44.0469 -1.42188 31.7812 -1.42188
Q19.5312 -1.42188 13.0625 8.26562
Q6.59375 17.9688 6.59375 36.375
Q6.59375 54.8281 13.0625 64.5156
Q19.5312 74.2188 31.7812 74.2188" id="BitstreamVeraSans-Roman-30"/>
      </defs>
      <g transform="translate(104.9765625 596.318125)scale(0.12 -0.12)">
       <use xlink:href="#BitstreamVeraSans-Roman-30"/>
      </g>
     </g>
    </g>
    <g id="xtick_2">
     <g id="line2d_6">
      <g>
       <use style="stroke:#000000;stroke-width:0.5;" x="275.4" xlink:href="#mc7db9fdffb" y="583.2"/>
      </g>
     </g>
     <g id="line2d_7">
      <g>
       <use style="stroke:#000000;stroke-width:0.5;" x="275.4" xlink:href="#m5a7d422ac3" y="64.8"/>
      </g>
     </g>
     <g id="text_2">
      <!-- 50000 -->
      <defs>
       <path d="
M10.7969 72.9062
L49.5156 72.9062
L49.5156 64.5938
L19.8281 64.5938
L19.8281 46.7344
Q21.9688 47.4688 24.1094 47.8281
Q26.2656 48.1875 28.4219 48.1875
Q40.625 48.1875 47.75 41.5
Q54.8906 34.8125 54.8906 23.3906
Q54.8906 11.625 47.5625 5.09375
Q40.2344 -1.42188 26.9062 -1.42188
Q22.3125 -1.42188 17.5469 -0.640625
Q12.7969 0.140625 7.71875 1.70312
L7.71875 11.625
Q12.1094 9.23438 16.7969 8.0625
Q21.4844 6.89062 26.7031 6.89062
Q35.1562 6.89062 40.0781 11.3281
Q45.0156 15.7656 45.0156 23.3906
Q45.0156 31 40.0781 35.4375
Q35.1562 39.8906 26.7031 39.8906
Q22.75 39.8906 18.8125 39.0156
Q14.8906 38.1406 10.7969 36.2812
z
" id="BitstreamVeraSans-Roman-35"/>
      </defs>
      <g transform="translate(257.1740625 596.318125)scale(0.12 -0.12)">
       <use xlink:href="#BitstreamVeraSans-Roman-35"/>
       <use x="63.623046875" xlink:href="#BitstreamVeraSans-Roman-30"/>
       <use x="127.24609375" xlink:href="#BitstreamVeraSans-Roman-30"/>
       <use x="190.869140625" xlink:href="#BitstreamVeraSans-Roman-30"/>
       <use x="254.4921875" xlink:href="#BitstreamVeraSans-Roman-30"/>
      </g>
     </g>
    </g>
    <g id="xtick_3">
     <g id="line2d_8">
      <g>
       <use style="stroke:#000000;stroke-width:0.5;" x="442.8" xlink:href="#mc7db9fdffb" y="583.2"/>
      </g>
     </g>
     <g id="line2d_9">
      <g>
       <use style="stroke:#000000;stroke-width:0.5;" x="442.8" xlink:href="#m5a7d422ac3" y="64.8"/>
      </g>
     </g>
     <g id="text_3">
      <!-- 100000 -->
      <defs>
       <path d="
M12.4062 8.29688
L28.5156 8.29688
L28.5156 63.9219
L10.9844 60.4062
L10.9844 69.3906
L28.4219 72.9062
L38.2812 72.9062
L38.2812 8.29688
L54.3906 8.29688
L54.3906 0
L12.4062 0
z
" id="BitstreamVeraSans-Roman-31"/>
      </defs>
      <g transform="translate(420.9525 596.318125)scale(0.12 -0.12)">
       <use xlink:href="#BitstreamVeraSans-Roman-31"/>
       <use x="63.623046875" xlink:href="#BitstreamVeraSans-Roman-30"/>
       <use x="127.24609375" xlink:href="#BitstreamVeraSans-Roman-30"/>
       <use x="190.869140625" xlink:href="#BitstreamVeraSans-Roman-30"/>
       <use x="254.4921875" xlink:href="#BitstreamVeraSans-Roman-30"/>
       <use x="318.115234375" xlink:href="#BitstreamVeraSans-Roman-30"/>
      </g>
     </g>
    </g>
    <g id="xtick_4">
     <g id="line2d_10">
      <g>
       <use style="stroke:#000000;stroke-width:0.5;" x="610.2" xlink:href="#mc7db9fdffb" y="583.2"/>
      </g>
     </g>
     <g id="line2d_11">
      <g>
       <use style="stroke:#000000;stroke-width:0.5;" x="610.2" xlink:href="#m5a7d422ac3" y="64.8"/>
      </g>
     </g>
     <g id="text_4">
      <!-- 150000 -->
      <g transform="translate(588.3525 596.318125)scale(0.12 -0.12)">
       <use xlink:href="#BitstreamVeraSans-Roman-31"/>
       <use x="63.623046875" xlink:href="#BitstreamVeraSans-Roman-35"/>
       <use x="127.24609375" xlink:href="#BitstreamVeraSans-Roman-30"/>
       <use x="190.869140625" xlink:href="#BitstreamVeraSans-Roman-30"/>
       <use x="254.4921875" xlink:href="#BitstreamVeraSans-Roman-30"/>
       <use x="318.115234375" xlink:href="#BitstreamVeraSans-Roman-30"/>
      </g>
     </g>
    </g>
    <g id="xtick_5">
     <g id="line2d_12">
      <g>
       <use style="stroke:#000000;stroke-width:0.5;" x="777.6" xlink:href="#mc7db9fdffb" y="583.2"/>
      </g>
     </g>
     <g id="line2d_13">
      <g>
       <use style="stroke:#000000;stroke-width:0.5;" x="777.6" xlink:href="#m5a7d422ac3" y="64.8"/>
      </g>
     </g>
     <g id="text_5">
      <!-- 200000 -->
      <defs>
       <path d="
M19.1875 8.29688
L53.6094 8.29688
L53.6094 0
L7.32812 0
L7.32812 8.29688
Q12.9375 14.1094 22.625 23.8906
Q32.3281 33.6875 34.8125 36.5312
Q39.5469 41.8438 41.4219 45.5312
Q43.3125 49.2188 43.3125 52.7812
Q43.3125 58.5938 39.2344 62.25
Q35.1562 65.9219 28.6094 65.9219
Q23.9688 65.9219 18.8125 64.3125
Q13.6719 62.7031 7.8125 59.4219
L7.8125 69.3906
Q13.7656 71.7812 18.9375 73
Q24.125 74.2188 28.4219 74.2188
Q39.75 74.2188 46.4844 68.5469
Q53.2188 62.8906 53.2188 53.4219
Q53.2188 48.9219 51.5312 44.8906
Q49.8594 40.875 45.4062 35.4062
Q44.1875 33.9844 37.6406 27.2188
Q31.1094 20.4531 19.1875 8.29688" id="BitstreamVeraSans-Roman-32"/>
      </defs>
      <g transform="translate(755.533125 596.318125)scale(0.12 -0.12)">
       <use xlink:href="#BitstreamVeraSans-Roman-32"/>
       <use x="63.623046875" xlink:href="#BitstreamVeraSans-Roman-30"/>
       <use x="127.24609375" xlink:href="#BitstreamVeraSans-Roman-30"/>
       <use x="190.869140625" xlink:href="#BitstreamVeraSans-Roman-30"/>
       <use x="254.4921875" xlink:href="#BitstreamVeraSans-Roman-30"/>
       <use x="318.115234375" xlink:href="#BitstreamVeraSans-Roman-30"/>
      </g>
     </g>
    </g>
    <g id="text_6">
     <!-- t / ms -->
     <defs>
      <path id="BitstreamVeraSans-Roman-20"/>
      <path d="
M44.2812 53.0781
L44.2812 44.5781
Q40.4844 46.5312 36.375 47.5
Q32.2812 48.4844 27.875 48.4844
Q21.1875 48.4844 17.8438 46.4375
Q14.5 44.3906 14.5 40.2812
Q14.5 37.1562 16.8906 35.375
Q19.2812 33.5938 26.5156 31.9844
L29.5938 31.2969
Q39.1562 29.25 43.1875 25.5156
Q47.2188 21.7812 47.2188 15.0938
Q47.2188 7.46875 41.1875 3.01562
Q35.1562 -1.42188 24.6094 -1.42188
Q20.2188 -1.42188 15.4531 -0.5625
Q10.6875 0.296875 5.42188 2
L5.42188 11.2812
Q10.4062 8.6875 15.2344 7.39062
Q20.0625 6.10938 24.8125 6.10938
Q31.1562 6.10938 34.5625 8.28125
Q37.9844 10.4531 37.9844 14.4062
Q37.9844 18.0625 35.5156 20.0156
Q33.0625 21.9688 24.7031 23.7812
L21.5781 24.5156
Q13.2344 26.2656 9.51562 29.9062
Q5.8125 33.5469 5.8125 39.8906
Q5.8125 47.6094 11.2812 51.7969
Q16.75 56 26.8125 56
Q31.7812 56 36.1719 55.2656
Q40.5781 54.5469 44.2812 53.0781" id="BitstreamVeraSans-Roman-73"/>
      <path d="
M52 44.1875
Q55.375 50.25 60.0625 53.125
Q64.75 56 71.0938 56
Q79.6406 56 84.2812 50.0156
Q88.9219 44.0469 88.9219 33.0156
L88.9219 0
L79.8906 0
L79.8906 32.7188
Q79.8906 40.5781 77.0938 44.375
Q74.3125 48.1875 68.6094 48.1875
Q61.625 48.1875 57.5625 43.5469
Q53.5156 38.9219 53.5156 30.9062
L53.5156 0
L44.4844 0
L44.4844 32.7188
Q44.4844 40.625 41.7031 44.4062
Q38.9219 48.1875 33.1094 48.1875
Q26.2188 48.1875 22.1562 43.5312
Q18.1094 38.875 18.1094 30.9062
L18.1094 0
L9.07812 0
L9.07812 54.6875
L18.1094 54.6875
L18.1094 46.1875
Q21.1875 51.2188 25.4844 53.6094
Q29.7812 56 35.6875 56
Q41.6562 56 45.8281 52.9688
Q50 49.9531 52 44.1875" id="BitstreamVeraSans-Roman-6d"/>
      <path d="
M18.3125 70.2188
L18.3125 54.6875
L36.8125 54.6875
L36.8125 47.7031
L18.3125 47.7031
L18.3125 18.0156
Q18.3125 11.3281 20.1406 9.42188
Q21.9688 7.51562 27.5938 7.51562
L36.8125 7.51562
L36.8125 0
L27.5938 0
Q17.1875 0 13.2344 3.875
Q9.28125 7.76562 9.28125 18.0156
L9.28125 47.7031
L2.6875 47.7031
L2.6875 54.6875
L9.28125 54.6875
L9.28125 70.2188
z
" id="BitstreamVeraSans-Roman-74"/>
      <path d="
M25.3906 72.9062
L33.6875 72.9062
L8.29688 -9.28125
L0 -9.28125
z
" id="BitstreamVeraSans-Roman-2f"/>
     </defs>
     <g transform="translate(425.9353125 612.931875)scale(0.12 -0.12)">
      <use xlink:href="#BitstreamVeraSans-Roman-74"/>
      <use x="39.208984375" xlink:href="#BitstreamVeraSans-Roman-20"/>
      <use x="70.99609375" xlink:href="#BitstreamVeraSans-Roman-2f"/>
      <use x="104.6875" xlink:href="#BitstreamVeraSans-Roman-20"/>
      <use x="136.474609375" xlink:href="#BitstreamVeraSans-Roman-6d"/>
      <use x="233.88671875" xlink:href="#BitstreamVeraSans-Roman-73"/>
     </g>
    </g>
   </g>
   <g id="matplotlib.axis_2">
    <g id="ytick_1">
     <g id="line2d_14">
      <defs>
       <path d="
M0 0
L4 0" id="md7965d1ba0" style="stroke:#000000;stroke-width:0.5;"/>
      </defs>
      <g>
       <use style="stroke:#000000;stroke-width:0.5;" x="108.0" xlink:href="#md7965d1ba0" y="583.2"/>
      </g>
     </g>
     <g id="line2d_15">
      <defs>
       <path d="
M0 0
L-4 0" id="md9a1c1a7cd" style="stroke:#000000;stroke-width:0.5;"/>
      </defs>
      <g>
       <use style="stroke:#000000;stroke-width:0.5;" x="777.6" xlink:href="#md9a1c1a7cd" y="583.2"/>
      </g>
     </g>
     <g id="text_7">
      <!-- 0 -->
      <g transform="translate(97.953125 586.51125)scale(0.12 -0.12)">
       <use xlink:href="#BitstreamVeraSans-Roman-30"/>
      </g>
     </g>
    </g>
    <g id="ytick_2">
     <g id="line2d_16">
      <g>
       <use style="stroke:#000000;stroke-width:0.5;" x="108.0" xlink:href="#md7965d1ba0" y="479.52"/>
      </g>
     </g>
     <g id="line2d_17">
      <g>
       <use style="stroke:#000000;stroke-width:0.5;" x="777.6" xlink:href="#md9a1c1a7cd" y="479.52"/>
      </g>
     </g>
     <g id="text_8">
      <!-- 200 -->
      <g transform="translate(82.77125 482.83125)scale(0.12 -0.12)">
       <use xlink:href="#BitstreamVeraSans-Roman-32"/>
       <use x="63.623046875" xlink:href="#BitstreamVeraSans-Roman-30"/>
       <use x="127.24609375" xlink:href="#BitstreamVeraSans-Roman-30"/>
      </g>
     </g>
    </g>
    <g id="ytick_3">
     <g id="line2d_18">
      <g>
       <use style="stroke:#000000;stroke-width:0.5;" x="108.0" xlink:href="#md7965d1ba0" y="375.84"/>
      </g>
     </g>
     <g id="line2d_19">
      <g>
       <use style="stroke:#000000;stroke-width:0.5;" x="777.6" xlink:href="#md9a1c1a7cd" y="375.84"/>
      </g>
     </g>
     <g id="text_9">
      <!-- 400 -->
      <defs>
       <path d="
M37.7969 64.3125
L12.8906 25.3906
L37.7969 25.3906
z

M35.2031 72.9062
L47.6094 72.9062
L47.6094 25.3906
L58.0156 25.3906
L58.0156 17.1875
L47.6094 17.1875
L47.6094 0
L37.7969 0
L37.7969 17.1875
L4.89062 17.1875
L4.89062 26.7031
z
" id="BitstreamVeraSans-Roman-34"/>
      </defs>
      <g transform="translate(82.47875 379.15125)scale(0.12 -0.12)">
       <use xlink:href="#BitstreamVeraSans-Roman-34"/>
       <use x="63.623046875" xlink:href="#BitstreamVeraSans-Roman-30"/>
       <use x="127.24609375" xlink:href="#BitstreamVeraSans-Roman-30"/>
      </g>
     </g>
    </g>
    <g id="ytick_4">
     <g id="line2d_20">
      <g>
       <use style="stroke:#000000;stroke-width:0.5;" x="108.0" xlink:href="#md7965d1ba0" y="272.16"/>
      </g>
     </g>
     <g id="line2d_21">
      <g>
       <use style="stroke:#000000;stroke-width:0.5;" x="777.6" xlink:href="#md9a1c1a7cd" y="272.16"/>
      </g>
     </g>
     <g id="text_10">
      <!-- 600 -->
      <defs>
       <path d="
M33.0156 40.375
Q26.375 40.375 22.4844 35.8281
Q18.6094 31.2969 18.6094 23.3906
Q18.6094 15.5312 22.4844 10.9531
Q26.375 6.39062 33.0156 6.39062
Q39.6562 6.39062 43.5312 10.9531
Q47.4062 15.5312 47.4062 23.3906
Q47.4062 31.2969 43.5312 35.8281
Q39.6562 40.375 33.0156 40.375
M52.5938 71.2969
L52.5938 62.3125
Q48.875 64.0625 45.0938 64.9844
Q41.3125 65.9219 37.5938 65.9219
Q27.8281 65.9219 22.6719 59.3281
Q17.5312 52.7344 16.7969 39.4062
Q19.6719 43.6562 24.0156 45.9219
Q28.375 48.1875 33.5938 48.1875
Q44.5781 48.1875 50.9531 41.5156
Q57.3281 34.8594 57.3281 23.3906
Q57.3281 12.1562 50.6875 5.35938
Q44.0469 -1.42188 33.0156 -1.42188
Q20.3594 -1.42188 13.6719 8.26562
Q6.98438 17.9688 6.98438 36.375
Q6.98438 53.6562 15.1875 63.9375
Q23.3906 74.2188 37.2031 74.2188
Q40.9219 74.2188 44.7031 73.4844
Q48.4844 72.75 52.5938 71.2969" id="BitstreamVeraSans-Roman-36"/>
      </defs>
      <g transform="translate(82.73 275.47125)scale(0.12 -0.12)">
       <use xlink:href="#BitstreamVeraSans-Roman-36"/>
       <use x="63.623046875" xlink:href="#BitstreamVeraSans-Roman-30"/>
       <use x="127.24609375" xlink:href="#BitstreamVeraSans-Roman-30"/>
      </g>
     </g>
    </g>
    <g id="ytick_5">
     <g id="line2d_22">
      <g>
       <use style="stroke:#000000;stroke-width:0.5;" x="108.0" xlink:href="#md7965d1ba0" y="168.48"/>
      </g>
     </g>
     <g id="line2d_23">
      <g>
       <use style="stroke:#000000;stroke-width:0.5;" x="777.6" xlink:href="#md9a1c1a7cd" y="168.48"/>
      </g>
     </g>
     <g id="text_11">
      <!-- 800 -->
      <defs>
       <path d="
M31.7812 34.625
Q24.75 34.625 20.7188 30.8594
Q16.7031 27.0938 16.7031 20.5156
Q16.7031 13.9219 20.7188 10.1562
Q24.75 6.39062 31.7812 6.39062
Q38.8125 6.39062 42.8594 10.1719
Q46.9219 13.9688 46.9219 20.5156
Q46.9219 27.0938 42.8906 30.8594
Q38.875 34.625 31.7812 34.625
M21.9219 38.8125
Q15.5781 40.375 12.0312 44.7188
Q8.5 49.0781 8.5 55.3281
Q8.5 64.0625 14.7188 69.1406
Q20.9531 74.2188 31.7812 74.2188
Q42.6719 74.2188 48.875 69.1406
Q55.0781 64.0625 55.0781 55.3281
Q55.0781 49.0781 51.5312 44.7188
Q48 40.375 41.7031 38.8125
Q48.8281 37.1562 52.7969 32.3125
Q56.7812 27.4844 56.7812 20.5156
Q56.7812 9.90625 50.3125 4.23438
Q43.8438 -1.42188 31.7812 -1.42188
Q19.7344 -1.42188 13.25 4.23438
Q6.78125 9.90625 6.78125 20.5156
Q6.78125 27.4844 10.7812 32.3125
Q14.7969 37.1562 21.9219 38.8125
M18.3125 54.3906
Q18.3125 48.7344 21.8438 45.5625
Q25.3906 42.3906 31.7812 42.3906
Q38.1406 42.3906 41.7188 45.5625
Q45.3125 48.7344 45.3125 54.3906
Q45.3125 60.0625 41.7188 63.2344
Q38.1406 66.4062 31.7812 66.4062
Q25.3906 66.4062 21.8438 63.2344
Q18.3125 60.0625 18.3125 54.3906" id="BitstreamVeraSans-Roman-38"/>
      </defs>
      <g transform="translate(82.705625 171.79125)scale(0.12 -0.12)">
       <use xlink:href="#BitstreamVeraSans-Roman-38"/>
       <use x="63.623046875" xlink:href="#BitstreamVeraSans-Roman-30"/>
       <use x="127.24609375" xlink:href="#BitstreamVeraSans-Roman-30"/>
      </g>
     </g>
    </g>
    <g id="ytick_6">
     <g id="line2d_24">
      <g>
       <use style="stroke:#000000;stroke-width:0.5;" x="108.0" xlink:href="#md7965d1ba0" y="64.8"/>
      </g>
     </g>
     <g id="line2d_25">
      <g>
       <use style="stroke:#000000;stroke-width:0.5;" x="777.6" xlink:href="#md9a1c1a7cd" y="64.8"/>
      </g>
     </g>
     <g id="text_12">
      <!-- 1000 -->
      <g transform="translate(75.575 68.11125)scale(0.12 -0.12)">
       <use xlink:href="#BitstreamVeraSans-Roman-31"/>
       <use x="63.623046875" xlink:href="#BitstreamVeraSans-Roman-30"/>
       <use x="127.24609375" xlink:href="#BitstreamVeraSans-Roman-30"/>
       <use x="190.869140625" xlink:href="#BitstreamVeraSans-Roman-30"/>
      </g>
     </g>
    </g>
    <g id="text_13">
     <!-- particle numbers -->
     <defs>
      <path d="
M48.6875 27.2969
Q48.6875 37.2031 44.6094 42.8438
Q40.5312 48.4844 33.4062 48.4844
Q26.2656 48.4844 22.1875 42.8438
Q18.1094 37.2031 18.1094 27.2969
Q18.1094 17.3906 22.1875 11.75
Q26.2656 6.10938 33.4062 6.10938
Q40.5312 6.10938 44.6094 11.75
Q48.6875 17.3906 48.6875 27.2969
M18.1094 46.3906
Q20.9531 51.2656 25.2656 53.625
Q29.5938 56 35.5938 56
Q45.5625 56 51.7812 48.0938
Q58.0156 40.1875 58.0156 27.2969
Q58.0156 14.4062 51.7812 6.48438
Q45.5625 -1.42188 35.5938 -1.42188
Q29.5938 -1.42188 25.2656 0.953125
Q20.9531 3.32812 18.1094 8.20312
L18.1094 0
L9.07812 0
L9.07812 75.9844
L18.1094 75.9844
z
" id="BitstreamVeraSans-Roman-62"/>
      <path d="
M18.1094 8.20312
L18.1094 -20.7969
L9.07812 -20.7969
L9.07812 54.6875
L18.1094 54.6875
L18.1094 46.3906
Q20.9531 51.2656 25.2656 53.625
Q29.5938 56 35.5938 56
Q45.5625 56 51.7812 48.0938
Q58.0156 40.1875 58.0156 27.2969
Q58.0156 14.4062 51.7812 6.48438
Q45.5625 -1.42188 35.5938 -1.42188
Q29.5938 -1.42188 25.2656 0.953125
Q20.9531 3.32812 18.1094 8.20312
M48.6875 27.2969
Q48.6875 37.2031 44.6094 42.8438
Q40.5312 48.4844 33.4062 48.4844
Q26.2656 48.4844 22.1875 42.8438
Q18.1094 37.2031 18.1094 27.2969
Q18.1094 17.3906 22.1875 11.75
Q26.2656 6.10938 33.4062 6.10938
Q40.5312 6.10938 44.6094 11.75
Q48.6875 17.3906 48.6875 27.2969" id="BitstreamVeraSans-Roman-70"/>
      <path d="
M9.42188 75.9844
L18.4062 75.9844
L18.4062 0
L9.42188 0
z
" id="BitstreamVeraSans-Roman-6c"/>
      <path d="
M56.2031 29.5938
L56.2031 25.2031
L14.8906 25.2031
Q15.4844 15.9219 20.4844 11.0625
Q25.4844 6.20312 34.4219 6.20312
Q39.5938 6.20312 44.4531 7.46875
Q49.3125 8.73438 54.1094 11.2812
L54.1094 2.78125
Q49.2656 0.734375 44.1875 -0.34375
Q39.1094 -1.42188 33.8906 -1.42188
Q20.7969 -1.42188 13.1562 6.1875
Q5.51562 13.8125 5.51562 26.8125
Q5.51562 40.2344 12.7656 48.1094
Q20.0156 56 32.3281 56
Q43.3594 56 49.7812 48.8906
Q56.2031 41.7969 56.2031 29.5938
M47.2188 32.2344
Q47.125 39.5938 43.0938 43.9844
Q39.0625 48.3906 32.4219 48.3906
Q24.9062 48.3906 20.3906 44.1406
Q15.875 39.8906 15.1875 32.1719
z
" id="BitstreamVeraSans-Roman-65"/>
      <path d="
M34.2812 27.4844
Q23.3906 27.4844 19.1875 25
Q14.9844 22.5156 14.9844 16.5
Q14.9844 11.7188 18.1406 8.90625
Q21.2969 6.10938 26.7031 6.10938
Q34.1875 6.10938 38.7031 11.4062
Q43.2188 16.7031 43.2188 25.4844
L43.2188 27.4844
z

M52.2031 31.2031
L52.2031 0
L43.2188 0
L43.2188 8.29688
Q40.1406 3.32812 35.5469 0.953125
Q30.9531 -1.42188 24.3125 -1.42188
Q15.9219 -1.42188 10.9531 3.29688
Q6 8.01562 6 15.9219
Q6 25.1406 12.1719 29.8281
Q18.3594 34.5156 30.6094 34.5156
L43.2188 34.5156
L43.2188 35.4062
Q43.2188 41.6094 39.1406 45
Q35.0625 48.3906 27.6875 48.3906
Q23 48.3906 18.5469 47.2656
Q14.1094 46.1406 10.0156 43.8906
L10.0156 52.2031
Q14.9375 54.1094 19.5781 55.0469
Q24.2188 56 28.6094 56
Q40.4844 56 46.3438 49.8438
Q52.2031 43.7031 52.2031 31.2031" id="BitstreamVeraSans-Roman-61"/>
      <path d="
M8.5 21.5781
L8.5 54.6875
L17.4844 54.6875
L17.4844 21.9219
Q17.4844 14.1562 20.5 10.2656
Q23.5312 6.39062 29.5938 6.39062
Q36.8594 6.39062 41.0781 11.0312
Q45.3125 15.6719 45.3125 23.6875
L45.3125 54.6875
L54.2969 54.6875
L54.2969 0
L45.3125 0
L45.3125 8.40625
Q42.0469 3.42188 37.7188 1
Q33.4062 -1.42188 27.6875 -1.42188
Q18.2656 -1.42188 13.375 4.4375
Q8.5 10.2969 8.5 21.5781" id="BitstreamVeraSans-Roman-75"/>
      <path d="
M54.8906 33.0156
L54.8906 0
L45.9062 0
L45.9062 32.7188
Q45.9062 40.4844 42.875 44.3281
Q39.8438 48.1875 33.7969 48.1875
Q26.5156 48.1875 22.3125 43.5469
Q18.1094 38.9219 18.1094 30.9062
L18.1094 0
L9.07812 0
L9.07812 54.6875
L18.1094 54.6875
L18.1094 46.1875
Q21.3438 51.125 25.7031 53.5625
Q30.0781 56 35.7969 56
Q45.2188 56 50.0469 50.1719
Q54.8906 44.3438 54.8906 33.0156" id="BitstreamVeraSans-Roman-6e"/>
      <path d="
M41.1094 46.2969
Q39.5938 47.1719 37.8125 47.5781
Q36.0312 48 33.8906 48
Q26.2656 48 22.1875 43.0469
Q18.1094 38.0938 18.1094 28.8125
L18.1094 0
L9.07812 0
L9.07812 54.6875
L18.1094 54.6875
L18.1094 46.1875
Q20.9531 51.1719 25.4844 53.5781
Q30.0312 56 36.5312 56
Q37.4531 56 38.5781 55.875
Q39.7031 55.7656 41.0625 55.5156
z
" id="BitstreamVeraSans-Roman-72"/>
      <path d="
M9.42188 54.6875
L18.4062 54.6875
L18.4062 0
L9.42188 0
z

M9.42188 75.9844
L18.4062 75.9844
L18.4062 64.5938
L9.42188 64.5938
z
" id="BitstreamVeraSans-Roman-69"/>
      <path d="
M48.7812 52.5938
L48.7812 44.1875
Q44.9688 46.2969 41.1406 47.3438
Q37.3125 48.3906 33.4062 48.3906
Q24.6562 48.3906 19.8125 42.8438
Q14.9844 37.3125 14.9844 27.2969
Q14.9844 17.2812 19.8125 11.7344
Q24.6562 6.20312 33.4062 6.20312
Q37.3125 6.20312 41.1406 7.25
Q44.9688 8.29688 48.7812 10.4062
L48.7812 2.09375
Q45.0156 0.34375 40.9844 -0.53125
Q36.9688 -1.42188 32.4219 -1.42188
Q20.0625 -1.42188 12.7812 6.34375
Q5.51562 14.1094 5.51562 27.2969
Q5.51562 40.6719 12.8594 48.3281
Q20.2188 56 33.0156 56
Q37.1562 56 41.1094 55.1406
Q45.0625 54.2969 48.7812 52.5938" id="BitstreamVeraSans-Roman-63"/>
     </defs>
     <g transform="translate(68.079375 374.78625)rotate(-90.0)scale(0.12 -0.12)">
      <use xlink:href="#BitstreamVeraSans-Roman-70"/>
      <use x="63.4765625" xlink:href="#BitstreamVeraSans-Roman-61"/>
      <use x="124.755859375" xlink:href="#BitstreamVeraSans-Roman-72"/>
      <use x="165.869140625" xlink:href="#BitstreamVeraSans-Roman-74"/>
      <use x="205.078125" xlink:href="#BitstreamVeraSans-Roman-69"/>
      <use x="232.861328125" xlink:href="#BitstreamVeraSans-Roman-63"/>
      <use x="287.841796875" xlink:href="#BitstreamVeraSans-Roman-6c"/>
      <use x="315.625" xlink:href="#BitstreamVeraSans-Roman-65"/>
      <use x="377.1484375" xlink:href="#BitstreamVeraSans-Roman-20"/>
      <use x="408.935546875" xlink:href="#BitstreamVeraSans-Roman-6e"/>
      <use x="472.314453125" xlink:href="#BitstreamVeraSans-Roman-75"/>
      <use x="535.693359375" xlink:href="#BitstreamVeraSans-Roman-6d"/>
      <use x="633.10546875" xlink:href="#BitstreamVeraSans-Roman-62"/>
      <use x="696.58203125" xlink:href="#BitstreamVeraSans-Roman-65"/>
      <use x="758.10546875" xlink:href="#BitstreamVeraSans-Roman-72"/>
      <use x="799.21875" xlink:href="#BitstreamVeraSans-Roman-73"/>
     </g>
    </g>
   </g>
   <g id="legend_1">
    <g id="patch_7">
     <path d="
M697.504 101.224
L774.1 101.224
L774.1 68.3
L697.504 68.3
z
" style="fill:#ffffff;stroke:#000000;stroke-linejoin:miter;"/>
    </g>
    <g id="line2d_26">
     <path d="
M702.404 73.9689
L712.204 73.9689" style="fill:none;stroke:#ff0000;stroke-linecap:square;"/>
    </g>
    <g id="line2d_27"/>
    <g id="text_14">
     <!-- PKAcAMP2 el.0 -->
     <defs>
      <path d="
M9.8125 72.9062
L24.5156 72.9062
L43.1094 23.2969
L61.8125 72.9062
L76.5156 72.9062
L76.5156 0
L66.8906 0
L66.8906 64.0156
L48.0938 14.0156
L38.1875 14.0156
L19.3906 64.0156
L19.3906 0
L9.8125 0
z
" id="BitstreamVeraSans-Roman-4d"/>
      <path d="
M9.8125 72.9062
L19.6719 72.9062
L19.6719 42.0938
L52.3906 72.9062
L65.0938 72.9062
L28.9062 38.9219
L67.6719 0
L54.6875 0
L19.6719 35.1094
L19.6719 0
L9.8125 0
z
" id="BitstreamVeraSans-Roman-4b"/>
      <path d="
M34.1875 63.1875
L20.7969 26.9062
L47.6094 26.9062
z

M28.6094 72.9062
L39.7969 72.9062
L67.5781 0
L57.3281 0
L50.6875 18.7031
L17.8281 18.7031
L11.1875 0
L0.78125 0
z
" id="BitstreamVeraSans-Roman-41"/>
      <path d="
M10.6875 12.4062
L21 12.4062
L21 0
L10.6875 0
z
" id="BitstreamVeraSans-Roman-2e"/>
      <path d="
M19.6719 64.7969
L19.6719 37.4062
L32.0781 37.4062
Q38.9688 37.4062 42.7188 40.9688
Q46.4844 44.5312 46.4844 51.125
Q46.4844 57.6719 42.7188 61.2344
Q38.9688 64.7969 32.0781 64.7969
z

M9.8125 72.9062
L32.0781 72.9062
Q44.3438 72.9062 50.6094 67.3594
Q56.8906 61.8125 56.8906 51.125
Q56.8906 40.3281 50.6094 34.8125
Q44.3438 29.2969 32.0781 29.2969
L19.6719 29.2969
L19.6719 0
L9.8125 0
z
" id="BitstreamVeraSans-Roman-50"/>
     </defs>
     <g transform="translate(719.90359375 76.41890625)scale(0.07 -0.07)">
      <use xlink:href="#BitstreamVeraSans-Roman-50"/>
      <use x="60.302734375" xlink:href="#BitstreamVeraSans-Roman-4b"/>
      <use x="124.12890625" xlink:href="#BitstreamVeraSans-Roman-41"/>
      <use x="190.787109375" xlink:href="#BitstreamVeraSans-Roman-63"/>
      <use x="245.767578125" xlink:href="#BitstreamVeraSans-Roman-41"/>
      <use x="314.17578125" xlink:href="#BitstreamVeraSans-Roman-4d"/>
      <use x="400.455078125" xlink:href="#BitstreamVeraSans-Roman-50"/>
      <use x="460.7578125" xlink:href="#BitstreamVeraSans-Roman-32"/>
      <use x="524.380859375" xlink:href="#BitstreamVeraSans-Roman-20"/>
      <use x="556.16796875" xlink:href="#BitstreamVeraSans-Roman-65"/>
      <use x="617.69140625" xlink:href="#BitstreamVeraSans-Roman-6c"/>
      <use x="645.474609375" xlink:href="#BitstreamVeraSans-Roman-2e"/>
      <use x="677.26171875" xlink:href="#BitstreamVeraSans-Roman-30"/>
     </g>
    </g>
    <g id="line2d_28">
     <path d="
M702.404 84.2436
L712.204 84.2436" style="fill:none;stroke:#008000;stroke-linecap:square;"/>
    </g>
    <g id="line2d_29"/>
    <g id="text_15">
     <!-- PKAcAMP2 el.1 -->
     <g transform="translate(719.90359375 86.69359375)scale(0.07 -0.07)">
      <use xlink:href="#BitstreamVeraSans-Roman-50"/>
      <use x="60.302734375" xlink:href="#BitstreamVeraSans-Roman-4b"/>
      <use x="124.12890625" xlink:href="#BitstreamVeraSans-Roman-41"/>
      <use x="190.787109375" xlink:href="#BitstreamVeraSans-Roman-63"/>
      <use x="245.767578125" xlink:href="#BitstreamVeraSans-Roman-41"/>
      <use x="314.17578125" xlink:href="#BitstreamVeraSans-Roman-4d"/>
      <use x="400.455078125" xlink:href="#BitstreamVeraSans-Roman-50"/>
      <use x="460.7578125" xlink:href="#BitstreamVeraSans-Roman-32"/>
      <use x="524.380859375" xlink:href="#BitstreamVeraSans-Roman-20"/>
      <use x="556.16796875" xlink:href="#BitstreamVeraSans-Roman-65"/>
      <use x="617.69140625" xlink:href="#BitstreamVeraSans-Roman-6c"/>
      <use x="645.474609375" xlink:href="#BitstreamVeraSans-Roman-2e"/>
      <use x="677.26171875" xlink:href="#BitstreamVeraSans-Roman-31"/>
     </g>
    </g>
    <g id="line2d_30">
     <path d="
M702.404 94.5183
L712.204 94.5183" style="fill:none;stroke:#0000ff;stroke-linecap:square;"/>
    </g>
    <g id="line2d_31"/>
    <g id="text_16">
     <!-- PKAcAMP2 el.2 -->
     <g transform="translate(719.90359375 96.96828125)scale(0.07 -0.07)">
      <use xlink:href="#BitstreamVeraSans-Roman-50"/>
      <use x="60.302734375" xlink:href="#BitstreamVeraSans-Roman-4b"/>
      <use x="124.12890625" xlink:href="#BitstreamVeraSans-Roman-41"/>
      <use x="190.787109375" xlink:href="#BitstreamVeraSans-Roman-63"/>
      <use x="245.767578125" xlink:href="#BitstreamVeraSans-Roman-41"/>
      <use x="314.17578125" xlink:href="#BitstreamVeraSans-Roman-4d"/>
      <use x="400.455078125" xlink:href="#BitstreamVeraSans-Roman-50"/>
      <use x="460.7578125" xlink:href="#BitstreamVeraSans-Roman-32"/>
      <use x="524.380859375" xlink:href="#BitstreamVeraSans-Roman-20"/>
      <use x="556.16796875" xlink:href="#BitstreamVeraSans-Roman-65"/>
      <use x="617.69140625" xlink:href="#BitstreamVeraSans-Roman-6c"/>
      <use x="645.474609375" xlink:href="#BitstreamVeraSans-Roman-2e"/>
      <use x="677.26171875" xlink:href="#BitstreamVeraSans-Roman-32"/>
     </g>
    </g>
   </g>
  </g>
 </g>
 <defs>
  <clipPath id="p7ceb695115">
   <rect height="518.4" width="669.6" x="108.0" y="64.8"/>
  </clipPath>
 </defs>
</svg>
