<?xml version="1.0" encoding="utf-8" standalone="no"?>
<!DOCTYPE svg PUBLIC "-//W3C//DTD SVG 1.1//EN"
  "http://www.w3.org/Graphics/SVG/1.1/DTD/svg11.dtd">
<!-- Created with matplotlib (http://matplotlib.org/) -->
<svg height="648pt" version="1.1" viewBox="0 0 864 648" width="864pt" xmlns="http://www.w3.org/2000/svg" xmlns:xlink="http://www.w3.org/1999/xlink">
 <defs>
  <style type="text/css">
*{stroke-linecap:butt;stroke-linejoin:round;}
  </style>
 </defs>
 <g id="figure_1">
  <g id="patch_1">
   <path d="
M0 648
L864 648
L864 0
L0 0
z
" style="fill:#ffffff;"/>
  </g>
  <g id="axes_1">
   <g id="patch_2">
    <path d="
M108 583.2
L777.6 583.2
L777.6 64.8
L108 64.8
z
" style="fill:#ffffff;"/>
   </g>
   <g id="line2d_1">
    <path clip-path="url(#p7ceb695115)" d="
M108 583.2
L268.034 583.2
L268.704 565.92
L269.374 565.92
L270.043 583.2
L283.435 583.2
L284.105 565.92
L284.774 583.2
L290.801 583.2
L291.47 565.92
L292.14 565.92
L292.81 583.2
L302.184 583.2
L302.854 565.92
L303.523 583.2
L306.202 583.2
L306.871 565.92
L307.541 565.92
L308.21 583.2
L310.219 583.2
L310.889 565.92
L311.558 583.2
L312.228 583.2
L312.898 565.92
L313.567 583.2
L321.602 583.2
L322.272 565.92
L322.942 583.2
L496.368 583.2
L497.038 565.92
L507.082 565.92
L507.751 583.2
L508.421 565.92
L539.892 565.92
L540.562 548.64
L546.588 548.64
L547.258 531.36
L547.927 531.36
L548.597 514.08
L557.971 514.08
L558.641 496.8
L568.015 496.8
L568.685 514.08
L569.354 496.8
L571.363 496.8
L572.033 514.08
L572.702 496.8
L578.059 496.8
L578.729 479.52
L579.398 496.8
L580.068 479.52
L580.738 496.8
L581.407 479.52
L583.416 479.52
L584.086 496.8
L584.755 479.52
L585.425 444.96
L586.094 444.96
L586.764 427.68
L588.103 427.68
L588.773 444.96
L589.442 427.68
L594.13 427.68
L594.799 444.96
L595.469 427.68
L597.478 427.68
L598.147 444.96
L598.817 427.68
L603.504 427.68
L604.174 444.96
L605.513 444.96
L606.182 427.68
L606.852 427.68
L607.522 410.4
L608.191 427.68
L608.861 427.68
L609.53 410.4
L610.2 427.68
L610.87 427.68
L611.539 410.4
L612.209 410.4
L612.878 427.68
L613.548 427.68
L614.218 410.4
L620.914 410.4
L621.583 427.68
L622.253 427.68
L622.922 410.4
L623.592 427.68
L624.262 410.4
L624.931 410.4
L625.601 444.96
L626.27 410.4
L626.94 427.68
L627.61 427.68
L628.279 410.4
L630.958 410.4
L631.627 427.68
L632.297 410.4
L632.966 427.68
L633.636 410.4
L637.654 410.4
L638.323 444.96
L638.993 410.4
L639.662 410.4
L640.332 427.68
L641.002 410.4
L643.01 410.4
L643.68 393.12
L644.35 393.12
L645.019 375.84
L645.689 393.12
L646.358 375.84
L647.028 375.84
L647.698 393.12
L648.367 393.12
L649.037 375.84
L649.706 393.12
L650.376 375.84
L655.733 375.84
L656.402 393.12
L657.072 375.84
L657.742 393.12
L658.411 375.84
L659.75 375.84
L660.42 393.12
L661.09 375.84
L661.759 410.4
L662.429 375.84
L663.098 393.12
L665.107 393.12
L665.777 375.84
L667.116 375.84
L667.786 393.12
L668.455 393.12
L669.125 375.84
L670.464 375.84
L671.134 393.12
L671.803 375.84
L673.812 375.84
L674.482 393.12
L675.151 375.84
L678.499 375.84
L679.169 393.12
L679.838 375.84
L680.508 410.4
L681.178 375.84
L681.847 393.12
L682.517 375.84
L683.186 375.84
L683.856 358.56
L685.195 358.56
L685.865 393.12
L687.204 358.56
L687.874 358.56
L688.543 393.12
L689.213 358.56
L689.882 358.56
L690.552 393.12
L691.222 358.56
L692.561 358.56
L693.23 324
L693.9 324
L694.57 341.28
L695.239 324
L695.909 324
L696.578 341.28
L697.248 324
L699.926 324
L700.596 341.28
L701.266 324
L703.274 324
L703.944 358.56
L704.614 324
L705.283 324
L705.953 358.56
L706.622 341.28
L707.962 341.28
L708.631 324
L709.301 341.28
L710.64 341.28
L711.31 393.12
L712.649 324
L715.997 324
L716.666 341.28
L717.336 341.28
L718.006 324
L718.675 324
L719.345 341.28
L720.014 324
L720.684 341.28
L721.354 324
L724.702 324
L725.371 306.72
L726.041 306.72
L726.71 324
L727.38 306.72
L728.05 341.28
L728.719 306.72
L729.389 324
L730.058 306.72
L730.728 324
L732.067 324
L732.737 306.72
L733.406 324
L734.076 306.72
L734.746 324
L735.415 324
L736.085 289.44
L736.754 306.72
L737.424 306.72
L738.094 324
L739.433 324
L740.102 306.72
L742.111 306.72
L742.781 289.44
L743.45 289.44
L744.12 306.72
L744.79 306.72
L745.459 289.44
L746.129 306.72
L746.798 306.72
L747.468 324
L748.138 306.72
L749.477 306.72
L750.146 289.44
L750.816 306.72
L751.486 289.44
L752.825 324
L753.494 289.44
L754.164 306.72
L754.834 306.72
L755.503 254.88
L756.842 254.88
L757.512 289.44
L758.182 272.16
L758.851 306.72
L759.521 289.44
L760.19 254.88
L760.86 289.44
L761.53 272.16
L762.199 272.16
L762.869 254.88
L763.538 289.44
L764.208 272.16
L764.878 272.16
L765.547 254.88
L766.217 289.44
L767.556 254.88
L768.226 254.88
L768.895 272.16
L769.565 254.88
L770.904 289.44
L771.574 254.88
L774.252 254.88
L774.922 237.6
L776.93 237.6
L777.6 254.88
L777.6 254.88" style="fill:none;stroke:#ff0000;stroke-linecap:square;"/>
   </g>
   <g id="line2d_2">
    <path clip-path="url(#p7ceb695115)" d="
M108 583.2
L484.315 583.2
L484.985 565.92
L520.474 565.92
L521.813 531.36
L527.839 531.36
L528.509 514.08
L546.588 514.08
L547.258 496.8
L547.927 496.8
L548.597 514.08
L549.266 496.8
L551.945 496.8
L552.614 479.52
L553.284 479.52
L553.954 496.8
L554.623 479.52
L555.293 479.52
L555.962 462.24
L557.302 462.24
L557.971 479.52
L558.641 462.24
L568.015 462.24
L568.685 479.52
L569.354 462.24
L575.381 462.24
L576.05 444.96
L578.729 444.96
L579.398 462.24
L580.068 444.96
L580.738 462.24
L581.407 462.24
L582.077 444.96
L584.086 444.96
L584.755 427.68
L588.773 427.68
L589.442 444.96
L590.112 427.68
L598.817 427.68
L599.486 462.24
L600.156 427.68
L601.495 427.68
L602.165 444.96
L602.834 410.4
L604.843 410.4
L605.513 427.68
L606.182 410.4
L607.522 410.4
L608.191 444.96
L608.861 410.4
L609.53 410.4
L610.2 427.68
L611.539 427.68
L612.209 410.4
L612.878 427.68
L613.548 427.68
L614.218 410.4
L614.887 410.4
L615.557 427.68
L616.226 410.4
L616.896 444.96
L617.566 410.4
L621.583 410.4
L622.253 393.12
L622.922 410.4
L623.592 393.12
L625.601 393.12
L626.27 410.4
L626.94 393.12
L627.61 393.12
L628.279 410.4
L628.949 393.12
L630.288 393.12
L630.958 410.4
L631.627 393.12
L632.297 410.4
L632.966 410.4
L633.636 393.12
L634.306 393.12
L634.975 410.4
L636.314 410.4
L636.984 393.12
L637.654 410.4
L638.323 393.12
L638.993 393.12
L639.662 375.84
L643.68 375.84
L644.35 393.12
L645.019 393.12
L645.689 358.56
L646.358 358.56
L647.028 375.84
L647.698 375.84
L648.367 358.56
L649.706 358.56
L650.376 375.84
L651.046 358.56
L651.715 358.56
L652.385 341.28
L654.394 341.28
L655.733 375.84
L656.402 341.28
L658.411 341.28
L659.081 324
L659.75 341.28
L660.42 324
L661.09 341.28
L661.759 324
L665.777 324
L666.446 306.72
L667.116 306.72
L667.786 341.28
L669.125 306.72
L669.794 324
L670.464 306.72
L671.134 341.28
L671.803 306.72
L678.499 306.72
L679.169 324
L680.508 324
L681.178 289.44
L681.847 324
L683.186 324
L683.856 289.44
L684.526 289.44
L685.865 324
L687.204 289.44
L687.874 324
L689.213 289.44
L689.882 289.44
L690.552 272.16
L691.222 324
L691.891 272.16
L693.9 272.16
L694.57 289.44
L695.239 272.16
L695.909 272.16
L697.248 237.6
L697.918 237.6
L698.587 254.88
L699.257 254.88
L699.926 272.16
L700.596 237.6
L701.266 289.44
L701.935 254.88
L702.605 237.6
L704.614 237.6
L705.283 220.32
L706.622 220.32
L707.292 254.88
L707.962 220.32
L708.631 254.88
L709.301 220.32
L709.97 237.6
L710.64 237.6
L711.31 220.32
L713.988 220.32
L714.658 203.04
L715.327 203.04
L716.666 237.6
L717.336 185.76
L718.006 220.32
L718.675 185.76
L719.345 220.32
L720.014 203.04
L720.684 203.04
L721.354 185.76
L722.693 185.76
L723.362 203.04
L724.032 185.76
L724.702 185.76
L725.371 168.48
L726.71 203.04
L727.38 151.2
L728.05 185.76
L728.719 151.2
L729.389 151.2
L730.058 185.76
L730.728 168.48
L732.067 168.48
L732.737 151.2
L734.076 151.2
L734.746 185.76
L735.415 185.76
L736.085 151.2
L736.754 133.92
L737.424 133.92
L738.094 151.2
L738.763 116.64
L739.433 151.2
L740.102 133.92
L740.772 99.36
L742.111 99.36
L742.781 116.64
L743.45 116.64
L744.12 133.92
L744.79 116.64
L745.459 168.48
L746.129 151.2
L746.798 99.36
L747.468 99.36
L748.138 116.64
L748.807 168.48
L749.477 116.64
L750.146 99.36
L750.816 133.92
L751.486 133.92
L752.155 99.36
L752.825 99.36
L753.494 133.92
L754.164 133.92
L754.834 116.64
L755.503 116.64
L756.173 151.2
L756.842 133.92
L757.512 133.92
L758.182 151.2
L758.851 116.64
L759.521 99.36
L760.19 99.36
L760.86 116.64
L762.869 116.64
L763.538 151.2
L764.208 99.36
L765.547 168.48
L766.217 99.36
L766.886 116.64
L768.895 116.64
L769.565 99.36
L770.904 133.92
L771.574 133.92
L772.243 151.2
L772.913 99.36
L773.582 133.92
L774.922 99.36
L775.591 133.92
L776.261 133.92
L776.93 116.64
L777.6 116.64
L777.6 116.64" style="fill:none;stroke:#008000;stroke-linecap:square;"/>
   </g>
   <g id="line2d_3">
    <path clip-path="url(#p7ceb695115)" d="
M108 583.2
L218.484 583.2
L219.154 565.92
L219.823 583.2
L224.51 583.2
L225.18 565.92
L225.85 565.92
L226.519 583.2
L227.189 565.92
L227.858 583.2
L231.206 583.2
L231.876 565.92
L232.546 583.2
L235.894 583.2
L236.563 565.92
L237.233 583.2
L237.902 565.92
L238.572 583.2
L240.581 583.2
L241.25 565.92
L241.92 583.2
L245.268 583.2
L245.938 565.92
L246.607 565.92
L247.277 583.2
L252.634 583.2
L253.303 565.92
L253.973 583.2
L259.33 583.2
L259.999 565.92
L260.669 583.2
L262.008 583.2
L262.678 565.92
L263.347 583.2
L266.026 583.2
L266.695 565.92
L267.365 565.92
L268.034 583.2
L275.4 583.2
L276.07 565.92
L276.739 583.2
L277.409 583.2
L278.078 565.92
L278.748 583.2
L279.418 583.2
L280.087 565.92
L280.757 583.2
L286.114 583.2
L286.783 565.92
L287.453 583.2
L297.497 583.2
L298.166 565.92
L298.836 583.2
L299.506 583.2
L300.175 565.92
L300.845 583.2
L301.514 583.2
L302.184 565.92
L302.854 583.2
L304.862 583.2
L305.532 565.92
L306.202 583.2
L313.567 583.2
L314.237 565.92
L314.906 583.2
L376.51 583.2
L377.179 565.92
L377.849 565.92
L378.518 583.2
L379.188 565.92
L379.858 583.2
L401.285 583.2
L401.954 565.92
L402.624 565.92
L403.294 583.2
L404.633 583.2
L405.302 565.92
L405.972 583.2
L406.642 565.92
L407.311 583.2
L418.025 583.2
L418.694 565.92
L419.364 583.2
L422.712 583.2
L423.382 565.92
L424.051 583.2
L430.078 583.2
L430.747 565.92
L431.417 583.2
L432.086 583.2
L432.756 565.92
L433.426 583.2
L436.774 583.2
L437.443 565.92
L438.113 583.2
L438.782 565.92
L439.452 583.2
L440.122 565.92
L440.791 583.2
L441.461 565.92
L442.13 583.2
L444.139 583.2
L444.809 565.92
L445.478 583.2
L446.148 565.92
L462.888 565.92
L463.558 583.2
L464.227 565.92
L515.117 565.92
L515.786 548.64
L516.456 548.64
L517.126 531.36
L524.491 531.36
L525.161 548.64
L525.83 531.36
L533.866 531.36
L534.535 514.08
L537.883 514.08
L538.553 496.8
L539.892 496.8
L540.562 514.08
L541.231 496.8
L545.249 496.8
L545.918 479.52
L547.258 479.52
L547.927 462.24
L548.597 479.52
L549.266 462.24
L554.623 462.24
L555.293 479.52
L555.962 462.24
L558.641 462.24
L559.31 479.52
L560.65 479.52
L561.319 462.24
L563.998 462.24
L564.667 479.52
L565.337 462.24
L568.685 462.24
L569.354 479.52
L570.024 462.24
L571.363 462.24
L572.033 479.52
L572.702 462.24
L573.372 479.52
L574.042 462.24
L582.746 462.24
L583.416 444.96
L584.086 444.96
L584.755 462.24
L585.425 444.96
L586.094 462.24
L586.764 462.24
L587.434 444.96
L588.773 444.96
L589.442 427.68
L594.13 427.68
L594.799 410.4
L596.808 410.4
L597.478 427.68
L598.147 410.4
L598.817 427.68
L599.486 427.68
L600.156 410.4
L603.504 410.4
L604.174 427.68
L604.843 410.4
L608.191 410.4
L608.861 427.68
L610.87 427.68
L611.539 444.96
L612.209 427.68
L618.905 427.68
L619.574 410.4
L620.244 410.4
L620.914 427.68
L625.601 427.68
L626.27 444.96
L626.94 427.68
L628.279 427.68
L628.949 410.4
L629.618 427.68
L630.288 427.68
L630.958 410.4
L631.627 410.4
L632.966 375.84
L633.636 375.84
L634.306 410.4
L634.975 375.84
L637.654 375.84
L638.323 393.12
L638.993 375.84
L639.662 375.84
L640.332 427.68
L641.002 375.84
L644.35 375.84
L645.019 393.12
L645.689 375.84
L648.367 375.84
L649.037 410.4
L649.706 375.84
L650.376 375.84
L651.715 410.4
L652.385 375.84
L655.063 375.84
L655.733 410.4
L657.072 375.84
L659.75 375.84
L660.42 358.56
L661.09 375.84
L661.759 358.56
L662.429 375.84
L663.098 358.56
L663.768 375.84
L664.438 358.56
L665.107 375.84
L665.777 375.84
L666.446 358.56
L667.116 375.84
L667.786 375.84
L668.455 358.56
L670.464 358.56
L671.134 375.84
L671.803 358.56
L674.482 358.56
L675.151 375.84
L675.821 341.28
L676.49 358.56
L677.16 341.28
L677.83 341.28
L678.499 358.56
L679.169 358.56
L679.838 341.28
L681.847 341.28
L683.186 375.84
L683.856 341.28
L684.526 358.56
L685.195 341.28
L685.865 341.28
L686.534 358.56
L687.204 341.28
L688.543 341.28
L689.213 358.56
L689.882 341.28
L690.552 341.28
L691.222 358.56
L691.891 341.28
L692.561 341.28
L693.23 358.56
L695.239 358.56
L695.909 341.28
L698.587 341.28
L699.257 358.56
L699.926 341.28
L700.596 341.28
L701.266 358.56
L701.935 341.28
L703.944 341.28
L704.614 358.56
L706.622 358.56
L707.292 375.84
L707.962 358.56
L709.301 358.56
L710.64 324
L711.31 341.28
L711.979 324
L712.649 324
L713.318 341.28
L714.658 341.28
L715.327 324
L718.675 324
L719.345 341.28
L720.014 324
L720.684 341.28
L721.354 324
L722.023 324
L722.693 341.28
L723.362 324
L726.71 324
L728.05 358.56
L728.719 324
L729.389 341.28
L730.058 324
L730.728 341.28
L731.398 341.28
L732.067 306.72
L732.737 324
L733.406 306.72
L734.076 341.28
L735.415 306.72
L736.085 341.28
L736.754 306.72
L737.424 341.28
L738.094 324
L738.763 324
L739.433 306.72
L740.102 341.28
L740.772 306.72
L742.111 341.28
L742.781 306.72
L746.129 306.72
L746.798 341.28
L747.468 341.28
L748.138 324
L748.807 375.84
L749.477 341.28
L750.816 306.72
L752.155 306.72
L752.825 324
L754.164 324
L754.834 306.72
L755.503 324
L756.842 324
L757.512 341.28
L759.521 289.44
L760.86 289.44
L762.199 324
L762.869 289.44
L763.538 289.44
L764.208 306.72
L764.878 341.28
L766.217 306.72
L766.886 306.72
L767.556 289.44
L771.574 289.44
L772.243 306.72
L774.252 306.72
L774.922 324
L775.591 289.44
L776.261 289.44
L776.93 306.72
L777.6 289.44
L777.6 289.44" style="fill:none;stroke:#0000ff;stroke-linecap:square;"/>
   </g>
   <g id="patch_3">
    <path d="
M108 583.2
L777.6 583.2" style="fill:none;stroke:#000000;stroke-linecap:square;stroke-linejoin:miter;"/>
   </g>
   <g id="patch_4">
    <path d="
M777.6 583.2
L777.6 64.8" style="fill:none;stroke:#000000;stroke-linecap:square;stroke-linejoin:miter;"/>
   </g>
   <g id="patch_5">
    <path d="
M108 583.2
L108 64.8" style="fill:none;stroke:#000000;stroke-linecap:square;stroke-linejoin:miter;"/>
   </g>
   <g id="patch_6">
    <path d="
M108 64.8
L777.6 64.8" style="fill:none;stroke:#000000;stroke-linecap:square;stroke-linejoin:miter;"/>
   </g>
   <g id="matplotlib.axis_1">
    <g id="xtick_1">
     <g id="line2d_4">
      <defs>
       <path d="
M0 0
L0 -4" id="mc7db9fdffb" style="stroke:#000000;stroke-width:0.5;"/>
      </defs>
      <g>
       <use style="stroke:#000000;stroke-width:0.5;" x="108.0" xlink:href="#mc7db9fdffb" y="583.2"/>
      </g>
     </g>
     <g id="line2d_5">
      <defs>
       <path d="
M0 0
L0 4" id="m5a7d422ac3" style="stroke:#000000;stroke-width:0.5;"/>
      </defs>
      <g>
       <use style="stroke:#000000;stroke-width:0.5;" x="108.0" xlink:href="#m5a7d422ac3" y="64.8"/>
      </g>
     </g>
     <g id="text_1">
      <!-- 0 -->
      <defs>
       <path d="
M31.7812 66.4062
Q24.1719 66.4062 20.3281 58.9062
Q16.5 51.4219 16.5 36.375
Q16.5 21.3906 20.3281 13.8906
Q24.1719 6.39062 31.7812 6.39062
Q39.4531 6.39062 43.2812 13.8906
Q47.125 21.3906 47.125 36.375
Q47.125 51.4219 43.2812 58.9062
Q39.4531 66.4062 31.7812 66.4062
M31.7812 74.2188
Q44.0469 74.2188 50.5156 64.5156
Q56.9844 54.8281 56.9844 36.375
Q56.9844 17.9688 50.5156 8.26562
Q44.0469 -1.42188 31.7812 -1.42188
Q19.5312 -1.42188 13.0625 8.26562
Q6.59375 17.9688 6.59375 36.375
Q6.59375 54.8281 13.0625 64.5156
Q19.5312 74.2188 31.7812 74.2188" id="BitstreamVeraSans-Roman-30"/>
      </defs>
      <g transform="translate(104.9765625 596.318125)scale(0.12 -0.12)">
       <use xlink:href="#BitstreamVeraSans-Roman-30"/>
      </g>
     </g>
    </g>
    <g id="xtick_2">
     <g id="line2d_6">
      <g>
       <use style="stroke:#000000;stroke-width:0.5;" x="275.4" xlink:href="#mc7db9fdffb" y="583.2"/>
      </g>
     </g>
     <g id="line2d_7">
      <g>
       <use style="stroke:#000000;stroke-width:0.5;" x="275.4" xlink:href="#m5a7d422ac3" y="64.8"/>
      </g>
     </g>
     <g id="text_2">
      <!-- 50000 -->
      <defs>
       <path d="
M10.7969 72.9062
L49.5156 72.9062
L49.5156 64.5938
L19.8281 64.5938
L19.8281 46.7344
Q21.9688 47.4688 24.1094 47.8281
Q26.2656 48.1875 28.4219 48.1875
Q40.625 48.1875 47.75 41.5
Q54.8906 34.8125 54.8906 23.3906
Q54.8906 11.625 47.5625 5.09375
Q40.2344 -1.42188 26.9062 -1.42188
Q22.3125 -1.42188 17.5469 -0.640625
Q12.7969 0.140625 7.71875 1.70312
L7.71875 11.625
Q12.1094 9.23438 16.7969 8.0625
Q21.4844 6.89062 26.7031 6.89062
Q35.1562 6.89062 40.0781 11.3281
Q45.0156 15.7656 45.0156 23.3906
Q45.0156 31 40.0781 35.4375
Q35.1562 39.8906 26.7031 39.8906
Q22.75 39.8906 18.8125 39.0156
Q14.8906 38.1406 10.7969 36.2812
z
" id="BitstreamVeraSans-Roman-35"/>
      </defs>
      <g transform="translate(257.1740625 596.318125)scale(0.12 -0.12)">
       <use xlink:href="#BitstreamVeraSans-Roman-35"/>
       <use x="63.623046875" xlink:href="#BitstreamVeraSans-Roman-30"/>
       <use x="127.24609375" xlink:href="#BitstreamVeraSans-Roman-30"/>
       <use x="190.869140625" xlink:href="#BitstreamVeraSans-Roman-30"/>
       <use x="254.4921875" xlink:href="#BitstreamVeraSans-Roman-30"/>
      </g>
     </g>
    </g>
    <g id="xtick_3">
     <g id="line2d_8">
      <g>
       <use style="stroke:#000000;stroke-width:0.5;" x="442.8" xlink:href="#mc7db9fdffb" y="583.2"/>
      </g>
     </g>
     <g id="line2d_9">
      <g>
       <use style="stroke:#000000;stroke-width:0.5;" x="442.8" xlink:href="#m5a7d422ac3" y="64.8"/>
      </g>
     </g>
     <g id="text_3">
      <!-- 100000 -->
      <defs>
       <path d="
M12.4062 8.29688
L28.5156 8.29688
L28.5156 63.9219
L10.9844 60.4062
L10.9844 69.3906
L28.4219 72.9062
L38.2812 72.9062
L38.2812 8.29688
L54.3906 8.29688
L54.3906 0
L12.4062 0
z
" id="BitstreamVeraSans-Roman-31"/>
      </defs>
      <g transform="translate(420.9525 596.318125)scale(0.12 -0.12)">
       <use xlink:href="#BitstreamVeraSans-Roman-31"/>
       <use x="63.623046875" xlink:href="#BitstreamVeraSans-Roman-30"/>
       <use x="127.24609375" xlink:href="#BitstreamVeraSans-Roman-30"/>
       <use x="190.869140625" xlink:href="#BitstreamVeraSans-Roman-30"/>
       <use x="254.4921875" xlink:href="#BitstreamVeraSans-Roman-30"/>
       <use x="318.115234375" xlink:href="#BitstreamVeraSans-Roman-30"/>
      </g>
     </g>
    </g>
    <g id="xtick_4">
     <g id="line2d_10">
      <g>
       <use style="stroke:#000000;stroke-width:0.5;" x="610.2" xlink:href="#mc7db9fdffb" y="583.2"/>
      </g>
     </g>
     <g id="line2d_11">
      <g>
       <use style="stroke:#000000;stroke-width:0.5;" x="610.2" xlink:href="#m5a7d422ac3" y="64.8"/>
      </g>
     </g>
     <g id="text_4">
      <!-- 150000 -->
      <g transform="translate(588.3525 596.318125)scale(0.12 -0.12)">
       <use xlink:href="#BitstreamVeraSans-Roman-31"/>
       <use x="63.623046875" xlink:href="#BitstreamVeraSans-Roman-35"/>
       <use x="127.24609375" xlink:href="#BitstreamVeraSans-Roman-30"/>
       <use x="190.869140625" xlink:href="#BitstreamVeraSans-Roman-30"/>
       <use x="254.4921875" xlink:href="#BitstreamVeraSans-Roman-30"/>
       <use x="318.115234375" xlink:href="#BitstreamVeraSans-Roman-30"/>
      </g>
     </g>
    </g>
    <g id="xtick_5">
     <g id="line2d_12">
      <g>
       <use style="stroke:#000000;stroke-width:0.5;" x="777.6" xlink:href="#mc7db9fdffb" y="583.2"/>
      </g>
     </g>
     <g id="line2d_13">
      <g>
       <use style="stroke:#000000;stroke-width:0.5;" x="777.6" xlink:href="#m5a7d422ac3" y="64.8"/>
      </g>
     </g>
     <g id="text_5">
      <!-- 200000 -->
      <defs>
       <path d="
M19.1875 8.29688
L53.6094 8.29688
L53.6094 0
L7.32812 0
L7.32812 8.29688
Q12.9375 14.1094 22.625 23.8906
Q32.3281 33.6875 34.8125 36.5312
Q39.5469 41.8438 41.4219 45.5312
Q43.3125 49.2188 43.3125 52.7812
Q43.3125 58.5938 39.2344 62.25
Q35.1562 65.9219 28.6094 65.9219
Q23.9688 65.9219 18.8125 64.3125
Q13.6719 62.7031 7.8125 59.4219
L7.8125 69.3906
Q13.7656 71.7812 18.9375 73
Q24.125 74.2188 28.4219 74.2188
Q39.75 74.2188 46.4844 68.5469
Q53.2188 62.8906 53.2188 53.4219
Q53.2188 48.9219 51.5312 44.8906
Q49.8594 40.875 45.4062 35.4062
Q44.1875 33.9844 37.6406 27.2188
Q31.1094 20.4531 19.1875 8.29688" id="BitstreamVeraSans-Roman-32"/>
      </defs>
      <g transform="translate(755.533125 596.318125)scale(0.12 -0.12)">
       <use xlink:href="#BitstreamVeraSans-Roman-32"/>
       <use x="63.623046875" xlink:href="#BitstreamVeraSans-Roman-30"/>
       <use x="127.24609375" xlink:href="#BitstreamVeraSans-Roman-30"/>
       <use x="190.869140625" xlink:href="#BitstreamVeraSans-Roman-30"/>
       <use x="254.4921875" xlink:href="#BitstreamVeraSans-Roman-30"/>
       <use x="318.115234375" xlink:href="#BitstreamVeraSans-Roman-30"/>
      </g>
     </g>
    </g>
    <g id="text_6">
     <!-- t / ms -->
     <defs>
      <path d="
M44.2812 53.0781
L44.2812 44.5781
Q40.4844 46.5312 36.375 47.5
Q32.2812 48.4844 27.875 48.4844
Q21.1875 48.4844 17.8438 46.4375
Q14.5 44.3906 14.5 40.2812
Q14.5 37.1562 16.8906 35.375
Q19.2812 33.5938 26.5156 31.9844
L29.5938 31.2969
Q39.1562 29.25 43.1875 25.5156
Q47.2188 21.7812 47.2188 15.0938
Q47.2188 7.46875 41.1875 3.01562
Q35.1562 -1.42188 24.6094 -1.42188
Q20.2188 -1.42188 15.4531 -0.5625
Q10.6875 0.296875 5.42188 2
L5.42188 11.2812
Q10.4062 8.6875 15.2344 7.39062
Q20.0625 6.10938 24.8125 6.10938
Q31.1562 6.10938 34.5625 8.28125
Q37.9844 10.4531 37.9844 14.4062
Q37.9844 18.0625 35.5156 20.0156
Q33.0625 21.9688 24.7031 23.7812
L21.5781 24.5156
Q13.2344 26.2656 9.51562 29.9062
Q5.8125 33.5469 5.8125 39.8906
Q5.8125 47.6094 11.2812 51.7969
Q16.75 56 26.8125 56
Q31.7812 56 36.1719 55.2656
Q40.5781 54.5469 44.2812 53.0781" id="BitstreamVeraSans-Roman-73"/>
      <path d="
M52 44.1875
Q55.375 50.25 60.0625 53.125
Q64.75 56 71.0938 56
Q79.6406 56 84.2812 50.0156
Q88.9219 44.0469 88.9219 33.0156
L88.9219 0
L79.8906 0
L79.8906 32.7188
Q79.8906 40.5781 77.0938 44.375
Q74.3125 48.1875 68.6094 48.1875
Q61.625 48.1875 57.5625 43.5469
Q53.5156 38.9219 53.5156 30.9062
L53.5156 0
L44.4844 0
L44.4844 32.7188
Q44.4844 40.625 41.7031 44.4062
Q38.9219 48.1875 33.1094 48.1875
Q26.2188 48.1875 22.1562 43.5312
Q18.1094 38.875 18.1094 30.9062
L18.1094 0
L9.07812 0
L9.07812 54.6875
L18.1094 54.6875
L18.1094 46.1875
Q21.1875 51.2188 25.4844 53.6094
Q29.7812 56 35.6875 56
Q41.6562 56 45.8281 52.9688
Q50 49.9531 52 44.1875" id="BitstreamVeraSans-Roman-6d"/>
      <path d="
M25.3906 72.9062
L33.6875 72.9062
L8.29688 -9.28125
L0 -9.28125
z
" id="BitstreamVeraSans-Roman-2f"/>
      <path id="BitstreamVeraSans-Roman-20"/>
      <path d="
M18.3125 70.2188
L18.3125 54.6875
L36.8125 54.6875
L36.8125 47.7031
L18.3125 47.7031
L18.3125 18.0156
Q18.3125 11.3281 20.1406 9.42188
Q21.9688 7.51562 27.5938 7.51562
L36.8125 7.51562
L36.8125 0
L27.5938 0
Q17.1875 0 13.2344 3.875
Q9.28125 7.76562 9.28125 18.0156
L9.28125 47.7031
L2.6875 47.7031
L2.6875 54.6875
L9.28125 54.6875
L9.28125 70.2188
z
" id="BitstreamVeraSans-Roman-74"/>
     </defs>
     <g transform="translate(425.9353125 612.931875)scale(0.12 -0.12)">
      <use xlink:href="#BitstreamVeraSans-Roman-74"/>
      <use x="39.208984375" xlink:href="#BitstreamVeraSans-Roman-20"/>
      <use x="70.99609375" xlink:href="#BitstreamVeraSans-Roman-2f"/>
      <use x="104.6875" xlink:href="#BitstreamVeraSans-Roman-20"/>
      <use x="136.474609375" xlink:href="#BitstreamVeraSans-Roman-6d"/>
      <use x="233.88671875" xlink:href="#BitstreamVeraSans-Roman-73"/>
     </g>
    </g>
   </g>
   <g id="matplotlib.axis_2">
    <g id="ytick_1">
     <g id="line2d_14">
      <defs>
       <path d="
M0 0
L4 0" id="md7965d1ba0" style="stroke:#000000;stroke-width:0.5;"/>
      </defs>
      <g>
       <use style="stroke:#000000;stroke-width:0.5;" x="108.0" xlink:href="#md7965d1ba0" y="583.2"/>
      </g>
     </g>
     <g id="line2d_15">
      <defs>
       <path d="
M0 0
L-4 0" id="md9a1c1a7cd" style="stroke:#000000;stroke-width:0.5;"/>
      </defs>
      <g>
       <use style="stroke:#000000;stroke-width:0.5;" x="777.6" xlink:href="#md9a1c1a7cd" y="583.2"/>
      </g>
     </g>
     <g id="text_7">
      <!-- 0 -->
      <g transform="translate(97.953125 586.51125)scale(0.12 -0.12)">
       <use xlink:href="#BitstreamVeraSans-Roman-30"/>
      </g>
     </g>
    </g>
    <g id="ytick_2">
     <g id="line2d_16">
      <g>
       <use style="stroke:#000000;stroke-width:0.5;" x="108.0" xlink:href="#md7965d1ba0" y="496.8"/>
      </g>
     </g>
     <g id="line2d_17">
      <g>
       <use style="stroke:#000000;stroke-width:0.5;" x="777.6" xlink:href="#md9a1c1a7cd" y="496.8"/>
      </g>
     </g>
     <g id="text_8">
      <!-- 5 -->
      <g transform="translate(98.339375 500.11125)scale(0.12 -0.12)">
       <use xlink:href="#BitstreamVeraSans-Roman-35"/>
      </g>
     </g>
    </g>
    <g id="ytick_3">
     <g id="line2d_18">
      <g>
       <use style="stroke:#000000;stroke-width:0.5;" x="108.0" xlink:href="#md7965d1ba0" y="410.4"/>
      </g>
     </g>
     <g id="line2d_19">
      <g>
       <use style="stroke:#000000;stroke-width:0.5;" x="777.6" xlink:href="#md9a1c1a7cd" y="410.4"/>
      </g>
     </g>
     <g id="text_9">
      <!-- 10 -->
      <g transform="translate(90.845 413.71125)scale(0.12 -0.12)">
       <use xlink:href="#BitstreamVeraSans-Roman-31"/>
       <use x="63.623046875" xlink:href="#BitstreamVeraSans-Roman-30"/>
      </g>
     </g>
    </g>
    <g id="ytick_4">
     <g id="line2d_20">
      <g>
       <use style="stroke:#000000;stroke-width:0.5;" x="108.0" xlink:href="#md7965d1ba0" y="324.0"/>
      </g>
     </g>
     <g id="line2d_21">
      <g>
       <use style="stroke:#000000;stroke-width:0.5;" x="777.6" xlink:href="#md9a1c1a7cd" y="324.0"/>
      </g>
     </g>
     <g id="text_10">
      <!-- 15 -->
      <g transform="translate(91.09625 327.31125)scale(0.12 -0.12)">
       <use xlink:href="#BitstreamVeraSans-Roman-31"/>
       <use x="63.623046875" xlink:href="#BitstreamVeraSans-Roman-35"/>
      </g>
     </g>
    </g>
    <g id="ytick_5">
     <g id="line2d_22">
      <g>
       <use style="stroke:#000000;stroke-width:0.5;" x="108.0" xlink:href="#md7965d1ba0" y="237.6"/>
      </g>
     </g>
     <g id="line2d_23">
      <g>
       <use style="stroke:#000000;stroke-width:0.5;" x="777.6" xlink:href="#md9a1c1a7cd" y="237.6"/>
      </g>
     </g>
     <g id="text_11">
      <!-- 20 -->
      <g transform="translate(90.40625 240.91125)scale(0.12 -0.12)">
       <use xlink:href="#BitstreamVeraSans-Roman-32"/>
       <use x="63.623046875" xlink:href="#BitstreamVeraSans-Roman-30"/>
      </g>
     </g>
    </g>
    <g id="ytick_6">
     <g id="line2d_24">
      <g>
       <use style="stroke:#000000;stroke-width:0.5;" x="108.0" xlink:href="#md7965d1ba0" y="151.2"/>
      </g>
     </g>
     <g id="line2d_25">
      <g>
       <use style="stroke:#000000;stroke-width:0.5;" x="777.6" xlink:href="#md9a1c1a7cd" y="151.2"/>
      </g>
     </g>
     <g id="text_12">
      <!-- 25 -->
      <g transform="translate(90.6575 154.51125)scale(0.12 -0.12)">
       <use xlink:href="#BitstreamVeraSans-Roman-32"/>
       <use x="63.623046875" xlink:href="#BitstreamVeraSans-Roman-35"/>
      </g>
     </g>
    </g>
    <g id="ytick_7">
     <g id="line2d_26">
      <g>
       <use style="stroke:#000000;stroke-width:0.5;" x="108.0" xlink:href="#md7965d1ba0" y="64.8"/>
      </g>
     </g>
     <g id="line2d_27">
      <g>
       <use style="stroke:#000000;stroke-width:0.5;" x="777.6" xlink:href="#md9a1c1a7cd" y="64.8"/>
      </g>
     </g>
     <g id="text_13">
      <!-- 30 -->
      <defs>
       <path d="
M40.5781 39.3125
Q47.6562 37.7969 51.625 33
Q55.6094 28.2188 55.6094 21.1875
Q55.6094 10.4062 48.1875 4.48438
Q40.7656 -1.42188 27.0938 -1.42188
Q22.5156 -1.42188 17.6562 -0.515625
Q12.7969 0.390625 7.625 2.20312
L7.625 11.7188
Q11.7188 9.32812 16.5938 8.10938
Q21.4844 6.89062 26.8125 6.89062
Q36.0781 6.89062 40.9375 10.5469
Q45.7969 14.2031 45.7969 21.1875
Q45.7969 27.6406 41.2812 31.2656
Q36.7656 34.9062 28.7188 34.9062
L20.2188 34.9062
L20.2188 43.0156
L29.1094 43.0156
Q36.375 43.0156 40.2344 45.9219
Q44.0938 48.8281 44.0938 54.2969
Q44.0938 59.9062 40.1094 62.9062
Q36.1406 65.9219 28.7188 65.9219
Q24.6562 65.9219 20.0156 65.0312
Q15.375 64.1562 9.8125 62.3125
L9.8125 71.0938
Q15.4375 72.6562 20.3438 73.4375
Q25.25 74.2188 29.5938 74.2188
Q40.8281 74.2188 47.3594 69.1094
Q53.9062 64.0156 53.9062 55.3281
Q53.9062 49.2656 50.4375 45.0938
Q46.9688 40.9219 40.5781 39.3125" id="BitstreamVeraSans-Roman-33"/>
      </defs>
      <g transform="translate(90.441875 68.11125)scale(0.12 -0.12)">
       <use xlink:href="#BitstreamVeraSans-Roman-33"/>
       <use x="63.623046875" xlink:href="#BitstreamVeraSans-Roman-30"/>
      </g>
     </g>
    </g>
    <g id="text_14">
     <!-- particle numbers -->
     <defs>
      <path d="
M48.6875 27.2969
Q48.6875 37.2031 44.6094 42.8438
Q40.5312 48.4844 33.4062 48.4844
Q26.2656 48.4844 22.1875 42.8438
Q18.1094 37.2031 18.1094 27.2969
Q18.1094 17.3906 22.1875 11.75
Q26.2656 6.10938 33.4062 6.10938
Q40.5312 6.10938 44.6094 11.75
Q48.6875 17.3906 48.6875 27.2969
M18.1094 46.3906
Q20.9531 51.2656 25.2656 53.625
Q29.5938 56 35.5938 56
Q45.5625 56 51.7812 48.0938
Q58.0156 40.1875 58.0156 27.2969
Q58.0156 14.4062 51.7812 6.48438
Q45.5625 -1.42188 35.5938 -1.42188
Q29.5938 -1.42188 25.2656 0.953125
Q20.9531 3.32812 18.1094 8.20312
L18.1094 0
L9.07812 0
L9.07812 75.9844
L18.1094 75.9844
z
" id="BitstreamVeraSans-Roman-62"/>
      <path d="
M9.42188 75.9844
L18.4062 75.9844
L18.4062 0
L9.42188 0
z
" id="BitstreamVeraSans-Roman-6c"/>
      <path d="
M56.2031 29.5938
L56.2031 25.2031
L14.8906 25.2031
Q15.4844 15.9219 20.4844 11.0625
Q25.4844 6.20312 34.4219 6.20312
Q39.5938 6.20312 44.4531 7.46875
Q49.3125 8.73438 54.1094 11.2812
L54.1094 2.78125
Q49.2656 0.734375 44.1875 -0.34375
Q39.1094 -1.42188 33.8906 -1.42188
Q20.7969 -1.42188 13.1562 6.1875
Q5.51562 13.8125 5.51562 26.8125
Q5.51562 40.2344 12.7656 48.1094
Q20.0156 56 32.3281 56
Q43.3594 56 49.7812 48.8906
Q56.2031 41.7969 56.2031 29.5938
M47.2188 32.2344
Q47.125 39.5938 43.0938 43.9844
Q39.0625 48.3906 32.4219 48.3906
Q24.9062 48.3906 20.3906 44.1406
Q15.875 39.8906 15.1875 32.1719
z
" id="BitstreamVeraSans-Roman-65"/>
      <path d="
M18.1094 8.20312
L18.1094 -20.7969
L9.07812 -20.7969
L9.07812 54.6875
L18.1094 54.6875
L18.1094 46.3906
Q20.9531 51.2656 25.2656 53.625
Q29.5938 56 35.5938 56
Q45.5625 56 51.7812 48.0938
Q58.0156 40.1875 58.0156 27.2969
Q58.0156 14.4062 51.7812 6.48438
Q45.5625 -1.42188 35.5938 -1.42188
Q29.5938 -1.42188 25.2656 0.953125
Q20.9531 3.32812 18.1094 8.20312
M48.6875 27.2969
Q48.6875 37.2031 44.6094 42.8438
Q40.5312 48.4844 33.4062 48.4844
Q26.2656 48.4844 22.1875 42.8438
Q18.1094 37.2031 18.1094 27.2969
Q18.1094 17.3906 22.1875 11.75
Q26.2656 6.10938 33.4062 6.10938
Q40.5312 6.10938 44.6094 11.75
Q48.6875 17.3906 48.6875 27.2969" id="BitstreamVeraSans-Roman-70"/>
      <path d="
M41.1094 46.2969
Q39.5938 47.1719 37.8125 47.5781
Q36.0312 48 33.8906 48
Q26.2656 48 22.1875 43.0469
Q18.1094 38.0938 18.1094 28.8125
L18.1094 0
L9.07812 0
L9.07812 54.6875
L18.1094 54.6875
L18.1094 46.1875
Q20.9531 51.1719 25.4844 53.5781
Q30.0312 56 36.5312 56
Q37.4531 56 38.5781 55.875
Q39.7031 55.7656 41.0625 55.5156
z
" id="BitstreamVeraSans-Roman-72"/>
      <path d="
M8.5 21.5781
L8.5 54.6875
L17.4844 54.6875
L17.4844 21.9219
Q17.4844 14.1562 20.5 10.2656
Q23.5312 6.39062 29.5938 6.39062
Q36.8594 6.39062 41.0781 11.0312
Q45.3125 15.6719 45.3125 23.6875
L45.3125 54.6875
L54.2969 54.6875
L54.2969 0
L45.3125 0
L45.3125 8.40625
Q42.0469 3.42188 37.7188 1
Q33.4062 -1.42188 27.6875 -1.42188
Q18.2656 -1.42188 13.375 4.4375
Q8.5 10.2969 8.5 21.5781" id="BitstreamVeraSans-Roman-75"/>
      <path d="
M48.7812 52.5938
L48.7812 44.1875
Q44.9688 46.2969 41.1406 47.3438
Q37.3125 48.3906 33.4062 48.3906
Q24.6562 48.3906 19.8125 42.8438
Q14.9844 37.3125 14.9844 27.2969
Q14.9844 17.2812 19.8125 11.7344
Q24.6562 6.20312 33.4062 6.20312
Q37.3125 6.20312 41.1406 7.25
Q44.9688 8.29688 48.7812 10.4062
L48.7812 2.09375
Q45.0156 0.34375 40.9844 -0.53125
Q36.9688 -1.42188 32.4219 -1.42188
Q20.0625 -1.42188 12.7812 6.34375
Q5.51562 14.1094 5.51562 27.2969
Q5.51562 40.6719 12.8594 48.3281
Q20.2188 56 33.0156 56
Q37.1562 56 41.1094 55.1406
Q45.0625 54.2969 48.7812 52.5938" id="BitstreamVeraSans-Roman-63"/>
      <path d="
M9.42188 54.6875
L18.4062 54.6875
L18.4062 0
L9.42188 0
z

M9.42188 75.9844
L18.4062 75.9844
L18.4062 64.5938
L9.42188 64.5938
z
" id="BitstreamVeraSans-Roman-69"/>
      <path d="
M34.2812 27.4844
Q23.3906 27.4844 19.1875 25
Q14.9844 22.5156 14.9844 16.5
Q14.9844 11.7188 18.1406 8.90625
Q21.2969 6.10938 26.7031 6.10938
Q34.1875 6.10938 38.7031 11.4062
Q43.2188 16.7031 43.2188 25.4844
L43.2188 27.4844
z

M52.2031 31.2031
L52.2031 0
L43.2188 0
L43.2188 8.29688
Q40.1406 3.32812 35.5469 0.953125
Q30.9531 -1.42188 24.3125 -1.42188
Q15.9219 -1.42188 10.9531 3.29688
Q6 8.01562 6 15.9219
Q6 25.1406 12.1719 29.8281
Q18.3594 34.5156 30.6094 34.5156
L43.2188 34.5156
L43.2188 35.4062
Q43.2188 41.6094 39.1406 45
Q35.0625 48.3906 27.6875 48.3906
Q23 48.3906 18.5469 47.2656
Q14.1094 46.1406 10.0156 43.8906
L10.0156 52.2031
Q14.9375 54.1094 19.5781 55.0469
Q24.2188 56 28.6094 56
Q40.4844 56 46.3438 49.8438
Q52.2031 43.7031 52.2031 31.2031" id="BitstreamVeraSans-Roman-61"/>
      <path d="
M54.8906 33.0156
L54.8906 0
L45.9062 0
L45.9062 32.7188
Q45.9062 40.4844 42.875 44.3281
Q39.8438 48.1875 33.7969 48.1875
Q26.5156 48.1875 22.3125 43.5469
Q18.1094 38.9219 18.1094 30.9062
L18.1094 0
L9.07812 0
L9.07812 54.6875
L18.1094 54.6875
L18.1094 46.1875
Q21.3438 51.125 25.7031 53.5625
Q30.0781 56 35.7969 56
Q45.2188 56 50.0469 50.1719
Q54.8906 44.3438 54.8906 33.0156" id="BitstreamVeraSans-Roman-6e"/>
     </defs>
     <g transform="translate(82.910625 374.78625)rotate(-90.0)scale(0.12 -0.12)">
      <use xlink:href="#BitstreamVeraSans-Roman-70"/>
      <use x="63.4765625" xlink:href="#BitstreamVeraSans-Roman-61"/>
      <use x="124.755859375" xlink:href="#BitstreamVeraSans-Roman-72"/>
      <use x="165.869140625" xlink:href="#BitstreamVeraSans-Roman-74"/>
      <use x="205.078125" xlink:href="#BitstreamVeraSans-Roman-69"/>
      <use x="232.861328125" xlink:href="#BitstreamVeraSans-Roman-63"/>
      <use x="287.841796875" xlink:href="#BitstreamVeraSans-Roman-6c"/>
      <use x="315.625" xlink:href="#BitstreamVeraSans-Roman-65"/>
      <use x="377.1484375" xlink:href="#BitstreamVeraSans-Roman-20"/>
      <use x="408.935546875" xlink:href="#BitstreamVeraSans-Roman-6e"/>
      <use x="472.314453125" xlink:href="#BitstreamVeraSans-Roman-75"/>
      <use x="535.693359375" xlink:href="#BitstreamVeraSans-Roman-6d"/>
      <use x="633.10546875" xlink:href="#BitstreamVeraSans-Roman-62"/>
      <use x="696.58203125" xlink:href="#BitstreamVeraSans-Roman-65"/>
      <use x="758.10546875" xlink:href="#BitstreamVeraSans-Roman-72"/>
      <use x="799.21875" xlink:href="#BitstreamVeraSans-Roman-73"/>
     </g>
    </g>
   </g>
   <g id="legend_1">
    <g id="patch_7">
     <path d="
M111.5 101.224
L197.673 101.224
L197.673 68.3
L111.5 68.3
z
" style="fill:#ffffff;stroke:#000000;stroke-linejoin:miter;"/>
    </g>
    <g id="line2d_28">
     <path d="
M116.4 73.9689
L126.2 73.9689" style="fill:none;stroke:#ff0000;stroke-linecap:square;"/>
    </g>
    <g id="line2d_29"/>
    <g id="text_15">
     <!-- pPDE10cAMP el.0 -->
     <defs>
      <path d="
M9.8125 72.9062
L24.5156 72.9062
L43.1094 23.2969
L61.8125 72.9062
L76.5156 72.9062
L76.5156 0
L66.8906 0
L66.8906 64.0156
L48.0938 14.0156
L38.1875 14.0156
L19.3906 64.0156
L19.3906 0
L9.8125 0
z
" id="BitstreamVeraSans-Roman-4d"/>
      <path d="
M34.1875 63.1875
L20.7969 26.9062
L47.6094 26.9062
z

M28.6094 72.9062
L39.7969 72.9062
L67.5781 0
L57.3281 0
L50.6875 18.7031
L17.8281 18.7031
L11.1875 0
L0.78125 0
z
" id="BitstreamVeraSans-Roman-41"/>
      <path d="
M9.8125 72.9062
L55.9062 72.9062
L55.9062 64.5938
L19.6719 64.5938
L19.6719 43.0156
L54.3906 43.0156
L54.3906 34.7188
L19.6719 34.7188
L19.6719 8.29688
L56.7812 8.29688
L56.7812 0
L9.8125 0
z
" id="BitstreamVeraSans-Roman-45"/>
      <path d="
M10.6875 12.4062
L21 12.4062
L21 0
L10.6875 0
z
" id="BitstreamVeraSans-Roman-2e"/>
      <path d="
M19.6719 64.7969
L19.6719 37.4062
L32.0781 37.4062
Q38.9688 37.4062 42.7188 40.9688
Q46.4844 44.5312 46.4844 51.125
Q46.4844 57.6719 42.7188 61.2344
Q38.9688 64.7969 32.0781 64.7969
z

M9.8125 72.9062
L32.0781 72.9062
Q44.3438 72.9062 50.6094 67.3594
Q56.8906 61.8125 56.8906 51.125
Q56.8906 40.3281 50.6094 34.8125
Q44.3438 29.2969 32.0781 29.2969
L19.6719 29.2969
L19.6719 0
L9.8125 0
z
" id="BitstreamVeraSans-Roman-50"/>
      <path d="
M19.6719 64.7969
L19.6719 8.10938
L31.5938 8.10938
Q46.6875 8.10938 53.6875 14.9375
Q60.6875 21.7812 60.6875 36.5312
Q60.6875 51.1719 53.6875 57.9844
Q46.6875 64.7969 31.5938 64.7969
z

M9.8125 72.9062
L30.0781 72.9062
Q51.2656 72.9062 61.1719 64.0938
Q71.0938 55.2812 71.0938 36.5312
Q71.0938 17.6719 61.125 8.82812
Q51.1719 0 30.0781 0
L9.8125 0
z
" id="BitstreamVeraSans-Roman-44"/>
     </defs>
     <g transform="translate(133.9 76.41890625)scale(0.07 -0.07)">
      <use xlink:href="#BitstreamVeraSans-Roman-70"/>
      <use x="63.4765625" xlink:href="#BitstreamVeraSans-Roman-50"/>
      <use x="123.779296875" xlink:href="#BitstreamVeraSans-Roman-44"/>
      <use x="200.78125" xlink:href="#BitstreamVeraSans-Roman-45"/>
      <use x="263.96484375" xlink:href="#BitstreamVeraSans-Roman-31"/>
      <use x="327.587890625" xlink:href="#BitstreamVeraSans-Roman-30"/>
      <use x="391.2109375" xlink:href="#BitstreamVeraSans-Roman-63"/>
      <use x="446.19140625" xlink:href="#BitstreamVeraSans-Roman-41"/>
      <use x="514.599609375" xlink:href="#BitstreamVeraSans-Roman-4d"/>
      <use x="600.87890625" xlink:href="#BitstreamVeraSans-Roman-50"/>
      <use x="661.181640625" xlink:href="#BitstreamVeraSans-Roman-20"/>
      <use x="692.96875" xlink:href="#BitstreamVeraSans-Roman-65"/>
      <use x="754.4921875" xlink:href="#BitstreamVeraSans-Roman-6c"/>
      <use x="782.275390625" xlink:href="#BitstreamVeraSans-Roman-2e"/>
      <use x="814.0625" xlink:href="#BitstreamVeraSans-Roman-30"/>
     </g>
    </g>
    <g id="line2d_30">
     <path d="
M116.4 84.2436
L126.2 84.2436" style="fill:none;stroke:#008000;stroke-linecap:square;"/>
    </g>
    <g id="line2d_31"/>
    <g id="text_16">
     <!-- pPDE10cAMP el.1 -->
     <g transform="translate(133.9 86.69359375)scale(0.07 -0.07)">
      <use xlink:href="#BitstreamVeraSans-Roman-70"/>
      <use x="63.4765625" xlink:href="#BitstreamVeraSans-Roman-50"/>
      <use x="123.779296875" xlink:href="#BitstreamVeraSans-Roman-44"/>
      <use x="200.78125" xlink:href="#BitstreamVeraSans-Roman-45"/>
      <use x="263.96484375" xlink:href="#BitstreamVeraSans-Roman-31"/>
      <use x="327.587890625" xlink:href="#BitstreamVeraSans-Roman-30"/>
      <use x="391.2109375" xlink:href="#BitstreamVeraSans-Roman-63"/>
      <use x="446.19140625" xlink:href="#BitstreamVeraSans-Roman-41"/>
      <use x="514.599609375" xlink:href="#BitstreamVeraSans-Roman-4d"/>
      <use x="600.87890625" xlink:href="#BitstreamVeraSans-Roman-50"/>
      <use x="661.181640625" xlink:href="#BitstreamVeraSans-Roman-20"/>
      <use x="692.96875" xlink:href="#BitstreamVeraSans-Roman-65"/>
      <use x="754.4921875" xlink:href="#BitstreamVeraSans-Roman-6c"/>
      <use x="782.275390625" xlink:href="#BitstreamVeraSans-Roman-2e"/>
      <use x="814.0625" xlink:href="#BitstreamVeraSans-Roman-31"/>
     </g>
    </g>
    <g id="line2d_32">
     <path d="
M116.4 94.5183
L126.2 94.5183" style="fill:none;stroke:#0000ff;stroke-linecap:square;"/>
    </g>
    <g id="line2d_33"/>
    <g id="text_17">
     <!-- pPDE10cAMP el.2 -->
     <g transform="translate(133.9 96.96828125)scale(0.07 -0.07)">
      <use xlink:href="#BitstreamVeraSans-Roman-70"/>
      <use x="63.4765625" xlink:href="#BitstreamVeraSans-Roman-50"/>
      <use x="123.779296875" xlink:href="#BitstreamVeraSans-Roman-44"/>
      <use x="200.78125" xlink:href="#BitstreamVeraSans-Roman-45"/>
      <use x="263.96484375" xlink:href="#BitstreamVeraSans-Roman-31"/>
      <use x="327.587890625" xlink:href="#BitstreamVeraSans-Roman-30"/>
      <use x="391.2109375" xlink:href="#BitstreamVeraSans-Roman-63"/>
      <use x="446.19140625" xlink:href="#BitstreamVeraSans-Roman-41"/>
      <use x="514.599609375" xlink:href="#BitstreamVeraSans-Roman-4d"/>
      <use x="600.87890625" xlink:href="#BitstreamVeraSans-Roman-50"/>
      <use x="661.181640625" xlink:href="#BitstreamVeraSans-Roman-20"/>
      <use x="692.96875" xlink:href="#BitstreamVeraSans-Roman-65"/>
      <use x="754.4921875" xlink:href="#BitstreamVeraSans-Roman-6c"/>
      <use x="782.275390625" xlink:href="#BitstreamVeraSans-Roman-2e"/>
      <use x="814.0625" xlink:href="#BitstreamVeraSans-Roman-32"/>
     </g>
    </g>
   </g>
  </g>
 </g>
 <defs>
  <clipPath id="p7ceb695115">
   <rect height="518.4" width="669.6" x="108.0" y="64.8"/>
  </clipPath>
 </defs>
</svg>
