<?xml version="1.0" encoding="utf-8" standalone="no"?>
<!DOCTYPE svg PUBLIC "-//W3C//DTD SVG 1.1//EN"
  "http://www.w3.org/Graphics/SVG/1.1/DTD/svg11.dtd">
<!-- Created with matplotlib (http://matplotlib.org/) -->
<svg height="648pt" version="1.1" viewBox="0 0 864 648" width="864pt" xmlns="http://www.w3.org/2000/svg" xmlns:xlink="http://www.w3.org/1999/xlink">
 <defs>
  <style type="text/css">
*{stroke-linecap:butt;stroke-linejoin:round;}
  </style>
 </defs>
 <g id="figure_1">
  <g id="patch_1">
   <path d="
M0 648
L864 648
L864 0
L0 0
z
" style="fill:#ffffff;"/>
  </g>
  <g id="axes_1">
   <g id="patch_2">
    <path d="
M108 583.2
L777.6 583.2
L777.6 64.8
L108 64.8
z
" style="fill:#ffffff;"/>
   </g>
   <g id="line2d_1">
    <path clip-path="url(#p7ceb695115)" d="
M108 583.2
L124.07 583.2
L124.74 581.904
L125.41 581.904
L126.079 583.2
L126.749 581.904
L127.418 581.904
L128.088 583.2
L133.445 583.2
L134.114 581.904
L134.784 579.312
L135.454 578.016
L136.123 581.904
L136.793 581.904
L137.462 583.2
L138.132 581.904
L138.802 583.2
L140.141 583.2
L140.81 581.904
L141.48 583.2
L142.15 579.312
L143.489 579.312
L144.158 576.72
L144.828 580.608
L145.498 580.608
L146.167 581.904
L146.837 578.016
L148.176 578.016
L148.846 581.904
L149.515 580.608
L150.185 578.016
L150.854 579.312
L151.524 579.312
L152.194 576.72
L153.533 579.312
L154.202 575.424
L154.872 580.608
L155.542 581.904
L156.211 579.312
L156.881 578.016
L157.55 580.608
L158.22 578.016
L158.89 579.312
L159.559 576.72
L160.229 578.016
L160.898 578.016
L161.568 576.72
L162.238 576.72
L162.907 578.016
L163.577 575.424
L164.246 575.424
L164.916 578.016
L165.586 575.424
L166.255 580.608
L166.925 578.016
L167.594 576.72
L168.264 567.648
L168.934 571.536
L169.603 578.016
L170.273 576.72
L171.612 579.312
L172.282 576.72
L173.621 568.944
L174.29 576.72
L174.96 580.608
L175.63 576.72
L176.299 578.016
L176.969 576.72
L177.638 571.536
L178.308 578.016
L178.978 578.016
L179.647 574.128
L180.317 572.832
L180.986 574.128
L181.656 572.832
L182.326 575.424
L182.995 572.832
L183.665 579.312
L184.334 576.72
L185.004 578.016
L185.674 580.608
L186.343 575.424
L187.013 574.128
L187.682 575.424
L188.352 578.016
L189.022 574.128
L189.691 576.72
L190.361 574.128
L191.03 578.016
L191.7 578.016
L192.37 576.72
L193.039 579.312
L194.378 579.312
L195.048 583.2
L195.718 572.832
L197.057 578.016
L197.726 578.016
L198.396 579.312
L199.066 578.016
L199.735 581.904
L200.405 580.608
L201.074 575.424
L203.083 575.424
L203.753 576.72
L204.422 575.424
L205.092 578.016
L205.762 576.72
L206.431 572.832
L207.101 575.424
L207.77 572.832
L208.44 579.312
L209.11 579.312
L209.779 578.016
L210.449 574.128
L211.118 576.72
L211.788 572.832
L212.458 581.904
L213.127 581.904
L215.136 574.128
L215.806 576.72
L217.145 579.312
L217.814 568.944
L218.484 580.608
L219.154 581.904
L219.823 575.424
L220.493 572.832
L221.162 578.016
L221.832 576.72
L222.502 579.312
L223.171 575.424
L223.841 580.608
L224.51 572.832
L225.18 574.128
L225.85 579.312
L226.519 578.016
L227.189 580.608
L228.528 578.016
L229.198 574.128
L229.867 576.72
L230.537 574.128
L231.206 576.72
L231.876 575.424
L232.546 572.832
L233.885 578.016
L234.554 576.72
L236.563 576.72
L237.233 572.832
L237.902 578.016
L238.572 576.72
L239.242 579.312
L239.911 575.424
L240.581 576.72
L241.25 574.128
L241.92 579.312
L242.59 574.128
L243.259 578.016
L243.929 579.312
L244.598 578.016
L245.268 571.536
L245.938 574.128
L246.607 581.904
L247.277 576.72
L247.946 581.904
L248.616 578.016
L249.286 580.608
L249.955 578.016
L250.625 576.72
L251.294 576.72
L251.964 578.016
L252.634 576.72
L253.303 576.72
L253.973 578.016
L254.642 580.608
L255.312 580.608
L255.982 575.424
L256.651 568.944
L257.321 570.24
L257.99 575.424
L258.66 574.128
L259.33 578.016
L259.999 576.72
L260.669 580.608
L261.338 574.128
L262.008 576.72
L262.678 580.608
L263.347 580.608
L264.686 578.016
L265.356 578.016
L266.026 579.312
L266.695 575.424
L268.034 580.608
L268.704 578.016
L269.374 580.608
L270.043 576.72
L270.713 580.608
L271.382 575.424
L272.722 575.424
L273.391 578.016
L274.061 572.832
L274.73 576.72
L275.4 576.72
L276.07 571.536
L276.739 570.24
L277.409 578.016
L278.078 578.016
L279.418 572.832
L280.087 575.424
L280.757 579.312
L281.426 578.016
L282.096 578.016
L282.766 580.608
L283.435 576.72
L284.105 578.016
L284.774 575.424
L285.444 579.312
L286.114 579.312
L286.783 578.016
L287.453 578.016
L288.122 579.312
L288.792 576.72
L289.462 576.72
L290.131 579.312
L290.801 580.608
L291.47 579.312
L292.14 580.608
L292.81 576.72
L294.149 579.312
L294.818 578.016
L295.488 580.608
L296.158 578.016
L297.497 580.608
L298.166 579.312
L298.836 579.312
L299.506 580.608
L300.175 576.72
L300.845 580.608
L301.514 583.2
L302.184 579.312
L302.854 578.016
L303.523 578.016
L304.193 580.608
L304.862 578.016
L305.532 571.536
L306.202 579.312
L306.871 575.424
L307.541 572.832
L308.21 575.424
L308.88 576.72
L309.55 575.424
L310.219 575.424
L312.228 571.536
L312.898 576.72
L313.567 576.72
L314.237 570.24
L314.906 575.424
L316.246 578.016
L316.915 576.72
L317.585 580.608
L318.924 578.016
L319.594 581.904
L320.263 576.72
L320.933 578.016
L321.602 578.016
L322.272 575.424
L322.942 580.608
L326.29 574.128
L326.959 578.016
L327.629 578.016
L328.298 580.608
L328.968 576.72
L329.638 576.72
L330.307 578.016
L330.977 581.904
L331.646 578.016
L332.316 581.904
L332.986 576.72
L334.325 576.72
L334.994 575.424
L335.664 580.608
L336.334 579.312
L337.003 576.72
L337.673 578.016
L338.342 580.608
L339.012 580.608
L339.682 579.312
L340.351 575.424
L341.021 575.424
L341.69 576.72
L342.36 579.312
L343.03 579.312
L343.699 578.016
L344.369 572.832
L345.038 579.312
L345.708 578.016
L346.378 575.424
L347.047 579.312
L347.717 578.016
L348.386 580.608
L349.056 579.312
L350.395 581.904
L351.065 580.608
L351.734 580.608
L352.404 581.904
L353.074 581.904
L353.743 579.312
L354.413 580.608
L355.082 583.2
L355.752 581.904
L356.422 581.904
L357.091 578.016
L357.761 580.608
L358.43 575.424
L359.1 580.608
L360.439 575.424
L361.109 574.128
L361.778 571.536
L362.448 570.24
L363.118 576.72
L363.787 568.944
L364.457 571.536
L365.126 571.536
L366.466 574.128
L367.805 574.128
L368.474 575.424
L369.814 575.424
L370.483 579.312
L371.822 571.536
L373.162 576.72
L373.831 570.24
L374.501 578.016
L375.17 580.608
L375.84 580.608
L376.51 578.016
L377.179 576.72
L377.849 576.72
L378.518 580.608
L379.188 571.536
L379.858 575.424
L380.527 572.832
L381.197 574.128
L381.866 578.016
L383.206 575.424
L383.875 571.536
L384.545 576.72
L385.884 579.312
L386.554 578.016
L387.223 575.424
L387.893 579.312
L388.562 579.312
L389.232 580.608
L389.902 578.016
L390.571 579.312
L391.241 581.904
L391.91 574.128
L392.58 575.424
L393.25 583.2
L393.919 578.016
L396.598 578.016
L397.267 579.312
L397.937 579.312
L398.606 578.016
L399.276 579.312
L400.615 579.312
L401.285 581.904
L401.954 581.904
L402.624 580.608
L403.294 581.904
L403.963 581.904
L404.633 574.128
L405.972 579.312
L406.642 576.72
L407.311 579.312
L409.99 579.312
L410.659 578.016
L411.329 580.608
L411.998 581.904
L412.668 581.904
L413.338 575.424
L414.007 579.312
L416.016 579.312
L416.686 578.016
L417.355 575.424
L418.025 578.016
L419.364 575.424
L420.034 578.016
L421.373 580.608
L424.721 580.608
L425.39 581.904
L426.06 580.608
L426.73 580.608
L427.399 583.2
L428.069 579.312
L428.738 576.72
L430.078 579.312
L430.747 578.016
L431.417 575.424
L432.086 579.312
L432.756 580.608
L433.426 576.72
L434.095 578.016
L434.765 576.72
L435.434 576.72
L436.104 575.424
L436.774 579.312
L437.443 579.312
L438.113 581.904
L438.782 580.608
L439.452 583.2
L440.122 583.2
L440.791 581.904
L441.461 579.312
L442.8 581.904
L443.47 579.312
L444.139 581.904
L444.809 579.312
L445.478 580.608
L446.148 578.016
L446.818 576.72
L447.487 570.24
L448.157 566.352
L448.826 561.168
L449.496 565.056
L450.835 532.656
L451.505 541.728
L452.174 511.92
L452.844 520.992
L453.514 518.4
L454.183 484.704
L454.853 484.704
L455.522 488.592
L456.192 480.816
L456.862 478.224
L457.531 476.928
L458.201 497.664
L458.87 484.704
L459.54 474.336
L460.21 483.408
L460.879 480.816
L461.549 497.664
L462.218 475.632
L462.888 475.632
L464.227 444.528
L464.897 473.04
L465.566 448.416
L466.236 448.416
L466.906 463.968
L467.575 466.56
L468.245 480.816
L468.914 491.184
L469.584 466.56
L470.254 476.928
L470.923 489.888
L471.593 492.48
L472.262 461.376
L472.932 473.04
L473.602 473.04
L474.271 484.704
L474.941 482.112
L475.61 467.856
L476.28 476.928
L476.95 501.552
L477.619 488.592
L478.289 478.224
L478.958 462.672
L479.628 493.776
L480.298 473.04
L480.967 470.448
L481.637 487.296
L482.306 469.152
L482.976 480.816
L483.646 460.08
L484.315 492.48
L484.985 495.072
L485.654 484.704
L486.324 502.848
L486.994 466.56
L487.663 475.632
L488.333 497.664
L489.002 489.888
L489.672 461.376
L490.342 458.784
L491.011 463.968
L491.681 479.52
L492.35 502.848
L493.02 476.928
L493.69 469.152
L494.359 471.744
L495.698 491.184
L496.368 453.6
L497.038 474.336
L497.707 491.184
L498.377 476.928
L499.046 487.296
L499.716 500.256
L500.386 495.072
L501.055 484.704
L501.725 492.48
L502.394 486
L503.064 489.888
L503.734 484.704
L504.403 488.592
L505.073 483.408
L505.742 502.848
L506.412 489.888
L507.082 461.376
L507.751 478.224
L508.421 465.264
L509.09 493.776
L509.76 492.48
L510.43 505.44
L511.099 489.888
L511.769 482.112
L512.438 493.776
L513.108 489.888
L513.778 508.032
L514.447 475.632
L515.117 486
L515.786 471.744
L516.456 471.744
L517.126 484.704
L517.795 469.152
L518.465 498.96
L519.804 486
L520.474 471.744
L521.143 497.664
L521.813 513.216
L522.482 486
L523.152 492.48
L523.822 493.776
L524.491 511.92
L525.161 486
L525.83 498.96
L526.5 484.704
L527.17 506.736
L527.839 509.328
L528.509 488.592
L529.178 482.112
L530.518 501.552
L531.187 476.928
L531.857 486
L532.526 479.52
L533.196 489.888
L533.866 466.56
L534.535 493.776
L535.205 500.256
L535.874 520.992
L536.544 486
L537.214 517.104
L537.883 510.624
L538.553 510.624
L539.222 476.928
L539.892 489.888
L540.562 496.368
L541.901 513.216
L542.57 483.408
L543.24 474.336
L543.91 486
L544.579 474.336
L545.249 504.144
L545.918 510.624
L546.588 492.48
L547.258 486
L547.927 509.328
L549.266 492.48
L549.936 518.4
L551.275 482.112
L551.945 495.072
L552.614 502.848
L553.284 500.256
L553.954 491.184
L554.623 495.072
L555.293 522.288
L555.962 483.408
L556.632 518.4
L557.302 487.296
L557.971 478.224
L558.641 493.776
L559.31 480.816
L559.98 484.704
L560.65 501.552
L561.319 502.848
L561.989 498.96
L562.658 506.736
L563.328 476.928
L563.998 504.144
L564.667 510.624
L565.337 486
L566.006 502.848
L566.676 479.52
L567.346 506.736
L568.015 495.072
L568.685 505.44
L569.354 502.848
L570.024 510.624
L570.694 486
L571.363 491.184
L572.033 504.144
L572.702 502.848
L573.372 509.328
L574.042 513.216
L574.711 504.144
L575.381 471.744
L576.05 500.256
L576.72 505.44
L577.39 478.224
L578.059 487.296
L578.729 514.512
L579.398 501.552
L580.068 496.368
L580.738 482.112
L581.407 501.552
L582.077 480.816
L582.746 488.592
L583.416 484.704
L584.086 501.552
L584.755 495.072
L585.425 502.848
L586.094 517.104
L586.764 501.552
L587.434 504.144
L588.103 493.776
L588.773 488.592
L589.442 526.176
L590.112 492.48
L590.782 506.736
L592.121 501.552
L592.79 497.664
L593.46 484.704
L594.799 509.328
L595.469 501.552
L596.138 498.96
L596.808 474.336
L597.478 514.512
L598.147 517.104
L598.817 514.512
L599.486 500.256
L600.156 508.032
L600.826 527.472
L601.495 523.584
L602.165 517.104
L602.834 508.032
L603.504 510.624
L604.174 489.888
L604.843 495.072
L605.513 484.704
L606.182 495.072
L606.852 498.96
L607.522 480.816
L608.191 488.592
L608.861 484.704
L609.53 474.336
L610.2 470.448
L610.87 486
L611.539 527.472
L612.209 493.776
L612.878 517.104
L613.548 504.144
L614.218 509.328
L614.887 498.96
L615.557 493.776
L616.226 496.368
L616.896 509.328
L617.566 524.88
L618.235 482.112
L618.905 498.96
L619.574 506.736
L620.244 487.296
L621.583 509.328
L622.922 511.92
L623.592 502.848
L624.262 514.512
L624.931 511.92
L625.601 510.624
L626.27 501.552
L626.94 506.736
L627.61 500.256
L628.279 510.624
L628.949 524.88
L629.618 502.848
L630.288 510.624
L630.958 519.696
L631.627 523.584
L632.297 519.696
L632.966 508.032
L633.636 509.328
L634.306 502.848
L634.975 511.92
L635.645 505.44
L636.314 515.808
L636.984 508.032
L637.654 493.776
L638.323 523.584
L638.993 511.92
L639.662 502.848
L640.332 526.176
L641.002 509.328
L641.671 506.736
L642.341 501.552
L643.01 493.776
L643.68 505.44
L644.35 501.552
L645.019 493.776
L645.689 519.696
L646.358 491.184
L647.028 489.888
L647.698 489.888
L648.367 513.216
L649.037 522.288
L649.706 502.848
L650.376 488.592
L651.046 497.664
L651.715 522.288
L652.385 493.776
L653.054 513.216
L653.724 505.44
L654.394 470.448
L655.063 482.112
L655.733 517.104
L656.402 491.184
L657.072 513.216
L657.742 514.512
L658.411 498.96
L659.081 513.216
L659.75 498.96
L661.09 526.176
L661.759 524.88
L662.429 508.032
L663.098 510.624
L663.768 509.328
L664.438 497.664
L665.107 479.52
L665.777 511.92
L666.446 511.92
L667.116 498.96
L667.786 493.776
L668.455 491.184
L669.125 496.368
L669.794 509.328
L670.464 486
L671.134 489.888
L671.803 523.584
L672.473 495.072
L673.142 505.44
L673.812 513.216
L674.482 502.848
L675.151 495.072
L675.821 508.032
L676.49 514.512
L677.16 508.032
L677.83 489.888
L678.499 498.96
L679.169 487.296
L679.838 510.624
L680.508 493.776
L681.178 506.736
L682.517 504.144
L683.186 522.288
L683.856 486
L684.526 491.184
L685.195 501.552
L685.865 491.184
L686.534 493.776
L687.204 497.664
L687.874 492.48
L688.543 502.848
L689.213 518.4
L689.882 518.4
L690.552 504.144
L691.222 501.552
L691.891 513.216
L692.561 518.4
L693.23 508.032
L693.9 500.256
L694.57 506.736
L695.239 492.48
L695.909 510.624
L696.578 510.624
L697.248 535.248
L697.918 491.184
L698.587 520.992
L699.257 498.96
L699.926 501.552
L700.596 524.88
L701.266 520.992
L701.935 509.328
L702.605 505.44
L703.274 517.104
L703.944 517.104
L704.614 524.88
L705.283 513.216
L705.953 513.216
L706.622 495.072
L707.292 519.696
L707.962 520.992
L708.631 511.92
L709.301 536.544
L709.97 489.888
L711.31 511.92
L711.979 508.032
L712.649 502.848
L713.318 508.032
L713.988 514.512
L714.658 496.368
L715.327 520.992
L715.997 523.584
L716.666 511.92
L717.336 506.736
L718.006 519.696
L718.675 509.328
L719.345 489.888
L720.014 510.624
L720.684 511.92
L721.354 500.256
L722.023 484.704
L722.693 497.664
L723.362 519.696
L724.032 510.624
L724.702 509.328
L725.371 514.512
L726.041 517.104
L726.71 484.704
L727.38 519.696
L728.05 511.92
L728.719 511.92
L729.389 492.48
L730.058 509.328
L730.728 519.696
L731.398 509.328
L732.067 506.736
L732.737 520.992
L733.406 519.696
L734.076 511.92
L734.746 528.768
L735.415 517.104
L736.085 491.184
L736.754 495.072
L737.424 517.104
L738.094 510.624
L738.763 510.624
L739.433 511.92
L740.102 496.368
L740.772 515.808
L741.442 522.288
L742.111 510.624
L742.781 513.216
L744.12 500.256
L744.79 502.848
L745.459 511.92
L746.129 524.88
L746.798 520.992
L747.468 510.624
L748.138 509.328
L748.807 514.512
L749.477 506.736
L750.146 511.92
L750.816 514.512
L751.486 530.064
L752.155 511.92
L752.825 501.552
L753.494 513.216
L754.164 522.288
L754.834 495.072
L755.503 475.632
L756.173 510.624
L756.842 523.584
L757.512 511.92
L758.182 520.992
L758.851 491.184
L759.521 530.064
L760.19 513.216
L760.86 511.92
L761.53 509.328
L762.199 495.072
L762.869 523.584
L763.538 509.328
L764.208 501.552
L764.878 515.808
L765.547 511.92
L766.217 504.144
L766.886 517.104
L767.556 519.696
L768.226 513.216
L768.895 498.96
L769.565 491.184
L770.234 505.44
L770.904 504.144
L771.574 517.104
L772.243 514.512
L772.913 506.736
L773.582 491.184
L774.252 489.888
L775.591 514.512
L776.261 489.888
L776.93 505.44
L777.6 502.848
L777.6 502.848" style="fill:none;stroke:#ff0000;stroke-linecap:square;"/>
   </g>
   <g id="line2d_2">
    <path clip-path="url(#p7ceb695115)" d="
M108 583.2
L124.07 583.2
L124.74 581.904
L125.41 581.904
L126.079 580.608
L126.749 581.904
L127.418 581.904
L128.088 580.608
L131.436 580.608
L132.106 581.904
L132.775 581.904
L133.445 579.312
L135.454 583.2
L136.123 580.608
L137.462 578.016
L138.132 580.608
L140.81 580.608
L141.48 578.016
L142.15 579.312
L142.819 578.016
L143.489 578.016
L144.158 576.72
L144.828 572.832
L145.498 574.128
L146.167 572.832
L146.837 580.608
L147.506 576.72
L148.176 576.72
L148.846 570.24
L149.515 567.648
L150.185 568.944
L150.854 568.944
L151.524 561.168
L152.194 566.352
L152.863 566.352
L153.533 562.464
L154.202 566.352
L154.872 559.872
L157.55 559.872
L158.22 566.352
L158.89 562.464
L159.559 557.28
L160.229 555.984
L160.898 552.096
L161.568 554.688
L162.238 553.392
L162.907 553.392
L163.577 555.984
L164.246 553.392
L165.586 553.392
L166.255 550.8
L166.925 550.8
L167.594 552.096
L168.264 559.872
L168.934 558.576
L169.603 553.392
L170.273 558.576
L170.942 559.872
L171.612 552.096
L172.282 561.168
L172.951 557.28
L173.621 566.352
L174.96 545.616
L175.63 550.8
L176.299 553.392
L176.969 558.576
L177.638 557.28
L178.308 550.8
L178.978 549.504
L180.317 562.464
L180.986 557.28
L181.656 558.576
L182.326 554.688
L182.995 555.984
L183.665 543.024
L184.334 550.8
L185.004 553.392
L185.674 544.32
L186.343 552.096
L187.013 557.28
L187.682 552.096
L188.352 553.392
L189.022 558.576
L189.691 557.28
L190.361 554.688
L191.03 553.392
L192.37 561.168
L193.039 559.872
L193.709 559.872
L194.378 555.984
L195.048 554.688
L195.718 566.352
L197.057 555.984
L197.726 554.688
L198.396 557.28
L199.066 557.28
L199.735 558.576
L200.405 553.392
L201.074 563.76
L201.744 558.576
L202.414 555.984
L203.753 558.576
L204.422 562.464
L205.092 553.392
L205.762 555.984
L206.431 563.76
L207.101 566.352
L207.77 565.056
L208.44 555.984
L209.11 549.504
L209.779 553.392
L210.449 562.464
L211.118 554.688
L211.788 562.464
L212.458 552.096
L213.127 554.688
L214.466 562.464
L215.136 561.168
L215.806 554.688
L216.475 554.688
L217.145 557.28
L217.814 561.168
L218.484 554.688
L219.154 554.688
L219.823 561.168
L220.493 563.76
L221.162 559.872
L221.832 554.688
L222.502 552.096
L223.171 555.984
L223.841 553.392
L224.51 561.168
L225.18 559.872
L225.85 559.872
L226.519 562.464
L227.189 562.464
L227.858 563.76
L228.528 563.76
L229.198 561.168
L229.867 557.28
L230.537 561.168
L231.876 555.984
L232.546 561.168
L233.215 561.168
L233.885 558.576
L234.554 561.168
L235.224 555.984
L235.894 561.168
L236.563 558.576
L237.233 563.76
L238.572 558.576
L239.242 554.688
L240.581 565.056
L241.25 562.464
L241.92 566.352
L242.59 572.832
L243.259 570.24
L243.929 566.352
L244.598 561.168
L245.268 566.352
L245.938 566.352
L246.607 563.76
L247.277 566.352
L247.946 561.168
L249.286 566.352
L249.955 563.76
L250.625 558.576
L251.294 558.576
L251.964 557.28
L252.634 562.464
L253.303 561.168
L253.973 558.576
L254.642 553.392
L255.312 555.984
L256.651 568.944
L257.321 566.352
L257.99 554.688
L258.66 554.688
L259.33 552.096
L259.999 552.096
L260.669 555.984
L261.338 562.464
L262.008 558.576
L262.678 557.28
L263.347 558.576
L264.017 558.576
L264.686 559.872
L265.356 566.352
L266.026 566.352
L266.695 565.056
L267.365 561.168
L268.034 558.576
L268.704 561.168
L269.374 558.576
L270.043 561.168
L270.713 554.688
L271.382 566.352
L272.052 561.168
L272.722 561.168
L273.391 557.28
L274.061 555.984
L274.73 555.984
L275.4 554.688
L276.07 555.984
L276.739 559.872
L277.409 554.688
L278.078 553.392
L278.748 557.28
L279.418 559.872
L280.087 561.168
L280.757 554.688
L281.426 562.464
L282.096 558.576
L282.766 562.464
L283.435 558.576
L284.105 561.168
L284.774 565.056
L285.444 561.168
L286.114 559.872
L286.783 559.872
L287.453 561.168
L288.122 558.576
L288.792 562.464
L289.462 559.872
L290.131 558.576
L290.801 558.576
L291.47 557.28
L292.14 561.168
L292.81 567.648
L293.479 567.648
L294.149 563.76
L294.818 565.056
L295.488 562.464
L296.158 568.944
L297.497 563.76
L298.166 565.056
L298.836 563.76
L299.506 568.944
L300.175 570.24
L300.845 567.648
L301.514 563.76
L302.184 562.464
L303.523 565.056
L304.193 562.464
L304.862 561.168
L305.532 567.648
L306.202 557.28
L306.871 561.168
L307.541 563.76
L308.21 557.28
L308.88 552.096
L309.55 549.504
L310.219 550.8
L310.889 554.688
L311.558 553.392
L312.228 558.576
L312.898 557.28
L313.567 559.872
L314.237 563.76
L314.906 557.28
L315.576 557.28
L316.246 555.984
L316.915 558.576
L317.585 558.576
L318.254 561.168
L318.924 557.28
L319.594 552.096
L320.263 561.168
L321.602 558.576
L322.272 566.352
L322.942 559.872
L323.611 562.464
L324.281 559.872
L324.95 562.464
L325.62 567.648
L326.29 563.76
L326.959 554.688
L327.629 558.576
L328.968 558.576
L329.638 559.872
L330.307 562.464
L330.977 557.28
L331.646 561.168
L332.316 558.576
L332.986 562.464
L334.325 557.28
L334.994 559.872
L335.664 558.576
L336.334 561.168
L337.003 562.464
L337.673 561.168
L338.342 561.168
L339.012 563.76
L339.682 562.464
L340.351 562.464
L341.021 563.76
L341.69 562.464
L342.36 566.352
L343.03 565.056
L343.699 562.464
L344.369 566.352
L345.038 561.168
L345.708 559.872
L346.378 565.056
L347.047 563.76
L347.717 565.056
L348.386 561.168
L349.056 562.464
L349.726 562.464
L350.395 558.576
L351.065 562.464
L352.404 557.28
L353.074 562.464
L353.743 566.352
L354.413 563.76
L355.082 562.464
L356.422 565.056
L357.091 567.648
L357.761 562.464
L358.43 568.944
L359.1 561.168
L359.77 558.576
L361.109 563.76
L361.778 562.464
L362.448 557.28
L363.118 549.504
L363.787 558.576
L364.457 554.688
L365.126 553.392
L366.466 555.984
L367.135 553.392
L367.805 553.392
L368.474 554.688
L369.144 554.688
L369.814 552.096
L370.483 546.912
L371.153 557.28
L371.822 555.984
L372.492 555.984
L373.162 550.8
L373.831 555.984
L374.501 552.096
L375.17 552.096
L375.84 554.688
L376.51 555.984
L377.849 555.984
L378.518 550.8
L379.188 562.464
L379.858 553.392
L380.527 554.688
L381.197 557.28
L381.866 552.096
L382.536 553.392
L383.206 552.096
L383.875 561.168
L384.545 559.872
L385.884 554.688
L386.554 557.28
L387.223 561.168
L387.893 561.168
L389.232 563.76
L389.902 568.944
L390.571 566.352
L391.241 561.168
L391.91 570.24
L393.25 559.872
L393.919 566.352
L395.258 566.352
L396.598 568.944
L397.267 562.464
L397.937 567.648
L398.606 563.76
L399.276 563.76
L399.946 566.352
L400.615 559.872
L401.285 559.872
L401.954 563.76
L402.624 562.464
L403.294 562.464
L403.963 563.76
L404.633 568.944
L405.302 566.352
L406.642 566.352
L407.311 567.648
L407.981 563.76
L408.65 567.648
L409.32 568.944
L409.99 566.352
L410.659 570.24
L411.329 568.944
L411.998 570.24
L412.668 568.944
L413.338 576.72
L414.007 571.536
L414.677 572.832
L415.346 572.832
L416.016 574.128
L416.686 572.832
L417.355 568.944
L418.025 568.944
L418.694 571.536
L419.364 571.536
L420.034 572.832
L421.373 570.24
L422.042 571.536
L423.382 571.536
L424.051 570.24
L424.721 576.72
L425.39 571.536
L426.06 568.944
L426.73 572.832
L427.399 570.24
L428.069 575.424
L428.738 571.536
L429.408 568.944
L430.078 568.944
L430.747 567.648
L431.417 570.24
L432.756 565.056
L433.426 568.944
L434.095 566.352
L434.765 567.648
L435.434 567.648
L436.104 568.944
L436.774 567.648
L438.113 572.832
L438.782 567.648
L439.452 568.944
L440.122 565.056
L440.791 567.648
L441.461 565.056
L442.13 565.056
L443.47 567.648
L444.139 563.76
L444.809 568.944
L445.478 570.24
L446.148 561.168
L446.818 558.576
L447.487 552.096
L448.157 536.544
L448.826 537.84
L449.496 518.4
L450.166 506.736
L450.835 475.632
L451.505 434.16
L452.174 405.648
L452.844 360.288
L453.514 357.696
L454.853 279.936
L455.522 287.712
L456.192 246.24
L456.862 220.32
L457.531 209.952
L458.201 172.368
L458.87 184.032
L459.54 186.624
L460.21 160.704
L460.879 168.48
L461.549 154.224
L462.218 156.816
L462.888 146.448
L463.558 123.12
L464.227 125.712
L464.897 129.6
L465.566 138.672
L466.236 158.112
L466.906 185.328
L467.575 184.032
L468.914 156.816
L469.584 178.848
L470.254 184.032
L470.923 178.848
L471.593 198.288
L472.262 194.4
L472.932 207.36
L473.602 216.432
L474.271 184.032
L474.941 195.696
L475.61 202.176
L476.28 164.592
L476.95 156.816
L477.619 185.328
L478.289 165.888
L478.958 155.52
L479.628 150.336
L480.298 156.816
L480.967 158.112
L481.637 163.296
L482.306 191.808
L482.976 202.176
L484.315 182.736
L484.985 191.808
L485.654 184.032
L486.324 158.112
L486.994 181.44
L487.663 156.816
L488.333 171.072
L489.002 187.92
L489.672 172.368
L490.342 184.032
L491.011 145.152
L491.681 158.112
L492.35 185.328
L493.02 204.768
L493.69 208.656
L494.359 215.136
L495.029 207.36
L495.698 186.624
L496.368 193.104
L497.038 165.888
L497.707 149.04
L498.377 146.448
L499.046 180.144
L499.716 163.296
L500.386 152.928
L501.055 173.664
L501.725 181.44
L502.394 207.36
L503.064 195.696
L503.734 209.952
L504.403 180.144
L505.073 198.288
L505.742 207.36
L506.412 199.584
L507.082 207.36
L507.751 213.84
L508.421 186.624
L509.09 194.4
L509.76 215.136
L510.43 209.952
L511.099 209.952
L511.769 204.768
L512.438 187.92
L513.108 213.84
L513.778 189.216
L514.447 196.992
L515.117 194.4
L515.786 196.992
L516.456 209.952
L517.126 200.88
L517.795 171.072
L518.465 149.04
L519.134 149.04
L519.804 162
L520.474 195.696
L521.143 202.176
L521.813 224.208
L522.482 219.024
L523.152 219.024
L523.822 211.248
L524.491 209.952
L525.161 243.648
L526.5 215.136
L527.17 209.952
L527.839 191.808
L528.509 195.696
L529.178 206.064
L529.848 185.328
L530.518 193.104
L531.187 226.8
L531.857 220.32
L532.526 219.024
L533.196 219.024
L533.866 196.992
L534.535 186.624
L535.205 195.696
L535.874 225.504
L536.544 243.648
L537.214 229.392
L537.883 251.424
L538.553 250.128
L539.222 228.096
L539.892 212.544
L540.562 237.168
L541.231 224.208
L541.901 222.912
L542.57 222.912
L543.24 226.8
L543.91 212.544
L544.579 220.32
L545.249 225.504
L545.918 219.024
L546.588 208.656
L547.258 207.36
L547.927 231.984
L548.597 244.944
L549.266 260.496
L549.936 254.016
L550.606 259.2
L551.275 263.088
L551.945 264.384
L552.614 270.864
L553.284 260.496
L553.954 259.2
L554.623 264.384
L555.293 238.464
L555.962 242.352
L556.632 203.472
L557.302 213.84
L557.971 215.136
L558.641 215.136
L559.31 233.28
L559.98 234.576
L560.65 213.84
L561.319 229.392
L561.989 220.32
L562.658 226.8
L563.328 252.72
L563.998 263.088
L564.667 226.8
L565.337 241.056
L566.006 248.832
L566.676 257.904
L567.346 256.608
L568.015 274.752
L568.685 266.976
L569.354 276.048
L570.024 282.528
L570.694 264.384
L571.363 235.872
L572.033 228.096
L572.702 228.096
L573.372 224.208
L574.042 219.024
L574.711 242.352
L575.381 237.168
L576.05 216.432
L576.72 221.616
L577.39 222.912
L578.059 222.912
L578.729 221.616
L579.398 248.832
L580.068 241.056
L580.738 251.424
L582.077 278.64
L582.746 268.272
L583.416 261.792
L584.086 244.944
L584.755 244.944
L585.425 265.68
L586.094 261.792
L586.764 274.752
L587.434 259.2
L588.103 264.384
L588.773 263.088
L589.442 241.056
L590.112 269.568
L590.782 266.976
L591.451 255.312
L592.121 231.984
L592.79 261.792
L593.46 264.384
L594.13 248.832
L594.799 255.312
L595.469 250.128
L596.138 257.904
L596.808 268.272
L597.478 254.016
L598.147 270.864
L598.817 252.72
L599.486 247.536
L600.156 260.496
L600.826 264.384
L601.495 264.384
L602.165 273.456
L602.834 277.344
L603.504 285.12
L604.174 286.416
L604.843 285.12
L605.513 259.2
L606.182 283.824
L606.852 238.464
L607.522 257.904
L608.191 239.76
L608.861 255.312
L609.53 256.608
L610.2 246.24
L610.87 230.688
L611.539 230.688
L612.209 251.424
L613.548 276.048
L614.218 235.872
L614.887 254.016
L615.557 225.504
L616.226 238.464
L616.896 255.312
L617.566 268.272
L618.235 278.64
L618.905 282.528
L619.574 241.056
L620.244 263.088
L620.914 270.864
L621.583 276.048
L622.253 264.384
L622.922 250.128
L623.592 246.24
L624.262 241.056
L624.931 272.16
L625.601 255.312
L626.27 251.424
L626.94 263.088
L627.61 237.168
L628.949 250.128
L629.618 278.64
L630.288 292.896
L630.958 263.088
L631.627 268.272
L632.966 286.416
L633.636 255.312
L634.306 252.72
L634.975 221.616
L635.645 211.248
L637.654 266.976
L638.323 272.16
L638.993 290.304
L639.662 256.608
L640.332 244.944
L641.002 281.232
L641.671 294.192
L642.341 301.968
L643.01 294.192
L643.68 264.384
L644.35 260.496
L645.019 247.536
L645.689 226.8
L646.358 238.464
L647.028 231.984
L647.698 241.056
L648.367 220.32
L649.037 229.392
L649.706 212.544
L650.376 241.056
L651.715 225.504
L652.385 215.136
L653.054 221.616
L653.724 219.024
L654.394 263.088
L655.063 255.312
L655.733 248.832
L656.402 241.056
L657.072 228.096
L657.742 250.128
L658.411 261.792
L659.081 261.792
L659.75 265.68
L660.42 257.904
L661.09 254.016
L661.759 260.496
L662.429 250.128
L663.098 229.392
L663.768 243.648
L664.438 239.76
L665.107 244.944
L665.777 252.72
L666.446 266.976
L667.116 291.6
L667.786 261.792
L668.455 269.568
L669.125 266.976
L669.794 257.904
L670.464 259.2
L671.134 259.2
L671.803 219.024
L672.473 255.312
L673.142 252.72
L673.812 263.088
L674.482 270.864
L675.151 277.344
L675.821 274.752
L676.49 277.344
L677.16 278.64
L677.83 277.344
L678.499 263.088
L679.169 296.784
L679.838 273.456
L680.508 268.272
L681.178 272.16
L681.847 272.16
L682.517 265.68
L683.186 252.72
L683.856 272.16
L684.526 260.496
L685.195 283.824
L685.865 268.272
L686.534 279.936
L687.204 281.232
L687.874 279.936
L688.543 282.528
L689.213 247.536
L689.882 266.976
L690.552 266.976
L691.222 257.904
L691.891 255.312
L692.561 256.608
L693.23 274.752
L693.9 248.832
L694.57 250.128
L695.239 279.936
L695.909 266.976
L696.578 291.6
L697.248 279.936
L697.918 296.784
L698.587 283.824
L699.257 278.64
L699.926 286.416
L700.596 282.528
L701.266 277.344
L701.935 266.976
L702.605 277.344
L703.274 290.304
L703.944 265.68
L704.614 286.416
L705.283 278.64
L705.953 256.608
L706.622 282.528
L707.292 295.488
L707.962 321.408
L708.631 291.6
L709.301 252.72
L709.97 279.936
L710.64 279.936
L711.31 269.568
L711.979 283.824
L712.649 269.568
L713.318 263.088
L713.988 277.344
L714.658 294.192
L715.327 257.904
L715.997 259.2
L716.666 272.16
L717.336 261.792
L718.675 272.16
L719.345 260.496
L720.014 260.496
L720.684 254.016
L721.354 246.24
L722.023 276.048
L722.693 254.016
L723.362 263.088
L724.032 254.016
L724.702 250.128
L725.371 231.984
L726.041 225.504
L726.71 243.648
L727.38 251.424
L728.05 261.792
L728.719 263.088
L729.389 283.824
L730.058 270.864
L730.728 264.384
L732.067 299.376
L732.737 290.304
L733.406 287.712
L734.076 292.896
L734.746 291.6
L735.415 307.152
L736.085 305.856
L736.754 279.936
L737.424 269.568
L738.094 252.72
L738.763 264.384
L739.433 242.352
L740.102 273.456
L740.772 269.568
L741.442 257.904
L742.111 270.864
L742.781 268.272
L743.45 256.608
L744.12 261.792
L744.79 292.896
L745.459 278.64
L746.129 289.008
L746.798 291.6
L747.468 279.936
L748.138 261.792
L748.807 292.896
L749.477 289.008
L750.816 269.568
L751.486 277.344
L752.155 291.6
L752.825 289.008
L753.494 277.344
L754.164 278.64
L754.834 299.376
L755.503 307.152
L756.173 298.08
L756.842 295.488
L757.512 313.632
L758.182 301.968
L758.851 313.632
L759.521 273.456
L760.19 276.048
L760.86 298.08
L761.53 273.456
L762.199 298.08
L762.869 270.864
L763.538 298.08
L764.208 304.56
L764.878 296.784
L765.547 303.264
L766.217 314.928
L766.886 299.376
L767.556 313.632
L768.226 311.04
L768.895 299.376
L769.565 300.672
L770.234 300.672
L770.904 294.192
L771.574 285.12
L772.243 292.896
L772.913 303.264
L773.582 296.784
L774.252 292.896
L775.591 295.488
L776.261 307.152
L776.93 311.04
L777.6 294.192
L777.6 294.192" style="fill:none;stroke:#008000;stroke-linecap:square;"/>
   </g>
   <g id="line2d_3">
    <path clip-path="url(#p7ceb695115)" d="
M108 583.2
L131.436 583.2
L132.106 581.904
L134.114 581.904
L134.784 583.2
L135.454 583.2
L136.123 581.904
L136.793 583.2
L137.462 583.2
L138.802 580.608
L140.141 580.608
L140.81 581.904
L141.48 580.608
L142.15 580.608
L142.819 581.904
L143.489 581.904
L144.158 583.2
L145.498 583.2
L146.167 580.608
L146.837 576.72
L147.506 580.608
L148.176 578.016
L148.846 580.608
L149.515 579.312
L150.185 580.608
L150.854 574.128
L151.524 581.904
L152.194 576.72
L152.863 572.832
L153.533 578.016
L154.202 575.424
L154.872 576.72
L155.542 575.424
L156.211 575.424
L156.881 576.72
L157.55 571.536
L158.22 567.648
L158.89 570.24
L159.559 576.72
L160.229 574.128
L160.898 575.424
L161.568 572.832
L162.238 572.832
L162.907 574.128
L164.246 579.312
L164.916 574.128
L165.586 576.72
L166.925 576.72
L167.594 574.128
L168.264 575.424
L168.934 575.424
L169.603 576.72
L170.273 574.128
L170.942 572.832
L171.612 579.312
L172.282 576.72
L172.951 581.904
L173.621 576.72
L174.29 576.72
L174.96 583.2
L176.969 571.536
L177.638 576.72
L178.308 576.72
L178.978 580.608
L179.647 575.424
L180.317 571.536
L180.986 576.72
L181.656 576.72
L182.326 572.832
L182.995 574.128
L183.665 580.608
L184.334 575.424
L185.004 571.536
L185.674 579.312
L187.013 574.128
L187.682 579.312
L188.352 575.424
L189.691 572.832
L190.361 575.424
L191.7 570.24
L193.709 574.128
L194.378 578.016
L195.718 578.016
L196.387 580.608
L197.726 580.608
L198.396 579.312
L199.066 579.312
L199.735 576.72
L200.405 580.608
L201.074 576.72
L201.744 576.72
L202.414 579.312
L203.083 578.016
L203.753 575.424
L204.422 578.016
L205.092 581.904
L206.431 579.312
L207.101 574.128
L207.77 575.424
L208.44 578.016
L209.11 581.904
L209.779 579.312
L210.449 574.128
L211.118 579.312
L211.788 576.72
L212.458 579.312
L213.127 571.536
L215.136 575.424
L215.806 580.608
L217.145 578.016
L217.814 581.904
L218.484 579.312
L219.823 579.312
L220.493 576.72
L221.162 575.424
L221.832 580.608
L222.502 580.608
L223.171 579.312
L224.51 579.312
L225.18 581.904
L225.85 575.424
L226.519 578.016
L227.189 575.424
L227.858 575.424
L228.528 576.72
L229.198 580.608
L229.867 579.312
L231.206 574.128
L231.876 580.608
L232.546 578.016
L233.885 578.016
L234.554 576.72
L235.224 581.904
L235.894 574.128
L236.563 576.72
L237.233 575.424
L237.902 575.424
L238.572 576.72
L239.242 580.608
L239.911 579.312
L240.581 575.424
L241.25 580.608
L241.92 578.016
L242.59 574.128
L243.259 572.832
L243.929 575.424
L245.938 579.312
L246.607 576.72
L247.277 579.312
L247.946 576.72
L248.616 575.424
L249.286 572.832
L249.955 578.016
L250.625 580.608
L251.294 578.016
L251.964 578.016
L252.634 574.128
L253.973 576.72
L254.642 579.312
L255.312 576.72
L255.982 572.832
L256.651 570.24
L257.321 568.944
L257.99 575.424
L259.33 578.016
L259.999 581.904
L260.669 571.536
L261.338 575.424
L262.008 574.128
L262.678 576.72
L264.017 579.312
L264.686 581.904
L265.356 575.424
L266.026 574.128
L266.695 579.312
L267.365 580.608
L268.704 580.608
L269.374 579.312
L270.043 576.72
L270.713 579.312
L271.382 572.832
L272.052 578.016
L272.722 576.72
L274.061 579.312
L274.73 579.312
L275.4 578.016
L276.07 581.904
L277.409 576.72
L278.748 579.312
L279.418 579.312
L280.087 575.424
L280.757 578.016
L281.426 574.128
L282.096 579.312
L282.766 575.424
L283.435 581.904
L284.774 579.312
L285.444 576.72
L286.783 579.312
L287.453 578.016
L288.122 580.608
L288.792 578.016
L289.462 578.016
L290.131 579.312
L290.801 578.016
L291.47 580.608
L292.81 575.424
L293.479 574.128
L294.149 579.312
L295.488 579.312
L296.158 578.016
L297.497 580.608
L298.166 580.608
L298.836 581.904
L299.506 575.424
L300.175 575.424
L300.845 574.128
L301.514 575.424
L302.184 578.016
L302.854 578.016
L303.523 572.832
L304.193 572.832
L304.862 576.72
L305.532 575.424
L306.202 578.016
L307.541 572.832
L308.21 571.536
L309.55 579.312
L310.219 581.904
L310.889 576.72
L311.558 579.312
L312.228 578.016
L313.567 572.832
L314.237 575.424
L315.576 578.016
L316.246 580.608
L316.915 579.312
L317.585 575.424
L318.254 574.128
L318.924 579.312
L319.594 579.312
L320.263 575.424
L320.933 578.016
L321.602 579.312
L322.272 574.128
L322.942 575.424
L323.611 574.128
L324.281 579.312
L324.95 578.016
L325.62 574.128
L326.29 579.312
L326.959 581.904
L327.629 578.016
L328.298 575.424
L328.968 579.312
L329.638 575.424
L330.307 576.72
L330.977 580.608
L331.646 575.424
L332.316 574.128
L333.655 576.72
L334.325 580.608
L334.994 579.312
L335.664 575.424
L336.334 576.72
L337.003 580.608
L337.673 581.904
L338.342 579.312
L339.682 579.312
L340.351 583.2
L341.021 579.312
L341.69 581.904
L342.36 578.016
L343.03 576.72
L343.699 581.904
L344.369 580.608
L345.038 581.904
L346.378 581.904
L347.047 579.312
L347.717 579.312
L348.386 580.608
L349.056 580.608
L349.726 579.312
L350.395 581.904
L351.065 579.312
L351.734 579.312
L352.404 583.2
L353.074 578.016
L353.743 576.72
L355.082 579.312
L355.752 579.312
L356.422 575.424
L357.091 576.72
L357.761 579.312
L358.43 575.424
L359.1 575.424
L359.77 578.016
L361.109 578.016
L361.778 576.72
L363.118 579.312
L363.787 578.016
L364.457 579.312
L365.796 579.312
L366.466 576.72
L367.135 579.312
L367.805 579.312
L369.144 574.128
L369.814 579.312
L370.483 580.608
L371.153 571.536
L371.822 578.016
L372.492 574.128
L373.162 576.72
L374.501 579.312
L375.17 576.72
L377.179 580.608
L377.849 578.016
L378.518 579.312
L379.188 576.72
L379.858 579.312
L381.197 576.72
L383.206 580.608
L383.875 575.424
L386.554 580.608
L387.893 578.016
L388.562 578.016
L389.232 575.424
L389.902 574.128
L390.571 578.016
L391.241 580.608
L391.91 576.72
L392.58 580.608
L395.258 580.608
L396.598 578.016
L397.267 583.2
L397.937 578.016
L398.606 581.904
L399.276 580.608
L399.946 575.424
L400.615 581.904
L401.285 579.312
L401.954 575.424
L402.624 579.312
L403.963 576.72
L404.633 579.312
L405.302 580.608
L405.972 578.016
L406.642 580.608
L407.311 576.72
L407.981 583.2
L408.65 579.312
L409.32 578.016
L409.99 580.608
L410.659 580.608
L411.329 579.312
L411.998 579.312
L412.668 580.608
L413.338 579.312
L414.007 580.608
L414.677 579.312
L415.346 579.312
L416.016 576.72
L416.686 579.312
L417.355 583.2
L418.025 583.2
L418.694 580.608
L419.364 581.904
L420.034 578.016
L420.703 578.016
L421.373 580.608
L422.042 579.312
L423.382 579.312
L424.051 580.608
L424.721 574.128
L426.06 581.904
L426.73 578.016
L427.399 578.016
L428.069 576.72
L428.738 580.608
L429.408 579.312
L430.078 580.608
L430.747 583.2
L431.417 581.904
L432.086 578.016
L432.756 579.312
L433.426 579.312
L434.095 580.608
L434.765 580.608
L435.434 579.312
L436.104 579.312
L436.774 580.608
L437.443 578.016
L438.113 574.128
L438.782 578.016
L439.452 572.832
L440.122 576.72
L440.791 575.424
L441.461 579.312
L442.13 575.424
L442.8 575.424
L443.47 578.016
L444.139 579.312
L444.809 579.312
L445.478 571.536
L446.148 575.424
L446.818 574.128
L447.487 574.128
L448.157 575.424
L448.826 566.352
L449.496 565.056
L450.166 558.576
L450.835 539.136
L451.505 527.472
L452.174 523.584
L452.844 504.144
L453.514 501.552
L454.183 492.48
L454.853 511.92
L455.522 502.848
L456.192 483.408
L456.862 498.96
L457.531 487.296
L458.201 473.04
L458.87 473.04
L459.54 480.816
L460.21 495.072
L460.879 487.296
L461.549 487.296
L462.218 480.816
L462.888 460.08
L463.558 474.336
L464.227 456.192
L464.897 456.192
L465.566 487.296
L466.236 483.408
L466.906 470.448
L467.575 479.52
L468.245 469.152
L468.914 471.744
L469.584 471.744
L470.254 498.96
L470.923 504.144
L471.593 488.592
L472.262 478.224
L472.932 501.552
L473.602 489.888
L474.271 500.256
L474.941 474.336
L475.61 488.592
L476.28 480.816
L476.95 491.184
L477.619 474.336
L478.289 493.776
L478.958 480.816
L479.628 484.704
L480.298 483.408
L480.967 493.776
L481.637 500.256
L482.976 462.672
L483.646 486
L484.315 482.112
L484.985 496.368
L485.654 476.928
L486.324 486
L486.994 465.264
L487.663 467.856
L488.333 469.152
L489.002 457.488
L489.672 487.296
L490.342 475.632
L491.011 501.552
L491.681 482.112
L492.35 471.744
L493.02 473.04
L493.69 497.664
L494.359 515.808
L495.029 487.296
L495.698 492.48
L496.368 467.856
L497.038 486
L497.707 496.368
L498.377 502.848
L499.046 496.368
L499.716 463.968
L500.386 495.072
L501.055 506.736
L501.725 488.592
L502.394 493.776
L503.064 504.144
L503.734 473.04
L504.403 501.552
L505.073 493.776
L505.742 478.224
L506.412 487.296
L507.082 493.776
L507.751 475.632
L508.421 498.96
L509.09 492.48
L509.76 497.664
L510.43 489.888
L511.099 514.512
L511.769 495.072
L512.438 514.512
L513.108 493.776
L513.778 486
L514.447 488.592
L515.117 475.632
L515.786 491.184
L516.456 482.112
L517.126 478.224
L517.795 496.368
L518.465 478.224
L519.134 491.184
L519.804 519.696
L520.474 489.888
L521.143 495.072
L521.813 479.52
L522.482 488.592
L523.152 483.408
L523.822 514.512
L524.491 506.736
L525.161 473.04
L525.83 488.592
L526.5 488.592
L527.17 470.448
L527.839 489.888
L528.509 483.408
L529.178 478.224
L529.848 504.144
L530.518 506.736
L531.187 520.992
L531.857 491.184
L532.526 484.704
L533.196 488.592
L533.866 487.296
L534.535 509.328
L535.205 508.032
L535.874 500.256
L536.544 498.96
L537.214 517.104
L537.883 504.144
L538.553 469.152
L539.892 513.216
L540.562 461.376
L541.231 478.224
L541.901 489.888
L542.57 506.736
L543.24 489.888
L543.91 483.408
L544.579 489.888
L545.249 505.44
L545.918 458.784
L546.588 508.032
L547.258 501.552
L547.927 519.696
L548.597 497.664
L549.266 505.44
L549.936 500.256
L550.606 487.296
L551.275 500.256
L551.945 518.4
L552.614 504.144
L553.284 514.512
L553.954 510.624
L554.623 502.848
L555.293 508.032
L555.962 478.224
L556.632 508.032
L557.302 497.664
L557.971 500.256
L558.641 515.808
L559.31 496.368
L559.98 483.408
L560.65 497.664
L561.319 471.744
L561.989 457.488
L562.658 479.52
L563.328 492.48
L563.998 501.552
L564.667 482.112
L565.337 497.664
L566.006 508.032
L566.676 509.328
L567.346 502.848
L568.015 504.144
L568.685 483.408
L569.354 497.664
L570.024 478.224
L570.694 474.336
L571.363 497.664
L572.033 475.632
L572.702 492.48
L573.372 505.44
L574.711 492.48
L575.381 489.888
L576.05 484.704
L576.72 478.224
L577.39 495.072
L578.059 497.664
L578.729 510.624
L579.398 509.328
L580.068 505.44
L580.738 498.96
L581.407 517.104
L582.077 520.992
L582.746 501.552
L583.416 506.736
L584.086 498.96
L584.755 530.064
L585.425 509.328
L586.094 498.96
L586.764 479.52
L587.434 518.4
L588.103 493.776
L588.773 497.664
L589.442 504.144
L590.112 488.592
L590.782 504.144
L591.451 510.624
L592.121 498.96
L592.79 496.368
L593.46 519.696
L594.13 496.368
L594.799 495.072
L595.469 498.96
L596.138 496.368
L596.808 500.256
L597.478 498.96
L598.147 495.072
L598.817 515.808
L599.486 517.104
L600.156 511.92
L600.826 510.624
L601.495 502.848
L602.165 519.696
L602.834 517.104
L603.504 496.368
L604.174 491.184
L604.843 498.96
L605.513 501.552
L606.182 491.184
L606.852 487.296
L607.522 488.592
L608.191 498.96
L608.861 492.48
L609.53 501.552
L610.2 513.216
L610.87 484.704
L611.539 496.368
L612.209 476.928
L612.878 508.032
L613.548 489.888
L614.218 495.072
L614.887 508.032
L615.557 510.624
L616.226 514.512
L616.896 489.888
L617.566 496.368
L618.235 500.256
L618.905 492.48
L619.574 502.848
L620.244 495.072
L620.914 504.144
L621.583 500.256
L622.253 497.664
L622.922 500.256
L623.592 505.44
L624.262 505.44
L624.931 486
L625.601 458.784
L626.27 486
L626.94 487.296
L628.279 527.472
L628.949 498.96
L629.618 509.328
L630.288 506.736
L630.958 517.104
L631.627 492.48
L632.297 493.776
L632.966 492.48
L633.636 500.256
L634.306 482.112
L634.975 480.816
L635.645 497.664
L636.314 518.4
L636.984 501.552
L637.654 513.216
L638.323 498.96
L638.993 500.256
L639.662 509.328
L640.332 488.592
L641.002 493.776
L641.671 508.032
L642.341 497.664
L643.01 498.96
L643.68 511.92
L644.35 488.592
L645.019 509.328
L645.689 505.44
L646.358 488.592
L647.028 514.512
L648.367 493.776
L649.037 497.664
L649.706 493.776
L650.376 491.184
L651.046 474.336
L651.715 496.368
L652.385 505.44
L653.054 493.776
L653.724 532.656
L654.394 519.696
L655.063 533.952
L655.733 505.44
L656.402 498.96
L657.072 484.704
L657.742 530.064
L658.411 496.368
L659.081 513.216
L659.75 511.92
L660.42 476.928
L661.09 489.888
L661.759 483.408
L662.429 495.072
L663.098 493.776
L663.768 505.44
L664.438 504.144
L665.107 498.96
L665.777 486
L666.446 511.92
L667.116 509.328
L667.786 483.408
L668.455 498.96
L669.125 518.4
L669.794 515.808
L670.464 510.624
L671.134 500.256
L671.803 493.776
L672.473 482.112
L673.142 522.288
L673.812 493.776
L674.482 506.736
L675.151 511.92
L675.821 506.736
L676.49 495.072
L677.16 475.632
L677.83 476.928
L678.499 510.624
L679.169 514.512
L679.838 502.848
L680.508 506.736
L681.178 513.216
L681.847 498.96
L682.517 522.288
L683.186 493.776
L683.856 484.704
L684.526 496.368
L685.195 493.776
L685.865 527.472
L686.534 504.144
L687.204 514.512
L687.874 497.664
L688.543 484.704
L689.213 498.96
L689.882 502.848
L690.552 484.704
L691.891 528.768
L692.561 520.992
L693.23 480.816
L693.9 518.4
L694.57 509.328
L695.909 514.512
L696.578 513.216
L697.918 508.032
L698.587 509.328
L699.257 539.136
L699.926 505.44
L700.596 496.368
L701.266 527.472
L701.935 515.808
L702.605 501.552
L703.274 513.216
L703.944 517.104
L704.614 504.144
L705.283 495.072
L705.953 509.328
L706.622 501.552
L707.292 501.552
L707.962 487.296
L708.631 518.4
L709.301 511.92
L709.97 509.328
L710.64 515.808
L711.31 511.92
L711.979 495.072
L712.649 510.624
L713.318 508.032
L713.988 506.736
L714.658 488.592
L715.327 513.216
L715.997 510.624
L716.666 504.144
L717.336 514.512
L718.006 508.032
L718.675 500.256
L719.345 508.032
L720.014 511.92
L720.684 508.032
L721.354 526.176
L722.023 501.552
L722.693 510.624
L723.362 488.592
L724.032 496.368
L724.702 508.032
L725.371 497.664
L726.041 470.448
L727.38 518.4
L728.05 501.552
L728.719 495.072
L729.389 496.368
L730.058 510.624
L730.728 498.96
L731.398 519.696
L732.067 506.736
L732.737 514.512
L733.406 528.768
L734.076 500.256
L734.746 506.736
L735.415 504.144
L736.085 504.144
L736.754 513.216
L737.424 519.696
L738.094 504.144
L738.763 496.368
L739.433 515.808
L740.102 486
L740.772 488.592
L742.111 510.624
L742.781 506.736
L743.45 527.472
L744.12 535.248
L744.79 486
L745.459 502.848
L746.129 505.44
L746.798 502.848
L747.468 501.552
L748.138 508.032
L748.807 502.848
L749.477 495.072
L750.146 506.736
L750.816 505.44
L751.486 495.072
L752.155 518.4
L752.825 501.552
L753.494 488.592
L754.164 513.216
L754.834 524.88
L755.503 505.44
L756.173 510.624
L756.842 504.144
L757.512 518.4
L758.182 519.696
L758.851 487.296
L759.521 495.072
L760.19 488.592
L760.86 492.48
L761.53 509.328
L762.199 510.624
L762.869 522.288
L763.538 511.92
L764.208 508.032
L764.878 511.92
L765.547 510.624
L766.217 511.92
L766.886 524.88
L767.556 509.328
L768.226 483.408
L768.895 518.4
L769.565 508.032
L770.234 511.92
L770.904 500.256
L771.574 510.624
L772.243 511.92
L772.913 493.776
L773.582 511.92
L774.252 504.144
L774.922 526.176
L775.591 511.92
L776.261 501.552
L777.6 543.024
L777.6 543.024" style="fill:none;stroke:#0000ff;stroke-linecap:square;"/>
   </g>
   <g id="patch_3">
    <path d="
M777.6 583.2
L777.6 64.8" style="fill:none;stroke:#000000;stroke-linecap:square;stroke-linejoin:miter;"/>
   </g>
   <g id="patch_4">
    <path d="
M108 64.8
L777.6 64.8" style="fill:none;stroke:#000000;stroke-linecap:square;stroke-linejoin:miter;"/>
   </g>
   <g id="patch_5">
    <path d="
M108 583.2
L777.6 583.2" style="fill:none;stroke:#000000;stroke-linecap:square;stroke-linejoin:miter;"/>
   </g>
   <g id="patch_6">
    <path d="
M108 583.2
L108 64.8" style="fill:none;stroke:#000000;stroke-linecap:square;stroke-linejoin:miter;"/>
   </g>
   <g id="matplotlib.axis_1">
    <g id="xtick_1">
     <g id="line2d_4">
      <defs>
       <path d="
M0 0
L0 -4" id="mc7db9fdffb" style="stroke:#000000;stroke-width:0.5;"/>
      </defs>
      <g>
       <use style="stroke:#000000;stroke-width:0.5;" x="108.0" xlink:href="#mc7db9fdffb" y="583.2"/>
      </g>
     </g>
     <g id="line2d_5">
      <defs>
       <path d="
M0 0
L0 4" id="m5a7d422ac3" style="stroke:#000000;stroke-width:0.5;"/>
      </defs>
      <g>
       <use style="stroke:#000000;stroke-width:0.5;" x="108.0" xlink:href="#m5a7d422ac3" y="64.8"/>
      </g>
     </g>
     <g id="text_1">
      <!-- 0 -->
      <defs>
       <path d="
M31.7812 66.4062
Q24.1719 66.4062 20.3281 58.9062
Q16.5 51.4219 16.5 36.375
Q16.5 21.3906 20.3281 13.8906
Q24.1719 6.39062 31.7812 6.39062
Q39.4531 6.39062 43.2812 13.8906
Q47.125 21.3906 47.125 36.375
Q47.125 51.4219 43.2812 58.9062
Q39.4531 66.4062 31.7812 66.4062
M31.7812 74.2188
Q44.0469 74.2188 50.5156 64.5156
Q56.9844 54.8281 56.9844 36.375
Q56.9844 17.9688 50.5156 8.26562
Q44.0469 -1.42188 31.7812 -1.42188
Q19.5312 -1.42188 13.0625 8.26562
Q6.59375 17.9688 6.59375 36.375
Q6.59375 54.8281 13.0625 64.5156
Q19.5312 74.2188 31.7812 74.2188" id="BitstreamVeraSans-Roman-30"/>
      </defs>
      <g transform="translate(104.9765625 596.318125)scale(0.12 -0.12)">
       <use xlink:href="#BitstreamVeraSans-Roman-30"/>
      </g>
     </g>
    </g>
    <g id="xtick_2">
     <g id="line2d_6">
      <g>
       <use style="stroke:#000000;stroke-width:0.5;" x="275.4" xlink:href="#mc7db9fdffb" y="583.2"/>
      </g>
     </g>
     <g id="line2d_7">
      <g>
       <use style="stroke:#000000;stroke-width:0.5;" x="275.4" xlink:href="#m5a7d422ac3" y="64.8"/>
      </g>
     </g>
     <g id="text_2">
      <!-- 50000 -->
      <defs>
       <path d="
M10.7969 72.9062
L49.5156 72.9062
L49.5156 64.5938
L19.8281 64.5938
L19.8281 46.7344
Q21.9688 47.4688 24.1094 47.8281
Q26.2656 48.1875 28.4219 48.1875
Q40.625 48.1875 47.75 41.5
Q54.8906 34.8125 54.8906 23.3906
Q54.8906 11.625 47.5625 5.09375
Q40.2344 -1.42188 26.9062 -1.42188
Q22.3125 -1.42188 17.5469 -0.640625
Q12.7969 0.140625 7.71875 1.70312
L7.71875 11.625
Q12.1094 9.23438 16.7969 8.0625
Q21.4844 6.89062 26.7031 6.89062
Q35.1562 6.89062 40.0781 11.3281
Q45.0156 15.7656 45.0156 23.3906
Q45.0156 31 40.0781 35.4375
Q35.1562 39.8906 26.7031 39.8906
Q22.75 39.8906 18.8125 39.0156
Q14.8906 38.1406 10.7969 36.2812
z
" id="BitstreamVeraSans-Roman-35"/>
      </defs>
      <g transform="translate(257.1740625 596.318125)scale(0.12 -0.12)">
       <use xlink:href="#BitstreamVeraSans-Roman-35"/>
       <use x="63.623046875" xlink:href="#BitstreamVeraSans-Roman-30"/>
       <use x="127.24609375" xlink:href="#BitstreamVeraSans-Roman-30"/>
       <use x="190.869140625" xlink:href="#BitstreamVeraSans-Roman-30"/>
       <use x="254.4921875" xlink:href="#BitstreamVeraSans-Roman-30"/>
      </g>
     </g>
    </g>
    <g id="xtick_3">
     <g id="line2d_8">
      <g>
       <use style="stroke:#000000;stroke-width:0.5;" x="442.8" xlink:href="#mc7db9fdffb" y="583.2"/>
      </g>
     </g>
     <g id="line2d_9">
      <g>
       <use style="stroke:#000000;stroke-width:0.5;" x="442.8" xlink:href="#m5a7d422ac3" y="64.8"/>
      </g>
     </g>
     <g id="text_3">
      <!-- 100000 -->
      <defs>
       <path d="
M12.4062 8.29688
L28.5156 8.29688
L28.5156 63.9219
L10.9844 60.4062
L10.9844 69.3906
L28.4219 72.9062
L38.2812 72.9062
L38.2812 8.29688
L54.3906 8.29688
L54.3906 0
L12.4062 0
z
" id="BitstreamVeraSans-Roman-31"/>
      </defs>
      <g transform="translate(420.9525 596.318125)scale(0.12 -0.12)">
       <use xlink:href="#BitstreamVeraSans-Roman-31"/>
       <use x="63.623046875" xlink:href="#BitstreamVeraSans-Roman-30"/>
       <use x="127.24609375" xlink:href="#BitstreamVeraSans-Roman-30"/>
       <use x="190.869140625" xlink:href="#BitstreamVeraSans-Roman-30"/>
       <use x="254.4921875" xlink:href="#BitstreamVeraSans-Roman-30"/>
       <use x="318.115234375" xlink:href="#BitstreamVeraSans-Roman-30"/>
      </g>
     </g>
    </g>
    <g id="xtick_4">
     <g id="line2d_10">
      <g>
       <use style="stroke:#000000;stroke-width:0.5;" x="610.2" xlink:href="#mc7db9fdffb" y="583.2"/>
      </g>
     </g>
     <g id="line2d_11">
      <g>
       <use style="stroke:#000000;stroke-width:0.5;" x="610.2" xlink:href="#m5a7d422ac3" y="64.8"/>
      </g>
     </g>
     <g id="text_4">
      <!-- 150000 -->
      <g transform="translate(588.3525 596.318125)scale(0.12 -0.12)">
       <use xlink:href="#BitstreamVeraSans-Roman-31"/>
       <use x="63.623046875" xlink:href="#BitstreamVeraSans-Roman-35"/>
       <use x="127.24609375" xlink:href="#BitstreamVeraSans-Roman-30"/>
       <use x="190.869140625" xlink:href="#BitstreamVeraSans-Roman-30"/>
       <use x="254.4921875" xlink:href="#BitstreamVeraSans-Roman-30"/>
       <use x="318.115234375" xlink:href="#BitstreamVeraSans-Roman-30"/>
      </g>
     </g>
    </g>
    <g id="xtick_5">
     <g id="line2d_12">
      <g>
       <use style="stroke:#000000;stroke-width:0.5;" x="777.6" xlink:href="#mc7db9fdffb" y="583.2"/>
      </g>
     </g>
     <g id="line2d_13">
      <g>
       <use style="stroke:#000000;stroke-width:0.5;" x="777.6" xlink:href="#m5a7d422ac3" y="64.8"/>
      </g>
     </g>
     <g id="text_5">
      <!-- 200000 -->
      <defs>
       <path d="
M19.1875 8.29688
L53.6094 8.29688
L53.6094 0
L7.32812 0
L7.32812 8.29688
Q12.9375 14.1094 22.625 23.8906
Q32.3281 33.6875 34.8125 36.5312
Q39.5469 41.8438 41.4219 45.5312
Q43.3125 49.2188 43.3125 52.7812
Q43.3125 58.5938 39.2344 62.25
Q35.1562 65.9219 28.6094 65.9219
Q23.9688 65.9219 18.8125 64.3125
Q13.6719 62.7031 7.8125 59.4219
L7.8125 69.3906
Q13.7656 71.7812 18.9375 73
Q24.125 74.2188 28.4219 74.2188
Q39.75 74.2188 46.4844 68.5469
Q53.2188 62.8906 53.2188 53.4219
Q53.2188 48.9219 51.5312 44.8906
Q49.8594 40.875 45.4062 35.4062
Q44.1875 33.9844 37.6406 27.2188
Q31.1094 20.4531 19.1875 8.29688" id="BitstreamVeraSans-Roman-32"/>
      </defs>
      <g transform="translate(755.533125 596.318125)scale(0.12 -0.12)">
       <use xlink:href="#BitstreamVeraSans-Roman-32"/>
       <use x="63.623046875" xlink:href="#BitstreamVeraSans-Roman-30"/>
       <use x="127.24609375" xlink:href="#BitstreamVeraSans-Roman-30"/>
       <use x="190.869140625" xlink:href="#BitstreamVeraSans-Roman-30"/>
       <use x="254.4921875" xlink:href="#BitstreamVeraSans-Roman-30"/>
       <use x="318.115234375" xlink:href="#BitstreamVeraSans-Roman-30"/>
      </g>
     </g>
    </g>
    <g id="text_6">
     <!-- t / ms -->
     <defs>
      <path d="
M52 44.1875
Q55.375 50.25 60.0625 53.125
Q64.75 56 71.0938 56
Q79.6406 56 84.2812 50.0156
Q88.9219 44.0469 88.9219 33.0156
L88.9219 0
L79.8906 0
L79.8906 32.7188
Q79.8906 40.5781 77.0938 44.375
Q74.3125 48.1875 68.6094 48.1875
Q61.625 48.1875 57.5625 43.5469
Q53.5156 38.9219 53.5156 30.9062
L53.5156 0
L44.4844 0
L44.4844 32.7188
Q44.4844 40.625 41.7031 44.4062
Q38.9219 48.1875 33.1094 48.1875
Q26.2188 48.1875 22.1562 43.5312
Q18.1094 38.875 18.1094 30.9062
L18.1094 0
L9.07812 0
L9.07812 54.6875
L18.1094 54.6875
L18.1094 46.1875
Q21.1875 51.2188 25.4844 53.6094
Q29.7812 56 35.6875 56
Q41.6562 56 45.8281 52.9688
Q50 49.9531 52 44.1875" id="BitstreamVeraSans-Roman-6d"/>
      <path id="BitstreamVeraSans-Roman-20"/>
      <path d="
M44.2812 53.0781
L44.2812 44.5781
Q40.4844 46.5312 36.375 47.5
Q32.2812 48.4844 27.875 48.4844
Q21.1875 48.4844 17.8438 46.4375
Q14.5 44.3906 14.5 40.2812
Q14.5 37.1562 16.8906 35.375
Q19.2812 33.5938 26.5156 31.9844
L29.5938 31.2969
Q39.1562 29.25 43.1875 25.5156
Q47.2188 21.7812 47.2188 15.0938
Q47.2188 7.46875 41.1875 3.01562
Q35.1562 -1.42188 24.6094 -1.42188
Q20.2188 -1.42188 15.4531 -0.5625
Q10.6875 0.296875 5.42188 2
L5.42188 11.2812
Q10.4062 8.6875 15.2344 7.39062
Q20.0625 6.10938 24.8125 6.10938
Q31.1562 6.10938 34.5625 8.28125
Q37.9844 10.4531 37.9844 14.4062
Q37.9844 18.0625 35.5156 20.0156
Q33.0625 21.9688 24.7031 23.7812
L21.5781 24.5156
Q13.2344 26.2656 9.51562 29.9062
Q5.8125 33.5469 5.8125 39.8906
Q5.8125 47.6094 11.2812 51.7969
Q16.75 56 26.8125 56
Q31.7812 56 36.1719 55.2656
Q40.5781 54.5469 44.2812 53.0781" id="BitstreamVeraSans-Roman-73"/>
      <path d="
M25.3906 72.9062
L33.6875 72.9062
L8.29688 -9.28125
L0 -9.28125
z
" id="BitstreamVeraSans-Roman-2f"/>
      <path d="
M18.3125 70.2188
L18.3125 54.6875
L36.8125 54.6875
L36.8125 47.7031
L18.3125 47.7031
L18.3125 18.0156
Q18.3125 11.3281 20.1406 9.42188
Q21.9688 7.51562 27.5938 7.51562
L36.8125 7.51562
L36.8125 0
L27.5938 0
Q17.1875 0 13.2344 3.875
Q9.28125 7.76562 9.28125 18.0156
L9.28125 47.7031
L2.6875 47.7031
L2.6875 54.6875
L9.28125 54.6875
L9.28125 70.2188
z
" id="BitstreamVeraSans-Roman-74"/>
     </defs>
     <g transform="translate(425.9353125 612.931875)scale(0.12 -0.12)">
      <use xlink:href="#BitstreamVeraSans-Roman-74"/>
      <use x="39.208984375" xlink:href="#BitstreamVeraSans-Roman-20"/>
      <use x="70.99609375" xlink:href="#BitstreamVeraSans-Roman-2f"/>
      <use x="104.6875" xlink:href="#BitstreamVeraSans-Roman-20"/>
      <use x="136.474609375" xlink:href="#BitstreamVeraSans-Roman-6d"/>
      <use x="233.88671875" xlink:href="#BitstreamVeraSans-Roman-73"/>
     </g>
    </g>
   </g>
   <g id="matplotlib.axis_2">
    <g id="ytick_1">
     <g id="line2d_14">
      <defs>
       <path d="
M0 0
L4 0" id="md7965d1ba0" style="stroke:#000000;stroke-width:0.5;"/>
      </defs>
      <g>
       <use style="stroke:#000000;stroke-width:0.5;" x="108.0" xlink:href="#md7965d1ba0" y="583.2"/>
      </g>
     </g>
     <g id="line2d_15">
      <defs>
       <path d="
M0 0
L-4 0" id="md9a1c1a7cd" style="stroke:#000000;stroke-width:0.5;"/>
      </defs>
      <g>
       <use style="stroke:#000000;stroke-width:0.5;" x="777.6" xlink:href="#md9a1c1a7cd" y="583.2"/>
      </g>
     </g>
     <g id="text_7">
      <!-- 0 -->
      <g transform="translate(97.953125 586.51125)scale(0.12 -0.12)">
       <use xlink:href="#BitstreamVeraSans-Roman-30"/>
      </g>
     </g>
    </g>
    <g id="ytick_2">
     <g id="line2d_16">
      <g>
       <use style="stroke:#000000;stroke-width:0.5;" x="108.0" xlink:href="#md7965d1ba0" y="518.4"/>
      </g>
     </g>
     <g id="line2d_17">
      <g>
       <use style="stroke:#000000;stroke-width:0.5;" x="777.6" xlink:href="#md9a1c1a7cd" y="518.4"/>
      </g>
     </g>
     <g id="text_8">
      <!-- 50 -->
      <g transform="translate(90.453125 521.71125)scale(0.12 -0.12)">
       <use xlink:href="#BitstreamVeraSans-Roman-35"/>
       <use x="63.623046875" xlink:href="#BitstreamVeraSans-Roman-30"/>
      </g>
     </g>
    </g>
    <g id="ytick_3">
     <g id="line2d_18">
      <g>
       <use style="stroke:#000000;stroke-width:0.5;" x="108.0" xlink:href="#md7965d1ba0" y="453.6"/>
      </g>
     </g>
     <g id="line2d_19">
      <g>
       <use style="stroke:#000000;stroke-width:0.5;" x="777.6" xlink:href="#md9a1c1a7cd" y="453.6"/>
      </g>
     </g>
     <g id="text_9">
      <!-- 100 -->
      <g transform="translate(83.21 456.91125)scale(0.12 -0.12)">
       <use xlink:href="#BitstreamVeraSans-Roman-31"/>
       <use x="63.623046875" xlink:href="#BitstreamVeraSans-Roman-30"/>
       <use x="127.24609375" xlink:href="#BitstreamVeraSans-Roman-30"/>
      </g>
     </g>
    </g>
    <g id="ytick_4">
     <g id="line2d_20">
      <g>
       <use style="stroke:#000000;stroke-width:0.5;" x="108.0" xlink:href="#md7965d1ba0" y="388.8"/>
      </g>
     </g>
     <g id="line2d_21">
      <g>
       <use style="stroke:#000000;stroke-width:0.5;" x="777.6" xlink:href="#md9a1c1a7cd" y="388.8"/>
      </g>
     </g>
     <g id="text_10">
      <!-- 150 -->
      <g transform="translate(83.21 392.11125)scale(0.12 -0.12)">
       <use xlink:href="#BitstreamVeraSans-Roman-31"/>
       <use x="63.623046875" xlink:href="#BitstreamVeraSans-Roman-35"/>
       <use x="127.24609375" xlink:href="#BitstreamVeraSans-Roman-30"/>
      </g>
     </g>
    </g>
    <g id="ytick_5">
     <g id="line2d_22">
      <g>
       <use style="stroke:#000000;stroke-width:0.5;" x="108.0" xlink:href="#md7965d1ba0" y="324.0"/>
      </g>
     </g>
     <g id="line2d_23">
      <g>
       <use style="stroke:#000000;stroke-width:0.5;" x="777.6" xlink:href="#md9a1c1a7cd" y="324.0"/>
      </g>
     </g>
     <g id="text_11">
      <!-- 200 -->
      <g transform="translate(82.77125 327.31125)scale(0.12 -0.12)">
       <use xlink:href="#BitstreamVeraSans-Roman-32"/>
       <use x="63.623046875" xlink:href="#BitstreamVeraSans-Roman-30"/>
       <use x="127.24609375" xlink:href="#BitstreamVeraSans-Roman-30"/>
      </g>
     </g>
    </g>
    <g id="ytick_6">
     <g id="line2d_24">
      <g>
       <use style="stroke:#000000;stroke-width:0.5;" x="108.0" xlink:href="#md7965d1ba0" y="259.2"/>
      </g>
     </g>
     <g id="line2d_25">
      <g>
       <use style="stroke:#000000;stroke-width:0.5;" x="777.6" xlink:href="#md9a1c1a7cd" y="259.2"/>
      </g>
     </g>
     <g id="text_12">
      <!-- 250 -->
      <g transform="translate(82.77125 262.51125)scale(0.12 -0.12)">
       <use xlink:href="#BitstreamVeraSans-Roman-32"/>
       <use x="63.623046875" xlink:href="#BitstreamVeraSans-Roman-35"/>
       <use x="127.24609375" xlink:href="#BitstreamVeraSans-Roman-30"/>
      </g>
     </g>
    </g>
    <g id="ytick_7">
     <g id="line2d_26">
      <g>
       <use style="stroke:#000000;stroke-width:0.5;" x="108.0" xlink:href="#md7965d1ba0" y="194.4"/>
      </g>
     </g>
     <g id="line2d_27">
      <g>
       <use style="stroke:#000000;stroke-width:0.5;" x="777.6" xlink:href="#md9a1c1a7cd" y="194.4"/>
      </g>
     </g>
     <g id="text_13">
      <!-- 300 -->
      <defs>
       <path d="
M40.5781 39.3125
Q47.6562 37.7969 51.625 33
Q55.6094 28.2188 55.6094 21.1875
Q55.6094 10.4062 48.1875 4.48438
Q40.7656 -1.42188 27.0938 -1.42188
Q22.5156 -1.42188 17.6562 -0.515625
Q12.7969 0.390625 7.625 2.20312
L7.625 11.7188
Q11.7188 9.32812 16.5938 8.10938
Q21.4844 6.89062 26.8125 6.89062
Q36.0781 6.89062 40.9375 10.5469
Q45.7969 14.2031 45.7969 21.1875
Q45.7969 27.6406 41.2812 31.2656
Q36.7656 34.9062 28.7188 34.9062
L20.2188 34.9062
L20.2188 43.0156
L29.1094 43.0156
Q36.375 43.0156 40.2344 45.9219
Q44.0938 48.8281 44.0938 54.2969
Q44.0938 59.9062 40.1094 62.9062
Q36.1406 65.9219 28.7188 65.9219
Q24.6562 65.9219 20.0156 65.0312
Q15.375 64.1562 9.8125 62.3125
L9.8125 71.0938
Q15.4375 72.6562 20.3438 73.4375
Q25.25 74.2188 29.5938 74.2188
Q40.8281 74.2188 47.3594 69.1094
Q53.9062 64.0156 53.9062 55.3281
Q53.9062 49.2656 50.4375 45.0938
Q46.9688 40.9219 40.5781 39.3125" id="BitstreamVeraSans-Roman-33"/>
      </defs>
      <g transform="translate(82.806875 197.71125)scale(0.12 -0.12)">
       <use xlink:href="#BitstreamVeraSans-Roman-33"/>
       <use x="63.623046875" xlink:href="#BitstreamVeraSans-Roman-30"/>
       <use x="127.24609375" xlink:href="#BitstreamVeraSans-Roman-30"/>
      </g>
     </g>
    </g>
    <g id="ytick_8">
     <g id="line2d_28">
      <g>
       <use style="stroke:#000000;stroke-width:0.5;" x="108.0" xlink:href="#md7965d1ba0" y="129.6"/>
      </g>
     </g>
     <g id="line2d_29">
      <g>
       <use style="stroke:#000000;stroke-width:0.5;" x="777.6" xlink:href="#md9a1c1a7cd" y="129.6"/>
      </g>
     </g>
     <g id="text_14">
      <!-- 350 -->
      <g transform="translate(82.806875 132.91125)scale(0.12 -0.12)">
       <use xlink:href="#BitstreamVeraSans-Roman-33"/>
       <use x="63.623046875" xlink:href="#BitstreamVeraSans-Roman-35"/>
       <use x="127.24609375" xlink:href="#BitstreamVeraSans-Roman-30"/>
      </g>
     </g>
    </g>
    <g id="ytick_9">
     <g id="line2d_30">
      <g>
       <use style="stroke:#000000;stroke-width:0.5;" x="108.0" xlink:href="#md7965d1ba0" y="64.8"/>
      </g>
     </g>
     <g id="line2d_31">
      <g>
       <use style="stroke:#000000;stroke-width:0.5;" x="777.6" xlink:href="#md9a1c1a7cd" y="64.8"/>
      </g>
     </g>
     <g id="text_15">
      <!-- 400 -->
      <defs>
       <path d="
M37.7969 64.3125
L12.8906 25.3906
L37.7969 25.3906
z

M35.2031 72.9062
L47.6094 72.9062
L47.6094 25.3906
L58.0156 25.3906
L58.0156 17.1875
L47.6094 17.1875
L47.6094 0
L37.7969 0
L37.7969 17.1875
L4.89062 17.1875
L4.89062 26.7031
z
" id="BitstreamVeraSans-Roman-34"/>
      </defs>
      <g transform="translate(82.47875 68.11125)scale(0.12 -0.12)">
       <use xlink:href="#BitstreamVeraSans-Roman-34"/>
       <use x="63.623046875" xlink:href="#BitstreamVeraSans-Roman-30"/>
       <use x="127.24609375" xlink:href="#BitstreamVeraSans-Roman-30"/>
      </g>
     </g>
    </g>
    <g id="text_16">
     <!-- particle numbers -->
     <defs>
      <path d="
M34.2812 27.4844
Q23.3906 27.4844 19.1875 25
Q14.9844 22.5156 14.9844 16.5
Q14.9844 11.7188 18.1406 8.90625
Q21.2969 6.10938 26.7031 6.10938
Q34.1875 6.10938 38.7031 11.4062
Q43.2188 16.7031 43.2188 25.4844
L43.2188 27.4844
z

M52.2031 31.2031
L52.2031 0
L43.2188 0
L43.2188 8.29688
Q40.1406 3.32812 35.5469 0.953125
Q30.9531 -1.42188 24.3125 -1.42188
Q15.9219 -1.42188 10.9531 3.29688
Q6 8.01562 6 15.9219
Q6 25.1406 12.1719 29.8281
Q18.3594 34.5156 30.6094 34.5156
L43.2188 34.5156
L43.2188 35.4062
Q43.2188 41.6094 39.1406 45
Q35.0625 48.3906 27.6875 48.3906
Q23 48.3906 18.5469 47.2656
Q14.1094 46.1406 10.0156 43.8906
L10.0156 52.2031
Q14.9375 54.1094 19.5781 55.0469
Q24.2188 56 28.6094 56
Q40.4844 56 46.3438 49.8438
Q52.2031 43.7031 52.2031 31.2031" id="BitstreamVeraSans-Roman-61"/>
      <path d="
M41.1094 46.2969
Q39.5938 47.1719 37.8125 47.5781
Q36.0312 48 33.8906 48
Q26.2656 48 22.1875 43.0469
Q18.1094 38.0938 18.1094 28.8125
L18.1094 0
L9.07812 0
L9.07812 54.6875
L18.1094 54.6875
L18.1094 46.1875
Q20.9531 51.1719 25.4844 53.5781
Q30.0312 56 36.5312 56
Q37.4531 56 38.5781 55.875
Q39.7031 55.7656 41.0625 55.5156
z
" id="BitstreamVeraSans-Roman-72"/>
      <path d="
M54.8906 33.0156
L54.8906 0
L45.9062 0
L45.9062 32.7188
Q45.9062 40.4844 42.875 44.3281
Q39.8438 48.1875 33.7969 48.1875
Q26.5156 48.1875 22.3125 43.5469
Q18.1094 38.9219 18.1094 30.9062
L18.1094 0
L9.07812 0
L9.07812 54.6875
L18.1094 54.6875
L18.1094 46.1875
Q21.3438 51.125 25.7031 53.5625
Q30.0781 56 35.7969 56
Q45.2188 56 50.0469 50.1719
Q54.8906 44.3438 54.8906 33.0156" id="BitstreamVeraSans-Roman-6e"/>
      <path d="
M56.2031 29.5938
L56.2031 25.2031
L14.8906 25.2031
Q15.4844 15.9219 20.4844 11.0625
Q25.4844 6.20312 34.4219 6.20312
Q39.5938 6.20312 44.4531 7.46875
Q49.3125 8.73438 54.1094 11.2812
L54.1094 2.78125
Q49.2656 0.734375 44.1875 -0.34375
Q39.1094 -1.42188 33.8906 -1.42188
Q20.7969 -1.42188 13.1562 6.1875
Q5.51562 13.8125 5.51562 26.8125
Q5.51562 40.2344 12.7656 48.1094
Q20.0156 56 32.3281 56
Q43.3594 56 49.7812 48.8906
Q56.2031 41.7969 56.2031 29.5938
M47.2188 32.2344
Q47.125 39.5938 43.0938 43.9844
Q39.0625 48.3906 32.4219 48.3906
Q24.9062 48.3906 20.3906 44.1406
Q15.875 39.8906 15.1875 32.1719
z
" id="BitstreamVeraSans-Roman-65"/>
      <path d="
M9.42188 75.9844
L18.4062 75.9844
L18.4062 0
L9.42188 0
z
" id="BitstreamVeraSans-Roman-6c"/>
      <path d="
M9.42188 54.6875
L18.4062 54.6875
L18.4062 0
L9.42188 0
z

M9.42188 75.9844
L18.4062 75.9844
L18.4062 64.5938
L9.42188 64.5938
z
" id="BitstreamVeraSans-Roman-69"/>
      <path d="
M48.6875 27.2969
Q48.6875 37.2031 44.6094 42.8438
Q40.5312 48.4844 33.4062 48.4844
Q26.2656 48.4844 22.1875 42.8438
Q18.1094 37.2031 18.1094 27.2969
Q18.1094 17.3906 22.1875 11.75
Q26.2656 6.10938 33.4062 6.10938
Q40.5312 6.10938 44.6094 11.75
Q48.6875 17.3906 48.6875 27.2969
M18.1094 46.3906
Q20.9531 51.2656 25.2656 53.625
Q29.5938 56 35.5938 56
Q45.5625 56 51.7812 48.0938
Q58.0156 40.1875 58.0156 27.2969
Q58.0156 14.4062 51.7812 6.48438
Q45.5625 -1.42188 35.5938 -1.42188
Q29.5938 -1.42188 25.2656 0.953125
Q20.9531 3.32812 18.1094 8.20312
L18.1094 0
L9.07812 0
L9.07812 75.9844
L18.1094 75.9844
z
" id="BitstreamVeraSans-Roman-62"/>
      <path d="
M18.1094 8.20312
L18.1094 -20.7969
L9.07812 -20.7969
L9.07812 54.6875
L18.1094 54.6875
L18.1094 46.3906
Q20.9531 51.2656 25.2656 53.625
Q29.5938 56 35.5938 56
Q45.5625 56 51.7812 48.0938
Q58.0156 40.1875 58.0156 27.2969
Q58.0156 14.4062 51.7812 6.48438
Q45.5625 -1.42188 35.5938 -1.42188
Q29.5938 -1.42188 25.2656 0.953125
Q20.9531 3.32812 18.1094 8.20312
M48.6875 27.2969
Q48.6875 37.2031 44.6094 42.8438
Q40.5312 48.4844 33.4062 48.4844
Q26.2656 48.4844 22.1875 42.8438
Q18.1094 37.2031 18.1094 27.2969
Q18.1094 17.3906 22.1875 11.75
Q26.2656 6.10938 33.4062 6.10938
Q40.5312 6.10938 44.6094 11.75
Q48.6875 17.3906 48.6875 27.2969" id="BitstreamVeraSans-Roman-70"/>
      <path d="
M48.7812 52.5938
L48.7812 44.1875
Q44.9688 46.2969 41.1406 47.3438
Q37.3125 48.3906 33.4062 48.3906
Q24.6562 48.3906 19.8125 42.8438
Q14.9844 37.3125 14.9844 27.2969
Q14.9844 17.2812 19.8125 11.7344
Q24.6562 6.20312 33.4062 6.20312
Q37.3125 6.20312 41.1406 7.25
Q44.9688 8.29688 48.7812 10.4062
L48.7812 2.09375
Q45.0156 0.34375 40.9844 -0.53125
Q36.9688 -1.42188 32.4219 -1.42188
Q20.0625 -1.42188 12.7812 6.34375
Q5.51562 14.1094 5.51562 27.2969
Q5.51562 40.6719 12.8594 48.3281
Q20.2188 56 33.0156 56
Q37.1562 56 41.1094 55.1406
Q45.0625 54.2969 48.7812 52.5938" id="BitstreamVeraSans-Roman-63"/>
      <path d="
M8.5 21.5781
L8.5 54.6875
L17.4844 54.6875
L17.4844 21.9219
Q17.4844 14.1562 20.5 10.2656
Q23.5312 6.39062 29.5938 6.39062
Q36.8594 6.39062 41.0781 11.0312
Q45.3125 15.6719 45.3125 23.6875
L45.3125 54.6875
L54.2969 54.6875
L54.2969 0
L45.3125 0
L45.3125 8.40625
Q42.0469 3.42188 37.7188 1
Q33.4062 -1.42188 27.6875 -1.42188
Q18.2656 -1.42188 13.375 4.4375
Q8.5 10.2969 8.5 21.5781" id="BitstreamVeraSans-Roman-75"/>
     </defs>
     <g transform="translate(74.983125 374.78625)rotate(-90.0)scale(0.12 -0.12)">
      <use xlink:href="#BitstreamVeraSans-Roman-70"/>
      <use x="63.4765625" xlink:href="#BitstreamVeraSans-Roman-61"/>
      <use x="124.755859375" xlink:href="#BitstreamVeraSans-Roman-72"/>
      <use x="165.869140625" xlink:href="#BitstreamVeraSans-Roman-74"/>
      <use x="205.078125" xlink:href="#BitstreamVeraSans-Roman-69"/>
      <use x="232.861328125" xlink:href="#BitstreamVeraSans-Roman-63"/>
      <use x="287.841796875" xlink:href="#BitstreamVeraSans-Roman-6c"/>
      <use x="315.625" xlink:href="#BitstreamVeraSans-Roman-65"/>
      <use x="377.1484375" xlink:href="#BitstreamVeraSans-Roman-20"/>
      <use x="408.935546875" xlink:href="#BitstreamVeraSans-Roman-6e"/>
      <use x="472.314453125" xlink:href="#BitstreamVeraSans-Roman-75"/>
      <use x="535.693359375" xlink:href="#BitstreamVeraSans-Roman-6d"/>
      <use x="633.10546875" xlink:href="#BitstreamVeraSans-Roman-62"/>
      <use x="696.58203125" xlink:href="#BitstreamVeraSans-Roman-65"/>
      <use x="758.10546875" xlink:href="#BitstreamVeraSans-Roman-72"/>
      <use x="799.21875" xlink:href="#BitstreamVeraSans-Roman-73"/>
     </g>
    </g>
   </g>
   <g id="legend_1">
    <g id="patch_7">
     <path d="
M717.006 101.224
L774.1 101.224
L774.1 68.3
L717.006 68.3
z
" style="fill:#ffffff;stroke:#000000;stroke-linejoin:miter;"/>
    </g>
    <g id="line2d_32">
     <path d="
M721.906 73.9689
L731.706 73.9689" style="fill:none;stroke:#ff0000;stroke-linecap:square;"/>
    </g>
    <g id="line2d_33"/>
    <g id="text_17">
     <!-- PKAc el.0 -->
     <defs>
      <path d="
M34.1875 63.1875
L20.7969 26.9062
L47.6094 26.9062
z

M28.6094 72.9062
L39.7969 72.9062
L67.5781 0
L57.3281 0
L50.6875 18.7031
L17.8281 18.7031
L11.1875 0
L0.78125 0
z
" id="BitstreamVeraSans-Roman-41"/>
      <path d="
M19.6719 64.7969
L19.6719 37.4062
L32.0781 37.4062
Q38.9688 37.4062 42.7188 40.9688
Q46.4844 44.5312 46.4844 51.125
Q46.4844 57.6719 42.7188 61.2344
Q38.9688 64.7969 32.0781 64.7969
z

M9.8125 72.9062
L32.0781 72.9062
Q44.3438 72.9062 50.6094 67.3594
Q56.8906 61.8125 56.8906 51.125
Q56.8906 40.3281 50.6094 34.8125
Q44.3438 29.2969 32.0781 29.2969
L19.6719 29.2969
L19.6719 0
L9.8125 0
z
" id="BitstreamVeraSans-Roman-50"/>
      <path d="
M9.8125 72.9062
L19.6719 72.9062
L19.6719 42.0938
L52.3906 72.9062
L65.0938 72.9062
L28.9062 38.9219
L67.6719 0
L54.6875 0
L19.6719 35.1094
L19.6719 0
L9.8125 0
z
" id="BitstreamVeraSans-Roman-4b"/>
      <path d="
M10.6875 12.4062
L21 12.4062
L21 0
L10.6875 0
z
" id="BitstreamVeraSans-Roman-2e"/>
     </defs>
     <g transform="translate(739.40625 76.41890625)scale(0.07 -0.07)">
      <use xlink:href="#BitstreamVeraSans-Roman-50"/>
      <use x="60.302734375" xlink:href="#BitstreamVeraSans-Roman-4b"/>
      <use x="124.12890625" xlink:href="#BitstreamVeraSans-Roman-41"/>
      <use x="190.787109375" xlink:href="#BitstreamVeraSans-Roman-63"/>
      <use x="245.767578125" xlink:href="#BitstreamVeraSans-Roman-20"/>
      <use x="277.5546875" xlink:href="#BitstreamVeraSans-Roman-65"/>
      <use x="339.078125" xlink:href="#BitstreamVeraSans-Roman-6c"/>
      <use x="366.861328125" xlink:href="#BitstreamVeraSans-Roman-2e"/>
      <use x="398.6484375" xlink:href="#BitstreamVeraSans-Roman-30"/>
     </g>
    </g>
    <g id="line2d_34">
     <path d="
M721.906 84.2436
L731.706 84.2436" style="fill:none;stroke:#008000;stroke-linecap:square;"/>
    </g>
    <g id="line2d_35"/>
    <g id="text_18">
     <!-- PKAc el.1 -->
     <g transform="translate(739.40625 86.69359375)scale(0.07 -0.07)">
      <use xlink:href="#BitstreamVeraSans-Roman-50"/>
      <use x="60.302734375" xlink:href="#BitstreamVeraSans-Roman-4b"/>
      <use x="124.12890625" xlink:href="#BitstreamVeraSans-Roman-41"/>
      <use x="190.787109375" xlink:href="#BitstreamVeraSans-Roman-63"/>
      <use x="245.767578125" xlink:href="#BitstreamVeraSans-Roman-20"/>
      <use x="277.5546875" xlink:href="#BitstreamVeraSans-Roman-65"/>
      <use x="339.078125" xlink:href="#BitstreamVeraSans-Roman-6c"/>
      <use x="366.861328125" xlink:href="#BitstreamVeraSans-Roman-2e"/>
      <use x="398.6484375" xlink:href="#BitstreamVeraSans-Roman-31"/>
     </g>
    </g>
    <g id="line2d_36">
     <path d="
M721.906 94.5183
L731.706 94.5183" style="fill:none;stroke:#0000ff;stroke-linecap:square;"/>
    </g>
    <g id="line2d_37"/>
    <g id="text_19">
     <!-- PKAc el.2 -->
     <g transform="translate(739.40625 96.96828125)scale(0.07 -0.07)">
      <use xlink:href="#BitstreamVeraSans-Roman-50"/>
      <use x="60.302734375" xlink:href="#BitstreamVeraSans-Roman-4b"/>
      <use x="124.12890625" xlink:href="#BitstreamVeraSans-Roman-41"/>
      <use x="190.787109375" xlink:href="#BitstreamVeraSans-Roman-63"/>
      <use x="245.767578125" xlink:href="#BitstreamVeraSans-Roman-20"/>
      <use x="277.5546875" xlink:href="#BitstreamVeraSans-Roman-65"/>
      <use x="339.078125" xlink:href="#BitstreamVeraSans-Roman-6c"/>
      <use x="366.861328125" xlink:href="#BitstreamVeraSans-Roman-2e"/>
      <use x="398.6484375" xlink:href="#BitstreamVeraSans-Roman-32"/>
     </g>
    </g>
   </g>
  </g>
 </g>
 <defs>
  <clipPath id="p7ceb695115">
   <rect height="518.4" width="669.6" x="108.0" y="64.8"/>
  </clipPath>
 </defs>
</svg>
