<?xml version="1.0" encoding="utf-8" standalone="no"?>
<!DOCTYPE svg PUBLIC "-//W3C//DTD SVG 1.1//EN"
  "http://www.w3.org/Graphics/SVG/1.1/DTD/svg11.dtd">
<!-- Created with matplotlib (http://matplotlib.org/) -->
<svg height="648pt" version="1.1" viewBox="0 0 864 648" width="864pt" xmlns="http://www.w3.org/2000/svg" xmlns:xlink="http://www.w3.org/1999/xlink">
 <defs>
  <style type="text/css">
*{stroke-linecap:butt;stroke-linejoin:round;}
  </style>
 </defs>
 <g id="figure_1">
  <g id="patch_1">
   <path d="
M0 648
L864 648
L864 0
L0 0
z
" style="fill:#ffffff;"/>
  </g>
  <g id="axes_1">
   <g id="patch_2">
    <path d="
M108 583.2
L777.6 583.2
L777.6 64.8
L108 64.8
z
" style="fill:#ffffff;"/>
   </g>
   <g id="line2d_1">
    <path clip-path="url(#p7ceb695115)" d="
M108 583.2
L551.275 583.2
L551.945 531.36
L570.024 531.36
L570.694 583.2
L571.363 531.36
L572.702 531.36
L573.372 479.52
L574.042 479.52
L574.711 531.36
L575.381 479.52
L576.72 479.52
L577.39 583.2
L578.059 479.52
L580.068 479.52
L580.738 531.36
L581.407 479.52
L584.755 479.52
L585.425 531.36
L586.094 479.52
L586.764 531.36
L587.434 531.36
L588.103 479.52
L590.782 479.52
L591.451 531.36
L592.121 479.52
L592.79 479.52
L593.46 531.36
L594.13 479.52
L597.478 479.52
L598.147 531.36
L598.817 531.36
L600.156 427.68
L600.826 531.36
L601.495 479.52
L602.165 531.36
L602.834 479.52
L604.174 479.52
L604.843 427.68
L607.522 427.68
L608.191 531.36
L608.861 479.52
L610.2 479.52
L610.87 427.68
L612.209 427.68
L612.878 479.52
L613.548 427.68
L614.218 479.52
L614.887 427.68
L618.235 427.68
L618.905 375.84
L619.574 427.68
L620.244 427.68
L620.914 375.84
L621.583 375.84
L622.253 479.52
L622.922 479.52
L623.592 427.68
L624.262 479.52
L625.601 375.84
L626.27 427.68
L626.94 427.68
L627.61 375.84
L628.279 427.68
L628.949 375.84
L631.627 375.84
L632.297 427.68
L633.636 427.68
L634.306 479.52
L634.975 375.84
L635.645 375.84
L636.314 427.68
L637.654 427.68
L638.323 479.52
L638.993 427.68
L639.662 427.68
L641.002 531.36
L643.01 375.84
L643.68 427.68
L644.35 427.68
L645.019 324
L647.028 479.52
L647.698 375.84
L648.367 375.84
L649.037 324
L649.706 324
L651.715 479.52
L652.385 375.84
L653.054 427.68
L653.724 427.68
L654.394 375.84
L655.063 375.84
L655.733 427.68
L656.402 375.84
L657.072 375.84
L658.411 479.52
L659.75 375.84
L660.42 375.84
L661.09 479.52
L661.759 375.84
L662.429 427.68
L663.098 375.84
L663.768 479.52
L664.438 324
L665.107 272.16
L665.777 375.84
L666.446 324
L667.116 427.68
L668.455 324
L669.125 375.84
L669.794 272.16
L671.134 375.84
L672.473 375.84
L673.142 272.16
L673.812 375.84
L675.151 375.84
L675.821 427.68
L676.49 324
L677.16 375.84
L677.83 220.32
L678.499 324
L679.169 324
L679.838 375.84
L681.178 375.84
L681.847 220.32
L682.517 272.16
L683.186 272.16
L683.856 375.84
L684.526 272.16
L685.195 427.68
L685.865 272.16
L686.534 324
L687.204 220.32
L687.874 324
L688.543 272.16
L689.213 375.84
L689.882 427.68
L690.552 324
L691.222 427.68
L691.891 272.16
L693.23 375.84
L693.9 168.48
L694.57 324
L695.239 375.84
L695.909 220.32
L696.578 272.16
L697.248 272.16
L697.918 427.68
L698.587 220.32
L699.257 272.16
L699.926 168.48
L700.596 324
L701.266 324
L701.935 220.32
L702.605 220.32
L703.274 427.68
L703.944 272.16
L704.614 272.16
L705.283 168.48
L705.953 324
L706.622 427.68
L707.292 324
L707.962 324
L709.301 220.32
L709.97 272.16
L710.64 375.84
L711.31 272.16
L711.979 272.16
L712.649 375.84
L713.988 375.84
L714.658 272.16
L715.327 375.84
L715.997 324
L716.666 220.32
L717.336 272.16
L719.345 272.16
L720.014 324
L720.684 220.32
L721.354 272.16
L722.023 427.68
L722.693 272.16
L723.362 375.84
L724.032 168.48
L724.702 375.84
L726.041 375.84
L726.71 272.16
L727.38 220.32
L728.05 324
L728.719 272.16
L729.389 116.64
L730.058 64.8
L730.728 375.84
L731.398 427.68
L732.067 375.84
L732.737 272.16
L733.406 220.32
L734.076 375.84
L734.746 272.16
L735.415 272.16
L736.085 168.48
L736.754 272.16
L737.424 220.32
L738.094 272.16
L738.763 427.68
L739.433 272.16
L740.102 220.32
L740.772 220.32
L741.442 427.68
L742.111 324
L743.45 220.32
L744.12 324
L744.79 272.16
L745.459 375.84
L746.129 324
L746.798 220.32
L747.468 168.48
L748.138 272.16
L748.807 324
L750.146 324
L751.486 427.68
L752.825 220.32
L753.494 324
L754.164 479.52
L754.834 168.48
L755.503 272.16
L756.173 427.68
L756.842 375.84
L757.512 427.68
L758.182 375.84
L758.851 220.32
L759.521 272.16
L760.19 427.68
L760.86 220.32
L761.53 220.32
L762.199 324
L763.538 427.68
L764.208 427.68
L764.878 375.84
L765.547 427.68
L766.217 324
L767.556 427.68
L768.226 375.84
L768.895 168.48
L769.565 427.68
L770.234 272.16
L770.904 427.68
L771.574 324
L772.243 272.16
L772.913 272.16
L773.582 168.48
L774.252 583.2
L774.922 427.68
L775.591 479.52
L776.261 375.84
L776.93 427.68
L777.6 531.36
L777.6 531.36" style="fill:none;stroke:#ff0000;stroke-linecap:square;"/>
   </g>
   <g id="line2d_2">
    <path clip-path="url(#p7ceb695115)" d="
M108 583.2
L367.805 583.2
L368.474 531.36
L369.144 583.2
L369.814 531.36
L370.483 583.2
L443.47 583.2
L444.139 531.36
L444.809 583.2
L445.478 531.36
L446.148 531.36
L446.818 583.2
L447.487 531.36
L454.853 531.36
L455.522 583.2
L456.192 531.36
L465.566 531.36
L466.236 583.2
L466.906 531.36
L476.95 531.36
L477.619 583.2
L478.289 531.36
L486.994 531.36
L487.663 583.2
L488.333 531.36
L492.35 531.36
L493.02 583.2
L493.69 531.36
L503.064 531.36
L503.734 583.2
L504.403 583.2
L505.073 531.36
L509.09 531.36
L509.76 583.2
L510.43 531.36
L515.117 531.36
L515.786 479.52
L517.126 479.52
L517.795 531.36
L518.465 479.52
L521.143 479.52
L521.813 531.36
L522.482 479.52
L524.491 479.52
L525.161 531.36
L525.83 479.52
L527.839 479.52
L528.509 427.68
L548.597 427.68
L549.266 479.52
L549.936 479.52
L550.606 427.68
L554.623 427.68
L555.293 479.52
L555.962 427.68
L562.658 427.68
L563.328 375.84
L563.998 427.68
L564.667 375.84
L565.337 427.68
L566.006 375.84
L566.676 427.68
L567.346 375.84
L569.354 375.84
L570.024 427.68
L570.694 427.68
L571.363 479.52
L572.702 375.84
L573.372 375.84
L574.042 427.68
L574.711 375.84
L575.381 479.52
L576.05 375.84
L576.72 427.68
L577.39 375.84
L579.398 375.84
L580.068 479.52
L580.738 375.84
L581.407 375.84
L582.077 427.68
L582.746 375.84
L583.416 375.84
L584.086 427.68
L584.755 375.84
L586.764 375.84
L587.434 427.68
L588.103 375.84
L590.782 375.84
L591.451 427.68
L592.121 427.68
L592.79 375.84
L593.46 427.68
L594.13 375.84
L594.799 375.84
L595.469 479.52
L596.138 375.84
L599.486 375.84
L600.156 479.52
L600.826 479.52
L601.495 375.84
L602.165 479.52
L602.834 375.84
L603.504 427.68
L604.174 427.68
L604.843 375.84
L605.513 531.36
L606.182 375.84
L606.852 375.84
L607.522 427.68
L608.861 427.68
L609.53 375.84
L612.878 375.84
L613.548 324
L614.218 375.84
L614.887 479.52
L615.557 375.84
L616.226 375.84
L616.896 427.68
L618.235 324
L618.905 375.84
L619.574 375.84
L620.244 427.68
L620.914 375.84
L623.592 375.84
L624.262 479.52
L624.931 324
L625.601 427.68
L626.27 324
L626.94 324
L627.61 375.84
L628.279 324
L628.949 375.84
L629.618 375.84
L630.288 324
L630.958 427.68
L631.627 479.52
L632.297 479.52
L632.966 375.84
L633.636 324
L634.306 375.84
L634.975 375.84
L636.314 272.16
L636.984 324
L637.654 272.16
L638.323 272.16
L638.993 375.84
L639.662 220.32
L640.332 324
L641.002 324
L641.671 375.84
L642.341 220.32
L644.35 220.32
L645.019 324
L645.689 375.84
L646.358 272.16
L647.028 272.16
L648.367 168.48
L649.037 220.32
L649.706 324
L650.376 220.32
L651.046 168.48
L651.715 168.48
L652.385 375.84
L653.054 272.16
L653.724 375.84
L654.394 272.16
L655.063 272.16
L656.402 168.48
L657.742 168.48
L658.411 324
L659.081 272.16
L659.75 375.84
L660.42 220.32
L661.09 272.16
L663.098 272.16
L663.768 220.32
L664.438 375.84
L665.107 324
L665.777 324
L666.446 220.32
L667.116 220.32
L667.786 272.16
L668.455 375.84
L669.125 168.48
L669.794 324
L670.464 324
L671.134 168.48
L672.473 168.48
L673.142 220.32
L673.812 375.84
L674.482 479.52
L675.151 168.48
L675.821 116.64
L676.49 220.32
L677.16 220.32
L677.83 375.84
L678.499 272.16
L679.169 220.32
L679.838 324
L680.508 220.32
L681.178 220.32
L681.847 168.48
L683.186 168.48
L683.856 324
L684.526 116.64
L685.195 272.16
L685.865 168.48
L686.534 272.16
L687.874 272.16
L689.213 168.48
L691.891 375.84
L692.561 272.16
L693.23 220.32
L694.57 220.32
L695.239 272.16
L695.909 272.16
L696.578 427.68
L697.248 272.16
L697.918 324
L698.587 324
L699.257 168.48
L700.596 272.16
L701.266 272.16
L701.935 168.48
L702.605 324
L703.274 220.32
L704.614 220.32
L705.283 427.68
L706.622 116.64
L707.292 168.48
L708.631 168.48
L709.301 272.16
L709.97 272.16
L710.64 220.32
L711.31 272.16
L711.979 220.32
L713.318 220.32
L713.988 324
L714.658 324
L715.327 272.16
L715.997 324
L717.336 324
L718.006 272.16
L718.675 116.64
L719.345 324
L720.014 375.84
L720.684 168.48
L721.354 324
L722.023 220.32
L722.693 272.16
L723.362 220.32
L724.702 220.32
L725.371 272.16
L726.041 220.32
L726.71 324
L727.38 324
L728.05 168.48
L728.719 324
L729.389 324
L730.058 272.16
L730.728 324
L731.398 272.16
L732.067 324
L732.737 272.16
L733.406 324
L734.076 272.16
L734.746 324
L736.085 324
L736.754 220.32
L737.424 324
L738.094 168.48
L738.763 427.68
L739.433 324
L740.102 375.84
L740.772 324
L741.442 375.84
L742.781 375.84
L743.45 427.68
L744.12 272.16
L744.79 272.16
L745.459 479.52
L746.129 479.52
L746.798 220.32
L747.468 324
L748.138 168.48
L748.807 272.16
L749.477 427.68
L750.146 375.84
L750.816 375.84
L751.486 168.48
L752.155 324
L752.825 324
L753.494 375.84
L754.164 375.84
L754.834 272.16
L755.503 375.84
L756.173 427.68
L756.842 272.16
L758.182 375.84
L758.851 324
L759.521 427.68
L760.19 220.32
L760.86 324
L761.53 324
L762.199 375.84
L762.869 479.52
L763.538 272.16
L764.208 375.84
L764.878 168.48
L765.547 220.32
L766.217 375.84
L766.886 272.16
L767.556 375.84
L768.226 168.48
L768.895 220.32
L769.565 479.52
L770.234 375.84
L770.904 324
L771.574 324
L772.243 272.16
L773.582 375.84
L774.252 220.32
L775.591 427.68
L776.261 324
L776.93 272.16
L777.6 427.68
L777.6 427.68" style="fill:none;stroke:#008000;stroke-linecap:square;"/>
   </g>
   <g id="line2d_3">
    <path clip-path="url(#p7ceb695115)" d="
M108 583.2
L315.576 583.2
L316.246 531.36
L316.915 583.2
L341.69 583.2
L342.36 531.36
L343.03 583.2
L378.518 583.2
L379.188 531.36
L379.858 583.2
L418.694 583.2
L419.364 531.36
L420.034 583.2
L442.8 583.2
L443.47 531.36
L444.139 583.2
L445.478 479.52
L446.148 531.36
L446.818 479.52
L448.826 479.52
L449.496 531.36
L450.166 479.52
L458.201 479.52
L458.87 531.36
L459.54 479.52
L462.218 479.52
L462.888 531.36
L463.558 479.52
L476.28 479.52
L476.95 531.36
L477.619 479.52
L479.628 479.52
L480.298 427.68
L495.698 427.68
L496.368 479.52
L497.038 427.68
L501.055 427.68
L501.725 375.84
L505.742 375.84
L506.412 427.68
L507.082 375.84
L507.751 375.84
L508.421 324
L509.09 324
L509.76 375.84
L510.43 324
L513.778 324
L514.447 375.84
L515.117 375.84
L515.786 324
L516.456 324
L517.126 375.84
L517.795 375.84
L518.465 324
L521.143 324
L521.813 375.84
L522.482 375.84
L523.152 324
L523.822 324
L524.491 375.84
L525.161 375.84
L525.83 324
L526.5 324
L527.17 375.84
L527.839 375.84
L528.509 324
L529.178 324
L529.848 375.84
L530.518 375.84
L531.187 324
L531.857 324
L532.526 375.84
L533.196 375.84
L533.866 324
L534.535 324
L535.205 375.84
L535.874 324
L536.544 324
L537.214 375.84
L537.883 324
L538.553 324
L539.222 427.68
L539.892 324
L540.562 324
L541.231 375.84
L541.901 324
L542.57 324
L543.91 427.68
L544.579 375.84
L546.588 375.84
L547.258 324
L549.266 324
L549.936 375.84
L550.606 324
L551.275 479.52
L551.945 324
L552.614 324
L553.284 375.84
L553.954 324
L556.632 324
L557.302 220.32
L557.971 220.32
L558.641 272.16
L559.31 220.32
L559.98 324
L560.65 272.16
L561.319 324
L561.989 272.16
L562.658 272.16
L563.328 427.68
L563.998 375.84
L564.667 272.16
L566.006 375.84
L567.346 272.16
L568.015 375.84
L568.685 272.16
L569.354 272.16
L570.024 324
L570.694 324
L571.363 272.16
L572.033 324
L572.702 272.16
L574.042 272.16
L574.711 324
L575.381 272.16
L576.05 272.16
L576.72 324
L577.39 272.16
L578.729 272.16
L579.398 324
L580.068 272.16
L582.746 272.16
L583.416 324
L584.755 324
L585.425 272.16
L586.764 272.16
L587.434 324
L588.773 324
L589.442 272.16
L590.112 375.84
L590.782 324
L591.451 220.32
L592.121 220.32
L592.79 272.16
L593.46 220.32
L594.13 324
L595.469 220.32
L596.138 220.32
L596.808 168.48
L597.478 324
L598.147 272.16
L598.817 324
L600.156 220.32
L600.826 324
L601.495 324
L602.165 168.48
L602.834 168.48
L603.504 220.32
L604.174 168.48
L604.843 272.16
L605.513 168.48
L606.182 168.48
L606.852 220.32
L608.861 220.32
L609.53 272.16
L610.2 220.32
L610.87 272.16
L611.539 220.32
L612.878 220.32
L613.548 168.48
L614.218 324
L614.887 272.16
L615.557 324
L616.896 220.32
L617.566 324
L618.235 324
L620.244 168.48
L620.914 220.32
L621.583 220.32
L622.253 272.16
L622.922 220.32
L623.592 324
L624.262 168.48
L624.931 272.16
L625.601 272.16
L626.27 220.32
L626.94 272.16
L627.61 427.68
L628.279 168.48
L628.949 324
L629.618 168.48
L630.288 272.16
L630.958 220.32
L631.627 272.16
L632.966 272.16
L633.636 168.48
L634.306 272.16
L634.975 272.16
L635.645 375.84
L636.314 272.16
L636.984 324
L637.654 220.32
L638.993 220.32
L639.662 168.48
L640.332 324
L641.671 324
L642.341 168.48
L643.01 324
L643.68 168.48
L644.35 324
L645.019 324
L645.689 168.48
L646.358 324
L647.028 272.16
L647.698 116.64
L649.037 220.32
L649.706 168.48
L650.376 168.48
L651.046 272.16
L651.715 324
L652.385 168.48
L653.054 272.16
L653.724 272.16
L654.394 220.32
L655.063 324
L655.733 220.32
L656.402 220.32
L657.072 168.48
L657.742 168.48
L658.411 375.84
L659.081 220.32
L659.75 220.32
L660.42 324
L661.09 220.32
L661.759 220.32
L663.098 324
L664.438 220.32
L666.446 220.32
L667.786 324
L668.455 324
L669.125 220.32
L670.464 220.32
L671.134 168.48
L672.473 272.16
L673.142 272.16
L673.812 324
L674.482 272.16
L676.49 272.16
L677.16 375.84
L677.83 324
L678.499 220.32
L679.838 324
L680.508 272.16
L681.178 324
L681.847 168.48
L682.517 375.84
L683.186 220.32
L683.856 220.32
L684.526 168.48
L685.195 427.68
L685.865 272.16
L686.534 220.32
L687.204 272.16
L687.874 272.16
L688.543 324
L689.213 168.48
L689.882 427.68
L691.222 220.32
L691.891 324
L692.561 272.16
L693.23 168.48
L693.9 220.32
L695.239 220.32
L695.909 272.16
L696.578 375.84
L697.248 168.48
L697.918 220.32
L698.587 324
L699.257 272.16
L699.926 272.16
L700.596 116.64
L701.266 220.32
L701.935 272.16
L702.605 220.32
L703.274 324
L703.944 272.16
L704.614 272.16
L705.283 220.32
L705.953 220.32
L706.622 324
L707.292 220.32
L707.962 220.32
L708.631 324
L709.301 220.32
L709.97 272.16
L710.64 220.32
L711.31 427.68
L711.979 168.48
L712.649 272.16
L713.318 220.32
L713.988 427.68
L714.658 220.32
L715.327 272.16
L715.997 220.32
L716.666 324
L717.336 324
L718.006 427.68
L718.675 272.16
L719.345 272.16
L720.014 324
L720.684 324
L721.354 479.52
L722.023 427.68
L722.693 479.52
L723.362 272.16
L724.032 168.48
L724.702 427.68
L726.041 220.32
L726.71 375.84
L727.38 220.32
L728.719 324
L729.389 272.16
L730.058 479.52
L730.728 324
L731.398 324
L732.067 479.52
L732.737 324
L733.406 220.32
L734.076 427.68
L734.746 272.16
L735.415 272.16
L736.085 375.84
L737.424 272.16
L738.094 479.52
L738.763 220.32
L739.433 375.84
L740.102 220.32
L740.772 375.84
L741.442 375.84
L742.111 427.68
L742.781 324
L743.45 272.16
L744.12 427.68
L745.459 324
L746.129 168.48
L747.468 479.52
L748.138 375.84
L748.807 427.68
L749.477 324
L750.146 375.84
L750.816 375.84
L751.486 272.16
L752.155 427.68
L752.825 272.16
L753.494 324
L754.164 427.68
L754.834 272.16
L755.503 220.32
L756.173 375.84
L757.512 272.16
L758.182 427.68
L759.521 427.68
L760.19 272.16
L760.86 324
L761.53 272.16
L762.199 375.84
L762.869 375.84
L763.538 272.16
L764.208 375.84
L764.878 375.84
L765.547 479.52
L766.217 427.68
L767.556 427.68
L768.226 479.52
L768.895 375.84
L770.904 375.84
L771.574 479.52
L772.243 427.68
L772.913 427.68
L773.582 324
L774.922 531.36
L775.591 324
L776.261 324
L776.93 479.52
L777.6 324
L777.6 324" style="fill:none;stroke:#0000ff;stroke-linecap:square;"/>
   </g>
   <g id="patch_3">
    <path d="
M777.6 583.2
L777.6 64.8" style="fill:none;stroke:#000000;stroke-linecap:square;stroke-linejoin:miter;"/>
   </g>
   <g id="patch_4">
    <path d="
M108 64.8
L777.6 64.8" style="fill:none;stroke:#000000;stroke-linecap:square;stroke-linejoin:miter;"/>
   </g>
   <g id="patch_5">
    <path d="
M108 583.2
L108 64.8" style="fill:none;stroke:#000000;stroke-linecap:square;stroke-linejoin:miter;"/>
   </g>
   <g id="patch_6">
    <path d="
M108 583.2
L777.6 583.2" style="fill:none;stroke:#000000;stroke-linecap:square;stroke-linejoin:miter;"/>
   </g>
   <g id="matplotlib.axis_1">
    <g id="xtick_1">
     <g id="line2d_4">
      <defs>
       <path d="
M0 0
L0 -4" id="mc7db9fdffb" style="stroke:#000000;stroke-width:0.5;"/>
      </defs>
      <g>
       <use style="stroke:#000000;stroke-width:0.5;" x="108.0" xlink:href="#mc7db9fdffb" y="583.2"/>
      </g>
     </g>
     <g id="line2d_5">
      <defs>
       <path d="
M0 0
L0 4" id="m5a7d422ac3" style="stroke:#000000;stroke-width:0.5;"/>
      </defs>
      <g>
       <use style="stroke:#000000;stroke-width:0.5;" x="108.0" xlink:href="#m5a7d422ac3" y="64.8"/>
      </g>
     </g>
     <g id="text_1">
      <!-- 0 -->
      <defs>
       <path d="
M31.7812 66.4062
Q24.1719 66.4062 20.3281 58.9062
Q16.5 51.4219 16.5 36.375
Q16.5 21.3906 20.3281 13.8906
Q24.1719 6.39062 31.7812 6.39062
Q39.4531 6.39062 43.2812 13.8906
Q47.125 21.3906 47.125 36.375
Q47.125 51.4219 43.2812 58.9062
Q39.4531 66.4062 31.7812 66.4062
M31.7812 74.2188
Q44.0469 74.2188 50.5156 64.5156
Q56.9844 54.8281 56.9844 36.375
Q56.9844 17.9688 50.5156 8.26562
Q44.0469 -1.42188 31.7812 -1.42188
Q19.5312 -1.42188 13.0625 8.26562
Q6.59375 17.9688 6.59375 36.375
Q6.59375 54.8281 13.0625 64.5156
Q19.5312 74.2188 31.7812 74.2188" id="BitstreamVeraSans-Roman-30"/>
      </defs>
      <g transform="translate(104.9765625 596.318125)scale(0.12 -0.12)">
       <use xlink:href="#BitstreamVeraSans-Roman-30"/>
      </g>
     </g>
    </g>
    <g id="xtick_2">
     <g id="line2d_6">
      <g>
       <use style="stroke:#000000;stroke-width:0.5;" x="275.4" xlink:href="#mc7db9fdffb" y="583.2"/>
      </g>
     </g>
     <g id="line2d_7">
      <g>
       <use style="stroke:#000000;stroke-width:0.5;" x="275.4" xlink:href="#m5a7d422ac3" y="64.8"/>
      </g>
     </g>
     <g id="text_2">
      <!-- 50000 -->
      <defs>
       <path d="
M10.7969 72.9062
L49.5156 72.9062
L49.5156 64.5938
L19.8281 64.5938
L19.8281 46.7344
Q21.9688 47.4688 24.1094 47.8281
Q26.2656 48.1875 28.4219 48.1875
Q40.625 48.1875 47.75 41.5
Q54.8906 34.8125 54.8906 23.3906
Q54.8906 11.625 47.5625 5.09375
Q40.2344 -1.42188 26.9062 -1.42188
Q22.3125 -1.42188 17.5469 -0.640625
Q12.7969 0.140625 7.71875 1.70312
L7.71875 11.625
Q12.1094 9.23438 16.7969 8.0625
Q21.4844 6.89062 26.7031 6.89062
Q35.1562 6.89062 40.0781 11.3281
Q45.0156 15.7656 45.0156 23.3906
Q45.0156 31 40.0781 35.4375
Q35.1562 39.8906 26.7031 39.8906
Q22.75 39.8906 18.8125 39.0156
Q14.8906 38.1406 10.7969 36.2812
z
" id="BitstreamVeraSans-Roman-35"/>
      </defs>
      <g transform="translate(257.1740625 596.318125)scale(0.12 -0.12)">
       <use xlink:href="#BitstreamVeraSans-Roman-35"/>
       <use x="63.623046875" xlink:href="#BitstreamVeraSans-Roman-30"/>
       <use x="127.24609375" xlink:href="#BitstreamVeraSans-Roman-30"/>
       <use x="190.869140625" xlink:href="#BitstreamVeraSans-Roman-30"/>
       <use x="254.4921875" xlink:href="#BitstreamVeraSans-Roman-30"/>
      </g>
     </g>
    </g>
    <g id="xtick_3">
     <g id="line2d_8">
      <g>
       <use style="stroke:#000000;stroke-width:0.5;" x="442.8" xlink:href="#mc7db9fdffb" y="583.2"/>
      </g>
     </g>
     <g id="line2d_9">
      <g>
       <use style="stroke:#000000;stroke-width:0.5;" x="442.8" xlink:href="#m5a7d422ac3" y="64.8"/>
      </g>
     </g>
     <g id="text_3">
      <!-- 100000 -->
      <defs>
       <path d="
M12.4062 8.29688
L28.5156 8.29688
L28.5156 63.9219
L10.9844 60.4062
L10.9844 69.3906
L28.4219 72.9062
L38.2812 72.9062
L38.2812 8.29688
L54.3906 8.29688
L54.3906 0
L12.4062 0
z
" id="BitstreamVeraSans-Roman-31"/>
      </defs>
      <g transform="translate(420.9525 596.318125)scale(0.12 -0.12)">
       <use xlink:href="#BitstreamVeraSans-Roman-31"/>
       <use x="63.623046875" xlink:href="#BitstreamVeraSans-Roman-30"/>
       <use x="127.24609375" xlink:href="#BitstreamVeraSans-Roman-30"/>
       <use x="190.869140625" xlink:href="#BitstreamVeraSans-Roman-30"/>
       <use x="254.4921875" xlink:href="#BitstreamVeraSans-Roman-30"/>
       <use x="318.115234375" xlink:href="#BitstreamVeraSans-Roman-30"/>
      </g>
     </g>
    </g>
    <g id="xtick_4">
     <g id="line2d_10">
      <g>
       <use style="stroke:#000000;stroke-width:0.5;" x="610.2" xlink:href="#mc7db9fdffb" y="583.2"/>
      </g>
     </g>
     <g id="line2d_11">
      <g>
       <use style="stroke:#000000;stroke-width:0.5;" x="610.2" xlink:href="#m5a7d422ac3" y="64.8"/>
      </g>
     </g>
     <g id="text_4">
      <!-- 150000 -->
      <g transform="translate(588.3525 596.318125)scale(0.12 -0.12)">
       <use xlink:href="#BitstreamVeraSans-Roman-31"/>
       <use x="63.623046875" xlink:href="#BitstreamVeraSans-Roman-35"/>
       <use x="127.24609375" xlink:href="#BitstreamVeraSans-Roman-30"/>
       <use x="190.869140625" xlink:href="#BitstreamVeraSans-Roman-30"/>
       <use x="254.4921875" xlink:href="#BitstreamVeraSans-Roman-30"/>
       <use x="318.115234375" xlink:href="#BitstreamVeraSans-Roman-30"/>
      </g>
     </g>
    </g>
    <g id="xtick_5">
     <g id="line2d_12">
      <g>
       <use style="stroke:#000000;stroke-width:0.5;" x="777.6" xlink:href="#mc7db9fdffb" y="583.2"/>
      </g>
     </g>
     <g id="line2d_13">
      <g>
       <use style="stroke:#000000;stroke-width:0.5;" x="777.6" xlink:href="#m5a7d422ac3" y="64.8"/>
      </g>
     </g>
     <g id="text_5">
      <!-- 200000 -->
      <defs>
       <path d="
M19.1875 8.29688
L53.6094 8.29688
L53.6094 0
L7.32812 0
L7.32812 8.29688
Q12.9375 14.1094 22.625 23.8906
Q32.3281 33.6875 34.8125 36.5312
Q39.5469 41.8438 41.4219 45.5312
Q43.3125 49.2188 43.3125 52.7812
Q43.3125 58.5938 39.2344 62.25
Q35.1562 65.9219 28.6094 65.9219
Q23.9688 65.9219 18.8125 64.3125
Q13.6719 62.7031 7.8125 59.4219
L7.8125 69.3906
Q13.7656 71.7812 18.9375 73
Q24.125 74.2188 28.4219 74.2188
Q39.75 74.2188 46.4844 68.5469
Q53.2188 62.8906 53.2188 53.4219
Q53.2188 48.9219 51.5312 44.8906
Q49.8594 40.875 45.4062 35.4062
Q44.1875 33.9844 37.6406 27.2188
Q31.1094 20.4531 19.1875 8.29688" id="BitstreamVeraSans-Roman-32"/>
      </defs>
      <g transform="translate(755.533125 596.318125)scale(0.12 -0.12)">
       <use xlink:href="#BitstreamVeraSans-Roman-32"/>
       <use x="63.623046875" xlink:href="#BitstreamVeraSans-Roman-30"/>
       <use x="127.24609375" xlink:href="#BitstreamVeraSans-Roman-30"/>
       <use x="190.869140625" xlink:href="#BitstreamVeraSans-Roman-30"/>
       <use x="254.4921875" xlink:href="#BitstreamVeraSans-Roman-30"/>
       <use x="318.115234375" xlink:href="#BitstreamVeraSans-Roman-30"/>
      </g>
     </g>
    </g>
    <g id="text_6">
     <!-- t / ms -->
     <defs>
      <path d="
M18.3125 70.2188
L18.3125 54.6875
L36.8125 54.6875
L36.8125 47.7031
L18.3125 47.7031
L18.3125 18.0156
Q18.3125 11.3281 20.1406 9.42188
Q21.9688 7.51562 27.5938 7.51562
L36.8125 7.51562
L36.8125 0
L27.5938 0
Q17.1875 0 13.2344 3.875
Q9.28125 7.76562 9.28125 18.0156
L9.28125 47.7031
L2.6875 47.7031
L2.6875 54.6875
L9.28125 54.6875
L9.28125 70.2188
z
" id="BitstreamVeraSans-Roman-74"/>
      <path d="
M52 44.1875
Q55.375 50.25 60.0625 53.125
Q64.75 56 71.0938 56
Q79.6406 56 84.2812 50.0156
Q88.9219 44.0469 88.9219 33.0156
L88.9219 0
L79.8906 0
L79.8906 32.7188
Q79.8906 40.5781 77.0938 44.375
Q74.3125 48.1875 68.6094 48.1875
Q61.625 48.1875 57.5625 43.5469
Q53.5156 38.9219 53.5156 30.9062
L53.5156 0
L44.4844 0
L44.4844 32.7188
Q44.4844 40.625 41.7031 44.4062
Q38.9219 48.1875 33.1094 48.1875
Q26.2188 48.1875 22.1562 43.5312
Q18.1094 38.875 18.1094 30.9062
L18.1094 0
L9.07812 0
L9.07812 54.6875
L18.1094 54.6875
L18.1094 46.1875
Q21.1875 51.2188 25.4844 53.6094
Q29.7812 56 35.6875 56
Q41.6562 56 45.8281 52.9688
Q50 49.9531 52 44.1875" id="BitstreamVeraSans-Roman-6d"/>
      <path id="BitstreamVeraSans-Roman-20"/>
      <path d="
M25.3906 72.9062
L33.6875 72.9062
L8.29688 -9.28125
L0 -9.28125
z
" id="BitstreamVeraSans-Roman-2f"/>
      <path d="
M44.2812 53.0781
L44.2812 44.5781
Q40.4844 46.5312 36.375 47.5
Q32.2812 48.4844 27.875 48.4844
Q21.1875 48.4844 17.8438 46.4375
Q14.5 44.3906 14.5 40.2812
Q14.5 37.1562 16.8906 35.375
Q19.2812 33.5938 26.5156 31.9844
L29.5938 31.2969
Q39.1562 29.25 43.1875 25.5156
Q47.2188 21.7812 47.2188 15.0938
Q47.2188 7.46875 41.1875 3.01562
Q35.1562 -1.42188 24.6094 -1.42188
Q20.2188 -1.42188 15.4531 -0.5625
Q10.6875 0.296875 5.42188 2
L5.42188 11.2812
Q10.4062 8.6875 15.2344 7.39062
Q20.0625 6.10938 24.8125 6.10938
Q31.1562 6.10938 34.5625 8.28125
Q37.9844 10.4531 37.9844 14.4062
Q37.9844 18.0625 35.5156 20.0156
Q33.0625 21.9688 24.7031 23.7812
L21.5781 24.5156
Q13.2344 26.2656 9.51562 29.9062
Q5.8125 33.5469 5.8125 39.8906
Q5.8125 47.6094 11.2812 51.7969
Q16.75 56 26.8125 56
Q31.7812 56 36.1719 55.2656
Q40.5781 54.5469 44.2812 53.0781" id="BitstreamVeraSans-Roman-73"/>
     </defs>
     <g transform="translate(425.9353125 612.931875)scale(0.12 -0.12)">
      <use xlink:href="#BitstreamVeraSans-Roman-74"/>
      <use x="39.208984375" xlink:href="#BitstreamVeraSans-Roman-20"/>
      <use x="70.99609375" xlink:href="#BitstreamVeraSans-Roman-2f"/>
      <use x="104.6875" xlink:href="#BitstreamVeraSans-Roman-20"/>
      <use x="136.474609375" xlink:href="#BitstreamVeraSans-Roman-6d"/>
      <use x="233.88671875" xlink:href="#BitstreamVeraSans-Roman-73"/>
     </g>
    </g>
   </g>
   <g id="matplotlib.axis_2">
    <g id="ytick_1">
     <g id="line2d_14">
      <defs>
       <path d="
M0 0
L4 0" id="md7965d1ba0" style="stroke:#000000;stroke-width:0.5;"/>
      </defs>
      <g>
       <use style="stroke:#000000;stroke-width:0.5;" x="108.0" xlink:href="#md7965d1ba0" y="583.2"/>
      </g>
     </g>
     <g id="line2d_15">
      <defs>
       <path d="
M0 0
L-4 0" id="md9a1c1a7cd" style="stroke:#000000;stroke-width:0.5;"/>
      </defs>
      <g>
       <use style="stroke:#000000;stroke-width:0.5;" x="777.6" xlink:href="#md9a1c1a7cd" y="583.2"/>
      </g>
     </g>
     <g id="text_7">
      <!-- 0 -->
      <g transform="translate(97.953125 586.51125)scale(0.12 -0.12)">
       <use xlink:href="#BitstreamVeraSans-Roman-30"/>
      </g>
     </g>
    </g>
    <g id="ytick_2">
     <g id="line2d_16">
      <g>
       <use style="stroke:#000000;stroke-width:0.5;" x="108.0" xlink:href="#md7965d1ba0" y="479.52"/>
      </g>
     </g>
     <g id="line2d_17">
      <g>
       <use style="stroke:#000000;stroke-width:0.5;" x="777.6" xlink:href="#md9a1c1a7cd" y="479.52"/>
      </g>
     </g>
     <g id="text_8">
      <!-- 2 -->
      <g transform="translate(98.44625 482.83125)scale(0.12 -0.12)">
       <use xlink:href="#BitstreamVeraSans-Roman-32"/>
      </g>
     </g>
    </g>
    <g id="ytick_3">
     <g id="line2d_18">
      <g>
       <use style="stroke:#000000;stroke-width:0.5;" x="108.0" xlink:href="#md7965d1ba0" y="375.84"/>
      </g>
     </g>
     <g id="line2d_19">
      <g>
       <use style="stroke:#000000;stroke-width:0.5;" x="777.6" xlink:href="#md9a1c1a7cd" y="375.84"/>
      </g>
     </g>
     <g id="text_9">
      <!-- 4 -->
      <defs>
       <path d="
M37.7969 64.3125
L12.8906 25.3906
L37.7969 25.3906
z

M35.2031 72.9062
L47.6094 72.9062
L47.6094 25.3906
L58.0156 25.3906
L58.0156 17.1875
L47.6094 17.1875
L47.6094 0
L37.7969 0
L37.7969 17.1875
L4.89062 17.1875
L4.89062 26.7031
z
" id="BitstreamVeraSans-Roman-34"/>
      </defs>
      <g transform="translate(97.625 379.15125)scale(0.12 -0.12)">
       <use xlink:href="#BitstreamVeraSans-Roman-34"/>
      </g>
     </g>
    </g>
    <g id="ytick_4">
     <g id="line2d_20">
      <g>
       <use style="stroke:#000000;stroke-width:0.5;" x="108.0" xlink:href="#md7965d1ba0" y="272.16"/>
      </g>
     </g>
     <g id="line2d_21">
      <g>
       <use style="stroke:#000000;stroke-width:0.5;" x="777.6" xlink:href="#md9a1c1a7cd" y="272.16"/>
      </g>
     </g>
     <g id="text_10">
      <!-- 6 -->
      <defs>
       <path d="
M33.0156 40.375
Q26.375 40.375 22.4844 35.8281
Q18.6094 31.2969 18.6094 23.3906
Q18.6094 15.5312 22.4844 10.9531
Q26.375 6.39062 33.0156 6.39062
Q39.6562 6.39062 43.5312 10.9531
Q47.4062 15.5312 47.4062 23.3906
Q47.4062 31.2969 43.5312 35.8281
Q39.6562 40.375 33.0156 40.375
M52.5938 71.2969
L52.5938 62.3125
Q48.875 64.0625 45.0938 64.9844
Q41.3125 65.9219 37.5938 65.9219
Q27.8281 65.9219 22.6719 59.3281
Q17.5312 52.7344 16.7969 39.4062
Q19.6719 43.6562 24.0156 45.9219
Q28.375 48.1875 33.5938 48.1875
Q44.5781 48.1875 50.9531 41.5156
Q57.3281 34.8594 57.3281 23.3906
Q57.3281 12.1562 50.6875 5.35938
Q44.0469 -1.42188 33.0156 -1.42188
Q20.3594 -1.42188 13.6719 8.26562
Q6.98438 17.9688 6.98438 36.375
Q6.98438 53.6562 15.1875 63.9375
Q23.3906 74.2188 37.2031 74.2188
Q40.9219 74.2188 44.7031 73.4844
Q48.4844 72.75 52.5938 71.2969" id="BitstreamVeraSans-Roman-36"/>
      </defs>
      <g transform="translate(97.95875 275.47125)scale(0.12 -0.12)">
       <use xlink:href="#BitstreamVeraSans-Roman-36"/>
      </g>
     </g>
    </g>
    <g id="ytick_5">
     <g id="line2d_22">
      <g>
       <use style="stroke:#000000;stroke-width:0.5;" x="108.0" xlink:href="#md7965d1ba0" y="168.48"/>
      </g>
     </g>
     <g id="line2d_23">
      <g>
       <use style="stroke:#000000;stroke-width:0.5;" x="777.6" xlink:href="#md9a1c1a7cd" y="168.48"/>
      </g>
     </g>
     <g id="text_11">
      <!-- 8 -->
      <defs>
       <path d="
M31.7812 34.625
Q24.75 34.625 20.7188 30.8594
Q16.7031 27.0938 16.7031 20.5156
Q16.7031 13.9219 20.7188 10.1562
Q24.75 6.39062 31.7812 6.39062
Q38.8125 6.39062 42.8594 10.1719
Q46.9219 13.9688 46.9219 20.5156
Q46.9219 27.0938 42.8906 30.8594
Q38.875 34.625 31.7812 34.625
M21.9219 38.8125
Q15.5781 40.375 12.0312 44.7188
Q8.5 49.0781 8.5 55.3281
Q8.5 64.0625 14.7188 69.1406
Q20.9531 74.2188 31.7812 74.2188
Q42.6719 74.2188 48.875 69.1406
Q55.0781 64.0625 55.0781 55.3281
Q55.0781 49.0781 51.5312 44.7188
Q48 40.375 41.7031 38.8125
Q48.8281 37.1562 52.7969 32.3125
Q56.7812 27.4844 56.7812 20.5156
Q56.7812 9.90625 50.3125 4.23438
Q43.8438 -1.42188 31.7812 -1.42188
Q19.7344 -1.42188 13.25 4.23438
Q6.78125 9.90625 6.78125 20.5156
Q6.78125 27.4844 10.7812 32.3125
Q14.7969 37.1562 21.9219 38.8125
M18.3125 54.3906
Q18.3125 48.7344 21.8438 45.5625
Q25.3906 42.3906 31.7812 42.3906
Q38.1406 42.3906 41.7188 45.5625
Q45.3125 48.7344 45.3125 54.3906
Q45.3125 60.0625 41.7188 63.2344
Q38.1406 66.4062 31.7812 66.4062
Q25.3906 66.4062 21.8438 63.2344
Q18.3125 60.0625 18.3125 54.3906" id="BitstreamVeraSans-Roman-38"/>
      </defs>
      <g transform="translate(98.0 171.79125)scale(0.12 -0.12)">
       <use xlink:href="#BitstreamVeraSans-Roman-38"/>
      </g>
     </g>
    </g>
    <g id="ytick_6">
     <g id="line2d_24">
      <g>
       <use style="stroke:#000000;stroke-width:0.5;" x="108.0" xlink:href="#md7965d1ba0" y="64.8"/>
      </g>
     </g>
     <g id="line2d_25">
      <g>
       <use style="stroke:#000000;stroke-width:0.5;" x="777.6" xlink:href="#md9a1c1a7cd" y="64.8"/>
      </g>
     </g>
     <g id="text_12">
      <!-- 10 -->
      <g transform="translate(90.845 68.11125)scale(0.12 -0.12)">
       <use xlink:href="#BitstreamVeraSans-Roman-31"/>
       <use x="63.623046875" xlink:href="#BitstreamVeraSans-Roman-30"/>
      </g>
     </g>
    </g>
    <g id="text_13">
     <!-- particle numbers -->
     <defs>
      <path d="
M41.1094 46.2969
Q39.5938 47.1719 37.8125 47.5781
Q36.0312 48 33.8906 48
Q26.2656 48 22.1875 43.0469
Q18.1094 38.0938 18.1094 28.8125
L18.1094 0
L9.07812 0
L9.07812 54.6875
L18.1094 54.6875
L18.1094 46.1875
Q20.9531 51.1719 25.4844 53.5781
Q30.0312 56 36.5312 56
Q37.4531 56 38.5781 55.875
Q39.7031 55.7656 41.0625 55.5156
z
" id="BitstreamVeraSans-Roman-72"/>
      <path d="
M48.6875 27.2969
Q48.6875 37.2031 44.6094 42.8438
Q40.5312 48.4844 33.4062 48.4844
Q26.2656 48.4844 22.1875 42.8438
Q18.1094 37.2031 18.1094 27.2969
Q18.1094 17.3906 22.1875 11.75
Q26.2656 6.10938 33.4062 6.10938
Q40.5312 6.10938 44.6094 11.75
Q48.6875 17.3906 48.6875 27.2969
M18.1094 46.3906
Q20.9531 51.2656 25.2656 53.625
Q29.5938 56 35.5938 56
Q45.5625 56 51.7812 48.0938
Q58.0156 40.1875 58.0156 27.2969
Q58.0156 14.4062 51.7812 6.48438
Q45.5625 -1.42188 35.5938 -1.42188
Q29.5938 -1.42188 25.2656 0.953125
Q20.9531 3.32812 18.1094 8.20312
L18.1094 0
L9.07812 0
L9.07812 75.9844
L18.1094 75.9844
z
" id="BitstreamVeraSans-Roman-62"/>
      <path d="
M34.2812 27.4844
Q23.3906 27.4844 19.1875 25
Q14.9844 22.5156 14.9844 16.5
Q14.9844 11.7188 18.1406 8.90625
Q21.2969 6.10938 26.7031 6.10938
Q34.1875 6.10938 38.7031 11.4062
Q43.2188 16.7031 43.2188 25.4844
L43.2188 27.4844
z

M52.2031 31.2031
L52.2031 0
L43.2188 0
L43.2188 8.29688
Q40.1406 3.32812 35.5469 0.953125
Q30.9531 -1.42188 24.3125 -1.42188
Q15.9219 -1.42188 10.9531 3.29688
Q6 8.01562 6 15.9219
Q6 25.1406 12.1719 29.8281
Q18.3594 34.5156 30.6094 34.5156
L43.2188 34.5156
L43.2188 35.4062
Q43.2188 41.6094 39.1406 45
Q35.0625 48.3906 27.6875 48.3906
Q23 48.3906 18.5469 47.2656
Q14.1094 46.1406 10.0156 43.8906
L10.0156 52.2031
Q14.9375 54.1094 19.5781 55.0469
Q24.2188 56 28.6094 56
Q40.4844 56 46.3438 49.8438
Q52.2031 43.7031 52.2031 31.2031" id="BitstreamVeraSans-Roman-61"/>
      <path d="
M56.2031 29.5938
L56.2031 25.2031
L14.8906 25.2031
Q15.4844 15.9219 20.4844 11.0625
Q25.4844 6.20312 34.4219 6.20312
Q39.5938 6.20312 44.4531 7.46875
Q49.3125 8.73438 54.1094 11.2812
L54.1094 2.78125
Q49.2656 0.734375 44.1875 -0.34375
Q39.1094 -1.42188 33.8906 -1.42188
Q20.7969 -1.42188 13.1562 6.1875
Q5.51562 13.8125 5.51562 26.8125
Q5.51562 40.2344 12.7656 48.1094
Q20.0156 56 32.3281 56
Q43.3594 56 49.7812 48.8906
Q56.2031 41.7969 56.2031 29.5938
M47.2188 32.2344
Q47.125 39.5938 43.0938 43.9844
Q39.0625 48.3906 32.4219 48.3906
Q24.9062 48.3906 20.3906 44.1406
Q15.875 39.8906 15.1875 32.1719
z
" id="BitstreamVeraSans-Roman-65"/>
      <path d="
M18.1094 8.20312
L18.1094 -20.7969
L9.07812 -20.7969
L9.07812 54.6875
L18.1094 54.6875
L18.1094 46.3906
Q20.9531 51.2656 25.2656 53.625
Q29.5938 56 35.5938 56
Q45.5625 56 51.7812 48.0938
Q58.0156 40.1875 58.0156 27.2969
Q58.0156 14.4062 51.7812 6.48438
Q45.5625 -1.42188 35.5938 -1.42188
Q29.5938 -1.42188 25.2656 0.953125
Q20.9531 3.32812 18.1094 8.20312
M48.6875 27.2969
Q48.6875 37.2031 44.6094 42.8438
Q40.5312 48.4844 33.4062 48.4844
Q26.2656 48.4844 22.1875 42.8438
Q18.1094 37.2031 18.1094 27.2969
Q18.1094 17.3906 22.1875 11.75
Q26.2656 6.10938 33.4062 6.10938
Q40.5312 6.10938 44.6094 11.75
Q48.6875 17.3906 48.6875 27.2969" id="BitstreamVeraSans-Roman-70"/>
      <path d="
M8.5 21.5781
L8.5 54.6875
L17.4844 54.6875
L17.4844 21.9219
Q17.4844 14.1562 20.5 10.2656
Q23.5312 6.39062 29.5938 6.39062
Q36.8594 6.39062 41.0781 11.0312
Q45.3125 15.6719 45.3125 23.6875
L45.3125 54.6875
L54.2969 54.6875
L54.2969 0
L45.3125 0
L45.3125 8.40625
Q42.0469 3.42188 37.7188 1
Q33.4062 -1.42188 27.6875 -1.42188
Q18.2656 -1.42188 13.375 4.4375
Q8.5 10.2969 8.5 21.5781" id="BitstreamVeraSans-Roman-75"/>
      <path d="
M9.42188 54.6875
L18.4062 54.6875
L18.4062 0
L9.42188 0
z

M9.42188 75.9844
L18.4062 75.9844
L18.4062 64.5938
L9.42188 64.5938
z
" id="BitstreamVeraSans-Roman-69"/>
      <path d="
M9.42188 75.9844
L18.4062 75.9844
L18.4062 0
L9.42188 0
z
" id="BitstreamVeraSans-Roman-6c"/>
      <path d="
M48.7812 52.5938
L48.7812 44.1875
Q44.9688 46.2969 41.1406 47.3438
Q37.3125 48.3906 33.4062 48.3906
Q24.6562 48.3906 19.8125 42.8438
Q14.9844 37.3125 14.9844 27.2969
Q14.9844 17.2812 19.8125 11.7344
Q24.6562 6.20312 33.4062 6.20312
Q37.3125 6.20312 41.1406 7.25
Q44.9688 8.29688 48.7812 10.4062
L48.7812 2.09375
Q45.0156 0.34375 40.9844 -0.53125
Q36.9688 -1.42188 32.4219 -1.42188
Q20.0625 -1.42188 12.7812 6.34375
Q5.51562 14.1094 5.51562 27.2969
Q5.51562 40.6719 12.8594 48.3281
Q20.2188 56 33.0156 56
Q37.1562 56 41.1094 55.1406
Q45.0625 54.2969 48.7812 52.5938" id="BitstreamVeraSans-Roman-63"/>
      <path d="
M54.8906 33.0156
L54.8906 0
L45.9062 0
L45.9062 32.7188
Q45.9062 40.4844 42.875 44.3281
Q39.8438 48.1875 33.7969 48.1875
Q26.5156 48.1875 22.3125 43.5469
Q18.1094 38.9219 18.1094 30.9062
L18.1094 0
L9.07812 0
L9.07812 54.6875
L18.1094 54.6875
L18.1094 46.1875
Q21.3438 51.125 25.7031 53.5625
Q30.0781 56 35.7969 56
Q45.2188 56 50.0469 50.1719
Q54.8906 44.3438 54.8906 33.0156" id="BitstreamVeraSans-Roman-6e"/>
     </defs>
     <g transform="translate(83.349375 374.78625)rotate(-90.0)scale(0.12 -0.12)">
      <use xlink:href="#BitstreamVeraSans-Roman-70"/>
      <use x="63.4765625" xlink:href="#BitstreamVeraSans-Roman-61"/>
      <use x="124.755859375" xlink:href="#BitstreamVeraSans-Roman-72"/>
      <use x="165.869140625" xlink:href="#BitstreamVeraSans-Roman-74"/>
      <use x="205.078125" xlink:href="#BitstreamVeraSans-Roman-69"/>
      <use x="232.861328125" xlink:href="#BitstreamVeraSans-Roman-63"/>
      <use x="287.841796875" xlink:href="#BitstreamVeraSans-Roman-6c"/>
      <use x="315.625" xlink:href="#BitstreamVeraSans-Roman-65"/>
      <use x="377.1484375" xlink:href="#BitstreamVeraSans-Roman-20"/>
      <use x="408.935546875" xlink:href="#BitstreamVeraSans-Roman-6e"/>
      <use x="472.314453125" xlink:href="#BitstreamVeraSans-Roman-75"/>
      <use x="535.693359375" xlink:href="#BitstreamVeraSans-Roman-6d"/>
      <use x="633.10546875" xlink:href="#BitstreamVeraSans-Roman-62"/>
      <use x="696.58203125" xlink:href="#BitstreamVeraSans-Roman-65"/>
      <use x="758.10546875" xlink:href="#BitstreamVeraSans-Roman-72"/>
      <use x="799.21875" xlink:href="#BitstreamVeraSans-Roman-73"/>
     </g>
    </g>
   </g>
   <g id="legend_1">
    <g id="patch_7">
     <path d="
M111.5 101.224
L197.673 101.224
L197.673 68.3
L111.5 68.3
z
" style="fill:#ffffff;stroke:#000000;stroke-linejoin:miter;"/>
    </g>
    <g id="line2d_26">
     <path d="
M116.4 73.9689
L126.2 73.9689" style="fill:none;stroke:#ff0000;stroke-linecap:square;"/>
    </g>
    <g id="line2d_27"/>
    <g id="text_14">
     <!-- pPDE10cAMP el.0 -->
     <defs>
      <path d="
M19.6719 64.7969
L19.6719 8.10938
L31.5938 8.10938
Q46.6875 8.10938 53.6875 14.9375
Q60.6875 21.7812 60.6875 36.5312
Q60.6875 51.1719 53.6875 57.9844
Q46.6875 64.7969 31.5938 64.7969
z

M9.8125 72.9062
L30.0781 72.9062
Q51.2656 72.9062 61.1719 64.0938
Q71.0938 55.2812 71.0938 36.5312
Q71.0938 17.6719 61.125 8.82812
Q51.1719 0 30.0781 0
L9.8125 0
z
" id="BitstreamVeraSans-Roman-44"/>
      <path d="
M34.1875 63.1875
L20.7969 26.9062
L47.6094 26.9062
z

M28.6094 72.9062
L39.7969 72.9062
L67.5781 0
L57.3281 0
L50.6875 18.7031
L17.8281 18.7031
L11.1875 0
L0.78125 0
z
" id="BitstreamVeraSans-Roman-41"/>
      <path d="
M10.6875 12.4062
L21 12.4062
L21 0
L10.6875 0
z
" id="BitstreamVeraSans-Roman-2e"/>
      <path d="
M9.8125 72.9062
L55.9062 72.9062
L55.9062 64.5938
L19.6719 64.5938
L19.6719 43.0156
L54.3906 43.0156
L54.3906 34.7188
L19.6719 34.7188
L19.6719 8.29688
L56.7812 8.29688
L56.7812 0
L9.8125 0
z
" id="BitstreamVeraSans-Roman-45"/>
      <path d="
M9.8125 72.9062
L24.5156 72.9062
L43.1094 23.2969
L61.8125 72.9062
L76.5156 72.9062
L76.5156 0
L66.8906 0
L66.8906 64.0156
L48.0938 14.0156
L38.1875 14.0156
L19.3906 64.0156
L19.3906 0
L9.8125 0
z
" id="BitstreamVeraSans-Roman-4d"/>
      <path d="
M19.6719 64.7969
L19.6719 37.4062
L32.0781 37.4062
Q38.9688 37.4062 42.7188 40.9688
Q46.4844 44.5312 46.4844 51.125
Q46.4844 57.6719 42.7188 61.2344
Q38.9688 64.7969 32.0781 64.7969
z

M9.8125 72.9062
L32.0781 72.9062
Q44.3438 72.9062 50.6094 67.3594
Q56.8906 61.8125 56.8906 51.125
Q56.8906 40.3281 50.6094 34.8125
Q44.3438 29.2969 32.0781 29.2969
L19.6719 29.2969
L19.6719 0
L9.8125 0
z
" id="BitstreamVeraSans-Roman-50"/>
     </defs>
     <g transform="translate(133.9 76.41890625)scale(0.07 -0.07)">
      <use xlink:href="#BitstreamVeraSans-Roman-70"/>
      <use x="63.4765625" xlink:href="#BitstreamVeraSans-Roman-50"/>
      <use x="123.779296875" xlink:href="#BitstreamVeraSans-Roman-44"/>
      <use x="200.78125" xlink:href="#BitstreamVeraSans-Roman-45"/>
      <use x="263.96484375" xlink:href="#BitstreamVeraSans-Roman-31"/>
      <use x="327.587890625" xlink:href="#BitstreamVeraSans-Roman-30"/>
      <use x="391.2109375" xlink:href="#BitstreamVeraSans-Roman-63"/>
      <use x="446.19140625" xlink:href="#BitstreamVeraSans-Roman-41"/>
      <use x="514.599609375" xlink:href="#BitstreamVeraSans-Roman-4d"/>
      <use x="600.87890625" xlink:href="#BitstreamVeraSans-Roman-50"/>
      <use x="661.181640625" xlink:href="#BitstreamVeraSans-Roman-20"/>
      <use x="692.96875" xlink:href="#BitstreamVeraSans-Roman-65"/>
      <use x="754.4921875" xlink:href="#BitstreamVeraSans-Roman-6c"/>
      <use x="782.275390625" xlink:href="#BitstreamVeraSans-Roman-2e"/>
      <use x="814.0625" xlink:href="#BitstreamVeraSans-Roman-30"/>
     </g>
    </g>
    <g id="line2d_28">
     <path d="
M116.4 84.2436
L126.2 84.2436" style="fill:none;stroke:#008000;stroke-linecap:square;"/>
    </g>
    <g id="line2d_29"/>
    <g id="text_15">
     <!-- pPDE10cAMP el.1 -->
     <g transform="translate(133.9 86.69359375)scale(0.07 -0.07)">
      <use xlink:href="#BitstreamVeraSans-Roman-70"/>
      <use x="63.4765625" xlink:href="#BitstreamVeraSans-Roman-50"/>
      <use x="123.779296875" xlink:href="#BitstreamVeraSans-Roman-44"/>
      <use x="200.78125" xlink:href="#BitstreamVeraSans-Roman-45"/>
      <use x="263.96484375" xlink:href="#BitstreamVeraSans-Roman-31"/>
      <use x="327.587890625" xlink:href="#BitstreamVeraSans-Roman-30"/>
      <use x="391.2109375" xlink:href="#BitstreamVeraSans-Roman-63"/>
      <use x="446.19140625" xlink:href="#BitstreamVeraSans-Roman-41"/>
      <use x="514.599609375" xlink:href="#BitstreamVeraSans-Roman-4d"/>
      <use x="600.87890625" xlink:href="#BitstreamVeraSans-Roman-50"/>
      <use x="661.181640625" xlink:href="#BitstreamVeraSans-Roman-20"/>
      <use x="692.96875" xlink:href="#BitstreamVeraSans-Roman-65"/>
      <use x="754.4921875" xlink:href="#BitstreamVeraSans-Roman-6c"/>
      <use x="782.275390625" xlink:href="#BitstreamVeraSans-Roman-2e"/>
      <use x="814.0625" xlink:href="#BitstreamVeraSans-Roman-31"/>
     </g>
    </g>
    <g id="line2d_30">
     <path d="
M116.4 94.5183
L126.2 94.5183" style="fill:none;stroke:#0000ff;stroke-linecap:square;"/>
    </g>
    <g id="line2d_31"/>
    <g id="text_16">
     <!-- pPDE10cAMP el.2 -->
     <g transform="translate(133.9 96.96828125)scale(0.07 -0.07)">
      <use xlink:href="#BitstreamVeraSans-Roman-70"/>
      <use x="63.4765625" xlink:href="#BitstreamVeraSans-Roman-50"/>
      <use x="123.779296875" xlink:href="#BitstreamVeraSans-Roman-44"/>
      <use x="200.78125" xlink:href="#BitstreamVeraSans-Roman-45"/>
      <use x="263.96484375" xlink:href="#BitstreamVeraSans-Roman-31"/>
      <use x="327.587890625" xlink:href="#BitstreamVeraSans-Roman-30"/>
      <use x="391.2109375" xlink:href="#BitstreamVeraSans-Roman-63"/>
      <use x="446.19140625" xlink:href="#BitstreamVeraSans-Roman-41"/>
      <use x="514.599609375" xlink:href="#BitstreamVeraSans-Roman-4d"/>
      <use x="600.87890625" xlink:href="#BitstreamVeraSans-Roman-50"/>
      <use x="661.181640625" xlink:href="#BitstreamVeraSans-Roman-20"/>
      <use x="692.96875" xlink:href="#BitstreamVeraSans-Roman-65"/>
      <use x="754.4921875" xlink:href="#BitstreamVeraSans-Roman-6c"/>
      <use x="782.275390625" xlink:href="#BitstreamVeraSans-Roman-2e"/>
      <use x="814.0625" xlink:href="#BitstreamVeraSans-Roman-32"/>
     </g>
    </g>
   </g>
  </g>
 </g>
 <defs>
  <clipPath id="p7ceb695115">
   <rect height="518.4" width="669.6" x="108.0" y="64.8"/>
  </clipPath>
 </defs>
</svg>
