<?xml version="1.0" encoding="utf-8" standalone="no"?>
<!DOCTYPE svg PUBLIC "-//W3C//DTD SVG 1.1//EN"
  "http://www.w3.org/Graphics/SVG/1.1/DTD/svg11.dtd">
<!-- Created with matplotlib (http://matplotlib.org/) -->
<svg height="648pt" version="1.1" viewBox="0 0 864 648" width="864pt" xmlns="http://www.w3.org/2000/svg" xmlns:xlink="http://www.w3.org/1999/xlink">
 <defs>
  <style type="text/css">
*{stroke-linecap:butt;stroke-linejoin:round;}
  </style>
 </defs>
 <g id="figure_1">
  <g id="patch_1">
   <path d="
M0 648
L864 648
L864 0
L0 0
z
" style="fill:#ffffff;"/>
  </g>
  <g id="axes_1">
   <g id="patch_2">
    <path d="
M108 583.2
L777.6 583.2
L777.6 64.8
L108 64.8
z
" style="fill:#ffffff;"/>
   </g>
   <g id="line2d_1">
    <path clip-path="url(#p7ceb695115)" d="
M108 583.2
L298.836 583.2
L299.506 479.52
L305.532 479.52
L306.202 583.2
L306.871 479.52
L314.237 479.52
L314.906 583.2
L315.576 479.52
L329.638 479.52
L330.307 583.2
L330.977 583.2
L331.646 479.52
L337.673 479.52
L338.342 583.2
L339.012 479.52
L343.03 479.52
L343.699 583.2
L344.369 479.52
L345.708 479.52
L346.378 583.2
L347.047 479.52
L351.734 479.52
L352.404 583.2
L353.074 479.52
L359.1 479.52
L359.77 583.2
L360.439 479.52
L363.118 479.52
L363.787 583.2
L364.457 479.52
L365.126 479.52
L365.796 583.2
L366.466 479.52
L371.153 479.52
L371.822 583.2
L372.492 479.52
L373.831 479.52
L374.501 583.2
L375.17 479.52
L381.197 479.52
L381.866 583.2
L382.536 479.52
L389.232 479.52
L389.902 583.2
L535.874 583.2
L536.544 479.52
L537.214 583.2
L538.553 583.2
L539.222 479.52
L539.892 583.2
L543.91 583.2
L544.579 479.52
L545.249 583.2
L549.266 583.2
L549.936 479.52
L550.606 583.2
L551.275 479.52
L551.945 583.2
L561.319 583.2
L561.989 479.52
L562.658 583.2
L568.015 583.2
L568.685 479.52
L569.354 583.2
L577.39 583.2
L578.059 479.52
L578.729 583.2
L579.398 583.2
L580.068 479.52
L580.738 583.2
L592.79 583.2
L593.46 375.84
L594.13 583.2
L594.799 479.52
L595.469 479.52
L596.138 583.2
L596.808 479.52
L597.478 583.2
L601.495 583.2
L602.165 479.52
L602.834 583.2
L603.504 583.2
L604.174 479.52
L604.843 479.52
L605.513 583.2
L606.852 583.2
L607.522 479.52
L608.191 479.52
L608.861 583.2
L609.53 583.2
L610.2 479.52
L610.87 479.52
L611.539 583.2
L612.209 479.52
L612.878 583.2
L614.218 583.2
L614.887 375.84
L615.557 583.2
L617.566 583.2
L618.235 479.52
L618.905 479.52
L619.574 583.2
L622.922 583.2
L624.262 375.84
L624.931 583.2
L625.601 583.2
L626.27 375.84
L626.94 583.2
L630.958 583.2
L631.627 479.52
L632.297 583.2
L632.966 479.52
L633.636 583.2
L642.341 583.2
L643.01 479.52
L643.68 479.52
L644.35 583.2
L645.019 583.2
L645.689 479.52
L646.358 583.2
L647.698 583.2
L648.367 479.52
L649.037 583.2
L649.706 479.52
L650.376 583.2
L651.046 479.52
L651.715 583.2
L652.385 583.2
L653.054 479.52
L653.724 583.2
L655.063 583.2
L655.733 479.52
L656.402 583.2
L657.072 479.52
L657.742 479.52
L658.411 583.2
L659.081 583.2
L659.75 479.52
L660.42 583.2
L661.09 479.52
L661.759 583.2
L670.464 583.2
L671.134 479.52
L671.803 583.2
L675.821 583.2
L676.49 479.52
L677.16 479.52
L677.83 583.2
L679.169 583.2
L679.838 375.84
L680.508 583.2
L681.178 583.2
L681.847 479.52
L682.517 583.2
L686.534 583.2
L687.204 479.52
L687.874 583.2
L688.543 583.2
L689.213 479.52
L689.882 583.2
L690.552 479.52
L691.891 479.52
L692.561 583.2
L695.239 583.2
L695.909 479.52
L696.578 583.2
L699.926 583.2
L700.596 479.52
L701.266 583.2
L702.605 583.2
L703.274 479.52
L703.944 583.2
L704.614 583.2
L705.283 479.52
L705.953 583.2
L706.622 479.52
L707.292 583.2
L707.962 479.52
L708.631 583.2
L709.301 479.52
L709.97 583.2
L712.649 583.2
L713.318 479.52
L714.658 479.52
L715.327 583.2
L717.336 583.2
L718.006 479.52
L718.675 583.2
L720.014 583.2
L720.684 375.84
L721.354 583.2
L722.023 479.52
L722.693 583.2
L728.05 583.2
L728.719 479.52
L729.389 583.2
L730.058 479.52
L730.728 479.52
L731.398 583.2
L732.067 583.2
L732.737 479.52
L733.406 479.52
L734.076 583.2
L735.415 583.2
L736.085 479.52
L736.754 583.2
L737.424 583.2
L738.094 272.16
L738.763 583.2
L740.102 583.2
L740.772 479.52
L741.442 168.48
L742.111 479.52
L742.781 375.84
L743.45 583.2
L745.459 583.2
L746.129 479.52
L746.798 583.2
L747.468 375.84
L748.138 375.84
L748.807 479.52
L749.477 479.52
L750.146 375.84
L750.816 583.2
L752.155 583.2
L752.825 479.52
L753.494 479.52
L754.164 583.2
L754.834 479.52
L755.503 583.2
L756.173 375.84
L757.512 583.2
L758.851 375.84
L759.521 583.2
L760.19 583.2
L760.86 479.52
L761.53 583.2
L762.199 479.52
L763.538 479.52
L764.208 583.2
L764.878 375.84
L766.217 583.2
L766.886 479.52
L767.556 479.52
L768.226 583.2
L773.582 583.2
L774.252 479.52
L774.922 479.52
L775.591 583.2
L776.261 479.52
L776.93 583.2
L777.6 375.84
L777.6 375.84" style="fill:none;stroke:#ff0000;stroke-linecap:square;"/>
   </g>
   <g id="line2d_2">
    <path clip-path="url(#p7ceb695115)" d="
M108 583.2
L369.144 583.2
L369.814 479.52
L376.51 479.52
L377.179 583.2
L377.849 479.52
L398.606 479.52
L399.276 583.2
L399.946 583.2
L400.615 479.52
L401.285 479.52
L401.954 583.2
L402.624 479.52
L403.294 583.2
L403.963 479.52
L405.972 479.52
L406.642 583.2
L407.311 583.2
L407.981 479.52
L412.668 479.52
L413.338 583.2
L414.007 479.52
L416.686 479.52
L417.355 583.2
L418.025 479.52
L422.712 479.52
L423.382 583.2
L424.721 583.2
L425.39 479.52
L434.765 479.52
L435.434 583.2
L436.104 479.52
L437.443 479.52
L438.113 583.2
L438.782 479.52
L440.122 479.52
L440.791 583.2
L441.461 479.52
L444.139 479.52
L444.809 583.2
L445.478 479.52
L446.148 583.2
L446.818 479.52
L447.487 479.52
L448.157 583.2
L448.826 583.2
L449.496 479.52
L450.166 583.2
L501.055 583.2
L501.725 479.52
L502.394 583.2
L534.535 583.2
L535.205 479.52
L535.874 583.2
L536.544 583.2
L537.214 479.52
L537.883 583.2
L546.588 583.2
L547.258 479.52
L547.927 583.2
L548.597 583.2
L549.266 479.52
L549.936 583.2
L588.773 583.2
L589.442 479.52
L590.112 583.2
L597.478 583.2
L598.147 479.52
L598.817 583.2
L600.826 583.2
L601.495 479.52
L602.165 583.2
L602.834 375.84
L604.174 583.2
L608.861 583.2
L609.53 479.52
L610.2 583.2
L618.905 583.2
L619.574 479.52
L620.244 583.2
L620.914 479.52
L621.583 583.2
L628.279 583.2
L628.949 479.52
L629.618 479.52
L630.288 583.2
L633.636 583.2
L634.306 479.52
L634.975 583.2
L635.645 375.84
L636.314 583.2
L643.68 583.2
L644.35 479.52
L645.019 583.2
L645.689 479.52
L646.358 583.2
L647.028 583.2
L647.698 479.52
L648.367 583.2
L649.706 583.2
L650.376 479.52
L651.046 583.2
L653.724 583.2
L654.394 479.52
L655.063 479.52
L655.733 583.2
L659.081 583.2
L659.75 479.52
L660.42 583.2
L661.759 583.2
L662.429 479.52
L663.098 583.2
L663.768 583.2
L665.107 375.84
L665.777 583.2
L666.446 479.52
L667.786 479.52
L668.455 583.2
L669.125 583.2
L669.794 479.52
L670.464 583.2
L671.134 583.2
L672.473 375.84
L673.142 583.2
L673.812 583.2
L675.151 375.84
L675.821 583.2
L676.49 479.52
L677.16 583.2
L677.83 479.52
L678.499 583.2
L679.169 479.52
L679.838 583.2
L680.508 479.52
L681.178 583.2
L681.847 583.2
L682.517 479.52
L683.186 479.52
L683.856 583.2
L684.526 479.52
L685.865 479.52
L686.534 583.2
L687.204 583.2
L687.874 479.52
L689.882 479.52
L690.552 583.2
L691.222 479.52
L691.891 479.52
L692.561 583.2
L693.23 375.84
L693.9 583.2
L695.909 583.2
L696.578 479.52
L697.248 583.2
L697.918 479.52
L698.587 583.2
L699.257 583.2
L699.926 479.52
L700.596 583.2
L701.266 272.16
L701.935 583.2
L703.274 583.2
L703.944 479.52
L704.614 479.52
L705.283 583.2
L705.953 583.2
L706.622 479.52
L707.292 583.2
L710.64 583.2
L711.31 375.84
L712.649 583.2
L713.318 479.52
L713.988 583.2
L714.658 64.8
L715.327 479.52
L715.997 375.84
L716.666 479.52
L717.336 479.52
L718.006 375.84
L719.345 583.2
L720.014 583.2
L721.354 375.84
L722.023 583.2
L722.693 375.84
L723.362 583.2
L724.702 375.84
L725.371 375.84
L726.041 479.52
L728.05 479.52
L728.719 583.2
L729.389 272.16
L730.058 479.52
L730.728 583.2
L731.398 479.52
L732.067 479.52
L732.737 583.2
L733.406 479.52
L734.076 583.2
L734.746 479.52
L735.415 479.52
L736.085 583.2
L736.754 583.2
L737.424 479.52
L738.094 583.2
L738.763 583.2
L739.433 479.52
L740.102 583.2
L740.772 583.2
L741.442 479.52
L742.111 583.2
L742.781 375.84
L743.45 479.52
L744.12 272.16
L744.79 479.52
L745.459 583.2
L746.129 479.52
L748.138 479.52
L748.807 168.48
L749.477 479.52
L750.146 583.2
L750.816 375.84
L751.486 583.2
L752.155 479.52
L752.825 583.2
L753.494 479.52
L754.164 479.52
L754.834 583.2
L756.173 583.2
L756.842 479.52
L757.512 583.2
L758.182 479.52
L758.851 583.2
L759.521 479.52
L760.19 272.16
L760.86 272.16
L761.53 375.84
L762.199 583.2
L762.869 479.52
L764.208 479.52
L764.878 583.2
L765.547 479.52
L766.217 583.2
L767.556 583.2
L768.895 375.84
L769.565 479.52
L770.234 272.16
L772.243 583.2
L772.913 583.2
L773.582 479.52
L774.252 479.52
L774.922 583.2
L775.591 479.52
L776.261 583.2
L776.93 583.2
L777.6 479.52
L777.6 479.52" style="fill:none;stroke:#008000;stroke-linecap:square;"/>
   </g>
   <g id="line2d_3">
    <path clip-path="url(#p7ceb695115)" d="
M108 583.2
L262.678 583.2
L263.347 479.52
L266.695 479.52
L267.365 583.2
L268.034 583.2
L268.704 479.52
L269.374 479.52
L270.043 583.2
L270.713 479.52
L271.382 479.52
L272.052 583.2
L272.722 583.2
L273.391 479.52
L274.73 479.52
L275.4 583.2
L276.07 479.52
L279.418 479.52
L280.087 583.2
L280.757 479.52
L282.766 479.52
L283.435 583.2
L284.105 479.52
L286.783 479.52
L287.453 583.2
L288.122 583.2
L288.792 479.52
L300.175 479.52
L300.845 583.2
L301.514 583.2
L302.184 479.52
L302.854 583.2
L303.523 479.52
L304.862 479.52
L305.532 583.2
L306.202 479.52
L310.889 479.52
L311.558 375.84
L312.228 375.84
L312.898 479.52
L313.567 375.84
L315.576 375.84
L316.246 479.52
L316.915 375.84
L322.272 375.84
L322.942 479.52
L323.611 479.52
L324.281 375.84
L324.95 479.52
L325.62 479.52
L326.29 375.84
L326.959 479.52
L327.629 375.84
L328.968 375.84
L329.638 479.52
L330.307 375.84
L332.316 375.84
L332.986 479.52
L333.655 375.84
L334.994 375.84
L335.664 479.52
L336.334 479.52
L337.003 375.84
L337.673 479.52
L338.342 375.84
L340.351 375.84
L341.021 479.52
L341.69 479.52
L342.36 375.84
L343.699 375.84
L344.369 479.52
L345.038 479.52
L345.708 375.84
L346.378 479.52
L347.047 375.84
L349.726 375.84
L350.395 583.2
L351.065 583.2
L351.734 479.52
L352.404 479.52
L353.074 583.2
L353.743 375.84
L354.413 479.52
L355.082 375.84
L358.43 375.84
L359.1 479.52
L360.439 479.52
L361.109 375.84
L361.778 375.84
L362.448 583.2
L363.118 375.84
L363.787 479.52
L364.457 375.84
L365.126 375.84
L365.796 479.52
L366.466 375.84
L367.805 375.84
L368.474 479.52
L369.814 479.52
L370.483 375.84
L371.153 583.2
L372.492 375.84
L374.501 375.84
L375.17 479.52
L375.84 479.52
L376.51 375.84
L377.179 375.84
L377.849 583.2
L378.518 375.84
L381.197 375.84
L381.866 583.2
L383.206 375.84
L385.884 375.84
L386.554 479.52
L387.223 479.52
L387.893 375.84
L394.589 375.84
L395.258 479.52
L395.928 479.52
L396.598 375.84
L398.606 375.84
L399.276 479.52
L399.946 375.84
L400.615 479.52
L401.285 375.84
L402.624 375.84
L403.294 479.52
L403.963 375.84
L405.302 375.84
L405.972 272.16
L408.65 272.16
L409.32 375.84
L409.99 272.16
L410.659 375.84
L411.329 375.84
L411.998 272.16
L414.007 272.16
L415.346 479.52
L416.016 272.16
L417.355 479.52
L418.025 375.84
L420.034 375.84
L420.703 479.52
L421.373 375.84
L422.042 479.52
L422.712 479.52
L423.382 375.84
L424.051 375.84
L424.721 479.52
L425.39 479.52
L426.06 375.84
L426.73 479.52
L427.399 375.84
L429.408 375.84
L430.078 479.52
L430.747 375.84
L431.417 479.52
L432.086 375.84
L433.426 375.84
L434.095 479.52
L434.765 375.84
L436.104 375.84
L436.774 479.52
L437.443 375.84
L440.122 375.84
L440.791 479.52
L443.47 479.52
L444.139 583.2
L444.809 479.52
L445.478 583.2
L446.818 583.2
L447.487 479.52
L448.157 583.2
L449.496 583.2
L450.166 479.52
L450.835 583.2
L476.95 583.2
L477.619 479.52
L478.289 583.2
L493.02 583.2
L493.69 479.52
L494.359 583.2
L495.029 479.52
L495.698 583.2
L496.368 479.52
L497.038 583.2
L499.046 583.2
L499.716 479.52
L500.386 583.2
L517.126 583.2
L517.795 479.52
L518.465 583.2
L571.363 583.2
L572.033 479.52
L572.702 583.2
L582.077 583.2
L582.746 479.52
L583.416 583.2
L596.808 583.2
L597.478 479.52
L598.147 479.52
L598.817 583.2
L599.486 479.52
L600.156 583.2
L606.182 583.2
L606.852 479.52
L607.522 583.2
L610.2 583.2
L610.87 479.52
L611.539 583.2
L612.209 583.2
L612.878 479.52
L613.548 479.52
L614.218 583.2
L615.557 583.2
L616.226 479.52
L616.896 583.2
L617.566 479.52
L618.235 583.2
L618.905 375.84
L619.574 583.2
L620.244 583.2
L620.914 479.52
L621.583 583.2
L623.592 583.2
L624.262 479.52
L624.931 583.2
L625.601 479.52
L626.27 583.2
L630.958 583.2
L631.627 479.52
L632.297 583.2
L634.306 583.2
L634.975 375.84
L635.645 375.84
L636.314 583.2
L645.689 583.2
L646.358 479.52
L647.028 583.2
L647.698 583.2
L648.367 479.52
L649.037 479.52
L649.706 583.2
L651.046 583.2
L651.715 479.52
L652.385 583.2
L653.054 479.52
L653.724 583.2
L655.063 583.2
L655.733 479.52
L656.402 583.2
L657.072 583.2
L657.742 479.52
L659.081 479.52
L659.75 583.2
L663.098 583.2
L663.768 479.52
L664.438 479.52
L665.107 375.84
L665.777 583.2
L667.786 583.2
L668.455 479.52
L669.125 583.2
L669.794 583.2
L670.464 479.52
L671.134 583.2
L673.142 583.2
L673.812 479.52
L674.482 583.2
L675.151 479.52
L676.49 479.52
L677.16 583.2
L681.178 583.2
L681.847 479.52
L682.517 583.2
L683.186 583.2
L683.856 272.16
L684.526 583.2
L685.865 583.2
L686.534 479.52
L687.204 583.2
L687.874 479.52
L688.543 479.52
L689.213 583.2
L689.882 479.52
L690.552 583.2
L691.891 583.2
L692.561 272.16
L693.23 583.2
L695.239 583.2
L695.909 272.16
L696.578 583.2
L697.248 479.52
L697.918 583.2
L698.587 479.52
L699.257 583.2
L699.926 479.52
L700.596 583.2
L701.266 583.2
L701.935 479.52
L703.274 479.52
L703.944 583.2
L704.614 375.84
L705.283 583.2
L707.292 583.2
L707.962 375.84
L708.631 479.52
L709.301 479.52
L709.97 583.2
L710.64 479.52
L711.31 583.2
L711.979 479.52
L712.649 479.52
L713.318 583.2
L713.988 479.52
L714.658 583.2
L715.327 375.84
L715.997 375.84
L716.666 583.2
L720.014 583.2
L720.684 479.52
L721.354 583.2
L722.693 583.2
L723.362 375.84
L724.032 272.16
L724.702 583.2
L725.371 583.2
L726.71 375.84
L727.38 583.2
L728.05 583.2
L729.389 375.84
L730.058 375.84
L731.398 583.2
L732.067 375.84
L733.406 583.2
L734.076 479.52
L734.746 583.2
L736.754 583.2
L737.424 375.84
L738.763 583.2
L739.433 479.52
L740.102 479.52
L740.772 272.16
L741.442 583.2
L742.111 583.2
L742.781 479.52
L743.45 272.16
L744.12 479.52
L744.79 583.2
L745.459 479.52
L746.129 583.2
L748.138 583.2
L748.807 375.84
L749.477 583.2
L750.146 479.52
L750.816 583.2
L751.486 479.52
L752.825 479.52
L753.494 583.2
L754.164 479.52
L756.842 479.52
L757.512 583.2
L758.182 583.2
L758.851 479.52
L760.19 479.52
L760.86 583.2
L761.53 272.16
L762.199 583.2
L762.869 479.52
L763.538 479.52
L764.208 583.2
L764.878 272.16
L765.547 479.52
L766.217 583.2
L766.886 479.52
L767.556 583.2
L768.226 583.2
L768.895 272.16
L769.565 583.2
L770.234 479.52
L770.904 479.52
L771.574 583.2
L772.913 375.84
L774.252 583.2
L774.922 375.84
L775.591 479.52
L776.261 168.48
L776.93 583.2
L777.6 583.2
L777.6 583.2" style="fill:none;stroke:#0000ff;stroke-linecap:square;"/>
   </g>
   <g id="patch_3">
    <path d="
M777.6 583.2
L777.6 64.8" style="fill:none;stroke:#000000;stroke-linecap:square;stroke-linejoin:miter;"/>
   </g>
   <g id="patch_4">
    <path d="
M108 583.2
L777.6 583.2" style="fill:none;stroke:#000000;stroke-linecap:square;stroke-linejoin:miter;"/>
   </g>
   <g id="patch_5">
    <path d="
M108 64.8
L777.6 64.8" style="fill:none;stroke:#000000;stroke-linecap:square;stroke-linejoin:miter;"/>
   </g>
   <g id="patch_6">
    <path d="
M108 583.2
L108 64.8" style="fill:none;stroke:#000000;stroke-linecap:square;stroke-linejoin:miter;"/>
   </g>
   <g id="matplotlib.axis_1">
    <g id="xtick_1">
     <g id="line2d_4">
      <defs>
       <path d="
M0 0
L0 -4" id="mc7db9fdffb" style="stroke:#000000;stroke-width:0.5;"/>
      </defs>
      <g>
       <use style="stroke:#000000;stroke-width:0.5;" x="108.0" xlink:href="#mc7db9fdffb" y="583.2"/>
      </g>
     </g>
     <g id="line2d_5">
      <defs>
       <path d="
M0 0
L0 4" id="m5a7d422ac3" style="stroke:#000000;stroke-width:0.5;"/>
      </defs>
      <g>
       <use style="stroke:#000000;stroke-width:0.5;" x="108.0" xlink:href="#m5a7d422ac3" y="64.8"/>
      </g>
     </g>
     <g id="text_1">
      <!-- 0 -->
      <defs>
       <path d="
M31.7812 66.4062
Q24.1719 66.4062 20.3281 58.9062
Q16.5 51.4219 16.5 36.375
Q16.5 21.3906 20.3281 13.8906
Q24.1719 6.39062 31.7812 6.39062
Q39.4531 6.39062 43.2812 13.8906
Q47.125 21.3906 47.125 36.375
Q47.125 51.4219 43.2812 58.9062
Q39.4531 66.4062 31.7812 66.4062
M31.7812 74.2188
Q44.0469 74.2188 50.5156 64.5156
Q56.9844 54.8281 56.9844 36.375
Q56.9844 17.9688 50.5156 8.26562
Q44.0469 -1.42188 31.7812 -1.42188
Q19.5312 -1.42188 13.0625 8.26562
Q6.59375 17.9688 6.59375 36.375
Q6.59375 54.8281 13.0625 64.5156
Q19.5312 74.2188 31.7812 74.2188" id="BitstreamVeraSans-Roman-30"/>
      </defs>
      <g transform="translate(104.9765625 596.318125)scale(0.12 -0.12)">
       <use xlink:href="#BitstreamVeraSans-Roman-30"/>
      </g>
     </g>
    </g>
    <g id="xtick_2">
     <g id="line2d_6">
      <g>
       <use style="stroke:#000000;stroke-width:0.5;" x="275.4" xlink:href="#mc7db9fdffb" y="583.2"/>
      </g>
     </g>
     <g id="line2d_7">
      <g>
       <use style="stroke:#000000;stroke-width:0.5;" x="275.4" xlink:href="#m5a7d422ac3" y="64.8"/>
      </g>
     </g>
     <g id="text_2">
      <!-- 50000 -->
      <defs>
       <path d="
M10.7969 72.9062
L49.5156 72.9062
L49.5156 64.5938
L19.8281 64.5938
L19.8281 46.7344
Q21.9688 47.4688 24.1094 47.8281
Q26.2656 48.1875 28.4219 48.1875
Q40.625 48.1875 47.75 41.5
Q54.8906 34.8125 54.8906 23.3906
Q54.8906 11.625 47.5625 5.09375
Q40.2344 -1.42188 26.9062 -1.42188
Q22.3125 -1.42188 17.5469 -0.640625
Q12.7969 0.140625 7.71875 1.70312
L7.71875 11.625
Q12.1094 9.23438 16.7969 8.0625
Q21.4844 6.89062 26.7031 6.89062
Q35.1562 6.89062 40.0781 11.3281
Q45.0156 15.7656 45.0156 23.3906
Q45.0156 31 40.0781 35.4375
Q35.1562 39.8906 26.7031 39.8906
Q22.75 39.8906 18.8125 39.0156
Q14.8906 38.1406 10.7969 36.2812
z
" id="BitstreamVeraSans-Roman-35"/>
      </defs>
      <g transform="translate(257.1740625 596.318125)scale(0.12 -0.12)">
       <use xlink:href="#BitstreamVeraSans-Roman-35"/>
       <use x="63.623046875" xlink:href="#BitstreamVeraSans-Roman-30"/>
       <use x="127.24609375" xlink:href="#BitstreamVeraSans-Roman-30"/>
       <use x="190.869140625" xlink:href="#BitstreamVeraSans-Roman-30"/>
       <use x="254.4921875" xlink:href="#BitstreamVeraSans-Roman-30"/>
      </g>
     </g>
    </g>
    <g id="xtick_3">
     <g id="line2d_8">
      <g>
       <use style="stroke:#000000;stroke-width:0.5;" x="442.8" xlink:href="#mc7db9fdffb" y="583.2"/>
      </g>
     </g>
     <g id="line2d_9">
      <g>
       <use style="stroke:#000000;stroke-width:0.5;" x="442.8" xlink:href="#m5a7d422ac3" y="64.8"/>
      </g>
     </g>
     <g id="text_3">
      <!-- 100000 -->
      <defs>
       <path d="
M12.4062 8.29688
L28.5156 8.29688
L28.5156 63.9219
L10.9844 60.4062
L10.9844 69.3906
L28.4219 72.9062
L38.2812 72.9062
L38.2812 8.29688
L54.3906 8.29688
L54.3906 0
L12.4062 0
z
" id="BitstreamVeraSans-Roman-31"/>
      </defs>
      <g transform="translate(420.9525 596.318125)scale(0.12 -0.12)">
       <use xlink:href="#BitstreamVeraSans-Roman-31"/>
       <use x="63.623046875" xlink:href="#BitstreamVeraSans-Roman-30"/>
       <use x="127.24609375" xlink:href="#BitstreamVeraSans-Roman-30"/>
       <use x="190.869140625" xlink:href="#BitstreamVeraSans-Roman-30"/>
       <use x="254.4921875" xlink:href="#BitstreamVeraSans-Roman-30"/>
       <use x="318.115234375" xlink:href="#BitstreamVeraSans-Roman-30"/>
      </g>
     </g>
    </g>
    <g id="xtick_4">
     <g id="line2d_10">
      <g>
       <use style="stroke:#000000;stroke-width:0.5;" x="610.2" xlink:href="#mc7db9fdffb" y="583.2"/>
      </g>
     </g>
     <g id="line2d_11">
      <g>
       <use style="stroke:#000000;stroke-width:0.5;" x="610.2" xlink:href="#m5a7d422ac3" y="64.8"/>
      </g>
     </g>
     <g id="text_4">
      <!-- 150000 -->
      <g transform="translate(588.3525 596.318125)scale(0.12 -0.12)">
       <use xlink:href="#BitstreamVeraSans-Roman-31"/>
       <use x="63.623046875" xlink:href="#BitstreamVeraSans-Roman-35"/>
       <use x="127.24609375" xlink:href="#BitstreamVeraSans-Roman-30"/>
       <use x="190.869140625" xlink:href="#BitstreamVeraSans-Roman-30"/>
       <use x="254.4921875" xlink:href="#BitstreamVeraSans-Roman-30"/>
       <use x="318.115234375" xlink:href="#BitstreamVeraSans-Roman-30"/>
      </g>
     </g>
    </g>
    <g id="xtick_5">
     <g id="line2d_12">
      <g>
       <use style="stroke:#000000;stroke-width:0.5;" x="777.6" xlink:href="#mc7db9fdffb" y="583.2"/>
      </g>
     </g>
     <g id="line2d_13">
      <g>
       <use style="stroke:#000000;stroke-width:0.5;" x="777.6" xlink:href="#m5a7d422ac3" y="64.8"/>
      </g>
     </g>
     <g id="text_5">
      <!-- 200000 -->
      <defs>
       <path d="
M19.1875 8.29688
L53.6094 8.29688
L53.6094 0
L7.32812 0
L7.32812 8.29688
Q12.9375 14.1094 22.625 23.8906
Q32.3281 33.6875 34.8125 36.5312
Q39.5469 41.8438 41.4219 45.5312
Q43.3125 49.2188 43.3125 52.7812
Q43.3125 58.5938 39.2344 62.25
Q35.1562 65.9219 28.6094 65.9219
Q23.9688 65.9219 18.8125 64.3125
Q13.6719 62.7031 7.8125 59.4219
L7.8125 69.3906
Q13.7656 71.7812 18.9375 73
Q24.125 74.2188 28.4219 74.2188
Q39.75 74.2188 46.4844 68.5469
Q53.2188 62.8906 53.2188 53.4219
Q53.2188 48.9219 51.5312 44.8906
Q49.8594 40.875 45.4062 35.4062
Q44.1875 33.9844 37.6406 27.2188
Q31.1094 20.4531 19.1875 8.29688" id="BitstreamVeraSans-Roman-32"/>
      </defs>
      <g transform="translate(755.533125 596.318125)scale(0.12 -0.12)">
       <use xlink:href="#BitstreamVeraSans-Roman-32"/>
       <use x="63.623046875" xlink:href="#BitstreamVeraSans-Roman-30"/>
       <use x="127.24609375" xlink:href="#BitstreamVeraSans-Roman-30"/>
       <use x="190.869140625" xlink:href="#BitstreamVeraSans-Roman-30"/>
       <use x="254.4921875" xlink:href="#BitstreamVeraSans-Roman-30"/>
       <use x="318.115234375" xlink:href="#BitstreamVeraSans-Roman-30"/>
      </g>
     </g>
    </g>
    <g id="text_6">
     <!-- t / ms -->
     <defs>
      <path d="
M18.3125 70.2188
L18.3125 54.6875
L36.8125 54.6875
L36.8125 47.7031
L18.3125 47.7031
L18.3125 18.0156
Q18.3125 11.3281 20.1406 9.42188
Q21.9688 7.51562 27.5938 7.51562
L36.8125 7.51562
L36.8125 0
L27.5938 0
Q17.1875 0 13.2344 3.875
Q9.28125 7.76562 9.28125 18.0156
L9.28125 47.7031
L2.6875 47.7031
L2.6875 54.6875
L9.28125 54.6875
L9.28125 70.2188
z
" id="BitstreamVeraSans-Roman-74"/>
      <path id="BitstreamVeraSans-Roman-20"/>
      <path d="
M44.2812 53.0781
L44.2812 44.5781
Q40.4844 46.5312 36.375 47.5
Q32.2812 48.4844 27.875 48.4844
Q21.1875 48.4844 17.8438 46.4375
Q14.5 44.3906 14.5 40.2812
Q14.5 37.1562 16.8906 35.375
Q19.2812 33.5938 26.5156 31.9844
L29.5938 31.2969
Q39.1562 29.25 43.1875 25.5156
Q47.2188 21.7812 47.2188 15.0938
Q47.2188 7.46875 41.1875 3.01562
Q35.1562 -1.42188 24.6094 -1.42188
Q20.2188 -1.42188 15.4531 -0.5625
Q10.6875 0.296875 5.42188 2
L5.42188 11.2812
Q10.4062 8.6875 15.2344 7.39062
Q20.0625 6.10938 24.8125 6.10938
Q31.1562 6.10938 34.5625 8.28125
Q37.9844 10.4531 37.9844 14.4062
Q37.9844 18.0625 35.5156 20.0156
Q33.0625 21.9688 24.7031 23.7812
L21.5781 24.5156
Q13.2344 26.2656 9.51562 29.9062
Q5.8125 33.5469 5.8125 39.8906
Q5.8125 47.6094 11.2812 51.7969
Q16.75 56 26.8125 56
Q31.7812 56 36.1719 55.2656
Q40.5781 54.5469 44.2812 53.0781" id="BitstreamVeraSans-Roman-73"/>
      <path d="
M52 44.1875
Q55.375 50.25 60.0625 53.125
Q64.75 56 71.0938 56
Q79.6406 56 84.2812 50.0156
Q88.9219 44.0469 88.9219 33.0156
L88.9219 0
L79.8906 0
L79.8906 32.7188
Q79.8906 40.5781 77.0938 44.375
Q74.3125 48.1875 68.6094 48.1875
Q61.625 48.1875 57.5625 43.5469
Q53.5156 38.9219 53.5156 30.9062
L53.5156 0
L44.4844 0
L44.4844 32.7188
Q44.4844 40.625 41.7031 44.4062
Q38.9219 48.1875 33.1094 48.1875
Q26.2188 48.1875 22.1562 43.5312
Q18.1094 38.875 18.1094 30.9062
L18.1094 0
L9.07812 0
L9.07812 54.6875
L18.1094 54.6875
L18.1094 46.1875
Q21.1875 51.2188 25.4844 53.6094
Q29.7812 56 35.6875 56
Q41.6562 56 45.8281 52.9688
Q50 49.9531 52 44.1875" id="BitstreamVeraSans-Roman-6d"/>
      <path d="
M25.3906 72.9062
L33.6875 72.9062
L8.29688 -9.28125
L0 -9.28125
z
" id="BitstreamVeraSans-Roman-2f"/>
     </defs>
     <g transform="translate(425.9353125 612.931875)scale(0.12 -0.12)">
      <use xlink:href="#BitstreamVeraSans-Roman-74"/>
      <use x="39.208984375" xlink:href="#BitstreamVeraSans-Roman-20"/>
      <use x="70.99609375" xlink:href="#BitstreamVeraSans-Roman-2f"/>
      <use x="104.6875" xlink:href="#BitstreamVeraSans-Roman-20"/>
      <use x="136.474609375" xlink:href="#BitstreamVeraSans-Roman-6d"/>
      <use x="233.88671875" xlink:href="#BitstreamVeraSans-Roman-73"/>
     </g>
    </g>
   </g>
   <g id="matplotlib.axis_2">
    <g id="ytick_1">
     <g id="line2d_14">
      <defs>
       <path d="
M0 0
L4 0" id="md7965d1ba0" style="stroke:#000000;stroke-width:0.5;"/>
      </defs>
      <g>
       <use style="stroke:#000000;stroke-width:0.5;" x="108.0" xlink:href="#md7965d1ba0" y="583.2"/>
      </g>
     </g>
     <g id="line2d_15">
      <defs>
       <path d="
M0 0
L-4 0" id="md9a1c1a7cd" style="stroke:#000000;stroke-width:0.5;"/>
      </defs>
      <g>
       <use style="stroke:#000000;stroke-width:0.5;" x="777.6" xlink:href="#md9a1c1a7cd" y="583.2"/>
      </g>
     </g>
     <g id="text_7">
      <!-- 0 -->
      <g transform="translate(97.953125 586.51125)scale(0.12 -0.12)">
       <use xlink:href="#BitstreamVeraSans-Roman-30"/>
      </g>
     </g>
    </g>
    <g id="ytick_2">
     <g id="line2d_16">
      <g>
       <use style="stroke:#000000;stroke-width:0.5;" x="108.0" xlink:href="#md7965d1ba0" y="479.52"/>
      </g>
     </g>
     <g id="line2d_17">
      <g>
       <use style="stroke:#000000;stroke-width:0.5;" x="777.6" xlink:href="#md9a1c1a7cd" y="479.52"/>
      </g>
     </g>
     <g id="text_8">
      <!-- 1 -->
      <g transform="translate(98.79125 482.83125)scale(0.12 -0.12)">
       <use xlink:href="#BitstreamVeraSans-Roman-31"/>
      </g>
     </g>
    </g>
    <g id="ytick_3">
     <g id="line2d_18">
      <g>
       <use style="stroke:#000000;stroke-width:0.5;" x="108.0" xlink:href="#md7965d1ba0" y="375.84"/>
      </g>
     </g>
     <g id="line2d_19">
      <g>
       <use style="stroke:#000000;stroke-width:0.5;" x="777.6" xlink:href="#md9a1c1a7cd" y="375.84"/>
      </g>
     </g>
     <g id="text_9">
      <!-- 2 -->
      <g transform="translate(98.44625 379.15125)scale(0.12 -0.12)">
       <use xlink:href="#BitstreamVeraSans-Roman-32"/>
      </g>
     </g>
    </g>
    <g id="ytick_4">
     <g id="line2d_20">
      <g>
       <use style="stroke:#000000;stroke-width:0.5;" x="108.0" xlink:href="#md7965d1ba0" y="272.16"/>
      </g>
     </g>
     <g id="line2d_21">
      <g>
       <use style="stroke:#000000;stroke-width:0.5;" x="777.6" xlink:href="#md9a1c1a7cd" y="272.16"/>
      </g>
     </g>
     <g id="text_10">
      <!-- 3 -->
      <defs>
       <path d="
M40.5781 39.3125
Q47.6562 37.7969 51.625 33
Q55.6094 28.2188 55.6094 21.1875
Q55.6094 10.4062 48.1875 4.48438
Q40.7656 -1.42188 27.0938 -1.42188
Q22.5156 -1.42188 17.6562 -0.515625
Q12.7969 0.390625 7.625 2.20312
L7.625 11.7188
Q11.7188 9.32812 16.5938 8.10938
Q21.4844 6.89062 26.8125 6.89062
Q36.0781 6.89062 40.9375 10.5469
Q45.7969 14.2031 45.7969 21.1875
Q45.7969 27.6406 41.2812 31.2656
Q36.7656 34.9062 28.7188 34.9062
L20.2188 34.9062
L20.2188 43.0156
L29.1094 43.0156
Q36.375 43.0156 40.2344 45.9219
Q44.0938 48.8281 44.0938 54.2969
Q44.0938 59.9062 40.1094 62.9062
Q36.1406 65.9219 28.7188 65.9219
Q24.6562 65.9219 20.0156 65.0312
Q15.375 64.1562 9.8125 62.3125
L9.8125 71.0938
Q15.4375 72.6562 20.3438 73.4375
Q25.25 74.2188 29.5938 74.2188
Q40.8281 74.2188 47.3594 69.1094
Q53.9062 64.0156 53.9062 55.3281
Q53.9062 49.2656 50.4375 45.0938
Q46.9688 40.9219 40.5781 39.3125" id="BitstreamVeraSans-Roman-33"/>
      </defs>
      <g transform="translate(98.241875 275.47125)scale(0.12 -0.12)">
       <use xlink:href="#BitstreamVeraSans-Roman-33"/>
      </g>
     </g>
    </g>
    <g id="ytick_5">
     <g id="line2d_22">
      <g>
       <use style="stroke:#000000;stroke-width:0.5;" x="108.0" xlink:href="#md7965d1ba0" y="168.48"/>
      </g>
     </g>
     <g id="line2d_23">
      <g>
       <use style="stroke:#000000;stroke-width:0.5;" x="777.6" xlink:href="#md9a1c1a7cd" y="168.48"/>
      </g>
     </g>
     <g id="text_11">
      <!-- 4 -->
      <defs>
       <path d="
M37.7969 64.3125
L12.8906 25.3906
L37.7969 25.3906
z

M35.2031 72.9062
L47.6094 72.9062
L47.6094 25.3906
L58.0156 25.3906
L58.0156 17.1875
L47.6094 17.1875
L47.6094 0
L37.7969 0
L37.7969 17.1875
L4.89062 17.1875
L4.89062 26.7031
z
" id="BitstreamVeraSans-Roman-34"/>
      </defs>
      <g transform="translate(97.625 171.79125)scale(0.12 -0.12)">
       <use xlink:href="#BitstreamVeraSans-Roman-34"/>
      </g>
     </g>
    </g>
    <g id="ytick_6">
     <g id="line2d_24">
      <g>
       <use style="stroke:#000000;stroke-width:0.5;" x="108.0" xlink:href="#md7965d1ba0" y="64.8"/>
      </g>
     </g>
     <g id="line2d_25">
      <g>
       <use style="stroke:#000000;stroke-width:0.5;" x="777.6" xlink:href="#md9a1c1a7cd" y="64.8"/>
      </g>
     </g>
     <g id="text_12">
      <!-- 5 -->
      <g transform="translate(98.339375 68.11125)scale(0.12 -0.12)">
       <use xlink:href="#BitstreamVeraSans-Roman-35"/>
      </g>
     </g>
    </g>
    <g id="text_13">
     <!-- particle numbers -->
     <defs>
      <path d="
M48.6875 27.2969
Q48.6875 37.2031 44.6094 42.8438
Q40.5312 48.4844 33.4062 48.4844
Q26.2656 48.4844 22.1875 42.8438
Q18.1094 37.2031 18.1094 27.2969
Q18.1094 17.3906 22.1875 11.75
Q26.2656 6.10938 33.4062 6.10938
Q40.5312 6.10938 44.6094 11.75
Q48.6875 17.3906 48.6875 27.2969
M18.1094 46.3906
Q20.9531 51.2656 25.2656 53.625
Q29.5938 56 35.5938 56
Q45.5625 56 51.7812 48.0938
Q58.0156 40.1875 58.0156 27.2969
Q58.0156 14.4062 51.7812 6.48438
Q45.5625 -1.42188 35.5938 -1.42188
Q29.5938 -1.42188 25.2656 0.953125
Q20.9531 3.32812 18.1094 8.20312
L18.1094 0
L9.07812 0
L9.07812 75.9844
L18.1094 75.9844
z
" id="BitstreamVeraSans-Roman-62"/>
      <path d="
M54.8906 33.0156
L54.8906 0
L45.9062 0
L45.9062 32.7188
Q45.9062 40.4844 42.875 44.3281
Q39.8438 48.1875 33.7969 48.1875
Q26.5156 48.1875 22.3125 43.5469
Q18.1094 38.9219 18.1094 30.9062
L18.1094 0
L9.07812 0
L9.07812 54.6875
L18.1094 54.6875
L18.1094 46.1875
Q21.3438 51.125 25.7031 53.5625
Q30.0781 56 35.7969 56
Q45.2188 56 50.0469 50.1719
Q54.8906 44.3438 54.8906 33.0156" id="BitstreamVeraSans-Roman-6e"/>
      <path d="
M56.2031 29.5938
L56.2031 25.2031
L14.8906 25.2031
Q15.4844 15.9219 20.4844 11.0625
Q25.4844 6.20312 34.4219 6.20312
Q39.5938 6.20312 44.4531 7.46875
Q49.3125 8.73438 54.1094 11.2812
L54.1094 2.78125
Q49.2656 0.734375 44.1875 -0.34375
Q39.1094 -1.42188 33.8906 -1.42188
Q20.7969 -1.42188 13.1562 6.1875
Q5.51562 13.8125 5.51562 26.8125
Q5.51562 40.2344 12.7656 48.1094
Q20.0156 56 32.3281 56
Q43.3594 56 49.7812 48.8906
Q56.2031 41.7969 56.2031 29.5938
M47.2188 32.2344
Q47.125 39.5938 43.0938 43.9844
Q39.0625 48.3906 32.4219 48.3906
Q24.9062 48.3906 20.3906 44.1406
Q15.875 39.8906 15.1875 32.1719
z
" id="BitstreamVeraSans-Roman-65"/>
      <path d="
M9.42188 75.9844
L18.4062 75.9844
L18.4062 0
L9.42188 0
z
" id="BitstreamVeraSans-Roman-6c"/>
      <path d="
M8.5 21.5781
L8.5 54.6875
L17.4844 54.6875
L17.4844 21.9219
Q17.4844 14.1562 20.5 10.2656
Q23.5312 6.39062 29.5938 6.39062
Q36.8594 6.39062 41.0781 11.0312
Q45.3125 15.6719 45.3125 23.6875
L45.3125 54.6875
L54.2969 54.6875
L54.2969 0
L45.3125 0
L45.3125 8.40625
Q42.0469 3.42188 37.7188 1
Q33.4062 -1.42188 27.6875 -1.42188
Q18.2656 -1.42188 13.375 4.4375
Q8.5 10.2969 8.5 21.5781" id="BitstreamVeraSans-Roman-75"/>
      <path d="
M34.2812 27.4844
Q23.3906 27.4844 19.1875 25
Q14.9844 22.5156 14.9844 16.5
Q14.9844 11.7188 18.1406 8.90625
Q21.2969 6.10938 26.7031 6.10938
Q34.1875 6.10938 38.7031 11.4062
Q43.2188 16.7031 43.2188 25.4844
L43.2188 27.4844
z

M52.2031 31.2031
L52.2031 0
L43.2188 0
L43.2188 8.29688
Q40.1406 3.32812 35.5469 0.953125
Q30.9531 -1.42188 24.3125 -1.42188
Q15.9219 -1.42188 10.9531 3.29688
Q6 8.01562 6 15.9219
Q6 25.1406 12.1719 29.8281
Q18.3594 34.5156 30.6094 34.5156
L43.2188 34.5156
L43.2188 35.4062
Q43.2188 41.6094 39.1406 45
Q35.0625 48.3906 27.6875 48.3906
Q23 48.3906 18.5469 47.2656
Q14.1094 46.1406 10.0156 43.8906
L10.0156 52.2031
Q14.9375 54.1094 19.5781 55.0469
Q24.2188 56 28.6094 56
Q40.4844 56 46.3438 49.8438
Q52.2031 43.7031 52.2031 31.2031" id="BitstreamVeraSans-Roman-61"/>
      <path d="
M48.7812 52.5938
L48.7812 44.1875
Q44.9688 46.2969 41.1406 47.3438
Q37.3125 48.3906 33.4062 48.3906
Q24.6562 48.3906 19.8125 42.8438
Q14.9844 37.3125 14.9844 27.2969
Q14.9844 17.2812 19.8125 11.7344
Q24.6562 6.20312 33.4062 6.20312
Q37.3125 6.20312 41.1406 7.25
Q44.9688 8.29688 48.7812 10.4062
L48.7812 2.09375
Q45.0156 0.34375 40.9844 -0.53125
Q36.9688 -1.42188 32.4219 -1.42188
Q20.0625 -1.42188 12.7812 6.34375
Q5.51562 14.1094 5.51562 27.2969
Q5.51562 40.6719 12.8594 48.3281
Q20.2188 56 33.0156 56
Q37.1562 56 41.1094 55.1406
Q45.0625 54.2969 48.7812 52.5938" id="BitstreamVeraSans-Roman-63"/>
      <path d="
M18.1094 8.20312
L18.1094 -20.7969
L9.07812 -20.7969
L9.07812 54.6875
L18.1094 54.6875
L18.1094 46.3906
Q20.9531 51.2656 25.2656 53.625
Q29.5938 56 35.5938 56
Q45.5625 56 51.7812 48.0938
Q58.0156 40.1875 58.0156 27.2969
Q58.0156 14.4062 51.7812 6.48438
Q45.5625 -1.42188 35.5938 -1.42188
Q29.5938 -1.42188 25.2656 0.953125
Q20.9531 3.32812 18.1094 8.20312
M48.6875 27.2969
Q48.6875 37.2031 44.6094 42.8438
Q40.5312 48.4844 33.4062 48.4844
Q26.2656 48.4844 22.1875 42.8438
Q18.1094 37.2031 18.1094 27.2969
Q18.1094 17.3906 22.1875 11.75
Q26.2656 6.10938 33.4062 6.10938
Q40.5312 6.10938 44.6094 11.75
Q48.6875 17.3906 48.6875 27.2969" id="BitstreamVeraSans-Roman-70"/>
      <path d="
M9.42188 54.6875
L18.4062 54.6875
L18.4062 0
L9.42188 0
z

M9.42188 75.9844
L18.4062 75.9844
L18.4062 64.5938
L9.42188 64.5938
z
" id="BitstreamVeraSans-Roman-69"/>
      <path d="
M41.1094 46.2969
Q39.5938 47.1719 37.8125 47.5781
Q36.0312 48 33.8906 48
Q26.2656 48 22.1875 43.0469
Q18.1094 38.0938 18.1094 28.8125
L18.1094 0
L9.07812 0
L9.07812 54.6875
L18.1094 54.6875
L18.1094 46.1875
Q20.9531 51.1719 25.4844 53.5781
Q30.0312 56 36.5312 56
Q37.4531 56 38.5781 55.875
Q39.7031 55.7656 41.0625 55.5156
z
" id="BitstreamVeraSans-Roman-72"/>
     </defs>
     <g transform="translate(90.129375 374.78625)rotate(-90.0)scale(0.12 -0.12)">
      <use xlink:href="#BitstreamVeraSans-Roman-70"/>
      <use x="63.4765625" xlink:href="#BitstreamVeraSans-Roman-61"/>
      <use x="124.755859375" xlink:href="#BitstreamVeraSans-Roman-72"/>
      <use x="165.869140625" xlink:href="#BitstreamVeraSans-Roman-74"/>
      <use x="205.078125" xlink:href="#BitstreamVeraSans-Roman-69"/>
      <use x="232.861328125" xlink:href="#BitstreamVeraSans-Roman-63"/>
      <use x="287.841796875" xlink:href="#BitstreamVeraSans-Roman-6c"/>
      <use x="315.625" xlink:href="#BitstreamVeraSans-Roman-65"/>
      <use x="377.1484375" xlink:href="#BitstreamVeraSans-Roman-20"/>
      <use x="408.935546875" xlink:href="#BitstreamVeraSans-Roman-6e"/>
      <use x="472.314453125" xlink:href="#BitstreamVeraSans-Roman-75"/>
      <use x="535.693359375" xlink:href="#BitstreamVeraSans-Roman-6d"/>
      <use x="633.10546875" xlink:href="#BitstreamVeraSans-Roman-62"/>
      <use x="696.58203125" xlink:href="#BitstreamVeraSans-Roman-65"/>
      <use x="758.10546875" xlink:href="#BitstreamVeraSans-Roman-72"/>
      <use x="799.21875" xlink:href="#BitstreamVeraSans-Roman-73"/>
     </g>
    </g>
   </g>
   <g id="legend_1">
    <g id="patch_7">
     <path d="
M111.5 101.224
L178.775 101.224
L178.775 68.3
L111.5 68.3
z
" style="fill:#ffffff;stroke:#000000;stroke-linejoin:miter;"/>
    </g>
    <g id="line2d_26">
     <path d="
M116.4 73.9689
L126.2 73.9689" style="fill:none;stroke:#ff0000;stroke-linecap:square;"/>
    </g>
    <g id="line2d_27"/>
    <g id="text_14">
     <!-- pPDE10 el.0 -->
     <defs>
      <path d="
M19.6719 64.7969
L19.6719 8.10938
L31.5938 8.10938
Q46.6875 8.10938 53.6875 14.9375
Q60.6875 21.7812 60.6875 36.5312
Q60.6875 51.1719 53.6875 57.9844
Q46.6875 64.7969 31.5938 64.7969
z

M9.8125 72.9062
L30.0781 72.9062
Q51.2656 72.9062 61.1719 64.0938
Q71.0938 55.2812 71.0938 36.5312
Q71.0938 17.6719 61.125 8.82812
Q51.1719 0 30.0781 0
L9.8125 0
z
" id="BitstreamVeraSans-Roman-44"/>
      <path d="
M10.6875 12.4062
L21 12.4062
L21 0
L10.6875 0
z
" id="BitstreamVeraSans-Roman-2e"/>
      <path d="
M9.8125 72.9062
L55.9062 72.9062
L55.9062 64.5938
L19.6719 64.5938
L19.6719 43.0156
L54.3906 43.0156
L54.3906 34.7188
L19.6719 34.7188
L19.6719 8.29688
L56.7812 8.29688
L56.7812 0
L9.8125 0
z
" id="BitstreamVeraSans-Roman-45"/>
      <path d="
M19.6719 64.7969
L19.6719 37.4062
L32.0781 37.4062
Q38.9688 37.4062 42.7188 40.9688
Q46.4844 44.5312 46.4844 51.125
Q46.4844 57.6719 42.7188 61.2344
Q38.9688 64.7969 32.0781 64.7969
z

M9.8125 72.9062
L32.0781 72.9062
Q44.3438 72.9062 50.6094 67.3594
Q56.8906 61.8125 56.8906 51.125
Q56.8906 40.3281 50.6094 34.8125
Q44.3438 29.2969 32.0781 29.2969
L19.6719 29.2969
L19.6719 0
L9.8125 0
z
" id="BitstreamVeraSans-Roman-50"/>
     </defs>
     <g transform="translate(133.9 76.41890625)scale(0.07 -0.07)">
      <use xlink:href="#BitstreamVeraSans-Roman-70"/>
      <use x="63.4765625" xlink:href="#BitstreamVeraSans-Roman-50"/>
      <use x="123.779296875" xlink:href="#BitstreamVeraSans-Roman-44"/>
      <use x="200.78125" xlink:href="#BitstreamVeraSans-Roman-45"/>
      <use x="263.96484375" xlink:href="#BitstreamVeraSans-Roman-31"/>
      <use x="327.587890625" xlink:href="#BitstreamVeraSans-Roman-30"/>
      <use x="391.2109375" xlink:href="#BitstreamVeraSans-Roman-20"/>
      <use x="422.998046875" xlink:href="#BitstreamVeraSans-Roman-65"/>
      <use x="484.521484375" xlink:href="#BitstreamVeraSans-Roman-6c"/>
      <use x="512.3046875" xlink:href="#BitstreamVeraSans-Roman-2e"/>
      <use x="544.091796875" xlink:href="#BitstreamVeraSans-Roman-30"/>
     </g>
    </g>
    <g id="line2d_28">
     <path d="
M116.4 84.2436
L126.2 84.2436" style="fill:none;stroke:#008000;stroke-linecap:square;"/>
    </g>
    <g id="line2d_29"/>
    <g id="text_15">
     <!-- pPDE10 el.1 -->
     <g transform="translate(133.9 86.69359375)scale(0.07 -0.07)">
      <use xlink:href="#BitstreamVeraSans-Roman-70"/>
      <use x="63.4765625" xlink:href="#BitstreamVeraSans-Roman-50"/>
      <use x="123.779296875" xlink:href="#BitstreamVeraSans-Roman-44"/>
      <use x="200.78125" xlink:href="#BitstreamVeraSans-Roman-45"/>
      <use x="263.96484375" xlink:href="#BitstreamVeraSans-Roman-31"/>
      <use x="327.587890625" xlink:href="#BitstreamVeraSans-Roman-30"/>
      <use x="391.2109375" xlink:href="#BitstreamVeraSans-Roman-20"/>
      <use x="422.998046875" xlink:href="#BitstreamVeraSans-Roman-65"/>
      <use x="484.521484375" xlink:href="#BitstreamVeraSans-Roman-6c"/>
      <use x="512.3046875" xlink:href="#BitstreamVeraSans-Roman-2e"/>
      <use x="544.091796875" xlink:href="#BitstreamVeraSans-Roman-31"/>
     </g>
    </g>
    <g id="line2d_30">
     <path d="
M116.4 94.5183
L126.2 94.5183" style="fill:none;stroke:#0000ff;stroke-linecap:square;"/>
    </g>
    <g id="line2d_31"/>
    <g id="text_16">
     <!-- pPDE10 el.2 -->
     <g transform="translate(133.9 96.96828125)scale(0.07 -0.07)">
      <use xlink:href="#BitstreamVeraSans-Roman-70"/>
      <use x="63.4765625" xlink:href="#BitstreamVeraSans-Roman-50"/>
      <use x="123.779296875" xlink:href="#BitstreamVeraSans-Roman-44"/>
      <use x="200.78125" xlink:href="#BitstreamVeraSans-Roman-45"/>
      <use x="263.96484375" xlink:href="#BitstreamVeraSans-Roman-31"/>
      <use x="327.587890625" xlink:href="#BitstreamVeraSans-Roman-30"/>
      <use x="391.2109375" xlink:href="#BitstreamVeraSans-Roman-20"/>
      <use x="422.998046875" xlink:href="#BitstreamVeraSans-Roman-65"/>
      <use x="484.521484375" xlink:href="#BitstreamVeraSans-Roman-6c"/>
      <use x="512.3046875" xlink:href="#BitstreamVeraSans-Roman-2e"/>
      <use x="544.091796875" xlink:href="#BitstreamVeraSans-Roman-32"/>
     </g>
    </g>
   </g>
  </g>
 </g>
 <defs>
  <clipPath id="p7ceb695115">
   <rect height="518.4" width="669.6" x="108.0" y="64.8"/>
  </clipPath>
 </defs>
</svg>
