<?xml version="1.0" encoding="utf-8" standalone="no"?>
<!DOCTYPE svg PUBLIC "-//W3C//DTD SVG 1.1//EN"
  "http://www.w3.org/Graphics/SVG/1.1/DTD/svg11.dtd">
<!-- Created with matplotlib (http://matplotlib.org/) -->
<svg height="648pt" version="1.1" viewBox="0 0 864 648" width="864pt" xmlns="http://www.w3.org/2000/svg" xmlns:xlink="http://www.w3.org/1999/xlink">
 <defs>
  <style type="text/css">
*{stroke-linecap:butt;stroke-linejoin:round;}
  </style>
 </defs>
 <g id="figure_1">
  <g id="patch_1">
   <path d="
M0 648
L864 648
L864 0
L0 0
z
" style="fill:#ffffff;"/>
  </g>
  <g id="axes_1">
   <g id="patch_2">
    <path d="
M108 583.2
L777.6 583.2
L777.6 64.8
L108 64.8
z
" style="fill:#ffffff;"/>
   </g>
   <g id="line2d_1">
    <path clip-path="url(#p7ceb695115)" d="
M108 583.2
L121.392 583.2
L122.062 580.608
L122.731 583.2
L123.401 581.904
L124.74 581.904
L125.41 583.2
L126.079 583.2
L126.749 581.904
L127.418 583.2
L128.088 581.904
L128.758 581.904
L129.427 580.608
L130.766 583.2
L131.436 581.904
L132.106 581.904
L132.775 583.2
L134.784 583.2
L135.454 580.608
L136.123 580.608
L137.462 583.2
L138.802 583.2
L139.471 581.904
L140.81 581.904
L141.48 580.608
L142.15 583.2
L143.489 583.2
L144.158 581.904
L146.167 581.904
L146.837 580.608
L147.506 583.2
L148.176 581.904
L148.846 583.2
L149.515 581.904
L150.185 583.2
L154.202 583.2
L154.872 581.904
L155.542 583.2
L156.211 581.904
L156.881 579.312
L157.55 581.904
L158.22 580.608
L160.229 580.608
L160.898 581.904
L162.238 579.312
L163.577 581.904
L164.916 579.312
L166.255 581.904
L166.925 579.312
L167.594 580.608
L168.264 579.312
L168.934 581.904
L169.603 580.608
L170.273 578.016
L170.942 581.904
L171.612 580.608
L172.282 581.904
L172.951 579.312
L173.621 580.608
L174.29 579.312
L174.96 581.904
L175.63 581.904
L176.299 578.016
L177.638 583.2
L178.308 579.312
L178.978 579.312
L179.647 580.608
L180.317 580.608
L180.986 583.2
L182.326 580.608
L182.995 580.608
L183.665 576.72
L184.334 574.128
L185.004 579.312
L185.674 579.312
L186.343 578.016
L187.013 575.424
L187.682 581.904
L188.352 580.608
L189.022 581.904
L189.691 580.608
L190.361 580.608
L191.03 578.016
L191.7 576.72
L192.37 581.904
L193.039 583.2
L193.709 581.904
L194.378 578.016
L195.718 583.2
L196.387 581.904
L197.057 579.312
L197.726 580.608
L199.066 578.016
L199.735 580.608
L200.405 580.608
L201.074 578.016
L201.744 576.72
L202.414 574.128
L203.083 574.128
L203.753 579.312
L204.422 576.72
L205.092 579.312
L205.762 578.016
L206.431 581.904
L207.101 581.904
L207.77 580.608
L208.44 580.608
L209.11 574.128
L209.779 579.312
L210.449 580.608
L211.118 580.608
L211.788 576.72
L212.458 579.312
L213.127 579.312
L213.797 581.904
L214.466 575.424
L215.136 576.72
L215.806 576.72
L216.475 578.016
L217.145 578.016
L217.814 579.312
L218.484 578.016
L219.154 578.016
L219.823 579.312
L220.493 575.424
L221.162 579.312
L221.832 580.608
L222.502 580.608
L223.841 575.424
L224.51 574.128
L225.18 578.016
L225.85 576.72
L226.519 574.128
L227.189 576.72
L227.858 580.608
L228.528 581.904
L229.198 580.608
L229.867 581.904
L230.537 579.312
L231.206 578.016
L231.876 581.904
L232.546 580.608
L233.885 580.608
L234.554 581.904
L235.224 578.016
L235.894 583.2
L236.563 580.608
L237.233 579.312
L237.902 576.72
L238.572 579.312
L239.242 583.2
L239.911 580.608
L240.581 579.312
L241.25 580.608
L242.59 580.608
L243.259 581.904
L243.929 579.312
L244.598 579.312
L245.268 580.608
L245.938 579.312
L246.607 581.904
L247.946 579.312
L248.616 581.904
L249.286 579.312
L249.955 578.016
L250.625 579.312
L251.294 578.016
L251.964 578.016
L252.634 580.608
L253.973 583.2
L254.642 583.2
L255.312 581.904
L255.982 581.904
L256.651 583.2
L257.321 579.312
L259.33 583.2
L259.999 583.2
L260.669 581.904
L261.338 579.312
L262.008 580.608
L262.678 578.016
L263.347 583.2
L264.017 581.904
L264.686 578.016
L265.356 580.608
L266.026 580.608
L267.365 583.2
L268.034 578.016
L268.704 580.608
L269.374 580.608
L270.043 581.904
L270.713 580.608
L271.382 581.904
L272.052 580.608
L272.722 581.904
L273.391 579.312
L274.061 581.904
L274.73 580.608
L275.4 578.016
L276.07 583.2
L276.739 579.312
L277.409 579.312
L278.078 581.904
L278.748 580.608
L280.087 580.608
L280.757 581.904
L281.426 579.312
L282.096 580.608
L282.766 580.608
L283.435 581.904
L284.774 581.904
L286.114 579.312
L286.783 581.904
L287.453 580.608
L288.792 580.608
L289.462 581.904
L290.131 579.312
L290.801 579.312
L291.47 580.608
L292.14 578.016
L292.81 583.2
L293.479 579.312
L294.149 576.72
L295.488 579.312
L296.158 576.72
L296.827 575.424
L298.166 578.016
L298.836 581.904
L299.506 581.904
L300.175 578.016
L300.845 581.904
L301.514 578.016
L302.184 580.608
L303.523 578.016
L304.193 578.016
L304.862 580.608
L305.532 580.608
L307.541 576.72
L308.21 579.312
L308.88 576.72
L309.55 576.72
L310.219 579.312
L310.889 583.2
L312.898 579.312
L313.567 581.904
L314.237 576.72
L314.906 578.016
L315.576 581.904
L316.246 576.72
L316.915 579.312
L317.585 579.312
L318.254 581.904
L318.924 583.2
L319.594 580.608
L320.263 580.608
L320.933 575.424
L321.602 575.424
L322.272 579.312
L322.942 578.016
L323.611 579.312
L324.281 578.016
L324.95 575.424
L325.62 575.424
L326.29 572.832
L326.959 578.016
L327.629 580.608
L328.298 579.312
L329.638 579.312
L330.307 575.424
L330.977 572.832
L331.646 579.312
L332.316 581.904
L332.986 580.608
L333.655 581.904
L334.325 579.312
L334.994 581.904
L335.664 579.312
L336.334 579.312
L337.003 578.016
L337.673 581.904
L338.342 579.312
L339.012 579.312
L339.682 581.904
L340.351 579.312
L341.021 581.904
L341.69 580.608
L342.36 578.016
L343.03 578.016
L343.699 580.608
L344.369 581.904
L345.038 579.312
L346.378 581.904
L347.717 581.904
L348.386 579.312
L349.056 580.608
L349.726 580.608
L350.395 579.312
L351.734 581.904
L352.404 578.016
L353.074 579.312
L353.743 579.312
L354.413 581.904
L355.082 581.904
L355.752 579.312
L356.422 583.2
L357.091 578.016
L357.761 579.312
L358.43 579.312
L359.1 581.904
L359.77 580.608
L360.439 578.016
L361.109 576.72
L361.778 576.72
L363.118 581.904
L363.787 578.016
L364.457 583.2
L365.796 580.608
L366.466 580.608
L367.135 583.2
L367.805 583.2
L368.474 581.904
L369.814 581.904
L370.483 579.312
L371.153 579.312
L371.822 581.904
L373.162 581.904
L373.831 578.016
L374.501 580.608
L375.84 578.016
L377.179 580.608
L377.849 580.608
L378.518 579.312
L379.188 581.904
L380.527 581.904
L381.197 578.016
L381.866 579.312
L382.536 578.016
L383.206 581.904
L383.875 583.2
L384.545 581.904
L385.214 579.312
L385.884 580.608
L386.554 580.608
L387.223 581.904
L387.893 580.608
L388.562 581.904
L389.232 580.608
L389.902 581.904
L390.571 581.904
L391.241 579.312
L391.91 581.904
L392.58 580.608
L393.25 581.904
L394.589 581.904
L395.258 583.2
L395.928 583.2
L396.598 580.608
L397.267 583.2
L398.606 580.608
L399.276 578.016
L399.946 580.608
L400.615 579.312
L401.285 580.608
L401.954 580.608
L402.624 579.312
L403.294 581.904
L403.963 580.608
L404.633 580.608
L405.302 578.016
L405.972 579.312
L406.642 576.72
L407.311 576.72
L407.981 578.016
L408.65 580.608
L409.32 581.904
L409.99 581.904
L410.659 579.312
L411.329 580.608
L411.998 576.72
L412.668 579.312
L414.677 579.312
L415.346 576.72
L416.016 578.016
L416.686 575.424
L417.355 579.312
L418.025 581.904
L418.694 583.2
L419.364 578.016
L420.034 578.016
L420.703 580.608
L422.042 578.016
L422.712 583.2
L423.382 579.312
L424.051 578.016
L426.06 581.904
L426.73 581.904
L427.399 579.312
L428.069 580.608
L429.408 580.608
L430.078 579.312
L432.086 583.2
L432.756 580.608
L433.426 581.904
L434.095 581.904
L434.765 579.312
L435.434 580.608
L436.104 580.608
L436.774 576.72
L437.443 580.608
L438.113 583.2
L438.782 580.608
L439.452 583.2
L440.122 583.2
L441.461 580.608
L442.13 583.2
L442.8 581.904
L443.47 574.128
L444.139 580.608
L444.809 580.608
L445.478 581.904
L446.148 581.904
L446.818 583.2
L447.487 578.016
L448.157 571.536
L448.826 568.944
L449.496 562.464
L450.835 536.544
L451.505 509.328
L452.174 530.064
L452.844 492.48
L453.514 504.144
L454.183 493.776
L454.853 498.96
L455.522 483.408
L456.192 473.04
L456.862 497.664
L458.201 489.888
L458.87 482.112
L459.54 502.848
L460.21 473.04
L460.879 465.264
L461.549 466.56
L462.218 482.112
L462.888 469.152
L463.558 465.264
L464.227 473.04
L464.897 502.848
L465.566 488.592
L466.236 476.928
L466.906 482.112
L467.575 488.592
L468.245 487.296
L468.914 470.448
L469.584 474.336
L470.254 484.704
L470.923 486
L471.593 469.152
L472.262 470.448
L473.602 475.632
L474.271 487.296
L474.941 474.336
L475.61 475.632
L476.28 463.968
L476.95 489.888
L477.619 479.52
L478.289 483.408
L478.958 482.112
L479.628 474.336
L480.298 482.112
L480.967 480.816
L481.637 471.744
L482.306 483.408
L482.976 471.744
L483.646 470.448
L484.315 489.888
L484.985 483.408
L485.654 489.888
L486.324 493.776
L486.994 506.736
L487.663 487.296
L488.333 500.256
L489.002 484.704
L489.672 497.664
L490.342 505.44
L491.011 495.072
L491.681 479.52
L492.35 473.04
L493.02 500.256
L493.69 492.48
L494.359 483.408
L495.029 488.592
L496.368 511.92
L497.038 486
L497.707 489.888
L498.377 470.448
L499.046 495.072
L499.716 482.112
L500.386 491.184
L501.055 480.816
L501.725 491.184
L502.394 509.328
L503.064 497.664
L503.734 480.816
L504.403 476.928
L505.073 483.408
L505.742 462.672
L506.412 488.592
L507.082 491.184
L507.751 486
L508.421 475.632
L509.09 522.288
L509.76 476.928
L510.43 493.776
L511.099 493.776
L511.769 452.304
L512.438 475.632
L513.108 478.224
L513.778 484.704
L514.447 482.112
L515.117 498.96
L515.786 487.296
L516.456 482.112
L517.126 484.704
L517.795 473.04
L518.465 497.664
L519.134 456.192
L519.804 457.488
L520.474 473.04
L521.143 482.112
L521.813 486
L522.482 483.408
L523.152 473.04
L524.491 498.96
L525.161 480.816
L525.83 515.808
L526.5 489.888
L527.17 489.888
L527.839 482.112
L528.509 475.632
L529.178 475.632
L529.848 470.448
L530.518 478.224
L531.187 487.296
L531.857 453.6
L533.196 502.848
L533.866 505.44
L534.535 515.808
L535.205 484.704
L535.874 486
L536.544 500.256
L537.214 505.44
L537.883 492.48
L538.553 492.48
L539.222 470.448
L539.892 501.552
L540.562 506.736
L541.231 492.48
L541.901 505.44
L542.57 524.88
L543.24 498.96
L543.91 483.408
L544.579 483.408
L545.249 492.48
L545.918 497.664
L546.588 496.368
L547.258 501.552
L547.927 484.704
L548.597 497.664
L549.266 479.52
L549.936 504.144
L550.606 502.848
L551.275 497.664
L551.945 502.848
L552.614 502.848
L553.284 491.184
L553.954 476.928
L554.623 501.552
L555.293 495.072
L555.962 497.664
L556.632 509.328
L557.302 487.296
L557.971 492.48
L558.641 480.816
L559.31 497.664
L559.98 500.256
L560.65 489.888
L561.319 489.888
L561.989 506.736
L562.658 505.44
L563.328 501.552
L563.998 487.296
L564.667 495.072
L565.337 506.736
L566.006 500.256
L566.676 497.664
L567.346 478.224
L568.015 493.776
L568.685 504.144
L569.354 498.96
L570.024 496.368
L570.694 505.44
L571.363 487.296
L572.033 491.184
L572.702 497.664
L574.042 474.336
L574.711 497.664
L575.381 502.848
L576.05 482.112
L576.72 495.072
L577.39 510.624
L578.059 496.368
L579.398 520.992
L580.068 508.032
L580.738 519.696
L581.407 513.216
L582.077 513.216
L582.746 501.552
L583.416 519.696
L584.086 493.776
L584.755 509.328
L585.425 497.664
L586.094 492.48
L586.764 492.48
L587.434 495.072
L588.103 502.848
L588.773 493.776
L589.442 502.848
L590.112 489.888
L590.782 492.48
L591.451 504.144
L592.121 509.328
L592.79 513.216
L593.46 476.928
L594.13 489.888
L594.799 491.184
L595.469 508.032
L596.138 508.032
L596.808 511.92
L597.478 520.992
L598.147 504.144
L598.817 519.696
L599.486 514.512
L600.156 510.624
L600.826 489.888
L601.495 513.216
L602.165 515.808
L602.834 496.368
L603.504 487.296
L604.174 487.296
L604.843 476.928
L605.513 484.704
L606.182 486
L606.852 505.44
L607.522 491.184
L608.191 493.776
L608.861 505.44
L609.53 509.328
L610.2 505.44
L610.87 530.064
L611.539 508.032
L612.878 497.664
L613.548 502.848
L614.887 508.032
L616.226 484.704
L616.896 498.96
L617.566 519.696
L618.235 515.808
L618.905 508.032
L619.574 498.96
L620.244 506.736
L620.914 484.704
L621.583 498.96
L622.253 506.736
L622.922 493.776
L623.592 497.664
L624.262 520.992
L624.931 509.328
L625.601 474.336
L626.27 502.848
L626.94 488.592
L627.61 520.992
L628.279 504.144
L628.949 482.112
L629.618 474.336
L630.288 510.624
L630.958 495.072
L631.627 511.92
L632.297 497.664
L632.966 502.848
L633.636 496.368
L634.306 502.848
L634.975 498.96
L635.645 501.552
L636.314 501.552
L636.984 492.48
L637.654 496.368
L638.323 502.848
L638.993 513.216
L639.662 528.768
L640.332 505.44
L641.002 491.184
L641.671 510.624
L642.341 495.072
L643.01 489.888
L643.68 506.736
L644.35 489.888
L645.019 492.48
L645.689 492.48
L646.358 504.144
L647.028 492.48
L647.698 497.664
L648.367 515.808
L649.037 510.624
L649.706 498.96
L650.376 501.552
L651.046 497.664
L651.715 502.848
L652.385 492.48
L653.054 519.696
L653.724 515.808
L654.394 517.104
L655.063 500.256
L655.733 498.96
L656.402 498.96
L657.072 482.112
L657.742 501.552
L658.411 504.144
L659.081 498.96
L660.42 536.544
L661.09 526.176
L662.429 491.184
L663.098 504.144
L663.768 510.624
L664.438 509.328
L665.107 524.88
L665.777 482.112
L666.446 497.664
L667.116 526.176
L667.786 498.96
L668.455 510.624
L669.125 510.624
L669.794 504.144
L670.464 509.328
L671.134 523.584
L671.803 509.328
L672.473 505.44
L673.142 526.176
L673.812 509.328
L674.482 517.104
L675.151 510.624
L675.821 511.92
L676.49 511.92
L677.16 504.144
L677.83 511.92
L678.499 504.144
L679.169 502.848
L679.838 479.52
L680.508 496.368
L681.178 470.448
L681.847 473.04
L683.186 497.664
L683.856 500.256
L684.526 506.736
L685.195 491.184
L685.865 510.624
L686.534 509.328
L687.204 504.144
L687.874 502.848
L688.543 511.92
L689.213 517.104
L689.882 505.44
L690.552 522.288
L691.222 500.256
L691.891 473.04
L693.23 515.808
L693.9 484.704
L694.57 509.328
L695.239 519.696
L695.909 509.328
L696.578 501.552
L697.248 527.472
L697.918 489.888
L698.587 511.92
L699.257 530.064
L699.926 517.104
L700.596 501.552
L701.266 510.624
L701.935 510.624
L702.605 504.144
L703.274 506.736
L704.614 493.776
L705.283 497.664
L705.953 504.144
L706.622 518.4
L707.292 523.584
L707.962 508.032
L708.631 513.216
L709.301 513.216
L709.97 505.44
L710.64 520.992
L711.31 501.552
L711.979 531.36
L712.649 526.176
L713.318 506.736
L713.988 509.328
L714.658 498.96
L715.327 500.256
L715.997 520.992
L716.666 505.44
L718.006 508.032
L718.675 493.776
L719.345 493.776
L720.014 491.184
L721.354 501.552
L722.023 501.552
L723.362 506.736
L724.032 510.624
L724.702 504.144
L725.371 517.104
L726.041 518.4
L726.71 515.808
L727.38 506.736
L728.05 492.48
L728.719 524.88
L729.389 511.92
L730.058 504.144
L730.728 517.104
L731.398 515.808
L732.067 504.144
L732.737 509.328
L733.406 506.736
L734.076 515.808
L734.746 504.144
L735.415 509.328
L736.085 492.48
L736.754 510.624
L737.424 497.664
L738.094 498.96
L738.763 489.888
L739.433 501.552
L740.102 501.552
L741.442 498.96
L742.111 501.552
L742.781 506.736
L743.45 523.584
L744.12 501.552
L744.79 511.92
L745.459 514.512
L746.129 514.512
L746.798 508.032
L747.468 520.992
L748.138 514.512
L748.807 504.144
L749.477 532.656
L750.146 518.4
L750.816 509.328
L751.486 508.032
L752.155 519.696
L752.825 496.368
L753.494 504.144
L754.834 522.288
L755.503 509.328
L756.173 527.472
L756.842 513.216
L757.512 504.144
L758.182 513.216
L758.851 510.624
L759.521 509.328
L760.19 514.512
L760.86 501.552
L761.53 508.032
L762.199 504.144
L762.869 473.04
L763.538 508.032
L764.208 518.4
L764.878 518.4
L765.547 517.104
L766.217 519.696
L766.886 520.992
L767.556 523.584
L768.226 523.584
L769.565 526.176
L770.234 524.88
L770.904 531.36
L771.574 502.848
L772.243 504.144
L773.582 514.512
L774.252 500.256
L774.922 489.888
L775.591 492.48
L776.261 514.512
L776.93 519.696
L777.6 493.776
L777.6 493.776" style="fill:none;stroke:#ff0000;stroke-linecap:square;"/>
   </g>
   <g id="line2d_2">
    <path clip-path="url(#p7ceb695115)" d="
M108 583.2
L122.062 583.2
L122.731 581.904
L123.401 583.2
L124.07 581.904
L126.079 581.904
L126.749 583.2
L127.418 581.904
L128.758 581.904
L129.427 583.2
L130.766 580.608
L131.436 581.904
L132.106 581.904
L132.775 580.608
L133.445 580.608
L134.114 581.904
L134.784 580.608
L135.454 583.2
L136.123 583.2
L137.462 580.608
L138.802 580.608
L139.471 583.2
L140.141 581.904
L140.81 581.904
L141.48 583.2
L142.15 580.608
L142.819 579.312
L143.489 581.904
L145.498 581.904
L146.167 579.312
L146.837 580.608
L147.506 578.016
L148.176 579.312
L148.846 579.312
L149.515 581.904
L150.185 581.904
L150.854 579.312
L151.524 581.904
L152.194 580.608
L153.533 583.2
L154.202 580.608
L154.872 580.608
L155.542 579.312
L156.211 580.608
L157.55 578.016
L158.22 579.312
L158.89 578.016
L160.229 580.608
L160.898 579.312
L162.907 579.312
L163.577 575.424
L164.246 574.128
L164.916 578.016
L165.586 578.016
L166.255 575.424
L167.594 572.832
L168.264 574.128
L168.934 570.24
L170.273 572.832
L170.942 567.648
L171.612 567.648
L172.282 565.056
L172.951 566.352
L173.621 565.056
L174.29 567.648
L174.96 568.944
L175.63 568.944
L176.299 572.832
L176.969 570.24
L177.638 566.352
L178.308 571.536
L180.317 567.648
L180.986 565.056
L181.656 570.24
L182.326 570.24
L182.995 568.944
L184.334 571.536
L185.004 565.056
L185.674 570.24
L186.343 570.24
L187.013 574.128
L187.682 571.536
L188.352 572.832
L189.022 568.944
L189.691 570.24
L190.361 568.944
L191.03 572.832
L191.7 572.832
L192.37 571.536
L193.039 571.536
L193.709 572.832
L194.378 570.24
L196.387 566.352
L197.057 568.944
L197.726 567.648
L198.396 567.648
L199.066 570.24
L199.735 562.464
L200.405 565.056
L201.074 562.464
L201.744 566.352
L202.414 566.352
L203.083 568.944
L203.753 562.464
L204.422 568.944
L205.092 568.944
L205.762 567.648
L207.101 567.648
L207.77 566.352
L208.44 566.352
L209.11 574.128
L209.779 567.648
L210.449 570.24
L211.118 567.648
L211.788 567.648
L212.458 561.168
L213.127 561.168
L213.797 555.984
L214.466 562.464
L215.136 559.872
L215.806 559.872
L216.475 563.76
L217.145 561.168
L217.814 557.28
L218.484 562.464
L219.154 558.576
L219.823 561.168
L220.493 562.464
L221.162 557.28
L221.832 557.28
L222.502 559.872
L223.171 563.76
L223.841 566.352
L225.18 561.168
L225.85 566.352
L226.519 566.352
L227.189 563.76
L227.858 566.352
L228.528 566.352
L229.198 568.944
L229.867 566.352
L230.537 571.536
L231.206 571.536
L231.876 567.648
L232.546 570.24
L233.215 568.944
L233.885 570.24
L234.554 568.944
L235.224 576.72
L235.894 570.24
L236.563 572.832
L237.233 571.536
L237.902 574.128
L238.572 574.128
L239.242 567.648
L239.911 570.24
L240.581 574.128
L241.25 571.536
L241.92 571.536
L242.59 572.832
L243.259 571.536
L243.929 571.536
L244.598 575.424
L245.268 574.128
L245.938 575.424
L246.607 570.24
L247.277 571.536
L247.946 570.24
L248.616 567.648
L249.286 572.832
L249.955 576.72
L250.625 571.536
L251.294 576.72
L251.964 578.016
L252.634 574.128
L253.303 574.128
L253.973 570.24
L254.642 572.832
L255.312 572.832
L255.982 571.536
L256.651 575.424
L257.321 571.536
L257.99 570.24
L260.669 570.24
L261.338 574.128
L262.008 572.832
L262.678 574.128
L263.347 571.536
L264.017 574.128
L264.686 579.312
L265.356 574.128
L266.695 571.536
L267.365 568.944
L268.034 572.832
L268.704 568.944
L270.043 571.536
L270.713 571.536
L271.382 570.24
L272.052 572.832
L273.391 575.424
L274.061 568.944
L274.73 571.536
L275.4 575.424
L276.07 570.24
L276.739 572.832
L277.409 574.128
L278.078 570.24
L280.757 570.24
L282.096 572.832
L283.435 572.832
L284.105 574.128
L284.774 570.24
L285.444 571.536
L286.783 576.72
L287.453 571.536
L288.122 572.832
L288.792 568.944
L289.462 570.24
L290.131 570.24
L290.801 568.944
L291.47 568.944
L292.14 571.536
L292.81 568.944
L293.479 572.832
L294.149 571.536
L296.827 576.72
L297.497 575.424
L298.836 567.648
L299.506 567.648
L300.175 571.536
L302.184 567.648
L302.854 570.24
L303.523 566.352
L304.193 568.944
L304.862 568.944
L305.532 571.536
L306.202 572.832
L306.871 568.944
L307.541 571.536
L308.21 567.648
L308.88 570.24
L309.55 571.536
L310.219 566.352
L310.889 565.056
L311.558 568.944
L312.228 567.648
L312.898 571.536
L313.567 565.056
L314.237 568.944
L314.906 571.536
L315.576 567.648
L316.246 571.536
L316.915 566.352
L317.585 567.648
L318.924 562.464
L319.594 565.056
L320.263 563.76
L320.933 565.056
L321.602 563.76
L322.272 561.168
L322.942 565.056
L323.611 559.872
L324.281 562.464
L324.95 557.28
L325.62 562.464
L326.29 563.76
L326.959 559.872
L327.629 558.576
L328.298 561.168
L328.968 561.168
L329.638 559.872
L330.307 566.352
L332.316 562.464
L332.986 565.056
L333.655 559.872
L334.325 562.464
L334.994 563.76
L335.664 563.76
L336.334 565.056
L337.003 570.24
L337.673 563.76
L338.342 565.056
L339.012 563.76
L339.682 561.168
L340.351 563.76
L341.021 561.168
L341.69 563.76
L342.36 567.648
L343.699 565.056
L344.369 566.352
L345.038 566.352
L345.708 565.056
L347.047 567.648
L347.717 567.648
L348.386 570.24
L349.056 566.352
L349.726 567.648
L350.395 570.24
L351.065 571.536
L351.734 570.24
L352.404 572.832
L353.074 568.944
L354.413 566.352
L355.082 572.832
L355.752 576.72
L356.422 567.648
L357.091 572.832
L357.761 572.832
L358.43 571.536
L359.77 571.536
L360.439 574.128
L361.109 574.128
L361.778 578.016
L362.448 575.424
L363.118 575.424
L363.787 578.016
L364.457 570.24
L365.126 572.832
L365.796 574.128
L366.466 576.72
L367.135 572.832
L367.805 571.536
L368.474 575.424
L369.814 575.424
L370.483 578.016
L371.153 576.72
L371.822 576.72
L373.162 579.312
L373.831 578.016
L374.501 575.424
L375.17 574.128
L376.51 576.72
L377.179 574.128
L377.849 575.424
L378.518 578.016
L379.188 572.832
L379.858 574.128
L380.527 574.128
L381.197 578.016
L381.866 575.424
L382.536 578.016
L383.206 572.832
L383.875 576.72
L384.545 575.424
L385.214 576.72
L386.554 576.72
L387.223 572.832
L387.893 576.72
L388.562 572.832
L389.232 574.128
L389.902 576.72
L390.571 575.424
L391.241 576.72
L391.91 574.128
L392.58 572.832
L393.25 575.424
L395.258 571.536
L395.928 568.944
L396.598 574.128
L397.267 571.536
L397.937 574.128
L398.606 574.128
L399.276 575.424
L399.946 568.944
L400.615 568.944
L401.285 566.352
L401.954 570.24
L402.624 578.016
L403.294 574.128
L404.633 568.944
L405.302 571.536
L405.972 572.832
L406.642 571.536
L407.311 572.832
L407.981 571.536
L408.65 568.944
L409.99 568.944
L410.659 570.24
L411.329 568.944
L411.998 572.832
L412.668 568.944
L413.338 571.536
L414.007 571.536
L415.346 568.944
L416.016 566.352
L416.686 572.832
L417.355 568.944
L418.025 566.352
L418.694 566.352
L419.364 574.128
L420.034 570.24
L420.703 567.648
L421.373 568.944
L422.042 571.536
L422.712 566.352
L423.382 572.832
L424.051 571.536
L424.721 571.536
L425.39 567.648
L426.06 566.352
L426.73 570.24
L427.399 570.24
L428.069 571.536
L428.738 574.128
L429.408 575.424
L430.078 572.832
L430.747 571.536
L431.417 574.128
L432.086 570.24
L432.756 576.72
L434.095 571.536
L434.765 575.424
L435.434 575.424
L436.104 576.72
L436.774 579.312
L438.113 574.128
L438.782 575.424
L439.452 574.128
L441.461 574.128
L442.13 575.424
L442.8 571.536
L443.47 578.016
L444.139 579.312
L444.809 574.128
L445.478 575.424
L446.148 574.128
L446.818 574.128
L447.487 570.24
L448.157 561.168
L448.826 546.912
L449.496 541.728
L450.166 498.96
L450.835 471.744
L451.505 453.6
L452.174 387.504
L452.844 370.656
L453.514 335.664
L454.183 291.6
L456.862 169.776
L457.531 176.256
L458.201 203.472
L458.87 204.768
L459.54 167.184
L460.21 184.032
L460.879 176.256
L461.549 171.072
L462.218 190.512
L462.888 206.064
L464.227 139.968
L465.566 181.44
L466.236 182.736
L466.906 198.288
L467.575 203.472
L468.245 167.184
L468.914 163.296
L469.584 151.632
L470.254 117.936
L470.923 123.12
L472.262 141.264
L472.932 134.784
L473.602 136.08
L474.271 138.672
L474.941 156.816
L475.61 141.264
L476.28 132.192
L476.95 141.264
L477.619 116.64
L478.958 145.152
L479.628 139.968
L480.298 164.592
L480.967 168.48
L481.637 164.592
L482.306 199.584
L482.976 182.736
L483.646 216.432
L484.315 191.808
L484.985 204.768
L485.654 213.84
L486.324 207.36
L486.994 190.512
L487.663 206.064
L488.333 195.696
L489.002 206.064
L489.672 178.848
L490.342 165.888
L491.011 198.288
L491.681 160.704
L492.35 151.632
L493.02 167.184
L493.69 186.624
L494.359 191.808
L495.029 174.96
L495.698 187.92
L496.368 207.36
L497.038 204.768
L497.707 178.848
L498.377 215.136
L499.046 194.4
L499.716 199.584
L500.386 208.656
L501.055 213.84
L501.725 212.544
L502.394 198.288
L503.064 191.808
L503.734 149.04
L504.403 152.928
L505.073 150.336
L505.742 133.488
L506.412 137.376
L507.082 137.376
L507.751 159.408
L508.421 187.92
L509.09 177.552
L509.76 190.512
L510.43 173.664
L511.099 163.296
L511.769 164.592
L512.438 149.04
L513.108 184.032
L513.778 182.736
L514.447 158.112
L515.117 181.44
L515.786 177.552
L516.456 182.736
L517.126 198.288
L517.795 186.624
L518.465 187.92
L519.134 196.992
L519.804 215.136
L520.474 209.952
L521.143 209.952
L521.813 212.544
L522.482 219.024
L523.152 216.432
L523.822 191.808
L524.491 184.032
L525.161 211.248
L525.83 162
L526.5 200.88
L527.17 200.88
L527.839 203.472
L528.509 211.248
L530.518 184.032
L531.187 171.072
L531.857 215.136
L532.526 194.4
L533.196 164.592
L533.866 191.808
L534.535 164.592
L535.205 186.624
L535.874 216.432
L536.544 184.032
L537.214 208.656
L537.883 215.136
L538.553 233.28
L539.222 222.912
L539.892 195.696
L540.562 199.584
L541.231 202.176
L541.901 203.472
L542.57 185.328
L543.24 238.464
L543.91 182.736
L545.249 187.92
L545.918 185.328
L546.588 193.104
L547.258 229.392
L547.927 226.8
L548.597 208.656
L549.266 239.76
L549.936 204.768
L550.606 189.216
L551.275 209.952
L551.945 207.36
L552.614 198.288
L553.284 217.728
L553.954 224.208
L554.623 209.952
L555.293 234.576
L555.962 216.432
L556.632 239.76
L557.302 246.24
L557.971 257.904
L558.641 243.648
L559.31 247.536
L559.98 243.648
L560.65 244.944
L561.319 230.688
L561.989 219.024
L562.658 211.248
L563.328 239.76
L563.998 226.8
L564.667 226.8
L565.337 243.648
L566.006 238.464
L566.676 222.912
L567.346 259.2
L568.015 259.2
L568.685 239.76
L569.354 254.016
L570.024 263.088
L570.694 228.096
L571.363 215.136
L572.033 222.912
L572.702 215.136
L574.042 228.096
L574.711 213.84
L575.381 220.32
L576.05 242.352
L576.72 228.096
L577.39 219.024
L578.059 220.32
L578.729 255.312
L580.068 257.904
L580.738 238.464
L581.407 242.352
L582.077 224.208
L582.746 243.648
L583.416 229.392
L584.086 254.016
L584.755 235.872
L585.425 231.984
L586.094 222.912
L586.764 242.352
L587.434 244.944
L588.103 215.136
L588.773 233.28
L589.442 256.608
L590.112 255.312
L590.782 233.28
L591.451 195.696
L592.121 202.176
L592.79 180.144
L593.46 221.616
L594.13 243.648
L594.799 242.352
L595.469 228.096
L596.138 228.096
L596.808 231.984
L597.478 217.728
L598.147 209.952
L598.817 215.136
L599.486 222.912
L600.156 263.088
L600.826 263.088
L601.495 256.608
L602.165 228.096
L602.834 212.544
L603.504 257.904
L604.174 256.608
L604.843 272.16
L605.513 248.832
L606.182 241.056
L606.852 250.128
L607.522 265.68
L608.191 261.792
L608.861 256.608
L609.53 265.68
L610.2 247.536
L610.87 237.168
L611.539 242.352
L612.209 251.424
L612.878 225.504
L613.548 252.72
L614.218 224.208
L614.887 215.136
L615.557 196.992
L616.226 221.616
L616.896 208.656
L617.566 225.504
L618.235 231.984
L618.905 226.8
L619.574 224.208
L620.244 207.36
L620.914 202.176
L621.583 213.84
L623.592 241.056
L624.262 231.984
L624.931 242.352
L626.27 250.128
L626.94 235.872
L627.61 238.464
L628.279 251.424
L628.949 229.392
L629.618 237.168
L630.288 230.688
L630.958 233.28
L631.627 220.32
L632.297 247.536
L632.966 261.792
L634.306 246.24
L634.975 257.904
L635.645 254.016
L636.314 263.088
L636.984 265.68
L637.654 247.536
L638.323 242.352
L638.993 254.016
L639.662 204.768
L640.332 209.952
L641.002 211.248
L641.671 233.28
L642.341 241.056
L643.01 256.608
L643.68 242.352
L644.35 238.464
L645.019 235.872
L645.689 241.056
L646.358 229.392
L647.028 234.576
L647.698 235.872
L648.367 242.352
L649.037 238.464
L650.376 279.936
L651.046 256.608
L651.715 250.128
L652.385 254.016
L653.054 248.832
L653.724 259.2
L654.394 259.2
L655.063 268.272
L655.733 281.232
L656.402 246.24
L657.072 250.128
L657.742 229.392
L658.411 231.984
L659.081 252.72
L659.75 230.688
L660.42 199.584
L661.09 224.208
L661.759 228.096
L662.429 252.72
L663.098 268.272
L663.768 252.72
L664.438 252.72
L665.107 265.68
L665.777 296.784
L666.446 270.864
L667.116 274.752
L667.786 257.904
L668.455 248.832
L669.794 282.528
L670.464 277.344
L671.134 261.792
L671.803 265.68
L672.473 289.008
L673.142 287.712
L673.812 285.12
L674.482 286.416
L675.821 278.64
L676.49 294.192
L677.83 252.72
L678.499 254.016
L679.169 286.416
L679.838 287.712
L680.508 296.784
L681.178 268.272
L681.847 266.976
L682.517 286.416
L683.186 268.272
L683.856 265.68
L684.526 273.456
L685.195 270.864
L685.865 285.12
L686.534 273.456
L687.204 278.64
L687.874 282.528
L688.543 269.568
L689.213 283.824
L689.882 291.6
L690.552 243.648
L691.222 234.576
L691.891 241.056
L692.561 255.312
L693.23 257.904
L693.9 266.976
L694.57 279.936
L695.239 290.304
L697.248 235.872
L697.918 273.456
L698.587 279.936
L699.257 294.192
L699.926 278.64
L700.596 269.568
L701.266 270.864
L701.935 265.68
L702.605 268.272
L703.274 281.232
L703.944 283.824
L704.614 285.12
L705.283 276.048
L705.953 283.824
L706.622 289.008
L707.292 300.672
L707.962 260.496
L708.631 287.712
L709.301 287.712
L709.97 256.608
L710.64 248.832
L711.979 259.2
L712.649 266.976
L713.318 300.672
L713.988 282.528
L714.658 290.304
L715.327 318.816
L715.997 292.896
L716.666 282.528
L717.336 259.2
L718.006 277.344
L718.675 272.16
L719.345 250.128
L720.014 248.832
L720.684 248.832
L721.354 266.976
L722.023 251.424
L722.693 269.568
L723.362 246.24
L724.702 278.64
L725.371 291.6
L726.041 292.896
L727.38 264.384
L728.05 242.352
L728.719 225.504
L729.389 268.272
L730.058 261.792
L730.728 278.64
L731.398 250.128
L732.067 259.2
L732.737 250.128
L733.406 248.832
L734.076 255.312
L734.746 274.752
L735.415 270.864
L736.085 277.344
L736.754 277.344
L737.424 270.864
L738.094 251.424
L738.763 250.128
L739.433 285.12
L740.102 283.824
L740.772 294.192
L741.442 274.752
L742.111 273.456
L742.781 281.232
L744.12 260.496
L744.79 260.496
L745.459 287.712
L746.129 277.344
L746.798 304.56
L747.468 301.968
L748.138 304.56
L748.807 300.672
L749.477 283.824
L750.816 294.192
L751.486 270.864
L752.155 263.088
L752.825 294.192
L753.494 291.6
L754.164 274.752
L754.834 263.088
L755.503 273.456
L756.173 260.496
L756.842 263.088
L757.512 270.864
L758.182 277.344
L758.851 287.712
L760.19 290.304
L760.86 312.336
L761.53 292.896
L762.199 279.936
L762.869 296.784
L763.538 277.344
L764.208 286.416
L764.878 304.56
L765.547 308.448
L766.217 295.488
L766.886 316.224
L767.556 296.784
L768.226 314.928
L768.895 322.704
L769.565 336.96
L770.234 346.032
L770.904 333.072
L771.574 336.96
L772.243 322.704
L772.913 291.6
L773.582 285.12
L774.252 286.416
L774.922 283.824
L775.591 290.304
L776.261 299.376
L776.93 295.488
L777.6 276.048
L777.6 276.048" style="fill:none;stroke:#008000;stroke-linecap:square;"/>
   </g>
   <g id="line2d_3">
    <path clip-path="url(#p7ceb695115)" d="
M108 583.2
L122.062 583.2
L122.731 581.904
L123.401 581.904
L124.07 583.2
L124.74 583.2
L125.41 581.904
L127.418 581.904
L128.088 583.2
L133.445 583.2
L134.114 581.904
L134.784 583.2
L138.802 583.2
L139.471 581.904
L140.141 583.2
L142.15 583.2
L142.819 581.904
L143.489 579.312
L144.158 580.608
L145.498 580.608
L146.167 583.2
L148.176 583.2
L148.846 581.904
L149.515 581.904
L150.185 580.608
L150.854 583.2
L151.524 580.608
L152.194 581.904
L153.533 579.312
L154.202 581.904
L154.872 583.2
L155.542 583.2
L156.211 580.608
L156.881 583.2
L157.55 581.904
L158.22 581.904
L158.89 583.2
L160.229 580.608
L160.898 580.608
L162.238 583.2
L162.907 579.312
L163.577 581.904
L164.246 581.904
L164.916 579.312
L165.586 578.016
L166.255 579.312
L166.925 583.2
L167.594 580.608
L168.264 580.608
L168.934 581.904
L169.603 581.904
L170.942 579.312
L171.612 580.608
L172.282 579.312
L172.951 579.312
L173.621 581.904
L174.96 579.312
L175.63 579.312
L176.299 580.608
L176.969 580.608
L177.638 581.904
L178.308 580.608
L178.978 581.904
L179.647 581.904
L180.317 583.2
L180.986 583.2
L181.656 579.312
L182.995 581.904
L183.665 579.312
L184.334 580.608
L185.004 583.2
L185.674 578.016
L186.343 578.016
L187.013 581.904
L187.682 579.312
L188.352 579.312
L189.022 581.904
L189.691 579.312
L190.361 580.608
L191.03 579.312
L191.7 580.608
L192.37 576.72
L193.039 575.424
L193.709 575.424
L194.378 579.312
L195.718 576.72
L196.387 579.312
L197.057 579.312
L197.726 576.72
L198.396 579.312
L199.066 578.016
L199.735 580.608
L200.405 578.016
L201.074 583.2
L201.744 580.608
L202.414 583.2
L203.083 580.608
L203.753 581.904
L204.422 578.016
L205.092 576.72
L205.762 581.904
L206.431 578.016
L207.101 578.016
L207.77 580.608
L208.44 580.608
L209.11 579.312
L209.779 579.312
L210.449 575.424
L211.118 575.424
L211.788 574.128
L212.458 578.016
L213.127 576.72
L213.797 579.312
L214.466 579.312
L215.136 580.608
L215.806 580.608
L216.475 578.016
L217.814 583.2
L218.484 576.72
L219.154 580.608
L219.823 579.312
L220.493 579.312
L221.162 580.608
L221.832 579.312
L222.502 576.72
L223.171 575.424
L223.841 575.424
L224.51 579.312
L225.18 578.016
L225.85 574.128
L226.519 581.904
L227.189 581.904
L227.858 579.312
L229.198 576.72
L229.867 579.312
L230.537 579.312
L231.206 578.016
L231.876 578.016
L232.546 576.72
L233.215 580.608
L233.885 579.312
L234.554 579.312
L235.224 575.424
L235.894 576.72
L236.563 576.72
L237.233 580.608
L237.902 580.608
L238.572 578.016
L239.242 580.608
L239.911 580.608
L240.581 578.016
L241.25 581.904
L241.92 581.904
L242.59 579.312
L243.259 579.312
L243.929 581.904
L244.598 578.016
L245.938 578.016
L246.607 580.608
L247.946 580.608
L248.616 581.904
L249.286 581.904
L249.955 579.312
L250.625 583.2
L251.964 580.608
L252.634 581.904
L253.303 580.608
L253.973 583.2
L254.642 580.608
L255.982 583.2
L256.651 578.016
L257.321 583.2
L257.99 583.2
L259.33 580.608
L259.999 580.608
L260.669 581.904
L261.338 580.608
L262.678 583.2
L263.347 580.608
L264.017 579.312
L264.686 580.608
L265.356 580.608
L266.026 581.904
L266.695 579.312
L268.704 583.2
L269.374 581.904
L270.043 579.312
L270.713 580.608
L271.382 580.608
L272.052 579.312
L272.722 575.424
L273.391 576.72
L274.061 580.608
L274.73 579.312
L275.4 581.904
L276.07 581.904
L277.409 579.312
L278.748 581.904
L280.087 581.904
L280.757 580.608
L281.426 581.904
L282.096 579.312
L282.766 580.608
L284.105 578.016
L284.774 581.904
L285.444 581.904
L286.114 580.608
L286.783 575.424
L287.453 579.312
L288.792 581.904
L289.462 580.608
L290.801 583.2
L291.47 581.904
L292.14 581.904
L292.81 579.312
L293.479 579.312
L294.149 583.2
L295.488 578.016
L296.158 579.312
L297.497 579.312
L298.166 581.904
L298.836 581.904
L299.506 580.608
L300.175 580.608
L300.845 578.016
L301.514 583.2
L302.184 581.904
L302.854 578.016
L303.523 581.904
L304.193 580.608
L304.862 578.016
L306.202 578.016
L306.871 583.2
L307.541 581.904
L308.88 581.904
L309.55 580.608
L310.219 580.608
L310.889 578.016
L311.558 576.72
L312.228 579.312
L312.898 576.72
L313.567 580.608
L314.237 580.608
L314.906 579.312
L315.576 579.312
L316.246 578.016
L316.915 580.608
L317.585 579.312
L318.254 579.312
L318.924 580.608
L319.594 578.016
L321.602 581.904
L322.272 580.608
L322.942 578.016
L323.611 581.904
L324.281 578.016
L324.95 580.608
L325.62 575.424
L326.29 576.72
L326.959 579.312
L328.298 576.72
L328.968 576.72
L329.638 580.608
L330.307 579.312
L330.977 580.608
L331.646 575.424
L332.316 575.424
L332.986 574.128
L333.655 578.016
L334.325 578.016
L334.994 576.72
L335.664 579.312
L336.334 578.016
L337.003 574.128
L337.673 576.72
L339.012 579.312
L340.351 579.312
L341.021 580.608
L341.69 579.312
L342.36 579.312
L343.03 583.2
L343.699 583.2
L344.369 580.608
L345.708 580.608
L346.378 578.016
L347.047 579.312
L348.386 579.312
L349.056 581.904
L349.726 580.608
L350.395 576.72
L351.734 576.72
L353.074 581.904
L353.743 583.2
L354.413 581.904
L355.082 578.016
L355.752 576.72
L356.422 581.904
L357.761 581.904
L358.43 583.2
L359.1 581.904
L360.439 581.904
L361.109 583.2
L361.778 579.312
L363.118 579.312
L363.787 580.608
L364.457 583.2
L365.126 581.904
L365.796 581.904
L366.466 579.312
L367.805 581.904
L368.474 579.312
L369.144 581.904
L370.483 581.904
L371.153 583.2
L371.822 580.608
L372.492 581.904
L373.162 575.424
L373.831 578.016
L374.501 578.016
L375.17 583.2
L375.84 583.2
L376.51 580.608
L377.179 581.904
L378.518 579.312
L379.188 581.904
L379.858 580.608
L381.197 580.608
L381.866 581.904
L382.536 580.608
L383.206 581.904
L383.875 576.72
L384.545 579.312
L385.214 580.608
L386.554 580.608
L387.223 583.2
L387.893 580.608
L388.562 583.2
L389.232 583.2
L389.902 579.312
L390.571 580.608
L391.241 579.312
L391.91 579.312
L392.58 581.904
L393.25 578.016
L394.589 580.608
L395.258 580.608
L395.928 583.2
L396.598 579.312
L397.267 579.312
L397.937 578.016
L399.946 581.904
L400.615 580.608
L401.285 581.904
L401.954 578.016
L402.624 571.536
L403.963 579.312
L404.633 580.608
L405.302 580.608
L405.972 578.016
L406.642 581.904
L407.311 580.608
L408.65 580.608
L409.32 579.312
L409.99 579.312
L410.659 580.608
L411.998 580.608
L412.668 581.904
L413.338 579.312
L414.007 578.016
L416.016 581.904
L418.025 581.904
L418.694 580.608
L419.364 578.016
L420.034 581.904
L421.373 581.904
L422.042 580.608
L422.712 580.608
L423.382 578.016
L424.051 580.608
L424.721 579.312
L425.39 579.312
L426.06 581.904
L426.73 579.312
L427.399 581.904
L428.069 581.904
L428.738 579.312
L429.408 578.016
L430.078 581.904
L430.747 581.904
L431.417 578.016
L432.086 580.608
L432.756 576.72
L433.426 580.608
L434.095 583.2
L434.765 581.904
L435.434 583.2
L436.104 581.904
L436.774 581.904
L437.443 580.608
L438.113 578.016
L439.452 580.608
L440.122 580.608
L441.461 583.2
L442.13 579.312
L442.8 581.904
L443.47 583.2
L444.139 578.016
L444.809 583.2
L445.478 580.608
L446.148 581.904
L446.818 572.832
L447.487 579.312
L448.157 581.904
L448.826 575.424
L449.496 553.392
L450.166 565.056
L450.835 552.096
L451.505 532.656
L452.174 530.064
L452.844 524.88
L453.514 489.888
L454.853 497.664
L455.522 496.368
L456.192 488.592
L456.862 493.776
L457.531 515.808
L458.201 498.96
L458.87 463.968
L459.54 482.112
L460.21 461.376
L460.879 469.152
L461.549 504.144
L462.888 463.968
L463.558 460.08
L464.227 496.368
L464.897 480.816
L465.566 475.632
L466.236 476.928
L466.906 466.56
L467.575 463.968
L468.914 484.704
L469.584 482.112
L470.923 460.08
L471.593 475.632
L472.262 461.376
L472.932 466.56
L473.602 461.376
L474.271 469.152
L474.941 483.408
L475.61 476.928
L476.28 483.408
L476.95 434.16
L477.619 463.968
L478.289 476.928
L478.958 487.296
L479.628 489.888
L480.298 479.52
L480.967 505.44
L481.637 473.04
L482.306 469.152
L482.976 505.44
L483.646 497.664
L484.315 502.848
L484.985 496.368
L485.654 496.368
L486.324 498.96
L486.994 495.072
L487.663 476.928
L488.333 462.672
L489.002 460.08
L489.672 453.6
L490.342 496.368
L491.011 492.48
L491.681 479.52
L492.35 493.776
L493.02 487.296
L493.69 478.224
L494.359 476.928
L495.029 488.592
L495.698 489.888
L496.368 496.368
L497.038 482.112
L497.707 495.072
L498.377 488.592
L499.046 489.888
L499.716 486
L500.386 492.48
L501.055 487.296
L501.725 488.592
L502.394 484.704
L503.064 456.192
L503.734 476.928
L504.403 475.632
L505.073 482.112
L505.742 484.704
L506.412 470.448
L507.082 487.296
L507.751 480.816
L508.421 492.48
L509.09 473.04
L509.76 492.48
L510.43 476.928
L511.099 487.296
L511.769 488.592
L512.438 488.592
L513.108 474.336
L513.778 465.264
L514.447 493.776
L515.117 467.856
L515.786 479.52
L516.456 469.152
L517.126 480.816
L517.795 495.072
L518.465 487.296
L519.134 510.624
L519.804 498.96
L520.474 513.216
L521.143 491.184
L521.813 497.664
L522.482 498.96
L523.152 476.928
L523.822 479.52
L524.491 506.736
L525.161 451.008
L525.83 487.296
L526.5 500.256
L527.17 498.96
L527.839 487.296
L528.509 482.112
L529.178 447.12
L529.848 486
L530.518 475.632
L531.187 486
L531.857 492.48
L532.526 462.672
L533.196 488.592
L533.866 487.296
L534.535 505.44
L535.205 501.552
L535.874 509.328
L536.544 511.92
L537.214 482.112
L537.883 478.224
L539.892 508.032
L540.562 478.224
L541.231 465.264
L541.901 500.256
L542.57 471.744
L543.24 452.304
L543.91 506.736
L544.579 502.848
L545.249 478.224
L546.588 504.144
L547.258 475.632
L547.927 522.288
L548.597 478.224
L549.266 484.704
L550.606 495.072
L551.275 486
L551.945 483.408
L552.614 506.736
L553.284 504.144
L553.954 483.408
L554.623 488.592
L555.293 491.184
L555.962 496.368
L556.632 483.408
L557.302 501.552
L557.971 489.888
L558.641 488.592
L559.31 511.92
L559.98 500.256
L560.65 517.104
L561.319 492.48
L561.989 478.224
L562.658 504.144
L563.328 484.704
L563.998 498.96
L564.667 476.928
L565.337 480.816
L566.006 462.672
L566.676 486
L567.346 501.552
L568.685 496.368
L569.354 496.368
L570.024 479.52
L570.694 502.848
L571.363 514.512
L572.033 483.408
L573.372 505.44
L574.042 478.224
L574.711 496.368
L575.381 501.552
L576.05 497.664
L576.72 495.072
L577.39 517.104
L578.059 505.44
L578.729 491.184
L579.398 486
L580.068 491.184
L580.738 500.256
L581.407 467.856
L582.077 510.624
L582.746 506.736
L583.416 523.584
L584.086 506.736
L584.755 511.92
L585.425 500.256
L586.094 498.96
L586.764 469.152
L587.434 476.928
L588.103 473.04
L588.773 497.664
L589.442 489.888
L590.112 491.184
L590.782 502.848
L591.451 511.92
L592.121 491.184
L592.79 509.328
L593.46 515.808
L594.13 492.48
L594.799 493.776
L595.469 514.512
L596.138 505.44
L596.808 493.776
L597.478 514.512
L598.147 519.696
L598.817 484.704
L599.486 489.888
L600.156 491.184
L600.826 522.288
L601.495 504.144
L602.165 513.216
L602.834 501.552
L603.504 504.144
L604.174 502.848
L604.843 492.48
L605.513 502.848
L606.182 504.144
L606.852 496.368
L608.191 498.96
L608.861 522.288
L609.53 498.96
L610.2 501.552
L610.87 486
L611.539 495.072
L612.209 470.448
L612.878 509.328
L613.548 478.224
L614.218 473.04
L614.887 478.224
L615.557 500.256
L616.226 495.072
L616.896 483.408
L617.566 492.48
L618.905 502.848
L619.574 493.776
L620.244 520.992
L620.914 508.032
L621.583 492.48
L622.253 479.52
L623.592 487.296
L624.262 488.592
L624.931 484.704
L625.601 511.92
L626.27 508.032
L626.94 496.368
L627.61 498.96
L628.279 493.776
L628.949 502.848
L629.618 518.4
L630.288 505.44
L630.958 501.552
L631.627 491.184
L632.297 496.368
L632.966 480.816
L633.636 505.44
L634.306 498.96
L634.975 522.288
L635.645 491.184
L636.314 513.216
L636.984 505.44
L637.654 501.552
L638.323 498.96
L638.993 489.888
L639.662 502.848
L640.332 486
L641.002 513.216
L641.671 488.592
L642.341 511.92
L643.01 501.552
L643.68 505.44
L644.35 508.032
L645.019 492.48
L645.689 504.144
L646.358 520.992
L647.028 486
L647.698 508.032
L649.037 513.216
L649.706 518.4
L650.376 498.96
L651.046 501.552
L651.715 515.808
L652.385 506.736
L653.054 502.848
L653.724 493.776
L654.394 508.032
L655.063 511.92
L655.733 497.664
L656.402 517.104
L657.072 500.256
L657.742 502.848
L658.411 506.736
L659.081 484.704
L659.75 510.624
L660.42 514.512
L661.09 528.768
L661.759 513.216
L662.429 511.92
L663.098 514.512
L663.768 528.768
L664.438 500.256
L665.107 511.92
L665.777 495.072
L666.446 497.664
L667.116 497.664
L667.786 522.288
L668.455 505.44
L669.125 513.216
L669.794 506.736
L670.464 513.216
L671.134 508.032
L671.803 511.92
L672.473 514.512
L673.142 501.552
L673.812 509.328
L674.482 502.848
L675.151 519.696
L675.821 514.512
L676.49 487.296
L677.16 492.48
L677.83 506.736
L678.499 518.4
L679.169 510.624
L679.838 509.328
L680.508 522.288
L681.178 524.88
L681.847 495.072
L682.517 483.408
L683.856 517.104
L684.526 498.96
L685.195 524.88
L685.865 506.736
L686.534 497.664
L687.204 508.032
L687.874 505.44
L688.543 526.176
L689.213 504.144
L689.882 489.888
L690.552 483.408
L691.891 493.776
L692.561 486
L693.23 513.216
L693.9 524.88
L694.57 517.104
L695.239 506.736
L695.909 487.296
L696.578 488.592
L697.248 520.992
L697.918 508.032
L698.587 500.256
L699.257 487.296
L699.926 510.624
L700.596 517.104
L701.266 500.256
L701.935 518.4
L702.605 489.888
L703.274 487.296
L703.944 509.328
L704.614 498.96
L705.283 515.808
L705.953 522.288
L707.292 476.928
L707.962 502.848
L708.631 491.184
L709.301 501.552
L709.97 524.88
L710.64 517.104
L711.31 511.92
L711.979 510.624
L712.649 531.36
L713.318 497.664
L713.988 502.848
L714.658 530.064
L715.327 489.888
L715.997 514.512
L716.666 515.808
L718.006 482.112
L718.675 501.552
L719.345 506.736
L720.014 492.48
L720.684 504.144
L721.354 496.368
L722.023 520.992
L722.693 509.328
L723.362 519.696
L724.032 510.624
L724.702 506.736
L725.371 517.104
L726.041 493.776
L726.71 515.808
L727.38 500.256
L728.05 489.888
L729.389 530.064
L730.728 487.296
L731.398 509.328
L732.067 509.328
L732.737 522.288
L733.406 522.288
L734.076 523.584
L734.746 523.584
L735.415 510.624
L736.085 513.216
L736.754 528.768
L737.424 514.512
L738.094 532.656
L738.763 531.36
L740.102 504.144
L740.772 508.032
L741.442 505.44
L742.111 506.736
L742.781 497.664
L743.45 505.44
L744.12 501.552
L744.79 528.768
L745.459 501.552
L746.129 495.072
L746.798 487.296
L747.468 532.656
L748.138 518.4
L748.807 506.736
L749.477 513.216
L750.146 513.216
L750.816 497.664
L751.486 509.328
L752.155 486
L752.825 506.736
L753.494 492.48
L754.164 489.888
L754.834 513.216
L755.503 514.512
L756.173 530.064
L756.842 518.4
L757.512 502.848
L758.182 498.96
L758.851 489.888
L759.521 515.808
L760.19 514.512
L760.86 526.176
L761.53 505.44
L762.199 533.952
L762.869 526.176
L763.538 514.512
L764.208 506.736
L764.878 508.032
L765.547 513.216
L766.217 506.736
L766.886 498.96
L767.556 514.512
L768.226 509.328
L768.895 514.512
L769.565 523.584
L770.234 514.512
L770.904 517.104
L771.574 501.552
L772.243 509.328
L772.913 511.92
L773.582 515.808
L774.252 526.176
L774.922 508.032
L775.591 518.4
L776.261 519.696
L776.93 501.552
L777.6 501.552
L777.6 501.552" style="fill:none;stroke:#0000ff;stroke-linecap:square;"/>
   </g>
   <g id="patch_3">
    <path d="
M777.6 583.2
L777.6 64.8" style="fill:none;stroke:#000000;stroke-linecap:square;stroke-linejoin:miter;"/>
   </g>
   <g id="patch_4">
    <path d="
M108 583.2
L108 64.8" style="fill:none;stroke:#000000;stroke-linecap:square;stroke-linejoin:miter;"/>
   </g>
   <g id="patch_5">
    <path d="
M108 64.8
L777.6 64.8" style="fill:none;stroke:#000000;stroke-linecap:square;stroke-linejoin:miter;"/>
   </g>
   <g id="patch_6">
    <path d="
M108 583.2
L777.6 583.2" style="fill:none;stroke:#000000;stroke-linecap:square;stroke-linejoin:miter;"/>
   </g>
   <g id="matplotlib.axis_1">
    <g id="xtick_1">
     <g id="line2d_4">
      <defs>
       <path d="
M0 0
L0 -4" id="mc7db9fdffb" style="stroke:#000000;stroke-width:0.5;"/>
      </defs>
      <g>
       <use style="stroke:#000000;stroke-width:0.5;" x="108.0" xlink:href="#mc7db9fdffb" y="583.2"/>
      </g>
     </g>
     <g id="line2d_5">
      <defs>
       <path d="
M0 0
L0 4" id="m5a7d422ac3" style="stroke:#000000;stroke-width:0.5;"/>
      </defs>
      <g>
       <use style="stroke:#000000;stroke-width:0.5;" x="108.0" xlink:href="#m5a7d422ac3" y="64.8"/>
      </g>
     </g>
     <g id="text_1">
      <!-- 0 -->
      <defs>
       <path d="
M31.7812 66.4062
Q24.1719 66.4062 20.3281 58.9062
Q16.5 51.4219 16.5 36.375
Q16.5 21.3906 20.3281 13.8906
Q24.1719 6.39062 31.7812 6.39062
Q39.4531 6.39062 43.2812 13.8906
Q47.125 21.3906 47.125 36.375
Q47.125 51.4219 43.2812 58.9062
Q39.4531 66.4062 31.7812 66.4062
M31.7812 74.2188
Q44.0469 74.2188 50.5156 64.5156
Q56.9844 54.8281 56.9844 36.375
Q56.9844 17.9688 50.5156 8.26562
Q44.0469 -1.42188 31.7812 -1.42188
Q19.5312 -1.42188 13.0625 8.26562
Q6.59375 17.9688 6.59375 36.375
Q6.59375 54.8281 13.0625 64.5156
Q19.5312 74.2188 31.7812 74.2188" id="BitstreamVeraSans-Roman-30"/>
      </defs>
      <g transform="translate(104.9765625 596.318125)scale(0.12 -0.12)">
       <use xlink:href="#BitstreamVeraSans-Roman-30"/>
      </g>
     </g>
    </g>
    <g id="xtick_2">
     <g id="line2d_6">
      <g>
       <use style="stroke:#000000;stroke-width:0.5;" x="275.4" xlink:href="#mc7db9fdffb" y="583.2"/>
      </g>
     </g>
     <g id="line2d_7">
      <g>
       <use style="stroke:#000000;stroke-width:0.5;" x="275.4" xlink:href="#m5a7d422ac3" y="64.8"/>
      </g>
     </g>
     <g id="text_2">
      <!-- 50000 -->
      <defs>
       <path d="
M10.7969 72.9062
L49.5156 72.9062
L49.5156 64.5938
L19.8281 64.5938
L19.8281 46.7344
Q21.9688 47.4688 24.1094 47.8281
Q26.2656 48.1875 28.4219 48.1875
Q40.625 48.1875 47.75 41.5
Q54.8906 34.8125 54.8906 23.3906
Q54.8906 11.625 47.5625 5.09375
Q40.2344 -1.42188 26.9062 -1.42188
Q22.3125 -1.42188 17.5469 -0.640625
Q12.7969 0.140625 7.71875 1.70312
L7.71875 11.625
Q12.1094 9.23438 16.7969 8.0625
Q21.4844 6.89062 26.7031 6.89062
Q35.1562 6.89062 40.0781 11.3281
Q45.0156 15.7656 45.0156 23.3906
Q45.0156 31 40.0781 35.4375
Q35.1562 39.8906 26.7031 39.8906
Q22.75 39.8906 18.8125 39.0156
Q14.8906 38.1406 10.7969 36.2812
z
" id="BitstreamVeraSans-Roman-35"/>
      </defs>
      <g transform="translate(257.1740625 596.318125)scale(0.12 -0.12)">
       <use xlink:href="#BitstreamVeraSans-Roman-35"/>
       <use x="63.623046875" xlink:href="#BitstreamVeraSans-Roman-30"/>
       <use x="127.24609375" xlink:href="#BitstreamVeraSans-Roman-30"/>
       <use x="190.869140625" xlink:href="#BitstreamVeraSans-Roman-30"/>
       <use x="254.4921875" xlink:href="#BitstreamVeraSans-Roman-30"/>
      </g>
     </g>
    </g>
    <g id="xtick_3">
     <g id="line2d_8">
      <g>
       <use style="stroke:#000000;stroke-width:0.5;" x="442.8" xlink:href="#mc7db9fdffb" y="583.2"/>
      </g>
     </g>
     <g id="line2d_9">
      <g>
       <use style="stroke:#000000;stroke-width:0.5;" x="442.8" xlink:href="#m5a7d422ac3" y="64.8"/>
      </g>
     </g>
     <g id="text_3">
      <!-- 100000 -->
      <defs>
       <path d="
M12.4062 8.29688
L28.5156 8.29688
L28.5156 63.9219
L10.9844 60.4062
L10.9844 69.3906
L28.4219 72.9062
L38.2812 72.9062
L38.2812 8.29688
L54.3906 8.29688
L54.3906 0
L12.4062 0
z
" id="BitstreamVeraSans-Roman-31"/>
      </defs>
      <g transform="translate(420.9525 596.318125)scale(0.12 -0.12)">
       <use xlink:href="#BitstreamVeraSans-Roman-31"/>
       <use x="63.623046875" xlink:href="#BitstreamVeraSans-Roman-30"/>
       <use x="127.24609375" xlink:href="#BitstreamVeraSans-Roman-30"/>
       <use x="190.869140625" xlink:href="#BitstreamVeraSans-Roman-30"/>
       <use x="254.4921875" xlink:href="#BitstreamVeraSans-Roman-30"/>
       <use x="318.115234375" xlink:href="#BitstreamVeraSans-Roman-30"/>
      </g>
     </g>
    </g>
    <g id="xtick_4">
     <g id="line2d_10">
      <g>
       <use style="stroke:#000000;stroke-width:0.5;" x="610.2" xlink:href="#mc7db9fdffb" y="583.2"/>
      </g>
     </g>
     <g id="line2d_11">
      <g>
       <use style="stroke:#000000;stroke-width:0.5;" x="610.2" xlink:href="#m5a7d422ac3" y="64.8"/>
      </g>
     </g>
     <g id="text_4">
      <!-- 150000 -->
      <g transform="translate(588.3525 596.318125)scale(0.12 -0.12)">
       <use xlink:href="#BitstreamVeraSans-Roman-31"/>
       <use x="63.623046875" xlink:href="#BitstreamVeraSans-Roman-35"/>
       <use x="127.24609375" xlink:href="#BitstreamVeraSans-Roman-30"/>
       <use x="190.869140625" xlink:href="#BitstreamVeraSans-Roman-30"/>
       <use x="254.4921875" xlink:href="#BitstreamVeraSans-Roman-30"/>
       <use x="318.115234375" xlink:href="#BitstreamVeraSans-Roman-30"/>
      </g>
     </g>
    </g>
    <g id="xtick_5">
     <g id="line2d_12">
      <g>
       <use style="stroke:#000000;stroke-width:0.5;" x="777.6" xlink:href="#mc7db9fdffb" y="583.2"/>
      </g>
     </g>
     <g id="line2d_13">
      <g>
       <use style="stroke:#000000;stroke-width:0.5;" x="777.6" xlink:href="#m5a7d422ac3" y="64.8"/>
      </g>
     </g>
     <g id="text_5">
      <!-- 200000 -->
      <defs>
       <path d="
M19.1875 8.29688
L53.6094 8.29688
L53.6094 0
L7.32812 0
L7.32812 8.29688
Q12.9375 14.1094 22.625 23.8906
Q32.3281 33.6875 34.8125 36.5312
Q39.5469 41.8438 41.4219 45.5312
Q43.3125 49.2188 43.3125 52.7812
Q43.3125 58.5938 39.2344 62.25
Q35.1562 65.9219 28.6094 65.9219
Q23.9688 65.9219 18.8125 64.3125
Q13.6719 62.7031 7.8125 59.4219
L7.8125 69.3906
Q13.7656 71.7812 18.9375 73
Q24.125 74.2188 28.4219 74.2188
Q39.75 74.2188 46.4844 68.5469
Q53.2188 62.8906 53.2188 53.4219
Q53.2188 48.9219 51.5312 44.8906
Q49.8594 40.875 45.4062 35.4062
Q44.1875 33.9844 37.6406 27.2188
Q31.1094 20.4531 19.1875 8.29688" id="BitstreamVeraSans-Roman-32"/>
      </defs>
      <g transform="translate(755.533125 596.318125)scale(0.12 -0.12)">
       <use xlink:href="#BitstreamVeraSans-Roman-32"/>
       <use x="63.623046875" xlink:href="#BitstreamVeraSans-Roman-30"/>
       <use x="127.24609375" xlink:href="#BitstreamVeraSans-Roman-30"/>
       <use x="190.869140625" xlink:href="#BitstreamVeraSans-Roman-30"/>
       <use x="254.4921875" xlink:href="#BitstreamVeraSans-Roman-30"/>
       <use x="318.115234375" xlink:href="#BitstreamVeraSans-Roman-30"/>
      </g>
     </g>
    </g>
    <g id="text_6">
     <!-- t / ms -->
     <defs>
      <path id="BitstreamVeraSans-Roman-20"/>
      <path d="
M18.3125 70.2188
L18.3125 54.6875
L36.8125 54.6875
L36.8125 47.7031
L18.3125 47.7031
L18.3125 18.0156
Q18.3125 11.3281 20.1406 9.42188
Q21.9688 7.51562 27.5938 7.51562
L36.8125 7.51562
L36.8125 0
L27.5938 0
Q17.1875 0 13.2344 3.875
Q9.28125 7.76562 9.28125 18.0156
L9.28125 47.7031
L2.6875 47.7031
L2.6875 54.6875
L9.28125 54.6875
L9.28125 70.2188
z
" id="BitstreamVeraSans-Roman-74"/>
      <path d="
M52 44.1875
Q55.375 50.25 60.0625 53.125
Q64.75 56 71.0938 56
Q79.6406 56 84.2812 50.0156
Q88.9219 44.0469 88.9219 33.0156
L88.9219 0
L79.8906 0
L79.8906 32.7188
Q79.8906 40.5781 77.0938 44.375
Q74.3125 48.1875 68.6094 48.1875
Q61.625 48.1875 57.5625 43.5469
Q53.5156 38.9219 53.5156 30.9062
L53.5156 0
L44.4844 0
L44.4844 32.7188
Q44.4844 40.625 41.7031 44.4062
Q38.9219 48.1875 33.1094 48.1875
Q26.2188 48.1875 22.1562 43.5312
Q18.1094 38.875 18.1094 30.9062
L18.1094 0
L9.07812 0
L9.07812 54.6875
L18.1094 54.6875
L18.1094 46.1875
Q21.1875 51.2188 25.4844 53.6094
Q29.7812 56 35.6875 56
Q41.6562 56 45.8281 52.9688
Q50 49.9531 52 44.1875" id="BitstreamVeraSans-Roman-6d"/>
      <path d="
M44.2812 53.0781
L44.2812 44.5781
Q40.4844 46.5312 36.375 47.5
Q32.2812 48.4844 27.875 48.4844
Q21.1875 48.4844 17.8438 46.4375
Q14.5 44.3906 14.5 40.2812
Q14.5 37.1562 16.8906 35.375
Q19.2812 33.5938 26.5156 31.9844
L29.5938 31.2969
Q39.1562 29.25 43.1875 25.5156
Q47.2188 21.7812 47.2188 15.0938
Q47.2188 7.46875 41.1875 3.01562
Q35.1562 -1.42188 24.6094 -1.42188
Q20.2188 -1.42188 15.4531 -0.5625
Q10.6875 0.296875 5.42188 2
L5.42188 11.2812
Q10.4062 8.6875 15.2344 7.39062
Q20.0625 6.10938 24.8125 6.10938
Q31.1562 6.10938 34.5625 8.28125
Q37.9844 10.4531 37.9844 14.4062
Q37.9844 18.0625 35.5156 20.0156
Q33.0625 21.9688 24.7031 23.7812
L21.5781 24.5156
Q13.2344 26.2656 9.51562 29.9062
Q5.8125 33.5469 5.8125 39.8906
Q5.8125 47.6094 11.2812 51.7969
Q16.75 56 26.8125 56
Q31.7812 56 36.1719 55.2656
Q40.5781 54.5469 44.2812 53.0781" id="BitstreamVeraSans-Roman-73"/>
      <path d="
M25.3906 72.9062
L33.6875 72.9062
L8.29688 -9.28125
L0 -9.28125
z
" id="BitstreamVeraSans-Roman-2f"/>
     </defs>
     <g transform="translate(425.9353125 612.931875)scale(0.12 -0.12)">
      <use xlink:href="#BitstreamVeraSans-Roman-74"/>
      <use x="39.208984375" xlink:href="#BitstreamVeraSans-Roman-20"/>
      <use x="70.99609375" xlink:href="#BitstreamVeraSans-Roman-2f"/>
      <use x="104.6875" xlink:href="#BitstreamVeraSans-Roman-20"/>
      <use x="136.474609375" xlink:href="#BitstreamVeraSans-Roman-6d"/>
      <use x="233.88671875" xlink:href="#BitstreamVeraSans-Roman-73"/>
     </g>
    </g>
   </g>
   <g id="matplotlib.axis_2">
    <g id="ytick_1">
     <g id="line2d_14">
      <defs>
       <path d="
M0 0
L4 0" id="md7965d1ba0" style="stroke:#000000;stroke-width:0.5;"/>
      </defs>
      <g>
       <use style="stroke:#000000;stroke-width:0.5;" x="108.0" xlink:href="#md7965d1ba0" y="583.2"/>
      </g>
     </g>
     <g id="line2d_15">
      <defs>
       <path d="
M0 0
L-4 0" id="md9a1c1a7cd" style="stroke:#000000;stroke-width:0.5;"/>
      </defs>
      <g>
       <use style="stroke:#000000;stroke-width:0.5;" x="777.6" xlink:href="#md9a1c1a7cd" y="583.2"/>
      </g>
     </g>
     <g id="text_7">
      <!-- 0 -->
      <g transform="translate(97.953125 586.51125)scale(0.12 -0.12)">
       <use xlink:href="#BitstreamVeraSans-Roman-30"/>
      </g>
     </g>
    </g>
    <g id="ytick_2">
     <g id="line2d_16">
      <g>
       <use style="stroke:#000000;stroke-width:0.5;" x="108.0" xlink:href="#md7965d1ba0" y="518.4"/>
      </g>
     </g>
     <g id="line2d_17">
      <g>
       <use style="stroke:#000000;stroke-width:0.5;" x="777.6" xlink:href="#md9a1c1a7cd" y="518.4"/>
      </g>
     </g>
     <g id="text_8">
      <!-- 50 -->
      <g transform="translate(90.453125 521.71125)scale(0.12 -0.12)">
       <use xlink:href="#BitstreamVeraSans-Roman-35"/>
       <use x="63.623046875" xlink:href="#BitstreamVeraSans-Roman-30"/>
      </g>
     </g>
    </g>
    <g id="ytick_3">
     <g id="line2d_18">
      <g>
       <use style="stroke:#000000;stroke-width:0.5;" x="108.0" xlink:href="#md7965d1ba0" y="453.6"/>
      </g>
     </g>
     <g id="line2d_19">
      <g>
       <use style="stroke:#000000;stroke-width:0.5;" x="777.6" xlink:href="#md9a1c1a7cd" y="453.6"/>
      </g>
     </g>
     <g id="text_9">
      <!-- 100 -->
      <g transform="translate(83.21 456.91125)scale(0.12 -0.12)">
       <use xlink:href="#BitstreamVeraSans-Roman-31"/>
       <use x="63.623046875" xlink:href="#BitstreamVeraSans-Roman-30"/>
       <use x="127.24609375" xlink:href="#BitstreamVeraSans-Roman-30"/>
      </g>
     </g>
    </g>
    <g id="ytick_4">
     <g id="line2d_20">
      <g>
       <use style="stroke:#000000;stroke-width:0.5;" x="108.0" xlink:href="#md7965d1ba0" y="388.8"/>
      </g>
     </g>
     <g id="line2d_21">
      <g>
       <use style="stroke:#000000;stroke-width:0.5;" x="777.6" xlink:href="#md9a1c1a7cd" y="388.8"/>
      </g>
     </g>
     <g id="text_10">
      <!-- 150 -->
      <g transform="translate(83.21 392.11125)scale(0.12 -0.12)">
       <use xlink:href="#BitstreamVeraSans-Roman-31"/>
       <use x="63.623046875" xlink:href="#BitstreamVeraSans-Roman-35"/>
       <use x="127.24609375" xlink:href="#BitstreamVeraSans-Roman-30"/>
      </g>
     </g>
    </g>
    <g id="ytick_5">
     <g id="line2d_22">
      <g>
       <use style="stroke:#000000;stroke-width:0.5;" x="108.0" xlink:href="#md7965d1ba0" y="324.0"/>
      </g>
     </g>
     <g id="line2d_23">
      <g>
       <use style="stroke:#000000;stroke-width:0.5;" x="777.6" xlink:href="#md9a1c1a7cd" y="324.0"/>
      </g>
     </g>
     <g id="text_11">
      <!-- 200 -->
      <g transform="translate(82.77125 327.31125)scale(0.12 -0.12)">
       <use xlink:href="#BitstreamVeraSans-Roman-32"/>
       <use x="63.623046875" xlink:href="#BitstreamVeraSans-Roman-30"/>
       <use x="127.24609375" xlink:href="#BitstreamVeraSans-Roman-30"/>
      </g>
     </g>
    </g>
    <g id="ytick_6">
     <g id="line2d_24">
      <g>
       <use style="stroke:#000000;stroke-width:0.5;" x="108.0" xlink:href="#md7965d1ba0" y="259.2"/>
      </g>
     </g>
     <g id="line2d_25">
      <g>
       <use style="stroke:#000000;stroke-width:0.5;" x="777.6" xlink:href="#md9a1c1a7cd" y="259.2"/>
      </g>
     </g>
     <g id="text_12">
      <!-- 250 -->
      <g transform="translate(82.77125 262.51125)scale(0.12 -0.12)">
       <use xlink:href="#BitstreamVeraSans-Roman-32"/>
       <use x="63.623046875" xlink:href="#BitstreamVeraSans-Roman-35"/>
       <use x="127.24609375" xlink:href="#BitstreamVeraSans-Roman-30"/>
      </g>
     </g>
    </g>
    <g id="ytick_7">
     <g id="line2d_26">
      <g>
       <use style="stroke:#000000;stroke-width:0.5;" x="108.0" xlink:href="#md7965d1ba0" y="194.4"/>
      </g>
     </g>
     <g id="line2d_27">
      <g>
       <use style="stroke:#000000;stroke-width:0.5;" x="777.6" xlink:href="#md9a1c1a7cd" y="194.4"/>
      </g>
     </g>
     <g id="text_13">
      <!-- 300 -->
      <defs>
       <path d="
M40.5781 39.3125
Q47.6562 37.7969 51.625 33
Q55.6094 28.2188 55.6094 21.1875
Q55.6094 10.4062 48.1875 4.48438
Q40.7656 -1.42188 27.0938 -1.42188
Q22.5156 -1.42188 17.6562 -0.515625
Q12.7969 0.390625 7.625 2.20312
L7.625 11.7188
Q11.7188 9.32812 16.5938 8.10938
Q21.4844 6.89062 26.8125 6.89062
Q36.0781 6.89062 40.9375 10.5469
Q45.7969 14.2031 45.7969 21.1875
Q45.7969 27.6406 41.2812 31.2656
Q36.7656 34.9062 28.7188 34.9062
L20.2188 34.9062
L20.2188 43.0156
L29.1094 43.0156
Q36.375 43.0156 40.2344 45.9219
Q44.0938 48.8281 44.0938 54.2969
Q44.0938 59.9062 40.1094 62.9062
Q36.1406 65.9219 28.7188 65.9219
Q24.6562 65.9219 20.0156 65.0312
Q15.375 64.1562 9.8125 62.3125
L9.8125 71.0938
Q15.4375 72.6562 20.3438 73.4375
Q25.25 74.2188 29.5938 74.2188
Q40.8281 74.2188 47.3594 69.1094
Q53.9062 64.0156 53.9062 55.3281
Q53.9062 49.2656 50.4375 45.0938
Q46.9688 40.9219 40.5781 39.3125" id="BitstreamVeraSans-Roman-33"/>
      </defs>
      <g transform="translate(82.806875 197.71125)scale(0.12 -0.12)">
       <use xlink:href="#BitstreamVeraSans-Roman-33"/>
       <use x="63.623046875" xlink:href="#BitstreamVeraSans-Roman-30"/>
       <use x="127.24609375" xlink:href="#BitstreamVeraSans-Roman-30"/>
      </g>
     </g>
    </g>
    <g id="ytick_8">
     <g id="line2d_28">
      <g>
       <use style="stroke:#000000;stroke-width:0.5;" x="108.0" xlink:href="#md7965d1ba0" y="129.6"/>
      </g>
     </g>
     <g id="line2d_29">
      <g>
       <use style="stroke:#000000;stroke-width:0.5;" x="777.6" xlink:href="#md9a1c1a7cd" y="129.6"/>
      </g>
     </g>
     <g id="text_14">
      <!-- 350 -->
      <g transform="translate(82.806875 132.91125)scale(0.12 -0.12)">
       <use xlink:href="#BitstreamVeraSans-Roman-33"/>
       <use x="63.623046875" xlink:href="#BitstreamVeraSans-Roman-35"/>
       <use x="127.24609375" xlink:href="#BitstreamVeraSans-Roman-30"/>
      </g>
     </g>
    </g>
    <g id="ytick_9">
     <g id="line2d_30">
      <g>
       <use style="stroke:#000000;stroke-width:0.5;" x="108.0" xlink:href="#md7965d1ba0" y="64.8"/>
      </g>
     </g>
     <g id="line2d_31">
      <g>
       <use style="stroke:#000000;stroke-width:0.5;" x="777.6" xlink:href="#md9a1c1a7cd" y="64.8"/>
      </g>
     </g>
     <g id="text_15">
      <!-- 400 -->
      <defs>
       <path d="
M37.7969 64.3125
L12.8906 25.3906
L37.7969 25.3906
z

M35.2031 72.9062
L47.6094 72.9062
L47.6094 25.3906
L58.0156 25.3906
L58.0156 17.1875
L47.6094 17.1875
L47.6094 0
L37.7969 0
L37.7969 17.1875
L4.89062 17.1875
L4.89062 26.7031
z
" id="BitstreamVeraSans-Roman-34"/>
      </defs>
      <g transform="translate(82.47875 68.11125)scale(0.12 -0.12)">
       <use xlink:href="#BitstreamVeraSans-Roman-34"/>
       <use x="63.623046875" xlink:href="#BitstreamVeraSans-Roman-30"/>
       <use x="127.24609375" xlink:href="#BitstreamVeraSans-Roman-30"/>
      </g>
     </g>
    </g>
    <g id="text_16">
     <!-- particle numbers -->
     <defs>
      <path d="
M41.1094 46.2969
Q39.5938 47.1719 37.8125 47.5781
Q36.0312 48 33.8906 48
Q26.2656 48 22.1875 43.0469
Q18.1094 38.0938 18.1094 28.8125
L18.1094 0
L9.07812 0
L9.07812 54.6875
L18.1094 54.6875
L18.1094 46.1875
Q20.9531 51.1719 25.4844 53.5781
Q30.0312 56 36.5312 56
Q37.4531 56 38.5781 55.875
Q39.7031 55.7656 41.0625 55.5156
z
" id="BitstreamVeraSans-Roman-72"/>
      <path d="
M34.2812 27.4844
Q23.3906 27.4844 19.1875 25
Q14.9844 22.5156 14.9844 16.5
Q14.9844 11.7188 18.1406 8.90625
Q21.2969 6.10938 26.7031 6.10938
Q34.1875 6.10938 38.7031 11.4062
Q43.2188 16.7031 43.2188 25.4844
L43.2188 27.4844
z

M52.2031 31.2031
L52.2031 0
L43.2188 0
L43.2188 8.29688
Q40.1406 3.32812 35.5469 0.953125
Q30.9531 -1.42188 24.3125 -1.42188
Q15.9219 -1.42188 10.9531 3.29688
Q6 8.01562 6 15.9219
Q6 25.1406 12.1719 29.8281
Q18.3594 34.5156 30.6094 34.5156
L43.2188 34.5156
L43.2188 35.4062
Q43.2188 41.6094 39.1406 45
Q35.0625 48.3906 27.6875 48.3906
Q23 48.3906 18.5469 47.2656
Q14.1094 46.1406 10.0156 43.8906
L10.0156 52.2031
Q14.9375 54.1094 19.5781 55.0469
Q24.2188 56 28.6094 56
Q40.4844 56 46.3438 49.8438
Q52.2031 43.7031 52.2031 31.2031" id="BitstreamVeraSans-Roman-61"/>
      <path d="
M54.8906 33.0156
L54.8906 0
L45.9062 0
L45.9062 32.7188
Q45.9062 40.4844 42.875 44.3281
Q39.8438 48.1875 33.7969 48.1875
Q26.5156 48.1875 22.3125 43.5469
Q18.1094 38.9219 18.1094 30.9062
L18.1094 0
L9.07812 0
L9.07812 54.6875
L18.1094 54.6875
L18.1094 46.1875
Q21.3438 51.125 25.7031 53.5625
Q30.0781 56 35.7969 56
Q45.2188 56 50.0469 50.1719
Q54.8906 44.3438 54.8906 33.0156" id="BitstreamVeraSans-Roman-6e"/>
      <path d="
M9.42188 54.6875
L18.4062 54.6875
L18.4062 0
L9.42188 0
z

M9.42188 75.9844
L18.4062 75.9844
L18.4062 64.5938
L9.42188 64.5938
z
" id="BitstreamVeraSans-Roman-69"/>
      <path d="
M48.6875 27.2969
Q48.6875 37.2031 44.6094 42.8438
Q40.5312 48.4844 33.4062 48.4844
Q26.2656 48.4844 22.1875 42.8438
Q18.1094 37.2031 18.1094 27.2969
Q18.1094 17.3906 22.1875 11.75
Q26.2656 6.10938 33.4062 6.10938
Q40.5312 6.10938 44.6094 11.75
Q48.6875 17.3906 48.6875 27.2969
M18.1094 46.3906
Q20.9531 51.2656 25.2656 53.625
Q29.5938 56 35.5938 56
Q45.5625 56 51.7812 48.0938
Q58.0156 40.1875 58.0156 27.2969
Q58.0156 14.4062 51.7812 6.48438
Q45.5625 -1.42188 35.5938 -1.42188
Q29.5938 -1.42188 25.2656 0.953125
Q20.9531 3.32812 18.1094 8.20312
L18.1094 0
L9.07812 0
L9.07812 75.9844
L18.1094 75.9844
z
" id="BitstreamVeraSans-Roman-62"/>
      <path d="
M8.5 21.5781
L8.5 54.6875
L17.4844 54.6875
L17.4844 21.9219
Q17.4844 14.1562 20.5 10.2656
Q23.5312 6.39062 29.5938 6.39062
Q36.8594 6.39062 41.0781 11.0312
Q45.3125 15.6719 45.3125 23.6875
L45.3125 54.6875
L54.2969 54.6875
L54.2969 0
L45.3125 0
L45.3125 8.40625
Q42.0469 3.42188 37.7188 1
Q33.4062 -1.42188 27.6875 -1.42188
Q18.2656 -1.42188 13.375 4.4375
Q8.5 10.2969 8.5 21.5781" id="BitstreamVeraSans-Roman-75"/>
      <path d="
M56.2031 29.5938
L56.2031 25.2031
L14.8906 25.2031
Q15.4844 15.9219 20.4844 11.0625
Q25.4844 6.20312 34.4219 6.20312
Q39.5938 6.20312 44.4531 7.46875
Q49.3125 8.73438 54.1094 11.2812
L54.1094 2.78125
Q49.2656 0.734375 44.1875 -0.34375
Q39.1094 -1.42188 33.8906 -1.42188
Q20.7969 -1.42188 13.1562 6.1875
Q5.51562 13.8125 5.51562 26.8125
Q5.51562 40.2344 12.7656 48.1094
Q20.0156 56 32.3281 56
Q43.3594 56 49.7812 48.8906
Q56.2031 41.7969 56.2031 29.5938
M47.2188 32.2344
Q47.125 39.5938 43.0938 43.9844
Q39.0625 48.3906 32.4219 48.3906
Q24.9062 48.3906 20.3906 44.1406
Q15.875 39.8906 15.1875 32.1719
z
" id="BitstreamVeraSans-Roman-65"/>
      <path d="
M18.1094 8.20312
L18.1094 -20.7969
L9.07812 -20.7969
L9.07812 54.6875
L18.1094 54.6875
L18.1094 46.3906
Q20.9531 51.2656 25.2656 53.625
Q29.5938 56 35.5938 56
Q45.5625 56 51.7812 48.0938
Q58.0156 40.1875 58.0156 27.2969
Q58.0156 14.4062 51.7812 6.48438
Q45.5625 -1.42188 35.5938 -1.42188
Q29.5938 -1.42188 25.2656 0.953125
Q20.9531 3.32812 18.1094 8.20312
M48.6875 27.2969
Q48.6875 37.2031 44.6094 42.8438
Q40.5312 48.4844 33.4062 48.4844
Q26.2656 48.4844 22.1875 42.8438
Q18.1094 37.2031 18.1094 27.2969
Q18.1094 17.3906 22.1875 11.75
Q26.2656 6.10938 33.4062 6.10938
Q40.5312 6.10938 44.6094 11.75
Q48.6875 17.3906 48.6875 27.2969" id="BitstreamVeraSans-Roman-70"/>
      <path d="
M48.7812 52.5938
L48.7812 44.1875
Q44.9688 46.2969 41.1406 47.3438
Q37.3125 48.3906 33.4062 48.3906
Q24.6562 48.3906 19.8125 42.8438
Q14.9844 37.3125 14.9844 27.2969
Q14.9844 17.2812 19.8125 11.7344
Q24.6562 6.20312 33.4062 6.20312
Q37.3125 6.20312 41.1406 7.25
Q44.9688 8.29688 48.7812 10.4062
L48.7812 2.09375
Q45.0156 0.34375 40.9844 -0.53125
Q36.9688 -1.42188 32.4219 -1.42188
Q20.0625 -1.42188 12.7812 6.34375
Q5.51562 14.1094 5.51562 27.2969
Q5.51562 40.6719 12.8594 48.3281
Q20.2188 56 33.0156 56
Q37.1562 56 41.1094 55.1406
Q45.0625 54.2969 48.7812 52.5938" id="BitstreamVeraSans-Roman-63"/>
      <path d="
M9.42188 75.9844
L18.4062 75.9844
L18.4062 0
L9.42188 0
z
" id="BitstreamVeraSans-Roman-6c"/>
     </defs>
     <g transform="translate(74.983125 374.78625)rotate(-90.0)scale(0.12 -0.12)">
      <use xlink:href="#BitstreamVeraSans-Roman-70"/>
      <use x="63.4765625" xlink:href="#BitstreamVeraSans-Roman-61"/>
      <use x="124.755859375" xlink:href="#BitstreamVeraSans-Roman-72"/>
      <use x="165.869140625" xlink:href="#BitstreamVeraSans-Roman-74"/>
      <use x="205.078125" xlink:href="#BitstreamVeraSans-Roman-69"/>
      <use x="232.861328125" xlink:href="#BitstreamVeraSans-Roman-63"/>
      <use x="287.841796875" xlink:href="#BitstreamVeraSans-Roman-6c"/>
      <use x="315.625" xlink:href="#BitstreamVeraSans-Roman-65"/>
      <use x="377.1484375" xlink:href="#BitstreamVeraSans-Roman-20"/>
      <use x="408.935546875" xlink:href="#BitstreamVeraSans-Roman-6e"/>
      <use x="472.314453125" xlink:href="#BitstreamVeraSans-Roman-75"/>
      <use x="535.693359375" xlink:href="#BitstreamVeraSans-Roman-6d"/>
      <use x="633.10546875" xlink:href="#BitstreamVeraSans-Roman-62"/>
      <use x="696.58203125" xlink:href="#BitstreamVeraSans-Roman-65"/>
      <use x="758.10546875" xlink:href="#BitstreamVeraSans-Roman-72"/>
      <use x="799.21875" xlink:href="#BitstreamVeraSans-Roman-73"/>
     </g>
    </g>
   </g>
   <g id="legend_1">
    <g id="patch_7">
     <path d="
M717.006 101.224
L774.1 101.224
L774.1 68.3
L717.006 68.3
z
" style="fill:#ffffff;stroke:#000000;stroke-linejoin:miter;"/>
    </g>
    <g id="line2d_32">
     <path d="
M721.906 73.9689
L731.706 73.9689" style="fill:none;stroke:#ff0000;stroke-linecap:square;"/>
    </g>
    <g id="line2d_33"/>
    <g id="text_17">
     <!-- PKAc el.0 -->
     <defs>
      <path d="
M9.8125 72.9062
L19.6719 72.9062
L19.6719 42.0938
L52.3906 72.9062
L65.0938 72.9062
L28.9062 38.9219
L67.6719 0
L54.6875 0
L19.6719 35.1094
L19.6719 0
L9.8125 0
z
" id="BitstreamVeraSans-Roman-4b"/>
      <path d="
M34.1875 63.1875
L20.7969 26.9062
L47.6094 26.9062
z

M28.6094 72.9062
L39.7969 72.9062
L67.5781 0
L57.3281 0
L50.6875 18.7031
L17.8281 18.7031
L11.1875 0
L0.78125 0
z
" id="BitstreamVeraSans-Roman-41"/>
      <path d="
M19.6719 64.7969
L19.6719 37.4062
L32.0781 37.4062
Q38.9688 37.4062 42.7188 40.9688
Q46.4844 44.5312 46.4844 51.125
Q46.4844 57.6719 42.7188 61.2344
Q38.9688 64.7969 32.0781 64.7969
z

M9.8125 72.9062
L32.0781 72.9062
Q44.3438 72.9062 50.6094 67.3594
Q56.8906 61.8125 56.8906 51.125
Q56.8906 40.3281 50.6094 34.8125
Q44.3438 29.2969 32.0781 29.2969
L19.6719 29.2969
L19.6719 0
L9.8125 0
z
" id="BitstreamVeraSans-Roman-50"/>
      <path d="
M10.6875 12.4062
L21 12.4062
L21 0
L10.6875 0
z
" id="BitstreamVeraSans-Roman-2e"/>
     </defs>
     <g transform="translate(739.40625 76.41890625)scale(0.07 -0.07)">
      <use xlink:href="#BitstreamVeraSans-Roman-50"/>
      <use x="60.302734375" xlink:href="#BitstreamVeraSans-Roman-4b"/>
      <use x="124.12890625" xlink:href="#BitstreamVeraSans-Roman-41"/>
      <use x="190.787109375" xlink:href="#BitstreamVeraSans-Roman-63"/>
      <use x="245.767578125" xlink:href="#BitstreamVeraSans-Roman-20"/>
      <use x="277.5546875" xlink:href="#BitstreamVeraSans-Roman-65"/>
      <use x="339.078125" xlink:href="#BitstreamVeraSans-Roman-6c"/>
      <use x="366.861328125" xlink:href="#BitstreamVeraSans-Roman-2e"/>
      <use x="398.6484375" xlink:href="#BitstreamVeraSans-Roman-30"/>
     </g>
    </g>
    <g id="line2d_34">
     <path d="
M721.906 84.2436
L731.706 84.2436" style="fill:none;stroke:#008000;stroke-linecap:square;"/>
    </g>
    <g id="line2d_35"/>
    <g id="text_18">
     <!-- PKAc el.1 -->
     <g transform="translate(739.40625 86.69359375)scale(0.07 -0.07)">
      <use xlink:href="#BitstreamVeraSans-Roman-50"/>
      <use x="60.302734375" xlink:href="#BitstreamVeraSans-Roman-4b"/>
      <use x="124.12890625" xlink:href="#BitstreamVeraSans-Roman-41"/>
      <use x="190.787109375" xlink:href="#BitstreamVeraSans-Roman-63"/>
      <use x="245.767578125" xlink:href="#BitstreamVeraSans-Roman-20"/>
      <use x="277.5546875" xlink:href="#BitstreamVeraSans-Roman-65"/>
      <use x="339.078125" xlink:href="#BitstreamVeraSans-Roman-6c"/>
      <use x="366.861328125" xlink:href="#BitstreamVeraSans-Roman-2e"/>
      <use x="398.6484375" xlink:href="#BitstreamVeraSans-Roman-31"/>
     </g>
    </g>
    <g id="line2d_36">
     <path d="
M721.906 94.5183
L731.706 94.5183" style="fill:none;stroke:#0000ff;stroke-linecap:square;"/>
    </g>
    <g id="line2d_37"/>
    <g id="text_19">
     <!-- PKAc el.2 -->
     <g transform="translate(739.40625 96.96828125)scale(0.07 -0.07)">
      <use xlink:href="#BitstreamVeraSans-Roman-50"/>
      <use x="60.302734375" xlink:href="#BitstreamVeraSans-Roman-4b"/>
      <use x="124.12890625" xlink:href="#BitstreamVeraSans-Roman-41"/>
      <use x="190.787109375" xlink:href="#BitstreamVeraSans-Roman-63"/>
      <use x="245.767578125" xlink:href="#BitstreamVeraSans-Roman-20"/>
      <use x="277.5546875" xlink:href="#BitstreamVeraSans-Roman-65"/>
      <use x="339.078125" xlink:href="#BitstreamVeraSans-Roman-6c"/>
      <use x="366.861328125" xlink:href="#BitstreamVeraSans-Roman-2e"/>
      <use x="398.6484375" xlink:href="#BitstreamVeraSans-Roman-32"/>
     </g>
    </g>
   </g>
  </g>
 </g>
 <defs>
  <clipPath id="p7ceb695115">
   <rect height="518.4" width="669.6" x="108.0" y="64.8"/>
  </clipPath>
 </defs>
</svg>
