<?xml version="1.0" encoding="utf-8" standalone="no"?>
<!DOCTYPE svg PUBLIC "-//W3C//DTD SVG 1.1//EN"
  "http://www.w3.org/Graphics/SVG/1.1/DTD/svg11.dtd">
<!-- Created with matplotlib (http://matplotlib.org/) -->
<svg height="648pt" version="1.1" viewBox="0 0 864 648" width="864pt" xmlns="http://www.w3.org/2000/svg" xmlns:xlink="http://www.w3.org/1999/xlink">
 <defs>
  <style type="text/css">
*{stroke-linecap:butt;stroke-linejoin:round;}
  </style>
 </defs>
 <g id="figure_1">
  <g id="patch_1">
   <path d="
M0 648
L864 648
L864 0
L0 0
z
" style="fill:#ffffff;"/>
  </g>
  <g id="axes_1">
   <g id="patch_2">
    <path d="
M108 583.2
L777.6 583.2
L777.6 64.8
L108 64.8
z
" style="fill:#ffffff;"/>
   </g>
   <g id="line2d_1">
    <path clip-path="url(#p7ceb695115)" d="
M108 583.2
L122.731 583.2
L123.401 580.238
L124.07 583.2
L124.74 583.2
L125.41 581.719
L126.079 581.719
L126.749 583.2
L130.097 583.2
L130.766 581.719
L131.436 581.719
L132.106 580.238
L132.775 583.2
L133.445 581.719
L134.114 583.2
L134.784 580.238
L135.454 581.719
L136.123 581.719
L136.793 583.2
L137.462 580.238
L138.802 580.238
L140.141 583.2
L140.81 583.2
L142.15 580.238
L142.819 580.238
L143.489 581.719
L144.158 581.719
L144.828 583.2
L145.498 583.2
L146.167 581.719
L148.176 581.719
L148.846 583.2
L149.515 581.719
L150.185 583.2
L150.854 581.719
L151.524 581.719
L152.194 583.2
L152.863 581.719
L153.533 583.2
L154.872 583.2
L155.542 578.757
L156.211 583.2
L158.89 583.2
L159.559 580.238
L160.229 583.2
L162.907 583.2
L163.577 581.719
L164.246 581.719
L164.916 580.238
L165.586 583.2
L166.255 581.719
L166.925 583.2
L167.594 583.2
L168.264 581.719
L169.603 581.719
L170.273 578.757
L171.612 581.719
L173.621 581.719
L174.29 578.757
L174.96 583.2
L175.63 583.2
L176.969 580.238
L177.638 583.2
L178.308 581.719
L179.647 581.719
L180.317 578.757
L180.986 578.757
L181.656 581.719
L182.326 583.2
L182.995 581.719
L183.665 581.719
L184.334 577.275
L185.674 583.2
L186.343 580.238
L187.013 580.238
L187.682 581.719
L188.352 581.719
L189.022 578.757
L189.691 578.757
L190.361 581.719
L191.03 580.238
L191.7 581.719
L192.37 577.275
L193.039 578.757
L194.378 578.757
L195.048 581.719
L195.718 581.719
L196.387 580.238
L197.057 580.238
L197.726 578.757
L198.396 580.238
L199.066 577.275
L199.735 578.757
L200.405 575.794
L201.074 581.719
L201.744 581.719
L203.083 578.757
L205.092 583.2
L205.762 581.719
L206.431 583.2
L207.101 578.757
L207.77 578.757
L208.44 581.719
L209.11 581.719
L209.779 578.757
L210.449 580.238
L211.118 578.757
L211.788 580.238
L212.458 578.757
L213.127 581.719
L213.797 578.757
L214.466 577.275
L215.136 581.719
L215.806 578.757
L216.475 581.719
L217.145 581.719
L217.814 578.757
L218.484 578.757
L219.154 583.2
L219.823 580.238
L220.493 572.832
L221.162 574.313
L222.502 583.2
L223.171 581.719
L223.841 575.794
L225.85 580.238
L226.519 574.313
L227.189 577.275
L227.858 577.275
L228.528 578.757
L229.198 577.275
L229.867 577.275
L230.537 581.719
L231.206 578.757
L231.876 580.238
L232.546 583.2
L233.215 578.757
L233.885 578.757
L234.554 577.275
L235.224 574.313
L235.894 575.794
L236.563 578.757
L237.233 577.275
L237.902 574.313
L238.572 577.275
L239.242 578.757
L240.581 578.757
L241.25 583.2
L241.92 583.2
L242.59 580.238
L243.259 581.719
L243.929 581.719
L244.598 583.2
L245.938 577.275
L246.607 580.238
L247.277 578.757
L248.616 578.757
L249.286 580.238
L249.955 578.757
L250.625 578.757
L251.294 575.794
L251.964 581.719
L253.303 581.719
L253.973 580.238
L254.642 575.794
L255.312 580.238
L255.982 574.313
L257.321 574.313
L257.99 577.275
L258.66 578.757
L259.33 574.313
L259.999 578.757
L260.669 575.794
L261.338 580.238
L262.008 578.757
L262.678 578.757
L263.347 583.2
L264.017 583.2
L264.686 581.719
L265.356 581.719
L266.026 580.238
L266.695 577.275
L268.034 583.2
L268.704 578.757
L269.374 578.757
L270.043 581.719
L270.713 580.238
L271.382 581.719
L272.052 577.275
L272.722 578.757
L273.391 581.719
L274.061 580.238
L274.73 580.238
L276.07 583.2
L277.409 577.275
L278.078 577.275
L278.748 578.757
L279.418 581.719
L280.087 581.719
L280.757 577.275
L281.426 581.719
L282.096 575.794
L282.766 580.238
L283.435 577.275
L284.105 580.238
L284.774 581.719
L286.114 578.757
L286.783 574.313
L287.453 575.794
L288.122 575.794
L288.792 581.719
L289.462 580.238
L290.131 580.238
L290.801 581.719
L292.14 581.719
L292.81 583.2
L293.479 578.757
L294.149 580.238
L295.488 577.275
L296.158 577.275
L296.827 578.757
L297.497 581.719
L298.166 578.757
L298.836 577.275
L299.506 580.238
L300.175 581.719
L300.845 580.238
L301.514 580.238
L302.184 581.719
L302.854 581.719
L303.523 574.313
L304.862 583.2
L305.532 577.275
L306.202 574.313
L306.871 575.794
L307.541 581.719
L308.21 581.719
L308.88 578.757
L309.55 578.757
L310.219 575.794
L311.558 578.757
L312.228 581.719
L312.898 578.757
L313.567 577.275
L314.906 580.238
L315.576 578.757
L316.246 580.238
L316.915 577.275
L317.585 577.275
L318.924 580.238
L319.594 583.2
L320.933 577.275
L321.602 580.238
L322.272 578.757
L322.942 581.719
L323.611 581.719
L324.281 578.757
L324.95 577.275
L325.62 581.719
L326.959 575.794
L327.629 575.794
L328.968 581.719
L330.307 578.757
L331.646 581.719
L332.986 581.719
L333.655 578.757
L334.994 575.794
L335.664 577.275
L336.334 580.238
L337.003 577.275
L337.673 575.794
L338.342 578.757
L339.682 578.757
L340.351 580.238
L341.021 578.757
L342.36 578.757
L343.03 580.238
L343.699 577.275
L344.369 578.757
L345.038 578.757
L345.708 581.719
L346.378 580.238
L347.047 581.719
L347.717 581.719
L348.386 583.2
L349.056 581.719
L349.726 577.275
L350.395 578.757
L351.065 577.275
L351.734 581.719
L352.404 581.719
L353.074 578.757
L353.743 578.757
L354.413 581.719
L355.752 578.757
L356.422 574.313
L357.091 580.238
L357.761 578.757
L358.43 581.719
L359.1 580.238
L361.778 580.238
L362.448 583.2
L363.118 581.719
L363.787 583.2
L364.457 583.2
L365.796 580.238
L366.466 580.238
L367.135 583.2
L367.805 583.2
L368.474 580.238
L369.814 580.238
L370.483 577.275
L371.153 581.719
L371.822 580.238
L372.492 581.719
L373.162 581.719
L373.831 578.757
L374.501 583.2
L375.84 583.2
L376.51 580.238
L377.179 580.238
L377.849 583.2
L379.188 580.238
L379.858 583.2
L380.527 583.2
L381.197 581.719
L381.866 577.275
L382.536 580.238
L383.206 578.757
L384.545 581.719
L385.214 578.757
L385.884 580.238
L386.554 578.757
L387.223 581.719
L387.893 577.275
L389.232 583.2
L389.902 583.2
L390.571 581.719
L391.241 577.275
L391.91 578.757
L392.58 581.719
L393.25 583.2
L393.919 581.719
L394.589 581.719
L395.258 580.238
L395.928 580.238
L396.598 578.757
L397.267 581.719
L398.606 575.794
L399.276 575.794
L399.946 578.757
L401.285 578.757
L401.954 580.238
L402.624 572.832
L403.963 578.757
L404.633 578.757
L405.302 581.719
L405.972 578.757
L407.311 578.757
L408.65 581.719
L409.32 580.238
L409.99 581.719
L410.659 578.757
L411.329 580.238
L412.668 577.275
L413.338 583.2
L414.007 583.2
L414.677 581.719
L415.346 577.275
L416.016 577.275
L416.686 583.2
L417.355 581.719
L420.034 581.719
L420.703 578.757
L421.373 581.719
L422.042 577.275
L422.712 578.757
L423.382 581.719
L424.051 577.275
L424.721 583.2
L425.39 583.2
L426.06 580.238
L426.73 580.238
L427.399 583.2
L428.069 580.238
L428.738 581.719
L429.408 578.757
L430.078 578.757
L430.747 580.238
L431.417 580.238
L432.086 581.719
L432.756 580.238
L433.426 581.719
L434.095 581.719
L434.765 580.238
L435.434 581.719
L436.104 580.238
L438.782 580.238
L439.452 578.757
L440.122 581.719
L440.791 581.719
L441.461 578.757
L442.13 581.719
L442.8 583.2
L443.47 583.2
L444.139 580.238
L445.478 583.2
L446.148 578.757
L446.818 581.719
L447.487 581.719
L448.157 566.907
L448.826 565.426
L449.496 558.021
L450.166 553.577
L450.835 526.917
L451.505 522.473
L452.174 509.143
L452.844 522.473
L453.514 512.105
L454.183 488.407
L454.853 472.114
L455.522 482.482
L456.192 472.114
L456.862 489.888
L457.531 461.746
L458.201 463.227
L458.87 460.265
L459.54 463.227
L460.21 478.039
L460.879 479.52
L461.549 455.822
L462.218 454.341
L462.888 449.897
L463.558 478.039
L464.227 464.709
L464.897 495.813
L465.566 476.558
L466.236 449.897
L466.906 470.633
L467.575 478.039
L468.245 464.709
L468.914 489.888
L469.584 451.378
L470.254 436.567
L470.923 461.746
L471.593 466.19
L472.262 464.709
L472.932 460.265
L473.602 473.595
L474.271 495.813
L474.941 482.482
L475.61 475.077
L476.28 463.227
L476.95 461.746
L477.619 458.784
L478.289 472.114
L478.958 464.709
L479.628 464.709
L480.298 436.567
L480.967 454.341
L481.637 498.775
L482.306 463.227
L482.976 473.595
L483.646 452.859
L484.315 470.633
L484.985 478.039
L485.654 491.369
L486.324 470.633
L486.994 467.671
L487.663 495.813
L488.333 460.265
L489.002 417.312
L489.672 479.52
L490.342 486.926
L491.011 509.143
L491.681 504.699
L492.35 486.926
L493.02 481.001
L493.69 476.558
L494.359 455.822
L495.029 492.85
L495.698 448.416
L496.368 461.746
L497.038 491.369
L497.707 491.369
L498.377 478.039
L499.046 498.775
L499.716 454.341
L500.386 476.558
L501.725 476.558
L502.394 458.784
L503.064 501.737
L503.734 461.746
L504.403 483.963
L505.073 457.303
L505.742 478.039
L506.412 470.633
L507.082 481.001
L507.751 470.633
L508.421 466.19
L509.09 460.265
L509.76 463.227
L510.43 460.265
L511.099 443.973
L511.769 458.784
L512.438 454.341
L513.108 482.482
L513.778 495.813
L514.447 489.888
L515.117 460.265
L515.786 463.227
L516.456 463.227
L517.126 489.888
L517.795 473.595
L518.465 460.265
L519.134 457.303
L519.804 463.227
L520.474 445.454
L521.143 481.001
L521.813 449.897
L522.482 476.558
L523.152 469.152
L523.822 491.369
L524.491 449.897
L525.161 473.595
L525.83 481.001
L526.5 494.331
L527.17 491.369
L527.839 476.558
L528.509 486.926
L529.178 486.926
L529.848 481.001
L530.518 491.369
L531.187 492.85
L531.857 485.445
L532.526 479.52
L533.196 486.926
L533.866 455.822
L534.535 491.369
L535.205 473.595
L535.874 488.407
L536.544 464.709
L537.214 489.888
L537.883 492.85
L539.222 452.859
L539.892 473.595
L540.562 482.482
L541.231 460.265
L541.901 454.341
L542.57 481.001
L543.24 461.746
L543.91 491.369
L544.579 495.813
L545.249 481.001
L545.918 494.331
L546.588 489.888
L547.258 476.558
L547.927 503.218
L548.597 488.407
L549.266 504.699
L549.936 476.558
L550.606 472.114
L551.275 492.85
L551.945 441.01
L552.614 463.227
L553.284 476.558
L553.954 449.897
L554.623 483.963
L555.293 461.746
L555.962 464.709
L556.632 494.331
L557.302 491.369
L557.971 473.595
L558.641 488.407
L559.31 475.077
L559.98 469.152
L560.65 500.256
L561.319 481.001
L561.989 489.888
L562.658 486.926
L563.328 495.813
L563.998 498.775
L564.667 482.482
L565.337 485.445
L566.006 492.85
L566.676 481.001
L567.346 503.218
L568.015 466.19
L568.685 498.775
L569.354 492.85
L570.024 458.784
L570.694 483.963
L571.363 492.85
L572.033 516.549
L572.702 466.19
L573.372 470.633
L574.042 501.737
L574.711 475.077
L575.381 500.256
L576.05 481.001
L576.72 495.813
L577.39 497.294
L578.059 494.331
L578.729 513.586
L579.398 507.662
L580.068 458.784
L580.738 503.218
L581.407 497.294
L582.077 473.595
L582.746 481.001
L583.416 457.303
L584.086 489.888
L584.755 481.001
L585.425 452.859
L586.094 475.077
L586.764 492.85
L587.434 473.595
L588.103 507.662
L588.773 470.633
L589.442 485.445
L590.112 486.926
L590.782 489.888
L591.451 467.671
L592.121 494.331
L592.79 463.227
L593.46 503.218
L594.13 491.369
L594.799 464.709
L595.469 481.001
L596.138 473.595
L596.808 498.775
L597.478 497.294
L598.147 488.407
L598.817 478.039
L599.486 483.963
L600.156 486.926
L600.826 525.435
L601.495 503.218
L602.165 498.775
L602.834 491.369
L603.504 460.265
L604.174 489.888
L604.843 494.331
L605.513 510.624
L606.182 489.888
L606.852 485.445
L607.522 494.331
L608.191 485.445
L608.861 478.039
L609.53 476.558
L610.2 491.369
L610.87 516.549
L611.539 495.813
L612.209 489.888
L612.878 501.737
L613.548 485.445
L614.218 482.482
L614.887 494.331
L615.557 481.001
L616.226 488.407
L616.896 498.775
L617.566 503.218
L618.235 513.586
L618.905 485.445
L619.574 503.218
L620.244 482.482
L620.914 475.077
L621.583 476.558
L622.253 475.077
L622.922 482.482
L623.592 463.227
L624.262 510.624
L624.931 479.52
L625.601 515.067
L626.27 503.218
L626.94 478.039
L627.61 485.445
L628.279 489.888
L628.949 488.407
L629.618 485.445
L630.288 476.558
L630.958 476.558
L631.627 501.737
L632.297 492.85
L632.966 495.813
L634.306 473.595
L634.975 475.077
L635.645 483.963
L636.314 507.662
L636.984 519.511
L637.654 483.963
L638.323 507.662
L638.993 510.624
L639.662 518.03
L640.332 510.624
L641.002 470.633
L641.671 467.671
L642.341 503.218
L643.01 486.926
L643.68 507.662
L644.35 498.775
L645.689 476.558
L646.358 479.52
L647.028 475.077
L647.698 482.482
L648.367 472.114
L649.037 481.001
L649.706 482.482
L650.376 510.624
L651.046 512.105
L651.715 473.595
L652.385 481.001
L653.054 504.699
L653.724 498.775
L654.394 494.331
L655.063 504.699
L655.733 463.227
L656.402 483.963
L657.072 488.407
L657.742 495.813
L658.411 483.963
L659.081 498.775
L659.75 492.85
L660.42 501.737
L661.09 494.331
L661.759 507.662
L662.429 491.369
L663.098 494.331
L663.768 489.888
L664.438 489.888
L665.107 486.926
L665.777 525.435
L666.446 494.331
L667.116 475.077
L667.786 479.52
L668.455 482.482
L669.125 476.558
L669.794 473.595
L670.464 500.256
L671.134 491.369
L671.803 483.963
L672.473 466.19
L673.142 495.813
L673.812 497.294
L674.482 503.218
L675.151 492.85
L675.821 501.737
L676.49 483.963
L677.16 506.181
L677.83 481.001
L678.499 491.369
L679.169 494.331
L679.838 495.813
L680.508 513.586
L681.178 513.586
L681.847 491.369
L682.517 501.737
L683.186 494.331
L683.856 485.445
L684.526 519.511
L685.195 509.143
L685.865 492.85
L686.534 509.143
L687.204 503.218
L687.874 491.369
L688.543 486.926
L689.213 506.181
L689.882 495.813
L690.552 498.775
L691.222 482.482
L691.891 481.001
L692.561 478.039
L693.23 483.963
L693.9 503.218
L694.57 504.699
L695.239 481.001
L695.909 509.143
L696.578 470.633
L697.918 506.181
L698.587 497.294
L699.257 509.143
L699.926 495.813
L700.596 512.105
L701.266 513.586
L701.935 481.001
L702.605 503.218
L703.274 491.369
L703.944 512.105
L704.614 509.143
L705.283 507.662
L705.953 482.482
L706.622 498.775
L707.292 489.888
L707.962 519.511
L708.631 513.586
L709.301 501.737
L709.97 497.294
L710.64 503.218
L711.31 494.331
L711.979 500.256
L712.649 498.775
L713.318 498.775
L713.988 509.143
L714.658 491.369
L715.327 485.445
L715.997 483.963
L716.666 503.218
L718.006 478.039
L718.675 494.331
L719.345 501.737
L720.014 486.926
L720.684 510.624
L721.354 515.067
L722.023 489.888
L722.693 478.039
L724.032 509.143
L724.702 492.85
L725.371 495.813
L726.041 494.331
L726.71 481.001
L727.38 497.294
L728.05 498.775
L728.719 482.482
L729.389 503.218
L730.058 512.105
L730.728 498.775
L731.398 520.992
L732.067 504.699
L732.737 481.001
L733.406 501.737
L734.076 504.699
L734.746 500.256
L735.415 513.586
L736.085 495.813
L736.754 497.294
L737.424 506.181
L738.094 501.737
L738.763 492.85
L739.433 486.926
L740.102 482.482
L740.772 500.256
L741.442 512.105
L742.111 512.105
L742.781 507.662
L743.45 464.709
L744.12 491.369
L744.79 522.473
L745.459 506.181
L746.129 500.256
L746.798 486.926
L748.138 509.143
L748.807 515.067
L749.477 495.813
L750.146 513.586
L750.816 513.586
L751.486 488.407
L752.155 486.926
L752.825 523.954
L753.494 498.775
L754.164 488.407
L754.834 498.775
L755.503 512.105
L756.842 469.152
L757.512 472.114
L758.182 500.256
L758.851 495.813
L760.19 519.511
L760.86 520.992
L761.53 489.888
L762.199 507.662
L762.869 510.624
L763.538 494.331
L764.208 504.699
L764.878 488.407
L765.547 495.813
L766.217 507.662
L766.886 498.775
L767.556 520.992
L768.226 510.624
L768.895 485.445
L769.565 500.256
L770.234 492.85
L770.904 492.85
L772.243 498.775
L772.913 485.445
L773.582 494.331
L774.252 481.001
L774.922 503.218
L775.591 497.294
L776.261 489.888
L776.93 492.85
L777.6 504.699
L777.6 504.699" style="fill:none;stroke:#ff0000;stroke-linecap:square;"/>
   </g>
   <g id="line2d_2">
    <path clip-path="url(#p7ceb695115)" d="
M108 583.2
L123.401 583.2
L124.07 578.757
L126.079 578.757
L127.418 575.794
L128.088 577.275
L128.758 574.313
L129.427 574.313
L130.097 578.757
L131.436 575.794
L132.106 577.275
L132.775 574.313
L133.445 577.275
L134.114 574.313
L134.784 577.275
L135.454 575.794
L136.123 577.275
L136.793 577.275
L137.462 578.757
L138.132 577.275
L138.802 578.757
L139.471 575.794
L140.81 575.794
L141.48 578.757
L143.489 578.757
L144.158 577.275
L144.828 578.757
L145.498 578.757
L146.167 577.275
L146.837 578.757
L147.506 578.757
L148.846 575.794
L149.515 578.757
L150.185 574.313
L150.854 577.275
L151.524 575.794
L152.194 575.794
L152.863 577.275
L153.533 575.794
L155.542 580.238
L156.211 575.794
L156.881 578.757
L157.55 578.757
L158.89 575.794
L159.559 580.238
L160.229 577.275
L160.898 578.757
L161.568 577.275
L162.238 578.757
L162.907 572.832
L164.246 572.832
L164.916 574.313
L165.586 572.832
L166.255 574.313
L166.925 572.832
L167.594 574.313
L168.264 574.313
L168.934 575.794
L169.603 572.832
L170.273 575.794
L171.612 572.832
L172.282 572.832
L172.951 574.313
L173.621 572.832
L174.29 577.275
L174.96 574.313
L175.63 577.275
L176.299 572.832
L176.969 574.313
L177.638 574.313
L178.978 577.275
L179.647 574.313
L180.317 577.275
L180.986 577.275
L181.656 574.313
L183.665 574.313
L184.334 575.794
L185.674 572.832
L186.343 577.275
L187.013 572.832
L187.682 571.351
L188.352 572.832
L189.022 577.275
L189.691 574.313
L190.361 577.275
L191.03 575.794
L191.7 571.351
L192.37 574.313
L193.039 572.832
L193.709 572.832
L194.378 575.794
L195.048 571.351
L195.718 574.313
L196.387 571.351
L197.726 568.389
L199.066 571.351
L199.735 571.351
L200.405 572.832
L201.074 571.351
L201.744 571.351
L202.414 572.832
L203.083 569.87
L205.092 574.313
L205.762 574.313
L206.431 572.832
L207.101 574.313
L207.77 572.832
L208.44 574.313
L209.11 569.87
L209.779 572.832
L210.449 569.87
L211.118 571.351
L212.458 580.238
L213.127 575.794
L213.797 575.794
L214.466 577.275
L215.136 569.87
L215.806 569.87
L216.475 566.907
L217.145 568.389
L218.484 565.426
L219.154 559.502
L219.823 562.464
L221.162 571.351
L221.832 571.351
L222.502 563.945
L223.171 565.426
L223.841 565.426
L224.51 566.907
L225.18 566.907
L225.85 560.983
L226.519 566.907
L227.189 563.945
L227.858 563.945
L228.528 560.983
L229.198 563.945
L229.867 568.389
L230.537 560.983
L231.206 563.945
L231.876 563.945
L232.546 562.464
L233.215 562.464
L233.885 565.426
L234.554 563.945
L235.224 571.351
L235.894 568.389
L236.563 566.907
L237.233 566.907
L237.902 569.87
L238.572 569.87
L239.242 565.426
L239.911 568.389
L240.581 572.832
L241.25 566.907
L241.92 563.945
L242.59 569.87
L243.259 571.351
L244.598 568.389
L245.268 571.351
L245.938 565.426
L246.607 562.464
L247.277 563.945
L247.946 566.907
L248.616 565.426
L249.286 566.907
L249.955 569.87
L250.625 566.907
L251.294 566.907
L251.964 563.945
L252.634 565.426
L253.303 563.945
L253.973 565.426
L254.642 575.794
L255.312 565.426
L255.982 571.351
L256.651 568.389
L257.99 568.389
L258.66 565.426
L259.33 571.351
L259.999 565.426
L260.669 568.389
L261.338 569.87
L262.008 568.389
L262.678 569.87
L264.686 560.983
L265.356 565.426
L266.026 565.426
L266.695 574.313
L267.365 571.351
L268.034 566.907
L268.704 568.389
L269.374 565.426
L270.043 565.426
L270.713 566.907
L271.382 559.502
L272.052 565.426
L272.722 565.426
L273.391 562.464
L274.061 566.907
L274.73 562.464
L275.4 563.945
L276.739 560.983
L277.409 568.389
L278.078 572.832
L278.748 565.426
L280.087 562.464
L280.757 569.87
L281.426 563.945
L282.096 571.351
L282.766 568.389
L283.435 569.87
L284.105 563.945
L284.774 563.945
L285.444 565.426
L286.783 571.351
L287.453 566.907
L288.122 569.87
L288.792 566.907
L289.462 562.464
L290.131 569.87
L290.801 562.464
L291.47 563.945
L292.14 563.945
L292.81 562.464
L293.479 569.87
L294.149 563.945
L295.488 566.907
L296.158 565.426
L296.827 560.983
L297.497 559.502
L298.166 563.945
L298.836 565.426
L300.175 562.464
L300.845 562.464
L301.514 563.945
L302.184 559.502
L302.854 563.945
L304.193 560.983
L304.862 556.539
L305.532 559.502
L306.871 568.389
L307.541 565.426
L308.21 565.426
L308.88 568.389
L309.55 565.426
L310.219 572.832
L310.889 568.389
L311.558 565.426
L312.228 560.983
L313.567 566.907
L314.237 563.945
L314.906 562.464
L315.576 566.907
L316.915 566.907
L317.585 568.389
L318.254 568.389
L318.924 571.351
L319.594 563.945
L320.263 560.983
L320.933 569.87
L322.942 565.426
L323.611 565.426
L324.281 568.389
L325.62 565.426
L326.959 568.389
L327.629 574.313
L328.298 572.832
L328.968 568.389
L330.307 574.313
L330.977 569.87
L333.655 569.87
L334.325 568.389
L334.994 571.351
L335.664 568.389
L336.334 568.389
L337.003 569.87
L337.673 572.832
L338.342 569.87
L339.012 568.389
L339.682 568.389
L340.351 565.426
L341.021 565.426
L341.69 566.907
L342.36 571.351
L343.03 566.907
L343.699 569.87
L345.038 569.87
L345.708 565.426
L346.378 568.389
L347.047 565.426
L347.717 569.87
L348.386 568.389
L349.056 572.832
L349.726 574.313
L350.395 572.832
L351.065 574.313
L351.734 569.87
L352.404 572.832
L353.074 572.832
L353.743 574.313
L354.413 569.87
L355.082 574.313
L355.752 571.351
L356.422 578.757
L357.091 571.351
L357.761 575.794
L359.1 575.794
L359.77 577.275
L361.109 574.313
L361.778 574.313
L362.448 572.832
L363.118 572.832
L363.787 571.351
L364.457 571.351
L365.126 575.794
L365.796 577.275
L366.466 577.275
L367.135 572.832
L367.805 575.794
L368.474 577.275
L369.144 575.794
L369.814 575.794
L370.483 580.238
L371.153 575.794
L371.822 578.757
L373.162 575.794
L373.831 577.275
L374.501 575.794
L375.17 575.794
L375.84 574.313
L376.51 577.275
L377.849 574.313
L379.188 574.313
L379.858 575.794
L380.527 575.794
L381.197 574.313
L381.866 575.794
L382.536 571.351
L383.206 572.832
L383.875 571.351
L385.884 575.794
L386.554 575.794
L387.223 574.313
L387.893 578.757
L388.562 575.794
L389.232 574.313
L389.902 574.313
L390.571 575.794
L391.241 575.794
L391.91 572.832
L392.58 574.313
L393.25 572.832
L393.919 572.832
L394.589 575.794
L395.928 572.832
L396.598 575.794
L397.267 572.832
L398.606 572.832
L399.276 569.87
L399.946 568.389
L400.615 571.351
L401.285 568.389
L401.954 568.389
L402.624 575.794
L403.294 572.832
L403.963 568.389
L404.633 568.389
L405.302 565.426
L405.972 568.389
L406.642 569.87
L407.311 568.389
L407.981 572.832
L408.65 569.87
L409.32 572.832
L409.99 566.907
L410.659 569.87
L411.329 574.313
L411.998 571.351
L412.668 572.832
L413.338 566.907
L414.007 566.907
L415.346 575.794
L416.016 577.275
L416.686 569.87
L417.355 571.351
L418.025 569.87
L418.694 574.313
L420.034 571.351
L420.703 574.313
L421.373 568.389
L422.042 572.832
L422.712 572.832
L423.382 571.351
L424.051 575.794
L424.721 568.389
L425.39 568.389
L426.06 571.351
L426.73 572.832
L427.399 569.87
L428.069 571.351
L428.738 571.351
L429.408 575.794
L430.078 572.832
L430.747 574.313
L432.086 571.351
L432.756 571.351
L433.426 569.87
L434.095 572.832
L434.765 572.832
L435.434 571.351
L436.104 575.794
L436.774 571.351
L437.443 574.313
L438.113 575.794
L438.782 574.313
L439.452 574.313
L440.122 575.794
L440.791 572.832
L441.461 577.275
L442.8 574.313
L443.47 575.794
L444.139 578.757
L444.809 575.794
L445.478 574.313
L446.148 577.275
L446.818 572.832
L447.487 563.945
L448.157 572.832
L448.826 563.945
L449.496 547.653
L450.835 483.963
L452.174 412.869
L452.844 326.962
L453.514 297.339
L454.183 288.453
L454.853 245.499
L455.522 239.575
L456.192 199.584
L456.862 138.857
L457.531 116.64
L458.201 119.602
L458.87 119.602
L459.54 134.414
L460.21 109.234
L460.879 143.301
L461.549 135.895
L462.218 113.678
L462.888 127.008
L463.558 95.904
L464.227 89.9794
L464.897 91.4606
L465.566 78.1303
L466.236 94.4229
L466.906 91.4606
L467.575 79.6114
L468.245 75.168
L468.914 89.9794
L469.584 109.234
L470.254 88.4983
L470.923 72.2057
L471.593 82.5737
L472.262 75.168
L472.932 104.791
L473.602 110.715
L474.271 95.904
L474.941 101.829
L475.61 103.31
L476.28 127.008
L476.95 128.489
L477.619 116.64
L478.289 122.565
L478.958 115.159
L479.628 87.0171
L480.298 112.197
L480.967 125.527
L481.637 104.791
L482.306 91.4606
L482.976 94.4229
L483.646 135.895
L484.315 118.121
L484.985 127.008
L485.654 158.112
L486.324 141.819
L486.994 141.819
L487.663 143.301
L488.333 165.518
L489.002 131.451
L489.672 141.819
L490.342 147.744
L491.011 119.602
L491.681 140.338
L492.35 129.97
L493.02 124.046
L494.359 135.895
L495.029 121.083
L495.698 141.819
L496.368 131.451
L497.038 140.338
L498.377 175.886
L499.046 147.744
L499.716 153.669
L500.386 135.895
L501.055 125.527
L502.394 159.593
L503.064 150.706
L503.734 164.037
L504.403 156.631
L505.073 156.631
L505.742 127.008
L506.412 109.234
L507.082 127.008
L507.751 115.159
L508.421 87.0171
L509.09 109.234
L510.43 134.414
L511.769 119.602
L512.438 124.046
L513.108 121.083
L513.778 116.64
L514.447 137.376
L515.117 127.008
L515.786 122.565
L516.456 97.3851
L517.126 78.1303
L517.795 92.9417
L518.465 121.083
L519.134 128.489
L519.804 127.008
L520.474 134.414
L521.143 143.301
L521.813 131.451
L522.482 138.857
L523.822 138.857
L524.491 152.187
L525.161 144.782
L525.83 146.263
L526.5 131.451
L527.17 124.046
L527.839 109.234
L528.509 144.782
L529.178 146.263
L530.518 164.037
L531.187 190.697
L531.857 193.659
L532.526 195.141
L533.196 144.782
L533.866 181.81
L534.535 147.744
L535.205 159.593
L535.874 138.857
L536.544 140.338
L537.214 113.678
L537.883 149.225
L538.553 155.15
L539.222 129.97
L539.892 131.451
L540.562 121.083
L541.231 190.697
L541.901 183.291
L543.24 192.178
L543.91 169.961
L544.579 153.669
L545.249 158.112
L545.918 174.405
L546.588 140.338
L547.258 153.669
L547.927 135.895
L548.597 183.291
L549.266 147.744
L549.936 149.225
L550.606 162.555
L551.275 150.706
L551.945 153.669
L552.614 121.083
L553.284 125.527
L553.954 107.753
L554.623 122.565
L555.293 168.48
L555.962 178.848
L556.632 192.178
L557.302 196.622
L557.971 180.329
L558.641 204.027
L559.31 186.254
L559.98 174.405
L560.65 171.442
L561.319 159.593
L561.989 181.81
L562.658 196.622
L563.328 201.065
L563.998 214.395
L564.667 221.801
L565.337 184.773
L566.006 172.923
L566.676 172.923
L567.346 178.848
L568.015 171.442
L568.685 147.744
L569.354 175.886
L570.024 198.103
L570.694 192.178
L571.363 172.923
L572.033 158.112
L572.702 161.074
L573.372 162.555
L574.042 189.216
L574.711 149.225
L575.381 131.451
L576.05 164.037
L576.72 168.48
L577.39 186.254
L578.059 199.584
L578.729 202.546
L579.398 218.839
L580.068 238.094
L580.738 169.961
L581.407 156.631
L582.077 162.555
L582.746 180.329
L584.086 199.584
L584.755 190.697
L585.425 192.178
L586.764 147.744
L587.434 149.225
L588.103 175.886
L588.773 174.405
L589.442 159.593
L590.112 153.669
L590.782 146.263
L592.121 183.291
L592.79 180.329
L593.46 165.518
L594.13 199.584
L594.799 199.584
L595.469 158.112
L596.138 175.886
L596.808 181.81
L597.478 181.81
L598.147 178.848
L598.817 144.782
L599.486 168.48
L600.156 168.48
L600.826 189.216
L601.495 183.291
L602.165 202.546
L602.834 215.877
L603.504 206.99
L604.174 190.697
L604.843 196.622
L605.513 199.584
L606.182 189.216
L606.852 195.141
L607.522 186.254
L608.191 196.622
L608.861 165.518
L609.53 156.631
L610.2 198.103
L610.87 193.659
L611.539 195.141
L612.209 204.027
L612.878 186.254
L613.548 204.027
L614.218 212.914
L614.887 201.065
L615.557 239.575
L616.226 217.358
L616.896 229.207
L617.566 238.094
L618.235 241.056
L618.905 281.047
L619.574 257.349
L620.244 249.943
L621.583 227.726
L622.253 235.131
L622.922 196.622
L623.592 171.442
L624.262 192.178
L624.931 202.546
L625.601 186.254
L626.27 189.216
L626.94 180.329
L627.61 166.999
L628.279 158.112
L628.949 158.112
L629.618 193.659
L630.288 193.659
L630.958 178.848
L631.627 196.622
L632.297 184.773
L632.966 190.697
L633.636 204.027
L634.306 212.914
L634.975 212.914
L635.645 193.659
L636.314 199.584
L636.984 204.027
L637.654 183.291
L638.323 155.15
L638.993 177.367
L639.662 192.178
L640.332 186.254
L641.002 205.509
L641.671 204.027
L642.341 190.697
L643.01 186.254
L643.68 171.442
L644.35 187.735
L645.019 201.065
L645.689 202.546
L646.358 171.442
L647.028 168.48
L647.698 158.112
L649.037 192.178
L649.706 201.065
L650.376 196.622
L651.046 204.027
L651.715 235.131
L652.385 233.65
L653.054 249.943
L653.724 241.056
L654.394 264.754
L655.063 267.717
L656.402 236.613
L657.072 227.726
L657.742 226.245
L658.411 223.282
L659.081 181.81
L659.75 195.141
L660.42 212.914
L661.09 211.433
L661.759 195.141
L662.429 195.141
L663.098 218.839
L663.768 233.65
L664.438 235.131
L665.107 246.981
L665.777 241.056
L666.446 209.952
L667.116 215.877
L667.786 183.291
L668.455 175.886
L669.794 206.99
L670.464 175.886
L671.134 232.169
L671.803 215.877
L672.473 221.801
L673.142 196.622
L673.812 209.952
L674.482 195.141
L675.151 195.141
L675.821 199.584
L676.49 193.659
L677.16 180.329
L677.83 186.254
L678.499 208.471
L679.169 156.631
L679.838 209.952
L680.508 211.433
L681.178 217.358
L681.847 246.981
L682.517 255.867
L683.186 255.867
L684.526 211.433
L685.195 223.282
L685.865 238.094
L686.534 238.094
L687.204 212.914
L687.874 211.433
L688.543 238.094
L689.213 226.245
L689.882 229.207
L690.552 229.207
L691.222 251.424
L691.891 192.178
L692.561 209.952
L693.23 244.018
L693.9 239.575
L694.57 233.65
L695.239 224.763
L695.909 233.65
L696.578 224.763
L697.248 199.584
L697.918 217.358
L698.587 202.546
L699.257 232.169
L699.926 236.613
L700.596 236.613
L701.266 226.245
L701.935 255.867
L702.605 272.16
L703.274 246.981
L703.944 266.235
L704.614 254.386
L705.283 278.085
L705.953 242.537
L706.622 272.16
L707.292 273.641
L707.962 264.754
L708.631 273.641
L709.301 257.349
L709.97 291.415
L710.64 276.603
L711.31 245.499
L711.979 261.792
L712.649 275.122
L713.318 226.245
L713.988 186.254
L714.658 209.952
L715.327 205.509
L716.666 174.405
L717.336 183.291
L718.006 209.952
L718.675 212.914
L719.345 220.32
L720.014 204.027
L720.684 215.877
L721.354 239.575
L722.023 275.122
L722.693 275.122
L723.362 218.839
L724.032 229.207
L724.702 227.726
L725.371 229.207
L726.041 227.726
L726.71 241.056
L727.38 249.943
L728.719 217.358
L729.389 233.65
L730.058 206.99
L730.728 220.32
L731.398 217.358
L732.067 204.027
L732.737 195.141
L733.406 196.622
L734.076 218.839
L734.746 227.726
L735.415 217.358
L736.085 232.169
L736.754 217.358
L737.424 208.471
L738.094 230.688
L738.763 238.094
L739.433 198.103
L740.102 223.282
L741.442 232.169
L742.111 251.424
L742.781 229.207
L743.45 242.537
L744.12 244.018
L744.79 270.679
L745.459 248.462
L746.129 275.122
L746.798 258.83
L747.468 260.311
L748.138 239.575
L748.807 238.094
L749.477 251.424
L750.146 235.131
L750.816 227.726
L751.486 236.613
L752.155 229.207
L752.825 195.141
L754.164 232.169
L754.834 224.763
L755.503 238.094
L756.173 241.056
L756.842 260.311
L757.512 255.867
L758.182 239.575
L759.521 285.49
L760.19 270.679
L760.86 261.792
L761.53 246.981
L762.199 242.537
L762.869 266.235
L763.538 269.198
L764.208 244.018
L764.878 251.424
L765.547 233.65
L766.217 212.914
L766.886 221.801
L767.556 215.877
L768.226 239.575
L768.895 242.537
L769.565 233.65
L770.234 235.131
L770.904 246.981
L772.243 258.83
L772.913 255.867
L773.582 248.462
L774.252 263.273
L774.922 238.094
L775.591 226.245
L776.261 218.839
L776.93 220.32
L777.6 208.471
L777.6 208.471" style="fill:none;stroke:#008000;stroke-linecap:square;"/>
   </g>
   <g id="line2d_3">
    <path clip-path="url(#p7ceb695115)" d="
M108 583.2
L123.401 583.2
L124.07 581.719
L124.74 581.719
L125.41 583.2
L126.749 583.2
L128.088 580.238
L128.758 583.2
L129.427 583.2
L130.097 578.757
L130.766 581.719
L131.436 583.2
L132.775 583.2
L133.445 581.719
L134.114 583.2
L135.454 583.2
L136.793 580.238
L138.132 583.2
L138.802 581.719
L139.471 583.2
L140.141 581.719
L140.81 581.719
L141.48 580.238
L142.15 581.719
L143.489 581.719
L144.158 583.2
L144.828 580.238
L145.498 580.238
L146.167 581.719
L146.837 580.238
L147.506 580.238
L148.176 581.719
L148.846 581.719
L149.515 580.238
L150.185 583.2
L150.854 581.719
L151.524 583.2
L152.194 581.719
L154.202 581.719
L154.872 580.238
L155.542 583.2
L156.211 583.2
L156.881 580.238
L157.55 580.238
L158.89 583.2
L159.559 581.719
L160.229 581.719
L160.898 580.238
L161.568 581.719
L162.238 580.238
L162.907 583.2
L163.577 581.719
L164.916 581.719
L165.586 580.238
L166.925 580.238
L167.594 578.757
L168.264 580.238
L168.934 578.757
L169.603 581.719
L170.273 581.719
L170.942 583.2
L172.282 583.2
L172.951 581.719
L173.621 583.2
L174.96 580.238
L175.63 577.275
L176.299 583.2
L176.969 583.2
L177.638 580.238
L178.308 580.238
L178.978 578.757
L179.647 581.719
L181.656 581.719
L182.326 580.238
L183.665 580.238
L184.334 583.2
L186.343 578.757
L187.013 583.2
L187.682 583.2
L189.022 580.238
L189.691 583.2
L190.361 577.275
L191.7 583.2
L192.37 581.719
L193.709 581.719
L194.378 578.757
L195.048 580.238
L195.718 577.275
L196.387 581.719
L197.057 583.2
L197.726 583.2
L198.396 580.238
L199.066 581.719
L199.735 580.238
L200.405 581.719
L201.074 577.275
L202.414 577.275
L203.083 581.719
L203.753 581.719
L205.092 575.794
L205.762 577.275
L206.431 577.275
L207.101 580.238
L207.77 581.719
L208.44 577.275
L209.11 583.2
L209.779 580.238
L210.449 581.719
L211.118 581.719
L212.458 575.794
L213.127 577.275
L213.797 580.238
L214.466 580.238
L215.136 583.2
L215.806 580.238
L216.475 580.238
L217.145 575.794
L217.814 580.238
L218.484 578.757
L219.154 580.238
L219.823 580.238
L220.493 583.2
L221.832 574.313
L222.502 577.275
L223.171 574.313
L223.841 580.238
L224.51 577.275
L225.18 575.794
L225.85 580.238
L227.858 580.238
L228.528 583.2
L229.198 581.719
L229.867 577.275
L230.537 580.238
L231.206 580.238
L232.546 577.275
L233.215 581.719
L233.885 578.757
L234.554 581.719
L235.224 580.238
L235.894 581.719
L236.563 580.238
L237.233 581.719
L237.902 581.719
L238.572 578.757
L239.242 581.719
L240.581 575.794
L241.92 581.719
L243.259 575.794
L243.929 574.313
L245.268 574.313
L245.938 580.238
L247.277 580.238
L247.946 577.275
L248.616 581.719
L249.286 578.757
L249.955 577.275
L251.294 583.2
L251.964 580.238
L252.634 578.757
L253.303 580.238
L253.973 580.238
L254.642 574.313
L255.312 580.238
L255.982 580.238
L256.651 583.2
L257.99 577.275
L259.999 581.719
L260.669 581.719
L261.338 575.794
L262.008 578.757
L262.678 577.275
L263.347 578.757
L264.017 581.719
L264.686 583.2
L265.356 578.757
L266.026 583.2
L266.695 577.275
L267.365 577.275
L268.034 578.757
L268.704 578.757
L269.374 581.719
L270.043 575.794
L270.713 577.275
L271.382 583.2
L272.722 580.238
L273.391 580.238
L274.061 577.275
L274.73 578.757
L275.4 575.794
L276.07 575.794
L276.739 580.238
L278.078 571.351
L278.748 577.275
L279.418 575.794
L280.087 577.275
L280.757 577.275
L281.426 578.757
L282.096 577.275
L282.766 578.757
L283.435 577.275
L284.105 580.238
L284.774 578.757
L285.444 578.757
L286.114 577.275
L286.783 578.757
L288.122 578.757
L288.792 575.794
L289.462 581.719
L290.131 574.313
L290.801 580.238
L291.47 578.757
L292.81 578.757
L293.479 575.794
L294.149 580.238
L294.818 580.238
L295.488 577.275
L296.158 578.757
L296.827 581.719
L298.166 578.757
L298.836 580.238
L299.506 578.757
L300.175 578.757
L300.845 580.238
L301.514 578.757
L302.184 581.719
L302.854 577.275
L303.523 583.2
L304.193 580.238
L304.862 580.238
L305.532 583.2
L306.202 581.719
L306.871 578.757
L308.88 578.757
L309.55 581.719
L310.219 577.275
L310.889 577.275
L312.228 580.238
L312.898 580.238
L313.567 578.757
L314.237 580.238
L314.906 580.238
L315.576 577.275
L316.246 575.794
L316.915 578.757
L317.585 577.275
L318.254 580.238
L318.924 575.794
L319.594 577.275
L320.263 583.2
L320.933 578.757
L321.602 577.275
L322.272 581.719
L322.942 583.2
L323.611 580.238
L324.281 580.238
L324.95 578.757
L325.62 578.757
L326.959 581.719
L327.629 581.719
L328.298 580.238
L328.968 581.719
L330.307 578.757
L330.977 581.719
L331.646 580.238
L334.325 580.238
L334.994 578.757
L335.664 580.238
L336.334 578.757
L337.003 580.238
L337.673 578.757
L338.342 578.757
L339.012 580.238
L339.682 580.238
L341.021 583.2
L341.69 581.719
L342.36 577.275
L343.03 580.238
L343.699 580.238
L344.369 578.757
L345.038 578.757
L345.708 580.238
L346.378 578.757
L347.047 580.238
L347.717 578.757
L348.386 575.794
L349.056 575.794
L350.395 581.719
L351.734 581.719
L352.404 578.757
L353.074 581.719
L353.743 580.238
L354.413 581.719
L355.082 578.757
L355.752 583.2
L356.422 580.238
L357.091 581.719
L357.761 578.757
L358.43 578.757
L359.1 580.238
L359.77 578.757
L361.109 581.719
L361.778 581.719
L362.448 580.238
L363.118 581.719
L364.457 581.719
L365.126 580.238
L366.466 580.238
L367.135 581.719
L367.805 578.757
L368.474 580.238
L369.144 583.2
L369.814 583.2
L370.483 581.719
L371.153 581.719
L371.822 580.238
L372.492 580.238
L373.831 583.2
L374.501 580.238
L375.17 580.238
L375.84 581.719
L376.51 578.757
L377.179 580.238
L377.849 578.757
L379.188 581.719
L379.858 577.275
L380.527 577.275
L381.866 583.2
L383.875 583.2
L384.545 580.238
L385.214 581.719
L385.884 578.757
L386.554 580.238
L387.223 578.757
L387.893 580.238
L388.562 580.238
L389.232 578.757
L390.571 578.757
L391.91 581.719
L392.58 577.275
L393.25 577.275
L393.919 578.757
L394.589 575.794
L395.258 578.757
L396.598 581.719
L397.267 578.757
L397.937 581.719
L399.276 581.719
L399.946 580.238
L400.615 577.275
L401.285 581.719
L401.954 580.238
L403.294 580.238
L403.963 581.719
L405.972 581.719
L406.642 580.238
L407.311 581.719
L407.981 575.794
L408.65 578.757
L409.32 577.275
L409.99 581.719
L410.659 581.719
L411.329 578.757
L411.998 583.2
L414.007 583.2
L414.677 580.238
L416.016 580.238
L416.686 581.719
L417.355 581.719
L418.025 583.2
L418.694 578.757
L420.034 581.719
L420.703 580.238
L421.373 583.2
L422.042 583.2
L423.382 580.238
L424.051 580.238
L424.721 581.719
L426.06 581.719
L426.73 580.238
L427.399 580.238
L428.738 583.2
L429.408 580.238
L430.078 583.2
L430.747 580.238
L431.417 581.719
L432.086 581.719
L432.756 583.2
L433.426 583.2
L434.095 580.238
L434.765 581.719
L435.434 581.719
L436.104 578.757
L436.774 583.2
L437.443 580.238
L438.113 578.757
L439.452 581.719
L440.122 580.238
L440.791 583.2
L442.13 580.238
L442.8 580.238
L443.47 581.719
L444.139 581.719
L444.809 583.2
L445.478 583.2
L446.148 581.719
L446.818 577.275
L447.487 580.238
L448.157 580.238
L448.826 577.275
L450.835 541.728
L451.505 523.954
L452.174 495.813
L452.844 516.549
L453.514 494.331
L454.183 492.85
L454.853 509.143
L455.522 486.926
L456.192 478.039
L456.862 500.256
L457.531 494.331
L458.201 451.378
L458.87 455.822
L459.54 451.378
L460.21 455.822
L460.879 430.642
L461.549 451.378
L462.218 481.001
L462.888 458.784
L463.558 448.416
L464.227 455.822
L464.897 445.454
L465.566 448.416
L466.236 461.746
L466.906 479.52
L467.575 470.633
L468.245 463.227
L468.914 438.048
L469.584 423.237
L470.254 436.567
L470.923 478.039
L471.593 449.897
L472.262 482.482
L472.932 482.482
L474.271 451.378
L474.941 467.671
L475.61 479.52
L476.28 476.558
L476.95 455.822
L477.619 457.303
L478.289 466.19
L478.958 457.303
L479.628 479.52
L480.298 476.558
L480.967 463.227
L481.637 436.567
L482.306 472.114
L482.976 467.671
L483.646 457.303
L484.315 473.595
L484.985 503.218
L485.654 457.303
L486.324 460.265
L486.994 443.973
L487.663 464.709
L488.333 446.935
L489.002 478.039
L489.672 446.935
L490.342 479.52
L491.011 473.595
L491.681 461.746
L492.35 454.341
L493.02 467.671
L493.69 460.265
L494.359 455.822
L495.029 475.077
L495.698 473.595
L496.368 458.784
L497.038 454.341
L497.707 482.482
L498.377 454.341
L499.046 481.001
L499.716 457.303
L500.386 481.001
L501.055 498.775
L501.725 491.369
L502.394 469.152
L503.064 475.077
L503.734 469.152
L504.403 475.077
L505.073 472.114
L505.742 482.482
L506.412 478.039
L507.751 451.378
L508.421 463.227
L509.09 486.926
L509.76 472.114
L510.43 466.19
L511.099 491.369
L511.769 469.152
L512.438 483.963
L513.108 446.935
L513.778 488.407
L514.447 461.746
L515.117 479.52
L515.786 464.709
L516.456 470.633
L517.126 472.114
L517.795 476.558
L518.465 472.114
L519.134 454.341
L519.804 457.303
L520.474 494.331
L521.143 470.633
L521.813 491.369
L522.482 485.445
L523.152 483.963
L523.822 494.331
L524.491 470.633
L525.161 494.331
L525.83 470.633
L526.5 482.482
L527.17 457.303
L527.839 467.671
L528.509 506.181
L529.178 486.926
L529.848 448.416
L530.518 461.746
L531.187 470.633
L531.857 472.114
L532.526 451.378
L533.866 482.482
L534.535 481.001
L535.205 473.595
L535.874 501.737
L536.544 485.445
L537.214 479.52
L537.883 452.859
L538.553 436.567
L539.222 470.633
L539.892 473.595
L540.562 509.143
L541.231 458.784
L541.901 481.001
L542.57 479.52
L543.24 497.294
L543.91 470.633
L544.579 473.595
L545.249 478.039
L545.918 485.445
L546.588 507.662
L547.258 485.445
L548.597 507.662
L549.266 489.888
L549.936 461.746
L550.606 469.152
L551.275 463.227
L552.614 472.114
L553.284 461.746
L553.954 497.294
L554.623 497.294
L555.293 495.813
L555.962 488.407
L556.632 460.265
L557.302 495.813
L557.971 503.218
L558.641 452.859
L559.31 479.52
L559.98 497.294
L560.65 475.077
L561.319 497.294
L561.989 482.482
L562.658 479.52
L563.328 500.256
L563.998 458.784
L564.667 478.039
L565.337 467.671
L566.006 483.963
L566.676 492.85
L567.346 503.218
L568.015 481.001
L568.685 479.52
L569.354 494.331
L570.024 475.077
L570.694 460.265
L571.363 479.52
L572.033 470.633
L572.702 486.926
L574.042 457.303
L574.711 488.407
L575.381 500.256
L576.05 482.482
L576.72 486.926
L577.39 494.331
L578.059 467.671
L578.729 473.595
L579.398 500.256
L580.068 479.52
L580.738 473.595
L581.407 494.331
L582.077 485.445
L582.746 472.114
L583.416 495.813
L584.755 461.746
L585.425 470.633
L586.094 476.558
L586.764 469.152
L587.434 516.549
L588.103 485.445
L588.773 489.888
L589.442 495.813
L590.112 481.001
L590.782 454.341
L591.451 495.813
L592.121 498.775
L592.79 520.992
L593.46 497.294
L594.13 495.813
L594.799 475.077
L595.469 494.331
L596.138 495.813
L596.808 482.482
L597.478 489.888
L598.147 458.784
L598.817 491.369
L600.156 469.152
L600.826 489.888
L601.495 494.331
L602.165 473.595
L602.834 470.633
L603.504 488.407
L604.174 483.963
L604.843 501.737
L605.513 509.143
L606.182 500.256
L606.852 481.001
L608.191 492.85
L608.861 497.294
L609.53 485.445
L610.2 482.482
L610.87 483.963
L611.539 483.963
L612.209 479.52
L612.878 485.445
L613.548 488.407
L614.218 476.558
L614.887 510.624
L615.557 469.152
L616.896 500.256
L617.566 482.482
L618.235 497.294
L618.905 494.331
L620.244 485.445
L620.914 507.662
L621.583 486.926
L622.253 489.888
L622.922 498.775
L623.592 518.03
L624.262 506.181
L624.931 483.963
L625.601 489.888
L626.27 483.963
L627.61 454.341
L628.279 469.152
L628.949 494.331
L630.958 512.105
L631.627 488.407
L632.297 498.775
L632.966 506.181
L633.636 512.105
L634.306 485.445
L634.975 485.445
L635.645 518.03
L636.314 507.662
L636.984 492.85
L637.654 500.256
L638.323 489.888
L638.993 491.369
L639.662 500.256
L640.332 498.775
L641.002 503.218
L641.671 494.331
L642.341 478.039
L643.01 495.813
L643.68 498.775
L644.35 485.445
L645.019 485.445
L645.689 500.256
L646.358 510.624
L647.028 491.369
L647.698 503.218
L648.367 489.888
L649.037 494.331
L649.706 488.407
L650.376 497.294
L651.046 498.775
L651.715 498.775
L652.385 491.369
L653.054 498.775
L653.724 491.369
L654.394 482.482
L655.063 472.114
L655.733 476.558
L656.402 461.746
L657.072 479.52
L657.742 473.595
L658.411 491.369
L659.081 497.294
L659.75 488.407
L660.42 506.181
L661.09 483.963
L661.759 492.85
L662.429 482.482
L663.098 506.181
L663.768 472.114
L664.438 497.294
L665.107 503.218
L665.777 495.813
L666.446 472.114
L667.116 491.369
L667.786 500.256
L668.455 504.699
L669.125 501.737
L669.794 510.624
L670.464 504.699
L671.803 457.303
L672.473 494.331
L673.142 504.699
L673.812 461.746
L674.482 497.294
L675.151 500.256
L675.821 509.143
L676.49 470.633
L677.83 488.407
L678.499 486.926
L679.169 519.511
L679.838 483.963
L680.508 475.077
L681.178 504.699
L681.847 512.105
L682.517 509.143
L683.186 489.888
L683.856 475.077
L684.526 481.001
L685.195 501.737
L685.865 501.737
L686.534 515.067
L687.204 498.775
L687.874 500.256
L688.543 476.558
L689.213 488.407
L689.882 513.586
L690.552 494.331
L691.222 506.181
L691.891 504.699
L692.561 489.888
L693.23 472.114
L693.9 501.737
L694.57 497.294
L695.239 528.398
L695.909 483.963
L696.578 472.114
L697.248 492.85
L697.918 501.737
L698.587 513.586
L699.257 470.633
L699.926 483.963
L700.596 481.001
L701.266 515.067
L701.935 513.586
L702.605 503.218
L703.274 516.549
L703.944 495.813
L704.614 503.218
L705.283 486.926
L705.953 526.917
L706.622 512.105
L707.292 494.331
L707.962 497.294
L708.631 485.445
L709.301 506.181
L709.97 513.586
L710.64 495.813
L711.31 512.105
L711.979 494.331
L712.649 469.152
L713.318 483.963
L713.988 510.624
L714.658 470.633
L715.327 491.369
L715.997 500.256
L716.666 503.218
L717.336 510.624
L718.006 506.181
L718.675 485.445
L719.345 494.331
L720.014 498.775
L720.684 509.143
L721.354 501.737
L722.023 500.256
L722.693 482.482
L723.362 467.671
L724.032 503.218
L724.702 478.039
L725.371 476.558
L726.041 506.181
L726.71 518.03
L727.38 494.331
L728.05 503.218
L728.719 506.181
L729.389 494.331
L730.058 498.775
L730.728 501.737
L731.398 478.039
L732.067 518.03
L732.737 494.331
L733.406 491.369
L734.076 500.256
L734.746 495.813
L735.415 504.699
L736.085 489.888
L736.754 520.992
L737.424 497.294
L738.094 504.699
L738.763 491.369
L739.433 518.03
L740.102 519.511
L740.772 488.407
L741.442 495.813
L742.111 506.181
L742.781 520.992
L743.45 516.549
L744.12 506.181
L744.79 478.039
L745.459 491.369
L746.129 495.813
L747.468 501.737
L748.138 520.992
L748.807 504.699
L749.477 491.369
L750.146 497.294
L750.816 485.445
L751.486 491.369
L752.155 479.52
L752.825 483.963
L753.494 525.435
L754.164 486.926
L754.834 510.624
L755.503 516.549
L756.173 500.256
L756.842 491.369
L757.512 491.369
L758.182 503.218
L758.851 501.737
L759.521 489.888
L760.19 489.888
L760.86 509.143
L761.53 495.813
L762.199 498.775
L762.869 510.624
L763.538 500.256
L764.208 506.181
L764.878 498.775
L765.547 501.737
L766.217 494.331
L766.886 489.888
L767.556 509.143
L768.895 494.331
L769.565 523.954
L770.904 509.143
L771.574 495.813
L772.243 498.775
L772.913 512.105
L773.582 507.662
L774.252 515.067
L774.922 512.105
L775.591 489.888
L776.261 491.369
L776.93 528.398
L777.6 512.105
L777.6 512.105" style="fill:none;stroke:#0000ff;stroke-linecap:square;"/>
   </g>
   <g id="patch_3">
    <path d="
M108 583.2
L777.6 583.2" style="fill:none;stroke:#000000;stroke-linecap:square;stroke-linejoin:miter;"/>
   </g>
   <g id="patch_4">
    <path d="
M108 583.2
L108 64.8" style="fill:none;stroke:#000000;stroke-linecap:square;stroke-linejoin:miter;"/>
   </g>
   <g id="patch_5">
    <path d="
M108 64.8
L777.6 64.8" style="fill:none;stroke:#000000;stroke-linecap:square;stroke-linejoin:miter;"/>
   </g>
   <g id="patch_6">
    <path d="
M777.6 583.2
L777.6 64.8" style="fill:none;stroke:#000000;stroke-linecap:square;stroke-linejoin:miter;"/>
   </g>
   <g id="matplotlib.axis_1">
    <g id="xtick_1">
     <g id="line2d_4">
      <defs>
       <path d="
M0 0
L0 -4" id="mc7db9fdffb" style="stroke:#000000;stroke-width:0.5;"/>
      </defs>
      <g>
       <use style="stroke:#000000;stroke-width:0.5;" x="108.0" xlink:href="#mc7db9fdffb" y="583.2"/>
      </g>
     </g>
     <g id="line2d_5">
      <defs>
       <path d="
M0 0
L0 4" id="m5a7d422ac3" style="stroke:#000000;stroke-width:0.5;"/>
      </defs>
      <g>
       <use style="stroke:#000000;stroke-width:0.5;" x="108.0" xlink:href="#m5a7d422ac3" y="64.8"/>
      </g>
     </g>
     <g id="text_1">
      <!-- 0 -->
      <defs>
       <path d="
M31.7812 66.4062
Q24.1719 66.4062 20.3281 58.9062
Q16.5 51.4219 16.5 36.375
Q16.5 21.3906 20.3281 13.8906
Q24.1719 6.39062 31.7812 6.39062
Q39.4531 6.39062 43.2812 13.8906
Q47.125 21.3906 47.125 36.375
Q47.125 51.4219 43.2812 58.9062
Q39.4531 66.4062 31.7812 66.4062
M31.7812 74.2188
Q44.0469 74.2188 50.5156 64.5156
Q56.9844 54.8281 56.9844 36.375
Q56.9844 17.9688 50.5156 8.26562
Q44.0469 -1.42188 31.7812 -1.42188
Q19.5312 -1.42188 13.0625 8.26562
Q6.59375 17.9688 6.59375 36.375
Q6.59375 54.8281 13.0625 64.5156
Q19.5312 74.2188 31.7812 74.2188" id="BitstreamVeraSans-Roman-30"/>
      </defs>
      <g transform="translate(104.9765625 596.318125)scale(0.12 -0.12)">
       <use xlink:href="#BitstreamVeraSans-Roman-30"/>
      </g>
     </g>
    </g>
    <g id="xtick_2">
     <g id="line2d_6">
      <g>
       <use style="stroke:#000000;stroke-width:0.5;" x="275.4" xlink:href="#mc7db9fdffb" y="583.2"/>
      </g>
     </g>
     <g id="line2d_7">
      <g>
       <use style="stroke:#000000;stroke-width:0.5;" x="275.4" xlink:href="#m5a7d422ac3" y="64.8"/>
      </g>
     </g>
     <g id="text_2">
      <!-- 50000 -->
      <defs>
       <path d="
M10.7969 72.9062
L49.5156 72.9062
L49.5156 64.5938
L19.8281 64.5938
L19.8281 46.7344
Q21.9688 47.4688 24.1094 47.8281
Q26.2656 48.1875 28.4219 48.1875
Q40.625 48.1875 47.75 41.5
Q54.8906 34.8125 54.8906 23.3906
Q54.8906 11.625 47.5625 5.09375
Q40.2344 -1.42188 26.9062 -1.42188
Q22.3125 -1.42188 17.5469 -0.640625
Q12.7969 0.140625 7.71875 1.70312
L7.71875 11.625
Q12.1094 9.23438 16.7969 8.0625
Q21.4844 6.89062 26.7031 6.89062
Q35.1562 6.89062 40.0781 11.3281
Q45.0156 15.7656 45.0156 23.3906
Q45.0156 31 40.0781 35.4375
Q35.1562 39.8906 26.7031 39.8906
Q22.75 39.8906 18.8125 39.0156
Q14.8906 38.1406 10.7969 36.2812
z
" id="BitstreamVeraSans-Roman-35"/>
      </defs>
      <g transform="translate(257.1740625 596.318125)scale(0.12 -0.12)">
       <use xlink:href="#BitstreamVeraSans-Roman-35"/>
       <use x="63.623046875" xlink:href="#BitstreamVeraSans-Roman-30"/>
       <use x="127.24609375" xlink:href="#BitstreamVeraSans-Roman-30"/>
       <use x="190.869140625" xlink:href="#BitstreamVeraSans-Roman-30"/>
       <use x="254.4921875" xlink:href="#BitstreamVeraSans-Roman-30"/>
      </g>
     </g>
    </g>
    <g id="xtick_3">
     <g id="line2d_8">
      <g>
       <use style="stroke:#000000;stroke-width:0.5;" x="442.8" xlink:href="#mc7db9fdffb" y="583.2"/>
      </g>
     </g>
     <g id="line2d_9">
      <g>
       <use style="stroke:#000000;stroke-width:0.5;" x="442.8" xlink:href="#m5a7d422ac3" y="64.8"/>
      </g>
     </g>
     <g id="text_3">
      <!-- 100000 -->
      <defs>
       <path d="
M12.4062 8.29688
L28.5156 8.29688
L28.5156 63.9219
L10.9844 60.4062
L10.9844 69.3906
L28.4219 72.9062
L38.2812 72.9062
L38.2812 8.29688
L54.3906 8.29688
L54.3906 0
L12.4062 0
z
" id="BitstreamVeraSans-Roman-31"/>
      </defs>
      <g transform="translate(420.9525 596.318125)scale(0.12 -0.12)">
       <use xlink:href="#BitstreamVeraSans-Roman-31"/>
       <use x="63.623046875" xlink:href="#BitstreamVeraSans-Roman-30"/>
       <use x="127.24609375" xlink:href="#BitstreamVeraSans-Roman-30"/>
       <use x="190.869140625" xlink:href="#BitstreamVeraSans-Roman-30"/>
       <use x="254.4921875" xlink:href="#BitstreamVeraSans-Roman-30"/>
       <use x="318.115234375" xlink:href="#BitstreamVeraSans-Roman-30"/>
      </g>
     </g>
    </g>
    <g id="xtick_4">
     <g id="line2d_10">
      <g>
       <use style="stroke:#000000;stroke-width:0.5;" x="610.2" xlink:href="#mc7db9fdffb" y="583.2"/>
      </g>
     </g>
     <g id="line2d_11">
      <g>
       <use style="stroke:#000000;stroke-width:0.5;" x="610.2" xlink:href="#m5a7d422ac3" y="64.8"/>
      </g>
     </g>
     <g id="text_4">
      <!-- 150000 -->
      <g transform="translate(588.3525 596.318125)scale(0.12 -0.12)">
       <use xlink:href="#BitstreamVeraSans-Roman-31"/>
       <use x="63.623046875" xlink:href="#BitstreamVeraSans-Roman-35"/>
       <use x="127.24609375" xlink:href="#BitstreamVeraSans-Roman-30"/>
       <use x="190.869140625" xlink:href="#BitstreamVeraSans-Roman-30"/>
       <use x="254.4921875" xlink:href="#BitstreamVeraSans-Roman-30"/>
       <use x="318.115234375" xlink:href="#BitstreamVeraSans-Roman-30"/>
      </g>
     </g>
    </g>
    <g id="xtick_5">
     <g id="line2d_12">
      <g>
       <use style="stroke:#000000;stroke-width:0.5;" x="777.6" xlink:href="#mc7db9fdffb" y="583.2"/>
      </g>
     </g>
     <g id="line2d_13">
      <g>
       <use style="stroke:#000000;stroke-width:0.5;" x="777.6" xlink:href="#m5a7d422ac3" y="64.8"/>
      </g>
     </g>
     <g id="text_5">
      <!-- 200000 -->
      <defs>
       <path d="
M19.1875 8.29688
L53.6094 8.29688
L53.6094 0
L7.32812 0
L7.32812 8.29688
Q12.9375 14.1094 22.625 23.8906
Q32.3281 33.6875 34.8125 36.5312
Q39.5469 41.8438 41.4219 45.5312
Q43.3125 49.2188 43.3125 52.7812
Q43.3125 58.5938 39.2344 62.25
Q35.1562 65.9219 28.6094 65.9219
Q23.9688 65.9219 18.8125 64.3125
Q13.6719 62.7031 7.8125 59.4219
L7.8125 69.3906
Q13.7656 71.7812 18.9375 73
Q24.125 74.2188 28.4219 74.2188
Q39.75 74.2188 46.4844 68.5469
Q53.2188 62.8906 53.2188 53.4219
Q53.2188 48.9219 51.5312 44.8906
Q49.8594 40.875 45.4062 35.4062
Q44.1875 33.9844 37.6406 27.2188
Q31.1094 20.4531 19.1875 8.29688" id="BitstreamVeraSans-Roman-32"/>
      </defs>
      <g transform="translate(755.533125 596.318125)scale(0.12 -0.12)">
       <use xlink:href="#BitstreamVeraSans-Roman-32"/>
       <use x="63.623046875" xlink:href="#BitstreamVeraSans-Roman-30"/>
       <use x="127.24609375" xlink:href="#BitstreamVeraSans-Roman-30"/>
       <use x="190.869140625" xlink:href="#BitstreamVeraSans-Roman-30"/>
       <use x="254.4921875" xlink:href="#BitstreamVeraSans-Roman-30"/>
       <use x="318.115234375" xlink:href="#BitstreamVeraSans-Roman-30"/>
      </g>
     </g>
    </g>
    <g id="text_6">
     <!-- t / ms -->
     <defs>
      <path d="
M52 44.1875
Q55.375 50.25 60.0625 53.125
Q64.75 56 71.0938 56
Q79.6406 56 84.2812 50.0156
Q88.9219 44.0469 88.9219 33.0156
L88.9219 0
L79.8906 0
L79.8906 32.7188
Q79.8906 40.5781 77.0938 44.375
Q74.3125 48.1875 68.6094 48.1875
Q61.625 48.1875 57.5625 43.5469
Q53.5156 38.9219 53.5156 30.9062
L53.5156 0
L44.4844 0
L44.4844 32.7188
Q44.4844 40.625 41.7031 44.4062
Q38.9219 48.1875 33.1094 48.1875
Q26.2188 48.1875 22.1562 43.5312
Q18.1094 38.875 18.1094 30.9062
L18.1094 0
L9.07812 0
L9.07812 54.6875
L18.1094 54.6875
L18.1094 46.1875
Q21.1875 51.2188 25.4844 53.6094
Q29.7812 56 35.6875 56
Q41.6562 56 45.8281 52.9688
Q50 49.9531 52 44.1875" id="BitstreamVeraSans-Roman-6d"/>
      <path d="
M25.3906 72.9062
L33.6875 72.9062
L8.29688 -9.28125
L0 -9.28125
z
" id="BitstreamVeraSans-Roman-2f"/>
      <path d="
M18.3125 70.2188
L18.3125 54.6875
L36.8125 54.6875
L36.8125 47.7031
L18.3125 47.7031
L18.3125 18.0156
Q18.3125 11.3281 20.1406 9.42188
Q21.9688 7.51562 27.5938 7.51562
L36.8125 7.51562
L36.8125 0
L27.5938 0
Q17.1875 0 13.2344 3.875
Q9.28125 7.76562 9.28125 18.0156
L9.28125 47.7031
L2.6875 47.7031
L2.6875 54.6875
L9.28125 54.6875
L9.28125 70.2188
z
" id="BitstreamVeraSans-Roman-74"/>
      <path id="BitstreamVeraSans-Roman-20"/>
      <path d="
M44.2812 53.0781
L44.2812 44.5781
Q40.4844 46.5312 36.375 47.5
Q32.2812 48.4844 27.875 48.4844
Q21.1875 48.4844 17.8438 46.4375
Q14.5 44.3906 14.5 40.2812
Q14.5 37.1562 16.8906 35.375
Q19.2812 33.5938 26.5156 31.9844
L29.5938 31.2969
Q39.1562 29.25 43.1875 25.5156
Q47.2188 21.7812 47.2188 15.0938
Q47.2188 7.46875 41.1875 3.01562
Q35.1562 -1.42188 24.6094 -1.42188
Q20.2188 -1.42188 15.4531 -0.5625
Q10.6875 0.296875 5.42188 2
L5.42188 11.2812
Q10.4062 8.6875 15.2344 7.39062
Q20.0625 6.10938 24.8125 6.10938
Q31.1562 6.10938 34.5625 8.28125
Q37.9844 10.4531 37.9844 14.4062
Q37.9844 18.0625 35.5156 20.0156
Q33.0625 21.9688 24.7031 23.7812
L21.5781 24.5156
Q13.2344 26.2656 9.51562 29.9062
Q5.8125 33.5469 5.8125 39.8906
Q5.8125 47.6094 11.2812 51.7969
Q16.75 56 26.8125 56
Q31.7812 56 36.1719 55.2656
Q40.5781 54.5469 44.2812 53.0781" id="BitstreamVeraSans-Roman-73"/>
     </defs>
     <g transform="translate(425.9353125 612.931875)scale(0.12 -0.12)">
      <use xlink:href="#BitstreamVeraSans-Roman-74"/>
      <use x="39.208984375" xlink:href="#BitstreamVeraSans-Roman-20"/>
      <use x="70.99609375" xlink:href="#BitstreamVeraSans-Roman-2f"/>
      <use x="104.6875" xlink:href="#BitstreamVeraSans-Roman-20"/>
      <use x="136.474609375" xlink:href="#BitstreamVeraSans-Roman-6d"/>
      <use x="233.88671875" xlink:href="#BitstreamVeraSans-Roman-73"/>
     </g>
    </g>
   </g>
   <g id="matplotlib.axis_2">
    <g id="ytick_1">
     <g id="line2d_14">
      <defs>
       <path d="
M0 0
L4 0" id="md7965d1ba0" style="stroke:#000000;stroke-width:0.5;"/>
      </defs>
      <g>
       <use style="stroke:#000000;stroke-width:0.5;" x="108.0" xlink:href="#md7965d1ba0" y="583.2"/>
      </g>
     </g>
     <g id="line2d_15">
      <defs>
       <path d="
M0 0
L-4 0" id="md9a1c1a7cd" style="stroke:#000000;stroke-width:0.5;"/>
      </defs>
      <g>
       <use style="stroke:#000000;stroke-width:0.5;" x="777.6" xlink:href="#md9a1c1a7cd" y="583.2"/>
      </g>
     </g>
     <g id="text_7">
      <!-- 0 -->
      <g transform="translate(97.953125 586.51125)scale(0.12 -0.12)">
       <use xlink:href="#BitstreamVeraSans-Roman-30"/>
      </g>
     </g>
    </g>
    <g id="ytick_2">
     <g id="line2d_16">
      <g>
       <use style="stroke:#000000;stroke-width:0.5;" x="108.0" xlink:href="#md7965d1ba0" y="509.142857143"/>
      </g>
     </g>
     <g id="line2d_17">
      <g>
       <use style="stroke:#000000;stroke-width:0.5;" x="777.6" xlink:href="#md9a1c1a7cd" y="509.142857143"/>
      </g>
     </g>
     <g id="text_8">
      <!-- 50 -->
      <g transform="translate(90.453125 512.454107143)scale(0.12 -0.12)">
       <use xlink:href="#BitstreamVeraSans-Roman-35"/>
       <use x="63.623046875" xlink:href="#BitstreamVeraSans-Roman-30"/>
      </g>
     </g>
    </g>
    <g id="ytick_3">
     <g id="line2d_18">
      <g>
       <use style="stroke:#000000;stroke-width:0.5;" x="108.0" xlink:href="#md7965d1ba0" y="435.085714286"/>
      </g>
     </g>
     <g id="line2d_19">
      <g>
       <use style="stroke:#000000;stroke-width:0.5;" x="777.6" xlink:href="#md9a1c1a7cd" y="435.085714286"/>
      </g>
     </g>
     <g id="text_9">
      <!-- 100 -->
      <g transform="translate(83.21 438.396964286)scale(0.12 -0.12)">
       <use xlink:href="#BitstreamVeraSans-Roman-31"/>
       <use x="63.623046875" xlink:href="#BitstreamVeraSans-Roman-30"/>
       <use x="127.24609375" xlink:href="#BitstreamVeraSans-Roman-30"/>
      </g>
     </g>
    </g>
    <g id="ytick_4">
     <g id="line2d_20">
      <g>
       <use style="stroke:#000000;stroke-width:0.5;" x="108.0" xlink:href="#md7965d1ba0" y="361.028571429"/>
      </g>
     </g>
     <g id="line2d_21">
      <g>
       <use style="stroke:#000000;stroke-width:0.5;" x="777.6" xlink:href="#md9a1c1a7cd" y="361.028571429"/>
      </g>
     </g>
     <g id="text_10">
      <!-- 150 -->
      <g transform="translate(83.21 364.339821429)scale(0.12 -0.12)">
       <use xlink:href="#BitstreamVeraSans-Roman-31"/>
       <use x="63.623046875" xlink:href="#BitstreamVeraSans-Roman-35"/>
       <use x="127.24609375" xlink:href="#BitstreamVeraSans-Roman-30"/>
      </g>
     </g>
    </g>
    <g id="ytick_5">
     <g id="line2d_22">
      <g>
       <use style="stroke:#000000;stroke-width:0.5;" x="108.0" xlink:href="#md7965d1ba0" y="286.971428571"/>
      </g>
     </g>
     <g id="line2d_23">
      <g>
       <use style="stroke:#000000;stroke-width:0.5;" x="777.6" xlink:href="#md9a1c1a7cd" y="286.971428571"/>
      </g>
     </g>
     <g id="text_11">
      <!-- 200 -->
      <g transform="translate(82.77125 290.282678571)scale(0.12 -0.12)">
       <use xlink:href="#BitstreamVeraSans-Roman-32"/>
       <use x="63.623046875" xlink:href="#BitstreamVeraSans-Roman-30"/>
       <use x="127.24609375" xlink:href="#BitstreamVeraSans-Roman-30"/>
      </g>
     </g>
    </g>
    <g id="ytick_6">
     <g id="line2d_24">
      <g>
       <use style="stroke:#000000;stroke-width:0.5;" x="108.0" xlink:href="#md7965d1ba0" y="212.914285714"/>
      </g>
     </g>
     <g id="line2d_25">
      <g>
       <use style="stroke:#000000;stroke-width:0.5;" x="777.6" xlink:href="#md9a1c1a7cd" y="212.914285714"/>
      </g>
     </g>
     <g id="text_12">
      <!-- 250 -->
      <g transform="translate(82.77125 216.225535714)scale(0.12 -0.12)">
       <use xlink:href="#BitstreamVeraSans-Roman-32"/>
       <use x="63.623046875" xlink:href="#BitstreamVeraSans-Roman-35"/>
       <use x="127.24609375" xlink:href="#BitstreamVeraSans-Roman-30"/>
      </g>
     </g>
    </g>
    <g id="ytick_7">
     <g id="line2d_26">
      <g>
       <use style="stroke:#000000;stroke-width:0.5;" x="108.0" xlink:href="#md7965d1ba0" y="138.857142857"/>
      </g>
     </g>
     <g id="line2d_27">
      <g>
       <use style="stroke:#000000;stroke-width:0.5;" x="777.6" xlink:href="#md9a1c1a7cd" y="138.857142857"/>
      </g>
     </g>
     <g id="text_13">
      <!-- 300 -->
      <defs>
       <path d="
M40.5781 39.3125
Q47.6562 37.7969 51.625 33
Q55.6094 28.2188 55.6094 21.1875
Q55.6094 10.4062 48.1875 4.48438
Q40.7656 -1.42188 27.0938 -1.42188
Q22.5156 -1.42188 17.6562 -0.515625
Q12.7969 0.390625 7.625 2.20312
L7.625 11.7188
Q11.7188 9.32812 16.5938 8.10938
Q21.4844 6.89062 26.8125 6.89062
Q36.0781 6.89062 40.9375 10.5469
Q45.7969 14.2031 45.7969 21.1875
Q45.7969 27.6406 41.2812 31.2656
Q36.7656 34.9062 28.7188 34.9062
L20.2188 34.9062
L20.2188 43.0156
L29.1094 43.0156
Q36.375 43.0156 40.2344 45.9219
Q44.0938 48.8281 44.0938 54.2969
Q44.0938 59.9062 40.1094 62.9062
Q36.1406 65.9219 28.7188 65.9219
Q24.6562 65.9219 20.0156 65.0312
Q15.375 64.1562 9.8125 62.3125
L9.8125 71.0938
Q15.4375 72.6562 20.3438 73.4375
Q25.25 74.2188 29.5938 74.2188
Q40.8281 74.2188 47.3594 69.1094
Q53.9062 64.0156 53.9062 55.3281
Q53.9062 49.2656 50.4375 45.0938
Q46.9688 40.9219 40.5781 39.3125" id="BitstreamVeraSans-Roman-33"/>
      </defs>
      <g transform="translate(82.806875 142.168392857)scale(0.12 -0.12)">
       <use xlink:href="#BitstreamVeraSans-Roman-33"/>
       <use x="63.623046875" xlink:href="#BitstreamVeraSans-Roman-30"/>
       <use x="127.24609375" xlink:href="#BitstreamVeraSans-Roman-30"/>
      </g>
     </g>
    </g>
    <g id="ytick_8">
     <g id="line2d_28">
      <g>
       <use style="stroke:#000000;stroke-width:0.5;" x="108.0" xlink:href="#md7965d1ba0" y="64.8"/>
      </g>
     </g>
     <g id="line2d_29">
      <g>
       <use style="stroke:#000000;stroke-width:0.5;" x="777.6" xlink:href="#md9a1c1a7cd" y="64.8"/>
      </g>
     </g>
     <g id="text_14">
      <!-- 350 -->
      <g transform="translate(82.806875 68.11125)scale(0.12 -0.12)">
       <use xlink:href="#BitstreamVeraSans-Roman-33"/>
       <use x="63.623046875" xlink:href="#BitstreamVeraSans-Roman-35"/>
       <use x="127.24609375" xlink:href="#BitstreamVeraSans-Roman-30"/>
      </g>
     </g>
    </g>
    <g id="text_15">
     <!-- particle numbers -->
     <defs>
      <path d="
M9.42188 54.6875
L18.4062 54.6875
L18.4062 0
L9.42188 0
z

M9.42188 75.9844
L18.4062 75.9844
L18.4062 64.5938
L9.42188 64.5938
z
" id="BitstreamVeraSans-Roman-69"/>
      <path d="
M41.1094 46.2969
Q39.5938 47.1719 37.8125 47.5781
Q36.0312 48 33.8906 48
Q26.2656 48 22.1875 43.0469
Q18.1094 38.0938 18.1094 28.8125
L18.1094 0
L9.07812 0
L9.07812 54.6875
L18.1094 54.6875
L18.1094 46.1875
Q20.9531 51.1719 25.4844 53.5781
Q30.0312 56 36.5312 56
Q37.4531 56 38.5781 55.875
Q39.7031 55.7656 41.0625 55.5156
z
" id="BitstreamVeraSans-Roman-72"/>
      <path d="
M8.5 21.5781
L8.5 54.6875
L17.4844 54.6875
L17.4844 21.9219
Q17.4844 14.1562 20.5 10.2656
Q23.5312 6.39062 29.5938 6.39062
Q36.8594 6.39062 41.0781 11.0312
Q45.3125 15.6719 45.3125 23.6875
L45.3125 54.6875
L54.2969 54.6875
L54.2969 0
L45.3125 0
L45.3125 8.40625
Q42.0469 3.42188 37.7188 1
Q33.4062 -1.42188 27.6875 -1.42188
Q18.2656 -1.42188 13.375 4.4375
Q8.5 10.2969 8.5 21.5781" id="BitstreamVeraSans-Roman-75"/>
      <path d="
M54.8906 33.0156
L54.8906 0
L45.9062 0
L45.9062 32.7188
Q45.9062 40.4844 42.875 44.3281
Q39.8438 48.1875 33.7969 48.1875
Q26.5156 48.1875 22.3125 43.5469
Q18.1094 38.9219 18.1094 30.9062
L18.1094 0
L9.07812 0
L9.07812 54.6875
L18.1094 54.6875
L18.1094 46.1875
Q21.3438 51.125 25.7031 53.5625
Q30.0781 56 35.7969 56
Q45.2188 56 50.0469 50.1719
Q54.8906 44.3438 54.8906 33.0156" id="BitstreamVeraSans-Roman-6e"/>
      <path d="
M18.1094 8.20312
L18.1094 -20.7969
L9.07812 -20.7969
L9.07812 54.6875
L18.1094 54.6875
L18.1094 46.3906
Q20.9531 51.2656 25.2656 53.625
Q29.5938 56 35.5938 56
Q45.5625 56 51.7812 48.0938
Q58.0156 40.1875 58.0156 27.2969
Q58.0156 14.4062 51.7812 6.48438
Q45.5625 -1.42188 35.5938 -1.42188
Q29.5938 -1.42188 25.2656 0.953125
Q20.9531 3.32812 18.1094 8.20312
M48.6875 27.2969
Q48.6875 37.2031 44.6094 42.8438
Q40.5312 48.4844 33.4062 48.4844
Q26.2656 48.4844 22.1875 42.8438
Q18.1094 37.2031 18.1094 27.2969
Q18.1094 17.3906 22.1875 11.75
Q26.2656 6.10938 33.4062 6.10938
Q40.5312 6.10938 44.6094 11.75
Q48.6875 17.3906 48.6875 27.2969" id="BitstreamVeraSans-Roman-70"/>
      <path d="
M48.7812 52.5938
L48.7812 44.1875
Q44.9688 46.2969 41.1406 47.3438
Q37.3125 48.3906 33.4062 48.3906
Q24.6562 48.3906 19.8125 42.8438
Q14.9844 37.3125 14.9844 27.2969
Q14.9844 17.2812 19.8125 11.7344
Q24.6562 6.20312 33.4062 6.20312
Q37.3125 6.20312 41.1406 7.25
Q44.9688 8.29688 48.7812 10.4062
L48.7812 2.09375
Q45.0156 0.34375 40.9844 -0.53125
Q36.9688 -1.42188 32.4219 -1.42188
Q20.0625 -1.42188 12.7812 6.34375
Q5.51562 14.1094 5.51562 27.2969
Q5.51562 40.6719 12.8594 48.3281
Q20.2188 56 33.0156 56
Q37.1562 56 41.1094 55.1406
Q45.0625 54.2969 48.7812 52.5938" id="BitstreamVeraSans-Roman-63"/>
      <path d="
M48.6875 27.2969
Q48.6875 37.2031 44.6094 42.8438
Q40.5312 48.4844 33.4062 48.4844
Q26.2656 48.4844 22.1875 42.8438
Q18.1094 37.2031 18.1094 27.2969
Q18.1094 17.3906 22.1875 11.75
Q26.2656 6.10938 33.4062 6.10938
Q40.5312 6.10938 44.6094 11.75
Q48.6875 17.3906 48.6875 27.2969
M18.1094 46.3906
Q20.9531 51.2656 25.2656 53.625
Q29.5938 56 35.5938 56
Q45.5625 56 51.7812 48.0938
Q58.0156 40.1875 58.0156 27.2969
Q58.0156 14.4062 51.7812 6.48438
Q45.5625 -1.42188 35.5938 -1.42188
Q29.5938 -1.42188 25.2656 0.953125
Q20.9531 3.32812 18.1094 8.20312
L18.1094 0
L9.07812 0
L9.07812 75.9844
L18.1094 75.9844
z
" id="BitstreamVeraSans-Roman-62"/>
      <path d="
M34.2812 27.4844
Q23.3906 27.4844 19.1875 25
Q14.9844 22.5156 14.9844 16.5
Q14.9844 11.7188 18.1406 8.90625
Q21.2969 6.10938 26.7031 6.10938
Q34.1875 6.10938 38.7031 11.4062
Q43.2188 16.7031 43.2188 25.4844
L43.2188 27.4844
z

M52.2031 31.2031
L52.2031 0
L43.2188 0
L43.2188 8.29688
Q40.1406 3.32812 35.5469 0.953125
Q30.9531 -1.42188 24.3125 -1.42188
Q15.9219 -1.42188 10.9531 3.29688
Q6 8.01562 6 15.9219
Q6 25.1406 12.1719 29.8281
Q18.3594 34.5156 30.6094 34.5156
L43.2188 34.5156
L43.2188 35.4062
Q43.2188 41.6094 39.1406 45
Q35.0625 48.3906 27.6875 48.3906
Q23 48.3906 18.5469 47.2656
Q14.1094 46.1406 10.0156 43.8906
L10.0156 52.2031
Q14.9375 54.1094 19.5781 55.0469
Q24.2188 56 28.6094 56
Q40.4844 56 46.3438 49.8438
Q52.2031 43.7031 52.2031 31.2031" id="BitstreamVeraSans-Roman-61"/>
      <path d="
M9.42188 75.9844
L18.4062 75.9844
L18.4062 0
L9.42188 0
z
" id="BitstreamVeraSans-Roman-6c"/>
      <path d="
M56.2031 29.5938
L56.2031 25.2031
L14.8906 25.2031
Q15.4844 15.9219 20.4844 11.0625
Q25.4844 6.20312 34.4219 6.20312
Q39.5938 6.20312 44.4531 7.46875
Q49.3125 8.73438 54.1094 11.2812
L54.1094 2.78125
Q49.2656 0.734375 44.1875 -0.34375
Q39.1094 -1.42188 33.8906 -1.42188
Q20.7969 -1.42188 13.1562 6.1875
Q5.51562 13.8125 5.51562 26.8125
Q5.51562 40.2344 12.7656 48.1094
Q20.0156 56 32.3281 56
Q43.3594 56 49.7812 48.8906
Q56.2031 41.7969 56.2031 29.5938
M47.2188 32.2344
Q47.125 39.5938 43.0938 43.9844
Q39.0625 48.3906 32.4219 48.3906
Q24.9062 48.3906 20.3906 44.1406
Q15.875 39.8906 15.1875 32.1719
z
" id="BitstreamVeraSans-Roman-65"/>
     </defs>
     <g transform="translate(75.275625 374.78625)rotate(-90.0)scale(0.12 -0.12)">
      <use xlink:href="#BitstreamVeraSans-Roman-70"/>
      <use x="63.4765625" xlink:href="#BitstreamVeraSans-Roman-61"/>
      <use x="124.755859375" xlink:href="#BitstreamVeraSans-Roman-72"/>
      <use x="165.869140625" xlink:href="#BitstreamVeraSans-Roman-74"/>
      <use x="205.078125" xlink:href="#BitstreamVeraSans-Roman-69"/>
      <use x="232.861328125" xlink:href="#BitstreamVeraSans-Roman-63"/>
      <use x="287.841796875" xlink:href="#BitstreamVeraSans-Roman-6c"/>
      <use x="315.625" xlink:href="#BitstreamVeraSans-Roman-65"/>
      <use x="377.1484375" xlink:href="#BitstreamVeraSans-Roman-20"/>
      <use x="408.935546875" xlink:href="#BitstreamVeraSans-Roman-6e"/>
      <use x="472.314453125" xlink:href="#BitstreamVeraSans-Roman-75"/>
      <use x="535.693359375" xlink:href="#BitstreamVeraSans-Roman-6d"/>
      <use x="633.10546875" xlink:href="#BitstreamVeraSans-Roman-62"/>
      <use x="696.58203125" xlink:href="#BitstreamVeraSans-Roman-65"/>
      <use x="758.10546875" xlink:href="#BitstreamVeraSans-Roman-72"/>
      <use x="799.21875" xlink:href="#BitstreamVeraSans-Roman-73"/>
     </g>
    </g>
   </g>
   <g id="legend_1">
    <g id="patch_7">
     <path d="
M717.006 101.224
L774.1 101.224
L774.1 68.3
L717.006 68.3
z
" style="fill:#ffffff;stroke:#000000;stroke-linejoin:miter;"/>
    </g>
    <g id="line2d_30">
     <path d="
M721.906 73.9689
L731.706 73.9689" style="fill:none;stroke:#ff0000;stroke-linecap:square;"/>
    </g>
    <g id="line2d_31"/>
    <g id="text_16">
     <!-- PKAc el.0 -->
     <defs>
      <path d="
M34.1875 63.1875
L20.7969 26.9062
L47.6094 26.9062
z

M28.6094 72.9062
L39.7969 72.9062
L67.5781 0
L57.3281 0
L50.6875 18.7031
L17.8281 18.7031
L11.1875 0
L0.78125 0
z
" id="BitstreamVeraSans-Roman-41"/>
      <path d="
M9.8125 72.9062
L19.6719 72.9062
L19.6719 42.0938
L52.3906 72.9062
L65.0938 72.9062
L28.9062 38.9219
L67.6719 0
L54.6875 0
L19.6719 35.1094
L19.6719 0
L9.8125 0
z
" id="BitstreamVeraSans-Roman-4b"/>
      <path d="
M19.6719 64.7969
L19.6719 37.4062
L32.0781 37.4062
Q38.9688 37.4062 42.7188 40.9688
Q46.4844 44.5312 46.4844 51.125
Q46.4844 57.6719 42.7188 61.2344
Q38.9688 64.7969 32.0781 64.7969
z

M9.8125 72.9062
L32.0781 72.9062
Q44.3438 72.9062 50.6094 67.3594
Q56.8906 61.8125 56.8906 51.125
Q56.8906 40.3281 50.6094 34.8125
Q44.3438 29.2969 32.0781 29.2969
L19.6719 29.2969
L19.6719 0
L9.8125 0
z
" id="BitstreamVeraSans-Roman-50"/>
      <path d="
M10.6875 12.4062
L21 12.4062
L21 0
L10.6875 0
z
" id="BitstreamVeraSans-Roman-2e"/>
     </defs>
     <g transform="translate(739.40625 76.41890625)scale(0.07 -0.07)">
      <use xlink:href="#BitstreamVeraSans-Roman-50"/>
      <use x="60.302734375" xlink:href="#BitstreamVeraSans-Roman-4b"/>
      <use x="124.12890625" xlink:href="#BitstreamVeraSans-Roman-41"/>
      <use x="190.787109375" xlink:href="#BitstreamVeraSans-Roman-63"/>
      <use x="245.767578125" xlink:href="#BitstreamVeraSans-Roman-20"/>
      <use x="277.5546875" xlink:href="#BitstreamVeraSans-Roman-65"/>
      <use x="339.078125" xlink:href="#BitstreamVeraSans-Roman-6c"/>
      <use x="366.861328125" xlink:href="#BitstreamVeraSans-Roman-2e"/>
      <use x="398.6484375" xlink:href="#BitstreamVeraSans-Roman-30"/>
     </g>
    </g>
    <g id="line2d_32">
     <path d="
M721.906 84.2436
L731.706 84.2436" style="fill:none;stroke:#008000;stroke-linecap:square;"/>
    </g>
    <g id="line2d_33"/>
    <g id="text_17">
     <!-- PKAc el.1 -->
     <g transform="translate(739.40625 86.69359375)scale(0.07 -0.07)">
      <use xlink:href="#BitstreamVeraSans-Roman-50"/>
      <use x="60.302734375" xlink:href="#BitstreamVeraSans-Roman-4b"/>
      <use x="124.12890625" xlink:href="#BitstreamVeraSans-Roman-41"/>
      <use x="190.787109375" xlink:href="#BitstreamVeraSans-Roman-63"/>
      <use x="245.767578125" xlink:href="#BitstreamVeraSans-Roman-20"/>
      <use x="277.5546875" xlink:href="#BitstreamVeraSans-Roman-65"/>
      <use x="339.078125" xlink:href="#BitstreamVeraSans-Roman-6c"/>
      <use x="366.861328125" xlink:href="#BitstreamVeraSans-Roman-2e"/>
      <use x="398.6484375" xlink:href="#BitstreamVeraSans-Roman-31"/>
     </g>
    </g>
    <g id="line2d_34">
     <path d="
M721.906 94.5183
L731.706 94.5183" style="fill:none;stroke:#0000ff;stroke-linecap:square;"/>
    </g>
    <g id="line2d_35"/>
    <g id="text_18">
     <!-- PKAc el.2 -->
     <g transform="translate(739.40625 96.96828125)scale(0.07 -0.07)">
      <use xlink:href="#BitstreamVeraSans-Roman-50"/>
      <use x="60.302734375" xlink:href="#BitstreamVeraSans-Roman-4b"/>
      <use x="124.12890625" xlink:href="#BitstreamVeraSans-Roman-41"/>
      <use x="190.787109375" xlink:href="#BitstreamVeraSans-Roman-63"/>
      <use x="245.767578125" xlink:href="#BitstreamVeraSans-Roman-20"/>
      <use x="277.5546875" xlink:href="#BitstreamVeraSans-Roman-65"/>
      <use x="339.078125" xlink:href="#BitstreamVeraSans-Roman-6c"/>
      <use x="366.861328125" xlink:href="#BitstreamVeraSans-Roman-2e"/>
      <use x="398.6484375" xlink:href="#BitstreamVeraSans-Roman-32"/>
     </g>
    </g>
   </g>
  </g>
 </g>
 <defs>
  <clipPath id="p7ceb695115">
   <rect height="518.4" width="669.6" x="108.0" y="64.8"/>
  </clipPath>
 </defs>
</svg>
