<?xml version="1.0" encoding="utf-8" standalone="no"?>
<!DOCTYPE svg PUBLIC "-//W3C//DTD SVG 1.1//EN"
  "http://www.w3.org/Graphics/SVG/1.1/DTD/svg11.dtd">
<!-- Created with matplotlib (http://matplotlib.org/) -->
<svg height="648pt" version="1.1" viewBox="0 0 864 648" width="864pt" xmlns="http://www.w3.org/2000/svg" xmlns:xlink="http://www.w3.org/1999/xlink">
 <defs>
  <style type="text/css">
*{stroke-linecap:butt;stroke-linejoin:round;}
  </style>
 </defs>
 <g id="figure_1">
  <g id="patch_1">
   <path d="
M0 648
L864 648
L864 0
L0 0
z
" style="fill:#ffffff;"/>
  </g>
  <g id="axes_1">
   <g id="patch_2">
    <path d="
M108 583.2
L777.6 583.2
L777.6 64.8
L108 64.8
z
" style="fill:#ffffff;"/>
   </g>
   <g id="line2d_1">
    <path clip-path="url(#p7ceb695115)" d="
M108 581.956
L108.67 581.748
L110.009 582.993
L110.678 582.371
L111.348 583.2
L112.018 582.578
L112.687 582.785
L113.357 582.578
L114.696 582.993
L116.035 582.578
L116.705 582.993
L117.374 582.785
L118.044 583.2
L118.714 582.993
L119.383 582.578
L120.053 582.578
L122.062 583.2
L122.731 582.993
L124.07 582.993
L124.74 583.2
L442.8 583.2
L443.47 472.055
L444.139 474.958
L444.809 482.423
L445.478 485.119
L446.148 493.62
L446.818 482.423
L447.487 487.192
L448.157 491.132
L448.826 484.082
L449.496 486.156
L450.166 483.667
L450.835 489.266
L451.505 492.584
L452.174 497.975
L452.844 493.413
L453.514 486.156
L454.183 493.206
L454.853 495.072
L456.192 491.547
L457.531 486.985
L458.201 489.681
L458.87 490.717
L459.54 495.694
L460.21 497.146
L460.879 482.216
L461.549 496.938
L462.218 497.975
L462.888 492.376
L463.558 492.376
L464.227 492.169
L464.897 486.57
L465.566 486.778
L466.236 488.022
L466.906 497.975
L467.575 490.925
L468.245 498.804
L468.914 491.962
L469.584 492.169
L470.254 483.46
L470.923 495.487
L471.593 489.059
L472.262 478.691
L473.602 498.182
L474.271 492.791
L474.941 489.473
L475.61 496.524
L476.28 490.51
L476.95 487.4
L477.619 490.717
L478.958 491.132
L479.628 493.413
L480.298 495.279
L480.967 489.266
L481.637 497.975
L482.306 492.998
L482.976 490.717
L483.646 489.266
L484.315 489.473
L484.985 490.303
L485.654 488.229
L486.324 489.473
L486.994 492.169
L487.663 496.938
L488.333 486.985
L489.002 492.169
L489.672 489.059
L490.342 490.51
L491.011 491.132
L491.681 490.925
L492.35 495.072
L493.02 495.487
L493.69 488.644
L494.359 499.219
L495.029 496.524
L495.698 490.095
L496.368 495.694
L497.038 488.436
L497.707 493.413
L498.377 495.901
L499.046 485.326
L499.716 493.828
L500.386 491.34
L501.055 492.791
L501.725 490.717
L502.394 494.865
L503.064 492.791
L503.734 497.146
L504.403 492.998
L505.073 494.035
L505.742 484.497
L506.412 494.035
L507.082 499.219
L507.751 492.169
L508.421 488.436
L509.09 491.962
L509.76 492.169
L510.43 489.888
L511.099 498.597
L511.769 489.266
L512.438 496.316
L513.108 490.095
L513.778 491.132
L514.447 488.229
L515.117 490.303
L515.786 489.681
L516.456 494.035
L517.126 496.316
L517.795 496.938
L518.465 493.413
L519.134 494.865
L519.804 489.059
L520.474 490.303
L521.143 498.39
L521.813 486.985
L522.482 494.45
L523.152 496.316
L524.491 492.791
L525.161 487.814
L525.83 494.035
L526.5 490.717
L527.17 494.657
L527.839 497.56
L528.509 490.303
L529.178 495.279
L529.848 485.533
L530.518 489.473
L531.187 491.34
L531.857 489.681
L532.526 492.791
L533.196 497.768
L533.866 488.229
L535.205 497.975
L535.874 492.791
L536.544 491.132
L537.214 486.985
L538.553 495.487
L539.222 488.022
L539.892 489.059
L540.562 490.717
L541.231 493.62
L541.901 486.985
L542.57 500.256
L543.24 493.206
L543.91 490.717
L544.579 489.266
L545.249 488.229
L545.918 493.828
L546.588 494.035
L547.258 495.694
L547.927 491.754
L548.597 494.45
L549.266 494.45
L549.936 491.754
L550.606 491.34
L551.275 494.45
L551.945 488.022
L552.614 494.45
L553.284 489.266
L553.954 492.584
L554.623 490.925
L555.293 481.386
L555.962 490.095
L556.632 494.035
L557.302 488.851
L557.971 490.51
L559.31 494.865
L559.98 483.875
L560.65 494.45
L561.319 494.45
L561.989 488.022
L562.658 496.938
L563.328 489.681
L563.998 490.925
L564.667 485.533
L565.337 492.169
L566.006 491.754
L566.676 493.206
L568.015 488.851
L568.685 497.146
L569.354 484.704
L570.024 494.657
L570.694 485.948
L571.363 489.473
L572.033 489.681
L572.702 493.413
L573.372 489.059
L574.042 502.952
L574.711 492.376
L575.381 487.4
L576.05 492.584
L576.72 500.878
L577.39 499.012
L578.059 496.316
L578.729 492.169
L579.398 497.146
L580.068 490.51
L580.738 504.818
L581.407 486.363
L582.746 496.524
L583.416 485.326
L584.086 493.828
L584.755 482.423
L585.425 491.547
L586.094 491.547
L586.764 488.851
L587.434 487.607
L588.103 492.376
L588.773 491.962
L589.442 497.975
L590.112 491.754
L590.782 500.878
L591.451 492.584
L592.121 497.146
L593.46 486.57
L594.13 500.049
L594.799 498.182
L595.469 489.888
L596.138 484.497
L596.808 491.962
L597.478 486.778
L598.147 492.584
L598.817 488.022
L599.486 488.022
L600.156 486.57
L600.826 494.243
L602.165 486.778
L602.834 495.901
L603.504 495.694
L604.174 488.851
L604.843 499.634
L605.513 492.376
L606.182 492.791
L606.852 493.62
L607.522 485.948
L608.191 494.45
L608.861 490.925
L609.53 491.962
L610.2 487.814
L610.87 496.316
L611.539 493.413
L612.209 492.376
L612.878 487.607
L613.548 494.657
L614.218 494.45
L614.887 493.62
L615.557 491.962
L616.226 493.828
L616.896 493.62
L617.566 494.657
L618.235 496.109
L618.905 492.998
L619.574 495.901
L620.244 492.376
L620.914 492.791
L621.583 497.146
L622.253 490.51
L622.922 485.119
L623.592 487.4
L624.262 492.584
L624.931 483.667
L625.601 493.413
L626.27 490.717
L626.94 486.363
L627.61 491.754
L628.279 494.865
L628.949 494.035
L629.618 492.998
L630.288 494.657
L630.958 494.865
L631.627 490.303
L632.297 494.243
L632.966 489.059
L633.636 489.266
L634.306 496.938
L634.975 494.243
L635.645 492.791
L636.314 492.584
L636.984 494.865
L637.654 493.828
L638.323 492.584
L638.993 489.266
L639.662 489.266
L640.332 489.473
L641.002 487.4
L641.671 488.436
L642.341 490.51
L643.01 491.34
L643.68 492.584
L644.35 486.156
L645.019 498.597
L645.689 492.791
L646.358 489.266
L647.028 485.119
L647.698 489.473
L648.367 491.754
L649.706 485.119
L651.046 497.146
L651.715 490.51
L652.385 488.022
L653.054 492.169
L653.724 498.804
L654.394 484.497
L655.063 492.169
L655.733 503.988
L656.402 496.524
L657.072 482.63
L657.742 492.998
L658.411 494.865
L659.081 498.182
L659.75 494.657
L660.42 486.985
L661.09 492.791
L661.759 486.156
L662.429 488.022
L663.098 495.279
L663.768 485.326
L664.438 494.45
L665.107 494.865
L665.777 496.731
L666.446 490.51
L667.116 499.427
L667.786 492.791
L668.455 483.667
L669.794 497.56
L670.464 485.326
L671.803 494.035
L672.473 489.681
L673.812 497.353
L674.482 487.814
L675.151 494.243
L675.821 490.925
L676.49 489.681
L677.16 492.791
L677.83 499.841
L678.499 484.911
L679.169 494.035
L679.838 493.62
L680.508 499.219
L681.847 490.925
L682.517 490.51
L683.186 490.925
L683.856 492.169
L684.526 492.998
L685.195 493.62
L685.865 494.035
L686.534 491.132
L687.204 489.473
L687.874 498.39
L688.543 485.533
L689.213 487.607
L689.882 488.851
L690.552 486.57
L691.222 485.119
L691.891 490.717
L692.561 494.243
L693.23 490.717
L693.9 495.694
L694.57 483.875
L695.239 489.681
L695.909 494.243
L696.578 488.022
L697.918 491.547
L698.587 485.119
L699.257 485.326
L699.926 493.206
L700.596 498.804
L701.266 493.206
L701.935 484.082
L702.605 491.962
L703.274 488.644
L703.944 496.938
L704.614 492.376
L705.283 489.681
L705.953 491.547
L706.622 495.072
L707.292 490.717
L707.962 495.279
L708.631 491.754
L709.301 491.132
L709.97 495.694
L710.64 494.243
L711.31 496.109
L711.979 491.132
L712.649 494.45
L713.318 490.095
L713.988 490.925
L714.658 492.584
L715.327 493.828
L715.997 491.34
L716.666 489.473
L717.336 490.51
L718.006 493.828
L718.675 493.206
L719.345 497.56
L720.014 492.169
L720.684 499.634
L721.354 490.717
L722.023 487.814
L722.693 496.731
L724.032 488.436
L724.702 490.717
L725.371 489.266
L726.041 489.473
L726.71 484.911
L727.38 489.473
L728.05 495.279
L728.719 486.778
L729.389 493.413
L730.058 487.814
L730.728 497.146
L731.398 494.243
L732.067 494.865
L732.737 486.985
L733.406 500.463
L734.076 494.865
L734.746 490.925
L735.415 493.62
L736.085 485.533
L736.754 491.962
L737.424 493.206
L738.094 489.266
L738.763 495.487
L739.433 484.082
L740.102 491.34
L740.772 495.694
L741.442 490.51
L742.111 488.851
L742.781 495.072
L743.45 492.998
L744.12 488.229
L744.79 493.413
L745.459 496.109
L746.129 491.962
L746.798 496.109
L747.468 494.035
L748.138 494.45
L748.807 494.45
L749.477 496.109
L750.146 501.915
L750.816 499.841
L751.486 485.948
L752.155 496.524
L752.825 489.473
L753.494 495.072
L754.164 495.279
L754.834 486.985
L755.503 491.132
L756.173 494.035
L756.842 490.925
L757.512 492.376
L758.182 487.607
L758.851 496.524
L759.521 493.206
L760.19 488.644
L760.86 491.754
L761.53 487.814
L762.199 490.925
L762.869 493.206
L763.538 494.865
L764.208 492.169
L764.878 496.524
L765.547 493.413
L766.217 507.514
L766.886 492.169
L767.556 495.279
L768.226 499.841
L768.895 487.814
L769.565 493.828
L770.234 494.865
L770.904 492.791
L771.574 496.109
L772.243 486.778
L772.913 496.109
L773.582 494.45
L774.252 485.119
L774.922 490.303
L775.591 493.62
L776.261 493.62
L776.93 491.132
L777.6 490.303
L777.6 490.303" style="fill:none;stroke:#ff0000;stroke-linecap:square;"/>
   </g>
   <g id="line2d_2">
    <path clip-path="url(#p7ceb695115)" d="
M108 578.223
L108.67 579.675
L109.339 578.638
L110.009 578.638
L110.678 579.053
L111.348 579.26
L112.687 580.09
L113.357 581.126
L114.026 580.712
L114.696 580.09
L115.366 580.712
L116.035 581.541
L116.705 581.126
L117.374 580.919
L118.044 581.334
L118.714 582.578
L119.383 582.371
L120.053 582.578
L120.722 582.993
L121.392 582.578
L122.062 582.371
L122.731 582.785
L123.401 582.993
L124.07 582.993
L124.74 582.785
L126.079 582.785
L126.749 583.2
L442.8 583.2
L443.47 147.951
L444.139 169.309
L444.809 182.995
L445.478 182.788
L446.148 185.069
L446.818 203.109
L447.487 199.999
L448.157 203.109
L448.826 208.086
L449.496 215.551
L450.166 221.564
L450.835 214.307
L451.505 210.159
L452.174 218.246
L452.844 211.818
L453.514 223.223
L454.183 212.855
L454.853 215.136
L455.522 215.551
L456.192 218.246
L456.862 222.808
L457.531 213.27
L458.201 220.113
L458.87 219.076
L459.54 212.026
L460.21 214.514
L460.879 226.748
L461.549 216.588
L462.218 213.27
L462.888 221.772
L463.558 220.32
L464.227 221.149
L465.566 230.688
L466.236 217.417
L466.906 212.855
L467.575 218.246
L468.245 211.404
L468.914 219.283
L469.584 214.099
L470.254 226.956
L470.923 219.491
L471.593 216.588
L472.262 228.614
L472.932 220.527
L473.602 216.795
L474.271 223.43
L474.941 219.076
L475.61 212.855
L476.28 227.578
L476.95 231.31
L477.619 220.527
L478.289 217.002
L478.958 218.661
L479.628 223.638
L480.298 224.26
L480.967 224.467
L481.637 204.353
L482.306 223.016
L482.976 211.818
L483.646 222.808
L484.315 224.882
L484.985 222.601
L485.654 218.661
L486.324 223.016
L486.994 219.283
L487.663 217.21
L488.333 227.37
L489.002 219.283
L489.672 222.186
L490.342 217.417
L491.011 214.929
L491.681 222.808
L492.35 208.915
L493.02 211.818
L493.69 224.882
L494.359 205.183
L495.698 224.26
L496.368 215.343
L497.038 224.26
L497.707 219.076
L498.377 216.588
L499.046 224.882
L499.716 216.38
L500.386 223.223
L501.055 209.952
L501.725 223.638
L502.394 215.343
L503.064 213.477
L503.734 218.454
L504.403 214.514
L505.073 215.551
L505.742 234.628
L506.412 212.026
L507.082 215.551
L507.751 214.099
L508.421 221.772
L509.09 219.698
L509.76 217.21
L510.43 221.979
L511.099 209.537
L511.769 225.711
L512.438 212.233
L513.108 217.21
L513.778 220.527
L514.447 219.283
L515.117 216.38
L515.786 226.126
L516.456 219.076
L517.126 218.868
L517.795 224.26
L518.465 214.514
L519.134 213.062
L519.804 221.979
L520.474 214.307
L521.143 210.574
L521.813 227.37
L522.482 217.002
L523.152 223.638
L523.822 222.808
L524.491 221.772
L525.83 217.21
L526.5 225.297
L527.17 212.855
L527.839 214.514
L528.509 215.551
L529.848 226.956
L530.518 219.698
L531.857 220.942
L533.196 218.661
L533.866 224.052
L534.535 220.735
L535.205 216.38
L535.874 221.149
L536.544 215.758
L537.214 216.173
L537.883 220.527
L538.553 217.417
L539.222 226.541
L539.892 214.307
L540.562 215.136
L541.231 220.32
L541.901 221.149
L542.57 211.818
L543.24 218.454
L543.91 218.454
L544.579 223.845
L545.249 213.684
L545.918 219.905
L546.588 221.979
L547.258 215.758
L547.927 216.588
L548.597 216.38
L549.266 213.062
L549.936 218.246
L550.606 220.113
L551.275 227.578
L551.945 218.868
L552.614 219.076
L553.284 223.845
L553.954 226.956
L554.623 226.126
L555.293 224.882
L555.962 218.454
L556.632 216.795
L557.302 225.919
L557.971 221.149
L558.641 210.367
L559.31 213.062
L559.98 225.919
L560.65 211.818
L561.319 216.173
L561.989 219.076
L562.658 217.002
L563.328 219.283
L563.998 226.956
L564.667 221.772
L565.337 211.611
L566.006 217.624
L566.676 216.173
L567.346 216.38
L568.015 224.052
L568.685 215.551
L569.354 229.859
L570.024 218.661
L570.694 218.868
L571.363 218.868
L572.033 221.772
L572.702 218.454
L573.372 219.905
L574.042 207.049
L574.711 222.808
L575.381 220.527
L576.05 217.832
L576.72 214.099
L577.39 218.868
L578.059 218.039
L578.729 216.588
L579.398 210.159
L580.068 231.517
L580.738 206.427
L581.407 220.735
L582.077 224.26
L582.746 222.186
L583.416 221.149
L584.086 218.661
L584.755 225.297
L585.425 221.357
L586.094 214.721
L586.764 221.357
L587.434 213.892
L588.103 215.965
L588.773 214.514
L589.442 217.417
L590.112 218.246
L590.782 211.611
L591.451 216.588
L592.121 211.404
L593.46 224.675
L594.13 208.086
L594.799 217.832
L595.469 216.588
L596.138 218.661
L596.808 218.868
L597.478 225.711
L598.147 221.564
L598.817 220.942
L599.486 220.942
L600.156 224.675
L600.826 219.698
L601.495 219.491
L602.165 229.029
L602.834 221.772
L603.504 215.965
L604.174 223.845
L604.843 216.173
L605.513 215.758
L606.182 223.016
L606.852 220.735
L607.522 224.882
L608.191 223.845
L608.861 217.002
L609.53 219.698
L610.2 225.504
L610.87 213.27
L611.539 216.173
L612.209 219.698
L612.878 220.32
L613.548 217.832
L614.218 217.21
L614.887 218.246
L615.557 229.651
L616.226 215.965
L616.896 219.491
L617.566 215.758
L618.235 213.684
L618.905 222.186
L619.574 212.44
L620.244 219.076
L620.914 223.016
L621.583 216.588
L622.253 226.541
L622.922 226.541
L623.592 214.929
L624.262 215.758
L624.931 222.394
L625.601 216.38
L626.27 212.44
L626.94 224.467
L627.61 224.675
L628.279 223.638
L628.949 213.27
L629.618 218.039
L630.288 220.527
L630.958 221.357
L631.627 219.905
L632.297 215.965
L632.966 218.246
L633.636 219.283
L634.306 212.44
L634.975 222.808
L635.645 216.38
L636.314 216.588
L636.984 222.394
L637.654 212.855
L638.323 217.21
L639.662 216.38
L640.332 220.527
L641.002 227.785
L641.671 220.735
L642.341 224.26
L643.01 226.956
L643.68 220.735
L644.35 221.979
L645.019 216.795
L645.689 222.186
L646.358 220.32
L647.028 215.136
L647.698 226.333
L648.367 227.163
L649.037 221.357
L649.706 220.942
L650.376 216.173
L651.046 215.758
L651.715 217.624
L652.385 213.684
L653.054 211.611
L653.724 211.818
L654.394 231.517
L655.733 214.514
L656.402 213.27
L657.072 230.481
L657.742 218.661
L658.411 215.965
L659.081 206.842
L660.42 226.126
L661.09 212.648
L661.759 221.357
L662.429 220.32
L663.098 220.113
L663.768 224.052
L664.438 220.735
L665.107 215.965
L665.777 219.076
L666.446 224.26
L667.116 218.868
L667.786 219.491
L668.455 230.066
L669.125 214.514
L669.794 217.002
L670.464 229.236
L671.134 219.698
L671.803 223.016
L672.473 224.675
L673.142 213.892
L673.812 214.099
L674.482 222.808
L675.151 213.27
L675.821 216.173
L676.49 217.002
L677.16 224.467
L677.83 213.477
L678.499 232.969
L679.169 209.33
L679.838 213.27
L680.508 212.855
L681.178 212.648
L681.847 213.684
L682.517 213.062
L683.186 215.343
L683.856 220.32
L684.526 211.404
L685.195 217.624
L685.865 213.062
L686.534 217.417
L687.204 228.822
L687.874 210.159
L688.543 228.407
L689.213 223.43
L689.882 224.675
L690.552 217.832
L691.891 224.882
L693.23 212.026
L693.9 220.113
L694.57 224.882
L695.239 222.394
L695.909 220.942
L696.578 233.176
L697.248 216.588
L697.918 217.002
L698.587 221.979
L699.257 227.992
L699.926 221.772
L700.596 210.159
L701.266 225.089
L701.935 230.273
L702.605 219.698
L703.274 215.758
L703.944 216.173
L704.614 225.919
L705.283 222.808
L705.953 221.564
L706.622 214.929
L707.292 224.467
L707.962 219.283
L708.631 224.26
L709.301 217.002
L709.97 223.43
L710.64 218.246
L711.31 218.661
L711.979 221.979
L712.649 217.832
L713.318 224.467
L713.988 216.173
L714.658 219.905
L715.327 222.394
L716.666 215.965
L717.336 221.979
L718.006 220.32
L718.675 216.173
L719.345 214.307
L720.014 218.868
L720.684 213.684
L721.354 218.246
L722.023 221.149
L722.693 215.343
L723.362 218.661
L724.032 217.832
L724.702 215.965
L725.371 217.624
L726.041 216.38
L726.71 219.076
L727.38 225.297
L728.05 216.173
L728.719 226.748
L729.389 209.745
L730.058 223.223
L730.728 212.233
L731.398 220.942
L732.067 220.113
L732.737 219.076
L733.406 210.781
L734.076 215.965
L734.746 219.905
L735.415 212.855
L736.085 222.394
L736.754 220.527
L737.424 215.343
L738.094 221.357
L738.763 219.491
L739.433 220.942
L740.102 221.772
L740.772 218.868
L741.442 218.246
L742.111 226.541
L742.781 212.026
L743.45 219.905
L744.12 225.919
L744.79 213.684
L745.459 214.099
L746.129 220.32
L746.798 216.588
L747.468 219.698
L748.138 215.136
L748.807 215.758
L749.477 215.136
L750.146 208.708
L750.816 211.404
L751.486 223.845
L752.155 217.002
L752.825 224.467
L753.494 223.638
L754.164 212.855
L754.834 225.297
L755.503 220.113
L756.173 211.818
L756.842 220.735
L757.512 219.076
L758.182 220.735
L758.851 216.588
L759.521 214.099
L760.19 221.979
L760.86 222.186
L761.53 219.491
L762.199 219.491
L762.869 216.173
L763.538 215.343
L764.208 213.892
L764.878 225.919
L766.217 208.708
L766.886 219.698
L767.556 212.233
L768.226 222.186
L768.895 221.357
L769.565 219.491
L770.234 212.648
L770.904 218.246
L771.574 210.574
L772.243 222.186
L772.913 215.965
L773.582 217.417
L774.252 220.942
L774.922 218.454
L775.591 213.892
L776.261 218.039
L776.93 219.491
L777.6 229.651
L777.6 229.651" style="fill:none;stroke:#008000;stroke-linecap:square;"/>
   </g>
   <g id="line2d_3">
    <path clip-path="url(#p7ceb695115)" d="
M108 581.956
L108.67 581.748
L109.339 582.371
L110.009 581.956
L110.678 582.785
L111.348 582.578
L112.018 582.785
L112.687 582.371
L113.357 582.163
L114.026 582.371
L114.696 582.993
L115.366 582.785
L116.035 583.2
L116.705 582.993
L117.374 583.2
L118.714 582.785
L119.383 582.785
L120.053 583.2
L120.722 582.993
L121.392 583.2
L122.062 583.2
L122.731 582.993
L123.401 582.993
L124.07 583.2
L126.079 583.2
L126.749 582.993
L127.418 583.2
L442.8 583.2
L443.47 484.082
L444.139 478.898
L444.809 475.995
L445.478 488.644
L446.148 486.778
L446.818 489.059
L447.487 492.584
L448.157 493.828
L448.826 496.938
L449.496 491.754
L450.166 488.436
L450.835 493.62
L451.505 494.657
L452.174 482.423
L452.844 493.413
L453.514 491.547
L454.183 495.279
L454.853 490.925
L455.522 492.376
L456.192 492.169
L456.862 490.303
L457.531 502.33
L458.201 492.998
L458.87 492.998
L459.54 495.279
L460.21 491.34
L460.879 493.828
L461.549 489.473
L462.218 491.754
L462.888 489.059
L463.558 490.51
L464.227 489.888
L464.897 490.925
L465.566 485.741
L466.236 497.768
L466.906 492.376
L467.575 494.035
L468.914 491.962
L469.584 496.938
L470.923 488.229
L471.593 497.56
L472.262 495.901
L472.932 493.828
L473.602 488.229
L474.271 486.985
L474.941 494.657
L475.61 493.828
L476.28 485.119
L476.95 484.497
L477.619 491.962
L478.289 495.279
L478.958 493.413
L479.628 486.156
L480.298 483.667
L480.967 489.473
L481.637 500.878
L482.306 487.192
L482.976 500.671
L483.646 491.132
L484.315 488.851
L484.985 490.303
L485.654 496.316
L486.324 490.717
L486.994 491.754
L487.663 489.059
L488.333 488.851
L489.002 491.754
L489.672 491.962
L490.342 495.279
L491.011 497.146
L491.681 489.473
L492.35 499.219
L493.02 495.901
L493.69 489.681
L494.359 498.804
L495.029 491.754
L495.698 488.851
L496.368 492.169
L497.038 490.51
L497.707 490.717
L498.377 490.717
L499.046 492.998
L499.716 492.998
L500.386 488.644
L501.055 500.463
L501.725 488.851
L503.064 496.938
L503.734 487.607
L504.403 495.694
L505.073 493.62
L505.742 484.082
L506.412 497.146
L507.082 488.436
L507.751 496.938
L508.421 492.998
L509.09 491.547
L509.76 493.828
L510.43 491.34
L511.099 495.072
L511.769 488.229
L512.438 494.657
L513.108 495.901
L513.778 491.547
L514.447 495.694
L515.117 496.524
L515.786 487.4
L516.456 490.095
L517.126 488.022
L517.795 482.008
L518.465 495.279
L519.134 495.279
L519.804 492.169
L520.474 498.597
L521.143 494.243
L521.813 488.851
L522.482 491.754
L523.152 483.252
L524.491 488.644
L525.161 495.901
L525.83 491.962
L526.5 487.192
L527.17 495.694
L527.839 491.132
L528.509 497.353
L529.178 486.778
L530.518 494.035
L531.187 491.547
L531.857 492.584
L532.526 490.717
L533.196 486.778
L533.866 490.925
L534.535 489.473
L535.205 488.851
L535.874 489.266
L536.544 496.316
L537.214 500.049
L537.883 491.34
L538.553 490.303
L539.222 488.644
L539.892 499.841
L540.562 497.353
L541.231 489.266
L541.901 495.072
L542.57 491.132
L543.24 491.547
L543.91 494.035
L544.579 490.095
L545.249 501.293
L545.918 489.473
L546.588 487.192
L547.258 491.754
L547.927 494.865
L548.597 492.376
L549.266 495.694
L549.936 493.206
L550.606 491.754
L551.275 481.179
L551.945 496.316
L552.614 489.681
L553.284 490.095
L553.954 483.667
L554.623 486.156
L555.293 496.938
L556.632 492.376
L557.302 488.436
L557.971 491.547
L558.641 500.256
L559.31 495.279
L559.98 493.413
L560.65 496.938
L561.319 492.584
L561.989 496.109
L562.658 489.266
L563.328 494.243
L563.998 485.326
L564.667 495.901
L565.337 499.427
L566.006 493.828
L566.676 493.828
L567.346 495.694
L568.015 490.303
L568.685 490.51
L569.354 488.644
L570.024 489.888
L570.694 498.39
L572.033 491.754
L572.702 491.34
L573.372 494.243
L574.042 493.206
L574.711 488.022
L575.381 495.279
L576.05 492.791
L576.72 488.229
L577.39 485.326
L578.059 488.851
L578.729 494.45
L579.398 495.901
L580.068 481.179
L580.738 491.962
L581.407 496.109
L582.077 487.607
L582.746 484.497
L583.416 496.731
L584.086 490.717
L584.755 495.487
L585.425 490.303
L586.094 496.938
L586.764 492.998
L587.434 501.708
L588.103 494.865
L588.773 496.731
L589.442 487.814
L590.112 493.206
L590.782 490.717
L591.451 494.035
L592.121 494.657
L593.46 491.962
L594.13 495.072
L594.799 487.192
L595.469 496.731
L596.138 500.049
L596.808 492.376
L598.147 489.059
L598.817 494.243
L599.486 494.243
L600.156 491.962
L600.826 489.266
L601.495 493.206
L602.165 487.4
L602.834 485.533
L603.504 491.547
L604.174 490.51
L604.843 487.4
L605.513 495.072
L606.182 487.4
L606.852 488.851
L607.522 492.376
L608.191 484.911
L608.861 495.279
L609.53 491.547
L610.2 489.888
L610.87 493.62
L611.539 493.62
L612.209 491.132
L612.878 495.279
L613.548 490.717
L614.218 491.547
L614.887 491.34
L615.557 481.594
L616.226 493.413
L616.896 490.095
L617.566 492.791
L618.235 493.413
L618.905 488.022
L619.574 494.865
L620.244 491.754
L620.914 487.4
L621.583 489.473
L622.253 486.156
L622.922 491.547
L623.592 500.878
L624.262 494.865
L624.931 497.146
L625.601 493.413
L626.27 500.049
L626.94 492.376
L627.61 486.778
L628.279 484.704
L628.949 495.901
L630.288 488.022
L630.958 486.985
L631.627 492.998
L632.297 492.998
L632.966 495.901
L633.636 494.657
L634.306 493.828
L634.975 486.156
L635.645 494.035
L636.314 494.035
L636.984 485.948
L637.654 496.524
L638.323 493.413
L638.993 497.146
L639.662 497.56
L640.332 493.206
L641.002 488.022
L641.671 494.035
L642.341 488.436
L643.01 484.911
L644.35 495.072
L645.019 487.814
L645.689 488.229
L646.358 493.62
L647.028 502.952
L647.698 487.4
L648.367 484.289
L649.037 493.62
L649.706 497.146
L650.376 496.316
L651.046 490.303
L651.715 495.072
L652.385 501.5
L653.054 499.427
L653.724 492.584
L654.394 487.192
L655.063 488.436
L655.733 484.704
L656.402 493.413
L657.072 490.095
L657.742 491.547
L658.411 492.376
L659.081 498.182
L659.75 491.547
L660.42 490.095
L661.09 497.768
L661.759 495.694
L662.429 494.865
L663.098 487.814
L663.768 493.828
L664.438 488.022
L665.107 492.376
L665.777 487.4
L666.446 488.436
L667.116 484.911
L667.786 490.925
L668.455 489.473
L669.125 497.56
L669.794 488.644
L670.464 488.644
L671.134 493.828
L671.803 486.156
L672.473 488.851
L673.142 495.694
L673.812 491.754
L674.482 492.584
L675.151 495.694
L676.49 496.524
L677.16 485.948
L677.83 489.888
L678.499 485.326
L679.169 499.841
L679.838 496.316
L680.508 491.132
L681.178 495.487
L681.847 498.597
L682.517 499.634
L683.186 496.938
L683.856 490.717
L684.526 498.804
L685.195 491.962
L685.865 496.109
L686.534 494.657
L687.204 484.911
L687.874 494.657
L688.543 489.266
L689.213 492.169
L689.882 489.681
L690.552 498.804
L691.222 496.524
L691.891 487.607
L692.561 490.095
L693.23 500.463
L693.9 487.4
L694.57 494.45
L695.909 488.022
L696.578 482.008
L697.248 496.938
L697.918 494.657
L698.587 496.109
L699.257 489.888
L699.926 488.229
L700.596 494.243
L701.266 484.911
L701.935 488.851
L702.605 491.547
L703.274 498.804
L703.944 490.095
L704.614 484.911
L705.283 490.717
L705.953 490.095
L706.622 493.206
L707.292 488.022
L707.962 488.644
L708.631 487.192
L709.301 495.072
L709.97 484.082
L710.64 490.717
L711.31 488.436
L711.979 490.095
L712.649 490.925
L713.318 488.644
L713.988 496.109
L714.658 490.717
L715.327 486.985
L716.666 497.768
L717.336 490.717
L718.006 489.059
L718.675 493.828
L719.345 491.34
L720.014 492.169
L720.684 489.888
L721.354 494.243
L722.023 494.243
L722.693 491.132
L723.362 491.962
L724.032 496.938
L724.702 496.524
L725.371 496.316
L726.041 497.353
L726.71 499.219
L727.38 488.436
L728.05 491.754
L728.719 489.681
L729.389 500.049
L730.058 492.169
L730.728 493.828
L731.398 488.022
L732.067 488.229
L732.737 497.146
L733.406 491.962
L734.076 492.376
L734.746 492.376
L735.415 496.731
L736.085 495.279
L736.754 490.717
L737.424 494.657
L738.094 492.584
L738.763 488.229
L739.433 498.182
L740.102 490.095
L740.772 488.644
L741.442 494.45
L742.111 487.814
L742.781 496.109
L743.45 490.303
L744.12 489.059
L744.79 496.109
L745.459 492.998
L746.129 490.925
L746.798 490.51
L747.468 489.473
L748.138 493.62
L748.807 492.998
L749.477 491.962
L750.146 492.584
L750.816 491.962
L751.486 493.413
L752.155 489.681
L752.825 489.266
L753.494 484.497
L754.164 495.072
L754.834 490.925
L755.503 491.962
L756.173 497.353
L756.842 491.547
L757.512 491.754
L758.182 494.865
L758.851 490.095
L759.521 495.901
L760.86 489.266
L761.53 495.901
L762.199 492.791
L762.869 493.828
L763.538 492.998
L764.208 497.146
L764.878 480.764
L765.547 493.206
L766.217 486.985
L767.556 495.694
L768.226 481.179
L768.895 494.035
L769.565 489.888
L770.234 495.694
L770.904 492.169
L771.574 496.524
L772.243 494.243
L772.913 491.132
L773.582 491.34
L774.252 497.146
L774.922 494.45
L775.591 495.694
L776.261 491.547
L776.93 492.584
L777.6 483.252
L777.6 483.252" style="fill:none;stroke:#0000ff;stroke-linecap:square;"/>
   </g>
   <g id="patch_3">
    <path d="
M108 583.2
L108 64.8" style="fill:none;stroke:#000000;stroke-linecap:square;stroke-linejoin:miter;"/>
   </g>
   <g id="patch_4">
    <path d="
M108 583.2
L777.6 583.2" style="fill:none;stroke:#000000;stroke-linecap:square;stroke-linejoin:miter;"/>
   </g>
   <g id="patch_5">
    <path d="
M108 64.8
L777.6 64.8" style="fill:none;stroke:#000000;stroke-linecap:square;stroke-linejoin:miter;"/>
   </g>
   <g id="patch_6">
    <path d="
M777.6 583.2
L777.6 64.8" style="fill:none;stroke:#000000;stroke-linecap:square;stroke-linejoin:miter;"/>
   </g>
   <g id="matplotlib.axis_1">
    <g id="xtick_1">
     <g id="line2d_4">
      <defs>
       <path d="
M0 0
L0 -4" id="mc7db9fdffb" style="stroke:#000000;stroke-width:0.5;"/>
      </defs>
      <g>
       <use style="stroke:#000000;stroke-width:0.5;" x="108.0" xlink:href="#mc7db9fdffb" y="583.2"/>
      </g>
     </g>
     <g id="line2d_5">
      <defs>
       <path d="
M0 0
L0 4" id="m5a7d422ac3" style="stroke:#000000;stroke-width:0.5;"/>
      </defs>
      <g>
       <use style="stroke:#000000;stroke-width:0.5;" x="108.0" xlink:href="#m5a7d422ac3" y="64.8"/>
      </g>
     </g>
     <g id="text_1">
      <!-- 0 -->
      <defs>
       <path d="
M31.7812 66.4062
Q24.1719 66.4062 20.3281 58.9062
Q16.5 51.4219 16.5 36.375
Q16.5 21.3906 20.3281 13.8906
Q24.1719 6.39062 31.7812 6.39062
Q39.4531 6.39062 43.2812 13.8906
Q47.125 21.3906 47.125 36.375
Q47.125 51.4219 43.2812 58.9062
Q39.4531 66.4062 31.7812 66.4062
M31.7812 74.2188
Q44.0469 74.2188 50.5156 64.5156
Q56.9844 54.8281 56.9844 36.375
Q56.9844 17.9688 50.5156 8.26562
Q44.0469 -1.42188 31.7812 -1.42188
Q19.5312 -1.42188 13.0625 8.26562
Q6.59375 17.9688 6.59375 36.375
Q6.59375 54.8281 13.0625 64.5156
Q19.5312 74.2188 31.7812 74.2188" id="BitstreamVeraSans-Roman-30"/>
      </defs>
      <g transform="translate(104.9765625 596.318125)scale(0.12 -0.12)">
       <use xlink:href="#BitstreamVeraSans-Roman-30"/>
      </g>
     </g>
    </g>
    <g id="xtick_2">
     <g id="line2d_6">
      <g>
       <use style="stroke:#000000;stroke-width:0.5;" x="275.4" xlink:href="#mc7db9fdffb" y="583.2"/>
      </g>
     </g>
     <g id="line2d_7">
      <g>
       <use style="stroke:#000000;stroke-width:0.5;" x="275.4" xlink:href="#m5a7d422ac3" y="64.8"/>
      </g>
     </g>
     <g id="text_2">
      <!-- 50000 -->
      <defs>
       <path d="
M10.7969 72.9062
L49.5156 72.9062
L49.5156 64.5938
L19.8281 64.5938
L19.8281 46.7344
Q21.9688 47.4688 24.1094 47.8281
Q26.2656 48.1875 28.4219 48.1875
Q40.625 48.1875 47.75 41.5
Q54.8906 34.8125 54.8906 23.3906
Q54.8906 11.625 47.5625 5.09375
Q40.2344 -1.42188 26.9062 -1.42188
Q22.3125 -1.42188 17.5469 -0.640625
Q12.7969 0.140625 7.71875 1.70312
L7.71875 11.625
Q12.1094 9.23438 16.7969 8.0625
Q21.4844 6.89062 26.7031 6.89062
Q35.1562 6.89062 40.0781 11.3281
Q45.0156 15.7656 45.0156 23.3906
Q45.0156 31 40.0781 35.4375
Q35.1562 39.8906 26.7031 39.8906
Q22.75 39.8906 18.8125 39.0156
Q14.8906 38.1406 10.7969 36.2812
z
" id="BitstreamVeraSans-Roman-35"/>
      </defs>
      <g transform="translate(257.1740625 596.318125)scale(0.12 -0.12)">
       <use xlink:href="#BitstreamVeraSans-Roman-35"/>
       <use x="63.623046875" xlink:href="#BitstreamVeraSans-Roman-30"/>
       <use x="127.24609375" xlink:href="#BitstreamVeraSans-Roman-30"/>
       <use x="190.869140625" xlink:href="#BitstreamVeraSans-Roman-30"/>
       <use x="254.4921875" xlink:href="#BitstreamVeraSans-Roman-30"/>
      </g>
     </g>
    </g>
    <g id="xtick_3">
     <g id="line2d_8">
      <g>
       <use style="stroke:#000000;stroke-width:0.5;" x="442.8" xlink:href="#mc7db9fdffb" y="583.2"/>
      </g>
     </g>
     <g id="line2d_9">
      <g>
       <use style="stroke:#000000;stroke-width:0.5;" x="442.8" xlink:href="#m5a7d422ac3" y="64.8"/>
      </g>
     </g>
     <g id="text_3">
      <!-- 100000 -->
      <defs>
       <path d="
M12.4062 8.29688
L28.5156 8.29688
L28.5156 63.9219
L10.9844 60.4062
L10.9844 69.3906
L28.4219 72.9062
L38.2812 72.9062
L38.2812 8.29688
L54.3906 8.29688
L54.3906 0
L12.4062 0
z
" id="BitstreamVeraSans-Roman-31"/>
      </defs>
      <g transform="translate(420.9525 596.318125)scale(0.12 -0.12)">
       <use xlink:href="#BitstreamVeraSans-Roman-31"/>
       <use x="63.623046875" xlink:href="#BitstreamVeraSans-Roman-30"/>
       <use x="127.24609375" xlink:href="#BitstreamVeraSans-Roman-30"/>
       <use x="190.869140625" xlink:href="#BitstreamVeraSans-Roman-30"/>
       <use x="254.4921875" xlink:href="#BitstreamVeraSans-Roman-30"/>
       <use x="318.115234375" xlink:href="#BitstreamVeraSans-Roman-30"/>
      </g>
     </g>
    </g>
    <g id="xtick_4">
     <g id="line2d_10">
      <g>
       <use style="stroke:#000000;stroke-width:0.5;" x="610.2" xlink:href="#mc7db9fdffb" y="583.2"/>
      </g>
     </g>
     <g id="line2d_11">
      <g>
       <use style="stroke:#000000;stroke-width:0.5;" x="610.2" xlink:href="#m5a7d422ac3" y="64.8"/>
      </g>
     </g>
     <g id="text_4">
      <!-- 150000 -->
      <g transform="translate(588.3525 596.318125)scale(0.12 -0.12)">
       <use xlink:href="#BitstreamVeraSans-Roman-31"/>
       <use x="63.623046875" xlink:href="#BitstreamVeraSans-Roman-35"/>
       <use x="127.24609375" xlink:href="#BitstreamVeraSans-Roman-30"/>
       <use x="190.869140625" xlink:href="#BitstreamVeraSans-Roman-30"/>
       <use x="254.4921875" xlink:href="#BitstreamVeraSans-Roman-30"/>
       <use x="318.115234375" xlink:href="#BitstreamVeraSans-Roman-30"/>
      </g>
     </g>
    </g>
    <g id="xtick_5">
     <g id="line2d_12">
      <g>
       <use style="stroke:#000000;stroke-width:0.5;" x="777.6" xlink:href="#mc7db9fdffb" y="583.2"/>
      </g>
     </g>
     <g id="line2d_13">
      <g>
       <use style="stroke:#000000;stroke-width:0.5;" x="777.6" xlink:href="#m5a7d422ac3" y="64.8"/>
      </g>
     </g>
     <g id="text_5">
      <!-- 200000 -->
      <defs>
       <path d="
M19.1875 8.29688
L53.6094 8.29688
L53.6094 0
L7.32812 0
L7.32812 8.29688
Q12.9375 14.1094 22.625 23.8906
Q32.3281 33.6875 34.8125 36.5312
Q39.5469 41.8438 41.4219 45.5312
Q43.3125 49.2188 43.3125 52.7812
Q43.3125 58.5938 39.2344 62.25
Q35.1562 65.9219 28.6094 65.9219
Q23.9688 65.9219 18.8125 64.3125
Q13.6719 62.7031 7.8125 59.4219
L7.8125 69.3906
Q13.7656 71.7812 18.9375 73
Q24.125 74.2188 28.4219 74.2188
Q39.75 74.2188 46.4844 68.5469
Q53.2188 62.8906 53.2188 53.4219
Q53.2188 48.9219 51.5312 44.8906
Q49.8594 40.875 45.4062 35.4062
Q44.1875 33.9844 37.6406 27.2188
Q31.1094 20.4531 19.1875 8.29688" id="BitstreamVeraSans-Roman-32"/>
      </defs>
      <g transform="translate(755.533125 596.318125)scale(0.12 -0.12)">
       <use xlink:href="#BitstreamVeraSans-Roman-32"/>
       <use x="63.623046875" xlink:href="#BitstreamVeraSans-Roman-30"/>
       <use x="127.24609375" xlink:href="#BitstreamVeraSans-Roman-30"/>
       <use x="190.869140625" xlink:href="#BitstreamVeraSans-Roman-30"/>
       <use x="254.4921875" xlink:href="#BitstreamVeraSans-Roman-30"/>
       <use x="318.115234375" xlink:href="#BitstreamVeraSans-Roman-30"/>
      </g>
     </g>
    </g>
    <g id="text_6">
     <!-- t / ms -->
     <defs>
      <path d="
M25.3906 72.9062
L33.6875 72.9062
L8.29688 -9.28125
L0 -9.28125
z
" id="BitstreamVeraSans-Roman-2f"/>
      <path d="
M18.3125 70.2188
L18.3125 54.6875
L36.8125 54.6875
L36.8125 47.7031
L18.3125 47.7031
L18.3125 18.0156
Q18.3125 11.3281 20.1406 9.42188
Q21.9688 7.51562 27.5938 7.51562
L36.8125 7.51562
L36.8125 0
L27.5938 0
Q17.1875 0 13.2344 3.875
Q9.28125 7.76562 9.28125 18.0156
L9.28125 47.7031
L2.6875 47.7031
L2.6875 54.6875
L9.28125 54.6875
L9.28125 70.2188
z
" id="BitstreamVeraSans-Roman-74"/>
      <path d="
M52 44.1875
Q55.375 50.25 60.0625 53.125
Q64.75 56 71.0938 56
Q79.6406 56 84.2812 50.0156
Q88.9219 44.0469 88.9219 33.0156
L88.9219 0
L79.8906 0
L79.8906 32.7188
Q79.8906 40.5781 77.0938 44.375
Q74.3125 48.1875 68.6094 48.1875
Q61.625 48.1875 57.5625 43.5469
Q53.5156 38.9219 53.5156 30.9062
L53.5156 0
L44.4844 0
L44.4844 32.7188
Q44.4844 40.625 41.7031 44.4062
Q38.9219 48.1875 33.1094 48.1875
Q26.2188 48.1875 22.1562 43.5312
Q18.1094 38.875 18.1094 30.9062
L18.1094 0
L9.07812 0
L9.07812 54.6875
L18.1094 54.6875
L18.1094 46.1875
Q21.1875 51.2188 25.4844 53.6094
Q29.7812 56 35.6875 56
Q41.6562 56 45.8281 52.9688
Q50 49.9531 52 44.1875" id="BitstreamVeraSans-Roman-6d"/>
      <path id="BitstreamVeraSans-Roman-20"/>
      <path d="
M44.2812 53.0781
L44.2812 44.5781
Q40.4844 46.5312 36.375 47.5
Q32.2812 48.4844 27.875 48.4844
Q21.1875 48.4844 17.8438 46.4375
Q14.5 44.3906 14.5 40.2812
Q14.5 37.1562 16.8906 35.375
Q19.2812 33.5938 26.5156 31.9844
L29.5938 31.2969
Q39.1562 29.25 43.1875 25.5156
Q47.2188 21.7812 47.2188 15.0938
Q47.2188 7.46875 41.1875 3.01562
Q35.1562 -1.42188 24.6094 -1.42188
Q20.2188 -1.42188 15.4531 -0.5625
Q10.6875 0.296875 5.42188 2
L5.42188 11.2812
Q10.4062 8.6875 15.2344 7.39062
Q20.0625 6.10938 24.8125 6.10938
Q31.1562 6.10938 34.5625 8.28125
Q37.9844 10.4531 37.9844 14.4062
Q37.9844 18.0625 35.5156 20.0156
Q33.0625 21.9688 24.7031 23.7812
L21.5781 24.5156
Q13.2344 26.2656 9.51562 29.9062
Q5.8125 33.5469 5.8125 39.8906
Q5.8125 47.6094 11.2812 51.7969
Q16.75 56 26.8125 56
Q31.7812 56 36.1719 55.2656
Q40.5781 54.5469 44.2812 53.0781" id="BitstreamVeraSans-Roman-73"/>
     </defs>
     <g transform="translate(425.9353125 612.931875)scale(0.12 -0.12)">
      <use xlink:href="#BitstreamVeraSans-Roman-74"/>
      <use x="39.208984375" xlink:href="#BitstreamVeraSans-Roman-20"/>
      <use x="70.99609375" xlink:href="#BitstreamVeraSans-Roman-2f"/>
      <use x="104.6875" xlink:href="#BitstreamVeraSans-Roman-20"/>
      <use x="136.474609375" xlink:href="#BitstreamVeraSans-Roman-6d"/>
      <use x="233.88671875" xlink:href="#BitstreamVeraSans-Roman-73"/>
     </g>
    </g>
   </g>
   <g id="matplotlib.axis_2">
    <g id="ytick_1">
     <g id="line2d_14">
      <defs>
       <path d="
M0 0
L4 0" id="md7965d1ba0" style="stroke:#000000;stroke-width:0.5;"/>
      </defs>
      <g>
       <use style="stroke:#000000;stroke-width:0.5;" x="108.0" xlink:href="#md7965d1ba0" y="583.2"/>
      </g>
     </g>
     <g id="line2d_15">
      <defs>
       <path d="
M0 0
L-4 0" id="md9a1c1a7cd" style="stroke:#000000;stroke-width:0.5;"/>
      </defs>
      <g>
       <use style="stroke:#000000;stroke-width:0.5;" x="777.6" xlink:href="#md9a1c1a7cd" y="583.2"/>
      </g>
     </g>
     <g id="text_7">
      <!-- 0 -->
      <g transform="translate(97.953125 586.51125)scale(0.12 -0.12)">
       <use xlink:href="#BitstreamVeraSans-Roman-30"/>
      </g>
     </g>
    </g>
    <g id="ytick_2">
     <g id="line2d_16">
      <g>
       <use style="stroke:#000000;stroke-width:0.5;" x="108.0" xlink:href="#md7965d1ba0" y="479.52"/>
      </g>
     </g>
     <g id="line2d_17">
      <g>
       <use style="stroke:#000000;stroke-width:0.5;" x="777.6" xlink:href="#md9a1c1a7cd" y="479.52"/>
      </g>
     </g>
     <g id="text_8">
      <!-- 500 -->
      <g transform="translate(82.818125 482.83125)scale(0.12 -0.12)">
       <use xlink:href="#BitstreamVeraSans-Roman-35"/>
       <use x="63.623046875" xlink:href="#BitstreamVeraSans-Roman-30"/>
       <use x="127.24609375" xlink:href="#BitstreamVeraSans-Roman-30"/>
      </g>
     </g>
    </g>
    <g id="ytick_3">
     <g id="line2d_18">
      <g>
       <use style="stroke:#000000;stroke-width:0.5;" x="108.0" xlink:href="#md7965d1ba0" y="375.84"/>
      </g>
     </g>
     <g id="line2d_19">
      <g>
       <use style="stroke:#000000;stroke-width:0.5;" x="777.6" xlink:href="#md9a1c1a7cd" y="375.84"/>
      </g>
     </g>
     <g id="text_9">
      <!-- 1000 -->
      <g transform="translate(75.575 379.15125)scale(0.12 -0.12)">
       <use xlink:href="#BitstreamVeraSans-Roman-31"/>
       <use x="63.623046875" xlink:href="#BitstreamVeraSans-Roman-30"/>
       <use x="127.24609375" xlink:href="#BitstreamVeraSans-Roman-30"/>
       <use x="190.869140625" xlink:href="#BitstreamVeraSans-Roman-30"/>
      </g>
     </g>
    </g>
    <g id="ytick_4">
     <g id="line2d_20">
      <g>
       <use style="stroke:#000000;stroke-width:0.5;" x="108.0" xlink:href="#md7965d1ba0" y="272.16"/>
      </g>
     </g>
     <g id="line2d_21">
      <g>
       <use style="stroke:#000000;stroke-width:0.5;" x="777.6" xlink:href="#md9a1c1a7cd" y="272.16"/>
      </g>
     </g>
     <g id="text_10">
      <!-- 1500 -->
      <g transform="translate(75.575 275.47125)scale(0.12 -0.12)">
       <use xlink:href="#BitstreamVeraSans-Roman-31"/>
       <use x="63.623046875" xlink:href="#BitstreamVeraSans-Roman-35"/>
       <use x="127.24609375" xlink:href="#BitstreamVeraSans-Roman-30"/>
       <use x="190.869140625" xlink:href="#BitstreamVeraSans-Roman-30"/>
      </g>
     </g>
    </g>
    <g id="ytick_5">
     <g id="line2d_22">
      <g>
       <use style="stroke:#000000;stroke-width:0.5;" x="108.0" xlink:href="#md7965d1ba0" y="168.48"/>
      </g>
     </g>
     <g id="line2d_23">
      <g>
       <use style="stroke:#000000;stroke-width:0.5;" x="777.6" xlink:href="#md9a1c1a7cd" y="168.48"/>
      </g>
     </g>
     <g id="text_11">
      <!-- 2000 -->
      <g transform="translate(75.13625 171.79125)scale(0.12 -0.12)">
       <use xlink:href="#BitstreamVeraSans-Roman-32"/>
       <use x="63.623046875" xlink:href="#BitstreamVeraSans-Roman-30"/>
       <use x="127.24609375" xlink:href="#BitstreamVeraSans-Roman-30"/>
       <use x="190.869140625" xlink:href="#BitstreamVeraSans-Roman-30"/>
      </g>
     </g>
    </g>
    <g id="ytick_6">
     <g id="line2d_24">
      <g>
       <use style="stroke:#000000;stroke-width:0.5;" x="108.0" xlink:href="#md7965d1ba0" y="64.8"/>
      </g>
     </g>
     <g id="line2d_25">
      <g>
       <use style="stroke:#000000;stroke-width:0.5;" x="777.6" xlink:href="#md9a1c1a7cd" y="64.8"/>
      </g>
     </g>
     <g id="text_12">
      <!-- 2500 -->
      <g transform="translate(75.13625 68.11125)scale(0.12 -0.12)">
       <use xlink:href="#BitstreamVeraSans-Roman-32"/>
       <use x="63.623046875" xlink:href="#BitstreamVeraSans-Roman-35"/>
       <use x="127.24609375" xlink:href="#BitstreamVeraSans-Roman-30"/>
       <use x="190.869140625" xlink:href="#BitstreamVeraSans-Roman-30"/>
      </g>
     </g>
    </g>
    <g id="text_13">
     <!-- particle numbers -->
     <defs>
      <path d="
M18.1094 8.20312
L18.1094 -20.7969
L9.07812 -20.7969
L9.07812 54.6875
L18.1094 54.6875
L18.1094 46.3906
Q20.9531 51.2656 25.2656 53.625
Q29.5938 56 35.5938 56
Q45.5625 56 51.7812 48.0938
Q58.0156 40.1875 58.0156 27.2969
Q58.0156 14.4062 51.7812 6.48438
Q45.5625 -1.42188 35.5938 -1.42188
Q29.5938 -1.42188 25.2656 0.953125
Q20.9531 3.32812 18.1094 8.20312
M48.6875 27.2969
Q48.6875 37.2031 44.6094 42.8438
Q40.5312 48.4844 33.4062 48.4844
Q26.2656 48.4844 22.1875 42.8438
Q18.1094 37.2031 18.1094 27.2969
Q18.1094 17.3906 22.1875 11.75
Q26.2656 6.10938 33.4062 6.10938
Q40.5312 6.10938 44.6094 11.75
Q48.6875 17.3906 48.6875 27.2969" id="BitstreamVeraSans-Roman-70"/>
      <path d="
M34.2812 27.4844
Q23.3906 27.4844 19.1875 25
Q14.9844 22.5156 14.9844 16.5
Q14.9844 11.7188 18.1406 8.90625
Q21.2969 6.10938 26.7031 6.10938
Q34.1875 6.10938 38.7031 11.4062
Q43.2188 16.7031 43.2188 25.4844
L43.2188 27.4844
z

M52.2031 31.2031
L52.2031 0
L43.2188 0
L43.2188 8.29688
Q40.1406 3.32812 35.5469 0.953125
Q30.9531 -1.42188 24.3125 -1.42188
Q15.9219 -1.42188 10.9531 3.29688
Q6 8.01562 6 15.9219
Q6 25.1406 12.1719 29.8281
Q18.3594 34.5156 30.6094 34.5156
L43.2188 34.5156
L43.2188 35.4062
Q43.2188 41.6094 39.1406 45
Q35.0625 48.3906 27.6875 48.3906
Q23 48.3906 18.5469 47.2656
Q14.1094 46.1406 10.0156 43.8906
L10.0156 52.2031
Q14.9375 54.1094 19.5781 55.0469
Q24.2188 56 28.6094 56
Q40.4844 56 46.3438 49.8438
Q52.2031 43.7031 52.2031 31.2031" id="BitstreamVeraSans-Roman-61"/>
      <path d="
M56.2031 29.5938
L56.2031 25.2031
L14.8906 25.2031
Q15.4844 15.9219 20.4844 11.0625
Q25.4844 6.20312 34.4219 6.20312
Q39.5938 6.20312 44.4531 7.46875
Q49.3125 8.73438 54.1094 11.2812
L54.1094 2.78125
Q49.2656 0.734375 44.1875 -0.34375
Q39.1094 -1.42188 33.8906 -1.42188
Q20.7969 -1.42188 13.1562 6.1875
Q5.51562 13.8125 5.51562 26.8125
Q5.51562 40.2344 12.7656 48.1094
Q20.0156 56 32.3281 56
Q43.3594 56 49.7812 48.8906
Q56.2031 41.7969 56.2031 29.5938
M47.2188 32.2344
Q47.125 39.5938 43.0938 43.9844
Q39.0625 48.3906 32.4219 48.3906
Q24.9062 48.3906 20.3906 44.1406
Q15.875 39.8906 15.1875 32.1719
z
" id="BitstreamVeraSans-Roman-65"/>
      <path d="
M41.1094 46.2969
Q39.5938 47.1719 37.8125 47.5781
Q36.0312 48 33.8906 48
Q26.2656 48 22.1875 43.0469
Q18.1094 38.0938 18.1094 28.8125
L18.1094 0
L9.07812 0
L9.07812 54.6875
L18.1094 54.6875
L18.1094 46.1875
Q20.9531 51.1719 25.4844 53.5781
Q30.0312 56 36.5312 56
Q37.4531 56 38.5781 55.875
Q39.7031 55.7656 41.0625 55.5156
z
" id="BitstreamVeraSans-Roman-72"/>
      <path d="
M54.8906 33.0156
L54.8906 0
L45.9062 0
L45.9062 32.7188
Q45.9062 40.4844 42.875 44.3281
Q39.8438 48.1875 33.7969 48.1875
Q26.5156 48.1875 22.3125 43.5469
Q18.1094 38.9219 18.1094 30.9062
L18.1094 0
L9.07812 0
L9.07812 54.6875
L18.1094 54.6875
L18.1094 46.1875
Q21.3438 51.125 25.7031 53.5625
Q30.0781 56 35.7969 56
Q45.2188 56 50.0469 50.1719
Q54.8906 44.3438 54.8906 33.0156" id="BitstreamVeraSans-Roman-6e"/>
      <path d="
M9.42188 75.9844
L18.4062 75.9844
L18.4062 0
L9.42188 0
z
" id="BitstreamVeraSans-Roman-6c"/>
      <path d="
M48.7812 52.5938
L48.7812 44.1875
Q44.9688 46.2969 41.1406 47.3438
Q37.3125 48.3906 33.4062 48.3906
Q24.6562 48.3906 19.8125 42.8438
Q14.9844 37.3125 14.9844 27.2969
Q14.9844 17.2812 19.8125 11.7344
Q24.6562 6.20312 33.4062 6.20312
Q37.3125 6.20312 41.1406 7.25
Q44.9688 8.29688 48.7812 10.4062
L48.7812 2.09375
Q45.0156 0.34375 40.9844 -0.53125
Q36.9688 -1.42188 32.4219 -1.42188
Q20.0625 -1.42188 12.7812 6.34375
Q5.51562 14.1094 5.51562 27.2969
Q5.51562 40.6719 12.8594 48.3281
Q20.2188 56 33.0156 56
Q37.1562 56 41.1094 55.1406
Q45.0625 54.2969 48.7812 52.5938" id="BitstreamVeraSans-Roman-63"/>
      <path d="
M9.42188 54.6875
L18.4062 54.6875
L18.4062 0
L9.42188 0
z

M9.42188 75.9844
L18.4062 75.9844
L18.4062 64.5938
L9.42188 64.5938
z
" id="BitstreamVeraSans-Roman-69"/>
      <path d="
M8.5 21.5781
L8.5 54.6875
L17.4844 54.6875
L17.4844 21.9219
Q17.4844 14.1562 20.5 10.2656
Q23.5312 6.39062 29.5938 6.39062
Q36.8594 6.39062 41.0781 11.0312
Q45.3125 15.6719 45.3125 23.6875
L45.3125 54.6875
L54.2969 54.6875
L54.2969 0
L45.3125 0
L45.3125 8.40625
Q42.0469 3.42188 37.7188 1
Q33.4062 -1.42188 27.6875 -1.42188
Q18.2656 -1.42188 13.375 4.4375
Q8.5 10.2969 8.5 21.5781" id="BitstreamVeraSans-Roman-75"/>
      <path d="
M48.6875 27.2969
Q48.6875 37.2031 44.6094 42.8438
Q40.5312 48.4844 33.4062 48.4844
Q26.2656 48.4844 22.1875 42.8438
Q18.1094 37.2031 18.1094 27.2969
Q18.1094 17.3906 22.1875 11.75
Q26.2656 6.10938 33.4062 6.10938
Q40.5312 6.10938 44.6094 11.75
Q48.6875 17.3906 48.6875 27.2969
M18.1094 46.3906
Q20.9531 51.2656 25.2656 53.625
Q29.5938 56 35.5938 56
Q45.5625 56 51.7812 48.0938
Q58.0156 40.1875 58.0156 27.2969
Q58.0156 14.4062 51.7812 6.48438
Q45.5625 -1.42188 35.5938 -1.42188
Q29.5938 -1.42188 25.2656 0.953125
Q20.9531 3.32812 18.1094 8.20312
L18.1094 0
L9.07812 0
L9.07812 75.9844
L18.1094 75.9844
z
" id="BitstreamVeraSans-Roman-62"/>
     </defs>
     <g transform="translate(67.640625 374.78625)rotate(-90.0)scale(0.12 -0.12)">
      <use xlink:href="#BitstreamVeraSans-Roman-70"/>
      <use x="63.4765625" xlink:href="#BitstreamVeraSans-Roman-61"/>
      <use x="124.755859375" xlink:href="#BitstreamVeraSans-Roman-72"/>
      <use x="165.869140625" xlink:href="#BitstreamVeraSans-Roman-74"/>
      <use x="205.078125" xlink:href="#BitstreamVeraSans-Roman-69"/>
      <use x="232.861328125" xlink:href="#BitstreamVeraSans-Roman-63"/>
      <use x="287.841796875" xlink:href="#BitstreamVeraSans-Roman-6c"/>
      <use x="315.625" xlink:href="#BitstreamVeraSans-Roman-65"/>
      <use x="377.1484375" xlink:href="#BitstreamVeraSans-Roman-20"/>
      <use x="408.935546875" xlink:href="#BitstreamVeraSans-Roman-6e"/>
      <use x="472.314453125" xlink:href="#BitstreamVeraSans-Roman-75"/>
      <use x="535.693359375" xlink:href="#BitstreamVeraSans-Roman-6d"/>
      <use x="633.10546875" xlink:href="#BitstreamVeraSans-Roman-62"/>
      <use x="696.58203125" xlink:href="#BitstreamVeraSans-Roman-65"/>
      <use x="758.10546875" xlink:href="#BitstreamVeraSans-Roman-72"/>
      <use x="799.21875" xlink:href="#BitstreamVeraSans-Roman-73"/>
     </g>
    </g>
   </g>
   <g id="legend_1">
    <g id="patch_7">
     <path d="
M724.53 101.224
L774.1 101.224
L774.1 68.3
L724.53 68.3
z
" style="fill:#ffffff;stroke:#000000;stroke-linejoin:miter;"/>
    </g>
    <g id="line2d_26">
     <path d="
M729.43 73.9689
L739.23 73.9689" style="fill:none;stroke:#ff0000;stroke-linecap:square;"/>
    </g>
    <g id="line2d_27"/>
    <g id="text_14">
     <!-- Da el.0 -->
     <defs>
      <path d="
M19.6719 64.7969
L19.6719 8.10938
L31.5938 8.10938
Q46.6875 8.10938 53.6875 14.9375
Q60.6875 21.7812 60.6875 36.5312
Q60.6875 51.1719 53.6875 57.9844
Q46.6875 64.7969 31.5938 64.7969
z

M9.8125 72.9062
L30.0781 72.9062
Q51.2656 72.9062 61.1719 64.0938
Q71.0938 55.2812 71.0938 36.5312
Q71.0938 17.6719 61.125 8.82812
Q51.1719 0 30.0781 0
L9.8125 0
z
" id="BitstreamVeraSans-Roman-44"/>
      <path d="
M10.6875 12.4062
L21 12.4062
L21 0
L10.6875 0
z
" id="BitstreamVeraSans-Roman-2e"/>
     </defs>
     <g transform="translate(746.93015625 76.41890625)scale(0.07 -0.07)">
      <use xlink:href="#BitstreamVeraSans-Roman-44"/>
      <use x="77.001953125" xlink:href="#BitstreamVeraSans-Roman-61"/>
      <use x="138.28125" xlink:href="#BitstreamVeraSans-Roman-20"/>
      <use x="170.068359375" xlink:href="#BitstreamVeraSans-Roman-65"/>
      <use x="231.591796875" xlink:href="#BitstreamVeraSans-Roman-6c"/>
      <use x="259.375" xlink:href="#BitstreamVeraSans-Roman-2e"/>
      <use x="291.162109375" xlink:href="#BitstreamVeraSans-Roman-30"/>
     </g>
    </g>
    <g id="line2d_28">
     <path d="
M729.43 84.2436
L739.23 84.2436" style="fill:none;stroke:#008000;stroke-linecap:square;"/>
    </g>
    <g id="line2d_29"/>
    <g id="text_15">
     <!-- Da el.1 -->
     <g transform="translate(746.93015625 86.69359375)scale(0.07 -0.07)">
      <use xlink:href="#BitstreamVeraSans-Roman-44"/>
      <use x="77.001953125" xlink:href="#BitstreamVeraSans-Roman-61"/>
      <use x="138.28125" xlink:href="#BitstreamVeraSans-Roman-20"/>
      <use x="170.068359375" xlink:href="#BitstreamVeraSans-Roman-65"/>
      <use x="231.591796875" xlink:href="#BitstreamVeraSans-Roman-6c"/>
      <use x="259.375" xlink:href="#BitstreamVeraSans-Roman-2e"/>
      <use x="291.162109375" xlink:href="#BitstreamVeraSans-Roman-31"/>
     </g>
    </g>
    <g id="line2d_30">
     <path d="
M729.43 94.5183
L739.23 94.5183" style="fill:none;stroke:#0000ff;stroke-linecap:square;"/>
    </g>
    <g id="line2d_31"/>
    <g id="text_16">
     <!-- Da el.2 -->
     <g transform="translate(746.93015625 96.96828125)scale(0.07 -0.07)">
      <use xlink:href="#BitstreamVeraSans-Roman-44"/>
      <use x="77.001953125" xlink:href="#BitstreamVeraSans-Roman-61"/>
      <use x="138.28125" xlink:href="#BitstreamVeraSans-Roman-20"/>
      <use x="170.068359375" xlink:href="#BitstreamVeraSans-Roman-65"/>
      <use x="231.591796875" xlink:href="#BitstreamVeraSans-Roman-6c"/>
      <use x="259.375" xlink:href="#BitstreamVeraSans-Roman-2e"/>
      <use x="291.162109375" xlink:href="#BitstreamVeraSans-Roman-32"/>
     </g>
    </g>
   </g>
  </g>
 </g>
 <defs>
  <clipPath id="p7ceb695115">
   <rect height="518.4" width="669.6" x="108.0" y="64.8"/>
  </clipPath>
 </defs>
</svg>
