<?xml version="1.0" encoding="utf-8" standalone="no"?>
<!DOCTYPE svg PUBLIC "-//W3C//DTD SVG 1.1//EN"
  "http://www.w3.org/Graphics/SVG/1.1/DTD/svg11.dtd">
<!-- Created with matplotlib (http://matplotlib.org/) -->
<svg height="648pt" version="1.1" viewBox="0 0 864 648" width="864pt" xmlns="http://www.w3.org/2000/svg" xmlns:xlink="http://www.w3.org/1999/xlink">
 <defs>
  <style type="text/css">
*{stroke-linecap:butt;stroke-linejoin:round;}
  </style>
 </defs>
 <g id="figure_1">
  <g id="patch_1">
   <path d="
M0 648
L864 648
L864 0
L0 0
z
" style="fill:#ffffff;"/>
  </g>
  <g id="axes_1">
   <g id="patch_2">
    <path d="
M108 583.2
L777.6 583.2
L777.6 64.8
L108 64.8
z
" style="fill:#ffffff;"/>
   </g>
   <g id="line2d_1">
    <path clip-path="url(#p7ceb695115)" d="
M108 583.2
L108.67 582.552
L109.339 581.904
L110.009 581.58
L112.018 581.58
L113.357 580.932
L116.035 578.34
L116.705 577.368
L118.044 576.72
L118.714 574.776
L119.383 574.452
L120.053 571.86
L120.722 571.86
L121.392 570.564
L122.731 568.62
L124.07 568.62
L125.41 567.324
L126.079 565.704
L126.749 565.056
L127.418 565.38
L128.758 564.084
L130.766 563.112
L131.436 562.464
L132.106 560.844
L132.775 559.872
L133.445 560.196
L134.114 559.548
L134.784 560.196
L136.793 554.688
L137.462 554.364
L138.132 552.42
L138.802 552.096
L139.471 551.448
L140.141 551.448
L140.81 550.476
L141.48 548.208
L142.819 549.504
L143.489 549.18
L144.828 547.884
L145.498 548.208
L146.837 546.264
L147.506 546.912
L148.176 546.588
L148.846 546.588
L149.515 546.912
L150.185 547.56
L150.854 547.236
L151.524 545.94
L152.194 544.968
L152.863 544.644
L153.533 544.968
L154.202 544.32
L154.872 543.024
L156.211 542.376
L156.881 541.728
L157.55 542.052
L158.22 541.404
L158.89 541.404
L159.559 542.376
L160.229 541.08
L160.898 540.108
L161.568 539.784
L162.238 542.052
L162.907 541.728
L163.577 540.432
L164.246 539.784
L164.916 539.784
L166.255 538.488
L166.925 538.164
L168.264 536.22
L168.934 536.22
L169.603 534.924
L170.273 534.924
L170.942 534.6
L172.282 534.6
L172.951 533.304
L173.621 532.98
L174.29 533.628
L174.96 532.98
L175.63 532.98
L176.299 532.332
L176.969 533.304
L177.638 533.304
L178.308 533.952
L178.978 534.276
L180.317 537.84
L180.986 536.868
L181.656 536.22
L182.326 536.868
L182.995 535.896
L183.665 535.572
L184.334 535.572
L185.674 536.22
L186.343 534.6
L187.013 533.304
L187.682 533.952
L188.352 532.98
L189.022 532.656
L189.691 532.98
L190.361 533.952
L191.03 532.98
L191.7 533.304
L192.37 534.6
L193.039 534.6
L193.709 535.572
L194.378 535.248
L195.048 534.6
L195.718 534.6
L196.387 535.248
L197.057 536.544
L197.726 536.868
L198.396 536.22
L199.735 536.868
L200.405 536.868
L201.074 537.192
L202.414 538.488
L203.083 539.784
L203.753 541.404
L204.422 542.052
L205.762 542.7
L206.431 542.052
L207.101 543.672
L207.77 543.996
L208.44 543.672
L209.11 542.052
L209.779 543.024
L210.449 542.052
L212.458 541.08
L213.797 539.136
L215.136 540.432
L215.806 541.404
L216.475 541.728
L217.814 543.024
L218.484 542.376
L219.154 542.052
L219.823 541.404
L220.493 540.432
L221.162 541.404
L221.832 542.052
L223.171 541.404
L224.51 542.052
L225.18 542.052
L225.85 542.376
L226.519 541.728
L227.189 543.024
L227.858 542.052
L228.528 541.404
L229.867 541.404
L231.206 540.756
L231.876 540.756
L232.546 541.728
L233.215 541.08
L234.554 542.376
L235.224 542.052
L235.894 542.052
L236.563 540.432
L237.233 541.08
L237.902 541.404
L238.572 541.404
L239.242 542.7
L239.911 543.672
L240.581 543.672
L241.25 543.348
L241.92 543.996
L242.59 544.32
L243.259 544.32
L243.929 544.644
L244.598 543.996
L245.268 543.996
L245.938 543.672
L247.277 543.672
L247.946 543.996
L248.616 545.616
L249.286 544.644
L250.625 543.996
L251.294 544.644
L251.964 545.94
L252.634 546.588
L253.303 547.56
L253.973 547.884
L254.642 548.532
L255.312 550.152
L255.982 549.504
L256.651 549.18
L257.321 549.18
L257.99 549.828
L259.33 548.532
L259.999 548.856
L260.669 551.124
L261.338 550.8
L262.008 548.856
L262.678 549.828
L263.347 549.504
L264.686 549.504
L265.356 550.152
L266.026 550.152
L266.695 550.476
L267.365 550.476
L268.034 550.8
L268.704 550.152
L269.374 550.476
L270.043 548.856
L270.713 547.884
L272.052 547.884
L272.722 549.504
L273.391 548.208
L274.061 549.504
L274.73 550.152
L276.739 551.124
L277.409 551.124
L278.078 550.8
L278.748 551.772
L279.418 552.096
L280.087 551.772
L280.757 552.42
L281.426 552.42
L282.096 552.096
L282.766 552.42
L283.435 551.448
L284.105 551.448
L284.774 550.8
L286.114 551.448
L286.783 550.476
L287.453 549.828
L288.122 549.504
L288.792 550.152
L289.462 549.504
L290.131 548.532
L290.801 548.856
L291.47 548.856
L292.14 549.18
L293.479 548.532
L294.818 549.18
L295.488 549.18
L296.158 548.856
L296.827 548.856
L297.497 548.208
L298.836 547.56
L299.506 546.588
L300.175 546.912
L300.845 546.912
L301.514 547.56
L302.184 547.884
L302.854 547.56
L303.523 548.208
L304.193 548.208
L305.532 548.856
L306.202 548.532
L306.871 549.504
L307.541 548.208
L308.21 547.884
L308.88 548.208
L309.55 547.884
L310.219 548.208
L310.889 549.18
L311.558 549.504
L312.228 549.18
L312.898 548.532
L313.567 548.856
L314.237 549.504
L314.906 549.504
L315.576 550.476
L316.246 550.8
L316.915 550.152
L317.585 550.152
L318.254 551.772
L318.924 551.772
L319.594 551.124
L320.263 551.772
L320.933 552.744
L321.602 552.744
L322.272 552.096
L322.942 552.744
L323.611 551.772
L324.281 552.744
L324.95 551.772
L325.62 553.068
L326.29 552.42
L328.298 551.448
L328.968 550.476
L329.638 549.828
L330.307 549.828
L330.977 549.504
L331.646 549.828
L332.316 551.124
L332.986 550.152
L333.655 550.152
L334.325 551.772
L334.994 550.8
L335.664 551.448
L336.334 551.772
L337.003 551.772
L337.673 552.744
L338.342 553.068
L339.012 553.068
L339.682 552.744
L340.351 552.744
L341.021 552.096
L341.69 552.096
L343.03 551.448
L343.699 551.772
L345.038 550.476
L345.708 550.8
L346.378 550.476
L347.047 550.8
L347.717 550.476
L348.386 549.504
L349.056 548.856
L349.726 548.856
L350.395 548.208
L351.065 549.828
L351.734 550.8
L352.404 550.152
L353.074 550.152
L353.743 551.448
L354.413 550.476
L355.082 550.8
L355.752 548.856
L356.422 549.18
L357.761 550.476
L358.43 549.828
L359.1 550.476
L360.439 549.828
L361.778 549.828
L363.118 550.476
L363.787 549.828
L364.457 549.828
L365.126 550.8
L365.796 551.124
L366.466 551.772
L367.135 551.448
L367.805 551.448
L368.474 550.8
L369.144 551.124
L369.814 550.476
L370.483 551.124
L372.492 551.124
L373.162 551.772
L373.831 551.124
L374.501 552.42
L375.84 553.068
L376.51 552.096
L377.179 551.448
L377.849 552.42
L378.518 552.096
L380.527 553.068
L381.197 554.688
L381.866 554.364
L383.206 555.66
L383.875 556.632
L384.545 555.984
L385.214 555.66
L385.884 555.984
L386.554 556.632
L387.223 556.308
L387.893 556.308
L388.562 556.956
L390.571 556.956
L391.241 557.28
L391.91 556.632
L392.58 557.604
L393.25 558.252
L395.258 557.28
L395.928 557.604
L396.598 557.28
L397.267 558.576
L397.937 558.9
L398.606 558.9
L399.276 557.604
L399.946 558.252
L400.615 558.252
L401.285 559.548
L402.624 558.9
L403.294 558.9
L403.963 559.224
L404.633 559.872
L406.642 560.844
L407.311 560.844
L407.981 560.52
L408.65 560.844
L409.32 561.492
L409.99 562.464
L410.659 561.492
L411.329 561.168
L411.998 561.816
L413.338 563.76
L414.007 563.76
L414.677 564.084
L415.346 564.732
L416.016 564.408
L416.686 564.408
L417.355 563.76
L418.025 564.732
L418.694 564.732
L419.364 564.408
L420.703 565.056
L421.373 565.056
L422.042 565.38
L424.051 567.324
L424.721 567.324
L425.39 566.676
L426.06 566.676
L426.73 566.352
L427.399 566.352
L428.069 566.676
L428.738 566.676
L430.078 567.324
L431.417 567.324
L432.756 566.676
L433.426 565.704
L435.434 566.676
L436.104 566.352
L436.774 566.352
L437.443 566.676
L438.113 566.352
L438.782 566.352
L439.452 566.028
L440.122 566.352
L440.791 566.028
L441.461 566.028
L442.13 565.38
L442.8 565.704
L443.47 564.732
L444.139 563.436
L444.809 558.252
L445.478 545.292
L446.148 521.964
L447.487 456.516
L448.826 381.996
L450.166 316.224
L450.835 302.616
L451.505 286.092
L452.174 290.628
L452.844 286.74
L453.514 280.908
L454.183 293.22
L454.853 285.768
L456.862 333.72
L457.531 343.764
L458.201 358.02
L458.87 366.12
L459.54 376.164
L460.21 401.436
L460.879 397.548
L461.549 399.816
L462.218 416.34
L462.888 415.044
L464.227 431.568
L464.897 428.976
L465.566 432.216
L466.236 434.484
L466.906 434.16
L467.575 434.808
L468.245 430.596
L468.914 432.54
L469.584 421.2
L470.254 428.328
L470.923 439.02
L471.593 432.216
L472.262 429.624
L472.932 424.764
L473.602 422.172
L474.271 431.892
L474.941 437.4
L475.61 413.1
L476.28 428.652
L476.95 433.512
L477.619 416.988
L478.289 416.664
L478.958 414.396
L479.628 416.016
L480.298 417.312
L480.967 400.464
L481.637 406.62
L482.306 391.068
L482.976 393.66
L483.646 401.436
L484.315 390.096
L484.985 396.252
L485.654 397.872
L486.324 388.8
L486.994 390.096
L487.663 375.84
L488.333 384.912
L489.002 385.884
L489.672 372.6
L490.342 363.528
L491.011 358.344
L491.681 365.472
L492.35 366.444
L493.02 360.612
L493.69 363.204
L494.359 363.852
L495.029 360.612
L495.698 366.768
L496.368 369.036
L497.038 380.7
L497.707 369.036
L498.377 364.5
L499.046 354.132
L499.716 356.4
L500.386 347.652
L501.055 353.16
L501.725 356.076
L502.394 356.4
L503.064 349.92
L503.734 352.836
L504.403 354.456
L505.742 348.3
L506.412 353.808
L507.082 347.328
L507.751 345.06
L508.421 349.92
L509.09 338.256
L509.76 344.736
L511.099 332.1
L511.769 342.468
L512.438 337.608
L513.108 341.82
L513.778 330.804
L514.447 325.944
L515.117 323.676
L515.786 327.888
L516.456 328.212
L517.126 323.028
L517.795 325.296
L518.465 324.324
L519.134 332.1
L519.804 338.58
L520.474 340.524
L521.143 334.692
L522.482 325.62
L523.152 328.212
L523.822 335.988
L524.491 338.904
L525.161 328.212
L525.83 322.704
L526.5 320.76
L527.17 323.028
L527.839 317.52
L528.509 305.208
L529.178 302.94
L529.848 304.56
L530.518 313.632
L531.187 301.968
L531.857 310.716
L532.526 316.224
L533.196 309.744
L533.866 307.8
L534.535 312.66
L535.205 304.56
L535.874 301.644
L536.544 310.392
L537.214 307.8
L537.883 306.504
L538.553 312.336
L539.222 316.872
L540.562 305.856
L541.231 312.984
L541.901 322.704
L542.57 317.52
L543.24 320.112
L543.91 325.62
L544.579 320.112
L545.249 317.52
L545.918 312.66
L546.588 321.732
L547.258 318.492
L547.927 315.9
L548.597 310.392
L549.266 312.984
L549.936 306.828
L550.606 304.56
L551.275 293.868
L551.945 313.308
L552.614 310.392
L553.284 312.012
L553.954 315.576
L554.623 303.264
L555.293 306.504
L555.962 305.208
L556.632 307.476
L557.302 300.672
L557.971 306.504
L558.641 313.956
L559.31 297.432
L559.98 299.7
L560.65 312.336
L561.319 305.208
L561.989 294.192
L562.658 289.98
L563.328 299.376
L563.998 302.94
L564.667 297.108
L565.337 294.192
L566.006 288.684
L566.676 297.108
L567.346 290.628
L568.015 289.008
L568.685 280.26
L569.354 277.668
L570.024 285.444
L570.694 275.4
L571.363 276.372
L572.033 274.752
L572.702 275.724
L573.372 284.472
L574.042 278.964
L574.711 275.076
L575.381 267.948
L576.05 269.892
L576.72 268.596
L577.39 276.048
L578.059 274.752
L578.729 270.54
L579.398 262.764
L580.068 269.244
L580.738 265.032
L581.407 263.088
L582.077 262.44
L583.416 269.892
L584.086 268.596
L584.755 269.244
L585.425 261.792
L586.094 258.876
L587.434 241.704
L588.103 239.112
L588.773 243.324
L589.442 252.72
L590.112 256.284
L590.782 262.764
L591.451 263.412
L592.79 245.916
L593.46 254.664
L594.13 243.648
L594.799 241.056
L595.469 244.62
L596.138 247.212
L596.808 240.408
L597.478 249.156
L598.817 243.648
L599.486 245.268
L600.156 235.872
L600.826 237.816
L601.495 250.452
L602.165 252.072
L602.834 253.044
L603.504 252.72
L604.174 240.408
L604.843 235.548
L605.513 242.676
L606.182 241.704
L606.852 230.04
L607.522 227.772
L608.191 221.616
L608.861 220.644
L609.53 220.32
L610.2 225.504
L611.539 215.46
L612.209 226.8
L613.548 223.236
L614.218 219.348
L614.887 213.84
L615.557 203.796
L616.226 191.16
L617.566 199.908
L618.235 199.584
L618.905 201.852
L619.574 185.004
L620.244 195.372
L620.914 193.104
L621.583 194.076
L622.253 192.78
L622.922 196.344
L623.592 191.484
L624.262 193.428
L624.931 196.02
L625.601 197.64
L626.27 205.74
L626.94 208.332
L627.61 208.332
L628.279 203.472
L628.949 188.892
L629.618 190.188
L630.288 197.316
L630.958 191.808
L631.627 196.668
L632.297 196.668
L632.966 191.808
L633.636 194.4
L634.306 187.596
L634.975 178.2
L635.645 184.68
L636.314 182.088
L636.984 183.384
L637.654 180.468
L638.323 176.904
L638.993 171.072
L639.662 175.284
L640.332 184.68
L641.002 175.608
L641.671 172.368
L642.341 185.328
L643.01 174.312
L643.68 165.888
L644.35 178.848
L645.019 173.988
L645.689 172.368
L646.358 176.256
L647.028 175.608
L647.698 175.932
L648.367 170.424
L649.037 177.228
L649.706 181.116
L650.376 175.608
L651.046 166.86
L651.715 179.496
L652.385 174.96
L653.054 178.2
L653.724 178.848
L654.394 187.92
L655.063 185.976
L655.733 182.088
L656.402 191.16
L657.072 182.412
L657.742 181.116
L658.411 187.272
L659.081 177.552
L659.75 170.748
L660.42 178.524
L661.09 164.916
L661.759 163.296
L662.429 161.028
L663.098 166.86
L663.768 161.676
L664.438 161.676
L665.107 167.508
L665.777 170.1
L666.446 166.212
L667.116 166.212
L667.786 162.972
L668.455 158.112
L669.125 161.028
L669.794 157.14
L670.464 157.788
L671.134 161.676
L671.803 158.76
L672.473 148.716
L673.142 145.152
L673.812 147.42
L674.482 142.56
L675.151 149.04
L675.821 153.9
L676.49 143.856
L677.16 146.124
L677.83 155.844
L678.499 155.196
L679.169 156.816
L679.838 156.816
L680.508 154.224
L681.178 163.944
L681.847 158.436
L682.517 171.396
L683.186 173.016
L683.856 160.38
L684.526 155.52
L685.195 160.056
L685.865 157.788
L686.534 161.676
L687.204 162
L687.874 154.872
L688.543 145.8
L689.213 148.068
L689.882 138.996
L690.552 147.42
L691.222 145.8
L691.891 146.772
L692.561 148.716
L693.23 140.94
L693.9 142.884
L694.57 139.32
L695.239 137.052
L695.909 137.376
L697.248 152.28
L697.918 147.42
L698.587 147.42
L699.257 146.124
L699.926 147.744
L700.596 145.476
L701.266 142.56
L701.935 147.744
L702.605 154.548
L703.944 154.548
L704.614 148.716
L705.283 149.688
L705.953 149.364
L706.622 156.816
L707.292 153.9
L707.962 159.732
L708.631 157.14
L709.301 155.196
L709.97 145.152
L710.64 140.292
L711.31 144.504
L711.979 138.348
L712.649 140.616
L713.318 142.236
L713.988 141.912
L714.658 135.108
L715.327 134.784
L715.997 137.7
L716.666 139.32
L717.336 128.628
L718.006 128.304
L718.675 131.22
L719.345 124.416
L720.014 127.332
L720.684 120.204
L721.354 123.444
L722.023 127.98
L722.693 128.304
L723.362 132.192
L724.032 130.572
L724.702 139.968
L726.041 134.46
L726.71 135.108
L727.38 136.404
L728.719 135.108
L729.389 136.404
L730.058 133.488
L730.728 126.36
L731.398 132.84
L732.067 140.94
L732.737 134.46
L733.406 137.376
L734.076 137.7
L734.746 129.6
L735.415 137.376
L736.085 133.812
L736.754 132.84
L737.424 131.544
L738.094 134.136
L738.763 146.448
L739.433 141.912
L740.102 136.404
L740.772 132.192
L741.442 133.164
L742.111 141.912
L742.781 143.532
L743.45 146.448
L744.12 144.828
L744.79 145.152
L745.459 143.208
L746.798 149.364
L747.468 142.56
L748.138 150.012
L748.807 152.928
L749.477 160.704
L750.146 161.676
L750.816 163.62
L751.486 161.352
L752.155 161.028
L753.494 168.804
L754.164 166.536
L754.834 171.396
L755.503 168.804
L756.173 163.296
L756.842 162.648
L757.512 159.408
L758.182 159.084
L758.851 163.62
L759.521 169.776
L760.19 177.228
L760.86 179.496
L761.53 179.82
L762.199 186.3
L762.869 189.216
L763.538 191.484
L764.208 188.892
L764.878 189.864
L765.547 190.188
L766.217 192.132
L766.886 192.78
L767.556 188.892
L768.226 187.272
L768.895 187.272
L769.565 185.328
L770.234 189.216
L770.904 186.3
L771.574 190.188
L772.243 195.048
L772.913 197.64
L773.582 203.472
L774.252 202.824
L774.922 201.204
L776.261 207.684
L776.93 209.304
L777.6 205.092
L777.6 205.092" style="fill:none;stroke:#ff0000;stroke-linecap:square;"/>
   </g>
   <g id="line2d_2">
    <path clip-path="url(#p7ceb695115)" d="
M108 583.2
L777.6 583.2
L777.6 583.2" style="fill:none;stroke:#008000;stroke-linecap:square;"/>
   </g>
   <g id="line2d_3">
    <path clip-path="url(#p7ceb695115)" d="
M108 583.2
L108.67 582.552
L109.339 582.228
L111.348 582.228
L112.687 581.58
L113.357 580.932
L114.026 581.256
L115.366 579.312
L116.035 579.312
L117.374 576.72
L118.044 576.072
L118.714 574.776
L119.383 574.776
L120.053 573.156
L120.722 572.508
L121.392 571.212
L122.062 568.944
L123.401 566.352
L124.07 564.084
L124.74 564.084
L125.41 561.492
L126.079 559.872
L127.418 557.28
L128.088 556.956
L128.758 555.984
L129.427 554.04
L130.097 553.716
L130.766 551.772
L131.436 551.448
L132.106 550.8
L132.775 550.476
L133.445 550.8
L134.114 549.504
L134.784 547.884
L135.454 548.208
L136.123 548.208
L136.793 547.56
L137.462 547.56
L138.132 545.94
L138.802 543.996
L139.471 544.32
L140.141 543.996
L140.81 543.348
L141.48 542.052
L142.15 542.376
L143.489 541.728
L144.158 542.052
L144.828 543.348
L145.498 542.376
L146.167 542.376
L146.837 542.052
L147.506 542.052
L148.176 542.376
L148.846 542.052
L149.515 540.756
L150.185 541.404
L150.854 541.08
L151.524 542.052
L152.194 540.756
L152.863 540.756
L153.533 540.108
L154.202 540.756
L155.542 540.108
L156.211 540.108
L156.881 540.432
L158.89 540.432
L160.229 541.728
L160.898 540.432
L161.568 540.108
L162.238 538.812
L162.907 538.812
L163.577 538.164
L164.246 538.488
L164.916 538.164
L165.586 536.22
L166.255 537.192
L166.925 536.868
L167.594 537.516
L168.264 537.192
L168.934 537.516
L169.603 538.164
L170.273 538.164
L170.942 538.812
L171.612 538.812
L172.282 538.488
L172.951 538.812
L173.621 537.192
L174.29 536.868
L174.96 537.192
L175.63 536.544
L176.299 536.22
L176.969 536.544
L177.638 537.192
L178.308 537.192
L178.978 536.868
L179.647 537.192
L180.317 536.22
L180.986 538.488
L181.656 539.136
L182.326 538.812
L182.995 538.812
L183.665 537.516
L184.334 537.192
L185.004 536.22
L185.674 536.544
L186.343 535.896
L187.013 534.924
L187.682 536.22
L188.352 535.896
L189.022 536.868
L189.691 538.164
L190.361 538.164
L191.03 537.192
L191.7 536.868
L192.37 535.896
L193.039 535.248
L193.709 534.276
L194.378 532.98
L195.048 532.98
L195.718 533.304
L196.387 533.952
L197.057 533.952
L197.726 534.6
L198.396 534.924
L199.735 532.98
L200.405 532.332
L201.074 532.332
L201.744 532.656
L202.414 532.008
L203.753 530.064
L204.422 529.74
L205.092 530.388
L205.762 530.064
L206.431 532.008
L207.101 530.712
L207.77 529.74
L208.44 530.712
L209.11 530.064
L211.118 532.98
L211.788 532.332
L212.458 533.628
L213.797 534.924
L214.466 535.248
L215.136 536.544
L215.806 538.164
L216.475 537.516
L217.145 537.84
L217.814 539.46
L218.484 537.84
L219.154 538.812
L220.493 540.108
L221.162 540.432
L221.832 540.108
L222.502 540.432
L223.171 539.784
L223.841 540.108
L224.51 540.756
L225.18 541.728
L225.85 541.08
L226.519 541.404
L227.189 541.404
L227.858 541.728
L229.198 541.08
L229.867 542.052
L230.537 542.376
L231.206 542.052
L231.876 542.376
L232.546 541.404
L235.894 539.784
L236.563 540.756
L237.233 540.432
L237.902 541.08
L238.572 541.404
L239.911 540.756
L240.581 541.08
L241.25 541.728
L241.92 541.728
L242.59 543.024
L243.259 542.376
L243.929 542.7
L244.598 542.7
L245.268 543.024
L245.938 543.024
L246.607 542.052
L247.277 541.728
L247.946 541.728
L248.616 542.052
L249.286 540.756
L250.625 541.404
L251.294 541.404
L251.964 542.376
L252.634 543.024
L253.303 544.644
L253.973 543.672
L254.642 543.672
L255.312 543.348
L255.982 543.996
L256.651 545.292
L257.321 546.264
L257.99 546.912
L258.66 546.912
L259.33 546.588
L259.999 545.94
L260.669 545.616
L262.008 546.912
L262.678 547.884
L263.347 548.532
L264.686 548.532
L265.356 548.856
L266.026 548.856
L266.695 550.476
L267.365 550.476
L268.704 549.18
L269.374 549.504
L270.043 549.504
L270.713 549.828
L271.382 549.18
L272.722 549.828
L273.391 551.448
L274.061 552.42
L275.4 551.772
L276.07 552.096
L277.409 552.096
L278.078 553.068
L278.748 554.364
L279.418 554.688
L280.087 553.392
L280.757 552.744
L281.426 552.744
L282.096 552.42
L282.766 552.744
L283.435 552.42
L284.105 553.068
L284.774 552.096
L285.444 552.096
L286.114 551.448
L286.783 552.096
L287.453 551.772
L288.792 551.772
L289.462 551.448
L290.131 550.8
L290.801 550.476
L291.47 550.476
L292.14 550.152
L292.81 549.504
L295.488 549.504
L296.158 548.532
L296.827 547.884
L297.497 548.208
L298.166 549.18
L298.836 549.18
L299.506 549.828
L300.175 550.152
L300.845 549.504
L302.854 549.504
L304.193 548.856
L304.862 549.18
L305.532 548.208
L306.202 549.18
L306.871 548.856
L307.541 548.208
L308.21 548.532
L308.88 549.504
L309.55 548.532
L310.889 547.884
L311.558 547.884
L312.228 548.208
L312.898 548.856
L313.567 548.208
L314.237 547.884
L314.906 548.532
L315.576 549.504
L316.246 550.8
L316.915 550.476
L317.585 552.096
L318.254 551.124
L318.924 550.8
L319.594 551.772
L320.263 551.772
L320.933 551.124
L321.602 552.42
L322.272 552.42
L322.942 553.068
L323.611 554.04
L324.281 554.364
L324.95 553.716
L325.62 552.744
L326.29 552.096
L326.959 551.772
L327.629 552.744
L328.298 553.392
L328.968 553.068
L329.638 552.42
L330.307 553.068
L330.977 553.068
L331.646 552.42
L332.316 553.068
L332.986 553.392
L333.655 553.068
L334.994 553.068
L335.664 552.42
L336.334 552.42
L337.003 552.744
L337.673 552.096
L338.342 552.42
L339.012 551.772
L339.682 552.744
L340.351 552.744
L341.021 552.096
L341.69 551.772
L342.36 551.124
L343.03 552.096
L343.699 551.448
L344.369 551.124
L345.038 552.744
L345.708 553.068
L346.378 552.42
L347.717 551.772
L348.386 551.124
L349.056 551.448
L350.395 551.448
L351.065 552.096
L351.734 551.772
L352.404 551.772
L353.074 552.096
L353.743 553.392
L354.413 553.392
L355.082 554.04
L355.752 555.012
L356.422 555.66
L357.091 555.984
L357.761 555.984
L358.43 556.956
L359.1 556.308
L359.77 556.308
L360.439 555.984
L361.778 554.688
L362.448 554.364
L363.118 554.688
L364.457 554.04
L365.126 554.04
L365.796 554.688
L366.466 554.04
L367.135 554.688
L367.805 555.012
L368.474 554.688
L369.144 556.308
L369.814 556.632
L370.483 556.308
L371.153 556.308
L371.822 555.984
L372.492 556.632
L373.831 557.28
L374.501 556.308
L375.17 556.308
L375.84 557.28
L376.51 556.956
L377.179 557.604
L377.849 556.632
L378.518 556.956
L380.527 555.984
L381.197 555.336
L381.866 555.336
L382.536 555.984
L383.206 555.984
L383.875 555.66
L384.545 555.984
L385.214 555.66
L385.884 556.308
L386.554 556.308
L387.223 556.956
L387.893 557.28
L389.232 554.688
L389.902 555.012
L390.571 554.688
L391.241 554.04
L393.25 555.984
L393.919 555.66
L394.589 555.984
L395.258 555.984
L395.928 555.66
L396.598 555.984
L397.267 555.012
L397.937 555.66
L398.606 555.66
L399.276 556.308
L399.946 556.632
L400.615 557.28
L401.285 557.28
L402.624 557.928
L403.294 557.28
L403.963 557.928
L404.633 558.252
L405.302 557.928
L405.972 558.9
L406.642 558.9
L407.311 558.252
L407.981 558.9
L408.65 558.576
L409.32 558.576
L409.99 559.872
L410.659 559.872
L411.998 559.224
L412.668 560.196
L413.338 560.52
L414.007 560.196
L414.677 560.196
L415.346 559.872
L416.686 559.872
L417.355 560.52
L418.025 560.844
L420.034 560.844
L420.703 561.816
L422.042 562.464
L423.382 561.816
L424.051 561.816
L425.39 561.168
L426.06 561.168
L426.73 560.844
L428.738 561.816
L429.408 561.816
L430.078 562.464
L430.747 562.14
L431.417 562.788
L432.086 564.084
L432.756 564.084
L434.095 564.732
L435.434 564.084
L437.443 566.028
L438.782 566.028
L439.452 566.352
L442.13 566.352
L442.8 566.676
L443.47 566.352
L444.139 564.732
L444.809 560.52
L445.478 543.672
L446.148 517.752
L448.157 412.452
L449.496 359.964
L450.166 325.944
L450.835 301.968
L452.174 280.26
L452.844 277.344
L453.514 276.372
L454.183 278.64
L454.853 290.304
L455.522 305.856
L456.192 308.448
L456.862 332.424
L457.531 346.032
L458.201 342.468
L458.87 366.768
L459.54 382.644
L460.21 393.336
L460.879 411.156
L461.549 409.86
L462.888 421.524
L463.558 423.144
L464.227 417.312
L464.897 423.468
L465.566 427.032
L466.236 422.496
L466.906 413.1
L467.575 423.468
L468.245 426.06
L468.914 436.428
L469.584 427.356
L470.254 443.88
L470.923 441.288
L471.593 433.836
L472.262 431.568
L472.932 436.428
L473.602 436.752
L474.271 435.456
L474.941 416.664
L475.61 425.088
L476.28 422.496
L476.95 424.764
L477.619 418.608
L478.289 427.032
L478.958 422.82
L479.628 410.832
L480.967 412.128
L481.637 410.832
L482.306 410.832
L482.976 416.664
L483.646 401.76
L484.315 393.336
L484.985 400.464
L485.654 393.012
L486.324 398.52
L486.994 401.76
L487.663 391.716
L488.333 389.448
L489.002 378.432
L489.672 384.588
L490.342 374.544
L491.011 380.376
L491.681 379.08
L492.35 380.376
L493.02 371.304
L493.69 374.544
L494.359 366.444
L495.029 374.22
L495.698 368.064
L496.368 366.12
L497.038 366.768
L497.707 357.372
L498.377 358.344
L499.046 346.356
L499.716 352.836
L500.386 348.3
L501.055 346.68
L501.725 344.736
L502.394 352.512
L503.064 353.16
L503.734 352.512
L504.403 351.216
L505.073 351.864
L505.742 358.992
L506.412 357.048
L507.082 349.92
L507.751 348.624
L508.421 345.06
L509.09 342.468
L510.43 347.652
L511.099 357.696
L511.769 341.496
L512.438 341.82
L513.108 332.424
L513.778 332.424
L514.447 333.72
L515.117 321.408
L515.786 318.168
L516.456 317.844
L517.126 317.844
L517.795 336.312
L518.465 325.944
L519.134 329.832
L519.804 326.268
L520.474 320.436
L521.143 316.224
L521.813 316.548
L522.482 317.844
L523.152 309.42
L523.822 322.38
L524.491 299.7
L525.161 308.124
L525.83 311.364
L526.5 313.632
L527.17 322.056
L527.839 321.732
L528.509 323.028
L529.178 322.38
L529.848 319.14
L530.518 317.52
L531.187 316.872
L531.857 319.464
L532.526 316.872
L533.196 316.872
L533.866 318.492
L534.535 315.252
L535.205 316.548
L535.874 302.94
L536.544 301.644
L537.214 300.996
L537.883 310.392
L538.553 304.56
L539.222 306.18
L539.892 309.744
L540.562 311.04
L541.231 311.364
L542.57 304.236
L543.24 301.644
L543.91 310.716
L544.579 313.956
L545.249 320.112
L545.918 314.604
L546.588 307.8
L547.258 302.94
L547.927 296.136
L548.597 311.688
L549.266 311.04
L549.936 302.292
L550.606 317.52
L551.275 319.464
L551.945 316.872
L552.614 318.492
L553.284 317.196
L553.954 312.336
L554.623 314.604
L555.293 315.576
L555.962 317.196
L556.632 306.18
L557.302 306.504
L557.971 301.968
L558.641 303.912
L559.31 307.152
L559.98 295.164
L560.65 293.544
L561.319 293.22
L561.989 296.784
L562.658 287.712
L563.328 291.276
L563.998 289.98
L564.667 286.74
L565.337 290.628
L566.006 297.756
L566.676 296.46
L567.346 296.136
L568.015 297.108
L568.685 303.264
L569.354 306.504
L570.024 298.728
L571.363 278.964
L572.033 275.724
L572.702 276.696
L573.372 283.5
L574.042 281.88
L575.381 283.824
L576.05 274.752
L576.72 260.82
L577.39 268.272
L578.059 262.764
L578.729 272.16
L579.398 283.176
L580.068 282.528
L580.738 270.864
L581.407 255.96
L582.077 258.876
L583.416 248.184
L584.086 239.76
L584.755 240.408
L585.425 243.972
L586.094 251.424
L587.434 242.676
L588.103 246.888
L588.773 248.508
L589.442 249.804
L590.112 239.76
L590.782 256.284
L591.451 258.876
L592.121 254.34
L592.79 242.352
L593.46 236.196
L594.13 238.14
L594.799 231.336
L595.469 232.308
L596.138 228.096
L596.808 236.844
L597.478 240.084
L598.147 242.028
L598.817 241.704
L599.486 226.8
L600.156 230.364
L600.826 231.984
L601.495 229.392
L602.165 225.828
L602.834 226.152
L603.504 217.404
L604.174 218.052
L604.843 223.884
L605.513 222.912
L606.182 215.136
L606.852 213.192
L608.191 203.796
L608.861 211.896
L609.53 209.952
L610.2 217.08
L610.87 219.024
L611.539 218.376
L612.209 211.896
L612.878 200.232
L613.548 215.136
L614.218 206.388
L614.887 205.74
L615.557 206.712
L616.226 196.992
L616.896 208.008
L617.566 202.176
L618.235 207.036
L618.905 201.852
L619.574 202.824
L620.244 206.712
L620.914 200.232
L621.583 197.316
L622.253 200.88
L622.922 209.304
L623.592 196.344
L624.262 189.216
L624.931 194.724
L625.601 203.148
L626.27 203.472
L626.94 197.316
L627.61 189.54
L628.279 187.596
L628.949 189.864
L629.618 188.892
L630.288 184.356
L630.958 193.752
L631.627 183.384
L632.297 180.144
L632.966 173.34
L633.636 175.284
L634.306 179.82
L635.645 198.612
L636.984 194.076
L637.654 198.612
L638.323 196.668
L638.993 188.568
L639.662 187.92
L640.332 183.708
L641.002 188.244
L641.671 174.96
L642.341 181.116
L643.01 178.2
L643.68 188.892
L644.35 189.864
L645.019 189.54
L645.689 192.78
L646.358 193.752
L647.028 199.26
L647.698 200.556
L648.367 192.456
L649.037 178.524
L649.706 183.708
L650.376 190.188
L651.046 185.976
L651.715 190.512
L652.385 193.752
L653.054 193.104
L653.724 192.78
L654.394 190.188
L655.063 191.484
L655.733 181.116
L656.402 180.144
L657.072 186.948
L658.411 182.412
L659.081 173.664
L659.75 176.256
L660.42 171.396
L661.09 169.128
L661.759 171.396
L662.429 171.396
L663.098 178.524
L663.768 171.72
L664.438 173.664
L665.107 174.96
L667.116 162
L667.786 164.592
L668.455 157.788
L669.125 164.268
L669.794 162.972
L670.464 169.452
L671.134 165.888
L671.803 157.788
L672.473 153.576
L673.142 150.66
L673.812 142.56
L674.482 141.912
L675.151 141.912
L675.821 152.928
L676.49 160.056
L677.16 158.112
L677.83 156.816
L678.499 156.816
L679.169 159.084
L679.838 159.732
L681.178 164.592
L681.847 159.084
L682.517 155.52
L683.186 155.844
L683.856 152.28
L684.526 155.52
L685.195 161.028
L685.865 158.76
L686.534 160.38
L687.204 157.788
L687.874 157.464
L688.543 155.844
L689.213 150.336
L689.882 150.984
L690.552 147.744
L691.222 143.856
L691.891 145.476
L692.561 134.784
L693.23 147.744
L693.9 139.968
L694.57 147.42
L695.239 141.912
L695.909 142.884
L696.578 143.208
L697.248 148.068
L697.918 139.32
L698.587 138.024
L699.257 130.896
L699.926 125.388
L700.596 122.472
L701.266 131.868
L701.935 134.784
L702.605 132.192
L703.274 134.46
L703.944 131.868
L704.614 133.812
L705.283 137.376
L705.953 138.672
L706.622 138.024
L707.292 139.968
L707.962 138.672
L708.631 145.476
L709.301 143.856
L709.97 146.772
L710.64 146.124
L711.31 144.18
L711.979 146.448
L712.649 143.532
L713.318 147.096
L713.988 143.856
L714.658 145.152
L715.327 148.392
L715.997 144.18
L716.666 145.476
L717.336 139.968
L718.006 137.7
L718.675 132.192
L719.345 130.572
L720.014 129.276
L720.684 128.628
L721.354 124.416
L722.023 136.404
L722.693 126.684
L723.362 131.22
L724.032 131.544
L724.702 129.6
L725.371 135.756
L726.041 133.488
L726.71 138.024
L727.38 145.476
L728.05 146.124
L728.719 153.576
L729.389 149.688
L730.058 154.224
L730.728 150.984
L731.398 152.604
L732.067 149.04
L732.737 142.884
L733.406 140.616
L734.076 147.096
L734.746 146.772
L735.415 151.956
L736.085 154.548
L736.754 151.632
L737.424 155.52
L738.094 156.816
L738.763 152.928
L739.433 152.928
L740.102 153.252
L740.772 150.336
L741.442 153.252
L742.111 157.14
L742.781 155.52
L743.45 160.38
L744.12 152.604
L744.79 157.464
L745.459 168.156
L746.129 165.564
L747.468 174.312
L748.138 169.776
L748.807 175.284
L749.477 179.496
L750.146 182.088
L750.816 179.496
L751.486 179.172
L752.155 174.96
L752.825 172.044
L753.494 166.536
L754.164 171.396
L755.503 182.088
L756.173 181.44
L756.842 178.848
L757.512 173.34
L758.851 180.468
L759.521 179.496
L760.86 188.244
L761.53 187.272
L762.199 188.568
L762.869 186.948
L763.538 191.808
L764.208 188.892
L764.878 191.484
L766.886 205.74
L767.556 201.528
L768.226 199.584
L768.895 200.232
L769.565 199.26
L770.234 202.176
L770.904 201.204
L771.574 200.88
L772.243 202.5
L772.913 207.036
L773.582 209.304
L774.252 206.712
L774.922 214.164
L775.591 216.756
L776.261 222.264
L776.93 224.208
L777.6 232.632
L777.6 232.632" style="fill:none;stroke:#0000ff;stroke-linecap:square;"/>
   </g>
   <g id="patch_3">
    <path d="
M108 64.8
L777.6 64.8" style="fill:none;stroke:#000000;stroke-linecap:square;stroke-linejoin:miter;"/>
   </g>
   <g id="patch_4">
    <path d="
M108 583.2
L777.6 583.2" style="fill:none;stroke:#000000;stroke-linecap:square;stroke-linejoin:miter;"/>
   </g>
   <g id="patch_5">
    <path d="
M777.6 583.2
L777.6 64.8" style="fill:none;stroke:#000000;stroke-linecap:square;stroke-linejoin:miter;"/>
   </g>
   <g id="patch_6">
    <path d="
M108 583.2
L108 64.8" style="fill:none;stroke:#000000;stroke-linecap:square;stroke-linejoin:miter;"/>
   </g>
   <g id="matplotlib.axis_1">
    <g id="xtick_1">
     <g id="line2d_4">
      <defs>
       <path d="
M0 0
L0 -4" id="mc7db9fdffb" style="stroke:#000000;stroke-width:0.5;"/>
      </defs>
      <g>
       <use style="stroke:#000000;stroke-width:0.5;" x="108.0" xlink:href="#mc7db9fdffb" y="583.2"/>
      </g>
     </g>
     <g id="line2d_5">
      <defs>
       <path d="
M0 0
L0 4" id="m5a7d422ac3" style="stroke:#000000;stroke-width:0.5;"/>
      </defs>
      <g>
       <use style="stroke:#000000;stroke-width:0.5;" x="108.0" xlink:href="#m5a7d422ac3" y="64.8"/>
      </g>
     </g>
     <g id="text_1">
      <!-- 0 -->
      <defs>
       <path d="
M31.7812 66.4062
Q24.1719 66.4062 20.3281 58.9062
Q16.5 51.4219 16.5 36.375
Q16.5 21.3906 20.3281 13.8906
Q24.1719 6.39062 31.7812 6.39062
Q39.4531 6.39062 43.2812 13.8906
Q47.125 21.3906 47.125 36.375
Q47.125 51.4219 43.2812 58.9062
Q39.4531 66.4062 31.7812 66.4062
M31.7812 74.2188
Q44.0469 74.2188 50.5156 64.5156
Q56.9844 54.8281 56.9844 36.375
Q56.9844 17.9688 50.5156 8.26562
Q44.0469 -1.42188 31.7812 -1.42188
Q19.5312 -1.42188 13.0625 8.26562
Q6.59375 17.9688 6.59375 36.375
Q6.59375 54.8281 13.0625 64.5156
Q19.5312 74.2188 31.7812 74.2188" id="BitstreamVeraSans-Roman-30"/>
      </defs>
      <g transform="translate(104.9765625 596.318125)scale(0.12 -0.12)">
       <use xlink:href="#BitstreamVeraSans-Roman-30"/>
      </g>
     </g>
    </g>
    <g id="xtick_2">
     <g id="line2d_6">
      <g>
       <use style="stroke:#000000;stroke-width:0.5;" x="275.4" xlink:href="#mc7db9fdffb" y="583.2"/>
      </g>
     </g>
     <g id="line2d_7">
      <g>
       <use style="stroke:#000000;stroke-width:0.5;" x="275.4" xlink:href="#m5a7d422ac3" y="64.8"/>
      </g>
     </g>
     <g id="text_2">
      <!-- 50000 -->
      <defs>
       <path d="
M10.7969 72.9062
L49.5156 72.9062
L49.5156 64.5938
L19.8281 64.5938
L19.8281 46.7344
Q21.9688 47.4688 24.1094 47.8281
Q26.2656 48.1875 28.4219 48.1875
Q40.625 48.1875 47.75 41.5
Q54.8906 34.8125 54.8906 23.3906
Q54.8906 11.625 47.5625 5.09375
Q40.2344 -1.42188 26.9062 -1.42188
Q22.3125 -1.42188 17.5469 -0.640625
Q12.7969 0.140625 7.71875 1.70312
L7.71875 11.625
Q12.1094 9.23438 16.7969 8.0625
Q21.4844 6.89062 26.7031 6.89062
Q35.1562 6.89062 40.0781 11.3281
Q45.0156 15.7656 45.0156 23.3906
Q45.0156 31 40.0781 35.4375
Q35.1562 39.8906 26.7031 39.8906
Q22.75 39.8906 18.8125 39.0156
Q14.8906 38.1406 10.7969 36.2812
z
" id="BitstreamVeraSans-Roman-35"/>
      </defs>
      <g transform="translate(257.1740625 596.318125)scale(0.12 -0.12)">
       <use xlink:href="#BitstreamVeraSans-Roman-35"/>
       <use x="63.623046875" xlink:href="#BitstreamVeraSans-Roman-30"/>
       <use x="127.24609375" xlink:href="#BitstreamVeraSans-Roman-30"/>
       <use x="190.869140625" xlink:href="#BitstreamVeraSans-Roman-30"/>
       <use x="254.4921875" xlink:href="#BitstreamVeraSans-Roman-30"/>
      </g>
     </g>
    </g>
    <g id="xtick_3">
     <g id="line2d_8">
      <g>
       <use style="stroke:#000000;stroke-width:0.5;" x="442.8" xlink:href="#mc7db9fdffb" y="583.2"/>
      </g>
     </g>
     <g id="line2d_9">
      <g>
       <use style="stroke:#000000;stroke-width:0.5;" x="442.8" xlink:href="#m5a7d422ac3" y="64.8"/>
      </g>
     </g>
     <g id="text_3">
      <!-- 100000 -->
      <defs>
       <path d="
M12.4062 8.29688
L28.5156 8.29688
L28.5156 63.9219
L10.9844 60.4062
L10.9844 69.3906
L28.4219 72.9062
L38.2812 72.9062
L38.2812 8.29688
L54.3906 8.29688
L54.3906 0
L12.4062 0
z
" id="BitstreamVeraSans-Roman-31"/>
      </defs>
      <g transform="translate(420.9525 596.318125)scale(0.12 -0.12)">
       <use xlink:href="#BitstreamVeraSans-Roman-31"/>
       <use x="63.623046875" xlink:href="#BitstreamVeraSans-Roman-30"/>
       <use x="127.24609375" xlink:href="#BitstreamVeraSans-Roman-30"/>
       <use x="190.869140625" xlink:href="#BitstreamVeraSans-Roman-30"/>
       <use x="254.4921875" xlink:href="#BitstreamVeraSans-Roman-30"/>
       <use x="318.115234375" xlink:href="#BitstreamVeraSans-Roman-30"/>
      </g>
     </g>
    </g>
    <g id="xtick_4">
     <g id="line2d_10">
      <g>
       <use style="stroke:#000000;stroke-width:0.5;" x="610.2" xlink:href="#mc7db9fdffb" y="583.2"/>
      </g>
     </g>
     <g id="line2d_11">
      <g>
       <use style="stroke:#000000;stroke-width:0.5;" x="610.2" xlink:href="#m5a7d422ac3" y="64.8"/>
      </g>
     </g>
     <g id="text_4">
      <!-- 150000 -->
      <g transform="translate(588.3525 596.318125)scale(0.12 -0.12)">
       <use xlink:href="#BitstreamVeraSans-Roman-31"/>
       <use x="63.623046875" xlink:href="#BitstreamVeraSans-Roman-35"/>
       <use x="127.24609375" xlink:href="#BitstreamVeraSans-Roman-30"/>
       <use x="190.869140625" xlink:href="#BitstreamVeraSans-Roman-30"/>
       <use x="254.4921875" xlink:href="#BitstreamVeraSans-Roman-30"/>
       <use x="318.115234375" xlink:href="#BitstreamVeraSans-Roman-30"/>
      </g>
     </g>
    </g>
    <g id="xtick_5">
     <g id="line2d_12">
      <g>
       <use style="stroke:#000000;stroke-width:0.5;" x="777.6" xlink:href="#mc7db9fdffb" y="583.2"/>
      </g>
     </g>
     <g id="line2d_13">
      <g>
       <use style="stroke:#000000;stroke-width:0.5;" x="777.6" xlink:href="#m5a7d422ac3" y="64.8"/>
      </g>
     </g>
     <g id="text_5">
      <!-- 200000 -->
      <defs>
       <path d="
M19.1875 8.29688
L53.6094 8.29688
L53.6094 0
L7.32812 0
L7.32812 8.29688
Q12.9375 14.1094 22.625 23.8906
Q32.3281 33.6875 34.8125 36.5312
Q39.5469 41.8438 41.4219 45.5312
Q43.3125 49.2188 43.3125 52.7812
Q43.3125 58.5938 39.2344 62.25
Q35.1562 65.9219 28.6094 65.9219
Q23.9688 65.9219 18.8125 64.3125
Q13.6719 62.7031 7.8125 59.4219
L7.8125 69.3906
Q13.7656 71.7812 18.9375 73
Q24.125 74.2188 28.4219 74.2188
Q39.75 74.2188 46.4844 68.5469
Q53.2188 62.8906 53.2188 53.4219
Q53.2188 48.9219 51.5312 44.8906
Q49.8594 40.875 45.4062 35.4062
Q44.1875 33.9844 37.6406 27.2188
Q31.1094 20.4531 19.1875 8.29688" id="BitstreamVeraSans-Roman-32"/>
      </defs>
      <g transform="translate(755.533125 596.318125)scale(0.12 -0.12)">
       <use xlink:href="#BitstreamVeraSans-Roman-32"/>
       <use x="63.623046875" xlink:href="#BitstreamVeraSans-Roman-30"/>
       <use x="127.24609375" xlink:href="#BitstreamVeraSans-Roman-30"/>
       <use x="190.869140625" xlink:href="#BitstreamVeraSans-Roman-30"/>
       <use x="254.4921875" xlink:href="#BitstreamVeraSans-Roman-30"/>
       <use x="318.115234375" xlink:href="#BitstreamVeraSans-Roman-30"/>
      </g>
     </g>
    </g>
    <g id="text_6">
     <!-- t / ms -->
     <defs>
      <path d="
M18.3125 70.2188
L18.3125 54.6875
L36.8125 54.6875
L36.8125 47.7031
L18.3125 47.7031
L18.3125 18.0156
Q18.3125 11.3281 20.1406 9.42188
Q21.9688 7.51562 27.5938 7.51562
L36.8125 7.51562
L36.8125 0
L27.5938 0
Q17.1875 0 13.2344 3.875
Q9.28125 7.76562 9.28125 18.0156
L9.28125 47.7031
L2.6875 47.7031
L2.6875 54.6875
L9.28125 54.6875
L9.28125 70.2188
z
" id="BitstreamVeraSans-Roman-74"/>
      <path id="BitstreamVeraSans-Roman-20"/>
      <path d="
M52 44.1875
Q55.375 50.25 60.0625 53.125
Q64.75 56 71.0938 56
Q79.6406 56 84.2812 50.0156
Q88.9219 44.0469 88.9219 33.0156
L88.9219 0
L79.8906 0
L79.8906 32.7188
Q79.8906 40.5781 77.0938 44.375
Q74.3125 48.1875 68.6094 48.1875
Q61.625 48.1875 57.5625 43.5469
Q53.5156 38.9219 53.5156 30.9062
L53.5156 0
L44.4844 0
L44.4844 32.7188
Q44.4844 40.625 41.7031 44.4062
Q38.9219 48.1875 33.1094 48.1875
Q26.2188 48.1875 22.1562 43.5312
Q18.1094 38.875 18.1094 30.9062
L18.1094 0
L9.07812 0
L9.07812 54.6875
L18.1094 54.6875
L18.1094 46.1875
Q21.1875 51.2188 25.4844 53.6094
Q29.7812 56 35.6875 56
Q41.6562 56 45.8281 52.9688
Q50 49.9531 52 44.1875" id="BitstreamVeraSans-Roman-6d"/>
      <path d="
M44.2812 53.0781
L44.2812 44.5781
Q40.4844 46.5312 36.375 47.5
Q32.2812 48.4844 27.875 48.4844
Q21.1875 48.4844 17.8438 46.4375
Q14.5 44.3906 14.5 40.2812
Q14.5 37.1562 16.8906 35.375
Q19.2812 33.5938 26.5156 31.9844
L29.5938 31.2969
Q39.1562 29.25 43.1875 25.5156
Q47.2188 21.7812 47.2188 15.0938
Q47.2188 7.46875 41.1875 3.01562
Q35.1562 -1.42188 24.6094 -1.42188
Q20.2188 -1.42188 15.4531 -0.5625
Q10.6875 0.296875 5.42188 2
L5.42188 11.2812
Q10.4062 8.6875 15.2344 7.39062
Q20.0625 6.10938 24.8125 6.10938
Q31.1562 6.10938 34.5625 8.28125
Q37.9844 10.4531 37.9844 14.4062
Q37.9844 18.0625 35.5156 20.0156
Q33.0625 21.9688 24.7031 23.7812
L21.5781 24.5156
Q13.2344 26.2656 9.51562 29.9062
Q5.8125 33.5469 5.8125 39.8906
Q5.8125 47.6094 11.2812 51.7969
Q16.75 56 26.8125 56
Q31.7812 56 36.1719 55.2656
Q40.5781 54.5469 44.2812 53.0781" id="BitstreamVeraSans-Roman-73"/>
      <path d="
M25.3906 72.9062
L33.6875 72.9062
L8.29688 -9.28125
L0 -9.28125
z
" id="BitstreamVeraSans-Roman-2f"/>
     </defs>
     <g transform="translate(425.9353125 612.931875)scale(0.12 -0.12)">
      <use xlink:href="#BitstreamVeraSans-Roman-74"/>
      <use x="39.208984375" xlink:href="#BitstreamVeraSans-Roman-20"/>
      <use x="70.99609375" xlink:href="#BitstreamVeraSans-Roman-2f"/>
      <use x="104.6875" xlink:href="#BitstreamVeraSans-Roman-20"/>
      <use x="136.474609375" xlink:href="#BitstreamVeraSans-Roman-6d"/>
      <use x="233.88671875" xlink:href="#BitstreamVeraSans-Roman-73"/>
     </g>
    </g>
   </g>
   <g id="matplotlib.axis_2">
    <g id="ytick_1">
     <g id="line2d_14">
      <defs>
       <path d="
M0 0
L4 0" id="md7965d1ba0" style="stroke:#000000;stroke-width:0.5;"/>
      </defs>
      <g>
       <use style="stroke:#000000;stroke-width:0.5;" x="108.0" xlink:href="#md7965d1ba0" y="583.2"/>
      </g>
     </g>
     <g id="line2d_15">
      <defs>
       <path d="
M0 0
L-4 0" id="md9a1c1a7cd" style="stroke:#000000;stroke-width:0.5;"/>
      </defs>
      <g>
       <use style="stroke:#000000;stroke-width:0.5;" x="777.6" xlink:href="#md9a1c1a7cd" y="583.2"/>
      </g>
     </g>
     <g id="text_7">
      <!-- 0 -->
      <g transform="translate(97.953125 586.51125)scale(0.12 -0.12)">
       <use xlink:href="#BitstreamVeraSans-Roman-30"/>
      </g>
     </g>
    </g>
    <g id="ytick_2">
     <g id="line2d_16">
      <g>
       <use style="stroke:#000000;stroke-width:0.5;" x="108.0" xlink:href="#md7965d1ba0" y="518.4"/>
      </g>
     </g>
     <g id="line2d_17">
      <g>
       <use style="stroke:#000000;stroke-width:0.5;" x="777.6" xlink:href="#md9a1c1a7cd" y="518.4"/>
      </g>
     </g>
     <g id="text_8">
      <!-- 200 -->
      <g transform="translate(82.77125 521.71125)scale(0.12 -0.12)">
       <use xlink:href="#BitstreamVeraSans-Roman-32"/>
       <use x="63.623046875" xlink:href="#BitstreamVeraSans-Roman-30"/>
       <use x="127.24609375" xlink:href="#BitstreamVeraSans-Roman-30"/>
      </g>
     </g>
    </g>
    <g id="ytick_3">
     <g id="line2d_18">
      <g>
       <use style="stroke:#000000;stroke-width:0.5;" x="108.0" xlink:href="#md7965d1ba0" y="453.6"/>
      </g>
     </g>
     <g id="line2d_19">
      <g>
       <use style="stroke:#000000;stroke-width:0.5;" x="777.6" xlink:href="#md9a1c1a7cd" y="453.6"/>
      </g>
     </g>
     <g id="text_9">
      <!-- 400 -->
      <defs>
       <path d="
M37.7969 64.3125
L12.8906 25.3906
L37.7969 25.3906
z

M35.2031 72.9062
L47.6094 72.9062
L47.6094 25.3906
L58.0156 25.3906
L58.0156 17.1875
L47.6094 17.1875
L47.6094 0
L37.7969 0
L37.7969 17.1875
L4.89062 17.1875
L4.89062 26.7031
z
" id="BitstreamVeraSans-Roman-34"/>
      </defs>
      <g transform="translate(82.47875 456.91125)scale(0.12 -0.12)">
       <use xlink:href="#BitstreamVeraSans-Roman-34"/>
       <use x="63.623046875" xlink:href="#BitstreamVeraSans-Roman-30"/>
       <use x="127.24609375" xlink:href="#BitstreamVeraSans-Roman-30"/>
      </g>
     </g>
    </g>
    <g id="ytick_4">
     <g id="line2d_20">
      <g>
       <use style="stroke:#000000;stroke-width:0.5;" x="108.0" xlink:href="#md7965d1ba0" y="388.8"/>
      </g>
     </g>
     <g id="line2d_21">
      <g>
       <use style="stroke:#000000;stroke-width:0.5;" x="777.6" xlink:href="#md9a1c1a7cd" y="388.8"/>
      </g>
     </g>
     <g id="text_10">
      <!-- 600 -->
      <defs>
       <path d="
M33.0156 40.375
Q26.375 40.375 22.4844 35.8281
Q18.6094 31.2969 18.6094 23.3906
Q18.6094 15.5312 22.4844 10.9531
Q26.375 6.39062 33.0156 6.39062
Q39.6562 6.39062 43.5312 10.9531
Q47.4062 15.5312 47.4062 23.3906
Q47.4062 31.2969 43.5312 35.8281
Q39.6562 40.375 33.0156 40.375
M52.5938 71.2969
L52.5938 62.3125
Q48.875 64.0625 45.0938 64.9844
Q41.3125 65.9219 37.5938 65.9219
Q27.8281 65.9219 22.6719 59.3281
Q17.5312 52.7344 16.7969 39.4062
Q19.6719 43.6562 24.0156 45.9219
Q28.375 48.1875 33.5938 48.1875
Q44.5781 48.1875 50.9531 41.5156
Q57.3281 34.8594 57.3281 23.3906
Q57.3281 12.1562 50.6875 5.35938
Q44.0469 -1.42188 33.0156 -1.42188
Q20.3594 -1.42188 13.6719 8.26562
Q6.98438 17.9688 6.98438 36.375
Q6.98438 53.6562 15.1875 63.9375
Q23.3906 74.2188 37.2031 74.2188
Q40.9219 74.2188 44.7031 73.4844
Q48.4844 72.75 52.5938 71.2969" id="BitstreamVeraSans-Roman-36"/>
      </defs>
      <g transform="translate(82.73 392.11125)scale(0.12 -0.12)">
       <use xlink:href="#BitstreamVeraSans-Roman-36"/>
       <use x="63.623046875" xlink:href="#BitstreamVeraSans-Roman-30"/>
       <use x="127.24609375" xlink:href="#BitstreamVeraSans-Roman-30"/>
      </g>
     </g>
    </g>
    <g id="ytick_5">
     <g id="line2d_22">
      <g>
       <use style="stroke:#000000;stroke-width:0.5;" x="108.0" xlink:href="#md7965d1ba0" y="324.0"/>
      </g>
     </g>
     <g id="line2d_23">
      <g>
       <use style="stroke:#000000;stroke-width:0.5;" x="777.6" xlink:href="#md9a1c1a7cd" y="324.0"/>
      </g>
     </g>
     <g id="text_11">
      <!-- 800 -->
      <defs>
       <path d="
M31.7812 34.625
Q24.75 34.625 20.7188 30.8594
Q16.7031 27.0938 16.7031 20.5156
Q16.7031 13.9219 20.7188 10.1562
Q24.75 6.39062 31.7812 6.39062
Q38.8125 6.39062 42.8594 10.1719
Q46.9219 13.9688 46.9219 20.5156
Q46.9219 27.0938 42.8906 30.8594
Q38.875 34.625 31.7812 34.625
M21.9219 38.8125
Q15.5781 40.375 12.0312 44.7188
Q8.5 49.0781 8.5 55.3281
Q8.5 64.0625 14.7188 69.1406
Q20.9531 74.2188 31.7812 74.2188
Q42.6719 74.2188 48.875 69.1406
Q55.0781 64.0625 55.0781 55.3281
Q55.0781 49.0781 51.5312 44.7188
Q48 40.375 41.7031 38.8125
Q48.8281 37.1562 52.7969 32.3125
Q56.7812 27.4844 56.7812 20.5156
Q56.7812 9.90625 50.3125 4.23438
Q43.8438 -1.42188 31.7812 -1.42188
Q19.7344 -1.42188 13.25 4.23438
Q6.78125 9.90625 6.78125 20.5156
Q6.78125 27.4844 10.7812 32.3125
Q14.7969 37.1562 21.9219 38.8125
M18.3125 54.3906
Q18.3125 48.7344 21.8438 45.5625
Q25.3906 42.3906 31.7812 42.3906
Q38.1406 42.3906 41.7188 45.5625
Q45.3125 48.7344 45.3125 54.3906
Q45.3125 60.0625 41.7188 63.2344
Q38.1406 66.4062 31.7812 66.4062
Q25.3906 66.4062 21.8438 63.2344
Q18.3125 60.0625 18.3125 54.3906" id="BitstreamVeraSans-Roman-38"/>
      </defs>
      <g transform="translate(82.705625 327.31125)scale(0.12 -0.12)">
       <use xlink:href="#BitstreamVeraSans-Roman-38"/>
       <use x="63.623046875" xlink:href="#BitstreamVeraSans-Roman-30"/>
       <use x="127.24609375" xlink:href="#BitstreamVeraSans-Roman-30"/>
      </g>
     </g>
    </g>
    <g id="ytick_6">
     <g id="line2d_24">
      <g>
       <use style="stroke:#000000;stroke-width:0.5;" x="108.0" xlink:href="#md7965d1ba0" y="259.2"/>
      </g>
     </g>
     <g id="line2d_25">
      <g>
       <use style="stroke:#000000;stroke-width:0.5;" x="777.6" xlink:href="#md9a1c1a7cd" y="259.2"/>
      </g>
     </g>
     <g id="text_12">
      <!-- 1000 -->
      <g transform="translate(75.575 262.51125)scale(0.12 -0.12)">
       <use xlink:href="#BitstreamVeraSans-Roman-31"/>
       <use x="63.623046875" xlink:href="#BitstreamVeraSans-Roman-30"/>
       <use x="127.24609375" xlink:href="#BitstreamVeraSans-Roman-30"/>
       <use x="190.869140625" xlink:href="#BitstreamVeraSans-Roman-30"/>
      </g>
     </g>
    </g>
    <g id="ytick_7">
     <g id="line2d_26">
      <g>
       <use style="stroke:#000000;stroke-width:0.5;" x="108.0" xlink:href="#md7965d1ba0" y="194.4"/>
      </g>
     </g>
     <g id="line2d_27">
      <g>
       <use style="stroke:#000000;stroke-width:0.5;" x="777.6" xlink:href="#md9a1c1a7cd" y="194.4"/>
      </g>
     </g>
     <g id="text_13">
      <!-- 1200 -->
      <g transform="translate(75.575 197.71125)scale(0.12 -0.12)">
       <use xlink:href="#BitstreamVeraSans-Roman-31"/>
       <use x="63.623046875" xlink:href="#BitstreamVeraSans-Roman-32"/>
       <use x="127.24609375" xlink:href="#BitstreamVeraSans-Roman-30"/>
       <use x="190.869140625" xlink:href="#BitstreamVeraSans-Roman-30"/>
      </g>
     </g>
    </g>
    <g id="ytick_8">
     <g id="line2d_28">
      <g>
       <use style="stroke:#000000;stroke-width:0.5;" x="108.0" xlink:href="#md7965d1ba0" y="129.6"/>
      </g>
     </g>
     <g id="line2d_29">
      <g>
       <use style="stroke:#000000;stroke-width:0.5;" x="777.6" xlink:href="#md9a1c1a7cd" y="129.6"/>
      </g>
     </g>
     <g id="text_14">
      <!-- 1400 -->
      <g transform="translate(75.575 132.91125)scale(0.12 -0.12)">
       <use xlink:href="#BitstreamVeraSans-Roman-31"/>
       <use x="63.623046875" xlink:href="#BitstreamVeraSans-Roman-34"/>
       <use x="127.24609375" xlink:href="#BitstreamVeraSans-Roman-30"/>
       <use x="190.869140625" xlink:href="#BitstreamVeraSans-Roman-30"/>
      </g>
     </g>
    </g>
    <g id="ytick_9">
     <g id="line2d_30">
      <g>
       <use style="stroke:#000000;stroke-width:0.5;" x="108.0" xlink:href="#md7965d1ba0" y="64.8"/>
      </g>
     </g>
     <g id="line2d_31">
      <g>
       <use style="stroke:#000000;stroke-width:0.5;" x="777.6" xlink:href="#md9a1c1a7cd" y="64.8"/>
      </g>
     </g>
     <g id="text_15">
      <!-- 1600 -->
      <g transform="translate(75.575 68.11125)scale(0.12 -0.12)">
       <use xlink:href="#BitstreamVeraSans-Roman-31"/>
       <use x="63.623046875" xlink:href="#BitstreamVeraSans-Roman-36"/>
       <use x="127.24609375" xlink:href="#BitstreamVeraSans-Roman-30"/>
       <use x="190.869140625" xlink:href="#BitstreamVeraSans-Roman-30"/>
      </g>
     </g>
    </g>
    <g id="text_16">
     <!-- particle numbers -->
     <defs>
      <path d="
M48.7812 52.5938
L48.7812 44.1875
Q44.9688 46.2969 41.1406 47.3438
Q37.3125 48.3906 33.4062 48.3906
Q24.6562 48.3906 19.8125 42.8438
Q14.9844 37.3125 14.9844 27.2969
Q14.9844 17.2812 19.8125 11.7344
Q24.6562 6.20312 33.4062 6.20312
Q37.3125 6.20312 41.1406 7.25
Q44.9688 8.29688 48.7812 10.4062
L48.7812 2.09375
Q45.0156 0.34375 40.9844 -0.53125
Q36.9688 -1.42188 32.4219 -1.42188
Q20.0625 -1.42188 12.7812 6.34375
Q5.51562 14.1094 5.51562 27.2969
Q5.51562 40.6719 12.8594 48.3281
Q20.2188 56 33.0156 56
Q37.1562 56 41.1094 55.1406
Q45.0625 54.2969 48.7812 52.5938" id="BitstreamVeraSans-Roman-63"/>
      <path d="
M48.6875 27.2969
Q48.6875 37.2031 44.6094 42.8438
Q40.5312 48.4844 33.4062 48.4844
Q26.2656 48.4844 22.1875 42.8438
Q18.1094 37.2031 18.1094 27.2969
Q18.1094 17.3906 22.1875 11.75
Q26.2656 6.10938 33.4062 6.10938
Q40.5312 6.10938 44.6094 11.75
Q48.6875 17.3906 48.6875 27.2969
M18.1094 46.3906
Q20.9531 51.2656 25.2656 53.625
Q29.5938 56 35.5938 56
Q45.5625 56 51.7812 48.0938
Q58.0156 40.1875 58.0156 27.2969
Q58.0156 14.4062 51.7812 6.48438
Q45.5625 -1.42188 35.5938 -1.42188
Q29.5938 -1.42188 25.2656 0.953125
Q20.9531 3.32812 18.1094 8.20312
L18.1094 0
L9.07812 0
L9.07812 75.9844
L18.1094 75.9844
z
" id="BitstreamVeraSans-Roman-62"/>
      <path d="
M9.42188 75.9844
L18.4062 75.9844
L18.4062 0
L9.42188 0
z
" id="BitstreamVeraSans-Roman-6c"/>
      <path d="
M41.1094 46.2969
Q39.5938 47.1719 37.8125 47.5781
Q36.0312 48 33.8906 48
Q26.2656 48 22.1875 43.0469
Q18.1094 38.0938 18.1094 28.8125
L18.1094 0
L9.07812 0
L9.07812 54.6875
L18.1094 54.6875
L18.1094 46.1875
Q20.9531 51.1719 25.4844 53.5781
Q30.0312 56 36.5312 56
Q37.4531 56 38.5781 55.875
Q39.7031 55.7656 41.0625 55.5156
z
" id="BitstreamVeraSans-Roman-72"/>
      <path d="
M54.8906 33.0156
L54.8906 0
L45.9062 0
L45.9062 32.7188
Q45.9062 40.4844 42.875 44.3281
Q39.8438 48.1875 33.7969 48.1875
Q26.5156 48.1875 22.3125 43.5469
Q18.1094 38.9219 18.1094 30.9062
L18.1094 0
L9.07812 0
L9.07812 54.6875
L18.1094 54.6875
L18.1094 46.1875
Q21.3438 51.125 25.7031 53.5625
Q30.0781 56 35.7969 56
Q45.2188 56 50.0469 50.1719
Q54.8906 44.3438 54.8906 33.0156" id="BitstreamVeraSans-Roman-6e"/>
      <path d="
M56.2031 29.5938
L56.2031 25.2031
L14.8906 25.2031
Q15.4844 15.9219 20.4844 11.0625
Q25.4844 6.20312 34.4219 6.20312
Q39.5938 6.20312 44.4531 7.46875
Q49.3125 8.73438 54.1094 11.2812
L54.1094 2.78125
Q49.2656 0.734375 44.1875 -0.34375
Q39.1094 -1.42188 33.8906 -1.42188
Q20.7969 -1.42188 13.1562 6.1875
Q5.51562 13.8125 5.51562 26.8125
Q5.51562 40.2344 12.7656 48.1094
Q20.0156 56 32.3281 56
Q43.3594 56 49.7812 48.8906
Q56.2031 41.7969 56.2031 29.5938
M47.2188 32.2344
Q47.125 39.5938 43.0938 43.9844
Q39.0625 48.3906 32.4219 48.3906
Q24.9062 48.3906 20.3906 44.1406
Q15.875 39.8906 15.1875 32.1719
z
" id="BitstreamVeraSans-Roman-65"/>
      <path d="
M34.2812 27.4844
Q23.3906 27.4844 19.1875 25
Q14.9844 22.5156 14.9844 16.5
Q14.9844 11.7188 18.1406 8.90625
Q21.2969 6.10938 26.7031 6.10938
Q34.1875 6.10938 38.7031 11.4062
Q43.2188 16.7031 43.2188 25.4844
L43.2188 27.4844
z

M52.2031 31.2031
L52.2031 0
L43.2188 0
L43.2188 8.29688
Q40.1406 3.32812 35.5469 0.953125
Q30.9531 -1.42188 24.3125 -1.42188
Q15.9219 -1.42188 10.9531 3.29688
Q6 8.01562 6 15.9219
Q6 25.1406 12.1719 29.8281
Q18.3594 34.5156 30.6094 34.5156
L43.2188 34.5156
L43.2188 35.4062
Q43.2188 41.6094 39.1406 45
Q35.0625 48.3906 27.6875 48.3906
Q23 48.3906 18.5469 47.2656
Q14.1094 46.1406 10.0156 43.8906
L10.0156 52.2031
Q14.9375 54.1094 19.5781 55.0469
Q24.2188 56 28.6094 56
Q40.4844 56 46.3438 49.8438
Q52.2031 43.7031 52.2031 31.2031" id="BitstreamVeraSans-Roman-61"/>
      <path d="
M8.5 21.5781
L8.5 54.6875
L17.4844 54.6875
L17.4844 21.9219
Q17.4844 14.1562 20.5 10.2656
Q23.5312 6.39062 29.5938 6.39062
Q36.8594 6.39062 41.0781 11.0312
Q45.3125 15.6719 45.3125 23.6875
L45.3125 54.6875
L54.2969 54.6875
L54.2969 0
L45.3125 0
L45.3125 8.40625
Q42.0469 3.42188 37.7188 1
Q33.4062 -1.42188 27.6875 -1.42188
Q18.2656 -1.42188 13.375 4.4375
Q8.5 10.2969 8.5 21.5781" id="BitstreamVeraSans-Roman-75"/>
      <path d="
M18.1094 8.20312
L18.1094 -20.7969
L9.07812 -20.7969
L9.07812 54.6875
L18.1094 54.6875
L18.1094 46.3906
Q20.9531 51.2656 25.2656 53.625
Q29.5938 56 35.5938 56
Q45.5625 56 51.7812 48.0938
Q58.0156 40.1875 58.0156 27.2969
Q58.0156 14.4062 51.7812 6.48438
Q45.5625 -1.42188 35.5938 -1.42188
Q29.5938 -1.42188 25.2656 0.953125
Q20.9531 3.32812 18.1094 8.20312
M48.6875 27.2969
Q48.6875 37.2031 44.6094 42.8438
Q40.5312 48.4844 33.4062 48.4844
Q26.2656 48.4844 22.1875 42.8438
Q18.1094 37.2031 18.1094 27.2969
Q18.1094 17.3906 22.1875 11.75
Q26.2656 6.10938 33.4062 6.10938
Q40.5312 6.10938 44.6094 11.75
Q48.6875 17.3906 48.6875 27.2969" id="BitstreamVeraSans-Roman-70"/>
      <path d="
M9.42188 54.6875
L18.4062 54.6875
L18.4062 0
L9.42188 0
z

M9.42188 75.9844
L18.4062 75.9844
L18.4062 64.5938
L9.42188 64.5938
z
" id="BitstreamVeraSans-Roman-69"/>
     </defs>
     <g transform="translate(68.079375 374.78625)rotate(-90.0)scale(0.12 -0.12)">
      <use xlink:href="#BitstreamVeraSans-Roman-70"/>
      <use x="63.4765625" xlink:href="#BitstreamVeraSans-Roman-61"/>
      <use x="124.755859375" xlink:href="#BitstreamVeraSans-Roman-72"/>
      <use x="165.869140625" xlink:href="#BitstreamVeraSans-Roman-74"/>
      <use x="205.078125" xlink:href="#BitstreamVeraSans-Roman-69"/>
      <use x="232.861328125" xlink:href="#BitstreamVeraSans-Roman-63"/>
      <use x="287.841796875" xlink:href="#BitstreamVeraSans-Roman-6c"/>
      <use x="315.625" xlink:href="#BitstreamVeraSans-Roman-65"/>
      <use x="377.1484375" xlink:href="#BitstreamVeraSans-Roman-20"/>
      <use x="408.935546875" xlink:href="#BitstreamVeraSans-Roman-6e"/>
      <use x="472.314453125" xlink:href="#BitstreamVeraSans-Roman-75"/>
      <use x="535.693359375" xlink:href="#BitstreamVeraSans-Roman-6d"/>
      <use x="633.10546875" xlink:href="#BitstreamVeraSans-Roman-62"/>
      <use x="696.58203125" xlink:href="#BitstreamVeraSans-Roman-65"/>
      <use x="758.10546875" xlink:href="#BitstreamVeraSans-Roman-72"/>
      <use x="799.21875" xlink:href="#BitstreamVeraSans-Roman-73"/>
     </g>
    </g>
   </g>
   <g id="legend_1">
    <g id="patch_7">
     <path d="
M697.504 101.224
L774.1 101.224
L774.1 68.3
L697.504 68.3
z
" style="fill:#ffffff;stroke:#000000;stroke-linejoin:miter;"/>
    </g>
    <g id="line2d_32">
     <path d="
M702.404 73.9689
L712.204 73.9689" style="fill:none;stroke:#ff0000;stroke-linecap:square;"/>
    </g>
    <g id="line2d_33"/>
    <g id="text_17">
     <!-- PKAcAMP2 el.0 -->
     <defs>
      <path d="
M9.8125 72.9062
L19.6719 72.9062
L19.6719 42.0938
L52.3906 72.9062
L65.0938 72.9062
L28.9062 38.9219
L67.6719 0
L54.6875 0
L19.6719 35.1094
L19.6719 0
L9.8125 0
z
" id="BitstreamVeraSans-Roman-4b"/>
      <path d="
M19.6719 64.7969
L19.6719 37.4062
L32.0781 37.4062
Q38.9688 37.4062 42.7188 40.9688
Q46.4844 44.5312 46.4844 51.125
Q46.4844 57.6719 42.7188 61.2344
Q38.9688 64.7969 32.0781 64.7969
z

M9.8125 72.9062
L32.0781 72.9062
Q44.3438 72.9062 50.6094 67.3594
Q56.8906 61.8125 56.8906 51.125
Q56.8906 40.3281 50.6094 34.8125
Q44.3438 29.2969 32.0781 29.2969
L19.6719 29.2969
L19.6719 0
L9.8125 0
z
" id="BitstreamVeraSans-Roman-50"/>
      <path d="
M34.1875 63.1875
L20.7969 26.9062
L47.6094 26.9062
z

M28.6094 72.9062
L39.7969 72.9062
L67.5781 0
L57.3281 0
L50.6875 18.7031
L17.8281 18.7031
L11.1875 0
L0.78125 0
z
" id="BitstreamVeraSans-Roman-41"/>
      <path d="
M10.6875 12.4062
L21 12.4062
L21 0
L10.6875 0
z
" id="BitstreamVeraSans-Roman-2e"/>
      <path d="
M9.8125 72.9062
L24.5156 72.9062
L43.1094 23.2969
L61.8125 72.9062
L76.5156 72.9062
L76.5156 0
L66.8906 0
L66.8906 64.0156
L48.0938 14.0156
L38.1875 14.0156
L19.3906 64.0156
L19.3906 0
L9.8125 0
z
" id="BitstreamVeraSans-Roman-4d"/>
     </defs>
     <g transform="translate(719.90359375 76.41890625)scale(0.07 -0.07)">
      <use xlink:href="#BitstreamVeraSans-Roman-50"/>
      <use x="60.302734375" xlink:href="#BitstreamVeraSans-Roman-4b"/>
      <use x="124.12890625" xlink:href="#BitstreamVeraSans-Roman-41"/>
      <use x="190.787109375" xlink:href="#BitstreamVeraSans-Roman-63"/>
      <use x="245.767578125" xlink:href="#BitstreamVeraSans-Roman-41"/>
      <use x="314.17578125" xlink:href="#BitstreamVeraSans-Roman-4d"/>
      <use x="400.455078125" xlink:href="#BitstreamVeraSans-Roman-50"/>
      <use x="460.7578125" xlink:href="#BitstreamVeraSans-Roman-32"/>
      <use x="524.380859375" xlink:href="#BitstreamVeraSans-Roman-20"/>
      <use x="556.16796875" xlink:href="#BitstreamVeraSans-Roman-65"/>
      <use x="617.69140625" xlink:href="#BitstreamVeraSans-Roman-6c"/>
      <use x="645.474609375" xlink:href="#BitstreamVeraSans-Roman-2e"/>
      <use x="677.26171875" xlink:href="#BitstreamVeraSans-Roman-30"/>
     </g>
    </g>
    <g id="line2d_34">
     <path d="
M702.404 84.2436
L712.204 84.2436" style="fill:none;stroke:#008000;stroke-linecap:square;"/>
    </g>
    <g id="line2d_35"/>
    <g id="text_18">
     <!-- PKAcAMP2 el.1 -->
     <g transform="translate(719.90359375 86.69359375)scale(0.07 -0.07)">
      <use xlink:href="#BitstreamVeraSans-Roman-50"/>
      <use x="60.302734375" xlink:href="#BitstreamVeraSans-Roman-4b"/>
      <use x="124.12890625" xlink:href="#BitstreamVeraSans-Roman-41"/>
      <use x="190.787109375" xlink:href="#BitstreamVeraSans-Roman-63"/>
      <use x="245.767578125" xlink:href="#BitstreamVeraSans-Roman-41"/>
      <use x="314.17578125" xlink:href="#BitstreamVeraSans-Roman-4d"/>
      <use x="400.455078125" xlink:href="#BitstreamVeraSans-Roman-50"/>
      <use x="460.7578125" xlink:href="#BitstreamVeraSans-Roman-32"/>
      <use x="524.380859375" xlink:href="#BitstreamVeraSans-Roman-20"/>
      <use x="556.16796875" xlink:href="#BitstreamVeraSans-Roman-65"/>
      <use x="617.69140625" xlink:href="#BitstreamVeraSans-Roman-6c"/>
      <use x="645.474609375" xlink:href="#BitstreamVeraSans-Roman-2e"/>
      <use x="677.26171875" xlink:href="#BitstreamVeraSans-Roman-31"/>
     </g>
    </g>
    <g id="line2d_36">
     <path d="
M702.404 94.5183
L712.204 94.5183" style="fill:none;stroke:#0000ff;stroke-linecap:square;"/>
    </g>
    <g id="line2d_37"/>
    <g id="text_19">
     <!-- PKAcAMP2 el.2 -->
     <g transform="translate(719.90359375 96.96828125)scale(0.07 -0.07)">
      <use xlink:href="#BitstreamVeraSans-Roman-50"/>
      <use x="60.302734375" xlink:href="#BitstreamVeraSans-Roman-4b"/>
      <use x="124.12890625" xlink:href="#BitstreamVeraSans-Roman-41"/>
      <use x="190.787109375" xlink:href="#BitstreamVeraSans-Roman-63"/>
      <use x="245.767578125" xlink:href="#BitstreamVeraSans-Roman-41"/>
      <use x="314.17578125" xlink:href="#BitstreamVeraSans-Roman-4d"/>
      <use x="400.455078125" xlink:href="#BitstreamVeraSans-Roman-50"/>
      <use x="460.7578125" xlink:href="#BitstreamVeraSans-Roman-32"/>
      <use x="524.380859375" xlink:href="#BitstreamVeraSans-Roman-20"/>
      <use x="556.16796875" xlink:href="#BitstreamVeraSans-Roman-65"/>
      <use x="617.69140625" xlink:href="#BitstreamVeraSans-Roman-6c"/>
      <use x="645.474609375" xlink:href="#BitstreamVeraSans-Roman-2e"/>
      <use x="677.26171875" xlink:href="#BitstreamVeraSans-Roman-32"/>
     </g>
    </g>
   </g>
  </g>
 </g>
 <defs>
  <clipPath id="p7ceb695115">
   <rect height="518.4" width="669.6" x="108.0" y="64.8"/>
  </clipPath>
 </defs>
</svg>
