<?xml version="1.0" encoding="utf-8" standalone="no"?>
<!DOCTYPE svg PUBLIC "-//W3C//DTD SVG 1.1//EN"
  "http://www.w3.org/Graphics/SVG/1.1/DTD/svg11.dtd">
<!-- Created with matplotlib (http://matplotlib.org/) -->
<svg height="648pt" version="1.1" viewBox="0 0 864 648" width="864pt" xmlns="http://www.w3.org/2000/svg" xmlns:xlink="http://www.w3.org/1999/xlink">
 <defs>
  <style type="text/css">
*{stroke-linecap:butt;stroke-linejoin:round;}
  </style>
 </defs>
 <g id="figure_1">
  <g id="patch_1">
   <path d="
M0 648
L864 648
L864 0
L0 0
z
" style="fill:#ffffff;"/>
  </g>
  <g id="axes_1">
   <g id="patch_2">
    <path d="
M108 583.2
L777.6 583.2
L777.6 64.8
L108 64.8
z
" style="fill:#ffffff;"/>
   </g>
   <g id="line2d_1">
    <path clip-path="url(#p7ceb695115)" d="
M108 583.2
L137.462 583.2
L138.132 581.719
L138.802 583.2
L141.48 583.2
L142.15 580.238
L142.819 580.238
L143.489 583.2
L144.158 583.2
L144.828 580.238
L145.498 583.2
L146.837 583.2
L147.506 580.238
L148.176 581.719
L150.854 581.719
L151.524 583.2
L152.194 581.719
L152.863 581.719
L153.533 583.2
L154.202 583.2
L154.872 581.719
L156.211 581.719
L156.881 583.2
L157.55 580.238
L158.22 578.757
L158.89 581.719
L159.559 580.238
L160.229 580.238
L160.898 581.719
L162.238 581.719
L162.907 583.2
L164.246 583.2
L164.916 581.719
L166.925 581.719
L167.594 580.238
L168.264 580.238
L168.934 581.719
L169.603 578.757
L170.273 581.719
L170.942 580.238
L171.612 581.719
L172.282 580.238
L172.951 583.2
L173.621 581.719
L174.29 578.757
L174.96 578.757
L175.63 577.275
L176.299 577.275
L176.969 583.2
L177.638 583.2
L178.308 581.719
L178.978 583.2
L179.647 583.2
L181.656 578.757
L182.326 581.719
L184.334 581.719
L185.004 580.238
L185.674 581.719
L186.343 580.238
L187.013 581.719
L187.682 580.238
L188.352 583.2
L189.022 580.238
L189.691 578.757
L190.361 581.719
L191.7 578.757
L192.37 578.757
L193.039 580.238
L193.709 580.238
L194.378 581.719
L195.048 580.238
L195.718 581.719
L196.387 581.719
L197.726 578.757
L198.396 581.719
L199.735 578.757
L200.405 580.238
L201.744 580.238
L202.414 583.2
L203.083 580.238
L203.753 583.2
L204.422 580.238
L205.092 580.238
L205.762 578.757
L206.431 580.238
L207.101 580.238
L207.77 583.2
L208.44 580.238
L209.11 580.238
L209.779 581.719
L211.118 581.719
L211.788 578.757
L212.458 578.757
L213.127 581.719
L214.466 581.719
L215.136 580.238
L216.475 580.238
L217.145 578.757
L217.814 580.238
L219.823 580.238
L220.493 577.275
L221.162 577.275
L223.841 583.2
L224.51 580.238
L225.18 580.238
L225.85 578.757
L226.519 580.238
L227.189 577.275
L227.858 577.275
L228.528 578.757
L229.198 575.794
L229.867 575.794
L230.537 578.757
L231.206 577.275
L233.215 581.719
L233.885 578.757
L234.554 578.757
L235.224 575.794
L235.894 574.313
L236.563 577.275
L237.233 575.794
L237.902 572.832
L238.572 580.238
L239.242 578.757
L239.911 581.719
L240.581 577.275
L241.25 575.794
L241.92 578.757
L242.59 578.757
L243.259 572.832
L243.929 574.313
L244.598 578.757
L245.268 577.275
L245.938 580.238
L246.607 581.719
L247.277 580.238
L247.946 575.794
L248.616 581.719
L249.286 578.757
L249.955 578.757
L250.625 581.719
L251.294 580.238
L251.964 581.719
L253.303 578.757
L253.973 580.238
L254.642 578.757
L255.982 581.719
L256.651 581.719
L257.321 578.757
L258.66 581.719
L259.33 574.313
L259.999 580.238
L260.669 580.238
L261.338 577.275
L262.008 580.238
L262.678 581.719
L264.017 578.757
L264.686 578.757
L265.356 577.275
L266.026 580.238
L266.695 580.238
L267.365 581.719
L268.034 580.238
L268.704 580.238
L269.374 581.719
L270.043 581.719
L270.713 580.238
L271.382 580.238
L272.052 578.757
L273.391 578.757
L274.061 574.313
L274.73 580.238
L275.4 581.719
L276.739 578.757
L277.409 581.719
L278.078 580.238
L278.748 575.794
L279.418 580.238
L280.087 580.238
L280.757 581.719
L281.426 578.757
L282.096 581.719
L282.766 583.2
L283.435 578.757
L284.105 580.238
L284.774 583.2
L286.783 583.2
L287.453 580.238
L288.792 580.238
L289.462 578.757
L290.131 580.238
L291.47 580.238
L292.14 577.275
L292.81 581.719
L293.479 580.238
L294.149 583.2
L294.818 578.757
L295.488 581.719
L296.158 580.238
L296.827 577.275
L297.497 578.757
L298.836 578.757
L299.506 581.719
L300.175 581.719
L300.845 583.2
L301.514 581.719
L302.184 583.2
L304.193 583.2
L304.862 581.719
L305.532 575.794
L306.202 580.238
L306.871 583.2
L307.541 581.719
L308.21 583.2
L308.88 578.757
L309.55 580.238
L310.219 583.2
L310.889 583.2
L311.558 580.238
L312.228 580.238
L312.898 581.719
L313.567 581.719
L314.237 580.238
L314.906 581.719
L315.576 581.719
L316.246 578.757
L316.915 581.719
L317.585 580.238
L318.924 580.238
L319.594 581.719
L320.263 581.719
L320.933 577.275
L321.602 580.238
L322.942 580.238
L323.611 581.719
L324.281 580.238
L324.95 581.719
L326.29 581.719
L326.959 580.238
L327.629 581.719
L328.298 578.757
L329.638 581.719
L330.977 581.719
L331.646 580.238
L332.316 583.2
L332.986 583.2
L333.655 580.238
L334.325 580.238
L334.994 578.757
L335.664 583.2
L336.334 583.2
L337.003 581.719
L337.673 578.757
L338.342 578.757
L339.012 580.238
L339.682 583.2
L341.021 580.238
L342.36 583.2
L343.699 583.2
L344.369 581.719
L345.038 581.719
L345.708 583.2
L346.378 580.238
L347.047 583.2
L349.726 583.2
L350.395 581.719
L351.065 583.2
L353.074 583.2
L353.743 581.719
L354.413 581.719
L355.082 583.2
L355.752 583.2
L356.422 581.719
L357.091 583.2
L357.761 583.2
L359.1 580.238
L359.77 581.719
L361.109 581.719
L361.778 580.238
L362.448 581.719
L363.787 581.719
L364.457 578.757
L365.126 580.238
L365.796 580.238
L366.466 583.2
L367.135 581.719
L368.474 581.719
L369.144 583.2
L369.814 578.757
L371.153 578.757
L371.822 580.238
L372.492 583.2
L373.162 578.757
L373.831 578.757
L374.501 581.719
L375.17 581.719
L375.84 580.238
L376.51 581.719
L378.518 581.719
L379.188 583.2
L379.858 583.2
L380.527 580.238
L381.197 583.2
L381.866 581.719
L382.536 577.275
L383.206 580.238
L383.875 581.719
L385.214 581.719
L385.884 578.757
L386.554 583.2
L387.893 583.2
L388.562 580.238
L389.232 581.719
L390.571 581.719
L391.241 583.2
L391.91 580.238
L392.58 581.719
L393.25 581.719
L394.589 578.757
L395.928 581.719
L397.267 581.719
L397.937 580.238
L399.276 580.238
L399.946 581.719
L400.615 581.719
L401.285 583.2
L401.954 581.719
L402.624 583.2
L403.294 578.757
L404.633 581.719
L405.302 580.238
L405.972 581.719
L406.642 578.757
L407.311 581.719
L407.981 583.2
L408.65 581.719
L409.32 578.757
L409.99 580.238
L410.659 580.238
L411.329 583.2
L411.998 583.2
L412.668 581.719
L413.338 581.719
L414.677 578.757
L415.346 581.719
L416.016 581.719
L416.686 580.238
L417.355 581.719
L418.025 580.238
L418.694 583.2
L419.364 581.719
L420.034 581.719
L420.703 580.238
L421.373 583.2
L422.042 583.2
L422.712 581.719
L423.382 583.2
L426.06 583.2
L426.73 581.719
L427.399 583.2
L428.069 581.719
L428.738 583.2
L429.408 581.719
L430.747 581.719
L431.417 583.2
L432.086 583.2
L432.756 580.238
L433.426 580.238
L434.765 583.2
L435.434 581.719
L436.104 583.2
L436.774 581.719
L437.443 581.719
L438.113 583.2
L440.122 583.2
L440.791 581.719
L441.461 583.2
L444.139 583.2
L444.809 581.719
L445.478 583.2
L446.148 583.2
L446.818 581.719
L447.487 581.719
L448.157 575.794
L448.826 574.313
L449.496 569.87
L450.166 571.351
L450.835 550.615
L451.505 546.171
L452.174 528.398
L452.844 549.134
L453.514 515.067
L454.183 512.105
L454.853 507.662
L455.522 513.586
L456.192 504.699
L456.862 497.294
L457.531 467.671
L458.201 491.369
L458.87 458.784
L459.54 472.114
L460.21 476.558
L460.879 452.859
L461.549 473.595
L462.218 483.963
L462.888 486.926
L463.558 476.558
L464.227 483.963
L464.897 441.01
L465.566 448.416
L466.236 472.114
L467.575 481.001
L468.245 476.558
L468.914 467.671
L469.584 454.341
L470.254 454.341
L470.923 469.152
L471.593 472.114
L472.262 461.746
L472.932 485.445
L473.602 470.633
L474.941 506.181
L475.61 448.416
L476.28 500.256
L476.95 445.454
L477.619 438.048
L478.289 466.19
L478.958 458.784
L479.628 445.454
L480.298 473.595
L480.967 470.633
L481.637 473.595
L482.306 489.888
L482.976 469.152
L483.646 467.671
L484.315 489.888
L484.985 488.407
L485.654 464.709
L486.324 481.001
L486.994 481.001
L487.663 460.265
L488.333 483.963
L489.002 473.595
L489.672 475.077
L490.342 486.926
L491.011 483.963
L491.681 483.963
L492.35 492.85
L493.69 489.888
L494.359 491.369
L495.029 507.662
L495.698 467.671
L496.368 469.152
L497.038 486.926
L497.707 494.331
L498.377 481.001
L499.046 460.265
L499.716 482.482
L500.386 489.888
L501.055 483.963
L501.725 491.369
L502.394 504.699
L503.064 488.407
L503.734 500.256
L504.403 497.294
L505.073 503.218
L506.412 491.369
L507.082 498.775
L507.751 497.294
L508.421 488.407
L509.09 491.369
L509.76 497.294
L510.43 495.813
L511.099 472.114
L511.769 492.85
L512.438 476.558
L513.108 495.813
L513.778 498.775
L515.117 489.888
L515.786 497.294
L516.456 501.737
L517.126 519.511
L517.795 515.067
L518.465 501.737
L519.134 495.813
L519.804 497.294
L520.474 492.85
L521.143 509.143
L521.813 486.926
L522.482 507.662
L523.152 470.633
L523.822 504.699
L525.161 469.152
L525.83 513.586
L526.5 488.407
L527.17 500.256
L527.839 498.775
L529.178 481.001
L529.848 504.699
L530.518 482.482
L531.187 472.114
L531.857 464.709
L533.196 498.775
L533.866 476.558
L534.535 479.52
L535.205 469.152
L535.874 482.482
L536.544 488.407
L537.214 510.624
L537.883 488.407
L538.553 488.407
L539.222 481.001
L539.892 500.256
L540.562 491.369
L541.231 498.775
L541.901 510.624
L542.57 494.331
L543.24 492.85
L543.91 513.586
L544.579 482.482
L545.249 497.294
L545.918 504.699
L546.588 481.001
L547.258 498.775
L547.927 495.813
L548.597 506.181
L549.266 519.511
L549.936 526.917
L550.606 494.331
L551.275 494.331
L551.945 482.482
L552.614 476.558
L553.954 501.737
L554.623 519.511
L555.293 500.256
L555.962 513.586
L556.632 482.482
L557.302 460.265
L557.971 492.85
L558.641 518.03
L559.31 513.586
L559.98 489.888
L560.65 497.294
L561.319 526.917
L561.989 503.218
L562.658 510.624
L563.328 497.294
L563.998 488.407
L564.667 519.511
L565.337 510.624
L566.006 516.549
L566.676 492.85
L567.346 486.926
L568.015 506.181
L568.685 504.699
L569.354 516.549
L570.024 495.813
L570.694 495.813
L571.363 500.256
L572.033 526.917
L572.702 518.03
L573.372 495.813
L574.042 491.369
L574.711 515.067
L575.381 518.03
L576.05 518.03
L576.72 489.888
L577.39 510.624
L578.059 498.775
L578.729 509.143
L579.398 498.775
L580.068 512.105
L580.738 509.143
L581.407 498.775
L582.077 516.549
L582.746 513.586
L583.416 506.181
L584.086 515.067
L584.755 516.549
L585.425 537.285
L586.094 520.992
L586.764 526.917
L587.434 497.294
L588.103 513.586
L588.773 518.03
L589.442 515.067
L590.112 507.662
L590.782 503.218
L591.451 518.03
L592.121 528.398
L592.79 522.473
L593.46 529.879
L594.13 516.549
L594.799 515.067
L595.469 504.699
L596.138 506.181
L596.808 518.03
L597.478 515.067
L598.147 504.699
L598.817 526.917
L599.486 522.473
L600.156 538.766
L600.826 513.586
L601.495 515.067
L602.165 515.067
L602.834 534.322
L603.504 513.586
L604.174 509.143
L604.843 515.067
L605.513 515.067
L606.182 535.803
L606.852 501.737
L607.522 504.699
L608.191 537.285
L609.53 519.511
L610.2 525.435
L610.87 522.473
L611.539 540.247
L612.209 509.143
L612.878 503.218
L613.548 522.473
L614.218 495.813
L614.887 522.473
L615.557 506.181
L616.896 528.398
L617.566 515.067
L618.235 510.624
L619.574 535.803
L620.244 512.105
L620.914 516.549
L621.583 534.322
L622.922 504.699
L623.592 544.69
L624.262 532.841
L624.931 528.398
L625.601 538.766
L626.27 510.624
L626.94 522.473
L627.61 507.662
L628.279 519.511
L628.949 534.322
L629.618 515.067
L630.288 532.841
L630.958 515.067
L631.627 510.624
L632.297 547.653
L632.966 528.398
L633.636 538.766
L634.306 489.888
L634.975 522.473
L635.645 532.841
L636.314 523.954
L636.984 522.473
L637.654 535.803
L638.323 532.841
L639.662 520.992
L640.332 534.322
L641.002 513.586
L641.671 534.322
L642.341 537.285
L643.01 541.728
L643.68 526.917
L644.35 532.841
L645.019 544.69
L645.689 538.766
L646.358 537.285
L647.028 541.728
L647.698 541.728
L648.367 544.69
L649.037 531.36
L650.376 537.285
L651.046 544.69
L652.385 550.615
L653.054 555.058
L653.724 540.247
L654.394 529.879
L655.063 523.954
L655.733 531.36
L656.402 528.398
L657.072 529.879
L657.742 538.766
L658.411 532.841
L659.081 535.803
L659.75 510.624
L660.42 535.803
L661.09 528.398
L661.759 541.728
L662.429 532.841
L663.098 531.36
L663.768 518.03
L665.107 543.209
L665.777 532.841
L666.446 534.322
L667.786 528.398
L668.455 532.841
L669.125 543.209
L669.794 534.322
L670.464 541.728
L671.134 528.398
L671.803 547.653
L672.473 547.653
L673.142 537.285
L673.812 523.954
L674.482 549.134
L675.151 529.879
L675.821 535.803
L676.49 535.803
L677.16 549.134
L677.83 550.615
L678.499 538.766
L679.169 535.803
L679.838 553.577
L680.508 540.247
L681.178 550.615
L681.847 558.021
L682.517 522.473
L683.186 541.728
L683.856 519.511
L684.526 531.36
L685.195 526.917
L685.865 516.549
L686.534 541.728
L687.204 534.322
L687.874 541.728
L688.543 556.539
L689.213 555.058
L689.882 559.502
L690.552 538.766
L691.222 549.134
L691.891 553.577
L692.561 556.539
L693.23 553.577
L693.9 538.766
L694.57 537.285
L695.239 555.058
L695.909 528.398
L696.578 544.69
L697.248 552.096
L697.918 534.322
L698.587 558.021
L699.257 556.539
L699.926 553.577
L700.596 543.209
L701.266 553.577
L701.935 540.247
L702.605 544.69
L703.274 541.728
L703.944 549.134
L704.614 546.171
L705.283 549.134
L706.622 543.209
L707.292 553.577
L707.962 559.502
L708.631 550.615
L709.301 547.653
L709.97 552.096
L710.64 538.766
L711.31 552.096
L711.979 549.134
L712.649 553.577
L713.318 555.058
L713.988 566.907
L714.658 555.058
L715.327 563.945
L715.997 556.539
L717.336 562.464
L718.006 550.615
L718.675 547.653
L719.345 553.577
L720.014 549.134
L720.684 552.096
L722.023 546.171
L722.693 547.653
L723.362 560.983
L724.032 565.426
L724.702 563.945
L725.371 555.058
L726.041 553.577
L727.38 553.577
L728.05 550.615
L728.719 569.87
L729.389 559.502
L730.058 563.945
L730.728 562.464
L731.398 571.351
L732.067 555.058
L732.737 563.945
L733.406 565.426
L734.076 565.426
L734.746 562.464
L735.415 563.945
L736.085 563.945
L736.754 569.87
L737.424 558.021
L738.094 552.096
L738.763 556.539
L739.433 559.502
L740.102 566.907
L740.772 562.464
L741.442 553.577
L742.111 562.464
L742.781 562.464
L743.45 553.577
L744.12 565.426
L744.79 559.502
L745.459 560.983
L746.129 560.983
L746.798 569.87
L747.468 558.021
L748.138 560.983
L748.807 559.502
L749.477 562.464
L750.146 559.502
L750.816 562.464
L751.486 572.832
L752.155 572.832
L752.825 568.389
L753.494 553.577
L754.164 563.945
L754.834 560.983
L755.503 563.945
L756.173 562.464
L756.842 568.389
L757.512 565.426
L758.182 558.021
L758.851 568.389
L759.521 569.87
L760.19 562.464
L760.86 566.907
L761.53 569.87
L762.199 565.426
L762.869 569.87
L764.208 560.983
L764.878 569.87
L765.547 566.907
L766.217 572.832
L766.886 549.134
L767.556 562.464
L768.226 556.539
L768.895 565.426
L769.565 559.502
L770.234 563.945
L770.904 562.464
L771.574 556.539
L772.243 566.907
L772.913 566.907
L773.582 568.389
L774.252 565.426
L774.922 574.313
L775.591 568.389
L776.261 566.907
L776.93 569.87
L777.6 569.87
L777.6 569.87" style="fill:none;stroke:#ff0000;stroke-linecap:square;"/>
   </g>
   <g id="line2d_2">
    <path clip-path="url(#p7ceb695115)" d="
M108 583.2
L135.454 583.2
L136.123 581.719
L137.462 581.719
L138.132 583.2
L138.802 581.719
L139.471 583.2
L140.141 580.238
L141.48 580.238
L142.15 583.2
L142.819 583.2
L143.489 580.238
L144.828 580.238
L145.498 577.275
L146.167 578.757
L146.837 578.757
L147.506 580.238
L148.176 578.757
L148.846 578.757
L149.515 580.238
L150.185 578.757
L150.854 578.757
L151.524 577.275
L152.194 580.238
L152.863 581.719
L154.202 578.757
L155.542 578.757
L156.211 580.238
L156.881 577.275
L157.55 580.238
L158.22 581.719
L158.89 578.757
L159.559 580.238
L162.238 580.238
L162.907 577.275
L164.916 577.275
L165.586 575.794
L166.255 575.794
L167.594 578.757
L168.264 574.313
L168.934 574.313
L169.603 572.832
L170.273 572.832
L170.942 574.313
L171.612 572.832
L172.282 577.275
L172.951 572.832
L173.621 574.313
L174.29 574.313
L174.96 577.275
L176.299 577.275
L176.969 574.313
L177.638 572.832
L178.308 572.832
L179.647 569.87
L180.317 572.832
L181.656 575.794
L182.326 574.313
L184.334 574.313
L185.004 575.794
L185.674 572.832
L186.343 575.794
L187.013 574.313
L187.682 575.794
L188.352 571.351
L189.022 575.794
L189.691 572.832
L190.361 574.313
L191.03 574.313
L191.7 577.275
L192.37 577.275
L193.039 575.794
L193.709 577.275
L194.378 575.794
L195.048 575.794
L195.718 577.275
L196.387 575.794
L197.057 575.794
L197.726 578.757
L198.396 574.313
L199.066 575.794
L199.735 580.238
L200.405 577.275
L201.074 578.757
L201.744 577.275
L202.414 577.275
L203.083 578.757
L203.753 574.313
L205.762 578.757
L206.431 577.275
L207.101 577.275
L207.77 569.87
L208.44 571.351
L209.11 574.313
L209.779 566.907
L210.449 569.87
L211.788 566.907
L212.458 569.87
L213.127 568.389
L213.797 568.389
L214.466 566.907
L215.136 566.907
L216.475 569.87
L217.145 566.907
L217.814 572.832
L218.484 572.832
L219.154 569.87
L219.823 572.832
L220.493 577.275
L221.162 571.351
L221.832 571.351
L222.502 574.313
L223.171 571.351
L223.841 566.907
L225.18 572.832
L225.85 574.313
L226.519 571.351
L227.189 575.794
L227.858 575.794
L228.528 568.389
L229.198 574.313
L230.537 571.351
L231.206 572.832
L231.876 566.907
L233.215 566.907
L233.885 565.426
L234.554 568.389
L235.224 566.907
L235.894 566.907
L236.563 562.464
L237.233 562.464
L237.902 566.907
L238.572 559.502
L239.242 565.426
L239.911 563.945
L240.581 563.945
L241.25 565.426
L242.59 565.426
L243.259 574.313
L243.929 568.389
L244.598 563.945
L245.268 565.426
L245.938 562.464
L246.607 560.983
L247.277 560.983
L247.946 565.426
L248.616 565.426
L249.286 566.907
L249.955 563.945
L251.294 563.945
L251.964 560.983
L253.303 566.907
L254.642 566.907
L255.312 569.87
L255.982 563.945
L256.651 563.945
L257.321 565.426
L257.99 563.945
L258.66 565.426
L259.33 572.832
L259.999 565.426
L261.338 571.351
L262.008 568.389
L264.017 572.832
L264.686 571.351
L265.356 572.832
L266.695 563.945
L267.365 565.426
L268.034 569.87
L268.704 572.832
L269.374 569.87
L270.043 571.351
L271.382 571.351
L272.052 572.832
L272.722 569.87
L273.391 571.351
L274.061 577.275
L274.73 572.832
L275.4 569.87
L276.07 569.87
L276.739 571.351
L277.409 568.389
L278.078 566.907
L278.748 572.832
L279.418 571.351
L280.087 572.832
L280.757 571.351
L281.426 574.313
L282.096 565.426
L282.766 565.426
L283.435 569.87
L284.105 571.351
L284.774 569.87
L285.444 575.794
L286.114 572.832
L286.783 571.351
L287.453 572.832
L288.122 571.351
L288.792 574.313
L289.462 574.313
L290.131 572.832
L290.801 572.832
L291.47 574.313
L292.14 577.275
L292.81 572.832
L293.479 574.313
L294.149 572.832
L294.818 577.275
L295.488 575.794
L296.158 575.794
L296.827 580.238
L297.497 578.757
L298.166 580.238
L298.836 577.275
L300.845 577.275
L301.514 580.238
L302.184 577.275
L302.854 578.757
L304.862 574.313
L305.532 581.719
L306.202 575.794
L306.871 574.313
L308.21 577.275
L308.88 580.238
L310.219 574.313
L310.889 574.313
L311.558 577.275
L312.228 578.757
L313.567 575.794
L314.906 578.757
L315.576 575.794
L316.246 580.238
L316.915 577.275
L317.585 575.794
L318.254 577.275
L318.924 574.313
L320.263 574.313
L320.933 578.757
L321.602 575.794
L322.942 578.757
L323.611 571.351
L324.281 574.313
L324.95 574.313
L325.62 572.832
L326.29 572.832
L326.959 577.275
L327.629 574.313
L328.298 577.275
L328.968 574.313
L329.638 572.832
L330.307 572.832
L330.977 574.313
L331.646 578.757
L332.316 574.313
L332.986 574.313
L334.325 577.275
L334.994 580.238
L336.334 574.313
L337.003 575.794
L337.673 580.238
L338.342 578.757
L339.012 578.757
L339.682 574.313
L340.351 575.794
L341.021 580.238
L341.69 575.794
L342.36 574.313
L343.699 577.275
L344.369 575.794
L345.708 575.794
L346.378 577.275
L347.047 575.794
L347.717 575.794
L349.056 578.757
L349.726 577.275
L350.395 578.757
L351.065 575.794
L351.734 578.757
L352.404 580.238
L353.074 574.313
L353.743 578.757
L354.413 575.794
L355.082 575.794
L355.752 577.275
L356.422 580.238
L357.091 577.275
L358.43 577.275
L359.1 578.757
L359.77 575.794
L361.109 575.794
L361.778 578.757
L362.448 577.275
L363.787 577.275
L364.457 578.757
L365.126 577.275
L365.796 577.275
L366.466 575.794
L367.135 577.275
L367.805 574.313
L368.474 574.313
L369.144 572.832
L369.814 577.275
L371.822 577.275
L372.492 572.832
L373.162 577.275
L373.831 577.275
L374.501 574.313
L375.17 574.313
L375.84 577.275
L376.51 574.313
L377.179 577.275
L377.849 575.794
L378.518 578.757
L379.188 574.313
L379.858 574.313
L380.527 578.757
L381.197 574.313
L381.866 575.794
L382.536 581.719
L383.206 577.275
L383.875 578.757
L384.545 575.794
L385.214 574.313
L386.554 577.275
L387.223 575.794
L387.893 575.794
L388.562 580.238
L389.232 577.275
L389.902 575.794
L390.571 577.275
L391.241 575.794
L391.91 578.757
L393.25 575.794
L393.919 578.757
L394.589 578.757
L395.928 575.794
L396.598 577.275
L397.267 577.275
L397.937 580.238
L398.606 577.275
L399.276 575.794
L399.946 577.275
L401.285 571.351
L401.954 574.313
L402.624 572.832
L403.294 578.757
L403.963 578.757
L404.633 574.313
L405.302 575.794
L405.972 575.794
L406.642 578.757
L407.981 572.832
L408.65 574.313
L409.32 578.757
L409.99 575.794
L410.659 577.275
L411.329 572.832
L411.998 572.832
L413.338 575.794
L414.007 578.757
L414.677 578.757
L415.346 574.313
L418.025 580.238
L420.034 575.794
L420.703 577.275
L422.042 574.313
L422.712 575.794
L423.382 574.313
L424.051 578.757
L424.721 575.794
L425.39 575.794
L426.06 577.275
L426.73 577.275
L427.399 574.313
L428.069 578.757
L428.738 574.313
L429.408 575.794
L430.078 578.757
L431.417 575.794
L432.086 575.794
L433.426 578.757
L434.095 578.757
L434.765 575.794
L436.104 575.794
L436.774 577.275
L437.443 575.794
L439.452 575.794
L440.122 580.238
L440.791 575.794
L441.461 575.794
L442.13 574.313
L442.8 577.275
L443.47 574.313
L444.139 577.275
L444.809 575.794
L445.478 572.832
L446.148 575.794
L446.818 577.275
L447.487 574.313
L448.157 572.832
L448.826 560.983
L449.496 552.096
L450.835 512.105
L452.174 476.558
L452.844 441.01
L453.514 427.68
L454.183 389.17
L454.853 384.727
L455.522 331.406
L456.192 341.774
L456.862 264.754
L457.531 258.83
L458.201 223.282
L458.87 236.613
L459.54 214.395
L460.21 198.103
L460.879 187.735
L461.549 168.48
L462.218 171.442
L462.888 168.48
L463.558 187.735
L464.227 168.48
L464.897 172.923
L465.566 128.489
L466.236 125.527
L466.906 158.112
L467.575 181.81
L468.245 175.886
L468.914 165.518
L469.584 124.046
L470.254 135.895
L470.923 95.904
L472.262 116.64
L472.932 122.565
L473.602 110.715
L474.271 127.008
L474.941 122.565
L475.61 153.669
L476.28 109.234
L476.95 147.744
L477.619 143.301
L478.289 92.9417
L478.958 98.8663
L479.628 107.753
L480.298 155.15
L480.967 140.338
L481.637 146.263
L482.306 144.782
L483.646 156.631
L484.315 158.112
L484.985 165.518
L485.654 162.555
L486.324 141.819
L486.994 115.159
L487.663 122.565
L488.333 121.083
L489.002 140.338
L489.672 122.565
L490.342 134.414
L491.011 153.669
L491.681 164.037
L492.35 190.697
L493.02 235.131
L494.359 181.81
L495.029 168.48
L495.698 214.395
L497.038 166.999
L497.707 189.216
L498.377 190.697
L499.046 221.801
L499.716 236.613
L500.386 212.914
L501.055 209.952
L501.725 183.291
L502.394 187.735
L503.064 186.254
L503.734 220.32
L504.403 212.914
L505.073 198.103
L505.742 218.839
L506.412 215.877
L507.082 209.952
L507.751 159.593
L508.421 181.81
L509.09 189.216
L509.76 159.593
L510.43 144.782
L511.099 144.782
L511.769 158.112
L512.438 164.037
L513.108 187.735
L513.778 165.518
L514.447 186.254
L515.117 166.999
L515.786 187.735
L516.456 195.141
L517.126 209.952
L517.795 236.613
L518.465 230.688
L519.134 209.952
L519.804 220.32
L520.474 252.905
L521.143 226.245
L522.482 201.065
L523.152 220.32
L523.822 220.32
L524.491 226.245
L525.161 238.094
L525.83 229.207
L526.5 235.131
L527.17 248.462
L527.839 241.056
L528.509 226.245
L529.178 208.471
L529.848 217.358
L530.518 212.914
L531.187 201.065
L531.857 226.245
L532.526 245.499
L533.196 227.726
L533.866 239.575
L534.535 260.311
L535.205 248.462
L535.874 258.83
L536.544 241.056
L537.214 233.65
L537.883 254.386
L538.553 242.537
L539.222 263.273
L539.892 289.934
L540.562 297.339
L541.231 279.566
L541.901 246.981
L542.57 251.424
L543.24 261.792
L543.91 252.905
L544.579 270.679
L545.249 269.198
L546.588 214.395
L547.258 215.877
L547.927 244.018
L548.597 252.905
L549.266 257.349
L549.936 246.981
L550.606 239.575
L551.275 239.575
L551.945 261.792
L553.284 235.131
L553.954 244.018
L554.623 260.311
L555.293 289.934
L555.962 273.641
L556.632 275.122
L557.302 273.641
L557.971 278.085
L558.641 272.16
L559.31 229.207
L559.98 275.122
L560.65 267.717
L561.319 252.905
L561.989 270.679
L562.658 285.49
L563.328 304.745
L563.998 284.009
L564.667 270.679
L565.337 276.603
L566.006 297.339
L566.676 292.896
L567.346 276.603
L568.015 276.603
L568.685 261.792
L569.354 266.235
L570.024 286.971
L570.694 278.085
L571.363 279.566
L572.033 269.198
L572.702 261.792
L573.372 300.302
L574.042 284.009
L574.711 263.273
L575.381 291.415
L576.05 301.783
L576.72 288.453
L577.39 279.566
L578.059 239.575
L578.729 232.169
L579.398 269.198
L580.068 267.717
L580.738 242.537
L581.407 261.792
L582.077 245.499
L582.746 279.566
L583.416 288.453
L584.086 276.603
L584.755 297.339
L585.425 295.858
L586.094 284.009
L586.764 282.528
L587.434 301.783
L588.773 298.821
L589.442 312.151
L590.112 340.293
L590.782 340.293
L591.451 356.585
L592.121 361.029
L592.79 362.51
L593.46 328.443
L594.13 340.293
L595.469 325.481
L596.138 334.368
L596.808 316.594
L597.478 313.632
L598.147 328.443
L598.817 335.849
L599.486 355.104
L600.156 358.066
L601.495 337.33
L602.165 344.736
L602.834 334.368
L603.504 350.661
L604.174 349.179
L604.843 340.293
L605.513 337.33
L606.182 316.594
L606.852 319.557
L607.522 309.189
L608.191 294.377
L608.861 325.481
L609.53 343.255
L610.2 356.585
L610.87 347.698
L611.539 322.519
L612.209 301.783
L612.878 291.415
L613.548 297.339
L614.218 313.632
L614.887 303.264
L615.557 334.368
L616.226 344.736
L616.896 335.849
L617.566 341.774
L618.235 358.066
L618.905 322.519
L619.574 318.075
L620.244 350.661
L620.914 338.811
L621.583 335.849
L622.253 366.953
L622.922 341.774
L623.592 346.217
L624.262 368.434
L624.931 350.661
L625.601 344.736
L626.27 343.255
L626.94 355.104
L627.61 334.368
L628.279 335.849
L628.949 306.226
L629.618 316.594
L630.288 318.075
L630.958 334.368
L631.627 341.774
L632.297 324
L632.966 316.594
L633.636 319.557
L634.306 341.774
L634.975 325.481
L635.645 355.104
L636.314 350.661
L636.984 363.991
L637.654 366.953
L638.323 359.547
L638.993 350.661
L639.662 356.585
L640.332 338.811
L641.671 371.397
L642.341 372.878
L643.01 372.878
L643.68 378.802
L644.35 352.142
L645.019 363.991
L645.689 366.953
L646.358 343.255
L647.028 349.179
L647.698 372.878
L648.367 377.321
L649.037 368.434
L649.706 369.915
L650.376 395.095
L651.046 396.576
L651.715 395.095
L652.385 396.576
L653.054 399.538
L653.724 399.538
L654.394 401.019
L655.063 386.208
L655.733 380.283
L656.402 356.585
L657.742 368.434
L658.411 371.397
L659.081 349.179
L659.75 366.953
L660.42 366.953
L661.09 358.066
L662.429 398.057
L663.098 403.982
L663.768 395.095
L664.438 380.283
L665.107 389.17
L665.777 390.651
L666.446 396.576
L667.116 403.982
L667.786 421.755
L668.455 409.906
L669.125 392.133
L669.794 386.208
L670.464 402.501
L671.134 414.35
L671.803 409.906
L672.473 409.906
L673.142 402.501
L673.812 408.425
L674.482 405.463
L675.151 395.095
L675.821 403.982
L676.49 393.614
L677.16 389.17
L677.83 402.501
L678.499 395.095
L679.169 392.133
L679.838 386.208
L680.508 392.133
L681.178 392.133
L681.847 387.689
L682.517 427.68
L683.186 423.237
L683.856 424.718
L684.526 420.274
L685.195 421.755
L685.865 427.68
L686.534 426.199
L687.204 439.529
L687.874 445.454
L688.543 433.605
L689.213 458.784
L691.222 432.123
L691.891 435.086
L692.561 436.567
L693.23 442.491
L693.9 426.199
L694.57 427.68
L695.239 414.35
L695.909 445.454
L696.578 430.642
L697.248 429.161
L697.918 439.529
L698.587 429.161
L699.257 423.237
L699.926 426.199
L700.596 427.68
L701.266 430.642
L701.935 445.454
L702.605 452.859
L703.274 433.605
L703.944 438.048
L704.614 445.454
L705.283 438.048
L705.953 427.68
L706.622 430.642
L707.292 448.416
L707.962 445.454
L708.631 446.935
L709.97 466.19
L710.64 469.152
L711.31 463.227
L711.979 466.19
L712.649 463.227
L713.318 472.114
L713.988 461.746
L714.658 464.709
L715.327 475.077
L715.997 463.227
L716.666 457.303
L717.336 445.454
L718.006 457.303
L718.675 449.897
L719.345 430.642
L720.014 443.973
L720.684 445.454
L721.354 445.454
L722.023 460.265
L722.693 463.227
L723.362 483.963
L724.032 478.039
L724.702 489.888
L725.371 486.926
L726.041 491.369
L726.71 483.963
L727.38 481.001
L728.05 476.558
L728.719 470.633
L729.389 486.926
L730.058 489.888
L730.728 489.888
L731.398 482.482
L732.067 488.407
L732.737 486.926
L733.406 479.52
L734.076 473.595
L734.746 469.152
L736.085 494.331
L736.754 482.482
L737.424 488.407
L738.094 483.963
L738.763 488.407
L739.433 488.407
L740.102 489.888
L740.772 495.813
L741.442 510.624
L742.111 498.775
L742.781 515.067
L743.45 520.992
L744.12 506.181
L744.79 519.511
L745.459 504.699
L746.129 503.218
L746.798 500.256
L747.468 513.586
L748.138 495.813
L748.807 507.662
L749.477 504.699
L750.146 497.294
L750.816 506.181
L751.486 498.775
L752.825 501.737
L753.494 515.067
L754.834 518.03
L755.503 510.624
L756.173 501.737
L756.842 503.218
L758.182 518.03
L758.851 503.218
L759.521 504.699
L760.19 519.511
L760.86 509.143
L761.53 513.586
L762.199 526.917
L762.869 510.624
L763.538 503.218
L764.208 506.181
L764.878 504.699
L765.547 501.737
L766.217 501.737
L766.886 528.398
L767.556 522.473
L768.226 519.511
L768.895 510.624
L769.565 519.511
L770.234 516.549
L770.904 518.03
L771.574 523.954
L772.913 518.03
L773.582 528.398
L774.252 522.473
L774.922 520.992
L775.591 528.398
L776.261 528.398
L776.93 520.992
L777.6 531.36
L777.6 531.36" style="fill:none;stroke:#008000;stroke-linecap:square;"/>
   </g>
   <g id="line2d_3">
    <path clip-path="url(#p7ceb695115)" d="
M108 583.2
L134.784 583.2
L135.454 580.238
L136.123 581.719
L138.802 581.719
L139.471 580.238
L140.141 583.2
L145.498 583.2
L146.167 581.719
L146.837 581.719
L147.506 583.2
L148.846 583.2
L149.515 581.719
L150.185 583.2
L151.524 583.2
L152.863 580.238
L153.533 580.238
L154.872 583.2
L155.542 583.2
L156.211 581.719
L156.881 583.2
L160.229 583.2
L160.898 581.719
L162.238 581.719
L162.907 583.2
L164.246 583.2
L164.916 581.719
L165.586 583.2
L166.255 583.2
L166.925 581.719
L167.594 578.757
L168.264 580.238
L168.934 578.757
L169.603 583.2
L170.273 580.238
L170.942 580.238
L171.612 581.719
L172.282 578.757
L172.951 580.238
L173.621 580.238
L174.29 583.2
L174.96 580.238
L175.63 581.719
L176.299 581.719
L176.969 578.757
L178.308 581.719
L178.978 581.719
L179.647 583.2
L180.317 581.719
L181.656 581.719
L182.326 580.238
L185.004 580.238
L185.674 581.719
L186.343 580.238
L187.013 581.719
L187.682 581.719
L189.022 578.757
L189.691 583.2
L190.361 578.757
L191.03 583.2
L191.7 581.719
L194.378 581.719
L195.048 583.2
L195.718 580.238
L197.057 583.2
L197.726 581.719
L198.396 583.2
L199.066 583.2
L199.735 580.238
L200.405 581.719
L201.074 581.719
L201.744 583.2
L202.414 580.238
L203.083 578.757
L204.422 581.719
L205.092 577.275
L206.431 577.275
L207.101 574.313
L207.77 578.757
L208.44 580.238
L209.11 577.275
L209.779 583.2
L210.449 580.238
L211.788 583.2
L212.458 580.238
L213.127 578.757
L213.797 578.757
L215.136 581.719
L216.475 578.757
L217.145 583.2
L217.814 577.275
L218.484 577.275
L219.154 580.238
L220.493 577.275
L221.162 580.238
L221.832 578.757
L222.502 575.794
L223.841 581.719
L224.51 581.719
L225.18 578.757
L225.85 578.757
L227.189 575.794
L227.858 575.794
L228.528 578.757
L229.198 577.275
L229.867 578.757
L230.537 577.275
L231.206 574.313
L231.876 578.757
L233.215 578.757
L233.885 583.2
L234.554 580.238
L235.224 581.719
L235.894 580.238
L237.233 583.2
L237.902 581.719
L238.572 581.719
L239.242 577.275
L239.911 575.794
L240.581 580.238
L241.25 580.238
L241.92 577.275
L242.59 577.275
L243.259 574.313
L243.929 580.238
L246.607 580.238
L247.277 581.719
L247.946 581.719
L248.616 578.757
L249.286 580.238
L249.955 583.2
L250.625 580.238
L251.964 583.2
L253.973 578.757
L254.642 580.238
L255.312 575.794
L255.982 580.238
L256.651 580.238
L257.321 581.719
L257.99 581.719
L258.66 578.757
L259.33 578.757
L259.999 580.238
L260.669 577.275
L262.678 577.275
L263.347 578.757
L264.017 578.757
L264.686 580.238
L265.356 580.238
L266.695 583.2
L268.034 580.238
L268.704 577.275
L269.374 578.757
L270.043 577.275
L270.713 580.238
L271.382 581.719
L272.052 581.719
L272.722 583.2
L275.4 577.275
L276.07 578.757
L277.409 578.757
L278.078 581.719
L278.748 581.719
L279.418 578.757
L280.087 577.275
L281.426 577.275
L282.096 583.2
L282.766 581.719
L283.435 581.719
L284.105 580.238
L284.774 581.719
L285.444 575.794
L286.114 578.757
L288.122 583.2
L288.792 580.238
L290.801 580.238
L291.47 581.719
L293.479 581.719
L294.149 583.2
L294.818 583.2
L295.488 581.719
L296.158 583.2
L296.827 581.719
L297.497 581.719
L298.166 580.238
L298.836 583.2
L299.506 580.238
L300.175 580.238
L301.514 577.275
L302.184 578.757
L302.854 577.275
L304.193 580.238
L304.862 583.2
L305.532 581.719
L306.202 583.2
L306.871 581.719
L307.541 581.719
L308.21 578.757
L309.55 581.719
L311.558 581.719
L312.228 580.238
L313.567 583.2
L314.237 583.2
L314.906 580.238
L315.576 583.2
L316.246 581.719
L317.585 581.719
L318.254 580.238
L318.924 583.2
L319.594 581.719
L320.263 581.719
L320.933 580.238
L321.602 580.238
L322.942 577.275
L323.611 583.2
L324.281 583.2
L324.95 581.719
L325.62 583.2
L326.29 583.2
L326.959 580.238
L327.629 581.719
L328.298 581.719
L328.968 583.2
L330.307 583.2
L331.646 580.238
L332.316 581.719
L332.986 581.719
L333.655 583.2
L334.325 583.2
L335.664 580.238
L336.334 583.2
L337.003 583.2
L337.673 581.719
L338.342 583.2
L339.012 581.719
L339.682 583.2
L340.351 583.2
L341.021 580.238
L341.69 583.2
L342.36 583.2
L343.699 580.238
L344.369 583.2
L345.038 583.2
L345.708 581.719
L346.378 583.2
L347.047 581.719
L347.717 581.719
L349.056 578.757
L349.726 580.238
L350.395 580.238
L351.065 581.719
L351.734 578.757
L352.404 577.275
L353.074 583.2
L353.743 580.238
L354.413 583.2
L355.082 583.2
L356.422 580.238
L357.761 580.238
L358.43 581.719
L359.1 581.719
L359.77 583.2
L361.109 583.2
L361.778 581.719
L363.787 581.719
L364.457 583.2
L365.796 583.2
L366.466 581.719
L367.135 581.719
L367.805 583.2
L371.153 583.2
L371.822 581.719
L372.492 583.2
L375.17 583.2
L375.84 581.719
L376.51 583.2
L377.179 580.238
L377.849 581.719
L378.518 578.757
L379.188 581.719
L379.858 581.719
L380.527 580.238
L381.197 581.719
L381.866 581.719
L382.536 580.238
L383.206 581.719
L383.875 578.757
L384.545 581.719
L385.214 583.2
L385.884 583.2
L386.554 580.238
L387.223 581.719
L387.893 581.719
L388.562 580.238
L389.902 583.2
L390.571 581.719
L392.58 581.719
L393.25 583.2
L393.919 581.719
L394.589 583.2
L395.928 583.2
L397.937 578.757
L399.276 581.719
L399.946 578.757
L400.615 581.719
L401.285 583.2
L401.954 581.719
L402.624 581.719
L403.963 578.757
L404.633 581.719
L405.302 581.719
L405.972 580.238
L407.311 580.238
L407.981 581.719
L408.65 581.719
L409.32 580.238
L409.99 581.719
L410.659 580.238
L411.329 581.719
L412.668 581.719
L414.007 578.757
L415.346 581.719
L416.016 580.238
L418.025 580.238
L418.694 578.757
L419.364 581.719
L420.034 583.2
L420.703 583.2
L421.373 581.719
L422.042 583.2
L423.382 583.2
L424.051 578.757
L424.721 581.719
L425.39 581.719
L426.06 580.238
L427.399 583.2
L428.069 580.238
L428.738 583.2
L429.408 583.2
L430.078 580.238
L430.747 581.719
L432.086 581.719
L432.756 583.2
L434.095 580.238
L435.434 583.2
L436.104 581.719
L436.774 581.719
L437.443 583.2
L438.113 581.719
L439.452 581.719
L440.122 577.275
L440.791 583.2
L441.461 581.719
L442.13 583.2
L442.8 580.238
L443.47 581.719
L444.139 578.757
L444.809 581.719
L445.478 583.2
L446.818 577.275
L447.487 583.2
L448.157 581.719
L448.826 568.389
L449.496 563.945
L450.166 565.426
L450.835 558.021
L451.505 559.502
L452.174 547.653
L452.844 541.728
L453.514 523.954
L454.183 525.435
L454.853 492.85
L455.522 489.888
L456.192 473.595
L456.862 497.294
L457.531 481.001
L458.87 475.077
L459.54 476.558
L460.21 482.482
L460.879 469.152
L461.549 481.001
L462.218 479.52
L462.888 461.746
L463.558 466.19
L464.227 489.888
L464.897 445.454
L465.566 489.888
L466.236 479.52
L466.906 476.558
L467.575 475.077
L468.245 443.973
L468.914 443.973
L469.584 489.888
L470.254 485.445
L470.923 476.558
L471.593 473.595
L472.262 446.935
L472.932 445.454
L473.602 476.558
L474.271 478.039
L474.941 483.963
L475.61 497.294
L476.28 500.256
L476.95 482.482
L477.619 479.52
L478.289 510.624
L478.958 482.482
L479.628 475.077
L480.298 461.746
L480.967 486.926
L481.637 457.303
L482.306 479.52
L482.976 466.19
L484.315 478.039
L484.985 482.482
L485.654 488.407
L486.324 479.52
L486.994 473.595
L487.663 457.303
L488.333 476.558
L489.002 455.822
L490.342 485.445
L491.011 441.01
L491.681 485.445
L492.35 483.963
L493.02 489.888
L493.69 472.114
L494.359 470.633
L495.029 503.218
L495.698 478.039
L496.368 503.218
L497.038 491.369
L497.707 473.595
L498.377 481.001
L499.046 466.19
L499.716 476.558
L500.386 481.001
L501.055 472.114
L501.725 478.039
L502.394 485.445
L503.064 506.181
L503.734 472.114
L504.403 504.699
L505.073 507.662
L505.742 485.445
L506.412 494.331
L507.082 483.963
L507.751 525.435
L508.421 515.067
L509.09 495.813
L509.76 486.926
L511.769 482.482
L512.438 472.114
L513.108 501.737
L513.778 501.737
L514.447 475.077
L515.117 488.407
L516.456 494.331
L517.126 475.077
L517.795 500.256
L518.465 488.407
L519.134 491.369
L519.804 481.001
L520.474 501.737
L521.143 507.662
L521.813 483.963
L522.482 492.85
L523.152 512.105
L523.822 489.888
L524.491 515.067
L525.161 519.511
L525.83 512.105
L526.5 509.143
L527.17 472.114
L527.839 509.143
L528.509 473.595
L529.178 501.737
L529.848 512.105
L530.518 488.407
L531.187 498.775
L531.857 504.699
L532.526 466.19
L533.196 491.369
L534.535 494.331
L535.205 504.699
L535.874 488.407
L536.544 515.067
L537.214 513.586
L537.883 492.85
L538.553 486.926
L539.222 491.369
L539.892 506.181
L540.562 513.586
L541.231 497.294
L541.901 500.256
L542.57 512.105
L543.24 507.662
L543.91 522.473
L544.579 510.624
L545.249 503.218
L545.918 500.256
L546.588 504.699
L547.258 507.662
L547.927 495.813
L548.597 498.775
L549.266 491.369
L549.936 510.624
L550.606 500.256
L551.275 482.482
L551.945 476.558
L552.614 483.963
L553.284 512.105
L553.954 526.917
L555.293 509.143
L555.962 501.737
L556.632 498.775
L557.302 476.558
L557.971 486.926
L558.641 491.369
L559.31 516.549
L559.98 513.586
L560.65 515.067
L561.319 494.331
L561.989 504.699
L563.328 483.963
L563.998 486.926
L564.667 492.85
L565.337 509.143
L566.006 489.888
L566.676 509.143
L567.346 520.992
L568.015 506.181
L568.685 482.482
L569.354 498.775
L570.024 510.624
L570.694 494.331
L571.363 501.737
L572.033 501.737
L572.702 504.699
L573.372 488.407
L574.711 515.067
L575.381 509.143
L576.05 522.473
L576.72 523.954
L577.39 497.294
L578.729 512.105
L579.398 497.294
L580.068 522.473
L581.407 495.813
L582.077 510.624
L582.746 489.888
L583.416 485.445
L584.086 510.624
L584.755 512.105
L586.764 512.105
L587.434 529.879
L588.103 507.662
L588.773 519.511
L589.442 537.285
L590.112 522.473
L590.782 525.435
L591.451 501.737
L592.121 516.549
L592.79 515.067
L593.46 522.473
L594.13 535.803
L594.799 538.766
L595.469 556.539
L596.138 523.954
L596.808 520.992
L597.478 512.105
L598.147 525.435
L598.817 518.03
L599.486 509.143
L600.156 520.992
L600.826 509.143
L601.495 503.218
L602.165 507.662
L602.834 515.067
L603.504 528.398
L604.174 522.473
L604.843 513.586
L605.513 529.879
L606.182 525.435
L606.852 518.03
L607.522 518.03
L608.191 538.766
L608.861 507.662
L609.53 537.285
L610.2 512.105
L610.87 510.624
L612.209 532.841
L612.878 532.841
L613.548 520.992
L614.218 522.473
L614.887 537.285
L615.557 520.992
L616.226 535.803
L616.896 541.728
L617.566 535.803
L618.235 518.03
L618.905 531.36
L619.574 531.36
L620.244 525.435
L620.914 531.36
L621.583 519.511
L622.253 523.954
L622.922 513.586
L623.592 519.511
L624.262 520.992
L624.931 538.766
L625.601 513.586
L626.27 523.954
L626.94 520.992
L627.61 515.067
L628.279 528.398
L628.949 520.992
L629.618 529.879
L630.288 531.36
L630.958 518.03
L631.627 515.067
L632.297 483.963
L632.966 501.737
L633.636 510.624
L634.306 513.586
L634.975 520.992
L635.645 518.03
L636.314 540.247
L636.984 523.954
L637.654 504.699
L638.323 538.766
L638.993 531.36
L639.662 520.992
L640.332 535.803
L641.002 546.171
L641.671 512.105
L642.341 513.586
L643.01 519.511
L643.68 534.322
L644.35 537.285
L645.019 523.954
L645.689 498.775
L646.358 537.285
L647.028 532.841
L647.698 512.105
L648.367 520.992
L649.037 546.171
L649.706 540.247
L650.376 516.549
L651.046 541.728
L651.715 534.322
L652.385 540.247
L653.054 525.435
L653.724 528.398
L654.394 538.766
L655.063 529.879
L656.402 523.954
L657.072 537.285
L657.742 518.03
L658.411 509.143
L659.081 513.586
L659.75 538.766
L660.42 535.803
L661.09 547.653
L661.759 538.766
L662.429 549.134
L663.098 549.134
L663.768 546.171
L664.438 555.058
L665.107 528.398
L665.777 531.36
L666.446 531.36
L667.116 546.171
L667.786 544.69
L668.455 525.435
L669.125 526.917
L669.794 549.134
L670.464 525.435
L671.134 540.247
L671.803 547.653
L672.473 532.841
L673.142 532.841
L673.812 549.134
L674.482 515.067
L675.151 523.954
L675.821 529.879
L676.49 534.322
L677.16 541.728
L677.83 540.247
L678.499 540.247
L679.169 546.171
L679.838 534.322
L680.508 547.653
L681.178 523.954
L681.847 529.879
L682.517 534.322
L683.186 532.841
L683.856 538.766
L684.526 520.992
L685.195 529.879
L686.534 549.134
L687.204 552.096
L687.874 550.615
L688.543 558.021
L689.213 546.171
L689.882 550.615
L690.552 543.209
L691.222 541.728
L691.891 534.322
L692.561 541.728
L693.23 528.398
L693.9 547.653
L694.57 540.247
L695.239 550.615
L695.909 550.615
L696.578 559.502
L697.248 547.653
L697.918 553.577
L698.587 553.577
L699.257 549.134
L699.926 537.285
L700.596 543.209
L701.266 556.539
L701.935 549.134
L702.605 555.058
L703.274 562.464
L703.944 553.577
L704.614 565.426
L705.953 546.171
L707.292 549.134
L707.962 555.058
L708.631 552.096
L709.301 553.577
L709.97 546.171
L710.64 560.983
L711.31 556.539
L711.979 546.171
L712.649 562.464
L713.318 560.983
L713.988 565.426
L715.327 541.728
L715.997 552.096
L716.666 549.134
L717.336 559.502
L718.006 555.058
L718.675 560.983
L719.345 549.134
L720.014 552.096
L720.684 546.171
L721.354 553.577
L722.023 546.171
L722.693 555.058
L723.362 552.096
L724.032 568.389
L724.702 556.539
L725.371 562.464
L726.041 560.983
L726.71 558.021
L727.38 558.021
L728.05 565.426
L728.719 571.351
L729.389 565.426
L730.058 555.058
L730.728 540.247
L731.398 553.577
L732.067 555.058
L732.737 547.653
L733.406 553.577
L734.076 552.096
L734.746 556.539
L735.415 558.021
L736.754 555.058
L737.424 552.096
L738.094 562.464
L740.102 553.577
L740.772 562.464
L741.442 565.426
L742.111 574.313
L742.781 560.983
L743.45 559.502
L744.12 563.945
L744.79 562.464
L745.459 566.907
L746.129 563.945
L746.798 569.87
L747.468 565.426
L748.138 571.351
L748.807 563.945
L749.477 566.907
L750.146 568.389
L750.816 563.945
L751.486 560.983
L752.155 562.464
L752.825 562.464
L753.494 572.832
L754.164 574.313
L754.834 568.389
L755.503 566.907
L756.173 569.87
L756.842 571.351
L757.512 568.389
L758.182 568.389
L758.851 560.983
L760.19 569.87
L760.86 566.907
L761.53 565.426
L762.199 556.539
L762.869 563.945
L763.538 572.832
L764.208 571.351
L764.878 565.426
L765.547 571.351
L766.217 574.313
L766.886 562.464
L767.556 563.945
L768.226 575.794
L768.895 565.426
L769.565 568.389
L770.234 569.87
L770.904 565.426
L771.574 558.021
L772.243 559.502
L772.913 572.832
L773.582 571.351
L774.252 575.794
L774.922 574.313
L775.591 560.983
L776.261 568.389
L776.93 574.313
L777.6 572.832
L777.6 572.832" style="fill:none;stroke:#0000ff;stroke-linecap:square;"/>
   </g>
   <g id="patch_3">
    <path d="
M108 583.2
L777.6 583.2" style="fill:none;stroke:#000000;stroke-linecap:square;stroke-linejoin:miter;"/>
   </g>
   <g id="patch_4">
    <path d="
M108 583.2
L108 64.8" style="fill:none;stroke:#000000;stroke-linecap:square;stroke-linejoin:miter;"/>
   </g>
   <g id="patch_5">
    <path d="
M777.6 583.2
L777.6 64.8" style="fill:none;stroke:#000000;stroke-linecap:square;stroke-linejoin:miter;"/>
   </g>
   <g id="patch_6">
    <path d="
M108 64.8
L777.6 64.8" style="fill:none;stroke:#000000;stroke-linecap:square;stroke-linejoin:miter;"/>
   </g>
   <g id="matplotlib.axis_1">
    <g id="xtick_1">
     <g id="line2d_4">
      <defs>
       <path d="
M0 0
L0 -4" id="mc7db9fdffb" style="stroke:#000000;stroke-width:0.5;"/>
      </defs>
      <g>
       <use style="stroke:#000000;stroke-width:0.5;" x="108.0" xlink:href="#mc7db9fdffb" y="583.2"/>
      </g>
     </g>
     <g id="line2d_5">
      <defs>
       <path d="
M0 0
L0 4" id="m5a7d422ac3" style="stroke:#000000;stroke-width:0.5;"/>
      </defs>
      <g>
       <use style="stroke:#000000;stroke-width:0.5;" x="108.0" xlink:href="#m5a7d422ac3" y="64.8"/>
      </g>
     </g>
     <g id="text_1">
      <!-- 0 -->
      <defs>
       <path d="
M31.7812 66.4062
Q24.1719 66.4062 20.3281 58.9062
Q16.5 51.4219 16.5 36.375
Q16.5 21.3906 20.3281 13.8906
Q24.1719 6.39062 31.7812 6.39062
Q39.4531 6.39062 43.2812 13.8906
Q47.125 21.3906 47.125 36.375
Q47.125 51.4219 43.2812 58.9062
Q39.4531 66.4062 31.7812 66.4062
M31.7812 74.2188
Q44.0469 74.2188 50.5156 64.5156
Q56.9844 54.8281 56.9844 36.375
Q56.9844 17.9688 50.5156 8.26562
Q44.0469 -1.42188 31.7812 -1.42188
Q19.5312 -1.42188 13.0625 8.26562
Q6.59375 17.9688 6.59375 36.375
Q6.59375 54.8281 13.0625 64.5156
Q19.5312 74.2188 31.7812 74.2188" id="BitstreamVeraSans-Roman-30"/>
      </defs>
      <g transform="translate(104.9765625 596.318125)scale(0.12 -0.12)">
       <use xlink:href="#BitstreamVeraSans-Roman-30"/>
      </g>
     </g>
    </g>
    <g id="xtick_2">
     <g id="line2d_6">
      <g>
       <use style="stroke:#000000;stroke-width:0.5;" x="275.4" xlink:href="#mc7db9fdffb" y="583.2"/>
      </g>
     </g>
     <g id="line2d_7">
      <g>
       <use style="stroke:#000000;stroke-width:0.5;" x="275.4" xlink:href="#m5a7d422ac3" y="64.8"/>
      </g>
     </g>
     <g id="text_2">
      <!-- 50000 -->
      <defs>
       <path d="
M10.7969 72.9062
L49.5156 72.9062
L49.5156 64.5938
L19.8281 64.5938
L19.8281 46.7344
Q21.9688 47.4688 24.1094 47.8281
Q26.2656 48.1875 28.4219 48.1875
Q40.625 48.1875 47.75 41.5
Q54.8906 34.8125 54.8906 23.3906
Q54.8906 11.625 47.5625 5.09375
Q40.2344 -1.42188 26.9062 -1.42188
Q22.3125 -1.42188 17.5469 -0.640625
Q12.7969 0.140625 7.71875 1.70312
L7.71875 11.625
Q12.1094 9.23438 16.7969 8.0625
Q21.4844 6.89062 26.7031 6.89062
Q35.1562 6.89062 40.0781 11.3281
Q45.0156 15.7656 45.0156 23.3906
Q45.0156 31 40.0781 35.4375
Q35.1562 39.8906 26.7031 39.8906
Q22.75 39.8906 18.8125 39.0156
Q14.8906 38.1406 10.7969 36.2812
z
" id="BitstreamVeraSans-Roman-35"/>
      </defs>
      <g transform="translate(257.1740625 596.318125)scale(0.12 -0.12)">
       <use xlink:href="#BitstreamVeraSans-Roman-35"/>
       <use x="63.623046875" xlink:href="#BitstreamVeraSans-Roman-30"/>
       <use x="127.24609375" xlink:href="#BitstreamVeraSans-Roman-30"/>
       <use x="190.869140625" xlink:href="#BitstreamVeraSans-Roman-30"/>
       <use x="254.4921875" xlink:href="#BitstreamVeraSans-Roman-30"/>
      </g>
     </g>
    </g>
    <g id="xtick_3">
     <g id="line2d_8">
      <g>
       <use style="stroke:#000000;stroke-width:0.5;" x="442.8" xlink:href="#mc7db9fdffb" y="583.2"/>
      </g>
     </g>
     <g id="line2d_9">
      <g>
       <use style="stroke:#000000;stroke-width:0.5;" x="442.8" xlink:href="#m5a7d422ac3" y="64.8"/>
      </g>
     </g>
     <g id="text_3">
      <!-- 100000 -->
      <defs>
       <path d="
M12.4062 8.29688
L28.5156 8.29688
L28.5156 63.9219
L10.9844 60.4062
L10.9844 69.3906
L28.4219 72.9062
L38.2812 72.9062
L38.2812 8.29688
L54.3906 8.29688
L54.3906 0
L12.4062 0
z
" id="BitstreamVeraSans-Roman-31"/>
      </defs>
      <g transform="translate(420.9525 596.318125)scale(0.12 -0.12)">
       <use xlink:href="#BitstreamVeraSans-Roman-31"/>
       <use x="63.623046875" xlink:href="#BitstreamVeraSans-Roman-30"/>
       <use x="127.24609375" xlink:href="#BitstreamVeraSans-Roman-30"/>
       <use x="190.869140625" xlink:href="#BitstreamVeraSans-Roman-30"/>
       <use x="254.4921875" xlink:href="#BitstreamVeraSans-Roman-30"/>
       <use x="318.115234375" xlink:href="#BitstreamVeraSans-Roman-30"/>
      </g>
     </g>
    </g>
    <g id="xtick_4">
     <g id="line2d_10">
      <g>
       <use style="stroke:#000000;stroke-width:0.5;" x="610.2" xlink:href="#mc7db9fdffb" y="583.2"/>
      </g>
     </g>
     <g id="line2d_11">
      <g>
       <use style="stroke:#000000;stroke-width:0.5;" x="610.2" xlink:href="#m5a7d422ac3" y="64.8"/>
      </g>
     </g>
     <g id="text_4">
      <!-- 150000 -->
      <g transform="translate(588.3525 596.318125)scale(0.12 -0.12)">
       <use xlink:href="#BitstreamVeraSans-Roman-31"/>
       <use x="63.623046875" xlink:href="#BitstreamVeraSans-Roman-35"/>
       <use x="127.24609375" xlink:href="#BitstreamVeraSans-Roman-30"/>
       <use x="190.869140625" xlink:href="#BitstreamVeraSans-Roman-30"/>
       <use x="254.4921875" xlink:href="#BitstreamVeraSans-Roman-30"/>
       <use x="318.115234375" xlink:href="#BitstreamVeraSans-Roman-30"/>
      </g>
     </g>
    </g>
    <g id="xtick_5">
     <g id="line2d_12">
      <g>
       <use style="stroke:#000000;stroke-width:0.5;" x="777.6" xlink:href="#mc7db9fdffb" y="583.2"/>
      </g>
     </g>
     <g id="line2d_13">
      <g>
       <use style="stroke:#000000;stroke-width:0.5;" x="777.6" xlink:href="#m5a7d422ac3" y="64.8"/>
      </g>
     </g>
     <g id="text_5">
      <!-- 200000 -->
      <defs>
       <path d="
M19.1875 8.29688
L53.6094 8.29688
L53.6094 0
L7.32812 0
L7.32812 8.29688
Q12.9375 14.1094 22.625 23.8906
Q32.3281 33.6875 34.8125 36.5312
Q39.5469 41.8438 41.4219 45.5312
Q43.3125 49.2188 43.3125 52.7812
Q43.3125 58.5938 39.2344 62.25
Q35.1562 65.9219 28.6094 65.9219
Q23.9688 65.9219 18.8125 64.3125
Q13.6719 62.7031 7.8125 59.4219
L7.8125 69.3906
Q13.7656 71.7812 18.9375 73
Q24.125 74.2188 28.4219 74.2188
Q39.75 74.2188 46.4844 68.5469
Q53.2188 62.8906 53.2188 53.4219
Q53.2188 48.9219 51.5312 44.8906
Q49.8594 40.875 45.4062 35.4062
Q44.1875 33.9844 37.6406 27.2188
Q31.1094 20.4531 19.1875 8.29688" id="BitstreamVeraSans-Roman-32"/>
      </defs>
      <g transform="translate(755.533125 596.318125)scale(0.12 -0.12)">
       <use xlink:href="#BitstreamVeraSans-Roman-32"/>
       <use x="63.623046875" xlink:href="#BitstreamVeraSans-Roman-30"/>
       <use x="127.24609375" xlink:href="#BitstreamVeraSans-Roman-30"/>
       <use x="190.869140625" xlink:href="#BitstreamVeraSans-Roman-30"/>
       <use x="254.4921875" xlink:href="#BitstreamVeraSans-Roman-30"/>
       <use x="318.115234375" xlink:href="#BitstreamVeraSans-Roman-30"/>
      </g>
     </g>
    </g>
    <g id="text_6">
     <!-- t / ms -->
     <defs>
      <path d="
M25.3906 72.9062
L33.6875 72.9062
L8.29688 -9.28125
L0 -9.28125
z
" id="BitstreamVeraSans-Roman-2f"/>
      <path id="BitstreamVeraSans-Roman-20"/>
      <path d="
M52 44.1875
Q55.375 50.25 60.0625 53.125
Q64.75 56 71.0938 56
Q79.6406 56 84.2812 50.0156
Q88.9219 44.0469 88.9219 33.0156
L88.9219 0
L79.8906 0
L79.8906 32.7188
Q79.8906 40.5781 77.0938 44.375
Q74.3125 48.1875 68.6094 48.1875
Q61.625 48.1875 57.5625 43.5469
Q53.5156 38.9219 53.5156 30.9062
L53.5156 0
L44.4844 0
L44.4844 32.7188
Q44.4844 40.625 41.7031 44.4062
Q38.9219 48.1875 33.1094 48.1875
Q26.2188 48.1875 22.1562 43.5312
Q18.1094 38.875 18.1094 30.9062
L18.1094 0
L9.07812 0
L9.07812 54.6875
L18.1094 54.6875
L18.1094 46.1875
Q21.1875 51.2188 25.4844 53.6094
Q29.7812 56 35.6875 56
Q41.6562 56 45.8281 52.9688
Q50 49.9531 52 44.1875" id="BitstreamVeraSans-Roman-6d"/>
      <path d="
M18.3125 70.2188
L18.3125 54.6875
L36.8125 54.6875
L36.8125 47.7031
L18.3125 47.7031
L18.3125 18.0156
Q18.3125 11.3281 20.1406 9.42188
Q21.9688 7.51562 27.5938 7.51562
L36.8125 7.51562
L36.8125 0
L27.5938 0
Q17.1875 0 13.2344 3.875
Q9.28125 7.76562 9.28125 18.0156
L9.28125 47.7031
L2.6875 47.7031
L2.6875 54.6875
L9.28125 54.6875
L9.28125 70.2188
z
" id="BitstreamVeraSans-Roman-74"/>
      <path d="
M44.2812 53.0781
L44.2812 44.5781
Q40.4844 46.5312 36.375 47.5
Q32.2812 48.4844 27.875 48.4844
Q21.1875 48.4844 17.8438 46.4375
Q14.5 44.3906 14.5 40.2812
Q14.5 37.1562 16.8906 35.375
Q19.2812 33.5938 26.5156 31.9844
L29.5938 31.2969
Q39.1562 29.25 43.1875 25.5156
Q47.2188 21.7812 47.2188 15.0938
Q47.2188 7.46875 41.1875 3.01562
Q35.1562 -1.42188 24.6094 -1.42188
Q20.2188 -1.42188 15.4531 -0.5625
Q10.6875 0.296875 5.42188 2
L5.42188 11.2812
Q10.4062 8.6875 15.2344 7.39062
Q20.0625 6.10938 24.8125 6.10938
Q31.1562 6.10938 34.5625 8.28125
Q37.9844 10.4531 37.9844 14.4062
Q37.9844 18.0625 35.5156 20.0156
Q33.0625 21.9688 24.7031 23.7812
L21.5781 24.5156
Q13.2344 26.2656 9.51562 29.9062
Q5.8125 33.5469 5.8125 39.8906
Q5.8125 47.6094 11.2812 51.7969
Q16.75 56 26.8125 56
Q31.7812 56 36.1719 55.2656
Q40.5781 54.5469 44.2812 53.0781" id="BitstreamVeraSans-Roman-73"/>
     </defs>
     <g transform="translate(425.9353125 612.931875)scale(0.12 -0.12)">
      <use xlink:href="#BitstreamVeraSans-Roman-74"/>
      <use x="39.208984375" xlink:href="#BitstreamVeraSans-Roman-20"/>
      <use x="70.99609375" xlink:href="#BitstreamVeraSans-Roman-2f"/>
      <use x="104.6875" xlink:href="#BitstreamVeraSans-Roman-20"/>
      <use x="136.474609375" xlink:href="#BitstreamVeraSans-Roman-6d"/>
      <use x="233.88671875" xlink:href="#BitstreamVeraSans-Roman-73"/>
     </g>
    </g>
   </g>
   <g id="matplotlib.axis_2">
    <g id="ytick_1">
     <g id="line2d_14">
      <defs>
       <path d="
M0 0
L4 0" id="md7965d1ba0" style="stroke:#000000;stroke-width:0.5;"/>
      </defs>
      <g>
       <use style="stroke:#000000;stroke-width:0.5;" x="108.0" xlink:href="#md7965d1ba0" y="583.2"/>
      </g>
     </g>
     <g id="line2d_15">
      <defs>
       <path d="
M0 0
L-4 0" id="md9a1c1a7cd" style="stroke:#000000;stroke-width:0.5;"/>
      </defs>
      <g>
       <use style="stroke:#000000;stroke-width:0.5;" x="777.6" xlink:href="#md9a1c1a7cd" y="583.2"/>
      </g>
     </g>
     <g id="text_7">
      <!-- 0 -->
      <g transform="translate(97.953125 586.51125)scale(0.12 -0.12)">
       <use xlink:href="#BitstreamVeraSans-Roman-30"/>
      </g>
     </g>
    </g>
    <g id="ytick_2">
     <g id="line2d_16">
      <g>
       <use style="stroke:#000000;stroke-width:0.5;" x="108.0" xlink:href="#md7965d1ba0" y="509.142857143"/>
      </g>
     </g>
     <g id="line2d_17">
      <g>
       <use style="stroke:#000000;stroke-width:0.5;" x="777.6" xlink:href="#md9a1c1a7cd" y="509.142857143"/>
      </g>
     </g>
     <g id="text_8">
      <!-- 50 -->
      <g transform="translate(90.453125 512.454107143)scale(0.12 -0.12)">
       <use xlink:href="#BitstreamVeraSans-Roman-35"/>
       <use x="63.623046875" xlink:href="#BitstreamVeraSans-Roman-30"/>
      </g>
     </g>
    </g>
    <g id="ytick_3">
     <g id="line2d_18">
      <g>
       <use style="stroke:#000000;stroke-width:0.5;" x="108.0" xlink:href="#md7965d1ba0" y="435.085714286"/>
      </g>
     </g>
     <g id="line2d_19">
      <g>
       <use style="stroke:#000000;stroke-width:0.5;" x="777.6" xlink:href="#md9a1c1a7cd" y="435.085714286"/>
      </g>
     </g>
     <g id="text_9">
      <!-- 100 -->
      <g transform="translate(83.21 438.396964286)scale(0.12 -0.12)">
       <use xlink:href="#BitstreamVeraSans-Roman-31"/>
       <use x="63.623046875" xlink:href="#BitstreamVeraSans-Roman-30"/>
       <use x="127.24609375" xlink:href="#BitstreamVeraSans-Roman-30"/>
      </g>
     </g>
    </g>
    <g id="ytick_4">
     <g id="line2d_20">
      <g>
       <use style="stroke:#000000;stroke-width:0.5;" x="108.0" xlink:href="#md7965d1ba0" y="361.028571429"/>
      </g>
     </g>
     <g id="line2d_21">
      <g>
       <use style="stroke:#000000;stroke-width:0.5;" x="777.6" xlink:href="#md9a1c1a7cd" y="361.028571429"/>
      </g>
     </g>
     <g id="text_10">
      <!-- 150 -->
      <g transform="translate(83.21 364.339821429)scale(0.12 -0.12)">
       <use xlink:href="#BitstreamVeraSans-Roman-31"/>
       <use x="63.623046875" xlink:href="#BitstreamVeraSans-Roman-35"/>
       <use x="127.24609375" xlink:href="#BitstreamVeraSans-Roman-30"/>
      </g>
     </g>
    </g>
    <g id="ytick_5">
     <g id="line2d_22">
      <g>
       <use style="stroke:#000000;stroke-width:0.5;" x="108.0" xlink:href="#md7965d1ba0" y="286.971428571"/>
      </g>
     </g>
     <g id="line2d_23">
      <g>
       <use style="stroke:#000000;stroke-width:0.5;" x="777.6" xlink:href="#md9a1c1a7cd" y="286.971428571"/>
      </g>
     </g>
     <g id="text_11">
      <!-- 200 -->
      <g transform="translate(82.77125 290.282678571)scale(0.12 -0.12)">
       <use xlink:href="#BitstreamVeraSans-Roman-32"/>
       <use x="63.623046875" xlink:href="#BitstreamVeraSans-Roman-30"/>
       <use x="127.24609375" xlink:href="#BitstreamVeraSans-Roman-30"/>
      </g>
     </g>
    </g>
    <g id="ytick_6">
     <g id="line2d_24">
      <g>
       <use style="stroke:#000000;stroke-width:0.5;" x="108.0" xlink:href="#md7965d1ba0" y="212.914285714"/>
      </g>
     </g>
     <g id="line2d_25">
      <g>
       <use style="stroke:#000000;stroke-width:0.5;" x="777.6" xlink:href="#md9a1c1a7cd" y="212.914285714"/>
      </g>
     </g>
     <g id="text_12">
      <!-- 250 -->
      <g transform="translate(82.77125 216.225535714)scale(0.12 -0.12)">
       <use xlink:href="#BitstreamVeraSans-Roman-32"/>
       <use x="63.623046875" xlink:href="#BitstreamVeraSans-Roman-35"/>
       <use x="127.24609375" xlink:href="#BitstreamVeraSans-Roman-30"/>
      </g>
     </g>
    </g>
    <g id="ytick_7">
     <g id="line2d_26">
      <g>
       <use style="stroke:#000000;stroke-width:0.5;" x="108.0" xlink:href="#md7965d1ba0" y="138.857142857"/>
      </g>
     </g>
     <g id="line2d_27">
      <g>
       <use style="stroke:#000000;stroke-width:0.5;" x="777.6" xlink:href="#md9a1c1a7cd" y="138.857142857"/>
      </g>
     </g>
     <g id="text_13">
      <!-- 300 -->
      <defs>
       <path d="
M40.5781 39.3125
Q47.6562 37.7969 51.625 33
Q55.6094 28.2188 55.6094 21.1875
Q55.6094 10.4062 48.1875 4.48438
Q40.7656 -1.42188 27.0938 -1.42188
Q22.5156 -1.42188 17.6562 -0.515625
Q12.7969 0.390625 7.625 2.20312
L7.625 11.7188
Q11.7188 9.32812 16.5938 8.10938
Q21.4844 6.89062 26.8125 6.89062
Q36.0781 6.89062 40.9375 10.5469
Q45.7969 14.2031 45.7969 21.1875
Q45.7969 27.6406 41.2812 31.2656
Q36.7656 34.9062 28.7188 34.9062
L20.2188 34.9062
L20.2188 43.0156
L29.1094 43.0156
Q36.375 43.0156 40.2344 45.9219
Q44.0938 48.8281 44.0938 54.2969
Q44.0938 59.9062 40.1094 62.9062
Q36.1406 65.9219 28.7188 65.9219
Q24.6562 65.9219 20.0156 65.0312
Q15.375 64.1562 9.8125 62.3125
L9.8125 71.0938
Q15.4375 72.6562 20.3438 73.4375
Q25.25 74.2188 29.5938 74.2188
Q40.8281 74.2188 47.3594 69.1094
Q53.9062 64.0156 53.9062 55.3281
Q53.9062 49.2656 50.4375 45.0938
Q46.9688 40.9219 40.5781 39.3125" id="BitstreamVeraSans-Roman-33"/>
      </defs>
      <g transform="translate(82.806875 142.168392857)scale(0.12 -0.12)">
       <use xlink:href="#BitstreamVeraSans-Roman-33"/>
       <use x="63.623046875" xlink:href="#BitstreamVeraSans-Roman-30"/>
       <use x="127.24609375" xlink:href="#BitstreamVeraSans-Roman-30"/>
      </g>
     </g>
    </g>
    <g id="ytick_8">
     <g id="line2d_28">
      <g>
       <use style="stroke:#000000;stroke-width:0.5;" x="108.0" xlink:href="#md7965d1ba0" y="64.8"/>
      </g>
     </g>
     <g id="line2d_29">
      <g>
       <use style="stroke:#000000;stroke-width:0.5;" x="777.6" xlink:href="#md9a1c1a7cd" y="64.8"/>
      </g>
     </g>
     <g id="text_14">
      <!-- 350 -->
      <g transform="translate(82.806875 68.11125)scale(0.12 -0.12)">
       <use xlink:href="#BitstreamVeraSans-Roman-33"/>
       <use x="63.623046875" xlink:href="#BitstreamVeraSans-Roman-35"/>
       <use x="127.24609375" xlink:href="#BitstreamVeraSans-Roman-30"/>
      </g>
     </g>
    </g>
    <g id="text_15">
     <!-- particle numbers -->
     <defs>
      <path d="
M18.1094 8.20312
L18.1094 -20.7969
L9.07812 -20.7969
L9.07812 54.6875
L18.1094 54.6875
L18.1094 46.3906
Q20.9531 51.2656 25.2656 53.625
Q29.5938 56 35.5938 56
Q45.5625 56 51.7812 48.0938
Q58.0156 40.1875 58.0156 27.2969
Q58.0156 14.4062 51.7812 6.48438
Q45.5625 -1.42188 35.5938 -1.42188
Q29.5938 -1.42188 25.2656 0.953125
Q20.9531 3.32812 18.1094 8.20312
M48.6875 27.2969
Q48.6875 37.2031 44.6094 42.8438
Q40.5312 48.4844 33.4062 48.4844
Q26.2656 48.4844 22.1875 42.8438
Q18.1094 37.2031 18.1094 27.2969
Q18.1094 17.3906 22.1875 11.75
Q26.2656 6.10938 33.4062 6.10938
Q40.5312 6.10938 44.6094 11.75
Q48.6875 17.3906 48.6875 27.2969" id="BitstreamVeraSans-Roman-70"/>
      <path d="
M41.1094 46.2969
Q39.5938 47.1719 37.8125 47.5781
Q36.0312 48 33.8906 48
Q26.2656 48 22.1875 43.0469
Q18.1094 38.0938 18.1094 28.8125
L18.1094 0
L9.07812 0
L9.07812 54.6875
L18.1094 54.6875
L18.1094 46.1875
Q20.9531 51.1719 25.4844 53.5781
Q30.0312 56 36.5312 56
Q37.4531 56 38.5781 55.875
Q39.7031 55.7656 41.0625 55.5156
z
" id="BitstreamVeraSans-Roman-72"/>
      <path d="
M48.6875 27.2969
Q48.6875 37.2031 44.6094 42.8438
Q40.5312 48.4844 33.4062 48.4844
Q26.2656 48.4844 22.1875 42.8438
Q18.1094 37.2031 18.1094 27.2969
Q18.1094 17.3906 22.1875 11.75
Q26.2656 6.10938 33.4062 6.10938
Q40.5312 6.10938 44.6094 11.75
Q48.6875 17.3906 48.6875 27.2969
M18.1094 46.3906
Q20.9531 51.2656 25.2656 53.625
Q29.5938 56 35.5938 56
Q45.5625 56 51.7812 48.0938
Q58.0156 40.1875 58.0156 27.2969
Q58.0156 14.4062 51.7812 6.48438
Q45.5625 -1.42188 35.5938 -1.42188
Q29.5938 -1.42188 25.2656 0.953125
Q20.9531 3.32812 18.1094 8.20312
L18.1094 0
L9.07812 0
L9.07812 75.9844
L18.1094 75.9844
z
" id="BitstreamVeraSans-Roman-62"/>
      <path d="
M34.2812 27.4844
Q23.3906 27.4844 19.1875 25
Q14.9844 22.5156 14.9844 16.5
Q14.9844 11.7188 18.1406 8.90625
Q21.2969 6.10938 26.7031 6.10938
Q34.1875 6.10938 38.7031 11.4062
Q43.2188 16.7031 43.2188 25.4844
L43.2188 27.4844
z

M52.2031 31.2031
L52.2031 0
L43.2188 0
L43.2188 8.29688
Q40.1406 3.32812 35.5469 0.953125
Q30.9531 -1.42188 24.3125 -1.42188
Q15.9219 -1.42188 10.9531 3.29688
Q6 8.01562 6 15.9219
Q6 25.1406 12.1719 29.8281
Q18.3594 34.5156 30.6094 34.5156
L43.2188 34.5156
L43.2188 35.4062
Q43.2188 41.6094 39.1406 45
Q35.0625 48.3906 27.6875 48.3906
Q23 48.3906 18.5469 47.2656
Q14.1094 46.1406 10.0156 43.8906
L10.0156 52.2031
Q14.9375 54.1094 19.5781 55.0469
Q24.2188 56 28.6094 56
Q40.4844 56 46.3438 49.8438
Q52.2031 43.7031 52.2031 31.2031" id="BitstreamVeraSans-Roman-61"/>
      <path d="
M9.42188 75.9844
L18.4062 75.9844
L18.4062 0
L9.42188 0
z
" id="BitstreamVeraSans-Roman-6c"/>
      <path d="
M48.7812 52.5938
L48.7812 44.1875
Q44.9688 46.2969 41.1406 47.3438
Q37.3125 48.3906 33.4062 48.3906
Q24.6562 48.3906 19.8125 42.8438
Q14.9844 37.3125 14.9844 27.2969
Q14.9844 17.2812 19.8125 11.7344
Q24.6562 6.20312 33.4062 6.20312
Q37.3125 6.20312 41.1406 7.25
Q44.9688 8.29688 48.7812 10.4062
L48.7812 2.09375
Q45.0156 0.34375 40.9844 -0.53125
Q36.9688 -1.42188 32.4219 -1.42188
Q20.0625 -1.42188 12.7812 6.34375
Q5.51562 14.1094 5.51562 27.2969
Q5.51562 40.6719 12.8594 48.3281
Q20.2188 56 33.0156 56
Q37.1562 56 41.1094 55.1406
Q45.0625 54.2969 48.7812 52.5938" id="BitstreamVeraSans-Roman-63"/>
      <path d="
M8.5 21.5781
L8.5 54.6875
L17.4844 54.6875
L17.4844 21.9219
Q17.4844 14.1562 20.5 10.2656
Q23.5312 6.39062 29.5938 6.39062
Q36.8594 6.39062 41.0781 11.0312
Q45.3125 15.6719 45.3125 23.6875
L45.3125 54.6875
L54.2969 54.6875
L54.2969 0
L45.3125 0
L45.3125 8.40625
Q42.0469 3.42188 37.7188 1
Q33.4062 -1.42188 27.6875 -1.42188
Q18.2656 -1.42188 13.375 4.4375
Q8.5 10.2969 8.5 21.5781" id="BitstreamVeraSans-Roman-75"/>
      <path d="
M9.42188 54.6875
L18.4062 54.6875
L18.4062 0
L9.42188 0
z

M9.42188 75.9844
L18.4062 75.9844
L18.4062 64.5938
L9.42188 64.5938
z
" id="BitstreamVeraSans-Roman-69"/>
      <path d="
M56.2031 29.5938
L56.2031 25.2031
L14.8906 25.2031
Q15.4844 15.9219 20.4844 11.0625
Q25.4844 6.20312 34.4219 6.20312
Q39.5938 6.20312 44.4531 7.46875
Q49.3125 8.73438 54.1094 11.2812
L54.1094 2.78125
Q49.2656 0.734375 44.1875 -0.34375
Q39.1094 -1.42188 33.8906 -1.42188
Q20.7969 -1.42188 13.1562 6.1875
Q5.51562 13.8125 5.51562 26.8125
Q5.51562 40.2344 12.7656 48.1094
Q20.0156 56 32.3281 56
Q43.3594 56 49.7812 48.8906
Q56.2031 41.7969 56.2031 29.5938
M47.2188 32.2344
Q47.125 39.5938 43.0938 43.9844
Q39.0625 48.3906 32.4219 48.3906
Q24.9062 48.3906 20.3906 44.1406
Q15.875 39.8906 15.1875 32.1719
z
" id="BitstreamVeraSans-Roman-65"/>
      <path d="
M54.8906 33.0156
L54.8906 0
L45.9062 0
L45.9062 32.7188
Q45.9062 40.4844 42.875 44.3281
Q39.8438 48.1875 33.7969 48.1875
Q26.5156 48.1875 22.3125 43.5469
Q18.1094 38.9219 18.1094 30.9062
L18.1094 0
L9.07812 0
L9.07812 54.6875
L18.1094 54.6875
L18.1094 46.1875
Q21.3438 51.125 25.7031 53.5625
Q30.0781 56 35.7969 56
Q45.2188 56 50.0469 50.1719
Q54.8906 44.3438 54.8906 33.0156" id="BitstreamVeraSans-Roman-6e"/>
     </defs>
     <g transform="translate(75.275625 374.78625)rotate(-90.0)scale(0.12 -0.12)">
      <use xlink:href="#BitstreamVeraSans-Roman-70"/>
      <use x="63.4765625" xlink:href="#BitstreamVeraSans-Roman-61"/>
      <use x="124.755859375" xlink:href="#BitstreamVeraSans-Roman-72"/>
      <use x="165.869140625" xlink:href="#BitstreamVeraSans-Roman-74"/>
      <use x="205.078125" xlink:href="#BitstreamVeraSans-Roman-69"/>
      <use x="232.861328125" xlink:href="#BitstreamVeraSans-Roman-63"/>
      <use x="287.841796875" xlink:href="#BitstreamVeraSans-Roman-6c"/>
      <use x="315.625" xlink:href="#BitstreamVeraSans-Roman-65"/>
      <use x="377.1484375" xlink:href="#BitstreamVeraSans-Roman-20"/>
      <use x="408.935546875" xlink:href="#BitstreamVeraSans-Roman-6e"/>
      <use x="472.314453125" xlink:href="#BitstreamVeraSans-Roman-75"/>
      <use x="535.693359375" xlink:href="#BitstreamVeraSans-Roman-6d"/>
      <use x="633.10546875" xlink:href="#BitstreamVeraSans-Roman-62"/>
      <use x="696.58203125" xlink:href="#BitstreamVeraSans-Roman-65"/>
      <use x="758.10546875" xlink:href="#BitstreamVeraSans-Roman-72"/>
      <use x="799.21875" xlink:href="#BitstreamVeraSans-Roman-73"/>
     </g>
    </g>
   </g>
   <g id="legend_1">
    <g id="patch_7">
     <path d="
M717.006 101.224
L774.1 101.224
L774.1 68.3
L717.006 68.3
z
" style="fill:#ffffff;stroke:#000000;stroke-linejoin:miter;"/>
    </g>
    <g id="line2d_30">
     <path d="
M721.906 73.9689
L731.706 73.9689" style="fill:none;stroke:#ff0000;stroke-linecap:square;"/>
    </g>
    <g id="line2d_31"/>
    <g id="text_16">
     <!-- PKAc el.0 -->
     <defs>
      <path d="
M19.6719 64.7969
L19.6719 37.4062
L32.0781 37.4062
Q38.9688 37.4062 42.7188 40.9688
Q46.4844 44.5312 46.4844 51.125
Q46.4844 57.6719 42.7188 61.2344
Q38.9688 64.7969 32.0781 64.7969
z

M9.8125 72.9062
L32.0781 72.9062
Q44.3438 72.9062 50.6094 67.3594
Q56.8906 61.8125 56.8906 51.125
Q56.8906 40.3281 50.6094 34.8125
Q44.3438 29.2969 32.0781 29.2969
L19.6719 29.2969
L19.6719 0
L9.8125 0
z
" id="BitstreamVeraSans-Roman-50"/>
      <path d="
M9.8125 72.9062
L19.6719 72.9062
L19.6719 42.0938
L52.3906 72.9062
L65.0938 72.9062
L28.9062 38.9219
L67.6719 0
L54.6875 0
L19.6719 35.1094
L19.6719 0
L9.8125 0
z
" id="BitstreamVeraSans-Roman-4b"/>
      <path d="
M10.6875 12.4062
L21 12.4062
L21 0
L10.6875 0
z
" id="BitstreamVeraSans-Roman-2e"/>
      <path d="
M34.1875 63.1875
L20.7969 26.9062
L47.6094 26.9062
z

M28.6094 72.9062
L39.7969 72.9062
L67.5781 0
L57.3281 0
L50.6875 18.7031
L17.8281 18.7031
L11.1875 0
L0.78125 0
z
" id="BitstreamVeraSans-Roman-41"/>
     </defs>
     <g transform="translate(739.40625 76.41890625)scale(0.07 -0.07)">
      <use xlink:href="#BitstreamVeraSans-Roman-50"/>
      <use x="60.302734375" xlink:href="#BitstreamVeraSans-Roman-4b"/>
      <use x="124.12890625" xlink:href="#BitstreamVeraSans-Roman-41"/>
      <use x="190.787109375" xlink:href="#BitstreamVeraSans-Roman-63"/>
      <use x="245.767578125" xlink:href="#BitstreamVeraSans-Roman-20"/>
      <use x="277.5546875" xlink:href="#BitstreamVeraSans-Roman-65"/>
      <use x="339.078125" xlink:href="#BitstreamVeraSans-Roman-6c"/>
      <use x="366.861328125" xlink:href="#BitstreamVeraSans-Roman-2e"/>
      <use x="398.6484375" xlink:href="#BitstreamVeraSans-Roman-30"/>
     </g>
    </g>
    <g id="line2d_32">
     <path d="
M721.906 84.2436
L731.706 84.2436" style="fill:none;stroke:#008000;stroke-linecap:square;"/>
    </g>
    <g id="line2d_33"/>
    <g id="text_17">
     <!-- PKAc el.1 -->
     <g transform="translate(739.40625 86.69359375)scale(0.07 -0.07)">
      <use xlink:href="#BitstreamVeraSans-Roman-50"/>
      <use x="60.302734375" xlink:href="#BitstreamVeraSans-Roman-4b"/>
      <use x="124.12890625" xlink:href="#BitstreamVeraSans-Roman-41"/>
      <use x="190.787109375" xlink:href="#BitstreamVeraSans-Roman-63"/>
      <use x="245.767578125" xlink:href="#BitstreamVeraSans-Roman-20"/>
      <use x="277.5546875" xlink:href="#BitstreamVeraSans-Roman-65"/>
      <use x="339.078125" xlink:href="#BitstreamVeraSans-Roman-6c"/>
      <use x="366.861328125" xlink:href="#BitstreamVeraSans-Roman-2e"/>
      <use x="398.6484375" xlink:href="#BitstreamVeraSans-Roman-31"/>
     </g>
    </g>
    <g id="line2d_34">
     <path d="
M721.906 94.5183
L731.706 94.5183" style="fill:none;stroke:#0000ff;stroke-linecap:square;"/>
    </g>
    <g id="line2d_35"/>
    <g id="text_18">
     <!-- PKAc el.2 -->
     <g transform="translate(739.40625 96.96828125)scale(0.07 -0.07)">
      <use xlink:href="#BitstreamVeraSans-Roman-50"/>
      <use x="60.302734375" xlink:href="#BitstreamVeraSans-Roman-4b"/>
      <use x="124.12890625" xlink:href="#BitstreamVeraSans-Roman-41"/>
      <use x="190.787109375" xlink:href="#BitstreamVeraSans-Roman-63"/>
      <use x="245.767578125" xlink:href="#BitstreamVeraSans-Roman-20"/>
      <use x="277.5546875" xlink:href="#BitstreamVeraSans-Roman-65"/>
      <use x="339.078125" xlink:href="#BitstreamVeraSans-Roman-6c"/>
      <use x="366.861328125" xlink:href="#BitstreamVeraSans-Roman-2e"/>
      <use x="398.6484375" xlink:href="#BitstreamVeraSans-Roman-32"/>
     </g>
    </g>
   </g>
  </g>
 </g>
 <defs>
  <clipPath id="p7ceb695115">
   <rect height="518.4" width="669.6" x="108.0" y="64.8"/>
  </clipPath>
 </defs>
</svg>
