<?xml version="1.0" encoding="utf-8" standalone="no"?>
<!DOCTYPE svg PUBLIC "-//W3C//DTD SVG 1.1//EN"
  "http://www.w3.org/Graphics/SVG/1.1/DTD/svg11.dtd">
<!-- Created with matplotlib (http://matplotlib.org/) -->
<svg height="648pt" version="1.1" viewBox="0 0 864 648" width="864pt" xmlns="http://www.w3.org/2000/svg" xmlns:xlink="http://www.w3.org/1999/xlink">
 <defs>
  <style type="text/css">
*{stroke-linecap:butt;stroke-linejoin:round;}
  </style>
 </defs>
 <g id="figure_1">
  <g id="patch_1">
   <path d="
M0 648
L864 648
L864 0
L0 0
z
" style="fill:#ffffff;"/>
  </g>
  <g id="axes_1">
   <g id="patch_2">
    <path d="
M108 583.2
L777.6 583.2
L777.6 64.8
L108 64.8
z
" style="fill:#ffffff;"/>
   </g>
   <g id="line2d_1">
    <path clip-path="url(#p7ceb695115)" d="
M108 583.2
L108.67 580.932
L109.339 580.932
L110.009 581.256
L110.678 581.256
L111.348 581.58
L112.018 581.256
L112.687 580.608
L113.357 579.636
L114.696 578.34
L116.035 577.692
L116.705 578.016
L118.044 576.72
L118.714 576.72
L119.383 576.396
L120.722 574.452
L121.392 571.536
L122.062 570.564
L122.731 567.324
L123.401 566.676
L124.07 565.704
L125.41 561.492
L126.079 560.844
L126.749 558.252
L127.418 557.604
L128.088 557.28
L130.097 555.336
L130.766 553.068
L132.106 547.56
L132.775 547.236
L133.445 545.616
L134.784 542.052
L135.454 540.756
L136.123 542.376
L137.462 539.784
L138.132 538.164
L139.471 537.516
L140.141 535.896
L140.81 534.924
L141.48 532.008
L142.15 532.008
L142.819 530.064
L143.489 529.74
L144.828 525.852
L145.498 524.556
L146.167 524.88
L146.837 523.584
L147.506 521.964
L148.176 519.696
L148.846 519.048
L149.515 519.696
L150.185 520.668
L150.854 519.372
L151.524 519.372
L152.194 517.752
L152.863 516.78
L153.533 513.864
L154.202 512.568
L154.872 512.892
L155.542 511.272
L156.211 511.596
L156.881 509.004
L157.55 508.68
L158.22 507.708
L158.89 509.328
L159.559 508.68
L160.229 508.356
L160.898 507.06
L161.568 507.384
L162.238 507.06
L162.907 507.06
L163.577 507.384
L164.246 508.032
L164.916 506.412
L165.586 503.82
L166.255 503.82
L166.925 503.496
L167.594 502.524
L168.264 502.524
L168.934 501.552
L169.603 502.2
L170.942 502.848
L171.612 503.82
L172.282 500.904
L172.951 501.552
L173.621 501.228
L174.29 503.172
L174.96 500.58
L175.63 501.228
L176.299 499.608
L176.969 498.312
L177.638 496.692
L178.308 497.34
L178.978 497.016
L179.647 497.34
L180.317 498.312
L180.986 499.608
L181.656 496.692
L182.326 496.692
L182.995 497.016
L183.665 496.368
L185.004 494.424
L185.674 493.776
L187.013 495.72
L187.682 496.044
L189.022 494.1
L189.691 494.1
L190.361 494.748
L191.03 492.804
L191.7 494.1
L192.37 493.452
L193.039 493.776
L193.709 493.776
L194.378 493.128
L195.048 493.452
L195.718 493.452
L197.057 496.044
L197.726 495.072
L198.396 495.72
L199.066 496.692
L199.735 496.044
L200.405 497.34
L201.074 496.692
L202.414 494.748
L203.083 495.72
L203.753 495.72
L205.092 498.96
L205.762 498.96
L206.431 497.664
L207.101 497.34
L207.77 496.692
L208.44 497.988
L209.11 498.636
L209.779 500.58
L210.449 501.228
L211.118 500.58
L211.788 498.636
L212.458 498.312
L213.127 497.34
L213.797 497.988
L214.466 499.284
L215.136 499.608
L215.806 499.608
L216.475 499.932
L217.145 497.988
L217.814 497.34
L219.154 497.988
L219.823 498.636
L220.493 498.312
L221.162 498.636
L221.832 498.312
L223.171 498.96
L223.841 498.96
L224.51 499.932
L225.18 499.284
L225.85 498.312
L226.519 497.988
L227.858 497.988
L229.198 501.228
L230.537 501.228
L231.206 500.58
L231.876 503.496
L232.546 504.468
L233.215 504.792
L233.885 503.82
L234.554 504.792
L235.224 506.088
L236.563 506.088
L237.233 507.384
L238.572 508.032
L239.242 509.004
L239.911 510.624
L240.581 511.596
L241.25 511.92
L241.92 511.272
L242.59 511.596
L243.259 512.244
L243.929 512.244
L244.598 513.216
L245.268 512.244
L245.938 511.92
L246.607 512.244
L247.277 511.92
L248.616 511.92
L249.955 513.864
L250.625 511.92
L251.294 511.272
L253.303 511.272
L253.973 511.596
L254.642 511.596
L255.312 510.948
L255.982 512.568
L256.651 512.892
L257.321 513.54
L258.66 514.188
L259.33 512.892
L259.999 513.216
L260.669 512.568
L262.008 516.78
L262.678 516.132
L263.347 516.78
L264.017 516.132
L264.686 516.456
L265.356 517.428
L266.026 518.724
L266.695 519.696
L267.365 520.344
L268.034 518.4
L268.704 518.724
L269.374 520.02
L270.043 520.344
L270.713 521.964
L271.382 521.64
L272.052 522.288
L272.722 522.288
L273.391 522.936
L274.061 522.936
L274.73 523.26
L275.4 524.232
L276.07 523.908
L276.739 524.556
L277.409 525.528
L278.078 526.176
L278.748 526.176
L279.418 525.852
L280.087 525.204
L280.757 527.148
L281.426 528.12
L282.096 529.74
L282.766 531.036
L283.435 530.712
L284.105 531.036
L284.774 531.684
L286.114 530.388
L286.783 531.684
L287.453 532.332
L288.792 532.332
L290.131 531.684
L290.801 532.008
L291.47 531.684
L292.81 530.388
L293.479 531.36
L294.818 532.008
L295.488 533.628
L296.158 533.304
L296.827 533.304
L297.497 534.924
L298.166 535.896
L298.836 535.896
L299.506 536.22
L300.175 536.22
L300.845 535.572
L301.514 536.22
L302.184 536.22
L304.193 537.192
L304.862 538.812
L306.202 540.108
L306.871 541.404
L307.541 542.052
L308.21 542.052
L309.55 542.7
L310.219 542.7
L310.889 543.348
L311.558 543.672
L312.228 544.968
L312.898 545.292
L313.567 545.94
L314.237 546.264
L314.906 546.264
L315.576 547.56
L316.246 547.236
L316.915 547.56
L317.585 547.236
L318.254 547.56
L318.924 548.208
L320.933 548.208
L321.602 548.856
L322.272 549.18
L323.611 548.532
L324.281 547.884
L324.95 547.884
L325.62 547.56
L326.29 546.912
L326.959 547.236
L327.629 547.884
L328.298 547.56
L329.638 548.208
L330.307 548.208
L330.977 547.56
L331.646 547.884
L332.316 547.884
L332.986 548.208
L333.655 548.208
L334.325 549.828
L334.994 550.152
L335.664 548.856
L336.334 549.18
L337.673 548.532
L338.342 548.856
L339.682 550.152
L340.351 549.504
L341.021 550.152
L341.69 549.504
L342.36 549.18
L343.03 549.828
L343.699 550.152
L344.369 550.8
L345.038 550.476
L345.708 551.124
L346.378 552.744
L347.047 552.42
L347.717 552.42
L348.386 553.068
L349.056 552.42
L350.395 552.42
L351.065 552.744
L351.734 553.392
L352.404 552.744
L353.074 551.772
L353.743 552.096
L354.413 552.744
L355.082 552.42
L355.752 551.772
L356.422 551.448
L357.091 551.772
L357.761 551.772
L358.43 552.42
L359.1 552.42
L360.439 551.772
L361.109 552.42
L361.778 551.772
L362.448 551.448
L363.118 551.772
L363.787 553.392
L364.457 553.716
L366.466 553.716
L367.805 554.364
L368.474 553.392
L369.144 553.716
L369.814 553.068
L370.483 553.068
L371.153 553.716
L371.822 553.392
L372.492 554.04
L373.162 554.364
L373.831 555.336
L374.501 555.66
L375.17 555.66
L375.84 555.012
L376.51 555.012
L377.179 555.336
L377.849 555.336
L378.518 554.688
L379.188 555.012
L379.858 555.66
L381.197 556.308
L381.866 555.66
L383.206 556.308
L384.545 555.66
L385.214 555.984
L386.554 555.984
L387.223 556.308
L387.893 555.984
L388.562 555.984
L389.232 555.66
L389.902 555.984
L390.571 555.336
L391.241 555.336
L391.91 555.66
L392.58 555.336
L393.25 555.66
L393.919 555.66
L394.589 556.308
L395.928 556.308
L396.598 556.632
L397.267 556.308
L397.937 556.308
L398.606 556.632
L399.276 557.28
L399.946 557.28
L401.285 557.928
L401.954 557.928
L402.624 558.9
L403.963 558.252
L405.302 558.252
L406.642 558.9
L407.311 559.548
L407.981 558.9
L409.32 559.548
L409.99 561.168
L410.659 561.168
L411.329 561.816
L411.998 561.816
L412.668 562.788
L413.338 562.788
L414.677 563.436
L415.346 563.112
L416.016 563.76
L416.686 564.732
L417.355 564.732
L418.694 564.084
L419.364 564.084
L420.034 564.732
L420.703 565.056
L421.373 565.056
L422.042 565.704
L422.712 565.704
L423.382 566.352
L425.39 565.38
L426.06 565.38
L426.73 566.028
L429.408 566.028
L430.078 566.352
L430.747 566.352
L431.417 566.676
L432.086 566.676
L433.426 567.972
L434.765 567.972
L435.434 568.62
L436.104 568.62
L436.774 568.296
L438.113 569.592
L438.782 569.592
L439.452 569.916
L442.13 569.916
L443.47 570.564
L444.139 568.944
L444.809 563.76
L445.478 548.208
L446.148 527.472
L447.487 463.968
L448.826 389.448
L450.166 321.408
L451.505 282.852
L452.174 277.668
L452.844 271.512
L453.514 278.316
L454.183 278.64
L454.853 284.796
L455.522 289.656
L456.192 303.588
L456.862 321.732
L457.531 332.1
L458.87 366.768
L459.54 391.716
L460.21 371.304
L460.879 385.884
L461.549 403.38
L462.218 405.648
L462.888 412.776
L463.558 414.396
L464.227 427.68
L464.897 429.948
L465.566 428.976
L466.236 438.048
L466.906 427.032
L467.575 424.44
L468.245 431.244
L468.914 419.256
L469.584 425.412
L470.254 424.44
L470.923 435.456
L471.593 437.076
L472.932 429.3
L473.602 442.26
L474.271 431.892
L474.941 432.864
L475.61 427.032
L476.28 428.328
L476.95 437.076
L477.619 430.92
L478.289 428.652
L478.958 428.652
L479.628 424.44
L480.298 415.692
L480.967 409.536
L481.637 412.452
L482.306 409.86
L482.976 411.156
L483.646 393.984
L484.985 407.916
L485.654 400.788
L486.324 384.912
L486.994 381.348
L487.663 378.432
L488.333 384.912
L489.002 371.952
L489.672 376.812
L490.342 369.36
L491.011 369.36
L491.681 366.768
L492.35 365.796
L493.02 355.428
L493.69 359.64
L494.359 356.076
L495.029 356.076
L495.698 361.26
L496.368 359.316
L497.038 350.892
L497.707 349.596
L498.377 348.624
L499.046 335.016
L499.716 346.356
L500.386 359.64
L501.055 358.344
L501.725 355.428
L502.394 354.132
L503.064 350.568
L503.734 356.724
L504.403 351.216
L505.073 340.524
L505.742 345.384
L506.412 343.764
L507.082 340.2
L507.751 334.044
L508.421 344.736
L509.09 327.564
L509.76 335.664
L510.43 334.044
L511.099 325.62
L511.769 330.48
L512.438 327.24
L513.108 326.268
L513.778 323.676
L514.447 327.24
L515.117 336.312
L515.786 322.38
L516.456 317.196
L517.126 324.972
L517.795 322.704
L518.465 316.872
L519.134 315.252
L519.804 314.928
L520.474 316.224
L521.813 332.748
L522.482 336.312
L523.152 332.748
L523.822 310.068
L524.491 312.66
L525.161 323.028
L525.83 321.084
L526.5 324
L527.17 316.872
L527.839 315.576
L528.509 329.508
L529.178 318.492
L529.848 313.308
L530.518 312.012
L531.187 308.448
L531.857 302.94
L532.526 308.124
L533.196 300.348
L533.866 308.124
L534.535 307.8
L535.205 289.332
L535.874 287.712
L536.544 283.5
L537.214 290.628
L537.883 300.024
L538.553 296.784
L539.222 287.064
L539.892 304.236
L540.562 301.968
L541.231 288.36
L541.901 282.528
L542.57 279.612
L543.24 289.656
L543.91 286.092
L544.579 285.12
L545.249 283.824
L545.918 288.684
L546.588 288.036
L547.258 295.488
L547.927 294.84
L548.597 293.544
L549.266 301.644
L549.936 296.136
L550.606 298.728
L551.275 289.332
L551.945 286.74
L552.614 278.964
L553.954 270.54
L554.623 270.216
L555.293 261.144
L555.962 264.708
L556.632 275.4
L557.302 269.892
L557.971 270.54
L558.641 273.132
L559.31 271.512
L559.98 269.568
L560.65 276.372
L561.319 269.568
L561.989 271.836
L562.658 267.624
L563.328 268.596
L563.998 266.652
L564.667 269.568
L565.337 275.724
L566.006 256.608
L566.676 259.848
L567.346 265.032
L568.015 262.764
L568.685 270.54
L569.354 266.976
L570.024 256.932
L570.694 264.06
L571.363 258.228
L572.033 259.524
L572.702 256.932
L573.372 257.904
L574.042 259.524
L574.711 255.312
L575.381 243.972
L576.05 235.872
L576.72 252.396
L577.39 244.944
L578.059 249.48
L578.729 243.972
L579.398 243.324
L580.068 245.592
L580.738 243
L581.407 243.324
L582.077 242.676
L582.746 235.224
L583.416 231.012
L584.086 234.576
L584.755 235.224
L585.425 239.436
L586.094 231.984
L586.764 227.124
L587.434 228.744
L588.103 226.476
L588.773 228.42
L589.442 225.504
L590.112 227.448
L590.782 228.744
L591.451 231.984
L592.121 224.208
L592.79 219.348
L594.13 223.884
L594.799 219.348
L595.469 220.968
L596.138 220.32
L596.808 215.136
L597.478 205.092
L598.147 202.176
L598.817 206.712
L599.486 199.908
L600.156 208.98
L600.826 210.924
L601.495 199.584
L602.165 208.008
L602.834 204.768
L603.504 204.768
L604.174 190.188
L604.843 191.16
L605.513 195.372
L606.182 191.484
L606.852 185.004
L607.522 187.92
L608.191 183.708
L608.861 181.116
L609.53 182.088
L610.2 195.048
L610.87 203.148
L611.539 206.064
L612.209 188.244
L612.878 192.78
L613.548 191.484
L614.218 187.272
L614.887 188.244
L615.557 195.048
L616.226 208.332
L616.896 197.964
L617.566 195.696
L618.235 185.328
L618.905 185.328
L620.244 202.824
L620.914 198.936
L621.583 198.936
L622.253 196.668
L622.922 190.512
L623.592 195.048
L624.262 184.356
L624.931 181.764
L625.601 184.356
L626.27 187.92
L626.94 181.764
L627.61 183.384
L628.279 178.848
L628.949 178.2
L629.618 176.256
L630.288 172.692
L630.958 188.568
L631.627 190.512
L632.297 181.44
L632.966 184.032
L633.636 184.356
L634.306 184.356
L634.975 177.876
L635.645 173.016
L636.314 173.664
L636.984 166.86
L637.654 173.34
L638.993 181.116
L639.662 180.468
L640.332 172.692
L641.002 169.452
L641.671 174.96
L642.341 165.24
L643.01 171.72
L643.68 159.084
L644.35 152.604
L645.019 153.252
L645.689 162.972
L646.358 169.452
L647.028 163.944
L647.698 156.816
L648.367 159.732
L649.037 164.592
L649.706 149.364
L650.376 151.956
L651.046 152.28
L651.715 148.392
L652.385 148.716
L653.054 150.012
L654.394 155.52
L655.063 149.04
L655.733 150.984
L656.402 155.52
L657.072 154.872
L657.742 159.408
L659.081 161.352
L659.75 164.268
L660.42 161.028
L661.09 160.056
L661.759 156.816
L662.429 159.408
L663.098 154.872
L664.438 150.66
L665.107 150.012
L665.777 151.308
L666.446 153.576
L667.116 150.336
L667.786 149.04
L668.455 145.8
L669.125 147.744
L669.794 142.56
L670.464 142.884
L671.134 145.476
L671.803 138.024
L672.473 149.688
L673.142 143.208
L673.812 144.504
L674.482 146.448
L675.151 146.772
L675.821 145.152
L676.49 146.448
L677.16 142.884
L677.83 144.504
L678.499 142.236
L679.169 141.912
L679.838 139.968
L680.508 147.42
L681.178 145.8
L681.847 140.292
L682.517 144.18
L683.186 139.32
L683.856 141.588
L684.526 138.672
L685.195 136.728
L685.865 137.376
L686.534 137.052
L687.204 136.08
L687.874 128.304
L688.543 127.332
L689.882 131.544
L690.552 137.7
L691.222 136.08
L691.891 136.08
L692.561 138.024
L693.23 141.588
L693.9 146.448
L694.57 144.828
L695.239 146.448
L695.909 152.604
L696.578 146.448
L697.248 143.208
L697.918 144.18
L698.587 141.912
L699.257 141.588
L700.596 136.08
L701.266 139.968
L701.935 142.56
L702.605 145.8
L703.274 138.672
L703.944 142.884
L705.283 127.656
L705.953 126.684
L706.622 129.924
L707.292 138.348
L707.962 138.024
L708.631 134.784
L709.301 141.588
L709.97 140.616
L710.64 144.504
L711.31 139.968
L711.979 144.18
L712.649 146.124
L713.318 143.856
L713.988 145.152
L714.658 147.42
L715.327 143.856
L715.997 146.772
L716.666 145.476
L717.336 149.364
L718.006 154.224
L718.675 146.124
L719.345 145.476
L720.014 144.18
L720.684 148.068
L721.354 147.096
L722.023 148.716
L722.693 156.168
L723.362 151.632
L724.032 156.492
L724.702 156.492
L725.371 155.52
L726.041 159.732
L726.71 154.872
L727.38 161.028
L728.05 160.056
L728.719 158.436
L730.058 162.324
L730.728 162
L731.398 168.156
L732.067 164.592
L732.737 165.888
L733.406 169.128
L734.076 169.128
L734.746 171.072
L735.415 175.608
L736.085 173.988
L736.754 179.172
L737.424 183.06
L738.763 179.172
L739.433 176.256
L740.102 178.2
L740.772 177.876
L741.442 180.144
L742.111 181.116
L742.781 186.3
L743.45 190.512
L744.12 193.428
L744.79 203.472
L746.129 211.896
L746.798 209.304
L747.468 204.768
L748.138 205.74
L748.807 200.232
L749.477 197.964
L750.146 197.64
L750.816 202.824
L751.486 201.528
L752.155 208.008
L752.825 209.952
L753.494 206.712
L754.164 208.656
L754.834 205.416
L755.503 208.656
L756.173 207.684
L756.842 207.36
L757.512 203.472
L758.182 203.796
L758.851 205.092
L759.521 204.444
L760.86 213.84
L761.53 218.052
L762.199 213.516
L762.869 218.7
L763.538 220.32
L764.208 220.644
L764.878 227.448
L765.547 231.984
L766.217 232.632
L766.886 236.844
L767.556 230.04
L768.226 234.9
L768.895 236.196
L769.565 238.464
L770.234 232.308
L770.904 232.956
L771.574 237.492
L772.243 238.788
L773.582 243
L774.252 240.408
L774.922 243.324
L775.591 242.676
L776.261 243
L776.93 248.184
L777.6 251.748
L777.6 251.748" style="fill:none;stroke:#ff0000;stroke-linecap:square;"/>
   </g>
   <g id="line2d_2">
    <path clip-path="url(#p7ceb695115)" d="
M108 583.2
L777.6 583.2
L777.6 583.2" style="fill:none;stroke:#008000;stroke-linecap:square;"/>
   </g>
   <g id="line2d_3">
    <path clip-path="url(#p7ceb695115)" d="
M108 583.2
L108.67 582.552
L110.009 582.552
L110.678 582.228
L111.348 582.228
L112.018 580.932
L113.357 578.988
L114.026 578.664
L115.366 575.424
L116.035 575.424
L116.705 574.776
L117.374 573.48
L118.044 572.832
L118.714 570.888
L119.383 569.916
L120.053 568.296
L120.722 567.972
L121.392 566.676
L122.062 564.408
L123.401 561.816
L124.07 561.168
L124.74 557.604
L125.41 556.632
L126.079 556.308
L126.749 553.716
L127.418 552.42
L128.088 550.8
L130.097 545.292
L130.766 543.996
L131.436 542.052
L132.106 540.756
L132.775 539.136
L134.114 538.488
L134.784 537.84
L135.454 536.22
L136.793 534.276
L137.462 533.952
L138.132 534.924
L138.802 533.304
L139.471 531.36
L140.141 531.684
L140.81 528.768
L141.48 528.12
L142.15 524.88
L142.819 523.584
L143.489 521.964
L144.158 520.992
L144.828 519.372
L145.498 518.724
L146.167 519.696
L146.837 519.048
L148.176 518.4
L148.846 519.048
L149.515 517.752
L150.185 519.048
L150.854 517.752
L151.524 517.104
L152.194 513.864
L152.863 512.892
L153.533 513.216
L154.202 511.92
L156.211 505.764
L156.881 505.44
L157.55 506.736
L158.22 506.736
L158.89 507.06
L159.559 508.032
L160.229 506.412
L161.568 507.708
L162.238 506.412
L162.907 507.06
L163.577 506.412
L164.246 506.412
L164.916 506.088
L165.586 505.116
L166.255 504.468
L166.925 505.44
L167.594 504.792
L168.264 504.792
L168.934 505.44
L169.603 505.44
L170.273 503.496
L170.942 504.468
L171.612 506.736
L172.282 506.736
L172.951 506.412
L173.621 507.06
L174.29 506.412
L174.96 504.468
L175.63 506.736
L176.299 506.088
L176.969 506.412
L177.638 506.088
L178.308 506.088
L178.978 506.412
L180.317 504.468
L180.986 504.792
L181.656 503.496
L182.326 503.82
L182.995 503.82
L183.665 504.792
L184.334 505.116
L185.004 503.496
L186.343 504.144
L187.682 504.144
L188.352 504.468
L189.022 505.116
L189.691 504.468
L190.361 503.172
L191.03 502.524
L191.7 502.2
L192.37 500.904
L193.039 500.58
L193.709 499.608
L194.378 500.904
L195.718 500.904
L197.057 498.96
L197.726 497.016
L198.396 499.284
L199.066 497.988
L199.735 497.664
L200.405 497.988
L201.074 496.044
L201.744 496.368
L202.414 496.044
L203.083 496.692
L203.753 497.664
L205.092 498.312
L205.762 500.256
L206.431 500.904
L207.101 498.636
L207.77 497.988
L208.44 498.312
L209.11 497.34
L210.449 498.636
L211.118 498.636
L211.788 500.256
L213.797 499.284
L215.136 501.228
L215.806 503.172
L216.475 502.524
L217.145 503.496
L217.814 502.524
L218.484 503.172
L219.154 503.496
L219.823 502.848
L220.493 505.764
L221.162 506.412
L221.832 505.764
L222.502 505.44
L223.171 504.468
L223.841 504.792
L224.51 505.764
L225.18 505.116
L225.85 506.412
L226.519 506.088
L227.189 507.384
L227.858 508.356
L228.528 507.384
L229.198 508.032
L229.867 508.356
L230.537 507.384
L231.206 508.032
L231.876 509.004
L232.546 508.356
L233.215 509.652
L233.885 511.272
L234.554 510.948
L235.224 510.948
L235.894 509.652
L236.563 510.624
L237.233 510.624
L237.902 509.976
L238.572 510.948
L239.242 511.596
L239.911 511.92
L240.581 510.948
L241.25 512.244
L241.92 513.216
L242.59 512.244
L243.259 511.92
L243.929 513.216
L245.268 513.864
L245.938 513.54
L246.607 513.54
L247.277 512.892
L247.946 513.54
L248.616 514.512
L249.286 512.892
L249.955 514.188
L250.625 512.892
L251.294 512.244
L252.634 510.3
L253.303 511.272
L253.973 509.652
L254.642 509.328
L255.312 508.68
L256.651 510.624
L257.321 511.92
L257.99 511.92
L258.66 512.568
L259.33 513.864
L259.999 513.864
L260.669 514.188
L261.338 513.864
L262.008 513.216
L262.678 514.512
L263.347 515.484
L264.017 514.836
L264.686 516.132
L265.356 516.132
L266.026 517.428
L266.695 518.4
L267.365 519.696
L268.034 518.724
L268.704 518.724
L269.374 517.752
L270.043 518.4
L270.713 519.696
L272.052 519.048
L272.722 521.316
L273.391 520.668
L274.061 521.64
L274.73 521.316
L275.4 521.316
L276.07 520.668
L276.739 519.372
L277.409 520.02
L278.078 520.992
L278.748 520.992
L279.418 522.288
L280.087 522.288
L280.757 521.964
L281.426 522.936
L282.096 522.936
L282.766 523.584
L283.435 522.936
L284.105 523.908
L284.774 524.556
L285.444 524.556
L286.114 524.88
L286.783 525.528
L287.453 525.204
L288.122 526.176
L288.792 525.528
L289.462 525.204
L290.131 524.556
L292.14 526.5
L292.81 526.176
L293.479 526.176
L294.149 527.472
L294.818 528.12
L295.488 529.416
L296.158 531.684
L296.827 532.98
L297.497 533.304
L298.166 532.98
L298.836 534.276
L299.506 533.952
L300.845 535.248
L301.514 536.544
L302.184 535.572
L302.854 536.544
L303.523 536.22
L304.193 536.22
L304.862 538.164
L305.532 537.192
L306.202 537.84
L306.871 538.164
L307.541 537.84
L308.21 538.812
L308.88 538.812
L310.219 540.108
L310.889 539.46
L311.558 540.108
L312.228 539.136
L312.898 539.46
L313.567 539.136
L314.237 540.108
L315.576 540.756
L316.246 541.404
L316.915 543.024
L317.585 543.672
L318.254 542.7
L318.924 543.348
L319.594 543.024
L320.263 543.996
L320.933 542.376
L321.602 541.728
L322.272 543.996
L322.942 544.644
L323.611 544.644
L324.281 544.32
L324.95 544.644
L325.62 544.32
L326.29 544.32
L326.959 543.672
L327.629 542.7
L328.298 543.996
L328.968 544.968
L329.638 544.968
L330.307 544.644
L330.977 545.292
L331.646 545.616
L332.316 544.644
L332.986 544.644
L333.655 545.616
L334.994 545.616
L335.664 544.968
L336.334 545.292
L337.003 545.292
L337.673 545.616
L338.342 544.644
L339.012 543.996
L339.682 544.32
L340.351 544.32
L341.021 544.968
L341.69 543.348
L342.36 543.672
L343.03 543.672
L343.699 543.996
L345.038 543.996
L345.708 543.348
L347.047 543.348
L347.717 543.672
L348.386 543.024
L349.056 544.32
L349.726 544.32
L350.395 544.644
L351.065 544.644
L351.734 544.968
L352.404 545.94
L353.074 546.264
L353.743 546.264
L354.413 545.616
L355.082 546.588
L355.752 545.94
L356.422 546.264
L357.091 546.264
L357.761 545.616
L359.1 546.912
L359.77 547.236
L360.439 547.236
L361.109 548.532
L361.778 549.504
L362.448 550.152
L363.118 549.828
L365.126 550.8
L365.796 550.152
L366.466 551.124
L367.135 550.152
L367.805 550.152
L368.474 551.124
L369.144 551.448
L369.814 551.448
L370.483 552.096
L371.153 552.096
L371.822 553.068
L372.492 553.716
L373.162 553.392
L373.831 553.716
L374.501 553.392
L375.84 554.04
L376.51 553.716
L377.179 554.688
L377.849 554.364
L379.188 554.364
L379.858 555.336
L380.527 554.688
L381.197 554.364
L381.866 556.308
L382.536 555.012
L383.206 555.012
L383.875 555.66
L384.545 555.984
L385.214 555.984
L385.884 555.66
L386.554 556.632
L387.223 556.632
L387.893 556.956
L388.562 556.956
L389.232 557.604
L390.571 558.252
L391.91 559.548
L392.58 559.224
L393.25 559.224
L393.919 558.9
L394.589 559.224
L395.258 558.576
L395.928 558.9
L396.598 559.872
L397.267 559.872
L397.937 560.196
L398.606 559.872
L399.946 560.52
L400.615 560.52
L401.285 560.844
L401.954 560.844
L402.624 561.492
L403.294 561.492
L403.963 562.464
L404.633 564.084
L405.302 563.112
L405.972 563.436
L406.642 563.436
L407.311 564.408
L409.32 565.38
L409.99 565.38
L411.329 566.028
L411.998 566.676
L412.668 566.676
L414.007 567.324
L414.677 567.324
L415.346 567.648
L416.016 567.324
L416.686 567.972
L417.355 568.296
L418.025 568.296
L418.694 568.62
L419.364 568.62
L420.034 568.296
L420.703 568.944
L421.373 569.268
L422.042 568.62
L422.712 568.62
L423.382 568.944
L424.051 568.62
L425.39 569.268
L426.06 568.944
L426.73 568.944
L428.069 568.296
L428.738 568.944
L430.747 568.944
L431.417 568.296
L432.086 567.972
L432.756 567.972
L433.426 568.296
L434.095 568.296
L434.765 569.268
L435.434 569.592
L436.104 570.24
L436.774 570.24
L437.443 570.564
L438.113 570.564
L438.782 570.24
L439.452 570.888
L440.122 570.888
L440.791 571.212
L441.461 571.212
L442.13 571.536
L443.47 571.536
L444.139 568.62
L444.809 562.788
L445.478 548.856
L446.148 528.768
L447.487 465.264
L448.826 384.264
L449.496 356.724
L450.166 322.38
L450.835 302.292
L452.174 275.076
L452.844 277.668
L453.514 275.4
L454.183 286.416
L454.853 288.036
L455.522 297.432
L456.192 323.352
L457.531 343.764
L458.201 343.764
L458.87 346.68
L459.54 361.584
L460.879 398.844
L461.549 399.492
L462.218 405.648
L462.888 410.508
L463.558 413.1
L464.227 409.86
L464.897 425.412
L465.566 425.088
L466.236 428.328
L466.906 439.668
L467.575 429.3
L468.245 429.624
L468.914 439.02
L469.584 437.4
L470.254 432.216
L470.923 444.204
L471.593 446.472
L472.262 434.808
L472.932 441.936
L473.602 434.808
L474.941 437.4
L475.61 431.568
L476.28 423.468
L476.95 439.02
L477.619 423.144
L478.289 425.088
L478.958 423.144
L479.628 418.932
L480.298 410.184
L480.967 410.508
L481.637 417.96
L482.306 420.552
L482.976 406.62
L483.646 408.564
L484.315 409.536
L484.985 400.464
L485.654 395.604
L486.324 403.704
L486.994 389.124
L487.663 383.292
L488.333 371.628
L489.002 379.08
L489.672 381.996
L490.342 369.36
L491.011 383.292
L491.681 377.46
L492.35 376.164
L493.02 380.052
L493.69 375.84
L494.359 375.84
L495.029 372.276
L495.698 374.868
L496.368 368.712
L497.038 353.808
L497.707 358.344
L498.377 352.512
L499.046 351.864
L499.716 349.272
L500.386 348.948
L501.055 335.988
L501.725 342.792
L502.394 347.976
L503.064 346.356
L503.734 337.284
L504.403 333.072
L505.073 338.58
L505.742 340.848
L506.412 346.68
L507.082 354.78
L507.751 349.596
L509.09 325.944
L509.76 329.184
L510.43 331.452
L511.099 328.212
L511.769 328.536
L512.438 326.268
L513.108 334.368
L513.778 320.112
L514.447 326.916
L515.117 340.848
L515.786 332.748
L516.456 336.96
L517.126 333.396
L517.795 333.396
L518.465 328.536
L519.134 314.604
L519.804 315.252
L520.474 311.688
L521.143 314.604
L521.813 315.9
L522.482 312.012
L523.152 305.532
L523.822 314.928
L524.491 317.196
L525.161 306.504
L525.83 298.08
L526.5 296.784
L527.17 305.856
L527.839 311.688
L528.509 306.828
L529.178 306.18
L529.848 304.884
L530.518 309.744
L531.857 311.04
L532.526 309.744
L533.866 302.616
L534.535 306.18
L535.205 302.292
L535.874 303.588
L536.544 304.236
L537.214 294.192
L537.883 297.756
L538.553 311.364
L539.222 320.436
L539.892 320.76
L540.562 324.972
L541.231 315.252
L541.901 318.492
L542.57 308.772
L543.24 292.248
L543.91 302.94
L544.579 300.024
L545.249 288.36
L545.918 288.684
L546.588 292.896
L547.258 293.22
L547.927 279.612
L548.597 287.388
L549.266 286.74
L549.936 283.824
L550.606 286.416
L551.275 275.076
L551.945 276.372
L552.614 277.02
L553.284 266.328
L553.954 268.596
L554.623 278.316
L555.293 280.908
L555.962 281.556
L556.632 277.992
L557.971 285.12
L558.641 285.768
L559.31 289.656
L559.98 282.852
L560.65 284.796
L561.319 270.864
L561.989 268.92
L562.658 269.568
L563.328 273.132
L563.998 270.864
L564.667 263.412
L565.337 265.032
L566.006 258.876
L567.346 269.244
L568.015 264.384
L568.685 265.356
L569.354 256.284
L570.024 263.736
L570.694 251.424
L571.363 252.72
L572.033 246.564
L572.702 248.184
L573.372 250.452
L574.042 251.748
L574.711 246.24
L575.381 242.676
L576.05 243.324
L576.72 246.564
L577.39 246.888
L578.059 248.184
L578.729 247.86
L579.398 236.196
L580.068 239.436
L580.738 244.62
L581.407 243.324
L582.077 249.48
L582.746 249.156
L583.416 247.86
L584.086 229.068
L584.755 224.208
L585.425 231.66
L586.094 232.308
L586.764 227.124
L587.434 230.04
L588.103 224.532
L588.773 225.828
L589.442 217.08
L590.112 224.208
L590.782 223.56
L591.451 209.304
L592.121 227.448
L592.79 225.828
L593.46 218.052
L594.13 218.052
L594.799 213.192
L595.469 205.416
L596.138 204.444
L596.808 202.824
L597.478 209.304
L598.147 212.22
L598.817 216.432
L599.486 205.416
L600.156 203.148
L600.826 208.332
L601.495 210.6
L602.165 193.104
L602.834 190.512
L603.504 186.624
L604.174 195.372
L604.843 196.02
L605.513 198.288
L606.852 212.22
L607.522 204.768
L608.191 205.416
L608.861 208.008
L609.53 213.84
L610.2 203.472
L610.87 201.204
L611.539 204.444
L612.209 206.712
L612.878 209.628
L613.548 206.064
L614.218 203.796
L615.557 209.304
L616.226 210.924
L616.896 204.768
L617.566 211.572
L618.235 205.416
L618.905 196.344
L620.244 196.992
L620.914 188.244
L622.253 195.048
L622.922 187.596
L623.592 191.16
L624.262 194.076
L624.931 189.216
L625.601 188.892
L626.27 186.948
L626.94 175.932
L627.61 174.312
L628.279 180.792
L628.949 192.78
L630.288 178.524
L630.958 173.016
L631.627 166.212
L632.297 172.692
L632.966 175.932
L633.636 181.44
L634.306 176.256
L634.975 178.848
L635.645 176.256
L636.314 174.96
L636.984 171.396
L637.654 176.58
L638.323 176.904
L638.993 174.312
L639.662 176.256
L640.332 169.128
L641.002 163.296
L641.671 164.916
L642.341 168.804
L643.01 178.848
L643.68 166.212
L644.35 160.38
L645.019 171.396
L645.689 166.86
L646.358 161.352
L647.028 151.308
L648.367 158.112
L649.037 158.76
L649.706 160.056
L650.376 161.028
L651.046 156.168
L651.715 153.576
L652.385 155.844
L653.054 156.816
L653.724 161.028
L655.063 157.464
L655.733 158.112
L656.402 151.956
L657.072 155.52
L657.742 144.504
L658.411 143.208
L659.081 153.252
L659.75 149.364
L660.42 143.532
L661.09 136.08
L661.759 129.924
L662.429 134.136
L663.098 137.376
L663.768 134.784
L664.438 147.42
L665.107 141.912
L665.777 144.18
L666.446 149.688
L667.116 149.04
L667.786 152.28
L668.455 148.716
L670.464 148.716
L671.134 140.616
L671.803 140.616
L672.473 137.7
L673.142 136.404
L673.812 136.404
L674.482 145.476
L675.151 142.884
L675.821 152.604
L676.49 153.252
L677.16 145.8
L677.83 141.588
L678.499 142.236
L679.169 139.968
L679.838 143.532
L680.508 141.912
L681.178 144.18
L681.847 134.46
L682.517 136.08
L683.186 133.164
L683.856 138.348
L684.526 140.616
L685.195 144.828
L685.865 143.532
L686.534 140.616
L687.204 145.8
L687.874 137.052
L688.543 139.644
L689.213 136.728
L689.882 138.672
L690.552 133.812
L691.222 135.756
L691.891 140.616
L692.561 140.616
L693.23 141.264
L694.57 129.6
L695.239 130.248
L695.909 140.292
L696.578 140.292
L697.248 143.532
L698.587 144.18
L699.257 148.068
L700.596 154.224
L701.266 155.52
L701.935 145.8
L702.605 141.264
L703.274 148.392
L703.944 148.392
L704.614 144.828
L705.283 143.208
L705.953 145.152
L706.622 148.716
L707.292 145.8
L707.962 148.068
L708.631 149.688
L709.301 150.66
L709.97 156.168
L710.64 158.76
L711.31 157.464
L711.979 151.308
L712.649 150.66
L713.318 152.28
L713.988 151.632
L714.658 148.716
L715.327 151.308
L715.997 146.124
L716.666 146.124
L717.336 155.196
L718.006 158.112
L718.675 156.816
L719.345 150.66
L720.014 152.928
L720.684 153.252
L721.354 158.436
L722.023 152.604
L722.693 152.28
L723.362 152.928
L724.032 156.816
L724.702 157.788
L725.371 162.324
L726.041 159.084
L726.71 165.24
L727.38 169.452
L728.05 171.072
L728.719 178.2
L729.389 182.736
L730.058 189.216
L730.728 182.412
L731.398 179.82
L732.067 185.652
L732.737 182.412
L733.406 182.088
L734.076 183.384
L734.746 188.568
L735.415 186.948
L736.085 186.624
L736.754 185.652
L737.424 182.412
L739.433 188.244
L740.102 192.132
L740.772 191.808
L742.111 197.964
L742.781 196.992
L743.45 199.26
L744.12 193.752
L744.79 192.78
L745.459 194.4
L746.129 192.78
L746.798 199.26
L747.468 195.372
L748.138 197.964
L748.807 196.992
L749.477 202.176
L750.146 200.556
L750.816 197.64
L751.486 198.288
L752.155 195.696
L753.494 204.12
L754.164 212.544
L755.503 221.292
L756.173 222.264
L757.512 227.448
L758.182 236.52
L758.851 237.492
L759.521 233.928
L760.19 231.984
L760.86 233.604
L761.53 234.252
L762.199 233.604
L762.869 234.252
L763.538 236.52
L764.208 233.28
L764.878 241.38
L765.547 243
L766.217 243.324
L766.886 244.944
L767.556 245.916
L768.226 241.704
L768.895 242.676
L769.565 241.704
L770.234 239.436
L770.904 239.76
L771.574 239.436
L772.243 238.14
L772.913 243.972
L773.582 243
L774.252 247.86
L774.922 246.888
L775.591 254.34
L776.93 256.284
L777.6 258.552
L777.6 258.552" style="fill:none;stroke:#0000ff;stroke-linecap:square;"/>
   </g>
   <g id="patch_3">
    <path d="
M108 583.2
L777.6 583.2" style="fill:none;stroke:#000000;stroke-linecap:square;stroke-linejoin:miter;"/>
   </g>
   <g id="patch_4">
    <path d="
M108 583.2
L108 64.8" style="fill:none;stroke:#000000;stroke-linecap:square;stroke-linejoin:miter;"/>
   </g>
   <g id="patch_5">
    <path d="
M777.6 583.2
L777.6 64.8" style="fill:none;stroke:#000000;stroke-linecap:square;stroke-linejoin:miter;"/>
   </g>
   <g id="patch_6">
    <path d="
M108 64.8
L777.6 64.8" style="fill:none;stroke:#000000;stroke-linecap:square;stroke-linejoin:miter;"/>
   </g>
   <g id="matplotlib.axis_1">
    <g id="xtick_1">
     <g id="line2d_4">
      <defs>
       <path d="
M0 0
L0 -4" id="mc7db9fdffb" style="stroke:#000000;stroke-width:0.5;"/>
      </defs>
      <g>
       <use style="stroke:#000000;stroke-width:0.5;" x="108.0" xlink:href="#mc7db9fdffb" y="583.2"/>
      </g>
     </g>
     <g id="line2d_5">
      <defs>
       <path d="
M0 0
L0 4" id="m5a7d422ac3" style="stroke:#000000;stroke-width:0.5;"/>
      </defs>
      <g>
       <use style="stroke:#000000;stroke-width:0.5;" x="108.0" xlink:href="#m5a7d422ac3" y="64.8"/>
      </g>
     </g>
     <g id="text_1">
      <!-- 0 -->
      <defs>
       <path d="
M31.7812 66.4062
Q24.1719 66.4062 20.3281 58.9062
Q16.5 51.4219 16.5 36.375
Q16.5 21.3906 20.3281 13.8906
Q24.1719 6.39062 31.7812 6.39062
Q39.4531 6.39062 43.2812 13.8906
Q47.125 21.3906 47.125 36.375
Q47.125 51.4219 43.2812 58.9062
Q39.4531 66.4062 31.7812 66.4062
M31.7812 74.2188
Q44.0469 74.2188 50.5156 64.5156
Q56.9844 54.8281 56.9844 36.375
Q56.9844 17.9688 50.5156 8.26562
Q44.0469 -1.42188 31.7812 -1.42188
Q19.5312 -1.42188 13.0625 8.26562
Q6.59375 17.9688 6.59375 36.375
Q6.59375 54.8281 13.0625 64.5156
Q19.5312 74.2188 31.7812 74.2188" id="BitstreamVeraSans-Roman-30"/>
      </defs>
      <g transform="translate(104.9765625 596.318125)scale(0.12 -0.12)">
       <use xlink:href="#BitstreamVeraSans-Roman-30"/>
      </g>
     </g>
    </g>
    <g id="xtick_2">
     <g id="line2d_6">
      <g>
       <use style="stroke:#000000;stroke-width:0.5;" x="275.4" xlink:href="#mc7db9fdffb" y="583.2"/>
      </g>
     </g>
     <g id="line2d_7">
      <g>
       <use style="stroke:#000000;stroke-width:0.5;" x="275.4" xlink:href="#m5a7d422ac3" y="64.8"/>
      </g>
     </g>
     <g id="text_2">
      <!-- 50000 -->
      <defs>
       <path d="
M10.7969 72.9062
L49.5156 72.9062
L49.5156 64.5938
L19.8281 64.5938
L19.8281 46.7344
Q21.9688 47.4688 24.1094 47.8281
Q26.2656 48.1875 28.4219 48.1875
Q40.625 48.1875 47.75 41.5
Q54.8906 34.8125 54.8906 23.3906
Q54.8906 11.625 47.5625 5.09375
Q40.2344 -1.42188 26.9062 -1.42188
Q22.3125 -1.42188 17.5469 -0.640625
Q12.7969 0.140625 7.71875 1.70312
L7.71875 11.625
Q12.1094 9.23438 16.7969 8.0625
Q21.4844 6.89062 26.7031 6.89062
Q35.1562 6.89062 40.0781 11.3281
Q45.0156 15.7656 45.0156 23.3906
Q45.0156 31 40.0781 35.4375
Q35.1562 39.8906 26.7031 39.8906
Q22.75 39.8906 18.8125 39.0156
Q14.8906 38.1406 10.7969 36.2812
z
" id="BitstreamVeraSans-Roman-35"/>
      </defs>
      <g transform="translate(257.1740625 596.318125)scale(0.12 -0.12)">
       <use xlink:href="#BitstreamVeraSans-Roman-35"/>
       <use x="63.623046875" xlink:href="#BitstreamVeraSans-Roman-30"/>
       <use x="127.24609375" xlink:href="#BitstreamVeraSans-Roman-30"/>
       <use x="190.869140625" xlink:href="#BitstreamVeraSans-Roman-30"/>
       <use x="254.4921875" xlink:href="#BitstreamVeraSans-Roman-30"/>
      </g>
     </g>
    </g>
    <g id="xtick_3">
     <g id="line2d_8">
      <g>
       <use style="stroke:#000000;stroke-width:0.5;" x="442.8" xlink:href="#mc7db9fdffb" y="583.2"/>
      </g>
     </g>
     <g id="line2d_9">
      <g>
       <use style="stroke:#000000;stroke-width:0.5;" x="442.8" xlink:href="#m5a7d422ac3" y="64.8"/>
      </g>
     </g>
     <g id="text_3">
      <!-- 100000 -->
      <defs>
       <path d="
M12.4062 8.29688
L28.5156 8.29688
L28.5156 63.9219
L10.9844 60.4062
L10.9844 69.3906
L28.4219 72.9062
L38.2812 72.9062
L38.2812 8.29688
L54.3906 8.29688
L54.3906 0
L12.4062 0
z
" id="BitstreamVeraSans-Roman-31"/>
      </defs>
      <g transform="translate(420.9525 596.318125)scale(0.12 -0.12)">
       <use xlink:href="#BitstreamVeraSans-Roman-31"/>
       <use x="63.623046875" xlink:href="#BitstreamVeraSans-Roman-30"/>
       <use x="127.24609375" xlink:href="#BitstreamVeraSans-Roman-30"/>
       <use x="190.869140625" xlink:href="#BitstreamVeraSans-Roman-30"/>
       <use x="254.4921875" xlink:href="#BitstreamVeraSans-Roman-30"/>
       <use x="318.115234375" xlink:href="#BitstreamVeraSans-Roman-30"/>
      </g>
     </g>
    </g>
    <g id="xtick_4">
     <g id="line2d_10">
      <g>
       <use style="stroke:#000000;stroke-width:0.5;" x="610.2" xlink:href="#mc7db9fdffb" y="583.2"/>
      </g>
     </g>
     <g id="line2d_11">
      <g>
       <use style="stroke:#000000;stroke-width:0.5;" x="610.2" xlink:href="#m5a7d422ac3" y="64.8"/>
      </g>
     </g>
     <g id="text_4">
      <!-- 150000 -->
      <g transform="translate(588.3525 596.318125)scale(0.12 -0.12)">
       <use xlink:href="#BitstreamVeraSans-Roman-31"/>
       <use x="63.623046875" xlink:href="#BitstreamVeraSans-Roman-35"/>
       <use x="127.24609375" xlink:href="#BitstreamVeraSans-Roman-30"/>
       <use x="190.869140625" xlink:href="#BitstreamVeraSans-Roman-30"/>
       <use x="254.4921875" xlink:href="#BitstreamVeraSans-Roman-30"/>
       <use x="318.115234375" xlink:href="#BitstreamVeraSans-Roman-30"/>
      </g>
     </g>
    </g>
    <g id="xtick_5">
     <g id="line2d_12">
      <g>
       <use style="stroke:#000000;stroke-width:0.5;" x="777.6" xlink:href="#mc7db9fdffb" y="583.2"/>
      </g>
     </g>
     <g id="line2d_13">
      <g>
       <use style="stroke:#000000;stroke-width:0.5;" x="777.6" xlink:href="#m5a7d422ac3" y="64.8"/>
      </g>
     </g>
     <g id="text_5">
      <!-- 200000 -->
      <defs>
       <path d="
M19.1875 8.29688
L53.6094 8.29688
L53.6094 0
L7.32812 0
L7.32812 8.29688
Q12.9375 14.1094 22.625 23.8906
Q32.3281 33.6875 34.8125 36.5312
Q39.5469 41.8438 41.4219 45.5312
Q43.3125 49.2188 43.3125 52.7812
Q43.3125 58.5938 39.2344 62.25
Q35.1562 65.9219 28.6094 65.9219
Q23.9688 65.9219 18.8125 64.3125
Q13.6719 62.7031 7.8125 59.4219
L7.8125 69.3906
Q13.7656 71.7812 18.9375 73
Q24.125 74.2188 28.4219 74.2188
Q39.75 74.2188 46.4844 68.5469
Q53.2188 62.8906 53.2188 53.4219
Q53.2188 48.9219 51.5312 44.8906
Q49.8594 40.875 45.4062 35.4062
Q44.1875 33.9844 37.6406 27.2188
Q31.1094 20.4531 19.1875 8.29688" id="BitstreamVeraSans-Roman-32"/>
      </defs>
      <g transform="translate(755.533125 596.318125)scale(0.12 -0.12)">
       <use xlink:href="#BitstreamVeraSans-Roman-32"/>
       <use x="63.623046875" xlink:href="#BitstreamVeraSans-Roman-30"/>
       <use x="127.24609375" xlink:href="#BitstreamVeraSans-Roman-30"/>
       <use x="190.869140625" xlink:href="#BitstreamVeraSans-Roman-30"/>
       <use x="254.4921875" xlink:href="#BitstreamVeraSans-Roman-30"/>
       <use x="318.115234375" xlink:href="#BitstreamVeraSans-Roman-30"/>
      </g>
     </g>
    </g>
    <g id="text_6">
     <!-- t / ms -->
     <defs>
      <path id="BitstreamVeraSans-Roman-20"/>
      <path d="
M25.3906 72.9062
L33.6875 72.9062
L8.29688 -9.28125
L0 -9.28125
z
" id="BitstreamVeraSans-Roman-2f"/>
      <path d="
M18.3125 70.2188
L18.3125 54.6875
L36.8125 54.6875
L36.8125 47.7031
L18.3125 47.7031
L18.3125 18.0156
Q18.3125 11.3281 20.1406 9.42188
Q21.9688 7.51562 27.5938 7.51562
L36.8125 7.51562
L36.8125 0
L27.5938 0
Q17.1875 0 13.2344 3.875
Q9.28125 7.76562 9.28125 18.0156
L9.28125 47.7031
L2.6875 47.7031
L2.6875 54.6875
L9.28125 54.6875
L9.28125 70.2188
z
" id="BitstreamVeraSans-Roman-74"/>
      <path d="
M44.2812 53.0781
L44.2812 44.5781
Q40.4844 46.5312 36.375 47.5
Q32.2812 48.4844 27.875 48.4844
Q21.1875 48.4844 17.8438 46.4375
Q14.5 44.3906 14.5 40.2812
Q14.5 37.1562 16.8906 35.375
Q19.2812 33.5938 26.5156 31.9844
L29.5938 31.2969
Q39.1562 29.25 43.1875 25.5156
Q47.2188 21.7812 47.2188 15.0938
Q47.2188 7.46875 41.1875 3.01562
Q35.1562 -1.42188 24.6094 -1.42188
Q20.2188 -1.42188 15.4531 -0.5625
Q10.6875 0.296875 5.42188 2
L5.42188 11.2812
Q10.4062 8.6875 15.2344 7.39062
Q20.0625 6.10938 24.8125 6.10938
Q31.1562 6.10938 34.5625 8.28125
Q37.9844 10.4531 37.9844 14.4062
Q37.9844 18.0625 35.5156 20.0156
Q33.0625 21.9688 24.7031 23.7812
L21.5781 24.5156
Q13.2344 26.2656 9.51562 29.9062
Q5.8125 33.5469 5.8125 39.8906
Q5.8125 47.6094 11.2812 51.7969
Q16.75 56 26.8125 56
Q31.7812 56 36.1719 55.2656
Q40.5781 54.5469 44.2812 53.0781" id="BitstreamVeraSans-Roman-73"/>
      <path d="
M52 44.1875
Q55.375 50.25 60.0625 53.125
Q64.75 56 71.0938 56
Q79.6406 56 84.2812 50.0156
Q88.9219 44.0469 88.9219 33.0156
L88.9219 0
L79.8906 0
L79.8906 32.7188
Q79.8906 40.5781 77.0938 44.375
Q74.3125 48.1875 68.6094 48.1875
Q61.625 48.1875 57.5625 43.5469
Q53.5156 38.9219 53.5156 30.9062
L53.5156 0
L44.4844 0
L44.4844 32.7188
Q44.4844 40.625 41.7031 44.4062
Q38.9219 48.1875 33.1094 48.1875
Q26.2188 48.1875 22.1562 43.5312
Q18.1094 38.875 18.1094 30.9062
L18.1094 0
L9.07812 0
L9.07812 54.6875
L18.1094 54.6875
L18.1094 46.1875
Q21.1875 51.2188 25.4844 53.6094
Q29.7812 56 35.6875 56
Q41.6562 56 45.8281 52.9688
Q50 49.9531 52 44.1875" id="BitstreamVeraSans-Roman-6d"/>
     </defs>
     <g transform="translate(425.9353125 612.931875)scale(0.12 -0.12)">
      <use xlink:href="#BitstreamVeraSans-Roman-74"/>
      <use x="39.208984375" xlink:href="#BitstreamVeraSans-Roman-20"/>
      <use x="70.99609375" xlink:href="#BitstreamVeraSans-Roman-2f"/>
      <use x="104.6875" xlink:href="#BitstreamVeraSans-Roman-20"/>
      <use x="136.474609375" xlink:href="#BitstreamVeraSans-Roman-6d"/>
      <use x="233.88671875" xlink:href="#BitstreamVeraSans-Roman-73"/>
     </g>
    </g>
   </g>
   <g id="matplotlib.axis_2">
    <g id="ytick_1">
     <g id="line2d_14">
      <defs>
       <path d="
M0 0
L4 0" id="md7965d1ba0" style="stroke:#000000;stroke-width:0.5;"/>
      </defs>
      <g>
       <use style="stroke:#000000;stroke-width:0.5;" x="108.0" xlink:href="#md7965d1ba0" y="583.2"/>
      </g>
     </g>
     <g id="line2d_15">
      <defs>
       <path d="
M0 0
L-4 0" id="md9a1c1a7cd" style="stroke:#000000;stroke-width:0.5;"/>
      </defs>
      <g>
       <use style="stroke:#000000;stroke-width:0.5;" x="777.6" xlink:href="#md9a1c1a7cd" y="583.2"/>
      </g>
     </g>
     <g id="text_7">
      <!-- 0 -->
      <g transform="translate(97.953125 586.51125)scale(0.12 -0.12)">
       <use xlink:href="#BitstreamVeraSans-Roman-30"/>
      </g>
     </g>
    </g>
    <g id="ytick_2">
     <g id="line2d_16">
      <g>
       <use style="stroke:#000000;stroke-width:0.5;" x="108.0" xlink:href="#md7965d1ba0" y="518.4"/>
      </g>
     </g>
     <g id="line2d_17">
      <g>
       <use style="stroke:#000000;stroke-width:0.5;" x="777.6" xlink:href="#md9a1c1a7cd" y="518.4"/>
      </g>
     </g>
     <g id="text_8">
      <!-- 200 -->
      <g transform="translate(82.77125 521.71125)scale(0.12 -0.12)">
       <use xlink:href="#BitstreamVeraSans-Roman-32"/>
       <use x="63.623046875" xlink:href="#BitstreamVeraSans-Roman-30"/>
       <use x="127.24609375" xlink:href="#BitstreamVeraSans-Roman-30"/>
      </g>
     </g>
    </g>
    <g id="ytick_3">
     <g id="line2d_18">
      <g>
       <use style="stroke:#000000;stroke-width:0.5;" x="108.0" xlink:href="#md7965d1ba0" y="453.6"/>
      </g>
     </g>
     <g id="line2d_19">
      <g>
       <use style="stroke:#000000;stroke-width:0.5;" x="777.6" xlink:href="#md9a1c1a7cd" y="453.6"/>
      </g>
     </g>
     <g id="text_9">
      <!-- 400 -->
      <defs>
       <path d="
M37.7969 64.3125
L12.8906 25.3906
L37.7969 25.3906
z

M35.2031 72.9062
L47.6094 72.9062
L47.6094 25.3906
L58.0156 25.3906
L58.0156 17.1875
L47.6094 17.1875
L47.6094 0
L37.7969 0
L37.7969 17.1875
L4.89062 17.1875
L4.89062 26.7031
z
" id="BitstreamVeraSans-Roman-34"/>
      </defs>
      <g transform="translate(82.47875 456.91125)scale(0.12 -0.12)">
       <use xlink:href="#BitstreamVeraSans-Roman-34"/>
       <use x="63.623046875" xlink:href="#BitstreamVeraSans-Roman-30"/>
       <use x="127.24609375" xlink:href="#BitstreamVeraSans-Roman-30"/>
      </g>
     </g>
    </g>
    <g id="ytick_4">
     <g id="line2d_20">
      <g>
       <use style="stroke:#000000;stroke-width:0.5;" x="108.0" xlink:href="#md7965d1ba0" y="388.8"/>
      </g>
     </g>
     <g id="line2d_21">
      <g>
       <use style="stroke:#000000;stroke-width:0.5;" x="777.6" xlink:href="#md9a1c1a7cd" y="388.8"/>
      </g>
     </g>
     <g id="text_10">
      <!-- 600 -->
      <defs>
       <path d="
M33.0156 40.375
Q26.375 40.375 22.4844 35.8281
Q18.6094 31.2969 18.6094 23.3906
Q18.6094 15.5312 22.4844 10.9531
Q26.375 6.39062 33.0156 6.39062
Q39.6562 6.39062 43.5312 10.9531
Q47.4062 15.5312 47.4062 23.3906
Q47.4062 31.2969 43.5312 35.8281
Q39.6562 40.375 33.0156 40.375
M52.5938 71.2969
L52.5938 62.3125
Q48.875 64.0625 45.0938 64.9844
Q41.3125 65.9219 37.5938 65.9219
Q27.8281 65.9219 22.6719 59.3281
Q17.5312 52.7344 16.7969 39.4062
Q19.6719 43.6562 24.0156 45.9219
Q28.375 48.1875 33.5938 48.1875
Q44.5781 48.1875 50.9531 41.5156
Q57.3281 34.8594 57.3281 23.3906
Q57.3281 12.1562 50.6875 5.35938
Q44.0469 -1.42188 33.0156 -1.42188
Q20.3594 -1.42188 13.6719 8.26562
Q6.98438 17.9688 6.98438 36.375
Q6.98438 53.6562 15.1875 63.9375
Q23.3906 74.2188 37.2031 74.2188
Q40.9219 74.2188 44.7031 73.4844
Q48.4844 72.75 52.5938 71.2969" id="BitstreamVeraSans-Roman-36"/>
      </defs>
      <g transform="translate(82.73 392.11125)scale(0.12 -0.12)">
       <use xlink:href="#BitstreamVeraSans-Roman-36"/>
       <use x="63.623046875" xlink:href="#BitstreamVeraSans-Roman-30"/>
       <use x="127.24609375" xlink:href="#BitstreamVeraSans-Roman-30"/>
      </g>
     </g>
    </g>
    <g id="ytick_5">
     <g id="line2d_22">
      <g>
       <use style="stroke:#000000;stroke-width:0.5;" x="108.0" xlink:href="#md7965d1ba0" y="324.0"/>
      </g>
     </g>
     <g id="line2d_23">
      <g>
       <use style="stroke:#000000;stroke-width:0.5;" x="777.6" xlink:href="#md9a1c1a7cd" y="324.0"/>
      </g>
     </g>
     <g id="text_11">
      <!-- 800 -->
      <defs>
       <path d="
M31.7812 34.625
Q24.75 34.625 20.7188 30.8594
Q16.7031 27.0938 16.7031 20.5156
Q16.7031 13.9219 20.7188 10.1562
Q24.75 6.39062 31.7812 6.39062
Q38.8125 6.39062 42.8594 10.1719
Q46.9219 13.9688 46.9219 20.5156
Q46.9219 27.0938 42.8906 30.8594
Q38.875 34.625 31.7812 34.625
M21.9219 38.8125
Q15.5781 40.375 12.0312 44.7188
Q8.5 49.0781 8.5 55.3281
Q8.5 64.0625 14.7188 69.1406
Q20.9531 74.2188 31.7812 74.2188
Q42.6719 74.2188 48.875 69.1406
Q55.0781 64.0625 55.0781 55.3281
Q55.0781 49.0781 51.5312 44.7188
Q48 40.375 41.7031 38.8125
Q48.8281 37.1562 52.7969 32.3125
Q56.7812 27.4844 56.7812 20.5156
Q56.7812 9.90625 50.3125 4.23438
Q43.8438 -1.42188 31.7812 -1.42188
Q19.7344 -1.42188 13.25 4.23438
Q6.78125 9.90625 6.78125 20.5156
Q6.78125 27.4844 10.7812 32.3125
Q14.7969 37.1562 21.9219 38.8125
M18.3125 54.3906
Q18.3125 48.7344 21.8438 45.5625
Q25.3906 42.3906 31.7812 42.3906
Q38.1406 42.3906 41.7188 45.5625
Q45.3125 48.7344 45.3125 54.3906
Q45.3125 60.0625 41.7188 63.2344
Q38.1406 66.4062 31.7812 66.4062
Q25.3906 66.4062 21.8438 63.2344
Q18.3125 60.0625 18.3125 54.3906" id="BitstreamVeraSans-Roman-38"/>
      </defs>
      <g transform="translate(82.705625 327.31125)scale(0.12 -0.12)">
       <use xlink:href="#BitstreamVeraSans-Roman-38"/>
       <use x="63.623046875" xlink:href="#BitstreamVeraSans-Roman-30"/>
       <use x="127.24609375" xlink:href="#BitstreamVeraSans-Roman-30"/>
      </g>
     </g>
    </g>
    <g id="ytick_6">
     <g id="line2d_24">
      <g>
       <use style="stroke:#000000;stroke-width:0.5;" x="108.0" xlink:href="#md7965d1ba0" y="259.2"/>
      </g>
     </g>
     <g id="line2d_25">
      <g>
       <use style="stroke:#000000;stroke-width:0.5;" x="777.6" xlink:href="#md9a1c1a7cd" y="259.2"/>
      </g>
     </g>
     <g id="text_12">
      <!-- 1000 -->
      <g transform="translate(75.575 262.51125)scale(0.12 -0.12)">
       <use xlink:href="#BitstreamVeraSans-Roman-31"/>
       <use x="63.623046875" xlink:href="#BitstreamVeraSans-Roman-30"/>
       <use x="127.24609375" xlink:href="#BitstreamVeraSans-Roman-30"/>
       <use x="190.869140625" xlink:href="#BitstreamVeraSans-Roman-30"/>
      </g>
     </g>
    </g>
    <g id="ytick_7">
     <g id="line2d_26">
      <g>
       <use style="stroke:#000000;stroke-width:0.5;" x="108.0" xlink:href="#md7965d1ba0" y="194.4"/>
      </g>
     </g>
     <g id="line2d_27">
      <g>
       <use style="stroke:#000000;stroke-width:0.5;" x="777.6" xlink:href="#md9a1c1a7cd" y="194.4"/>
      </g>
     </g>
     <g id="text_13">
      <!-- 1200 -->
      <g transform="translate(75.575 197.71125)scale(0.12 -0.12)">
       <use xlink:href="#BitstreamVeraSans-Roman-31"/>
       <use x="63.623046875" xlink:href="#BitstreamVeraSans-Roman-32"/>
       <use x="127.24609375" xlink:href="#BitstreamVeraSans-Roman-30"/>
       <use x="190.869140625" xlink:href="#BitstreamVeraSans-Roman-30"/>
      </g>
     </g>
    </g>
    <g id="ytick_8">
     <g id="line2d_28">
      <g>
       <use style="stroke:#000000;stroke-width:0.5;" x="108.0" xlink:href="#md7965d1ba0" y="129.6"/>
      </g>
     </g>
     <g id="line2d_29">
      <g>
       <use style="stroke:#000000;stroke-width:0.5;" x="777.6" xlink:href="#md9a1c1a7cd" y="129.6"/>
      </g>
     </g>
     <g id="text_14">
      <!-- 1400 -->
      <g transform="translate(75.575 132.91125)scale(0.12 -0.12)">
       <use xlink:href="#BitstreamVeraSans-Roman-31"/>
       <use x="63.623046875" xlink:href="#BitstreamVeraSans-Roman-34"/>
       <use x="127.24609375" xlink:href="#BitstreamVeraSans-Roman-30"/>
       <use x="190.869140625" xlink:href="#BitstreamVeraSans-Roman-30"/>
      </g>
     </g>
    </g>
    <g id="ytick_9">
     <g id="line2d_30">
      <g>
       <use style="stroke:#000000;stroke-width:0.5;" x="108.0" xlink:href="#md7965d1ba0" y="64.8"/>
      </g>
     </g>
     <g id="line2d_31">
      <g>
       <use style="stroke:#000000;stroke-width:0.5;" x="777.6" xlink:href="#md9a1c1a7cd" y="64.8"/>
      </g>
     </g>
     <g id="text_15">
      <!-- 1600 -->
      <g transform="translate(75.575 68.11125)scale(0.12 -0.12)">
       <use xlink:href="#BitstreamVeraSans-Roman-31"/>
       <use x="63.623046875" xlink:href="#BitstreamVeraSans-Roman-36"/>
       <use x="127.24609375" xlink:href="#BitstreamVeraSans-Roman-30"/>
       <use x="190.869140625" xlink:href="#BitstreamVeraSans-Roman-30"/>
      </g>
     </g>
    </g>
    <g id="text_16">
     <!-- particle numbers -->
     <defs>
      <path d="
M41.1094 46.2969
Q39.5938 47.1719 37.8125 47.5781
Q36.0312 48 33.8906 48
Q26.2656 48 22.1875 43.0469
Q18.1094 38.0938 18.1094 28.8125
L18.1094 0
L9.07812 0
L9.07812 54.6875
L18.1094 54.6875
L18.1094 46.1875
Q20.9531 51.1719 25.4844 53.5781
Q30.0312 56 36.5312 56
Q37.4531 56 38.5781 55.875
Q39.7031 55.7656 41.0625 55.5156
z
" id="BitstreamVeraSans-Roman-72"/>
      <path d="
M9.42188 54.6875
L18.4062 54.6875
L18.4062 0
L9.42188 0
z

M9.42188 75.9844
L18.4062 75.9844
L18.4062 64.5938
L9.42188 64.5938
z
" id="BitstreamVeraSans-Roman-69"/>
      <path d="
M48.7812 52.5938
L48.7812 44.1875
Q44.9688 46.2969 41.1406 47.3438
Q37.3125 48.3906 33.4062 48.3906
Q24.6562 48.3906 19.8125 42.8438
Q14.9844 37.3125 14.9844 27.2969
Q14.9844 17.2812 19.8125 11.7344
Q24.6562 6.20312 33.4062 6.20312
Q37.3125 6.20312 41.1406 7.25
Q44.9688 8.29688 48.7812 10.4062
L48.7812 2.09375
Q45.0156 0.34375 40.9844 -0.53125
Q36.9688 -1.42188 32.4219 -1.42188
Q20.0625 -1.42188 12.7812 6.34375
Q5.51562 14.1094 5.51562 27.2969
Q5.51562 40.6719 12.8594 48.3281
Q20.2188 56 33.0156 56
Q37.1562 56 41.1094 55.1406
Q45.0625 54.2969 48.7812 52.5938" id="BitstreamVeraSans-Roman-63"/>
      <path d="
M48.6875 27.2969
Q48.6875 37.2031 44.6094 42.8438
Q40.5312 48.4844 33.4062 48.4844
Q26.2656 48.4844 22.1875 42.8438
Q18.1094 37.2031 18.1094 27.2969
Q18.1094 17.3906 22.1875 11.75
Q26.2656 6.10938 33.4062 6.10938
Q40.5312 6.10938 44.6094 11.75
Q48.6875 17.3906 48.6875 27.2969
M18.1094 46.3906
Q20.9531 51.2656 25.2656 53.625
Q29.5938 56 35.5938 56
Q45.5625 56 51.7812 48.0938
Q58.0156 40.1875 58.0156 27.2969
Q58.0156 14.4062 51.7812 6.48438
Q45.5625 -1.42188 35.5938 -1.42188
Q29.5938 -1.42188 25.2656 0.953125
Q20.9531 3.32812 18.1094 8.20312
L18.1094 0
L9.07812 0
L9.07812 75.9844
L18.1094 75.9844
z
" id="BitstreamVeraSans-Roman-62"/>
      <path d="
M9.42188 75.9844
L18.4062 75.9844
L18.4062 0
L9.42188 0
z
" id="BitstreamVeraSans-Roman-6c"/>
      <path d="
M8.5 21.5781
L8.5 54.6875
L17.4844 54.6875
L17.4844 21.9219
Q17.4844 14.1562 20.5 10.2656
Q23.5312 6.39062 29.5938 6.39062
Q36.8594 6.39062 41.0781 11.0312
Q45.3125 15.6719 45.3125 23.6875
L45.3125 54.6875
L54.2969 54.6875
L54.2969 0
L45.3125 0
L45.3125 8.40625
Q42.0469 3.42188 37.7188 1
Q33.4062 -1.42188 27.6875 -1.42188
Q18.2656 -1.42188 13.375 4.4375
Q8.5 10.2969 8.5 21.5781" id="BitstreamVeraSans-Roman-75"/>
      <path d="
M18.1094 8.20312
L18.1094 -20.7969
L9.07812 -20.7969
L9.07812 54.6875
L18.1094 54.6875
L18.1094 46.3906
Q20.9531 51.2656 25.2656 53.625
Q29.5938 56 35.5938 56
Q45.5625 56 51.7812 48.0938
Q58.0156 40.1875 58.0156 27.2969
Q58.0156 14.4062 51.7812 6.48438
Q45.5625 -1.42188 35.5938 -1.42188
Q29.5938 -1.42188 25.2656 0.953125
Q20.9531 3.32812 18.1094 8.20312
M48.6875 27.2969
Q48.6875 37.2031 44.6094 42.8438
Q40.5312 48.4844 33.4062 48.4844
Q26.2656 48.4844 22.1875 42.8438
Q18.1094 37.2031 18.1094 27.2969
Q18.1094 17.3906 22.1875 11.75
Q26.2656 6.10938 33.4062 6.10938
Q40.5312 6.10938 44.6094 11.75
Q48.6875 17.3906 48.6875 27.2969" id="BitstreamVeraSans-Roman-70"/>
      <path d="
M34.2812 27.4844
Q23.3906 27.4844 19.1875 25
Q14.9844 22.5156 14.9844 16.5
Q14.9844 11.7188 18.1406 8.90625
Q21.2969 6.10938 26.7031 6.10938
Q34.1875 6.10938 38.7031 11.4062
Q43.2188 16.7031 43.2188 25.4844
L43.2188 27.4844
z

M52.2031 31.2031
L52.2031 0
L43.2188 0
L43.2188 8.29688
Q40.1406 3.32812 35.5469 0.953125
Q30.9531 -1.42188 24.3125 -1.42188
Q15.9219 -1.42188 10.9531 3.29688
Q6 8.01562 6 15.9219
Q6 25.1406 12.1719 29.8281
Q18.3594 34.5156 30.6094 34.5156
L43.2188 34.5156
L43.2188 35.4062
Q43.2188 41.6094 39.1406 45
Q35.0625 48.3906 27.6875 48.3906
Q23 48.3906 18.5469 47.2656
Q14.1094 46.1406 10.0156 43.8906
L10.0156 52.2031
Q14.9375 54.1094 19.5781 55.0469
Q24.2188 56 28.6094 56
Q40.4844 56 46.3438 49.8438
Q52.2031 43.7031 52.2031 31.2031" id="BitstreamVeraSans-Roman-61"/>
      <path d="
M56.2031 29.5938
L56.2031 25.2031
L14.8906 25.2031
Q15.4844 15.9219 20.4844 11.0625
Q25.4844 6.20312 34.4219 6.20312
Q39.5938 6.20312 44.4531 7.46875
Q49.3125 8.73438 54.1094 11.2812
L54.1094 2.78125
Q49.2656 0.734375 44.1875 -0.34375
Q39.1094 -1.42188 33.8906 -1.42188
Q20.7969 -1.42188 13.1562 6.1875
Q5.51562 13.8125 5.51562 26.8125
Q5.51562 40.2344 12.7656 48.1094
Q20.0156 56 32.3281 56
Q43.3594 56 49.7812 48.8906
Q56.2031 41.7969 56.2031 29.5938
M47.2188 32.2344
Q47.125 39.5938 43.0938 43.9844
Q39.0625 48.3906 32.4219 48.3906
Q24.9062 48.3906 20.3906 44.1406
Q15.875 39.8906 15.1875 32.1719
z
" id="BitstreamVeraSans-Roman-65"/>
      <path d="
M54.8906 33.0156
L54.8906 0
L45.9062 0
L45.9062 32.7188
Q45.9062 40.4844 42.875 44.3281
Q39.8438 48.1875 33.7969 48.1875
Q26.5156 48.1875 22.3125 43.5469
Q18.1094 38.9219 18.1094 30.9062
L18.1094 0
L9.07812 0
L9.07812 54.6875
L18.1094 54.6875
L18.1094 46.1875
Q21.3438 51.125 25.7031 53.5625
Q30.0781 56 35.7969 56
Q45.2188 56 50.0469 50.1719
Q54.8906 44.3438 54.8906 33.0156" id="BitstreamVeraSans-Roman-6e"/>
     </defs>
     <g transform="translate(68.079375 374.78625)rotate(-90.0)scale(0.12 -0.12)">
      <use xlink:href="#BitstreamVeraSans-Roman-70"/>
      <use x="63.4765625" xlink:href="#BitstreamVeraSans-Roman-61"/>
      <use x="124.755859375" xlink:href="#BitstreamVeraSans-Roman-72"/>
      <use x="165.869140625" xlink:href="#BitstreamVeraSans-Roman-74"/>
      <use x="205.078125" xlink:href="#BitstreamVeraSans-Roman-69"/>
      <use x="232.861328125" xlink:href="#BitstreamVeraSans-Roman-63"/>
      <use x="287.841796875" xlink:href="#BitstreamVeraSans-Roman-6c"/>
      <use x="315.625" xlink:href="#BitstreamVeraSans-Roman-65"/>
      <use x="377.1484375" xlink:href="#BitstreamVeraSans-Roman-20"/>
      <use x="408.935546875" xlink:href="#BitstreamVeraSans-Roman-6e"/>
      <use x="472.314453125" xlink:href="#BitstreamVeraSans-Roman-75"/>
      <use x="535.693359375" xlink:href="#BitstreamVeraSans-Roman-6d"/>
      <use x="633.10546875" xlink:href="#BitstreamVeraSans-Roman-62"/>
      <use x="696.58203125" xlink:href="#BitstreamVeraSans-Roman-65"/>
      <use x="758.10546875" xlink:href="#BitstreamVeraSans-Roman-72"/>
      <use x="799.21875" xlink:href="#BitstreamVeraSans-Roman-73"/>
     </g>
    </g>
   </g>
   <g id="legend_1">
    <g id="patch_7">
     <path d="
M697.504 101.224
L774.1 101.224
L774.1 68.3
L697.504 68.3
z
" style="fill:#ffffff;stroke:#000000;stroke-linejoin:miter;"/>
    </g>
    <g id="line2d_32">
     <path d="
M702.404 73.9689
L712.204 73.9689" style="fill:none;stroke:#ff0000;stroke-linecap:square;"/>
    </g>
    <g id="line2d_33"/>
    <g id="text_17">
     <!-- PKAcAMP2 el.0 -->
     <defs>
      <path d="
M10.6875 12.4062
L21 12.4062
L21 0
L10.6875 0
z
" id="BitstreamVeraSans-Roman-2e"/>
      <path d="
M19.6719 64.7969
L19.6719 37.4062
L32.0781 37.4062
Q38.9688 37.4062 42.7188 40.9688
Q46.4844 44.5312 46.4844 51.125
Q46.4844 57.6719 42.7188 61.2344
Q38.9688 64.7969 32.0781 64.7969
z

M9.8125 72.9062
L32.0781 72.9062
Q44.3438 72.9062 50.6094 67.3594
Q56.8906 61.8125 56.8906 51.125
Q56.8906 40.3281 50.6094 34.8125
Q44.3438 29.2969 32.0781 29.2969
L19.6719 29.2969
L19.6719 0
L9.8125 0
z
" id="BitstreamVeraSans-Roman-50"/>
      <path d="
M34.1875 63.1875
L20.7969 26.9062
L47.6094 26.9062
z

M28.6094 72.9062
L39.7969 72.9062
L67.5781 0
L57.3281 0
L50.6875 18.7031
L17.8281 18.7031
L11.1875 0
L0.78125 0
z
" id="BitstreamVeraSans-Roman-41"/>
      <path d="
M9.8125 72.9062
L19.6719 72.9062
L19.6719 42.0938
L52.3906 72.9062
L65.0938 72.9062
L28.9062 38.9219
L67.6719 0
L54.6875 0
L19.6719 35.1094
L19.6719 0
L9.8125 0
z
" id="BitstreamVeraSans-Roman-4b"/>
      <path d="
M9.8125 72.9062
L24.5156 72.9062
L43.1094 23.2969
L61.8125 72.9062
L76.5156 72.9062
L76.5156 0
L66.8906 0
L66.8906 64.0156
L48.0938 14.0156
L38.1875 14.0156
L19.3906 64.0156
L19.3906 0
L9.8125 0
z
" id="BitstreamVeraSans-Roman-4d"/>
     </defs>
     <g transform="translate(719.90359375 76.41890625)scale(0.07 -0.07)">
      <use xlink:href="#BitstreamVeraSans-Roman-50"/>
      <use x="60.302734375" xlink:href="#BitstreamVeraSans-Roman-4b"/>
      <use x="124.12890625" xlink:href="#BitstreamVeraSans-Roman-41"/>
      <use x="190.787109375" xlink:href="#BitstreamVeraSans-Roman-63"/>
      <use x="245.767578125" xlink:href="#BitstreamVeraSans-Roman-41"/>
      <use x="314.17578125" xlink:href="#BitstreamVeraSans-Roman-4d"/>
      <use x="400.455078125" xlink:href="#BitstreamVeraSans-Roman-50"/>
      <use x="460.7578125" xlink:href="#BitstreamVeraSans-Roman-32"/>
      <use x="524.380859375" xlink:href="#BitstreamVeraSans-Roman-20"/>
      <use x="556.16796875" xlink:href="#BitstreamVeraSans-Roman-65"/>
      <use x="617.69140625" xlink:href="#BitstreamVeraSans-Roman-6c"/>
      <use x="645.474609375" xlink:href="#BitstreamVeraSans-Roman-2e"/>
      <use x="677.26171875" xlink:href="#BitstreamVeraSans-Roman-30"/>
     </g>
    </g>
    <g id="line2d_34">
     <path d="
M702.404 84.2436
L712.204 84.2436" style="fill:none;stroke:#008000;stroke-linecap:square;"/>
    </g>
    <g id="line2d_35"/>
    <g id="text_18">
     <!-- PKAcAMP2 el.1 -->
     <g transform="translate(719.90359375 86.69359375)scale(0.07 -0.07)">
      <use xlink:href="#BitstreamVeraSans-Roman-50"/>
      <use x="60.302734375" xlink:href="#BitstreamVeraSans-Roman-4b"/>
      <use x="124.12890625" xlink:href="#BitstreamVeraSans-Roman-41"/>
      <use x="190.787109375" xlink:href="#BitstreamVeraSans-Roman-63"/>
      <use x="245.767578125" xlink:href="#BitstreamVeraSans-Roman-41"/>
      <use x="314.17578125" xlink:href="#BitstreamVeraSans-Roman-4d"/>
      <use x="400.455078125" xlink:href="#BitstreamVeraSans-Roman-50"/>
      <use x="460.7578125" xlink:href="#BitstreamVeraSans-Roman-32"/>
      <use x="524.380859375" xlink:href="#BitstreamVeraSans-Roman-20"/>
      <use x="556.16796875" xlink:href="#BitstreamVeraSans-Roman-65"/>
      <use x="617.69140625" xlink:href="#BitstreamVeraSans-Roman-6c"/>
      <use x="645.474609375" xlink:href="#BitstreamVeraSans-Roman-2e"/>
      <use x="677.26171875" xlink:href="#BitstreamVeraSans-Roman-31"/>
     </g>
    </g>
    <g id="line2d_36">
     <path d="
M702.404 94.5183
L712.204 94.5183" style="fill:none;stroke:#0000ff;stroke-linecap:square;"/>
    </g>
    <g id="line2d_37"/>
    <g id="text_19">
     <!-- PKAcAMP2 el.2 -->
     <g transform="translate(719.90359375 96.96828125)scale(0.07 -0.07)">
      <use xlink:href="#BitstreamVeraSans-Roman-50"/>
      <use x="60.302734375" xlink:href="#BitstreamVeraSans-Roman-4b"/>
      <use x="124.12890625" xlink:href="#BitstreamVeraSans-Roman-41"/>
      <use x="190.787109375" xlink:href="#BitstreamVeraSans-Roman-63"/>
      <use x="245.767578125" xlink:href="#BitstreamVeraSans-Roman-41"/>
      <use x="314.17578125" xlink:href="#BitstreamVeraSans-Roman-4d"/>
      <use x="400.455078125" xlink:href="#BitstreamVeraSans-Roman-50"/>
      <use x="460.7578125" xlink:href="#BitstreamVeraSans-Roman-32"/>
      <use x="524.380859375" xlink:href="#BitstreamVeraSans-Roman-20"/>
      <use x="556.16796875" xlink:href="#BitstreamVeraSans-Roman-65"/>
      <use x="617.69140625" xlink:href="#BitstreamVeraSans-Roman-6c"/>
      <use x="645.474609375" xlink:href="#BitstreamVeraSans-Roman-2e"/>
      <use x="677.26171875" xlink:href="#BitstreamVeraSans-Roman-32"/>
     </g>
    </g>
   </g>
  </g>
 </g>
 <defs>
  <clipPath id="p7ceb695115">
   <rect height="518.4" width="669.6" x="108.0" y="64.8"/>
  </clipPath>
 </defs>
</svg>
