<?xml version="1.0" encoding="utf-8" standalone="no"?>
<!DOCTYPE svg PUBLIC "-//W3C//DTD SVG 1.1//EN"
  "http://www.w3.org/Graphics/SVG/1.1/DTD/svg11.dtd">
<!-- Created with matplotlib (http://matplotlib.org/) -->
<svg height="648pt" version="1.1" viewBox="0 0 864 648" width="864pt" xmlns="http://www.w3.org/2000/svg" xmlns:xlink="http://www.w3.org/1999/xlink">
 <defs>
  <style type="text/css">
*{stroke-linecap:butt;stroke-linejoin:round;}
  </style>
 </defs>
 <g id="figure_1">
  <g id="patch_1">
   <path d="
M0 648
L864 648
L864 0
L0 0
z
" style="fill:#ffffff;"/>
  </g>
  <g id="axes_1">
   <g id="patch_2">
    <path d="
M108 583.2
L777.6 583.2
L777.6 64.8
L108 64.8
z
" style="fill:#ffffff;"/>
   </g>
   <g id="line2d_1">
    <path clip-path="url(#p7ceb695115)" d="
M108 581.956
L108.67 582.578
L109.339 582.371
L110.009 581.956
L110.678 582.785
L111.348 582.371
L112.018 582.578
L112.687 582.578
L113.357 582.371
L114.026 582.993
L114.696 582.578
L115.366 582.993
L116.035 583.2
L116.705 583.2
L118.044 582.785
L118.714 582.785
L119.383 583.2
L120.053 582.578
L120.722 582.993
L121.392 582.993
L122.062 582.785
L122.731 583.2
L127.418 583.2
L128.088 582.993
L128.758 583.2
L442.8 583.2
L443.47 479.313
L444.139 478.068
L444.809 481.179
L445.478 475.165
L446.148 480.349
L446.818 488.022
L447.487 491.547
L448.157 490.925
L448.826 493.828
L449.496 492.376
L450.166 497.353
L450.835 489.888
L451.505 490.717
L452.174 489.473
L452.844 485.741
L453.514 487.192
L454.183 496.109
L454.853 495.694
L455.522 495.901
L456.192 493.62
L456.862 502.537
L457.531 489.266
L458.201 492.998
L458.87 490.717
L459.54 485.948
L460.21 497.56
L460.879 487.4
L461.549 490.51
L462.218 499.427
L462.888 491.754
L463.558 490.51
L464.227 486.778
L464.897 489.266
L465.566 486.156
L466.236 493.62
L466.906 497.56
L467.575 491.962
L468.245 495.487
L468.914 495.901
L469.584 487.192
L470.254 493.62
L470.923 496.524
L471.593 485.533
L472.262 491.754
L472.932 492.169
L473.602 489.059
L474.271 493.828
L474.941 489.059
L475.61 492.169
L476.28 487.814
L476.95 489.059
L477.619 487.192
L478.289 483.875
L478.958 489.059
L479.628 484.704
L480.298 498.804
L480.967 482.008
L481.637 483.045
L482.306 495.487
L482.976 494.45
L483.646 489.473
L484.315 494.865
L484.985 495.279
L485.654 490.717
L486.324 495.487
L486.994 484.289
L487.663 493.413
L488.333 493.828
L489.002 494.45
L489.672 488.851
L490.342 490.51
L491.011 492.791
L491.681 487.607
L492.35 491.547
L493.02 494.45
L493.69 497.975
L494.359 490.717
L495.029 499.219
L495.698 492.376
L496.368 494.035
L497.038 493.413
L497.707 487.4
L498.377 497.975
L499.046 488.851
L499.716 490.303
L500.386 488.851
L501.055 489.473
L501.725 484.082
L502.394 491.132
L503.064 496.938
L503.734 488.644
L504.403 486.778
L505.073 488.436
L505.742 482.63
L506.412 492.376
L507.082 492.998
L507.751 486.778
L508.421 493.828
L509.09 489.681
L509.76 487.814
L510.43 497.353
L511.099 489.681
L511.769 491.547
L512.438 494.243
L513.108 487.4
L513.778 494.035
L514.447 485.948
L515.117 493.828
L515.786 492.584
L517.126 489.059
L517.795 488.851
L518.465 497.146
L519.134 496.524
L519.804 493.828
L520.474 489.888
L521.143 491.547
L521.813 489.473
L522.482 497.975
L523.152 487.192
L523.822 492.169
L524.491 485.741
L525.83 488.851
L526.5 493.413
L527.17 490.095
L527.839 493.413
L528.509 489.473
L529.178 494.865
L529.848 491.34
L530.518 495.072
L531.187 497.975
L531.857 489.266
L532.526 490.717
L533.196 496.938
L533.866 493.413
L534.535 492.376
L535.205 483.667
L535.874 498.39
L536.544 486.363
L537.214 491.754
L537.883 488.229
L538.553 493.828
L539.222 488.436
L539.892 500.463
L540.562 499.012
L541.231 492.584
L541.901 492.998
L542.57 496.731
L543.24 491.962
L544.579 495.694
L545.249 491.132
L545.918 490.51
L546.588 493.828
L547.258 498.39
L547.927 487.192
L548.597 486.778
L549.266 494.657
L549.936 492.376
L550.606 495.901
L551.275 487.192
L551.945 499.012
L552.614 497.56
L553.284 489.681
L553.954 492.169
L554.623 493.206
L555.293 490.303
L555.962 492.584
L556.632 495.901
L557.302 489.681
L557.971 491.962
L558.641 493.828
L559.31 493.413
L559.98 488.022
L560.65 484.911
L561.319 496.731
L561.989 496.524
L562.658 486.778
L563.328 492.584
L563.998 489.266
L564.667 490.51
L565.337 496.938
L566.006 487.814
L566.676 491.132
L567.346 496.109
L568.015 490.303
L568.685 490.717
L569.354 491.34
L570.024 496.731
L570.694 497.146
L571.363 496.524
L572.702 488.436
L573.372 492.169
L574.042 490.303
L574.711 486.985
L575.381 489.473
L576.05 494.865
L576.72 491.754
L577.39 497.56
L578.059 488.229
L578.729 493.62
L579.398 489.473
L580.068 491.34
L580.738 497.56
L581.407 489.681
L582.077 495.901
L582.746 494.45
L583.416 491.754
L584.086 494.45
L584.755 492.998
L585.425 492.376
L586.094 495.279
L586.764 484.082
L587.434 493.413
L588.103 487.192
L588.773 500.049
L589.442 477.032
L590.112 489.888
L590.782 488.436
L591.451 492.169
L592.121 489.888
L592.79 495.901
L593.46 492.584
L594.13 496.316
L594.799 495.901
L595.469 492.998
L596.138 491.132
L596.808 490.717
L597.478 489.681
L598.147 488.229
L598.817 478.691
L599.486 484.082
L600.156 487.192
L600.826 491.34
L601.495 486.57
L602.165 496.524
L602.834 489.681
L603.504 484.289
L604.174 491.962
L604.843 485.326
L605.513 496.938
L606.852 489.266
L607.522 495.072
L608.191 491.962
L608.861 490.303
L609.53 491.754
L610.2 488.851
L610.87 496.731
L611.539 495.072
L612.209 490.717
L612.878 496.109
L613.548 489.888
L614.218 490.095
L614.887 488.644
L615.557 497.56
L616.226 489.888
L616.896 490.095
L617.566 494.865
L618.235 490.717
L618.905 497.146
L619.574 496.316
L620.244 489.473
L620.914 494.865
L621.583 492.998
L622.253 489.888
L622.922 493.828
L623.592 478.068
L624.262 491.132
L624.931 490.095
L625.601 494.657
L626.27 493.206
L626.94 490.095
L627.61 496.731
L628.279 491.547
L628.949 498.182
L629.618 490.925
L630.958 493.413
L631.627 495.487
L632.297 485.948
L632.966 496.731
L633.636 489.473
L634.306 491.132
L634.975 493.413
L635.645 488.229
L636.314 495.694
L636.984 487.607
L637.654 489.266
L638.323 491.547
L638.993 502.33
L639.662 487.4
L640.332 491.962
L641.002 489.473
L641.671 493.206
L642.341 494.657
L643.01 492.791
L643.68 492.169
L644.35 489.266
L645.019 492.376
L645.689 498.804
L646.358 481.386
L647.028 491.754
L647.698 490.51
L648.367 498.39
L649.037 491.962
L649.706 497.975
L650.376 489.681
L651.715 495.487
L652.385 486.156
L653.054 495.072
L653.724 493.828
L654.394 488.644
L655.063 495.072
L656.402 488.851
L657.072 490.925
L658.411 487.814
L659.081 491.132
L659.75 491.34
L660.42 485.326
L661.09 491.547
L661.759 494.865
L662.429 489.473
L663.098 493.206
L663.768 491.962
L664.438 484.704
L665.107 498.804
L665.777 494.243
L666.446 494.865
L667.116 493.206
L667.786 486.985
L668.455 497.353
L669.125 484.289
L669.794 490.717
L670.464 495.279
L671.134 497.975
L671.803 490.303
L672.473 486.57
L673.142 495.694
L673.812 490.717
L674.482 495.901
L675.151 492.169
L675.821 496.109
L676.49 485.741
L677.16 496.731
L677.83 490.303
L678.499 497.975
L679.838 487.4
L680.508 489.059
L681.178 494.035
L681.847 486.985
L682.517 491.547
L683.186 486.156
L683.856 491.547
L684.526 494.45
L685.865 484.911
L686.534 496.524
L687.204 490.51
L687.874 491.132
L688.543 484.911
L689.213 491.547
L689.882 491.547
L690.552 485.533
L691.222 491.34
L691.891 489.266
L692.561 492.584
L693.23 490.51
L693.9 482.423
L694.57 484.289
L695.239 491.132
L695.909 491.34
L696.578 491.34
L697.248 491.962
L697.918 494.657
L698.587 489.473
L699.257 496.524
L699.926 491.547
L700.596 492.998
L701.266 488.022
L701.935 488.229
L702.605 495.694
L703.274 491.34
L703.944 494.035
L704.614 495.279
L705.283 491.962
L705.953 494.657
L706.622 491.34
L707.292 491.754
L707.962 498.804
L708.631 494.243
L709.301 491.547
L709.97 487.814
L710.64 490.303
L711.31 491.34
L711.979 492.584
L712.649 489.266
L713.318 491.34
L713.988 501.708
L714.658 491.962
L715.327 490.51
L715.997 497.353
L716.666 492.169
L717.336 495.487
L718.006 487.814
L718.675 486.57
L719.345 499.841
L720.014 491.962
L720.684 492.998
L721.354 487.607
L722.023 491.132
L722.693 490.303
L723.362 491.754
L724.032 495.901
L724.702 491.132
L725.371 492.998
L726.041 486.985
L726.71 486.985
L727.38 483.252
L728.05 491.34
L728.719 494.865
L729.389 488.436
L730.058 490.717
L730.728 489.888
L731.398 490.51
L732.067 497.56
L733.406 494.035
L734.076 488.436
L734.746 484.082
L736.085 493.206
L736.754 490.925
L737.424 489.473
L738.094 496.731
L738.763 493.828
L739.433 494.45
L740.102 492.998
L740.772 493.413
L741.442 489.266
L742.111 486.156
L742.781 493.206
L743.45 490.717
L744.12 490.303
L744.79 489.473
L745.459 485.741
L746.129 488.851
L746.798 489.888
L747.468 493.206
L748.138 492.376
L748.807 496.109
L749.477 490.717
L750.816 490.303
L751.486 497.56
L752.155 491.754
L752.825 490.717
L753.494 487.192
L754.834 491.132
L755.503 492.998
L756.173 488.851
L756.842 486.778
L757.512 492.998
L758.182 491.547
L758.851 496.316
L759.521 483.252
L760.19 490.51
L760.86 492.791
L761.53 498.597
L762.199 489.681
L762.869 491.547
L763.538 499.841
L764.208 499.841
L764.878 493.62
L765.547 495.487
L766.217 491.132
L766.886 494.657
L767.556 493.206
L768.226 489.266
L768.895 500.049
L769.565 491.34
L770.234 491.962
L770.904 490.095
L771.574 494.865
L772.243 489.888
L772.913 483.252
L773.582 495.694
L774.922 490.095
L775.591 494.657
L776.261 484.911
L776.93 484.911
L777.6 491.962
L777.6 491.962" style="fill:none;stroke:#ff0000;stroke-linecap:square;"/>
   </g>
   <g id="line2d_2">
    <path clip-path="url(#p7ceb695115)" d="
M108 578.223
L108.67 578.845
L109.339 579.675
L110.009 580.297
L110.678 580.504
L111.348 580.504
L112.018 581.956
L113.357 581.956
L114.026 582.371
L114.696 582.163
L115.366 582.785
L116.035 581.748
L116.705 582.163
L117.374 582.371
L118.044 582.993
L118.714 582.578
L119.383 582.371
L120.053 582.993
L120.722 582.785
L122.062 582.785
L122.731 582.578
L123.401 582.993
L124.07 583.2
L124.74 582.993
L125.41 583.2
L126.079 582.993
L126.749 582.993
L127.418 583.2
L128.088 583.2
L128.758 582.993
L132.775 582.993
L133.445 583.2
L442.8 583.2
L443.47 148.159
L444.139 174.286
L444.809 175.53
L445.478 190.668
L446.148 194.607
L446.818 202.902
L447.487 202.487
L448.157 202.28
L448.826 199.377
L449.496 206.842
L450.166 202.902
L450.835 208.293
L451.505 214.929
L452.174 215.136
L452.844 215.758
L453.514 214.307
L454.183 214.307
L455.522 216.588
L456.192 212.233
L456.862 211.196
L457.531 213.477
L458.201 219.491
L458.87 221.149
L459.54 221.772
L460.21 210.989
L460.879 222.601
L461.549 214.721
L462.218 212.233
L462.888 213.892
L463.558 214.307
L464.227 214.514
L464.897 217.21
L465.566 224.882
L466.236 224.052
L466.906 209.123
L467.575 217.417
L468.245 208.708
L468.914 212.44
L469.584 214.307
L470.254 217.417
L470.923 214.514
L471.593 218.868
L472.262 215.551
L472.932 211.404
L473.602 221.357
L474.271 209.33
L474.941 227.992
L475.61 219.491
L476.28 219.491
L476.95 220.32
L477.619 231.103
L478.289 225.711
L478.958 219.076
L479.628 227.992
L480.298 208.5
L480.967 220.113
L481.637 229.444
L482.306 214.929
L482.976 213.684
L483.646 220.735
L484.315 213.477
L484.985 217.624
L485.654 215.965
L486.324 210.159
L486.994 220.735
L487.663 212.026
L488.333 215.965
L489.002 210.367
L489.672 216.38
L490.342 221.357
L491.011 218.868
L491.681 226.541
L492.35 218.246
L493.02 217.832
L493.69 207.878
L494.359 213.892
L495.029 212.233
L495.698 213.684
L496.368 218.246
L497.038 212.44
L497.707 220.113
L498.377 208.915
L499.046 217.002
L499.716 221.979
L500.386 220.113
L501.055 216.795
L501.725 222.186
L502.394 219.076
L503.064 217.002
L503.734 217.002
L504.403 216.795
L505.073 217.21
L505.742 229.029
L506.412 215.965
L507.082 209.537
L507.751 213.062
L508.421 213.062
L509.09 216.795
L509.76 221.357
L510.43 207.878
L511.099 215.343
L511.769 216.173
L512.438 208.5
L513.108 216.795
L513.778 211.818
L514.447 227.992
L515.117 215.136
L515.786 219.283
L516.456 227.163
L517.126 222.186
L518.465 219.698
L519.134 213.684
L519.804 214.307
L520.474 223.016
L521.143 223.43
L521.813 217.21
L522.482 214.721
L523.152 220.942
L523.822 221.357
L524.491 225.504
L525.161 223.223
L525.83 214.721
L526.5 215.136
L527.17 220.113
L527.839 212.233
L528.509 221.564
L529.178 212.855
L529.848 212.233
L530.518 217.832
L531.187 214.307
L531.857 218.454
L532.526 219.283
L533.196 219.491
L533.866 212.233
L534.535 213.27
L535.205 229.444
L535.874 213.477
L536.544 219.491
L537.214 218.246
L537.883 222.186
L538.553 214.099
L539.222 220.527
L539.892 206.842
L540.562 219.698
L541.231 216.38
L541.901 226.541
L542.57 210.574
L543.24 217.002
L543.91 214.099
L544.579 217.832
L545.249 214.307
L545.918 219.283
L546.588 218.039
L547.258 212.026
L547.927 219.905
L548.597 224.052
L549.266 211.818
L549.936 213.892
L550.606 207.671
L551.275 226.748
L551.945 207.878
L552.614 216.795
L553.284 219.698
L553.954 217.624
L554.623 213.892
L555.293 216.173
L555.962 220.942
L556.632 212.44
L557.302 222.394
L557.971 222.394
L558.641 210.367
L559.31 211.611
L559.98 212.44
L560.65 222.808
L561.319 213.684
L561.989 214.099
L562.658 218.246
L563.328 219.491
L563.998 225.711
L564.667 214.721
L565.337 213.684
L566.006 224.675
L566.676 218.454
L567.346 214.514
L568.015 218.868
L568.685 225.711
L569.354 211.818
L570.024 214.514
L570.694 210.159
L571.363 216.173
L572.033 217.832
L572.702 218.868
L573.372 216.173
L574.042 220.527
L574.711 216.795
L575.381 222.186
L576.05 215.758
L576.72 215.758
L577.39 215.551
L578.059 217.21
L578.729 214.929
L579.398 223.223
L580.068 213.062
L580.738 217.417
L581.407 226.956
L582.077 213.27
L582.746 219.076
L583.416 209.745
L584.086 220.32
L584.755 222.394
L585.425 219.076
L586.094 211.611
L586.764 230.066
L587.434 213.27
L588.103 217.21
L588.773 209.33
L589.442 231.725
L590.112 221.979
L590.782 218.246
L591.451 220.113
L592.121 218.039
L592.79 214.099
L593.46 217.417
L594.13 216.173
L594.799 210.574
L595.469 221.772
L596.138 216.795
L596.808 216.588
L597.478 217.624
L598.147 216.173
L598.817 228.2
L599.486 221.149
L600.156 223.016
L600.826 218.661
L601.495 227.992
L602.165 212.026
L602.834 221.357
L603.504 224.467
L604.174 217.21
L604.843 224.052
L605.513 213.477
L606.182 215.551
L606.852 227.37
L607.522 210.159
L608.191 219.905
L608.861 215.965
L609.53 211.196
L610.2 219.698
L610.87 212.855
L611.539 208.086
L612.209 218.868
L612.878 217.832
L613.548 209.745
L614.218 217.21
L614.887 215.965
L615.557 211.196
L616.226 224.675
L616.896 221.979
L617.566 217.832
L618.235 220.113
L618.905 210.989
L619.574 212.026
L620.244 223.016
L620.914 221.979
L621.583 223.43
L622.253 221.357
L622.922 209.537
L623.592 228.2
L624.262 217.624
L624.931 222.601
L625.601 208.5
L626.27 213.062
L626.94 218.454
L627.61 215.343
L628.279 217.832
L628.949 205.183
L629.618 217.417
L630.288 217.832
L630.958 217.417
L631.627 207.049
L632.297 220.32
L632.966 207.256
L633.636 222.186
L634.306 221.149
L634.975 215.551
L635.645 219.905
L636.314 218.246
L636.984 223.43
L638.323 220.113
L638.993 207.256
L639.662 216.173
L640.332 212.233
L641.002 217.21
L641.671 214.099
L642.341 219.283
L643.01 218.868
L643.68 221.772
L644.35 214.721
L645.019 219.698
L645.689 219.076
L646.358 219.491
L647.028 209.33
L647.698 225.711
L648.367 207.049
L649.037 217.624
L649.706 213.477
L650.376 224.882
L651.046 214.929
L651.715 217.21
L652.385 223.845
L653.054 207.464
L654.394 229.651
L655.063 213.27
L655.733 220.32
L657.072 213.477
L657.742 225.089
L658.411 217.832
L659.081 215.551
L659.75 214.721
L660.42 229.029
L661.09 214.721
L661.759 210.367
L662.429 221.772
L663.098 218.246
L663.768 218.246
L664.438 222.394
L665.107 212.44
L665.777 206.22
L666.446 215.965
L667.116 213.892
L667.786 225.297
L668.455 206.842
L669.125 229.029
L669.794 226.126
L671.134 209.537
L671.803 217.832
L672.473 221.979
L673.142 213.062
L673.812 212.648
L674.482 219.076
L675.151 215.551
L675.821 209.123
L676.49 219.905
L677.16 211.196
L677.83 222.808
L678.499 209.745
L679.169 213.684
L679.838 221.357
L680.508 215.136
L681.178 222.186
L681.847 225.089
L682.517 221.149
L683.186 222.808
L683.856 222.186
L684.526 212.648
L685.195 223.43
L685.865 220.527
L686.534 209.745
L687.204 212.233
L687.874 221.772
L688.543 219.491
L689.213 215.758
L689.882 218.039
L690.552 217.417
L691.222 215.136
L691.891 223.016
L692.561 222.186
L693.23 225.297
L693.9 230.895
L694.57 228.614
L695.239 216.38
L695.909 213.892
L696.578 215.758
L697.248 217.21
L697.918 209.745
L698.587 221.979
L699.257 213.062
L699.926 216.588
L700.596 212.44
L701.266 220.527
L701.935 214.307
L702.605 217.417
L703.274 218.454
L703.944 222.186
L704.614 210.989
L705.283 212.855
L705.953 215.758
L706.622 216.588
L707.292 219.491
L707.962 211.818
L708.631 215.965
L709.301 209.123
L709.97 215.758
L710.64 224.467
L711.31 223.016
L711.979 223.845
L712.649 219.283
L713.318 218.454
L713.988 204.975
L714.658 211.404
L715.327 220.527
L715.997 211.196
L716.666 219.698
L717.336 216.588
L718.006 223.016
L718.675 222.394
L719.345 206.842
L720.014 221.357
L720.684 210.159
L721.354 218.661
L722.023 217.832
L722.693 216.795
L723.362 209.745
L724.032 214.307
L724.702 223.43
L725.371 213.062
L726.041 223.016
L726.71 224.467
L727.38 217.832
L728.05 222.186
L728.719 215.758
L729.389 223.845
L730.058 210.574
L730.728 222.601
L731.398 217.21
L732.737 197.925
L733.406 213.27
L734.076 221.979
L734.746 225.297
L735.415 222.186
L736.085 217.832
L736.754 221.772
L737.424 217.624
L738.094 211.196
L738.763 212.648
L739.433 217.002
L740.102 218.454
L740.772 219.283
L741.442 219.698
L742.111 222.808
L742.781 218.246
L743.45 214.514
L744.12 209.745
L744.79 227.37
L745.459 220.527
L746.129 217.832
L746.798 213.062
L747.468 216.795
L748.138 218.039
L748.807 210.159
L749.477 216.588
L750.146 219.076
L750.816 218.868
L751.486 212.44
L752.155 213.062
L752.825 220.735
L753.494 222.394
L754.164 219.698
L754.834 212.648
L755.503 218.661
L756.173 226.333
L757.512 216.173
L758.851 215.343
L759.521 228.614
L760.19 214.929
L760.86 214.514
L761.53 214.721
L762.199 222.601
L762.869 213.477
L763.538 209.952
L764.208 210.989
L764.878 214.721
L765.547 215.551
L766.217 215.965
L766.886 215.343
L767.556 224.675
L768.895 210.159
L769.565 218.246
L770.234 212.026
L770.904 216.795
L771.574 215.551
L772.243 218.454
L772.913 227.37
L773.582 215.551
L774.252 214.929
L774.922 220.942
L775.591 210.159
L776.261 222.808
L776.93 219.283
L777.6 222.186
L777.6 222.186" style="fill:none;stroke:#008000;stroke-linecap:square;"/>
   </g>
   <g id="line2d_3">
    <path clip-path="url(#p7ceb695115)" d="
M108 581.956
L108.67 582.371
L109.339 582.371
L110.009 582.993
L110.678 582.578
L111.348 582.785
L112.687 582.371
L113.357 582.993
L114.026 582.578
L114.696 582.993
L115.366 582.371
L116.035 583.2
L116.705 582.785
L117.374 582.993
L118.044 582.993
L118.714 583.2
L120.053 583.2
L120.722 582.993
L121.392 582.993
L122.062 583.2
L122.731 583.2
L123.401 582.993
L124.07 583.2
L126.749 583.2
L127.418 582.993
L128.088 583.2
L442.8 583.2
L443.47 474.336
L444.139 479.105
L445.478 492.169
L446.148 490.717
L446.818 482.423
L448.157 491.962
L448.826 493.413
L449.496 490.095
L450.166 491.754
L450.835 495.487
L451.505 490.51
L452.174 492.584
L452.844 495.901
L453.514 496.938
L454.183 488.229
L454.853 488.229
L455.522 487.4
L456.192 493.62
L456.862 486.778
L457.531 498.182
L458.201 488.229
L458.87 489.059
L459.54 493.206
L460.21 492.376
L460.879 490.925
L461.549 495.694
L462.218 489.266
L462.888 495.279
L463.558 496.109
L464.227 499.634
L466.236 483.252
L466.906 494.243
L467.575 491.547
L468.245 496.731
L468.914 492.584
L469.584 499.427
L470.254 489.888
L470.923 489.888
L471.593 496.524
L472.262 493.62
L472.932 497.353
L473.602 490.51
L474.271 497.768
L474.941 483.875
L475.61 489.266
L476.28 493.62
L476.95 491.547
L477.619 482.63
L478.289 491.34
L478.958 492.791
L479.628 488.229
L480.967 498.804
L481.637 488.436
L482.976 492.791
L483.646 490.717
L484.315 492.584
L484.985 488.022
L485.654 494.243
L486.324 495.279
L486.994 495.901
L487.663 495.487
L488.333 491.132
L489.002 496.109
L489.672 495.694
L490.342 489.059
L491.011 489.266
L491.681 486.778
L492.35 491.132
L493.02 488.644
L493.69 495.072
L494.359 496.316
L495.029 489.473
L495.698 494.865
L496.368 488.644
L497.038 495.072
L497.707 493.413
L498.377 494.035
L499.046 495.072
L499.716 488.644
L500.386 491.962
L501.055 494.657
L501.725 494.657
L503.064 486.985
L503.734 495.279
L504.403 497.353
L505.073 495.279
L505.742 489.266
L506.412 492.584
L507.082 498.39
L507.751 501.085
L508.421 494.035
L509.09 494.45
L509.76 491.754
L510.43 495.694
L511.099 495.901
L511.769 493.206
L512.438 498.182
L513.778 495.072
L514.447 486.985
L515.117 491.962
L515.786 489.059
L516.456 482.838
L517.126 489.681
L517.795 491.132
L518.465 484.082
L519.134 490.717
L519.804 492.791
L520.474 488.022
L521.143 485.948
L521.813 494.243
L522.482 488.229
L523.152 492.791
L523.822 487.4
L524.491 489.681
L525.161 490.51
L525.83 497.353
L526.5 492.376
L527.17 490.717
L527.839 495.279
L528.509 489.888
L529.178 493.206
L529.848 497.353
L530.518 488.022
L531.187 488.644
L531.857 493.206
L532.526 490.925
L533.196 484.497
L533.866 495.279
L534.535 495.279
L535.205 487.814
L535.874 489.059
L536.544 495.072
L537.214 490.925
L537.883 490.51
L538.553 492.998
L539.222 491.962
L539.892 493.62
L540.562 482.216
L541.231 491.962
L541.901 481.386
L542.57 493.62
L543.24 491.962
L543.91 492.998
L544.579 487.4
L545.249 495.487
L545.918 491.132
L546.588 489.059
L547.258 490.51
L547.927 493.828
L548.597 490.095
L549.266 494.45
L549.936 494.657
L550.606 497.353
L551.275 486.985
L551.945 494.035
L552.614 486.57
L553.284 491.547
L553.954 491.132
L554.623 493.828
L555.293 494.45
L555.962 487.4
L556.632 492.584
L557.302 488.851
L557.971 486.57
L558.641 496.731
L559.31 495.901
L559.98 500.463
L560.65 493.206
L561.319 490.51
L561.989 490.303
L562.658 495.901
L563.328 488.851
L563.998 485.948
L564.667 495.694
L565.337 490.303
L566.006 488.436
L566.676 491.34
L567.346 490.303
L568.015 491.754
L568.685 484.497
L569.354 497.768
L570.024 489.681
L570.694 493.62
L571.363 488.229
L572.033 490.303
L572.702 493.62
L573.372 492.584
L574.042 490.095
L574.711 497.146
L575.381 489.266
L576.05 490.303
L576.72 493.413
L577.39 487.814
L578.059 495.487
L578.729 492.376
L579.398 488.229
L580.068 496.524
L580.738 485.948
L581.407 484.289
L582.077 491.754
L582.746 487.4
L583.416 499.427
L584.086 486.156
L584.755 485.533
L586.094 494.035
L586.764 486.778
L587.434 494.243
L588.103 496.524
L588.773 491.547
L589.442 492.169
L590.112 489.059
L590.782 494.243
L591.451 488.644
L592.121 492.998
L592.79 490.925
L593.46 490.925
L594.13 488.436
L594.799 494.45
L595.469 486.156
L596.138 492.998
L596.808 493.62
L597.478 493.62
L598.147 496.524
L598.817 494.035
L599.486 495.694
L600.156 490.717
L600.826 490.925
L601.495 486.363
L602.165 492.376
L602.834 489.888
L603.504 492.169
L604.174 491.754
L604.843 491.547
L605.513 490.51
L606.182 492.584
L606.852 484.289
L607.522 495.694
L608.191 489.059
L608.861 494.657
L609.53 497.975
L610.2 492.376
L610.87 491.34
L611.539 497.768
L612.209 491.34
L612.878 486.985
L613.548 501.293
L614.218 493.62
L614.887 496.316
L615.557 492.169
L616.226 486.363
L616.896 488.851
L617.566 488.229
L618.235 490.095
L618.905 492.791
L619.574 492.584
L620.914 484.082
L621.583 484.497
L622.253 489.681
L622.922 497.56
L624.262 492.169
L624.931 488.229
L625.601 497.768
L626.27 494.657
L626.94 492.376
L627.61 488.851
L628.279 491.547
L628.949 497.56
L629.618 492.584
L630.288 490.925
L630.958 490.095
L631.627 498.39
L632.297 494.657
L632.966 496.938
L633.636 489.266
L634.306 488.644
L634.975 491.962
L635.645 492.791
L636.314 486.985
L636.984 489.888
L637.654 489.888
L638.323 489.266
L638.993 491.34
L639.662 497.353
L640.332 496.731
L641.002 494.243
L641.671 493.62
L642.341 486.985
L643.01 489.266
L643.68 486.985
L644.35 496.938
L645.019 488.851
L645.689 483.045
L646.358 500.049
L647.028 499.841
L647.698 484.704
L648.367 495.487
L649.037 491.34
L649.706 489.473
L650.376 486.363
L651.046 493.413
L651.715 488.229
L652.385 490.925
L653.054 498.39
L653.724 488.229
L654.394 482.63
L655.063 492.584
L655.733 488.851
L656.402 495.279
L657.072 496.524
L657.742 486.363
L658.411 495.279
L659.081 494.243
L659.75 494.865
L660.42 486.57
L661.09 494.657
L661.759 495.694
L662.429 489.681
L663.098 489.473
L663.768 490.717
L664.438 493.828
L665.107 489.681
L665.777 500.463
L666.446 490.095
L667.116 493.828
L667.786 488.644
L668.455 496.731
L669.125 487.607
L669.794 484.082
L670.464 487.192
L671.134 493.413
L671.803 492.791
L672.473 492.376
L673.142 492.169
L673.812 497.56
L674.482 485.948
L675.151 493.206
L675.821 495.694
L676.49 495.279
L677.16 492.998
L677.83 487.814
L678.499 493.206
L679.169 494.243
L679.838 492.169
L680.508 496.731
L681.178 484.704
L681.847 488.851
L682.517 488.229
L683.186 491.962
L683.856 487.192
L684.526 493.828
L685.195 488.229
L685.865 495.487
L686.534 494.657
L687.204 498.182
L687.874 488.022
L688.543 496.524
L689.213 493.62
L689.882 491.34
L690.552 497.975
L691.222 494.45
L691.891 488.644
L692.561 486.156
L693.23 485.119
L693.9 487.607
L694.57 488.022
L695.239 493.413
L695.909 495.694
L697.248 491.754
L697.918 496.524
L698.587 489.473
L699.257 491.34
L699.926 492.791
L700.596 495.487
L701.266 492.376
L701.935 498.39
L702.605 487.814
L703.274 491.132
L703.944 484.704
L704.614 494.657
L705.283 496.109
L705.953 490.51
L706.622 492.998
L707.292 489.681
L707.962 490.303
L708.631 490.717
L709.301 500.256
L709.97 497.353
L710.64 486.156
L711.31 486.57
L711.979 484.497
L712.649 492.376
L713.318 491.132
L714.658 497.56
L715.327 489.888
L715.997 492.376
L716.666 489.059
L717.336 488.851
L718.006 490.095
L718.675 491.962
L719.345 494.243
L720.014 487.607
L720.684 497.768
L722.023 491.962
L722.693 493.828
L723.362 499.427
L724.032 490.717
L724.702 486.363
L725.371 494.865
L726.041 490.925
L726.71 489.473
L727.38 499.841
L728.05 487.4
L728.719 490.303
L729.389 488.644
L730.058 499.634
L730.728 488.436
L731.398 493.206
L732.067 495.901
L732.737 507.099
L733.406 493.62
L734.076 490.51
L734.746 491.547
L735.415 490.303
L736.085 489.888
L736.754 488.229
L737.424 493.828
L738.094 492.998
L738.763 494.45
L739.433 489.473
L740.102 489.473
L740.772 488.229
L741.442 491.962
L742.111 491.962
L742.781 489.473
L744.12 500.878
L744.79 484.082
L745.459 494.657
L746.129 494.243
L746.798 497.975
L747.468 490.925
L748.138 490.51
L748.807 494.657
L749.477 493.62
L750.146 491.34
L750.816 491.754
L751.486 490.925
L752.155 496.109
L752.825 489.473
L753.494 491.34
L754.164 491.962
L754.834 497.146
L755.503 489.266
L756.173 485.741
L756.842 492.584
L757.512 491.754
L758.182 493.62
L758.851 489.266
L759.521 489.059
L760.19 495.487
L760.86 493.62
L761.53 487.607
L762.199 488.644
L762.869 495.901
L763.538 491.132
L764.208 490.095
L764.878 492.584
L765.547 489.888
L766.217 493.828
L766.886 490.925
L767.556 483.045
L768.226 494.657
L768.895 490.717
L769.565 491.34
L770.234 496.938
L770.904 494.035
L771.574 490.51
L772.243 492.584
L772.913 490.303
L773.582 489.681
L774.252 493.206
L774.922 489.888
L775.591 496.109
L776.261 493.206
L776.93 496.731
L777.6 486.778
L777.6 486.778" style="fill:none;stroke:#0000ff;stroke-linecap:square;"/>
   </g>
   <g id="patch_3">
    <path d="
M108 64.8
L777.6 64.8" style="fill:none;stroke:#000000;stroke-linecap:square;stroke-linejoin:miter;"/>
   </g>
   <g id="patch_4">
    <path d="
M108 583.2
L777.6 583.2" style="fill:none;stroke:#000000;stroke-linecap:square;stroke-linejoin:miter;"/>
   </g>
   <g id="patch_5">
    <path d="
M777.6 583.2
L777.6 64.8" style="fill:none;stroke:#000000;stroke-linecap:square;stroke-linejoin:miter;"/>
   </g>
   <g id="patch_6">
    <path d="
M108 583.2
L108 64.8" style="fill:none;stroke:#000000;stroke-linecap:square;stroke-linejoin:miter;"/>
   </g>
   <g id="matplotlib.axis_1">
    <g id="xtick_1">
     <g id="line2d_4">
      <defs>
       <path d="
M0 0
L0 -4" id="mc7db9fdffb" style="stroke:#000000;stroke-width:0.5;"/>
      </defs>
      <g>
       <use style="stroke:#000000;stroke-width:0.5;" x="108.0" xlink:href="#mc7db9fdffb" y="583.2"/>
      </g>
     </g>
     <g id="line2d_5">
      <defs>
       <path d="
M0 0
L0 4" id="m5a7d422ac3" style="stroke:#000000;stroke-width:0.5;"/>
      </defs>
      <g>
       <use style="stroke:#000000;stroke-width:0.5;" x="108.0" xlink:href="#m5a7d422ac3" y="64.8"/>
      </g>
     </g>
     <g id="text_1">
      <!-- 0 -->
      <defs>
       <path d="
M31.7812 66.4062
Q24.1719 66.4062 20.3281 58.9062
Q16.5 51.4219 16.5 36.375
Q16.5 21.3906 20.3281 13.8906
Q24.1719 6.39062 31.7812 6.39062
Q39.4531 6.39062 43.2812 13.8906
Q47.125 21.3906 47.125 36.375
Q47.125 51.4219 43.2812 58.9062
Q39.4531 66.4062 31.7812 66.4062
M31.7812 74.2188
Q44.0469 74.2188 50.5156 64.5156
Q56.9844 54.8281 56.9844 36.375
Q56.9844 17.9688 50.5156 8.26562
Q44.0469 -1.42188 31.7812 -1.42188
Q19.5312 -1.42188 13.0625 8.26562
Q6.59375 17.9688 6.59375 36.375
Q6.59375 54.8281 13.0625 64.5156
Q19.5312 74.2188 31.7812 74.2188" id="BitstreamVeraSans-Roman-30"/>
      </defs>
      <g transform="translate(104.9765625 596.318125)scale(0.12 -0.12)">
       <use xlink:href="#BitstreamVeraSans-Roman-30"/>
      </g>
     </g>
    </g>
    <g id="xtick_2">
     <g id="line2d_6">
      <g>
       <use style="stroke:#000000;stroke-width:0.5;" x="275.4" xlink:href="#mc7db9fdffb" y="583.2"/>
      </g>
     </g>
     <g id="line2d_7">
      <g>
       <use style="stroke:#000000;stroke-width:0.5;" x="275.4" xlink:href="#m5a7d422ac3" y="64.8"/>
      </g>
     </g>
     <g id="text_2">
      <!-- 50000 -->
      <defs>
       <path d="
M10.7969 72.9062
L49.5156 72.9062
L49.5156 64.5938
L19.8281 64.5938
L19.8281 46.7344
Q21.9688 47.4688 24.1094 47.8281
Q26.2656 48.1875 28.4219 48.1875
Q40.625 48.1875 47.75 41.5
Q54.8906 34.8125 54.8906 23.3906
Q54.8906 11.625 47.5625 5.09375
Q40.2344 -1.42188 26.9062 -1.42188
Q22.3125 -1.42188 17.5469 -0.640625
Q12.7969 0.140625 7.71875 1.70312
L7.71875 11.625
Q12.1094 9.23438 16.7969 8.0625
Q21.4844 6.89062 26.7031 6.89062
Q35.1562 6.89062 40.0781 11.3281
Q45.0156 15.7656 45.0156 23.3906
Q45.0156 31 40.0781 35.4375
Q35.1562 39.8906 26.7031 39.8906
Q22.75 39.8906 18.8125 39.0156
Q14.8906 38.1406 10.7969 36.2812
z
" id="BitstreamVeraSans-Roman-35"/>
      </defs>
      <g transform="translate(257.1740625 596.318125)scale(0.12 -0.12)">
       <use xlink:href="#BitstreamVeraSans-Roman-35"/>
       <use x="63.623046875" xlink:href="#BitstreamVeraSans-Roman-30"/>
       <use x="127.24609375" xlink:href="#BitstreamVeraSans-Roman-30"/>
       <use x="190.869140625" xlink:href="#BitstreamVeraSans-Roman-30"/>
       <use x="254.4921875" xlink:href="#BitstreamVeraSans-Roman-30"/>
      </g>
     </g>
    </g>
    <g id="xtick_3">
     <g id="line2d_8">
      <g>
       <use style="stroke:#000000;stroke-width:0.5;" x="442.8" xlink:href="#mc7db9fdffb" y="583.2"/>
      </g>
     </g>
     <g id="line2d_9">
      <g>
       <use style="stroke:#000000;stroke-width:0.5;" x="442.8" xlink:href="#m5a7d422ac3" y="64.8"/>
      </g>
     </g>
     <g id="text_3">
      <!-- 100000 -->
      <defs>
       <path d="
M12.4062 8.29688
L28.5156 8.29688
L28.5156 63.9219
L10.9844 60.4062
L10.9844 69.3906
L28.4219 72.9062
L38.2812 72.9062
L38.2812 8.29688
L54.3906 8.29688
L54.3906 0
L12.4062 0
z
" id="BitstreamVeraSans-Roman-31"/>
      </defs>
      <g transform="translate(420.9525 596.318125)scale(0.12 -0.12)">
       <use xlink:href="#BitstreamVeraSans-Roman-31"/>
       <use x="63.623046875" xlink:href="#BitstreamVeraSans-Roman-30"/>
       <use x="127.24609375" xlink:href="#BitstreamVeraSans-Roman-30"/>
       <use x="190.869140625" xlink:href="#BitstreamVeraSans-Roman-30"/>
       <use x="254.4921875" xlink:href="#BitstreamVeraSans-Roman-30"/>
       <use x="318.115234375" xlink:href="#BitstreamVeraSans-Roman-30"/>
      </g>
     </g>
    </g>
    <g id="xtick_4">
     <g id="line2d_10">
      <g>
       <use style="stroke:#000000;stroke-width:0.5;" x="610.2" xlink:href="#mc7db9fdffb" y="583.2"/>
      </g>
     </g>
     <g id="line2d_11">
      <g>
       <use style="stroke:#000000;stroke-width:0.5;" x="610.2" xlink:href="#m5a7d422ac3" y="64.8"/>
      </g>
     </g>
     <g id="text_4">
      <!-- 150000 -->
      <g transform="translate(588.3525 596.318125)scale(0.12 -0.12)">
       <use xlink:href="#BitstreamVeraSans-Roman-31"/>
       <use x="63.623046875" xlink:href="#BitstreamVeraSans-Roman-35"/>
       <use x="127.24609375" xlink:href="#BitstreamVeraSans-Roman-30"/>
       <use x="190.869140625" xlink:href="#BitstreamVeraSans-Roman-30"/>
       <use x="254.4921875" xlink:href="#BitstreamVeraSans-Roman-30"/>
       <use x="318.115234375" xlink:href="#BitstreamVeraSans-Roman-30"/>
      </g>
     </g>
    </g>
    <g id="xtick_5">
     <g id="line2d_12">
      <g>
       <use style="stroke:#000000;stroke-width:0.5;" x="777.6" xlink:href="#mc7db9fdffb" y="583.2"/>
      </g>
     </g>
     <g id="line2d_13">
      <g>
       <use style="stroke:#000000;stroke-width:0.5;" x="777.6" xlink:href="#m5a7d422ac3" y="64.8"/>
      </g>
     </g>
     <g id="text_5">
      <!-- 200000 -->
      <defs>
       <path d="
M19.1875 8.29688
L53.6094 8.29688
L53.6094 0
L7.32812 0
L7.32812 8.29688
Q12.9375 14.1094 22.625 23.8906
Q32.3281 33.6875 34.8125 36.5312
Q39.5469 41.8438 41.4219 45.5312
Q43.3125 49.2188 43.3125 52.7812
Q43.3125 58.5938 39.2344 62.25
Q35.1562 65.9219 28.6094 65.9219
Q23.9688 65.9219 18.8125 64.3125
Q13.6719 62.7031 7.8125 59.4219
L7.8125 69.3906
Q13.7656 71.7812 18.9375 73
Q24.125 74.2188 28.4219 74.2188
Q39.75 74.2188 46.4844 68.5469
Q53.2188 62.8906 53.2188 53.4219
Q53.2188 48.9219 51.5312 44.8906
Q49.8594 40.875 45.4062 35.4062
Q44.1875 33.9844 37.6406 27.2188
Q31.1094 20.4531 19.1875 8.29688" id="BitstreamVeraSans-Roman-32"/>
      </defs>
      <g transform="translate(755.533125 596.318125)scale(0.12 -0.12)">
       <use xlink:href="#BitstreamVeraSans-Roman-32"/>
       <use x="63.623046875" xlink:href="#BitstreamVeraSans-Roman-30"/>
       <use x="127.24609375" xlink:href="#BitstreamVeraSans-Roman-30"/>
       <use x="190.869140625" xlink:href="#BitstreamVeraSans-Roman-30"/>
       <use x="254.4921875" xlink:href="#BitstreamVeraSans-Roman-30"/>
       <use x="318.115234375" xlink:href="#BitstreamVeraSans-Roman-30"/>
      </g>
     </g>
    </g>
    <g id="text_6">
     <!-- t / ms -->
     <defs>
      <path id="BitstreamVeraSans-Roman-20"/>
      <path d="
M18.3125 70.2188
L18.3125 54.6875
L36.8125 54.6875
L36.8125 47.7031
L18.3125 47.7031
L18.3125 18.0156
Q18.3125 11.3281 20.1406 9.42188
Q21.9688 7.51562 27.5938 7.51562
L36.8125 7.51562
L36.8125 0
L27.5938 0
Q17.1875 0 13.2344 3.875
Q9.28125 7.76562 9.28125 18.0156
L9.28125 47.7031
L2.6875 47.7031
L2.6875 54.6875
L9.28125 54.6875
L9.28125 70.2188
z
" id="BitstreamVeraSans-Roman-74"/>
      <path d="
M44.2812 53.0781
L44.2812 44.5781
Q40.4844 46.5312 36.375 47.5
Q32.2812 48.4844 27.875 48.4844
Q21.1875 48.4844 17.8438 46.4375
Q14.5 44.3906 14.5 40.2812
Q14.5 37.1562 16.8906 35.375
Q19.2812 33.5938 26.5156 31.9844
L29.5938 31.2969
Q39.1562 29.25 43.1875 25.5156
Q47.2188 21.7812 47.2188 15.0938
Q47.2188 7.46875 41.1875 3.01562
Q35.1562 -1.42188 24.6094 -1.42188
Q20.2188 -1.42188 15.4531 -0.5625
Q10.6875 0.296875 5.42188 2
L5.42188 11.2812
Q10.4062 8.6875 15.2344 7.39062
Q20.0625 6.10938 24.8125 6.10938
Q31.1562 6.10938 34.5625 8.28125
Q37.9844 10.4531 37.9844 14.4062
Q37.9844 18.0625 35.5156 20.0156
Q33.0625 21.9688 24.7031 23.7812
L21.5781 24.5156
Q13.2344 26.2656 9.51562 29.9062
Q5.8125 33.5469 5.8125 39.8906
Q5.8125 47.6094 11.2812 51.7969
Q16.75 56 26.8125 56
Q31.7812 56 36.1719 55.2656
Q40.5781 54.5469 44.2812 53.0781" id="BitstreamVeraSans-Roman-73"/>
      <path d="
M25.3906 72.9062
L33.6875 72.9062
L8.29688 -9.28125
L0 -9.28125
z
" id="BitstreamVeraSans-Roman-2f"/>
      <path d="
M52 44.1875
Q55.375 50.25 60.0625 53.125
Q64.75 56 71.0938 56
Q79.6406 56 84.2812 50.0156
Q88.9219 44.0469 88.9219 33.0156
L88.9219 0
L79.8906 0
L79.8906 32.7188
Q79.8906 40.5781 77.0938 44.375
Q74.3125 48.1875 68.6094 48.1875
Q61.625 48.1875 57.5625 43.5469
Q53.5156 38.9219 53.5156 30.9062
L53.5156 0
L44.4844 0
L44.4844 32.7188
Q44.4844 40.625 41.7031 44.4062
Q38.9219 48.1875 33.1094 48.1875
Q26.2188 48.1875 22.1562 43.5312
Q18.1094 38.875 18.1094 30.9062
L18.1094 0
L9.07812 0
L9.07812 54.6875
L18.1094 54.6875
L18.1094 46.1875
Q21.1875 51.2188 25.4844 53.6094
Q29.7812 56 35.6875 56
Q41.6562 56 45.8281 52.9688
Q50 49.9531 52 44.1875" id="BitstreamVeraSans-Roman-6d"/>
     </defs>
     <g transform="translate(425.9353125 612.931875)scale(0.12 -0.12)">
      <use xlink:href="#BitstreamVeraSans-Roman-74"/>
      <use x="39.208984375" xlink:href="#BitstreamVeraSans-Roman-20"/>
      <use x="70.99609375" xlink:href="#BitstreamVeraSans-Roman-2f"/>
      <use x="104.6875" xlink:href="#BitstreamVeraSans-Roman-20"/>
      <use x="136.474609375" xlink:href="#BitstreamVeraSans-Roman-6d"/>
      <use x="233.88671875" xlink:href="#BitstreamVeraSans-Roman-73"/>
     </g>
    </g>
   </g>
   <g id="matplotlib.axis_2">
    <g id="ytick_1">
     <g id="line2d_14">
      <defs>
       <path d="
M0 0
L4 0" id="md7965d1ba0" style="stroke:#000000;stroke-width:0.5;"/>
      </defs>
      <g>
       <use style="stroke:#000000;stroke-width:0.5;" x="108.0" xlink:href="#md7965d1ba0" y="583.2"/>
      </g>
     </g>
     <g id="line2d_15">
      <defs>
       <path d="
M0 0
L-4 0" id="md9a1c1a7cd" style="stroke:#000000;stroke-width:0.5;"/>
      </defs>
      <g>
       <use style="stroke:#000000;stroke-width:0.5;" x="777.6" xlink:href="#md9a1c1a7cd" y="583.2"/>
      </g>
     </g>
     <g id="text_7">
      <!-- 0 -->
      <g transform="translate(97.953125 586.51125)scale(0.12 -0.12)">
       <use xlink:href="#BitstreamVeraSans-Roman-30"/>
      </g>
     </g>
    </g>
    <g id="ytick_2">
     <g id="line2d_16">
      <g>
       <use style="stroke:#000000;stroke-width:0.5;" x="108.0" xlink:href="#md7965d1ba0" y="479.52"/>
      </g>
     </g>
     <g id="line2d_17">
      <g>
       <use style="stroke:#000000;stroke-width:0.5;" x="777.6" xlink:href="#md9a1c1a7cd" y="479.52"/>
      </g>
     </g>
     <g id="text_8">
      <!-- 500 -->
      <g transform="translate(82.818125 482.83125)scale(0.12 -0.12)">
       <use xlink:href="#BitstreamVeraSans-Roman-35"/>
       <use x="63.623046875" xlink:href="#BitstreamVeraSans-Roman-30"/>
       <use x="127.24609375" xlink:href="#BitstreamVeraSans-Roman-30"/>
      </g>
     </g>
    </g>
    <g id="ytick_3">
     <g id="line2d_18">
      <g>
       <use style="stroke:#000000;stroke-width:0.5;" x="108.0" xlink:href="#md7965d1ba0" y="375.84"/>
      </g>
     </g>
     <g id="line2d_19">
      <g>
       <use style="stroke:#000000;stroke-width:0.5;" x="777.6" xlink:href="#md9a1c1a7cd" y="375.84"/>
      </g>
     </g>
     <g id="text_9">
      <!-- 1000 -->
      <g transform="translate(75.575 379.15125)scale(0.12 -0.12)">
       <use xlink:href="#BitstreamVeraSans-Roman-31"/>
       <use x="63.623046875" xlink:href="#BitstreamVeraSans-Roman-30"/>
       <use x="127.24609375" xlink:href="#BitstreamVeraSans-Roman-30"/>
       <use x="190.869140625" xlink:href="#BitstreamVeraSans-Roman-30"/>
      </g>
     </g>
    </g>
    <g id="ytick_4">
     <g id="line2d_20">
      <g>
       <use style="stroke:#000000;stroke-width:0.5;" x="108.0" xlink:href="#md7965d1ba0" y="272.16"/>
      </g>
     </g>
     <g id="line2d_21">
      <g>
       <use style="stroke:#000000;stroke-width:0.5;" x="777.6" xlink:href="#md9a1c1a7cd" y="272.16"/>
      </g>
     </g>
     <g id="text_10">
      <!-- 1500 -->
      <g transform="translate(75.575 275.47125)scale(0.12 -0.12)">
       <use xlink:href="#BitstreamVeraSans-Roman-31"/>
       <use x="63.623046875" xlink:href="#BitstreamVeraSans-Roman-35"/>
       <use x="127.24609375" xlink:href="#BitstreamVeraSans-Roman-30"/>
       <use x="190.869140625" xlink:href="#BitstreamVeraSans-Roman-30"/>
      </g>
     </g>
    </g>
    <g id="ytick_5">
     <g id="line2d_22">
      <g>
       <use style="stroke:#000000;stroke-width:0.5;" x="108.0" xlink:href="#md7965d1ba0" y="168.48"/>
      </g>
     </g>
     <g id="line2d_23">
      <g>
       <use style="stroke:#000000;stroke-width:0.5;" x="777.6" xlink:href="#md9a1c1a7cd" y="168.48"/>
      </g>
     </g>
     <g id="text_11">
      <!-- 2000 -->
      <g transform="translate(75.13625 171.79125)scale(0.12 -0.12)">
       <use xlink:href="#BitstreamVeraSans-Roman-32"/>
       <use x="63.623046875" xlink:href="#BitstreamVeraSans-Roman-30"/>
       <use x="127.24609375" xlink:href="#BitstreamVeraSans-Roman-30"/>
       <use x="190.869140625" xlink:href="#BitstreamVeraSans-Roman-30"/>
      </g>
     </g>
    </g>
    <g id="ytick_6">
     <g id="line2d_24">
      <g>
       <use style="stroke:#000000;stroke-width:0.5;" x="108.0" xlink:href="#md7965d1ba0" y="64.8"/>
      </g>
     </g>
     <g id="line2d_25">
      <g>
       <use style="stroke:#000000;stroke-width:0.5;" x="777.6" xlink:href="#md9a1c1a7cd" y="64.8"/>
      </g>
     </g>
     <g id="text_12">
      <!-- 2500 -->
      <g transform="translate(75.13625 68.11125)scale(0.12 -0.12)">
       <use xlink:href="#BitstreamVeraSans-Roman-32"/>
       <use x="63.623046875" xlink:href="#BitstreamVeraSans-Roman-35"/>
       <use x="127.24609375" xlink:href="#BitstreamVeraSans-Roman-30"/>
       <use x="190.869140625" xlink:href="#BitstreamVeraSans-Roman-30"/>
      </g>
     </g>
    </g>
    <g id="text_13">
     <!-- particle numbers -->
     <defs>
      <path d="
M9.42188 54.6875
L18.4062 54.6875
L18.4062 0
L9.42188 0
z

M9.42188 75.9844
L18.4062 75.9844
L18.4062 64.5938
L9.42188 64.5938
z
" id="BitstreamVeraSans-Roman-69"/>
      <path d="
M54.8906 33.0156
L54.8906 0
L45.9062 0
L45.9062 32.7188
Q45.9062 40.4844 42.875 44.3281
Q39.8438 48.1875 33.7969 48.1875
Q26.5156 48.1875 22.3125 43.5469
Q18.1094 38.9219 18.1094 30.9062
L18.1094 0
L9.07812 0
L9.07812 54.6875
L18.1094 54.6875
L18.1094 46.1875
Q21.3438 51.125 25.7031 53.5625
Q30.0781 56 35.7969 56
Q45.2188 56 50.0469 50.1719
Q54.8906 44.3438 54.8906 33.0156" id="BitstreamVeraSans-Roman-6e"/>
      <path d="
M8.5 21.5781
L8.5 54.6875
L17.4844 54.6875
L17.4844 21.9219
Q17.4844 14.1562 20.5 10.2656
Q23.5312 6.39062 29.5938 6.39062
Q36.8594 6.39062 41.0781 11.0312
Q45.3125 15.6719 45.3125 23.6875
L45.3125 54.6875
L54.2969 54.6875
L54.2969 0
L45.3125 0
L45.3125 8.40625
Q42.0469 3.42188 37.7188 1
Q33.4062 -1.42188 27.6875 -1.42188
Q18.2656 -1.42188 13.375 4.4375
Q8.5 10.2969 8.5 21.5781" id="BitstreamVeraSans-Roman-75"/>
      <path d="
M48.7812 52.5938
L48.7812 44.1875
Q44.9688 46.2969 41.1406 47.3438
Q37.3125 48.3906 33.4062 48.3906
Q24.6562 48.3906 19.8125 42.8438
Q14.9844 37.3125 14.9844 27.2969
Q14.9844 17.2812 19.8125 11.7344
Q24.6562 6.20312 33.4062 6.20312
Q37.3125 6.20312 41.1406 7.25
Q44.9688 8.29688 48.7812 10.4062
L48.7812 2.09375
Q45.0156 0.34375 40.9844 -0.53125
Q36.9688 -1.42188 32.4219 -1.42188
Q20.0625 -1.42188 12.7812 6.34375
Q5.51562 14.1094 5.51562 27.2969
Q5.51562 40.6719 12.8594 48.3281
Q20.2188 56 33.0156 56
Q37.1562 56 41.1094 55.1406
Q45.0625 54.2969 48.7812 52.5938" id="BitstreamVeraSans-Roman-63"/>
      <path d="
M18.1094 8.20312
L18.1094 -20.7969
L9.07812 -20.7969
L9.07812 54.6875
L18.1094 54.6875
L18.1094 46.3906
Q20.9531 51.2656 25.2656 53.625
Q29.5938 56 35.5938 56
Q45.5625 56 51.7812 48.0938
Q58.0156 40.1875 58.0156 27.2969
Q58.0156 14.4062 51.7812 6.48438
Q45.5625 -1.42188 35.5938 -1.42188
Q29.5938 -1.42188 25.2656 0.953125
Q20.9531 3.32812 18.1094 8.20312
M48.6875 27.2969
Q48.6875 37.2031 44.6094 42.8438
Q40.5312 48.4844 33.4062 48.4844
Q26.2656 48.4844 22.1875 42.8438
Q18.1094 37.2031 18.1094 27.2969
Q18.1094 17.3906 22.1875 11.75
Q26.2656 6.10938 33.4062 6.10938
Q40.5312 6.10938 44.6094 11.75
Q48.6875 17.3906 48.6875 27.2969" id="BitstreamVeraSans-Roman-70"/>
      <path d="
M41.1094 46.2969
Q39.5938 47.1719 37.8125 47.5781
Q36.0312 48 33.8906 48
Q26.2656 48 22.1875 43.0469
Q18.1094 38.0938 18.1094 28.8125
L18.1094 0
L9.07812 0
L9.07812 54.6875
L18.1094 54.6875
L18.1094 46.1875
Q20.9531 51.1719 25.4844 53.5781
Q30.0312 56 36.5312 56
Q37.4531 56 38.5781 55.875
Q39.7031 55.7656 41.0625 55.5156
z
" id="BitstreamVeraSans-Roman-72"/>
      <path d="
M48.6875 27.2969
Q48.6875 37.2031 44.6094 42.8438
Q40.5312 48.4844 33.4062 48.4844
Q26.2656 48.4844 22.1875 42.8438
Q18.1094 37.2031 18.1094 27.2969
Q18.1094 17.3906 22.1875 11.75
Q26.2656 6.10938 33.4062 6.10938
Q40.5312 6.10938 44.6094 11.75
Q48.6875 17.3906 48.6875 27.2969
M18.1094 46.3906
Q20.9531 51.2656 25.2656 53.625
Q29.5938 56 35.5938 56
Q45.5625 56 51.7812 48.0938
Q58.0156 40.1875 58.0156 27.2969
Q58.0156 14.4062 51.7812 6.48438
Q45.5625 -1.42188 35.5938 -1.42188
Q29.5938 -1.42188 25.2656 0.953125
Q20.9531 3.32812 18.1094 8.20312
L18.1094 0
L9.07812 0
L9.07812 75.9844
L18.1094 75.9844
z
" id="BitstreamVeraSans-Roman-62"/>
      <path d="
M34.2812 27.4844
Q23.3906 27.4844 19.1875 25
Q14.9844 22.5156 14.9844 16.5
Q14.9844 11.7188 18.1406 8.90625
Q21.2969 6.10938 26.7031 6.10938
Q34.1875 6.10938 38.7031 11.4062
Q43.2188 16.7031 43.2188 25.4844
L43.2188 27.4844
z

M52.2031 31.2031
L52.2031 0
L43.2188 0
L43.2188 8.29688
Q40.1406 3.32812 35.5469 0.953125
Q30.9531 -1.42188 24.3125 -1.42188
Q15.9219 -1.42188 10.9531 3.29688
Q6 8.01562 6 15.9219
Q6 25.1406 12.1719 29.8281
Q18.3594 34.5156 30.6094 34.5156
L43.2188 34.5156
L43.2188 35.4062
Q43.2188 41.6094 39.1406 45
Q35.0625 48.3906 27.6875 48.3906
Q23 48.3906 18.5469 47.2656
Q14.1094 46.1406 10.0156 43.8906
L10.0156 52.2031
Q14.9375 54.1094 19.5781 55.0469
Q24.2188 56 28.6094 56
Q40.4844 56 46.3438 49.8438
Q52.2031 43.7031 52.2031 31.2031" id="BitstreamVeraSans-Roman-61"/>
      <path d="
M56.2031 29.5938
L56.2031 25.2031
L14.8906 25.2031
Q15.4844 15.9219 20.4844 11.0625
Q25.4844 6.20312 34.4219 6.20312
Q39.5938 6.20312 44.4531 7.46875
Q49.3125 8.73438 54.1094 11.2812
L54.1094 2.78125
Q49.2656 0.734375 44.1875 -0.34375
Q39.1094 -1.42188 33.8906 -1.42188
Q20.7969 -1.42188 13.1562 6.1875
Q5.51562 13.8125 5.51562 26.8125
Q5.51562 40.2344 12.7656 48.1094
Q20.0156 56 32.3281 56
Q43.3594 56 49.7812 48.8906
Q56.2031 41.7969 56.2031 29.5938
M47.2188 32.2344
Q47.125 39.5938 43.0938 43.9844
Q39.0625 48.3906 32.4219 48.3906
Q24.9062 48.3906 20.3906 44.1406
Q15.875 39.8906 15.1875 32.1719
z
" id="BitstreamVeraSans-Roman-65"/>
      <path d="
M9.42188 75.9844
L18.4062 75.9844
L18.4062 0
L9.42188 0
z
" id="BitstreamVeraSans-Roman-6c"/>
     </defs>
     <g transform="translate(67.640625 374.78625)rotate(-90.0)scale(0.12 -0.12)">
      <use xlink:href="#BitstreamVeraSans-Roman-70"/>
      <use x="63.4765625" xlink:href="#BitstreamVeraSans-Roman-61"/>
      <use x="124.755859375" xlink:href="#BitstreamVeraSans-Roman-72"/>
      <use x="165.869140625" xlink:href="#BitstreamVeraSans-Roman-74"/>
      <use x="205.078125" xlink:href="#BitstreamVeraSans-Roman-69"/>
      <use x="232.861328125" xlink:href="#BitstreamVeraSans-Roman-63"/>
      <use x="287.841796875" xlink:href="#BitstreamVeraSans-Roman-6c"/>
      <use x="315.625" xlink:href="#BitstreamVeraSans-Roman-65"/>
      <use x="377.1484375" xlink:href="#BitstreamVeraSans-Roman-20"/>
      <use x="408.935546875" xlink:href="#BitstreamVeraSans-Roman-6e"/>
      <use x="472.314453125" xlink:href="#BitstreamVeraSans-Roman-75"/>
      <use x="535.693359375" xlink:href="#BitstreamVeraSans-Roman-6d"/>
      <use x="633.10546875" xlink:href="#BitstreamVeraSans-Roman-62"/>
      <use x="696.58203125" xlink:href="#BitstreamVeraSans-Roman-65"/>
      <use x="758.10546875" xlink:href="#BitstreamVeraSans-Roman-72"/>
      <use x="799.21875" xlink:href="#BitstreamVeraSans-Roman-73"/>
     </g>
    </g>
   </g>
   <g id="legend_1">
    <g id="patch_7">
     <path d="
M724.53 101.224
L774.1 101.224
L774.1 68.3
L724.53 68.3
z
" style="fill:#ffffff;stroke:#000000;stroke-linejoin:miter;"/>
    </g>
    <g id="line2d_26">
     <path d="
M729.43 73.9689
L739.23 73.9689" style="fill:none;stroke:#ff0000;stroke-linecap:square;"/>
    </g>
    <g id="line2d_27"/>
    <g id="text_14">
     <!-- Da el.0 -->
     <defs>
      <path d="
M10.6875 12.4062
L21 12.4062
L21 0
L10.6875 0
z
" id="BitstreamVeraSans-Roman-2e"/>
      <path d="
M19.6719 64.7969
L19.6719 8.10938
L31.5938 8.10938
Q46.6875 8.10938 53.6875 14.9375
Q60.6875 21.7812 60.6875 36.5312
Q60.6875 51.1719 53.6875 57.9844
Q46.6875 64.7969 31.5938 64.7969
z

M9.8125 72.9062
L30.0781 72.9062
Q51.2656 72.9062 61.1719 64.0938
Q71.0938 55.2812 71.0938 36.5312
Q71.0938 17.6719 61.125 8.82812
Q51.1719 0 30.0781 0
L9.8125 0
z
" id="BitstreamVeraSans-Roman-44"/>
     </defs>
     <g transform="translate(746.93015625 76.41890625)scale(0.07 -0.07)">
      <use xlink:href="#BitstreamVeraSans-Roman-44"/>
      <use x="77.001953125" xlink:href="#BitstreamVeraSans-Roman-61"/>
      <use x="138.28125" xlink:href="#BitstreamVeraSans-Roman-20"/>
      <use x="170.068359375" xlink:href="#BitstreamVeraSans-Roman-65"/>
      <use x="231.591796875" xlink:href="#BitstreamVeraSans-Roman-6c"/>
      <use x="259.375" xlink:href="#BitstreamVeraSans-Roman-2e"/>
      <use x="291.162109375" xlink:href="#BitstreamVeraSans-Roman-30"/>
     </g>
    </g>
    <g id="line2d_28">
     <path d="
M729.43 84.2436
L739.23 84.2436" style="fill:none;stroke:#008000;stroke-linecap:square;"/>
    </g>
    <g id="line2d_29"/>
    <g id="text_15">
     <!-- Da el.1 -->
     <g transform="translate(746.93015625 86.69359375)scale(0.07 -0.07)">
      <use xlink:href="#BitstreamVeraSans-Roman-44"/>
      <use x="77.001953125" xlink:href="#BitstreamVeraSans-Roman-61"/>
      <use x="138.28125" xlink:href="#BitstreamVeraSans-Roman-20"/>
      <use x="170.068359375" xlink:href="#BitstreamVeraSans-Roman-65"/>
      <use x="231.591796875" xlink:href="#BitstreamVeraSans-Roman-6c"/>
      <use x="259.375" xlink:href="#BitstreamVeraSans-Roman-2e"/>
      <use x="291.162109375" xlink:href="#BitstreamVeraSans-Roman-31"/>
     </g>
    </g>
    <g id="line2d_30">
     <path d="
M729.43 94.5183
L739.23 94.5183" style="fill:none;stroke:#0000ff;stroke-linecap:square;"/>
    </g>
    <g id="line2d_31"/>
    <g id="text_16">
     <!-- Da el.2 -->
     <g transform="translate(746.93015625 96.96828125)scale(0.07 -0.07)">
      <use xlink:href="#BitstreamVeraSans-Roman-44"/>
      <use x="77.001953125" xlink:href="#BitstreamVeraSans-Roman-61"/>
      <use x="138.28125" xlink:href="#BitstreamVeraSans-Roman-20"/>
      <use x="170.068359375" xlink:href="#BitstreamVeraSans-Roman-65"/>
      <use x="231.591796875" xlink:href="#BitstreamVeraSans-Roman-6c"/>
      <use x="259.375" xlink:href="#BitstreamVeraSans-Roman-2e"/>
      <use x="291.162109375" xlink:href="#BitstreamVeraSans-Roman-32"/>
     </g>
    </g>
   </g>
  </g>
 </g>
 <defs>
  <clipPath id="p7ceb695115">
   <rect height="518.4" width="669.6" x="108.0" y="64.8"/>
  </clipPath>
 </defs>
</svg>
