<?xml version="1.0" encoding="utf-8" standalone="no"?>
<!DOCTYPE svg PUBLIC "-//W3C//DTD SVG 1.1//EN"
  "http://www.w3.org/Graphics/SVG/1.1/DTD/svg11.dtd">
<!-- Created with matplotlib (http://matplotlib.org/) -->
<svg height="648pt" version="1.1" viewBox="0 0 864 648" width="864pt" xmlns="http://www.w3.org/2000/svg" xmlns:xlink="http://www.w3.org/1999/xlink">
 <defs>
  <style type="text/css">
*{stroke-linecap:butt;stroke-linejoin:round;}
  </style>
 </defs>
 <g id="figure_1">
  <g id="patch_1">
   <path d="
M0 648
L864 648
L864 0
L0 0
z
" style="fill:#ffffff;"/>
  </g>
  <g id="axes_1">
   <g id="patch_2">
    <path d="
M108 583.2
L777.6 583.2
L777.6 64.8
L108 64.8
z
" style="fill:#ffffff;"/>
   </g>
   <g id="line2d_1">
    <path clip-path="url(#p7ceb695115)" d="
M108 583.2
L134.114 583.2
L134.784 580.32
L135.454 583.2
L136.123 580.32
L136.793 580.32
L137.462 583.2
L140.141 583.2
L140.81 577.44
L141.48 577.44
L142.15 583.2
L142.819 580.32
L146.837 580.32
L147.506 583.2
L155.542 583.2
L156.211 580.32
L156.881 583.2
L157.55 580.32
L158.89 580.32
L159.559 583.2
L164.246 583.2
L164.916 580.32
L165.586 580.32
L166.255 583.2
L174.29 583.2
L174.96 580.32
L175.63 583.2
L176.299 580.32
L177.638 580.32
L178.308 583.2
L182.995 583.2
L185.004 574.56
L185.674 574.56
L186.343 577.44
L188.352 577.44
L189.022 580.32
L191.7 580.32
L192.37 583.2
L194.378 583.2
L195.718 577.44
L197.726 577.44
L198.396 580.32
L199.066 577.44
L199.735 580.32
L201.744 580.32
L202.414 583.2
L203.083 577.44
L204.422 583.2
L205.092 580.32
L205.762 580.32
L206.431 577.44
L207.101 580.32
L209.11 580.32
L209.779 577.44
L213.797 577.44
L214.466 583.2
L215.136 580.32
L217.145 580.32
L218.484 574.56
L219.154 574.56
L219.823 577.44
L220.493 574.56
L221.162 577.44
L225.18 577.44
L225.85 580.32
L226.519 577.44
L227.189 583.2
L234.554 583.2
L235.224 580.32
L235.894 580.32
L236.563 583.2
L241.92 583.2
L242.59 580.32
L243.929 580.32
L244.598 583.2
L246.607 583.2
L247.277 580.32
L248.616 580.32
L249.286 577.44
L249.955 580.32
L252.634 580.32
L253.303 583.2
L264.686 583.2
L265.356 580.32
L266.026 583.2
L266.695 580.32
L267.365 583.2
L280.087 583.2
L280.757 580.32
L281.426 583.2
L286.783 583.2
L287.453 580.32
L288.792 580.32
L289.462 583.2
L292.81 583.2
L293.479 580.32
L294.149 583.2
L300.175 583.2
L300.845 580.32
L301.514 583.2
L306.871 583.2
L307.541 580.32
L310.219 580.32
L310.889 577.44
L312.228 583.2
L314.237 583.2
L314.906 580.32
L315.576 580.32
L316.246 577.44
L316.915 577.44
L317.585 580.32
L318.924 580.32
L319.594 583.2
L326.959 583.2
L327.629 580.32
L328.968 580.32
L329.638 577.44
L335.664 577.44
L337.003 583.2
L340.351 583.2
L341.021 580.32
L341.69 583.2
L342.36 580.32
L345.038 580.32
L345.708 583.2
L346.378 580.32
L347.717 580.32
L348.386 577.44
L351.065 577.44
L351.734 580.32
L353.743 580.32
L354.413 577.44
L355.082 580.32
L364.457 580.32
L365.126 583.2
L387.893 583.2
L388.562 580.32
L389.232 580.32
L389.902 583.2
L396.598 583.2
L397.267 580.32
L399.946 580.32
L400.615 583.2
L401.285 580.32
L401.954 580.32
L402.624 583.2
L407.311 583.2
L407.981 580.32
L410.659 580.32
L411.329 583.2
L412.668 583.2
L413.338 580.32
L414.007 583.2
L414.677 580.32
L416.686 580.32
L417.355 583.2
L418.694 583.2
L419.364 580.32
L420.034 580.32
L420.703 583.2
L434.095 583.2
L434.765 580.32
L435.434 580.32
L436.104 583.2
L443.47 583.2
L446.148 571.68
L446.818 565.92
L447.487 577.44
L448.157 568.8
L449.496 568.8
L450.166 554.4
L450.835 554.4
L451.505 565.92
L452.174 548.64
L452.844 548.64
L453.514 563.04
L454.183 545.76
L454.853 542.88
L455.522 563.04
L456.192 516.96
L456.862 565.92
L457.531 542.88
L458.201 548.64
L458.87 548.64
L459.54 540
L460.21 545.76
L460.879 525.6
L461.549 528.48
L462.218 560.16
L462.888 557.28
L463.558 557.28
L464.227 554.4
L464.897 537.12
L465.566 528.48
L466.236 537.12
L466.906 537.12
L467.575 511.2
L468.245 545.76
L468.914 522.72
L469.584 537.12
L470.254 548.64
L470.923 534.24
L471.593 522.72
L472.262 528.48
L472.932 528.48
L473.602 537.12
L474.941 537.12
L475.61 514.08
L476.28 534.24
L476.95 522.72
L477.619 525.6
L478.289 516.96
L478.958 551.52
L479.628 534.24
L480.298 528.48
L480.967 528.48
L481.637 525.6
L482.306 537.12
L482.976 540
L483.646 499.68
L484.315 488.16
L484.985 522.72
L485.654 537.12
L486.324 514.08
L486.994 514.08
L487.663 508.32
L488.333 528.48
L489.002 502.56
L489.672 525.6
L490.342 525.6
L491.011 537.12
L491.681 534.24
L492.35 545.76
L493.02 534.24
L493.69 554.4
L494.359 522.72
L495.029 528.48
L495.698 528.48
L496.368 516.96
L497.038 542.88
L497.707 522.72
L498.377 554.4
L499.046 554.4
L499.716 531.36
L500.386 519.84
L501.055 531.36
L501.725 525.6
L503.064 519.84
L503.734 531.36
L504.403 554.4
L505.073 542.88
L505.742 516.96
L506.412 519.84
L507.082 528.48
L507.751 516.96
L508.421 522.72
L509.09 511.2
L510.43 522.72
L511.099 522.72
L511.769 493.92
L512.438 540
L513.108 540
L513.778 522.72
L514.447 525.6
L515.117 537.12
L515.786 531.36
L516.456 522.72
L517.126 525.6
L517.795 531.36
L518.465 525.6
L519.134 525.6
L519.804 542.88
L520.474 516.96
L521.143 505.44
L521.813 525.6
L522.482 528.48
L523.152 525.6
L523.822 511.2
L524.491 514.08
L525.161 534.24
L525.83 534.24
L526.5 531.36
L527.17 525.6
L527.839 508.32
L528.509 511.2
L529.178 537.12
L529.848 525.6
L530.518 522.72
L531.187 493.92
L531.857 522.72
L532.526 522.72
L533.196 528.48
L533.866 525.6
L534.535 499.68
L535.205 505.44
L536.544 522.72
L537.214 516.96
L537.883 537.12
L539.222 496.8
L539.892 493.92
L540.562 519.84
L541.231 514.08
L541.901 519.84
L542.57 508.32
L543.24 511.2
L543.91 542.88
L544.579 548.64
L545.249 508.32
L545.918 542.88
L546.588 502.56
L547.258 528.48
L547.927 519.84
L548.597 491.04
L549.266 519.84
L549.936 502.56
L550.606 491.04
L551.275 493.92
L551.945 502.56
L552.614 516.96
L553.284 534.24
L553.954 534.24
L554.623 505.44
L555.962 540
L556.632 528.48
L557.302 505.44
L558.641 505.44
L559.31 516.96
L559.98 505.44
L560.65 542.88
L561.319 514.08
L561.989 499.68
L562.658 502.56
L563.328 514.08
L563.998 496.8
L564.667 522.72
L565.337 508.32
L566.676 525.6
L567.346 508.32
L568.015 493.92
L568.685 493.92
L569.354 511.2
L570.024 485.28
L570.694 516.96
L571.363 528.48
L572.033 496.8
L572.702 499.68
L573.372 505.44
L574.042 491.04
L574.711 488.16
L575.381 522.72
L576.05 485.28
L576.72 493.92
L577.39 505.44
L578.059 482.4
L578.729 482.4
L579.398 488.16
L580.068 511.2
L580.738 505.44
L581.407 516.96
L582.077 511.2
L582.746 491.04
L583.416 514.08
L584.086 522.72
L584.755 493.92
L585.425 496.8
L586.094 516.96
L586.764 491.04
L587.434 485.28
L588.103 496.8
L588.773 470.88
L589.442 482.4
L590.112 473.76
L590.782 525.6
L591.451 514.08
L592.121 511.2
L592.79 493.92
L593.46 496.8
L594.13 511.2
L594.799 465.12
L595.469 476.64
L596.138 514.08
L596.808 516.96
L597.478 493.92
L598.147 476.64
L598.817 505.44
L599.486 505.44
L600.156 488.16
L600.826 476.64
L601.495 496.8
L602.165 511.2
L602.834 511.2
L603.504 488.16
L604.174 479.52
L604.843 491.04
L605.513 508.32
L606.182 493.92
L606.852 482.4
L607.522 511.2
L608.191 479.52
L608.861 516.96
L609.53 502.56
L610.87 479.52
L611.539 505.44
L612.209 505.44
L612.878 514.08
L613.548 499.68
L614.218 505.44
L614.887 496.8
L615.557 485.28
L616.226 493.92
L616.896 465.12
L617.566 485.28
L618.235 482.4
L618.905 502.56
L619.574 499.68
L620.244 502.56
L620.914 508.32
L621.583 499.68
L622.253 482.4
L622.922 505.44
L623.592 491.04
L624.262 508.32
L624.931 511.2
L625.601 496.8
L626.27 496.8
L626.94 488.16
L627.61 499.68
L628.279 456.48
L628.949 528.48
L629.618 479.52
L630.288 476.64
L630.958 470.88
L631.627 508.32
L632.297 511.2
L632.966 476.64
L633.636 505.44
L634.306 485.28
L635.645 491.04
L636.314 488.16
L636.984 493.92
L637.654 496.8
L638.323 511.2
L638.993 485.28
L639.662 491.04
L640.332 511.2
L641.002 493.92
L641.671 485.28
L642.341 496.8
L643.01 491.04
L643.68 491.04
L644.35 516.96
L645.019 511.2
L645.689 482.4
L646.358 519.84
L647.028 508.32
L647.698 476.64
L648.367 493.92
L649.037 493.92
L649.706 488.16
L650.376 456.48
L651.046 482.4
L651.715 476.64
L652.385 511.2
L653.054 485.28
L653.724 468
L654.394 485.28
L655.063 528.48
L655.733 450.72
L656.402 488.16
L657.072 514.08
L657.742 514.08
L658.411 525.6
L659.081 493.92
L659.75 468
L660.42 499.68
L661.09 491.04
L661.759 485.28
L662.429 508.32
L663.098 505.44
L663.768 476.64
L664.438 491.04
L665.107 488.16
L665.777 496.8
L666.446 485.28
L667.116 514.08
L667.786 473.76
L668.455 505.44
L669.125 525.6
L669.794 482.4
L670.464 505.44
L671.134 493.92
L671.803 528.48
L672.473 468
L673.142 496.8
L673.812 502.56
L674.482 456.48
L675.151 479.52
L675.821 468
L676.49 485.28
L677.16 505.44
L677.83 488.16
L678.499 488.16
L679.169 479.52
L679.838 499.68
L680.508 511.2
L681.178 508.32
L681.847 479.52
L682.517 485.28
L683.186 496.8
L683.856 496.8
L684.526 491.04
L685.195 508.32
L685.865 493.92
L686.534 493.92
L687.204 476.64
L688.543 488.16
L689.213 465.12
L689.882 519.84
L690.552 479.52
L691.222 491.04
L691.891 473.76
L692.561 505.44
L693.23 514.08
L693.9 502.56
L694.57 488.16
L695.239 485.28
L695.909 476.64
L696.578 470.88
L697.248 476.64
L697.918 491.04
L698.587 447.84
L699.257 479.52
L699.926 462.24
L700.596 468
L701.266 499.68
L701.935 488.16
L702.605 485.28
L703.274 491.04
L703.944 479.52
L704.614 459.36
L705.283 465.12
L705.953 482.4
L706.622 491.04
L707.292 485.28
L707.962 482.4
L708.631 453.6
L709.301 491.04
L709.97 499.68
L710.64 499.68
L711.31 502.56
L711.979 499.68
L712.649 447.84
L713.318 499.68
L713.988 502.56
L714.658 508.32
L715.327 488.16
L715.997 476.64
L716.666 505.44
L717.336 496.8
L718.006 491.04
L718.675 470.88
L719.345 493.92
L720.014 447.84
L720.684 479.52
L721.354 516.96
L722.023 465.12
L722.693 468
L723.362 534.24
L724.032 462.24
L724.702 511.2
L725.371 485.28
L726.041 496.8
L726.71 496.8
L727.38 479.52
L728.05 468
L728.719 485.28
L729.389 488.16
L730.058 482.4
L730.728 516.96
L731.398 505.44
L732.067 499.68
L732.737 485.28
L733.406 453.6
L734.076 493.92
L734.746 465.12
L735.415 459.36
L736.085 511.2
L736.754 473.76
L737.424 491.04
L738.094 499.68
L739.433 488.16
L740.102 491.04
L740.772 488.16
L741.442 499.68
L742.111 479.52
L742.781 476.64
L743.45 462.24
L744.12 496.8
L744.79 502.56
L745.459 491.04
L746.129 470.88
L746.798 470.88
L747.468 491.04
L748.138 491.04
L748.807 516.96
L749.477 508.32
L750.146 525.6
L750.816 499.68
L751.486 485.28
L752.155 473.76
L752.825 482.4
L753.494 482.4
L754.164 491.04
L754.834 482.4
L755.503 485.28
L756.173 476.64
L756.842 488.16
L757.512 488.16
L758.182 496.8
L758.851 479.52
L759.521 456.48
L760.19 462.24
L760.86 493.92
L761.53 453.6
L762.199 491.04
L762.869 479.52
L763.538 473.76
L764.208 488.16
L764.878 508.32
L766.217 465.12
L766.886 519.84
L767.556 488.16
L768.226 491.04
L768.895 499.68
L769.565 496.8
L770.234 488.16
L770.904 456.48
L771.574 499.68
L772.243 499.68
L772.913 482.4
L773.582 482.4
L774.252 508.32
L774.922 499.68
L775.591 496.8
L776.261 465.12
L776.93 491.04
L777.6 505.44
L777.6 505.44" style="fill:none;stroke:#ff0000;stroke-linecap:square;"/>
   </g>
   <g id="line2d_2">
    <path clip-path="url(#p7ceb695115)" d="
M108 583.2
L114.696 583.2
L115.366 580.32
L116.035 580.32
L116.705 583.2
L117.374 583.2
L118.044 580.32
L118.714 580.32
L119.383 577.44
L120.722 577.44
L121.392 574.56
L122.062 574.56
L122.731 580.32
L124.07 580.32
L124.74 577.44
L125.41 580.32
L126.749 580.32
L127.418 577.44
L128.088 577.44
L128.758 574.56
L129.427 577.44
L134.114 577.44
L134.784 580.32
L135.454 577.44
L139.471 577.44
L140.81 571.68
L141.48 574.56
L142.15 571.68
L142.819 571.68
L143.489 565.92
L144.158 563.04
L144.828 568.8
L145.498 565.92
L146.167 571.68
L146.837 568.8
L147.506 568.8
L148.176 574.56
L150.185 574.56
L150.854 571.68
L151.524 571.68
L152.194 568.8
L152.863 568.8
L153.533 577.44
L154.202 571.68
L154.872 571.68
L155.542 565.92
L156.881 565.92
L157.55 568.8
L158.22 565.92
L158.89 568.8
L159.559 568.8
L160.229 577.44
L161.568 571.68
L162.238 574.56
L162.907 571.68
L163.577 571.68
L164.246 574.56
L165.586 574.56
L166.255 571.68
L166.925 571.68
L167.594 568.8
L168.264 577.44
L168.934 574.56
L170.273 574.56
L170.942 571.68
L171.612 571.68
L172.282 574.56
L172.951 574.56
L173.621 571.68
L174.29 571.68
L174.96 568.8
L175.63 568.8
L176.299 565.92
L176.969 571.68
L178.308 577.44
L180.317 577.44
L181.656 583.2
L182.326 583.2
L182.995 580.32
L183.665 580.32
L184.334 574.56
L185.004 574.56
L185.674 580.32
L187.682 580.32
L188.352 577.44
L190.361 577.44
L191.03 580.32
L191.7 574.56
L192.37 571.68
L193.039 574.56
L193.709 571.68
L195.048 577.44
L195.718 574.56
L196.387 574.56
L197.057 577.44
L197.726 574.56
L198.396 574.56
L199.066 577.44
L200.405 571.68
L201.074 571.68
L201.744 568.8
L202.414 568.8
L203.083 565.92
L204.422 571.68
L207.77 571.68
L208.44 568.8
L209.11 571.68
L209.779 571.68
L210.449 577.44
L211.118 577.44
L211.788 580.32
L212.458 580.32
L213.127 583.2
L213.797 577.44
L214.466 577.44
L215.806 571.68
L216.475 571.68
L217.145 568.8
L217.814 571.68
L219.154 565.92
L219.823 565.92
L220.493 577.44
L221.162 577.44
L221.832 571.68
L222.502 568.8
L223.171 571.68
L223.841 571.68
L224.51 568.8
L225.18 571.68
L226.519 571.68
L227.189 574.56
L227.858 565.92
L229.198 571.68
L229.867 568.8
L230.537 568.8
L231.876 574.56
L232.546 574.56
L233.215 571.68
L233.885 574.56
L237.233 574.56
L237.902 571.68
L238.572 577.44
L239.242 568.8
L239.911 577.44
L240.581 580.32
L241.25 577.44
L241.92 577.44
L242.59 574.56
L243.259 574.56
L243.929 577.44
L244.598 574.56
L245.938 574.56
L247.277 568.8
L247.946 571.68
L248.616 565.92
L249.286 568.8
L249.955 565.92
L250.625 571.68
L251.964 571.68
L252.634 574.56
L253.303 574.56
L253.973 571.68
L255.982 580.32
L256.651 580.32
L257.321 583.2
L257.99 580.32
L259.33 580.32
L259.999 583.2
L260.669 580.32
L262.008 580.32
L262.678 574.56
L263.347 571.68
L264.017 574.56
L265.356 574.56
L266.026 577.44
L266.695 577.44
L267.365 580.32
L268.704 580.32
L269.374 577.44
L270.043 577.44
L270.713 580.32
L271.382 580.32
L272.052 577.44
L272.722 577.44
L274.061 571.68
L274.73 571.68
L275.4 568.8
L276.07 571.68
L276.739 571.68
L277.409 568.8
L278.078 568.8
L278.748 557.28
L279.418 557.28
L280.087 565.92
L280.757 568.8
L282.096 568.8
L282.766 563.04
L283.435 565.92
L284.105 571.68
L286.114 571.68
L286.783 568.8
L287.453 577.44
L288.792 571.68
L289.462 574.56
L290.801 574.56
L291.47 577.44
L293.479 568.8
L294.149 571.68
L294.818 577.44
L295.488 577.44
L296.158 574.56
L296.827 577.44
L297.497 571.68
L298.166 571.68
L298.836 574.56
L300.175 574.56
L300.845 577.44
L301.514 574.56
L302.854 574.56
L303.523 580.32
L304.193 577.44
L305.532 577.44
L306.202 574.56
L307.541 574.56
L308.21 571.68
L308.88 577.44
L311.558 577.44
L312.228 580.32
L314.906 580.32
L315.576 583.2
L316.915 583.2
L317.585 577.44
L318.254 574.56
L319.594 574.56
L320.263 571.68
L321.602 577.44
L324.95 577.44
L325.62 580.32
L327.629 580.32
L328.298 583.2
L329.638 583.2
L330.977 577.44
L331.646 571.68
L332.316 568.8
L332.986 577.44
L333.655 571.68
L334.325 571.68
L334.994 574.56
L335.664 568.8
L336.334 571.68
L337.003 568.8
L337.673 568.8
L338.342 565.92
L339.682 571.68
L341.69 571.68
L342.36 568.8
L343.03 580.32
L343.699 583.2
L345.038 577.44
L347.047 577.44
L347.717 580.32
L348.386 580.32
L349.056 583.2
L349.726 580.32
L351.065 580.32
L351.734 583.2
L353.074 577.44
L353.743 571.68
L355.082 571.68
L356.422 577.44
L357.091 565.92
L358.43 571.68
L359.1 577.44
L359.77 580.32
L361.109 574.56
L361.778 574.56
L362.448 571.68
L363.787 571.68
L364.457 568.8
L365.126 563.04
L365.796 571.68
L366.466 568.8
L367.135 568.8
L368.474 574.56
L369.144 574.56
L369.814 577.44
L373.162 577.44
L373.831 580.32
L375.84 580.32
L376.51 583.2
L379.188 583.2
L379.858 580.32
L380.527 580.32
L381.197 577.44
L381.866 577.44
L382.536 574.56
L383.206 574.56
L383.875 563.04
L384.545 568.8
L385.214 571.68
L385.884 568.8
L386.554 568.8
L387.223 574.56
L387.893 577.44
L389.232 577.44
L390.571 583.2
L392.58 583.2
L393.25 580.32
L395.258 580.32
L395.928 577.44
L396.598 577.44
L397.267 574.56
L397.937 574.56
L398.606 577.44
L401.285 565.92
L401.954 571.68
L403.294 571.68
L403.963 568.8
L406.642 568.8
L407.981 557.28
L408.65 565.92
L409.32 571.68
L410.659 571.68
L411.329 574.56
L411.998 571.68
L412.668 574.56
L414.677 565.92
L415.346 560.16
L416.016 568.8
L416.686 565.92
L417.355 565.92
L418.694 571.68
L419.364 577.44
L421.373 577.44
L422.042 580.32
L423.382 574.56
L424.721 574.56
L425.39 571.68
L428.069 571.68
L428.738 574.56
L429.408 574.56
L430.078 577.44
L430.747 574.56
L431.417 574.56
L432.086 577.44
L432.756 577.44
L433.426 574.56
L436.774 574.56
L438.113 580.32
L438.782 577.44
L439.452 577.44
L440.122 571.68
L440.791 574.56
L441.461 571.68
L443.47 571.68
L444.139 568.8
L444.809 560.16
L446.148 537.12
L446.818 548.64
L447.487 540
L448.157 528.48
L448.826 548.64
L449.496 499.68
L450.166 511.2
L450.835 499.68
L451.505 502.56
L452.174 459.36
L452.844 470.88
L453.514 450.72
L454.183 436.32
L454.853 459.36
L455.522 456.48
L456.192 401.76
L456.862 419.04
L457.531 398.88
L458.201 416.16
L458.87 424.8
L459.54 468
L460.21 421.92
L460.879 433.44
L461.549 361.44
L462.218 375.84
L462.888 398.88
L463.558 358.56
L464.227 433.44
L464.897 407.52
L465.566 372.96
L466.236 401.76
L466.906 372.96
L467.575 370.08
L468.245 372.96
L468.914 393.12
L469.584 370.08
L470.254 375.84
L470.923 361.44
L471.593 410.4
L472.262 401.76
L472.932 367.2
L473.602 321.12
L474.271 364.32
L474.941 349.92
L475.61 393.12
L476.28 375.84
L476.95 370.08
L477.619 375.84
L478.289 349.92
L478.958 370.08
L479.628 358.56
L480.298 355.68
L480.967 393.12
L481.637 378.72
L482.306 367.2
L482.976 390.24
L483.646 421.92
L484.315 349.92
L484.985 375.84
L485.654 338.4
L486.324 390.24
L486.994 352.8
L487.663 335.52
L488.333 367.2
L489.002 321.12
L489.672 344.16
L490.342 393.12
L491.011 372.96
L491.681 335.52
L492.35 364.32
L493.02 410.4
L493.69 390.24
L494.359 381.6
L495.029 401.76
L497.038 335.52
L497.707 364.32
L498.377 338.4
L499.046 387.36
L499.716 332.64
L500.386 355.68
L501.055 355.68
L501.725 347.04
L502.394 370.08
L503.064 375.84
L503.734 393.12
L504.403 332.64
L505.073 393.12
L505.742 370.08
L506.412 375.84
L507.082 378.72
L507.751 398.88
L508.421 347.04
L509.09 338.4
L509.76 381.6
L510.43 312.48
L511.099 344.16
L511.769 347.04
L512.438 372.96
L513.108 352.8
L513.778 349.92
L514.447 387.36
L515.117 407.52
L515.786 416.16
L516.456 361.44
L517.126 370.08
L517.795 375.84
L518.465 361.44
L519.134 300.96
L519.804 355.68
L520.474 332.64
L521.143 358.56
L521.813 295.2
L522.482 347.04
L523.152 335.52
L523.822 326.88
L524.491 309.6
L525.161 349.92
L525.83 332.64
L526.5 352.8
L527.17 300.96
L527.839 352.8
L528.509 332.64
L529.178 263.52
L529.848 332.64
L530.518 347.04
L531.187 315.36
L531.857 364.32
L532.526 315.36
L533.196 326.88
L533.866 300.96
L534.535 338.4
L535.205 292.32
L535.874 347.04
L536.544 344.16
L537.214 352.8
L537.883 312.48
L538.553 347.04
L539.222 275.04
L539.892 318.24
L540.562 349.92
L541.231 303.84
L541.901 280.8
L542.57 321.12
L543.24 375.84
L543.91 364.32
L544.579 335.52
L545.249 324
L545.918 324
L546.588 349.92
L547.258 292.32
L547.927 324
L548.597 326.88
L549.266 349.92
L549.936 309.6
L550.606 361.44
L551.275 303.84
L551.945 315.36
L552.614 338.4
L553.284 231.84
L553.954 315.36
L554.623 352.8
L555.293 306.72
L555.962 326.88
L556.632 341.28
L557.302 329.76
L557.971 283.68
L558.641 332.64
L559.31 309.6
L559.98 309.6
L560.65 347.04
L561.319 375.84
L561.989 329.76
L562.658 303.84
L563.328 303.84
L563.998 286.56
L564.667 306.72
L565.337 303.84
L566.006 298.08
L566.676 243.36
L567.346 266.4
L568.015 266.4
L568.685 269.28
L569.354 306.72
L570.024 298.08
L570.694 280.8
L571.363 318.24
L572.033 292.32
L572.702 335.52
L573.372 300.96
L574.042 318.24
L574.711 286.56
L575.381 303.84
L576.05 260.64
L576.72 329.76
L578.059 275.04
L578.729 315.36
L579.398 272.16
L580.068 263.52
L580.738 272.16
L581.407 315.36
L582.077 252
L582.746 226.08
L583.416 277.92
L584.086 220.32
L584.755 280.8
L585.425 228.96
L586.764 295.2
L587.434 240.48
L588.103 231.84
L588.773 269.28
L589.442 266.4
L590.112 234.72
L590.782 257.76
L591.451 292.32
L592.121 260.64
L592.79 205.92
L593.46 254.88
L594.13 280.8
L594.799 231.84
L595.469 240.48
L596.138 277.92
L596.808 243.36
L597.478 240.48
L598.147 277.92
L598.817 200.16
L599.486 180
L600.156 217.44
L600.826 217.44
L601.495 237.6
L602.165 277.92
L602.834 154.08
L603.504 200.16
L604.174 214.56
L604.843 266.4
L605.513 217.44
L606.182 283.68
L607.522 171.36
L608.191 246.24
L608.861 237.6
L609.53 208.8
L610.2 197.28
L610.87 249.12
L611.539 289.44
L612.209 211.68
L612.878 174.24
L613.548 243.36
L614.218 234.72
L614.887 223.2
L615.557 214.56
L616.226 214.56
L616.896 226.08
L618.235 226.08
L618.905 214.56
L619.574 252
L620.244 214.56
L620.914 266.4
L621.583 211.68
L622.253 252
L622.922 131.04
L623.592 254.88
L624.262 211.68
L624.931 208.8
L625.601 231.84
L626.27 246.24
L626.94 243.36
L627.61 145.44
L628.279 249.12
L628.949 205.92
L629.618 231.84
L630.288 188.64
L630.958 220.32
L631.627 231.84
L632.297 280.8
L632.966 240.48
L633.636 182.88
L634.306 194.4
L634.975 231.84
L635.645 194.4
L636.314 208.8
L636.984 240.48
L637.654 243.36
L638.323 194.4
L638.993 234.72
L639.662 231.84
L640.332 197.28
L641.002 243.36
L641.671 240.48
L643.01 211.68
L643.68 220.32
L644.35 266.4
L645.019 254.88
L645.689 286.56
L646.358 214.56
L647.028 234.72
L647.698 208.8
L648.367 252
L649.037 246.24
L649.706 214.56
L650.376 194.4
L651.046 234.72
L651.715 203.04
L652.385 254.88
L653.054 246.24
L654.394 174.24
L655.063 217.44
L656.402 234.72
L657.072 211.68
L657.742 240.48
L658.411 200.16
L659.081 217.44
L659.75 171.36
L661.09 240.48
L661.759 260.64
L662.429 197.28
L663.098 254.88
L663.768 275.04
L664.438 174.24
L665.107 185.76
L665.777 275.04
L666.446 197.28
L667.116 252
L667.786 226.08
L668.455 223.2
L669.125 260.64
L669.794 203.04
L670.464 237.6
L671.134 223.2
L671.803 223.2
L672.473 254.88
L673.142 237.6
L673.812 226.08
L674.482 228.96
L675.151 252
L675.821 220.32
L676.49 217.44
L677.16 243.36
L677.83 200.16
L678.499 275.04
L679.169 277.92
L679.838 237.6
L680.508 234.72
L681.178 257.76
L681.847 151.2
L682.517 226.08
L683.186 217.44
L683.856 228.96
L684.526 211.68
L685.195 185.76
L685.865 200.16
L686.534 246.24
L687.204 228.96
L687.874 254.88
L688.543 228.96
L689.213 231.84
L689.882 174.24
L690.552 133.92
L691.222 243.36
L692.561 154.08
L693.23 269.28
L693.9 182.88
L694.57 197.28
L695.239 180
L695.909 252
L696.578 165.6
L697.248 148.32
L697.918 217.44
L698.587 194.4
L699.257 177.12
L699.926 205.92
L700.596 203.04
L701.266 217.44
L701.935 240.48
L702.605 156.96
L703.274 154.08
L703.944 191.52
L704.614 154.08
L705.283 203.04
L705.953 185.76
L706.622 188.64
L707.292 252
L707.962 205.92
L708.631 188.64
L709.301 185.76
L709.97 205.92
L710.64 214.56
L711.31 200.16
L711.979 257.76
L712.649 151.2
L713.318 145.44
L713.988 231.84
L714.658 105.12
L715.327 191.52
L715.997 188.64
L716.666 182.88
L717.336 188.64
L718.006 231.84
L718.675 168.48
L719.345 162.72
L720.014 231.84
L720.684 191.52
L721.354 197.28
L722.023 211.68
L722.693 165.6
L723.362 182.88
L724.032 211.68
L724.702 191.52
L725.371 154.08
L726.041 197.28
L726.71 180
L727.38 188.64
L728.05 177.12
L728.719 180
L729.389 220.32
L730.058 217.44
L730.728 188.64
L731.398 131.04
L732.067 105.12
L732.737 182.88
L733.406 168.48
L734.076 252
L734.746 156.96
L735.415 177.12
L736.085 180
L736.754 266.4
L737.424 217.44
L738.094 249.12
L738.763 231.84
L739.433 203.04
L740.102 252
L741.442 177.12
L742.111 180
L742.781 231.84
L743.45 208.8
L744.12 228.96
L744.79 203.04
L745.459 269.28
L746.129 275.04
L746.798 260.64
L747.468 182.88
L748.138 208.8
L748.807 228.96
L749.477 208.8
L750.146 214.56
L750.816 260.64
L751.486 188.64
L752.155 171.36
L752.825 214.56
L753.494 162.72
L754.164 243.36
L754.834 220.32
L755.503 168.48
L756.173 214.56
L756.842 246.24
L757.512 122.4
L758.182 194.4
L759.521 188.64
L760.19 174.24
L760.86 223.2
L761.53 203.04
L762.199 208.8
L762.869 119.52
L763.538 223.2
L764.208 165.6
L764.878 237.6
L765.547 156.96
L766.217 205.92
L766.886 168.48
L767.556 156.96
L768.226 180
L768.895 231.84
L769.565 211.68
L770.234 174.24
L770.904 200.16
L771.574 177.12
L772.243 243.36
L772.913 148.32
L773.582 174.24
L774.252 188.64
L774.922 128.16
L775.591 243.36
L776.261 162.72
L776.93 191.52
L777.6 177.12
L777.6 177.12" style="fill:none;stroke:#008000;stroke-linecap:square;"/>
   </g>
   <g id="line2d_3">
    <path clip-path="url(#p7ceb695115)" d="
M108 583.2
L118.714 583.2
L119.383 580.32
L120.053 583.2
L122.062 583.2
L122.731 580.32
L126.749 580.32
L127.418 583.2
L134.784 583.2
L135.454 580.32
L136.793 580.32
L137.462 583.2
L138.802 577.44
L140.81 577.44
L141.48 580.32
L145.498 580.32
L146.167 577.44
L146.837 580.32
L147.506 580.32
L148.176 583.2
L148.846 580.32
L152.194 580.32
L152.863 583.2
L160.229 583.2
L160.898 580.32
L163.577 580.32
L164.246 577.44
L165.586 583.2
L166.255 583.2
L166.925 580.32
L168.264 580.32
L168.934 577.44
L169.603 580.32
L170.273 577.44
L173.621 577.44
L174.29 574.56
L174.96 574.56
L175.63 571.68
L176.969 571.68
L177.638 568.8
L178.308 574.56
L178.978 577.44
L180.986 577.44
L181.656 580.32
L182.995 580.32
L183.665 577.44
L185.004 577.44
L185.674 574.56
L188.352 574.56
L189.022 577.44
L191.03 577.44
L191.7 580.32
L193.709 580.32
L194.378 583.2
L200.405 583.2
L201.074 580.32
L203.083 580.32
L203.753 583.2
L221.162 583.2
L221.832 580.32
L225.18 580.32
L225.85 583.2
L227.189 577.44
L227.858 580.32
L228.528 580.32
L229.198 577.44
L229.867 577.44
L230.537 580.32
L231.876 580.32
L232.546 583.2
L233.215 580.32
L233.885 574.56
L234.554 580.32
L235.224 580.32
L235.894 583.2
L245.938 583.2
L246.607 580.32
L248.616 580.32
L249.286 583.2
L254.642 583.2
L255.312 580.32
L255.982 580.32
L257.321 574.56
L259.33 574.56
L259.999 580.32
L264.017 580.32
L264.686 577.44
L266.026 577.44
L266.695 580.32
L267.365 580.32
L268.034 574.56
L268.704 577.44
L269.374 577.44
L270.043 583.2
L270.713 580.32
L272.722 580.32
L273.391 583.2
L282.766 583.2
L283.435 580.32
L288.792 580.32
L289.462 583.2
L290.131 580.32
L292.81 580.32
L293.479 577.44
L294.149 577.44
L294.818 583.2
L295.488 583.2
L297.497 574.56
L299.506 574.56
L300.845 580.32
L302.184 580.32
L302.854 583.2
L310.219 583.2
L310.889 580.32
L311.558 580.32
L312.228 583.2
L322.942 583.2
L323.611 580.32
L325.62 580.32
L326.29 583.2
L329.638 583.2
L330.307 580.32
L331.646 580.32
L332.316 577.44
L333.655 577.44
L334.994 571.68
L337.003 571.68
L337.673 568.8
L339.682 577.44
L341.021 571.68
L341.69 574.56
L343.03 574.56
L343.699 577.44
L345.708 577.44
L346.378 580.32
L353.743 580.32
L354.413 583.2
L356.422 583.2
L357.091 577.44
L363.118 577.44
L363.787 580.32
L366.466 580.32
L367.135 577.44
L368.474 577.44
L369.144 580.32
L369.814 580.32
L370.483 577.44
L371.153 577.44
L371.822 574.56
L372.492 574.56
L373.162 577.44
L375.17 577.44
L375.84 580.32
L376.51 580.32
L377.179 583.2
L377.849 580.32
L378.518 580.32
L379.188 577.44
L379.858 580.32
L385.214 580.32
L385.884 577.44
L386.554 577.44
L387.223 580.32
L390.571 580.32
L391.241 577.44
L391.91 580.32
L398.606 580.32
L399.276 577.44
L401.954 577.44
L402.624 580.32
L403.294 577.44
L404.633 577.44
L405.302 580.32
L406.642 580.32
L407.311 583.2
L407.981 574.56
L408.65 577.44
L409.32 574.56
L409.99 580.32
L413.338 580.32
L414.007 577.44
L415.346 583.2
L416.016 580.32
L416.686 583.2
L430.078 583.2
L430.747 580.32
L434.095 580.32
L434.765 583.2
L443.47 583.2
L444.139 580.32
L446.148 580.32
L446.818 574.56
L447.487 577.44
L448.157 574.56
L448.826 577.44
L449.496 568.8
L450.166 563.04
L450.835 568.8
L452.174 563.04
L452.844 565.92
L453.514 554.4
L454.183 551.52
L454.853 568.8
L455.522 554.4
L456.192 551.52
L457.531 551.52
L458.201 545.76
L458.87 534.24
L459.54 557.28
L460.21 519.84
L460.879 551.52
L461.549 542.88
L462.218 545.76
L462.888 519.84
L463.558 531.36
L464.227 548.64
L464.897 522.72
L465.566 534.24
L466.236 542.88
L466.906 528.48
L467.575 557.28
L468.245 537.12
L468.914 528.48
L469.584 522.72
L470.254 493.92
L470.923 545.76
L471.593 537.12
L472.262 514.08
L472.932 525.6
L473.602 514.08
L474.941 519.84
L475.61 508.32
L476.28 542.88
L476.95 514.08
L477.619 540
L478.289 545.76
L478.958 516.96
L479.628 537.12
L480.298 534.24
L480.967 540
L481.637 534.24
L482.306 537.12
L482.976 531.36
L483.646 534.24
L484.315 540
L485.654 534.24
L486.324 545.76
L486.994 540
L487.663 528.48
L488.333 537.12
L489.002 516.96
L489.672 534.24
L490.342 528.48
L491.011 508.32
L491.681 531.36
L492.35 522.72
L493.69 540
L494.359 545.76
L495.029 534.24
L495.698 514.08
L496.368 525.6
L497.038 548.64
L497.707 522.72
L498.377 531.36
L499.046 542.88
L499.716 511.2
L500.386 531.36
L501.055 534.24
L501.725 531.36
L502.394 514.08
L503.064 540
L503.734 522.72
L504.403 540
L505.073 525.6
L505.742 508.32
L506.412 551.52
L507.082 525.6
L507.751 516.96
L508.421 528.48
L509.09 511.2
L509.76 528.48
L510.43 516.96
L511.099 528.48
L511.769 534.24
L512.438 528.48
L513.108 505.44
L513.778 528.48
L514.447 522.72
L515.786 534.24
L516.456 511.2
L517.126 540
L517.795 531.36
L518.465 531.36
L519.134 499.68
L519.804 511.2
L520.474 542.88
L521.143 548.64
L521.813 519.84
L522.482 537.12
L523.152 525.6
L523.822 522.72
L524.491 528.48
L525.161 519.84
L525.83 525.6
L526.5 528.48
L527.17 516.96
L527.839 525.6
L528.509 522.72
L529.178 514.08
L529.848 542.88
L530.518 516.96
L531.187 531.36
L531.857 511.2
L532.526 540
L533.196 516.96
L533.866 525.6
L535.205 519.84
L535.874 514.08
L536.544 519.84
L537.214 522.72
L537.883 528.48
L538.553 502.56
L539.222 522.72
L539.892 505.44
L540.562 491.04
L541.231 528.48
L541.901 522.72
L542.57 519.84
L543.24 514.08
L543.91 511.2
L544.579 488.16
L545.249 516.96
L545.918 519.84
L546.588 496.8
L547.258 482.4
L547.927 540
L548.597 542.88
L549.266 508.32
L549.936 528.48
L550.606 531.36
L551.275 511.2
L551.945 511.2
L552.614 514.08
L553.284 534.24
L553.954 516.96
L554.623 505.44
L555.293 514.08
L555.962 502.56
L556.632 516.96
L557.302 511.2
L557.971 502.56
L558.641 491.04
L559.31 496.8
L559.98 522.72
L560.65 525.6
L561.319 516.96
L561.989 519.84
L562.658 531.36
L563.328 522.72
L563.998 525.6
L564.667 493.92
L565.337 522.72
L566.006 479.52
L566.676 531.36
L567.346 508.32
L568.015 496.8
L568.685 493.92
L569.354 519.84
L570.024 537.12
L570.694 522.72
L571.363 514.08
L572.033 525.6
L572.702 505.44
L573.372 502.56
L574.042 525.6
L574.711 468
L575.381 493.92
L576.05 505.44
L576.72 508.32
L578.059 531.36
L578.729 502.56
L579.398 508.32
L580.068 482.4
L580.738 508.32
L581.407 488.16
L582.077 537.12
L582.746 485.28
L583.416 505.44
L584.086 488.16
L584.755 499.68
L586.764 491.04
L587.434 496.8
L588.103 519.84
L589.442 491.04
L590.112 522.72
L590.782 485.28
L591.451 502.56
L592.121 485.28
L592.79 514.08
L593.46 519.84
L594.13 488.16
L594.799 508.32
L595.469 514.08
L596.138 488.16
L596.808 502.56
L597.478 511.2
L598.817 488.16
L599.486 468
L600.156 502.56
L600.826 462.24
L601.495 485.28
L602.834 514.08
L603.504 516.96
L604.174 488.16
L604.843 505.44
L605.513 482.4
L606.182 496.8
L606.852 499.68
L607.522 496.8
L608.191 502.56
L608.861 473.76
L610.2 508.32
L610.87 473.76
L611.539 491.04
L612.209 493.92
L612.878 479.52
L613.548 499.68
L614.218 482.4
L615.557 505.44
L616.226 502.56
L616.896 470.88
L617.566 514.08
L618.235 508.32
L618.905 514.08
L619.574 485.28
L620.244 491.04
L620.914 476.64
L621.583 499.68
L622.253 511.2
L622.922 488.16
L623.592 508.32
L624.262 485.28
L624.931 511.2
L625.601 511.2
L626.27 488.16
L626.94 519.84
L627.61 496.8
L628.279 459.36
L628.949 505.44
L629.618 514.08
L630.288 514.08
L630.958 502.56
L631.627 496.8
L632.297 511.2
L632.966 496.8
L633.636 470.88
L634.306 511.2
L634.975 485.28
L635.645 508.32
L636.314 493.92
L636.984 493.92
L637.654 496.8
L638.323 491.04
L638.993 491.04
L639.662 488.16
L640.332 479.52
L641.002 493.92
L641.671 511.2
L642.341 482.4
L643.01 511.2
L643.68 476.64
L644.35 493.92
L645.019 479.52
L645.689 508.32
L646.358 479.52
L647.028 505.44
L647.698 482.4
L648.367 496.8
L649.037 496.8
L649.706 491.04
L650.376 528.48
L651.046 479.52
L651.715 479.52
L652.385 508.32
L653.054 476.64
L653.724 476.64
L654.394 508.32
L655.063 468
L655.733 482.4
L656.402 465.12
L657.072 493.92
L657.742 491.04
L658.411 491.04
L659.081 488.16
L659.75 508.32
L660.42 485.28
L661.09 505.44
L661.759 488.16
L662.429 473.76
L663.098 508.32
L663.768 470.88
L664.438 496.8
L665.107 496.8
L665.777 479.52
L666.446 491.04
L667.116 528.48
L667.786 485.28
L668.455 488.16
L669.125 499.68
L669.794 482.4
L670.464 479.52
L671.134 508.32
L671.803 476.64
L672.473 485.28
L673.142 470.88
L673.812 488.16
L674.482 496.8
L675.151 479.52
L675.821 482.4
L676.49 499.68
L677.16 491.04
L677.83 511.2
L678.499 502.56
L679.169 496.8
L679.838 516.96
L680.508 476.64
L681.178 534.24
L681.847 496.8
L682.517 493.92
L683.186 476.64
L683.856 493.92
L684.526 493.92
L685.195 485.28
L685.865 493.92
L686.534 482.4
L687.204 485.28
L687.874 493.92
L688.543 456.48
L689.213 476.64
L689.882 468
L690.552 476.64
L691.222 491.04
L691.891 485.28
L692.561 491.04
L693.23 491.04
L694.57 502.56
L695.239 476.64
L695.909 462.24
L696.578 465.12
L697.248 485.28
L697.918 462.24
L698.587 476.64
L699.257 511.2
L699.926 470.88
L700.596 488.16
L701.266 482.4
L701.935 482.4
L702.605 496.8
L703.274 456.48
L703.944 493.92
L704.614 476.64
L705.283 514.08
L705.953 456.48
L706.622 447.84
L707.292 491.04
L707.962 476.64
L708.631 476.64
L709.301 519.84
L709.97 488.16
L710.64 476.64
L711.31 511.2
L711.979 470.88
L713.318 505.44
L713.988 491.04
L714.658 465.12
L715.327 465.12
L715.997 496.8
L716.666 470.88
L717.336 482.4
L718.006 473.76
L718.675 473.76
L719.345 496.8
L720.014 496.8
L720.684 473.76
L721.354 485.28
L723.362 476.64
L724.032 444.96
L724.702 470.88
L725.371 488.16
L726.041 468
L726.71 514.08
L727.38 476.64
L728.05 505.44
L728.719 485.28
L729.389 476.64
L730.058 473.76
L730.728 485.28
L731.398 491.04
L732.067 473.76
L732.737 491.04
L733.406 453.6
L734.076 511.2
L734.746 470.88
L735.415 459.36
L736.085 508.32
L736.754 485.28
L737.424 522.72
L738.094 465.12
L738.763 502.56
L739.433 519.84
L740.772 473.76
L741.442 439.2
L742.111 505.44
L742.781 499.68
L743.45 505.44
L744.12 508.32
L744.79 482.4
L745.459 476.64
L746.129 473.76
L746.798 488.16
L747.468 482.4
L748.138 488.16
L748.807 499.68
L749.477 505.44
L750.146 462.24
L750.816 525.6
L751.486 470.88
L752.155 491.04
L752.825 502.56
L753.494 470.88
L754.164 505.44
L754.834 462.24
L755.503 488.16
L756.173 502.56
L756.842 496.8
L757.512 493.92
L758.182 485.28
L758.851 482.4
L759.521 493.92
L760.19 496.8
L760.86 505.44
L761.53 485.28
L762.199 459.36
L762.869 505.44
L763.538 485.28
L764.208 499.68
L764.878 479.52
L765.547 505.44
L766.217 473.76
L766.886 508.32
L767.556 496.8
L768.226 450.72
L768.895 496.8
L769.565 470.88
L770.234 493.92
L770.904 462.24
L771.574 488.16
L772.243 465.12
L772.913 462.24
L773.582 496.8
L774.252 488.16
L774.922 470.88
L775.591 468
L776.261 482.4
L776.93 482.4
L777.6 488.16
L777.6 488.16" style="fill:none;stroke:#0000ff;stroke-linecap:square;"/>
   </g>
   <g id="patch_3">
    <path d="
M777.6 583.2
L777.6 64.8" style="fill:none;stroke:#000000;stroke-linecap:square;stroke-linejoin:miter;"/>
   </g>
   <g id="patch_4">
    <path d="
M108 64.8
L777.6 64.8" style="fill:none;stroke:#000000;stroke-linecap:square;stroke-linejoin:miter;"/>
   </g>
   <g id="patch_5">
    <path d="
M108 583.2
L108 64.8" style="fill:none;stroke:#000000;stroke-linecap:square;stroke-linejoin:miter;"/>
   </g>
   <g id="patch_6">
    <path d="
M108 583.2
L777.6 583.2" style="fill:none;stroke:#000000;stroke-linecap:square;stroke-linejoin:miter;"/>
   </g>
   <g id="matplotlib.axis_1">
    <g id="xtick_1">
     <g id="line2d_4">
      <defs>
       <path d="
M0 0
L0 -4" id="mc7db9fdffb" style="stroke:#000000;stroke-width:0.5;"/>
      </defs>
      <g>
       <use style="stroke:#000000;stroke-width:0.5;" x="108.0" xlink:href="#mc7db9fdffb" y="583.2"/>
      </g>
     </g>
     <g id="line2d_5">
      <defs>
       <path d="
M0 0
L0 4" id="m5a7d422ac3" style="stroke:#000000;stroke-width:0.5;"/>
      </defs>
      <g>
       <use style="stroke:#000000;stroke-width:0.5;" x="108.0" xlink:href="#m5a7d422ac3" y="64.8"/>
      </g>
     </g>
     <g id="text_1">
      <!-- 0 -->
      <defs>
       <path d="
M31.7812 66.4062
Q24.1719 66.4062 20.3281 58.9062
Q16.5 51.4219 16.5 36.375
Q16.5 21.3906 20.3281 13.8906
Q24.1719 6.39062 31.7812 6.39062
Q39.4531 6.39062 43.2812 13.8906
Q47.125 21.3906 47.125 36.375
Q47.125 51.4219 43.2812 58.9062
Q39.4531 66.4062 31.7812 66.4062
M31.7812 74.2188
Q44.0469 74.2188 50.5156 64.5156
Q56.9844 54.8281 56.9844 36.375
Q56.9844 17.9688 50.5156 8.26562
Q44.0469 -1.42188 31.7812 -1.42188
Q19.5312 -1.42188 13.0625 8.26562
Q6.59375 17.9688 6.59375 36.375
Q6.59375 54.8281 13.0625 64.5156
Q19.5312 74.2188 31.7812 74.2188" id="BitstreamVeraSans-Roman-30"/>
      </defs>
      <g transform="translate(104.9765625 596.318125)scale(0.12 -0.12)">
       <use xlink:href="#BitstreamVeraSans-Roman-30"/>
      </g>
     </g>
    </g>
    <g id="xtick_2">
     <g id="line2d_6">
      <g>
       <use style="stroke:#000000;stroke-width:0.5;" x="275.4" xlink:href="#mc7db9fdffb" y="583.2"/>
      </g>
     </g>
     <g id="line2d_7">
      <g>
       <use style="stroke:#000000;stroke-width:0.5;" x="275.4" xlink:href="#m5a7d422ac3" y="64.8"/>
      </g>
     </g>
     <g id="text_2">
      <!-- 50000 -->
      <defs>
       <path d="
M10.7969 72.9062
L49.5156 72.9062
L49.5156 64.5938
L19.8281 64.5938
L19.8281 46.7344
Q21.9688 47.4688 24.1094 47.8281
Q26.2656 48.1875 28.4219 48.1875
Q40.625 48.1875 47.75 41.5
Q54.8906 34.8125 54.8906 23.3906
Q54.8906 11.625 47.5625 5.09375
Q40.2344 -1.42188 26.9062 -1.42188
Q22.3125 -1.42188 17.5469 -0.640625
Q12.7969 0.140625 7.71875 1.70312
L7.71875 11.625
Q12.1094 9.23438 16.7969 8.0625
Q21.4844 6.89062 26.7031 6.89062
Q35.1562 6.89062 40.0781 11.3281
Q45.0156 15.7656 45.0156 23.3906
Q45.0156 31 40.0781 35.4375
Q35.1562 39.8906 26.7031 39.8906
Q22.75 39.8906 18.8125 39.0156
Q14.8906 38.1406 10.7969 36.2812
z
" id="BitstreamVeraSans-Roman-35"/>
      </defs>
      <g transform="translate(257.1740625 596.318125)scale(0.12 -0.12)">
       <use xlink:href="#BitstreamVeraSans-Roman-35"/>
       <use x="63.623046875" xlink:href="#BitstreamVeraSans-Roman-30"/>
       <use x="127.24609375" xlink:href="#BitstreamVeraSans-Roman-30"/>
       <use x="190.869140625" xlink:href="#BitstreamVeraSans-Roman-30"/>
       <use x="254.4921875" xlink:href="#BitstreamVeraSans-Roman-30"/>
      </g>
     </g>
    </g>
    <g id="xtick_3">
     <g id="line2d_8">
      <g>
       <use style="stroke:#000000;stroke-width:0.5;" x="442.8" xlink:href="#mc7db9fdffb" y="583.2"/>
      </g>
     </g>
     <g id="line2d_9">
      <g>
       <use style="stroke:#000000;stroke-width:0.5;" x="442.8" xlink:href="#m5a7d422ac3" y="64.8"/>
      </g>
     </g>
     <g id="text_3">
      <!-- 100000 -->
      <defs>
       <path d="
M12.4062 8.29688
L28.5156 8.29688
L28.5156 63.9219
L10.9844 60.4062
L10.9844 69.3906
L28.4219 72.9062
L38.2812 72.9062
L38.2812 8.29688
L54.3906 8.29688
L54.3906 0
L12.4062 0
z
" id="BitstreamVeraSans-Roman-31"/>
      </defs>
      <g transform="translate(420.9525 596.318125)scale(0.12 -0.12)">
       <use xlink:href="#BitstreamVeraSans-Roman-31"/>
       <use x="63.623046875" xlink:href="#BitstreamVeraSans-Roman-30"/>
       <use x="127.24609375" xlink:href="#BitstreamVeraSans-Roman-30"/>
       <use x="190.869140625" xlink:href="#BitstreamVeraSans-Roman-30"/>
       <use x="254.4921875" xlink:href="#BitstreamVeraSans-Roman-30"/>
       <use x="318.115234375" xlink:href="#BitstreamVeraSans-Roman-30"/>
      </g>
     </g>
    </g>
    <g id="xtick_4">
     <g id="line2d_10">
      <g>
       <use style="stroke:#000000;stroke-width:0.5;" x="610.2" xlink:href="#mc7db9fdffb" y="583.2"/>
      </g>
     </g>
     <g id="line2d_11">
      <g>
       <use style="stroke:#000000;stroke-width:0.5;" x="610.2" xlink:href="#m5a7d422ac3" y="64.8"/>
      </g>
     </g>
     <g id="text_4">
      <!-- 150000 -->
      <g transform="translate(588.3525 596.318125)scale(0.12 -0.12)">
       <use xlink:href="#BitstreamVeraSans-Roman-31"/>
       <use x="63.623046875" xlink:href="#BitstreamVeraSans-Roman-35"/>
       <use x="127.24609375" xlink:href="#BitstreamVeraSans-Roman-30"/>
       <use x="190.869140625" xlink:href="#BitstreamVeraSans-Roman-30"/>
       <use x="254.4921875" xlink:href="#BitstreamVeraSans-Roman-30"/>
       <use x="318.115234375" xlink:href="#BitstreamVeraSans-Roman-30"/>
      </g>
     </g>
    </g>
    <g id="xtick_5">
     <g id="line2d_12">
      <g>
       <use style="stroke:#000000;stroke-width:0.5;" x="777.6" xlink:href="#mc7db9fdffb" y="583.2"/>
      </g>
     </g>
     <g id="line2d_13">
      <g>
       <use style="stroke:#000000;stroke-width:0.5;" x="777.6" xlink:href="#m5a7d422ac3" y="64.8"/>
      </g>
     </g>
     <g id="text_5">
      <!-- 200000 -->
      <defs>
       <path d="
M19.1875 8.29688
L53.6094 8.29688
L53.6094 0
L7.32812 0
L7.32812 8.29688
Q12.9375 14.1094 22.625 23.8906
Q32.3281 33.6875 34.8125 36.5312
Q39.5469 41.8438 41.4219 45.5312
Q43.3125 49.2188 43.3125 52.7812
Q43.3125 58.5938 39.2344 62.25
Q35.1562 65.9219 28.6094 65.9219
Q23.9688 65.9219 18.8125 64.3125
Q13.6719 62.7031 7.8125 59.4219
L7.8125 69.3906
Q13.7656 71.7812 18.9375 73
Q24.125 74.2188 28.4219 74.2188
Q39.75 74.2188 46.4844 68.5469
Q53.2188 62.8906 53.2188 53.4219
Q53.2188 48.9219 51.5312 44.8906
Q49.8594 40.875 45.4062 35.4062
Q44.1875 33.9844 37.6406 27.2188
Q31.1094 20.4531 19.1875 8.29688" id="BitstreamVeraSans-Roman-32"/>
      </defs>
      <g transform="translate(755.533125 596.318125)scale(0.12 -0.12)">
       <use xlink:href="#BitstreamVeraSans-Roman-32"/>
       <use x="63.623046875" xlink:href="#BitstreamVeraSans-Roman-30"/>
       <use x="127.24609375" xlink:href="#BitstreamVeraSans-Roman-30"/>
       <use x="190.869140625" xlink:href="#BitstreamVeraSans-Roman-30"/>
       <use x="254.4921875" xlink:href="#BitstreamVeraSans-Roman-30"/>
       <use x="318.115234375" xlink:href="#BitstreamVeraSans-Roman-30"/>
      </g>
     </g>
    </g>
    <g id="text_6">
     <!-- t / ms -->
     <defs>
      <path d="
M52 44.1875
Q55.375 50.25 60.0625 53.125
Q64.75 56 71.0938 56
Q79.6406 56 84.2812 50.0156
Q88.9219 44.0469 88.9219 33.0156
L88.9219 0
L79.8906 0
L79.8906 32.7188
Q79.8906 40.5781 77.0938 44.375
Q74.3125 48.1875 68.6094 48.1875
Q61.625 48.1875 57.5625 43.5469
Q53.5156 38.9219 53.5156 30.9062
L53.5156 0
L44.4844 0
L44.4844 32.7188
Q44.4844 40.625 41.7031 44.4062
Q38.9219 48.1875 33.1094 48.1875
Q26.2188 48.1875 22.1562 43.5312
Q18.1094 38.875 18.1094 30.9062
L18.1094 0
L9.07812 0
L9.07812 54.6875
L18.1094 54.6875
L18.1094 46.1875
Q21.1875 51.2188 25.4844 53.6094
Q29.7812 56 35.6875 56
Q41.6562 56 45.8281 52.9688
Q50 49.9531 52 44.1875" id="BitstreamVeraSans-Roman-6d"/>
      <path d="
M18.3125 70.2188
L18.3125 54.6875
L36.8125 54.6875
L36.8125 47.7031
L18.3125 47.7031
L18.3125 18.0156
Q18.3125 11.3281 20.1406 9.42188
Q21.9688 7.51562 27.5938 7.51562
L36.8125 7.51562
L36.8125 0
L27.5938 0
Q17.1875 0 13.2344 3.875
Q9.28125 7.76562 9.28125 18.0156
L9.28125 47.7031
L2.6875 47.7031
L2.6875 54.6875
L9.28125 54.6875
L9.28125 70.2188
z
" id="BitstreamVeraSans-Roman-74"/>
      <path d="
M44.2812 53.0781
L44.2812 44.5781
Q40.4844 46.5312 36.375 47.5
Q32.2812 48.4844 27.875 48.4844
Q21.1875 48.4844 17.8438 46.4375
Q14.5 44.3906 14.5 40.2812
Q14.5 37.1562 16.8906 35.375
Q19.2812 33.5938 26.5156 31.9844
L29.5938 31.2969
Q39.1562 29.25 43.1875 25.5156
Q47.2188 21.7812 47.2188 15.0938
Q47.2188 7.46875 41.1875 3.01562
Q35.1562 -1.42188 24.6094 -1.42188
Q20.2188 -1.42188 15.4531 -0.5625
Q10.6875 0.296875 5.42188 2
L5.42188 11.2812
Q10.4062 8.6875 15.2344 7.39062
Q20.0625 6.10938 24.8125 6.10938
Q31.1562 6.10938 34.5625 8.28125
Q37.9844 10.4531 37.9844 14.4062
Q37.9844 18.0625 35.5156 20.0156
Q33.0625 21.9688 24.7031 23.7812
L21.5781 24.5156
Q13.2344 26.2656 9.51562 29.9062
Q5.8125 33.5469 5.8125 39.8906
Q5.8125 47.6094 11.2812 51.7969
Q16.75 56 26.8125 56
Q31.7812 56 36.1719 55.2656
Q40.5781 54.5469 44.2812 53.0781" id="BitstreamVeraSans-Roman-73"/>
      <path id="BitstreamVeraSans-Roman-20"/>
      <path d="
M25.3906 72.9062
L33.6875 72.9062
L8.29688 -9.28125
L0 -9.28125
z
" id="BitstreamVeraSans-Roman-2f"/>
     </defs>
     <g transform="translate(425.9353125 612.931875)scale(0.12 -0.12)">
      <use xlink:href="#BitstreamVeraSans-Roman-74"/>
      <use x="39.208984375" xlink:href="#BitstreamVeraSans-Roman-20"/>
      <use x="70.99609375" xlink:href="#BitstreamVeraSans-Roman-2f"/>
      <use x="104.6875" xlink:href="#BitstreamVeraSans-Roman-20"/>
      <use x="136.474609375" xlink:href="#BitstreamVeraSans-Roman-6d"/>
      <use x="233.88671875" xlink:href="#BitstreamVeraSans-Roman-73"/>
     </g>
    </g>
   </g>
   <g id="matplotlib.axis_2">
    <g id="ytick_1">
     <g id="line2d_14">
      <defs>
       <path d="
M0 0
L4 0" id="md7965d1ba0" style="stroke:#000000;stroke-width:0.5;"/>
      </defs>
      <g>
       <use style="stroke:#000000;stroke-width:0.5;" x="108.0" xlink:href="#md7965d1ba0" y="583.2"/>
      </g>
     </g>
     <g id="line2d_15">
      <defs>
       <path d="
M0 0
L-4 0" id="md9a1c1a7cd" style="stroke:#000000;stroke-width:0.5;"/>
      </defs>
      <g>
       <use style="stroke:#000000;stroke-width:0.5;" x="777.6" xlink:href="#md9a1c1a7cd" y="583.2"/>
      </g>
     </g>
     <g id="text_7">
      <!-- 0 -->
      <g transform="translate(97.953125 586.51125)scale(0.12 -0.12)">
       <use xlink:href="#BitstreamVeraSans-Roman-30"/>
      </g>
     </g>
    </g>
    <g id="ytick_2">
     <g id="line2d_16">
      <g>
       <use style="stroke:#000000;stroke-width:0.5;" x="108.0" xlink:href="#md7965d1ba0" y="525.6"/>
      </g>
     </g>
     <g id="line2d_17">
      <g>
       <use style="stroke:#000000;stroke-width:0.5;" x="777.6" xlink:href="#md9a1c1a7cd" y="525.6"/>
      </g>
     </g>
     <g id="text_8">
      <!-- 20 -->
      <g transform="translate(90.40625 528.91125)scale(0.12 -0.12)">
       <use xlink:href="#BitstreamVeraSans-Roman-32"/>
       <use x="63.623046875" xlink:href="#BitstreamVeraSans-Roman-30"/>
      </g>
     </g>
    </g>
    <g id="ytick_3">
     <g id="line2d_18">
      <g>
       <use style="stroke:#000000;stroke-width:0.5;" x="108.0" xlink:href="#md7965d1ba0" y="468.0"/>
      </g>
     </g>
     <g id="line2d_19">
      <g>
       <use style="stroke:#000000;stroke-width:0.5;" x="777.6" xlink:href="#md9a1c1a7cd" y="468.0"/>
      </g>
     </g>
     <g id="text_9">
      <!-- 40 -->
      <defs>
       <path d="
M37.7969 64.3125
L12.8906 25.3906
L37.7969 25.3906
z

M35.2031 72.9062
L47.6094 72.9062
L47.6094 25.3906
L58.0156 25.3906
L58.0156 17.1875
L47.6094 17.1875
L47.6094 0
L37.7969 0
L37.7969 17.1875
L4.89062 17.1875
L4.89062 26.7031
z
" id="BitstreamVeraSans-Roman-34"/>
      </defs>
      <g transform="translate(90.11375 471.31125)scale(0.12 -0.12)">
       <use xlink:href="#BitstreamVeraSans-Roman-34"/>
       <use x="63.623046875" xlink:href="#BitstreamVeraSans-Roman-30"/>
      </g>
     </g>
    </g>
    <g id="ytick_4">
     <g id="line2d_20">
      <g>
       <use style="stroke:#000000;stroke-width:0.5;" x="108.0" xlink:href="#md7965d1ba0" y="410.4"/>
      </g>
     </g>
     <g id="line2d_21">
      <g>
       <use style="stroke:#000000;stroke-width:0.5;" x="777.6" xlink:href="#md9a1c1a7cd" y="410.4"/>
      </g>
     </g>
     <g id="text_10">
      <!-- 60 -->
      <defs>
       <path d="
M33.0156 40.375
Q26.375 40.375 22.4844 35.8281
Q18.6094 31.2969 18.6094 23.3906
Q18.6094 15.5312 22.4844 10.9531
Q26.375 6.39062 33.0156 6.39062
Q39.6562 6.39062 43.5312 10.9531
Q47.4062 15.5312 47.4062 23.3906
Q47.4062 31.2969 43.5312 35.8281
Q39.6562 40.375 33.0156 40.375
M52.5938 71.2969
L52.5938 62.3125
Q48.875 64.0625 45.0938 64.9844
Q41.3125 65.9219 37.5938 65.9219
Q27.8281 65.9219 22.6719 59.3281
Q17.5312 52.7344 16.7969 39.4062
Q19.6719 43.6562 24.0156 45.9219
Q28.375 48.1875 33.5938 48.1875
Q44.5781 48.1875 50.9531 41.5156
Q57.3281 34.8594 57.3281 23.3906
Q57.3281 12.1562 50.6875 5.35938
Q44.0469 -1.42188 33.0156 -1.42188
Q20.3594 -1.42188 13.6719 8.26562
Q6.98438 17.9688 6.98438 36.375
Q6.98438 53.6562 15.1875 63.9375
Q23.3906 74.2188 37.2031 74.2188
Q40.9219 74.2188 44.7031 73.4844
Q48.4844 72.75 52.5938 71.2969" id="BitstreamVeraSans-Roman-36"/>
      </defs>
      <g transform="translate(90.365 413.71125)scale(0.12 -0.12)">
       <use xlink:href="#BitstreamVeraSans-Roman-36"/>
       <use x="63.623046875" xlink:href="#BitstreamVeraSans-Roman-30"/>
      </g>
     </g>
    </g>
    <g id="ytick_5">
     <g id="line2d_22">
      <g>
       <use style="stroke:#000000;stroke-width:0.5;" x="108.0" xlink:href="#md7965d1ba0" y="352.8"/>
      </g>
     </g>
     <g id="line2d_23">
      <g>
       <use style="stroke:#000000;stroke-width:0.5;" x="777.6" xlink:href="#md9a1c1a7cd" y="352.8"/>
      </g>
     </g>
     <g id="text_11">
      <!-- 80 -->
      <defs>
       <path d="
M31.7812 34.625
Q24.75 34.625 20.7188 30.8594
Q16.7031 27.0938 16.7031 20.5156
Q16.7031 13.9219 20.7188 10.1562
Q24.75 6.39062 31.7812 6.39062
Q38.8125 6.39062 42.8594 10.1719
Q46.9219 13.9688 46.9219 20.5156
Q46.9219 27.0938 42.8906 30.8594
Q38.875 34.625 31.7812 34.625
M21.9219 38.8125
Q15.5781 40.375 12.0312 44.7188
Q8.5 49.0781 8.5 55.3281
Q8.5 64.0625 14.7188 69.1406
Q20.9531 74.2188 31.7812 74.2188
Q42.6719 74.2188 48.875 69.1406
Q55.0781 64.0625 55.0781 55.3281
Q55.0781 49.0781 51.5312 44.7188
Q48 40.375 41.7031 38.8125
Q48.8281 37.1562 52.7969 32.3125
Q56.7812 27.4844 56.7812 20.5156
Q56.7812 9.90625 50.3125 4.23438
Q43.8438 -1.42188 31.7812 -1.42188
Q19.7344 -1.42188 13.25 4.23438
Q6.78125 9.90625 6.78125 20.5156
Q6.78125 27.4844 10.7812 32.3125
Q14.7969 37.1562 21.9219 38.8125
M18.3125 54.3906
Q18.3125 48.7344 21.8438 45.5625
Q25.3906 42.3906 31.7812 42.3906
Q38.1406 42.3906 41.7188 45.5625
Q45.3125 48.7344 45.3125 54.3906
Q45.3125 60.0625 41.7188 63.2344
Q38.1406 66.4062 31.7812 66.4062
Q25.3906 66.4062 21.8438 63.2344
Q18.3125 60.0625 18.3125 54.3906" id="BitstreamVeraSans-Roman-38"/>
      </defs>
      <g transform="translate(90.340625 356.11125)scale(0.12 -0.12)">
       <use xlink:href="#BitstreamVeraSans-Roman-38"/>
       <use x="63.623046875" xlink:href="#BitstreamVeraSans-Roman-30"/>
      </g>
     </g>
    </g>
    <g id="ytick_6">
     <g id="line2d_24">
      <g>
       <use style="stroke:#000000;stroke-width:0.5;" x="108.0" xlink:href="#md7965d1ba0" y="295.2"/>
      </g>
     </g>
     <g id="line2d_25">
      <g>
       <use style="stroke:#000000;stroke-width:0.5;" x="777.6" xlink:href="#md9a1c1a7cd" y="295.2"/>
      </g>
     </g>
     <g id="text_12">
      <!-- 100 -->
      <g transform="translate(83.21 298.51125)scale(0.12 -0.12)">
       <use xlink:href="#BitstreamVeraSans-Roman-31"/>
       <use x="63.623046875" xlink:href="#BitstreamVeraSans-Roman-30"/>
       <use x="127.24609375" xlink:href="#BitstreamVeraSans-Roman-30"/>
      </g>
     </g>
    </g>
    <g id="ytick_7">
     <g id="line2d_26">
      <g>
       <use style="stroke:#000000;stroke-width:0.5;" x="108.0" xlink:href="#md7965d1ba0" y="237.6"/>
      </g>
     </g>
     <g id="line2d_27">
      <g>
       <use style="stroke:#000000;stroke-width:0.5;" x="777.6" xlink:href="#md9a1c1a7cd" y="237.6"/>
      </g>
     </g>
     <g id="text_13">
      <!-- 120 -->
      <g transform="translate(83.21 240.91125)scale(0.12 -0.12)">
       <use xlink:href="#BitstreamVeraSans-Roman-31"/>
       <use x="63.623046875" xlink:href="#BitstreamVeraSans-Roman-32"/>
       <use x="127.24609375" xlink:href="#BitstreamVeraSans-Roman-30"/>
      </g>
     </g>
    </g>
    <g id="ytick_8">
     <g id="line2d_28">
      <g>
       <use style="stroke:#000000;stroke-width:0.5;" x="108.0" xlink:href="#md7965d1ba0" y="180.0"/>
      </g>
     </g>
     <g id="line2d_29">
      <g>
       <use style="stroke:#000000;stroke-width:0.5;" x="777.6" xlink:href="#md9a1c1a7cd" y="180.0"/>
      </g>
     </g>
     <g id="text_14">
      <!-- 140 -->
      <g transform="translate(83.21 183.31125)scale(0.12 -0.12)">
       <use xlink:href="#BitstreamVeraSans-Roman-31"/>
       <use x="63.623046875" xlink:href="#BitstreamVeraSans-Roman-34"/>
       <use x="127.24609375" xlink:href="#BitstreamVeraSans-Roman-30"/>
      </g>
     </g>
    </g>
    <g id="ytick_9">
     <g id="line2d_30">
      <g>
       <use style="stroke:#000000;stroke-width:0.5;" x="108.0" xlink:href="#md7965d1ba0" y="122.4"/>
      </g>
     </g>
     <g id="line2d_31">
      <g>
       <use style="stroke:#000000;stroke-width:0.5;" x="777.6" xlink:href="#md9a1c1a7cd" y="122.4"/>
      </g>
     </g>
     <g id="text_15">
      <!-- 160 -->
      <g transform="translate(83.21 125.71125)scale(0.12 -0.12)">
       <use xlink:href="#BitstreamVeraSans-Roman-31"/>
       <use x="63.623046875" xlink:href="#BitstreamVeraSans-Roman-36"/>
       <use x="127.24609375" xlink:href="#BitstreamVeraSans-Roman-30"/>
      </g>
     </g>
    </g>
    <g id="ytick_10">
     <g id="line2d_32">
      <g>
       <use style="stroke:#000000;stroke-width:0.5;" x="108.0" xlink:href="#md7965d1ba0" y="64.8"/>
      </g>
     </g>
     <g id="line2d_33">
      <g>
       <use style="stroke:#000000;stroke-width:0.5;" x="777.6" xlink:href="#md9a1c1a7cd" y="64.8"/>
      </g>
     </g>
     <g id="text_16">
      <!-- 180 -->
      <g transform="translate(83.21 68.11125)scale(0.12 -0.12)">
       <use xlink:href="#BitstreamVeraSans-Roman-31"/>
       <use x="63.623046875" xlink:href="#BitstreamVeraSans-Roman-38"/>
       <use x="127.24609375" xlink:href="#BitstreamVeraSans-Roman-30"/>
      </g>
     </g>
    </g>
    <g id="text_17">
     <!-- particle numbers -->
     <defs>
      <path d="
M54.8906 33.0156
L54.8906 0
L45.9062 0
L45.9062 32.7188
Q45.9062 40.4844 42.875 44.3281
Q39.8438 48.1875 33.7969 48.1875
Q26.5156 48.1875 22.3125 43.5469
Q18.1094 38.9219 18.1094 30.9062
L18.1094 0
L9.07812 0
L9.07812 54.6875
L18.1094 54.6875
L18.1094 46.1875
Q21.3438 51.125 25.7031 53.5625
Q30.0781 56 35.7969 56
Q45.2188 56 50.0469 50.1719
Q54.8906 44.3438 54.8906 33.0156" id="BitstreamVeraSans-Roman-6e"/>
      <path d="
M9.42188 75.9844
L18.4062 75.9844
L18.4062 0
L9.42188 0
z
" id="BitstreamVeraSans-Roman-6c"/>
      <path d="
M56.2031 29.5938
L56.2031 25.2031
L14.8906 25.2031
Q15.4844 15.9219 20.4844 11.0625
Q25.4844 6.20312 34.4219 6.20312
Q39.5938 6.20312 44.4531 7.46875
Q49.3125 8.73438 54.1094 11.2812
L54.1094 2.78125
Q49.2656 0.734375 44.1875 -0.34375
Q39.1094 -1.42188 33.8906 -1.42188
Q20.7969 -1.42188 13.1562 6.1875
Q5.51562 13.8125 5.51562 26.8125
Q5.51562 40.2344 12.7656 48.1094
Q20.0156 56 32.3281 56
Q43.3594 56 49.7812 48.8906
Q56.2031 41.7969 56.2031 29.5938
M47.2188 32.2344
Q47.125 39.5938 43.0938 43.9844
Q39.0625 48.3906 32.4219 48.3906
Q24.9062 48.3906 20.3906 44.1406
Q15.875 39.8906 15.1875 32.1719
z
" id="BitstreamVeraSans-Roman-65"/>
      <path d="
M8.5 21.5781
L8.5 54.6875
L17.4844 54.6875
L17.4844 21.9219
Q17.4844 14.1562 20.5 10.2656
Q23.5312 6.39062 29.5938 6.39062
Q36.8594 6.39062 41.0781 11.0312
Q45.3125 15.6719 45.3125 23.6875
L45.3125 54.6875
L54.2969 54.6875
L54.2969 0
L45.3125 0
L45.3125 8.40625
Q42.0469 3.42188 37.7188 1
Q33.4062 -1.42188 27.6875 -1.42188
Q18.2656 -1.42188 13.375 4.4375
Q8.5 10.2969 8.5 21.5781" id="BitstreamVeraSans-Roman-75"/>
      <path d="
M48.6875 27.2969
Q48.6875 37.2031 44.6094 42.8438
Q40.5312 48.4844 33.4062 48.4844
Q26.2656 48.4844 22.1875 42.8438
Q18.1094 37.2031 18.1094 27.2969
Q18.1094 17.3906 22.1875 11.75
Q26.2656 6.10938 33.4062 6.10938
Q40.5312 6.10938 44.6094 11.75
Q48.6875 17.3906 48.6875 27.2969
M18.1094 46.3906
Q20.9531 51.2656 25.2656 53.625
Q29.5938 56 35.5938 56
Q45.5625 56 51.7812 48.0938
Q58.0156 40.1875 58.0156 27.2969
Q58.0156 14.4062 51.7812 6.48438
Q45.5625 -1.42188 35.5938 -1.42188
Q29.5938 -1.42188 25.2656 0.953125
Q20.9531 3.32812 18.1094 8.20312
L18.1094 0
L9.07812 0
L9.07812 75.9844
L18.1094 75.9844
z
" id="BitstreamVeraSans-Roman-62"/>
      <path d="
M34.2812 27.4844
Q23.3906 27.4844 19.1875 25
Q14.9844 22.5156 14.9844 16.5
Q14.9844 11.7188 18.1406 8.90625
Q21.2969 6.10938 26.7031 6.10938
Q34.1875 6.10938 38.7031 11.4062
Q43.2188 16.7031 43.2188 25.4844
L43.2188 27.4844
z

M52.2031 31.2031
L52.2031 0
L43.2188 0
L43.2188 8.29688
Q40.1406 3.32812 35.5469 0.953125
Q30.9531 -1.42188 24.3125 -1.42188
Q15.9219 -1.42188 10.9531 3.29688
Q6 8.01562 6 15.9219
Q6 25.1406 12.1719 29.8281
Q18.3594 34.5156 30.6094 34.5156
L43.2188 34.5156
L43.2188 35.4062
Q43.2188 41.6094 39.1406 45
Q35.0625 48.3906 27.6875 48.3906
Q23 48.3906 18.5469 47.2656
Q14.1094 46.1406 10.0156 43.8906
L10.0156 52.2031
Q14.9375 54.1094 19.5781 55.0469
Q24.2188 56 28.6094 56
Q40.4844 56 46.3438 49.8438
Q52.2031 43.7031 52.2031 31.2031" id="BitstreamVeraSans-Roman-61"/>
      <path d="
M9.42188 54.6875
L18.4062 54.6875
L18.4062 0
L9.42188 0
z

M9.42188 75.9844
L18.4062 75.9844
L18.4062 64.5938
L9.42188 64.5938
z
" id="BitstreamVeraSans-Roman-69"/>
      <path d="
M48.7812 52.5938
L48.7812 44.1875
Q44.9688 46.2969 41.1406 47.3438
Q37.3125 48.3906 33.4062 48.3906
Q24.6562 48.3906 19.8125 42.8438
Q14.9844 37.3125 14.9844 27.2969
Q14.9844 17.2812 19.8125 11.7344
Q24.6562 6.20312 33.4062 6.20312
Q37.3125 6.20312 41.1406 7.25
Q44.9688 8.29688 48.7812 10.4062
L48.7812 2.09375
Q45.0156 0.34375 40.9844 -0.53125
Q36.9688 -1.42188 32.4219 -1.42188
Q20.0625 -1.42188 12.7812 6.34375
Q5.51562 14.1094 5.51562 27.2969
Q5.51562 40.6719 12.8594 48.3281
Q20.2188 56 33.0156 56
Q37.1562 56 41.1094 55.1406
Q45.0625 54.2969 48.7812 52.5938" id="BitstreamVeraSans-Roman-63"/>
      <path d="
M41.1094 46.2969
Q39.5938 47.1719 37.8125 47.5781
Q36.0312 48 33.8906 48
Q26.2656 48 22.1875 43.0469
Q18.1094 38.0938 18.1094 28.8125
L18.1094 0
L9.07812 0
L9.07812 54.6875
L18.1094 54.6875
L18.1094 46.1875
Q20.9531 51.1719 25.4844 53.5781
Q30.0312 56 36.5312 56
Q37.4531 56 38.5781 55.875
Q39.7031 55.7656 41.0625 55.5156
z
" id="BitstreamVeraSans-Roman-72"/>
      <path d="
M18.1094 8.20312
L18.1094 -20.7969
L9.07812 -20.7969
L9.07812 54.6875
L18.1094 54.6875
L18.1094 46.3906
Q20.9531 51.2656 25.2656 53.625
Q29.5938 56 35.5938 56
Q45.5625 56 51.7812 48.0938
Q58.0156 40.1875 58.0156 27.2969
Q58.0156 14.4062 51.7812 6.48438
Q45.5625 -1.42188 35.5938 -1.42188
Q29.5938 -1.42188 25.2656 0.953125
Q20.9531 3.32812 18.1094 8.20312
M48.6875 27.2969
Q48.6875 37.2031 44.6094 42.8438
Q40.5312 48.4844 33.4062 48.4844
Q26.2656 48.4844 22.1875 42.8438
Q18.1094 37.2031 18.1094 27.2969
Q18.1094 17.3906 22.1875 11.75
Q26.2656 6.10938 33.4062 6.10938
Q40.5312 6.10938 44.6094 11.75
Q48.6875 17.3906 48.6875 27.2969" id="BitstreamVeraSans-Roman-70"/>
     </defs>
     <g transform="translate(75.714375 374.78625)rotate(-90.0)scale(0.12 -0.12)">
      <use xlink:href="#BitstreamVeraSans-Roman-70"/>
      <use x="63.4765625" xlink:href="#BitstreamVeraSans-Roman-61"/>
      <use x="124.755859375" xlink:href="#BitstreamVeraSans-Roman-72"/>
      <use x="165.869140625" xlink:href="#BitstreamVeraSans-Roman-74"/>
      <use x="205.078125" xlink:href="#BitstreamVeraSans-Roman-69"/>
      <use x="232.861328125" xlink:href="#BitstreamVeraSans-Roman-63"/>
      <use x="287.841796875" xlink:href="#BitstreamVeraSans-Roman-6c"/>
      <use x="315.625" xlink:href="#BitstreamVeraSans-Roman-65"/>
      <use x="377.1484375" xlink:href="#BitstreamVeraSans-Roman-20"/>
      <use x="408.935546875" xlink:href="#BitstreamVeraSans-Roman-6e"/>
      <use x="472.314453125" xlink:href="#BitstreamVeraSans-Roman-75"/>
      <use x="535.693359375" xlink:href="#BitstreamVeraSans-Roman-6d"/>
      <use x="633.10546875" xlink:href="#BitstreamVeraSans-Roman-62"/>
      <use x="696.58203125" xlink:href="#BitstreamVeraSans-Roman-65"/>
      <use x="758.10546875" xlink:href="#BitstreamVeraSans-Roman-72"/>
      <use x="799.21875" xlink:href="#BitstreamVeraSans-Roman-73"/>
     </g>
    </g>
   </g>
   <g id="legend_1">
    <g id="patch_7">
     <path d="
M696.824 101.224
L774.1 101.224
L774.1 68.3
L696.824 68.3
z
" style="fill:#ffffff;stroke:#000000;stroke-linejoin:miter;"/>
    </g>
    <g id="line2d_34">
     <path d="
M701.724 73.9689
L711.524 73.9689" style="fill:none;stroke:#ff0000;stroke-linecap:square;"/>
    </g>
    <g id="line2d_35"/>
    <g id="text_18">
     <!-- PDE2cAMP el.0 -->
     <defs>
      <path d="
M9.8125 72.9062
L55.9062 72.9062
L55.9062 64.5938
L19.6719 64.5938
L19.6719 43.0156
L54.3906 43.0156
L54.3906 34.7188
L19.6719 34.7188
L19.6719 8.29688
L56.7812 8.29688
L56.7812 0
L9.8125 0
z
" id="BitstreamVeraSans-Roman-45"/>
      <path d="
M10.6875 12.4062
L21 12.4062
L21 0
L10.6875 0
z
" id="BitstreamVeraSans-Roman-2e"/>
      <path d="
M19.6719 64.7969
L19.6719 37.4062
L32.0781 37.4062
Q38.9688 37.4062 42.7188 40.9688
Q46.4844 44.5312 46.4844 51.125
Q46.4844 57.6719 42.7188 61.2344
Q38.9688 64.7969 32.0781 64.7969
z

M9.8125 72.9062
L32.0781 72.9062
Q44.3438 72.9062 50.6094 67.3594
Q56.8906 61.8125 56.8906 51.125
Q56.8906 40.3281 50.6094 34.8125
Q44.3438 29.2969 32.0781 29.2969
L19.6719 29.2969
L19.6719 0
L9.8125 0
z
" id="BitstreamVeraSans-Roman-50"/>
      <path d="
M9.8125 72.9062
L24.5156 72.9062
L43.1094 23.2969
L61.8125 72.9062
L76.5156 72.9062
L76.5156 0
L66.8906 0
L66.8906 64.0156
L48.0938 14.0156
L38.1875 14.0156
L19.3906 64.0156
L19.3906 0
L9.8125 0
z
" id="BitstreamVeraSans-Roman-4d"/>
      <path d="
M19.6719 64.7969
L19.6719 8.10938
L31.5938 8.10938
Q46.6875 8.10938 53.6875 14.9375
Q60.6875 21.7812 60.6875 36.5312
Q60.6875 51.1719 53.6875 57.9844
Q46.6875 64.7969 31.5938 64.7969
z

M9.8125 72.9062
L30.0781 72.9062
Q51.2656 72.9062 61.1719 64.0938
Q71.0938 55.2812 71.0938 36.5312
Q71.0938 17.6719 61.125 8.82812
Q51.1719 0 30.0781 0
L9.8125 0
z
" id="BitstreamVeraSans-Roman-44"/>
      <path d="
M34.1875 63.1875
L20.7969 26.9062
L47.6094 26.9062
z

M28.6094 72.9062
L39.7969 72.9062
L67.5781 0
L57.3281 0
L50.6875 18.7031
L17.8281 18.7031
L11.1875 0
L0.78125 0
z
" id="BitstreamVeraSans-Roman-41"/>
     </defs>
     <g transform="translate(719.224375 76.41890625)scale(0.07 -0.07)">
      <use xlink:href="#BitstreamVeraSans-Roman-50"/>
      <use x="60.302734375" xlink:href="#BitstreamVeraSans-Roman-44"/>
      <use x="137.3046875" xlink:href="#BitstreamVeraSans-Roman-45"/>
      <use x="200.48828125" xlink:href="#BitstreamVeraSans-Roman-32"/>
      <use x="264.111328125" xlink:href="#BitstreamVeraSans-Roman-63"/>
      <use x="319.091796875" xlink:href="#BitstreamVeraSans-Roman-41"/>
      <use x="387.5" xlink:href="#BitstreamVeraSans-Roman-4d"/>
      <use x="473.779296875" xlink:href="#BitstreamVeraSans-Roman-50"/>
      <use x="534.08203125" xlink:href="#BitstreamVeraSans-Roman-20"/>
      <use x="565.869140625" xlink:href="#BitstreamVeraSans-Roman-65"/>
      <use x="627.392578125" xlink:href="#BitstreamVeraSans-Roman-6c"/>
      <use x="655.17578125" xlink:href="#BitstreamVeraSans-Roman-2e"/>
      <use x="686.962890625" xlink:href="#BitstreamVeraSans-Roman-30"/>
     </g>
    </g>
    <g id="line2d_36">
     <path d="
M701.724 84.2436
L711.524 84.2436" style="fill:none;stroke:#008000;stroke-linecap:square;"/>
    </g>
    <g id="line2d_37"/>
    <g id="text_19">
     <!-- PDE2cAMP el.1 -->
     <g transform="translate(719.224375 86.69359375)scale(0.07 -0.07)">
      <use xlink:href="#BitstreamVeraSans-Roman-50"/>
      <use x="60.302734375" xlink:href="#BitstreamVeraSans-Roman-44"/>
      <use x="137.3046875" xlink:href="#BitstreamVeraSans-Roman-45"/>
      <use x="200.48828125" xlink:href="#BitstreamVeraSans-Roman-32"/>
      <use x="264.111328125" xlink:href="#BitstreamVeraSans-Roman-63"/>
      <use x="319.091796875" xlink:href="#BitstreamVeraSans-Roman-41"/>
      <use x="387.5" xlink:href="#BitstreamVeraSans-Roman-4d"/>
      <use x="473.779296875" xlink:href="#BitstreamVeraSans-Roman-50"/>
      <use x="534.08203125" xlink:href="#BitstreamVeraSans-Roman-20"/>
      <use x="565.869140625" xlink:href="#BitstreamVeraSans-Roman-65"/>
      <use x="627.392578125" xlink:href="#BitstreamVeraSans-Roman-6c"/>
      <use x="655.17578125" xlink:href="#BitstreamVeraSans-Roman-2e"/>
      <use x="686.962890625" xlink:href="#BitstreamVeraSans-Roman-31"/>
     </g>
    </g>
    <g id="line2d_38">
     <path d="
M701.724 94.5183
L711.524 94.5183" style="fill:none;stroke:#0000ff;stroke-linecap:square;"/>
    </g>
    <g id="line2d_39"/>
    <g id="text_20">
     <!-- PDE2cAMP el.2 -->
     <g transform="translate(719.224375 96.96828125)scale(0.07 -0.07)">
      <use xlink:href="#BitstreamVeraSans-Roman-50"/>
      <use x="60.302734375" xlink:href="#BitstreamVeraSans-Roman-44"/>
      <use x="137.3046875" xlink:href="#BitstreamVeraSans-Roman-45"/>
      <use x="200.48828125" xlink:href="#BitstreamVeraSans-Roman-32"/>
      <use x="264.111328125" xlink:href="#BitstreamVeraSans-Roman-63"/>
      <use x="319.091796875" xlink:href="#BitstreamVeraSans-Roman-41"/>
      <use x="387.5" xlink:href="#BitstreamVeraSans-Roman-4d"/>
      <use x="473.779296875" xlink:href="#BitstreamVeraSans-Roman-50"/>
      <use x="534.08203125" xlink:href="#BitstreamVeraSans-Roman-20"/>
      <use x="565.869140625" xlink:href="#BitstreamVeraSans-Roman-65"/>
      <use x="627.392578125" xlink:href="#BitstreamVeraSans-Roman-6c"/>
      <use x="655.17578125" xlink:href="#BitstreamVeraSans-Roman-2e"/>
      <use x="686.962890625" xlink:href="#BitstreamVeraSans-Roman-32"/>
     </g>
    </g>
   </g>
  </g>
 </g>
 <defs>
  <clipPath id="p7ceb695115">
   <rect height="518.4" width="669.6" x="108.0" y="64.8"/>
  </clipPath>
 </defs>
</svg>
