<?xml version="1.0" encoding="utf-8" standalone="no"?>
<!DOCTYPE svg PUBLIC "-//W3C//DTD SVG 1.1//EN"
  "http://www.w3.org/Graphics/SVG/1.1/DTD/svg11.dtd">
<!-- Created with matplotlib (http://matplotlib.org/) -->
<svg height="648pt" version="1.1" viewBox="0 0 864 648" width="864pt" xmlns="http://www.w3.org/2000/svg" xmlns:xlink="http://www.w3.org/1999/xlink">
 <defs>
  <style type="text/css">
*{stroke-linecap:butt;stroke-linejoin:round;}
  </style>
 </defs>
 <g id="figure_1">
  <g id="patch_1">
   <path d="
M0 648
L864 648
L864 0
L0 0
z
" style="fill:#ffffff;"/>
  </g>
  <g id="axes_1">
   <g id="patch_2">
    <path d="
M108 583.2
L777.6 583.2
L777.6 64.8
L108 64.8
z
" style="fill:#ffffff;"/>
   </g>
   <g id="line2d_1">
    <path clip-path="url(#p7ceb695115)" d="
M108 581.956
L109.339 582.785
L110.009 582.785
L110.678 582.163
L112.018 582.578
L112.687 582.578
L113.357 582.785
L114.026 582.578
L114.696 582.785
L115.366 583.2
L116.035 582.993
L116.705 583.2
L117.374 582.993
L118.044 583.2
L118.714 583.2
L119.383 582.993
L120.053 582.993
L120.722 583.2
L121.392 582.993
L122.731 582.993
L123.401 583.2
L124.74 583.2
L125.41 582.993
L126.079 583.2
L126.749 583.2
L127.418 582.993
L128.088 583.2
L128.758 582.993
L129.427 583.2
L130.766 583.2
L131.436 582.993
L132.106 583.2
L442.8 583.2
L443.47 472.055
L444.139 482.838
L444.809 476.617
L445.478 475.995
L446.148 478.483
L447.487 474.336
L448.157 478.483
L448.826 488.436
L449.496 484.497
L450.166 488.022
L450.835 488.229
L451.505 486.778
L452.174 487.607
L452.844 488.022
L453.514 477.654
L454.183 487.192
L454.853 487.814
L455.522 484.704
L456.192 486.363
L456.862 482.008
L457.531 482.008
L458.201 479.727
L458.87 489.473
L459.54 487.4
L460.21 481.386
L460.879 485.948
L461.549 488.022
L462.218 488.851
L462.888 488.229
L463.558 482.63
L464.227 489.681
L464.897 480.349
L465.566 485.326
L466.236 486.778
L466.906 480.349
L467.575 484.911
L468.914 489.266
L469.584 485.533
L470.254 484.704
L470.923 492.376
L471.593 487.4
L472.262 483.46
L472.932 488.851
L473.602 496.524
L474.271 486.985
L474.941 484.082
L475.61 492.376
L476.28 491.132
L476.95 485.948
L477.619 492.791
L478.289 490.095
L478.958 482.63
L479.628 490.095
L480.298 485.948
L480.967 486.57
L481.637 484.497
L482.306 487.814
L482.976 489.681
L483.646 482.838
L484.315 480.764
L484.985 485.326
L485.654 488.022
L486.324 489.681
L486.994 485.948
L487.663 479.727
L488.333 489.681
L489.002 489.888
L489.672 490.51
L490.342 492.376
L491.011 489.266
L491.681 489.888
L492.35 481.179
L493.02 486.156
L493.69 492.791
L494.359 493.62
L495.029 488.644
L495.698 485.533
L496.368 481.179
L497.038 481.594
L497.707 486.156
L498.377 485.119
L499.046 483.46
L499.716 483.667
L500.386 482.63
L501.055 492.791
L501.725 491.962
L502.394 487.814
L503.064 486.156
L503.734 489.059
L504.403 488.229
L505.073 486.778
L505.742 474.751
L506.412 491.547
L507.082 482.008
L507.751 489.473
L508.421 487.192
L509.09 483.252
L509.76 481.179
L511.099 492.791
L511.769 493.62
L512.438 485.119
L513.108 492.998
L513.778 481.386
L514.447 478.691
L515.117 482.008
L515.786 485.948
L516.456 482.838
L518.465 491.34
L519.134 480.557
L519.804 488.022
L520.474 486.363
L521.143 486.778
L521.813 482.423
L522.482 481.386
L523.152 490.925
L523.822 493.413
L524.491 482.008
L525.161 491.754
L525.83 485.533
L526.5 497.353
L527.17 484.289
L527.839 486.985
L528.509 483.875
L529.178 488.022
L529.848 483.46
L530.518 494.45
L531.187 486.778
L531.857 491.547
L532.526 482.216
L533.196 481.179
L533.866 488.851
L534.535 483.045
L535.205 480.764
L536.544 487.4
L537.883 496.731
L538.553 489.473
L539.222 484.289
L539.892 489.266
L540.562 485.119
L541.231 486.57
L541.901 490.925
L542.57 486.57
L543.24 489.681
L543.91 485.119
L544.579 488.229
L545.249 484.082
L545.918 487.607
L546.588 481.594
L547.258 478.068
L547.927 486.778
L548.597 489.266
L549.266 485.533
L549.936 486.363
L550.606 482.838
L551.275 482.838
L551.945 484.911
L553.284 485.326
L553.954 488.229
L554.623 492.376
L555.293 486.363
L555.962 488.644
L556.632 484.497
L557.302 492.998
L557.971 492.584
L558.641 491.34
L559.31 482.216
L559.98 491.962
L560.65 496.938
L561.319 486.985
L561.989 487.607
L562.658 486.778
L563.328 482.008
L563.998 492.584
L564.667 482.838
L565.337 489.681
L566.006 483.252
L566.676 490.303
L567.346 486.156
L568.015 488.436
L568.685 485.119
L569.354 489.059
L570.694 483.667
L571.363 487.192
L572.033 494.45
L572.702 491.34
L573.372 491.754
L574.711 487.814
L575.381 483.252
L576.05 491.132
L576.72 489.888
L578.059 482.008
L578.729 493.206
L579.398 486.57
L580.068 488.851
L580.738 483.875
L581.407 484.289
L582.077 482.008
L582.746 492.791
L583.416 479.313
L584.086 486.778
L584.755 480.142
L585.425 485.948
L586.094 489.888
L586.764 486.778
L587.434 492.584
L588.103 491.547
L588.773 487.607
L589.442 488.436
L590.112 486.156
L590.782 483.46
L591.451 494.45
L592.121 478.068
L593.46 495.279
L594.13 484.289
L594.799 487.607
L595.469 480.142
L596.138 477.032
L596.808 488.022
L597.478 483.46
L598.147 486.363
L598.817 488.229
L599.486 487.607
L600.156 489.888
L600.826 493.828
L601.495 494.243
L602.165 485.326
L602.834 485.119
L603.504 489.681
L604.174 485.326
L604.843 488.229
L605.513 479.105
L606.182 488.229
L606.852 479.105
L608.191 481.594
L609.53 489.266
L610.2 485.326
L610.87 487.607
L611.539 483.875
L612.209 490.51
L612.878 480.764
L613.548 494.243
L614.218 487.4
L614.887 489.266
L615.557 485.119
L616.226 488.229
L616.896 486.363
L617.566 491.547
L618.235 489.473
L618.905 482.216
L619.574 486.57
L620.244 485.119
L620.914 486.363
L621.583 482.423
L622.253 482.216
L622.922 490.51
L623.592 494.865
L624.262 486.57
L624.931 488.022
L625.601 485.119
L626.27 482.838
L626.94 479.935
L627.61 483.045
L628.279 482.838
L628.949 490.925
L630.288 484.082
L630.958 488.436
L631.627 495.279
L632.297 487.4
L632.966 491.962
L633.636 482.838
L634.306 490.303
L634.975 487.607
L636.314 497.975
L636.984 487.814
L637.654 481.801
L638.323 496.109
L638.993 482.63
L639.662 483.875
L640.332 492.169
L641.002 485.326
L641.671 485.326
L642.341 484.497
L643.01 489.888
L643.68 488.229
L644.35 490.51
L645.019 488.851
L645.689 481.179
L646.358 494.243
L647.028 486.57
L647.698 483.875
L648.367 491.34
L649.037 492.998
L649.706 482.63
L650.376 478.483
L651.046 482.63
L651.715 485.533
L652.385 486.57
L653.054 482.63
L653.724 486.778
L654.394 479.935
L655.063 488.851
L655.733 482.423
L656.402 489.888
L657.072 491.547
L657.742 482.423
L658.411 482.838
L659.081 497.975
L659.75 488.022
L660.42 481.386
L661.09 478.483
L661.759 486.57
L662.429 498.39
L663.098 486.156
L663.768 494.035
L664.438 494.865
L665.107 489.059
L665.777 489.888
L666.446 491.34
L667.116 496.731
L667.786 490.717
L668.455 491.34
L669.125 490.303
L669.794 484.704
L671.134 487.4
L671.803 486.363
L672.473 486.57
L673.142 478.483
L673.812 484.911
L674.482 485.948
L675.151 484.289
L675.821 489.266
L676.49 490.51
L677.16 486.156
L677.83 478.276
L678.499 481.179
L679.169 481.179
L679.838 484.911
L680.508 478.276
L681.178 481.594
L681.847 487.607
L682.517 488.436
L683.186 494.657
L683.856 480.557
L684.526 483.875
L685.195 489.473
L685.865 484.911
L686.534 483.46
L687.204 482.423
L687.874 489.681
L688.543 487.814
L689.213 480.972
L689.882 488.644
L690.552 483.667
L691.222 492.998
L691.891 493.413
L693.23 490.303
L694.57 490.717
L695.239 492.169
L695.909 487.4
L696.578 488.436
L697.248 487.4
L697.918 492.584
L698.587 483.46
L699.257 483.667
L699.926 491.962
L700.596 497.353
L701.266 485.948
L701.935 485.326
L702.605 487.607
L703.274 492.376
L703.944 488.436
L704.614 488.851
L705.953 482.838
L706.622 489.681
L707.292 480.349
L707.962 483.252
L708.631 488.851
L709.301 486.778
L710.64 487.192
L711.31 485.326
L711.979 486.363
L712.649 486.363
L713.318 489.681
L713.988 478.691
L714.658 485.948
L715.327 484.911
L716.666 492.376
L717.336 484.082
L718.006 489.266
L718.675 489.473
L719.345 489.888
L720.014 488.644
L720.684 485.948
L721.354 492.584
L722.023 489.681
L722.693 485.119
L723.362 485.326
L724.032 482.216
L724.702 485.119
L725.371 484.082
L726.041 487.4
L726.71 488.851
L727.38 486.57
L728.05 484.911
L728.719 488.436
L729.389 492.584
L730.058 492.998
L730.728 481.801
L731.398 490.925
L732.067 488.229
L732.737 480.557
L733.406 478.276
L734.076 493.206
L734.746 491.34
L735.415 493.206
L736.085 488.851
L736.754 483.252
L737.424 487.607
L738.094 478.276
L738.763 490.925
L739.433 488.644
L740.102 490.303
L740.772 480.142
L741.442 491.34
L742.111 493.206
L742.781 487.814
L743.45 479.935
L744.12 481.386
L744.79 484.289
L745.459 484.704
L746.129 487.4
L746.798 482.008
L747.468 493.62
L748.138 484.082
L748.807 494.657
L749.477 493.413
L750.146 482.63
L750.816 491.132
L751.486 484.289
L752.155 490.717
L752.825 478.068
L754.164 487.4
L754.834 486.363
L755.503 487.4
L756.173 494.865
L756.842 492.998
L757.512 482.63
L758.182 489.681
L758.851 478.276
L759.521 480.557
L760.86 490.095
L761.53 486.57
L762.199 488.229
L762.869 496.316
L763.538 490.925
L764.208 482.008
L764.878 490.925
L765.547 488.851
L766.217 489.266
L766.886 490.925
L767.556 481.386
L768.226 490.095
L768.895 481.801
L769.565 476.202
L770.234 492.169
L770.904 484.289
L771.574 491.132
L772.243 488.851
L772.913 492.584
L773.582 491.547
L774.252 485.533
L774.922 489.888
L775.591 488.644
L776.93 490.925
L777.6 491.962
L777.6 491.962" style="fill:none;stroke:#ff0000;stroke-linecap:square;"/>
   </g>
   <g id="line2d_2">
    <path clip-path="url(#p7ceb695115)" d="
M108 578.223
L108.67 579.675
L109.339 579.468
L110.009 579.675
L110.678 580.919
L111.348 579.882
L112.018 580.919
L112.687 580.919
L113.357 581.126
L114.026 581.748
L114.696 581.541
L116.035 581.956
L116.705 581.956
L117.374 581.748
L118.044 581.748
L118.714 581.956
L119.383 582.371
L120.053 582.578
L120.722 582.371
L121.392 582.993
L122.062 582.371
L123.401 582.785
L125.41 582.785
L126.079 582.578
L126.749 582.785
L128.088 582.371
L128.758 582.785
L129.427 582.785
L130.097 583.2
L130.766 582.993
L132.106 582.993
L132.775 583.2
L442.8 583.2
L443.47 132.192
L444.139 140.072
L444.809 161.844
L445.478 171.798
L446.148 174.286
L446.818 189.423
L447.487 199.169
L448.157 197.925
L448.826 190.668
L449.496 188.801
L450.166 188.594
L450.835 185.898
L451.505 197.096
L452.174 194.815
L452.844 185.898
L453.514 212.855
L454.183 194.815
L454.853 204.146
L455.522 199.169
L456.192 192.119
L456.862 205.39
L457.531 199.791
L458.201 202.902
L458.87 198.962
L459.54 199.377
L460.21 196.266
L460.879 205.597
L461.549 194.4
L462.218 195.437
L462.888 196.059
L463.558 204.353
L464.227 197.718
L464.897 201.036
L465.566 212.026
L466.236 195.437
L466.906 207.464
L467.575 205.183
L468.245 198.755
L468.914 193.571
L470.254 203.939
L470.923 190.46
L471.593 191.082
L472.262 207.464
L472.932 193.985
L473.602 192.741
L474.271 196.681
L474.941 203.109
L475.61 197.51
L476.28 188.801
L476.95 202.694
L477.619 198.755
L478.289 192.119
L478.958 200.206
L479.628 195.437
L480.298 199.584
L480.967 201.658
L481.637 204.353
L482.306 199.791
L482.976 193.156
L483.646 207.256
L484.315 201.243
L484.985 202.072
L485.654 190.045
L486.324 195.022
L487.663 207.671
L488.333 197.303
L489.002 199.791
L489.672 188.594
L490.342 191.29
L491.011 189.423
L491.681 195.644
L492.35 209.123
L493.69 192.948
L494.359 192.119
L495.029 193.778
L495.698 198.132
L496.368 208.708
L497.038 196.681
L497.707 204.975
L498.377 199.584
L499.046 200.206
L499.716 194.4
L500.386 204.768
L501.055 190.045
L501.725 197.51
L502.394 196.059
L503.064 202.28
L503.734 194.4
L504.403 194.193
L505.073 202.072
L505.742 205.597
L506.412 198.132
L507.082 203.731
L507.751 200.413
L508.421 191.704
L509.09 204.353
L509.76 196.474
L510.43 196.266
L511.099 195.437
L511.769 191.912
L512.438 198.132
L513.108 193.156
L513.778 203.524
L514.447 203.316
L515.117 201.243
L515.786 195.022
L516.456 201.865
L517.126 201.45
L517.795 196.266
L518.465 201.865
L519.134 203.939
L519.804 193.363
L520.474 199.999
L521.143 196.474
L521.813 201.243
L522.482 202.28
L523.152 202.072
L523.822 191.29
L524.491 207.878
L525.161 189.423
L525.83 189.216
L526.5 179.055
L527.17 203.939
L527.839 197.51
L528.509 197.096
L529.178 193.363
L529.848 204.353
L530.518 191.082
L531.187 203.316
L531.857 196.888
L532.526 202.487
L533.196 205.183
L533.866 198.962
L534.535 200.206
L535.205 197.096
L535.874 206.634
L536.544 198.547
L537.214 201.036
L537.883 193.571
L538.553 195.022
L539.222 202.487
L539.892 192.534
L540.562 201.243
L541.231 198.132
L541.901 197.51
L542.57 199.999
L543.24 193.985
L543.91 202.902
L544.579 199.377
L545.249 207.671
L545.918 200.413
L546.588 197.925
L547.258 208.293
L547.927 195.852
L548.597 198.547
L549.266 201.865
L549.936 198.547
L550.606 202.694
L551.275 199.999
L551.945 194.607
L552.614 203.939
L553.284 196.888
L553.954 199.584
L554.623 195.229
L555.293 194.607
L555.962 198.962
L556.632 198.132
L557.302 187.764
L557.971 195.644
L558.641 197.51
L559.31 198.547
L560.65 186.52
L561.319 198.34
L561.989 199.169
L562.658 204.561
L563.328 204.975
L563.998 197.718
L564.667 198.132
L565.337 197.096
L566.006 201.036
L566.676 195.229
L567.346 205.805
L568.015 195.644
L568.685 197.51
L569.354 195.022
L570.024 198.547
L570.694 199.377
L571.363 193.363
L572.033 192.741
L572.702 189.423
L573.372 200.206
L574.042 196.681
L574.711 190.045
L575.381 195.852
L576.05 196.059
L576.72 189.216
L577.39 202.694
L578.059 204.353
L578.729 192.326
L579.398 203.524
L580.068 187.142
L580.738 203.524
L581.407 203.939
L582.077 202.487
L582.746 189.423
L583.416 202.28
L584.086 197.303
L584.755 200.413
L585.425 201.243
L586.094 190.045
L587.434 199.791
L588.103 196.266
L588.773 196.474
L589.442 188.801
L590.112 204.975
L590.782 198.547
L591.451 187.557
L592.121 198.755
L592.79 203.316
L593.46 195.852
L594.13 196.474
L594.799 206.634
L595.469 207.878
L596.138 210.159
L596.808 201.45
L597.478 200.828
L598.147 190.668
L598.817 190.668
L599.486 196.888
L600.156 196.059
L600.826 195.852
L601.495 188.179
L602.165 203.316
L602.834 203.731
L603.504 200.621
L604.174 201.865
L604.843 192.534
L605.513 200.621
L606.182 197.718
L606.852 209.952
L607.522 207.049
L608.191 201.243
L608.861 200.621
L609.53 198.132
L610.2 198.755
L610.87 196.059
L611.539 199.377
L612.209 192.326
L612.878 199.377
L613.548 199.999
L614.218 195.229
L614.887 193.778
L615.557 203.731
L616.226 195.229
L616.896 199.584
L617.566 194.4
L618.235 194.607
L619.574 197.51
L620.244 197.925
L620.914 200.621
L621.583 197.51
L622.253 197.718
L622.922 195.644
L623.592 189.009
L624.262 191.912
L624.931 201.865
L625.601 198.755
L626.27 198.547
L626.94 207.671
L627.61 199.999
L628.279 214.514
L628.949 196.059
L629.618 200.413
L630.288 200.621
L630.958 195.852
L631.627 194.4
L632.297 197.718
L632.966 187.764
L633.636 199.584
L634.306 191.912
L634.975 197.718
L635.645 189.631
L636.314 183.825
L636.984 200.206
L637.654 208.5
L638.323 184.654
L638.993 208.708
L639.662 210.367
L640.332 192.741
L641.002 201.658
L641.671 202.694
L642.341 198.755
L643.01 201.036
L643.68 195.022
L644.35 191.082
L645.019 192.741
L645.689 208.708
L646.358 197.096
L647.028 201.865
L647.698 201.865
L648.367 190.253
L649.037 191.704
L649.706 198.34
L650.376 202.902
L651.046 197.303
L651.715 196.266
L652.385 201.865
L653.054 202.072
L653.724 200.828
L654.394 203.939
L655.063 203.109
L655.733 195.229
L656.402 198.34
L657.072 198.34
L657.742 202.072
L658.411 202.902
L659.081 198.962
L659.75 200.206
L660.42 207.464
L661.09 199.791
L661.759 206.427
L662.429 189.009
L663.098 199.584
L663.768 190.253
L664.438 186.935
L665.107 194.607
L665.777 193.571
L666.446 198.34
L667.116 183.41
L667.786 201.243
L668.455 189.216
L669.125 196.059
L669.794 205.597
L670.464 197.51
L671.134 202.487
L671.803 201.036
L672.473 195.229
L673.142 204.146
L673.812 206.012
L674.482 196.266
L675.151 204.561
L675.821 197.303
L676.49 193.363
L677.16 194.193
L677.83 197.925
L678.499 200.828
L679.169 201.865
L679.838 196.474
L680.508 205.183
L681.178 199.377
L681.847 199.584
L682.517 196.059
L683.186 194.193
L683.856 202.072
L684.526 190.668
L685.865 202.902
L686.534 204.353
L687.204 196.266
L687.874 208.915
L688.543 204.768
L689.213 205.183
L689.882 194.193
L690.552 200.621
L691.222 193.363
L691.891 194.193
L692.561 196.059
L693.23 187.142
L693.9 195.229
L694.57 193.571
L695.239 187.972
L695.909 201.865
L696.578 197.51
L697.248 186.728
L697.918 191.704
L698.587 201.036
L699.257 194.815
L699.926 198.755
L700.596 185.069
L701.266 192.326
L701.935 201.036
L702.605 194.607
L703.274 198.547
L703.944 193.985
L704.614 199.791
L705.283 199.584
L705.953 206.427
L706.622 197.51
L707.292 208.5
L707.962 197.096
L708.631 190.46
L709.301 195.437
L709.97 197.096
L710.64 197.303
L711.31 197.096
L711.979 191.29
L712.649 201.865
L713.318 194.4
L713.988 205.183
L714.658 201.45
L715.327 199.584
L715.997 200.621
L716.666 192.326
L717.336 192.948
L718.006 194.607
L718.675 192.326
L719.345 195.022
L720.014 196.059
L720.684 197.51
L721.354 197.303
L722.023 198.34
L722.693 195.437
L723.362 191.497
L724.032 206.842
L724.702 202.487
L725.371 203.316
L726.71 199.999
L727.38 194.815
L728.05 191.912
L728.719 198.962
L729.389 189.631
L730.058 188.387
L730.728 203.109
L732.067 190.045
L732.737 207.671
L733.406 204.768
L734.076 188.594
L734.746 199.999
L735.415 193.363
L736.085 190.668
L736.754 202.072
L737.424 195.437
L738.094 198.547
L738.763 190.668
L739.433 194.193
L740.102 193.985
L740.772 204.353
L741.442 193.778
L742.111 189.838
L742.781 193.571
L743.45 210.781
L744.12 197.925
L744.79 204.353
L745.459 194.193
L746.798 201.658
L747.468 193.571
L748.138 205.597
L748.807 192.948
L749.477 189.423
L750.146 203.731
L750.816 190.668
L751.486 202.28
L752.155 188.179
L752.825 204.768
L753.494 196.266
L754.164 198.34
L754.834 198.34
L755.503 202.487
L756.173 195.022
L756.842 189.631
L757.512 203.524
L758.182 208.293
L758.851 206.427
L759.521 207.049
L760.19 194.193
L760.86 191.912
L761.53 196.474
L762.199 195.022
L762.869 189.631
L763.538 192.741
L764.208 199.791
L764.878 197.303
L765.547 202.694
L766.886 193.778
L767.556 197.303
L768.226 187.35
L768.895 202.28
L769.565 212.026
L770.234 198.132
L770.904 204.146
L771.574 203.939
L772.243 200.621
L772.913 195.852
L773.582 193.778
L774.252 199.999
L774.922 198.755
L775.591 199.377
L776.261 197.925
L776.93 198.34
L777.6 192.119
L777.6 192.119" style="fill:none;stroke:#008000;stroke-linecap:square;"/>
   </g>
   <g id="line2d_3">
    <path clip-path="url(#p7ceb695115)" d="
M108 581.956
L108.67 581.334
L109.339 581.748
L110.009 581.748
L110.678 582.578
L111.348 582.785
L112.018 582.578
L113.357 582.993
L114.026 582.993
L114.696 582.785
L115.366 583.2
L116.035 582.785
L116.705 583.2
L118.044 583.2
L119.383 582.785
L120.722 583.2
L121.392 582.785
L122.062 583.2
L122.731 583.2
L123.401 582.993
L124.07 582.993
L124.74 582.785
L125.41 582.993
L126.079 582.993
L126.749 582.785
L127.418 583.2
L129.427 583.2
L130.097 582.993
L130.766 583.2
L132.106 583.2
L132.775 582.993
L133.445 583.2
L442.8 583.2
L443.47 470.189
L444.139 476.824
L444.809 477.654
L445.478 480.557
L446.148 487.607
L446.818 478.898
L447.487 475.788
L448.157 480.972
L448.826 480.764
L449.496 489.473
L450.166 488.851
L450.835 492.998
L451.505 484.911
L452.174 486.985
L452.844 495.072
L453.514 478.898
L454.183 488.644
L454.853 479.313
L455.522 486.778
L456.192 492.584
L456.862 483.46
L457.531 490.095
L458.201 489.266
L458.87 483.46
L459.54 485.119
L460.21 494.243
L460.879 480.349
L461.549 489.473
L462.218 487.607
L462.888 487.607
L463.558 484.911
L464.227 484.497
L464.897 490.51
L465.566 474.543
L466.236 489.681
L466.906 484.082
L467.575 481.801
L468.245 486.156
L468.914 489.059
L469.584 487.4
L470.254 483.252
L470.923 489.059
L471.593 493.413
L472.262 480.972
L472.932 489.059
L473.602 482.63
L474.271 488.229
L474.941 484.704
L475.61 482.008
L476.28 491.962
L476.95 483.252
L477.619 480.349
L478.289 489.681
L478.958 489.059
L479.628 486.363
L480.298 486.363
L480.967 483.667
L481.637 483.045
L482.306 484.289
L482.976 489.059
L483.646 481.801
L484.315 489.888
L484.985 484.497
L485.654 493.828
L486.324 487.192
L486.994 484.289
L487.663 484.497
L488.333 484.911
L489.002 482.216
L489.672 492.791
L490.342 488.229
L491.011 493.206
L491.681 486.363
L492.35 481.594
L493.02 485.326
L493.69 486.156
L494.359 486.156
L495.029 489.473
L495.698 488.229
L496.368 482.008
L497.038 493.62
L497.707 480.764
L498.377 487.192
L499.046 488.229
L499.716 493.828
L500.386 484.497
L501.055 489.059
L501.725 482.423
L502.394 488.022
L503.064 483.46
L503.734 488.436
L504.403 489.473
L505.073 483.045
L505.742 491.547
L506.412 482.216
L507.082 486.156
L507.751 482.008
L508.421 492.998
L509.09 484.289
L509.76 494.243
L511.099 483.667
L512.438 488.644
L513.108 485.741
L513.778 486.985
L514.447 489.888
L515.117 488.644
L515.786 490.925
L516.456 487.192
L517.126 484.911
L517.795 487.4
L518.465 478.691
L519.134 487.4
L519.804 490.51
L520.474 485.533
L521.143 488.644
L521.813 488.229
L522.482 488.229
L523.152 478.898
L523.822 487.192
L524.491 482.008
L525.161 490.717
L525.83 497.146
L526.5 495.487
L527.17 483.667
L528.509 490.925
L529.178 490.51
L529.848 484.082
L530.518 486.363
L531.187 481.801
L531.857 483.46
L532.526 487.192
L533.866 484.082
L534.535 488.644
L535.205 494.035
L535.874 481.386
L536.544 485.948
L537.214 478.483
L537.883 481.594
L538.553 487.4
L539.222 485.119
L539.892 490.095
L540.562 485.533
L541.231 487.192
L541.901 483.46
L542.57 485.326
L543.24 488.229
L543.91 483.875
L544.579 484.289
L545.249 480.142
L545.918 483.875
L546.588 492.376
L547.258 485.533
L547.927 489.266
L548.597 484.082
L549.266 484.497
L549.936 486.985
L550.606 486.363
L551.275 489.059
L551.945 492.376
L552.614 482.838
L553.284 489.681
L553.954 484.082
L554.623 484.289
L555.293 490.925
L555.962 484.289
L556.632 489.266
L557.302 491.132
L557.971 483.667
L558.641 483.045
L559.31 491.132
L559.98 487.607
L560.65 488.436
L561.319 486.57
L561.989 485.119
L562.658 480.557
L563.328 484.911
L563.998 481.594
L564.667 490.925
L565.337 485.119
L566.006 487.607
L566.676 486.363
L567.346 479.935
L568.015 487.814
L568.685 489.266
L569.354 487.814
L570.024 486.985
L570.694 488.851
L571.363 491.34
L572.033 484.704
L572.702 491.132
L573.372 479.935
L574.042 485.326
L574.711 494.035
L575.381 492.791
L576.05 484.704
L576.72 492.791
L577.39 483.045
L578.059 485.533
L578.729 486.363
L579.398 481.801
L580.068 495.901
L580.738 484.497
L581.407 483.667
L582.077 487.4
L582.746 489.681
L583.416 490.303
L584.086 487.814
L584.755 491.34
L585.425 484.704
L586.094 491.962
L586.764 490.51
L587.434 479.52
L588.103 484.082
L588.773 487.814
L589.442 494.657
L590.112 480.764
L590.782 489.888
L591.451 489.888
L592.121 495.072
L592.79 481.386
L593.46 480.764
L594.13 491.132
L594.799 477.654
L595.469 483.875
L596.138 484.704
L596.808 482.423
L597.478 487.607
L598.147 494.865
L598.817 492.998
L599.486 487.4
L600.156 485.948
L600.826 482.216
L601.495 489.473
L602.165 483.252
L602.834 483.045
L603.504 481.594
L604.174 484.704
L604.843 491.132
L605.513 492.169
L606.182 485.948
L606.852 482.838
L607.522 484.497
L608.191 489.059
L608.861 485.741
L609.53 484.497
L610.2 487.814
L612.209 489.059
L612.878 491.754
L613.548 477.654
L614.218 489.266
L614.887 488.851
L615.557 483.045
L616.226 488.436
L616.896 485.948
L617.566 485.948
L618.235 487.814
L618.905 493.62
L619.574 487.814
L620.244 488.851
L620.914 484.911
L621.583 491.962
L622.253 491.962
L622.922 485.741
L623.592 488.022
L624.262 493.413
L624.931 482.008
L625.601 488.022
L626.27 490.51
L626.94 484.289
L627.61 488.851
L628.279 474.543
L628.949 484.911
L629.618 484.289
L630.288 487.192
L630.958 487.607
L631.627 482.216
L632.297 486.778
L632.966 492.169
L633.636 489.473
L634.306 489.681
L634.975 486.57
L635.645 489.681
L636.314 490.095
L636.984 483.875
L637.654 481.594
L638.323 491.132
L638.993 480.557
L639.662 477.654
L640.332 486.985
L641.002 484.911
L641.671 483.875
L642.341 488.644
L643.01 480.972
L643.68 488.644
L644.35 490.303
L645.019 490.303
L645.689 482.008
L646.358 480.557
L647.698 486.156
L648.367 490.303
L649.037 487.192
L649.706 490.925
L650.376 490.51
L651.046 491.962
L651.715 490.095
L652.385 483.46
L653.054 487.192
L653.724 484.289
L654.394 488.022
L655.063 479.935
L655.733 494.243
L656.402 483.667
L657.072 482.008
L657.742 487.4
L658.411 486.156
L659.081 474.958
L659.75 483.667
L660.42 483.045
L661.09 493.62
L661.759 478.898
L662.429 484.497
L663.768 487.607
L664.438 490.095
L665.107 488.229
L665.777 488.436
L666.446 482.216
L667.116 491.754
L667.786 479.935
L668.455 491.34
L669.125 485.533
L669.794 481.594
L670.464 488.436
L671.134 482.008
L671.803 484.497
L672.473 490.095
L673.142 489.266
L673.812 480.972
L674.482 489.681
L675.151 483.045
L675.821 485.326
L676.49 488.022
L677.16 491.547
L677.83 495.694
L678.499 489.888
L679.169 488.851
L679.838 490.51
L680.508 488.436
L681.178 490.925
L681.847 484.704
L682.517 487.4
L683.186 483.045
L683.856 489.266
L684.526 497.353
L685.195 485.741
L685.865 484.082
L686.534 484.082
L687.204 493.206
L687.874 473.299
L689.213 485.741
L689.882 489.059
L690.552 487.607
L691.222 485.533
L691.891 484.289
L692.561 484.082
L693.23 494.45
L693.9 486.156
L694.57 487.607
L695.239 491.754
L695.909 482.63
L696.578 485.948
L697.248 497.768
L697.918 487.607
L698.587 487.4
L699.257 493.413
L699.926 481.179
L700.596 489.473
L701.266 493.62
L701.935 485.533
L702.605 489.681
L703.274 480.972
L703.944 489.473
L704.614 483.252
L705.283 486.57
L705.953 482.63
L706.622 484.704
L707.292 483.045
L707.962 491.547
L708.631 492.584
L709.301 489.681
L709.97 487.814
L710.64 487.4
L711.31 489.473
L711.979 494.243
L712.649 483.667
L713.318 487.814
L713.988 488.022
L714.658 484.497
L715.327 487.4
L715.997 482.63
L716.666 487.192
L717.336 494.865
L718.006 488.022
L718.675 490.095
L719.345 486.985
L720.014 487.192
L720.684 488.436
L721.354 482.008
L722.023 483.875
L722.693 491.34
L723.362 495.072
L724.032 482.838
L724.702 484.289
L725.371 484.497
L726.041 482.838
L726.71 483.045
L727.38 490.51
L728.05 495.072
L728.719 484.497
L729.389 489.681
L730.058 490.51
L730.728 486.985
L731.398 484.497
L732.067 493.62
L732.737 483.667
L733.406 488.851
L734.076 490.095
L734.746 480.557
L735.415 485.326
L736.085 492.376
L736.754 486.57
L737.424 488.851
L738.094 495.072
L738.763 490.303
L740.102 487.607
L740.772 487.4
L741.442 486.778
L742.111 488.851
L742.781 490.51
L743.45 481.179
L744.12 492.584
L744.79 483.252
L745.459 492.998
L746.129 486.57
L746.798 488.229
L747.468 484.704
L748.138 482.216
L748.807 484.289
L749.477 489.059
L750.146 485.533
L750.816 490.095
L751.486 485.326
L752.155 492.998
L752.825 489.059
L753.494 493.206
L754.164 486.156
L754.834 487.192
L755.503 482.008
L756.173 482.008
L756.842 489.266
L757.512 485.741
L758.182 473.921
L758.851 487.192
L759.521 484.289
L760.19 492.169
L760.86 489.888
L761.53 488.851
L762.199 488.644
L762.869 485.948
L763.538 488.229
L764.208 490.095
L764.878 483.667
L765.547 480.349
L766.217 484.704
L766.886 487.192
L767.556 493.206
L768.226 494.45
L768.895 487.814
L769.565 483.667
L770.234 481.594
L770.904 483.46
L771.574 476.824
L772.243 482.423
L772.913 483.46
L773.582 486.57
L774.252 486.363
L774.922 483.252
L775.591 483.875
L776.261 484.082
L776.93 482.63
L777.6 487.814
L777.6 487.814" style="fill:none;stroke:#0000ff;stroke-linecap:square;"/>
   </g>
   <g id="patch_3">
    <path d="
M108 583.2
L777.6 583.2" style="fill:none;stroke:#000000;stroke-linecap:square;stroke-linejoin:miter;"/>
   </g>
   <g id="patch_4">
    <path d="
M108 64.8
L777.6 64.8" style="fill:none;stroke:#000000;stroke-linecap:square;stroke-linejoin:miter;"/>
   </g>
   <g id="patch_5">
    <path d="
M777.6 583.2
L777.6 64.8" style="fill:none;stroke:#000000;stroke-linecap:square;stroke-linejoin:miter;"/>
   </g>
   <g id="patch_6">
    <path d="
M108 583.2
L108 64.8" style="fill:none;stroke:#000000;stroke-linecap:square;stroke-linejoin:miter;"/>
   </g>
   <g id="matplotlib.axis_1">
    <g id="xtick_1">
     <g id="line2d_4">
      <defs>
       <path d="
M0 0
L0 -4" id="mc7db9fdffb" style="stroke:#000000;stroke-width:0.5;"/>
      </defs>
      <g>
       <use style="stroke:#000000;stroke-width:0.5;" x="108.0" xlink:href="#mc7db9fdffb" y="583.2"/>
      </g>
     </g>
     <g id="line2d_5">
      <defs>
       <path d="
M0 0
L0 4" id="m5a7d422ac3" style="stroke:#000000;stroke-width:0.5;"/>
      </defs>
      <g>
       <use style="stroke:#000000;stroke-width:0.5;" x="108.0" xlink:href="#m5a7d422ac3" y="64.8"/>
      </g>
     </g>
     <g id="text_1">
      <!-- 0 -->
      <defs>
       <path d="
M31.7812 66.4062
Q24.1719 66.4062 20.3281 58.9062
Q16.5 51.4219 16.5 36.375
Q16.5 21.3906 20.3281 13.8906
Q24.1719 6.39062 31.7812 6.39062
Q39.4531 6.39062 43.2812 13.8906
Q47.125 21.3906 47.125 36.375
Q47.125 51.4219 43.2812 58.9062
Q39.4531 66.4062 31.7812 66.4062
M31.7812 74.2188
Q44.0469 74.2188 50.5156 64.5156
Q56.9844 54.8281 56.9844 36.375
Q56.9844 17.9688 50.5156 8.26562
Q44.0469 -1.42188 31.7812 -1.42188
Q19.5312 -1.42188 13.0625 8.26562
Q6.59375 17.9688 6.59375 36.375
Q6.59375 54.8281 13.0625 64.5156
Q19.5312 74.2188 31.7812 74.2188" id="BitstreamVeraSans-Roman-30"/>
      </defs>
      <g transform="translate(104.9765625 596.318125)scale(0.12 -0.12)">
       <use xlink:href="#BitstreamVeraSans-Roman-30"/>
      </g>
     </g>
    </g>
    <g id="xtick_2">
     <g id="line2d_6">
      <g>
       <use style="stroke:#000000;stroke-width:0.5;" x="275.4" xlink:href="#mc7db9fdffb" y="583.2"/>
      </g>
     </g>
     <g id="line2d_7">
      <g>
       <use style="stroke:#000000;stroke-width:0.5;" x="275.4" xlink:href="#m5a7d422ac3" y="64.8"/>
      </g>
     </g>
     <g id="text_2">
      <!-- 50000 -->
      <defs>
       <path d="
M10.7969 72.9062
L49.5156 72.9062
L49.5156 64.5938
L19.8281 64.5938
L19.8281 46.7344
Q21.9688 47.4688 24.1094 47.8281
Q26.2656 48.1875 28.4219 48.1875
Q40.625 48.1875 47.75 41.5
Q54.8906 34.8125 54.8906 23.3906
Q54.8906 11.625 47.5625 5.09375
Q40.2344 -1.42188 26.9062 -1.42188
Q22.3125 -1.42188 17.5469 -0.640625
Q12.7969 0.140625 7.71875 1.70312
L7.71875 11.625
Q12.1094 9.23438 16.7969 8.0625
Q21.4844 6.89062 26.7031 6.89062
Q35.1562 6.89062 40.0781 11.3281
Q45.0156 15.7656 45.0156 23.3906
Q45.0156 31 40.0781 35.4375
Q35.1562 39.8906 26.7031 39.8906
Q22.75 39.8906 18.8125 39.0156
Q14.8906 38.1406 10.7969 36.2812
z
" id="BitstreamVeraSans-Roman-35"/>
      </defs>
      <g transform="translate(257.1740625 596.318125)scale(0.12 -0.12)">
       <use xlink:href="#BitstreamVeraSans-Roman-35"/>
       <use x="63.623046875" xlink:href="#BitstreamVeraSans-Roman-30"/>
       <use x="127.24609375" xlink:href="#BitstreamVeraSans-Roman-30"/>
       <use x="190.869140625" xlink:href="#BitstreamVeraSans-Roman-30"/>
       <use x="254.4921875" xlink:href="#BitstreamVeraSans-Roman-30"/>
      </g>
     </g>
    </g>
    <g id="xtick_3">
     <g id="line2d_8">
      <g>
       <use style="stroke:#000000;stroke-width:0.5;" x="442.8" xlink:href="#mc7db9fdffb" y="583.2"/>
      </g>
     </g>
     <g id="line2d_9">
      <g>
       <use style="stroke:#000000;stroke-width:0.5;" x="442.8" xlink:href="#m5a7d422ac3" y="64.8"/>
      </g>
     </g>
     <g id="text_3">
      <!-- 100000 -->
      <defs>
       <path d="
M12.4062 8.29688
L28.5156 8.29688
L28.5156 63.9219
L10.9844 60.4062
L10.9844 69.3906
L28.4219 72.9062
L38.2812 72.9062
L38.2812 8.29688
L54.3906 8.29688
L54.3906 0
L12.4062 0
z
" id="BitstreamVeraSans-Roman-31"/>
      </defs>
      <g transform="translate(420.9525 596.318125)scale(0.12 -0.12)">
       <use xlink:href="#BitstreamVeraSans-Roman-31"/>
       <use x="63.623046875" xlink:href="#BitstreamVeraSans-Roman-30"/>
       <use x="127.24609375" xlink:href="#BitstreamVeraSans-Roman-30"/>
       <use x="190.869140625" xlink:href="#BitstreamVeraSans-Roman-30"/>
       <use x="254.4921875" xlink:href="#BitstreamVeraSans-Roman-30"/>
       <use x="318.115234375" xlink:href="#BitstreamVeraSans-Roman-30"/>
      </g>
     </g>
    </g>
    <g id="xtick_4">
     <g id="line2d_10">
      <g>
       <use style="stroke:#000000;stroke-width:0.5;" x="610.2" xlink:href="#mc7db9fdffb" y="583.2"/>
      </g>
     </g>
     <g id="line2d_11">
      <g>
       <use style="stroke:#000000;stroke-width:0.5;" x="610.2" xlink:href="#m5a7d422ac3" y="64.8"/>
      </g>
     </g>
     <g id="text_4">
      <!-- 150000 -->
      <g transform="translate(588.3525 596.318125)scale(0.12 -0.12)">
       <use xlink:href="#BitstreamVeraSans-Roman-31"/>
       <use x="63.623046875" xlink:href="#BitstreamVeraSans-Roman-35"/>
       <use x="127.24609375" xlink:href="#BitstreamVeraSans-Roman-30"/>
       <use x="190.869140625" xlink:href="#BitstreamVeraSans-Roman-30"/>
       <use x="254.4921875" xlink:href="#BitstreamVeraSans-Roman-30"/>
       <use x="318.115234375" xlink:href="#BitstreamVeraSans-Roman-30"/>
      </g>
     </g>
    </g>
    <g id="xtick_5">
     <g id="line2d_12">
      <g>
       <use style="stroke:#000000;stroke-width:0.5;" x="777.6" xlink:href="#mc7db9fdffb" y="583.2"/>
      </g>
     </g>
     <g id="line2d_13">
      <g>
       <use style="stroke:#000000;stroke-width:0.5;" x="777.6" xlink:href="#m5a7d422ac3" y="64.8"/>
      </g>
     </g>
     <g id="text_5">
      <!-- 200000 -->
      <defs>
       <path d="
M19.1875 8.29688
L53.6094 8.29688
L53.6094 0
L7.32812 0
L7.32812 8.29688
Q12.9375 14.1094 22.625 23.8906
Q32.3281 33.6875 34.8125 36.5312
Q39.5469 41.8438 41.4219 45.5312
Q43.3125 49.2188 43.3125 52.7812
Q43.3125 58.5938 39.2344 62.25
Q35.1562 65.9219 28.6094 65.9219
Q23.9688 65.9219 18.8125 64.3125
Q13.6719 62.7031 7.8125 59.4219
L7.8125 69.3906
Q13.7656 71.7812 18.9375 73
Q24.125 74.2188 28.4219 74.2188
Q39.75 74.2188 46.4844 68.5469
Q53.2188 62.8906 53.2188 53.4219
Q53.2188 48.9219 51.5312 44.8906
Q49.8594 40.875 45.4062 35.4062
Q44.1875 33.9844 37.6406 27.2188
Q31.1094 20.4531 19.1875 8.29688" id="BitstreamVeraSans-Roman-32"/>
      </defs>
      <g transform="translate(755.533125 596.318125)scale(0.12 -0.12)">
       <use xlink:href="#BitstreamVeraSans-Roman-32"/>
       <use x="63.623046875" xlink:href="#BitstreamVeraSans-Roman-30"/>
       <use x="127.24609375" xlink:href="#BitstreamVeraSans-Roman-30"/>
       <use x="190.869140625" xlink:href="#BitstreamVeraSans-Roman-30"/>
       <use x="254.4921875" xlink:href="#BitstreamVeraSans-Roman-30"/>
       <use x="318.115234375" xlink:href="#BitstreamVeraSans-Roman-30"/>
      </g>
     </g>
    </g>
    <g id="text_6">
     <!-- t / ms -->
     <defs>
      <path id="BitstreamVeraSans-Roman-20"/>
      <path d="
M44.2812 53.0781
L44.2812 44.5781
Q40.4844 46.5312 36.375 47.5
Q32.2812 48.4844 27.875 48.4844
Q21.1875 48.4844 17.8438 46.4375
Q14.5 44.3906 14.5 40.2812
Q14.5 37.1562 16.8906 35.375
Q19.2812 33.5938 26.5156 31.9844
L29.5938 31.2969
Q39.1562 29.25 43.1875 25.5156
Q47.2188 21.7812 47.2188 15.0938
Q47.2188 7.46875 41.1875 3.01562
Q35.1562 -1.42188 24.6094 -1.42188
Q20.2188 -1.42188 15.4531 -0.5625
Q10.6875 0.296875 5.42188 2
L5.42188 11.2812
Q10.4062 8.6875 15.2344 7.39062
Q20.0625 6.10938 24.8125 6.10938
Q31.1562 6.10938 34.5625 8.28125
Q37.9844 10.4531 37.9844 14.4062
Q37.9844 18.0625 35.5156 20.0156
Q33.0625 21.9688 24.7031 23.7812
L21.5781 24.5156
Q13.2344 26.2656 9.51562 29.9062
Q5.8125 33.5469 5.8125 39.8906
Q5.8125 47.6094 11.2812 51.7969
Q16.75 56 26.8125 56
Q31.7812 56 36.1719 55.2656
Q40.5781 54.5469 44.2812 53.0781" id="BitstreamVeraSans-Roman-73"/>
      <path d="
M18.3125 70.2188
L18.3125 54.6875
L36.8125 54.6875
L36.8125 47.7031
L18.3125 47.7031
L18.3125 18.0156
Q18.3125 11.3281 20.1406 9.42188
Q21.9688 7.51562 27.5938 7.51562
L36.8125 7.51562
L36.8125 0
L27.5938 0
Q17.1875 0 13.2344 3.875
Q9.28125 7.76562 9.28125 18.0156
L9.28125 47.7031
L2.6875 47.7031
L2.6875 54.6875
L9.28125 54.6875
L9.28125 70.2188
z
" id="BitstreamVeraSans-Roman-74"/>
      <path d="
M52 44.1875
Q55.375 50.25 60.0625 53.125
Q64.75 56 71.0938 56
Q79.6406 56 84.2812 50.0156
Q88.9219 44.0469 88.9219 33.0156
L88.9219 0
L79.8906 0
L79.8906 32.7188
Q79.8906 40.5781 77.0938 44.375
Q74.3125 48.1875 68.6094 48.1875
Q61.625 48.1875 57.5625 43.5469
Q53.5156 38.9219 53.5156 30.9062
L53.5156 0
L44.4844 0
L44.4844 32.7188
Q44.4844 40.625 41.7031 44.4062
Q38.9219 48.1875 33.1094 48.1875
Q26.2188 48.1875 22.1562 43.5312
Q18.1094 38.875 18.1094 30.9062
L18.1094 0
L9.07812 0
L9.07812 54.6875
L18.1094 54.6875
L18.1094 46.1875
Q21.1875 51.2188 25.4844 53.6094
Q29.7812 56 35.6875 56
Q41.6562 56 45.8281 52.9688
Q50 49.9531 52 44.1875" id="BitstreamVeraSans-Roman-6d"/>
      <path d="
M25.3906 72.9062
L33.6875 72.9062
L8.29688 -9.28125
L0 -9.28125
z
" id="BitstreamVeraSans-Roman-2f"/>
     </defs>
     <g transform="translate(425.9353125 612.931875)scale(0.12 -0.12)">
      <use xlink:href="#BitstreamVeraSans-Roman-74"/>
      <use x="39.208984375" xlink:href="#BitstreamVeraSans-Roman-20"/>
      <use x="70.99609375" xlink:href="#BitstreamVeraSans-Roman-2f"/>
      <use x="104.6875" xlink:href="#BitstreamVeraSans-Roman-20"/>
      <use x="136.474609375" xlink:href="#BitstreamVeraSans-Roman-6d"/>
      <use x="233.88671875" xlink:href="#BitstreamVeraSans-Roman-73"/>
     </g>
    </g>
   </g>
   <g id="matplotlib.axis_2">
    <g id="ytick_1">
     <g id="line2d_14">
      <defs>
       <path d="
M0 0
L4 0" id="md7965d1ba0" style="stroke:#000000;stroke-width:0.5;"/>
      </defs>
      <g>
       <use style="stroke:#000000;stroke-width:0.5;" x="108.0" xlink:href="#md7965d1ba0" y="583.2"/>
      </g>
     </g>
     <g id="line2d_15">
      <defs>
       <path d="
M0 0
L-4 0" id="md9a1c1a7cd" style="stroke:#000000;stroke-width:0.5;"/>
      </defs>
      <g>
       <use style="stroke:#000000;stroke-width:0.5;" x="777.6" xlink:href="#md9a1c1a7cd" y="583.2"/>
      </g>
     </g>
     <g id="text_7">
      <!-- 0 -->
      <g transform="translate(97.953125 586.51125)scale(0.12 -0.12)">
       <use xlink:href="#BitstreamVeraSans-Roman-30"/>
      </g>
     </g>
    </g>
    <g id="ytick_2">
     <g id="line2d_16">
      <g>
       <use style="stroke:#000000;stroke-width:0.5;" x="108.0" xlink:href="#md7965d1ba0" y="479.52"/>
      </g>
     </g>
     <g id="line2d_17">
      <g>
       <use style="stroke:#000000;stroke-width:0.5;" x="777.6" xlink:href="#md9a1c1a7cd" y="479.52"/>
      </g>
     </g>
     <g id="text_8">
      <!-- 500 -->
      <g transform="translate(82.818125 482.83125)scale(0.12 -0.12)">
       <use xlink:href="#BitstreamVeraSans-Roman-35"/>
       <use x="63.623046875" xlink:href="#BitstreamVeraSans-Roman-30"/>
       <use x="127.24609375" xlink:href="#BitstreamVeraSans-Roman-30"/>
      </g>
     </g>
    </g>
    <g id="ytick_3">
     <g id="line2d_18">
      <g>
       <use style="stroke:#000000;stroke-width:0.5;" x="108.0" xlink:href="#md7965d1ba0" y="375.84"/>
      </g>
     </g>
     <g id="line2d_19">
      <g>
       <use style="stroke:#000000;stroke-width:0.5;" x="777.6" xlink:href="#md9a1c1a7cd" y="375.84"/>
      </g>
     </g>
     <g id="text_9">
      <!-- 1000 -->
      <g transform="translate(75.575 379.15125)scale(0.12 -0.12)">
       <use xlink:href="#BitstreamVeraSans-Roman-31"/>
       <use x="63.623046875" xlink:href="#BitstreamVeraSans-Roman-30"/>
       <use x="127.24609375" xlink:href="#BitstreamVeraSans-Roman-30"/>
       <use x="190.869140625" xlink:href="#BitstreamVeraSans-Roman-30"/>
      </g>
     </g>
    </g>
    <g id="ytick_4">
     <g id="line2d_20">
      <g>
       <use style="stroke:#000000;stroke-width:0.5;" x="108.0" xlink:href="#md7965d1ba0" y="272.16"/>
      </g>
     </g>
     <g id="line2d_21">
      <g>
       <use style="stroke:#000000;stroke-width:0.5;" x="777.6" xlink:href="#md9a1c1a7cd" y="272.16"/>
      </g>
     </g>
     <g id="text_10">
      <!-- 1500 -->
      <g transform="translate(75.575 275.47125)scale(0.12 -0.12)">
       <use xlink:href="#BitstreamVeraSans-Roman-31"/>
       <use x="63.623046875" xlink:href="#BitstreamVeraSans-Roman-35"/>
       <use x="127.24609375" xlink:href="#BitstreamVeraSans-Roman-30"/>
       <use x="190.869140625" xlink:href="#BitstreamVeraSans-Roman-30"/>
      </g>
     </g>
    </g>
    <g id="ytick_5">
     <g id="line2d_22">
      <g>
       <use style="stroke:#000000;stroke-width:0.5;" x="108.0" xlink:href="#md7965d1ba0" y="168.48"/>
      </g>
     </g>
     <g id="line2d_23">
      <g>
       <use style="stroke:#000000;stroke-width:0.5;" x="777.6" xlink:href="#md9a1c1a7cd" y="168.48"/>
      </g>
     </g>
     <g id="text_11">
      <!-- 2000 -->
      <g transform="translate(75.13625 171.79125)scale(0.12 -0.12)">
       <use xlink:href="#BitstreamVeraSans-Roman-32"/>
       <use x="63.623046875" xlink:href="#BitstreamVeraSans-Roman-30"/>
       <use x="127.24609375" xlink:href="#BitstreamVeraSans-Roman-30"/>
       <use x="190.869140625" xlink:href="#BitstreamVeraSans-Roman-30"/>
      </g>
     </g>
    </g>
    <g id="ytick_6">
     <g id="line2d_24">
      <g>
       <use style="stroke:#000000;stroke-width:0.5;" x="108.0" xlink:href="#md7965d1ba0" y="64.8"/>
      </g>
     </g>
     <g id="line2d_25">
      <g>
       <use style="stroke:#000000;stroke-width:0.5;" x="777.6" xlink:href="#md9a1c1a7cd" y="64.8"/>
      </g>
     </g>
     <g id="text_12">
      <!-- 2500 -->
      <g transform="translate(75.13625 68.11125)scale(0.12 -0.12)">
       <use xlink:href="#BitstreamVeraSans-Roman-32"/>
       <use x="63.623046875" xlink:href="#BitstreamVeraSans-Roman-35"/>
       <use x="127.24609375" xlink:href="#BitstreamVeraSans-Roman-30"/>
       <use x="190.869140625" xlink:href="#BitstreamVeraSans-Roman-30"/>
      </g>
     </g>
    </g>
    <g id="text_13">
     <!-- particle numbers -->
     <defs>
      <path d="
M8.5 21.5781
L8.5 54.6875
L17.4844 54.6875
L17.4844 21.9219
Q17.4844 14.1562 20.5 10.2656
Q23.5312 6.39062 29.5938 6.39062
Q36.8594 6.39062 41.0781 11.0312
Q45.3125 15.6719 45.3125 23.6875
L45.3125 54.6875
L54.2969 54.6875
L54.2969 0
L45.3125 0
L45.3125 8.40625
Q42.0469 3.42188 37.7188 1
Q33.4062 -1.42188 27.6875 -1.42188
Q18.2656 -1.42188 13.375 4.4375
Q8.5 10.2969 8.5 21.5781" id="BitstreamVeraSans-Roman-75"/>
      <path d="
M56.2031 29.5938
L56.2031 25.2031
L14.8906 25.2031
Q15.4844 15.9219 20.4844 11.0625
Q25.4844 6.20312 34.4219 6.20312
Q39.5938 6.20312 44.4531 7.46875
Q49.3125 8.73438 54.1094 11.2812
L54.1094 2.78125
Q49.2656 0.734375 44.1875 -0.34375
Q39.1094 -1.42188 33.8906 -1.42188
Q20.7969 -1.42188 13.1562 6.1875
Q5.51562 13.8125 5.51562 26.8125
Q5.51562 40.2344 12.7656 48.1094
Q20.0156 56 32.3281 56
Q43.3594 56 49.7812 48.8906
Q56.2031 41.7969 56.2031 29.5938
M47.2188 32.2344
Q47.125 39.5938 43.0938 43.9844
Q39.0625 48.3906 32.4219 48.3906
Q24.9062 48.3906 20.3906 44.1406
Q15.875 39.8906 15.1875 32.1719
z
" id="BitstreamVeraSans-Roman-65"/>
      <path d="
M48.6875 27.2969
Q48.6875 37.2031 44.6094 42.8438
Q40.5312 48.4844 33.4062 48.4844
Q26.2656 48.4844 22.1875 42.8438
Q18.1094 37.2031 18.1094 27.2969
Q18.1094 17.3906 22.1875 11.75
Q26.2656 6.10938 33.4062 6.10938
Q40.5312 6.10938 44.6094 11.75
Q48.6875 17.3906 48.6875 27.2969
M18.1094 46.3906
Q20.9531 51.2656 25.2656 53.625
Q29.5938 56 35.5938 56
Q45.5625 56 51.7812 48.0938
Q58.0156 40.1875 58.0156 27.2969
Q58.0156 14.4062 51.7812 6.48438
Q45.5625 -1.42188 35.5938 -1.42188
Q29.5938 -1.42188 25.2656 0.953125
Q20.9531 3.32812 18.1094 8.20312
L18.1094 0
L9.07812 0
L9.07812 75.9844
L18.1094 75.9844
z
" id="BitstreamVeraSans-Roman-62"/>
      <path d="
M9.42188 75.9844
L18.4062 75.9844
L18.4062 0
L9.42188 0
z
" id="BitstreamVeraSans-Roman-6c"/>
      <path d="
M34.2812 27.4844
Q23.3906 27.4844 19.1875 25
Q14.9844 22.5156 14.9844 16.5
Q14.9844 11.7188 18.1406 8.90625
Q21.2969 6.10938 26.7031 6.10938
Q34.1875 6.10938 38.7031 11.4062
Q43.2188 16.7031 43.2188 25.4844
L43.2188 27.4844
z

M52.2031 31.2031
L52.2031 0
L43.2188 0
L43.2188 8.29688
Q40.1406 3.32812 35.5469 0.953125
Q30.9531 -1.42188 24.3125 -1.42188
Q15.9219 -1.42188 10.9531 3.29688
Q6 8.01562 6 15.9219
Q6 25.1406 12.1719 29.8281
Q18.3594 34.5156 30.6094 34.5156
L43.2188 34.5156
L43.2188 35.4062
Q43.2188 41.6094 39.1406 45
Q35.0625 48.3906 27.6875 48.3906
Q23 48.3906 18.5469 47.2656
Q14.1094 46.1406 10.0156 43.8906
L10.0156 52.2031
Q14.9375 54.1094 19.5781 55.0469
Q24.2188 56 28.6094 56
Q40.4844 56 46.3438 49.8438
Q52.2031 43.7031 52.2031 31.2031" id="BitstreamVeraSans-Roman-61"/>
      <path d="
M41.1094 46.2969
Q39.5938 47.1719 37.8125 47.5781
Q36.0312 48 33.8906 48
Q26.2656 48 22.1875 43.0469
Q18.1094 38.0938 18.1094 28.8125
L18.1094 0
L9.07812 0
L9.07812 54.6875
L18.1094 54.6875
L18.1094 46.1875
Q20.9531 51.1719 25.4844 53.5781
Q30.0312 56 36.5312 56
Q37.4531 56 38.5781 55.875
Q39.7031 55.7656 41.0625 55.5156
z
" id="BitstreamVeraSans-Roman-72"/>
      <path d="
M54.8906 33.0156
L54.8906 0
L45.9062 0
L45.9062 32.7188
Q45.9062 40.4844 42.875 44.3281
Q39.8438 48.1875 33.7969 48.1875
Q26.5156 48.1875 22.3125 43.5469
Q18.1094 38.9219 18.1094 30.9062
L18.1094 0
L9.07812 0
L9.07812 54.6875
L18.1094 54.6875
L18.1094 46.1875
Q21.3438 51.125 25.7031 53.5625
Q30.0781 56 35.7969 56
Q45.2188 56 50.0469 50.1719
Q54.8906 44.3438 54.8906 33.0156" id="BitstreamVeraSans-Roman-6e"/>
      <path d="
M18.1094 8.20312
L18.1094 -20.7969
L9.07812 -20.7969
L9.07812 54.6875
L18.1094 54.6875
L18.1094 46.3906
Q20.9531 51.2656 25.2656 53.625
Q29.5938 56 35.5938 56
Q45.5625 56 51.7812 48.0938
Q58.0156 40.1875 58.0156 27.2969
Q58.0156 14.4062 51.7812 6.48438
Q45.5625 -1.42188 35.5938 -1.42188
Q29.5938 -1.42188 25.2656 0.953125
Q20.9531 3.32812 18.1094 8.20312
M48.6875 27.2969
Q48.6875 37.2031 44.6094 42.8438
Q40.5312 48.4844 33.4062 48.4844
Q26.2656 48.4844 22.1875 42.8438
Q18.1094 37.2031 18.1094 27.2969
Q18.1094 17.3906 22.1875 11.75
Q26.2656 6.10938 33.4062 6.10938
Q40.5312 6.10938 44.6094 11.75
Q48.6875 17.3906 48.6875 27.2969" id="BitstreamVeraSans-Roman-70"/>
      <path d="
M48.7812 52.5938
L48.7812 44.1875
Q44.9688 46.2969 41.1406 47.3438
Q37.3125 48.3906 33.4062 48.3906
Q24.6562 48.3906 19.8125 42.8438
Q14.9844 37.3125 14.9844 27.2969
Q14.9844 17.2812 19.8125 11.7344
Q24.6562 6.20312 33.4062 6.20312
Q37.3125 6.20312 41.1406 7.25
Q44.9688 8.29688 48.7812 10.4062
L48.7812 2.09375
Q45.0156 0.34375 40.9844 -0.53125
Q36.9688 -1.42188 32.4219 -1.42188
Q20.0625 -1.42188 12.7812 6.34375
Q5.51562 14.1094 5.51562 27.2969
Q5.51562 40.6719 12.8594 48.3281
Q20.2188 56 33.0156 56
Q37.1562 56 41.1094 55.1406
Q45.0625 54.2969 48.7812 52.5938" id="BitstreamVeraSans-Roman-63"/>
      <path d="
M9.42188 54.6875
L18.4062 54.6875
L18.4062 0
L9.42188 0
z

M9.42188 75.9844
L18.4062 75.9844
L18.4062 64.5938
L9.42188 64.5938
z
" id="BitstreamVeraSans-Roman-69"/>
     </defs>
     <g transform="translate(67.640625 374.78625)rotate(-90.0)scale(0.12 -0.12)">
      <use xlink:href="#BitstreamVeraSans-Roman-70"/>
      <use x="63.4765625" xlink:href="#BitstreamVeraSans-Roman-61"/>
      <use x="124.755859375" xlink:href="#BitstreamVeraSans-Roman-72"/>
      <use x="165.869140625" xlink:href="#BitstreamVeraSans-Roman-74"/>
      <use x="205.078125" xlink:href="#BitstreamVeraSans-Roman-69"/>
      <use x="232.861328125" xlink:href="#BitstreamVeraSans-Roman-63"/>
      <use x="287.841796875" xlink:href="#BitstreamVeraSans-Roman-6c"/>
      <use x="315.625" xlink:href="#BitstreamVeraSans-Roman-65"/>
      <use x="377.1484375" xlink:href="#BitstreamVeraSans-Roman-20"/>
      <use x="408.935546875" xlink:href="#BitstreamVeraSans-Roman-6e"/>
      <use x="472.314453125" xlink:href="#BitstreamVeraSans-Roman-75"/>
      <use x="535.693359375" xlink:href="#BitstreamVeraSans-Roman-6d"/>
      <use x="633.10546875" xlink:href="#BitstreamVeraSans-Roman-62"/>
      <use x="696.58203125" xlink:href="#BitstreamVeraSans-Roman-65"/>
      <use x="758.10546875" xlink:href="#BitstreamVeraSans-Roman-72"/>
      <use x="799.21875" xlink:href="#BitstreamVeraSans-Roman-73"/>
     </g>
    </g>
   </g>
   <g id="legend_1">
    <g id="patch_7">
     <path d="
M724.53 101.224
L774.1 101.224
L774.1 68.3
L724.53 68.3
z
" style="fill:#ffffff;stroke:#000000;stroke-linejoin:miter;"/>
    </g>
    <g id="line2d_26">
     <path d="
M729.43 73.9689
L739.23 73.9689" style="fill:none;stroke:#ff0000;stroke-linecap:square;"/>
    </g>
    <g id="line2d_27"/>
    <g id="text_14">
     <!-- Da el.0 -->
     <defs>
      <path d="
M19.6719 64.7969
L19.6719 8.10938
L31.5938 8.10938
Q46.6875 8.10938 53.6875 14.9375
Q60.6875 21.7812 60.6875 36.5312
Q60.6875 51.1719 53.6875 57.9844
Q46.6875 64.7969 31.5938 64.7969
z

M9.8125 72.9062
L30.0781 72.9062
Q51.2656 72.9062 61.1719 64.0938
Q71.0938 55.2812 71.0938 36.5312
Q71.0938 17.6719 61.125 8.82812
Q51.1719 0 30.0781 0
L9.8125 0
z
" id="BitstreamVeraSans-Roman-44"/>
      <path d="
M10.6875 12.4062
L21 12.4062
L21 0
L10.6875 0
z
" id="BitstreamVeraSans-Roman-2e"/>
     </defs>
     <g transform="translate(746.93015625 76.41890625)scale(0.07 -0.07)">
      <use xlink:href="#BitstreamVeraSans-Roman-44"/>
      <use x="77.001953125" xlink:href="#BitstreamVeraSans-Roman-61"/>
      <use x="138.28125" xlink:href="#BitstreamVeraSans-Roman-20"/>
      <use x="170.068359375" xlink:href="#BitstreamVeraSans-Roman-65"/>
      <use x="231.591796875" xlink:href="#BitstreamVeraSans-Roman-6c"/>
      <use x="259.375" xlink:href="#BitstreamVeraSans-Roman-2e"/>
      <use x="291.162109375" xlink:href="#BitstreamVeraSans-Roman-30"/>
     </g>
    </g>
    <g id="line2d_28">
     <path d="
M729.43 84.2436
L739.23 84.2436" style="fill:none;stroke:#008000;stroke-linecap:square;"/>
    </g>
    <g id="line2d_29"/>
    <g id="text_15">
     <!-- Da el.1 -->
     <g transform="translate(746.93015625 86.69359375)scale(0.07 -0.07)">
      <use xlink:href="#BitstreamVeraSans-Roman-44"/>
      <use x="77.001953125" xlink:href="#BitstreamVeraSans-Roman-61"/>
      <use x="138.28125" xlink:href="#BitstreamVeraSans-Roman-20"/>
      <use x="170.068359375" xlink:href="#BitstreamVeraSans-Roman-65"/>
      <use x="231.591796875" xlink:href="#BitstreamVeraSans-Roman-6c"/>
      <use x="259.375" xlink:href="#BitstreamVeraSans-Roman-2e"/>
      <use x="291.162109375" xlink:href="#BitstreamVeraSans-Roman-31"/>
     </g>
    </g>
    <g id="line2d_30">
     <path d="
M729.43 94.5183
L739.23 94.5183" style="fill:none;stroke:#0000ff;stroke-linecap:square;"/>
    </g>
    <g id="line2d_31"/>
    <g id="text_16">
     <!-- Da el.2 -->
     <g transform="translate(746.93015625 96.96828125)scale(0.07 -0.07)">
      <use xlink:href="#BitstreamVeraSans-Roman-44"/>
      <use x="77.001953125" xlink:href="#BitstreamVeraSans-Roman-61"/>
      <use x="138.28125" xlink:href="#BitstreamVeraSans-Roman-20"/>
      <use x="170.068359375" xlink:href="#BitstreamVeraSans-Roman-65"/>
      <use x="231.591796875" xlink:href="#BitstreamVeraSans-Roman-6c"/>
      <use x="259.375" xlink:href="#BitstreamVeraSans-Roman-2e"/>
      <use x="291.162109375" xlink:href="#BitstreamVeraSans-Roman-32"/>
     </g>
    </g>
   </g>
  </g>
 </g>
 <defs>
  <clipPath id="p7ceb695115">
   <rect height="518.4" width="669.6" x="108.0" y="64.8"/>
  </clipPath>
 </defs>
</svg>
