<?xml version="1.0" encoding="utf-8" standalone="no"?>
<!DOCTYPE svg PUBLIC "-//W3C//DTD SVG 1.1//EN"
  "http://www.w3.org/Graphics/SVG/1.1/DTD/svg11.dtd">
<!-- Created with matplotlib (http://matplotlib.org/) -->
<svg height="648pt" version="1.1" viewBox="0 0 864 648" width="864pt" xmlns="http://www.w3.org/2000/svg" xmlns:xlink="http://www.w3.org/1999/xlink">
 <defs>
  <style type="text/css">
*{stroke-linecap:butt;stroke-linejoin:round;}
  </style>
 </defs>
 <g id="figure_1">
  <g id="patch_1">
   <path d="
M0 648
L864 648
L864 0
L0 0
z
" style="fill:#ffffff;"/>
  </g>
  <g id="axes_1">
   <g id="patch_2">
    <path d="
M108 583.2
L777.6 583.2
L777.6 64.8
L108 64.8
z
" style="fill:#ffffff;"/>
   </g>
   <g id="line2d_1">
    <path clip-path="url(#p7ceb695115)" d="
M108 583.2
L555.293 583.2
L555.962 546.171
L556.632 583.2
L557.302 546.171
L566.676 546.171
L567.346 509.143
L574.042 509.143
L574.711 546.171
L575.381 509.143
L576.72 509.143
L577.39 546.171
L578.059 509.143
L578.729 509.143
L579.398 546.171
L580.068 509.143
L582.077 509.143
L582.746 546.171
L584.086 546.171
L584.755 509.143
L587.434 509.143
L588.103 546.171
L588.773 509.143
L595.469 509.143
L596.138 472.114
L600.826 472.114
L601.495 509.143
L602.165 472.114
L604.843 472.114
L605.513 546.171
L606.852 472.114
L607.522 509.143
L608.191 472.114
L608.861 546.171
L609.53 546.171
L610.2 472.114
L610.87 509.143
L611.539 472.114
L612.878 546.171
L613.548 472.114
L616.896 472.114
L617.566 509.143
L618.235 472.114
L618.905 509.143
L619.574 509.143
L620.244 472.114
L620.914 472.114
L621.583 509.143
L622.253 472.114
L623.592 472.114
L624.262 509.143
L624.931 509.143
L625.601 583.2
L626.27 509.143
L626.94 472.114
L628.279 546.171
L628.949 509.143
L629.618 509.143
L630.288 472.114
L632.297 472.114
L632.966 546.171
L633.636 472.114
L636.984 472.114
L637.654 509.143
L638.323 472.114
L638.993 472.114
L639.662 509.143
L640.332 472.114
L641.002 509.143
L641.671 472.114
L642.341 509.143
L643.01 509.143
L643.68 472.114
L644.35 509.143
L645.019 509.143
L645.689 472.114
L646.358 509.143
L647.028 472.114
L647.698 472.114
L648.367 509.143
L649.706 509.143
L651.046 435.086
L651.715 472.114
L652.385 472.114
L653.054 435.086
L654.394 435.086
L655.063 509.143
L655.733 435.086
L656.402 435.086
L657.072 546.171
L657.742 435.086
L658.411 472.114
L659.081 435.086
L660.42 435.086
L661.09 472.114
L661.759 435.086
L662.429 509.143
L663.098 435.086
L663.768 472.114
L664.438 472.114
L665.107 435.086
L665.777 472.114
L666.446 435.086
L669.794 435.086
L670.464 398.057
L671.134 435.086
L671.803 361.029
L672.473 435.086
L673.812 361.029
L674.482 435.086
L675.151 435.086
L676.49 361.029
L677.16 435.086
L677.83 435.086
L679.169 361.029
L679.838 472.114
L680.508 472.114
L681.178 398.057
L681.847 472.114
L682.517 398.057
L683.186 472.114
L683.856 398.057
L685.865 398.057
L686.534 472.114
L687.874 398.057
L688.543 435.086
L689.213 435.086
L690.552 361.029
L691.891 435.086
L692.561 398.057
L693.23 398.057
L693.9 361.029
L694.57 435.086
L695.239 472.114
L695.909 435.086
L696.578 546.171
L697.248 398.057
L697.918 398.057
L698.587 472.114
L699.257 435.086
L699.926 472.114
L700.596 398.057
L701.266 361.029
L701.935 435.086
L702.605 472.114
L703.274 361.029
L703.944 398.057
L704.614 398.057
L705.283 435.086
L706.622 435.086
L707.292 398.057
L707.962 472.114
L708.631 398.057
L709.301 361.029
L710.64 435.086
L711.31 435.086
L711.979 472.114
L712.649 435.086
L713.318 472.114
L713.988 398.057
L714.658 361.029
L715.327 435.086
L715.997 435.086
L716.666 398.057
L717.336 435.086
L718.006 435.086
L718.675 472.114
L719.345 435.086
L720.014 361.029
L720.684 472.114
L722.023 472.114
L722.693 398.057
L723.362 435.086
L724.702 435.086
L725.371 472.114
L726.041 472.114
L726.71 509.143
L727.38 324
L728.05 398.057
L728.719 361.029
L729.389 398.057
L730.058 472.114
L730.728 286.971
L731.398 435.086
L732.067 361.029
L732.737 398.057
L734.076 398.057
L734.746 361.029
L735.415 435.086
L736.085 435.086
L736.754 398.057
L737.424 509.143
L738.763 286.971
L739.433 324
L740.102 435.086
L740.772 286.971
L741.442 435.086
L742.111 361.029
L742.781 324
L743.45 324
L744.12 398.057
L744.79 324
L745.459 398.057
L746.129 398.057
L746.798 324
L747.468 472.114
L748.138 361.029
L748.807 361.029
L749.477 472.114
L750.146 435.086
L750.816 472.114
L751.486 398.057
L752.155 435.086
L752.825 398.057
L753.494 324
L754.164 509.143
L754.834 361.029
L756.173 361.029
L756.842 435.086
L757.512 435.086
L758.182 361.029
L758.851 398.057
L759.521 361.029
L760.86 435.086
L761.53 361.029
L762.199 435.086
L762.869 398.057
L763.538 398.057
L764.208 361.029
L764.878 509.143
L765.547 435.086
L766.217 435.086
L766.886 324
L767.556 509.143
L768.226 435.086
L768.895 398.057
L769.565 435.086
L770.234 398.057
L770.904 398.057
L771.574 361.029
L772.243 509.143
L772.913 435.086
L773.582 324
L774.252 361.029
L774.922 472.114
L775.591 361.029
L776.93 435.086
L777.6 324
L777.6 324" style="fill:none;stroke:#ff0000;stroke-linecap:square;"/>
   </g>
   <g id="line2d_2">
    <path clip-path="url(#p7ceb695115)" d="
M108 583.2
L314.906 583.2
L315.576 546.171
L316.246 583.2
L331.646 583.2
L332.316 546.171
L332.986 583.2
L350.395 583.2
L351.065 546.171
L351.734 583.2
L376.51 583.2
L377.179 546.171
L377.849 583.2
L378.518 583.2
L379.188 546.171
L379.858 583.2
L403.963 583.2
L404.633 546.171
L405.302 583.2
L438.113 583.2
L438.782 546.171
L439.452 583.2
L444.139 583.2
L444.809 546.171
L445.478 546.171
L446.148 583.2
L446.818 583.2
L447.487 546.171
L455.522 546.171
L456.192 583.2
L456.862 546.171
L462.888 546.171
L463.558 583.2
L464.227 546.171
L470.923 546.171
L471.593 509.143
L476.95 509.143
L477.619 546.171
L478.289 472.114
L479.628 472.114
L480.298 509.143
L480.967 472.114
L482.306 472.114
L482.976 509.143
L483.646 472.114
L491.681 472.114
L492.35 435.086
L494.359 435.086
L495.029 472.114
L495.698 435.086
L496.368 472.114
L497.038 435.086
L497.707 435.086
L498.377 472.114
L499.046 472.114
L500.386 398.057
L501.055 435.086
L501.725 398.057
L502.394 435.086
L503.064 398.057
L503.734 398.057
L504.403 435.086
L505.073 435.086
L505.742 398.057
L506.412 435.086
L507.082 435.086
L507.751 398.057
L508.421 398.057
L509.09 435.086
L509.76 398.057
L511.099 398.057
L511.769 472.114
L512.438 398.057
L513.108 435.086
L514.447 435.086
L515.117 398.057
L515.786 398.057
L516.456 472.114
L517.126 398.057
L517.795 435.086
L518.465 435.086
L519.134 398.057
L519.804 398.057
L520.474 472.114
L521.143 398.057
L521.813 398.057
L522.482 435.086
L523.152 398.057
L524.491 398.057
L525.161 361.029
L525.83 361.029
L526.5 398.057
L527.17 361.029
L527.839 361.029
L528.509 398.057
L529.178 361.029
L529.848 361.029
L530.518 398.057
L531.187 361.029
L531.857 361.029
L532.526 398.057
L533.196 361.029
L535.205 361.029
L535.874 398.057
L536.544 361.029
L537.214 398.057
L539.222 398.057
L539.892 361.029
L540.562 398.057
L541.231 361.029
L541.901 435.086
L542.57 361.029
L543.24 361.029
L543.91 398.057
L544.579 361.029
L545.249 398.057
L545.918 398.057
L546.588 435.086
L547.258 361.029
L547.927 398.057
L548.597 361.029
L549.266 361.029
L549.936 398.057
L550.606 361.029
L551.275 435.086
L551.945 361.029
L552.614 361.029
L553.284 435.086
L554.623 361.029
L555.293 361.029
L555.962 398.057
L556.632 472.114
L557.302 361.029
L559.31 361.029
L559.98 398.057
L560.65 361.029
L561.319 361.029
L561.989 398.057
L563.328 398.057
L563.998 361.029
L564.667 398.057
L565.337 398.057
L566.006 361.029
L567.346 361.029
L568.015 398.057
L568.685 398.057
L569.354 361.029
L570.024 361.029
L570.694 398.057
L571.363 361.029
L572.033 361.029
L572.702 398.057
L573.372 472.114
L574.042 361.029
L575.381 361.029
L576.05 398.057
L576.72 361.029
L577.39 398.057
L578.059 361.029
L578.729 361.029
L579.398 324
L580.068 324
L580.738 398.057
L581.407 361.029
L582.077 361.029
L582.746 324
L583.416 361.029
L584.086 324
L584.755 361.029
L585.425 324
L586.764 398.057
L587.434 398.057
L588.103 324
L588.773 361.029
L589.442 361.029
L590.112 398.057
L590.782 398.057
L591.451 324
L592.121 324
L592.79 435.086
L593.46 361.029
L594.13 324
L595.469 324
L596.138 398.057
L596.808 361.029
L597.478 398.057
L598.147 324
L598.817 398.057
L599.486 361.029
L600.156 361.029
L600.826 398.057
L601.495 286.971
L602.165 324
L602.834 286.971
L604.174 361.029
L604.843 286.971
L605.513 286.971
L606.182 361.029
L607.522 286.971
L608.191 286.971
L608.861 361.029
L609.53 286.971
L610.2 361.029
L610.87 324
L611.539 324
L612.209 361.029
L612.878 324
L613.548 324
L614.218 286.971
L614.887 286.971
L615.557 324
L616.896 324
L617.566 361.029
L618.235 361.029
L618.905 249.943
L619.574 286.971
L620.244 249.943
L620.914 249.943
L621.583 286.971
L622.253 361.029
L622.922 286.971
L623.592 286.971
L624.262 324
L624.931 324
L625.601 361.029
L626.27 249.943
L626.94 286.971
L627.61 398.057
L628.279 398.057
L628.949 361.029
L629.618 286.971
L630.288 324
L630.958 286.971
L631.627 324
L632.297 324
L632.966 249.943
L633.636 212.914
L634.306 286.971
L634.975 324
L635.645 212.914
L638.323 361.029
L638.993 249.943
L639.662 324
L640.332 361.029
L641.002 212.914
L641.671 212.914
L643.68 324
L644.35 212.914
L645.019 286.971
L645.689 324
L646.358 286.971
L647.028 212.914
L647.698 286.971
L648.367 286.971
L649.037 212.914
L649.706 249.943
L650.376 212.914
L651.046 249.943
L651.715 249.943
L652.385 324
L653.054 286.971
L653.724 175.886
L654.394 249.943
L655.063 175.886
L655.733 175.886
L656.402 324
L657.072 249.943
L657.742 249.943
L658.411 212.914
L659.081 286.971
L659.75 175.886
L660.42 175.886
L661.09 286.971
L661.759 212.914
L662.429 286.971
L663.768 138.857
L664.438 212.914
L665.107 175.886
L665.777 324
L666.446 286.971
L667.116 175.886
L667.786 175.886
L668.455 138.857
L669.125 324
L669.794 175.886
L671.134 175.886
L671.803 249.943
L672.473 286.971
L673.142 212.914
L673.812 175.886
L674.482 175.886
L675.151 138.857
L675.821 212.914
L676.49 101.829
L677.16 212.914
L677.83 138.857
L678.499 212.914
L679.169 64.8
L680.508 138.857
L681.178 286.971
L681.847 175.886
L682.517 249.943
L683.186 175.886
L684.526 249.943
L685.195 324
L685.865 64.8
L686.534 212.914
L687.874 212.914
L688.543 286.971
L689.213 175.886
L689.882 286.971
L690.552 212.914
L691.222 324
L691.891 249.943
L692.561 249.943
L693.23 286.971
L693.9 212.914
L694.57 249.943
L695.239 175.886
L695.909 286.971
L696.578 175.886
L697.248 324
L697.918 324
L698.587 212.914
L699.257 249.943
L699.926 212.914
L700.596 361.029
L701.266 286.971
L701.935 249.943
L702.605 175.886
L703.274 175.886
L704.614 249.943
L705.283 324
L705.953 249.943
L706.622 138.857
L707.292 138.857
L707.962 286.971
L708.631 249.943
L709.301 435.086
L709.97 212.914
L710.64 249.943
L711.31 361.029
L711.979 286.971
L712.649 398.057
L713.318 324
L713.988 324
L714.658 212.914
L715.327 324
L716.666 249.943
L717.336 175.886
L718.006 212.914
L718.675 175.886
L719.345 324
L721.354 324
L722.023 212.914
L722.693 286.971
L723.362 249.943
L724.032 249.943
L724.702 286.971
L725.371 286.971
L726.041 249.943
L726.71 286.971
L727.38 212.914
L728.05 249.943
L728.719 212.914
L729.389 361.029
L730.728 212.914
L731.398 324
L732.067 361.029
L732.737 286.971
L733.406 361.029
L734.076 249.943
L734.746 286.971
L735.415 286.971
L736.085 212.914
L736.754 249.943
L737.424 249.943
L738.094 286.971
L738.763 286.971
L739.433 249.943
L740.102 286.971
L740.772 249.943
L741.442 249.943
L742.111 324
L742.781 249.943
L743.45 286.971
L744.12 361.029
L744.79 398.057
L745.459 361.029
L746.129 212.914
L746.798 138.857
L747.468 398.057
L748.138 249.943
L748.807 361.029
L749.477 286.971
L750.146 286.971
L750.816 175.886
L751.486 324
L752.155 138.857
L752.825 286.971
L753.494 249.943
L754.164 435.086
L754.834 361.029
L755.503 175.886
L756.173 286.971
L756.842 361.029
L757.512 324
L758.182 249.943
L758.851 324
L759.521 324
L760.19 138.857
L760.86 361.029
L761.53 324
L762.199 324
L762.869 286.971
L763.538 398.057
L764.208 175.886
L764.878 286.971
L765.547 324
L766.217 324
L766.886 435.086
L767.556 212.914
L769.565 435.086
L770.234 398.057
L770.904 249.943
L771.574 361.029
L772.243 398.057
L772.913 249.943
L773.582 324
L774.922 249.943
L775.591 435.086
L776.261 286.971
L776.93 324
L777.6 249.943
L777.6 249.943" style="fill:none;stroke:#008000;stroke-linecap:square;"/>
   </g>
   <g id="line2d_3">
    <path clip-path="url(#p7ceb695115)" d="
M108 583.2
L453.514 583.2
L454.183 546.171
L455.522 546.171
L456.192 583.2
L456.862 546.171
L457.531 546.171
L458.201 583.2
L458.87 546.171
L484.315 546.171
L484.985 583.2
L485.654 546.171
L496.368 546.171
L497.038 583.2
L497.707 546.171
L503.734 546.171
L504.403 583.2
L505.073 546.171
L511.769 546.171
L512.438 583.2
L513.108 546.171
L513.778 583.2
L514.447 546.171
L519.134 546.171
L519.804 509.143
L527.839 509.143
L528.509 546.171
L536.544 546.171
L537.214 509.143
L557.302 509.143
L557.971 546.171
L558.641 509.143
L559.31 509.143
L559.98 546.171
L560.65 509.143
L564.667 509.143
L565.337 546.171
L566.006 509.143
L568.685 509.143
L569.354 546.171
L570.024 509.143
L573.372 509.143
L574.042 546.171
L574.711 509.143
L576.72 509.143
L577.39 546.171
L578.059 546.171
L578.729 509.143
L581.407 509.143
L582.077 546.171
L582.746 509.143
L584.086 509.143
L584.755 546.171
L585.425 509.143
L592.121 509.143
L592.79 546.171
L594.13 546.171
L594.799 509.143
L595.469 509.143
L596.138 546.171
L597.478 472.114
L598.817 472.114
L599.486 509.143
L600.156 472.114
L600.826 509.143
L601.495 472.114
L602.165 472.114
L602.834 509.143
L603.504 509.143
L604.174 435.086
L604.843 472.114
L605.513 435.086
L606.182 435.086
L606.852 472.114
L607.522 435.086
L608.191 435.086
L608.861 398.057
L609.53 435.086
L610.2 398.057
L610.87 398.057
L611.539 361.029
L612.878 361.029
L613.548 398.057
L614.218 361.029
L614.887 361.029
L615.557 324
L616.226 324
L617.566 398.057
L618.235 324
L618.905 361.029
L619.574 435.086
L620.244 324
L620.914 324
L621.583 398.057
L622.253 324
L622.922 324
L623.592 398.057
L624.262 324
L624.931 361.029
L625.601 286.971
L626.27 398.057
L626.94 324
L627.61 324
L628.279 361.029
L628.949 324
L629.618 324
L630.288 286.971
L630.958 324
L631.627 286.971
L632.966 361.029
L633.636 324
L634.306 249.943
L634.975 361.029
L635.645 286.971
L636.314 286.971
L636.984 249.943
L637.654 286.971
L638.993 286.971
L639.662 324
L640.332 324
L641.002 286.971
L641.671 361.029
L642.341 324
L643.01 324
L643.68 286.971
L644.35 286.971
L645.019 249.943
L645.689 398.057
L646.358 286.971
L647.028 249.943
L648.367 324
L649.037 324
L650.376 249.943
L651.046 361.029
L651.715 361.029
L652.385 286.971
L653.724 286.971
L654.394 324
L655.063 398.057
L655.733 324
L656.402 324
L657.072 361.029
L657.742 324
L658.411 249.943
L659.081 286.971
L659.75 361.029
L660.42 361.029
L661.09 286.971
L661.759 324
L662.429 286.971
L663.098 286.971
L663.768 398.057
L664.438 324
L665.777 249.943
L666.446 324
L667.116 286.971
L667.786 286.971
L668.455 324
L669.125 324
L669.794 361.029
L670.464 361.029
L671.803 286.971
L672.473 472.114
L673.142 286.971
L674.482 361.029
L675.151 324
L675.821 398.057
L676.49 398.057
L677.16 286.971
L677.83 286.971
L678.499 361.029
L679.169 286.971
L679.838 361.029
L680.508 286.971
L681.178 249.943
L681.847 398.057
L682.517 324
L683.186 286.971
L683.856 324
L684.526 324
L685.195 361.029
L685.865 435.086
L686.534 324
L687.874 398.057
L688.543 249.943
L689.213 398.057
L689.882 361.029
L690.552 286.971
L691.222 249.943
L691.891 398.057
L692.561 324
L693.23 324
L693.9 361.029
L694.57 361.029
L695.909 286.971
L696.578 286.971
L697.248 361.029
L697.918 324
L698.587 324
L699.257 361.029
L699.926 324
L700.596 324
L701.266 435.086
L701.935 361.029
L702.605 324
L703.274 324
L703.944 398.057
L704.614 435.086
L705.283 361.029
L705.953 324
L706.622 509.143
L707.292 249.943
L707.962 361.029
L708.631 361.029
L709.301 435.086
L709.97 435.086
L710.64 324
L711.31 324
L711.979 435.086
L712.649 398.057
L713.318 435.086
L713.988 286.971
L714.658 435.086
L715.327 324
L716.666 398.057
L717.336 472.114
L718.006 324
L718.675 398.057
L719.345 249.943
L720.014 435.086
L720.684 286.971
L721.354 435.086
L722.023 361.029
L722.693 435.086
L723.362 361.029
L724.032 435.086
L724.702 361.029
L726.041 361.029
L726.71 398.057
L727.38 361.029
L728.05 286.971
L728.719 398.057
L729.389 249.943
L730.058 361.029
L730.728 286.971
L731.398 361.029
L732.067 324
L732.737 398.057
L734.076 398.057
L734.746 472.114
L735.415 435.086
L736.754 286.971
L737.424 249.943
L738.094 249.943
L738.763 398.057
L740.102 324
L740.772 435.086
L741.442 435.086
L742.111 361.029
L742.781 398.057
L743.45 398.057
L744.12 286.971
L745.459 509.143
L746.129 398.057
L746.798 398.057
L747.468 249.943
L748.138 398.057
L748.807 249.943
L749.477 361.029
L750.146 286.971
L750.816 435.086
L751.486 398.057
L752.155 398.057
L752.825 435.086
L753.494 249.943
L754.164 398.057
L754.834 398.057
L755.503 361.029
L756.173 398.057
L756.842 212.914
L757.512 398.057
L758.182 472.114
L758.851 361.029
L759.521 435.086
L760.19 435.086
L760.86 324
L762.199 398.057
L762.869 472.114
L763.538 324
L764.208 435.086
L764.878 435.086
L765.547 361.029
L766.217 472.114
L766.886 398.057
L767.556 361.029
L768.226 509.143
L768.895 361.029
L769.565 435.086
L770.234 472.114
L770.904 286.971
L771.574 361.029
L772.243 361.029
L772.913 546.171
L773.582 435.086
L774.252 472.114
L774.922 398.057
L775.591 435.086
L776.261 546.171
L776.93 472.114
L777.6 286.971
L777.6 286.971" style="fill:none;stroke:#0000ff;stroke-linecap:square;"/>
   </g>
   <g id="patch_3">
    <path d="
M777.6 583.2
L777.6 64.8" style="fill:none;stroke:#000000;stroke-linecap:square;stroke-linejoin:miter;"/>
   </g>
   <g id="patch_4">
    <path d="
M108 64.8
L777.6 64.8" style="fill:none;stroke:#000000;stroke-linecap:square;stroke-linejoin:miter;"/>
   </g>
   <g id="patch_5">
    <path d="
M108 583.2
L777.6 583.2" style="fill:none;stroke:#000000;stroke-linecap:square;stroke-linejoin:miter;"/>
   </g>
   <g id="patch_6">
    <path d="
M108 583.2
L108 64.8" style="fill:none;stroke:#000000;stroke-linecap:square;stroke-linejoin:miter;"/>
   </g>
   <g id="matplotlib.axis_1">
    <g id="xtick_1">
     <g id="line2d_4">
      <defs>
       <path d="
M0 0
L0 -4" id="mc7db9fdffb" style="stroke:#000000;stroke-width:0.5;"/>
      </defs>
      <g>
       <use style="stroke:#000000;stroke-width:0.5;" x="108.0" xlink:href="#mc7db9fdffb" y="583.2"/>
      </g>
     </g>
     <g id="line2d_5">
      <defs>
       <path d="
M0 0
L0 4" id="m5a7d422ac3" style="stroke:#000000;stroke-width:0.5;"/>
      </defs>
      <g>
       <use style="stroke:#000000;stroke-width:0.5;" x="108.0" xlink:href="#m5a7d422ac3" y="64.8"/>
      </g>
     </g>
     <g id="text_1">
      <!-- 0 -->
      <defs>
       <path d="
M31.7812 66.4062
Q24.1719 66.4062 20.3281 58.9062
Q16.5 51.4219 16.5 36.375
Q16.5 21.3906 20.3281 13.8906
Q24.1719 6.39062 31.7812 6.39062
Q39.4531 6.39062 43.2812 13.8906
Q47.125 21.3906 47.125 36.375
Q47.125 51.4219 43.2812 58.9062
Q39.4531 66.4062 31.7812 66.4062
M31.7812 74.2188
Q44.0469 74.2188 50.5156 64.5156
Q56.9844 54.8281 56.9844 36.375
Q56.9844 17.9688 50.5156 8.26562
Q44.0469 -1.42188 31.7812 -1.42188
Q19.5312 -1.42188 13.0625 8.26562
Q6.59375 17.9688 6.59375 36.375
Q6.59375 54.8281 13.0625 64.5156
Q19.5312 74.2188 31.7812 74.2188" id="BitstreamVeraSans-Roman-30"/>
      </defs>
      <g transform="translate(104.9765625 596.318125)scale(0.12 -0.12)">
       <use xlink:href="#BitstreamVeraSans-Roman-30"/>
      </g>
     </g>
    </g>
    <g id="xtick_2">
     <g id="line2d_6">
      <g>
       <use style="stroke:#000000;stroke-width:0.5;" x="275.4" xlink:href="#mc7db9fdffb" y="583.2"/>
      </g>
     </g>
     <g id="line2d_7">
      <g>
       <use style="stroke:#000000;stroke-width:0.5;" x="275.4" xlink:href="#m5a7d422ac3" y="64.8"/>
      </g>
     </g>
     <g id="text_2">
      <!-- 50000 -->
      <defs>
       <path d="
M10.7969 72.9062
L49.5156 72.9062
L49.5156 64.5938
L19.8281 64.5938
L19.8281 46.7344
Q21.9688 47.4688 24.1094 47.8281
Q26.2656 48.1875 28.4219 48.1875
Q40.625 48.1875 47.75 41.5
Q54.8906 34.8125 54.8906 23.3906
Q54.8906 11.625 47.5625 5.09375
Q40.2344 -1.42188 26.9062 -1.42188
Q22.3125 -1.42188 17.5469 -0.640625
Q12.7969 0.140625 7.71875 1.70312
L7.71875 11.625
Q12.1094 9.23438 16.7969 8.0625
Q21.4844 6.89062 26.7031 6.89062
Q35.1562 6.89062 40.0781 11.3281
Q45.0156 15.7656 45.0156 23.3906
Q45.0156 31 40.0781 35.4375
Q35.1562 39.8906 26.7031 39.8906
Q22.75 39.8906 18.8125 39.0156
Q14.8906 38.1406 10.7969 36.2812
z
" id="BitstreamVeraSans-Roman-35"/>
      </defs>
      <g transform="translate(257.1740625 596.318125)scale(0.12 -0.12)">
       <use xlink:href="#BitstreamVeraSans-Roman-35"/>
       <use x="63.623046875" xlink:href="#BitstreamVeraSans-Roman-30"/>
       <use x="127.24609375" xlink:href="#BitstreamVeraSans-Roman-30"/>
       <use x="190.869140625" xlink:href="#BitstreamVeraSans-Roman-30"/>
       <use x="254.4921875" xlink:href="#BitstreamVeraSans-Roman-30"/>
      </g>
     </g>
    </g>
    <g id="xtick_3">
     <g id="line2d_8">
      <g>
       <use style="stroke:#000000;stroke-width:0.5;" x="442.8" xlink:href="#mc7db9fdffb" y="583.2"/>
      </g>
     </g>
     <g id="line2d_9">
      <g>
       <use style="stroke:#000000;stroke-width:0.5;" x="442.8" xlink:href="#m5a7d422ac3" y="64.8"/>
      </g>
     </g>
     <g id="text_3">
      <!-- 100000 -->
      <defs>
       <path d="
M12.4062 8.29688
L28.5156 8.29688
L28.5156 63.9219
L10.9844 60.4062
L10.9844 69.3906
L28.4219 72.9062
L38.2812 72.9062
L38.2812 8.29688
L54.3906 8.29688
L54.3906 0
L12.4062 0
z
" id="BitstreamVeraSans-Roman-31"/>
      </defs>
      <g transform="translate(420.9525 596.318125)scale(0.12 -0.12)">
       <use xlink:href="#BitstreamVeraSans-Roman-31"/>
       <use x="63.623046875" xlink:href="#BitstreamVeraSans-Roman-30"/>
       <use x="127.24609375" xlink:href="#BitstreamVeraSans-Roman-30"/>
       <use x="190.869140625" xlink:href="#BitstreamVeraSans-Roman-30"/>
       <use x="254.4921875" xlink:href="#BitstreamVeraSans-Roman-30"/>
       <use x="318.115234375" xlink:href="#BitstreamVeraSans-Roman-30"/>
      </g>
     </g>
    </g>
    <g id="xtick_4">
     <g id="line2d_10">
      <g>
       <use style="stroke:#000000;stroke-width:0.5;" x="610.2" xlink:href="#mc7db9fdffb" y="583.2"/>
      </g>
     </g>
     <g id="line2d_11">
      <g>
       <use style="stroke:#000000;stroke-width:0.5;" x="610.2" xlink:href="#m5a7d422ac3" y="64.8"/>
      </g>
     </g>
     <g id="text_4">
      <!-- 150000 -->
      <g transform="translate(588.3525 596.318125)scale(0.12 -0.12)">
       <use xlink:href="#BitstreamVeraSans-Roman-31"/>
       <use x="63.623046875" xlink:href="#BitstreamVeraSans-Roman-35"/>
       <use x="127.24609375" xlink:href="#BitstreamVeraSans-Roman-30"/>
       <use x="190.869140625" xlink:href="#BitstreamVeraSans-Roman-30"/>
       <use x="254.4921875" xlink:href="#BitstreamVeraSans-Roman-30"/>
       <use x="318.115234375" xlink:href="#BitstreamVeraSans-Roman-30"/>
      </g>
     </g>
    </g>
    <g id="xtick_5">
     <g id="line2d_12">
      <g>
       <use style="stroke:#000000;stroke-width:0.5;" x="777.6" xlink:href="#mc7db9fdffb" y="583.2"/>
      </g>
     </g>
     <g id="line2d_13">
      <g>
       <use style="stroke:#000000;stroke-width:0.5;" x="777.6" xlink:href="#m5a7d422ac3" y="64.8"/>
      </g>
     </g>
     <g id="text_5">
      <!-- 200000 -->
      <defs>
       <path d="
M19.1875 8.29688
L53.6094 8.29688
L53.6094 0
L7.32812 0
L7.32812 8.29688
Q12.9375 14.1094 22.625 23.8906
Q32.3281 33.6875 34.8125 36.5312
Q39.5469 41.8438 41.4219 45.5312
Q43.3125 49.2188 43.3125 52.7812
Q43.3125 58.5938 39.2344 62.25
Q35.1562 65.9219 28.6094 65.9219
Q23.9688 65.9219 18.8125 64.3125
Q13.6719 62.7031 7.8125 59.4219
L7.8125 69.3906
Q13.7656 71.7812 18.9375 73
Q24.125 74.2188 28.4219 74.2188
Q39.75 74.2188 46.4844 68.5469
Q53.2188 62.8906 53.2188 53.4219
Q53.2188 48.9219 51.5312 44.8906
Q49.8594 40.875 45.4062 35.4062
Q44.1875 33.9844 37.6406 27.2188
Q31.1094 20.4531 19.1875 8.29688" id="BitstreamVeraSans-Roman-32"/>
      </defs>
      <g transform="translate(755.533125 596.318125)scale(0.12 -0.12)">
       <use xlink:href="#BitstreamVeraSans-Roman-32"/>
       <use x="63.623046875" xlink:href="#BitstreamVeraSans-Roman-30"/>
       <use x="127.24609375" xlink:href="#BitstreamVeraSans-Roman-30"/>
       <use x="190.869140625" xlink:href="#BitstreamVeraSans-Roman-30"/>
       <use x="254.4921875" xlink:href="#BitstreamVeraSans-Roman-30"/>
       <use x="318.115234375" xlink:href="#BitstreamVeraSans-Roman-30"/>
      </g>
     </g>
    </g>
    <g id="text_6">
     <!-- t / ms -->
     <defs>
      <path d="
M44.2812 53.0781
L44.2812 44.5781
Q40.4844 46.5312 36.375 47.5
Q32.2812 48.4844 27.875 48.4844
Q21.1875 48.4844 17.8438 46.4375
Q14.5 44.3906 14.5 40.2812
Q14.5 37.1562 16.8906 35.375
Q19.2812 33.5938 26.5156 31.9844
L29.5938 31.2969
Q39.1562 29.25 43.1875 25.5156
Q47.2188 21.7812 47.2188 15.0938
Q47.2188 7.46875 41.1875 3.01562
Q35.1562 -1.42188 24.6094 -1.42188
Q20.2188 -1.42188 15.4531 -0.5625
Q10.6875 0.296875 5.42188 2
L5.42188 11.2812
Q10.4062 8.6875 15.2344 7.39062
Q20.0625 6.10938 24.8125 6.10938
Q31.1562 6.10938 34.5625 8.28125
Q37.9844 10.4531 37.9844 14.4062
Q37.9844 18.0625 35.5156 20.0156
Q33.0625 21.9688 24.7031 23.7812
L21.5781 24.5156
Q13.2344 26.2656 9.51562 29.9062
Q5.8125 33.5469 5.8125 39.8906
Q5.8125 47.6094 11.2812 51.7969
Q16.75 56 26.8125 56
Q31.7812 56 36.1719 55.2656
Q40.5781 54.5469 44.2812 53.0781" id="BitstreamVeraSans-Roman-73"/>
      <path id="BitstreamVeraSans-Roman-20"/>
      <path d="
M18.3125 70.2188
L18.3125 54.6875
L36.8125 54.6875
L36.8125 47.7031
L18.3125 47.7031
L18.3125 18.0156
Q18.3125 11.3281 20.1406 9.42188
Q21.9688 7.51562 27.5938 7.51562
L36.8125 7.51562
L36.8125 0
L27.5938 0
Q17.1875 0 13.2344 3.875
Q9.28125 7.76562 9.28125 18.0156
L9.28125 47.7031
L2.6875 47.7031
L2.6875 54.6875
L9.28125 54.6875
L9.28125 70.2188
z
" id="BitstreamVeraSans-Roman-74"/>
      <path d="
M52 44.1875
Q55.375 50.25 60.0625 53.125
Q64.75 56 71.0938 56
Q79.6406 56 84.2812 50.0156
Q88.9219 44.0469 88.9219 33.0156
L88.9219 0
L79.8906 0
L79.8906 32.7188
Q79.8906 40.5781 77.0938 44.375
Q74.3125 48.1875 68.6094 48.1875
Q61.625 48.1875 57.5625 43.5469
Q53.5156 38.9219 53.5156 30.9062
L53.5156 0
L44.4844 0
L44.4844 32.7188
Q44.4844 40.625 41.7031 44.4062
Q38.9219 48.1875 33.1094 48.1875
Q26.2188 48.1875 22.1562 43.5312
Q18.1094 38.875 18.1094 30.9062
L18.1094 0
L9.07812 0
L9.07812 54.6875
L18.1094 54.6875
L18.1094 46.1875
Q21.1875 51.2188 25.4844 53.6094
Q29.7812 56 35.6875 56
Q41.6562 56 45.8281 52.9688
Q50 49.9531 52 44.1875" id="BitstreamVeraSans-Roman-6d"/>
      <path d="
M25.3906 72.9062
L33.6875 72.9062
L8.29688 -9.28125
L0 -9.28125
z
" id="BitstreamVeraSans-Roman-2f"/>
     </defs>
     <g transform="translate(425.9353125 612.931875)scale(0.12 -0.12)">
      <use xlink:href="#BitstreamVeraSans-Roman-74"/>
      <use x="39.208984375" xlink:href="#BitstreamVeraSans-Roman-20"/>
      <use x="70.99609375" xlink:href="#BitstreamVeraSans-Roman-2f"/>
      <use x="104.6875" xlink:href="#BitstreamVeraSans-Roman-20"/>
      <use x="136.474609375" xlink:href="#BitstreamVeraSans-Roman-6d"/>
      <use x="233.88671875" xlink:href="#BitstreamVeraSans-Roman-73"/>
     </g>
    </g>
   </g>
   <g id="matplotlib.axis_2">
    <g id="ytick_1">
     <g id="line2d_14">
      <defs>
       <path d="
M0 0
L4 0" id="md7965d1ba0" style="stroke:#000000;stroke-width:0.5;"/>
      </defs>
      <g>
       <use style="stroke:#000000;stroke-width:0.5;" x="108.0" xlink:href="#md7965d1ba0" y="583.2"/>
      </g>
     </g>
     <g id="line2d_15">
      <defs>
       <path d="
M0 0
L-4 0" id="md9a1c1a7cd" style="stroke:#000000;stroke-width:0.5;"/>
      </defs>
      <g>
       <use style="stroke:#000000;stroke-width:0.5;" x="777.6" xlink:href="#md9a1c1a7cd" y="583.2"/>
      </g>
     </g>
     <g id="text_7">
      <!-- 0 -->
      <g transform="translate(97.953125 586.51125)scale(0.12 -0.12)">
       <use xlink:href="#BitstreamVeraSans-Roman-30"/>
      </g>
     </g>
    </g>
    <g id="ytick_2">
     <g id="line2d_16">
      <g>
       <use style="stroke:#000000;stroke-width:0.5;" x="108.0" xlink:href="#md7965d1ba0" y="509.142857143"/>
      </g>
     </g>
     <g id="line2d_17">
      <g>
       <use style="stroke:#000000;stroke-width:0.5;" x="777.6" xlink:href="#md9a1c1a7cd" y="509.142857143"/>
      </g>
     </g>
     <g id="text_8">
      <!-- 2 -->
      <g transform="translate(98.44625 512.454107143)scale(0.12 -0.12)">
       <use xlink:href="#BitstreamVeraSans-Roman-32"/>
      </g>
     </g>
    </g>
    <g id="ytick_3">
     <g id="line2d_18">
      <g>
       <use style="stroke:#000000;stroke-width:0.5;" x="108.0" xlink:href="#md7965d1ba0" y="435.085714286"/>
      </g>
     </g>
     <g id="line2d_19">
      <g>
       <use style="stroke:#000000;stroke-width:0.5;" x="777.6" xlink:href="#md9a1c1a7cd" y="435.085714286"/>
      </g>
     </g>
     <g id="text_9">
      <!-- 4 -->
      <defs>
       <path d="
M37.7969 64.3125
L12.8906 25.3906
L37.7969 25.3906
z

M35.2031 72.9062
L47.6094 72.9062
L47.6094 25.3906
L58.0156 25.3906
L58.0156 17.1875
L47.6094 17.1875
L47.6094 0
L37.7969 0
L37.7969 17.1875
L4.89062 17.1875
L4.89062 26.7031
z
" id="BitstreamVeraSans-Roman-34"/>
      </defs>
      <g transform="translate(97.625 438.396964286)scale(0.12 -0.12)">
       <use xlink:href="#BitstreamVeraSans-Roman-34"/>
      </g>
     </g>
    </g>
    <g id="ytick_4">
     <g id="line2d_20">
      <g>
       <use style="stroke:#000000;stroke-width:0.5;" x="108.0" xlink:href="#md7965d1ba0" y="361.028571429"/>
      </g>
     </g>
     <g id="line2d_21">
      <g>
       <use style="stroke:#000000;stroke-width:0.5;" x="777.6" xlink:href="#md9a1c1a7cd" y="361.028571429"/>
      </g>
     </g>
     <g id="text_10">
      <!-- 6 -->
      <defs>
       <path d="
M33.0156 40.375
Q26.375 40.375 22.4844 35.8281
Q18.6094 31.2969 18.6094 23.3906
Q18.6094 15.5312 22.4844 10.9531
Q26.375 6.39062 33.0156 6.39062
Q39.6562 6.39062 43.5312 10.9531
Q47.4062 15.5312 47.4062 23.3906
Q47.4062 31.2969 43.5312 35.8281
Q39.6562 40.375 33.0156 40.375
M52.5938 71.2969
L52.5938 62.3125
Q48.875 64.0625 45.0938 64.9844
Q41.3125 65.9219 37.5938 65.9219
Q27.8281 65.9219 22.6719 59.3281
Q17.5312 52.7344 16.7969 39.4062
Q19.6719 43.6562 24.0156 45.9219
Q28.375 48.1875 33.5938 48.1875
Q44.5781 48.1875 50.9531 41.5156
Q57.3281 34.8594 57.3281 23.3906
Q57.3281 12.1562 50.6875 5.35938
Q44.0469 -1.42188 33.0156 -1.42188
Q20.3594 -1.42188 13.6719 8.26562
Q6.98438 17.9688 6.98438 36.375
Q6.98438 53.6562 15.1875 63.9375
Q23.3906 74.2188 37.2031 74.2188
Q40.9219 74.2188 44.7031 73.4844
Q48.4844 72.75 52.5938 71.2969" id="BitstreamVeraSans-Roman-36"/>
      </defs>
      <g transform="translate(97.95875 364.339821429)scale(0.12 -0.12)">
       <use xlink:href="#BitstreamVeraSans-Roman-36"/>
      </g>
     </g>
    </g>
    <g id="ytick_5">
     <g id="line2d_22">
      <g>
       <use style="stroke:#000000;stroke-width:0.5;" x="108.0" xlink:href="#md7965d1ba0" y="286.971428571"/>
      </g>
     </g>
     <g id="line2d_23">
      <g>
       <use style="stroke:#000000;stroke-width:0.5;" x="777.6" xlink:href="#md9a1c1a7cd" y="286.971428571"/>
      </g>
     </g>
     <g id="text_11">
      <!-- 8 -->
      <defs>
       <path d="
M31.7812 34.625
Q24.75 34.625 20.7188 30.8594
Q16.7031 27.0938 16.7031 20.5156
Q16.7031 13.9219 20.7188 10.1562
Q24.75 6.39062 31.7812 6.39062
Q38.8125 6.39062 42.8594 10.1719
Q46.9219 13.9688 46.9219 20.5156
Q46.9219 27.0938 42.8906 30.8594
Q38.875 34.625 31.7812 34.625
M21.9219 38.8125
Q15.5781 40.375 12.0312 44.7188
Q8.5 49.0781 8.5 55.3281
Q8.5 64.0625 14.7188 69.1406
Q20.9531 74.2188 31.7812 74.2188
Q42.6719 74.2188 48.875 69.1406
Q55.0781 64.0625 55.0781 55.3281
Q55.0781 49.0781 51.5312 44.7188
Q48 40.375 41.7031 38.8125
Q48.8281 37.1562 52.7969 32.3125
Q56.7812 27.4844 56.7812 20.5156
Q56.7812 9.90625 50.3125 4.23438
Q43.8438 -1.42188 31.7812 -1.42188
Q19.7344 -1.42188 13.25 4.23438
Q6.78125 9.90625 6.78125 20.5156
Q6.78125 27.4844 10.7812 32.3125
Q14.7969 37.1562 21.9219 38.8125
M18.3125 54.3906
Q18.3125 48.7344 21.8438 45.5625
Q25.3906 42.3906 31.7812 42.3906
Q38.1406 42.3906 41.7188 45.5625
Q45.3125 48.7344 45.3125 54.3906
Q45.3125 60.0625 41.7188 63.2344
Q38.1406 66.4062 31.7812 66.4062
Q25.3906 66.4062 21.8438 63.2344
Q18.3125 60.0625 18.3125 54.3906" id="BitstreamVeraSans-Roman-38"/>
      </defs>
      <g transform="translate(98.0 290.282678571)scale(0.12 -0.12)">
       <use xlink:href="#BitstreamVeraSans-Roman-38"/>
      </g>
     </g>
    </g>
    <g id="ytick_6">
     <g id="line2d_24">
      <g>
       <use style="stroke:#000000;stroke-width:0.5;" x="108.0" xlink:href="#md7965d1ba0" y="212.914285714"/>
      </g>
     </g>
     <g id="line2d_25">
      <g>
       <use style="stroke:#000000;stroke-width:0.5;" x="777.6" xlink:href="#md9a1c1a7cd" y="212.914285714"/>
      </g>
     </g>
     <g id="text_12">
      <!-- 10 -->
      <g transform="translate(90.845 216.225535714)scale(0.12 -0.12)">
       <use xlink:href="#BitstreamVeraSans-Roman-31"/>
       <use x="63.623046875" xlink:href="#BitstreamVeraSans-Roman-30"/>
      </g>
     </g>
    </g>
    <g id="ytick_7">
     <g id="line2d_26">
      <g>
       <use style="stroke:#000000;stroke-width:0.5;" x="108.0" xlink:href="#md7965d1ba0" y="138.857142857"/>
      </g>
     </g>
     <g id="line2d_27">
      <g>
       <use style="stroke:#000000;stroke-width:0.5;" x="777.6" xlink:href="#md9a1c1a7cd" y="138.857142857"/>
      </g>
     </g>
     <g id="text_13">
      <!-- 12 -->
      <g transform="translate(91.25 142.168392857)scale(0.12 -0.12)">
       <use xlink:href="#BitstreamVeraSans-Roman-31"/>
       <use x="63.623046875" xlink:href="#BitstreamVeraSans-Roman-32"/>
      </g>
     </g>
    </g>
    <g id="ytick_8">
     <g id="line2d_28">
      <g>
       <use style="stroke:#000000;stroke-width:0.5;" x="108.0" xlink:href="#md7965d1ba0" y="64.8"/>
      </g>
     </g>
     <g id="line2d_29">
      <g>
       <use style="stroke:#000000;stroke-width:0.5;" x="777.6" xlink:href="#md9a1c1a7cd" y="64.8"/>
      </g>
     </g>
     <g id="text_14">
      <!-- 14 -->
      <g transform="translate(90.72125 68.11125)scale(0.12 -0.12)">
       <use xlink:href="#BitstreamVeraSans-Roman-31"/>
       <use x="63.623046875" xlink:href="#BitstreamVeraSans-Roman-34"/>
      </g>
     </g>
    </g>
    <g id="text_15">
     <!-- particle numbers -->
     <defs>
      <path d="
M34.2812 27.4844
Q23.3906 27.4844 19.1875 25
Q14.9844 22.5156 14.9844 16.5
Q14.9844 11.7188 18.1406 8.90625
Q21.2969 6.10938 26.7031 6.10938
Q34.1875 6.10938 38.7031 11.4062
Q43.2188 16.7031 43.2188 25.4844
L43.2188 27.4844
z

M52.2031 31.2031
L52.2031 0
L43.2188 0
L43.2188 8.29688
Q40.1406 3.32812 35.5469 0.953125
Q30.9531 -1.42188 24.3125 -1.42188
Q15.9219 -1.42188 10.9531 3.29688
Q6 8.01562 6 15.9219
Q6 25.1406 12.1719 29.8281
Q18.3594 34.5156 30.6094 34.5156
L43.2188 34.5156
L43.2188 35.4062
Q43.2188 41.6094 39.1406 45
Q35.0625 48.3906 27.6875 48.3906
Q23 48.3906 18.5469 47.2656
Q14.1094 46.1406 10.0156 43.8906
L10.0156 52.2031
Q14.9375 54.1094 19.5781 55.0469
Q24.2188 56 28.6094 56
Q40.4844 56 46.3438 49.8438
Q52.2031 43.7031 52.2031 31.2031" id="BitstreamVeraSans-Roman-61"/>
      <path d="
M8.5 21.5781
L8.5 54.6875
L17.4844 54.6875
L17.4844 21.9219
Q17.4844 14.1562 20.5 10.2656
Q23.5312 6.39062 29.5938 6.39062
Q36.8594 6.39062 41.0781 11.0312
Q45.3125 15.6719 45.3125 23.6875
L45.3125 54.6875
L54.2969 54.6875
L54.2969 0
L45.3125 0
L45.3125 8.40625
Q42.0469 3.42188 37.7188 1
Q33.4062 -1.42188 27.6875 -1.42188
Q18.2656 -1.42188 13.375 4.4375
Q8.5 10.2969 8.5 21.5781" id="BitstreamVeraSans-Roman-75"/>
      <path d="
M54.8906 33.0156
L54.8906 0
L45.9062 0
L45.9062 32.7188
Q45.9062 40.4844 42.875 44.3281
Q39.8438 48.1875 33.7969 48.1875
Q26.5156 48.1875 22.3125 43.5469
Q18.1094 38.9219 18.1094 30.9062
L18.1094 0
L9.07812 0
L9.07812 54.6875
L18.1094 54.6875
L18.1094 46.1875
Q21.3438 51.125 25.7031 53.5625
Q30.0781 56 35.7969 56
Q45.2188 56 50.0469 50.1719
Q54.8906 44.3438 54.8906 33.0156" id="BitstreamVeraSans-Roman-6e"/>
      <path d="
M56.2031 29.5938
L56.2031 25.2031
L14.8906 25.2031
Q15.4844 15.9219 20.4844 11.0625
Q25.4844 6.20312 34.4219 6.20312
Q39.5938 6.20312 44.4531 7.46875
Q49.3125 8.73438 54.1094 11.2812
L54.1094 2.78125
Q49.2656 0.734375 44.1875 -0.34375
Q39.1094 -1.42188 33.8906 -1.42188
Q20.7969 -1.42188 13.1562 6.1875
Q5.51562 13.8125 5.51562 26.8125
Q5.51562 40.2344 12.7656 48.1094
Q20.0156 56 32.3281 56
Q43.3594 56 49.7812 48.8906
Q56.2031 41.7969 56.2031 29.5938
M47.2188 32.2344
Q47.125 39.5938 43.0938 43.9844
Q39.0625 48.3906 32.4219 48.3906
Q24.9062 48.3906 20.3906 44.1406
Q15.875 39.8906 15.1875 32.1719
z
" id="BitstreamVeraSans-Roman-65"/>
      <path d="
M9.42188 54.6875
L18.4062 54.6875
L18.4062 0
L9.42188 0
z

M9.42188 75.9844
L18.4062 75.9844
L18.4062 64.5938
L9.42188 64.5938
z
" id="BitstreamVeraSans-Roman-69"/>
      <path d="
M48.7812 52.5938
L48.7812 44.1875
Q44.9688 46.2969 41.1406 47.3438
Q37.3125 48.3906 33.4062 48.3906
Q24.6562 48.3906 19.8125 42.8438
Q14.9844 37.3125 14.9844 27.2969
Q14.9844 17.2812 19.8125 11.7344
Q24.6562 6.20312 33.4062 6.20312
Q37.3125 6.20312 41.1406 7.25
Q44.9688 8.29688 48.7812 10.4062
L48.7812 2.09375
Q45.0156 0.34375 40.9844 -0.53125
Q36.9688 -1.42188 32.4219 -1.42188
Q20.0625 -1.42188 12.7812 6.34375
Q5.51562 14.1094 5.51562 27.2969
Q5.51562 40.6719 12.8594 48.3281
Q20.2188 56 33.0156 56
Q37.1562 56 41.1094 55.1406
Q45.0625 54.2969 48.7812 52.5938" id="BitstreamVeraSans-Roman-63"/>
      <path d="
M18.1094 8.20312
L18.1094 -20.7969
L9.07812 -20.7969
L9.07812 54.6875
L18.1094 54.6875
L18.1094 46.3906
Q20.9531 51.2656 25.2656 53.625
Q29.5938 56 35.5938 56
Q45.5625 56 51.7812 48.0938
Q58.0156 40.1875 58.0156 27.2969
Q58.0156 14.4062 51.7812 6.48438
Q45.5625 -1.42188 35.5938 -1.42188
Q29.5938 -1.42188 25.2656 0.953125
Q20.9531 3.32812 18.1094 8.20312
M48.6875 27.2969
Q48.6875 37.2031 44.6094 42.8438
Q40.5312 48.4844 33.4062 48.4844
Q26.2656 48.4844 22.1875 42.8438
Q18.1094 37.2031 18.1094 27.2969
Q18.1094 17.3906 22.1875 11.75
Q26.2656 6.10938 33.4062 6.10938
Q40.5312 6.10938 44.6094 11.75
Q48.6875 17.3906 48.6875 27.2969" id="BitstreamVeraSans-Roman-70"/>
      <path d="
M41.1094 46.2969
Q39.5938 47.1719 37.8125 47.5781
Q36.0312 48 33.8906 48
Q26.2656 48 22.1875 43.0469
Q18.1094 38.0938 18.1094 28.8125
L18.1094 0
L9.07812 0
L9.07812 54.6875
L18.1094 54.6875
L18.1094 46.1875
Q20.9531 51.1719 25.4844 53.5781
Q30.0312 56 36.5312 56
Q37.4531 56 38.5781 55.875
Q39.7031 55.7656 41.0625 55.5156
z
" id="BitstreamVeraSans-Roman-72"/>
      <path d="
M9.42188 75.9844
L18.4062 75.9844
L18.4062 0
L9.42188 0
z
" id="BitstreamVeraSans-Roman-6c"/>
      <path d="
M48.6875 27.2969
Q48.6875 37.2031 44.6094 42.8438
Q40.5312 48.4844 33.4062 48.4844
Q26.2656 48.4844 22.1875 42.8438
Q18.1094 37.2031 18.1094 27.2969
Q18.1094 17.3906 22.1875 11.75
Q26.2656 6.10938 33.4062 6.10938
Q40.5312 6.10938 44.6094 11.75
Q48.6875 17.3906 48.6875 27.2969
M18.1094 46.3906
Q20.9531 51.2656 25.2656 53.625
Q29.5938 56 35.5938 56
Q45.5625 56 51.7812 48.0938
Q58.0156 40.1875 58.0156 27.2969
Q58.0156 14.4062 51.7812 6.48438
Q45.5625 -1.42188 35.5938 -1.42188
Q29.5938 -1.42188 25.2656 0.953125
Q20.9531 3.32812 18.1094 8.20312
L18.1094 0
L9.07812 0
L9.07812 75.9844
L18.1094 75.9844
z
" id="BitstreamVeraSans-Roman-62"/>
     </defs>
     <g transform="translate(83.225625 374.78625)rotate(-90.0)scale(0.12 -0.12)">
      <use xlink:href="#BitstreamVeraSans-Roman-70"/>
      <use x="63.4765625" xlink:href="#BitstreamVeraSans-Roman-61"/>
      <use x="124.755859375" xlink:href="#BitstreamVeraSans-Roman-72"/>
      <use x="165.869140625" xlink:href="#BitstreamVeraSans-Roman-74"/>
      <use x="205.078125" xlink:href="#BitstreamVeraSans-Roman-69"/>
      <use x="232.861328125" xlink:href="#BitstreamVeraSans-Roman-63"/>
      <use x="287.841796875" xlink:href="#BitstreamVeraSans-Roman-6c"/>
      <use x="315.625" xlink:href="#BitstreamVeraSans-Roman-65"/>
      <use x="377.1484375" xlink:href="#BitstreamVeraSans-Roman-20"/>
      <use x="408.935546875" xlink:href="#BitstreamVeraSans-Roman-6e"/>
      <use x="472.314453125" xlink:href="#BitstreamVeraSans-Roman-75"/>
      <use x="535.693359375" xlink:href="#BitstreamVeraSans-Roman-6d"/>
      <use x="633.10546875" xlink:href="#BitstreamVeraSans-Roman-62"/>
      <use x="696.58203125" xlink:href="#BitstreamVeraSans-Roman-65"/>
      <use x="758.10546875" xlink:href="#BitstreamVeraSans-Roman-72"/>
      <use x="799.21875" xlink:href="#BitstreamVeraSans-Roman-73"/>
     </g>
    </g>
   </g>
   <g id="legend_1">
    <g id="patch_7">
     <path d="
M687.927 101.224
L774.1 101.224
L774.1 68.3
L687.927 68.3
z
" style="fill:#ffffff;stroke:#000000;stroke-linejoin:miter;"/>
    </g>
    <g id="line2d_30">
     <path d="
M692.827 73.9689
L702.627 73.9689" style="fill:none;stroke:#ff0000;stroke-linecap:square;"/>
    </g>
    <g id="line2d_31"/>
    <g id="text_16">
     <!-- pPDE10cAMP el.0 -->
     <defs>
      <path d="
M9.8125 72.9062
L24.5156 72.9062
L43.1094 23.2969
L61.8125 72.9062
L76.5156 72.9062
L76.5156 0
L66.8906 0
L66.8906 64.0156
L48.0938 14.0156
L38.1875 14.0156
L19.3906 64.0156
L19.3906 0
L9.8125 0
z
" id="BitstreamVeraSans-Roman-4d"/>
      <path d="
M19.6719 64.7969
L19.6719 8.10938
L31.5938 8.10938
Q46.6875 8.10938 53.6875 14.9375
Q60.6875 21.7812 60.6875 36.5312
Q60.6875 51.1719 53.6875 57.9844
Q46.6875 64.7969 31.5938 64.7969
z

M9.8125 72.9062
L30.0781 72.9062
Q51.2656 72.9062 61.1719 64.0938
Q71.0938 55.2812 71.0938 36.5312
Q71.0938 17.6719 61.125 8.82812
Q51.1719 0 30.0781 0
L9.8125 0
z
" id="BitstreamVeraSans-Roman-44"/>
      <path d="
M19.6719 64.7969
L19.6719 37.4062
L32.0781 37.4062
Q38.9688 37.4062 42.7188 40.9688
Q46.4844 44.5312 46.4844 51.125
Q46.4844 57.6719 42.7188 61.2344
Q38.9688 64.7969 32.0781 64.7969
z

M9.8125 72.9062
L32.0781 72.9062
Q44.3438 72.9062 50.6094 67.3594
Q56.8906 61.8125 56.8906 51.125
Q56.8906 40.3281 50.6094 34.8125
Q44.3438 29.2969 32.0781 29.2969
L19.6719 29.2969
L19.6719 0
L9.8125 0
z
" id="BitstreamVeraSans-Roman-50"/>
      <path d="
M34.1875 63.1875
L20.7969 26.9062
L47.6094 26.9062
z

M28.6094 72.9062
L39.7969 72.9062
L67.5781 0
L57.3281 0
L50.6875 18.7031
L17.8281 18.7031
L11.1875 0
L0.78125 0
z
" id="BitstreamVeraSans-Roman-41"/>
      <path d="
M10.6875 12.4062
L21 12.4062
L21 0
L10.6875 0
z
" id="BitstreamVeraSans-Roman-2e"/>
      <path d="
M9.8125 72.9062
L55.9062 72.9062
L55.9062 64.5938
L19.6719 64.5938
L19.6719 43.0156
L54.3906 43.0156
L54.3906 34.7188
L19.6719 34.7188
L19.6719 8.29688
L56.7812 8.29688
L56.7812 0
L9.8125 0
z
" id="BitstreamVeraSans-Roman-45"/>
     </defs>
     <g transform="translate(710.32671875 76.41890625)scale(0.07 -0.07)">
      <use xlink:href="#BitstreamVeraSans-Roman-70"/>
      <use x="63.4765625" xlink:href="#BitstreamVeraSans-Roman-50"/>
      <use x="123.779296875" xlink:href="#BitstreamVeraSans-Roman-44"/>
      <use x="200.78125" xlink:href="#BitstreamVeraSans-Roman-45"/>
      <use x="263.96484375" xlink:href="#BitstreamVeraSans-Roman-31"/>
      <use x="327.587890625" xlink:href="#BitstreamVeraSans-Roman-30"/>
      <use x="391.2109375" xlink:href="#BitstreamVeraSans-Roman-63"/>
      <use x="446.19140625" xlink:href="#BitstreamVeraSans-Roman-41"/>
      <use x="514.599609375" xlink:href="#BitstreamVeraSans-Roman-4d"/>
      <use x="600.87890625" xlink:href="#BitstreamVeraSans-Roman-50"/>
      <use x="661.181640625" xlink:href="#BitstreamVeraSans-Roman-20"/>
      <use x="692.96875" xlink:href="#BitstreamVeraSans-Roman-65"/>
      <use x="754.4921875" xlink:href="#BitstreamVeraSans-Roman-6c"/>
      <use x="782.275390625" xlink:href="#BitstreamVeraSans-Roman-2e"/>
      <use x="814.0625" xlink:href="#BitstreamVeraSans-Roman-30"/>
     </g>
    </g>
    <g id="line2d_32">
     <path d="
M692.827 84.2436
L702.627 84.2436" style="fill:none;stroke:#008000;stroke-linecap:square;"/>
    </g>
    <g id="line2d_33"/>
    <g id="text_17">
     <!-- pPDE10cAMP el.1 -->
     <g transform="translate(710.32671875 86.69359375)scale(0.07 -0.07)">
      <use xlink:href="#BitstreamVeraSans-Roman-70"/>
      <use x="63.4765625" xlink:href="#BitstreamVeraSans-Roman-50"/>
      <use x="123.779296875" xlink:href="#BitstreamVeraSans-Roman-44"/>
      <use x="200.78125" xlink:href="#BitstreamVeraSans-Roman-45"/>
      <use x="263.96484375" xlink:href="#BitstreamVeraSans-Roman-31"/>
      <use x="327.587890625" xlink:href="#BitstreamVeraSans-Roman-30"/>
      <use x="391.2109375" xlink:href="#BitstreamVeraSans-Roman-63"/>
      <use x="446.19140625" xlink:href="#BitstreamVeraSans-Roman-41"/>
      <use x="514.599609375" xlink:href="#BitstreamVeraSans-Roman-4d"/>
      <use x="600.87890625" xlink:href="#BitstreamVeraSans-Roman-50"/>
      <use x="661.181640625" xlink:href="#BitstreamVeraSans-Roman-20"/>
      <use x="692.96875" xlink:href="#BitstreamVeraSans-Roman-65"/>
      <use x="754.4921875" xlink:href="#BitstreamVeraSans-Roman-6c"/>
      <use x="782.275390625" xlink:href="#BitstreamVeraSans-Roman-2e"/>
      <use x="814.0625" xlink:href="#BitstreamVeraSans-Roman-31"/>
     </g>
    </g>
    <g id="line2d_34">
     <path d="
M692.827 94.5183
L702.627 94.5183" style="fill:none;stroke:#0000ff;stroke-linecap:square;"/>
    </g>
    <g id="line2d_35"/>
    <g id="text_18">
     <!-- pPDE10cAMP el.2 -->
     <g transform="translate(710.32671875 96.96828125)scale(0.07 -0.07)">
      <use xlink:href="#BitstreamVeraSans-Roman-70"/>
      <use x="63.4765625" xlink:href="#BitstreamVeraSans-Roman-50"/>
      <use x="123.779296875" xlink:href="#BitstreamVeraSans-Roman-44"/>
      <use x="200.78125" xlink:href="#BitstreamVeraSans-Roman-45"/>
      <use x="263.96484375" xlink:href="#BitstreamVeraSans-Roman-31"/>
      <use x="327.587890625" xlink:href="#BitstreamVeraSans-Roman-30"/>
      <use x="391.2109375" xlink:href="#BitstreamVeraSans-Roman-63"/>
      <use x="446.19140625" xlink:href="#BitstreamVeraSans-Roman-41"/>
      <use x="514.599609375" xlink:href="#BitstreamVeraSans-Roman-4d"/>
      <use x="600.87890625" xlink:href="#BitstreamVeraSans-Roman-50"/>
      <use x="661.181640625" xlink:href="#BitstreamVeraSans-Roman-20"/>
      <use x="692.96875" xlink:href="#BitstreamVeraSans-Roman-65"/>
      <use x="754.4921875" xlink:href="#BitstreamVeraSans-Roman-6c"/>
      <use x="782.275390625" xlink:href="#BitstreamVeraSans-Roman-2e"/>
      <use x="814.0625" xlink:href="#BitstreamVeraSans-Roman-32"/>
     </g>
    </g>
   </g>
  </g>
 </g>
 <defs>
  <clipPath id="p7ceb695115">
   <rect height="518.4" width="669.6" x="108.0" y="64.8"/>
  </clipPath>
 </defs>
</svg>
