<?xml version="1.0" encoding="utf-8" standalone="no"?>
<!DOCTYPE svg PUBLIC "-//W3C//DTD SVG 1.1//EN"
  "http://www.w3.org/Graphics/SVG/1.1/DTD/svg11.dtd">
<!-- Created with matplotlib (http://matplotlib.org/) -->
<svg height="648pt" version="1.1" viewBox="0 0 864 648" width="864pt" xmlns="http://www.w3.org/2000/svg" xmlns:xlink="http://www.w3.org/1999/xlink">
 <defs>
  <style type="text/css">
*{stroke-linecap:butt;stroke-linejoin:round;}
  </style>
 </defs>
 <g id="figure_1">
  <g id="patch_1">
   <path d="
M0 648
L864 648
L864 0
L0 0
z
" style="fill:#ffffff;"/>
  </g>
  <g id="axes_1">
   <g id="patch_2">
    <path d="
M108 583.2
L777.6 583.2
L777.6 64.8
L108 64.8
z
" style="fill:#ffffff;"/>
   </g>
   <g id="line2d_1">
    <path clip-path="url(#p7ceb695115)" d="
M108 582.595
L108.67 583.085
L110.009 583.056
L110.678 583.142
L112.687 583.027
L113.357 583.114
L114.696 582.912
L115.366 583.114
L116.035 583.056
L116.705 582.883
L117.374 582.97
L119.383 582.883
L120.053 582.883
L120.722 583.027
L122.062 582.739
L122.731 582.624
L123.401 583.027
L124.74 582.883
L125.41 582.48
L126.079 582.797
L128.758 582.653
L129.427 582.854
L130.097 582.768
L130.766 582.912
L132.106 582.883
L132.775 582.739
L133.445 582.883
L134.114 582.739
L135.454 583.085
L136.123 582.682
L137.462 582.998
L138.802 582.797
L140.141 582.998
L141.48 582.912
L142.15 582.71
L142.819 582.941
L143.489 582.998
L144.158 582.826
L144.828 582.941
L145.498 582.71
L146.167 582.998
L146.837 582.797
L148.176 582.768
L148.846 582.912
L149.515 582.768
L150.185 582.826
L150.854 582.653
L151.524 582.883
L152.194 582.97
L152.863 582.71
L153.533 582.883
L154.202 582.71
L155.542 582.941
L156.211 583.027
L156.881 582.71
L157.55 582.912
L158.22 582.797
L158.89 582.797
L159.559 582.653
L161.568 582.826
L162.238 582.854
L162.907 582.998
L163.577 582.998
L164.246 582.854
L164.916 582.912
L165.586 582.826
L166.255 582.883
L167.594 582.768
L168.264 582.912
L168.934 582.826
L170.942 582.883
L171.612 582.826
L172.282 582.912
L173.621 582.624
L174.29 582.941
L176.299 582.854
L177.638 582.883
L178.978 582.768
L179.647 582.912
L180.317 582.883
L180.986 582.739
L182.326 582.912
L182.995 582.768
L183.665 582.97
L184.334 582.998
L185.674 582.912
L186.343 582.883
L187.682 583.142
L188.352 582.854
L189.691 582.71
L190.361 582.912
L191.03 582.797
L191.7 583.114
L193.039 582.854
L193.709 582.912
L195.048 582.768
L196.387 582.97
L197.057 582.97
L197.726 582.71
L198.396 582.941
L199.066 582.854
L200.405 582.941
L201.074 582.854
L201.744 582.97
L203.083 582.912
L207.77 582.826
L208.44 583.027
L209.11 583.085
L209.779 582.71
L210.449 582.998
L211.118 583.114
L212.458 582.912
L213.797 582.912
L214.466 583.056
L215.136 583.027
L215.806 582.883
L216.475 582.97
L219.154 582.912
L219.823 583.085
L220.493 582.998
L222.502 583.056
L223.841 582.912
L225.18 582.826
L225.85 582.998
L227.189 583.114
L227.858 582.854
L229.867 583.027
L230.537 583.114
L231.206 582.912
L231.876 583.056
L232.546 582.854
L233.885 582.826
L234.554 583.085
L235.894 582.912
L236.563 583.027
L241.92 582.998
L242.59 582.912
L243.259 582.941
L244.598 582.854
L245.268 583.027
L245.938 582.883
L246.607 583.027
L247.946 583.027
L248.616 583.085
L249.286 582.768
L249.955 582.97
L250.625 582.883
L251.964 583.085
L252.634 582.941
L253.303 583.056
L255.312 582.97
L255.982 582.826
L256.651 583.056
L257.321 582.97
L257.99 582.739
L258.66 582.998
L259.999 583.027
L266.695 582.97
L267.365 582.826
L268.034 582.883
L268.704 583.085
L269.374 582.998
L270.043 583.114
L270.713 582.97
L271.382 583.027
L272.052 582.941
L272.722 583.056
L273.391 582.826
L274.061 583.056
L275.4 583.027
L276.07 582.826
L276.739 583.085
L277.409 582.854
L278.078 583.056
L280.757 583.085
L281.426 583.056
L282.096 582.826
L282.766 582.97
L288.122 583.114
L288.792 582.941
L290.801 583.056
L291.47 582.941
L292.14 583.085
L292.81 582.97
L297.497 583.085
L299.506 583.056
L301.514 583.056
L304.862 582.97
L305.532 583.171
L308.21 583.027
L309.55 582.97
L310.219 583.114
L324.281 583.142
L324.95 582.97
L325.62 583.056
L326.29 582.941
L328.298 583.142
L329.638 583.027
L330.977 583.085
L334.994 583.114
L335.664 583.2
L336.334 583.171
L337.003 583.027
L337.673 583.085
L338.342 583.027
L339.682 583.056
L340.351 582.998
L341.69 583.085
L342.36 582.97
L343.03 583.171
L343.699 583.171
L344.369 583.056
L345.708 583.142
L346.378 583.027
L347.717 583.171
L348.386 583.027
L349.056 583.056
L349.726 582.941
L350.395 583.114
L351.065 582.883
L353.743 583.142
L354.413 583.027
L357.761 583.027
L358.43 583.171
L359.1 583.142
L359.77 582.912
L360.439 583.085
L362.448 583.114
L363.118 583.027
L363.787 583.171
L364.457 583.085
L365.796 583.142
L366.466 583.027
L367.135 583.171
L367.805 583.027
L368.474 583.171
L370.483 583.171
L371.153 583.171
L371.822 583.056
L372.492 583.142
L373.831 583.027
L374.501 583.114
L375.17 583.056
L375.84 582.883
L376.51 583.056
L380.527 583.142
L381.197 583.171
L381.866 583.085
L383.206 583.085
L384.545 582.941
L385.884 583.171
L387.893 583.142
L388.562 583.171
L389.232 582.97
L391.241 583.171
L393.25 583.2
L393.919 582.97
L394.589 582.998
L395.258 583.142
L399.276 583.142
L399.946 582.941
L402.624 583.085
L405.972 583.171
L407.311 583.114
L443.47 583.056
L444.139 582.365
L445.478 578.362
L446.148 574.243
L446.818 572.083
L447.487 566.554
L448.157 562.205
L448.826 559.584
L449.496 555.35
L450.166 552.154
L450.835 547.229
L451.505 545.501
L452.844 537.667
L453.514 537.062
L454.853 526.464
L455.522 523.382
L456.192 518.285
L456.862 511.546
L458.201 502.934
L458.87 501.206
L459.54 494.525
L460.21 489.398
L461.549 481.738
L462.218 478.915
L463.558 469.958
L464.227 469.382
L464.897 465.062
L465.566 463.594
L466.236 460.829
L466.906 459.216
L467.575 457.949
L468.245 457.085
L468.914 455.472
L469.584 456.336
L470.254 454.723
L470.923 459.101
L472.262 455.846
L472.932 460.397
L473.602 462.038
L474.271 460.915
L474.941 464.688
L475.61 465.149
L476.28 467.539
L476.95 468.058
L477.619 466.56
L478.289 471.802
L478.958 475.2
L479.628 471.773
L480.298 476.352
L480.967 480.038
L481.637 482.602
L482.306 483.408
L482.976 483.523
L483.646 488.045
L484.315 487.584
L484.985 487.44
L485.654 492.134
L486.324 495.13
L486.994 496.973
L487.663 495.59
L488.333 499.104
L489.002 499.882
L489.672 503.971
L490.342 504
L491.011 505.786
L491.681 508.176
L493.02 510.25
L493.69 513.158
L494.359 511.949
L495.029 514.08
L495.698 516.96
L496.368 517.219
L497.038 519.062
L497.707 516.758
L498.377 519.379
L499.046 519.84
L499.716 520.733
L500.386 523.757
L501.055 521.251
L501.725 523.843
L502.394 524.131
L503.064 521.77
L503.734 525.312
L504.403 522.288
L505.073 523.872
L505.742 525.11
L506.412 525.83
L507.082 526.752
L507.751 525.974
L508.421 528.48
L509.09 527.414
L509.76 526.032
L510.43 526.435
L511.099 526.118
L512.438 526.406
L513.108 529.085
L513.778 528.163
L514.447 529.373
L515.117 527.789
L515.786 530.006
L516.456 530.352
L517.795 528.278
L518.465 529.2
L519.134 529.862
L519.804 529.862
L520.474 531.907
L521.143 530.525
L522.482 528.509
L523.152 530.899
L523.822 530.266
L524.491 529.978
L525.161 528.394
L525.83 527.645
L526.5 530.813
L527.17 529.517
L527.839 529.459
L528.509 528.192
L529.848 532.195
L530.518 531.504
L531.187 531.533
L531.857 532.944
L532.526 531.13
L533.196 531.792
L533.866 532.166
L534.535 532.224
L535.205 534.125
L535.874 531.274
L536.544 533.059
L537.214 531.043
L537.883 532.8
L538.553 535.277
L539.222 532.138
L539.892 534.672
L540.562 534.614
L541.231 533.203
L542.57 535.45
L543.24 536.112
L543.91 533.894
L544.579 535.795
L545.249 536.515
L545.918 537.61
L546.588 537.926
L547.258 539.712
L547.927 539.194
L548.597 541.267
L549.266 538.416
L549.936 541.642
L550.606 542.592
L551.275 540
L551.945 540.288
L553.284 544.032
L553.954 542.534
L554.623 543.485
L555.293 542.678
L555.962 543.456
L556.632 542.131
L557.302 544.205
L557.971 543.658
L558.641 543.773
L559.31 543.514
L559.98 545.962
L560.65 545.414
L561.319 543.744
L561.989 544.262
L562.658 542.16
L563.328 545.53
L563.998 546.509
L564.667 544.752
L565.337 544.781
L566.006 546.394
L567.346 544.982
L568.015 546.192
L568.685 546.826
L569.354 547.258
L570.024 547.43
L570.694 547.085
L571.363 548.323
L572.033 546.163
L572.702 547.978
L573.372 545.357
L574.042 546.797
L575.381 548.467
L576.05 549.101
L576.72 547.085
L577.39 547.258
L578.729 549.446
L579.398 547.43
L580.068 546.192
L580.738 548.496
L581.407 547.258
L582.077 546.422
L582.746 547.747
L583.416 548.035
L584.086 548.611
L584.755 547.69
L585.425 549.734
L586.094 548.784
L586.764 549.965
L587.434 546.624
L588.103 547.805
L588.773 549.245
L589.442 551.578
L590.112 550.426
L590.782 549.043
L591.451 549.878
L592.121 550.512
L592.79 551.405
L593.46 552.096
L594.13 553.45
L594.799 552.096
L595.469 552.643
L596.138 552.47
L596.808 553.507
L597.478 552.758
L598.147 552.701
L598.817 554.054
L599.486 553.68
L600.156 554.083
L600.826 553.018
L601.495 554.515
L602.165 554.054
L602.834 555.322
L603.504 554.832
L604.174 555.667
L604.843 556.819
L605.513 555.581
L606.182 555.494
L606.852 556.157
L607.522 556.646
L608.191 556.704
L608.861 558.115
L609.53 557.626
L610.2 559.181
L610.87 558.749
L611.539 557.741
L612.209 557.597
L612.878 558.806
L613.548 560.736
L614.218 560.074
L614.887 560.16
L615.557 559.67
L616.896 561.226
L617.566 558.029
L618.235 561.456
L618.905 561.11
L619.574 560.16
L620.244 562.09
L620.914 561.744
L621.583 561.226
L622.253 562.694
L622.922 561.456
L623.592 562.493
L624.262 562.291
L624.931 562.291
L625.601 563.472
L626.27 563.357
L626.94 562.666
L627.61 563.616
L628.279 563.731
L628.949 563.242
L629.618 564.48
L630.288 563.818
L630.958 564.422
L631.627 563.904
L632.297 563.818
L632.966 563.904
L633.636 563.875
L634.306 563.184
L634.975 565.229
L635.645 564.451
L636.314 564.192
L636.984 564.682
L637.654 565.373
L638.323 565.747
L638.993 565.142
L639.662 565.402
L640.332 564.566
L641.002 565.373
L641.671 565.114
L642.341 565.949
L643.01 565.315
L643.68 566.899
L644.35 567.13
L645.019 565.718
L645.689 567.475
L646.358 566.755
L647.028 566.554
L647.698 566.698
L648.367 566.208
L649.037 567.936
L649.706 566.726
L650.376 566.525
L651.046 566.496
L652.385 566.611
L653.054 567.85
L653.724 567.158
L654.394 566.122
L655.063 567.59
L655.733 567.101
L656.402 567.158
L657.072 567.446
L657.742 567.274
L658.411 567.331
L659.081 566.323
L659.75 566.179
L660.42 566.294
L661.09 568.051
L662.429 567.706
L663.098 567.878
L663.768 568.224
L664.438 567.014
L665.107 568.051
L665.777 568.714
L666.446 567.85
L667.786 569.117
L668.455 569.261
L669.125 569.203
L669.794 570.614
L670.464 568.627
L671.134 569.29
L672.473 568.368
L673.142 569.261
L673.812 569.866
L674.482 569.606
L675.151 570.182
L675.821 569.894
L676.49 570.528
L677.16 568.886
L677.83 569.75
L678.499 570.326
L679.169 571.68
L679.838 571.133
L680.508 571.334
L681.178 570.614
L681.847 571.075
L682.517 571.219
L683.186 570.701
L683.856 572.63
L684.526 571.824
L685.195 572.285
L685.865 571.939
L686.534 570.701
L687.874 571.882
L688.543 571.536
L689.213 572.285
L689.882 573.206
L690.552 571.91
L691.222 573.293
L691.891 573.782
L692.561 573.408
L693.23 572.774
L693.9 572.803
L695.239 574.416
L695.909 572.861
L696.578 573.725
L697.248 574.07
L697.918 573.898
L698.587 573.494
L699.257 573.811
L699.926 574.416
L700.596 575.309
L701.266 574.33
L701.935 575.51
L702.605 575.712
L703.944 575.05
L704.614 574.502
L705.283 575.597
L705.953 575.251
L707.962 576.288
L708.631 577.066
L709.301 576.979
L709.97 576.259
L710.64 576.259
L711.31 576.058
L711.979 576.605
L712.649 576
L713.318 577.037
L713.988 576.346
L714.658 576
L715.327 577.037
L715.997 577.21
L716.666 575.942
L717.336 575.914
L718.006 576.634
L718.675 576.518
L719.345 576.576
L720.014 577.066
L720.684 576.806
L721.354 577.786
L722.023 577.037
L722.693 576.662
L723.362 577.958
L724.032 577.411
L724.702 577.555
L726.041 577.296
L726.71 577.93
L727.38 577.123
L728.05 577.613
L728.719 577.872
L730.058 577.411
L730.728 576.634
L731.398 577.872
L732.737 578.189
L734.076 577.498
L734.746 577.728
L735.415 577.526
L736.085 578.39
L736.754 577.786
L737.424 577.987
L738.094 577.037
L738.763 578.707
L739.433 578.074
L740.102 578.102
L740.772 577.987
L741.442 578.304
L742.111 579.139
L742.781 578.909
L743.45 578.938
L744.12 578.822
L745.459 579.226
L746.129 578.88
L746.798 578.102
L747.468 579.37
L748.138 578.304
L748.807 578.621
L749.477 578.65
L750.146 579.139
L750.816 578.88
L751.486 579.37
L752.155 579.082
L752.825 579.398
L753.494 580.061
L754.164 579.139
L754.834 579.456
L755.503 579.427
L756.173 579.542
L756.842 579.542
L757.512 579.658
L758.182 579.398
L759.521 579.658
L760.19 579.974
L760.86 579.053
L761.53 580.09
L762.199 579.514
L762.869 579.427
L763.538 580.003
L764.208 579.456
L764.878 579.802
L765.547 579.571
L766.886 579.917
L767.556 579.312
L768.226 579.053
L768.895 580.061
L770.234 579.053
L770.904 580.205
L771.574 579.571
L772.243 579.946
L772.913 579.744
L773.582 579.83
L774.252 580.061
L774.922 579.859
L776.261 579.83
L776.93 580.003
L777.6 580.579
L777.6 580.579" style="fill:none;stroke:#ff0000;stroke-linecap:square;"/>
   </g>
   <g id="line2d_2">
    <path clip-path="url(#p7ceb695115)" d="
M108 580.723
L108.67 582.365
L109.339 582.739
L110.009 582.912
L110.678 582.595
L111.348 582.71
L112.018 582.566
L112.687 582.653
L114.026 582.422
L114.696 582.595
L115.366 582.192
L117.374 582.106
L118.044 581.818
L118.714 581.674
L119.383 582.192
L121.392 581.789
L122.731 581.818
L123.401 581.731
L124.07 581.76
L124.74 581.645
L125.41 581.846
L126.079 581.587
L128.088 581.702
L128.758 581.587
L129.427 581.645
L130.097 581.414
L130.766 581.99
L131.436 581.731
L132.106 581.875
L133.445 581.904
L134.114 582.336
L134.784 581.414
L135.454 581.846
L136.123 582.077
L136.793 582.048
L137.462 581.501
L138.132 582.106
L138.802 581.674
L140.141 581.818
L140.81 582.048
L141.48 582.048
L142.15 581.846
L142.819 581.933
L143.489 581.789
L144.158 581.904
L144.828 581.443
L145.498 581.846
L146.167 581.386
L146.837 581.328
L147.506 581.818
L148.846 581.674
L149.515 581.789
L150.185 582.077
L150.854 581.645
L152.194 581.933
L153.533 581.587
L154.202 581.472
L155.542 582.106
L156.211 581.53
L156.881 581.846
L157.55 581.875
L158.22 581.328
L158.89 581.501
L159.559 581.443
L160.229 581.587
L160.898 581.27
L161.568 581.731
L162.238 581.962
L163.577 581.702
L164.916 581.587
L165.586 581.99
L166.255 582.163
L166.925 581.933
L167.594 581.846
L168.264 582.106
L168.934 582.019
L169.603 582.307
L170.942 581.76
L172.282 581.731
L172.951 582.278
L173.621 581.875
L174.29 581.645
L174.96 581.616
L175.63 582.019
L176.299 582.048
L176.969 581.789
L177.638 581.99
L178.308 581.904
L178.978 581.962
L179.647 581.702
L180.986 581.933
L182.326 581.674
L182.995 582.106
L183.665 581.616
L184.334 582.106
L185.004 581.933
L185.674 582.278
L186.343 581.846
L187.682 581.818
L188.352 582.048
L189.022 581.875
L189.691 582.048
L191.03 581.933
L191.7 582.192
L192.37 582.077
L193.039 582.365
L193.709 582.278
L194.378 581.962
L195.048 582.106
L195.718 581.789
L196.387 581.904
L197.057 581.731
L197.726 582.163
L198.396 582.365
L199.066 581.99
L199.735 582.25
L200.405 582.048
L201.744 581.962
L202.414 582.163
L203.083 581.904
L203.753 582.192
L204.422 582.134
L205.092 581.933
L206.431 582.365
L207.101 581.99
L207.77 582.106
L208.44 581.789
L209.11 582.221
L209.779 581.99
L210.449 582.221
L211.118 582.019
L211.788 582.163
L212.458 582.106
L213.127 582.278
L213.797 582.278
L214.466 582.106
L215.136 582.48
L215.806 582.422
L216.475 582.221
L217.145 582.163
L217.814 581.933
L218.484 582.25
L219.154 582.134
L219.823 582.192
L220.493 582.077
L221.832 582.365
L222.502 581.846
L223.171 582.106
L223.841 582.163
L224.51 581.846
L225.18 582.394
L225.85 582.077
L227.189 582.365
L227.858 582.221
L228.528 582.336
L231.876 582.25
L232.546 582.422
L233.215 582.077
L233.885 582.106
L234.554 581.99
L235.224 582.307
L236.563 581.933
L237.233 581.99
L237.902 582.25
L238.572 582.365
L239.242 582.077
L240.581 582.566
L241.25 582.307
L241.92 582.394
L243.259 582.394
L243.929 581.933
L244.598 582.365
L245.268 582.106
L245.938 582.365
L246.607 581.818
L247.277 582.365
L247.946 582.221
L248.616 582.307
L249.955 582.278
L250.625 582.538
L251.294 582.538
L251.964 582.394
L252.634 582.019
L253.303 582.278
L254.642 581.933
L255.982 582.451
L256.651 582.278
L259.999 582.538
L260.669 582.221
L262.008 582.538
L262.678 582.25
L263.347 582.509
L264.017 582.192
L264.686 582.365
L265.356 582.365
L266.026 582.221
L266.695 582.451
L267.365 582.192
L268.034 582.48
L268.704 582.595
L270.043 582.307
L270.713 582.624
L272.052 582.509
L272.722 582.25
L273.391 582.739
L274.061 582.365
L274.73 582.365
L275.4 582.653
L276.07 582.595
L276.739 582.019
L277.409 581.99
L278.078 582.106
L278.748 582.422
L279.418 582.595
L280.087 582.134
L281.426 582.538
L282.096 581.962
L282.766 582.48
L285.444 582.307
L287.453 582.71
L289.462 582.307
L290.131 582.509
L291.47 582.624
L292.14 582.365
L292.81 582.422
L293.479 582.336
L294.818 582.566
L295.488 582.365
L296.158 582.538
L297.497 582.48
L298.166 582.221
L298.836 582.566
L299.506 582.71
L300.175 582.509
L300.845 582.624
L301.514 582.624
L302.184 582.192
L302.854 582.624
L304.193 582.451
L304.862 582.682
L305.532 582.25
L306.202 582.624
L306.871 582.682
L308.21 582.48
L308.88 582.538
L309.55 582.451
L310.219 582.538
L310.889 582.394
L311.558 582.682
L312.228 582.394
L312.898 582.653
L314.237 582.538
L314.906 582.797
L316.246 582.739
L316.915 582.538
L319.594 582.739
L320.263 582.624
L320.933 582.768
L322.942 582.71
L323.611 582.451
L324.281 582.538
L324.95 582.797
L325.62 582.365
L326.959 582.365
L328.298 582.71
L328.968 582.653
L329.638 582.883
L330.307 582.538
L331.646 582.566
L332.316 582.307
L333.655 582.653
L334.325 582.682
L334.994 582.566
L335.664 582.739
L336.334 582.624
L338.342 582.739
L339.682 582.71
L340.351 582.422
L341.021 582.653
L343.699 582.682
L344.369 582.768
L347.047 582.451
L347.717 582.71
L349.726 582.854
L350.395 582.739
L351.065 582.998
L351.734 582.653
L352.404 582.941
L353.743 582.682
L355.082 582.682
L358.43 582.912
L359.1 582.768
L361.109 582.797
L361.778 582.653
L362.448 582.854
L363.118 582.883
L363.787 582.595
L365.126 582.624
L365.796 582.941
L366.466 582.912
L367.135 582.653
L367.805 582.653
L368.474 582.854
L369.144 582.624
L369.814 582.941
L370.483 582.566
L371.153 582.739
L372.492 582.768
L373.162 582.71
L373.831 582.883
L374.501 582.566
L377.179 582.912
L379.858 582.538
L380.527 582.48
L381.197 582.883
L382.536 582.595
L383.875 582.97
L384.545 582.739
L385.214 582.883
L385.884 582.566
L386.554 582.739
L387.223 582.595
L387.893 582.797
L388.562 582.653
L389.232 582.826
L390.571 582.912
L391.91 582.682
L392.58 582.826
L394.589 582.739
L396.598 582.739
L397.267 582.912
L399.276 582.71
L399.946 582.71
L400.615 582.826
L401.285 582.653
L401.954 582.797
L402.624 582.71
L405.972 582.941
L406.642 582.998
L407.311 582.941
L407.981 583.056
L408.65 582.97
L409.32 582.682
L409.99 582.97
L410.659 582.595
L411.329 582.71
L411.998 582.538
L413.338 582.826
L414.007 582.797
L414.677 582.883
L415.346 582.682
L417.355 582.854
L418.025 582.682
L419.364 582.71
L420.034 582.624
L422.042 582.797
L423.382 582.71
L424.051 582.854
L427.399 582.883
L428.069 582.998
L428.738 582.653
L429.408 582.998
L430.078 582.71
L430.747 582.854
L432.086 582.826
L432.756 582.71
L434.095 582.826
L434.765 582.682
L435.434 582.854
L436.774 582.912
L437.443 583.027
L438.113 582.912
L440.122 582.941
L441.461 582.826
L442.8 582.854
L443.47 582.48
L444.139 579.571
L444.809 572.832
L445.478 563.213
L447.487 520.704
L448.826 487.354
L450.166 455.328
L450.835 445.594
L451.505 428.659
L452.174 416.419
L454.853 357.955
L455.522 337.392
L456.192 324.403
L462.218 160.733
L462.888 152.899
L463.558 140.918
L464.227 126.835
L464.897 121.133
L466.236 99.8208
L466.906 91.296
L467.575 90.5184
L468.245 83.6352
L468.914 83.2896
L469.584 80.8992
L470.254 82.512
L470.923 81.1296
L471.593 82.4544
L472.262 84.96
L472.932 91.7568
L473.602 93.2256
L474.271 103.795
L474.941 105.898
L475.61 115.43
L476.28 115.776
L476.95 126.058
L477.619 133.43
L478.289 129.6
L478.958 141.235
L480.298 156.038
L480.967 166.234
L481.637 171.763
L482.306 182.102
L482.976 194.371
L483.646 199.123
L484.315 205.776
L484.985 221.126
L485.654 223.459
L486.324 228.499
L486.994 232.099
L487.663 237.312
L489.002 252.259
L489.672 257.875
L491.011 275.501
L491.681 280.166
L492.35 288.403
L493.02 293.558
L493.69 297.36
L494.359 306.49
L495.029 311.299
L495.698 315.043
L496.368 319.824
L497.038 322.013
L497.707 332.669
L498.377 330.106
L499.046 335.693
L499.716 337.277
L500.386 333.706
L501.055 338.89
L501.725 342.518
L503.064 347.818
L503.734 344.275
L504.403 350.813
L505.073 353.146
L505.742 354.038
L506.412 350.611
L507.082 354.067
L507.751 356.486
L508.421 354.384
L509.09 356.4
L509.76 360.23
L510.43 357.005
L511.099 356.314
L511.769 355.018
L512.438 359.222
L513.108 362.678
L513.778 365.213
L514.447 364.982
L515.117 367.43
L515.786 365.126
L516.456 365.904
L517.126 368.122
L517.795 369.245
L518.465 367.056
L519.134 365.875
L519.804 367.056
L520.474 364.464
L521.813 372.413
L523.152 370.454
L523.822 373.046
L524.491 370.771
L525.161 372.182
L525.83 367.402
L526.5 366.682
L527.17 372.413
L527.839 374.4
L528.509 379.296
L529.178 374.573
L529.848 373.709
L530.518 374.112
L531.187 379.814
L531.857 378.461
L532.526 379.296
L533.196 383.386
L533.866 378.403
L534.535 381.744
L535.205 381.11
L535.874 382.694
L536.544 377.338
L537.214 383.587
L537.883 383.731
L538.553 384.394
L539.222 389.837
L539.892 387.59
L540.562 389.894
L541.231 391.766
L541.901 390.326
L542.57 390.182
L543.24 394.646
L543.91 393.955
L544.579 394.301
L546.588 402.71
L547.258 405.274
L547.927 410.63
L548.597 409.19
L549.266 414.086
L549.936 414.086
L550.606 413.683
L551.275 418.464
L551.945 418.954
L552.614 422.323
L553.284 420.998
L553.954 418.867
L554.623 420.278
L555.293 424.829
L555.962 423.331
L556.632 425.03
L557.302 425.923
L557.971 424.771
L558.641 428.17
L559.31 429.408
L559.98 428.918
L560.65 428.774
L561.319 430.675
L561.989 428.314
L562.658 428.832
L563.328 432.173
L563.998 432.173
L564.667 435.629
L565.337 435.542
L566.006 435.053
L566.676 435.802
L567.346 438.134
L568.015 436.867
L568.685 439.171
L569.354 438.221
L570.024 441.072
L570.694 441.302
L571.363 440.352
L572.033 440.266
L572.702 437.443
L573.372 439.747
L574.042 439.546
L574.711 438.394
L575.381 439.574
L576.05 439.546
L576.72 440.957
L577.39 441.36
L578.059 441.936
L578.729 440.784
L580.068 442.109
L580.738 442.598
L581.407 444.96
L582.077 446.746
L582.746 444.586
L583.416 443.923
L584.086 445.68
L584.755 444.557
L585.425 448.416
L586.094 450.979
L586.764 446.083
L587.434 447.984
L588.773 450.835
L589.442 451.613
L590.112 453.226
L590.782 456.998
L591.451 458.237
L592.121 456.653
L592.79 457.027
L593.46 460.282
L594.13 460.973
L595.469 465.523
L596.138 466.042
L596.808 464.054
L597.478 464.63
L598.147 464.4
L598.817 462.874
L600.826 466.387
L601.495 467.885
L602.165 467.453
L602.834 468.49
L603.504 469.008
L604.174 470.362
L604.843 472.435
L605.513 473.27
L606.182 473.76
L606.852 478.598
L607.522 476.381
L608.861 481.363
L609.53 482.458
L610.2 480.125
L610.87 485.366
L611.539 485.712
L612.209 488.074
L613.548 487.44
L614.218 487.296
L614.887 488.621
L616.226 489.629
L616.896 489.024
L617.566 494.41
L618.235 495.878
L618.905 497.923
L619.574 498.845
L620.244 497.059
L620.914 499.939
L621.583 499.392
L622.253 499.421
L622.922 500.4
L623.592 499.795
L624.262 502.214
L624.931 503.366
L625.601 501.034
L626.27 501.35
L626.94 500.89
L627.61 503.741
L628.279 501.782
L628.949 504.778
L629.618 502.387
L630.288 502.618
L630.958 500.746
L631.627 504.922
L632.297 505.382
L632.966 507.744
L633.636 507.974
L634.306 510.71
L636.314 509.472
L636.984 510.826
L637.654 508.982
L638.993 510.019
L639.662 507.485
L640.332 510.538
L641.002 512.035
L641.671 512.726
L642.341 515.52
L643.01 515.117
L643.68 515.52
L644.35 517.277
L645.019 517.709
L645.689 515.75
L646.358 518.63
L647.028 517.594
L647.698 516.96
L648.367 519.149
L649.037 519.034
L649.706 517.363
L650.376 518.89
L651.046 516.355
L651.715 518.256
L652.385 519.178
L653.054 519.005
L653.724 519.437
L654.394 518.026
L655.063 519.12
L655.733 519.955
L656.402 519.581
L657.072 519.494
L657.742 519.984
L658.411 520.675
L659.081 519.667
L659.75 520.013
L660.42 520.013
L661.09 517.651
L661.759 520.79
L662.429 519.754
L663.098 519.811
L663.768 520.646
L664.438 522.691
L665.107 523.93
L665.777 523.469
L666.446 525.139
L667.116 527.558
L667.786 528.336
L668.455 526.032
L669.125 526.55
L669.794 528.883
L670.464 527.443
L671.134 526.406
L671.803 526.291
L672.473 527.616
L673.142 528.048
L673.812 526.723
L674.482 527.99
L675.151 528.106
L675.821 529.69
L676.49 528.595
L677.16 530.093
L677.83 531.907
L679.169 531.85
L679.838 533.779
L680.508 535.248
L681.178 536.256
L681.847 536.63
L682.517 536.429
L683.186 536.717
L683.856 535.882
L684.526 537.638
L685.195 540.086
L685.865 540.086
L686.534 535.392
L687.204 537.984
L687.874 536.947
L688.543 540.835
L689.213 541.181
L689.882 538.214
L690.552 541.152
L691.222 540.547
L691.891 541.44
L692.561 543.341
L693.23 544.349
L693.9 543.082
L694.57 544.522
L695.239 543.341
L695.909 545.846
L696.578 546.48
L697.248 548.266
L697.918 547.286
L698.587 547.43
L699.257 548.15
L699.926 547.747
L700.596 548.467
L701.266 549.85
L702.605 550.454
L703.274 551.549
L704.614 551.03
L705.953 552.557
L706.622 551.808
L707.292 553.334
L707.962 553.622
L708.631 555.638
L709.301 555.408
L709.97 555.955
L710.64 555.034
L711.31 556.387
L711.979 556.589
L712.649 558.662
L713.318 555.869
L713.988 557.222
L714.658 556.762
L715.327 556.79
L715.997 555.494
L716.666 556.906
L717.336 556.301
L718.006 557.107
L718.675 557.453
L719.345 556.79
L720.014 559.123
L720.684 559.066
L721.354 558
L722.023 558.518
L722.693 559.613
L723.362 558.893
L724.032 560.074
L724.702 558.634
L725.371 561.254
L726.041 561.485
L726.71 560.39
L727.38 561.629
L728.05 561.859
L728.719 561.571
L729.389 562.262
L730.058 562.349
L730.728 562.234
L731.398 561.715
L732.067 562.435
L732.737 561.283
L734.076 564.307
L734.746 564.509
L735.415 564.163
L736.085 564.106
L736.754 563.011
L737.424 561.053
L738.094 561.514
L738.763 561.312
L739.433 562.522
L740.102 562.608
L741.442 565.805
L742.111 564.739
L742.781 565.69
L743.45 565.517
L744.12 565.661
L744.79 565.142
L745.459 565.632
L746.129 565.056
L746.798 565.92
L747.468 565.776
L748.138 566.438
L748.807 566.496
L749.477 567.475
L750.146 565.69
L750.816 566.698
L751.486 568.109
L752.155 566.842
L752.825 567.936
L754.164 567.792
L754.834 566.986
L755.503 568.31
L756.173 566.755
L757.512 568.685
L758.182 569.03
L758.851 568.368
L759.521 567.475
L760.19 567.274
L760.86 567.418
L762.199 568.31
L762.869 569.117
L763.538 569.434
L764.208 568.541
L764.878 569.318
L766.217 567.677
L766.886 568.368
L767.556 568.426
L768.226 570.096
L768.895 569.837
L769.565 568.656
L770.234 569.203
L770.904 568.397
L771.574 569.635
L772.243 569.117
L772.913 569.434
L773.582 569.146
L774.252 570.269
L774.922 570.499
L775.591 571.19
L776.261 571.392
L776.93 571.133
L777.6 571.766
L777.6 571.766" style="fill:none;stroke:#008000;stroke-linecap:square;"/>
   </g>
   <g id="line2d_3">
    <path clip-path="url(#p7ceb695115)" d="
M108 582.595
L108.67 582.97
L109.339 583.114
L110.678 583.114
L111.348 582.998
L112.018 583.085
L114.696 582.912
L115.366 582.797
L116.705 583.085
L117.374 582.912
L118.044 582.97
L119.383 582.797
L120.053 582.883
L120.722 582.768
L121.392 582.97
L122.731 582.768
L124.07 582.826
L126.079 582.739
L126.749 582.97
L127.418 582.941
L128.088 582.451
L128.758 582.826
L130.097 582.682
L130.766 582.912
L131.436 582.739
L134.114 582.998
L134.784 582.739
L136.123 582.854
L136.793 582.739
L137.462 582.826
L138.132 582.797
L138.802 582.912
L139.471 582.768
L140.141 582.941
L140.81 582.797
L142.15 582.883
L142.819 582.71
L144.158 582.97
L144.828 582.883
L145.498 582.912
L146.167 582.826
L146.837 582.97
L147.506 582.653
L148.176 582.883
L149.515 582.797
L150.185 582.739
L150.854 582.883
L151.524 582.768
L152.194 582.854
L152.863 582.682
L156.211 582.826
L156.881 583.114
L157.55 582.998
L158.22 582.998
L158.89 582.826
L160.898 582.768
L161.568 582.682
L163.577 582.912
L164.246 582.854
L164.916 582.682
L165.586 582.912
L172.282 582.854
L172.951 582.624
L173.621 582.97
L174.96 582.71
L175.63 582.883
L176.299 582.797
L176.969 582.912
L178.308 582.682
L178.978 582.883
L179.647 582.682
L180.317 582.768
L180.986 582.97
L181.656 582.768
L182.326 582.883
L182.995 582.826
L183.665 582.97
L184.334 582.998
L185.004 582.797
L185.674 582.941
L187.013 582.854
L187.682 583.085
L189.022 582.912
L189.691 582.854
L191.03 582.941
L194.378 582.883
L195.048 583.114
L195.718 582.883
L196.387 582.854
L197.057 583.114
L197.726 582.912
L199.066 582.854
L199.735 583.027
L200.405 582.854
L201.744 582.97
L202.414 582.768
L203.083 583.056
L203.753 582.883
L205.092 582.998
L205.762 582.998
L206.431 582.883
L207.101 583.085
L207.77 582.883
L208.44 582.941
L209.11 582.826
L210.449 583.056
L211.118 582.883
L211.788 583.056
L213.127 582.941
L213.797 582.97
L214.466 582.768
L215.136 583.027
L217.814 583.027
L219.154 582.682
L220.493 583.114
L221.162 583.114
L222.502 582.912
L223.171 582.97
L223.841 582.768
L224.51 582.797
L225.85 583.056
L226.519 582.912
L227.189 583.027
L227.858 582.854
L228.528 583.056
L229.198 582.97
L231.206 583.056
L231.876 582.883
L235.894 582.97
L237.902 582.797
L238.572 582.998
L239.242 582.797
L241.25 583.056
L241.92 582.739
L242.59 582.854
L243.259 582.854
L243.929 583.027
L245.268 582.826
L245.938 583.027
L246.607 582.998
L247.277 583.085
L248.616 582.912
L249.286 583.085
L249.955 582.998
L250.625 583.056
L253.303 582.854
L255.312 582.941
L258.66 583.056
L259.33 582.998
L259.999 583.142
L260.669 583.027
L261.338 583.056
L262.008 582.941
L262.678 583.114
L263.347 582.998
L264.017 583.085
L265.356 582.71
L266.026 582.941
L267.365 582.912
L269.374 582.912
L270.043 583.085
L272.052 583.085
L274.061 583.085
L274.73 582.941
L275.4 582.998
L276.07 582.941
L276.739 583.027
L278.748 582.941
L279.418 583.114
L283.435 582.854
L284.105 583.056
L285.444 583.056
L286.783 583.027
L288.122 582.97
L288.792 583.085
L289.462 582.883
L290.801 583.027
L294.818 582.998
L295.488 582.854
L296.827 583.027
L297.497 582.941
L302.184 583.056
L302.854 582.998
L303.523 583.171
L304.193 582.998
L305.532 583.085
L306.202 582.97
L306.871 583.085
L308.21 582.941
L309.55 583.114
L310.219 583.027
L311.558 583.171
L312.228 583.027
L324.281 583.114
L324.95 583.142
L325.62 582.97
L326.29 583.056
L327.629 582.998
L328.298 583.085
L329.638 582.941
L330.307 583.2
L330.977 583.085
L331.646 583.142
L332.316 583.085
L332.986 583.171
L333.655 583.027
L335.664 583.114
L336.334 582.998
L337.673 583.114
L339.682 582.941
L340.351 583.085
L341.021 582.998
L341.69 583.114
L342.36 582.998
L345.038 583.171
L347.047 582.97
L347.717 583.171
L349.056 583.114
L352.404 583.085
L353.074 582.998
L353.743 583.142
L356.422 583.027
L357.091 583.142
L357.761 582.941
L358.43 583.085
L359.1 582.998
L360.439 583.171
L361.778 583.142
L363.118 583.056
L363.787 582.912
L364.457 583.2
L365.796 582.998
L366.466 583.142
L369.144 583.056
L369.814 583.2
L370.483 583.114
L371.153 583.142
L372.492 582.941
L373.162 583.114
L373.831 583.027
L374.501 583.114
L377.179 582.998
L377.849 583.085
L378.518 582.998
L379.858 583.085
L380.527 583.114
L381.197 583.027
L382.536 583.171
L385.214 583.142
L387.223 583.171
L387.893 583.027
L389.232 583.085
L389.902 582.941
L391.241 583.171
L391.91 583.056
L393.919 583.171
L394.589 583.027
L395.258 583.142
L395.928 583.056
L397.937 583.085
L398.606 583.056
L399.276 583.2
L399.946 583.085
L401.285 583.085
L401.954 582.97
L405.972 583.114
L406.642 583.027
L407.311 583.142
L407.981 583.027
L408.65 583.171
L411.998 583.114
L414.007 583.2
L414.677 582.97
L416.686 583.142
L422.042 583.114
L423.382 582.998
L424.051 583.142
L425.39 583.056
L426.06 583.2
L426.73 583.085
L428.069 583.114
L429.408 582.998
L430.078 583.171
L430.747 583.085
L432.756 583.171
L434.095 583.056
L434.765 583.142
L436.104 583.114
L437.443 583.114
L438.113 583.2
L438.782 583.056
L439.452 583.171
L442.8 583.085
L443.47 582.912
L444.139 582.192
L444.809 580.579
L445.478 577.642
L446.148 575.424
L446.818 571.709
L447.487 566.266
L448.157 563.357
L450.166 552.442
L450.835 546.826
L451.505 544.464
L452.174 540.202
L452.844 537.984
L454.183 530.755
L454.853 526.234
L455.522 523.066
L456.192 516.24
L456.862 513.187
L457.531 508.32
L458.201 505.123
L458.87 496.771
L459.54 494.266
L460.21 490.723
L460.879 486.23
L462.218 480.24
L462.888 475.114
L463.558 470.938
L464.227 470.621
L464.897 463.853
L465.566 463.507
L466.236 463.795
L466.906 463.478
L467.575 458.496
L468.245 462.154
L468.914 458.381
L469.584 459.13
L470.254 458.122
L470.923 455.933
L471.593 457.344
L472.262 461.29
L472.932 461.52
L473.602 461.405
L474.271 462.125
L474.941 464.832
L475.61 462.24
L476.28 466.013
L476.95 466.589
L477.619 468.317
L478.289 474.941
L478.958 469.814
L479.628 477.936
L480.298 477.158
L480.967 480.096
L481.637 482.515
L482.306 481.709
L482.976 482.774
L484.315 490.032
L484.985 486.403
L485.654 490.262
L486.324 493.373
L487.663 496.195
L488.333 499.565
L489.002 500.659
L489.672 501.206
L490.342 502.445
L491.011 504.749
L492.35 510.221
L493.02 509.731
L493.69 511.2
L494.359 513.446
L495.029 516.758
L495.698 514.944
L496.368 516.902
L497.038 516.845
L497.707 516.902
L498.377 522.259
L499.046 521.021
L499.716 521.222
L500.386 523.584
L501.725 522
L502.394 523.872
L503.064 523.469
L503.734 525.37
L504.403 524.563
L505.073 525.773
L505.742 526.55
L506.412 527.501
L507.082 525.542
L507.751 526.32
L508.421 527.99
L509.09 528.048
L509.76 526.09
L510.43 525.485
L511.099 524.218
L511.769 526.954
L512.438 526.118
L513.108 528.509
L513.778 528.336
L514.447 529.171
L515.117 528.826
L515.786 530.784
L516.456 530.611
L517.126 529.056
L517.795 529.747
L518.465 528.538
L519.134 530.208
L519.804 527.184
L520.474 529.027
L521.143 529.891
L521.813 528.998
L522.482 531.13
L523.152 529.43
L523.822 529.834
L525.161 528.509
L525.83 531.792
L526.5 531.475
L527.839 530.266
L528.509 530.064
L529.178 530.726
L529.848 531.994
L530.518 532.656
L531.187 529.315
L531.857 531.878
L532.526 532.685
L533.196 529.056
L533.866 531.13
L534.535 532.627
L535.205 531.792
L535.874 533.174
L536.544 533.606
L537.214 532.282
L537.883 532.57
L538.553 532.512
L539.222 532.627
L539.892 534.01
L540.562 533.347
L541.231 533.549
L541.901 534.47
L542.57 535.709
L543.24 534.384
L543.91 535.709
L544.579 536.227
L545.249 537.754
L545.918 537.322
L547.258 539.165
L547.927 539.597
L548.597 540.634
L549.266 539.683
L549.936 542.419
L550.606 541.296
L551.275 540.893
L551.945 543.37
L552.614 541.181
L553.284 542.102
L553.954 541.958
L554.623 542.16
L555.293 541.469
L555.962 542.707
L556.632 543.6
L557.302 541.094
L557.971 543.571
L558.641 544.32
L559.31 544.723
L559.98 543.888
L560.65 545.242
L561.319 544.464
L561.989 544.81
L562.658 544.262
L563.328 545.616
L563.998 546.106
L564.667 545.99
L565.337 547.056
L566.006 546.97
L566.676 547.517
L567.346 545.702
L568.015 545.069
L568.685 548.41
L569.354 548.093
L570.024 546.509
L570.694 545.962
L571.363 545.904
L572.033 548.813
L573.372 544.896
L574.042 545.011
L574.711 548.035
L575.381 548.352
L576.05 549.187
L576.72 547.69
L578.729 548.525
L579.398 547.805
L580.068 548.64
L580.738 548.467
L581.407 548.554
L582.077 550.138
L582.746 548.726
L583.416 550.166
L584.755 547.402
L585.425 547.027
L586.094 547.949
L586.764 549.13
L587.434 548.698
L588.103 549.562
L588.773 548.208
L589.442 549.533
L590.112 553.334
L590.782 551.664
L591.451 551.002
L592.121 551.347
L592.79 553.997
L593.46 553.45
L594.13 552.73
L594.799 554.429
L595.469 552.874
L596.138 553.594
L596.808 552.384
L597.478 552.096
L598.147 553.248
L598.817 552.845
L599.486 552.701
L600.156 553.478
L600.826 555.322
L601.495 554.89
L602.165 552.787
L602.834 553.248
L603.504 555.523
L604.174 555.034
L604.843 554.918
L605.513 555.811
L606.182 557.05
L606.852 556.877
L607.522 557.597
L608.191 556.963
L608.861 557.942
L609.53 556.531
L610.2 556.387
L610.87 558.634
L611.539 558.029
L612.209 559.123
L613.548 558.634
L614.218 559.872
L614.887 558.23
L615.557 559.325
L616.226 559.901
L616.896 560.016
L617.566 561.542
L618.235 561.974
L618.905 559.699
L619.574 560.275
L620.244 562.176
L620.914 561.312
L621.583 562.205
L622.253 562.061
L622.922 562.09
L623.592 563.962
L624.262 563.904
L624.931 562.666
L625.601 562.522
L626.27 562.982
L626.94 563.933
L628.279 562.118
L629.618 563.789
L630.288 563.184
L630.958 563.846
L631.627 562.262
L632.297 563.645
L632.966 563.846
L633.636 564.682
L634.306 566.525
L634.975 563.904
L635.645 563.328
L636.314 564.97
L636.984 565.344
L638.323 563.962
L638.993 565.085
L639.662 564.566
L640.332 565.891
L641.002 564.192
L641.671 565.603
L642.341 565.718
L643.01 566.525
L643.68 565.459
L644.35 566.611
L645.019 567.418
L645.689 567.59
L646.358 565.92
L647.028 566.64
L647.698 565.834
L648.367 565.459
L649.037 566.726
L649.706 566.784
L650.376 567.187
L651.046 567.936
L651.715 566.813
L652.385 566.842
L653.054 566.986
L653.724 565.632
L654.394 567.101
L655.063 566.035
L655.733 567.36
L656.402 566.323
L657.072 567.706
L657.742 568.253
L658.411 566.842
L659.081 566.986
L659.75 566.842
L660.42 567.101
L661.09 567.216
L661.759 566.726
L662.429 566.669
L663.768 567.59
L664.438 566.957
L665.107 567.072
L665.777 568.051
L666.446 569.722
L667.116 568.426
L667.786 569.117
L668.455 568.886
L669.125 570.586
L669.794 569.261
L670.464 570.154
L671.134 569.203
L671.803 568.858
L672.473 569.405
L673.142 568.166
L673.812 569.722
L674.482 569.462
L675.151 570.384
L675.821 569.606
L676.49 570.298
L677.16 570.614
L677.83 569.664
L678.499 570.701
L679.169 570.816
L679.838 570.182
L680.508 569.923
L681.178 571.018
L681.847 570.816
L682.517 571.075
L683.186 570.384
L683.856 571.478
L684.526 572.054
L685.195 572.054
L685.865 571.824
L686.534 571.19
L687.204 571.882
L688.543 571.334
L689.213 573.293
L689.882 573.178
L690.552 571.363
L691.222 573.264
L691.891 572.112
L692.561 574.042
L693.23 573.408
L693.9 573.552
L694.57 572.314
L695.239 574.186
L695.909 573.293
L696.578 574.186
L697.248 573.667
L697.918 574.416
L698.587 573.984
L699.257 574.762
L699.926 574.243
L700.596 574.013
L701.266 574.157
L701.935 574.848
L702.605 575.309
L703.274 574.128
L703.944 575.654
L704.614 575.078
L705.283 575.885
L705.953 575.222
L706.622 574.762
L707.292 575.28
L707.962 576.317
L708.631 576.144
L709.301 575.539
L709.97 576.202
L710.64 577.037
L711.31 576.634
L711.979 576.864
L712.649 576.432
L713.318 577.037
L713.988 576.346
L714.658 577.238
L715.327 576.778
L715.997 577.066
L716.666 577.066
L717.336 577.21
L718.675 576.374
L719.345 577.066
L720.014 576.778
L720.684 577.094
L721.354 576.749
L722.023 577.21
L722.693 577.469
L723.362 577.123
L724.032 577.987
L725.371 577.584
L726.041 577.498
L726.71 577.843
L727.38 577.901
L728.05 577.238
L728.719 577.123
L729.389 577.958
L730.058 577.526
L730.728 577.814
L731.398 577.814
L732.067 578.131
L732.737 577.699
L733.406 578.304
L734.076 578.362
L734.746 578.16
L735.415 578.189
L736.085 578.333
L736.754 577.901
L737.424 577.642
L738.094 578.362
L738.763 577.901
L740.102 578.102
L740.772 578.938
L742.781 578.506
L744.12 578.995
L745.459 578.074
L746.129 579.197
L747.468 578.995
L748.138 578.794
L748.807 579.226
L749.477 578.851
L750.146 579.082
L750.816 579.485
L752.155 578.938
L752.825 579.485
L753.494 579.427
L754.164 579.197
L754.834 579.542
L755.503 578.966
L756.173 580.205
L757.512 578.995
L758.182 579.053
L758.851 579.888
L759.521 579.37
L760.19 579.427
L760.86 579.6
L761.53 578.592
L762.199 579.514
L762.869 579.053
L764.208 579.802
L764.878 579.715
L765.547 579.197
L766.217 579.341
L767.556 579.283
L768.226 579.773
L768.895 579.571
L769.565 579.744
L770.234 579.168
L770.904 579.542
L771.574 579.485
L772.243 580.061
L772.913 579.37
L773.582 579.398
L774.252 579.686
L774.922 579.83
L775.591 580.147
L776.261 579.917
L776.93 580.176
L777.6 580.262
L777.6 580.262" style="fill:none;stroke:#0000ff;stroke-linecap:square;"/>
   </g>
   <g id="patch_3">
    <path d="
M108 583.2
L777.6 583.2" style="fill:none;stroke:#000000;stroke-linecap:square;stroke-linejoin:miter;"/>
   </g>
   <g id="patch_4">
    <path d="
M777.6 583.2
L777.6 64.8" style="fill:none;stroke:#000000;stroke-linecap:square;stroke-linejoin:miter;"/>
   </g>
   <g id="patch_5">
    <path d="
M108 64.8
L777.6 64.8" style="fill:none;stroke:#000000;stroke-linecap:square;stroke-linejoin:miter;"/>
   </g>
   <g id="patch_6">
    <path d="
M108 583.2
L108 64.8" style="fill:none;stroke:#000000;stroke-linecap:square;stroke-linejoin:miter;"/>
   </g>
   <g id="matplotlib.axis_1">
    <g id="xtick_1">
     <g id="line2d_4">
      <defs>
       <path d="
M0 0
L0 -4" id="mc7db9fdffb" style="stroke:#000000;stroke-width:0.5;"/>
      </defs>
      <g>
       <use style="stroke:#000000;stroke-width:0.5;" x="108.0" xlink:href="#mc7db9fdffb" y="583.2"/>
      </g>
     </g>
     <g id="line2d_5">
      <defs>
       <path d="
M0 0
L0 4" id="m5a7d422ac3" style="stroke:#000000;stroke-width:0.5;"/>
      </defs>
      <g>
       <use style="stroke:#000000;stroke-width:0.5;" x="108.0" xlink:href="#m5a7d422ac3" y="64.8"/>
      </g>
     </g>
     <g id="text_1">
      <!-- 0 -->
      <defs>
       <path d="
M31.7812 66.4062
Q24.1719 66.4062 20.3281 58.9062
Q16.5 51.4219 16.5 36.375
Q16.5 21.3906 20.3281 13.8906
Q24.1719 6.39062 31.7812 6.39062
Q39.4531 6.39062 43.2812 13.8906
Q47.125 21.3906 47.125 36.375
Q47.125 51.4219 43.2812 58.9062
Q39.4531 66.4062 31.7812 66.4062
M31.7812 74.2188
Q44.0469 74.2188 50.5156 64.5156
Q56.9844 54.8281 56.9844 36.375
Q56.9844 17.9688 50.5156 8.26562
Q44.0469 -1.42188 31.7812 -1.42188
Q19.5312 -1.42188 13.0625 8.26562
Q6.59375 17.9688 6.59375 36.375
Q6.59375 54.8281 13.0625 64.5156
Q19.5312 74.2188 31.7812 74.2188" id="BitstreamVeraSans-Roman-30"/>
      </defs>
      <g transform="translate(104.9765625 596.318125)scale(0.12 -0.12)">
       <use xlink:href="#BitstreamVeraSans-Roman-30"/>
      </g>
     </g>
    </g>
    <g id="xtick_2">
     <g id="line2d_6">
      <g>
       <use style="stroke:#000000;stroke-width:0.5;" x="275.4" xlink:href="#mc7db9fdffb" y="583.2"/>
      </g>
     </g>
     <g id="line2d_7">
      <g>
       <use style="stroke:#000000;stroke-width:0.5;" x="275.4" xlink:href="#m5a7d422ac3" y="64.8"/>
      </g>
     </g>
     <g id="text_2">
      <!-- 50000 -->
      <defs>
       <path d="
M10.7969 72.9062
L49.5156 72.9062
L49.5156 64.5938
L19.8281 64.5938
L19.8281 46.7344
Q21.9688 47.4688 24.1094 47.8281
Q26.2656 48.1875 28.4219 48.1875
Q40.625 48.1875 47.75 41.5
Q54.8906 34.8125 54.8906 23.3906
Q54.8906 11.625 47.5625 5.09375
Q40.2344 -1.42188 26.9062 -1.42188
Q22.3125 -1.42188 17.5469 -0.640625
Q12.7969 0.140625 7.71875 1.70312
L7.71875 11.625
Q12.1094 9.23438 16.7969 8.0625
Q21.4844 6.89062 26.7031 6.89062
Q35.1562 6.89062 40.0781 11.3281
Q45.0156 15.7656 45.0156 23.3906
Q45.0156 31 40.0781 35.4375
Q35.1562 39.8906 26.7031 39.8906
Q22.75 39.8906 18.8125 39.0156
Q14.8906 38.1406 10.7969 36.2812
z
" id="BitstreamVeraSans-Roman-35"/>
      </defs>
      <g transform="translate(257.1740625 596.318125)scale(0.12 -0.12)">
       <use xlink:href="#BitstreamVeraSans-Roman-35"/>
       <use x="63.623046875" xlink:href="#BitstreamVeraSans-Roman-30"/>
       <use x="127.24609375" xlink:href="#BitstreamVeraSans-Roman-30"/>
       <use x="190.869140625" xlink:href="#BitstreamVeraSans-Roman-30"/>
       <use x="254.4921875" xlink:href="#BitstreamVeraSans-Roman-30"/>
      </g>
     </g>
    </g>
    <g id="xtick_3">
     <g id="line2d_8">
      <g>
       <use style="stroke:#000000;stroke-width:0.5;" x="442.8" xlink:href="#mc7db9fdffb" y="583.2"/>
      </g>
     </g>
     <g id="line2d_9">
      <g>
       <use style="stroke:#000000;stroke-width:0.5;" x="442.8" xlink:href="#m5a7d422ac3" y="64.8"/>
      </g>
     </g>
     <g id="text_3">
      <!-- 100000 -->
      <defs>
       <path d="
M12.4062 8.29688
L28.5156 8.29688
L28.5156 63.9219
L10.9844 60.4062
L10.9844 69.3906
L28.4219 72.9062
L38.2812 72.9062
L38.2812 8.29688
L54.3906 8.29688
L54.3906 0
L12.4062 0
z
" id="BitstreamVeraSans-Roman-31"/>
      </defs>
      <g transform="translate(420.9525 596.318125)scale(0.12 -0.12)">
       <use xlink:href="#BitstreamVeraSans-Roman-31"/>
       <use x="63.623046875" xlink:href="#BitstreamVeraSans-Roman-30"/>
       <use x="127.24609375" xlink:href="#BitstreamVeraSans-Roman-30"/>
       <use x="190.869140625" xlink:href="#BitstreamVeraSans-Roman-30"/>
       <use x="254.4921875" xlink:href="#BitstreamVeraSans-Roman-30"/>
       <use x="318.115234375" xlink:href="#BitstreamVeraSans-Roman-30"/>
      </g>
     </g>
    </g>
    <g id="xtick_4">
     <g id="line2d_10">
      <g>
       <use style="stroke:#000000;stroke-width:0.5;" x="610.2" xlink:href="#mc7db9fdffb" y="583.2"/>
      </g>
     </g>
     <g id="line2d_11">
      <g>
       <use style="stroke:#000000;stroke-width:0.5;" x="610.2" xlink:href="#m5a7d422ac3" y="64.8"/>
      </g>
     </g>
     <g id="text_4">
      <!-- 150000 -->
      <g transform="translate(588.3525 596.318125)scale(0.12 -0.12)">
       <use xlink:href="#BitstreamVeraSans-Roman-31"/>
       <use x="63.623046875" xlink:href="#BitstreamVeraSans-Roman-35"/>
       <use x="127.24609375" xlink:href="#BitstreamVeraSans-Roman-30"/>
       <use x="190.869140625" xlink:href="#BitstreamVeraSans-Roman-30"/>
       <use x="254.4921875" xlink:href="#BitstreamVeraSans-Roman-30"/>
       <use x="318.115234375" xlink:href="#BitstreamVeraSans-Roman-30"/>
      </g>
     </g>
    </g>
    <g id="xtick_5">
     <g id="line2d_12">
      <g>
       <use style="stroke:#000000;stroke-width:0.5;" x="777.6" xlink:href="#mc7db9fdffb" y="583.2"/>
      </g>
     </g>
     <g id="line2d_13">
      <g>
       <use style="stroke:#000000;stroke-width:0.5;" x="777.6" xlink:href="#m5a7d422ac3" y="64.8"/>
      </g>
     </g>
     <g id="text_5">
      <!-- 200000 -->
      <defs>
       <path d="
M19.1875 8.29688
L53.6094 8.29688
L53.6094 0
L7.32812 0
L7.32812 8.29688
Q12.9375 14.1094 22.625 23.8906
Q32.3281 33.6875 34.8125 36.5312
Q39.5469 41.8438 41.4219 45.5312
Q43.3125 49.2188 43.3125 52.7812
Q43.3125 58.5938 39.2344 62.25
Q35.1562 65.9219 28.6094 65.9219
Q23.9688 65.9219 18.8125 64.3125
Q13.6719 62.7031 7.8125 59.4219
L7.8125 69.3906
Q13.7656 71.7812 18.9375 73
Q24.125 74.2188 28.4219 74.2188
Q39.75 74.2188 46.4844 68.5469
Q53.2188 62.8906 53.2188 53.4219
Q53.2188 48.9219 51.5312 44.8906
Q49.8594 40.875 45.4062 35.4062
Q44.1875 33.9844 37.6406 27.2188
Q31.1094 20.4531 19.1875 8.29688" id="BitstreamVeraSans-Roman-32"/>
      </defs>
      <g transform="translate(755.533125 596.318125)scale(0.12 -0.12)">
       <use xlink:href="#BitstreamVeraSans-Roman-32"/>
       <use x="63.623046875" xlink:href="#BitstreamVeraSans-Roman-30"/>
       <use x="127.24609375" xlink:href="#BitstreamVeraSans-Roman-30"/>
       <use x="190.869140625" xlink:href="#BitstreamVeraSans-Roman-30"/>
       <use x="254.4921875" xlink:href="#BitstreamVeraSans-Roman-30"/>
       <use x="318.115234375" xlink:href="#BitstreamVeraSans-Roman-30"/>
      </g>
     </g>
    </g>
    <g id="text_6">
     <!-- t / ms -->
     <defs>
      <path d="
M18.3125 70.2188
L18.3125 54.6875
L36.8125 54.6875
L36.8125 47.7031
L18.3125 47.7031
L18.3125 18.0156
Q18.3125 11.3281 20.1406 9.42188
Q21.9688 7.51562 27.5938 7.51562
L36.8125 7.51562
L36.8125 0
L27.5938 0
Q17.1875 0 13.2344 3.875
Q9.28125 7.76562 9.28125 18.0156
L9.28125 47.7031
L2.6875 47.7031
L2.6875 54.6875
L9.28125 54.6875
L9.28125 70.2188
z
" id="BitstreamVeraSans-Roman-74"/>
      <path d="
M52 44.1875
Q55.375 50.25 60.0625 53.125
Q64.75 56 71.0938 56
Q79.6406 56 84.2812 50.0156
Q88.9219 44.0469 88.9219 33.0156
L88.9219 0
L79.8906 0
L79.8906 32.7188
Q79.8906 40.5781 77.0938 44.375
Q74.3125 48.1875 68.6094 48.1875
Q61.625 48.1875 57.5625 43.5469
Q53.5156 38.9219 53.5156 30.9062
L53.5156 0
L44.4844 0
L44.4844 32.7188
Q44.4844 40.625 41.7031 44.4062
Q38.9219 48.1875 33.1094 48.1875
Q26.2188 48.1875 22.1562 43.5312
Q18.1094 38.875 18.1094 30.9062
L18.1094 0
L9.07812 0
L9.07812 54.6875
L18.1094 54.6875
L18.1094 46.1875
Q21.1875 51.2188 25.4844 53.6094
Q29.7812 56 35.6875 56
Q41.6562 56 45.8281 52.9688
Q50 49.9531 52 44.1875" id="BitstreamVeraSans-Roman-6d"/>
      <path id="BitstreamVeraSans-Roman-20"/>
      <path d="
M25.3906 72.9062
L33.6875 72.9062
L8.29688 -9.28125
L0 -9.28125
z
" id="BitstreamVeraSans-Roman-2f"/>
      <path d="
M44.2812 53.0781
L44.2812 44.5781
Q40.4844 46.5312 36.375 47.5
Q32.2812 48.4844 27.875 48.4844
Q21.1875 48.4844 17.8438 46.4375
Q14.5 44.3906 14.5 40.2812
Q14.5 37.1562 16.8906 35.375
Q19.2812 33.5938 26.5156 31.9844
L29.5938 31.2969
Q39.1562 29.25 43.1875 25.5156
Q47.2188 21.7812 47.2188 15.0938
Q47.2188 7.46875 41.1875 3.01562
Q35.1562 -1.42188 24.6094 -1.42188
Q20.2188 -1.42188 15.4531 -0.5625
Q10.6875 0.296875 5.42188 2
L5.42188 11.2812
Q10.4062 8.6875 15.2344 7.39062
Q20.0625 6.10938 24.8125 6.10938
Q31.1562 6.10938 34.5625 8.28125
Q37.9844 10.4531 37.9844 14.4062
Q37.9844 18.0625 35.5156 20.0156
Q33.0625 21.9688 24.7031 23.7812
L21.5781 24.5156
Q13.2344 26.2656 9.51562 29.9062
Q5.8125 33.5469 5.8125 39.8906
Q5.8125 47.6094 11.2812 51.7969
Q16.75 56 26.8125 56
Q31.7812 56 36.1719 55.2656
Q40.5781 54.5469 44.2812 53.0781" id="BitstreamVeraSans-Roman-73"/>
     </defs>
     <g transform="translate(425.9353125 612.931875)scale(0.12 -0.12)">
      <use xlink:href="#BitstreamVeraSans-Roman-74"/>
      <use x="39.208984375" xlink:href="#BitstreamVeraSans-Roman-20"/>
      <use x="70.99609375" xlink:href="#BitstreamVeraSans-Roman-2f"/>
      <use x="104.6875" xlink:href="#BitstreamVeraSans-Roman-20"/>
      <use x="136.474609375" xlink:href="#BitstreamVeraSans-Roman-6d"/>
      <use x="233.88671875" xlink:href="#BitstreamVeraSans-Roman-73"/>
     </g>
    </g>
   </g>
   <g id="matplotlib.axis_2">
    <g id="ytick_1">
     <g id="line2d_14">
      <defs>
       <path d="
M0 0
L4 0" id="md7965d1ba0" style="stroke:#000000;stroke-width:0.5;"/>
      </defs>
      <g>
       <use style="stroke:#000000;stroke-width:0.5;" x="108.0" xlink:href="#md7965d1ba0" y="583.2"/>
      </g>
     </g>
     <g id="line2d_15">
      <defs>
       <path d="
M0 0
L-4 0" id="md9a1c1a7cd" style="stroke:#000000;stroke-width:0.5;"/>
      </defs>
      <g>
       <use style="stroke:#000000;stroke-width:0.5;" x="777.6" xlink:href="#md9a1c1a7cd" y="583.2"/>
      </g>
     </g>
     <g id="text_7">
      <!-- 0 -->
      <g transform="translate(97.953125 586.51125)scale(0.12 -0.12)">
       <use xlink:href="#BitstreamVeraSans-Roman-30"/>
      </g>
     </g>
    </g>
    <g id="ytick_2">
     <g id="line2d_16">
      <g>
       <use style="stroke:#000000;stroke-width:0.5;" x="108.0" xlink:href="#md7965d1ba0" y="525.6"/>
      </g>
     </g>
     <g id="line2d_17">
      <g>
       <use style="stroke:#000000;stroke-width:0.5;" x="777.6" xlink:href="#md9a1c1a7cd" y="525.6"/>
      </g>
     </g>
     <g id="text_8">
      <!-- 2000 -->
      <g transform="translate(75.13625 528.91125)scale(0.12 -0.12)">
       <use xlink:href="#BitstreamVeraSans-Roman-32"/>
       <use x="63.623046875" xlink:href="#BitstreamVeraSans-Roman-30"/>
       <use x="127.24609375" xlink:href="#BitstreamVeraSans-Roman-30"/>
       <use x="190.869140625" xlink:href="#BitstreamVeraSans-Roman-30"/>
      </g>
     </g>
    </g>
    <g id="ytick_3">
     <g id="line2d_18">
      <g>
       <use style="stroke:#000000;stroke-width:0.5;" x="108.0" xlink:href="#md7965d1ba0" y="468.0"/>
      </g>
     </g>
     <g id="line2d_19">
      <g>
       <use style="stroke:#000000;stroke-width:0.5;" x="777.6" xlink:href="#md9a1c1a7cd" y="468.0"/>
      </g>
     </g>
     <g id="text_9">
      <!-- 4000 -->
      <defs>
       <path d="
M37.7969 64.3125
L12.8906 25.3906
L37.7969 25.3906
z

M35.2031 72.9062
L47.6094 72.9062
L47.6094 25.3906
L58.0156 25.3906
L58.0156 17.1875
L47.6094 17.1875
L47.6094 0
L37.7969 0
L37.7969 17.1875
L4.89062 17.1875
L4.89062 26.7031
z
" id="BitstreamVeraSans-Roman-34"/>
      </defs>
      <g transform="translate(74.84375 471.31125)scale(0.12 -0.12)">
       <use xlink:href="#BitstreamVeraSans-Roman-34"/>
       <use x="63.623046875" xlink:href="#BitstreamVeraSans-Roman-30"/>
       <use x="127.24609375" xlink:href="#BitstreamVeraSans-Roman-30"/>
       <use x="190.869140625" xlink:href="#BitstreamVeraSans-Roman-30"/>
      </g>
     </g>
    </g>
    <g id="ytick_4">
     <g id="line2d_20">
      <g>
       <use style="stroke:#000000;stroke-width:0.5;" x="108.0" xlink:href="#md7965d1ba0" y="410.4"/>
      </g>
     </g>
     <g id="line2d_21">
      <g>
       <use style="stroke:#000000;stroke-width:0.5;" x="777.6" xlink:href="#md9a1c1a7cd" y="410.4"/>
      </g>
     </g>
     <g id="text_10">
      <!-- 6000 -->
      <defs>
       <path d="
M33.0156 40.375
Q26.375 40.375 22.4844 35.8281
Q18.6094 31.2969 18.6094 23.3906
Q18.6094 15.5312 22.4844 10.9531
Q26.375 6.39062 33.0156 6.39062
Q39.6562 6.39062 43.5312 10.9531
Q47.4062 15.5312 47.4062 23.3906
Q47.4062 31.2969 43.5312 35.8281
Q39.6562 40.375 33.0156 40.375
M52.5938 71.2969
L52.5938 62.3125
Q48.875 64.0625 45.0938 64.9844
Q41.3125 65.9219 37.5938 65.9219
Q27.8281 65.9219 22.6719 59.3281
Q17.5312 52.7344 16.7969 39.4062
Q19.6719 43.6562 24.0156 45.9219
Q28.375 48.1875 33.5938 48.1875
Q44.5781 48.1875 50.9531 41.5156
Q57.3281 34.8594 57.3281 23.3906
Q57.3281 12.1562 50.6875 5.35938
Q44.0469 -1.42188 33.0156 -1.42188
Q20.3594 -1.42188 13.6719 8.26562
Q6.98438 17.9688 6.98438 36.375
Q6.98438 53.6562 15.1875 63.9375
Q23.3906 74.2188 37.2031 74.2188
Q40.9219 74.2188 44.7031 73.4844
Q48.4844 72.75 52.5938 71.2969" id="BitstreamVeraSans-Roman-36"/>
      </defs>
      <g transform="translate(75.095 413.71125)scale(0.12 -0.12)">
       <use xlink:href="#BitstreamVeraSans-Roman-36"/>
       <use x="63.623046875" xlink:href="#BitstreamVeraSans-Roman-30"/>
       <use x="127.24609375" xlink:href="#BitstreamVeraSans-Roman-30"/>
       <use x="190.869140625" xlink:href="#BitstreamVeraSans-Roman-30"/>
      </g>
     </g>
    </g>
    <g id="ytick_5">
     <g id="line2d_22">
      <g>
       <use style="stroke:#000000;stroke-width:0.5;" x="108.0" xlink:href="#md7965d1ba0" y="352.8"/>
      </g>
     </g>
     <g id="line2d_23">
      <g>
       <use style="stroke:#000000;stroke-width:0.5;" x="777.6" xlink:href="#md9a1c1a7cd" y="352.8"/>
      </g>
     </g>
     <g id="text_11">
      <!-- 8000 -->
      <defs>
       <path d="
M31.7812 34.625
Q24.75 34.625 20.7188 30.8594
Q16.7031 27.0938 16.7031 20.5156
Q16.7031 13.9219 20.7188 10.1562
Q24.75 6.39062 31.7812 6.39062
Q38.8125 6.39062 42.8594 10.1719
Q46.9219 13.9688 46.9219 20.5156
Q46.9219 27.0938 42.8906 30.8594
Q38.875 34.625 31.7812 34.625
M21.9219 38.8125
Q15.5781 40.375 12.0312 44.7188
Q8.5 49.0781 8.5 55.3281
Q8.5 64.0625 14.7188 69.1406
Q20.9531 74.2188 31.7812 74.2188
Q42.6719 74.2188 48.875 69.1406
Q55.0781 64.0625 55.0781 55.3281
Q55.0781 49.0781 51.5312 44.7188
Q48 40.375 41.7031 38.8125
Q48.8281 37.1562 52.7969 32.3125
Q56.7812 27.4844 56.7812 20.5156
Q56.7812 9.90625 50.3125 4.23438
Q43.8438 -1.42188 31.7812 -1.42188
Q19.7344 -1.42188 13.25 4.23438
Q6.78125 9.90625 6.78125 20.5156
Q6.78125 27.4844 10.7812 32.3125
Q14.7969 37.1562 21.9219 38.8125
M18.3125 54.3906
Q18.3125 48.7344 21.8438 45.5625
Q25.3906 42.3906 31.7812 42.3906
Q38.1406 42.3906 41.7188 45.5625
Q45.3125 48.7344 45.3125 54.3906
Q45.3125 60.0625 41.7188 63.2344
Q38.1406 66.4062 31.7812 66.4062
Q25.3906 66.4062 21.8438 63.2344
Q18.3125 60.0625 18.3125 54.3906" id="BitstreamVeraSans-Roman-38"/>
      </defs>
      <g transform="translate(75.070625 356.11125)scale(0.12 -0.12)">
       <use xlink:href="#BitstreamVeraSans-Roman-38"/>
       <use x="63.623046875" xlink:href="#BitstreamVeraSans-Roman-30"/>
       <use x="127.24609375" xlink:href="#BitstreamVeraSans-Roman-30"/>
       <use x="190.869140625" xlink:href="#BitstreamVeraSans-Roman-30"/>
      </g>
     </g>
    </g>
    <g id="ytick_6">
     <g id="line2d_24">
      <g>
       <use style="stroke:#000000;stroke-width:0.5;" x="108.0" xlink:href="#md7965d1ba0" y="295.2"/>
      </g>
     </g>
     <g id="line2d_25">
      <g>
       <use style="stroke:#000000;stroke-width:0.5;" x="777.6" xlink:href="#md9a1c1a7cd" y="295.2"/>
      </g>
     </g>
     <g id="text_12">
      <!-- 10000 -->
      <g transform="translate(67.94 298.51125)scale(0.12 -0.12)">
       <use xlink:href="#BitstreamVeraSans-Roman-31"/>
       <use x="63.623046875" xlink:href="#BitstreamVeraSans-Roman-30"/>
       <use x="127.24609375" xlink:href="#BitstreamVeraSans-Roman-30"/>
       <use x="190.869140625" xlink:href="#BitstreamVeraSans-Roman-30"/>
       <use x="254.4921875" xlink:href="#BitstreamVeraSans-Roman-30"/>
      </g>
     </g>
    </g>
    <g id="ytick_7">
     <g id="line2d_26">
      <g>
       <use style="stroke:#000000;stroke-width:0.5;" x="108.0" xlink:href="#md7965d1ba0" y="237.6"/>
      </g>
     </g>
     <g id="line2d_27">
      <g>
       <use style="stroke:#000000;stroke-width:0.5;" x="777.6" xlink:href="#md9a1c1a7cd" y="237.6"/>
      </g>
     </g>
     <g id="text_13">
      <!-- 12000 -->
      <g transform="translate(67.94 240.91125)scale(0.12 -0.12)">
       <use xlink:href="#BitstreamVeraSans-Roman-31"/>
       <use x="63.623046875" xlink:href="#BitstreamVeraSans-Roman-32"/>
       <use x="127.24609375" xlink:href="#BitstreamVeraSans-Roman-30"/>
       <use x="190.869140625" xlink:href="#BitstreamVeraSans-Roman-30"/>
       <use x="254.4921875" xlink:href="#BitstreamVeraSans-Roman-30"/>
      </g>
     </g>
    </g>
    <g id="ytick_8">
     <g id="line2d_28">
      <g>
       <use style="stroke:#000000;stroke-width:0.5;" x="108.0" xlink:href="#md7965d1ba0" y="180.0"/>
      </g>
     </g>
     <g id="line2d_29">
      <g>
       <use style="stroke:#000000;stroke-width:0.5;" x="777.6" xlink:href="#md9a1c1a7cd" y="180.0"/>
      </g>
     </g>
     <g id="text_14">
      <!-- 14000 -->
      <g transform="translate(67.94 183.31125)scale(0.12 -0.12)">
       <use xlink:href="#BitstreamVeraSans-Roman-31"/>
       <use x="63.623046875" xlink:href="#BitstreamVeraSans-Roman-34"/>
       <use x="127.24609375" xlink:href="#BitstreamVeraSans-Roman-30"/>
       <use x="190.869140625" xlink:href="#BitstreamVeraSans-Roman-30"/>
       <use x="254.4921875" xlink:href="#BitstreamVeraSans-Roman-30"/>
      </g>
     </g>
    </g>
    <g id="ytick_9">
     <g id="line2d_30">
      <g>
       <use style="stroke:#000000;stroke-width:0.5;" x="108.0" xlink:href="#md7965d1ba0" y="122.4"/>
      </g>
     </g>
     <g id="line2d_31">
      <g>
       <use style="stroke:#000000;stroke-width:0.5;" x="777.6" xlink:href="#md9a1c1a7cd" y="122.4"/>
      </g>
     </g>
     <g id="text_15">
      <!-- 16000 -->
      <g transform="translate(67.94 125.71125)scale(0.12 -0.12)">
       <use xlink:href="#BitstreamVeraSans-Roman-31"/>
       <use x="63.623046875" xlink:href="#BitstreamVeraSans-Roman-36"/>
       <use x="127.24609375" xlink:href="#BitstreamVeraSans-Roman-30"/>
       <use x="190.869140625" xlink:href="#BitstreamVeraSans-Roman-30"/>
       <use x="254.4921875" xlink:href="#BitstreamVeraSans-Roman-30"/>
      </g>
     </g>
    </g>
    <g id="ytick_10">
     <g id="line2d_32">
      <g>
       <use style="stroke:#000000;stroke-width:0.5;" x="108.0" xlink:href="#md7965d1ba0" y="64.8"/>
      </g>
     </g>
     <g id="line2d_33">
      <g>
       <use style="stroke:#000000;stroke-width:0.5;" x="777.6" xlink:href="#md9a1c1a7cd" y="64.8"/>
      </g>
     </g>
     <g id="text_16">
      <!-- 18000 -->
      <g transform="translate(67.94 68.11125)scale(0.12 -0.12)">
       <use xlink:href="#BitstreamVeraSans-Roman-31"/>
       <use x="63.623046875" xlink:href="#BitstreamVeraSans-Roman-38"/>
       <use x="127.24609375" xlink:href="#BitstreamVeraSans-Roman-30"/>
       <use x="190.869140625" xlink:href="#BitstreamVeraSans-Roman-30"/>
       <use x="254.4921875" xlink:href="#BitstreamVeraSans-Roman-30"/>
      </g>
     </g>
    </g>
    <g id="text_17">
     <!-- particle numbers -->
     <defs>
      <path d="
M56.2031 29.5938
L56.2031 25.2031
L14.8906 25.2031
Q15.4844 15.9219 20.4844 11.0625
Q25.4844 6.20312 34.4219 6.20312
Q39.5938 6.20312 44.4531 7.46875
Q49.3125 8.73438 54.1094 11.2812
L54.1094 2.78125
Q49.2656 0.734375 44.1875 -0.34375
Q39.1094 -1.42188 33.8906 -1.42188
Q20.7969 -1.42188 13.1562 6.1875
Q5.51562 13.8125 5.51562 26.8125
Q5.51562 40.2344 12.7656 48.1094
Q20.0156 56 32.3281 56
Q43.3594 56 49.7812 48.8906
Q56.2031 41.7969 56.2031 29.5938
M47.2188 32.2344
Q47.125 39.5938 43.0938 43.9844
Q39.0625 48.3906 32.4219 48.3906
Q24.9062 48.3906 20.3906 44.1406
Q15.875 39.8906 15.1875 32.1719
z
" id="BitstreamVeraSans-Roman-65"/>
      <path d="
M8.5 21.5781
L8.5 54.6875
L17.4844 54.6875
L17.4844 21.9219
Q17.4844 14.1562 20.5 10.2656
Q23.5312 6.39062 29.5938 6.39062
Q36.8594 6.39062 41.0781 11.0312
Q45.3125 15.6719 45.3125 23.6875
L45.3125 54.6875
L54.2969 54.6875
L54.2969 0
L45.3125 0
L45.3125 8.40625
Q42.0469 3.42188 37.7188 1
Q33.4062 -1.42188 27.6875 -1.42188
Q18.2656 -1.42188 13.375 4.4375
Q8.5 10.2969 8.5 21.5781" id="BitstreamVeraSans-Roman-75"/>
      <path d="
M48.7812 52.5938
L48.7812 44.1875
Q44.9688 46.2969 41.1406 47.3438
Q37.3125 48.3906 33.4062 48.3906
Q24.6562 48.3906 19.8125 42.8438
Q14.9844 37.3125 14.9844 27.2969
Q14.9844 17.2812 19.8125 11.7344
Q24.6562 6.20312 33.4062 6.20312
Q37.3125 6.20312 41.1406 7.25
Q44.9688 8.29688 48.7812 10.4062
L48.7812 2.09375
Q45.0156 0.34375 40.9844 -0.53125
Q36.9688 -1.42188 32.4219 -1.42188
Q20.0625 -1.42188 12.7812 6.34375
Q5.51562 14.1094 5.51562 27.2969
Q5.51562 40.6719 12.8594 48.3281
Q20.2188 56 33.0156 56
Q37.1562 56 41.1094 55.1406
Q45.0625 54.2969 48.7812 52.5938" id="BitstreamVeraSans-Roman-63"/>
      <path d="
M54.8906 33.0156
L54.8906 0
L45.9062 0
L45.9062 32.7188
Q45.9062 40.4844 42.875 44.3281
Q39.8438 48.1875 33.7969 48.1875
Q26.5156 48.1875 22.3125 43.5469
Q18.1094 38.9219 18.1094 30.9062
L18.1094 0
L9.07812 0
L9.07812 54.6875
L18.1094 54.6875
L18.1094 46.1875
Q21.3438 51.125 25.7031 53.5625
Q30.0781 56 35.7969 56
Q45.2188 56 50.0469 50.1719
Q54.8906 44.3438 54.8906 33.0156" id="BitstreamVeraSans-Roman-6e"/>
      <path d="
M41.1094 46.2969
Q39.5938 47.1719 37.8125 47.5781
Q36.0312 48 33.8906 48
Q26.2656 48 22.1875 43.0469
Q18.1094 38.0938 18.1094 28.8125
L18.1094 0
L9.07812 0
L9.07812 54.6875
L18.1094 54.6875
L18.1094 46.1875
Q20.9531 51.1719 25.4844 53.5781
Q30.0312 56 36.5312 56
Q37.4531 56 38.5781 55.875
Q39.7031 55.7656 41.0625 55.5156
z
" id="BitstreamVeraSans-Roman-72"/>
      <path d="
M18.1094 8.20312
L18.1094 -20.7969
L9.07812 -20.7969
L9.07812 54.6875
L18.1094 54.6875
L18.1094 46.3906
Q20.9531 51.2656 25.2656 53.625
Q29.5938 56 35.5938 56
Q45.5625 56 51.7812 48.0938
Q58.0156 40.1875 58.0156 27.2969
Q58.0156 14.4062 51.7812 6.48438
Q45.5625 -1.42188 35.5938 -1.42188
Q29.5938 -1.42188 25.2656 0.953125
Q20.9531 3.32812 18.1094 8.20312
M48.6875 27.2969
Q48.6875 37.2031 44.6094 42.8438
Q40.5312 48.4844 33.4062 48.4844
Q26.2656 48.4844 22.1875 42.8438
Q18.1094 37.2031 18.1094 27.2969
Q18.1094 17.3906 22.1875 11.75
Q26.2656 6.10938 33.4062 6.10938
Q40.5312 6.10938 44.6094 11.75
Q48.6875 17.3906 48.6875 27.2969" id="BitstreamVeraSans-Roman-70"/>
      <path d="
M9.42188 54.6875
L18.4062 54.6875
L18.4062 0
L9.42188 0
z

M9.42188 75.9844
L18.4062 75.9844
L18.4062 64.5938
L9.42188 64.5938
z
" id="BitstreamVeraSans-Roman-69"/>
      <path d="
M34.2812 27.4844
Q23.3906 27.4844 19.1875 25
Q14.9844 22.5156 14.9844 16.5
Q14.9844 11.7188 18.1406 8.90625
Q21.2969 6.10938 26.7031 6.10938
Q34.1875 6.10938 38.7031 11.4062
Q43.2188 16.7031 43.2188 25.4844
L43.2188 27.4844
z

M52.2031 31.2031
L52.2031 0
L43.2188 0
L43.2188 8.29688
Q40.1406 3.32812 35.5469 0.953125
Q30.9531 -1.42188 24.3125 -1.42188
Q15.9219 -1.42188 10.9531 3.29688
Q6 8.01562 6 15.9219
Q6 25.1406 12.1719 29.8281
Q18.3594 34.5156 30.6094 34.5156
L43.2188 34.5156
L43.2188 35.4062
Q43.2188 41.6094 39.1406 45
Q35.0625 48.3906 27.6875 48.3906
Q23 48.3906 18.5469 47.2656
Q14.1094 46.1406 10.0156 43.8906
L10.0156 52.2031
Q14.9375 54.1094 19.5781 55.0469
Q24.2188 56 28.6094 56
Q40.4844 56 46.3438 49.8438
Q52.2031 43.7031 52.2031 31.2031" id="BitstreamVeraSans-Roman-61"/>
      <path d="
M48.6875 27.2969
Q48.6875 37.2031 44.6094 42.8438
Q40.5312 48.4844 33.4062 48.4844
Q26.2656 48.4844 22.1875 42.8438
Q18.1094 37.2031 18.1094 27.2969
Q18.1094 17.3906 22.1875 11.75
Q26.2656 6.10938 33.4062 6.10938
Q40.5312 6.10938 44.6094 11.75
Q48.6875 17.3906 48.6875 27.2969
M18.1094 46.3906
Q20.9531 51.2656 25.2656 53.625
Q29.5938 56 35.5938 56
Q45.5625 56 51.7812 48.0938
Q58.0156 40.1875 58.0156 27.2969
Q58.0156 14.4062 51.7812 6.48438
Q45.5625 -1.42188 35.5938 -1.42188
Q29.5938 -1.42188 25.2656 0.953125
Q20.9531 3.32812 18.1094 8.20312
L18.1094 0
L9.07812 0
L9.07812 75.9844
L18.1094 75.9844
z
" id="BitstreamVeraSans-Roman-62"/>
      <path d="
M9.42188 75.9844
L18.4062 75.9844
L18.4062 0
L9.42188 0
z
" id="BitstreamVeraSans-Roman-6c"/>
     </defs>
     <g transform="translate(60.444375 374.78625)rotate(-90.0)scale(0.12 -0.12)">
      <use xlink:href="#BitstreamVeraSans-Roman-70"/>
      <use x="63.4765625" xlink:href="#BitstreamVeraSans-Roman-61"/>
      <use x="124.755859375" xlink:href="#BitstreamVeraSans-Roman-72"/>
      <use x="165.869140625" xlink:href="#BitstreamVeraSans-Roman-74"/>
      <use x="205.078125" xlink:href="#BitstreamVeraSans-Roman-69"/>
      <use x="232.861328125" xlink:href="#BitstreamVeraSans-Roman-63"/>
      <use x="287.841796875" xlink:href="#BitstreamVeraSans-Roman-6c"/>
      <use x="315.625" xlink:href="#BitstreamVeraSans-Roman-65"/>
      <use x="377.1484375" xlink:href="#BitstreamVeraSans-Roman-20"/>
      <use x="408.935546875" xlink:href="#BitstreamVeraSans-Roman-6e"/>
      <use x="472.314453125" xlink:href="#BitstreamVeraSans-Roman-75"/>
      <use x="535.693359375" xlink:href="#BitstreamVeraSans-Roman-6d"/>
      <use x="633.10546875" xlink:href="#BitstreamVeraSans-Roman-62"/>
      <use x="696.58203125" xlink:href="#BitstreamVeraSans-Roman-65"/>
      <use x="758.10546875" xlink:href="#BitstreamVeraSans-Roman-72"/>
      <use x="799.21875" xlink:href="#BitstreamVeraSans-Roman-73"/>
     </g>
    </g>
   </g>
   <g id="legend_1">
    <g id="patch_7">
     <path d="
M715.312 101.224
L774.1 101.224
L774.1 68.3
L715.312 68.3
z
" style="fill:#ffffff;stroke:#000000;stroke-linejoin:miter;"/>
    </g>
    <g id="line2d_34">
     <path d="
M720.212 73.9689
L730.012 73.9689" style="fill:none;stroke:#ff0000;stroke-linecap:square;"/>
    </g>
    <g id="line2d_35"/>
    <g id="text_18">
     <!-- cAMP el.0 -->
     <defs>
      <path d="
M9.8125 72.9062
L24.5156 72.9062
L43.1094 23.2969
L61.8125 72.9062
L76.5156 72.9062
L76.5156 0
L66.8906 0
L66.8906 64.0156
L48.0938 14.0156
L38.1875 14.0156
L19.3906 64.0156
L19.3906 0
L9.8125 0
z
" id="BitstreamVeraSans-Roman-4d"/>
      <path d="
M34.1875 63.1875
L20.7969 26.9062
L47.6094 26.9062
z

M28.6094 72.9062
L39.7969 72.9062
L67.5781 0
L57.3281 0
L50.6875 18.7031
L17.8281 18.7031
L11.1875 0
L0.78125 0
z
" id="BitstreamVeraSans-Roman-41"/>
      <path d="
M10.6875 12.4062
L21 12.4062
L21 0
L10.6875 0
z
" id="BitstreamVeraSans-Roman-2e"/>
      <path d="
M19.6719 64.7969
L19.6719 37.4062
L32.0781 37.4062
Q38.9688 37.4062 42.7188 40.9688
Q46.4844 44.5312 46.4844 51.125
Q46.4844 57.6719 42.7188 61.2344
Q38.9688 64.7969 32.0781 64.7969
z

M9.8125 72.9062
L32.0781 72.9062
Q44.3438 72.9062 50.6094 67.3594
Q56.8906 61.8125 56.8906 51.125
Q56.8906 40.3281 50.6094 34.8125
Q44.3438 29.2969 32.0781 29.2969
L19.6719 29.2969
L19.6719 0
L9.8125 0
z
" id="BitstreamVeraSans-Roman-50"/>
     </defs>
     <g transform="translate(737.71203125 76.41890625)scale(0.07 -0.07)">
      <use xlink:href="#BitstreamVeraSans-Roman-63"/>
      <use x="54.98046875" xlink:href="#BitstreamVeraSans-Roman-41"/>
      <use x="123.388671875" xlink:href="#BitstreamVeraSans-Roman-4d"/>
      <use x="209.66796875" xlink:href="#BitstreamVeraSans-Roman-50"/>
      <use x="269.970703125" xlink:href="#BitstreamVeraSans-Roman-20"/>
      <use x="301.7578125" xlink:href="#BitstreamVeraSans-Roman-65"/>
      <use x="363.28125" xlink:href="#BitstreamVeraSans-Roman-6c"/>
      <use x="391.064453125" xlink:href="#BitstreamVeraSans-Roman-2e"/>
      <use x="422.8515625" xlink:href="#BitstreamVeraSans-Roman-30"/>
     </g>
    </g>
    <g id="line2d_36">
     <path d="
M720.212 84.2436
L730.012 84.2436" style="fill:none;stroke:#008000;stroke-linecap:square;"/>
    </g>
    <g id="line2d_37"/>
    <g id="text_19">
     <!-- cAMP el.1 -->
     <g transform="translate(737.71203125 86.69359375)scale(0.07 -0.07)">
      <use xlink:href="#BitstreamVeraSans-Roman-63"/>
      <use x="54.98046875" xlink:href="#BitstreamVeraSans-Roman-41"/>
      <use x="123.388671875" xlink:href="#BitstreamVeraSans-Roman-4d"/>
      <use x="209.66796875" xlink:href="#BitstreamVeraSans-Roman-50"/>
      <use x="269.970703125" xlink:href="#BitstreamVeraSans-Roman-20"/>
      <use x="301.7578125" xlink:href="#BitstreamVeraSans-Roman-65"/>
      <use x="363.28125" xlink:href="#BitstreamVeraSans-Roman-6c"/>
      <use x="391.064453125" xlink:href="#BitstreamVeraSans-Roman-2e"/>
      <use x="422.8515625" xlink:href="#BitstreamVeraSans-Roman-31"/>
     </g>
    </g>
    <g id="line2d_38">
     <path d="
M720.212 94.5183
L730.012 94.5183" style="fill:none;stroke:#0000ff;stroke-linecap:square;"/>
    </g>
    <g id="line2d_39"/>
    <g id="text_20">
     <!-- cAMP el.2 -->
     <g transform="translate(737.71203125 96.96828125)scale(0.07 -0.07)">
      <use xlink:href="#BitstreamVeraSans-Roman-63"/>
      <use x="54.98046875" xlink:href="#BitstreamVeraSans-Roman-41"/>
      <use x="123.388671875" xlink:href="#BitstreamVeraSans-Roman-4d"/>
      <use x="209.66796875" xlink:href="#BitstreamVeraSans-Roman-50"/>
      <use x="269.970703125" xlink:href="#BitstreamVeraSans-Roman-20"/>
      <use x="301.7578125" xlink:href="#BitstreamVeraSans-Roman-65"/>
      <use x="363.28125" xlink:href="#BitstreamVeraSans-Roman-6c"/>
      <use x="391.064453125" xlink:href="#BitstreamVeraSans-Roman-2e"/>
      <use x="422.8515625" xlink:href="#BitstreamVeraSans-Roman-32"/>
     </g>
    </g>
   </g>
  </g>
 </g>
 <defs>
  <clipPath id="p7ceb695115">
   <rect height="518.4" width="669.6" x="108.0" y="64.8"/>
  </clipPath>
 </defs>
</svg>
