<?xml version="1.0" encoding="utf-8" standalone="no"?>
<!DOCTYPE svg PUBLIC "-//W3C//DTD SVG 1.1//EN"
  "http://www.w3.org/Graphics/SVG/1.1/DTD/svg11.dtd">
<!-- Created with matplotlib (http://matplotlib.org/) -->
<svg height="648pt" version="1.1" viewBox="0 0 864 648" width="864pt" xmlns="http://www.w3.org/2000/svg" xmlns:xlink="http://www.w3.org/1999/xlink">
 <defs>
  <style type="text/css">
*{stroke-linecap:butt;stroke-linejoin:round;}
  </style>
 </defs>
 <g id="figure_1">
  <g id="patch_1">
   <path d="
M0 648
L864 648
L864 0
L0 0
z
" style="fill:#ffffff;"/>
  </g>
  <g id="axes_1">
   <g id="patch_2">
    <path d="
M108 583.2
L777.6 583.2
L777.6 64.8
L108 64.8
z
" style="fill:#ffffff;"/>
   </g>
   <g id="line2d_1">
    <path clip-path="url(#p7ceb695115)" d="
M108 583.2
L563.998 583.2
L564.667 554.4
L565.337 583.2
L566.006 554.4
L570.024 554.4
L570.694 496.8
L572.033 496.8
L572.702 525.6
L573.372 496.8
L576.05 496.8
L576.72 525.6
L577.39 525.6
L578.059 496.8
L578.729 554.4
L580.068 496.8
L584.086 496.8
L584.755 554.4
L585.425 496.8
L586.094 525.6
L586.764 496.8
L592.121 496.8
L592.79 468
L593.46 468
L594.13 496.8
L594.799 468
L595.469 496.8
L596.808 496.8
L597.478 468
L598.147 468
L598.817 496.8
L599.486 468
L602.165 468
L603.504 525.6
L604.843 468
L605.513 496.8
L606.182 496.8
L606.852 468
L607.522 496.8
L608.191 468
L612.209 468
L612.878 496.8
L613.548 496.8
L614.218 468
L616.896 468
L617.566 496.8
L618.235 496.8
L618.905 468
L619.574 468
L620.244 439.2
L621.583 439.2
L622.253 468
L622.922 468
L623.592 496.8
L624.262 439.2
L624.931 439.2
L625.601 468
L626.94 468
L627.61 496.8
L628.279 439.2
L628.949 468
L629.618 468
L630.288 439.2
L630.958 439.2
L631.627 468
L632.297 439.2
L632.966 439.2
L634.306 496.8
L634.975 439.2
L635.645 525.6
L636.314 439.2
L636.984 468
L637.654 439.2
L638.323 525.6
L638.993 468
L639.662 496.8
L640.332 439.2
L641.002 468
L641.671 439.2
L642.341 468
L643.01 468
L643.68 439.2
L644.35 496.8
L645.019 525.6
L645.689 468
L646.358 468
L647.028 439.2
L647.698 496.8
L649.037 439.2
L649.706 381.6
L650.376 410.4
L651.046 410.4
L652.385 468
L653.054 439.2
L653.724 468
L655.063 410.4
L655.733 468
L656.402 439.2
L657.072 496.8
L657.742 410.4
L658.411 381.6
L659.081 439.2
L659.75 381.6
L660.42 439.2
L661.09 410.4
L661.759 410.4
L662.429 468
L663.768 468
L664.438 410.4
L665.107 381.6
L665.777 381.6
L666.446 410.4
L667.116 381.6
L669.125 468
L669.794 468
L670.464 381.6
L671.134 439.2
L671.803 468
L672.473 468
L673.142 410.4
L675.151 496.8
L675.821 410.4
L676.49 439.2
L677.83 439.2
L678.499 381.6
L679.169 468
L679.838 439.2
L680.508 439.2
L681.178 381.6
L683.186 468
L683.856 381.6
L684.526 352.8
L685.865 410.4
L686.534 410.4
L687.204 381.6
L687.874 439.2
L688.543 410.4
L689.213 439.2
L689.882 381.6
L690.552 410.4
L691.222 468
L691.891 381.6
L692.561 381.6
L693.23 352.8
L693.9 381.6
L695.239 381.6
L696.578 439.2
L697.248 381.6
L697.918 439.2
L698.587 410.4
L699.257 352.8
L699.926 468
L700.596 381.6
L701.266 439.2
L701.935 381.6
L702.605 410.4
L703.274 410.4
L704.614 352.8
L705.283 381.6
L705.953 439.2
L706.622 439.2
L707.292 352.8
L707.962 468
L708.631 410.4
L709.301 410.4
L709.97 352.8
L710.64 410.4
L711.979 410.4
L712.649 352.8
L713.318 468
L713.988 352.8
L714.658 439.2
L715.327 324
L715.997 410.4
L716.666 410.4
L717.336 439.2
L718.006 439.2
L718.675 352.8
L719.345 381.6
L720.014 439.2
L721.354 439.2
L722.023 352.8
L722.693 352.8
L723.362 410.4
L724.032 410.4
L724.702 439.2
L725.371 410.4
L726.041 410.4
L726.71 352.8
L727.38 468
L728.05 381.6
L728.719 324
L729.389 381.6
L730.058 295.2
L730.728 468
L731.398 381.6
L732.067 352.8
L732.737 381.6
L733.406 381.6
L734.076 352.8
L734.746 295.2
L736.085 410.4
L736.754 439.2
L737.424 410.4
L738.094 439.2
L739.433 381.6
L740.102 439.2
L740.772 468
L741.442 295.2
L742.111 381.6
L742.781 410.4
L743.45 352.8
L744.12 410.4
L744.79 439.2
L745.459 410.4
L746.129 352.8
L746.798 439.2
L747.468 352.8
L748.138 381.6
L748.807 352.8
L749.477 439.2
L750.146 410.4
L750.816 439.2
L751.486 439.2
L752.825 496.8
L753.494 468
L754.164 410.4
L754.834 410.4
L755.503 381.6
L756.173 381.6
L756.842 410.4
L757.512 381.6
L758.182 496.8
L758.851 352.8
L759.521 468
L760.19 410.4
L760.86 381.6
L761.53 496.8
L762.199 496.8
L762.869 352.8
L763.538 410.4
L764.208 410.4
L764.878 381.6
L765.547 496.8
L766.217 410.4
L766.886 439.2
L767.556 439.2
L768.226 468
L768.895 410.4
L769.565 439.2
L770.234 410.4
L770.904 496.8
L771.574 496.8
L772.243 381.6
L772.913 410.4
L773.582 352.8
L774.252 439.2
L774.922 410.4
L775.591 468
L776.261 324
L776.93 439.2
L777.6 410.4
L777.6 410.4" style="fill:none;stroke:#ff0000;stroke-linecap:square;"/>
   </g>
   <g id="line2d_2">
    <path clip-path="url(#p7ceb695115)" d="
M108 583.2
L444.139 583.2
L444.809 554.4
L445.478 583.2
L446.148 554.4
L446.818 583.2
L447.487 554.4
L448.157 583.2
L448.826 554.4
L450.166 554.4
L450.835 583.2
L451.505 554.4
L480.298 554.4
L480.967 583.2
L481.637 554.4
L484.985 554.4
L485.654 583.2
L486.324 554.4
L486.994 554.4
L487.663 583.2
L488.333 554.4
L493.02 554.4
L493.69 583.2
L494.359 554.4
L495.029 554.4
L495.698 583.2
L496.368 554.4
L501.725 554.4
L502.394 583.2
L503.734 525.6
L504.403 554.4
L505.073 525.6
L506.412 525.6
L507.082 583.2
L507.751 525.6
L508.421 496.8
L510.43 496.8
L511.099 554.4
L511.769 496.8
L513.778 496.8
L514.447 554.4
L515.117 496.8
L517.795 496.8
L518.465 525.6
L519.134 496.8
L522.482 496.8
L523.152 525.6
L523.822 496.8
L525.161 496.8
L525.83 468
L526.5 525.6
L527.17 468
L527.839 468
L529.178 525.6
L529.848 468
L531.857 468
L532.526 525.6
L533.196 496.8
L533.866 496.8
L534.535 468
L536.544 468
L537.214 496.8
L537.883 468
L543.91 468
L544.579 496.8
L545.249 468
L547.258 468
L547.927 496.8
L548.597 496.8
L549.936 439.2
L551.945 439.2
L552.614 468
L553.284 439.2
L556.632 439.2
L557.302 468
L557.971 468
L558.641 439.2
L559.31 439.2
L559.98 496.8
L560.65 439.2
L561.319 439.2
L561.989 468
L562.658 439.2
L563.328 468
L563.998 468
L564.667 439.2
L565.337 439.2
L566.006 468
L566.676 468
L567.346 439.2
L568.015 468
L568.685 468
L569.354 439.2
L570.024 439.2
L570.694 468
L572.702 468
L573.372 439.2
L574.042 468
L574.711 468
L575.381 439.2
L576.05 468
L576.72 468
L577.39 439.2
L580.068 439.2
L580.738 410.4
L581.407 468
L582.746 410.4
L585.425 410.4
L586.094 381.6
L586.764 381.6
L587.434 324
L588.773 381.6
L589.442 381.6
L590.112 352.8
L590.782 352.8
L591.451 324
L592.121 352.8
L592.79 352.8
L593.46 410.4
L594.13 352.8
L596.808 352.8
L597.478 324
L598.147 324
L598.817 410.4
L599.486 352.8
L600.826 295.2
L601.495 295.2
L602.165 324
L603.504 324
L604.174 352.8
L604.843 295.2
L606.182 352.8
L606.852 352.8
L607.522 266.4
L608.191 324
L608.861 266.4
L609.53 266.4
L610.87 324
L611.539 295.2
L613.548 295.2
L614.218 266.4
L614.887 295.2
L615.557 237.6
L616.226 266.4
L616.896 266.4
L617.566 352.8
L618.235 237.6
L618.905 266.4
L619.574 266.4
L620.244 324
L620.914 352.8
L621.583 295.2
L622.253 352.8
L623.592 237.6
L624.931 295.2
L625.601 381.6
L626.94 324
L627.61 266.4
L628.279 295.2
L628.949 237.6
L629.618 266.4
L630.288 352.8
L630.958 237.6
L631.627 237.6
L632.297 266.4
L632.966 324
L633.636 266.4
L634.306 295.2
L634.975 295.2
L635.645 352.8
L636.314 295.2
L636.984 352.8
L637.654 266.4
L638.323 295.2
L638.993 266.4
L639.662 266.4
L640.332 295.2
L641.671 295.2
L642.341 266.4
L643.01 324
L643.68 266.4
L644.35 352.8
L645.019 324
L645.689 352.8
L646.358 266.4
L647.028 237.6
L647.698 266.4
L649.706 266.4
L650.376 237.6
L651.046 237.6
L651.715 324
L652.385 237.6
L653.054 352.8
L653.724 266.4
L654.394 266.4
L655.063 237.6
L655.733 151.2
L656.402 208.8
L657.072 208.8
L657.742 237.6
L658.411 180
L659.081 151.2
L659.75 180
L660.42 237.6
L661.09 237.6
L661.759 208.8
L662.429 237.6
L663.098 295.2
L663.768 266.4
L664.438 208.8
L665.107 266.4
L665.777 295.2
L666.446 266.4
L667.116 324
L667.786 208.8
L668.455 208.8
L669.125 237.6
L669.794 237.6
L670.464 122.4
L671.134 208.8
L672.473 151.2
L673.142 208.8
L674.482 151.2
L675.151 151.2
L675.821 208.8
L676.49 151.2
L677.16 208.8
L677.83 180
L678.499 237.6
L679.169 122.4
L679.838 180
L680.508 208.8
L681.178 208.8
L681.847 237.6
L682.517 180
L683.186 180
L683.856 208.8
L684.526 180
L685.195 208.8
L685.865 208.8
L686.534 180
L687.204 237.6
L687.874 208.8
L688.543 266.4
L689.213 122.4
L689.882 324
L691.222 208.8
L691.891 208.8
L692.561 151.2
L693.23 237.6
L693.9 266.4
L694.57 180
L695.239 208.8
L695.909 180
L696.578 266.4
L697.248 151.2
L697.918 151.2
L698.587 237.6
L699.257 208.8
L701.266 295.2
L701.935 266.4
L702.605 122.4
L703.274 266.4
L704.614 93.6
L705.283 266.4
L705.953 208.8
L706.622 180
L707.292 93.6
L707.962 180
L709.301 237.6
L709.97 237.6
L710.64 352.8
L711.31 324
L711.979 237.6
L712.649 295.2
L713.318 266.4
L713.988 266.4
L714.658 151.2
L715.327 266.4
L715.997 208.8
L716.666 180
L717.336 237.6
L718.006 237.6
L718.675 208.8
L719.345 266.4
L720.014 208.8
L720.684 352.8
L721.354 295.2
L722.023 295.2
L722.693 324
L723.362 266.4
L724.032 237.6
L724.702 295.2
L725.371 324
L726.041 324
L726.71 295.2
L727.38 352.8
L728.05 324
L728.719 266.4
L729.389 151.2
L730.058 237.6
L730.728 295.2
L731.398 266.4
L732.067 180
L733.406 352.8
L734.076 295.2
L734.746 352.8
L735.415 266.4
L736.085 410.4
L736.754 410.4
L737.424 266.4
L738.094 352.8
L738.763 295.2
L739.433 208.8
L740.102 352.8
L740.772 352.8
L741.442 266.4
L742.111 266.4
L742.781 324
L743.45 324
L744.12 180
L744.79 439.2
L745.459 352.8
L746.129 295.2
L746.798 324
L747.468 410.4
L748.138 439.2
L748.807 266.4
L749.477 266.4
L750.146 410.4
L750.816 237.6
L751.486 352.8
L752.155 352.8
L752.825 381.6
L753.494 381.6
L754.164 410.4
L754.834 410.4
L755.503 324
L756.173 352.8
L756.842 439.2
L758.182 381.6
L758.851 381.6
L759.521 324
L760.19 410.4
L760.86 439.2
L761.53 381.6
L762.199 352.8
L762.869 381.6
L763.538 324
L764.208 352.8
L764.878 410.4
L765.547 381.6
L766.217 381.6
L766.886 295.2
L767.556 381.6
L768.226 381.6
L768.895 439.2
L772.243 295.2
L772.913 381.6
L773.582 496.8
L775.591 324
L776.261 381.6
L776.93 295.2
L777.6 468
L777.6 468" style="fill:none;stroke:#008000;stroke-linecap:square;"/>
   </g>
   <g id="line2d_3">
    <path clip-path="url(#p7ceb695115)" d="
M108 583.2
L511.099 583.2
L511.769 554.4
L522.482 554.4
L523.152 583.2
L523.822 554.4
L529.848 554.4
L530.518 583.2
L531.187 554.4
L532.526 554.4
L533.196 583.2
L533.866 583.2
L534.535 525.6
L536.544 525.6
L537.214 554.4
L537.883 554.4
L538.553 525.6
L539.222 554.4
L539.892 525.6
L540.562 525.6
L541.231 554.4
L541.901 525.6
L543.91 525.6
L544.579 554.4
L545.249 525.6
L546.588 525.6
L547.258 554.4
L547.927 525.6
L549.266 525.6
L549.936 554.4
L550.606 525.6
L552.614 525.6
L553.284 554.4
L553.954 525.6
L554.623 554.4
L555.293 554.4
L555.962 525.6
L557.971 525.6
L558.641 496.8
L563.998 496.8
L564.667 525.6
L565.337 525.6
L566.006 496.8
L566.676 496.8
L567.346 525.6
L568.015 496.8
L568.685 496.8
L569.354 554.4
L570.024 496.8
L570.694 525.6
L571.363 496.8
L572.033 496.8
L572.702 525.6
L573.372 496.8
L575.381 496.8
L576.05 525.6
L576.72 496.8
L579.398 496.8
L580.068 525.6
L580.738 496.8
L581.407 525.6
L582.077 496.8
L584.086 496.8
L585.425 554.4
L586.094 496.8
L586.764 583.2
L587.434 496.8
L588.103 525.6
L588.773 525.6
L589.442 496.8
L591.451 496.8
L592.121 468
L592.79 525.6
L593.46 496.8
L594.13 496.8
L594.799 468
L595.469 468
L596.138 496.8
L596.808 496.8
L597.478 468
L598.147 496.8
L598.817 468
L600.826 468
L601.495 496.8
L602.834 439.2
L603.504 496.8
L604.174 439.2
L604.843 439.2
L605.513 468
L606.182 439.2
L606.852 439.2
L607.522 496.8
L608.191 439.2
L608.861 439.2
L609.53 468
L610.2 439.2
L610.87 439.2
L611.539 468
L612.209 439.2
L614.887 439.2
L615.557 468
L618.235 468
L618.905 439.2
L620.244 439.2
L621.583 496.8
L622.922 496.8
L624.262 439.2
L624.931 439.2
L625.601 468
L626.94 468
L627.61 439.2
L628.279 468
L628.949 439.2
L630.288 439.2
L630.958 496.8
L631.627 468
L632.966 468
L633.636 439.2
L634.306 468
L636.314 468
L636.984 496.8
L637.654 496.8
L638.323 439.2
L638.993 496.8
L639.662 439.2
L640.332 468
L641.002 439.2
L641.671 439.2
L642.341 468
L643.01 439.2
L643.68 468
L644.35 468
L645.019 439.2
L647.028 439.2
L647.698 468
L648.367 410.4
L649.037 439.2
L649.706 410.4
L650.376 525.6
L651.046 439.2
L652.385 439.2
L653.054 410.4
L654.394 468
L655.063 439.2
L655.733 439.2
L656.402 410.4
L658.411 410.4
L659.081 439.2
L661.09 439.2
L661.759 468
L662.429 410.4
L663.098 439.2
L663.768 496.8
L664.438 410.4
L665.107 410.4
L665.777 468
L666.446 468
L667.116 439.2
L667.786 468
L668.455 468
L669.794 410.4
L670.464 410.4
L671.134 468
L671.803 439.2
L673.142 439.2
L673.812 410.4
L674.482 496.8
L675.151 439.2
L675.821 468
L676.49 439.2
L677.16 554.4
L677.83 468
L678.499 410.4
L679.169 468
L679.838 468
L680.508 496.8
L681.178 410.4
L681.847 468
L682.517 468
L683.186 496.8
L683.856 439.2
L684.526 439.2
L685.195 468
L687.204 468
L687.874 410.4
L688.543 468
L689.213 468
L689.882 496.8
L690.552 410.4
L691.222 468
L692.561 468
L693.23 496.8
L693.9 439.2
L694.57 439.2
L695.239 525.6
L695.909 439.2
L696.578 410.4
L697.248 525.6
L697.918 439.2
L698.587 468
L699.257 410.4
L700.596 410.4
L701.266 439.2
L701.935 496.8
L702.605 410.4
L703.274 468
L703.944 410.4
L704.614 496.8
L705.283 410.4
L705.953 439.2
L706.622 439.2
L707.292 410.4
L707.962 496.8
L708.631 439.2
L709.301 439.2
L709.97 352.8
L710.64 352.8
L711.31 381.6
L711.979 381.6
L713.318 496.8
L713.988 410.4
L714.658 352.8
L715.997 468
L716.666 352.8
L717.336 410.4
L718.006 439.2
L718.675 381.6
L719.345 381.6
L720.014 468
L720.684 381.6
L721.354 410.4
L722.023 410.4
L722.693 439.2
L723.362 381.6
L725.371 381.6
L726.041 468
L726.71 352.8
L727.38 352.8
L728.05 410.4
L728.719 410.4
L729.389 468
L730.058 295.2
L730.728 410.4
L731.398 410.4
L732.067 324
L733.406 439.2
L734.076 352.8
L735.415 410.4
L736.085 352.8
L736.754 352.8
L737.424 381.6
L738.094 468
L738.763 410.4
L739.433 324
L740.102 410.4
L740.772 352.8
L741.442 381.6
L742.781 381.6
L743.45 410.4
L744.12 410.4
L744.79 525.6
L746.129 352.8
L746.798 468
L747.468 410.4
L748.138 324
L748.807 468
L749.477 410.4
L750.146 496.8
L750.816 324
L751.486 410.4
L752.155 410.4
L752.825 496.8
L753.494 410.4
L755.503 324
L756.173 381.6
L756.842 381.6
L757.512 439.2
L758.182 439.2
L759.521 381.6
L760.19 381.6
L760.86 468
L761.53 439.2
L762.199 468
L763.538 410.4
L764.208 468
L764.878 468
L765.547 381.6
L766.217 410.4
L766.886 468
L767.556 410.4
L768.226 439.2
L768.895 525.6
L769.565 439.2
L770.234 410.4
L770.904 468
L772.243 468
L773.582 525.6
L774.252 439.2
L775.591 496.8
L776.93 496.8
L777.6 468
L777.6 468" style="fill:none;stroke:#0000ff;stroke-linecap:square;"/>
   </g>
   <g id="patch_3">
    <path d="
M108 583.2
L108 64.8" style="fill:none;stroke:#000000;stroke-linecap:square;stroke-linejoin:miter;"/>
   </g>
   <g id="patch_4">
    <path d="
M108 64.8
L777.6 64.8" style="fill:none;stroke:#000000;stroke-linecap:square;stroke-linejoin:miter;"/>
   </g>
   <g id="patch_5">
    <path d="
M108 583.2
L777.6 583.2" style="fill:none;stroke:#000000;stroke-linecap:square;stroke-linejoin:miter;"/>
   </g>
   <g id="patch_6">
    <path d="
M777.6 583.2
L777.6 64.8" style="fill:none;stroke:#000000;stroke-linecap:square;stroke-linejoin:miter;"/>
   </g>
   <g id="matplotlib.axis_1">
    <g id="xtick_1">
     <g id="line2d_4">
      <defs>
       <path d="
M0 0
L0 -4" id="mc7db9fdffb" style="stroke:#000000;stroke-width:0.5;"/>
      </defs>
      <g>
       <use style="stroke:#000000;stroke-width:0.5;" x="108.0" xlink:href="#mc7db9fdffb" y="583.2"/>
      </g>
     </g>
     <g id="line2d_5">
      <defs>
       <path d="
M0 0
L0 4" id="m5a7d422ac3" style="stroke:#000000;stroke-width:0.5;"/>
      </defs>
      <g>
       <use style="stroke:#000000;stroke-width:0.5;" x="108.0" xlink:href="#m5a7d422ac3" y="64.8"/>
      </g>
     </g>
     <g id="text_1">
      <!-- 0 -->
      <defs>
       <path d="
M31.7812 66.4062
Q24.1719 66.4062 20.3281 58.9062
Q16.5 51.4219 16.5 36.375
Q16.5 21.3906 20.3281 13.8906
Q24.1719 6.39062 31.7812 6.39062
Q39.4531 6.39062 43.2812 13.8906
Q47.125 21.3906 47.125 36.375
Q47.125 51.4219 43.2812 58.9062
Q39.4531 66.4062 31.7812 66.4062
M31.7812 74.2188
Q44.0469 74.2188 50.5156 64.5156
Q56.9844 54.8281 56.9844 36.375
Q56.9844 17.9688 50.5156 8.26562
Q44.0469 -1.42188 31.7812 -1.42188
Q19.5312 -1.42188 13.0625 8.26562
Q6.59375 17.9688 6.59375 36.375
Q6.59375 54.8281 13.0625 64.5156
Q19.5312 74.2188 31.7812 74.2188" id="BitstreamVeraSans-Roman-30"/>
      </defs>
      <g transform="translate(104.9765625 596.318125)scale(0.12 -0.12)">
       <use xlink:href="#BitstreamVeraSans-Roman-30"/>
      </g>
     </g>
    </g>
    <g id="xtick_2">
     <g id="line2d_6">
      <g>
       <use style="stroke:#000000;stroke-width:0.5;" x="275.4" xlink:href="#mc7db9fdffb" y="583.2"/>
      </g>
     </g>
     <g id="line2d_7">
      <g>
       <use style="stroke:#000000;stroke-width:0.5;" x="275.4" xlink:href="#m5a7d422ac3" y="64.8"/>
      </g>
     </g>
     <g id="text_2">
      <!-- 50000 -->
      <defs>
       <path d="
M10.7969 72.9062
L49.5156 72.9062
L49.5156 64.5938
L19.8281 64.5938
L19.8281 46.7344
Q21.9688 47.4688 24.1094 47.8281
Q26.2656 48.1875 28.4219 48.1875
Q40.625 48.1875 47.75 41.5
Q54.8906 34.8125 54.8906 23.3906
Q54.8906 11.625 47.5625 5.09375
Q40.2344 -1.42188 26.9062 -1.42188
Q22.3125 -1.42188 17.5469 -0.640625
Q12.7969 0.140625 7.71875 1.70312
L7.71875 11.625
Q12.1094 9.23438 16.7969 8.0625
Q21.4844 6.89062 26.7031 6.89062
Q35.1562 6.89062 40.0781 11.3281
Q45.0156 15.7656 45.0156 23.3906
Q45.0156 31 40.0781 35.4375
Q35.1562 39.8906 26.7031 39.8906
Q22.75 39.8906 18.8125 39.0156
Q14.8906 38.1406 10.7969 36.2812
z
" id="BitstreamVeraSans-Roman-35"/>
      </defs>
      <g transform="translate(257.1740625 596.318125)scale(0.12 -0.12)">
       <use xlink:href="#BitstreamVeraSans-Roman-35"/>
       <use x="63.623046875" xlink:href="#BitstreamVeraSans-Roman-30"/>
       <use x="127.24609375" xlink:href="#BitstreamVeraSans-Roman-30"/>
       <use x="190.869140625" xlink:href="#BitstreamVeraSans-Roman-30"/>
       <use x="254.4921875" xlink:href="#BitstreamVeraSans-Roman-30"/>
      </g>
     </g>
    </g>
    <g id="xtick_3">
     <g id="line2d_8">
      <g>
       <use style="stroke:#000000;stroke-width:0.5;" x="442.8" xlink:href="#mc7db9fdffb" y="583.2"/>
      </g>
     </g>
     <g id="line2d_9">
      <g>
       <use style="stroke:#000000;stroke-width:0.5;" x="442.8" xlink:href="#m5a7d422ac3" y="64.8"/>
      </g>
     </g>
     <g id="text_3">
      <!-- 100000 -->
      <defs>
       <path d="
M12.4062 8.29688
L28.5156 8.29688
L28.5156 63.9219
L10.9844 60.4062
L10.9844 69.3906
L28.4219 72.9062
L38.2812 72.9062
L38.2812 8.29688
L54.3906 8.29688
L54.3906 0
L12.4062 0
z
" id="BitstreamVeraSans-Roman-31"/>
      </defs>
      <g transform="translate(420.9525 596.318125)scale(0.12 -0.12)">
       <use xlink:href="#BitstreamVeraSans-Roman-31"/>
       <use x="63.623046875" xlink:href="#BitstreamVeraSans-Roman-30"/>
       <use x="127.24609375" xlink:href="#BitstreamVeraSans-Roman-30"/>
       <use x="190.869140625" xlink:href="#BitstreamVeraSans-Roman-30"/>
       <use x="254.4921875" xlink:href="#BitstreamVeraSans-Roman-30"/>
       <use x="318.115234375" xlink:href="#BitstreamVeraSans-Roman-30"/>
      </g>
     </g>
    </g>
    <g id="xtick_4">
     <g id="line2d_10">
      <g>
       <use style="stroke:#000000;stroke-width:0.5;" x="610.2" xlink:href="#mc7db9fdffb" y="583.2"/>
      </g>
     </g>
     <g id="line2d_11">
      <g>
       <use style="stroke:#000000;stroke-width:0.5;" x="610.2" xlink:href="#m5a7d422ac3" y="64.8"/>
      </g>
     </g>
     <g id="text_4">
      <!-- 150000 -->
      <g transform="translate(588.3525 596.318125)scale(0.12 -0.12)">
       <use xlink:href="#BitstreamVeraSans-Roman-31"/>
       <use x="63.623046875" xlink:href="#BitstreamVeraSans-Roman-35"/>
       <use x="127.24609375" xlink:href="#BitstreamVeraSans-Roman-30"/>
       <use x="190.869140625" xlink:href="#BitstreamVeraSans-Roman-30"/>
       <use x="254.4921875" xlink:href="#BitstreamVeraSans-Roman-30"/>
       <use x="318.115234375" xlink:href="#BitstreamVeraSans-Roman-30"/>
      </g>
     </g>
    </g>
    <g id="xtick_5">
     <g id="line2d_12">
      <g>
       <use style="stroke:#000000;stroke-width:0.5;" x="777.6" xlink:href="#mc7db9fdffb" y="583.2"/>
      </g>
     </g>
     <g id="line2d_13">
      <g>
       <use style="stroke:#000000;stroke-width:0.5;" x="777.6" xlink:href="#m5a7d422ac3" y="64.8"/>
      </g>
     </g>
     <g id="text_5">
      <!-- 200000 -->
      <defs>
       <path d="
M19.1875 8.29688
L53.6094 8.29688
L53.6094 0
L7.32812 0
L7.32812 8.29688
Q12.9375 14.1094 22.625 23.8906
Q32.3281 33.6875 34.8125 36.5312
Q39.5469 41.8438 41.4219 45.5312
Q43.3125 49.2188 43.3125 52.7812
Q43.3125 58.5938 39.2344 62.25
Q35.1562 65.9219 28.6094 65.9219
Q23.9688 65.9219 18.8125 64.3125
Q13.6719 62.7031 7.8125 59.4219
L7.8125 69.3906
Q13.7656 71.7812 18.9375 73
Q24.125 74.2188 28.4219 74.2188
Q39.75 74.2188 46.4844 68.5469
Q53.2188 62.8906 53.2188 53.4219
Q53.2188 48.9219 51.5312 44.8906
Q49.8594 40.875 45.4062 35.4062
Q44.1875 33.9844 37.6406 27.2188
Q31.1094 20.4531 19.1875 8.29688" id="BitstreamVeraSans-Roman-32"/>
      </defs>
      <g transform="translate(755.533125 596.318125)scale(0.12 -0.12)">
       <use xlink:href="#BitstreamVeraSans-Roman-32"/>
       <use x="63.623046875" xlink:href="#BitstreamVeraSans-Roman-30"/>
       <use x="127.24609375" xlink:href="#BitstreamVeraSans-Roman-30"/>
       <use x="190.869140625" xlink:href="#BitstreamVeraSans-Roman-30"/>
       <use x="254.4921875" xlink:href="#BitstreamVeraSans-Roman-30"/>
       <use x="318.115234375" xlink:href="#BitstreamVeraSans-Roman-30"/>
      </g>
     </g>
    </g>
    <g id="text_6">
     <!-- t / ms -->
     <defs>
      <path d="
M18.3125 70.2188
L18.3125 54.6875
L36.8125 54.6875
L36.8125 47.7031
L18.3125 47.7031
L18.3125 18.0156
Q18.3125 11.3281 20.1406 9.42188
Q21.9688 7.51562 27.5938 7.51562
L36.8125 7.51562
L36.8125 0
L27.5938 0
Q17.1875 0 13.2344 3.875
Q9.28125 7.76562 9.28125 18.0156
L9.28125 47.7031
L2.6875 47.7031
L2.6875 54.6875
L9.28125 54.6875
L9.28125 70.2188
z
" id="BitstreamVeraSans-Roman-74"/>
      <path d="
M52 44.1875
Q55.375 50.25 60.0625 53.125
Q64.75 56 71.0938 56
Q79.6406 56 84.2812 50.0156
Q88.9219 44.0469 88.9219 33.0156
L88.9219 0
L79.8906 0
L79.8906 32.7188
Q79.8906 40.5781 77.0938 44.375
Q74.3125 48.1875 68.6094 48.1875
Q61.625 48.1875 57.5625 43.5469
Q53.5156 38.9219 53.5156 30.9062
L53.5156 0
L44.4844 0
L44.4844 32.7188
Q44.4844 40.625 41.7031 44.4062
Q38.9219 48.1875 33.1094 48.1875
Q26.2188 48.1875 22.1562 43.5312
Q18.1094 38.875 18.1094 30.9062
L18.1094 0
L9.07812 0
L9.07812 54.6875
L18.1094 54.6875
L18.1094 46.1875
Q21.1875 51.2188 25.4844 53.6094
Q29.7812 56 35.6875 56
Q41.6562 56 45.8281 52.9688
Q50 49.9531 52 44.1875" id="BitstreamVeraSans-Roman-6d"/>
      <path d="
M44.2812 53.0781
L44.2812 44.5781
Q40.4844 46.5312 36.375 47.5
Q32.2812 48.4844 27.875 48.4844
Q21.1875 48.4844 17.8438 46.4375
Q14.5 44.3906 14.5 40.2812
Q14.5 37.1562 16.8906 35.375
Q19.2812 33.5938 26.5156 31.9844
L29.5938 31.2969
Q39.1562 29.25 43.1875 25.5156
Q47.2188 21.7812 47.2188 15.0938
Q47.2188 7.46875 41.1875 3.01562
Q35.1562 -1.42188 24.6094 -1.42188
Q20.2188 -1.42188 15.4531 -0.5625
Q10.6875 0.296875 5.42188 2
L5.42188 11.2812
Q10.4062 8.6875 15.2344 7.39062
Q20.0625 6.10938 24.8125 6.10938
Q31.1562 6.10938 34.5625 8.28125
Q37.9844 10.4531 37.9844 14.4062
Q37.9844 18.0625 35.5156 20.0156
Q33.0625 21.9688 24.7031 23.7812
L21.5781 24.5156
Q13.2344 26.2656 9.51562 29.9062
Q5.8125 33.5469 5.8125 39.8906
Q5.8125 47.6094 11.2812 51.7969
Q16.75 56 26.8125 56
Q31.7812 56 36.1719 55.2656
Q40.5781 54.5469 44.2812 53.0781" id="BitstreamVeraSans-Roman-73"/>
      <path id="BitstreamVeraSans-Roman-20"/>
      <path d="
M25.3906 72.9062
L33.6875 72.9062
L8.29688 -9.28125
L0 -9.28125
z
" id="BitstreamVeraSans-Roman-2f"/>
     </defs>
     <g transform="translate(425.9353125 612.931875)scale(0.12 -0.12)">
      <use xlink:href="#BitstreamVeraSans-Roman-74"/>
      <use x="39.208984375" xlink:href="#BitstreamVeraSans-Roman-20"/>
      <use x="70.99609375" xlink:href="#BitstreamVeraSans-Roman-2f"/>
      <use x="104.6875" xlink:href="#BitstreamVeraSans-Roman-20"/>
      <use x="136.474609375" xlink:href="#BitstreamVeraSans-Roman-6d"/>
      <use x="233.88671875" xlink:href="#BitstreamVeraSans-Roman-73"/>
     </g>
    </g>
   </g>
   <g id="matplotlib.axis_2">
    <g id="ytick_1">
     <g id="line2d_14">
      <defs>
       <path d="
M0 0
L4 0" id="md7965d1ba0" style="stroke:#000000;stroke-width:0.5;"/>
      </defs>
      <g>
       <use style="stroke:#000000;stroke-width:0.5;" x="108.0" xlink:href="#md7965d1ba0" y="583.2"/>
      </g>
     </g>
     <g id="line2d_15">
      <defs>
       <path d="
M0 0
L-4 0" id="md9a1c1a7cd" style="stroke:#000000;stroke-width:0.5;"/>
      </defs>
      <g>
       <use style="stroke:#000000;stroke-width:0.5;" x="777.6" xlink:href="#md9a1c1a7cd" y="583.2"/>
      </g>
     </g>
     <g id="text_7">
      <!-- 0 -->
      <g transform="translate(97.953125 586.51125)scale(0.12 -0.12)">
       <use xlink:href="#BitstreamVeraSans-Roman-30"/>
      </g>
     </g>
    </g>
    <g id="ytick_2">
     <g id="line2d_16">
      <g>
       <use style="stroke:#000000;stroke-width:0.5;" x="108.0" xlink:href="#md7965d1ba0" y="525.6"/>
      </g>
     </g>
     <g id="line2d_17">
      <g>
       <use style="stroke:#000000;stroke-width:0.5;" x="777.6" xlink:href="#md9a1c1a7cd" y="525.6"/>
      </g>
     </g>
     <g id="text_8">
      <!-- 2 -->
      <g transform="translate(98.44625 528.91125)scale(0.12 -0.12)">
       <use xlink:href="#BitstreamVeraSans-Roman-32"/>
      </g>
     </g>
    </g>
    <g id="ytick_3">
     <g id="line2d_18">
      <g>
       <use style="stroke:#000000;stroke-width:0.5;" x="108.0" xlink:href="#md7965d1ba0" y="468.0"/>
      </g>
     </g>
     <g id="line2d_19">
      <g>
       <use style="stroke:#000000;stroke-width:0.5;" x="777.6" xlink:href="#md9a1c1a7cd" y="468.0"/>
      </g>
     </g>
     <g id="text_9">
      <!-- 4 -->
      <defs>
       <path d="
M37.7969 64.3125
L12.8906 25.3906
L37.7969 25.3906
z

M35.2031 72.9062
L47.6094 72.9062
L47.6094 25.3906
L58.0156 25.3906
L58.0156 17.1875
L47.6094 17.1875
L47.6094 0
L37.7969 0
L37.7969 17.1875
L4.89062 17.1875
L4.89062 26.7031
z
" id="BitstreamVeraSans-Roman-34"/>
      </defs>
      <g transform="translate(97.625 471.31125)scale(0.12 -0.12)">
       <use xlink:href="#BitstreamVeraSans-Roman-34"/>
      </g>
     </g>
    </g>
    <g id="ytick_4">
     <g id="line2d_20">
      <g>
       <use style="stroke:#000000;stroke-width:0.5;" x="108.0" xlink:href="#md7965d1ba0" y="410.4"/>
      </g>
     </g>
     <g id="line2d_21">
      <g>
       <use style="stroke:#000000;stroke-width:0.5;" x="777.6" xlink:href="#md9a1c1a7cd" y="410.4"/>
      </g>
     </g>
     <g id="text_10">
      <!-- 6 -->
      <defs>
       <path d="
M33.0156 40.375
Q26.375 40.375 22.4844 35.8281
Q18.6094 31.2969 18.6094 23.3906
Q18.6094 15.5312 22.4844 10.9531
Q26.375 6.39062 33.0156 6.39062
Q39.6562 6.39062 43.5312 10.9531
Q47.4062 15.5312 47.4062 23.3906
Q47.4062 31.2969 43.5312 35.8281
Q39.6562 40.375 33.0156 40.375
M52.5938 71.2969
L52.5938 62.3125
Q48.875 64.0625 45.0938 64.9844
Q41.3125 65.9219 37.5938 65.9219
Q27.8281 65.9219 22.6719 59.3281
Q17.5312 52.7344 16.7969 39.4062
Q19.6719 43.6562 24.0156 45.9219
Q28.375 48.1875 33.5938 48.1875
Q44.5781 48.1875 50.9531 41.5156
Q57.3281 34.8594 57.3281 23.3906
Q57.3281 12.1562 50.6875 5.35938
Q44.0469 -1.42188 33.0156 -1.42188
Q20.3594 -1.42188 13.6719 8.26562
Q6.98438 17.9688 6.98438 36.375
Q6.98438 53.6562 15.1875 63.9375
Q23.3906 74.2188 37.2031 74.2188
Q40.9219 74.2188 44.7031 73.4844
Q48.4844 72.75 52.5938 71.2969" id="BitstreamVeraSans-Roman-36"/>
      </defs>
      <g transform="translate(97.95875 413.71125)scale(0.12 -0.12)">
       <use xlink:href="#BitstreamVeraSans-Roman-36"/>
      </g>
     </g>
    </g>
    <g id="ytick_5">
     <g id="line2d_22">
      <g>
       <use style="stroke:#000000;stroke-width:0.5;" x="108.0" xlink:href="#md7965d1ba0" y="352.8"/>
      </g>
     </g>
     <g id="line2d_23">
      <g>
       <use style="stroke:#000000;stroke-width:0.5;" x="777.6" xlink:href="#md9a1c1a7cd" y="352.8"/>
      </g>
     </g>
     <g id="text_11">
      <!-- 8 -->
      <defs>
       <path d="
M31.7812 34.625
Q24.75 34.625 20.7188 30.8594
Q16.7031 27.0938 16.7031 20.5156
Q16.7031 13.9219 20.7188 10.1562
Q24.75 6.39062 31.7812 6.39062
Q38.8125 6.39062 42.8594 10.1719
Q46.9219 13.9688 46.9219 20.5156
Q46.9219 27.0938 42.8906 30.8594
Q38.875 34.625 31.7812 34.625
M21.9219 38.8125
Q15.5781 40.375 12.0312 44.7188
Q8.5 49.0781 8.5 55.3281
Q8.5 64.0625 14.7188 69.1406
Q20.9531 74.2188 31.7812 74.2188
Q42.6719 74.2188 48.875 69.1406
Q55.0781 64.0625 55.0781 55.3281
Q55.0781 49.0781 51.5312 44.7188
Q48 40.375 41.7031 38.8125
Q48.8281 37.1562 52.7969 32.3125
Q56.7812 27.4844 56.7812 20.5156
Q56.7812 9.90625 50.3125 4.23438
Q43.8438 -1.42188 31.7812 -1.42188
Q19.7344 -1.42188 13.25 4.23438
Q6.78125 9.90625 6.78125 20.5156
Q6.78125 27.4844 10.7812 32.3125
Q14.7969 37.1562 21.9219 38.8125
M18.3125 54.3906
Q18.3125 48.7344 21.8438 45.5625
Q25.3906 42.3906 31.7812 42.3906
Q38.1406 42.3906 41.7188 45.5625
Q45.3125 48.7344 45.3125 54.3906
Q45.3125 60.0625 41.7188 63.2344
Q38.1406 66.4062 31.7812 66.4062
Q25.3906 66.4062 21.8438 63.2344
Q18.3125 60.0625 18.3125 54.3906" id="BitstreamVeraSans-Roman-38"/>
      </defs>
      <g transform="translate(98.0 356.11125)scale(0.12 -0.12)">
       <use xlink:href="#BitstreamVeraSans-Roman-38"/>
      </g>
     </g>
    </g>
    <g id="ytick_6">
     <g id="line2d_24">
      <g>
       <use style="stroke:#000000;stroke-width:0.5;" x="108.0" xlink:href="#md7965d1ba0" y="295.2"/>
      </g>
     </g>
     <g id="line2d_25">
      <g>
       <use style="stroke:#000000;stroke-width:0.5;" x="777.6" xlink:href="#md9a1c1a7cd" y="295.2"/>
      </g>
     </g>
     <g id="text_12">
      <!-- 10 -->
      <g transform="translate(90.845 298.51125)scale(0.12 -0.12)">
       <use xlink:href="#BitstreamVeraSans-Roman-31"/>
       <use x="63.623046875" xlink:href="#BitstreamVeraSans-Roman-30"/>
      </g>
     </g>
    </g>
    <g id="ytick_7">
     <g id="line2d_26">
      <g>
       <use style="stroke:#000000;stroke-width:0.5;" x="108.0" xlink:href="#md7965d1ba0" y="237.6"/>
      </g>
     </g>
     <g id="line2d_27">
      <g>
       <use style="stroke:#000000;stroke-width:0.5;" x="777.6" xlink:href="#md9a1c1a7cd" y="237.6"/>
      </g>
     </g>
     <g id="text_13">
      <!-- 12 -->
      <g transform="translate(91.25 240.91125)scale(0.12 -0.12)">
       <use xlink:href="#BitstreamVeraSans-Roman-31"/>
       <use x="63.623046875" xlink:href="#BitstreamVeraSans-Roman-32"/>
      </g>
     </g>
    </g>
    <g id="ytick_8">
     <g id="line2d_28">
      <g>
       <use style="stroke:#000000;stroke-width:0.5;" x="108.0" xlink:href="#md7965d1ba0" y="180.0"/>
      </g>
     </g>
     <g id="line2d_29">
      <g>
       <use style="stroke:#000000;stroke-width:0.5;" x="777.6" xlink:href="#md9a1c1a7cd" y="180.0"/>
      </g>
     </g>
     <g id="text_14">
      <!-- 14 -->
      <g transform="translate(90.72125 183.31125)scale(0.12 -0.12)">
       <use xlink:href="#BitstreamVeraSans-Roman-31"/>
       <use x="63.623046875" xlink:href="#BitstreamVeraSans-Roman-34"/>
      </g>
     </g>
    </g>
    <g id="ytick_9">
     <g id="line2d_30">
      <g>
       <use style="stroke:#000000;stroke-width:0.5;" x="108.0" xlink:href="#md7965d1ba0" y="122.4"/>
      </g>
     </g>
     <g id="line2d_31">
      <g>
       <use style="stroke:#000000;stroke-width:0.5;" x="777.6" xlink:href="#md9a1c1a7cd" y="122.4"/>
      </g>
     </g>
     <g id="text_15">
      <!-- 16 -->
      <g transform="translate(90.80375 125.71125)scale(0.12 -0.12)">
       <use xlink:href="#BitstreamVeraSans-Roman-31"/>
       <use x="63.623046875" xlink:href="#BitstreamVeraSans-Roman-36"/>
      </g>
     </g>
    </g>
    <g id="ytick_10">
     <g id="line2d_32">
      <g>
       <use style="stroke:#000000;stroke-width:0.5;" x="108.0" xlink:href="#md7965d1ba0" y="64.8"/>
      </g>
     </g>
     <g id="line2d_33">
      <g>
       <use style="stroke:#000000;stroke-width:0.5;" x="777.6" xlink:href="#md9a1c1a7cd" y="64.8"/>
      </g>
     </g>
     <g id="text_16">
      <!-- 18 -->
      <g transform="translate(90.869375 68.11125)scale(0.12 -0.12)">
       <use xlink:href="#BitstreamVeraSans-Roman-31"/>
       <use x="63.623046875" xlink:href="#BitstreamVeraSans-Roman-38"/>
      </g>
     </g>
    </g>
    <g id="text_17">
     <!-- particle numbers -->
     <defs>
      <path d="
M9.42188 54.6875
L18.4062 54.6875
L18.4062 0
L9.42188 0
z

M9.42188 75.9844
L18.4062 75.9844
L18.4062 64.5938
L9.42188 64.5938
z
" id="BitstreamVeraSans-Roman-69"/>
      <path d="
M54.8906 33.0156
L54.8906 0
L45.9062 0
L45.9062 32.7188
Q45.9062 40.4844 42.875 44.3281
Q39.8438 48.1875 33.7969 48.1875
Q26.5156 48.1875 22.3125 43.5469
Q18.1094 38.9219 18.1094 30.9062
L18.1094 0
L9.07812 0
L9.07812 54.6875
L18.1094 54.6875
L18.1094 46.1875
Q21.3438 51.125 25.7031 53.5625
Q30.0781 56 35.7969 56
Q45.2188 56 50.0469 50.1719
Q54.8906 44.3438 54.8906 33.0156" id="BitstreamVeraSans-Roman-6e"/>
      <path d="
M8.5 21.5781
L8.5 54.6875
L17.4844 54.6875
L17.4844 21.9219
Q17.4844 14.1562 20.5 10.2656
Q23.5312 6.39062 29.5938 6.39062
Q36.8594 6.39062 41.0781 11.0312
Q45.3125 15.6719 45.3125 23.6875
L45.3125 54.6875
L54.2969 54.6875
L54.2969 0
L45.3125 0
L45.3125 8.40625
Q42.0469 3.42188 37.7188 1
Q33.4062 -1.42188 27.6875 -1.42188
Q18.2656 -1.42188 13.375 4.4375
Q8.5 10.2969 8.5 21.5781" id="BitstreamVeraSans-Roman-75"/>
      <path d="
M41.1094 46.2969
Q39.5938 47.1719 37.8125 47.5781
Q36.0312 48 33.8906 48
Q26.2656 48 22.1875 43.0469
Q18.1094 38.0938 18.1094 28.8125
L18.1094 0
L9.07812 0
L9.07812 54.6875
L18.1094 54.6875
L18.1094 46.1875
Q20.9531 51.1719 25.4844 53.5781
Q30.0312 56 36.5312 56
Q37.4531 56 38.5781 55.875
Q39.7031 55.7656 41.0625 55.5156
z
" id="BitstreamVeraSans-Roman-72"/>
      <path d="
M9.42188 75.9844
L18.4062 75.9844
L18.4062 0
L9.42188 0
z
" id="BitstreamVeraSans-Roman-6c"/>
      <path d="
M56.2031 29.5938
L56.2031 25.2031
L14.8906 25.2031
Q15.4844 15.9219 20.4844 11.0625
Q25.4844 6.20312 34.4219 6.20312
Q39.5938 6.20312 44.4531 7.46875
Q49.3125 8.73438 54.1094 11.2812
L54.1094 2.78125
Q49.2656 0.734375 44.1875 -0.34375
Q39.1094 -1.42188 33.8906 -1.42188
Q20.7969 -1.42188 13.1562 6.1875
Q5.51562 13.8125 5.51562 26.8125
Q5.51562 40.2344 12.7656 48.1094
Q20.0156 56 32.3281 56
Q43.3594 56 49.7812 48.8906
Q56.2031 41.7969 56.2031 29.5938
M47.2188 32.2344
Q47.125 39.5938 43.0938 43.9844
Q39.0625 48.3906 32.4219 48.3906
Q24.9062 48.3906 20.3906 44.1406
Q15.875 39.8906 15.1875 32.1719
z
" id="BitstreamVeraSans-Roman-65"/>
      <path d="
M34.2812 27.4844
Q23.3906 27.4844 19.1875 25
Q14.9844 22.5156 14.9844 16.5
Q14.9844 11.7188 18.1406 8.90625
Q21.2969 6.10938 26.7031 6.10938
Q34.1875 6.10938 38.7031 11.4062
Q43.2188 16.7031 43.2188 25.4844
L43.2188 27.4844
z

M52.2031 31.2031
L52.2031 0
L43.2188 0
L43.2188 8.29688
Q40.1406 3.32812 35.5469 0.953125
Q30.9531 -1.42188 24.3125 -1.42188
Q15.9219 -1.42188 10.9531 3.29688
Q6 8.01562 6 15.9219
Q6 25.1406 12.1719 29.8281
Q18.3594 34.5156 30.6094 34.5156
L43.2188 34.5156
L43.2188 35.4062
Q43.2188 41.6094 39.1406 45
Q35.0625 48.3906 27.6875 48.3906
Q23 48.3906 18.5469 47.2656
Q14.1094 46.1406 10.0156 43.8906
L10.0156 52.2031
Q14.9375 54.1094 19.5781 55.0469
Q24.2188 56 28.6094 56
Q40.4844 56 46.3438 49.8438
Q52.2031 43.7031 52.2031 31.2031" id="BitstreamVeraSans-Roman-61"/>
      <path d="
M48.7812 52.5938
L48.7812 44.1875
Q44.9688 46.2969 41.1406 47.3438
Q37.3125 48.3906 33.4062 48.3906
Q24.6562 48.3906 19.8125 42.8438
Q14.9844 37.3125 14.9844 27.2969
Q14.9844 17.2812 19.8125 11.7344
Q24.6562 6.20312 33.4062 6.20312
Q37.3125 6.20312 41.1406 7.25
Q44.9688 8.29688 48.7812 10.4062
L48.7812 2.09375
Q45.0156 0.34375 40.9844 -0.53125
Q36.9688 -1.42188 32.4219 -1.42188
Q20.0625 -1.42188 12.7812 6.34375
Q5.51562 14.1094 5.51562 27.2969
Q5.51562 40.6719 12.8594 48.3281
Q20.2188 56 33.0156 56
Q37.1562 56 41.1094 55.1406
Q45.0625 54.2969 48.7812 52.5938" id="BitstreamVeraSans-Roman-63"/>
      <path d="
M18.1094 8.20312
L18.1094 -20.7969
L9.07812 -20.7969
L9.07812 54.6875
L18.1094 54.6875
L18.1094 46.3906
Q20.9531 51.2656 25.2656 53.625
Q29.5938 56 35.5938 56
Q45.5625 56 51.7812 48.0938
Q58.0156 40.1875 58.0156 27.2969
Q58.0156 14.4062 51.7812 6.48438
Q45.5625 -1.42188 35.5938 -1.42188
Q29.5938 -1.42188 25.2656 0.953125
Q20.9531 3.32812 18.1094 8.20312
M48.6875 27.2969
Q48.6875 37.2031 44.6094 42.8438
Q40.5312 48.4844 33.4062 48.4844
Q26.2656 48.4844 22.1875 42.8438
Q18.1094 37.2031 18.1094 27.2969
Q18.1094 17.3906 22.1875 11.75
Q26.2656 6.10938 33.4062 6.10938
Q40.5312 6.10938 44.6094 11.75
Q48.6875 17.3906 48.6875 27.2969" id="BitstreamVeraSans-Roman-70"/>
      <path d="
M48.6875 27.2969
Q48.6875 37.2031 44.6094 42.8438
Q40.5312 48.4844 33.4062 48.4844
Q26.2656 48.4844 22.1875 42.8438
Q18.1094 37.2031 18.1094 27.2969
Q18.1094 17.3906 22.1875 11.75
Q26.2656 6.10938 33.4062 6.10938
Q40.5312 6.10938 44.6094 11.75
Q48.6875 17.3906 48.6875 27.2969
M18.1094 46.3906
Q20.9531 51.2656 25.2656 53.625
Q29.5938 56 35.5938 56
Q45.5625 56 51.7812 48.0938
Q58.0156 40.1875 58.0156 27.2969
Q58.0156 14.4062 51.7812 6.48438
Q45.5625 -1.42188 35.5938 -1.42188
Q29.5938 -1.42188 25.2656 0.953125
Q20.9531 3.32812 18.1094 8.20312
L18.1094 0
L9.07812 0
L9.07812 75.9844
L18.1094 75.9844
z
" id="BitstreamVeraSans-Roman-62"/>
     </defs>
     <g transform="translate(83.225625 374.78625)rotate(-90.0)scale(0.12 -0.12)">
      <use xlink:href="#BitstreamVeraSans-Roman-70"/>
      <use x="63.4765625" xlink:href="#BitstreamVeraSans-Roman-61"/>
      <use x="124.755859375" xlink:href="#BitstreamVeraSans-Roman-72"/>
      <use x="165.869140625" xlink:href="#BitstreamVeraSans-Roman-74"/>
      <use x="205.078125" xlink:href="#BitstreamVeraSans-Roman-69"/>
      <use x="232.861328125" xlink:href="#BitstreamVeraSans-Roman-63"/>
      <use x="287.841796875" xlink:href="#BitstreamVeraSans-Roman-6c"/>
      <use x="315.625" xlink:href="#BitstreamVeraSans-Roman-65"/>
      <use x="377.1484375" xlink:href="#BitstreamVeraSans-Roman-20"/>
      <use x="408.935546875" xlink:href="#BitstreamVeraSans-Roman-6e"/>
      <use x="472.314453125" xlink:href="#BitstreamVeraSans-Roman-75"/>
      <use x="535.693359375" xlink:href="#BitstreamVeraSans-Roman-6d"/>
      <use x="633.10546875" xlink:href="#BitstreamVeraSans-Roman-62"/>
      <use x="696.58203125" xlink:href="#BitstreamVeraSans-Roman-65"/>
      <use x="758.10546875" xlink:href="#BitstreamVeraSans-Roman-72"/>
      <use x="799.21875" xlink:href="#BitstreamVeraSans-Roman-73"/>
     </g>
    </g>
   </g>
   <g id="legend_1">
    <g id="patch_7">
     <path d="
M111.5 101.224
L197.673 101.224
L197.673 68.3
L111.5 68.3
z
" style="fill:#ffffff;stroke:#000000;stroke-linejoin:miter;"/>
    </g>
    <g id="line2d_34">
     <path d="
M116.4 73.9689
L126.2 73.9689" style="fill:none;stroke:#ff0000;stroke-linecap:square;"/>
    </g>
    <g id="line2d_35"/>
    <g id="text_18">
     <!-- pPDE10cAMP el.0 -->
     <defs>
      <path d="
M9.8125 72.9062
L24.5156 72.9062
L43.1094 23.2969
L61.8125 72.9062
L76.5156 72.9062
L76.5156 0
L66.8906 0
L66.8906 64.0156
L48.0938 14.0156
L38.1875 14.0156
L19.3906 64.0156
L19.3906 0
L9.8125 0
z
" id="BitstreamVeraSans-Roman-4d"/>
      <path d="
M9.8125 72.9062
L55.9062 72.9062
L55.9062 64.5938
L19.6719 64.5938
L19.6719 43.0156
L54.3906 43.0156
L54.3906 34.7188
L19.6719 34.7188
L19.6719 8.29688
L56.7812 8.29688
L56.7812 0
L9.8125 0
z
" id="BitstreamVeraSans-Roman-45"/>
      <path d="
M19.6719 64.7969
L19.6719 37.4062
L32.0781 37.4062
Q38.9688 37.4062 42.7188 40.9688
Q46.4844 44.5312 46.4844 51.125
Q46.4844 57.6719 42.7188 61.2344
Q38.9688 64.7969 32.0781 64.7969
z

M9.8125 72.9062
L32.0781 72.9062
Q44.3438 72.9062 50.6094 67.3594
Q56.8906 61.8125 56.8906 51.125
Q56.8906 40.3281 50.6094 34.8125
Q44.3438 29.2969 32.0781 29.2969
L19.6719 29.2969
L19.6719 0
L9.8125 0
z
" id="BitstreamVeraSans-Roman-50"/>
      <path d="
M10.6875 12.4062
L21 12.4062
L21 0
L10.6875 0
z
" id="BitstreamVeraSans-Roman-2e"/>
      <path d="
M19.6719 64.7969
L19.6719 8.10938
L31.5938 8.10938
Q46.6875 8.10938 53.6875 14.9375
Q60.6875 21.7812 60.6875 36.5312
Q60.6875 51.1719 53.6875 57.9844
Q46.6875 64.7969 31.5938 64.7969
z

M9.8125 72.9062
L30.0781 72.9062
Q51.2656 72.9062 61.1719 64.0938
Q71.0938 55.2812 71.0938 36.5312
Q71.0938 17.6719 61.125 8.82812
Q51.1719 0 30.0781 0
L9.8125 0
z
" id="BitstreamVeraSans-Roman-44"/>
      <path d="
M34.1875 63.1875
L20.7969 26.9062
L47.6094 26.9062
z

M28.6094 72.9062
L39.7969 72.9062
L67.5781 0
L57.3281 0
L50.6875 18.7031
L17.8281 18.7031
L11.1875 0
L0.78125 0
z
" id="BitstreamVeraSans-Roman-41"/>
     </defs>
     <g transform="translate(133.9 76.41890625)scale(0.07 -0.07)">
      <use xlink:href="#BitstreamVeraSans-Roman-70"/>
      <use x="63.4765625" xlink:href="#BitstreamVeraSans-Roman-50"/>
      <use x="123.779296875" xlink:href="#BitstreamVeraSans-Roman-44"/>
      <use x="200.78125" xlink:href="#BitstreamVeraSans-Roman-45"/>
      <use x="263.96484375" xlink:href="#BitstreamVeraSans-Roman-31"/>
      <use x="327.587890625" xlink:href="#BitstreamVeraSans-Roman-30"/>
      <use x="391.2109375" xlink:href="#BitstreamVeraSans-Roman-63"/>
      <use x="446.19140625" xlink:href="#BitstreamVeraSans-Roman-41"/>
      <use x="514.599609375" xlink:href="#BitstreamVeraSans-Roman-4d"/>
      <use x="600.87890625" xlink:href="#BitstreamVeraSans-Roman-50"/>
      <use x="661.181640625" xlink:href="#BitstreamVeraSans-Roman-20"/>
      <use x="692.96875" xlink:href="#BitstreamVeraSans-Roman-65"/>
      <use x="754.4921875" xlink:href="#BitstreamVeraSans-Roman-6c"/>
      <use x="782.275390625" xlink:href="#BitstreamVeraSans-Roman-2e"/>
      <use x="814.0625" xlink:href="#BitstreamVeraSans-Roman-30"/>
     </g>
    </g>
    <g id="line2d_36">
     <path d="
M116.4 84.2436
L126.2 84.2436" style="fill:none;stroke:#008000;stroke-linecap:square;"/>
    </g>
    <g id="line2d_37"/>
    <g id="text_19">
     <!-- pPDE10cAMP el.1 -->
     <g transform="translate(133.9 86.69359375)scale(0.07 -0.07)">
      <use xlink:href="#BitstreamVeraSans-Roman-70"/>
      <use x="63.4765625" xlink:href="#BitstreamVeraSans-Roman-50"/>
      <use x="123.779296875" xlink:href="#BitstreamVeraSans-Roman-44"/>
      <use x="200.78125" xlink:href="#BitstreamVeraSans-Roman-45"/>
      <use x="263.96484375" xlink:href="#BitstreamVeraSans-Roman-31"/>
      <use x="327.587890625" xlink:href="#BitstreamVeraSans-Roman-30"/>
      <use x="391.2109375" xlink:href="#BitstreamVeraSans-Roman-63"/>
      <use x="446.19140625" xlink:href="#BitstreamVeraSans-Roman-41"/>
      <use x="514.599609375" xlink:href="#BitstreamVeraSans-Roman-4d"/>
      <use x="600.87890625" xlink:href="#BitstreamVeraSans-Roman-50"/>
      <use x="661.181640625" xlink:href="#BitstreamVeraSans-Roman-20"/>
      <use x="692.96875" xlink:href="#BitstreamVeraSans-Roman-65"/>
      <use x="754.4921875" xlink:href="#BitstreamVeraSans-Roman-6c"/>
      <use x="782.275390625" xlink:href="#BitstreamVeraSans-Roman-2e"/>
      <use x="814.0625" xlink:href="#BitstreamVeraSans-Roman-31"/>
     </g>
    </g>
    <g id="line2d_38">
     <path d="
M116.4 94.5183
L126.2 94.5183" style="fill:none;stroke:#0000ff;stroke-linecap:square;"/>
    </g>
    <g id="line2d_39"/>
    <g id="text_20">
     <!-- pPDE10cAMP el.2 -->
     <g transform="translate(133.9 96.96828125)scale(0.07 -0.07)">
      <use xlink:href="#BitstreamVeraSans-Roman-70"/>
      <use x="63.4765625" xlink:href="#BitstreamVeraSans-Roman-50"/>
      <use x="123.779296875" xlink:href="#BitstreamVeraSans-Roman-44"/>
      <use x="200.78125" xlink:href="#BitstreamVeraSans-Roman-45"/>
      <use x="263.96484375" xlink:href="#BitstreamVeraSans-Roman-31"/>
      <use x="327.587890625" xlink:href="#BitstreamVeraSans-Roman-30"/>
      <use x="391.2109375" xlink:href="#BitstreamVeraSans-Roman-63"/>
      <use x="446.19140625" xlink:href="#BitstreamVeraSans-Roman-41"/>
      <use x="514.599609375" xlink:href="#BitstreamVeraSans-Roman-4d"/>
      <use x="600.87890625" xlink:href="#BitstreamVeraSans-Roman-50"/>
      <use x="661.181640625" xlink:href="#BitstreamVeraSans-Roman-20"/>
      <use x="692.96875" xlink:href="#BitstreamVeraSans-Roman-65"/>
      <use x="754.4921875" xlink:href="#BitstreamVeraSans-Roman-6c"/>
      <use x="782.275390625" xlink:href="#BitstreamVeraSans-Roman-2e"/>
      <use x="814.0625" xlink:href="#BitstreamVeraSans-Roman-32"/>
     </g>
    </g>
   </g>
  </g>
 </g>
 <defs>
  <clipPath id="p7ceb695115">
   <rect height="518.4" width="669.6" x="108.0" y="64.8"/>
  </clipPath>
 </defs>
</svg>
