<?xml version="1.0" encoding="utf-8" standalone="no"?>
<!DOCTYPE svg PUBLIC "-//W3C//DTD SVG 1.1//EN"
  "http://www.w3.org/Graphics/SVG/1.1/DTD/svg11.dtd">
<!-- Created with matplotlib (http://matplotlib.org/) -->
<svg height="648pt" version="1.1" viewBox="0 0 864 648" width="864pt" xmlns="http://www.w3.org/2000/svg" xmlns:xlink="http://www.w3.org/1999/xlink">
 <defs>
  <style type="text/css">
*{stroke-linecap:butt;stroke-linejoin:round;}
  </style>
 </defs>
 <g id="figure_1">
  <g id="patch_1">
   <path d="
M0 648
L864 648
L864 0
L0 0
z
" style="fill:#ffffff;"/>
  </g>
  <g id="axes_1">
   <g id="patch_2">
    <path d="
M108 583.2
L777.6 583.2
L777.6 64.8
L108 64.8
z
" style="fill:#ffffff;"/>
   </g>
   <g id="line2d_1">
    <path clip-path="url(#p7ceb695115)" d="
M108 556.706
L108.67 556.63
L110.009 556.751
L110.678 556.782
L112.018 556.669
L113.357 556.681
L114.026 556.613
L114.696 556.933
L115.366 556.697
L118.044 556.787
L118.714 556.621
L119.383 556.726
L120.053 556.704
L120.722 556.812
L121.392 556.68
L122.062 556.853
L122.731 556.81
L123.401 556.514
L124.74 556.865
L125.41 556.64
L126.079 556.726
L126.749 557.011
L127.418 556.637
L128.088 556.79
L128.758 556.645
L129.427 556.739
L130.097 556.718
L130.766 556.9
L131.436 556.635
L132.775 556.651
L133.445 557.004
L134.114 556.635
L134.784 556.786
L136.123 556.773
L138.132 556.664
L138.802 556.897
L139.471 556.744
L140.81 556.895
L141.48 556.689
L142.15 556.8
L142.819 556.755
L143.489 556.91
L144.158 556.518
L144.828 556.842
L146.167 556.703
L146.837 556.836
L147.506 556.752
L148.846 556.793
L149.515 556.503
L150.185 556.537
L150.854 556.689
L151.524 556.562
L152.194 556.994
L153.533 556.604
L154.202 556.782
L155.542 556.712
L156.211 556.642
L156.881 556.796
L157.55 556.475
L158.22 556.936
L158.89 556.718
L160.229 556.789
L160.898 556.67
L161.568 556.756
L162.907 556.631
L163.577 556.92
L164.246 556.613
L164.916 556.825
L165.586 556.765
L166.255 556.903
L166.925 556.727
L168.934 556.789
L169.603 556.557
L170.273 556.657
L170.942 556.96
L171.612 556.722
L173.621 556.572
L174.29 556.819
L174.96 556.706
L175.63 556.887
L177.638 556.868
L178.308 556.719
L178.978 556.904
L179.647 556.837
L180.317 556.963
L180.986 556.761
L182.326 556.792
L182.995 557.097
L183.665 556.742
L184.334 556.865
L185.004 556.848
L185.674 556.685
L186.343 556.683
L187.013 556.532
L187.682 556.893
L188.352 556.777
L189.022 556.848
L189.691 557.031
L190.361 556.625
L191.7 556.451
L192.37 556.635
L193.039 556.585
L193.709 557.076
L194.378 556.711
L195.048 556.98
L196.387 556.971
L197.057 556.493
L197.726 556.831
L199.066 556.857
L199.735 556.634
L200.405 556.798
L202.414 556.844
L203.083 556.551
L203.753 556.602
L204.422 556.842
L206.431 556.879
L207.101 556.757
L207.77 556.368
L208.44 556.718
L209.11 556.542
L209.779 556.858
L210.449 556.65
L211.788 556.821
L212.458 556.805
L213.127 556.573
L213.797 556.746
L214.466 556.697
L215.136 556.951
L216.475 556.761
L217.814 556.95
L219.154 556.6
L219.823 556.8
L221.162 556.72
L221.832 556.844
L222.502 556.545
L223.841 556.845
L224.51 556.511
L225.85 556.744
L226.519 556.756
L227.189 556.597
L227.858 556.814
L228.528 556.824
L229.198 556.659
L229.867 556.866
L230.537 556.949
L231.206 556.697
L231.876 556.652
L233.215 556.802
L233.885 556.804
L234.554 556.676
L235.224 556.709
L235.894 556.897
L236.563 556.635
L237.233 556.763
L237.902 557.064
L238.572 556.657
L239.242 556.431
L241.25 556.981
L241.92 556.592
L242.59 556.881
L243.929 556.664
L245.268 557.067
L245.938 556.865
L247.946 556.63
L248.616 556.749
L249.286 556.714
L249.955 556.439
L250.625 556.626
L251.294 556.559
L252.634 556.879
L253.303 556.585
L254.642 556.81
L255.312 556.956
L255.982 556.741
L256.651 556.675
L257.321 556.947
L257.99 556.694
L258.66 556.891
L259.33 556.944
L260.669 556.473
L261.338 556.779
L263.347 556.802
L264.017 556.829
L264.686 556.563
L265.356 556.508
L267.365 556.879
L268.034 556.559
L268.704 556.76
L269.374 556.729
L270.043 556.969
L272.052 556.593
L272.722 556.962
L274.061 556.65
L274.73 556.83
L276.07 556.633
L276.739 556.976
L277.409 556.663
L278.078 556.848
L278.748 556.584
L279.418 556.637
L280.087 556.955
L280.757 556.595
L281.426 556.821
L282.766 556.505
L283.435 556.897
L284.105 556.527
L285.444 556.792
L286.114 556.642
L286.783 556.702
L287.453 556.956
L288.122 556.857
L288.792 556.576
L289.462 556.823
L290.131 556.659
L290.801 556.619
L291.47 556.735
L292.14 556.608
L292.81 556.804
L293.479 556.66
L294.149 556.948
L296.158 556.502
L297.497 556.768
L298.166 556.853
L298.836 556.549
L299.506 556.701
L300.175 556.51
L300.845 556.625
L301.514 556.963
L302.854 556.396
L303.523 556.659
L304.193 556.491
L304.862 556.943
L306.202 556.664
L306.871 556.979
L307.541 556.644
L308.21 556.642
L308.88 556.897
L310.219 556.751
L310.889 556.83
L311.558 556.796
L312.898 556.533
L313.567 556.751
L317.585 556.572
L318.254 556.809
L320.263 556.796
L320.933 556.957
L321.602 556.656
L322.272 556.714
L323.611 556.483
L324.281 556.773
L325.62 556.708
L326.959 556.85
L327.629 556.854
L328.298 556.568
L328.968 556.839
L330.307 556.695
L330.977 556.658
L331.646 556.487
L332.316 556.691
L333.655 556.668
L334.325 556.938
L334.994 556.785
L336.334 556.73
L337.003 556.512
L338.342 556.934
L341.021 556.674
L341.69 556.873
L342.36 556.624
L343.699 556.752
L345.038 556.757
L345.708 556.404
L347.047 556.942
L347.717 556.651
L348.386 556.979
L349.056 556.894
L349.726 556.552
L350.395 556.85
L351.065 556.726
L352.404 556.697
L353.743 556.693
L354.413 556.646
L356.422 556.907
L357.091 556.622
L357.761 556.541
L359.77 556.859
L360.439 556.64
L361.778 556.862
L362.448 556.69
L363.118 556.672
L363.787 556.838
L364.457 556.867
L365.126 556.666
L365.796 556.745
L366.466 556.509
L367.135 556.845
L367.805 556.896
L370.483 556.7
L371.153 556.878
L371.822 556.674
L372.492 556.789
L375.84 556.646
L377.849 556.542
L381.197 556.946
L381.866 556.783
L383.206 556.755
L384.545 556.486
L387.893 556.65
L388.562 556.87
L389.232 556.68
L389.902 556.881
L391.91 556.484
L393.25 556.989
L393.919 556.708
L394.589 556.829
L395.258 556.619
L395.928 556.651
L396.598 556.911
L397.937 556.687
L398.606 556.905
L399.276 556.755
L399.946 556.758
L400.615 556.931
L401.285 556.612
L402.624 556.562
L403.294 556.86
L404.633 556.647
L407.311 556.821
L407.981 556.62
L409.32 556.867
L409.99 556.702
L410.659 556.659
L411.329 556.484
L411.998 556.967
L412.668 556.743
L413.338 556.677
L414.007 556.799
L414.677 556.716
L415.346 556.756
L416.016 556.373
L416.686 556.714
L417.355 556.843
L419.364 556.665
L420.034 556.894
L420.703 556.55
L421.373 556.794
L422.042 556.525
L422.712 556.974
L423.382 556.689
L424.051 556.778
L424.721 557.139
L425.39 556.801
L426.73 556.652
L427.399 556.842
L428.069 556.788
L428.738 556.858
L429.408 556.502
L430.078 556.866
L430.747 556.723
L431.417 556.757
L432.086 556.955
L432.756 556.696
L436.104 556.542
L436.774 556.884
L437.443 556.704
L442.8 556.904
L443.47 556.626
L444.809 556.709
L446.148 557.135
L446.818 556.857
L448.826 556.982
L449.496 557.332
L450.166 556.981
L452.174 557.832
L452.844 557.472
L453.514 557.744
L454.853 557.79
L455.522 557.945
L456.192 557.935
L456.862 557.679
L457.531 557.955
L458.201 558.098
L458.87 558.075
L459.54 558.229
L460.879 558.133
L461.549 558.526
L462.218 558.328
L462.888 558.309
L463.558 558.404
L464.227 558.286
L464.897 558.662
L466.236 558.559
L466.906 558.541
L467.575 558.676
L468.245 558.564
L468.914 558.762
L469.584 558.775
L470.254 558.497
L471.593 558.536
L472.262 558.579
L472.932 558.773
L473.602 558.503
L476.28 558.834
L476.95 558.54
L477.619 558.873
L478.958 558.894
L479.628 558.428
L480.298 558.3
L480.967 558.794
L481.637 558.664
L482.976 558.833
L483.646 558.726
L484.315 558.851
L485.654 558.568
L486.324 558.879
L486.994 558.53
L488.333 558.782
L490.342 558.805
L491.011 558.954
L491.681 558.656
L492.35 558.844
L495.029 558.653
L496.368 558.647
L497.038 558.812
L498.377 558.82
L501.055 558.571
L501.725 558.788
L503.064 558.829
L503.734 558.547
L506.412 558.734
L507.751 558.772
L508.421 558.551
L509.09 558.794
L509.76 558.631
L510.43 558.594
L511.099 559.025
L512.438 558.693
L513.108 558.485
L514.447 558.634
L515.786 558.608
L516.456 558.774
L517.126 558.693
L517.795 558.795
L518.465 558.426
L519.134 558.689
L519.804 558.616
L520.474 558.723
L521.143 558.404
L521.813 558.807
L522.482 559.023
L523.152 558.82
L523.822 558.467
L524.491 558.837
L527.17 558.582
L527.839 558.841
L528.509 558.885
L529.178 558.744
L529.848 558.732
L530.518 558.55
L531.857 558.775
L532.526 558.586
L533.196 558.679
L533.866 558.377
L534.535 558.612
L535.205 558.533
L535.874 558.729
L536.544 558.548
L537.214 558.885
L537.883 558.57
L538.553 558.399
L539.222 558.912
L539.892 558.383
L540.562 558.78
L541.901 558.589
L542.57 558.829
L543.24 558.472
L543.91 558.623
L545.249 558.553
L545.918 558.44
L546.588 558.509
L547.258 558.46
L548.597 558.75
L549.266 558.43
L549.936 558.381
L551.275 558.769
L551.945 558.62
L552.614 558.703
L553.284 558.283
L553.954 558.632
L554.623 558.537
L555.293 558.672
L557.302 558.461
L557.971 558.641
L559.31 558.413
L559.98 558.666
L560.65 558.577
L561.319 558.643
L561.989 558.84
L564.667 558.35
L566.006 558.285
L566.676 558.785
L567.346 558.488
L569.354 558.611
L570.024 558.213
L570.694 558.493
L571.363 558.1
L572.033 558.572
L572.702 558.379
L573.372 558.615
L574.042 558.423
L574.711 558.715
L576.05 558.162
L576.72 558.591
L577.39 558.284
L578.729 558.414
L579.398 558.577
L580.068 558.127
L580.738 558.432
L581.407 558.449
L582.077 558.335
L582.746 558.433
L583.416 558.166
L584.086 558.6
L586.094 558.2
L586.764 558.607
L588.773 558.525
L590.112 558.442
L590.782 558.295
L591.451 558.426
L592.121 558.308
L592.79 558.41
L593.46 558.064
L594.13 558.397
L595.469 558.155
L596.138 558.428
L597.478 558.433
L598.147 558.168
L598.817 558.583
L599.486 558.332
L600.156 558.265
L600.826 558.462
L602.165 558.213
L602.834 558.085
L603.504 558.17
L604.174 558.403
L604.843 558.253
L605.513 558.556
L606.852 558.126
L607.522 558.384
L608.191 558.276
L608.861 558.042
L610.2 558.422
L611.539 558.002
L612.209 558.333
L612.878 558.109
L613.548 558.041
L614.218 558.151
L614.887 558.398
L616.226 558.373
L616.896 558.203
L617.566 558.259
L618.235 558.161
L618.905 558.232
L619.574 558.092
L621.583 558.281
L622.253 557.98
L622.922 557.964
L623.592 558.183
L624.262 558.277
L624.931 558.097
L626.94 558.022
L627.61 558.262
L628.279 558.1
L628.949 558.214
L629.618 557.967
L630.288 558.062
L632.297 557.918
L635.645 558.357
L636.314 558.086
L636.984 558.017
L638.323 558.161
L639.662 558.091
L640.332 558.241
L641.002 558.089
L641.671 557.718
L642.341 558.072
L643.01 558.205
L643.68 557.978
L644.35 558.252
L645.019 558.01
L645.689 557.963
L647.028 558.137
L647.698 558.186
L648.367 557.85
L649.037 558.056
L650.376 558.177
L651.046 558.093
L651.715 558.154
L653.054 557.955
L653.724 558.04
L654.394 557.948
L655.733 558.271
L656.402 558.181
L657.742 558.188
L659.75 557.879
L660.42 557.553
L661.09 557.88
L662.429 557.998
L663.098 557.92
L665.107 558.272
L665.777 557.842
L666.446 558.173
L667.116 557.898
L668.455 557.758
L669.125 558.031
L670.464 558.23
L671.134 557.959
L671.803 557.951
L672.473 558.082
L673.812 557.883
L674.482 558.158
L675.151 557.866
L675.821 558.195
L676.49 557.866
L677.16 557.883
L677.83 558.114
L678.499 557.68
L679.169 557.904
L679.838 557.69
L680.508 557.805
L681.178 557.787
L681.847 557.93
L682.517 557.829
L683.186 558.121
L683.856 557.672
L684.526 557.978
L685.865 557.701
L687.204 557.952
L687.874 557.911
L688.543 558.135
L689.213 557.846
L689.882 557.836
L690.552 558.005
L691.222 558.012
L692.561 557.823
L693.23 557.909
L693.9 557.88
L694.57 558.021
L695.239 557.923
L695.909 557.959
L696.578 557.832
L699.926 557.855
L700.596 558.018
L701.266 557.966
L701.935 557.79
L702.605 557.908
L703.274 557.895
L703.944 557.715
L704.614 557.963
L707.292 557.931
L707.962 557.699
L708.631 558.297
L709.301 557.975
L709.97 557.939
L710.64 557.701
L711.979 557.983
L712.649 557.803
L713.318 557.939
L713.988 557.78
L714.658 558.045
L715.327 557.73
L715.997 557.843
L716.666 557.622
L717.336 558.066
L719.345 557.723
L720.684 558.021
L721.354 557.816
L722.023 557.918
L722.693 558.162
L723.362 557.74
L724.702 557.943
L726.041 557.786
L726.71 557.919
L727.38 557.837
L728.05 557.87
L728.719 557.768
L729.389 557.888
L732.737 557.765
L733.406 557.92
L734.076 557.909
L734.746 557.739
L736.754 557.929
L737.424 557.907
L738.094 557.58
L738.763 557.864
L739.433 557.916
L740.102 557.75
L740.772 557.876
L742.111 557.832
L743.45 557.707
L744.12 557.971
L744.79 557.663
L745.459 558.067
L748.138 557.626
L748.807 557.946
L749.477 557.608
L750.146 557.959
L750.816 557.955
L751.486 557.78
L752.155 558.095
L752.825 557.696
L753.494 557.985
L754.164 557.668
L754.834 557.695
L755.503 557.92
L758.182 557.681
L758.851 557.738
L759.521 557.655
L760.19 557.794
L760.86 557.757
L761.53 557.871
L763.538 557.636
L764.208 557.842
L764.878 557.597
L765.547 557.675
L766.217 557.511
L766.886 557.673
L768.226 557.482
L769.565 557.882
L772.243 557.637
L772.913 557.915
L773.582 557.52
L774.252 557.403
L774.922 557.435
L775.591 557.659
L776.261 557.612
L777.6 557.87
L777.6 557.87" style="fill:none;stroke:#ff0000;stroke-linecap:square;"/>
   </g>
   <g id="line2d_2">
    <path clip-path="url(#p7ceb695115)" d="
M108 88.4244
L110.009 88.4052
L110.678 88.2052
L111.348 88.2971
L112.687 88.2779
L113.357 88.6459
L114.026 88.4112
L114.696 88.0458
L115.366 88.3153
L116.035 88.2497
L117.374 88.4867
L118.044 88.4311
L118.714 88.7117
L119.383 88.3622
L120.053 88.2367
L121.392 88.6858
L122.062 88.3531
L123.401 88.6782
L125.41 88.6477
L126.079 88.226
L127.418 88.5435
L128.758 88.5388
L129.427 88.724
L130.097 88.7087
L130.766 88.3595
L131.436 88.4931
L132.106 88.7584
L132.775 88.6604
L133.445 88.3763
L134.114 88.5584
L134.784 88.2511
L135.454 88.6594
L136.123 88.4608
L136.793 88.7976
L138.132 88.5316
L138.802 88.2501
L139.471 88.4283
L140.141 88.4173
L140.81 88.2029
L141.48 88.504
L142.15 88.5495
L143.489 88.3131
L144.158 88.6806
L144.828 88.3854
L146.167 88.6667
L146.837 88.5369
L147.506 88.5559
L148.176 88.3735
L148.846 88.4573
L149.515 88.41
L151.524 88.7487
L152.194 88.238
L152.863 88.4717
L153.533 88.575
L154.202 88.4835
L154.872 88.6792
L155.542 88.3855
L157.55 88.9431
L158.22 88.5261
L158.89 88.282
L159.559 88.6588
L160.229 88.3228
L160.898 88.6214
L161.568 88.456
L162.238 88.6321
L162.907 88.4744
L163.577 88.1115
L164.246 88.804
L164.916 88.3767
L165.586 88.5561
L166.255 88.4473
L167.594 88.7952
L168.264 88.3486
L168.934 88.5785
L169.603 88.6307
L170.273 88.5436
L170.942 88.3277
L171.612 88.7006
L172.282 88.7387
L172.951 88.9442
L174.29 88.6017
L176.299 88.2722
L176.969 88.5451
L178.308 88.5117
L178.978 88.3219
L179.647 88.5163
L180.317 88.4205
L180.986 88.5789
L181.656 88.3824
L185.004 88.6995
L185.674 88.5058
L187.013 88.5128
L187.682 88.1648
L188.352 88.3131
L189.022 88.2449
L191.7 88.7689
L192.37 88.586
L193.039 88.6371
L193.709 88.1701
L194.378 88.6039
L195.048 88.5536
L195.718 88.2913
L196.387 88.4061
L197.057 88.872
L197.726 88.4569
L199.066 88.4618
L199.735 88.8837
L200.405 88.5863
L201.074 88.4695
L201.744 88.6456
L202.414 88.4606
L203.083 88.9405
L203.753 88.9633
L204.422 88.3413
L205.762 88.1709
L206.431 88.6366
L207.101 88.3387
L207.77 89.1194
L209.11 88.5859
L209.779 88.5181
L210.449 88.6237
L211.118 88.5904
L211.788 88.4134
L212.458 88.736
L215.136 88.2611
L215.806 88.4582
L216.475 88.8898
L217.145 88.3793
L217.814 88.3981
L218.484 88.5451
L219.154 88.5479
L219.823 88.4012
L220.493 88.6581
L223.171 88.6214
L223.841 88.476
L224.51 88.6636
L225.18 88.6695
L225.85 88.4228
L226.519 88.5272
L227.858 88.3913
L228.528 88.5984
L229.198 88.6765
L229.867 88.3958
L230.537 88.4021
L231.876 88.7651
L232.546 88.4453
L233.215 88.35
L234.554 88.7839
L235.224 88.7264
L235.894 88.4848
L236.563 88.7729
L237.233 88.5912
L237.902 88.205
L238.572 88.1495
L239.242 88.6502
L239.911 88.5221
L240.581 88.8333
L241.25 88.423
L242.59 88.5501
L243.929 88.6017
L245.268 88.4213
L245.938 88.2468
L246.607 88.4643
L247.277 88.3521
L249.286 88.4026
L249.955 88.7077
L250.625 88.7696
L251.964 88.4714
L252.634 88.2817
L253.303 88.7445
L253.973 88.8193
L254.642 88.5044
L256.651 88.5443
L257.321 88.3907
L257.99 88.7581
L259.33 88.3902
L260.669 88.6845
L261.338 88.5921
L262.678 88.6294
L263.347 88.5899
L264.017 88.3987
L266.026 88.6454
L267.365 88.4638
L268.034 88.6747
L270.713 88.4486
L271.382 88.6321
L272.052 88.6389
L272.722 88.0615
L274.061 88.7326
L275.4 88.4434
L276.07 88.9703
L276.739 88.1688
L277.409 88.502
L278.078 88.3951
L278.748 88.7531
L279.418 88.483
L280.087 88.3818
L280.757 88.6724
L281.426 88.3803
L282.766 88.9644
L283.435 88.4744
L284.105 88.8702
L284.774 88.3356
L286.783 88.6054
L287.453 88.3145
L288.122 88.2472
L288.792 88.7433
L289.462 88.3361
L290.131 88.5769
L291.47 88.5102
L292.14 88.6789
L292.81 88.499
L293.479 88.7322
L294.149 88.2413
L294.818 88.6014
L295.488 88.5965
L296.158 88.7555
L296.827 88.4731
L297.497 88.588
L298.166 88.1929
L298.836 88.8711
L299.506 88.5914
L300.175 88.5737
L300.845 88.6752
L301.514 88.3085
L302.184 88.5384
L302.854 88.6452
L303.523 88.4832
L304.193 88.7747
L304.862 88.3269
L305.532 88.5405
L306.202 88.5996
L306.871 88.2102
L307.541 88.607
L308.21 88.7081
L308.88 88.319
L311.558 88.4862
L312.898 88.7636
L314.237 88.506
L314.906 88.8968
L315.576 88.7366
L316.246 88.8523
L317.585 88.4433
L318.924 88.3936
L319.594 88.5274
L320.263 88.5331
L320.933 88.4118
L321.602 88.826
L322.272 88.5755
L322.942 88.5116
L323.611 88.8024
L324.281 88.3955
L324.95 88.6381
L326.29 88.4665
L326.959 88.622
L327.629 88.2293
L328.298 88.5279
L328.968 88.34
L329.638 88.5921
L330.307 88.4156
L331.646 88.6399
L332.986 88.3214
L333.655 88.663
L334.325 88.4414
L334.994 88.4981
L335.664 88.3495
L336.334 88.5938
L337.003 88.703
L338.342 88.2554
L339.012 88.1577
L339.682 88.6226
L340.351 88.3415
L341.021 88.6233
L341.69 88.3157
L342.36 88.5794
L343.03 88.4302
L343.699 88.5872
L344.369 88.6137
L345.038 88.4666
L345.708 88.8286
L346.378 88.4482
L347.047 88.4116
L347.717 88.6296
L348.386 88.2664
L349.056 88.2824
L349.726 88.4927
L351.065 88.6845
L351.734 88.4317
L352.404 88.4245
L353.074 88.6023
L353.743 88.3158
L354.413 88.5787
L356.422 88.3907
L357.091 88.7904
L357.761 88.5098
L358.43 88.6916
L359.77 88.2133
L360.439 88.519
L361.778 88.4945
L362.448 88.8076
L363.787 88.5107
L365.126 88.6473
L365.796 88.5165
L366.466 88.7734
L367.135 88.3702
L367.805 88.4931
L368.474 88.3208
L369.144 88.8097
L369.814 88.6535
L370.483 88.3569
L371.153 88.3731
L371.822 88.5434
L373.162 88.6076
L373.831 88.2564
L374.501 88.4117
L375.17 88.3698
L377.179 88.7247
L377.849 88.7455
L378.518 88.4407
L379.188 88.522
L380.527 88.345
L381.197 88.4561
L381.866 88.3923
L382.536 88.5101
L383.875 88.4765
L384.545 88.9434
L385.214 88.7111
L385.884 88.7983
L387.223 88.6486
L387.893 88.7045
L388.562 88.301
L389.232 88.453
L393.25 88.4765
L393.919 88.6656
L394.589 88.5427
L395.928 88.6835
L396.598 88.3709
L397.267 88.2058
L397.937 88.4486
L398.606 88.2782
L399.276 88.6196
L399.946 88.3163
L401.285 88.7177
L401.954 88.6526
L402.624 88.452
L404.633 88.5471
L405.302 88.2292
L405.972 88.4963
L407.981 88.5365
L408.65 88.6445
L409.32 88.3958
L409.99 88.4873
L410.659 88.2503
L411.329 88.7213
L411.998 88.4283
L413.338 88.3517
L414.007 88.5184
L416.016 88.5185
L416.686 88.7926
L417.355 88.4651
L418.694 88.5454
L419.364 88.3481
L420.034 88.3917
L420.703 88.6638
L421.373 88.5476
L422.042 88.8271
L422.712 88.2074
L423.382 88.6829
L424.051 88.5509
L424.721 88.1874
L425.39 88.5041
L426.06 88.6687
L426.73 88.4882
L427.399 88.5456
L428.069 88.3587
L428.738 88.4555
L429.408 88.783
L430.078 88.4633
L431.417 88.8125
L432.086 88.337
L432.756 88.3956
L433.426 88.569
L434.095 88.3812
L434.765 88.5584
L436.104 88.4388
L436.774 88.6285
L437.443 88.6146
L438.113 88.3032
L438.782 88.5559
L439.452 88.4971
L440.791 88.5992
L441.461 88.6456
L442.8 88.3247
L443.47 88.4731
L444.139 88.7614
L445.478 88.6967
L446.148 88.7984
L446.818 89.3906
L447.487 89.5225
L448.826 90.0325
L449.496 90.0489
L450.166 90.4747
L451.505 91.0207
L452.174 91.0646
L452.844 91.5767
L453.514 91.8675
L454.183 92.4071
L454.853 92.5558
L455.522 92.4461
L456.862 93.3432
L457.531 93.3898
L458.201 93.8036
L458.87 94.0825
L459.54 94.0515
L460.879 94.5508
L461.549 94.5282
L462.218 94.8314
L462.888 94.9962
L463.558 94.9987
L464.227 95.4347
L464.897 95.1285
L465.566 95.5794
L466.236 95.5586
L466.906 95.7752
L467.575 95.7363
L468.914 95.9175
L469.584 95.865
L470.254 96.3251
L471.593 96.1812
L472.262 96.4544
L472.932 96.2073
L473.602 96.6451
L475.61 96.382
L476.28 96.3821
L476.95 96.5091
L478.289 96.3779
L478.958 96.5996
L479.628 96.653
L480.298 96.8643
L480.967 96.6628
L482.306 96.6822
L482.976 96.4562
L484.315 96.484
L484.985 96.7478
L485.654 96.7783
L486.324 96.5424
L486.994 96.8362
L487.663 96.7573
L488.333 96.3514
L489.002 96.6806
L489.672 96.6701
L490.342 96.8484
L491.011 96.5493
L491.681 96.7534
L493.02 96.8606
L493.69 96.9065
L494.359 96.5708
L495.698 96.8547
L496.368 96.7495
L497.038 96.4989
L499.716 96.6254
L500.386 96.6486
L501.055 96.9307
L501.725 96.3643
L502.394 96.514
L503.064 96.4291
L504.403 96.5672
L505.742 96.3413
L506.412 96.7927
L507.082 96.4916
L507.751 96.4387
L508.421 96.5808
L509.09 96.5399
L509.76 96.7358
L510.43 96.6914
L511.099 96.3303
L511.769 96.3763
L513.108 96.7614
L514.447 96.6839
L515.786 96.8371
L516.456 96.4692
L517.795 96.4249
L518.465 96.5336
L519.134 96.2158
L519.804 96.4579
L520.474 96.282
L521.143 96.6151
L521.813 96.5197
L522.482 96.1366
L523.152 96.1688
L523.822 96.6199
L525.161 96.3848
L525.83 96.2575
L526.5 96.3611
L527.17 96.6246
L527.839 96.2459
L529.178 96.0678
L530.518 96.5541
L531.857 96.1081
L532.526 96.3116
L533.196 96.3024
L533.866 96.7564
L534.535 96.2086
L535.205 96.4595
L535.874 96.1788
L537.214 96.1124
L538.553 96.3479
L539.222 95.9702
L539.892 96.3632
L540.562 96.0296
L541.231 96.1613
L541.901 96.0915
L542.57 95.7771
L543.24 96.2298
L543.91 95.8826
L544.579 96.2456
L545.249 96.1041
L545.918 96.0765
L546.588 96.2356
L547.258 96.0705
L547.927 95.6791
L548.597 95.6745
L549.266 96.0409
L549.936 96.1653
L550.606 96.1642
L551.275 95.7342
L552.614 95.7892
L553.284 96.0504
L553.954 95.6302
L555.293 95.8824
L555.962 95.6111
L556.632 95.6618
L557.302 95.8952
L557.971 95.8951
L558.641 95.7563
L559.31 95.9552
L559.98 95.5646
L560.65 95.6141
L561.319 95.2455
L561.989 95.5878
L562.658 95.3479
L563.998 95.7438
L564.667 95.573
L566.006 95.6963
L566.676 95.0044
L567.346 95.4978
L568.015 95.5753
L569.354 95.2732
L570.024 95.573
L571.363 95.3672
L572.033 95.1181
L572.702 95.3846
L573.372 95.2131
L574.042 95.3155
L574.711 95.0851
L576.05 95.5445
L576.72 95.1198
L577.39 95.4748
L579.398 95.2872
L580.068 95.4903
L580.738 95.2294
L582.077 95.1898
L582.746 95.0501
L583.416 95.2149
L584.086 94.9421
L584.755 94.9334
L585.425 95.2653
L586.094 94.9708
L586.764 94.9995
L587.434 95.3248
L588.103 94.9442
L588.773 95.1119
L589.442 94.9448
L590.112 95.0849
L590.782 94.9521
L591.451 95.0143
L592.121 94.8213
L592.79 94.9176
L593.46 95.1764
L594.13 94.8282
L594.799 94.9242
L595.469 95.1408
L596.138 94.7651
L597.478 94.8851
L598.147 95.0791
L598.817 94.5118
L599.486 94.8151
L602.165 94.7808
L602.834 94.9478
L604.174 94.649
L604.843 94.9805
L605.513 94.6125
L606.182 94.8479
L607.522 94.7027
L609.53 94.6834
L610.2 94.5006
L612.209 94.7366
L612.878 94.5032
L613.548 94.7443
L615.557 94.2942
L616.226 94.3892
L617.566 94.4403
L618.905 94.4534
L619.574 94.2366
L621.583 94.1924
L623.592 94.5015
L624.262 94.0693
L625.601 94.1414
L627.61 93.9135
L628.279 94.1723
L628.949 93.813
L629.618 94.1353
L630.958 94.1004
L631.627 93.819
L633.636 94.0073
L634.306 93.8492
L634.975 93.9978
L635.645 93.858
L636.314 94.0715
L636.984 93.6948
L638.323 93.9583
L638.993 93.7564
L640.332 93.8896
L641.002 93.7114
L641.671 94.0722
L642.341 93.7134
L643.68 93.8636
L645.019 93.7538
L645.689 93.7946
L647.698 93.5713
L648.367 93.8483
L649.037 93.5687
L649.706 93.7262
L650.376 93.4341
L651.715 93.9521
L652.385 93.6767
L653.054 93.9426
L653.724 93.6758
L654.394 93.7463
L655.733 93.4457
L656.402 93.6989
L657.072 93.3401
L659.75 93.8085
L660.42 93.8428
L661.09 93.3239
L661.759 93.8702
L662.429 93.4868
L663.098 93.5442
L665.107 93.1995
L665.777 93.4464
L666.446 93.2371
L667.786 93.7265
L669.125 93.5169
L669.794 93.15
L670.464 93.1692
L671.134 93.5069
L671.803 93.565
L672.473 93.3833
L673.142 93.5943
L673.812 93.4927
L674.482 93.1719
L675.151 93.4706
L675.821 93.4794
L676.49 93.6105
L677.16 93.5958
L677.83 93.0026
L678.499 93.5357
L679.838 93.6027
L680.508 93.4052
L682.517 93.4006
L683.186 93.0063
L683.856 93.723
L684.526 93.2567
L685.865 93.4521
L686.534 93.2861
L687.204 93.2653
L687.874 92.9976
L688.543 92.8912
L689.213 93.4159
L691.222 93.0432
L691.891 93.2784
L693.9 93.1287
L694.57 93.154
L695.239 93.3566
L695.909 93.2869
L696.578 93.059
L697.248 93.143
L697.918 93.3798
L698.587 93.1859
L699.926 93.2784
L700.596 92.9315
L701.266 92.8533
L701.935 93.2528
L703.274 93.1635
L703.944 92.9875
L705.283 92.8896
L705.953 93.1068
L706.622 92.7992
L707.292 93.1688
L707.962 93.0527
L708.631 92.6113
L709.97 93.1567
L710.64 93.0829
L711.31 93.3015
L711.979 92.85
L712.649 93.3598
L713.318 93.1022
L715.327 93.0704
L716.666 93.2088
L717.336 92.5886
L718.675 93.253
L720.014 93.1548
L720.684 93.0168
L721.354 93.1805
L722.023 93.1365
L722.693 92.8313
L723.362 92.808
L724.032 93.2165
L724.702 92.9249
L725.371 93.105
L726.71 92.7923
L727.38 92.9684
L728.05 92.8778
L728.719 93.0913
L729.389 92.7582
L730.058 93.1122
L730.728 93.0147
L731.398 93.1223
L732.067 92.8238
L732.737 93.0214
L733.406 92.785
L734.076 93.0639
L734.746 92.8986
L735.415 93.015
L736.085 92.6513
L736.754 92.8513
L737.424 92.8156
L738.094 93.1775
L738.763 92.9261
L740.102 92.7932
L740.772 92.6263
L741.442 92.6849
L742.111 92.5716
L742.781 92.8403
L744.12 92.6355
L744.79 92.8791
L745.459 92.4757
L746.129 92.7294
L747.468 92.7773
L748.138 92.9752
L748.807 92.6198
L749.477 92.7617
L750.146 92.453
L750.816 92.5656
L751.486 92.3392
L752.155 92.2602
L752.825 92.9277
L753.494 92.4031
L754.164 92.9568
L754.834 92.6199
L755.503 92.589
L756.173 92.7872
L756.842 92.8259
L757.512 92.5861
L758.182 92.9121
L758.851 92.5357
L759.521 92.8268
L760.19 92.6781
L760.86 92.8016
L761.53 92.5185
L762.869 92.6067
L763.538 92.5361
L764.878 92.612
L765.547 92.4763
L766.217 92.8114
L766.886 92.752
L767.556 92.8054
L768.226 92.7064
L768.895 92.8593
L769.565 92.4705
L770.234 92.2331
L771.574 92.711
L772.243 92.6856
L772.913 92.5453
L774.922 92.8782
L775.591 92.3913
L776.261 92.6369
L776.93 92.5818
L777.6 92.3316
L777.6 92.3316" style="fill:none;stroke:#008000;stroke-linecap:square;"/>
   </g>
   <g id="line2d_3">
    <path clip-path="url(#p7ceb695115)" d="
M108 556.706
L108.67 556.779
L109.339 556.748
L110.009 556.676
L110.678 556.847
L112.687 556.844
L113.357 556.523
L114.026 556.83
L116.035 556.898
L116.705 556.651
L118.044 556.67
L118.714 556.563
L120.053 556.963
L120.722 556.642
L121.392 556.547
L122.062 556.708
L122.731 556.584
L123.401 556.732
L124.74 556.424
L125.41 556.646
L126.079 556.988
L126.749 556.563
L127.418 556.766
L128.088 556.635
L128.758 556.765
L129.427 556.488
L130.097 556.528
L131.436 556.832
L132.106 556.524
L132.775 556.651
L133.445 556.584
L134.784 556.929
L135.454 556.494
L136.123 556.74
L136.793 556.465
L138.802 556.837
L140.141 556.693
L140.81 556.887
L142.15 556.635
L142.819 556.757
L145.498 556.798
L146.167 556.619
L147.506 556.69
L148.176 556.808
L148.846 556.748
L149.515 557.085
L150.185 556.961
L150.854 556.705
L152.194 556.768
L154.202 556.74
L154.872 556.633
L155.542 556.909
L156.211 556.77
L156.881 556.51
L157.55 556.587
L158.22 556.542
L158.89 557.008
L159.559 556.608
L160.229 556.895
L160.898 556.716
L161.568 556.796
L162.238 556.719
L163.577 556.98
L164.246 556.596
L164.916 556.813
L166.255 556.663
L166.925 556.651
L167.594 556.45
L168.264 556.792
L168.934 556.647
L169.603 556.827
L170.942 556.73
L171.612 556.593
L174.29 556.596
L174.96 556.826
L175.63 556.752
L176.299 556.832
L176.969 556.597
L179.647 556.664
L180.986 556.679
L181.656 556.821
L182.326 556.794
L182.995 556.432
L183.665 556.822
L184.334 556.572
L185.004 556.467
L185.674 556.825
L186.343 556.805
L187.013 556.97
L189.022 556.922
L189.691 556.612
L190.361 556.912
L194.378 556.701
L195.048 556.483
L195.718 556.773
L196.387 556.639
L199.066 556.697
L199.735 556.499
L201.074 556.748
L201.744 556.665
L202.414 556.718
L203.753 556.455
L204.422 556.836
L205.762 556.966
L206.431 556.506
L207.101 556.923
L207.77 556.529
L208.44 556.472
L209.11 556.889
L209.779 556.638
L210.449 556.739
L211.118 556.666
L211.788 556.776
L212.458 556.471
L213.127 556.802
L213.797 556.69
L215.136 556.798
L215.806 556.743
L216.475 556.36
L217.145 556.778
L217.814 556.67
L219.823 556.811
L220.493 556.594
L223.171 556.711
L223.841 556.685
L224.51 556.83
L225.18 556.688
L225.85 556.832
L226.519 556.716
L227.189 556.969
L228.528 556.58
L229.867 556.742
L231.876 556.584
L232.546 556.795
L233.215 556.849
L234.554 556.543
L237.902 556.73
L238.572 557.192
L239.242 556.917
L239.911 556.857
L240.581 556.437
L241.92 556.876
L242.59 556.573
L243.929 556.739
L245.268 556.517
L245.938 556.893
L246.607 556.743
L247.946 556.969
L248.616 556.802
L249.286 556.889
L249.955 556.858
L250.625 556.609
L251.294 556.78
L252.634 556.847
L253.973 556.435
L254.642 556.691
L255.312 556.543
L256.651 556.79
L257.99 556.557
L259.999 556.741
L260.669 556.853
L261.338 556.64
L262.008 556.587
L262.678 556.666
L263.347 556.618
L264.686 556.982
L267.365 556.668
L268.034 556.776
L268.704 556.636
L269.374 556.75
L270.043 556.561
L270.713 556.724
L271.382 556.696
L272.052 556.784
L272.722 556.987
L274.061 556.624
L274.73 556.539
L275.4 556.822
L276.07 556.408
L276.739 556.866
L278.078 556.765
L278.748 556.671
L279.418 556.89
L280.087 556.671
L281.426 556.806
L282.766 556.537
L283.435 556.634
L284.105 556.608
L284.774 557.037
L285.444 556.784
L287.453 556.736
L288.122 556.903
L288.792 556.688
L289.462 556.846
L290.131 556.768
L291.47 556.754
L293.479 556.603
L294.149 556.804
L294.818 556.576
L296.158 556.733
L296.827 556.858
L297.497 556.635
L298.166 556.944
L298.836 556.568
L300.175 556.903
L300.845 556.686
L302.184 556.824
L302.854 556.945
L304.862 556.718
L306.202 556.724
L306.871 556.798
L308.21 556.639
L309.55 556.812
L310.219 556.845
L310.889 556.665
L312.898 556.687
L313.567 556.61
L314.237 556.758
L314.906 556.486
L315.576 556.67
L316.246 556.497
L317.585 556.961
L318.254 556.749
L318.924 556.806
L320.263 556.646
L321.602 556.495
L322.942 556.839
L323.611 556.691
L324.281 556.807
L324.95 556.622
L325.62 556.733
L326.29 556.7
L326.959 556.501
L327.629 556.89
L328.968 556.794
L329.638 556.656
L330.307 556.862
L330.977 556.757
L332.986 556.956
L333.655 556.643
L334.325 556.596
L335.664 556.871
L336.334 556.651
L337.673 556.808
L338.342 556.785
L339.012 556.965
L339.682 556.575
L340.351 556.897
L341.021 556.674
L341.69 556.782
L343.699 556.632
L344.369 556.592
L345.038 556.748
L345.708 556.741
L346.378 556.898
L347.047 556.622
L349.726 556.928
L350.395 556.579
L351.065 556.566
L351.734 556.779
L352.404 556.856
L353.074 556.652
L353.743 556.969
L354.413 556.753
L356.422 556.68
L357.091 556.566
L357.761 556.931
L358.43 556.615
L359.1 556.662
L359.77 556.907
L362.448 556.482
L363.118 556.672
L364.457 556.564
L365.796 556.72
L367.805 556.592
L368.474 556.836
L369.144 556.472
L369.814 556.546
L370.483 556.923
L371.153 556.73
L371.822 556.764
L372.492 556.604
L373.162 556.595
L373.831 556.859
L374.501 556.723
L375.17 556.879
L377.849 556.691
L378.518 556.894
L381.197 556.571
L381.866 556.798
L382.536 556.642
L383.875 556.924
L384.545 556.547
L385.214 556.736
L385.884 556.57
L387.893 556.619
L388.562 556.803
L389.232 556.842
L389.902 556.641
L390.571 556.758
L391.241 556.754
L391.91 556.99
L392.58 556.822
L393.25 556.507
L395.258 556.766
L395.928 556.642
L396.598 556.693
L397.267 556.993
L399.276 556.595
L399.946 556.896
L400.615 556.549
L401.954 556.705
L402.624 556.957
L403.294 556.645
L403.963 556.831
L404.633 556.782
L405.302 557.05
L405.972 556.683
L406.642 556.741
L407.311 556.605
L407.981 556.82
L408.65 556.564
L410.659 557.072
L411.998 556.585
L412.668 556.889
L413.338 556.947
L414.007 556.659
L414.677 556.769
L415.346 556.739
L416.016 557.083
L416.686 556.467
L417.355 556.668
L418.694 556.624
L419.364 556.959
L420.034 556.689
L420.703 556.761
L422.042 556.623
L422.712 556.793
L423.382 556.603
L425.39 556.668
L426.06 556.634
L426.73 556.834
L427.399 556.587
L428.069 556.828
L428.738 556.663
L430.078 556.647
L431.417 556.411
L432.756 556.888
L433.426 556.728
L434.095 556.886
L434.765 556.683
L436.104 556.999
L436.774 556.469
L438.113 556.95
L438.782 556.74
L440.791 556.642
L442.13 556.568
L443.47 556.892
L444.139 556.646
L444.809 556.779
L446.818 556.8
L448.826 557.222
L449.496 557.273
L450.166 557.625
L451.505 557.447
L452.174 557.456
L452.844 557.718
L454.183 557.478
L454.853 557.662
L455.522 557.995
L456.192 557.915
L456.862 558.108
L457.531 558.14
L458.201 557.925
L458.87 557.98
L459.54 558.16
L460.879 558.272
L461.549 558.162
L463.558 558.507
L464.227 558.389
L464.897 558.511
L465.566 558.331
L466.236 558.509
L467.575 558.514
L468.245 558.62
L468.914 558.497
L469.584 558.615
L470.254 558.53
L471.593 558.774
L472.262 558.544
L472.932 558.666
L473.602 558.555
L474.271 558.632
L474.941 558.588
L475.61 558.745
L476.28 558.712
L476.95 558.923
L477.619 558.604
L478.289 558.725
L478.958 558.53
L479.628 558.954
L480.298 558.895
L480.967 558.609
L481.637 558.722
L482.306 558.614
L483.646 558.954
L484.985 558.667
L485.654 558.821
L486.324 558.75
L486.994 558.817
L487.663 558.748
L488.333 559.069
L489.002 558.735
L489.672 558.75
L490.342 558.566
L491.681 558.794
L492.35 558.61
L493.02 558.571
L493.69 558.646
L494.359 558.976
L495.698 558.655
L497.038 558.835
L498.377 558.678
L499.716 558.78
L500.386 558.912
L501.055 558.612
L501.725 558.965
L502.394 558.735
L503.734 559.015
L504.403 558.86
L505.742 558.9
L506.412 558.518
L507.082 558.815
L508.421 558.889
L509.09 558.693
L509.76 558.65
L510.43 558.722
L511.099 558.659
L512.438 558.693
L514.447 558.62
L516.456 558.648
L517.126 558.783
L517.795 558.65
L518.465 558.897
L519.134 558.937
L519.804 558.773
L521.143 558.813
L521.813 558.499
L523.152 558.84
L524.491 558.509
L526.5 558.81
L527.17 558.565
L529.178 558.91
L530.518 558.593
L531.187 558.773
L532.526 558.76
L533.866 558.506
L534.535 558.81
L535.205 558.628
L535.874 558.703
L536.544 558.902
L537.214 558.582
L538.553 558.785
L539.222 558.641
L539.892 558.764
L541.231 558.637
L542.57 558.783
L543.24 558.654
L543.91 558.816
L544.579 558.436
L545.918 558.731
L546.588 558.475
L547.927 558.92
L549.266 558.623
L550.606 558.33
L551.275 558.528
L551.945 558.6
L552.614 558.483
L553.954 558.675
L554.623 558.56
L555.293 558.322
L555.962 558.605
L557.302 558.467
L557.971 558.275
L558.641 558.536
L559.31 558.382
L561.319 558.792
L561.989 558.217
L562.658 558.547
L563.998 558.437
L564.667 558.602
L566.006 558.527
L566.676 558.678
L568.015 558.38
L568.685 558.525
L570.024 558.584
L570.694 558.324
L571.363 558.828
L572.033 558.597
L573.372 558.416
L574.042 558.494
L575.381 558.48
L576.72 558.456
L579.398 558.244
L580.068 558.447
L581.407 558.314
L582.746 558.473
L583.416 558.543
L584.086 558.362
L584.755 558.462
L585.425 558.236
L586.094 558.676
L586.764 558.22
L587.434 557.928
L588.103 558.272
L588.773 558.154
L589.442 558.307
L590.112 558.241
L590.782 558.498
L591.451 558.288
L592.121 558.581
L592.79 558.343
L594.13 558.392
L598.147 558.232
L598.817 558.361
L599.486 558.3
L600.156 558.362
L600.826 558.104
L602.165 558.366
L606.182 558.035
L606.852 558.399
L607.522 558.158
L608.191 558.199
L608.861 558.356
L609.53 558.208
L610.87 558.249
L611.539 558.329
L612.209 557.962
L612.878 558.396
L613.548 558.192
L614.218 558.23
L614.887 558.135
L615.557 558.22
L616.226 558.114
L616.896 558.275
L617.566 558.112
L618.235 558.173
L618.905 558.09
L619.574 558.402
L621.583 558.185
L622.253 558.309
L622.922 558.232
L623.592 557.85
L624.262 558.161
L626.27 558.298
L626.94 558.302
L628.279 558.076
L628.949 558.296
L630.288 558.063
L630.958 558.149
L631.627 558.383
L632.297 558.374
L633.636 558.013
L634.306 558.19
L634.975 557.859
L636.314 557.927
L636.984 558.362
L637.654 558.065
L638.323 557.922
L638.993 558.125
L639.662 558.148
L640.332 557.859
L641.002 558.163
L642.341 558.134
L643.01 557.876
L643.68 558.041
L644.35 557.814
L645.019 558.071
L647.698 558
L649.037 558.129
L649.706 557.922
L650.376 558.137
L651.046 557.974
L651.715 557.624
L652.385 558.001
L653.054 557.805
L653.724 557.982
L655.733 557.938
L656.402 557.747
L657.072 558.07
L657.742 557.949
L658.411 557.961
L659.081 557.855
L659.75 557.873
L661.09 558.339
L661.759 557.68
L662.429 558.05
L663.768 558.015
L664.438 557.928
L667.116 558.12
L667.786 557.822
L668.455 557.978
L669.125 557.844
L669.794 558.119
L671.134 557.926
L671.803 557.863
L672.473 557.912
L673.142 557.781
L673.812 557.97
L675.151 557.996
L675.821 557.661
L676.49 557.844
L677.16 557.827
L677.83 558.18
L678.499 558.076
L679.169 557.817
L680.508 558.061
L681.178 558.077
L681.847 557.891
L683.186 558.109
L683.856 557.822
L684.526 557.96
L685.195 557.931
L686.534 558.043
L687.204 557.938
L687.874 558.239
L688.543 558.108
L689.213 557.863
L689.882 557.976
L690.552 557.882
L691.222 558.021
L691.891 557.918
L693.23 558.119
L694.57 557.862
L695.239 557.749
L695.909 557.752
L696.578 558.099
L697.248 557.994
L697.918 557.659
L698.587 557.915
L699.926 557.79
L701.266 558.102
L701.935 557.874
L702.605 557.791
L703.274 557.848
L703.944 558.203
L704.614 557.953
L705.283 558.012
L705.953 557.839
L706.622 558.081
L707.292 557.763
L707.962 558.126
L708.631 557.956
L709.301 558.042
L709.97 557.788
L710.64 558.112
L711.31 557.745
L711.979 558.073
L712.649 557.743
L713.988 558.04
L714.658 557.862
L715.327 558.067
L715.997 557.918
L717.336 558.195
L718.006 557.881
L718.675 557.775
L719.345 557.875
L722.693 557.802
L723.362 558.223
L724.032 557.678
L724.702 557.873
L725.371 557.776
L726.041 558.008
L726.71 558.007
L727.38 557.885
L728.05 557.946
L728.719 557.82
L729.389 558.012
L730.058 557.673
L730.728 557.834
L731.398 557.757
L732.067 557.874
L732.737 557.808
L733.406 557.877
L734.076 557.609
L734.746 557.93
L735.415 557.714
L736.085 557.965
L736.754 557.738
L738.094 557.739
L739.433 557.662
L740.102 557.863
L742.111 557.977
L742.781 557.758
L743.45 557.878
L744.12 557.762
L745.459 557.798
L746.129 557.667
L747.468 557.913
L748.138 557.687
L748.807 557.712
L749.477 557.893
L750.816 557.721
L751.486 558.114
L752.825 557.625
L753.494 557.859
L754.164 557.619
L754.834 557.915
L756.173 557.573
L757.512 557.821
L758.182 557.606
L758.851 557.922
L759.521 557.671
L762.869 557.635
L763.538 557.899
L764.208 557.626
L764.878 557.842
L765.547 557.873
L766.886 557.578
L768.226 557.781
L768.895 557.403
L770.234 557.934
L770.904 557.677
L772.913 557.493
L773.582 557.767
L774.252 557.785
L774.922 557.604
L775.591 557.863
L776.261 557.648
L776.93 557.563
L777.6 557.675
L777.6 557.675" style="fill:none;stroke:#0000ff;stroke-linecap:square;"/>
   </g>
   <g id="patch_3">
    <path d="
M108 583.2
L108 64.8" style="fill:none;stroke:#000000;stroke-linecap:square;stroke-linejoin:miter;"/>
   </g>
   <g id="patch_4">
    <path d="
M777.6 583.2
L777.6 64.8" style="fill:none;stroke:#000000;stroke-linecap:square;stroke-linejoin:miter;"/>
   </g>
   <g id="patch_5">
    <path d="
M108 64.8
L777.6 64.8" style="fill:none;stroke:#000000;stroke-linecap:square;stroke-linejoin:miter;"/>
   </g>
   <g id="patch_6">
    <path d="
M108 583.2
L777.6 583.2" style="fill:none;stroke:#000000;stroke-linecap:square;stroke-linejoin:miter;"/>
   </g>
   <g id="matplotlib.axis_1">
    <g id="xtick_1">
     <g id="line2d_4">
      <defs>
       <path d="
M0 0
L0 -4" id="mc7db9fdffb" style="stroke:#000000;stroke-width:0.5;"/>
      </defs>
      <g>
       <use style="stroke:#000000;stroke-width:0.5;" x="108.0" xlink:href="#mc7db9fdffb" y="583.2"/>
      </g>
     </g>
     <g id="line2d_5">
      <defs>
       <path d="
M0 0
L0 4" id="m5a7d422ac3" style="stroke:#000000;stroke-width:0.5;"/>
      </defs>
      <g>
       <use style="stroke:#000000;stroke-width:0.5;" x="108.0" xlink:href="#m5a7d422ac3" y="64.8"/>
      </g>
     </g>
     <g id="text_1">
      <!-- 0 -->
      <defs>
       <path d="
M31.7812 66.4062
Q24.1719 66.4062 20.3281 58.9062
Q16.5 51.4219 16.5 36.375
Q16.5 21.3906 20.3281 13.8906
Q24.1719 6.39062 31.7812 6.39062
Q39.4531 6.39062 43.2812 13.8906
Q47.125 21.3906 47.125 36.375
Q47.125 51.4219 43.2812 58.9062
Q39.4531 66.4062 31.7812 66.4062
M31.7812 74.2188
Q44.0469 74.2188 50.5156 64.5156
Q56.9844 54.8281 56.9844 36.375
Q56.9844 17.9688 50.5156 8.26562
Q44.0469 -1.42188 31.7812 -1.42188
Q19.5312 -1.42188 13.0625 8.26562
Q6.59375 17.9688 6.59375 36.375
Q6.59375 54.8281 13.0625 64.5156
Q19.5312 74.2188 31.7812 74.2188" id="BitstreamVeraSans-Roman-30"/>
      </defs>
      <g transform="translate(104.9765625 596.318125)scale(0.12 -0.12)">
       <use xlink:href="#BitstreamVeraSans-Roman-30"/>
      </g>
     </g>
    </g>
    <g id="xtick_2">
     <g id="line2d_6">
      <g>
       <use style="stroke:#000000;stroke-width:0.5;" x="275.4" xlink:href="#mc7db9fdffb" y="583.2"/>
      </g>
     </g>
     <g id="line2d_7">
      <g>
       <use style="stroke:#000000;stroke-width:0.5;" x="275.4" xlink:href="#m5a7d422ac3" y="64.8"/>
      </g>
     </g>
     <g id="text_2">
      <!-- 50000 -->
      <defs>
       <path d="
M10.7969 72.9062
L49.5156 72.9062
L49.5156 64.5938
L19.8281 64.5938
L19.8281 46.7344
Q21.9688 47.4688 24.1094 47.8281
Q26.2656 48.1875 28.4219 48.1875
Q40.625 48.1875 47.75 41.5
Q54.8906 34.8125 54.8906 23.3906
Q54.8906 11.625 47.5625 5.09375
Q40.2344 -1.42188 26.9062 -1.42188
Q22.3125 -1.42188 17.5469 -0.640625
Q12.7969 0.140625 7.71875 1.70312
L7.71875 11.625
Q12.1094 9.23438 16.7969 8.0625
Q21.4844 6.89062 26.7031 6.89062
Q35.1562 6.89062 40.0781 11.3281
Q45.0156 15.7656 45.0156 23.3906
Q45.0156 31 40.0781 35.4375
Q35.1562 39.8906 26.7031 39.8906
Q22.75 39.8906 18.8125 39.0156
Q14.8906 38.1406 10.7969 36.2812
z
" id="BitstreamVeraSans-Roman-35"/>
      </defs>
      <g transform="translate(257.1740625 596.318125)scale(0.12 -0.12)">
       <use xlink:href="#BitstreamVeraSans-Roman-35"/>
       <use x="63.623046875" xlink:href="#BitstreamVeraSans-Roman-30"/>
       <use x="127.24609375" xlink:href="#BitstreamVeraSans-Roman-30"/>
       <use x="190.869140625" xlink:href="#BitstreamVeraSans-Roman-30"/>
       <use x="254.4921875" xlink:href="#BitstreamVeraSans-Roman-30"/>
      </g>
     </g>
    </g>
    <g id="xtick_3">
     <g id="line2d_8">
      <g>
       <use style="stroke:#000000;stroke-width:0.5;" x="442.8" xlink:href="#mc7db9fdffb" y="583.2"/>
      </g>
     </g>
     <g id="line2d_9">
      <g>
       <use style="stroke:#000000;stroke-width:0.5;" x="442.8" xlink:href="#m5a7d422ac3" y="64.8"/>
      </g>
     </g>
     <g id="text_3">
      <!-- 100000 -->
      <defs>
       <path d="
M12.4062 8.29688
L28.5156 8.29688
L28.5156 63.9219
L10.9844 60.4062
L10.9844 69.3906
L28.4219 72.9062
L38.2812 72.9062
L38.2812 8.29688
L54.3906 8.29688
L54.3906 0
L12.4062 0
z
" id="BitstreamVeraSans-Roman-31"/>
      </defs>
      <g transform="translate(420.9525 596.318125)scale(0.12 -0.12)">
       <use xlink:href="#BitstreamVeraSans-Roman-31"/>
       <use x="63.623046875" xlink:href="#BitstreamVeraSans-Roman-30"/>
       <use x="127.24609375" xlink:href="#BitstreamVeraSans-Roman-30"/>
       <use x="190.869140625" xlink:href="#BitstreamVeraSans-Roman-30"/>
       <use x="254.4921875" xlink:href="#BitstreamVeraSans-Roman-30"/>
       <use x="318.115234375" xlink:href="#BitstreamVeraSans-Roman-30"/>
      </g>
     </g>
    </g>
    <g id="xtick_4">
     <g id="line2d_10">
      <g>
       <use style="stroke:#000000;stroke-width:0.5;" x="610.2" xlink:href="#mc7db9fdffb" y="583.2"/>
      </g>
     </g>
     <g id="line2d_11">
      <g>
       <use style="stroke:#000000;stroke-width:0.5;" x="610.2" xlink:href="#m5a7d422ac3" y="64.8"/>
      </g>
     </g>
     <g id="text_4">
      <!-- 150000 -->
      <g transform="translate(588.3525 596.318125)scale(0.12 -0.12)">
       <use xlink:href="#BitstreamVeraSans-Roman-31"/>
       <use x="63.623046875" xlink:href="#BitstreamVeraSans-Roman-35"/>
       <use x="127.24609375" xlink:href="#BitstreamVeraSans-Roman-30"/>
       <use x="190.869140625" xlink:href="#BitstreamVeraSans-Roman-30"/>
       <use x="254.4921875" xlink:href="#BitstreamVeraSans-Roman-30"/>
       <use x="318.115234375" xlink:href="#BitstreamVeraSans-Roman-30"/>
      </g>
     </g>
    </g>
    <g id="xtick_5">
     <g id="line2d_12">
      <g>
       <use style="stroke:#000000;stroke-width:0.5;" x="777.6" xlink:href="#mc7db9fdffb" y="583.2"/>
      </g>
     </g>
     <g id="line2d_13">
      <g>
       <use style="stroke:#000000;stroke-width:0.5;" x="777.6" xlink:href="#m5a7d422ac3" y="64.8"/>
      </g>
     </g>
     <g id="text_5">
      <!-- 200000 -->
      <defs>
       <path d="
M19.1875 8.29688
L53.6094 8.29688
L53.6094 0
L7.32812 0
L7.32812 8.29688
Q12.9375 14.1094 22.625 23.8906
Q32.3281 33.6875 34.8125 36.5312
Q39.5469 41.8438 41.4219 45.5312
Q43.3125 49.2188 43.3125 52.7812
Q43.3125 58.5938 39.2344 62.25
Q35.1562 65.9219 28.6094 65.9219
Q23.9688 65.9219 18.8125 64.3125
Q13.6719 62.7031 7.8125 59.4219
L7.8125 69.3906
Q13.7656 71.7812 18.9375 73
Q24.125 74.2188 28.4219 74.2188
Q39.75 74.2188 46.4844 68.5469
Q53.2188 62.8906 53.2188 53.4219
Q53.2188 48.9219 51.5312 44.8906
Q49.8594 40.875 45.4062 35.4062
Q44.1875 33.9844 37.6406 27.2188
Q31.1094 20.4531 19.1875 8.29688" id="BitstreamVeraSans-Roman-32"/>
      </defs>
      <g transform="translate(755.533125 596.318125)scale(0.12 -0.12)">
       <use xlink:href="#BitstreamVeraSans-Roman-32"/>
       <use x="63.623046875" xlink:href="#BitstreamVeraSans-Roman-30"/>
       <use x="127.24609375" xlink:href="#BitstreamVeraSans-Roman-30"/>
       <use x="190.869140625" xlink:href="#BitstreamVeraSans-Roman-30"/>
       <use x="254.4921875" xlink:href="#BitstreamVeraSans-Roman-30"/>
       <use x="318.115234375" xlink:href="#BitstreamVeraSans-Roman-30"/>
      </g>
     </g>
    </g>
    <g id="text_6">
     <!-- t / ms -->
     <defs>
      <path d="
M44.2812 53.0781
L44.2812 44.5781
Q40.4844 46.5312 36.375 47.5
Q32.2812 48.4844 27.875 48.4844
Q21.1875 48.4844 17.8438 46.4375
Q14.5 44.3906 14.5 40.2812
Q14.5 37.1562 16.8906 35.375
Q19.2812 33.5938 26.5156 31.9844
L29.5938 31.2969
Q39.1562 29.25 43.1875 25.5156
Q47.2188 21.7812 47.2188 15.0938
Q47.2188 7.46875 41.1875 3.01562
Q35.1562 -1.42188 24.6094 -1.42188
Q20.2188 -1.42188 15.4531 -0.5625
Q10.6875 0.296875 5.42188 2
L5.42188 11.2812
Q10.4062 8.6875 15.2344 7.39062
Q20.0625 6.10938 24.8125 6.10938
Q31.1562 6.10938 34.5625 8.28125
Q37.9844 10.4531 37.9844 14.4062
Q37.9844 18.0625 35.5156 20.0156
Q33.0625 21.9688 24.7031 23.7812
L21.5781 24.5156
Q13.2344 26.2656 9.51562 29.9062
Q5.8125 33.5469 5.8125 39.8906
Q5.8125 47.6094 11.2812 51.7969
Q16.75 56 26.8125 56
Q31.7812 56 36.1719 55.2656
Q40.5781 54.5469 44.2812 53.0781" id="BitstreamVeraSans-Roman-73"/>
      <path d="
M18.3125 70.2188
L18.3125 54.6875
L36.8125 54.6875
L36.8125 47.7031
L18.3125 47.7031
L18.3125 18.0156
Q18.3125 11.3281 20.1406 9.42188
Q21.9688 7.51562 27.5938 7.51562
L36.8125 7.51562
L36.8125 0
L27.5938 0
Q17.1875 0 13.2344 3.875
Q9.28125 7.76562 9.28125 18.0156
L9.28125 47.7031
L2.6875 47.7031
L2.6875 54.6875
L9.28125 54.6875
L9.28125 70.2188
z
" id="BitstreamVeraSans-Roman-74"/>
      <path d="
M52 44.1875
Q55.375 50.25 60.0625 53.125
Q64.75 56 71.0938 56
Q79.6406 56 84.2812 50.0156
Q88.9219 44.0469 88.9219 33.0156
L88.9219 0
L79.8906 0
L79.8906 32.7188
Q79.8906 40.5781 77.0938 44.375
Q74.3125 48.1875 68.6094 48.1875
Q61.625 48.1875 57.5625 43.5469
Q53.5156 38.9219 53.5156 30.9062
L53.5156 0
L44.4844 0
L44.4844 32.7188
Q44.4844 40.625 41.7031 44.4062
Q38.9219 48.1875 33.1094 48.1875
Q26.2188 48.1875 22.1562 43.5312
Q18.1094 38.875 18.1094 30.9062
L18.1094 0
L9.07812 0
L9.07812 54.6875
L18.1094 54.6875
L18.1094 46.1875
Q21.1875 51.2188 25.4844 53.6094
Q29.7812 56 35.6875 56
Q41.6562 56 45.8281 52.9688
Q50 49.9531 52 44.1875" id="BitstreamVeraSans-Roman-6d"/>
      <path id="BitstreamVeraSans-Roman-20"/>
      <path d="
M25.3906 72.9062
L33.6875 72.9062
L8.29688 -9.28125
L0 -9.28125
z
" id="BitstreamVeraSans-Roman-2f"/>
     </defs>
     <g transform="translate(425.9353125 612.931875)scale(0.12 -0.12)">
      <use xlink:href="#BitstreamVeraSans-Roman-74"/>
      <use x="39.208984375" xlink:href="#BitstreamVeraSans-Roman-20"/>
      <use x="70.99609375" xlink:href="#BitstreamVeraSans-Roman-2f"/>
      <use x="104.6875" xlink:href="#BitstreamVeraSans-Roman-20"/>
      <use x="136.474609375" xlink:href="#BitstreamVeraSans-Roman-6d"/>
      <use x="233.88671875" xlink:href="#BitstreamVeraSans-Roman-73"/>
     </g>
    </g>
   </g>
   <g id="matplotlib.axis_2">
    <g id="ytick_1">
     <g id="line2d_14">
      <defs>
       <path d="
M0 0
L4 0" id="md7965d1ba0" style="stroke:#000000;stroke-width:0.5;"/>
      </defs>
      <g>
       <use style="stroke:#000000;stroke-width:0.5;" x="108.0" xlink:href="#md7965d1ba0" y="583.2"/>
      </g>
     </g>
     <g id="line2d_15">
      <defs>
       <path d="
M0 0
L-4 0" id="md9a1c1a7cd" style="stroke:#000000;stroke-width:0.5;"/>
      </defs>
      <g>
       <use style="stroke:#000000;stroke-width:0.5;" x="777.6" xlink:href="#md9a1c1a7cd" y="583.2"/>
      </g>
     </g>
     <g id="text_7">
      <!-- 1000000 -->
      <g transform="translate(52.67 586.51125)scale(0.12 -0.12)">
       <use xlink:href="#BitstreamVeraSans-Roman-31"/>
       <use x="63.623046875" xlink:href="#BitstreamVeraSans-Roman-30"/>
       <use x="127.24609375" xlink:href="#BitstreamVeraSans-Roman-30"/>
       <use x="190.869140625" xlink:href="#BitstreamVeraSans-Roman-30"/>
       <use x="254.4921875" xlink:href="#BitstreamVeraSans-Roman-30"/>
       <use x="318.115234375" xlink:href="#BitstreamVeraSans-Roman-30"/>
       <use x="381.73828125" xlink:href="#BitstreamVeraSans-Roman-30"/>
      </g>
     </g>
    </g>
    <g id="ytick_2">
     <g id="line2d_16">
      <g>
       <use style="stroke:#000000;stroke-width:0.5;" x="108.0" xlink:href="#md7965d1ba0" y="518.4"/>
      </g>
     </g>
     <g id="line2d_17">
      <g>
       <use style="stroke:#000000;stroke-width:0.5;" x="777.6" xlink:href="#md9a1c1a7cd" y="518.4"/>
      </g>
     </g>
     <g id="text_8">
      <!-- 1500000 -->
      <g transform="translate(52.67 521.71125)scale(0.12 -0.12)">
       <use xlink:href="#BitstreamVeraSans-Roman-31"/>
       <use x="63.623046875" xlink:href="#BitstreamVeraSans-Roman-35"/>
       <use x="127.24609375" xlink:href="#BitstreamVeraSans-Roman-30"/>
       <use x="190.869140625" xlink:href="#BitstreamVeraSans-Roman-30"/>
       <use x="254.4921875" xlink:href="#BitstreamVeraSans-Roman-30"/>
       <use x="318.115234375" xlink:href="#BitstreamVeraSans-Roman-30"/>
       <use x="381.73828125" xlink:href="#BitstreamVeraSans-Roman-30"/>
      </g>
     </g>
    </g>
    <g id="ytick_3">
     <g id="line2d_18">
      <g>
       <use style="stroke:#000000;stroke-width:0.5;" x="108.0" xlink:href="#md7965d1ba0" y="453.6"/>
      </g>
     </g>
     <g id="line2d_19">
      <g>
       <use style="stroke:#000000;stroke-width:0.5;" x="777.6" xlink:href="#md9a1c1a7cd" y="453.6"/>
      </g>
     </g>
     <g id="text_9">
      <!-- 2000000 -->
      <g transform="translate(52.23125 456.91125)scale(0.12 -0.12)">
       <use xlink:href="#BitstreamVeraSans-Roman-32"/>
       <use x="63.623046875" xlink:href="#BitstreamVeraSans-Roman-30"/>
       <use x="127.24609375" xlink:href="#BitstreamVeraSans-Roman-30"/>
       <use x="190.869140625" xlink:href="#BitstreamVeraSans-Roman-30"/>
       <use x="254.4921875" xlink:href="#BitstreamVeraSans-Roman-30"/>
       <use x="318.115234375" xlink:href="#BitstreamVeraSans-Roman-30"/>
       <use x="381.73828125" xlink:href="#BitstreamVeraSans-Roman-30"/>
      </g>
     </g>
    </g>
    <g id="ytick_4">
     <g id="line2d_20">
      <g>
       <use style="stroke:#000000;stroke-width:0.5;" x="108.0" xlink:href="#md7965d1ba0" y="388.8"/>
      </g>
     </g>
     <g id="line2d_21">
      <g>
       <use style="stroke:#000000;stroke-width:0.5;" x="777.6" xlink:href="#md9a1c1a7cd" y="388.8"/>
      </g>
     </g>
     <g id="text_10">
      <!-- 2500000 -->
      <g transform="translate(52.23125 392.11125)scale(0.12 -0.12)">
       <use xlink:href="#BitstreamVeraSans-Roman-32"/>
       <use x="63.623046875" xlink:href="#BitstreamVeraSans-Roman-35"/>
       <use x="127.24609375" xlink:href="#BitstreamVeraSans-Roman-30"/>
       <use x="190.869140625" xlink:href="#BitstreamVeraSans-Roman-30"/>
       <use x="254.4921875" xlink:href="#BitstreamVeraSans-Roman-30"/>
       <use x="318.115234375" xlink:href="#BitstreamVeraSans-Roman-30"/>
       <use x="381.73828125" xlink:href="#BitstreamVeraSans-Roman-30"/>
      </g>
     </g>
    </g>
    <g id="ytick_5">
     <g id="line2d_22">
      <g>
       <use style="stroke:#000000;stroke-width:0.5;" x="108.0" xlink:href="#md7965d1ba0" y="324.0"/>
      </g>
     </g>
     <g id="line2d_23">
      <g>
       <use style="stroke:#000000;stroke-width:0.5;" x="777.6" xlink:href="#md9a1c1a7cd" y="324.0"/>
      </g>
     </g>
     <g id="text_11">
      <!-- 3000000 -->
      <defs>
       <path d="
M40.5781 39.3125
Q47.6562 37.7969 51.625 33
Q55.6094 28.2188 55.6094 21.1875
Q55.6094 10.4062 48.1875 4.48438
Q40.7656 -1.42188 27.0938 -1.42188
Q22.5156 -1.42188 17.6562 -0.515625
Q12.7969 0.390625 7.625 2.20312
L7.625 11.7188
Q11.7188 9.32812 16.5938 8.10938
Q21.4844 6.89062 26.8125 6.89062
Q36.0781 6.89062 40.9375 10.5469
Q45.7969 14.2031 45.7969 21.1875
Q45.7969 27.6406 41.2812 31.2656
Q36.7656 34.9062 28.7188 34.9062
L20.2188 34.9062
L20.2188 43.0156
L29.1094 43.0156
Q36.375 43.0156 40.2344 45.9219
Q44.0938 48.8281 44.0938 54.2969
Q44.0938 59.9062 40.1094 62.9062
Q36.1406 65.9219 28.7188 65.9219
Q24.6562 65.9219 20.0156 65.0312
Q15.375 64.1562 9.8125 62.3125
L9.8125 71.0938
Q15.4375 72.6562 20.3438 73.4375
Q25.25 74.2188 29.5938 74.2188
Q40.8281 74.2188 47.3594 69.1094
Q53.9062 64.0156 53.9062 55.3281
Q53.9062 49.2656 50.4375 45.0938
Q46.9688 40.9219 40.5781 39.3125" id="BitstreamVeraSans-Roman-33"/>
      </defs>
      <g transform="translate(52.266875 327.31125)scale(0.12 -0.12)">
       <use xlink:href="#BitstreamVeraSans-Roman-33"/>
       <use x="63.623046875" xlink:href="#BitstreamVeraSans-Roman-30"/>
       <use x="127.24609375" xlink:href="#BitstreamVeraSans-Roman-30"/>
       <use x="190.869140625" xlink:href="#BitstreamVeraSans-Roman-30"/>
       <use x="254.4921875" xlink:href="#BitstreamVeraSans-Roman-30"/>
       <use x="318.115234375" xlink:href="#BitstreamVeraSans-Roman-30"/>
       <use x="381.73828125" xlink:href="#BitstreamVeraSans-Roman-30"/>
      </g>
     </g>
    </g>
    <g id="ytick_6">
     <g id="line2d_24">
      <g>
       <use style="stroke:#000000;stroke-width:0.5;" x="108.0" xlink:href="#md7965d1ba0" y="259.2"/>
      </g>
     </g>
     <g id="line2d_25">
      <g>
       <use style="stroke:#000000;stroke-width:0.5;" x="777.6" xlink:href="#md9a1c1a7cd" y="259.2"/>
      </g>
     </g>
     <g id="text_12">
      <!-- 3500000 -->
      <g transform="translate(52.266875 262.51125)scale(0.12 -0.12)">
       <use xlink:href="#BitstreamVeraSans-Roman-33"/>
       <use x="63.623046875" xlink:href="#BitstreamVeraSans-Roman-35"/>
       <use x="127.24609375" xlink:href="#BitstreamVeraSans-Roman-30"/>
       <use x="190.869140625" xlink:href="#BitstreamVeraSans-Roman-30"/>
       <use x="254.4921875" xlink:href="#BitstreamVeraSans-Roman-30"/>
       <use x="318.115234375" xlink:href="#BitstreamVeraSans-Roman-30"/>
       <use x="381.73828125" xlink:href="#BitstreamVeraSans-Roman-30"/>
      </g>
     </g>
    </g>
    <g id="ytick_7">
     <g id="line2d_26">
      <g>
       <use style="stroke:#000000;stroke-width:0.5;" x="108.0" xlink:href="#md7965d1ba0" y="194.4"/>
      </g>
     </g>
     <g id="line2d_27">
      <g>
       <use style="stroke:#000000;stroke-width:0.5;" x="777.6" xlink:href="#md9a1c1a7cd" y="194.4"/>
      </g>
     </g>
     <g id="text_13">
      <!-- 4000000 -->
      <defs>
       <path d="
M37.7969 64.3125
L12.8906 25.3906
L37.7969 25.3906
z

M35.2031 72.9062
L47.6094 72.9062
L47.6094 25.3906
L58.0156 25.3906
L58.0156 17.1875
L47.6094 17.1875
L47.6094 0
L37.7969 0
L37.7969 17.1875
L4.89062 17.1875
L4.89062 26.7031
z
" id="BitstreamVeraSans-Roman-34"/>
      </defs>
      <g transform="translate(51.93875 197.71125)scale(0.12 -0.12)">
       <use xlink:href="#BitstreamVeraSans-Roman-34"/>
       <use x="63.623046875" xlink:href="#BitstreamVeraSans-Roman-30"/>
       <use x="127.24609375" xlink:href="#BitstreamVeraSans-Roman-30"/>
       <use x="190.869140625" xlink:href="#BitstreamVeraSans-Roman-30"/>
       <use x="254.4921875" xlink:href="#BitstreamVeraSans-Roman-30"/>
       <use x="318.115234375" xlink:href="#BitstreamVeraSans-Roman-30"/>
       <use x="381.73828125" xlink:href="#BitstreamVeraSans-Roman-30"/>
      </g>
     </g>
    </g>
    <g id="ytick_8">
     <g id="line2d_28">
      <g>
       <use style="stroke:#000000;stroke-width:0.5;" x="108.0" xlink:href="#md7965d1ba0" y="129.6"/>
      </g>
     </g>
     <g id="line2d_29">
      <g>
       <use style="stroke:#000000;stroke-width:0.5;" x="777.6" xlink:href="#md9a1c1a7cd" y="129.6"/>
      </g>
     </g>
     <g id="text_14">
      <!-- 4500000 -->
      <g transform="translate(51.93875 132.91125)scale(0.12 -0.12)">
       <use xlink:href="#BitstreamVeraSans-Roman-34"/>
       <use x="63.623046875" xlink:href="#BitstreamVeraSans-Roman-35"/>
       <use x="127.24609375" xlink:href="#BitstreamVeraSans-Roman-30"/>
       <use x="190.869140625" xlink:href="#BitstreamVeraSans-Roman-30"/>
       <use x="254.4921875" xlink:href="#BitstreamVeraSans-Roman-30"/>
       <use x="318.115234375" xlink:href="#BitstreamVeraSans-Roman-30"/>
       <use x="381.73828125" xlink:href="#BitstreamVeraSans-Roman-30"/>
      </g>
     </g>
    </g>
    <g id="ytick_9">
     <g id="line2d_30">
      <g>
       <use style="stroke:#000000;stroke-width:0.5;" x="108.0" xlink:href="#md7965d1ba0" y="64.8"/>
      </g>
     </g>
     <g id="line2d_31">
      <g>
       <use style="stroke:#000000;stroke-width:0.5;" x="777.6" xlink:href="#md9a1c1a7cd" y="64.8"/>
      </g>
     </g>
     <g id="text_15">
      <!-- 5000000 -->
      <g transform="translate(52.278125 68.11125)scale(0.12 -0.12)">
       <use xlink:href="#BitstreamVeraSans-Roman-35"/>
       <use x="63.623046875" xlink:href="#BitstreamVeraSans-Roman-30"/>
       <use x="127.24609375" xlink:href="#BitstreamVeraSans-Roman-30"/>
       <use x="190.869140625" xlink:href="#BitstreamVeraSans-Roman-30"/>
       <use x="254.4921875" xlink:href="#BitstreamVeraSans-Roman-30"/>
       <use x="318.115234375" xlink:href="#BitstreamVeraSans-Roman-30"/>
       <use x="381.73828125" xlink:href="#BitstreamVeraSans-Roman-30"/>
      </g>
     </g>
    </g>
    <g id="text_16">
     <!-- particle numbers -->
     <defs>
      <path d="
M56.2031 29.5938
L56.2031 25.2031
L14.8906 25.2031
Q15.4844 15.9219 20.4844 11.0625
Q25.4844 6.20312 34.4219 6.20312
Q39.5938 6.20312 44.4531 7.46875
Q49.3125 8.73438 54.1094 11.2812
L54.1094 2.78125
Q49.2656 0.734375 44.1875 -0.34375
Q39.1094 -1.42188 33.8906 -1.42188
Q20.7969 -1.42188 13.1562 6.1875
Q5.51562 13.8125 5.51562 26.8125
Q5.51562 40.2344 12.7656 48.1094
Q20.0156 56 32.3281 56
Q43.3594 56 49.7812 48.8906
Q56.2031 41.7969 56.2031 29.5938
M47.2188 32.2344
Q47.125 39.5938 43.0938 43.9844
Q39.0625 48.3906 32.4219 48.3906
Q24.9062 48.3906 20.3906 44.1406
Q15.875 39.8906 15.1875 32.1719
z
" id="BitstreamVeraSans-Roman-65"/>
      <path d="
M18.1094 8.20312
L18.1094 -20.7969
L9.07812 -20.7969
L9.07812 54.6875
L18.1094 54.6875
L18.1094 46.3906
Q20.9531 51.2656 25.2656 53.625
Q29.5938 56 35.5938 56
Q45.5625 56 51.7812 48.0938
Q58.0156 40.1875 58.0156 27.2969
Q58.0156 14.4062 51.7812 6.48438
Q45.5625 -1.42188 35.5938 -1.42188
Q29.5938 -1.42188 25.2656 0.953125
Q20.9531 3.32812 18.1094 8.20312
M48.6875 27.2969
Q48.6875 37.2031 44.6094 42.8438
Q40.5312 48.4844 33.4062 48.4844
Q26.2656 48.4844 22.1875 42.8438
Q18.1094 37.2031 18.1094 27.2969
Q18.1094 17.3906 22.1875 11.75
Q26.2656 6.10938 33.4062 6.10938
Q40.5312 6.10938 44.6094 11.75
Q48.6875 17.3906 48.6875 27.2969" id="BitstreamVeraSans-Roman-70"/>
      <path d="
M41.1094 46.2969
Q39.5938 47.1719 37.8125 47.5781
Q36.0312 48 33.8906 48
Q26.2656 48 22.1875 43.0469
Q18.1094 38.0938 18.1094 28.8125
L18.1094 0
L9.07812 0
L9.07812 54.6875
L18.1094 54.6875
L18.1094 46.1875
Q20.9531 51.1719 25.4844 53.5781
Q30.0312 56 36.5312 56
Q37.4531 56 38.5781 55.875
Q39.7031 55.7656 41.0625 55.5156
z
" id="BitstreamVeraSans-Roman-72"/>
      <path d="
M34.2812 27.4844
Q23.3906 27.4844 19.1875 25
Q14.9844 22.5156 14.9844 16.5
Q14.9844 11.7188 18.1406 8.90625
Q21.2969 6.10938 26.7031 6.10938
Q34.1875 6.10938 38.7031 11.4062
Q43.2188 16.7031 43.2188 25.4844
L43.2188 27.4844
z

M52.2031 31.2031
L52.2031 0
L43.2188 0
L43.2188 8.29688
Q40.1406 3.32812 35.5469 0.953125
Q30.9531 -1.42188 24.3125 -1.42188
Q15.9219 -1.42188 10.9531 3.29688
Q6 8.01562 6 15.9219
Q6 25.1406 12.1719 29.8281
Q18.3594 34.5156 30.6094 34.5156
L43.2188 34.5156
L43.2188 35.4062
Q43.2188 41.6094 39.1406 45
Q35.0625 48.3906 27.6875 48.3906
Q23 48.3906 18.5469 47.2656
Q14.1094 46.1406 10.0156 43.8906
L10.0156 52.2031
Q14.9375 54.1094 19.5781 55.0469
Q24.2188 56 28.6094 56
Q40.4844 56 46.3438 49.8438
Q52.2031 43.7031 52.2031 31.2031" id="BitstreamVeraSans-Roman-61"/>
      <path d="
M9.42188 54.6875
L18.4062 54.6875
L18.4062 0
L9.42188 0
z

M9.42188 75.9844
L18.4062 75.9844
L18.4062 64.5938
L9.42188 64.5938
z
" id="BitstreamVeraSans-Roman-69"/>
      <path d="
M54.8906 33.0156
L54.8906 0
L45.9062 0
L45.9062 32.7188
Q45.9062 40.4844 42.875 44.3281
Q39.8438 48.1875 33.7969 48.1875
Q26.5156 48.1875 22.3125 43.5469
Q18.1094 38.9219 18.1094 30.9062
L18.1094 0
L9.07812 0
L9.07812 54.6875
L18.1094 54.6875
L18.1094 46.1875
Q21.3438 51.125 25.7031 53.5625
Q30.0781 56 35.7969 56
Q45.2188 56 50.0469 50.1719
Q54.8906 44.3438 54.8906 33.0156" id="BitstreamVeraSans-Roman-6e"/>
      <path d="
M8.5 21.5781
L8.5 54.6875
L17.4844 54.6875
L17.4844 21.9219
Q17.4844 14.1562 20.5 10.2656
Q23.5312 6.39062 29.5938 6.39062
Q36.8594 6.39062 41.0781 11.0312
Q45.3125 15.6719 45.3125 23.6875
L45.3125 54.6875
L54.2969 54.6875
L54.2969 0
L45.3125 0
L45.3125 8.40625
Q42.0469 3.42188 37.7188 1
Q33.4062 -1.42188 27.6875 -1.42188
Q18.2656 -1.42188 13.375 4.4375
Q8.5 10.2969 8.5 21.5781" id="BitstreamVeraSans-Roman-75"/>
      <path d="
M48.6875 27.2969
Q48.6875 37.2031 44.6094 42.8438
Q40.5312 48.4844 33.4062 48.4844
Q26.2656 48.4844 22.1875 42.8438
Q18.1094 37.2031 18.1094 27.2969
Q18.1094 17.3906 22.1875 11.75
Q26.2656 6.10938 33.4062 6.10938
Q40.5312 6.10938 44.6094 11.75
Q48.6875 17.3906 48.6875 27.2969
M18.1094 46.3906
Q20.9531 51.2656 25.2656 53.625
Q29.5938 56 35.5938 56
Q45.5625 56 51.7812 48.0938
Q58.0156 40.1875 58.0156 27.2969
Q58.0156 14.4062 51.7812 6.48438
Q45.5625 -1.42188 35.5938 -1.42188
Q29.5938 -1.42188 25.2656 0.953125
Q20.9531 3.32812 18.1094 8.20312
L18.1094 0
L9.07812 0
L9.07812 75.9844
L18.1094 75.9844
z
" id="BitstreamVeraSans-Roman-62"/>
      <path d="
M9.42188 75.9844
L18.4062 75.9844
L18.4062 0
L9.42188 0
z
" id="BitstreamVeraSans-Roman-6c"/>
      <path d="
M48.7812 52.5938
L48.7812 44.1875
Q44.9688 46.2969 41.1406 47.3438
Q37.3125 48.3906 33.4062 48.3906
Q24.6562 48.3906 19.8125 42.8438
Q14.9844 37.3125 14.9844 27.2969
Q14.9844 17.2812 19.8125 11.7344
Q24.6562 6.20312 33.4062 6.20312
Q37.3125 6.20312 41.1406 7.25
Q44.9688 8.29688 48.7812 10.4062
L48.7812 2.09375
Q45.0156 0.34375 40.9844 -0.53125
Q36.9688 -1.42188 32.4219 -1.42188
Q20.0625 -1.42188 12.7812 6.34375
Q5.51562 14.1094 5.51562 27.2969
Q5.51562 40.6719 12.8594 48.3281
Q20.2188 56 33.0156 56
Q37.1562 56 41.1094 55.1406
Q45.0625 54.2969 48.7812 52.5938" id="BitstreamVeraSans-Roman-63"/>
     </defs>
     <g transform="translate(44.443125 374.78625)rotate(-90.0)scale(0.12 -0.12)">
      <use xlink:href="#BitstreamVeraSans-Roman-70"/>
      <use x="63.4765625" xlink:href="#BitstreamVeraSans-Roman-61"/>
      <use x="124.755859375" xlink:href="#BitstreamVeraSans-Roman-72"/>
      <use x="165.869140625" xlink:href="#BitstreamVeraSans-Roman-74"/>
      <use x="205.078125" xlink:href="#BitstreamVeraSans-Roman-69"/>
      <use x="232.861328125" xlink:href="#BitstreamVeraSans-Roman-63"/>
      <use x="287.841796875" xlink:href="#BitstreamVeraSans-Roman-6c"/>
      <use x="315.625" xlink:href="#BitstreamVeraSans-Roman-65"/>
      <use x="377.1484375" xlink:href="#BitstreamVeraSans-Roman-20"/>
      <use x="408.935546875" xlink:href="#BitstreamVeraSans-Roman-6e"/>
      <use x="472.314453125" xlink:href="#BitstreamVeraSans-Roman-75"/>
      <use x="535.693359375" xlink:href="#BitstreamVeraSans-Roman-6d"/>
      <use x="633.10546875" xlink:href="#BitstreamVeraSans-Roman-62"/>
      <use x="696.58203125" xlink:href="#BitstreamVeraSans-Roman-65"/>
      <use x="758.10546875" xlink:href="#BitstreamVeraSans-Roman-72"/>
      <use x="799.21875" xlink:href="#BitstreamVeraSans-Roman-73"/>
     </g>
    </g>
   </g>
   <g id="legend_1">
    <g id="patch_7">
     <path d="
M721.468 340.462
L774.1 340.462
L774.1 307.538
L721.468 307.538
z
" style="fill:#ffffff;stroke:#000000;stroke-linejoin:miter;"/>
    </g>
    <g id="line2d_32">
     <path d="
M726.368 313.207
L736.168 313.207" style="fill:none;stroke:#ff0000;stroke-linecap:square;"/>
    </g>
    <g id="line2d_33"/>
    <g id="text_17">
     <!-- ATP el.0 -->
     <defs>
      <path d="
M10.6875 12.4062
L21 12.4062
L21 0
L10.6875 0
z
" id="BitstreamVeraSans-Roman-2e"/>
      <path d="
M-0.296875 72.9062
L61.375 72.9062
L61.375 64.5938
L35.5 64.5938
L35.5 0
L25.5938 0
L25.5938 64.5938
L-0.296875 64.5938
z
" id="BitstreamVeraSans-Roman-54"/>
      <path d="
M34.1875 63.1875
L20.7969 26.9062
L47.6094 26.9062
z

M28.6094 72.9062
L39.7969 72.9062
L67.5781 0
L57.3281 0
L50.6875 18.7031
L17.8281 18.7031
L11.1875 0
L0.78125 0
z
" id="BitstreamVeraSans-Roman-41"/>
      <path d="
M19.6719 64.7969
L19.6719 37.4062
L32.0781 37.4062
Q38.9688 37.4062 42.7188 40.9688
Q46.4844 44.5312 46.4844 51.125
Q46.4844 57.6719 42.7188 61.2344
Q38.9688 64.7969 32.0781 64.7969
z

M9.8125 72.9062
L32.0781 72.9062
Q44.3438 72.9062 50.6094 67.3594
Q56.8906 61.8125 56.8906 51.125
Q56.8906 40.3281 50.6094 34.8125
Q44.3438 29.2969 32.0781 29.2969
L19.6719 29.2969
L19.6719 0
L9.8125 0
z
" id="BitstreamVeraSans-Roman-50"/>
     </defs>
     <g transform="translate(743.86765625 315.656875)scale(0.07 -0.07)">
      <use xlink:href="#BitstreamVeraSans-Roman-41"/>
      <use x="60.658203125" xlink:href="#BitstreamVeraSans-Roman-54"/>
      <use x="121.7421875" xlink:href="#BitstreamVeraSans-Roman-50"/>
      <use x="182.044921875" xlink:href="#BitstreamVeraSans-Roman-20"/>
      <use x="213.83203125" xlink:href="#BitstreamVeraSans-Roman-65"/>
      <use x="275.35546875" xlink:href="#BitstreamVeraSans-Roman-6c"/>
      <use x="303.138671875" xlink:href="#BitstreamVeraSans-Roman-2e"/>
      <use x="334.92578125" xlink:href="#BitstreamVeraSans-Roman-30"/>
     </g>
    </g>
    <g id="line2d_34">
     <path d="
M726.368 323.482
L736.168 323.482" style="fill:none;stroke:#008000;stroke-linecap:square;"/>
    </g>
    <g id="line2d_35"/>
    <g id="text_18">
     <!-- ATP el.1 -->
     <g transform="translate(743.86765625 325.9315625)scale(0.07 -0.07)">
      <use xlink:href="#BitstreamVeraSans-Roman-41"/>
      <use x="60.658203125" xlink:href="#BitstreamVeraSans-Roman-54"/>
      <use x="121.7421875" xlink:href="#BitstreamVeraSans-Roman-50"/>
      <use x="182.044921875" xlink:href="#BitstreamVeraSans-Roman-20"/>
      <use x="213.83203125" xlink:href="#BitstreamVeraSans-Roman-65"/>
      <use x="275.35546875" xlink:href="#BitstreamVeraSans-Roman-6c"/>
      <use x="303.138671875" xlink:href="#BitstreamVeraSans-Roman-2e"/>
      <use x="334.92578125" xlink:href="#BitstreamVeraSans-Roman-31"/>
     </g>
    </g>
    <g id="line2d_36">
     <path d="
M726.368 333.756
L736.168 333.756" style="fill:none;stroke:#0000ff;stroke-linecap:square;"/>
    </g>
    <g id="line2d_37"/>
    <g id="text_19">
     <!-- ATP el.2 -->
     <g transform="translate(743.86765625 336.20625)scale(0.07 -0.07)">
      <use xlink:href="#BitstreamVeraSans-Roman-41"/>
      <use x="60.658203125" xlink:href="#BitstreamVeraSans-Roman-54"/>
      <use x="121.7421875" xlink:href="#BitstreamVeraSans-Roman-50"/>
      <use x="182.044921875" xlink:href="#BitstreamVeraSans-Roman-20"/>
      <use x="213.83203125" xlink:href="#BitstreamVeraSans-Roman-65"/>
      <use x="275.35546875" xlink:href="#BitstreamVeraSans-Roman-6c"/>
      <use x="303.138671875" xlink:href="#BitstreamVeraSans-Roman-2e"/>
      <use x="334.92578125" xlink:href="#BitstreamVeraSans-Roman-32"/>
     </g>
    </g>
   </g>
  </g>
 </g>
 <defs>
  <clipPath id="p7ceb695115">
   <rect height="518.4" width="669.6" x="108.0" y="64.8"/>
  </clipPath>
 </defs>
</svg>
