<?xml version="1.0" encoding="utf-8" standalone="no"?>
<!DOCTYPE svg PUBLIC "-//W3C//DTD SVG 1.1//EN"
  "http://www.w3.org/Graphics/SVG/1.1/DTD/svg11.dtd">
<!-- Created with matplotlib (http://matplotlib.org/) -->
<svg height="648pt" version="1.1" viewBox="0 0 864 648" width="864pt" xmlns="http://www.w3.org/2000/svg" xmlns:xlink="http://www.w3.org/1999/xlink">
 <defs>
  <style type="text/css">
*{stroke-linecap:butt;stroke-linejoin:round;}
  </style>
 </defs>
 <g id="figure_1">
  <g id="patch_1">
   <path d="
M0 648
L864 648
L864 0
L0 0
z
" style="fill:#ffffff;"/>
  </g>
  <g id="axes_1">
   <g id="patch_2">
    <path d="
M108 583.2
L777.6 583.2
L777.6 64.8
L108 64.8
z
" style="fill:#ffffff;"/>
   </g>
   <g id="line2d_1">
    <path clip-path="url(#p7ceb695115)" d="
M108 583.2
L570.024 583.2
L570.694 540
L571.363 583.2
L574.042 583.2
L574.711 540
L575.381 583.2
L576.72 583.2
L577.39 496.8
L578.059 583.2
L580.068 583.2
L580.738 540
L581.407 583.2
L584.755 583.2
L585.425 540
L586.094 583.2
L586.764 540
L587.434 540
L588.103 583.2
L590.782 583.2
L591.451 540
L592.121 583.2
L592.79 583.2
L593.46 540
L594.13 583.2
L597.478 583.2
L598.147 540
L598.817 540
L599.486 583.2
L600.156 583.2
L600.826 496.8
L601.495 540
L602.165 496.8
L602.834 540
L604.174 540
L604.843 583.2
L607.522 583.2
L608.191 496.8
L608.861 540
L610.2 540
L610.87 583.2
L612.209 583.2
L612.878 540
L613.548 583.2
L614.218 540
L614.887 583.2
L616.226 583.2
L616.896 540
L618.235 540
L618.905 583.2
L619.574 540
L620.244 540
L620.914 583.2
L621.583 583.2
L622.253 496.8
L622.922 496.8
L623.592 540
L624.262 496.8
L625.601 583.2
L626.27 540
L626.94 540
L627.61 583.2
L628.279 540
L628.949 583.2
L631.627 583.2
L632.297 540
L633.636 540
L634.306 496.8
L634.975 583.2
L635.645 583.2
L636.314 540
L637.654 540
L638.323 496.8
L638.993 540
L639.662 540
L641.002 453.6
L643.01 583.2
L643.68 540
L644.35 540
L645.019 583.2
L647.028 453.6
L647.698 540
L648.367 540
L649.037 583.2
L649.706 583.2
L651.715 453.6
L652.385 540
L653.054 496.8
L653.724 496.8
L654.394 540
L655.063 540
L655.733 496.8
L656.402 540
L657.072 540
L658.411 453.6
L659.75 540
L660.42 540
L661.09 453.6
L661.759 540
L662.429 496.8
L663.098 540
L663.768 453.6
L664.438 540
L665.107 583.2
L665.777 496.8
L666.446 540
L667.116 453.6
L668.455 540
L669.125 496.8
L669.794 583.2
L671.134 496.8
L672.473 496.8
L673.142 583.2
L673.812 496.8
L675.151 496.8
L675.821 453.6
L676.49 496.8
L677.16 453.6
L677.83 583.2
L678.499 496.8
L679.169 496.8
L679.838 453.6
L681.178 453.6
L681.847 583.2
L682.517 540
L683.186 540
L683.856 453.6
L684.526 540
L685.195 367.2
L685.865 496.8
L686.534 453.6
L687.204 540
L687.874 453.6
L688.543 496.8
L689.213 410.4
L689.882 367.2
L690.552 453.6
L691.222 367.2
L691.891 496.8
L693.23 410.4
L693.9 583.2
L694.57 453.6
L695.239 410.4
L695.909 540
L696.578 453.6
L697.248 453.6
L697.918 324
L698.587 496.8
L699.257 453.6
L699.926 540
L700.596 410.4
L701.266 410.4
L701.935 496.8
L702.605 496.8
L703.274 324
L703.944 453.6
L704.614 453.6
L705.283 540
L705.953 410.4
L706.622 324
L707.292 410.4
L707.962 410.4
L709.301 496.8
L709.97 453.6
L710.64 367.2
L711.31 453.6
L711.979 453.6
L712.649 367.2
L713.988 367.2
L714.658 410.4
L715.327 324
L715.997 367.2
L716.666 453.6
L718.006 367.2
L719.345 367.2
L720.014 324
L720.684 410.4
L721.354 367.2
L722.023 237.6
L722.693 367.2
L723.362 280.8
L724.032 453.6
L724.702 280.8
L726.041 280.8
L726.71 367.2
L727.38 410.4
L728.05 324
L728.719 367.2
L729.389 496.8
L730.058 540
L730.728 280.8
L731.398 237.6
L732.067 280.8
L732.737 367.2
L733.406 410.4
L734.076 280.8
L734.746 367.2
L735.415 367.2
L736.085 453.6
L736.754 367.2
L737.424 410.4
L738.094 367.2
L738.763 237.6
L739.433 367.2
L740.102 410.4
L740.772 410.4
L741.442 237.6
L742.111 324
L743.45 410.4
L744.12 324
L744.79 367.2
L745.459 280.8
L746.129 324
L746.798 410.4
L747.468 453.6
L748.138 367.2
L748.807 324
L749.477 367.2
L750.146 367.2
L751.486 280.8
L752.825 453.6
L753.494 367.2
L754.164 237.6
L754.834 496.8
L755.503 410.4
L756.173 237.6
L756.842 280.8
L757.512 237.6
L758.182 280.8
L758.851 410.4
L759.521 367.2
L760.19 237.6
L760.86 410.4
L761.53 410.4
L762.199 324
L763.538 237.6
L764.208 237.6
L764.878 280.8
L765.547 237.6
L766.217 324
L767.556 237.6
L768.226 237.6
L768.895 410.4
L769.565 194.4
L770.234 324
L770.904 194.4
L771.574 280.8
L772.243 324
L772.913 324
L773.582 410.4
L774.252 64.8
L774.922 194.4
L775.591 151.2
L776.261 237.6
L776.93 194.4
L777.6 108
L777.6 108" style="fill:none;stroke:#ff0000;stroke-linecap:square;"/>
   </g>
   <g id="line2d_2">
    <path clip-path="url(#p7ceb695115)" d="
M108 583.2
L354.413 583.2
L355.082 540
L367.805 540
L368.474 583.2
L369.144 540
L369.814 583.2
L370.483 540
L443.47 540
L444.139 583.2
L444.809 540
L445.478 583.2
L446.148 583.2
L446.818 540
L447.487 583.2
L454.853 583.2
L455.522 540
L456.192 583.2
L465.566 583.2
L466.236 540
L466.906 583.2
L476.95 583.2
L477.619 540
L478.289 583.2
L486.994 583.2
L487.663 540
L488.333 583.2
L492.35 583.2
L493.02 540
L493.69 583.2
L503.064 583.2
L503.734 540
L504.403 540
L505.073 583.2
L509.09 583.2
L509.76 540
L510.43 583.2
L517.126 583.2
L517.795 540
L518.465 583.2
L521.143 583.2
L521.813 540
L522.482 583.2
L524.491 583.2
L525.161 540
L525.83 583.2
L548.597 583.2
L549.266 540
L549.936 540
L550.606 583.2
L554.623 583.2
L555.293 540
L555.962 583.2
L560.65 583.2
L561.319 540
L562.658 540
L563.328 583.2
L563.998 540
L564.667 583.2
L565.337 540
L566.006 583.2
L566.676 540
L567.346 583.2
L569.354 583.2
L570.024 540
L570.694 540
L571.363 496.8
L572.702 583.2
L573.372 583.2
L574.042 540
L574.711 583.2
L575.381 496.8
L576.05 583.2
L576.72 540
L577.39 583.2
L579.398 583.2
L580.068 496.8
L580.738 583.2
L581.407 583.2
L582.077 540
L582.746 583.2
L583.416 583.2
L584.086 540
L584.755 583.2
L586.764 583.2
L587.434 540
L588.103 583.2
L590.782 583.2
L591.451 540
L592.121 540
L592.79 583.2
L593.46 540
L594.13 583.2
L594.799 583.2
L595.469 496.8
L596.138 583.2
L599.486 583.2
L600.156 496.8
L600.826 496.8
L601.495 583.2
L602.165 496.8
L602.834 583.2
L603.504 540
L604.174 540
L604.843 583.2
L605.513 453.6
L606.182 583.2
L606.852 583.2
L607.522 540
L608.861 540
L609.53 583.2
L610.2 540
L612.878 540
L613.548 583.2
L614.218 540
L614.887 453.6
L615.557 540
L616.226 540
L616.896 496.8
L618.235 583.2
L618.905 540
L619.574 540
L620.244 496.8
L620.914 540
L623.592 540
L624.262 453.6
L624.931 583.2
L625.601 496.8
L626.27 583.2
L626.94 583.2
L627.61 540
L628.279 583.2
L628.949 540
L629.618 540
L630.288 583.2
L630.958 496.8
L631.627 453.6
L632.297 453.6
L632.966 540
L633.636 583.2
L634.306 540
L635.645 540
L636.314 583.2
L636.984 540
L638.323 540
L638.993 453.6
L639.662 583.2
L640.332 496.8
L641.002 496.8
L641.671 453.6
L642.341 583.2
L644.35 583.2
L645.019 496.8
L645.689 453.6
L646.358 496.8
L647.028 496.8
L648.367 583.2
L649.037 540
L649.706 453.6
L650.376 540
L651.046 583.2
L651.715 583.2
L652.385 410.4
L653.054 496.8
L653.724 410.4
L654.394 496.8
L655.063 496.8
L656.402 583.2
L657.742 583.2
L658.411 453.6
L659.081 496.8
L659.75 410.4
L660.42 540
L661.09 496.8
L663.098 496.8
L663.768 540
L664.438 410.4
L665.107 453.6
L665.777 453.6
L666.446 540
L667.116 540
L667.786 496.8
L668.455 410.4
L669.125 583.2
L669.794 453.6
L670.464 410.4
L671.134 540
L672.473 540
L673.142 496.8
L673.812 367.2
L674.482 280.8
L675.151 540
L675.821 583.2
L676.49 496.8
L677.16 496.8
L677.83 367.2
L678.499 453.6
L679.169 496.8
L679.838 410.4
L680.508 496.8
L681.178 496.8
L681.847 540
L683.186 540
L683.856 410.4
L684.526 583.2
L685.195 453.6
L685.865 540
L686.534 453.6
L687.874 453.6
L689.213 540
L691.891 367.2
L692.561 453.6
L693.23 496.8
L694.57 496.8
L695.239 453.6
L695.909 453.6
L696.578 324
L697.248 453.6
L697.918 410.4
L698.587 410.4
L699.257 540
L701.266 410.4
L701.935 496.8
L702.605 324
L703.274 410.4
L704.614 410.4
L705.283 237.6
L706.622 496.8
L707.292 453.6
L708.631 453.6
L709.301 367.2
L709.97 367.2
L710.64 410.4
L711.31 367.2
L711.979 410.4
L713.318 410.4
L713.988 324
L714.658 324
L715.327 367.2
L715.997 324
L717.336 324
L718.006 367.2
L718.675 496.8
L719.345 324
L720.014 280.8
L720.684 453.6
L721.354 324
L722.023 367.2
L722.693 324
L723.362 367.2
L724.702 367.2
L725.371 324
L726.041 367.2
L726.71 280.8
L727.38 280.8
L728.05 410.4
L728.719 280.8
L729.389 280.8
L731.398 410.4
L732.067 367.2
L732.737 410.4
L733.406 367.2
L734.076 410.4
L734.746 367.2
L736.085 367.2
L736.754 453.6
L737.424 367.2
L738.094 496.8
L738.763 280.8
L739.433 367.2
L740.102 324
L740.772 367.2
L741.442 324
L742.781 324
L743.45 280.8
L744.12 410.4
L744.79 410.4
L745.459 237.6
L746.129 237.6
L746.798 410.4
L747.468 280.8
L748.138 410.4
L748.807 324
L749.477 194.4
L750.146 237.6
L750.816 237.6
L751.486 410.4
L752.155 280.8
L752.825 280.8
L753.494 237.6
L754.164 237.6
L754.834 324
L755.503 237.6
L756.173 194.4
L756.842 324
L758.182 237.6
L758.851 280.8
L759.521 194.4
L760.19 367.2
L760.86 280.8
L761.53 280.8
L762.199 237.6
L762.869 151.2
L763.538 324
L764.208 237.6
L764.878 410.4
L765.547 367.2
L766.217 237.6
L766.886 324
L767.556 237.6
L768.226 410.4
L768.895 367.2
L769.565 151.2
L770.234 237.6
L770.904 280.8
L771.574 280.8
L772.243 324
L773.582 237.6
L774.252 367.2
L775.591 194.4
L776.261 280.8
L776.93 324
L777.6 194.4
L777.6 194.4" style="fill:none;stroke:#008000;stroke-linecap:square;"/>
   </g>
   <g id="line2d_3">
    <path clip-path="url(#p7ceb695115)" d="
M108 583.2
L311.558 583.2
L312.228 540
L315.576 540
L316.246 583.2
L316.915 540
L341.69 540
L342.36 583.2
L343.03 540
L377.849 540
L378.518 496.8
L379.188 540
L379.858 496.8
L418.694 496.8
L419.364 540
L420.034 496.8
L442.8 496.8
L443.47 540
L444.139 496.8
L445.478 583.2
L446.148 540
L446.818 583.2
L448.826 583.2
L449.496 540
L450.166 583.2
L458.201 583.2
L458.87 540
L459.54 583.2
L462.218 583.2
L462.888 540
L463.558 583.2
L476.28 583.2
L476.95 540
L477.619 583.2
L495.698 583.2
L496.368 540
L497.038 583.2
L505.742 583.2
L506.412 540
L507.082 583.2
L509.09 583.2
L509.76 540
L510.43 583.2
L513.778 583.2
L514.447 540
L515.117 540
L515.786 583.2
L516.456 583.2
L517.126 540
L517.795 540
L518.465 583.2
L521.143 583.2
L521.813 540
L522.482 540
L523.152 583.2
L523.822 583.2
L524.491 540
L525.161 540
L525.83 583.2
L526.5 583.2
L527.17 540
L527.839 540
L528.509 583.2
L529.178 583.2
L529.848 540
L530.518 540
L531.187 583.2
L531.857 583.2
L532.526 540
L533.196 540
L533.866 583.2
L534.535 583.2
L535.205 540
L535.874 583.2
L536.544 583.2
L537.214 540
L537.883 583.2
L538.553 583.2
L539.222 496.8
L539.892 583.2
L540.562 583.2
L541.231 540
L541.901 583.2
L542.57 583.2
L543.91 496.8
L544.579 540
L546.588 540
L547.258 583.2
L549.266 583.2
L549.936 540
L550.606 583.2
L551.275 453.6
L551.945 583.2
L552.614 583.2
L553.284 540
L553.954 583.2
L554.623 540
L556.632 540
L557.302 583.2
L557.971 583.2
L558.641 540
L559.31 583.2
L559.98 496.8
L560.65 540
L561.319 496.8
L561.989 540
L562.658 540
L563.328 453.6
L563.998 496.8
L564.667 583.2
L566.006 496.8
L567.346 583.2
L568.015 496.8
L568.685 583.2
L569.354 583.2
L570.024 540
L570.694 540
L571.363 583.2
L572.033 540
L572.702 583.2
L574.042 583.2
L574.711 540
L575.381 583.2
L576.05 583.2
L576.72 540
L577.39 583.2
L578.729 583.2
L579.398 540
L580.068 583.2
L582.746 583.2
L583.416 540
L584.755 540
L585.425 583.2
L586.764 583.2
L587.434 540
L588.773 540
L589.442 583.2
L590.112 453.6
L590.782 496.8
L591.451 583.2
L592.121 583.2
L592.79 540
L593.46 583.2
L594.13 496.8
L594.799 540
L596.138 540
L596.808 583.2
L597.478 453.6
L598.147 496.8
L598.817 453.6
L600.156 540
L600.826 453.6
L601.495 453.6
L602.165 583.2
L602.834 583.2
L603.504 540
L604.174 583.2
L604.843 496.8
L605.513 583.2
L606.182 583.2
L606.852 540
L608.861 540
L609.53 496.8
L610.2 540
L610.87 496.8
L611.539 540
L612.878 540
L613.548 583.2
L614.218 453.6
L614.887 496.8
L615.557 453.6
L616.896 540
L617.566 453.6
L618.235 453.6
L620.244 583.2
L620.914 540
L621.583 540
L622.253 496.8
L622.922 540
L623.592 453.6
L624.262 583.2
L624.931 496.8
L625.601 496.8
L626.27 540
L626.94 496.8
L627.61 367.2
L628.279 583.2
L628.949 453.6
L629.618 583.2
L630.288 496.8
L630.958 540
L631.627 496.8
L632.966 496.8
L633.636 583.2
L634.306 496.8
L634.975 540
L635.645 453.6
L636.314 540
L636.984 496.8
L637.654 540
L638.993 540
L639.662 583.2
L640.332 453.6
L641.671 453.6
L642.341 583.2
L643.01 453.6
L643.68 583.2
L644.35 453.6
L645.019 453.6
L645.689 583.2
L646.358 453.6
L647.028 496.8
L647.698 583.2
L649.037 496.8
L649.706 540
L650.376 540
L651.046 453.6
L651.715 410.4
L652.385 540
L653.054 453.6
L653.724 453.6
L654.394 496.8
L655.063 410.4
L655.733 496.8
L656.402 496.8
L657.072 540
L657.742 540
L658.411 367.2
L659.081 496.8
L659.75 496.8
L660.42 410.4
L661.09 496.8
L662.429 496.8
L663.098 453.6
L664.438 540
L666.446 540
L667.786 453.6
L668.455 453.6
L669.125 540
L670.464 540
L671.134 583.2
L672.473 496.8
L673.142 496.8
L673.812 453.6
L674.482 496.8
L676.49 496.8
L677.16 410.4
L677.83 453.6
L678.499 540
L679.838 453.6
L680.508 453.6
L681.178 410.4
L681.847 540
L682.517 367.2
L683.186 496.8
L683.856 496.8
L684.526 540
L685.195 324
L685.865 453.6
L686.534 496.8
L688.543 367.2
L689.213 496.8
L689.882 280.8
L690.552 410.4
L691.222 496.8
L691.891 410.4
L692.561 453.6
L693.23 540
L693.9 496.8
L695.239 496.8
L695.909 453.6
L696.578 367.2
L697.248 540
L697.918 496.8
L698.587 410.4
L699.257 453.6
L699.926 453.6
L700.596 583.2
L701.266 496.8
L701.935 453.6
L702.605 496.8
L703.274 410.4
L703.944 453.6
L704.614 453.6
L705.283 496.8
L705.953 496.8
L706.622 410.4
L707.292 496.8
L707.962 496.8
L708.631 410.4
L709.301 496.8
L709.97 453.6
L710.64 496.8
L711.31 324
L711.979 540
L712.649 453.6
L713.318 496.8
L713.988 324
L714.658 496.8
L715.327 453.6
L715.997 496.8
L716.666 410.4
L717.336 410.4
L718.006 324
L718.675 453.6
L719.345 453.6
L720.014 410.4
L720.684 410.4
L721.354 280.8
L722.023 324
L722.693 237.6
L723.362 410.4
L724.032 496.8
L724.702 280.8
L726.041 453.6
L726.71 324
L727.38 453.6
L728.719 367.2
L729.389 410.4
L730.058 237.6
L730.728 367.2
L731.398 367.2
L732.067 237.6
L732.737 367.2
L733.406 453.6
L734.076 280.8
L734.746 410.4
L735.415 410.4
L736.085 324
L737.424 410.4
L738.094 237.6
L738.763 453.6
L739.433 324
L740.102 453.6
L740.772 324
L741.442 324
L742.111 280.8
L742.781 367.2
L743.45 410.4
L744.12 280.8
L745.459 367.2
L746.129 496.8
L747.468 237.6
L748.138 324
L748.807 280.8
L749.477 367.2
L750.146 324
L750.816 324
L751.486 410.4
L752.155 280.8
L752.825 410.4
L753.494 367.2
L754.164 280.8
L754.834 410.4
L755.503 453.6
L756.173 324
L757.512 410.4
L758.182 280.8
L759.521 280.8
L760.19 410.4
L760.86 367.2
L761.53 410.4
L762.199 324
L762.869 324
L763.538 410.4
L764.208 324
L764.878 367.2
L765.547 280.8
L766.217 324
L767.556 324
L768.226 280.8
L768.895 367.2
L770.904 367.2
L771.574 280.8
L772.243 324
L772.913 324
L773.582 410.4
L774.922 237.6
L775.591 410.4
L776.261 410.4
L776.93 280.8
L777.6 410.4
L777.6 410.4" style="fill:none;stroke:#0000ff;stroke-linecap:square;"/>
   </g>
   <g id="patch_3">
    <path d="
M108 583.2
L108 64.8" style="fill:none;stroke:#000000;stroke-linecap:square;stroke-linejoin:miter;"/>
   </g>
   <g id="patch_4">
    <path d="
M108 64.8
L777.6 64.8" style="fill:none;stroke:#000000;stroke-linecap:square;stroke-linejoin:miter;"/>
   </g>
   <g id="patch_5">
    <path d="
M108 583.2
L777.6 583.2" style="fill:none;stroke:#000000;stroke-linecap:square;stroke-linejoin:miter;"/>
   </g>
   <g id="patch_6">
    <path d="
M777.6 583.2
L777.6 64.8" style="fill:none;stroke:#000000;stroke-linecap:square;stroke-linejoin:miter;"/>
   </g>
   <g id="matplotlib.axis_1">
    <g id="xtick_1">
     <g id="line2d_4">
      <defs>
       <path d="
M0 0
L0 -4" id="mc7db9fdffb" style="stroke:#000000;stroke-width:0.5;"/>
      </defs>
      <g>
       <use style="stroke:#000000;stroke-width:0.5;" x="108.0" xlink:href="#mc7db9fdffb" y="583.2"/>
      </g>
     </g>
     <g id="line2d_5">
      <defs>
       <path d="
M0 0
L0 4" id="m5a7d422ac3" style="stroke:#000000;stroke-width:0.5;"/>
      </defs>
      <g>
       <use style="stroke:#000000;stroke-width:0.5;" x="108.0" xlink:href="#m5a7d422ac3" y="64.8"/>
      </g>
     </g>
     <g id="text_1">
      <!-- 0 -->
      <defs>
       <path d="
M31.7812 66.4062
Q24.1719 66.4062 20.3281 58.9062
Q16.5 51.4219 16.5 36.375
Q16.5 21.3906 20.3281 13.8906
Q24.1719 6.39062 31.7812 6.39062
Q39.4531 6.39062 43.2812 13.8906
Q47.125 21.3906 47.125 36.375
Q47.125 51.4219 43.2812 58.9062
Q39.4531 66.4062 31.7812 66.4062
M31.7812 74.2188
Q44.0469 74.2188 50.5156 64.5156
Q56.9844 54.8281 56.9844 36.375
Q56.9844 17.9688 50.5156 8.26562
Q44.0469 -1.42188 31.7812 -1.42188
Q19.5312 -1.42188 13.0625 8.26562
Q6.59375 17.9688 6.59375 36.375
Q6.59375 54.8281 13.0625 64.5156
Q19.5312 74.2188 31.7812 74.2188" id="BitstreamVeraSans-Roman-30"/>
      </defs>
      <g transform="translate(104.9765625 596.318125)scale(0.12 -0.12)">
       <use xlink:href="#BitstreamVeraSans-Roman-30"/>
      </g>
     </g>
    </g>
    <g id="xtick_2">
     <g id="line2d_6">
      <g>
       <use style="stroke:#000000;stroke-width:0.5;" x="275.4" xlink:href="#mc7db9fdffb" y="583.2"/>
      </g>
     </g>
     <g id="line2d_7">
      <g>
       <use style="stroke:#000000;stroke-width:0.5;" x="275.4" xlink:href="#m5a7d422ac3" y="64.8"/>
      </g>
     </g>
     <g id="text_2">
      <!-- 50000 -->
      <defs>
       <path d="
M10.7969 72.9062
L49.5156 72.9062
L49.5156 64.5938
L19.8281 64.5938
L19.8281 46.7344
Q21.9688 47.4688 24.1094 47.8281
Q26.2656 48.1875 28.4219 48.1875
Q40.625 48.1875 47.75 41.5
Q54.8906 34.8125 54.8906 23.3906
Q54.8906 11.625 47.5625 5.09375
Q40.2344 -1.42188 26.9062 -1.42188
Q22.3125 -1.42188 17.5469 -0.640625
Q12.7969 0.140625 7.71875 1.70312
L7.71875 11.625
Q12.1094 9.23438 16.7969 8.0625
Q21.4844 6.89062 26.7031 6.89062
Q35.1562 6.89062 40.0781 11.3281
Q45.0156 15.7656 45.0156 23.3906
Q45.0156 31 40.0781 35.4375
Q35.1562 39.8906 26.7031 39.8906
Q22.75 39.8906 18.8125 39.0156
Q14.8906 38.1406 10.7969 36.2812
z
" id="BitstreamVeraSans-Roman-35"/>
      </defs>
      <g transform="translate(257.1740625 596.318125)scale(0.12 -0.12)">
       <use xlink:href="#BitstreamVeraSans-Roman-35"/>
       <use x="63.623046875" xlink:href="#BitstreamVeraSans-Roman-30"/>
       <use x="127.24609375" xlink:href="#BitstreamVeraSans-Roman-30"/>
       <use x="190.869140625" xlink:href="#BitstreamVeraSans-Roman-30"/>
       <use x="254.4921875" xlink:href="#BitstreamVeraSans-Roman-30"/>
      </g>
     </g>
    </g>
    <g id="xtick_3">
     <g id="line2d_8">
      <g>
       <use style="stroke:#000000;stroke-width:0.5;" x="442.8" xlink:href="#mc7db9fdffb" y="583.2"/>
      </g>
     </g>
     <g id="line2d_9">
      <g>
       <use style="stroke:#000000;stroke-width:0.5;" x="442.8" xlink:href="#m5a7d422ac3" y="64.8"/>
      </g>
     </g>
     <g id="text_3">
      <!-- 100000 -->
      <defs>
       <path d="
M12.4062 8.29688
L28.5156 8.29688
L28.5156 63.9219
L10.9844 60.4062
L10.9844 69.3906
L28.4219 72.9062
L38.2812 72.9062
L38.2812 8.29688
L54.3906 8.29688
L54.3906 0
L12.4062 0
z
" id="BitstreamVeraSans-Roman-31"/>
      </defs>
      <g transform="translate(420.9525 596.318125)scale(0.12 -0.12)">
       <use xlink:href="#BitstreamVeraSans-Roman-31"/>
       <use x="63.623046875" xlink:href="#BitstreamVeraSans-Roman-30"/>
       <use x="127.24609375" xlink:href="#BitstreamVeraSans-Roman-30"/>
       <use x="190.869140625" xlink:href="#BitstreamVeraSans-Roman-30"/>
       <use x="254.4921875" xlink:href="#BitstreamVeraSans-Roman-30"/>
       <use x="318.115234375" xlink:href="#BitstreamVeraSans-Roman-30"/>
      </g>
     </g>
    </g>
    <g id="xtick_4">
     <g id="line2d_10">
      <g>
       <use style="stroke:#000000;stroke-width:0.5;" x="610.2" xlink:href="#mc7db9fdffb" y="583.2"/>
      </g>
     </g>
     <g id="line2d_11">
      <g>
       <use style="stroke:#000000;stroke-width:0.5;" x="610.2" xlink:href="#m5a7d422ac3" y="64.8"/>
      </g>
     </g>
     <g id="text_4">
      <!-- 150000 -->
      <g transform="translate(588.3525 596.318125)scale(0.12 -0.12)">
       <use xlink:href="#BitstreamVeraSans-Roman-31"/>
       <use x="63.623046875" xlink:href="#BitstreamVeraSans-Roman-35"/>
       <use x="127.24609375" xlink:href="#BitstreamVeraSans-Roman-30"/>
       <use x="190.869140625" xlink:href="#BitstreamVeraSans-Roman-30"/>
       <use x="254.4921875" xlink:href="#BitstreamVeraSans-Roman-30"/>
       <use x="318.115234375" xlink:href="#BitstreamVeraSans-Roman-30"/>
      </g>
     </g>
    </g>
    <g id="xtick_5">
     <g id="line2d_12">
      <g>
       <use style="stroke:#000000;stroke-width:0.5;" x="777.6" xlink:href="#mc7db9fdffb" y="583.2"/>
      </g>
     </g>
     <g id="line2d_13">
      <g>
       <use style="stroke:#000000;stroke-width:0.5;" x="777.6" xlink:href="#m5a7d422ac3" y="64.8"/>
      </g>
     </g>
     <g id="text_5">
      <!-- 200000 -->
      <defs>
       <path d="
M19.1875 8.29688
L53.6094 8.29688
L53.6094 0
L7.32812 0
L7.32812 8.29688
Q12.9375 14.1094 22.625 23.8906
Q32.3281 33.6875 34.8125 36.5312
Q39.5469 41.8438 41.4219 45.5312
Q43.3125 49.2188 43.3125 52.7812
Q43.3125 58.5938 39.2344 62.25
Q35.1562 65.9219 28.6094 65.9219
Q23.9688 65.9219 18.8125 64.3125
Q13.6719 62.7031 7.8125 59.4219
L7.8125 69.3906
Q13.7656 71.7812 18.9375 73
Q24.125 74.2188 28.4219 74.2188
Q39.75 74.2188 46.4844 68.5469
Q53.2188 62.8906 53.2188 53.4219
Q53.2188 48.9219 51.5312 44.8906
Q49.8594 40.875 45.4062 35.4062
Q44.1875 33.9844 37.6406 27.2188
Q31.1094 20.4531 19.1875 8.29688" id="BitstreamVeraSans-Roman-32"/>
      </defs>
      <g transform="translate(755.533125 596.318125)scale(0.12 -0.12)">
       <use xlink:href="#BitstreamVeraSans-Roman-32"/>
       <use x="63.623046875" xlink:href="#BitstreamVeraSans-Roman-30"/>
       <use x="127.24609375" xlink:href="#BitstreamVeraSans-Roman-30"/>
       <use x="190.869140625" xlink:href="#BitstreamVeraSans-Roman-30"/>
       <use x="254.4921875" xlink:href="#BitstreamVeraSans-Roman-30"/>
       <use x="318.115234375" xlink:href="#BitstreamVeraSans-Roman-30"/>
      </g>
     </g>
    </g>
    <g id="text_6">
     <!-- t / ms -->
     <defs>
      <path d="
M25.3906 72.9062
L33.6875 72.9062
L8.29688 -9.28125
L0 -9.28125
z
" id="BitstreamVeraSans-Roman-2f"/>
      <path d="
M44.2812 53.0781
L44.2812 44.5781
Q40.4844 46.5312 36.375 47.5
Q32.2812 48.4844 27.875 48.4844
Q21.1875 48.4844 17.8438 46.4375
Q14.5 44.3906 14.5 40.2812
Q14.5 37.1562 16.8906 35.375
Q19.2812 33.5938 26.5156 31.9844
L29.5938 31.2969
Q39.1562 29.25 43.1875 25.5156
Q47.2188 21.7812 47.2188 15.0938
Q47.2188 7.46875 41.1875 3.01562
Q35.1562 -1.42188 24.6094 -1.42188
Q20.2188 -1.42188 15.4531 -0.5625
Q10.6875 0.296875 5.42188 2
L5.42188 11.2812
Q10.4062 8.6875 15.2344 7.39062
Q20.0625 6.10938 24.8125 6.10938
Q31.1562 6.10938 34.5625 8.28125
Q37.9844 10.4531 37.9844 14.4062
Q37.9844 18.0625 35.5156 20.0156
Q33.0625 21.9688 24.7031 23.7812
L21.5781 24.5156
Q13.2344 26.2656 9.51562 29.9062
Q5.8125 33.5469 5.8125 39.8906
Q5.8125 47.6094 11.2812 51.7969
Q16.75 56 26.8125 56
Q31.7812 56 36.1719 55.2656
Q40.5781 54.5469 44.2812 53.0781" id="BitstreamVeraSans-Roman-73"/>
      <path d="
M52 44.1875
Q55.375 50.25 60.0625 53.125
Q64.75 56 71.0938 56
Q79.6406 56 84.2812 50.0156
Q88.9219 44.0469 88.9219 33.0156
L88.9219 0
L79.8906 0
L79.8906 32.7188
Q79.8906 40.5781 77.0938 44.375
Q74.3125 48.1875 68.6094 48.1875
Q61.625 48.1875 57.5625 43.5469
Q53.5156 38.9219 53.5156 30.9062
L53.5156 0
L44.4844 0
L44.4844 32.7188
Q44.4844 40.625 41.7031 44.4062
Q38.9219 48.1875 33.1094 48.1875
Q26.2188 48.1875 22.1562 43.5312
Q18.1094 38.875 18.1094 30.9062
L18.1094 0
L9.07812 0
L9.07812 54.6875
L18.1094 54.6875
L18.1094 46.1875
Q21.1875 51.2188 25.4844 53.6094
Q29.7812 56 35.6875 56
Q41.6562 56 45.8281 52.9688
Q50 49.9531 52 44.1875" id="BitstreamVeraSans-Roman-6d"/>
      <path d="
M18.3125 70.2188
L18.3125 54.6875
L36.8125 54.6875
L36.8125 47.7031
L18.3125 47.7031
L18.3125 18.0156
Q18.3125 11.3281 20.1406 9.42188
Q21.9688 7.51562 27.5938 7.51562
L36.8125 7.51562
L36.8125 0
L27.5938 0
Q17.1875 0 13.2344 3.875
Q9.28125 7.76562 9.28125 18.0156
L9.28125 47.7031
L2.6875 47.7031
L2.6875 54.6875
L9.28125 54.6875
L9.28125 70.2188
z
" id="BitstreamVeraSans-Roman-74"/>
      <path id="BitstreamVeraSans-Roman-20"/>
     </defs>
     <g transform="translate(425.9353125 612.931875)scale(0.12 -0.12)">
      <use xlink:href="#BitstreamVeraSans-Roman-74"/>
      <use x="39.208984375" xlink:href="#BitstreamVeraSans-Roman-20"/>
      <use x="70.99609375" xlink:href="#BitstreamVeraSans-Roman-2f"/>
      <use x="104.6875" xlink:href="#BitstreamVeraSans-Roman-20"/>
      <use x="136.474609375" xlink:href="#BitstreamVeraSans-Roman-6d"/>
      <use x="233.88671875" xlink:href="#BitstreamVeraSans-Roman-73"/>
     </g>
    </g>
   </g>
   <g id="matplotlib.axis_2">
    <g id="ytick_1">
     <g id="line2d_14">
      <defs>
       <path d="
M0 0
L4 0" id="md7965d1ba0" style="stroke:#000000;stroke-width:0.5;"/>
      </defs>
      <g>
       <use style="stroke:#000000;stroke-width:0.5;" x="108.0" xlink:href="#md7965d1ba0" y="583.2"/>
      </g>
     </g>
     <g id="line2d_15">
      <defs>
       <path d="
M0 0
L-4 0" id="md9a1c1a7cd" style="stroke:#000000;stroke-width:0.5;"/>
      </defs>
      <g>
       <use style="stroke:#000000;stroke-width:0.5;" x="777.6" xlink:href="#md9a1c1a7cd" y="583.2"/>
      </g>
     </g>
     <g id="text_7">
      <!-- 0 -->
      <g transform="translate(97.953125 586.51125)scale(0.12 -0.12)">
       <use xlink:href="#BitstreamVeraSans-Roman-30"/>
      </g>
     </g>
    </g>
    <g id="ytick_2">
     <g id="line2d_16">
      <g>
       <use style="stroke:#000000;stroke-width:0.5;" x="108.0" xlink:href="#md7965d1ba0" y="496.8"/>
      </g>
     </g>
     <g id="line2d_17">
      <g>
       <use style="stroke:#000000;stroke-width:0.5;" x="777.6" xlink:href="#md9a1c1a7cd" y="496.8"/>
      </g>
     </g>
     <g id="text_8">
      <!-- 2 -->
      <g transform="translate(98.44625 500.11125)scale(0.12 -0.12)">
       <use xlink:href="#BitstreamVeraSans-Roman-32"/>
      </g>
     </g>
    </g>
    <g id="ytick_3">
     <g id="line2d_18">
      <g>
       <use style="stroke:#000000;stroke-width:0.5;" x="108.0" xlink:href="#md7965d1ba0" y="410.4"/>
      </g>
     </g>
     <g id="line2d_19">
      <g>
       <use style="stroke:#000000;stroke-width:0.5;" x="777.6" xlink:href="#md9a1c1a7cd" y="410.4"/>
      </g>
     </g>
     <g id="text_9">
      <!-- 4 -->
      <defs>
       <path d="
M37.7969 64.3125
L12.8906 25.3906
L37.7969 25.3906
z

M35.2031 72.9062
L47.6094 72.9062
L47.6094 25.3906
L58.0156 25.3906
L58.0156 17.1875
L47.6094 17.1875
L47.6094 0
L37.7969 0
L37.7969 17.1875
L4.89062 17.1875
L4.89062 26.7031
z
" id="BitstreamVeraSans-Roman-34"/>
      </defs>
      <g transform="translate(97.625 413.71125)scale(0.12 -0.12)">
       <use xlink:href="#BitstreamVeraSans-Roman-34"/>
      </g>
     </g>
    </g>
    <g id="ytick_4">
     <g id="line2d_20">
      <g>
       <use style="stroke:#000000;stroke-width:0.5;" x="108.0" xlink:href="#md7965d1ba0" y="324.0"/>
      </g>
     </g>
     <g id="line2d_21">
      <g>
       <use style="stroke:#000000;stroke-width:0.5;" x="777.6" xlink:href="#md9a1c1a7cd" y="324.0"/>
      </g>
     </g>
     <g id="text_10">
      <!-- 6 -->
      <defs>
       <path d="
M33.0156 40.375
Q26.375 40.375 22.4844 35.8281
Q18.6094 31.2969 18.6094 23.3906
Q18.6094 15.5312 22.4844 10.9531
Q26.375 6.39062 33.0156 6.39062
Q39.6562 6.39062 43.5312 10.9531
Q47.4062 15.5312 47.4062 23.3906
Q47.4062 31.2969 43.5312 35.8281
Q39.6562 40.375 33.0156 40.375
M52.5938 71.2969
L52.5938 62.3125
Q48.875 64.0625 45.0938 64.9844
Q41.3125 65.9219 37.5938 65.9219
Q27.8281 65.9219 22.6719 59.3281
Q17.5312 52.7344 16.7969 39.4062
Q19.6719 43.6562 24.0156 45.9219
Q28.375 48.1875 33.5938 48.1875
Q44.5781 48.1875 50.9531 41.5156
Q57.3281 34.8594 57.3281 23.3906
Q57.3281 12.1562 50.6875 5.35938
Q44.0469 -1.42188 33.0156 -1.42188
Q20.3594 -1.42188 13.6719 8.26562
Q6.98438 17.9688 6.98438 36.375
Q6.98438 53.6562 15.1875 63.9375
Q23.3906 74.2188 37.2031 74.2188
Q40.9219 74.2188 44.7031 73.4844
Q48.4844 72.75 52.5938 71.2969" id="BitstreamVeraSans-Roman-36"/>
      </defs>
      <g transform="translate(97.95875 327.31125)scale(0.12 -0.12)">
       <use xlink:href="#BitstreamVeraSans-Roman-36"/>
      </g>
     </g>
    </g>
    <g id="ytick_5">
     <g id="line2d_22">
      <g>
       <use style="stroke:#000000;stroke-width:0.5;" x="108.0" xlink:href="#md7965d1ba0" y="237.6"/>
      </g>
     </g>
     <g id="line2d_23">
      <g>
       <use style="stroke:#000000;stroke-width:0.5;" x="777.6" xlink:href="#md9a1c1a7cd" y="237.6"/>
      </g>
     </g>
     <g id="text_11">
      <!-- 8 -->
      <defs>
       <path d="
M31.7812 34.625
Q24.75 34.625 20.7188 30.8594
Q16.7031 27.0938 16.7031 20.5156
Q16.7031 13.9219 20.7188 10.1562
Q24.75 6.39062 31.7812 6.39062
Q38.8125 6.39062 42.8594 10.1719
Q46.9219 13.9688 46.9219 20.5156
Q46.9219 27.0938 42.8906 30.8594
Q38.875 34.625 31.7812 34.625
M21.9219 38.8125
Q15.5781 40.375 12.0312 44.7188
Q8.5 49.0781 8.5 55.3281
Q8.5 64.0625 14.7188 69.1406
Q20.9531 74.2188 31.7812 74.2188
Q42.6719 74.2188 48.875 69.1406
Q55.0781 64.0625 55.0781 55.3281
Q55.0781 49.0781 51.5312 44.7188
Q48 40.375 41.7031 38.8125
Q48.8281 37.1562 52.7969 32.3125
Q56.7812 27.4844 56.7812 20.5156
Q56.7812 9.90625 50.3125 4.23438
Q43.8438 -1.42188 31.7812 -1.42188
Q19.7344 -1.42188 13.25 4.23438
Q6.78125 9.90625 6.78125 20.5156
Q6.78125 27.4844 10.7812 32.3125
Q14.7969 37.1562 21.9219 38.8125
M18.3125 54.3906
Q18.3125 48.7344 21.8438 45.5625
Q25.3906 42.3906 31.7812 42.3906
Q38.1406 42.3906 41.7188 45.5625
Q45.3125 48.7344 45.3125 54.3906
Q45.3125 60.0625 41.7188 63.2344
Q38.1406 66.4062 31.7812 66.4062
Q25.3906 66.4062 21.8438 63.2344
Q18.3125 60.0625 18.3125 54.3906" id="BitstreamVeraSans-Roman-38"/>
      </defs>
      <g transform="translate(98.0 240.91125)scale(0.12 -0.12)">
       <use xlink:href="#BitstreamVeraSans-Roman-38"/>
      </g>
     </g>
    </g>
    <g id="ytick_6">
     <g id="line2d_24">
      <g>
       <use style="stroke:#000000;stroke-width:0.5;" x="108.0" xlink:href="#md7965d1ba0" y="151.2"/>
      </g>
     </g>
     <g id="line2d_25">
      <g>
       <use style="stroke:#000000;stroke-width:0.5;" x="777.6" xlink:href="#md9a1c1a7cd" y="151.2"/>
      </g>
     </g>
     <g id="text_12">
      <!-- 10 -->
      <g transform="translate(90.845 154.51125)scale(0.12 -0.12)">
       <use xlink:href="#BitstreamVeraSans-Roman-31"/>
       <use x="63.623046875" xlink:href="#BitstreamVeraSans-Roman-30"/>
      </g>
     </g>
    </g>
    <g id="ytick_7">
     <g id="line2d_26">
      <g>
       <use style="stroke:#000000;stroke-width:0.5;" x="108.0" xlink:href="#md7965d1ba0" y="64.8"/>
      </g>
     </g>
     <g id="line2d_27">
      <g>
       <use style="stroke:#000000;stroke-width:0.5;" x="777.6" xlink:href="#md9a1c1a7cd" y="64.8"/>
      </g>
     </g>
     <g id="text_13">
      <!-- 12 -->
      <g transform="translate(91.25 68.11125)scale(0.12 -0.12)">
       <use xlink:href="#BitstreamVeraSans-Roman-31"/>
       <use x="63.623046875" xlink:href="#BitstreamVeraSans-Roman-32"/>
      </g>
     </g>
    </g>
    <g id="text_14">
     <!-- particle numbers -->
     <defs>
      <path d="
M48.6875 27.2969
Q48.6875 37.2031 44.6094 42.8438
Q40.5312 48.4844 33.4062 48.4844
Q26.2656 48.4844 22.1875 42.8438
Q18.1094 37.2031 18.1094 27.2969
Q18.1094 17.3906 22.1875 11.75
Q26.2656 6.10938 33.4062 6.10938
Q40.5312 6.10938 44.6094 11.75
Q48.6875 17.3906 48.6875 27.2969
M18.1094 46.3906
Q20.9531 51.2656 25.2656 53.625
Q29.5938 56 35.5938 56
Q45.5625 56 51.7812 48.0938
Q58.0156 40.1875 58.0156 27.2969
Q58.0156 14.4062 51.7812 6.48438
Q45.5625 -1.42188 35.5938 -1.42188
Q29.5938 -1.42188 25.2656 0.953125
Q20.9531 3.32812 18.1094 8.20312
L18.1094 0
L9.07812 0
L9.07812 75.9844
L18.1094 75.9844
z
" id="BitstreamVeraSans-Roman-62"/>
      <path d="
M54.8906 33.0156
L54.8906 0
L45.9062 0
L45.9062 32.7188
Q45.9062 40.4844 42.875 44.3281
Q39.8438 48.1875 33.7969 48.1875
Q26.5156 48.1875 22.3125 43.5469
Q18.1094 38.9219 18.1094 30.9062
L18.1094 0
L9.07812 0
L9.07812 54.6875
L18.1094 54.6875
L18.1094 46.1875
Q21.3438 51.125 25.7031 53.5625
Q30.0781 56 35.7969 56
Q45.2188 56 50.0469 50.1719
Q54.8906 44.3438 54.8906 33.0156" id="BitstreamVeraSans-Roman-6e"/>
      <path d="
M8.5 21.5781
L8.5 54.6875
L17.4844 54.6875
L17.4844 21.9219
Q17.4844 14.1562 20.5 10.2656
Q23.5312 6.39062 29.5938 6.39062
Q36.8594 6.39062 41.0781 11.0312
Q45.3125 15.6719 45.3125 23.6875
L45.3125 54.6875
L54.2969 54.6875
L54.2969 0
L45.3125 0
L45.3125 8.40625
Q42.0469 3.42188 37.7188 1
Q33.4062 -1.42188 27.6875 -1.42188
Q18.2656 -1.42188 13.375 4.4375
Q8.5 10.2969 8.5 21.5781" id="BitstreamVeraSans-Roman-75"/>
      <path d="
M18.1094 8.20312
L18.1094 -20.7969
L9.07812 -20.7969
L9.07812 54.6875
L18.1094 54.6875
L18.1094 46.3906
Q20.9531 51.2656 25.2656 53.625
Q29.5938 56 35.5938 56
Q45.5625 56 51.7812 48.0938
Q58.0156 40.1875 58.0156 27.2969
Q58.0156 14.4062 51.7812 6.48438
Q45.5625 -1.42188 35.5938 -1.42188
Q29.5938 -1.42188 25.2656 0.953125
Q20.9531 3.32812 18.1094 8.20312
M48.6875 27.2969
Q48.6875 37.2031 44.6094 42.8438
Q40.5312 48.4844 33.4062 48.4844
Q26.2656 48.4844 22.1875 42.8438
Q18.1094 37.2031 18.1094 27.2969
Q18.1094 17.3906 22.1875 11.75
Q26.2656 6.10938 33.4062 6.10938
Q40.5312 6.10938 44.6094 11.75
Q48.6875 17.3906 48.6875 27.2969" id="BitstreamVeraSans-Roman-70"/>
      <path d="
M48.7812 52.5938
L48.7812 44.1875
Q44.9688 46.2969 41.1406 47.3438
Q37.3125 48.3906 33.4062 48.3906
Q24.6562 48.3906 19.8125 42.8438
Q14.9844 37.3125 14.9844 27.2969
Q14.9844 17.2812 19.8125 11.7344
Q24.6562 6.20312 33.4062 6.20312
Q37.3125 6.20312 41.1406 7.25
Q44.9688 8.29688 48.7812 10.4062
L48.7812 2.09375
Q45.0156 0.34375 40.9844 -0.53125
Q36.9688 -1.42188 32.4219 -1.42188
Q20.0625 -1.42188 12.7812 6.34375
Q5.51562 14.1094 5.51562 27.2969
Q5.51562 40.6719 12.8594 48.3281
Q20.2188 56 33.0156 56
Q37.1562 56 41.1094 55.1406
Q45.0625 54.2969 48.7812 52.5938" id="BitstreamVeraSans-Roman-63"/>
      <path d="
M9.42188 54.6875
L18.4062 54.6875
L18.4062 0
L9.42188 0
z

M9.42188 75.9844
L18.4062 75.9844
L18.4062 64.5938
L9.42188 64.5938
z
" id="BitstreamVeraSans-Roman-69"/>
      <path d="
M9.42188 75.9844
L18.4062 75.9844
L18.4062 0
L9.42188 0
z
" id="BitstreamVeraSans-Roman-6c"/>
      <path d="
M34.2812 27.4844
Q23.3906 27.4844 19.1875 25
Q14.9844 22.5156 14.9844 16.5
Q14.9844 11.7188 18.1406 8.90625
Q21.2969 6.10938 26.7031 6.10938
Q34.1875 6.10938 38.7031 11.4062
Q43.2188 16.7031 43.2188 25.4844
L43.2188 27.4844
z

M52.2031 31.2031
L52.2031 0
L43.2188 0
L43.2188 8.29688
Q40.1406 3.32812 35.5469 0.953125
Q30.9531 -1.42188 24.3125 -1.42188
Q15.9219 -1.42188 10.9531 3.29688
Q6 8.01562 6 15.9219
Q6 25.1406 12.1719 29.8281
Q18.3594 34.5156 30.6094 34.5156
L43.2188 34.5156
L43.2188 35.4062
Q43.2188 41.6094 39.1406 45
Q35.0625 48.3906 27.6875 48.3906
Q23 48.3906 18.5469 47.2656
Q14.1094 46.1406 10.0156 43.8906
L10.0156 52.2031
Q14.9375 54.1094 19.5781 55.0469
Q24.2188 56 28.6094 56
Q40.4844 56 46.3438 49.8438
Q52.2031 43.7031 52.2031 31.2031" id="BitstreamVeraSans-Roman-61"/>
      <path d="
M56.2031 29.5938
L56.2031 25.2031
L14.8906 25.2031
Q15.4844 15.9219 20.4844 11.0625
Q25.4844 6.20312 34.4219 6.20312
Q39.5938 6.20312 44.4531 7.46875
Q49.3125 8.73438 54.1094 11.2812
L54.1094 2.78125
Q49.2656 0.734375 44.1875 -0.34375
Q39.1094 -1.42188 33.8906 -1.42188
Q20.7969 -1.42188 13.1562 6.1875
Q5.51562 13.8125 5.51562 26.8125
Q5.51562 40.2344 12.7656 48.1094
Q20.0156 56 32.3281 56
Q43.3594 56 49.7812 48.8906
Q56.2031 41.7969 56.2031 29.5938
M47.2188 32.2344
Q47.125 39.5938 43.0938 43.9844
Q39.0625 48.3906 32.4219 48.3906
Q24.9062 48.3906 20.3906 44.1406
Q15.875 39.8906 15.1875 32.1719
z
" id="BitstreamVeraSans-Roman-65"/>
      <path d="
M41.1094 46.2969
Q39.5938 47.1719 37.8125 47.5781
Q36.0312 48 33.8906 48
Q26.2656 48 22.1875 43.0469
Q18.1094 38.0938 18.1094 28.8125
L18.1094 0
L9.07812 0
L9.07812 54.6875
L18.1094 54.6875
L18.1094 46.1875
Q20.9531 51.1719 25.4844 53.5781
Q30.0312 56 36.5312 56
Q37.4531 56 38.5781 55.875
Q39.7031 55.7656 41.0625 55.5156
z
" id="BitstreamVeraSans-Roman-72"/>
     </defs>
     <g transform="translate(83.349375 374.78625)rotate(-90.0)scale(0.12 -0.12)">
      <use xlink:href="#BitstreamVeraSans-Roman-70"/>
      <use x="63.4765625" xlink:href="#BitstreamVeraSans-Roman-61"/>
      <use x="124.755859375" xlink:href="#BitstreamVeraSans-Roman-72"/>
      <use x="165.869140625" xlink:href="#BitstreamVeraSans-Roman-74"/>
      <use x="205.078125" xlink:href="#BitstreamVeraSans-Roman-69"/>
      <use x="232.861328125" xlink:href="#BitstreamVeraSans-Roman-63"/>
      <use x="287.841796875" xlink:href="#BitstreamVeraSans-Roman-6c"/>
      <use x="315.625" xlink:href="#BitstreamVeraSans-Roman-65"/>
      <use x="377.1484375" xlink:href="#BitstreamVeraSans-Roman-20"/>
      <use x="408.935546875" xlink:href="#BitstreamVeraSans-Roman-6e"/>
      <use x="472.314453125" xlink:href="#BitstreamVeraSans-Roman-75"/>
      <use x="535.693359375" xlink:href="#BitstreamVeraSans-Roman-6d"/>
      <use x="633.10546875" xlink:href="#BitstreamVeraSans-Roman-62"/>
      <use x="696.58203125" xlink:href="#BitstreamVeraSans-Roman-65"/>
      <use x="758.10546875" xlink:href="#BitstreamVeraSans-Roman-72"/>
      <use x="799.21875" xlink:href="#BitstreamVeraSans-Roman-73"/>
     </g>
    </g>
   </g>
   <g id="legend_1">
    <g id="patch_7">
     <path d="
M706.825 101.224
L774.1 101.224
L774.1 68.3
L706.825 68.3
z
" style="fill:#ffffff;stroke:#000000;stroke-linejoin:miter;"/>
    </g>
    <g id="line2d_28">
     <path d="
M711.725 73.9689
L721.525 73.9689" style="fill:none;stroke:#ff0000;stroke-linecap:square;"/>
    </g>
    <g id="line2d_29"/>
    <g id="text_15">
     <!-- pPDE10 el.0 -->
     <defs>
      <path d="
M9.8125 72.9062
L55.9062 72.9062
L55.9062 64.5938
L19.6719 64.5938
L19.6719 43.0156
L54.3906 43.0156
L54.3906 34.7188
L19.6719 34.7188
L19.6719 8.29688
L56.7812 8.29688
L56.7812 0
L9.8125 0
z
" id="BitstreamVeraSans-Roman-45"/>
      <path d="
M19.6719 64.7969
L19.6719 37.4062
L32.0781 37.4062
Q38.9688 37.4062 42.7188 40.9688
Q46.4844 44.5312 46.4844 51.125
Q46.4844 57.6719 42.7188 61.2344
Q38.9688 64.7969 32.0781 64.7969
z

M9.8125 72.9062
L32.0781 72.9062
Q44.3438 72.9062 50.6094 67.3594
Q56.8906 61.8125 56.8906 51.125
Q56.8906 40.3281 50.6094 34.8125
Q44.3438 29.2969 32.0781 29.2969
L19.6719 29.2969
L19.6719 0
L9.8125 0
z
" id="BitstreamVeraSans-Roman-50"/>
      <path d="
M10.6875 12.4062
L21 12.4062
L21 0
L10.6875 0
z
" id="BitstreamVeraSans-Roman-2e"/>
      <path d="
M19.6719 64.7969
L19.6719 8.10938
L31.5938 8.10938
Q46.6875 8.10938 53.6875 14.9375
Q60.6875 21.7812 60.6875 36.5312
Q60.6875 51.1719 53.6875 57.9844
Q46.6875 64.7969 31.5938 64.7969
z

M9.8125 72.9062
L30.0781 72.9062
Q51.2656 72.9062 61.1719 64.0938
Q71.0938 55.2812 71.0938 36.5312
Q71.0938 17.6719 61.125 8.82812
Q51.1719 0 30.0781 0
L9.8125 0
z
" id="BitstreamVeraSans-Roman-44"/>
     </defs>
     <g transform="translate(729.22453125 76.41890625)scale(0.07 -0.07)">
      <use xlink:href="#BitstreamVeraSans-Roman-70"/>
      <use x="63.4765625" xlink:href="#BitstreamVeraSans-Roman-50"/>
      <use x="123.779296875" xlink:href="#BitstreamVeraSans-Roman-44"/>
      <use x="200.78125" xlink:href="#BitstreamVeraSans-Roman-45"/>
      <use x="263.96484375" xlink:href="#BitstreamVeraSans-Roman-31"/>
      <use x="327.587890625" xlink:href="#BitstreamVeraSans-Roman-30"/>
      <use x="391.2109375" xlink:href="#BitstreamVeraSans-Roman-20"/>
      <use x="422.998046875" xlink:href="#BitstreamVeraSans-Roman-65"/>
      <use x="484.521484375" xlink:href="#BitstreamVeraSans-Roman-6c"/>
      <use x="512.3046875" xlink:href="#BitstreamVeraSans-Roman-2e"/>
      <use x="544.091796875" xlink:href="#BitstreamVeraSans-Roman-30"/>
     </g>
    </g>
    <g id="line2d_30">
     <path d="
M711.725 84.2436
L721.525 84.2436" style="fill:none;stroke:#008000;stroke-linecap:square;"/>
    </g>
    <g id="line2d_31"/>
    <g id="text_16">
     <!-- pPDE10 el.1 -->
     <g transform="translate(729.22453125 86.69359375)scale(0.07 -0.07)">
      <use xlink:href="#BitstreamVeraSans-Roman-70"/>
      <use x="63.4765625" xlink:href="#BitstreamVeraSans-Roman-50"/>
      <use x="123.779296875" xlink:href="#BitstreamVeraSans-Roman-44"/>
      <use x="200.78125" xlink:href="#BitstreamVeraSans-Roman-45"/>
      <use x="263.96484375" xlink:href="#BitstreamVeraSans-Roman-31"/>
      <use x="327.587890625" xlink:href="#BitstreamVeraSans-Roman-30"/>
      <use x="391.2109375" xlink:href="#BitstreamVeraSans-Roman-20"/>
      <use x="422.998046875" xlink:href="#BitstreamVeraSans-Roman-65"/>
      <use x="484.521484375" xlink:href="#BitstreamVeraSans-Roman-6c"/>
      <use x="512.3046875" xlink:href="#BitstreamVeraSans-Roman-2e"/>
      <use x="544.091796875" xlink:href="#BitstreamVeraSans-Roman-31"/>
     </g>
    </g>
    <g id="line2d_32">
     <path d="
M711.725 94.5183
L721.525 94.5183" style="fill:none;stroke:#0000ff;stroke-linecap:square;"/>
    </g>
    <g id="line2d_33"/>
    <g id="text_17">
     <!-- pPDE10 el.2 -->
     <g transform="translate(729.22453125 96.96828125)scale(0.07 -0.07)">
      <use xlink:href="#BitstreamVeraSans-Roman-70"/>
      <use x="63.4765625" xlink:href="#BitstreamVeraSans-Roman-50"/>
      <use x="123.779296875" xlink:href="#BitstreamVeraSans-Roman-44"/>
      <use x="200.78125" xlink:href="#BitstreamVeraSans-Roman-45"/>
      <use x="263.96484375" xlink:href="#BitstreamVeraSans-Roman-31"/>
      <use x="327.587890625" xlink:href="#BitstreamVeraSans-Roman-30"/>
      <use x="391.2109375" xlink:href="#BitstreamVeraSans-Roman-20"/>
      <use x="422.998046875" xlink:href="#BitstreamVeraSans-Roman-65"/>
      <use x="484.521484375" xlink:href="#BitstreamVeraSans-Roman-6c"/>
      <use x="512.3046875" xlink:href="#BitstreamVeraSans-Roman-2e"/>
      <use x="544.091796875" xlink:href="#BitstreamVeraSans-Roman-32"/>
     </g>
    </g>
   </g>
  </g>
 </g>
 <defs>
  <clipPath id="p7ceb695115">
   <rect height="518.4" width="669.6" x="108.0" y="64.8"/>
  </clipPath>
 </defs>
</svg>
