<?xml version="1.0" encoding="utf-8" standalone="no"?>
<!DOCTYPE svg PUBLIC "-//W3C//DTD SVG 1.1//EN"
  "http://www.w3.org/Graphics/SVG/1.1/DTD/svg11.dtd">
<!-- Created with matplotlib (http://matplotlib.org/) -->
<svg height="648pt" version="1.1" viewBox="0 0 864 648" width="864pt" xmlns="http://www.w3.org/2000/svg" xmlns:xlink="http://www.w3.org/1999/xlink">
 <defs>
  <style type="text/css">
*{stroke-linecap:butt;stroke-linejoin:round;}
  </style>
 </defs>
 <g id="figure_1">
  <g id="patch_1">
   <path d="
M0 648
L864 648
L864 0
L0 0
z
" style="fill:#ffffff;"/>
  </g>
  <g id="axes_1">
   <g id="patch_2">
    <path d="
M108 583.2
L777.6 583.2
L777.6 64.8
L108 64.8
z
" style="fill:#ffffff;"/>
   </g>
   <g id="line2d_1">
    <path clip-path="url(#p7ceb695115)" d="
M108 583.2
L108.67 582.682
L109.339 582.163
L110.009 581.126
L110.678 581.126
L111.348 580.09
L112.018 580.09
L112.687 579.571
L113.357 578.534
L114.026 578.016
L114.696 576.979
L115.366 574.906
L116.035 573.869
L116.705 571.277
L117.374 570.758
L118.044 567.648
L119.383 563.501
L120.053 559.354
L120.722 554.17
L121.392 551.578
L122.731 544.838
L123.401 538.099
L124.07 536.026
L126.079 525.658
L127.418 515.29
L128.758 512.179
L129.427 506.995
L130.766 499.738
L132.106 495.59
L132.775 496.109
L134.114 489.37
L134.784 487.814
L135.454 482.63
L136.123 480.038
L136.793 474.336
L137.462 472.781
L138.132 469.152
L138.802 468.634
L139.471 466.042
L140.141 463.968
L140.81 463.968
L141.48 462.413
L142.15 463.45
L143.489 453.6
L144.158 453.6
L145.498 445.824
L146.167 439.603
L146.837 439.085
L147.506 438.048
L148.176 438.048
L148.846 435.456
L149.515 433.901
L150.185 430.79
L150.854 429.754
L151.524 430.272
L152.194 431.309
L152.863 428.198
L153.533 427.68
L154.202 430.272
L154.872 429.754
L155.542 428.717
L156.211 426.125
L156.881 426.125
L157.55 421.459
L158.22 417.83
L158.89 418.349
L159.559 417.312
L160.229 417.312
L160.898 413.683
L161.568 416.794
L162.238 412.646
L162.907 414.202
L163.577 412.646
L164.246 413.683
L164.916 413.683
L165.586 414.202
L166.255 412.646
L166.925 410.054
L167.594 414.202
L168.264 412.128
L168.934 411.61
L169.603 409.536
L170.273 409.536
L170.942 409.018
L171.612 409.018
L172.282 408.499
L172.951 402.797
L173.621 400.723
L174.96 401.76
L175.63 398.65
L176.299 397.094
L176.969 397.613
L177.638 400.723
L178.308 401.76
L178.978 399.168
L179.647 403.834
L180.317 406.426
L180.986 404.87
L181.656 405.907
L182.326 410.054
L182.995 407.981
L183.665 407.981
L184.334 405.907
L185.004 406.944
L186.343 411.091
L187.013 412.128
L187.682 410.054
L188.352 414.72
L189.022 414.202
L189.691 415.757
L190.361 419.386
L191.03 420.941
L191.7 419.904
L192.37 419.904
L193.039 414.72
L193.709 420.422
L194.378 421.978
L195.048 422.496
L195.718 420.941
L196.387 422.496
L197.057 416.794
L197.726 414.72
L198.396 415.238
L199.066 418.349
L199.735 418.349
L200.405 420.422
L201.074 420.422
L201.744 421.459
L203.083 418.349
L204.422 421.459
L205.092 420.941
L205.762 424.051
L206.431 422.496
L207.101 421.459
L207.77 417.312
L208.44 419.904
L209.11 420.941
L209.779 424.051
L210.449 423.014
L211.118 424.051
L211.788 421.978
L213.127 424.051
L213.797 420.941
L215.136 420.941
L215.806 421.459
L216.475 421.459
L217.145 424.051
L217.814 421.978
L218.484 423.533
L219.154 417.312
L219.823 417.83
L220.493 419.386
L221.162 417.83
L222.502 416.794
L223.171 416.794
L223.841 415.757
L224.51 418.349
L225.18 417.83
L225.85 416.275
L226.519 418.867
L227.189 418.349
L227.858 418.349
L228.528 417.83
L229.198 415.238
L229.867 414.202
L230.537 415.238
L231.206 418.867
L231.876 418.867
L232.546 419.386
L233.215 417.312
L233.885 421.459
L234.554 421.978
L235.224 421.978
L235.894 423.014
L236.563 423.533
L237.233 423.533
L237.902 421.459
L238.572 419.904
L239.242 421.459
L239.911 419.386
L241.25 417.312
L241.92 415.238
L242.59 415.238
L243.259 418.867
L243.929 417.83
L244.598 418.349
L245.268 419.386
L245.938 421.459
L246.607 417.312
L247.277 416.794
L247.946 417.83
L248.616 416.794
L249.286 418.867
L249.955 417.312
L250.625 417.83
L251.294 416.275
L251.964 418.349
L252.634 419.386
L253.303 417.83
L253.973 419.904
L254.642 419.386
L255.312 420.941
L255.982 418.867
L256.651 420.422
L257.321 418.349
L257.99 420.422
L258.66 421.978
L259.33 424.051
L259.999 424.051
L260.669 422.496
L261.338 420.422
L262.008 417.83
L264.686 419.904
L265.356 418.349
L266.026 417.83
L266.695 418.867
L267.365 421.459
L268.034 423.014
L268.704 425.606
L269.374 425.088
L270.043 428.717
L270.713 426.643
L271.382 429.754
L272.052 429.754
L272.722 428.198
L274.73 428.198
L275.4 430.79
L276.07 428.198
L276.739 427.68
L277.409 426.125
L278.078 429.754
L278.748 429.754
L280.087 431.827
L280.757 430.272
L281.426 430.79
L282.096 432.864
L282.766 431.309
L283.435 432.864
L284.105 435.456
L285.444 441.158
L286.114 440.122
L286.783 442.195
L287.453 442.714
L288.122 441.677
L288.792 440.122
L289.462 439.085
L290.131 441.158
L290.801 442.195
L291.47 440.122
L292.14 441.677
L292.81 441.677
L293.479 441.158
L294.149 441.158
L295.488 439.085
L296.158 440.122
L296.827 440.64
L297.497 440.122
L298.166 438.048
L298.836 437.53
L299.506 433.901
L300.175 433.382
L300.845 437.53
L301.514 435.456
L302.184 434.938
L302.854 437.011
L303.523 437.011
L304.193 440.122
L304.862 439.085
L305.532 439.085
L306.202 440.122
L306.871 440.122
L307.541 444.269
L308.21 446.861
L308.88 446.861
L309.55 448.416
L310.219 449.453
L310.889 451.526
L311.558 454.637
L312.228 453.6
L312.898 453.082
L313.567 453.082
L314.237 454.637
L314.906 452.563
L315.576 453.082
L316.246 456.71
L316.915 458.784
L317.585 457.747
L318.254 457.229
L318.924 458.266
L319.594 458.266
L320.263 460.339
L320.933 460.339
L321.602 463.45
L322.272 462.413
L322.942 462.413
L323.611 465.523
L324.281 466.042
L324.95 467.597
L325.62 467.078
L326.29 468.115
L326.959 466.56
L327.629 467.597
L328.298 466.56
L328.968 466.042
L329.638 462.931
L330.977 460.858
L331.646 461.894
L332.316 460.858
L332.986 460.858
L333.655 462.413
L334.325 461.376
L334.994 458.266
L335.664 458.266
L336.334 456.71
L337.003 455.674
L337.673 458.266
L338.342 458.784
L339.012 460.858
L339.682 462.413
L340.351 462.413
L341.021 460.858
L342.36 460.858
L343.03 461.894
L343.699 460.339
L344.369 463.45
L345.038 463.968
L345.708 461.376
L346.378 462.931
L347.047 462.413
L347.717 462.413
L348.386 462.931
L349.726 460.858
L350.395 460.339
L351.065 457.229
L351.734 456.71
L352.404 455.674
L353.074 456.192
L353.743 455.674
L354.413 453.6
L355.082 455.155
L355.752 454.118
L356.422 452.045
L357.761 453.082
L358.43 452.045
L359.1 453.082
L359.77 454.637
L360.439 454.118
L361.778 456.192
L362.448 456.192
L363.118 457.747
L363.787 455.674
L365.126 454.637
L365.796 456.71
L366.466 457.747
L367.135 456.71
L367.805 458.784
L368.474 461.376
L369.144 462.413
L369.814 462.413
L370.483 460.858
L371.822 463.968
L372.492 468.634
L373.831 462.931
L374.501 463.45
L375.17 461.894
L375.84 459.302
L377.179 462.413
L377.849 462.413
L378.518 463.968
L379.858 462.931
L380.527 466.042
L381.197 466.56
L381.866 468.115
L382.536 466.56
L383.875 466.56
L384.545 467.078
L385.214 468.634
L385.884 468.634
L386.554 469.67
L387.223 468.115
L387.893 468.115
L388.562 472.262
L389.232 472.262
L390.571 470.189
L391.241 470.707
L391.91 470.189
L392.58 472.781
L393.25 469.152
L393.919 468.115
L394.589 468.115
L395.258 469.152
L395.928 469.152
L396.598 470.707
L397.267 469.67
L397.937 467.597
L399.276 466.56
L399.946 467.078
L400.615 468.115
L401.285 468.115
L401.954 469.152
L402.624 469.67
L403.294 471.226
L403.963 469.152
L404.633 469.67
L405.302 469.152
L405.972 469.67
L407.311 471.744
L407.981 473.299
L408.65 473.818
L409.99 471.744
L410.659 473.299
L411.329 473.818
L411.998 471.744
L413.338 474.854
L414.677 472.781
L415.346 472.781
L416.016 471.744
L416.686 471.744
L417.355 471.226
L418.025 473.299
L418.694 474.336
L419.364 477.446
L420.034 472.262
L420.703 471.744
L421.373 471.744
L422.042 474.336
L422.712 473.818
L423.382 474.336
L424.051 473.299
L424.721 473.818
L426.06 473.818
L426.73 474.854
L427.399 473.299
L428.069 473.818
L428.738 474.854
L429.408 474.336
L430.078 476.41
L430.747 472.781
L431.417 471.744
L432.086 474.336
L432.756 472.781
L433.426 473.818
L434.765 474.854
L435.434 475.891
L436.104 477.965
L436.774 476.41
L437.443 477.965
L439.452 476.41
L440.122 476.41
L440.791 475.891
L442.13 477.965
L442.8 479.52
L443.47 475.891
L444.139 475.373
L444.809 466.56
L445.478 438.048
L446.148 390.355
L446.818 325.555
L447.487 278.899
L448.157 205.286
L448.826 155.52
L450.166 93.312
L450.835 105.235
L451.505 127.526
L452.174 162.259
L452.844 186.106
L454.183 277.862
L454.853 296.525
L455.522 321.926
L456.192 340.589
L456.862 349.92
L457.531 370.138
L458.87 425.088
L459.54 410.573
L460.21 409.018
L460.879 431.309
L461.549 437.53
L462.888 433.382
L463.558 445.306
L464.227 431.827
L464.897 432.346
L465.566 453.082
L466.236 455.674
L466.906 446.861
L467.575 448.416
L468.245 456.71
L468.914 455.674
L469.584 468.115
L470.254 449.453
L470.923 473.818
L471.593 471.226
L472.262 464.486
L472.932 464.486
L473.602 456.71
L474.271 467.078
L474.941 462.931
L475.61 477.965
L476.28 462.931
L476.95 463.968
L477.619 479.52
L478.289 473.818
L478.958 473.299
L479.628 459.821
L480.298 476.41
L480.967 465.005
L481.637 470.189
L482.306 463.968
L482.976 459.302
L483.646 469.67
L484.315 462.413
L484.985 468.115
L485.654 476.928
L486.324 466.56
L486.994 468.634
L487.663 456.192
L488.333 462.931
L489.002 472.262
L489.672 468.634
L490.342 446.861
L491.011 458.784
L491.681 467.597
L492.35 482.112
L493.02 469.67
L493.69 473.818
L494.359 473.818
L495.029 482.63
L495.698 481.075
L496.368 478.483
L497.038 466.042
L497.707 472.262
L498.377 465.523
L499.046 465.523
L499.716 468.634
L500.386 456.71
L501.055 475.373
L501.725 460.339
L502.394 457.229
L503.064 459.302
L503.734 472.262
L504.403 482.112
L505.073 475.373
L505.742 481.075
L506.412 467.078
L507.082 472.262
L507.751 458.784
L508.421 466.042
L509.09 460.339
L509.76 461.376
L510.43 467.078
L511.099 463.45
L511.769 463.968
L512.438 460.858
L513.108 464.486
L513.778 457.229
L514.447 461.376
L515.117 463.45
L515.786 466.56
L516.456 468.634
L517.126 471.744
L517.795 449.971
L518.465 454.118
L519.134 453.6
L519.804 462.413
L520.474 461.894
L521.143 462.413
L521.813 457.229
L522.482 454.637
L523.152 459.302
L523.822 455.155
L524.491 440.64
L525.161 453.082
L525.83 457.747
L526.5 459.821
L527.17 454.637
L527.839 465.005
L528.509 461.376
L529.178 463.968
L529.848 440.64
L530.518 458.266
L531.187 451.526
L531.857 446.342
L532.526 437.53
L533.196 438.566
L533.866 453.6
L534.535 452.045
L535.205 454.637
L535.874 450.49
L536.544 440.64
L537.214 443.232
L537.883 466.56
L538.553 446.861
L539.222 433.382
L539.892 440.122
L540.562 433.382
L541.231 459.821
L541.901 445.306
L542.57 453.6
L543.24 438.566
L543.91 439.085
L544.579 441.158
L545.249 437.011
L545.918 441.677
L546.588 432.864
L547.258 444.787
L547.927 436.493
L548.597 438.048
L549.266 435.974
L549.936 417.83
L550.606 420.941
L551.275 420.422
L551.945 429.754
L552.614 428.198
L553.284 420.422
L553.954 441.158
L554.623 435.456
L555.293 405.389
L555.962 420.941
L556.632 422.496
L557.302 431.309
L557.971 430.79
L558.641 436.493
L559.31 427.68
L559.98 445.824
L560.65 430.272
L561.319 432.864
L561.989 435.974
L562.658 432.346
L563.328 423.014
L563.998 440.64
L564.667 430.272
L565.337 408.499
L566.006 427.68
L566.676 437.011
L567.346 425.606
L568.015 431.309
L568.685 409.536
L569.354 416.794
L570.024 422.496
L570.694 425.088
L571.363 411.091
L572.033 411.091
L572.702 431.827
L573.372 403.834
L574.042 412.646
L574.711 414.202
L575.381 402.797
L576.05 407.462
L576.72 413.683
L577.39 390.355
L578.059 422.496
L578.729 425.088
L579.398 420.422
L580.068 403.834
L580.738 414.72
L581.407 402.278
L582.077 410.573
L582.746 406.944
L583.416 406.944
L584.086 391.392
L584.755 388.282
L585.425 394.502
L586.094 395.539
L586.764 388.282
L588.103 415.238
L589.442 399.168
L590.112 403.315
L590.782 385.171
L591.451 399.686
L592.121 379.987
L592.79 382.579
L593.46 380.506
L594.13 379.987
L594.799 392.429
L595.469 388.282
L596.138 392.429
L596.808 392.947
L597.478 395.021
L598.147 386.726
L598.817 363.917
L599.486 382.061
L600.826 368.064
L601.495 374.285
L602.165 375.322
L602.834 374.803
L603.504 369.619
L604.174 368.064
L604.843 384.134
L605.513 366.509
L606.182 369.619
L606.852 389.837
L607.522 388.8
L608.191 365.99
L608.861 376.877
L609.53 365.472
L610.2 362.362
L610.87 355.104
L611.539 363.398
L612.209 358.214
L612.878 356.659
L613.548 378.95
L614.218 365.99
L614.887 368.582
L615.557 362.88
L616.226 362.88
L616.896 354.067
L617.566 372.73
L618.235 367.027
L618.905 365.99
L619.574 369.101
L620.244 365.99
L620.914 360.288
L621.583 350.957
L622.253 347.328
L622.922 337.997
L623.592 345.254
L624.262 359.77
L624.931 347.328
L625.601 347.846
L626.27 355.622
L626.94 370.138
L627.61 350.438
L628.279 359.77
L628.949 353.03
L629.618 371.693
L630.288 366.509
L630.958 363.917
L631.627 344.736
L632.297 342.662
L632.966 339.552
L633.636 333.85
L634.306 339.034
L634.975 359.77
L636.314 347.846
L636.984 372.73
L637.654 370.656
L638.323 354.067
L638.993 376.358
L639.662 371.174
L640.332 375.84
L641.671 351.994
L642.341 350.957
L643.01 347.846
L643.68 358.214
L644.35 363.917
L645.019 344.736
L645.689 332.294
L646.358 346.291
L647.028 351.475
L647.698 345.773
L648.367 345.773
L649.037 344.736
L649.706 335.405
L650.376 340.589
L651.046 362.362
L651.715 339.552
L652.385 355.104
L653.054 331.258
L653.724 339.552
L654.394 330.221
L655.063 334.886
L655.733 331.258
L656.402 336.442
L657.072 353.549
L657.742 361.325
L658.411 350.438
L659.081 334.368
L659.75 347.328
L660.42 331.776
L661.09 333.85
L661.759 336.442
L662.429 346.81
L663.098 321.408
L663.768 301.19
L664.438 325.037
L665.107 314.669
L665.777 312.077
L667.116 305.338
L667.786 311.558
L668.455 304.301
L669.125 311.558
L669.794 313.632
L670.464 308.448
L671.134 305.338
L671.803 319.853
L672.473 314.669
L673.142 304.819
L673.812 309.485
L674.482 318.298
L675.151 310.522
L675.821 308.448
L676.49 312.595
L677.16 312.595
L677.83 332.813
L678.499 330.221
L679.169 313.632
L679.838 321.408
L680.508 319.853
L681.178 317.779
L681.847 314.669
L682.517 317.779
L683.186 298.08
L683.856 312.595
L684.526 318.816
L685.195 319.334
L685.865 306.374
L686.534 308.448
L687.204 314.669
L687.874 311.558
L688.543 320.89
L689.213 299.635
L689.882 311.558
L690.552 315.706
L691.222 308.966
L691.891 298.08
L692.561 314.669
L693.23 317.261
L693.9 327.11
L694.57 318.298
L695.239 318.816
L695.909 314.669
L696.578 292.378
L697.918 322.963
L698.587 323.482
L699.257 329.702
L699.926 315.187
L701.266 305.338
L701.935 304.819
L702.605 299.635
L703.274 308.448
L704.614 318.816
L705.283 316.224
L705.953 311.04
L706.622 324.518
L707.292 322.445
L707.962 320.89
L708.631 313.632
L709.301 315.187
L709.97 305.856
L710.64 301.709
L711.31 316.742
L711.979 309.485
L712.649 310.003
L713.318 299.117
L713.988 302.746
L714.658 304.301
L715.327 328.147
L715.997 312.595
L716.666 311.558
L717.336 318.816
L718.006 306.893
L718.675 303.782
L719.345 309.485
L720.014 307.411
L720.684 298.598
L721.354 301.19
L722.023 299.635
L722.693 301.19
L723.362 316.742
L724.032 314.15
L724.702 320.371
L725.371 312.595
L726.041 322.963
L726.71 299.635
L727.38 303.264
L728.05 304.819
L728.719 301.709
L729.389 306.374
L730.058 292.896
L730.728 287.194
L731.398 288.23
L732.067 293.933
L732.737 296.006
L733.406 284.602
L734.076 292.378
L734.746 291.859
L735.415 287.194
L736.085 298.598
L736.754 280.454
L737.424 279.936
L738.094 284.602
L738.763 284.602
L739.433 292.896
L740.102 306.374
L740.772 300.672
L741.442 284.083
L742.111 289.267
L742.781 280.454
L743.45 274.752
L744.12 294.97
L745.459 289.267
L746.129 296.525
L746.798 297.043
L747.468 302.746
L748.138 289.267
L748.807 278.381
L749.477 292.378
L750.146 297.562
L750.816 288.23
L752.155 277.862
L752.825 285.12
L753.494 260.755
L754.164 279.418
L754.834 288.23
L755.503 298.598
L756.173 297.043
L756.842 272.16
L757.512 272.16
L758.182 276.826
L758.851 275.789
L759.521 263.866
L760.19 263.347
L760.86 284.602
L761.53 287.194
L762.199 287.712
L762.869 282.01
L763.538 288.23
L764.208 283.046
L764.878 272.678
L765.547 265.421
L766.217 260.237
L766.886 262.31
L767.556 248.314
L768.226 260.755
L768.895 257.645
L769.565 257.645
L770.234 260.237
L770.904 266.458
L771.574 292.896
L772.243 282.528
L772.913 263.866
L773.582 264.384
L774.252 265.421
L774.922 269.568
L775.591 262.31
L776.261 270.086
L776.93 286.157
L777.6 288.23
L777.6 288.23" style="fill:none;stroke:#ff0000;stroke-linecap:square;"/>
   </g>
   <g id="line2d_2">
    <path clip-path="url(#p7ceb695115)" d="
M108 583.2
L777.6 583.2
L777.6 583.2" style="fill:none;stroke:#008000;stroke-linecap:square;"/>
   </g>
   <g id="line2d_3">
    <path clip-path="url(#p7ceb695115)" d="
M108 583.2
L108.67 582.163
L110.678 580.608
L111.348 580.608
L112.018 581.126
L112.687 580.608
L113.357 578.016
L114.026 576.979
L115.366 573.869
L116.035 571.795
L116.705 569.203
L118.044 565.056
L118.714 563.501
L120.053 556.243
L120.722 551.059
L121.392 548.467
L122.062 546.394
L122.731 545.357
L123.401 541.728
L124.07 539.136
L124.74 536.026
L125.41 535.507
L126.079 529.286
L126.749 526.694
L127.418 523.066
L128.088 522.547
L128.758 519.437
L129.427 515.29
L130.097 515.808
L130.766 512.179
L131.436 511.661
L132.106 510.106
L132.775 508.032
L133.445 502.848
L134.114 504.403
L134.784 500.774
L135.454 501.811
L136.123 499.219
L136.793 497.146
L138.132 489.37
L138.802 489.888
L139.471 485.741
L140.141 484.186
L140.81 483.149
L142.15 474.854
L142.819 473.818
L143.489 470.707
L144.158 466.042
L144.828 465.005
L145.498 464.486
L146.167 466.042
L146.837 464.486
L147.506 463.45
L148.176 460.858
L148.846 457.747
L149.515 457.747
L150.185 454.118
L150.854 451.526
L151.524 449.971
L152.194 449.453
L152.863 447.898
L153.533 443.232
L154.202 442.195
L154.872 440.64
L155.542 441.158
L156.211 435.456
L156.881 436.493
L157.55 430.79
L158.22 429.754
L158.89 430.79
L159.559 433.901
L160.229 434.938
L160.898 434.419
L161.568 434.938
L162.238 435.974
L162.907 434.419
L164.246 425.606
L165.586 426.643
L166.255 428.198
L166.925 427.162
L167.594 424.57
L168.264 421.459
L168.934 420.941
L170.273 420.941
L170.942 419.386
L172.282 421.459
L172.951 421.459
L173.621 423.014
L174.29 424.051
L174.96 424.051
L175.63 418.349
L176.969 422.496
L177.638 423.014
L178.308 424.57
L178.978 426.643
L179.647 426.643
L180.317 423.533
L180.986 423.533
L181.656 420.941
L182.326 419.904
L182.995 419.904
L185.004 418.349
L185.674 421.459
L186.343 422.496
L187.013 421.978
L187.682 426.125
L189.022 423.014
L189.691 423.533
L190.361 421.978
L191.03 423.533
L192.37 424.57
L193.039 424.051
L193.709 421.459
L194.378 423.533
L195.048 420.422
L195.718 419.904
L196.387 420.422
L197.057 421.459
L197.726 420.422
L198.396 420.941
L199.066 420.941
L199.735 420.422
L200.405 418.349
L201.074 421.459
L201.744 418.867
L202.414 419.904
L203.083 417.83
L203.753 419.386
L204.422 420.422
L205.092 420.941
L205.762 420.941
L206.431 419.904
L207.77 426.643
L208.44 427.162
L209.11 426.125
L209.779 425.606
L211.118 421.459
L212.458 418.349
L213.127 420.941
L214.466 420.941
L215.136 419.904
L215.806 422.496
L216.475 420.941
L217.145 420.941
L217.814 422.496
L218.484 420.941
L219.154 423.014
L219.823 419.904
L221.162 421.978
L221.832 421.459
L222.502 422.496
L223.841 423.533
L224.51 425.088
L225.18 423.533
L225.85 425.606
L226.519 423.533
L227.189 424.051
L227.858 426.125
L228.528 427.162
L229.198 425.606
L229.867 426.643
L230.537 425.088
L231.206 427.162
L231.876 430.272
L232.546 427.68
L233.215 427.162
L233.885 426.125
L234.554 426.125
L235.894 428.198
L236.563 426.125
L237.233 429.754
L238.572 429.754
L239.242 430.79
L239.911 429.754
L240.581 427.68
L241.25 426.643
L241.92 426.125
L242.59 426.125
L243.259 425.088
L243.929 427.162
L244.598 427.162
L245.268 425.606
L245.938 425.606
L246.607 423.533
L247.277 426.125
L247.946 426.125
L248.616 427.68
L249.286 428.198
L249.955 427.68
L250.625 423.014
L251.294 425.606
L251.964 421.459
L252.634 419.904
L253.303 421.459
L253.973 424.57
L254.642 423.533
L255.312 423.533
L255.982 424.051
L256.651 425.088
L257.321 425.606
L257.99 425.606
L258.66 424.051
L259.33 424.051
L259.999 427.68
L260.669 427.68
L261.338 429.235
L262.008 427.162
L262.678 425.606
L263.347 427.162
L264.017 424.57
L264.686 422.496
L265.356 426.125
L266.026 423.533
L266.695 420.422
L267.365 423.014
L268.034 421.978
L268.704 421.978
L269.374 427.162
L270.043 425.606
L271.382 426.643
L272.052 426.125
L272.722 421.978
L273.391 421.459
L274.061 419.904
L274.73 419.386
L275.4 417.83
L276.739 423.014
L277.409 421.978
L278.078 421.978
L278.748 425.088
L279.418 425.088
L280.757 430.79
L281.426 430.79
L282.096 431.827
L282.766 433.382
L283.435 433.901
L284.105 432.346
L284.774 432.346
L285.444 436.493
L286.114 434.419
L286.783 434.419
L287.453 435.974
L288.122 435.974
L288.792 434.938
L289.462 439.085
L290.131 436.493
L290.801 437.53
L292.14 437.53
L292.81 438.566
L293.479 438.048
L294.149 441.158
L294.818 439.085
L295.488 440.122
L296.158 442.195
L296.827 440.64
L297.497 440.64
L298.166 442.195
L298.836 444.269
L299.506 445.306
L300.175 442.195
L300.845 441.158
L302.184 441.158
L302.854 440.64
L303.523 441.677
L304.193 440.122
L304.862 440.64
L305.532 442.714
L306.202 442.195
L306.871 445.306
L307.541 446.861
L308.88 447.898
L309.55 446.342
L310.219 447.379
L310.889 450.49
L311.558 448.416
L312.228 449.453
L312.898 445.824
L313.567 445.306
L314.237 444.269
L314.906 447.898
L315.576 448.934
L316.246 448.934
L316.915 447.898
L317.585 448.934
L318.254 449.453
L318.924 450.49
L319.594 451.008
L320.263 454.637
L320.933 454.637
L322.272 459.821
L322.942 460.858
L324.281 460.858
L325.62 457.747
L326.959 457.747
L327.629 458.784
L328.298 456.192
L328.968 459.302
L329.638 458.784
L330.307 459.302
L330.977 459.302
L331.646 459.821
L332.316 460.858
L332.986 462.413
L333.655 464.486
L334.325 461.894
L334.994 462.931
L335.664 464.486
L337.003 466.56
L337.673 465.523
L339.012 465.523
L339.682 469.152
L340.351 468.634
L341.021 465.005
L341.69 466.042
L342.36 466.56
L344.369 458.784
L345.038 459.302
L345.708 458.784
L347.047 458.784
L347.717 461.894
L348.386 462.413
L349.056 461.894
L349.726 461.894
L350.395 463.968
L351.065 463.968
L351.734 461.376
L352.404 461.376
L353.743 459.302
L354.413 455.674
L355.082 454.637
L355.752 457.229
L356.422 456.192
L357.091 455.674
L357.761 454.118
L358.43 454.118
L359.1 453.082
L359.77 455.674
L360.439 454.118
L361.109 455.674
L361.778 452.563
L363.118 449.453
L364.457 449.453
L365.126 448.934
L365.796 448.934
L366.466 449.453
L367.135 451.008
L367.805 449.453
L368.474 449.453
L369.144 451.008
L369.814 453.082
L370.483 454.118
L371.153 454.118
L371.822 456.192
L372.492 457.229
L373.831 457.229
L374.501 460.339
L376.51 461.894
L377.179 461.376
L377.849 463.968
L379.188 466.042
L380.527 465.005
L381.197 468.115
L381.866 467.078
L383.206 467.078
L383.875 466.56
L385.884 466.56
L386.554 467.078
L387.223 470.189
L387.893 469.67
L388.562 471.744
L389.232 471.226
L389.902 471.226
L390.571 469.67
L391.241 470.189
L391.91 469.152
L392.58 469.152
L393.25 469.67
L393.919 469.67
L394.589 473.299
L395.258 469.152
L395.928 468.115
L396.598 467.597
L397.267 466.56
L397.937 468.115
L398.606 469.152
L399.276 469.152
L399.946 469.67
L400.615 471.226
L401.285 472.262
L401.954 470.189
L403.963 468.634
L404.633 469.152
L405.302 468.634
L405.972 468.634
L406.642 465.523
L407.311 467.597
L408.65 470.707
L409.32 469.67
L409.99 471.744
L410.659 470.707
L411.329 473.299
L411.998 475.373
L413.338 475.373
L414.007 476.41
L414.677 472.781
L415.346 474.336
L416.016 472.781
L416.686 473.818
L417.355 469.152
L418.025 469.152
L418.694 471.226
L419.364 471.226
L420.034 473.299
L420.703 473.299
L421.373 474.854
L422.042 473.818
L422.712 474.336
L423.382 475.891
L424.051 475.373
L424.721 475.373
L425.39 477.446
L426.06 474.336
L426.73 474.854
L427.399 474.336
L428.069 473.299
L428.738 474.336
L429.408 476.41
L430.078 476.928
L430.747 476.928
L431.417 479.002
L432.086 479.52
L432.756 479.002
L433.426 479.52
L434.095 481.075
L434.765 478.483
L435.434 477.446
L436.104 477.446
L436.774 477.965
L437.443 480.557
L439.452 480.557
L440.122 479.52
L441.461 478.483
L442.13 479.52
L442.8 480.038
L444.139 477.965
L444.809 462.413
L445.478 436.493
L446.148 397.094
L448.826 157.075
L449.496 119.232
L450.166 107.309
L450.835 114.566
L451.505 136.858
L452.174 172.109
L452.844 196.992
L453.514 245.203
L454.183 269.568
L454.853 305.338
L455.522 316.224
L456.192 337.478
L457.531 372.211
L458.201 400.723
L458.87 401.76
L459.54 407.981
L460.21 403.315
L460.879 414.72
L461.549 410.054
L462.218 430.272
L462.888 425.088
L463.558 447.379
L464.227 431.827
L464.897 433.382
L465.566 447.898
L466.906 456.192
L467.575 458.784
L468.245 454.637
L468.914 467.597
L469.584 465.005
L470.254 461.376
L470.923 444.269
L471.593 458.784
L472.262 463.45
L472.932 465.523
L473.602 461.376
L474.271 467.078
L474.941 471.744
L475.61 462.413
L476.28 468.115
L476.95 472.262
L477.619 462.413
L478.289 466.042
L478.958 468.634
L479.628 468.115
L480.298 462.931
L480.967 465.005
L481.637 465.523
L482.306 459.821
L482.976 456.192
L483.646 464.486
L484.315 476.41
L484.985 468.634
L485.654 456.192
L486.324 452.563
L486.994 469.67
L487.663 474.854
L488.333 467.597
L489.002 471.226
L489.672 473.818
L490.342 478.483
L491.011 487.814
L491.681 468.115
L492.35 458.784
L493.02 466.042
L493.69 467.597
L494.359 463.968
L495.029 480.557
L495.698 473.299
L496.368 463.45
L497.038 463.968
L497.707 459.302
L498.377 472.262
L499.046 462.413
L499.716 466.042
L500.386 461.894
L501.055 467.078
L501.725 466.042
L503.064 465.005
L503.734 472.781
L504.403 468.115
L505.742 471.226
L506.412 467.597
L507.082 457.229
L507.751 460.339
L508.421 475.891
L509.09 461.894
L509.76 457.747
L510.43 468.634
L511.769 475.891
L512.438 460.339
L513.108 461.376
L513.778 454.637
L514.447 453.6
L515.117 467.597
L515.786 472.781
L516.456 472.781
L517.126 470.189
L517.795 452.045
L518.465 452.563
L519.134 458.266
L519.804 456.71
L520.474 459.302
L521.143 450.49
L521.813 454.637
L523.152 445.306
L523.822 446.861
L524.491 442.714
L525.161 439.603
L525.83 448.416
L526.5 443.232
L527.17 456.192
L527.839 448.416
L528.509 447.898
L529.178 449.971
L529.848 452.563
L530.518 451.526
L531.187 445.824
L531.857 450.49
L532.526 456.71
L533.196 447.379
L533.866 444.269
L534.535 439.603
L535.205 446.861
L535.874 443.75
L536.544 446.342
L537.214 423.014
L538.553 454.637
L539.222 427.68
L539.892 435.974
L540.562 446.861
L541.231 432.346
L541.901 432.346
L542.57 437.011
L543.24 432.864
L543.91 458.784
L544.579 429.235
L545.249 430.79
L545.918 420.941
L546.588 429.235
L547.258 435.974
L547.927 438.566
L548.597 447.379
L549.266 449.453
L549.936 437.53
L550.606 445.306
L551.275 435.456
L551.945 434.938
L552.614 437.011
L553.284 431.309
L553.954 438.048
L554.623 425.606
L555.293 431.827
L555.962 432.346
L556.632 426.125
L557.302 424.051
L557.971 434.938
L558.641 432.346
L559.31 407.462
L559.98 431.309
L560.65 429.754
L561.319 419.904
L561.989 407.981
L562.658 418.867
L563.328 427.162
L563.998 420.941
L564.667 421.459
L565.337 422.496
L566.006 427.162
L566.676 429.754
L567.346 406.944
L568.015 420.422
L568.685 428.198
L569.354 424.57
L570.024 405.907
L570.694 408.499
L571.363 418.867
L572.033 407.981
L572.702 423.014
L573.372 406.944
L574.042 415.238
L574.711 403.834
L575.381 396.576
L576.05 414.202
L576.72 414.72
L577.39 407.981
L578.059 409.018
L578.729 414.202
L579.398 415.238
L580.068 413.165
L580.738 404.87
L581.407 402.797
L582.077 403.834
L582.746 405.907
L583.416 403.834
L584.086 405.389
L584.755 396.058
L585.425 392.947
L586.094 401.76
L586.764 385.171
L587.434 411.091
L588.103 400.723
L588.773 387.763
L589.442 385.171
L590.112 395.021
L590.782 410.573
L591.451 403.315
L592.121 391.392
L592.79 386.208
L593.46 378.432
L594.13 387.245
L594.799 387.245
L595.469 388.8
L596.138 387.763
L596.808 372.211
L597.478 374.803
L598.147 381.024
L598.817 391.91
L599.486 378.95
L600.156 377.395
L600.826 386.726
L601.495 392.429
L602.165 380.506
L602.834 377.395
L603.504 367.546
L604.174 381.542
L604.843 381.024
L605.513 368.582
L606.182 363.398
L606.852 378.432
L607.522 365.99
L608.191 369.619
L608.861 366.509
L609.53 384.653
L610.2 383.098
L610.87 377.395
L611.539 359.251
L612.209 347.328
L612.878 357.178
L613.548 359.77
L614.218 376.358
L614.887 369.101
L615.557 365.99
L616.226 360.288
L617.566 372.211
L618.235 354.067
L618.905 364.954
L619.574 361.325
L620.244 372.211
L620.914 360.288
L621.583 358.733
L622.253 368.064
L622.922 364.435
L623.592 372.73
L624.262 372.211
L624.931 374.285
L625.601 358.733
L626.27 362.88
L626.94 368.582
L627.61 369.619
L628.279 368.582
L628.949 370.138
L629.618 351.475
L630.288 359.77
L630.958 369.619
L631.627 365.99
L632.297 379.469
L632.966 361.325
L633.636 359.77
L634.306 354.067
L634.975 367.027
L635.645 374.803
L636.314 369.619
L636.984 349.92
L637.654 351.994
L638.323 340.589
L638.993 355.104
L639.662 374.803
L640.332 374.285
L641.002 365.99
L641.671 355.622
L642.341 373.766
L643.01 368.064
L644.35 345.773
L645.019 348.365
L645.689 358.733
L646.358 357.696
L647.028 351.994
L647.698 368.582
L648.367 369.101
L649.037 353.549
L649.706 351.994
L650.376 347.846
L651.046 340.07
L651.715 350.957
L652.385 349.92
L653.054 347.328
L653.724 343.181
L654.394 352.512
L655.063 341.626
L655.733 334.886
L656.402 358.733
L657.072 341.626
L657.742 337.478
L658.411 332.294
L659.081 338.515
L659.75 328.147
L660.42 329.702
L661.09 327.629
L661.759 324.518
L662.429 331.258
L663.098 342.144
L663.768 331.776
L664.438 332.294
L665.107 341.626
L665.777 325.037
L666.446 331.258
L667.116 325.037
L667.786 298.08
L668.455 319.853
L669.125 321.926
L670.464 314.15
L671.134 314.669
L671.803 329.702
L672.473 319.853
L673.142 314.669
L673.812 341.107
L674.482 327.11
L675.151 315.706
L675.821 291.341
L677.16 315.706
L677.83 304.819
L678.499 314.669
L679.169 320.371
L679.838 316.742
L680.508 310.003
L681.178 308.966
L681.847 311.04
L682.517 305.338
L683.186 315.187
L683.856 304.819
L684.526 313.632
L685.195 305.338
L685.865 332.813
L686.534 327.11
L687.204 329.184
L687.874 315.706
L688.543 319.334
L689.213 319.334
L689.882 321.926
L690.552 324
L691.222 323.482
L691.891 313.114
L692.561 315.187
L693.23 312.077
L693.9 312.077
L694.57 297.043
L695.239 303.264
L695.909 312.595
L696.578 338.515
L697.248 326.592
L697.918 327.629
L699.257 298.598
L699.926 298.08
L700.596 307.411
L701.266 294.451
L701.935 303.264
L702.605 303.264
L703.274 307.411
L704.614 292.896
L705.283 306.374
L705.953 280.973
L706.622 283.565
L707.292 282.01
L707.962 301.709
L708.631 295.488
L709.301 298.598
L709.97 319.334
L710.64 316.224
L711.31 314.15
L711.979 324.518
L712.649 305.856
L713.318 311.04
L713.988 306.374
L714.658 306.374
L715.327 311.04
L715.997 304.819
L716.666 303.264
L717.336 286.157
L718.006 301.19
L718.675 287.194
L719.345 302.227
L720.014 307.93
L720.684 302.227
L721.354 307.411
L722.693 296.525
L723.362 311.04
L724.032 292.378
L724.702 280.454
L725.371 296.006
L726.041 298.598
L726.71 306.374
L727.38 320.371
L728.05 315.706
L728.719 316.742
L729.389 315.187
L730.058 317.779
L730.728 310.522
L731.398 307.93
L732.067 313.632
L732.737 311.558
L733.406 312.077
L734.076 319.334
L734.746 308.448
L735.415 314.669
L736.085 290.822
L737.424 311.558
L738.094 277.344
L738.763 274.752
L739.433 274.234
L740.102 284.602
L740.772 302.746
L741.442 293.414
L742.111 273.197
L742.781 276.826
L743.45 287.194
L744.12 264.902
L744.79 265.421
L745.459 263.866
L746.129 285.12
L746.798 280.973
L747.468 282.528
L748.138 287.712
L748.807 282.01
L749.477 288.23
L750.146 307.411
L750.816 288.23
L751.486 275.789
L752.155 288.749
L752.825 308.448
L753.494 310.522
L754.834 268.531
L755.503 290.304
L756.173 271.642
L756.842 270.086
L757.512 264.902
L758.182 279.936
L759.521 258.163
L760.19 270.605
L760.86 274.752
L761.53 276.826
L762.199 280.973
L762.869 264.384
L763.538 283.565
L764.208 274.752
L764.878 276.307
L765.547 290.822
L766.217 288.749
L766.886 284.602
L767.556 268.013
L768.226 260.755
L769.565 285.638
L770.234 272.678
L770.904 293.933
L771.574 288.23
L772.243 260.755
L772.913 249.869
L773.582 281.491
L774.252 273.197
L774.922 277.862
L775.591 299.635
L776.261 289.267
L777.6 278.381
L777.6 278.381" style="fill:none;stroke:#0000ff;stroke-linecap:square;"/>
   </g>
   <g id="patch_3">
    <path d="
M777.6 583.2
L777.6 64.8" style="fill:none;stroke:#000000;stroke-linecap:square;stroke-linejoin:miter;"/>
   </g>
   <g id="patch_4">
    <path d="
M108 583.2
L777.6 583.2" style="fill:none;stroke:#000000;stroke-linecap:square;stroke-linejoin:miter;"/>
   </g>
   <g id="patch_5">
    <path d="
M108 583.2
L108 64.8" style="fill:none;stroke:#000000;stroke-linecap:square;stroke-linejoin:miter;"/>
   </g>
   <g id="patch_6">
    <path d="
M108 64.8
L777.6 64.8" style="fill:none;stroke:#000000;stroke-linecap:square;stroke-linejoin:miter;"/>
   </g>
   <g id="matplotlib.axis_1">
    <g id="xtick_1">
     <g id="line2d_4">
      <defs>
       <path d="
M0 0
L0 -4" id="mc7db9fdffb" style="stroke:#000000;stroke-width:0.5;"/>
      </defs>
      <g>
       <use style="stroke:#000000;stroke-width:0.5;" x="108.0" xlink:href="#mc7db9fdffb" y="583.2"/>
      </g>
     </g>
     <g id="line2d_5">
      <defs>
       <path d="
M0 0
L0 4" id="m5a7d422ac3" style="stroke:#000000;stroke-width:0.5;"/>
      </defs>
      <g>
       <use style="stroke:#000000;stroke-width:0.5;" x="108.0" xlink:href="#m5a7d422ac3" y="64.8"/>
      </g>
     </g>
     <g id="text_1">
      <!-- 0 -->
      <defs>
       <path d="
M31.7812 66.4062
Q24.1719 66.4062 20.3281 58.9062
Q16.5 51.4219 16.5 36.375
Q16.5 21.3906 20.3281 13.8906
Q24.1719 6.39062 31.7812 6.39062
Q39.4531 6.39062 43.2812 13.8906
Q47.125 21.3906 47.125 36.375
Q47.125 51.4219 43.2812 58.9062
Q39.4531 66.4062 31.7812 66.4062
M31.7812 74.2188
Q44.0469 74.2188 50.5156 64.5156
Q56.9844 54.8281 56.9844 36.375
Q56.9844 17.9688 50.5156 8.26562
Q44.0469 -1.42188 31.7812 -1.42188
Q19.5312 -1.42188 13.0625 8.26562
Q6.59375 17.9688 6.59375 36.375
Q6.59375 54.8281 13.0625 64.5156
Q19.5312 74.2188 31.7812 74.2188" id="BitstreamVeraSans-Roman-30"/>
      </defs>
      <g transform="translate(104.9765625 596.318125)scale(0.12 -0.12)">
       <use xlink:href="#BitstreamVeraSans-Roman-30"/>
      </g>
     </g>
    </g>
    <g id="xtick_2">
     <g id="line2d_6">
      <g>
       <use style="stroke:#000000;stroke-width:0.5;" x="275.4" xlink:href="#mc7db9fdffb" y="583.2"/>
      </g>
     </g>
     <g id="line2d_7">
      <g>
       <use style="stroke:#000000;stroke-width:0.5;" x="275.4" xlink:href="#m5a7d422ac3" y="64.8"/>
      </g>
     </g>
     <g id="text_2">
      <!-- 50000 -->
      <defs>
       <path d="
M10.7969 72.9062
L49.5156 72.9062
L49.5156 64.5938
L19.8281 64.5938
L19.8281 46.7344
Q21.9688 47.4688 24.1094 47.8281
Q26.2656 48.1875 28.4219 48.1875
Q40.625 48.1875 47.75 41.5
Q54.8906 34.8125 54.8906 23.3906
Q54.8906 11.625 47.5625 5.09375
Q40.2344 -1.42188 26.9062 -1.42188
Q22.3125 -1.42188 17.5469 -0.640625
Q12.7969 0.140625 7.71875 1.70312
L7.71875 11.625
Q12.1094 9.23438 16.7969 8.0625
Q21.4844 6.89062 26.7031 6.89062
Q35.1562 6.89062 40.0781 11.3281
Q45.0156 15.7656 45.0156 23.3906
Q45.0156 31 40.0781 35.4375
Q35.1562 39.8906 26.7031 39.8906
Q22.75 39.8906 18.8125 39.0156
Q14.8906 38.1406 10.7969 36.2812
z
" id="BitstreamVeraSans-Roman-35"/>
      </defs>
      <g transform="translate(257.1740625 596.318125)scale(0.12 -0.12)">
       <use xlink:href="#BitstreamVeraSans-Roman-35"/>
       <use x="63.623046875" xlink:href="#BitstreamVeraSans-Roman-30"/>
       <use x="127.24609375" xlink:href="#BitstreamVeraSans-Roman-30"/>
       <use x="190.869140625" xlink:href="#BitstreamVeraSans-Roman-30"/>
       <use x="254.4921875" xlink:href="#BitstreamVeraSans-Roman-30"/>
      </g>
     </g>
    </g>
    <g id="xtick_3">
     <g id="line2d_8">
      <g>
       <use style="stroke:#000000;stroke-width:0.5;" x="442.8" xlink:href="#mc7db9fdffb" y="583.2"/>
      </g>
     </g>
     <g id="line2d_9">
      <g>
       <use style="stroke:#000000;stroke-width:0.5;" x="442.8" xlink:href="#m5a7d422ac3" y="64.8"/>
      </g>
     </g>
     <g id="text_3">
      <!-- 100000 -->
      <defs>
       <path d="
M12.4062 8.29688
L28.5156 8.29688
L28.5156 63.9219
L10.9844 60.4062
L10.9844 69.3906
L28.4219 72.9062
L38.2812 72.9062
L38.2812 8.29688
L54.3906 8.29688
L54.3906 0
L12.4062 0
z
" id="BitstreamVeraSans-Roman-31"/>
      </defs>
      <g transform="translate(420.9525 596.318125)scale(0.12 -0.12)">
       <use xlink:href="#BitstreamVeraSans-Roman-31"/>
       <use x="63.623046875" xlink:href="#BitstreamVeraSans-Roman-30"/>
       <use x="127.24609375" xlink:href="#BitstreamVeraSans-Roman-30"/>
       <use x="190.869140625" xlink:href="#BitstreamVeraSans-Roman-30"/>
       <use x="254.4921875" xlink:href="#BitstreamVeraSans-Roman-30"/>
       <use x="318.115234375" xlink:href="#BitstreamVeraSans-Roman-30"/>
      </g>
     </g>
    </g>
    <g id="xtick_4">
     <g id="line2d_10">
      <g>
       <use style="stroke:#000000;stroke-width:0.5;" x="610.2" xlink:href="#mc7db9fdffb" y="583.2"/>
      </g>
     </g>
     <g id="line2d_11">
      <g>
       <use style="stroke:#000000;stroke-width:0.5;" x="610.2" xlink:href="#m5a7d422ac3" y="64.8"/>
      </g>
     </g>
     <g id="text_4">
      <!-- 150000 -->
      <g transform="translate(588.3525 596.318125)scale(0.12 -0.12)">
       <use xlink:href="#BitstreamVeraSans-Roman-31"/>
       <use x="63.623046875" xlink:href="#BitstreamVeraSans-Roman-35"/>
       <use x="127.24609375" xlink:href="#BitstreamVeraSans-Roman-30"/>
       <use x="190.869140625" xlink:href="#BitstreamVeraSans-Roman-30"/>
       <use x="254.4921875" xlink:href="#BitstreamVeraSans-Roman-30"/>
       <use x="318.115234375" xlink:href="#BitstreamVeraSans-Roman-30"/>
      </g>
     </g>
    </g>
    <g id="xtick_5">
     <g id="line2d_12">
      <g>
       <use style="stroke:#000000;stroke-width:0.5;" x="777.6" xlink:href="#mc7db9fdffb" y="583.2"/>
      </g>
     </g>
     <g id="line2d_13">
      <g>
       <use style="stroke:#000000;stroke-width:0.5;" x="777.6" xlink:href="#m5a7d422ac3" y="64.8"/>
      </g>
     </g>
     <g id="text_5">
      <!-- 200000 -->
      <defs>
       <path d="
M19.1875 8.29688
L53.6094 8.29688
L53.6094 0
L7.32812 0
L7.32812 8.29688
Q12.9375 14.1094 22.625 23.8906
Q32.3281 33.6875 34.8125 36.5312
Q39.5469 41.8438 41.4219 45.5312
Q43.3125 49.2188 43.3125 52.7812
Q43.3125 58.5938 39.2344 62.25
Q35.1562 65.9219 28.6094 65.9219
Q23.9688 65.9219 18.8125 64.3125
Q13.6719 62.7031 7.8125 59.4219
L7.8125 69.3906
Q13.7656 71.7812 18.9375 73
Q24.125 74.2188 28.4219 74.2188
Q39.75 74.2188 46.4844 68.5469
Q53.2188 62.8906 53.2188 53.4219
Q53.2188 48.9219 51.5312 44.8906
Q49.8594 40.875 45.4062 35.4062
Q44.1875 33.9844 37.6406 27.2188
Q31.1094 20.4531 19.1875 8.29688" id="BitstreamVeraSans-Roman-32"/>
      </defs>
      <g transform="translate(755.533125 596.318125)scale(0.12 -0.12)">
       <use xlink:href="#BitstreamVeraSans-Roman-32"/>
       <use x="63.623046875" xlink:href="#BitstreamVeraSans-Roman-30"/>
       <use x="127.24609375" xlink:href="#BitstreamVeraSans-Roman-30"/>
       <use x="190.869140625" xlink:href="#BitstreamVeraSans-Roman-30"/>
       <use x="254.4921875" xlink:href="#BitstreamVeraSans-Roman-30"/>
       <use x="318.115234375" xlink:href="#BitstreamVeraSans-Roman-30"/>
      </g>
     </g>
    </g>
    <g id="text_6">
     <!-- t / ms -->
     <defs>
      <path id="BitstreamVeraSans-Roman-20"/>
      <path d="
M18.3125 70.2188
L18.3125 54.6875
L36.8125 54.6875
L36.8125 47.7031
L18.3125 47.7031
L18.3125 18.0156
Q18.3125 11.3281 20.1406 9.42188
Q21.9688 7.51562 27.5938 7.51562
L36.8125 7.51562
L36.8125 0
L27.5938 0
Q17.1875 0 13.2344 3.875
Q9.28125 7.76562 9.28125 18.0156
L9.28125 47.7031
L2.6875 47.7031
L2.6875 54.6875
L9.28125 54.6875
L9.28125 70.2188
z
" id="BitstreamVeraSans-Roman-74"/>
      <path d="
M52 44.1875
Q55.375 50.25 60.0625 53.125
Q64.75 56 71.0938 56
Q79.6406 56 84.2812 50.0156
Q88.9219 44.0469 88.9219 33.0156
L88.9219 0
L79.8906 0
L79.8906 32.7188
Q79.8906 40.5781 77.0938 44.375
Q74.3125 48.1875 68.6094 48.1875
Q61.625 48.1875 57.5625 43.5469
Q53.5156 38.9219 53.5156 30.9062
L53.5156 0
L44.4844 0
L44.4844 32.7188
Q44.4844 40.625 41.7031 44.4062
Q38.9219 48.1875 33.1094 48.1875
Q26.2188 48.1875 22.1562 43.5312
Q18.1094 38.875 18.1094 30.9062
L18.1094 0
L9.07812 0
L9.07812 54.6875
L18.1094 54.6875
L18.1094 46.1875
Q21.1875 51.2188 25.4844 53.6094
Q29.7812 56 35.6875 56
Q41.6562 56 45.8281 52.9688
Q50 49.9531 52 44.1875" id="BitstreamVeraSans-Roman-6d"/>
      <path d="
M44.2812 53.0781
L44.2812 44.5781
Q40.4844 46.5312 36.375 47.5
Q32.2812 48.4844 27.875 48.4844
Q21.1875 48.4844 17.8438 46.4375
Q14.5 44.3906 14.5 40.2812
Q14.5 37.1562 16.8906 35.375
Q19.2812 33.5938 26.5156 31.9844
L29.5938 31.2969
Q39.1562 29.25 43.1875 25.5156
Q47.2188 21.7812 47.2188 15.0938
Q47.2188 7.46875 41.1875 3.01562
Q35.1562 -1.42188 24.6094 -1.42188
Q20.2188 -1.42188 15.4531 -0.5625
Q10.6875 0.296875 5.42188 2
L5.42188 11.2812
Q10.4062 8.6875 15.2344 7.39062
Q20.0625 6.10938 24.8125 6.10938
Q31.1562 6.10938 34.5625 8.28125
Q37.9844 10.4531 37.9844 14.4062
Q37.9844 18.0625 35.5156 20.0156
Q33.0625 21.9688 24.7031 23.7812
L21.5781 24.5156
Q13.2344 26.2656 9.51562 29.9062
Q5.8125 33.5469 5.8125 39.8906
Q5.8125 47.6094 11.2812 51.7969
Q16.75 56 26.8125 56
Q31.7812 56 36.1719 55.2656
Q40.5781 54.5469 44.2812 53.0781" id="BitstreamVeraSans-Roman-73"/>
      <path d="
M25.3906 72.9062
L33.6875 72.9062
L8.29688 -9.28125
L0 -9.28125
z
" id="BitstreamVeraSans-Roman-2f"/>
     </defs>
     <g transform="translate(425.9353125 612.931875)scale(0.12 -0.12)">
      <use xlink:href="#BitstreamVeraSans-Roman-74"/>
      <use x="39.208984375" xlink:href="#BitstreamVeraSans-Roman-20"/>
      <use x="70.99609375" xlink:href="#BitstreamVeraSans-Roman-2f"/>
      <use x="104.6875" xlink:href="#BitstreamVeraSans-Roman-20"/>
      <use x="136.474609375" xlink:href="#BitstreamVeraSans-Roman-6d"/>
      <use x="233.88671875" xlink:href="#BitstreamVeraSans-Roman-73"/>
     </g>
    </g>
   </g>
   <g id="matplotlib.axis_2">
    <g id="ytick_1">
     <g id="line2d_14">
      <defs>
       <path d="
M0 0
L4 0" id="md7965d1ba0" style="stroke:#000000;stroke-width:0.5;"/>
      </defs>
      <g>
       <use style="stroke:#000000;stroke-width:0.5;" x="108.0" xlink:href="#md7965d1ba0" y="583.2"/>
      </g>
     </g>
     <g id="line2d_15">
      <defs>
       <path d="
M0 0
L-4 0" id="md9a1c1a7cd" style="stroke:#000000;stroke-width:0.5;"/>
      </defs>
      <g>
       <use style="stroke:#000000;stroke-width:0.5;" x="777.6" xlink:href="#md9a1c1a7cd" y="583.2"/>
      </g>
     </g>
     <g id="text_7">
      <!-- 0 -->
      <g transform="translate(97.953125 586.51125)scale(0.12 -0.12)">
       <use xlink:href="#BitstreamVeraSans-Roman-30"/>
      </g>
     </g>
    </g>
    <g id="ytick_2">
     <g id="line2d_16">
      <g>
       <use style="stroke:#000000;stroke-width:0.5;" x="108.0" xlink:href="#md7965d1ba0" y="479.52"/>
      </g>
     </g>
     <g id="line2d_17">
      <g>
       <use style="stroke:#000000;stroke-width:0.5;" x="777.6" xlink:href="#md9a1c1a7cd" y="479.52"/>
      </g>
     </g>
     <g id="text_8">
      <!-- 200 -->
      <g transform="translate(82.77125 482.83125)scale(0.12 -0.12)">
       <use xlink:href="#BitstreamVeraSans-Roman-32"/>
       <use x="63.623046875" xlink:href="#BitstreamVeraSans-Roman-30"/>
       <use x="127.24609375" xlink:href="#BitstreamVeraSans-Roman-30"/>
      </g>
     </g>
    </g>
    <g id="ytick_3">
     <g id="line2d_18">
      <g>
       <use style="stroke:#000000;stroke-width:0.5;" x="108.0" xlink:href="#md7965d1ba0" y="375.84"/>
      </g>
     </g>
     <g id="line2d_19">
      <g>
       <use style="stroke:#000000;stroke-width:0.5;" x="777.6" xlink:href="#md9a1c1a7cd" y="375.84"/>
      </g>
     </g>
     <g id="text_9">
      <!-- 400 -->
      <defs>
       <path d="
M37.7969 64.3125
L12.8906 25.3906
L37.7969 25.3906
z

M35.2031 72.9062
L47.6094 72.9062
L47.6094 25.3906
L58.0156 25.3906
L58.0156 17.1875
L47.6094 17.1875
L47.6094 0
L37.7969 0
L37.7969 17.1875
L4.89062 17.1875
L4.89062 26.7031
z
" id="BitstreamVeraSans-Roman-34"/>
      </defs>
      <g transform="translate(82.47875 379.15125)scale(0.12 -0.12)">
       <use xlink:href="#BitstreamVeraSans-Roman-34"/>
       <use x="63.623046875" xlink:href="#BitstreamVeraSans-Roman-30"/>
       <use x="127.24609375" xlink:href="#BitstreamVeraSans-Roman-30"/>
      </g>
     </g>
    </g>
    <g id="ytick_4">
     <g id="line2d_20">
      <g>
       <use style="stroke:#000000;stroke-width:0.5;" x="108.0" xlink:href="#md7965d1ba0" y="272.16"/>
      </g>
     </g>
     <g id="line2d_21">
      <g>
       <use style="stroke:#000000;stroke-width:0.5;" x="777.6" xlink:href="#md9a1c1a7cd" y="272.16"/>
      </g>
     </g>
     <g id="text_10">
      <!-- 600 -->
      <defs>
       <path d="
M33.0156 40.375
Q26.375 40.375 22.4844 35.8281
Q18.6094 31.2969 18.6094 23.3906
Q18.6094 15.5312 22.4844 10.9531
Q26.375 6.39062 33.0156 6.39062
Q39.6562 6.39062 43.5312 10.9531
Q47.4062 15.5312 47.4062 23.3906
Q47.4062 31.2969 43.5312 35.8281
Q39.6562 40.375 33.0156 40.375
M52.5938 71.2969
L52.5938 62.3125
Q48.875 64.0625 45.0938 64.9844
Q41.3125 65.9219 37.5938 65.9219
Q27.8281 65.9219 22.6719 59.3281
Q17.5312 52.7344 16.7969 39.4062
Q19.6719 43.6562 24.0156 45.9219
Q28.375 48.1875 33.5938 48.1875
Q44.5781 48.1875 50.9531 41.5156
Q57.3281 34.8594 57.3281 23.3906
Q57.3281 12.1562 50.6875 5.35938
Q44.0469 -1.42188 33.0156 -1.42188
Q20.3594 -1.42188 13.6719 8.26562
Q6.98438 17.9688 6.98438 36.375
Q6.98438 53.6562 15.1875 63.9375
Q23.3906 74.2188 37.2031 74.2188
Q40.9219 74.2188 44.7031 73.4844
Q48.4844 72.75 52.5938 71.2969" id="BitstreamVeraSans-Roman-36"/>
      </defs>
      <g transform="translate(82.73 275.47125)scale(0.12 -0.12)">
       <use xlink:href="#BitstreamVeraSans-Roman-36"/>
       <use x="63.623046875" xlink:href="#BitstreamVeraSans-Roman-30"/>
       <use x="127.24609375" xlink:href="#BitstreamVeraSans-Roman-30"/>
      </g>
     </g>
    </g>
    <g id="ytick_5">
     <g id="line2d_22">
      <g>
       <use style="stroke:#000000;stroke-width:0.5;" x="108.0" xlink:href="#md7965d1ba0" y="168.48"/>
      </g>
     </g>
     <g id="line2d_23">
      <g>
       <use style="stroke:#000000;stroke-width:0.5;" x="777.6" xlink:href="#md9a1c1a7cd" y="168.48"/>
      </g>
     </g>
     <g id="text_11">
      <!-- 800 -->
      <defs>
       <path d="
M31.7812 34.625
Q24.75 34.625 20.7188 30.8594
Q16.7031 27.0938 16.7031 20.5156
Q16.7031 13.9219 20.7188 10.1562
Q24.75 6.39062 31.7812 6.39062
Q38.8125 6.39062 42.8594 10.1719
Q46.9219 13.9688 46.9219 20.5156
Q46.9219 27.0938 42.8906 30.8594
Q38.875 34.625 31.7812 34.625
M21.9219 38.8125
Q15.5781 40.375 12.0312 44.7188
Q8.5 49.0781 8.5 55.3281
Q8.5 64.0625 14.7188 69.1406
Q20.9531 74.2188 31.7812 74.2188
Q42.6719 74.2188 48.875 69.1406
Q55.0781 64.0625 55.0781 55.3281
Q55.0781 49.0781 51.5312 44.7188
Q48 40.375 41.7031 38.8125
Q48.8281 37.1562 52.7969 32.3125
Q56.7812 27.4844 56.7812 20.5156
Q56.7812 9.90625 50.3125 4.23438
Q43.8438 -1.42188 31.7812 -1.42188
Q19.7344 -1.42188 13.25 4.23438
Q6.78125 9.90625 6.78125 20.5156
Q6.78125 27.4844 10.7812 32.3125
Q14.7969 37.1562 21.9219 38.8125
M18.3125 54.3906
Q18.3125 48.7344 21.8438 45.5625
Q25.3906 42.3906 31.7812 42.3906
Q38.1406 42.3906 41.7188 45.5625
Q45.3125 48.7344 45.3125 54.3906
Q45.3125 60.0625 41.7188 63.2344
Q38.1406 66.4062 31.7812 66.4062
Q25.3906 66.4062 21.8438 63.2344
Q18.3125 60.0625 18.3125 54.3906" id="BitstreamVeraSans-Roman-38"/>
      </defs>
      <g transform="translate(82.705625 171.79125)scale(0.12 -0.12)">
       <use xlink:href="#BitstreamVeraSans-Roman-38"/>
       <use x="63.623046875" xlink:href="#BitstreamVeraSans-Roman-30"/>
       <use x="127.24609375" xlink:href="#BitstreamVeraSans-Roman-30"/>
      </g>
     </g>
    </g>
    <g id="ytick_6">
     <g id="line2d_24">
      <g>
       <use style="stroke:#000000;stroke-width:0.5;" x="108.0" xlink:href="#md7965d1ba0" y="64.8"/>
      </g>
     </g>
     <g id="line2d_25">
      <g>
       <use style="stroke:#000000;stroke-width:0.5;" x="777.6" xlink:href="#md9a1c1a7cd" y="64.8"/>
      </g>
     </g>
     <g id="text_12">
      <!-- 1000 -->
      <g transform="translate(75.575 68.11125)scale(0.12 -0.12)">
       <use xlink:href="#BitstreamVeraSans-Roman-31"/>
       <use x="63.623046875" xlink:href="#BitstreamVeraSans-Roman-30"/>
       <use x="127.24609375" xlink:href="#BitstreamVeraSans-Roman-30"/>
       <use x="190.869140625" xlink:href="#BitstreamVeraSans-Roman-30"/>
      </g>
     </g>
    </g>
    <g id="text_13">
     <!-- particle numbers -->
     <defs>
      <path d="
M8.5 21.5781
L8.5 54.6875
L17.4844 54.6875
L17.4844 21.9219
Q17.4844 14.1562 20.5 10.2656
Q23.5312 6.39062 29.5938 6.39062
Q36.8594 6.39062 41.0781 11.0312
Q45.3125 15.6719 45.3125 23.6875
L45.3125 54.6875
L54.2969 54.6875
L54.2969 0
L45.3125 0
L45.3125 8.40625
Q42.0469 3.42188 37.7188 1
Q33.4062 -1.42188 27.6875 -1.42188
Q18.2656 -1.42188 13.375 4.4375
Q8.5 10.2969 8.5 21.5781" id="BitstreamVeraSans-Roman-75"/>
      <path d="
M54.8906 33.0156
L54.8906 0
L45.9062 0
L45.9062 32.7188
Q45.9062 40.4844 42.875 44.3281
Q39.8438 48.1875 33.7969 48.1875
Q26.5156 48.1875 22.3125 43.5469
Q18.1094 38.9219 18.1094 30.9062
L18.1094 0
L9.07812 0
L9.07812 54.6875
L18.1094 54.6875
L18.1094 46.1875
Q21.3438 51.125 25.7031 53.5625
Q30.0781 56 35.7969 56
Q45.2188 56 50.0469 50.1719
Q54.8906 44.3438 54.8906 33.0156" id="BitstreamVeraSans-Roman-6e"/>
      <path d="
M34.2812 27.4844
Q23.3906 27.4844 19.1875 25
Q14.9844 22.5156 14.9844 16.5
Q14.9844 11.7188 18.1406 8.90625
Q21.2969 6.10938 26.7031 6.10938
Q34.1875 6.10938 38.7031 11.4062
Q43.2188 16.7031 43.2188 25.4844
L43.2188 27.4844
z

M52.2031 31.2031
L52.2031 0
L43.2188 0
L43.2188 8.29688
Q40.1406 3.32812 35.5469 0.953125
Q30.9531 -1.42188 24.3125 -1.42188
Q15.9219 -1.42188 10.9531 3.29688
Q6 8.01562 6 15.9219
Q6 25.1406 12.1719 29.8281
Q18.3594 34.5156 30.6094 34.5156
L43.2188 34.5156
L43.2188 35.4062
Q43.2188 41.6094 39.1406 45
Q35.0625 48.3906 27.6875 48.3906
Q23 48.3906 18.5469 47.2656
Q14.1094 46.1406 10.0156 43.8906
L10.0156 52.2031
Q14.9375 54.1094 19.5781 55.0469
Q24.2188 56 28.6094 56
Q40.4844 56 46.3438 49.8438
Q52.2031 43.7031 52.2031 31.2031" id="BitstreamVeraSans-Roman-61"/>
      <path d="
M56.2031 29.5938
L56.2031 25.2031
L14.8906 25.2031
Q15.4844 15.9219 20.4844 11.0625
Q25.4844 6.20312 34.4219 6.20312
Q39.5938 6.20312 44.4531 7.46875
Q49.3125 8.73438 54.1094 11.2812
L54.1094 2.78125
Q49.2656 0.734375 44.1875 -0.34375
Q39.1094 -1.42188 33.8906 -1.42188
Q20.7969 -1.42188 13.1562 6.1875
Q5.51562 13.8125 5.51562 26.8125
Q5.51562 40.2344 12.7656 48.1094
Q20.0156 56 32.3281 56
Q43.3594 56 49.7812 48.8906
Q56.2031 41.7969 56.2031 29.5938
M47.2188 32.2344
Q47.125 39.5938 43.0938 43.9844
Q39.0625 48.3906 32.4219 48.3906
Q24.9062 48.3906 20.3906 44.1406
Q15.875 39.8906 15.1875 32.1719
z
" id="BitstreamVeraSans-Roman-65"/>
      <path d="
M48.6875 27.2969
Q48.6875 37.2031 44.6094 42.8438
Q40.5312 48.4844 33.4062 48.4844
Q26.2656 48.4844 22.1875 42.8438
Q18.1094 37.2031 18.1094 27.2969
Q18.1094 17.3906 22.1875 11.75
Q26.2656 6.10938 33.4062 6.10938
Q40.5312 6.10938 44.6094 11.75
Q48.6875 17.3906 48.6875 27.2969
M18.1094 46.3906
Q20.9531 51.2656 25.2656 53.625
Q29.5938 56 35.5938 56
Q45.5625 56 51.7812 48.0938
Q58.0156 40.1875 58.0156 27.2969
Q58.0156 14.4062 51.7812 6.48438
Q45.5625 -1.42188 35.5938 -1.42188
Q29.5938 -1.42188 25.2656 0.953125
Q20.9531 3.32812 18.1094 8.20312
L18.1094 0
L9.07812 0
L9.07812 75.9844
L18.1094 75.9844
z
" id="BitstreamVeraSans-Roman-62"/>
      <path d="
M9.42188 54.6875
L18.4062 54.6875
L18.4062 0
L9.42188 0
z

M9.42188 75.9844
L18.4062 75.9844
L18.4062 64.5938
L9.42188 64.5938
z
" id="BitstreamVeraSans-Roman-69"/>
      <path d="
M48.7812 52.5938
L48.7812 44.1875
Q44.9688 46.2969 41.1406 47.3438
Q37.3125 48.3906 33.4062 48.3906
Q24.6562 48.3906 19.8125 42.8438
Q14.9844 37.3125 14.9844 27.2969
Q14.9844 17.2812 19.8125 11.7344
Q24.6562 6.20312 33.4062 6.20312
Q37.3125 6.20312 41.1406 7.25
Q44.9688 8.29688 48.7812 10.4062
L48.7812 2.09375
Q45.0156 0.34375 40.9844 -0.53125
Q36.9688 -1.42188 32.4219 -1.42188
Q20.0625 -1.42188 12.7812 6.34375
Q5.51562 14.1094 5.51562 27.2969
Q5.51562 40.6719 12.8594 48.3281
Q20.2188 56 33.0156 56
Q37.1562 56 41.1094 55.1406
Q45.0625 54.2969 48.7812 52.5938" id="BitstreamVeraSans-Roman-63"/>
      <path d="
M9.42188 75.9844
L18.4062 75.9844
L18.4062 0
L9.42188 0
z
" id="BitstreamVeraSans-Roman-6c"/>
      <path d="
M41.1094 46.2969
Q39.5938 47.1719 37.8125 47.5781
Q36.0312 48 33.8906 48
Q26.2656 48 22.1875 43.0469
Q18.1094 38.0938 18.1094 28.8125
L18.1094 0
L9.07812 0
L9.07812 54.6875
L18.1094 54.6875
L18.1094 46.1875
Q20.9531 51.1719 25.4844 53.5781
Q30.0312 56 36.5312 56
Q37.4531 56 38.5781 55.875
Q39.7031 55.7656 41.0625 55.5156
z
" id="BitstreamVeraSans-Roman-72"/>
      <path d="
M18.1094 8.20312
L18.1094 -20.7969
L9.07812 -20.7969
L9.07812 54.6875
L18.1094 54.6875
L18.1094 46.3906
Q20.9531 51.2656 25.2656 53.625
Q29.5938 56 35.5938 56
Q45.5625 56 51.7812 48.0938
Q58.0156 40.1875 58.0156 27.2969
Q58.0156 14.4062 51.7812 6.48438
Q45.5625 -1.42188 35.5938 -1.42188
Q29.5938 -1.42188 25.2656 0.953125
Q20.9531 3.32812 18.1094 8.20312
M48.6875 27.2969
Q48.6875 37.2031 44.6094 42.8438
Q40.5312 48.4844 33.4062 48.4844
Q26.2656 48.4844 22.1875 42.8438
Q18.1094 37.2031 18.1094 27.2969
Q18.1094 17.3906 22.1875 11.75
Q26.2656 6.10938 33.4062 6.10938
Q40.5312 6.10938 44.6094 11.75
Q48.6875 17.3906 48.6875 27.2969" id="BitstreamVeraSans-Roman-70"/>
     </defs>
     <g transform="translate(68.079375 374.78625)rotate(-90.0)scale(0.12 -0.12)">
      <use xlink:href="#BitstreamVeraSans-Roman-70"/>
      <use x="63.4765625" xlink:href="#BitstreamVeraSans-Roman-61"/>
      <use x="124.755859375" xlink:href="#BitstreamVeraSans-Roman-72"/>
      <use x="165.869140625" xlink:href="#BitstreamVeraSans-Roman-74"/>
      <use x="205.078125" xlink:href="#BitstreamVeraSans-Roman-69"/>
      <use x="232.861328125" xlink:href="#BitstreamVeraSans-Roman-63"/>
      <use x="287.841796875" xlink:href="#BitstreamVeraSans-Roman-6c"/>
      <use x="315.625" xlink:href="#BitstreamVeraSans-Roman-65"/>
      <use x="377.1484375" xlink:href="#BitstreamVeraSans-Roman-20"/>
      <use x="408.935546875" xlink:href="#BitstreamVeraSans-Roman-6e"/>
      <use x="472.314453125" xlink:href="#BitstreamVeraSans-Roman-75"/>
      <use x="535.693359375" xlink:href="#BitstreamVeraSans-Roman-6d"/>
      <use x="633.10546875" xlink:href="#BitstreamVeraSans-Roman-62"/>
      <use x="696.58203125" xlink:href="#BitstreamVeraSans-Roman-65"/>
      <use x="758.10546875" xlink:href="#BitstreamVeraSans-Roman-72"/>
      <use x="799.21875" xlink:href="#BitstreamVeraSans-Roman-73"/>
     </g>
    </g>
   </g>
   <g id="legend_1">
    <g id="patch_7">
     <path d="
M697.504 101.224
L774.1 101.224
L774.1 68.3
L697.504 68.3
z
" style="fill:#ffffff;stroke:#000000;stroke-linejoin:miter;"/>
    </g>
    <g id="line2d_26">
     <path d="
M702.404 73.9689
L712.204 73.9689" style="fill:none;stroke:#ff0000;stroke-linecap:square;"/>
    </g>
    <g id="line2d_27"/>
    <g id="text_14">
     <!-- PKAcAMP2 el.0 -->
     <defs>
      <path d="
M10.6875 12.4062
L21 12.4062
L21 0
L10.6875 0
z
" id="BitstreamVeraSans-Roman-2e"/>
      <path d="
M9.8125 72.9062
L19.6719 72.9062
L19.6719 42.0938
L52.3906 72.9062
L65.0938 72.9062
L28.9062 38.9219
L67.6719 0
L54.6875 0
L19.6719 35.1094
L19.6719 0
L9.8125 0
z
" id="BitstreamVeraSans-Roman-4b"/>
      <path d="
M9.8125 72.9062
L24.5156 72.9062
L43.1094 23.2969
L61.8125 72.9062
L76.5156 72.9062
L76.5156 0
L66.8906 0
L66.8906 64.0156
L48.0938 14.0156
L38.1875 14.0156
L19.3906 64.0156
L19.3906 0
L9.8125 0
z
" id="BitstreamVeraSans-Roman-4d"/>
      <path d="
M19.6719 64.7969
L19.6719 37.4062
L32.0781 37.4062
Q38.9688 37.4062 42.7188 40.9688
Q46.4844 44.5312 46.4844 51.125
Q46.4844 57.6719 42.7188 61.2344
Q38.9688 64.7969 32.0781 64.7969
z

M9.8125 72.9062
L32.0781 72.9062
Q44.3438 72.9062 50.6094 67.3594
Q56.8906 61.8125 56.8906 51.125
Q56.8906 40.3281 50.6094 34.8125
Q44.3438 29.2969 32.0781 29.2969
L19.6719 29.2969
L19.6719 0
L9.8125 0
z
" id="BitstreamVeraSans-Roman-50"/>
      <path d="
M34.1875 63.1875
L20.7969 26.9062
L47.6094 26.9062
z

M28.6094 72.9062
L39.7969 72.9062
L67.5781 0
L57.3281 0
L50.6875 18.7031
L17.8281 18.7031
L11.1875 0
L0.78125 0
z
" id="BitstreamVeraSans-Roman-41"/>
     </defs>
     <g transform="translate(719.90359375 76.41890625)scale(0.07 -0.07)">
      <use xlink:href="#BitstreamVeraSans-Roman-50"/>
      <use x="60.302734375" xlink:href="#BitstreamVeraSans-Roman-4b"/>
      <use x="124.12890625" xlink:href="#BitstreamVeraSans-Roman-41"/>
      <use x="190.787109375" xlink:href="#BitstreamVeraSans-Roman-63"/>
      <use x="245.767578125" xlink:href="#BitstreamVeraSans-Roman-41"/>
      <use x="314.17578125" xlink:href="#BitstreamVeraSans-Roman-4d"/>
      <use x="400.455078125" xlink:href="#BitstreamVeraSans-Roman-50"/>
      <use x="460.7578125" xlink:href="#BitstreamVeraSans-Roman-32"/>
      <use x="524.380859375" xlink:href="#BitstreamVeraSans-Roman-20"/>
      <use x="556.16796875" xlink:href="#BitstreamVeraSans-Roman-65"/>
      <use x="617.69140625" xlink:href="#BitstreamVeraSans-Roman-6c"/>
      <use x="645.474609375" xlink:href="#BitstreamVeraSans-Roman-2e"/>
      <use x="677.26171875" xlink:href="#BitstreamVeraSans-Roman-30"/>
     </g>
    </g>
    <g id="line2d_28">
     <path d="
M702.404 84.2436
L712.204 84.2436" style="fill:none;stroke:#008000;stroke-linecap:square;"/>
    </g>
    <g id="line2d_29"/>
    <g id="text_15">
     <!-- PKAcAMP2 el.1 -->
     <g transform="translate(719.90359375 86.69359375)scale(0.07 -0.07)">
      <use xlink:href="#BitstreamVeraSans-Roman-50"/>
      <use x="60.302734375" xlink:href="#BitstreamVeraSans-Roman-4b"/>
      <use x="124.12890625" xlink:href="#BitstreamVeraSans-Roman-41"/>
      <use x="190.787109375" xlink:href="#BitstreamVeraSans-Roman-63"/>
      <use x="245.767578125" xlink:href="#BitstreamVeraSans-Roman-41"/>
      <use x="314.17578125" xlink:href="#BitstreamVeraSans-Roman-4d"/>
      <use x="400.455078125" xlink:href="#BitstreamVeraSans-Roman-50"/>
      <use x="460.7578125" xlink:href="#BitstreamVeraSans-Roman-32"/>
      <use x="524.380859375" xlink:href="#BitstreamVeraSans-Roman-20"/>
      <use x="556.16796875" xlink:href="#BitstreamVeraSans-Roman-65"/>
      <use x="617.69140625" xlink:href="#BitstreamVeraSans-Roman-6c"/>
      <use x="645.474609375" xlink:href="#BitstreamVeraSans-Roman-2e"/>
      <use x="677.26171875" xlink:href="#BitstreamVeraSans-Roman-31"/>
     </g>
    </g>
    <g id="line2d_30">
     <path d="
M702.404 94.5183
L712.204 94.5183" style="fill:none;stroke:#0000ff;stroke-linecap:square;"/>
    </g>
    <g id="line2d_31"/>
    <g id="text_16">
     <!-- PKAcAMP2 el.2 -->
     <g transform="translate(719.90359375 96.96828125)scale(0.07 -0.07)">
      <use xlink:href="#BitstreamVeraSans-Roman-50"/>
      <use x="60.302734375" xlink:href="#BitstreamVeraSans-Roman-4b"/>
      <use x="124.12890625" xlink:href="#BitstreamVeraSans-Roman-41"/>
      <use x="190.787109375" xlink:href="#BitstreamVeraSans-Roman-63"/>
      <use x="245.767578125" xlink:href="#BitstreamVeraSans-Roman-41"/>
      <use x="314.17578125" xlink:href="#BitstreamVeraSans-Roman-4d"/>
      <use x="400.455078125" xlink:href="#BitstreamVeraSans-Roman-50"/>
      <use x="460.7578125" xlink:href="#BitstreamVeraSans-Roman-32"/>
      <use x="524.380859375" xlink:href="#BitstreamVeraSans-Roman-20"/>
      <use x="556.16796875" xlink:href="#BitstreamVeraSans-Roman-65"/>
      <use x="617.69140625" xlink:href="#BitstreamVeraSans-Roman-6c"/>
      <use x="645.474609375" xlink:href="#BitstreamVeraSans-Roman-2e"/>
      <use x="677.26171875" xlink:href="#BitstreamVeraSans-Roman-32"/>
     </g>
    </g>
   </g>
  </g>
 </g>
 <defs>
  <clipPath id="p7ceb695115">
   <rect height="518.4" width="669.6" x="108.0" y="64.8"/>
  </clipPath>
 </defs>
</svg>
