<?xml version="1.0" encoding="utf-8" standalone="no"?>
<!DOCTYPE svg PUBLIC "-//W3C//DTD SVG 1.1//EN"
  "http://www.w3.org/Graphics/SVG/1.1/DTD/svg11.dtd">
<!-- Created with matplotlib (http://matplotlib.org/) -->
<svg height="648pt" version="1.1" viewBox="0 0 864 648" width="864pt" xmlns="http://www.w3.org/2000/svg" xmlns:xlink="http://www.w3.org/1999/xlink">
 <defs>
  <style type="text/css">
*{stroke-linecap:butt;stroke-linejoin:round;}
  </style>
 </defs>
 <g id="figure_1">
  <g id="patch_1">
   <path d="
M0 648
L864 648
L864 0
L0 0
z
" style="fill:#ffffff;"/>
  </g>
  <g id="axes_1">
   <g id="patch_2">
    <path d="
M108 583.2
L777.6 583.2
L777.6 64.8
L108 64.8
z
" style="fill:#ffffff;"/>
   </g>
   <g id="line2d_1">
    <path clip-path="url(#p7ceb695115)" d="
M108 583.2
L108.67 580.932
L109.339 580.608
L110.009 579.636
L110.678 580.284
L111.348 580.284
L112.018 579.636
L112.687 579.312
L113.357 578.34
L114.026 578.664
L114.696 577.692
L115.366 575.748
L116.035 575.1
L117.374 573.156
L118.044 570.564
L119.383 567
L120.053 565.704
L120.722 565.704
L121.392 563.436
L122.062 562.464
L123.401 558.9
L124.07 558.576
L124.74 557.604
L125.41 555.66
L126.079 555.66
L126.749 554.688
L127.418 554.364
L128.758 548.856
L129.427 547.56
L130.766 546.264
L131.436 544.968
L132.775 543.024
L133.445 542.376
L134.114 542.052
L134.784 539.46
L135.454 539.784
L136.123 539.136
L136.793 537.84
L137.462 537.84
L138.132 536.868
L139.471 535.572
L140.141 535.248
L140.81 531.684
L141.48 531.36
L142.15 530.712
L143.489 530.064
L144.158 528.768
L144.828 529.416
L146.167 527.472
L146.837 528.12
L147.506 525.852
L148.176 526.824
L148.846 524.556
L149.515 523.584
L150.185 522.288
L150.854 522.612
L151.524 521.964
L152.194 521.964
L152.863 520.668
L153.533 523.584
L154.202 521.964
L154.872 522.612
L155.542 522.288
L156.211 520.668
L156.881 520.02
L157.55 520.02
L158.22 520.344
L158.89 520.992
L159.559 520.668
L160.229 521.316
L160.898 521.316
L161.568 519.372
L162.238 520.668
L162.907 519.372
L163.577 519.696
L164.246 519.048
L164.916 518.724
L165.586 518.076
L166.255 519.048
L166.925 518.076
L167.594 518.076
L168.264 518.4
L169.603 517.104
L170.273 517.752
L170.942 517.104
L172.282 516.456
L172.951 517.104
L173.621 516.456
L174.29 517.428
L174.96 516.132
L175.63 514.512
L176.299 512.568
L177.638 513.216
L179.647 512.244
L180.317 512.244
L181.656 511.596
L182.326 511.92
L182.995 511.92
L183.665 512.892
L184.334 511.596
L185.004 511.92
L185.674 512.568
L186.343 513.54
L187.013 512.892
L187.682 512.568
L188.352 512.892
L189.022 514.512
L189.691 516.78
L190.361 518.4
L191.03 518.076
L191.7 519.696
L192.37 519.696
L193.039 520.668
L193.709 520.668
L194.378 521.964
L195.048 521.316
L195.718 522.288
L196.387 522.288
L197.057 521.964
L197.726 522.936
L198.396 522.936
L199.066 521.964
L199.735 522.612
L200.405 520.02
L201.074 519.372
L201.744 520.668
L202.414 521.316
L203.083 520.992
L203.753 518.724
L204.422 517.752
L205.762 520.344
L206.431 520.344
L207.77 520.992
L208.44 520.668
L209.11 521.964
L209.779 521.316
L210.449 521.64
L211.118 522.612
L211.788 523.26
L212.458 524.232
L213.127 525.528
L213.797 525.528
L214.466 524.88
L215.136 525.528
L215.806 527.472
L216.475 526.5
L217.145 526.824
L217.814 527.796
L218.484 528.12
L219.154 527.796
L219.823 528.444
L220.493 528.768
L221.162 527.796
L221.832 527.148
L222.502 527.148
L223.171 528.12
L223.841 529.416
L224.51 528.768
L225.18 529.092
L225.85 529.74
L226.519 530.064
L227.189 528.444
L228.528 529.092
L229.198 528.768
L230.537 529.416
L231.206 530.388
L231.876 532.332
L232.546 531.036
L233.215 531.36
L233.885 532.008
L234.554 532.008
L235.224 531.684
L235.894 531.684
L236.563 531.36
L237.233 531.684
L237.902 531.036
L238.572 531.684
L239.242 531.36
L239.911 532.332
L240.581 532.98
L241.92 531.036
L242.59 531.684
L243.259 531.684
L243.929 532.332
L244.598 532.656
L245.268 532.008
L245.938 532.008
L246.607 533.304
L247.277 532.332
L247.946 532.008
L248.616 532.98
L249.286 534.276
L249.955 534.276
L250.625 533.952
L251.964 535.896
L252.634 536.22
L253.303 536.22
L253.973 536.868
L254.642 537.84
L255.312 536.868
L256.651 538.164
L257.321 537.192
L257.99 537.84
L259.33 537.192
L259.999 538.164
L260.669 537.516
L261.338 539.46
L262.008 538.488
L262.678 539.46
L263.347 541.08
L264.017 541.08
L264.686 541.404
L265.356 539.784
L266.026 539.784
L266.695 539.46
L267.365 540.756
L268.034 541.728
L268.704 542.376
L269.374 542.7
L270.043 542.7
L270.713 543.348
L271.382 543.024
L272.052 543.996
L272.722 544.32
L273.391 543.348
L274.061 543.672
L275.4 543.672
L276.739 544.32
L277.409 544.32
L278.078 546.264
L278.748 546.264
L279.418 546.588
L280.087 547.236
L280.757 547.236
L281.426 548.208
L282.096 547.884
L282.766 547.884
L284.105 548.532
L284.774 548.208
L286.114 548.856
L286.783 548.856
L287.453 547.884
L288.122 548.208
L288.792 547.884
L289.462 548.208
L290.131 548.856
L290.801 547.884
L292.14 551.448
L292.81 551.448
L293.479 552.096
L294.818 552.744
L296.158 552.744
L296.827 552.096
L297.497 553.392
L298.836 553.392
L299.506 552.744
L300.175 552.42
L300.845 551.772
L301.514 552.744
L302.854 552.744
L304.193 552.096
L304.862 552.096
L305.532 552.42
L306.202 551.772
L306.871 552.744
L307.541 552.096
L308.21 552.744
L308.88 552.744
L310.219 553.392
L310.889 553.392
L311.558 553.716
L312.228 553.716
L312.898 554.04
L313.567 554.688
L314.237 554.688
L314.906 555.012
L315.576 554.04
L316.246 553.392
L316.915 554.04
L317.585 554.04
L318.254 552.744
L318.924 552.744
L319.594 553.068
L320.263 553.068
L322.272 554.04
L322.942 555.012
L323.611 555.66
L324.281 555.984
L324.95 556.956
L325.62 556.956
L326.29 557.604
L327.629 558.252
L328.298 558.9
L328.968 557.928
L329.638 557.604
L330.307 557.928
L330.977 557.604
L331.646 556.632
L332.316 555.984
L332.986 555.66
L333.655 556.632
L334.325 557.28
L334.994 557.604
L336.334 556.308
L337.003 556.956
L337.673 556.632
L338.342 557.28
L339.012 556.632
L339.682 556.956
L340.351 556.956
L341.021 556.632
L341.69 556.956
L342.36 557.604
L343.699 557.604
L344.369 556.956
L345.038 556.632
L345.708 557.928
L346.378 557.928
L348.386 558.9
L349.056 558.9
L349.726 560.196
L350.395 560.844
L351.065 560.844
L351.734 561.168
L352.404 561.816
L353.074 561.492
L353.743 561.492
L354.413 562.14
L355.082 563.76
L355.752 563.436
L356.422 562.788
L357.091 562.788
L357.761 563.436
L358.43 563.76
L359.1 564.408
L359.77 564.084
L360.439 564.084
L361.109 563.76
L361.778 564.084
L362.448 564.732
L364.457 564.732
L365.126 565.056
L366.466 565.056
L367.135 565.704
L367.805 565.704
L369.144 565.056
L369.814 565.704
L370.483 566.676
L371.153 566.676
L371.822 567
L372.492 567
L373.162 567.648
L373.831 567.648
L374.501 567.972
L375.17 568.62
L376.51 568.62
L377.179 569.268
L377.849 569.592
L379.858 569.592
L380.527 569.268
L381.197 569.268
L381.866 569.592
L383.206 569.592
L383.875 569.916
L385.214 569.916
L385.884 570.24
L387.223 571.536
L388.562 571.536
L389.232 572.184
L389.902 572.508
L391.91 572.508
L392.58 572.832
L393.25 573.48
L393.919 573.48
L395.258 574.128
L396.598 574.128
L397.267 574.452
L398.606 574.452
L399.276 575.1
L399.946 575.1
L400.615 575.748
L401.954 575.748
L402.624 575.424
L403.294 575.748
L403.963 575.424
L404.633 575.748
L406.642 575.748
L407.311 575.424
L407.981 575.424
L408.65 575.748
L409.32 575.748
L409.99 576.072
L411.998 576.072
L412.668 576.396
L413.338 576.396
L414.007 576.072
L414.677 576.072
L415.346 576.396
L418.025 576.396
L418.694 576.072
L419.364 576.396
L420.703 576.396
L421.373 577.044
L422.712 577.044
L424.051 577.692
L424.721 577.692
L425.39 577.368
L426.06 578.016
L426.73 577.692
L428.069 577.692
L428.738 578.34
L435.434 578.34
L436.104 578.664
L436.774 578.664
L437.443 578.988
L438.113 578.988
L438.782 578.664
L439.452 578.664
L440.122 578.988
L440.791 578.988
L441.461 579.312
L442.13 578.988
L442.8 578.988
L443.47 578.664
L444.139 576.396
L444.809 568.296
L445.478 555.012
L446.148 531.36
L446.818 503.496
L448.157 427.68
L448.826 384.912
L450.166 328.212
L450.835 301.644
L451.505 279.612
L452.174 275.076
L453.514 270.216
L454.183 279.612
L454.853 286.092
L455.522 309.096
L456.192 311.04
L456.862 312.012
L457.531 334.044
L458.201 350.568
L458.87 359.964
L460.21 394.308
L460.879 392.364
L462.218 409.536
L462.888 402.084
L463.558 401.436
L464.227 415.044
L464.897 414.396
L465.566 421.524
L466.236 417.96
L466.906 429.624
L467.575 435.78
L468.245 434.16
L468.914 439.02
L469.584 428.004
L470.254 430.92
L470.923 435.132
L471.593 435.456
L472.262 431.568
L472.932 432.54
L473.602 426.06
L474.271 426.708
L474.941 425.088
L475.61 426.384
L476.95 420.228
L477.619 423.144
L478.289 420.876
L478.958 420.876
L479.628 402.408
L480.298 404.028
L480.967 403.056
L481.637 411.804
L482.306 405.648
L482.976 412.452
L483.646 408.564
L484.315 406.62
L484.985 402.084
L485.654 388.8
L486.324 385.884
L486.994 395.604
L488.333 387.18
L489.002 372.276
L490.342 360.936
L491.011 380.7
L492.35 363.528
L493.02 375.516
L493.69 377.136
L494.359 376.488
L495.029 369.684
L495.698 378.756
L496.368 364.824
L497.038 366.12
L497.707 369.684
L498.377 367.74
L499.046 348.624
L499.716 344.412
L501.055 355.752
L501.725 354.456
L502.394 343.764
L503.064 335.664
L503.734 347.976
L504.403 342.468
L505.073 339.552
L505.742 332.424
L506.412 335.664
L507.082 324.972
L507.751 335.664
L508.421 336.636
L509.09 333.396
L509.76 337.284
L510.43 339.552
L511.099 320.76
L511.769 324.324
L512.438 329.508
L513.108 332.748
L514.447 341.496
L515.117 340.848
L515.786 336.96
L516.456 323.352
L517.126 321.732
L517.795 341.172
L518.465 332.424
L519.134 339.876
L519.804 331.128
L520.474 331.128
L521.143 320.436
L521.813 312.336
L522.482 317.52
L523.152 317.196
L523.822 323.676
L524.491 323.676
L525.161 317.844
L525.83 320.436
L526.5 320.112
L527.17 316.224
L527.839 321.408
L529.178 337.932
L529.848 322.38
L530.518 313.956
L531.187 315.576
L531.857 310.716
L532.526 317.52
L533.196 314.928
L533.866 307.152
L534.535 310.716
L535.205 308.772
L535.874 299.052
L536.544 302.94
L537.214 305.532
L537.883 306.828
L538.553 300.996
L539.222 305.532
L540.562 294.516
L541.901 300.348
L542.57 306.504
L543.24 301.968
L543.91 290.952
L544.579 299.376
L545.249 293.544
L545.918 293.22
L546.588 299.7
L547.258 291.276
L547.927 293.22
L548.597 293.544
L549.266 283.176
L549.936 290.952
L550.606 282.528
L551.275 283.5
L551.945 283.824
L552.614 291.6
L553.284 289.656
L553.954 273.456
L554.623 286.092
L555.293 283.176
L555.962 276.696
L556.632 282.528
L557.302 283.5
L557.971 279.288
L558.641 269.892
L559.31 266.976
L559.98 269.892
L560.65 261.144
L561.319 272.484
L561.989 271.512
L562.658 274.104
L563.328 276.048
L563.998 276.696
L564.667 271.512
L565.337 278.316
L566.006 276.696
L566.676 262.44
L567.346 252.072
L568.015 263.736
L568.685 268.92
L569.354 263.736
L570.024 261.792
L570.694 264.384
L571.363 273.456
L572.033 269.892
L572.702 268.92
L573.372 262.116
L574.042 257.904
L574.711 250.776
L575.381 251.748
L576.05 250.452
L576.72 251.748
L577.39 258.876
L578.729 259.524
L579.398 247.212
L580.068 242.028
L580.738 232.956
L581.407 229.716
L582.077 227.772
L582.746 233.604
L583.416 243
L584.086 235.224
L584.755 234.576
L585.425 242.028
L586.094 229.392
L586.764 242.676
L587.434 237.492
L588.103 236.844
L588.773 232.308
L589.442 233.604
L590.112 230.688
L590.782 231.984
L591.451 227.124
L592.121 231.012
L592.79 224.856
L593.46 214.164
L594.799 233.28
L595.469 221.616
L596.138 221.616
L596.808 224.532
L598.147 228.42
L598.817 225.18
L599.486 230.04
L600.156 222.912
L600.826 211.896
L601.495 218.052
L602.165 222.588
L602.834 219.996
L603.504 224.856
L604.174 223.884
L604.843 221.94
L605.513 224.856
L606.182 223.884
L606.852 209.304
L607.522 226.8
L608.191 219.348
L608.861 219.996
L609.53 213.192
L610.2 202.176
L610.87 199.26
L611.539 193.752
L612.209 196.344
L612.878 212.868
L613.548 211.248
L614.218 200.556
L614.887 205.416
L615.557 205.74
L616.226 203.148
L616.896 208.332
L617.566 212.22
L618.235 210.924
L618.905 199.908
L620.244 188.892
L620.914 179.496
L621.583 174.312
L622.253 177.552
L622.922 179.172
L623.592 173.664
L624.262 174.96
L624.931 181.116
L625.601 177.228
L626.27 178.2
L626.94 175.608
L628.279 182.412
L628.949 184.356
L629.618 177.228
L630.288 174.636
L630.958 170.424
L631.627 165.24
L632.297 173.664
L632.966 166.536
L633.636 167.184
L634.306 180.468
L634.975 173.664
L635.645 170.748
L636.314 171.396
L636.984 165.564
L637.654 168.156
L638.323 171.72
L638.993 170.1
L639.662 165.888
L640.332 171.396
L641.002 171.396
L641.671 166.536
L642.341 172.692
L643.01 172.044
L643.68 173.988
L644.35 176.904
L645.019 174.312
L645.689 174.636
L646.358 167.508
L647.028 166.86
L647.698 168.156
L648.367 173.988
L649.037 171.72
L649.706 172.368
L650.376 177.228
L651.046 175.284
L652.385 158.76
L653.054 158.436
L653.724 162.324
L654.394 155.196
L655.063 149.364
L655.733 149.364
L657.072 156.816
L657.742 156.816
L658.411 145.8
L659.081 150.984
L659.75 150.984
L660.42 142.56
L661.09 144.18
L661.759 145.152
L662.429 143.208
L663.098 137.7
L663.768 144.504
L664.438 141.264
L665.107 135.756
L665.777 135.432
L666.446 127.98
L667.116 131.544
L667.786 128.304
L668.455 119.88
L669.125 119.232
L669.794 123.768
L670.464 123.768
L671.134 134.136
L671.803 130.572
L672.473 137.052
L673.142 132.516
L673.812 137.7
L674.482 141.912
L675.151 137.052
L676.49 132.192
L677.16 133.164
L677.83 132.192
L678.499 133.812
L679.169 138.348
L679.838 131.544
L680.508 136.404
L681.178 134.784
L681.847 140.292
L682.517 140.292
L683.186 136.08
L683.856 134.136
L684.526 134.136
L685.195 136.728
L685.865 133.164
L686.534 130.248
L687.204 129.924
L687.874 131.22
L688.543 134.136
L689.213 130.896
L689.882 129.6
L690.552 132.192
L691.222 135.432
L691.891 130.896
L693.23 136.08
L693.9 135.756
L694.57 133.164
L695.239 134.784
L695.909 140.616
L696.578 147.744
L697.248 145.476
L697.918 150.336
L698.587 148.392
L699.257 150.984
L699.926 151.956
L700.596 148.392
L701.266 148.716
L701.935 148.716
L702.605 148.068
L703.274 142.884
L703.944 138.672
L704.614 139.644
L705.283 137.7
L705.953 139.644
L706.622 140.292
L707.962 148.716
L708.631 147.096
L709.301 146.448
L709.97 139.968
L710.64 147.096
L711.31 155.844
L711.979 156.492
L712.649 155.52
L713.318 160.056
L713.988 158.76
L714.658 161.352
L715.327 161.352
L715.997 163.296
L716.666 169.776
L717.336 169.776
L718.006 171.72
L718.675 174.312
L719.345 174.312
L720.014 176.904
L720.684 180.144
L721.354 182.736
L722.023 182.412
L722.693 181.44
L723.362 186.624
L724.032 187.596
L724.702 184.032
L725.371 185.328
L726.041 186.3
L727.38 189.864
L728.05 190.188
L728.719 188.892
L729.389 193.752
L730.058 194.076
L730.728 193.104
L731.398 191.808
L732.067 190.188
L732.737 184.356
L733.406 184.68
L734.076 183.708
L734.746 188.892
L735.415 190.188
L736.754 194.724
L737.424 189.216
L738.094 192.456
L738.763 192.78
L739.433 191.484
L740.102 188.892
L741.442 197.964
L742.111 200.232
L742.781 196.992
L743.45 198.612
L744.12 201.204
L744.79 201.852
L746.129 211.896
L746.798 220.644
L747.468 220.32
L748.138 223.884
L748.807 228.42
L749.477 229.068
L750.146 230.04
L750.816 232.956
L751.486 236.52
L752.155 236.844
L752.825 238.14
L753.494 239.76
L754.164 245.268
L754.834 247.536
L755.503 245.268
L756.173 248.832
L756.842 249.804
L757.512 251.748
L758.182 252.072
L758.851 251.424
L759.521 254.016
L760.19 255.636
L760.86 258.552
L761.53 259.524
L762.199 257.904
L762.869 260.496
L763.538 264.06
L764.208 266.004
L764.878 269.244
L765.547 267.3
L766.217 270.216
L766.886 274.428
L767.556 276.048
L768.226 280.26
L768.895 278.964
L769.565 279.288
L770.234 278.64
L770.904 277.668
L771.574 280.26
L772.243 276.048
L772.913 278.964
L773.582 279.936
L774.252 285.768
L774.922 289.008
L776.261 289.008
L776.93 289.98
L777.6 290.628
L777.6 290.628" style="fill:none;stroke:#ff0000;stroke-linecap:square;"/>
   </g>
   <g id="line2d_2">
    <path clip-path="url(#p7ceb695115)" d="
M108 583.2
L777.6 583.2
L777.6 583.2" style="fill:none;stroke:#008000;stroke-linecap:square;"/>
   </g>
   <g id="line2d_3">
    <path clip-path="url(#p7ceb695115)" d="
M108 583.2
L108.67 583.2
L109.339 583.2
L111.348 582.228
L112.018 581.58
L112.687 580.608
L113.357 580.608
L114.026 580.284
L114.696 578.988
L115.366 578.016
L116.035 577.368
L116.705 575.1
L117.374 573.804
L118.044 573.48
L118.714 572.508
L119.383 572.508
L120.053 572.184
L120.722 570.24
L121.392 569.268
L122.062 567.324
L122.731 566.028
L123.401 565.38
L124.07 561.492
L124.74 560.52
L126.079 556.956
L126.749 555.984
L127.418 554.04
L128.088 553.392
L128.758 553.068
L131.436 545.292
L132.106 544.968
L132.775 543.024
L133.445 539.784
L134.114 538.812
L134.784 537.516
L135.454 537.192
L136.123 534.924
L137.462 533.628
L138.132 533.628
L138.802 532.656
L139.471 533.304
L140.141 533.304
L140.81 530.712
L141.48 531.36
L142.15 530.388
L142.819 529.092
L143.489 529.092
L144.158 527.472
L144.828 527.796
L145.498 526.824
L146.167 526.824
L146.837 525.204
L147.506 524.556
L148.176 522.936
L148.846 521.64
L149.515 520.992
L150.185 520.668
L150.854 519.048
L151.524 520.02
L152.194 520.02
L152.863 520.344
L153.533 519.048
L154.202 518.4
L154.872 518.724
L155.542 517.428
L157.55 519.372
L158.22 518.724
L158.89 519.696
L159.559 518.724
L160.229 519.372
L160.898 518.4
L161.568 516.78
L162.238 516.456
L163.577 513.864
L164.246 514.188
L164.916 513.216
L165.586 513.54
L166.255 512.568
L166.925 512.892
L167.594 512.892
L168.264 513.216
L168.934 513.216
L169.603 514.188
L170.273 512.892
L170.942 513.54
L171.612 512.892
L172.282 512.568
L172.951 512.568
L173.621 511.92
L174.29 511.596
L174.96 509.976
L175.63 509.652
L176.299 509.976
L176.969 509.652
L177.638 508.356
L178.308 508.356
L178.978 506.412
L179.647 506.412
L180.317 507.06
L180.986 508.356
L181.656 508.032
L182.326 510.3
L182.995 511.272
L183.665 509.004
L184.334 509.652
L185.004 509.652
L185.674 509.328
L186.343 509.328
L187.013 510.624
L189.022 511.596
L189.691 511.272
L190.361 511.92
L191.03 512.244
L191.7 513.216
L192.37 511.596
L193.039 511.272
L193.709 511.596
L194.378 512.892
L195.048 511.596
L195.718 511.92
L196.387 513.216
L197.057 514.188
L197.726 514.188
L198.396 514.512
L199.066 513.54
L199.735 516.78
L201.074 515.484
L202.414 518.076
L203.083 517.428
L204.422 517.428
L205.092 516.78
L205.762 516.456
L206.431 515.484
L207.101 513.864
L207.77 514.188
L208.44 515.808
L209.11 515.808
L209.779 517.428
L210.449 518.076
L211.118 519.696
L211.788 520.02
L213.127 518.724
L213.797 519.048
L214.466 518.076
L215.136 517.752
L215.806 516.78
L216.475 518.076
L217.145 518.076
L217.814 518.4
L219.154 517.752
L219.823 518.4
L220.493 519.696
L221.162 519.696
L221.832 518.724
L222.502 520.992
L223.171 522.288
L223.841 523.26
L224.51 522.936
L225.18 523.584
L225.85 522.612
L226.519 523.584
L227.858 524.88
L228.528 523.908
L229.198 523.26
L229.867 521.964
L230.537 524.556
L231.206 524.88
L231.876 523.908
L232.546 524.88
L233.215 526.824
L233.885 527.148
L235.894 527.148
L236.563 527.796
L237.233 528.768
L237.902 527.796
L238.572 528.12
L239.242 527.472
L239.911 529.092
L241.25 529.74
L241.92 528.768
L242.59 528.12
L243.259 528.12
L243.929 529.74
L244.598 530.712
L245.268 530.712
L245.938 531.36
L247.277 531.36
L248.616 530.712
L249.286 532.008
L249.955 532.332
L250.625 533.304
L251.294 534.924
L251.964 535.572
L252.634 533.952
L253.303 535.572
L253.973 535.896
L254.642 535.572
L255.312 536.868
L255.982 537.192
L256.651 536.544
L257.321 538.164
L257.99 538.164
L258.66 538.488
L259.33 539.784
L259.999 541.404
L260.669 540.108
L261.338 539.136
L262.008 538.812
L262.678 538.164
L263.347 539.136
L264.017 538.164
L264.686 538.488
L265.356 539.46
L266.026 540.108
L266.695 540.108
L267.365 541.08
L268.034 541.08
L268.704 542.376
L269.374 542.376
L270.043 541.728
L270.713 541.404
L271.382 541.728
L272.052 541.08
L272.722 541.404
L273.391 540.432
L274.061 540.432
L274.73 541.728
L275.4 541.404
L276.07 540.756
L276.739 542.052
L277.409 541.728
L278.078 541.08
L278.748 542.052
L279.418 542.7
L280.087 543.024
L280.757 542.7
L281.426 543.672
L282.096 544.32
L282.766 545.292
L283.435 545.616
L284.105 546.588
L284.774 546.588
L285.444 546.912
L286.114 546.912
L286.783 547.236
L287.453 547.884
L288.122 547.56
L288.792 546.912
L289.462 546.912
L290.131 546.264
L290.801 546.264
L291.47 545.616
L292.14 545.94
L294.149 543.996
L295.488 543.996
L296.158 541.728
L296.827 542.376
L297.497 541.728
L298.166 541.728
L299.506 543.672
L300.175 543.348
L300.845 542.376
L302.184 542.376
L302.854 543.024
L304.193 542.376
L304.862 542.376
L305.532 541.404
L306.202 542.052
L306.871 541.728
L307.541 541.728
L308.21 542.376
L308.88 542.052
L309.55 543.348
L310.219 543.024
L310.889 542.376
L311.558 543.024
L312.898 544.968
L314.237 545.616
L314.906 545.616
L315.576 546.264
L316.246 545.94
L316.915 544.968
L317.585 544.644
L318.254 545.616
L318.924 545.616
L319.594 546.912
L320.263 547.56
L320.933 546.912
L321.602 546.912
L322.272 546.264
L322.942 546.264
L323.611 545.616
L324.281 545.94
L325.62 547.236
L326.29 547.56
L328.968 550.152
L329.638 549.828
L330.307 550.152
L330.977 550.8
L331.646 551.772
L332.986 552.42
L334.325 552.42
L334.994 552.096
L335.664 553.716
L336.334 554.688
L337.003 555.984
L337.673 556.956
L338.342 556.308
L339.012 556.956
L339.682 556.956
L340.351 557.604
L341.021 557.604
L341.69 558.576
L343.03 559.872
L343.699 559.548
L345.708 559.548
L346.378 559.872
L348.386 561.816
L351.734 563.436
L353.074 563.436
L353.743 563.112
L354.413 563.76
L355.082 564.084
L355.752 564.084
L356.422 564.732
L357.091 564.408
L357.761 565.056
L358.43 565.38
L359.1 566.352
L359.77 566.352
L360.439 567.648
L362.448 568.62
L363.118 568.296
L363.787 568.62
L364.457 568.296
L365.126 568.296
L365.796 568.62
L367.135 568.62
L367.805 569.268
L369.814 569.268
L370.483 568.944
L371.153 569.592
L372.492 569.592
L373.162 569.916
L373.831 569.916
L374.501 570.24
L375.17 570.24
L375.84 570.564
L377.179 570.564
L378.518 571.212
L381.197 571.212
L381.866 571.536
L382.536 571.536
L383.875 572.832
L384.545 572.832
L385.214 573.48
L385.884 573.804
L386.554 573.804
L387.223 573.48
L387.893 573.48
L388.562 573.156
L389.232 573.156
L389.902 573.804
L391.241 573.804
L391.91 573.48
L393.25 573.48
L393.919 574.128
L394.589 574.128
L395.928 574.776
L397.267 574.776
L398.606 575.424
L399.276 575.1
L402.624 575.1
L403.294 575.424
L403.963 576.072
L404.633 576.072
L405.302 576.396
L405.972 576.396
L407.311 577.044
L407.981 577.044
L408.65 577.368
L409.32 577.368
L409.99 577.044
L410.659 578.016
L411.329 577.692
L411.998 577.692
L412.668 578.016
L414.677 578.016
L415.346 577.692
L416.016 577.692
L416.686 577.368
L417.355 577.368
L418.025 577.692
L420.034 577.692
L421.373 577.044
L423.382 577.044
L424.051 576.72
L424.721 577.044
L426.73 577.044
L427.399 577.368
L428.069 577.368
L428.738 577.044
L430.078 577.044
L430.747 577.368
L431.417 577.368
L432.086 578.016
L432.756 578.016
L433.426 577.692
L436.104 577.692
L436.774 578.34
L437.443 578.016
L438.113 578.016
L438.782 577.692
L439.452 577.692
L440.122 578.016
L441.461 578.016
L442.13 577.692
L442.8 576.72
L443.47 576.72
L444.139 576.396
L444.809 567.972
L445.478 552.744
L446.148 530.064
L448.157 419.58
L448.826 379.404
L450.835 296.46
L451.505 290.952
L452.174 264.06
L452.844 262.44
L453.514 264.06
L454.183 278.964
L454.853 284.148
L455.522 287.388
L456.192 308.772
L456.862 320.112
L457.531 336.96
L458.201 360.936
L458.87 357.372
L459.54 368.712
L460.21 375.84
L460.879 385.56
L461.549 389.124
L462.218 395.604
L462.888 406.62
L463.558 421.848
L464.227 416.664
L464.897 426.06
L465.566 421.2
L466.236 427.356
L466.906 429.948
L467.575 428.976
L468.245 428.976
L468.914 418.608
L469.584 417.312
L470.254 428.652
L470.923 436.752
L471.593 436.104
L472.262 436.428
L473.602 415.044
L474.271 409.86
L474.941 411.48
L475.61 411.804
L476.28 421.2
L476.95 421.848
L477.619 428.652
L478.289 422.496
L478.958 422.82
L479.628 414.072
L480.298 420.552
L480.967 418.284
L481.637 413.1
L482.306 411.804
L482.976 414.396
L483.646 408.564
L484.315 405.648
L484.985 405.972
L485.654 403.056
L486.324 401.76
L486.994 393.984
L488.333 382.32
L489.002 379.08
L489.672 375.192
L490.342 386.532
L491.011 391.392
L491.681 383.616
L492.35 366.444
L493.02 361.584
L493.69 371.628
L494.359 364.176
L495.029 375.516
L495.698 367.74
L496.368 368.388
L497.038 369.684
L497.707 356.4
L498.377 351.864
L499.046 361.584
L499.716 365.472
L500.386 362.88
L501.055 357.048
L501.725 347.004
L502.394 352.512
L503.064 351.216
L503.734 347.004
L505.073 331.452
L505.742 330.804
L506.412 331.128
L507.082 334.044
L507.751 325.296
L508.421 325.296
L509.09 330.48
L509.76 323.028
L510.43 320.76
L511.769 336.636
L512.438 335.016
L513.108 334.692
L513.778 333.72
L514.447 319.464
L515.117 314.28
L515.786 322.38
L516.456 327.24
L517.126 323.028
L518.465 328.536
L519.134 333.396
L519.804 328.212
L520.474 327.24
L521.143 325.296
L521.813 319.464
L522.482 325.296
L523.152 316.224
L523.822 314.928
L524.491 321.732
L525.161 320.76
L525.83 300.996
L526.5 306.18
L527.17 314.928
L527.839 320.436
L528.509 310.392
L529.178 304.884
L529.848 311.364
L530.518 302.94
L531.187 306.828
L531.857 300.996
L532.526 308.772
L533.196 314.28
L533.866 310.068
L534.535 301.644
L535.205 299.376
L535.874 290.628
L536.544 302.616
L537.214 294.192
L537.883 289.656
L538.553 291.6
L539.222 286.416
L539.892 285.444
L540.562 291.276
L541.231 292.572
L541.901 298.404
L542.57 291.924
L543.24 294.516
L543.91 294.84
L544.579 286.416
L545.249 290.628
L545.918 276.696
L546.588 272.484
L547.258 288.36
L547.927 288.036
L548.597 286.416
L549.266 291.924
L549.936 294.516
L550.606 299.7
L551.275 284.472
L551.945 274.428
L552.614 273.456
L553.284 285.12
L553.954 273.456
L554.623 283.176
L555.293 290.952
L555.962 282.528
L556.632 271.188
L557.302 276.696
L557.971 279.612
L558.641 277.992
L559.31 283.5
L559.98 294.516
L560.65 284.472
L561.319 282.528
L561.989 285.768
L562.658 279.288
L563.328 277.992
L563.998 275.724
L564.667 271.836
L565.337 264.384
L566.006 269.244
L566.676 264.06
L567.346 263.088
L568.015 268.596
L568.685 276.048
L569.354 286.092
L570.024 272.16
L570.694 268.596
L571.363 259.524
L572.033 257.256
L572.702 261.144
L573.372 254.34
L574.042 262.764
L574.711 260.172
L575.381 264.708
L576.72 262.116
L577.39 248.508
L578.059 241.704
L579.398 254.664
L580.068 255.312
L580.738 258.876
L581.407 247.86
L582.077 243.648
L582.746 249.156
L583.416 244.62
L584.086 243.648
L584.755 240.084
L585.425 241.38
L586.764 231.336
L587.434 227.448
L588.103 228.42
L588.773 233.604
L589.442 243.324
L590.112 235.224
L590.782 235.872
L591.451 235.872
L592.121 230.04
L592.79 228.744
L593.46 231.012
L594.13 224.532
L594.799 226.152
L595.469 209.952
L596.138 221.616
L596.808 224.532
L597.478 226.476
L598.147 218.052
L598.817 215.46
L599.486 219.996
L600.156 222.588
L600.826 215.136
L601.495 212.868
L602.165 204.444
L602.834 209.628
L603.504 216.108
L604.174 213.84
L604.843 214.812
L605.513 208.656
L606.182 214.164
L606.852 217.728
L607.522 222.588
L608.191 209.628
L608.861 204.12
L609.53 203.796
L610.2 198.612
L610.87 197.964
L611.539 214.164
L612.209 214.812
L612.878 208.98
L613.548 196.02
L614.218 188.244
L614.887 190.836
L615.557 196.992
L616.226 182.088
L616.896 178.2
L617.566 181.116
L618.235 187.272
L618.905 188.244
L619.574 192.132
L620.244 189.864
L620.914 191.484
L621.583 188.892
L622.253 189.54
L623.592 193.104
L624.262 197.64
L624.931 200.232
L625.601 188.244
L626.27 181.764
L626.94 184.356
L627.61 177.552
L628.279 177.552
L628.949 179.82
L629.618 180.792
L630.288 189.216
L630.958 187.92
L631.627 187.596
L632.297 183.384
L632.966 177.228
L633.636 175.284
L634.306 169.776
L634.975 171.396
L635.645 164.268
L636.314 165.564
L636.984 168.156
L637.654 175.608
L638.323 175.932
L638.993 162
L640.332 173.664
L641.002 176.256
L641.671 174.636
L642.341 173.988
L643.01 170.748
L643.68 171.396
L644.35 160.704
L645.019 162.972
L645.689 169.128
L646.358 165.564
L647.028 170.748
L647.698 167.832
L648.367 159.408
L649.037 157.14
L649.706 156.816
L650.376 155.844
L651.046 153.252
L651.715 154.548
L652.385 160.056
L653.054 155.196
L653.724 156.168
L654.394 146.772
L655.063 149.364
L655.733 146.772
L656.402 143.532
L657.072 144.18
L657.742 142.236
L658.411 149.04
L659.081 137.052
L659.75 137.052
L660.42 142.56
L661.759 146.448
L663.098 135.756
L663.768 142.56
L664.438 152.28
L665.107 153.576
L665.777 153.252
L666.446 150.984
L667.116 147.42
L667.786 149.688
L668.455 145.8
L669.125 147.096
L669.794 140.94
L670.464 141.264
L671.134 140.94
L671.803 143.208
L672.473 140.292
L673.142 141.588
L673.812 140.616
L675.151 139.968
L675.821 147.096
L676.49 141.588
L677.16 145.152
L677.83 142.884
L678.499 146.124
L679.169 136.08
L679.838 133.164
L680.508 131.868
L681.178 138.348
L681.847 139.968
L682.517 138.996
L683.186 143.208
L683.856 141.588
L684.526 130.572
L685.195 133.164
L685.865 141.588
L686.534 140.94
L687.204 140.616
L687.874 145.476
L688.543 146.124
L689.213 146.448
L689.882 148.068
L690.552 150.66
L691.222 145.476
L691.891 141.588
L692.561 144.504
L693.9 152.928
L694.57 151.956
L695.239 151.308
L695.909 147.42
L696.578 144.504
L697.248 150.336
L697.918 146.448
L698.587 146.772
L699.257 148.392
L699.926 150.336
L700.596 148.392
L701.266 149.688
L701.935 149.04
L702.605 152.604
L703.274 157.464
L703.944 163.62
L705.283 156.168
L705.953 157.14
L706.622 157.788
L707.292 153.252
L707.962 159.732
L708.631 159.732
L709.301 158.436
L709.97 158.112
L710.64 162.648
L711.31 165.564
L711.979 169.452
L712.649 164.916
L713.318 163.296
L713.988 161.028
L714.658 165.24
L715.327 168.156
L715.997 164.592
L716.666 170.1
L718.006 175.932
L718.675 176.904
L719.345 176.904
L720.014 174.96
L720.684 174.96
L721.354 182.736
L722.023 180.792
L722.693 183.708
L723.362 183.384
L724.032 184.68
L724.702 181.44
L725.371 182.412
L726.041 186.3
L726.71 185.976
L727.38 189.864
L728.05 190.188
L728.719 189.216
L729.389 189.216
L730.058 189.864
L730.728 188.568
L731.398 185.328
L732.067 188.892
L732.737 189.864
L733.406 191.484
L734.076 195.048
L734.746 196.02
L735.415 195.696
L736.085 199.908
L736.754 199.584
L737.424 202.5
L738.094 200.88
L738.763 205.74
L739.433 205.416
L740.102 203.472
L740.772 208.98
L742.781 220.968
L743.45 219.672
L744.12 229.068
L744.79 232.956
L745.459 232.956
L746.129 232.308
L746.798 230.364
L747.468 226.8
L748.138 227.124
L748.807 231.984
L749.477 233.928
L750.146 239.112
L750.816 237.492
L751.486 238.14
L752.155 242.352
L752.825 243
L753.494 237.168
L754.164 235.872
L754.834 233.928
L755.503 238.14
L756.173 240.732
L756.842 242.028
L757.512 245.916
L758.182 247.212
L758.851 252.396
L759.521 251.748
L760.19 255.312
L760.86 253.368
L761.53 248.508
L762.199 254.34
L762.869 255.636
L763.538 251.424
L764.208 252.72
L765.547 257.58
L766.217 261.792
L766.886 260.496
L767.556 265.68
L768.226 259.524
L769.565 269.568
L770.234 270.216
L770.904 271.512
L771.574 273.456
L772.243 276.696
L773.582 277.344
L774.252 278.64
L774.922 280.26
L775.591 286.74
L776.261 287.064
L776.93 296.136
L777.6 299.376
L777.6 299.376" style="fill:none;stroke:#0000ff;stroke-linecap:square;"/>
   </g>
   <g id="patch_3">
    <path d="
M108 64.8
L777.6 64.8" style="fill:none;stroke:#000000;stroke-linecap:square;stroke-linejoin:miter;"/>
   </g>
   <g id="patch_4">
    <path d="
M108 583.2
L777.6 583.2" style="fill:none;stroke:#000000;stroke-linecap:square;stroke-linejoin:miter;"/>
   </g>
   <g id="patch_5">
    <path d="
M108 583.2
L108 64.8" style="fill:none;stroke:#000000;stroke-linecap:square;stroke-linejoin:miter;"/>
   </g>
   <g id="patch_6">
    <path d="
M777.6 583.2
L777.6 64.8" style="fill:none;stroke:#000000;stroke-linecap:square;stroke-linejoin:miter;"/>
   </g>
   <g id="matplotlib.axis_1">
    <g id="xtick_1">
     <g id="line2d_4">
      <defs>
       <path d="
M0 0
L0 -4" id="mc7db9fdffb" style="stroke:#000000;stroke-width:0.5;"/>
      </defs>
      <g>
       <use style="stroke:#000000;stroke-width:0.5;" x="108.0" xlink:href="#mc7db9fdffb" y="583.2"/>
      </g>
     </g>
     <g id="line2d_5">
      <defs>
       <path d="
M0 0
L0 4" id="m5a7d422ac3" style="stroke:#000000;stroke-width:0.5;"/>
      </defs>
      <g>
       <use style="stroke:#000000;stroke-width:0.5;" x="108.0" xlink:href="#m5a7d422ac3" y="64.8"/>
      </g>
     </g>
     <g id="text_1">
      <!-- 0 -->
      <defs>
       <path d="
M31.7812 66.4062
Q24.1719 66.4062 20.3281 58.9062
Q16.5 51.4219 16.5 36.375
Q16.5 21.3906 20.3281 13.8906
Q24.1719 6.39062 31.7812 6.39062
Q39.4531 6.39062 43.2812 13.8906
Q47.125 21.3906 47.125 36.375
Q47.125 51.4219 43.2812 58.9062
Q39.4531 66.4062 31.7812 66.4062
M31.7812 74.2188
Q44.0469 74.2188 50.5156 64.5156
Q56.9844 54.8281 56.9844 36.375
Q56.9844 17.9688 50.5156 8.26562
Q44.0469 -1.42188 31.7812 -1.42188
Q19.5312 -1.42188 13.0625 8.26562
Q6.59375 17.9688 6.59375 36.375
Q6.59375 54.8281 13.0625 64.5156
Q19.5312 74.2188 31.7812 74.2188" id="BitstreamVeraSans-Roman-30"/>
      </defs>
      <g transform="translate(104.9765625 596.318125)scale(0.12 -0.12)">
       <use xlink:href="#BitstreamVeraSans-Roman-30"/>
      </g>
     </g>
    </g>
    <g id="xtick_2">
     <g id="line2d_6">
      <g>
       <use style="stroke:#000000;stroke-width:0.5;" x="275.4" xlink:href="#mc7db9fdffb" y="583.2"/>
      </g>
     </g>
     <g id="line2d_7">
      <g>
       <use style="stroke:#000000;stroke-width:0.5;" x="275.4" xlink:href="#m5a7d422ac3" y="64.8"/>
      </g>
     </g>
     <g id="text_2">
      <!-- 50000 -->
      <defs>
       <path d="
M10.7969 72.9062
L49.5156 72.9062
L49.5156 64.5938
L19.8281 64.5938
L19.8281 46.7344
Q21.9688 47.4688 24.1094 47.8281
Q26.2656 48.1875 28.4219 48.1875
Q40.625 48.1875 47.75 41.5
Q54.8906 34.8125 54.8906 23.3906
Q54.8906 11.625 47.5625 5.09375
Q40.2344 -1.42188 26.9062 -1.42188
Q22.3125 -1.42188 17.5469 -0.640625
Q12.7969 0.140625 7.71875 1.70312
L7.71875 11.625
Q12.1094 9.23438 16.7969 8.0625
Q21.4844 6.89062 26.7031 6.89062
Q35.1562 6.89062 40.0781 11.3281
Q45.0156 15.7656 45.0156 23.3906
Q45.0156 31 40.0781 35.4375
Q35.1562 39.8906 26.7031 39.8906
Q22.75 39.8906 18.8125 39.0156
Q14.8906 38.1406 10.7969 36.2812
z
" id="BitstreamVeraSans-Roman-35"/>
      </defs>
      <g transform="translate(257.1740625 596.318125)scale(0.12 -0.12)">
       <use xlink:href="#BitstreamVeraSans-Roman-35"/>
       <use x="63.623046875" xlink:href="#BitstreamVeraSans-Roman-30"/>
       <use x="127.24609375" xlink:href="#BitstreamVeraSans-Roman-30"/>
       <use x="190.869140625" xlink:href="#BitstreamVeraSans-Roman-30"/>
       <use x="254.4921875" xlink:href="#BitstreamVeraSans-Roman-30"/>
      </g>
     </g>
    </g>
    <g id="xtick_3">
     <g id="line2d_8">
      <g>
       <use style="stroke:#000000;stroke-width:0.5;" x="442.8" xlink:href="#mc7db9fdffb" y="583.2"/>
      </g>
     </g>
     <g id="line2d_9">
      <g>
       <use style="stroke:#000000;stroke-width:0.5;" x="442.8" xlink:href="#m5a7d422ac3" y="64.8"/>
      </g>
     </g>
     <g id="text_3">
      <!-- 100000 -->
      <defs>
       <path d="
M12.4062 8.29688
L28.5156 8.29688
L28.5156 63.9219
L10.9844 60.4062
L10.9844 69.3906
L28.4219 72.9062
L38.2812 72.9062
L38.2812 8.29688
L54.3906 8.29688
L54.3906 0
L12.4062 0
z
" id="BitstreamVeraSans-Roman-31"/>
      </defs>
      <g transform="translate(420.9525 596.318125)scale(0.12 -0.12)">
       <use xlink:href="#BitstreamVeraSans-Roman-31"/>
       <use x="63.623046875" xlink:href="#BitstreamVeraSans-Roman-30"/>
       <use x="127.24609375" xlink:href="#BitstreamVeraSans-Roman-30"/>
       <use x="190.869140625" xlink:href="#BitstreamVeraSans-Roman-30"/>
       <use x="254.4921875" xlink:href="#BitstreamVeraSans-Roman-30"/>
       <use x="318.115234375" xlink:href="#BitstreamVeraSans-Roman-30"/>
      </g>
     </g>
    </g>
    <g id="xtick_4">
     <g id="line2d_10">
      <g>
       <use style="stroke:#000000;stroke-width:0.5;" x="610.2" xlink:href="#mc7db9fdffb" y="583.2"/>
      </g>
     </g>
     <g id="line2d_11">
      <g>
       <use style="stroke:#000000;stroke-width:0.5;" x="610.2" xlink:href="#m5a7d422ac3" y="64.8"/>
      </g>
     </g>
     <g id="text_4">
      <!-- 150000 -->
      <g transform="translate(588.3525 596.318125)scale(0.12 -0.12)">
       <use xlink:href="#BitstreamVeraSans-Roman-31"/>
       <use x="63.623046875" xlink:href="#BitstreamVeraSans-Roman-35"/>
       <use x="127.24609375" xlink:href="#BitstreamVeraSans-Roman-30"/>
       <use x="190.869140625" xlink:href="#BitstreamVeraSans-Roman-30"/>
       <use x="254.4921875" xlink:href="#BitstreamVeraSans-Roman-30"/>
       <use x="318.115234375" xlink:href="#BitstreamVeraSans-Roman-30"/>
      </g>
     </g>
    </g>
    <g id="xtick_5">
     <g id="line2d_12">
      <g>
       <use style="stroke:#000000;stroke-width:0.5;" x="777.6" xlink:href="#mc7db9fdffb" y="583.2"/>
      </g>
     </g>
     <g id="line2d_13">
      <g>
       <use style="stroke:#000000;stroke-width:0.5;" x="777.6" xlink:href="#m5a7d422ac3" y="64.8"/>
      </g>
     </g>
     <g id="text_5">
      <!-- 200000 -->
      <defs>
       <path d="
M19.1875 8.29688
L53.6094 8.29688
L53.6094 0
L7.32812 0
L7.32812 8.29688
Q12.9375 14.1094 22.625 23.8906
Q32.3281 33.6875 34.8125 36.5312
Q39.5469 41.8438 41.4219 45.5312
Q43.3125 49.2188 43.3125 52.7812
Q43.3125 58.5938 39.2344 62.25
Q35.1562 65.9219 28.6094 65.9219
Q23.9688 65.9219 18.8125 64.3125
Q13.6719 62.7031 7.8125 59.4219
L7.8125 69.3906
Q13.7656 71.7812 18.9375 73
Q24.125 74.2188 28.4219 74.2188
Q39.75 74.2188 46.4844 68.5469
Q53.2188 62.8906 53.2188 53.4219
Q53.2188 48.9219 51.5312 44.8906
Q49.8594 40.875 45.4062 35.4062
Q44.1875 33.9844 37.6406 27.2188
Q31.1094 20.4531 19.1875 8.29688" id="BitstreamVeraSans-Roman-32"/>
      </defs>
      <g transform="translate(755.533125 596.318125)scale(0.12 -0.12)">
       <use xlink:href="#BitstreamVeraSans-Roman-32"/>
       <use x="63.623046875" xlink:href="#BitstreamVeraSans-Roman-30"/>
       <use x="127.24609375" xlink:href="#BitstreamVeraSans-Roman-30"/>
       <use x="190.869140625" xlink:href="#BitstreamVeraSans-Roman-30"/>
       <use x="254.4921875" xlink:href="#BitstreamVeraSans-Roman-30"/>
       <use x="318.115234375" xlink:href="#BitstreamVeraSans-Roman-30"/>
      </g>
     </g>
    </g>
    <g id="text_6">
     <!-- t / ms -->
     <defs>
      <path d="
M25.3906 72.9062
L33.6875 72.9062
L8.29688 -9.28125
L0 -9.28125
z
" id="BitstreamVeraSans-Roman-2f"/>
      <path d="
M52 44.1875
Q55.375 50.25 60.0625 53.125
Q64.75 56 71.0938 56
Q79.6406 56 84.2812 50.0156
Q88.9219 44.0469 88.9219 33.0156
L88.9219 0
L79.8906 0
L79.8906 32.7188
Q79.8906 40.5781 77.0938 44.375
Q74.3125 48.1875 68.6094 48.1875
Q61.625 48.1875 57.5625 43.5469
Q53.5156 38.9219 53.5156 30.9062
L53.5156 0
L44.4844 0
L44.4844 32.7188
Q44.4844 40.625 41.7031 44.4062
Q38.9219 48.1875 33.1094 48.1875
Q26.2188 48.1875 22.1562 43.5312
Q18.1094 38.875 18.1094 30.9062
L18.1094 0
L9.07812 0
L9.07812 54.6875
L18.1094 54.6875
L18.1094 46.1875
Q21.1875 51.2188 25.4844 53.6094
Q29.7812 56 35.6875 56
Q41.6562 56 45.8281 52.9688
Q50 49.9531 52 44.1875" id="BitstreamVeraSans-Roman-6d"/>
      <path d="
M44.2812 53.0781
L44.2812 44.5781
Q40.4844 46.5312 36.375 47.5
Q32.2812 48.4844 27.875 48.4844
Q21.1875 48.4844 17.8438 46.4375
Q14.5 44.3906 14.5 40.2812
Q14.5 37.1562 16.8906 35.375
Q19.2812 33.5938 26.5156 31.9844
L29.5938 31.2969
Q39.1562 29.25 43.1875 25.5156
Q47.2188 21.7812 47.2188 15.0938
Q47.2188 7.46875 41.1875 3.01562
Q35.1562 -1.42188 24.6094 -1.42188
Q20.2188 -1.42188 15.4531 -0.5625
Q10.6875 0.296875 5.42188 2
L5.42188 11.2812
Q10.4062 8.6875 15.2344 7.39062
Q20.0625 6.10938 24.8125 6.10938
Q31.1562 6.10938 34.5625 8.28125
Q37.9844 10.4531 37.9844 14.4062
Q37.9844 18.0625 35.5156 20.0156
Q33.0625 21.9688 24.7031 23.7812
L21.5781 24.5156
Q13.2344 26.2656 9.51562 29.9062
Q5.8125 33.5469 5.8125 39.8906
Q5.8125 47.6094 11.2812 51.7969
Q16.75 56 26.8125 56
Q31.7812 56 36.1719 55.2656
Q40.5781 54.5469 44.2812 53.0781" id="BitstreamVeraSans-Roman-73"/>
      <path id="BitstreamVeraSans-Roman-20"/>
      <path d="
M18.3125 70.2188
L18.3125 54.6875
L36.8125 54.6875
L36.8125 47.7031
L18.3125 47.7031
L18.3125 18.0156
Q18.3125 11.3281 20.1406 9.42188
Q21.9688 7.51562 27.5938 7.51562
L36.8125 7.51562
L36.8125 0
L27.5938 0
Q17.1875 0 13.2344 3.875
Q9.28125 7.76562 9.28125 18.0156
L9.28125 47.7031
L2.6875 47.7031
L2.6875 54.6875
L9.28125 54.6875
L9.28125 70.2188
z
" id="BitstreamVeraSans-Roman-74"/>
     </defs>
     <g transform="translate(425.9353125 612.931875)scale(0.12 -0.12)">
      <use xlink:href="#BitstreamVeraSans-Roman-74"/>
      <use x="39.208984375" xlink:href="#BitstreamVeraSans-Roman-20"/>
      <use x="70.99609375" xlink:href="#BitstreamVeraSans-Roman-2f"/>
      <use x="104.6875" xlink:href="#BitstreamVeraSans-Roman-20"/>
      <use x="136.474609375" xlink:href="#BitstreamVeraSans-Roman-6d"/>
      <use x="233.88671875" xlink:href="#BitstreamVeraSans-Roman-73"/>
     </g>
    </g>
   </g>
   <g id="matplotlib.axis_2">
    <g id="ytick_1">
     <g id="line2d_14">
      <defs>
       <path d="
M0 0
L4 0" id="md7965d1ba0" style="stroke:#000000;stroke-width:0.5;"/>
      </defs>
      <g>
       <use style="stroke:#000000;stroke-width:0.5;" x="108.0" xlink:href="#md7965d1ba0" y="583.2"/>
      </g>
     </g>
     <g id="line2d_15">
      <defs>
       <path d="
M0 0
L-4 0" id="md9a1c1a7cd" style="stroke:#000000;stroke-width:0.5;"/>
      </defs>
      <g>
       <use style="stroke:#000000;stroke-width:0.5;" x="777.6" xlink:href="#md9a1c1a7cd" y="583.2"/>
      </g>
     </g>
     <g id="text_7">
      <!-- 0 -->
      <g transform="translate(97.953125 586.51125)scale(0.12 -0.12)">
       <use xlink:href="#BitstreamVeraSans-Roman-30"/>
      </g>
     </g>
    </g>
    <g id="ytick_2">
     <g id="line2d_16">
      <g>
       <use style="stroke:#000000;stroke-width:0.5;" x="108.0" xlink:href="#md7965d1ba0" y="518.4"/>
      </g>
     </g>
     <g id="line2d_17">
      <g>
       <use style="stroke:#000000;stroke-width:0.5;" x="777.6" xlink:href="#md9a1c1a7cd" y="518.4"/>
      </g>
     </g>
     <g id="text_8">
      <!-- 200 -->
      <g transform="translate(82.77125 521.71125)scale(0.12 -0.12)">
       <use xlink:href="#BitstreamVeraSans-Roman-32"/>
       <use x="63.623046875" xlink:href="#BitstreamVeraSans-Roman-30"/>
       <use x="127.24609375" xlink:href="#BitstreamVeraSans-Roman-30"/>
      </g>
     </g>
    </g>
    <g id="ytick_3">
     <g id="line2d_18">
      <g>
       <use style="stroke:#000000;stroke-width:0.5;" x="108.0" xlink:href="#md7965d1ba0" y="453.6"/>
      </g>
     </g>
     <g id="line2d_19">
      <g>
       <use style="stroke:#000000;stroke-width:0.5;" x="777.6" xlink:href="#md9a1c1a7cd" y="453.6"/>
      </g>
     </g>
     <g id="text_9">
      <!-- 400 -->
      <defs>
       <path d="
M37.7969 64.3125
L12.8906 25.3906
L37.7969 25.3906
z

M35.2031 72.9062
L47.6094 72.9062
L47.6094 25.3906
L58.0156 25.3906
L58.0156 17.1875
L47.6094 17.1875
L47.6094 0
L37.7969 0
L37.7969 17.1875
L4.89062 17.1875
L4.89062 26.7031
z
" id="BitstreamVeraSans-Roman-34"/>
      </defs>
      <g transform="translate(82.47875 456.91125)scale(0.12 -0.12)">
       <use xlink:href="#BitstreamVeraSans-Roman-34"/>
       <use x="63.623046875" xlink:href="#BitstreamVeraSans-Roman-30"/>
       <use x="127.24609375" xlink:href="#BitstreamVeraSans-Roman-30"/>
      </g>
     </g>
    </g>
    <g id="ytick_4">
     <g id="line2d_20">
      <g>
       <use style="stroke:#000000;stroke-width:0.5;" x="108.0" xlink:href="#md7965d1ba0" y="388.8"/>
      </g>
     </g>
     <g id="line2d_21">
      <g>
       <use style="stroke:#000000;stroke-width:0.5;" x="777.6" xlink:href="#md9a1c1a7cd" y="388.8"/>
      </g>
     </g>
     <g id="text_10">
      <!-- 600 -->
      <defs>
       <path d="
M33.0156 40.375
Q26.375 40.375 22.4844 35.8281
Q18.6094 31.2969 18.6094 23.3906
Q18.6094 15.5312 22.4844 10.9531
Q26.375 6.39062 33.0156 6.39062
Q39.6562 6.39062 43.5312 10.9531
Q47.4062 15.5312 47.4062 23.3906
Q47.4062 31.2969 43.5312 35.8281
Q39.6562 40.375 33.0156 40.375
M52.5938 71.2969
L52.5938 62.3125
Q48.875 64.0625 45.0938 64.9844
Q41.3125 65.9219 37.5938 65.9219
Q27.8281 65.9219 22.6719 59.3281
Q17.5312 52.7344 16.7969 39.4062
Q19.6719 43.6562 24.0156 45.9219
Q28.375 48.1875 33.5938 48.1875
Q44.5781 48.1875 50.9531 41.5156
Q57.3281 34.8594 57.3281 23.3906
Q57.3281 12.1562 50.6875 5.35938
Q44.0469 -1.42188 33.0156 -1.42188
Q20.3594 -1.42188 13.6719 8.26562
Q6.98438 17.9688 6.98438 36.375
Q6.98438 53.6562 15.1875 63.9375
Q23.3906 74.2188 37.2031 74.2188
Q40.9219 74.2188 44.7031 73.4844
Q48.4844 72.75 52.5938 71.2969" id="BitstreamVeraSans-Roman-36"/>
      </defs>
      <g transform="translate(82.73 392.11125)scale(0.12 -0.12)">
       <use xlink:href="#BitstreamVeraSans-Roman-36"/>
       <use x="63.623046875" xlink:href="#BitstreamVeraSans-Roman-30"/>
       <use x="127.24609375" xlink:href="#BitstreamVeraSans-Roman-30"/>
      </g>
     </g>
    </g>
    <g id="ytick_5">
     <g id="line2d_22">
      <g>
       <use style="stroke:#000000;stroke-width:0.5;" x="108.0" xlink:href="#md7965d1ba0" y="324.0"/>
      </g>
     </g>
     <g id="line2d_23">
      <g>
       <use style="stroke:#000000;stroke-width:0.5;" x="777.6" xlink:href="#md9a1c1a7cd" y="324.0"/>
      </g>
     </g>
     <g id="text_11">
      <!-- 800 -->
      <defs>
       <path d="
M31.7812 34.625
Q24.75 34.625 20.7188 30.8594
Q16.7031 27.0938 16.7031 20.5156
Q16.7031 13.9219 20.7188 10.1562
Q24.75 6.39062 31.7812 6.39062
Q38.8125 6.39062 42.8594 10.1719
Q46.9219 13.9688 46.9219 20.5156
Q46.9219 27.0938 42.8906 30.8594
Q38.875 34.625 31.7812 34.625
M21.9219 38.8125
Q15.5781 40.375 12.0312 44.7188
Q8.5 49.0781 8.5 55.3281
Q8.5 64.0625 14.7188 69.1406
Q20.9531 74.2188 31.7812 74.2188
Q42.6719 74.2188 48.875 69.1406
Q55.0781 64.0625 55.0781 55.3281
Q55.0781 49.0781 51.5312 44.7188
Q48 40.375 41.7031 38.8125
Q48.8281 37.1562 52.7969 32.3125
Q56.7812 27.4844 56.7812 20.5156
Q56.7812 9.90625 50.3125 4.23438
Q43.8438 -1.42188 31.7812 -1.42188
Q19.7344 -1.42188 13.25 4.23438
Q6.78125 9.90625 6.78125 20.5156
Q6.78125 27.4844 10.7812 32.3125
Q14.7969 37.1562 21.9219 38.8125
M18.3125 54.3906
Q18.3125 48.7344 21.8438 45.5625
Q25.3906 42.3906 31.7812 42.3906
Q38.1406 42.3906 41.7188 45.5625
Q45.3125 48.7344 45.3125 54.3906
Q45.3125 60.0625 41.7188 63.2344
Q38.1406 66.4062 31.7812 66.4062
Q25.3906 66.4062 21.8438 63.2344
Q18.3125 60.0625 18.3125 54.3906" id="BitstreamVeraSans-Roman-38"/>
      </defs>
      <g transform="translate(82.705625 327.31125)scale(0.12 -0.12)">
       <use xlink:href="#BitstreamVeraSans-Roman-38"/>
       <use x="63.623046875" xlink:href="#BitstreamVeraSans-Roman-30"/>
       <use x="127.24609375" xlink:href="#BitstreamVeraSans-Roman-30"/>
      </g>
     </g>
    </g>
    <g id="ytick_6">
     <g id="line2d_24">
      <g>
       <use style="stroke:#000000;stroke-width:0.5;" x="108.0" xlink:href="#md7965d1ba0" y="259.2"/>
      </g>
     </g>
     <g id="line2d_25">
      <g>
       <use style="stroke:#000000;stroke-width:0.5;" x="777.6" xlink:href="#md9a1c1a7cd" y="259.2"/>
      </g>
     </g>
     <g id="text_12">
      <!-- 1000 -->
      <g transform="translate(75.575 262.51125)scale(0.12 -0.12)">
       <use xlink:href="#BitstreamVeraSans-Roman-31"/>
       <use x="63.623046875" xlink:href="#BitstreamVeraSans-Roman-30"/>
       <use x="127.24609375" xlink:href="#BitstreamVeraSans-Roman-30"/>
       <use x="190.869140625" xlink:href="#BitstreamVeraSans-Roman-30"/>
      </g>
     </g>
    </g>
    <g id="ytick_7">
     <g id="line2d_26">
      <g>
       <use style="stroke:#000000;stroke-width:0.5;" x="108.0" xlink:href="#md7965d1ba0" y="194.4"/>
      </g>
     </g>
     <g id="line2d_27">
      <g>
       <use style="stroke:#000000;stroke-width:0.5;" x="777.6" xlink:href="#md9a1c1a7cd" y="194.4"/>
      </g>
     </g>
     <g id="text_13">
      <!-- 1200 -->
      <g transform="translate(75.575 197.71125)scale(0.12 -0.12)">
       <use xlink:href="#BitstreamVeraSans-Roman-31"/>
       <use x="63.623046875" xlink:href="#BitstreamVeraSans-Roman-32"/>
       <use x="127.24609375" xlink:href="#BitstreamVeraSans-Roman-30"/>
       <use x="190.869140625" xlink:href="#BitstreamVeraSans-Roman-30"/>
      </g>
     </g>
    </g>
    <g id="ytick_8">
     <g id="line2d_28">
      <g>
       <use style="stroke:#000000;stroke-width:0.5;" x="108.0" xlink:href="#md7965d1ba0" y="129.6"/>
      </g>
     </g>
     <g id="line2d_29">
      <g>
       <use style="stroke:#000000;stroke-width:0.5;" x="777.6" xlink:href="#md9a1c1a7cd" y="129.6"/>
      </g>
     </g>
     <g id="text_14">
      <!-- 1400 -->
      <g transform="translate(75.575 132.91125)scale(0.12 -0.12)">
       <use xlink:href="#BitstreamVeraSans-Roman-31"/>
       <use x="63.623046875" xlink:href="#BitstreamVeraSans-Roman-34"/>
       <use x="127.24609375" xlink:href="#BitstreamVeraSans-Roman-30"/>
       <use x="190.869140625" xlink:href="#BitstreamVeraSans-Roman-30"/>
      </g>
     </g>
    </g>
    <g id="ytick_9">
     <g id="line2d_30">
      <g>
       <use style="stroke:#000000;stroke-width:0.5;" x="108.0" xlink:href="#md7965d1ba0" y="64.8"/>
      </g>
     </g>
     <g id="line2d_31">
      <g>
       <use style="stroke:#000000;stroke-width:0.5;" x="777.6" xlink:href="#md9a1c1a7cd" y="64.8"/>
      </g>
     </g>
     <g id="text_15">
      <!-- 1600 -->
      <g transform="translate(75.575 68.11125)scale(0.12 -0.12)">
       <use xlink:href="#BitstreamVeraSans-Roman-31"/>
       <use x="63.623046875" xlink:href="#BitstreamVeraSans-Roman-36"/>
       <use x="127.24609375" xlink:href="#BitstreamVeraSans-Roman-30"/>
       <use x="190.869140625" xlink:href="#BitstreamVeraSans-Roman-30"/>
      </g>
     </g>
    </g>
    <g id="text_16">
     <!-- particle numbers -->
     <defs>
      <path d="
M54.8906 33.0156
L54.8906 0
L45.9062 0
L45.9062 32.7188
Q45.9062 40.4844 42.875 44.3281
Q39.8438 48.1875 33.7969 48.1875
Q26.5156 48.1875 22.3125 43.5469
Q18.1094 38.9219 18.1094 30.9062
L18.1094 0
L9.07812 0
L9.07812 54.6875
L18.1094 54.6875
L18.1094 46.1875
Q21.3438 51.125 25.7031 53.5625
Q30.0781 56 35.7969 56
Q45.2188 56 50.0469 50.1719
Q54.8906 44.3438 54.8906 33.0156" id="BitstreamVeraSans-Roman-6e"/>
      <path d="
M56.2031 29.5938
L56.2031 25.2031
L14.8906 25.2031
Q15.4844 15.9219 20.4844 11.0625
Q25.4844 6.20312 34.4219 6.20312
Q39.5938 6.20312 44.4531 7.46875
Q49.3125 8.73438 54.1094 11.2812
L54.1094 2.78125
Q49.2656 0.734375 44.1875 -0.34375
Q39.1094 -1.42188 33.8906 -1.42188
Q20.7969 -1.42188 13.1562 6.1875
Q5.51562 13.8125 5.51562 26.8125
Q5.51562 40.2344 12.7656 48.1094
Q20.0156 56 32.3281 56
Q43.3594 56 49.7812 48.8906
Q56.2031 41.7969 56.2031 29.5938
M47.2188 32.2344
Q47.125 39.5938 43.0938 43.9844
Q39.0625 48.3906 32.4219 48.3906
Q24.9062 48.3906 20.3906 44.1406
Q15.875 39.8906 15.1875 32.1719
z
" id="BitstreamVeraSans-Roman-65"/>
      <path d="
M34.2812 27.4844
Q23.3906 27.4844 19.1875 25
Q14.9844 22.5156 14.9844 16.5
Q14.9844 11.7188 18.1406 8.90625
Q21.2969 6.10938 26.7031 6.10938
Q34.1875 6.10938 38.7031 11.4062
Q43.2188 16.7031 43.2188 25.4844
L43.2188 27.4844
z

M52.2031 31.2031
L52.2031 0
L43.2188 0
L43.2188 8.29688
Q40.1406 3.32812 35.5469 0.953125
Q30.9531 -1.42188 24.3125 -1.42188
Q15.9219 -1.42188 10.9531 3.29688
Q6 8.01562 6 15.9219
Q6 25.1406 12.1719 29.8281
Q18.3594 34.5156 30.6094 34.5156
L43.2188 34.5156
L43.2188 35.4062
Q43.2188 41.6094 39.1406 45
Q35.0625 48.3906 27.6875 48.3906
Q23 48.3906 18.5469 47.2656
Q14.1094 46.1406 10.0156 43.8906
L10.0156 52.2031
Q14.9375 54.1094 19.5781 55.0469
Q24.2188 56 28.6094 56
Q40.4844 56 46.3438 49.8438
Q52.2031 43.7031 52.2031 31.2031" id="BitstreamVeraSans-Roman-61"/>
      <path d="
M18.1094 8.20312
L18.1094 -20.7969
L9.07812 -20.7969
L9.07812 54.6875
L18.1094 54.6875
L18.1094 46.3906
Q20.9531 51.2656 25.2656 53.625
Q29.5938 56 35.5938 56
Q45.5625 56 51.7812 48.0938
Q58.0156 40.1875 58.0156 27.2969
Q58.0156 14.4062 51.7812 6.48438
Q45.5625 -1.42188 35.5938 -1.42188
Q29.5938 -1.42188 25.2656 0.953125
Q20.9531 3.32812 18.1094 8.20312
M48.6875 27.2969
Q48.6875 37.2031 44.6094 42.8438
Q40.5312 48.4844 33.4062 48.4844
Q26.2656 48.4844 22.1875 42.8438
Q18.1094 37.2031 18.1094 27.2969
Q18.1094 17.3906 22.1875 11.75
Q26.2656 6.10938 33.4062 6.10938
Q40.5312 6.10938 44.6094 11.75
Q48.6875 17.3906 48.6875 27.2969" id="BitstreamVeraSans-Roman-70"/>
      <path d="
M8.5 21.5781
L8.5 54.6875
L17.4844 54.6875
L17.4844 21.9219
Q17.4844 14.1562 20.5 10.2656
Q23.5312 6.39062 29.5938 6.39062
Q36.8594 6.39062 41.0781 11.0312
Q45.3125 15.6719 45.3125 23.6875
L45.3125 54.6875
L54.2969 54.6875
L54.2969 0
L45.3125 0
L45.3125 8.40625
Q42.0469 3.42188 37.7188 1
Q33.4062 -1.42188 27.6875 -1.42188
Q18.2656 -1.42188 13.375 4.4375
Q8.5 10.2969 8.5 21.5781" id="BitstreamVeraSans-Roman-75"/>
      <path d="
M48.7812 52.5938
L48.7812 44.1875
Q44.9688 46.2969 41.1406 47.3438
Q37.3125 48.3906 33.4062 48.3906
Q24.6562 48.3906 19.8125 42.8438
Q14.9844 37.3125 14.9844 27.2969
Q14.9844 17.2812 19.8125 11.7344
Q24.6562 6.20312 33.4062 6.20312
Q37.3125 6.20312 41.1406 7.25
Q44.9688 8.29688 48.7812 10.4062
L48.7812 2.09375
Q45.0156 0.34375 40.9844 -0.53125
Q36.9688 -1.42188 32.4219 -1.42188
Q20.0625 -1.42188 12.7812 6.34375
Q5.51562 14.1094 5.51562 27.2969
Q5.51562 40.6719 12.8594 48.3281
Q20.2188 56 33.0156 56
Q37.1562 56 41.1094 55.1406
Q45.0625 54.2969 48.7812 52.5938" id="BitstreamVeraSans-Roman-63"/>
      <path d="
M9.42188 54.6875
L18.4062 54.6875
L18.4062 0
L9.42188 0
z

M9.42188 75.9844
L18.4062 75.9844
L18.4062 64.5938
L9.42188 64.5938
z
" id="BitstreamVeraSans-Roman-69"/>
      <path d="
M41.1094 46.2969
Q39.5938 47.1719 37.8125 47.5781
Q36.0312 48 33.8906 48
Q26.2656 48 22.1875 43.0469
Q18.1094 38.0938 18.1094 28.8125
L18.1094 0
L9.07812 0
L9.07812 54.6875
L18.1094 54.6875
L18.1094 46.1875
Q20.9531 51.1719 25.4844 53.5781
Q30.0312 56 36.5312 56
Q37.4531 56 38.5781 55.875
Q39.7031 55.7656 41.0625 55.5156
z
" id="BitstreamVeraSans-Roman-72"/>
      <path d="
M9.42188 75.9844
L18.4062 75.9844
L18.4062 0
L9.42188 0
z
" id="BitstreamVeraSans-Roman-6c"/>
      <path d="
M48.6875 27.2969
Q48.6875 37.2031 44.6094 42.8438
Q40.5312 48.4844 33.4062 48.4844
Q26.2656 48.4844 22.1875 42.8438
Q18.1094 37.2031 18.1094 27.2969
Q18.1094 17.3906 22.1875 11.75
Q26.2656 6.10938 33.4062 6.10938
Q40.5312 6.10938 44.6094 11.75
Q48.6875 17.3906 48.6875 27.2969
M18.1094 46.3906
Q20.9531 51.2656 25.2656 53.625
Q29.5938 56 35.5938 56
Q45.5625 56 51.7812 48.0938
Q58.0156 40.1875 58.0156 27.2969
Q58.0156 14.4062 51.7812 6.48438
Q45.5625 -1.42188 35.5938 -1.42188
Q29.5938 -1.42188 25.2656 0.953125
Q20.9531 3.32812 18.1094 8.20312
L18.1094 0
L9.07812 0
L9.07812 75.9844
L18.1094 75.9844
z
" id="BitstreamVeraSans-Roman-62"/>
     </defs>
     <g transform="translate(68.079375 374.78625)rotate(-90.0)scale(0.12 -0.12)">
      <use xlink:href="#BitstreamVeraSans-Roman-70"/>
      <use x="63.4765625" xlink:href="#BitstreamVeraSans-Roman-61"/>
      <use x="124.755859375" xlink:href="#BitstreamVeraSans-Roman-72"/>
      <use x="165.869140625" xlink:href="#BitstreamVeraSans-Roman-74"/>
      <use x="205.078125" xlink:href="#BitstreamVeraSans-Roman-69"/>
      <use x="232.861328125" xlink:href="#BitstreamVeraSans-Roman-63"/>
      <use x="287.841796875" xlink:href="#BitstreamVeraSans-Roman-6c"/>
      <use x="315.625" xlink:href="#BitstreamVeraSans-Roman-65"/>
      <use x="377.1484375" xlink:href="#BitstreamVeraSans-Roman-20"/>
      <use x="408.935546875" xlink:href="#BitstreamVeraSans-Roman-6e"/>
      <use x="472.314453125" xlink:href="#BitstreamVeraSans-Roman-75"/>
      <use x="535.693359375" xlink:href="#BitstreamVeraSans-Roman-6d"/>
      <use x="633.10546875" xlink:href="#BitstreamVeraSans-Roman-62"/>
      <use x="696.58203125" xlink:href="#BitstreamVeraSans-Roman-65"/>
      <use x="758.10546875" xlink:href="#BitstreamVeraSans-Roman-72"/>
      <use x="799.21875" xlink:href="#BitstreamVeraSans-Roman-73"/>
     </g>
    </g>
   </g>
   <g id="legend_1">
    <g id="patch_7">
     <path d="
M697.504 101.224
L774.1 101.224
L774.1 68.3
L697.504 68.3
z
" style="fill:#ffffff;stroke:#000000;stroke-linejoin:miter;"/>
    </g>
    <g id="line2d_32">
     <path d="
M702.404 73.9689
L712.204 73.9689" style="fill:none;stroke:#ff0000;stroke-linecap:square;"/>
    </g>
    <g id="line2d_33"/>
    <g id="text_17">
     <!-- PKAcAMP2 el.0 -->
     <defs>
      <path d="
M10.6875 12.4062
L21 12.4062
L21 0
L10.6875 0
z
" id="BitstreamVeraSans-Roman-2e"/>
      <path d="
M19.6719 64.7969
L19.6719 37.4062
L32.0781 37.4062
Q38.9688 37.4062 42.7188 40.9688
Q46.4844 44.5312 46.4844 51.125
Q46.4844 57.6719 42.7188 61.2344
Q38.9688 64.7969 32.0781 64.7969
z

M9.8125 72.9062
L32.0781 72.9062
Q44.3438 72.9062 50.6094 67.3594
Q56.8906 61.8125 56.8906 51.125
Q56.8906 40.3281 50.6094 34.8125
Q44.3438 29.2969 32.0781 29.2969
L19.6719 29.2969
L19.6719 0
L9.8125 0
z
" id="BitstreamVeraSans-Roman-50"/>
      <path d="
M34.1875 63.1875
L20.7969 26.9062
L47.6094 26.9062
z

M28.6094 72.9062
L39.7969 72.9062
L67.5781 0
L57.3281 0
L50.6875 18.7031
L17.8281 18.7031
L11.1875 0
L0.78125 0
z
" id="BitstreamVeraSans-Roman-41"/>
      <path d="
M9.8125 72.9062
L24.5156 72.9062
L43.1094 23.2969
L61.8125 72.9062
L76.5156 72.9062
L76.5156 0
L66.8906 0
L66.8906 64.0156
L48.0938 14.0156
L38.1875 14.0156
L19.3906 64.0156
L19.3906 0
L9.8125 0
z
" id="BitstreamVeraSans-Roman-4d"/>
      <path d="
M9.8125 72.9062
L19.6719 72.9062
L19.6719 42.0938
L52.3906 72.9062
L65.0938 72.9062
L28.9062 38.9219
L67.6719 0
L54.6875 0
L19.6719 35.1094
L19.6719 0
L9.8125 0
z
" id="BitstreamVeraSans-Roman-4b"/>
     </defs>
     <g transform="translate(719.90359375 76.41890625)scale(0.07 -0.07)">
      <use xlink:href="#BitstreamVeraSans-Roman-50"/>
      <use x="60.302734375" xlink:href="#BitstreamVeraSans-Roman-4b"/>
      <use x="124.12890625" xlink:href="#BitstreamVeraSans-Roman-41"/>
      <use x="190.787109375" xlink:href="#BitstreamVeraSans-Roman-63"/>
      <use x="245.767578125" xlink:href="#BitstreamVeraSans-Roman-41"/>
      <use x="314.17578125" xlink:href="#BitstreamVeraSans-Roman-4d"/>
      <use x="400.455078125" xlink:href="#BitstreamVeraSans-Roman-50"/>
      <use x="460.7578125" xlink:href="#BitstreamVeraSans-Roman-32"/>
      <use x="524.380859375" xlink:href="#BitstreamVeraSans-Roman-20"/>
      <use x="556.16796875" xlink:href="#BitstreamVeraSans-Roman-65"/>
      <use x="617.69140625" xlink:href="#BitstreamVeraSans-Roman-6c"/>
      <use x="645.474609375" xlink:href="#BitstreamVeraSans-Roman-2e"/>
      <use x="677.26171875" xlink:href="#BitstreamVeraSans-Roman-30"/>
     </g>
    </g>
    <g id="line2d_34">
     <path d="
M702.404 84.2436
L712.204 84.2436" style="fill:none;stroke:#008000;stroke-linecap:square;"/>
    </g>
    <g id="line2d_35"/>
    <g id="text_18">
     <!-- PKAcAMP2 el.1 -->
     <g transform="translate(719.90359375 86.69359375)scale(0.07 -0.07)">
      <use xlink:href="#BitstreamVeraSans-Roman-50"/>
      <use x="60.302734375" xlink:href="#BitstreamVeraSans-Roman-4b"/>
      <use x="124.12890625" xlink:href="#BitstreamVeraSans-Roman-41"/>
      <use x="190.787109375" xlink:href="#BitstreamVeraSans-Roman-63"/>
      <use x="245.767578125" xlink:href="#BitstreamVeraSans-Roman-41"/>
      <use x="314.17578125" xlink:href="#BitstreamVeraSans-Roman-4d"/>
      <use x="400.455078125" xlink:href="#BitstreamVeraSans-Roman-50"/>
      <use x="460.7578125" xlink:href="#BitstreamVeraSans-Roman-32"/>
      <use x="524.380859375" xlink:href="#BitstreamVeraSans-Roman-20"/>
      <use x="556.16796875" xlink:href="#BitstreamVeraSans-Roman-65"/>
      <use x="617.69140625" xlink:href="#BitstreamVeraSans-Roman-6c"/>
      <use x="645.474609375" xlink:href="#BitstreamVeraSans-Roman-2e"/>
      <use x="677.26171875" xlink:href="#BitstreamVeraSans-Roman-31"/>
     </g>
    </g>
    <g id="line2d_36">
     <path d="
M702.404 94.5183
L712.204 94.5183" style="fill:none;stroke:#0000ff;stroke-linecap:square;"/>
    </g>
    <g id="line2d_37"/>
    <g id="text_19">
     <!-- PKAcAMP2 el.2 -->
     <g transform="translate(719.90359375 96.96828125)scale(0.07 -0.07)">
      <use xlink:href="#BitstreamVeraSans-Roman-50"/>
      <use x="60.302734375" xlink:href="#BitstreamVeraSans-Roman-4b"/>
      <use x="124.12890625" xlink:href="#BitstreamVeraSans-Roman-41"/>
      <use x="190.787109375" xlink:href="#BitstreamVeraSans-Roman-63"/>
      <use x="245.767578125" xlink:href="#BitstreamVeraSans-Roman-41"/>
      <use x="314.17578125" xlink:href="#BitstreamVeraSans-Roman-4d"/>
      <use x="400.455078125" xlink:href="#BitstreamVeraSans-Roman-50"/>
      <use x="460.7578125" xlink:href="#BitstreamVeraSans-Roman-32"/>
      <use x="524.380859375" xlink:href="#BitstreamVeraSans-Roman-20"/>
      <use x="556.16796875" xlink:href="#BitstreamVeraSans-Roman-65"/>
      <use x="617.69140625" xlink:href="#BitstreamVeraSans-Roman-6c"/>
      <use x="645.474609375" xlink:href="#BitstreamVeraSans-Roman-2e"/>
      <use x="677.26171875" xlink:href="#BitstreamVeraSans-Roman-32"/>
     </g>
    </g>
   </g>
  </g>
 </g>
 <defs>
  <clipPath id="p7ceb695115">
   <rect height="518.4" width="669.6" x="108.0" y="64.8"/>
  </clipPath>
 </defs>
</svg>
