<?xml version="1.0" encoding="utf-8" standalone="no"?>
<!DOCTYPE svg PUBLIC "-//W3C//DTD SVG 1.1//EN"
  "http://www.w3.org/Graphics/SVG/1.1/DTD/svg11.dtd">
<!-- Created with matplotlib (http://matplotlib.org/) -->
<svg height="648pt" version="1.1" viewBox="0 0 864 648" width="864pt" xmlns="http://www.w3.org/2000/svg" xmlns:xlink="http://www.w3.org/1999/xlink">
 <defs>
  <style type="text/css">
*{stroke-linecap:butt;stroke-linejoin:round;}
  </style>
 </defs>
 <g id="figure_1">
  <g id="patch_1">
   <path d="
M0 648
L864 648
L864 0
L0 0
z
" style="fill:#ffffff;"/>
  </g>
  <g id="axes_1">
   <g id="patch_2">
    <path d="
M108 583.2
L777.6 583.2
L777.6 64.8
L108 64.8
z
" style="fill:#ffffff;"/>
   </g>
   <g id="line2d_1">
    <path clip-path="url(#p7ceb695115)" d="
M108 583.2
L108.67 579.96
L113.357 579.96
L114.026 583.2
L128.088 583.2
L128.758 579.96
L129.427 583.2
L146.167 583.2
L146.837 579.96
L147.506 583.2
L161.568 583.2
L162.238 579.96
L168.934 579.96
L169.603 583.2
L177.638 583.2
L178.308 579.96
L182.995 579.96
L183.665 576.72
L184.334 579.96
L185.674 579.96
L186.343 583.2
L199.735 583.2
L200.405 579.96
L201.074 583.2
L201.744 579.96
L202.414 579.96
L203.083 583.2
L204.422 576.72
L205.092 579.96
L207.101 579.96
L207.77 576.72
L217.145 576.72
L217.814 579.96
L221.162 579.96
L221.832 583.2
L225.18 583.2
L226.519 576.72
L229.867 576.72
L230.537 579.96
L231.206 576.72
L231.876 576.72
L232.546 583.2
L259.999 583.2
L260.669 579.96
L269.374 579.96
L270.043 576.72
L271.382 576.72
L272.052 579.96
L275.4 579.96
L276.07 583.2
L283.435 583.2
L284.105 576.72
L284.774 573.48
L286.114 573.48
L286.783 576.72
L287.453 576.72
L288.122 583.2
L294.818 583.2
L295.488 579.96
L302.854 579.96
L303.523 583.2
L304.193 583.2
L304.862 579.96
L305.532 579.96
L306.202 576.72
L306.871 579.96
L307.541 579.96
L308.21 583.2
L326.29 583.2
L326.959 579.96
L327.629 579.96
L328.298 583.2
L337.003 583.2
L337.673 579.96
L339.012 579.96
L339.682 583.2
L375.84 583.2
L376.51 579.96
L383.875 579.96
L384.545 576.72
L385.214 579.96
L385.884 576.72
L386.554 579.96
L387.223 576.72
L387.893 576.72
L388.562 579.96
L391.241 579.96
L391.91 583.2
L440.791 583.2
L441.461 579.96
L442.8 579.96
L443.47 583.2
L444.139 583.2
L444.809 576.72
L445.478 579.96
L446.148 573.48
L446.818 576.72
L447.487 570.24
L448.157 570.24
L448.826 573.48
L449.496 557.28
L450.166 557.28
L450.835 563.76
L451.505 554.04
L452.174 557.28
L452.844 544.32
L453.514 554.04
L454.183 554.04
L454.853 563.76
L455.522 544.32
L456.192 550.8
L456.862 554.04
L457.531 537.84
L458.201 544.32
L458.87 554.04
L459.54 557.28
L460.21 537.84
L460.879 550.8
L461.549 524.88
L462.218 534.6
L462.888 550.8
L463.558 550.8
L464.227 531.36
L464.897 521.64
L466.236 534.6
L466.906 531.36
L467.575 524.88
L468.245 534.6
L468.914 515.16
L469.584 521.64
L470.254 498.96
L470.923 528.12
L471.593 534.6
L472.262 537.84
L472.932 528.12
L473.602 508.68
L474.271 541.08
L474.941 518.4
L475.61 534.6
L476.28 482.76
L476.95 537.84
L477.619 521.64
L478.958 502.2
L479.628 524.88
L480.298 498.96
L480.967 524.88
L481.637 531.36
L482.306 521.64
L482.976 534.6
L483.646 505.44
L484.315 537.84
L484.985 521.64
L485.654 544.32
L486.324 518.4
L486.994 547.56
L487.663 498.96
L488.333 537.84
L489.002 531.36
L489.672 531.36
L491.011 524.88
L491.681 502.2
L492.35 524.88
L493.02 531.36
L494.359 518.4
L495.029 534.6
L495.698 498.96
L496.368 531.36
L497.038 521.64
L497.707 524.88
L498.377 518.4
L499.046 515.16
L499.716 531.36
L501.055 524.88
L501.725 528.12
L502.394 511.92
L503.064 482.76
L503.734 515.16
L504.403 515.16
L505.073 521.64
L505.742 524.88
L506.412 524.88
L507.082 492.48
L507.751 524.88
L508.421 492.48
L509.09 508.68
L509.76 498.96
L510.43 537.84
L511.099 531.36
L511.769 537.84
L512.438 505.44
L513.108 534.6
L513.778 511.92
L514.447 528.12
L515.117 511.92
L515.786 518.4
L516.456 518.4
L517.126 511.92
L517.795 515.16
L518.465 508.68
L519.134 528.12
L519.804 541.08
L520.474 524.88
L521.143 528.12
L521.813 521.64
L522.482 498.96
L523.152 531.36
L523.822 537.84
L524.491 534.6
L525.161 528.12
L525.83 511.92
L526.5 518.4
L527.17 511.92
L527.839 534.6
L528.509 498.96
L529.178 521.64
L529.848 515.16
L530.518 537.84
L531.187 521.64
L531.857 518.4
L532.526 528.12
L533.196 511.92
L533.866 508.68
L534.535 534.6
L535.205 515.16
L535.874 531.36
L536.544 508.68
L537.214 511.92
L539.222 531.36
L539.892 534.6
L540.562 502.2
L541.231 518.4
L541.901 508.68
L542.57 495.72
L543.24 531.36
L543.91 495.72
L544.579 505.44
L545.249 479.52
L545.918 508.68
L546.588 515.16
L547.258 531.36
L547.927 511.92
L548.597 505.44
L549.266 541.08
L549.936 515.16
L550.606 528.12
L551.275 511.92
L551.945 505.44
L553.284 498.96
L553.954 518.4
L554.623 492.48
L555.293 518.4
L555.962 550.8
L556.632 528.12
L557.302 524.88
L557.971 524.88
L559.31 511.92
L559.98 511.92
L560.65 498.96
L561.319 528.12
L561.989 498.96
L562.658 498.96
L563.998 531.36
L564.667 528.12
L565.337 505.44
L566.006 495.72
L566.676 469.8
L567.346 524.88
L568.015 489.24
L568.685 515.16
L569.354 524.88
L570.024 511.92
L570.694 528.12
L571.363 518.4
L572.033 502.2
L572.702 515.16
L573.372 524.88
L574.042 502.2
L574.711 508.68
L575.381 511.92
L576.05 518.4
L576.72 511.92
L577.39 508.68
L578.059 508.68
L578.729 515.16
L579.398 489.24
L580.068 505.44
L580.738 508.68
L581.407 521.64
L582.077 466.56
L582.746 492.48
L583.416 495.72
L584.086 518.4
L584.755 498.96
L585.425 518.4
L586.094 476.28
L586.764 508.68
L587.434 515.16
L588.103 482.76
L588.773 505.44
L589.442 515.16
L590.112 505.44
L590.782 502.2
L591.451 515.16
L592.121 489.24
L592.79 521.64
L593.46 511.92
L594.13 498.96
L594.799 495.72
L595.469 515.16
L596.138 489.24
L596.808 486
L598.147 498.96
L598.817 476.28
L599.486 502.2
L600.156 511.92
L600.826 508.68
L601.495 502.2
L602.165 524.88
L602.834 498.96
L603.504 508.68
L604.174 492.48
L604.843 486
L605.513 492.48
L606.182 521.64
L606.852 511.92
L607.522 473.04
L608.191 524.88
L608.861 502.2
L609.53 502.2
L610.2 495.72
L610.87 486
L611.539 511.92
L612.209 515.16
L612.878 508.68
L613.548 508.68
L614.218 492.48
L614.887 502.2
L615.557 508.68
L616.226 482.76
L616.896 498.96
L617.566 489.24
L618.235 498.96
L618.905 492.48
L619.574 492.48
L620.244 502.2
L620.914 486
L621.583 508.68
L622.253 463.32
L622.922 511.92
L623.592 508.68
L624.262 492.48
L624.931 479.52
L625.601 482.76
L626.94 508.68
L627.61 482.76
L628.279 502.2
L628.949 486
L629.618 489.24
L630.288 456.84
L630.958 476.28
L631.627 463.32
L632.297 482.76
L632.966 511.92
L633.636 453.6
L634.306 482.76
L634.975 492.48
L635.645 492.48
L636.314 495.72
L636.984 486
L637.654 466.56
L638.323 476.28
L638.993 498.96
L639.662 489.24
L640.332 486
L641.002 498.96
L641.671 486
L642.341 476.28
L643.01 460.08
L643.68 489.24
L644.35 460.08
L645.019 486
L645.689 489.24
L646.358 469.8
L647.028 495.72
L647.698 486
L648.367 502.2
L649.037 521.64
L649.706 486
L650.376 479.52
L651.046 447.12
L652.385 531.36
L653.054 479.52
L653.724 492.48
L654.394 489.24
L655.063 463.32
L655.733 505.44
L656.402 486
L657.072 508.68
L657.742 492.48
L658.411 502.2
L659.081 476.28
L659.75 505.44
L660.42 463.32
L661.09 473.04
L661.759 498.96
L662.429 466.56
L663.098 456.84
L663.768 505.44
L664.438 492.48
L665.107 486
L665.777 524.88
L666.446 505.44
L667.116 482.76
L667.786 498.96
L668.455 460.08
L669.125 486
L669.794 463.32
L670.464 508.68
L671.134 486
L671.803 495.72
L672.473 469.8
L673.142 508.68
L673.812 511.92
L674.482 473.04
L675.151 505.44
L675.821 489.24
L676.49 469.8
L677.16 482.76
L677.83 460.08
L678.499 495.72
L679.838 476.28
L680.508 482.76
L681.178 502.2
L681.847 456.84
L682.517 482.76
L683.186 492.48
L683.856 498.96
L684.526 463.32
L685.195 473.04
L685.865 469.8
L686.534 453.6
L687.204 495.72
L687.874 489.24
L688.543 476.28
L689.213 482.76
L689.882 482.76
L690.552 495.72
L691.222 502.2
L691.891 498.96
L692.561 440.64
L693.23 473.04
L693.9 463.32
L694.57 473.04
L695.239 447.12
L695.909 466.56
L696.578 443.88
L697.248 466.56
L697.918 498.96
L698.587 473.04
L699.257 492.48
L699.926 466.56
L700.596 489.24
L701.266 440.64
L701.935 469.8
L702.605 476.28
L703.274 453.6
L703.944 482.76
L704.614 492.48
L705.283 460.08
L705.953 469.8
L706.622 515.16
L707.292 463.32
L707.962 482.76
L708.631 476.28
L709.301 505.44
L710.64 456.84
L711.31 460.08
L711.979 492.48
L712.649 479.52
L713.318 492.48
L713.988 489.24
L714.658 469.8
L715.327 479.52
L715.997 498.96
L716.666 511.92
L717.336 456.84
L718.006 466.56
L718.675 492.48
L719.345 476.28
L720.014 479.52
L720.684 521.64
L721.354 466.56
L722.023 479.52
L722.693 476.28
L723.362 482.76
L724.702 437.4
L725.371 466.56
L726.041 479.52
L727.38 524.88
L728.05 479.52
L728.719 466.56
L729.389 489.24
L730.058 486
L730.728 469.8
L731.398 469.8
L732.067 495.72
L732.737 440.64
L733.406 463.32
L734.076 511.92
L734.746 466.56
L735.415 482.76
L736.085 466.56
L736.754 421.2
L738.094 476.28
L738.763 456.84
L739.433 482.76
L740.102 450.36
L740.772 424.44
L741.442 466.56
L742.111 486
L742.781 489.24
L743.45 505.44
L744.12 476.28
L744.79 476.28
L745.459 482.76
L746.129 476.28
L746.798 486
L747.468 486
L748.138 430.92
L748.807 463.32
L749.477 456.84
L750.146 498.96
L750.816 486
L751.486 440.64
L752.155 476.28
L752.825 424.44
L753.494 489.24
L754.164 479.52
L754.834 498.96
L755.503 482.76
L756.842 482.76
L757.512 508.68
L758.182 489.24
L758.851 476.28
L759.521 450.36
L760.19 443.88
L760.86 489.24
L761.53 476.28
L762.199 456.84
L762.869 460.08
L763.538 476.28
L764.208 498.96
L764.878 466.56
L765.547 482.76
L766.217 515.16
L766.886 440.64
L767.556 479.52
L768.226 476.28
L768.895 463.32
L769.565 453.6
L770.234 518.4
L770.904 505.44
L771.574 482.76
L772.243 486
L772.913 479.52
L773.582 456.84
L774.252 453.6
L774.922 492.48
L775.591 489.24
L776.261 466.56
L776.93 456.84
L777.6 473.04
L777.6 473.04" style="fill:none;stroke:#ff0000;stroke-linecap:square;"/>
   </g>
   <g id="line2d_2">
    <path clip-path="url(#p7ceb695115)" d="
M108 583.2
L111.348 583.2
L112.018 579.96
L120.053 579.96
L120.722 576.72
L121.392 579.96
L128.758 579.96
L129.427 576.72
L130.097 579.96
L131.436 579.96
L132.106 573.48
L132.775 573.48
L133.445 576.72
L134.114 576.72
L134.784 579.96
L135.454 579.96
L136.123 583.2
L136.793 583.2
L137.462 579.96
L138.132 579.96
L138.802 576.72
L139.471 579.96
L141.48 579.96
L142.15 583.2
L142.819 576.72
L144.158 576.72
L144.828 579.96
L145.498 579.96
L146.167 576.72
L146.837 579.96
L148.176 579.96
L148.846 573.48
L152.194 573.48
L152.863 579.96
L156.211 579.96
L156.881 583.2
L158.22 576.72
L162.238 576.72
L162.907 579.96
L167.594 579.96
L168.264 583.2
L168.934 579.96
L169.603 579.96
L170.942 573.48
L172.282 573.48
L173.621 567
L174.29 567
L174.96 573.48
L175.63 573.48
L176.299 576.72
L177.638 576.72
L178.978 583.2
L179.647 583.2
L180.986 576.72
L181.656 579.96
L182.326 573.48
L182.995 576.72
L183.665 573.48
L184.334 576.72
L185.004 576.72
L185.674 573.48
L186.343 576.72
L188.352 576.72
L189.691 583.2
L190.361 579.96
L192.37 579.96
L193.039 583.2
L193.709 583.2
L194.378 576.72
L195.048 573.48
L196.387 573.48
L197.057 570.24
L197.726 576.72
L199.735 576.72
L200.405 579.96
L202.414 579.96
L203.083 583.2
L205.092 583.2
L205.762 579.96
L206.431 583.2
L207.101 583.2
L207.77 579.96
L208.44 573.48
L209.11 573.48
L209.779 576.72
L210.449 573.48
L211.118 576.72
L212.458 576.72
L213.127 579.96
L213.797 576.72
L214.466 576.72
L215.136 579.96
L216.475 579.96
L217.145 583.2
L217.814 579.96
L220.493 579.96
L221.162 576.72
L221.832 576.72
L222.502 583.2
L227.858 583.2
L228.528 579.96
L231.876 579.96
L232.546 583.2
L234.554 583.2
L235.224 579.96
L237.233 579.96
L237.902 576.72
L238.572 579.96
L239.911 573.48
L240.581 576.72
L241.25 573.48
L241.92 576.72
L242.59 576.72
L243.259 579.96
L244.598 579.96
L245.268 576.72
L247.277 576.72
L247.946 583.2
L249.955 583.2
L251.294 576.72
L251.964 579.96
L253.303 579.96
L253.973 576.72
L254.642 576.72
L255.312 573.48
L255.982 579.96
L256.651 579.96
L257.321 583.2
L258.66 583.2
L259.33 579.96
L259.999 579.96
L260.669 583.2
L263.347 583.2
L264.017 579.96
L267.365 579.96
L268.034 576.72
L269.374 576.72
L270.043 579.96
L270.713 570.24
L271.382 570.24
L272.052 573.48
L272.722 573.48
L273.391 576.72
L274.061 573.48
L275.4 579.96
L276.07 576.72
L276.739 579.96
L278.748 579.96
L279.418 583.2
L280.087 579.96
L281.426 579.96
L283.435 570.24
L284.774 576.72
L285.444 576.72
L286.114 579.96
L286.783 579.96
L287.453 576.72
L292.14 576.72
L292.81 573.48
L294.149 573.48
L294.818 576.72
L296.158 576.72
L296.827 573.48
L297.497 573.48
L298.166 570.24
L299.506 576.72
L307.541 576.72
L308.21 579.96
L309.55 579.96
L310.219 583.2
L319.594 583.2
L320.263 576.72
L321.602 576.72
L322.272 573.48
L322.942 573.48
L323.611 570.24
L325.62 570.24
L326.29 573.48
L327.629 573.48
L328.298 576.72
L328.968 576.72
L329.638 579.96
L330.307 576.72
L332.986 576.72
L334.325 583.2
L337.003 583.2
L337.673 579.96
L339.012 579.96
L339.682 583.2
L341.69 583.2
L342.36 579.96
L345.708 579.96
L346.378 576.72
L348.386 576.72
L349.056 579.96
L351.065 579.96
L351.734 583.2
L352.404 583.2
L353.074 579.96
L360.439 579.96
L361.109 583.2
L363.118 583.2
L363.787 579.96
L365.796 579.96
L366.466 583.2
L367.135 583.2
L367.805 579.96
L370.483 579.96
L371.153 576.72
L376.51 576.72
L377.179 573.48
L377.849 573.48
L378.518 570.24
L379.858 570.24
L380.527 576.72
L381.197 579.96
L383.875 579.96
L384.545 583.2
L391.91 583.2
L392.58 579.96
L394.589 579.96
L395.258 576.72
L395.928 579.96
L396.598 579.96
L397.267 583.2
L399.946 583.2
L400.615 579.96
L401.954 579.96
L402.624 576.72
L403.294 579.96
L403.963 579.96
L404.633 583.2
L405.972 583.2
L406.642 579.96
L407.981 579.96
L408.65 576.72
L409.32 576.72
L409.99 579.96
L414.677 579.96
L415.346 583.2
L419.364 583.2
L420.034 579.96
L420.703 579.96
L421.373 583.2
L422.042 583.2
L422.712 579.96
L423.382 579.96
L424.051 583.2
L427.399 583.2
L428.069 576.72
L428.738 576.72
L429.408 579.96
L436.104 579.96
L436.774 583.2
L437.443 579.96
L442.13 579.96
L442.8 573.48
L443.47 570.24
L444.139 573.48
L444.809 563.76
L446.148 557.28
L446.818 515.16
L447.487 531.36
L448.157 528.12
L448.826 495.72
L449.496 482.76
L450.166 498.96
L450.835 511.92
L451.505 463.32
L452.174 450.36
L452.844 492.48
L453.514 437.4
L454.183 456.84
L454.853 473.04
L455.522 385.56
L456.192 424.44
L456.862 408.24
L457.531 375.84
L458.201 405
L458.87 366.12
L459.54 362.88
L460.21 379.08
L460.879 382.32
L461.549 359.64
L462.888 385.56
L463.558 362.88
L464.227 388.8
L464.897 304.56
L465.566 349.92
L466.236 327.24
L466.906 382.32
L467.575 340.2
L468.245 356.4
L468.914 333.72
L469.584 304.56
L470.254 359.64
L470.923 333.72
L471.593 333.72
L472.262 317.52
L472.932 369.36
L473.602 343.44
L474.271 343.44
L474.941 291.6
L475.61 330.48
L476.28 336.96
L476.95 272.16
L477.619 366.12
L478.289 395.28
L479.628 333.72
L480.298 340.2
L480.967 372.6
L481.637 336.96
L482.306 333.72
L482.976 366.12
L483.646 317.52
L484.315 343.44
L484.985 349.92
L485.654 307.8
L486.324 336.96
L486.994 301.32
L487.663 366.12
L488.333 327.24
L489.002 372.6
L490.342 307.8
L491.011 369.36
L491.681 336.96
L492.35 369.36
L493.02 333.72
L493.69 349.92
L494.359 385.56
L495.029 379.08
L495.698 330.48
L496.368 320.76
L497.038 314.28
L497.707 272.16
L498.377 317.52
L499.046 343.44
L499.716 379.08
L500.386 288.36
L501.055 349.92
L501.725 340.2
L502.394 372.6
L503.064 349.92
L503.734 317.52
L504.403 395.28
L505.073 314.28
L505.742 353.16
L506.412 301.32
L507.082 336.96
L507.751 353.16
L508.421 356.4
L509.09 382.32
L509.76 317.52
L510.43 353.16
L511.099 343.44
L511.769 359.64
L512.438 291.6
L513.108 324
L513.778 369.36
L514.447 333.72
L515.117 353.16
L515.786 324
L516.456 311.04
L517.126 311.04
L517.795 291.6
L518.465 333.72
L519.134 336.96
L519.804 314.28
L520.474 362.88
L521.143 336.96
L521.813 349.92
L522.482 294.84
L523.152 340.2
L523.822 324
L524.491 382.32
L525.161 285.12
L525.83 346.68
L526.5 262.44
L527.17 317.52
L527.839 359.64
L528.509 349.92
L529.178 307.8
L529.848 343.44
L530.518 356.4
L531.187 307.8
L531.857 317.52
L532.526 298.08
L533.196 252.72
L533.866 288.36
L534.535 340.2
L535.205 336.96
L535.874 336.96
L536.544 414.72
L537.214 307.8
L537.883 307.8
L538.553 330.48
L539.222 346.68
L539.892 281.88
L540.562 301.32
L541.231 333.72
L541.901 330.48
L542.57 336.96
L543.24 327.24
L543.91 291.6
L544.579 317.52
L545.249 304.56
L545.918 379.08
L546.588 314.28
L547.258 304.56
L547.927 320.76
L548.597 340.2
L549.936 291.6
L550.606 333.72
L551.275 259.2
L551.945 281.88
L552.614 314.28
L553.284 262.44
L553.954 298.08
L554.623 346.68
L555.962 304.56
L556.632 320.76
L557.302 268.92
L557.971 272.16
L558.641 262.44
L559.31 278.64
L559.98 336.96
L560.65 304.56
L561.319 307.8
L561.989 343.44
L563.328 294.84
L563.998 311.04
L564.667 311.04
L565.337 324
L566.006 252.72
L566.676 288.36
L567.346 272.16
L568.015 294.84
L568.685 275.4
L569.354 272.16
L570.024 281.88
L570.694 307.8
L571.363 320.76
L572.702 246.24
L573.372 252.72
L574.042 285.12
L574.711 275.4
L575.381 304.56
L576.05 275.4
L576.72 298.08
L578.059 298.08
L578.729 285.12
L579.398 239.76
L580.068 275.4
L581.407 233.28
L582.077 272.16
L582.746 288.36
L583.416 317.52
L584.086 301.32
L584.755 210.6
L585.425 243
L586.094 223.56
L586.764 272.16
L587.434 285.12
L588.103 249.48
L588.773 291.6
L589.442 243
L590.112 294.84
L590.782 327.24
L591.451 230.04
L592.121 243
L592.79 281.88
L593.46 301.32
L594.13 252.72
L594.799 268.92
L595.469 307.8
L596.138 226.8
L596.808 252.72
L597.478 246.24
L598.147 291.6
L599.486 298.08
L600.156 207.36
L600.826 239.76
L601.495 230.04
L602.165 236.52
L602.834 294.84
L603.504 298.08
L604.174 200.88
L604.843 281.88
L605.513 194.4
L606.182 233.28
L606.852 288.36
L607.522 294.84
L608.191 213.84
L608.861 204.12
L609.53 239.76
L610.2 239.76
L610.87 249.48
L611.539 191.16
L612.209 210.6
L612.878 207.36
L613.548 265.68
L614.218 223.56
L614.887 285.12
L615.557 213.84
L616.226 265.68
L616.896 223.56
L617.566 262.44
L618.235 291.6
L618.905 210.6
L619.574 230.04
L620.244 220.32
L620.914 236.52
L621.583 226.8
L622.253 204.12
L622.922 200.88
L623.592 278.64
L624.262 220.32
L624.931 230.04
L625.601 207.36
L626.27 145.8
L626.94 243
L627.61 197.64
L628.279 181.44
L628.949 152.28
L629.618 249.48
L630.288 171.72
L630.958 155.52
L631.627 126.36
L632.297 187.92
L632.966 184.68
L633.636 194.4
L634.975 181.44
L635.645 181.44
L636.314 158.76
L636.984 200.88
L637.654 155.52
L638.323 246.24
L638.993 200.88
L639.662 226.8
L640.332 236.52
L641.002 152.28
L641.671 187.92
L642.341 162
L643.01 197.64
L643.68 204.12
L644.35 181.44
L645.019 200.88
L645.689 181.44
L646.358 184.68
L647.028 123.12
L647.698 220.32
L648.367 213.84
L649.037 197.64
L649.706 171.72
L650.376 174.96
L651.046 220.32
L651.715 197.64
L652.385 194.4
L653.054 178.2
L653.724 197.64
L654.394 165.24
L655.063 204.12
L655.733 187.92
L656.402 168.48
L657.072 171.72
L657.742 178.2
L658.411 162
L659.081 226.8
L659.75 197.64
L660.42 204.12
L661.09 197.64
L661.759 197.64
L662.429 200.88
L663.098 233.28
L663.768 187.92
L664.438 204.12
L665.107 181.44
L665.777 149.04
L666.446 158.76
L667.116 162
L667.786 255.96
L668.455 217.08
L669.125 217.08
L669.794 194.4
L670.464 204.12
L671.134 113.4
L671.803 213.84
L672.473 197.64
L673.142 200.88
L673.812 165.24
L674.482 194.4
L675.151 217.08
L675.821 142.56
L676.49 168.48
L677.83 236.52
L678.499 200.88
L679.169 145.8
L679.838 184.68
L680.508 174.96
L681.178 194.4
L681.847 123.12
L682.517 187.92
L683.186 226.8
L683.856 204.12
L684.526 210.6
L685.195 129.6
L685.865 285.12
L686.534 187.92
L687.874 123.12
L688.543 200.88
L689.882 136.08
L690.552 119.88
L691.222 126.36
L691.891 84.24
L692.561 181.44
L693.23 200.88
L693.9 155.52
L694.57 165.24
L695.239 210.6
L695.909 129.6
L696.578 97.2
L697.248 181.44
L697.918 132.84
L698.587 136.08
L699.926 181.44
L700.596 197.64
L701.266 233.28
L701.935 187.92
L702.605 204.12
L703.274 171.72
L703.944 194.4
L704.614 132.84
L705.283 213.84
L705.953 213.84
L706.622 139.32
L707.292 158.76
L707.962 217.08
L708.631 181.44
L709.301 191.16
L709.97 178.2
L710.64 106.92
L711.31 204.12
L711.979 220.32
L712.649 230.04
L713.318 262.44
L713.988 210.6
L714.658 194.4
L715.327 168.48
L715.997 158.76
L716.666 194.4
L717.336 217.08
L718.006 213.84
L718.675 155.52
L719.345 162
L720.014 207.36
L720.684 142.56
L721.354 162
L722.023 187.92
L722.693 165.24
L723.362 155.52
L724.032 171.72
L724.702 132.84
L725.371 178.2
L726.041 236.52
L726.71 152.28
L727.38 162
L728.05 142.56
L728.719 155.52
L729.389 162
L730.058 145.8
L730.728 191.16
L731.398 87.48
L732.067 217.08
L732.737 191.16
L733.406 90.72
L734.076 181.44
L734.746 139.32
L735.415 162
L736.085 162
L736.754 116.64
L737.424 181.44
L738.094 204.12
L738.763 162
L739.433 145.8
L740.102 110.16
L740.772 171.72
L741.442 187.92
L742.111 207.36
L742.781 165.24
L743.45 149.04
L744.12 116.64
L745.459 162
L746.129 152.28
L746.798 165.24
L747.468 162
L748.138 217.08
L748.807 155.52
L749.477 139.32
L750.146 110.16
L750.816 139.32
L751.486 184.68
L752.155 139.32
L752.825 106.92
L753.494 142.56
L754.164 81
L754.834 103.68
L755.503 155.52
L756.173 106.92
L756.842 174.96
L757.512 162
L758.182 129.6
L758.851 155.52
L759.521 162
L760.19 145.8
L760.86 174.96
L761.53 162
L762.199 113.4
L762.869 187.92
L763.538 149.04
L764.208 168.48
L764.878 181.44
L765.547 126.36
L766.217 207.36
L766.886 113.4
L767.556 152.28
L768.226 136.08
L768.895 165.24
L769.565 123.12
L770.234 129.6
L770.904 152.28
L771.574 200.88
L772.243 145.8
L772.913 142.56
L773.582 142.56
L774.252 136.08
L774.922 181.44
L775.591 181.44
L776.261 158.76
L776.93 162
L777.6 191.16
L777.6 191.16" style="fill:none;stroke:#008000;stroke-linecap:square;"/>
   </g>
   <g id="line2d_3">
    <path clip-path="url(#p7ceb695115)" d="
M108 583.2
L116.035 583.2
L116.705 579.96
L120.053 579.96
L120.722 583.2
L122.062 583.2
L122.731 579.96
L125.41 579.96
L126.079 583.2
L136.793 583.2
L137.462 579.96
L140.141 579.96
L140.81 583.2
L142.15 583.2
L142.819 579.96
L144.158 579.96
L144.828 583.2
L167.594 583.2
L168.264 579.96
L171.612 579.96
L172.282 576.72
L172.951 576.72
L173.621 583.2
L174.96 583.2
L175.63 579.96
L176.299 579.96
L176.969 583.2
L177.638 579.96
L178.978 579.96
L179.647 583.2
L182.326 583.2
L182.995 579.96
L185.004 579.96
L185.674 583.2
L196.387 583.2
L197.057 579.96
L201.074 579.96
L201.744 583.2
L203.083 583.2
L203.753 579.96
L205.762 579.96
L206.431 583.2
L219.823 583.2
L220.493 579.96
L225.18 579.96
L225.85 583.2
L229.867 583.2
L230.537 579.96
L231.876 579.96
L232.546 583.2
L241.25 583.2
L241.92 579.96
L242.59 583.2
L247.277 583.2
L247.946 579.96
L263.347 579.96
L264.017 576.72
L264.686 576.72
L265.356 579.96
L270.713 579.96
L271.382 583.2
L274.061 583.2
L274.73 579.96
L276.07 579.96
L276.739 583.2
L283.435 583.2
L284.105 579.96
L284.774 583.2
L316.915 583.2
L317.585 579.96
L319.594 579.96
L320.263 583.2
L320.933 583.2
L321.602 579.96
L324.281 579.96
L324.95 583.2
L351.065 583.2
L351.734 579.96
L361.109 579.96
L361.778 583.2
L371.822 583.2
L372.492 579.96
L378.518 579.96
L379.188 583.2
L389.902 583.2
L390.571 579.96
L393.919 579.96
L394.589 583.2
L404.633 583.2
L405.302 579.96
L406.642 579.96
L407.311 583.2
L407.981 579.96
L409.32 579.96
L409.99 583.2
L411.329 583.2
L411.998 579.96
L420.703 579.96
L421.373 583.2
L426.06 583.2
L426.73 579.96
L429.408 579.96
L430.078 583.2
L430.747 579.96
L435.434 579.96
L436.104 576.72
L438.113 576.72
L438.782 579.96
L442.13 579.96
L442.8 583.2
L443.47 583.2
L444.139 579.96
L444.809 583.2
L446.818 573.48
L447.487 563.76
L448.157 560.52
L448.826 573.48
L449.496 567
L450.166 570.24
L450.835 563.76
L451.505 541.08
L452.174 560.52
L452.844 544.32
L453.514 550.8
L454.183 560.52
L454.853 541.08
L455.522 557.28
L456.192 541.08
L457.531 554.04
L458.201 515.16
L458.87 541.08
L459.54 541.08
L460.21 554.04
L460.879 524.88
L461.549 537.84
L462.218 528.12
L463.558 502.2
L464.227 528.12
L464.897 541.08
L465.566 541.08
L466.236 537.84
L466.906 511.92
L467.575 531.36
L468.245 531.36
L468.914 505.44
L469.584 534.6
L470.254 515.16
L470.923 531.36
L471.593 541.08
L472.262 541.08
L472.932 521.64
L473.602 515.16
L474.271 511.92
L474.941 554.04
L475.61 550.8
L476.28 515.16
L476.95 518.4
L477.619 531.36
L478.289 518.4
L478.958 524.88
L479.628 541.08
L480.298 498.96
L480.967 473.04
L481.637 511.92
L482.306 524.88
L482.976 518.4
L483.646 524.88
L484.315 515.16
L484.985 524.88
L485.654 524.88
L486.324 502.2
L486.994 489.24
L487.663 524.88
L488.333 511.92
L489.002 515.16
L489.672 505.44
L490.342 511.92
L491.011 524.88
L491.681 508.68
L492.35 508.68
L493.02 521.64
L493.69 524.88
L494.359 557.28
L495.029 524.88
L495.698 531.36
L496.368 498.96
L497.038 521.64
L497.707 528.12
L498.377 508.68
L499.046 547.56
L499.716 495.72
L500.386 518.4
L501.055 521.64
L502.394 534.6
L503.064 528.12
L503.734 508.68
L504.403 528.12
L505.073 505.44
L505.742 524.88
L506.412 508.68
L507.082 521.64
L507.751 521.64
L508.421 502.2
L509.09 534.6
L509.76 521.64
L510.43 518.4
L511.099 511.92
L511.769 524.88
L512.438 511.92
L513.108 502.2
L513.778 521.64
L514.447 511.92
L515.117 482.76
L515.786 518.4
L516.456 537.84
L517.126 492.48
L517.795 505.44
L518.465 524.88
L519.134 531.36
L520.474 524.88
L521.813 498.96
L522.482 531.36
L523.152 534.6
L523.822 515.16
L524.491 511.92
L525.161 515.16
L525.83 508.68
L526.5 534.6
L527.17 521.64
L527.839 515.16
L528.509 531.36
L529.178 534.6
L529.848 528.12
L530.518 515.16
L531.187 524.88
L531.857 528.12
L532.526 498.96
L533.866 531.36
L534.535 515.16
L535.205 515.16
L535.874 482.76
L536.544 511.92
L537.214 479.52
L537.883 511.92
L538.553 521.64
L539.222 521.64
L539.892 518.4
L541.231 518.4
L541.901 528.12
L542.57 528.12
L543.24 495.72
L543.91 502.2
L544.579 534.6
L545.249 515.16
L545.918 518.4
L546.588 534.6
L547.258 541.08
L547.927 505.44
L548.597 521.64
L549.266 518.4
L549.936 489.24
L550.606 524.88
L551.275 511.92
L551.945 508.68
L552.614 518.4
L553.284 534.6
L553.954 521.64
L554.623 498.96
L555.962 511.92
L556.632 489.24
L557.302 524.88
L557.971 495.72
L558.641 479.52
L559.31 492.48
L560.65 531.36
L561.319 511.92
L562.658 511.92
L563.328 515.16
L564.667 495.72
L565.337 515.16
L566.006 495.72
L566.676 528.12
L567.346 531.36
L568.015 528.12
L568.685 486
L569.354 524.88
L570.024 511.92
L570.694 505.44
L571.363 508.68
L572.033 528.12
L572.702 508.68
L573.372 515.16
L574.042 515.16
L574.711 505.44
L575.381 511.92
L576.05 498.96
L576.72 505.44
L577.39 502.2
L578.059 531.36
L578.729 528.12
L579.398 515.16
L580.068 518.4
L580.738 495.72
L581.407 495.72
L582.077 482.76
L582.746 515.16
L583.416 505.44
L584.086 508.68
L584.755 498.96
L585.425 508.68
L586.094 492.48
L586.764 508.68
L587.434 531.36
L588.773 505.44
L589.442 524.88
L590.112 511.92
L590.782 515.16
L591.451 521.64
L592.121 486
L592.79 492.48
L593.46 518.4
L594.13 531.36
L594.799 502.2
L595.469 482.76
L596.138 518.4
L596.808 521.64
L597.478 505.44
L598.147 482.76
L598.817 479.52
L599.486 486
L600.156 518.4
L600.826 521.64
L601.495 466.56
L602.165 498.96
L602.834 498.96
L603.504 505.44
L604.174 489.24
L604.843 502.2
L605.513 511.92
L606.182 511.92
L606.852 482.76
L607.522 489.24
L608.191 486
L608.861 486
L609.53 508.68
L610.2 492.48
L610.87 479.52
L611.539 524.88
L612.209 502.2
L612.878 498.96
L613.548 492.48
L614.218 482.76
L614.887 508.68
L615.557 492.48
L616.226 498.96
L616.896 476.28
L617.566 482.76
L618.235 502.2
L619.574 521.64
L620.244 450.36
L620.914 508.68
L621.583 505.44
L622.253 518.4
L622.922 473.04
L623.592 463.32
L624.262 502.2
L624.931 505.44
L625.601 479.52
L626.27 492.48
L626.94 473.04
L627.61 511.92
L628.279 495.72
L628.949 492.48
L629.618 495.72
L630.288 460.08
L630.958 479.52
L631.627 473.04
L632.297 498.96
L632.966 498.96
L633.636 492.48
L634.306 489.24
L634.975 489.24
L635.645 508.68
L636.314 482.76
L636.984 502.2
L637.654 482.76
L638.323 511.92
L638.993 453.6
L639.662 460.08
L640.332 505.44
L641.002 495.72
L641.671 482.76
L642.341 476.28
L643.01 486
L643.68 486
L644.35 508.68
L645.019 473.04
L645.689 486
L646.358 518.4
L647.028 492.48
L647.698 508.68
L648.367 473.04
L649.037 502.2
L649.706 443.88
L650.376 473.04
L651.046 492.48
L651.715 495.72
L652.385 476.28
L653.054 476.28
L653.724 469.8
L654.394 440.64
L655.063 456.84
L655.733 453.6
L657.072 473.04
L657.742 466.56
L658.411 456.84
L659.081 476.28
L659.75 460.08
L660.42 473.04
L661.09 505.44
L661.759 466.56
L662.429 482.76
L663.098 492.48
L663.768 463.32
L664.438 460.08
L665.107 473.04
L665.777 492.48
L666.446 489.24
L667.116 508.68
L667.786 476.28
L668.455 495.72
L669.125 456.84
L669.794 460.08
L670.464 473.04
L671.134 473.04
L671.803 489.24
L672.473 495.72
L673.142 511.92
L673.812 460.08
L674.482 505.44
L675.151 476.28
L675.821 492.48
L677.16 498.96
L677.83 476.28
L678.499 502.2
L679.169 498.96
L679.838 479.52
L680.508 453.6
L681.178 489.24
L681.847 502.2
L682.517 495.72
L683.186 476.28
L683.856 450.36
L684.526 492.48
L685.195 492.48
L685.865 469.8
L686.534 495.72
L687.204 469.8
L687.874 495.72
L688.543 511.92
L689.213 486
L689.882 486
L690.552 511.92
L691.222 466.56
L691.891 492.48
L692.561 492.48
L693.23 482.76
L693.9 505.44
L694.57 495.72
L695.239 508.68
L695.909 476.28
L696.578 482.76
L697.248 460.08
L697.918 505.44
L698.587 489.24
L699.257 466.56
L699.926 456.84
L700.596 476.28
L701.935 463.32
L702.605 486
L703.274 515.16
L703.944 489.24
L704.614 486
L705.283 498.96
L705.953 508.68
L706.622 476.28
L707.292 489.24
L707.962 482.76
L708.631 482.76
L709.301 505.44
L709.97 460.08
L710.64 495.72
L711.31 463.32
L711.979 492.48
L712.649 453.6
L713.318 447.12
L713.988 473.04
L714.658 482.76
L715.327 489.24
L715.997 492.48
L716.666 511.92
L717.336 502.2
L718.006 505.44
L718.675 460.08
L719.345 456.84
L720.014 492.48
L720.684 486
L721.354 447.12
L722.023 486
L722.693 414.72
L723.362 515.16
L724.032 463.32
L724.702 476.28
L725.371 486
L726.041 476.28
L726.71 476.28
L727.38 482.76
L728.05 492.48
L728.719 482.76
L729.389 502.2
L730.058 476.28
L730.728 463.32
L731.398 489.24
L732.067 469.8
L732.737 469.8
L733.406 489.24
L734.076 482.76
L734.746 473.04
L735.415 476.28
L736.085 456.84
L736.754 447.12
L737.424 453.6
L738.094 469.8
L738.763 476.28
L739.433 489.24
L740.102 489.24
L740.772 518.4
L741.442 508.68
L742.111 486
L742.781 453.6
L743.45 486
L744.12 473.04
L744.79 473.04
L745.459 511.92
L746.129 479.52
L746.798 505.44
L747.468 482.76
L748.138 473.04
L748.807 498.96
L749.477 492.48
L750.816 492.48
L751.486 450.36
L752.155 486
L752.825 492.48
L753.494 486
L754.164 482.76
L754.834 460.08
L755.503 463.32
L756.173 495.72
L756.842 456.84
L757.512 492.48
L758.182 440.64
L758.851 492.48
L759.521 492.48
L760.19 495.72
L760.86 473.04
L761.53 469.8
L762.199 476.28
L762.869 479.52
L763.538 460.08
L764.208 453.6
L764.878 489.24
L765.547 443.88
L766.217 492.48
L766.886 466.56
L767.556 508.68
L768.895 460.08
L769.565 463.32
L770.234 460.08
L770.904 482.76
L771.574 427.68
L772.243 489.24
L772.913 469.8
L773.582 460.08
L774.252 498.96
L774.922 469.8
L775.591 450.36
L776.261 405
L776.93 463.32
L777.6 440.64
L777.6 440.64" style="fill:none;stroke:#0000ff;stroke-linecap:square;"/>
   </g>
   <g id="patch_3">
    <path d="
M108 583.2
L777.6 583.2" style="fill:none;stroke:#000000;stroke-linecap:square;stroke-linejoin:miter;"/>
   </g>
   <g id="patch_4">
    <path d="
M108 64.8
L777.6 64.8" style="fill:none;stroke:#000000;stroke-linecap:square;stroke-linejoin:miter;"/>
   </g>
   <g id="patch_5">
    <path d="
M777.6 583.2
L777.6 64.8" style="fill:none;stroke:#000000;stroke-linecap:square;stroke-linejoin:miter;"/>
   </g>
   <g id="patch_6">
    <path d="
M108 583.2
L108 64.8" style="fill:none;stroke:#000000;stroke-linecap:square;stroke-linejoin:miter;"/>
   </g>
   <g id="matplotlib.axis_1">
    <g id="xtick_1">
     <g id="line2d_4">
      <defs>
       <path d="
M0 0
L0 -4" id="mc7db9fdffb" style="stroke:#000000;stroke-width:0.5;"/>
      </defs>
      <g>
       <use style="stroke:#000000;stroke-width:0.5;" x="108.0" xlink:href="#mc7db9fdffb" y="583.2"/>
      </g>
     </g>
     <g id="line2d_5">
      <defs>
       <path d="
M0 0
L0 4" id="m5a7d422ac3" style="stroke:#000000;stroke-width:0.5;"/>
      </defs>
      <g>
       <use style="stroke:#000000;stroke-width:0.5;" x="108.0" xlink:href="#m5a7d422ac3" y="64.8"/>
      </g>
     </g>
     <g id="text_1">
      <!-- 0 -->
      <defs>
       <path d="
M31.7812 66.4062
Q24.1719 66.4062 20.3281 58.9062
Q16.5 51.4219 16.5 36.375
Q16.5 21.3906 20.3281 13.8906
Q24.1719 6.39062 31.7812 6.39062
Q39.4531 6.39062 43.2812 13.8906
Q47.125 21.3906 47.125 36.375
Q47.125 51.4219 43.2812 58.9062
Q39.4531 66.4062 31.7812 66.4062
M31.7812 74.2188
Q44.0469 74.2188 50.5156 64.5156
Q56.9844 54.8281 56.9844 36.375
Q56.9844 17.9688 50.5156 8.26562
Q44.0469 -1.42188 31.7812 -1.42188
Q19.5312 -1.42188 13.0625 8.26562
Q6.59375 17.9688 6.59375 36.375
Q6.59375 54.8281 13.0625 64.5156
Q19.5312 74.2188 31.7812 74.2188" id="BitstreamVeraSans-Roman-30"/>
      </defs>
      <g transform="translate(104.9765625 596.318125)scale(0.12 -0.12)">
       <use xlink:href="#BitstreamVeraSans-Roman-30"/>
      </g>
     </g>
    </g>
    <g id="xtick_2">
     <g id="line2d_6">
      <g>
       <use style="stroke:#000000;stroke-width:0.5;" x="275.4" xlink:href="#mc7db9fdffb" y="583.2"/>
      </g>
     </g>
     <g id="line2d_7">
      <g>
       <use style="stroke:#000000;stroke-width:0.5;" x="275.4" xlink:href="#m5a7d422ac3" y="64.8"/>
      </g>
     </g>
     <g id="text_2">
      <!-- 50000 -->
      <defs>
       <path d="
M10.7969 72.9062
L49.5156 72.9062
L49.5156 64.5938
L19.8281 64.5938
L19.8281 46.7344
Q21.9688 47.4688 24.1094 47.8281
Q26.2656 48.1875 28.4219 48.1875
Q40.625 48.1875 47.75 41.5
Q54.8906 34.8125 54.8906 23.3906
Q54.8906 11.625 47.5625 5.09375
Q40.2344 -1.42188 26.9062 -1.42188
Q22.3125 -1.42188 17.5469 -0.640625
Q12.7969 0.140625 7.71875 1.70312
L7.71875 11.625
Q12.1094 9.23438 16.7969 8.0625
Q21.4844 6.89062 26.7031 6.89062
Q35.1562 6.89062 40.0781 11.3281
Q45.0156 15.7656 45.0156 23.3906
Q45.0156 31 40.0781 35.4375
Q35.1562 39.8906 26.7031 39.8906
Q22.75 39.8906 18.8125 39.0156
Q14.8906 38.1406 10.7969 36.2812
z
" id="BitstreamVeraSans-Roman-35"/>
      </defs>
      <g transform="translate(257.1740625 596.318125)scale(0.12 -0.12)">
       <use xlink:href="#BitstreamVeraSans-Roman-35"/>
       <use x="63.623046875" xlink:href="#BitstreamVeraSans-Roman-30"/>
       <use x="127.24609375" xlink:href="#BitstreamVeraSans-Roman-30"/>
       <use x="190.869140625" xlink:href="#BitstreamVeraSans-Roman-30"/>
       <use x="254.4921875" xlink:href="#BitstreamVeraSans-Roman-30"/>
      </g>
     </g>
    </g>
    <g id="xtick_3">
     <g id="line2d_8">
      <g>
       <use style="stroke:#000000;stroke-width:0.5;" x="442.8" xlink:href="#mc7db9fdffb" y="583.2"/>
      </g>
     </g>
     <g id="line2d_9">
      <g>
       <use style="stroke:#000000;stroke-width:0.5;" x="442.8" xlink:href="#m5a7d422ac3" y="64.8"/>
      </g>
     </g>
     <g id="text_3">
      <!-- 100000 -->
      <defs>
       <path d="
M12.4062 8.29688
L28.5156 8.29688
L28.5156 63.9219
L10.9844 60.4062
L10.9844 69.3906
L28.4219 72.9062
L38.2812 72.9062
L38.2812 8.29688
L54.3906 8.29688
L54.3906 0
L12.4062 0
z
" id="BitstreamVeraSans-Roman-31"/>
      </defs>
      <g transform="translate(420.9525 596.318125)scale(0.12 -0.12)">
       <use xlink:href="#BitstreamVeraSans-Roman-31"/>
       <use x="63.623046875" xlink:href="#BitstreamVeraSans-Roman-30"/>
       <use x="127.24609375" xlink:href="#BitstreamVeraSans-Roman-30"/>
       <use x="190.869140625" xlink:href="#BitstreamVeraSans-Roman-30"/>
       <use x="254.4921875" xlink:href="#BitstreamVeraSans-Roman-30"/>
       <use x="318.115234375" xlink:href="#BitstreamVeraSans-Roman-30"/>
      </g>
     </g>
    </g>
    <g id="xtick_4">
     <g id="line2d_10">
      <g>
       <use style="stroke:#000000;stroke-width:0.5;" x="610.2" xlink:href="#mc7db9fdffb" y="583.2"/>
      </g>
     </g>
     <g id="line2d_11">
      <g>
       <use style="stroke:#000000;stroke-width:0.5;" x="610.2" xlink:href="#m5a7d422ac3" y="64.8"/>
      </g>
     </g>
     <g id="text_4">
      <!-- 150000 -->
      <g transform="translate(588.3525 596.318125)scale(0.12 -0.12)">
       <use xlink:href="#BitstreamVeraSans-Roman-31"/>
       <use x="63.623046875" xlink:href="#BitstreamVeraSans-Roman-35"/>
       <use x="127.24609375" xlink:href="#BitstreamVeraSans-Roman-30"/>
       <use x="190.869140625" xlink:href="#BitstreamVeraSans-Roman-30"/>
       <use x="254.4921875" xlink:href="#BitstreamVeraSans-Roman-30"/>
       <use x="318.115234375" xlink:href="#BitstreamVeraSans-Roman-30"/>
      </g>
     </g>
    </g>
    <g id="xtick_5">
     <g id="line2d_12">
      <g>
       <use style="stroke:#000000;stroke-width:0.5;" x="777.6" xlink:href="#mc7db9fdffb" y="583.2"/>
      </g>
     </g>
     <g id="line2d_13">
      <g>
       <use style="stroke:#000000;stroke-width:0.5;" x="777.6" xlink:href="#m5a7d422ac3" y="64.8"/>
      </g>
     </g>
     <g id="text_5">
      <!-- 200000 -->
      <defs>
       <path d="
M19.1875 8.29688
L53.6094 8.29688
L53.6094 0
L7.32812 0
L7.32812 8.29688
Q12.9375 14.1094 22.625 23.8906
Q32.3281 33.6875 34.8125 36.5312
Q39.5469 41.8438 41.4219 45.5312
Q43.3125 49.2188 43.3125 52.7812
Q43.3125 58.5938 39.2344 62.25
Q35.1562 65.9219 28.6094 65.9219
Q23.9688 65.9219 18.8125 64.3125
Q13.6719 62.7031 7.8125 59.4219
L7.8125 69.3906
Q13.7656 71.7812 18.9375 73
Q24.125 74.2188 28.4219 74.2188
Q39.75 74.2188 46.4844 68.5469
Q53.2188 62.8906 53.2188 53.4219
Q53.2188 48.9219 51.5312 44.8906
Q49.8594 40.875 45.4062 35.4062
Q44.1875 33.9844 37.6406 27.2188
Q31.1094 20.4531 19.1875 8.29688" id="BitstreamVeraSans-Roman-32"/>
      </defs>
      <g transform="translate(755.533125 596.318125)scale(0.12 -0.12)">
       <use xlink:href="#BitstreamVeraSans-Roman-32"/>
       <use x="63.623046875" xlink:href="#BitstreamVeraSans-Roman-30"/>
       <use x="127.24609375" xlink:href="#BitstreamVeraSans-Roman-30"/>
       <use x="190.869140625" xlink:href="#BitstreamVeraSans-Roman-30"/>
       <use x="254.4921875" xlink:href="#BitstreamVeraSans-Roman-30"/>
       <use x="318.115234375" xlink:href="#BitstreamVeraSans-Roman-30"/>
      </g>
     </g>
    </g>
    <g id="text_6">
     <!-- t / ms -->
     <defs>
      <path d="
M52 44.1875
Q55.375 50.25 60.0625 53.125
Q64.75 56 71.0938 56
Q79.6406 56 84.2812 50.0156
Q88.9219 44.0469 88.9219 33.0156
L88.9219 0
L79.8906 0
L79.8906 32.7188
Q79.8906 40.5781 77.0938 44.375
Q74.3125 48.1875 68.6094 48.1875
Q61.625 48.1875 57.5625 43.5469
Q53.5156 38.9219 53.5156 30.9062
L53.5156 0
L44.4844 0
L44.4844 32.7188
Q44.4844 40.625 41.7031 44.4062
Q38.9219 48.1875 33.1094 48.1875
Q26.2188 48.1875 22.1562 43.5312
Q18.1094 38.875 18.1094 30.9062
L18.1094 0
L9.07812 0
L9.07812 54.6875
L18.1094 54.6875
L18.1094 46.1875
Q21.1875 51.2188 25.4844 53.6094
Q29.7812 56 35.6875 56
Q41.6562 56 45.8281 52.9688
Q50 49.9531 52 44.1875" id="BitstreamVeraSans-Roman-6d"/>
      <path d="
M18.3125 70.2188
L18.3125 54.6875
L36.8125 54.6875
L36.8125 47.7031
L18.3125 47.7031
L18.3125 18.0156
Q18.3125 11.3281 20.1406 9.42188
Q21.9688 7.51562 27.5938 7.51562
L36.8125 7.51562
L36.8125 0
L27.5938 0
Q17.1875 0 13.2344 3.875
Q9.28125 7.76562 9.28125 18.0156
L9.28125 47.7031
L2.6875 47.7031
L2.6875 54.6875
L9.28125 54.6875
L9.28125 70.2188
z
" id="BitstreamVeraSans-Roman-74"/>
      <path d="
M25.3906 72.9062
L33.6875 72.9062
L8.29688 -9.28125
L0 -9.28125
z
" id="BitstreamVeraSans-Roman-2f"/>
      <path id="BitstreamVeraSans-Roman-20"/>
      <path d="
M44.2812 53.0781
L44.2812 44.5781
Q40.4844 46.5312 36.375 47.5
Q32.2812 48.4844 27.875 48.4844
Q21.1875 48.4844 17.8438 46.4375
Q14.5 44.3906 14.5 40.2812
Q14.5 37.1562 16.8906 35.375
Q19.2812 33.5938 26.5156 31.9844
L29.5938 31.2969
Q39.1562 29.25 43.1875 25.5156
Q47.2188 21.7812 47.2188 15.0938
Q47.2188 7.46875 41.1875 3.01562
Q35.1562 -1.42188 24.6094 -1.42188
Q20.2188 -1.42188 15.4531 -0.5625
Q10.6875 0.296875 5.42188 2
L5.42188 11.2812
Q10.4062 8.6875 15.2344 7.39062
Q20.0625 6.10938 24.8125 6.10938
Q31.1562 6.10938 34.5625 8.28125
Q37.9844 10.4531 37.9844 14.4062
Q37.9844 18.0625 35.5156 20.0156
Q33.0625 21.9688 24.7031 23.7812
L21.5781 24.5156
Q13.2344 26.2656 9.51562 29.9062
Q5.8125 33.5469 5.8125 39.8906
Q5.8125 47.6094 11.2812 51.7969
Q16.75 56 26.8125 56
Q31.7812 56 36.1719 55.2656
Q40.5781 54.5469 44.2812 53.0781" id="BitstreamVeraSans-Roman-73"/>
     </defs>
     <g transform="translate(425.9353125 612.931875)scale(0.12 -0.12)">
      <use xlink:href="#BitstreamVeraSans-Roman-74"/>
      <use x="39.208984375" xlink:href="#BitstreamVeraSans-Roman-20"/>
      <use x="70.99609375" xlink:href="#BitstreamVeraSans-Roman-2f"/>
      <use x="104.6875" xlink:href="#BitstreamVeraSans-Roman-20"/>
      <use x="136.474609375" xlink:href="#BitstreamVeraSans-Roman-6d"/>
      <use x="233.88671875" xlink:href="#BitstreamVeraSans-Roman-73"/>
     </g>
    </g>
   </g>
   <g id="matplotlib.axis_2">
    <g id="ytick_1">
     <g id="line2d_14">
      <defs>
       <path d="
M0 0
L4 0" id="md7965d1ba0" style="stroke:#000000;stroke-width:0.5;"/>
      </defs>
      <g>
       <use style="stroke:#000000;stroke-width:0.5;" x="108.0" xlink:href="#md7965d1ba0" y="583.2"/>
      </g>
     </g>
     <g id="line2d_15">
      <defs>
       <path d="
M0 0
L-4 0" id="md9a1c1a7cd" style="stroke:#000000;stroke-width:0.5;"/>
      </defs>
      <g>
       <use style="stroke:#000000;stroke-width:0.5;" x="777.6" xlink:href="#md9a1c1a7cd" y="583.2"/>
      </g>
     </g>
     <g id="text_7">
      <!-- 0 -->
      <g transform="translate(97.953125 586.51125)scale(0.12 -0.12)">
       <use xlink:href="#BitstreamVeraSans-Roman-30"/>
      </g>
     </g>
    </g>
    <g id="ytick_2">
     <g id="line2d_16">
      <g>
       <use style="stroke:#000000;stroke-width:0.5;" x="108.0" xlink:href="#md7965d1ba0" y="518.4"/>
      </g>
     </g>
     <g id="line2d_17">
      <g>
       <use style="stroke:#000000;stroke-width:0.5;" x="777.6" xlink:href="#md9a1c1a7cd" y="518.4"/>
      </g>
     </g>
     <g id="text_8">
      <!-- 20 -->
      <g transform="translate(90.40625 521.71125)scale(0.12 -0.12)">
       <use xlink:href="#BitstreamVeraSans-Roman-32"/>
       <use x="63.623046875" xlink:href="#BitstreamVeraSans-Roman-30"/>
      </g>
     </g>
    </g>
    <g id="ytick_3">
     <g id="line2d_18">
      <g>
       <use style="stroke:#000000;stroke-width:0.5;" x="108.0" xlink:href="#md7965d1ba0" y="453.6"/>
      </g>
     </g>
     <g id="line2d_19">
      <g>
       <use style="stroke:#000000;stroke-width:0.5;" x="777.6" xlink:href="#md9a1c1a7cd" y="453.6"/>
      </g>
     </g>
     <g id="text_9">
      <!-- 40 -->
      <defs>
       <path d="
M37.7969 64.3125
L12.8906 25.3906
L37.7969 25.3906
z

M35.2031 72.9062
L47.6094 72.9062
L47.6094 25.3906
L58.0156 25.3906
L58.0156 17.1875
L47.6094 17.1875
L47.6094 0
L37.7969 0
L37.7969 17.1875
L4.89062 17.1875
L4.89062 26.7031
z
" id="BitstreamVeraSans-Roman-34"/>
      </defs>
      <g transform="translate(90.11375 456.91125)scale(0.12 -0.12)">
       <use xlink:href="#BitstreamVeraSans-Roman-34"/>
       <use x="63.623046875" xlink:href="#BitstreamVeraSans-Roman-30"/>
      </g>
     </g>
    </g>
    <g id="ytick_4">
     <g id="line2d_20">
      <g>
       <use style="stroke:#000000;stroke-width:0.5;" x="108.0" xlink:href="#md7965d1ba0" y="388.8"/>
      </g>
     </g>
     <g id="line2d_21">
      <g>
       <use style="stroke:#000000;stroke-width:0.5;" x="777.6" xlink:href="#md9a1c1a7cd" y="388.8"/>
      </g>
     </g>
     <g id="text_10">
      <!-- 60 -->
      <defs>
       <path d="
M33.0156 40.375
Q26.375 40.375 22.4844 35.8281
Q18.6094 31.2969 18.6094 23.3906
Q18.6094 15.5312 22.4844 10.9531
Q26.375 6.39062 33.0156 6.39062
Q39.6562 6.39062 43.5312 10.9531
Q47.4062 15.5312 47.4062 23.3906
Q47.4062 31.2969 43.5312 35.8281
Q39.6562 40.375 33.0156 40.375
M52.5938 71.2969
L52.5938 62.3125
Q48.875 64.0625 45.0938 64.9844
Q41.3125 65.9219 37.5938 65.9219
Q27.8281 65.9219 22.6719 59.3281
Q17.5312 52.7344 16.7969 39.4062
Q19.6719 43.6562 24.0156 45.9219
Q28.375 48.1875 33.5938 48.1875
Q44.5781 48.1875 50.9531 41.5156
Q57.3281 34.8594 57.3281 23.3906
Q57.3281 12.1562 50.6875 5.35938
Q44.0469 -1.42188 33.0156 -1.42188
Q20.3594 -1.42188 13.6719 8.26562
Q6.98438 17.9688 6.98438 36.375
Q6.98438 53.6562 15.1875 63.9375
Q23.3906 74.2188 37.2031 74.2188
Q40.9219 74.2188 44.7031 73.4844
Q48.4844 72.75 52.5938 71.2969" id="BitstreamVeraSans-Roman-36"/>
      </defs>
      <g transform="translate(90.365 392.11125)scale(0.12 -0.12)">
       <use xlink:href="#BitstreamVeraSans-Roman-36"/>
       <use x="63.623046875" xlink:href="#BitstreamVeraSans-Roman-30"/>
      </g>
     </g>
    </g>
    <g id="ytick_5">
     <g id="line2d_22">
      <g>
       <use style="stroke:#000000;stroke-width:0.5;" x="108.0" xlink:href="#md7965d1ba0" y="324.0"/>
      </g>
     </g>
     <g id="line2d_23">
      <g>
       <use style="stroke:#000000;stroke-width:0.5;" x="777.6" xlink:href="#md9a1c1a7cd" y="324.0"/>
      </g>
     </g>
     <g id="text_11">
      <!-- 80 -->
      <defs>
       <path d="
M31.7812 34.625
Q24.75 34.625 20.7188 30.8594
Q16.7031 27.0938 16.7031 20.5156
Q16.7031 13.9219 20.7188 10.1562
Q24.75 6.39062 31.7812 6.39062
Q38.8125 6.39062 42.8594 10.1719
Q46.9219 13.9688 46.9219 20.5156
Q46.9219 27.0938 42.8906 30.8594
Q38.875 34.625 31.7812 34.625
M21.9219 38.8125
Q15.5781 40.375 12.0312 44.7188
Q8.5 49.0781 8.5 55.3281
Q8.5 64.0625 14.7188 69.1406
Q20.9531 74.2188 31.7812 74.2188
Q42.6719 74.2188 48.875 69.1406
Q55.0781 64.0625 55.0781 55.3281
Q55.0781 49.0781 51.5312 44.7188
Q48 40.375 41.7031 38.8125
Q48.8281 37.1562 52.7969 32.3125
Q56.7812 27.4844 56.7812 20.5156
Q56.7812 9.90625 50.3125 4.23438
Q43.8438 -1.42188 31.7812 -1.42188
Q19.7344 -1.42188 13.25 4.23438
Q6.78125 9.90625 6.78125 20.5156
Q6.78125 27.4844 10.7812 32.3125
Q14.7969 37.1562 21.9219 38.8125
M18.3125 54.3906
Q18.3125 48.7344 21.8438 45.5625
Q25.3906 42.3906 31.7812 42.3906
Q38.1406 42.3906 41.7188 45.5625
Q45.3125 48.7344 45.3125 54.3906
Q45.3125 60.0625 41.7188 63.2344
Q38.1406 66.4062 31.7812 66.4062
Q25.3906 66.4062 21.8438 63.2344
Q18.3125 60.0625 18.3125 54.3906" id="BitstreamVeraSans-Roman-38"/>
      </defs>
      <g transform="translate(90.340625 327.31125)scale(0.12 -0.12)">
       <use xlink:href="#BitstreamVeraSans-Roman-38"/>
       <use x="63.623046875" xlink:href="#BitstreamVeraSans-Roman-30"/>
      </g>
     </g>
    </g>
    <g id="ytick_6">
     <g id="line2d_24">
      <g>
       <use style="stroke:#000000;stroke-width:0.5;" x="108.0" xlink:href="#md7965d1ba0" y="259.2"/>
      </g>
     </g>
     <g id="line2d_25">
      <g>
       <use style="stroke:#000000;stroke-width:0.5;" x="777.6" xlink:href="#md9a1c1a7cd" y="259.2"/>
      </g>
     </g>
     <g id="text_12">
      <!-- 100 -->
      <g transform="translate(83.21 262.51125)scale(0.12 -0.12)">
       <use xlink:href="#BitstreamVeraSans-Roman-31"/>
       <use x="63.623046875" xlink:href="#BitstreamVeraSans-Roman-30"/>
       <use x="127.24609375" xlink:href="#BitstreamVeraSans-Roman-30"/>
      </g>
     </g>
    </g>
    <g id="ytick_7">
     <g id="line2d_26">
      <g>
       <use style="stroke:#000000;stroke-width:0.5;" x="108.0" xlink:href="#md7965d1ba0" y="194.4"/>
      </g>
     </g>
     <g id="line2d_27">
      <g>
       <use style="stroke:#000000;stroke-width:0.5;" x="777.6" xlink:href="#md9a1c1a7cd" y="194.4"/>
      </g>
     </g>
     <g id="text_13">
      <!-- 120 -->
      <g transform="translate(83.21 197.71125)scale(0.12 -0.12)">
       <use xlink:href="#BitstreamVeraSans-Roman-31"/>
       <use x="63.623046875" xlink:href="#BitstreamVeraSans-Roman-32"/>
       <use x="127.24609375" xlink:href="#BitstreamVeraSans-Roman-30"/>
      </g>
     </g>
    </g>
    <g id="ytick_8">
     <g id="line2d_28">
      <g>
       <use style="stroke:#000000;stroke-width:0.5;" x="108.0" xlink:href="#md7965d1ba0" y="129.6"/>
      </g>
     </g>
     <g id="line2d_29">
      <g>
       <use style="stroke:#000000;stroke-width:0.5;" x="777.6" xlink:href="#md9a1c1a7cd" y="129.6"/>
      </g>
     </g>
     <g id="text_14">
      <!-- 140 -->
      <g transform="translate(83.21 132.91125)scale(0.12 -0.12)">
       <use xlink:href="#BitstreamVeraSans-Roman-31"/>
       <use x="63.623046875" xlink:href="#BitstreamVeraSans-Roman-34"/>
       <use x="127.24609375" xlink:href="#BitstreamVeraSans-Roman-30"/>
      </g>
     </g>
    </g>
    <g id="ytick_9">
     <g id="line2d_30">
      <g>
       <use style="stroke:#000000;stroke-width:0.5;" x="108.0" xlink:href="#md7965d1ba0" y="64.8"/>
      </g>
     </g>
     <g id="line2d_31">
      <g>
       <use style="stroke:#000000;stroke-width:0.5;" x="777.6" xlink:href="#md9a1c1a7cd" y="64.8"/>
      </g>
     </g>
     <g id="text_15">
      <!-- 160 -->
      <g transform="translate(83.21 68.11125)scale(0.12 -0.12)">
       <use xlink:href="#BitstreamVeraSans-Roman-31"/>
       <use x="63.623046875" xlink:href="#BitstreamVeraSans-Roman-36"/>
       <use x="127.24609375" xlink:href="#BitstreamVeraSans-Roman-30"/>
      </g>
     </g>
    </g>
    <g id="text_16">
     <!-- particle numbers -->
     <defs>
      <path d="
M9.42188 75.9844
L18.4062 75.9844
L18.4062 0
L9.42188 0
z
" id="BitstreamVeraSans-Roman-6c"/>
      <path d="
M48.6875 27.2969
Q48.6875 37.2031 44.6094 42.8438
Q40.5312 48.4844 33.4062 48.4844
Q26.2656 48.4844 22.1875 42.8438
Q18.1094 37.2031 18.1094 27.2969
Q18.1094 17.3906 22.1875 11.75
Q26.2656 6.10938 33.4062 6.10938
Q40.5312 6.10938 44.6094 11.75
Q48.6875 17.3906 48.6875 27.2969
M18.1094 46.3906
Q20.9531 51.2656 25.2656 53.625
Q29.5938 56 35.5938 56
Q45.5625 56 51.7812 48.0938
Q58.0156 40.1875 58.0156 27.2969
Q58.0156 14.4062 51.7812 6.48438
Q45.5625 -1.42188 35.5938 -1.42188
Q29.5938 -1.42188 25.2656 0.953125
Q20.9531 3.32812 18.1094 8.20312
L18.1094 0
L9.07812 0
L9.07812 75.9844
L18.1094 75.9844
z
" id="BitstreamVeraSans-Roman-62"/>
      <path d="
M41.1094 46.2969
Q39.5938 47.1719 37.8125 47.5781
Q36.0312 48 33.8906 48
Q26.2656 48 22.1875 43.0469
Q18.1094 38.0938 18.1094 28.8125
L18.1094 0
L9.07812 0
L9.07812 54.6875
L18.1094 54.6875
L18.1094 46.1875
Q20.9531 51.1719 25.4844 53.5781
Q30.0312 56 36.5312 56
Q37.4531 56 38.5781 55.875
Q39.7031 55.7656 41.0625 55.5156
z
" id="BitstreamVeraSans-Roman-72"/>
      <path d="
M54.8906 33.0156
L54.8906 0
L45.9062 0
L45.9062 32.7188
Q45.9062 40.4844 42.875 44.3281
Q39.8438 48.1875 33.7969 48.1875
Q26.5156 48.1875 22.3125 43.5469
Q18.1094 38.9219 18.1094 30.9062
L18.1094 0
L9.07812 0
L9.07812 54.6875
L18.1094 54.6875
L18.1094 46.1875
Q21.3438 51.125 25.7031 53.5625
Q30.0781 56 35.7969 56
Q45.2188 56 50.0469 50.1719
Q54.8906 44.3438 54.8906 33.0156" id="BitstreamVeraSans-Roman-6e"/>
      <path d="
M56.2031 29.5938
L56.2031 25.2031
L14.8906 25.2031
Q15.4844 15.9219 20.4844 11.0625
Q25.4844 6.20312 34.4219 6.20312
Q39.5938 6.20312 44.4531 7.46875
Q49.3125 8.73438 54.1094 11.2812
L54.1094 2.78125
Q49.2656 0.734375 44.1875 -0.34375
Q39.1094 -1.42188 33.8906 -1.42188
Q20.7969 -1.42188 13.1562 6.1875
Q5.51562 13.8125 5.51562 26.8125
Q5.51562 40.2344 12.7656 48.1094
Q20.0156 56 32.3281 56
Q43.3594 56 49.7812 48.8906
Q56.2031 41.7969 56.2031 29.5938
M47.2188 32.2344
Q47.125 39.5938 43.0938 43.9844
Q39.0625 48.3906 32.4219 48.3906
Q24.9062 48.3906 20.3906 44.1406
Q15.875 39.8906 15.1875 32.1719
z
" id="BitstreamVeraSans-Roman-65"/>
      <path d="
M18.1094 8.20312
L18.1094 -20.7969
L9.07812 -20.7969
L9.07812 54.6875
L18.1094 54.6875
L18.1094 46.3906
Q20.9531 51.2656 25.2656 53.625
Q29.5938 56 35.5938 56
Q45.5625 56 51.7812 48.0938
Q58.0156 40.1875 58.0156 27.2969
Q58.0156 14.4062 51.7812 6.48438
Q45.5625 -1.42188 35.5938 -1.42188
Q29.5938 -1.42188 25.2656 0.953125
Q20.9531 3.32812 18.1094 8.20312
M48.6875 27.2969
Q48.6875 37.2031 44.6094 42.8438
Q40.5312 48.4844 33.4062 48.4844
Q26.2656 48.4844 22.1875 42.8438
Q18.1094 37.2031 18.1094 27.2969
Q18.1094 17.3906 22.1875 11.75
Q26.2656 6.10938 33.4062 6.10938
Q40.5312 6.10938 44.6094 11.75
Q48.6875 17.3906 48.6875 27.2969" id="BitstreamVeraSans-Roman-70"/>
      <path d="
M8.5 21.5781
L8.5 54.6875
L17.4844 54.6875
L17.4844 21.9219
Q17.4844 14.1562 20.5 10.2656
Q23.5312 6.39062 29.5938 6.39062
Q36.8594 6.39062 41.0781 11.0312
Q45.3125 15.6719 45.3125 23.6875
L45.3125 54.6875
L54.2969 54.6875
L54.2969 0
L45.3125 0
L45.3125 8.40625
Q42.0469 3.42188 37.7188 1
Q33.4062 -1.42188 27.6875 -1.42188
Q18.2656 -1.42188 13.375 4.4375
Q8.5 10.2969 8.5 21.5781" id="BitstreamVeraSans-Roman-75"/>
      <path d="
M48.7812 52.5938
L48.7812 44.1875
Q44.9688 46.2969 41.1406 47.3438
Q37.3125 48.3906 33.4062 48.3906
Q24.6562 48.3906 19.8125 42.8438
Q14.9844 37.3125 14.9844 27.2969
Q14.9844 17.2812 19.8125 11.7344
Q24.6562 6.20312 33.4062 6.20312
Q37.3125 6.20312 41.1406 7.25
Q44.9688 8.29688 48.7812 10.4062
L48.7812 2.09375
Q45.0156 0.34375 40.9844 -0.53125
Q36.9688 -1.42188 32.4219 -1.42188
Q20.0625 -1.42188 12.7812 6.34375
Q5.51562 14.1094 5.51562 27.2969
Q5.51562 40.6719 12.8594 48.3281
Q20.2188 56 33.0156 56
Q37.1562 56 41.1094 55.1406
Q45.0625 54.2969 48.7812 52.5938" id="BitstreamVeraSans-Roman-63"/>
      <path d="
M9.42188 54.6875
L18.4062 54.6875
L18.4062 0
L9.42188 0
z

M9.42188 75.9844
L18.4062 75.9844
L18.4062 64.5938
L9.42188 64.5938
z
" id="BitstreamVeraSans-Roman-69"/>
      <path d="
M34.2812 27.4844
Q23.3906 27.4844 19.1875 25
Q14.9844 22.5156 14.9844 16.5
Q14.9844 11.7188 18.1406 8.90625
Q21.2969 6.10938 26.7031 6.10938
Q34.1875 6.10938 38.7031 11.4062
Q43.2188 16.7031 43.2188 25.4844
L43.2188 27.4844
z

M52.2031 31.2031
L52.2031 0
L43.2188 0
L43.2188 8.29688
Q40.1406 3.32812 35.5469 0.953125
Q30.9531 -1.42188 24.3125 -1.42188
Q15.9219 -1.42188 10.9531 3.29688
Q6 8.01562 6 15.9219
Q6 25.1406 12.1719 29.8281
Q18.3594 34.5156 30.6094 34.5156
L43.2188 34.5156
L43.2188 35.4062
Q43.2188 41.6094 39.1406 45
Q35.0625 48.3906 27.6875 48.3906
Q23 48.3906 18.5469 47.2656
Q14.1094 46.1406 10.0156 43.8906
L10.0156 52.2031
Q14.9375 54.1094 19.5781 55.0469
Q24.2188 56 28.6094 56
Q40.4844 56 46.3438 49.8438
Q52.2031 43.7031 52.2031 31.2031" id="BitstreamVeraSans-Roman-61"/>
     </defs>
     <g transform="translate(75.714375 374.78625)rotate(-90.0)scale(0.12 -0.12)">
      <use xlink:href="#BitstreamVeraSans-Roman-70"/>
      <use x="63.4765625" xlink:href="#BitstreamVeraSans-Roman-61"/>
      <use x="124.755859375" xlink:href="#BitstreamVeraSans-Roman-72"/>
      <use x="165.869140625" xlink:href="#BitstreamVeraSans-Roman-74"/>
      <use x="205.078125" xlink:href="#BitstreamVeraSans-Roman-69"/>
      <use x="232.861328125" xlink:href="#BitstreamVeraSans-Roman-63"/>
      <use x="287.841796875" xlink:href="#BitstreamVeraSans-Roman-6c"/>
      <use x="315.625" xlink:href="#BitstreamVeraSans-Roman-65"/>
      <use x="377.1484375" xlink:href="#BitstreamVeraSans-Roman-20"/>
      <use x="408.935546875" xlink:href="#BitstreamVeraSans-Roman-6e"/>
      <use x="472.314453125" xlink:href="#BitstreamVeraSans-Roman-75"/>
      <use x="535.693359375" xlink:href="#BitstreamVeraSans-Roman-6d"/>
      <use x="633.10546875" xlink:href="#BitstreamVeraSans-Roman-62"/>
      <use x="696.58203125" xlink:href="#BitstreamVeraSans-Roman-65"/>
      <use x="758.10546875" xlink:href="#BitstreamVeraSans-Roman-72"/>
      <use x="799.21875" xlink:href="#BitstreamVeraSans-Roman-73"/>
     </g>
    </g>
   </g>
   <g id="legend_1">
    <g id="patch_7">
     <path d="
M111.5 101.224
L188.776 101.224
L188.776 68.3
L111.5 68.3
z
" style="fill:#ffffff;stroke:#000000;stroke-linejoin:miter;"/>
    </g>
    <g id="line2d_32">
     <path d="
M116.4 73.9689
L126.2 73.9689" style="fill:none;stroke:#ff0000;stroke-linecap:square;"/>
    </g>
    <g id="line2d_33"/>
    <g id="text_17">
     <!-- PDE2cAMP el.0 -->
     <defs>
      <path d="
M10.6875 12.4062
L21 12.4062
L21 0
L10.6875 0
z
" id="BitstreamVeraSans-Roman-2e"/>
      <path d="
M9.8125 72.9062
L24.5156 72.9062
L43.1094 23.2969
L61.8125 72.9062
L76.5156 72.9062
L76.5156 0
L66.8906 0
L66.8906 64.0156
L48.0938 14.0156
L38.1875 14.0156
L19.3906 64.0156
L19.3906 0
L9.8125 0
z
" id="BitstreamVeraSans-Roman-4d"/>
      <path d="
M34.1875 63.1875
L20.7969 26.9062
L47.6094 26.9062
z

M28.6094 72.9062
L39.7969 72.9062
L67.5781 0
L57.3281 0
L50.6875 18.7031
L17.8281 18.7031
L11.1875 0
L0.78125 0
z
" id="BitstreamVeraSans-Roman-41"/>
      <path d="
M19.6719 64.7969
L19.6719 8.10938
L31.5938 8.10938
Q46.6875 8.10938 53.6875 14.9375
Q60.6875 21.7812 60.6875 36.5312
Q60.6875 51.1719 53.6875 57.9844
Q46.6875 64.7969 31.5938 64.7969
z

M9.8125 72.9062
L30.0781 72.9062
Q51.2656 72.9062 61.1719 64.0938
Q71.0938 55.2812 71.0938 36.5312
Q71.0938 17.6719 61.125 8.82812
Q51.1719 0 30.0781 0
L9.8125 0
z
" id="BitstreamVeraSans-Roman-44"/>
      <path d="
M9.8125 72.9062
L55.9062 72.9062
L55.9062 64.5938
L19.6719 64.5938
L19.6719 43.0156
L54.3906 43.0156
L54.3906 34.7188
L19.6719 34.7188
L19.6719 8.29688
L56.7812 8.29688
L56.7812 0
L9.8125 0
z
" id="BitstreamVeraSans-Roman-45"/>
      <path d="
M19.6719 64.7969
L19.6719 37.4062
L32.0781 37.4062
Q38.9688 37.4062 42.7188 40.9688
Q46.4844 44.5312 46.4844 51.125
Q46.4844 57.6719 42.7188 61.2344
Q38.9688 64.7969 32.0781 64.7969
z

M9.8125 72.9062
L32.0781 72.9062
Q44.3438 72.9062 50.6094 67.3594
Q56.8906 61.8125 56.8906 51.125
Q56.8906 40.3281 50.6094 34.8125
Q44.3438 29.2969 32.0781 29.2969
L19.6719 29.2969
L19.6719 0
L9.8125 0
z
" id="BitstreamVeraSans-Roman-50"/>
     </defs>
     <g transform="translate(133.9 76.41890625)scale(0.07 -0.07)">
      <use xlink:href="#BitstreamVeraSans-Roman-50"/>
      <use x="60.302734375" xlink:href="#BitstreamVeraSans-Roman-44"/>
      <use x="137.3046875" xlink:href="#BitstreamVeraSans-Roman-45"/>
      <use x="200.48828125" xlink:href="#BitstreamVeraSans-Roman-32"/>
      <use x="264.111328125" xlink:href="#BitstreamVeraSans-Roman-63"/>
      <use x="319.091796875" xlink:href="#BitstreamVeraSans-Roman-41"/>
      <use x="387.5" xlink:href="#BitstreamVeraSans-Roman-4d"/>
      <use x="473.779296875" xlink:href="#BitstreamVeraSans-Roman-50"/>
      <use x="534.08203125" xlink:href="#BitstreamVeraSans-Roman-20"/>
      <use x="565.869140625" xlink:href="#BitstreamVeraSans-Roman-65"/>
      <use x="627.392578125" xlink:href="#BitstreamVeraSans-Roman-6c"/>
      <use x="655.17578125" xlink:href="#BitstreamVeraSans-Roman-2e"/>
      <use x="686.962890625" xlink:href="#BitstreamVeraSans-Roman-30"/>
     </g>
    </g>
    <g id="line2d_34">
     <path d="
M116.4 84.2436
L126.2 84.2436" style="fill:none;stroke:#008000;stroke-linecap:square;"/>
    </g>
    <g id="line2d_35"/>
    <g id="text_18">
     <!-- PDE2cAMP el.1 -->
     <g transform="translate(133.9 86.69359375)scale(0.07 -0.07)">
      <use xlink:href="#BitstreamVeraSans-Roman-50"/>
      <use x="60.302734375" xlink:href="#BitstreamVeraSans-Roman-44"/>
      <use x="137.3046875" xlink:href="#BitstreamVeraSans-Roman-45"/>
      <use x="200.48828125" xlink:href="#BitstreamVeraSans-Roman-32"/>
      <use x="264.111328125" xlink:href="#BitstreamVeraSans-Roman-63"/>
      <use x="319.091796875" xlink:href="#BitstreamVeraSans-Roman-41"/>
      <use x="387.5" xlink:href="#BitstreamVeraSans-Roman-4d"/>
      <use x="473.779296875" xlink:href="#BitstreamVeraSans-Roman-50"/>
      <use x="534.08203125" xlink:href="#BitstreamVeraSans-Roman-20"/>
      <use x="565.869140625" xlink:href="#BitstreamVeraSans-Roman-65"/>
      <use x="627.392578125" xlink:href="#BitstreamVeraSans-Roman-6c"/>
      <use x="655.17578125" xlink:href="#BitstreamVeraSans-Roman-2e"/>
      <use x="686.962890625" xlink:href="#BitstreamVeraSans-Roman-31"/>
     </g>
    </g>
    <g id="line2d_36">
     <path d="
M116.4 94.5183
L126.2 94.5183" style="fill:none;stroke:#0000ff;stroke-linecap:square;"/>
    </g>
    <g id="line2d_37"/>
    <g id="text_19">
     <!-- PDE2cAMP el.2 -->
     <g transform="translate(133.9 96.96828125)scale(0.07 -0.07)">
      <use xlink:href="#BitstreamVeraSans-Roman-50"/>
      <use x="60.302734375" xlink:href="#BitstreamVeraSans-Roman-44"/>
      <use x="137.3046875" xlink:href="#BitstreamVeraSans-Roman-45"/>
      <use x="200.48828125" xlink:href="#BitstreamVeraSans-Roman-32"/>
      <use x="264.111328125" xlink:href="#BitstreamVeraSans-Roman-63"/>
      <use x="319.091796875" xlink:href="#BitstreamVeraSans-Roman-41"/>
      <use x="387.5" xlink:href="#BitstreamVeraSans-Roman-4d"/>
      <use x="473.779296875" xlink:href="#BitstreamVeraSans-Roman-50"/>
      <use x="534.08203125" xlink:href="#BitstreamVeraSans-Roman-20"/>
      <use x="565.869140625" xlink:href="#BitstreamVeraSans-Roman-65"/>
      <use x="627.392578125" xlink:href="#BitstreamVeraSans-Roman-6c"/>
      <use x="655.17578125" xlink:href="#BitstreamVeraSans-Roman-2e"/>
      <use x="686.962890625" xlink:href="#BitstreamVeraSans-Roman-32"/>
     </g>
    </g>
   </g>
  </g>
 </g>
 <defs>
  <clipPath id="p7ceb695115">
   <rect height="518.4" width="669.6" x="108.0" y="64.8"/>
  </clipPath>
 </defs>
</svg>
