<?xml version="1.0" encoding="utf-8" standalone="no"?>
<!DOCTYPE svg PUBLIC "-//W3C//DTD SVG 1.1//EN"
  "http://www.w3.org/Graphics/SVG/1.1/DTD/svg11.dtd">
<!-- Created with matplotlib (http://matplotlib.org/) -->
<svg height="648pt" version="1.1" viewBox="0 0 864 648" width="864pt" xmlns="http://www.w3.org/2000/svg" xmlns:xlink="http://www.w3.org/1999/xlink">
 <defs>
  <style type="text/css">
*{stroke-linecap:butt;stroke-linejoin:round;}
  </style>
 </defs>
 <g id="figure_1">
  <g id="patch_1">
   <path d="
M0 648
L864 648
L864 0
L0 0
z
" style="fill:#ffffff;"/>
  </g>
  <g id="axes_1">
   <g id="patch_2">
    <path d="
M108 583.2
L777.6 583.2
L777.6 64.8
L108 64.8
z
" style="fill:#ffffff;"/>
   </g>
   <g id="line2d_1">
    <path clip-path="url(#p7ceb695115)" d="
M108 582.52
L108.67 583.135
L110.678 583.07
L111.348 582.941
L112.687 583.135
L113.357 582.973
L114.696 583.006
L116.035 583.07
L116.705 582.844
L117.374 582.746
L118.044 582.844
L118.714 582.811
L119.383 582.973
L120.053 582.584
L120.722 582.746
L121.392 582.746
L122.062 582.941
L122.731 582.973
L124.74 582.649
L125.41 582.941
L128.088 582.876
L128.758 582.973
L129.427 582.714
L130.097 582.908
L132.775 582.844
L134.114 582.973
L135.454 582.617
L136.123 582.746
L136.793 582.617
L138.132 582.908
L139.471 582.973
L140.141 582.682
L140.81 582.714
L141.48 582.941
L142.15 582.649
L142.819 582.487
L144.158 582.844
L144.828 582.649
L145.498 582.811
L146.837 582.52
L147.506 582.876
L150.185 582.811
L150.854 583.006
L153.533 582.844
L154.202 582.941
L155.542 582.876
L156.881 582.811
L157.55 583.006
L158.22 582.746
L159.559 582.844
L160.229 582.811
L160.898 582.617
L162.238 582.973
L162.907 582.746
L163.577 582.811
L164.916 582.714
L166.255 582.941
L166.925 582.941
L167.594 582.682
L168.264 582.649
L168.934 582.941
L170.942 582.649
L171.612 582.844
L172.951 582.746
L173.621 582.779
L174.29 583.006
L174.96 582.941
L175.63 583.038
L176.299 582.876
L176.969 582.941
L177.638 582.649
L178.308 582.908
L178.978 582.844
L179.647 583.006
L180.317 583.038
L180.986 582.941
L181.656 582.714
L182.995 582.973
L183.665 582.876
L184.334 583.006
L185.004 582.811
L185.674 583.006
L186.343 582.941
L187.013 583.038
L187.682 582.844
L189.022 583.006
L189.691 582.779
L190.361 582.973
L191.03 582.811
L195.048 582.973
L195.718 582.876
L196.387 582.973
L197.057 582.844
L197.726 582.908
L198.396 582.584
L199.066 582.908
L199.735 583.038
L203.083 582.844
L203.753 583.135
L206.431 582.844
L207.101 583.006
L207.77 582.908
L208.44 583.135
L209.779 583.006
L210.449 583.07
L211.118 582.941
L212.458 582.973
L213.127 582.844
L215.136 583.006
L215.806 582.973
L216.475 583.07
L217.145 582.908
L217.814 582.973
L219.154 582.876
L219.823 582.973
L220.493 582.779
L221.162 583.006
L221.832 583.07
L222.502 582.844
L227.858 583.038
L228.528 582.876
L229.867 583.07
L230.537 582.908
L231.876 583.07
L232.546 582.876
L234.554 582.876
L235.224 583.135
L239.911 583.006
L240.581 583.103
L243.929 582.973
L245.268 583.135
L247.946 583.07
L248.616 583.168
L249.955 582.973
L250.625 583.038
L251.294 582.973
L252.634 583.168
L253.303 583.006
L253.973 583.103
L255.312 583.07
L255.982 582.844
L257.321 583.135
L257.99 582.973
L258.66 583.168
L259.33 583.006
L262.008 583.038
L268.034 583.135
L269.374 583.103
L302.854 583.103
L303.523 582.973
L306.202 583.168
L318.924 583.135
L319.594 583.006
L320.933 583.103
L443.47 583.038
L444.139 582.098
L446.818 571.568
L447.487 565.445
L450.166 548.629
L450.835 547.528
L451.505 541.663
L452.174 538.618
L452.844 536.933
L453.514 533.466
L454.183 528.93
L454.853 527.278
L455.522 520.441
L456.192 516.294
L456.862 513.54
L458.201 505.44
L459.54 499.122
L460.879 488.398
L461.549 485.287
L462.888 480.913
L463.558 474.206
L464.227 473.494
L464.897 470.189
L465.566 469.022
L466.236 470.772
L466.906 466.009
L467.575 464.324
L468.245 465.394
L468.914 461.473
L469.584 465.62
L470.254 458.849
L470.923 463.352
L471.593 464.26
L472.262 464.389
L472.932 462.218
L473.602 464.033
L474.271 463.612
L474.941 467.759
L476.28 473.105
L476.95 472.133
L477.619 473.202
L478.289 473.656
L478.958 478.548
L479.628 477.673
L480.298 479.002
L480.967 480.816
L481.637 485.417
L482.306 485.611
L482.976 488.398
L483.646 488.819
L484.315 489.92
L484.985 492.221
L485.654 495.234
L486.324 495.655
L486.994 498.571
L487.663 497.567
L489.002 502.07
L489.672 501.163
L490.342 504.371
L491.011 504.922
L491.681 505.148
L493.69 508.615
L494.359 511.337
L495.029 507.546
L495.698 511.888
L496.368 510.592
L497.038 510.98
L497.707 513.994
L498.377 516.164
L499.046 515.128
L499.716 511.369
L500.386 514.091
L501.055 516.229
L501.725 516.229
L502.394 515.776
L503.064 515.743
L503.734 516.877
L504.403 518.432
L505.073 514.771
L505.742 516.812
L506.412 514.577
L507.082 517.525
L507.751 519.826
L508.421 519.178
L509.09 520.214
L509.76 521.77
L510.43 522.32
L511.099 521.316
L511.769 521.122
L512.438 520.603
L513.108 519.113
L513.778 522.45
L514.447 521.737
L515.117 521.478
L515.786 522.288
L516.456 520.733
L517.126 523.001
L517.795 523.39
L518.465 523.13
L519.134 525.722
L519.804 525.431
L520.474 523.066
L521.143 526.856
L521.813 526.111
L522.482 528.217
L523.152 528.347
L523.822 525.884
L524.491 527.083
L525.161 527.342
L525.83 526.792
L526.5 528.412
L527.17 526.306
L527.839 530.55
L528.509 530.55
L529.178 530.226
L529.848 528.152
L530.518 530.032
L531.187 528.152
L532.526 531.716
L533.196 530.356
L533.866 531.36
L534.535 531.878
L535.205 531.295
L535.874 530.194
L536.544 530.971
L537.214 532.138
L537.883 531.23
L538.553 530.615
L539.222 532.332
L539.892 531.133
L540.562 532.073
L541.231 532.073
L541.901 532.429
L542.57 533.434
L543.24 532.332
L544.579 536.155
L545.249 533.336
L545.918 532.3
L546.588 537.095
L547.258 533.174
L547.927 535.151
L548.597 534.244
L549.266 535.928
L549.936 534.73
L550.606 536.479
L551.275 535.248
L551.945 536.998
L552.614 535.28
L553.284 536.447
L553.954 535.442
L554.623 535.054
L555.293 534.503
L555.962 536.706
L556.632 536.706
L557.302 537.71
L557.971 539.266
L558.641 538.812
L559.31 536.771
L559.98 540.659
L560.65 537.84
L561.319 539.525
L561.989 539.039
L562.658 540.626
L563.998 542.797
L564.667 539.881
L565.337 541.534
L566.006 544.093
L566.676 541.339
L567.346 542.862
L568.015 543.186
L568.685 544.061
L569.354 542.57
L570.024 544.741
L570.694 544.676
L571.363 545.648
L572.033 545.162
L572.702 545.616
L573.372 547.852
L574.042 545.519
L574.711 546.944
L575.381 549.504
L576.05 547.916
L576.72 548.305
L577.39 546.847
L578.729 548.986
L579.398 547.528
L580.068 548.986
L580.738 548.759
L581.407 549.277
L582.077 548.37
L582.746 548.888
L583.416 550.606
L584.755 548.435
L585.425 549.569
L586.094 552.42
L586.764 551.934
L587.434 552.679
L588.103 551.221
L588.773 550.768
L589.442 551.092
L590.112 554.85
L590.782 551.804
L591.451 553.91
L592.121 554.753
L592.79 554.558
L593.46 554.526
L594.13 555.109
L594.799 554.591
L595.469 555.79
L596.138 555.336
L596.808 555.854
L597.478 555.952
L598.147 555.822
L600.156 556.988
L600.826 556.049
L601.495 559.386
L602.165 555.822
L602.834 558.738
L603.504 557.572
L604.174 558.382
L604.843 557.053
L605.513 558.058
L606.182 558.122
L606.852 559.289
L607.522 559.224
L608.191 560.358
L608.861 560.552
L609.53 560.002
L610.2 560.196
L610.87 559.094
L611.539 559.516
L612.209 559.678
L612.878 559.516
L613.548 561.103
L614.218 561.751
L614.887 561.395
L615.557 561.524
L616.226 560.844
L616.896 559.548
L617.566 559.969
L618.235 561.265
L618.905 559.937
L619.574 561.038
L620.914 561.784
L621.583 561.784
L622.253 560.876
L622.922 562.723
L623.592 561.362
L624.262 562.237
L624.931 561.557
L625.601 561.784
L626.27 561.654
L626.94 563.371
L627.61 562.14
L628.279 561.913
L628.949 562.172
L629.618 561.33
L630.288 563.144
L630.958 562.853
L631.627 563.436
L632.297 563.436
L632.966 562.367
L633.636 564.278
L634.306 563.242
L634.975 563.306
L635.645 564.862
L636.314 565.024
L636.984 564.149
L637.654 565.218
L638.323 564.538
L638.993 564.44
L640.332 566.255
L641.002 564.052
L641.671 565.672
L642.341 565.736
L643.01 566.968
L643.68 565.898
L644.35 565.38
L645.019 566.773
L646.358 567.194
L647.028 565.834
L647.698 567.389
L648.367 567.097
L649.037 568.296
L650.376 566.838
L651.046 567.356
L651.715 567.454
L652.385 566.384
L653.054 568.944
L654.394 568.328
L655.063 567.065
L655.733 568.912
L656.402 569.268
L657.072 569.916
L658.411 567.292
L659.081 569.657
L659.75 568.847
L660.42 569.171
L661.09 568.814
L661.759 569.203
L662.429 568.879
L663.098 569.398
L663.768 570.434
L664.438 568.069
L665.107 568.717
L665.777 568.782
L666.446 569.819
L667.786 569.43
L668.455 569.009
L669.125 569.495
L669.794 570.208
L670.464 569.365
L671.134 570.856
L671.803 568.361
L672.473 569.592
L673.142 569.722
L673.812 569.689
L675.151 570.434
L675.821 571.277
L676.49 569.916
L677.83 570.467
L679.169 570.272
L680.508 570.953
L681.178 570.726
L681.847 570.661
L683.186 572.216
L683.856 571.666
L684.526 573.091
L685.865 570.856
L686.534 571.892
L687.204 572.378
L687.874 572.314
L689.213 572.476
L689.882 572.411
L690.552 572.638
L691.891 573.415
L692.561 573.286
L693.23 572.346
L693.9 572.897
L694.57 573.739
L695.239 572.897
L695.909 572.994
L696.578 573.934
L697.248 572.152
L697.918 574.128
L698.587 574.16
L699.257 575.748
L699.926 574.096
L700.596 574.387
L701.266 574.355
L701.935 574.646
L702.605 573.253
L703.274 574.387
L703.944 574.873
L704.614 575.1
L705.283 575.683
L705.953 575.003
L706.622 575.359
L707.292 575.392
L707.962 575.716
L708.631 575.78
L709.301 576.007
L709.97 576.85
L710.64 575.748
L711.979 576.914
L712.649 576.234
L713.318 576.59
L713.988 576.526
L714.658 576.655
L715.327 577.109
L715.997 576.688
L716.666 577.53
L717.336 577.303
L718.006 576.623
L719.345 577.076
L720.014 577.465
L720.684 576.558
L721.354 576.364
L722.023 577.595
L722.693 577.465
L723.362 577.692
L724.032 577.498
L724.702 577.012
L725.371 577.822
L726.041 576.169
L726.71 577.562
L727.38 577.66
L728.719 578.47
L729.389 578.502
L730.058 578.113
L730.728 578.405
L731.398 578.081
L732.067 578.405
L732.737 577.789
L733.406 577.886
L734.076 577.66
L734.746 577.757
L735.415 578.502
L736.085 578.081
L736.754 577.854
L737.424 577.984
L738.094 578.534
L738.763 578.243
L739.433 578.34
L740.102 579.28
L740.772 579.053
L741.442 578.308
L742.111 578.761
L742.781 578.696
L743.45 578.956
L744.12 578.534
L744.79 578.729
L745.459 578.372
L746.129 578.47
L746.798 578.405
L747.468 578.21
L748.138 578.243
L750.146 578.956
L750.816 578.761
L751.486 578.891
L752.155 579.571
L752.825 579.085
L753.494 578.405
L754.164 579.15
L754.834 578.729
L755.503 579.636
L756.173 579.182
L756.842 579.895
L757.512 579.992
L758.182 579.02
L758.851 579.247
L759.521 579.928
L760.19 579.895
L760.86 579.15
L761.53 578.794
L762.199 580.219
L762.869 580.025
L763.538 579.442
L764.208 580.219
L764.878 580.187
L765.547 579.312
L766.217 579.928
L766.886 579.701
L767.556 579.344
L768.226 579.409
L768.895 579.895
L769.565 579.247
L770.234 580.122
L770.904 580.478
L771.574 579.992
L772.243 579.83
L772.913 579.83
L773.582 580.122
L774.252 580.219
L774.922 580.122
L776.261 580.705
L776.93 580.543
L777.6 580.576
L777.6 580.576" style="fill:none;stroke:#ff0000;stroke-linecap:square;"/>
   </g>
   <g id="line2d_2">
    <path clip-path="url(#p7ceb695115)" d="
M108 580.414
L108.67 582.487
L109.339 583.038
L110.009 582.844
L112.018 582.584
L113.357 582.293
L114.026 582.358
L114.696 582.098
L115.366 582.325
L116.035 582.39
L116.705 581.71
L117.374 582.066
L118.044 581.969
L118.714 582.001
L119.383 581.645
L120.053 581.936
L120.722 581.839
L121.392 581.612
L122.062 581.904
L123.401 581.677
L124.07 581.548
L125.41 581.612
L126.079 581.936
L126.749 581.677
L128.088 581.645
L129.427 581.483
L130.097 581.71
L130.766 581.645
L131.436 581.418
L132.106 581.904
L132.775 581.904
L133.445 581.45
L134.114 581.58
L135.454 581.483
L136.123 581.645
L136.793 581.353
L137.462 581.774
L138.132 581.839
L138.802 581.029
L140.81 581.839
L142.15 581.224
L143.489 581.839
L144.828 581.386
L145.498 581.483
L146.167 581.45
L146.837 581.969
L147.506 581.418
L148.176 581.677
L148.846 581.612
L149.515 581.742
L150.185 581.645
L150.854 581.936
L152.194 582.098
L152.863 581.645
L153.533 581.742
L154.202 581.71
L154.872 582.196
L155.542 581.872
L156.211 581.969
L156.881 581.548
L157.55 582.066
L158.22 581.872
L158.89 581.418
L159.559 581.71
L160.229 581.839
L160.898 581.71
L162.238 581.872
L163.577 581.515
L164.246 581.58
L164.916 582.098
L165.586 581.904
L166.255 581.45
L167.594 581.872
L168.264 581.71
L168.934 581.677
L169.603 581.969
L170.942 581.969
L171.612 581.515
L172.282 581.839
L173.621 581.807
L174.96 581.612
L175.63 581.807
L176.299 581.872
L176.969 581.45
L177.638 581.645
L178.308 581.483
L178.978 582.034
L179.647 581.742
L180.986 581.548
L181.656 581.936
L182.326 582.163
L182.995 581.936
L183.665 582.293
L184.334 581.936
L185.004 582.131
L187.013 581.872
L187.682 582.131
L188.352 582.001
L191.03 582.066
L191.7 582.163
L192.37 581.839
L193.039 582.001
L193.709 581.807
L194.378 582.066
L195.718 581.969
L196.387 582.293
L197.057 582.034
L198.396 582.325
L199.066 581.742
L199.735 582.196
L200.405 581.904
L201.074 582.26
L201.744 581.839
L203.083 582.131
L203.753 581.872
L204.422 582.066
L205.092 581.936
L205.762 582.293
L206.431 582.293
L207.101 581.612
L207.77 582.001
L208.44 581.904
L209.779 582.26
L210.449 582.131
L211.788 582.163
L212.458 582.649
L213.797 581.904
L214.466 581.969
L215.136 582.325
L215.806 582.034
L216.475 582.26
L217.145 582.325
L217.814 582.163
L219.154 582.325
L220.493 581.904
L222.502 582.293
L223.171 582.098
L229.198 582.455
L229.867 582.26
L231.206 582.487
L231.876 581.969
L232.546 582.358
L233.215 582.26
L233.885 582.293
L234.554 582.649
L235.894 582.163
L237.233 582.422
L237.902 582.325
L238.572 582.52
L239.911 582.358
L242.59 582.487
L243.259 582.811
L243.929 582.52
L245.268 582.811
L245.938 582.649
L246.607 582.779
L247.946 582.52
L249.955 582.811
L250.625 582.487
L251.294 582.584
L251.964 582.293
L252.634 582.52
L255.312 582.811
L255.982 582.584
L256.651 582.844
L257.99 582.682
L259.33 582.746
L259.999 582.584
L260.669 582.584
L261.338 582.779
L262.678 582.487
L263.347 582.617
L264.017 582.26
L265.356 582.746
L266.695 582.779
L267.365 582.649
L268.034 582.811
L268.704 582.682
L269.374 582.746
L270.043 582.682
L273.391 583.07
L274.73 582.908
L277.409 582.941
L278.078 582.746
L278.748 582.682
L279.418 582.811
L280.087 582.552
L281.426 583.038
L282.096 582.649
L282.766 582.779
L284.774 582.746
L289.462 582.908
L290.131 582.746
L293.479 582.908
L294.149 582.714
L294.818 582.746
L295.488 582.908
L296.158 582.617
L296.827 582.811
L298.166 582.811
L300.175 582.811
L300.845 582.746
L302.184 582.941
L303.523 582.714
L304.193 582.682
L304.862 582.422
L306.202 582.908
L306.871 583.006
L307.541 582.844
L308.21 582.908
L308.88 582.746
L312.228 582.973
L312.898 582.649
L313.567 582.811
L314.237 582.649
L315.576 582.941
L316.246 582.941
L316.915 582.746
L317.585 583.006
L319.594 582.682
L320.933 582.779
L321.602 582.973
L322.272 582.779
L325.62 582.941
L326.29 582.811
L326.959 582.844
L327.629 582.714
L330.307 582.941
L330.977 582.779
L332.316 582.876
L332.986 582.682
L333.655 582.876
L334.325 582.779
L335.664 582.876
L336.334 582.876
L337.673 582.649
L338.342 582.746
L339.012 582.552
L339.682 582.779
L340.351 582.811
L341.021 583.038
L341.69 582.746
L342.36 582.973
L343.03 582.844
L343.699 583.07
L344.369 582.876
L345.708 582.941
L347.047 582.779
L347.717 582.779
L348.386 582.941
L349.056 582.908
L349.726 583.006
L350.395 582.779
L351.065 582.941
L351.734 582.811
L352.404 582.973
L353.074 582.779
L355.082 583.038
L356.422 582.649
L357.761 582.908
L358.43 582.908
L359.1 583.07
L361.109 582.973
L365.126 582.811
L365.796 582.941
L366.466 582.811
L367.135 582.908
L368.474 582.941
L369.144 582.973
L369.814 582.649
L373.162 582.746
L373.831 582.682
L374.501 582.876
L375.17 582.941
L375.84 582.811
L376.51 582.973
L377.179 582.779
L377.849 582.941
L379.858 582.908
L380.527 582.649
L382.536 582.876
L383.206 582.844
L383.875 583.038
L384.545 583.103
L385.214 582.714
L385.884 582.973
L386.554 582.682
L387.223 583.038
L389.232 582.941
L390.571 582.908
L394.589 582.811
L395.258 582.941
L395.928 582.844
L397.937 583.006
L398.606 582.811
L399.276 582.941
L405.972 582.876
L406.642 582.746
L407.311 582.973
L407.981 583.07
L408.65 582.779
L409.32 582.908
L411.998 582.746
L412.668 582.973
L413.338 582.973
L414.007 582.844
L415.346 583.038
L420.703 583.038
L421.373 582.844
L422.042 583.07
L422.712 583.07
L423.382 582.908
L424.721 582.941
L427.399 583.006
L428.738 582.811
L431.417 583.103
L432.086 582.941
L432.756 583.07
L433.426 583.006
L434.095 583.07
L434.765 582.941
L438.113 583.135
L438.782 582.941
L440.122 583.006
L440.791 582.908
L442.13 583.038
L442.8 582.941
L443.47 582.293
L444.139 577.854
L444.809 570.92
L445.478 561.298
L446.148 549.05
L450.835 436.396
L452.174 410.767
L454.183 368.55
L454.853 356.854
L455.522 341.755
L456.192 323.708
L456.862 309.128
L457.531 291.438
L458.201 276.988
L459.54 238.756
L460.879 211.216
L461.549 192.521
L462.218 180.986
L462.888 165.11
L463.558 156.946
L464.227 141.847
L464.897 132.581
L465.566 126.133
L466.236 116.251
L467.575 111.229
L468.245 105.462
L468.914 105.17
L469.584 102.611
L470.254 102.06
L470.923 108.961
L471.593 108.864
L472.262 106.402
L472.932 111.326
L473.602 118.94
L474.941 127.202
L475.61 125.647
L476.95 142.657
L477.619 150.336
L478.958 157.464
L480.967 183.578
L481.637 184.842
L482.306 195.08
L482.976 203.504
L483.646 205.189
L484.315 211.734
L484.985 225.342
L486.324 232.243
L486.994 241.866
L487.663 245.592
L488.333 252.428
L490.342 269.114
L491.011 271.642
L491.681 276.307
L492.35 278.834
L493.02 282.042
L493.69 281.038
L494.359 283.273
L495.029 296.525
L496.368 299.311
L497.038 306.731
L497.707 304.268
L498.377 302.875
L499.046 306.893
L499.716 310.198
L500.386 312.66
L501.055 308.999
L501.725 314.474
L502.394 315.868
L503.064 318.265
L503.734 316.613
L504.403 318.913
L505.073 324.162
L505.742 322.834
L506.412 324.713
L507.082 321.019
L508.421 326.948
L509.09 326.333
L509.76 332.618
L510.43 331.29
L511.099 335.923
L511.769 334.692
L512.438 337.316
L513.108 342.241
L513.778 338.159
L514.447 339.422
L515.117 335.372
L515.786 340.362
L516.456 342.922
L517.126 343.246
L517.795 347.069
L518.465 349.304
L519.134 348.397
L519.804 348.397
L520.474 353.16
L521.143 351.54
L521.813 354.067
L522.482 353.095
L523.152 355.396
L523.822 356.238
L524.491 356.497
L525.161 357.826
L525.83 357.89
L527.17 364.014
L527.839 361.973
L528.509 362.848
L529.178 363.528
L529.848 368.42
L530.518 365.148
L531.187 372.308
L531.857 371.466
L532.526 372.341
L533.196 375.224
L533.866 375.937
L534.535 374.576
L535.874 378.335
L536.544 377.752
L537.214 374.998
L537.883 374.09
L538.553 378.335
L539.222 377.039
L539.892 378.464
L540.562 377.363
L541.231 381.121
L541.901 383.324
L542.57 380.83
L543.24 387.05
L543.91 385.268
L544.579 381.672
L545.249 387.18
L545.918 389.545
L546.588 385.495
L547.258 389.578
L547.927 387.439
L548.597 389.642
L549.266 389.966
L549.936 394.6
L550.606 393.952
L551.275 396.349
L551.945 391.068
L552.614 396.997
L553.284 396.77
L553.954 398.293
L554.623 398.65
L555.293 395.928
L555.962 396.641
L556.632 398.682
L557.302 402.376
L557.971 402.926
L558.641 399.622
L559.31 403.672
L559.98 401.663
L560.65 408.726
L561.319 409.277
L561.989 409.471
L562.658 414.461
L563.328 417.118
L563.998 414.299
L564.667 416.081
L565.337 419.386
L566.006 417.863
L566.676 419.548
L567.346 419.774
L568.015 421.33
L568.685 426.125
L569.354 427.097
L570.024 426.254
L570.694 431.698
L571.363 428.393
L572.033 431.406
L572.702 435.132
L573.372 435.456
L574.042 440.77
L574.711 441.32
L575.381 439.571
L576.05 441.385
L576.72 440.381
L577.39 442.876
L578.059 439.344
L578.729 442.066
L579.398 442.228
L580.068 446.083
L580.738 445.824
L581.407 449.939
L582.077 446.051
L582.746 445.338
L583.416 444.982
L584.755 449.129
L585.425 450.166
L586.094 448.124
L586.764 453.535
L587.434 456.646
L588.103 454.151
L588.773 458.33
L589.442 460.663
L590.112 455.544
L590.782 463.061
L591.451 462.802
L592.121 465.847
L593.46 468.958
L594.13 468.115
L594.799 469.93
L595.469 470.124
L596.138 472.165
L596.808 471.031
L597.478 474.174
L598.147 472.781
L598.817 475.664
L599.486 475.826
L600.156 477.382
L600.826 477.965
L601.495 476.604
L602.165 480.589
L602.834 481.334
L603.504 479.002
L604.843 485.417
L605.513 484.412
L606.182 487.102
L606.852 486
L607.522 486.518
L608.191 485.158
L608.861 485.708
L609.53 488.398
L610.2 488.106
L610.87 488.722
L611.539 490.471
L612.209 490.309
L612.878 491.249
L613.548 493.614
L614.218 492.35
L614.887 492.61
L616.226 496.141
L616.896 494.132
L617.566 493.97
L618.235 492.739
L618.905 493.679
L619.574 493.646
L620.244 497.858
L620.914 499.284
L621.583 497.437
L622.253 501.455
L622.922 498.604
L623.592 500.839
L624.262 497.794
L624.931 497.437
L625.601 501.196
L626.94 499.608
L627.61 499.867
L628.279 502.492
L628.949 502.265
L629.618 502.913
L630.288 501.908
L630.958 504.533
L632.297 505.926
L632.966 504.014
L633.636 503.95
L634.306 505.764
L634.975 506.12
L635.645 507.74
L636.314 508.097
L636.984 510.235
L637.654 511.175
L638.323 510.624
L638.993 511.693
L639.662 510.916
L640.332 513.378
L641.002 516.391
L641.671 514.48
L642.341 516.618
L643.01 513.184
L643.68 514.804
L644.35 514.48
L645.019 515.095
L645.689 518.27
L646.358 517.136
L647.028 519.664
L647.698 517.946
L648.367 516.618
L649.037 518.206
L649.706 519.372
L650.376 521.867
L651.046 521.64
L651.715 521.867
L652.385 523.033
L653.054 522.061
L653.724 524.653
L654.394 521.996
L655.063 523.357
L655.733 524.329
L656.402 525.01
L657.072 522.353
L657.742 524.524
L658.411 527.958
L659.081 524.135
L659.75 528.023
L660.42 526.792
L661.09 526.921
L661.759 527.245
L662.429 525.01
L663.098 524.102
L663.768 524.783
L664.438 526.954
L665.107 526.597
L665.777 526.468
L666.446 527.31
L667.116 528.574
L667.786 527.958
L668.455 529.222
L669.125 529.805
L669.794 529.027
L670.464 530.291
L671.134 530.647
L672.473 528.379
L673.142 529.902
L673.812 532.138
L674.482 531.878
L675.151 532.526
L675.821 531.846
L677.16 532.883
L677.83 532.073
L678.499 531.457
L679.169 533.369
L679.838 533.466
L680.508 533.693
L681.178 534.827
L681.847 536.35
L682.517 536.9
L683.186 537.678
L683.856 538.067
L684.526 536.933
L685.195 537.224
L685.865 539.363
L686.534 539.298
L687.204 540.14
L687.874 539.006
L688.543 540.983
L689.213 540.724
L689.882 539.881
L690.552 539.363
L691.222 542.084
L691.891 541.598
L692.561 540.886
L693.23 541.307
L693.9 541.987
L695.239 544.774
L695.909 545.648
L696.578 542.668
L697.248 545.389
L697.918 545.389
L698.587 546.977
L699.257 547.949
L699.926 548.629
L700.596 547.949
L701.266 548.402
L701.935 548.208
L702.605 549.212
L703.274 549.601
L704.614 551.156
L705.283 550.638
L705.953 551.513
L706.622 553.165
L707.292 552.614
L707.962 553.522
L708.631 553.36
L709.301 554.396
L709.97 555.887
L710.64 555.757
L711.31 557.28
L711.979 556.697
L712.649 556.47
L713.318 555.887
L715.327 558.576
L715.997 558.317
L716.666 557.28
L717.336 558.868
L718.006 557.442
L719.345 557.863
L720.014 558.187
L720.684 559.159
L721.354 558.576
L722.023 558.738
L722.693 558.414
L723.362 558.446
L724.032 558.738
L724.702 559.678
L725.371 558.932
L726.041 561.33
L726.71 560.714
L727.38 560.682
L728.05 562.27
L728.719 561.265
L729.389 562.496
L730.728 562.302
L731.398 563.825
L732.067 563.501
L732.737 562.432
L733.406 563.08
L734.076 561.265
L734.746 561.46
L735.415 563.533
L736.085 563.242
L736.754 562.205
L737.424 563.566
L738.094 562.788
L738.763 565.186
L739.433 563.663
L740.102 563.144
L740.772 563.857
L741.442 564.894
L742.111 565.25
L742.781 565.769
L743.45 563.792
L744.12 563.63
L744.79 565.056
L745.459 565.574
L746.129 565.024
L746.798 565.445
L747.468 565.639
L748.138 566.352
L748.807 565.412
L749.477 565.088
L750.146 565.283
L750.816 566.514
L751.486 566.06
L752.155 566.514
L752.825 567.292
L753.494 567.616
L754.164 567.616
L754.834 566.514
L756.173 568.426
L756.842 568.296
L757.512 568.523
L758.182 568.555
L758.851 567.94
L759.521 567.032
L760.19 568.75
L761.53 570.272
L762.199 569.462
L762.869 570.337
L763.538 570.856
L764.208 570.823
L764.878 569.236
L765.547 570.078
L766.217 570.661
L766.886 570.013
L767.556 569.592
L768.226 570.629
L768.895 570.661
L769.565 569.884
L770.234 570.953
L771.574 570.532
L772.243 570.726
L772.913 570.272
L773.582 570.629
L774.252 571.342
L775.591 571.374
L776.261 572.443
L776.93 571.601
L777.6 571.601
L777.6 571.601" style="fill:none;stroke:#008000;stroke-linecap:square;"/>
   </g>
   <g id="line2d_3">
    <path clip-path="url(#p7ceb695115)" d="
M108 582.52
L108.67 583.135
L110.678 583.103
L111.348 582.973
L112.687 582.941
L118.044 582.714
L119.383 583.006
L120.053 582.649
L120.722 582.876
L126.079 582.941
L126.749 582.714
L128.088 582.811
L128.758 582.941
L130.097 582.714
L130.766 582.876
L131.436 582.617
L134.114 582.811
L134.784 582.617
L135.454 582.844
L136.123 582.649
L136.793 582.908
L138.132 583.006
L138.802 582.714
L140.141 582.552
L140.81 582.779
L141.48 582.649
L142.15 582.876
L142.819 582.973
L143.489 582.617
L144.158 582.552
L144.828 582.908
L146.167 582.876
L146.837 582.973
L148.176 582.746
L148.846 582.682
L150.185 582.908
L150.854 582.746
L152.194 582.876
L152.863 582.617
L154.872 582.941
L155.542 582.714
L156.881 582.973
L157.55 582.876
L158.22 582.649
L158.89 582.973
L159.559 582.844
L160.229 582.908
L160.898 582.779
L161.568 582.941
L162.238 582.617
L162.907 582.941
L163.577 582.876
L164.246 583.006
L164.916 582.779
L165.586 582.908
L166.255 582.811
L166.925 582.941
L167.594 582.746
L170.273 583.006
L170.942 582.649
L171.612 582.941
L174.96 582.908
L176.299 582.779
L178.978 582.682
L179.647 583.038
L180.317 582.941
L180.986 583.006
L181.656 582.682
L182.326 582.973
L182.995 583.006
L183.665 582.908
L184.334 583.038
L185.004 582.876
L186.343 582.876
L187.682 583.07
L188.352 582.973
L189.022 583.038
L190.361 583.006
L195.048 582.714
L195.718 582.908
L196.387 582.779
L197.726 582.941
L201.744 582.811
L203.083 583.07
L203.753 582.876
L204.422 582.941
L205.092 582.811
L205.762 583.103
L207.101 582.811
L208.44 582.908
L212.458 583.07
L213.127 582.876
L213.797 582.973
L214.466 582.908
L215.136 583.103
L215.806 582.908
L219.154 582.973
L221.832 582.844
L222.502 583.006
L223.171 582.876
L223.841 582.973
L224.51 582.941
L225.18 583.07
L226.519 582.908
L227.858 583.07
L229.198 582.941
L229.867 583.07
L230.537 582.973
L231.206 583.07
L231.876 582.876
L232.546 583.006
L233.215 582.876
L234.554 582.908
L237.233 583.006
L237.902 582.908
L238.572 583.135
L239.242 582.876
L240.581 583.135
L241.92 582.973
L242.59 583.135
L243.259 582.876
L243.929 583.135
L244.598 582.973
L245.268 582.941
L245.938 583.103
L246.607 583.038
L247.277 583.135
L249.955 583.07
L250.625 583.135
L252.634 583.006
L253.303 583.038
L253.973 583.2
L254.642 582.908
L255.312 582.973
L255.982 583.168
L258.66 582.973
L259.33 582.973
L259.999 583.103
L263.347 583.006
L264.017 583.103
L264.686 583.006
L266.026 583.103
L290.801 583.07
L291.47 582.973
L292.14 583.2
L294.149 582.941
L294.818 583.103
L296.158 583.103
L296.827 583.2
L298.836 583.103
L300.845 583.135
L301.514 583.038
L304.193 583.07
L304.862 583.038
L306.202 583.135
L306.871 583.07
L308.21 583.135
L310.889 583.07
L312.898 583.07
L321.602 583.103
L322.272 583.2
L323.611 583.103
L324.95 583.2
L325.62 583.07
L326.959 583.2
L328.298 583.103
L330.307 583.135
L331.646 583.103
L332.986 583.135
L333.655 583.038
L334.325 583.168
L334.994 583.07
L336.334 583.168
L337.003 583.006
L338.342 583.168
L339.682 583.103
L343.03 583.168
L343.699 583.103
L344.369 583.2
L345.038 583.07
L347.717 583.135
L349.726 583.103
L350.395 583.135
L351.065 583.006
L351.734 583.2
L353.074 583.103
L355.082 583.135
L357.091 583.135
L364.457 583.2
L365.126 582.973
L366.466 583.2
L367.805 583.07
L369.144 583.168
L373.162 583.038
L373.831 583.168
L375.84 583.135
L376.51 583.2
L378.518 583.103
L442.8 583.135
L443.47 582.908
L444.139 582.26
L444.809 579.992
L445.478 577.303
L446.148 575.456
L446.818 570.434
L448.157 563.177
L448.826 556.826
L449.496 553.424
L450.166 549.31
L450.835 547.592
L451.505 542.02
L452.174 539.298
L452.844 538.358
L453.514 530.809
L454.183 528.509
L454.853 524.686
L456.192 518.594
L456.862 512.665
L457.531 508.356
L458.201 503.237
L458.87 500.386
L459.54 498.28
L460.21 495.396
L460.879 489.143
L461.549 485.482
L462.218 480.686
L462.888 480.589
L464.227 473.882
L464.897 474.077
L465.566 468.796
L466.236 466.657
L466.906 467.564
L467.575 463.417
L468.245 462.931
L468.914 462.64
L469.584 460.728
L470.254 466.625
L470.923 463.19
L471.593 462.251
L472.262 465.199
L472.932 466.333
L474.271 463.871
L474.941 468.763
L475.61 471.064
L476.28 471.258
L476.95 474.012
L477.619 474.206
L478.289 474.109
L478.958 475.502
L479.628 477.414
L480.298 480.816
L480.967 482.339
L481.637 481.658
L482.306 481.594
L482.976 482.792
L483.646 490.147
L484.315 490.504
L484.985 492.577
L485.654 495.169
L486.324 495.202
L486.994 496.465
L487.663 500.904
L488.333 500.71
L489.002 501.649
L489.672 506.25
L490.342 504.047
L491.681 505.861
L492.35 505.472
L493.02 506.444
L493.69 510.494
L494.359 509.814
L495.029 510.332
L495.698 508.583
L496.368 514.415
L497.038 512.633
L497.707 514.836
L498.377 512.73
L499.046 514.739
L499.716 517.104
L500.386 515.452
L501.055 515.678
L501.725 516.456
L502.394 516.65
L503.064 515.905
L503.734 516.067
L504.403 517.752
L505.073 517.59
L505.742 517.979
L506.412 517.784
L507.082 516.521
L507.751 518.756
L508.421 519.08
L509.09 521.446
L509.76 519.21
L510.43 520.927
L511.099 518.53
L511.769 521.64
L512.438 519.793
L513.108 520.7
L513.778 519.761
L515.117 523.908
L515.786 519.664
L516.456 523.033
L517.795 522.871
L518.465 525.301
L519.134 524.912
L519.804 524.329
L520.474 523.94
L521.143 527.699
L521.813 527.245
L522.482 524.912
L523.152 523.649
L523.822 526.921
L524.491 526.986
L525.161 524.783
L525.83 528.962
L526.5 525.107
L527.17 525.949
L527.839 527.31
L529.178 528.185
L529.848 529.513
L530.518 530.226
L531.187 530.582
L531.857 530.323
L532.526 529.513
L533.196 532.462
L533.866 530.032
L534.535 533.012
L535.205 531.166
L535.874 530.68
L536.544 531.457
L537.214 530.809
L537.883 531.749
L538.553 530.68
L539.222 531.846
L539.892 531.846
L540.562 532.235
L541.231 532.008
L541.901 533.628
L542.57 533.725
L543.24 531.295
L543.91 532.17
L544.579 534.082
L545.249 533.952
L545.918 535.928
L546.588 535.248
L547.258 534.406
L547.927 536.188
L548.597 535.151
L549.266 535.702
L549.936 536.026
L550.606 534.6
L551.275 535.54
L551.945 536.771
L552.614 536.22
L553.284 535.993
L553.954 535.313
L554.623 535.021
L555.293 536.998
L555.962 536.706
L556.632 535.864
L557.302 536.155
L557.971 536.317
L558.641 538.326
L559.31 538.229
L559.98 539.816
L560.65 538.844
L561.319 539.168
L561.989 540.983
L563.328 541.501
L563.998 541.793
L564.667 543.445
L565.337 541.728
L566.006 543.024
L566.676 543.542
L568.015 545.681
L568.685 544.385
L569.354 543.899
L570.024 543.996
L570.694 542.117
L571.363 546.556
L572.033 545.486
L572.702 542.83
L573.372 546.232
L574.042 546.167
L574.711 546.847
L575.381 549.472
L576.05 547.268
L576.72 547.268
L577.39 547.009
L578.059 548.532
L578.729 547.171
L579.398 548.953
L580.068 547.333
L580.738 548.24
L582.077 549.439
L583.416 549.504
L584.086 549.18
L584.755 550.508
L585.425 549.86
L586.094 550.93
L586.764 550.768
L587.434 549.925
L588.103 551.869
L588.773 552.064
L589.442 550.541
L590.112 550.606
L590.782 553.165
L591.451 553.424
L592.121 554.202
L592.79 553.846
L593.46 553.91
L594.13 554.785
L594.799 554.202
L595.469 554.72
L596.138 553.068
L596.808 555.433
L597.478 555.433
L598.147 556.924
L598.817 557.96
L599.486 557.183
L600.156 556.729
L600.826 557.442
L601.495 555.401
L602.165 557.15
L603.504 557.183
L604.174 559.224
L604.843 559.224
L605.513 560.228
L606.182 557.28
L606.852 559.84
L607.522 559.094
L608.191 559.678
L608.861 559.678
L609.53 558.511
L610.2 559.386
L610.87 559.872
L611.539 559.386
L612.209 560.844
L612.878 561.557
L613.548 560.52
L614.218 560.131
L614.887 560.164
L615.557 559.613
L616.226 561.362
L616.896 561.395
L617.566 559.969
L618.235 557.701
L618.905 560.876
L619.574 562.367
L620.244 560.228
L620.914 561.881
L621.583 562.594
L622.253 560.196
L622.922 561.946
L623.592 562.14
L624.262 562.496
L624.931 562.691
L625.601 561.46
L626.27 562.982
L626.94 562.82
L627.61 562.432
L628.279 562.367
L628.949 563.177
L629.618 563.566
L630.288 563.598
L630.958 563.274
L631.627 563.663
L632.297 562.723
L632.966 562.594
L633.636 563.371
L634.306 563.566
L634.975 564.149
L635.645 564.926
L636.314 565.348
L636.984 565.542
L637.654 564.602
L638.323 565.38
L638.993 564.991
L639.662 566.093
L640.332 565.574
L641.002 565.542
L641.671 565.736
L642.341 565.736
L643.01 566.935
L643.68 566.352
L644.35 567.194
L645.019 566.449
L645.689 567.065
L646.358 566.417
L647.028 566.87
L647.698 567.13
L648.367 568.717
L649.037 567.518
L649.706 567.486
L650.376 567.616
L651.046 567.292
L651.715 568.264
L652.385 568.231
L653.054 567.13
L653.724 567.972
L654.394 567.356
L655.733 569.074
L656.402 569.106
L657.072 568.782
L657.742 568.588
L659.081 570.272
L659.75 569.009
L660.42 569.398
L661.759 568.069
L662.429 568.652
L663.768 569.236
L664.438 567.972
L665.107 569.236
L665.777 569.3
L666.446 570.305
L667.116 568.782
L667.786 569.333
L668.455 568.62
L669.125 568.879
L669.794 569.592
L670.464 570.661
L671.134 569.495
L672.473 570.92
L673.142 570.532
L673.812 568.296
L674.482 570.564
L675.151 570.24
L675.821 570.046
L676.49 570.37
L677.16 569.495
L677.83 571.05
L679.169 569.916
L679.838 570.888
L680.508 570.823
L681.178 571.018
L681.847 572.476
L682.517 571.633
L683.186 572.767
L683.856 572.152
L684.526 573.253
L685.195 571.957
L686.534 572.054
L687.204 570.856
L687.874 572.605
L688.543 571.892
L689.213 573.415
L689.882 572.638
L690.552 573.577
L691.891 572.152
L692.561 572.216
L693.23 573.901
L693.9 573.934
L694.57 573.772
L695.239 572.864
L695.909 573.61
L696.578 573.642
L697.248 574.193
L697.918 574.484
L698.587 574.355
L699.257 573.836
L699.926 574.29
L700.596 573.966
L701.935 574.063
L702.605 575.035
L703.274 574.97
L703.944 573.966
L704.614 573.739
L705.953 575.716
L706.622 575.424
L707.292 576.104
L707.962 575.748
L708.631 576.072
L709.301 575.942
L709.97 576.558
L710.64 576.266
L711.31 576.85
L711.979 576.331
L712.649 576.364
L713.988 577.174
L714.658 576.817
L715.327 576.169
L715.997 576.331
L716.666 577.174
L717.336 576.007
L718.006 577.141
L718.675 577.498
L719.345 576.266
L720.014 577.109
L720.684 576.623
L721.354 577.4
L722.023 576.752
L722.693 577.271
L723.362 577.206
L724.032 578.21
L724.702 577.53
L725.371 578.21
L726.041 578.048
L726.71 576.882
L727.38 577.465
L728.05 577.465
L728.719 578.178
L729.389 577.4
L730.058 577.984
L730.728 577.789
L731.398 577.984
L732.067 578.308
L732.737 578.21
L733.406 577.789
L734.076 578.858
L734.746 578.599
L735.415 577.757
L736.754 578.146
L737.424 578.243
L738.094 578.146
L738.763 578.437
L739.433 579.182
L740.102 578.729
L740.772 578.534
L741.442 578.146
L742.111 578.923
L742.781 578.632
L743.45 579.053
L744.12 577.951
L744.79 578.988
L745.459 578.34
L746.129 578.956
L747.468 578.664
L748.138 579.02
L748.807 578.729
L749.477 578.988
L750.146 578.696
L752.155 579.377
L752.825 579.053
L753.494 578.988
L754.164 578.372
L754.834 579.053
L755.503 578.988
L756.173 579.928
L756.842 579.506
L757.512 579.668
L758.182 579.182
L758.851 579.766
L759.521 579.701
L760.19 579.766
L760.86 579.539
L762.199 580.284
L762.869 580.187
L763.538 579.766
L764.208 580.057
L764.878 580.057
L765.547 580.381
L766.217 579.992
L766.886 579.798
L767.556 579.863
L768.226 580.284
L769.565 579.992
L770.234 579.409
L770.904 580.284
L772.243 580.478
L772.913 580.284
L773.582 579.798
L774.252 580.349
L774.922 579.928
L775.591 579.992
L776.261 579.928
L776.93 580.705
L777.6 580.252
L777.6 580.252" style="fill:none;stroke:#0000ff;stroke-linecap:square;"/>
   </g>
   <g id="patch_3">
    <path d="
M108 583.2
L108 64.8" style="fill:none;stroke:#000000;stroke-linecap:square;stroke-linejoin:miter;"/>
   </g>
   <g id="patch_4">
    <path d="
M108 583.2
L777.6 583.2" style="fill:none;stroke:#000000;stroke-linecap:square;stroke-linejoin:miter;"/>
   </g>
   <g id="patch_5">
    <path d="
M108 64.8
L777.6 64.8" style="fill:none;stroke:#000000;stroke-linecap:square;stroke-linejoin:miter;"/>
   </g>
   <g id="patch_6">
    <path d="
M777.6 583.2
L777.6 64.8" style="fill:none;stroke:#000000;stroke-linecap:square;stroke-linejoin:miter;"/>
   </g>
   <g id="matplotlib.axis_1">
    <g id="xtick_1">
     <g id="line2d_4">
      <defs>
       <path d="
M0 0
L0 -4" id="mc7db9fdffb" style="stroke:#000000;stroke-width:0.5;"/>
      </defs>
      <g>
       <use style="stroke:#000000;stroke-width:0.5;" x="108.0" xlink:href="#mc7db9fdffb" y="583.2"/>
      </g>
     </g>
     <g id="line2d_5">
      <defs>
       <path d="
M0 0
L0 4" id="m5a7d422ac3" style="stroke:#000000;stroke-width:0.5;"/>
      </defs>
      <g>
       <use style="stroke:#000000;stroke-width:0.5;" x="108.0" xlink:href="#m5a7d422ac3" y="64.8"/>
      </g>
     </g>
     <g id="text_1">
      <!-- 0 -->
      <defs>
       <path d="
M31.7812 66.4062
Q24.1719 66.4062 20.3281 58.9062
Q16.5 51.4219 16.5 36.375
Q16.5 21.3906 20.3281 13.8906
Q24.1719 6.39062 31.7812 6.39062
Q39.4531 6.39062 43.2812 13.8906
Q47.125 21.3906 47.125 36.375
Q47.125 51.4219 43.2812 58.9062
Q39.4531 66.4062 31.7812 66.4062
M31.7812 74.2188
Q44.0469 74.2188 50.5156 64.5156
Q56.9844 54.8281 56.9844 36.375
Q56.9844 17.9688 50.5156 8.26562
Q44.0469 -1.42188 31.7812 -1.42188
Q19.5312 -1.42188 13.0625 8.26562
Q6.59375 17.9688 6.59375 36.375
Q6.59375 54.8281 13.0625 64.5156
Q19.5312 74.2188 31.7812 74.2188" id="BitstreamVeraSans-Roman-30"/>
      </defs>
      <g transform="translate(104.9765625 596.318125)scale(0.12 -0.12)">
       <use xlink:href="#BitstreamVeraSans-Roman-30"/>
      </g>
     </g>
    </g>
    <g id="xtick_2">
     <g id="line2d_6">
      <g>
       <use style="stroke:#000000;stroke-width:0.5;" x="275.4" xlink:href="#mc7db9fdffb" y="583.2"/>
      </g>
     </g>
     <g id="line2d_7">
      <g>
       <use style="stroke:#000000;stroke-width:0.5;" x="275.4" xlink:href="#m5a7d422ac3" y="64.8"/>
      </g>
     </g>
     <g id="text_2">
      <!-- 50000 -->
      <defs>
       <path d="
M10.7969 72.9062
L49.5156 72.9062
L49.5156 64.5938
L19.8281 64.5938
L19.8281 46.7344
Q21.9688 47.4688 24.1094 47.8281
Q26.2656 48.1875 28.4219 48.1875
Q40.625 48.1875 47.75 41.5
Q54.8906 34.8125 54.8906 23.3906
Q54.8906 11.625 47.5625 5.09375
Q40.2344 -1.42188 26.9062 -1.42188
Q22.3125 -1.42188 17.5469 -0.640625
Q12.7969 0.140625 7.71875 1.70312
L7.71875 11.625
Q12.1094 9.23438 16.7969 8.0625
Q21.4844 6.89062 26.7031 6.89062
Q35.1562 6.89062 40.0781 11.3281
Q45.0156 15.7656 45.0156 23.3906
Q45.0156 31 40.0781 35.4375
Q35.1562 39.8906 26.7031 39.8906
Q22.75 39.8906 18.8125 39.0156
Q14.8906 38.1406 10.7969 36.2812
z
" id="BitstreamVeraSans-Roman-35"/>
      </defs>
      <g transform="translate(257.1740625 596.318125)scale(0.12 -0.12)">
       <use xlink:href="#BitstreamVeraSans-Roman-35"/>
       <use x="63.623046875" xlink:href="#BitstreamVeraSans-Roman-30"/>
       <use x="127.24609375" xlink:href="#BitstreamVeraSans-Roman-30"/>
       <use x="190.869140625" xlink:href="#BitstreamVeraSans-Roman-30"/>
       <use x="254.4921875" xlink:href="#BitstreamVeraSans-Roman-30"/>
      </g>
     </g>
    </g>
    <g id="xtick_3">
     <g id="line2d_8">
      <g>
       <use style="stroke:#000000;stroke-width:0.5;" x="442.8" xlink:href="#mc7db9fdffb" y="583.2"/>
      </g>
     </g>
     <g id="line2d_9">
      <g>
       <use style="stroke:#000000;stroke-width:0.5;" x="442.8" xlink:href="#m5a7d422ac3" y="64.8"/>
      </g>
     </g>
     <g id="text_3">
      <!-- 100000 -->
      <defs>
       <path d="
M12.4062 8.29688
L28.5156 8.29688
L28.5156 63.9219
L10.9844 60.4062
L10.9844 69.3906
L28.4219 72.9062
L38.2812 72.9062
L38.2812 8.29688
L54.3906 8.29688
L54.3906 0
L12.4062 0
z
" id="BitstreamVeraSans-Roman-31"/>
      </defs>
      <g transform="translate(420.9525 596.318125)scale(0.12 -0.12)">
       <use xlink:href="#BitstreamVeraSans-Roman-31"/>
       <use x="63.623046875" xlink:href="#BitstreamVeraSans-Roman-30"/>
       <use x="127.24609375" xlink:href="#BitstreamVeraSans-Roman-30"/>
       <use x="190.869140625" xlink:href="#BitstreamVeraSans-Roman-30"/>
       <use x="254.4921875" xlink:href="#BitstreamVeraSans-Roman-30"/>
       <use x="318.115234375" xlink:href="#BitstreamVeraSans-Roman-30"/>
      </g>
     </g>
    </g>
    <g id="xtick_4">
     <g id="line2d_10">
      <g>
       <use style="stroke:#000000;stroke-width:0.5;" x="610.2" xlink:href="#mc7db9fdffb" y="583.2"/>
      </g>
     </g>
     <g id="line2d_11">
      <g>
       <use style="stroke:#000000;stroke-width:0.5;" x="610.2" xlink:href="#m5a7d422ac3" y="64.8"/>
      </g>
     </g>
     <g id="text_4">
      <!-- 150000 -->
      <g transform="translate(588.3525 596.318125)scale(0.12 -0.12)">
       <use xlink:href="#BitstreamVeraSans-Roman-31"/>
       <use x="63.623046875" xlink:href="#BitstreamVeraSans-Roman-35"/>
       <use x="127.24609375" xlink:href="#BitstreamVeraSans-Roman-30"/>
       <use x="190.869140625" xlink:href="#BitstreamVeraSans-Roman-30"/>
       <use x="254.4921875" xlink:href="#BitstreamVeraSans-Roman-30"/>
       <use x="318.115234375" xlink:href="#BitstreamVeraSans-Roman-30"/>
      </g>
     </g>
    </g>
    <g id="xtick_5">
     <g id="line2d_12">
      <g>
       <use style="stroke:#000000;stroke-width:0.5;" x="777.6" xlink:href="#mc7db9fdffb" y="583.2"/>
      </g>
     </g>
     <g id="line2d_13">
      <g>
       <use style="stroke:#000000;stroke-width:0.5;" x="777.6" xlink:href="#m5a7d422ac3" y="64.8"/>
      </g>
     </g>
     <g id="text_5">
      <!-- 200000 -->
      <defs>
       <path d="
M19.1875 8.29688
L53.6094 8.29688
L53.6094 0
L7.32812 0
L7.32812 8.29688
Q12.9375 14.1094 22.625 23.8906
Q32.3281 33.6875 34.8125 36.5312
Q39.5469 41.8438 41.4219 45.5312
Q43.3125 49.2188 43.3125 52.7812
Q43.3125 58.5938 39.2344 62.25
Q35.1562 65.9219 28.6094 65.9219
Q23.9688 65.9219 18.8125 64.3125
Q13.6719 62.7031 7.8125 59.4219
L7.8125 69.3906
Q13.7656 71.7812 18.9375 73
Q24.125 74.2188 28.4219 74.2188
Q39.75 74.2188 46.4844 68.5469
Q53.2188 62.8906 53.2188 53.4219
Q53.2188 48.9219 51.5312 44.8906
Q49.8594 40.875 45.4062 35.4062
Q44.1875 33.9844 37.6406 27.2188
Q31.1094 20.4531 19.1875 8.29688" id="BitstreamVeraSans-Roman-32"/>
      </defs>
      <g transform="translate(755.533125 596.318125)scale(0.12 -0.12)">
       <use xlink:href="#BitstreamVeraSans-Roman-32"/>
       <use x="63.623046875" xlink:href="#BitstreamVeraSans-Roman-30"/>
       <use x="127.24609375" xlink:href="#BitstreamVeraSans-Roman-30"/>
       <use x="190.869140625" xlink:href="#BitstreamVeraSans-Roman-30"/>
       <use x="254.4921875" xlink:href="#BitstreamVeraSans-Roman-30"/>
       <use x="318.115234375" xlink:href="#BitstreamVeraSans-Roman-30"/>
      </g>
     </g>
    </g>
    <g id="text_6">
     <!-- t / ms -->
     <defs>
      <path d="
M44.2812 53.0781
L44.2812 44.5781
Q40.4844 46.5312 36.375 47.5
Q32.2812 48.4844 27.875 48.4844
Q21.1875 48.4844 17.8438 46.4375
Q14.5 44.3906 14.5 40.2812
Q14.5 37.1562 16.8906 35.375
Q19.2812 33.5938 26.5156 31.9844
L29.5938 31.2969
Q39.1562 29.25 43.1875 25.5156
Q47.2188 21.7812 47.2188 15.0938
Q47.2188 7.46875 41.1875 3.01562
Q35.1562 -1.42188 24.6094 -1.42188
Q20.2188 -1.42188 15.4531 -0.5625
Q10.6875 0.296875 5.42188 2
L5.42188 11.2812
Q10.4062 8.6875 15.2344 7.39062
Q20.0625 6.10938 24.8125 6.10938
Q31.1562 6.10938 34.5625 8.28125
Q37.9844 10.4531 37.9844 14.4062
Q37.9844 18.0625 35.5156 20.0156
Q33.0625 21.9688 24.7031 23.7812
L21.5781 24.5156
Q13.2344 26.2656 9.51562 29.9062
Q5.8125 33.5469 5.8125 39.8906
Q5.8125 47.6094 11.2812 51.7969
Q16.75 56 26.8125 56
Q31.7812 56 36.1719 55.2656
Q40.5781 54.5469 44.2812 53.0781" id="BitstreamVeraSans-Roman-73"/>
      <path d="
M25.3906 72.9062
L33.6875 72.9062
L8.29688 -9.28125
L0 -9.28125
z
" id="BitstreamVeraSans-Roman-2f"/>
      <path id="BitstreamVeraSans-Roman-20"/>
      <path d="
M52 44.1875
Q55.375 50.25 60.0625 53.125
Q64.75 56 71.0938 56
Q79.6406 56 84.2812 50.0156
Q88.9219 44.0469 88.9219 33.0156
L88.9219 0
L79.8906 0
L79.8906 32.7188
Q79.8906 40.5781 77.0938 44.375
Q74.3125 48.1875 68.6094 48.1875
Q61.625 48.1875 57.5625 43.5469
Q53.5156 38.9219 53.5156 30.9062
L53.5156 0
L44.4844 0
L44.4844 32.7188
Q44.4844 40.625 41.7031 44.4062
Q38.9219 48.1875 33.1094 48.1875
Q26.2188 48.1875 22.1562 43.5312
Q18.1094 38.875 18.1094 30.9062
L18.1094 0
L9.07812 0
L9.07812 54.6875
L18.1094 54.6875
L18.1094 46.1875
Q21.1875 51.2188 25.4844 53.6094
Q29.7812 56 35.6875 56
Q41.6562 56 45.8281 52.9688
Q50 49.9531 52 44.1875" id="BitstreamVeraSans-Roman-6d"/>
      <path d="
M18.3125 70.2188
L18.3125 54.6875
L36.8125 54.6875
L36.8125 47.7031
L18.3125 47.7031
L18.3125 18.0156
Q18.3125 11.3281 20.1406 9.42188
Q21.9688 7.51562 27.5938 7.51562
L36.8125 7.51562
L36.8125 0
L27.5938 0
Q17.1875 0 13.2344 3.875
Q9.28125 7.76562 9.28125 18.0156
L9.28125 47.7031
L2.6875 47.7031
L2.6875 54.6875
L9.28125 54.6875
L9.28125 70.2188
z
" id="BitstreamVeraSans-Roman-74"/>
     </defs>
     <g transform="translate(425.9353125 612.931875)scale(0.12 -0.12)">
      <use xlink:href="#BitstreamVeraSans-Roman-74"/>
      <use x="39.208984375" xlink:href="#BitstreamVeraSans-Roman-20"/>
      <use x="70.99609375" xlink:href="#BitstreamVeraSans-Roman-2f"/>
      <use x="104.6875" xlink:href="#BitstreamVeraSans-Roman-20"/>
      <use x="136.474609375" xlink:href="#BitstreamVeraSans-Roman-6d"/>
      <use x="233.88671875" xlink:href="#BitstreamVeraSans-Roman-73"/>
     </g>
    </g>
   </g>
   <g id="matplotlib.axis_2">
    <g id="ytick_1">
     <g id="line2d_14">
      <defs>
       <path d="
M0 0
L4 0" id="md7965d1ba0" style="stroke:#000000;stroke-width:0.5;"/>
      </defs>
      <g>
       <use style="stroke:#000000;stroke-width:0.5;" x="108.0" xlink:href="#md7965d1ba0" y="583.2"/>
      </g>
     </g>
     <g id="line2d_15">
      <defs>
       <path d="
M0 0
L-4 0" id="md9a1c1a7cd" style="stroke:#000000;stroke-width:0.5;"/>
      </defs>
      <g>
       <use style="stroke:#000000;stroke-width:0.5;" x="777.6" xlink:href="#md9a1c1a7cd" y="583.2"/>
      </g>
     </g>
     <g id="text_7">
      <!-- 0 -->
      <g transform="translate(97.953125 586.51125)scale(0.12 -0.12)">
       <use xlink:href="#BitstreamVeraSans-Roman-30"/>
      </g>
     </g>
    </g>
    <g id="ytick_2">
     <g id="line2d_16">
      <g>
       <use style="stroke:#000000;stroke-width:0.5;" x="108.0" xlink:href="#md7965d1ba0" y="518.4"/>
      </g>
     </g>
     <g id="line2d_17">
      <g>
       <use style="stroke:#000000;stroke-width:0.5;" x="777.6" xlink:href="#md9a1c1a7cd" y="518.4"/>
      </g>
     </g>
     <g id="text_8">
      <!-- 2000 -->
      <g transform="translate(75.13625 521.71125)scale(0.12 -0.12)">
       <use xlink:href="#BitstreamVeraSans-Roman-32"/>
       <use x="63.623046875" xlink:href="#BitstreamVeraSans-Roman-30"/>
       <use x="127.24609375" xlink:href="#BitstreamVeraSans-Roman-30"/>
       <use x="190.869140625" xlink:href="#BitstreamVeraSans-Roman-30"/>
      </g>
     </g>
    </g>
    <g id="ytick_3">
     <g id="line2d_18">
      <g>
       <use style="stroke:#000000;stroke-width:0.5;" x="108.0" xlink:href="#md7965d1ba0" y="453.6"/>
      </g>
     </g>
     <g id="line2d_19">
      <g>
       <use style="stroke:#000000;stroke-width:0.5;" x="777.6" xlink:href="#md9a1c1a7cd" y="453.6"/>
      </g>
     </g>
     <g id="text_9">
      <!-- 4000 -->
      <defs>
       <path d="
M37.7969 64.3125
L12.8906 25.3906
L37.7969 25.3906
z

M35.2031 72.9062
L47.6094 72.9062
L47.6094 25.3906
L58.0156 25.3906
L58.0156 17.1875
L47.6094 17.1875
L47.6094 0
L37.7969 0
L37.7969 17.1875
L4.89062 17.1875
L4.89062 26.7031
z
" id="BitstreamVeraSans-Roman-34"/>
      </defs>
      <g transform="translate(74.84375 456.91125)scale(0.12 -0.12)">
       <use xlink:href="#BitstreamVeraSans-Roman-34"/>
       <use x="63.623046875" xlink:href="#BitstreamVeraSans-Roman-30"/>
       <use x="127.24609375" xlink:href="#BitstreamVeraSans-Roman-30"/>
       <use x="190.869140625" xlink:href="#BitstreamVeraSans-Roman-30"/>
      </g>
     </g>
    </g>
    <g id="ytick_4">
     <g id="line2d_20">
      <g>
       <use style="stroke:#000000;stroke-width:0.5;" x="108.0" xlink:href="#md7965d1ba0" y="388.8"/>
      </g>
     </g>
     <g id="line2d_21">
      <g>
       <use style="stroke:#000000;stroke-width:0.5;" x="777.6" xlink:href="#md9a1c1a7cd" y="388.8"/>
      </g>
     </g>
     <g id="text_10">
      <!-- 6000 -->
      <defs>
       <path d="
M33.0156 40.375
Q26.375 40.375 22.4844 35.8281
Q18.6094 31.2969 18.6094 23.3906
Q18.6094 15.5312 22.4844 10.9531
Q26.375 6.39062 33.0156 6.39062
Q39.6562 6.39062 43.5312 10.9531
Q47.4062 15.5312 47.4062 23.3906
Q47.4062 31.2969 43.5312 35.8281
Q39.6562 40.375 33.0156 40.375
M52.5938 71.2969
L52.5938 62.3125
Q48.875 64.0625 45.0938 64.9844
Q41.3125 65.9219 37.5938 65.9219
Q27.8281 65.9219 22.6719 59.3281
Q17.5312 52.7344 16.7969 39.4062
Q19.6719 43.6562 24.0156 45.9219
Q28.375 48.1875 33.5938 48.1875
Q44.5781 48.1875 50.9531 41.5156
Q57.3281 34.8594 57.3281 23.3906
Q57.3281 12.1562 50.6875 5.35938
Q44.0469 -1.42188 33.0156 -1.42188
Q20.3594 -1.42188 13.6719 8.26562
Q6.98438 17.9688 6.98438 36.375
Q6.98438 53.6562 15.1875 63.9375
Q23.3906 74.2188 37.2031 74.2188
Q40.9219 74.2188 44.7031 73.4844
Q48.4844 72.75 52.5938 71.2969" id="BitstreamVeraSans-Roman-36"/>
      </defs>
      <g transform="translate(75.095 392.11125)scale(0.12 -0.12)">
       <use xlink:href="#BitstreamVeraSans-Roman-36"/>
       <use x="63.623046875" xlink:href="#BitstreamVeraSans-Roman-30"/>
       <use x="127.24609375" xlink:href="#BitstreamVeraSans-Roman-30"/>
       <use x="190.869140625" xlink:href="#BitstreamVeraSans-Roman-30"/>
      </g>
     </g>
    </g>
    <g id="ytick_5">
     <g id="line2d_22">
      <g>
       <use style="stroke:#000000;stroke-width:0.5;" x="108.0" xlink:href="#md7965d1ba0" y="324.0"/>
      </g>
     </g>
     <g id="line2d_23">
      <g>
       <use style="stroke:#000000;stroke-width:0.5;" x="777.6" xlink:href="#md9a1c1a7cd" y="324.0"/>
      </g>
     </g>
     <g id="text_11">
      <!-- 8000 -->
      <defs>
       <path d="
M31.7812 34.625
Q24.75 34.625 20.7188 30.8594
Q16.7031 27.0938 16.7031 20.5156
Q16.7031 13.9219 20.7188 10.1562
Q24.75 6.39062 31.7812 6.39062
Q38.8125 6.39062 42.8594 10.1719
Q46.9219 13.9688 46.9219 20.5156
Q46.9219 27.0938 42.8906 30.8594
Q38.875 34.625 31.7812 34.625
M21.9219 38.8125
Q15.5781 40.375 12.0312 44.7188
Q8.5 49.0781 8.5 55.3281
Q8.5 64.0625 14.7188 69.1406
Q20.9531 74.2188 31.7812 74.2188
Q42.6719 74.2188 48.875 69.1406
Q55.0781 64.0625 55.0781 55.3281
Q55.0781 49.0781 51.5312 44.7188
Q48 40.375 41.7031 38.8125
Q48.8281 37.1562 52.7969 32.3125
Q56.7812 27.4844 56.7812 20.5156
Q56.7812 9.90625 50.3125 4.23438
Q43.8438 -1.42188 31.7812 -1.42188
Q19.7344 -1.42188 13.25 4.23438
Q6.78125 9.90625 6.78125 20.5156
Q6.78125 27.4844 10.7812 32.3125
Q14.7969 37.1562 21.9219 38.8125
M18.3125 54.3906
Q18.3125 48.7344 21.8438 45.5625
Q25.3906 42.3906 31.7812 42.3906
Q38.1406 42.3906 41.7188 45.5625
Q45.3125 48.7344 45.3125 54.3906
Q45.3125 60.0625 41.7188 63.2344
Q38.1406 66.4062 31.7812 66.4062
Q25.3906 66.4062 21.8438 63.2344
Q18.3125 60.0625 18.3125 54.3906" id="BitstreamVeraSans-Roman-38"/>
      </defs>
      <g transform="translate(75.070625 327.31125)scale(0.12 -0.12)">
       <use xlink:href="#BitstreamVeraSans-Roman-38"/>
       <use x="63.623046875" xlink:href="#BitstreamVeraSans-Roman-30"/>
       <use x="127.24609375" xlink:href="#BitstreamVeraSans-Roman-30"/>
       <use x="190.869140625" xlink:href="#BitstreamVeraSans-Roman-30"/>
      </g>
     </g>
    </g>
    <g id="ytick_6">
     <g id="line2d_24">
      <g>
       <use style="stroke:#000000;stroke-width:0.5;" x="108.0" xlink:href="#md7965d1ba0" y="259.2"/>
      </g>
     </g>
     <g id="line2d_25">
      <g>
       <use style="stroke:#000000;stroke-width:0.5;" x="777.6" xlink:href="#md9a1c1a7cd" y="259.2"/>
      </g>
     </g>
     <g id="text_12">
      <!-- 10000 -->
      <g transform="translate(67.94 262.51125)scale(0.12 -0.12)">
       <use xlink:href="#BitstreamVeraSans-Roman-31"/>
       <use x="63.623046875" xlink:href="#BitstreamVeraSans-Roman-30"/>
       <use x="127.24609375" xlink:href="#BitstreamVeraSans-Roman-30"/>
       <use x="190.869140625" xlink:href="#BitstreamVeraSans-Roman-30"/>
       <use x="254.4921875" xlink:href="#BitstreamVeraSans-Roman-30"/>
      </g>
     </g>
    </g>
    <g id="ytick_7">
     <g id="line2d_26">
      <g>
       <use style="stroke:#000000;stroke-width:0.5;" x="108.0" xlink:href="#md7965d1ba0" y="194.4"/>
      </g>
     </g>
     <g id="line2d_27">
      <g>
       <use style="stroke:#000000;stroke-width:0.5;" x="777.6" xlink:href="#md9a1c1a7cd" y="194.4"/>
      </g>
     </g>
     <g id="text_13">
      <!-- 12000 -->
      <g transform="translate(67.94 197.71125)scale(0.12 -0.12)">
       <use xlink:href="#BitstreamVeraSans-Roman-31"/>
       <use x="63.623046875" xlink:href="#BitstreamVeraSans-Roman-32"/>
       <use x="127.24609375" xlink:href="#BitstreamVeraSans-Roman-30"/>
       <use x="190.869140625" xlink:href="#BitstreamVeraSans-Roman-30"/>
       <use x="254.4921875" xlink:href="#BitstreamVeraSans-Roman-30"/>
      </g>
     </g>
    </g>
    <g id="ytick_8">
     <g id="line2d_28">
      <g>
       <use style="stroke:#000000;stroke-width:0.5;" x="108.0" xlink:href="#md7965d1ba0" y="129.6"/>
      </g>
     </g>
     <g id="line2d_29">
      <g>
       <use style="stroke:#000000;stroke-width:0.5;" x="777.6" xlink:href="#md9a1c1a7cd" y="129.6"/>
      </g>
     </g>
     <g id="text_14">
      <!-- 14000 -->
      <g transform="translate(67.94 132.91125)scale(0.12 -0.12)">
       <use xlink:href="#BitstreamVeraSans-Roman-31"/>
       <use x="63.623046875" xlink:href="#BitstreamVeraSans-Roman-34"/>
       <use x="127.24609375" xlink:href="#BitstreamVeraSans-Roman-30"/>
       <use x="190.869140625" xlink:href="#BitstreamVeraSans-Roman-30"/>
       <use x="254.4921875" xlink:href="#BitstreamVeraSans-Roman-30"/>
      </g>
     </g>
    </g>
    <g id="ytick_9">
     <g id="line2d_30">
      <g>
       <use style="stroke:#000000;stroke-width:0.5;" x="108.0" xlink:href="#md7965d1ba0" y="64.8"/>
      </g>
     </g>
     <g id="line2d_31">
      <g>
       <use style="stroke:#000000;stroke-width:0.5;" x="777.6" xlink:href="#md9a1c1a7cd" y="64.8"/>
      </g>
     </g>
     <g id="text_15">
      <!-- 16000 -->
      <g transform="translate(67.94 68.11125)scale(0.12 -0.12)">
       <use xlink:href="#BitstreamVeraSans-Roman-31"/>
       <use x="63.623046875" xlink:href="#BitstreamVeraSans-Roman-36"/>
       <use x="127.24609375" xlink:href="#BitstreamVeraSans-Roman-30"/>
       <use x="190.869140625" xlink:href="#BitstreamVeraSans-Roman-30"/>
       <use x="254.4921875" xlink:href="#BitstreamVeraSans-Roman-30"/>
      </g>
     </g>
    </g>
    <g id="text_16">
     <!-- particle numbers -->
     <defs>
      <path d="
M41.1094 46.2969
Q39.5938 47.1719 37.8125 47.5781
Q36.0312 48 33.8906 48
Q26.2656 48 22.1875 43.0469
Q18.1094 38.0938 18.1094 28.8125
L18.1094 0
L9.07812 0
L9.07812 54.6875
L18.1094 54.6875
L18.1094 46.1875
Q20.9531 51.1719 25.4844 53.5781
Q30.0312 56 36.5312 56
Q37.4531 56 38.5781 55.875
Q39.7031 55.7656 41.0625 55.5156
z
" id="BitstreamVeraSans-Roman-72"/>
      <path d="
M8.5 21.5781
L8.5 54.6875
L17.4844 54.6875
L17.4844 21.9219
Q17.4844 14.1562 20.5 10.2656
Q23.5312 6.39062 29.5938 6.39062
Q36.8594 6.39062 41.0781 11.0312
Q45.3125 15.6719 45.3125 23.6875
L45.3125 54.6875
L54.2969 54.6875
L54.2969 0
L45.3125 0
L45.3125 8.40625
Q42.0469 3.42188 37.7188 1
Q33.4062 -1.42188 27.6875 -1.42188
Q18.2656 -1.42188 13.375 4.4375
Q8.5 10.2969 8.5 21.5781" id="BitstreamVeraSans-Roman-75"/>
      <path d="
M56.2031 29.5938
L56.2031 25.2031
L14.8906 25.2031
Q15.4844 15.9219 20.4844 11.0625
Q25.4844 6.20312 34.4219 6.20312
Q39.5938 6.20312 44.4531 7.46875
Q49.3125 8.73438 54.1094 11.2812
L54.1094 2.78125
Q49.2656 0.734375 44.1875 -0.34375
Q39.1094 -1.42188 33.8906 -1.42188
Q20.7969 -1.42188 13.1562 6.1875
Q5.51562 13.8125 5.51562 26.8125
Q5.51562 40.2344 12.7656 48.1094
Q20.0156 56 32.3281 56
Q43.3594 56 49.7812 48.8906
Q56.2031 41.7969 56.2031 29.5938
M47.2188 32.2344
Q47.125 39.5938 43.0938 43.9844
Q39.0625 48.3906 32.4219 48.3906
Q24.9062 48.3906 20.3906 44.1406
Q15.875 39.8906 15.1875 32.1719
z
" id="BitstreamVeraSans-Roman-65"/>
      <path d="
M9.42188 75.9844
L18.4062 75.9844
L18.4062 0
L9.42188 0
z
" id="BitstreamVeraSans-Roman-6c"/>
      <path d="
M48.6875 27.2969
Q48.6875 37.2031 44.6094 42.8438
Q40.5312 48.4844 33.4062 48.4844
Q26.2656 48.4844 22.1875 42.8438
Q18.1094 37.2031 18.1094 27.2969
Q18.1094 17.3906 22.1875 11.75
Q26.2656 6.10938 33.4062 6.10938
Q40.5312 6.10938 44.6094 11.75
Q48.6875 17.3906 48.6875 27.2969
M18.1094 46.3906
Q20.9531 51.2656 25.2656 53.625
Q29.5938 56 35.5938 56
Q45.5625 56 51.7812 48.0938
Q58.0156 40.1875 58.0156 27.2969
Q58.0156 14.4062 51.7812 6.48438
Q45.5625 -1.42188 35.5938 -1.42188
Q29.5938 -1.42188 25.2656 0.953125
Q20.9531 3.32812 18.1094 8.20312
L18.1094 0
L9.07812 0
L9.07812 75.9844
L18.1094 75.9844
z
" id="BitstreamVeraSans-Roman-62"/>
      <path d="
M54.8906 33.0156
L54.8906 0
L45.9062 0
L45.9062 32.7188
Q45.9062 40.4844 42.875 44.3281
Q39.8438 48.1875 33.7969 48.1875
Q26.5156 48.1875 22.3125 43.5469
Q18.1094 38.9219 18.1094 30.9062
L18.1094 0
L9.07812 0
L9.07812 54.6875
L18.1094 54.6875
L18.1094 46.1875
Q21.3438 51.125 25.7031 53.5625
Q30.0781 56 35.7969 56
Q45.2188 56 50.0469 50.1719
Q54.8906 44.3438 54.8906 33.0156" id="BitstreamVeraSans-Roman-6e"/>
      <path d="
M9.42188 54.6875
L18.4062 54.6875
L18.4062 0
L9.42188 0
z

M9.42188 75.9844
L18.4062 75.9844
L18.4062 64.5938
L9.42188 64.5938
z
" id="BitstreamVeraSans-Roman-69"/>
      <path d="
M34.2812 27.4844
Q23.3906 27.4844 19.1875 25
Q14.9844 22.5156 14.9844 16.5
Q14.9844 11.7188 18.1406 8.90625
Q21.2969 6.10938 26.7031 6.10938
Q34.1875 6.10938 38.7031 11.4062
Q43.2188 16.7031 43.2188 25.4844
L43.2188 27.4844
z

M52.2031 31.2031
L52.2031 0
L43.2188 0
L43.2188 8.29688
Q40.1406 3.32812 35.5469 0.953125
Q30.9531 -1.42188 24.3125 -1.42188
Q15.9219 -1.42188 10.9531 3.29688
Q6 8.01562 6 15.9219
Q6 25.1406 12.1719 29.8281
Q18.3594 34.5156 30.6094 34.5156
L43.2188 34.5156
L43.2188 35.4062
Q43.2188 41.6094 39.1406 45
Q35.0625 48.3906 27.6875 48.3906
Q23 48.3906 18.5469 47.2656
Q14.1094 46.1406 10.0156 43.8906
L10.0156 52.2031
Q14.9375 54.1094 19.5781 55.0469
Q24.2188 56 28.6094 56
Q40.4844 56 46.3438 49.8438
Q52.2031 43.7031 52.2031 31.2031" id="BitstreamVeraSans-Roman-61"/>
      <path d="
M48.7812 52.5938
L48.7812 44.1875
Q44.9688 46.2969 41.1406 47.3438
Q37.3125 48.3906 33.4062 48.3906
Q24.6562 48.3906 19.8125 42.8438
Q14.9844 37.3125 14.9844 27.2969
Q14.9844 17.2812 19.8125 11.7344
Q24.6562 6.20312 33.4062 6.20312
Q37.3125 6.20312 41.1406 7.25
Q44.9688 8.29688 48.7812 10.4062
L48.7812 2.09375
Q45.0156 0.34375 40.9844 -0.53125
Q36.9688 -1.42188 32.4219 -1.42188
Q20.0625 -1.42188 12.7812 6.34375
Q5.51562 14.1094 5.51562 27.2969
Q5.51562 40.6719 12.8594 48.3281
Q20.2188 56 33.0156 56
Q37.1562 56 41.1094 55.1406
Q45.0625 54.2969 48.7812 52.5938" id="BitstreamVeraSans-Roman-63"/>
      <path d="
M18.1094 8.20312
L18.1094 -20.7969
L9.07812 -20.7969
L9.07812 54.6875
L18.1094 54.6875
L18.1094 46.3906
Q20.9531 51.2656 25.2656 53.625
Q29.5938 56 35.5938 56
Q45.5625 56 51.7812 48.0938
Q58.0156 40.1875 58.0156 27.2969
Q58.0156 14.4062 51.7812 6.48438
Q45.5625 -1.42188 35.5938 -1.42188
Q29.5938 -1.42188 25.2656 0.953125
Q20.9531 3.32812 18.1094 8.20312
M48.6875 27.2969
Q48.6875 37.2031 44.6094 42.8438
Q40.5312 48.4844 33.4062 48.4844
Q26.2656 48.4844 22.1875 42.8438
Q18.1094 37.2031 18.1094 27.2969
Q18.1094 17.3906 22.1875 11.75
Q26.2656 6.10938 33.4062 6.10938
Q40.5312 6.10938 44.6094 11.75
Q48.6875 17.3906 48.6875 27.2969" id="BitstreamVeraSans-Roman-70"/>
     </defs>
     <g transform="translate(60.444375 374.78625)rotate(-90.0)scale(0.12 -0.12)">
      <use xlink:href="#BitstreamVeraSans-Roman-70"/>
      <use x="63.4765625" xlink:href="#BitstreamVeraSans-Roman-61"/>
      <use x="124.755859375" xlink:href="#BitstreamVeraSans-Roman-72"/>
      <use x="165.869140625" xlink:href="#BitstreamVeraSans-Roman-74"/>
      <use x="205.078125" xlink:href="#BitstreamVeraSans-Roman-69"/>
      <use x="232.861328125" xlink:href="#BitstreamVeraSans-Roman-63"/>
      <use x="287.841796875" xlink:href="#BitstreamVeraSans-Roman-6c"/>
      <use x="315.625" xlink:href="#BitstreamVeraSans-Roman-65"/>
      <use x="377.1484375" xlink:href="#BitstreamVeraSans-Roman-20"/>
      <use x="408.935546875" xlink:href="#BitstreamVeraSans-Roman-6e"/>
      <use x="472.314453125" xlink:href="#BitstreamVeraSans-Roman-75"/>
      <use x="535.693359375" xlink:href="#BitstreamVeraSans-Roman-6d"/>
      <use x="633.10546875" xlink:href="#BitstreamVeraSans-Roman-62"/>
      <use x="696.58203125" xlink:href="#BitstreamVeraSans-Roman-65"/>
      <use x="758.10546875" xlink:href="#BitstreamVeraSans-Roman-72"/>
      <use x="799.21875" xlink:href="#BitstreamVeraSans-Roman-73"/>
     </g>
    </g>
   </g>
   <g id="legend_1">
    <g id="patch_7">
     <path d="
M715.312 101.224
L774.1 101.224
L774.1 68.3
L715.312 68.3
z
" style="fill:#ffffff;stroke:#000000;stroke-linejoin:miter;"/>
    </g>
    <g id="line2d_32">
     <path d="
M720.212 73.9689
L730.012 73.9689" style="fill:none;stroke:#ff0000;stroke-linecap:square;"/>
    </g>
    <g id="line2d_33"/>
    <g id="text_17">
     <!-- cAMP el.0 -->
     <defs>
      <path d="
M19.6719 64.7969
L19.6719 37.4062
L32.0781 37.4062
Q38.9688 37.4062 42.7188 40.9688
Q46.4844 44.5312 46.4844 51.125
Q46.4844 57.6719 42.7188 61.2344
Q38.9688 64.7969 32.0781 64.7969
z

M9.8125 72.9062
L32.0781 72.9062
Q44.3438 72.9062 50.6094 67.3594
Q56.8906 61.8125 56.8906 51.125
Q56.8906 40.3281 50.6094 34.8125
Q44.3438 29.2969 32.0781 29.2969
L19.6719 29.2969
L19.6719 0
L9.8125 0
z
" id="BitstreamVeraSans-Roman-50"/>
      <path d="
M34.1875 63.1875
L20.7969 26.9062
L47.6094 26.9062
z

M28.6094 72.9062
L39.7969 72.9062
L67.5781 0
L57.3281 0
L50.6875 18.7031
L17.8281 18.7031
L11.1875 0
L0.78125 0
z
" id="BitstreamVeraSans-Roman-41"/>
      <path d="
M10.6875 12.4062
L21 12.4062
L21 0
L10.6875 0
z
" id="BitstreamVeraSans-Roman-2e"/>
      <path d="
M9.8125 72.9062
L24.5156 72.9062
L43.1094 23.2969
L61.8125 72.9062
L76.5156 72.9062
L76.5156 0
L66.8906 0
L66.8906 64.0156
L48.0938 14.0156
L38.1875 14.0156
L19.3906 64.0156
L19.3906 0
L9.8125 0
z
" id="BitstreamVeraSans-Roman-4d"/>
     </defs>
     <g transform="translate(737.71203125 76.41890625)scale(0.07 -0.07)">
      <use xlink:href="#BitstreamVeraSans-Roman-63"/>
      <use x="54.98046875" xlink:href="#BitstreamVeraSans-Roman-41"/>
      <use x="123.388671875" xlink:href="#BitstreamVeraSans-Roman-4d"/>
      <use x="209.66796875" xlink:href="#BitstreamVeraSans-Roman-50"/>
      <use x="269.970703125" xlink:href="#BitstreamVeraSans-Roman-20"/>
      <use x="301.7578125" xlink:href="#BitstreamVeraSans-Roman-65"/>
      <use x="363.28125" xlink:href="#BitstreamVeraSans-Roman-6c"/>
      <use x="391.064453125" xlink:href="#BitstreamVeraSans-Roman-2e"/>
      <use x="422.8515625" xlink:href="#BitstreamVeraSans-Roman-30"/>
     </g>
    </g>
    <g id="line2d_34">
     <path d="
M720.212 84.2436
L730.012 84.2436" style="fill:none;stroke:#008000;stroke-linecap:square;"/>
    </g>
    <g id="line2d_35"/>
    <g id="text_18">
     <!-- cAMP el.1 -->
     <g transform="translate(737.71203125 86.69359375)scale(0.07 -0.07)">
      <use xlink:href="#BitstreamVeraSans-Roman-63"/>
      <use x="54.98046875" xlink:href="#BitstreamVeraSans-Roman-41"/>
      <use x="123.388671875" xlink:href="#BitstreamVeraSans-Roman-4d"/>
      <use x="209.66796875" xlink:href="#BitstreamVeraSans-Roman-50"/>
      <use x="269.970703125" xlink:href="#BitstreamVeraSans-Roman-20"/>
      <use x="301.7578125" xlink:href="#BitstreamVeraSans-Roman-65"/>
      <use x="363.28125" xlink:href="#BitstreamVeraSans-Roman-6c"/>
      <use x="391.064453125" xlink:href="#BitstreamVeraSans-Roman-2e"/>
      <use x="422.8515625" xlink:href="#BitstreamVeraSans-Roman-31"/>
     </g>
    </g>
    <g id="line2d_36">
     <path d="
M720.212 94.5183
L730.012 94.5183" style="fill:none;stroke:#0000ff;stroke-linecap:square;"/>
    </g>
    <g id="line2d_37"/>
    <g id="text_19">
     <!-- cAMP el.2 -->
     <g transform="translate(737.71203125 96.96828125)scale(0.07 -0.07)">
      <use xlink:href="#BitstreamVeraSans-Roman-63"/>
      <use x="54.98046875" xlink:href="#BitstreamVeraSans-Roman-41"/>
      <use x="123.388671875" xlink:href="#BitstreamVeraSans-Roman-4d"/>
      <use x="209.66796875" xlink:href="#BitstreamVeraSans-Roman-50"/>
      <use x="269.970703125" xlink:href="#BitstreamVeraSans-Roman-20"/>
      <use x="301.7578125" xlink:href="#BitstreamVeraSans-Roman-65"/>
      <use x="363.28125" xlink:href="#BitstreamVeraSans-Roman-6c"/>
      <use x="391.064453125" xlink:href="#BitstreamVeraSans-Roman-2e"/>
      <use x="422.8515625" xlink:href="#BitstreamVeraSans-Roman-32"/>
     </g>
    </g>
   </g>
  </g>
 </g>
 <defs>
  <clipPath id="p7ceb695115">
   <rect height="518.4" width="669.6" x="108.0" y="64.8"/>
  </clipPath>
 </defs>
</svg>
