<?xml version="1.0" encoding="utf-8" standalone="no"?>
<!DOCTYPE svg PUBLIC "-//W3C//DTD SVG 1.1//EN"
  "http://www.w3.org/Graphics/SVG/1.1/DTD/svg11.dtd">
<!-- Created with matplotlib (http://matplotlib.org/) -->
<svg height="648pt" version="1.1" viewBox="0 0 864 648" width="864pt" xmlns="http://www.w3.org/2000/svg" xmlns:xlink="http://www.w3.org/1999/xlink">
 <defs>
  <style type="text/css">
*{stroke-linecap:butt;stroke-linejoin:round;}
  </style>
 </defs>
 <g id="figure_1">
  <g id="patch_1">
   <path d="
M0 648
L864 648
L864 0
L0 0
z
" style="fill:#ffffff;"/>
  </g>
  <g id="axes_1">
   <g id="patch_2">
    <path d="
M108 583.2
L777.6 583.2
L777.6 64.8
L108 64.8
z
" style="fill:#ffffff;"/>
   </g>
   <g id="line2d_1">
    <path clip-path="url(#p7ceb695115)" d="
M108 581.956
L108.67 582.785
L109.339 582.578
L110.009 582.163
L110.678 582.371
L111.348 582.785
L112.687 583.2
L113.357 582.578
L114.026 582.785
L114.696 582.578
L116.035 582.993
L116.705 582.785
L117.374 582.993
L118.714 582.993
L119.383 583.2
L120.053 583.2
L120.722 582.993
L121.392 583.2
L122.062 583.2
L122.731 582.993
L123.401 583.2
L124.07 583.2
L124.74 582.993
L125.41 583.2
L126.749 583.2
L127.418 582.993
L129.427 582.993
L130.097 583.2
L442.8 583.2
L443.47 477.654
L444.139 471.226
L444.809 484.497
L445.478 480.349
L446.148 485.741
L446.818 483.46
L447.487 489.266
L448.157 488.851
L448.826 494.45
L449.496 486.156
L450.166 486.778
L450.835 488.644
L451.505 491.34
L452.174 490.717
L452.844 492.376
L453.514 484.082
L454.853 497.353
L455.522 482.838
L456.192 490.717
L456.862 490.717
L457.531 484.497
L458.201 486.156
L458.87 484.704
L459.54 490.51
L460.21 484.911
L460.879 484.704
L461.549 485.533
L462.218 490.095
L462.888 492.584
L463.558 490.51
L464.227 483.875
L464.897 490.717
L465.566 488.229
L466.236 496.316
L466.906 487.607
L467.575 483.667
L468.245 489.888
L468.914 489.473
L469.584 488.022
L470.254 485.741
L470.923 490.717
L471.593 481.179
L472.262 483.667
L472.932 495.694
L473.602 489.266
L474.271 495.694
L474.941 497.353
L475.61 491.547
L476.28 490.51
L476.95 487.4
L477.619 493.62
L478.289 489.888
L478.958 490.925
L479.628 493.62
L480.298 492.791
L480.967 484.704
L481.637 488.644
L482.306 480.972
L482.976 489.888
L483.646 488.644
L484.315 498.182
L484.985 485.533
L485.654 488.022
L486.324 489.888
L486.994 484.497
L487.663 488.022
L488.333 495.487
L489.002 481.386
L489.672 495.279
L490.342 489.681
L491.011 497.146
L491.681 489.681
L492.35 492.998
L493.02 495.694
L493.69 490.925
L494.359 491.962
L495.029 492.791
L495.698 490.51
L496.368 481.594
L497.038 490.095
L497.707 483.252
L498.377 488.229
L499.046 491.962
L499.716 491.962
L500.386 486.156
L501.055 487.192
L501.725 490.51
L502.394 492.169
L503.064 494.865
L503.734 490.095
L504.403 495.901
L505.073 485.741
L505.742 486.363
L506.412 488.229
L507.082 492.584
L507.751 484.289
L508.421 485.533
L509.09 485.326
L509.76 495.694
L510.43 497.146
L511.099 490.717
L511.769 486.985
L512.438 494.657
L513.108 487.4
L513.778 488.644
L514.447 488.436
L515.117 495.279
L515.786 494.657
L516.456 479.52
L517.126 489.681
L517.795 487.192
L519.134 494.657
L519.804 492.376
L520.474 489.473
L521.143 488.644
L521.813 488.644
L522.482 492.791
L523.152 494.035
L524.491 486.778
L525.161 490.095
L525.83 479.935
L526.5 491.962
L527.17 491.754
L527.839 486.57
L528.509 483.045
L529.178 489.681
L529.848 484.704
L530.518 487.192
L531.187 500.256
L531.857 489.681
L532.526 485.326
L533.196 492.584
L533.866 491.34
L534.535 486.156
L535.205 485.533
L535.874 484.704
L536.544 491.754
L537.214 485.741
L537.883 492.584
L538.553 490.303
L539.222 486.985
L539.892 485.326
L540.562 485.326
L541.231 491.132
L541.901 490.925
L542.57 483.46
L543.24 484.497
L543.91 490.095
L544.579 488.022
L545.249 489.473
L545.918 489.888
L546.588 493.828
L547.258 488.436
L547.927 490.51
L548.597 489.473
L549.266 490.51
L549.936 488.022
L550.606 487.814
L551.275 490.925
L551.945 484.082
L552.614 489.681
L553.284 489.266
L553.954 493.62
L554.623 494.657
L555.293 489.059
L555.962 488.436
L556.632 499.427
L557.302 484.704
L557.971 493.828
L558.641 487.814
L559.31 491.754
L559.98 491.132
L560.65 490.717
L561.319 491.34
L561.989 491.34
L562.658 496.109
L563.328 497.353
L563.998 490.925
L564.667 490.303
L565.337 491.34
L566.676 496.731
L567.346 497.146
L568.685 488.022
L569.354 489.473
L570.024 489.059
L570.694 487.607
L571.363 487.192
L572.033 496.109
L572.702 491.962
L573.372 494.035
L574.042 490.717
L574.711 485.741
L575.381 490.51
L576.05 492.998
L576.72 485.326
L577.39 490.925
L578.059 491.754
L578.729 482.216
L579.398 491.754
L580.068 487.192
L580.738 490.925
L581.407 488.229
L582.077 488.851
L582.746 494.035
L583.416 490.51
L584.086 492.169
L584.755 489.473
L585.425 492.998
L586.094 487.192
L586.764 490.925
L588.103 490.095
L588.773 492.791
L590.112 488.229
L590.782 487.192
L592.121 493.206
L592.79 492.584
L593.46 489.888
L594.13 492.791
L594.799 489.473
L595.469 485.119
L596.138 492.169
L596.808 492.998
L597.478 491.34
L598.147 495.072
L598.817 485.533
L599.486 481.386
L600.156 489.059
L600.826 490.717
L601.495 493.62
L602.165 492.376
L602.834 486.778
L603.504 486.363
L604.174 495.694
L604.843 491.132
L605.513 493.828
L606.182 492.169
L606.852 487.4
L607.522 492.998
L608.191 482.423
L608.861 488.229
L609.53 485.741
L610.2 485.533
L610.87 495.279
L611.539 483.252
L612.209 490.51
L612.878 487.607
L613.548 486.57
L614.218 494.657
L614.887 490.717
L615.557 495.072
L616.226 487.192
L616.896 488.851
L617.566 479.313
L618.235 489.266
L619.574 486.156
L620.244 486.363
L620.914 486.985
L621.583 485.533
L622.253 494.45
L622.922 489.473
L623.592 492.791
L624.262 490.925
L624.931 490.717
L625.601 498.804
L626.27 484.704
L626.94 488.022
L627.61 491.962
L628.279 488.851
L628.949 492.998
L629.618 493.62
L630.288 487.814
L630.958 491.34
L631.627 485.533
L632.297 490.303
L632.966 483.045
L633.636 492.169
L634.306 498.597
L634.975 490.717
L635.645 489.266
L636.314 489.266
L636.984 490.717
L637.654 483.252
L638.323 485.119
L638.993 482.008
L639.662 488.022
L640.332 490.095
L641.002 493.413
L641.671 489.473
L642.341 490.717
L643.01 487.814
L643.68 487.4
L644.35 499.012
L645.019 491.754
L645.689 490.51
L646.358 486.57
L647.028 486.985
L647.698 494.45
L648.367 486.363
L649.037 483.46
L649.706 484.497
L650.376 488.851
L651.046 489.059
L651.715 485.741
L652.385 489.681
L653.054 485.948
L653.724 484.289
L654.394 492.376
L655.063 490.717
L655.733 486.778
L656.402 491.132
L657.072 487.607
L657.742 490.717
L658.411 491.754
L659.081 492.376
L659.75 491.962
L660.42 484.704
L661.09 480.764
L661.759 492.376
L662.429 494.865
L663.098 496.109
L663.768 485.326
L664.438 495.279
L665.107 497.353
L665.777 493.413
L666.446 485.741
L667.116 489.059
L667.786 486.985
L668.455 485.741
L669.125 491.962
L669.794 485.741
L670.464 492.376
L671.134 481.801
L671.803 483.045
L672.473 479.52
L673.142 478.276
L673.812 485.119
L674.482 486.57
L675.151 495.901
L675.821 490.51
L676.49 492.584
L677.16 486.363
L677.83 492.169
L678.499 488.436
L679.169 490.925
L679.838 489.681
L680.508 493.206
L681.178 483.045
L681.847 491.34
L682.517 484.704
L683.186 488.229
L683.856 483.667
L684.526 489.681
L685.195 494.45
L685.865 484.289
L686.534 489.473
L687.204 496.731
L687.874 486.985
L688.543 494.865
L689.213 487.607
L689.882 483.252
L690.552 490.51
L691.222 494.45
L691.891 482.838
L692.561 489.473
L693.23 487.4
L693.9 490.095
L694.57 488.229
L695.239 482.423
L695.909 490.303
L696.578 491.132
L697.248 483.875
L697.918 492.169
L698.587 491.34
L699.257 484.704
L699.926 493.828
L700.596 490.095
L701.266 489.681
L701.935 497.975
L702.605 494.657
L703.274 486.363
L703.944 493.206
L704.614 485.119
L705.283 494.45
L705.953 485.326
L706.622 483.46
L707.292 487.4
L707.962 483.667
L708.631 486.778
L709.301 492.376
L709.97 487.814
L710.64 490.095
L711.31 498.804
L711.979 489.473
L712.649 484.289
L713.318 491.962
L713.988 493.206
L714.658 485.326
L715.327 490.095
L715.997 496.109
L716.666 489.266
L717.336 491.132
L718.006 489.266
L718.675 482.63
L719.345 489.681
L720.014 483.252
L720.684 492.791
L721.354 488.436
L722.023 496.938
L722.693 490.095
L723.362 493.413
L724.032 495.487
L724.702 492.169
L725.371 491.34
L726.041 488.851
L726.71 489.473
L727.38 491.754
L728.05 489.681
L728.719 480.972
L729.389 476.617
L730.058 482.216
L730.728 489.266
L731.398 486.57
L732.067 486.778
L732.737 486.57
L733.406 489.266
L734.076 492.584
L734.746 484.704
L735.415 491.547
L736.085 488.851
L736.754 494.45
L737.424 492.998
L738.094 485.741
L738.763 490.095
L739.433 486.985
L740.102 491.754
L740.772 493.413
L741.442 492.376
L742.111 493.206
L742.781 492.169
L743.45 485.533
L744.12 487.4
L744.79 490.51
L745.459 491.547
L746.129 491.132
L746.798 480.142
L747.468 490.095
L748.138 495.694
L748.807 488.229
L749.477 488.229
L750.146 493.62
L750.816 495.901
L751.486 493.62
L752.155 480.349
L752.825 485.741
L753.494 497.353
L754.164 483.252
L754.834 490.717
L755.503 493.413
L756.173 491.547
L756.842 489.059
L757.512 494.243
L758.182 491.754
L758.851 484.704
L759.521 482.423
L760.19 490.717
L760.86 494.035
L761.53 487.192
L762.199 489.888
L762.869 488.229
L763.538 491.132
L764.208 492.791
L764.878 491.547
L765.547 485.533
L766.217 496.316
L766.886 485.741
L767.556 485.948
L768.226 493.828
L768.895 489.681
L769.565 492.169
L770.234 484.082
L770.904 494.865
L771.574 491.132
L772.243 490.925
L772.913 494.035
L773.582 488.229
L774.252 485.948
L774.922 484.497
L775.591 494.657
L776.261 489.059
L776.93 493.828
L777.6 490.925
L777.6 490.925" style="fill:none;stroke:#ff0000;stroke-linecap:square;"/>
   </g>
   <g id="line2d_2">
    <path clip-path="url(#p7ceb695115)" d="
M108 578.223
L108.67 578.223
L109.339 579.882
L110.009 580.09
L110.678 580.919
L111.348 580.297
L112.018 580.297
L112.687 581.126
L113.357 581.126
L114.026 581.956
L114.696 581.541
L115.366 581.956
L116.035 581.748
L117.374 582.163
L118.044 582.578
L118.714 582.163
L119.383 582.578
L120.053 582.163
L120.722 582.578
L121.392 582.163
L122.062 582.578
L122.731 582.371
L123.401 582.371
L124.07 582.578
L124.74 582.993
L125.41 582.993
L126.079 582.371
L126.749 582.993
L127.418 582.993
L128.088 582.785
L129.427 582.785
L130.097 582.578
L130.766 582.785
L131.436 582.578
L132.106 583.2
L132.775 582.993
L133.445 583.2
L442.8 583.2
L443.47 141.108
L444.139 163.296
L444.809 170.139
L445.478 184.032
L446.148 184.447
L446.818 201.45
L447.487 196.681
L448.157 193.363
L448.826 195.852
L449.496 206.842
L450.166 202.694
L450.835 200.206
L451.505 204.146
L452.174 196.059
L452.844 204.768
L453.514 206.634
L454.183 200.621
L454.853 199.791
L455.522 206.012
L456.192 209.123
L456.862 205.183
L457.531 214.307
L458.201 218.039
L458.87 211.404
L459.54 207.256
L460.21 207.049
L460.879 207.671
L461.549 212.648
L462.888 203.731
L463.558 206.842
L464.227 211.611
L464.897 204.353
L465.566 207.878
L466.236 200.413
L466.906 210.159
L467.575 214.721
L468.245 206.22
L468.914 210.574
L469.584 208.293
L470.254 212.855
L470.923 208.708
L471.593 226.541
L472.262 211.196
L472.932 209.952
L473.602 210.159
L474.271 204.975
L474.941 203.939
L475.61 208.708
L476.28 207.464
L476.95 218.246
L477.619 206.22
L478.289 197.096
L478.958 207.049
L479.628 200.413
L480.298 203.316
L480.967 210.574
L481.637 208.293
L482.306 210.159
L483.646 203.939
L484.315 202.28
L484.985 212.648
L485.654 210.989
L486.324 200.206
L486.994 210.367
L487.663 210.781
L488.333 206.842
L489.002 213.27
L489.672 199.584
L490.342 206.22
L491.011 208.086
L491.681 205.805
L492.35 199.999
L493.02 198.962
L493.69 201.45
L494.359 198.755
L495.029 203.939
L495.698 211.196
L496.368 212.648
L497.038 201.45
L497.707 219.905
L498.377 200.828
L499.046 200.621
L499.716 205.597
L500.386 206.22
L501.055 204.353
L501.725 200.828
L502.394 212.44
L503.064 205.183
L503.734 203.939
L504.403 204.768
L505.073 213.477
L505.742 218.868
L507.082 203.939
L507.751 208.5
L508.421 214.929
L509.09 209.123
L509.76 200.413
L510.43 208.915
L511.099 208.708
L511.769 209.537
L512.438 196.059
L513.108 208.915
L513.778 209.745
L514.447 209.33
L515.117 204.353
L515.786 206.427
L516.456 215.758
L517.126 208.293
L517.795 213.892
L518.465 207.671
L519.134 209.745
L519.804 198.962
L520.474 211.611
L521.143 205.183
L521.813 210.367
L522.482 207.878
L523.152 196.474
L523.822 210.781
L524.491 207.671
L525.161 203.731
L525.83 212.44
L527.17 201.45
L527.839 208.293
L528.509 213.892
L529.178 215.965
L529.848 208.708
L530.518 217.624
L531.187 194.815
L531.857 210.781
L532.526 211.611
L533.196 201.658
L533.866 201.865
L534.535 213.892
L535.205 209.745
L535.874 211.818
L536.544 205.597
L537.214 211.611
L537.883 210.159
L538.553 207.464
L539.222 211.818
L539.892 212.44
L540.562 206.842
L541.231 210.781
L541.901 213.684
L542.57 213.477
L543.24 214.721
L543.91 202.902
L544.579 216.38
L545.249 207.671
L545.918 210.781
L546.588 195.229
L547.258 212.026
L547.927 208.915
L548.597 209.123
L549.266 205.597
L549.936 206.842
L550.606 220.32
L551.275 203.524
L551.945 213.892
L552.614 208.086
L553.284 208.293
L553.954 200.413
L555.293 207.671
L555.962 210.781
L556.632 201.243
L557.302 215.551
L557.971 199.791
L558.641 210.989
L559.31 207.671
L559.98 215.343
L560.65 212.44
L561.319 206.427
L561.989 204.146
L562.658 201.036
L563.328 200.206
L563.998 209.952
L564.667 207.878
L565.337 207.256
L566.006 208.5
L566.676 202.072
L567.346 203.316
L568.015 212.233
L568.685 210.159
L569.354 200.621
L570.024 209.952
L570.694 207.464
L571.363 218.454
L572.033 205.183
L572.702 206.22
L573.372 209.952
L574.042 214.721
L574.711 200.206
L575.381 202.694
L576.05 201.45
L576.72 213.27
L577.39 214.514
L578.059 210.781
L578.729 210.989
L579.398 212.233
L580.068 209.745
L580.738 211.196
L581.407 205.805
L582.077 208.293
L582.746 209.123
L583.416 197.096
L584.086 202.28
L584.755 202.487
L585.425 203.524
L586.094 208.708
L586.764 203.731
L587.434 212.648
L588.103 213.27
L588.773 204.975
L589.442 207.878
L590.112 206.012
L590.782 205.183
L591.451 207.671
L592.121 208.086
L592.79 200.828
L593.46 208.5
L594.13 204.768
L594.799 199.999
L595.469 207.878
L596.808 201.45
L597.478 205.39
L598.147 204.353
L598.817 208.708
L599.486 218.454
L600.156 207.049
L600.826 210.574
L601.495 206.634
L602.165 213.684
L602.834 215.136
L603.504 202.28
L604.174 203.524
L604.843 206.427
L605.513 201.658
L606.182 206.842
L606.852 209.537
L607.522 206.427
L608.191 210.781
L608.861 217.21
L609.53 204.353
L610.2 218.661
L610.87 199.377
L611.539 215.965
L612.209 208.086
L612.878 213.477
L613.548 211.818
L614.218 205.597
L614.887 215.551
L615.557 205.805
L616.896 207.878
L617.566 216.173
L618.235 207.049
L618.905 206.427
L620.244 219.076
L620.914 207.256
L621.583 204.146
L622.253 211.404
L622.922 213.684
L623.592 202.28
L624.262 214.099
L624.931 210.574
L625.601 201.658
L626.27 214.307
L626.94 208.915
L627.61 208.708
L628.279 214.721
L628.949 205.39
L629.618 206.634
L630.288 206.842
L630.958 206.012
L631.627 218.454
L632.297 204.353
L632.966 208.293
L633.636 208.708
L634.306 199.999
L634.975 203.109
L635.645 208.708
L636.314 204.353
L636.984 204.975
L637.654 213.27
L638.323 207.256
L638.993 216.38
L639.662 203.939
L640.332 206.427
L641.002 205.597
L641.671 207.464
L642.341 207.256
L643.01 214.514
L643.68 208.915
L644.35 198.547
L645.019 213.684
L645.689 211.404
L646.358 214.307
L647.028 214.514
L647.698 198.132
L648.367 217.002
L649.037 210.989
L649.706 212.026
L650.376 206.842
L651.715 213.477
L652.385 211.611
L653.054 214.099
L653.724 207.878
L654.394 198.132
L655.063 212.855
L656.402 209.952
L657.072 214.307
L657.742 220.32
L658.411 207.671
L659.081 201.865
L659.75 202.902
L660.42 214.929
L661.09 206.427
L661.759 202.694
L662.429 208.5
L663.098 200.206
L663.768 216.173
L664.438 202.072
L665.107 206.427
L665.777 207.049
L666.446 210.781
L667.116 202.072
L667.786 209.123
L668.455 209.952
L669.125 210.989
L669.794 207.671
L670.464 206.427
L671.134 212.233
L672.473 217.002
L673.142 216.38
L673.812 207.256
L674.482 213.27
L675.151 204.146
L675.821 214.929
L676.49 205.805
L677.16 212.026
L677.83 209.952
L678.499 209.33
L679.169 208.915
L679.838 208.708
L680.508 209.745
L681.178 209.537
L681.847 213.477
L682.517 219.491
L683.186 208.086
L683.856 210.781
L684.526 210.989
L685.195 202.902
L685.865 213.27
L687.204 202.072
L687.874 216.588
L688.543 198.755
L689.213 211.611
L689.882 221.564
L690.552 201.865
L691.222 207.256
L691.891 220.527
L692.561 208.293
L693.23 211.611
L693.9 206.012
L694.57 211.404
L695.239 214.307
L695.909 203.316
L696.578 206.842
L697.248 210.989
L697.918 204.561
L698.587 207.464
L699.257 207.878
L699.926 210.574
L700.596 203.731
L701.266 213.477
L701.935 198.755
L702.605 197.925
L703.274 208.086
L703.944 205.597
L704.614 217.002
L705.283 208.5
L705.953 211.611
L706.622 213.062
L707.292 206.427
L707.962 216.173
L708.631 201.243
L709.301 199.584
L709.97 215.343
L710.64 202.28
L711.31 201.036
L711.979 212.44
L712.649 211.818
L713.318 205.39
L713.988 203.731
L714.658 213.477
L715.327 209.745
L715.997 204.768
L716.666 207.464
L717.336 202.902
L718.675 221.772
L719.345 207.671
L720.014 212.44
L720.684 206.012
L721.354 211.404
L722.023 208.5
L722.693 206.634
L723.362 202.487
L724.032 196.681
L724.702 204.353
L725.371 203.524
L726.041 207.049
L726.71 216.173
L727.38 206.22
L728.05 209.33
L728.719 217.417
L729.389 219.076
L730.058 209.745
L730.728 212.44
L731.398 202.28
L732.067 211.611
L732.737 215.343
L733.406 207.464
L734.076 204.561
L734.746 213.684
L735.415 207.464
L736.085 208.915
L736.754 208.293
L737.424 204.146
L738.094 211.611
L738.763 212.026
L739.433 210.159
L740.102 210.367
L740.772 210.367
L741.442 208.915
L742.111 204.353
L742.781 205.39
L743.45 213.892
L744.12 213.477
L744.79 207.464
L745.459 202.902
L746.129 204.561
L746.798 215.965
L747.468 207.878
L748.138 202.694
L748.807 213.27
L749.477 209.745
L750.146 204.768
L750.816 198.34
L751.486 201.243
L752.155 215.136
L752.825 210.367
L753.494 202.28
L754.164 209.123
L754.834 203.939
L755.503 203.731
L756.173 211.611
L756.842 208.293
L757.512 202.902
L758.182 201.658
L758.851 212.233
L759.521 215.343
L760.19 204.975
L760.86 197.303
L761.53 209.745
L762.199 207.671
L762.869 213.892
L763.538 210.781
L764.208 201.658
L764.878 215.136
L765.547 207.256
L766.217 203.731
L766.886 209.33
L767.556 210.159
L768.226 208.086
L768.895 207.878
L769.565 204.353
L770.234 209.745
L771.574 205.39
L772.243 213.684
L772.913 209.745
L773.582 207.464
L774.252 215.758
L774.922 212.44
L775.591 203.939
L776.261 215.758
L776.93 206.634
L777.6 214.514
L777.6 214.514" style="fill:none;stroke:#008000;stroke-linecap:square;"/>
   </g>
   <g id="line2d_3">
    <path clip-path="url(#p7ceb695115)" d="
M108 581.956
L108.67 582.578
L109.339 582.785
L110.009 583.2
L110.678 582.163
L111.348 582.371
L112.018 582.785
L112.687 582.371
L113.357 583.2
L114.026 582.371
L114.696 583.2
L115.366 582.993
L117.374 582.993
L118.044 582.785
L118.714 583.2
L119.383 582.578
L120.053 583.2
L120.722 582.993
L121.392 583.2
L123.401 583.2
L124.74 582.785
L125.41 582.785
L126.079 583.2
L126.749 582.785
L127.418 583.2
L130.097 583.2
L130.766 582.993
L131.436 583.2
L132.106 582.578
L132.775 582.993
L133.445 583.2
L442.8 583.2
L443.47 474.751
L444.139 478.483
L444.809 476.617
L445.478 481.594
L446.148 488.644
L446.818 479.105
L447.487 481.594
L448.157 490.925
L448.826 487.607
L449.496 484.911
L450.166 488.851
L450.835 490.51
L451.505 485.741
L452.174 496.524
L452.844 487.192
L453.514 494.657
L454.183 493.62
L454.853 488.229
L455.522 497.146
L456.192 486.363
L456.862 490.51
L457.531 487.4
L458.201 482.216
L458.87 490.303
L459.54 488.851
L460.21 494.865
L460.879 494.45
L461.549 488.436
L462.218 488.436
L462.888 490.303
L463.558 489.473
L464.227 491.34
L464.897 491.754
L465.566 490.717
L466.236 490.095
L466.906 489.059
L467.575 488.436
L468.245 490.717
L468.914 486.778
L469.584 490.51
L470.254 488.229
L470.923 487.4
L471.593 479.105
L472.262 491.962
L472.932 481.179
L473.602 487.4
L474.271 486.156
L474.941 485.533
L475.61 486.57
L476.28 488.851
L476.95 481.179
L477.619 486.985
L478.289 499.841
L478.958 488.851
L479.628 492.791
L480.298 490.717
L480.967 491.547
L481.637 489.888
L482.306 495.694
L482.976 490.095
L483.646 494.243
L484.315 486.363
L484.985 488.644
L485.654 487.814
L486.324 496.731
L486.994 491.962
L488.333 484.497
L489.002 492.169
L489.672 491.962
L490.342 490.925
L491.011 481.594
L491.681 491.34
L492.35 493.828
L493.02 492.169
L493.69 494.45
L494.359 496.109
L495.029 490.095
L495.698 485.119
L496.368 492.584
L497.038 495.279
L497.707 483.667
L498.377 497.768
L499.046 494.243
L499.716 489.266
L500.386 494.45
L501.055 495.279
L501.725 495.487
L502.394 482.216
L503.064 486.778
L503.734 492.791
L504.403 486.156
L505.073 487.607
L505.742 481.594
L506.412 486.778
L507.751 494.035
L508.421 486.363
L509.09 492.376
L509.76 490.717
L510.43 480.764
L511.099 487.4
L511.769 490.303
L512.438 496.109
L513.108 490.51
L513.778 488.436
L514.447 489.059
L515.117 487.192
L515.786 485.741
L516.456 491.547
L517.795 485.741
L518.465 488.436
L519.134 482.423
L519.804 495.487
L520.474 485.741
L521.143 492.998
L521.813 487.814
L522.482 486.156
L523.152 496.316
L523.822 485.948
L524.491 492.376
L525.161 492.998
L525.83 494.45
L526.5 487.607
L527.17 493.62
L527.839 491.962
L528.509 489.888
L529.178 481.179
L529.848 493.413
L530.518 482.008
L531.187 491.754
L531.857 486.363
L532.526 489.888
L533.196 492.584
L533.866 493.62
L534.535 486.778
L535.205 491.547
L535.874 490.303
L536.544 489.473
L537.214 489.473
L537.883 484.082
L538.553 489.059
L539.222 488.022
L539.892 489.059
L540.562 494.657
L541.231 484.911
L541.901 482.216
L542.57 489.888
L543.24 487.607
L543.91 493.828
L544.579 482.423
L545.249 489.681
L545.918 486.156
L546.588 497.768
L547.258 486.363
L547.927 487.4
L548.597 488.229
L549.266 490.717
L549.936 491.962
L550.606 478.691
L551.275 492.376
L551.945 488.851
L553.284 489.266
L553.954 492.791
L554.623 488.022
L555.293 490.095
L555.962 487.607
L556.632 486.156
L557.302 486.57
L557.971 493.206
L558.641 488.022
L559.31 487.4
L559.98 480.349
L560.65 483.667
L561.319 489.059
L561.989 491.34
L562.658 489.681
L563.328 489.266
L563.998 485.948
L564.667 488.644
L565.337 488.229
L566.006 484.289
L566.676 488.022
L567.346 486.363
L568.015 482.216
L568.685 488.644
L569.354 496.731
L570.024 487.814
L570.694 491.754
L571.363 481.179
L572.033 485.533
L572.702 488.644
L573.372 482.838
L574.042 481.386
L574.711 500.878
L575.381 493.62
L576.05 492.376
L576.72 488.229
L577.39 481.386
L578.059 484.289
L578.729 493.62
L579.398 482.838
L580.068 489.888
L580.738 484.704
L581.407 492.791
L582.077 489.681
L582.746 483.667
L583.416 499.219
L584.086 492.376
L584.755 494.865
L585.425 490.303
L586.094 490.925
L586.764 492.169
L587.434 483.667
L588.103 483.46
L588.773 489.059
L589.442 488.644
L590.112 492.584
L590.782 494.45
L591.451 488.851
L592.121 485.533
L592.79 493.413
L593.46 488.436
L594.13 489.266
L594.799 497.353
L596.138 490.095
L596.808 492.376
L597.478 490.095
L598.147 487.4
L598.817 492.584
L599.486 486.985
L600.156 490.717
L600.826 485.533
L601.495 486.57
L602.165 480.764
L602.834 484.911
L603.504 498.182
L604.174 487.607
L604.843 489.266
L605.513 491.34
L606.182 487.814
L606.852 489.888
L607.522 487.4
L608.191 493.62
L608.861 481.386
L609.53 496.731
L610.2 482.63
L610.87 492.169
L611.539 487.607
L612.209 488.229
L612.878 485.741
L613.548 488.436
L614.218 486.57
L614.887 480.557
L615.557 485.948
L616.226 492.791
L616.896 490.095
L617.566 491.34
L618.235 490.51
L618.905 492.584
L619.574 488.229
L620.244 481.386
L620.914 492.584
L621.583 497.146
L622.253 480.972
L622.922 483.667
L623.592 491.754
L624.262 481.801
L624.931 485.533
L625.601 486.363
L626.27 487.814
L626.94 489.888
L627.61 486.156
L628.279 483.252
L628.949 488.436
L629.618 486.57
L630.288 492.169
L630.958 489.473
L631.627 482.838
L632.297 492.169
L632.966 495.487
L633.636 485.948
L634.306 488.229
L634.975 492.998
L635.645 488.851
L636.314 493.206
L636.984 491.132
L637.654 490.303
L638.323 494.45
L638.993 488.436
L639.662 494.865
L640.332 490.303
L641.002 487.814
L641.671 489.888
L642.341 488.851
L643.01 484.497
L643.68 490.51
L644.35 489.266
L645.019 481.386
L645.689 484.911
L646.358 485.948
L647.028 485.326
L647.698 494.243
L648.367 483.46
L649.037 492.376
L649.706 490.303
L650.376 491.132
L651.046 487.814
L651.715 487.607
L652.385 485.533
L653.054 486.778
L653.724 494.657
L654.394 496.316
L655.063 483.252
L655.733 488.644
L656.402 485.741
L657.072 484.911
L657.742 475.788
L658.411 487.4
L659.081 492.584
L659.75 491.962
L660.42 487.192
L661.09 499.634
L662.429 483.46
L663.098 490.51
L663.768 485.326
L664.438 489.473
L665.107 483.045
L665.777 486.363
L666.446 490.303
L667.116 495.694
L667.786 490.717
L668.455 491.132
L669.125 483.875
L669.794 493.413
L670.464 488.022
L671.134 492.791
L671.803 489.266
L672.473 490.303
L673.142 492.169
L673.812 494.45
L674.482 486.985
L675.151 486.778
L675.821 481.386
L676.49 488.436
L677.16 488.436
L677.83 484.704
L678.499 489.059
L679.169 486.985
L679.838 488.436
L680.508 483.875
L681.178 494.243
L681.847 482.008
L682.517 482.63
L683.186 490.51
L683.856 492.376
L684.526 486.156
L685.195 489.473
L685.865 489.266
L686.534 489.888
L687.204 488.022
L687.874 483.252
L688.543 493.206
L689.882 482.008
L690.552 494.45
L691.222 485.119
L691.891 483.46
L692.561 489.059
L693.23 487.814
L693.9 490.717
L694.57 487.192
L695.909 493.206
L696.578 488.851
L697.248 491.962
L698.587 488.022
L699.257 494.243
L699.926 482.423
L700.596 492.998
L701.266 483.667
L701.935 490.095
L702.605 494.243
L703.274 492.376
L703.944 488.022
L704.614 484.704
L705.283 483.875
L705.953 489.888
L706.622 490.303
L707.292 492.998
L707.962 486.985
L708.631 498.804
L709.301 494.865
L709.97 483.667
L710.64 494.45
L711.31 486.985
L711.979 484.911
L712.649 490.717
L713.318 489.473
L713.988 489.888
L714.658 488.022
L715.997 485.948
L716.666 490.095
L717.336 492.791
L718.006 485.119
L718.675 482.423
L719.345 489.473
L720.014 491.132
L720.684 488.022
L721.354 486.985
L722.023 481.386
L722.693 490.095
L723.362 490.925
L724.032 494.657
L724.702 490.303
L725.371 491.962
L726.041 490.925
L726.71 481.179
L727.38 488.851
L728.05 487.814
L728.719 488.436
L729.389 491.132
L730.058 494.865
L730.728 485.119
L731.398 497.975
L732.067 488.436
L732.737 484.911
L733.406 490.095
L734.076 489.681
L734.746 488.436
L735.415 487.814
L736.085 489.059
L736.754 484.082
L737.424 489.681
L738.094 489.473
L738.763 484.704
L739.433 489.681
L740.102 484.704
L740.772 483.045
L741.442 485.533
L742.111 489.266
L742.781 489.266
L743.45 487.4
L744.12 485.948
L744.79 488.851
L745.459 492.376
L746.129 491.132
L746.798 490.717
L747.468 488.851
L748.138 488.436
L748.807 485.326
L749.477 488.851
L750.146 488.436
L750.816 492.584
L752.825 490.717
L753.494 487.192
L754.164 494.45
L755.503 489.681
L756.173 483.667
L756.842 489.473
L757.512 489.681
L758.182 493.413
L758.851 489.888
L759.521 489.059
L760.19 491.132
L760.86 495.487
L761.53 489.888
L762.199 489.266
L762.869 484.704
L763.538 484.911
L764.208 492.376
L764.878 480.142
L765.547 494.035
L766.217 486.778
L766.886 491.754
L767.556 490.717
L768.226 484.911
L768.895 489.266
L769.565 490.303
L770.234 492.998
L770.904 484.289
L771.574 490.303
L772.243 482.216
L772.913 483.045
L773.582 491.132
L774.252 485.119
L774.922 489.888
L775.591 488.229
L776.261 482.008
L776.93 486.363
L777.6 481.386
L777.6 481.386" style="fill:none;stroke:#0000ff;stroke-linecap:square;"/>
   </g>
   <g id="patch_3">
    <path d="
M108 583.2
L108 64.8" style="fill:none;stroke:#000000;stroke-linecap:square;stroke-linejoin:miter;"/>
   </g>
   <g id="patch_4">
    <path d="
M777.6 583.2
L777.6 64.8" style="fill:none;stroke:#000000;stroke-linecap:square;stroke-linejoin:miter;"/>
   </g>
   <g id="patch_5">
    <path d="
M108 583.2
L777.6 583.2" style="fill:none;stroke:#000000;stroke-linecap:square;stroke-linejoin:miter;"/>
   </g>
   <g id="patch_6">
    <path d="
M108 64.8
L777.6 64.8" style="fill:none;stroke:#000000;stroke-linecap:square;stroke-linejoin:miter;"/>
   </g>
   <g id="matplotlib.axis_1">
    <g id="xtick_1">
     <g id="line2d_4">
      <defs>
       <path d="
M0 0
L0 -4" id="mc7db9fdffb" style="stroke:#000000;stroke-width:0.5;"/>
      </defs>
      <g>
       <use style="stroke:#000000;stroke-width:0.5;" x="108.0" xlink:href="#mc7db9fdffb" y="583.2"/>
      </g>
     </g>
     <g id="line2d_5">
      <defs>
       <path d="
M0 0
L0 4" id="m5a7d422ac3" style="stroke:#000000;stroke-width:0.5;"/>
      </defs>
      <g>
       <use style="stroke:#000000;stroke-width:0.5;" x="108.0" xlink:href="#m5a7d422ac3" y="64.8"/>
      </g>
     </g>
     <g id="text_1">
      <!-- 0 -->
      <defs>
       <path d="
M31.7812 66.4062
Q24.1719 66.4062 20.3281 58.9062
Q16.5 51.4219 16.5 36.375
Q16.5 21.3906 20.3281 13.8906
Q24.1719 6.39062 31.7812 6.39062
Q39.4531 6.39062 43.2812 13.8906
Q47.125 21.3906 47.125 36.375
Q47.125 51.4219 43.2812 58.9062
Q39.4531 66.4062 31.7812 66.4062
M31.7812 74.2188
Q44.0469 74.2188 50.5156 64.5156
Q56.9844 54.8281 56.9844 36.375
Q56.9844 17.9688 50.5156 8.26562
Q44.0469 -1.42188 31.7812 -1.42188
Q19.5312 -1.42188 13.0625 8.26562
Q6.59375 17.9688 6.59375 36.375
Q6.59375 54.8281 13.0625 64.5156
Q19.5312 74.2188 31.7812 74.2188" id="BitstreamVeraSans-Roman-30"/>
      </defs>
      <g transform="translate(104.9765625 596.318125)scale(0.12 -0.12)">
       <use xlink:href="#BitstreamVeraSans-Roman-30"/>
      </g>
     </g>
    </g>
    <g id="xtick_2">
     <g id="line2d_6">
      <g>
       <use style="stroke:#000000;stroke-width:0.5;" x="275.4" xlink:href="#mc7db9fdffb" y="583.2"/>
      </g>
     </g>
     <g id="line2d_7">
      <g>
       <use style="stroke:#000000;stroke-width:0.5;" x="275.4" xlink:href="#m5a7d422ac3" y="64.8"/>
      </g>
     </g>
     <g id="text_2">
      <!-- 50000 -->
      <defs>
       <path d="
M10.7969 72.9062
L49.5156 72.9062
L49.5156 64.5938
L19.8281 64.5938
L19.8281 46.7344
Q21.9688 47.4688 24.1094 47.8281
Q26.2656 48.1875 28.4219 48.1875
Q40.625 48.1875 47.75 41.5
Q54.8906 34.8125 54.8906 23.3906
Q54.8906 11.625 47.5625 5.09375
Q40.2344 -1.42188 26.9062 -1.42188
Q22.3125 -1.42188 17.5469 -0.640625
Q12.7969 0.140625 7.71875 1.70312
L7.71875 11.625
Q12.1094 9.23438 16.7969 8.0625
Q21.4844 6.89062 26.7031 6.89062
Q35.1562 6.89062 40.0781 11.3281
Q45.0156 15.7656 45.0156 23.3906
Q45.0156 31 40.0781 35.4375
Q35.1562 39.8906 26.7031 39.8906
Q22.75 39.8906 18.8125 39.0156
Q14.8906 38.1406 10.7969 36.2812
z
" id="BitstreamVeraSans-Roman-35"/>
      </defs>
      <g transform="translate(257.1740625 596.318125)scale(0.12 -0.12)">
       <use xlink:href="#BitstreamVeraSans-Roman-35"/>
       <use x="63.623046875" xlink:href="#BitstreamVeraSans-Roman-30"/>
       <use x="127.24609375" xlink:href="#BitstreamVeraSans-Roman-30"/>
       <use x="190.869140625" xlink:href="#BitstreamVeraSans-Roman-30"/>
       <use x="254.4921875" xlink:href="#BitstreamVeraSans-Roman-30"/>
      </g>
     </g>
    </g>
    <g id="xtick_3">
     <g id="line2d_8">
      <g>
       <use style="stroke:#000000;stroke-width:0.5;" x="442.8" xlink:href="#mc7db9fdffb" y="583.2"/>
      </g>
     </g>
     <g id="line2d_9">
      <g>
       <use style="stroke:#000000;stroke-width:0.5;" x="442.8" xlink:href="#m5a7d422ac3" y="64.8"/>
      </g>
     </g>
     <g id="text_3">
      <!-- 100000 -->
      <defs>
       <path d="
M12.4062 8.29688
L28.5156 8.29688
L28.5156 63.9219
L10.9844 60.4062
L10.9844 69.3906
L28.4219 72.9062
L38.2812 72.9062
L38.2812 8.29688
L54.3906 8.29688
L54.3906 0
L12.4062 0
z
" id="BitstreamVeraSans-Roman-31"/>
      </defs>
      <g transform="translate(420.9525 596.318125)scale(0.12 -0.12)">
       <use xlink:href="#BitstreamVeraSans-Roman-31"/>
       <use x="63.623046875" xlink:href="#BitstreamVeraSans-Roman-30"/>
       <use x="127.24609375" xlink:href="#BitstreamVeraSans-Roman-30"/>
       <use x="190.869140625" xlink:href="#BitstreamVeraSans-Roman-30"/>
       <use x="254.4921875" xlink:href="#BitstreamVeraSans-Roman-30"/>
       <use x="318.115234375" xlink:href="#BitstreamVeraSans-Roman-30"/>
      </g>
     </g>
    </g>
    <g id="xtick_4">
     <g id="line2d_10">
      <g>
       <use style="stroke:#000000;stroke-width:0.5;" x="610.2" xlink:href="#mc7db9fdffb" y="583.2"/>
      </g>
     </g>
     <g id="line2d_11">
      <g>
       <use style="stroke:#000000;stroke-width:0.5;" x="610.2" xlink:href="#m5a7d422ac3" y="64.8"/>
      </g>
     </g>
     <g id="text_4">
      <!-- 150000 -->
      <g transform="translate(588.3525 596.318125)scale(0.12 -0.12)">
       <use xlink:href="#BitstreamVeraSans-Roman-31"/>
       <use x="63.623046875" xlink:href="#BitstreamVeraSans-Roman-35"/>
       <use x="127.24609375" xlink:href="#BitstreamVeraSans-Roman-30"/>
       <use x="190.869140625" xlink:href="#BitstreamVeraSans-Roman-30"/>
       <use x="254.4921875" xlink:href="#BitstreamVeraSans-Roman-30"/>
       <use x="318.115234375" xlink:href="#BitstreamVeraSans-Roman-30"/>
      </g>
     </g>
    </g>
    <g id="xtick_5">
     <g id="line2d_12">
      <g>
       <use style="stroke:#000000;stroke-width:0.5;" x="777.6" xlink:href="#mc7db9fdffb" y="583.2"/>
      </g>
     </g>
     <g id="line2d_13">
      <g>
       <use style="stroke:#000000;stroke-width:0.5;" x="777.6" xlink:href="#m5a7d422ac3" y="64.8"/>
      </g>
     </g>
     <g id="text_5">
      <!-- 200000 -->
      <defs>
       <path d="
M19.1875 8.29688
L53.6094 8.29688
L53.6094 0
L7.32812 0
L7.32812 8.29688
Q12.9375 14.1094 22.625 23.8906
Q32.3281 33.6875 34.8125 36.5312
Q39.5469 41.8438 41.4219 45.5312
Q43.3125 49.2188 43.3125 52.7812
Q43.3125 58.5938 39.2344 62.25
Q35.1562 65.9219 28.6094 65.9219
Q23.9688 65.9219 18.8125 64.3125
Q13.6719 62.7031 7.8125 59.4219
L7.8125 69.3906
Q13.7656 71.7812 18.9375 73
Q24.125 74.2188 28.4219 74.2188
Q39.75 74.2188 46.4844 68.5469
Q53.2188 62.8906 53.2188 53.4219
Q53.2188 48.9219 51.5312 44.8906
Q49.8594 40.875 45.4062 35.4062
Q44.1875 33.9844 37.6406 27.2188
Q31.1094 20.4531 19.1875 8.29688" id="BitstreamVeraSans-Roman-32"/>
      </defs>
      <g transform="translate(755.533125 596.318125)scale(0.12 -0.12)">
       <use xlink:href="#BitstreamVeraSans-Roman-32"/>
       <use x="63.623046875" xlink:href="#BitstreamVeraSans-Roman-30"/>
       <use x="127.24609375" xlink:href="#BitstreamVeraSans-Roman-30"/>
       <use x="190.869140625" xlink:href="#BitstreamVeraSans-Roman-30"/>
       <use x="254.4921875" xlink:href="#BitstreamVeraSans-Roman-30"/>
       <use x="318.115234375" xlink:href="#BitstreamVeraSans-Roman-30"/>
      </g>
     </g>
    </g>
    <g id="text_6">
     <!-- t / ms -->
     <defs>
      <path d="
M44.2812 53.0781
L44.2812 44.5781
Q40.4844 46.5312 36.375 47.5
Q32.2812 48.4844 27.875 48.4844
Q21.1875 48.4844 17.8438 46.4375
Q14.5 44.3906 14.5 40.2812
Q14.5 37.1562 16.8906 35.375
Q19.2812 33.5938 26.5156 31.9844
L29.5938 31.2969
Q39.1562 29.25 43.1875 25.5156
Q47.2188 21.7812 47.2188 15.0938
Q47.2188 7.46875 41.1875 3.01562
Q35.1562 -1.42188 24.6094 -1.42188
Q20.2188 -1.42188 15.4531 -0.5625
Q10.6875 0.296875 5.42188 2
L5.42188 11.2812
Q10.4062 8.6875 15.2344 7.39062
Q20.0625 6.10938 24.8125 6.10938
Q31.1562 6.10938 34.5625 8.28125
Q37.9844 10.4531 37.9844 14.4062
Q37.9844 18.0625 35.5156 20.0156
Q33.0625 21.9688 24.7031 23.7812
L21.5781 24.5156
Q13.2344 26.2656 9.51562 29.9062
Q5.8125 33.5469 5.8125 39.8906
Q5.8125 47.6094 11.2812 51.7969
Q16.75 56 26.8125 56
Q31.7812 56 36.1719 55.2656
Q40.5781 54.5469 44.2812 53.0781" id="BitstreamVeraSans-Roman-73"/>
      <path d="
M18.3125 70.2188
L18.3125 54.6875
L36.8125 54.6875
L36.8125 47.7031
L18.3125 47.7031
L18.3125 18.0156
Q18.3125 11.3281 20.1406 9.42188
Q21.9688 7.51562 27.5938 7.51562
L36.8125 7.51562
L36.8125 0
L27.5938 0
Q17.1875 0 13.2344 3.875
Q9.28125 7.76562 9.28125 18.0156
L9.28125 47.7031
L2.6875 47.7031
L2.6875 54.6875
L9.28125 54.6875
L9.28125 70.2188
z
" id="BitstreamVeraSans-Roman-74"/>
      <path id="BitstreamVeraSans-Roman-20"/>
      <path d="
M52 44.1875
Q55.375 50.25 60.0625 53.125
Q64.75 56 71.0938 56
Q79.6406 56 84.2812 50.0156
Q88.9219 44.0469 88.9219 33.0156
L88.9219 0
L79.8906 0
L79.8906 32.7188
Q79.8906 40.5781 77.0938 44.375
Q74.3125 48.1875 68.6094 48.1875
Q61.625 48.1875 57.5625 43.5469
Q53.5156 38.9219 53.5156 30.9062
L53.5156 0
L44.4844 0
L44.4844 32.7188
Q44.4844 40.625 41.7031 44.4062
Q38.9219 48.1875 33.1094 48.1875
Q26.2188 48.1875 22.1562 43.5312
Q18.1094 38.875 18.1094 30.9062
L18.1094 0
L9.07812 0
L9.07812 54.6875
L18.1094 54.6875
L18.1094 46.1875
Q21.1875 51.2188 25.4844 53.6094
Q29.7812 56 35.6875 56
Q41.6562 56 45.8281 52.9688
Q50 49.9531 52 44.1875" id="BitstreamVeraSans-Roman-6d"/>
      <path d="
M25.3906 72.9062
L33.6875 72.9062
L8.29688 -9.28125
L0 -9.28125
z
" id="BitstreamVeraSans-Roman-2f"/>
     </defs>
     <g transform="translate(425.9353125 612.931875)scale(0.12 -0.12)">
      <use xlink:href="#BitstreamVeraSans-Roman-74"/>
      <use x="39.208984375" xlink:href="#BitstreamVeraSans-Roman-20"/>
      <use x="70.99609375" xlink:href="#BitstreamVeraSans-Roman-2f"/>
      <use x="104.6875" xlink:href="#BitstreamVeraSans-Roman-20"/>
      <use x="136.474609375" xlink:href="#BitstreamVeraSans-Roman-6d"/>
      <use x="233.88671875" xlink:href="#BitstreamVeraSans-Roman-73"/>
     </g>
    </g>
   </g>
   <g id="matplotlib.axis_2">
    <g id="ytick_1">
     <g id="line2d_14">
      <defs>
       <path d="
M0 0
L4 0" id="md7965d1ba0" style="stroke:#000000;stroke-width:0.5;"/>
      </defs>
      <g>
       <use style="stroke:#000000;stroke-width:0.5;" x="108.0" xlink:href="#md7965d1ba0" y="583.2"/>
      </g>
     </g>
     <g id="line2d_15">
      <defs>
       <path d="
M0 0
L-4 0" id="md9a1c1a7cd" style="stroke:#000000;stroke-width:0.5;"/>
      </defs>
      <g>
       <use style="stroke:#000000;stroke-width:0.5;" x="777.6" xlink:href="#md9a1c1a7cd" y="583.2"/>
      </g>
     </g>
     <g id="text_7">
      <!-- 0 -->
      <g transform="translate(97.953125 586.51125)scale(0.12 -0.12)">
       <use xlink:href="#BitstreamVeraSans-Roman-30"/>
      </g>
     </g>
    </g>
    <g id="ytick_2">
     <g id="line2d_16">
      <g>
       <use style="stroke:#000000;stroke-width:0.5;" x="108.0" xlink:href="#md7965d1ba0" y="479.52"/>
      </g>
     </g>
     <g id="line2d_17">
      <g>
       <use style="stroke:#000000;stroke-width:0.5;" x="777.6" xlink:href="#md9a1c1a7cd" y="479.52"/>
      </g>
     </g>
     <g id="text_8">
      <!-- 500 -->
      <g transform="translate(82.818125 482.83125)scale(0.12 -0.12)">
       <use xlink:href="#BitstreamVeraSans-Roman-35"/>
       <use x="63.623046875" xlink:href="#BitstreamVeraSans-Roman-30"/>
       <use x="127.24609375" xlink:href="#BitstreamVeraSans-Roman-30"/>
      </g>
     </g>
    </g>
    <g id="ytick_3">
     <g id="line2d_18">
      <g>
       <use style="stroke:#000000;stroke-width:0.5;" x="108.0" xlink:href="#md7965d1ba0" y="375.84"/>
      </g>
     </g>
     <g id="line2d_19">
      <g>
       <use style="stroke:#000000;stroke-width:0.5;" x="777.6" xlink:href="#md9a1c1a7cd" y="375.84"/>
      </g>
     </g>
     <g id="text_9">
      <!-- 1000 -->
      <g transform="translate(75.575 379.15125)scale(0.12 -0.12)">
       <use xlink:href="#BitstreamVeraSans-Roman-31"/>
       <use x="63.623046875" xlink:href="#BitstreamVeraSans-Roman-30"/>
       <use x="127.24609375" xlink:href="#BitstreamVeraSans-Roman-30"/>
       <use x="190.869140625" xlink:href="#BitstreamVeraSans-Roman-30"/>
      </g>
     </g>
    </g>
    <g id="ytick_4">
     <g id="line2d_20">
      <g>
       <use style="stroke:#000000;stroke-width:0.5;" x="108.0" xlink:href="#md7965d1ba0" y="272.16"/>
      </g>
     </g>
     <g id="line2d_21">
      <g>
       <use style="stroke:#000000;stroke-width:0.5;" x="777.6" xlink:href="#md9a1c1a7cd" y="272.16"/>
      </g>
     </g>
     <g id="text_10">
      <!-- 1500 -->
      <g transform="translate(75.575 275.47125)scale(0.12 -0.12)">
       <use xlink:href="#BitstreamVeraSans-Roman-31"/>
       <use x="63.623046875" xlink:href="#BitstreamVeraSans-Roman-35"/>
       <use x="127.24609375" xlink:href="#BitstreamVeraSans-Roman-30"/>
       <use x="190.869140625" xlink:href="#BitstreamVeraSans-Roman-30"/>
      </g>
     </g>
    </g>
    <g id="ytick_5">
     <g id="line2d_22">
      <g>
       <use style="stroke:#000000;stroke-width:0.5;" x="108.0" xlink:href="#md7965d1ba0" y="168.48"/>
      </g>
     </g>
     <g id="line2d_23">
      <g>
       <use style="stroke:#000000;stroke-width:0.5;" x="777.6" xlink:href="#md9a1c1a7cd" y="168.48"/>
      </g>
     </g>
     <g id="text_11">
      <!-- 2000 -->
      <g transform="translate(75.13625 171.79125)scale(0.12 -0.12)">
       <use xlink:href="#BitstreamVeraSans-Roman-32"/>
       <use x="63.623046875" xlink:href="#BitstreamVeraSans-Roman-30"/>
       <use x="127.24609375" xlink:href="#BitstreamVeraSans-Roman-30"/>
       <use x="190.869140625" xlink:href="#BitstreamVeraSans-Roman-30"/>
      </g>
     </g>
    </g>
    <g id="ytick_6">
     <g id="line2d_24">
      <g>
       <use style="stroke:#000000;stroke-width:0.5;" x="108.0" xlink:href="#md7965d1ba0" y="64.8"/>
      </g>
     </g>
     <g id="line2d_25">
      <g>
       <use style="stroke:#000000;stroke-width:0.5;" x="777.6" xlink:href="#md9a1c1a7cd" y="64.8"/>
      </g>
     </g>
     <g id="text_12">
      <!-- 2500 -->
      <g transform="translate(75.13625 68.11125)scale(0.12 -0.12)">
       <use xlink:href="#BitstreamVeraSans-Roman-32"/>
       <use x="63.623046875" xlink:href="#BitstreamVeraSans-Roman-35"/>
       <use x="127.24609375" xlink:href="#BitstreamVeraSans-Roman-30"/>
       <use x="190.869140625" xlink:href="#BitstreamVeraSans-Roman-30"/>
      </g>
     </g>
    </g>
    <g id="text_13">
     <!-- particle numbers -->
     <defs>
      <path d="
M18.1094 8.20312
L18.1094 -20.7969
L9.07812 -20.7969
L9.07812 54.6875
L18.1094 54.6875
L18.1094 46.3906
Q20.9531 51.2656 25.2656 53.625
Q29.5938 56 35.5938 56
Q45.5625 56 51.7812 48.0938
Q58.0156 40.1875 58.0156 27.2969
Q58.0156 14.4062 51.7812 6.48438
Q45.5625 -1.42188 35.5938 -1.42188
Q29.5938 -1.42188 25.2656 0.953125
Q20.9531 3.32812 18.1094 8.20312
M48.6875 27.2969
Q48.6875 37.2031 44.6094 42.8438
Q40.5312 48.4844 33.4062 48.4844
Q26.2656 48.4844 22.1875 42.8438
Q18.1094 37.2031 18.1094 27.2969
Q18.1094 17.3906 22.1875 11.75
Q26.2656 6.10938 33.4062 6.10938
Q40.5312 6.10938 44.6094 11.75
Q48.6875 17.3906 48.6875 27.2969" id="BitstreamVeraSans-Roman-70"/>
      <path d="
M9.42188 75.9844
L18.4062 75.9844
L18.4062 0
L9.42188 0
z
" id="BitstreamVeraSans-Roman-6c"/>
      <path d="
M48.7812 52.5938
L48.7812 44.1875
Q44.9688 46.2969 41.1406 47.3438
Q37.3125 48.3906 33.4062 48.3906
Q24.6562 48.3906 19.8125 42.8438
Q14.9844 37.3125 14.9844 27.2969
Q14.9844 17.2812 19.8125 11.7344
Q24.6562 6.20312 33.4062 6.20312
Q37.3125 6.20312 41.1406 7.25
Q44.9688 8.29688 48.7812 10.4062
L48.7812 2.09375
Q45.0156 0.34375 40.9844 -0.53125
Q36.9688 -1.42188 32.4219 -1.42188
Q20.0625 -1.42188 12.7812 6.34375
Q5.51562 14.1094 5.51562 27.2969
Q5.51562 40.6719 12.8594 48.3281
Q20.2188 56 33.0156 56
Q37.1562 56 41.1094 55.1406
Q45.0625 54.2969 48.7812 52.5938" id="BitstreamVeraSans-Roman-63"/>
      <path d="
M34.2812 27.4844
Q23.3906 27.4844 19.1875 25
Q14.9844 22.5156 14.9844 16.5
Q14.9844 11.7188 18.1406 8.90625
Q21.2969 6.10938 26.7031 6.10938
Q34.1875 6.10938 38.7031 11.4062
Q43.2188 16.7031 43.2188 25.4844
L43.2188 27.4844
z

M52.2031 31.2031
L52.2031 0
L43.2188 0
L43.2188 8.29688
Q40.1406 3.32812 35.5469 0.953125
Q30.9531 -1.42188 24.3125 -1.42188
Q15.9219 -1.42188 10.9531 3.29688
Q6 8.01562 6 15.9219
Q6 25.1406 12.1719 29.8281
Q18.3594 34.5156 30.6094 34.5156
L43.2188 34.5156
L43.2188 35.4062
Q43.2188 41.6094 39.1406 45
Q35.0625 48.3906 27.6875 48.3906
Q23 48.3906 18.5469 47.2656
Q14.1094 46.1406 10.0156 43.8906
L10.0156 52.2031
Q14.9375 54.1094 19.5781 55.0469
Q24.2188 56 28.6094 56
Q40.4844 56 46.3438 49.8438
Q52.2031 43.7031 52.2031 31.2031" id="BitstreamVeraSans-Roman-61"/>
      <path d="
M48.6875 27.2969
Q48.6875 37.2031 44.6094 42.8438
Q40.5312 48.4844 33.4062 48.4844
Q26.2656 48.4844 22.1875 42.8438
Q18.1094 37.2031 18.1094 27.2969
Q18.1094 17.3906 22.1875 11.75
Q26.2656 6.10938 33.4062 6.10938
Q40.5312 6.10938 44.6094 11.75
Q48.6875 17.3906 48.6875 27.2969
M18.1094 46.3906
Q20.9531 51.2656 25.2656 53.625
Q29.5938 56 35.5938 56
Q45.5625 56 51.7812 48.0938
Q58.0156 40.1875 58.0156 27.2969
Q58.0156 14.4062 51.7812 6.48438
Q45.5625 -1.42188 35.5938 -1.42188
Q29.5938 -1.42188 25.2656 0.953125
Q20.9531 3.32812 18.1094 8.20312
L18.1094 0
L9.07812 0
L9.07812 75.9844
L18.1094 75.9844
z
" id="BitstreamVeraSans-Roman-62"/>
      <path d="
M9.42188 54.6875
L18.4062 54.6875
L18.4062 0
L9.42188 0
z

M9.42188 75.9844
L18.4062 75.9844
L18.4062 64.5938
L9.42188 64.5938
z
" id="BitstreamVeraSans-Roman-69"/>
      <path d="
M56.2031 29.5938
L56.2031 25.2031
L14.8906 25.2031
Q15.4844 15.9219 20.4844 11.0625
Q25.4844 6.20312 34.4219 6.20312
Q39.5938 6.20312 44.4531 7.46875
Q49.3125 8.73438 54.1094 11.2812
L54.1094 2.78125
Q49.2656 0.734375 44.1875 -0.34375
Q39.1094 -1.42188 33.8906 -1.42188
Q20.7969 -1.42188 13.1562 6.1875
Q5.51562 13.8125 5.51562 26.8125
Q5.51562 40.2344 12.7656 48.1094
Q20.0156 56 32.3281 56
Q43.3594 56 49.7812 48.8906
Q56.2031 41.7969 56.2031 29.5938
M47.2188 32.2344
Q47.125 39.5938 43.0938 43.9844
Q39.0625 48.3906 32.4219 48.3906
Q24.9062 48.3906 20.3906 44.1406
Q15.875 39.8906 15.1875 32.1719
z
" id="BitstreamVeraSans-Roman-65"/>
      <path d="
M54.8906 33.0156
L54.8906 0
L45.9062 0
L45.9062 32.7188
Q45.9062 40.4844 42.875 44.3281
Q39.8438 48.1875 33.7969 48.1875
Q26.5156 48.1875 22.3125 43.5469
Q18.1094 38.9219 18.1094 30.9062
L18.1094 0
L9.07812 0
L9.07812 54.6875
L18.1094 54.6875
L18.1094 46.1875
Q21.3438 51.125 25.7031 53.5625
Q30.0781 56 35.7969 56
Q45.2188 56 50.0469 50.1719
Q54.8906 44.3438 54.8906 33.0156" id="BitstreamVeraSans-Roman-6e"/>
      <path d="
M8.5 21.5781
L8.5 54.6875
L17.4844 54.6875
L17.4844 21.9219
Q17.4844 14.1562 20.5 10.2656
Q23.5312 6.39062 29.5938 6.39062
Q36.8594 6.39062 41.0781 11.0312
Q45.3125 15.6719 45.3125 23.6875
L45.3125 54.6875
L54.2969 54.6875
L54.2969 0
L45.3125 0
L45.3125 8.40625
Q42.0469 3.42188 37.7188 1
Q33.4062 -1.42188 27.6875 -1.42188
Q18.2656 -1.42188 13.375 4.4375
Q8.5 10.2969 8.5 21.5781" id="BitstreamVeraSans-Roman-75"/>
      <path d="
M41.1094 46.2969
Q39.5938 47.1719 37.8125 47.5781
Q36.0312 48 33.8906 48
Q26.2656 48 22.1875 43.0469
Q18.1094 38.0938 18.1094 28.8125
L18.1094 0
L9.07812 0
L9.07812 54.6875
L18.1094 54.6875
L18.1094 46.1875
Q20.9531 51.1719 25.4844 53.5781
Q30.0312 56 36.5312 56
Q37.4531 56 38.5781 55.875
Q39.7031 55.7656 41.0625 55.5156
z
" id="BitstreamVeraSans-Roman-72"/>
     </defs>
     <g transform="translate(67.640625 374.78625)rotate(-90.0)scale(0.12 -0.12)">
      <use xlink:href="#BitstreamVeraSans-Roman-70"/>
      <use x="63.4765625" xlink:href="#BitstreamVeraSans-Roman-61"/>
      <use x="124.755859375" xlink:href="#BitstreamVeraSans-Roman-72"/>
      <use x="165.869140625" xlink:href="#BitstreamVeraSans-Roman-74"/>
      <use x="205.078125" xlink:href="#BitstreamVeraSans-Roman-69"/>
      <use x="232.861328125" xlink:href="#BitstreamVeraSans-Roman-63"/>
      <use x="287.841796875" xlink:href="#BitstreamVeraSans-Roman-6c"/>
      <use x="315.625" xlink:href="#BitstreamVeraSans-Roman-65"/>
      <use x="377.1484375" xlink:href="#BitstreamVeraSans-Roman-20"/>
      <use x="408.935546875" xlink:href="#BitstreamVeraSans-Roman-6e"/>
      <use x="472.314453125" xlink:href="#BitstreamVeraSans-Roman-75"/>
      <use x="535.693359375" xlink:href="#BitstreamVeraSans-Roman-6d"/>
      <use x="633.10546875" xlink:href="#BitstreamVeraSans-Roman-62"/>
      <use x="696.58203125" xlink:href="#BitstreamVeraSans-Roman-65"/>
      <use x="758.10546875" xlink:href="#BitstreamVeraSans-Roman-72"/>
      <use x="799.21875" xlink:href="#BitstreamVeraSans-Roman-73"/>
     </g>
    </g>
   </g>
   <g id="legend_1">
    <g id="patch_7">
     <path d="
M724.53 101.224
L774.1 101.224
L774.1 68.3
L724.53 68.3
z
" style="fill:#ffffff;stroke:#000000;stroke-linejoin:miter;"/>
    </g>
    <g id="line2d_26">
     <path d="
M729.43 73.9689
L739.23 73.9689" style="fill:none;stroke:#ff0000;stroke-linecap:square;"/>
    </g>
    <g id="line2d_27"/>
    <g id="text_14">
     <!-- Da el.0 -->
     <defs>
      <path d="
M10.6875 12.4062
L21 12.4062
L21 0
L10.6875 0
z
" id="BitstreamVeraSans-Roman-2e"/>
      <path d="
M19.6719 64.7969
L19.6719 8.10938
L31.5938 8.10938
Q46.6875 8.10938 53.6875 14.9375
Q60.6875 21.7812 60.6875 36.5312
Q60.6875 51.1719 53.6875 57.9844
Q46.6875 64.7969 31.5938 64.7969
z

M9.8125 72.9062
L30.0781 72.9062
Q51.2656 72.9062 61.1719 64.0938
Q71.0938 55.2812 71.0938 36.5312
Q71.0938 17.6719 61.125 8.82812
Q51.1719 0 30.0781 0
L9.8125 0
z
" id="BitstreamVeraSans-Roman-44"/>
     </defs>
     <g transform="translate(746.93015625 76.41890625)scale(0.07 -0.07)">
      <use xlink:href="#BitstreamVeraSans-Roman-44"/>
      <use x="77.001953125" xlink:href="#BitstreamVeraSans-Roman-61"/>
      <use x="138.28125" xlink:href="#BitstreamVeraSans-Roman-20"/>
      <use x="170.068359375" xlink:href="#BitstreamVeraSans-Roman-65"/>
      <use x="231.591796875" xlink:href="#BitstreamVeraSans-Roman-6c"/>
      <use x="259.375" xlink:href="#BitstreamVeraSans-Roman-2e"/>
      <use x="291.162109375" xlink:href="#BitstreamVeraSans-Roman-30"/>
     </g>
    </g>
    <g id="line2d_28">
     <path d="
M729.43 84.2436
L739.23 84.2436" style="fill:none;stroke:#008000;stroke-linecap:square;"/>
    </g>
    <g id="line2d_29"/>
    <g id="text_15">
     <!-- Da el.1 -->
     <g transform="translate(746.93015625 86.69359375)scale(0.07 -0.07)">
      <use xlink:href="#BitstreamVeraSans-Roman-44"/>
      <use x="77.001953125" xlink:href="#BitstreamVeraSans-Roman-61"/>
      <use x="138.28125" xlink:href="#BitstreamVeraSans-Roman-20"/>
      <use x="170.068359375" xlink:href="#BitstreamVeraSans-Roman-65"/>
      <use x="231.591796875" xlink:href="#BitstreamVeraSans-Roman-6c"/>
      <use x="259.375" xlink:href="#BitstreamVeraSans-Roman-2e"/>
      <use x="291.162109375" xlink:href="#BitstreamVeraSans-Roman-31"/>
     </g>
    </g>
    <g id="line2d_30">
     <path d="
M729.43 94.5183
L739.23 94.5183" style="fill:none;stroke:#0000ff;stroke-linecap:square;"/>
    </g>
    <g id="line2d_31"/>
    <g id="text_16">
     <!-- Da el.2 -->
     <g transform="translate(746.93015625 96.96828125)scale(0.07 -0.07)">
      <use xlink:href="#BitstreamVeraSans-Roman-44"/>
      <use x="77.001953125" xlink:href="#BitstreamVeraSans-Roman-61"/>
      <use x="138.28125" xlink:href="#BitstreamVeraSans-Roman-20"/>
      <use x="170.068359375" xlink:href="#BitstreamVeraSans-Roman-65"/>
      <use x="231.591796875" xlink:href="#BitstreamVeraSans-Roman-6c"/>
      <use x="259.375" xlink:href="#BitstreamVeraSans-Roman-2e"/>
      <use x="291.162109375" xlink:href="#BitstreamVeraSans-Roman-32"/>
     </g>
    </g>
   </g>
  </g>
 </g>
 <defs>
  <clipPath id="p7ceb695115">
   <rect height="518.4" width="669.6" x="108.0" y="64.8"/>
  </clipPath>
 </defs>
</svg>
