<?xml version="1.0" encoding="utf-8" standalone="no"?>
<!DOCTYPE svg PUBLIC "-//W3C//DTD SVG 1.1//EN"
  "http://www.w3.org/Graphics/SVG/1.1/DTD/svg11.dtd">
<!-- Created with matplotlib (http://matplotlib.org/) -->
<svg height="648pt" version="1.1" viewBox="0 0 864 648" width="864pt" xmlns="http://www.w3.org/2000/svg" xmlns:xlink="http://www.w3.org/1999/xlink">
 <defs>
  <style type="text/css">
*{stroke-linecap:butt;stroke-linejoin:round;}
  </style>
 </defs>
 <g id="figure_1">
  <g id="patch_1">
   <path d="
M0 648
L864 648
L864 0
L0 0
z
" style="fill:#ffffff;"/>
  </g>
  <g id="axes_1">
   <g id="patch_2">
    <path d="
M108 583.2
L777.6 583.2
L777.6 64.8
L108 64.8
z
" style="fill:#ffffff;"/>
   </g>
   <g id="line2d_1">
    <path clip-path="url(#p7ceb695115)" d="
M108 556.706
L108.67 556.671
L109.339 556.792
L110.678 556.663
L112.018 556.668
L112.687 556.863
L113.357 556.505
L114.696 556.8
L115.366 556.713
L116.035 556.784
L116.705 556.595
L117.374 556.575
L119.383 556.883
L120.722 556.654
L121.392 556.714
L122.062 556.534
L122.731 556.537
L123.401 556.977
L124.07 556.777
L124.74 556.813
L125.41 556.612
L126.079 556.768
L127.418 556.703
L130.097 556.846
L130.766 556.475
L131.436 556.663
L133.445 556.697
L134.784 556.586
L135.454 556.953
L136.123 556.519
L136.793 556.69
L137.462 556.692
L138.132 556.827
L138.802 556.613
L140.141 556.925
L140.81 556.776
L141.48 556.875
L142.15 556.744
L142.819 556.808
L143.489 556.751
L144.158 556.861
L144.828 556.754
L145.498 556.809
L146.167 556.537
L148.176 556.849
L149.515 556.647
L150.185 556.821
L150.854 556.567
L151.524 556.761
L152.863 556.568
L153.533 556.639
L154.202 556.865
L155.542 556.786
L156.211 556.905
L156.881 556.709
L158.89 557.022
L159.559 556.826
L161.568 556.743
L162.238 556.516
L162.907 556.771
L164.246 556.743
L164.916 556.674
L165.586 556.793
L166.255 556.689
L168.264 556.836
L170.273 556.638
L170.942 556.887
L173.621 556.634
L174.29 556.849
L174.96 556.521
L175.63 556.797
L176.299 556.539
L177.638 556.732
L178.308 556.589
L178.978 556.873
L180.317 556.788
L180.986 556.896
L181.656 556.707
L185.004 556.623
L185.674 556.849
L186.343 556.682
L187.013 556.76
L187.682 556.999
L188.352 556.676
L189.022 557.01
L189.691 556.583
L192.37 556.802
L193.039 556.721
L194.378 556.87
L195.048 556.758
L195.718 556.762
L196.387 556.519
L197.057 556.829
L197.726 556.713
L199.066 556.914
L199.735 556.658
L200.405 556.932
L202.414 556.562
L203.083 556.739
L203.753 556.736
L204.422 556.471
L205.092 556.697
L206.431 556.793
L207.77 556.922
L208.44 556.741
L209.11 556.702
L209.779 557.026
L211.118 556.635
L212.458 556.855
L214.466 556.732
L215.136 556.968
L215.806 557.065
L216.475 556.897
L217.145 557.038
L217.814 556.741
L218.484 556.793
L219.154 556.688
L219.823 556.89
L220.493 556.676
L221.162 556.882
L222.502 556.704
L223.171 556.548
L225.85 556.792
L226.519 556.744
L227.189 556.87
L229.867 556.728
L231.206 556.733
L231.876 556.59
L232.546 556.933
L233.885 556.75
L235.894 556.656
L236.563 556.861
L237.233 556.602
L237.902 556.784
L238.572 556.805
L239.242 556.517
L239.911 556.895
L240.581 557.012
L241.25 556.659
L241.92 556.529
L243.259 557.015
L245.268 556.648
L246.607 556.786
L247.277 556.711
L247.946 556.751
L248.616 556.539
L249.286 556.917
L250.625 556.816
L251.294 557.051
L251.964 556.814
L252.634 556.912
L253.303 556.508
L253.973 556.8
L254.642 556.769
L255.312 556.626
L255.982 556.801
L256.651 556.803
L257.99 556.493
L258.66 556.689
L259.33 556.648
L259.999 556.877
L260.669 556.911
L262.008 556.665
L262.678 556.755
L263.347 556.99
L264.686 556.853
L266.026 556.833
L267.365 556.881
L268.034 556.546
L268.704 556.756
L269.374 556.828
L272.052 556.702
L272.722 556.824
L273.391 556.655
L274.061 556.901
L274.73 556.97
L275.4 556.69
L276.07 556.906
L276.739 556.581
L277.409 556.72
L278.078 556.513
L278.748 556.767
L279.418 556.494
L280.087 556.923
L280.757 556.636
L282.096 556.898
L282.766 556.705
L283.435 556.82
L285.444 556.713
L286.114 556.84
L286.783 556.719
L287.453 556.725
L288.122 556.933
L288.792 556.884
L289.462 556.71
L290.801 556.756
L291.47 556.525
L292.81 556.845
L293.479 556.651
L294.149 556.592
L294.818 556.411
L295.488 556.736
L296.158 556.811
L298.166 556.61
L298.836 556.882
L299.506 556.567
L300.175 556.814
L301.514 556.815
L302.184 556.471
L302.854 556.74
L303.523 556.523
L304.193 556.716
L304.862 556.772
L305.532 556.68
L306.871 556.699
L307.541 556.709
L308.21 556.583
L309.55 556.602
L310.219 556.819
L312.898 556.877
L313.567 556.695
L314.237 556.908
L314.906 556.705
L315.576 556.816
L316.246 556.804
L316.915 556.954
L317.585 556.615
L318.254 556.793
L318.924 556.761
L319.594 556.866
L320.263 556.45
L322.272 556.93
L322.942 556.732
L323.611 556.651
L324.281 556.882
L324.95 556.679
L325.62 556.899
L326.29 556.735
L326.959 556.855
L327.629 556.693
L328.298 556.881
L328.968 556.53
L329.638 556.824
L332.986 556.719
L334.325 556.815
L334.994 556.742
L335.664 556.808
L336.334 556.686
L337.003 556.694
L337.673 556.98
L339.012 556.733
L339.682 556.927
L340.351 556.776
L341.021 556.418
L341.69 556.748
L343.03 556.728
L344.369 556.799
L345.038 556.996
L345.708 556.927
L346.378 556.655
L347.717 556.724
L348.386 556.559
L349.056 556.633
L349.726 556.961
L350.395 556.712
L351.734 556.941
L352.404 556.626
L353.743 556.739
L354.413 556.551
L355.082 556.518
L355.752 556.755
L356.422 556.689
L358.43 556.947
L359.1 556.681
L359.77 556.719
L360.439 556.619
L361.109 556.838
L362.448 556.55
L363.118 556.683
L363.787 557.03
L364.457 556.92
L365.796 556.898
L366.466 556.641
L367.805 556.892
L368.474 556.765
L369.144 556.845
L370.483 556.799
L371.822 556.866
L372.492 556.623
L373.831 556.639
L374.501 556.794
L375.17 556.612
L375.84 556.899
L376.51 556.689
L377.179 556.838
L378.518 556.871
L379.188 556.557
L379.858 556.904
L380.527 556.919
L381.197 556.714
L381.866 556.71
L382.536 556.51
L383.206 556.788
L383.875 556.556
L385.214 556.958
L387.223 556.633
L387.893 556.939
L388.562 556.84
L389.232 556.965
L389.902 556.849
L390.571 556.997
L391.91 556.643
L392.58 556.804
L393.25 556.692
L393.919 556.902
L394.589 556.913
L395.258 556.734
L396.598 556.759
L398.606 556.676
L399.276 556.92
L399.946 556.716
L400.615 556.867
L402.624 556.947
L403.294 556.735
L404.633 556.584
L406.642 556.648
L407.311 556.819
L409.32 556.799
L409.99 556.527
L411.329 556.653
L411.998 556.965
L412.668 556.887
L413.338 556.569
L414.007 556.964
L414.677 556.562
L416.016 557.035
L416.686 556.952
L417.355 556.749
L418.025 556.83
L418.694 556.511
L419.364 556.751
L424.051 556.825
L426.06 556.904
L426.73 556.716
L427.399 556.779
L428.069 556.721
L428.738 556.957
L429.408 556.712
L430.078 556.698
L430.747 557.012
L431.417 556.766
L432.086 556.927
L432.756 556.524
L434.095 556.941
L434.765 556.66
L436.774 556.794
L437.443 556.613
L438.113 557.041
L438.782 556.651
L440.122 556.662
L440.791 556.558
L442.13 556.614
L442.8 557.002
L444.139 556.888
L445.478 556.76
L446.818 556.954
L448.157 556.943
L448.826 557.261
L449.496 557.158
L450.166 557.328
L450.835 557.238
L451.505 557.388
L452.174 557.387
L452.844 557.686
L453.514 557.799
L454.183 557.674
L454.853 557.906
L455.522 557.954
L456.192 557.827
L456.862 557.897
L458.201 558.357
L458.87 558.48
L459.54 558.277
L460.879 558.456
L461.549 558.321
L462.218 558.452
L462.888 558.405
L463.558 558.158
L464.227 558.616
L464.897 558.489
L465.566 558.706
L467.575 558.614
L468.914 558.856
L469.584 558.688
L471.593 558.856
L472.262 558.679
L472.932 558.688
L473.602 558.875
L474.941 558.717
L475.61 558.928
L476.28 558.707
L476.95 559.01
L478.958 558.731
L483.646 559.033
L484.315 558.827
L484.985 558.747
L485.654 559.135
L486.324 558.834
L486.994 558.708
L488.333 559.108
L489.672 558.898
L490.342 558.856
L491.011 558.619
L491.681 558.957
L494.359 558.946
L495.029 558.614
L496.368 559.024
L497.038 558.73
L499.046 559.124
L499.716 558.86
L500.386 558.927
L501.055 558.797
L501.725 559.012
L503.734 559.166
L504.403 558.799
L505.742 559.026
L506.412 558.95
L507.082 558.735
L508.421 559.043
L509.76 558.868
L510.43 559.292
L511.099 559.167
L511.769 558.782
L512.438 559.082
L513.108 558.883
L513.778 558.803
L515.786 559.017
L516.456 558.794
L517.126 558.798
L517.795 559.004
L518.465 558.939
L519.134 559.022
L519.804 558.765
L520.474 558.731
L521.813 558.992
L523.152 558.962
L523.822 558.778
L525.161 558.827
L525.83 558.789
L526.5 558.944
L528.509 558.881
L529.178 558.721
L531.857 558.813
L532.526 558.758
L533.196 558.889
L533.866 558.544
L534.535 558.958
L535.874 558.826
L536.544 558.707
L537.214 558.794
L537.883 558.714
L539.222 558.83
L539.892 558.764
L540.562 559.144
L541.231 558.778
L542.57 559.14
L543.24 558.845
L543.91 558.68
L544.579 558.759
L545.918 558.708
L546.588 558.871
L547.258 558.4
L547.927 558.944
L549.266 558.807
L549.936 558.635
L550.606 558.772
L551.275 558.646
L553.284 558.851
L553.954 558.543
L554.623 558.781
L555.293 558.681
L555.962 558.821
L556.632 558.638
L557.971 558.701
L558.641 558.555
L559.31 558.817
L560.65 558.603
L561.319 558.522
L562.658 558.893
L563.328 558.497
L563.998 558.634
L564.667 558.575
L565.337 558.842
L566.676 558.763
L567.346 558.422
L568.015 558.625
L569.354 558.616
L570.024 558.744
L570.694 558.629
L571.363 558.705
L572.033 558.362
L572.702 558.746
L574.042 558.497
L575.381 558.516
L576.05 558.751
L576.72 558.741
L577.39 558.397
L578.729 558.635
L579.398 558.33
L581.407 558.555
L582.077 558.344
L583.416 558.607
L584.086 558.397
L584.755 558.807
L585.425 558.533
L587.434 558.268
L588.103 558.335
L588.773 558.167
L589.442 558.458
L591.451 558.38
L592.121 558.034
L592.79 558.291
L593.46 558.698
L594.13 558.337
L594.799 558.291
L595.469 558.456
L596.808 558.213
L597.478 558.322
L598.147 558.296
L598.817 558.409
L599.486 558.358
L600.156 558.134
L601.495 558.321
L602.165 558.342
L602.834 558.245
L604.174 558.458
L604.843 558.262
L605.513 558.267
L606.182 558.082
L606.852 558.417
L607.522 558.396
L608.191 557.952
L608.861 558.118
L609.53 557.994
L611.539 558.361
L612.209 558.113
L612.878 558.005
L613.548 558.277
L614.218 558.42
L614.887 558.15
L616.226 557.938
L616.896 558.331
L617.566 557.963
L618.235 557.94
L618.905 558.282
L619.574 558.132
L620.914 558.457
L622.922 558.077
L623.592 558.301
L624.262 558.128
L624.931 558.076
L625.601 558.303
L626.94 558.072
L627.61 558.136
L628.279 558.32
L628.949 557.882
L629.618 557.906
L630.288 558.05
L630.958 557.977
L631.627 558.254
L632.297 557.982
L632.966 558.207
L633.636 558.04
L634.975 558.368
L635.645 557.884
L636.314 558.182
L636.984 558.355
L638.323 558.121
L638.993 557.864
L639.662 558.089
L640.332 558.014
L641.002 558.172
L641.671 558.1
L642.341 558.285
L643.01 557.904
L643.68 557.99
L644.35 557.95
L645.019 558.289
L645.689 558.03
L646.358 558.059
L647.028 557.904
L647.698 558.14
L648.367 558.242
L649.706 557.955
L651.046 558.213
L651.715 558.082
L652.385 557.78
L653.054 557.968
L653.724 557.734
L654.394 557.936
L655.063 557.754
L655.733 558.013
L656.402 557.936
L657.742 557.912
L658.411 557.864
L659.081 558.113
L659.75 557.725
L660.42 557.966
L661.09 557.92
L661.759 558.151
L662.429 557.853
L663.098 558.124
L663.768 558.014
L666.446 558.126
L667.116 557.634
L667.786 558.065
L669.125 557.688
L670.464 558.157
L671.803 557.899
L672.473 558.077
L673.142 558.07
L673.812 557.85
L675.151 558.048
L675.821 557.879
L676.49 557.945
L677.16 557.523
L677.83 558.084
L679.838 558.069
L680.508 557.778
L681.178 558.06
L681.847 557.859
L682.517 558.038
L683.186 557.762
L685.195 558.183
L685.865 557.955
L686.534 558.09
L687.204 557.77
L687.874 557.69
L688.543 558.169
L689.213 557.838
L690.552 557.594
L691.222 557.619
L691.891 557.985
L693.9 557.738
L695.239 557.933
L695.909 557.514
L696.578 557.97
L697.248 557.831
L698.587 557.987
L699.257 557.81
L699.926 557.92
L701.266 557.603
L701.935 557.881
L703.274 557.675
L703.944 557.945
L705.283 557.982
L705.953 557.765
L706.622 557.737
L707.292 557.944
L707.962 558.005
L708.631 557.705
L709.301 557.946
L709.97 557.808
L710.64 557.961
L712.649 557.921
L713.318 557.588
L713.988 557.802
L715.327 557.89
L715.997 557.761
L717.336 557.913
L718.006 557.701
L718.675 557.743
L719.345 557.956
L720.014 557.613
L720.684 557.967
L721.354 557.858
L722.023 557.922
L722.693 557.618
L723.362 557.589
L724.702 557.929
L726.041 557.677
L727.38 557.552
L728.719 557.914
L729.389 557.546
L730.058 557.83
L730.728 557.849
L731.398 557.68
L732.067 557.684
L732.737 557.924
L733.406 557.885
L734.076 558.032
L734.746 557.698
L736.085 557.613
L737.424 557.988
L738.094 557.476
L738.763 557.86
L739.433 557.717
L740.772 557.745
L741.442 557.797
L743.45 557.608
L744.12 558.052
L745.459 557.747
L746.129 557.611
L746.798 557.692
L747.468 557.605
L748.138 557.944
L748.807 557.672
L750.146 557.874
L750.816 557.895
L752.155 557.646
L754.164 557.784
L754.834 557.574
L756.173 557.726
L756.842 557.985
L757.512 557.679
L759.521 557.899
L760.19 557.736
L760.86 557.229
L761.53 557.588
L762.199 557.785
L762.869 557.581
L763.538 557.661
L764.208 557.917
L766.217 557.638
L766.886 557.721
L767.556 557.504
L768.226 557.742
L768.895 557.589
L770.904 557.696
L772.243 557.406
L772.913 557.678
L774.922 557.564
L776.261 557.943
L777.6 557.526
L777.6 557.526" style="fill:none;stroke:#ff0000;stroke-linecap:square;"/>
   </g>
   <g id="line2d_2">
    <path clip-path="url(#p7ceb695115)" d="
M108 88.4244
L108.67 88.2734
L109.339 88.2544
L110.009 88.6377
L110.678 88.3627
L112.018 88.7003
L112.687 88.4153
L113.357 88.3624
L114.026 88.7185
L115.366 88.316
L116.035 88.3983
L116.705 88.6818
L117.374 88.8352
L118.044 88.4491
L118.714 88.5552
L119.383 88.4153
L120.053 88.5644
L121.392 88.3779
L122.062 88.459
L122.731 88.671
L123.401 88.1655
L124.07 88.5828
L124.74 88.2912
L125.41 88.5444
L126.079 88.6026
L126.749 88.4558
L128.758 88.4241
L129.427 88.6951
L130.097 88.4148
L130.766 88.7873
L131.436 88.492
L132.106 88.3819
L132.775 88.6109
L135.454 88.5721
L136.123 88.692
L136.793 88.5155
L137.462 88.7046
L138.132 88.6303
L139.471 88.6832
L140.141 88.3727
L141.48 88.5465
L142.15 88.8967
L142.819 88.3837
L143.489 88.5276
L144.828 88.5777
L146.167 88.7533
L146.837 88.5151
L148.176 88.4479
L148.846 88.5605
L149.515 88.5528
L150.185 88.4304
L150.854 88.8828
L151.524 88.3496
L152.194 88.5806
L152.863 88.5822
L153.533 88.762
L154.202 88.478
L155.542 88.4765
L156.211 88.3842
L156.881 88.5848
L157.55 88.5338
L158.22 88.6562
L158.89 88.4011
L159.559 88.6087
L160.898 88.4828
L161.568 88.8407
L162.238 88.8343
L162.907 88.5221
L163.577 88.614
L164.246 88.9415
L164.916 88.5541
L165.586 88.4796
L166.255 88.6855
L166.925 88.4866
L168.264 88.5882
L168.934 88.6204
L169.603 88.425
L170.942 88.8825
L171.612 88.6529
L172.282 88.6639
L172.951 88.8233
L174.29 88.4624
L174.96 88.6043
L175.63 88.4896
L176.299 88.8475
L177.638 88.5575
L178.978 88.3716
L180.986 88.3998
L181.656 88.6866
L183.665 88.4757
L184.334 88.6661
L185.004 88.5892
L185.674 88.7207
L187.013 88.5622
L187.682 88.459
L188.352 88.5764
L189.022 88.3173
L189.691 88.8018
L190.361 88.4298
L191.7 88.5887
L192.37 88.367
L193.709 88.6298
L195.048 88.5672
L196.387 88.8157
L197.057 88.6433
L197.726 88.6737
L199.066 88.3407
L199.735 88.7573
L200.405 88.3205
L201.074 88.3932
L202.414 88.9271
L203.083 88.7015
L203.753 88.6582
L204.422 88.8934
L205.092 88.7141
L205.762 88.3277
L206.431 88.6496
L207.101 88.5199
L207.77 88.7159
L208.44 88.5283
L209.11 88.7507
L209.779 88.3674
L210.449 88.4358
L211.118 88.6478
L211.788 88.7278
L212.458 88.5352
L214.466 88.4219
L215.136 88.2369
L215.806 88.2672
L216.475 88.0565
L217.145 88.5523
L217.814 88.7492
L218.484 88.203
L219.154 88.6384
L219.823 88.5624
L220.493 88.6386
L221.162 88.2844
L222.502 88.6083
L223.171 88.885
L223.841 88.618
L224.51 88.5108
L226.519 88.7104
L227.858 88.2953
L229.198 88.6496
L229.867 88.5046
L231.206 88.6423
L232.546 88.3154
L233.215 88.3942
L233.885 88.6597
L234.554 88.5278
L235.224 88.6902
L235.894 88.5637
L236.563 88.5776
L237.233 88.8434
L238.572 88.3579
L239.242 88.6141
L239.911 88.2354
L241.92 88.7063
L243.929 88.3053
L244.598 88.456
L245.268 88.883
L245.938 88.409
L246.607 88.6717
L247.277 88.4696
L248.616 88.8723
L249.286 88.4152
L250.625 88.5435
L251.294 88.4804
L252.634 88.7305
L253.973 88.4432
L254.642 88.7789
L255.312 88.8737
L255.982 88.7722
L256.651 88.4682
L257.321 88.4589
L257.99 89.0208
L258.66 88.5526
L259.33 88.8653
L260.669 88.4415
L262.008 88.6285
L263.347 88.3958
L264.017 88.7163
L264.686 88.4514
L265.356 88.5935
L266.026 88.406
L267.365 88.5567
L268.034 88.9035
L268.704 88.4555
L269.374 88.748
L270.043 88.3094
L270.713 88.8567
L272.722 88.491
L273.391 88.7991
L274.73 88.5054
L275.4 88.7287
L276.07 88.3977
L276.739 88.817
L277.409 88.4541
L278.078 88.8738
L280.087 88.5273
L280.757 88.8425
L281.426 88.5881
L282.096 88.6911
L284.105 88.4196
L284.774 88.8066
L285.444 88.5563
L286.783 88.6697
L288.122 88.3192
L288.792 88.6455
L289.462 88.5199
L290.801 88.5677
L291.47 88.9618
L292.14 88.7077
L293.479 88.5973
L294.149 88.8785
L294.818 88.9221
L295.488 88.5692
L296.158 88.695
L296.827 88.6828
L298.166 88.8392
L298.836 88.4485
L299.506 88.7328
L300.175 88.7588
L300.845 88.6144
L301.514 88.6283
L302.184 88.4867
L302.854 88.7367
L304.193 88.6857
L304.862 88.3017
L305.532 88.7181
L306.202 88.4195
L308.21 88.9441
L308.88 88.7754
L309.55 88.7567
L310.889 88.441
L312.228 88.6533
L312.898 88.4596
L313.567 88.8749
L314.237 88.4561
L314.906 88.3674
L315.576 88.5838
L316.246 88.5781
L316.915 88.3772
L317.585 89.0444
L318.254 88.5948
L318.924 88.5366
L320.263 88.7496
L322.272 88.345
L322.942 88.5715
L323.611 88.4611
L324.95 88.5868
L325.62 88.5213
L326.29 88.6859
L328.298 88.4901
L328.968 88.726
L330.307 88.3593
L330.977 88.8148
L331.646 88.4857
L333.655 88.6721
L334.325 88.4931
L334.994 88.7746
L335.664 88.6899
L336.334 88.3643
L337.003 88.4655
L337.673 88.42
L338.342 88.5435
L339.682 88.5698
L340.351 88.6368
L341.021 88.8478
L341.69 88.7512
L342.36 88.7857
L343.03 88.4539
L343.699 88.8052
L344.369 88.4812
L345.038 88.6574
L345.708 88.4856
L346.378 88.5256
L347.047 88.3525
L348.386 88.8185
L349.056 88.7814
L349.726 88.3767
L350.395 88.6675
L351.734 88.6353
L352.404 89.0112
L353.074 88.7334
L353.743 88.7488
L354.413 88.9539
L355.082 88.8882
L355.752 88.6191
L357.091 88.6241
L357.761 88.3834
L358.43 88.3004
L359.1 88.5914
L361.109 88.6048
L361.778 88.818
L362.448 88.6178
L363.118 88.6411
L363.787 88.3045
L365.796 88.356
L366.466 88.6588
L367.135 88.7846
L367.805 88.583
L368.474 88.7218
L369.144 88.5042
L371.153 88.2754
L372.492 88.7196
L373.162 88.654
L373.831 88.7671
L374.501 88.4409
L375.17 88.8148
L375.84 88.5369
L377.179 88.6528
L377.849 88.4051
L378.518 88.6312
L379.188 88.6574
L379.858 87.9869
L381.197 88.8829
L381.866 88.534
L382.536 88.6004
L383.206 88.4526
L383.875 88.8919
L385.214 88.2868
L385.884 88.5115
L387.223 88.7419
L387.893 88.4638
L389.232 88.5874
L389.902 88.891
L390.571 88.3443
L391.91 88.8103
L392.58 88.5807
L393.919 88.5418
L394.589 88.3334
L397.937 88.7299
L399.276 88.3293
L399.946 88.7639
L400.615 88.5845
L403.963 88.5864
L404.633 88.7407
L405.302 88.5523
L405.972 88.6701
L406.642 88.6512
L407.311 88.4698
L407.981 88.6923
L409.32 88.4358
L409.99 88.8466
L410.659 88.5286
L411.998 88.653
L412.668 88.4974
L413.338 88.643
L414.007 88.3635
L414.677 88.8405
L416.016 88.3208
L417.355 88.5474
L418.025 88.3602
L418.694 88.7628
L420.034 88.3335
L421.373 88.3777
L422.042 88.6136
L422.712 88.3884
L423.382 88.3208
L424.051 88.4589
L424.721 88.4013
L425.39 88.7404
L426.06 88.308
L429.408 88.5683
L430.747 88.262
L431.417 88.4752
L432.086 88.3759
L432.756 88.7004
L434.095 88.3475
L434.765 88.6325
L435.434 88.6193
L436.104 88.3723
L437.443 88.863
L438.113 88.3212
L438.782 88.631
L439.452 88.5628
L441.461 88.8545
L442.13 88.7265
L442.8 88.4355
L443.47 88.3986
L444.139 88.2423
L444.809 88.7391
L446.148 89.1391
L446.818 89.2236
L447.487 89.6842
L448.157 89.9129
L448.826 89.8908
L449.496 90.6794
L450.166 90.7854
L450.835 91.1174
L451.505 91.2245
L452.174 91.7249
L452.844 91.7326
L454.853 92.5786
L455.522 92.8216
L456.192 93.2587
L456.862 93.5076
L457.531 93.3854
L458.201 93.7209
L458.87 93.8645
L459.54 94.2914
L463.558 95.5762
L464.227 95.3954
L464.897 95.6591
L465.566 95.4929
L466.236 96.0898
L468.245 96.3323
L468.914 96.3025
L469.584 96.5501
L470.254 96.4501
L470.923 96.4754
L471.593 96.3152
L472.262 96.8435
L473.602 96.7167
L474.271 96.8887
L475.61 96.8404
L476.28 97.1458
L476.95 96.8387
L477.619 97.0964
L479.628 97.1939
L480.298 97.0799
L481.637 97.2041
L482.306 97.1325
L482.976 97.1938
L483.646 97.0191
L484.315 97.2353
L484.985 97.0823
L486.324 97.0332
L486.994 97.2191
L488.333 96.9676
L489.002 97.1377
L490.342 97.2369
L491.011 97.4748
L491.681 97.0525
L492.35 97.2631
L493.02 97.1863
L493.69 96.9932
L494.359 96.9871
L495.029 97.4018
L495.698 97.0703
L498.377 97.2822
L499.046 96.9297
L499.716 97.3096
L500.386 97.0581
L501.055 97.3572
L502.394 96.9641
L503.064 97.2308
L503.734 96.9811
L504.403 97.4908
L505.742 96.9475
L506.412 97.3445
L507.082 97.4977
L507.751 97.1585
L508.421 97.3734
L509.09 96.9236
L509.76 97.4263
L510.43 97.3511
L511.099 97.0008
L511.769 97.4214
L512.438 97.0021
L513.778 97.4531
L514.447 97.2079
L515.117 97.3244
L516.456 97.2083
L517.126 97.2621
L519.134 97.0292
L520.474 97.2432
L521.143 97.0285
L521.813 96.9588
L522.482 97.1272
L523.152 97.0796
L523.822 97.2402
L524.491 97.2564
L525.161 96.9969
L525.83 97.1129
L526.5 96.7622
L528.509 96.9894
L529.178 97.2018
L530.518 96.9592
L531.857 96.8347
L532.526 97.1926
L533.866 97.0262
L534.535 96.6463
L535.205 96.981
L535.874 96.8509
L537.883 96.8191
L538.553 96.6386
L539.222 96.8221
L539.892 96.6861
L540.562 96.3195
L541.231 96.8165
L541.901 96.5431
L543.24 96.5127
L544.579 96.8004
L545.249 96.8328
L546.588 96.3244
L547.258 96.8204
L547.927 96.3611
L548.597 96.5039
L549.936 96.5033
L550.606 96.7421
L551.945 96.3331
L552.614 96.4706
L553.284 96.1368
L553.954 96.5917
L554.623 96.6546
L555.962 96.2039
L556.632 96.461
L557.302 96.1719
L557.971 96.1042
L558.641 96.3765
L559.31 96.1846
L559.98 96.2349
L560.65 96.5349
L561.989 95.8743
L562.658 95.8047
L563.328 96.264
L563.998 96.2087
L564.667 96.0081
L566.676 95.8185
L567.346 96.1819
L568.015 95.858
L569.354 96.0367
L570.024 95.4525
L570.694 96.1788
L571.363 95.7067
L572.033 95.9058
L572.702 95.4588
L574.042 95.9107
L574.711 95.933
L575.381 95.5796
L576.72 95.4564
L578.059 95.7183
L578.729 95.5841
L579.398 96.0107
L580.738 95.0515
L582.077 95.717
L582.746 95.2184
L584.755 95.0782
L586.094 95.4566
L586.764 95.1772
L588.103 95.559
L588.773 95.4163
L589.442 95.3993
L590.112 95.1225
L590.782 95.4755
L591.451 95.1553
L592.79 95.1294
L593.46 94.8955
L594.799 95.0197
L595.469 94.7824
L596.138 95.2473
L596.808 95.3151
L597.478 94.9364
L598.147 95.1261
L598.817 94.8319
L599.486 95.1075
L600.156 95.0184
L600.826 94.7357
L601.495 94.8313
L602.165 94.5891
L602.834 94.7905
L604.843 94.9
L605.513 94.5576
L606.182 94.9805
L606.852 94.5858
L608.191 94.8977
L608.861 94.5941
L609.53 94.8113
L611.539 94.4662
L612.878 94.9247
L613.548 94.4439
L614.218 94.1558
L614.887 94.5357
L615.557 94.706
L616.226 94.6482
L616.896 94.3002
L617.566 94.8685
L618.905 94.1899
L619.574 94.4093
L620.244 94.1915
L621.583 94.1868
L622.253 94.3476
L624.262 94.3527
L625.601 93.8756
L626.27 94.4382
L627.61 94.202
L628.279 94.0703
L628.949 94.3497
L630.288 94.2669
L631.627 93.9622
L632.297 94.1348
L632.966 93.8662
L633.636 94.365
L634.306 93.938
L634.975 93.7358
L636.314 94.1446
L636.984 93.7214
L637.654 93.9767
L638.323 93.8747
L638.993 94.1443
L639.662 93.8432
L640.332 93.9608
L641.671 93.9231
L642.341 93.547
L643.01 94
L643.68 93.7072
L644.35 93.9654
L645.019 93.7499
L646.358 93.865
L647.028 93.7858
L647.698 93.8287
L648.367 93.6995
L651.046 93.7193
L651.715 93.8298
L653.054 93.6891
L653.724 93.8366
L654.394 93.5247
L655.063 93.6727
L655.733 93.6342
L656.402 93.819
L657.072 93.4771
L657.742 93.6324
L658.411 93.6508
L659.081 93.5212
L659.75 94.1346
L660.42 93.4509
L661.09 93.8076
L662.429 93.4257
L663.098 93.519
L664.438 93.4013
L665.107 93.4612
L665.777 93.2221
L666.446 93.1348
L667.116 93.7872
L667.786 93.2469
L668.455 93.5388
L669.794 93.4273
L670.464 93.0541
L671.134 93.286
L671.803 93.2267
L672.473 93.3397
L673.142 93.084
L673.812 93.3053
L674.482 93.3787
L675.151 93.0961
L675.821 93.4115
L676.49 93.1172
L677.16 93.4592
L677.83 93.1484
L678.499 92.9899
L679.169 93.343
L679.838 93.0314
L680.508 93.1864
L681.178 92.9372
L681.847 93.1772
L682.517 93.1144
L683.186 93.2723
L684.526 92.918
L685.865 93.2158
L686.534 92.7136
L687.204 93.2072
L687.874 92.8531
L688.543 92.8366
L689.213 93.2609
L689.882 93.1167
L690.552 93.124
L691.222 93.375
L691.891 92.7621
L692.561 93.0365
L693.23 93.1037
L693.9 92.8824
L695.239 92.8431
L695.909 93.151
L696.578 92.8108
L699.257 93.0081
L700.596 92.7688
L701.266 93.0948
L701.935 92.8475
L702.605 92.8517
L703.274 93.2455
L703.944 92.784
L704.614 92.6
L705.283 92.7922
L706.622 92.6993
L707.292 93.0327
L707.962 92.6252
L708.631 92.8019
L709.97 92.7665
L711.31 92.6746
L712.649 92.6893
L713.318 92.9995
L713.988 92.6939
L714.658 92.929
L715.327 92.6167
L715.997 92.8248
L716.666 92.6129
L718.006 92.9486
L719.345 92.556
L720.014 93.0958
L720.684 92.435
L722.023 92.7187
L722.693 92.8143
L723.362 93.0923
L724.032 92.7061
L724.702 92.7657
L725.371 92.94
L726.041 92.6792
L726.71 92.8247
L728.05 92.8434
L728.719 92.6759
L729.389 92.9184
L730.728 92.3799
L731.398 92.8002
L732.067 92.7872
L732.737 92.202
L733.406 92.5883
L734.076 92.4315
L734.746 92.7756
L735.415 92.6258
L736.085 92.8426
L736.754 92.6735
L737.424 92.341
L738.094 92.8185
L738.763 92.5752
L739.433 92.7282
L740.102 92.4898
L741.442 92.4213
L742.111 92.6968
L742.781 92.4682
L743.45 92.9334
L744.12 92.0717
L746.129 92.6408
L746.798 92.441
L747.468 92.4513
L748.138 92.3003
L750.816 92.218
L751.486 92.4388
L752.155 92.4143
L752.825 92.6545
L753.494 92.3969
L754.164 92.5984
L755.503 92.5515
L756.173 92.2616
L756.842 92.2094
L758.851 92.4747
L759.521 92.2015
L760.19 92.4425
L760.86 92.8333
L761.53 92.7533
L762.199 92.2624
L763.538 92.5848
L764.208 92.3637
L764.878 92.5395
L765.547 92.5033
L766.886 92.1103
L767.556 92.6233
L768.226 92.2665
L768.895 92.5082
L770.904 92.2771
L771.574 92.6758
L773.582 92.2718
L774.922 92.7421
L775.591 92.3955
L776.261 92.3149
L776.93 92.534
L777.6 92.4009
L777.6 92.4009" style="fill:none;stroke:#008000;stroke-linecap:square;"/>
   </g>
   <g id="line2d_3">
    <path clip-path="url(#p7ceb695115)" d="
M108 556.706
L108.67 556.892
L109.339 556.789
L110.009 556.529
L110.678 556.817
L111.348 556.587
L112.018 556.488
L112.687 556.582
L113.357 557.004
L114.026 556.456
L114.696 556.551
L115.366 556.869
L117.374 556.507
L118.044 556.767
L118.714 556.635
L120.053 556.612
L120.722 556.875
L121.392 556.862
L122.062 556.963
L122.731 556.755
L123.401 556.824
L124.07 556.607
L124.74 556.866
L125.41 556.815
L126.079 556.601
L126.749 556.809
L128.758 556.747
L129.427 556.633
L131.436 556.848
L132.106 556.913
L132.775 556.642
L134.784 556.776
L135.454 556.497
L136.123 556.809
L136.793 556.817
L137.462 556.628
L138.132 556.568
L138.802 556.734
L139.471 556.627
L140.81 556.769
L142.15 556.391
L142.819 556.839
L144.158 556.665
L144.828 556.706
L145.498 556.618
L146.837 556.901
L148.846 556.784
L149.515 556.845
L150.185 556.794
L150.854 556.599
L151.524 556.939
L152.194 556.79
L152.863 556.904
L153.533 556.653
L156.211 556.776
L157.55 556.687
L158.22 556.524
L158.89 556.639
L160.229 556.681
L160.898 556.862
L161.568 556.48
L162.238 556.716
L162.907 556.775
L163.577 556.66
L164.246 556.38
L164.916 556.839
L168.934 556.668
L169.603 556.885
L170.273 556.812
L170.942 556.298
L171.612 556.603
L172.282 556.765
L172.951 556.691
L174.96 556.934
L176.299 556.676
L177.638 556.776
L178.308 557.037
L178.978 556.817
L179.647 556.859
L181.656 556.672
L183.665 556.781
L184.334 556.666
L185.004 556.852
L185.674 556.495
L186.343 556.711
L187.013 556.743
L187.682 556.604
L188.352 556.808
L189.691 556.682
L190.361 556.989
L191.03 556.782
L191.7 556.753
L192.37 556.898
L193.039 556.839
L193.709 556.625
L194.378 556.607
L195.048 556.74
L195.718 556.663
L196.387 556.733
L197.057 556.596
L199.066 556.816
L199.735 556.655
L201.074 556.905
L202.414 556.584
L204.422 556.706
L205.092 556.659
L205.762 556.961
L206.431 556.626
L207.101 556.734
L207.77 556.437
L208.44 556.802
L209.11 556.615
L211.118 556.789
L211.788 556.581
L213.127 556.72
L213.797 556.69
L214.466 556.922
L215.806 556.742
L216.475 557.121
L217.145 556.484
L217.814 556.585
L218.484 557.078
L219.154 556.748
L219.823 556.624
L221.162 556.907
L223.171 556.643
L223.841 556.841
L224.51 556.896
L225.85 556.595
L227.189 556.726
L227.858 556.964
L228.528 556.771
L229.198 556.714
L229.867 556.846
L231.206 556.705
L231.876 557.067
L232.546 556.828
L233.215 556.88
L233.885 556.671
L234.554 556.841
L235.224 556.734
L235.894 556.862
L236.563 556.643
L237.902 556.723
L238.572 556.923
L239.911 556.956
L240.581 556.678
L241.92 556.846
L243.259 556.721
L243.929 556.898
L244.598 556.843
L245.268 556.549
L245.938 556.91
L246.607 556.627
L247.277 556.904
L247.946 556.714
L248.616 556.672
L249.955 556.722
L250.625 556.723
L251.294 556.556
L251.964 556.721
L252.634 556.443
L253.303 556.998
L253.973 556.841
L254.642 556.536
L255.312 556.585
L255.982 556.51
L256.651 556.813
L257.321 556.995
L257.99 556.569
L258.66 556.841
L259.33 556.571
L259.999 556.529
L260.669 556.735
L262.008 556.793
L262.678 556.834
L264.017 556.49
L264.686 556.785
L265.356 556.603
L266.026 556.847
L268.034 556.639
L268.704 556.876
L269.374 556.511
L270.043 556.996
L270.713 556.609
L271.382 556.691
L272.052 556.887
L274.061 556.581
L275.4 556.665
L276.07 556.778
L276.739 556.685
L277.409 556.909
L278.748 556.529
L279.418 556.845
L280.087 556.637
L280.757 556.609
L281.426 556.747
L282.096 556.498
L282.766 556.81
L284.105 556.906
L284.774 556.69
L285.444 556.821
L286.114 556.61
L288.122 556.836
L288.792 556.559
L289.462 556.858
L291.47 556.601
L292.14 556.713
L292.81 556.644
L293.479 556.846
L294.149 556.627
L295.488 556.791
L296.158 556.589
L296.827 556.654
L297.497 556.589
L299.506 556.799
L300.175 556.528
L301.514 556.656
L302.184 557.144
L302.854 556.622
L303.523 556.875
L304.193 556.693
L304.862 557.022
L305.532 556.697
L306.202 556.944
L307.541 556.637
L308.21 556.564
L309.55 556.731
L310.219 556.71
L310.889 556.834
L312.228 556.651
L312.898 556.757
L313.567 556.522
L314.906 557.017
L315.576 556.691
L316.915 556.761
L317.585 556.435
L318.254 556.708
L318.924 556.794
L319.594 556.625
L320.263 556.894
L322.942 556.793
L323.611 556.987
L324.281 556.694
L324.95 556.831
L325.62 556.678
L326.959 556.644
L327.629 556.869
L328.298 556.728
L328.968 556.842
L329.638 556.76
L330.307 556.943
L330.977 556.617
L331.646 556.837
L332.316 556.734
L332.986 556.847
L333.655 556.616
L334.325 556.782
L334.994 556.577
L335.664 556.592
L336.334 557.04
L337.003 556.932
L337.673 556.691
L339.012 556.824
L339.682 556.603
L341.021 556.835
L341.69 556.603
L342.36 556.628
L343.03 556.923
L343.699 556.592
L344.369 556.825
L345.038 556.452
L346.378 556.92
L347.047 557.027
L348.386 556.718
L349.056 556.679
L349.726 556.752
L351.065 556.696
L351.734 556.517
L352.404 556.461
L353.074 556.711
L354.413 556.593
L356.422 556.785
L357.091 556.698
L357.761 556.893
L359.77 556.807
L360.439 556.942
L361.109 556.647
L361.778 556.599
L362.448 556.922
L363.118 556.765
L366.466 556.784
L367.135 556.513
L369.814 556.823
L371.153 556.919
L371.822 556.696
L373.162 556.812
L373.831 556.672
L374.501 556.837
L375.17 556.645
L375.84 556.634
L376.51 556.762
L377.179 556.578
L377.849 556.791
L378.518 556.565
L379.858 557.178
L380.527 556.705
L381.197 556.468
L381.866 556.817
L382.536 556.95
L384.545 556.656
L385.214 556.817
L386.554 556.652
L388.562 556.652
L389.902 556.322
L390.571 556.718
L394.589 556.809
L395.258 556.929
L396.598 556.717
L399.276 556.806
L399.946 556.572
L407.311 556.762
L407.981 556.55
L409.32 556.813
L409.99 556.675
L410.659 556.947
L411.329 556.778
L411.998 556.426
L413.338 556.834
L414.677 556.644
L417.355 556.743
L418.025 556.848
L419.364 556.727
L420.034 556.958
L420.703 556.849
L421.373 556.891
L422.042 556.783
L423.382 557.001
L424.051 556.749
L424.721 556.795
L425.39 556.555
L426.06 556.823
L426.73 556.94
L427.399 556.748
L428.069 556.711
L428.738 556.518
L430.078 556.955
L430.747 556.761
L433.426 556.784
L435.434 556.678
L436.104 556.936
L436.774 556.585
L437.443 556.546
L438.782 556.741
L440.791 556.703
L441.461 556.553
L442.13 556.688
L442.8 556.588
L443.47 556.635
L444.139 556.974
L444.809 556.761
L448.157 557.106
L448.826 557.228
L449.496 556.955
L451.505 557.486
L452.174 557.437
L452.844 557.582
L453.514 557.597
L454.183 557.793
L454.853 557.781
L457.531 558.247
L458.201 558.062
L461.549 558.343
L462.218 558.295
L463.558 558.608
L464.227 558.545
L465.566 558.756
L466.236 558.376
L467.575 558.628
L468.245 558.462
L471.593 558.929
L472.262 558.677
L472.932 558.782
L474.271 558.711
L474.941 558.864
L476.28 558.737
L476.95 558.788
L478.289 558.654
L479.628 558.808
L480.298 558.984
L481.637 558.838
L482.976 558.744
L484.985 559.094
L485.654 558.733
L486.324 559.072
L487.663 558.963
L489.672 558.898
L491.011 558.874
L491.681 558.957
L492.35 558.774
L493.02 558.809
L493.69 559
L494.359 559.067
L495.029 559.01
L495.698 559.092
L496.368 558.855
L497.038 559.076
L498.377 558.769
L499.046 558.989
L499.716 558.861
L500.386 559.057
L501.055 558.895
L501.725 558.87
L502.394 559.041
L503.064 558.723
L503.734 558.917
L504.403 558.782
L505.742 559.131
L506.412 558.81
L507.751 559.04
L508.421 558.68
L509.09 559.199
L510.43 558.435
L511.099 558.878
L511.769 558.839
L512.438 558.933
L513.108 558.911
L513.778 558.769
L514.447 558.936
L515.117 558.74
L515.786 558.78
L516.456 558.979
L519.134 558.863
L519.804 559.038
L520.474 558.919
L521.813 558.932
L522.482 558.716
L523.822 558.797
L524.491 558.672
L525.161 558.943
L525.83 558.842
L526.5 559.029
L529.178 558.743
L530.518 558.892
L531.187 558.859
L531.857 558.984
L532.526 558.664
L533.196 558.634
L533.866 559.009
L534.535 558.926
L535.205 558.593
L535.874 558.821
L536.544 558.893
L537.883 558.838
L538.553 558.901
L539.222 558.69
L539.892 558.857
L540.562 558.827
L541.231 558.647
L541.901 558.723
L542.57 558.532
L543.24 558.822
L543.91 558.823
L544.579 558.598
L545.249 558.586
L545.918 558.83
L546.588 558.884
L547.927 558.717
L548.597 558.579
L549.936 558.8
L550.606 558.423
L551.275 558.732
L551.945 558.824
L552.614 558.603
L553.284 558.821
L553.954 558.66
L554.623 558.328
L555.293 558.642
L555.962 558.661
L556.632 558.545
L557.302 558.754
L557.971 558.796
L559.31 558.557
L559.98 558.62
L560.65 558.359
L561.319 558.803
L561.989 558.87
L563.998 558.497
L564.667 558.733
L565.337 558.492
L566.006 558.468
L566.676 558.644
L567.346 558.593
L568.015 558.674
L569.354 558.398
L570.024 558.808
L570.694 558.16
L571.363 558.529
L572.702 558.673
L574.042 558.417
L574.711 558.327
L575.381 558.654
L576.05 558.419
L577.39 558.595
L578.059 558.407
L579.398 558.202
L580.738 558.898
L581.407 558.529
L582.077 558.355
L582.746 558.649
L583.416 558.542
L584.086 558.634
L584.755 558.421
L586.094 558.336
L586.764 558.556
L587.434 558.48
L588.103 558.232
L588.773 558.513
L589.442 558.205
L590.112 558.458
L590.782 558.174
L592.121 558.784
L593.46 558.261
L594.13 558.524
L595.469 558.505
L596.138 558.17
L596.808 558.147
L597.478 558.374
L598.147 558.188
L598.817 558.329
L599.486 558.088
L600.156 558.36
L600.826 558.458
L601.495 558.306
L602.165 558.506
L604.174 558.068
L604.843 558.146
L605.513 558.452
L606.182 558.179
L606.852 558.208
L607.522 558.109
L608.191 558.342
L608.861 558.454
L610.2 558.274
L610.87 558.348
L611.539 558.225
L612.209 558.227
L612.878 558.092
L614.218 558.392
L615.557 558.143
L616.226 558.293
L616.896 558.216
L617.566 557.986
L618.235 558.37
L619.574 558.192
L620.244 558.251
L620.914 558.022
L622.253 558.168
L622.922 558.205
L623.592 558.027
L624.262 558.127
L624.931 558.353
L625.601 558.365
L626.27 557.946
L627.61 558.126
L628.279 558.05
L628.949 558.178
L632.966 558.216
L633.636 557.873
L634.306 558.086
L634.975 558.118
L635.645 558.355
L636.314 557.858
L636.984 558.078
L637.654 557.886
L638.323 558.108
L641.671 557.961
L642.341 558.124
L643.01 558.035
L643.68 558.227
L645.019 557.838
L645.689 558.004
L646.358 557.915
L647.028 558.127
L647.698 557.834
L648.367 557.867
L649.037 558.027
L650.376 558.041
L651.046 557.789
L651.715 557.79
L652.385 558.188
L653.054 558.025
L655.063 558.189
L656.402 557.847
L657.072 558.145
L657.742 558.037
L658.411 558.054
L659.75 557.666
L660.42 558.097
L661.09 557.752
L661.759 557.748
L662.429 558.191
L663.098 557.8
L663.768 557.997
L664.438 557.949
L665.107 557.772
L665.777 558.087
L666.446 558.097
L667.116 557.913
L667.786 557.996
L668.455 557.876
L669.125 558.042
L669.794 557.874
L670.464 558.027
L671.134 557.905
L671.803 558.078
L672.473 557.77
L673.142 558.017
L673.812 558.012
L674.482 557.834
L675.151 557.985
L675.821 557.825
L676.49 558.046
L677.16 558.124
L677.83 557.846
L678.499 558.009
L679.169 557.671
L679.838 557.917
L680.508 558.042
L683.186 557.869
L684.526 557.936
L685.195 557.638
L685.865 557.658
L686.534 558.004
L687.204 557.802
L687.874 558.221
L688.543 557.736
L689.213 557.628
L689.882 557.859
L690.552 557.951
L691.222 557.659
L691.891 557.897
L692.561 557.7
L693.23 557.69
L693.9 558.008
L694.57 557.835
L695.239 557.827
L695.909 557.938
L696.578 557.807
L697.248 557.912
L699.257 557.74
L699.926 557.78
L700.596 558.031
L701.266 557.849
L701.935 557.81
L702.605 557.951
L703.274 557.604
L704.614 557.991
L705.283 557.751
L706.622 558.062
L707.292 557.499
L707.962 557.831
L708.631 557.943
L709.301 557.672
L709.97 557.852
L711.31 557.775
L711.979 557.833
L713.318 557.792
L713.988 557.883
L714.658 557.583
L715.327 557.866
L715.997 557.779
L716.666 557.926
L717.336 557.661
L718.006 557.702
L718.675 557.901
L719.345 557.83
L720.014 557.623
L720.684 557.925
L721.354 557.855
L722.023 557.67
L722.693 557.876
L723.362 557.606
L724.032 557.784
L724.702 557.577
L725.371 557.583
L726.041 557.924
L726.71 557.805
L727.38 557.868
L728.719 557.661
L729.389 557.768
L730.058 557.754
L730.728 557.957
L731.398 557.681
L732.067 557.687
L732.737 558.035
L733.406 557.666
L734.746 557.647
L735.415 557.799
L736.754 557.603
L737.424 557.748
L738.094 557.755
L739.433 557.576
L740.102 557.746
L741.442 557.765
L742.111 557.572
L742.781 557.847
L743.45 557.416
L744.12 557.819
L744.79 557.844
L746.129 557.663
L747.468 557.849
L748.138 557.652
L748.807 557.902
L749.477 557.689
L750.146 557.601
L750.816 557.747
L751.486 557.635
L752.155 557.807
L752.825 557.505
L753.494 557.72
L754.164 557.468
L754.834 557.682
L755.503 557.636
L756.173 557.838
L756.842 557.633
L757.512 557.866
L758.182 557.743
L758.851 557.49
L759.521 557.734
L760.19 557.654
L760.86 557.765
L761.53 557.486
L762.199 557.785
L762.869 557.825
L763.538 557.587
L764.878 557.477
L766.217 557.862
L766.886 557.968
L767.556 557.666
L768.226 557.769
L768.895 557.662
L770.904 557.774
L771.574 557.523
L772.243 557.82
L772.913 557.688
L773.582 557.858
L774.252 557.591
L774.922 557.469
L775.591 557.612
L776.93 557.45
L777.6 557.834
L777.6 557.834" style="fill:none;stroke:#0000ff;stroke-linecap:square;"/>
   </g>
   <g id="patch_3">
    <path d="
M108 583.2
L108 64.8" style="fill:none;stroke:#000000;stroke-linecap:square;stroke-linejoin:miter;"/>
   </g>
   <g id="patch_4">
    <path d="
M108 64.8
L777.6 64.8" style="fill:none;stroke:#000000;stroke-linecap:square;stroke-linejoin:miter;"/>
   </g>
   <g id="patch_5">
    <path d="
M777.6 583.2
L777.6 64.8" style="fill:none;stroke:#000000;stroke-linecap:square;stroke-linejoin:miter;"/>
   </g>
   <g id="patch_6">
    <path d="
M108 583.2
L777.6 583.2" style="fill:none;stroke:#000000;stroke-linecap:square;stroke-linejoin:miter;"/>
   </g>
   <g id="matplotlib.axis_1">
    <g id="xtick_1">
     <g id="line2d_4">
      <defs>
       <path d="
M0 0
L0 -4" id="mc7db9fdffb" style="stroke:#000000;stroke-width:0.5;"/>
      </defs>
      <g>
       <use style="stroke:#000000;stroke-width:0.5;" x="108.0" xlink:href="#mc7db9fdffb" y="583.2"/>
      </g>
     </g>
     <g id="line2d_5">
      <defs>
       <path d="
M0 0
L0 4" id="m5a7d422ac3" style="stroke:#000000;stroke-width:0.5;"/>
      </defs>
      <g>
       <use style="stroke:#000000;stroke-width:0.5;" x="108.0" xlink:href="#m5a7d422ac3" y="64.8"/>
      </g>
     </g>
     <g id="text_1">
      <!-- 0 -->
      <defs>
       <path d="
M31.7812 66.4062
Q24.1719 66.4062 20.3281 58.9062
Q16.5 51.4219 16.5 36.375
Q16.5 21.3906 20.3281 13.8906
Q24.1719 6.39062 31.7812 6.39062
Q39.4531 6.39062 43.2812 13.8906
Q47.125 21.3906 47.125 36.375
Q47.125 51.4219 43.2812 58.9062
Q39.4531 66.4062 31.7812 66.4062
M31.7812 74.2188
Q44.0469 74.2188 50.5156 64.5156
Q56.9844 54.8281 56.9844 36.375
Q56.9844 17.9688 50.5156 8.26562
Q44.0469 -1.42188 31.7812 -1.42188
Q19.5312 -1.42188 13.0625 8.26562
Q6.59375 17.9688 6.59375 36.375
Q6.59375 54.8281 13.0625 64.5156
Q19.5312 74.2188 31.7812 74.2188" id="BitstreamVeraSans-Roman-30"/>
      </defs>
      <g transform="translate(104.9765625 596.318125)scale(0.12 -0.12)">
       <use xlink:href="#BitstreamVeraSans-Roman-30"/>
      </g>
     </g>
    </g>
    <g id="xtick_2">
     <g id="line2d_6">
      <g>
       <use style="stroke:#000000;stroke-width:0.5;" x="275.4" xlink:href="#mc7db9fdffb" y="583.2"/>
      </g>
     </g>
     <g id="line2d_7">
      <g>
       <use style="stroke:#000000;stroke-width:0.5;" x="275.4" xlink:href="#m5a7d422ac3" y="64.8"/>
      </g>
     </g>
     <g id="text_2">
      <!-- 50000 -->
      <defs>
       <path d="
M10.7969 72.9062
L49.5156 72.9062
L49.5156 64.5938
L19.8281 64.5938
L19.8281 46.7344
Q21.9688 47.4688 24.1094 47.8281
Q26.2656 48.1875 28.4219 48.1875
Q40.625 48.1875 47.75 41.5
Q54.8906 34.8125 54.8906 23.3906
Q54.8906 11.625 47.5625 5.09375
Q40.2344 -1.42188 26.9062 -1.42188
Q22.3125 -1.42188 17.5469 -0.640625
Q12.7969 0.140625 7.71875 1.70312
L7.71875 11.625
Q12.1094 9.23438 16.7969 8.0625
Q21.4844 6.89062 26.7031 6.89062
Q35.1562 6.89062 40.0781 11.3281
Q45.0156 15.7656 45.0156 23.3906
Q45.0156 31 40.0781 35.4375
Q35.1562 39.8906 26.7031 39.8906
Q22.75 39.8906 18.8125 39.0156
Q14.8906 38.1406 10.7969 36.2812
z
" id="BitstreamVeraSans-Roman-35"/>
      </defs>
      <g transform="translate(257.1740625 596.318125)scale(0.12 -0.12)">
       <use xlink:href="#BitstreamVeraSans-Roman-35"/>
       <use x="63.623046875" xlink:href="#BitstreamVeraSans-Roman-30"/>
       <use x="127.24609375" xlink:href="#BitstreamVeraSans-Roman-30"/>
       <use x="190.869140625" xlink:href="#BitstreamVeraSans-Roman-30"/>
       <use x="254.4921875" xlink:href="#BitstreamVeraSans-Roman-30"/>
      </g>
     </g>
    </g>
    <g id="xtick_3">
     <g id="line2d_8">
      <g>
       <use style="stroke:#000000;stroke-width:0.5;" x="442.8" xlink:href="#mc7db9fdffb" y="583.2"/>
      </g>
     </g>
     <g id="line2d_9">
      <g>
       <use style="stroke:#000000;stroke-width:0.5;" x="442.8" xlink:href="#m5a7d422ac3" y="64.8"/>
      </g>
     </g>
     <g id="text_3">
      <!-- 100000 -->
      <defs>
       <path d="
M12.4062 8.29688
L28.5156 8.29688
L28.5156 63.9219
L10.9844 60.4062
L10.9844 69.3906
L28.4219 72.9062
L38.2812 72.9062
L38.2812 8.29688
L54.3906 8.29688
L54.3906 0
L12.4062 0
z
" id="BitstreamVeraSans-Roman-31"/>
      </defs>
      <g transform="translate(420.9525 596.318125)scale(0.12 -0.12)">
       <use xlink:href="#BitstreamVeraSans-Roman-31"/>
       <use x="63.623046875" xlink:href="#BitstreamVeraSans-Roman-30"/>
       <use x="127.24609375" xlink:href="#BitstreamVeraSans-Roman-30"/>
       <use x="190.869140625" xlink:href="#BitstreamVeraSans-Roman-30"/>
       <use x="254.4921875" xlink:href="#BitstreamVeraSans-Roman-30"/>
       <use x="318.115234375" xlink:href="#BitstreamVeraSans-Roman-30"/>
      </g>
     </g>
    </g>
    <g id="xtick_4">
     <g id="line2d_10">
      <g>
       <use style="stroke:#000000;stroke-width:0.5;" x="610.2" xlink:href="#mc7db9fdffb" y="583.2"/>
      </g>
     </g>
     <g id="line2d_11">
      <g>
       <use style="stroke:#000000;stroke-width:0.5;" x="610.2" xlink:href="#m5a7d422ac3" y="64.8"/>
      </g>
     </g>
     <g id="text_4">
      <!-- 150000 -->
      <g transform="translate(588.3525 596.318125)scale(0.12 -0.12)">
       <use xlink:href="#BitstreamVeraSans-Roman-31"/>
       <use x="63.623046875" xlink:href="#BitstreamVeraSans-Roman-35"/>
       <use x="127.24609375" xlink:href="#BitstreamVeraSans-Roman-30"/>
       <use x="190.869140625" xlink:href="#BitstreamVeraSans-Roman-30"/>
       <use x="254.4921875" xlink:href="#BitstreamVeraSans-Roman-30"/>
       <use x="318.115234375" xlink:href="#BitstreamVeraSans-Roman-30"/>
      </g>
     </g>
    </g>
    <g id="xtick_5">
     <g id="line2d_12">
      <g>
       <use style="stroke:#000000;stroke-width:0.5;" x="777.6" xlink:href="#mc7db9fdffb" y="583.2"/>
      </g>
     </g>
     <g id="line2d_13">
      <g>
       <use style="stroke:#000000;stroke-width:0.5;" x="777.6" xlink:href="#m5a7d422ac3" y="64.8"/>
      </g>
     </g>
     <g id="text_5">
      <!-- 200000 -->
      <defs>
       <path d="
M19.1875 8.29688
L53.6094 8.29688
L53.6094 0
L7.32812 0
L7.32812 8.29688
Q12.9375 14.1094 22.625 23.8906
Q32.3281 33.6875 34.8125 36.5312
Q39.5469 41.8438 41.4219 45.5312
Q43.3125 49.2188 43.3125 52.7812
Q43.3125 58.5938 39.2344 62.25
Q35.1562 65.9219 28.6094 65.9219
Q23.9688 65.9219 18.8125 64.3125
Q13.6719 62.7031 7.8125 59.4219
L7.8125 69.3906
Q13.7656 71.7812 18.9375 73
Q24.125 74.2188 28.4219 74.2188
Q39.75 74.2188 46.4844 68.5469
Q53.2188 62.8906 53.2188 53.4219
Q53.2188 48.9219 51.5312 44.8906
Q49.8594 40.875 45.4062 35.4062
Q44.1875 33.9844 37.6406 27.2188
Q31.1094 20.4531 19.1875 8.29688" id="BitstreamVeraSans-Roman-32"/>
      </defs>
      <g transform="translate(755.533125 596.318125)scale(0.12 -0.12)">
       <use xlink:href="#BitstreamVeraSans-Roman-32"/>
       <use x="63.623046875" xlink:href="#BitstreamVeraSans-Roman-30"/>
       <use x="127.24609375" xlink:href="#BitstreamVeraSans-Roman-30"/>
       <use x="190.869140625" xlink:href="#BitstreamVeraSans-Roman-30"/>
       <use x="254.4921875" xlink:href="#BitstreamVeraSans-Roman-30"/>
       <use x="318.115234375" xlink:href="#BitstreamVeraSans-Roman-30"/>
      </g>
     </g>
    </g>
    <g id="text_6">
     <!-- t / ms -->
     <defs>
      <path d="
M44.2812 53.0781
L44.2812 44.5781
Q40.4844 46.5312 36.375 47.5
Q32.2812 48.4844 27.875 48.4844
Q21.1875 48.4844 17.8438 46.4375
Q14.5 44.3906 14.5 40.2812
Q14.5 37.1562 16.8906 35.375
Q19.2812 33.5938 26.5156 31.9844
L29.5938 31.2969
Q39.1562 29.25 43.1875 25.5156
Q47.2188 21.7812 47.2188 15.0938
Q47.2188 7.46875 41.1875 3.01562
Q35.1562 -1.42188 24.6094 -1.42188
Q20.2188 -1.42188 15.4531 -0.5625
Q10.6875 0.296875 5.42188 2
L5.42188 11.2812
Q10.4062 8.6875 15.2344 7.39062
Q20.0625 6.10938 24.8125 6.10938
Q31.1562 6.10938 34.5625 8.28125
Q37.9844 10.4531 37.9844 14.4062
Q37.9844 18.0625 35.5156 20.0156
Q33.0625 21.9688 24.7031 23.7812
L21.5781 24.5156
Q13.2344 26.2656 9.51562 29.9062
Q5.8125 33.5469 5.8125 39.8906
Q5.8125 47.6094 11.2812 51.7969
Q16.75 56 26.8125 56
Q31.7812 56 36.1719 55.2656
Q40.5781 54.5469 44.2812 53.0781" id="BitstreamVeraSans-Roman-73"/>
      <path d="
M18.3125 70.2188
L18.3125 54.6875
L36.8125 54.6875
L36.8125 47.7031
L18.3125 47.7031
L18.3125 18.0156
Q18.3125 11.3281 20.1406 9.42188
Q21.9688 7.51562 27.5938 7.51562
L36.8125 7.51562
L36.8125 0
L27.5938 0
Q17.1875 0 13.2344 3.875
Q9.28125 7.76562 9.28125 18.0156
L9.28125 47.7031
L2.6875 47.7031
L2.6875 54.6875
L9.28125 54.6875
L9.28125 70.2188
z
" id="BitstreamVeraSans-Roman-74"/>
      <path d="
M25.3906 72.9062
L33.6875 72.9062
L8.29688 -9.28125
L0 -9.28125
z
" id="BitstreamVeraSans-Roman-2f"/>
      <path id="BitstreamVeraSans-Roman-20"/>
      <path d="
M52 44.1875
Q55.375 50.25 60.0625 53.125
Q64.75 56 71.0938 56
Q79.6406 56 84.2812 50.0156
Q88.9219 44.0469 88.9219 33.0156
L88.9219 0
L79.8906 0
L79.8906 32.7188
Q79.8906 40.5781 77.0938 44.375
Q74.3125 48.1875 68.6094 48.1875
Q61.625 48.1875 57.5625 43.5469
Q53.5156 38.9219 53.5156 30.9062
L53.5156 0
L44.4844 0
L44.4844 32.7188
Q44.4844 40.625 41.7031 44.4062
Q38.9219 48.1875 33.1094 48.1875
Q26.2188 48.1875 22.1562 43.5312
Q18.1094 38.875 18.1094 30.9062
L18.1094 0
L9.07812 0
L9.07812 54.6875
L18.1094 54.6875
L18.1094 46.1875
Q21.1875 51.2188 25.4844 53.6094
Q29.7812 56 35.6875 56
Q41.6562 56 45.8281 52.9688
Q50 49.9531 52 44.1875" id="BitstreamVeraSans-Roman-6d"/>
     </defs>
     <g transform="translate(425.9353125 612.931875)scale(0.12 -0.12)">
      <use xlink:href="#BitstreamVeraSans-Roman-74"/>
      <use x="39.208984375" xlink:href="#BitstreamVeraSans-Roman-20"/>
      <use x="70.99609375" xlink:href="#BitstreamVeraSans-Roman-2f"/>
      <use x="104.6875" xlink:href="#BitstreamVeraSans-Roman-20"/>
      <use x="136.474609375" xlink:href="#BitstreamVeraSans-Roman-6d"/>
      <use x="233.88671875" xlink:href="#BitstreamVeraSans-Roman-73"/>
     </g>
    </g>
   </g>
   <g id="matplotlib.axis_2">
    <g id="ytick_1">
     <g id="line2d_14">
      <defs>
       <path d="
M0 0
L4 0" id="md7965d1ba0" style="stroke:#000000;stroke-width:0.5;"/>
      </defs>
      <g>
       <use style="stroke:#000000;stroke-width:0.5;" x="108.0" xlink:href="#md7965d1ba0" y="583.2"/>
      </g>
     </g>
     <g id="line2d_15">
      <defs>
       <path d="
M0 0
L-4 0" id="md9a1c1a7cd" style="stroke:#000000;stroke-width:0.5;"/>
      </defs>
      <g>
       <use style="stroke:#000000;stroke-width:0.5;" x="777.6" xlink:href="#md9a1c1a7cd" y="583.2"/>
      </g>
     </g>
     <g id="text_7">
      <!-- 1000000 -->
      <g transform="translate(52.67 586.51125)scale(0.12 -0.12)">
       <use xlink:href="#BitstreamVeraSans-Roman-31"/>
       <use x="63.623046875" xlink:href="#BitstreamVeraSans-Roman-30"/>
       <use x="127.24609375" xlink:href="#BitstreamVeraSans-Roman-30"/>
       <use x="190.869140625" xlink:href="#BitstreamVeraSans-Roman-30"/>
       <use x="254.4921875" xlink:href="#BitstreamVeraSans-Roman-30"/>
       <use x="318.115234375" xlink:href="#BitstreamVeraSans-Roman-30"/>
       <use x="381.73828125" xlink:href="#BitstreamVeraSans-Roman-30"/>
      </g>
     </g>
    </g>
    <g id="ytick_2">
     <g id="line2d_16">
      <g>
       <use style="stroke:#000000;stroke-width:0.5;" x="108.0" xlink:href="#md7965d1ba0" y="518.4"/>
      </g>
     </g>
     <g id="line2d_17">
      <g>
       <use style="stroke:#000000;stroke-width:0.5;" x="777.6" xlink:href="#md9a1c1a7cd" y="518.4"/>
      </g>
     </g>
     <g id="text_8">
      <!-- 1500000 -->
      <g transform="translate(52.67 521.71125)scale(0.12 -0.12)">
       <use xlink:href="#BitstreamVeraSans-Roman-31"/>
       <use x="63.623046875" xlink:href="#BitstreamVeraSans-Roman-35"/>
       <use x="127.24609375" xlink:href="#BitstreamVeraSans-Roman-30"/>
       <use x="190.869140625" xlink:href="#BitstreamVeraSans-Roman-30"/>
       <use x="254.4921875" xlink:href="#BitstreamVeraSans-Roman-30"/>
       <use x="318.115234375" xlink:href="#BitstreamVeraSans-Roman-30"/>
       <use x="381.73828125" xlink:href="#BitstreamVeraSans-Roman-30"/>
      </g>
     </g>
    </g>
    <g id="ytick_3">
     <g id="line2d_18">
      <g>
       <use style="stroke:#000000;stroke-width:0.5;" x="108.0" xlink:href="#md7965d1ba0" y="453.6"/>
      </g>
     </g>
     <g id="line2d_19">
      <g>
       <use style="stroke:#000000;stroke-width:0.5;" x="777.6" xlink:href="#md9a1c1a7cd" y="453.6"/>
      </g>
     </g>
     <g id="text_9">
      <!-- 2000000 -->
      <g transform="translate(52.23125 456.91125)scale(0.12 -0.12)">
       <use xlink:href="#BitstreamVeraSans-Roman-32"/>
       <use x="63.623046875" xlink:href="#BitstreamVeraSans-Roman-30"/>
       <use x="127.24609375" xlink:href="#BitstreamVeraSans-Roman-30"/>
       <use x="190.869140625" xlink:href="#BitstreamVeraSans-Roman-30"/>
       <use x="254.4921875" xlink:href="#BitstreamVeraSans-Roman-30"/>
       <use x="318.115234375" xlink:href="#BitstreamVeraSans-Roman-30"/>
       <use x="381.73828125" xlink:href="#BitstreamVeraSans-Roman-30"/>
      </g>
     </g>
    </g>
    <g id="ytick_4">
     <g id="line2d_20">
      <g>
       <use style="stroke:#000000;stroke-width:0.5;" x="108.0" xlink:href="#md7965d1ba0" y="388.8"/>
      </g>
     </g>
     <g id="line2d_21">
      <g>
       <use style="stroke:#000000;stroke-width:0.5;" x="777.6" xlink:href="#md9a1c1a7cd" y="388.8"/>
      </g>
     </g>
     <g id="text_10">
      <!-- 2500000 -->
      <g transform="translate(52.23125 392.11125)scale(0.12 -0.12)">
       <use xlink:href="#BitstreamVeraSans-Roman-32"/>
       <use x="63.623046875" xlink:href="#BitstreamVeraSans-Roman-35"/>
       <use x="127.24609375" xlink:href="#BitstreamVeraSans-Roman-30"/>
       <use x="190.869140625" xlink:href="#BitstreamVeraSans-Roman-30"/>
       <use x="254.4921875" xlink:href="#BitstreamVeraSans-Roman-30"/>
       <use x="318.115234375" xlink:href="#BitstreamVeraSans-Roman-30"/>
       <use x="381.73828125" xlink:href="#BitstreamVeraSans-Roman-30"/>
      </g>
     </g>
    </g>
    <g id="ytick_5">
     <g id="line2d_22">
      <g>
       <use style="stroke:#000000;stroke-width:0.5;" x="108.0" xlink:href="#md7965d1ba0" y="324.0"/>
      </g>
     </g>
     <g id="line2d_23">
      <g>
       <use style="stroke:#000000;stroke-width:0.5;" x="777.6" xlink:href="#md9a1c1a7cd" y="324.0"/>
      </g>
     </g>
     <g id="text_11">
      <!-- 3000000 -->
      <defs>
       <path d="
M40.5781 39.3125
Q47.6562 37.7969 51.625 33
Q55.6094 28.2188 55.6094 21.1875
Q55.6094 10.4062 48.1875 4.48438
Q40.7656 -1.42188 27.0938 -1.42188
Q22.5156 -1.42188 17.6562 -0.515625
Q12.7969 0.390625 7.625 2.20312
L7.625 11.7188
Q11.7188 9.32812 16.5938 8.10938
Q21.4844 6.89062 26.8125 6.89062
Q36.0781 6.89062 40.9375 10.5469
Q45.7969 14.2031 45.7969 21.1875
Q45.7969 27.6406 41.2812 31.2656
Q36.7656 34.9062 28.7188 34.9062
L20.2188 34.9062
L20.2188 43.0156
L29.1094 43.0156
Q36.375 43.0156 40.2344 45.9219
Q44.0938 48.8281 44.0938 54.2969
Q44.0938 59.9062 40.1094 62.9062
Q36.1406 65.9219 28.7188 65.9219
Q24.6562 65.9219 20.0156 65.0312
Q15.375 64.1562 9.8125 62.3125
L9.8125 71.0938
Q15.4375 72.6562 20.3438 73.4375
Q25.25 74.2188 29.5938 74.2188
Q40.8281 74.2188 47.3594 69.1094
Q53.9062 64.0156 53.9062 55.3281
Q53.9062 49.2656 50.4375 45.0938
Q46.9688 40.9219 40.5781 39.3125" id="BitstreamVeraSans-Roman-33"/>
      </defs>
      <g transform="translate(52.266875 327.31125)scale(0.12 -0.12)">
       <use xlink:href="#BitstreamVeraSans-Roman-33"/>
       <use x="63.623046875" xlink:href="#BitstreamVeraSans-Roman-30"/>
       <use x="127.24609375" xlink:href="#BitstreamVeraSans-Roman-30"/>
       <use x="190.869140625" xlink:href="#BitstreamVeraSans-Roman-30"/>
       <use x="254.4921875" xlink:href="#BitstreamVeraSans-Roman-30"/>
       <use x="318.115234375" xlink:href="#BitstreamVeraSans-Roman-30"/>
       <use x="381.73828125" xlink:href="#BitstreamVeraSans-Roman-30"/>
      </g>
     </g>
    </g>
    <g id="ytick_6">
     <g id="line2d_24">
      <g>
       <use style="stroke:#000000;stroke-width:0.5;" x="108.0" xlink:href="#md7965d1ba0" y="259.2"/>
      </g>
     </g>
     <g id="line2d_25">
      <g>
       <use style="stroke:#000000;stroke-width:0.5;" x="777.6" xlink:href="#md9a1c1a7cd" y="259.2"/>
      </g>
     </g>
     <g id="text_12">
      <!-- 3500000 -->
      <g transform="translate(52.266875 262.51125)scale(0.12 -0.12)">
       <use xlink:href="#BitstreamVeraSans-Roman-33"/>
       <use x="63.623046875" xlink:href="#BitstreamVeraSans-Roman-35"/>
       <use x="127.24609375" xlink:href="#BitstreamVeraSans-Roman-30"/>
       <use x="190.869140625" xlink:href="#BitstreamVeraSans-Roman-30"/>
       <use x="254.4921875" xlink:href="#BitstreamVeraSans-Roman-30"/>
       <use x="318.115234375" xlink:href="#BitstreamVeraSans-Roman-30"/>
       <use x="381.73828125" xlink:href="#BitstreamVeraSans-Roman-30"/>
      </g>
     </g>
    </g>
    <g id="ytick_7">
     <g id="line2d_26">
      <g>
       <use style="stroke:#000000;stroke-width:0.5;" x="108.0" xlink:href="#md7965d1ba0" y="194.4"/>
      </g>
     </g>
     <g id="line2d_27">
      <g>
       <use style="stroke:#000000;stroke-width:0.5;" x="777.6" xlink:href="#md9a1c1a7cd" y="194.4"/>
      </g>
     </g>
     <g id="text_13">
      <!-- 4000000 -->
      <defs>
       <path d="
M37.7969 64.3125
L12.8906 25.3906
L37.7969 25.3906
z

M35.2031 72.9062
L47.6094 72.9062
L47.6094 25.3906
L58.0156 25.3906
L58.0156 17.1875
L47.6094 17.1875
L47.6094 0
L37.7969 0
L37.7969 17.1875
L4.89062 17.1875
L4.89062 26.7031
z
" id="BitstreamVeraSans-Roman-34"/>
      </defs>
      <g transform="translate(51.93875 197.71125)scale(0.12 -0.12)">
       <use xlink:href="#BitstreamVeraSans-Roman-34"/>
       <use x="63.623046875" xlink:href="#BitstreamVeraSans-Roman-30"/>
       <use x="127.24609375" xlink:href="#BitstreamVeraSans-Roman-30"/>
       <use x="190.869140625" xlink:href="#BitstreamVeraSans-Roman-30"/>
       <use x="254.4921875" xlink:href="#BitstreamVeraSans-Roman-30"/>
       <use x="318.115234375" xlink:href="#BitstreamVeraSans-Roman-30"/>
       <use x="381.73828125" xlink:href="#BitstreamVeraSans-Roman-30"/>
      </g>
     </g>
    </g>
    <g id="ytick_8">
     <g id="line2d_28">
      <g>
       <use style="stroke:#000000;stroke-width:0.5;" x="108.0" xlink:href="#md7965d1ba0" y="129.6"/>
      </g>
     </g>
     <g id="line2d_29">
      <g>
       <use style="stroke:#000000;stroke-width:0.5;" x="777.6" xlink:href="#md9a1c1a7cd" y="129.6"/>
      </g>
     </g>
     <g id="text_14">
      <!-- 4500000 -->
      <g transform="translate(51.93875 132.91125)scale(0.12 -0.12)">
       <use xlink:href="#BitstreamVeraSans-Roman-34"/>
       <use x="63.623046875" xlink:href="#BitstreamVeraSans-Roman-35"/>
       <use x="127.24609375" xlink:href="#BitstreamVeraSans-Roman-30"/>
       <use x="190.869140625" xlink:href="#BitstreamVeraSans-Roman-30"/>
       <use x="254.4921875" xlink:href="#BitstreamVeraSans-Roman-30"/>
       <use x="318.115234375" xlink:href="#BitstreamVeraSans-Roman-30"/>
       <use x="381.73828125" xlink:href="#BitstreamVeraSans-Roman-30"/>
      </g>
     </g>
    </g>
    <g id="ytick_9">
     <g id="line2d_30">
      <g>
       <use style="stroke:#000000;stroke-width:0.5;" x="108.0" xlink:href="#md7965d1ba0" y="64.8"/>
      </g>
     </g>
     <g id="line2d_31">
      <g>
       <use style="stroke:#000000;stroke-width:0.5;" x="777.6" xlink:href="#md9a1c1a7cd" y="64.8"/>
      </g>
     </g>
     <g id="text_15">
      <!-- 5000000 -->
      <g transform="translate(52.278125 68.11125)scale(0.12 -0.12)">
       <use xlink:href="#BitstreamVeraSans-Roman-35"/>
       <use x="63.623046875" xlink:href="#BitstreamVeraSans-Roman-30"/>
       <use x="127.24609375" xlink:href="#BitstreamVeraSans-Roman-30"/>
       <use x="190.869140625" xlink:href="#BitstreamVeraSans-Roman-30"/>
       <use x="254.4921875" xlink:href="#BitstreamVeraSans-Roman-30"/>
       <use x="318.115234375" xlink:href="#BitstreamVeraSans-Roman-30"/>
       <use x="381.73828125" xlink:href="#BitstreamVeraSans-Roman-30"/>
      </g>
     </g>
    </g>
    <g id="text_16">
     <!-- particle numbers -->
     <defs>
      <path d="
M48.7812 52.5938
L48.7812 44.1875
Q44.9688 46.2969 41.1406 47.3438
Q37.3125 48.3906 33.4062 48.3906
Q24.6562 48.3906 19.8125 42.8438
Q14.9844 37.3125 14.9844 27.2969
Q14.9844 17.2812 19.8125 11.7344
Q24.6562 6.20312 33.4062 6.20312
Q37.3125 6.20312 41.1406 7.25
Q44.9688 8.29688 48.7812 10.4062
L48.7812 2.09375
Q45.0156 0.34375 40.9844 -0.53125
Q36.9688 -1.42188 32.4219 -1.42188
Q20.0625 -1.42188 12.7812 6.34375
Q5.51562 14.1094 5.51562 27.2969
Q5.51562 40.6719 12.8594 48.3281
Q20.2188 56 33.0156 56
Q37.1562 56 41.1094 55.1406
Q45.0625 54.2969 48.7812 52.5938" id="BitstreamVeraSans-Roman-63"/>
      <path d="
M34.2812 27.4844
Q23.3906 27.4844 19.1875 25
Q14.9844 22.5156 14.9844 16.5
Q14.9844 11.7188 18.1406 8.90625
Q21.2969 6.10938 26.7031 6.10938
Q34.1875 6.10938 38.7031 11.4062
Q43.2188 16.7031 43.2188 25.4844
L43.2188 27.4844
z

M52.2031 31.2031
L52.2031 0
L43.2188 0
L43.2188 8.29688
Q40.1406 3.32812 35.5469 0.953125
Q30.9531 -1.42188 24.3125 -1.42188
Q15.9219 -1.42188 10.9531 3.29688
Q6 8.01562 6 15.9219
Q6 25.1406 12.1719 29.8281
Q18.3594 34.5156 30.6094 34.5156
L43.2188 34.5156
L43.2188 35.4062
Q43.2188 41.6094 39.1406 45
Q35.0625 48.3906 27.6875 48.3906
Q23 48.3906 18.5469 47.2656
Q14.1094 46.1406 10.0156 43.8906
L10.0156 52.2031
Q14.9375 54.1094 19.5781 55.0469
Q24.2188 56 28.6094 56
Q40.4844 56 46.3438 49.8438
Q52.2031 43.7031 52.2031 31.2031" id="BitstreamVeraSans-Roman-61"/>
      <path d="
M48.6875 27.2969
Q48.6875 37.2031 44.6094 42.8438
Q40.5312 48.4844 33.4062 48.4844
Q26.2656 48.4844 22.1875 42.8438
Q18.1094 37.2031 18.1094 27.2969
Q18.1094 17.3906 22.1875 11.75
Q26.2656 6.10938 33.4062 6.10938
Q40.5312 6.10938 44.6094 11.75
Q48.6875 17.3906 48.6875 27.2969
M18.1094 46.3906
Q20.9531 51.2656 25.2656 53.625
Q29.5938 56 35.5938 56
Q45.5625 56 51.7812 48.0938
Q58.0156 40.1875 58.0156 27.2969
Q58.0156 14.4062 51.7812 6.48438
Q45.5625 -1.42188 35.5938 -1.42188
Q29.5938 -1.42188 25.2656 0.953125
Q20.9531 3.32812 18.1094 8.20312
L18.1094 0
L9.07812 0
L9.07812 75.9844
L18.1094 75.9844
z
" id="BitstreamVeraSans-Roman-62"/>
      <path d="
M8.5 21.5781
L8.5 54.6875
L17.4844 54.6875
L17.4844 21.9219
Q17.4844 14.1562 20.5 10.2656
Q23.5312 6.39062 29.5938 6.39062
Q36.8594 6.39062 41.0781 11.0312
Q45.3125 15.6719 45.3125 23.6875
L45.3125 54.6875
L54.2969 54.6875
L54.2969 0
L45.3125 0
L45.3125 8.40625
Q42.0469 3.42188 37.7188 1
Q33.4062 -1.42188 27.6875 -1.42188
Q18.2656 -1.42188 13.375 4.4375
Q8.5 10.2969 8.5 21.5781" id="BitstreamVeraSans-Roman-75"/>
      <path d="
M54.8906 33.0156
L54.8906 0
L45.9062 0
L45.9062 32.7188
Q45.9062 40.4844 42.875 44.3281
Q39.8438 48.1875 33.7969 48.1875
Q26.5156 48.1875 22.3125 43.5469
Q18.1094 38.9219 18.1094 30.9062
L18.1094 0
L9.07812 0
L9.07812 54.6875
L18.1094 54.6875
L18.1094 46.1875
Q21.3438 51.125 25.7031 53.5625
Q30.0781 56 35.7969 56
Q45.2188 56 50.0469 50.1719
Q54.8906 44.3438 54.8906 33.0156" id="BitstreamVeraSans-Roman-6e"/>
      <path d="
M18.1094 8.20312
L18.1094 -20.7969
L9.07812 -20.7969
L9.07812 54.6875
L18.1094 54.6875
L18.1094 46.3906
Q20.9531 51.2656 25.2656 53.625
Q29.5938 56 35.5938 56
Q45.5625 56 51.7812 48.0938
Q58.0156 40.1875 58.0156 27.2969
Q58.0156 14.4062 51.7812 6.48438
Q45.5625 -1.42188 35.5938 -1.42188
Q29.5938 -1.42188 25.2656 0.953125
Q20.9531 3.32812 18.1094 8.20312
M48.6875 27.2969
Q48.6875 37.2031 44.6094 42.8438
Q40.5312 48.4844 33.4062 48.4844
Q26.2656 48.4844 22.1875 42.8438
Q18.1094 37.2031 18.1094 27.2969
Q18.1094 17.3906 22.1875 11.75
Q26.2656 6.10938 33.4062 6.10938
Q40.5312 6.10938 44.6094 11.75
Q48.6875 17.3906 48.6875 27.2969" id="BitstreamVeraSans-Roman-70"/>
      <path d="
M41.1094 46.2969
Q39.5938 47.1719 37.8125 47.5781
Q36.0312 48 33.8906 48
Q26.2656 48 22.1875 43.0469
Q18.1094 38.0938 18.1094 28.8125
L18.1094 0
L9.07812 0
L9.07812 54.6875
L18.1094 54.6875
L18.1094 46.1875
Q20.9531 51.1719 25.4844 53.5781
Q30.0312 56 36.5312 56
Q37.4531 56 38.5781 55.875
Q39.7031 55.7656 41.0625 55.5156
z
" id="BitstreamVeraSans-Roman-72"/>
      <path d="
M9.42188 75.9844
L18.4062 75.9844
L18.4062 0
L9.42188 0
z
" id="BitstreamVeraSans-Roman-6c"/>
      <path d="
M9.42188 54.6875
L18.4062 54.6875
L18.4062 0
L9.42188 0
z

M9.42188 75.9844
L18.4062 75.9844
L18.4062 64.5938
L9.42188 64.5938
z
" id="BitstreamVeraSans-Roman-69"/>
      <path d="
M56.2031 29.5938
L56.2031 25.2031
L14.8906 25.2031
Q15.4844 15.9219 20.4844 11.0625
Q25.4844 6.20312 34.4219 6.20312
Q39.5938 6.20312 44.4531 7.46875
Q49.3125 8.73438 54.1094 11.2812
L54.1094 2.78125
Q49.2656 0.734375 44.1875 -0.34375
Q39.1094 -1.42188 33.8906 -1.42188
Q20.7969 -1.42188 13.1562 6.1875
Q5.51562 13.8125 5.51562 26.8125
Q5.51562 40.2344 12.7656 48.1094
Q20.0156 56 32.3281 56
Q43.3594 56 49.7812 48.8906
Q56.2031 41.7969 56.2031 29.5938
M47.2188 32.2344
Q47.125 39.5938 43.0938 43.9844
Q39.0625 48.3906 32.4219 48.3906
Q24.9062 48.3906 20.3906 44.1406
Q15.875 39.8906 15.1875 32.1719
z
" id="BitstreamVeraSans-Roman-65"/>
     </defs>
     <g transform="translate(44.443125 374.78625)rotate(-90.0)scale(0.12 -0.12)">
      <use xlink:href="#BitstreamVeraSans-Roman-70"/>
      <use x="63.4765625" xlink:href="#BitstreamVeraSans-Roman-61"/>
      <use x="124.755859375" xlink:href="#BitstreamVeraSans-Roman-72"/>
      <use x="165.869140625" xlink:href="#BitstreamVeraSans-Roman-74"/>
      <use x="205.078125" xlink:href="#BitstreamVeraSans-Roman-69"/>
      <use x="232.861328125" xlink:href="#BitstreamVeraSans-Roman-63"/>
      <use x="287.841796875" xlink:href="#BitstreamVeraSans-Roman-6c"/>
      <use x="315.625" xlink:href="#BitstreamVeraSans-Roman-65"/>
      <use x="377.1484375" xlink:href="#BitstreamVeraSans-Roman-20"/>
      <use x="408.935546875" xlink:href="#BitstreamVeraSans-Roman-6e"/>
      <use x="472.314453125" xlink:href="#BitstreamVeraSans-Roman-75"/>
      <use x="535.693359375" xlink:href="#BitstreamVeraSans-Roman-6d"/>
      <use x="633.10546875" xlink:href="#BitstreamVeraSans-Roman-62"/>
      <use x="696.58203125" xlink:href="#BitstreamVeraSans-Roman-65"/>
      <use x="758.10546875" xlink:href="#BitstreamVeraSans-Roman-72"/>
      <use x="799.21875" xlink:href="#BitstreamVeraSans-Roman-73"/>
     </g>
    </g>
   </g>
   <g id="legend_1">
    <g id="patch_7">
     <path d="
M721.468 340.462
L774.1 340.462
L774.1 307.538
L721.468 307.538
z
" style="fill:#ffffff;stroke:#000000;stroke-linejoin:miter;"/>
    </g>
    <g id="line2d_32">
     <path d="
M726.368 313.207
L736.168 313.207" style="fill:none;stroke:#ff0000;stroke-linecap:square;"/>
    </g>
    <g id="line2d_33"/>
    <g id="text_17">
     <!-- ATP el.0 -->
     <defs>
      <path d="
M19.6719 64.7969
L19.6719 37.4062
L32.0781 37.4062
Q38.9688 37.4062 42.7188 40.9688
Q46.4844 44.5312 46.4844 51.125
Q46.4844 57.6719 42.7188 61.2344
Q38.9688 64.7969 32.0781 64.7969
z

M9.8125 72.9062
L32.0781 72.9062
Q44.3438 72.9062 50.6094 67.3594
Q56.8906 61.8125 56.8906 51.125
Q56.8906 40.3281 50.6094 34.8125
Q44.3438 29.2969 32.0781 29.2969
L19.6719 29.2969
L19.6719 0
L9.8125 0
z
" id="BitstreamVeraSans-Roman-50"/>
      <path d="
M34.1875 63.1875
L20.7969 26.9062
L47.6094 26.9062
z

M28.6094 72.9062
L39.7969 72.9062
L67.5781 0
L57.3281 0
L50.6875 18.7031
L17.8281 18.7031
L11.1875 0
L0.78125 0
z
" id="BitstreamVeraSans-Roman-41"/>
      <path d="
M10.6875 12.4062
L21 12.4062
L21 0
L10.6875 0
z
" id="BitstreamVeraSans-Roman-2e"/>
      <path d="
M-0.296875 72.9062
L61.375 72.9062
L61.375 64.5938
L35.5 64.5938
L35.5 0
L25.5938 0
L25.5938 64.5938
L-0.296875 64.5938
z
" id="BitstreamVeraSans-Roman-54"/>
     </defs>
     <g transform="translate(743.86765625 315.656875)scale(0.07 -0.07)">
      <use xlink:href="#BitstreamVeraSans-Roman-41"/>
      <use x="60.658203125" xlink:href="#BitstreamVeraSans-Roman-54"/>
      <use x="121.7421875" xlink:href="#BitstreamVeraSans-Roman-50"/>
      <use x="182.044921875" xlink:href="#BitstreamVeraSans-Roman-20"/>
      <use x="213.83203125" xlink:href="#BitstreamVeraSans-Roman-65"/>
      <use x="275.35546875" xlink:href="#BitstreamVeraSans-Roman-6c"/>
      <use x="303.138671875" xlink:href="#BitstreamVeraSans-Roman-2e"/>
      <use x="334.92578125" xlink:href="#BitstreamVeraSans-Roman-30"/>
     </g>
    </g>
    <g id="line2d_34">
     <path d="
M726.368 323.482
L736.168 323.482" style="fill:none;stroke:#008000;stroke-linecap:square;"/>
    </g>
    <g id="line2d_35"/>
    <g id="text_18">
     <!-- ATP el.1 -->
     <g transform="translate(743.86765625 325.9315625)scale(0.07 -0.07)">
      <use xlink:href="#BitstreamVeraSans-Roman-41"/>
      <use x="60.658203125" xlink:href="#BitstreamVeraSans-Roman-54"/>
      <use x="121.7421875" xlink:href="#BitstreamVeraSans-Roman-50"/>
      <use x="182.044921875" xlink:href="#BitstreamVeraSans-Roman-20"/>
      <use x="213.83203125" xlink:href="#BitstreamVeraSans-Roman-65"/>
      <use x="275.35546875" xlink:href="#BitstreamVeraSans-Roman-6c"/>
      <use x="303.138671875" xlink:href="#BitstreamVeraSans-Roman-2e"/>
      <use x="334.92578125" xlink:href="#BitstreamVeraSans-Roman-31"/>
     </g>
    </g>
    <g id="line2d_36">
     <path d="
M726.368 333.756
L736.168 333.756" style="fill:none;stroke:#0000ff;stroke-linecap:square;"/>
    </g>
    <g id="line2d_37"/>
    <g id="text_19">
     <!-- ATP el.2 -->
     <g transform="translate(743.86765625 336.20625)scale(0.07 -0.07)">
      <use xlink:href="#BitstreamVeraSans-Roman-41"/>
      <use x="60.658203125" xlink:href="#BitstreamVeraSans-Roman-54"/>
      <use x="121.7421875" xlink:href="#BitstreamVeraSans-Roman-50"/>
      <use x="182.044921875" xlink:href="#BitstreamVeraSans-Roman-20"/>
      <use x="213.83203125" xlink:href="#BitstreamVeraSans-Roman-65"/>
      <use x="275.35546875" xlink:href="#BitstreamVeraSans-Roman-6c"/>
      <use x="303.138671875" xlink:href="#BitstreamVeraSans-Roman-2e"/>
      <use x="334.92578125" xlink:href="#BitstreamVeraSans-Roman-32"/>
     </g>
    </g>
   </g>
  </g>
 </g>
 <defs>
  <clipPath id="p7ceb695115">
   <rect height="518.4" width="669.6" x="108.0" y="64.8"/>
  </clipPath>
 </defs>
</svg>
