<?xml version="1.0" encoding="utf-8" standalone="no"?>
<!DOCTYPE svg PUBLIC "-//W3C//DTD SVG 1.1//EN"
  "http://www.w3.org/Graphics/SVG/1.1/DTD/svg11.dtd">
<!-- Created with matplotlib (http://matplotlib.org/) -->
<svg height="648pt" version="1.1" viewBox="0 0 864 648" width="864pt" xmlns="http://www.w3.org/2000/svg" xmlns:xlink="http://www.w3.org/1999/xlink">
 <defs>
  <style type="text/css">
*{stroke-linecap:butt;stroke-linejoin:round;}
  </style>
 </defs>
 <g id="figure_1">
  <g id="patch_1">
   <path d="
M0 648
L864 648
L864 0
L0 0
z
" style="fill:#ffffff;"/>
  </g>
  <g id="axes_1">
   <g id="patch_2">
    <path d="
M108 583.2
L777.6 583.2
L777.6 64.8
L108 64.8
z
" style="fill:#ffffff;"/>
   </g>
   <g id="line2d_1">
    <path clip-path="url(#p7ceb695115)" d="
M108 581.956
L108.67 582.163
L109.339 581.748
L110.009 582.785
L110.678 582.371
L111.348 582.371
L112.018 582.578
L112.687 582.993
L113.357 582.993
L114.026 582.785
L115.366 582.785
L116.035 583.2
L116.705 582.785
L117.374 582.785
L118.714 583.2
L119.383 582.785
L120.722 583.2
L128.758 583.2
L129.427 582.993
L130.097 583.2
L133.445 583.2
L134.114 582.993
L134.784 583.2
L136.123 583.2
L136.793 582.993
L137.462 583.2
L442.8 583.2
L443.47 474.336
L444.139 480.142
L444.809 477.446
L445.478 483.46
L446.148 481.179
L446.818 487.814
L447.487 480.557
L448.157 481.179
L448.826 490.51
L449.496 491.754
L450.166 486.57
L450.835 490.717
L451.505 487.814
L452.174 484.082
L452.844 489.266
L453.514 489.473
L454.183 489.888
L454.853 484.911
L455.522 489.888
L456.192 489.681
L456.862 488.436
L457.531 497.768
L458.201 498.804
L459.54 483.875
L460.21 484.704
L460.879 488.436
L461.549 495.279
L462.218 494.45
L462.888 497.56
L463.558 488.851
L464.227 495.072
L464.897 485.119
L465.566 496.524
L466.236 492.169
L466.906 482.216
L467.575 487.4
L468.245 489.681
L468.914 483.46
L469.584 484.497
L470.254 489.059
L470.923 489.266
L471.593 489.681
L472.262 489.059
L472.932 491.34
L473.602 488.022
L474.271 489.266
L474.941 482.838
L475.61 485.326
L476.28 498.39
L476.95 490.717
L477.619 489.681
L478.289 496.316
L478.958 486.985
L479.628 490.925
L480.298 488.436
L480.967 488.644
L481.637 496.524
L482.306 484.082
L482.976 489.266
L483.646 495.694
L484.315 491.34
L484.985 491.547
L485.654 493.62
L486.324 482.008
L486.994 492.584
L487.663 486.57
L488.333 487.4
L489.002 487.607
L489.672 490.717
L490.342 489.888
L491.011 479.727
L491.681 487.192
L492.35 486.985
L493.02 493.206
L493.69 492.584
L494.359 486.985
L495.029 489.059
L495.698 485.948
L496.368 492.169
L497.038 491.547
L497.707 491.754
L498.377 481.801
L499.046 494.243
L499.716 498.804
L500.386 490.303
L501.055 488.644
L501.725 482.63
L502.394 498.39
L503.064 488.851
L503.734 489.059
L504.403 490.51
L505.742 487.192
L506.412 494.657
L507.082 484.911
L507.751 485.326
L508.421 489.681
L509.09 486.363
L509.76 489.473
L511.099 483.46
L511.769 485.741
L512.438 485.533
L513.108 485.533
L513.778 493.828
L514.447 485.533
L515.117 489.059
L515.786 484.497
L516.456 490.925
L517.795 479.313
L518.465 490.095
L519.134 492.791
L519.804 486.57
L520.474 488.022
L521.143 486.156
L521.813 487.607
L522.482 490.51
L523.152 487.814
L523.822 488.851
L524.491 486.156
L525.161 485.533
L525.83 489.473
L526.5 494.657
L527.17 481.594
L527.839 481.801
L528.509 495.487
L529.178 491.962
L529.848 485.948
L530.518 490.717
L531.187 490.717
L531.857 488.229
L532.526 482.423
L533.196 495.487
L533.866 484.704
L534.535 490.303
L535.205 490.095
L535.874 491.754
L536.544 487.4
L537.214 492.998
L537.883 495.694
L538.553 486.778
L539.222 487.4
L539.892 491.34
L540.562 491.34
L541.231 493.206
L541.901 484.289
L542.57 492.998
L543.24 488.022
L543.91 491.547
L544.579 495.694
L545.249 489.473
L545.918 493.62
L546.588 490.303
L547.258 488.851
L547.927 490.303
L548.597 485.741
L549.266 494.657
L550.606 482.423
L551.275 500.256
L551.945 488.851
L552.614 487.607
L553.954 494.243
L554.623 489.888
L555.293 492.998
L555.962 491.962
L556.632 492.584
L557.302 498.182
L557.971 486.57
L558.641 485.948
L559.31 481.801
L559.98 489.266
L560.65 487.814
L561.319 491.754
L561.989 489.059
L562.658 491.547
L563.328 489.059
L563.998 488.436
L564.667 484.704
L565.337 483.045
L566.006 486.985
L566.676 493.62
L567.346 479.52
L568.015 488.644
L568.685 485.533
L569.354 492.998
L570.024 495.901
L570.694 493.206
L571.363 485.119
L572.033 488.644
L572.702 478.898
L573.372 486.985
L574.042 485.533
L574.711 476.617
L575.381 495.072
L576.05 498.39
L576.72 483.875
L577.39 492.376
L578.059 489.266
L578.729 491.132
L579.398 485.533
L580.068 484.497
L580.738 476.202
L581.407 488.644
L582.077 493.413
L582.746 487.607
L583.416 486.363
L584.086 490.095
L584.755 490.717
L585.425 484.289
L586.094 490.51
L586.764 485.533
L587.434 488.644
L588.773 495.901
L589.442 495.279
L590.112 491.547
L590.782 492.584
L591.451 483.667
L592.121 487.814
L592.79 493.206
L593.46 491.547
L594.13 492.376
L594.799 484.497
L595.469 503.159
L596.138 492.376
L596.808 486.57
L597.478 484.082
L598.147 488.644
L598.817 492.376
L599.486 487.814
L600.156 486.985
L600.826 489.681
L601.495 480.142
L602.165 487.814
L602.834 491.547
L603.504 492.584
L604.174 486.985
L604.843 497.353
L605.513 481.386
L606.852 490.51
L607.522 484.497
L608.191 485.119
L608.861 483.875
L609.53 482.008
L610.2 488.022
L610.87 491.132
L611.539 485.948
L612.209 488.022
L612.878 483.46
L613.548 495.694
L614.218 481.801
L615.557 489.681
L616.226 488.229
L616.896 482.216
L617.566 495.901
L618.235 487.814
L618.905 486.985
L619.574 486.57
L620.244 494.45
L620.914 485.326
L621.583 494.243
L622.253 491.962
L622.922 489.266
L623.592 491.34
L624.262 484.704
L624.931 486.778
L625.601 483.875
L626.27 488.022
L626.94 483.045
L627.61 494.657
L628.279 490.51
L628.949 482.838
L629.618 488.851
L630.288 483.667
L630.958 484.497
L631.627 493.828
L632.297 494.243
L632.966 489.266
L633.636 488.644
L634.306 495.901
L634.975 487.192
L635.645 490.095
L636.314 485.533
L636.984 486.156
L637.654 486.363
L638.323 480.764
L638.993 490.51
L639.662 492.169
L640.332 492.169
L641.671 492.584
L642.341 492.998
L643.01 481.594
L643.68 493.62
L644.35 479.935
L645.019 487.4
L645.689 483.252
L646.358 484.911
L647.028 485.119
L647.698 483.045
L648.367 485.741
L649.037 491.132
L649.706 490.717
L650.376 488.022
L651.046 486.778
L651.715 488.229
L653.054 484.289
L653.724 490.303
L654.394 487.4
L655.063 492.998
L655.733 494.243
L656.402 494.865
L657.072 491.132
L657.742 491.132
L658.411 489.473
L659.081 482.838
L659.75 484.082
L661.09 497.975
L661.759 494.657
L662.429 489.888
L663.098 496.524
L663.768 489.681
L664.438 490.303
L665.107 486.778
L665.777 482.423
L666.446 491.547
L667.116 485.741
L667.786 486.363
L668.455 478.898
L669.125 492.376
L669.794 491.962
L670.464 488.022
L671.803 488.436
L672.473 489.473
L673.142 485.948
L673.812 493.206
L674.482 488.644
L675.151 494.035
L675.821 489.059
L676.49 485.326
L677.16 490.51
L677.83 479.52
L678.499 486.156
L679.169 489.059
L679.838 486.156
L680.508 495.072
L681.178 479.727
L681.847 491.962
L682.517 486.363
L683.186 498.597
L683.856 489.266
L684.526 484.082
L685.195 482.008
L685.865 492.169
L686.534 483.252
L687.204 492.584
L687.874 483.875
L688.543 486.778
L689.213 492.998
L689.882 493.413
L690.552 489.266
L691.222 492.169
L691.891 489.888
L692.561 484.082
L693.23 489.059
L693.9 487.192
L694.57 488.022
L695.239 492.998
L695.909 489.888
L696.578 482.63
L697.248 494.865
L697.918 482.423
L698.587 493.206
L699.257 485.741
L699.926 498.39
L701.266 490.303
L701.935 489.266
L702.605 489.473
L703.274 486.985
L703.944 486.363
L704.614 498.39
L705.283 487.607
L705.953 492.791
L706.622 488.644
L707.292 486.363
L707.962 488.644
L708.631 483.252
L709.301 483.045
L709.97 488.229
L710.64 485.326
L711.31 492.584
L711.979 485.948
L712.649 483.667
L713.318 492.584
L713.988 488.022
L714.658 493.62
L715.327 492.169
L715.997 486.778
L716.666 488.022
L717.336 490.925
L718.006 487.192
L718.675 488.851
L719.345 488.436
L720.014 494.243
L721.354 484.497
L722.023 494.243
L722.693 486.156
L723.362 489.266
L724.032 489.888
L724.702 486.156
L725.371 485.119
L726.041 484.289
L726.71 486.985
L727.38 485.119
L728.05 488.022
L728.719 490.095
L729.389 490.095
L730.058 494.657
L730.728 484.289
L731.398 485.119
L732.067 486.363
L732.737 488.022
L733.406 490.095
L734.076 495.901
L734.746 488.022
L735.415 484.082
L736.085 491.132
L736.754 486.985
L738.094 491.962
L738.763 485.326
L739.433 486.156
L740.102 490.51
L740.772 486.985
L741.442 485.119
L742.111 485.326
L742.781 490.717
L743.45 485.948
L744.12 485.119
L745.459 492.791
L746.129 494.243
L746.798 485.741
L747.468 495.901
L748.138 492.169
L748.807 492.998
L749.477 486.57
L750.146 489.266
L750.816 489.681
L751.486 478.691
L752.155 490.925
L752.825 489.473
L753.494 484.911
L754.164 485.741
L754.834 491.962
L755.503 483.045
L756.173 490.303
L756.842 485.948
L757.512 492.376
L758.182 493.413
L758.851 490.717
L759.521 491.132
L760.19 489.473
L760.86 486.985
L761.53 487.814
L762.199 480.142
L762.869 493.206
L763.538 488.229
L764.208 490.095
L764.878 487.607
L765.547 490.303
L766.217 486.985
L766.886 496.109
L767.556 491.962
L768.226 485.326
L768.895 480.972
L769.565 487.607
L770.234 477.032
L770.904 486.156
L771.574 489.681
L772.243 482.008
L772.913 484.704
L773.582 485.741
L774.252 490.303
L774.922 490.717
L775.591 487.607
L776.261 487.607
L776.93 494.035
L777.6 482.423
L777.6 482.423" style="fill:none;stroke:#ff0000;stroke-linecap:square;"/>
   </g>
   <g id="line2d_2">
    <path clip-path="url(#p7ceb695115)" d="
M108 578.223
L108.67 578.016
L109.339 579.053
L110.009 579.882
L110.678 580.504
L111.348 580.919
L112.018 581.541
L112.687 581.748
L113.357 581.541
L114.696 582.371
L115.366 582.371
L116.035 581.956
L116.705 582.578
L117.374 582.993
L118.044 582.785
L118.714 582.371
L119.383 582.993
L120.053 582.578
L120.722 582.578
L121.392 582.785
L122.062 582.578
L122.731 582.993
L123.401 582.785
L124.07 583.2
L124.74 582.785
L125.41 582.785
L126.079 582.993
L126.749 582.993
L127.418 583.2
L128.088 582.785
L129.427 583.2
L130.097 582.993
L130.766 582.993
L131.436 583.2
L134.784 583.2
L135.454 582.993
L136.123 582.993
L136.793 583.2
L137.462 582.993
L141.48 582.993
L142.15 583.2
L142.819 582.993
L144.158 582.993
L144.828 583.2
L442.8 583.2
L443.47 134.266
L444.139 151.062
L444.809 172.835
L445.478 177.189
L446.148 187.764
L446.818 187.35
L447.487 193.985
L448.157 195.852
L448.826 192.326
L449.496 191.497
L450.166 198.962
L450.835 197.925
L451.505 204.975
L452.174 208.708
L452.844 208.915
L453.514 207.464
L454.183 202.487
L454.853 206.427
L455.522 205.597
L456.192 205.39
L456.862 208.708
L457.531 204.146
L458.201 193.778
L458.87 201.45
L459.54 206.634
L460.21 213.27
L460.879 213.892
L461.549 199.377
L462.218 200.828
L462.888 200.828
L463.558 212.233
L464.227 210.159
L464.897 203.731
L465.566 202.902
L466.236 197.925
L466.906 212.648
L467.575 206.427
L468.245 207.878
L468.914 212.855
L469.584 205.183
L470.254 212.855
L470.923 199.377
L472.262 209.745
L473.602 207.464
L474.271 210.159
L474.941 215.758
L475.61 213.892
L476.28 196.888
L476.95 198.962
L477.619 207.464
L478.289 199.377
L478.958 209.952
L479.628 207.878
L480.298 206.427
L480.967 208.708
L481.637 199.791
L482.306 212.233
L482.976 208.5
L483.646 199.999
L484.315 205.183
L484.985 202.28
L485.654 204.975
L486.324 212.648
L486.994 199.999
L487.663 209.745
L488.333 208.708
L489.002 211.818
L489.672 208.5
L490.342 201.036
L491.011 211.611
L491.681 209.745
L492.35 214.721
L493.02 204.975
L493.69 203.316
L494.359 203.731
L495.029 213.684
L495.698 206.427
L496.368 202.694
L497.038 208.708
L497.707 206.842
L498.377 210.159
L499.046 199.377
L499.716 205.39
L500.386 204.353
L501.055 211.196
L501.725 210.989
L502.394 196.888
L503.064 206.012
L503.734 208.086
L504.403 204.975
L505.073 213.062
L505.742 208.708
L506.412 201.036
L507.082 208.915
L507.751 212.233
L508.421 200.828
L509.09 208.293
L509.76 205.805
L510.43 207.878
L511.099 217.832
L511.769 210.989
L512.438 210.989
L513.108 209.952
L513.778 204.561
L514.447 208.708
L515.117 203.731
L515.786 207.671
L516.456 202.694
L517.126 211.196
L517.795 214.307
L518.465 202.902
L519.134 194.607
L519.804 201.865
L520.474 200.413
L521.143 212.44
L521.813 215.965
L522.482 206.427
L523.152 209.123
L523.822 205.597
L524.491 214.721
L525.161 214.099
L525.83 204.146
L526.5 199.169
L527.17 213.062
L527.839 215.136
L528.509 196.059
L529.178 209.952
L529.848 214.721
L530.518 206.22
L531.187 204.768
L531.857 206.427
L532.526 208.708
L533.196 200.621
L533.866 209.123
L534.535 205.597
L535.205 208.5
L535.874 209.33
L536.544 214.721
L537.214 203.939
L537.883 206.634
L538.553 202.072
L539.222 209.33
L539.892 201.036
L540.562 207.464
L541.231 207.256
L541.901 216.173
L542.57 206.634
L543.24 206.842
L543.91 208.086
L544.579 197.303
L545.249 204.561
L545.918 206.012
L546.588 204.561
L547.258 204.561
L547.927 205.39
L548.597 209.952
L549.936 202.487
L550.606 208.086
L551.275 197.718
L551.945 207.049
L552.614 203.109
L553.284 205.39
L553.954 200.413
L554.623 207.671
L555.293 208.086
L555.962 211.611
L556.632 210.367
L557.302 192.326
L557.971 211.818
L558.641 208.086
L559.31 208.5
L559.98 205.39
L560.65 207.049
L561.319 198.132
L561.989 206.427
L562.658 202.487
L563.328 208.915
L563.998 212.233
L564.667 212.026
L565.337 206.842
L566.006 208.293
L566.676 198.547
L567.346 224.675
L568.015 204.975
L568.685 209.745
L569.354 209.952
L570.024 196.266
L570.694 195.852
L571.363 204.353
L572.033 204.146
L572.702 214.099
L573.372 210.159
L574.042 211.196
L574.711 216.173
L575.381 198.132
L576.05 200.828
L576.72 210.781
L577.39 204.353
L578.059 206.22
L578.729 204.146
L579.398 216.588
L580.068 211.818
L580.738 214.721
L581.407 208.086
L582.077 206.634
L582.746 207.878
L583.416 210.989
L584.086 209.123
L584.755 205.805
L585.425 207.256
L586.094 206.842
L586.764 214.514
L587.434 206.22
L588.103 202.902
L588.773 200.621
L589.442 202.487
L590.112 207.256
L590.782 207.256
L591.451 215.758
L592.121 216.588
L592.79 200.413
L593.46 207.671
L594.13 205.183
L594.799 207.464
L595.469 196.266
L596.138 200.206
L596.808 202.072
L597.478 212.44
L598.147 200.206
L598.817 199.791
L599.486 214.307
L600.156 201.658
L600.826 206.012
L601.495 216.588
L602.165 203.731
L602.834 199.999
L603.504 203.524
L604.174 207.878
L604.843 199.169
L606.182 214.099
L606.852 206.012
L607.522 209.33
L608.861 216.795
L609.53 203.316
L610.2 202.28
L610.87 210.367
L611.539 208.5
L612.209 208.293
L612.878 208.708
L613.548 204.561
L614.218 211.611
L614.887 210.781
L615.557 205.597
L616.226 208.293
L616.896 214.929
L617.566 200.621
L618.235 207.464
L618.905 211.818
L619.574 203.731
L620.244 203.109
L620.914 218.246
L621.583 202.694
L622.253 208.5
L622.922 203.316
L623.592 204.353
L624.262 206.842
L624.931 208.293
L625.601 204.975
L626.27 208.708
L626.94 203.731
L627.61 209.123
L628.279 209.537
L628.949 203.524
L629.618 211.196
L630.288 216.588
L630.958 215.343
L631.627 211.611
L632.297 202.072
L632.966 201.865
L633.636 207.878
L634.306 195.644
L634.975 212.026
L635.645 208.5
L636.314 207.671
L636.984 204.146
L637.654 205.39
L638.323 215.551
L638.993 207.671
L639.662 201.658
L640.332 205.39
L641.002 205.805
L642.341 201.658
L643.01 204.975
L644.35 216.588
L645.019 205.805
L645.689 202.902
L647.028 214.099
L647.698 207.878
L648.367 207.464
L649.037 199.999
L649.706 212.648
L650.376 200.828
L651.046 211.611
L651.715 211.404
L652.385 210.574
L653.054 214.721
L653.724 205.39
L654.394 206.842
L655.063 201.036
L655.733 200.206
L656.402 200.413
L657.072 202.072
L657.742 206.427
L658.411 204.768
L659.081 209.33
L659.75 217.002
L660.42 202.072
L661.09 196.474
L661.759 205.805
L662.429 205.805
L663.098 200.828
L663.768 204.561
L664.438 205.597
L665.107 208.915
L665.777 205.597
L666.446 201.45
L667.116 208.086
L667.786 209.537
L668.455 216.588
L669.125 206.427
L669.794 203.939
L670.464 204.561
L671.134 198.547
L671.803 202.072
L672.473 206.22
L673.142 208.915
L673.812 209.745
L674.482 207.878
L675.151 207.878
L675.821 208.293
L676.49 210.574
L677.16 205.805
L677.83 217.417
L679.169 206.427
L679.838 214.307
L680.508 198.755
L681.178 203.524
L681.847 210.574
L682.517 214.099
L683.186 207.878
L683.856 205.597
L684.526 205.39
L685.195 216.38
L685.865 210.781
L687.204 197.925
L687.874 213.477
L688.543 210.159
L689.213 200.413
L689.882 209.745
L690.552 200.206
L691.222 195.852
L691.891 199.584
L692.561 213.27
L693.23 206.427
L693.9 209.537
L694.57 209.33
L695.239 201.45
L695.909 210.159
L696.578 212.026
L697.248 204.975
L697.918 212.648
L698.587 204.768
L699.257 209.952
L699.926 196.266
L700.596 208.915
L701.266 206.634
L701.935 211.818
L702.605 201.036
L703.274 208.5
L703.944 213.062
L704.614 192.326
L705.283 206.427
L705.953 202.694
L706.622 206.634
L707.292 209.745
L708.631 204.146
L709.301 214.929
L709.97 205.597
L710.64 207.878
L711.31 208.293
L711.979 214.929
L712.649 212.233
L713.318 202.072
L713.988 211.818
L714.658 205.597
L715.327 201.865
L715.997 214.721
L716.666 209.537
L717.336 205.805
L718.006 208.086
L718.675 203.524
L719.345 209.952
L720.014 193.156
L721.354 213.892
L722.023 195.022
L722.693 206.427
L723.362 207.464
L724.032 209.952
L724.702 202.694
L725.371 202.487
L726.041 210.574
L726.71 212.233
L727.38 211.404
L728.05 212.44
L728.719 200.413
L729.389 199.791
L730.058 200.621
L730.728 207.256
L731.398 204.975
L732.067 211.196
L732.737 212.026
L733.406 202.902
L734.076 201.036
L734.746 206.842
L735.415 211.611
L736.085 206.22
L736.754 207.878
L737.424 199.169
L738.763 205.39
L739.433 210.367
L740.102 205.39
L740.772 205.805
L741.442 213.062
L742.111 203.316
L742.781 202.487
L743.45 213.892
L744.79 212.648
L745.459 205.39
L746.129 201.658
L746.798 203.939
L747.468 202.694
L748.138 204.561
L748.807 204.146
L749.477 210.367
L750.146 203.316
L750.816 206.22
L751.486 219.905
L752.155 206.22
L752.825 202.072
L753.494 207.464
L754.164 210.989
L754.834 198.755
L755.503 215.758
L756.173 208.086
L756.842 206.22
L757.512 202.694
L758.182 203.939
L758.851 207.878
L759.521 204.146
L760.86 207.671
L761.53 211.404
L762.199 218.661
L762.869 213.477
L763.538 210.574
L764.208 204.561
L764.878 213.684
L765.547 200.413
L766.217 208.293
L766.886 196.474
L768.895 218.661
L769.565 209.952
L770.234 214.099
L770.904 215.136
L771.574 198.34
L772.243 217.417
L772.913 209.123
L773.582 211.611
L774.252 206.842
L774.922 204.561
L775.591 203.731
L776.261 204.146
L776.93 206.842
L777.6 216.173
L777.6 216.173" style="fill:none;stroke:#008000;stroke-linecap:square;"/>
   </g>
   <g id="line2d_3">
    <path clip-path="url(#p7ceb695115)" d="
M108 581.956
L108.67 582.578
L109.339 582.785
L110.009 582.371
L110.678 582.785
L111.348 582.785
L112.018 582.371
L112.687 582.578
L113.357 582.993
L114.026 582.785
L114.696 582.785
L115.366 582.993
L116.035 582.993
L116.705 582.785
L117.374 582.993
L119.383 582.993
L120.053 583.2
L123.401 583.2
L124.07 582.993
L124.74 583.2
L125.41 583.2
L126.079 582.993
L126.749 583.2
L127.418 582.993
L128.088 583.2
L134.114 583.2
L134.784 582.993
L135.454 583.2
L442.8 583.2
L443.47 478.483
L444.139 480.764
L444.809 479.105
L445.478 479.727
L446.148 481.179
L446.818 482.216
L447.487 489.681
L448.157 492.169
L448.826 489.266
L449.496 492.998
L450.166 492.584
L450.835 489.888
L451.505 487.814
L452.174 488.436
L452.844 484.911
L453.514 486.57
L454.183 490.717
L454.853 492.376
L455.522 488.436
L456.192 489.266
L456.862 487.192
L457.531 482.838
L458.201 492.584
L458.87 492.376
L459.54 494.243
L460.21 487.192
L460.879 482.838
L461.549 490.51
L462.218 489.888
L463.558 484.082
L464.227 479.935
L464.897 496.316
L465.566 485.741
L466.236 495.072
L466.906 490.303
L467.575 491.34
L468.245 487.607
L468.914 488.851
L469.584 495.487
L470.254 483.252
L470.923 496.524
L471.593 490.717
L472.262 486.363
L472.932 485.326
L473.602 489.681
L474.271 485.741
L474.941 486.57
L475.61 485.948
L476.28 489.888
L476.95 495.487
L477.619 488.022
L478.289 489.473
L478.958 488.229
L479.628 486.363
L480.298 490.303
L480.967 487.814
L481.637 488.851
L482.306 488.851
L482.976 487.4
L483.646 489.473
L484.315 488.644
L484.985 491.34
L485.654 486.57
L486.324 490.51
L486.994 492.584
L487.663 488.851
L488.333 489.059
L489.002 485.741
L489.672 485.948
L490.342 494.243
L491.011 493.828
L492.35 483.46
L493.02 486.985
L493.69 489.266
L494.359 494.45
L495.029 482.423
L495.698 492.791
L496.368 490.303
L497.038 484.911
L497.707 486.57
L498.377 493.206
L499.046 491.547
L499.716 480.972
L500.386 490.51
L501.055 485.326
L501.725 491.547
L502.394 489.888
L503.064 490.303
L503.734 488.022
L504.403 489.681
L505.073 483.252
L505.742 489.266
L506.412 489.473
L507.082 491.34
L507.751 487.607
L508.421 494.657
L509.09 490.51
L509.76 489.888
L510.43 490.925
L511.099 483.875
L511.769 488.436
L512.438 488.644
L513.108 489.681
L513.778 486.778
L514.447 490.925
L515.117 492.376
L515.786 492.998
L516.456 491.547
L517.126 489.059
L517.795 491.547
L518.465 492.169
L519.134 497.768
L519.804 496.731
L520.474 496.731
L521.143 486.57
L521.813 481.594
L522.482 488.229
L523.152 488.229
L523.822 490.717
L524.491 484.289
L525.161 485.533
L525.83 491.547
L526.5 491.34
L527.17 490.51
L527.839 488.229
L528.509 493.62
L529.178 483.252
L529.848 484.497
L530.518 488.229
L531.187 489.681
L531.857 490.51
L532.526 494.035
L533.196 489.059
L533.866 491.34
L534.535 489.266
L535.874 484.082
L536.544 483.045
L537.214 488.229
L537.883 482.838
L538.553 496.316
L539.222 488.436
L539.892 492.791
L540.562 486.363
L541.231 484.704
L541.901 484.704
L542.57 485.533
L543.24 490.303
L543.91 485.533
L544.579 492.169
L545.249 491.132
L545.918 485.533
L546.588 490.303
L547.258 491.754
L547.927 489.473
L548.597 489.473
L549.266 484.082
L549.936 494.657
L550.606 494.657
L551.275 487.192
L551.945 489.266
L552.614 494.45
L553.284 489.059
L553.954 490.51
L554.623 487.607
L555.293 484.082
L555.962 481.594
L556.632 482.216
L557.302 494.657
L557.971 486.778
L559.31 494.865
L559.98 490.51
L560.65 490.303
L561.319 495.279
L561.989 489.681
L562.658 491.132
L563.328 487.192
L563.998 484.497
L564.667 488.436
L565.337 495.279
L566.006 489.888
L566.676 492.998
L567.346 480.972
L568.015 491.547
L568.685 489.888
L569.354 482.216
L570.024 492.998
L570.694 496.109
L571.363 495.694
L572.033 492.376
L572.702 492.169
L573.372 488.022
L574.042 488.436
L574.711 492.376
L575.381 491.962
L576.05 485.948
L576.72 490.51
L577.39 488.436
L578.059 489.681
L578.729 489.888
L579.398 483.045
L580.738 494.243
L581.407 488.436
L582.077 485.119
L582.746 489.681
L584.086 485.948
L584.755 488.644
L585.425 493.62
L586.094 487.814
L586.764 485.119
L587.434 490.303
L588.103 489.888
L590.112 486.363
L590.782 485.326
L591.451 485.741
L592.121 480.764
L592.79 491.547
L593.46 485.948
L594.13 487.607
L594.799 493.206
L595.469 485.741
L596.138 492.584
L596.808 496.524
L597.478 488.644
L598.147 496.316
L598.817 492.998
L599.486 483.045
L600.156 496.524
L600.826 489.473
L601.495 488.436
L602.165 493.62
L602.834 493.62
L603.504 489.059
L604.174 490.303
L604.843 488.644
L605.513 496.938
L606.182 485.119
L606.852 488.644
L607.522 491.34
L608.191 486.778
L608.861 484.497
L609.53 499.841
L610.2 494.865
L610.87 483.667
L611.539 490.717
L612.209 488.851
L612.878 492.998
L613.548 484.911
L614.218 491.754
L614.887 488.644
L615.557 489.888
L616.226 488.644
L616.896 488.022
L617.566 488.644
L618.235 489.888
L618.905 486.363
L619.574 494.865
L620.244 487.607
L620.914 481.594
L621.583 488.229
L622.253 484.704
L622.922 492.584
L623.592 489.473
L624.262 493.62
L624.931 490.095
L625.601 496.316
L626.27 488.436
L626.94 498.39
L627.61 481.386
L628.279 485.119
L628.949 498.804
L629.618 485.119
L630.288 484.911
L630.958 485.326
L631.627 479.727
L632.297 488.851
L632.966 494.035
L633.636 488.644
L634.306 493.62
L634.975 485.948
L635.645 486.57
L636.314 491.962
L636.984 494.865
L637.654 493.413
L638.323 488.851
L638.993 486.985
L639.662 491.34
L640.332 487.607
L641.002 486.985
L642.341 490.51
L643.01 498.597
L643.68 481.179
L644.35 488.644
L645.019 491.962
L645.689 499.012
L646.358 491.547
L647.028 485.948
L647.698 494.243
L648.367 491.962
L649.037 494.035
L649.706 481.801
L650.376 496.316
L651.046 486.778
L651.715 485.533
L652.385 488.436
L653.054 486.156
L653.724 489.473
L654.394 490.925
L655.063 491.132
L655.733 490.717
L656.402 489.888
L657.072 491.962
L657.742 487.607
L658.411 490.925
L659.081 492.998
L659.75 484.082
L660.42 491.962
L661.09 490.717
L661.759 484.704
L662.429 489.473
L663.098 487.814
L663.768 490.925
L664.438 489.266
L665.107 489.473
L665.777 497.146
L666.446 492.169
L667.116 491.34
L667.786 489.266
L668.455 489.681
L669.125 486.363
L670.464 492.584
L671.134 498.39
L671.803 494.657
L672.473 489.473
L673.142 490.303
L673.812 482.216
L674.482 488.644
L675.151 483.252
L675.821 487.814
L676.49 489.266
L677.16 488.851
L677.83 488.229
L678.499 487.4
L679.169 489.681
L679.838 484.704
L680.508 491.34
L681.178 501.915
L681.847 482.63
L682.517 484.704
L683.186 478.691
L683.856 490.303
L684.526 495.694
L685.195 486.778
L685.865 482.216
L686.534 497.768
L687.204 494.657
L687.874 487.814
L688.543 488.229
L689.213 491.754
L689.882 482.008
L690.552 495.694
L691.222 497.146
L691.891 495.694
L692.561 487.814
L693.23 489.681
L693.9 488.436
L694.57 487.814
L695.239 490.717
L695.909 485.119
L696.578 490.51
L697.248 485.326
L697.918 490.095
L698.587 487.192
L699.257 489.473
L699.926 490.51
L700.596 481.801
L701.266 488.229
L701.935 484.082
L702.605 494.657
L703.274 489.681
L703.944 485.741
L704.614 494.45
L705.283 491.132
L705.953 489.681
L706.622 489.888
L707.292 489.059
L707.962 489.473
L708.631 497.768
L709.301 487.192
L709.97 491.34
L710.64 491.962
L711.31 484.289
L711.979 484.289
L712.649 489.266
L713.318 490.51
L713.988 485.326
L714.658 485.948
L715.327 491.132
L715.997 483.667
L716.666 487.607
L717.336 488.436
L718.006 489.888
L718.675 492.791
L719.345 486.778
L720.014 497.768
L720.684 491.132
L721.354 486.778
L722.023 495.901
L722.693 492.584
L723.362 488.436
L724.032 485.326
L724.702 496.316
L725.371 497.56
L726.041 490.303
L726.71 485.948
L727.38 488.644
L728.05 484.704
L728.719 494.657
L729.389 495.279
L730.058 489.888
L730.728 493.62
L731.398 495.072
L732.067 487.607
L732.737 485.119
L733.406 492.169
L734.076 488.229
L734.746 490.303
L735.415 489.473
L736.085 487.814
L736.754 490.303
L737.424 496.316
L738.094 490.925
L738.763 494.45
L739.433 488.644
L740.102 489.266
L740.772 492.376
L741.442 486.985
L742.111 496.524
L742.781 491.962
L743.45 485.326
L744.12 486.778
L744.79 483.46
L745.459 486.985
L746.129 489.266
L746.798 495.487
L747.468 486.57
L748.138 488.436
L748.807 488.022
L749.477 488.229
L750.146 492.584
L750.816 489.266
L751.486 486.57
L752.155 488.022
L752.825 493.62
L753.494 492.791
L754.164 488.436
L754.834 494.45
L755.503 486.363
L756.173 486.778
L756.842 492.998
L757.512 490.095
L758.182 487.814
L758.851 486.57
L759.521 489.888
L760.19 489.888
L760.86 490.51
L761.53 485.948
L762.199 486.363
L762.869 478.483
L763.538 486.363
L764.208 490.51
L764.878 483.875
L765.547 494.45
L766.217 489.888
L766.886 492.584
L767.556 489.473
L768.226 489.059
L768.895 485.533
L769.565 487.607
L770.234 494.035
L770.904 483.875
L771.574 497.146
L772.243 485.741
L772.913 491.34
L773.582 487.814
L774.252 488.022
L774.922 489.888
L775.591 493.828
L776.261 493.413
L776.93 484.289
L777.6 486.57
L777.6 486.57" style="fill:none;stroke:#0000ff;stroke-linecap:square;"/>
   </g>
   <g id="patch_3">
    <path d="
M108 583.2
L777.6 583.2" style="fill:none;stroke:#000000;stroke-linecap:square;stroke-linejoin:miter;"/>
   </g>
   <g id="patch_4">
    <path d="
M777.6 583.2
L777.6 64.8" style="fill:none;stroke:#000000;stroke-linecap:square;stroke-linejoin:miter;"/>
   </g>
   <g id="patch_5">
    <path d="
M108 64.8
L777.6 64.8" style="fill:none;stroke:#000000;stroke-linecap:square;stroke-linejoin:miter;"/>
   </g>
   <g id="patch_6">
    <path d="
M108 583.2
L108 64.8" style="fill:none;stroke:#000000;stroke-linecap:square;stroke-linejoin:miter;"/>
   </g>
   <g id="matplotlib.axis_1">
    <g id="xtick_1">
     <g id="line2d_4">
      <defs>
       <path d="
M0 0
L0 -4" id="mc7db9fdffb" style="stroke:#000000;stroke-width:0.5;"/>
      </defs>
      <g>
       <use style="stroke:#000000;stroke-width:0.5;" x="108.0" xlink:href="#mc7db9fdffb" y="583.2"/>
      </g>
     </g>
     <g id="line2d_5">
      <defs>
       <path d="
M0 0
L0 4" id="m5a7d422ac3" style="stroke:#000000;stroke-width:0.5;"/>
      </defs>
      <g>
       <use style="stroke:#000000;stroke-width:0.5;" x="108.0" xlink:href="#m5a7d422ac3" y="64.8"/>
      </g>
     </g>
     <g id="text_1">
      <!-- 0 -->
      <defs>
       <path d="
M31.7812 66.4062
Q24.1719 66.4062 20.3281 58.9062
Q16.5 51.4219 16.5 36.375
Q16.5 21.3906 20.3281 13.8906
Q24.1719 6.39062 31.7812 6.39062
Q39.4531 6.39062 43.2812 13.8906
Q47.125 21.3906 47.125 36.375
Q47.125 51.4219 43.2812 58.9062
Q39.4531 66.4062 31.7812 66.4062
M31.7812 74.2188
Q44.0469 74.2188 50.5156 64.5156
Q56.9844 54.8281 56.9844 36.375
Q56.9844 17.9688 50.5156 8.26562
Q44.0469 -1.42188 31.7812 -1.42188
Q19.5312 -1.42188 13.0625 8.26562
Q6.59375 17.9688 6.59375 36.375
Q6.59375 54.8281 13.0625 64.5156
Q19.5312 74.2188 31.7812 74.2188" id="BitstreamVeraSans-Roman-30"/>
      </defs>
      <g transform="translate(104.9765625 596.318125)scale(0.12 -0.12)">
       <use xlink:href="#BitstreamVeraSans-Roman-30"/>
      </g>
     </g>
    </g>
    <g id="xtick_2">
     <g id="line2d_6">
      <g>
       <use style="stroke:#000000;stroke-width:0.5;" x="275.4" xlink:href="#mc7db9fdffb" y="583.2"/>
      </g>
     </g>
     <g id="line2d_7">
      <g>
       <use style="stroke:#000000;stroke-width:0.5;" x="275.4" xlink:href="#m5a7d422ac3" y="64.8"/>
      </g>
     </g>
     <g id="text_2">
      <!-- 50000 -->
      <defs>
       <path d="
M10.7969 72.9062
L49.5156 72.9062
L49.5156 64.5938
L19.8281 64.5938
L19.8281 46.7344
Q21.9688 47.4688 24.1094 47.8281
Q26.2656 48.1875 28.4219 48.1875
Q40.625 48.1875 47.75 41.5
Q54.8906 34.8125 54.8906 23.3906
Q54.8906 11.625 47.5625 5.09375
Q40.2344 -1.42188 26.9062 -1.42188
Q22.3125 -1.42188 17.5469 -0.640625
Q12.7969 0.140625 7.71875 1.70312
L7.71875 11.625
Q12.1094 9.23438 16.7969 8.0625
Q21.4844 6.89062 26.7031 6.89062
Q35.1562 6.89062 40.0781 11.3281
Q45.0156 15.7656 45.0156 23.3906
Q45.0156 31 40.0781 35.4375
Q35.1562 39.8906 26.7031 39.8906
Q22.75 39.8906 18.8125 39.0156
Q14.8906 38.1406 10.7969 36.2812
z
" id="BitstreamVeraSans-Roman-35"/>
      </defs>
      <g transform="translate(257.1740625 596.318125)scale(0.12 -0.12)">
       <use xlink:href="#BitstreamVeraSans-Roman-35"/>
       <use x="63.623046875" xlink:href="#BitstreamVeraSans-Roman-30"/>
       <use x="127.24609375" xlink:href="#BitstreamVeraSans-Roman-30"/>
       <use x="190.869140625" xlink:href="#BitstreamVeraSans-Roman-30"/>
       <use x="254.4921875" xlink:href="#BitstreamVeraSans-Roman-30"/>
      </g>
     </g>
    </g>
    <g id="xtick_3">
     <g id="line2d_8">
      <g>
       <use style="stroke:#000000;stroke-width:0.5;" x="442.8" xlink:href="#mc7db9fdffb" y="583.2"/>
      </g>
     </g>
     <g id="line2d_9">
      <g>
       <use style="stroke:#000000;stroke-width:0.5;" x="442.8" xlink:href="#m5a7d422ac3" y="64.8"/>
      </g>
     </g>
     <g id="text_3">
      <!-- 100000 -->
      <defs>
       <path d="
M12.4062 8.29688
L28.5156 8.29688
L28.5156 63.9219
L10.9844 60.4062
L10.9844 69.3906
L28.4219 72.9062
L38.2812 72.9062
L38.2812 8.29688
L54.3906 8.29688
L54.3906 0
L12.4062 0
z
" id="BitstreamVeraSans-Roman-31"/>
      </defs>
      <g transform="translate(420.9525 596.318125)scale(0.12 -0.12)">
       <use xlink:href="#BitstreamVeraSans-Roman-31"/>
       <use x="63.623046875" xlink:href="#BitstreamVeraSans-Roman-30"/>
       <use x="127.24609375" xlink:href="#BitstreamVeraSans-Roman-30"/>
       <use x="190.869140625" xlink:href="#BitstreamVeraSans-Roman-30"/>
       <use x="254.4921875" xlink:href="#BitstreamVeraSans-Roman-30"/>
       <use x="318.115234375" xlink:href="#BitstreamVeraSans-Roman-30"/>
      </g>
     </g>
    </g>
    <g id="xtick_4">
     <g id="line2d_10">
      <g>
       <use style="stroke:#000000;stroke-width:0.5;" x="610.2" xlink:href="#mc7db9fdffb" y="583.2"/>
      </g>
     </g>
     <g id="line2d_11">
      <g>
       <use style="stroke:#000000;stroke-width:0.5;" x="610.2" xlink:href="#m5a7d422ac3" y="64.8"/>
      </g>
     </g>
     <g id="text_4">
      <!-- 150000 -->
      <g transform="translate(588.3525 596.318125)scale(0.12 -0.12)">
       <use xlink:href="#BitstreamVeraSans-Roman-31"/>
       <use x="63.623046875" xlink:href="#BitstreamVeraSans-Roman-35"/>
       <use x="127.24609375" xlink:href="#BitstreamVeraSans-Roman-30"/>
       <use x="190.869140625" xlink:href="#BitstreamVeraSans-Roman-30"/>
       <use x="254.4921875" xlink:href="#BitstreamVeraSans-Roman-30"/>
       <use x="318.115234375" xlink:href="#BitstreamVeraSans-Roman-30"/>
      </g>
     </g>
    </g>
    <g id="xtick_5">
     <g id="line2d_12">
      <g>
       <use style="stroke:#000000;stroke-width:0.5;" x="777.6" xlink:href="#mc7db9fdffb" y="583.2"/>
      </g>
     </g>
     <g id="line2d_13">
      <g>
       <use style="stroke:#000000;stroke-width:0.5;" x="777.6" xlink:href="#m5a7d422ac3" y="64.8"/>
      </g>
     </g>
     <g id="text_5">
      <!-- 200000 -->
      <defs>
       <path d="
M19.1875 8.29688
L53.6094 8.29688
L53.6094 0
L7.32812 0
L7.32812 8.29688
Q12.9375 14.1094 22.625 23.8906
Q32.3281 33.6875 34.8125 36.5312
Q39.5469 41.8438 41.4219 45.5312
Q43.3125 49.2188 43.3125 52.7812
Q43.3125 58.5938 39.2344 62.25
Q35.1562 65.9219 28.6094 65.9219
Q23.9688 65.9219 18.8125 64.3125
Q13.6719 62.7031 7.8125 59.4219
L7.8125 69.3906
Q13.7656 71.7812 18.9375 73
Q24.125 74.2188 28.4219 74.2188
Q39.75 74.2188 46.4844 68.5469
Q53.2188 62.8906 53.2188 53.4219
Q53.2188 48.9219 51.5312 44.8906
Q49.8594 40.875 45.4062 35.4062
Q44.1875 33.9844 37.6406 27.2188
Q31.1094 20.4531 19.1875 8.29688" id="BitstreamVeraSans-Roman-32"/>
      </defs>
      <g transform="translate(755.533125 596.318125)scale(0.12 -0.12)">
       <use xlink:href="#BitstreamVeraSans-Roman-32"/>
       <use x="63.623046875" xlink:href="#BitstreamVeraSans-Roman-30"/>
       <use x="127.24609375" xlink:href="#BitstreamVeraSans-Roman-30"/>
       <use x="190.869140625" xlink:href="#BitstreamVeraSans-Roman-30"/>
       <use x="254.4921875" xlink:href="#BitstreamVeraSans-Roman-30"/>
       <use x="318.115234375" xlink:href="#BitstreamVeraSans-Roman-30"/>
      </g>
     </g>
    </g>
    <g id="text_6">
     <!-- t / ms -->
     <defs>
      <path d="
M25.3906 72.9062
L33.6875 72.9062
L8.29688 -9.28125
L0 -9.28125
z
" id="BitstreamVeraSans-Roman-2f"/>
      <path d="
M18.3125 70.2188
L18.3125 54.6875
L36.8125 54.6875
L36.8125 47.7031
L18.3125 47.7031
L18.3125 18.0156
Q18.3125 11.3281 20.1406 9.42188
Q21.9688 7.51562 27.5938 7.51562
L36.8125 7.51562
L36.8125 0
L27.5938 0
Q17.1875 0 13.2344 3.875
Q9.28125 7.76562 9.28125 18.0156
L9.28125 47.7031
L2.6875 47.7031
L2.6875 54.6875
L9.28125 54.6875
L9.28125 70.2188
z
" id="BitstreamVeraSans-Roman-74"/>
      <path id="BitstreamVeraSans-Roman-20"/>
      <path d="
M44.2812 53.0781
L44.2812 44.5781
Q40.4844 46.5312 36.375 47.5
Q32.2812 48.4844 27.875 48.4844
Q21.1875 48.4844 17.8438 46.4375
Q14.5 44.3906 14.5 40.2812
Q14.5 37.1562 16.8906 35.375
Q19.2812 33.5938 26.5156 31.9844
L29.5938 31.2969
Q39.1562 29.25 43.1875 25.5156
Q47.2188 21.7812 47.2188 15.0938
Q47.2188 7.46875 41.1875 3.01562
Q35.1562 -1.42188 24.6094 -1.42188
Q20.2188 -1.42188 15.4531 -0.5625
Q10.6875 0.296875 5.42188 2
L5.42188 11.2812
Q10.4062 8.6875 15.2344 7.39062
Q20.0625 6.10938 24.8125 6.10938
Q31.1562 6.10938 34.5625 8.28125
Q37.9844 10.4531 37.9844 14.4062
Q37.9844 18.0625 35.5156 20.0156
Q33.0625 21.9688 24.7031 23.7812
L21.5781 24.5156
Q13.2344 26.2656 9.51562 29.9062
Q5.8125 33.5469 5.8125 39.8906
Q5.8125 47.6094 11.2812 51.7969
Q16.75 56 26.8125 56
Q31.7812 56 36.1719 55.2656
Q40.5781 54.5469 44.2812 53.0781" id="BitstreamVeraSans-Roman-73"/>
      <path d="
M52 44.1875
Q55.375 50.25 60.0625 53.125
Q64.75 56 71.0938 56
Q79.6406 56 84.2812 50.0156
Q88.9219 44.0469 88.9219 33.0156
L88.9219 0
L79.8906 0
L79.8906 32.7188
Q79.8906 40.5781 77.0938 44.375
Q74.3125 48.1875 68.6094 48.1875
Q61.625 48.1875 57.5625 43.5469
Q53.5156 38.9219 53.5156 30.9062
L53.5156 0
L44.4844 0
L44.4844 32.7188
Q44.4844 40.625 41.7031 44.4062
Q38.9219 48.1875 33.1094 48.1875
Q26.2188 48.1875 22.1562 43.5312
Q18.1094 38.875 18.1094 30.9062
L18.1094 0
L9.07812 0
L9.07812 54.6875
L18.1094 54.6875
L18.1094 46.1875
Q21.1875 51.2188 25.4844 53.6094
Q29.7812 56 35.6875 56
Q41.6562 56 45.8281 52.9688
Q50 49.9531 52 44.1875" id="BitstreamVeraSans-Roman-6d"/>
     </defs>
     <g transform="translate(425.9353125 612.931875)scale(0.12 -0.12)">
      <use xlink:href="#BitstreamVeraSans-Roman-74"/>
      <use x="39.208984375" xlink:href="#BitstreamVeraSans-Roman-20"/>
      <use x="70.99609375" xlink:href="#BitstreamVeraSans-Roman-2f"/>
      <use x="104.6875" xlink:href="#BitstreamVeraSans-Roman-20"/>
      <use x="136.474609375" xlink:href="#BitstreamVeraSans-Roman-6d"/>
      <use x="233.88671875" xlink:href="#BitstreamVeraSans-Roman-73"/>
     </g>
    </g>
   </g>
   <g id="matplotlib.axis_2">
    <g id="ytick_1">
     <g id="line2d_14">
      <defs>
       <path d="
M0 0
L4 0" id="md7965d1ba0" style="stroke:#000000;stroke-width:0.5;"/>
      </defs>
      <g>
       <use style="stroke:#000000;stroke-width:0.5;" x="108.0" xlink:href="#md7965d1ba0" y="583.2"/>
      </g>
     </g>
     <g id="line2d_15">
      <defs>
       <path d="
M0 0
L-4 0" id="md9a1c1a7cd" style="stroke:#000000;stroke-width:0.5;"/>
      </defs>
      <g>
       <use style="stroke:#000000;stroke-width:0.5;" x="777.6" xlink:href="#md9a1c1a7cd" y="583.2"/>
      </g>
     </g>
     <g id="text_7">
      <!-- 0 -->
      <g transform="translate(97.953125 586.51125)scale(0.12 -0.12)">
       <use xlink:href="#BitstreamVeraSans-Roman-30"/>
      </g>
     </g>
    </g>
    <g id="ytick_2">
     <g id="line2d_16">
      <g>
       <use style="stroke:#000000;stroke-width:0.5;" x="108.0" xlink:href="#md7965d1ba0" y="479.52"/>
      </g>
     </g>
     <g id="line2d_17">
      <g>
       <use style="stroke:#000000;stroke-width:0.5;" x="777.6" xlink:href="#md9a1c1a7cd" y="479.52"/>
      </g>
     </g>
     <g id="text_8">
      <!-- 500 -->
      <g transform="translate(82.818125 482.83125)scale(0.12 -0.12)">
       <use xlink:href="#BitstreamVeraSans-Roman-35"/>
       <use x="63.623046875" xlink:href="#BitstreamVeraSans-Roman-30"/>
       <use x="127.24609375" xlink:href="#BitstreamVeraSans-Roman-30"/>
      </g>
     </g>
    </g>
    <g id="ytick_3">
     <g id="line2d_18">
      <g>
       <use style="stroke:#000000;stroke-width:0.5;" x="108.0" xlink:href="#md7965d1ba0" y="375.84"/>
      </g>
     </g>
     <g id="line2d_19">
      <g>
       <use style="stroke:#000000;stroke-width:0.5;" x="777.6" xlink:href="#md9a1c1a7cd" y="375.84"/>
      </g>
     </g>
     <g id="text_9">
      <!-- 1000 -->
      <g transform="translate(75.575 379.15125)scale(0.12 -0.12)">
       <use xlink:href="#BitstreamVeraSans-Roman-31"/>
       <use x="63.623046875" xlink:href="#BitstreamVeraSans-Roman-30"/>
       <use x="127.24609375" xlink:href="#BitstreamVeraSans-Roman-30"/>
       <use x="190.869140625" xlink:href="#BitstreamVeraSans-Roman-30"/>
      </g>
     </g>
    </g>
    <g id="ytick_4">
     <g id="line2d_20">
      <g>
       <use style="stroke:#000000;stroke-width:0.5;" x="108.0" xlink:href="#md7965d1ba0" y="272.16"/>
      </g>
     </g>
     <g id="line2d_21">
      <g>
       <use style="stroke:#000000;stroke-width:0.5;" x="777.6" xlink:href="#md9a1c1a7cd" y="272.16"/>
      </g>
     </g>
     <g id="text_10">
      <!-- 1500 -->
      <g transform="translate(75.575 275.47125)scale(0.12 -0.12)">
       <use xlink:href="#BitstreamVeraSans-Roman-31"/>
       <use x="63.623046875" xlink:href="#BitstreamVeraSans-Roman-35"/>
       <use x="127.24609375" xlink:href="#BitstreamVeraSans-Roman-30"/>
       <use x="190.869140625" xlink:href="#BitstreamVeraSans-Roman-30"/>
      </g>
     </g>
    </g>
    <g id="ytick_5">
     <g id="line2d_22">
      <g>
       <use style="stroke:#000000;stroke-width:0.5;" x="108.0" xlink:href="#md7965d1ba0" y="168.48"/>
      </g>
     </g>
     <g id="line2d_23">
      <g>
       <use style="stroke:#000000;stroke-width:0.5;" x="777.6" xlink:href="#md9a1c1a7cd" y="168.48"/>
      </g>
     </g>
     <g id="text_11">
      <!-- 2000 -->
      <g transform="translate(75.13625 171.79125)scale(0.12 -0.12)">
       <use xlink:href="#BitstreamVeraSans-Roman-32"/>
       <use x="63.623046875" xlink:href="#BitstreamVeraSans-Roman-30"/>
       <use x="127.24609375" xlink:href="#BitstreamVeraSans-Roman-30"/>
       <use x="190.869140625" xlink:href="#BitstreamVeraSans-Roman-30"/>
      </g>
     </g>
    </g>
    <g id="ytick_6">
     <g id="line2d_24">
      <g>
       <use style="stroke:#000000;stroke-width:0.5;" x="108.0" xlink:href="#md7965d1ba0" y="64.8"/>
      </g>
     </g>
     <g id="line2d_25">
      <g>
       <use style="stroke:#000000;stroke-width:0.5;" x="777.6" xlink:href="#md9a1c1a7cd" y="64.8"/>
      </g>
     </g>
     <g id="text_12">
      <!-- 2500 -->
      <g transform="translate(75.13625 68.11125)scale(0.12 -0.12)">
       <use xlink:href="#BitstreamVeraSans-Roman-32"/>
       <use x="63.623046875" xlink:href="#BitstreamVeraSans-Roman-35"/>
       <use x="127.24609375" xlink:href="#BitstreamVeraSans-Roman-30"/>
       <use x="190.869140625" xlink:href="#BitstreamVeraSans-Roman-30"/>
      </g>
     </g>
    </g>
    <g id="text_13">
     <!-- particle numbers -->
     <defs>
      <path d="
M34.2812 27.4844
Q23.3906 27.4844 19.1875 25
Q14.9844 22.5156 14.9844 16.5
Q14.9844 11.7188 18.1406 8.90625
Q21.2969 6.10938 26.7031 6.10938
Q34.1875 6.10938 38.7031 11.4062
Q43.2188 16.7031 43.2188 25.4844
L43.2188 27.4844
z

M52.2031 31.2031
L52.2031 0
L43.2188 0
L43.2188 8.29688
Q40.1406 3.32812 35.5469 0.953125
Q30.9531 -1.42188 24.3125 -1.42188
Q15.9219 -1.42188 10.9531 3.29688
Q6 8.01562 6 15.9219
Q6 25.1406 12.1719 29.8281
Q18.3594 34.5156 30.6094 34.5156
L43.2188 34.5156
L43.2188 35.4062
Q43.2188 41.6094 39.1406 45
Q35.0625 48.3906 27.6875 48.3906
Q23 48.3906 18.5469 47.2656
Q14.1094 46.1406 10.0156 43.8906
L10.0156 52.2031
Q14.9375 54.1094 19.5781 55.0469
Q24.2188 56 28.6094 56
Q40.4844 56 46.3438 49.8438
Q52.2031 43.7031 52.2031 31.2031" id="BitstreamVeraSans-Roman-61"/>
      <path d="
M56.2031 29.5938
L56.2031 25.2031
L14.8906 25.2031
Q15.4844 15.9219 20.4844 11.0625
Q25.4844 6.20312 34.4219 6.20312
Q39.5938 6.20312 44.4531 7.46875
Q49.3125 8.73438 54.1094 11.2812
L54.1094 2.78125
Q49.2656 0.734375 44.1875 -0.34375
Q39.1094 -1.42188 33.8906 -1.42188
Q20.7969 -1.42188 13.1562 6.1875
Q5.51562 13.8125 5.51562 26.8125
Q5.51562 40.2344 12.7656 48.1094
Q20.0156 56 32.3281 56
Q43.3594 56 49.7812 48.8906
Q56.2031 41.7969 56.2031 29.5938
M47.2188 32.2344
Q47.125 39.5938 43.0938 43.9844
Q39.0625 48.3906 32.4219 48.3906
Q24.9062 48.3906 20.3906 44.1406
Q15.875 39.8906 15.1875 32.1719
z
" id="BitstreamVeraSans-Roman-65"/>
      <path d="
M41.1094 46.2969
Q39.5938 47.1719 37.8125 47.5781
Q36.0312 48 33.8906 48
Q26.2656 48 22.1875 43.0469
Q18.1094 38.0938 18.1094 28.8125
L18.1094 0
L9.07812 0
L9.07812 54.6875
L18.1094 54.6875
L18.1094 46.1875
Q20.9531 51.1719 25.4844 53.5781
Q30.0312 56 36.5312 56
Q37.4531 56 38.5781 55.875
Q39.7031 55.7656 41.0625 55.5156
z
" id="BitstreamVeraSans-Roman-72"/>
      <path d="
M8.5 21.5781
L8.5 54.6875
L17.4844 54.6875
L17.4844 21.9219
Q17.4844 14.1562 20.5 10.2656
Q23.5312 6.39062 29.5938 6.39062
Q36.8594 6.39062 41.0781 11.0312
Q45.3125 15.6719 45.3125 23.6875
L45.3125 54.6875
L54.2969 54.6875
L54.2969 0
L45.3125 0
L45.3125 8.40625
Q42.0469 3.42188 37.7188 1
Q33.4062 -1.42188 27.6875 -1.42188
Q18.2656 -1.42188 13.375 4.4375
Q8.5 10.2969 8.5 21.5781" id="BitstreamVeraSans-Roman-75"/>
      <path d="
M9.42188 75.9844
L18.4062 75.9844
L18.4062 0
L9.42188 0
z
" id="BitstreamVeraSans-Roman-6c"/>
      <path d="
M48.7812 52.5938
L48.7812 44.1875
Q44.9688 46.2969 41.1406 47.3438
Q37.3125 48.3906 33.4062 48.3906
Q24.6562 48.3906 19.8125 42.8438
Q14.9844 37.3125 14.9844 27.2969
Q14.9844 17.2812 19.8125 11.7344
Q24.6562 6.20312 33.4062 6.20312
Q37.3125 6.20312 41.1406 7.25
Q44.9688 8.29688 48.7812 10.4062
L48.7812 2.09375
Q45.0156 0.34375 40.9844 -0.53125
Q36.9688 -1.42188 32.4219 -1.42188
Q20.0625 -1.42188 12.7812 6.34375
Q5.51562 14.1094 5.51562 27.2969
Q5.51562 40.6719 12.8594 48.3281
Q20.2188 56 33.0156 56
Q37.1562 56 41.1094 55.1406
Q45.0625 54.2969 48.7812 52.5938" id="BitstreamVeraSans-Roman-63"/>
      <path d="
M54.8906 33.0156
L54.8906 0
L45.9062 0
L45.9062 32.7188
Q45.9062 40.4844 42.875 44.3281
Q39.8438 48.1875 33.7969 48.1875
Q26.5156 48.1875 22.3125 43.5469
Q18.1094 38.9219 18.1094 30.9062
L18.1094 0
L9.07812 0
L9.07812 54.6875
L18.1094 54.6875
L18.1094 46.1875
Q21.3438 51.125 25.7031 53.5625
Q30.0781 56 35.7969 56
Q45.2188 56 50.0469 50.1719
Q54.8906 44.3438 54.8906 33.0156" id="BitstreamVeraSans-Roman-6e"/>
      <path d="
M18.1094 8.20312
L18.1094 -20.7969
L9.07812 -20.7969
L9.07812 54.6875
L18.1094 54.6875
L18.1094 46.3906
Q20.9531 51.2656 25.2656 53.625
Q29.5938 56 35.5938 56
Q45.5625 56 51.7812 48.0938
Q58.0156 40.1875 58.0156 27.2969
Q58.0156 14.4062 51.7812 6.48438
Q45.5625 -1.42188 35.5938 -1.42188
Q29.5938 -1.42188 25.2656 0.953125
Q20.9531 3.32812 18.1094 8.20312
M48.6875 27.2969
Q48.6875 37.2031 44.6094 42.8438
Q40.5312 48.4844 33.4062 48.4844
Q26.2656 48.4844 22.1875 42.8438
Q18.1094 37.2031 18.1094 27.2969
Q18.1094 17.3906 22.1875 11.75
Q26.2656 6.10938 33.4062 6.10938
Q40.5312 6.10938 44.6094 11.75
Q48.6875 17.3906 48.6875 27.2969" id="BitstreamVeraSans-Roman-70"/>
      <path d="
M9.42188 54.6875
L18.4062 54.6875
L18.4062 0
L9.42188 0
z

M9.42188 75.9844
L18.4062 75.9844
L18.4062 64.5938
L9.42188 64.5938
z
" id="BitstreamVeraSans-Roman-69"/>
      <path d="
M48.6875 27.2969
Q48.6875 37.2031 44.6094 42.8438
Q40.5312 48.4844 33.4062 48.4844
Q26.2656 48.4844 22.1875 42.8438
Q18.1094 37.2031 18.1094 27.2969
Q18.1094 17.3906 22.1875 11.75
Q26.2656 6.10938 33.4062 6.10938
Q40.5312 6.10938 44.6094 11.75
Q48.6875 17.3906 48.6875 27.2969
M18.1094 46.3906
Q20.9531 51.2656 25.2656 53.625
Q29.5938 56 35.5938 56
Q45.5625 56 51.7812 48.0938
Q58.0156 40.1875 58.0156 27.2969
Q58.0156 14.4062 51.7812 6.48438
Q45.5625 -1.42188 35.5938 -1.42188
Q29.5938 -1.42188 25.2656 0.953125
Q20.9531 3.32812 18.1094 8.20312
L18.1094 0
L9.07812 0
L9.07812 75.9844
L18.1094 75.9844
z
" id="BitstreamVeraSans-Roman-62"/>
     </defs>
     <g transform="translate(67.640625 374.78625)rotate(-90.0)scale(0.12 -0.12)">
      <use xlink:href="#BitstreamVeraSans-Roman-70"/>
      <use x="63.4765625" xlink:href="#BitstreamVeraSans-Roman-61"/>
      <use x="124.755859375" xlink:href="#BitstreamVeraSans-Roman-72"/>
      <use x="165.869140625" xlink:href="#BitstreamVeraSans-Roman-74"/>
      <use x="205.078125" xlink:href="#BitstreamVeraSans-Roman-69"/>
      <use x="232.861328125" xlink:href="#BitstreamVeraSans-Roman-63"/>
      <use x="287.841796875" xlink:href="#BitstreamVeraSans-Roman-6c"/>
      <use x="315.625" xlink:href="#BitstreamVeraSans-Roman-65"/>
      <use x="377.1484375" xlink:href="#BitstreamVeraSans-Roman-20"/>
      <use x="408.935546875" xlink:href="#BitstreamVeraSans-Roman-6e"/>
      <use x="472.314453125" xlink:href="#BitstreamVeraSans-Roman-75"/>
      <use x="535.693359375" xlink:href="#BitstreamVeraSans-Roman-6d"/>
      <use x="633.10546875" xlink:href="#BitstreamVeraSans-Roman-62"/>
      <use x="696.58203125" xlink:href="#BitstreamVeraSans-Roman-65"/>
      <use x="758.10546875" xlink:href="#BitstreamVeraSans-Roman-72"/>
      <use x="799.21875" xlink:href="#BitstreamVeraSans-Roman-73"/>
     </g>
    </g>
   </g>
   <g id="legend_1">
    <g id="patch_7">
     <path d="
M724.53 101.224
L774.1 101.224
L774.1 68.3
L724.53 68.3
z
" style="fill:#ffffff;stroke:#000000;stroke-linejoin:miter;"/>
    </g>
    <g id="line2d_26">
     <path d="
M729.43 73.9689
L739.23 73.9689" style="fill:none;stroke:#ff0000;stroke-linecap:square;"/>
    </g>
    <g id="line2d_27"/>
    <g id="text_14">
     <!-- Da el.0 -->
     <defs>
      <path d="
M19.6719 64.7969
L19.6719 8.10938
L31.5938 8.10938
Q46.6875 8.10938 53.6875 14.9375
Q60.6875 21.7812 60.6875 36.5312
Q60.6875 51.1719 53.6875 57.9844
Q46.6875 64.7969 31.5938 64.7969
z

M9.8125 72.9062
L30.0781 72.9062
Q51.2656 72.9062 61.1719 64.0938
Q71.0938 55.2812 71.0938 36.5312
Q71.0938 17.6719 61.125 8.82812
Q51.1719 0 30.0781 0
L9.8125 0
z
" id="BitstreamVeraSans-Roman-44"/>
      <path d="
M10.6875 12.4062
L21 12.4062
L21 0
L10.6875 0
z
" id="BitstreamVeraSans-Roman-2e"/>
     </defs>
     <g transform="translate(746.93015625 76.41890625)scale(0.07 -0.07)">
      <use xlink:href="#BitstreamVeraSans-Roman-44"/>
      <use x="77.001953125" xlink:href="#BitstreamVeraSans-Roman-61"/>
      <use x="138.28125" xlink:href="#BitstreamVeraSans-Roman-20"/>
      <use x="170.068359375" xlink:href="#BitstreamVeraSans-Roman-65"/>
      <use x="231.591796875" xlink:href="#BitstreamVeraSans-Roman-6c"/>
      <use x="259.375" xlink:href="#BitstreamVeraSans-Roman-2e"/>
      <use x="291.162109375" xlink:href="#BitstreamVeraSans-Roman-30"/>
     </g>
    </g>
    <g id="line2d_28">
     <path d="
M729.43 84.2436
L739.23 84.2436" style="fill:none;stroke:#008000;stroke-linecap:square;"/>
    </g>
    <g id="line2d_29"/>
    <g id="text_15">
     <!-- Da el.1 -->
     <g transform="translate(746.93015625 86.69359375)scale(0.07 -0.07)">
      <use xlink:href="#BitstreamVeraSans-Roman-44"/>
      <use x="77.001953125" xlink:href="#BitstreamVeraSans-Roman-61"/>
      <use x="138.28125" xlink:href="#BitstreamVeraSans-Roman-20"/>
      <use x="170.068359375" xlink:href="#BitstreamVeraSans-Roman-65"/>
      <use x="231.591796875" xlink:href="#BitstreamVeraSans-Roman-6c"/>
      <use x="259.375" xlink:href="#BitstreamVeraSans-Roman-2e"/>
      <use x="291.162109375" xlink:href="#BitstreamVeraSans-Roman-31"/>
     </g>
    </g>
    <g id="line2d_30">
     <path d="
M729.43 94.5183
L739.23 94.5183" style="fill:none;stroke:#0000ff;stroke-linecap:square;"/>
    </g>
    <g id="line2d_31"/>
    <g id="text_16">
     <!-- Da el.2 -->
     <g transform="translate(746.93015625 96.96828125)scale(0.07 -0.07)">
      <use xlink:href="#BitstreamVeraSans-Roman-44"/>
      <use x="77.001953125" xlink:href="#BitstreamVeraSans-Roman-61"/>
      <use x="138.28125" xlink:href="#BitstreamVeraSans-Roman-20"/>
      <use x="170.068359375" xlink:href="#BitstreamVeraSans-Roman-65"/>
      <use x="231.591796875" xlink:href="#BitstreamVeraSans-Roman-6c"/>
      <use x="259.375" xlink:href="#BitstreamVeraSans-Roman-2e"/>
      <use x="291.162109375" xlink:href="#BitstreamVeraSans-Roman-32"/>
     </g>
    </g>
   </g>
  </g>
 </g>
 <defs>
  <clipPath id="p7ceb695115">
   <rect height="518.4" width="669.6" x="108.0" y="64.8"/>
  </clipPath>
 </defs>
</svg>
