<?xml version="1.0" encoding="utf-8" standalone="no"?>
<!DOCTYPE svg PUBLIC "-//W3C//DTD SVG 1.1//EN"
  "http://www.w3.org/Graphics/SVG/1.1/DTD/svg11.dtd">
<!-- Created with matplotlib (http://matplotlib.org/) -->
<svg height="648pt" version="1.1" viewBox="0 0 864 648" width="864pt" xmlns="http://www.w3.org/2000/svg" xmlns:xlink="http://www.w3.org/1999/xlink">
 <defs>
  <style type="text/css">
*{stroke-linecap:butt;stroke-linejoin:round;}
  </style>
 </defs>
 <g id="figure_1">
  <g id="patch_1">
   <path d="
M0 648
L864 648
L864 0
L0 0
z
" style="fill:#ffffff;"/>
  </g>
  <g id="axes_1">
   <g id="patch_2">
    <path d="
M108 583.2
L777.6 583.2
L777.6 64.8
L108 64.8
z
" style="fill:#ffffff;"/>
   </g>
   <g id="line2d_1">
    <path clip-path="url(#p7ceb695115)" d="
M108 581.956
L108.67 582.163
L109.339 582.578
L110.009 581.748
L110.678 581.748
L111.348 582.785
L112.018 582.163
L112.687 582.993
L113.357 582.785
L114.026 582.785
L115.366 583.2
L116.705 582.785
L118.044 582.785
L119.383 583.2
L120.053 583.2
L120.722 582.993
L121.392 583.2
L442.8 583.2
L443.47 468.53
L444.139 477.446
L444.809 482.423
L445.478 480.142
L446.818 487.607
L447.487 488.436
L448.157 489.888
L448.826 490.303
L449.496 488.436
L450.166 494.865
L450.835 486.57
L451.505 499.219
L452.174 485.326
L452.844 496.109
L453.514 486.363
L454.183 487.4
L454.853 490.51
L455.522 491.547
L456.192 491.754
L456.862 489.266
L457.531 496.938
L458.201 490.925
L458.87 495.694
L459.54 488.851
L460.21 486.363
L460.879 494.865
L461.549 490.095
L462.218 496.938
L462.888 482.63
L463.558 495.279
L464.227 495.487
L465.566 490.095
L466.236 488.229
L466.906 494.45
L467.575 487.607
L468.245 488.229
L468.914 482.423
L469.584 497.56
L470.254 495.279
L470.923 483.875
L471.593 483.667
L472.932 495.279
L473.602 475.995
L474.271 495.279
L474.941 494.243
L475.61 493.62
L476.28 497.353
L476.95 489.888
L477.619 490.925
L478.289 490.095
L479.628 493.828
L480.298 491.754
L480.967 495.072
L482.306 493.413
L482.976 501.085
L483.646 493.62
L484.315 498.597
L484.985 492.791
L485.654 491.132
L486.324 494.865
L486.994 484.497
L487.663 495.279
L488.333 490.303
L489.002 489.266
L489.672 498.804
L490.342 488.022
L491.011 488.644
L491.681 495.279
L492.35 493.62
L493.02 490.717
L493.69 484.497
L494.359 493.828
L495.029 491.754
L495.698 489.059
L496.368 496.316
L497.038 489.473
L497.707 492.584
L498.377 494.035
L499.046 490.095
L499.716 491.547
L500.386 494.243
L501.055 487.607
L501.725 485.948
L502.394 488.436
L503.064 492.998
L503.734 486.363
L504.403 491.962
L505.073 486.57
L505.742 489.681
L506.412 494.657
L507.082 495.901
L507.751 489.888
L508.421 488.644
L509.09 486.156
L509.76 489.888
L510.43 488.229
L511.099 492.169
L511.769 498.597
L512.438 492.998
L513.108 490.303
L513.778 489.888
L514.447 491.962
L515.117 487.814
L515.786 486.156
L516.456 488.229
L517.126 495.072
L517.795 489.473
L518.465 492.791
L519.134 491.754
L519.804 490.303
L520.474 484.704
L521.143 490.717
L521.813 491.962
L522.482 491.754
L523.152 496.109
L523.822 490.51
L524.491 488.229
L525.161 496.109
L525.83 493.828
L526.5 487.192
L527.17 488.851
L527.839 498.182
L528.509 491.132
L529.178 490.717
L529.848 490.095
L530.518 492.376
L531.187 487.4
L531.857 492.169
L532.526 488.436
L533.196 488.851
L533.866 492.584
L534.535 490.717
L535.205 499.427
L535.874 497.146
L536.544 487.4
L537.214 485.741
L537.883 492.998
L538.553 492.169
L539.222 490.51
L539.892 497.146
L540.562 491.962
L541.231 484.082
L541.901 496.316
L542.57 495.279
L543.24 490.51
L543.91 488.022
L544.579 499.012
L545.249 488.229
L545.918 495.279
L546.588 478.691
L547.258 494.035
L547.927 486.778
L548.597 486.156
L549.266 489.681
L549.936 490.095
L550.606 492.998
L551.275 496.731
L551.945 483.252
L552.614 488.851
L553.284 489.473
L553.954 492.376
L554.623 497.975
L555.293 493.828
L555.962 487.4
L556.632 492.169
L557.302 486.363
L557.971 492.584
L558.641 492.998
L559.31 495.487
L559.98 485.948
L560.65 486.57
L561.319 484.289
L561.989 497.56
L562.658 496.938
L563.328 492.584
L563.998 490.303
L564.667 493.206
L565.337 490.51
L566.006 492.169
L566.676 483.667
L567.346 486.57
L568.015 491.34
L568.685 489.888
L569.354 486.57
L570.024 496.938
L570.694 493.62
L571.363 485.948
L572.033 486.985
L572.702 489.473
L573.372 499.841
L574.042 490.51
L574.711 491.34
L575.381 483.875
L576.05 493.828
L576.72 493.413
L577.39 491.962
L578.729 493.206
L579.398 490.095
L580.068 492.376
L580.738 487.607
L581.407 490.51
L582.077 490.095
L582.746 491.132
L583.416 486.57
L584.755 491.754
L585.425 489.266
L586.094 486.156
L587.434 493.206
L588.103 498.39
L588.773 485.948
L589.442 496.938
L590.782 488.022
L591.451 487.814
L592.121 489.681
L592.79 483.045
L593.46 491.34
L594.13 489.888
L594.799 493.62
L595.469 488.022
L596.138 493.828
L597.478 488.436
L598.147 491.547
L598.817 484.497
L599.486 494.657
L600.156 500.256
L600.826 488.644
L601.495 488.644
L602.165 486.363
L602.834 494.243
L603.504 489.266
L604.174 494.035
L604.843 494.657
L605.513 491.962
L606.182 490.303
L606.852 498.597
L607.522 500.463
L608.191 481.179
L608.861 492.376
L609.53 485.119
L610.2 486.778
L610.87 493.62
L611.539 491.547
L612.209 492.376
L612.878 484.082
L613.548 485.119
L614.218 489.059
L614.887 494.243
L615.557 494.657
L616.226 485.119
L616.896 488.229
L617.566 488.022
L618.235 494.865
L618.905 493.413
L619.574 495.694
L620.244 499.427
L620.914 487.4
L621.583 488.022
L622.253 495.279
L622.922 495.072
L623.592 487.192
L624.262 483.045
L624.931 494.243
L626.27 488.851
L626.94 487.814
L627.61 491.962
L628.279 494.035
L628.949 490.717
L629.618 498.597
L630.288 496.109
L630.958 487.4
L632.297 496.524
L632.966 492.998
L633.636 496.109
L634.306 495.279
L634.975 490.717
L635.645 492.584
L636.314 495.901
L636.984 483.875
L637.654 495.279
L638.323 485.119
L638.993 480.764
L639.662 488.436
L640.332 487.814
L641.002 495.279
L641.671 487.4
L642.341 490.095
L643.01 492.169
L643.68 495.694
L644.35 491.132
L645.019 483.252
L645.689 493.828
L646.358 490.925
L647.028 490.095
L647.698 493.206
L648.367 490.51
L649.037 493.828
L649.706 484.497
L650.376 492.376
L651.046 495.694
L651.715 494.657
L652.385 494.865
L653.054 499.219
L653.724 496.731
L654.394 498.804
L655.063 493.413
L655.733 485.326
L656.402 489.888
L657.072 488.022
L657.742 489.888
L658.411 488.436
L659.081 492.376
L659.75 497.146
L660.42 497.768
L661.09 497.146
L661.759 493.62
L662.429 489.059
L663.098 485.326
L664.438 491.754
L665.107 489.473
L665.777 492.376
L666.446 492.584
L667.116 491.132
L667.786 499.219
L668.455 489.473
L669.125 489.888
L669.794 492.169
L670.464 490.095
L671.134 490.925
L671.803 486.57
L672.473 493.828
L673.142 490.717
L673.812 492.169
L674.482 484.911
L675.151 492.376
L675.821 495.487
L676.49 489.888
L677.16 494.865
L677.83 488.229
L678.499 486.363
L679.169 490.717
L679.838 483.875
L680.508 489.473
L681.178 496.524
L681.847 489.266
L682.517 486.57
L683.186 488.229
L683.856 494.865
L684.526 500.049
L685.195 494.657
L685.865 494.45
L686.534 492.584
L687.204 492.169
L687.874 492.169
L688.543 488.851
L689.213 494.865
L689.882 490.717
L690.552 495.694
L691.891 489.059
L692.561 486.778
L693.23 495.694
L693.9 495.072
L694.57 490.717
L695.239 490.51
L695.909 490.717
L696.578 491.547
L697.248 490.925
L697.918 489.888
L698.587 495.694
L699.257 490.925
L699.926 491.34
L701.266 495.487
L701.935 492.998
L702.605 489.266
L703.274 497.353
L703.944 488.229
L704.614 488.436
L705.283 495.279
L705.953 486.156
L707.292 487.4
L707.962 485.741
L708.631 491.132
L709.301 492.169
L709.97 491.962
L710.64 491.962
L711.31 493.828
L711.979 482.216
L712.649 490.303
L713.318 492.376
L713.988 492.169
L714.658 491.34
L715.327 498.182
L715.997 489.681
L716.666 499.219
L718.006 492.169
L718.675 496.524
L719.345 490.925
L720.014 497.353
L720.684 485.326
L721.354 492.791
L722.023 485.741
L722.693 491.962
L723.362 495.694
L724.032 483.875
L724.702 487.607
L725.371 492.169
L726.041 486.778
L726.71 496.731
L727.38 500.049
L728.05 486.778
L728.719 496.316
L729.389 492.376
L730.058 490.303
L730.728 495.279
L731.398 488.851
L732.067 480.764
L732.737 488.436
L733.406 491.132
L734.076 489.059
L734.746 489.888
L735.415 485.533
L736.085 493.62
L736.754 489.059
L737.424 487.192
L738.094 491.34
L738.763 485.119
L739.433 489.888
L740.102 488.022
L740.772 496.316
L741.442 489.888
L742.111 488.851
L742.781 486.57
L743.45 494.035
L744.12 489.473
L744.79 489.266
L745.459 489.888
L746.129 499.841
L746.798 492.169
L747.468 489.473
L748.138 487.607
L748.807 496.109
L749.477 485.948
L750.146 494.865
L750.816 488.851
L752.155 484.911
L752.825 490.095
L753.494 498.597
L754.164 493.62
L754.834 492.376
L755.503 493.413
L756.173 489.681
L756.842 488.851
L757.512 491.132
L758.182 492.169
L758.851 494.243
L759.521 496.731
L760.19 486.363
L760.86 491.34
L761.53 488.851
L762.199 496.938
L763.538 490.303
L764.208 488.229
L764.878 490.717
L765.547 490.303
L766.217 489.059
L766.886 486.156
L767.556 486.57
L768.226 493.206
L768.895 488.851
L769.565 485.948
L770.234 484.911
L770.904 483.667
L771.574 492.584
L772.243 494.035
L772.913 494.45
L773.582 495.901
L774.252 492.791
L774.922 490.717
L775.591 485.741
L776.261 491.547
L776.93 490.925
L777.6 491.547
L777.6 491.547" style="fill:none;stroke:#ff0000;stroke-linecap:square;"/>
   </g>
   <g id="line2d_2">
    <path clip-path="url(#p7ceb695115)" d="
M108 578.223
L108.67 579.053
L109.339 579.468
L110.009 580.504
L110.678 581.126
L111.348 580.712
L112.018 582.163
L112.687 581.334
L113.357 581.334
L114.026 580.919
L114.696 581.334
L115.366 581.956
L116.035 582.163
L116.705 582.578
L117.374 582.371
L118.044 582.993
L118.714 582.578
L119.383 582.578
L120.053 582.785
L120.722 583.2
L121.392 582.993
L122.062 583.2
L122.731 582.993
L124.74 582.993
L125.41 583.2
L126.079 582.993
L126.749 582.993
L127.418 583.2
L442.8 583.2
L443.47 148.366
L444.139 162.881
L444.809 185.069
L445.478 185.898
L446.148 195.852
L446.818 192.948
L447.487 206.22
L448.157 203.731
L448.826 209.745
L449.496 211.404
L450.166 208.293
L450.835 214.929
L451.505 206.22
L452.174 220.735
L452.844 209.537
L453.514 210.989
L454.183 211.818
L454.853 216.588
L455.522 213.892
L456.192 214.721
L456.862 213.477
L457.531 206.842
L458.201 213.477
L458.87 216.38
L459.54 210.781
L460.21 221.149
L460.879 209.123
L462.218 214.929
L463.558 213.27
L464.227 214.514
L464.897 211.611
L465.566 218.868
L466.236 221.564
L466.906 217.21
L467.575 216.173
L468.245 217.002
L468.914 223.845
L469.584 212.026
L470.254 218.039
L470.923 219.698
L471.593 219.076
L472.262 212.233
L472.932 208.915
L473.602 226.126
L474.271 210.989
L474.941 215.136
L475.61 213.27
L476.28 202.694
L476.95 226.541
L477.619 218.246
L478.289 217.832
L478.958 206.842
L479.628 210.574
L480.298 215.343
L480.967 204.353
L481.637 212.648
L482.306 211.196
L482.976 206.012
L483.646 211.818
L484.315 211.611
L484.985 213.892
L485.654 221.979
L486.324 213.27
L486.994 223.016
L487.663 209.33
L488.333 211.611
L489.002 207.878
L489.672 199.791
L490.342 217.624
L491.681 210.574
L492.35 214.721
L493.02 213.892
L493.69 215.965
L494.359 214.721
L495.029 215.136
L495.698 219.076
L496.368 205.597
L497.038 208.708
L497.707 213.27
L498.377 210.159
L499.046 211.611
L499.716 216.588
L500.386 217.417
L501.055 216.173
L501.725 223.845
L503.064 218.454
L503.734 220.32
L504.403 212.026
L505.073 217.832
L505.742 206.634
L506.412 211.404
L507.082 212.44
L507.751 214.929
L508.421 220.942
L510.43 214.514
L511.099 215.343
L511.769 201.036
L512.438 218.868
L513.108 213.27
L513.778 212.233
L514.447 214.929
L515.117 213.27
L515.786 213.684
L516.456 219.698
L517.126 212.648
L517.795 217.624
L518.465 216.173
L519.134 213.477
L519.804 221.772
L520.474 220.735
L521.143 220.113
L521.813 214.514
L522.482 214.514
L523.152 214.307
L523.822 212.026
L524.491 214.514
L525.161 212.233
L525.83 211.611
L526.5 214.721
L527.17 223.43
L527.839 215.965
L528.509 214.721
L529.178 220.942
L529.848 220.735
L530.518 213.477
L531.187 228.614
L531.857 216.795
L532.526 223.43
L533.196 220.942
L533.866 214.929
L534.535 220.113
L535.205 211.818
L535.874 211.196
L536.544 222.808
L537.214 220.113
L537.883 207.464
L538.553 212.233
L539.222 210.781
L539.892 208.293
L540.562 214.721
L541.231 216.588
L541.901 203.524
L542.57 214.514
L543.24 215.551
L543.91 219.905
L544.579 206.012
L545.249 217.002
L545.918 213.477
L546.588 226.126
L547.258 206.012
L547.927 216.173
L548.597 210.574
L549.266 216.173
L549.936 224.882
L550.606 211.611
L551.275 212.855
L551.945 222.808
L552.614 216.588
L553.284 217.002
L553.954 214.721
L554.623 201.658
L555.293 212.233
L555.962 217.417
L556.632 213.477
L557.302 218.661
L557.971 216.588
L558.641 215.136
L559.31 211.404
L559.98 219.491
L560.65 221.772
L561.319 223.016
L561.989 208.708
L562.658 211.818
L563.328 213.27
L563.998 208.915
L565.337 213.477
L566.006 212.44
L566.676 227.578
L567.346 210.159
L568.685 213.477
L569.354 221.564
L570.024 210.159
L570.694 209.745
L571.363 212.44
L572.033 214.307
L572.702 221.149
L573.372 203.939
L574.042 219.905
L574.711 209.745
L575.381 225.711
L576.05 215.343
L576.72 215.343
L577.39 211.404
L578.059 210.574
L578.729 212.233
L579.398 219.076
L580.068 217.624
L580.738 218.246
L581.407 221.357
L582.077 219.698
L582.746 215.758
L583.416 225.089
L584.086 219.076
L584.755 216.588
L585.425 219.076
L586.094 217.21
L586.764 217.624
L587.434 211.611
L588.103 201.658
L588.773 221.357
L589.442 209.952
L590.112 214.099
L590.782 214.307
L591.451 218.454
L592.121 218.661
L592.79 224.052
L593.46 215.758
L594.13 214.099
L594.799 210.574
L595.469 218.868
L596.138 216.38
L596.808 221.149
L597.478 214.514
L598.147 216.38
L598.817 216.173
L599.486 213.27
L600.156 207.049
L600.826 214.514
L601.495 215.758
L602.165 218.454
L602.834 207.464
L604.174 217.624
L604.843 212.026
L605.513 214.099
L606.182 221.979
L606.852 211.611
L607.522 211.818
L608.191 224.052
L608.861 217.002
L609.53 219.905
L610.2 215.965
L610.87 213.27
L611.539 209.745
L612.209 215.965
L612.878 220.735
L613.548 221.149
L614.218 217.21
L614.887 207.256
L615.557 205.183
L616.226 217.21
L616.896 218.661
L617.566 224.882
L618.235 212.026
L618.905 217.002
L620.244 209.745
L620.914 218.246
L621.583 211.611
L622.922 208.915
L623.592 220.735
L624.262 223.638
L624.931 214.929
L625.601 217.002
L626.27 214.514
L626.94 224.882
L627.61 213.27
L628.279 218.246
L628.949 212.855
L629.618 200.828
L630.288 207.878
L630.958 224.26
L631.627 212.855
L632.297 208.5
L632.966 212.233
L633.636 205.39
L634.306 209.123
L635.645 219.283
L636.314 212.44
L636.984 215.136
L637.654 216.38
L638.323 223.638
L638.993 221.357
L639.662 213.062
L640.332 217.624
L641.002 209.745
L641.671 220.735
L642.341 215.343
L643.68 207.671
L644.35 221.564
L645.019 225.297
L645.689 209.537
L646.358 218.246
L647.028 215.551
L647.698 210.574
L648.367 218.661
L649.037 212.026
L649.706 218.661
L650.376 217.832
L651.046 212.026
L651.715 204.975
L652.385 212.648
L653.054 205.39
L653.724 211.196
L654.394 209.123
L655.063 214.514
L655.733 217.832
L656.402 216.173
L657.072 217.624
L657.742 218.454
L658.411 216.173
L659.081 214.514
L659.75 205.183
L660.42 205.597
L661.09 204.561
L662.429 218.661
L663.098 219.076
L663.768 212.233
L664.438 218.454
L665.107 216.173
L665.777 222.394
L666.446 216.38
L667.116 214.514
L667.786 200.413
L668.455 216.173
L669.125 213.684
L669.794 216.173
L670.464 212.44
L671.134 214.929
L671.803 212.233
L672.473 213.892
L673.142 209.952
L673.812 211.611
L674.482 220.735
L675.151 213.684
L675.821 219.491
L676.49 215.758
L677.16 212.855
L677.83 215.758
L678.499 221.357
L679.169 216.795
L679.838 221.772
L680.508 218.246
L681.178 203.316
L681.847 214.929
L682.517 221.979
L683.186 223.016
L683.856 211.404
L684.526 207.671
L685.195 213.684
L685.865 216.795
L686.534 218.454
L687.204 218.661
L687.874 212.44
L688.543 214.514
L689.213 206.634
L689.882 208.293
L690.552 210.367
L691.222 216.38
L691.891 223.845
L692.561 216.38
L693.23 207.464
L693.9 217.417
L694.57 217.21
L695.239 219.905
L695.909 213.892
L696.578 218.454
L697.248 214.721
L697.918 221.357
L698.587 206.22
L699.257 220.527
L699.926 210.574
L701.266 218.039
L701.935 213.684
L702.605 218.039
L703.274 215.551
L703.944 215.758
L704.614 225.504
L705.283 205.597
L705.953 220.942
L706.622 216.38
L707.292 224.052
L708.631 211.196
L709.301 215.758
L709.97 212.44
L710.64 210.159
L711.31 212.026
L711.979 227.37
L712.649 215.551
L713.318 209.745
L713.988 216.173
L714.658 213.477
L715.327 208.086
L715.997 220.527
L716.666 210.367
L717.336 211.196
L718.006 212.44
L718.675 210.367
L719.345 215.343
L720.014 214.929
L720.684 219.283
L721.354 208.293
L722.023 214.099
L722.693 210.367
L723.362 210.574
L724.032 222.394
L724.702 211.818
L725.371 214.721
L726.041 215.965
L727.38 208.086
L728.05 229.029
L728.719 211.611
L729.389 216.588
L730.058 208.293
L730.728 206.842
L731.398 218.868
L732.067 220.32
L732.737 219.491
L733.406 220.527
L734.076 222.186
L734.746 219.076
L735.415 221.564
L736.085 217.832
L736.754 217.21
L737.424 214.929
L738.094 216.588
L738.763 220.113
L740.102 213.684
L740.772 207.049
L741.442 219.905
L742.111 216.173
L742.781 224.882
L743.45 207.671
L744.12 214.307
L744.79 222.394
L745.459 217.417
L746.129 207.878
L746.798 216.173
L747.468 215.343
L748.138 217.417
L748.807 199.791
L749.477 216.173
L750.146 211.404
L750.816 217.832
L751.486 209.745
L752.155 224.882
L752.825 216.173
L753.494 203.731
L754.164 215.758
L754.834 211.818
L755.503 215.758
L756.173 212.855
L756.842 211.818
L757.512 213.062
L758.182 219.283
L758.851 203.524
L759.521 207.671
L760.19 215.758
L760.86 214.721
L761.53 217.624
L762.199 206.012
L762.869 215.965
L764.208 212.026
L764.878 212.026
L765.547 212.44
L766.217 214.307
L766.886 213.477
L767.556 217.832
L768.226 213.27
L769.565 220.735
L770.234 215.965
L770.904 220.735
L771.574 202.28
L772.243 214.514
L772.913 212.44
L773.582 208.086
L774.922 214.721
L775.591 224.26
L776.93 211.196
L777.6 217.002
L777.6 217.002" style="fill:none;stroke:#008000;stroke-linecap:square;"/>
   </g>
   <g id="line2d_3">
    <path clip-path="url(#p7ceb695115)" d="
M108 581.956
L108.67 582.578
L109.339 582.371
L110.009 582.785
L110.678 582.578
L111.348 582.785
L113.357 582.785
L114.026 582.993
L114.696 582.993
L115.366 582.578
L116.035 582.371
L116.705 582.785
L117.374 582.785
L118.044 582.578
L118.714 582.993
L119.383 582.993
L120.053 583.2
L121.392 583.2
L122.062 582.993
L122.731 583.2
L124.74 583.2
L125.41 582.993
L126.079 583.2
L442.8 583.2
L443.47 488.022
L444.139 484.704
L444.809 478.068
L445.478 486.156
L446.148 483.045
L446.818 489.059
L447.487 482.423
L448.157 487.192
L448.826 486.778
L450.166 486.363
L450.835 489.888
L451.505 488.022
L452.174 488.644
L452.844 489.888
L453.514 497.975
L454.183 496.938
L454.853 489.473
L455.522 490.717
L456.192 490.303
L456.862 494.243
L457.531 492.376
L458.201 492.584
L458.87 485.119
L459.54 497.56
L460.21 489.473
L460.879 492.998
L461.549 495.072
L462.218 485.119
L462.888 500.463
L463.558 488.644
L464.227 487.192
L464.897 493.206
L465.566 488.436
L466.236 487.607
L466.906 485.741
L467.575 493.62
L468.245 492.169
L468.914 491.132
L470.254 484.082
L470.923 493.828
L471.593 494.657
L472.262 495.279
L472.932 493.206
L473.602 495.279
L474.271 491.132
L474.941 488.022
L475.61 490.51
L476.28 497.353
L476.95 480.972
L477.619 488.229
L478.289 489.473
L478.958 498.597
L479.628 492.998
L480.298 490.303
L480.967 497.975
L481.637 490.51
L482.306 492.791
L482.976 490.303
L483.646 491.962
L484.315 487.192
L484.985 490.717
L485.654 484.289
L486.324 489.266
L486.994 489.888
L488.333 495.487
L489.002 500.256
L489.672 498.804
L490.342 491.754
L491.011 494.865
L491.681 491.547
L492.35 489.059
L493.69 496.938
L494.359 488.851
L495.029 490.51
L495.698 489.266
L496.368 495.487
L497.038 499.219
L497.707 491.547
L498.377 493.206
L499.046 495.694
L499.716 489.266
L500.386 485.741
L501.055 493.62
L501.725 487.607
L502.394 487.814
L503.064 485.948
L503.734 490.717
L504.403 493.413
L505.073 492.998
L505.742 501.085
L506.412 491.34
L507.082 489.059
L507.751 492.584
L508.421 487.814
L509.09 492.376
L509.76 490.51
L510.43 494.657
L511.099 489.888
L511.769 497.768
L512.438 485.533
L513.108 493.828
L513.778 495.279
L514.447 490.51
L515.117 496.316
L515.786 497.56
L516.456 489.473
L517.126 489.681
L517.795 490.303
L518.465 488.436
L519.134 492.169
L519.804 485.326
L520.474 491.962
L521.143 486.57
L521.813 490.925
L522.482 491.132
L523.152 486.985
L523.822 494.865
L524.491 494.657
L525.161 489.059
L525.83 491.962
L526.5 495.487
L527.17 485.119
L527.839 483.252
L528.509 491.547
L529.178 485.741
L529.848 486.57
L530.518 491.547
L531.187 481.386
L531.857 488.436
L532.526 485.533
L533.866 489.888
L534.535 486.57
L535.205 486.156
L535.874 489.059
L536.544 487.192
L537.214 491.547
L537.883 496.938
L538.553 492.998
L539.222 496.109
L539.892 491.962
L540.562 490.717
L541.231 496.731
L541.901 497.56
L542.57 487.607
L543.24 491.34
L543.91 489.473
L544.579 492.376
L545.249 492.169
L545.918 488.644
L546.588 492.584
L547.258 497.353
L547.927 494.45
L548.597 500.671
L549.936 482.423
L550.606 492.791
L551.275 487.814
L551.945 491.34
L552.614 491.962
L553.284 490.925
L553.954 490.303
L554.623 497.768
L555.293 491.34
L555.962 492.584
L556.632 491.754
L557.302 492.376
L557.971 488.229
L558.641 489.266
L559.98 491.962
L560.65 489.059
L561.989 491.132
L562.658 488.644
L563.328 491.547
L563.998 498.182
L564.667 492.998
L565.337 493.413
L566.006 492.791
L566.676 486.156
L567.346 500.671
L568.015 494.243
L568.685 494.035
L569.354 489.266
L570.024 490.303
L570.694 494.035
L571.363 499.012
L572.033 496.109
L572.702 486.778
L573.372 493.62
L574.042 486.985
L574.711 496.316
L575.381 487.814
L576.72 488.644
L577.39 494.035
L578.059 494.243
L578.729 491.962
L579.398 488.229
L580.068 487.4
L580.738 491.547
L581.407 485.533
L582.077 487.607
L582.746 490.51
L583.416 485.741
L584.086 489.266
L584.755 489.059
L585.425 489.059
L586.094 494.035
L586.764 489.888
L587.434 492.584
L588.103 497.353
L588.773 490.095
L589.442 490.51
L590.112 491.132
L590.782 495.072
L591.451 491.132
L592.121 489.059
L592.79 490.303
L593.46 490.303
L594.13 493.413
L594.799 493.206
L595.469 490.51
L596.138 487.192
L596.808 485.119
L597.478 494.45
L598.147 489.473
L598.817 496.731
L599.486 489.473
L600.156 490.095
L600.826 494.243
L601.495 492.998
L602.165 492.584
L602.834 495.694
L603.504 495.901
L604.174 485.741
L604.843 490.717
L605.513 491.34
L606.182 485.119
L606.852 487.192
L607.522 485.119
L608.191 492.169
L608.861 488.022
L609.53 492.376
L610.2 494.657
L610.87 490.51
L611.539 496.109
L612.209 489.059
L612.878 492.584
L613.548 491.132
L614.218 491.132
L614.887 495.901
L615.557 497.56
L616.226 495.072
L616.896 490.51
L617.566 484.497
L618.235 490.51
L618.905 486.985
L619.574 488.436
L620.244 488.229
L620.914 491.754
L621.583 497.768
L622.253 491.754
L622.922 493.413
L623.592 489.473
L624.262 490.717
L624.931 488.229
L625.601 488.644
L626.27 494.035
L626.94 484.704
L627.61 492.169
L628.279 485.119
L628.949 493.828
L629.618 497.975
L630.288 493.413
L630.958 485.741
L631.627 492.584
L632.966 492.169
L633.636 495.901
L634.306 492.998
L634.975 492.791
L635.645 485.533
L636.314 489.059
L636.984 498.39
L637.654 485.741
L638.323 488.644
L638.993 495.279
L639.662 495.901
L640.332 491.962
L641.002 492.376
L641.671 489.266
L642.341 491.962
L643.01 494.035
L643.68 494.035
L644.35 484.704
L645.019 488.851
L645.689 494.035
L646.358 488.229
L647.028 491.754
L647.698 493.62
L648.367 488.229
L649.037 491.547
L649.706 494.243
L650.376 487.192
L651.046 489.681
L651.715 497.768
L652.385 489.888
L653.054 492.791
L653.724 489.473
L655.063 489.473
L655.733 494.243
L656.402 491.34
L657.072 491.754
L657.742 489.059
L658.411 492.791
L659.081 490.51
L659.75 495.072
L660.42 494.035
L661.09 495.694
L661.759 491.754
L662.429 489.681
L663.768 496.731
L664.438 487.192
L665.107 491.754
L665.777 482.63
L666.446 488.436
L667.116 491.754
L667.786 497.768
L668.455 491.754
L669.125 493.828
L669.794 489.059
L670.464 494.865
L671.134 491.547
L671.803 498.597
L672.473 489.681
L673.142 496.731
L673.812 493.62
L674.482 491.754
L675.151 491.34
L675.821 482.423
L676.49 491.754
L677.16 489.681
L677.83 493.413
L678.499 489.681
L679.169 489.888
L679.838 491.754
L680.508 489.681
L681.178 497.56
L682.517 488.851
L683.186 486.156
L683.856 491.132
L684.526 489.681
L685.195 489.059
L685.865 486.156
L687.204 486.57
L687.874 492.791
L688.543 494.035
L689.213 495.901
L689.882 498.39
L690.552 491.34
L691.222 488.851
L691.891 484.497
L692.561 494.243
L693.23 494.243
L693.9 484.911
L694.57 489.473
L695.239 486.985
L695.909 492.791
L696.578 487.4
L697.248 491.754
L697.918 486.156
L698.587 495.487
L699.257 485.948
L699.926 495.487
L701.266 483.875
L701.935 490.717
L702.605 490.095
L703.274 484.497
L703.944 493.413
L704.614 483.46
L705.283 496.524
L705.953 490.303
L706.622 494.243
L707.292 485.948
L707.962 494.035
L708.631 495.072
L709.301 489.473
L709.97 492.998
L710.64 495.279
L711.979 487.814
L713.318 495.279
L713.988 489.059
L714.658 492.584
L715.327 491.132
L715.997 487.192
L716.666 487.814
L717.336 490.717
L718.006 492.791
L718.675 490.51
L719.345 491.132
L720.014 485.119
L720.684 492.791
L721.354 496.316
L722.023 497.56
L722.693 495.072
L723.362 491.132
L724.032 491.132
L724.702 497.975
L725.371 490.51
L726.041 494.657
L726.71 488.851
L727.38 489.266
L728.05 481.594
L728.719 489.473
L729.389 488.436
L730.058 498.804
L730.728 495.279
L731.398 489.681
L732.067 496.316
L732.737 489.473
L733.406 485.741
L734.076 486.156
L734.746 488.436
L735.415 490.303
L736.085 485.948
L736.754 491.132
L737.424 495.279
L738.094 489.473
L738.763 492.169
L739.433 490.51
L740.102 495.694
L740.772 494.035
L741.442 487.607
L742.111 492.376
L742.781 485.948
L743.45 495.694
L744.12 493.62
L744.79 485.741
L745.459 490.095
L746.129 489.681
L746.798 489.059
L747.468 492.584
L748.138 492.376
L748.807 501.5
L749.477 495.279
L750.146 491.132
L750.816 490.717
L751.486 500.878
L752.155 487.607
L753.494 495.072
L754.164 488.022
L754.834 493.206
L755.503 488.229
L756.173 494.865
L756.842 496.731
L757.512 493.206
L758.182 485.948
L758.851 499.634
L759.521 492.998
L760.19 495.279
L760.86 491.34
L761.53 490.925
L762.199 494.45
L762.869 488.022
L764.208 497.146
L764.878 494.657
L765.547 494.657
L766.217 494.035
L766.886 497.768
L767.556 492.998
L768.226 490.925
L768.895 491.754
L769.565 490.717
L770.234 496.524
L770.904 492.998
L771.574 502.537
L772.243 488.851
L772.913 490.51
L773.582 493.413
L774.252 492.998
L774.922 491.962
L775.591 487.4
L776.261 487.814
L776.93 495.279
L777.6 488.851
L777.6 488.851" style="fill:none;stroke:#0000ff;stroke-linecap:square;"/>
   </g>
   <g id="patch_3">
    <path d="
M777.6 583.2
L777.6 64.8" style="fill:none;stroke:#000000;stroke-linecap:square;stroke-linejoin:miter;"/>
   </g>
   <g id="patch_4">
    <path d="
M108 583.2
L108 64.8" style="fill:none;stroke:#000000;stroke-linecap:square;stroke-linejoin:miter;"/>
   </g>
   <g id="patch_5">
    <path d="
M108 64.8
L777.6 64.8" style="fill:none;stroke:#000000;stroke-linecap:square;stroke-linejoin:miter;"/>
   </g>
   <g id="patch_6">
    <path d="
M108 583.2
L777.6 583.2" style="fill:none;stroke:#000000;stroke-linecap:square;stroke-linejoin:miter;"/>
   </g>
   <g id="matplotlib.axis_1">
    <g id="xtick_1">
     <g id="line2d_4">
      <defs>
       <path d="
M0 0
L0 -4" id="mc7db9fdffb" style="stroke:#000000;stroke-width:0.5;"/>
      </defs>
      <g>
       <use style="stroke:#000000;stroke-width:0.5;" x="108.0" xlink:href="#mc7db9fdffb" y="583.2"/>
      </g>
     </g>
     <g id="line2d_5">
      <defs>
       <path d="
M0 0
L0 4" id="m5a7d422ac3" style="stroke:#000000;stroke-width:0.5;"/>
      </defs>
      <g>
       <use style="stroke:#000000;stroke-width:0.5;" x="108.0" xlink:href="#m5a7d422ac3" y="64.8"/>
      </g>
     </g>
     <g id="text_1">
      <!-- 0 -->
      <defs>
       <path d="
M31.7812 66.4062
Q24.1719 66.4062 20.3281 58.9062
Q16.5 51.4219 16.5 36.375
Q16.5 21.3906 20.3281 13.8906
Q24.1719 6.39062 31.7812 6.39062
Q39.4531 6.39062 43.2812 13.8906
Q47.125 21.3906 47.125 36.375
Q47.125 51.4219 43.2812 58.9062
Q39.4531 66.4062 31.7812 66.4062
M31.7812 74.2188
Q44.0469 74.2188 50.5156 64.5156
Q56.9844 54.8281 56.9844 36.375
Q56.9844 17.9688 50.5156 8.26562
Q44.0469 -1.42188 31.7812 -1.42188
Q19.5312 -1.42188 13.0625 8.26562
Q6.59375 17.9688 6.59375 36.375
Q6.59375 54.8281 13.0625 64.5156
Q19.5312 74.2188 31.7812 74.2188" id="BitstreamVeraSans-Roman-30"/>
      </defs>
      <g transform="translate(104.9765625 596.318125)scale(0.12 -0.12)">
       <use xlink:href="#BitstreamVeraSans-Roman-30"/>
      </g>
     </g>
    </g>
    <g id="xtick_2">
     <g id="line2d_6">
      <g>
       <use style="stroke:#000000;stroke-width:0.5;" x="275.4" xlink:href="#mc7db9fdffb" y="583.2"/>
      </g>
     </g>
     <g id="line2d_7">
      <g>
       <use style="stroke:#000000;stroke-width:0.5;" x="275.4" xlink:href="#m5a7d422ac3" y="64.8"/>
      </g>
     </g>
     <g id="text_2">
      <!-- 50000 -->
      <defs>
       <path d="
M10.7969 72.9062
L49.5156 72.9062
L49.5156 64.5938
L19.8281 64.5938
L19.8281 46.7344
Q21.9688 47.4688 24.1094 47.8281
Q26.2656 48.1875 28.4219 48.1875
Q40.625 48.1875 47.75 41.5
Q54.8906 34.8125 54.8906 23.3906
Q54.8906 11.625 47.5625 5.09375
Q40.2344 -1.42188 26.9062 -1.42188
Q22.3125 -1.42188 17.5469 -0.640625
Q12.7969 0.140625 7.71875 1.70312
L7.71875 11.625
Q12.1094 9.23438 16.7969 8.0625
Q21.4844 6.89062 26.7031 6.89062
Q35.1562 6.89062 40.0781 11.3281
Q45.0156 15.7656 45.0156 23.3906
Q45.0156 31 40.0781 35.4375
Q35.1562 39.8906 26.7031 39.8906
Q22.75 39.8906 18.8125 39.0156
Q14.8906 38.1406 10.7969 36.2812
z
" id="BitstreamVeraSans-Roman-35"/>
      </defs>
      <g transform="translate(257.1740625 596.318125)scale(0.12 -0.12)">
       <use xlink:href="#BitstreamVeraSans-Roman-35"/>
       <use x="63.623046875" xlink:href="#BitstreamVeraSans-Roman-30"/>
       <use x="127.24609375" xlink:href="#BitstreamVeraSans-Roman-30"/>
       <use x="190.869140625" xlink:href="#BitstreamVeraSans-Roman-30"/>
       <use x="254.4921875" xlink:href="#BitstreamVeraSans-Roman-30"/>
      </g>
     </g>
    </g>
    <g id="xtick_3">
     <g id="line2d_8">
      <g>
       <use style="stroke:#000000;stroke-width:0.5;" x="442.8" xlink:href="#mc7db9fdffb" y="583.2"/>
      </g>
     </g>
     <g id="line2d_9">
      <g>
       <use style="stroke:#000000;stroke-width:0.5;" x="442.8" xlink:href="#m5a7d422ac3" y="64.8"/>
      </g>
     </g>
     <g id="text_3">
      <!-- 100000 -->
      <defs>
       <path d="
M12.4062 8.29688
L28.5156 8.29688
L28.5156 63.9219
L10.9844 60.4062
L10.9844 69.3906
L28.4219 72.9062
L38.2812 72.9062
L38.2812 8.29688
L54.3906 8.29688
L54.3906 0
L12.4062 0
z
" id="BitstreamVeraSans-Roman-31"/>
      </defs>
      <g transform="translate(420.9525 596.318125)scale(0.12 -0.12)">
       <use xlink:href="#BitstreamVeraSans-Roman-31"/>
       <use x="63.623046875" xlink:href="#BitstreamVeraSans-Roman-30"/>
       <use x="127.24609375" xlink:href="#BitstreamVeraSans-Roman-30"/>
       <use x="190.869140625" xlink:href="#BitstreamVeraSans-Roman-30"/>
       <use x="254.4921875" xlink:href="#BitstreamVeraSans-Roman-30"/>
       <use x="318.115234375" xlink:href="#BitstreamVeraSans-Roman-30"/>
      </g>
     </g>
    </g>
    <g id="xtick_4">
     <g id="line2d_10">
      <g>
       <use style="stroke:#000000;stroke-width:0.5;" x="610.2" xlink:href="#mc7db9fdffb" y="583.2"/>
      </g>
     </g>
     <g id="line2d_11">
      <g>
       <use style="stroke:#000000;stroke-width:0.5;" x="610.2" xlink:href="#m5a7d422ac3" y="64.8"/>
      </g>
     </g>
     <g id="text_4">
      <!-- 150000 -->
      <g transform="translate(588.3525 596.318125)scale(0.12 -0.12)">
       <use xlink:href="#BitstreamVeraSans-Roman-31"/>
       <use x="63.623046875" xlink:href="#BitstreamVeraSans-Roman-35"/>
       <use x="127.24609375" xlink:href="#BitstreamVeraSans-Roman-30"/>
       <use x="190.869140625" xlink:href="#BitstreamVeraSans-Roman-30"/>
       <use x="254.4921875" xlink:href="#BitstreamVeraSans-Roman-30"/>
       <use x="318.115234375" xlink:href="#BitstreamVeraSans-Roman-30"/>
      </g>
     </g>
    </g>
    <g id="xtick_5">
     <g id="line2d_12">
      <g>
       <use style="stroke:#000000;stroke-width:0.5;" x="777.6" xlink:href="#mc7db9fdffb" y="583.2"/>
      </g>
     </g>
     <g id="line2d_13">
      <g>
       <use style="stroke:#000000;stroke-width:0.5;" x="777.6" xlink:href="#m5a7d422ac3" y="64.8"/>
      </g>
     </g>
     <g id="text_5">
      <!-- 200000 -->
      <defs>
       <path d="
M19.1875 8.29688
L53.6094 8.29688
L53.6094 0
L7.32812 0
L7.32812 8.29688
Q12.9375 14.1094 22.625 23.8906
Q32.3281 33.6875 34.8125 36.5312
Q39.5469 41.8438 41.4219 45.5312
Q43.3125 49.2188 43.3125 52.7812
Q43.3125 58.5938 39.2344 62.25
Q35.1562 65.9219 28.6094 65.9219
Q23.9688 65.9219 18.8125 64.3125
Q13.6719 62.7031 7.8125 59.4219
L7.8125 69.3906
Q13.7656 71.7812 18.9375 73
Q24.125 74.2188 28.4219 74.2188
Q39.75 74.2188 46.4844 68.5469
Q53.2188 62.8906 53.2188 53.4219
Q53.2188 48.9219 51.5312 44.8906
Q49.8594 40.875 45.4062 35.4062
Q44.1875 33.9844 37.6406 27.2188
Q31.1094 20.4531 19.1875 8.29688" id="BitstreamVeraSans-Roman-32"/>
      </defs>
      <g transform="translate(755.533125 596.318125)scale(0.12 -0.12)">
       <use xlink:href="#BitstreamVeraSans-Roman-32"/>
       <use x="63.623046875" xlink:href="#BitstreamVeraSans-Roman-30"/>
       <use x="127.24609375" xlink:href="#BitstreamVeraSans-Roman-30"/>
       <use x="190.869140625" xlink:href="#BitstreamVeraSans-Roman-30"/>
       <use x="254.4921875" xlink:href="#BitstreamVeraSans-Roman-30"/>
       <use x="318.115234375" xlink:href="#BitstreamVeraSans-Roman-30"/>
      </g>
     </g>
    </g>
    <g id="text_6">
     <!-- t / ms -->
     <defs>
      <path d="
M25.3906 72.9062
L33.6875 72.9062
L8.29688 -9.28125
L0 -9.28125
z
" id="BitstreamVeraSans-Roman-2f"/>
      <path d="
M44.2812 53.0781
L44.2812 44.5781
Q40.4844 46.5312 36.375 47.5
Q32.2812 48.4844 27.875 48.4844
Q21.1875 48.4844 17.8438 46.4375
Q14.5 44.3906 14.5 40.2812
Q14.5 37.1562 16.8906 35.375
Q19.2812 33.5938 26.5156 31.9844
L29.5938 31.2969
Q39.1562 29.25 43.1875 25.5156
Q47.2188 21.7812 47.2188 15.0938
Q47.2188 7.46875 41.1875 3.01562
Q35.1562 -1.42188 24.6094 -1.42188
Q20.2188 -1.42188 15.4531 -0.5625
Q10.6875 0.296875 5.42188 2
L5.42188 11.2812
Q10.4062 8.6875 15.2344 7.39062
Q20.0625 6.10938 24.8125 6.10938
Q31.1562 6.10938 34.5625 8.28125
Q37.9844 10.4531 37.9844 14.4062
Q37.9844 18.0625 35.5156 20.0156
Q33.0625 21.9688 24.7031 23.7812
L21.5781 24.5156
Q13.2344 26.2656 9.51562 29.9062
Q5.8125 33.5469 5.8125 39.8906
Q5.8125 47.6094 11.2812 51.7969
Q16.75 56 26.8125 56
Q31.7812 56 36.1719 55.2656
Q40.5781 54.5469 44.2812 53.0781" id="BitstreamVeraSans-Roman-73"/>
      <path d="
M18.3125 70.2188
L18.3125 54.6875
L36.8125 54.6875
L36.8125 47.7031
L18.3125 47.7031
L18.3125 18.0156
Q18.3125 11.3281 20.1406 9.42188
Q21.9688 7.51562 27.5938 7.51562
L36.8125 7.51562
L36.8125 0
L27.5938 0
Q17.1875 0 13.2344 3.875
Q9.28125 7.76562 9.28125 18.0156
L9.28125 47.7031
L2.6875 47.7031
L2.6875 54.6875
L9.28125 54.6875
L9.28125 70.2188
z
" id="BitstreamVeraSans-Roman-74"/>
      <path id="BitstreamVeraSans-Roman-20"/>
      <path d="
M52 44.1875
Q55.375 50.25 60.0625 53.125
Q64.75 56 71.0938 56
Q79.6406 56 84.2812 50.0156
Q88.9219 44.0469 88.9219 33.0156
L88.9219 0
L79.8906 0
L79.8906 32.7188
Q79.8906 40.5781 77.0938 44.375
Q74.3125 48.1875 68.6094 48.1875
Q61.625 48.1875 57.5625 43.5469
Q53.5156 38.9219 53.5156 30.9062
L53.5156 0
L44.4844 0
L44.4844 32.7188
Q44.4844 40.625 41.7031 44.4062
Q38.9219 48.1875 33.1094 48.1875
Q26.2188 48.1875 22.1562 43.5312
Q18.1094 38.875 18.1094 30.9062
L18.1094 0
L9.07812 0
L9.07812 54.6875
L18.1094 54.6875
L18.1094 46.1875
Q21.1875 51.2188 25.4844 53.6094
Q29.7812 56 35.6875 56
Q41.6562 56 45.8281 52.9688
Q50 49.9531 52 44.1875" id="BitstreamVeraSans-Roman-6d"/>
     </defs>
     <g transform="translate(425.9353125 612.931875)scale(0.12 -0.12)">
      <use xlink:href="#BitstreamVeraSans-Roman-74"/>
      <use x="39.208984375" xlink:href="#BitstreamVeraSans-Roman-20"/>
      <use x="70.99609375" xlink:href="#BitstreamVeraSans-Roman-2f"/>
      <use x="104.6875" xlink:href="#BitstreamVeraSans-Roman-20"/>
      <use x="136.474609375" xlink:href="#BitstreamVeraSans-Roman-6d"/>
      <use x="233.88671875" xlink:href="#BitstreamVeraSans-Roman-73"/>
     </g>
    </g>
   </g>
   <g id="matplotlib.axis_2">
    <g id="ytick_1">
     <g id="line2d_14">
      <defs>
       <path d="
M0 0
L4 0" id="md7965d1ba0" style="stroke:#000000;stroke-width:0.5;"/>
      </defs>
      <g>
       <use style="stroke:#000000;stroke-width:0.5;" x="108.0" xlink:href="#md7965d1ba0" y="583.2"/>
      </g>
     </g>
     <g id="line2d_15">
      <defs>
       <path d="
M0 0
L-4 0" id="md9a1c1a7cd" style="stroke:#000000;stroke-width:0.5;"/>
      </defs>
      <g>
       <use style="stroke:#000000;stroke-width:0.5;" x="777.6" xlink:href="#md9a1c1a7cd" y="583.2"/>
      </g>
     </g>
     <g id="text_7">
      <!-- 0 -->
      <g transform="translate(97.953125 586.51125)scale(0.12 -0.12)">
       <use xlink:href="#BitstreamVeraSans-Roman-30"/>
      </g>
     </g>
    </g>
    <g id="ytick_2">
     <g id="line2d_16">
      <g>
       <use style="stroke:#000000;stroke-width:0.5;" x="108.0" xlink:href="#md7965d1ba0" y="479.52"/>
      </g>
     </g>
     <g id="line2d_17">
      <g>
       <use style="stroke:#000000;stroke-width:0.5;" x="777.6" xlink:href="#md9a1c1a7cd" y="479.52"/>
      </g>
     </g>
     <g id="text_8">
      <!-- 500 -->
      <g transform="translate(82.818125 482.83125)scale(0.12 -0.12)">
       <use xlink:href="#BitstreamVeraSans-Roman-35"/>
       <use x="63.623046875" xlink:href="#BitstreamVeraSans-Roman-30"/>
       <use x="127.24609375" xlink:href="#BitstreamVeraSans-Roman-30"/>
      </g>
     </g>
    </g>
    <g id="ytick_3">
     <g id="line2d_18">
      <g>
       <use style="stroke:#000000;stroke-width:0.5;" x="108.0" xlink:href="#md7965d1ba0" y="375.84"/>
      </g>
     </g>
     <g id="line2d_19">
      <g>
       <use style="stroke:#000000;stroke-width:0.5;" x="777.6" xlink:href="#md9a1c1a7cd" y="375.84"/>
      </g>
     </g>
     <g id="text_9">
      <!-- 1000 -->
      <g transform="translate(75.575 379.15125)scale(0.12 -0.12)">
       <use xlink:href="#BitstreamVeraSans-Roman-31"/>
       <use x="63.623046875" xlink:href="#BitstreamVeraSans-Roman-30"/>
       <use x="127.24609375" xlink:href="#BitstreamVeraSans-Roman-30"/>
       <use x="190.869140625" xlink:href="#BitstreamVeraSans-Roman-30"/>
      </g>
     </g>
    </g>
    <g id="ytick_4">
     <g id="line2d_20">
      <g>
       <use style="stroke:#000000;stroke-width:0.5;" x="108.0" xlink:href="#md7965d1ba0" y="272.16"/>
      </g>
     </g>
     <g id="line2d_21">
      <g>
       <use style="stroke:#000000;stroke-width:0.5;" x="777.6" xlink:href="#md9a1c1a7cd" y="272.16"/>
      </g>
     </g>
     <g id="text_10">
      <!-- 1500 -->
      <g transform="translate(75.575 275.47125)scale(0.12 -0.12)">
       <use xlink:href="#BitstreamVeraSans-Roman-31"/>
       <use x="63.623046875" xlink:href="#BitstreamVeraSans-Roman-35"/>
       <use x="127.24609375" xlink:href="#BitstreamVeraSans-Roman-30"/>
       <use x="190.869140625" xlink:href="#BitstreamVeraSans-Roman-30"/>
      </g>
     </g>
    </g>
    <g id="ytick_5">
     <g id="line2d_22">
      <g>
       <use style="stroke:#000000;stroke-width:0.5;" x="108.0" xlink:href="#md7965d1ba0" y="168.48"/>
      </g>
     </g>
     <g id="line2d_23">
      <g>
       <use style="stroke:#000000;stroke-width:0.5;" x="777.6" xlink:href="#md9a1c1a7cd" y="168.48"/>
      </g>
     </g>
     <g id="text_11">
      <!-- 2000 -->
      <g transform="translate(75.13625 171.79125)scale(0.12 -0.12)">
       <use xlink:href="#BitstreamVeraSans-Roman-32"/>
       <use x="63.623046875" xlink:href="#BitstreamVeraSans-Roman-30"/>
       <use x="127.24609375" xlink:href="#BitstreamVeraSans-Roman-30"/>
       <use x="190.869140625" xlink:href="#BitstreamVeraSans-Roman-30"/>
      </g>
     </g>
    </g>
    <g id="ytick_6">
     <g id="line2d_24">
      <g>
       <use style="stroke:#000000;stroke-width:0.5;" x="108.0" xlink:href="#md7965d1ba0" y="64.8"/>
      </g>
     </g>
     <g id="line2d_25">
      <g>
       <use style="stroke:#000000;stroke-width:0.5;" x="777.6" xlink:href="#md9a1c1a7cd" y="64.8"/>
      </g>
     </g>
     <g id="text_12">
      <!-- 2500 -->
      <g transform="translate(75.13625 68.11125)scale(0.12 -0.12)">
       <use xlink:href="#BitstreamVeraSans-Roman-32"/>
       <use x="63.623046875" xlink:href="#BitstreamVeraSans-Roman-35"/>
       <use x="127.24609375" xlink:href="#BitstreamVeraSans-Roman-30"/>
       <use x="190.869140625" xlink:href="#BitstreamVeraSans-Roman-30"/>
      </g>
     </g>
    </g>
    <g id="text_13">
     <!-- particle numbers -->
     <defs>
      <path d="
M9.42188 75.9844
L18.4062 75.9844
L18.4062 0
L9.42188 0
z
" id="BitstreamVeraSans-Roman-6c"/>
      <path d="
M9.42188 54.6875
L18.4062 54.6875
L18.4062 0
L9.42188 0
z

M9.42188 75.9844
L18.4062 75.9844
L18.4062 64.5938
L9.42188 64.5938
z
" id="BitstreamVeraSans-Roman-69"/>
      <path d="
M18.1094 8.20312
L18.1094 -20.7969
L9.07812 -20.7969
L9.07812 54.6875
L18.1094 54.6875
L18.1094 46.3906
Q20.9531 51.2656 25.2656 53.625
Q29.5938 56 35.5938 56
Q45.5625 56 51.7812 48.0938
Q58.0156 40.1875 58.0156 27.2969
Q58.0156 14.4062 51.7812 6.48438
Q45.5625 -1.42188 35.5938 -1.42188
Q29.5938 -1.42188 25.2656 0.953125
Q20.9531 3.32812 18.1094 8.20312
M48.6875 27.2969
Q48.6875 37.2031 44.6094 42.8438
Q40.5312 48.4844 33.4062 48.4844
Q26.2656 48.4844 22.1875 42.8438
Q18.1094 37.2031 18.1094 27.2969
Q18.1094 17.3906 22.1875 11.75
Q26.2656 6.10938 33.4062 6.10938
Q40.5312 6.10938 44.6094 11.75
Q48.6875 17.3906 48.6875 27.2969" id="BitstreamVeraSans-Roman-70"/>
      <path d="
M34.2812 27.4844
Q23.3906 27.4844 19.1875 25
Q14.9844 22.5156 14.9844 16.5
Q14.9844 11.7188 18.1406 8.90625
Q21.2969 6.10938 26.7031 6.10938
Q34.1875 6.10938 38.7031 11.4062
Q43.2188 16.7031 43.2188 25.4844
L43.2188 27.4844
z

M52.2031 31.2031
L52.2031 0
L43.2188 0
L43.2188 8.29688
Q40.1406 3.32812 35.5469 0.953125
Q30.9531 -1.42188 24.3125 -1.42188
Q15.9219 -1.42188 10.9531 3.29688
Q6 8.01562 6 15.9219
Q6 25.1406 12.1719 29.8281
Q18.3594 34.5156 30.6094 34.5156
L43.2188 34.5156
L43.2188 35.4062
Q43.2188 41.6094 39.1406 45
Q35.0625 48.3906 27.6875 48.3906
Q23 48.3906 18.5469 47.2656
Q14.1094 46.1406 10.0156 43.8906
L10.0156 52.2031
Q14.9375 54.1094 19.5781 55.0469
Q24.2188 56 28.6094 56
Q40.4844 56 46.3438 49.8438
Q52.2031 43.7031 52.2031 31.2031" id="BitstreamVeraSans-Roman-61"/>
      <path d="
M41.1094 46.2969
Q39.5938 47.1719 37.8125 47.5781
Q36.0312 48 33.8906 48
Q26.2656 48 22.1875 43.0469
Q18.1094 38.0938 18.1094 28.8125
L18.1094 0
L9.07812 0
L9.07812 54.6875
L18.1094 54.6875
L18.1094 46.1875
Q20.9531 51.1719 25.4844 53.5781
Q30.0312 56 36.5312 56
Q37.4531 56 38.5781 55.875
Q39.7031 55.7656 41.0625 55.5156
z
" id="BitstreamVeraSans-Roman-72"/>
      <path d="
M48.7812 52.5938
L48.7812 44.1875
Q44.9688 46.2969 41.1406 47.3438
Q37.3125 48.3906 33.4062 48.3906
Q24.6562 48.3906 19.8125 42.8438
Q14.9844 37.3125 14.9844 27.2969
Q14.9844 17.2812 19.8125 11.7344
Q24.6562 6.20312 33.4062 6.20312
Q37.3125 6.20312 41.1406 7.25
Q44.9688 8.29688 48.7812 10.4062
L48.7812 2.09375
Q45.0156 0.34375 40.9844 -0.53125
Q36.9688 -1.42188 32.4219 -1.42188
Q20.0625 -1.42188 12.7812 6.34375
Q5.51562 14.1094 5.51562 27.2969
Q5.51562 40.6719 12.8594 48.3281
Q20.2188 56 33.0156 56
Q37.1562 56 41.1094 55.1406
Q45.0625 54.2969 48.7812 52.5938" id="BitstreamVeraSans-Roman-63"/>
      <path d="
M48.6875 27.2969
Q48.6875 37.2031 44.6094 42.8438
Q40.5312 48.4844 33.4062 48.4844
Q26.2656 48.4844 22.1875 42.8438
Q18.1094 37.2031 18.1094 27.2969
Q18.1094 17.3906 22.1875 11.75
Q26.2656 6.10938 33.4062 6.10938
Q40.5312 6.10938 44.6094 11.75
Q48.6875 17.3906 48.6875 27.2969
M18.1094 46.3906
Q20.9531 51.2656 25.2656 53.625
Q29.5938 56 35.5938 56
Q45.5625 56 51.7812 48.0938
Q58.0156 40.1875 58.0156 27.2969
Q58.0156 14.4062 51.7812 6.48438
Q45.5625 -1.42188 35.5938 -1.42188
Q29.5938 -1.42188 25.2656 0.953125
Q20.9531 3.32812 18.1094 8.20312
L18.1094 0
L9.07812 0
L9.07812 75.9844
L18.1094 75.9844
z
" id="BitstreamVeraSans-Roman-62"/>
      <path d="
M54.8906 33.0156
L54.8906 0
L45.9062 0
L45.9062 32.7188
Q45.9062 40.4844 42.875 44.3281
Q39.8438 48.1875 33.7969 48.1875
Q26.5156 48.1875 22.3125 43.5469
Q18.1094 38.9219 18.1094 30.9062
L18.1094 0
L9.07812 0
L9.07812 54.6875
L18.1094 54.6875
L18.1094 46.1875
Q21.3438 51.125 25.7031 53.5625
Q30.0781 56 35.7969 56
Q45.2188 56 50.0469 50.1719
Q54.8906 44.3438 54.8906 33.0156" id="BitstreamVeraSans-Roman-6e"/>
      <path d="
M8.5 21.5781
L8.5 54.6875
L17.4844 54.6875
L17.4844 21.9219
Q17.4844 14.1562 20.5 10.2656
Q23.5312 6.39062 29.5938 6.39062
Q36.8594 6.39062 41.0781 11.0312
Q45.3125 15.6719 45.3125 23.6875
L45.3125 54.6875
L54.2969 54.6875
L54.2969 0
L45.3125 0
L45.3125 8.40625
Q42.0469 3.42188 37.7188 1
Q33.4062 -1.42188 27.6875 -1.42188
Q18.2656 -1.42188 13.375 4.4375
Q8.5 10.2969 8.5 21.5781" id="BitstreamVeraSans-Roman-75"/>
      <path d="
M56.2031 29.5938
L56.2031 25.2031
L14.8906 25.2031
Q15.4844 15.9219 20.4844 11.0625
Q25.4844 6.20312 34.4219 6.20312
Q39.5938 6.20312 44.4531 7.46875
Q49.3125 8.73438 54.1094 11.2812
L54.1094 2.78125
Q49.2656 0.734375 44.1875 -0.34375
Q39.1094 -1.42188 33.8906 -1.42188
Q20.7969 -1.42188 13.1562 6.1875
Q5.51562 13.8125 5.51562 26.8125
Q5.51562 40.2344 12.7656 48.1094
Q20.0156 56 32.3281 56
Q43.3594 56 49.7812 48.8906
Q56.2031 41.7969 56.2031 29.5938
M47.2188 32.2344
Q47.125 39.5938 43.0938 43.9844
Q39.0625 48.3906 32.4219 48.3906
Q24.9062 48.3906 20.3906 44.1406
Q15.875 39.8906 15.1875 32.1719
z
" id="BitstreamVeraSans-Roman-65"/>
     </defs>
     <g transform="translate(67.640625 374.78625)rotate(-90.0)scale(0.12 -0.12)">
      <use xlink:href="#BitstreamVeraSans-Roman-70"/>
      <use x="63.4765625" xlink:href="#BitstreamVeraSans-Roman-61"/>
      <use x="124.755859375" xlink:href="#BitstreamVeraSans-Roman-72"/>
      <use x="165.869140625" xlink:href="#BitstreamVeraSans-Roman-74"/>
      <use x="205.078125" xlink:href="#BitstreamVeraSans-Roman-69"/>
      <use x="232.861328125" xlink:href="#BitstreamVeraSans-Roman-63"/>
      <use x="287.841796875" xlink:href="#BitstreamVeraSans-Roman-6c"/>
      <use x="315.625" xlink:href="#BitstreamVeraSans-Roman-65"/>
      <use x="377.1484375" xlink:href="#BitstreamVeraSans-Roman-20"/>
      <use x="408.935546875" xlink:href="#BitstreamVeraSans-Roman-6e"/>
      <use x="472.314453125" xlink:href="#BitstreamVeraSans-Roman-75"/>
      <use x="535.693359375" xlink:href="#BitstreamVeraSans-Roman-6d"/>
      <use x="633.10546875" xlink:href="#BitstreamVeraSans-Roman-62"/>
      <use x="696.58203125" xlink:href="#BitstreamVeraSans-Roman-65"/>
      <use x="758.10546875" xlink:href="#BitstreamVeraSans-Roman-72"/>
      <use x="799.21875" xlink:href="#BitstreamVeraSans-Roman-73"/>
     </g>
    </g>
   </g>
   <g id="legend_1">
    <g id="patch_7">
     <path d="
M724.53 101.224
L774.1 101.224
L774.1 68.3
L724.53 68.3
z
" style="fill:#ffffff;stroke:#000000;stroke-linejoin:miter;"/>
    </g>
    <g id="line2d_26">
     <path d="
M729.43 73.9689
L739.23 73.9689" style="fill:none;stroke:#ff0000;stroke-linecap:square;"/>
    </g>
    <g id="line2d_27"/>
    <g id="text_14">
     <!-- Da el.0 -->
     <defs>
      <path d="
M10.6875 12.4062
L21 12.4062
L21 0
L10.6875 0
z
" id="BitstreamVeraSans-Roman-2e"/>
      <path d="
M19.6719 64.7969
L19.6719 8.10938
L31.5938 8.10938
Q46.6875 8.10938 53.6875 14.9375
Q60.6875 21.7812 60.6875 36.5312
Q60.6875 51.1719 53.6875 57.9844
Q46.6875 64.7969 31.5938 64.7969
z

M9.8125 72.9062
L30.0781 72.9062
Q51.2656 72.9062 61.1719 64.0938
Q71.0938 55.2812 71.0938 36.5312
Q71.0938 17.6719 61.125 8.82812
Q51.1719 0 30.0781 0
L9.8125 0
z
" id="BitstreamVeraSans-Roman-44"/>
     </defs>
     <g transform="translate(746.93015625 76.41890625)scale(0.07 -0.07)">
      <use xlink:href="#BitstreamVeraSans-Roman-44"/>
      <use x="77.001953125" xlink:href="#BitstreamVeraSans-Roman-61"/>
      <use x="138.28125" xlink:href="#BitstreamVeraSans-Roman-20"/>
      <use x="170.068359375" xlink:href="#BitstreamVeraSans-Roman-65"/>
      <use x="231.591796875" xlink:href="#BitstreamVeraSans-Roman-6c"/>
      <use x="259.375" xlink:href="#BitstreamVeraSans-Roman-2e"/>
      <use x="291.162109375" xlink:href="#BitstreamVeraSans-Roman-30"/>
     </g>
    </g>
    <g id="line2d_28">
     <path d="
M729.43 84.2436
L739.23 84.2436" style="fill:none;stroke:#008000;stroke-linecap:square;"/>
    </g>
    <g id="line2d_29"/>
    <g id="text_15">
     <!-- Da el.1 -->
     <g transform="translate(746.93015625 86.69359375)scale(0.07 -0.07)">
      <use xlink:href="#BitstreamVeraSans-Roman-44"/>
      <use x="77.001953125" xlink:href="#BitstreamVeraSans-Roman-61"/>
      <use x="138.28125" xlink:href="#BitstreamVeraSans-Roman-20"/>
      <use x="170.068359375" xlink:href="#BitstreamVeraSans-Roman-65"/>
      <use x="231.591796875" xlink:href="#BitstreamVeraSans-Roman-6c"/>
      <use x="259.375" xlink:href="#BitstreamVeraSans-Roman-2e"/>
      <use x="291.162109375" xlink:href="#BitstreamVeraSans-Roman-31"/>
     </g>
    </g>
    <g id="line2d_30">
     <path d="
M729.43 94.5183
L739.23 94.5183" style="fill:none;stroke:#0000ff;stroke-linecap:square;"/>
    </g>
    <g id="line2d_31"/>
    <g id="text_16">
     <!-- Da el.2 -->
     <g transform="translate(746.93015625 96.96828125)scale(0.07 -0.07)">
      <use xlink:href="#BitstreamVeraSans-Roman-44"/>
      <use x="77.001953125" xlink:href="#BitstreamVeraSans-Roman-61"/>
      <use x="138.28125" xlink:href="#BitstreamVeraSans-Roman-20"/>
      <use x="170.068359375" xlink:href="#BitstreamVeraSans-Roman-65"/>
      <use x="231.591796875" xlink:href="#BitstreamVeraSans-Roman-6c"/>
      <use x="259.375" xlink:href="#BitstreamVeraSans-Roman-2e"/>
      <use x="291.162109375" xlink:href="#BitstreamVeraSans-Roman-32"/>
     </g>
    </g>
   </g>
  </g>
 </g>
 <defs>
  <clipPath id="p7ceb695115">
   <rect height="518.4" width="669.6" x="108.0" y="64.8"/>
  </clipPath>
 </defs>
</svg>
