<?xml version="1.0" encoding="utf-8" standalone="no"?>
<!DOCTYPE svg PUBLIC "-//W3C//DTD SVG 1.1//EN"
  "http://www.w3.org/Graphics/SVG/1.1/DTD/svg11.dtd">
<!-- Created with matplotlib (http://matplotlib.org/) -->
<svg height="648pt" version="1.1" viewBox="0 0 864 648" width="864pt" xmlns="http://www.w3.org/2000/svg" xmlns:xlink="http://www.w3.org/1999/xlink">
 <defs>
  <style type="text/css">
*{stroke-linecap:butt;stroke-linejoin:round;}
  </style>
 </defs>
 <g id="figure_1">
  <g id="patch_1">
   <path d="
M0 648
L864 648
L864 0
L0 0
z
" style="fill:#ffffff;"/>
  </g>
  <g id="axes_1">
   <g id="patch_2">
    <path d="
M108 583.2
L777.6 583.2
L777.6 64.8
L108 64.8
z
" style="fill:#ffffff;"/>
   </g>
   <g id="line2d_1">
    <path clip-path="url(#p7ceb695115)" d="
M108 582.52
L108.67 582.973
L109.339 583.168
L110.009 583.2
L110.678 583.006
L111.348 583.135
L112.687 583.168
L113.357 582.876
L114.696 582.973
L115.366 582.811
L116.035 582.941
L116.705 582.941
L117.374 582.746
L118.044 582.973
L118.714 582.552
L119.383 582.552
L120.053 582.844
L121.392 582.714
L122.731 582.876
L124.07 582.779
L124.74 582.941
L127.418 582.682
L128.088 582.779
L128.758 582.455
L129.427 582.779
L130.097 582.682
L132.106 582.844
L132.775 582.682
L134.784 582.649
L135.454 582.876
L136.123 582.649
L136.793 582.617
L137.462 582.746
L138.132 582.714
L138.802 582.552
L140.141 582.714
L140.81 582.487
L143.489 582.682
L144.828 582.39
L145.498 582.811
L146.837 582.455
L150.854 582.908
L151.524 582.682
L152.194 582.746
L152.863 582.584
L153.533 582.682
L154.202 582.325
L155.542 582.584
L156.211 582.908
L156.881 582.584
L157.55 582.422
L158.89 582.811
L159.559 582.714
L160.229 582.779
L161.568 582.617
L162.907 582.52
L163.577 582.779
L164.246 582.649
L164.916 582.714
L165.586 582.649
L166.925 582.876
L167.594 582.617
L168.264 582.811
L170.273 582.779
L170.942 582.584
L172.951 582.584
L173.621 582.746
L174.29 582.617
L175.63 582.811
L176.969 582.876
L177.638 582.779
L179.647 582.876
L180.317 582.649
L180.986 582.617
L181.656 582.876
L182.995 582.584
L183.665 582.779
L184.334 582.552
L185.004 583.006
L185.674 582.682
L187.682 582.617
L188.352 582.876
L189.022 582.617
L189.691 582.52
L191.03 582.714
L191.7 582.455
L192.37 582.714
L193.709 582.844
L194.378 582.941
L196.387 582.649
L197.057 582.876
L197.726 582.649
L198.396 582.584
L199.066 582.811
L199.735 582.844
L200.405 583.038
L201.074 582.811
L201.744 582.941
L204.422 582.876
L205.092 583.006
L205.762 582.844
L207.101 583.006
L208.44 582.844
L209.11 582.908
L209.779 582.714
L211.118 582.746
L211.788 582.941
L213.127 582.844
L213.797 582.811
L214.466 582.908
L215.136 582.714
L215.806 583.103
L216.475 582.844
L217.145 582.876
L217.814 583.038
L218.484 582.811
L219.154 583.038
L220.493 582.746
L221.162 582.714
L221.832 583.07
L222.502 582.876
L223.841 582.714
L225.18 582.811
L225.85 582.746
L226.519 582.941
L227.189 582.746
L228.528 582.941
L229.198 582.844
L230.537 582.973
L231.206 582.844
L233.215 583.038
L233.885 582.746
L234.554 583.038
L235.224 582.973
L235.894 582.779
L236.563 583.103
L238.572 582.908
L239.242 583.07
L239.911 582.973
L241.25 583.103
L242.59 582.811
L243.259 583.103
L243.929 582.811
L245.268 583.103
L246.607 582.973
L247.946 583.168
L248.616 583.038
L250.625 583.07
L251.294 582.876
L251.964 583.07
L252.634 582.908
L253.973 583.07
L255.312 582.941
L255.982 583.103
L256.651 582.973
L257.99 583.038
L259.33 583.07
L259.999 582.941
L261.338 583.103
L263.347 582.908
L264.017 583.038
L266.695 582.973
L268.034 583.006
L268.704 582.876
L270.043 583.07
L271.382 582.876
L272.052 582.973
L272.722 582.876
L273.391 583.038
L274.061 583.07
L274.73 582.876
L275.4 583.038
L276.739 583.038
L277.409 583.135
L278.078 582.876
L278.748 583.07
L279.418 583.135
L281.426 582.682
L282.096 582.908
L284.774 583.006
L285.444 582.714
L286.114 583.038
L286.783 582.876
L287.453 583.006
L288.122 582.908
L288.792 583.103
L290.131 582.941
L290.801 583.07
L291.47 582.811
L292.14 583.07
L293.479 583.168
L294.818 583.006
L296.827 583.07
L297.497 582.908
L298.166 583.038
L298.836 582.973
L299.506 583.135
L300.175 583.038
L300.845 583.135
L302.184 582.908
L306.202 583.038
L306.871 582.844
L308.21 583.135
L308.88 582.908
L312.228 583.07
L312.898 582.941
L313.567 582.941
L314.237 582.779
L314.906 582.941
L318.924 583.07
L320.263 583.006
L320.933 583.135
L321.602 582.779
L322.272 583.038
L326.29 582.941
L326.959 582.941
L327.629 583.07
L328.298 583.07
L328.968 582.941
L329.638 583.07
L334.994 583.103
L335.664 582.941
L336.334 583.07
L337.003 583.006
L337.673 583.103
L338.342 582.973
L339.012 583.135
L341.69 583.07
L345.708 583.168
L346.378 583.07
L347.717 583.168
L349.726 583.07
L351.734 583.2
L355.082 583.103
L355.752 583.2
L357.761 583.168
L359.1 583.135
L443.47 583.135
L444.139 582.196
L445.478 577.53
L446.818 570.37
L447.487 564.732
L448.157 560.585
L448.826 558.382
L449.496 553.651
L450.166 551.804
L450.835 546.977
L452.174 539.006
L452.844 535.896
L454.183 528.282
L454.853 523.13
L455.522 520.15
L457.531 506.606
L458.201 499.414
L458.87 497.567
L459.54 490.957
L460.21 487.523
L460.879 481.432
L461.549 478.742
L462.218 477.479
L462.888 470.999
L464.227 464.713
L464.897 463.19
L465.566 460.566
L466.236 454.086
L466.906 458.104
L467.575 458.201
L468.245 455.382
L468.914 459.691
L469.584 455.479
L470.254 455.641
L470.923 454.345
L471.593 457.423
L472.932 456.484
L473.602 457.196
L474.271 457.553
L474.941 458.849
L476.28 462.218
L476.95 462.866
L477.619 467.111
L478.289 469.217
L478.958 469.994
L479.628 471.938
L480.298 471.647
L480.967 478.062
L481.637 477.673
L482.306 478.742
L482.976 480.298
L483.646 482.144
L484.315 482.144
L484.985 486
L485.654 486.162
L486.324 489.694
L486.994 489.985
L487.663 488.916
L488.333 491.573
L489.002 491.638
L489.672 496.66
L490.342 495.266
L491.011 499.9
L491.681 499.154
L492.35 502.135
L493.02 503.852
L493.69 503.917
L494.359 504.889
L495.029 503.723
L496.368 510.397
L497.038 508.324
L497.707 509.49
L498.377 511.888
L499.046 512.6
L499.716 515.03
L500.386 514.739
L501.055 513.313
L501.725 518.011
L502.394 515.322
L503.064 515.257
L503.734 516.553
L504.403 515.678
L505.742 516.683
L506.412 521.316
L507.082 519.599
L507.751 517.558
L508.421 518.886
L509.09 517.979
L509.76 518.4
L510.43 521.64
L511.099 521.284
L511.769 521.251
L512.438 519.858
L513.108 523.616
L513.778 522.158
L514.447 519.016
L515.117 522.547
L515.786 520.506
L516.456 520.571
L517.126 524.653
L517.795 521.024
L518.465 518.173
L519.134 520.312
L519.804 523.746
L520.474 523.519
L521.143 521.219
L521.813 522.288
L522.482 522.547
L523.152 525.139
L523.822 525.755
L524.491 525.528
L525.161 526.856
L527.17 525.042
L527.839 528.282
L528.509 527.958
L529.178 530.161
L529.848 527.893
L530.518 529.481
L531.187 529.092
L531.857 529.06
L532.526 530.42
L533.196 530.615
L533.866 530.258
L534.535 530.971
L535.205 532.559
L535.874 530.129
L536.544 529.772
L537.214 531.911
L537.883 531.814
L538.553 534.406
L539.222 533.045
L539.892 531.198
L540.562 533.077
L541.901 534.406
L542.57 533.79
L543.24 535.831
L543.91 533.596
L544.579 535.054
L545.249 536.155
L545.918 535.183
L546.588 535.021
L547.258 537.548
L547.927 536.414
L548.597 537.646
L549.266 535.216
L549.936 536.22
L550.606 536.382
L551.275 535.021
L551.945 535.637
L552.614 537.354
L553.284 535.378
L553.954 538.844
L554.623 538.326
L555.293 538.585
L555.962 536.512
L556.632 537.289
L557.302 539.071
L557.971 539.395
L558.641 538.585
L559.31 539.784
L559.98 539.33
L560.65 538.391
L561.319 539.492
L561.989 538.812
L562.658 539.395
L563.328 541.501
L563.998 539.914
L564.667 539.719
L565.337 541.501
L566.006 542.344
L566.676 541.436
L567.346 541.955
L568.015 541.404
L569.354 544.579
L570.024 542.441
L570.694 543.607
L571.363 545.065
L572.033 545.486
L572.702 546.232
L574.042 545.778
L574.711 546.458
L575.381 545.843
L576.05 545.065
L576.72 545.357
L577.39 544.676
L578.059 546.88
L578.729 546.296
L579.398 546.62
L580.068 547.171
L580.738 548.759
L581.407 549.601
L582.077 546.426
L582.746 549.472
L583.416 549.601
L584.086 550.8
L584.755 548.986
L585.425 549.115
L586.094 549.828
L586.764 550.994
L587.434 550.573
L588.103 551.61
L588.773 550.962
L590.112 551.092
L590.782 551.966
L591.451 550.703
L592.121 551.772
L592.79 550.087
L593.46 552.874
L594.13 551.772
L594.799 552.744
L595.469 551.804
L596.138 550.184
L596.808 551.513
L597.478 552.485
L598.147 552.161
L598.817 552.938
L599.486 554.72
L600.156 552.841
L600.826 552.517
L601.495 552.388
L602.165 554.267
L602.834 554.98
L603.504 554.526
L604.174 555.887
L604.843 554.882
L605.513 555.984
L606.182 554.623
L606.852 555.822
L607.522 554.98
L608.191 555.433
L608.861 554.494
L609.53 555.822
L610.2 556.438
L611.539 556.211
L612.209 556.276
L612.878 558.155
L613.548 557.021
L614.218 556.664
L614.887 558.349
L615.557 557.507
L616.226 556.243
L616.896 559.386
L617.566 558.9
L618.235 558.997
L618.905 560.228
L619.574 559.192
L620.244 558.738
L620.914 559.872
L621.583 560.034
L622.253 560.747
L622.922 559.969
L623.592 558.738
L624.262 559.645
L624.931 562.788
L626.27 561.103
L627.61 562.853
L628.279 561.848
L630.288 563.209
L630.958 562.334
L631.627 562.01
L632.297 563.144
L632.966 563.371
L633.636 562.853
L634.306 562.043
L634.975 563.63
L635.645 562.529
L636.314 563.566
L636.984 565.153
L637.654 563.76
L638.323 564.246
L638.993 564.052
L639.662 563.695
L640.332 564.7
L641.002 564.959
L641.671 564.278
L642.341 564.44
L643.01 565.574
L643.68 566.482
L644.35 565.639
L645.019 566.546
L645.689 566.676
L646.358 566.384
L647.028 566.482
L647.698 566.903
L648.367 567.065
L649.037 566.384
L649.706 566.255
L650.376 566.611
L651.046 568.231
L651.715 566.87
L652.385 566.482
L653.054 567.032
L653.724 568.426
L654.394 567
L655.063 568.296
L655.733 568.199
L656.402 567.94
L657.072 568.879
L657.742 568.717
L658.411 569.592
L659.081 569.981
L659.75 568.296
L660.42 568.717
L661.09 568.652
L661.759 569.203
L662.429 568.555
L663.098 569.074
L663.768 568.231
L664.438 569.462
L665.107 569.074
L665.777 570.532
L666.446 570.143
L667.116 572.022
L668.455 572.184
L669.125 571.309
L669.794 571.536
L670.464 571.212
L671.134 571.73
L671.803 571.018
L672.473 572.735
L673.142 572.735
L673.812 571.439
L674.482 572.735
L675.151 572.443
L675.821 573.642
L676.49 572.864
L677.16 572.573
L677.83 573.318
L679.169 573.934
L679.838 573.221
L680.508 573.966
L681.178 574.355
L681.847 574.096
L682.517 573.61
L683.186 574.97
L683.856 575.068
L684.526 573.48
L685.865 574.193
L686.534 575.651
L687.204 574.355
L687.874 574.29
L688.543 574.063
L689.213 574.452
L689.882 575.327
L690.552 575.23
L691.222 575.91
L691.891 575.489
L692.561 576.202
L693.9 576.137
L694.57 575.327
L695.239 575.942
L695.909 575.392
L696.578 575.813
L697.248 575.456
L697.918 577.044
L698.587 576.072
L699.257 576.493
L699.926 577.627
L701.266 576.202
L701.935 576.461
L702.605 577.433
L703.274 576.493
L703.944 577.206
L704.614 577.271
L705.283 576.526
L705.953 577.562
L706.622 577.627
L707.292 577.336
L708.631 577.692
L709.301 577.498
L709.97 576.882
L710.64 577.595
L711.31 577.724
L711.979 578.048
L712.649 577.4
L713.318 577.724
L713.988 577.789
L714.658 578.178
L715.327 578.081
L715.997 577.757
L716.666 578.048
L717.336 577.66
L718.006 578.372
L719.345 577.919
L720.014 578.437
L720.684 578.664
L721.354 578.048
L722.023 578.243
L723.362 578.372
L724.032 578.081
L724.702 578.567
L725.371 578.308
L726.041 578.21
L726.71 578.696
L728.05 578.858
L728.719 578.794
L729.389 579.085
L730.058 578.632
L730.728 579.247
L731.398 578.567
L732.067 578.696
L733.406 579.474
L734.076 578.729
L734.746 579.118
L735.415 579.28
L736.085 579.182
L736.754 579.539
L738.094 579.766
L738.763 579.377
L739.433 579.28
L740.102 579.701
L740.772 579.474
L742.111 579.474
L742.781 579.863
L743.45 579.928
L744.12 579.83
L744.79 580.381
L745.459 579.766
L746.129 579.571
L746.798 580.252
L748.138 579.668
L748.807 580.025
L749.477 580.122
L750.146 580.09
L751.486 579.668
L752.155 580.057
L752.825 580.284
L753.494 580.219
L754.164 579.992
L754.834 580.316
L756.173 580.219
L757.512 580.219
L758.182 579.733
L758.851 580.284
L759.521 579.733
L760.19 580.187
L760.86 580.446
L762.199 580.09
L762.869 580.219
L763.538 580.673
L764.208 580.381
L764.878 580.478
L765.547 580.867
L766.217 580.478
L766.886 581.062
L767.556 580.932
L768.226 580.511
L768.895 580.252
L769.565 581.029
L770.234 581.418
L770.904 580.9
L771.574 581.029
L772.913 580.964
L774.922 581.612
L775.591 581.029
L776.261 581.191
L776.93 581.191
L777.6 581.029
L777.6 581.029" style="fill:none;stroke:#ff0000;stroke-linecap:square;"/>
   </g>
   <g id="line2d_2">
    <path clip-path="url(#p7ceb695115)" d="
M108 580.414
L108.67 582.422
L109.339 582.779
L110.009 582.973
L110.678 583.006
L112.018 582.876
L112.687 582.876
L114.696 582.26
L115.366 582.26
L116.035 581.936
L116.705 582.098
L117.374 581.71
L118.714 581.742
L119.383 581.321
L120.053 581.191
L121.392 581.353
L122.062 581.321
L122.731 581.094
L123.401 581.094
L124.74 581.677
L125.41 581.774
L126.079 581.483
L126.749 580.964
L127.418 580.705
L128.758 581.191
L130.097 580.802
L130.766 581.353
L131.436 581.677
L132.106 581.094
L132.775 581.515
L133.445 581.094
L134.114 580.835
L134.784 581.191
L135.454 580.835
L136.123 581.191
L136.793 581.386
L137.462 581.029
L138.132 580.9
L138.802 581.224
L139.471 581.062
L140.141 580.381
L140.81 580.576
L141.48 580.576
L142.15 580.802
L143.489 580.867
L144.158 581.321
L144.828 580.964
L145.498 580.932
L146.167 581.094
L146.837 581.386
L147.506 580.932
L148.176 580.187
L148.846 581.515
L149.515 581.159
L150.185 581.126
L150.854 580.252
L151.524 580.705
L152.194 580.284
L152.863 580.381
L153.533 581.029
L154.202 580.932
L155.542 581.126
L156.211 580.738
L156.881 581.256
L157.55 580.867
L158.22 580.673
L158.89 580.835
L159.559 581.353
L160.229 580.835
L160.898 581.256
L161.568 581.094
L162.907 581.321
L163.577 581.094
L164.246 581.386
L164.916 581.288
L165.586 581.029
L166.255 581.321
L166.925 581.418
L168.934 581.224
L169.603 581.094
L170.273 581.612
L170.942 581.191
L173.621 581.386
L174.29 581.224
L175.63 581.548
L176.969 581.029
L177.638 581.515
L178.308 581.126
L178.978 581.45
L180.317 581.353
L180.986 581.159
L181.656 581.159
L182.326 581.353
L183.665 581.094
L185.004 581.742
L185.674 581.321
L187.013 581.353
L187.682 580.9
L188.352 581.515
L189.022 581.029
L189.691 580.932
L190.361 581.288
L191.03 581.418
L191.7 581.321
L192.37 581.677
L193.039 581.386
L193.709 581.612
L194.378 581.58
L195.048 581.386
L195.718 581.645
L196.387 582.098
L197.057 581.904
L197.726 581.515
L199.066 582.163
L199.735 581.677
L200.405 581.872
L201.074 581.645
L201.744 581.774
L202.414 581.418
L203.083 581.904
L203.753 581.742
L204.422 582.131
L205.092 581.677
L205.762 581.386
L206.431 581.71
L207.101 581.904
L207.77 581.677
L208.44 581.71
L209.11 581.418
L209.779 581.969
L210.449 581.126
L211.118 581.71
L211.788 581.386
L212.458 581.839
L213.127 581.969
L213.797 581.936
L214.466 581.742
L215.136 581.807
L215.806 581.418
L217.145 581.807
L217.814 581.677
L218.484 581.742
L219.154 581.969
L219.823 581.774
L220.493 582.098
L223.171 582.001
L223.841 581.742
L224.51 581.839
L225.85 581.515
L226.519 581.612
L227.189 582.066
L227.858 582.098
L228.528 582.001
L229.198 582.131
L229.867 582.098
L231.206 581.71
L231.876 582.163
L232.546 582.098
L233.215 581.742
L233.885 582.034
L234.554 582.196
L235.224 582.196
L235.894 582.39
L236.563 582.098
L237.233 582.422
L237.902 582.293
L240.581 582.39
L241.25 582.487
L243.259 582.098
L243.929 582.39
L244.598 582.066
L245.938 582.163
L246.607 582.39
L247.946 582.228
L248.616 582.131
L249.286 582.52
L251.294 582.293
L251.964 582.001
L252.634 582.584
L253.303 582.163
L253.973 582.163
L254.642 582.455
L256.651 582.39
L257.321 582.228
L257.99 582.487
L258.66 582.422
L259.33 582.034
L260.669 582.39
L262.008 582.26
L262.678 582.066
L263.347 582.163
L264.017 582.422
L266.026 582.325
L267.365 582.293
L268.034 582.39
L268.704 582.098
L270.713 582.39
L271.382 582.487
L272.052 582.163
L272.722 582.422
L273.391 582.487
L274.061 582.422
L274.73 582.552
L275.4 582.422
L276.07 582.714
L276.739 582.228
L277.409 582.293
L278.078 582.779
L278.748 582.39
L279.418 582.131
L280.087 582.228
L280.757 582.098
L281.426 582.422
L282.096 582.487
L282.766 582.26
L283.435 582.26
L284.105 582.455
L284.774 582.325
L285.444 582.584
L286.114 582.163
L286.783 582.487
L288.122 582.552
L288.792 582.325
L289.462 582.552
L290.131 582.487
L290.801 582.26
L291.47 582.39
L292.14 582.131
L292.81 582.487
L293.479 582.325
L294.818 582.358
L295.488 582.487
L296.158 582.844
L296.827 582.325
L298.166 582.39
L299.506 582.584
L300.175 582.422
L300.845 582.487
L301.514 582.358
L302.184 582.422
L302.854 582.26
L303.523 582.293
L304.193 582.584
L304.862 582.422
L305.532 582.617
L306.202 582.649
L308.21 582.358
L308.88 582.584
L314.237 582.422
L314.906 582.552
L316.915 582.39
L317.585 582.422
L318.254 582.649
L318.924 582.552
L319.594 582.228
L320.263 582.098
L320.933 582.455
L321.602 582.487
L322.272 582.39
L322.942 582.52
L323.611 582.358
L325.62 582.584
L326.29 582.066
L326.959 582.422
L327.629 582.455
L328.298 582.163
L328.968 582.682
L330.307 582.746
L330.977 582.584
L334.325 582.714
L334.994 582.584
L337.003 582.714
L337.673 582.584
L338.342 582.779
L339.012 582.682
L341.021 582.908
L342.36 582.876
L343.03 582.973
L343.699 582.876
L344.369 583.006
L345.708 582.973
L346.378 583.006
L347.717 582.746
L349.056 583.07
L351.065 582.908
L353.743 583.135
L354.413 583.07
L355.082 582.876
L357.091 583.168
L359.1 583.07
L359.77 583.168
L360.439 583.038
L361.109 583.168
L361.778 583.135
L362.448 582.844
L363.118 583.103
L363.787 582.779
L364.457 583.038
L365.796 583.07
L366.466 583.135
L367.805 583.006
L369.144 583.07
L369.814 582.973
L370.483 583.07
L373.162 583.038
L373.831 583.103
L374.501 583.006
L375.17 583.135
L377.179 583.006
L380.527 583.07
L383.206 583.103
L383.875 582.941
L384.545 583.103
L385.884 582.973
L386.554 583.135
L388.562 583.038
L389.232 583.006
L389.902 583.103
L390.571 582.973
L391.241 583.103
L393.25 582.973
L396.598 583.038
L397.267 582.973
L399.276 583.103
L399.946 583.103
L400.615 582.973
L401.285 583.07
L401.954 583.006
L402.624 583.168
L403.963 583.038
L406.642 582.973
L407.981 583.135
L409.32 583.103
L409.99 583.168
L410.659 583.038
L411.998 583.135
L414.677 583.103
L415.346 583.135
L416.016 583.006
L416.686 583.135
L418.694 583.038
L421.373 583.07
L422.042 583.168
L426.06 583.006
L426.73 583.07
L427.399 583.006
L428.738 583.135
L429.408 583.006
L430.078 583.07
L430.747 582.941
L431.417 583.103
L432.756 583.103
L434.095 583.07
L435.434 583.103
L436.104 583.006
L437.443 583.038
L438.113 583.038
L438.782 583.168
L441.461 583.006
L442.13 583.168
L442.8 583.038
L443.47 582.649
L444.139 578.891
L444.809 570.985
L445.478 559.516
L448.826 484.607
L449.496 471.388
L450.166 454.572
L450.835 442.973
L456.192 308.999
L456.862 287.096
L458.201 256.932
L458.87 232.762
L460.21 202.37
L461.549 160.153
L464.227 112.525
L464.897 105.98
L465.566 95.9688
L466.236 94.8672
L466.906 89.6508
L467.575 81.486
L468.245 81.0972
L468.914 71.1504
L469.584 69.4656
L470.254 71.118
L472.932 79.542
L473.602 82.5552
L474.271 80.9676
L474.941 90.8172
L475.61 91.7892
L477.619 111.1
L478.289 120.982
L478.958 133.52
L480.967 151.049
L481.637 161.19
L482.306 164.171
L482.976 174.701
L483.646 178.297
L484.315 188.471
L484.985 191.516
L485.654 196.96
L486.324 199.973
L486.994 208.235
L487.663 214.618
L488.333 217.566
L489.672 231.919
L490.342 244.037
L491.011 249.545
L491.681 256.154
L492.35 258.811
L493.02 260.107
L493.69 269.471
L494.359 267.721
L495.698 278.964
L496.368 280.616
L497.038 288.004
L497.707 289.3
L498.377 295.974
L499.046 297.432
L499.716 304.042
L500.386 314.15
L501.055 316.094
L501.725 310.457
L502.394 316.256
L503.064 314.28
L503.734 319.626
L504.403 321.862
L505.073 319.594
L506.412 323.935
L507.082 325.102
L507.751 323.384
L508.421 323.773
L509.09 326.657
L509.76 326.138
L510.43 326.398
L511.769 334.66
L512.438 337.446
L513.108 336.085
L513.778 334.012
L514.447 337.252
L515.117 335.534
L515.786 339.228
L516.456 337.154
L517.126 331.322
L517.795 337.122
L518.465 337.057
L519.134 337.705
L519.804 334.627
L520.474 340.718
L521.143 341.269
L521.813 339.26
L522.482 345.708
L523.152 344.347
L523.822 350.147
L524.491 353.97
L525.161 351.832
L525.83 351.637
L526.5 356.465
L527.17 359.575
L527.839 358.376
L528.509 364.403
L529.178 364.824
L529.848 367.157
L530.518 363.755
L531.187 366.736
L531.857 366.833
L532.526 371.239
L533.196 376.682
L533.866 376.585
L534.535 372.989
L535.205 370.98
L535.874 372.373
L536.544 378.238
L537.214 376.585
L537.883 375.97
L538.553 377.298
L539.892 384.491
L540.562 385.106
L541.231 383.389
L541.901 387.504
L542.57 386.273
L543.24 390.29
L543.91 392.558
L544.579 395.701
L545.249 394.081
L545.918 393.271
L546.588 393.984
L547.258 395.053
L547.927 397.742
L548.597 393.628
L549.266 396.511
L549.936 396.835
L550.606 396.673
L551.275 398.552
L551.945 399.784
L552.614 399.881
L553.284 404.935
L553.954 396.511
L554.623 401.663
L555.962 405.94
L556.632 404.093
L557.302 404.87
L557.971 406.393
L558.641 403.542
L559.31 403.801
L559.98 405.065
L560.65 405.583
L561.319 406.652
L561.989 411.156
L562.658 412.42
L563.328 413.23
L563.998 412.646
L564.667 413.683
L565.337 411.966
L566.006 415.854
L566.676 415.984
L567.346 414.785
L568.015 419.645
L568.685 420.034
L569.354 424.278
L570.024 424.861
L571.363 432.346
L572.033 432.54
L572.702 431.536
L573.372 433.609
L574.042 436.104
L574.711 433.447
L575.381 435.262
L576.05 435.456
L577.39 436.428
L578.059 435.424
L578.729 440.186
L579.398 442.487
L580.738 445.889
L581.407 445.111
L582.077 447.282
L582.746 446.148
L583.416 448.222
L584.086 445.046
L584.755 452.336
L585.425 452.92
L586.094 449.712
L586.764 454.669
L587.434 453.373
L588.103 453.503
L588.773 454.183
L589.442 454.313
L590.782 457.067
L591.451 456.71
L592.121 456.095
L592.79 457.942
L593.46 452.66
L594.13 457.294
L594.799 456.613
L595.469 456.71
L596.138 460.534
L596.808 457.391
L597.478 460.177
L598.147 457.585
L598.817 459.756
L600.156 463.32
L600.826 460.76
L601.495 464.551
L602.165 465.685
L602.834 465.685
L603.504 471.55
L604.174 467.856
L604.843 470.383
L605.513 469.411
L606.182 470.027
L606.852 469.93
L607.522 472.198
L608.191 473.494
L608.861 470.545
L609.53 470.642
L610.87 472.003
L611.539 476.053
L612.878 480.2
L613.548 482.89
L614.218 481.723
L614.887 482.112
L615.557 486.551
L616.226 487.879
L616.896 485.838
L617.566 489.175
L618.235 487.944
L618.905 485.384
L619.574 489.208
L620.244 489.046
L620.914 489.143
L621.583 490.568
L622.253 493.096
L622.922 493.679
L624.262 499.057
L624.931 497.372
L625.601 496.595
L626.27 497.599
L626.94 497.081
L627.61 497.275
L628.279 498.02
L629.618 500.936
L630.288 499.576
L630.958 503.042
L631.627 502.686
L632.297 501.034
L632.966 501.487
L633.636 501.358
L634.306 505.084
L634.975 504.5
L636.314 506.218
L636.984 504.468
L637.654 508.81
L638.323 509.036
L638.993 506.704
L639.662 506.153
L640.332 505.181
L641.002 507.643
L641.671 508.194
L642.341 511.207
L643.01 509.749
L643.68 511.207
L644.35 511.628
L645.019 513.508
L645.689 514.512
L646.358 516.877
L647.028 515.776
L647.698 517.298
L648.367 517.817
L649.037 518.141
L649.706 517.396
L650.376 518.854
L651.046 519.664
L651.715 521.251
L652.385 519.988
L653.054 521.996
L653.724 523.649
L654.394 523.13
L655.063 521.446
L655.733 525.658
L656.402 522.256
L657.072 526.208
L657.742 525.917
L658.411 527.602
L659.081 525.074
L659.75 527.31
L660.42 527.051
L661.09 528.736
L661.759 528.606
L662.429 530.68
L663.098 529.254
L663.768 528.444
L664.438 531.328
L665.107 532.948
L665.777 532.494
L666.446 534.47
L667.116 535.021
L667.786 535.896
L668.455 537.062
L669.125 536.447
L669.794 537.97
L670.464 538.099
L671.803 537.419
L672.473 537.775
L673.142 539.428
L673.812 540.205
L674.482 540.529
L675.151 540.724
L675.821 541.858
L676.49 542.506
L677.16 544.903
L677.83 546.232
L678.499 545.162
L679.169 544.482
L679.838 543.348
L681.178 544.774
L681.847 548.759
L682.517 549.601
L683.186 549.472
L683.856 548.273
L684.526 547.949
L685.195 548.046
L685.865 549.18
L686.534 547.787
L687.204 547.981
L687.874 550.055
L688.543 549.277
L689.213 550.897
L689.882 552.096
L690.552 552.517
L691.222 552.485
L691.891 553.748
L692.561 552.582
L693.23 553.975
L693.9 555.077
L694.57 555.206
L695.239 554.17
L695.909 552.874
L696.578 554.72
L697.248 554.72
L697.918 555.79
L698.587 558.155
L699.257 557.928
L699.926 557.15
L700.596 556.859
L701.266 556.826
L701.935 559.807
L702.605 558.965
L703.274 559.937
L703.944 559.192
L704.614 558.803
L705.283 558.641
L705.953 558.997
L706.622 558.317
L707.292 559.58
L707.962 558.673
L708.631 560.164
L709.301 561.233
L710.64 559.548
L711.979 560.455
L712.649 562.658
L713.318 562.205
L713.988 561.492
L714.658 562.334
L715.327 562.626
L715.997 562.691
L716.666 562.982
L717.336 564.311
L718.006 561.751
L718.675 564.376
L719.345 564.538
L720.014 563.274
L720.684 564.991
L721.354 564.246
L722.023 563.015
L722.693 562.237
L723.362 562.723
L724.702 565.218
L725.371 564.926
L726.041 564.926
L726.71 564.084
L727.38 566.708
L728.05 567.68
L728.719 567.356
L729.389 565.996
L730.058 565.639
L730.728 565.769
L731.398 565.769
L732.067 565.898
L732.737 566.384
L733.406 567.454
L734.076 566.773
L734.746 566.903
L735.415 567.778
L736.085 567.94
L736.754 567.778
L737.424 567.842
L738.094 568.166
L738.763 568.782
L739.433 568.75
L740.102 566.935
L740.772 568.328
L741.442 567.518
L742.111 569.3
L742.781 570.564
L744.12 570.078
L744.79 569.722
L746.129 570.629
L746.798 569.592
L747.468 570.467
L748.138 570.37
L748.807 570.499
L749.477 570.305
L750.146 570.596
L750.816 572.249
L751.486 571.082
L752.155 570.856
L752.825 571.439
L753.494 571.471
L754.164 571.99
L754.834 571.892
L755.503 572.443
L756.173 571.666
L756.842 572.508
L757.512 571.082
L758.182 571.568
L758.851 571.763
L759.521 571.18
L760.19 571.536
L760.86 571.212
L761.53 572.67
L762.199 571.73
L762.869 572.573
L763.538 572.281
L764.878 573.124
L765.547 572.897
L766.217 573.512
L766.886 572.864
L767.556 573.318
L768.895 573.707
L769.565 573.512
L770.234 574.97
L770.904 573.545
L771.574 573.869
L772.243 573.674
L772.913 575.456
L773.582 575.1
L774.922 574.646
L776.261 575.424
L776.93 575.392
L777.6 574.711
L777.6 574.711" style="fill:none;stroke:#008000;stroke-linecap:square;"/>
   </g>
   <g id="line2d_3">
    <path clip-path="url(#p7ceb695115)" d="
M108 582.52
L108.67 583.135
L110.678 583.038
L111.348 583.168
L112.687 583.038
L114.026 582.908
L114.696 582.811
L116.035 582.941
L117.374 582.908
L118.714 582.779
L119.383 582.649
L120.722 582.714
L121.392 582.941
L122.062 582.52
L124.07 582.941
L124.74 582.714
L125.41 582.844
L126.079 582.487
L126.749 582.746
L127.418 582.617
L130.097 582.811
L133.445 582.682
L134.114 582.941
L134.784 582.584
L136.123 582.649
L136.793 582.876
L137.462 582.552
L140.141 582.422
L143.489 582.811
L144.828 582.844
L145.498 582.682
L146.837 582.746
L147.506 582.487
L149.515 582.746
L150.185 582.455
L150.854 582.779
L152.863 582.746
L153.533 582.487
L154.202 582.422
L155.542 582.649
L156.211 582.876
L159.559 582.455
L160.229 582.908
L160.898 582.811
L161.568 582.584
L162.907 582.779
L163.577 582.487
L165.586 582.811
L166.925 582.584
L167.594 582.649
L168.264 582.584
L168.934 582.844
L169.603 582.876
L170.273 582.682
L174.96 582.746
L175.63 582.908
L176.299 582.617
L176.969 582.714
L177.638 582.552
L178.308 582.714
L178.978 582.746
L179.647 582.941
L180.986 582.714
L181.656 582.779
L182.326 582.422
L182.995 582.487
L183.665 582.908
L184.334 582.811
L185.004 582.584
L186.343 582.746
L187.013 582.584
L187.682 582.844
L188.352 582.552
L189.022 582.908
L189.691 582.649
L190.361 582.552
L191.03 582.844
L191.7 582.714
L192.37 582.714
L193.039 582.876
L193.709 582.714
L194.378 582.876
L195.048 582.876
L195.718 582.617
L197.057 582.876
L201.744 582.844
L202.414 582.746
L203.083 582.941
L204.422 582.908
L205.092 582.746
L205.762 582.779
L206.431 582.584
L207.101 582.811
L207.77 582.714
L208.44 582.973
L209.11 582.844
L209.779 582.876
L210.449 582.779
L211.118 582.908
L211.788 582.779
L212.458 582.876
L213.797 582.811
L214.466 582.973
L215.136 582.844
L217.814 582.876
L220.493 582.779
L221.162 583.006
L225.18 582.811
L225.85 582.487
L227.189 582.779
L227.858 582.908
L228.528 582.876
L229.867 583.038
L230.537 582.811
L231.206 583.006
L231.876 582.941
L232.546 583.038
L233.215 583.006
L233.885 582.844
L235.224 582.973
L236.563 582.941
L239.911 583.038
L240.581 582.941
L241.92 583.07
L243.259 583.006
L243.929 582.779
L244.598 582.973
L245.268 583.038
L246.607 582.876
L247.277 583.07
L247.946 582.779
L248.616 582.973
L249.286 583.006
L250.625 582.844
L251.294 582.973
L252.634 583.006
L253.303 583.103
L254.642 582.908
L255.312 583.006
L255.982 582.844
L256.651 582.811
L257.321 582.973
L257.99 582.811
L259.33 583.006
L259.999 582.973
L260.669 583.135
L261.338 583.103
L262.008 582.844
L262.678 583.135
L263.347 582.811
L264.017 583.006
L264.686 583.038
L265.356 582.844
L266.026 582.779
L266.695 582.973
L267.365 582.908
L268.704 583.038
L269.374 582.876
L270.713 583.135
L272.052 582.941
L274.73 583.103
L275.4 582.876
L276.07 582.973
L276.739 582.844
L277.409 583.168
L278.078 583.07
L278.748 583.103
L279.418 582.973
L281.426 583.07
L282.096 582.941
L282.766 583.103
L283.435 583.006
L284.105 583.103
L285.444 582.973
L288.792 583.07
L289.462 582.908
L290.131 583.07
L290.801 582.908
L292.14 582.973
L304.193 582.973
L304.862 582.811
L305.532 583.006
L308.88 582.973
L309.55 582.779
L310.219 582.973
L311.558 583.07
L312.898 582.973
L313.567 583.103
L314.237 582.908
L315.576 583.07
L316.246 583.038
L316.915 583.135
L317.585 583.038
L318.254 583.135
L318.924 582.844
L319.594 583.006
L320.933 583.006
L322.942 583.038
L323.611 582.973
L324.281 583.135
L325.62 583.038
L326.29 583.07
L326.959 582.941
L327.629 583.103
L328.298 583.006
L332.316 583.103
L334.325 582.941
L334.994 583.103
L443.47 583.006
L444.139 582.066
L444.809 580.835
L447.487 567.13
L448.826 558.544
L449.496 554.234
L450.166 549.018
L450.835 547.981
L451.505 543.283
L453.514 532.559
L454.853 521.899
L455.522 518.044
L456.192 512.665
L456.862 508.972
L457.531 505.958
L458.87 495.558
L459.54 492.124
L460.21 485.773
L460.879 481.172
L461.549 479.552
L462.218 474.012
L462.888 470.804
L463.558 468.374
L464.227 466.852
L464.897 461.344
L465.566 462.089
L466.906 455.9
L467.575 460.534
L468.245 455.609
L469.584 455.058
L470.254 455.058
L470.923 455.188
L471.593 453.47
L472.262 455.447
L472.932 455.22
L473.602 454.475
L474.271 461.311
L474.941 455.479
L475.61 461.052
L476.95 466.657
L477.619 467.662
L478.289 467.953
L478.958 469.444
L479.628 467.564
L480.298 475.502
L480.967 473.947
L481.637 475.373
L482.306 479.876
L482.976 478.678
L484.315 484.088
L484.985 487.264
L485.654 486.713
L486.324 488.884
L486.994 487.102
L487.663 492.642
L489.002 495.688
L489.672 494.489
L490.342 495.461
L491.011 499.964
L491.681 501.034
L492.35 500.71
L493.02 503.95
L493.69 503.302
L494.359 507.676
L495.029 508.712
L496.368 507.092
L497.038 510.138
L497.707 510.818
L498.377 511.855
L499.046 513.248
L499.716 513.734
L500.386 510.138
L501.055 513.67
L501.725 513.508
L502.394 514.868
L503.064 517.59
L503.734 514.415
L504.403 515.743
L505.073 516.78
L505.742 515.711
L507.082 516.942
L507.751 521.575
L508.421 520.96
L509.09 519.469
L509.76 521.381
L510.43 520.96
L511.099 520.895
L511.769 519.534
L512.438 520.798
L513.108 517.849
L513.778 521.996
L514.447 521.089
L515.117 521.802
L516.456 520.895
L517.126 521.608
L517.795 520.376
L518.465 522.482
L519.134 521.251
L519.804 524.588
L520.474 521.381
L521.143 522.806
L521.813 523.066
L522.482 521.672
L523.822 525.042
L524.491 526.111
L525.161 524.88
L525.83 525.042
L527.17 527.18
L527.839 526.792
L528.509 525.56
L529.178 528.736
L529.848 529.708
L530.518 529.157
L531.187 526.338
L531.857 530.161
L532.526 531.749
L533.196 530.485
L533.866 528.509
L534.535 531.23
L535.205 531.976
L535.874 530.258
L536.544 533.11
L537.214 532.85
L537.883 535.118
L538.553 530.874
L539.222 533.401
L540.562 535.799
L541.901 533.92
L542.57 536.609
L543.24 535.28
L543.91 536.447
L544.579 534.794
L545.249 536.026
L545.918 535.507
L546.588 535.766
L547.258 537.581
L547.927 535.928
L548.597 537.16
L549.266 536.285
L549.936 536.188
L550.606 537.937
L551.275 535.831
L552.614 537.127
L553.284 537.16
L553.954 537.775
L554.623 536.9
L555.293 537.775
L555.962 536.868
L556.632 538.294
L557.302 538.488
L557.971 537.16
L558.641 537.419
L559.31 536.22
L559.98 539.557
L560.65 538.747
L561.319 538.715
L561.989 538.877
L562.658 539.687
L563.328 539.557
L563.998 542.117
L564.667 540.626
L565.337 542.83
L566.006 541.112
L567.346 539.914
L568.015 539.266
L568.685 541.404
L569.354 540.302
L570.024 543.024
L570.694 543.834
L571.363 542.473
L572.033 545.324
L572.702 547.074
L573.372 545.324
L574.042 544.352
L574.711 546.718
L575.381 545.26
L576.05 546.62
L577.39 546.88
L578.059 548.078
L578.729 547.236
L579.398 548.5
L580.068 547.56
L580.738 547.204
L581.407 546.361
L582.077 547.69
L582.746 547.333
L583.416 549.018
L584.086 549.828
L584.755 549.212
L585.425 550.12
L586.094 551.448
L586.764 550.606
L587.434 551.286
L588.103 551.059
L588.773 549.99
L589.442 552.323
L590.112 550.8
L590.782 550.994
L591.451 551.545
L592.121 551.059
L592.79 549.99
L593.46 552.712
L594.13 550.411
L594.799 552.517
L595.469 551.448
L596.138 551.804
L596.808 553.651
L597.478 550.12
L598.147 553.424
L598.817 551.221
L599.486 551.869
L600.156 553.522
L600.826 553.392
L601.495 552.42
L602.165 552.679
L602.834 554.753
L603.504 553.327
L604.174 555.984
L604.843 555.239
L605.513 555.304
L606.182 554.332
L606.852 553.91
L607.522 556.762
L608.191 554.332
L608.861 555.854
L609.53 556.405
L610.2 555.466
L610.87 555.271
L611.539 555.336
L612.209 557.248
L612.878 558.349
L613.548 557.41
L614.218 558.511
L614.887 558.868
L615.557 560.617
L616.226 559.872
L616.896 560.164
L617.566 558.77
L618.235 560.261
L619.574 558.965
L620.244 559.84
L620.914 558.932
L621.583 559.969
L622.253 559.418
L622.922 562.27
L623.592 562.205
L624.262 560.358
L624.931 561.881
L625.601 562.82
L626.27 562.82
L626.94 562.075
L627.61 562.01
L628.279 562.464
L628.949 562.464
L629.618 562.205
L630.288 564.052
L630.958 563.08
L631.627 561.751
L632.297 563.857
L632.966 561.848
L633.636 563.987
L634.306 564.343
L634.975 564.311
L635.645 563.857
L636.314 565.024
L636.984 563.825
L637.654 564.764
L638.323 563.274
L638.993 563.436
L640.332 566.546
L641.002 564.052
L641.671 565.056
L643.01 565.024
L643.68 565.186
L644.35 565.963
L645.019 564.019
L645.689 565.736
L646.358 564.894
L647.028 566.093
L647.698 566.32
L648.367 565.866
L649.037 566.287
L650.376 568.069
L651.046 567.81
L651.715 567.292
L653.054 567.259
L653.724 567.745
L654.394 567.875
L655.063 568.458
L655.733 567.486
L656.402 569.365
L657.072 567.551
L657.742 570.046
L658.411 569.009
L659.081 569.398
L659.75 570.402
L660.42 569.268
L661.09 569.009
L661.759 569.398
L662.429 568.847
L663.098 568.75
L663.768 570.434
L664.438 570.272
L665.107 569.527
L666.446 570.629
L667.116 571.374
L667.786 571.18
L668.455 570.499
L669.125 571.277
L669.794 571.504
L670.464 572.152
L671.134 571.504
L671.803 571.568
L672.473 572.378
L673.142 571.666
L673.812 572.443
L674.482 572.281
L675.151 571.795
L675.821 572.605
L676.49 574.128
L677.16 572.929
L677.83 572.767
L678.499 573.156
L679.169 574.614
L679.838 573.901
L680.508 573.415
L681.178 573.804
L681.847 574.387
L682.517 574.517
L683.186 574.484
L683.856 575.359
L684.526 574.679
L685.195 574.873
L685.865 574.679
L686.534 574.096
L687.204 574.873
L687.874 574.938
L689.213 574.679
L689.882 574.776
L691.222 575.716
L691.891 575.132
L692.561 575.554
L693.23 575.489
L693.9 576.266
L694.57 575.716
L695.239 575.359
L695.909 575.813
L697.248 575.716
L697.918 576.558
L698.587 576.169
L699.257 577.368
L699.926 576.752
L700.596 576.72
L701.266 577.4
L701.935 576.266
L702.605 577.109
L703.274 576.85
L704.614 576.947
L705.283 577.595
L706.622 576.655
L707.292 577.303
L707.962 577.238
L708.631 577.562
L709.301 577.627
L709.97 577.109
L710.64 577.238
L711.31 577.984
L712.649 577.465
L713.988 578.372
L714.658 578.243
L715.327 578.372
L715.997 578.923
L716.666 578.308
L717.336 578.437
L718.006 578.243
L718.675 578.21
L719.345 578.729
L720.014 578.146
L720.684 578.081
L721.354 578.21
L722.023 578.599
L722.693 578.178
L723.362 578.113
L724.032 578.47
L726.041 578.567
L726.71 579.28
L727.38 578.956
L728.05 578.405
L728.719 578.988
L729.389 578.437
L730.058 578.696
L730.728 578.372
L731.398 578.599
L732.067 578.178
L733.406 578.729
L734.076 579.247
L734.746 579.053
L736.754 579.215
L737.424 579.701
L738.094 578.956
L738.763 579.701
L739.433 579.215
L740.102 579.118
L740.772 579.15
L741.442 579.992
L742.111 579.539
L742.781 579.701
L743.45 580.057
L744.12 579.442
L744.79 580.414
L745.459 579.766
L746.129 580.025
L746.798 580.478
L747.468 580.284
L748.807 579.701
L749.477 579.668
L750.146 580.284
L750.816 580.09
L751.486 580.122
L752.155 580.349
L752.825 580.381
L754.164 580.09
L754.834 580.025
L756.173 580.187
L756.842 579.733
L757.512 580.349
L758.182 579.409
L758.851 580.154
L759.521 580.673
L760.19 580.252
L760.86 580.835
L761.53 579.992
L762.199 580.705
L762.869 579.863
L764.208 580.867
L764.878 580.09
L765.547 580.187
L766.217 580.154
L766.886 580.446
L767.556 581.321
L768.226 580.64
L768.895 581.062
L770.234 580.349
L770.904 581.094
L771.574 580.738
L772.913 581.353
L773.582 581.418
L774.252 581.224
L775.591 581.548
L776.261 581.029
L777.6 581.548
L777.6 581.548" style="fill:none;stroke:#0000ff;stroke-linecap:square;"/>
   </g>
   <g id="patch_3">
    <path d="
M108 583.2
L777.6 583.2" style="fill:none;stroke:#000000;stroke-linecap:square;stroke-linejoin:miter;"/>
   </g>
   <g id="patch_4">
    <path d="
M777.6 583.2
L777.6 64.8" style="fill:none;stroke:#000000;stroke-linecap:square;stroke-linejoin:miter;"/>
   </g>
   <g id="patch_5">
    <path d="
M108 583.2
L108 64.8" style="fill:none;stroke:#000000;stroke-linecap:square;stroke-linejoin:miter;"/>
   </g>
   <g id="patch_6">
    <path d="
M108 64.8
L777.6 64.8" style="fill:none;stroke:#000000;stroke-linecap:square;stroke-linejoin:miter;"/>
   </g>
   <g id="matplotlib.axis_1">
    <g id="xtick_1">
     <g id="line2d_4">
      <defs>
       <path d="
M0 0
L0 -4" id="mc7db9fdffb" style="stroke:#000000;stroke-width:0.5;"/>
      </defs>
      <g>
       <use style="stroke:#000000;stroke-width:0.5;" x="108.0" xlink:href="#mc7db9fdffb" y="583.2"/>
      </g>
     </g>
     <g id="line2d_5">
      <defs>
       <path d="
M0 0
L0 4" id="m5a7d422ac3" style="stroke:#000000;stroke-width:0.5;"/>
      </defs>
      <g>
       <use style="stroke:#000000;stroke-width:0.5;" x="108.0" xlink:href="#m5a7d422ac3" y="64.8"/>
      </g>
     </g>
     <g id="text_1">
      <!-- 0 -->
      <defs>
       <path d="
M31.7812 66.4062
Q24.1719 66.4062 20.3281 58.9062
Q16.5 51.4219 16.5 36.375
Q16.5 21.3906 20.3281 13.8906
Q24.1719 6.39062 31.7812 6.39062
Q39.4531 6.39062 43.2812 13.8906
Q47.125 21.3906 47.125 36.375
Q47.125 51.4219 43.2812 58.9062
Q39.4531 66.4062 31.7812 66.4062
M31.7812 74.2188
Q44.0469 74.2188 50.5156 64.5156
Q56.9844 54.8281 56.9844 36.375
Q56.9844 17.9688 50.5156 8.26562
Q44.0469 -1.42188 31.7812 -1.42188
Q19.5312 -1.42188 13.0625 8.26562
Q6.59375 17.9688 6.59375 36.375
Q6.59375 54.8281 13.0625 64.5156
Q19.5312 74.2188 31.7812 74.2188" id="BitstreamVeraSans-Roman-30"/>
      </defs>
      <g transform="translate(104.9765625 596.318125)scale(0.12 -0.12)">
       <use xlink:href="#BitstreamVeraSans-Roman-30"/>
      </g>
     </g>
    </g>
    <g id="xtick_2">
     <g id="line2d_6">
      <g>
       <use style="stroke:#000000;stroke-width:0.5;" x="275.4" xlink:href="#mc7db9fdffb" y="583.2"/>
      </g>
     </g>
     <g id="line2d_7">
      <g>
       <use style="stroke:#000000;stroke-width:0.5;" x="275.4" xlink:href="#m5a7d422ac3" y="64.8"/>
      </g>
     </g>
     <g id="text_2">
      <!-- 50000 -->
      <defs>
       <path d="
M10.7969 72.9062
L49.5156 72.9062
L49.5156 64.5938
L19.8281 64.5938
L19.8281 46.7344
Q21.9688 47.4688 24.1094 47.8281
Q26.2656 48.1875 28.4219 48.1875
Q40.625 48.1875 47.75 41.5
Q54.8906 34.8125 54.8906 23.3906
Q54.8906 11.625 47.5625 5.09375
Q40.2344 -1.42188 26.9062 -1.42188
Q22.3125 -1.42188 17.5469 -0.640625
Q12.7969 0.140625 7.71875 1.70312
L7.71875 11.625
Q12.1094 9.23438 16.7969 8.0625
Q21.4844 6.89062 26.7031 6.89062
Q35.1562 6.89062 40.0781 11.3281
Q45.0156 15.7656 45.0156 23.3906
Q45.0156 31 40.0781 35.4375
Q35.1562 39.8906 26.7031 39.8906
Q22.75 39.8906 18.8125 39.0156
Q14.8906 38.1406 10.7969 36.2812
z
" id="BitstreamVeraSans-Roman-35"/>
      </defs>
      <g transform="translate(257.1740625 596.318125)scale(0.12 -0.12)">
       <use xlink:href="#BitstreamVeraSans-Roman-35"/>
       <use x="63.623046875" xlink:href="#BitstreamVeraSans-Roman-30"/>
       <use x="127.24609375" xlink:href="#BitstreamVeraSans-Roman-30"/>
       <use x="190.869140625" xlink:href="#BitstreamVeraSans-Roman-30"/>
       <use x="254.4921875" xlink:href="#BitstreamVeraSans-Roman-30"/>
      </g>
     </g>
    </g>
    <g id="xtick_3">
     <g id="line2d_8">
      <g>
       <use style="stroke:#000000;stroke-width:0.5;" x="442.8" xlink:href="#mc7db9fdffb" y="583.2"/>
      </g>
     </g>
     <g id="line2d_9">
      <g>
       <use style="stroke:#000000;stroke-width:0.5;" x="442.8" xlink:href="#m5a7d422ac3" y="64.8"/>
      </g>
     </g>
     <g id="text_3">
      <!-- 100000 -->
      <defs>
       <path d="
M12.4062 8.29688
L28.5156 8.29688
L28.5156 63.9219
L10.9844 60.4062
L10.9844 69.3906
L28.4219 72.9062
L38.2812 72.9062
L38.2812 8.29688
L54.3906 8.29688
L54.3906 0
L12.4062 0
z
" id="BitstreamVeraSans-Roman-31"/>
      </defs>
      <g transform="translate(420.9525 596.318125)scale(0.12 -0.12)">
       <use xlink:href="#BitstreamVeraSans-Roman-31"/>
       <use x="63.623046875" xlink:href="#BitstreamVeraSans-Roman-30"/>
       <use x="127.24609375" xlink:href="#BitstreamVeraSans-Roman-30"/>
       <use x="190.869140625" xlink:href="#BitstreamVeraSans-Roman-30"/>
       <use x="254.4921875" xlink:href="#BitstreamVeraSans-Roman-30"/>
       <use x="318.115234375" xlink:href="#BitstreamVeraSans-Roman-30"/>
      </g>
     </g>
    </g>
    <g id="xtick_4">
     <g id="line2d_10">
      <g>
       <use style="stroke:#000000;stroke-width:0.5;" x="610.2" xlink:href="#mc7db9fdffb" y="583.2"/>
      </g>
     </g>
     <g id="line2d_11">
      <g>
       <use style="stroke:#000000;stroke-width:0.5;" x="610.2" xlink:href="#m5a7d422ac3" y="64.8"/>
      </g>
     </g>
     <g id="text_4">
      <!-- 150000 -->
      <g transform="translate(588.3525 596.318125)scale(0.12 -0.12)">
       <use xlink:href="#BitstreamVeraSans-Roman-31"/>
       <use x="63.623046875" xlink:href="#BitstreamVeraSans-Roman-35"/>
       <use x="127.24609375" xlink:href="#BitstreamVeraSans-Roman-30"/>
       <use x="190.869140625" xlink:href="#BitstreamVeraSans-Roman-30"/>
       <use x="254.4921875" xlink:href="#BitstreamVeraSans-Roman-30"/>
       <use x="318.115234375" xlink:href="#BitstreamVeraSans-Roman-30"/>
      </g>
     </g>
    </g>
    <g id="xtick_5">
     <g id="line2d_12">
      <g>
       <use style="stroke:#000000;stroke-width:0.5;" x="777.6" xlink:href="#mc7db9fdffb" y="583.2"/>
      </g>
     </g>
     <g id="line2d_13">
      <g>
       <use style="stroke:#000000;stroke-width:0.5;" x="777.6" xlink:href="#m5a7d422ac3" y="64.8"/>
      </g>
     </g>
     <g id="text_5">
      <!-- 200000 -->
      <defs>
       <path d="
M19.1875 8.29688
L53.6094 8.29688
L53.6094 0
L7.32812 0
L7.32812 8.29688
Q12.9375 14.1094 22.625 23.8906
Q32.3281 33.6875 34.8125 36.5312
Q39.5469 41.8438 41.4219 45.5312
Q43.3125 49.2188 43.3125 52.7812
Q43.3125 58.5938 39.2344 62.25
Q35.1562 65.9219 28.6094 65.9219
Q23.9688 65.9219 18.8125 64.3125
Q13.6719 62.7031 7.8125 59.4219
L7.8125 69.3906
Q13.7656 71.7812 18.9375 73
Q24.125 74.2188 28.4219 74.2188
Q39.75 74.2188 46.4844 68.5469
Q53.2188 62.8906 53.2188 53.4219
Q53.2188 48.9219 51.5312 44.8906
Q49.8594 40.875 45.4062 35.4062
Q44.1875 33.9844 37.6406 27.2188
Q31.1094 20.4531 19.1875 8.29688" id="BitstreamVeraSans-Roman-32"/>
      </defs>
      <g transform="translate(755.533125 596.318125)scale(0.12 -0.12)">
       <use xlink:href="#BitstreamVeraSans-Roman-32"/>
       <use x="63.623046875" xlink:href="#BitstreamVeraSans-Roman-30"/>
       <use x="127.24609375" xlink:href="#BitstreamVeraSans-Roman-30"/>
       <use x="190.869140625" xlink:href="#BitstreamVeraSans-Roman-30"/>
       <use x="254.4921875" xlink:href="#BitstreamVeraSans-Roman-30"/>
       <use x="318.115234375" xlink:href="#BitstreamVeraSans-Roman-30"/>
      </g>
     </g>
    </g>
    <g id="text_6">
     <!-- t / ms -->
     <defs>
      <path d="
M25.3906 72.9062
L33.6875 72.9062
L8.29688 -9.28125
L0 -9.28125
z
" id="BitstreamVeraSans-Roman-2f"/>
      <path d="
M44.2812 53.0781
L44.2812 44.5781
Q40.4844 46.5312 36.375 47.5
Q32.2812 48.4844 27.875 48.4844
Q21.1875 48.4844 17.8438 46.4375
Q14.5 44.3906 14.5 40.2812
Q14.5 37.1562 16.8906 35.375
Q19.2812 33.5938 26.5156 31.9844
L29.5938 31.2969
Q39.1562 29.25 43.1875 25.5156
Q47.2188 21.7812 47.2188 15.0938
Q47.2188 7.46875 41.1875 3.01562
Q35.1562 -1.42188 24.6094 -1.42188
Q20.2188 -1.42188 15.4531 -0.5625
Q10.6875 0.296875 5.42188 2
L5.42188 11.2812
Q10.4062 8.6875 15.2344 7.39062
Q20.0625 6.10938 24.8125 6.10938
Q31.1562 6.10938 34.5625 8.28125
Q37.9844 10.4531 37.9844 14.4062
Q37.9844 18.0625 35.5156 20.0156
Q33.0625 21.9688 24.7031 23.7812
L21.5781 24.5156
Q13.2344 26.2656 9.51562 29.9062
Q5.8125 33.5469 5.8125 39.8906
Q5.8125 47.6094 11.2812 51.7969
Q16.75 56 26.8125 56
Q31.7812 56 36.1719 55.2656
Q40.5781 54.5469 44.2812 53.0781" id="BitstreamVeraSans-Roman-73"/>
      <path d="
M18.3125 70.2188
L18.3125 54.6875
L36.8125 54.6875
L36.8125 47.7031
L18.3125 47.7031
L18.3125 18.0156
Q18.3125 11.3281 20.1406 9.42188
Q21.9688 7.51562 27.5938 7.51562
L36.8125 7.51562
L36.8125 0
L27.5938 0
Q17.1875 0 13.2344 3.875
Q9.28125 7.76562 9.28125 18.0156
L9.28125 47.7031
L2.6875 47.7031
L2.6875 54.6875
L9.28125 54.6875
L9.28125 70.2188
z
" id="BitstreamVeraSans-Roman-74"/>
      <path d="
M52 44.1875
Q55.375 50.25 60.0625 53.125
Q64.75 56 71.0938 56
Q79.6406 56 84.2812 50.0156
Q88.9219 44.0469 88.9219 33.0156
L88.9219 0
L79.8906 0
L79.8906 32.7188
Q79.8906 40.5781 77.0938 44.375
Q74.3125 48.1875 68.6094 48.1875
Q61.625 48.1875 57.5625 43.5469
Q53.5156 38.9219 53.5156 30.9062
L53.5156 0
L44.4844 0
L44.4844 32.7188
Q44.4844 40.625 41.7031 44.4062
Q38.9219 48.1875 33.1094 48.1875
Q26.2188 48.1875 22.1562 43.5312
Q18.1094 38.875 18.1094 30.9062
L18.1094 0
L9.07812 0
L9.07812 54.6875
L18.1094 54.6875
L18.1094 46.1875
Q21.1875 51.2188 25.4844 53.6094
Q29.7812 56 35.6875 56
Q41.6562 56 45.8281 52.9688
Q50 49.9531 52 44.1875" id="BitstreamVeraSans-Roman-6d"/>
      <path id="BitstreamVeraSans-Roman-20"/>
     </defs>
     <g transform="translate(425.9353125 612.931875)scale(0.12 -0.12)">
      <use xlink:href="#BitstreamVeraSans-Roman-74"/>
      <use x="39.208984375" xlink:href="#BitstreamVeraSans-Roman-20"/>
      <use x="70.99609375" xlink:href="#BitstreamVeraSans-Roman-2f"/>
      <use x="104.6875" xlink:href="#BitstreamVeraSans-Roman-20"/>
      <use x="136.474609375" xlink:href="#BitstreamVeraSans-Roman-6d"/>
      <use x="233.88671875" xlink:href="#BitstreamVeraSans-Roman-73"/>
     </g>
    </g>
   </g>
   <g id="matplotlib.axis_2">
    <g id="ytick_1">
     <g id="line2d_14">
      <defs>
       <path d="
M0 0
L4 0" id="md7965d1ba0" style="stroke:#000000;stroke-width:0.5;"/>
      </defs>
      <g>
       <use style="stroke:#000000;stroke-width:0.5;" x="108.0" xlink:href="#md7965d1ba0" y="583.2"/>
      </g>
     </g>
     <g id="line2d_15">
      <defs>
       <path d="
M0 0
L-4 0" id="md9a1c1a7cd" style="stroke:#000000;stroke-width:0.5;"/>
      </defs>
      <g>
       <use style="stroke:#000000;stroke-width:0.5;" x="777.6" xlink:href="#md9a1c1a7cd" y="583.2"/>
      </g>
     </g>
     <g id="text_7">
      <!-- 0 -->
      <g transform="translate(97.953125 586.51125)scale(0.12 -0.12)">
       <use xlink:href="#BitstreamVeraSans-Roman-30"/>
      </g>
     </g>
    </g>
    <g id="ytick_2">
     <g id="line2d_16">
      <g>
       <use style="stroke:#000000;stroke-width:0.5;" x="108.0" xlink:href="#md7965d1ba0" y="518.4"/>
      </g>
     </g>
     <g id="line2d_17">
      <g>
       <use style="stroke:#000000;stroke-width:0.5;" x="777.6" xlink:href="#md9a1c1a7cd" y="518.4"/>
      </g>
     </g>
     <g id="text_8">
      <!-- 2000 -->
      <g transform="translate(75.13625 521.71125)scale(0.12 -0.12)">
       <use xlink:href="#BitstreamVeraSans-Roman-32"/>
       <use x="63.623046875" xlink:href="#BitstreamVeraSans-Roman-30"/>
       <use x="127.24609375" xlink:href="#BitstreamVeraSans-Roman-30"/>
       <use x="190.869140625" xlink:href="#BitstreamVeraSans-Roman-30"/>
      </g>
     </g>
    </g>
    <g id="ytick_3">
     <g id="line2d_18">
      <g>
       <use style="stroke:#000000;stroke-width:0.5;" x="108.0" xlink:href="#md7965d1ba0" y="453.6"/>
      </g>
     </g>
     <g id="line2d_19">
      <g>
       <use style="stroke:#000000;stroke-width:0.5;" x="777.6" xlink:href="#md9a1c1a7cd" y="453.6"/>
      </g>
     </g>
     <g id="text_9">
      <!-- 4000 -->
      <defs>
       <path d="
M37.7969 64.3125
L12.8906 25.3906
L37.7969 25.3906
z

M35.2031 72.9062
L47.6094 72.9062
L47.6094 25.3906
L58.0156 25.3906
L58.0156 17.1875
L47.6094 17.1875
L47.6094 0
L37.7969 0
L37.7969 17.1875
L4.89062 17.1875
L4.89062 26.7031
z
" id="BitstreamVeraSans-Roman-34"/>
      </defs>
      <g transform="translate(74.84375 456.91125)scale(0.12 -0.12)">
       <use xlink:href="#BitstreamVeraSans-Roman-34"/>
       <use x="63.623046875" xlink:href="#BitstreamVeraSans-Roman-30"/>
       <use x="127.24609375" xlink:href="#BitstreamVeraSans-Roman-30"/>
       <use x="190.869140625" xlink:href="#BitstreamVeraSans-Roman-30"/>
      </g>
     </g>
    </g>
    <g id="ytick_4">
     <g id="line2d_20">
      <g>
       <use style="stroke:#000000;stroke-width:0.5;" x="108.0" xlink:href="#md7965d1ba0" y="388.8"/>
      </g>
     </g>
     <g id="line2d_21">
      <g>
       <use style="stroke:#000000;stroke-width:0.5;" x="777.6" xlink:href="#md9a1c1a7cd" y="388.8"/>
      </g>
     </g>
     <g id="text_10">
      <!-- 6000 -->
      <defs>
       <path d="
M33.0156 40.375
Q26.375 40.375 22.4844 35.8281
Q18.6094 31.2969 18.6094 23.3906
Q18.6094 15.5312 22.4844 10.9531
Q26.375 6.39062 33.0156 6.39062
Q39.6562 6.39062 43.5312 10.9531
Q47.4062 15.5312 47.4062 23.3906
Q47.4062 31.2969 43.5312 35.8281
Q39.6562 40.375 33.0156 40.375
M52.5938 71.2969
L52.5938 62.3125
Q48.875 64.0625 45.0938 64.9844
Q41.3125 65.9219 37.5938 65.9219
Q27.8281 65.9219 22.6719 59.3281
Q17.5312 52.7344 16.7969 39.4062
Q19.6719 43.6562 24.0156 45.9219
Q28.375 48.1875 33.5938 48.1875
Q44.5781 48.1875 50.9531 41.5156
Q57.3281 34.8594 57.3281 23.3906
Q57.3281 12.1562 50.6875 5.35938
Q44.0469 -1.42188 33.0156 -1.42188
Q20.3594 -1.42188 13.6719 8.26562
Q6.98438 17.9688 6.98438 36.375
Q6.98438 53.6562 15.1875 63.9375
Q23.3906 74.2188 37.2031 74.2188
Q40.9219 74.2188 44.7031 73.4844
Q48.4844 72.75 52.5938 71.2969" id="BitstreamVeraSans-Roman-36"/>
      </defs>
      <g transform="translate(75.095 392.11125)scale(0.12 -0.12)">
       <use xlink:href="#BitstreamVeraSans-Roman-36"/>
       <use x="63.623046875" xlink:href="#BitstreamVeraSans-Roman-30"/>
       <use x="127.24609375" xlink:href="#BitstreamVeraSans-Roman-30"/>
       <use x="190.869140625" xlink:href="#BitstreamVeraSans-Roman-30"/>
      </g>
     </g>
    </g>
    <g id="ytick_5">
     <g id="line2d_22">
      <g>
       <use style="stroke:#000000;stroke-width:0.5;" x="108.0" xlink:href="#md7965d1ba0" y="324.0"/>
      </g>
     </g>
     <g id="line2d_23">
      <g>
       <use style="stroke:#000000;stroke-width:0.5;" x="777.6" xlink:href="#md9a1c1a7cd" y="324.0"/>
      </g>
     </g>
     <g id="text_11">
      <!-- 8000 -->
      <defs>
       <path d="
M31.7812 34.625
Q24.75 34.625 20.7188 30.8594
Q16.7031 27.0938 16.7031 20.5156
Q16.7031 13.9219 20.7188 10.1562
Q24.75 6.39062 31.7812 6.39062
Q38.8125 6.39062 42.8594 10.1719
Q46.9219 13.9688 46.9219 20.5156
Q46.9219 27.0938 42.8906 30.8594
Q38.875 34.625 31.7812 34.625
M21.9219 38.8125
Q15.5781 40.375 12.0312 44.7188
Q8.5 49.0781 8.5 55.3281
Q8.5 64.0625 14.7188 69.1406
Q20.9531 74.2188 31.7812 74.2188
Q42.6719 74.2188 48.875 69.1406
Q55.0781 64.0625 55.0781 55.3281
Q55.0781 49.0781 51.5312 44.7188
Q48 40.375 41.7031 38.8125
Q48.8281 37.1562 52.7969 32.3125
Q56.7812 27.4844 56.7812 20.5156
Q56.7812 9.90625 50.3125 4.23438
Q43.8438 -1.42188 31.7812 -1.42188
Q19.7344 -1.42188 13.25 4.23438
Q6.78125 9.90625 6.78125 20.5156
Q6.78125 27.4844 10.7812 32.3125
Q14.7969 37.1562 21.9219 38.8125
M18.3125 54.3906
Q18.3125 48.7344 21.8438 45.5625
Q25.3906 42.3906 31.7812 42.3906
Q38.1406 42.3906 41.7188 45.5625
Q45.3125 48.7344 45.3125 54.3906
Q45.3125 60.0625 41.7188 63.2344
Q38.1406 66.4062 31.7812 66.4062
Q25.3906 66.4062 21.8438 63.2344
Q18.3125 60.0625 18.3125 54.3906" id="BitstreamVeraSans-Roman-38"/>
      </defs>
      <g transform="translate(75.070625 327.31125)scale(0.12 -0.12)">
       <use xlink:href="#BitstreamVeraSans-Roman-38"/>
       <use x="63.623046875" xlink:href="#BitstreamVeraSans-Roman-30"/>
       <use x="127.24609375" xlink:href="#BitstreamVeraSans-Roman-30"/>
       <use x="190.869140625" xlink:href="#BitstreamVeraSans-Roman-30"/>
      </g>
     </g>
    </g>
    <g id="ytick_6">
     <g id="line2d_24">
      <g>
       <use style="stroke:#000000;stroke-width:0.5;" x="108.0" xlink:href="#md7965d1ba0" y="259.2"/>
      </g>
     </g>
     <g id="line2d_25">
      <g>
       <use style="stroke:#000000;stroke-width:0.5;" x="777.6" xlink:href="#md9a1c1a7cd" y="259.2"/>
      </g>
     </g>
     <g id="text_12">
      <!-- 10000 -->
      <g transform="translate(67.94 262.51125)scale(0.12 -0.12)">
       <use xlink:href="#BitstreamVeraSans-Roman-31"/>
       <use x="63.623046875" xlink:href="#BitstreamVeraSans-Roman-30"/>
       <use x="127.24609375" xlink:href="#BitstreamVeraSans-Roman-30"/>
       <use x="190.869140625" xlink:href="#BitstreamVeraSans-Roman-30"/>
       <use x="254.4921875" xlink:href="#BitstreamVeraSans-Roman-30"/>
      </g>
     </g>
    </g>
    <g id="ytick_7">
     <g id="line2d_26">
      <g>
       <use style="stroke:#000000;stroke-width:0.5;" x="108.0" xlink:href="#md7965d1ba0" y="194.4"/>
      </g>
     </g>
     <g id="line2d_27">
      <g>
       <use style="stroke:#000000;stroke-width:0.5;" x="777.6" xlink:href="#md9a1c1a7cd" y="194.4"/>
      </g>
     </g>
     <g id="text_13">
      <!-- 12000 -->
      <g transform="translate(67.94 197.71125)scale(0.12 -0.12)">
       <use xlink:href="#BitstreamVeraSans-Roman-31"/>
       <use x="63.623046875" xlink:href="#BitstreamVeraSans-Roman-32"/>
       <use x="127.24609375" xlink:href="#BitstreamVeraSans-Roman-30"/>
       <use x="190.869140625" xlink:href="#BitstreamVeraSans-Roman-30"/>
       <use x="254.4921875" xlink:href="#BitstreamVeraSans-Roman-30"/>
      </g>
     </g>
    </g>
    <g id="ytick_8">
     <g id="line2d_28">
      <g>
       <use style="stroke:#000000;stroke-width:0.5;" x="108.0" xlink:href="#md7965d1ba0" y="129.6"/>
      </g>
     </g>
     <g id="line2d_29">
      <g>
       <use style="stroke:#000000;stroke-width:0.5;" x="777.6" xlink:href="#md9a1c1a7cd" y="129.6"/>
      </g>
     </g>
     <g id="text_14">
      <!-- 14000 -->
      <g transform="translate(67.94 132.91125)scale(0.12 -0.12)">
       <use xlink:href="#BitstreamVeraSans-Roman-31"/>
       <use x="63.623046875" xlink:href="#BitstreamVeraSans-Roman-34"/>
       <use x="127.24609375" xlink:href="#BitstreamVeraSans-Roman-30"/>
       <use x="190.869140625" xlink:href="#BitstreamVeraSans-Roman-30"/>
       <use x="254.4921875" xlink:href="#BitstreamVeraSans-Roman-30"/>
      </g>
     </g>
    </g>
    <g id="ytick_9">
     <g id="line2d_30">
      <g>
       <use style="stroke:#000000;stroke-width:0.5;" x="108.0" xlink:href="#md7965d1ba0" y="64.8"/>
      </g>
     </g>
     <g id="line2d_31">
      <g>
       <use style="stroke:#000000;stroke-width:0.5;" x="777.6" xlink:href="#md9a1c1a7cd" y="64.8"/>
      </g>
     </g>
     <g id="text_15">
      <!-- 16000 -->
      <g transform="translate(67.94 68.11125)scale(0.12 -0.12)">
       <use xlink:href="#BitstreamVeraSans-Roman-31"/>
       <use x="63.623046875" xlink:href="#BitstreamVeraSans-Roman-36"/>
       <use x="127.24609375" xlink:href="#BitstreamVeraSans-Roman-30"/>
       <use x="190.869140625" xlink:href="#BitstreamVeraSans-Roman-30"/>
       <use x="254.4921875" xlink:href="#BitstreamVeraSans-Roman-30"/>
      </g>
     </g>
    </g>
    <g id="text_16">
     <!-- particle numbers -->
     <defs>
      <path d="
M9.42188 75.9844
L18.4062 75.9844
L18.4062 0
L9.42188 0
z
" id="BitstreamVeraSans-Roman-6c"/>
      <path d="
M56.2031 29.5938
L56.2031 25.2031
L14.8906 25.2031
Q15.4844 15.9219 20.4844 11.0625
Q25.4844 6.20312 34.4219 6.20312
Q39.5938 6.20312 44.4531 7.46875
Q49.3125 8.73438 54.1094 11.2812
L54.1094 2.78125
Q49.2656 0.734375 44.1875 -0.34375
Q39.1094 -1.42188 33.8906 -1.42188
Q20.7969 -1.42188 13.1562 6.1875
Q5.51562 13.8125 5.51562 26.8125
Q5.51562 40.2344 12.7656 48.1094
Q20.0156 56 32.3281 56
Q43.3594 56 49.7812 48.8906
Q56.2031 41.7969 56.2031 29.5938
M47.2188 32.2344
Q47.125 39.5938 43.0938 43.9844
Q39.0625 48.3906 32.4219 48.3906
Q24.9062 48.3906 20.3906 44.1406
Q15.875 39.8906 15.1875 32.1719
z
" id="BitstreamVeraSans-Roman-65"/>
      <path d="
M34.2812 27.4844
Q23.3906 27.4844 19.1875 25
Q14.9844 22.5156 14.9844 16.5
Q14.9844 11.7188 18.1406 8.90625
Q21.2969 6.10938 26.7031 6.10938
Q34.1875 6.10938 38.7031 11.4062
Q43.2188 16.7031 43.2188 25.4844
L43.2188 27.4844
z

M52.2031 31.2031
L52.2031 0
L43.2188 0
L43.2188 8.29688
Q40.1406 3.32812 35.5469 0.953125
Q30.9531 -1.42188 24.3125 -1.42188
Q15.9219 -1.42188 10.9531 3.29688
Q6 8.01562 6 15.9219
Q6 25.1406 12.1719 29.8281
Q18.3594 34.5156 30.6094 34.5156
L43.2188 34.5156
L43.2188 35.4062
Q43.2188 41.6094 39.1406 45
Q35.0625 48.3906 27.6875 48.3906
Q23 48.3906 18.5469 47.2656
Q14.1094 46.1406 10.0156 43.8906
L10.0156 52.2031
Q14.9375 54.1094 19.5781 55.0469
Q24.2188 56 28.6094 56
Q40.4844 56 46.3438 49.8438
Q52.2031 43.7031 52.2031 31.2031" id="BitstreamVeraSans-Roman-61"/>
      <path d="
M41.1094 46.2969
Q39.5938 47.1719 37.8125 47.5781
Q36.0312 48 33.8906 48
Q26.2656 48 22.1875 43.0469
Q18.1094 38.0938 18.1094 28.8125
L18.1094 0
L9.07812 0
L9.07812 54.6875
L18.1094 54.6875
L18.1094 46.1875
Q20.9531 51.1719 25.4844 53.5781
Q30.0312 56 36.5312 56
Q37.4531 56 38.5781 55.875
Q39.7031 55.7656 41.0625 55.5156
z
" id="BitstreamVeraSans-Roman-72"/>
      <path d="
M18.1094 8.20312
L18.1094 -20.7969
L9.07812 -20.7969
L9.07812 54.6875
L18.1094 54.6875
L18.1094 46.3906
Q20.9531 51.2656 25.2656 53.625
Q29.5938 56 35.5938 56
Q45.5625 56 51.7812 48.0938
Q58.0156 40.1875 58.0156 27.2969
Q58.0156 14.4062 51.7812 6.48438
Q45.5625 -1.42188 35.5938 -1.42188
Q29.5938 -1.42188 25.2656 0.953125
Q20.9531 3.32812 18.1094 8.20312
M48.6875 27.2969
Q48.6875 37.2031 44.6094 42.8438
Q40.5312 48.4844 33.4062 48.4844
Q26.2656 48.4844 22.1875 42.8438
Q18.1094 37.2031 18.1094 27.2969
Q18.1094 17.3906 22.1875 11.75
Q26.2656 6.10938 33.4062 6.10938
Q40.5312 6.10938 44.6094 11.75
Q48.6875 17.3906 48.6875 27.2969" id="BitstreamVeraSans-Roman-70"/>
      <path d="
M9.42188 54.6875
L18.4062 54.6875
L18.4062 0
L9.42188 0
z

M9.42188 75.9844
L18.4062 75.9844
L18.4062 64.5938
L9.42188 64.5938
z
" id="BitstreamVeraSans-Roman-69"/>
      <path d="
M48.7812 52.5938
L48.7812 44.1875
Q44.9688 46.2969 41.1406 47.3438
Q37.3125 48.3906 33.4062 48.3906
Q24.6562 48.3906 19.8125 42.8438
Q14.9844 37.3125 14.9844 27.2969
Q14.9844 17.2812 19.8125 11.7344
Q24.6562 6.20312 33.4062 6.20312
Q37.3125 6.20312 41.1406 7.25
Q44.9688 8.29688 48.7812 10.4062
L48.7812 2.09375
Q45.0156 0.34375 40.9844 -0.53125
Q36.9688 -1.42188 32.4219 -1.42188
Q20.0625 -1.42188 12.7812 6.34375
Q5.51562 14.1094 5.51562 27.2969
Q5.51562 40.6719 12.8594 48.3281
Q20.2188 56 33.0156 56
Q37.1562 56 41.1094 55.1406
Q45.0625 54.2969 48.7812 52.5938" id="BitstreamVeraSans-Roman-63"/>
      <path d="
M8.5 21.5781
L8.5 54.6875
L17.4844 54.6875
L17.4844 21.9219
Q17.4844 14.1562 20.5 10.2656
Q23.5312 6.39062 29.5938 6.39062
Q36.8594 6.39062 41.0781 11.0312
Q45.3125 15.6719 45.3125 23.6875
L45.3125 54.6875
L54.2969 54.6875
L54.2969 0
L45.3125 0
L45.3125 8.40625
Q42.0469 3.42188 37.7188 1
Q33.4062 -1.42188 27.6875 -1.42188
Q18.2656 -1.42188 13.375 4.4375
Q8.5 10.2969 8.5 21.5781" id="BitstreamVeraSans-Roman-75"/>
      <path d="
M54.8906 33.0156
L54.8906 0
L45.9062 0
L45.9062 32.7188
Q45.9062 40.4844 42.875 44.3281
Q39.8438 48.1875 33.7969 48.1875
Q26.5156 48.1875 22.3125 43.5469
Q18.1094 38.9219 18.1094 30.9062
L18.1094 0
L9.07812 0
L9.07812 54.6875
L18.1094 54.6875
L18.1094 46.1875
Q21.3438 51.125 25.7031 53.5625
Q30.0781 56 35.7969 56
Q45.2188 56 50.0469 50.1719
Q54.8906 44.3438 54.8906 33.0156" id="BitstreamVeraSans-Roman-6e"/>
      <path d="
M48.6875 27.2969
Q48.6875 37.2031 44.6094 42.8438
Q40.5312 48.4844 33.4062 48.4844
Q26.2656 48.4844 22.1875 42.8438
Q18.1094 37.2031 18.1094 27.2969
Q18.1094 17.3906 22.1875 11.75
Q26.2656 6.10938 33.4062 6.10938
Q40.5312 6.10938 44.6094 11.75
Q48.6875 17.3906 48.6875 27.2969
M18.1094 46.3906
Q20.9531 51.2656 25.2656 53.625
Q29.5938 56 35.5938 56
Q45.5625 56 51.7812 48.0938
Q58.0156 40.1875 58.0156 27.2969
Q58.0156 14.4062 51.7812 6.48438
Q45.5625 -1.42188 35.5938 -1.42188
Q29.5938 -1.42188 25.2656 0.953125
Q20.9531 3.32812 18.1094 8.20312
L18.1094 0
L9.07812 0
L9.07812 75.9844
L18.1094 75.9844
z
" id="BitstreamVeraSans-Roman-62"/>
     </defs>
     <g transform="translate(60.444375 374.78625)rotate(-90.0)scale(0.12 -0.12)">
      <use xlink:href="#BitstreamVeraSans-Roman-70"/>
      <use x="63.4765625" xlink:href="#BitstreamVeraSans-Roman-61"/>
      <use x="124.755859375" xlink:href="#BitstreamVeraSans-Roman-72"/>
      <use x="165.869140625" xlink:href="#BitstreamVeraSans-Roman-74"/>
      <use x="205.078125" xlink:href="#BitstreamVeraSans-Roman-69"/>
      <use x="232.861328125" xlink:href="#BitstreamVeraSans-Roman-63"/>
      <use x="287.841796875" xlink:href="#BitstreamVeraSans-Roman-6c"/>
      <use x="315.625" xlink:href="#BitstreamVeraSans-Roman-65"/>
      <use x="377.1484375" xlink:href="#BitstreamVeraSans-Roman-20"/>
      <use x="408.935546875" xlink:href="#BitstreamVeraSans-Roman-6e"/>
      <use x="472.314453125" xlink:href="#BitstreamVeraSans-Roman-75"/>
      <use x="535.693359375" xlink:href="#BitstreamVeraSans-Roman-6d"/>
      <use x="633.10546875" xlink:href="#BitstreamVeraSans-Roman-62"/>
      <use x="696.58203125" xlink:href="#BitstreamVeraSans-Roman-65"/>
      <use x="758.10546875" xlink:href="#BitstreamVeraSans-Roman-72"/>
      <use x="799.21875" xlink:href="#BitstreamVeraSans-Roman-73"/>
     </g>
    </g>
   </g>
   <g id="legend_1">
    <g id="patch_7">
     <path d="
M715.312 101.224
L774.1 101.224
L774.1 68.3
L715.312 68.3
z
" style="fill:#ffffff;stroke:#000000;stroke-linejoin:miter;"/>
    </g>
    <g id="line2d_32">
     <path d="
M720.212 73.9689
L730.012 73.9689" style="fill:none;stroke:#ff0000;stroke-linecap:square;"/>
    </g>
    <g id="line2d_33"/>
    <g id="text_17">
     <!-- cAMP el.0 -->
     <defs>
      <path d="
M34.1875 63.1875
L20.7969 26.9062
L47.6094 26.9062
z

M28.6094 72.9062
L39.7969 72.9062
L67.5781 0
L57.3281 0
L50.6875 18.7031
L17.8281 18.7031
L11.1875 0
L0.78125 0
z
" id="BitstreamVeraSans-Roman-41"/>
      <path d="
M9.8125 72.9062
L24.5156 72.9062
L43.1094 23.2969
L61.8125 72.9062
L76.5156 72.9062
L76.5156 0
L66.8906 0
L66.8906 64.0156
L48.0938 14.0156
L38.1875 14.0156
L19.3906 64.0156
L19.3906 0
L9.8125 0
z
" id="BitstreamVeraSans-Roman-4d"/>
      <path d="
M19.6719 64.7969
L19.6719 37.4062
L32.0781 37.4062
Q38.9688 37.4062 42.7188 40.9688
Q46.4844 44.5312 46.4844 51.125
Q46.4844 57.6719 42.7188 61.2344
Q38.9688 64.7969 32.0781 64.7969
z

M9.8125 72.9062
L32.0781 72.9062
Q44.3438 72.9062 50.6094 67.3594
Q56.8906 61.8125 56.8906 51.125
Q56.8906 40.3281 50.6094 34.8125
Q44.3438 29.2969 32.0781 29.2969
L19.6719 29.2969
L19.6719 0
L9.8125 0
z
" id="BitstreamVeraSans-Roman-50"/>
      <path d="
M10.6875 12.4062
L21 12.4062
L21 0
L10.6875 0
z
" id="BitstreamVeraSans-Roman-2e"/>
     </defs>
     <g transform="translate(737.71203125 76.41890625)scale(0.07 -0.07)">
      <use xlink:href="#BitstreamVeraSans-Roman-63"/>
      <use x="54.98046875" xlink:href="#BitstreamVeraSans-Roman-41"/>
      <use x="123.388671875" xlink:href="#BitstreamVeraSans-Roman-4d"/>
      <use x="209.66796875" xlink:href="#BitstreamVeraSans-Roman-50"/>
      <use x="269.970703125" xlink:href="#BitstreamVeraSans-Roman-20"/>
      <use x="301.7578125" xlink:href="#BitstreamVeraSans-Roman-65"/>
      <use x="363.28125" xlink:href="#BitstreamVeraSans-Roman-6c"/>
      <use x="391.064453125" xlink:href="#BitstreamVeraSans-Roman-2e"/>
      <use x="422.8515625" xlink:href="#BitstreamVeraSans-Roman-30"/>
     </g>
    </g>
    <g id="line2d_34">
     <path d="
M720.212 84.2436
L730.012 84.2436" style="fill:none;stroke:#008000;stroke-linecap:square;"/>
    </g>
    <g id="line2d_35"/>
    <g id="text_18">
     <!-- cAMP el.1 -->
     <g transform="translate(737.71203125 86.69359375)scale(0.07 -0.07)">
      <use xlink:href="#BitstreamVeraSans-Roman-63"/>
      <use x="54.98046875" xlink:href="#BitstreamVeraSans-Roman-41"/>
      <use x="123.388671875" xlink:href="#BitstreamVeraSans-Roman-4d"/>
      <use x="209.66796875" xlink:href="#BitstreamVeraSans-Roman-50"/>
      <use x="269.970703125" xlink:href="#BitstreamVeraSans-Roman-20"/>
      <use x="301.7578125" xlink:href="#BitstreamVeraSans-Roman-65"/>
      <use x="363.28125" xlink:href="#BitstreamVeraSans-Roman-6c"/>
      <use x="391.064453125" xlink:href="#BitstreamVeraSans-Roman-2e"/>
      <use x="422.8515625" xlink:href="#BitstreamVeraSans-Roman-31"/>
     </g>
    </g>
    <g id="line2d_36">
     <path d="
M720.212 94.5183
L730.012 94.5183" style="fill:none;stroke:#0000ff;stroke-linecap:square;"/>
    </g>
    <g id="line2d_37"/>
    <g id="text_19">
     <!-- cAMP el.2 -->
     <g transform="translate(737.71203125 96.96828125)scale(0.07 -0.07)">
      <use xlink:href="#BitstreamVeraSans-Roman-63"/>
      <use x="54.98046875" xlink:href="#BitstreamVeraSans-Roman-41"/>
      <use x="123.388671875" xlink:href="#BitstreamVeraSans-Roman-4d"/>
      <use x="209.66796875" xlink:href="#BitstreamVeraSans-Roman-50"/>
      <use x="269.970703125" xlink:href="#BitstreamVeraSans-Roman-20"/>
      <use x="301.7578125" xlink:href="#BitstreamVeraSans-Roman-65"/>
      <use x="363.28125" xlink:href="#BitstreamVeraSans-Roman-6c"/>
      <use x="391.064453125" xlink:href="#BitstreamVeraSans-Roman-2e"/>
      <use x="422.8515625" xlink:href="#BitstreamVeraSans-Roman-32"/>
     </g>
    </g>
   </g>
  </g>
 </g>
 <defs>
  <clipPath id="p7ceb695115">
   <rect height="518.4" width="669.6" x="108.0" y="64.8"/>
  </clipPath>
 </defs>
</svg>
