<?xml version="1.0" encoding="utf-8" standalone="no"?>
<!DOCTYPE svg PUBLIC "-//W3C//DTD SVG 1.1//EN"
  "http://www.w3.org/Graphics/SVG/1.1/DTD/svg11.dtd">
<!-- Created with matplotlib (http://matplotlib.org/) -->
<svg height="648pt" version="1.1" viewBox="0 0 864 648" width="864pt" xmlns="http://www.w3.org/2000/svg" xmlns:xlink="http://www.w3.org/1999/xlink">
 <defs>
  <style type="text/css">
*{stroke-linecap:butt;stroke-linejoin:round;}
  </style>
 </defs>
 <g id="figure_1">
  <g id="patch_1">
   <path d="
M0 648
L864 648
L864 0
L0 0
z
" style="fill:#ffffff;"/>
  </g>
  <g id="axes_1">
   <g id="patch_2">
    <path d="
M108 583.2
L777.6 583.2
L777.6 64.8
L108 64.8
z
" style="fill:#ffffff;"/>
   </g>
   <g id="line2d_1">
    <path clip-path="url(#p7ceb695115)" d="
M108 583.2
L115.366 583.2
L116.035 580.32
L120.053 580.32
L120.722 583.2
L121.392 580.32
L129.427 580.32
L130.097 577.44
L138.802 577.44
L139.471 580.32
L145.498 580.32
L146.167 577.44
L146.837 577.44
L147.506 580.32
L153.533 580.32
L154.202 583.2
L154.872 583.2
L155.542 580.32
L156.211 580.32
L156.881 577.44
L158.89 577.44
L159.559 574.56
L162.238 574.56
L162.907 580.32
L164.246 580.32
L164.916 583.2
L193.039 583.2
L193.709 577.44
L194.378 577.44
L195.048 574.56
L195.718 580.32
L196.387 577.44
L197.057 580.32
L199.066 580.32
L199.735 583.2
L217.814 583.2
L218.484 580.32
L221.162 580.32
L221.832 583.2
L229.867 583.2
L230.537 580.32
L231.206 583.2
L244.598 583.2
L245.268 580.32
L245.938 583.2
L263.347 583.2
L264.017 580.32
L264.686 583.2
L272.722 583.2
L273.391 580.32
L274.061 580.32
L274.73 583.2
L279.418 583.2
L280.087 580.32
L286.783 580.32
L287.453 583.2
L297.497 583.2
L298.166 580.32
L298.836 583.2
L299.506 583.2
L300.175 580.32
L300.845 583.2
L305.532 583.2
L306.202 580.32
L306.871 583.2
L308.21 583.2
L308.88 580.32
L310.219 580.32
L310.889 583.2
L318.254 583.2
L318.924 580.32
L319.594 580.32
L320.263 577.44
L320.933 580.32
L325.62 580.32
L326.29 583.2
L328.968 583.2
L329.638 580.32
L330.307 580.32
L330.977 583.2
L335.664 583.2
L336.334 580.32
L337.003 583.2
L348.386 583.2
L349.056 580.32
L349.726 580.32
L350.395 583.2
L371.153 583.2
L371.822 580.32
L373.162 580.32
L373.831 583.2
L374.501 583.2
L375.17 580.32
L375.84 574.56
L376.51 577.44
L377.179 574.56
L377.849 574.56
L378.518 577.44
L379.188 577.44
L379.858 574.56
L380.527 580.32
L382.536 580.32
L383.206 583.2
L384.545 583.2
L385.214 580.32
L385.884 580.32
L386.554 583.2
L387.223 583.2
L387.893 577.44
L388.562 577.44
L389.232 583.2
L395.258 583.2
L395.928 580.32
L401.285 580.32
L401.954 583.2
L415.346 583.2
L416.016 580.32
L416.686 583.2
L417.355 580.32
L431.417 580.32
L432.086 583.2
L432.756 580.32
L433.426 580.32
L434.095 583.2
L434.765 583.2
L435.434 580.32
L436.774 580.32
L437.443 583.2
L446.148 583.2
L446.818 574.56
L447.487 577.44
L448.157 574.56
L448.826 565.92
L449.496 565.92
L450.166 537.12
L450.835 551.52
L451.505 557.28
L452.174 551.52
L452.844 557.28
L453.514 560.16
L454.853 542.88
L455.522 557.28
L456.192 548.64
L457.531 542.88
L458.201 534.24
L458.87 551.52
L459.54 542.88
L460.21 557.28
L460.879 542.88
L461.549 545.76
L462.218 565.92
L462.888 560.16
L463.558 528.48
L464.227 534.24
L464.897 545.76
L465.566 528.48
L466.236 545.76
L466.906 542.88
L467.575 516.96
L468.245 545.76
L468.914 519.84
L469.584 525.6
L470.254 537.12
L470.923 525.6
L472.262 531.36
L472.932 551.52
L473.602 519.84
L474.271 502.56
L474.941 531.36
L475.61 522.72
L476.28 542.88
L476.95 511.2
L477.619 531.36
L478.289 491.04
L478.958 537.12
L479.628 511.2
L480.298 531.36
L480.967 534.24
L481.637 522.72
L482.306 516.96
L482.976 522.72
L484.315 505.44
L484.985 531.36
L485.654 525.6
L486.324 508.32
L486.994 516.96
L487.663 502.56
L488.333 519.84
L489.002 505.44
L489.672 508.32
L490.342 505.44
L491.011 519.84
L491.681 528.48
L492.35 511.2
L493.02 522.72
L493.69 528.48
L494.359 496.8
L495.029 514.08
L495.698 525.6
L496.368 519.84
L497.707 531.36
L498.377 505.44
L499.716 528.48
L501.055 505.44
L501.725 514.08
L502.394 525.6
L503.064 519.84
L503.734 516.96
L504.403 516.96
L505.073 519.84
L505.742 502.56
L506.412 499.68
L507.082 511.2
L507.751 540
L508.421 514.08
L509.09 542.88
L509.76 485.28
L510.43 540
L511.099 496.8
L512.438 525.6
L513.108 508.32
L513.778 534.24
L514.447 505.44
L515.117 511.2
L515.786 519.84
L516.456 511.2
L517.126 508.32
L517.795 502.56
L518.465 522.72
L519.134 502.56
L519.804 508.32
L520.474 499.68
L521.143 528.48
L521.813 522.72
L522.482 493.92
L523.152 502.56
L523.822 516.96
L524.491 522.72
L525.161 516.96
L525.83 508.32
L526.5 525.6
L527.17 508.32
L527.839 511.2
L528.509 519.84
L529.178 493.92
L529.848 540
L530.518 496.8
L531.187 516.96
L531.857 493.92
L532.526 516.96
L533.196 496.8
L533.866 519.84
L534.535 514.08
L535.205 528.48
L535.874 482.4
L536.544 479.52
L537.214 493.92
L537.883 502.56
L538.553 522.72
L539.222 528.48
L539.892 502.56
L540.562 537.12
L541.231 493.92
L541.901 491.04
L542.57 519.84
L543.24 499.68
L544.579 516.96
L545.249 493.92
L545.918 491.04
L546.588 502.56
L547.258 476.64
L547.927 519.84
L548.597 505.44
L549.266 522.72
L549.936 516.96
L550.606 519.84
L551.275 511.2
L551.945 485.28
L552.614 519.84
L553.284 493.92
L554.623 516.96
L555.293 502.56
L555.962 499.68
L556.632 508.32
L557.302 519.84
L557.971 493.92
L558.641 537.12
L559.31 482.4
L559.98 505.44
L560.65 488.16
L561.319 499.68
L561.989 516.96
L562.658 488.16
L563.328 493.92
L563.998 485.28
L564.667 488.16
L565.337 516.96
L566.006 485.28
L566.676 508.32
L567.346 505.44
L568.015 496.8
L568.685 502.56
L569.354 485.28
L570.024 491.04
L570.694 493.92
L571.363 531.36
L572.033 493.92
L572.702 502.56
L573.372 485.28
L574.042 482.4
L574.711 508.32
L575.381 493.92
L576.05 491.04
L576.72 482.4
L577.39 496.8
L578.059 516.96
L578.729 505.44
L579.398 499.68
L580.068 496.8
L580.738 485.28
L581.407 468
L582.077 496.8
L582.746 502.56
L583.416 491.04
L584.086 522.72
L584.755 491.04
L585.425 519.84
L586.094 528.48
L586.764 522.72
L587.434 514.08
L588.103 485.28
L588.773 519.84
L589.442 534.24
L590.112 528.48
L590.782 511.2
L591.451 496.8
L592.121 496.8
L592.79 522.72
L593.46 491.04
L594.13 505.44
L594.799 502.56
L595.469 508.32
L596.138 485.28
L596.808 516.96
L597.478 493.92
L598.147 525.6
L598.817 473.76
L599.486 511.2
L600.156 491.04
L600.826 482.4
L601.495 488.16
L602.165 514.08
L602.834 491.04
L603.504 499.68
L604.174 491.04
L604.843 465.12
L605.513 491.04
L606.182 496.8
L606.852 496.8
L607.522 499.68
L608.191 482.4
L608.861 493.92
L609.53 493.92
L610.2 511.2
L610.87 479.52
L611.539 465.12
L612.209 470.88
L612.878 496.8
L613.548 482.4
L614.218 502.56
L614.887 462.24
L615.557 470.88
L616.226 485.28
L616.896 476.64
L617.566 482.4
L618.235 508.32
L618.905 470.88
L619.574 465.12
L620.244 479.52
L620.914 516.96
L621.583 468
L622.253 508.32
L622.922 473.76
L623.592 488.16
L624.262 482.4
L624.931 482.4
L625.601 522.72
L626.94 473.76
L627.61 491.04
L628.279 482.4
L628.949 516.96
L629.618 525.6
L630.288 502.56
L630.958 488.16
L631.627 485.28
L632.966 491.04
L633.636 491.04
L634.306 499.68
L634.975 499.68
L635.645 508.32
L636.314 485.28
L636.984 496.8
L637.654 514.08
L638.323 485.28
L638.993 482.4
L639.662 508.32
L640.332 522.72
L641.002 505.44
L641.671 505.44
L642.341 519.84
L643.01 488.16
L643.68 514.08
L644.35 485.28
L645.019 508.32
L645.689 482.4
L646.358 485.28
L647.028 482.4
L647.698 488.16
L648.367 491.04
L649.037 499.68
L649.706 465.12
L650.376 488.16
L651.046 459.36
L651.715 485.28
L652.385 470.88
L653.054 488.16
L653.724 482.4
L654.394 491.04
L655.063 493.92
L655.733 493.92
L656.402 482.4
L657.072 473.76
L657.742 488.16
L658.411 468
L659.081 479.52
L659.75 488.16
L660.42 473.76
L661.09 468
L661.759 493.92
L662.429 459.36
L663.098 496.8
L663.768 499.68
L664.438 482.4
L665.107 491.04
L665.777 496.8
L666.446 491.04
L667.116 499.68
L667.786 476.64
L668.455 491.04
L669.125 473.76
L669.794 508.32
L670.464 476.64
L671.134 502.56
L671.803 488.16
L672.473 522.72
L673.142 519.84
L673.812 479.52
L674.482 514.08
L675.151 496.8
L675.821 528.48
L676.49 479.52
L677.16 470.88
L677.83 493.92
L678.499 476.64
L679.169 488.16
L679.838 508.32
L680.508 468
L681.178 485.28
L681.847 482.4
L682.517 514.08
L683.186 496.8
L683.856 473.76
L684.526 496.8
L685.195 473.76
L685.865 491.04
L686.534 491.04
L687.204 508.32
L687.874 496.8
L688.543 502.56
L689.213 476.64
L689.882 482.4
L690.552 511.2
L691.222 473.76
L691.891 491.04
L692.561 505.44
L693.23 499.68
L693.9 505.44
L694.57 482.4
L695.239 473.76
L695.909 482.4
L696.578 496.8
L697.248 485.28
L697.918 505.44
L698.587 502.56
L699.257 511.2
L699.926 473.76
L700.596 493.92
L701.266 491.04
L701.935 476.64
L702.605 485.28
L703.274 505.44
L703.944 499.68
L704.614 514.08
L705.953 502.56
L706.622 479.52
L707.292 511.2
L707.962 485.28
L708.631 491.04
L709.301 488.16
L709.97 516.96
L710.64 491.04
L711.31 508.32
L711.979 462.24
L712.649 479.52
L713.318 459.36
L713.988 485.28
L714.658 493.92
L715.327 519.84
L715.997 488.16
L716.666 499.68
L717.336 505.44
L718.006 485.28
L718.675 482.4
L719.345 488.16
L720.014 470.88
L720.684 468
L721.354 493.92
L722.023 459.36
L722.693 502.56
L723.362 473.76
L724.032 496.8
L724.702 502.56
L725.371 493.92
L726.041 493.92
L726.71 470.88
L727.38 462.24
L728.05 459.36
L728.719 493.92
L729.389 485.28
L730.058 473.76
L730.728 493.92
L731.398 496.8
L732.067 485.28
L732.737 488.16
L733.406 482.4
L734.076 508.32
L734.746 491.04
L735.415 488.16
L736.085 496.8
L736.754 496.8
L737.424 485.28
L738.094 479.52
L738.763 453.6
L740.102 499.68
L740.772 482.4
L741.442 485.28
L742.111 499.68
L742.781 473.76
L743.45 493.92
L744.12 485.28
L744.79 456.48
L745.459 505.44
L746.129 465.12
L746.798 459.36
L747.468 511.2
L748.138 468
L748.807 462.24
L749.477 502.56
L750.146 493.92
L750.816 499.68
L751.486 488.16
L752.155 505.44
L752.825 479.52
L753.494 499.68
L754.164 479.52
L754.834 470.88
L755.503 485.28
L756.173 468
L756.842 493.92
L757.512 493.92
L758.182 476.64
L758.851 502.56
L759.521 493.92
L760.19 465.12
L760.86 465.12
L761.53 493.92
L762.199 491.04
L762.869 505.44
L763.538 462.24
L764.208 491.04
L764.878 473.76
L765.547 485.28
L766.217 476.64
L766.886 482.4
L767.556 508.32
L768.895 468
L769.565 511.2
L770.234 468
L770.904 470.88
L771.574 482.4
L772.243 479.52
L772.913 479.52
L773.582 473.76
L774.252 511.2
L775.591 482.4
L776.261 516.96
L776.93 488.16
L777.6 491.04
L777.6 491.04" style="fill:none;stroke:#ff0000;stroke-linecap:square;"/>
   </g>
   <g id="line2d_2">
    <path clip-path="url(#p7ceb695115)" d="
M108 583.2
L112.687 583.2
L113.357 580.32
L114.696 580.32
L115.366 583.2
L116.035 583.2
L116.705 580.32
L117.374 580.32
L118.044 574.56
L119.383 580.32
L120.053 577.44
L124.07 577.44
L125.41 571.68
L126.749 571.68
L128.758 580.32
L130.766 571.68
L131.436 574.56
L132.106 571.68
L132.775 571.68
L133.445 574.56
L134.114 571.68
L134.784 571.68
L135.454 574.56
L136.123 568.8
L137.462 568.8
L138.132 565.92
L138.802 568.8
L139.471 568.8
L140.141 571.68
L140.81 568.8
L141.48 568.8
L142.819 574.56
L144.158 574.56
L144.828 577.44
L145.498 577.44
L146.167 580.32
L146.837 580.32
L147.506 583.2
L148.176 580.32
L153.533 580.32
L154.202 577.44
L157.55 577.44
L158.22 574.56
L158.89 577.44
L159.559 577.44
L160.229 580.32
L161.568 580.32
L162.238 577.44
L162.907 577.44
L163.577 574.56
L164.246 577.44
L166.925 577.44
L167.594 580.32
L168.264 580.32
L168.934 577.44
L169.603 580.32
L170.273 580.32
L170.942 577.44
L171.612 577.44
L172.282 580.32
L172.951 580.32
L173.621 577.44
L174.29 577.44
L174.96 583.2
L175.63 580.32
L176.969 580.32
L177.638 577.44
L179.647 577.44
L180.317 574.56
L182.995 574.56
L183.665 577.44
L184.334 577.44
L185.004 574.56
L185.674 574.56
L186.343 577.44
L187.013 577.44
L187.682 571.68
L188.352 580.32
L189.022 577.44
L189.691 577.44
L190.361 580.32
L191.03 577.44
L191.7 577.44
L192.37 574.56
L193.039 577.44
L195.048 577.44
L196.387 571.68
L197.057 574.56
L198.396 574.56
L199.066 577.44
L199.735 574.56
L200.405 574.56
L201.074 577.44
L206.431 577.44
L207.101 574.56
L207.77 574.56
L208.44 580.32
L209.779 580.32
L210.449 577.44
L211.118 580.32
L211.788 577.44
L212.458 577.44
L213.127 580.32
L215.806 580.32
L216.475 577.44
L217.145 577.44
L217.814 580.32
L219.154 580.32
L219.823 583.2
L220.493 583.2
L221.162 580.32
L221.832 583.2
L222.502 574.56
L223.171 577.44
L224.51 577.44
L225.18 574.56
L225.85 574.56
L226.519 577.44
L227.189 577.44
L227.858 580.32
L228.528 577.44
L229.867 577.44
L230.537 580.32
L231.876 580.32
L232.546 577.44
L234.554 577.44
L235.224 574.56
L236.563 580.32
L237.233 580.32
L237.902 583.2
L238.572 577.44
L239.911 577.44
L241.25 583.2
L242.59 577.44
L246.607 577.44
L247.277 571.68
L247.946 568.8
L248.616 571.68
L249.955 565.92
L251.964 565.92
L252.634 571.68
L253.973 571.68
L254.642 574.56
L255.312 571.68
L255.982 571.68
L256.651 574.56
L258.66 565.92
L259.33 568.8
L259.999 565.92
L260.669 565.92
L261.338 563.04
L262.008 565.92
L262.678 565.92
L263.347 571.68
L264.017 574.56
L264.686 574.56
L265.356 580.32
L266.026 583.2
L266.695 583.2
L268.034 577.44
L268.704 580.32
L269.374 580.32
L270.713 574.56
L272.722 574.56
L273.391 577.44
L275.4 577.44
L276.07 574.56
L276.739 574.56
L277.409 571.68
L278.078 577.44
L279.418 577.44
L280.087 580.32
L280.757 574.56
L282.096 574.56
L283.435 580.32
L284.105 580.32
L284.774 583.2
L288.792 583.2
L289.462 580.32
L290.131 580.32
L290.801 577.44
L292.14 577.44
L292.81 574.56
L295.488 574.56
L296.158 577.44
L296.827 574.56
L297.497 577.44
L298.166 574.56
L299.506 580.32
L300.175 580.32
L300.845 577.44
L301.514 577.44
L302.184 574.56
L302.854 577.44
L303.523 577.44
L304.862 583.2
L306.202 583.2
L306.871 580.32
L307.541 580.32
L308.21 577.44
L309.55 577.44
L310.219 571.68
L311.558 571.68
L312.228 577.44
L312.898 571.68
L313.567 571.68
L314.237 568.8
L315.576 568.8
L316.246 565.92
L316.915 565.92
L317.585 568.8
L318.924 568.8
L319.594 565.92
L320.263 568.8
L320.933 568.8
L321.602 574.56
L322.942 574.56
L323.611 577.44
L324.281 577.44
L324.95 574.56
L325.62 577.44
L326.959 577.44
L327.629 580.32
L332.986 580.32
L333.655 577.44
L337.003 577.44
L337.673 571.68
L338.342 580.32
L341.69 580.32
L342.36 577.44
L343.03 577.44
L343.699 574.56
L344.369 577.44
L345.038 571.68
L346.378 571.68
L347.047 574.56
L347.717 574.56
L348.386 571.68
L349.056 571.68
L349.726 577.44
L350.395 580.32
L351.065 580.32
L351.734 577.44
L352.404 577.44
L353.074 580.32
L353.743 580.32
L355.082 574.56
L356.422 580.32
L357.761 574.56
L358.43 577.44
L359.1 574.56
L359.77 568.8
L360.439 568.8
L361.109 574.56
L361.778 577.44
L362.448 577.44
L363.118 580.32
L365.126 580.32
L365.796 577.44
L366.466 583.2
L367.135 577.44
L368.474 577.44
L369.144 580.32
L372.492 580.32
L373.831 574.56
L374.501 577.44
L375.17 577.44
L375.84 580.32
L376.51 580.32
L377.179 577.44
L377.849 577.44
L378.518 580.32
L379.188 580.32
L379.858 583.2
L380.527 577.44
L381.866 583.2
L389.232 583.2
L389.902 580.32
L390.571 580.32
L391.241 577.44
L392.58 577.44
L393.25 580.32
L394.589 580.32
L395.928 574.56
L397.267 580.32
L403.963 580.32
L404.633 583.2
L405.302 580.32
L406.642 580.32
L407.311 577.44
L407.981 577.44
L408.65 580.32
L410.659 580.32
L411.329 577.44
L412.668 577.44
L413.338 574.56
L415.346 583.2
L416.016 580.32
L418.694 580.32
L419.364 577.44
L424.051 577.44
L424.721 580.32
L426.06 580.32
L426.73 577.44
L431.417 577.44
L432.086 580.32
L434.765 580.32
L435.434 577.44
L436.104 580.32
L436.774 577.44
L437.443 577.44
L438.113 574.56
L438.782 577.44
L440.791 577.44
L441.461 580.32
L442.13 580.32
L442.8 574.56
L443.47 574.56
L444.139 571.68
L444.809 563.04
L445.478 563.04
L446.148 571.68
L447.487 548.64
L448.157 528.48
L448.826 542.88
L449.496 516.96
L450.166 502.56
L450.835 482.4
L451.505 502.56
L452.174 485.28
L452.844 473.76
L453.514 468
L454.183 465.12
L454.853 444.96
L455.522 439.2
L456.192 439.2
L456.862 396
L457.531 419.04
L458.201 427.68
L458.87 416.16
L459.54 419.04
L460.21 398.88
L460.879 407.52
L461.549 381.6
L462.218 367.2
L462.888 361.44
L463.558 381.6
L464.227 390.24
L464.897 381.6
L465.566 375.84
L466.236 361.44
L466.906 370.08
L467.575 361.44
L468.245 375.84
L468.914 372.96
L469.584 375.84
L470.254 349.92
L470.923 387.36
L471.593 352.8
L472.262 292.32
L472.932 352.8
L473.602 349.92
L474.271 341.28
L474.941 324
L475.61 312.48
L476.28 358.56
L476.95 372.96
L477.619 332.64
L478.289 375.84
L479.628 326.88
L480.298 361.44
L480.967 370.08
L481.637 364.32
L482.306 344.16
L482.976 309.6
L483.646 300.96
L484.315 326.88
L485.654 349.92
L486.324 355.68
L486.994 329.76
L487.663 315.36
L488.333 338.4
L489.002 347.04
L489.672 349.92
L490.342 335.52
L491.011 378.72
L492.35 315.36
L493.02 349.92
L493.69 347.04
L495.029 329.76
L495.698 332.64
L496.368 321.12
L497.038 378.72
L497.707 344.16
L498.377 338.4
L499.046 277.92
L499.716 344.16
L500.386 335.52
L501.725 370.08
L502.394 309.6
L503.064 318.24
L503.734 335.52
L504.403 315.36
L505.073 349.92
L505.742 315.36
L506.412 326.88
L507.082 355.68
L507.751 352.8
L508.421 298.08
L509.09 332.64
L509.76 344.16
L510.43 315.36
L511.099 266.4
L511.769 306.72
L512.438 283.68
L513.108 381.6
L514.447 252
L515.117 286.56
L515.786 260.64
L516.456 315.36
L517.126 312.48
L517.795 329.76
L518.465 277.92
L519.134 352.8
L519.804 352.8
L520.474 298.08
L521.143 312.48
L521.813 344.16
L522.482 315.36
L523.152 292.32
L523.822 309.6
L524.491 283.68
L525.161 338.4
L525.83 286.56
L526.5 303.84
L527.17 275.04
L527.839 347.04
L529.178 269.28
L529.848 280.8
L530.518 295.2
L531.187 252
L531.857 280.8
L532.526 289.44
L533.196 252
L533.866 269.28
L534.535 298.08
L535.874 254.88
L536.544 349.92
L537.214 243.36
L537.883 272.16
L538.553 243.36
L539.222 280.8
L539.892 292.32
L540.562 315.36
L541.231 292.32
L541.901 246.24
L542.57 254.88
L543.24 269.28
L543.91 309.6
L544.579 326.88
L545.249 263.52
L545.918 257.76
L546.588 275.04
L547.258 263.52
L547.927 246.24
L548.597 266.4
L549.936 231.84
L550.606 298.08
L551.275 335.52
L551.945 252
L552.614 303.84
L553.284 286.56
L553.954 277.92
L554.623 306.72
L555.293 289.44
L555.962 315.36
L557.302 277.92
L557.971 306.72
L559.31 226.08
L559.98 272.16
L560.65 260.64
L561.319 246.24
L561.989 280.8
L562.658 231.84
L563.328 249.12
L563.998 280.8
L564.667 286.56
L565.337 321.12
L566.006 254.88
L566.676 283.68
L567.346 197.28
L568.015 260.64
L568.685 283.68
L569.354 286.56
L570.024 280.8
L570.694 277.92
L571.363 249.12
L572.033 257.76
L572.702 246.24
L573.372 246.24
L574.042 226.08
L574.711 240.48
L575.381 269.28
L576.05 315.36
L576.72 257.76
L577.39 266.4
L578.059 237.6
L578.729 246.24
L579.398 260.64
L580.068 277.92
L580.738 211.68
L581.407 303.84
L582.077 234.72
L582.746 269.28
L583.416 257.76
L584.086 298.08
L584.755 280.8
L585.425 249.12
L586.094 226.08
L586.764 289.44
L587.434 243.36
L588.103 277.92
L588.773 154.08
L589.442 272.16
L590.112 234.72
L590.782 237.6
L591.451 243.36
L592.121 269.28
L592.79 223.2
L593.46 277.92
L594.13 223.2
L594.799 182.88
L595.469 231.84
L596.808 214.56
L597.478 217.44
L598.147 240.48
L598.817 110.88
L599.486 237.6
L600.156 254.88
L600.826 223.2
L601.495 252
L602.165 223.2
L602.834 205.92
L603.504 246.24
L604.174 231.84
L604.843 197.28
L605.513 208.8
L606.852 272.16
L608.191 217.44
L608.861 231.84
L609.53 226.08
L610.2 162.72
L610.87 257.76
L611.539 260.64
L612.878 200.16
L613.548 231.84
L614.218 223.2
L614.887 257.76
L615.557 200.16
L616.226 228.96
L616.896 191.52
L617.566 185.76
L618.235 246.24
L618.905 228.96
L619.574 220.32
L620.244 197.28
L620.914 200.16
L621.583 182.88
L622.253 263.52
L622.922 191.52
L623.592 211.68
L624.262 211.68
L624.931 223.2
L625.601 217.44
L626.27 246.24
L626.94 249.12
L627.61 220.32
L628.279 203.04
L628.949 154.08
L630.288 280.8
L630.958 208.8
L631.627 231.84
L632.966 226.08
L633.636 263.52
L634.975 211.68
L635.645 269.28
L636.314 275.04
L636.984 237.6
L637.654 292.32
L638.323 228.96
L638.993 228.96
L639.662 214.56
L640.332 211.68
L641.671 171.36
L642.341 197.28
L643.01 211.68
L643.68 228.96
L644.35 252
L645.019 237.6
L645.689 234.72
L646.358 197.28
L647.028 295.2
L647.698 254.88
L648.367 286.56
L649.037 217.44
L649.706 197.28
L650.376 188.64
L651.046 246.24
L651.715 237.6
L652.385 154.08
L653.054 217.44
L653.724 240.48
L654.394 171.36
L655.063 237.6
L655.733 168.48
L656.402 203.04
L657.072 188.64
L657.742 211.68
L658.411 197.28
L659.081 197.28
L659.75 240.48
L660.42 272.16
L661.09 228.96
L661.759 214.56
L662.429 191.52
L663.098 231.84
L663.768 185.76
L664.438 197.28
L665.107 205.92
L665.777 191.52
L666.446 205.92
L667.116 237.6
L667.786 185.76
L668.455 174.24
L669.125 263.52
L669.794 197.28
L671.134 185.76
L671.803 162.72
L672.473 203.04
L673.142 174.24
L673.812 223.2
L674.482 191.52
L675.151 208.8
L675.821 188.64
L676.49 214.56
L677.16 165.6
L677.83 185.76
L678.499 180
L679.169 180
L679.838 145.44
L680.508 165.6
L681.178 214.56
L681.847 191.52
L682.517 252
L683.186 249.12
L683.856 228.96
L684.526 185.76
L685.195 217.44
L685.865 162.72
L686.534 226.08
L687.204 263.52
L687.874 249.12
L688.543 226.08
L689.213 159.84
L689.882 197.28
L690.552 180
L691.222 151.2
L691.891 226.08
L692.561 260.64
L693.23 211.68
L693.9 133.92
L694.57 174.24
L695.239 254.88
L695.909 208.8
L696.578 200.16
L697.248 252
L697.918 266.4
L698.587 234.72
L699.257 260.64
L699.926 257.76
L700.596 231.84
L701.266 266.4
L701.935 151.2
L702.605 174.24
L703.274 154.08
L703.944 168.48
L704.614 203.04
L705.283 208.8
L705.953 197.28
L706.622 228.96
L707.292 205.92
L707.962 214.56
L708.631 197.28
L709.301 203.04
L709.97 182.88
L710.64 226.08
L711.31 194.4
L711.979 211.68
L712.649 203.04
L713.318 226.08
L713.988 208.8
L714.658 231.84
L715.327 208.8
L715.997 223.2
L716.666 136.8
L717.336 223.2
L718.006 243.36
L718.675 220.32
L719.345 257.76
L720.014 237.6
L720.684 243.36
L721.354 191.52
L722.023 185.76
L722.693 211.68
L723.362 214.56
L724.032 234.72
L724.702 191.52
L725.371 217.44
L726.041 188.64
L726.71 203.04
L727.38 252
L728.05 171.36
L728.719 200.16
L729.389 200.16
L730.058 93.6
L730.728 151.2
L731.398 156.96
L732.067 197.28
L732.737 191.52
L733.406 231.84
L734.076 220.32
L734.746 203.04
L735.415 228.96
L736.085 237.6
L736.754 191.52
L737.424 220.32
L738.763 177.12
L739.433 168.48
L740.102 148.32
L740.772 226.08
L741.442 148.32
L742.111 205.92
L742.781 214.56
L743.45 154.08
L744.12 151.2
L744.79 194.4
L745.459 148.32
L746.129 188.64
L746.798 208.8
L747.468 214.56
L748.138 154.08
L748.807 200.16
L749.477 102.24
L750.146 174.24
L750.816 203.04
L751.486 168.48
L752.155 168.48
L752.825 148.32
L753.494 208.8
L754.164 136.8
L754.834 151.2
L755.503 240.48
L756.173 188.64
L757.512 188.64
L758.182 119.52
L758.851 226.08
L759.521 231.84
L760.19 145.44
L760.86 162.72
L761.53 182.88
L762.199 168.48
L762.869 151.2
L763.538 180
L764.208 136.8
L764.878 223.2
L765.547 142.56
L766.217 84.96
L766.886 182.88
L767.556 154.08
L768.226 203.04
L768.895 188.64
L769.565 191.52
L770.234 159.84
L770.904 171.36
L771.574 191.52
L772.243 194.4
L772.913 165.6
L773.582 182.88
L774.252 197.28
L774.922 180
L775.591 194.4
L776.261 211.68
L777.6 177.12
L777.6 177.12" style="fill:none;stroke:#008000;stroke-linecap:square;"/>
   </g>
   <g id="line2d_3">
    <path clip-path="url(#p7ceb695115)" d="
M108 583.2
L110.009 583.2
L110.678 580.32
L114.696 580.32
L115.366 583.2
L116.035 580.32
L118.044 580.32
L118.714 583.2
L128.088 583.2
L128.758 580.32
L129.427 580.32
L130.097 577.44
L130.766 583.2
L131.436 580.32
L132.775 580.32
L133.445 583.2
L134.784 583.2
L135.454 580.32
L136.793 580.32
L137.462 577.44
L138.132 580.32
L139.471 580.32
L140.141 583.2
L153.533 583.2
L154.202 580.32
L154.872 583.2
L156.881 583.2
L157.55 580.32
L158.22 583.2
L170.273 583.2
L170.942 580.32
L173.621 580.32
L174.29 577.44
L177.638 577.44
L178.308 580.32
L182.995 580.32
L183.665 583.2
L187.013 583.2
L187.682 580.32
L201.074 580.32
L201.744 577.44
L202.414 577.44
L203.083 580.32
L205.092 580.32
L205.762 577.44
L206.431 580.32
L207.101 574.56
L211.118 574.56
L211.788 580.32
L216.475 580.32
L217.145 583.2
L224.51 583.2
L225.18 580.32
L226.519 580.32
L227.189 583.2
L227.858 583.2
L228.528 580.32
L229.198 583.2
L229.867 580.32
L230.537 583.2
L243.259 583.2
L243.929 580.32
L244.598 583.2
L247.277 583.2
L247.946 580.32
L248.616 583.2
L254.642 583.2
L255.312 580.32
L256.651 580.32
L257.321 583.2
L266.026 583.2
L266.695 580.32
L268.704 580.32
L269.374 583.2
L270.713 583.2
L272.052 577.44
L274.061 577.44
L274.73 580.32
L276.07 580.32
L276.739 583.2
L290.131 583.2
L290.801 580.32
L292.14 580.32
L292.81 583.2
L293.479 583.2
L294.149 580.32
L296.827 580.32
L297.497 577.44
L298.836 583.2
L306.871 583.2
L307.541 580.32
L309.55 580.32
L310.219 583.2
L312.228 583.2
L312.898 580.32
L316.246 580.32
L316.915 583.2
L328.968 583.2
L329.638 580.32
L331.646 580.32
L332.316 583.2
L334.994 583.2
L335.664 580.32
L336.334 583.2
L337.003 580.32
L341.021 580.32
L341.69 583.2
L343.699 583.2
L344.369 580.32
L349.056 580.32
L349.726 583.2
L350.395 577.44
L351.065 577.44
L351.734 580.32
L356.422 580.32
L357.091 583.2
L367.135 583.2
L367.805 580.32
L373.831 580.32
L374.501 583.2
L375.17 580.32
L379.188 580.32
L379.858 577.44
L380.527 580.32
L381.197 580.32
L381.866 583.2
L399.276 583.2
L399.946 580.32
L407.311 580.32
L407.981 583.2
L408.65 580.32
L411.998 580.32
L412.668 583.2
L413.338 580.32
L418.694 580.32
L419.364 583.2
L436.104 583.2
L436.774 580.32
L441.461 580.32
L442.13 583.2
L444.139 583.2
L445.478 577.44
L446.148 580.32
L446.818 580.32
L447.487 577.44
L448.157 571.68
L448.826 568.8
L449.496 557.28
L450.166 574.56
L450.835 565.92
L452.174 554.4
L452.844 554.4
L453.514 551.52
L454.183 557.28
L454.853 528.48
L455.522 537.12
L456.192 551.52
L456.862 551.52
L457.531 560.16
L458.201 542.88
L458.87 519.84
L459.54 551.52
L460.21 522.72
L460.879 537.12
L461.549 554.4
L462.218 537.12
L462.888 525.6
L463.558 542.88
L464.227 537.12
L464.897 545.76
L465.566 519.84
L466.236 525.6
L466.906 540
L468.245 534.24
L468.914 525.6
L469.584 548.64
L470.254 505.44
L470.923 540
L471.593 522.72
L472.262 534.24
L472.932 514.08
L473.602 563.04
L474.271 499.68
L474.941 514.08
L475.61 508.32
L476.28 525.6
L476.95 505.44
L477.619 534.24
L478.289 531.36
L478.958 519.84
L479.628 499.68
L480.298 534.24
L480.967 514.08
L481.637 514.08
L482.306 511.2
L482.976 511.2
L483.646 528.48
L484.315 511.2
L484.985 522.72
L485.654 528.48
L486.324 554.4
L487.663 511.2
L488.333 508.32
L489.002 499.68
L489.672 531.36
L490.342 534.24
L491.011 519.84
L491.681 508.32
L492.35 531.36
L493.02 519.84
L493.69 525.6
L494.359 505.44
L495.029 531.36
L495.698 525.6
L496.368 508.32
L497.038 519.84
L497.707 540
L498.377 528.48
L499.046 514.08
L499.716 531.36
L500.386 528.48
L501.055 554.4
L501.725 519.84
L503.064 519.84
L503.734 491.04
L504.403 525.6
L505.073 516.96
L506.412 540
L507.082 519.84
L507.751 528.48
L508.421 531.36
L509.09 502.56
L509.76 511.2
L510.43 488.16
L511.099 519.84
L511.769 493.92
L512.438 514.08
L513.108 493.92
L513.778 545.76
L514.447 540
L515.117 516.96
L515.786 514.08
L517.126 514.08
L517.795 493.92
L518.465 511.2
L519.134 531.36
L519.804 491.04
L520.474 522.72
L521.143 505.44
L521.813 514.08
L522.482 496.8
L523.152 502.56
L523.822 505.44
L524.491 491.04
L525.161 505.44
L525.83 540
L526.5 491.04
L527.17 528.48
L527.839 496.8
L528.509 508.32
L529.178 516.96
L529.848 511.2
L530.518 511.2
L531.187 525.6
L531.857 505.44
L532.526 496.8
L533.196 537.12
L533.866 511.2
L534.535 473.76
L535.874 508.32
L537.214 496.8
L537.883 528.48
L538.553 522.72
L539.222 525.6
L540.562 496.8
L541.231 525.6
L541.901 522.72
L542.57 502.56
L543.24 502.56
L543.91 508.32
L544.579 528.48
L545.249 499.68
L545.918 514.08
L546.588 508.32
L547.258 528.48
L547.927 499.68
L548.597 511.2
L549.266 508.32
L549.936 488.16
L550.606 493.92
L551.275 496.8
L551.945 485.28
L552.614 508.32
L553.284 525.6
L553.954 531.36
L554.623 508.32
L555.293 531.36
L555.962 505.44
L556.632 525.6
L557.302 496.8
L557.971 508.32
L558.641 505.44
L559.31 505.44
L559.98 522.72
L560.65 505.44
L561.319 514.08
L561.989 514.08
L562.658 493.92
L563.328 488.16
L563.998 505.44
L564.667 496.8
L565.337 534.24
L566.006 499.68
L566.676 476.64
L567.346 496.8
L568.015 488.16
L568.685 516.96
L569.354 540
L570.024 482.4
L570.694 479.52
L571.363 493.92
L572.033 496.8
L572.702 493.92
L573.372 473.76
L574.042 491.04
L574.711 479.52
L575.381 493.92
L576.05 476.64
L576.72 502.56
L577.39 491.04
L578.059 493.92
L579.398 511.2
L580.068 502.56
L580.738 488.16
L581.407 508.32
L582.077 499.68
L582.746 496.8
L583.416 485.28
L584.086 505.44
L585.425 516.96
L586.094 499.68
L586.764 468
L588.103 537.12
L588.773 470.88
L589.442 514.08
L590.112 502.56
L590.782 473.76
L591.451 502.56
L592.121 514.08
L592.79 514.08
L593.46 508.32
L594.13 493.92
L594.799 485.28
L595.469 499.68
L596.138 519.84
L596.808 502.56
L597.478 505.44
L598.147 514.08
L599.486 485.28
L600.156 511.2
L600.826 485.28
L601.495 491.04
L602.165 522.72
L602.834 502.56
L603.504 496.8
L604.174 493.92
L604.843 479.52
L606.182 522.72
L606.852 485.28
L607.522 493.92
L608.191 505.44
L608.861 514.08
L609.53 525.6
L610.2 493.92
L610.87 491.04
L611.539 496.8
L612.209 496.8
L612.878 505.44
L613.548 491.04
L614.218 473.76
L614.887 499.68
L615.557 468
L616.226 491.04
L616.896 505.44
L617.566 488.16
L618.235 502.56
L618.905 476.64
L619.574 479.52
L620.244 468
L620.914 502.56
L622.253 485.28
L622.922 465.12
L623.592 516.96
L624.262 482.4
L624.931 499.68
L625.601 519.84
L626.27 465.12
L626.94 488.16
L628.279 482.4
L628.949 476.64
L629.618 493.92
L630.288 505.44
L630.958 482.4
L631.627 496.8
L632.297 493.92
L632.966 488.16
L633.636 493.92
L634.306 485.28
L634.975 473.76
L635.645 499.68
L636.314 470.88
L636.984 516.96
L637.654 491.04
L638.323 499.68
L638.993 468
L639.662 476.64
L640.332 488.16
L641.002 465.12
L641.671 479.52
L642.341 508.32
L643.68 496.8
L644.35 499.68
L645.019 488.16
L645.689 508.32
L647.028 491.04
L647.698 491.04
L648.367 479.52
L649.037 473.76
L649.706 493.92
L650.376 488.16
L651.046 496.8
L651.715 473.76
L652.385 493.92
L653.054 499.68
L653.724 496.8
L654.394 479.52
L655.063 476.64
L655.733 514.08
L656.402 476.64
L657.072 505.44
L657.742 496.8
L658.411 468
L659.081 473.76
L659.75 485.28
L660.42 505.44
L661.09 493.92
L661.759 502.56
L662.429 485.28
L663.098 499.68
L663.768 502.56
L664.438 493.92
L665.777 493.92
L666.446 476.64
L667.116 508.32
L667.786 470.88
L668.455 502.56
L669.125 462.24
L669.794 496.8
L670.464 485.28
L671.134 485.28
L671.803 473.76
L672.473 496.8
L673.142 482.4
L674.482 476.64
L675.151 476.64
L675.821 508.32
L676.49 499.68
L677.16 505.44
L677.83 488.16
L678.499 502.56
L679.169 491.04
L679.838 485.28
L680.508 499.68
L681.178 496.8
L681.847 502.56
L682.517 465.12
L683.186 479.52
L683.856 491.04
L684.526 493.92
L685.195 473.76
L685.865 485.28
L686.534 488.16
L687.204 496.8
L687.874 502.56
L688.543 499.68
L689.213 505.44
L689.882 488.16
L690.552 505.44
L691.222 502.56
L691.891 508.32
L692.561 456.48
L693.23 476.64
L693.9 502.56
L694.57 505.44
L695.239 491.04
L695.909 508.32
L696.578 465.12
L697.248 493.92
L698.587 511.2
L699.257 470.88
L699.926 485.28
L700.596 476.64
L701.266 470.88
L701.935 499.68
L702.605 499.68
L703.274 502.56
L703.944 485.28
L704.614 476.64
L705.283 502.56
L705.953 511.2
L706.622 482.4
L707.292 476.64
L707.962 514.08
L708.631 485.28
L709.301 511.2
L709.97 488.16
L710.64 493.92
L711.31 505.44
L711.979 502.56
L712.649 519.84
L713.318 508.32
L713.988 482.4
L714.658 465.12
L715.327 511.2
L715.997 493.92
L716.666 502.56
L717.336 488.16
L718.006 525.6
L718.675 491.04
L719.345 479.52
L720.014 470.88
L720.684 470.88
L721.354 502.56
L722.023 470.88
L722.693 485.28
L723.362 505.44
L724.032 482.4
L724.702 473.76
L725.371 491.04
L726.041 514.08
L726.71 470.88
L727.38 502.56
L728.05 476.64
L728.719 465.12
L729.389 485.28
L730.058 485.28
L730.728 482.4
L731.398 491.04
L732.067 525.6
L732.737 485.28
L733.406 482.4
L734.076 470.88
L734.746 525.6
L735.415 485.28
L736.085 508.32
L736.754 488.16
L737.424 496.8
L738.094 473.76
L738.763 468
L739.433 491.04
L740.102 479.52
L740.772 493.92
L741.442 462.24
L742.111 505.44
L743.45 444.96
L744.12 485.28
L744.79 482.4
L745.459 499.68
L746.129 470.88
L746.798 499.68
L747.468 499.68
L748.138 488.16
L748.807 473.76
L749.477 505.44
L750.146 485.28
L750.816 493.92
L751.486 485.28
L752.155 468
L752.825 482.4
L753.494 468
L754.164 476.64
L754.834 502.56
L755.503 488.16
L756.173 482.4
L756.842 433.44
L757.512 482.4
L758.182 470.88
L758.851 505.44
L759.521 482.4
L760.19 473.76
L760.86 488.16
L761.53 470.88
L762.199 479.52
L762.869 439.2
L763.538 476.64
L764.208 493.92
L764.878 479.52
L765.547 476.64
L766.217 470.88
L766.886 493.92
L767.556 496.8
L768.226 508.32
L768.895 479.52
L769.565 502.56
L770.234 488.16
L770.904 488.16
L771.574 470.88
L772.243 499.68
L772.913 470.88
L773.582 502.56
L774.252 502.56
L774.922 473.76
L775.591 473.76
L776.261 476.64
L776.93 502.56
L777.6 485.28
L777.6 485.28" style="fill:none;stroke:#0000ff;stroke-linecap:square;"/>
   </g>
   <g id="patch_3">
    <path d="
M108 64.8
L777.6 64.8" style="fill:none;stroke:#000000;stroke-linecap:square;stroke-linejoin:miter;"/>
   </g>
   <g id="patch_4">
    <path d="
M108 583.2
L108 64.8" style="fill:none;stroke:#000000;stroke-linecap:square;stroke-linejoin:miter;"/>
   </g>
   <g id="patch_5">
    <path d="
M108 583.2
L777.6 583.2" style="fill:none;stroke:#000000;stroke-linecap:square;stroke-linejoin:miter;"/>
   </g>
   <g id="patch_6">
    <path d="
M777.6 583.2
L777.6 64.8" style="fill:none;stroke:#000000;stroke-linecap:square;stroke-linejoin:miter;"/>
   </g>
   <g id="matplotlib.axis_1">
    <g id="xtick_1">
     <g id="line2d_4">
      <defs>
       <path d="
M0 0
L0 -4" id="mc7db9fdffb" style="stroke:#000000;stroke-width:0.5;"/>
      </defs>
      <g>
       <use style="stroke:#000000;stroke-width:0.5;" x="108.0" xlink:href="#mc7db9fdffb" y="583.2"/>
      </g>
     </g>
     <g id="line2d_5">
      <defs>
       <path d="
M0 0
L0 4" id="m5a7d422ac3" style="stroke:#000000;stroke-width:0.5;"/>
      </defs>
      <g>
       <use style="stroke:#000000;stroke-width:0.5;" x="108.0" xlink:href="#m5a7d422ac3" y="64.8"/>
      </g>
     </g>
     <g id="text_1">
      <!-- 0 -->
      <defs>
       <path d="
M31.7812 66.4062
Q24.1719 66.4062 20.3281 58.9062
Q16.5 51.4219 16.5 36.375
Q16.5 21.3906 20.3281 13.8906
Q24.1719 6.39062 31.7812 6.39062
Q39.4531 6.39062 43.2812 13.8906
Q47.125 21.3906 47.125 36.375
Q47.125 51.4219 43.2812 58.9062
Q39.4531 66.4062 31.7812 66.4062
M31.7812 74.2188
Q44.0469 74.2188 50.5156 64.5156
Q56.9844 54.8281 56.9844 36.375
Q56.9844 17.9688 50.5156 8.26562
Q44.0469 -1.42188 31.7812 -1.42188
Q19.5312 -1.42188 13.0625 8.26562
Q6.59375 17.9688 6.59375 36.375
Q6.59375 54.8281 13.0625 64.5156
Q19.5312 74.2188 31.7812 74.2188" id="BitstreamVeraSans-Roman-30"/>
      </defs>
      <g transform="translate(104.9765625 596.318125)scale(0.12 -0.12)">
       <use xlink:href="#BitstreamVeraSans-Roman-30"/>
      </g>
     </g>
    </g>
    <g id="xtick_2">
     <g id="line2d_6">
      <g>
       <use style="stroke:#000000;stroke-width:0.5;" x="275.4" xlink:href="#mc7db9fdffb" y="583.2"/>
      </g>
     </g>
     <g id="line2d_7">
      <g>
       <use style="stroke:#000000;stroke-width:0.5;" x="275.4" xlink:href="#m5a7d422ac3" y="64.8"/>
      </g>
     </g>
     <g id="text_2">
      <!-- 50000 -->
      <defs>
       <path d="
M10.7969 72.9062
L49.5156 72.9062
L49.5156 64.5938
L19.8281 64.5938
L19.8281 46.7344
Q21.9688 47.4688 24.1094 47.8281
Q26.2656 48.1875 28.4219 48.1875
Q40.625 48.1875 47.75 41.5
Q54.8906 34.8125 54.8906 23.3906
Q54.8906 11.625 47.5625 5.09375
Q40.2344 -1.42188 26.9062 -1.42188
Q22.3125 -1.42188 17.5469 -0.640625
Q12.7969 0.140625 7.71875 1.70312
L7.71875 11.625
Q12.1094 9.23438 16.7969 8.0625
Q21.4844 6.89062 26.7031 6.89062
Q35.1562 6.89062 40.0781 11.3281
Q45.0156 15.7656 45.0156 23.3906
Q45.0156 31 40.0781 35.4375
Q35.1562 39.8906 26.7031 39.8906
Q22.75 39.8906 18.8125 39.0156
Q14.8906 38.1406 10.7969 36.2812
z
" id="BitstreamVeraSans-Roman-35"/>
      </defs>
      <g transform="translate(257.1740625 596.318125)scale(0.12 -0.12)">
       <use xlink:href="#BitstreamVeraSans-Roman-35"/>
       <use x="63.623046875" xlink:href="#BitstreamVeraSans-Roman-30"/>
       <use x="127.24609375" xlink:href="#BitstreamVeraSans-Roman-30"/>
       <use x="190.869140625" xlink:href="#BitstreamVeraSans-Roman-30"/>
       <use x="254.4921875" xlink:href="#BitstreamVeraSans-Roman-30"/>
      </g>
     </g>
    </g>
    <g id="xtick_3">
     <g id="line2d_8">
      <g>
       <use style="stroke:#000000;stroke-width:0.5;" x="442.8" xlink:href="#mc7db9fdffb" y="583.2"/>
      </g>
     </g>
     <g id="line2d_9">
      <g>
       <use style="stroke:#000000;stroke-width:0.5;" x="442.8" xlink:href="#m5a7d422ac3" y="64.8"/>
      </g>
     </g>
     <g id="text_3">
      <!-- 100000 -->
      <defs>
       <path d="
M12.4062 8.29688
L28.5156 8.29688
L28.5156 63.9219
L10.9844 60.4062
L10.9844 69.3906
L28.4219 72.9062
L38.2812 72.9062
L38.2812 8.29688
L54.3906 8.29688
L54.3906 0
L12.4062 0
z
" id="BitstreamVeraSans-Roman-31"/>
      </defs>
      <g transform="translate(420.9525 596.318125)scale(0.12 -0.12)">
       <use xlink:href="#BitstreamVeraSans-Roman-31"/>
       <use x="63.623046875" xlink:href="#BitstreamVeraSans-Roman-30"/>
       <use x="127.24609375" xlink:href="#BitstreamVeraSans-Roman-30"/>
       <use x="190.869140625" xlink:href="#BitstreamVeraSans-Roman-30"/>
       <use x="254.4921875" xlink:href="#BitstreamVeraSans-Roman-30"/>
       <use x="318.115234375" xlink:href="#BitstreamVeraSans-Roman-30"/>
      </g>
     </g>
    </g>
    <g id="xtick_4">
     <g id="line2d_10">
      <g>
       <use style="stroke:#000000;stroke-width:0.5;" x="610.2" xlink:href="#mc7db9fdffb" y="583.2"/>
      </g>
     </g>
     <g id="line2d_11">
      <g>
       <use style="stroke:#000000;stroke-width:0.5;" x="610.2" xlink:href="#m5a7d422ac3" y="64.8"/>
      </g>
     </g>
     <g id="text_4">
      <!-- 150000 -->
      <g transform="translate(588.3525 596.318125)scale(0.12 -0.12)">
       <use xlink:href="#BitstreamVeraSans-Roman-31"/>
       <use x="63.623046875" xlink:href="#BitstreamVeraSans-Roman-35"/>
       <use x="127.24609375" xlink:href="#BitstreamVeraSans-Roman-30"/>
       <use x="190.869140625" xlink:href="#BitstreamVeraSans-Roman-30"/>
       <use x="254.4921875" xlink:href="#BitstreamVeraSans-Roman-30"/>
       <use x="318.115234375" xlink:href="#BitstreamVeraSans-Roman-30"/>
      </g>
     </g>
    </g>
    <g id="xtick_5">
     <g id="line2d_12">
      <g>
       <use style="stroke:#000000;stroke-width:0.5;" x="777.6" xlink:href="#mc7db9fdffb" y="583.2"/>
      </g>
     </g>
     <g id="line2d_13">
      <g>
       <use style="stroke:#000000;stroke-width:0.5;" x="777.6" xlink:href="#m5a7d422ac3" y="64.8"/>
      </g>
     </g>
     <g id="text_5">
      <!-- 200000 -->
      <defs>
       <path d="
M19.1875 8.29688
L53.6094 8.29688
L53.6094 0
L7.32812 0
L7.32812 8.29688
Q12.9375 14.1094 22.625 23.8906
Q32.3281 33.6875 34.8125 36.5312
Q39.5469 41.8438 41.4219 45.5312
Q43.3125 49.2188 43.3125 52.7812
Q43.3125 58.5938 39.2344 62.25
Q35.1562 65.9219 28.6094 65.9219
Q23.9688 65.9219 18.8125 64.3125
Q13.6719 62.7031 7.8125 59.4219
L7.8125 69.3906
Q13.7656 71.7812 18.9375 73
Q24.125 74.2188 28.4219 74.2188
Q39.75 74.2188 46.4844 68.5469
Q53.2188 62.8906 53.2188 53.4219
Q53.2188 48.9219 51.5312 44.8906
Q49.8594 40.875 45.4062 35.4062
Q44.1875 33.9844 37.6406 27.2188
Q31.1094 20.4531 19.1875 8.29688" id="BitstreamVeraSans-Roman-32"/>
      </defs>
      <g transform="translate(755.533125 596.318125)scale(0.12 -0.12)">
       <use xlink:href="#BitstreamVeraSans-Roman-32"/>
       <use x="63.623046875" xlink:href="#BitstreamVeraSans-Roman-30"/>
       <use x="127.24609375" xlink:href="#BitstreamVeraSans-Roman-30"/>
       <use x="190.869140625" xlink:href="#BitstreamVeraSans-Roman-30"/>
       <use x="254.4921875" xlink:href="#BitstreamVeraSans-Roman-30"/>
       <use x="318.115234375" xlink:href="#BitstreamVeraSans-Roman-30"/>
      </g>
     </g>
    </g>
    <g id="text_6">
     <!-- t / ms -->
     <defs>
      <path d="
M18.3125 70.2188
L18.3125 54.6875
L36.8125 54.6875
L36.8125 47.7031
L18.3125 47.7031
L18.3125 18.0156
Q18.3125 11.3281 20.1406 9.42188
Q21.9688 7.51562 27.5938 7.51562
L36.8125 7.51562
L36.8125 0
L27.5938 0
Q17.1875 0 13.2344 3.875
Q9.28125 7.76562 9.28125 18.0156
L9.28125 47.7031
L2.6875 47.7031
L2.6875 54.6875
L9.28125 54.6875
L9.28125 70.2188
z
" id="BitstreamVeraSans-Roman-74"/>
      <path d="
M44.2812 53.0781
L44.2812 44.5781
Q40.4844 46.5312 36.375 47.5
Q32.2812 48.4844 27.875 48.4844
Q21.1875 48.4844 17.8438 46.4375
Q14.5 44.3906 14.5 40.2812
Q14.5 37.1562 16.8906 35.375
Q19.2812 33.5938 26.5156 31.9844
L29.5938 31.2969
Q39.1562 29.25 43.1875 25.5156
Q47.2188 21.7812 47.2188 15.0938
Q47.2188 7.46875 41.1875 3.01562
Q35.1562 -1.42188 24.6094 -1.42188
Q20.2188 -1.42188 15.4531 -0.5625
Q10.6875 0.296875 5.42188 2
L5.42188 11.2812
Q10.4062 8.6875 15.2344 7.39062
Q20.0625 6.10938 24.8125 6.10938
Q31.1562 6.10938 34.5625 8.28125
Q37.9844 10.4531 37.9844 14.4062
Q37.9844 18.0625 35.5156 20.0156
Q33.0625 21.9688 24.7031 23.7812
L21.5781 24.5156
Q13.2344 26.2656 9.51562 29.9062
Q5.8125 33.5469 5.8125 39.8906
Q5.8125 47.6094 11.2812 51.7969
Q16.75 56 26.8125 56
Q31.7812 56 36.1719 55.2656
Q40.5781 54.5469 44.2812 53.0781" id="BitstreamVeraSans-Roman-73"/>
      <path id="BitstreamVeraSans-Roman-20"/>
      <path d="
M52 44.1875
Q55.375 50.25 60.0625 53.125
Q64.75 56 71.0938 56
Q79.6406 56 84.2812 50.0156
Q88.9219 44.0469 88.9219 33.0156
L88.9219 0
L79.8906 0
L79.8906 32.7188
Q79.8906 40.5781 77.0938 44.375
Q74.3125 48.1875 68.6094 48.1875
Q61.625 48.1875 57.5625 43.5469
Q53.5156 38.9219 53.5156 30.9062
L53.5156 0
L44.4844 0
L44.4844 32.7188
Q44.4844 40.625 41.7031 44.4062
Q38.9219 48.1875 33.1094 48.1875
Q26.2188 48.1875 22.1562 43.5312
Q18.1094 38.875 18.1094 30.9062
L18.1094 0
L9.07812 0
L9.07812 54.6875
L18.1094 54.6875
L18.1094 46.1875
Q21.1875 51.2188 25.4844 53.6094
Q29.7812 56 35.6875 56
Q41.6562 56 45.8281 52.9688
Q50 49.9531 52 44.1875" id="BitstreamVeraSans-Roman-6d"/>
      <path d="
M25.3906 72.9062
L33.6875 72.9062
L8.29688 -9.28125
L0 -9.28125
z
" id="BitstreamVeraSans-Roman-2f"/>
     </defs>
     <g transform="translate(425.9353125 612.931875)scale(0.12 -0.12)">
      <use xlink:href="#BitstreamVeraSans-Roman-74"/>
      <use x="39.208984375" xlink:href="#BitstreamVeraSans-Roman-20"/>
      <use x="70.99609375" xlink:href="#BitstreamVeraSans-Roman-2f"/>
      <use x="104.6875" xlink:href="#BitstreamVeraSans-Roman-20"/>
      <use x="136.474609375" xlink:href="#BitstreamVeraSans-Roman-6d"/>
      <use x="233.88671875" xlink:href="#BitstreamVeraSans-Roman-73"/>
     </g>
    </g>
   </g>
   <g id="matplotlib.axis_2">
    <g id="ytick_1">
     <g id="line2d_14">
      <defs>
       <path d="
M0 0
L4 0" id="md7965d1ba0" style="stroke:#000000;stroke-width:0.5;"/>
      </defs>
      <g>
       <use style="stroke:#000000;stroke-width:0.5;" x="108.0" xlink:href="#md7965d1ba0" y="583.2"/>
      </g>
     </g>
     <g id="line2d_15">
      <defs>
       <path d="
M0 0
L-4 0" id="md9a1c1a7cd" style="stroke:#000000;stroke-width:0.5;"/>
      </defs>
      <g>
       <use style="stroke:#000000;stroke-width:0.5;" x="777.6" xlink:href="#md9a1c1a7cd" y="583.2"/>
      </g>
     </g>
     <g id="text_7">
      <!-- 0 -->
      <g transform="translate(97.953125 586.51125)scale(0.12 -0.12)">
       <use xlink:href="#BitstreamVeraSans-Roman-30"/>
      </g>
     </g>
    </g>
    <g id="ytick_2">
     <g id="line2d_16">
      <g>
       <use style="stroke:#000000;stroke-width:0.5;" x="108.0" xlink:href="#md7965d1ba0" y="525.6"/>
      </g>
     </g>
     <g id="line2d_17">
      <g>
       <use style="stroke:#000000;stroke-width:0.5;" x="777.6" xlink:href="#md9a1c1a7cd" y="525.6"/>
      </g>
     </g>
     <g id="text_8">
      <!-- 20 -->
      <g transform="translate(90.40625 528.91125)scale(0.12 -0.12)">
       <use xlink:href="#BitstreamVeraSans-Roman-32"/>
       <use x="63.623046875" xlink:href="#BitstreamVeraSans-Roman-30"/>
      </g>
     </g>
    </g>
    <g id="ytick_3">
     <g id="line2d_18">
      <g>
       <use style="stroke:#000000;stroke-width:0.5;" x="108.0" xlink:href="#md7965d1ba0" y="468.0"/>
      </g>
     </g>
     <g id="line2d_19">
      <g>
       <use style="stroke:#000000;stroke-width:0.5;" x="777.6" xlink:href="#md9a1c1a7cd" y="468.0"/>
      </g>
     </g>
     <g id="text_9">
      <!-- 40 -->
      <defs>
       <path d="
M37.7969 64.3125
L12.8906 25.3906
L37.7969 25.3906
z

M35.2031 72.9062
L47.6094 72.9062
L47.6094 25.3906
L58.0156 25.3906
L58.0156 17.1875
L47.6094 17.1875
L47.6094 0
L37.7969 0
L37.7969 17.1875
L4.89062 17.1875
L4.89062 26.7031
z
" id="BitstreamVeraSans-Roman-34"/>
      </defs>
      <g transform="translate(90.11375 471.31125)scale(0.12 -0.12)">
       <use xlink:href="#BitstreamVeraSans-Roman-34"/>
       <use x="63.623046875" xlink:href="#BitstreamVeraSans-Roman-30"/>
      </g>
     </g>
    </g>
    <g id="ytick_4">
     <g id="line2d_20">
      <g>
       <use style="stroke:#000000;stroke-width:0.5;" x="108.0" xlink:href="#md7965d1ba0" y="410.4"/>
      </g>
     </g>
     <g id="line2d_21">
      <g>
       <use style="stroke:#000000;stroke-width:0.5;" x="777.6" xlink:href="#md9a1c1a7cd" y="410.4"/>
      </g>
     </g>
     <g id="text_10">
      <!-- 60 -->
      <defs>
       <path d="
M33.0156 40.375
Q26.375 40.375 22.4844 35.8281
Q18.6094 31.2969 18.6094 23.3906
Q18.6094 15.5312 22.4844 10.9531
Q26.375 6.39062 33.0156 6.39062
Q39.6562 6.39062 43.5312 10.9531
Q47.4062 15.5312 47.4062 23.3906
Q47.4062 31.2969 43.5312 35.8281
Q39.6562 40.375 33.0156 40.375
M52.5938 71.2969
L52.5938 62.3125
Q48.875 64.0625 45.0938 64.9844
Q41.3125 65.9219 37.5938 65.9219
Q27.8281 65.9219 22.6719 59.3281
Q17.5312 52.7344 16.7969 39.4062
Q19.6719 43.6562 24.0156 45.9219
Q28.375 48.1875 33.5938 48.1875
Q44.5781 48.1875 50.9531 41.5156
Q57.3281 34.8594 57.3281 23.3906
Q57.3281 12.1562 50.6875 5.35938
Q44.0469 -1.42188 33.0156 -1.42188
Q20.3594 -1.42188 13.6719 8.26562
Q6.98438 17.9688 6.98438 36.375
Q6.98438 53.6562 15.1875 63.9375
Q23.3906 74.2188 37.2031 74.2188
Q40.9219 74.2188 44.7031 73.4844
Q48.4844 72.75 52.5938 71.2969" id="BitstreamVeraSans-Roman-36"/>
      </defs>
      <g transform="translate(90.365 413.71125)scale(0.12 -0.12)">
       <use xlink:href="#BitstreamVeraSans-Roman-36"/>
       <use x="63.623046875" xlink:href="#BitstreamVeraSans-Roman-30"/>
      </g>
     </g>
    </g>
    <g id="ytick_5">
     <g id="line2d_22">
      <g>
       <use style="stroke:#000000;stroke-width:0.5;" x="108.0" xlink:href="#md7965d1ba0" y="352.8"/>
      </g>
     </g>
     <g id="line2d_23">
      <g>
       <use style="stroke:#000000;stroke-width:0.5;" x="777.6" xlink:href="#md9a1c1a7cd" y="352.8"/>
      </g>
     </g>
     <g id="text_11">
      <!-- 80 -->
      <defs>
       <path d="
M31.7812 34.625
Q24.75 34.625 20.7188 30.8594
Q16.7031 27.0938 16.7031 20.5156
Q16.7031 13.9219 20.7188 10.1562
Q24.75 6.39062 31.7812 6.39062
Q38.8125 6.39062 42.8594 10.1719
Q46.9219 13.9688 46.9219 20.5156
Q46.9219 27.0938 42.8906 30.8594
Q38.875 34.625 31.7812 34.625
M21.9219 38.8125
Q15.5781 40.375 12.0312 44.7188
Q8.5 49.0781 8.5 55.3281
Q8.5 64.0625 14.7188 69.1406
Q20.9531 74.2188 31.7812 74.2188
Q42.6719 74.2188 48.875 69.1406
Q55.0781 64.0625 55.0781 55.3281
Q55.0781 49.0781 51.5312 44.7188
Q48 40.375 41.7031 38.8125
Q48.8281 37.1562 52.7969 32.3125
Q56.7812 27.4844 56.7812 20.5156
Q56.7812 9.90625 50.3125 4.23438
Q43.8438 -1.42188 31.7812 -1.42188
Q19.7344 -1.42188 13.25 4.23438
Q6.78125 9.90625 6.78125 20.5156
Q6.78125 27.4844 10.7812 32.3125
Q14.7969 37.1562 21.9219 38.8125
M18.3125 54.3906
Q18.3125 48.7344 21.8438 45.5625
Q25.3906 42.3906 31.7812 42.3906
Q38.1406 42.3906 41.7188 45.5625
Q45.3125 48.7344 45.3125 54.3906
Q45.3125 60.0625 41.7188 63.2344
Q38.1406 66.4062 31.7812 66.4062
Q25.3906 66.4062 21.8438 63.2344
Q18.3125 60.0625 18.3125 54.3906" id="BitstreamVeraSans-Roman-38"/>
      </defs>
      <g transform="translate(90.340625 356.11125)scale(0.12 -0.12)">
       <use xlink:href="#BitstreamVeraSans-Roman-38"/>
       <use x="63.623046875" xlink:href="#BitstreamVeraSans-Roman-30"/>
      </g>
     </g>
    </g>
    <g id="ytick_6">
     <g id="line2d_24">
      <g>
       <use style="stroke:#000000;stroke-width:0.5;" x="108.0" xlink:href="#md7965d1ba0" y="295.2"/>
      </g>
     </g>
     <g id="line2d_25">
      <g>
       <use style="stroke:#000000;stroke-width:0.5;" x="777.6" xlink:href="#md9a1c1a7cd" y="295.2"/>
      </g>
     </g>
     <g id="text_12">
      <!-- 100 -->
      <g transform="translate(83.21 298.51125)scale(0.12 -0.12)">
       <use xlink:href="#BitstreamVeraSans-Roman-31"/>
       <use x="63.623046875" xlink:href="#BitstreamVeraSans-Roman-30"/>
       <use x="127.24609375" xlink:href="#BitstreamVeraSans-Roman-30"/>
      </g>
     </g>
    </g>
    <g id="ytick_7">
     <g id="line2d_26">
      <g>
       <use style="stroke:#000000;stroke-width:0.5;" x="108.0" xlink:href="#md7965d1ba0" y="237.6"/>
      </g>
     </g>
     <g id="line2d_27">
      <g>
       <use style="stroke:#000000;stroke-width:0.5;" x="777.6" xlink:href="#md9a1c1a7cd" y="237.6"/>
      </g>
     </g>
     <g id="text_13">
      <!-- 120 -->
      <g transform="translate(83.21 240.91125)scale(0.12 -0.12)">
       <use xlink:href="#BitstreamVeraSans-Roman-31"/>
       <use x="63.623046875" xlink:href="#BitstreamVeraSans-Roman-32"/>
       <use x="127.24609375" xlink:href="#BitstreamVeraSans-Roman-30"/>
      </g>
     </g>
    </g>
    <g id="ytick_8">
     <g id="line2d_28">
      <g>
       <use style="stroke:#000000;stroke-width:0.5;" x="108.0" xlink:href="#md7965d1ba0" y="180.0"/>
      </g>
     </g>
     <g id="line2d_29">
      <g>
       <use style="stroke:#000000;stroke-width:0.5;" x="777.6" xlink:href="#md9a1c1a7cd" y="180.0"/>
      </g>
     </g>
     <g id="text_14">
      <!-- 140 -->
      <g transform="translate(83.21 183.31125)scale(0.12 -0.12)">
       <use xlink:href="#BitstreamVeraSans-Roman-31"/>
       <use x="63.623046875" xlink:href="#BitstreamVeraSans-Roman-34"/>
       <use x="127.24609375" xlink:href="#BitstreamVeraSans-Roman-30"/>
      </g>
     </g>
    </g>
    <g id="ytick_9">
     <g id="line2d_30">
      <g>
       <use style="stroke:#000000;stroke-width:0.5;" x="108.0" xlink:href="#md7965d1ba0" y="122.4"/>
      </g>
     </g>
     <g id="line2d_31">
      <g>
       <use style="stroke:#000000;stroke-width:0.5;" x="777.6" xlink:href="#md9a1c1a7cd" y="122.4"/>
      </g>
     </g>
     <g id="text_15">
      <!-- 160 -->
      <g transform="translate(83.21 125.71125)scale(0.12 -0.12)">
       <use xlink:href="#BitstreamVeraSans-Roman-31"/>
       <use x="63.623046875" xlink:href="#BitstreamVeraSans-Roman-36"/>
       <use x="127.24609375" xlink:href="#BitstreamVeraSans-Roman-30"/>
      </g>
     </g>
    </g>
    <g id="ytick_10">
     <g id="line2d_32">
      <g>
       <use style="stroke:#000000;stroke-width:0.5;" x="108.0" xlink:href="#md7965d1ba0" y="64.8"/>
      </g>
     </g>
     <g id="line2d_33">
      <g>
       <use style="stroke:#000000;stroke-width:0.5;" x="777.6" xlink:href="#md9a1c1a7cd" y="64.8"/>
      </g>
     </g>
     <g id="text_16">
      <!-- 180 -->
      <g transform="translate(83.21 68.11125)scale(0.12 -0.12)">
       <use xlink:href="#BitstreamVeraSans-Roman-31"/>
       <use x="63.623046875" xlink:href="#BitstreamVeraSans-Roman-38"/>
       <use x="127.24609375" xlink:href="#BitstreamVeraSans-Roman-30"/>
      </g>
     </g>
    </g>
    <g id="text_17">
     <!-- particle numbers -->
     <defs>
      <path d="
M9.42188 54.6875
L18.4062 54.6875
L18.4062 0
L9.42188 0
z

M9.42188 75.9844
L18.4062 75.9844
L18.4062 64.5938
L9.42188 64.5938
z
" id="BitstreamVeraSans-Roman-69"/>
      <path d="
M34.2812 27.4844
Q23.3906 27.4844 19.1875 25
Q14.9844 22.5156 14.9844 16.5
Q14.9844 11.7188 18.1406 8.90625
Q21.2969 6.10938 26.7031 6.10938
Q34.1875 6.10938 38.7031 11.4062
Q43.2188 16.7031 43.2188 25.4844
L43.2188 27.4844
z

M52.2031 31.2031
L52.2031 0
L43.2188 0
L43.2188 8.29688
Q40.1406 3.32812 35.5469 0.953125
Q30.9531 -1.42188 24.3125 -1.42188
Q15.9219 -1.42188 10.9531 3.29688
Q6 8.01562 6 15.9219
Q6 25.1406 12.1719 29.8281
Q18.3594 34.5156 30.6094 34.5156
L43.2188 34.5156
L43.2188 35.4062
Q43.2188 41.6094 39.1406 45
Q35.0625 48.3906 27.6875 48.3906
Q23 48.3906 18.5469 47.2656
Q14.1094 46.1406 10.0156 43.8906
L10.0156 52.2031
Q14.9375 54.1094 19.5781 55.0469
Q24.2188 56 28.6094 56
Q40.4844 56 46.3438 49.8438
Q52.2031 43.7031 52.2031 31.2031" id="BitstreamVeraSans-Roman-61"/>
      <path d="
M9.42188 75.9844
L18.4062 75.9844
L18.4062 0
L9.42188 0
z
" id="BitstreamVeraSans-Roman-6c"/>
      <path d="
M48.6875 27.2969
Q48.6875 37.2031 44.6094 42.8438
Q40.5312 48.4844 33.4062 48.4844
Q26.2656 48.4844 22.1875 42.8438
Q18.1094 37.2031 18.1094 27.2969
Q18.1094 17.3906 22.1875 11.75
Q26.2656 6.10938 33.4062 6.10938
Q40.5312 6.10938 44.6094 11.75
Q48.6875 17.3906 48.6875 27.2969
M18.1094 46.3906
Q20.9531 51.2656 25.2656 53.625
Q29.5938 56 35.5938 56
Q45.5625 56 51.7812 48.0938
Q58.0156 40.1875 58.0156 27.2969
Q58.0156 14.4062 51.7812 6.48438
Q45.5625 -1.42188 35.5938 -1.42188
Q29.5938 -1.42188 25.2656 0.953125
Q20.9531 3.32812 18.1094 8.20312
L18.1094 0
L9.07812 0
L9.07812 75.9844
L18.1094 75.9844
z
" id="BitstreamVeraSans-Roman-62"/>
      <path d="
M8.5 21.5781
L8.5 54.6875
L17.4844 54.6875
L17.4844 21.9219
Q17.4844 14.1562 20.5 10.2656
Q23.5312 6.39062 29.5938 6.39062
Q36.8594 6.39062 41.0781 11.0312
Q45.3125 15.6719 45.3125 23.6875
L45.3125 54.6875
L54.2969 54.6875
L54.2969 0
L45.3125 0
L45.3125 8.40625
Q42.0469 3.42188 37.7188 1
Q33.4062 -1.42188 27.6875 -1.42188
Q18.2656 -1.42188 13.375 4.4375
Q8.5 10.2969 8.5 21.5781" id="BitstreamVeraSans-Roman-75"/>
      <path d="
M56.2031 29.5938
L56.2031 25.2031
L14.8906 25.2031
Q15.4844 15.9219 20.4844 11.0625
Q25.4844 6.20312 34.4219 6.20312
Q39.5938 6.20312 44.4531 7.46875
Q49.3125 8.73438 54.1094 11.2812
L54.1094 2.78125
Q49.2656 0.734375 44.1875 -0.34375
Q39.1094 -1.42188 33.8906 -1.42188
Q20.7969 -1.42188 13.1562 6.1875
Q5.51562 13.8125 5.51562 26.8125
Q5.51562 40.2344 12.7656 48.1094
Q20.0156 56 32.3281 56
Q43.3594 56 49.7812 48.8906
Q56.2031 41.7969 56.2031 29.5938
M47.2188 32.2344
Q47.125 39.5938 43.0938 43.9844
Q39.0625 48.3906 32.4219 48.3906
Q24.9062 48.3906 20.3906 44.1406
Q15.875 39.8906 15.1875 32.1719
z
" id="BitstreamVeraSans-Roman-65"/>
      <path d="
M18.1094 8.20312
L18.1094 -20.7969
L9.07812 -20.7969
L9.07812 54.6875
L18.1094 54.6875
L18.1094 46.3906
Q20.9531 51.2656 25.2656 53.625
Q29.5938 56 35.5938 56
Q45.5625 56 51.7812 48.0938
Q58.0156 40.1875 58.0156 27.2969
Q58.0156 14.4062 51.7812 6.48438
Q45.5625 -1.42188 35.5938 -1.42188
Q29.5938 -1.42188 25.2656 0.953125
Q20.9531 3.32812 18.1094 8.20312
M48.6875 27.2969
Q48.6875 37.2031 44.6094 42.8438
Q40.5312 48.4844 33.4062 48.4844
Q26.2656 48.4844 22.1875 42.8438
Q18.1094 37.2031 18.1094 27.2969
Q18.1094 17.3906 22.1875 11.75
Q26.2656 6.10938 33.4062 6.10938
Q40.5312 6.10938 44.6094 11.75
Q48.6875 17.3906 48.6875 27.2969" id="BitstreamVeraSans-Roman-70"/>
      <path d="
M41.1094 46.2969
Q39.5938 47.1719 37.8125 47.5781
Q36.0312 48 33.8906 48
Q26.2656 48 22.1875 43.0469
Q18.1094 38.0938 18.1094 28.8125
L18.1094 0
L9.07812 0
L9.07812 54.6875
L18.1094 54.6875
L18.1094 46.1875
Q20.9531 51.1719 25.4844 53.5781
Q30.0312 56 36.5312 56
Q37.4531 56 38.5781 55.875
Q39.7031 55.7656 41.0625 55.5156
z
" id="BitstreamVeraSans-Roman-72"/>
      <path d="
M54.8906 33.0156
L54.8906 0
L45.9062 0
L45.9062 32.7188
Q45.9062 40.4844 42.875 44.3281
Q39.8438 48.1875 33.7969 48.1875
Q26.5156 48.1875 22.3125 43.5469
Q18.1094 38.9219 18.1094 30.9062
L18.1094 0
L9.07812 0
L9.07812 54.6875
L18.1094 54.6875
L18.1094 46.1875
Q21.3438 51.125 25.7031 53.5625
Q30.0781 56 35.7969 56
Q45.2188 56 50.0469 50.1719
Q54.8906 44.3438 54.8906 33.0156" id="BitstreamVeraSans-Roman-6e"/>
      <path d="
M48.7812 52.5938
L48.7812 44.1875
Q44.9688 46.2969 41.1406 47.3438
Q37.3125 48.3906 33.4062 48.3906
Q24.6562 48.3906 19.8125 42.8438
Q14.9844 37.3125 14.9844 27.2969
Q14.9844 17.2812 19.8125 11.7344
Q24.6562 6.20312 33.4062 6.20312
Q37.3125 6.20312 41.1406 7.25
Q44.9688 8.29688 48.7812 10.4062
L48.7812 2.09375
Q45.0156 0.34375 40.9844 -0.53125
Q36.9688 -1.42188 32.4219 -1.42188
Q20.0625 -1.42188 12.7812 6.34375
Q5.51562 14.1094 5.51562 27.2969
Q5.51562 40.6719 12.8594 48.3281
Q20.2188 56 33.0156 56
Q37.1562 56 41.1094 55.1406
Q45.0625 54.2969 48.7812 52.5938" id="BitstreamVeraSans-Roman-63"/>
     </defs>
     <g transform="translate(75.714375 374.78625)rotate(-90.0)scale(0.12 -0.12)">
      <use xlink:href="#BitstreamVeraSans-Roman-70"/>
      <use x="63.4765625" xlink:href="#BitstreamVeraSans-Roman-61"/>
      <use x="124.755859375" xlink:href="#BitstreamVeraSans-Roman-72"/>
      <use x="165.869140625" xlink:href="#BitstreamVeraSans-Roman-74"/>
      <use x="205.078125" xlink:href="#BitstreamVeraSans-Roman-69"/>
      <use x="232.861328125" xlink:href="#BitstreamVeraSans-Roman-63"/>
      <use x="287.841796875" xlink:href="#BitstreamVeraSans-Roman-6c"/>
      <use x="315.625" xlink:href="#BitstreamVeraSans-Roman-65"/>
      <use x="377.1484375" xlink:href="#BitstreamVeraSans-Roman-20"/>
      <use x="408.935546875" xlink:href="#BitstreamVeraSans-Roman-6e"/>
      <use x="472.314453125" xlink:href="#BitstreamVeraSans-Roman-75"/>
      <use x="535.693359375" xlink:href="#BitstreamVeraSans-Roman-6d"/>
      <use x="633.10546875" xlink:href="#BitstreamVeraSans-Roman-62"/>
      <use x="696.58203125" xlink:href="#BitstreamVeraSans-Roman-65"/>
      <use x="758.10546875" xlink:href="#BitstreamVeraSans-Roman-72"/>
      <use x="799.21875" xlink:href="#BitstreamVeraSans-Roman-73"/>
     </g>
    </g>
   </g>
   <g id="legend_1">
    <g id="patch_7">
     <path d="
M111.5 101.224
L188.776 101.224
L188.776 68.3
L111.5 68.3
z
" style="fill:#ffffff;stroke:#000000;stroke-linejoin:miter;"/>
    </g>
    <g id="line2d_34">
     <path d="
M116.4 73.9689
L126.2 73.9689" style="fill:none;stroke:#ff0000;stroke-linecap:square;"/>
    </g>
    <g id="line2d_35"/>
    <g id="text_18">
     <!-- PDE2cAMP el.0 -->
     <defs>
      <path d="
M34.1875 63.1875
L20.7969 26.9062
L47.6094 26.9062
z

M28.6094 72.9062
L39.7969 72.9062
L67.5781 0
L57.3281 0
L50.6875 18.7031
L17.8281 18.7031
L11.1875 0
L0.78125 0
z
" id="BitstreamVeraSans-Roman-41"/>
      <path d="
M9.8125 72.9062
L24.5156 72.9062
L43.1094 23.2969
L61.8125 72.9062
L76.5156 72.9062
L76.5156 0
L66.8906 0
L66.8906 64.0156
L48.0938 14.0156
L38.1875 14.0156
L19.3906 64.0156
L19.3906 0
L9.8125 0
z
" id="BitstreamVeraSans-Roman-4d"/>
      <path d="
M19.6719 64.7969
L19.6719 37.4062
L32.0781 37.4062
Q38.9688 37.4062 42.7188 40.9688
Q46.4844 44.5312 46.4844 51.125
Q46.4844 57.6719 42.7188 61.2344
Q38.9688 64.7969 32.0781 64.7969
z

M9.8125 72.9062
L32.0781 72.9062
Q44.3438 72.9062 50.6094 67.3594
Q56.8906 61.8125 56.8906 51.125
Q56.8906 40.3281 50.6094 34.8125
Q44.3438 29.2969 32.0781 29.2969
L19.6719 29.2969
L19.6719 0
L9.8125 0
z
" id="BitstreamVeraSans-Roman-50"/>
      <path d="
M10.6875 12.4062
L21 12.4062
L21 0
L10.6875 0
z
" id="BitstreamVeraSans-Roman-2e"/>
      <path d="
M9.8125 72.9062
L55.9062 72.9062
L55.9062 64.5938
L19.6719 64.5938
L19.6719 43.0156
L54.3906 43.0156
L54.3906 34.7188
L19.6719 34.7188
L19.6719 8.29688
L56.7812 8.29688
L56.7812 0
L9.8125 0
z
" id="BitstreamVeraSans-Roman-45"/>
      <path d="
M19.6719 64.7969
L19.6719 8.10938
L31.5938 8.10938
Q46.6875 8.10938 53.6875 14.9375
Q60.6875 21.7812 60.6875 36.5312
Q60.6875 51.1719 53.6875 57.9844
Q46.6875 64.7969 31.5938 64.7969
z

M9.8125 72.9062
L30.0781 72.9062
Q51.2656 72.9062 61.1719 64.0938
Q71.0938 55.2812 71.0938 36.5312
Q71.0938 17.6719 61.125 8.82812
Q51.1719 0 30.0781 0
L9.8125 0
z
" id="BitstreamVeraSans-Roman-44"/>
     </defs>
     <g transform="translate(133.9 76.41890625)scale(0.07 -0.07)">
      <use xlink:href="#BitstreamVeraSans-Roman-50"/>
      <use x="60.302734375" xlink:href="#BitstreamVeraSans-Roman-44"/>
      <use x="137.3046875" xlink:href="#BitstreamVeraSans-Roman-45"/>
      <use x="200.48828125" xlink:href="#BitstreamVeraSans-Roman-32"/>
      <use x="264.111328125" xlink:href="#BitstreamVeraSans-Roman-63"/>
      <use x="319.091796875" xlink:href="#BitstreamVeraSans-Roman-41"/>
      <use x="387.5" xlink:href="#BitstreamVeraSans-Roman-4d"/>
      <use x="473.779296875" xlink:href="#BitstreamVeraSans-Roman-50"/>
      <use x="534.08203125" xlink:href="#BitstreamVeraSans-Roman-20"/>
      <use x="565.869140625" xlink:href="#BitstreamVeraSans-Roman-65"/>
      <use x="627.392578125" xlink:href="#BitstreamVeraSans-Roman-6c"/>
      <use x="655.17578125" xlink:href="#BitstreamVeraSans-Roman-2e"/>
      <use x="686.962890625" xlink:href="#BitstreamVeraSans-Roman-30"/>
     </g>
    </g>
    <g id="line2d_36">
     <path d="
M116.4 84.2436
L126.2 84.2436" style="fill:none;stroke:#008000;stroke-linecap:square;"/>
    </g>
    <g id="line2d_37"/>
    <g id="text_19">
     <!-- PDE2cAMP el.1 -->
     <g transform="translate(133.9 86.69359375)scale(0.07 -0.07)">
      <use xlink:href="#BitstreamVeraSans-Roman-50"/>
      <use x="60.302734375" xlink:href="#BitstreamVeraSans-Roman-44"/>
      <use x="137.3046875" xlink:href="#BitstreamVeraSans-Roman-45"/>
      <use x="200.48828125" xlink:href="#BitstreamVeraSans-Roman-32"/>
      <use x="264.111328125" xlink:href="#BitstreamVeraSans-Roman-63"/>
      <use x="319.091796875" xlink:href="#BitstreamVeraSans-Roman-41"/>
      <use x="387.5" xlink:href="#BitstreamVeraSans-Roman-4d"/>
      <use x="473.779296875" xlink:href="#BitstreamVeraSans-Roman-50"/>
      <use x="534.08203125" xlink:href="#BitstreamVeraSans-Roman-20"/>
      <use x="565.869140625" xlink:href="#BitstreamVeraSans-Roman-65"/>
      <use x="627.392578125" xlink:href="#BitstreamVeraSans-Roman-6c"/>
      <use x="655.17578125" xlink:href="#BitstreamVeraSans-Roman-2e"/>
      <use x="686.962890625" xlink:href="#BitstreamVeraSans-Roman-31"/>
     </g>
    </g>
    <g id="line2d_38">
     <path d="
M116.4 94.5183
L126.2 94.5183" style="fill:none;stroke:#0000ff;stroke-linecap:square;"/>
    </g>
    <g id="line2d_39"/>
    <g id="text_20">
     <!-- PDE2cAMP el.2 -->
     <g transform="translate(133.9 96.96828125)scale(0.07 -0.07)">
      <use xlink:href="#BitstreamVeraSans-Roman-50"/>
      <use x="60.302734375" xlink:href="#BitstreamVeraSans-Roman-44"/>
      <use x="137.3046875" xlink:href="#BitstreamVeraSans-Roman-45"/>
      <use x="200.48828125" xlink:href="#BitstreamVeraSans-Roman-32"/>
      <use x="264.111328125" xlink:href="#BitstreamVeraSans-Roman-63"/>
      <use x="319.091796875" xlink:href="#BitstreamVeraSans-Roman-41"/>
      <use x="387.5" xlink:href="#BitstreamVeraSans-Roman-4d"/>
      <use x="473.779296875" xlink:href="#BitstreamVeraSans-Roman-50"/>
      <use x="534.08203125" xlink:href="#BitstreamVeraSans-Roman-20"/>
      <use x="565.869140625" xlink:href="#BitstreamVeraSans-Roman-65"/>
      <use x="627.392578125" xlink:href="#BitstreamVeraSans-Roman-6c"/>
      <use x="655.17578125" xlink:href="#BitstreamVeraSans-Roman-2e"/>
      <use x="686.962890625" xlink:href="#BitstreamVeraSans-Roman-32"/>
     </g>
    </g>
   </g>
  </g>
 </g>
 <defs>
  <clipPath id="p7ceb695115">
   <rect height="518.4" width="669.6" x="108.0" y="64.8"/>
  </clipPath>
 </defs>
</svg>
