<?xml version="1.0" encoding="utf-8" standalone="no"?>
<!DOCTYPE svg PUBLIC "-//W3C//DTD SVG 1.1//EN"
  "http://www.w3.org/Graphics/SVG/1.1/DTD/svg11.dtd">
<!-- Created with matplotlib (http://matplotlib.org/) -->
<svg height="648pt" version="1.1" viewBox="0 0 864 648" width="864pt" xmlns="http://www.w3.org/2000/svg" xmlns:xlink="http://www.w3.org/1999/xlink">
 <defs>
  <style type="text/css">
*{stroke-linecap:butt;stroke-linejoin:round;}
  </style>
 </defs>
 <g id="figure_1">
  <g id="patch_1">
   <path d="
M0 648
L864 648
L864 0
L0 0
z
" style="fill:#ffffff;"/>
  </g>
  <g id="axes_1">
   <g id="patch_2">
    <path d="
M108 583.2
L777.6 583.2
L777.6 64.8
L108 64.8
z
" style="fill:#ffffff;"/>
   </g>
   <g id="line2d_1">
    <path clip-path="url(#p7ceb695115)" d="
M108 581.956
L109.339 582.785
L110.009 582.371
L110.678 582.993
L111.348 582.578
L112.018 582.578
L112.687 583.2
L113.357 582.371
L114.026 582.785
L114.696 582.993
L118.714 582.993
L119.383 583.2
L120.053 583.2
L120.722 582.993
L121.392 582.993
L122.062 583.2
L122.731 582.785
L123.401 583.2
L126.079 583.2
L126.749 582.578
L127.418 583.2
L136.123 583.2
L136.793 582.993
L137.462 582.993
L138.132 583.2
L139.471 583.2
L140.141 582.993
L140.81 583.2
L141.48 582.993
L142.15 583.2
L154.202 583.2
L154.872 582.993
L155.542 582.993
L156.211 583.2
L158.22 583.2
L158.89 582.993
L159.559 583.2
L442.8 583.2
L443.47 483.46
L444.139 471.848
L444.809 483.46
L445.478 485.119
L446.818 493.828
L447.487 488.644
L448.157 484.704
L448.826 494.243
L449.496 492.169
L450.166 491.547
L450.835 486.985
L451.505 488.644
L452.174 487.192
L452.844 491.34
L453.514 492.169
L454.183 487.4
L454.853 493.828
L455.522 488.022
L456.192 492.376
L456.862 486.363
L457.531 490.095
L458.201 490.51
L458.87 482.423
L459.54 487.4
L460.21 496.731
L460.879 494.035
L461.549 497.146
L462.218 491.34
L462.888 491.754
L463.558 490.717
L464.227 494.035
L464.897 481.594
L465.566 492.791
L466.236 492.169
L466.906 497.975
L467.575 490.925
L468.245 491.34
L468.914 486.57
L469.584 490.303
L470.254 491.547
L470.923 485.119
L471.593 492.584
L472.262 489.681
L472.932 491.754
L473.602 498.597
L474.271 494.45
L474.941 491.132
L475.61 490.095
L476.28 491.34
L476.95 498.39
L477.619 485.741
L478.289 488.022
L478.958 489.059
L479.628 490.925
L480.298 491.754
L480.967 495.072
L481.637 486.57
L482.306 493.206
L482.976 490.303
L483.646 492.791
L484.315 488.022
L484.985 491.754
L485.654 491.34
L486.324 486.156
L486.994 484.289
L487.663 483.875
L488.333 490.51
L489.002 494.45
L489.672 496.316
L490.342 496.524
L491.011 494.865
L491.681 491.34
L492.35 486.778
L493.02 493.206
L493.69 493.206
L494.359 485.326
L495.029 487.192
L495.698 492.376
L496.368 485.326
L497.038 491.547
L497.707 489.473
L498.377 488.436
L499.716 492.791
L500.386 495.694
L501.055 490.303
L501.725 486.363
L502.394 483.875
L503.064 493.62
L503.734 488.851
L504.403 494.45
L505.742 486.57
L506.412 490.51
L507.082 484.911
L507.751 494.243
L508.421 492.584
L509.09 488.229
L509.76 489.266
L510.43 491.962
L511.099 496.109
L511.769 496.316
L512.438 491.34
L513.108 494.45
L513.778 494.865
L514.447 495.487
L515.117 481.801
L515.786 486.778
L516.456 493.206
L517.126 484.497
L517.795 489.059
L518.465 484.704
L519.134 488.229
L519.804 488.851
L520.474 484.497
L521.143 494.45
L521.813 495.901
L522.482 494.035
L523.152 495.072
L523.822 486.363
L524.491 495.279
L525.161 495.487
L525.83 487.814
L526.5 489.059
L527.17 489.059
L527.839 487.814
L528.509 492.169
L529.178 483.252
L529.848 490.717
L530.518 489.681
L531.187 491.962
L531.857 489.266
L532.526 490.303
L533.196 497.768
L533.866 491.962
L534.535 492.169
L535.205 493.828
L535.874 491.132
L536.544 493.828
L537.214 487.4
L537.883 485.119
L538.553 493.828
L539.222 488.229
L539.892 494.035
L540.562 498.804
L541.231 494.657
L541.901 495.279
L542.57 498.804
L543.24 493.206
L543.91 496.938
L544.579 488.229
L545.249 486.985
L545.918 490.303
L546.588 490.717
L547.258 493.828
L548.597 485.741
L549.266 494.45
L549.936 490.303
L550.606 496.731
L551.275 483.46
L551.945 492.998
L552.614 494.243
L553.284 496.524
L553.954 486.363
L554.623 494.657
L555.293 491.547
L555.962 492.791
L556.632 486.985
L557.302 493.413
L557.971 493.62
L558.641 492.998
L559.31 488.436
L559.98 491.754
L560.65 496.316
L561.319 491.132
L561.989 488.022
L562.658 498.182
L563.328 492.169
L563.998 489.266
L564.667 486.985
L565.337 491.34
L566.006 488.851
L566.676 487.192
L567.346 487.607
L568.015 487.4
L568.685 490.51
L569.354 491.754
L570.024 494.243
L570.694 492.376
L571.363 492.376
L572.033 490.51
L572.702 495.072
L574.042 484.704
L575.381 490.095
L576.05 488.644
L576.72 483.252
L577.39 486.57
L578.059 494.657
L578.729 497.768
L579.398 486.57
L580.068 491.962
L580.738 483.667
L581.407 488.436
L582.077 489.681
L582.746 489.888
L583.416 499.841
L584.086 489.473
L584.755 487.814
L585.425 487.607
L586.094 493.413
L586.764 485.119
L587.434 495.901
L588.103 496.938
L588.773 491.132
L589.442 492.376
L590.112 491.754
L590.782 494.865
L591.451 489.059
L592.121 488.022
L592.79 493.413
L593.46 492.169
L594.13 490.303
L594.799 490.51
L595.469 490.925
L596.138 486.985
L596.808 491.34
L597.478 493.206
L598.147 489.266
L598.817 487.814
L599.486 496.109
L600.156 492.376
L600.826 495.072
L601.495 501.915
L602.165 494.657
L602.834 493.413
L603.504 496.731
L604.174 486.363
L604.843 489.266
L605.513 486.57
L606.182 489.888
L606.852 489.266
L607.522 484.289
L608.191 495.901
L608.861 495.694
L609.53 495.694
L610.2 485.119
L610.87 490.51
L611.539 490.303
L612.209 495.487
L612.878 498.804
L613.548 486.985
L614.218 490.51
L614.887 490.095
L616.226 492.169
L616.896 492.998
L617.566 490.717
L618.235 485.119
L618.905 490.925
L619.574 486.985
L620.244 489.681
L620.914 488.022
L621.583 480.764
L622.253 488.229
L622.922 490.095
L623.592 487.814
L624.262 491.754
L624.931 493.828
L625.601 494.035
L626.27 492.169
L626.94 494.657
L627.61 484.289
L628.279 495.487
L628.949 494.657
L629.618 490.303
L630.288 491.547
L630.958 489.681
L631.627 490.51
L632.297 490.717
L632.966 491.962
L633.636 491.132
L634.306 490.925
L634.975 483.46
L635.645 485.326
L636.314 494.865
L636.984 495.072
L638.323 485.948
L638.993 496.524
L639.662 499.841
L640.332 492.584
L641.002 492.791
L641.671 492.584
L642.341 491.754
L643.01 493.62
L643.68 486.985
L644.35 482.838
L645.019 488.022
L645.689 497.768
L646.358 489.266
L647.028 490.51
L647.698 490.303
L648.367 490.51
L649.037 497.146
L649.706 493.62
L650.376 492.998
L651.715 489.473
L652.385 489.888
L653.054 492.169
L653.724 487.192
L654.394 489.266
L655.063 492.169
L655.733 493.206
L656.402 498.39
L657.072 488.022
L657.742 483.045
L658.411 489.888
L659.081 485.533
L659.75 487.607
L660.42 488.644
L661.09 490.095
L661.759 488.022
L662.429 491.34
L663.098 490.51
L663.768 484.911
L664.438 484.704
L665.107 486.985
L665.777 488.022
L666.446 486.363
L667.116 488.022
L667.786 488.851
L668.455 492.376
L669.125 486.156
L669.794 498.597
L670.464 492.998
L671.134 488.644
L671.803 486.57
L672.473 493.62
L673.142 494.865
L673.812 493.62
L674.482 496.109
L675.151 484.911
L675.821 487.4
L676.49 486.985
L677.16 491.754
L677.83 494.243
L678.499 495.694
L679.169 485.533
L679.838 489.473
L680.508 491.547
L681.178 494.243
L681.847 495.072
L682.517 490.717
L683.186 483.045
L683.856 498.39
L684.526 489.059
L685.195 499.012
L685.865 488.436
L686.534 489.266
L687.204 482.63
L687.874 484.497
L688.543 492.998
L689.213 493.62
L689.882 489.681
L690.552 492.376
L691.222 489.681
L691.891 493.206
L692.561 489.888
L693.23 495.279
L693.9 485.533
L695.239 497.146
L695.909 489.059
L696.578 494.45
L697.248 491.754
L697.918 484.082
L698.587 497.975
L699.926 487.4
L700.596 488.436
L701.266 485.741
L701.935 489.266
L702.605 498.804
L703.944 488.644
L704.614 491.132
L705.283 488.436
L705.953 487.814
L706.622 492.791
L707.292 489.266
L707.962 489.888
L708.631 485.119
L709.301 489.473
L709.97 486.57
L710.64 489.681
L711.31 490.51
L711.979 499.219
L712.649 492.791
L713.318 490.303
L713.988 493.62
L714.658 488.229
L715.327 488.644
L715.997 491.132
L717.336 484.911
L718.675 492.998
L719.345 488.229
L720.014 485.119
L720.684 488.436
L721.354 493.828
L722.023 490.51
L722.693 492.169
L723.362 487.4
L724.032 496.109
L724.702 492.169
L725.371 498.804
L726.041 487.192
L726.71 494.45
L727.38 495.279
L728.05 495.072
L728.719 491.754
L729.389 494.865
L730.058 492.376
L730.728 496.938
L731.398 493.62
L732.067 492.376
L732.737 488.851
L733.406 487.192
L734.746 491.962
L735.415 488.022
L736.085 488.851
L736.754 491.132
L737.424 494.243
L738.094 494.657
L738.763 487.814
L739.433 490.51
L740.102 490.303
L740.772 492.584
L741.442 477.654
L742.111 495.279
L742.781 485.533
L743.45 494.657
L744.12 491.754
L744.79 489.888
L745.459 492.998
L746.129 490.095
L746.798 496.109
L747.468 487.4
L748.138 490.51
L748.807 492.376
L749.477 483.252
L750.146 488.436
L750.816 485.948
L751.486 489.681
L752.155 490.717
L752.825 495.279
L753.494 489.266
L754.164 487.4
L754.834 496.316
L755.503 495.694
L756.173 492.998
L756.842 492.584
L757.512 493.206
L758.182 492.169
L758.851 490.095
L760.19 485.119
L760.86 486.156
L761.53 494.035
L762.199 490.717
L762.869 494.657
L763.538 492.791
L764.208 489.681
L764.878 489.059
L765.547 492.376
L766.217 496.524
L766.886 490.303
L767.556 491.34
L768.226 489.266
L768.895 494.45
L769.565 488.022
L770.234 491.547
L770.904 490.095
L771.574 493.413
L772.243 500.878
L772.913 487.4
L773.582 493.62
L774.252 492.584
L774.922 495.694
L775.591 496.524
L776.261 490.095
L776.93 490.095
L777.6 496.109
L777.6 496.109" style="fill:none;stroke:#ff0000;stroke-linecap:square;"/>
   </g>
   <g id="line2d_2">
    <path clip-path="url(#p7ceb695115)" d="
M108 578.223
L108.67 578.431
L109.339 578.223
L110.009 580.297
L110.678 580.297
L111.348 580.09
L112.018 580.919
L112.687 580.09
L113.357 581.334
L115.366 581.956
L116.705 581.956
L118.044 582.785
L118.714 582.578
L119.383 582.578
L120.053 582.371
L120.722 582.785
L121.392 582.785
L122.062 582.578
L122.731 582.993
L123.401 582.785
L124.07 582.993
L124.74 582.785
L126.079 582.785
L126.749 583.2
L127.418 582.785
L128.088 582.785
L129.427 583.2
L130.097 582.993
L133.445 582.993
L134.114 583.2
L134.784 582.993
L135.454 582.993
L136.123 583.2
L138.132 583.2
L138.802 582.993
L139.471 583.2
L140.141 583.2
L140.81 582.993
L141.48 583.2
L142.15 582.993
L145.498 582.993
L146.167 583.2
L146.837 582.993
L147.506 583.2
L148.176 583.2
L148.846 582.993
L154.202 582.993
L154.872 583.2
L155.542 583.2
L156.211 582.993
L157.55 582.993
L158.22 583.2
L442.8 583.2
L443.47 144.219
L444.139 170.139
L444.809 178.019
L445.478 180.092
L446.148 190.668
L446.818 188.594
L448.157 198.755
L448.826 197.51
L449.496 206.427
L450.166 204.146
L450.835 210.989
L451.505 216.38
L452.844 207.256
L453.514 204.975
L454.183 214.929
L454.853 213.062
L455.522 211.818
L456.192 207.464
L456.862 221.357
L457.531 219.283
L458.201 213.477
L458.87 213.684
L459.54 212.855
L460.21 207.049
L460.879 214.307
L461.549 206.842
L462.218 215.758
L462.888 208.915
L463.558 213.27
L464.227 210.574
L464.897 222.601
L465.566 214.099
L466.236 208.086
L466.906 199.169
L467.575 209.537
L468.245 215.758
L468.914 218.039
L469.584 216.38
L470.254 209.33
L470.923 221.149
L471.593 204.146
L472.262 217.002
L472.932 205.805
L473.602 202.694
L474.271 208.293
L474.941 209.537
L475.61 212.855
L476.28 213.892
L476.95 207.049
L478.289 217.417
L478.958 211.611
L479.628 213.062
L480.298 205.805
L480.967 209.745
L481.637 218.246
L482.306 203.731
L482.976 212.233
L483.646 213.892
L484.315 212.648
L484.985 213.892
L485.654 211.818
L486.324 213.27
L486.994 225.089
L487.663 231.103
L488.333 208.708
L489.002 206.012
L489.672 204.975
L490.342 209.33
L491.681 213.892
L492.35 210.367
L493.69 207.256
L494.359 219.698
L495.698 205.39
L496.368 216.38
L497.038 215.758
L497.707 212.648
L498.377 214.099
L499.046 207.464
L499.716 208.5
L500.386 202.072
L501.055 222.186
L501.725 215.965
L502.394 223.016
L503.064 206.427
L503.734 212.855
L504.403 206.012
L505.073 204.146
L505.742 221.979
L506.412 210.574
L507.082 212.855
L507.751 207.878
L508.421 210.989
L509.09 214.721
L509.76 206.842
L510.43 211.196
L511.099 201.865
L511.769 206.842
L512.438 208.708
L513.108 203.939
L513.778 210.781
L514.447 214.721
L515.117 223.016
L515.786 222.601
L516.456 207.671
L517.126 219.076
L517.795 217.417
L518.465 213.684
L519.134 212.233
L519.804 214.307
L520.474 220.113
L521.143 199.584
L521.813 208.293
L523.152 215.758
L523.822 214.929
L524.491 215.136
L525.161 209.33
L525.83 207.671
L526.5 220.113
L527.17 203.731
L527.839 214.929
L528.509 204.561
L529.178 214.721
L529.848 213.062
L530.518 206.427
L531.187 216.588
L531.857 219.905
L532.526 219.491
L533.196 206.634
L533.866 208.708
L534.535 212.233
L535.205 204.146
L535.874 212.026
L536.544 208.293
L537.214 211.818
L537.883 214.307
L538.553 203.939
L539.222 212.44
L539.892 210.574
L540.562 213.477
L541.231 212.44
L541.901 208.086
L542.57 210.781
L543.24 210.781
L543.91 206.634
L544.579 219.283
L545.249 213.27
L545.918 213.892
L546.588 213.27
L547.258 212.233
L547.927 215.758
L548.597 217.21
L549.266 213.27
L549.936 210.781
L550.606 210.989
L551.275 219.698
L551.945 214.721
L552.614 202.694
L553.284 200.828
L553.954 212.855
L554.623 200.206
L555.293 210.367
L555.962 215.136
L556.632 212.855
L557.302 214.307
L557.971 206.634
L558.641 209.537
L559.31 215.136
L560.65 210.367
L561.319 213.684
L561.989 214.099
L562.658 205.39
L563.328 217.21
L563.998 215.343
L564.667 217.417
L565.337 215.551
L566.006 209.537
L566.676 209.745
L567.346 219.283
L568.015 212.648
L568.685 214.099
L569.354 210.159
L570.024 210.574
L570.694 211.196
L571.363 215.343
L572.702 203.109
L573.372 216.173
L574.042 223.223
L574.711 214.514
L575.381 213.062
L576.05 213.892
L576.72 215.758
L577.39 217.002
L578.059 204.975
L578.729 203.731
L580.068 214.929
L580.738 212.855
L581.407 213.684
L582.077 215.758
L582.746 219.283
L583.416 204.561
L584.086 213.477
L584.755 214.721
L585.425 213.684
L586.094 210.574
L586.764 220.527
L587.434 208.5
L588.103 203.939
L588.773 214.307
L589.442 207.049
L590.112 213.477
L590.782 214.307
L591.451 214.307
L592.121 218.039
L592.79 214.514
L593.46 210.367
L594.13 213.477
L594.799 214.514
L595.469 210.781
L596.138 212.648
L596.808 212.026
L597.478 211.818
L598.147 215.758
L598.817 212.44
L599.486 203.524
L600.156 211.611
L600.826 212.026
L601.495 199.377
L602.165 204.975
L602.834 209.537
L603.504 208.915
L604.174 214.514
L604.843 199.791
L605.513 210.367
L606.182 213.477
L606.852 218.661
L608.191 201.658
L608.861 203.316
L609.53 203.731
L610.2 218.454
L610.87 209.745
L611.539 217.002
L612.209 211.404
L612.878 208.708
L613.548 213.684
L614.218 216.38
L614.887 218.246
L615.557 210.367
L616.226 216.588
L616.896 209.745
L617.566 214.514
L618.235 217.832
L618.905 208.293
L619.574 214.307
L620.244 208.5
L620.914 212.648
L621.583 219.076
L622.253 203.524
L622.922 219.905
L623.592 214.099
L624.262 209.537
L624.931 207.671
L625.601 208.293
L626.27 208.708
L626.94 210.367
L627.61 219.905
L628.279 209.745
L628.949 206.427
L629.618 210.574
L630.288 209.33
L630.958 209.537
L631.627 206.842
L632.966 218.039
L633.636 209.952
L634.306 213.477
L634.975 211.196
L635.645 217.21
L636.314 200.413
L636.984 209.33
L637.654 210.159
L638.323 212.026
L638.993 201.45
L639.662 205.39
L640.332 208.086
L641.002 213.684
L641.671 209.537
L642.341 217.21
L643.01 204.768
L643.68 215.551
L644.35 220.32
L645.019 216.173
L645.689 206.427
L647.028 213.062
L647.698 217.832
L648.367 213.684
L649.037 207.878
L649.706 203.731
L650.376 213.27
L651.046 211.196
L651.715 218.661
L652.385 211.611
L653.054 214.929
L653.724 210.989
L654.394 210.367
L655.063 211.196
L655.733 213.062
L656.402 207.256
L657.072 214.929
L657.742 220.113
L658.411 217.21
L659.081 217.624
L659.75 220.735
L660.42 209.33
L661.09 212.026
L661.759 209.745
L662.429 214.307
L663.098 216.588
L663.768 211.818
L664.438 215.343
L665.107 213.892
L665.777 218.246
L666.446 210.989
L667.116 208.708
L667.786 216.588
L668.455 206.427
L669.125 218.039
L669.794 201.45
L670.464 214.929
L671.134 222.601
L671.803 211.404
L672.473 214.929
L673.142 207.464
L673.812 208.915
L674.482 211.404
L675.151 221.564
L675.821 215.551
L676.49 219.905
L677.16 209.33
L677.83 203.109
L678.499 212.233
L679.169 212.233
L679.838 219.491
L680.508 211.196
L681.178 221.979
L681.847 210.989
L682.517 214.514
L683.186 222.186
L683.856 204.561
L684.526 219.905
L685.195 208.708
L685.865 217.417
L686.534 208.293
L687.204 218.868
L687.874 224.675
L688.543 209.123
L689.213 207.671
L689.882 218.246
L691.222 215.343
L691.891 215.343
L692.561 208.915
L693.23 212.44
L693.9 220.735
L694.57 212.855
L695.239 208.708
L695.909 210.781
L696.578 204.975
L697.248 207.671
L697.918 217.624
L698.587 205.39
L699.926 215.343
L700.596 213.684
L701.266 211.611
L701.935 213.062
L703.274 203.524
L703.944 215.758
L704.614 215.965
L705.283 213.892
L706.622 218.454
L707.292 213.477
L707.962 209.745
L708.631 221.979
L709.301 221.564
L709.97 218.246
L710.64 210.367
L711.31 217.002
L711.979 208.086
L713.318 214.721
L713.988 207.878
L714.658 213.892
L715.327 221.357
L715.997 222.186
L716.666 214.721
L717.336 221.564
L718.006 211.611
L718.675 209.745
L719.345 216.173
L720.014 210.367
L720.684 220.113
L721.354 216.173
L722.023 220.113
L722.693 217.417
L723.362 212.648
L724.032 201.658
L724.702 213.477
L725.371 202.694
L726.041 209.123
L726.71 211.404
L727.38 207.464
L728.05 215.343
L729.389 203.316
L730.058 214.307
L730.728 210.159
L731.398 217.21
L732.067 210.159
L732.737 207.671
L733.406 219.698
L734.076 213.477
L734.746 214.099
L735.415 215.965
L736.085 223.845
L736.754 211.611
L737.424 204.975
L738.763 208.915
L739.433 207.671
L740.102 204.146
L740.772 210.781
L741.442 227.785
L742.111 210.159
L742.781 211.196
L743.45 203.731
L744.12 216.795
L744.79 207.878
L745.459 208.5
L746.129 215.758
L746.798 208.708
L747.468 219.905
L748.138 214.307
L748.807 207.049
L749.477 213.892
L750.816 223.845
L751.486 212.648
L752.155 215.758
L752.825 215.551
L753.494 220.113
L754.164 215.136
L754.834 204.975
L755.503 210.989
L756.173 206.012
L756.842 208.293
L757.512 209.537
L758.182 213.684
L758.851 215.136
L759.521 211.818
L760.19 214.099
L760.86 221.979
L761.53 207.878
L762.199 207.878
L762.869 215.343
L763.538 201.036
L764.208 210.159
L764.878 214.721
L765.547 210.367
L766.217 204.561
L766.886 208.086
L767.556 209.745
L768.226 207.878
L768.895 207.464
L769.565 212.648
L770.234 211.196
L770.904 214.721
L771.574 211.611
L772.243 200.621
L772.913 212.855
L773.582 214.307
L774.252 211.611
L774.922 209.952
L775.591 215.136
L776.261 221.772
L777.6 208.915
L777.6 208.915" style="fill:none;stroke:#008000;stroke-linecap:square;"/>
   </g>
   <g id="line2d_3">
    <path clip-path="url(#p7ceb695115)" d="
M108 581.956
L108.67 582.993
L109.339 582.785
L110.009 582.163
L111.348 582.163
L112.018 582.993
L113.357 582.578
L114.026 582.993
L114.696 582.371
L115.366 583.2
L116.035 582.785
L116.705 582.993
L117.374 582.993
L118.044 583.2
L118.714 582.993
L119.383 582.993
L120.053 583.2
L120.722 583.2
L121.392 582.993
L122.062 583.2
L122.731 583.2
L123.401 582.993
L125.41 582.993
L126.079 583.2
L128.758 583.2
L129.427 582.993
L130.097 583.2
L137.462 583.2
L138.132 582.993
L138.802 583.2
L139.471 582.993
L140.141 583.2
L442.8 583.2
L443.47 472.884
L444.809 478.276
L445.478 482.63
L446.148 479.935
L447.487 488.229
L448.157 494.865
L449.496 483.252
L450.166 489.266
L450.835 489.473
L451.505 484.497
L452.174 490.095
L452.844 491.754
L453.514 493.828
L454.853 485.533
L455.522 492.584
L456.192 492.169
L456.862 484.497
L457.531 482.838
L458.201 488.644
L458.87 496.731
L459.54 492.791
L460.21 489.681
L460.879 485.119
L461.549 489.473
L462.218 486.363
L462.888 492.791
L463.558 489.473
L464.227 488.851
L464.897 489.266
L465.566 486.57
L466.236 493.206
L466.906 496.316
L467.575 492.998
L468.245 486.363
L468.914 488.851
L469.584 486.778
L470.254 492.584
L470.923 487.192
L471.593 496.731
L472.262 486.778
L472.932 495.901
L473.602 492.169
L474.271 490.717
L474.941 492.791
L476.28 488.229
L476.95 488.022
L477.619 495.072
L478.289 488.022
L478.958 492.791
L479.628 489.473
L480.298 495.901
L480.967 488.644
L481.637 488.644
L482.306 496.524
L482.976 490.925
L483.646 486.778
L484.315 492.791
L484.985 487.814
L485.654 490.303
L486.324 494.035
L486.994 484.082
L487.663 478.483
L488.333 494.243
L489.002 492.998
L489.672 492.169
L490.342 487.607
L491.011 486.985
L491.681 488.229
L492.35 496.316
L493.02 491.547
L493.69 492.998
L494.359 488.436
L495.029 494.243
L495.698 495.694
L496.368 491.754
L497.038 486.156
L497.707 491.34
L498.377 490.925
L499.046 495.487
L499.716 492.169
L500.386 495.694
L501.055 480.972
L501.725 491.132
L502.394 486.57
L503.064 493.413
L503.734 491.754
L504.403 492.998
L505.073 499.012
L505.742 484.911
L506.412 492.376
L507.082 495.694
L507.751 491.34
L508.421 489.888
L509.09 490.51
L509.76 497.353
L510.43 490.303
L511.099 495.487
L511.769 490.303
L512.438 493.413
L513.108 495.072
L513.778 487.814
L514.447 483.252
L515.117 488.644
L515.786 484.082
L516.456 492.584
L517.795 486.985
L518.465 495.072
L519.134 492.998
L519.804 490.303
L520.474 488.851
L521.143 499.427
L521.813 489.266
L522.482 487.4
L523.152 482.63
L523.822 492.169
L524.491 483.045
L525.161 488.644
L525.83 497.975
L526.5 484.289
L527.17 500.671
L527.839 490.717
L528.509 496.731
L529.178 495.487
L529.848 489.681
L530.518 497.353
L531.187 484.911
L532.526 483.667
L533.196 489.059
L533.866 492.791
L534.535 489.059
L535.205 495.487
L535.874 490.303
L536.544 491.34
L537.214 494.243
L537.883 494.035
L538.553 495.694
L539.222 492.791
L539.892 488.851
L540.562 481.179
L541.231 486.363
L541.901 490.095
L542.57 483.875
L543.24 489.473
L543.91 489.888
L544.579 485.948
L545.249 493.206
L545.918 489.266
L546.588 489.473
L547.258 487.4
L547.927 488.229
L548.597 490.51
L549.266 485.741
L549.936 492.376
L550.606 485.741
L551.275 490.303
L551.945 485.741
L552.614 496.524
L553.284 496.109
L553.954 494.243
L554.623 498.597
L555.962 485.533
L556.632 493.62
L557.302 485.741
L557.971 493.206
L558.641 490.925
L559.98 488.851
L560.65 486.778
L561.319 488.644
L561.989 491.34
L562.658 489.888
L563.328 484.082
L563.998 488.851
L564.667 489.059
L565.337 486.57
L566.006 495.072
L566.676 496.524
L567.346 486.57
L568.015 493.413
L568.685 488.851
L569.354 491.547
L570.024 488.644
L570.694 489.888
L571.363 485.741
L572.033 493.413
L572.702 495.279
L573.372 487.4
L574.042 485.533
L574.711 491.754
L575.381 490.303
L576.05 490.925
L576.72 494.45
L577.39 489.888
L578.059 493.828
L578.729 491.962
L579.398 497.146
L580.068 486.57
L580.738 496.938
L581.407 491.34
L582.746 484.289
L583.416 489.059
L584.086 490.51
L584.755 490.925
L585.425 492.169
L586.094 489.473
L586.764 487.814
L587.434 489.059
L588.103 492.584
L588.773 488.022
L589.442 494.035
L590.112 488.229
L590.782 484.289
L591.451 490.095
L592.121 487.4
L592.79 485.533
L593.46 490.925
L594.799 488.436
L595.469 491.754
L596.138 493.828
L596.808 490.095
L597.478 488.436
L598.147 488.436
L598.817 493.206
L599.486 493.828
L600.156 489.473
L600.826 486.363
L601.495 492.169
L602.165 493.828
L602.834 490.51
L603.504 487.814
L604.174 492.584
L604.843 504.403
L605.513 496.524
L606.182 490.095
L606.852 485.533
L607.522 499.012
L608.191 495.901
L608.861 494.45
L609.53 494.035
L610.2 489.888
L610.87 493.206
L611.539 486.156
L612.209 486.57
L612.878 485.948
L613.548 492.791
L614.218 486.57
L614.887 485.119
L615.557 491.962
L616.226 484.704
L616.896 490.717
L617.566 488.229
L618.235 490.51
L618.905 494.243
L619.574 492.169
L620.244 495.279
L620.914 492.791
L621.583 493.62
L622.253 501.708
L622.922 483.46
L623.592 491.547
L624.262 492.169
L624.931 491.962
L625.601 491.132
L626.27 492.584
L626.94 488.436
L627.61 489.266
L628.279 488.229
L628.949 492.376
L629.618 492.584
L630.288 492.584
L631.627 496.109
L632.966 483.46
L633.636 492.376
L634.306 489.059
L634.975 498.804
L635.645 490.925
L636.314 498.182
L636.984 489.059
L637.654 492.584
L638.323 495.487
L638.993 495.487
L639.662 488.229
L640.332 492.791
L641.002 486.985
L641.671 491.34
L642.341 484.497
L643.01 495.072
L643.68 490.925
L644.35 490.303
L645.019 489.266
L645.689 489.266
L646.358 494.657
L647.698 485.326
L648.367 489.266
L649.037 488.436
L649.706 496.109
L650.376 487.192
L651.046 491.132
L651.715 485.326
L652.385 491.962
L653.054 486.363
L653.724 495.279
L654.394 493.828
L655.063 490.095
L655.733 487.192
L656.402 487.814
L657.072 490.51
L657.742 490.303
L658.411 486.363
L659.081 490.303
L659.75 485.119
L660.42 495.487
L661.09 491.34
L661.759 495.694
L662.429 487.814
L663.098 486.363
L663.768 496.731
L664.438 493.413
L665.107 492.584
L665.777 487.192
L666.446 496.109
L667.116 496.731
L667.786 488.022
L668.455 494.657
L669.125 489.266
L669.794 493.413
L670.464 485.533
L671.134 482.216
L671.803 495.487
L672.473 484.911
L673.142 491.132
L673.812 490.925
L674.482 485.948
L675.151 486.985
L675.821 490.51
L676.49 486.57
L677.16 492.376
L677.83 496.109
L678.499 485.533
L679.169 495.694
L679.838 484.497
L680.508 490.717
L681.178 477.239
L681.847 487.4
L682.517 488.229
L683.186 488.229
L683.856 490.51
L684.526 484.497
L685.195 485.741
L685.865 487.607
L686.534 495.901
L687.204 491.962
L687.874 484.289
L688.543 491.34
L689.213 492.169
L689.882 485.533
L690.552 484.289
L691.222 488.436
L691.891 484.911
L692.561 494.657
L693.23 485.741
L693.9 487.192
L694.57 489.473
L695.239 487.607
L695.909 493.62
L696.578 494.035
L697.248 494.035
L697.918 491.754
L698.587 490.095
L699.257 490.717
L699.926 490.717
L700.596 491.34
L701.266 496.109
L702.605 486.363
L703.274 495.901
L703.944 489.059
L704.614 486.363
L705.283 491.132
L705.953 489.473
L706.622 482.216
L707.292 490.717
L707.962 493.828
L708.631 486.363
L709.301 482.423
L709.97 488.644
L710.64 493.413
L711.31 485.948
L711.979 486.156
L712.649 489.473
L713.318 488.436
L713.988 491.962
L714.658 491.34
L715.327 483.46
L715.997 480.142
L716.666 490.925
L717.336 486.985
L718.006 492.998
L718.675 490.717
L719.345 489.059
L720.014 497.975
L720.684 484.911
L721.354 483.46
L722.023 482.838
L722.693 483.875
L723.362 493.413
L724.032 495.694
L724.702 487.814
L725.371 491.962
L726.041 497.146
L726.71 487.607
L727.38 490.717
L728.05 483.045
L728.719 492.169
L729.389 495.279
L730.058 486.778
L730.728 486.363
L731.398 482.63
L732.067 490.925
L732.737 496.938
L733.406 486.57
L734.076 490.303
L734.746 487.4
L735.415 489.473
L736.085 480.764
L736.754 490.717
L737.424 494.243
L738.094 491.754
L738.763 496.731
L739.433 495.279
L740.102 499.012
L740.772 490.095
L741.442 488.022
L742.111 488.022
L742.781 496.731
L743.45 495.072
L744.12 484.911
L744.79 495.694
L746.129 487.607
L746.798 488.644
L747.468 486.156
L748.138 488.644
L748.807 494.035
L749.477 496.316
L750.146 486.156
L750.816 483.667
L751.486 491.132
L752.825 482.63
L753.494 484.082
L754.164 490.925
L754.834 492.169
L755.503 486.778
L756.173 494.45
L757.512 490.717
L758.182 487.607
L758.851 488.229
L759.521 494.243
L760.19 494.243
L760.86 485.326
L761.53 491.547
L762.199 494.865
L762.869 483.46
L763.538 499.634
L764.208 493.62
L764.878 489.681
L765.547 490.717
L766.217 492.376
L766.886 495.072
L767.556 492.376
L768.226 496.316
L768.895 491.547
L769.565 492.791
L770.904 488.644
L771.574 488.436
L772.243 491.962
L772.913 493.206
L773.582 485.533
L774.252 489.266
L774.922 487.814
L775.591 481.801
L776.261 481.594
L776.93 487.814
L777.6 488.436
L777.6 488.436" style="fill:none;stroke:#0000ff;stroke-linecap:square;"/>
   </g>
   <g id="patch_3">
    <path d="
M108 583.2
L108 64.8" style="fill:none;stroke:#000000;stroke-linecap:square;stroke-linejoin:miter;"/>
   </g>
   <g id="patch_4">
    <path d="
M108 583.2
L777.6 583.2" style="fill:none;stroke:#000000;stroke-linecap:square;stroke-linejoin:miter;"/>
   </g>
   <g id="patch_5">
    <path d="
M108 64.8
L777.6 64.8" style="fill:none;stroke:#000000;stroke-linecap:square;stroke-linejoin:miter;"/>
   </g>
   <g id="patch_6">
    <path d="
M777.6 583.2
L777.6 64.8" style="fill:none;stroke:#000000;stroke-linecap:square;stroke-linejoin:miter;"/>
   </g>
   <g id="matplotlib.axis_1">
    <g id="xtick_1">
     <g id="line2d_4">
      <defs>
       <path d="
M0 0
L0 -4" id="mc7db9fdffb" style="stroke:#000000;stroke-width:0.5;"/>
      </defs>
      <g>
       <use style="stroke:#000000;stroke-width:0.5;" x="108.0" xlink:href="#mc7db9fdffb" y="583.2"/>
      </g>
     </g>
     <g id="line2d_5">
      <defs>
       <path d="
M0 0
L0 4" id="m5a7d422ac3" style="stroke:#000000;stroke-width:0.5;"/>
      </defs>
      <g>
       <use style="stroke:#000000;stroke-width:0.5;" x="108.0" xlink:href="#m5a7d422ac3" y="64.8"/>
      </g>
     </g>
     <g id="text_1">
      <!-- 0 -->
      <defs>
       <path d="
M31.7812 66.4062
Q24.1719 66.4062 20.3281 58.9062
Q16.5 51.4219 16.5 36.375
Q16.5 21.3906 20.3281 13.8906
Q24.1719 6.39062 31.7812 6.39062
Q39.4531 6.39062 43.2812 13.8906
Q47.125 21.3906 47.125 36.375
Q47.125 51.4219 43.2812 58.9062
Q39.4531 66.4062 31.7812 66.4062
M31.7812 74.2188
Q44.0469 74.2188 50.5156 64.5156
Q56.9844 54.8281 56.9844 36.375
Q56.9844 17.9688 50.5156 8.26562
Q44.0469 -1.42188 31.7812 -1.42188
Q19.5312 -1.42188 13.0625 8.26562
Q6.59375 17.9688 6.59375 36.375
Q6.59375 54.8281 13.0625 64.5156
Q19.5312 74.2188 31.7812 74.2188" id="BitstreamVeraSans-Roman-30"/>
      </defs>
      <g transform="translate(104.9765625 596.318125)scale(0.12 -0.12)">
       <use xlink:href="#BitstreamVeraSans-Roman-30"/>
      </g>
     </g>
    </g>
    <g id="xtick_2">
     <g id="line2d_6">
      <g>
       <use style="stroke:#000000;stroke-width:0.5;" x="275.4" xlink:href="#mc7db9fdffb" y="583.2"/>
      </g>
     </g>
     <g id="line2d_7">
      <g>
       <use style="stroke:#000000;stroke-width:0.5;" x="275.4" xlink:href="#m5a7d422ac3" y="64.8"/>
      </g>
     </g>
     <g id="text_2">
      <!-- 50000 -->
      <defs>
       <path d="
M10.7969 72.9062
L49.5156 72.9062
L49.5156 64.5938
L19.8281 64.5938
L19.8281 46.7344
Q21.9688 47.4688 24.1094 47.8281
Q26.2656 48.1875 28.4219 48.1875
Q40.625 48.1875 47.75 41.5
Q54.8906 34.8125 54.8906 23.3906
Q54.8906 11.625 47.5625 5.09375
Q40.2344 -1.42188 26.9062 -1.42188
Q22.3125 -1.42188 17.5469 -0.640625
Q12.7969 0.140625 7.71875 1.70312
L7.71875 11.625
Q12.1094 9.23438 16.7969 8.0625
Q21.4844 6.89062 26.7031 6.89062
Q35.1562 6.89062 40.0781 11.3281
Q45.0156 15.7656 45.0156 23.3906
Q45.0156 31 40.0781 35.4375
Q35.1562 39.8906 26.7031 39.8906
Q22.75 39.8906 18.8125 39.0156
Q14.8906 38.1406 10.7969 36.2812
z
" id="BitstreamVeraSans-Roman-35"/>
      </defs>
      <g transform="translate(257.1740625 596.318125)scale(0.12 -0.12)">
       <use xlink:href="#BitstreamVeraSans-Roman-35"/>
       <use x="63.623046875" xlink:href="#BitstreamVeraSans-Roman-30"/>
       <use x="127.24609375" xlink:href="#BitstreamVeraSans-Roman-30"/>
       <use x="190.869140625" xlink:href="#BitstreamVeraSans-Roman-30"/>
       <use x="254.4921875" xlink:href="#BitstreamVeraSans-Roman-30"/>
      </g>
     </g>
    </g>
    <g id="xtick_3">
     <g id="line2d_8">
      <g>
       <use style="stroke:#000000;stroke-width:0.5;" x="442.8" xlink:href="#mc7db9fdffb" y="583.2"/>
      </g>
     </g>
     <g id="line2d_9">
      <g>
       <use style="stroke:#000000;stroke-width:0.5;" x="442.8" xlink:href="#m5a7d422ac3" y="64.8"/>
      </g>
     </g>
     <g id="text_3">
      <!-- 100000 -->
      <defs>
       <path d="
M12.4062 8.29688
L28.5156 8.29688
L28.5156 63.9219
L10.9844 60.4062
L10.9844 69.3906
L28.4219 72.9062
L38.2812 72.9062
L38.2812 8.29688
L54.3906 8.29688
L54.3906 0
L12.4062 0
z
" id="BitstreamVeraSans-Roman-31"/>
      </defs>
      <g transform="translate(420.9525 596.318125)scale(0.12 -0.12)">
       <use xlink:href="#BitstreamVeraSans-Roman-31"/>
       <use x="63.623046875" xlink:href="#BitstreamVeraSans-Roman-30"/>
       <use x="127.24609375" xlink:href="#BitstreamVeraSans-Roman-30"/>
       <use x="190.869140625" xlink:href="#BitstreamVeraSans-Roman-30"/>
       <use x="254.4921875" xlink:href="#BitstreamVeraSans-Roman-30"/>
       <use x="318.115234375" xlink:href="#BitstreamVeraSans-Roman-30"/>
      </g>
     </g>
    </g>
    <g id="xtick_4">
     <g id="line2d_10">
      <g>
       <use style="stroke:#000000;stroke-width:0.5;" x="610.2" xlink:href="#mc7db9fdffb" y="583.2"/>
      </g>
     </g>
     <g id="line2d_11">
      <g>
       <use style="stroke:#000000;stroke-width:0.5;" x="610.2" xlink:href="#m5a7d422ac3" y="64.8"/>
      </g>
     </g>
     <g id="text_4">
      <!-- 150000 -->
      <g transform="translate(588.3525 596.318125)scale(0.12 -0.12)">
       <use xlink:href="#BitstreamVeraSans-Roman-31"/>
       <use x="63.623046875" xlink:href="#BitstreamVeraSans-Roman-35"/>
       <use x="127.24609375" xlink:href="#BitstreamVeraSans-Roman-30"/>
       <use x="190.869140625" xlink:href="#BitstreamVeraSans-Roman-30"/>
       <use x="254.4921875" xlink:href="#BitstreamVeraSans-Roman-30"/>
       <use x="318.115234375" xlink:href="#BitstreamVeraSans-Roman-30"/>
      </g>
     </g>
    </g>
    <g id="xtick_5">
     <g id="line2d_12">
      <g>
       <use style="stroke:#000000;stroke-width:0.5;" x="777.6" xlink:href="#mc7db9fdffb" y="583.2"/>
      </g>
     </g>
     <g id="line2d_13">
      <g>
       <use style="stroke:#000000;stroke-width:0.5;" x="777.6" xlink:href="#m5a7d422ac3" y="64.8"/>
      </g>
     </g>
     <g id="text_5">
      <!-- 200000 -->
      <defs>
       <path d="
M19.1875 8.29688
L53.6094 8.29688
L53.6094 0
L7.32812 0
L7.32812 8.29688
Q12.9375 14.1094 22.625 23.8906
Q32.3281 33.6875 34.8125 36.5312
Q39.5469 41.8438 41.4219 45.5312
Q43.3125 49.2188 43.3125 52.7812
Q43.3125 58.5938 39.2344 62.25
Q35.1562 65.9219 28.6094 65.9219
Q23.9688 65.9219 18.8125 64.3125
Q13.6719 62.7031 7.8125 59.4219
L7.8125 69.3906
Q13.7656 71.7812 18.9375 73
Q24.125 74.2188 28.4219 74.2188
Q39.75 74.2188 46.4844 68.5469
Q53.2188 62.8906 53.2188 53.4219
Q53.2188 48.9219 51.5312 44.8906
Q49.8594 40.875 45.4062 35.4062
Q44.1875 33.9844 37.6406 27.2188
Q31.1094 20.4531 19.1875 8.29688" id="BitstreamVeraSans-Roman-32"/>
      </defs>
      <g transform="translate(755.533125 596.318125)scale(0.12 -0.12)">
       <use xlink:href="#BitstreamVeraSans-Roman-32"/>
       <use x="63.623046875" xlink:href="#BitstreamVeraSans-Roman-30"/>
       <use x="127.24609375" xlink:href="#BitstreamVeraSans-Roman-30"/>
       <use x="190.869140625" xlink:href="#BitstreamVeraSans-Roman-30"/>
       <use x="254.4921875" xlink:href="#BitstreamVeraSans-Roman-30"/>
       <use x="318.115234375" xlink:href="#BitstreamVeraSans-Roman-30"/>
      </g>
     </g>
    </g>
    <g id="text_6">
     <!-- t / ms -->
     <defs>
      <path d="
M44.2812 53.0781
L44.2812 44.5781
Q40.4844 46.5312 36.375 47.5
Q32.2812 48.4844 27.875 48.4844
Q21.1875 48.4844 17.8438 46.4375
Q14.5 44.3906 14.5 40.2812
Q14.5 37.1562 16.8906 35.375
Q19.2812 33.5938 26.5156 31.9844
L29.5938 31.2969
Q39.1562 29.25 43.1875 25.5156
Q47.2188 21.7812 47.2188 15.0938
Q47.2188 7.46875 41.1875 3.01562
Q35.1562 -1.42188 24.6094 -1.42188
Q20.2188 -1.42188 15.4531 -0.5625
Q10.6875 0.296875 5.42188 2
L5.42188 11.2812
Q10.4062 8.6875 15.2344 7.39062
Q20.0625 6.10938 24.8125 6.10938
Q31.1562 6.10938 34.5625 8.28125
Q37.9844 10.4531 37.9844 14.4062
Q37.9844 18.0625 35.5156 20.0156
Q33.0625 21.9688 24.7031 23.7812
L21.5781 24.5156
Q13.2344 26.2656 9.51562 29.9062
Q5.8125 33.5469 5.8125 39.8906
Q5.8125 47.6094 11.2812 51.7969
Q16.75 56 26.8125 56
Q31.7812 56 36.1719 55.2656
Q40.5781 54.5469 44.2812 53.0781" id="BitstreamVeraSans-Roman-73"/>
      <path id="BitstreamVeraSans-Roman-20"/>
      <path d="
M18.3125 70.2188
L18.3125 54.6875
L36.8125 54.6875
L36.8125 47.7031
L18.3125 47.7031
L18.3125 18.0156
Q18.3125 11.3281 20.1406 9.42188
Q21.9688 7.51562 27.5938 7.51562
L36.8125 7.51562
L36.8125 0
L27.5938 0
Q17.1875 0 13.2344 3.875
Q9.28125 7.76562 9.28125 18.0156
L9.28125 47.7031
L2.6875 47.7031
L2.6875 54.6875
L9.28125 54.6875
L9.28125 70.2188
z
" id="BitstreamVeraSans-Roman-74"/>
      <path d="
M25.3906 72.9062
L33.6875 72.9062
L8.29688 -9.28125
L0 -9.28125
z
" id="BitstreamVeraSans-Roman-2f"/>
      <path d="
M52 44.1875
Q55.375 50.25 60.0625 53.125
Q64.75 56 71.0938 56
Q79.6406 56 84.2812 50.0156
Q88.9219 44.0469 88.9219 33.0156
L88.9219 0
L79.8906 0
L79.8906 32.7188
Q79.8906 40.5781 77.0938 44.375
Q74.3125 48.1875 68.6094 48.1875
Q61.625 48.1875 57.5625 43.5469
Q53.5156 38.9219 53.5156 30.9062
L53.5156 0
L44.4844 0
L44.4844 32.7188
Q44.4844 40.625 41.7031 44.4062
Q38.9219 48.1875 33.1094 48.1875
Q26.2188 48.1875 22.1562 43.5312
Q18.1094 38.875 18.1094 30.9062
L18.1094 0
L9.07812 0
L9.07812 54.6875
L18.1094 54.6875
L18.1094 46.1875
Q21.1875 51.2188 25.4844 53.6094
Q29.7812 56 35.6875 56
Q41.6562 56 45.8281 52.9688
Q50 49.9531 52 44.1875" id="BitstreamVeraSans-Roman-6d"/>
     </defs>
     <g transform="translate(425.9353125 612.931875)scale(0.12 -0.12)">
      <use xlink:href="#BitstreamVeraSans-Roman-74"/>
      <use x="39.208984375" xlink:href="#BitstreamVeraSans-Roman-20"/>
      <use x="70.99609375" xlink:href="#BitstreamVeraSans-Roman-2f"/>
      <use x="104.6875" xlink:href="#BitstreamVeraSans-Roman-20"/>
      <use x="136.474609375" xlink:href="#BitstreamVeraSans-Roman-6d"/>
      <use x="233.88671875" xlink:href="#BitstreamVeraSans-Roman-73"/>
     </g>
    </g>
   </g>
   <g id="matplotlib.axis_2">
    <g id="ytick_1">
     <g id="line2d_14">
      <defs>
       <path d="
M0 0
L4 0" id="md7965d1ba0" style="stroke:#000000;stroke-width:0.5;"/>
      </defs>
      <g>
       <use style="stroke:#000000;stroke-width:0.5;" x="108.0" xlink:href="#md7965d1ba0" y="583.2"/>
      </g>
     </g>
     <g id="line2d_15">
      <defs>
       <path d="
M0 0
L-4 0" id="md9a1c1a7cd" style="stroke:#000000;stroke-width:0.5;"/>
      </defs>
      <g>
       <use style="stroke:#000000;stroke-width:0.5;" x="777.6" xlink:href="#md9a1c1a7cd" y="583.2"/>
      </g>
     </g>
     <g id="text_7">
      <!-- 0 -->
      <g transform="translate(97.953125 586.51125)scale(0.12 -0.12)">
       <use xlink:href="#BitstreamVeraSans-Roman-30"/>
      </g>
     </g>
    </g>
    <g id="ytick_2">
     <g id="line2d_16">
      <g>
       <use style="stroke:#000000;stroke-width:0.5;" x="108.0" xlink:href="#md7965d1ba0" y="479.52"/>
      </g>
     </g>
     <g id="line2d_17">
      <g>
       <use style="stroke:#000000;stroke-width:0.5;" x="777.6" xlink:href="#md9a1c1a7cd" y="479.52"/>
      </g>
     </g>
     <g id="text_8">
      <!-- 500 -->
      <g transform="translate(82.818125 482.83125)scale(0.12 -0.12)">
       <use xlink:href="#BitstreamVeraSans-Roman-35"/>
       <use x="63.623046875" xlink:href="#BitstreamVeraSans-Roman-30"/>
       <use x="127.24609375" xlink:href="#BitstreamVeraSans-Roman-30"/>
      </g>
     </g>
    </g>
    <g id="ytick_3">
     <g id="line2d_18">
      <g>
       <use style="stroke:#000000;stroke-width:0.5;" x="108.0" xlink:href="#md7965d1ba0" y="375.84"/>
      </g>
     </g>
     <g id="line2d_19">
      <g>
       <use style="stroke:#000000;stroke-width:0.5;" x="777.6" xlink:href="#md9a1c1a7cd" y="375.84"/>
      </g>
     </g>
     <g id="text_9">
      <!-- 1000 -->
      <g transform="translate(75.575 379.15125)scale(0.12 -0.12)">
       <use xlink:href="#BitstreamVeraSans-Roman-31"/>
       <use x="63.623046875" xlink:href="#BitstreamVeraSans-Roman-30"/>
       <use x="127.24609375" xlink:href="#BitstreamVeraSans-Roman-30"/>
       <use x="190.869140625" xlink:href="#BitstreamVeraSans-Roman-30"/>
      </g>
     </g>
    </g>
    <g id="ytick_4">
     <g id="line2d_20">
      <g>
       <use style="stroke:#000000;stroke-width:0.5;" x="108.0" xlink:href="#md7965d1ba0" y="272.16"/>
      </g>
     </g>
     <g id="line2d_21">
      <g>
       <use style="stroke:#000000;stroke-width:0.5;" x="777.6" xlink:href="#md9a1c1a7cd" y="272.16"/>
      </g>
     </g>
     <g id="text_10">
      <!-- 1500 -->
      <g transform="translate(75.575 275.47125)scale(0.12 -0.12)">
       <use xlink:href="#BitstreamVeraSans-Roman-31"/>
       <use x="63.623046875" xlink:href="#BitstreamVeraSans-Roman-35"/>
       <use x="127.24609375" xlink:href="#BitstreamVeraSans-Roman-30"/>
       <use x="190.869140625" xlink:href="#BitstreamVeraSans-Roman-30"/>
      </g>
     </g>
    </g>
    <g id="ytick_5">
     <g id="line2d_22">
      <g>
       <use style="stroke:#000000;stroke-width:0.5;" x="108.0" xlink:href="#md7965d1ba0" y="168.48"/>
      </g>
     </g>
     <g id="line2d_23">
      <g>
       <use style="stroke:#000000;stroke-width:0.5;" x="777.6" xlink:href="#md9a1c1a7cd" y="168.48"/>
      </g>
     </g>
     <g id="text_11">
      <!-- 2000 -->
      <g transform="translate(75.13625 171.79125)scale(0.12 -0.12)">
       <use xlink:href="#BitstreamVeraSans-Roman-32"/>
       <use x="63.623046875" xlink:href="#BitstreamVeraSans-Roman-30"/>
       <use x="127.24609375" xlink:href="#BitstreamVeraSans-Roman-30"/>
       <use x="190.869140625" xlink:href="#BitstreamVeraSans-Roman-30"/>
      </g>
     </g>
    </g>
    <g id="ytick_6">
     <g id="line2d_24">
      <g>
       <use style="stroke:#000000;stroke-width:0.5;" x="108.0" xlink:href="#md7965d1ba0" y="64.8"/>
      </g>
     </g>
     <g id="line2d_25">
      <g>
       <use style="stroke:#000000;stroke-width:0.5;" x="777.6" xlink:href="#md9a1c1a7cd" y="64.8"/>
      </g>
     </g>
     <g id="text_12">
      <!-- 2500 -->
      <g transform="translate(75.13625 68.11125)scale(0.12 -0.12)">
       <use xlink:href="#BitstreamVeraSans-Roman-32"/>
       <use x="63.623046875" xlink:href="#BitstreamVeraSans-Roman-35"/>
       <use x="127.24609375" xlink:href="#BitstreamVeraSans-Roman-30"/>
       <use x="190.869140625" xlink:href="#BitstreamVeraSans-Roman-30"/>
      </g>
     </g>
    </g>
    <g id="text_13">
     <!-- particle numbers -->
     <defs>
      <path d="
M34.2812 27.4844
Q23.3906 27.4844 19.1875 25
Q14.9844 22.5156 14.9844 16.5
Q14.9844 11.7188 18.1406 8.90625
Q21.2969 6.10938 26.7031 6.10938
Q34.1875 6.10938 38.7031 11.4062
Q43.2188 16.7031 43.2188 25.4844
L43.2188 27.4844
z

M52.2031 31.2031
L52.2031 0
L43.2188 0
L43.2188 8.29688
Q40.1406 3.32812 35.5469 0.953125
Q30.9531 -1.42188 24.3125 -1.42188
Q15.9219 -1.42188 10.9531 3.29688
Q6 8.01562 6 15.9219
Q6 25.1406 12.1719 29.8281
Q18.3594 34.5156 30.6094 34.5156
L43.2188 34.5156
L43.2188 35.4062
Q43.2188 41.6094 39.1406 45
Q35.0625 48.3906 27.6875 48.3906
Q23 48.3906 18.5469 47.2656
Q14.1094 46.1406 10.0156 43.8906
L10.0156 52.2031
Q14.9375 54.1094 19.5781 55.0469
Q24.2188 56 28.6094 56
Q40.4844 56 46.3438 49.8438
Q52.2031 43.7031 52.2031 31.2031" id="BitstreamVeraSans-Roman-61"/>
      <path d="
M9.42188 75.9844
L18.4062 75.9844
L18.4062 0
L9.42188 0
z
" id="BitstreamVeraSans-Roman-6c"/>
      <path d="
M48.6875 27.2969
Q48.6875 37.2031 44.6094 42.8438
Q40.5312 48.4844 33.4062 48.4844
Q26.2656 48.4844 22.1875 42.8438
Q18.1094 37.2031 18.1094 27.2969
Q18.1094 17.3906 22.1875 11.75
Q26.2656 6.10938 33.4062 6.10938
Q40.5312 6.10938 44.6094 11.75
Q48.6875 17.3906 48.6875 27.2969
M18.1094 46.3906
Q20.9531 51.2656 25.2656 53.625
Q29.5938 56 35.5938 56
Q45.5625 56 51.7812 48.0938
Q58.0156 40.1875 58.0156 27.2969
Q58.0156 14.4062 51.7812 6.48438
Q45.5625 -1.42188 35.5938 -1.42188
Q29.5938 -1.42188 25.2656 0.953125
Q20.9531 3.32812 18.1094 8.20312
L18.1094 0
L9.07812 0
L9.07812 75.9844
L18.1094 75.9844
z
" id="BitstreamVeraSans-Roman-62"/>
      <path d="
M9.42188 54.6875
L18.4062 54.6875
L18.4062 0
L9.42188 0
z

M9.42188 75.9844
L18.4062 75.9844
L18.4062 64.5938
L9.42188 64.5938
z
" id="BitstreamVeraSans-Roman-69"/>
      <path d="
M41.1094 46.2969
Q39.5938 47.1719 37.8125 47.5781
Q36.0312 48 33.8906 48
Q26.2656 48 22.1875 43.0469
Q18.1094 38.0938 18.1094 28.8125
L18.1094 0
L9.07812 0
L9.07812 54.6875
L18.1094 54.6875
L18.1094 46.1875
Q20.9531 51.1719 25.4844 53.5781
Q30.0312 56 36.5312 56
Q37.4531 56 38.5781 55.875
Q39.7031 55.7656 41.0625 55.5156
z
" id="BitstreamVeraSans-Roman-72"/>
      <path d="
M48.7812 52.5938
L48.7812 44.1875
Q44.9688 46.2969 41.1406 47.3438
Q37.3125 48.3906 33.4062 48.3906
Q24.6562 48.3906 19.8125 42.8438
Q14.9844 37.3125 14.9844 27.2969
Q14.9844 17.2812 19.8125 11.7344
Q24.6562 6.20312 33.4062 6.20312
Q37.3125 6.20312 41.1406 7.25
Q44.9688 8.29688 48.7812 10.4062
L48.7812 2.09375
Q45.0156 0.34375 40.9844 -0.53125
Q36.9688 -1.42188 32.4219 -1.42188
Q20.0625 -1.42188 12.7812 6.34375
Q5.51562 14.1094 5.51562 27.2969
Q5.51562 40.6719 12.8594 48.3281
Q20.2188 56 33.0156 56
Q37.1562 56 41.1094 55.1406
Q45.0625 54.2969 48.7812 52.5938" id="BitstreamVeraSans-Roman-63"/>
      <path d="
M18.1094 8.20312
L18.1094 -20.7969
L9.07812 -20.7969
L9.07812 54.6875
L18.1094 54.6875
L18.1094 46.3906
Q20.9531 51.2656 25.2656 53.625
Q29.5938 56 35.5938 56
Q45.5625 56 51.7812 48.0938
Q58.0156 40.1875 58.0156 27.2969
Q58.0156 14.4062 51.7812 6.48438
Q45.5625 -1.42188 35.5938 -1.42188
Q29.5938 -1.42188 25.2656 0.953125
Q20.9531 3.32812 18.1094 8.20312
M48.6875 27.2969
Q48.6875 37.2031 44.6094 42.8438
Q40.5312 48.4844 33.4062 48.4844
Q26.2656 48.4844 22.1875 42.8438
Q18.1094 37.2031 18.1094 27.2969
Q18.1094 17.3906 22.1875 11.75
Q26.2656 6.10938 33.4062 6.10938
Q40.5312 6.10938 44.6094 11.75
Q48.6875 17.3906 48.6875 27.2969" id="BitstreamVeraSans-Roman-70"/>
      <path d="
M54.8906 33.0156
L54.8906 0
L45.9062 0
L45.9062 32.7188
Q45.9062 40.4844 42.875 44.3281
Q39.8438 48.1875 33.7969 48.1875
Q26.5156 48.1875 22.3125 43.5469
Q18.1094 38.9219 18.1094 30.9062
L18.1094 0
L9.07812 0
L9.07812 54.6875
L18.1094 54.6875
L18.1094 46.1875
Q21.3438 51.125 25.7031 53.5625
Q30.0781 56 35.7969 56
Q45.2188 56 50.0469 50.1719
Q54.8906 44.3438 54.8906 33.0156" id="BitstreamVeraSans-Roman-6e"/>
      <path d="
M56.2031 29.5938
L56.2031 25.2031
L14.8906 25.2031
Q15.4844 15.9219 20.4844 11.0625
Q25.4844 6.20312 34.4219 6.20312
Q39.5938 6.20312 44.4531 7.46875
Q49.3125 8.73438 54.1094 11.2812
L54.1094 2.78125
Q49.2656 0.734375 44.1875 -0.34375
Q39.1094 -1.42188 33.8906 -1.42188
Q20.7969 -1.42188 13.1562 6.1875
Q5.51562 13.8125 5.51562 26.8125
Q5.51562 40.2344 12.7656 48.1094
Q20.0156 56 32.3281 56
Q43.3594 56 49.7812 48.8906
Q56.2031 41.7969 56.2031 29.5938
M47.2188 32.2344
Q47.125 39.5938 43.0938 43.9844
Q39.0625 48.3906 32.4219 48.3906
Q24.9062 48.3906 20.3906 44.1406
Q15.875 39.8906 15.1875 32.1719
z
" id="BitstreamVeraSans-Roman-65"/>
      <path d="
M8.5 21.5781
L8.5 54.6875
L17.4844 54.6875
L17.4844 21.9219
Q17.4844 14.1562 20.5 10.2656
Q23.5312 6.39062 29.5938 6.39062
Q36.8594 6.39062 41.0781 11.0312
Q45.3125 15.6719 45.3125 23.6875
L45.3125 54.6875
L54.2969 54.6875
L54.2969 0
L45.3125 0
L45.3125 8.40625
Q42.0469 3.42188 37.7188 1
Q33.4062 -1.42188 27.6875 -1.42188
Q18.2656 -1.42188 13.375 4.4375
Q8.5 10.2969 8.5 21.5781" id="BitstreamVeraSans-Roman-75"/>
     </defs>
     <g transform="translate(67.640625 374.78625)rotate(-90.0)scale(0.12 -0.12)">
      <use xlink:href="#BitstreamVeraSans-Roman-70"/>
      <use x="63.4765625" xlink:href="#BitstreamVeraSans-Roman-61"/>
      <use x="124.755859375" xlink:href="#BitstreamVeraSans-Roman-72"/>
      <use x="165.869140625" xlink:href="#BitstreamVeraSans-Roman-74"/>
      <use x="205.078125" xlink:href="#BitstreamVeraSans-Roman-69"/>
      <use x="232.861328125" xlink:href="#BitstreamVeraSans-Roman-63"/>
      <use x="287.841796875" xlink:href="#BitstreamVeraSans-Roman-6c"/>
      <use x="315.625" xlink:href="#BitstreamVeraSans-Roman-65"/>
      <use x="377.1484375" xlink:href="#BitstreamVeraSans-Roman-20"/>
      <use x="408.935546875" xlink:href="#BitstreamVeraSans-Roman-6e"/>
      <use x="472.314453125" xlink:href="#BitstreamVeraSans-Roman-75"/>
      <use x="535.693359375" xlink:href="#BitstreamVeraSans-Roman-6d"/>
      <use x="633.10546875" xlink:href="#BitstreamVeraSans-Roman-62"/>
      <use x="696.58203125" xlink:href="#BitstreamVeraSans-Roman-65"/>
      <use x="758.10546875" xlink:href="#BitstreamVeraSans-Roman-72"/>
      <use x="799.21875" xlink:href="#BitstreamVeraSans-Roman-73"/>
     </g>
    </g>
   </g>
   <g id="legend_1">
    <g id="patch_7">
     <path d="
M724.53 101.224
L774.1 101.224
L774.1 68.3
L724.53 68.3
z
" style="fill:#ffffff;stroke:#000000;stroke-linejoin:miter;"/>
    </g>
    <g id="line2d_26">
     <path d="
M729.43 73.9689
L739.23 73.9689" style="fill:none;stroke:#ff0000;stroke-linecap:square;"/>
    </g>
    <g id="line2d_27"/>
    <g id="text_14">
     <!-- Da el.0 -->
     <defs>
      <path d="
M19.6719 64.7969
L19.6719 8.10938
L31.5938 8.10938
Q46.6875 8.10938 53.6875 14.9375
Q60.6875 21.7812 60.6875 36.5312
Q60.6875 51.1719 53.6875 57.9844
Q46.6875 64.7969 31.5938 64.7969
z

M9.8125 72.9062
L30.0781 72.9062
Q51.2656 72.9062 61.1719 64.0938
Q71.0938 55.2812 71.0938 36.5312
Q71.0938 17.6719 61.125 8.82812
Q51.1719 0 30.0781 0
L9.8125 0
z
" id="BitstreamVeraSans-Roman-44"/>
      <path d="
M10.6875 12.4062
L21 12.4062
L21 0
L10.6875 0
z
" id="BitstreamVeraSans-Roman-2e"/>
     </defs>
     <g transform="translate(746.93015625 76.41890625)scale(0.07 -0.07)">
      <use xlink:href="#BitstreamVeraSans-Roman-44"/>
      <use x="77.001953125" xlink:href="#BitstreamVeraSans-Roman-61"/>
      <use x="138.28125" xlink:href="#BitstreamVeraSans-Roman-20"/>
      <use x="170.068359375" xlink:href="#BitstreamVeraSans-Roman-65"/>
      <use x="231.591796875" xlink:href="#BitstreamVeraSans-Roman-6c"/>
      <use x="259.375" xlink:href="#BitstreamVeraSans-Roman-2e"/>
      <use x="291.162109375" xlink:href="#BitstreamVeraSans-Roman-30"/>
     </g>
    </g>
    <g id="line2d_28">
     <path d="
M729.43 84.2436
L739.23 84.2436" style="fill:none;stroke:#008000;stroke-linecap:square;"/>
    </g>
    <g id="line2d_29"/>
    <g id="text_15">
     <!-- Da el.1 -->
     <g transform="translate(746.93015625 86.69359375)scale(0.07 -0.07)">
      <use xlink:href="#BitstreamVeraSans-Roman-44"/>
      <use x="77.001953125" xlink:href="#BitstreamVeraSans-Roman-61"/>
      <use x="138.28125" xlink:href="#BitstreamVeraSans-Roman-20"/>
      <use x="170.068359375" xlink:href="#BitstreamVeraSans-Roman-65"/>
      <use x="231.591796875" xlink:href="#BitstreamVeraSans-Roman-6c"/>
      <use x="259.375" xlink:href="#BitstreamVeraSans-Roman-2e"/>
      <use x="291.162109375" xlink:href="#BitstreamVeraSans-Roman-31"/>
     </g>
    </g>
    <g id="line2d_30">
     <path d="
M729.43 94.5183
L739.23 94.5183" style="fill:none;stroke:#0000ff;stroke-linecap:square;"/>
    </g>
    <g id="line2d_31"/>
    <g id="text_16">
     <!-- Da el.2 -->
     <g transform="translate(746.93015625 96.96828125)scale(0.07 -0.07)">
      <use xlink:href="#BitstreamVeraSans-Roman-44"/>
      <use x="77.001953125" xlink:href="#BitstreamVeraSans-Roman-61"/>
      <use x="138.28125" xlink:href="#BitstreamVeraSans-Roman-20"/>
      <use x="170.068359375" xlink:href="#BitstreamVeraSans-Roman-65"/>
      <use x="231.591796875" xlink:href="#BitstreamVeraSans-Roman-6c"/>
      <use x="259.375" xlink:href="#BitstreamVeraSans-Roman-2e"/>
      <use x="291.162109375" xlink:href="#BitstreamVeraSans-Roman-32"/>
     </g>
    </g>
   </g>
  </g>
 </g>
 <defs>
  <clipPath id="p7ceb695115">
   <rect height="518.4" width="669.6" x="108.0" y="64.8"/>
  </clipPath>
 </defs>
</svg>
