<?xml version="1.0" encoding="utf-8" standalone="no"?>
<!DOCTYPE svg PUBLIC "-//W3C//DTD SVG 1.1//EN"
  "http://www.w3.org/Graphics/SVG/1.1/DTD/svg11.dtd">
<!-- Created with matplotlib (http://matplotlib.org/) -->
<svg height="648pt" version="1.1" viewBox="0 0 864 648" width="864pt" xmlns="http://www.w3.org/2000/svg" xmlns:xlink="http://www.w3.org/1999/xlink">
 <defs>
  <style type="text/css">
*{stroke-linecap:butt;stroke-linejoin:round;}
  </style>
 </defs>
 <g id="figure_1">
  <g id="patch_1">
   <path d="
M0 648
L864 648
L864 0
L0 0
z
" style="fill:#ffffff;"/>
  </g>
  <g id="axes_1">
   <g id="patch_2">
    <path d="
M108 583.2
L777.6 583.2
L777.6 64.8
L108 64.8
z
" style="fill:#ffffff;"/>
   </g>
   <g id="line2d_1">
    <path clip-path="url(#p7ceb695115)" d="
M108 556.706
L108.67 556.815
L110.009 556.588
L112.018 556.809
L112.687 557.057
L115.366 557.119
L116.035 556.894
L117.374 557.063
L118.044 556.999
L118.714 557.299
L121.392 557.211
L122.062 557.031
L123.401 557.108
L124.07 557.292
L124.74 557.064
L126.079 557.314
L126.749 557.211
L127.418 556.979
L128.088 556.975
L128.758 557.106
L130.766 556.998
L131.436 556.901
L135.454 557.255
L136.123 557.194
L137.462 557.336
L138.802 557.31
L140.141 557.439
L140.81 557.651
L147.506 557.172
L148.176 556.898
L148.846 557.138
L149.515 557.19
L150.185 556.955
L150.854 556.856
L151.524 556.92
L153.533 556.769
L156.211 556.744
L156.881 556.458
L157.55 556.406
L159.559 556.855
L161.568 556.719
L162.238 556.815
L162.907 557.047
L163.577 557.029
L164.916 557.351
L165.586 557.146
L166.925 557.058
L167.594 557.169
L168.934 556.985
L169.603 557.143
L170.942 557.156
L171.612 556.991
L172.282 556.948
L173.621 557.169
L174.29 557.106
L174.96 557.235
L175.63 557.179
L176.299 557.397
L176.969 557.305
L178.308 556.776
L178.978 556.956
L180.317 556.896
L180.986 556.696
L181.656 556.755
L182.995 557.298
L184.334 557.401
L185.004 557.2
L185.674 557.196
L186.343 556.939
L189.022 556.985
L191.03 556.626
L193.039 556.607
L193.709 556.782
L195.048 556.713
L195.718 556.947
L196.387 556.878
L197.726 556.929
L198.396 556.839
L199.066 556.899
L200.405 556.507
L201.074 556.609
L201.744 556.58
L202.414 556.403
L203.753 556.763
L204.422 556.488
L205.092 556.56
L205.762 556.821
L207.101 557.006
L207.77 556.684
L208.44 556.817
L209.779 556.616
L211.118 556.554
L211.788 556.798
L212.458 556.742
L213.127 556.967
L213.797 556.723
L214.466 556.784
L215.136 556.992
L215.806 556.992
L216.475 556.732
L217.145 556.661
L219.154 556.977
L219.823 556.805
L220.493 556.868
L222.502 556.382
L223.171 556.519
L224.51 556.392
L225.85 556.397
L226.519 556.655
L228.528 556.756
L229.867 556.61
L230.537 556.585
L231.206 556.759
L232.546 556.317
L233.215 556.436
L233.885 556.797
L235.224 556.858
L237.233 556.576
L238.572 556.688
L239.242 556.768
L239.911 556.632
L240.581 556.772
L241.25 556.463
L243.929 556.665
L244.598 556.598
L245.268 556.339
L246.607 556.092
L247.277 556.51
L248.616 556.802
L250.625 556.674
L251.294 556.892
L251.964 556.851
L252.634 557.086
L257.321 557.155
L257.99 557.023
L258.66 557.024
L260.669 556.595
L263.347 556.62
L269.374 556.626
L270.043 556.753
L270.713 556.642
L271.382 556.706
L272.052 556.94
L272.722 556.745
L274.061 556.952
L275.4 556.93
L276.07 556.823
L277.409 556.898
L278.748 556.665
L279.418 556.771
L280.757 556.743
L282.096 557.026
L282.766 557.022
L283.435 556.846
L284.105 556.807
L284.774 556.978
L285.444 556.838
L287.453 556.929
L289.462 556.879
L290.131 557.014
L292.14 556.945
L292.81 556.732
L294.149 557.121
L294.818 557.016
L296.158 557.066
L298.166 556.734
L298.836 556.835
L300.175 556.58
L302.184 556.529
L302.854 556.421
L304.193 556.582
L304.862 556.42
L305.532 556.498
L306.871 556.201
L307.541 556.405
L308.21 556.469
L309.55 556.795
L311.558 556.843
L312.898 556.992
L313.567 556.909
L314.237 556.939
L314.906 556.789
L315.576 556.869
L316.915 556.559
L318.254 556.762
L319.594 556.553
L320.933 556.508
L321.602 556.584
L322.942 556.204
L324.281 556.627
L324.95 556.353
L325.62 556.547
L326.29 556.499
L326.959 556.642
L328.298 556.384
L328.968 556.198
L329.638 556.244
L330.307 556.164
L332.986 556.504
L334.994 556.07
L335.664 556.126
L337.003 555.803
L338.342 556.024
L340.351 556.046
L341.021 556.365
L344.369 556.23
L345.038 556.291
L347.047 555.876
L347.717 555.969
L348.386 556.207
L349.726 556.24
L351.065 556.806
L351.734 556.576
L353.074 556.598
L354.413 556.948
L355.082 557.065
L355.752 556.861
L357.091 556.955
L357.761 556.858
L358.43 556.914
L359.1 556.744
L360.439 556.636
L361.109 556.548
L361.778 556.341
L363.118 556.545
L363.787 556.458
L364.457 556.541
L365.126 556.48
L366.466 556.927
L367.805 557.001
L369.144 556.9
L369.814 556.774
L370.483 556.8
L371.822 556.663
L373.831 556.636
L375.17 556.526
L376.51 556.575
L377.849 556.452
L378.518 556.578
L379.188 556.894
L382.536 556.737
L383.875 557.056
L386.554 556.694
L387.223 556.822
L387.893 556.556
L388.562 556.762
L390.571 556.848
L391.91 556.674
L392.58 556.664
L393.25 556.843
L393.919 556.897
L394.589 556.725
L395.258 556.914
L397.937 556.745
L398.606 556.942
L400.615 556.937
L401.285 556.782
L402.624 557.012
L403.963 556.954
L404.633 557.113
L405.302 557.148
L405.972 557.428
L406.642 557.439
L407.311 557.307
L408.65 557.502
L409.32 557.189
L410.659 557.346
L412.668 556.848
L414.007 556.984
L414.677 556.909
L415.346 556.613
L416.686 556.594
L417.355 556.941
L418.025 556.92
L418.694 557.181
L419.364 556.911
L420.034 556.994
L421.373 556.754
L422.042 556.536
L422.712 556.689
L423.382 556.64
L424.051 556.433
L425.39 556.548
L427.399 556.771
L428.069 556.738
L428.738 556.894
L429.408 556.823
L430.078 556.615
L431.417 556.612
L432.756 556.575
L433.426 556.633
L434.095 556.88
L436.104 556.588
L437.443 556.764
L439.452 556.99
L440.122 556.949
L440.791 557.034
L443.47 556.796
L444.139 556.74
L444.809 556.823
L447.487 559.157
L448.157 559.443
L450.166 560.936
L450.835 561.239
L452.174 562.196
L453.514 563.098
L454.183 563.206
L454.853 563.575
L456.192 563.809
L456.862 564.31
L457.531 564.616
L458.87 564.836
L460.21 565.337
L460.879 565.449
L461.549 565.7
L463.558 566.128
L464.227 565.977
L466.236 566.19
L468.914 566.43
L469.584 566.573
L472.262 566.389
L474.271 565.982
L474.941 565.969
L476.28 566.248
L476.95 566.32
L478.289 566.065
L478.958 566.203
L479.628 566.108
L481.637 566.154
L482.976 565.509
L483.646 565.492
L484.315 565.291
L485.654 565.35
L486.324 565.195
L486.994 565.194
L487.663 565.025
L489.002 565.164
L489.672 564.993
L491.681 565.114
L492.35 564.786
L493.69 564.639
L495.029 564.719
L496.368 564.567
L497.038 564.703
L499.046 564.256
L500.386 564.228
L501.725 564.442
L503.064 564.217
L503.734 564.317
L505.742 563.906
L507.751 563.978
L508.421 563.564
L509.76 563.387
L510.43 563.513
L511.099 563.371
L511.769 563.514
L512.438 563.349
L513.108 563.592
L513.778 563.514
L515.117 563.744
L515.786 563.575
L516.456 563.694
L517.795 563.488
L519.804 563.354
L520.474 563.089
L521.813 563.067
L522.482 563.151
L523.152 563.113
L523.822 563.262
L525.161 563.186
L525.83 563.122
L526.5 562.834
L529.848 562.796
L532.526 562.901
L533.866 562.638
L534.535 562.555
L535.205 562.676
L536.544 562.524
L540.562 562.009
L541.231 561.802
L541.901 561.877
L542.57 561.781
L544.579 562.021
L545.249 562.282
L545.918 562.244
L546.588 562.439
L547.927 562.132
L551.275 562
L551.945 561.97
L552.614 561.791
L553.284 561.843
L554.623 561.562
L555.293 561.718
L557.302 561.75
L557.971 561.788
L558.641 561.524
L562.658 561.559
L563.328 561.352
L563.998 561.476
L564.667 561.301
L567.346 561.111
L569.354 560.723
L570.024 561.036
L570.694 561.02
L571.363 561.128
L572.033 560.909
L573.372 560.966
L574.042 561.285
L576.05 561.325
L577.39 561.043
L581.407 561.257
L582.077 561.062
L582.746 561.218
L585.425 561.301
L586.764 561.314
L588.773 561.229
L589.442 561.295
L590.112 561.209
L590.782 560.998
L591.451 561.02
L592.121 561.249
L592.79 561.021
L594.13 561.228
L594.799 561.167
L595.469 561.438
L597.478 561.241
L598.147 561.347
L599.486 560.98
L600.826 561.018
L601.495 560.959
L602.165 560.725
L602.834 560.874
L603.504 560.884
L604.174 560.707
L604.843 560.889
L605.513 560.954
L606.182 560.861
L606.852 560.537
L607.522 560.748
L608.191 560.543
L608.861 560.521
L609.53 560.372
L610.2 560.476
L610.87 560.793
L612.209 560.957
L614.218 560.895
L614.887 560.647
L615.557 560.642
L616.226 560.472
L616.896 560.602
L618.235 560.652
L618.905 560.525
L619.574 560.53
L620.244 560.401
L620.914 560.676
L622.253 560.576
L622.922 560.493
L623.592 560.67
L624.262 560.345
L625.601 560.139
L626.27 560.201
L626.94 560.431
L633.636 560.573
L634.306 560.489
L635.645 560.666
L636.314 560.51
L637.654 560.763
L639.662 560.84
L640.332 560.637
L641.002 560.596
L642.341 560.808
L645.019 560.286
L646.358 560.157
L647.028 559.905
L648.367 560.091
L649.037 559.697
L650.376 559.768
L651.715 559.895
L652.385 559.831
L653.054 559.889
L654.394 559.526
L655.063 559.315
L656.402 559.791
L657.072 559.869
L657.742 560.062
L661.09 560.114
L662.429 559.569
L663.098 559.543
L663.768 559.781
L664.438 559.832
L665.777 559.253
L666.446 559.085
L667.116 559.113
L668.455 559.023
L671.134 559.442
L672.473 559.477
L674.482 559.624
L675.151 559.739
L676.49 559.401
L681.178 559.412
L681.847 559.233
L682.517 559.23
L683.186 559.04
L687.874 559.274
L688.543 559.446
L689.213 559.484
L690.552 559.018
L692.561 558.943
L693.23 559
L693.9 559.245
L695.239 559.388
L697.918 559.114
L698.587 559.338
L699.257 559.214
L699.926 559.306
L700.596 559.078
L701.266 558.991
L702.605 559.056
L703.944 558.752
L705.283 558.776
L706.622 558.879
L707.292 559.122
L709.301 559.344
L709.97 559.142
L711.31 559.152
L711.979 559.014
L712.649 559.017
L713.318 559.253
L713.988 559.229
L714.658 559.398
L715.327 559.206
L715.997 559.28
L716.666 559.144
L717.336 559.183
L718.675 558.942
L720.684 559.17
L721.354 559.086
L722.023 558.702
L722.693 558.739
L723.362 558.652
L724.032 558.818
L726.041 558.743
L726.71 558.585
L728.719 558.817
L729.389 558.811
L730.728 559.032
L733.406 558.884
L734.746 558.979
L735.415 558.822
L736.754 558.843
L737.424 558.597
L738.763 558.461
L739.433 558.713
L740.772 558.643
L742.111 558.753
L742.781 558.584
L744.12 558.95
L745.459 558.86
L746.129 558.938
L748.807 558.495
L752.825 558.742
L753.494 558.525
L756.173 558.79
L756.842 558.686
L757.512 558.713
L758.182 558.529
L758.851 558.564
L759.521 558.458
L760.86 558.45
L761.53 558.221
L762.199 558.161
L762.869 558.216
L763.538 558.509
L764.878 558.566
L765.547 558.492
L766.217 558.235
L766.886 558.181
L767.556 558
L770.234 558.223
L770.904 557.846
L771.574 557.772
L772.243 557.898
L772.913 557.853
L773.582 557.985
L774.252 557.962
L774.922 557.745
L775.591 557.87
L776.261 557.874
L776.93 558.029
L777.6 557.892
L777.6 557.892" style="fill:none;stroke:#ff0000;stroke-linecap:square;"/>
   </g>
   <g id="line2d_2">
    <path clip-path="url(#p7ceb695115)" d="
M108 88.4241
L108.67 88.2401
L110.678 88.5278
L112.018 88.303
L112.687 87.9018
L113.357 87.7528
L114.696 87.6984
L115.366 87.6504
L116.035 88.0535
L118.044 88.3431
L118.714 87.9712
L120.722 88.1591
L121.392 88.3477
L123.401 88.474
L124.07 88.1319
L124.74 88.233
L125.41 87.988
L126.079 87.872
L126.749 88.2881
L127.418 88.4384
L128.758 88.1027
L130.097 88.487
L130.766 88.347
L131.436 88.0548
L133.445 88.3632
L134.114 88.1021
L134.784 88.0023
L136.123 88.115
L136.793 87.9783
L138.132 88.3243
L138.802 88.1863
L139.471 88.1785
L140.141 88.2861
L140.81 87.9135
L142.15 87.9485
L142.819 88.3451
L143.489 88.579
L144.158 88.6671
L145.498 88.3937
L146.167 88.3179
L146.837 88.3632
L147.506 88.1649
L148.176 88.3321
L148.846 88.0749
L149.515 88.0606
L150.185 88.6043
L151.524 88.6639
L152.194 88.8402
L153.533 88.6807
L154.202 88.5984
L154.872 88.9231
L155.542 88.5738
L156.211 88.6905
L156.881 89.0248
L157.55 89.113
L158.89 88.7948
L159.559 88.5213
L161.568 88.8065
L162.238 88.8214
L162.907 88.7067
L163.577 88.743
L164.246 88.5006
L164.916 88.4676
L166.255 88.8447
L167.594 89.0449
L168.934 88.8052
L169.603 88.4565
L170.273 88.3412
L171.612 88.5388
L173.621 88.5447
L174.29 88.6898
L174.96 88.6425
L175.63 88.7896
L176.299 88.336
L176.969 88.0807
L177.638 88.3542
L178.308 88.7741
L178.978 88.6263
L179.647 88.8641
L181.656 88.9555
L182.326 88.6406
L182.995 88.4585
L183.665 88.4928
L184.334 88.1818
L185.004 88.3315
L185.674 88.1124
L186.343 88.5058
L187.013 88.4118
L187.682 88.6632
L189.022 88.5194
L190.361 89.113
L192.37 89.0689
L194.378 88.6308
L196.387 88.3872
L197.057 88.463
L197.726 88.1967
L198.396 88.3205
L199.066 88.2822
L200.405 88.5401
L201.744 88.9244
L202.414 89.308
L203.753 88.7585
L204.422 88.8894
L207.101 87.8558
L207.77 88.0295
L208.44 87.9504
L209.11 88.0289
L209.779 88.22
L210.449 88.1312
L211.118 88.4352
L211.788 87.9764
L212.458 88.0451
L213.127 87.8338
L213.797 88.2323
L214.466 88.4442
L215.136 88.1578
L215.806 88.2602
L216.475 88.8032
L218.484 88.6807
L219.154 88.4429
L219.823 88.8544
L220.493 88.6224
L221.832 89.1972
L223.171 89.2322
L223.841 89.3586
L225.18 88.9315
L225.85 89.0112
L226.519 88.7417
L229.198 88.5848
L229.867 88.7352
L230.537 88.7287
L231.206 88.5511
L232.546 88.9069
L233.215 88.7462
L233.885 88.3496
L234.554 88.3891
L235.224 88.5628
L236.563 88.5356
L238.572 88.7831
L239.242 88.6509
L239.911 88.7449
L240.581 88.5168
L241.25 88.9069
L241.92 88.8719
L242.59 88.6438
L243.259 88.7747
L245.268 88.8265
L246.607 88.8829
L247.277 88.4326
L248.616 88.1474
L249.286 88.4766
L251.964 88.6794
L252.634 88.2621
L253.973 88.4572
L254.642 88.1662
L255.312 88.3146
L257.321 88.2725
L258.66 88.0619
L259.33 88.0852
L259.999 88.3937
L262.678 88.6179
L263.347 88.3814
L265.356 88.1092
L268.034 88.8881
L268.704 88.6568
L270.043 88.6419
L271.382 88.7326
L272.052 88.7041
L272.722 88.9918
L274.061 88.7028
L276.07 89.0093
L277.409 88.7533
L278.078 88.5978
L278.748 88.6516
L279.418 88.5421
L280.757 88.8071
L282.766 88.2291
L283.435 88.59
L284.105 88.787
L284.774 88.5272
L285.444 88.5505
L286.114 88.2582
L287.453 88.0308
L288.122 88.301
L289.462 88.4468
L290.131 88.2997
L291.47 88.3302
L292.81 88.5745
L293.479 88.522
L294.149 88.071
L294.818 88.3179
L298.166 88.6898
L298.836 88.1986
L300.175 88.6782
L300.845 88.6192
L302.184 88.3166
L303.523 88.4598
L304.193 88.2317
L304.862 88.4617
L305.532 88.3807
L308.21 89.1784
L308.88 89.089
L310.219 88.671
L311.558 88.4507
L312.228 88.0353
L313.567 88.2803
L314.906 88.2518
L316.915 88.4397
L318.254 88.2239
L319.594 88.7488
L320.263 88.6704
L320.933 88.9257
L321.602 88.7695
L324.95 88.7546
L325.62 88.3781
L326.959 87.9304
L328.298 88.2531
L329.638 88.4138
L330.307 88.4306
L330.977 88.2122
L332.986 88.2991
L333.655 88.5563
L334.325 88.5187
L334.994 88.6833
L335.664 88.5304
L337.003 88.9205
L339.012 88.522
L339.682 88.5751
L340.351 88.7715
L341.021 88.5012
L341.69 88.649
L344.369 88.4222
L345.038 88.4786
L345.708 88.7455
L347.047 88.9561
L349.056 88.743
L349.726 88.8544
L350.395 88.7358
L351.065 88.4604
L351.734 88.7125
L353.074 88.6419
L353.743 88.1623
L355.082 87.7023
L355.752 88.1267
L356.422 87.8954
L358.43 88.0788
L361.778 88.3263
L362.448 88.2174
L363.118 87.9692
L364.457 88.4844
L365.126 88.4565
L366.466 87.9064
L368.474 88.2991
L369.144 88.257
L371.822 89.1298
L372.492 88.9795
L373.162 88.9613
L373.831 89.1305
L375.84 89.0397
L376.51 88.8823
L377.849 89.087
L379.188 88.4695
L379.858 88.4313
L381.197 88.023
L382.536 88.161
L383.875 87.7541
L384.545 88.1176
L385.884 87.8196
L386.554 87.8954
L387.223 87.736
L387.893 87.9718
L388.562 87.933
L389.902 88.3107
L390.571 88.3392
L391.241 88.2498
L392.58 88.4876
L393.25 88.1922
L393.919 88.0185
L395.928 87.9913
L396.598 88.1384
L397.937 88.6775
L398.606 88.2563
L399.276 88.5414
L399.946 88.406
L400.615 88.406
L401.285 88.2369
L402.624 88.1734
L403.294 88.3554
L405.302 88.4611
L405.972 88.1118
L406.642 88.0353
L407.311 88.2874
L407.981 88.2284
L408.65 87.9148
L409.32 88.1429
L409.99 87.9803
L410.659 87.6588
L411.998 88.1319
L412.668 88.257
L413.338 88.1513
L414.007 88.1863
L414.677 88.0775
L415.346 88.4876
L416.686 88.6879
L417.355 88.2634
L418.025 88.3878
L418.694 88.1701
L419.364 88.4637
L420.034 88.3982
L420.703 88.4915
L421.373 88.4073
L422.042 88.8201
L422.712 88.6885
L423.382 88.4436
L424.051 88.5628
L428.738 88.1533
L429.408 88.463
L430.747 88.6568
L431.417 88.6308
L432.756 88.9037
L433.426 88.9062
L434.095 88.7002
L434.765 88.6782
L435.434 88.811
L436.104 88.5466
L438.113 88.3788
L438.782 88.0852
L439.452 88.0023
L440.122 88.3075
L440.791 88.034
L442.8 88.4857
L443.47 88.4442
L444.139 88.5596
L444.809 88.8214
L445.478 88.6218
L446.148 88.8311
L446.818 88.5382
L447.487 88.7442
L448.826 89.4285
L450.166 89.9048
L450.835 90.6047
L451.505 90.8042
L453.514 92.4482
L454.183 93.3438
L454.853 93.8596
L455.522 94.549
L456.192 95.0318
L456.862 95.2411
L458.201 96.2118
L458.87 96.9376
L459.54 97.3549
L460.21 97.988
L462.218 99.177
L462.888 99.4596
L463.558 99.6151
L464.227 100.262
L464.897 100.297
L465.566 100.703
L466.236 101.256
L466.906 101.584
L467.575 102.122
L468.914 102.016
L470.923 102.26
L471.593 102.145
L472.932 102.646
L473.602 102.413
L474.271 102.612
L475.61 102.234
L476.95 101.731
L478.289 101.716
L478.958 101.49
L479.628 101.512
L480.298 101.163
L480.967 100.993
L482.976 101.117
L484.315 100.675
L484.985 100.68
L485.654 100.233
L486.994 100.494
L487.663 100.314
L489.002 99.6611
L489.672 99.7395
L490.342 99.3164
L491.011 98.6301
L491.681 98.5303
L492.35 98.9237
L494.359 99.0442
L495.029 98.8842
L496.368 98.9256
L497.038 98.6774
L498.377 98.9794
L499.716 98.5867
L501.055 98.207
L501.725 98.2368
L502.394 98.1383
L503.064 98.1571
L503.734 97.7657
L504.403 97.7534
L505.742 98.0884
L506.412 98.0657
L507.751 97.8227
L508.421 97.9562
L509.76 97.9206
L510.43 97.6944
L511.099 97.662
L511.769 97.3737
L512.438 97.962
L513.108 97.5642
L513.778 97.7696
L515.117 97.5389
L515.786 97.653
L516.456 97.592
L517.795 97.6044
L518.465 97.559
L519.134 97.9452
L519.804 97.7845
L521.813 97.9005
L522.482 97.7806
L523.822 96.9589
L524.491 96.9609
L525.83 97.2058
L526.5 97.6983
L527.17 97.697
L527.839 97.8247
L529.848 97.6342
L530.518 97.3866
L531.187 97.3445
L531.857 97.1346
L533.196 97.2642
L533.866 97.1903
L534.535 97.2454
L535.205 96.9771
L537.214 96.8093
L537.883 97.0153
L538.553 96.8391
L539.222 96.9259
L540.562 97.3646
L541.901 97.4858
L543.24 97.6406
L543.91 97.511
L544.579 97.1721
L545.249 97.0095
L545.918 97.062
L546.588 96.8319
L547.258 96.7898
L547.927 97.005
L548.597 96.9693
L549.936 97.187
L551.275 97.0425
L553.284 96.5131
L554.623 96.6317
L555.962 96.263
L557.302 96.2902
L557.971 96.2572
L559.98 96.7691
L562.658 96.7542
L563.328 96.8112
L563.998 96.504
L564.667 96.7211
L565.337 96.377
L568.015 96.3466
L569.354 96.528
L570.024 96.1742
L570.694 96.3129
L571.363 96.2429
L572.033 96.5818
L572.702 96.6848
L573.372 96.5352
L574.042 96.114
L575.381 96.3751
L576.72 96.5993
L579.398 96.3634
L580.068 96.5663
L580.738 96.3686
L581.407 96.3071
L582.077 96.5818
L583.416 96.4878
L584.086 96.2986
L584.755 96.2772
L586.094 95.8023
L587.434 96.0193
L588.773 96.3582
L590.112 96.1107
L590.782 96.1282
L592.121 95.6966
L592.79 95.9487
L594.799 95.6856
L595.469 95.3078
L596.138 95.2191
L596.808 95.4174
L597.478 95.4174
L598.147 95.2126
L598.817 95.4523
L600.156 95.5385
L601.495 95.5094
L602.165 95.6791
L602.834 95.5638
L603.504 95.6824
L604.843 95.3325
L606.182 95.3642
L606.852 95.4783
L607.522 95.1342
L608.191 95.464
L608.861 95.5178
L609.53 95.8489
L610.2 95.7692
L610.87 95.2255
L612.209 95.002
L612.878 95.1899
L613.548 95.0584
L614.887 95.532
L615.557 95.466
L616.226 95.7388
L616.896 95.5819
L619.574 95.4925
L620.244 95.6545
L620.914 95.2644
L622.922 95.4212
L623.592 95.0759
L624.262 95.2618
L624.931 95.2068
L625.601 95.3461
L626.94 95.0525
L627.61 94.9806
L628.949 95.1925
L629.618 94.9806
L630.288 95.0149
L631.627 94.7376
L632.297 94.4402
L633.636 94.5076
L634.975 94.6022
L635.645 94.33
L636.314 94.6048
L636.984 94.2218
L637.654 94.2451
L638.323 94.0274
L640.332 94.2043
L641.002 94.5361
L643.01 94.3682
L644.35 94.6274
L645.019 94.4479
L646.358 94.308
L647.028 94.6009
L648.367 93.8913
L649.037 94.2594
L649.706 94.3715
L650.376 94.6248
L651.715 94.3475
L653.724 94.3365
L655.063 94.7311
L655.733 94.8076
L656.402 94.3611
L657.072 94.2659
L657.742 93.9328
L658.411 93.9846
L659.081 93.785
L659.75 93.8978
L661.09 93.9315
L661.759 93.9509
L662.429 94.5283
L663.098 94.5931
L663.768 94.2062
L664.438 94.2302
L665.107 94.5497
L666.446 95.3551
L669.794 94.1725
L670.464 94.3112
L671.134 93.8148
L671.803 93.7462
L673.142 93.4546
L673.812 93.7248
L675.151 93.2887
L675.821 93.5116
L677.16 93.5045
L678.499 93.2945
L679.169 93.3515
L680.508 93.2485
L681.178 93.5997
L681.847 93.7604
L682.517 93.4766
L683.186 93.6827
L684.526 93.1461
L685.865 92.9102
L686.534 92.8746
L687.204 92.9835
L687.874 92.5305
L688.543 92.4391
L690.552 92.6601
L691.222 92.8092
L691.891 92.6899
L692.561 92.7793
L693.9 92.57
L695.239 92.4022
L695.909 92.2033
L696.578 92.4735
L697.248 92.281
L697.918 92.5739
L698.587 92.1637
L699.257 92.2558
L699.926 91.9752
L701.266 92.5402
L702.605 92.1262
L703.274 92.2953
L703.944 92.6562
L704.614 92.767
L705.283 92.4515
L705.953 91.9771
L706.622 92.0147
L707.292 91.751
L707.962 91.7108
L708.631 91.4561
L709.301 91.5475
L710.64 91.543
L711.31 91.6577
L711.979 91.8916
L712.649 91.8268
L713.318 91.4218
L713.988 91.5825
L714.658 91.2585
L715.327 91.4918
L715.997 91.4535
L716.666 91.7853
L717.336 91.7179
L718.675 91.9097
L720.014 91.6168
L720.684 91.5903
L721.354 91.7276
L722.693 92.1307
L723.362 91.8035
L726.71 92.2078
L728.719 91.8158
L729.389 91.8145
L731.398 91.3084
L732.737 91.6849
L733.406 91.6278
L734.076 91.7989
L734.746 91.5222
L735.415 91.9583
L736.085 91.7024
L736.754 91.5812
L738.763 91.7257
L739.433 91.3343
L740.102 91.3324
L740.772 91.0764
L741.442 91.0233
L742.111 90.6941
L742.781 90.9202
L743.45 90.893
L744.12 90.4725
L744.79 90.6533
L745.459 90.5742
L746.129 90.2016
L746.798 90.6921
L747.468 90.8652
L748.138 90.8185
L748.807 91.0758
L749.477 91.1892
L750.146 91.0842
L750.816 91.1231
L751.486 90.9844
L752.155 91.1004
L752.825 90.9312
L753.494 91.044
L754.164 90.6384
L755.503 90.2314
L756.173 90.4388
L757.512 90.3189
L758.182 90.4569
L758.851 90.4414
L759.521 90.7926
L762.199 90.687
L762.869 90.8619
L763.538 90.547
L765.547 90.1122
L766.217 90.302
L766.886 90.3493
L767.556 90.6144
L770.234 90.2184
L771.574 90.7582
L772.243 90.7829
L772.913 91.1211
L774.252 91.0213
L774.922 91.2941
L776.261 91.0356
L776.93 90.8068
L777.6 90.8619
L777.6 90.8619" style="fill:none;stroke:#008000;stroke-linecap:square;"/>
   </g>
   <g id="line2d_3">
    <path clip-path="url(#p7ceb695115)" d="
M108 556.707
L110.009 556.856
L110.678 556.638
L113.357 557.103
L114.026 557.088
L114.696 557.257
L115.366 557.239
L118.044 556.723
L118.714 556.815
L123.401 556.633
L125.41 557.07
L126.079 557.059
L126.749 556.758
L127.418 556.861
L128.088 557.101
L128.758 557.104
L130.097 556.74
L130.766 556.998
L131.436 557.402
L133.445 556.972
L134.114 557.106
L137.462 557.018
L138.132 556.88
L138.802 556.984
L139.471 556.958
L140.141 556.782
L141.48 557.025
L142.15 556.987
L142.819 556.697
L144.158 556.467
L145.498 556.827
L146.837 557.002
L147.506 557.238
L148.176 557.356
L149.515 557.329
L150.185 557.026
L150.854 557.102
L152.194 556.924
L154.202 557.229
L154.872 556.985
L155.542 557.209
L158.22 557.08
L160.898 557.238
L162.907 556.881
L163.577 556.862
L164.246 556.955
L164.916 556.768
L166.255 556.654
L167.594 556.365
L168.934 556.788
L170.273 557.088
L170.942 556.939
L172.282 557.071
L172.951 557.032
L174.29 556.749
L175.63 556.563
L176.969 557.119
L177.638 557.107
L178.308 556.941
L178.978 556.903
L179.647 556.686
L180.317 556.697
L180.986 556.856
L183.665 556.701
L184.334 556.929
L185.004 556.973
L185.674 557.196
L186.343 557.06
L187.013 557.113
L187.682 556.804
L189.022 556.962
L189.691 556.764
L191.03 556.733
L193.039 556.953
L193.709 556.882
L195.048 557.219
L197.057 557.037
L197.726 557.313
L199.735 557.347
L200.405 557.383
L201.744 556.913
L202.414 556.718
L203.083 556.889
L203.753 556.918
L205.092 557.242
L205.762 557.148
L207.77 557.714
L209.779 557.568
L210.449 557.675
L211.118 557.421
L211.788 557.631
L213.127 557.605
L213.797 557.45
L214.466 557.171
L215.136 557.238
L215.806 557.133
L216.475 556.845
L217.145 556.939
L221.832 556.711
L222.502 556.773
L223.171 556.569
L223.841 556.554
L225.18 556.99
L226.519 556.909
L228.528 556.931
L229.198 557.052
L229.867 556.946
L234.554 557.027
L235.224 556.836
L235.894 556.977
L237.233 557.077
L238.572 556.771
L240.581 556.928
L241.92 556.807
L242.59 556.882
L243.259 556.748
L243.929 556.765
L245.268 557.025
L245.938 557.028
L246.607 557.207
L248.616 557.223
L249.286 556.924
L250.625 556.902
L251.964 556.616
L252.634 556.794
L253.973 556.595
L254.642 556.789
L255.982 556.777
L256.651 556.55
L257.321 556.68
L257.99 556.937
L259.33 557.159
L259.999 556.953
L260.669 557.023
L261.338 556.817
L262.008 556.756
L262.678 556.826
L263.347 557.077
L264.686 557.185
L265.356 557.266
L266.695 557.108
L267.365 556.818
L268.034 556.691
L269.374 556.816
L270.043 556.659
L270.713 556.696
L271.382 556.606
L272.722 556.309
L273.391 556.28
L274.061 556.384
L275.4 556.25
L276.739 556.25
L277.409 556.375
L278.078 556.626
L279.418 556.722
L280.087 556.656
L280.757 556.475
L282.096 556.508
L282.766 556.762
L284.105 556.416
L285.444 556.617
L286.114 556.867
L287.453 557.047
L288.122 556.825
L290.801 556.687
L293.479 556.585
L294.149 556.784
L295.488 556.504
L298.166 556.546
L298.836 556.933
L300.845 556.761
L302.854 557.147
L303.523 557.035
L304.193 557.131
L305.532 557.062
L306.871 557.008
L307.541 556.741
L308.21 556.298
L308.88 556.195
L309.55 556.274
L310.889 556.572
L311.558 556.648
L312.228 556.962
L313.567 556.753
L318.254 556.939
L319.594 556.625
L320.263 556.751
L320.933 556.499
L321.602 556.578
L322.942 556.888
L323.611 556.708
L324.95 556.823
L326.959 557.353
L330.307 557.316
L330.977 557.466
L333.655 557.006
L334.325 557.237
L334.994 557.149
L335.664 557.246
L338.342 557.25
L339.012 557.375
L339.682 557.34
L340.351 557.084
L342.36 557.028
L343.699 557.069
L344.369 557.243
L345.708 557.012
L348.386 556.999
L351.065 556.623
L353.074 556.653
L353.743 556.937
L354.413 556.975
L355.082 557.128
L355.752 556.907
L356.422 557.047
L357.091 557.017
L357.761 557.104
L358.43 556.894
L359.1 557.014
L359.77 556.934
L361.778 557.218
L362.448 557.228
L363.118 557.369
L363.787 557.192
L364.457 556.858
L366.466 557.058
L367.805 556.712
L368.474 556.595
L369.144 556.732
L369.814 556.647
L370.483 556.401
L371.153 556.356
L371.822 556.094
L372.492 556.222
L374.501 556.211
L375.17 556.36
L375.84 556.296
L376.51 556.432
L377.849 556.352
L378.518 556.566
L379.188 556.527
L380.527 556.824
L381.197 557.092
L383.206 557.007
L383.875 557.077
L384.545 556.816
L385.214 557.172
L385.884 557.316
L387.223 557.327
L387.893 557.357
L390.571 556.696
L391.241 556.889
L391.91 556.874
L392.58 556.727
L394.589 557.145
L395.258 557.01
L395.928 557.031
L397.267 556.714
L397.937 556.453
L398.606 556.678
L399.276 556.372
L401.285 556.861
L405.972 556.337
L406.642 556.404
L407.981 556.263
L409.32 556.545
L410.659 556.872
L411.998 556.718
L413.338 556.771
L414.007 556.701
L414.677 556.889
L416.686 556.594
L417.355 556.661
L418.694 556.511
L420.703 556.478
L421.373 556.705
L422.042 556.506
L422.712 556.486
L423.382 556.78
L425.39 556.973
L426.06 556.753
L428.738 556.811
L429.408 556.57
L430.078 556.657
L430.747 556.556
L431.417 556.62
L432.756 556.378
L434.095 556.274
L436.104 556.728
L437.443 556.616
L438.113 556.607
L438.782 556.819
L439.452 556.871
L440.122 556.605
L440.791 556.791
L442.13 556.62
L443.47 556.669
L444.809 557.052
L446.148 557.794
L446.818 558.471
L448.157 559.497
L451.505 561.999
L452.844 562.73
L455.522 563.757
L456.862 564.648
L458.201 565.36
L458.87 565.469
L459.54 565.699
L460.21 565.687
L460.879 565.821
L461.549 565.842
L463.558 566.395
L464.227 566.425
L464.897 566.778
L466.236 566.511
L466.906 566.465
L467.575 566.25
L468.245 566.412
L468.914 566.445
L469.584 566.351
L470.254 566.42
L472.262 566.205
L472.932 566.038
L473.602 566.24
L474.271 566.091
L474.941 566.115
L475.61 565.979
L476.28 566.042
L479.628 565.506
L480.298 565.629
L480.967 565.553
L481.637 565.213
L482.976 565.18
L483.646 565.15
L484.315 565.236
L484.985 564.94
L485.654 564.995
L486.324 564.808
L486.994 564.445
L489.002 564.486
L489.672 564.326
L490.342 564.458
L491.011 564.757
L491.681 564.696
L493.02 564.289
L493.69 564.079
L494.359 563.678
L495.698 563.481
L498.377 563.05
L499.716 563.261
L500.386 563.437
L501.725 563.019
L503.734 563.334
L504.403 563.397
L506.412 563.081
L511.769 563.693
L512.438 563.22
L513.108 563.291
L513.778 563.107
L517.126 563.122
L518.465 563.31
L519.134 563.008
L520.474 563.34
L521.813 563.254
L522.482 563.274
L523.152 563.674
L523.822 563.89
L524.491 563.917
L525.161 563.647
L525.83 563.564
L526.5 563.301
L528.509 563.157
L531.857 563.065
L533.196 562.955
L537.214 563.207
L537.883 563.004
L538.553 563.084
L539.222 563.023
L539.892 562.726
L540.562 562.62
L541.231 562.687
L541.901 562.395
L542.57 562.357
L543.91 562.025
L544.579 562.311
L545.918 562.119
L546.588 562.059
L547.258 562.132
L549.936 561.563
L550.606 561.613
L551.275 561.512
L553.284 561.931
L555.293 561.879
L555.962 561.996
L557.971 561.698
L558.641 561.701
L559.31 561.35
L561.989 561.3
L562.658 561.192
L564.667 561.387
L565.337 561.749
L566.676 561.748
L567.346 561.906
L571.363 561.613
L572.702 561.406
L574.042 561.605
L576.05 561.15
L576.72 561.187
L577.39 561.376
L578.729 561.25
L579.398 561.27
L580.068 561.119
L582.077 561.029
L582.746 560.846
L585.425 561.094
L586.094 561.214
L587.434 561.036
L588.773 560.628
L589.442 560.609
L591.451 560.994
L595.469 560.814
L596.138 560.89
L597.478 560.681
L598.147 560.704
L599.486 560.571
L600.826 560.479
L602.834 560.361
L603.504 560.19
L604.174 560.486
L606.182 560.332
L607.522 560.556
L608.191 560.379
L608.861 560.372
L610.2 560.076
L610.87 560.241
L612.209 560.195
L612.878 559.983
L613.548 560.054
L614.887 559.825
L615.557 559.884
L616.896 559.686
L618.905 559.67
L621.583 559.67
L622.922 559.651
L624.931 559.978
L625.601 559.851
L626.27 559.952
L626.94 559.808
L627.61 559.836
L628.949 559.46
L629.618 559.604
L631.627 559.614
L632.297 559.925
L632.966 560
L634.975 559.794
L635.645 559.917
L636.314 559.722
L636.984 559.886
L637.654 559.726
L638.323 559.872
L640.332 559.73
L641.002 559.386
L641.671 559.249
L645.019 559.407
L646.358 559.565
L647.028 559.391
L648.367 559.827
L649.037 559.772
L649.706 559.595
L650.376 559.19
L653.054 559.272
L655.063 559.138
L655.733 558.75
L656.402 558.938
L657.072 558.923
L657.742 559.038
L658.411 558.927
L659.081 559.017
L659.75 558.847
L660.42 558.987
L661.09 558.821
L661.759 559.032
L662.429 558.733
L663.098 558.67
L663.768 558.763
L666.446 558.028
L667.116 558.194
L667.786 558.536
L668.455 558.726
L669.794 558.794
L670.464 558.558
L671.134 558.759
L673.142 558.886
L673.812 558.573
L675.151 558.655
L675.821 558.565
L676.49 558.691
L677.83 558.653
L680.508 558.584
L681.178 558.308
L681.847 558.263
L682.517 558.531
L683.186 558.483
L685.195 558.98
L685.865 558.854
L686.534 558.927
L687.204 558.779
L687.874 559.037
L689.213 558.841
L690.552 559.007
L691.222 558.871
L691.891 558.984
L692.561 558.792
L693.23 558.81
L693.9 558.603
L695.239 558.554
L695.909 558.792
L696.578 558.633
L697.248 558.68
L697.918 558.538
L698.587 558.702
L699.257 558.695
L699.926 558.835
L701.266 558.492
L703.274 558.7
L703.944 558.448
L704.614 558.316
L705.283 558.521
L705.953 558.872
L707.962 558.669
L708.631 558.784
L709.301 558.641
L709.97 558.857
L711.979 558.536
L713.318 558.724
L713.988 558.565
L714.658 558.674
L715.997 558.51
L716.666 558.273
L720.684 558.207
L721.354 558.117
L722.023 558.229
L722.693 557.992
L723.362 558.354
L724.702 557.944
L725.371 557.834
L727.38 557.923
L728.05 557.819
L728.719 557.969
L730.058 558.043
L731.398 558.227
L732.737 557.981
L733.406 557.929
L734.076 557.662
L734.746 557.857
L735.415 557.521
L737.424 557.93
L738.094 557.829
L740.102 558.073
L740.772 558.304
L741.442 558.296
L742.111 558.511
L743.45 558.276
L744.12 558.437
L744.79 558.306
L745.459 558.36
L746.129 558.625
L746.798 558.216
L747.468 558.102
L748.138 558.302
L749.477 557.907
L750.146 558.05
L750.816 557.822
L751.486 557.987
L752.155 557.826
L753.494 557.879
L754.164 558.138
L755.503 558.363
L756.173 558.163
L756.842 558.317
L758.851 558.341
L759.521 558.056
L760.86 558.054
L762.199 558.36
L762.869 558.144
L764.208 558.222
L765.547 558.542
L766.886 558.545
L768.226 558.459
L769.565 558.454
L770.234 558.446
L770.904 558.555
L773.582 557.776
L774.922 557.733
L775.591 557.719
L776.93 557.857
L777.6 557.888
L777.6 557.888" style="fill:none;stroke:#0000ff;stroke-linecap:square;"/>
   </g>
   <g id="patch_3">
    <path d="
M777.6 583.2
L777.6 64.8" style="fill:none;stroke:#000000;stroke-linecap:square;stroke-linejoin:miter;"/>
   </g>
   <g id="patch_4">
    <path d="
M108 583.2
L108 64.8" style="fill:none;stroke:#000000;stroke-linecap:square;stroke-linejoin:miter;"/>
   </g>
   <g id="patch_5">
    <path d="
M108 64.8
L777.6 64.8" style="fill:none;stroke:#000000;stroke-linecap:square;stroke-linejoin:miter;"/>
   </g>
   <g id="patch_6">
    <path d="
M108 583.2
L777.6 583.2" style="fill:none;stroke:#000000;stroke-linecap:square;stroke-linejoin:miter;"/>
   </g>
   <g id="matplotlib.axis_1">
    <g id="xtick_1">
     <g id="line2d_4">
      <defs>
       <path d="
M0 0
L0 -4" id="mc7db9fdffb" style="stroke:#000000;stroke-width:0.5;"/>
      </defs>
      <g>
       <use style="stroke:#000000;stroke-width:0.5;" x="108.0" xlink:href="#mc7db9fdffb" y="583.2"/>
      </g>
     </g>
     <g id="line2d_5">
      <defs>
       <path d="
M0 0
L0 4" id="m5a7d422ac3" style="stroke:#000000;stroke-width:0.5;"/>
      </defs>
      <g>
       <use style="stroke:#000000;stroke-width:0.5;" x="108.0" xlink:href="#m5a7d422ac3" y="64.8"/>
      </g>
     </g>
     <g id="text_1">
      <!-- 0 -->
      <defs>
       <path d="
M31.7812 66.4062
Q24.1719 66.4062 20.3281 58.9062
Q16.5 51.4219 16.5 36.375
Q16.5 21.3906 20.3281 13.8906
Q24.1719 6.39062 31.7812 6.39062
Q39.4531 6.39062 43.2812 13.8906
Q47.125 21.3906 47.125 36.375
Q47.125 51.4219 43.2812 58.9062
Q39.4531 66.4062 31.7812 66.4062
M31.7812 74.2188
Q44.0469 74.2188 50.5156 64.5156
Q56.9844 54.8281 56.9844 36.375
Q56.9844 17.9688 50.5156 8.26562
Q44.0469 -1.42188 31.7812 -1.42188
Q19.5312 -1.42188 13.0625 8.26562
Q6.59375 17.9688 6.59375 36.375
Q6.59375 54.8281 13.0625 64.5156
Q19.5312 74.2188 31.7812 74.2188" id="BitstreamVeraSans-Roman-30"/>
      </defs>
      <g transform="translate(104.9765625 596.318125)scale(0.12 -0.12)">
       <use xlink:href="#BitstreamVeraSans-Roman-30"/>
      </g>
     </g>
    </g>
    <g id="xtick_2">
     <g id="line2d_6">
      <g>
       <use style="stroke:#000000;stroke-width:0.5;" x="275.4" xlink:href="#mc7db9fdffb" y="583.2"/>
      </g>
     </g>
     <g id="line2d_7">
      <g>
       <use style="stroke:#000000;stroke-width:0.5;" x="275.4" xlink:href="#m5a7d422ac3" y="64.8"/>
      </g>
     </g>
     <g id="text_2">
      <!-- 50000 -->
      <defs>
       <path d="
M10.7969 72.9062
L49.5156 72.9062
L49.5156 64.5938
L19.8281 64.5938
L19.8281 46.7344
Q21.9688 47.4688 24.1094 47.8281
Q26.2656 48.1875 28.4219 48.1875
Q40.625 48.1875 47.75 41.5
Q54.8906 34.8125 54.8906 23.3906
Q54.8906 11.625 47.5625 5.09375
Q40.2344 -1.42188 26.9062 -1.42188
Q22.3125 -1.42188 17.5469 -0.640625
Q12.7969 0.140625 7.71875 1.70312
L7.71875 11.625
Q12.1094 9.23438 16.7969 8.0625
Q21.4844 6.89062 26.7031 6.89062
Q35.1562 6.89062 40.0781 11.3281
Q45.0156 15.7656 45.0156 23.3906
Q45.0156 31 40.0781 35.4375
Q35.1562 39.8906 26.7031 39.8906
Q22.75 39.8906 18.8125 39.0156
Q14.8906 38.1406 10.7969 36.2812
z
" id="BitstreamVeraSans-Roman-35"/>
      </defs>
      <g transform="translate(257.1740625 596.318125)scale(0.12 -0.12)">
       <use xlink:href="#BitstreamVeraSans-Roman-35"/>
       <use x="63.623046875" xlink:href="#BitstreamVeraSans-Roman-30"/>
       <use x="127.24609375" xlink:href="#BitstreamVeraSans-Roman-30"/>
       <use x="190.869140625" xlink:href="#BitstreamVeraSans-Roman-30"/>
       <use x="254.4921875" xlink:href="#BitstreamVeraSans-Roman-30"/>
      </g>
     </g>
    </g>
    <g id="xtick_3">
     <g id="line2d_8">
      <g>
       <use style="stroke:#000000;stroke-width:0.5;" x="442.8" xlink:href="#mc7db9fdffb" y="583.2"/>
      </g>
     </g>
     <g id="line2d_9">
      <g>
       <use style="stroke:#000000;stroke-width:0.5;" x="442.8" xlink:href="#m5a7d422ac3" y="64.8"/>
      </g>
     </g>
     <g id="text_3">
      <!-- 100000 -->
      <defs>
       <path d="
M12.4062 8.29688
L28.5156 8.29688
L28.5156 63.9219
L10.9844 60.4062
L10.9844 69.3906
L28.4219 72.9062
L38.2812 72.9062
L38.2812 8.29688
L54.3906 8.29688
L54.3906 0
L12.4062 0
z
" id="BitstreamVeraSans-Roman-31"/>
      </defs>
      <g transform="translate(420.9525 596.318125)scale(0.12 -0.12)">
       <use xlink:href="#BitstreamVeraSans-Roman-31"/>
       <use x="63.623046875" xlink:href="#BitstreamVeraSans-Roman-30"/>
       <use x="127.24609375" xlink:href="#BitstreamVeraSans-Roman-30"/>
       <use x="190.869140625" xlink:href="#BitstreamVeraSans-Roman-30"/>
       <use x="254.4921875" xlink:href="#BitstreamVeraSans-Roman-30"/>
       <use x="318.115234375" xlink:href="#BitstreamVeraSans-Roman-30"/>
      </g>
     </g>
    </g>
    <g id="xtick_4">
     <g id="line2d_10">
      <g>
       <use style="stroke:#000000;stroke-width:0.5;" x="610.2" xlink:href="#mc7db9fdffb" y="583.2"/>
      </g>
     </g>
     <g id="line2d_11">
      <g>
       <use style="stroke:#000000;stroke-width:0.5;" x="610.2" xlink:href="#m5a7d422ac3" y="64.8"/>
      </g>
     </g>
     <g id="text_4">
      <!-- 150000 -->
      <g transform="translate(588.3525 596.318125)scale(0.12 -0.12)">
       <use xlink:href="#BitstreamVeraSans-Roman-31"/>
       <use x="63.623046875" xlink:href="#BitstreamVeraSans-Roman-35"/>
       <use x="127.24609375" xlink:href="#BitstreamVeraSans-Roman-30"/>
       <use x="190.869140625" xlink:href="#BitstreamVeraSans-Roman-30"/>
       <use x="254.4921875" xlink:href="#BitstreamVeraSans-Roman-30"/>
       <use x="318.115234375" xlink:href="#BitstreamVeraSans-Roman-30"/>
      </g>
     </g>
    </g>
    <g id="xtick_5">
     <g id="line2d_12">
      <g>
       <use style="stroke:#000000;stroke-width:0.5;" x="777.6" xlink:href="#mc7db9fdffb" y="583.2"/>
      </g>
     </g>
     <g id="line2d_13">
      <g>
       <use style="stroke:#000000;stroke-width:0.5;" x="777.6" xlink:href="#m5a7d422ac3" y="64.8"/>
      </g>
     </g>
     <g id="text_5">
      <!-- 200000 -->
      <defs>
       <path d="
M19.1875 8.29688
L53.6094 8.29688
L53.6094 0
L7.32812 0
L7.32812 8.29688
Q12.9375 14.1094 22.625 23.8906
Q32.3281 33.6875 34.8125 36.5312
Q39.5469 41.8438 41.4219 45.5312
Q43.3125 49.2188 43.3125 52.7812
Q43.3125 58.5938 39.2344 62.25
Q35.1562 65.9219 28.6094 65.9219
Q23.9688 65.9219 18.8125 64.3125
Q13.6719 62.7031 7.8125 59.4219
L7.8125 69.3906
Q13.7656 71.7812 18.9375 73
Q24.125 74.2188 28.4219 74.2188
Q39.75 74.2188 46.4844 68.5469
Q53.2188 62.8906 53.2188 53.4219
Q53.2188 48.9219 51.5312 44.8906
Q49.8594 40.875 45.4062 35.4062
Q44.1875 33.9844 37.6406 27.2188
Q31.1094 20.4531 19.1875 8.29688" id="BitstreamVeraSans-Roman-32"/>
      </defs>
      <g transform="translate(755.533125 596.318125)scale(0.12 -0.12)">
       <use xlink:href="#BitstreamVeraSans-Roman-32"/>
       <use x="63.623046875" xlink:href="#BitstreamVeraSans-Roman-30"/>
       <use x="127.24609375" xlink:href="#BitstreamVeraSans-Roman-30"/>
       <use x="190.869140625" xlink:href="#BitstreamVeraSans-Roman-30"/>
       <use x="254.4921875" xlink:href="#BitstreamVeraSans-Roman-30"/>
       <use x="318.115234375" xlink:href="#BitstreamVeraSans-Roman-30"/>
      </g>
     </g>
    </g>
    <g id="text_6">
     <!-- t / ms -->
     <defs>
      <path id="BitstreamVeraSans-Roman-20"/>
      <path d="
M52 44.1875
Q55.375 50.25 60.0625 53.125
Q64.75 56 71.0938 56
Q79.6406 56 84.2812 50.0156
Q88.9219 44.0469 88.9219 33.0156
L88.9219 0
L79.8906 0
L79.8906 32.7188
Q79.8906 40.5781 77.0938 44.375
Q74.3125 48.1875 68.6094 48.1875
Q61.625 48.1875 57.5625 43.5469
Q53.5156 38.9219 53.5156 30.9062
L53.5156 0
L44.4844 0
L44.4844 32.7188
Q44.4844 40.625 41.7031 44.4062
Q38.9219 48.1875 33.1094 48.1875
Q26.2188 48.1875 22.1562 43.5312
Q18.1094 38.875 18.1094 30.9062
L18.1094 0
L9.07812 0
L9.07812 54.6875
L18.1094 54.6875
L18.1094 46.1875
Q21.1875 51.2188 25.4844 53.6094
Q29.7812 56 35.6875 56
Q41.6562 56 45.8281 52.9688
Q50 49.9531 52 44.1875" id="BitstreamVeraSans-Roman-6d"/>
      <path d="
M18.3125 70.2188
L18.3125 54.6875
L36.8125 54.6875
L36.8125 47.7031
L18.3125 47.7031
L18.3125 18.0156
Q18.3125 11.3281 20.1406 9.42188
Q21.9688 7.51562 27.5938 7.51562
L36.8125 7.51562
L36.8125 0
L27.5938 0
Q17.1875 0 13.2344 3.875
Q9.28125 7.76562 9.28125 18.0156
L9.28125 47.7031
L2.6875 47.7031
L2.6875 54.6875
L9.28125 54.6875
L9.28125 70.2188
z
" id="BitstreamVeraSans-Roman-74"/>
      <path d="
M25.3906 72.9062
L33.6875 72.9062
L8.29688 -9.28125
L0 -9.28125
z
" id="BitstreamVeraSans-Roman-2f"/>
      <path d="
M44.2812 53.0781
L44.2812 44.5781
Q40.4844 46.5312 36.375 47.5
Q32.2812 48.4844 27.875 48.4844
Q21.1875 48.4844 17.8438 46.4375
Q14.5 44.3906 14.5 40.2812
Q14.5 37.1562 16.8906 35.375
Q19.2812 33.5938 26.5156 31.9844
L29.5938 31.2969
Q39.1562 29.25 43.1875 25.5156
Q47.2188 21.7812 47.2188 15.0938
Q47.2188 7.46875 41.1875 3.01562
Q35.1562 -1.42188 24.6094 -1.42188
Q20.2188 -1.42188 15.4531 -0.5625
Q10.6875 0.296875 5.42188 2
L5.42188 11.2812
Q10.4062 8.6875 15.2344 7.39062
Q20.0625 6.10938 24.8125 6.10938
Q31.1562 6.10938 34.5625 8.28125
Q37.9844 10.4531 37.9844 14.4062
Q37.9844 18.0625 35.5156 20.0156
Q33.0625 21.9688 24.7031 23.7812
L21.5781 24.5156
Q13.2344 26.2656 9.51562 29.9062
Q5.8125 33.5469 5.8125 39.8906
Q5.8125 47.6094 11.2812 51.7969
Q16.75 56 26.8125 56
Q31.7812 56 36.1719 55.2656
Q40.5781 54.5469 44.2812 53.0781" id="BitstreamVeraSans-Roman-73"/>
     </defs>
     <g transform="translate(425.9353125 612.931875)scale(0.12 -0.12)">
      <use xlink:href="#BitstreamVeraSans-Roman-74"/>
      <use x="39.208984375" xlink:href="#BitstreamVeraSans-Roman-20"/>
      <use x="70.99609375" xlink:href="#BitstreamVeraSans-Roman-2f"/>
      <use x="104.6875" xlink:href="#BitstreamVeraSans-Roman-20"/>
      <use x="136.474609375" xlink:href="#BitstreamVeraSans-Roman-6d"/>
      <use x="233.88671875" xlink:href="#BitstreamVeraSans-Roman-73"/>
     </g>
    </g>
   </g>
   <g id="matplotlib.axis_2">
    <g id="ytick_1">
     <g id="line2d_14">
      <defs>
       <path d="
M0 0
L4 0" id="md7965d1ba0" style="stroke:#000000;stroke-width:0.5;"/>
      </defs>
      <g>
       <use style="stroke:#000000;stroke-width:0.5;" x="108.0" xlink:href="#md7965d1ba0" y="583.2"/>
      </g>
     </g>
     <g id="line2d_15">
      <defs>
       <path d="
M0 0
L-4 0" id="md9a1c1a7cd" style="stroke:#000000;stroke-width:0.5;"/>
      </defs>
      <g>
       <use style="stroke:#000000;stroke-width:0.5;" x="777.6" xlink:href="#md9a1c1a7cd" y="583.2"/>
      </g>
     </g>
     <g id="text_7">
      <!-- 200000 -->
      <g transform="translate(59.86625 586.51125)scale(0.12 -0.12)">
       <use xlink:href="#BitstreamVeraSans-Roman-32"/>
       <use x="63.623046875" xlink:href="#BitstreamVeraSans-Roman-30"/>
       <use x="127.24609375" xlink:href="#BitstreamVeraSans-Roman-30"/>
       <use x="190.869140625" xlink:href="#BitstreamVeraSans-Roman-30"/>
       <use x="254.4921875" xlink:href="#BitstreamVeraSans-Roman-30"/>
       <use x="318.115234375" xlink:href="#BitstreamVeraSans-Roman-30"/>
      </g>
     </g>
    </g>
    <g id="ytick_2">
     <g id="line2d_16">
      <g>
       <use style="stroke:#000000;stroke-width:0.5;" x="108.0" xlink:href="#md7965d1ba0" y="518.4"/>
      </g>
     </g>
     <g id="line2d_17">
      <g>
       <use style="stroke:#000000;stroke-width:0.5;" x="777.6" xlink:href="#md9a1c1a7cd" y="518.4"/>
      </g>
     </g>
     <g id="text_8">
      <!-- 300000 -->
      <defs>
       <path d="
M40.5781 39.3125
Q47.6562 37.7969 51.625 33
Q55.6094 28.2188 55.6094 21.1875
Q55.6094 10.4062 48.1875 4.48438
Q40.7656 -1.42188 27.0938 -1.42188
Q22.5156 -1.42188 17.6562 -0.515625
Q12.7969 0.390625 7.625 2.20312
L7.625 11.7188
Q11.7188 9.32812 16.5938 8.10938
Q21.4844 6.89062 26.8125 6.89062
Q36.0781 6.89062 40.9375 10.5469
Q45.7969 14.2031 45.7969 21.1875
Q45.7969 27.6406 41.2812 31.2656
Q36.7656 34.9062 28.7188 34.9062
L20.2188 34.9062
L20.2188 43.0156
L29.1094 43.0156
Q36.375 43.0156 40.2344 45.9219
Q44.0938 48.8281 44.0938 54.2969
Q44.0938 59.9062 40.1094 62.9062
Q36.1406 65.9219 28.7188 65.9219
Q24.6562 65.9219 20.0156 65.0312
Q15.375 64.1562 9.8125 62.3125
L9.8125 71.0938
Q15.4375 72.6562 20.3438 73.4375
Q25.25 74.2188 29.5938 74.2188
Q40.8281 74.2188 47.3594 69.1094
Q53.9062 64.0156 53.9062 55.3281
Q53.9062 49.2656 50.4375 45.0938
Q46.9688 40.9219 40.5781 39.3125" id="BitstreamVeraSans-Roman-33"/>
      </defs>
      <g transform="translate(59.901875 521.71125)scale(0.12 -0.12)">
       <use xlink:href="#BitstreamVeraSans-Roman-33"/>
       <use x="63.623046875" xlink:href="#BitstreamVeraSans-Roman-30"/>
       <use x="127.24609375" xlink:href="#BitstreamVeraSans-Roman-30"/>
       <use x="190.869140625" xlink:href="#BitstreamVeraSans-Roman-30"/>
       <use x="254.4921875" xlink:href="#BitstreamVeraSans-Roman-30"/>
       <use x="318.115234375" xlink:href="#BitstreamVeraSans-Roman-30"/>
      </g>
     </g>
    </g>
    <g id="ytick_3">
     <g id="line2d_18">
      <g>
       <use style="stroke:#000000;stroke-width:0.5;" x="108.0" xlink:href="#md7965d1ba0" y="453.6"/>
      </g>
     </g>
     <g id="line2d_19">
      <g>
       <use style="stroke:#000000;stroke-width:0.5;" x="777.6" xlink:href="#md9a1c1a7cd" y="453.6"/>
      </g>
     </g>
     <g id="text_9">
      <!-- 400000 -->
      <defs>
       <path d="
M37.7969 64.3125
L12.8906 25.3906
L37.7969 25.3906
z

M35.2031 72.9062
L47.6094 72.9062
L47.6094 25.3906
L58.0156 25.3906
L58.0156 17.1875
L47.6094 17.1875
L47.6094 0
L37.7969 0
L37.7969 17.1875
L4.89062 17.1875
L4.89062 26.7031
z
" id="BitstreamVeraSans-Roman-34"/>
      </defs>
      <g transform="translate(59.57375 456.91125)scale(0.12 -0.12)">
       <use xlink:href="#BitstreamVeraSans-Roman-34"/>
       <use x="63.623046875" xlink:href="#BitstreamVeraSans-Roman-30"/>
       <use x="127.24609375" xlink:href="#BitstreamVeraSans-Roman-30"/>
       <use x="190.869140625" xlink:href="#BitstreamVeraSans-Roman-30"/>
       <use x="254.4921875" xlink:href="#BitstreamVeraSans-Roman-30"/>
       <use x="318.115234375" xlink:href="#BitstreamVeraSans-Roman-30"/>
      </g>
     </g>
    </g>
    <g id="ytick_4">
     <g id="line2d_20">
      <g>
       <use style="stroke:#000000;stroke-width:0.5;" x="108.0" xlink:href="#md7965d1ba0" y="388.8"/>
      </g>
     </g>
     <g id="line2d_21">
      <g>
       <use style="stroke:#000000;stroke-width:0.5;" x="777.6" xlink:href="#md9a1c1a7cd" y="388.8"/>
      </g>
     </g>
     <g id="text_10">
      <!-- 500000 -->
      <g transform="translate(59.913125 392.11125)scale(0.12 -0.12)">
       <use xlink:href="#BitstreamVeraSans-Roman-35"/>
       <use x="63.623046875" xlink:href="#BitstreamVeraSans-Roman-30"/>
       <use x="127.24609375" xlink:href="#BitstreamVeraSans-Roman-30"/>
       <use x="190.869140625" xlink:href="#BitstreamVeraSans-Roman-30"/>
       <use x="254.4921875" xlink:href="#BitstreamVeraSans-Roman-30"/>
       <use x="318.115234375" xlink:href="#BitstreamVeraSans-Roman-30"/>
      </g>
     </g>
    </g>
    <g id="ytick_5">
     <g id="line2d_22">
      <g>
       <use style="stroke:#000000;stroke-width:0.5;" x="108.0" xlink:href="#md7965d1ba0" y="324.0"/>
      </g>
     </g>
     <g id="line2d_23">
      <g>
       <use style="stroke:#000000;stroke-width:0.5;" x="777.6" xlink:href="#md9a1c1a7cd" y="324.0"/>
      </g>
     </g>
     <g id="text_11">
      <!-- 600000 -->
      <defs>
       <path d="
M33.0156 40.375
Q26.375 40.375 22.4844 35.8281
Q18.6094 31.2969 18.6094 23.3906
Q18.6094 15.5312 22.4844 10.9531
Q26.375 6.39062 33.0156 6.39062
Q39.6562 6.39062 43.5312 10.9531
Q47.4062 15.5312 47.4062 23.3906
Q47.4062 31.2969 43.5312 35.8281
Q39.6562 40.375 33.0156 40.375
M52.5938 71.2969
L52.5938 62.3125
Q48.875 64.0625 45.0938 64.9844
Q41.3125 65.9219 37.5938 65.9219
Q27.8281 65.9219 22.6719 59.3281
Q17.5312 52.7344 16.7969 39.4062
Q19.6719 43.6562 24.0156 45.9219
Q28.375 48.1875 33.5938 48.1875
Q44.5781 48.1875 50.9531 41.5156
Q57.3281 34.8594 57.3281 23.3906
Q57.3281 12.1562 50.6875 5.35938
Q44.0469 -1.42188 33.0156 -1.42188
Q20.3594 -1.42188 13.6719 8.26562
Q6.98438 17.9688 6.98438 36.375
Q6.98438 53.6562 15.1875 63.9375
Q23.3906 74.2188 37.2031 74.2188
Q40.9219 74.2188 44.7031 73.4844
Q48.4844 72.75 52.5938 71.2969" id="BitstreamVeraSans-Roman-36"/>
      </defs>
      <g transform="translate(59.825 327.31125)scale(0.12 -0.12)">
       <use xlink:href="#BitstreamVeraSans-Roman-36"/>
       <use x="63.623046875" xlink:href="#BitstreamVeraSans-Roman-30"/>
       <use x="127.24609375" xlink:href="#BitstreamVeraSans-Roman-30"/>
       <use x="190.869140625" xlink:href="#BitstreamVeraSans-Roman-30"/>
       <use x="254.4921875" xlink:href="#BitstreamVeraSans-Roman-30"/>
       <use x="318.115234375" xlink:href="#BitstreamVeraSans-Roman-30"/>
      </g>
     </g>
    </g>
    <g id="ytick_6">
     <g id="line2d_24">
      <g>
       <use style="stroke:#000000;stroke-width:0.5;" x="108.0" xlink:href="#md7965d1ba0" y="259.2"/>
      </g>
     </g>
     <g id="line2d_25">
      <g>
       <use style="stroke:#000000;stroke-width:0.5;" x="777.6" xlink:href="#md9a1c1a7cd" y="259.2"/>
      </g>
     </g>
     <g id="text_12">
      <!-- 700000 -->
      <defs>
       <path d="
M8.20312 72.9062
L55.0781 72.9062
L55.0781 68.7031
L28.6094 0
L18.3125 0
L43.2188 64.5938
L8.20312 64.5938
z
" id="BitstreamVeraSans-Roman-37"/>
      </defs>
      <g transform="translate(59.97125 262.51125)scale(0.12 -0.12)">
       <use xlink:href="#BitstreamVeraSans-Roman-37"/>
       <use x="63.623046875" xlink:href="#BitstreamVeraSans-Roman-30"/>
       <use x="127.24609375" xlink:href="#BitstreamVeraSans-Roman-30"/>
       <use x="190.869140625" xlink:href="#BitstreamVeraSans-Roman-30"/>
       <use x="254.4921875" xlink:href="#BitstreamVeraSans-Roman-30"/>
       <use x="318.115234375" xlink:href="#BitstreamVeraSans-Roman-30"/>
      </g>
     </g>
    </g>
    <g id="ytick_7">
     <g id="line2d_26">
      <g>
       <use style="stroke:#000000;stroke-width:0.5;" x="108.0" xlink:href="#md7965d1ba0" y="194.4"/>
      </g>
     </g>
     <g id="line2d_27">
      <g>
       <use style="stroke:#000000;stroke-width:0.5;" x="777.6" xlink:href="#md9a1c1a7cd" y="194.4"/>
      </g>
     </g>
     <g id="text_13">
      <!-- 800000 -->
      <defs>
       <path d="
M31.7812 34.625
Q24.75 34.625 20.7188 30.8594
Q16.7031 27.0938 16.7031 20.5156
Q16.7031 13.9219 20.7188 10.1562
Q24.75 6.39062 31.7812 6.39062
Q38.8125 6.39062 42.8594 10.1719
Q46.9219 13.9688 46.9219 20.5156
Q46.9219 27.0938 42.8906 30.8594
Q38.875 34.625 31.7812 34.625
M21.9219 38.8125
Q15.5781 40.375 12.0312 44.7188
Q8.5 49.0781 8.5 55.3281
Q8.5 64.0625 14.7188 69.1406
Q20.9531 74.2188 31.7812 74.2188
Q42.6719 74.2188 48.875 69.1406
Q55.0781 64.0625 55.0781 55.3281
Q55.0781 49.0781 51.5312 44.7188
Q48 40.375 41.7031 38.8125
Q48.8281 37.1562 52.7969 32.3125
Q56.7812 27.4844 56.7812 20.5156
Q56.7812 9.90625 50.3125 4.23438
Q43.8438 -1.42188 31.7812 -1.42188
Q19.7344 -1.42188 13.25 4.23438
Q6.78125 9.90625 6.78125 20.5156
Q6.78125 27.4844 10.7812 32.3125
Q14.7969 37.1562 21.9219 38.8125
M18.3125 54.3906
Q18.3125 48.7344 21.8438 45.5625
Q25.3906 42.3906 31.7812 42.3906
Q38.1406 42.3906 41.7188 45.5625
Q45.3125 48.7344 45.3125 54.3906
Q45.3125 60.0625 41.7188 63.2344
Q38.1406 66.4062 31.7812 66.4062
Q25.3906 66.4062 21.8438 63.2344
Q18.3125 60.0625 18.3125 54.3906" id="BitstreamVeraSans-Roman-38"/>
      </defs>
      <g transform="translate(59.800625 197.71125)scale(0.12 -0.12)">
       <use xlink:href="#BitstreamVeraSans-Roman-38"/>
       <use x="63.623046875" xlink:href="#BitstreamVeraSans-Roman-30"/>
       <use x="127.24609375" xlink:href="#BitstreamVeraSans-Roman-30"/>
       <use x="190.869140625" xlink:href="#BitstreamVeraSans-Roman-30"/>
       <use x="254.4921875" xlink:href="#BitstreamVeraSans-Roman-30"/>
       <use x="318.115234375" xlink:href="#BitstreamVeraSans-Roman-30"/>
      </g>
     </g>
    </g>
    <g id="ytick_8">
     <g id="line2d_28">
      <g>
       <use style="stroke:#000000;stroke-width:0.5;" x="108.0" xlink:href="#md7965d1ba0" y="129.6"/>
      </g>
     </g>
     <g id="line2d_29">
      <g>
       <use style="stroke:#000000;stroke-width:0.5;" x="777.6" xlink:href="#md9a1c1a7cd" y="129.6"/>
      </g>
     </g>
     <g id="text_14">
      <!-- 900000 -->
      <defs>
       <path d="
M10.9844 1.51562
L10.9844 10.5
Q14.7031 8.73438 18.5 7.8125
Q22.3125 6.89062 25.9844 6.89062
Q35.75 6.89062 40.8906 13.4531
Q46.0469 20.0156 46.7812 33.4062
Q43.9531 29.2031 39.5938 26.9531
Q35.25 24.7031 29.9844 24.7031
Q19.0469 24.7031 12.6719 31.3125
Q6.29688 37.9375 6.29688 49.4219
Q6.29688 60.6406 12.9375 67.4219
Q19.5781 74.2188 30.6094 74.2188
Q43.2656 74.2188 49.9219 64.5156
Q56.5938 54.8281 56.5938 36.375
Q56.5938 19.1406 48.4062 8.85938
Q40.2344 -1.42188 26.4219 -1.42188
Q22.7031 -1.42188 18.8906 -0.6875
Q15.0938 0.046875 10.9844 1.51562
M30.6094 32.4219
Q37.25 32.4219 41.125 36.9531
Q45.0156 41.5 45.0156 49.4219
Q45.0156 57.2812 41.125 61.8438
Q37.25 66.4062 30.6094 66.4062
Q23.9688 66.4062 20.0938 61.8438
Q16.2188 57.2812 16.2188 49.4219
Q16.2188 41.5 20.0938 36.9531
Q23.9688 32.4219 30.6094 32.4219" id="BitstreamVeraSans-Roman-39"/>
      </defs>
      <g transform="translate(59.7425 132.91125)scale(0.12 -0.12)">
       <use xlink:href="#BitstreamVeraSans-Roman-39"/>
       <use x="63.623046875" xlink:href="#BitstreamVeraSans-Roman-30"/>
       <use x="127.24609375" xlink:href="#BitstreamVeraSans-Roman-30"/>
       <use x="190.869140625" xlink:href="#BitstreamVeraSans-Roman-30"/>
       <use x="254.4921875" xlink:href="#BitstreamVeraSans-Roman-30"/>
       <use x="318.115234375" xlink:href="#BitstreamVeraSans-Roman-30"/>
      </g>
     </g>
    </g>
    <g id="ytick_9">
     <g id="line2d_30">
      <g>
       <use style="stroke:#000000;stroke-width:0.5;" x="108.0" xlink:href="#md7965d1ba0" y="64.8"/>
      </g>
     </g>
     <g id="line2d_31">
      <g>
       <use style="stroke:#000000;stroke-width:0.5;" x="777.6" xlink:href="#md9a1c1a7cd" y="64.8"/>
      </g>
     </g>
     <g id="text_15">
      <!-- 1000000 -->
      <g transform="translate(52.67 68.11125)scale(0.12 -0.12)">
       <use xlink:href="#BitstreamVeraSans-Roman-31"/>
       <use x="63.623046875" xlink:href="#BitstreamVeraSans-Roman-30"/>
       <use x="127.24609375" xlink:href="#BitstreamVeraSans-Roman-30"/>
       <use x="190.869140625" xlink:href="#BitstreamVeraSans-Roman-30"/>
       <use x="254.4921875" xlink:href="#BitstreamVeraSans-Roman-30"/>
       <use x="318.115234375" xlink:href="#BitstreamVeraSans-Roman-30"/>
       <use x="381.73828125" xlink:href="#BitstreamVeraSans-Roman-30"/>
      </g>
     </g>
    </g>
    <g id="text_16">
     <!-- particle numbers -->
     <defs>
      <path d="
M56.2031 29.5938
L56.2031 25.2031
L14.8906 25.2031
Q15.4844 15.9219 20.4844 11.0625
Q25.4844 6.20312 34.4219 6.20312
Q39.5938 6.20312 44.4531 7.46875
Q49.3125 8.73438 54.1094 11.2812
L54.1094 2.78125
Q49.2656 0.734375 44.1875 -0.34375
Q39.1094 -1.42188 33.8906 -1.42188
Q20.7969 -1.42188 13.1562 6.1875
Q5.51562 13.8125 5.51562 26.8125
Q5.51562 40.2344 12.7656 48.1094
Q20.0156 56 32.3281 56
Q43.3594 56 49.7812 48.8906
Q56.2031 41.7969 56.2031 29.5938
M47.2188 32.2344
Q47.125 39.5938 43.0938 43.9844
Q39.0625 48.3906 32.4219 48.3906
Q24.9062 48.3906 20.3906 44.1406
Q15.875 39.8906 15.1875 32.1719
z
" id="BitstreamVeraSans-Roman-65"/>
      <path d="
M54.8906 33.0156
L54.8906 0
L45.9062 0
L45.9062 32.7188
Q45.9062 40.4844 42.875 44.3281
Q39.8438 48.1875 33.7969 48.1875
Q26.5156 48.1875 22.3125 43.5469
Q18.1094 38.9219 18.1094 30.9062
L18.1094 0
L9.07812 0
L9.07812 54.6875
L18.1094 54.6875
L18.1094 46.1875
Q21.3438 51.125 25.7031 53.5625
Q30.0781 56 35.7969 56
Q45.2188 56 50.0469 50.1719
Q54.8906 44.3438 54.8906 33.0156" id="BitstreamVeraSans-Roman-6e"/>
      <path d="
M48.7812 52.5938
L48.7812 44.1875
Q44.9688 46.2969 41.1406 47.3438
Q37.3125 48.3906 33.4062 48.3906
Q24.6562 48.3906 19.8125 42.8438
Q14.9844 37.3125 14.9844 27.2969
Q14.9844 17.2812 19.8125 11.7344
Q24.6562 6.20312 33.4062 6.20312
Q37.3125 6.20312 41.1406 7.25
Q44.9688 8.29688 48.7812 10.4062
L48.7812 2.09375
Q45.0156 0.34375 40.9844 -0.53125
Q36.9688 -1.42188 32.4219 -1.42188
Q20.0625 -1.42188 12.7812 6.34375
Q5.51562 14.1094 5.51562 27.2969
Q5.51562 40.6719 12.8594 48.3281
Q20.2188 56 33.0156 56
Q37.1562 56 41.1094 55.1406
Q45.0625 54.2969 48.7812 52.5938" id="BitstreamVeraSans-Roman-63"/>
      <path d="
M9.42188 54.6875
L18.4062 54.6875
L18.4062 0
L9.42188 0
z

M9.42188 75.9844
L18.4062 75.9844
L18.4062 64.5938
L9.42188 64.5938
z
" id="BitstreamVeraSans-Roman-69"/>
      <path d="
M18.1094 8.20312
L18.1094 -20.7969
L9.07812 -20.7969
L9.07812 54.6875
L18.1094 54.6875
L18.1094 46.3906
Q20.9531 51.2656 25.2656 53.625
Q29.5938 56 35.5938 56
Q45.5625 56 51.7812 48.0938
Q58.0156 40.1875 58.0156 27.2969
Q58.0156 14.4062 51.7812 6.48438
Q45.5625 -1.42188 35.5938 -1.42188
Q29.5938 -1.42188 25.2656 0.953125
Q20.9531 3.32812 18.1094 8.20312
M48.6875 27.2969
Q48.6875 37.2031 44.6094 42.8438
Q40.5312 48.4844 33.4062 48.4844
Q26.2656 48.4844 22.1875 42.8438
Q18.1094 37.2031 18.1094 27.2969
Q18.1094 17.3906 22.1875 11.75
Q26.2656 6.10938 33.4062 6.10938
Q40.5312 6.10938 44.6094 11.75
Q48.6875 17.3906 48.6875 27.2969" id="BitstreamVeraSans-Roman-70"/>
      <path d="
M9.42188 75.9844
L18.4062 75.9844
L18.4062 0
L9.42188 0
z
" id="BitstreamVeraSans-Roman-6c"/>
      <path d="
M34.2812 27.4844
Q23.3906 27.4844 19.1875 25
Q14.9844 22.5156 14.9844 16.5
Q14.9844 11.7188 18.1406 8.90625
Q21.2969 6.10938 26.7031 6.10938
Q34.1875 6.10938 38.7031 11.4062
Q43.2188 16.7031 43.2188 25.4844
L43.2188 27.4844
z

M52.2031 31.2031
L52.2031 0
L43.2188 0
L43.2188 8.29688
Q40.1406 3.32812 35.5469 0.953125
Q30.9531 -1.42188 24.3125 -1.42188
Q15.9219 -1.42188 10.9531 3.29688
Q6 8.01562 6 15.9219
Q6 25.1406 12.1719 29.8281
Q18.3594 34.5156 30.6094 34.5156
L43.2188 34.5156
L43.2188 35.4062
Q43.2188 41.6094 39.1406 45
Q35.0625 48.3906 27.6875 48.3906
Q23 48.3906 18.5469 47.2656
Q14.1094 46.1406 10.0156 43.8906
L10.0156 52.2031
Q14.9375 54.1094 19.5781 55.0469
Q24.2188 56 28.6094 56
Q40.4844 56 46.3438 49.8438
Q52.2031 43.7031 52.2031 31.2031" id="BitstreamVeraSans-Roman-61"/>
      <path d="
M8.5 21.5781
L8.5 54.6875
L17.4844 54.6875
L17.4844 21.9219
Q17.4844 14.1562 20.5 10.2656
Q23.5312 6.39062 29.5938 6.39062
Q36.8594 6.39062 41.0781 11.0312
Q45.3125 15.6719 45.3125 23.6875
L45.3125 54.6875
L54.2969 54.6875
L54.2969 0
L45.3125 0
L45.3125 8.40625
Q42.0469 3.42188 37.7188 1
Q33.4062 -1.42188 27.6875 -1.42188
Q18.2656 -1.42188 13.375 4.4375
Q8.5 10.2969 8.5 21.5781" id="BitstreamVeraSans-Roman-75"/>
      <path d="
M41.1094 46.2969
Q39.5938 47.1719 37.8125 47.5781
Q36.0312 48 33.8906 48
Q26.2656 48 22.1875 43.0469
Q18.1094 38.0938 18.1094 28.8125
L18.1094 0
L9.07812 0
L9.07812 54.6875
L18.1094 54.6875
L18.1094 46.1875
Q20.9531 51.1719 25.4844 53.5781
Q30.0312 56 36.5312 56
Q37.4531 56 38.5781 55.875
Q39.7031 55.7656 41.0625 55.5156
z
" id="BitstreamVeraSans-Roman-72"/>
      <path d="
M48.6875 27.2969
Q48.6875 37.2031 44.6094 42.8438
Q40.5312 48.4844 33.4062 48.4844
Q26.2656 48.4844 22.1875 42.8438
Q18.1094 37.2031 18.1094 27.2969
Q18.1094 17.3906 22.1875 11.75
Q26.2656 6.10938 33.4062 6.10938
Q40.5312 6.10938 44.6094 11.75
Q48.6875 17.3906 48.6875 27.2969
M18.1094 46.3906
Q20.9531 51.2656 25.2656 53.625
Q29.5938 56 35.5938 56
Q45.5625 56 51.7812 48.0938
Q58.0156 40.1875 58.0156 27.2969
Q58.0156 14.4062 51.7812 6.48438
Q45.5625 -1.42188 35.5938 -1.42188
Q29.5938 -1.42188 25.2656 0.953125
Q20.9531 3.32812 18.1094 8.20312
L18.1094 0
L9.07812 0
L9.07812 75.9844
L18.1094 75.9844
z
" id="BitstreamVeraSans-Roman-62"/>
     </defs>
     <g transform="translate(45.174375 374.78625)rotate(-90.0)scale(0.12 -0.12)">
      <use xlink:href="#BitstreamVeraSans-Roman-70"/>
      <use x="63.4765625" xlink:href="#BitstreamVeraSans-Roman-61"/>
      <use x="124.755859375" xlink:href="#BitstreamVeraSans-Roman-72"/>
      <use x="165.869140625" xlink:href="#BitstreamVeraSans-Roman-74"/>
      <use x="205.078125" xlink:href="#BitstreamVeraSans-Roman-69"/>
      <use x="232.861328125" xlink:href="#BitstreamVeraSans-Roman-63"/>
      <use x="287.841796875" xlink:href="#BitstreamVeraSans-Roman-6c"/>
      <use x="315.625" xlink:href="#BitstreamVeraSans-Roman-65"/>
      <use x="377.1484375" xlink:href="#BitstreamVeraSans-Roman-20"/>
      <use x="408.935546875" xlink:href="#BitstreamVeraSans-Roman-6e"/>
      <use x="472.314453125" xlink:href="#BitstreamVeraSans-Roman-75"/>
      <use x="535.693359375" xlink:href="#BitstreamVeraSans-Roman-6d"/>
      <use x="633.10546875" xlink:href="#BitstreamVeraSans-Roman-62"/>
      <use x="696.58203125" xlink:href="#BitstreamVeraSans-Roman-65"/>
      <use x="758.10546875" xlink:href="#BitstreamVeraSans-Roman-72"/>
      <use x="799.21875" xlink:href="#BitstreamVeraSans-Roman-73"/>
     </g>
    </g>
   </g>
   <g id="legend_1">
    <g id="patch_7">
     <path d="
M721.468 340.462
L774.1 340.462
L774.1 307.538
L721.468 307.538
z
" style="fill:#ffffff;stroke:#000000;stroke-linejoin:miter;"/>
    </g>
    <g id="line2d_32">
     <path d="
M726.368 313.207
L736.168 313.207" style="fill:none;stroke:#ff0000;stroke-linecap:square;"/>
    </g>
    <g id="line2d_33"/>
    <g id="text_17">
     <!-- ATP el.0 -->
     <defs>
      <path d="
M10.6875 12.4062
L21 12.4062
L21 0
L10.6875 0
z
" id="BitstreamVeraSans-Roman-2e"/>
      <path d="
M19.6719 64.7969
L19.6719 37.4062
L32.0781 37.4062
Q38.9688 37.4062 42.7188 40.9688
Q46.4844 44.5312 46.4844 51.125
Q46.4844 57.6719 42.7188 61.2344
Q38.9688 64.7969 32.0781 64.7969
z

M9.8125 72.9062
L32.0781 72.9062
Q44.3438 72.9062 50.6094 67.3594
Q56.8906 61.8125 56.8906 51.125
Q56.8906 40.3281 50.6094 34.8125
Q44.3438 29.2969 32.0781 29.2969
L19.6719 29.2969
L19.6719 0
L9.8125 0
z
" id="BitstreamVeraSans-Roman-50"/>
      <path d="
M34.1875 63.1875
L20.7969 26.9062
L47.6094 26.9062
z

M28.6094 72.9062
L39.7969 72.9062
L67.5781 0
L57.3281 0
L50.6875 18.7031
L17.8281 18.7031
L11.1875 0
L0.78125 0
z
" id="BitstreamVeraSans-Roman-41"/>
      <path d="
M-0.296875 72.9062
L61.375 72.9062
L61.375 64.5938
L35.5 64.5938
L35.5 0
L25.5938 0
L25.5938 64.5938
L-0.296875 64.5938
z
" id="BitstreamVeraSans-Roman-54"/>
     </defs>
     <g transform="translate(743.86765625 315.656875)scale(0.07 -0.07)">
      <use xlink:href="#BitstreamVeraSans-Roman-41"/>
      <use x="60.658203125" xlink:href="#BitstreamVeraSans-Roman-54"/>
      <use x="121.7421875" xlink:href="#BitstreamVeraSans-Roman-50"/>
      <use x="182.044921875" xlink:href="#BitstreamVeraSans-Roman-20"/>
      <use x="213.83203125" xlink:href="#BitstreamVeraSans-Roman-65"/>
      <use x="275.35546875" xlink:href="#BitstreamVeraSans-Roman-6c"/>
      <use x="303.138671875" xlink:href="#BitstreamVeraSans-Roman-2e"/>
      <use x="334.92578125" xlink:href="#BitstreamVeraSans-Roman-30"/>
     </g>
    </g>
    <g id="line2d_34">
     <path d="
M726.368 323.482
L736.168 323.482" style="fill:none;stroke:#008000;stroke-linecap:square;"/>
    </g>
    <g id="line2d_35"/>
    <g id="text_18">
     <!-- ATP el.1 -->
     <g transform="translate(743.86765625 325.9315625)scale(0.07 -0.07)">
      <use xlink:href="#BitstreamVeraSans-Roman-41"/>
      <use x="60.658203125" xlink:href="#BitstreamVeraSans-Roman-54"/>
      <use x="121.7421875" xlink:href="#BitstreamVeraSans-Roman-50"/>
      <use x="182.044921875" xlink:href="#BitstreamVeraSans-Roman-20"/>
      <use x="213.83203125" xlink:href="#BitstreamVeraSans-Roman-65"/>
      <use x="275.35546875" xlink:href="#BitstreamVeraSans-Roman-6c"/>
      <use x="303.138671875" xlink:href="#BitstreamVeraSans-Roman-2e"/>
      <use x="334.92578125" xlink:href="#BitstreamVeraSans-Roman-31"/>
     </g>
    </g>
    <g id="line2d_36">
     <path d="
M726.368 333.756
L736.168 333.756" style="fill:none;stroke:#0000ff;stroke-linecap:square;"/>
    </g>
    <g id="line2d_37"/>
    <g id="text_19">
     <!-- ATP el.2 -->
     <g transform="translate(743.86765625 336.20625)scale(0.07 -0.07)">
      <use xlink:href="#BitstreamVeraSans-Roman-41"/>
      <use x="60.658203125" xlink:href="#BitstreamVeraSans-Roman-54"/>
      <use x="121.7421875" xlink:href="#BitstreamVeraSans-Roman-50"/>
      <use x="182.044921875" xlink:href="#BitstreamVeraSans-Roman-20"/>
      <use x="213.83203125" xlink:href="#BitstreamVeraSans-Roman-65"/>
      <use x="275.35546875" xlink:href="#BitstreamVeraSans-Roman-6c"/>
      <use x="303.138671875" xlink:href="#BitstreamVeraSans-Roman-2e"/>
      <use x="334.92578125" xlink:href="#BitstreamVeraSans-Roman-32"/>
     </g>
    </g>
   </g>
  </g>
 </g>
 <defs>
  <clipPath id="p7ceb695115">
   <rect height="518.4" width="669.6" x="108.0" y="64.8"/>
  </clipPath>
 </defs>
</svg>
