<?xml version="1.0" encoding="utf-8" standalone="no"?>
<!DOCTYPE svg PUBLIC "-//W3C//DTD SVG 1.1//EN"
  "http://www.w3.org/Graphics/SVG/1.1/DTD/svg11.dtd">
<!-- Created with matplotlib (http://matplotlib.org/) -->
<svg height="648pt" version="1.1" viewBox="0 0 864 648" width="864pt" xmlns="http://www.w3.org/2000/svg" xmlns:xlink="http://www.w3.org/1999/xlink">
 <defs>
  <style type="text/css">
*{stroke-linecap:butt;stroke-linejoin:round;}
  </style>
 </defs>
 <g id="figure_1">
  <g id="patch_1">
   <path d="
M0 648
L864 648
L864 0
L0 0
z
" style="fill:#ffffff;"/>
  </g>
  <g id="axes_1">
   <g id="patch_2">
    <path d="
M108 583.2
L777.6 583.2
L777.6 64.8
L108 64.8
z
" style="fill:#ffffff;"/>
   </g>
   <g id="line2d_1">
    <path clip-path="url(#p7ceb695115)" d="
M108 583.2
L108.67 506.181
L109.339 483.223
L110.009 508.402
L110.678 520.251
L111.348 472.114
L112.018 512.105
L112.687 488.407
L113.357 511.365
L114.026 500.256
L114.696 453.6
L115.366 491.369
L116.035 409.906
L116.705 503.218
L117.374 493.591
L118.044 464.709
L118.714 468.411
L119.383 509.143
L120.053 486.926
L120.722 445.454
L121.392 491.369
L122.062 493.591
L122.731 498.034
L123.401 443.973
L124.07 520.251
L124.74 475.817
L125.41 469.152
L126.079 505.44
L126.749 419.534
L127.418 525.435
L128.088 436.567
L128.758 510.624
L129.427 506.921
L130.097 519.511
L130.766 510.624
L131.436 488.407
L132.106 350.661
L132.775 521.733
L134.114 312.891
L134.784 231.429
L135.454 229.947
L136.123 208.471
L136.793 223.282
L137.462 226.985
L138.132 288.453
L138.802 246.981
L139.471 256.608
L140.141 252.905
L140.81 245.499
L141.48 497.294
L142.15 413.609
L142.819 360.288
L143.489 467.671
L144.158 487.666
L144.828 496.553
L145.498 500.997
L146.167 513.586
L146.837 519.511
L147.506 511.365
L148.176 481.742
L148.846 489.147
L149.515 169.221
L150.185 224.763
L150.854 236.613
L151.524 199.584
L152.194 229.947
L152.863 237.353
L153.533 218.839
L154.202 269.938
L154.872 244.759
L155.542 209.952
L156.211 369.915
L156.881 497.294
L157.55 457.303
L158.89 490.629
L159.559 412.128
L160.229 399.538
L160.898 493.591
L161.568 502.478
L162.238 475.077
L162.907 482.482
L163.577 471.374
L164.246 452.119
L164.916 523.214
L165.586 417.312
L166.255 202.546
L166.925 304.005
L167.594 238.834
L168.264 261.051
L168.934 376.581
L170.273 227.726
L170.942 243.278
L171.612 231.429
L172.282 196.622
L172.951 188.475
L173.621 295.118
L174.29 244.759
L174.96 223.282
L175.63 238.094
L176.299 223.282
L176.969 232.169
L177.638 239.575
L178.308 219.579
L178.978 221.061
L179.647 312.891
L180.317 180.329
L180.986 210.693
L181.656 271.419
L182.326 216.617
L182.995 292.155
L183.665 214.395
L184.334 231.429
L185.004 274.382
L185.674 446.194
L187.013 526.917
L187.682 485.445
L188.352 410.647
L189.022 506.181
L189.691 510.624
L190.361 472.855
L191.03 515.808
L191.7 492.85
L193.039 243.278
L193.709 224.023
L194.378 271.419
L195.048 276.603
L195.718 244.018
L196.387 481.001
L197.057 374.359
L197.726 238.834
L198.396 204.768
L199.066 272.16
L199.735 184.773
L200.405 201.065
L201.074 275.863
L201.744 218.839
L202.414 221.801
L203.083 296.599
L203.753 207.73
L204.422 193.659
L205.092 482.482
L205.762 478.039
L206.431 495.813
L207.101 507.662
L207.77 509.143
L208.44 486.185
L209.11 484.704
L209.779 491.369
L210.449 486.926
L211.118 502.478
L211.788 479.52
L212.458 247.721
L213.127 232.169
L213.797 183.291
L214.466 390.651
L215.136 266.235
L215.806 209.211
L216.475 320.297
L217.145 475.817
L217.814 475.077
L218.484 470.633
L219.154 505.44
L219.823 464.709
L220.493 516.549
L221.162 476.558
L221.832 506.181
L222.502 485.445
L223.171 489.888
L223.841 510.624
L224.51 504.699
L225.18 495.813
L225.85 488.407
L226.519 513.586
L227.858 484.704
L228.528 515.067
L229.198 496.553
L229.867 494.331
L230.537 284.009
L231.206 355.104
L231.876 345.477
L232.546 227.726
L233.215 336.59
L233.885 288.453
L234.554 189.957
L235.224 169.961
L235.894 204.768
L236.563 292.896
L237.233 244.018
L237.902 387.689
L238.572 498.034
L239.242 518.03
L239.911 495.072
L240.581 456.562
L241.25 465.449
L241.92 518.03
L242.59 462.487
L243.259 455.822
L243.929 235.872
L244.598 495.813
L245.268 463.227
L245.938 510.624
L246.607 472.855
L247.277 502.478
L247.946 495.813
L248.616 427.68
L249.286 482.482
L249.955 458.043
L250.625 457.303
L251.294 466.93
L251.964 421.755
L252.634 503.218
L253.303 489.888
L253.973 517.289
L254.642 506.181
L255.312 458.043
L255.982 445.454
L256.651 406.203
L257.321 468.411
L257.99 487.666
L258.66 501.737
L259.33 321.038
L259.999 243.278
L260.669 278.825
L261.338 184.032
L262.008 340.293
L263.347 244.759
L264.017 249.202
L264.686 201.806
L265.356 282.528
L266.026 238.094
L266.695 281.787
L267.365 281.047
L268.034 279.566
L268.704 181.81
L269.374 155.15
L270.043 278.825
L270.713 261.792
L271.382 367.694
L272.052 233.65
L273.391 201.806
L274.061 273.641
L274.73 259.57
L275.4 292.896
L276.07 275.122
L276.739 459.525
L277.409 455.822
L278.078 324
L278.748 230.688
L280.087 254.386
L280.757 225.504
L281.426 213.655
L282.096 274.382
L282.766 286.231
L283.435 258.089
L284.105 236.613
L284.774 210.693
L285.444 250.683
L286.114 252.905
L286.783 166.258
L287.453 258.089
L288.122 206.249
L288.792 221.801
L289.462 220.32
L290.131 486.185
L290.801 463.227
L291.47 489.888
L292.14 494.331
L292.81 491.369
L293.479 456.562
L294.149 492.11
L294.818 477.298
L295.488 496.553
L296.158 477.298
L296.827 497.294
L297.497 509.143
L298.166 500.256
L298.836 488.407
L299.506 471.374
L300.175 503.959
L300.845 486.185
L301.514 481.001
L302.184 487.666
L302.854 437.307
L303.523 476.558
L304.193 474.336
L304.862 509.883
L305.532 523.214
L306.202 421.755
L306.871 500.256
L307.541 500.256
L308.21 495.072
L308.88 466.93
L309.55 512.105
L310.219 489.888
L310.889 463.227
L311.558 494.331
L312.228 501.737
L312.898 504.699
L313.567 498.775
L314.237 490.629
L314.906 478.779
L315.576 498.775
L316.246 235.872
L316.915 228.466
L317.585 231.429
L318.924 181.07
L320.263 262.533
L320.933 257.349
L321.602 250.683
L322.272 208.471
L322.942 275.863
L323.611 260.311
L324.281 283.269
L325.62 209.952
L326.29 486.926
L326.959 488.407
L327.629 450.638
L328.298 459.525
L328.968 503.218
L329.638 495.072
L330.307 346.217
L330.977 280.306
L331.646 498.775
L332.316 489.888
L332.986 490.629
L333.655 454.341
L334.325 503.959
L334.994 471.374
L335.664 456.562
L336.334 510.624
L337.003 506.921
L337.673 461.006
L338.342 469.152
L339.012 475.817
L339.682 222.542
L340.351 281.047
L341.021 455.822
L341.69 199.584
L342.36 476.558
L343.03 516.549
L343.699 523.954
L344.369 467.671
L345.038 506.921
L345.708 409.166
L346.378 376.581
L347.047 192.178
L347.717 263.273
L348.386 277.344
L349.056 511.365
L351.065 475.817
L351.734 507.662
L352.404 488.407
L353.074 512.105
L353.743 482.482
L354.413 512.105
L355.082 485.445
L355.752 289.193
L356.422 333.627
L357.091 200.325
L357.761 480.261
L358.43 515.808
L359.1 475.817
L359.77 517.289
L360.439 516.549
L361.778 468.411
L362.448 502.478
L363.118 495.813
L363.787 506.181
L364.457 494.331
L365.126 497.294
L365.796 518.77
L366.466 487.666
L367.135 504.699
L367.805 512.846
L368.474 480.261
L369.814 494.331
L370.483 497.294
L371.153 517.289
L371.822 472.855
L372.492 517.289
L373.162 506.921
L373.831 498.775
L374.501 498.775
L375.17 521.733
L375.84 486.926
L376.51 423.237
L377.179 458.043
L378.518 487.666
L379.188 485.445
L379.858 449.897
L380.527 508.402
L381.197 494.331
L381.866 512.846
L382.536 466.19
L383.875 514.327
L384.545 479.52
L385.214 510.624
L385.884 487.666
L386.554 481.742
L387.223 496.553
L387.893 478.779
L388.562 434.345
L389.232 501.737
L389.902 441.01
L390.571 442.491
L391.241 506.921
L391.91 506.181
L392.58 518.77
L393.25 500.256
L393.919 419.534
L394.589 518.03
L395.258 438.048
L395.928 483.963
L396.598 511.365
L397.937 467.671
L398.606 476.558
L399.276 507.662
L399.946 448.416
L400.615 489.888
L401.285 481.001
L401.954 443.232
L402.624 498.034
L403.294 467.671
L403.963 483.963
L404.633 518.03
L405.302 495.813
L405.972 199.584
L406.642 235.872
L407.311 238.094
L407.981 382.505
L408.65 234.391
L409.32 322.519
L409.99 230.688
L410.659 425.458
L411.329 489.888
L411.998 520.992
L413.338 486.926
L414.007 497.294
L414.677 520.992
L416.016 467.671
L416.686 492.85
L417.355 495.813
L418.025 454.341
L418.694 361.769
L419.364 497.294
L420.034 485.445
L420.703 529.138
L421.373 475.817
L422.042 493.591
L422.712 505.44
L423.382 494.331
L424.051 490.629
L424.721 528.398
L425.39 501.737
L426.06 495.813
L426.73 496.553
L427.399 498.034
L428.069 461.746
L428.738 461.746
L429.408 484.704
L430.078 479.52
L430.747 506.181
L431.417 468.411
L432.086 476.558
L432.756 463.968
L433.426 513.586
L434.095 449.157
L434.765 458.043
L435.434 204.768
L436.104 214.395
L436.774 254.386
L437.443 301.783
L438.113 463.227
L438.782 503.218
L439.452 496.553
L440.122 500.256
L440.791 465.449
L441.461 486.185
L442.13 420.274
L442.8 491.369
L443.47 516.549
L444.809 466.93
L445.478 515.808
L446.148 486.185
L446.818 484.704
L447.487 495.072
L448.157 513.586
L448.826 497.294
L449.496 503.959
L450.166 461.006
L451.505 472.114
L452.174 501.737
L452.844 515.808
L453.514 512.105
L454.183 490.629
L454.853 500.997
L455.522 480.261
L456.192 497.294
L456.862 479.52
L457.531 510.624
L458.201 496.553
L458.87 472.855
L459.54 441.751
L460.21 526.176
L460.879 474.336
L461.549 494.331
L462.218 489.147
L462.888 472.114
L463.558 479.52
L464.227 478.039
L464.897 493.591
L465.566 499.515
L466.236 508.402
L466.906 340.293
L467.575 486.185
L468.245 496.553
L468.914 492.11
L469.584 510.624
L470.254 221.801
L470.923 310.67
L471.593 481.001
L472.262 503.959
L472.932 491.369
L473.602 481.001
L474.271 485.445
L474.941 274.382
L476.28 198.103
L476.95 209.211
L477.619 210.693
L478.289 283.269
L478.958 270.679
L479.628 255.867
L480.298 264.014
L480.967 315.854
L481.637 191.438
L482.306 218.098
L482.976 290.674
L483.646 195.881
L484.315 411.387
L484.985 139.598
L485.654 186.254
L486.324 214.395
L486.994 253.646
L487.663 207.73
L488.333 474.336
L489.002 383.246
L489.672 474.336
L490.342 508.402
L491.011 481.742
L491.681 503.218
L492.35 509.883
L493.02 483.963
L493.69 490.629
L494.359 241.797
L495.029 278.085
L495.698 219.579
L496.368 334.368
L497.038 173.664
L497.707 509.883
L498.377 478.039
L499.046 517.289
L499.716 515.067
L500.386 500.997
L501.055 523.214
L501.725 469.152
L502.394 468.411
L503.064 514.327
L503.734 489.888
L504.403 460.265
L505.073 515.067
L505.742 520.992
L506.412 495.072
L507.082 510.624
L507.751 395.095
L508.421 237.353
L509.09 298.08
L509.76 293.637
L510.43 226.245
L511.099 204.768
L511.769 226.985
L512.438 226.245
L513.108 249.202
L513.778 288.453
L514.447 140.338
L515.117 226.985
L516.456 247.721
L517.126 204.768
L517.795 206.99
L518.465 192.919
L519.134 185.513
L519.804 201.806
L520.474 239.575
L521.143 289.193
L521.813 420.274
L522.482 253.646
L523.152 283.269
L523.822 411.387
L524.491 235.872
L525.161 257.349
L525.83 217.358
L526.5 273.641
L527.17 261.792
L527.839 266.235
L528.509 212.914
L529.178 237.353
L529.848 214.395
L530.518 371.397
L531.187 243.278
L531.857 235.131
L532.526 216.617
L533.196 204.768
L533.866 221.061
L534.535 219.579
L535.205 434.345
L535.874 427.68
L536.544 489.147
L537.214 447.675
L537.883 455.081
L538.553 475.077
L539.222 498.775
L539.892 465.449
L540.562 516.549
L541.231 487.666
L541.901 490.629
L542.57 492.85
L543.24 505.44
L543.91 520.251
L544.579 489.888
L545.249 449.897
L545.918 474.336
L546.588 509.143
L547.258 461.746
L548.597 501.737
L549.266 488.407
L549.936 437.307
L550.606 514.327
L551.275 474.336
L551.945 515.808
L552.614 201.065
L553.284 252.165
L553.954 231.429
L554.623 389.17
L555.293 232.91
L555.962 286.231
L556.632 134.414
L557.302 261.051
L557.971 204.027
L558.641 210.693
L559.31 242.537
L559.98 163.296
L560.65 254.386
L561.319 259.57
L561.989 212.914
L562.658 189.216
L563.328 211.433
L563.998 204.768
L564.667 297.339
L565.337 199.584
L566.006 327.703
L566.676 286.971
L567.346 256.608
L568.015 309.189
L568.685 224.763
L569.354 224.763
L570.024 498.775
L570.694 491.369
L571.363 520.992
L572.033 486.926
L572.702 506.181
L573.372 486.926
L574.042 498.034
L574.711 475.077
L575.381 515.067
L576.05 500.256
L576.72 447.675
L577.39 483.223
L578.059 458.784
L578.729 500.997
L579.398 484.704
L580.068 505.44
L580.738 504.699
L581.407 486.185
L582.077 501.737
L582.746 513.586
L583.416 471.374
L584.086 414.35
L584.755 492.11
L585.425 508.402
L586.094 473.595
L586.764 483.223
L587.434 502.478
L588.103 481.001
L588.773 498.034
L589.442 520.251
L590.112 490.629
L590.782 469.893
L591.451 495.813
L592.121 481.742
L592.79 488.407
L593.46 521.733
L594.13 494.331
L594.799 485.445
L595.469 499.515
L596.138 527.657
L596.808 500.256
L597.478 446.194
L598.147 519.511
L598.817 455.081
L599.486 496.553
L600.156 507.662
L600.826 499.515
L601.495 503.218
L602.165 522.473
L602.834 512.846
L603.504 481.001
L604.174 480.261
L604.843 508.402
L605.513 504.699
L606.182 489.888
L606.852 488.407
L607.522 481.742
L608.191 507.662
L608.861 507.662
L609.53 513.586
L610.2 483.963
L610.87 509.143
L611.539 497.294
L612.209 465.449
L612.878 490.629
L613.548 498.034
L614.218 434.345
L614.887 518.03
L615.557 498.034
L616.226 498.034
L616.896 452.119
L617.566 486.185
L618.235 504.699
L618.905 509.143
L619.574 383.246
L620.244 211.433
L620.914 429.902
L621.583 206.99
L622.253 230.688
L622.922 284.009
L623.592 473.595
L624.262 475.817
L624.931 506.921
L625.601 465.449
L626.27 526.176
L626.94 500.997
L627.61 498.034
L628.279 483.963
L628.949 515.067
L629.618 445.454
L630.288 471.374
L630.958 491.369
L631.627 497.294
L632.297 487.666
L632.966 523.214
L633.636 523.214
L634.306 498.775
L634.975 518.77
L635.645 481.742
L636.314 472.114
L636.984 500.997
L637.654 481.742
L638.323 479.52
L638.993 514.327
L639.662 516.549
L640.332 504.699
L641.002 478.779
L641.671 509.143
L642.341 512.105
L643.01 514.327
L643.68 504.699
L644.35 474.336
L645.019 517.289
L645.689 509.143
L646.358 475.817
L647.028 468.411
L647.698 502.478
L648.367 486.926
L649.037 511.365
L649.706 531.36
L650.376 492.85
L651.046 427.68
L651.715 455.081
L652.385 465.449
L653.054 520.251
L653.724 500.997
L654.394 493.591
L655.063 518.77
L655.733 473.595
L656.402 447.675
L657.072 491.369
L657.742 470.633
L658.411 478.039
L659.081 498.034
L659.75 503.959
L660.42 500.997
L661.09 523.954
L661.759 512.846
L662.429 492.85
L663.098 498.775
L663.768 483.223
L664.438 494.331
L665.107 499.515
L665.777 481.742
L666.446 446.194
L667.116 455.822
L667.786 489.888
L668.455 498.034
L669.125 507.662
L669.794 513.586
L670.464 500.997
L671.134 515.067
L671.803 461.746
L672.473 493.591
L673.142 509.883
L673.812 489.147
L674.482 495.813
L675.151 493.591
L675.821 489.147
L676.49 498.034
L677.16 518.03
L677.83 443.973
L678.499 491.369
L679.169 474.336
L679.838 214.395
L680.508 266.235
L681.178 284.009
L681.847 206.99
L682.517 245.499
L683.186 385.467
L683.856 466.93
L684.526 501.737
L685.195 489.147
L685.865 478.779
L686.534 516.549
L687.204 500.997
L687.874 493.591
L688.543 515.067
L689.213 505.44
L689.882 485.445
L690.552 523.954
L691.222 503.218
L691.891 429.161
L692.561 489.147
L693.23 477.298
L693.9 369.915
L694.57 504.699
L695.239 449.897
L695.909 495.813
L696.578 477.298
L697.248 486.185
L697.918 490.629
L698.587 234.391
L699.257 241.797
L699.926 284.75
L701.266 482.482
L701.935 495.072
L702.605 483.963
L703.274 499.515
L703.944 451.378
L704.614 495.072
L705.283 490.629
L705.953 505.44
L706.622 452.859
L707.962 484.704
L708.631 464.709
L709.301 516.549
L709.97 479.52
L710.64 505.44
L711.31 438.789
L711.979 503.959
L712.649 452.119
L713.318 493.591
L713.988 503.218
L714.658 451.378
L715.327 495.813
L715.997 487.666
L716.666 481.742
L717.336 442.491
L718.006 500.256
L718.675 513.586
L719.345 505.44
L720.014 507.662
L720.684 507.662
L721.354 504.699
L722.023 478.779
L722.693 418.053
L723.362 217.358
L724.032 212.914
L724.702 283.269
L725.371 505.44
L726.041 498.034
L726.71 398.057
L727.38 250.683
L728.05 207.73
L728.719 199.584
L729.389 278.825
L730.058 215.877
L730.728 318.075
L731.398 262.533
L732.737 275.122
L733.406 304.745
L734.076 250.683
L734.746 319.557
L735.415 257.349
L736.085 421.015
L736.754 476.558
L737.424 449.157
L738.094 500.997
L738.763 478.039
L739.433 535.803
L740.102 503.959
L740.772 519.511
L741.442 468.411
L742.111 489.888
L742.781 527.657
L743.45 482.482
L744.12 476.558
L744.79 515.808
L745.459 518.03
L746.129 417.312
L746.798 456.562
L747.468 486.185
L748.138 494.331
L748.807 500.997
L749.477 522.473
L750.146 212.174
L750.816 412.128
L751.486 498.034
L752.155 502.478
L752.825 491.369
L753.494 457.303
L754.164 473.595
L754.834 450.638
L755.503 367.694
L756.842 483.223
L757.512 492.85
L758.182 515.067
L758.851 481.001
L759.521 470.633
L760.19 477.298
L760.86 487.666
L761.53 501.737
L762.199 408.425
L762.869 463.968
L763.538 502.478
L764.208 469.893
L764.878 470.633
L765.547 511.365
L766.217 499.515
L766.886 516.549
L767.556 486.185
L768.226 489.147
L769.565 512.846
L770.234 506.181
L770.904 475.077
L771.574 450.638
L772.243 492.11
L772.913 515.067
L773.582 491.369
L774.252 508.402
L774.922 505.44
L775.591 466.19
L776.261 490.629
L776.93 501.737
L777.6 418.053
L777.6 418.053" style="fill:none;stroke:#ff0000;stroke-linecap:square;"/>
   </g>
   <g id="patch_3">
    <path d="
M108 583.2
L108 64.8" style="fill:none;stroke:#000000;stroke-linecap:square;stroke-linejoin:miter;"/>
   </g>
   <g id="patch_4">
    <path d="
M777.6 583.2
L777.6 64.8" style="fill:none;stroke:#000000;stroke-linecap:square;stroke-linejoin:miter;"/>
   </g>
   <g id="patch_5">
    <path d="
M108 64.8
L777.6 64.8" style="fill:none;stroke:#000000;stroke-linecap:square;stroke-linejoin:miter;"/>
   </g>
   <g id="patch_6">
    <path d="
M108 583.2
L777.6 583.2" style="fill:none;stroke:#000000;stroke-linecap:square;stroke-linejoin:miter;"/>
   </g>
   <g id="matplotlib.axis_1">
    <g id="xtick_1">
     <g id="line2d_2">
      <defs>
       <path d="
M0 0
L0 -4" id="mc7db9fdffb" style="stroke:#000000;stroke-width:0.5;"/>
      </defs>
      <g>
       <use style="stroke:#000000;stroke-width:0.5;" x="108.0" xlink:href="#mc7db9fdffb" y="583.2"/>
      </g>
     </g>
     <g id="line2d_3">
      <defs>
       <path d="
M0 0
L0 4" id="m5a7d422ac3" style="stroke:#000000;stroke-width:0.5;"/>
      </defs>
      <g>
       <use style="stroke:#000000;stroke-width:0.5;" x="108.0" xlink:href="#m5a7d422ac3" y="64.8"/>
      </g>
     </g>
     <g id="text_1">
      <!-- 0 -->
      <defs>
       <path d="
M31.7812 66.4062
Q24.1719 66.4062 20.3281 58.9062
Q16.5 51.4219 16.5 36.375
Q16.5 21.3906 20.3281 13.8906
Q24.1719 6.39062 31.7812 6.39062
Q39.4531 6.39062 43.2812 13.8906
Q47.125 21.3906 47.125 36.375
Q47.125 51.4219 43.2812 58.9062
Q39.4531 66.4062 31.7812 66.4062
M31.7812 74.2188
Q44.0469 74.2188 50.5156 64.5156
Q56.9844 54.8281 56.9844 36.375
Q56.9844 17.9688 50.5156 8.26562
Q44.0469 -1.42188 31.7812 -1.42188
Q19.5312 -1.42188 13.0625 8.26562
Q6.59375 17.9688 6.59375 36.375
Q6.59375 54.8281 13.0625 64.5156
Q19.5312 74.2188 31.7812 74.2188" id="BitstreamVeraSans-Roman-30"/>
      </defs>
      <g transform="translate(104.9765625 596.318125)scale(0.12 -0.12)">
       <use xlink:href="#BitstreamVeraSans-Roman-30"/>
      </g>
     </g>
    </g>
    <g id="xtick_2">
     <g id="line2d_4">
      <g>
       <use style="stroke:#000000;stroke-width:0.5;" x="241.92" xlink:href="#mc7db9fdffb" y="583.2"/>
      </g>
     </g>
     <g id="line2d_5">
      <g>
       <use style="stroke:#000000;stroke-width:0.5;" x="241.92" xlink:href="#m5a7d422ac3" y="64.8"/>
      </g>
     </g>
     <g id="text_2">
      <!-- 200 -->
      <defs>
       <path d="
M19.1875 8.29688
L53.6094 8.29688
L53.6094 0
L7.32812 0
L7.32812 8.29688
Q12.9375 14.1094 22.625 23.8906
Q32.3281 33.6875 34.8125 36.5312
Q39.5469 41.8438 41.4219 45.5312
Q43.3125 49.2188 43.3125 52.7812
Q43.3125 58.5938 39.2344 62.25
Q35.1562 65.9219 28.6094 65.9219
Q23.9688 65.9219 18.8125 64.3125
Q13.6719 62.7031 7.8125 59.4219
L7.8125 69.3906
Q13.7656 71.7812 18.9375 73
Q24.125 74.2188 28.4219 74.2188
Q39.75 74.2188 46.4844 68.5469
Q53.2188 62.8906 53.2188 53.4219
Q53.2188 48.9219 51.5312 44.8906
Q49.8594 40.875 45.4062 35.4062
Q44.1875 33.9844 37.6406 27.2188
Q31.1094 20.4531 19.1875 8.29688" id="BitstreamVeraSans-Roman-32"/>
      </defs>
      <g transform="translate(231.305625 596.318125)scale(0.12 -0.12)">
       <use xlink:href="#BitstreamVeraSans-Roman-32"/>
       <use x="63.623046875" xlink:href="#BitstreamVeraSans-Roman-30"/>
       <use x="127.24609375" xlink:href="#BitstreamVeraSans-Roman-30"/>
      </g>
     </g>
    </g>
    <g id="xtick_3">
     <g id="line2d_6">
      <g>
       <use style="stroke:#000000;stroke-width:0.5;" x="375.84" xlink:href="#mc7db9fdffb" y="583.2"/>
      </g>
     </g>
     <g id="line2d_7">
      <g>
       <use style="stroke:#000000;stroke-width:0.5;" x="375.84" xlink:href="#m5a7d422ac3" y="64.8"/>
      </g>
     </g>
     <g id="text_3">
      <!-- 400 -->
      <defs>
       <path d="
M37.7969 64.3125
L12.8906 25.3906
L37.7969 25.3906
z

M35.2031 72.9062
L47.6094 72.9062
L47.6094 25.3906
L58.0156 25.3906
L58.0156 17.1875
L47.6094 17.1875
L47.6094 0
L37.7969 0
L37.7969 17.1875
L4.89062 17.1875
L4.89062 26.7031
z
" id="BitstreamVeraSans-Roman-34"/>
      </defs>
      <g transform="translate(365.079375 596.318125)scale(0.12 -0.12)">
       <use xlink:href="#BitstreamVeraSans-Roman-34"/>
       <use x="63.623046875" xlink:href="#BitstreamVeraSans-Roman-30"/>
       <use x="127.24609375" xlink:href="#BitstreamVeraSans-Roman-30"/>
      </g>
     </g>
    </g>
    <g id="xtick_4">
     <g id="line2d_8">
      <g>
       <use style="stroke:#000000;stroke-width:0.5;" x="509.76" xlink:href="#mc7db9fdffb" y="583.2"/>
      </g>
     </g>
     <g id="line2d_9">
      <g>
       <use style="stroke:#000000;stroke-width:0.5;" x="509.76" xlink:href="#m5a7d422ac3" y="64.8"/>
      </g>
     </g>
     <g id="text_4">
      <!-- 600 -->
      <defs>
       <path d="
M33.0156 40.375
Q26.375 40.375 22.4844 35.8281
Q18.6094 31.2969 18.6094 23.3906
Q18.6094 15.5312 22.4844 10.9531
Q26.375 6.39062 33.0156 6.39062
Q39.6562 6.39062 43.5312 10.9531
Q47.4062 15.5312 47.4062 23.3906
Q47.4062 31.2969 43.5312 35.8281
Q39.6562 40.375 33.0156 40.375
M52.5938 71.2969
L52.5938 62.3125
Q48.875 64.0625 45.0938 64.9844
Q41.3125 65.9219 37.5938 65.9219
Q27.8281 65.9219 22.6719 59.3281
Q17.5312 52.7344 16.7969 39.4062
Q19.6719 43.6562 24.0156 45.9219
Q28.375 48.1875 33.5938 48.1875
Q44.5781 48.1875 50.9531 41.5156
Q57.3281 34.8594 57.3281 23.3906
Q57.3281 12.1562 50.6875 5.35938
Q44.0469 -1.42188 33.0156 -1.42188
Q20.3594 -1.42188 13.6719 8.26562
Q6.98438 17.9688 6.98438 36.375
Q6.98438 53.6562 15.1875 63.9375
Q23.3906 74.2188 37.2031 74.2188
Q40.9219 74.2188 44.7031 73.4844
Q48.4844 72.75 52.5938 71.2969" id="BitstreamVeraSans-Roman-36"/>
      </defs>
      <g transform="translate(499.125 596.318125)scale(0.12 -0.12)">
       <use xlink:href="#BitstreamVeraSans-Roman-36"/>
       <use x="63.623046875" xlink:href="#BitstreamVeraSans-Roman-30"/>
       <use x="127.24609375" xlink:href="#BitstreamVeraSans-Roman-30"/>
      </g>
     </g>
    </g>
    <g id="xtick_5">
     <g id="line2d_10">
      <g>
       <use style="stroke:#000000;stroke-width:0.5;" x="643.68" xlink:href="#mc7db9fdffb" y="583.2"/>
      </g>
     </g>
     <g id="line2d_11">
      <g>
       <use style="stroke:#000000;stroke-width:0.5;" x="643.68" xlink:href="#m5a7d422ac3" y="64.8"/>
      </g>
     </g>
     <g id="text_5">
      <!-- 800 -->
      <defs>
       <path d="
M31.7812 34.625
Q24.75 34.625 20.7188 30.8594
Q16.7031 27.0938 16.7031 20.5156
Q16.7031 13.9219 20.7188 10.1562
Q24.75 6.39062 31.7812 6.39062
Q38.8125 6.39062 42.8594 10.1719
Q46.9219 13.9688 46.9219 20.5156
Q46.9219 27.0938 42.8906 30.8594
Q38.875 34.625 31.7812 34.625
M21.9219 38.8125
Q15.5781 40.375 12.0312 44.7188
Q8.5 49.0781 8.5 55.3281
Q8.5 64.0625 14.7188 69.1406
Q20.9531 74.2188 31.7812 74.2188
Q42.6719 74.2188 48.875 69.1406
Q55.0781 64.0625 55.0781 55.3281
Q55.0781 49.0781 51.5312 44.7188
Q48 40.375 41.7031 38.8125
Q48.8281 37.1562 52.7969 32.3125
Q56.7812 27.4844 56.7812 20.5156
Q56.7812 9.90625 50.3125 4.23438
Q43.8438 -1.42188 31.7812 -1.42188
Q19.7344 -1.42188 13.25 4.23438
Q6.78125 9.90625 6.78125 20.5156
Q6.78125 27.4844 10.7812 32.3125
Q14.7969 37.1562 21.9219 38.8125
M18.3125 54.3906
Q18.3125 48.7344 21.8438 45.5625
Q25.3906 42.3906 31.7812 42.3906
Q38.1406 42.3906 41.7188 45.5625
Q45.3125 48.7344 45.3125 54.3906
Q45.3125 60.0625 41.7188 63.2344
Q38.1406 66.4062 31.7812 66.4062
Q25.3906 66.4062 21.8438 63.2344
Q18.3125 60.0625 18.3125 54.3906" id="BitstreamVeraSans-Roman-38"/>
      </defs>
      <g transform="translate(633.0328125 596.318125)scale(0.12 -0.12)">
       <use xlink:href="#BitstreamVeraSans-Roman-38"/>
       <use x="63.623046875" xlink:href="#BitstreamVeraSans-Roman-30"/>
       <use x="127.24609375" xlink:href="#BitstreamVeraSans-Roman-30"/>
      </g>
     </g>
    </g>
    <g id="xtick_6">
     <g id="line2d_12">
      <g>
       <use style="stroke:#000000;stroke-width:0.5;" x="777.6" xlink:href="#mc7db9fdffb" y="583.2"/>
      </g>
     </g>
     <g id="line2d_13">
      <g>
       <use style="stroke:#000000;stroke-width:0.5;" x="777.6" xlink:href="#m5a7d422ac3" y="64.8"/>
      </g>
     </g>
     <g id="text_6">
      <!-- 1000 -->
      <defs>
       <path d="
M12.4062 8.29688
L28.5156 8.29688
L28.5156 63.9219
L10.9844 60.4062
L10.9844 69.3906
L28.4219 72.9062
L38.2812 72.9062
L38.2812 8.29688
L54.3906 8.29688
L54.3906 0
L12.4062 0
z
" id="BitstreamVeraSans-Roman-31"/>
      </defs>
      <g transform="translate(763.3875 596.318125)scale(0.12 -0.12)">
       <use xlink:href="#BitstreamVeraSans-Roman-31"/>
       <use x="63.623046875" xlink:href="#BitstreamVeraSans-Roman-30"/>
       <use x="127.24609375" xlink:href="#BitstreamVeraSans-Roman-30"/>
       <use x="190.869140625" xlink:href="#BitstreamVeraSans-Roman-30"/>
      </g>
     </g>
    </g>
    <g id="text_7">
     <!-- t / ms -->
     <defs>
      <path d="
M52 44.1875
Q55.375 50.25 60.0625 53.125
Q64.75 56 71.0938 56
Q79.6406 56 84.2812 50.0156
Q88.9219 44.0469 88.9219 33.0156
L88.9219 0
L79.8906 0
L79.8906 32.7188
Q79.8906 40.5781 77.0938 44.375
Q74.3125 48.1875 68.6094 48.1875
Q61.625 48.1875 57.5625 43.5469
Q53.5156 38.9219 53.5156 30.9062
L53.5156 0
L44.4844 0
L44.4844 32.7188
Q44.4844 40.625 41.7031 44.4062
Q38.9219 48.1875 33.1094 48.1875
Q26.2188 48.1875 22.1562 43.5312
Q18.1094 38.875 18.1094 30.9062
L18.1094 0
L9.07812 0
L9.07812 54.6875
L18.1094 54.6875
L18.1094 46.1875
Q21.1875 51.2188 25.4844 53.6094
Q29.7812 56 35.6875 56
Q41.6562 56 45.8281 52.9688
Q50 49.9531 52 44.1875" id="BitstreamVeraSans-Roman-6d"/>
      <path d="
M18.3125 70.2188
L18.3125 54.6875
L36.8125 54.6875
L36.8125 47.7031
L18.3125 47.7031
L18.3125 18.0156
Q18.3125 11.3281 20.1406 9.42188
Q21.9688 7.51562 27.5938 7.51562
L36.8125 7.51562
L36.8125 0
L27.5938 0
Q17.1875 0 13.2344 3.875
Q9.28125 7.76562 9.28125 18.0156
L9.28125 47.7031
L2.6875 47.7031
L2.6875 54.6875
L9.28125 54.6875
L9.28125 70.2188
z
" id="BitstreamVeraSans-Roman-74"/>
      <path d="
M25.3906 72.9062
L33.6875 72.9062
L8.29688 -9.28125
L0 -9.28125
z
" id="BitstreamVeraSans-Roman-2f"/>
      <path id="BitstreamVeraSans-Roman-20"/>
      <path d="
M44.2812 53.0781
L44.2812 44.5781
Q40.4844 46.5312 36.375 47.5
Q32.2812 48.4844 27.875 48.4844
Q21.1875 48.4844 17.8438 46.4375
Q14.5 44.3906 14.5 40.2812
Q14.5 37.1562 16.8906 35.375
Q19.2812 33.5938 26.5156 31.9844
L29.5938 31.2969
Q39.1562 29.25 43.1875 25.5156
Q47.2188 21.7812 47.2188 15.0938
Q47.2188 7.46875 41.1875 3.01562
Q35.1562 -1.42188 24.6094 -1.42188
Q20.2188 -1.42188 15.4531 -0.5625
Q10.6875 0.296875 5.42188 2
L5.42188 11.2812
Q10.4062 8.6875 15.2344 7.39062
Q20.0625 6.10938 24.8125 6.10938
Q31.1562 6.10938 34.5625 8.28125
Q37.9844 10.4531 37.9844 14.4062
Q37.9844 18.0625 35.5156 20.0156
Q33.0625 21.9688 24.7031 23.7812
L21.5781 24.5156
Q13.2344 26.2656 9.51562 29.9062
Q5.8125 33.5469 5.8125 39.8906
Q5.8125 47.6094 11.2812 51.7969
Q16.75 56 26.8125 56
Q31.7812 56 36.1719 55.2656
Q40.5781 54.5469 44.2812 53.0781" id="BitstreamVeraSans-Roman-73"/>
     </defs>
     <g transform="translate(425.9353125 612.931875)scale(0.12 -0.12)">
      <use xlink:href="#BitstreamVeraSans-Roman-74"/>
      <use x="39.208984375" xlink:href="#BitstreamVeraSans-Roman-20"/>
      <use x="70.99609375" xlink:href="#BitstreamVeraSans-Roman-2f"/>
      <use x="104.6875" xlink:href="#BitstreamVeraSans-Roman-20"/>
      <use x="136.474609375" xlink:href="#BitstreamVeraSans-Roman-6d"/>
      <use x="233.88671875" xlink:href="#BitstreamVeraSans-Roman-73"/>
     </g>
    </g>
   </g>
   <g id="matplotlib.axis_2">
    <g id="ytick_1">
     <g id="line2d_14">
      <defs>
       <path d="
M0 0
L4 0" id="md7965d1ba0" style="stroke:#000000;stroke-width:0.5;"/>
      </defs>
      <g>
       <use style="stroke:#000000;stroke-width:0.5;" x="108.0" xlink:href="#md7965d1ba0" y="583.2"/>
      </g>
     </g>
     <g id="line2d_15">
      <defs>
       <path d="
M0 0
L-4 0" id="md9a1c1a7cd" style="stroke:#000000;stroke-width:0.5;"/>
      </defs>
      <g>
       <use style="stroke:#000000;stroke-width:0.5;" x="777.6" xlink:href="#md9a1c1a7cd" y="583.2"/>
      </g>
     </g>
     <g id="text_8">
      <!-- 0 -->
      <g transform="translate(97.953125 586.51125)scale(0.12 -0.12)">
       <use xlink:href="#BitstreamVeraSans-Roman-30"/>
      </g>
     </g>
    </g>
    <g id="ytick_2">
     <g id="line2d_16">
      <g>
       <use style="stroke:#000000;stroke-width:0.5;" x="108.0" xlink:href="#md7965d1ba0" y="509.142857143"/>
      </g>
     </g>
     <g id="line2d_17">
      <g>
       <use style="stroke:#000000;stroke-width:0.5;" x="777.6" xlink:href="#md9a1c1a7cd" y="509.142857143"/>
      </g>
     </g>
     <g id="text_9">
      <!-- 100 -->
      <g transform="translate(83.21 512.454107143)scale(0.12 -0.12)">
       <use xlink:href="#BitstreamVeraSans-Roman-31"/>
       <use x="63.623046875" xlink:href="#BitstreamVeraSans-Roman-30"/>
       <use x="127.24609375" xlink:href="#BitstreamVeraSans-Roman-30"/>
      </g>
     </g>
    </g>
    <g id="ytick_3">
     <g id="line2d_18">
      <g>
       <use style="stroke:#000000;stroke-width:0.5;" x="108.0" xlink:href="#md7965d1ba0" y="435.085714286"/>
      </g>
     </g>
     <g id="line2d_19">
      <g>
       <use style="stroke:#000000;stroke-width:0.5;" x="777.6" xlink:href="#md9a1c1a7cd" y="435.085714286"/>
      </g>
     </g>
     <g id="text_10">
      <!-- 200 -->
      <g transform="translate(82.77125 438.396964286)scale(0.12 -0.12)">
       <use xlink:href="#BitstreamVeraSans-Roman-32"/>
       <use x="63.623046875" xlink:href="#BitstreamVeraSans-Roman-30"/>
       <use x="127.24609375" xlink:href="#BitstreamVeraSans-Roman-30"/>
      </g>
     </g>
    </g>
    <g id="ytick_4">
     <g id="line2d_20">
      <g>
       <use style="stroke:#000000;stroke-width:0.5;" x="108.0" xlink:href="#md7965d1ba0" y="361.028571429"/>
      </g>
     </g>
     <g id="line2d_21">
      <g>
       <use style="stroke:#000000;stroke-width:0.5;" x="777.6" xlink:href="#md9a1c1a7cd" y="361.028571429"/>
      </g>
     </g>
     <g id="text_11">
      <!-- 300 -->
      <defs>
       <path d="
M40.5781 39.3125
Q47.6562 37.7969 51.625 33
Q55.6094 28.2188 55.6094 21.1875
Q55.6094 10.4062 48.1875 4.48438
Q40.7656 -1.42188 27.0938 -1.42188
Q22.5156 -1.42188 17.6562 -0.515625
Q12.7969 0.390625 7.625 2.20312
L7.625 11.7188
Q11.7188 9.32812 16.5938 8.10938
Q21.4844 6.89062 26.8125 6.89062
Q36.0781 6.89062 40.9375 10.5469
Q45.7969 14.2031 45.7969 21.1875
Q45.7969 27.6406 41.2812 31.2656
Q36.7656 34.9062 28.7188 34.9062
L20.2188 34.9062
L20.2188 43.0156
L29.1094 43.0156
Q36.375 43.0156 40.2344 45.9219
Q44.0938 48.8281 44.0938 54.2969
Q44.0938 59.9062 40.1094 62.9062
Q36.1406 65.9219 28.7188 65.9219
Q24.6562 65.9219 20.0156 65.0312
Q15.375 64.1562 9.8125 62.3125
L9.8125 71.0938
Q15.4375 72.6562 20.3438 73.4375
Q25.25 74.2188 29.5938 74.2188
Q40.8281 74.2188 47.3594 69.1094
Q53.9062 64.0156 53.9062 55.3281
Q53.9062 49.2656 50.4375 45.0938
Q46.9688 40.9219 40.5781 39.3125" id="BitstreamVeraSans-Roman-33"/>
      </defs>
      <g transform="translate(82.806875 364.339821429)scale(0.12 -0.12)">
       <use xlink:href="#BitstreamVeraSans-Roman-33"/>
       <use x="63.623046875" xlink:href="#BitstreamVeraSans-Roman-30"/>
       <use x="127.24609375" xlink:href="#BitstreamVeraSans-Roman-30"/>
      </g>
     </g>
    </g>
    <g id="ytick_5">
     <g id="line2d_22">
      <g>
       <use style="stroke:#000000;stroke-width:0.5;" x="108.0" xlink:href="#md7965d1ba0" y="286.971428571"/>
      </g>
     </g>
     <g id="line2d_23">
      <g>
       <use style="stroke:#000000;stroke-width:0.5;" x="777.6" xlink:href="#md9a1c1a7cd" y="286.971428571"/>
      </g>
     </g>
     <g id="text_12">
      <!-- 400 -->
      <g transform="translate(82.47875 290.282678571)scale(0.12 -0.12)">
       <use xlink:href="#BitstreamVeraSans-Roman-34"/>
       <use x="63.623046875" xlink:href="#BitstreamVeraSans-Roman-30"/>
       <use x="127.24609375" xlink:href="#BitstreamVeraSans-Roman-30"/>
      </g>
     </g>
    </g>
    <g id="ytick_6">
     <g id="line2d_24">
      <g>
       <use style="stroke:#000000;stroke-width:0.5;" x="108.0" xlink:href="#md7965d1ba0" y="212.914285714"/>
      </g>
     </g>
     <g id="line2d_25">
      <g>
       <use style="stroke:#000000;stroke-width:0.5;" x="777.6" xlink:href="#md9a1c1a7cd" y="212.914285714"/>
      </g>
     </g>
     <g id="text_13">
      <!-- 500 -->
      <defs>
       <path d="
M10.7969 72.9062
L49.5156 72.9062
L49.5156 64.5938
L19.8281 64.5938
L19.8281 46.7344
Q21.9688 47.4688 24.1094 47.8281
Q26.2656 48.1875 28.4219 48.1875
Q40.625 48.1875 47.75 41.5
Q54.8906 34.8125 54.8906 23.3906
Q54.8906 11.625 47.5625 5.09375
Q40.2344 -1.42188 26.9062 -1.42188
Q22.3125 -1.42188 17.5469 -0.640625
Q12.7969 0.140625 7.71875 1.70312
L7.71875 11.625
Q12.1094 9.23438 16.7969 8.0625
Q21.4844 6.89062 26.7031 6.89062
Q35.1562 6.89062 40.0781 11.3281
Q45.0156 15.7656 45.0156 23.3906
Q45.0156 31 40.0781 35.4375
Q35.1562 39.8906 26.7031 39.8906
Q22.75 39.8906 18.8125 39.0156
Q14.8906 38.1406 10.7969 36.2812
z
" id="BitstreamVeraSans-Roman-35"/>
      </defs>
      <g transform="translate(82.818125 216.225535714)scale(0.12 -0.12)">
       <use xlink:href="#BitstreamVeraSans-Roman-35"/>
       <use x="63.623046875" xlink:href="#BitstreamVeraSans-Roman-30"/>
       <use x="127.24609375" xlink:href="#BitstreamVeraSans-Roman-30"/>
      </g>
     </g>
    </g>
    <g id="ytick_7">
     <g id="line2d_26">
      <g>
       <use style="stroke:#000000;stroke-width:0.5;" x="108.0" xlink:href="#md7965d1ba0" y="138.857142857"/>
      </g>
     </g>
     <g id="line2d_27">
      <g>
       <use style="stroke:#000000;stroke-width:0.5;" x="777.6" xlink:href="#md9a1c1a7cd" y="138.857142857"/>
      </g>
     </g>
     <g id="text_14">
      <!-- 600 -->
      <g transform="translate(82.73 142.168392857)scale(0.12 -0.12)">
       <use xlink:href="#BitstreamVeraSans-Roman-36"/>
       <use x="63.623046875" xlink:href="#BitstreamVeraSans-Roman-30"/>
       <use x="127.24609375" xlink:href="#BitstreamVeraSans-Roman-30"/>
      </g>
     </g>
    </g>
    <g id="ytick_8">
     <g id="line2d_28">
      <g>
       <use style="stroke:#000000;stroke-width:0.5;" x="108.0" xlink:href="#md7965d1ba0" y="64.8"/>
      </g>
     </g>
     <g id="line2d_29">
      <g>
       <use style="stroke:#000000;stroke-width:0.5;" x="777.6" xlink:href="#md9a1c1a7cd" y="64.8"/>
      </g>
     </g>
     <g id="text_15">
      <!-- 700 -->
      <defs>
       <path d="
M8.20312 72.9062
L55.0781 72.9062
L55.0781 68.7031
L28.6094 0
L18.3125 0
L43.2188 64.5938
L8.20312 64.5938
z
" id="BitstreamVeraSans-Roman-37"/>
      </defs>
      <g transform="translate(82.87625 68.11125)scale(0.12 -0.12)">
       <use xlink:href="#BitstreamVeraSans-Roman-37"/>
       <use x="63.623046875" xlink:href="#BitstreamVeraSans-Roman-30"/>
       <use x="127.24609375" xlink:href="#BitstreamVeraSans-Roman-30"/>
      </g>
     </g>
    </g>
    <g id="text_16">
     <!-- particle numbers -->
     <defs>
      <path d="
M8.5 21.5781
L8.5 54.6875
L17.4844 54.6875
L17.4844 21.9219
Q17.4844 14.1562 20.5 10.2656
Q23.5312 6.39062 29.5938 6.39062
Q36.8594 6.39062 41.0781 11.0312
Q45.3125 15.6719 45.3125 23.6875
L45.3125 54.6875
L54.2969 54.6875
L54.2969 0
L45.3125 0
L45.3125 8.40625
Q42.0469 3.42188 37.7188 1
Q33.4062 -1.42188 27.6875 -1.42188
Q18.2656 -1.42188 13.375 4.4375
Q8.5 10.2969 8.5 21.5781" id="BitstreamVeraSans-Roman-75"/>
      <path d="
M54.8906 33.0156
L54.8906 0
L45.9062 0
L45.9062 32.7188
Q45.9062 40.4844 42.875 44.3281
Q39.8438 48.1875 33.7969 48.1875
Q26.5156 48.1875 22.3125 43.5469
Q18.1094 38.9219 18.1094 30.9062
L18.1094 0
L9.07812 0
L9.07812 54.6875
L18.1094 54.6875
L18.1094 46.1875
Q21.3438 51.125 25.7031 53.5625
Q30.0781 56 35.7969 56
Q45.2188 56 50.0469 50.1719
Q54.8906 44.3438 54.8906 33.0156" id="BitstreamVeraSans-Roman-6e"/>
      <path d="
M9.42188 75.9844
L18.4062 75.9844
L18.4062 0
L9.42188 0
z
" id="BitstreamVeraSans-Roman-6c"/>
      <path d="
M34.2812 27.4844
Q23.3906 27.4844 19.1875 25
Q14.9844 22.5156 14.9844 16.5
Q14.9844 11.7188 18.1406 8.90625
Q21.2969 6.10938 26.7031 6.10938
Q34.1875 6.10938 38.7031 11.4062
Q43.2188 16.7031 43.2188 25.4844
L43.2188 27.4844
z

M52.2031 31.2031
L52.2031 0
L43.2188 0
L43.2188 8.29688
Q40.1406 3.32812 35.5469 0.953125
Q30.9531 -1.42188 24.3125 -1.42188
Q15.9219 -1.42188 10.9531 3.29688
Q6 8.01562 6 15.9219
Q6 25.1406 12.1719 29.8281
Q18.3594 34.5156 30.6094 34.5156
L43.2188 34.5156
L43.2188 35.4062
Q43.2188 41.6094 39.1406 45
Q35.0625 48.3906 27.6875 48.3906
Q23 48.3906 18.5469 47.2656
Q14.1094 46.1406 10.0156 43.8906
L10.0156 52.2031
Q14.9375 54.1094 19.5781 55.0469
Q24.2188 56 28.6094 56
Q40.4844 56 46.3438 49.8438
Q52.2031 43.7031 52.2031 31.2031" id="BitstreamVeraSans-Roman-61"/>
      <path d="
M48.6875 27.2969
Q48.6875 37.2031 44.6094 42.8438
Q40.5312 48.4844 33.4062 48.4844
Q26.2656 48.4844 22.1875 42.8438
Q18.1094 37.2031 18.1094 27.2969
Q18.1094 17.3906 22.1875 11.75
Q26.2656 6.10938 33.4062 6.10938
Q40.5312 6.10938 44.6094 11.75
Q48.6875 17.3906 48.6875 27.2969
M18.1094 46.3906
Q20.9531 51.2656 25.2656 53.625
Q29.5938 56 35.5938 56
Q45.5625 56 51.7812 48.0938
Q58.0156 40.1875 58.0156 27.2969
Q58.0156 14.4062 51.7812 6.48438
Q45.5625 -1.42188 35.5938 -1.42188
Q29.5938 -1.42188 25.2656 0.953125
Q20.9531 3.32812 18.1094 8.20312
L18.1094 0
L9.07812 0
L9.07812 75.9844
L18.1094 75.9844
z
" id="BitstreamVeraSans-Roman-62"/>
      <path d="
M41.1094 46.2969
Q39.5938 47.1719 37.8125 47.5781
Q36.0312 48 33.8906 48
Q26.2656 48 22.1875 43.0469
Q18.1094 38.0938 18.1094 28.8125
L18.1094 0
L9.07812 0
L9.07812 54.6875
L18.1094 54.6875
L18.1094 46.1875
Q20.9531 51.1719 25.4844 53.5781
Q30.0312 56 36.5312 56
Q37.4531 56 38.5781 55.875
Q39.7031 55.7656 41.0625 55.5156
z
" id="BitstreamVeraSans-Roman-72"/>
      <path d="
M56.2031 29.5938
L56.2031 25.2031
L14.8906 25.2031
Q15.4844 15.9219 20.4844 11.0625
Q25.4844 6.20312 34.4219 6.20312
Q39.5938 6.20312 44.4531 7.46875
Q49.3125 8.73438 54.1094 11.2812
L54.1094 2.78125
Q49.2656 0.734375 44.1875 -0.34375
Q39.1094 -1.42188 33.8906 -1.42188
Q20.7969 -1.42188 13.1562 6.1875
Q5.51562 13.8125 5.51562 26.8125
Q5.51562 40.2344 12.7656 48.1094
Q20.0156 56 32.3281 56
Q43.3594 56 49.7812 48.8906
Q56.2031 41.7969 56.2031 29.5938
M47.2188 32.2344
Q47.125 39.5938 43.0938 43.9844
Q39.0625 48.3906 32.4219 48.3906
Q24.9062 48.3906 20.3906 44.1406
Q15.875 39.8906 15.1875 32.1719
z
" id="BitstreamVeraSans-Roman-65"/>
      <path d="
M18.1094 8.20312
L18.1094 -20.7969
L9.07812 -20.7969
L9.07812 54.6875
L18.1094 54.6875
L18.1094 46.3906
Q20.9531 51.2656 25.2656 53.625
Q29.5938 56 35.5938 56
Q45.5625 56 51.7812 48.0938
Q58.0156 40.1875 58.0156 27.2969
Q58.0156 14.4062 51.7812 6.48438
Q45.5625 -1.42188 35.5938 -1.42188
Q29.5938 -1.42188 25.2656 0.953125
Q20.9531 3.32812 18.1094 8.20312
M48.6875 27.2969
Q48.6875 37.2031 44.6094 42.8438
Q40.5312 48.4844 33.4062 48.4844
Q26.2656 48.4844 22.1875 42.8438
Q18.1094 37.2031 18.1094 27.2969
Q18.1094 17.3906 22.1875 11.75
Q26.2656 6.10938 33.4062 6.10938
Q40.5312 6.10938 44.6094 11.75
Q48.6875 17.3906 48.6875 27.2969" id="BitstreamVeraSans-Roman-70"/>
      <path d="
M9.42188 54.6875
L18.4062 54.6875
L18.4062 0
L9.42188 0
z

M9.42188 75.9844
L18.4062 75.9844
L18.4062 64.5938
L9.42188 64.5938
z
" id="BitstreamVeraSans-Roman-69"/>
      <path d="
M48.7812 52.5938
L48.7812 44.1875
Q44.9688 46.2969 41.1406 47.3438
Q37.3125 48.3906 33.4062 48.3906
Q24.6562 48.3906 19.8125 42.8438
Q14.9844 37.3125 14.9844 27.2969
Q14.9844 17.2812 19.8125 11.7344
Q24.6562 6.20312 33.4062 6.20312
Q37.3125 6.20312 41.1406 7.25
Q44.9688 8.29688 48.7812 10.4062
L48.7812 2.09375
Q45.0156 0.34375 40.9844 -0.53125
Q36.9688 -1.42188 32.4219 -1.42188
Q20.0625 -1.42188 12.7812 6.34375
Q5.51562 14.1094 5.51562 27.2969
Q5.51562 40.6719 12.8594 48.3281
Q20.2188 56 33.0156 56
Q37.1562 56 41.1094 55.1406
Q45.0625 54.2969 48.7812 52.5938" id="BitstreamVeraSans-Roman-63"/>
     </defs>
     <g transform="translate(74.983125 374.78625)rotate(-90.0)scale(0.12 -0.12)">
      <use xlink:href="#BitstreamVeraSans-Roman-70"/>
      <use x="63.4765625" xlink:href="#BitstreamVeraSans-Roman-61"/>
      <use x="124.755859375" xlink:href="#BitstreamVeraSans-Roman-72"/>
      <use x="165.869140625" xlink:href="#BitstreamVeraSans-Roman-74"/>
      <use x="205.078125" xlink:href="#BitstreamVeraSans-Roman-69"/>
      <use x="232.861328125" xlink:href="#BitstreamVeraSans-Roman-63"/>
      <use x="287.841796875" xlink:href="#BitstreamVeraSans-Roman-6c"/>
      <use x="315.625" xlink:href="#BitstreamVeraSans-Roman-65"/>
      <use x="377.1484375" xlink:href="#BitstreamVeraSans-Roman-20"/>
      <use x="408.935546875" xlink:href="#BitstreamVeraSans-Roman-6e"/>
      <use x="472.314453125" xlink:href="#BitstreamVeraSans-Roman-75"/>
      <use x="535.693359375" xlink:href="#BitstreamVeraSans-Roman-6d"/>
      <use x="633.10546875" xlink:href="#BitstreamVeraSans-Roman-62"/>
      <use x="696.58203125" xlink:href="#BitstreamVeraSans-Roman-65"/>
      <use x="758.10546875" xlink:href="#BitstreamVeraSans-Roman-72"/>
      <use x="799.21875" xlink:href="#BitstreamVeraSans-Roman-73"/>
     </g>
    </g>
   </g>
   <g id="legend_1">
    <g id="patch_7">
     <path d="
M729.421 80.6747
L774.1 80.6747
L774.1 68.3
L729.421 68.3
z
" style="fill:#ffffff;stroke:#000000;stroke-linejoin:miter;"/>
    </g>
    <g id="line2d_30">
     <path d="
M734.321 73.9689
L744.121 73.9689" style="fill:none;stroke:#ff0000;stroke-linecap:square;"/>
    </g>
    <g id="line2d_31"/>
    <g id="text_17">
     <!-- A el.0 -->
     <defs>
      <path d="
M34.1875 63.1875
L20.7969 26.9062
L47.6094 26.9062
z

M28.6094 72.9062
L39.7969 72.9062
L67.5781 0
L57.3281 0
L50.6875 18.7031
L17.8281 18.7031
L11.1875 0
L0.78125 0
z
" id="BitstreamVeraSans-Roman-41"/>
      <path d="
M10.6875 12.4062
L21 12.4062
L21 0
L10.6875 0
z
" id="BitstreamVeraSans-Roman-2e"/>
     </defs>
     <g transform="translate(751.82140625 76.41890625)scale(0.07 -0.07)">
      <use xlink:href="#BitstreamVeraSans-Roman-41"/>
      <use x="68.408203125" xlink:href="#BitstreamVeraSans-Roman-20"/>
      <use x="100.1953125" xlink:href="#BitstreamVeraSans-Roman-65"/>
      <use x="161.71875" xlink:href="#BitstreamVeraSans-Roman-6c"/>
      <use x="189.501953125" xlink:href="#BitstreamVeraSans-Roman-2e"/>
      <use x="221.2890625" xlink:href="#BitstreamVeraSans-Roman-30"/>
     </g>
    </g>
   </g>
  </g>
 </g>
 <defs>
  <clipPath id="p7ceb695115">
   <rect height="518.4" width="669.6" x="108.0" y="64.8"/>
  </clipPath>
 </defs>
</svg>
