<?xml version="1.0" encoding="utf-8" standalone="no"?>
<!DOCTYPE svg PUBLIC "-//W3C//DTD SVG 1.1//EN"
  "http://www.w3.org/Graphics/SVG/1.1/DTD/svg11.dtd">
<!-- Created with matplotlib (http://matplotlib.org/) -->
<svg height="648pt" version="1.1" viewBox="0 0 864 648" width="864pt" xmlns="http://www.w3.org/2000/svg" xmlns:xlink="http://www.w3.org/1999/xlink">
 <defs>
  <style type="text/css">
*{stroke-linecap:butt;stroke-linejoin:round;}
  </style>
 </defs>
 <g id="figure_1">
  <g id="patch_1">
   <path d="
M0 648
L864 648
L864 0
L0 0
z
" style="fill:#ffffff;"/>
  </g>
  <g id="axes_1">
   <g id="patch_2">
    <path d="
M108 583.2
L777.6 583.2
L777.6 64.8
L108 64.8
z
" style="fill:#ffffff;"/>
   </g>
   <g id="line2d_1">
    <path clip-path="url(#p7ceb695115)" d="
M108 583.2
L108.67 469.152
L110.678 483.84
L111.348 523.584
L112.018 478.656
L112.687 457.056
L113.357 478.656
L114.026 463.968
L114.696 468.288
L115.366 482.976
L116.035 446.688
L116.705 482.112
L117.374 481.248
L118.044 451.872
L118.714 468.288
L119.383 95.904
L120.053 152.928
L120.722 79.488
L121.392 221.184
L122.062 218.592
L122.731 111.456
L124.07 152.928
L124.74 209.952
L125.41 179.712
L126.079 240.192
L126.749 184.032
L127.418 111.456
L128.088 229.824
L128.758 305.856
L129.427 470.016
L130.097 474.336
L130.766 440.64
L131.436 476.928
L132.106 481.248
L132.775 454.464
L133.445 462.24
L134.114 477.792
L134.784 465.696
L135.454 498.528
L136.123 445.824
L136.793 440.64
L137.462 470.88
L138.132 457.92
L138.802 480.384
L139.471 495.936
L140.141 504.576
L140.81 443.232
L142.15 493.344
L142.819 453.6
L143.489 487.296
L144.158 458.784
L144.828 476.928
L145.498 428.544
L146.167 508.032
L146.837 452.736
L147.506 481.248
L148.176 218.592
L148.846 183.168
L149.515 158.976
L150.185 139.104
L150.854 251.424
L151.524 181.44
L152.194 151.2
L152.863 193.536
L153.533 299.808
L154.202 235.008
L154.872 147.744
L155.542 496.8
L156.881 117.504
L157.55 225.504
L158.22 238.464
L158.89 191.808
L159.559 234.144
L160.229 231.552
L160.898 202.176
L161.568 110.592
L162.238 130.464
L162.907 137.376
L163.577 165.024
L164.246 183.168
L164.916 209.088
L165.586 450.144
L166.255 454.464
L166.925 440.64
L167.594 505.44
L168.264 481.248
L168.934 490.752
L169.603 452.736
L170.273 205.632
L170.942 465.696
L171.612 487.296
L172.282 473.472
L173.621 482.976
L174.29 449.28
L174.96 480.384
L175.63 494.208
L176.299 475.2
L176.969 467.424
L177.638 473.472
L178.308 465.696
L178.978 485.568
L179.647 508.896
L180.317 465.696
L180.986 486.432
L181.656 471.744
L182.326 508.032
L182.995 507.168
L183.665 426.816
L184.334 493.344
L185.004 472.608
L185.674 475.2
L186.343 457.056
L187.013 443.232
L187.682 396.576
L188.352 516.672
L189.022 478.656
L189.691 459.648
L190.361 184.032
L191.03 249.696
L191.7 472.608
L192.37 494.208
L193.039 496.8
L193.709 223.776
L194.378 254.88
L195.048 155.52
L195.718 76.896
L196.387 223.776
L197.057 95.04
L197.726 189.216
L198.396 140.832
L199.066 491.616
L199.735 464.832
L200.405 452.736
L201.074 443.232
L202.414 476.064
L203.083 463.968
L203.753 498.528
L204.422 425.952
L205.092 445.824
L205.762 450.144
L206.431 495.936
L207.101 409.536
L207.77 436.32
L208.44 496.8
L209.11 509.76
L209.779 489.024
L210.449 501.984
L211.118 349.056
L211.788 438.912
L212.458 401.76
L213.127 457.056
L213.797 448.416
L214.466 497.664
L215.136 442.368
L215.806 432.864
L216.475 442.368
L217.145 419.04
L217.814 491.616
L218.484 453.6
L219.154 453.6
L219.823 486.432
L220.493 466.56
L221.162 487.296
L221.832 457.056
L222.502 509.76
L223.171 462.24
L223.841 470.88
L224.51 474.336
L225.18 332.64
L225.85 414.72
L226.519 456.192
L227.189 444.96
L227.858 489.888
L228.528 196.992
L229.198 175.392
L229.867 195.264
L230.537 507.168
L231.206 494.208
L231.876 468.288
L232.546 476.928
L233.215 508.896
L233.885 496.8
L234.554 445.824
L235.224 462.24
L235.894 495.072
L236.563 438.048
L237.233 477.792
L237.902 459.648
L238.572 448.416
L239.242 444.96
L239.911 453.6
L240.581 444.096
L241.25 469.152
L241.92 466.56
L242.59 471.744
L243.259 445.824
L243.929 487.296
L244.598 441.504
L245.268 514.944
L245.938 483.84
L246.607 470.88
L247.277 482.976
L247.946 399.168
L248.616 459.648
L249.286 443.232
L249.955 479.52
L250.625 438.912
L251.294 486.432
L251.964 501.984
L252.634 447.552
L253.303 455.328
L253.973 476.928
L254.642 450.144
L255.312 471.744
L255.982 430.272
L256.651 458.784
L257.321 472.608
L257.99 367.2
L258.66 465.696
L259.33 463.968
L259.999 479.52
L260.669 471.744
L261.338 450.144
L262.008 443.232
L262.678 441.504
L263.347 203.04
L264.017 181.44
L264.686 209.088
L265.356 255.744
L266.026 238.464
L266.695 235.872
L267.365 208.224
L268.034 153.792
L268.704 134.784
L269.374 155.52
L270.713 203.904
L271.382 135.648
L272.052 200.448
L272.722 190.944
L273.391 467.424
L274.061 432.864
L275.4 514.08
L276.07 444.096
L276.739 481.248
L277.409 469.152
L278.078 416.448
L278.748 217.728
L279.418 109.728
L280.087 447.552
L280.757 431.136
L281.426 444.096
L282.096 482.112
L282.766 448.416
L283.435 478.656
L284.105 488.16
L284.774 509.76
L286.783 467.424
L287.453 508.032
L288.122 458.784
L288.792 383.616
L289.462 478.656
L290.131 490.752
L290.801 387.936
L291.47 478.656
L292.14 317.088
L292.81 495.072
L293.479 482.112
L294.149 482.112
L294.818 418.176
L295.488 446.688
L296.158 480.384
L296.827 451.008
L298.166 505.44
L298.836 481.248
L299.506 482.112
L300.175 484.704
L300.845 466.56
L301.514 504.576
L302.184 442.368
L302.854 501.984
L303.523 495.936
L304.193 485.568
L304.862 479.52
L305.532 478.656
L306.202 495.072
L306.871 467.424
L307.541 483.84
L308.21 467.424
L308.88 469.152
L309.55 495.936
L310.219 475.2
L310.889 483.84
L311.558 451.008
L312.228 470.016
L312.898 508.896
L313.567 489.888
L314.237 422.496
L314.906 484.704
L315.576 482.976
L316.246 474.336
L316.915 472.608
L318.254 253.152
L318.924 172.8
L319.594 154.656
L320.263 207.36
L320.933 189.216
L321.602 319.68
L322.272 184.032
L322.942 480.384
L323.611 484.704
L324.281 501.12
L324.95 470.88
L325.62 489.888
L326.29 445.824
L326.959 487.296
L327.629 452.736
L328.298 486.432
L328.968 478.656
L329.638 490.752
L330.307 516.672
L330.977 199.584
L331.646 204.768
L332.316 111.456
L332.986 211.68
L333.655 467.424
L334.325 514.944
L334.994 188.352
L335.664 129.6
L336.334 175.392
L337.003 241.92
L337.673 161.568
L338.342 426.816
L339.012 429.408
L339.682 476.928
L341.021 495.072
L341.69 498.528
L342.36 482.112
L343.03 501.12
L343.699 474.336
L344.369 514.08
L345.038 476.064
L345.708 470.88
L346.378 455.328
L347.047 476.064
L347.717 385.344
L348.386 474.336
L349.056 506.304
L349.726 464.832
L350.395 458.784
L351.065 498.528
L351.734 476.928
L352.404 491.616
L353.074 478.656
L353.743 472.608
L354.413 469.152
L355.082 484.704
L355.752 454.464
L356.422 459.648
L357.091 451.872
L357.761 445.824
L358.43 499.392
L359.1 444.96
L359.77 497.664
L360.439 480.384
L361.109 489.888
L361.778 397.44
L362.448 497.664
L363.118 130.464
L363.787 212.544
L364.457 114.912
L365.796 210.816
L366.466 171.936
L367.135 149.472
L367.805 144.288
L368.474 73.44
L369.144 196.992
L370.483 289.44
L371.153 498.528
L371.822 463.968
L372.492 476.064
L373.162 498.528
L373.831 440.64
L374.501 194.4
L375.17 89.856
L375.84 203.904
L376.51 217.728
L377.179 146.88
L377.849 116.64
L378.518 222.048
L379.188 167.616
L379.858 433.728
L380.527 485.568
L381.197 433.728
L381.866 497.664
L382.536 496.8
L383.206 187.488
L383.875 159.84
L384.545 137.376
L385.214 228.96
L385.884 222.912
L386.554 204.768
L387.223 147.744
L387.893 148.608
L388.562 228.96
L389.232 324
L389.902 483.84
L390.571 492.48
L391.241 468.288
L391.91 470.016
L392.58 479.52
L393.25 451.008
L393.919 453.6
L394.589 483.84
L395.258 460.512
L395.928 488.16
L396.598 315.36
L397.937 120.096
L398.606 199.584
L399.276 474.336
L399.946 426.816
L400.615 463.968
L401.285 438.912
L401.954 482.976
L402.624 467.424
L403.294 475.2
L403.963 484.704
L404.633 482.976
L405.302 412.128
L405.972 495.072
L406.642 500.256
L407.311 488.16
L407.981 483.84
L408.65 446.688
L409.32 468.288
L409.99 471.744
L410.659 478.656
L411.329 489.888
L411.998 484.704
L412.668 496.8
L413.338 473.472
L414.007 510.624
L414.677 488.16
L415.346 486.432
L416.016 483.84
L416.686 474.336
L417.355 499.392
L418.025 470.88
L418.694 466.56
L419.364 463.104
L420.703 495.936
L421.373 497.664
L422.042 477.792
L422.712 495.936
L423.382 495.072
L424.051 493.344
L424.721 435.456
L425.39 484.704
L426.06 489.024
L426.73 479.52
L427.399 487.296
L428.069 443.232
L428.738 449.28
L429.408 464.832
L430.078 472.608
L430.747 445.824
L431.417 485.568
L432.086 478.656
L432.756 161.568
L433.426 148.608
L434.095 194.4
L434.765 190.944
L435.434 139.104
L436.104 160.704
L436.774 208.224
L437.443 460.512
L438.113 503.712
L438.782 432.864
L439.452 474.336
L440.791 496.8
L441.461 489.888
L442.13 487.296
L442.8 451.872
L443.47 498.528
L444.139 502.848
L444.809 492.48
L446.148 468.288
L446.818 380.16
L447.487 505.44
L448.157 490.752
L448.826 470.016
L449.496 457.92
L450.166 486.432
L450.835 482.112
L451.505 491.616
L452.174 464.832
L452.844 499.392
L453.514 490.752
L454.183 502.848
L454.853 471.744
L455.522 482.112
L456.192 469.152
L456.862 488.16
L457.531 483.84
L458.201 495.072
L458.87 457.056
L459.54 468.288
L460.21 483.84
L460.879 489.024
L461.549 482.976
L462.218 422.496
L462.888 499.392
L463.558 483.84
L464.227 481.248
L464.897 486.432
L465.566 372.384
L466.236 453.6
L466.906 473.472
L467.575 496.8
L468.245 491.616
L468.914 470.88
L469.584 505.44
L470.254 469.152
L470.923 501.12
L471.593 489.024
L472.262 487.296
L472.932 448.416
L473.602 279.936
L474.271 160.704
L474.941 141.696
L475.61 267.84
L476.28 241.056
L476.95 268.704
L477.619 208.224
L478.289 420.768
L478.958 473.472
L479.628 501.12
L480.298 489.024
L480.967 445.824
L481.637 488.16
L482.306 470.016
L482.976 498.528
L483.646 470.016
L484.315 498.528
L484.985 478.656
L485.654 488.16
L486.324 482.976
L486.994 448.416
L487.663 458.784
L488.333 448.416
L489.002 497.664
L489.672 499.392
L490.342 161.568
L491.011 136.512
L491.681 145.152
L492.35 228.096
L493.02 169.344
L493.69 354.24
L494.359 467.424
L495.029 508.032
L495.698 454.464
L496.368 475.2
L497.038 464.832
L497.707 271.296
L498.377 272.16
L499.046 193.536
L499.716 290.304
L500.386 286.848
L501.055 483.84
L501.725 497.664
L502.394 472.608
L503.064 481.248
L503.734 509.76
L504.403 479.52
L505.073 465.696
L505.742 470.016
L506.412 494.208
L507.082 485.568
L507.751 447.552
L508.421 508.896
L509.09 478.656
L509.76 173.664
L510.43 153.792
L511.099 224.64
L511.769 152.928
L512.438 469.152
L513.108 426.816
L513.778 499.392
L514.447 467.424
L515.117 469.152
L515.786 496.8
L516.456 488.16
L517.126 427.68
L517.795 440.64
L518.465 471.744
L519.134 476.064
L519.804 488.16
L520.474 453.6
L521.143 442.368
L521.813 162.432
L522.482 467.424
L523.152 495.072
L523.822 488.16
L524.491 415.584
L525.161 486.432
L525.83 364.608
L526.5 496.8
L527.17 467.424
L527.839 466.56
L528.509 126.144
L529.848 161.568
L530.518 222.048
L531.187 151.2
L531.857 185.76
L532.526 175.392
L533.196 174.528
L533.866 205.632
L534.535 144.288
L535.205 218.592
L535.874 148.608
L536.544 187.488
L537.214 190.944
L537.883 171.936
L539.222 145.152
L539.892 311.04
L540.562 169.344
L541.231 194.4
L541.901 172.8
L542.57 211.68
L543.24 153.792
L543.91 149.472
L544.579 131.328
L545.249 284.256
L545.918 250.56
L546.588 178.848
L547.258 284.256
L547.927 449.28
L548.597 461.376
L549.266 433.728
L549.936 471.744
L550.606 486.432
L551.275 226.368
L551.945 279.936
L552.614 491.616
L553.284 503.712
L553.954 504.576
L554.623 500.256
L555.293 461.376
L555.962 489.024
L556.632 462.24
L557.302 478.656
L557.971 462.24
L558.641 460.512
L559.31 495.936
L559.98 435.456
L560.65 488.16
L561.319 489.888
L561.989 494.208
L562.658 463.968
L563.328 425.952
L563.998 503.712
L564.667 496.8
L565.337 424.224
L566.006 460.512
L566.676 488.16
L567.346 484.704
L568.015 451.872
L568.685 460.512
L569.354 444.96
L570.024 435.456
L570.694 459.648
L571.363 510.624
L572.033 444.96
L572.702 496.8
L573.372 448.416
L574.042 504.576
L574.711 489.888
L575.381 489.888
L576.05 496.8
L576.72 508.032
L577.39 499.392
L578.059 498.528
L578.729 491.616
L579.398 471.744
L580.068 349.056
L580.738 478.656
L581.407 445.824
L582.077 476.928
L582.746 468.288
L583.416 487.296
L584.086 486.432
L584.755 487.296
L585.425 482.112
L586.094 440.64
L586.764 470.016
L587.434 484.704
L588.103 488.16
L588.773 464.832
L589.442 502.848
L590.112 496.8
L590.782 457.92
L591.451 444.96
L592.121 498.528
L592.79 467.424
L593.46 449.28
L594.13 460.512
L594.799 491.616
L595.469 503.712
L596.138 512.352
L596.808 242.784
L597.478 475.2
L598.147 426.816
L598.817 427.68
L599.486 464.832
L600.156 474.336
L600.826 422.496
L601.495 191.808
L602.165 151.2
L602.834 193.536
L603.504 220.32
L604.174 118.368
L604.843 185.76
L605.513 171.936
L606.182 189.216
L606.852 186.624
L607.522 172.8
L608.191 152.064
L608.861 479.52
L609.53 465.696
L610.2 508.032
L610.87 457.92
L611.539 493.344
L612.209 489.024
L613.548 433.728
L614.218 503.712
L614.887 501.12
L615.557 482.976
L616.226 457.92
L616.896 474.336
L617.566 496.8
L618.235 416.448
L618.905 492.48
L619.574 508.896
L620.244 468.288
L620.914 495.936
L621.583 440.64
L622.922 498.528
L623.592 389.664
L624.262 463.968
L624.931 462.24
L626.27 504.576
L626.94 452.736
L627.61 472.608
L628.279 505.44
L628.949 440.64
L629.618 494.208
L630.958 447.552
L631.627 476.064
L632.297 464.832
L632.966 472.608
L633.636 414.72
L634.975 459.648
L635.645 463.968
L636.314 445.824
L636.984 492.48
L637.654 463.968
L638.323 471.744
L638.993 493.344
L639.662 440.64
L640.332 408.672
L641.002 486.432
L641.671 482.112
L642.341 473.472
L643.01 491.616
L643.68 488.16
L644.35 444.96
L645.019 491.616
L646.358 451.008
L647.028 494.208
L647.698 496.8
L648.367 511.488
L649.037 410.4
L649.706 488.16
L650.376 514.08
L651.046 481.248
L651.715 498.528
L652.385 438.912
L653.054 494.208
L653.724 470.88
L654.394 498.528
L655.063 471.744
L655.733 495.072
L657.072 446.688
L657.742 481.248
L658.411 486.432
L659.081 439.776
L659.75 490.752
L660.42 467.424
L661.09 467.424
L661.759 482.112
L662.429 476.064
L663.098 459.648
L663.768 479.52
L664.438 479.52
L665.107 477.792
L665.777 467.424
L666.446 505.44
L667.116 452.736
L667.786 496.8
L668.455 458.784
L669.125 460.512
L669.794 458.784
L670.464 488.16
L671.134 488.16
L671.803 491.616
L672.473 487.296
L673.142 500.256
L673.812 391.392
L675.151 490.752
L675.821 470.016
L676.49 452.736
L677.16 460.512
L677.83 495.072
L678.499 432
L679.169 419.04
L679.838 503.712
L680.508 485.568
L681.178 479.52
L681.847 431.136
L682.517 486.432
L683.186 466.56
L683.856 498.528
L685.195 441.504
L685.865 501.12
L686.534 484.704
L687.204 439.776
L687.874 501.984
L688.543 486.432
L689.213 491.616
L689.882 482.976
L690.552 173.664
L691.222 171.936
L691.891 203.904
L692.561 167.616
L693.23 281.664
L693.9 235.872
L694.57 163.296
L695.239 158.112
L695.909 124.416
L696.578 106.272
L697.248 189.216
L697.918 190.944
L698.587 91.584
L699.257 74.304
L699.926 186.624
L700.596 271.296
L701.266 188.352
L701.935 210.816
L702.605 247.104
L703.274 187.488
L703.944 194.4
L704.614 131.328
L705.283 224.64
L705.953 180.576
L706.622 190.08
L707.292 490.752
L707.962 446.688
L708.631 495.936
L709.301 448.416
L709.97 479.52
L710.64 492.48
L711.31 449.28
L711.979 468.288
L712.649 482.976
L713.318 464.832
L713.988 208.224
L714.658 490.752
L715.327 406.08
L715.997 490.752
L716.666 498.528
L717.336 491.616
L718.006 501.12
L718.675 449.28
L719.345 495.072
L720.014 481.248
L720.684 492.48
L721.354 487.296
L722.023 493.344
L722.693 485.568
L723.362 492.48
L724.032 494.208
L724.702 482.976
L725.371 489.024
L726.041 493.344
L726.71 464.832
L727.38 493.344
L728.05 444.096
L728.719 463.968
L729.389 476.928
L730.058 498.528
L730.728 468.288
L731.398 509.76
L732.067 113.184
L732.737 226.368
L733.406 166.752
L734.076 154.656
L734.746 292.896
L735.415 194.4
L736.085 304.128
L736.754 196.992
L737.424 136.512
L738.094 127.008
L738.763 133.056
L739.433 213.408
L740.102 464.832
L740.772 202.176
L741.442 217.728
L742.111 124.416
L742.781 180.576
L743.45 197.856
L744.12 124.416
L744.79 207.36
L745.459 215.136
L746.129 346.464
L746.798 203.04
L747.468 193.536
L748.138 105.408
L748.807 152.928
L749.477 170.208
L750.146 150.336
L750.816 228.096
L751.486 191.808
L752.155 445.824
L752.825 477.792
L753.494 486.432
L754.164 481.248
L754.834 491.616
L755.503 459.648
L756.173 451.872
L756.842 430.272
L757.512 476.928
L758.182 391.392
L758.851 489.024
L759.521 489.888
L760.19 486.432
L760.86 508.032
L761.53 346.464
L762.199 477.792
L762.869 469.152
L763.538 425.952
L764.208 487.296
L764.878 469.152
L765.547 503.712
L766.217 495.936
L766.886 476.064
L767.556 478.656
L768.226 483.84
L768.895 507.168
L769.565 457.056
L770.234 472.608
L770.904 447.552
L771.574 111.456
L772.243 228.96
L772.913 170.208
L773.582 140.832
L774.252 278.208
L774.922 254.88
L775.591 116.64
L776.261 167.616
L776.93 414.72
L777.6 122.688
L777.6 122.688" style="fill:none;stroke:#ff0000;stroke-linecap:square;"/>
   </g>
   <g id="patch_3">
    <path d="
M108 583.2
L777.6 583.2" style="fill:none;stroke:#000000;stroke-linecap:square;stroke-linejoin:miter;"/>
   </g>
   <g id="patch_4">
    <path d="
M777.6 583.2
L777.6 64.8" style="fill:none;stroke:#000000;stroke-linecap:square;stroke-linejoin:miter;"/>
   </g>
   <g id="patch_5">
    <path d="
M108 583.2
L108 64.8" style="fill:none;stroke:#000000;stroke-linecap:square;stroke-linejoin:miter;"/>
   </g>
   <g id="patch_6">
    <path d="
M108 64.8
L777.6 64.8" style="fill:none;stroke:#000000;stroke-linecap:square;stroke-linejoin:miter;"/>
   </g>
   <g id="matplotlib.axis_1">
    <g id="xtick_1">
     <g id="line2d_2">
      <defs>
       <path d="
M0 0
L0 -4" id="mc7db9fdffb" style="stroke:#000000;stroke-width:0.5;"/>
      </defs>
      <g>
       <use style="stroke:#000000;stroke-width:0.5;" x="108.0" xlink:href="#mc7db9fdffb" y="583.2"/>
      </g>
     </g>
     <g id="line2d_3">
      <defs>
       <path d="
M0 0
L0 4" id="m5a7d422ac3" style="stroke:#000000;stroke-width:0.5;"/>
      </defs>
      <g>
       <use style="stroke:#000000;stroke-width:0.5;" x="108.0" xlink:href="#m5a7d422ac3" y="64.8"/>
      </g>
     </g>
     <g id="text_1">
      <!-- 0 -->
      <defs>
       <path d="
M31.7812 66.4062
Q24.1719 66.4062 20.3281 58.9062
Q16.5 51.4219 16.5 36.375
Q16.5 21.3906 20.3281 13.8906
Q24.1719 6.39062 31.7812 6.39062
Q39.4531 6.39062 43.2812 13.8906
Q47.125 21.3906 47.125 36.375
Q47.125 51.4219 43.2812 58.9062
Q39.4531 66.4062 31.7812 66.4062
M31.7812 74.2188
Q44.0469 74.2188 50.5156 64.5156
Q56.9844 54.8281 56.9844 36.375
Q56.9844 17.9688 50.5156 8.26562
Q44.0469 -1.42188 31.7812 -1.42188
Q19.5312 -1.42188 13.0625 8.26562
Q6.59375 17.9688 6.59375 36.375
Q6.59375 54.8281 13.0625 64.5156
Q19.5312 74.2188 31.7812 74.2188" id="BitstreamVeraSans-Roman-30"/>
      </defs>
      <g transform="translate(104.9765625 596.318125)scale(0.12 -0.12)">
       <use xlink:href="#BitstreamVeraSans-Roman-30"/>
      </g>
     </g>
    </g>
    <g id="xtick_2">
     <g id="line2d_4">
      <g>
       <use style="stroke:#000000;stroke-width:0.5;" x="241.92" xlink:href="#mc7db9fdffb" y="583.2"/>
      </g>
     </g>
     <g id="line2d_5">
      <g>
       <use style="stroke:#000000;stroke-width:0.5;" x="241.92" xlink:href="#m5a7d422ac3" y="64.8"/>
      </g>
     </g>
     <g id="text_2">
      <!-- 200 -->
      <defs>
       <path d="
M19.1875 8.29688
L53.6094 8.29688
L53.6094 0
L7.32812 0
L7.32812 8.29688
Q12.9375 14.1094 22.625 23.8906
Q32.3281 33.6875 34.8125 36.5312
Q39.5469 41.8438 41.4219 45.5312
Q43.3125 49.2188 43.3125 52.7812
Q43.3125 58.5938 39.2344 62.25
Q35.1562 65.9219 28.6094 65.9219
Q23.9688 65.9219 18.8125 64.3125
Q13.6719 62.7031 7.8125 59.4219
L7.8125 69.3906
Q13.7656 71.7812 18.9375 73
Q24.125 74.2188 28.4219 74.2188
Q39.75 74.2188 46.4844 68.5469
Q53.2188 62.8906 53.2188 53.4219
Q53.2188 48.9219 51.5312 44.8906
Q49.8594 40.875 45.4062 35.4062
Q44.1875 33.9844 37.6406 27.2188
Q31.1094 20.4531 19.1875 8.29688" id="BitstreamVeraSans-Roman-32"/>
      </defs>
      <g transform="translate(231.305625 596.318125)scale(0.12 -0.12)">
       <use xlink:href="#BitstreamVeraSans-Roman-32"/>
       <use x="63.623046875" xlink:href="#BitstreamVeraSans-Roman-30"/>
       <use x="127.24609375" xlink:href="#BitstreamVeraSans-Roman-30"/>
      </g>
     </g>
    </g>
    <g id="xtick_3">
     <g id="line2d_6">
      <g>
       <use style="stroke:#000000;stroke-width:0.5;" x="375.84" xlink:href="#mc7db9fdffb" y="583.2"/>
      </g>
     </g>
     <g id="line2d_7">
      <g>
       <use style="stroke:#000000;stroke-width:0.5;" x="375.84" xlink:href="#m5a7d422ac3" y="64.8"/>
      </g>
     </g>
     <g id="text_3">
      <!-- 400 -->
      <defs>
       <path d="
M37.7969 64.3125
L12.8906 25.3906
L37.7969 25.3906
z

M35.2031 72.9062
L47.6094 72.9062
L47.6094 25.3906
L58.0156 25.3906
L58.0156 17.1875
L47.6094 17.1875
L47.6094 0
L37.7969 0
L37.7969 17.1875
L4.89062 17.1875
L4.89062 26.7031
z
" id="BitstreamVeraSans-Roman-34"/>
      </defs>
      <g transform="translate(365.079375 596.318125)scale(0.12 -0.12)">
       <use xlink:href="#BitstreamVeraSans-Roman-34"/>
       <use x="63.623046875" xlink:href="#BitstreamVeraSans-Roman-30"/>
       <use x="127.24609375" xlink:href="#BitstreamVeraSans-Roman-30"/>
      </g>
     </g>
    </g>
    <g id="xtick_4">
     <g id="line2d_8">
      <g>
       <use style="stroke:#000000;stroke-width:0.5;" x="509.76" xlink:href="#mc7db9fdffb" y="583.2"/>
      </g>
     </g>
     <g id="line2d_9">
      <g>
       <use style="stroke:#000000;stroke-width:0.5;" x="509.76" xlink:href="#m5a7d422ac3" y="64.8"/>
      </g>
     </g>
     <g id="text_4">
      <!-- 600 -->
      <defs>
       <path d="
M33.0156 40.375
Q26.375 40.375 22.4844 35.8281
Q18.6094 31.2969 18.6094 23.3906
Q18.6094 15.5312 22.4844 10.9531
Q26.375 6.39062 33.0156 6.39062
Q39.6562 6.39062 43.5312 10.9531
Q47.4062 15.5312 47.4062 23.3906
Q47.4062 31.2969 43.5312 35.8281
Q39.6562 40.375 33.0156 40.375
M52.5938 71.2969
L52.5938 62.3125
Q48.875 64.0625 45.0938 64.9844
Q41.3125 65.9219 37.5938 65.9219
Q27.8281 65.9219 22.6719 59.3281
Q17.5312 52.7344 16.7969 39.4062
Q19.6719 43.6562 24.0156 45.9219
Q28.375 48.1875 33.5938 48.1875
Q44.5781 48.1875 50.9531 41.5156
Q57.3281 34.8594 57.3281 23.3906
Q57.3281 12.1562 50.6875 5.35938
Q44.0469 -1.42188 33.0156 -1.42188
Q20.3594 -1.42188 13.6719 8.26562
Q6.98438 17.9688 6.98438 36.375
Q6.98438 53.6562 15.1875 63.9375
Q23.3906 74.2188 37.2031 74.2188
Q40.9219 74.2188 44.7031 73.4844
Q48.4844 72.75 52.5938 71.2969" id="BitstreamVeraSans-Roman-36"/>
      </defs>
      <g transform="translate(499.125 596.318125)scale(0.12 -0.12)">
       <use xlink:href="#BitstreamVeraSans-Roman-36"/>
       <use x="63.623046875" xlink:href="#BitstreamVeraSans-Roman-30"/>
       <use x="127.24609375" xlink:href="#BitstreamVeraSans-Roman-30"/>
      </g>
     </g>
    </g>
    <g id="xtick_5">
     <g id="line2d_10">
      <g>
       <use style="stroke:#000000;stroke-width:0.5;" x="643.68" xlink:href="#mc7db9fdffb" y="583.2"/>
      </g>
     </g>
     <g id="line2d_11">
      <g>
       <use style="stroke:#000000;stroke-width:0.5;" x="643.68" xlink:href="#m5a7d422ac3" y="64.8"/>
      </g>
     </g>
     <g id="text_5">
      <!-- 800 -->
      <defs>
       <path d="
M31.7812 34.625
Q24.75 34.625 20.7188 30.8594
Q16.7031 27.0938 16.7031 20.5156
Q16.7031 13.9219 20.7188 10.1562
Q24.75 6.39062 31.7812 6.39062
Q38.8125 6.39062 42.8594 10.1719
Q46.9219 13.9688 46.9219 20.5156
Q46.9219 27.0938 42.8906 30.8594
Q38.875 34.625 31.7812 34.625
M21.9219 38.8125
Q15.5781 40.375 12.0312 44.7188
Q8.5 49.0781 8.5 55.3281
Q8.5 64.0625 14.7188 69.1406
Q20.9531 74.2188 31.7812 74.2188
Q42.6719 74.2188 48.875 69.1406
Q55.0781 64.0625 55.0781 55.3281
Q55.0781 49.0781 51.5312 44.7188
Q48 40.375 41.7031 38.8125
Q48.8281 37.1562 52.7969 32.3125
Q56.7812 27.4844 56.7812 20.5156
Q56.7812 9.90625 50.3125 4.23438
Q43.8438 -1.42188 31.7812 -1.42188
Q19.7344 -1.42188 13.25 4.23438
Q6.78125 9.90625 6.78125 20.5156
Q6.78125 27.4844 10.7812 32.3125
Q14.7969 37.1562 21.9219 38.8125
M18.3125 54.3906
Q18.3125 48.7344 21.8438 45.5625
Q25.3906 42.3906 31.7812 42.3906
Q38.1406 42.3906 41.7188 45.5625
Q45.3125 48.7344 45.3125 54.3906
Q45.3125 60.0625 41.7188 63.2344
Q38.1406 66.4062 31.7812 66.4062
Q25.3906 66.4062 21.8438 63.2344
Q18.3125 60.0625 18.3125 54.3906" id="BitstreamVeraSans-Roman-38"/>
      </defs>
      <g transform="translate(633.0328125 596.318125)scale(0.12 -0.12)">
       <use xlink:href="#BitstreamVeraSans-Roman-38"/>
       <use x="63.623046875" xlink:href="#BitstreamVeraSans-Roman-30"/>
       <use x="127.24609375" xlink:href="#BitstreamVeraSans-Roman-30"/>
      </g>
     </g>
    </g>
    <g id="xtick_6">
     <g id="line2d_12">
      <g>
       <use style="stroke:#000000;stroke-width:0.5;" x="777.6" xlink:href="#mc7db9fdffb" y="583.2"/>
      </g>
     </g>
     <g id="line2d_13">
      <g>
       <use style="stroke:#000000;stroke-width:0.5;" x="777.6" xlink:href="#m5a7d422ac3" y="64.8"/>
      </g>
     </g>
     <g id="text_6">
      <!-- 1000 -->
      <defs>
       <path d="
M12.4062 8.29688
L28.5156 8.29688
L28.5156 63.9219
L10.9844 60.4062
L10.9844 69.3906
L28.4219 72.9062
L38.2812 72.9062
L38.2812 8.29688
L54.3906 8.29688
L54.3906 0
L12.4062 0
z
" id="BitstreamVeraSans-Roman-31"/>
      </defs>
      <g transform="translate(763.3875 596.318125)scale(0.12 -0.12)">
       <use xlink:href="#BitstreamVeraSans-Roman-31"/>
       <use x="63.623046875" xlink:href="#BitstreamVeraSans-Roman-30"/>
       <use x="127.24609375" xlink:href="#BitstreamVeraSans-Roman-30"/>
       <use x="190.869140625" xlink:href="#BitstreamVeraSans-Roman-30"/>
      </g>
     </g>
    </g>
    <g id="text_7">
     <!-- t / ms -->
     <defs>
      <path d="
M52 44.1875
Q55.375 50.25 60.0625 53.125
Q64.75 56 71.0938 56
Q79.6406 56 84.2812 50.0156
Q88.9219 44.0469 88.9219 33.0156
L88.9219 0
L79.8906 0
L79.8906 32.7188
Q79.8906 40.5781 77.0938 44.375
Q74.3125 48.1875 68.6094 48.1875
Q61.625 48.1875 57.5625 43.5469
Q53.5156 38.9219 53.5156 30.9062
L53.5156 0
L44.4844 0
L44.4844 32.7188
Q44.4844 40.625 41.7031 44.4062
Q38.9219 48.1875 33.1094 48.1875
Q26.2188 48.1875 22.1562 43.5312
Q18.1094 38.875 18.1094 30.9062
L18.1094 0
L9.07812 0
L9.07812 54.6875
L18.1094 54.6875
L18.1094 46.1875
Q21.1875 51.2188 25.4844 53.6094
Q29.7812 56 35.6875 56
Q41.6562 56 45.8281 52.9688
Q50 49.9531 52 44.1875" id="BitstreamVeraSans-Roman-6d"/>
      <path d="
M44.2812 53.0781
L44.2812 44.5781
Q40.4844 46.5312 36.375 47.5
Q32.2812 48.4844 27.875 48.4844
Q21.1875 48.4844 17.8438 46.4375
Q14.5 44.3906 14.5 40.2812
Q14.5 37.1562 16.8906 35.375
Q19.2812 33.5938 26.5156 31.9844
L29.5938 31.2969
Q39.1562 29.25 43.1875 25.5156
Q47.2188 21.7812 47.2188 15.0938
Q47.2188 7.46875 41.1875 3.01562
Q35.1562 -1.42188 24.6094 -1.42188
Q20.2188 -1.42188 15.4531 -0.5625
Q10.6875 0.296875 5.42188 2
L5.42188 11.2812
Q10.4062 8.6875 15.2344 7.39062
Q20.0625 6.10938 24.8125 6.10938
Q31.1562 6.10938 34.5625 8.28125
Q37.9844 10.4531 37.9844 14.4062
Q37.9844 18.0625 35.5156 20.0156
Q33.0625 21.9688 24.7031 23.7812
L21.5781 24.5156
Q13.2344 26.2656 9.51562 29.9062
Q5.8125 33.5469 5.8125 39.8906
Q5.8125 47.6094 11.2812 51.7969
Q16.75 56 26.8125 56
Q31.7812 56 36.1719 55.2656
Q40.5781 54.5469 44.2812 53.0781" id="BitstreamVeraSans-Roman-73"/>
      <path d="
M18.3125 70.2188
L18.3125 54.6875
L36.8125 54.6875
L36.8125 47.7031
L18.3125 47.7031
L18.3125 18.0156
Q18.3125 11.3281 20.1406 9.42188
Q21.9688 7.51562 27.5938 7.51562
L36.8125 7.51562
L36.8125 0
L27.5938 0
Q17.1875 0 13.2344 3.875
Q9.28125 7.76562 9.28125 18.0156
L9.28125 47.7031
L2.6875 47.7031
L2.6875 54.6875
L9.28125 54.6875
L9.28125 70.2188
z
" id="BitstreamVeraSans-Roman-74"/>
      <path id="BitstreamVeraSans-Roman-20"/>
      <path d="
M25.3906 72.9062
L33.6875 72.9062
L8.29688 -9.28125
L0 -9.28125
z
" id="BitstreamVeraSans-Roman-2f"/>
     </defs>
     <g transform="translate(425.9353125 612.931875)scale(0.12 -0.12)">
      <use xlink:href="#BitstreamVeraSans-Roman-74"/>
      <use x="39.208984375" xlink:href="#BitstreamVeraSans-Roman-20"/>
      <use x="70.99609375" xlink:href="#BitstreamVeraSans-Roman-2f"/>
      <use x="104.6875" xlink:href="#BitstreamVeraSans-Roman-20"/>
      <use x="136.474609375" xlink:href="#BitstreamVeraSans-Roman-6d"/>
      <use x="233.88671875" xlink:href="#BitstreamVeraSans-Roman-73"/>
     </g>
    </g>
   </g>
   <g id="matplotlib.axis_2">
    <g id="ytick_1">
     <g id="line2d_14">
      <defs>
       <path d="
M0 0
L4 0" id="md7965d1ba0" style="stroke:#000000;stroke-width:0.5;"/>
      </defs>
      <g>
       <use style="stroke:#000000;stroke-width:0.5;" x="108.0" xlink:href="#md7965d1ba0" y="583.2"/>
      </g>
     </g>
     <g id="line2d_15">
      <defs>
       <path d="
M0 0
L-4 0" id="md9a1c1a7cd" style="stroke:#000000;stroke-width:0.5;"/>
      </defs>
      <g>
       <use style="stroke:#000000;stroke-width:0.5;" x="777.6" xlink:href="#md9a1c1a7cd" y="583.2"/>
      </g>
     </g>
     <g id="text_8">
      <!-- 0 -->
      <g transform="translate(97.953125 586.51125)scale(0.12 -0.12)">
       <use xlink:href="#BitstreamVeraSans-Roman-30"/>
      </g>
     </g>
    </g>
    <g id="ytick_2">
     <g id="line2d_16">
      <g>
       <use style="stroke:#000000;stroke-width:0.5;" x="108.0" xlink:href="#md7965d1ba0" y="496.8"/>
      </g>
     </g>
     <g id="line2d_17">
      <g>
       <use style="stroke:#000000;stroke-width:0.5;" x="777.6" xlink:href="#md9a1c1a7cd" y="496.8"/>
      </g>
     </g>
     <g id="text_9">
      <!-- 100 -->
      <g transform="translate(83.21 500.11125)scale(0.12 -0.12)">
       <use xlink:href="#BitstreamVeraSans-Roman-31"/>
       <use x="63.623046875" xlink:href="#BitstreamVeraSans-Roman-30"/>
       <use x="127.24609375" xlink:href="#BitstreamVeraSans-Roman-30"/>
      </g>
     </g>
    </g>
    <g id="ytick_3">
     <g id="line2d_18">
      <g>
       <use style="stroke:#000000;stroke-width:0.5;" x="108.0" xlink:href="#md7965d1ba0" y="410.4"/>
      </g>
     </g>
     <g id="line2d_19">
      <g>
       <use style="stroke:#000000;stroke-width:0.5;" x="777.6" xlink:href="#md9a1c1a7cd" y="410.4"/>
      </g>
     </g>
     <g id="text_10">
      <!-- 200 -->
      <g transform="translate(82.77125 413.71125)scale(0.12 -0.12)">
       <use xlink:href="#BitstreamVeraSans-Roman-32"/>
       <use x="63.623046875" xlink:href="#BitstreamVeraSans-Roman-30"/>
       <use x="127.24609375" xlink:href="#BitstreamVeraSans-Roman-30"/>
      </g>
     </g>
    </g>
    <g id="ytick_4">
     <g id="line2d_20">
      <g>
       <use style="stroke:#000000;stroke-width:0.5;" x="108.0" xlink:href="#md7965d1ba0" y="324.0"/>
      </g>
     </g>
     <g id="line2d_21">
      <g>
       <use style="stroke:#000000;stroke-width:0.5;" x="777.6" xlink:href="#md9a1c1a7cd" y="324.0"/>
      </g>
     </g>
     <g id="text_11">
      <!-- 300 -->
      <defs>
       <path d="
M40.5781 39.3125
Q47.6562 37.7969 51.625 33
Q55.6094 28.2188 55.6094 21.1875
Q55.6094 10.4062 48.1875 4.48438
Q40.7656 -1.42188 27.0938 -1.42188
Q22.5156 -1.42188 17.6562 -0.515625
Q12.7969 0.390625 7.625 2.20312
L7.625 11.7188
Q11.7188 9.32812 16.5938 8.10938
Q21.4844 6.89062 26.8125 6.89062
Q36.0781 6.89062 40.9375 10.5469
Q45.7969 14.2031 45.7969 21.1875
Q45.7969 27.6406 41.2812 31.2656
Q36.7656 34.9062 28.7188 34.9062
L20.2188 34.9062
L20.2188 43.0156
L29.1094 43.0156
Q36.375 43.0156 40.2344 45.9219
Q44.0938 48.8281 44.0938 54.2969
Q44.0938 59.9062 40.1094 62.9062
Q36.1406 65.9219 28.7188 65.9219
Q24.6562 65.9219 20.0156 65.0312
Q15.375 64.1562 9.8125 62.3125
L9.8125 71.0938
Q15.4375 72.6562 20.3438 73.4375
Q25.25 74.2188 29.5938 74.2188
Q40.8281 74.2188 47.3594 69.1094
Q53.9062 64.0156 53.9062 55.3281
Q53.9062 49.2656 50.4375 45.0938
Q46.9688 40.9219 40.5781 39.3125" id="BitstreamVeraSans-Roman-33"/>
      </defs>
      <g transform="translate(82.806875 327.31125)scale(0.12 -0.12)">
       <use xlink:href="#BitstreamVeraSans-Roman-33"/>
       <use x="63.623046875" xlink:href="#BitstreamVeraSans-Roman-30"/>
       <use x="127.24609375" xlink:href="#BitstreamVeraSans-Roman-30"/>
      </g>
     </g>
    </g>
    <g id="ytick_5">
     <g id="line2d_22">
      <g>
       <use style="stroke:#000000;stroke-width:0.5;" x="108.0" xlink:href="#md7965d1ba0" y="237.6"/>
      </g>
     </g>
     <g id="line2d_23">
      <g>
       <use style="stroke:#000000;stroke-width:0.5;" x="777.6" xlink:href="#md9a1c1a7cd" y="237.6"/>
      </g>
     </g>
     <g id="text_12">
      <!-- 400 -->
      <g transform="translate(82.47875 240.91125)scale(0.12 -0.12)">
       <use xlink:href="#BitstreamVeraSans-Roman-34"/>
       <use x="63.623046875" xlink:href="#BitstreamVeraSans-Roman-30"/>
       <use x="127.24609375" xlink:href="#BitstreamVeraSans-Roman-30"/>
      </g>
     </g>
    </g>
    <g id="ytick_6">
     <g id="line2d_24">
      <g>
       <use style="stroke:#000000;stroke-width:0.5;" x="108.0" xlink:href="#md7965d1ba0" y="151.2"/>
      </g>
     </g>
     <g id="line2d_25">
      <g>
       <use style="stroke:#000000;stroke-width:0.5;" x="777.6" xlink:href="#md9a1c1a7cd" y="151.2"/>
      </g>
     </g>
     <g id="text_13">
      <!-- 500 -->
      <defs>
       <path d="
M10.7969 72.9062
L49.5156 72.9062
L49.5156 64.5938
L19.8281 64.5938
L19.8281 46.7344
Q21.9688 47.4688 24.1094 47.8281
Q26.2656 48.1875 28.4219 48.1875
Q40.625 48.1875 47.75 41.5
Q54.8906 34.8125 54.8906 23.3906
Q54.8906 11.625 47.5625 5.09375
Q40.2344 -1.42188 26.9062 -1.42188
Q22.3125 -1.42188 17.5469 -0.640625
Q12.7969 0.140625 7.71875 1.70312
L7.71875 11.625
Q12.1094 9.23438 16.7969 8.0625
Q21.4844 6.89062 26.7031 6.89062
Q35.1562 6.89062 40.0781 11.3281
Q45.0156 15.7656 45.0156 23.3906
Q45.0156 31 40.0781 35.4375
Q35.1562 39.8906 26.7031 39.8906
Q22.75 39.8906 18.8125 39.0156
Q14.8906 38.1406 10.7969 36.2812
z
" id="BitstreamVeraSans-Roman-35"/>
      </defs>
      <g transform="translate(82.818125 154.51125)scale(0.12 -0.12)">
       <use xlink:href="#BitstreamVeraSans-Roman-35"/>
       <use x="63.623046875" xlink:href="#BitstreamVeraSans-Roman-30"/>
       <use x="127.24609375" xlink:href="#BitstreamVeraSans-Roman-30"/>
      </g>
     </g>
    </g>
    <g id="ytick_7">
     <g id="line2d_26">
      <g>
       <use style="stroke:#000000;stroke-width:0.5;" x="108.0" xlink:href="#md7965d1ba0" y="64.8"/>
      </g>
     </g>
     <g id="line2d_27">
      <g>
       <use style="stroke:#000000;stroke-width:0.5;" x="777.6" xlink:href="#md9a1c1a7cd" y="64.8"/>
      </g>
     </g>
     <g id="text_14">
      <!-- 600 -->
      <g transform="translate(82.73 68.11125)scale(0.12 -0.12)">
       <use xlink:href="#BitstreamVeraSans-Roman-36"/>
       <use x="63.623046875" xlink:href="#BitstreamVeraSans-Roman-30"/>
       <use x="127.24609375" xlink:href="#BitstreamVeraSans-Roman-30"/>
      </g>
     </g>
    </g>
    <g id="text_15">
     <!-- particle numbers -->
     <defs>
      <path d="
M41.1094 46.2969
Q39.5938 47.1719 37.8125 47.5781
Q36.0312 48 33.8906 48
Q26.2656 48 22.1875 43.0469
Q18.1094 38.0938 18.1094 28.8125
L18.1094 0
L9.07812 0
L9.07812 54.6875
L18.1094 54.6875
L18.1094 46.1875
Q20.9531 51.1719 25.4844 53.5781
Q30.0312 56 36.5312 56
Q37.4531 56 38.5781 55.875
Q39.7031 55.7656 41.0625 55.5156
z
" id="BitstreamVeraSans-Roman-72"/>
      <path d="
M8.5 21.5781
L8.5 54.6875
L17.4844 54.6875
L17.4844 21.9219
Q17.4844 14.1562 20.5 10.2656
Q23.5312 6.39062 29.5938 6.39062
Q36.8594 6.39062 41.0781 11.0312
Q45.3125 15.6719 45.3125 23.6875
L45.3125 54.6875
L54.2969 54.6875
L54.2969 0
L45.3125 0
L45.3125 8.40625
Q42.0469 3.42188 37.7188 1
Q33.4062 -1.42188 27.6875 -1.42188
Q18.2656 -1.42188 13.375 4.4375
Q8.5 10.2969 8.5 21.5781" id="BitstreamVeraSans-Roman-75"/>
      <path d="
M9.42188 54.6875
L18.4062 54.6875
L18.4062 0
L9.42188 0
z

M9.42188 75.9844
L18.4062 75.9844
L18.4062 64.5938
L9.42188 64.5938
z
" id="BitstreamVeraSans-Roman-69"/>
      <path d="
M48.7812 52.5938
L48.7812 44.1875
Q44.9688 46.2969 41.1406 47.3438
Q37.3125 48.3906 33.4062 48.3906
Q24.6562 48.3906 19.8125 42.8438
Q14.9844 37.3125 14.9844 27.2969
Q14.9844 17.2812 19.8125 11.7344
Q24.6562 6.20312 33.4062 6.20312
Q37.3125 6.20312 41.1406 7.25
Q44.9688 8.29688 48.7812 10.4062
L48.7812 2.09375
Q45.0156 0.34375 40.9844 -0.53125
Q36.9688 -1.42188 32.4219 -1.42188
Q20.0625 -1.42188 12.7812 6.34375
Q5.51562 14.1094 5.51562 27.2969
Q5.51562 40.6719 12.8594 48.3281
Q20.2188 56 33.0156 56
Q37.1562 56 41.1094 55.1406
Q45.0625 54.2969 48.7812 52.5938" id="BitstreamVeraSans-Roman-63"/>
      <path d="
M56.2031 29.5938
L56.2031 25.2031
L14.8906 25.2031
Q15.4844 15.9219 20.4844 11.0625
Q25.4844 6.20312 34.4219 6.20312
Q39.5938 6.20312 44.4531 7.46875
Q49.3125 8.73438 54.1094 11.2812
L54.1094 2.78125
Q49.2656 0.734375 44.1875 -0.34375
Q39.1094 -1.42188 33.8906 -1.42188
Q20.7969 -1.42188 13.1562 6.1875
Q5.51562 13.8125 5.51562 26.8125
Q5.51562 40.2344 12.7656 48.1094
Q20.0156 56 32.3281 56
Q43.3594 56 49.7812 48.8906
Q56.2031 41.7969 56.2031 29.5938
M47.2188 32.2344
Q47.125 39.5938 43.0938 43.9844
Q39.0625 48.3906 32.4219 48.3906
Q24.9062 48.3906 20.3906 44.1406
Q15.875 39.8906 15.1875 32.1719
z
" id="BitstreamVeraSans-Roman-65"/>
      <path d="
M9.42188 75.9844
L18.4062 75.9844
L18.4062 0
L9.42188 0
z
" id="BitstreamVeraSans-Roman-6c"/>
      <path d="
M34.2812 27.4844
Q23.3906 27.4844 19.1875 25
Q14.9844 22.5156 14.9844 16.5
Q14.9844 11.7188 18.1406 8.90625
Q21.2969 6.10938 26.7031 6.10938
Q34.1875 6.10938 38.7031 11.4062
Q43.2188 16.7031 43.2188 25.4844
L43.2188 27.4844
z

M52.2031 31.2031
L52.2031 0
L43.2188 0
L43.2188 8.29688
Q40.1406 3.32812 35.5469 0.953125
Q30.9531 -1.42188 24.3125 -1.42188
Q15.9219 -1.42188 10.9531 3.29688
Q6 8.01562 6 15.9219
Q6 25.1406 12.1719 29.8281
Q18.3594 34.5156 30.6094 34.5156
L43.2188 34.5156
L43.2188 35.4062
Q43.2188 41.6094 39.1406 45
Q35.0625 48.3906 27.6875 48.3906
Q23 48.3906 18.5469 47.2656
Q14.1094 46.1406 10.0156 43.8906
L10.0156 52.2031
Q14.9375 54.1094 19.5781 55.0469
Q24.2188 56 28.6094 56
Q40.4844 56 46.3438 49.8438
Q52.2031 43.7031 52.2031 31.2031" id="BitstreamVeraSans-Roman-61"/>
      <path d="
M48.6875 27.2969
Q48.6875 37.2031 44.6094 42.8438
Q40.5312 48.4844 33.4062 48.4844
Q26.2656 48.4844 22.1875 42.8438
Q18.1094 37.2031 18.1094 27.2969
Q18.1094 17.3906 22.1875 11.75
Q26.2656 6.10938 33.4062 6.10938
Q40.5312 6.10938 44.6094 11.75
Q48.6875 17.3906 48.6875 27.2969
M18.1094 46.3906
Q20.9531 51.2656 25.2656 53.625
Q29.5938 56 35.5938 56
Q45.5625 56 51.7812 48.0938
Q58.0156 40.1875 58.0156 27.2969
Q58.0156 14.4062 51.7812 6.48438
Q45.5625 -1.42188 35.5938 -1.42188
Q29.5938 -1.42188 25.2656 0.953125
Q20.9531 3.32812 18.1094 8.20312
L18.1094 0
L9.07812 0
L9.07812 75.9844
L18.1094 75.9844
z
" id="BitstreamVeraSans-Roman-62"/>
      <path d="
M54.8906 33.0156
L54.8906 0
L45.9062 0
L45.9062 32.7188
Q45.9062 40.4844 42.875 44.3281
Q39.8438 48.1875 33.7969 48.1875
Q26.5156 48.1875 22.3125 43.5469
Q18.1094 38.9219 18.1094 30.9062
L18.1094 0
L9.07812 0
L9.07812 54.6875
L18.1094 54.6875
L18.1094 46.1875
Q21.3438 51.125 25.7031 53.5625
Q30.0781 56 35.7969 56
Q45.2188 56 50.0469 50.1719
Q54.8906 44.3438 54.8906 33.0156" id="BitstreamVeraSans-Roman-6e"/>
      <path d="
M18.1094 8.20312
L18.1094 -20.7969
L9.07812 -20.7969
L9.07812 54.6875
L18.1094 54.6875
L18.1094 46.3906
Q20.9531 51.2656 25.2656 53.625
Q29.5938 56 35.5938 56
Q45.5625 56 51.7812 48.0938
Q58.0156 40.1875 58.0156 27.2969
Q58.0156 14.4062 51.7812 6.48438
Q45.5625 -1.42188 35.5938 -1.42188
Q29.5938 -1.42188 25.2656 0.953125
Q20.9531 3.32812 18.1094 8.20312
M48.6875 27.2969
Q48.6875 37.2031 44.6094 42.8438
Q40.5312 48.4844 33.4062 48.4844
Q26.2656 48.4844 22.1875 42.8438
Q18.1094 37.2031 18.1094 27.2969
Q18.1094 17.3906 22.1875 11.75
Q26.2656 6.10938 33.4062 6.10938
Q40.5312 6.10938 44.6094 11.75
Q48.6875 17.3906 48.6875 27.2969" id="BitstreamVeraSans-Roman-70"/>
     </defs>
     <g transform="translate(74.983125 374.78625)rotate(-90.0)scale(0.12 -0.12)">
      <use xlink:href="#BitstreamVeraSans-Roman-70"/>
      <use x="63.4765625" xlink:href="#BitstreamVeraSans-Roman-61"/>
      <use x="124.755859375" xlink:href="#BitstreamVeraSans-Roman-72"/>
      <use x="165.869140625" xlink:href="#BitstreamVeraSans-Roman-74"/>
      <use x="205.078125" xlink:href="#BitstreamVeraSans-Roman-69"/>
      <use x="232.861328125" xlink:href="#BitstreamVeraSans-Roman-63"/>
      <use x="287.841796875" xlink:href="#BitstreamVeraSans-Roman-6c"/>
      <use x="315.625" xlink:href="#BitstreamVeraSans-Roman-65"/>
      <use x="377.1484375" xlink:href="#BitstreamVeraSans-Roman-20"/>
      <use x="408.935546875" xlink:href="#BitstreamVeraSans-Roman-6e"/>
      <use x="472.314453125" xlink:href="#BitstreamVeraSans-Roman-75"/>
      <use x="535.693359375" xlink:href="#BitstreamVeraSans-Roman-6d"/>
      <use x="633.10546875" xlink:href="#BitstreamVeraSans-Roman-62"/>
      <use x="696.58203125" xlink:href="#BitstreamVeraSans-Roman-65"/>
      <use x="758.10546875" xlink:href="#BitstreamVeraSans-Roman-72"/>
      <use x="799.21875" xlink:href="#BitstreamVeraSans-Roman-73"/>
     </g>
    </g>
   </g>
   <g id="legend_1">
    <g id="patch_7">
     <path d="
M729.421 80.6747
L774.1 80.6747
L774.1 68.3
L729.421 68.3
z
" style="fill:#ffffff;stroke:#000000;stroke-linejoin:miter;"/>
    </g>
    <g id="line2d_28">
     <path d="
M734.321 73.9689
L744.121 73.9689" style="fill:none;stroke:#ff0000;stroke-linecap:square;"/>
    </g>
    <g id="line2d_29"/>
    <g id="text_16">
     <!-- A el.0 -->
     <defs>
      <path d="
M34.1875 63.1875
L20.7969 26.9062
L47.6094 26.9062
z

M28.6094 72.9062
L39.7969 72.9062
L67.5781 0
L57.3281 0
L50.6875 18.7031
L17.8281 18.7031
L11.1875 0
L0.78125 0
z
" id="BitstreamVeraSans-Roman-41"/>
      <path d="
M10.6875 12.4062
L21 12.4062
L21 0
L10.6875 0
z
" id="BitstreamVeraSans-Roman-2e"/>
     </defs>
     <g transform="translate(751.82140625 76.41890625)scale(0.07 -0.07)">
      <use xlink:href="#BitstreamVeraSans-Roman-41"/>
      <use x="68.408203125" xlink:href="#BitstreamVeraSans-Roman-20"/>
      <use x="100.1953125" xlink:href="#BitstreamVeraSans-Roman-65"/>
      <use x="161.71875" xlink:href="#BitstreamVeraSans-Roman-6c"/>
      <use x="189.501953125" xlink:href="#BitstreamVeraSans-Roman-2e"/>
      <use x="221.2890625" xlink:href="#BitstreamVeraSans-Roman-30"/>
     </g>
    </g>
   </g>
  </g>
 </g>
 <defs>
  <clipPath id="p7ceb695115">
   <rect height="518.4" width="669.6" x="108.0" y="64.8"/>
  </clipPath>
 </defs>
</svg>
