<?xml version="1.0" encoding="utf-8" standalone="no"?>
<!DOCTYPE svg PUBLIC "-//W3C//DTD SVG 1.1//EN"
  "http://www.w3.org/Graphics/SVG/1.1/DTD/svg11.dtd">
<!-- Created with matplotlib (http://matplotlib.org/) -->
<svg height="648pt" version="1.1" viewBox="0 0 864 648" width="864pt" xmlns="http://www.w3.org/2000/svg" xmlns:xlink="http://www.w3.org/1999/xlink">
 <defs>
  <style type="text/css">
*{stroke-linecap:butt;stroke-linejoin:round;}
  </style>
 </defs>
 <g id="figure_1">
  <g id="patch_1">
   <path d="
M0 648
L864 648
L864 0
L0 0
z
" style="fill:#ffffff;"/>
  </g>
  <g id="axes_1">
   <g id="patch_2">
    <path d="
M108 583.2
L777.6 583.2
L777.6 64.8
L108 64.8
z
" style="fill:#ffffff;"/>
   </g>
   <g id="line2d_1">
    <path clip-path="url(#p7ceb695115)" d="
M108 583.2
L108.67 443.232
L109.339 432
L110.009 488.16
L110.678 417.312
L111.348 433.728
L112.018 466.56
L112.687 480.384
L113.357 464.832
L114.026 419.904
L114.696 482.112
L115.366 477.792
L116.035 476.928
L116.705 463.104
L117.374 480.384
L118.044 476.928
L118.714 499.392
L119.383 476.064
L120.053 479.52
L120.722 445.824
L122.062 228.096
L122.731 191.808
L123.401 441.504
L124.07 206.496
L124.74 69.12
L125.41 231.552
L126.079 139.968
L126.749 247.968
L127.418 108
L128.088 242.784
L128.758 246.24
L129.427 241.92
L130.097 100.224
L130.766 179.712
L131.436 216
L132.106 450.144
L133.445 481.248
L134.114 479.52
L134.784 463.968
L135.454 470.016
L136.123 481.248
L136.793 440.64
L137.462 498.528
L138.132 472.608
L138.802 416.448
L139.471 482.112
L140.141 485.568
L140.81 445.824
L141.48 467.424
L142.15 501.12
L143.489 479.52
L144.158 475.2
L144.828 480.384
L145.498 462.24
L146.167 484.704
L146.837 460.512
L147.506 476.928
L148.176 458.784
L148.846 378.432
L149.515 497.664
L150.185 484.704
L150.854 477.792
L151.524 493.344
L152.194 497.664
L152.863 457.92
L153.533 470.88
L154.202 499.392
L155.542 470.88
L156.211 484.704
L156.881 490.752
L157.55 443.232
L158.22 476.928
L158.89 430.272
L159.559 501.984
L160.229 463.104
L160.898 253.152
L161.568 238.464
L162.238 419.904
L162.907 476.928
L163.577 482.112
L164.246 451.872
L164.916 455.328
L165.586 252.288
L166.255 129.6
L166.925 198.72
L167.594 184.896
L168.264 190.944
L168.934 207.36
L169.603 88.992
L170.273 128.736
L170.942 492.48
L172.282 474.336
L172.951 474.336
L173.621 490.752
L174.29 467.424
L174.96 455.328
L175.63 470.016
L176.299 496.8
L176.969 469.152
L177.638 477.792
L178.308 464.832
L178.978 432
L179.647 492.48
L180.317 467.424
L180.986 463.968
L181.656 484.704
L182.326 477.792
L182.995 486.432
L183.665 476.064
L184.334 494.208
L185.004 495.072
L185.674 492.48
L186.343 478.656
L187.013 452.736
L187.682 500.256
L188.352 484.704
L189.022 479.52
L189.691 489.024
L190.361 480.384
L191.03 489.024
L191.7 441.504
L192.37 469.152
L193.039 458.784
L193.709 488.16
L194.378 462.24
L195.048 466.56
L195.718 498.528
L196.387 491.616
L197.057 450.144
L197.726 462.24
L198.396 362.88
L199.066 491.616
L199.735 492.48
L200.405 482.976
L201.074 450.144
L201.744 136.512
L202.414 155.52
L203.083 477.792
L203.753 508.032
L204.422 467.424
L205.092 484.704
L205.762 487.296
L206.431 482.976
L207.101 475.2
L207.77 461.376
L208.44 452.736
L209.11 439.776
L209.779 491.616
L210.449 471.744
L211.118 459.648
L211.788 493.344
L212.458 489.024
L213.127 477.792
L213.797 478.656
L214.466 503.712
L215.136 482.976
L215.806 450.144
L216.475 495.936
L217.145 495.936
L217.814 453.6
L218.484 501.12
L219.823 418.176
L220.493 495.072
L221.162 480.384
L221.832 439.776
L222.502 451.008
L223.171 466.56
L223.841 385.344
L224.51 464.832
L225.18 492.48
L225.85 489.888
L226.519 501.12
L227.189 422.496
L227.858 471.744
L228.528 494.208
L229.198 504.576
L229.867 485.568
L230.537 503.712
L231.206 496.8
L231.876 474.336
L232.546 489.888
L233.215 478.656
L233.885 476.064
L234.554 466.56
L235.224 462.24
L235.894 431.136
L236.563 496.8
L237.233 464.832
L237.902 457.056
L238.572 430.272
L239.242 481.248
L239.911 468.288
L240.581 467.424
L241.25 420.768
L241.92 460.512
L242.59 476.928
L243.259 460.512
L243.929 486.432
L244.598 330.048
L245.938 107.136
L246.607 190.944
L247.277 200.448
L247.946 259.2
L248.616 196.128
L249.286 487.296
L249.955 476.928
L250.625 421.632
L251.294 486.432
L251.964 462.24
L252.634 470.88
L253.303 501.12
L253.973 481.248
L254.642 487.296
L255.312 475.2
L255.982 447.552
L256.651 464.832
L257.321 425.952
L257.99 486.432
L258.66 470.88
L259.33 489.888
L259.999 441.504
L260.669 449.28
L261.338 406.08
L262.008 496.8
L262.678 512.352
L263.347 428.544
L264.017 464.832
L264.686 445.824
L265.356 494.208
L266.026 454.464
L266.695 489.024
L267.365 476.064
L268.034 426.816
L268.704 485.568
L269.374 495.072
L270.043 400.896
L270.713 189.216
L271.382 114.048
L272.052 173.664
L272.722 212.544
L273.391 192.672
L274.061 168.48
L274.73 221.184
L275.4 457.056
L276.07 468.288
L276.739 491.616
L277.409 431.136
L278.078 475.2
L278.748 432.864
L279.418 509.76
L280.087 485.568
L280.757 482.976
L281.426 487.296
L282.096 470.016
L282.766 476.928
L283.435 419.904
L284.105 443.232
L284.774 479.52
L285.444 494.208
L286.114 463.104
L286.783 501.12
L287.453 479.52
L288.122 486.432
L288.792 423.36
L289.462 481.248
L290.131 501.984
L290.801 478.656
L291.47 483.84
L292.14 154.656
L292.81 200.448
L293.479 209.952
L294.149 263.52
L294.818 476.064
L295.488 479.52
L296.158 416.448
L296.827 225.504
L297.497 211.68
L298.166 152.928
L298.836 173.664
L299.506 260.064
L300.175 236.736
L300.845 237.6
L301.514 131.328
L302.184 178.848
L302.854 269.568
L303.523 183.168
L304.193 142.56
L304.862 486.432
L305.532 487.296
L306.202 423.36
L306.871 476.928
L307.541 484.704
L308.21 486.432
L308.88 489.024
L309.55 499.392
L310.219 175.392
L310.889 467.424
L311.558 493.344
L312.228 482.976
L312.898 491.616
L313.567 498.528
L314.237 494.208
L314.906 487.296
L315.576 474.336
L316.246 438.912
L316.915 468.288
L317.585 474.336
L318.254 482.976
L318.924 486.432
L319.594 498.528
L320.263 401.76
L320.933 452.736
L321.602 400.896
L322.272 482.112
L322.942 445.824
L323.611 479.52
L324.281 477.792
L324.95 511.488
L325.62 481.248
L326.29 476.064
L326.959 493.344
L327.629 489.024
L328.298 504.576
L328.968 466.56
L329.638 475.2
L330.307 515.808
L330.977 482.112
L331.646 502.848
L332.316 475.2
L332.986 452.736
L333.655 482.112
L334.325 467.424
L334.994 459.648
L335.664 478.656
L336.334 505.44
L337.003 506.304
L337.673 469.152
L338.342 484.704
L339.012 445.824
L339.682 448.416
L340.351 489.024
L341.021 495.072
L341.69 469.152
L342.36 485.568
L343.03 487.296
L343.699 484.704
L344.369 486.432
L345.038 389.664
L345.708 508.032
L346.378 482.976
L347.047 479.52
L347.717 480.384
L348.386 412.992
L349.056 497.664
L349.726 471.744
L350.395 524.448
L351.065 506.304
L351.734 457.056
L353.074 510.624
L353.743 470.016
L354.413 467.424
L355.082 188.352
L355.752 199.584
L356.422 316.224
L357.091 116.64
L357.761 139.104
L358.43 171.936
L359.1 467.424
L359.77 442.368
L360.439 487.296
L361.109 449.28
L361.778 481.248
L362.448 483.84
L363.118 482.112
L363.787 392.256
L364.457 432
L365.126 488.16
L366.466 446.688
L367.135 483.84
L367.805 470.016
L368.474 476.928
L369.144 487.296
L369.814 469.152
L370.483 493.344
L371.153 501.12
L371.822 482.976
L372.492 468.288
L373.162 479.52
L373.831 476.064
L374.501 469.152
L375.17 457.056
L375.84 496.8
L376.51 406.944
L377.179 481.248
L377.849 414.72
L378.518 486.432
L379.188 502.848
L379.858 476.928
L380.527 462.24
L381.197 480.384
L381.866 493.344
L382.536 508.896
L383.206 453.6
L383.875 446.688
L384.545 486.432
L385.214 487.296
L385.884 483.84
L386.554 509.76
L387.893 462.24
L388.562 451.008
L389.232 480.384
L389.902 474.336
L390.571 497.664
L391.241 472.608
L391.91 495.936
L392.58 480.384
L393.25 170.208
L393.919 112.32
L394.589 245.376
L395.258 239.328
L395.928 196.128
L396.598 171.936
L397.267 137.376
L397.937 229.824
L398.606 187.488
L399.276 118.368
L399.946 222.912
L400.615 496.8
L401.285 489.888
L401.954 463.968
L402.624 237.6
L403.963 82.08
L404.633 124.416
L405.302 196.992
L405.972 205.632
L406.642 161.568
L407.311 174.528
L407.981 101.952
L408.65 245.376
L409.32 230.688
L409.99 159.84
L410.659 150.336
L411.329 148.608
L411.998 122.688
L412.668 143.424
L413.338 193.536
L414.007 225.504
L414.677 227.232
L415.346 162.432
L416.016 146.016
L416.686 435.456
L417.355 472.608
L418.025 457.92
L418.694 473.472
L419.364 454.464
L420.034 490.752
L420.703 492.48
L421.373 482.976
L422.042 487.296
L422.712 504.576
L423.382 454.464
L424.721 484.704
L425.39 482.976
L426.06 470.016
L426.73 515.808
L427.399 482.112
L428.069 411.264
L428.738 121.824
L429.408 246.24
L430.078 249.696
L430.747 259.2
L431.417 184.032
L432.086 143.424
L432.756 138.24
L433.426 119.232
L434.095 229.824
L434.765 293.76
L435.434 245.376
L436.104 185.76
L436.774 219.456
L437.443 226.368
L438.113 183.168
L438.782 152.064
L439.452 211.68
L440.122 191.808
L440.791 134.784
L441.461 237.6
L442.13 165.888
L442.8 144.288
L443.47 150.336
L444.139 205.632
L444.809 210.816
L445.478 293.76
L446.148 203.904
L446.818 252.288
L447.487 482.112
L448.157 449.28
L448.826 500.256
L449.496 476.064
L450.166 487.296
L450.835 481.248
L451.505 462.24
L452.174 475.2
L452.844 456.192
L453.514 468.288
L454.183 447.552
L454.853 463.968
L455.522 465.696
L456.192 466.56
L456.862 491.616
L457.531 483.84
L458.201 482.976
L458.87 496.8
L459.54 458.784
L460.21 467.424
L460.879 459.648
L461.549 458.784
L462.218 505.44
L462.888 496.8
L463.558 154.656
L464.227 123.552
L464.897 172.8
L466.236 163.296
L466.906 80.352
L467.575 369.792
L468.245 492.48
L468.914 499.392
L469.584 490.752
L470.254 476.928
L470.923 431.136
L471.593 463.968
L472.262 486.432
L472.932 477.792
L473.602 482.112
L474.271 482.976
L474.941 458.784
L475.61 488.16
L476.28 478.656
L476.95 490.752
L477.619 471.744
L478.289 477.792
L478.958 476.064
L479.628 463.968
L480.298 477.792
L480.967 509.76
L481.637 495.936
L482.306 460.512
L482.976 498.528
L483.646 482.976
L484.315 470.016
L484.985 507.168
L485.654 482.112
L486.324 495.936
L486.994 475.2
L487.663 493.344
L488.333 432.864
L489.002 489.888
L489.672 438.912
L490.342 481.248
L491.011 501.12
L491.681 462.24
L492.35 481.248
L493.02 480.384
L493.69 495.936
L494.359 486.432
L495.029 510.624
L495.698 474.336
L497.038 491.616
L497.707 485.568
L498.377 492.48
L499.046 451.008
L499.716 470.016
L500.386 480.384
L501.055 492.48
L501.725 446.688
L502.394 489.024
L503.064 486.432
L503.734 442.368
L504.403 478.656
L505.073 501.12
L505.742 485.568
L506.412 458.784
L507.751 506.304
L508.421 485.568
L509.09 478.656
L509.76 433.728
L510.43 495.072
L511.099 444.96
L511.769 482.976
L512.438 427.68
L513.108 470.88
L513.778 464.832
L514.447 495.072
L515.117 453.6
L515.786 463.968
L516.456 484.704
L517.126 471.744
L517.795 479.52
L518.465 485.568
L519.134 483.84
L519.804 461.376
L520.474 490.752
L521.143 473.472
L521.813 143.424
L522.482 158.112
L523.152 161.568
L523.822 287.712
L524.491 511.488
L525.161 487.296
L525.83 453.6
L526.5 482.976
L527.17 447.552
L527.839 471.744
L528.509 487.296
L529.178 485.568
L529.848 461.376
L530.518 468.288
L531.187 510.624
L532.526 474.336
L533.196 471.744
L533.866 489.024
L534.535 439.776
L535.874 481.248
L536.544 462.24
L537.214 448.416
L537.883 470.88
L538.553 487.296
L539.222 495.936
L539.892 476.064
L540.562 471.744
L541.231 463.104
L541.901 483.84
L542.57 497.664
L543.24 490.752
L543.91 512.352
L544.579 466.56
L545.249 480.384
L545.918 461.376
L546.588 466.56
L547.258 497.664
L547.927 476.928
L548.597 480.384
L549.266 465.696
L549.936 471.744
L550.606 482.976
L551.275 484.704
L551.945 441.504
L553.954 496.8
L554.623 499.392
L555.293 486.432
L555.962 477.792
L556.632 478.656
L557.302 481.248
L557.971 434.592
L558.641 482.976
L559.31 481.248
L559.98 414.72
L560.65 457.92
L561.319 453.6
L561.989 489.024
L562.658 477.792
L563.328 463.104
L563.998 507.168
L564.667 487.296
L565.337 477.792
L566.006 471.744
L566.676 483.84
L567.346 483.84
L568.015 456.192
L568.685 462.24
L569.354 480.384
L570.024 482.976
L570.694 458.784
L571.363 457.92
L572.033 480.384
L572.702 468.288
L573.372 501.984
L574.711 501.984
L575.381 465.696
L576.05 464.832
L576.72 499.392
L577.39 497.664
L578.059 458.784
L578.729 481.248
L579.398 488.16
L580.068 481.248
L580.738 487.296
L581.407 488.16
L582.077 482.976
L582.746 482.976
L583.416 489.888
L584.086 398.304
L584.755 461.376
L585.425 471.744
L586.094 443.232
L586.764 476.064
L587.434 487.296
L588.103 456.192
L588.773 179.712
L589.442 184.032
L590.112 406.944
L590.782 515.808
L591.451 500.256
L592.79 457.92
L593.46 442.368
L594.13 423.36
L594.799 500.256
L595.469 457.056
L596.138 507.168
L596.808 503.712
L597.478 455.328
L598.147 490.752
L598.817 451.008
L599.486 457.056
L600.156 499.392
L600.826 497.664
L602.165 477.792
L602.834 497.664
L603.504 476.064
L604.174 465.696
L604.843 488.16
L605.513 485.568
L606.182 464.832
L606.852 463.968
L607.522 497.664
L608.191 489.888
L608.861 498.528
L609.53 495.072
L610.2 453.6
L610.87 452.736
L612.209 491.616
L612.878 484.704
L613.548 223.776
L614.887 120.096
L615.557 202.176
L616.226 146.88
L616.896 233.28
L617.566 336.096
L618.235 155.52
L618.905 184.896
L619.574 239.328
L620.244 145.152
L620.914 218.592
L621.583 215.136
L622.253 158.112
L622.922 210.816
L623.592 195.264
L624.262 195.264
L624.931 213.408
L625.601 203.904
L626.27 261.792
L626.94 133.92
L627.61 145.152
L628.279 216.864
L628.949 489.024
L629.618 488.16
L630.288 431.136
L630.958 495.936
L631.627 452.736
L632.297 494.208
L632.966 511.488
L633.636 471.744
L634.306 503.712
L634.975 463.104
L635.645 435.456
L636.314 482.112
L636.984 470.88
L637.654 454.464
L638.323 452.736
L638.993 466.56
L639.662 490.752
L640.332 437.184
L641.002 487.296
L641.671 487.296
L642.341 464.832
L643.01 457.92
L643.68 462.24
L644.35 489.024
L645.019 475.2
L645.689 468.288
L646.358 500.256
L647.028 476.064
L647.698 491.616
L648.367 482.112
L649.037 495.936
L649.706 433.728
L650.376 474.336
L651.046 490.752
L651.715 471.744
L652.385 435.456
L653.054 475.2
L653.724 485.568
L654.394 476.928
L655.063 474.336
L655.733 490.752
L656.402 489.024
L657.072 475.2
L657.742 468.288
L658.411 476.928
L659.081 459.648
L659.75 473.472
L660.42 423.36
L661.09 488.16
L662.429 453.6
L663.098 492.48
L663.768 440.64
L664.438 468.288
L665.107 488.16
L665.777 488.16
L666.446 487.296
L667.116 89.856
L667.786 159.84
L668.455 183.168
L669.125 196.992
L669.794 116.64
L670.464 165.024
L671.134 183.168
L671.803 184.032
L672.473 125.28
L673.142 114.912
L673.812 173.664
L674.482 211.68
L675.151 151.2
L675.821 223.776
L676.49 139.104
L677.16 253.152
L677.83 301.536
L678.499 183.168
L679.169 196.992
L679.838 201.312
L680.508 179.712
L681.178 241.056
L681.847 251.424
L682.517 198.72
L683.186 115.776
L683.856 212.544
L684.526 127.872
L685.195 487.296
L685.865 483.84
L686.534 450.144
L687.204 480.384
L687.874 472.608
L688.543 451.008
L689.213 461.376
L689.882 466.56
L690.552 486.432
L691.222 509.76
L691.891 491.616
L692.561 463.104
L693.23 495.072
L693.9 487.296
L694.57 470.88
L695.239 462.24
L695.909 430.272
L696.578 448.416
L697.248 455.328
L697.918 489.024
L698.587 474.336
L699.257 493.344
L699.926 495.072
L700.596 463.104
L701.266 484.704
L701.935 443.232
L702.605 472.608
L703.274 450.144
L703.944 474.336
L704.614 482.112
L705.283 487.296
L705.953 507.168
L706.622 496.8
L707.292 453.6
L707.962 440.64
L708.631 443.232
L709.301 482.112
L709.97 475.2
L710.64 451.008
L711.31 504.576
L711.979 451.008
L712.649 429.408
L713.318 476.928
L713.988 499.392
L714.658 505.44
L715.327 495.072
L715.997 472.608
L716.666 458.784
L717.336 474.336
L718.006 470.016
L718.675 457.92
L719.345 457.92
L720.014 440.64
L720.684 513.216
L721.354 488.16
L722.023 470.016
L722.693 486.432
L723.362 477.792
L724.032 493.344
L724.702 439.776
L725.371 489.024
L726.041 488.16
L726.71 511.488
L727.38 483.84
L728.05 463.104
L728.719 498.528
L729.389 303.264
L730.058 476.928
L730.728 466.56
L731.398 450.144
L732.067 428.544
L733.406 489.888
L734.746 424.224
L735.415 476.064
L736.085 485.568
L736.754 502.848
L737.424 474.336
L738.094 483.84
L738.763 503.712
L739.433 490.752
L740.102 498.528
L740.772 496.8
L741.442 443.232
L742.111 504.576
L742.781 450.144
L743.45 476.928
L744.12 514.944
L744.79 489.024
L745.459 472.608
L746.129 476.928
L746.798 489.024
L747.468 491.616
L748.138 457.92
L748.807 489.024
L749.477 385.344
L750.146 501.984
L750.816 353.376
L751.486 158.112
L752.155 188.352
L752.825 157.248
L753.494 241.056
L754.164 188.352
L754.834 186.624
L755.503 80.352
L756.173 155.52
L756.842 165.888
L757.512 169.344
L758.182 205.632
L758.851 128.736
L759.521 114.048
L760.19 131.328
L760.86 485.568
L761.53 478.656
L762.199 465.696
L762.869 463.104
L763.538 467.424
L764.208 464.832
L764.878 426.816
L765.547 476.928
L766.217 454.464
L766.886 490.752
L767.556 498.528
L768.226 410.4
L768.895 458.784
L769.565 470.016
L770.234 470.016
L770.904 463.104
L771.574 469.152
L772.243 478.656
L772.913 402.624
L773.582 476.064
L774.252 463.968
L774.922 466.56
L775.591 497.664
L776.261 470.88
L776.93 479.52
L777.6 480.384
L777.6 480.384" style="fill:none;stroke:#ff0000;stroke-linecap:square;"/>
   </g>
   <g id="patch_3">
    <path d="
M108 64.8
L777.6 64.8" style="fill:none;stroke:#000000;stroke-linecap:square;stroke-linejoin:miter;"/>
   </g>
   <g id="patch_4">
    <path d="
M108 583.2
L108 64.8" style="fill:none;stroke:#000000;stroke-linecap:square;stroke-linejoin:miter;"/>
   </g>
   <g id="patch_5">
    <path d="
M777.6 583.2
L777.6 64.8" style="fill:none;stroke:#000000;stroke-linecap:square;stroke-linejoin:miter;"/>
   </g>
   <g id="patch_6">
    <path d="
M108 583.2
L777.6 583.2" style="fill:none;stroke:#000000;stroke-linecap:square;stroke-linejoin:miter;"/>
   </g>
   <g id="matplotlib.axis_1">
    <g id="xtick_1">
     <g id="line2d_2">
      <defs>
       <path d="
M0 0
L0 -4" id="mc7db9fdffb" style="stroke:#000000;stroke-width:0.5;"/>
      </defs>
      <g>
       <use style="stroke:#000000;stroke-width:0.5;" x="108.0" xlink:href="#mc7db9fdffb" y="583.2"/>
      </g>
     </g>
     <g id="line2d_3">
      <defs>
       <path d="
M0 0
L0 4" id="m5a7d422ac3" style="stroke:#000000;stroke-width:0.5;"/>
      </defs>
      <g>
       <use style="stroke:#000000;stroke-width:0.5;" x="108.0" xlink:href="#m5a7d422ac3" y="64.8"/>
      </g>
     </g>
     <g id="text_1">
      <!-- 0 -->
      <defs>
       <path d="
M31.7812 66.4062
Q24.1719 66.4062 20.3281 58.9062
Q16.5 51.4219 16.5 36.375
Q16.5 21.3906 20.3281 13.8906
Q24.1719 6.39062 31.7812 6.39062
Q39.4531 6.39062 43.2812 13.8906
Q47.125 21.3906 47.125 36.375
Q47.125 51.4219 43.2812 58.9062
Q39.4531 66.4062 31.7812 66.4062
M31.7812 74.2188
Q44.0469 74.2188 50.5156 64.5156
Q56.9844 54.8281 56.9844 36.375
Q56.9844 17.9688 50.5156 8.26562
Q44.0469 -1.42188 31.7812 -1.42188
Q19.5312 -1.42188 13.0625 8.26562
Q6.59375 17.9688 6.59375 36.375
Q6.59375 54.8281 13.0625 64.5156
Q19.5312 74.2188 31.7812 74.2188" id="BitstreamVeraSans-Roman-30"/>
      </defs>
      <g transform="translate(104.9765625 596.318125)scale(0.12 -0.12)">
       <use xlink:href="#BitstreamVeraSans-Roman-30"/>
      </g>
     </g>
    </g>
    <g id="xtick_2">
     <g id="line2d_4">
      <g>
       <use style="stroke:#000000;stroke-width:0.5;" x="241.92" xlink:href="#mc7db9fdffb" y="583.2"/>
      </g>
     </g>
     <g id="line2d_5">
      <g>
       <use style="stroke:#000000;stroke-width:0.5;" x="241.92" xlink:href="#m5a7d422ac3" y="64.8"/>
      </g>
     </g>
     <g id="text_2">
      <!-- 200 -->
      <defs>
       <path d="
M19.1875 8.29688
L53.6094 8.29688
L53.6094 0
L7.32812 0
L7.32812 8.29688
Q12.9375 14.1094 22.625 23.8906
Q32.3281 33.6875 34.8125 36.5312
Q39.5469 41.8438 41.4219 45.5312
Q43.3125 49.2188 43.3125 52.7812
Q43.3125 58.5938 39.2344 62.25
Q35.1562 65.9219 28.6094 65.9219
Q23.9688 65.9219 18.8125 64.3125
Q13.6719 62.7031 7.8125 59.4219
L7.8125 69.3906
Q13.7656 71.7812 18.9375 73
Q24.125 74.2188 28.4219 74.2188
Q39.75 74.2188 46.4844 68.5469
Q53.2188 62.8906 53.2188 53.4219
Q53.2188 48.9219 51.5312 44.8906
Q49.8594 40.875 45.4062 35.4062
Q44.1875 33.9844 37.6406 27.2188
Q31.1094 20.4531 19.1875 8.29688" id="BitstreamVeraSans-Roman-32"/>
      </defs>
      <g transform="translate(231.305625 596.318125)scale(0.12 -0.12)">
       <use xlink:href="#BitstreamVeraSans-Roman-32"/>
       <use x="63.623046875" xlink:href="#BitstreamVeraSans-Roman-30"/>
       <use x="127.24609375" xlink:href="#BitstreamVeraSans-Roman-30"/>
      </g>
     </g>
    </g>
    <g id="xtick_3">
     <g id="line2d_6">
      <g>
       <use style="stroke:#000000;stroke-width:0.5;" x="375.84" xlink:href="#mc7db9fdffb" y="583.2"/>
      </g>
     </g>
     <g id="line2d_7">
      <g>
       <use style="stroke:#000000;stroke-width:0.5;" x="375.84" xlink:href="#m5a7d422ac3" y="64.8"/>
      </g>
     </g>
     <g id="text_3">
      <!-- 400 -->
      <defs>
       <path d="
M37.7969 64.3125
L12.8906 25.3906
L37.7969 25.3906
z

M35.2031 72.9062
L47.6094 72.9062
L47.6094 25.3906
L58.0156 25.3906
L58.0156 17.1875
L47.6094 17.1875
L47.6094 0
L37.7969 0
L37.7969 17.1875
L4.89062 17.1875
L4.89062 26.7031
z
" id="BitstreamVeraSans-Roman-34"/>
      </defs>
      <g transform="translate(365.079375 596.318125)scale(0.12 -0.12)">
       <use xlink:href="#BitstreamVeraSans-Roman-34"/>
       <use x="63.623046875" xlink:href="#BitstreamVeraSans-Roman-30"/>
       <use x="127.24609375" xlink:href="#BitstreamVeraSans-Roman-30"/>
      </g>
     </g>
    </g>
    <g id="xtick_4">
     <g id="line2d_8">
      <g>
       <use style="stroke:#000000;stroke-width:0.5;" x="509.76" xlink:href="#mc7db9fdffb" y="583.2"/>
      </g>
     </g>
     <g id="line2d_9">
      <g>
       <use style="stroke:#000000;stroke-width:0.5;" x="509.76" xlink:href="#m5a7d422ac3" y="64.8"/>
      </g>
     </g>
     <g id="text_4">
      <!-- 600 -->
      <defs>
       <path d="
M33.0156 40.375
Q26.375 40.375 22.4844 35.8281
Q18.6094 31.2969 18.6094 23.3906
Q18.6094 15.5312 22.4844 10.9531
Q26.375 6.39062 33.0156 6.39062
Q39.6562 6.39062 43.5312 10.9531
Q47.4062 15.5312 47.4062 23.3906
Q47.4062 31.2969 43.5312 35.8281
Q39.6562 40.375 33.0156 40.375
M52.5938 71.2969
L52.5938 62.3125
Q48.875 64.0625 45.0938 64.9844
Q41.3125 65.9219 37.5938 65.9219
Q27.8281 65.9219 22.6719 59.3281
Q17.5312 52.7344 16.7969 39.4062
Q19.6719 43.6562 24.0156 45.9219
Q28.375 48.1875 33.5938 48.1875
Q44.5781 48.1875 50.9531 41.5156
Q57.3281 34.8594 57.3281 23.3906
Q57.3281 12.1562 50.6875 5.35938
Q44.0469 -1.42188 33.0156 -1.42188
Q20.3594 -1.42188 13.6719 8.26562
Q6.98438 17.9688 6.98438 36.375
Q6.98438 53.6562 15.1875 63.9375
Q23.3906 74.2188 37.2031 74.2188
Q40.9219 74.2188 44.7031 73.4844
Q48.4844 72.75 52.5938 71.2969" id="BitstreamVeraSans-Roman-36"/>
      </defs>
      <g transform="translate(499.125 596.318125)scale(0.12 -0.12)">
       <use xlink:href="#BitstreamVeraSans-Roman-36"/>
       <use x="63.623046875" xlink:href="#BitstreamVeraSans-Roman-30"/>
       <use x="127.24609375" xlink:href="#BitstreamVeraSans-Roman-30"/>
      </g>
     </g>
    </g>
    <g id="xtick_5">
     <g id="line2d_10">
      <g>
       <use style="stroke:#000000;stroke-width:0.5;" x="643.68" xlink:href="#mc7db9fdffb" y="583.2"/>
      </g>
     </g>
     <g id="line2d_11">
      <g>
       <use style="stroke:#000000;stroke-width:0.5;" x="643.68" xlink:href="#m5a7d422ac3" y="64.8"/>
      </g>
     </g>
     <g id="text_5">
      <!-- 800 -->
      <defs>
       <path d="
M31.7812 34.625
Q24.75 34.625 20.7188 30.8594
Q16.7031 27.0938 16.7031 20.5156
Q16.7031 13.9219 20.7188 10.1562
Q24.75 6.39062 31.7812 6.39062
Q38.8125 6.39062 42.8594 10.1719
Q46.9219 13.9688 46.9219 20.5156
Q46.9219 27.0938 42.8906 30.8594
Q38.875 34.625 31.7812 34.625
M21.9219 38.8125
Q15.5781 40.375 12.0312 44.7188
Q8.5 49.0781 8.5 55.3281
Q8.5 64.0625 14.7188 69.1406
Q20.9531 74.2188 31.7812 74.2188
Q42.6719 74.2188 48.875 69.1406
Q55.0781 64.0625 55.0781 55.3281
Q55.0781 49.0781 51.5312 44.7188
Q48 40.375 41.7031 38.8125
Q48.8281 37.1562 52.7969 32.3125
Q56.7812 27.4844 56.7812 20.5156
Q56.7812 9.90625 50.3125 4.23438
Q43.8438 -1.42188 31.7812 -1.42188
Q19.7344 -1.42188 13.25 4.23438
Q6.78125 9.90625 6.78125 20.5156
Q6.78125 27.4844 10.7812 32.3125
Q14.7969 37.1562 21.9219 38.8125
M18.3125 54.3906
Q18.3125 48.7344 21.8438 45.5625
Q25.3906 42.3906 31.7812 42.3906
Q38.1406 42.3906 41.7188 45.5625
Q45.3125 48.7344 45.3125 54.3906
Q45.3125 60.0625 41.7188 63.2344
Q38.1406 66.4062 31.7812 66.4062
Q25.3906 66.4062 21.8438 63.2344
Q18.3125 60.0625 18.3125 54.3906" id="BitstreamVeraSans-Roman-38"/>
      </defs>
      <g transform="translate(633.0328125 596.318125)scale(0.12 -0.12)">
       <use xlink:href="#BitstreamVeraSans-Roman-38"/>
       <use x="63.623046875" xlink:href="#BitstreamVeraSans-Roman-30"/>
       <use x="127.24609375" xlink:href="#BitstreamVeraSans-Roman-30"/>
      </g>
     </g>
    </g>
    <g id="xtick_6">
     <g id="line2d_12">
      <g>
       <use style="stroke:#000000;stroke-width:0.5;" x="777.6" xlink:href="#mc7db9fdffb" y="583.2"/>
      </g>
     </g>
     <g id="line2d_13">
      <g>
       <use style="stroke:#000000;stroke-width:0.5;" x="777.6" xlink:href="#m5a7d422ac3" y="64.8"/>
      </g>
     </g>
     <g id="text_6">
      <!-- 1000 -->
      <defs>
       <path d="
M12.4062 8.29688
L28.5156 8.29688
L28.5156 63.9219
L10.9844 60.4062
L10.9844 69.3906
L28.4219 72.9062
L38.2812 72.9062
L38.2812 8.29688
L54.3906 8.29688
L54.3906 0
L12.4062 0
z
" id="BitstreamVeraSans-Roman-31"/>
      </defs>
      <g transform="translate(763.3875 596.318125)scale(0.12 -0.12)">
       <use xlink:href="#BitstreamVeraSans-Roman-31"/>
       <use x="63.623046875" xlink:href="#BitstreamVeraSans-Roman-30"/>
       <use x="127.24609375" xlink:href="#BitstreamVeraSans-Roman-30"/>
       <use x="190.869140625" xlink:href="#BitstreamVeraSans-Roman-30"/>
      </g>
     </g>
    </g>
    <g id="text_7">
     <!-- t / ms -->
     <defs>
      <path d="
M44.2812 53.0781
L44.2812 44.5781
Q40.4844 46.5312 36.375 47.5
Q32.2812 48.4844 27.875 48.4844
Q21.1875 48.4844 17.8438 46.4375
Q14.5 44.3906 14.5 40.2812
Q14.5 37.1562 16.8906 35.375
Q19.2812 33.5938 26.5156 31.9844
L29.5938 31.2969
Q39.1562 29.25 43.1875 25.5156
Q47.2188 21.7812 47.2188 15.0938
Q47.2188 7.46875 41.1875 3.01562
Q35.1562 -1.42188 24.6094 -1.42188
Q20.2188 -1.42188 15.4531 -0.5625
Q10.6875 0.296875 5.42188 2
L5.42188 11.2812
Q10.4062 8.6875 15.2344 7.39062
Q20.0625 6.10938 24.8125 6.10938
Q31.1562 6.10938 34.5625 8.28125
Q37.9844 10.4531 37.9844 14.4062
Q37.9844 18.0625 35.5156 20.0156
Q33.0625 21.9688 24.7031 23.7812
L21.5781 24.5156
Q13.2344 26.2656 9.51562 29.9062
Q5.8125 33.5469 5.8125 39.8906
Q5.8125 47.6094 11.2812 51.7969
Q16.75 56 26.8125 56
Q31.7812 56 36.1719 55.2656
Q40.5781 54.5469 44.2812 53.0781" id="BitstreamVeraSans-Roman-73"/>
      <path d="
M52 44.1875
Q55.375 50.25 60.0625 53.125
Q64.75 56 71.0938 56
Q79.6406 56 84.2812 50.0156
Q88.9219 44.0469 88.9219 33.0156
L88.9219 0
L79.8906 0
L79.8906 32.7188
Q79.8906 40.5781 77.0938 44.375
Q74.3125 48.1875 68.6094 48.1875
Q61.625 48.1875 57.5625 43.5469
Q53.5156 38.9219 53.5156 30.9062
L53.5156 0
L44.4844 0
L44.4844 32.7188
Q44.4844 40.625 41.7031 44.4062
Q38.9219 48.1875 33.1094 48.1875
Q26.2188 48.1875 22.1562 43.5312
Q18.1094 38.875 18.1094 30.9062
L18.1094 0
L9.07812 0
L9.07812 54.6875
L18.1094 54.6875
L18.1094 46.1875
Q21.1875 51.2188 25.4844 53.6094
Q29.7812 56 35.6875 56
Q41.6562 56 45.8281 52.9688
Q50 49.9531 52 44.1875" id="BitstreamVeraSans-Roman-6d"/>
      <path id="BitstreamVeraSans-Roman-20"/>
      <path d="
M18.3125 70.2188
L18.3125 54.6875
L36.8125 54.6875
L36.8125 47.7031
L18.3125 47.7031
L18.3125 18.0156
Q18.3125 11.3281 20.1406 9.42188
Q21.9688 7.51562 27.5938 7.51562
L36.8125 7.51562
L36.8125 0
L27.5938 0
Q17.1875 0 13.2344 3.875
Q9.28125 7.76562 9.28125 18.0156
L9.28125 47.7031
L2.6875 47.7031
L2.6875 54.6875
L9.28125 54.6875
L9.28125 70.2188
z
" id="BitstreamVeraSans-Roman-74"/>
      <path d="
M25.3906 72.9062
L33.6875 72.9062
L8.29688 -9.28125
L0 -9.28125
z
" id="BitstreamVeraSans-Roman-2f"/>
     </defs>
     <g transform="translate(425.9353125 612.931875)scale(0.12 -0.12)">
      <use xlink:href="#BitstreamVeraSans-Roman-74"/>
      <use x="39.208984375" xlink:href="#BitstreamVeraSans-Roman-20"/>
      <use x="70.99609375" xlink:href="#BitstreamVeraSans-Roman-2f"/>
      <use x="104.6875" xlink:href="#BitstreamVeraSans-Roman-20"/>
      <use x="136.474609375" xlink:href="#BitstreamVeraSans-Roman-6d"/>
      <use x="233.88671875" xlink:href="#BitstreamVeraSans-Roman-73"/>
     </g>
    </g>
   </g>
   <g id="matplotlib.axis_2">
    <g id="ytick_1">
     <g id="line2d_14">
      <defs>
       <path d="
M0 0
L4 0" id="md7965d1ba0" style="stroke:#000000;stroke-width:0.5;"/>
      </defs>
      <g>
       <use style="stroke:#000000;stroke-width:0.5;" x="108.0" xlink:href="#md7965d1ba0" y="583.2"/>
      </g>
     </g>
     <g id="line2d_15">
      <defs>
       <path d="
M0 0
L-4 0" id="md9a1c1a7cd" style="stroke:#000000;stroke-width:0.5;"/>
      </defs>
      <g>
       <use style="stroke:#000000;stroke-width:0.5;" x="777.6" xlink:href="#md9a1c1a7cd" y="583.2"/>
      </g>
     </g>
     <g id="text_8">
      <!-- 0 -->
      <g transform="translate(97.953125 586.51125)scale(0.12 -0.12)">
       <use xlink:href="#BitstreamVeraSans-Roman-30"/>
      </g>
     </g>
    </g>
    <g id="ytick_2">
     <g id="line2d_16">
      <g>
       <use style="stroke:#000000;stroke-width:0.5;" x="108.0" xlink:href="#md7965d1ba0" y="496.8"/>
      </g>
     </g>
     <g id="line2d_17">
      <g>
       <use style="stroke:#000000;stroke-width:0.5;" x="777.6" xlink:href="#md9a1c1a7cd" y="496.8"/>
      </g>
     </g>
     <g id="text_9">
      <!-- 100 -->
      <g transform="translate(83.21 500.11125)scale(0.12 -0.12)">
       <use xlink:href="#BitstreamVeraSans-Roman-31"/>
       <use x="63.623046875" xlink:href="#BitstreamVeraSans-Roman-30"/>
       <use x="127.24609375" xlink:href="#BitstreamVeraSans-Roman-30"/>
      </g>
     </g>
    </g>
    <g id="ytick_3">
     <g id="line2d_18">
      <g>
       <use style="stroke:#000000;stroke-width:0.5;" x="108.0" xlink:href="#md7965d1ba0" y="410.4"/>
      </g>
     </g>
     <g id="line2d_19">
      <g>
       <use style="stroke:#000000;stroke-width:0.5;" x="777.6" xlink:href="#md9a1c1a7cd" y="410.4"/>
      </g>
     </g>
     <g id="text_10">
      <!-- 200 -->
      <g transform="translate(82.77125 413.71125)scale(0.12 -0.12)">
       <use xlink:href="#BitstreamVeraSans-Roman-32"/>
       <use x="63.623046875" xlink:href="#BitstreamVeraSans-Roman-30"/>
       <use x="127.24609375" xlink:href="#BitstreamVeraSans-Roman-30"/>
      </g>
     </g>
    </g>
    <g id="ytick_4">
     <g id="line2d_20">
      <g>
       <use style="stroke:#000000;stroke-width:0.5;" x="108.0" xlink:href="#md7965d1ba0" y="324.0"/>
      </g>
     </g>
     <g id="line2d_21">
      <g>
       <use style="stroke:#000000;stroke-width:0.5;" x="777.6" xlink:href="#md9a1c1a7cd" y="324.0"/>
      </g>
     </g>
     <g id="text_11">
      <!-- 300 -->
      <defs>
       <path d="
M40.5781 39.3125
Q47.6562 37.7969 51.625 33
Q55.6094 28.2188 55.6094 21.1875
Q55.6094 10.4062 48.1875 4.48438
Q40.7656 -1.42188 27.0938 -1.42188
Q22.5156 -1.42188 17.6562 -0.515625
Q12.7969 0.390625 7.625 2.20312
L7.625 11.7188
Q11.7188 9.32812 16.5938 8.10938
Q21.4844 6.89062 26.8125 6.89062
Q36.0781 6.89062 40.9375 10.5469
Q45.7969 14.2031 45.7969 21.1875
Q45.7969 27.6406 41.2812 31.2656
Q36.7656 34.9062 28.7188 34.9062
L20.2188 34.9062
L20.2188 43.0156
L29.1094 43.0156
Q36.375 43.0156 40.2344 45.9219
Q44.0938 48.8281 44.0938 54.2969
Q44.0938 59.9062 40.1094 62.9062
Q36.1406 65.9219 28.7188 65.9219
Q24.6562 65.9219 20.0156 65.0312
Q15.375 64.1562 9.8125 62.3125
L9.8125 71.0938
Q15.4375 72.6562 20.3438 73.4375
Q25.25 74.2188 29.5938 74.2188
Q40.8281 74.2188 47.3594 69.1094
Q53.9062 64.0156 53.9062 55.3281
Q53.9062 49.2656 50.4375 45.0938
Q46.9688 40.9219 40.5781 39.3125" id="BitstreamVeraSans-Roman-33"/>
      </defs>
      <g transform="translate(82.806875 327.31125)scale(0.12 -0.12)">
       <use xlink:href="#BitstreamVeraSans-Roman-33"/>
       <use x="63.623046875" xlink:href="#BitstreamVeraSans-Roman-30"/>
       <use x="127.24609375" xlink:href="#BitstreamVeraSans-Roman-30"/>
      </g>
     </g>
    </g>
    <g id="ytick_5">
     <g id="line2d_22">
      <g>
       <use style="stroke:#000000;stroke-width:0.5;" x="108.0" xlink:href="#md7965d1ba0" y="237.6"/>
      </g>
     </g>
     <g id="line2d_23">
      <g>
       <use style="stroke:#000000;stroke-width:0.5;" x="777.6" xlink:href="#md9a1c1a7cd" y="237.6"/>
      </g>
     </g>
     <g id="text_12">
      <!-- 400 -->
      <g transform="translate(82.47875 240.91125)scale(0.12 -0.12)">
       <use xlink:href="#BitstreamVeraSans-Roman-34"/>
       <use x="63.623046875" xlink:href="#BitstreamVeraSans-Roman-30"/>
       <use x="127.24609375" xlink:href="#BitstreamVeraSans-Roman-30"/>
      </g>
     </g>
    </g>
    <g id="ytick_6">
     <g id="line2d_24">
      <g>
       <use style="stroke:#000000;stroke-width:0.5;" x="108.0" xlink:href="#md7965d1ba0" y="151.2"/>
      </g>
     </g>
     <g id="line2d_25">
      <g>
       <use style="stroke:#000000;stroke-width:0.5;" x="777.6" xlink:href="#md9a1c1a7cd" y="151.2"/>
      </g>
     </g>
     <g id="text_13">
      <!-- 500 -->
      <defs>
       <path d="
M10.7969 72.9062
L49.5156 72.9062
L49.5156 64.5938
L19.8281 64.5938
L19.8281 46.7344
Q21.9688 47.4688 24.1094 47.8281
Q26.2656 48.1875 28.4219 48.1875
Q40.625 48.1875 47.75 41.5
Q54.8906 34.8125 54.8906 23.3906
Q54.8906 11.625 47.5625 5.09375
Q40.2344 -1.42188 26.9062 -1.42188
Q22.3125 -1.42188 17.5469 -0.640625
Q12.7969 0.140625 7.71875 1.70312
L7.71875 11.625
Q12.1094 9.23438 16.7969 8.0625
Q21.4844 6.89062 26.7031 6.89062
Q35.1562 6.89062 40.0781 11.3281
Q45.0156 15.7656 45.0156 23.3906
Q45.0156 31 40.0781 35.4375
Q35.1562 39.8906 26.7031 39.8906
Q22.75 39.8906 18.8125 39.0156
Q14.8906 38.1406 10.7969 36.2812
z
" id="BitstreamVeraSans-Roman-35"/>
      </defs>
      <g transform="translate(82.818125 154.51125)scale(0.12 -0.12)">
       <use xlink:href="#BitstreamVeraSans-Roman-35"/>
       <use x="63.623046875" xlink:href="#BitstreamVeraSans-Roman-30"/>
       <use x="127.24609375" xlink:href="#BitstreamVeraSans-Roman-30"/>
      </g>
     </g>
    </g>
    <g id="ytick_7">
     <g id="line2d_26">
      <g>
       <use style="stroke:#000000;stroke-width:0.5;" x="108.0" xlink:href="#md7965d1ba0" y="64.8"/>
      </g>
     </g>
     <g id="line2d_27">
      <g>
       <use style="stroke:#000000;stroke-width:0.5;" x="777.6" xlink:href="#md9a1c1a7cd" y="64.8"/>
      </g>
     </g>
     <g id="text_14">
      <!-- 600 -->
      <g transform="translate(82.73 68.11125)scale(0.12 -0.12)">
       <use xlink:href="#BitstreamVeraSans-Roman-36"/>
       <use x="63.623046875" xlink:href="#BitstreamVeraSans-Roman-30"/>
       <use x="127.24609375" xlink:href="#BitstreamVeraSans-Roman-30"/>
      </g>
     </g>
    </g>
    <g id="text_15">
     <!-- particle numbers -->
     <defs>
      <path d="
M18.1094 8.20312
L18.1094 -20.7969
L9.07812 -20.7969
L9.07812 54.6875
L18.1094 54.6875
L18.1094 46.3906
Q20.9531 51.2656 25.2656 53.625
Q29.5938 56 35.5938 56
Q45.5625 56 51.7812 48.0938
Q58.0156 40.1875 58.0156 27.2969
Q58.0156 14.4062 51.7812 6.48438
Q45.5625 -1.42188 35.5938 -1.42188
Q29.5938 -1.42188 25.2656 0.953125
Q20.9531 3.32812 18.1094 8.20312
M48.6875 27.2969
Q48.6875 37.2031 44.6094 42.8438
Q40.5312 48.4844 33.4062 48.4844
Q26.2656 48.4844 22.1875 42.8438
Q18.1094 37.2031 18.1094 27.2969
Q18.1094 17.3906 22.1875 11.75
Q26.2656 6.10938 33.4062 6.10938
Q40.5312 6.10938 44.6094 11.75
Q48.6875 17.3906 48.6875 27.2969" id="BitstreamVeraSans-Roman-70"/>
      <path d="
M9.42188 54.6875
L18.4062 54.6875
L18.4062 0
L9.42188 0
z

M9.42188 75.9844
L18.4062 75.9844
L18.4062 64.5938
L9.42188 64.5938
z
" id="BitstreamVeraSans-Roman-69"/>
      <path d="
M9.42188 75.9844
L18.4062 75.9844
L18.4062 0
L9.42188 0
z
" id="BitstreamVeraSans-Roman-6c"/>
      <path d="
M41.1094 46.2969
Q39.5938 47.1719 37.8125 47.5781
Q36.0312 48 33.8906 48
Q26.2656 48 22.1875 43.0469
Q18.1094 38.0938 18.1094 28.8125
L18.1094 0
L9.07812 0
L9.07812 54.6875
L18.1094 54.6875
L18.1094 46.1875
Q20.9531 51.1719 25.4844 53.5781
Q30.0312 56 36.5312 56
Q37.4531 56 38.5781 55.875
Q39.7031 55.7656 41.0625 55.5156
z
" id="BitstreamVeraSans-Roman-72"/>
      <path d="
M56.2031 29.5938
L56.2031 25.2031
L14.8906 25.2031
Q15.4844 15.9219 20.4844 11.0625
Q25.4844 6.20312 34.4219 6.20312
Q39.5938 6.20312 44.4531 7.46875
Q49.3125 8.73438 54.1094 11.2812
L54.1094 2.78125
Q49.2656 0.734375 44.1875 -0.34375
Q39.1094 -1.42188 33.8906 -1.42188
Q20.7969 -1.42188 13.1562 6.1875
Q5.51562 13.8125 5.51562 26.8125
Q5.51562 40.2344 12.7656 48.1094
Q20.0156 56 32.3281 56
Q43.3594 56 49.7812 48.8906
Q56.2031 41.7969 56.2031 29.5938
M47.2188 32.2344
Q47.125 39.5938 43.0938 43.9844
Q39.0625 48.3906 32.4219 48.3906
Q24.9062 48.3906 20.3906 44.1406
Q15.875 39.8906 15.1875 32.1719
z
" id="BitstreamVeraSans-Roman-65"/>
      <path d="
M54.8906 33.0156
L54.8906 0
L45.9062 0
L45.9062 32.7188
Q45.9062 40.4844 42.875 44.3281
Q39.8438 48.1875 33.7969 48.1875
Q26.5156 48.1875 22.3125 43.5469
Q18.1094 38.9219 18.1094 30.9062
L18.1094 0
L9.07812 0
L9.07812 54.6875
L18.1094 54.6875
L18.1094 46.1875
Q21.3438 51.125 25.7031 53.5625
Q30.0781 56 35.7969 56
Q45.2188 56 50.0469 50.1719
Q54.8906 44.3438 54.8906 33.0156" id="BitstreamVeraSans-Roman-6e"/>
      <path d="
M8.5 21.5781
L8.5 54.6875
L17.4844 54.6875
L17.4844 21.9219
Q17.4844 14.1562 20.5 10.2656
Q23.5312 6.39062 29.5938 6.39062
Q36.8594 6.39062 41.0781 11.0312
Q45.3125 15.6719 45.3125 23.6875
L45.3125 54.6875
L54.2969 54.6875
L54.2969 0
L45.3125 0
L45.3125 8.40625
Q42.0469 3.42188 37.7188 1
Q33.4062 -1.42188 27.6875 -1.42188
Q18.2656 -1.42188 13.375 4.4375
Q8.5 10.2969 8.5 21.5781" id="BitstreamVeraSans-Roman-75"/>
      <path d="
M34.2812 27.4844
Q23.3906 27.4844 19.1875 25
Q14.9844 22.5156 14.9844 16.5
Q14.9844 11.7188 18.1406 8.90625
Q21.2969 6.10938 26.7031 6.10938
Q34.1875 6.10938 38.7031 11.4062
Q43.2188 16.7031 43.2188 25.4844
L43.2188 27.4844
z

M52.2031 31.2031
L52.2031 0
L43.2188 0
L43.2188 8.29688
Q40.1406 3.32812 35.5469 0.953125
Q30.9531 -1.42188 24.3125 -1.42188
Q15.9219 -1.42188 10.9531 3.29688
Q6 8.01562 6 15.9219
Q6 25.1406 12.1719 29.8281
Q18.3594 34.5156 30.6094 34.5156
L43.2188 34.5156
L43.2188 35.4062
Q43.2188 41.6094 39.1406 45
Q35.0625 48.3906 27.6875 48.3906
Q23 48.3906 18.5469 47.2656
Q14.1094 46.1406 10.0156 43.8906
L10.0156 52.2031
Q14.9375 54.1094 19.5781 55.0469
Q24.2188 56 28.6094 56
Q40.4844 56 46.3438 49.8438
Q52.2031 43.7031 52.2031 31.2031" id="BitstreamVeraSans-Roman-61"/>
      <path d="
M48.6875 27.2969
Q48.6875 37.2031 44.6094 42.8438
Q40.5312 48.4844 33.4062 48.4844
Q26.2656 48.4844 22.1875 42.8438
Q18.1094 37.2031 18.1094 27.2969
Q18.1094 17.3906 22.1875 11.75
Q26.2656 6.10938 33.4062 6.10938
Q40.5312 6.10938 44.6094 11.75
Q48.6875 17.3906 48.6875 27.2969
M18.1094 46.3906
Q20.9531 51.2656 25.2656 53.625
Q29.5938 56 35.5938 56
Q45.5625 56 51.7812 48.0938
Q58.0156 40.1875 58.0156 27.2969
Q58.0156 14.4062 51.7812 6.48438
Q45.5625 -1.42188 35.5938 -1.42188
Q29.5938 -1.42188 25.2656 0.953125
Q20.9531 3.32812 18.1094 8.20312
L18.1094 0
L9.07812 0
L9.07812 75.9844
L18.1094 75.9844
z
" id="BitstreamVeraSans-Roman-62"/>
      <path d="
M48.7812 52.5938
L48.7812 44.1875
Q44.9688 46.2969 41.1406 47.3438
Q37.3125 48.3906 33.4062 48.3906
Q24.6562 48.3906 19.8125 42.8438
Q14.9844 37.3125 14.9844 27.2969
Q14.9844 17.2812 19.8125 11.7344
Q24.6562 6.20312 33.4062 6.20312
Q37.3125 6.20312 41.1406 7.25
Q44.9688 8.29688 48.7812 10.4062
L48.7812 2.09375
Q45.0156 0.34375 40.9844 -0.53125
Q36.9688 -1.42188 32.4219 -1.42188
Q20.0625 -1.42188 12.7812 6.34375
Q5.51562 14.1094 5.51562 27.2969
Q5.51562 40.6719 12.8594 48.3281
Q20.2188 56 33.0156 56
Q37.1562 56 41.1094 55.1406
Q45.0625 54.2969 48.7812 52.5938" id="BitstreamVeraSans-Roman-63"/>
     </defs>
     <g transform="translate(74.983125 374.78625)rotate(-90.0)scale(0.12 -0.12)">
      <use xlink:href="#BitstreamVeraSans-Roman-70"/>
      <use x="63.4765625" xlink:href="#BitstreamVeraSans-Roman-61"/>
      <use x="124.755859375" xlink:href="#BitstreamVeraSans-Roman-72"/>
      <use x="165.869140625" xlink:href="#BitstreamVeraSans-Roman-74"/>
      <use x="205.078125" xlink:href="#BitstreamVeraSans-Roman-69"/>
      <use x="232.861328125" xlink:href="#BitstreamVeraSans-Roman-63"/>
      <use x="287.841796875" xlink:href="#BitstreamVeraSans-Roman-6c"/>
      <use x="315.625" xlink:href="#BitstreamVeraSans-Roman-65"/>
      <use x="377.1484375" xlink:href="#BitstreamVeraSans-Roman-20"/>
      <use x="408.935546875" xlink:href="#BitstreamVeraSans-Roman-6e"/>
      <use x="472.314453125" xlink:href="#BitstreamVeraSans-Roman-75"/>
      <use x="535.693359375" xlink:href="#BitstreamVeraSans-Roman-6d"/>
      <use x="633.10546875" xlink:href="#BitstreamVeraSans-Roman-62"/>
      <use x="696.58203125" xlink:href="#BitstreamVeraSans-Roman-65"/>
      <use x="758.10546875" xlink:href="#BitstreamVeraSans-Roman-72"/>
      <use x="799.21875" xlink:href="#BitstreamVeraSans-Roman-73"/>
     </g>
    </g>
   </g>
   <g id="legend_1">
    <g id="patch_7">
     <path d="
M111.5 579.7
L156.179 579.7
L156.179 567.325
L111.5 567.325
z
" style="fill:#ffffff;stroke:#000000;stroke-linejoin:miter;"/>
    </g>
    <g id="line2d_28">
     <path d="
M116.4 572.994
L126.2 572.994" style="fill:none;stroke:#ff0000;stroke-linecap:square;"/>
    </g>
    <g id="line2d_29"/>
    <g id="text_16">
     <!-- A el.0 -->
     <defs>
      <path d="
M34.1875 63.1875
L20.7969 26.9062
L47.6094 26.9062
z

M28.6094 72.9062
L39.7969 72.9062
L67.5781 0
L57.3281 0
L50.6875 18.7031
L17.8281 18.7031
L11.1875 0
L0.78125 0
z
" id="BitstreamVeraSans-Roman-41"/>
      <path d="
M10.6875 12.4062
L21 12.4062
L21 0
L10.6875 0
z
" id="BitstreamVeraSans-Roman-2e"/>
     </defs>
     <g transform="translate(133.9 575.44421875)scale(0.07 -0.07)">
      <use xlink:href="#BitstreamVeraSans-Roman-41"/>
      <use x="68.408203125" xlink:href="#BitstreamVeraSans-Roman-20"/>
      <use x="100.1953125" xlink:href="#BitstreamVeraSans-Roman-65"/>
      <use x="161.71875" xlink:href="#BitstreamVeraSans-Roman-6c"/>
      <use x="189.501953125" xlink:href="#BitstreamVeraSans-Roman-2e"/>
      <use x="221.2890625" xlink:href="#BitstreamVeraSans-Roman-30"/>
     </g>
    </g>
   </g>
  </g>
 </g>
 <defs>
  <clipPath id="p7ceb695115">
   <rect height="518.4" width="669.6" x="108.0" y="64.8"/>
  </clipPath>
 </defs>
</svg>
