<?xml version="1.0" encoding="utf-8" standalone="no"?>
<!DOCTYPE svg PUBLIC "-//W3C//DTD SVG 1.1//EN"
  "http://www.w3.org/Graphics/SVG/1.1/DTD/svg11.dtd">
<!-- Created with matplotlib (http://matplotlib.org/) -->
<svg height="648pt" version="1.1" viewBox="0 0 864 648" width="864pt" xmlns="http://www.w3.org/2000/svg" xmlns:xlink="http://www.w3.org/1999/xlink">
 <defs>
  <style type="text/css">
*{stroke-linecap:butt;stroke-linejoin:round;}
  </style>
 </defs>
 <g id="figure_1">
  <g id="patch_1">
   <path d="
M0 648
L864 648
L864 0
L0 0
z
" style="fill:#ffffff;"/>
  </g>
  <g id="axes_1">
   <g id="patch_2">
    <path d="
M108 583.2
L777.6 583.2
L777.6 64.8
L108 64.8
z
" style="fill:#ffffff;"/>
   </g>
   <g id="line2d_1">
    <path clip-path="url(#p7ceb695115)" d="
M108 583.2
L108.67 489.888
L109.339 492.48
L110.009 492.48
L110.678 483.84
L111.348 463.968
L112.018 472.608
L112.687 421.632
L113.357 495.936
L114.026 483.84
L114.696 490.752
L115.366 490.752
L116.035 443.232
L116.705 241.056
L117.374 228.96
L118.044 161.568
L118.714 146.016
L119.383 196.128
L120.053 133.056
L120.722 152.928
L121.392 197.856
L122.062 120.096
L122.731 123.552
L123.401 171.072
L124.07 91.584
L124.74 238.464
L125.41 280.8
L126.079 178.848
L126.749 145.152
L127.418 442.368
L128.088 459.648
L128.758 473.472
L129.427 469.152
L130.097 393.984
L130.766 494.208
L131.436 445.824
L132.106 492.48
L132.775 486.432
L133.445 462.24
L134.114 382.752
L134.784 500.256
L135.454 422.496
L136.123 485.568
L136.793 480.384
L137.462 495.072
L138.132 471.744
L138.802 127.872
L139.471 150.336
L140.141 273.024
L140.81 236.736
L141.48 164.16
L142.15 178.848
L142.819 95.04
L143.489 261.792
L144.158 93.312
L144.828 246.24
L145.498 254.016
L146.167 143.424
L146.837 170.208
L147.506 172.8
L148.176 317.952
L148.846 227.232
L149.515 154.656
L150.185 264.384
L150.854 90.72
L151.524 249.696
L152.194 279.936
L152.863 121.824
L153.533 257.472
L154.202 190.08
L154.872 194.4
L156.211 214.272
L156.881 127.872
L158.22 482.112
L158.89 146.016
L159.559 167.616
L160.229 276.48
L160.898 169.344
L161.568 94.176
L162.238 228.096
L162.907 111.456
L163.577 172.8
L164.916 216.864
L165.586 240.192
L166.255 232.416
L166.925 272.16
L167.594 112.32
L168.264 168.48
L168.934 126.144
L169.603 180.576
L170.273 100.224
L170.942 244.512
L171.612 194.4
L172.282 233.28
L172.951 200.448
L173.621 199.584
L174.29 247.104
L174.96 486.432
L175.63 475.2
L176.299 475.2
L176.969 437.184
L177.638 430.272
L178.308 468.288
L178.978 484.704
L179.647 468.288
L180.317 462.24
L180.986 482.976
L181.656 476.064
L182.326 460.512
L182.995 457.92
L183.665 446.688
L184.334 482.976
L185.004 481.248
L185.674 458.784
L186.343 481.248
L187.013 471.744
L188.352 501.984
L189.022 476.064
L189.691 471.744
L190.361 474.336
L191.03 500.256
L191.7 489.024
L192.37 493.344
L193.039 490.752
L193.709 468.288
L194.378 393.12
L195.048 475.2
L195.718 445.824
L196.387 518.4
L197.057 447.552
L197.726 477.792
L198.396 469.152
L199.066 476.064
L199.735 512.352
L200.405 405.216
L201.074 471.744
L201.744 479.52
L202.414 473.472
L203.083 470.88
L203.753 451.008
L204.422 483.84
L205.092 463.968
L205.762 495.936
L206.431 443.232
L207.101 173.664
L207.77 228.96
L208.44 468.288
L209.11 508.032
L209.779 117.504
L210.449 119.232
L211.118 146.016
L211.788 123.552
L212.458 176.256
L213.127 162.432
L213.797 216
L214.466 120.096
L215.136 209.952
L215.806 117.504
L216.475 190.944
L217.145 201.312
L217.814 115.776
L218.484 160.704
L219.154 193.536
L219.823 483.84
L220.493 460.512
L221.162 487.296
L221.832 496.8
L222.502 493.344
L223.171 450.144
L223.841 495.072
L224.51 462.24
L225.18 474.336
L225.85 439.776
L226.519 463.968
L227.189 475.2
L227.858 367.2
L228.528 475.2
L229.198 484.704
L229.867 528.768
L230.537 420.768
L231.206 487.296
L231.876 474.336
L232.546 480.384
L233.215 426.816
L233.885 484.704
L234.554 482.112
L235.224 459.648
L235.894 490.752
L236.563 458.784
L237.233 470.016
L237.902 466.56
L238.572 480.384
L239.242 505.44
L239.911 477.792
L240.581 439.776
L241.25 476.928
L241.92 247.104
L242.59 222.912
L243.259 179.712
L243.929 517.536
L244.598 482.112
L245.268 456.192
L245.938 490.752
L246.607 496.8
L247.277 424.224
L247.946 489.888
L248.616 490.752
L249.286 475.2
L249.955 478.656
L250.625 457.92
L251.294 474.336
L251.964 497.664
L253.303 462.24
L253.973 498.528
L254.642 480.384
L255.312 477.792
L255.982 492.48
L256.651 459.648
L257.321 442.368
L257.99 504.576
L258.66 455.328
L259.33 492.48
L259.999 493.344
L260.669 452.736
L261.338 488.16
L262.008 484.704
L262.678 507.168
L263.347 467.424
L264.017 464.832
L264.686 454.464
L265.356 511.488
L266.026 497.664
L266.695 478.656
L267.365 476.064
L268.034 489.888
L268.704 451.872
L269.374 456.192
L270.043 475.2
L270.713 457.056
L271.382 500.256
L272.052 458.784
L272.722 477.792
L273.391 465.696
L274.061 477.792
L274.73 450.144
L275.4 476.928
L276.07 455.328
L276.739 441.504
L277.409 122.688
L278.078 304.992
L278.748 293.76
L279.418 196.128
L280.087 466.56
L280.757 482.112
L281.426 483.84
L282.096 481.248
L282.766 479.52
L283.435 196.128
L284.105 72.576
L284.774 219.456
L285.444 150.336
L286.114 363.744
L286.783 145.152
L287.453 168.48
L288.122 183.168
L288.792 91.584
L289.462 174.528
L290.131 217.728
L290.801 253.152
L291.47 118.368
L292.14 222.048
L292.81 285.12
L293.479 211.68
L294.149 203.904
L294.818 250.56
L295.488 261.792
L296.158 161.568
L296.827 501.984
L297.497 498.528
L298.166 497.664
L299.506 454.464
L300.175 514.944
L300.845 484.704
L301.514 459.648
L302.184 480.384
L302.854 483.84
L303.523 455.328
L304.193 482.112
L304.862 466.56
L305.532 480.384
L306.202 466.56
L306.871 465.696
L307.541 96.768
L308.21 222.912
L308.88 119.232
L309.55 187.488
L310.219 227.232
L310.889 117.504
L311.558 249.696
L312.228 201.312
L312.898 499.392
L313.567 472.608
L314.237 486.432
L315.576 404.352
L316.246 498.528
L316.915 500.256
L317.585 476.064
L318.254 469.152
L318.924 373.248
L319.594 464.832
L320.933 474.336
L321.602 165.888
L322.272 512.352
L322.942 453.6
L323.611 473.472
L324.281 513.216
L324.95 466.56
L325.62 444.96
L326.29 119.232
L326.959 273.888
L327.629 192.672
L328.298 463.104
L328.968 500.256
L329.638 481.248
L330.307 501.12
L330.977 482.112
L331.646 497.664
L332.316 454.464
L332.986 511.488
L333.655 470.016
L334.325 482.112
L334.994 500.256
L335.664 499.392
L336.334 495.072
L337.003 468.288
L337.673 489.024
L338.342 492.48
L339.012 497.664
L339.682 458.784
L340.351 476.064
L341.021 498.528
L341.69 476.064
L342.36 495.072
L343.03 456.192
L343.699 434.592
L344.369 489.024
L345.038 450.144
L345.708 511.488
L346.378 502.848
L347.047 505.44
L347.717 480.384
L348.386 448.416
L349.056 474.336
L349.726 481.248
L350.395 470.88
L351.065 437.184
L351.734 478.656
L352.404 462.24
L353.074 508.896
L353.743 451.872
L354.413 488.16
L355.082 495.936
L355.752 478.656
L357.091 462.24
L357.761 466.56
L358.43 414.72
L359.1 462.24
L359.77 455.328
L360.439 484.704
L361.109 498.528
L361.778 465.696
L362.448 478.656
L363.118 470.88
L363.787 471.744
L364.457 501.12
L365.126 442.368
L365.796 473.472
L366.466 466.56
L367.135 498.528
L367.805 473.472
L368.474 483.84
L369.144 442.368
L369.814 498.528
L370.483 451.872
L371.153 484.704
L371.822 492.48
L372.492 454.464
L373.162 490.752
L373.831 446.688
L374.501 174.528
L375.84 490.752
L376.51 505.44
L377.179 507.168
L377.849 485.568
L378.518 444.96
L379.188 488.16
L379.858 452.736
L380.527 477.792
L381.197 455.328
L381.866 355.104
L382.536 122.688
L383.206 199.584
L383.875 240.192
L384.545 165.888
L385.214 215.136
L385.884 479.52
L386.554 471.744
L387.223 420.768
L387.893 443.232
L388.562 457.92
L389.232 438.048
L389.902 175.392
L390.571 181.44
L391.241 157.248
L391.91 266.112
L392.58 161.568
L393.25 477.792
L393.919 476.064
L394.589 444.096
L395.258 492.48
L396.598 432
L397.267 457.92
L397.937 504.576
L398.606 444.96
L399.276 490.752
L399.946 496.8
L400.615 487.296
L401.285 454.464
L401.954 474.336
L402.624 460.512
L403.294 460.512
L403.963 451.008
L404.633 499.392
L405.302 475.2
L405.972 497.664
L406.642 486.432
L407.311 458.784
L407.981 488.16
L408.65 480.384
L409.32 494.208
L409.99 472.608
L410.659 476.928
L411.329 462.24
L411.998 488.16
L412.668 489.024
L413.338 368.064
L414.007 501.12
L414.677 499.392
L415.346 484.704
L416.016 457.92
L416.686 480.384
L417.355 471.744
L418.025 491.616
L418.694 488.16
L419.364 509.76
L420.034 479.52
L420.703 462.24
L421.373 484.704
L422.042 465.696
L422.712 427.68
L423.382 507.168
L424.051 440.64
L424.721 484.704
L425.39 472.608
L426.06 456.192
L426.73 456.192
L427.399 487.296
L428.069 476.064
L428.738 459.648
L429.408 431.136
L430.078 513.216
L430.747 465.696
L431.417 482.112
L432.086 457.056
L432.756 479.52
L433.426 477.792
L434.095 240.192
L434.765 95.904
L435.434 178.848
L436.104 125.28
L436.774 82.08
L437.443 107.136
L438.113 254.016
L438.782 194.4
L439.452 241.056
L440.122 337.824
L440.791 451.872
L441.461 478.656
L442.13 487.296
L442.8 463.104
L443.47 476.928
L444.139 443.232
L444.809 485.568
L445.478 432.864
L446.148 485.568
L446.818 491.616
L447.487 499.392
L448.157 425.952
L448.826 439.776
L449.496 442.368
L450.166 491.616
L450.835 456.192
L451.505 432.864
L452.844 508.896
L453.514 492.48
L454.183 487.296
L454.853 508.032
L455.522 144.288
L456.192 84.672
L456.862 489.888
L457.531 457.92
L458.201 452.736
L458.87 451.872
L459.54 438.048
L460.879 491.616
L461.549 476.928
L462.218 497.664
L462.888 468.288
L463.558 501.984
L464.227 477.792
L464.897 503.712
L465.566 449.28
L466.236 449.28
L466.906 422.496
L467.575 488.16
L468.245 479.52
L468.914 433.728
L469.584 466.56
L470.254 469.152
L470.923 503.712
L471.593 414.72
L472.262 477.792
L472.932 460.512
L473.602 470.88
L474.271 503.712
L475.61 444.096
L476.28 496.8
L476.95 470.016
L477.619 432
L478.289 443.232
L478.958 495.072
L479.628 461.376
L480.298 461.376
L480.967 463.968
L481.637 479.52
L482.306 443.232
L482.976 485.568
L483.646 491.616
L484.315 88.992
L484.985 165.888
L485.654 204.768
L486.324 213.408
L486.994 165.024
L487.663 192.672
L488.333 157.248
L489.002 468.288
L489.672 496.8
L490.342 495.072
L491.011 495.936
L491.681 479.52
L492.35 451.008
L493.02 493.344
L493.69 406.944
L494.359 489.024
L495.029 475.2
L495.698 472.608
L496.368 467.424
L497.038 494.208
L497.707 300.672
L498.377 177.984
L499.046 221.184
L499.716 482.112
L500.386 496.8
L501.055 457.056
L501.725 440.64
L502.394 457.92
L503.064 447.552
L503.734 459.648
L504.403 495.072
L505.073 441.504
L505.742 485.568
L506.412 479.52
L507.082 466.56
L507.751 447.552
L508.421 504.576
L509.09 467.424
L509.76 484.704
L510.43 485.568
L511.099 502.848
L511.769 460.512
L512.438 444.096
L513.108 477.792
L513.778 478.656
L514.447 466.56
L515.117 480.384
L515.786 483.84
L516.456 422.496
L517.126 490.752
L517.795 466.56
L518.465 493.344
L519.134 503.712
L519.804 480.384
L520.474 503.712
L521.143 450.144
L521.813 476.064
L522.482 489.024
L523.152 477.792
L523.822 506.304
L524.491 489.888
L525.161 497.664
L525.83 489.888
L526.5 465.696
L527.17 481.248
L527.839 357.696
L528.509 452.736
L529.178 470.016
L529.848 478.656
L530.518 494.208
L531.187 474.336
L531.857 444.96
L532.526 398.304
L533.196 483.84
L533.866 466.56
L534.535 440.64
L535.874 520.992
L537.214 468.288
L537.883 490.752
L538.553 487.296
L539.222 478.656
L539.892 478.656
L541.231 452.736
L541.901 480.384
L542.57 448.416
L543.24 463.968
L543.91 482.976
L544.579 470.016
L545.249 483.84
L545.918 459.648
L546.588 402.624
L547.258 468.288
L547.927 457.056
L548.597 463.104
L549.266 482.976
L549.936 476.928
L550.606 482.112
L551.275 497.664
L551.945 470.88
L552.614 470.88
L553.284 495.072
L553.954 495.936
L554.623 481.248
L555.293 494.208
L555.962 515.808
L556.632 464.832
L557.302 470.88
L557.971 174.528
L558.641 158.112
L559.31 152.928
L559.98 249.696
L560.65 171.072
L561.319 340.416
L561.989 243.648
L562.658 437.184
L563.328 491.616
L563.998 506.304
L564.667 424.224
L565.337 486.432
L566.006 463.104
L566.676 489.888
L567.346 479.52
L568.015 470.88
L568.685 479.52
L569.354 474.336
L570.024 438.048
L570.694 466.56
L571.363 481.248
L572.033 462.24
L572.702 490.752
L573.372 453.6
L574.042 481.248
L575.381 445.824
L576.05 466.56
L576.72 502.848
L577.39 368.064
L578.059 304.128
L578.729 225.504
L579.398 132.192
L580.068 199.584
L580.738 131.328
L581.407 205.632
L582.077 230.688
L583.416 161.568
L584.086 262.656
L584.755 234.144
L585.425 367.2
L586.094 473.472
L586.764 495.936
L587.434 475.2
L588.103 486.432
L588.773 355.104
L589.442 499.392
L590.112 482.976
L590.782 481.248
L591.451 464.832
L592.121 393.12
L592.79 457.92
L593.46 501.984
L594.13 491.616
L594.799 457.056
L595.469 483.84
L596.138 438.048
L597.478 507.168
L598.147 495.936
L598.817 463.104
L599.486 464.832
L600.156 469.152
L600.826 435.456
L601.495 457.056
L602.165 146.016
L602.834 159.84
L603.504 228.096
L604.174 492.48
L604.843 349.056
L605.513 489.888
L606.182 410.4
L606.852 495.936
L607.522 480.384
L608.191 478.656
L608.861 471.744
L609.53 501.984
L610.2 473.472
L610.87 476.928
L611.539 446.688
L612.878 508.032
L613.548 467.424
L614.218 488.16
L614.887 474.336
L615.557 443.232
L616.226 502.848
L616.896 435.456
L618.235 511.488
L618.905 450.144
L620.244 514.944
L620.914 453.6
L621.583 470.88
L622.253 482.976
L622.922 473.472
L623.592 492.48
L624.262 460.512
L624.931 458.784
L625.601 471.744
L626.27 462.24
L626.94 342.144
L627.61 196.992
L628.279 301.536
L628.949 123.552
L629.618 490.752
L630.288 480.384
L630.958 457.056
L631.627 501.12
L632.297 483.84
L632.966 375.84
L633.636 470.88
L634.306 477.792
L634.975 486.432
L635.645 406.944
L636.314 478.656
L637.654 432
L638.323 507.168
L638.993 485.568
L639.662 446.688
L640.332 472.608
L641.002 361.152
L641.671 474.336
L643.01 506.304
L643.68 457.92
L645.019 480.384
L645.689 483.84
L646.358 503.712
L647.028 498.528
L647.698 495.936
L648.367 481.248
L649.037 491.616
L649.706 486.432
L650.376 425.952
L651.046 495.936
L651.715 493.344
L652.385 492.48
L653.054 450.144
L653.724 467.424
L654.394 418.176
L655.063 478.656
L655.733 506.304
L656.402 488.16
L657.072 500.256
L657.742 495.936
L658.411 513.216
L659.081 489.024
L659.75 480.384
L660.42 501.12
L661.09 484.704
L661.759 501.984
L663.098 444.96
L664.438 525.312
L665.107 433.728
L666.446 504.576
L667.116 484.704
L668.455 497.664
L669.125 481.248
L669.794 482.976
L670.464 447.552
L671.803 501.12
L672.473 412.992
L673.142 187.488
L673.812 228.96
L674.482 191.808
L675.151 216
L675.821 509.76
L676.49 414.72
L677.16 509.76
L677.83 497.664
L678.499 503.712
L679.169 442.368
L679.838 474.336
L680.508 482.112
L681.178 458.784
L681.847 488.16
L682.517 468.288
L683.186 461.376
L683.856 477.792
L684.526 488.16
L685.195 444.96
L685.865 494.208
L686.534 488.16
L687.204 497.664
L687.874 496.8
L688.543 525.312
L689.213 502.848
L689.882 441.504
L690.552 469.152
L691.222 475.2
L691.891 460.512
L692.561 475.2
L693.23 475.2
L693.9 439.776
L694.57 480.384
L695.239 462.24
L695.909 451.008
L696.578 405.216
L697.248 210.816
L697.918 204.768
L698.587 91.584
L699.257 169.344
L699.926 219.456
L700.596 201.312
L701.266 467.424
L701.935 480.384
L702.605 452.736
L703.274 474.336
L703.944 200.448
L704.614 129.6
L705.283 200.448
L705.953 133.056
L706.622 497.664
L707.292 448.416
L707.962 491.616
L708.631 495.936
L709.301 497.664
L709.97 485.568
L711.31 470.88
L711.979 451.872
L712.649 442.368
L713.318 496.8
L713.988 456.192
L714.658 488.16
L715.327 504.576
L716.666 436.32
L717.336 441.504
L718.006 471.744
L718.675 489.888
L719.345 487.296
L720.014 447.552
L720.684 464.832
L721.354 498.528
L722.023 495.072
L722.693 420.768
L723.362 470.016
L724.032 487.296
L724.702 470.016
L725.371 364.608
L726.041 467.424
L726.71 171.072
L727.38 253.152
L728.05 185.76
L728.719 193.536
L729.389 148.608
L730.058 164.16
L730.728 372.384
L731.398 485.568
L732.067 501.984
L732.737 468.288
L733.406 470.016
L734.076 506.304
L734.746 500.256
L735.415 479.52
L736.085 443.232
L736.754 469.152
L737.424 512.352
L738.094 453.6
L738.763 467.424
L739.433 506.304
L740.102 489.888
L740.772 484.704
L741.442 452.736
L742.111 432.864
L742.781 495.936
L743.45 474.336
L744.12 439.776
L744.79 483.84
L745.459 467.424
L746.129 519.264
L746.798 489.024
L747.468 490.752
L748.138 473.472
L748.807 495.936
L749.477 457.056
L750.146 472.608
L750.816 451.872
L751.486 487.296
L752.155 463.968
L752.825 468.288
L753.494 492.48
L754.164 420.768
L754.834 482.112
L756.173 443.232
L756.842 483.84
L757.512 473.472
L758.182 472.608
L758.851 444.096
L759.521 487.296
L760.19 520.128
L760.86 499.392
L761.53 503.712
L762.199 461.376
L762.869 468.288
L763.538 469.152
L764.208 501.12
L764.878 419.04
L765.547 501.984
L766.217 479.52
L766.886 452.736
L767.556 498.528
L768.226 470.88
L768.895 486.432
L769.565 485.568
L770.234 495.072
L770.904 463.968
L771.574 516.672
L772.913 464.832
L773.582 444.096
L774.252 509.76
L774.922 479.52
L775.591 508.032
L776.261 499.392
L776.93 476.928
L777.6 445.824
L777.6 445.824" style="fill:none;stroke:#ff0000;stroke-linecap:square;"/>
   </g>
   <g id="patch_3">
    <path d="
M777.6 583.2
L777.6 64.8" style="fill:none;stroke:#000000;stroke-linecap:square;stroke-linejoin:miter;"/>
   </g>
   <g id="patch_4">
    <path d="
M108 583.2
L108 64.8" style="fill:none;stroke:#000000;stroke-linecap:square;stroke-linejoin:miter;"/>
   </g>
   <g id="patch_5">
    <path d="
M108 583.2
L777.6 583.2" style="fill:none;stroke:#000000;stroke-linecap:square;stroke-linejoin:miter;"/>
   </g>
   <g id="patch_6">
    <path d="
M108 64.8
L777.6 64.8" style="fill:none;stroke:#000000;stroke-linecap:square;stroke-linejoin:miter;"/>
   </g>
   <g id="matplotlib.axis_1">
    <g id="xtick_1">
     <g id="line2d_2">
      <defs>
       <path d="
M0 0
L0 -4" id="mc7db9fdffb" style="stroke:#000000;stroke-width:0.5;"/>
      </defs>
      <g>
       <use style="stroke:#000000;stroke-width:0.5;" x="108.0" xlink:href="#mc7db9fdffb" y="583.2"/>
      </g>
     </g>
     <g id="line2d_3">
      <defs>
       <path d="
M0 0
L0 4" id="m5a7d422ac3" style="stroke:#000000;stroke-width:0.5;"/>
      </defs>
      <g>
       <use style="stroke:#000000;stroke-width:0.5;" x="108.0" xlink:href="#m5a7d422ac3" y="64.8"/>
      </g>
     </g>
     <g id="text_1">
      <!-- 0 -->
      <defs>
       <path d="
M31.7812 66.4062
Q24.1719 66.4062 20.3281 58.9062
Q16.5 51.4219 16.5 36.375
Q16.5 21.3906 20.3281 13.8906
Q24.1719 6.39062 31.7812 6.39062
Q39.4531 6.39062 43.2812 13.8906
Q47.125 21.3906 47.125 36.375
Q47.125 51.4219 43.2812 58.9062
Q39.4531 66.4062 31.7812 66.4062
M31.7812 74.2188
Q44.0469 74.2188 50.5156 64.5156
Q56.9844 54.8281 56.9844 36.375
Q56.9844 17.9688 50.5156 8.26562
Q44.0469 -1.42188 31.7812 -1.42188
Q19.5312 -1.42188 13.0625 8.26562
Q6.59375 17.9688 6.59375 36.375
Q6.59375 54.8281 13.0625 64.5156
Q19.5312 74.2188 31.7812 74.2188" id="BitstreamVeraSans-Roman-30"/>
      </defs>
      <g transform="translate(104.9765625 596.318125)scale(0.12 -0.12)">
       <use xlink:href="#BitstreamVeraSans-Roman-30"/>
      </g>
     </g>
    </g>
    <g id="xtick_2">
     <g id="line2d_4">
      <g>
       <use style="stroke:#000000;stroke-width:0.5;" x="241.92" xlink:href="#mc7db9fdffb" y="583.2"/>
      </g>
     </g>
     <g id="line2d_5">
      <g>
       <use style="stroke:#000000;stroke-width:0.5;" x="241.92" xlink:href="#m5a7d422ac3" y="64.8"/>
      </g>
     </g>
     <g id="text_2">
      <!-- 200 -->
      <defs>
       <path d="
M19.1875 8.29688
L53.6094 8.29688
L53.6094 0
L7.32812 0
L7.32812 8.29688
Q12.9375 14.1094 22.625 23.8906
Q32.3281 33.6875 34.8125 36.5312
Q39.5469 41.8438 41.4219 45.5312
Q43.3125 49.2188 43.3125 52.7812
Q43.3125 58.5938 39.2344 62.25
Q35.1562 65.9219 28.6094 65.9219
Q23.9688 65.9219 18.8125 64.3125
Q13.6719 62.7031 7.8125 59.4219
L7.8125 69.3906
Q13.7656 71.7812 18.9375 73
Q24.125 74.2188 28.4219 74.2188
Q39.75 74.2188 46.4844 68.5469
Q53.2188 62.8906 53.2188 53.4219
Q53.2188 48.9219 51.5312 44.8906
Q49.8594 40.875 45.4062 35.4062
Q44.1875 33.9844 37.6406 27.2188
Q31.1094 20.4531 19.1875 8.29688" id="BitstreamVeraSans-Roman-32"/>
      </defs>
      <g transform="translate(231.305625 596.318125)scale(0.12 -0.12)">
       <use xlink:href="#BitstreamVeraSans-Roman-32"/>
       <use x="63.623046875" xlink:href="#BitstreamVeraSans-Roman-30"/>
       <use x="127.24609375" xlink:href="#BitstreamVeraSans-Roman-30"/>
      </g>
     </g>
    </g>
    <g id="xtick_3">
     <g id="line2d_6">
      <g>
       <use style="stroke:#000000;stroke-width:0.5;" x="375.84" xlink:href="#mc7db9fdffb" y="583.2"/>
      </g>
     </g>
     <g id="line2d_7">
      <g>
       <use style="stroke:#000000;stroke-width:0.5;" x="375.84" xlink:href="#m5a7d422ac3" y="64.8"/>
      </g>
     </g>
     <g id="text_3">
      <!-- 400 -->
      <defs>
       <path d="
M37.7969 64.3125
L12.8906 25.3906
L37.7969 25.3906
z

M35.2031 72.9062
L47.6094 72.9062
L47.6094 25.3906
L58.0156 25.3906
L58.0156 17.1875
L47.6094 17.1875
L47.6094 0
L37.7969 0
L37.7969 17.1875
L4.89062 17.1875
L4.89062 26.7031
z
" id="BitstreamVeraSans-Roman-34"/>
      </defs>
      <g transform="translate(365.079375 596.318125)scale(0.12 -0.12)">
       <use xlink:href="#BitstreamVeraSans-Roman-34"/>
       <use x="63.623046875" xlink:href="#BitstreamVeraSans-Roman-30"/>
       <use x="127.24609375" xlink:href="#BitstreamVeraSans-Roman-30"/>
      </g>
     </g>
    </g>
    <g id="xtick_4">
     <g id="line2d_8">
      <g>
       <use style="stroke:#000000;stroke-width:0.5;" x="509.76" xlink:href="#mc7db9fdffb" y="583.2"/>
      </g>
     </g>
     <g id="line2d_9">
      <g>
       <use style="stroke:#000000;stroke-width:0.5;" x="509.76" xlink:href="#m5a7d422ac3" y="64.8"/>
      </g>
     </g>
     <g id="text_4">
      <!-- 600 -->
      <defs>
       <path d="
M33.0156 40.375
Q26.375 40.375 22.4844 35.8281
Q18.6094 31.2969 18.6094 23.3906
Q18.6094 15.5312 22.4844 10.9531
Q26.375 6.39062 33.0156 6.39062
Q39.6562 6.39062 43.5312 10.9531
Q47.4062 15.5312 47.4062 23.3906
Q47.4062 31.2969 43.5312 35.8281
Q39.6562 40.375 33.0156 40.375
M52.5938 71.2969
L52.5938 62.3125
Q48.875 64.0625 45.0938 64.9844
Q41.3125 65.9219 37.5938 65.9219
Q27.8281 65.9219 22.6719 59.3281
Q17.5312 52.7344 16.7969 39.4062
Q19.6719 43.6562 24.0156 45.9219
Q28.375 48.1875 33.5938 48.1875
Q44.5781 48.1875 50.9531 41.5156
Q57.3281 34.8594 57.3281 23.3906
Q57.3281 12.1562 50.6875 5.35938
Q44.0469 -1.42188 33.0156 -1.42188
Q20.3594 -1.42188 13.6719 8.26562
Q6.98438 17.9688 6.98438 36.375
Q6.98438 53.6562 15.1875 63.9375
Q23.3906 74.2188 37.2031 74.2188
Q40.9219 74.2188 44.7031 73.4844
Q48.4844 72.75 52.5938 71.2969" id="BitstreamVeraSans-Roman-36"/>
      </defs>
      <g transform="translate(499.125 596.318125)scale(0.12 -0.12)">
       <use xlink:href="#BitstreamVeraSans-Roman-36"/>
       <use x="63.623046875" xlink:href="#BitstreamVeraSans-Roman-30"/>
       <use x="127.24609375" xlink:href="#BitstreamVeraSans-Roman-30"/>
      </g>
     </g>
    </g>
    <g id="xtick_5">
     <g id="line2d_10">
      <g>
       <use style="stroke:#000000;stroke-width:0.5;" x="643.68" xlink:href="#mc7db9fdffb" y="583.2"/>
      </g>
     </g>
     <g id="line2d_11">
      <g>
       <use style="stroke:#000000;stroke-width:0.5;" x="643.68" xlink:href="#m5a7d422ac3" y="64.8"/>
      </g>
     </g>
     <g id="text_5">
      <!-- 800 -->
      <defs>
       <path d="
M31.7812 34.625
Q24.75 34.625 20.7188 30.8594
Q16.7031 27.0938 16.7031 20.5156
Q16.7031 13.9219 20.7188 10.1562
Q24.75 6.39062 31.7812 6.39062
Q38.8125 6.39062 42.8594 10.1719
Q46.9219 13.9688 46.9219 20.5156
Q46.9219 27.0938 42.8906 30.8594
Q38.875 34.625 31.7812 34.625
M21.9219 38.8125
Q15.5781 40.375 12.0312 44.7188
Q8.5 49.0781 8.5 55.3281
Q8.5 64.0625 14.7188 69.1406
Q20.9531 74.2188 31.7812 74.2188
Q42.6719 74.2188 48.875 69.1406
Q55.0781 64.0625 55.0781 55.3281
Q55.0781 49.0781 51.5312 44.7188
Q48 40.375 41.7031 38.8125
Q48.8281 37.1562 52.7969 32.3125
Q56.7812 27.4844 56.7812 20.5156
Q56.7812 9.90625 50.3125 4.23438
Q43.8438 -1.42188 31.7812 -1.42188
Q19.7344 -1.42188 13.25 4.23438
Q6.78125 9.90625 6.78125 20.5156
Q6.78125 27.4844 10.7812 32.3125
Q14.7969 37.1562 21.9219 38.8125
M18.3125 54.3906
Q18.3125 48.7344 21.8438 45.5625
Q25.3906 42.3906 31.7812 42.3906
Q38.1406 42.3906 41.7188 45.5625
Q45.3125 48.7344 45.3125 54.3906
Q45.3125 60.0625 41.7188 63.2344
Q38.1406 66.4062 31.7812 66.4062
Q25.3906 66.4062 21.8438 63.2344
Q18.3125 60.0625 18.3125 54.3906" id="BitstreamVeraSans-Roman-38"/>
      </defs>
      <g transform="translate(633.0328125 596.318125)scale(0.12 -0.12)">
       <use xlink:href="#BitstreamVeraSans-Roman-38"/>
       <use x="63.623046875" xlink:href="#BitstreamVeraSans-Roman-30"/>
       <use x="127.24609375" xlink:href="#BitstreamVeraSans-Roman-30"/>
      </g>
     </g>
    </g>
    <g id="xtick_6">
     <g id="line2d_12">
      <g>
       <use style="stroke:#000000;stroke-width:0.5;" x="777.6" xlink:href="#mc7db9fdffb" y="583.2"/>
      </g>
     </g>
     <g id="line2d_13">
      <g>
       <use style="stroke:#000000;stroke-width:0.5;" x="777.6" xlink:href="#m5a7d422ac3" y="64.8"/>
      </g>
     </g>
     <g id="text_6">
      <!-- 1000 -->
      <defs>
       <path d="
M12.4062 8.29688
L28.5156 8.29688
L28.5156 63.9219
L10.9844 60.4062
L10.9844 69.3906
L28.4219 72.9062
L38.2812 72.9062
L38.2812 8.29688
L54.3906 8.29688
L54.3906 0
L12.4062 0
z
" id="BitstreamVeraSans-Roman-31"/>
      </defs>
      <g transform="translate(763.3875 596.318125)scale(0.12 -0.12)">
       <use xlink:href="#BitstreamVeraSans-Roman-31"/>
       <use x="63.623046875" xlink:href="#BitstreamVeraSans-Roman-30"/>
       <use x="127.24609375" xlink:href="#BitstreamVeraSans-Roman-30"/>
       <use x="190.869140625" xlink:href="#BitstreamVeraSans-Roman-30"/>
      </g>
     </g>
    </g>
    <g id="text_7">
     <!-- t / ms -->
     <defs>
      <path d="
M44.2812 53.0781
L44.2812 44.5781
Q40.4844 46.5312 36.375 47.5
Q32.2812 48.4844 27.875 48.4844
Q21.1875 48.4844 17.8438 46.4375
Q14.5 44.3906 14.5 40.2812
Q14.5 37.1562 16.8906 35.375
Q19.2812 33.5938 26.5156 31.9844
L29.5938 31.2969
Q39.1562 29.25 43.1875 25.5156
Q47.2188 21.7812 47.2188 15.0938
Q47.2188 7.46875 41.1875 3.01562
Q35.1562 -1.42188 24.6094 -1.42188
Q20.2188 -1.42188 15.4531 -0.5625
Q10.6875 0.296875 5.42188 2
L5.42188 11.2812
Q10.4062 8.6875 15.2344 7.39062
Q20.0625 6.10938 24.8125 6.10938
Q31.1562 6.10938 34.5625 8.28125
Q37.9844 10.4531 37.9844 14.4062
Q37.9844 18.0625 35.5156 20.0156
Q33.0625 21.9688 24.7031 23.7812
L21.5781 24.5156
Q13.2344 26.2656 9.51562 29.9062
Q5.8125 33.5469 5.8125 39.8906
Q5.8125 47.6094 11.2812 51.7969
Q16.75 56 26.8125 56
Q31.7812 56 36.1719 55.2656
Q40.5781 54.5469 44.2812 53.0781" id="BitstreamVeraSans-Roman-73"/>
      <path d="
M18.3125 70.2188
L18.3125 54.6875
L36.8125 54.6875
L36.8125 47.7031
L18.3125 47.7031
L18.3125 18.0156
Q18.3125 11.3281 20.1406 9.42188
Q21.9688 7.51562 27.5938 7.51562
L36.8125 7.51562
L36.8125 0
L27.5938 0
Q17.1875 0 13.2344 3.875
Q9.28125 7.76562 9.28125 18.0156
L9.28125 47.7031
L2.6875 47.7031
L2.6875 54.6875
L9.28125 54.6875
L9.28125 70.2188
z
" id="BitstreamVeraSans-Roman-74"/>
      <path id="BitstreamVeraSans-Roman-20"/>
      <path d="
M52 44.1875
Q55.375 50.25 60.0625 53.125
Q64.75 56 71.0938 56
Q79.6406 56 84.2812 50.0156
Q88.9219 44.0469 88.9219 33.0156
L88.9219 0
L79.8906 0
L79.8906 32.7188
Q79.8906 40.5781 77.0938 44.375
Q74.3125 48.1875 68.6094 48.1875
Q61.625 48.1875 57.5625 43.5469
Q53.5156 38.9219 53.5156 30.9062
L53.5156 0
L44.4844 0
L44.4844 32.7188
Q44.4844 40.625 41.7031 44.4062
Q38.9219 48.1875 33.1094 48.1875
Q26.2188 48.1875 22.1562 43.5312
Q18.1094 38.875 18.1094 30.9062
L18.1094 0
L9.07812 0
L9.07812 54.6875
L18.1094 54.6875
L18.1094 46.1875
Q21.1875 51.2188 25.4844 53.6094
Q29.7812 56 35.6875 56
Q41.6562 56 45.8281 52.9688
Q50 49.9531 52 44.1875" id="BitstreamVeraSans-Roman-6d"/>
      <path d="
M25.3906 72.9062
L33.6875 72.9062
L8.29688 -9.28125
L0 -9.28125
z
" id="BitstreamVeraSans-Roman-2f"/>
     </defs>
     <g transform="translate(425.9353125 612.931875)scale(0.12 -0.12)">
      <use xlink:href="#BitstreamVeraSans-Roman-74"/>
      <use x="39.208984375" xlink:href="#BitstreamVeraSans-Roman-20"/>
      <use x="70.99609375" xlink:href="#BitstreamVeraSans-Roman-2f"/>
      <use x="104.6875" xlink:href="#BitstreamVeraSans-Roman-20"/>
      <use x="136.474609375" xlink:href="#BitstreamVeraSans-Roman-6d"/>
      <use x="233.88671875" xlink:href="#BitstreamVeraSans-Roman-73"/>
     </g>
    </g>
   </g>
   <g id="matplotlib.axis_2">
    <g id="ytick_1">
     <g id="line2d_14">
      <defs>
       <path d="
M0 0
L4 0" id="md7965d1ba0" style="stroke:#000000;stroke-width:0.5;"/>
      </defs>
      <g>
       <use style="stroke:#000000;stroke-width:0.5;" x="108.0" xlink:href="#md7965d1ba0" y="583.2"/>
      </g>
     </g>
     <g id="line2d_15">
      <defs>
       <path d="
M0 0
L-4 0" id="md9a1c1a7cd" style="stroke:#000000;stroke-width:0.5;"/>
      </defs>
      <g>
       <use style="stroke:#000000;stroke-width:0.5;" x="777.6" xlink:href="#md9a1c1a7cd" y="583.2"/>
      </g>
     </g>
     <g id="text_8">
      <!-- 0 -->
      <g transform="translate(97.953125 586.51125)scale(0.12 -0.12)">
       <use xlink:href="#BitstreamVeraSans-Roman-30"/>
      </g>
     </g>
    </g>
    <g id="ytick_2">
     <g id="line2d_16">
      <g>
       <use style="stroke:#000000;stroke-width:0.5;" x="108.0" xlink:href="#md7965d1ba0" y="496.8"/>
      </g>
     </g>
     <g id="line2d_17">
      <g>
       <use style="stroke:#000000;stroke-width:0.5;" x="777.6" xlink:href="#md9a1c1a7cd" y="496.8"/>
      </g>
     </g>
     <g id="text_9">
      <!-- 100 -->
      <g transform="translate(83.21 500.11125)scale(0.12 -0.12)">
       <use xlink:href="#BitstreamVeraSans-Roman-31"/>
       <use x="63.623046875" xlink:href="#BitstreamVeraSans-Roman-30"/>
       <use x="127.24609375" xlink:href="#BitstreamVeraSans-Roman-30"/>
      </g>
     </g>
    </g>
    <g id="ytick_3">
     <g id="line2d_18">
      <g>
       <use style="stroke:#000000;stroke-width:0.5;" x="108.0" xlink:href="#md7965d1ba0" y="410.4"/>
      </g>
     </g>
     <g id="line2d_19">
      <g>
       <use style="stroke:#000000;stroke-width:0.5;" x="777.6" xlink:href="#md9a1c1a7cd" y="410.4"/>
      </g>
     </g>
     <g id="text_10">
      <!-- 200 -->
      <g transform="translate(82.77125 413.71125)scale(0.12 -0.12)">
       <use xlink:href="#BitstreamVeraSans-Roman-32"/>
       <use x="63.623046875" xlink:href="#BitstreamVeraSans-Roman-30"/>
       <use x="127.24609375" xlink:href="#BitstreamVeraSans-Roman-30"/>
      </g>
     </g>
    </g>
    <g id="ytick_4">
     <g id="line2d_20">
      <g>
       <use style="stroke:#000000;stroke-width:0.5;" x="108.0" xlink:href="#md7965d1ba0" y="324.0"/>
      </g>
     </g>
     <g id="line2d_21">
      <g>
       <use style="stroke:#000000;stroke-width:0.5;" x="777.6" xlink:href="#md9a1c1a7cd" y="324.0"/>
      </g>
     </g>
     <g id="text_11">
      <!-- 300 -->
      <defs>
       <path d="
M40.5781 39.3125
Q47.6562 37.7969 51.625 33
Q55.6094 28.2188 55.6094 21.1875
Q55.6094 10.4062 48.1875 4.48438
Q40.7656 -1.42188 27.0938 -1.42188
Q22.5156 -1.42188 17.6562 -0.515625
Q12.7969 0.390625 7.625 2.20312
L7.625 11.7188
Q11.7188 9.32812 16.5938 8.10938
Q21.4844 6.89062 26.8125 6.89062
Q36.0781 6.89062 40.9375 10.5469
Q45.7969 14.2031 45.7969 21.1875
Q45.7969 27.6406 41.2812 31.2656
Q36.7656 34.9062 28.7188 34.9062
L20.2188 34.9062
L20.2188 43.0156
L29.1094 43.0156
Q36.375 43.0156 40.2344 45.9219
Q44.0938 48.8281 44.0938 54.2969
Q44.0938 59.9062 40.1094 62.9062
Q36.1406 65.9219 28.7188 65.9219
Q24.6562 65.9219 20.0156 65.0312
Q15.375 64.1562 9.8125 62.3125
L9.8125 71.0938
Q15.4375 72.6562 20.3438 73.4375
Q25.25 74.2188 29.5938 74.2188
Q40.8281 74.2188 47.3594 69.1094
Q53.9062 64.0156 53.9062 55.3281
Q53.9062 49.2656 50.4375 45.0938
Q46.9688 40.9219 40.5781 39.3125" id="BitstreamVeraSans-Roman-33"/>
      </defs>
      <g transform="translate(82.806875 327.31125)scale(0.12 -0.12)">
       <use xlink:href="#BitstreamVeraSans-Roman-33"/>
       <use x="63.623046875" xlink:href="#BitstreamVeraSans-Roman-30"/>
       <use x="127.24609375" xlink:href="#BitstreamVeraSans-Roman-30"/>
      </g>
     </g>
    </g>
    <g id="ytick_5">
     <g id="line2d_22">
      <g>
       <use style="stroke:#000000;stroke-width:0.5;" x="108.0" xlink:href="#md7965d1ba0" y="237.6"/>
      </g>
     </g>
     <g id="line2d_23">
      <g>
       <use style="stroke:#000000;stroke-width:0.5;" x="777.6" xlink:href="#md9a1c1a7cd" y="237.6"/>
      </g>
     </g>
     <g id="text_12">
      <!-- 400 -->
      <g transform="translate(82.47875 240.91125)scale(0.12 -0.12)">
       <use xlink:href="#BitstreamVeraSans-Roman-34"/>
       <use x="63.623046875" xlink:href="#BitstreamVeraSans-Roman-30"/>
       <use x="127.24609375" xlink:href="#BitstreamVeraSans-Roman-30"/>
      </g>
     </g>
    </g>
    <g id="ytick_6">
     <g id="line2d_24">
      <g>
       <use style="stroke:#000000;stroke-width:0.5;" x="108.0" xlink:href="#md7965d1ba0" y="151.2"/>
      </g>
     </g>
     <g id="line2d_25">
      <g>
       <use style="stroke:#000000;stroke-width:0.5;" x="777.6" xlink:href="#md9a1c1a7cd" y="151.2"/>
      </g>
     </g>
     <g id="text_13">
      <!-- 500 -->
      <defs>
       <path d="
M10.7969 72.9062
L49.5156 72.9062
L49.5156 64.5938
L19.8281 64.5938
L19.8281 46.7344
Q21.9688 47.4688 24.1094 47.8281
Q26.2656 48.1875 28.4219 48.1875
Q40.625 48.1875 47.75 41.5
Q54.8906 34.8125 54.8906 23.3906
Q54.8906 11.625 47.5625 5.09375
Q40.2344 -1.42188 26.9062 -1.42188
Q22.3125 -1.42188 17.5469 -0.640625
Q12.7969 0.140625 7.71875 1.70312
L7.71875 11.625
Q12.1094 9.23438 16.7969 8.0625
Q21.4844 6.89062 26.7031 6.89062
Q35.1562 6.89062 40.0781 11.3281
Q45.0156 15.7656 45.0156 23.3906
Q45.0156 31 40.0781 35.4375
Q35.1562 39.8906 26.7031 39.8906
Q22.75 39.8906 18.8125 39.0156
Q14.8906 38.1406 10.7969 36.2812
z
" id="BitstreamVeraSans-Roman-35"/>
      </defs>
      <g transform="translate(82.818125 154.51125)scale(0.12 -0.12)">
       <use xlink:href="#BitstreamVeraSans-Roman-35"/>
       <use x="63.623046875" xlink:href="#BitstreamVeraSans-Roman-30"/>
       <use x="127.24609375" xlink:href="#BitstreamVeraSans-Roman-30"/>
      </g>
     </g>
    </g>
    <g id="ytick_7">
     <g id="line2d_26">
      <g>
       <use style="stroke:#000000;stroke-width:0.5;" x="108.0" xlink:href="#md7965d1ba0" y="64.8"/>
      </g>
     </g>
     <g id="line2d_27">
      <g>
       <use style="stroke:#000000;stroke-width:0.5;" x="777.6" xlink:href="#md9a1c1a7cd" y="64.8"/>
      </g>
     </g>
     <g id="text_14">
      <!-- 600 -->
      <g transform="translate(82.73 68.11125)scale(0.12 -0.12)">
       <use xlink:href="#BitstreamVeraSans-Roman-36"/>
       <use x="63.623046875" xlink:href="#BitstreamVeraSans-Roman-30"/>
       <use x="127.24609375" xlink:href="#BitstreamVeraSans-Roman-30"/>
      </g>
     </g>
    </g>
    <g id="text_15">
     <!-- particle numbers -->
     <defs>
      <path d="
M48.7812 52.5938
L48.7812 44.1875
Q44.9688 46.2969 41.1406 47.3438
Q37.3125 48.3906 33.4062 48.3906
Q24.6562 48.3906 19.8125 42.8438
Q14.9844 37.3125 14.9844 27.2969
Q14.9844 17.2812 19.8125 11.7344
Q24.6562 6.20312 33.4062 6.20312
Q37.3125 6.20312 41.1406 7.25
Q44.9688 8.29688 48.7812 10.4062
L48.7812 2.09375
Q45.0156 0.34375 40.9844 -0.53125
Q36.9688 -1.42188 32.4219 -1.42188
Q20.0625 -1.42188 12.7812 6.34375
Q5.51562 14.1094 5.51562 27.2969
Q5.51562 40.6719 12.8594 48.3281
Q20.2188 56 33.0156 56
Q37.1562 56 41.1094 55.1406
Q45.0625 54.2969 48.7812 52.5938" id="BitstreamVeraSans-Roman-63"/>
      <path d="
M56.2031 29.5938
L56.2031 25.2031
L14.8906 25.2031
Q15.4844 15.9219 20.4844 11.0625
Q25.4844 6.20312 34.4219 6.20312
Q39.5938 6.20312 44.4531 7.46875
Q49.3125 8.73438 54.1094 11.2812
L54.1094 2.78125
Q49.2656 0.734375 44.1875 -0.34375
Q39.1094 -1.42188 33.8906 -1.42188
Q20.7969 -1.42188 13.1562 6.1875
Q5.51562 13.8125 5.51562 26.8125
Q5.51562 40.2344 12.7656 48.1094
Q20.0156 56 32.3281 56
Q43.3594 56 49.7812 48.8906
Q56.2031 41.7969 56.2031 29.5938
M47.2188 32.2344
Q47.125 39.5938 43.0938 43.9844
Q39.0625 48.3906 32.4219 48.3906
Q24.9062 48.3906 20.3906 44.1406
Q15.875 39.8906 15.1875 32.1719
z
" id="BitstreamVeraSans-Roman-65"/>
      <path d="
M9.42188 75.9844
L18.4062 75.9844
L18.4062 0
L9.42188 0
z
" id="BitstreamVeraSans-Roman-6c"/>
      <path d="
M18.1094 8.20312
L18.1094 -20.7969
L9.07812 -20.7969
L9.07812 54.6875
L18.1094 54.6875
L18.1094 46.3906
Q20.9531 51.2656 25.2656 53.625
Q29.5938 56 35.5938 56
Q45.5625 56 51.7812 48.0938
Q58.0156 40.1875 58.0156 27.2969
Q58.0156 14.4062 51.7812 6.48438
Q45.5625 -1.42188 35.5938 -1.42188
Q29.5938 -1.42188 25.2656 0.953125
Q20.9531 3.32812 18.1094 8.20312
M48.6875 27.2969
Q48.6875 37.2031 44.6094 42.8438
Q40.5312 48.4844 33.4062 48.4844
Q26.2656 48.4844 22.1875 42.8438
Q18.1094 37.2031 18.1094 27.2969
Q18.1094 17.3906 22.1875 11.75
Q26.2656 6.10938 33.4062 6.10938
Q40.5312 6.10938 44.6094 11.75
Q48.6875 17.3906 48.6875 27.2969" id="BitstreamVeraSans-Roman-70"/>
      <path d="
M9.42188 54.6875
L18.4062 54.6875
L18.4062 0
L9.42188 0
z

M9.42188 75.9844
L18.4062 75.9844
L18.4062 64.5938
L9.42188 64.5938
z
" id="BitstreamVeraSans-Roman-69"/>
      <path d="
M54.8906 33.0156
L54.8906 0
L45.9062 0
L45.9062 32.7188
Q45.9062 40.4844 42.875 44.3281
Q39.8438 48.1875 33.7969 48.1875
Q26.5156 48.1875 22.3125 43.5469
Q18.1094 38.9219 18.1094 30.9062
L18.1094 0
L9.07812 0
L9.07812 54.6875
L18.1094 54.6875
L18.1094 46.1875
Q21.3438 51.125 25.7031 53.5625
Q30.0781 56 35.7969 56
Q45.2188 56 50.0469 50.1719
Q54.8906 44.3438 54.8906 33.0156" id="BitstreamVeraSans-Roman-6e"/>
      <path d="
M48.6875 27.2969
Q48.6875 37.2031 44.6094 42.8438
Q40.5312 48.4844 33.4062 48.4844
Q26.2656 48.4844 22.1875 42.8438
Q18.1094 37.2031 18.1094 27.2969
Q18.1094 17.3906 22.1875 11.75
Q26.2656 6.10938 33.4062 6.10938
Q40.5312 6.10938 44.6094 11.75
Q48.6875 17.3906 48.6875 27.2969
M18.1094 46.3906
Q20.9531 51.2656 25.2656 53.625
Q29.5938 56 35.5938 56
Q45.5625 56 51.7812 48.0938
Q58.0156 40.1875 58.0156 27.2969
Q58.0156 14.4062 51.7812 6.48438
Q45.5625 -1.42188 35.5938 -1.42188
Q29.5938 -1.42188 25.2656 0.953125
Q20.9531 3.32812 18.1094 8.20312
L18.1094 0
L9.07812 0
L9.07812 75.9844
L18.1094 75.9844
z
" id="BitstreamVeraSans-Roman-62"/>
      <path d="
M34.2812 27.4844
Q23.3906 27.4844 19.1875 25
Q14.9844 22.5156 14.9844 16.5
Q14.9844 11.7188 18.1406 8.90625
Q21.2969 6.10938 26.7031 6.10938
Q34.1875 6.10938 38.7031 11.4062
Q43.2188 16.7031 43.2188 25.4844
L43.2188 27.4844
z

M52.2031 31.2031
L52.2031 0
L43.2188 0
L43.2188 8.29688
Q40.1406 3.32812 35.5469 0.953125
Q30.9531 -1.42188 24.3125 -1.42188
Q15.9219 -1.42188 10.9531 3.29688
Q6 8.01562 6 15.9219
Q6 25.1406 12.1719 29.8281
Q18.3594 34.5156 30.6094 34.5156
L43.2188 34.5156
L43.2188 35.4062
Q43.2188 41.6094 39.1406 45
Q35.0625 48.3906 27.6875 48.3906
Q23 48.3906 18.5469 47.2656
Q14.1094 46.1406 10.0156 43.8906
L10.0156 52.2031
Q14.9375 54.1094 19.5781 55.0469
Q24.2188 56 28.6094 56
Q40.4844 56 46.3438 49.8438
Q52.2031 43.7031 52.2031 31.2031" id="BitstreamVeraSans-Roman-61"/>
      <path d="
M8.5 21.5781
L8.5 54.6875
L17.4844 54.6875
L17.4844 21.9219
Q17.4844 14.1562 20.5 10.2656
Q23.5312 6.39062 29.5938 6.39062
Q36.8594 6.39062 41.0781 11.0312
Q45.3125 15.6719 45.3125 23.6875
L45.3125 54.6875
L54.2969 54.6875
L54.2969 0
L45.3125 0
L45.3125 8.40625
Q42.0469 3.42188 37.7188 1
Q33.4062 -1.42188 27.6875 -1.42188
Q18.2656 -1.42188 13.375 4.4375
Q8.5 10.2969 8.5 21.5781" id="BitstreamVeraSans-Roman-75"/>
      <path d="
M41.1094 46.2969
Q39.5938 47.1719 37.8125 47.5781
Q36.0312 48 33.8906 48
Q26.2656 48 22.1875 43.0469
Q18.1094 38.0938 18.1094 28.8125
L18.1094 0
L9.07812 0
L9.07812 54.6875
L18.1094 54.6875
L18.1094 46.1875
Q20.9531 51.1719 25.4844 53.5781
Q30.0312 56 36.5312 56
Q37.4531 56 38.5781 55.875
Q39.7031 55.7656 41.0625 55.5156
z
" id="BitstreamVeraSans-Roman-72"/>
     </defs>
     <g transform="translate(74.983125 374.78625)rotate(-90.0)scale(0.12 -0.12)">
      <use xlink:href="#BitstreamVeraSans-Roman-70"/>
      <use x="63.4765625" xlink:href="#BitstreamVeraSans-Roman-61"/>
      <use x="124.755859375" xlink:href="#BitstreamVeraSans-Roman-72"/>
      <use x="165.869140625" xlink:href="#BitstreamVeraSans-Roman-74"/>
      <use x="205.078125" xlink:href="#BitstreamVeraSans-Roman-69"/>
      <use x="232.861328125" xlink:href="#BitstreamVeraSans-Roman-63"/>
      <use x="287.841796875" xlink:href="#BitstreamVeraSans-Roman-6c"/>
      <use x="315.625" xlink:href="#BitstreamVeraSans-Roman-65"/>
      <use x="377.1484375" xlink:href="#BitstreamVeraSans-Roman-20"/>
      <use x="408.935546875" xlink:href="#BitstreamVeraSans-Roman-6e"/>
      <use x="472.314453125" xlink:href="#BitstreamVeraSans-Roman-75"/>
      <use x="535.693359375" xlink:href="#BitstreamVeraSans-Roman-6d"/>
      <use x="633.10546875" xlink:href="#BitstreamVeraSans-Roman-62"/>
      <use x="696.58203125" xlink:href="#BitstreamVeraSans-Roman-65"/>
      <use x="758.10546875" xlink:href="#BitstreamVeraSans-Roman-72"/>
      <use x="799.21875" xlink:href="#BitstreamVeraSans-Roman-73"/>
     </g>
    </g>
   </g>
   <g id="legend_1">
    <g id="patch_7">
     <path d="
M729.421 80.6747
L774.1 80.6747
L774.1 68.3
L729.421 68.3
z
" style="fill:#ffffff;stroke:#000000;stroke-linejoin:miter;"/>
    </g>
    <g id="line2d_28">
     <path d="
M734.321 73.9689
L744.121 73.9689" style="fill:none;stroke:#ff0000;stroke-linecap:square;"/>
    </g>
    <g id="line2d_29"/>
    <g id="text_16">
     <!-- A el.0 -->
     <defs>
      <path d="
M10.6875 12.4062
L21 12.4062
L21 0
L10.6875 0
z
" id="BitstreamVeraSans-Roman-2e"/>
      <path d="
M34.1875 63.1875
L20.7969 26.9062
L47.6094 26.9062
z

M28.6094 72.9062
L39.7969 72.9062
L67.5781 0
L57.3281 0
L50.6875 18.7031
L17.8281 18.7031
L11.1875 0
L0.78125 0
z
" id="BitstreamVeraSans-Roman-41"/>
     </defs>
     <g transform="translate(751.82140625 76.41890625)scale(0.07 -0.07)">
      <use xlink:href="#BitstreamVeraSans-Roman-41"/>
      <use x="68.408203125" xlink:href="#BitstreamVeraSans-Roman-20"/>
      <use x="100.1953125" xlink:href="#BitstreamVeraSans-Roman-65"/>
      <use x="161.71875" xlink:href="#BitstreamVeraSans-Roman-6c"/>
      <use x="189.501953125" xlink:href="#BitstreamVeraSans-Roman-2e"/>
      <use x="221.2890625" xlink:href="#BitstreamVeraSans-Roman-30"/>
     </g>
    </g>
   </g>
  </g>
 </g>
 <defs>
  <clipPath id="p7ceb695115">
   <rect height="518.4" width="669.6" x="108.0" y="64.8"/>
  </clipPath>
 </defs>
</svg>
