<?xml version="1.0" encoding="UTF-8" standalone="no"?>
<!DOCTYPE svg PUBLIC "-//W3C//DTD SVG 1.1//EN"
 "http://www.w3.org/Graphics/SVG/1.1/DTD/svg11.dtd">
<!-- Generated by graphviz version 2.38.0 (20140413.2041)
 -->
<!-- Title: Connections Pages: 1 -->
<svg width="287pt" height="269pt"
 viewBox="0.00 0.00 287.09 269.22" xmlns="http://www.w3.org/2000/svg" xmlns:xlink="http://www.w3.org/1999/xlink">
<g id="graph0" class="graph" transform="scale(1 1) rotate(0) translate(143.568 134.699)">
<title>Connections</title>
<polygon fill="white" stroke="none" points="-143.568,134.524 -143.568,-134.699 143.526,-134.699 143.526,134.524 -143.568,134.524"/>
<!-- 0 -->
<g id="node1" class="node"><title>0</title>
<ellipse fill="grey" stroke="blue" cx="-112.568" cy="-19.2967" rx="27" ry="18"/>
<text text-anchor="middle" x="-112.568" y="-15.5967" font-family="Times,serif" font-size="14.00">0</text>
</g>
<!-- 1 -->
<g id="node2" class="node"><title>1</title>
<ellipse fill="grey" stroke="blue" cx="-47.6115" cy="-67.1133" rx="27" ry="18"/>
<text text-anchor="middle" x="-47.6115" y="-63.4133" font-family="Times,serif" font-size="14.00">1</text>
</g>
<!-- 0&#45;&gt;1 -->
<g id="edge1" class="edge"><title>0&#45;&gt;1</title>
<path fill="none" stroke="black" stroke-width="4.8563" d="M-100.329,-35.6056C-94.3414,-40.9252 -86.8749,-46.7572 -79.4509,-51.9817"/>
<polygon fill="black" stroke="black" stroke-width="4.8563" points="-81.5157,-55.7139 -70.8464,-57.7686 -76.7729,-48.6618 -81.5157,-55.7139"/>
</g>
<!-- 3 -->
<g id="node3" class="node"><title>3</title>
<ellipse fill="grey" stroke="blue" cx="-67.4514" cy="47.721" rx="27" ry="18"/>
<text text-anchor="middle" x="-67.4514" y="51.421" font-family="Times,serif" font-size="14.00">3</text>
</g>
<!-- 0&#45;&gt;3 -->
<g id="edge2" class="edge"><title>0&#45;&gt;3</title>
<path fill="none" stroke="black" stroke-width="3" d="M-95.7179,-5.05226C-89.632,2.56254 -83.013,12.14 -77.6278,21.0556"/>
<polygon fill="black" stroke="black" stroke-width="3" points="-74.4432,19.5751 -72.5365,29.997 -80.5262,23.0389 -74.4432,19.5751"/>
</g>
<!-- 1&#45;&gt;0 -->
<g id="edge3" class="edge"><title>1&#45;&gt;0</title>
<path fill="none" stroke="black" stroke-width="4.8563" d="M-59.851,-50.8043C-65.8385,-45.4847 -73.3049,-39.6527 -80.7289,-34.4282"/>
<polygon fill="black" stroke="black" stroke-width="4.8563" points="-78.6641,-30.6961 -89.3335,-28.6413 -83.4069,-37.7481 -78.6641,-30.6961"/>
</g>
<!-- 2 -->
<g id="node4" class="node"><title>2</title>
<ellipse fill="grey" stroke="blue" cx="18.9355" cy="-112.699" rx="27" ry="18"/>
<text text-anchor="middle" x="18.9355" y="-108.999" font-family="Times,serif" font-size="14.00">2</text>
</g>
<!-- 1&#45;&gt;2 -->
<g id="edge4" class="edge"><title>1&#45;&gt;2</title>
<path fill="none" stroke="black" stroke-width="4.8563" d="M-34.8243,-82.9978C-28.7111,-88.0683 -21.1273,-93.593 -13.5926,-98.5309"/>
<polygon fill="black" stroke="black" stroke-width="4.8563" points="-15.5922,-102.292 -4.86109,-103.996 -11.0834,-95.0883 -15.5922,-102.292"/>
</g>
<!-- 4 -->
<g id="node5" class="node"><title>4</title>
<ellipse fill="grey" stroke="blue" cx="0.186773" cy="0.28301" rx="27" ry="18"/>
<text text-anchor="middle" x="0.186773" y="3.98301" font-family="Times,serif" font-size="14.00">4</text>
</g>
<!-- 1&#45;&gt;4 -->
<g id="edge5" class="edge"><title>1&#45;&gt;4</title>
<path fill="none" stroke="black" stroke-width="4.38629" d="M-30.4177,-53.2212C-23.9333,-45.51 -16.7947,-35.7085 -10.9677,-26.5887"/>
<polygon fill="black" stroke="black" stroke-width="4.38629" points="-7.54254,-28.3417 -5.65073,-17.7988 -14.1105,-24.3688 -7.54254,-28.3417"/>
</g>
<!-- 3&#45;&gt;0 -->
<g id="edge8" class="edge"><title>3&#45;&gt;0</title>
<path fill="none" stroke="black" stroke-width="3" d="M-84.3019,33.4766C-90.3878,25.8618 -97.0067,16.2843 -102.392,7.36875"/>
<polygon fill="black" stroke="black" stroke-width="3" points="-105.577,8.84923 -107.483,-1.57264 -99.4936,5.38549 -105.577,8.84923"/>
</g>
<!-- 3&#45;&gt;4 -->
<g id="edge9" class="edge"><title>3&#45;&gt;4</title>
<path fill="none" stroke="black" stroke-width="4.8563" d="M-54.7754,31.6976C-48.283,26.1864 -40.1013,20.1094 -32.0376,14.7339"/>
<polygon fill="black" stroke="black" stroke-width="4.8563" points="-34.1354,11.0319 -23.4194,9.23637 -29.5649,18.1968 -34.1354,11.0319"/>
</g>
<!-- 6 -->
<g id="node7" class="node"><title>6</title>
<ellipse fill="grey" stroke="blue" cx="-19.2713" cy="112.524" rx="27" ry="18"/>
<text text-anchor="middle" x="-19.2713" y="116.224" font-family="Times,serif" font-size="14.00">6</text>
</g>
<!-- 3&#45;&gt;6 -->
<g id="edge10" class="edge"><title>3&#45;&gt;6</title>
<path fill="none" stroke="black" stroke-width="3" d="M-49.6789,61.4729C-43.3581,68.6984 -36.4645,77.7465 -30.7736,86.2293"/>
<polygon fill="black" stroke="black" stroke-width="3" points="-27.7595,84.4466 -25.3528,94.7645 -33.6685,88.1995 -27.7595,84.4466"/>
</g>
<!-- 2&#45;&gt;1 -->
<g id="edge6" class="edge"><title>2&#45;&gt;1</title>
<path fill="none" stroke="black" stroke-width="4.8563" d="M6.14834,-96.8144C0.0350801,-91.7439 -7.54873,-86.2193 -15.0834,-81.2814"/>
<polygon fill="black" stroke="black" stroke-width="4.8563" points="-13.0838,-77.52 -23.8149,-75.8167 -17.5926,-84.7239 -13.0838,-77.52"/>
</g>
<!-- 5 -->
<g id="node6" class="node"><title>5</title>
<ellipse fill="grey" stroke="blue" cx="67.2564" cy="-47.9615" rx="27" ry="18"/>
<text text-anchor="middle" x="67.2564" y="-44.2615" font-family="Times,serif" font-size="14.00">5</text>
</g>
<!-- 2&#45;&gt;5 -->
<g id="edge7" class="edge"><title>2&#45;&gt;5</title>
<path fill="none" stroke="black" stroke-width="3" d="M36.7389,-98.9738C43.0756,-91.7572 49.9889,-82.7185 55.6981,-74.2433"/>
<polygon fill="black" stroke="black" stroke-width="3" points="58.7108,-76.0284 61.1373,-65.7152 52.809,-72.2643 58.7108,-76.0284"/>
</g>
<!-- 4&#45;&gt;1 -->
<g id="edge11" class="edge"><title>4&#45;&gt;1</title>
<path fill="none" stroke="black" stroke-width="4.38629" d="M-17.007,-13.609C-23.4914,-21.3203 -30.63,-31.1218 -36.457,-40.2415"/>
<polygon fill="black" stroke="black" stroke-width="4.38629" points="-39.8822,-38.4886 -41.774,-49.0314 -33.3143,-42.4615 -39.8822,-38.4886"/>
</g>
<!-- 4&#45;&gt;3 -->
<g id="edge12" class="edge"><title>4&#45;&gt;3</title>
<path fill="none" stroke="black" stroke-width="4.8563" d="M-12.4892,16.3064C-18.9816,21.8176 -27.1633,27.8947 -35.2271,33.2701"/>
<polygon fill="black" stroke="black" stroke-width="4.8563" points="-33.1293,36.9721 -43.8453,38.7676 -37.6998,29.8072 -33.1293,36.9721"/>
</g>
<!-- 4&#45;&gt;5 -->
<g id="edge13" class="edge"><title>4&#45;&gt;5</title>
<path fill="none" stroke="black" stroke-width="4.8563" d="M12.6712,-15.8911C19.0976,-21.4797 27.2064,-27.6543 35.2057,-33.1259"/>
<polygon fill="black" stroke="black" stroke-width="4.8563" points="33.0642,-36.8028 43.758,-38.7262 37.72,-29.693 33.0642,-36.8028"/>
</g>
<!-- 7 -->
<g id="node8" class="node"><title>7</title>
<ellipse fill="grey" stroke="blue" cx="47.998" cy="67.6439" rx="27" ry="18"/>
<text text-anchor="middle" x="47.998" y="71.3439" font-family="Times,serif" font-size="14.00">7</text>
</g>
<!-- 4&#45;&gt;7 -->
<g id="edge14" class="edge"><title>4&#45;&gt;7</title>
<path fill="none" stroke="black" stroke-width="4.38629" d="M17.3826,14.1641C23.8684,21.8708 31.0089,31.6671 36.8377,40.7824"/>
<polygon fill="black" stroke="black" stroke-width="4.38629" points="40.2609,39.0259 42.1564,49.5681 33.6944,43.0012 40.2609,39.0259"/>
</g>
<!-- 5&#45;&gt;2 -->
<g id="edge15" class="edge"><title>5&#45;&gt;2</title>
<path fill="none" stroke="black" stroke-width="3" d="M49.4529,-61.6866C43.1163,-68.9032 36.203,-77.9419 30.4937,-86.4172"/>
<polygon fill="black" stroke="black" stroke-width="3" points="27.481,-84.632 25.0546,-94.9453 33.3828,-88.3962 27.481,-84.632"/>
</g>
<!-- 5&#45;&gt;4 -->
<g id="edge16" class="edge"><title>5&#45;&gt;4</title>
<path fill="none" stroke="black" stroke-width="4.8563" d="M54.772,-31.7874C48.3456,-26.1988 40.2367,-20.0242 32.2374,-14.5526"/>
<polygon fill="black" stroke="black" stroke-width="4.8563" points="34.3789,-10.8757 23.6851,-8.95226 29.7231,-17.9855 34.3789,-10.8757"/>
</g>
<!-- 8 -->
<g id="node9" class="node"><title>8</title>
<ellipse fill="grey" stroke="blue" cx="112.526" cy="18.8983" rx="27" ry="18"/>
<text text-anchor="middle" x="112.526" y="22.5983" font-family="Times,serif" font-size="14.00">8</text>
</g>
<!-- 5&#45;&gt;8 -->
<g id="edge17" class="edge"><title>5&#45;&gt;8</title>
<path fill="none" stroke="black" stroke-width="3" d="M84.1379,-33.7718C90.241,-26.1778 96.8818,-16.6234 102.287,-7.72698"/>
<polygon fill="black" stroke="black" stroke-width="3" points="105.465,-9.22078 107.399,1.19606 99.3913,-5.74113 105.465,-9.22078"/>
</g>
<!-- 6&#45;&gt;3 -->
<g id="edge18" class="edge"><title>6&#45;&gt;3</title>
<path fill="none" stroke="black" stroke-width="3" d="M-37.0438,98.7722C-43.3647,91.5467 -50.2583,82.4986 -55.9492,74.0158"/>
<polygon fill="black" stroke="black" stroke-width="3" points="-58.9632,75.7985 -61.37,65.4806 -53.0542,72.0456 -58.9632,75.7985"/>
</g>
<!-- 6&#45;&gt;7 -->
<g id="edge19" class="edge"><title>6&#45;&gt;7</title>
<path fill="none" stroke="black" stroke-width="4.8563" d="M-5.92611,96.5091C0.227743,91.5591 7.79315,86.2004 15.2984,81.4151"/>
<polygon fill="black" stroke="black" stroke-width="4.8563" points="13.242,77.6923 23.993,76.1198 17.6626,84.9506 13.242,77.6923"/>
</g>
<!-- 7&#45;&gt;4 -->
<g id="edge20" class="edge"><title>7&#45;&gt;4</title>
<path fill="none" stroke="black" stroke-width="4.38629" d="M30.8022,53.7628C24.3164,46.0561 17.1759,36.2599 11.3471,27.1446"/>
<polygon fill="black" stroke="black" stroke-width="4.38629" points="7.92395,28.901 6.02837,18.3588 14.4904,24.9258 7.92395,28.901"/>
</g>
<!-- 7&#45;&gt;6 -->
<g id="edge21" class="edge"><title>7&#45;&gt;6</title>
<path fill="none" stroke="black" stroke-width="4.8563" d="M34.6528,83.659C28.499,88.609 20.9336,93.9676 13.4284,98.7529"/>
<polygon fill="black" stroke="black" stroke-width="4.8563" points="15.4847,102.476 4.73373,104.048 11.0641,95.2174 15.4847,102.476"/>
</g>
<!-- 7&#45;&gt;8 -->
<g id="edge22" class="edge"><title>7&#45;&gt;8</title>
<path fill="none" stroke="black" stroke-width="4.8563" d="M59.7702,51.4321C65.7403,45.9683 73.255,39.936 80.7377,34.5262"/>
<polygon fill="black" stroke="black" stroke-width="4.8563" points="78.7697,30.721 89.4125,28.5328 83.6005,37.7131 78.7697,30.721"/>
</g>
<!-- 8&#45;&gt;5 -->
<g id="edge23" class="edge"><title>8&#45;&gt;5</title>
<path fill="none" stroke="black" stroke-width="3" d="M95.6443,4.70868C89.5413,-2.88538 82.9005,-12.4398 77.4949,-21.3362"/>
<polygon fill="black" stroke="black" stroke-width="3" points="74.317,-19.8424 72.3831,-30.2592 80.3909,-23.322 74.317,-19.8424"/>
</g>
<!-- 8&#45;&gt;7 -->
<g id="edge24" class="edge"><title>8&#45;&gt;7</title>
<path fill="none" stroke="black" stroke-width="4.8563" d="M100.754,35.1101C94.7837,40.574 87.269,46.6063 79.7863,52.0161"/>
<polygon fill="black" stroke="black" stroke-width="4.8563" points="81.7543,55.8212 71.1115,58.0095 76.9235,48.8292 81.7543,55.8212"/>
</g>
</g>
</svg>
