<?xml version="1.0" encoding="UTF-8" standalone="no"?>
<!DOCTYPE svg PUBLIC "-//W3C//DTD SVG 1.1//EN"
 "http://www.w3.org/Graphics/SVG/1.1/DTD/svg11.dtd">
<!-- Generated by graphviz version 2.38.0 (20140413.2041)
 -->
<!-- Title: Connections Pages: 1 -->
<svg width="634pt" height="717pt"
 viewBox="0.00 0.00 634.31 716.53" xmlns="http://www.w3.org/2000/svg" xmlns:xlink="http://www.w3.org/1999/xlink">
<g id="graph0" class="graph" transform="scale(1 1) rotate(0) translate(322.859 360.272)">
<title>Connections</title>
<polygon fill="white" stroke="none" points="-322.859,356.254 -322.859,-360.272 311.447,-360.272 311.447,356.254 -322.859,356.254"/>
<!-- 0 -->
<g id="node1" class="node"><title>0</title>
<ellipse fill="grey" stroke="blue" cx="-169.128" cy="334.254" rx="27" ry="18"/>
<text text-anchor="middle" x="-169.128" y="337.954" font-family="Times,serif" font-size="14.00">0</text>
</g>
<!-- 1 -->
<g id="node2" class="node"><title>1</title>
<ellipse fill="grey" stroke="blue" cx="-230.375" cy="280.008" rx="27" ry="18"/>
<text text-anchor="middle" x="-230.375" y="283.708" font-family="Times,serif" font-size="14.00">1</text>
</g>
<!-- 0&#45;&gt;1 -->
<g id="edge1" class="edge"><title>0&#45;&gt;1</title>
<path fill="none" stroke="black" stroke-width="4.8563" d="M-190.945,323.195C-198.06,317.722 -205.846,310.971 -212.631,304.419"/>
<polygon fill="black" stroke="black" stroke-width="4.8563" points="-216.042,307.012 -220.038,296.908 -209.991,301.045 -216.042,307.012"/>
</g>
<!-- 3 -->
<g id="node3" class="node"><title>3</title>
<ellipse fill="grey" stroke="blue" cx="-112.384" cy="277.025" rx="27" ry="18"/>
<text text-anchor="middle" x="-112.384" y="280.725" font-family="Times,serif" font-size="14.00">3</text>
</g>
<!-- 0&#45;&gt;3 -->
<g id="edge2" class="edge"><title>0&#45;&gt;3</title>
<path fill="none" stroke="black" stroke-width="3" d="M-160.343,317.212C-154.903,310.502 -147.707,302.821 -140.527,295.953"/>
<polygon fill="black" stroke="black" stroke-width="3" points="-142.565,293.074 -132.825,288.905 -137.839,298.238 -142.565,293.074"/>
</g>
<!-- 1&#45;&gt;0 -->
<g id="edge3" class="edge"><title>1&#45;&gt;0</title>
<path fill="none" stroke="black" stroke-width="4.8563" d="M-208.558,291.067C-201.443,296.54 -193.657,303.291 -186.872,309.843"/>
<polygon fill="black" stroke="black" stroke-width="4.8563" points="-183.461,307.25 -179.465,317.354 -189.512,313.217 -183.461,307.25"/>
</g>
<!-- 2 -->
<g id="node4" class="node"><title>2</title>
<ellipse fill="grey" stroke="blue" cx="-291.859" cy="225.624" rx="27" ry="18"/>
<text text-anchor="middle" x="-291.859" y="229.324" font-family="Times,serif" font-size="14.00">2</text>
</g>
<!-- 1&#45;&gt;2 -->
<g id="edge4" class="edge"><title>1&#45;&gt;2</title>
<path fill="none" stroke="black" stroke-width="4.8563" d="M-252.257,268.911C-259.399,263.424 -267.214,256.656 -274.027,250.088"/>
<polygon fill="black" stroke="black" stroke-width="4.8563" points="-277.46,252.659 -281.464,242.559 -271.414,246.687 -277.46,252.659"/>
</g>
<!-- 4 -->
<g id="node5" class="node"><title>4</title>
<ellipse fill="grey" stroke="blue" cx="-175.936" cy="220.856" rx="27" ry="18"/>
<text text-anchor="middle" x="-175.936" y="224.556" font-family="Times,serif" font-size="14.00">4</text>
</g>
<!-- 1&#45;&gt;4 -->
<g id="edge5" class="edge"><title>1&#45;&gt;4</title>
<path fill="none" stroke="black" stroke-width="4.38629" d="M-222.261,262.684C-217.089,255.793 -210.202,247.868 -203.299,240.757"/>
<polygon fill="black" stroke="black" stroke-width="4.38629" points="-205.698,237.733 -195.883,233.446 -200.31,243.199 -205.698,237.733"/>
</g>
<!-- 3&#45;&gt;0 -->
<g id="edge8" class="edge"><title>3&#45;&gt;0</title>
<path fill="none" stroke="black" stroke-width="3" d="M-121.169,294.068C-126.609,300.777 -133.805,308.459 -140.985,315.326"/>
<polygon fill="black" stroke="black" stroke-width="3" points="-138.947,318.205 -148.687,322.375 -143.672,313.041 -138.947,318.205"/>
</g>
<!-- 3&#45;&gt;4 -->
<g id="edge9" class="edge"><title>3&#45;&gt;4</title>
<path fill="none" stroke="black" stroke-width="4.8563" d="M-134.142,265.967C-142.106,259.879 -150.976,252.18 -158.52,244.841"/>
<polygon fill="black" stroke="black" stroke-width="4.8563" points="-161.562,247.807 -165.538,237.695 -155.499,241.851 -161.562,247.807"/>
</g>
<!-- 6 -->
<g id="node7" class="node"><title>6</title>
<ellipse fill="grey" stroke="blue" cx="-57.2001" cy="216.823" rx="27" ry="18"/>
<text text-anchor="middle" x="-57.2001" y="220.523" font-family="Times,serif" font-size="14.00">6</text>
</g>
<!-- 3&#45;&gt;6 -->
<g id="edge10" class="edge"><title>3&#45;&gt;6</title>
<path fill="none" stroke="black" stroke-width="3" d="M-104.353,259.799C-98.9324,252.529 -91.595,244.073 -84.2975,236.566"/>
<polygon fill="black" stroke="black" stroke-width="3" points="-86.6637,233.984 -77.0858,229.455 -81.7487,238.968 -86.6637,233.984"/>
</g>
<!-- 2&#45;&gt;1 -->
<g id="edge6" class="edge"><title>2&#45;&gt;1</title>
<path fill="none" stroke="black" stroke-width="4.8563" d="M-269.977,236.721C-262.836,242.208 -255.02,248.976 -248.207,255.544"/>
<polygon fill="black" stroke="black" stroke-width="4.8563" points="-244.774,252.973 -240.77,263.073 -250.821,258.945 -244.774,252.973"/>
</g>
<!-- 5 -->
<g id="node6" class="node"><title>5</title>
<ellipse fill="grey" stroke="blue" cx="-240.206" cy="164.565" rx="27" ry="18"/>
<text text-anchor="middle" x="-240.206" y="168.265" font-family="Times,serif" font-size="14.00">5</text>
</g>
<!-- 2&#45;&gt;5 -->
<g id="edge7" class="edge"><title>2&#45;&gt;5</title>
<path fill="none" stroke="black" stroke-width="3" d="M-284.536,208.048C-279.608,200.868 -272.963,192.557 -266.291,185.111"/>
<polygon fill="black" stroke="black" stroke-width="3" points="-268.514,182.366 -259.12,177.467 -263.409,187.155 -268.514,182.366"/>
</g>
<!-- 4&#45;&gt;1 -->
<g id="edge11" class="edge"><title>4&#45;&gt;1</title>
<path fill="none" stroke="black" stroke-width="4.38629" d="M-184.05,238.18C-189.222,245.071 -196.109,252.996 -203.012,260.108"/>
<polygon fill="black" stroke="black" stroke-width="4.38629" points="-200.612,263.131 -210.428,267.418 -206.001,257.665 -200.612,263.131"/>
</g>
<!-- 4&#45;&gt;3 -->
<g id="edge12" class="edge"><title>4&#45;&gt;3</title>
<path fill="none" stroke="black" stroke-width="4.8563" d="M-154.178,231.914C-146.213,238.002 -137.343,245.702 -129.8,253.041"/>
<polygon fill="black" stroke="black" stroke-width="4.8563" points="-126.757,250.075 -122.781,260.186 -132.82,256.03 -126.757,250.075"/>
</g>
<!-- 4&#45;&gt;5 -->
<g id="edge13" class="edge"><title>4&#45;&gt;5</title>
<path fill="none" stroke="black" stroke-width="4.8563" d="M-197.873,209.782C-205.92,203.682 -214.889,195.966 -222.523,188.61"/>
<polygon fill="black" stroke="black" stroke-width="4.8563" points="-225.602,191.54 -229.629,181.448 -219.569,185.554 -225.602,191.54"/>
</g>
<!-- 7 -->
<g id="node8" class="node"><title>7</title>
<ellipse fill="grey" stroke="blue" cx="-121.993" cy="161.757" rx="27" ry="18"/>
<text text-anchor="middle" x="-121.993" y="165.457" font-family="Times,serif" font-size="14.00">7</text>
</g>
<!-- 4&#45;&gt;7 -->
<g id="edge14" class="edge"><title>4&#45;&gt;7</title>
<path fill="none" stroke="black" stroke-width="4.38629" d="M-167.95,203.562C-162.834,196.679 -156.012,188.762 -149.17,181.656"/>
<polygon fill="black" stroke="black" stroke-width="4.38629" points="-151.615,178.675 -141.816,174.35 -146.205,184.121 -151.615,178.675"/>
</g>
<!-- 5&#45;&gt;2 -->
<g id="edge15" class="edge"><title>5&#45;&gt;2</title>
<path fill="none" stroke="black" stroke-width="3" d="M-247.529,182.141C-252.457,189.32 -259.102,197.632 -265.775,205.078"/>
<polygon fill="black" stroke="black" stroke-width="3" points="-263.551,207.823 -272.945,212.722 -268.657,203.034 -263.551,207.823"/>
</g>
<!-- 5&#45;&gt;4 -->
<g id="edge16" class="edge"><title>5&#45;&gt;4</title>
<path fill="none" stroke="black" stroke-width="4.8563" d="M-218.269,175.639C-210.222,181.739 -201.253,189.455 -193.619,196.811"/>
<polygon fill="black" stroke="black" stroke-width="4.8563" points="-190.54,193.881 -186.513,203.973 -196.573,199.867 -190.54,193.881"/>
</g>
<!-- 8 -->
<g id="node9" class="node"><title>8</title>
<ellipse fill="grey" stroke="blue" cx="-186.498" cy="104.309" rx="27" ry="18"/>
<text text-anchor="middle" x="-186.498" y="108.009" font-family="Times,serif" font-size="14.00">8</text>
</g>
<!-- 5&#45;&gt;8 -->
<g id="edge17" class="edge"><title>5&#45;&gt;8</title>
<path fill="none" stroke="black" stroke-width="3" d="M-232.32,147.058C-227.154,139.949 -220.23,131.738 -213.306,124.399"/>
<polygon fill="black" stroke="black" stroke-width="3" points="-215.391,121.528 -205.875,116.87 -210.409,126.446 -215.391,121.528"/>
</g>
<!-- 6&#45;&gt;3 -->
<g id="edge18" class="edge"><title>6&#45;&gt;3</title>
<path fill="none" stroke="black" stroke-width="3" d="M-65.2305,234.049C-70.6513,241.319 -77.9887,249.775 -85.2862,257.282"/>
<polygon fill="black" stroke="black" stroke-width="3" points="-82.92,259.864 -92.498,264.393 -87.835,254.88 -82.92,259.864"/>
</g>
<!-- 6&#45;&gt;7 -->
<g id="edge19" class="edge"><title>6&#45;&gt;7</title>
<path fill="none" stroke="black" stroke-width="4.8563" d="M-79.214,206.15C-87.3143,200.201 -96.3545,192.655 -104.059,185.447"/>
<polygon fill="black" stroke="black" stroke-width="4.8563" points="-107.061,188.454 -111.234,178.422 -101.116,182.381 -107.061,188.454"/>
</g>
<!-- 9 -->
<g id="node10" class="node"><title>9</title>
<ellipse fill="grey" stroke="blue" cx="-4.68096" cy="153.235" rx="27" ry="18"/>
<text text-anchor="middle" x="-4.68096" y="156.935" font-family="Times,serif" font-size="14.00">9</text>
</g>
<!-- 6&#45;&gt;9 -->
<g id="edge20" class="edge"><title>6&#45;&gt;9</title>
<path fill="none" stroke="black" stroke-width="3" d="M-50.1824,199.409C-44.9022,191.478 -37.542,182.083 -30.2439,173.818"/>
<polygon fill="black" stroke="black" stroke-width="3" points="-32.6875,171.305 -23.3359,166.325 -27.541,176.05 -32.6875,171.305"/>
</g>
<!-- 7&#45;&gt;4 -->
<g id="edge21" class="edge"><title>7&#45;&gt;4</title>
<path fill="none" stroke="black" stroke-width="4.38629" d="M-129.979,179.051C-135.095,185.934 -141.917,193.851 -148.759,200.957"/>
<polygon fill="black" stroke="black" stroke-width="4.38629" points="-146.313,203.938 -156.113,208.263 -151.724,198.492 -146.313,203.938"/>
</g>
<!-- 7&#45;&gt;6 -->
<g id="edge22" class="edge"><title>7&#45;&gt;6</title>
<path fill="none" stroke="black" stroke-width="4.8563" d="M-99.9791,172.43C-91.8788,178.379 -82.8386,185.924 -75.1339,193.133"/>
<polygon fill="black" stroke="black" stroke-width="4.8563" points="-72.1317,190.125 -67.9586,200.157 -78.077,196.198 -72.1317,190.125"/>
</g>
<!-- 7&#45;&gt;8 -->
<g id="edge23" class="edge"><title>7&#45;&gt;8</title>
<path fill="none" stroke="black" stroke-width="4.8563" d="M-143.67,150.607C-151.888,144.288 -161.104,136.231 -168.907,128.584"/>
<polygon fill="black" stroke="black" stroke-width="4.8563" points="-172.214,131.279 -176.151,121.152 -166.128,125.347 -172.214,131.279"/>
</g>
<!-- 10 -->
<g id="node11" class="node"><title>10</title>
<ellipse fill="grey" stroke="blue" cx="-69.0634" cy="102.631" rx="27" ry="18"/>
<text text-anchor="middle" x="-69.0634" y="106.331" font-family="Times,serif" font-size="14.00">10</text>
</g>
<!-- 7&#45;&gt;10 -->
<g id="edge24" class="edge"><title>7&#45;&gt;10</title>
<path fill="none" stroke="black" stroke-width="4.38629" d="M-114.275,144.498C-109.272,137.618 -102.584,129.7 -95.8649,122.589"/>
<polygon fill="black" stroke="black" stroke-width="4.38629" points="-98.3981,119.692 -88.6394,115.276 -92.938,125.087 -98.3981,119.692"/>
</g>
<!-- 8&#45;&gt;5 -->
<g id="edge25" class="edge"><title>8&#45;&gt;5</title>
<path fill="none" stroke="black" stroke-width="3" d="M-194.385,121.815C-199.55,128.925 -206.474,137.135 -213.398,144.475"/>
<polygon fill="black" stroke="black" stroke-width="3" points="-211.313,147.345 -220.829,152.004 -216.296,142.428 -211.313,147.345"/>
</g>
<!-- 8&#45;&gt;7 -->
<g id="edge26" class="edge"><title>8&#45;&gt;7</title>
<path fill="none" stroke="black" stroke-width="4.8563" d="M-164.821,115.458C-156.603,121.778 -147.388,129.834 -139.584,137.482"/>
<polygon fill="black" stroke="black" stroke-width="4.8563" points="-136.277,134.786 -132.34,144.913 -142.363,140.718 -136.277,134.786"/>
</g>
<!-- 11 -->
<g id="node12" class="node"><title>11</title>
<ellipse fill="grey" stroke="blue" cx="-131.299" cy="44.6439" rx="27" ry="18"/>
<text text-anchor="middle" x="-131.299" y="48.3439" font-family="Times,serif" font-size="14.00">11</text>
</g>
<!-- 8&#45;&gt;11 -->
<g id="edge27" class="edge"><title>8&#45;&gt;11</title>
<path fill="none" stroke="black" stroke-width="3" d="M-178.201,86.8575C-172.75,79.6495 -165.434,71.317 -158.177,63.9398"/>
<polygon fill="black" stroke="black" stroke-width="3" points="-160.616,61.4299 -151.011,56.9581 -155.731,66.4435 -160.616,61.4299"/>
</g>
<!-- 9&#45;&gt;6 -->
<g id="edge28" class="edge"><title>9&#45;&gt;6</title>
<path fill="none" stroke="black" stroke-width="3" d="M-11.6987,170.649C-16.9789,178.58 -24.3391,187.975 -31.6371,196.24"/>
<polygon fill="black" stroke="black" stroke-width="3" points="-29.1936,198.753 -38.5452,203.733 -34.3401,194.008 -29.1936,198.753"/>
</g>
<!-- 9&#45;&gt;10 -->
<g id="edge29" class="edge"><title>9&#45;&gt;10</title>
<path fill="none" stroke="black" stroke-width="4.8563" d="M-27.4908,143.213C-34.7882,138.23 -42.7715,132.083 -49.7946,126.064"/>
<polygon fill="black" stroke="black" stroke-width="4.8563" points="-52.9053,128.981 -57.4994,119.134 -47.2225,122.662 -52.9053,128.981"/>
</g>
<!-- 12 -->
<g id="node13" class="node"><title>12</title>
<ellipse fill="grey" stroke="blue" cx="39.2988" cy="80.9721" rx="27" ry="18"/>
<text text-anchor="middle" x="39.2988" y="84.6721" font-family="Times,serif" font-size="14.00">12</text>
</g>
<!-- 9&#45;&gt;12 -->
<g id="edge30" class="edge"><title>9&#45;&gt;12</title>
<path fill="none" stroke="black" stroke-width="3" d="M-0.345819,135.355C4.08666,125.959 10.7696,114.369 17.45,104.288"/>
<polygon fill="black" stroke="black" stroke-width="3" points="14.6867,102.131 23.2633,95.9108 20.4377,106.122 14.6867,102.131"/>
</g>
<!-- 10&#45;&gt;7 -->
<g id="edge31" class="edge"><title>10&#45;&gt;7</title>
<path fill="none" stroke="black" stroke-width="4.38629" d="M-76.7817,119.89C-81.7847,126.77 -88.472,134.688 -95.1914,141.799"/>
<polygon fill="black" stroke="black" stroke-width="4.38629" points="-92.6582,144.696 -102.417,149.112 -98.1183,139.301 -92.6582,144.696"/>
</g>
<!-- 10&#45;&gt;9 -->
<g id="edge32" class="edge"><title>10&#45;&gt;9</title>
<path fill="none" stroke="black" stroke-width="4.8563" d="M-46.2535,112.653C-38.9561,117.636 -30.9729,123.784 -23.9497,129.803"/>
<polygon fill="black" stroke="black" stroke-width="4.8563" points="-20.839,126.886 -16.2449,136.732 -26.5218,133.205 -20.839,126.886"/>
</g>
<!-- 10&#45;&gt;11 -->
<g id="edge33" class="edge"><title>10&#45;&gt;11</title>
<path fill="none" stroke="black" stroke-width="4.8563" d="M-90.2216,91.2422C-98.1802,84.8468 -107.076,76.7123 -114.584,69.0046"/>
<polygon fill="black" stroke="black" stroke-width="4.8563" points="-117.846,71.7365 -121.544,61.5195 -111.622,65.9495 -117.846,71.7365"/>
</g>
<!-- 13 -->
<g id="node14" class="node"><title>13</title>
<ellipse fill="grey" stroke="blue" cx="-15.0089" cy="43.9348" rx="27" ry="18"/>
<text text-anchor="middle" x="-15.0089" y="47.6348" font-family="Times,serif" font-size="14.00">13</text>
</g>
<!-- 10&#45;&gt;13 -->
<g id="edge34" class="edge"><title>10&#45;&gt;13</title>
<path fill="none" stroke="black" stroke-width="4.38629" d="M-61.0352,85.4096C-55.904,78.5668 -49.067,70.7014 -42.2116,63.6457"/>
<polygon fill="black" stroke="black" stroke-width="4.38629" points="-44.6641,60.6743 -34.8453,56.394 -39.279,66.1445 -44.6641,60.6743"/>
</g>
<!-- 11&#45;&gt;8 -->
<g id="edge35" class="edge"><title>11&#45;&gt;8</title>
<path fill="none" stroke="black" stroke-width="3" d="M-139.596,62.0949C-145.047,69.3029 -152.364,77.6355 -159.62,85.0127"/>
<polygon fill="black" stroke="black" stroke-width="3" points="-157.181,87.5226 -166.786,91.9944 -162.066,82.5089 -157.181,87.5226"/>
</g>
<!-- 11&#45;&gt;10 -->
<g id="edge36" class="edge"><title>11&#45;&gt;10</title>
<path fill="none" stroke="black" stroke-width="4.8563" d="M-110.141,56.0329C-102.182,62.4283 -93.2863,70.5629 -85.7781,78.2706"/>
<polygon fill="black" stroke="black" stroke-width="4.8563" points="-82.5159,75.5387 -78.8186,85.7557 -88.7398,81.3256 -82.5159,75.5387"/>
</g>
<!-- 14 -->
<g id="node15" class="node"><title>14</title>
<ellipse fill="grey" stroke="blue" cx="-71.0578" cy="-12.7787" rx="27" ry="18"/>
<text text-anchor="middle" x="-71.0578" y="-9.07873" font-family="Times,serif" font-size="14.00">14</text>
</g>
<!-- 11&#45;&gt;14 -->
<g id="edge37" class="edge"><title>11&#45;&gt;14</title>
<path fill="none" stroke="black" stroke-width="3" d="M-121.876,27.7596C-115.853,20.7521 -107.808,12.6626 -99.8774,5.52681"/>
<polygon fill="black" stroke="black" stroke-width="3" points="-101.921,2.66733 -92.0633,-1.21564 -97.3479,7.96714 -101.921,2.66733"/>
</g>
<!-- 12&#45;&gt;9 -->
<g id="edge38" class="edge"><title>12&#45;&gt;9</title>
<path fill="none" stroke="black" stroke-width="3" d="M34.9636,98.8527C30.5312,108.249 23.8482,119.838 17.1678,129.919"/>
<polygon fill="black" stroke="black" stroke-width="3" points="19.9311,132.076 11.3546,138.297 14.1801,128.085 19.9311,132.076"/>
</g>
<!-- 12&#45;&gt;13 -->
<g id="edge39" class="edge"><title>12&#45;&gt;13</title>
<path fill="none" stroke="black" stroke-width="4.8563" d="M15.3858,72.5926C12.1418,70.6034 8.83731,68.4181 5.65606,66.1623"/>
<polygon fill="black" stroke="black" stroke-width="4.8563" points="3.06583,69.5311 -2.3508,60.1121 8.18938,62.7506 3.06583,69.5311"/>
</g>
<!-- 15 -->
<g id="node16" class="node"><title>15</title>
<ellipse fill="grey" stroke="blue" cx="22.0284" cy="-19.8061" rx="27" ry="18"/>
<text text-anchor="middle" x="22.0284" y="-16.1061" font-family="Times,serif" font-size="14.00">15</text>
</g>
<!-- 12&#45;&gt;15 -->
<g id="edge40" class="edge"><title>12&#45;&gt;15</title>
<path fill="none" stroke="black" stroke-width="3" d="M30.8441,63.3938C26.6753,48.3171 22.6598,26.315 20.7399,8.72059"/>
<polygon fill="black" stroke="black" stroke-width="3" points="17.2251,8.70544 19.8326,-1.56348 24.198,8.09023 17.2251,8.70544"/>
</g>
<!-- 13&#45;&gt;10 -->
<g id="edge41" class="edge"><title>13&#45;&gt;10</title>
<path fill="none" stroke="black" stroke-width="4.38629" d="M-23.037,61.1564C-28.1682,67.9992 -35.0052,75.8646 -41.8607,82.9203"/>
<polygon fill="black" stroke="black" stroke-width="4.38629" points="-39.4081,85.8917 -49.227,90.172 -44.7932,80.4215 -39.4081,85.8917"/>
</g>
<!-- 13&#45;&gt;12 -->
<g id="edge42" class="edge"><title>13&#45;&gt;12</title>
<path fill="none" stroke="black" stroke-width="4.8563" d="M8.90412,52.3142C12.1481,54.3035 15.4526,56.4887 18.6338,58.7445"/>
<polygon fill="black" stroke="black" stroke-width="4.8563" points="21.2241,55.3758 26.6407,64.7948 16.1005,62.1563 21.2241,55.3758"/>
</g>
<!-- 13&#45;&gt;14 -->
<g id="edge43" class="edge"><title>13&#45;&gt;14</title>
<path fill="none" stroke="black" stroke-width="4.8563" d="M-35.6204,31.8792C-42.1972,26.1085 -49.3331,19.0414 -55.5005,12.224"/>
<polygon fill="black" stroke="black" stroke-width="4.8563" points="-58.906,14.7809 -62.2039,4.42809 -52.4621,9.23999 -58.906,14.7809"/>
</g>
<!-- 16 -->
<g id="node17" class="node"><title>16</title>
<ellipse fill="grey" stroke="blue" cx="63.7582" cy="-4.53238" rx="27" ry="18"/>
<text text-anchor="middle" x="63.7582" y="-0.832377" font-family="Times,serif" font-size="14.00">16</text>
</g>
<!-- 13&#45;&gt;16 -->
<g id="edge44" class="edge"><title>13&#45;&gt;16</title>
<path fill="none" stroke="black" stroke-width="4.38629" d="M-0.893422,28.5819C7.84259,22.0295 19.3994,14.5671 30.3362,8.31193"/>
<polygon fill="black" stroke="black" stroke-width="4.38629" points="28.689,4.83786 39.3017,3.38804 32.3842,11.566 28.689,4.83786"/>
</g>
<!-- 14&#45;&gt;11 -->
<g id="edge45" class="edge"><title>14&#45;&gt;11</title>
<path fill="none" stroke="black" stroke-width="3" d="M-80.4806,4.10559C-86.5035,11.113 -94.5483,19.2026 -102.479,26.3384"/>
<polygon fill="black" stroke="black" stroke-width="3" points="-100.436,29.1979 -110.293,33.0808 -105.009,23.8981 -100.436,29.1979"/>
</g>
<!-- 14&#45;&gt;13 -->
<g id="edge46" class="edge"><title>14&#45;&gt;13</title>
<path fill="none" stroke="black" stroke-width="4.8563" d="M-50.4463,-0.723138C-43.8695,5.04756 -36.7336,12.1146 -30.5662,18.9321"/>
<polygon fill="black" stroke="black" stroke-width="4.8563" points="-27.1607,16.3751 -23.8628,26.7279 -33.6046,21.916 -27.1607,16.3751"/>
</g>
<!-- 17 -->
<g id="node18" class="node"><title>17</title>
<ellipse fill="grey" stroke="blue" cx="10.1791" cy="-56.1463" rx="27" ry="18"/>
<text text-anchor="middle" x="10.1791" y="-52.4463" font-family="Times,serif" font-size="14.00">17</text>
</g>
<!-- 14&#45;&gt;17 -->
<g id="edge47" class="edge"><title>14&#45;&gt;17</title>
<path fill="none" stroke="black" stroke-width="3" d="M-55.3369,-27.7015C-46.5018,-33.4623 -35.1403,-39.8424 -24.3583,-45.1838"/>
<polygon fill="black" stroke="black" stroke-width="3" points="-25.6457,-48.4468 -15.1104,-49.5687 -22.6467,-42.1218 -25.6457,-48.4468"/>
</g>
<!-- 15&#45;&gt;12 -->
<g id="edge48" class="edge"><title>15&#45;&gt;12</title>
<path fill="none" stroke="black" stroke-width="3" d="M30.4831,-2.22789C34.6519,12.8489 38.6673,34.851 40.5873,52.4453"/>
<polygon fill="black" stroke="black" stroke-width="3" points="44.1021,52.4605 41.4945,62.7294 37.1292,53.0757 44.1021,52.4605"/>
</g>
<!-- 15&#45;&gt;16 -->
<g id="edge49" class="edge"><title>15&#45;&gt;16</title>
<path fill="none" stroke="black" stroke-width="4.8563" d="M49.0689,-16.9845C49.1378,-16.9552 49.2066,-16.9258 49.2753,-16.8964"/>
<polygon fill="black" stroke="black" stroke-width="4.8563" points="41.9778,-24.6685 49.481,-16.8078 38.6143,-16.8626 41.9778,-24.6685"/>
</g>
<!-- 18 -->
<g id="node19" class="node"><title>18</title>
<ellipse fill="grey" stroke="blue" cx="19.097" cy="-124.408" rx="27" ry="18"/>
<text text-anchor="middle" x="19.097" y="-120.708" font-family="Times,serif" font-size="14.00">18</text>
</g>
<!-- 15&#45;&gt;18 -->
<g id="edge50" class="edge"><title>15&#45;&gt;18</title>
<path fill="none" stroke="black" stroke-width="3" d="M16.3162,-37.4042C14.1501,-53.5105 13.1977,-77.6184 13.8332,-96.3755"/>
<polygon fill="black" stroke="black" stroke-width="3" points="10.3418,-96.6318 14.3725,-106.43 17.3317,-96.2567 10.3418,-96.6318"/>
</g>
<!-- 16&#45;&gt;13 -->
<g id="edge51" class="edge"><title>16&#45;&gt;13</title>
<path fill="none" stroke="black" stroke-width="4.38629" d="M49.6427,10.8205C40.9067,17.3729 29.3499,24.8353 18.4131,31.0905"/>
<polygon fill="black" stroke="black" stroke-width="4.38629" points="20.0603,34.5645 9.44763,36.0143 16.3652,27.8364 20.0603,34.5645"/>
</g>
<!-- 16&#45;&gt;15 -->
<g id="edge52" class="edge"><title>16&#45;&gt;15</title>
<path fill="none" stroke="black" stroke-width="4.8563" d="M36.7177,-7.35401C36.6488,-7.38331 36.58,-7.4127 36.5113,-7.44215"/>
<polygon fill="black" stroke="black" stroke-width="4.8563" points="43.8088,0.329967 36.3056,-7.53075 47.1723,-7.47592 43.8088,0.329967"/>
</g>
<!-- 16&#45;&gt;17 -->
<g id="edge53" class="edge"><title>16&#45;&gt;17</title>
<path fill="none" stroke="black" stroke-width="4.8563" d="M42.7274,-16.0422C37.2793,-20.6311 31.5142,-26.0489 26.3507,-31.4105"/>
<polygon fill="black" stroke="black" stroke-width="4.8563" points="22.9176,-28.8692 19.3231,-39.1228 29.1993,-34.5933 22.9176,-28.8692"/>
</g>
<!-- 19 -->
<g id="node20" class="node"><title>19</title>
<ellipse fill="grey" stroke="blue" cx="83.1578" cy="-93.5279" rx="27" ry="18"/>
<text text-anchor="middle" x="83.1578" y="-89.8279" font-family="Times,serif" font-size="14.00">19</text>
</g>
<!-- 16&#45;&gt;19 -->
<g id="edge54" class="edge"><title>16&#45;&gt;19</title>
<path fill="none" stroke="black" stroke-width="4.38629" d="M62.1659,-22.8541C63.5381,-35.498 66.9483,-52.5075 70.8251,-66.6744"/>
<polygon fill="black" stroke="black" stroke-width="4.38629" points="67.1825,-67.8906 73.708,-76.3847 74.5411,-65.7059 67.1825,-67.8906"/>
</g>
<!-- 17&#45;&gt;14 -->
<g id="edge55" class="edge"><title>17&#45;&gt;14</title>
<path fill="none" stroke="black" stroke-width="3" d="M-5.54187,-41.2235C-14.377,-35.4627 -25.7385,-29.0826 -36.5205,-23.7412"/>
<polygon fill="black" stroke="black" stroke-width="3" points="-35.2331,-20.4782 -45.7684,-19.3563 -38.2321,-26.8032 -35.2331,-20.4782"/>
</g>
<!-- 17&#45;&gt;16 -->
<g id="edge56" class="edge"><title>17&#45;&gt;16</title>
<path fill="none" stroke="black" stroke-width="4.8563" d="M31.2099,-44.6364C36.6579,-40.0476 42.4231,-34.6298 47.5866,-29.2681"/>
<polygon fill="black" stroke="black" stroke-width="4.8563" points="51.0197,-31.8095 54.6142,-21.5559 44.7379,-26.0854 51.0197,-31.8095"/>
</g>
<!-- 20 -->
<g id="node21" class="node"><title>20</title>
<ellipse fill="grey" stroke="blue" cx="126.08" cy="-56.6374" rx="27" ry="18"/>
<text text-anchor="middle" x="126.08" y="-52.9374" font-family="Times,serif" font-size="14.00">20</text>
</g>
<!-- 17&#45;&gt;20 -->
<g id="edge57" class="edge"><title>17&#45;&gt;20</title>
<path fill="none" stroke="black" stroke-width="3" d="M35.8769,-61.9753C51.7777,-63.1813 72.4319,-63.4634 89.9634,-62.788"/>
<polygon fill="black" stroke="black" stroke-width="3" points="90.6012,-66.2596 100.405,-62.2435 90.2366,-59.2691 90.6012,-66.2596"/>
</g>
<!-- 18&#45;&gt;15 -->
<g id="edge58" class="edge"><title>18&#45;&gt;15</title>
<path fill="none" stroke="black" stroke-width="3" d="M24.8092,-106.809C26.9753,-90.7032 27.9277,-66.5953 27.2922,-47.8382"/>
<polygon fill="black" stroke="black" stroke-width="3" points="30.7836,-47.5819 26.7528,-37.7838 23.7937,-47.957 30.7836,-47.5819"/>
</g>
<!-- 18&#45;&gt;19 -->
<g id="edge59" class="edge"><title>18&#45;&gt;19</title>
<path fill="none" stroke="black" stroke-width="4.8563" d="M45.0524,-119.126C49.3793,-117.296 53.8579,-115.207 58.1602,-113.015"/>
<polygon fill="black" stroke="black" stroke-width="4.8563" points="60.4145,-116.627 67.17,-108.116 56.3548,-109.16 60.4145,-116.627"/>
</g>
<!-- 21 -->
<g id="node22" class="node"><title>21</title>
<ellipse fill="grey" stroke="blue" cx="54.2744" cy="-202.867" rx="27" ry="18"/>
<text text-anchor="middle" x="54.2744" y="-199.167" font-family="Times,serif" font-size="14.00">21</text>
</g>
<!-- 18&#45;&gt;21 -->
<g id="edge60" class="edge"><title>18&#45;&gt;21</title>
<path fill="none" stroke="black" stroke-width="3" d="M21.1526,-142.555C24.5873,-153.115 30.2721,-166.547 36.0616,-178.065"/>
<polygon fill="black" stroke="black" stroke-width="3" points="33.1224,-179.993 40.9024,-187.185 39.3054,-176.711 33.1224,-179.993"/>
</g>
<!-- 19&#45;&gt;16 -->
<g id="edge61" class="edge"><title>19&#45;&gt;16</title>
<path fill="none" stroke="black" stroke-width="4.38629" d="M84.7502,-75.2062C83.3779,-62.5622 79.9677,-45.5527 76.0909,-31.3858"/>
<polygon fill="black" stroke="black" stroke-width="4.38629" points="79.7335,-30.1696 73.208,-21.6756 72.375,-32.3544 79.7335,-30.1696"/>
</g>
<!-- 19&#45;&gt;18 -->
<g id="edge62" class="edge"><title>19&#45;&gt;18</title>
<path fill="none" stroke="black" stroke-width="4.8563" d="M57.2024,-98.8095C52.8755,-100.639 48.397,-102.728 44.0946,-104.92"/>
<polygon fill="black" stroke="black" stroke-width="4.8563" points="41.8403,-101.309 35.0849,-109.819 45.9,-108.775 41.8403,-101.309"/>
</g>
<!-- 19&#45;&gt;20 -->
<g id="edge63" class="edge"><title>19&#45;&gt;20</title>
<path fill="none" stroke="black" stroke-width="4.8563" d="M105.459,-83.1545C106.524,-82.3025 107.586,-81.4246 108.636,-80.5294"/>
<polygon fill="black" stroke="black" stroke-width="4.8563" points="111.811,-83.3808 116.267,-73.4709 106.04,-77.142 111.811,-83.3808"/>
</g>
<!-- 22 -->
<g id="node23" class="node"><title>22</title>
<ellipse fill="grey" stroke="blue" cx="124.787" cy="-162.252" rx="27" ry="18"/>
<text text-anchor="middle" x="124.787" y="-158.552" font-family="Times,serif" font-size="14.00">22</text>
</g>
<!-- 19&#45;&gt;22 -->
<g id="edge64" class="edge"><title>19&#45;&gt;22</title>
<path fill="none" stroke="black" stroke-width="4.38629" d="M87.3338,-111.382C91.3397,-119.915 97.2137,-130.196 103.179,-139.291"/>
<polygon fill="black" stroke="black" stroke-width="4.38629" points="100.036,-141.494 108.869,-147.553 106.358,-137.14 100.036,-141.494"/>
</g>
<!-- 20&#45;&gt;17 -->
<g id="edge65" class="edge"><title>20&#45;&gt;17</title>
<path fill="none" stroke="black" stroke-width="3" d="M100.382,-50.8084C84.4811,-49.6023 63.8269,-49.3203 46.2954,-49.9956"/>
<polygon fill="black" stroke="black" stroke-width="3" points="45.6576,-46.524 35.8535,-50.5402 46.0222,-53.5145 45.6576,-46.524"/>
</g>
<!-- 20&#45;&gt;19 -->
<g id="edge66" class="edge"><title>20&#45;&gt;19</title>
<path fill="none" stroke="black" stroke-width="4.8563" d="M103.779,-67.0107C102.714,-67.8628 101.651,-68.7407 100.602,-69.6358"/>
<polygon fill="black" stroke="black" stroke-width="4.8563" points="97.4266,-66.7844 92.971,-76.6943 103.197,-73.0232 97.4266,-66.7844"/>
</g>
<!-- 23 -->
<g id="node24" class="node"><title>23</title>
<ellipse fill="grey" stroke="blue" cx="187.931" cy="-114.702" rx="27" ry="18"/>
<text text-anchor="middle" x="187.931" y="-111.002" font-family="Times,serif" font-size="14.00">23</text>
</g>
<!-- 20&#45;&gt;23 -->
<g id="edge67" class="edge"><title>20&#45;&gt;23</title>
<path fill="none" stroke="black" stroke-width="3" d="M135.892,-73.6942C142.162,-80.8512 150.537,-89.1271 158.754,-96.3983"/>
<polygon fill="black" stroke="black" stroke-width="3" points="156.625,-99.1819 166.511,-102.992 161.159,-93.8487 156.625,-99.1819"/>
</g>
<!-- 21&#45;&gt;18 -->
<g id="edge68" class="edge"><title>21&#45;&gt;18</title>
<path fill="none" stroke="black" stroke-width="3" d="M52.2187,-184.719C48.7841,-174.159 43.0992,-160.728 37.3097,-149.21"/>
<polygon fill="black" stroke="black" stroke-width="3" points="40.2489,-147.282 32.469,-140.09 34.0659,-150.564 40.2489,-147.282"/>
</g>
<!-- 21&#45;&gt;22 -->
<g id="edge69" class="edge"><title>21&#45;&gt;22</title>
<path fill="none" stroke="black" stroke-width="4.8563" d="M79.3435,-195.699C86.5235,-192.128 94.3113,-187.745 101.387,-183.311"/>
<polygon fill="black" stroke="black" stroke-width="4.8563" points="103.855,-186.774 109.87,-177.725 99.1809,-179.676 103.855,-186.774"/>
</g>
<!-- 24 -->
<g id="node25" class="node"><title>24</title>
<ellipse fill="grey" stroke="blue" cx="98.8146" cy="-272.794" rx="27" ry="18"/>
<text text-anchor="middle" x="98.8146" y="-269.094" font-family="Times,serif" font-size="14.00">24</text>
</g>
<!-- 21&#45;&gt;24 -->
<g id="edge70" class="edge"><title>21&#45;&gt;24</title>
<path fill="none" stroke="black" stroke-width="3" d="M58.9666,-220.725C63.4025,-229.635 69.9392,-240.474 76.493,-249.969"/>
<polygon fill="black" stroke="black" stroke-width="3" points="73.7615,-252.165 82.4569,-258.218 79.4342,-248.064 73.7615,-252.165"/>
</g>
<!-- 22&#45;&gt;19 -->
<g id="edge71" class="edge"><title>22&#45;&gt;19</title>
<path fill="none" stroke="black" stroke-width="4.38629" d="M120.611,-144.398C116.605,-135.865 110.731,-125.585 104.765,-116.489"/>
<polygon fill="black" stroke="black" stroke-width="4.38629" points="107.908,-114.286 99.0754,-108.227 101.586,-118.64 107.908,-114.286"/>
</g>
<!-- 22&#45;&gt;21 -->
<g id="edge72" class="edge"><title>22&#45;&gt;21</title>
<path fill="none" stroke="black" stroke-width="4.8563" d="M99.7176,-169.42C92.5376,-172.991 84.7498,-177.374 77.674,-181.808"/>
<polygon fill="black" stroke="black" stroke-width="4.8563" points="75.2059,-178.345 69.1914,-187.394 79.8802,-185.443 75.2059,-178.345"/>
</g>
<!-- 22&#45;&gt;23 -->
<g id="edge73" class="edge"><title>22&#45;&gt;23</title>
<path fill="none" stroke="black" stroke-width="4.8563" d="M147.849,-152.739C154.59,-148.318 161.876,-142.946 168.381,-137.623"/>
<polygon fill="black" stroke="black" stroke-width="4.8563" points="171.292,-140.724 176.102,-130.981 165.75,-134.281 171.292,-140.724"/>
</g>
<!-- 25 -->
<g id="node26" class="node"><title>25</title>
<ellipse fill="grey" stroke="blue" cx="169.156" cy="-228.398" rx="27" ry="18"/>
<text text-anchor="middle" x="169.156" y="-224.698" font-family="Times,serif" font-size="14.00">25</text>
</g>
<!-- 22&#45;&gt;25 -->
<g id="edge74" class="edge"><title>22&#45;&gt;25</title>
<path fill="none" stroke="black" stroke-width="4.38629" d="M129.883,-180.119C134.045,-187.976 139.91,-197.264 145.881,-205.601"/>
<polygon fill="black" stroke="black" stroke-width="4.38629" points="143,-208.156 152.076,-213.845 149.137,-203.545 143,-208.156"/>
</g>
<!-- 23&#45;&gt;20 -->
<g id="edge75" class="edge"><title>23&#45;&gt;20</title>
<path fill="none" stroke="black" stroke-width="3" d="M178.119,-97.6456C171.849,-90.4886 163.474,-82.2127 155.256,-74.9415"/>
<polygon fill="black" stroke="black" stroke-width="3" points="157.386,-72.158 147.5,-68.3474 152.852,-77.4911 157.386,-72.158"/>
</g>
<!-- 23&#45;&gt;22 -->
<g id="edge76" class="edge"><title>23&#45;&gt;22</title>
<path fill="none" stroke="black" stroke-width="4.8563" d="M164.868,-124.216C158.127,-128.637 150.841,-134.008 144.337,-139.332"/>
<polygon fill="black" stroke="black" stroke-width="4.8563" points="141.426,-136.231 136.616,-145.974 146.968,-142.673 141.426,-136.231"/>
</g>
<!-- 26 -->
<g id="node27" class="node"><title>26</title>
<ellipse fill="grey" stroke="blue" cx="236.45" cy="-180.796" rx="27" ry="18"/>
<text text-anchor="middle" x="236.45" y="-177.096" font-family="Times,serif" font-size="14.00">26</text>
</g>
<!-- 23&#45;&gt;26 -->
<g id="edge77" class="edge"><title>23&#45;&gt;26</title>
<path fill="none" stroke="black" stroke-width="3" d="M193.881,-132.404C198.668,-140.58 205.438,-150.323 212.215,-158.939"/>
<polygon fill="black" stroke="black" stroke-width="3" points="209.595,-161.264 218.649,-166.766 215.002,-156.818 209.595,-161.264"/>
</g>
<!-- 24&#45;&gt;21 -->
<g id="edge78" class="edge"><title>24&#45;&gt;21</title>
<path fill="none" stroke="black" stroke-width="3" d="M94.1223,-254.937C89.6864,-246.026 83.1497,-235.187 76.5959,-225.692"/>
<polygon fill="black" stroke="black" stroke-width="3" points="79.3274,-223.496 70.632,-217.443 73.6548,-227.598 79.3274,-223.496"/>
</g>
<!-- 24&#45;&gt;25 -->
<g id="edge79" class="edge"><title>24&#45;&gt;25</title>
<path fill="none" stroke="black" stroke-width="4.8563" d="M123.253,-264.755C130.999,-260.532 139.501,-255.274 147.074,-250.046"/>
<polygon fill="black" stroke="black" stroke-width="4.8563" points="149.831,-253.296 155.434,-243.987 144.844,-246.414 149.831,-253.296"/>
</g>
<!-- 27 -->
<g id="node28" class="node"><title>27</title>
<ellipse fill="grey" stroke="blue" cx="146.634" cy="-338.272" rx="27" ry="18"/>
<text text-anchor="middle" x="146.634" y="-334.572" font-family="Times,serif" font-size="14.00">27</text>
</g>
<!-- 24&#45;&gt;27 -->
<g id="edge80" class="edge"><title>24&#45;&gt;27</title>
<path fill="none" stroke="black" stroke-width="3" d="M104.808,-290.7C109.493,-298.717 116.053,-308.2 122.631,-316.603"/>
<polygon fill="black" stroke="black" stroke-width="3" points="120.099,-319.035 129.145,-324.551 125.513,-314.598 120.099,-319.035"/>
</g>
<!-- 25&#45;&gt;22 -->
<g id="edge81" class="edge"><title>25&#45;&gt;22</title>
<path fill="none" stroke="black" stroke-width="4.38629" d="M164.059,-210.531C159.898,-202.674 154.033,-193.386 148.061,-185.049"/>
<polygon fill="black" stroke="black" stroke-width="4.38629" points="150.942,-182.494 141.867,-176.805 144.805,-187.105 150.942,-182.494"/>
</g>
<!-- 25&#45;&gt;24 -->
<g id="edge82" class="edge"><title>25&#45;&gt;24</title>
<path fill="none" stroke="black" stroke-width="4.8563" d="M144.718,-236.437C136.971,-240.66 128.469,-245.918 120.897,-251.146"/>
<polygon fill="black" stroke="black" stroke-width="4.8563" points="118.139,-247.896 112.536,-257.205 123.126,-254.778 118.139,-247.896"/>
</g>
<!-- 25&#45;&gt;26 -->
<g id="edge83" class="edge"><title>25&#45;&gt;26</title>
<path fill="none" stroke="black" stroke-width="4.8563" d="M192.953,-219.214C200.401,-214.635 208.542,-208.99 215.76,-203.419"/>
<polygon fill="black" stroke="black" stroke-width="4.8563" points="218.615,-206.575 223.715,-196.981 213.268,-199.969 218.615,-206.575"/>
</g>
<!-- 28 -->
<g id="node29" class="node"><title>28</title>
<ellipse fill="grey" stroke="blue" cx="214.597" cy="-294.458" rx="27" ry="18"/>
<text text-anchor="middle" x="214.597" y="-290.758" font-family="Times,serif" font-size="14.00">28</text>
</g>
<!-- 25&#45;&gt;28 -->
<g id="edge84" class="edge"><title>25&#45;&gt;28</title>
<path fill="none" stroke="black" stroke-width="4.38629" d="M174.528,-246.3C178.926,-254.362 185.144,-263.921 191.414,-272.409"/>
<polygon fill="black" stroke="black" stroke-width="4.38629" points="188.48,-274.887 197.637,-280.444 194.548,-270.187 188.48,-274.887"/>
</g>
<!-- 26&#45;&gt;23 -->
<g id="edge85" class="edge"><title>26&#45;&gt;23</title>
<path fill="none" stroke="black" stroke-width="3" d="M230.5,-163.095C225.713,-154.919 218.943,-145.176 212.166,-136.56"/>
<polygon fill="black" stroke="black" stroke-width="3" points="214.786,-134.235 205.732,-128.733 209.379,-138.68 214.786,-134.235"/>
</g>
<!-- 26&#45;&gt;25 -->
<g id="edge86" class="edge"><title>26&#45;&gt;25</title>
<path fill="none" stroke="black" stroke-width="4.8563" d="M212.653,-189.98C205.204,-194.559 197.064,-200.204 189.845,-205.775"/>
<polygon fill="black" stroke="black" stroke-width="4.8563" points="186.991,-202.619 181.891,-212.212 192.337,-209.225 186.991,-202.619"/>
</g>
<!-- 29 -->
<g id="node30" class="node"><title>29</title>
<ellipse fill="grey" stroke="blue" cx="280.447" cy="-248.26" rx="27" ry="18"/>
<text text-anchor="middle" x="280.447" y="-244.56" font-family="Times,serif" font-size="14.00">29</text>
</g>
<!-- 26&#45;&gt;29 -->
<g id="edge87" class="edge"><title>26&#45;&gt;29</title>
<path fill="none" stroke="black" stroke-width="3" d="M241.24,-198.537C245.432,-206.739 251.457,-216.548 257.575,-225.295"/>
<polygon fill="black" stroke="black" stroke-width="3" points="254.923,-227.597 263.66,-233.589 260.567,-223.456 254.923,-227.597"/>
</g>
<!-- 27&#45;&gt;24 -->
<g id="edge88" class="edge"><title>27&#45;&gt;24</title>
<path fill="none" stroke="black" stroke-width="3" d="M140.641,-320.367C135.956,-312.35 129.395,-302.867 122.818,-294.464"/>
<polygon fill="black" stroke="black" stroke-width="3" points="125.349,-292.032 116.304,-286.516 119.935,-296.469 125.349,-292.032"/>
</g>
<!-- 27&#45;&gt;28 -->
<g id="edge89" class="edge"><title>27&#45;&gt;28</title>
<path fill="none" stroke="black" stroke-width="4.8563" d="M170.794,-330.162C177.88,-326.206 185.578,-321.359 192.527,-316.497"/>
<polygon fill="black" stroke="black" stroke-width="4.8563" points="195.286,-319.743 200.827,-310.397 190.253,-312.895 195.286,-319.743"/>
</g>
<!-- 28&#45;&gt;25 -->
<g id="edge90" class="edge"><title>28&#45;&gt;25</title>
<path fill="none" stroke="black" stroke-width="4.38629" d="M209.225,-276.555C204.826,-268.493 198.609,-258.934 192.338,-250.447"/>
<polygon fill="black" stroke="black" stroke-width="4.38629" points="195.273,-247.968 186.116,-242.412 189.204,-252.668 195.273,-247.968"/>
</g>
<!-- 28&#45;&gt;27 -->
<g id="edge91" class="edge"><title>28&#45;&gt;27</title>
<path fill="none" stroke="black" stroke-width="4.8563" d="M190.437,-302.569C183.351,-306.524 175.653,-311.371 168.703,-316.233"/>
<polygon fill="black" stroke="black" stroke-width="4.8563" points="165.945,-312.987 160.403,-322.334 170.978,-319.835 165.945,-312.987"/>
</g>
<!-- 28&#45;&gt;29 -->
<g id="edge92" class="edge"><title>28&#45;&gt;29</title>
<path fill="none" stroke="black" stroke-width="4.8563" d="M238.315,-285.482C245.317,-281.209 252.911,-275.994 259.712,-270.807"/>
<polygon fill="black" stroke="black" stroke-width="4.8563" points="262.653,-273.896 267.799,-264.326 257.338,-267.264 262.653,-273.896"/>
</g>
<!-- 29&#45;&gt;26 -->
<g id="edge93" class="edge"><title>29&#45;&gt;26</title>
<path fill="none" stroke="black" stroke-width="3" d="M275.657,-230.519C271.465,-222.317 265.44,-212.508 259.322,-203.761"/>
<polygon fill="black" stroke="black" stroke-width="3" points="261.974,-201.459 253.237,-195.467 256.33,-205.6 261.974,-201.459"/>
</g>
<!-- 29&#45;&gt;28 -->
<g id="edge94" class="edge"><title>29&#45;&gt;28</title>
<path fill="none" stroke="black" stroke-width="4.8563" d="M256.729,-257.236C249.726,-261.509 242.133,-266.724 235.332,-271.911"/>
<polygon fill="black" stroke="black" stroke-width="4.8563" points="232.391,-268.822 227.245,-278.392 237.706,-275.454 232.391,-268.822"/>
</g>
</g>
</svg>
