<?xml version="1.0" encoding="UTF-8" standalone="no"?>
<!DOCTYPE svg PUBLIC "-//W3C//DTD SVG 1.1//EN"
 "http://www.w3.org/Graphics/SVG/1.1/DTD/svg11.dtd">
<!-- Generated by graphviz version 2.38.0 (20140413.2041)
 -->
<!-- Title: Connections Pages: 1 -->
<svg width="130pt" height="169pt"
 viewBox="0.00 0.00 130.13 169.48" xmlns="http://www.w3.org/2000/svg" xmlns:xlink="http://www.w3.org/1999/xlink">
<g id="graph0" class="graph" transform="scale(1 1) rotate(0) translate(68.3819 82.9335)">
<title>Connections</title>
<polygon fill="white" stroke="none" points="-68.3819,86.544 -68.3819,-82.9335 61.7432,-82.9335 61.7432,86.544 -68.3819,86.544"/>
<!-- 0 -->
<g id="node1" class="node"><title>0</title>
<ellipse fill="grey" stroke="blue" cx="-37.3819" cy="-60.9335" rx="27" ry="18"/>
<text text-anchor="middle" x="-37.3819" y="-57.2335" font-family="Times,serif" font-size="14.00">0</text>
</g>
<!-- 1 -->
<g id="node2" class="node"><title>1</title>
<ellipse fill="grey" stroke="blue" cx="6.63868" cy="-3.61049" rx="27" ry="18"/>
<text text-anchor="middle" x="6.63868" y="0.0895133" font-family="Times,serif" font-size="14.00">1</text>
</g>
<!-- 0&#45;&gt;1 -->
<g id="edge1" class="edge"><title>0&#45;&gt;1</title>
<path fill="none" stroke="black" stroke-width="4.8563" d="M-19.221,-47.5385C-14.5221,-42.2705 -9.6061,-36.0646 -5.29472,-29.9909"/>
<polygon fill="black" stroke="black" stroke-width="4.8563" points="-1.51962,-31.9888 0.493569,-21.3115 -8.59006,-27.2735 -1.51962,-31.9888"/>
</g>
<!-- 1&#45;&gt;0 -->
<g id="edge2" class="edge"><title>1&#45;&gt;0</title>
<path fill="none" stroke="black" stroke-width="4.8563" d="M-11.5222,-17.0055C-16.2211,-22.2735 -21.1371,-28.4795 -25.4485,-34.5531"/>
<polygon fill="black" stroke="black" stroke-width="4.8563" points="-29.2236,-32.5552 -31.2368,-43.2325 -22.1531,-37.2705 -29.2236,-32.5552"/>
</g>
<!-- 2 -->
<g id="node3" class="node"><title>2</title>
<ellipse fill="grey" stroke="blue" cx="30.7432" cy="64.544" rx="27" ry="18"/>
<text text-anchor="middle" x="30.7432" y="68.244" font-family="Times,serif" font-size="14.00">2</text>
</g>
<!-- 1&#45;&gt;2 -->
<g id="edge3" class="edge"><title>1&#45;&gt;2</title>
<path fill="none" stroke="black" stroke-width="4.8563" d="M18.809,12.6339C22.0481,19.723 25.2435,28.2346 27.7341,36.2998"/>
<polygon fill="black" stroke="black" stroke-width="4.8563" points="31.8843,35.3644 30.4623,46.1364 23.6949,37.6358 31.8843,35.3644"/>
</g>
<!-- 2&#45;&gt;1 -->
<g id="edge4" class="edge"><title>2&#45;&gt;1</title>
<path fill="none" stroke="black" stroke-width="4.8563" d="M18.5728,48.2996C15.3337,41.2105 12.1384,32.6989 9.64776,24.6337"/>
<polygon fill="black" stroke="black" stroke-width="4.8563" points="5.49759,25.5691 6.91961,14.7972 13.687,23.2977 5.49759,25.5691"/>
</g>
</g>
</svg>
